<?xml version="1.0" encoding="utf-8" standalone="no"?>
<!DOCTYPE svg PUBLIC "-//W3C//DTD SVG 1.1//EN"
  "http://www.w3.org/Graphics/SVG/1.1/DTD/svg11.dtd">
<svg xmlns:xlink="http://www.w3.org/1999/xlink" width="343.005937pt" height="604.559688pt" viewBox="0 0 343.005937 604.559688" xmlns="http://www.w3.org/2000/svg" version="1.1">
 <metadata>
  <rdf:RDF xmlns:dc="http://purl.org/dc/elements/1.1/" xmlns:cc="http://creativecommons.org/ns#" xmlns:rdf="http://www.w3.org/1999/02/22-rdf-syntax-ns#">
   <cc:Work>
    <dc:type rdf:resource="http://purl.org/dc/dcmitype/StillImage"/>
    <dc:date>2025-11-14T13:07:58.241010</dc:date>
    <dc:format>image/svg+xml</dc:format>
    <dc:creator>
     <cc:Agent>
      <dc:title>Matplotlib v3.10.5, https://matplotlib.org/</dc:title>
     </cc:Agent>
    </dc:creator>
   </cc:Work>
  </rdf:RDF>
 </metadata>
 <defs>
  <style type="text/css">*{stroke-linejoin: round; stroke-linecap: butt}</style>
 </defs>
 <g id="figure_1">
  <g id="patch_1">
   <path d="M 0 604.559688 
L 343.005937 604.559688 
L 343.005937 0 
L 0 0 
z
" style="fill: #ffffff"/>
  </g>
  <g id="axes_1">
   <g id="patch_2">
    <path d="M 56.805938 561.6 
L 335.805938 561.6 
L 335.805938 7.2 
L 56.805938 7.2 
z
" style="fill: #ffffff"/>
   </g>
   <g id="matplotlib.axis_1">
    <g id="xtick_1">
     <g id="text_1">
      <!-- n -->
      <g style="fill: #262626" transform="translate(123.070312 579.458281) scale(0.11 -0.11)">
       <defs>
        <path id="DejaVuSans-6e" d="M 3513 2113 
L 3513 0 
L 2938 0 
L 2938 2094 
Q 2938 2591 2744 2837 
Q 2550 3084 2163 3084 
Q 1697 3084 1428 2787 
Q 1159 2491 1159 1978 
L 1159 0 
L 581 0 
L 581 3500 
L 1159 3500 
L 1159 2956 
Q 1366 3272 1645 3428 
Q 1925 3584 2291 3584 
Q 2894 3584 3203 3211 
Q 3513 2838 3513 2113 
z
" transform="scale(0.015625)"/>
       </defs>
       <use xlink:href="#DejaVuSans-6e"/>
      </g>
     </g>
    </g>
    <g id="xtick_2">
     <g id="text_2">
      <!-- y -->
      <g style="fill: #262626" transform="translate(262.800625 579.458281) scale(0.11 -0.11)">
       <defs>
        <path id="DejaVuSans-79" d="M 2059 -325 
Q 1816 -950 1584 -1140 
Q 1353 -1331 966 -1331 
L 506 -1331 
L 506 -850 
L 844 -850 
Q 1081 -850 1212 -737 
Q 1344 -625 1503 -206 
L 1606 56 
L 191 3500 
L 800 3500 
L 1894 763 
L 2988 3500 
L 3597 3500 
L 2059 -325 
z
" transform="scale(0.015625)"/>
       </defs>
       <use xlink:href="#DejaVuSans-79"/>
      </g>
     </g>
    </g>
    <g id="text_3">
     <!-- Head-plate -->
     <g style="fill: #262626" transform="translate(163.254375 594.864063) scale(0.12 -0.12)">
      <defs>
       <path id="DejaVuSans-48" d="M 628 4666 
L 1259 4666 
L 1259 2753 
L 3553 2753 
L 3553 4666 
L 4184 4666 
L 4184 0 
L 3553 0 
L 3553 2222 
L 1259 2222 
L 1259 0 
L 628 0 
L 628 4666 
z
" transform="scale(0.015625)"/>
       <path id="DejaVuSans-65" d="M 3597 1894 
L 3597 1613 
L 953 1613 
Q 991 1019 1311 708 
Q 1631 397 2203 397 
Q 2534 397 2845 478 
Q 3156 559 3463 722 
L 3463 178 
Q 3153 47 2828 -22 
Q 2503 -91 2169 -91 
Q 1331 -91 842 396 
Q 353 884 353 1716 
Q 353 2575 817 3079 
Q 1281 3584 2069 3584 
Q 2775 3584 3186 3129 
Q 3597 2675 3597 1894 
z
M 3022 2063 
Q 3016 2534 2758 2815 
Q 2500 3097 2075 3097 
Q 1594 3097 1305 2825 
Q 1016 2553 972 2059 
L 3022 2063 
z
" transform="scale(0.015625)"/>
       <path id="DejaVuSans-61" d="M 2194 1759 
Q 1497 1759 1228 1600 
Q 959 1441 959 1056 
Q 959 750 1161 570 
Q 1363 391 1709 391 
Q 2188 391 2477 730 
Q 2766 1069 2766 1631 
L 2766 1759 
L 2194 1759 
z
M 3341 1997 
L 3341 0 
L 2766 0 
L 2766 531 
Q 2569 213 2275 61 
Q 1981 -91 1556 -91 
Q 1019 -91 701 211 
Q 384 513 384 1019 
Q 384 1609 779 1909 
Q 1175 2209 1959 2209 
L 2766 2209 
L 2766 2266 
Q 2766 2663 2505 2880 
Q 2244 3097 1772 3097 
Q 1472 3097 1187 3025 
Q 903 2953 641 2809 
L 641 3341 
Q 956 3463 1253 3523 
Q 1550 3584 1831 3584 
Q 2591 3584 2966 3190 
Q 3341 2797 3341 1997 
z
" transform="scale(0.015625)"/>
       <path id="DejaVuSans-64" d="M 2906 2969 
L 2906 4863 
L 3481 4863 
L 3481 0 
L 2906 0 
L 2906 525 
Q 2725 213 2448 61 
Q 2172 -91 1784 -91 
Q 1150 -91 751 415 
Q 353 922 353 1747 
Q 353 2572 751 3078 
Q 1150 3584 1784 3584 
Q 2172 3584 2448 3432 
Q 2725 3281 2906 2969 
z
M 947 1747 
Q 947 1113 1208 752 
Q 1469 391 1925 391 
Q 2381 391 2643 752 
Q 2906 1113 2906 1747 
Q 2906 2381 2643 2742 
Q 2381 3103 1925 3103 
Q 1469 3103 1208 2742 
Q 947 2381 947 1747 
z
" transform="scale(0.015625)"/>
       <path id="DejaVuSans-2d" d="M 313 2009 
L 1997 2009 
L 1997 1497 
L 313 1497 
L 313 2009 
z
" transform="scale(0.015625)"/>
       <path id="DejaVuSans-70" d="M 1159 525 
L 1159 -1331 
L 581 -1331 
L 581 3500 
L 1159 3500 
L 1159 2969 
Q 1341 3281 1617 3432 
Q 1894 3584 2278 3584 
Q 2916 3584 3314 3078 
Q 3713 2572 3713 1747 
Q 3713 922 3314 415 
Q 2916 -91 2278 -91 
Q 1894 -91 1617 61 
Q 1341 213 1159 525 
z
M 3116 1747 
Q 3116 2381 2855 2742 
Q 2594 3103 2138 3103 
Q 1681 3103 1420 2742 
Q 1159 2381 1159 1747 
Q 1159 1113 1420 752 
Q 1681 391 2138 391 
Q 2594 391 2855 752 
Q 3116 1113 3116 1747 
z
" transform="scale(0.015625)"/>
       <path id="DejaVuSans-6c" d="M 603 4863 
L 1178 4863 
L 1178 0 
L 603 0 
L 603 4863 
z
" transform="scale(0.015625)"/>
       <path id="DejaVuSans-74" d="M 1172 4494 
L 1172 3500 
L 2356 3500 
L 2356 3053 
L 1172 3053 
L 1172 1153 
Q 1172 725 1289 603 
Q 1406 481 1766 481 
L 2356 481 
L 2356 0 
L 1766 0 
Q 1100 0 847 248 
Q 594 497 594 1153 
L 594 3053 
L 172 3053 
L 172 3500 
L 594 3500 
L 594 4494 
L 1172 4494 
z
" transform="scale(0.015625)"/>
      </defs>
      <use xlink:href="#DejaVuSans-48"/>
      <use xlink:href="#DejaVuSans-65" transform="translate(75.195312 0)"/>
      <use xlink:href="#DejaVuSans-61" transform="translate(136.71875 0)"/>
      <use xlink:href="#DejaVuSans-64" transform="translate(197.998047 0)"/>
      <use xlink:href="#DejaVuSans-2d" transform="translate(261.474609 0)"/>
      <use xlink:href="#DejaVuSans-70" transform="translate(297.558594 0)"/>
      <use xlink:href="#DejaVuSans-6c" transform="translate(361.035156 0)"/>
      <use xlink:href="#DejaVuSans-61" transform="translate(388.818359 0)"/>
      <use xlink:href="#DejaVuSans-74" transform="translate(450.097656 0)"/>
      <use xlink:href="#DejaVuSans-65" transform="translate(489.306641 0)"/>
     </g>
    </g>
   </g>
   <g id="matplotlib.axis_2">
    <g id="ytick_1">
     <g id="text_4">
      <!-- 0.00 -->
      <g style="fill: #262626" transform="translate(22.81375 505.915663) scale(0.11 -0.11)">
       <defs>
        <path id="DejaVuSans-30" d="M 2034 4250 
Q 1547 4250 1301 3770 
Q 1056 3291 1056 2328 
Q 1056 1369 1301 889 
Q 1547 409 2034 409 
Q 2525 409 2770 889 
Q 3016 1369 3016 2328 
Q 3016 3291 2770 3770 
Q 2525 4250 2034 4250 
z
M 2034 4750 
Q 2819 4750 3233 4129 
Q 3647 3509 3647 2328 
Q 3647 1150 3233 529 
Q 2819 -91 2034 -91 
Q 1250 -91 836 529 
Q 422 1150 422 2328 
Q 422 3509 836 4129 
Q 1250 4750 2034 4750 
z
" transform="scale(0.015625)"/>
        <path id="DejaVuSans-2e" d="M 684 794 
L 1344 794 
L 1344 0 
L 684 0 
L 684 794 
z
" transform="scale(0.015625)"/>
       </defs>
       <use xlink:href="#DejaVuSans-30"/>
       <use xlink:href="#DejaVuSans-2e" transform="translate(63.623047 0)"/>
       <use xlink:href="#DejaVuSans-30" transform="translate(95.410156 0)"/>
       <use xlink:href="#DejaVuSans-30" transform="translate(159.033203 0)"/>
      </g>
     </g>
    </g>
    <g id="ytick_2">
     <g id="text_5">
      <!-- 0.05 -->
      <g style="fill: #262626" transform="translate(22.81375 385.570792) scale(0.11 -0.11)">
       <defs>
        <path id="DejaVuSans-35" d="M 691 4666 
L 3169 4666 
L 3169 4134 
L 1269 4134 
L 1269 2991 
Q 1406 3038 1543 3061 
Q 1681 3084 1819 3084 
Q 2600 3084 3056 2656 
Q 3513 2228 3513 1497 
Q 3513 744 3044 326 
Q 2575 -91 1722 -91 
Q 1428 -91 1123 -41 
Q 819 9 494 109 
L 494 744 
Q 775 591 1075 516 
Q 1375 441 1709 441 
Q 2250 441 2565 725 
Q 2881 1009 2881 1497 
Q 2881 1984 2565 2268 
Q 2250 2553 1709 2553 
Q 1456 2553 1204 2497 
Q 953 2441 691 2322 
L 691 4666 
z
" transform="scale(0.015625)"/>
       </defs>
       <use xlink:href="#DejaVuSans-30"/>
       <use xlink:href="#DejaVuSans-2e" transform="translate(63.623047 0)"/>
       <use xlink:href="#DejaVuSans-30" transform="translate(95.410156 0)"/>
       <use xlink:href="#DejaVuSans-35" transform="translate(159.033203 0)"/>
      </g>
     </g>
    </g>
    <g id="ytick_3">
     <g id="text_6">
      <!-- 0.10 -->
      <g style="fill: #262626" transform="translate(22.81375 265.225921) scale(0.11 -0.11)">
       <defs>
        <path id="DejaVuSans-31" d="M 794 531 
L 1825 531 
L 1825 4091 
L 703 3866 
L 703 4441 
L 1819 4666 
L 2450 4666 
L 2450 531 
L 3481 531 
L 3481 0 
L 794 0 
L 794 531 
z
" transform="scale(0.015625)"/>
       </defs>
       <use xlink:href="#DejaVuSans-30"/>
       <use xlink:href="#DejaVuSans-2e" transform="translate(63.623047 0)"/>
       <use xlink:href="#DejaVuSans-31" transform="translate(95.410156 0)"/>
       <use xlink:href="#DejaVuSans-30" transform="translate(159.033203 0)"/>
      </g>
     </g>
    </g>
    <g id="ytick_4">
     <g id="text_7">
      <!-- 0.15 -->
      <g style="fill: #262626" transform="translate(22.81375 144.881051) scale(0.11 -0.11)">
       <use xlink:href="#DejaVuSans-30"/>
       <use xlink:href="#DejaVuSans-2e" transform="translate(63.623047 0)"/>
       <use xlink:href="#DejaVuSans-31" transform="translate(95.410156 0)"/>
       <use xlink:href="#DejaVuSans-35" transform="translate(159.033203 0)"/>
      </g>
     </g>
    </g>
    <g id="ytick_5">
     <g id="text_8">
      <!-- 0.20 -->
      <g style="fill: #262626" transform="translate(22.81375 24.53618) scale(0.11 -0.11)">
       <defs>
        <path id="DejaVuSans-32" d="M 1228 531 
L 3431 531 
L 3431 0 
L 469 0 
L 469 531 
Q 828 903 1448 1529 
Q 2069 2156 2228 2338 
Q 2531 2678 2651 2914 
Q 2772 3150 2772 3378 
Q 2772 3750 2511 3984 
Q 2250 4219 1831 4219 
Q 1534 4219 1204 4116 
Q 875 4013 500 3803 
L 500 4441 
Q 881 4594 1212 4672 
Q 1544 4750 1819 4750 
Q 2544 4750 2975 4387 
Q 3406 4025 3406 3419 
Q 3406 3131 3298 2873 
Q 3191 2616 2906 2266 
Q 2828 2175 2409 1742 
Q 1991 1309 1228 531 
z
" transform="scale(0.015625)"/>
       </defs>
       <use xlink:href="#DejaVuSans-30"/>
       <use xlink:href="#DejaVuSans-2e" transform="translate(63.623047 0)"/>
       <use xlink:href="#DejaVuSans-32" transform="translate(95.410156 0)"/>
       <use xlink:href="#DejaVuSans-30" transform="translate(159.033203 0)"/>
      </g>
     </g>
    </g>
    <g id="text_9">
     <!-- Framewise displacement (mm) -->
     <g style="fill: #262626" transform="translate(16.318125 377.1075) rotate(-90) scale(0.12 -0.12)">
      <defs>
       <path id="DejaVuSans-46" d="M 628 4666 
L 3309 4666 
L 3309 4134 
L 1259 4134 
L 1259 2759 
L 3109 2759 
L 3109 2228 
L 1259 2228 
L 1259 0 
L 628 0 
L 628 4666 
z
" transform="scale(0.015625)"/>
       <path id="DejaVuSans-72" d="M 2631 2963 
Q 2534 3019 2420 3045 
Q 2306 3072 2169 3072 
Q 1681 3072 1420 2755 
Q 1159 2438 1159 1844 
L 1159 0 
L 581 0 
L 581 3500 
L 1159 3500 
L 1159 2956 
Q 1341 3275 1631 3429 
Q 1922 3584 2338 3584 
Q 2397 3584 2469 3576 
Q 2541 3569 2628 3553 
L 2631 2963 
z
" transform="scale(0.015625)"/>
       <path id="DejaVuSans-6d" d="M 3328 2828 
Q 3544 3216 3844 3400 
Q 4144 3584 4550 3584 
Q 5097 3584 5394 3201 
Q 5691 2819 5691 2113 
L 5691 0 
L 5113 0 
L 5113 2094 
Q 5113 2597 4934 2840 
Q 4756 3084 4391 3084 
Q 3944 3084 3684 2787 
Q 3425 2491 3425 1978 
L 3425 0 
L 2847 0 
L 2847 2094 
Q 2847 2600 2669 2842 
Q 2491 3084 2119 3084 
Q 1678 3084 1418 2786 
Q 1159 2488 1159 1978 
L 1159 0 
L 581 0 
L 581 3500 
L 1159 3500 
L 1159 2956 
Q 1356 3278 1631 3431 
Q 1906 3584 2284 3584 
Q 2666 3584 2933 3390 
Q 3200 3197 3328 2828 
z
" transform="scale(0.015625)"/>
       <path id="DejaVuSans-77" d="M 269 3500 
L 844 3500 
L 1563 769 
L 2278 3500 
L 2956 3500 
L 3675 769 
L 4391 3500 
L 4966 3500 
L 4050 0 
L 3372 0 
L 2619 2869 
L 1863 0 
L 1184 0 
L 269 3500 
z
" transform="scale(0.015625)"/>
       <path id="DejaVuSans-69" d="M 603 3500 
L 1178 3500 
L 1178 0 
L 603 0 
L 603 3500 
z
M 603 4863 
L 1178 4863 
L 1178 4134 
L 603 4134 
L 603 4863 
z
" transform="scale(0.015625)"/>
       <path id="DejaVuSans-73" d="M 2834 3397 
L 2834 2853 
Q 2591 2978 2328 3040 
Q 2066 3103 1784 3103 
Q 1356 3103 1142 2972 
Q 928 2841 928 2578 
Q 928 2378 1081 2264 
Q 1234 2150 1697 2047 
L 1894 2003 
Q 2506 1872 2764 1633 
Q 3022 1394 3022 966 
Q 3022 478 2636 193 
Q 2250 -91 1575 -91 
Q 1294 -91 989 -36 
Q 684 19 347 128 
L 347 722 
Q 666 556 975 473 
Q 1284 391 1588 391 
Q 1994 391 2212 530 
Q 2431 669 2431 922 
Q 2431 1156 2273 1281 
Q 2116 1406 1581 1522 
L 1381 1569 
Q 847 1681 609 1914 
Q 372 2147 372 2553 
Q 372 3047 722 3315 
Q 1072 3584 1716 3584 
Q 2034 3584 2315 3537 
Q 2597 3491 2834 3397 
z
" transform="scale(0.015625)"/>
       <path id="DejaVuSans-20" transform="scale(0.015625)"/>
       <path id="DejaVuSans-63" d="M 3122 3366 
L 3122 2828 
Q 2878 2963 2633 3030 
Q 2388 3097 2138 3097 
Q 1578 3097 1268 2742 
Q 959 2388 959 1747 
Q 959 1106 1268 751 
Q 1578 397 2138 397 
Q 2388 397 2633 464 
Q 2878 531 3122 666 
L 3122 134 
Q 2881 22 2623 -34 
Q 2366 -91 2075 -91 
Q 1284 -91 818 406 
Q 353 903 353 1747 
Q 353 2603 823 3093 
Q 1294 3584 2113 3584 
Q 2378 3584 2631 3529 
Q 2884 3475 3122 3366 
z
" transform="scale(0.015625)"/>
       <path id="DejaVuSans-28" d="M 1984 4856 
Q 1566 4138 1362 3434 
Q 1159 2731 1159 2009 
Q 1159 1288 1364 580 
Q 1569 -128 1984 -844 
L 1484 -844 
Q 1016 -109 783 600 
Q 550 1309 550 2009 
Q 550 2706 781 3412 
Q 1013 4119 1484 4856 
L 1984 4856 
z
" transform="scale(0.015625)"/>
       <path id="DejaVuSans-29" d="M 513 4856 
L 1013 4856 
Q 1481 4119 1714 3412 
Q 1947 2706 1947 2009 
Q 1947 1309 1714 600 
Q 1481 -109 1013 -844 
L 513 -844 
Q 928 -128 1133 580 
Q 1338 1288 1338 2009 
Q 1338 2731 1133 3434 
Q 928 4138 513 4856 
z
" transform="scale(0.015625)"/>
      </defs>
      <use xlink:href="#DejaVuSans-46"/>
      <use xlink:href="#DejaVuSans-72" transform="translate(50.269531 0)"/>
      <use xlink:href="#DejaVuSans-61" transform="translate(91.382812 0)"/>
      <use xlink:href="#DejaVuSans-6d" transform="translate(152.662109 0)"/>
      <use xlink:href="#DejaVuSans-65" transform="translate(250.074219 0)"/>
      <use xlink:href="#DejaVuSans-77" transform="translate(311.597656 0)"/>
      <use xlink:href="#DejaVuSans-69" transform="translate(393.384766 0)"/>
      <use xlink:href="#DejaVuSans-73" transform="translate(421.167969 0)"/>
      <use xlink:href="#DejaVuSans-65" transform="translate(473.267578 0)"/>
      <use xlink:href="#DejaVuSans-20" transform="translate(534.791016 0)"/>
      <use xlink:href="#DejaVuSans-64" transform="translate(566.578125 0)"/>
      <use xlink:href="#DejaVuSans-69" transform="translate(630.054688 0)"/>
      <use xlink:href="#DejaVuSans-73" transform="translate(657.837891 0)"/>
      <use xlink:href="#DejaVuSans-70" transform="translate(709.9375 0)"/>
      <use xlink:href="#DejaVuSans-6c" transform="translate(773.414062 0)"/>
      <use xlink:href="#DejaVuSans-61" transform="translate(801.197266 0)"/>
      <use xlink:href="#DejaVuSans-63" transform="translate(862.476562 0)"/>
      <use xlink:href="#DejaVuSans-65" transform="translate(917.457031 0)"/>
      <use xlink:href="#DejaVuSans-6d" transform="translate(978.980469 0)"/>
      <use xlink:href="#DejaVuSans-65" transform="translate(1076.392578 0)"/>
      <use xlink:href="#DejaVuSans-6e" transform="translate(1137.916016 0)"/>
      <use xlink:href="#DejaVuSans-74" transform="translate(1201.294922 0)"/>
      <use xlink:href="#DejaVuSans-20" transform="translate(1240.503906 0)"/>
      <use xlink:href="#DejaVuSans-28" transform="translate(1272.291016 0)"/>
      <use xlink:href="#DejaVuSans-6d" transform="translate(1311.304688 0)"/>
      <use xlink:href="#DejaVuSans-6d" transform="translate(1408.716797 0)"/>
      <use xlink:href="#DejaVuSans-29" transform="translate(1506.128906 0)"/>
     </g>
    </g>
   </g>
   <g id="FillBetweenPolyCollection_1">
    <defs>
     <path id="mdb3ee1695e" d="M 126.801868 -90.820018 
L 126.310007 -90.820018 
L 126.166194 -94.290511 
L 125.952292 -97.761005 
L 125.641468 -101.231498 
L 125.199996 -104.701991 
L 124.586922 -108.172485 
L 123.75439 -111.642978 
L 122.64893 -115.113471 
L 121.21395 -118.583964 
L 119.393636 -122.054458 
L 117.138326 -125.524951 
L 114.411202 -128.995444 
L 111.195923 -132.465938 
L 107.504475 -135.936431 
L 103.384234 -139.406924 
L 98.922894 -142.877418 
L 94.249807 -146.347911 
L 89.53233 -149.818404 
L 84.966276 -153.288898 
L 80.760454 -156.759391 
L 77.116473 -160.229884 
L 74.206376 -163.700378 
L 72.151637 -167.170871 
L 71.007482 -170.641364 
L 70.755937 -174.111858 
L 71.309524 -177.582351 
L 72.525421 -181.052844 
L 74.22769 -184.523337 
L 76.233403 -187.993831 
L 78.377693 -191.464324 
L 80.533124 -194.934817 
L 82.620192 -198.405311 
L 84.607814 -201.875804 
L 86.504913 -205.346297 
L 88.345951 -208.816791 
L 90.174242 -212.287284 
L 92.026884 -215.757777 
L 93.924213 -219.228271 
L 95.865283 -222.698764 
L 97.829264 -226.169257 
L 99.78137 -229.639751 
L 101.681186 -233.110244 
L 103.491164 -236.580737 
L 105.183474 -240.05123 
L 106.7441 -243.521724 
L 108.173805 -246.992217 
L 109.486248 -250.46271 
L 110.703927 -253.933204 
L 111.852895 -257.403697 
L 112.957272 -260.87419 
L 114.034564 -264.344684 
L 115.092606 -267.815177 
L 116.128655 -271.28567 
L 117.130707 -274.756164 
L 118.080666 -278.226657 
L 118.958575 -281.69715 
L 119.746935 -285.167644 
L 120.434184 -288.638137 
L 121.01669 -292.10863 
L 121.499037 -295.579124 
L 121.892789 -299.049617 
L 122.214209 -302.52011 
L 122.481548 -305.990603 
L 122.712462 -309.461097 
L 122.921949 -312.93159 
L 123.121038 -316.402083 
L 123.316276 -319.872577 
L 123.509944 -323.34307 
L 123.700843 -326.813563 
L 123.885438 -330.284057 
L 124.059126 -333.75455 
L 124.217385 -337.225043 
L 124.356625 -340.695537 
L 124.47466 -344.16603 
L 124.570802 -347.636523 
L 124.645695 -351.107017 
L 124.701029 -354.57751 
L 124.739262 -358.048003 
L 124.763423 -361.518497 
L 124.776994 -364.98899 
L 124.783852 -368.459483 
L 124.788194 -371.929976 
L 124.794449 -375.40047 
L 124.80712 -378.870963 
L 124.83058 -382.341456 
L 124.868806 -385.81195 
L 124.925048 -389.282443 
L 125.001449 -392.752936 
L 125.098667 -396.22343 
L 125.215578 -399.693923 
L 125.34917 -403.164416 
L 125.494698 -406.63491 
L 125.646144 -410.105403 
L 125.796906 -413.575896 
L 125.940604 -417.04639 
L 126.071837 -420.516883 
L 126.186735 -423.987376 
L 126.283224 -427.457869 
L 126.360979 -430.928363 
L 126.421132 -434.398856 
L 126.690743 -434.398856 
L 126.690743 -434.398856 
L 126.750896 -430.928363 
L 126.828651 -427.457869 
L 126.92514 -423.987376 
L 127.040038 -420.516883 
L 127.171271 -417.04639 
L 127.314969 -413.575896 
L 127.465731 -410.105403 
L 127.617177 -406.63491 
L 127.762705 -403.164416 
L 127.896297 -399.693923 
L 128.013208 -396.22343 
L 128.110426 -392.752936 
L 128.186827 -389.282443 
L 128.243069 -385.81195 
L 128.281295 -382.341456 
L 128.304755 -378.870963 
L 128.317426 -375.40047 
L 128.323681 -371.929976 
L 128.328023 -368.459483 
L 128.334881 -364.98899 
L 128.348452 -361.518497 
L 128.372613 -358.048003 
L 128.410846 -354.57751 
L 128.46618 -351.107017 
L 128.541073 -347.636523 
L 128.637215 -344.16603 
L 128.75525 -340.695537 
L 128.89449 -337.225043 
L 129.052749 -333.75455 
L 129.226437 -330.284057 
L 129.411032 -326.813563 
L 129.601931 -323.34307 
L 129.795599 -319.872577 
L 129.990837 -316.402083 
L 130.189926 -312.93159 
L 130.399413 -309.461097 
L 130.630327 -305.990603 
L 130.897666 -302.52011 
L 131.219086 -299.049617 
L 131.612838 -295.579124 
L 132.095185 -292.10863 
L 132.677691 -288.638137 
L 133.36494 -285.167644 
L 134.1533 -281.69715 
L 135.031209 -278.226657 
L 135.981168 -274.756164 
L 136.98322 -271.28567 
L 138.019269 -267.815177 
L 139.077311 -264.344684 
L 140.154603 -260.87419 
L 141.25898 -257.403697 
L 142.407948 -253.933204 
L 143.625627 -250.46271 
L 144.93807 -246.992217 
L 146.367775 -243.521724 
L 147.928401 -240.05123 
L 149.620711 -236.580737 
L 151.430689 -233.110244 
L 153.330505 -229.639751 
L 155.282611 -226.169257 
L 157.246592 -222.698764 
L 159.187662 -219.228271 
L 161.084991 -215.757777 
L 162.937633 -212.287284 
L 164.765924 -208.816791 
L 166.606962 -205.346297 
L 168.504061 -201.875804 
L 170.491683 -198.405311 
L 172.578751 -194.934817 
L 174.734182 -191.464324 
L 176.878472 -187.993831 
L 178.884185 -184.523337 
L 180.586454 -181.052844 
L 181.802351 -177.582351 
L 182.355938 -174.111858 
L 182.104393 -170.641364 
L 180.960238 -167.170871 
L 178.905499 -163.700378 
L 175.995402 -160.229884 
L 172.351421 -156.759391 
L 168.145599 -153.288898 
L 163.579545 -149.818404 
L 158.862068 -146.347911 
L 154.188981 -142.877418 
L 149.727641 -139.406924 
L 145.6074 -135.936431 
L 141.915952 -132.465938 
L 138.700673 -128.995444 
L 135.973549 -125.524951 
L 133.718239 -122.054458 
L 131.897925 -118.583964 
L 130.462945 -115.113471 
L 129.357485 -111.642978 
L 128.524953 -108.172485 
L 127.911879 -104.701991 
L 127.470407 -101.231498 
L 127.159583 -97.761005 
L 126.945681 -94.290511 
L 126.801868 -90.820018 
z
" style="stroke: #5d5d5d; stroke-width: 1.25"/>
    </defs>
    <g clip-path="url(#p548a321a2f)">
     <use xlink:href="#mdb3ee1695e" x="0" y="604.559688" style="fill: #b1d6d9; stroke: #5d5d5d; stroke-width: 1.25"/>
    </g>
   </g>
   <g id="FillBetweenPolyCollection_2">
    <defs>
     <path id="mf112ef6678" d="M 267.835966 -68.159688 
L 264.275909 -68.159688 
L 263.325356 -73.250597 
L 262.003889 -78.341506 
L 260.237508 -83.432415 
L 257.96884 -88.523324 
L 255.171417 -93.614233 
L 251.863129 -98.705142 
L 248.115534 -103.796051 
L 244.055689 -108.88696 
L 239.858172 -113.977869 
L 235.726896 -119.068778 
L 231.86878 -124.159688 
L 228.463694 -129.250597 
L 225.636588 -134.341506 
L 223.437807 -139.432415 
L 221.836119 -144.523324 
L 220.726308 -149.614233 
L 219.950002 -154.705142 
L 219.325597 -159.796051 
L 218.681367 -164.88696 
L 217.885551 -169.977869 
L 216.868211 -175.068778 
L 215.631671 -180.159688 
L 214.248651 -185.250597 
L 212.849421 -190.341506 
L 211.600906 -195.432415 
L 210.681553 -200.523324 
L 210.255938 -205.614233 
L 210.452657 -210.705142 
L 211.348206 -215.796051 
L 212.958491 -220.88696 
L 215.238525 -225.977869 
L 218.089801 -231.068778 
L 221.373919 -236.159688 
L 224.930313 -241.250597 
L 228.595459 -246.341506 
L 232.220787 -251.432415 
L 235.686784 -256.523324 
L 238.911415 -261.614233 
L 241.852026 -266.705142 
L 244.501068 -271.796051 
L 246.877113 -276.88696 
L 249.013427 -281.977869 
L 250.946606 -287.068778 
L 252.707502 -292.159688 
L 254.315858 -297.250597 
L 255.779063 -302.341506 
L 257.094479 -307.432415 
L 258.254074 -312.523324 
L 259.249833 -317.614233 
L 260.078516 -322.705142 
L 260.744773 -327.796051 
L 261.26214 -332.88696 
L 261.652015 -337.977869 
L 261.941108 -343.068778 
L 262.158076 -348.159688 
L 262.330108 -353.250597 
L 262.480109 -358.341506 
L 262.624902 -363.432415 
L 262.774642 -368.523324 
L 262.933355 -373.614233 
L 263.100337 -378.705142 
L 263.272014 -383.796051 
L 263.443825 -388.88696 
L 263.61173 -393.977869 
L 263.773078 -399.068778 
L 263.926725 -404.159688 
L 264.072505 -409.250597 
L 264.210322 -414.341506 
L 264.339223 -419.432415 
L 264.45683 -424.523324 
L 264.559359 -429.614233 
L 264.642289 -434.705142 
L 264.701493 -439.796051 
L 264.734484 -444.88696 
L 264.741372 -449.977869 
L 264.725217 -455.068778 
L 264.691623 -460.159688 
L 264.64772 -465.250597 
L 264.600826 -470.341506 
L 264.557221 -475.432415 
L 264.521407 -480.523324 
L 264.496018 -485.614233 
L 264.482347 -490.705142 
L 264.481203 -495.796051 
L 264.493725 -500.88696 
L 264.521794 -505.977869 
L 264.567881 -511.068778 
L 264.634367 -516.159688 
L 264.722584 -521.250597 
L 264.831944 -526.341506 
L 264.959461 -531.432415 
L 265.099851 -536.523324 
L 265.246193 -541.614233 
L 265.390961 -546.705142 
L 265.527141 -551.796051 
L 265.649171 -556.88696 
L 265.753502 -561.977869 
L 265.838719 -567.068778 
L 265.905295 -572.159688 
L 266.20658 -572.159688 
L 266.20658 -572.159688 
L 266.273156 -567.068778 
L 266.358373 -561.977869 
L 266.462704 -556.88696 
L 266.584734 -551.796051 
L 266.720914 -546.705142 
L 266.865682 -541.614233 
L 267.012024 -536.523324 
L 267.152414 -531.432415 
L 267.279931 -526.341506 
L 267.389291 -521.250597 
L 267.477508 -516.159688 
L 267.543994 -511.068778 
L 267.590081 -505.977869 
L 267.61815 -500.88696 
L 267.630672 -495.796051 
L 267.629528 -490.705142 
L 267.615857 -485.614233 
L 267.590468 -480.523324 
L 267.554654 -475.432415 
L 267.511049 -470.341506 
L 267.464155 -465.250597 
L 267.420252 -460.159688 
L 267.386658 -455.068778 
L 267.370503 -449.977869 
L 267.377391 -444.88696 
L 267.410382 -439.796051 
L 267.469586 -434.705142 
L 267.552516 -429.614233 
L 267.655045 -424.523324 
L 267.772652 -419.432415 
L 267.901553 -414.341506 
L 268.03937 -409.250597 
L 268.18515 -404.159688 
L 268.338797 -399.068778 
L 268.500145 -393.977869 
L 268.66805 -388.88696 
L 268.839861 -383.796051 
L 269.011538 -378.705142 
L 269.17852 -373.614233 
L 269.337233 -368.523324 
L 269.486973 -363.432415 
L 269.631766 -358.341506 
L 269.781767 -353.250597 
L 269.953799 -348.159688 
L 270.170767 -343.068778 
L 270.45986 -337.977869 
L 270.849735 -332.88696 
L 271.367102 -327.796051 
L 272.033359 -322.705142 
L 272.862042 -317.614233 
L 273.857801 -312.523324 
L 275.017396 -307.432415 
L 276.332812 -302.341506 
L 277.796017 -297.250597 
L 279.404373 -292.159688 
L 281.165269 -287.068778 
L 283.098448 -281.977869 
L 285.234762 -276.88696 
L 287.610807 -271.796051 
L 290.259849 -266.705142 
L 293.20046 -261.614233 
L 296.425091 -256.523324 
L 299.891088 -251.432415 
L 303.516416 -246.341506 
L 307.181562 -241.250597 
L 310.737956 -236.159688 
L 314.022074 -231.068778 
L 316.87335 -225.977869 
L 319.153384 -220.88696 
L 320.763669 -215.796051 
L 321.659218 -210.705142 
L 321.855937 -205.614233 
L 321.430322 -200.523324 
L 320.510969 -195.432415 
L 319.262454 -190.341506 
L 317.863224 -185.250597 
L 316.480204 -180.159688 
L 315.243664 -175.068778 
L 314.226324 -169.977869 
L 313.430508 -164.88696 
L 312.786278 -159.796051 
L 312.161873 -154.705142 
L 311.385567 -149.614233 
L 310.275756 -144.523324 
L 308.674068 -139.432415 
L 306.475287 -134.341506 
L 303.648181 -129.250597 
L 300.243095 -124.159688 
L 296.384979 -119.068778 
L 292.253703 -113.977869 
L 288.056186 -108.88696 
L 283.996341 -103.796051 
L 280.248746 -98.705142 
L 276.940458 -93.614233 
L 274.143035 -88.523324 
L 271.874367 -83.432415 
L 270.107986 -78.341506 
L 268.786519 -73.250597 
L 267.835966 -68.159688 
z
" style="stroke: #5d5d5d; stroke-width: 1.25"/>
    </defs>
    <g clip-path="url(#p548a321a2f)">
     <use xlink:href="#mf112ef6678" x="0" y="604.559688" style="fill: #da8e5c; stroke: #5d5d5d; stroke-width: 1.25"/>
    </g>
   </g>
   <g id="patch_3">
    <path d="M 56.805938 561.6 
L 56.805938 7.2 
" style="fill: none; stroke: #262626; stroke-width: 1.25; stroke-linejoin: miter; stroke-linecap: square"/>
   </g>
   <g id="patch_4">
    <path d="M 335.805938 561.6 
L 335.805938 7.2 
" style="fill: none; stroke: #262626; stroke-width: 1.25; stroke-linejoin: miter; stroke-linecap: square"/>
   </g>
   <g id="patch_5">
    <path d="M 56.805937 561.6 
L 335.805938 561.6 
" style="fill: none; stroke: #262626; stroke-width: 1.25; stroke-linejoin: miter; stroke-linecap: square"/>
   </g>
   <g id="patch_6">
    <path d="M 56.805937 7.2 
L 335.805938 7.2 
" style="fill: none; stroke: #262626; stroke-width: 1.25; stroke-linejoin: miter; stroke-linecap: square"/>
   </g>
   <g id="PathCollection_1">
    <defs>
     <path id="m0d411fea4f" d="M 0 2.5 
C 0.663008 2.5 1.29895 2.236584 1.767767 1.767767 
C 2.236584 1.29895 2.5 0.663008 2.5 0 
C 2.5 -0.663008 2.236584 -1.29895 1.767767 -1.767767 
C 1.29895 -2.236584 0.663008 -2.5 0 -2.5 
C -0.663008 -2.5 -1.29895 -2.236584 -1.767767 -1.767767 
C -2.236584 -1.29895 -2.5 -0.663008 -2.5 0 
C -2.5 0.663008 -2.236584 1.29895 -1.767767 1.767767 
C -1.29895 2.236584 -0.663008 2.5 0 2.5 
z
"/>
    </defs>
    <g clip-path="url(#p548a321a2f)">
     <use xlink:href="#m0d411fea4f" x="118.560417" y="418.722657" style="fill-opacity: 0.3"/>
     <use xlink:href="#m0d411fea4f" x="135.301454" y="329.665976" style="fill-opacity: 0.3"/>
     <use xlink:href="#m0d411fea4f" x="133.33911" y="433.974296" style="fill-opacity: 0.3"/>
     <use xlink:href="#m0d411fea4f" x="135.476912" y="429.27366" style="fill-opacity: 0.3"/>
     <use xlink:href="#m0d411fea4f" x="132.819289" y="372.598196" style="fill-opacity: 0.3"/>
     <use xlink:href="#m0d411fea4f" x="129.33558" y="344.325623" style="fill-opacity: 0.3"/>
     <use xlink:href="#m0d411fea4f" x="122.410654" y="424.676139" style="fill-opacity: 0.3"/>
     <use xlink:href="#m0d411fea4f" x="117.048007" y="417.259585" style="fill-opacity: 0.3"/>
     <use xlink:href="#m0d411fea4f" x="139.62768" y="426.679255" style="fill-opacity: 0.3"/>
     <use xlink:href="#m0d411fea4f" x="133.605216" y="390.919899" style="fill-opacity: 0.3"/>
     <use xlink:href="#m0d411fea4f" x="115.338877" y="431.598809" style="fill-opacity: 0.3"/>
     <use xlink:href="#m0d411fea4f" x="128.963274" y="459.005879" style="fill-opacity: 0.3"/>
     <use xlink:href="#m0d411fea4f" x="134.750936" y="433.806042" style="fill-opacity: 0.3"/>
     <use xlink:href="#m0d411fea4f" x="134.551192" y="435.143254" style="fill-opacity: 0.3"/>
     <use xlink:href="#m0d411fea4f" x="126.620104" y="429.713718" style="fill-opacity: 0.3"/>
     <use xlink:href="#m0d411fea4f" x="126.779761" y="447.476135" style="fill-opacity: 0.3"/>
     <use xlink:href="#m0d411fea4f" x="115.25133" y="288.832331" style="fill-opacity: 0.3"/>
     <use xlink:href="#m0d411fea4f" x="116.912174" y="381.862576" style="fill-opacity: 0.3"/>
     <use xlink:href="#m0d411fea4f" x="113.537727" y="367.570692" style="fill-opacity: 0.3"/>
     <use xlink:href="#m0d411fea4f" x="115.590591" y="348.822326" style="fill-opacity: 0.3"/>
     <use xlink:href="#m0d411fea4f" x="121.483421" y="432.545582" style="fill-opacity: 0.3"/>
     <use xlink:href="#m0d411fea4f" x="119.06802" y="406.676378" style="fill-opacity: 0.3"/>
     <use xlink:href="#m0d411fea4f" x="132.873957" y="398.318322" style="fill-opacity: 0.3"/>
     <use xlink:href="#m0d411fea4f" x="126.736301" y="405.654777" style="fill-opacity: 0.3"/>
     <use xlink:href="#m0d411fea4f" x="128.085555" y="391.173714" style="fill-opacity: 0.3"/>
     <use xlink:href="#m0d411fea4f" x="127.960443" y="436.74389" style="fill-opacity: 0.3"/>
     <use xlink:href="#m0d411fea4f" x="139.890198" y="397.12512" style="fill-opacity: 0.3"/>
     <use xlink:href="#m0d411fea4f" x="123.501859" y="342.128623" style="fill-opacity: 0.3"/>
     <use xlink:href="#m0d411fea4f" x="139.576018" y="403.277331" style="fill-opacity: 0.3"/>
     <use xlink:href="#m0d411fea4f" x="115.315135" y="389.002652" style="fill-opacity: 0.3"/>
     <use xlink:href="#m0d411fea4f" x="139.690929" y="436.557722" style="fill-opacity: 0.3"/>
     <use xlink:href="#m0d411fea4f" x="116.153954" y="393.633829" style="fill-opacity: 0.3"/>
     <use xlink:href="#m0d411fea4f" x="133.08214" y="352.610379" style="fill-opacity: 0.3"/>
     <use xlink:href="#m0d411fea4f" x="133.121189" y="476.998793" style="fill-opacity: 0.3"/>
     <use xlink:href="#m0d411fea4f" x="131.989771" y="455.790616" style="fill-opacity: 0.3"/>
     <use xlink:href="#m0d411fea4f" x="130.27392" y="460.245217" style="fill-opacity: 0.3"/>
     <use xlink:href="#m0d411fea4f" x="130.255428" y="462.695295" style="fill-opacity: 0.3"/>
     <use xlink:href="#m0d411fea4f" x="131.204092" y="433.96339" style="fill-opacity: 0.3"/>
     <use xlink:href="#m0d411fea4f" x="135.738403" y="396.127068" style="fill-opacity: 0.3"/>
     <use xlink:href="#m0d411fea4f" x="115.93117" y="340.321974" style="fill-opacity: 0.3"/>
     <use xlink:href="#m0d411fea4f" x="133.681582" y="206.901708" style="fill-opacity: 0.3"/>
     <use xlink:href="#m0d411fea4f" x="114.33309" y="419.803546" style="fill-opacity: 0.3"/>
     <use xlink:href="#m0d411fea4f" x="121.962094" y="423.047488" style="fill-opacity: 0.3"/>
     <use xlink:href="#m0d411fea4f" x="118.680481" y="365.453315" style="fill-opacity: 0.3"/>
     <use xlink:href="#m0d411fea4f" x="116.923463" y="433.184829" style="fill-opacity: 0.3"/>
     <use xlink:href="#m0d411fea4f" x="132.574168" y="390.464162" style="fill-opacity: 0.3"/>
     <use xlink:href="#m0d411fea4f" x="131.045755" y="416.301837" style="fill-opacity: 0.3"/>
     <use xlink:href="#m0d411fea4f" x="114.990633" y="439.602423" style="fill-opacity: 0.3"/>
     <use xlink:href="#m0d411fea4f" x="118.198715" y="432.419674" style="fill-opacity: 0.3"/>
     <use xlink:href="#m0d411fea4f" x="127.797234" y="425.659685" style="fill-opacity: 0.3"/>
     <use xlink:href="#m0d411fea4f" x="139.546218" y="447.611181" style="fill-opacity: 0.3"/>
     <use xlink:href="#m0d411fea4f" x="133.044504" y="384.598211" style="fill-opacity: 0.3"/>
     <use xlink:href="#m0d411fea4f" x="124.544051" y="440.491089" style="fill-opacity: 0.3"/>
     <use xlink:href="#m0d411fea4f" x="122.856555" y="308.806052" style="fill-opacity: 0.3"/>
     <use xlink:href="#m0d411fea4f" x="123.134544" y="356.822168" style="fill-opacity: 0.3"/>
     <use xlink:href="#m0d411fea4f" x="125.489598" y="305.965266" style="fill-opacity: 0.3"/>
     <use xlink:href="#m0d411fea4f" x="139.640114" y="398.940374" style="fill-opacity: 0.3"/>
     <use xlink:href="#m0d411fea4f" x="134.202152" y="416.121993" style="fill-opacity: 0.3"/>
     <use xlink:href="#m0d411fea4f" x="138.773894" y="414.285188" style="fill-opacity: 0.3"/>
     <use xlink:href="#m0d411fea4f" x="135.797507" y="444.45665" style="fill-opacity: 0.3"/>
     <use xlink:href="#m0d411fea4f" x="132.859388" y="435.035139" style="fill-opacity: 0.3"/>
     <use xlink:href="#m0d411fea4f" x="113.435105" y="374.46106" style="fill-opacity: 0.3"/>
     <use xlink:href="#m0d411fea4f" x="122.285655" y="281.4015" style="fill-opacity: 0.3"/>
     <use xlink:href="#m0d411fea4f" x="117.789544" y="369.135443" style="fill-opacity: 0.3"/>
     <use xlink:href="#m0d411fea4f" x="127.711481" y="454.137474" style="fill-opacity: 0.3"/>
     <use xlink:href="#m0d411fea4f" x="113.361518" y="441.29103" style="fill-opacity: 0.3"/>
     <use xlink:href="#m0d411fea4f" x="112.635184" y="443.597708" style="fill-opacity: 0.3"/>
     <use xlink:href="#m0d411fea4f" x="132.073282" y="443.759169" style="fill-opacity: 0.3"/>
     <use xlink:href="#m0d411fea4f" x="130.144206" y="388.461765" style="fill-opacity: 0.3"/>
     <use xlink:href="#m0d411fea4f" x="116.56455" y="389.124818" style="fill-opacity: 0.3"/>
     <use xlink:href="#m0d411fea4f" x="123.875925" y="363.640796" style="fill-opacity: 0.3"/>
     <use xlink:href="#m0d411fea4f" x="116.88481" y="330.162701" style="fill-opacity: 0.3"/>
     <use xlink:href="#m0d411fea4f" x="140.432845" y="428.973069" style="fill-opacity: 0.3"/>
     <use xlink:href="#m0d411fea4f" x="117.324543" y="390.60128" style="fill-opacity: 0.3"/>
     <use xlink:href="#m0d411fea4f" x="113.756531" y="368.646866" style="fill-opacity: 0.3"/>
     <use xlink:href="#m0d411fea4f" x="133.582342" y="427.222464" style="fill-opacity: 0.3"/>
     <use xlink:href="#m0d411fea4f" x="129.030757" y="457.028126" style="fill-opacity: 0.3"/>
     <use xlink:href="#m0d411fea4f" x="134.467458" y="415.026578" style="fill-opacity: 0.3"/>
     <use xlink:href="#m0d411fea4f" x="139.673263" y="412.055662" style="fill-opacity: 0.3"/>
     <use xlink:href="#m0d411fea4f" x="126.663551" y="385.807311" style="fill-opacity: 0.3"/>
     <use xlink:href="#m0d411fea4f" x="115.235339" y="435.533476" style="fill-opacity: 0.3"/>
     <use xlink:href="#m0d411fea4f" x="136.819952" y="442.771422" style="fill-opacity: 0.3"/>
     <use xlink:href="#m0d411fea4f" x="120.988591" y="437.287717" style="fill-opacity: 0.3"/>
     <use xlink:href="#m0d411fea4f" x="135.384174" y="436.493487" style="fill-opacity: 0.3"/>
     <use xlink:href="#m0d411fea4f" x="118.695022" y="384.992397" style="fill-opacity: 0.3"/>
     <use xlink:href="#m0d411fea4f" x="130.261012" y="434.514269" style="fill-opacity: 0.3"/>
     <use xlink:href="#m0d411fea4f" x="127.346445" y="453.31555" style="fill-opacity: 0.3"/>
     <use xlink:href="#m0d411fea4f" x="139.18192" y="427.431692" style="fill-opacity: 0.3"/>
     <use xlink:href="#m0d411fea4f" x="137.141802" y="423.493383" style="fill-opacity: 0.3"/>
     <use xlink:href="#m0d411fea4f" x="128.087615" y="461.805039" style="fill-opacity: 0.3"/>
     <use xlink:href="#m0d411fea4f" x="138.42569" y="409.313237" style="fill-opacity: 0.3"/>
     <use xlink:href="#m0d411fea4f" x="135.660002" y="401.496928" style="fill-opacity: 0.3"/>
     <use xlink:href="#m0d411fea4f" x="112.743633" y="434.391219" style="fill-opacity: 0.3"/>
     <use xlink:href="#m0d411fea4f" x="121.732304" y="406.599748" style="fill-opacity: 0.3"/>
     <use xlink:href="#m0d411fea4f" x="134.370334" y="459.066559" style="fill-opacity: 0.3"/>
     <use xlink:href="#m0d411fea4f" x="126.716838" y="445.331695" style="fill-opacity: 0.3"/>
     <use xlink:href="#m0d411fea4f" x="118.151384" y="444.364727" style="fill-opacity: 0.3"/>
     <use xlink:href="#m0d411fea4f" x="137.812423" y="419.555763" style="fill-opacity: 0.3"/>
     <use xlink:href="#m0d411fea4f" x="133.753694" y="424.896162" style="fill-opacity: 0.3"/>
     <use xlink:href="#m0d411fea4f" x="123.736733" y="391.645018" style="fill-opacity: 0.3"/>
     <use xlink:href="#m0d411fea4f" x="119.434083" y="432.603899" style="fill-opacity: 0.3"/>
     <use xlink:href="#m0d411fea4f" x="128.254399" y="416.702763" style="fill-opacity: 0.3"/>
     <use xlink:href="#m0d411fea4f" x="136.385577" y="338.857076" style="fill-opacity: 0.3"/>
     <use xlink:href="#m0d411fea4f" x="129.561511" y="436.26683" style="fill-opacity: 0.3"/>
     <use xlink:href="#m0d411fea4f" x="134.813893" y="450.486708" style="fill-opacity: 0.3"/>
     <use xlink:href="#m0d411fea4f" x="116.509551" y="404.939301" style="fill-opacity: 0.3"/>
     <use xlink:href="#m0d411fea4f" x="122.195764" y="396.141964" style="fill-opacity: 0.3"/>
     <use xlink:href="#m0d411fea4f" x="133.321042" y="341.028738" style="fill-opacity: 0.3"/>
     <use xlink:href="#m0d411fea4f" x="119.187372" y="256.596339" style="fill-opacity: 0.3"/>
     <use xlink:href="#m0d411fea4f" x="115.924371" y="230.491644" style="fill-opacity: 0.3"/>
     <use xlink:href="#m0d411fea4f" x="127.984187" y="388.357383" style="fill-opacity: 0.3"/>
     <use xlink:href="#m0d411fea4f" x="125.412661" y="436.561405" style="fill-opacity: 0.3"/>
     <use xlink:href="#m0d411fea4f" x="133.808851" y="438.645718" style="fill-opacity: 0.3"/>
     <use xlink:href="#m0d411fea4f" x="125.261711" y="441.918094" style="fill-opacity: 0.3"/>
     <use xlink:href="#m0d411fea4f" x="119.97336" y="402.124681" style="fill-opacity: 0.3"/>
     <use xlink:href="#m0d411fea4f" x="128.226821" y="371.91122" style="fill-opacity: 0.3"/>
     <use xlink:href="#m0d411fea4f" x="131.94547" y="443.500107" style="fill-opacity: 0.3"/>
     <use xlink:href="#m0d411fea4f" x="113.149329" y="433.827217" style="fill-opacity: 0.3"/>
     <use xlink:href="#m0d411fea4f" x="119.846218" y="449.791743" style="fill-opacity: 0.3"/>
     <use xlink:href="#m0d411fea4f" x="126.204135" y="383.492937" style="fill-opacity: 0.3"/>
     <use xlink:href="#m0d411fea4f" x="138.769907" y="359.880854" style="fill-opacity: 0.3"/>
    </g>
   </g>
   <g id="PathCollection_2">
    <g clip-path="url(#p548a321a2f)">
     <use xlink:href="#m0d411fea4f" x="270.513563" y="401.842606" style="fill-opacity: 0.3"/>
     <use xlink:href="#m0d411fea4f" x="265.166379" y="407.707033" style="fill-opacity: 0.3"/>
     <use xlink:href="#m0d411fea4f" x="278.471545" y="402.742229" style="fill-opacity: 0.3"/>
     <use xlink:href="#m0d411fea4f" x="277.011447" y="409.075736" style="fill-opacity: 0.3"/>
     <use xlink:href="#m0d411fea4f" x="272.693585" y="384.893769" style="fill-opacity: 0.3"/>
     <use xlink:href="#m0d411fea4f" x="264.781681" y="378.106588" style="fill-opacity: 0.3"/>
     <use xlink:href="#m0d411fea4f" x="275.302353" y="376.511552" style="fill-opacity: 0.3"/>
     <use xlink:href="#m0d411fea4f" x="273.795135" y="342.952355" style="fill-opacity: 0.3"/>
     <use xlink:href="#m0d411fea4f" x="271.78733" y="333.221115" style="fill-opacity: 0.3"/>
     <use xlink:href="#m0d411fea4f" x="258.142587" y="320.01751" style="fill-opacity: 0.3"/>
     <use xlink:href="#m0d411fea4f" x="272.987782" y="377.207921" style="fill-opacity: 0.3"/>
     <use xlink:href="#m0d411fea4f" x="279.435238" y="335.57445" style="fill-opacity: 0.3"/>
     <use xlink:href="#m0d411fea4f" x="260.521942" y="332.601426" style="fill-opacity: 0.3"/>
     <use xlink:href="#m0d411fea4f" x="257.166798" y="351.219978" style="fill-opacity: 0.3"/>
     <use xlink:href="#m0d411fea4f" x="258.10326" y="365.694811" style="fill-opacity: 0.3"/>
     <use xlink:href="#m0d411fea4f" x="266.591473" y="376.349542" style="fill-opacity: 0.3"/>
     <use xlink:href="#m0d411fea4f" x="259.620677" y="403.403436" style="fill-opacity: 0.3"/>
     <use xlink:href="#m0d411fea4f" x="266.254402" y="382.060323" style="fill-opacity: 0.3"/>
     <use xlink:href="#m0d411fea4f" x="260.00935" y="394.698736" style="fill-opacity: 0.3"/>
     <use xlink:href="#m0d411fea4f" x="276.19153" y="401.946929" style="fill-opacity: 0.3"/>
     <use xlink:href="#m0d411fea4f" x="279.251707" y="418.250604" style="fill-opacity: 0.3"/>
     <use xlink:href="#m0d411fea4f" x="273.940922" y="417.923853" style="fill-opacity: 0.3"/>
     <use xlink:href="#m0d411fea4f" x="263.995067" y="397.851681" style="fill-opacity: 0.3"/>
     <use xlink:href="#m0d411fea4f" x="278.14411" y="430.097596" style="fill-opacity: 0.3"/>
     <use xlink:href="#m0d411fea4f" x="270.727053" y="404.77008" style="fill-opacity: 0.3"/>
     <use xlink:href="#m0d411fea4f" x="254.717087" y="417.558861" style="fill-opacity: 0.3"/>
     <use xlink:href="#m0d411fea4f" x="264.897685" y="425.267221" style="fill-opacity: 0.3"/>
     <use xlink:href="#m0d411fea4f" x="265.157528" y="420.210031" style="fill-opacity: 0.3"/>
     <use xlink:href="#m0d411fea4f" x="274.193426" y="404.467334" style="fill-opacity: 0.3"/>
     <use xlink:href="#m0d411fea4f" x="261.427402" y="405.44163" style="fill-opacity: 0.3"/>
     <use xlink:href="#m0d411fea4f" x="258.365355" y="429.497878" style="fill-opacity: 0.3"/>
     <use xlink:href="#m0d411fea4f" x="265.378726" y="393.075436" style="fill-opacity: 0.3"/>
     <use xlink:href="#m0d411fea4f" x="259.285866" y="387.44299" style="fill-opacity: 0.3"/>
     <use xlink:href="#m0d411fea4f" x="274.98547" y="413.385562" style="fill-opacity: 0.3"/>
     <use xlink:href="#m0d411fea4f" x="264.247776" y="439.222712" style="fill-opacity: 0.3"/>
     <use xlink:href="#m0d411fea4f" x="270.305047" y="436.052923" style="fill-opacity: 0.3"/>
     <use xlink:href="#m0d411fea4f" x="267.238094" y="432.54602" style="fill-opacity: 0.3"/>
     <use xlink:href="#m0d411fea4f" x="258.766641" y="460.01004" style="fill-opacity: 0.3"/>
     <use xlink:href="#m0d411fea4f" x="253.550463" y="460.169435" style="fill-opacity: 0.3"/>
     <use xlink:href="#m0d411fea4f" x="254.762706" y="324.494683" style="fill-opacity: 0.3"/>
     <use xlink:href="#m0d411fea4f" x="278.642711" y="321.171411" style="fill-opacity: 0.3"/>
     <use xlink:href="#m0d411fea4f" x="263.561705" y="308.644495" style="fill-opacity: 0.3"/>
     <use xlink:href="#m0d411fea4f" x="262.900101" y="224.16343" style="fill-opacity: 0.3"/>
     <use xlink:href="#m0d411fea4f" x="265.342686" y="478.425613" style="fill-opacity: 0.3"/>
     <use xlink:href="#m0d411fea4f" x="253.104639" y="481.203234" style="fill-opacity: 0.3"/>
     <use xlink:href="#m0d411fea4f" x="266.221169" y="482.362687" style="fill-opacity: 0.3"/>
     <use xlink:href="#m0d411fea4f" x="255.61638" y="478.543312" style="fill-opacity: 0.3"/>
     <use xlink:href="#m0d411fea4f" x="275.23546" y="476.600942" style="fill-opacity: 0.3"/>
     <use xlink:href="#m0d411fea4f" x="266.063364" y="472.458114" style="fill-opacity: 0.3"/>
     <use xlink:href="#m0d411fea4f" x="279.147928" y="474.274607" style="fill-opacity: 0.3"/>
     <use xlink:href="#m0d411fea4f" x="275.277959" y="471.520287" style="fill-opacity: 0.3"/>
     <use xlink:href="#m0d411fea4f" x="274.101167" y="474.742533" style="fill-opacity: 0.3"/>
     <use xlink:href="#m0d411fea4f" x="261.601439" y="369.422021" style="fill-opacity: 0.3"/>
     <use xlink:href="#m0d411fea4f" x="272.850014" y="188.153364" style="fill-opacity: 0.3"/>
     <use xlink:href="#m0d411fea4f" x="268.147797" y="130.346864" style="fill-opacity: 0.3"/>
     <use xlink:href="#m0d411fea4f" x="277.485932" y="258.518245" style="fill-opacity: 0.3"/>
     <use xlink:href="#m0d411fea4f" x="267.405188" y="246.695262" style="fill-opacity: 0.3"/>
     <use xlink:href="#m0d411fea4f" x="277.060572" y="85.87578" style="fill-opacity: 0.3"/>
     <use xlink:href="#m0d411fea4f" x="257.596162" y="287.019844" style="fill-opacity: 0.3"/>
     <use xlink:href="#m0d411fea4f" x="269.97138" y="321.031186" style="fill-opacity: 0.3"/>
     <use xlink:href="#m0d411fea4f" x="272.586516" y="308.684125" style="fill-opacity: 0.3"/>
     <use xlink:href="#m0d411fea4f" x="256.327935" y="359.846638" style="fill-opacity: 0.3"/>
     <use xlink:href="#m0d411fea4f" x="263.600269" y="360.088101" style="fill-opacity: 0.3"/>
     <use xlink:href="#m0d411fea4f" x="275.909672" y="365.064939" style="fill-opacity: 0.3"/>
     <use xlink:href="#m0d411fea4f" x="275.678628" y="369.359076" style="fill-opacity: 0.3"/>
     <use xlink:href="#m0d411fea4f" x="262.230772" y="381.514377" style="fill-opacity: 0.3"/>
     <use xlink:href="#m0d411fea4f" x="272.79424" y="363.011646" style="fill-opacity: 0.3"/>
     <use xlink:href="#m0d411fea4f" x="267.258171" y="395.710684" style="fill-opacity: 0.3"/>
     <use xlink:href="#m0d411fea4f" x="266.043713" y="382.735114" style="fill-opacity: 0.3"/>
     <use xlink:href="#m0d411fea4f" x="255.933349" y="408.743034" style="fill-opacity: 0.3"/>
     <use xlink:href="#m0d411fea4f" x="278.327551" y="407.088736" style="fill-opacity: 0.3"/>
     <use xlink:href="#m0d411fea4f" x="259.724427" y="391.263079" style="fill-opacity: 0.3"/>
     <use xlink:href="#m0d411fea4f" x="274.680775" y="361.782002" style="fill-opacity: 0.3"/>
     <use xlink:href="#m0d411fea4f" x="274.524156" y="351.381047" style="fill-opacity: 0.3"/>
     <use xlink:href="#m0d411fea4f" x="253.279429" y="380.752639" style="fill-opacity: 0.3"/>
     <use xlink:href="#m0d411fea4f" x="256.741439" y="395.730376" style="fill-opacity: 0.3"/>
     <use xlink:href="#m0d411fea4f" x="253.65719" y="388.094611" style="fill-opacity: 0.3"/>
     <use xlink:href="#m0d411fea4f" x="270.43681" y="398.152669" style="fill-opacity: 0.3"/>
     <use xlink:href="#m0d411fea4f" x="270.132983" y="391.619012" style="fill-opacity: 0.3"/>
     <use xlink:href="#m0d411fea4f" x="261.826835" y="430.110451" style="fill-opacity: 0.3"/>
     <use xlink:href="#m0d411fea4f" x="277.272066" y="392.128238" style="fill-opacity: 0.3"/>
     <use xlink:href="#m0d411fea4f" x="278.143592" y="379.327433" style="fill-opacity: 0.3"/>
     <use xlink:href="#m0d411fea4f" x="271.433621" y="453.686225" style="fill-opacity: 0.3"/>
     <use xlink:href="#m0d411fea4f" x="258.216497" y="453.509222" style="fill-opacity: 0.3"/>
     <use xlink:href="#m0d411fea4f" x="255.437784" y="470.740629" style="fill-opacity: 0.3"/>
     <use xlink:href="#m0d411fea4f" x="279.961533" y="461.507281" style="fill-opacity: 0.3"/>
     <use xlink:href="#m0d411fea4f" x="274.051831" y="453.382981" style="fill-opacity: 0.3"/>
     <use xlink:href="#m0d411fea4f" x="255.899737" y="471.728769" style="fill-opacity: 0.3"/>
     <use xlink:href="#m0d411fea4f" x="256.56706" y="375.979286" style="fill-opacity: 0.3"/>
     <use xlink:href="#m0d411fea4f" x="276.821604" y="379.25555" style="fill-opacity: 0.3"/>
     <use xlink:href="#m0d411fea4f" x="257.050177" y="365.622567" style="fill-opacity: 0.3"/>
     <use xlink:href="#m0d411fea4f" x="274.195099" y="386.907904" style="fill-opacity: 0.3"/>
     <use xlink:href="#m0d411fea4f" x="268.510569" y="402.32088" style="fill-opacity: 0.3"/>
     <use xlink:href="#m0d411fea4f" x="276.251703" y="376.969945" style="fill-opacity: 0.3"/>
     <use xlink:href="#m0d411fea4f" x="256.295321" y="402.637806" style="fill-opacity: 0.3"/>
     <use xlink:href="#m0d411fea4f" x="260.94845" y="408.472825" style="fill-opacity: 0.3"/>
     <use xlink:href="#m0d411fea4f" x="255.687981" y="419.518459" style="fill-opacity: 0.3"/>
     <use xlink:href="#m0d411fea4f" x="257.287312" y="469.013308" style="fill-opacity: 0.3"/>
     <use xlink:href="#m0d411fea4f" x="277.567764" y="467.532634" style="fill-opacity: 0.3"/>
     <use xlink:href="#m0d411fea4f" x="269.140772" y="434.143516" style="fill-opacity: 0.3"/>
     <use xlink:href="#m0d411fea4f" x="278.186685" y="469.203501" style="fill-opacity: 0.3"/>
     <use xlink:href="#m0d411fea4f" x="273.542545" y="467.781109" style="fill-opacity: 0.3"/>
     <use xlink:href="#m0d411fea4f" x="268.699461" y="469.806761" style="fill-opacity: 0.3"/>
     <use xlink:href="#m0d411fea4f" x="261.277024" y="462.666569" style="fill-opacity: 0.3"/>
     <use xlink:href="#m0d411fea4f" x="257.500954" y="468.346028" style="fill-opacity: 0.3"/>
     <use xlink:href="#m0d411fea4f" x="271.290987" y="466.307591" style="fill-opacity: 0.3"/>
     <use xlink:href="#m0d411fea4f" x="257.38744" y="455.463824" style="fill-opacity: 0.3"/>
     <use xlink:href="#m0d411fea4f" x="269.404951" y="432.340062" style="fill-opacity: 0.3"/>
     <use xlink:href="#m0d411fea4f" x="252.854457" y="454.4193" style="fill-opacity: 0.3"/>
     <use xlink:href="#m0d411fea4f" x="279.378759" y="445.760254" style="fill-opacity: 0.3"/>
     <use xlink:href="#m0d411fea4f" x="274.282466" y="449.513214" style="fill-opacity: 0.3"/>
     <use xlink:href="#m0d411fea4f" x="263.139947" y="445.361969" style="fill-opacity: 0.3"/>
     <use xlink:href="#m0d411fea4f" x="252.372607" y="482.92422" style="fill-opacity: 0.3"/>
     <use xlink:href="#m0d411fea4f" x="260.99222" y="477.475638" style="fill-opacity: 0.3"/>
     <use xlink:href="#m0d411fea4f" x="263.88219" y="473.392615" style="fill-opacity: 0.3"/>
     <use xlink:href="#m0d411fea4f" x="276.979088" y="469.744847" style="fill-opacity: 0.3"/>
    </g>
   </g>
  </g>
 </g>
 <defs>
  <clipPath id="p548a321a2f">
   <rect x="56.805938" y="7.2" width="279" height="554.4"/>
  </clipPath>
 </defs>
</svg>
