<?xml version="1.0" encoding="utf-8" standalone="no"?>
<!DOCTYPE svg PUBLIC "-//W3C//DTD SVG 1.1//EN"
  "http://www.w3.org/Graphics/SVG/1.1/DTD/svg11.dtd">
<svg xmlns:xlink="http://www.w3.org/1999/xlink" width="436.928594pt" height="390.749687pt" viewBox="0 0 436.928594 390.749687" xmlns="http://www.w3.org/2000/svg" version="1.1">
 <metadata>
  <rdf:RDF xmlns:dc="http://purl.org/dc/elements/1.1/" xmlns:cc="http://creativecommons.org/ns#" xmlns:rdf="http://www.w3.org/1999/02/22-rdf-syntax-ns#">
   <cc:Work>
    <dc:type rdf:resource="http://purl.org/dc/dcmitype/StillImage"/>
    <dc:date>2025-11-14T13:07:57.186295</dc:date>
    <dc:format>image/svg+xml</dc:format>
    <dc:creator>
     <cc:Agent>
      <dc:title>Matplotlib v3.10.5, https://matplotlib.org/</dc:title>
     </cc:Agent>
    </dc:creator>
   </cc:Work>
  </rdf:RDF>
 </metadata>
 <defs>
  <style type="text/css">*{stroke-linejoin: round; stroke-linecap: butt}</style>
 </defs>
 <g id="figure_1">
  <g id="patch_1">
   <path d="M 0 390.749687 
L 436.928594 390.749687 
L 436.928594 0 
L 0 0 
z
" style="fill: #ffffff"/>
  </g>
  <g id="axes_1">
   <g id="patch_2">
    <path d="M 66.023594 347.79 
L 367.379165 347.79 
L 367.379165 65.586857 
L 66.023594 65.586857 
z
" style="fill: #ffffff"/>
   </g>
   <g id="matplotlib.axis_1">
    <g id="xtick_1">
     <g id="text_1">
      <!-- −1.00 -->
      <g style="fill: #262626" transform="translate(49.168672 365.648281) scale(0.11 -0.11)">
       <defs>
        <path id="DejaVuSans-2212" d="M 678 2272 
L 4684 2272 
L 4684 1741 
L 678 1741 
L 678 2272 
z
" transform="scale(0.015625)"/>
        <path id="DejaVuSans-31" d="M 794 531 
L 1825 531 
L 1825 4091 
L 703 3866 
L 703 4441 
L 1819 4666 
L 2450 4666 
L 2450 531 
L 3481 531 
L 3481 0 
L 794 0 
L 794 531 
z
" transform="scale(0.015625)"/>
        <path id="DejaVuSans-2e" d="M 684 794 
L 1344 794 
L 1344 0 
L 684 0 
L 684 794 
z
" transform="scale(0.015625)"/>
        <path id="DejaVuSans-30" d="M 2034 4250 
Q 1547 4250 1301 3770 
Q 1056 3291 1056 2328 
Q 1056 1369 1301 889 
Q 1547 409 2034 409 
Q 2525 409 2770 889 
Q 3016 1369 3016 2328 
Q 3016 3291 2770 3770 
Q 2525 4250 2034 4250 
z
M 2034 4750 
Q 2819 4750 3233 4129 
Q 3647 3509 3647 2328 
Q 3647 1150 3233 529 
Q 2819 -91 2034 -91 
Q 1250 -91 836 529 
Q 422 1150 422 2328 
Q 422 3509 836 4129 
Q 1250 4750 2034 4750 
z
" transform="scale(0.015625)"/>
       </defs>
       <use xlink:href="#DejaVuSans-2212"/>
       <use xlink:href="#DejaVuSans-31" transform="translate(83.789062 0)"/>
       <use xlink:href="#DejaVuSans-2e" transform="translate(147.412109 0)"/>
       <use xlink:href="#DejaVuSans-30" transform="translate(179.199219 0)"/>
       <use xlink:href="#DejaVuSans-30" transform="translate(242.822266 0)"/>
      </g>
     </g>
    </g>
    <g id="xtick_2">
     <g id="text_2">
      <!-- −0.75 -->
      <g style="fill: #262626" transform="translate(86.838118 365.648281) scale(0.11 -0.11)">
       <defs>
        <path id="DejaVuSans-37" d="M 525 4666 
L 3525 4666 
L 3525 4397 
L 1831 0 
L 1172 0 
L 2766 4134 
L 525 4134 
L 525 4666 
z
" transform="scale(0.015625)"/>
        <path id="DejaVuSans-35" d="M 691 4666 
L 3169 4666 
L 3169 4134 
L 1269 4134 
L 1269 2991 
Q 1406 3038 1543 3061 
Q 1681 3084 1819 3084 
Q 2600 3084 3056 2656 
Q 3513 2228 3513 1497 
Q 3513 744 3044 326 
Q 2575 -91 1722 -91 
Q 1428 -91 1123 -41 
Q 819 9 494 109 
L 494 744 
Q 775 591 1075 516 
Q 1375 441 1709 441 
Q 2250 441 2565 725 
Q 2881 1009 2881 1497 
Q 2881 1984 2565 2268 
Q 2250 2553 1709 2553 
Q 1456 2553 1204 2497 
Q 953 2441 691 2322 
L 691 4666 
z
" transform="scale(0.015625)"/>
       </defs>
       <use xlink:href="#DejaVuSans-2212"/>
       <use xlink:href="#DejaVuSans-30" transform="translate(83.789062 0)"/>
       <use xlink:href="#DejaVuSans-2e" transform="translate(147.412109 0)"/>
       <use xlink:href="#DejaVuSans-37" transform="translate(179.199219 0)"/>
       <use xlink:href="#DejaVuSans-35" transform="translate(242.822266 0)"/>
      </g>
     </g>
    </g>
    <g id="xtick_3">
     <g id="text_3">
      <!-- −0.50 -->
      <g style="fill: #262626" transform="translate(124.507565 365.648281) scale(0.11 -0.11)">
       <use xlink:href="#DejaVuSans-2212"/>
       <use xlink:href="#DejaVuSans-30" transform="translate(83.789062 0)"/>
       <use xlink:href="#DejaVuSans-2e" transform="translate(147.412109 0)"/>
       <use xlink:href="#DejaVuSans-35" transform="translate(179.199219 0)"/>
       <use xlink:href="#DejaVuSans-30" transform="translate(242.822266 0)"/>
      </g>
     </g>
    </g>
    <g id="xtick_4">
     <g id="text_4">
      <!-- −0.25 -->
      <g style="fill: #262626" transform="translate(162.177011 365.648281) scale(0.11 -0.11)">
       <defs>
        <path id="DejaVuSans-32" d="M 1228 531 
L 3431 531 
L 3431 0 
L 469 0 
L 469 531 
Q 828 903 1448 1529 
Q 2069 2156 2228 2338 
Q 2531 2678 2651 2914 
Q 2772 3150 2772 3378 
Q 2772 3750 2511 3984 
Q 2250 4219 1831 4219 
Q 1534 4219 1204 4116 
Q 875 4013 500 3803 
L 500 4441 
Q 881 4594 1212 4672 
Q 1544 4750 1819 4750 
Q 2544 4750 2975 4387 
Q 3406 4025 3406 3419 
Q 3406 3131 3298 2873 
Q 3191 2616 2906 2266 
Q 2828 2175 2409 1742 
Q 1991 1309 1228 531 
z
" transform="scale(0.015625)"/>
       </defs>
       <use xlink:href="#DejaVuSans-2212"/>
       <use xlink:href="#DejaVuSans-30" transform="translate(83.789062 0)"/>
       <use xlink:href="#DejaVuSans-2e" transform="translate(147.412109 0)"/>
       <use xlink:href="#DejaVuSans-32" transform="translate(179.199219 0)"/>
       <use xlink:href="#DejaVuSans-35" transform="translate(242.822266 0)"/>
      </g>
     </g>
    </g>
    <g id="xtick_5">
     <g id="text_5">
      <!-- 0.00 -->
      <g style="fill: #262626" transform="translate(204.455286 365.648281) scale(0.11 -0.11)">
       <use xlink:href="#DejaVuSans-30"/>
       <use xlink:href="#DejaVuSans-2e" transform="translate(63.623047 0)"/>
       <use xlink:href="#DejaVuSans-30" transform="translate(95.410156 0)"/>
       <use xlink:href="#DejaVuSans-30" transform="translate(159.033203 0)"/>
      </g>
     </g>
    </g>
    <g id="xtick_6">
     <g id="text_6">
      <!-- 0.25 -->
      <g style="fill: #262626" transform="translate(242.124732 365.648281) scale(0.11 -0.11)">
       <use xlink:href="#DejaVuSans-30"/>
       <use xlink:href="#DejaVuSans-2e" transform="translate(63.623047 0)"/>
       <use xlink:href="#DejaVuSans-32" transform="translate(95.410156 0)"/>
       <use xlink:href="#DejaVuSans-35" transform="translate(159.033203 0)"/>
      </g>
     </g>
    </g>
    <g id="xtick_7">
     <g id="text_7">
      <!-- 0.50 -->
      <g style="fill: #262626" transform="translate(279.794179 365.648281) scale(0.11 -0.11)">
       <use xlink:href="#DejaVuSans-30"/>
       <use xlink:href="#DejaVuSans-2e" transform="translate(63.623047 0)"/>
       <use xlink:href="#DejaVuSans-35" transform="translate(95.410156 0)"/>
       <use xlink:href="#DejaVuSans-30" transform="translate(159.033203 0)"/>
      </g>
     </g>
    </g>
    <g id="xtick_8">
     <g id="text_8">
      <!-- 0.75 -->
      <g style="fill: #262626" transform="translate(317.463625 365.648281) scale(0.11 -0.11)">
       <use xlink:href="#DejaVuSans-30"/>
       <use xlink:href="#DejaVuSans-2e" transform="translate(63.623047 0)"/>
       <use xlink:href="#DejaVuSans-37" transform="translate(95.410156 0)"/>
       <use xlink:href="#DejaVuSans-35" transform="translate(159.033203 0)"/>
      </g>
     </g>
    </g>
    <g id="xtick_9">
     <g id="text_9">
      <!-- 1.00 -->
      <g style="fill: #262626" transform="translate(355.133071 365.648281) scale(0.11 -0.11)">
       <use xlink:href="#DejaVuSans-31"/>
       <use xlink:href="#DejaVuSans-2e" transform="translate(63.623047 0)"/>
       <use xlink:href="#DejaVuSans-30" transform="translate(95.410156 0)"/>
       <use xlink:href="#DejaVuSans-30" transform="translate(159.033203 0)"/>
      </g>
     </g>
    </g>
    <g id="text_10">
     <!-- Specific ROI [r] -->
     <g style="fill: #262626" transform="translate(171.722942 381.054062) scale(0.12 -0.12)">
      <defs>
       <path id="DejaVuSans-53" d="M 3425 4513 
L 3425 3897 
Q 3066 4069 2747 4153 
Q 2428 4238 2131 4238 
Q 1616 4238 1336 4038 
Q 1056 3838 1056 3469 
Q 1056 3159 1242 3001 
Q 1428 2844 1947 2747 
L 2328 2669 
Q 3034 2534 3370 2195 
Q 3706 1856 3706 1288 
Q 3706 609 3251 259 
Q 2797 -91 1919 -91 
Q 1588 -91 1214 -16 
Q 841 59 441 206 
L 441 856 
Q 825 641 1194 531 
Q 1563 422 1919 422 
Q 2459 422 2753 634 
Q 3047 847 3047 1241 
Q 3047 1584 2836 1778 
Q 2625 1972 2144 2069 
L 1759 2144 
Q 1053 2284 737 2584 
Q 422 2884 422 3419 
Q 422 4038 858 4394 
Q 1294 4750 2059 4750 
Q 2388 4750 2728 4690 
Q 3069 4631 3425 4513 
z
" transform="scale(0.015625)"/>
       <path id="DejaVuSans-70" d="M 1159 525 
L 1159 -1331 
L 581 -1331 
L 581 3500 
L 1159 3500 
L 1159 2969 
Q 1341 3281 1617 3432 
Q 1894 3584 2278 3584 
Q 2916 3584 3314 3078 
Q 3713 2572 3713 1747 
Q 3713 922 3314 415 
Q 2916 -91 2278 -91 
Q 1894 -91 1617 61 
Q 1341 213 1159 525 
z
M 3116 1747 
Q 3116 2381 2855 2742 
Q 2594 3103 2138 3103 
Q 1681 3103 1420 2742 
Q 1159 2381 1159 1747 
Q 1159 1113 1420 752 
Q 1681 391 2138 391 
Q 2594 391 2855 752 
Q 3116 1113 3116 1747 
z
" transform="scale(0.015625)"/>
       <path id="DejaVuSans-65" d="M 3597 1894 
L 3597 1613 
L 953 1613 
Q 991 1019 1311 708 
Q 1631 397 2203 397 
Q 2534 397 2845 478 
Q 3156 559 3463 722 
L 3463 178 
Q 3153 47 2828 -22 
Q 2503 -91 2169 -91 
Q 1331 -91 842 396 
Q 353 884 353 1716 
Q 353 2575 817 3079 
Q 1281 3584 2069 3584 
Q 2775 3584 3186 3129 
Q 3597 2675 3597 1894 
z
M 3022 2063 
Q 3016 2534 2758 2815 
Q 2500 3097 2075 3097 
Q 1594 3097 1305 2825 
Q 1016 2553 972 2059 
L 3022 2063 
z
" transform="scale(0.015625)"/>
       <path id="DejaVuSans-63" d="M 3122 3366 
L 3122 2828 
Q 2878 2963 2633 3030 
Q 2388 3097 2138 3097 
Q 1578 3097 1268 2742 
Q 959 2388 959 1747 
Q 959 1106 1268 751 
Q 1578 397 2138 397 
Q 2388 397 2633 464 
Q 2878 531 3122 666 
L 3122 134 
Q 2881 22 2623 -34 
Q 2366 -91 2075 -91 
Q 1284 -91 818 406 
Q 353 903 353 1747 
Q 353 2603 823 3093 
Q 1294 3584 2113 3584 
Q 2378 3584 2631 3529 
Q 2884 3475 3122 3366 
z
" transform="scale(0.015625)"/>
       <path id="DejaVuSans-69" d="M 603 3500 
L 1178 3500 
L 1178 0 
L 603 0 
L 603 3500 
z
M 603 4863 
L 1178 4863 
L 1178 4134 
L 603 4134 
L 603 4863 
z
" transform="scale(0.015625)"/>
       <path id="DejaVuSans-66" d="M 2375 4863 
L 2375 4384 
L 1825 4384 
Q 1516 4384 1395 4259 
Q 1275 4134 1275 3809 
L 1275 3500 
L 2222 3500 
L 2222 3053 
L 1275 3053 
L 1275 0 
L 697 0 
L 697 3053 
L 147 3053 
L 147 3500 
L 697 3500 
L 697 3744 
Q 697 4328 969 4595 
Q 1241 4863 1831 4863 
L 2375 4863 
z
" transform="scale(0.015625)"/>
       <path id="DejaVuSans-20" transform="scale(0.015625)"/>
       <path id="DejaVuSans-52" d="M 2841 2188 
Q 3044 2119 3236 1894 
Q 3428 1669 3622 1275 
L 4263 0 
L 3584 0 
L 2988 1197 
Q 2756 1666 2539 1819 
Q 2322 1972 1947 1972 
L 1259 1972 
L 1259 0 
L 628 0 
L 628 4666 
L 2053 4666 
Q 2853 4666 3247 4331 
Q 3641 3997 3641 3322 
Q 3641 2881 3436 2590 
Q 3231 2300 2841 2188 
z
M 1259 4147 
L 1259 2491 
L 2053 2491 
Q 2509 2491 2742 2702 
Q 2975 2913 2975 3322 
Q 2975 3731 2742 3939 
Q 2509 4147 2053 4147 
L 1259 4147 
z
" transform="scale(0.015625)"/>
       <path id="DejaVuSans-4f" d="M 2522 4238 
Q 1834 4238 1429 3725 
Q 1025 3213 1025 2328 
Q 1025 1447 1429 934 
Q 1834 422 2522 422 
Q 3209 422 3611 934 
Q 4013 1447 4013 2328 
Q 4013 3213 3611 3725 
Q 3209 4238 2522 4238 
z
M 2522 4750 
Q 3503 4750 4090 4092 
Q 4678 3434 4678 2328 
Q 4678 1225 4090 567 
Q 3503 -91 2522 -91 
Q 1538 -91 948 565 
Q 359 1222 359 2328 
Q 359 3434 948 4092 
Q 1538 4750 2522 4750 
z
" transform="scale(0.015625)"/>
       <path id="DejaVuSans-49" d="M 628 4666 
L 1259 4666 
L 1259 0 
L 628 0 
L 628 4666 
z
" transform="scale(0.015625)"/>
       <path id="DejaVuSans-5b" d="M 550 4863 
L 1875 4863 
L 1875 4416 
L 1125 4416 
L 1125 -397 
L 1875 -397 
L 1875 -844 
L 550 -844 
L 550 4863 
z
" transform="scale(0.015625)"/>
       <path id="DejaVuSans-72" d="M 2631 2963 
Q 2534 3019 2420 3045 
Q 2306 3072 2169 3072 
Q 1681 3072 1420 2755 
Q 1159 2438 1159 1844 
L 1159 0 
L 581 0 
L 581 3500 
L 1159 3500 
L 1159 2956 
Q 1341 3275 1631 3429 
Q 1922 3584 2338 3584 
Q 2397 3584 2469 3576 
Q 2541 3569 2628 3553 
L 2631 2963 
z
" transform="scale(0.015625)"/>
       <path id="DejaVuSans-5d" d="M 1947 4863 
L 1947 -844 
L 622 -844 
L 622 -397 
L 1369 -397 
L 1369 4416 
L 622 4416 
L 622 4863 
L 1947 4863 
z
" transform="scale(0.015625)"/>
      </defs>
      <use xlink:href="#DejaVuSans-53"/>
      <use xlink:href="#DejaVuSans-70" transform="translate(63.476562 0)"/>
      <use xlink:href="#DejaVuSans-65" transform="translate(126.953125 0)"/>
      <use xlink:href="#DejaVuSans-63" transform="translate(188.476562 0)"/>
      <use xlink:href="#DejaVuSans-69" transform="translate(243.457031 0)"/>
      <use xlink:href="#DejaVuSans-66" transform="translate(271.240234 0)"/>
      <use xlink:href="#DejaVuSans-69" transform="translate(306.445312 0)"/>
      <use xlink:href="#DejaVuSans-63" transform="translate(334.228516 0)"/>
      <use xlink:href="#DejaVuSans-20" transform="translate(389.208984 0)"/>
      <use xlink:href="#DejaVuSans-52" transform="translate(420.996094 0)"/>
      <use xlink:href="#DejaVuSans-4f" transform="translate(490.478516 0)"/>
      <use xlink:href="#DejaVuSans-49" transform="translate(569.189453 0)"/>
      <use xlink:href="#DejaVuSans-20" transform="translate(598.681641 0)"/>
      <use xlink:href="#DejaVuSans-5b" transform="translate(630.46875 0)"/>
      <use xlink:href="#DejaVuSans-72" transform="translate(669.482422 0)"/>
      <use xlink:href="#DejaVuSans-5d" transform="translate(710.595703 0)"/>
     </g>
    </g>
   </g>
   <g id="matplotlib.axis_2">
    <g id="ytick_1">
     <g id="text_11">
      <!-- −1.00 -->
      <g style="fill: #262626" transform="translate(22.81375 351.969141) scale(0.11 -0.11)">
       <use xlink:href="#DejaVuSans-2212"/>
       <use xlink:href="#DejaVuSans-31" transform="translate(83.789062 0)"/>
       <use xlink:href="#DejaVuSans-2e" transform="translate(147.412109 0)"/>
       <use xlink:href="#DejaVuSans-30" transform="translate(179.199219 0)"/>
       <use xlink:href="#DejaVuSans-30" transform="translate(242.822266 0)"/>
      </g>
     </g>
    </g>
    <g id="ytick_2">
     <g id="text_12">
      <!-- −0.75 -->
      <g style="fill: #262626" transform="translate(22.81375 316.693748) scale(0.11 -0.11)">
       <use xlink:href="#DejaVuSans-2212"/>
       <use xlink:href="#DejaVuSans-30" transform="translate(83.789062 0)"/>
       <use xlink:href="#DejaVuSans-2e" transform="translate(147.412109 0)"/>
       <use xlink:href="#DejaVuSans-37" transform="translate(179.199219 0)"/>
       <use xlink:href="#DejaVuSans-35" transform="translate(242.822266 0)"/>
      </g>
     </g>
    </g>
    <g id="ytick_3">
     <g id="text_13">
      <!-- −0.50 -->
      <g style="fill: #262626" transform="translate(22.81375 281.418355) scale(0.11 -0.11)">
       <use xlink:href="#DejaVuSans-2212"/>
       <use xlink:href="#DejaVuSans-30" transform="translate(83.789062 0)"/>
       <use xlink:href="#DejaVuSans-2e" transform="translate(147.412109 0)"/>
       <use xlink:href="#DejaVuSans-35" transform="translate(179.199219 0)"/>
       <use xlink:href="#DejaVuSans-30" transform="translate(242.822266 0)"/>
      </g>
     </g>
    </g>
    <g id="ytick_4">
     <g id="text_14">
      <!-- −0.25 -->
      <g style="fill: #262626" transform="translate(22.81375 246.142962) scale(0.11 -0.11)">
       <use xlink:href="#DejaVuSans-2212"/>
       <use xlink:href="#DejaVuSans-30" transform="translate(83.789062 0)"/>
       <use xlink:href="#DejaVuSans-2e" transform="translate(147.412109 0)"/>
       <use xlink:href="#DejaVuSans-32" transform="translate(179.199219 0)"/>
       <use xlink:href="#DejaVuSans-35" transform="translate(242.822266 0)"/>
      </g>
     </g>
    </g>
    <g id="ytick_5">
     <g id="text_15">
      <!-- 0.00 -->
      <g style="fill: #262626" transform="translate(32.031406 210.867569) scale(0.11 -0.11)">
       <use xlink:href="#DejaVuSans-30"/>
       <use xlink:href="#DejaVuSans-2e" transform="translate(63.623047 0)"/>
       <use xlink:href="#DejaVuSans-30" transform="translate(95.410156 0)"/>
       <use xlink:href="#DejaVuSans-30" transform="translate(159.033203 0)"/>
      </g>
     </g>
    </g>
    <g id="ytick_6">
     <g id="text_16">
      <!-- 0.25 -->
      <g style="fill: #262626" transform="translate(32.031406 175.592176) scale(0.11 -0.11)">
       <use xlink:href="#DejaVuSans-30"/>
       <use xlink:href="#DejaVuSans-2e" transform="translate(63.623047 0)"/>
       <use xlink:href="#DejaVuSans-32" transform="translate(95.410156 0)"/>
       <use xlink:href="#DejaVuSans-35" transform="translate(159.033203 0)"/>
      </g>
     </g>
    </g>
    <g id="ytick_7">
     <g id="text_17">
      <!-- 0.50 -->
      <g style="fill: #262626" transform="translate(32.031406 140.316783) scale(0.11 -0.11)">
       <use xlink:href="#DejaVuSans-30"/>
       <use xlink:href="#DejaVuSans-2e" transform="translate(63.623047 0)"/>
       <use xlink:href="#DejaVuSans-35" transform="translate(95.410156 0)"/>
       <use xlink:href="#DejaVuSans-30" transform="translate(159.033203 0)"/>
      </g>
     </g>
    </g>
    <g id="ytick_8">
     <g id="text_18">
      <!-- 0.75 -->
      <g style="fill: #262626" transform="translate(32.031406 105.041391) scale(0.11 -0.11)">
       <use xlink:href="#DejaVuSans-30"/>
       <use xlink:href="#DejaVuSans-2e" transform="translate(63.623047 0)"/>
       <use xlink:href="#DejaVuSans-37" transform="translate(95.410156 0)"/>
       <use xlink:href="#DejaVuSans-35" transform="translate(159.033203 0)"/>
      </g>
     </g>
    </g>
    <g id="ytick_9">
     <g id="text_19">
      <!-- 1.00 -->
      <g style="fill: #262626" transform="translate(32.031406 69.765998) scale(0.11 -0.11)">
       <use xlink:href="#DejaVuSans-31"/>
       <use xlink:href="#DejaVuSans-2e" transform="translate(63.623047 0)"/>
       <use xlink:href="#DejaVuSans-30" transform="translate(95.410156 0)"/>
       <use xlink:href="#DejaVuSans-30" transform="translate(159.033203 0)"/>
      </g>
     </g>
    </g>
    <g id="text_20">
     <!-- Unspecific ROI [r] -->
     <g style="fill: #262626" transform="translate(16.318125 259.177179) rotate(-90) scale(0.12 -0.12)">
      <defs>
       <path id="DejaVuSans-55" d="M 556 4666 
L 1191 4666 
L 1191 1831 
Q 1191 1081 1462 751 
Q 1734 422 2344 422 
Q 2950 422 3222 751 
Q 3494 1081 3494 1831 
L 3494 4666 
L 4128 4666 
L 4128 1753 
Q 4128 841 3676 375 
Q 3225 -91 2344 -91 
Q 1459 -91 1007 375 
Q 556 841 556 1753 
L 556 4666 
z
" transform="scale(0.015625)"/>
       <path id="DejaVuSans-6e" d="M 3513 2113 
L 3513 0 
L 2938 0 
L 2938 2094 
Q 2938 2591 2744 2837 
Q 2550 3084 2163 3084 
Q 1697 3084 1428 2787 
Q 1159 2491 1159 1978 
L 1159 0 
L 581 0 
L 581 3500 
L 1159 3500 
L 1159 2956 
Q 1366 3272 1645 3428 
Q 1925 3584 2291 3584 
Q 2894 3584 3203 3211 
Q 3513 2838 3513 2113 
z
" transform="scale(0.015625)"/>
       <path id="DejaVuSans-73" d="M 2834 3397 
L 2834 2853 
Q 2591 2978 2328 3040 
Q 2066 3103 1784 3103 
Q 1356 3103 1142 2972 
Q 928 2841 928 2578 
Q 928 2378 1081 2264 
Q 1234 2150 1697 2047 
L 1894 2003 
Q 2506 1872 2764 1633 
Q 3022 1394 3022 966 
Q 3022 478 2636 193 
Q 2250 -91 1575 -91 
Q 1294 -91 989 -36 
Q 684 19 347 128 
L 347 722 
Q 666 556 975 473 
Q 1284 391 1588 391 
Q 1994 391 2212 530 
Q 2431 669 2431 922 
Q 2431 1156 2273 1281 
Q 2116 1406 1581 1522 
L 1381 1569 
Q 847 1681 609 1914 
Q 372 2147 372 2553 
Q 372 3047 722 3315 
Q 1072 3584 1716 3584 
Q 2034 3584 2315 3537 
Q 2597 3491 2834 3397 
z
" transform="scale(0.015625)"/>
      </defs>
      <use xlink:href="#DejaVuSans-55"/>
      <use xlink:href="#DejaVuSans-6e" transform="translate(73.193359 0)"/>
      <use xlink:href="#DejaVuSans-73" transform="translate(136.572266 0)"/>
      <use xlink:href="#DejaVuSans-70" transform="translate(188.671875 0)"/>
      <use xlink:href="#DejaVuSans-65" transform="translate(252.148438 0)"/>
      <use xlink:href="#DejaVuSans-63" transform="translate(313.671875 0)"/>
      <use xlink:href="#DejaVuSans-69" transform="translate(368.652344 0)"/>
      <use xlink:href="#DejaVuSans-66" transform="translate(396.435547 0)"/>
      <use xlink:href="#DejaVuSans-69" transform="translate(431.640625 0)"/>
      <use xlink:href="#DejaVuSans-63" transform="translate(459.423828 0)"/>
      <use xlink:href="#DejaVuSans-20" transform="translate(514.404297 0)"/>
      <use xlink:href="#DejaVuSans-52" transform="translate(546.191406 0)"/>
      <use xlink:href="#DejaVuSans-4f" transform="translate(615.673828 0)"/>
      <use xlink:href="#DejaVuSans-49" transform="translate(694.384766 0)"/>
      <use xlink:href="#DejaVuSans-20" transform="translate(723.876953 0)"/>
      <use xlink:href="#DejaVuSans-5b" transform="translate(755.664062 0)"/>
      <use xlink:href="#DejaVuSans-72" transform="translate(794.677734 0)"/>
      <use xlink:href="#DejaVuSans-5d" transform="translate(835.791016 0)"/>
     </g>
    </g>
   </g>
   <g id="QuadContourSet_1">
    <path d="M 224.608813 323.83651 
L 226.359012 324.42165 
L 228.109212 324.808424 
L 229.859412 324.965573 
L 231.609611 324.881402 
L 233.359811 324.555844 
L 235.11001 323.990044 
L 235.536101 323.796594 
L 236.86021 322.830568 
L 237.553211 322.157907 
L 238.157567 320.519219 
L 237.845417 318.880532 
L 236.889449 317.241845 
L 236.86021 317.208893 
L 235.338837 315.603158 
L 235.11001 315.404925 
L 233.359811 314.04983 
L 233.225603 313.96447 
L 231.609611 313.069945 
L 229.859412 312.335288 
L 229.820045 312.325783 
L 228.109212 311.940269 
L 226.359012 311.801911 
L 224.608813 311.92797 
L 222.933518 312.325783 
L 222.858613 312.349461 
L 221.108413 313.215051 
L 220.101249 313.96447 
L 219.358214 314.847236 
L 218.849401 315.603158 
L 218.429051 317.241845 
L 218.747918 318.880532 
L 219.358214 319.800257 
L 219.820059 320.519219 
L 221.108413 321.661774 
L 221.669858 322.157907 
L 222.858613 322.87797 
L 224.513863 323.796594 
L 224.608813 323.83651 
z
M 114.346237 307.482101 
L 116.096436 308.003975 
L 117.846636 308.453704 
L 119.596836 308.770784 
L 121.347035 308.862552 
L 123.097235 308.614219 
L 124.847435 307.917201 
L 125.611651 307.409721 
L 126.597634 306.840831 
L 127.96387 305.771034 
L 128.347834 305.497879 
L 129.943753 304.132347 
L 130.098033 304.005289 
L 131.730388 302.493659 
L 131.848233 302.380746 
L 133.323637 300.854972 
L 133.598433 300.532892 
L 134.670457 299.216285 
L 135.348632 298.14883 
L 135.705044 297.577598 
L 136.410159 295.93891 
L 136.787363 294.300223 
L 136.875988 292.661536 
L 136.697604 291.022848 
L 136.254028 289.384161 
L 135.527111 287.745474 
L 135.348632 287.452236 
L 134.449761 286.106787 
L 133.598433 285.120795 
L 132.944708 284.468099 
L 131.848233 283.53416 
L 130.859286 282.829412 
L 130.098033 282.327923 
L 128.347834 281.369671 
L 127.939008 281.190725 
L 126.597634 280.60392 
L 124.847435 280.024656 
L 123.097235 279.656338 
L 121.46182 279.552037 
L 121.347035 279.544467 
L 121.277288 279.552037 
L 119.596836 279.741586 
L 117.846636 280.292059 
L 116.14973 281.190725 
L 116.096436 281.218849 
L 114.346237 282.45619 
L 113.913643 282.829412 
L 112.596037 283.893359 
L 111.964234 284.468099 
L 110.845838 285.403819 
L 110.063081 286.106787 
L 109.095638 286.920815 
L 108.156872 287.745474 
L 107.345438 288.445881 
L 106.287427 289.384161 
L 105.595239 290.030598 
L 104.548805 291.022848 
L 103.845039 291.792091 
L 103.051283 292.661536 
L 102.09484 294.028432 
L 101.901725 294.300223 
L 101.148794 295.93891 
L 100.848937 297.577598 
L 101.018995 299.216285 
L 101.715287 300.854972 
L 102.09484 301.355408 
L 103.073487 302.493659 
L 103.845039 303.117699 
L 105.351711 304.132347 
L 105.595239 304.267526 
L 107.345438 305.104897 
L 109.01335 305.771034 
L 109.095638 305.802956 
L 110.845838 306.413358 
L 112.596037 306.966847 
L 114.131407 307.409721 
L 114.346237 307.482101 
z
M 212.357415 303.304918 
L 214.107615 303.603372 
L 215.857815 303.160159 
L 216.714167 302.493659 
L 217.608014 301.760329 
L 218.2449 300.854972 
L 219.270023 299.216285 
L 219.358214 299.066924 
L 220.014474 297.577598 
L 220.656308 295.93891 
L 221.108413 294.686443 
L 221.227624 294.300223 
L 221.728513 292.661536 
L 222.24148 291.022848 
L 222.822662 289.384161 
L 222.858613 289.300876 
L 223.529598 287.745474 
L 224.506299 286.106787 
L 224.608813 285.979694 
L 225.975659 284.468099 
L 226.359012 284.162966 
L 228.109212 282.97698 
L 228.362863 282.829412 
L 229.859412 282.143947 
L 231.609611 281.44066 
L 232.27798 281.190725 
L 233.359811 280.839449 
L 235.11001 280.282648 
L 236.86021 279.713177 
L 237.371085 279.552037 
L 238.61041 279.175307 
L 240.360609 278.650238 
L 242.110809 278.13418 
L 243.031757 277.91335 
L 243.861008 277.714213 
L 245.611208 277.477645 
L 247.361408 277.542219 
L 248.425903 277.91335 
L 249.111607 278.485567 
L 249.703905 279.552037 
L 249.999141 281.190725 
L 250.13092 282.829412 
L 250.339619 284.468099 
L 250.788264 286.106787 
L 250.861807 286.254653 
L 251.793564 287.745474 
L 252.612007 288.508264 
L 254.208705 289.384161 
L 254.362206 289.443108 
L 256.112406 289.739039 
L 257.862605 289.715312 
L 259.612805 289.482117 
L 260.080179 289.384161 
L 261.363005 289.116369 
L 263.113204 288.72494 
L 264.863404 288.375982 
L 266.613604 288.100694 
L 268.363803 287.906462 
L 270.114003 287.781444 
L 270.872519 287.745474 
L 271.864202 287.70254 
L 273.614402 287.637044 
L 275.364602 287.549374 
L 277.114801 287.406107 
L 278.865001 287.174902 
L 280.6152 286.823883 
L 282.3654 286.320929 
L 282.937701 286.106787 
L 284.1156 285.650707 
L 285.865799 284.78904 
L 286.423856 284.468099 
L 287.615999 283.718805 
L 288.896448 282.829412 
L 289.366199 282.461942 
L 290.996924 281.190725 
L 291.116398 281.084374 
L 292.866598 279.700572 
L 293.098936 279.552037 
L 294.616797 278.471354 
L 295.767563 277.91335 
L 296.366997 277.582124 
L 298.117197 277.083926 
L 299.867396 276.980987 
L 301.617596 277.139762 
L 303.367795 277.405297 
L 305.117995 277.636596 
L 306.868195 277.728892 
L 308.618394 277.61822 
L 310.368594 277.274499 
L 312.118794 276.691793 
L 313.02697 276.274663 
L 313.868993 275.80054 
L 315.590149 274.635976 
L 315.619193 274.609172 
L 317.259836 272.997288 
L 317.369392 272.824566 
L 318.343996 271.358601 
L 318.780224 269.719914 
L 318.418037 268.081227 
L 317.369392 266.777447 
L 317.066852 266.442539 
L 315.619193 265.392576 
L 314.672777 264.803852 
L 313.868993 264.344229 
L 312.118794 263.469333 
L 311.381799 263.165165 
L 310.368594 262.5828 
L 308.618394 261.636217 
L 308.391383 261.526477 
L 307.753588 259.88779 
L 308.618394 258.965432 
L 309.036316 258.249103 
L 310.368594 257.206578 
L 310.898162 256.610416 
L 312.118794 255.682761 
L 312.829487 254.971728 
L 313.868993 254.134811 
L 314.684947 253.333041 
L 315.619193 252.51059 
L 316.4316 251.694354 
L 317.369392 250.785285 
L 318.069846 250.055667 
L 319.119592 248.940149 
L 319.603026 248.416979 
L 320.869792 246.949297 
L 321.021636 246.778292 
L 322.341439 245.139605 
L 322.619991 244.733001 
L 323.522346 243.500917 
L 324.370191 242.006551 
L 324.459827 241.86223 
L 325.229535 240.223543 
L 325.721887 238.584856 
L 326.00371 236.946168 
L 326.12039 235.517994 
L 326.139018 235.307481 
L 326.185483 233.668794 
L 326.181719 232.030106 
L 326.168379 230.391419 
L 326.16613 228.752732 
L 326.176809 227.114045 
L 326.188061 225.475357 
L 326.179582 223.83667 
L 326.128658 222.197983 
L 326.12039 222.080816 
L 326.031083 220.559296 
L 325.867407 218.920608 
L 325.625665 217.281921 
L 325.299317 215.643234 
L 324.886336 214.004546 
L 324.389345 212.365859 
L 324.370191 212.306866 
L 323.911542 210.727172 
L 323.389558 209.088485 
L 322.826444 207.449797 
L 322.619991 206.858272 
L 322.284838 205.81111 
L 321.734309 204.172423 
L 321.120227 202.533736 
L 320.869792 201.918591 
L 320.469815 200.895048 
L 319.737286 199.256361 
L 319.119592 198.065112 
L 318.88427 197.617674 
L 317.941113 195.978986 
L 317.369392 195.066395 
L 316.885562 194.340299 
L 315.763977 192.701612 
L 315.619193 192.471425 
L 314.646608 191.062925 
L 313.868993 189.812635 
L 313.599317 189.424237 
L 312.739111 187.78555 
L 312.145335 186.146863 
L 312.118794 185.844677 
L 311.980312 184.508175 
L 312.118794 183.942487 
L 312.539073 182.869488 
L 313.868993 181.803768 
L 315.535525 181.230801 
L 315.619193 181.21102 
L 317.369392 180.936921 
L 319.119592 180.749863 
L 320.869792 180.561136 
L 322.619991 180.311921 
L 324.370191 179.953159 
L 325.587697 179.592114 
L 326.12039 179.418947 
L 327.87059 178.611667 
L 328.918172 177.953426 
L 329.62079 177.379936 
L 330.636966 176.314739 
L 331.370989 175.085472 
L 331.577607 174.676052 
L 331.911872 173.037365 
L 331.73639 171.398677 
L 331.370989 170.540443 
L 330.958475 169.75999 
L 329.62079 168.333825 
L 329.339771 168.121303 
L 327.87059 167.281167 
L 326.12039 166.666333 
L 325.024788 166.482615 
L 324.370191 166.379734 
L 322.619991 166.360375 
L 321.586836 166.482615 
L 320.869792 166.571527 
L 319.119592 166.988144 
L 317.369392 167.572436 
L 316.018415 168.121303 
L 315.619193 168.307989 
L 313.868993 169.195393 
L 312.783587 169.75999 
L 312.118794 170.188172 
L 310.368594 171.224454 
L 310.022201 171.398677 
L 308.618394 172.268967 
L 306.868195 172.960833 
L 306.378888 173.037365 
L 305.117995 173.251339 
L 303.578966 173.037365 
L 303.367795 173.013055 
L 301.617596 172.253357 
L 300.581255 171.398677 
L 299.867396 170.7523 
L 299.212435 169.75999 
L 298.412313 168.121303 
L 298.117197 167.160929 
L 297.976563 166.482615 
L 297.794088 164.843928 
L 297.730084 163.205241 
L 297.736094 161.566554 
L 297.775928 159.927866 
L 297.825523 158.289179 
L 297.870207 156.650492 
L 297.901466 155.011805 
L 297.913743 153.373117 
L 297.900919 151.73443 
L 297.851529 150.095743 
L 297.740711 148.457055 
L 297.513852 146.818368 
L 297.046056 145.179681 
L 296.366997 143.953525 
L 295.951297 143.540994 
L 294.616797 142.709879 
L 292.866598 142.227397 
L 291.162513 141.902306 
L 291.116398 141.894097 
L 289.366199 141.449843 
L 287.615999 140.892057 
L 286.012627 140.263619 
L 285.865799 140.197193 
L 284.1156 139.190055 
L 283.217884 138.624932 
L 282.3654 137.974496 
L 281.078561 136.986244 
L 280.6152 136.556642 
L 279.154514 135.347557 
L 278.865001 135.058351 
L 277.114801 133.722639 
L 277.084513 133.70887 
L 275.364602 132.664074 
L 273.614402 132.394937 
L 271.864202 132.852966 
L 270.419748 133.70887 
L 270.114003 133.818443 
L 268.363803 134.728067 
L 267.367261 135.347557 
L 266.613604 135.68214 
L 264.863404 136.569428 
L 264.111111 136.986244 
L 263.113204 137.434975 
L 261.363005 138.288958 
L 260.719651 138.624932 
L 259.612805 139.128722 
L 257.862605 139.969449 
L 257.272544 140.263619 
L 256.112406 140.770847 
L 254.362206 141.534624 
L 253.498505 141.902306 
L 252.612007 142.220263 
L 250.861807 142.799058 
L 249.111607 143.309369 
L 248.149287 143.540994 
L 247.361408 143.693061 
L 245.611208 143.931318 
L 243.861008 144.044532 
L 242.110809 144.004391 
L 240.360609 143.784308 
L 239.329783 143.540994 
L 238.61041 143.315881 
L 236.86021 142.528532 
L 235.733368 141.902306 
L 235.11001 141.449678 
L 233.605343 140.263619 
L 233.359811 140.01541 
L 231.952983 138.624932 
L 231.609611 138.195002 
L 230.523876 136.986244 
L 229.859412 136.018403 
L 229.290396 135.347557 
L 228.383338 133.70887 
L 228.109212 132.435059 
L 228.005757 132.070183 
L 228.109212 131.544201 
L 228.270069 130.431495 
L 229.032797 128.792808 
L 229.859412 127.636791 
L 230.136108 127.154121 
L 231.323046 125.515434 
L 231.609611 125.165253 
L 232.511227 123.876746 
L 233.359811 122.682767 
L 233.645476 122.238059 
L 234.662833 120.599372 
L 235.11001 119.799047 
L 235.556963 118.960684 
L 236.304156 117.321997 
L 236.86021 115.805769 
L 236.905596 115.68331 
L 237.379633 114.044623 
L 237.716384 112.405935 
L 237.93138 110.767248 
L 238.036948 109.128561 
L 238.041454 107.489874 
L 237.948964 105.851186 
L 237.759371 104.212499 
L 237.469133 102.573812 
L 237.07251 100.935124 
L 236.86021 100.23528 
L 236.546552 99.296437 
L 235.887318 97.65775 
L 235.11001 96.033279 
L 235.102297 96.019063 
L 234.102311 94.380375 
L 233.359811 93.316119 
L 232.885419 92.741688 
L 231.609611 91.383275 
L 231.269484 91.103001 
L 229.859412 90.084687 
L 228.548877 89.464313 
L 228.109212 89.280312 
L 226.359012 88.931753 
L 224.608813 88.964281 
L 222.858613 89.355663 
L 222.596023 89.464313 
L 221.108413 90.151997 
L 219.667702 91.103001 
L 219.358214 91.343217 
L 217.918228 92.741688 
L 217.608014 93.117651 
L 216.698828 94.380375 
L 215.857815 95.950651 
L 215.823555 96.019063 
L 215.241677 97.65775 
L 214.857437 99.296437 
L 214.592243 100.935124 
L 214.358492 102.573812 
L 214.107615 104.015148 
L 214.073292 104.212499 
L 213.662211 105.851186 
L 213.10025 107.489874 
L 212.386707 109.128561 
L 212.357415 109.184896 
L 211.480834 110.767248 
L 210.607216 112.202014 
L 210.471595 112.405935 
L 209.348468 114.044623 
L 208.857016 114.789422 
L 208.205789 115.68331 
L 207.114406 117.321997 
L 207.106817 117.335578 
L 206.094049 118.960684 
L 205.356617 120.323603 
L 205.190793 120.599372 
L 204.371322 122.238059 
L 203.606417 123.75572 
L 203.534788 123.876746 
L 202.53183 125.515434 
L 201.856218 126.277494 
L 200.818881 127.154121 
L 200.106018 127.5789 
L 198.355818 128.451313 
L 197.600914 128.792808 
L 196.605619 129.166861 
L 194.855419 129.79848 
L 193.10522 130.359882 
L 192.867163 130.431495 
L 191.35502 130.859027 
L 189.60482 131.260074 
L 187.854621 131.544344 
L 186.104421 131.698831 
L 184.354222 131.720275 
L 182.604022 131.620189 
L 180.853822 131.426487 
L 179.103623 131.181234 
L 177.353423 130.936006 
L 175.603223 130.747664 
L 173.853024 130.677021 
L 172.102824 130.791499 
L 170.352625 131.171483 
L 168.602425 131.918826 
L 168.364455 132.070183 
L 166.852225 133.027334 
L 166.027117 133.70887 
L 165.102026 134.500594 
L 164.218691 135.347557 
L 163.351826 136.217899 
L 162.584056 136.986244 
L 161.601626 137.995795 
L 160.922628 138.624932 
L 159.851427 139.606374 
L 158.982041 140.263619 
L 158.101227 140.899866 
L 156.351028 141.874788 
L 156.293389 141.902306 
L 154.600828 142.671648 
L 152.850628 143.32842 
L 152.243059 143.540994 
L 151.100429 143.94261 
L 149.350229 144.542916 
L 147.60003 145.155328 
L 147.533096 145.179681 
L 145.84983 145.879117 
L 144.09963 146.720971 
L 143.920801 146.818368 
L 142.349431 147.978496 
L 141.822327 148.457055 
L 140.756804 150.095743 
L 140.599231 150.676036 
L 140.352019 151.73443 
L 140.366463 153.373117 
L 140.599231 154.670072 
L 140.65671 155.011805 
L 141.132539 156.650492 
L 141.748611 158.289179 
L 142.349431 159.59398 
L 142.510128 159.927866 
L 143.479049 161.566554 
L 144.09963 162.405553 
L 144.826519 163.205241 
L 145.84983 164.093779 
L 147.118859 164.843928 
L 147.60003 165.07886 
L 149.350229 165.5914 
L 151.100429 165.772217 
L 152.850628 165.6658 
L 154.600828 165.275037 
L 155.690588 164.843928 
L 156.351028 164.547606 
L 158.101227 163.37996 
L 158.303244 163.205241 
L 159.806557 161.566554 
L 159.851427 161.503774 
L 160.839656 159.927866 
L 161.601626 158.354527 
L 161.632642 158.289179 
L 162.309642 156.650492 
L 162.959324 155.011805 
L 163.351826 154.097735 
L 163.716109 153.373117 
L 164.741416 151.73443 
L 165.102026 151.288435 
L 166.485052 150.095743 
L 166.852225 149.850472 
L 168.602425 149.093122 
L 170.352625 148.69032 
L 172.102824 148.523886 
L 173.853024 148.568347 
L 175.603223 148.877371 
L 177.353423 149.640273 
L 177.900665 150.095743 
L 178.883671 151.73443 
L 179.103623 153.33995 
L 179.106518 153.373117 
L 179.103623 153.403589 
L 178.942193 155.011805 
L 178.571376 156.650492 
L 178.08237 158.289179 
L 177.508808 159.927866 
L 177.353423 160.292565 
L 176.741222 161.566554 
L 175.858135 163.205241 
L 175.603223 163.607863 
L 174.734958 164.843928 
L 173.853024 166.007619 
L 173.461932 166.482615 
L 172.102824 168.088645 
L 172.073842 168.121303 
L 170.605356 169.75999 
L 170.352625 170.054756 
L 169.214217 171.398677 
L 168.602425 172.201083 
L 167.973455 173.037365 
L 166.903924 174.676052 
L 166.852225 174.758298 
L 165.863151 176.314739 
L 165.102026 177.728127 
L 164.975878 177.953426 
L 164.069264 179.592114 
L 163.351826 181.063035 
L 163.263514 181.230801 
L 162.392261 182.869488 
L 161.614823 184.508175 
L 161.601626 184.535503 
L 160.740071 186.146863 
L 159.955039 187.78555 
L 159.851427 188.002783 
L 159.089008 189.424237 
L 158.287442 191.062925 
L 158.101227 191.447491 
L 157.408696 192.701612 
L 156.555741 194.340299 
L 156.351028 194.728011 
L 155.590912 195.978986 
L 154.625082 197.617674 
L 154.600828 197.656617 
L 153.457235 199.256361 
L 152.850628 200.104062 
L 152.204728 200.895048 
L 151.100429 202.236647 
L 150.824414 202.533736 
L 149.350229 204.108615 
L 149.28357 204.172423 
L 147.60003 205.776835 
L 147.560159 205.81111 
L 145.84983 207.278057 
L 145.627809 207.449797 
L 144.09963 208.630292 
L 143.438488 209.088485 
L 142.349431 209.84429 
L 140.924419 210.727172 
L 140.599231 210.930849 
L 138.849031 211.883345 
L 137.864218 212.365859 
L 137.098832 212.749898 
L 135.348632 213.54108 
L 134.24772 214.004546 
L 133.598433 214.294724 
L 131.848233 215.024575 
L 130.33518 215.643234 
L 130.098033 215.752067 
L 128.347834 216.52204 
L 126.686477 217.281921 
L 126.597634 217.331401 
L 124.847435 218.331609 
L 123.92225 218.920608 
L 123.097235 219.655201 
L 122.205688 220.559296 
L 121.347035 222.087552 
L 121.292526 222.197983 
L 120.962443 223.83667 
L 121.027615 225.475357 
L 121.347035 227.033959 
L 121.362982 227.114045 
L 121.87976 228.752732 
L 122.496237 230.391419 
L 123.097235 231.870567 
L 123.163667 232.030106 
L 123.876017 233.668794 
L 124.591893 235.307481 
L 124.847435 235.906783 
L 125.34264 236.946168 
L 126.128124 238.584856 
L 126.597634 239.545578 
L 127.003836 240.223543 
L 128.098396 241.86223 
L 128.347834 242.185784 
L 129.829265 243.500917 
L 130.098033 243.688625 
L 131.848233 244.476574 
L 133.598433 244.941596 
L 134.528074 245.139605 
L 135.348632 245.28221 
L 137.098832 245.610258 
L 138.849031 245.967533 
L 140.599231 246.350184 
L 142.349431 246.738763 
L 142.517291 246.778292 
L 144.09963 247.139556 
L 145.84983 247.52185 
L 147.60003 247.876449 
L 149.350229 248.207948 
L 150.483328 248.416979 
L 151.100429 248.55221 
L 152.850628 248.964634 
L 154.600828 249.475107 
L 156.046154 250.055667 
L 156.351028 250.229983 
L 158.101227 251.632582 
L 158.158763 251.694354 
L 159.308494 253.333041 
L 159.851427 254.277624 
L 160.226154 254.971728 
L 161.157758 256.610416 
L 161.601626 257.305042 
L 162.294727 258.249103 
L 163.351826 259.446125 
L 163.867385 259.88779 
L 165.102026 260.803621 
L 166.627194 261.526477 
L 166.852225 261.625999 
L 168.602425 262.148969 
L 170.352625 262.487909 
L 172.102824 262.760141 
L 173.853024 263.044541 
L 174.445878 263.165165 
L 175.603223 263.415437 
L 177.353423 263.890985 
L 179.103623 264.450553 
L 180.104746 264.803852 
L 180.853822 265.085408 
L 182.604022 265.744237 
L 184.354222 266.326961 
L 184.772128 266.442539 
L 186.104421 266.825105 
L 187.854621 267.185928 
L 189.60482 267.405335 
L 191.35502 267.505348 
L 193.10522 267.516204 
L 194.855419 267.471587 
L 196.605619 267.406211 
L 198.355818 267.355959 
L 200.106018 267.360578 
L 201.856218 267.468735 
L 203.606417 267.744336 
L 204.764185 268.081227 
L 205.356617 268.414985 
L 206.737504 269.719914 
L 207.094472 271.358601 
L 206.764794 272.997288 
L 206.137814 274.635976 
L 205.416401 276.274663 
L 205.356617 276.409722 
L 204.737936 277.91335 
L 204.18436 279.552037 
L 203.785462 281.190725 
L 203.606417 282.484853 
L 203.560514 282.829412 
L 203.515124 284.468099 
L 203.606417 285.710299 
L 203.636903 286.106787 
L 203.912259 287.745474 
L 204.303928 289.384161 
L 204.773242 291.022848 
L 205.287153 292.661536 
L 205.356617 292.875902 
L 205.869937 294.300223 
L 206.487305 295.93891 
L 207.106817 297.464953 
L 207.163679 297.577598 
L 208.066103 299.216285 
L 208.857016 300.48466 
L 209.19579 300.854972 
L 210.607216 302.298071 
L 210.962535 302.493659 
L 212.357415 303.304918 
z
M 165.102026 301.012584 
L 166.852225 301.086163 
L 168.602425 300.983324 
L 169.407205 300.854972 
L 170.352625 300.668291 
L 172.102824 300.110465 
L 173.853024 299.346648 
L 174.077942 299.216285 
L 175.603223 297.996862 
L 176.030308 297.577598 
L 176.962296 295.93891 
L 177.057135 294.300223 
L 176.037138 292.661536 
L 175.603223 292.345063 
L 173.853024 291.65068 
L 172.102824 291.455229 
L 170.352625 291.624355 
L 168.602425 292.072969 
L 167.074428 292.661536 
L 166.852225 292.770133 
L 165.102026 293.805842 
L 164.343501 294.300223 
L 163.351826 295.17659 
L 162.489306 295.93891 
L 161.601626 297.251678 
L 161.36876 297.577598 
L 161.321479 299.216285 
L 161.601626 299.515191 
L 163.351826 300.639527 
L 164.073456 300.854972 
L 165.102026 301.012584 
z
M 75.841845 293.093263 
L 77.592045 293.238667 
L 79.342244 292.800907 
L 79.598696 292.661536 
L 81.092444 291.406857 
L 81.400863 291.022848 
L 81.942561 289.384161 
L 81.697885 287.745474 
L 81.092444 286.828668 
L 80.243185 286.106787 
L 79.342244 285.683085 
L 77.592045 285.53897 
L 75.841845 286.020305 
L 75.699705 286.106787 
L 74.091646 287.546773 
L 73.942249 287.745474 
L 73.373462 289.384161 
L 73.532364 291.022848 
L 74.091646 291.944631 
L 74.91962 292.661536 
L 75.841845 293.093263 
z
M 208.857016 134.416632 
L 208.075581 133.70887 
L 208.113202 132.070183 
L 208.857016 131.412439 
L 210.607216 131.02326 
L 212.357415 131.400032 
L 213.552926 132.070183 
L 213.649397 133.70887 
L 212.357415 134.475538 
L 210.607216 134.928575 
L 208.857016 134.416632 
z
M 270.114003 125.847891 
L 271.864202 126.660687 
L 273.614402 126.72796 
L 275.364602 125.602666 
L 275.423731 125.515434 
L 276.792897 123.876746 
L 277.114801 123.51079 
L 277.89206 122.238059 
L 278.865001 120.63895 
L 278.884965 120.599372 
L 279.743609 118.960684 
L 280.548842 117.321997 
L 280.6152 117.1696 
L 281.246925 115.68331 
L 281.820464 114.044623 
L 282.205392 112.405935 
L 282.257657 110.767248 
L 281.648162 109.128561 
L 280.6152 108.188052 
L 278.939306 107.489874 
L 278.865001 107.470876 
L 277.114801 107.317967 
L 275.364602 107.416782 
L 274.952842 107.489874 
L 273.614402 107.733857 
L 271.864202 108.238264 
L 270.114003 108.928086 
L 269.727276 109.128561 
L 268.363803 109.923157 
L 267.218354 110.767248 
L 266.613604 111.31949 
L 265.635751 112.405935 
L 264.863404 113.626002 
L 264.63259 114.044623 
L 264.122593 115.68331 
L 264.004236 117.321997 
L 264.265819 118.960684 
L 264.863404 120.534888 
L 264.894025 120.599372 
L 266.003096 122.238059 
L 266.613604 123.004863 
L 267.568322 123.876746 
L 268.363803 124.644724 
L 269.725871 125.515434 
L 270.114003 125.847891 
z
M 163.351826 119.406762 
L 165.102026 119.657059 
L 166.852225 119.457087 
L 168.124689 118.960684 
L 168.602425 118.748446 
L 170.352625 117.498981 
L 170.543443 117.321997 
L 172.102824 115.68331 
L 172.102824 115.68331 
L 173.352892 114.044623 
L 173.853024 113.281603 
L 174.523878 112.405935 
L 175.603223 110.972701 
L 175.813228 110.767248 
L 177.353423 109.400603 
L 177.829724 109.128561 
L 179.103623 108.490154 
L 180.853822 107.836319 
L 181.747588 107.489874 
L 182.604022 107.170024 
L 184.354222 106.379299 
L 185.303667 105.851186 
L 186.104421 105.378169 
L 187.677024 104.212499 
L 187.854621 104.062137 
L 189.27523 102.573812 
L 189.60482 102.137302 
L 190.375835 100.935124 
L 191.071137 99.296437 
L 191.347395 97.65775 
L 191.120328 96.019063 
L 190.301257 94.380375 
L 189.60482 93.59508 
L 188.594729 92.741688 
L 187.854621 92.291578 
L 186.104421 91.574553 
L 184.354222 91.201508 
L 182.604022 91.183329 
L 180.853822 91.568675 
L 179.103623 92.441824 
L 178.722156 92.741688 
L 177.353423 94.284053 
L 177.288881 94.380375 
L 176.526114 96.019063 
L 175.99769 97.65775 
L 175.603223 99.209143 
L 175.581876 99.296437 
L 175.205873 100.935124 
L 174.715324 102.573812 
L 173.89169 104.212499 
L 173.853024 104.270255 
L 172.102824 105.820547 
L 172.045821 105.851186 
L 170.352625 106.534627 
L 168.602425 106.985202 
L 166.852225 107.395656 
L 166.531723 107.489874 
L 165.102026 107.912873 
L 163.351826 108.57806 
L 162.262189 109.128561 
L 161.601626 109.538353 
L 160.128653 110.767248 
L 159.851427 111.125233 
L 159.078112 112.405935 
L 158.713001 114.044623 
L 158.983366 115.68331 
L 159.851427 117.237833 
L 159.917143 117.321997 
L 161.601626 118.671726 
L 162.217754 118.960684 
L 163.351826 119.406762 
z
M 117.846636 114.078961 
L 119.596836 114.338064 
L 121.347035 114.314628 
L 122.986671 114.044623 
L 123.097235 114.026247 
L 124.847435 113.465299 
L 126.597634 112.603399 
L 126.903442 112.405935 
L 128.347834 111.325259 
L 128.951908 110.767248 
L 130.098033 109.408669 
L 130.307624 109.128561 
L 131.186238 107.489874 
L 131.688897 105.851186 
L 131.844669 104.212499 
L 131.643683 102.573812 
L 131.035428 100.935124 
L 130.098033 99.534604 
L 129.900836 99.296437 
L 128.347834 97.984215 
L 127.785308 97.65775 
L 126.597634 97.090709 
L 124.847435 96.604699 
L 123.097235 96.429152 
L 121.347035 96.528493 
L 119.596836 96.894359 
L 117.846636 97.544406 
L 117.629514 97.65775 
L 116.096436 98.551563 
L 115.132681 99.296437 
L 114.346237 100.044091 
L 113.563153 100.935124 
L 112.596037 102.457978 
L 112.528886 102.573812 
L 111.901094 104.212499 
L 111.613983 105.851186 
L 111.654509 107.489874 
L 112.04637 109.128561 
L 112.596037 110.274089 
L 112.877164 110.767248 
L 114.346237 112.391364 
L 114.364472 112.405935 
L 116.096436 113.469086 
L 117.73586 114.044623 
L 117.846636 114.078961 
z
M 355.873784 103.258281 
L 357.623984 103.848356 
L 359.374183 103.944243 
L 361.124383 103.673734 
L 362.874582 103.094692 
L 363.916686 102.573812 
L 364.624782 102.209363 
L 366.374982 100.994791 
L 366.444995 100.935124 
L 368.125181 99.321571 
L 368.14757 99.296437 
L 369.376691 97.65775 
L 369.875381 96.793023 
L 370.282733 96.019063 
L 370.884802 94.380375 
L 371.220373 92.741688 
L 371.287243 91.103001 
L 371.069901 89.464313 
L 370.541314 87.825626 
L 369.875381 86.56142 
L 369.643334 86.186939 
L 368.258846 84.548252 
L 368.125181 84.419349 
L 366.374982 83.061843 
L 366.114093 82.909564 
L 364.624782 82.107743 
L 362.874582 81.431783 
L 362.208031 81.270877 
L 361.124383 81.007707 
L 359.374183 80.84075 
L 357.623984 80.971978 
L 356.571446 81.270877 
L 355.873784 81.517071 
L 354.123584 82.746753 
L 353.971837 82.909564 
L 352.889509 84.548252 
L 352.373385 85.830693 
L 352.258007 86.186939 
L 351.904746 87.825626 
L 351.696202 89.464313 
L 351.587071 91.103001 
L 351.559024 92.741688 
L 351.615007 94.380375 
L 351.775275 96.019063 
L 352.075338 97.65775 
L 352.373385 98.679891 
L 352.584134 99.296437 
L 353.426766 100.935124 
L 354.123584 101.877794 
L 354.893255 102.573812 
L 355.873784 103.258281 
z
" clip-path="url(#p45da4017dd)" style="fill: none; stroke: #aadce0; stroke-width: 1.5"/>
    <path d="M 224.608813 253.391989 
L 226.359012 253.558367 
L 228.109212 253.641122 
L 229.859412 253.634774 
L 231.609611 253.538226 
L 233.359811 253.354625 
L 233.508483 253.333041 
L 235.11001 253.12447 
L 236.86021 252.835172 
L 238.61041 252.4917 
L 240.360609 252.100663 
L 242.000133 251.694354 
L 242.110809 251.668328 
L 243.861008 251.238439 
L 245.611208 250.74794 
L 247.361408 250.172845 
L 247.679383 250.055667 
L 249.111607 249.535412 
L 250.861807 248.759308 
L 251.519034 248.416979 
L 252.612007 247.851421 
L 254.347384 246.778292 
L 254.362206 246.769159 
L 256.112406 245.570944 
L 256.678068 245.139605 
L 257.862605 244.231809 
L 258.748985 243.500917 
L 259.612805 242.775808 
L 260.653341 241.86223 
L 261.363005 241.217391 
L 262.432535 240.223543 
L 263.113204 239.55759 
L 264.102904 238.584856 
L 264.863404 237.786408 
L 265.671183 236.946168 
L 266.613604 235.890103 
L 267.143789 235.307481 
L 268.363803 233.862857 
L 268.532072 233.668794 
L 269.882194 232.030106 
L 270.114003 231.735847 
L 271.210948 230.391419 
L 271.864202 229.560478 
L 272.52263 228.752732 
L 273.614402 227.384658 
L 273.838445 227.114045 
L 275.192041 225.475357 
L 275.364602 225.264588 
L 276.584069 223.83667 
L 277.114801 223.19404 
L 277.975796 222.197983 
L 278.865001 221.105398 
L 279.332951 220.559296 
L 280.600469 218.920608 
L 280.6152 218.898692 
L 281.773075 217.281921 
L 282.3654 216.218182 
L 282.710783 215.643234 
L 283.402156 214.004546 
L 283.772323 212.365859 
L 283.836238 210.727172 
L 283.610179 209.088485 
L 283.109277 207.449797 
L 282.3654 205.850526 
L 282.348878 205.81111 
L 281.451588 204.172423 
L 280.6152 202.910496 
L 280.390329 202.533736 
L 279.299946 200.895048 
L 278.865001 200.277431 
L 278.238219 199.256361 
L 277.22939 197.617674 
L 277.114801 197.42109 
L 276.408192 195.978986 
L 275.672817 194.340299 
L 275.364602 193.556154 
L 275.08603 192.701612 
L 274.631786 191.062925 
L 274.246325 189.424237 
L 273.916708 187.78555 
L 273.623071 186.146863 
L 273.614402 186.094505 
L 273.387615 184.508175 
L 273.132676 182.869488 
L 272.825466 181.230801 
L 272.430007 179.592114 
L 271.903889 177.953426 
L 271.864202 177.852471 
L 271.285822 176.314739 
L 270.443465 174.676052 
L 270.114003 174.161934 
L 269.383637 173.037365 
L 268.363803 171.808802 
L 268.008965 171.398677 
L 266.613604 170.049031 
L 266.295551 169.75999 
L 264.863404 168.602688 
L 264.221378 168.121303 
L 263.113204 167.342577 
L 261.787318 166.482615 
L 261.363005 166.213519 
L 259.612805 165.153111 
L 259.067949 164.843928 
L 257.862605 164.147775 
L 256.112406 163.237857 
L 256.045793 163.205241 
L 254.362206 162.352603 
L 252.612007 161.603722 
L 252.514478 161.566554 
L 250.861807 160.912757 
L 249.111607 160.357253 
L 247.375279 159.927866 
L 247.361408 159.92427 
L 245.611208 159.552371 
L 243.861008 159.27014 
L 242.110809 159.05229 
L 240.360609 158.874946 
L 238.61041 158.716913 
L 236.86021 158.56097 
L 235.11001 158.395125 
L 234.090278 158.289179 
L 233.359811 158.201672 
L 231.609611 157.973864 
L 229.859412 157.737271 
L 228.109212 157.507421 
L 226.359012 157.30405 
L 224.608813 157.148476 
L 222.858613 157.061132 
L 221.108413 157.059812 
L 219.358214 157.158924 
L 217.608014 157.369802 
L 215.857815 157.701904 
L 214.107615 158.164642 
L 213.72714 158.289179 
L 212.357415 158.695067 
L 210.607216 159.339548 
L 209.288815 159.927866 
L 208.857016 160.101502 
L 207.106817 160.910823 
L 205.915092 161.566554 
L 205.356617 161.842949 
L 203.606417 162.839249 
L 203.042785 163.205241 
L 201.856218 163.900298 
L 200.480461 164.843928 
L 200.106018 165.075799 
L 198.355818 166.297716 
L 198.115051 166.482615 
L 196.605619 167.538677 
L 195.858154 168.121303 
L 194.855419 168.841908 
L 193.684726 169.75999 
L 193.10522 170.186502 
L 191.565949 171.398677 
L 191.35502 171.558179 
L 189.60482 172.936046 
L 189.47929 173.037365 
L 187.854621 174.328052 
L 187.431218 174.676052 
L 186.104421 175.784018 
L 185.485546 176.314739 
L 184.354222 177.332509 
L 183.677579 177.953426 
L 182.604022 179.017427 
L 182.03118 179.592114 
L 180.853822 180.897341 
L 180.553883 181.230801 
L 179.224161 182.869488 
L 179.103623 183.033451 
L 177.995259 184.508175 
L 177.353423 185.471423 
L 176.889183 186.146863 
L 175.863368 187.78555 
L 175.603223 188.236327 
L 174.884887 189.424237 
L 173.988914 191.062925 
L 173.853024 191.329754 
L 173.113674 192.701612 
L 172.31995 194.340299 
L 172.102824 194.830737 
L 171.559142 195.978986 
L 170.861976 197.617674 
L 170.352625 198.963414 
L 170.232167 199.256361 
L 169.623767 200.895048 
L 169.087108 202.533736 
L 168.620396 204.172423 
L 168.602425 204.248326 
L 168.183093 205.81111 
L 167.834446 207.449797 
L 167.595269 209.088485 
L 167.490892 210.727172 
L 167.55127 212.365859 
L 167.809364 214.004546 
L 168.301658 215.643234 
L 168.602425 216.309642 
L 168.9997 217.281921 
L 169.922758 218.920608 
L 170.352625 219.514043 
L 171.037862 220.559296 
L 172.102824 221.852817 
L 172.362913 222.197983 
L 173.853024 223.83667 
L 173.853024 223.83667 
L 175.449879 225.475357 
L 175.603223 225.616378 
L 177.159079 227.114045 
L 177.353423 227.289415 
L 178.920898 228.752732 
L 179.103623 228.920332 
L 180.666903 230.391419 
L 180.853822 230.572032 
L 182.337226 232.030106 
L 182.604022 232.308785 
L 183.900362 233.668794 
L 184.354222 234.183064 
L 185.361435 235.307481 
L 186.104421 236.195649 
L 186.757959 236.946168 
L 187.854621 238.252232 
L 188.153601 238.584856 
L 189.60482 240.190932 
L 189.637193 240.223543 
L 191.321087 241.86223 
L 191.35502 241.893358 
L 193.10522 243.331585 
L 193.337796 243.500917 
L 194.855419 244.558194 
L 195.805456 245.139605 
L 196.605619 245.615401 
L 198.355818 246.550092 
L 198.821715 246.778292 
L 200.106018 247.405169 
L 201.856218 248.153935 
L 202.540828 248.416979 
L 203.606417 248.833832 
L 205.356617 249.436343 
L 207.106817 249.945177 
L 207.527969 250.055667 
L 208.857016 250.425522 
L 210.607216 250.857151 
L 212.357415 251.240517 
L 214.107615 251.588786 
L 214.667606 251.694354 
L 215.857815 251.948365 
L 217.608014 252.301243 
L 219.358214 252.628359 
L 221.108413 252.924054 
L 222.858613 253.179245 
L 224.179685 253.333041 
L 224.608813 253.391989 
z
" clip-path="url(#p45da4017dd)" style="fill: none; stroke: #aadce0; stroke-width: 1.5"/>
    <path d="M 219.358214 242.031561 
L 221.108413 242.209871 
L 222.858613 242.30779 
L 224.608813 242.328448 
L 226.359012 242.271574 
L 228.109212 242.134026 
L 229.859412 241.910482 
L 230.134587 241.86223 
L 231.609611 241.625454 
L 233.359811 241.257314 
L 235.11001 240.79287 
L 236.86021 240.223543 
L 236.86021 240.223543 
L 238.61041 239.617954 
L 240.360609 238.898291 
L 241.03593 238.584856 
L 242.110809 238.106824 
L 243.861008 237.212131 
L 244.330171 236.946168 
L 245.611208 236.230694 
L 247.053544 235.307481 
L 247.361408 235.108936 
L 249.111607 233.856929 
L 249.352139 233.668794 
L 250.861807 232.440327 
L 251.32426 232.030106 
L 252.612007 230.8174 
L 253.0375 230.391419 
L 254.362206 228.961136 
L 254.548701 228.752732 
L 255.916332 227.114045 
L 256.112406 226.859869 
L 257.183402 225.475357 
L 257.862605 224.508446 
L 258.346893 223.83667 
L 259.428516 222.197983 
L 259.612805 221.895094 
L 260.467704 220.559296 
L 261.363005 218.962436 
L 261.388016 218.920608 
L 262.273152 217.281921 
L 263.004196 215.643234 
L 263.113204 215.350078 
L 263.655921 214.004546 
L 264.162566 212.365859 
L 264.52149 210.727172 
L 264.748675 209.088485 
L 264.861892 207.449797 
L 264.863404 207.311938 
L 264.881859 205.81111 
L 264.863404 205.392524 
L 264.818202 204.172423 
L 264.693506 202.533736 
L 264.517278 200.895048 
L 264.29817 199.256361 
L 264.041412 197.617674 
L 263.74897 195.978986 
L 263.419784 194.340299 
L 263.113204 192.975895 
L 263.057189 192.701612 
L 262.686731 191.062925 
L 262.262317 189.424237 
L 261.769319 187.78555 
L 261.363005 186.619604 
L 261.203346 186.146863 
L 260.565035 184.508175 
L 259.77767 182.869488 
L 259.612805 182.572296 
L 258.848283 181.230801 
L 257.862605 179.828839 
L 257.686198 179.592114 
L 256.254838 177.953426 
L 256.112406 177.81049 
L 254.464864 176.314739 
L 254.362206 176.230701 
L 252.612007 174.934485 
L 252.213079 174.676052 
L 250.861807 173.83805 
L 249.337508 173.037365 
L 249.111607 172.919504 
L 247.361408 172.106876 
L 245.611208 171.442096 
L 245.479073 171.398677 
L 243.861008 170.843074 
L 242.110809 170.353252 
L 240.360609 169.958556 
L 239.286305 169.75999 
L 238.61041 169.624115 
L 236.86021 169.329407 
L 235.11001 169.086789 
L 233.359811 168.884401 
L 231.609611 168.714137 
L 229.859412 168.571897 
L 228.109212 168.457507 
L 226.359012 168.374288 
L 224.608813 168.32833 
L 222.858613 168.327615 
L 221.108413 168.381206 
L 219.358214 168.498704 
L 217.608014 168.690095 
L 215.857815 168.966024 
L 214.107615 169.338457 
L 212.573389 169.75999 
L 212.357415 169.812283 
L 210.607216 170.329959 
L 208.857016 170.97302 
L 207.883823 171.398677 
L 207.106817 171.712923 
L 205.356617 172.542555 
L 204.455175 173.037365 
L 203.606417 173.485566 
L 201.856218 174.548831 
L 201.6634 174.676052 
L 200.106018 175.703162 
L 199.267984 176.314739 
L 198.355818 177.00004 
L 197.17654 177.953426 
L 196.605619 178.44245 
L 195.324636 179.592114 
L 194.855419 180.050477 
L 193.673331 181.230801 
L 193.10522 181.863026 
L 192.200306 182.869488 
L 191.35502 183.936917 
L 190.893312 184.508175 
L 189.727896 186.146863 
L 189.60482 186.339256 
L 188.636111 187.78555 
L 187.854621 189.132472 
L 187.675098 189.424237 
L 186.749611 191.062925 
L 186.104421 192.365138 
L 185.924983 192.701612 
L 185.122519 194.340299 
L 184.431718 195.978986 
L 184.354222 196.184728 
L 183.763005 197.617674 
L 183.197054 199.256361 
L 182.740595 200.895048 
L 182.604022 201.514735 
L 182.351013 202.533736 
L 182.051845 204.172423 
L 181.859803 205.81111 
L 181.771041 207.449797 
L 181.78552 209.088485 
L 181.908474 210.727172 
L 182.151747 212.365859 
L 182.534909 214.004546 
L 182.604022 214.219978 
L 183.027953 215.643234 
L 183.698268 217.281921 
L 184.354222 218.503813 
L 184.572048 218.920608 
L 185.630987 220.559296 
L 186.104421 221.168701 
L 186.910987 222.197983 
L 187.854621 223.237738 
L 188.411528 223.83667 
L 189.60482 225.003414 
L 190.10356 225.475357 
L 191.35502 226.60017 
L 191.947736 227.114045 
L 193.10522 228.100351 
L 193.899857 228.752732 
L 194.855419 229.541924 
L 195.925183 230.391419 
L 196.605619 230.941686 
L 198.012455 232.030106 
L 198.355818 232.301417 
L 200.106018 233.617768 
L 200.176615 233.668794 
L 201.856218 234.902515 
L 202.452073 235.307481 
L 203.606417 236.102223 
L 204.964184 236.946168 
L 205.356617 237.192931 
L 207.106817 238.193852 
L 207.891098 238.584856 
L 208.857016 239.07641 
L 210.607216 239.836708 
L 211.679954 240.223543 
L 212.357415 240.477961 
L 214.107615 241.023942 
L 215.857815 241.451176 
L 217.608014 241.776366 
L 218.235212 241.86223 
L 219.358214 242.031561 
z
" clip-path="url(#p45da4017dd)" style="fill: none; stroke: #aadce0; stroke-width: 1.5"/>
    <path d="M 221.108413 235.325215 
L 222.858613 235.399494 
L 224.608813 235.371919 
L 225.520267 235.307481 
L 226.359012 235.252956 
L 228.109212 235.053452 
L 229.859412 234.765855 
L 231.609611 234.385639 
L 233.359811 233.905505 
L 234.081983 233.668794 
L 235.11001 233.343091 
L 236.86021 232.684561 
L 238.3259 232.030106 
L 238.61041 231.90333 
L 240.360609 231.018758 
L 241.434233 230.391419 
L 242.110809 229.983614 
L 243.861008 228.782841 
L 243.901206 228.752732 
L 245.611208 227.390547 
L 245.927226 227.114045 
L 247.361408 225.753546 
L 247.635025 225.475357 
L 249.101292 223.83667 
L 249.111607 223.824072 
L 250.397299 222.197983 
L 250.861807 221.541099 
L 251.546866 220.559296 
L 252.563714 218.920608 
L 252.612007 218.835257 
L 253.50004 217.281921 
L 254.309301 215.643234 
L 254.362206 215.522616 
L 255.046138 214.004546 
L 255.662364 212.365859 
L 256.112406 210.892604 
L 256.165058 210.727172 
L 256.586466 209.088485 
L 256.896717 207.449797 
L 257.105875 205.81111 
L 257.223378 204.172423 
L 257.257136 202.533736 
L 257.21284 200.895048 
L 257.09353 199.256361 
L 256.899383 197.617674 
L 256.627581 195.978986 
L 256.272133 194.340299 
L 256.112406 193.743732 
L 255.843045 192.701612 
L 255.323517 191.062925 
L 254.682983 189.424237 
L 254.362206 188.730804 
L 253.918408 187.78555 
L 252.990045 186.146863 
L 252.612007 185.57895 
L 251.856935 184.508175 
L 250.861807 183.322164 
L 250.447251 182.869488 
L 249.111607 181.603238 
L 248.669214 181.230801 
L 247.361408 180.240884 
L 246.363985 179.592114 
L 245.611208 179.135649 
L 243.861008 178.228029 
L 243.238337 177.953426 
L 242.110809 177.466895 
L 240.360609 176.835456 
L 238.61041 176.323888 
L 238.573955 176.314739 
L 236.86021 175.869609 
L 235.11001 175.497551 
L 233.359811 175.192656 
L 231.609611 174.942374 
L 229.859412 174.737735 
L 229.2125 174.676052 
L 228.109212 174.560146 
L 226.359012 174.418296 
L 224.608813 174.322668 
L 222.858613 174.279031 
L 221.108413 174.295758 
L 219.358214 174.383232 
L 217.608014 174.553425 
L 216.793979 174.676052 
L 215.857815 174.804093 
L 214.107615 175.141292 
L 212.357415 175.594371 
L 210.607216 176.181588 
L 210.277727 176.314739 
L 208.857016 176.870967 
L 207.106817 177.715678 
L 206.680639 177.953426 
L 205.356617 178.700301 
L 204.007368 179.592114 
L 203.606417 179.868232 
L 201.856218 181.230801 
L 201.856218 181.230801 
L 200.106018 182.820199 
L 200.055194 182.869488 
L 198.511891 184.508175 
L 198.355818 184.693151 
L 197.161087 186.146863 
L 196.605619 186.91409 
L 195.974461 187.78555 
L 194.930058 189.424237 
L 194.855419 189.552234 
L 193.947287 191.062925 
L 193.10522 192.668748 
L 193.087148 192.701612 
L 192.250966 194.340299 
L 191.523805 195.978986 
L 191.35502 196.405849 
L 190.842465 197.617674 
L 190.253606 199.256361 
L 189.775067 200.895048 
L 189.60482 201.643625 
L 189.384178 202.533736 
L 189.099829 204.172423 
L 188.941888 205.81111 
L 188.912764 207.449797 
L 189.018467 209.088485 
L 189.269955 210.727172 
L 189.60482 212.062919 
L 189.678563 212.365859 
L 190.237424 214.004546 
L 191.002783 215.643234 
L 191.35502 216.245691 
L 191.972073 217.281921 
L 193.10522 218.819953 
L 193.181719 218.920608 
L 194.612047 220.559296 
L 194.855419 220.807891 
L 196.26547 222.197983 
L 196.605619 222.508276 
L 198.111181 223.83667 
L 198.355818 224.042996 
L 200.106018 225.472345 
L 200.109792 225.475357 
L 201.856218 226.842178 
L 202.21893 227.114045 
L 203.606417 228.147725 
L 204.469381 228.752732 
L 205.356617 229.376816 
L 206.928702 230.391419 
L 207.106817 230.507587 
L 208.857016 231.557116 
L 209.763717 232.030106 
L 210.607216 232.479277 
L 212.357415 233.273548 
L 213.420725 233.668794 
L 214.107615 233.93381 
L 215.857815 234.475346 
L 217.608014 234.877595 
L 219.358214 235.155959 
L 220.937949 235.307481 
L 221.108413 235.325215 
z
" clip-path="url(#p45da4017dd)" style="fill: none; stroke: #aadce0; stroke-width: 1.5"/>
    <path d="M 215.857815 229.260279 
L 217.608014 229.729329 
L 219.358214 230.05547 
L 221.108413 230.250285 
L 222.858613 230.323474 
L 224.608813 230.282306 
L 226.359012 230.131179 
L 228.109212 229.871286 
L 229.859412 229.500393 
L 231.609611 229.012708 
L 232.370335 228.752732 
L 233.359811 228.411674 
L 235.11001 227.683651 
L 236.263725 227.114045 
L 236.86021 226.806926 
L 238.61041 225.765137 
L 239.041287 225.475357 
L 240.360609 224.52211 
L 241.206572 223.83667 
L 242.110809 223.035147 
L 242.975757 222.197983 
L 243.861008 221.247744 
L 244.462966 220.559296 
L 245.611208 219.088514 
L 245.736959 218.920608 
L 246.852501 217.281921 
L 247.361408 216.435669 
L 247.830124 215.643234 
L 248.687225 214.004546 
L 249.111607 213.071084 
L 249.432392 212.365859 
L 250.072832 210.727172 
L 250.596445 209.088485 
L 250.861807 208.043721 
L 251.015183 207.449797 
L 251.333468 205.81111 
L 251.543342 204.172423 
L 251.648674 202.533736 
L 251.651648 200.895048 
L 251.552119 199.256361 
L 251.346996 197.617674 
L 251.02957 195.978986 
L 250.861807 195.344561 
L 250.599404 194.340299 
L 250.040549 192.701612 
L 249.322389 191.062925 
L 249.111607 190.66528 
L 248.429718 189.424237 
L 247.361408 187.861981 
L 247.305736 187.78555 
L 245.893101 186.146863 
L 245.611208 185.867684 
L 244.07523 184.508175 
L 243.861008 184.341399 
L 242.110809 183.138476 
L 241.654968 182.869488 
L 240.360609 182.165979 
L 238.61041 181.378974 
L 238.22399 181.230801 
L 236.86021 180.725738 
L 235.11001 180.191477 
L 233.359811 179.758336 
L 232.54849 179.592114 
L 231.609611 179.395573 
L 229.859412 179.094365 
L 228.109212 178.856406 
L 226.359012 178.676895 
L 224.608813 178.555298 
L 222.858613 178.495057 
L 221.108413 178.503161 
L 219.358214 178.589666 
L 217.608014 178.767272 
L 215.857815 179.051075 
L 214.107615 179.458584 
L 213.669778 179.592114 
L 212.357415 179.985708 
L 210.607216 180.664567 
L 209.43663 181.230801 
L 208.857016 181.518306 
L 207.106817 182.561144 
L 206.660909 182.869488 
L 205.356617 183.831275 
L 204.550668 184.508175 
L 203.606417 185.374985 
L 202.839731 186.146863 
L 201.856218 187.250924 
L 201.406615 187.78555 
L 200.182056 189.424237 
L 200.106018 189.537109 
L 199.094952 191.062925 
L 198.355818 192.340886 
L 198.14521 192.701612 
L 197.28276 194.340299 
L 196.605619 195.821582 
L 196.531001 195.978986 
L 195.845002 197.617674 
L 195.271933 199.256361 
L 194.855419 200.737525 
L 194.808463 200.895048 
L 194.44427 202.533736 
L 194.216266 204.172423 
L 194.132228 205.81111 
L 194.202401 207.449797 
L 194.439827 209.088485 
L 194.855419 210.706306 
L 194.860812 210.727172 
L 195.46266 212.365859 
L 196.284367 214.004546 
L 196.605619 214.521367 
L 197.32583 215.643234 
L 198.355818 216.972731 
L 198.603709 217.281921 
L 200.106018 218.920608 
L 200.106018 218.920608 
L 201.810064 220.559296 
L 201.856218 220.600547 
L 203.606417 222.117609 
L 203.702859 222.197983 
L 205.356617 223.513358 
L 205.787301 223.83667 
L 207.106817 224.796993 
L 208.120566 225.475357 
L 208.857016 225.959667 
L 210.607216 226.989067 
L 210.84829 227.114045 
L 212.357415 227.895193 
L 214.107615 228.642039 
L 214.425886 228.752732 
L 215.857815 229.260279 
z
" clip-path="url(#p45da4017dd)" style="fill: none; stroke: #aadce0; stroke-width: 1.5"/>
    <path d="M 219.358214 225.631754 
L 221.108413 225.851397 
L 222.858613 225.922057 
L 224.608813 225.849726 
L 226.359012 225.637399 
L 227.174214 225.475357 
L 228.109212 225.287052 
L 229.859412 224.79471 
L 231.609611 224.148467 
L 232.301185 223.83667 
L 233.359811 223.332155 
L 235.11001 222.325122 
L 235.303289 222.197983 
L 236.86021 221.084148 
L 237.505101 220.559296 
L 238.61041 219.564369 
L 239.259197 218.920608 
L 240.360609 217.695675 
L 240.70743 217.281921 
L 241.929517 215.643234 
L 242.110809 215.368952 
L 242.977948 214.004546 
L 243.861008 212.389471 
L 243.873626 212.365859 
L 244.643443 210.727172 
L 245.282384 209.088485 
L 245.611208 208.049436 
L 245.800301 207.449797 
L 246.200051 205.81111 
L 246.476348 204.172423 
L 246.629766 202.533736 
L 246.659007 200.895048 
L 246.560257 199.256361 
L 246.326235 197.617674 
L 245.944942 195.978986 
L 245.611208 194.967546 
L 245.400668 194.340299 
L 244.669405 192.701612 
L 243.861008 191.312331 
L 243.707566 191.062925 
L 242.456034 189.424237 
L 242.110809 189.051249 
L 240.809855 187.78555 
L 240.360609 187.414567 
L 238.61041 186.159208 
L 238.590671 186.146863 
L 236.86021 185.183911 
L 235.372939 184.508175 
L 235.11001 184.397642 
L 233.359811 183.769155 
L 231.609611 183.264772 
L 229.8809 182.869488 
L 229.859412 182.864664 
L 228.109212 182.547426 
L 226.359012 182.312723 
L 224.608813 182.157297 
L 222.858613 182.082741 
L 221.108413 182.095149 
L 219.358214 182.20471 
L 217.608014 182.42531 
L 215.857815 182.774296 
L 215.513336 182.869488 
L 214.107615 183.263219 
L 212.357415 183.920241 
L 211.134162 184.508175 
L 210.607216 184.775296 
L 208.857016 185.859288 
L 208.462637 186.146863 
L 207.106817 187.226788 
L 206.493674 187.78555 
L 205.356617 188.942748 
L 204.925946 189.424237 
L 203.63396 191.062925 
L 203.606417 191.102417 
L 202.541386 192.701612 
L 201.856218 193.899645 
L 201.608137 194.340299 
L 200.806445 195.978986 
L 200.134522 197.617674 
L 200.106018 197.702761 
L 199.573533 199.256361 
L 199.144792 200.895048 
L 198.855353 202.533736 
L 198.716241 204.172423 
L 198.741556 205.81111 
L 198.946892 207.449797 
L 199.34819 209.088485 
L 199.961277 210.727172 
L 200.106018 211.021213 
L 200.793113 212.365859 
L 201.856218 214.004546 
L 201.856218 214.004546 
L 203.143251 215.643234 
L 203.606417 216.158554 
L 204.65597 217.281921 
L 205.356617 217.960675 
L 206.395302 218.920608 
L 207.106817 219.530104 
L 208.389505 220.559296 
L 208.857016 220.913153 
L 210.607216 222.121967 
L 210.73041 222.197983 
L 212.357415 223.161116 
L 213.712142 223.83667 
L 214.107615 224.029103 
L 215.857815 224.729155 
L 217.608014 225.259618 
L 218.624964 225.475357 
L 219.358214 225.631754 
z
" clip-path="url(#p45da4017dd)" style="fill: none; stroke: #aadce0; stroke-width: 1.5"/>
    <path d="M 217.608014 221.174604 
L 219.358214 221.602005 
L 221.108413 221.842985 
L 222.858613 221.902858 
L 224.608813 221.785349 
L 226.359012 221.491143 
L 228.109212 221.016743 
L 229.330714 220.559296 
L 229.859412 220.347658 
L 231.609611 219.456939 
L 232.472247 218.920608 
L 233.359811 218.313643 
L 234.645296 217.281921 
L 235.11001 216.863974 
L 236.315096 215.643234 
L 236.86021 215.013936 
L 237.663187 214.004546 
L 238.61041 212.625121 
L 238.778442 212.365859 
L 239.700098 210.727172 
L 240.360609 209.314232 
L 240.46294 209.088485 
L 241.075923 207.449797 
L 241.547182 205.81111 
L 241.878453 204.172423 
L 242.068026 202.533736 
L 242.110809 200.895048 
L 241.997815 199.256361 
L 241.715059 197.617674 
L 241.241829 195.978986 
L 240.548258 194.340299 
L 240.360609 194.006751 
L 239.574537 192.701612 
L 238.61041 191.478797 
L 238.247248 191.062925 
L 236.86021 189.787555 
L 236.405126 189.424237 
L 235.11001 188.554865 
L 233.731248 187.78555 
L 233.359811 187.603418 
L 231.609611 186.883068 
L 229.859412 186.315942 
L 229.192799 186.146863 
L 228.109212 185.889407 
L 226.359012 185.582287 
L 224.608813 185.382738 
L 222.858613 185.290132 
L 221.108413 185.309411 
L 219.358214 185.450671 
L 217.608014 185.728741 
L 215.920605 186.146863 
L 215.857815 186.163244 
L 214.107615 186.790751 
L 212.357415 187.628442 
L 212.091021 187.78555 
L 210.607216 188.748734 
L 209.743296 189.424237 
L 208.857016 190.207579 
L 208.012908 191.062925 
L 207.106817 192.124829 
L 206.658771 192.701612 
L 205.572503 194.340299 
L 205.356617 194.730057 
L 204.695598 195.978986 
L 203.992007 197.617674 
L 203.606417 198.779135 
L 203.449191 199.256361 
L 203.07069 200.895048 
L 202.858561 202.533736 
L 202.824295 204.172423 
L 202.981707 205.81111 
L 203.34441 207.449797 
L 203.606417 208.206172 
L 203.928771 209.088485 
L 204.741675 210.727172 
L 205.356617 211.710993 
L 205.78872 212.365859 
L 207.071338 214.004546 
L 207.106817 214.044463 
L 208.614666 215.643234 
L 208.857016 215.874123 
L 210.456024 217.281921 
L 210.607216 217.403989 
L 212.357415 218.676131 
L 212.746376 218.920608 
L 214.107615 219.719128 
L 215.857815 220.555344 
L 215.868472 220.559296 
L 217.608014 221.174604 
z
" clip-path="url(#p45da4017dd)" style="fill: none; stroke: #aadce0; stroke-width: 1.5"/>
    <path d="M 221.108413 217.529504 
L 222.858613 217.58002 
L 224.608813 217.401955 
L 225.130502 217.281921 
L 226.359012 216.975262 
L 228.109212 216.290967 
L 229.32175 215.643234 
L 229.859412 215.322038 
L 231.609611 214.004546 
L 231.609611 214.004546 
L 233.216906 212.365859 
L 233.359811 212.194878 
L 234.447322 210.727172 
L 235.11001 209.648001 
L 235.426097 209.088485 
L 236.17928 207.449797 
L 236.755474 205.81111 
L 236.86021 205.387723 
L 237.147537 204.172423 
L 237.365716 202.533736 
L 237.405183 200.895048 
L 237.2505 199.256361 
L 236.87813 197.617674 
L 236.86021 197.56933 
L 236.224361 195.978986 
L 235.25189 194.340299 
L 235.11001 194.161164 
L 233.794611 192.701612 
L 233.359811 192.325977 
L 231.617235 191.062925 
L 231.609611 191.058375 
L 229.859412 190.190976 
L 228.109212 189.530297 
L 227.728124 189.424237 
L 226.359012 189.087012 
L 224.608813 188.807877 
L 222.858613 188.679268 
L 221.108413 188.70423 
L 219.358214 188.892328 
L 217.608014 189.258965 
L 217.087501 189.424237 
L 215.857815 189.859248 
L 214.107615 190.7133 
L 213.547523 191.062925 
L 212.357415 191.923506 
L 211.471485 192.701612 
L 210.607216 193.610692 
L 210.004365 194.340299 
L 208.909426 195.978986 
L 208.857016 196.080568 
L 208.127636 197.617674 
L 207.566791 199.256361 
L 207.219767 200.895048 
L 207.106817 202.334394 
L 207.091689 202.533736 
L 207.106817 202.812185 
L 207.187164 204.172423 
L 207.515161 205.81111 
L 208.077373 207.449797 
L 208.857016 209.058129 
L 208.873106 209.088485 
L 209.957436 210.727172 
L 210.607216 211.546908 
L 211.325809 212.365859 
L 212.357415 213.388959 
L 213.066963 214.004546 
L 214.107615 214.809133 
L 215.405849 215.643234 
L 215.857815 215.906574 
L 217.608014 216.699795 
L 219.358214 217.246771 
L 219.562796 217.281921 
L 221.108413 217.529504 
z
" clip-path="url(#p45da4017dd)" style="fill: none; stroke: #aadce0; stroke-width: 1.5"/>
    <path d="M 221.108413 212.41428 
L 222.858613 212.469205 
L 223.511514 212.365859 
L 224.608813 212.167381 
L 226.359012 211.469994 
L 227.565265 210.727172 
L 228.109212 210.328559 
L 229.378327 209.088485 
L 229.859412 208.504214 
L 230.570635 207.449797 
L 231.409274 205.81111 
L 231.609611 205.240514 
L 231.937967 204.172423 
L 232.205576 202.533736 
L 232.221148 200.895048 
L 231.95708 199.256361 
L 231.609611 198.275666 
L 231.337757 197.617674 
L 230.231884 195.978986 
L 229.859412 195.593726 
L 228.333986 194.340299 
L 228.109212 194.200237 
L 226.359012 193.386546 
L 224.608813 192.863904 
L 223.458238 192.701612 
L 222.858613 192.63138 
L 221.108413 192.655535 
L 220.799746 192.701612 
L 219.358214 192.958025 
L 217.608014 193.566393 
L 216.138684 194.340299 
L 215.857815 194.527599 
L 214.225554 195.978986 
L 214.107615 196.121334 
L 213.095838 197.617674 
L 212.357415 199.256361 
L 212.357415 199.256361 
L 212.023103 200.895048 
L 211.981975 202.533736 
L 212.227002 204.172423 
L 212.357415 204.587695 
L 212.803264 205.81111 
L 213.693201 207.449797 
L 214.107615 208.035667 
L 214.998472 209.088485 
L 215.857815 209.925236 
L 216.908328 210.727172 
L 217.608014 211.184782 
L 219.358214 211.985081 
L 220.887516 212.365859 
L 221.108413 212.41428 
z
" clip-path="url(#p45da4017dd)" style="fill: none; stroke: #aadce0; stroke-width: 1.5"/>
    <path clip-path="url(#p45da4017dd)" style="fill: none; stroke: #aadce0; stroke-width: 1.5"/>
   </g>
   <g id="LineCollection_1">
    <path d="M 231.769158 347.79 
L 231.769158 65.586857 
" clip-path="url(#p45da4017dd)" style="fill: none; stroke-dasharray: 5.55,2.4; stroke-dashoffset: 0; stroke: #000000; stroke-width: 1.5"/>
   </g>
   <g id="LineCollection_2">
    <path d="M 201.633601 220.798586 
L 201.633601 192.578271 
" clip-path="url(#p45da4017dd)" style="fill: none; stroke-dasharray: 5.55,2.4; stroke-dashoffset: 0; stroke: #000000; stroke-width: 1.5"/>
   </g>
   <g id="LineCollection_3">
    <path d="M 201.633601 220.798586 
L 231.769158 220.798586 
" clip-path="url(#p45da4017dd)" style="fill: none; stroke-dasharray: 5.55,2.4; stroke-dashoffset: 0; stroke: #000000; stroke-width: 1.5"/>
   </g>
   <g id="LineCollection_4">
    <path d="M 201.633601 192.578271 
L 367.379165 192.578271 
" clip-path="url(#p45da4017dd)" style="fill: none; stroke-dasharray: 5.55,2.4; stroke-dashoffset: 0; stroke: #000000; stroke-width: 1.5"/>
   </g>
   <g id="patch_3">
    <path d="M 66.023594 347.79 
L 66.023594 65.586857 
" style="fill: none; stroke: #262626; stroke-width: 1.25; stroke-linejoin: miter; stroke-linecap: square"/>
   </g>
   <g id="patch_4">
    <path d="M 66.023594 347.79 
L 367.379165 347.79 
" style="fill: none; stroke: #262626; stroke-width: 1.25; stroke-linejoin: miter; stroke-linecap: square"/>
   </g>
  </g>
  <g id="axes_2">
   <g id="patch_5">
    <path d="M 66.023594 55.855714 
L 367.379165 55.855714 
L 367.379165 7.2 
L 66.023594 7.2 
z
" style="fill: #ffffff"/>
   </g>
   <g id="matplotlib.axis_3">
    <g id="xtick_10"/>
    <g id="xtick_11"/>
    <g id="xtick_12"/>
    <g id="xtick_13"/>
    <g id="xtick_14"/>
    <g id="xtick_15"/>
    <g id="xtick_16"/>
    <g id="xtick_17"/>
    <g id="xtick_18"/>
   </g>
   <g id="matplotlib.axis_4">
    <g id="ytick_10"/>
    <g id="ytick_11"/>
   </g>
   <g id="line2d_1">
    <path d="M 52.285167 55.854447 
L 67.476457 55.758388 
L 94.483194 55.372058 
L 104.61072 55.448743 
L 109.674484 55.289862 
L 123.177852 54.665283 
L 128.241615 54.699976 
L 143.432905 55.008001 
L 148.496668 54.746105 
L 158.624195 54.13882 
L 163.687958 53.832902 
L 167.0638 53.485055 
L 170.439642 52.985097 
L 173.815484 52.33083 
L 177.191326 51.482164 
L 180.567169 50.330018 
L 182.25509 49.596548 
L 183.943011 48.738379 
L 185.630932 47.746109 
L 187.318853 46.614877 
L 189.006774 45.343058 
L 192.382616 42.375984 
L 195.758458 38.832986 
L 199.1343 34.695956 
L 202.510142 30.004412 
L 210.949748 17.602121 
L 212.637669 15.478164 
L 214.32559 13.620947 
L 216.013511 12.077264 
L 217.701432 10.880297 
L 219.389353 10.050177 
L 221.077274 9.595819 
L 222.765195 9.516878 
L 224.453116 9.80493 
L 226.141037 10.443556 
L 227.828958 11.407772 
L 229.51688 12.663654 
L 231.204801 14.168998 
L 234.580643 17.732146 
L 239.644406 23.741127 
L 246.39609 31.74867 
L 251.459853 37.436083 
L 254.835696 40.935111 
L 258.211538 44.01114 
L 259.899459 45.340816 
L 261.58738 46.515605 
L 263.275301 47.532871 
L 264.963222 48.397482 
L 266.651143 49.120697 
L 270.026985 50.210129 
L 273.402827 50.956799 
L 278.466591 51.773404 
L 290.282038 53.42804 
L 293.65788 53.677363 
L 298.721643 53.746557 
L 305.473328 53.734952 
L 310.537091 54.016739 
L 320.664617 54.805025 
L 327.416301 55.054766 
L 339.231749 55.240583 
L 364.550565 55.413633 
L 383.117697 55.839207 
L 388.18146 55.853089 
L 388.18146 55.853089 
" clip-path="url(#p7cdd9beae0)" style="fill: none; stroke: #aadce0; stroke-width: 1.5; stroke-linecap: round"/>
   </g>
   <g id="line2d_2">
    <path d="M 231.769158 55.855714 
L 231.769158 7.2 
" clip-path="url(#p7cdd9beae0)" style="fill: none; stroke: #000000; stroke-width: 1.5; stroke-linecap: round"/>
   </g>
   <g id="patch_6">
    <path d="M 66.023594 55.855714 
L 367.379165 55.855714 
" style="fill: none; stroke: #262626; stroke-width: 1.25; stroke-linejoin: miter; stroke-linecap: square"/>
   </g>
  </g>
  <g id="axes_3">
   <g id="patch_7">
    <path d="M 377.770737 347.79 
L 429.728594 347.79 
L 429.728594 65.586857 
L 377.770737 65.586857 
z
" style="fill: #ffffff"/>
   </g>
   <g id="matplotlib.axis_5">
    <g id="xtick_19"/>
    <g id="xtick_20"/>
   </g>
   <g id="matplotlib.axis_6">
    <g id="ytick_12"/>
    <g id="ytick_13"/>
    <g id="ytick_14"/>
    <g id="ytick_15"/>
    <g id="ytick_16"/>
    <g id="ytick_17"/>
    <g id="ytick_18"/>
    <g id="ytick_19"/>
    <g id="ytick_20"/>
   </g>
   <g id="line2d_3">
    <path d="M 377.772832 362.440874 
L 377.897736 349.781649 
L 378.1818 335.540021 
L 378.286592 327.628006 
L 378.526947 316.551184 
L 378.529682 307.056766 
L 378.848524 300.727153 
L 379.107843 294.397541 
L 379.069709 286.485526 
L 379.130924 280.155913 
L 379.349681 267.496688 
L 379.479948 262.749479 
L 379.776258 259.584673 
L 380.34148 256.419867 
L 381.19323 253.255061 
L 382.292405 250.090254 
L 383.59676 246.925448 
L 385.107833 243.760642 
L 386.886743 240.595836 
L 389.061355 237.43103 
L 390.356241 235.848627 
L 391.825944 234.266224 
L 393.494459 232.68382 
L 395.376701 231.101417 
L 397.473459 229.519014 
L 402.227776 226.354208 
L 415.116932 218.442193 
L 417.423039 216.85979 
L 419.532664 215.277387 
L 421.41605 213.694983 
L 423.051774 212.11258 
L 424.42638 210.530177 
L 425.533298 208.947774 
L 426.37075 207.365371 
L 426.938716 205.782968 
L 427.23545 204.200565 
L 427.25451 202.618162 
L 426.983367 201.035759 
L 426.404451 199.453356 
L 425.498891 197.870953 
L 424.252367 196.288549 
L 422.661644 194.706146 
L 420.739883 193.123743 
L 418.518991 191.54134 
L 413.388492 188.376534 
L 396.875405 178.882115 
L 392.258979 175.717309 
L 390.267396 174.134906 
L 388.515283 172.552503 
L 387.011624 170.9701 
L 385.752385 169.387697 
L 384.72002 167.805294 
L 383.885437 166.222891 
L 383.212093 164.640488 
L 382.197377 161.475681 
L 381.085908 156.728472 
L 380.222165 151.981263 
L 379.621369 147.234054 
L 379.149139 140.904441 
L 378.799004 132.992426 
L 378.720715 126.662814 
L 378.930299 104.50917 
L 378.67596 95.014752 
L 378.028242 76.025915 
L 377.882695 60.201884 
L 377.775337 49.125062 
L 377.773099 47.542659 
L 377.773099 47.542659 
" clip-path="url(#pa840767a84)" style="fill: none; stroke: #aadce0; stroke-width: 1.5; stroke-linecap: round"/>
   </g>
   <g id="line2d_4">
    <path d="M 377.770737 192.578271 
L 429.728594 192.578271 
" clip-path="url(#pa840767a84)" style="fill: none; stroke: #000000; stroke-width: 1.5; stroke-linecap: round"/>
   </g>
   <g id="patch_8">
    <path d="M 377.770737 347.79 
L 377.770737 65.586857 
" style="fill: none; stroke: #262626; stroke-width: 1.25; stroke-linejoin: miter; stroke-linecap: square"/>
   </g>
  </g>
 </g>
 <defs>
  <clipPath id="p45da4017dd">
   <rect x="66.023594" y="65.586857" width="301.355571" height="282.203143"/>
  </clipPath>
  <clipPath id="p7cdd9beae0">
   <rect x="66.023594" y="7.2" width="301.355571" height="48.655714"/>
  </clipPath>
  <clipPath id="pa840767a84">
   <rect x="377.770737" y="65.586857" width="51.957857" height="282.203143"/>
  </clipPath>
 </defs>
</svg>
