<?xml version="1.0" encoding="utf-8" standalone="no"?>
<!DOCTYPE svg PUBLIC "-//W3C//DTD SVG 1.1//EN"
  "http://www.w3.org/Graphics/SVG/1.1/DTD/svg11.dtd">
<svg xmlns:xlink="http://www.w3.org/1999/xlink" width="350.004687pt" height="604.559688pt" viewBox="0 0 350.004687 604.559688" xmlns="http://www.w3.org/2000/svg" version="1.1">
 <metadata>
  <rdf:RDF xmlns:dc="http://purl.org/dc/elements/1.1/" xmlns:cc="http://creativecommons.org/ns#" xmlns:rdf="http://www.w3.org/1999/02/22-rdf-syntax-ns#">
   <cc:Work>
    <dc:type rdf:resource="http://purl.org/dc/dcmitype/StillImage"/>
    <dc:date>2025-11-14T13:07:58.466742</dc:date>
    <dc:format>image/svg+xml</dc:format>
    <dc:creator>
     <cc:Agent>
      <dc:title>Matplotlib v3.10.5, https://matplotlib.org/</dc:title>
     </cc:Agent>
    </dc:creator>
   </cc:Work>
  </rdf:RDF>
 </metadata>
 <defs>
  <style type="text/css">*{stroke-linejoin: round; stroke-linecap: butt}</style>
 </defs>
 <g id="figure_1">
  <g id="patch_1">
   <path d="M 0 604.559688 
L 350.004687 604.559688 
L 350.004687 0 
L 0 0 
z
" style="fill: #ffffff"/>
  </g>
  <g id="axes_1">
   <g id="patch_2">
    <path d="M 63.804688 561.6 
L 342.804688 561.6 
L 342.804688 7.2 
L 63.804688 7.2 
z
" style="fill: #ffffff"/>
   </g>
   <g id="matplotlib.axis_1">
    <g id="xtick_1">
     <g id="text_1">
      <!-- long -->
      <g style="fill: #262626" transform="translate(121.684141 579.458281) scale(0.11 -0.11)">
       <defs>
        <path id="DejaVuSans-6c" d="M 603 4863 
L 1178 4863 
L 1178 0 
L 603 0 
L 603 4863 
z
" transform="scale(0.015625)"/>
        <path id="DejaVuSans-6f" d="M 1959 3097 
Q 1497 3097 1228 2736 
Q 959 2375 959 1747 
Q 959 1119 1226 758 
Q 1494 397 1959 397 
Q 2419 397 2687 759 
Q 2956 1122 2956 1747 
Q 2956 2369 2687 2733 
Q 2419 3097 1959 3097 
z
M 1959 3584 
Q 2709 3584 3137 3096 
Q 3566 2609 3566 1747 
Q 3566 888 3137 398 
Q 2709 -91 1959 -91 
Q 1206 -91 779 398 
Q 353 888 353 1747 
Q 353 2609 779 3096 
Q 1206 3584 1959 3584 
z
" transform="scale(0.015625)"/>
        <path id="DejaVuSans-6e" d="M 3513 2113 
L 3513 0 
L 2938 0 
L 2938 2094 
Q 2938 2591 2744 2837 
Q 2550 3084 2163 3084 
Q 1697 3084 1428 2787 
Q 1159 2491 1159 1978 
L 1159 0 
L 581 0 
L 581 3500 
L 1159 3500 
L 1159 2956 
Q 1366 3272 1645 3428 
Q 1925 3584 2291 3584 
Q 2894 3584 3203 3211 
Q 3513 2838 3513 2113 
z
" transform="scale(0.015625)"/>
        <path id="DejaVuSans-67" d="M 2906 1791 
Q 2906 2416 2648 2759 
Q 2391 3103 1925 3103 
Q 1463 3103 1205 2759 
Q 947 2416 947 1791 
Q 947 1169 1205 825 
Q 1463 481 1925 481 
Q 2391 481 2648 825 
Q 2906 1169 2906 1791 
z
M 3481 434 
Q 3481 -459 3084 -895 
Q 2688 -1331 1869 -1331 
Q 1566 -1331 1297 -1286 
Q 1028 -1241 775 -1147 
L 775 -588 
Q 1028 -725 1275 -790 
Q 1522 -856 1778 -856 
Q 2344 -856 2625 -561 
Q 2906 -266 2906 331 
L 2906 616 
Q 2728 306 2450 153 
Q 2172 0 1784 0 
Q 1141 0 747 490 
Q 353 981 353 1791 
Q 353 2603 747 3093 
Q 1141 3584 1784 3584 
Q 2172 3584 2450 3431 
Q 2728 3278 2906 2969 
L 2906 3500 
L 3481 3500 
L 3481 434 
z
" transform="scale(0.015625)"/>
       </defs>
       <use xlink:href="#DejaVuSans-6c"/>
       <use xlink:href="#DejaVuSans-6f" transform="translate(27.783203 0)"/>
       <use xlink:href="#DejaVuSans-6e" transform="translate(88.964844 0)"/>
       <use xlink:href="#DejaVuSans-67" transform="translate(152.34375 0)"/>
      </g>
     </g>
    </g>
    <g id="xtick_2">
     <g id="text_2">
      <!-- short -->
      <g style="fill: #262626" transform="translate(258.921406 579.458281) scale(0.11 -0.11)">
       <defs>
        <path id="DejaVuSans-73" d="M 2834 3397 
L 2834 2853 
Q 2591 2978 2328 3040 
Q 2066 3103 1784 3103 
Q 1356 3103 1142 2972 
Q 928 2841 928 2578 
Q 928 2378 1081 2264 
Q 1234 2150 1697 2047 
L 1894 2003 
Q 2506 1872 2764 1633 
Q 3022 1394 3022 966 
Q 3022 478 2636 193 
Q 2250 -91 1575 -91 
Q 1294 -91 989 -36 
Q 684 19 347 128 
L 347 722 
Q 666 556 975 473 
Q 1284 391 1588 391 
Q 1994 391 2212 530 
Q 2431 669 2431 922 
Q 2431 1156 2273 1281 
Q 2116 1406 1581 1522 
L 1381 1569 
Q 847 1681 609 1914 
Q 372 2147 372 2553 
Q 372 3047 722 3315 
Q 1072 3584 1716 3584 
Q 2034 3584 2315 3537 
Q 2597 3491 2834 3397 
z
" transform="scale(0.015625)"/>
        <path id="DejaVuSans-68" d="M 3513 2113 
L 3513 0 
L 2938 0 
L 2938 2094 
Q 2938 2591 2744 2837 
Q 2550 3084 2163 3084 
Q 1697 3084 1428 2787 
Q 1159 2491 1159 1978 
L 1159 0 
L 581 0 
L 581 4863 
L 1159 4863 
L 1159 2956 
Q 1366 3272 1645 3428 
Q 1925 3584 2291 3584 
Q 2894 3584 3203 3211 
Q 3513 2838 3513 2113 
z
" transform="scale(0.015625)"/>
        <path id="DejaVuSans-72" d="M 2631 2963 
Q 2534 3019 2420 3045 
Q 2306 3072 2169 3072 
Q 1681 3072 1420 2755 
Q 1159 2438 1159 1844 
L 1159 0 
L 581 0 
L 581 3500 
L 1159 3500 
L 1159 2956 
Q 1341 3275 1631 3429 
Q 1922 3584 2338 3584 
Q 2397 3584 2469 3576 
Q 2541 3569 2628 3553 
L 2631 2963 
z
" transform="scale(0.015625)"/>
        <path id="DejaVuSans-74" d="M 1172 4494 
L 1172 3500 
L 2356 3500 
L 2356 3053 
L 1172 3053 
L 1172 1153 
Q 1172 725 1289 603 
Q 1406 481 1766 481 
L 2356 481 
L 2356 0 
L 1766 0 
Q 1100 0 847 248 
Q 594 497 594 1153 
L 594 3053 
L 172 3053 
L 172 3500 
L 594 3500 
L 594 4494 
L 1172 4494 
z
" transform="scale(0.015625)"/>
       </defs>
       <use xlink:href="#DejaVuSans-73"/>
       <use xlink:href="#DejaVuSans-68" transform="translate(52.099609 0)"/>
       <use xlink:href="#DejaVuSans-6f" transform="translate(115.478516 0)"/>
       <use xlink:href="#DejaVuSans-72" transform="translate(176.660156 0)"/>
       <use xlink:href="#DejaVuSans-74" transform="translate(217.773438 0)"/>
      </g>
     </g>
    </g>
    <g id="text_3">
     <!-- Habituation -->
     <g style="fill: #262626" transform="translate(168.315313 594.864063) scale(0.12 -0.12)">
      <defs>
       <path id="DejaVuSans-48" d="M 628 4666 
L 1259 4666 
L 1259 2753 
L 3553 2753 
L 3553 4666 
L 4184 4666 
L 4184 0 
L 3553 0 
L 3553 2222 
L 1259 2222 
L 1259 0 
L 628 0 
L 628 4666 
z
" transform="scale(0.015625)"/>
       <path id="DejaVuSans-61" d="M 2194 1759 
Q 1497 1759 1228 1600 
Q 959 1441 959 1056 
Q 959 750 1161 570 
Q 1363 391 1709 391 
Q 2188 391 2477 730 
Q 2766 1069 2766 1631 
L 2766 1759 
L 2194 1759 
z
M 3341 1997 
L 3341 0 
L 2766 0 
L 2766 531 
Q 2569 213 2275 61 
Q 1981 -91 1556 -91 
Q 1019 -91 701 211 
Q 384 513 384 1019 
Q 384 1609 779 1909 
Q 1175 2209 1959 2209 
L 2766 2209 
L 2766 2266 
Q 2766 2663 2505 2880 
Q 2244 3097 1772 3097 
Q 1472 3097 1187 3025 
Q 903 2953 641 2809 
L 641 3341 
Q 956 3463 1253 3523 
Q 1550 3584 1831 3584 
Q 2591 3584 2966 3190 
Q 3341 2797 3341 1997 
z
" transform="scale(0.015625)"/>
       <path id="DejaVuSans-62" d="M 3116 1747 
Q 3116 2381 2855 2742 
Q 2594 3103 2138 3103 
Q 1681 3103 1420 2742 
Q 1159 2381 1159 1747 
Q 1159 1113 1420 752 
Q 1681 391 2138 391 
Q 2594 391 2855 752 
Q 3116 1113 3116 1747 
z
M 1159 2969 
Q 1341 3281 1617 3432 
Q 1894 3584 2278 3584 
Q 2916 3584 3314 3078 
Q 3713 2572 3713 1747 
Q 3713 922 3314 415 
Q 2916 -91 2278 -91 
Q 1894 -91 1617 61 
Q 1341 213 1159 525 
L 1159 0 
L 581 0 
L 581 4863 
L 1159 4863 
L 1159 2969 
z
" transform="scale(0.015625)"/>
       <path id="DejaVuSans-69" d="M 603 3500 
L 1178 3500 
L 1178 0 
L 603 0 
L 603 3500 
z
M 603 4863 
L 1178 4863 
L 1178 4134 
L 603 4134 
L 603 4863 
z
" transform="scale(0.015625)"/>
       <path id="DejaVuSans-75" d="M 544 1381 
L 544 3500 
L 1119 3500 
L 1119 1403 
Q 1119 906 1312 657 
Q 1506 409 1894 409 
Q 2359 409 2629 706 
Q 2900 1003 2900 1516 
L 2900 3500 
L 3475 3500 
L 3475 0 
L 2900 0 
L 2900 538 
Q 2691 219 2414 64 
Q 2138 -91 1772 -91 
Q 1169 -91 856 284 
Q 544 659 544 1381 
z
M 1991 3584 
L 1991 3584 
z
" transform="scale(0.015625)"/>
      </defs>
      <use xlink:href="#DejaVuSans-48"/>
      <use xlink:href="#DejaVuSans-61" transform="translate(75.195312 0)"/>
      <use xlink:href="#DejaVuSans-62" transform="translate(136.474609 0)"/>
      <use xlink:href="#DejaVuSans-69" transform="translate(199.951172 0)"/>
      <use xlink:href="#DejaVuSans-74" transform="translate(227.734375 0)"/>
      <use xlink:href="#DejaVuSans-75" transform="translate(266.943359 0)"/>
      <use xlink:href="#DejaVuSans-61" transform="translate(330.322266 0)"/>
      <use xlink:href="#DejaVuSans-74" transform="translate(391.601562 0)"/>
      <use xlink:href="#DejaVuSans-69" transform="translate(430.810547 0)"/>
      <use xlink:href="#DejaVuSans-6f" transform="translate(458.59375 0)"/>
      <use xlink:href="#DejaVuSans-6e" transform="translate(519.775391 0)"/>
     </g>
    </g>
   </g>
   <g id="matplotlib.axis_2">
    <g id="ytick_1">
     <g id="text_4">
      <!-- 0.000 -->
      <g style="fill: #262626" transform="translate(22.81375 517.630794) scale(0.11 -0.11)">
       <defs>
        <path id="DejaVuSans-30" d="M 2034 4250 
Q 1547 4250 1301 3770 
Q 1056 3291 1056 2328 
Q 1056 1369 1301 889 
Q 1547 409 2034 409 
Q 2525 409 2770 889 
Q 3016 1369 3016 2328 
Q 3016 3291 2770 3770 
Q 2525 4250 2034 4250 
z
M 2034 4750 
Q 2819 4750 3233 4129 
Q 3647 3509 3647 2328 
Q 3647 1150 3233 529 
Q 2819 -91 2034 -91 
Q 1250 -91 836 529 
Q 422 1150 422 2328 
Q 422 3509 836 4129 
Q 1250 4750 2034 4750 
z
" transform="scale(0.015625)"/>
        <path id="DejaVuSans-2e" d="M 684 794 
L 1344 794 
L 1344 0 
L 684 0 
L 684 794 
z
" transform="scale(0.015625)"/>
       </defs>
       <use xlink:href="#DejaVuSans-30"/>
       <use xlink:href="#DejaVuSans-2e" transform="translate(63.623047 0)"/>
       <use xlink:href="#DejaVuSans-30" transform="translate(95.410156 0)"/>
       <use xlink:href="#DejaVuSans-30" transform="translate(159.033203 0)"/>
       <use xlink:href="#DejaVuSans-30" transform="translate(222.65625 0)"/>
      </g>
     </g>
    </g>
    <g id="ytick_2">
     <g id="text_5">
      <!-- 0.025 -->
      <g style="fill: #262626" transform="translate(22.81375 454.214872) scale(0.11 -0.11)">
       <defs>
        <path id="DejaVuSans-32" d="M 1228 531 
L 3431 531 
L 3431 0 
L 469 0 
L 469 531 
Q 828 903 1448 1529 
Q 2069 2156 2228 2338 
Q 2531 2678 2651 2914 
Q 2772 3150 2772 3378 
Q 2772 3750 2511 3984 
Q 2250 4219 1831 4219 
Q 1534 4219 1204 4116 
Q 875 4013 500 3803 
L 500 4441 
Q 881 4594 1212 4672 
Q 1544 4750 1819 4750 
Q 2544 4750 2975 4387 
Q 3406 4025 3406 3419 
Q 3406 3131 3298 2873 
Q 3191 2616 2906 2266 
Q 2828 2175 2409 1742 
Q 1991 1309 1228 531 
z
" transform="scale(0.015625)"/>
        <path id="DejaVuSans-35" d="M 691 4666 
L 3169 4666 
L 3169 4134 
L 1269 4134 
L 1269 2991 
Q 1406 3038 1543 3061 
Q 1681 3084 1819 3084 
Q 2600 3084 3056 2656 
Q 3513 2228 3513 1497 
Q 3513 744 3044 326 
Q 2575 -91 1722 -91 
Q 1428 -91 1123 -41 
Q 819 9 494 109 
L 494 744 
Q 775 591 1075 516 
Q 1375 441 1709 441 
Q 2250 441 2565 725 
Q 2881 1009 2881 1497 
Q 2881 1984 2565 2268 
Q 2250 2553 1709 2553 
Q 1456 2553 1204 2497 
Q 953 2441 691 2322 
L 691 4666 
z
" transform="scale(0.015625)"/>
       </defs>
       <use xlink:href="#DejaVuSans-30"/>
       <use xlink:href="#DejaVuSans-2e" transform="translate(63.623047 0)"/>
       <use xlink:href="#DejaVuSans-30" transform="translate(95.410156 0)"/>
       <use xlink:href="#DejaVuSans-32" transform="translate(159.033203 0)"/>
       <use xlink:href="#DejaVuSans-35" transform="translate(222.65625 0)"/>
      </g>
     </g>
    </g>
    <g id="ytick_3">
     <g id="text_6">
      <!-- 0.050 -->
      <g style="fill: #262626" transform="translate(22.81375 390.798951) scale(0.11 -0.11)">
       <use xlink:href="#DejaVuSans-30"/>
       <use xlink:href="#DejaVuSans-2e" transform="translate(63.623047 0)"/>
       <use xlink:href="#DejaVuSans-30" transform="translate(95.410156 0)"/>
       <use xlink:href="#DejaVuSans-35" transform="translate(159.033203 0)"/>
       <use xlink:href="#DejaVuSans-30" transform="translate(222.65625 0)"/>
      </g>
     </g>
    </g>
    <g id="ytick_4">
     <g id="text_7">
      <!-- 0.075 -->
      <g style="fill: #262626" transform="translate(22.81375 327.38303) scale(0.11 -0.11)">
       <defs>
        <path id="DejaVuSans-37" d="M 525 4666 
L 3525 4666 
L 3525 4397 
L 1831 0 
L 1172 0 
L 2766 4134 
L 525 4134 
L 525 4666 
z
" transform="scale(0.015625)"/>
       </defs>
       <use xlink:href="#DejaVuSans-30"/>
       <use xlink:href="#DejaVuSans-2e" transform="translate(63.623047 0)"/>
       <use xlink:href="#DejaVuSans-30" transform="translate(95.410156 0)"/>
       <use xlink:href="#DejaVuSans-37" transform="translate(159.033203 0)"/>
       <use xlink:href="#DejaVuSans-35" transform="translate(222.65625 0)"/>
      </g>
     </g>
    </g>
    <g id="ytick_5">
     <g id="text_8">
      <!-- 0.100 -->
      <g style="fill: #262626" transform="translate(22.81375 263.967108) scale(0.11 -0.11)">
       <defs>
        <path id="DejaVuSans-31" d="M 794 531 
L 1825 531 
L 1825 4091 
L 703 3866 
L 703 4441 
L 1819 4666 
L 2450 4666 
L 2450 531 
L 3481 531 
L 3481 0 
L 794 0 
L 794 531 
z
" transform="scale(0.015625)"/>
       </defs>
       <use xlink:href="#DejaVuSans-30"/>
       <use xlink:href="#DejaVuSans-2e" transform="translate(63.623047 0)"/>
       <use xlink:href="#DejaVuSans-31" transform="translate(95.410156 0)"/>
       <use xlink:href="#DejaVuSans-30" transform="translate(159.033203 0)"/>
       <use xlink:href="#DejaVuSans-30" transform="translate(222.65625 0)"/>
      </g>
     </g>
    </g>
    <g id="ytick_6">
     <g id="text_9">
      <!-- 0.125 -->
      <g style="fill: #262626" transform="translate(22.81375 200.551187) scale(0.11 -0.11)">
       <use xlink:href="#DejaVuSans-30"/>
       <use xlink:href="#DejaVuSans-2e" transform="translate(63.623047 0)"/>
       <use xlink:href="#DejaVuSans-31" transform="translate(95.410156 0)"/>
       <use xlink:href="#DejaVuSans-32" transform="translate(159.033203 0)"/>
       <use xlink:href="#DejaVuSans-35" transform="translate(222.65625 0)"/>
      </g>
     </g>
    </g>
    <g id="ytick_7">
     <g id="text_10">
      <!-- 0.150 -->
      <g style="fill: #262626" transform="translate(22.81375 137.135265) scale(0.11 -0.11)">
       <use xlink:href="#DejaVuSans-30"/>
       <use xlink:href="#DejaVuSans-2e" transform="translate(63.623047 0)"/>
       <use xlink:href="#DejaVuSans-31" transform="translate(95.410156 0)"/>
       <use xlink:href="#DejaVuSans-35" transform="translate(159.033203 0)"/>
       <use xlink:href="#DejaVuSans-30" transform="translate(222.65625 0)"/>
      </g>
     </g>
    </g>
    <g id="ytick_8">
     <g id="text_11">
      <!-- 0.175 -->
      <g style="fill: #262626" transform="translate(22.81375 73.719344) scale(0.11 -0.11)">
       <use xlink:href="#DejaVuSans-30"/>
       <use xlink:href="#DejaVuSans-2e" transform="translate(63.623047 0)"/>
       <use xlink:href="#DejaVuSans-31" transform="translate(95.410156 0)"/>
       <use xlink:href="#DejaVuSans-37" transform="translate(159.033203 0)"/>
       <use xlink:href="#DejaVuSans-35" transform="translate(222.65625 0)"/>
      </g>
     </g>
    </g>
    <g id="text_12">
     <!-- Framewise displacement (mm) -->
     <g style="fill: #262626" transform="translate(16.318125 377.1075) rotate(-90) scale(0.12 -0.12)">
      <defs>
       <path id="DejaVuSans-46" d="M 628 4666 
L 3309 4666 
L 3309 4134 
L 1259 4134 
L 1259 2759 
L 3109 2759 
L 3109 2228 
L 1259 2228 
L 1259 0 
L 628 0 
L 628 4666 
z
" transform="scale(0.015625)"/>
       <path id="DejaVuSans-6d" d="M 3328 2828 
Q 3544 3216 3844 3400 
Q 4144 3584 4550 3584 
Q 5097 3584 5394 3201 
Q 5691 2819 5691 2113 
L 5691 0 
L 5113 0 
L 5113 2094 
Q 5113 2597 4934 2840 
Q 4756 3084 4391 3084 
Q 3944 3084 3684 2787 
Q 3425 2491 3425 1978 
L 3425 0 
L 2847 0 
L 2847 2094 
Q 2847 2600 2669 2842 
Q 2491 3084 2119 3084 
Q 1678 3084 1418 2786 
Q 1159 2488 1159 1978 
L 1159 0 
L 581 0 
L 581 3500 
L 1159 3500 
L 1159 2956 
Q 1356 3278 1631 3431 
Q 1906 3584 2284 3584 
Q 2666 3584 2933 3390 
Q 3200 3197 3328 2828 
z
" transform="scale(0.015625)"/>
       <path id="DejaVuSans-65" d="M 3597 1894 
L 3597 1613 
L 953 1613 
Q 991 1019 1311 708 
Q 1631 397 2203 397 
Q 2534 397 2845 478 
Q 3156 559 3463 722 
L 3463 178 
Q 3153 47 2828 -22 
Q 2503 -91 2169 -91 
Q 1331 -91 842 396 
Q 353 884 353 1716 
Q 353 2575 817 3079 
Q 1281 3584 2069 3584 
Q 2775 3584 3186 3129 
Q 3597 2675 3597 1894 
z
M 3022 2063 
Q 3016 2534 2758 2815 
Q 2500 3097 2075 3097 
Q 1594 3097 1305 2825 
Q 1016 2553 972 2059 
L 3022 2063 
z
" transform="scale(0.015625)"/>
       <path id="DejaVuSans-77" d="M 269 3500 
L 844 3500 
L 1563 769 
L 2278 3500 
L 2956 3500 
L 3675 769 
L 4391 3500 
L 4966 3500 
L 4050 0 
L 3372 0 
L 2619 2869 
L 1863 0 
L 1184 0 
L 269 3500 
z
" transform="scale(0.015625)"/>
       <path id="DejaVuSans-20" transform="scale(0.015625)"/>
       <path id="DejaVuSans-64" d="M 2906 2969 
L 2906 4863 
L 3481 4863 
L 3481 0 
L 2906 0 
L 2906 525 
Q 2725 213 2448 61 
Q 2172 -91 1784 -91 
Q 1150 -91 751 415 
Q 353 922 353 1747 
Q 353 2572 751 3078 
Q 1150 3584 1784 3584 
Q 2172 3584 2448 3432 
Q 2725 3281 2906 2969 
z
M 947 1747 
Q 947 1113 1208 752 
Q 1469 391 1925 391 
Q 2381 391 2643 752 
Q 2906 1113 2906 1747 
Q 2906 2381 2643 2742 
Q 2381 3103 1925 3103 
Q 1469 3103 1208 2742 
Q 947 2381 947 1747 
z
" transform="scale(0.015625)"/>
       <path id="DejaVuSans-70" d="M 1159 525 
L 1159 -1331 
L 581 -1331 
L 581 3500 
L 1159 3500 
L 1159 2969 
Q 1341 3281 1617 3432 
Q 1894 3584 2278 3584 
Q 2916 3584 3314 3078 
Q 3713 2572 3713 1747 
Q 3713 922 3314 415 
Q 2916 -91 2278 -91 
Q 1894 -91 1617 61 
Q 1341 213 1159 525 
z
M 3116 1747 
Q 3116 2381 2855 2742 
Q 2594 3103 2138 3103 
Q 1681 3103 1420 2742 
Q 1159 2381 1159 1747 
Q 1159 1113 1420 752 
Q 1681 391 2138 391 
Q 2594 391 2855 752 
Q 3116 1113 3116 1747 
z
" transform="scale(0.015625)"/>
       <path id="DejaVuSans-63" d="M 3122 3366 
L 3122 2828 
Q 2878 2963 2633 3030 
Q 2388 3097 2138 3097 
Q 1578 3097 1268 2742 
Q 959 2388 959 1747 
Q 959 1106 1268 751 
Q 1578 397 2138 397 
Q 2388 397 2633 464 
Q 2878 531 3122 666 
L 3122 134 
Q 2881 22 2623 -34 
Q 2366 -91 2075 -91 
Q 1284 -91 818 406 
Q 353 903 353 1747 
Q 353 2603 823 3093 
Q 1294 3584 2113 3584 
Q 2378 3584 2631 3529 
Q 2884 3475 3122 3366 
z
" transform="scale(0.015625)"/>
       <path id="DejaVuSans-28" d="M 1984 4856 
Q 1566 4138 1362 3434 
Q 1159 2731 1159 2009 
Q 1159 1288 1364 580 
Q 1569 -128 1984 -844 
L 1484 -844 
Q 1016 -109 783 600 
Q 550 1309 550 2009 
Q 550 2706 781 3412 
Q 1013 4119 1484 4856 
L 1984 4856 
z
" transform="scale(0.015625)"/>
       <path id="DejaVuSans-29" d="M 513 4856 
L 1013 4856 
Q 1481 4119 1714 3412 
Q 1947 2706 1947 2009 
Q 1947 1309 1714 600 
Q 1481 -109 1013 -844 
L 513 -844 
Q 928 -128 1133 580 
Q 1338 1288 1338 2009 
Q 1338 2731 1133 3434 
Q 928 4138 513 4856 
z
" transform="scale(0.015625)"/>
      </defs>
      <use xlink:href="#DejaVuSans-46"/>
      <use xlink:href="#DejaVuSans-72" transform="translate(50.269531 0)"/>
      <use xlink:href="#DejaVuSans-61" transform="translate(91.382812 0)"/>
      <use xlink:href="#DejaVuSans-6d" transform="translate(152.662109 0)"/>
      <use xlink:href="#DejaVuSans-65" transform="translate(250.074219 0)"/>
      <use xlink:href="#DejaVuSans-77" transform="translate(311.597656 0)"/>
      <use xlink:href="#DejaVuSans-69" transform="translate(393.384766 0)"/>
      <use xlink:href="#DejaVuSans-73" transform="translate(421.167969 0)"/>
      <use xlink:href="#DejaVuSans-65" transform="translate(473.267578 0)"/>
      <use xlink:href="#DejaVuSans-20" transform="translate(534.791016 0)"/>
      <use xlink:href="#DejaVuSans-64" transform="translate(566.578125 0)"/>
      <use xlink:href="#DejaVuSans-69" transform="translate(630.054688 0)"/>
      <use xlink:href="#DejaVuSans-73" transform="translate(657.837891 0)"/>
      <use xlink:href="#DejaVuSans-70" transform="translate(709.9375 0)"/>
      <use xlink:href="#DejaVuSans-6c" transform="translate(773.414062 0)"/>
      <use xlink:href="#DejaVuSans-61" transform="translate(801.197266 0)"/>
      <use xlink:href="#DejaVuSans-63" transform="translate(862.476562 0)"/>
      <use xlink:href="#DejaVuSans-65" transform="translate(917.457031 0)"/>
      <use xlink:href="#DejaVuSans-6d" transform="translate(978.980469 0)"/>
      <use xlink:href="#DejaVuSans-65" transform="translate(1076.392578 0)"/>
      <use xlink:href="#DejaVuSans-6e" transform="translate(1137.916016 0)"/>
      <use xlink:href="#DejaVuSans-74" transform="translate(1201.294922 0)"/>
      <use xlink:href="#DejaVuSans-20" transform="translate(1240.503906 0)"/>
      <use xlink:href="#DejaVuSans-28" transform="translate(1272.291016 0)"/>
      <use xlink:href="#DejaVuSans-6d" transform="translate(1311.304688 0)"/>
      <use xlink:href="#DejaVuSans-6d" transform="translate(1408.716797 0)"/>
      <use xlink:href="#DejaVuSans-29" transform="translate(1506.128906 0)"/>
     </g>
    </g>
   </g>
   <g id="FillBetweenPolyCollection_1">
    <defs>
     <path id="mfe717752a0" d="M 134.425861 -68.159688 
L 132.683514 -68.159688 
L 132.050087 -73.250597 
L 131.079224 -78.341506 
L 129.670495 -83.432415 
L 127.734371 -88.523324 
L 125.211888 -93.614233 
L 122.092665 -98.705142 
L 118.42513 -103.796051 
L 114.314271 -108.88696 
L 109.906288 -113.977869 
L 105.364672 -119.068778 
L 100.846095 -124.159688 
L 96.484701 -129.250597 
L 92.389325 -134.341506 
L 88.651559 -139.432415 
L 85.356769 -144.523324 
L 82.588601 -149.614233 
L 80.421355 -154.705142 
L 78.902109 -159.796051 
L 78.03151 -164.88696 
L 77.754687 -169.977869 
L 77.970038 -175.068778 
L 78.555445 -180.159688 
L 79.403029 -185.250597 
L 80.449159 -190.341506 
L 81.688188 -195.432415 
L 83.165182 -200.523324 
L 84.951158 -205.614233 
L 87.110443 -210.705142 
L 89.671354 -215.796051 
L 92.608744 -220.88696 
L 95.841993 -225.977869 
L 99.247017 -231.068778 
L 102.677584 -236.159688 
L 105.989975 -241.250597 
L 109.065402 -246.341506 
L 111.825874 -251.432415 
L 114.240913 -256.523324 
L 116.324566 -261.614233 
L 118.124244 -266.705142 
L 119.704685 -271.796051 
L 121.13124 -276.88696 
L 122.456328 -281.977869 
L 123.711567 -287.068778 
L 124.906214 -292.159688 
L 126.030899 -297.250597 
L 127.064629 -302.341506 
L 127.982809 -307.432415 
L 128.764366 -312.523324 
L 129.396803 -317.614233 
L 129.878757 -322.705142 
L 130.220224 -327.796051 
L 130.44092 -332.88696 
L 130.567343 -337.977869 
L 130.629059 -343.068778 
L 130.654807 -348.159688 
L 130.669122 -353.250597 
L 130.690125 -358.341506 
L 130.728879 -363.432415 
L 130.790201 -368.523324 
L 130.874385 -373.614233 
L 130.979111 -378.705142 
L 131.100968 -383.796051 
L 131.236461 -388.88696 
L 131.382588 -393.977869 
L 131.537197 -399.068778 
L 131.699102 -404.159688 
L 131.867852 -409.250597 
L 132.043003 -414.341506 
L 132.223022 -419.432415 
L 132.404168 -424.523324 
L 132.579887 -429.614233 
L 132.741129 -434.705142 
L 132.877694 -439.796051 
L 132.980334 -444.88696 
L 133.043062 -449.977869 
L 133.064989 -455.068778 
L 133.051115 -460.159688 
L 133.011709 -465.250597 
L 132.960284 -470.341506 
L 132.910561 -475.432415 
L 132.87323 -480.523324 
L 132.853484 -485.614233 
L 132.850214 -490.705142 
L 132.857234 -495.796051 
L 132.866199 -500.88696 
L 132.870197 -505.977869 
L 132.866687 -511.068778 
L 132.858671 -516.159688 
L 132.85368 -521.250597 
L 132.861017 -526.341506 
L 132.888391 -531.432415 
L 132.939206 -536.523324 
L 133.011476 -541.614233 
L 133.098569 -546.705142 
L 133.191294 -551.796051 
L 133.280435 -556.88696 
L 133.358819 -561.977869 
L 133.422389 -567.068778 
L 133.470204 -572.159688 
L 133.639171 -572.159688 
L 133.639171 -572.159688 
L 133.686986 -567.068778 
L 133.750556 -561.977869 
L 133.82894 -556.88696 
L 133.918081 -551.796051 
L 134.010806 -546.705142 
L 134.097899 -541.614233 
L 134.170169 -536.523324 
L 134.220984 -531.432415 
L 134.248358 -526.341506 
L 134.255695 -521.250597 
L 134.250704 -516.159688 
L 134.242688 -511.068778 
L 134.239178 -505.977869 
L 134.243176 -500.88696 
L 134.252141 -495.796051 
L 134.259161 -490.705142 
L 134.255891 -485.614233 
L 134.236145 -480.523324 
L 134.198814 -475.432415 
L 134.149091 -470.341506 
L 134.097666 -465.250597 
L 134.05826 -460.159688 
L 134.044386 -455.068778 
L 134.066313 -449.977869 
L 134.129041 -444.88696 
L 134.231681 -439.796051 
L 134.368246 -434.705142 
L 134.529488 -429.614233 
L 134.705207 -424.523324 
L 134.886353 -419.432415 
L 135.066372 -414.341506 
L 135.241523 -409.250597 
L 135.410273 -404.159688 
L 135.572178 -399.068778 
L 135.726787 -393.977869 
L 135.872914 -388.88696 
L 136.008407 -383.796051 
L 136.130264 -378.705142 
L 136.23499 -373.614233 
L 136.319174 -368.523324 
L 136.380496 -363.432415 
L 136.41925 -358.341506 
L 136.440253 -353.250597 
L 136.454568 -348.159688 
L 136.480316 -343.068778 
L 136.542032 -337.977869 
L 136.668455 -332.88696 
L 136.889151 -327.796051 
L 137.230618 -322.705142 
L 137.712572 -317.614233 
L 138.345009 -312.523324 
L 139.126566 -307.432415 
L 140.044746 -302.341506 
L 141.078476 -297.250597 
L 142.203161 -292.159688 
L 143.397808 -287.068778 
L 144.653047 -281.977869 
L 145.978135 -276.88696 
L 147.40469 -271.796051 
L 148.985131 -266.705142 
L 150.784809 -261.614233 
L 152.868462 -256.523324 
L 155.283501 -251.432415 
L 158.043973 -246.341506 
L 161.1194 -241.250597 
L 164.431791 -236.159688 
L 167.862358 -231.068778 
L 171.267382 -225.977869 
L 174.500631 -220.88696 
L 177.438021 -215.796051 
L 179.998932 -210.705142 
L 182.158217 -205.614233 
L 183.944193 -200.523324 
L 185.421187 -195.432415 
L 186.660216 -190.341506 
L 187.706346 -185.250597 
L 188.55393 -180.159688 
L 189.139337 -175.068778 
L 189.354688 -169.977869 
L 189.077865 -164.88696 
L 188.207266 -159.796051 
L 186.68802 -154.705142 
L 184.520774 -149.614233 
L 181.752606 -144.523324 
L 178.457816 -139.432415 
L 174.72005 -134.341506 
L 170.624674 -129.250597 
L 166.26328 -124.159688 
L 161.744703 -119.068778 
L 157.203087 -113.977869 
L 152.795104 -108.88696 
L 148.684245 -103.796051 
L 145.01671 -98.705142 
L 141.897487 -93.614233 
L 139.375004 -88.523324 
L 137.43888 -83.432415 
L 136.030151 -78.341506 
L 135.059288 -73.250597 
L 134.425861 -68.159688 
z
" style="stroke: #5d5d5d; stroke-width: 1.25"/>
    </defs>
    <g clip-path="url(#pe24ec8646f)">
     <use xlink:href="#mfe717752a0" x="0" y="604.559688" style="fill: #b1d6d9; stroke: #5d5d5d; stroke-width: 1.25"/>
    </g>
   </g>
   <g id="FillBetweenPolyCollection_2">
    <defs>
     <path id="meb52d7af36" d="M 274.996786 -106.502493 
L 271.112589 -106.502493 
L 270.65874 -109.149841 
L 270.124666 -111.797188 
L 269.502392 -114.444536 
L 268.784422 -117.091884 
L 267.963989 -119.739232 
L 267.035309 -122.38658 
L 265.993797 -125.033927 
L 264.836258 -127.681275 
L 263.561024 -130.328623 
L 262.168035 -132.975971 
L 260.658863 -135.623318 
L 259.036686 -138.270666 
L 257.306208 -140.918014 
L 255.473562 -143.565362 
L 253.546195 -146.21271 
L 251.532767 -148.860057 
L 249.443078 -151.507405 
L 247.288044 -154.154753 
L 245.079721 -156.802101 
L 242.831388 -159.449448 
L 240.557663 -162.096796 
L 238.274649 -164.744144 
L 236.000065 -167.391492 
L 233.753331 -170.03884 
L 231.555568 -172.686187 
L 229.42948 -175.333535 
L 227.399089 -177.980883 
L 225.489295 -180.628231 
L 223.725288 -183.275578 
L 222.13179 -185.922926 
L 220.7322 -188.570274 
L 219.547665 -191.217622 
L 218.596152 -193.86497 
L 217.891591 -196.512317 
L 217.443143 -199.159665 
L 217.254687 -201.807013 
L 217.324538 -204.454361 
L 217.645457 -207.101708 
L 218.20495 -209.749056 
L 218.985847 -212.396404 
L 219.96712 -215.043752 
L 221.124888 -217.691099 
L 222.433538 -220.338447 
L 223.866879 -222.985795 
L 225.399254 -225.633143 
L 227.006525 -228.280491 
L 228.666872 -230.927838 
L 230.36136 -233.575186 
L 232.074243 -236.222534 
L 233.792995 -238.869882 
L 235.508107 -241.517229 
L 237.212659 -244.164577 
L 238.901739 -246.811925 
L 240.571767 -249.459273 
L 242.219794 -252.106621 
L 243.842842 -254.753968 
L 245.437345 -257.401316 
L 246.998745 -260.048664 
L 248.521271 -262.696012 
L 249.997914 -265.343359 
L 251.420606 -267.990707 
L 252.780572 -270.638055 
L 254.068818 -273.285403 
L 255.276725 -275.932751 
L 256.396663 -278.580098 
L 257.422607 -281.227446 
L 258.350667 -283.874794 
L 259.179506 -286.522142 
L 259.910596 -289.169489 
L 260.548302 -291.816837 
L 261.099775 -294.464185 
L 261.574661 -297.111533 
L 261.98466 -299.758881 
L 262.342944 -302.406228 
L 262.663498 -305.053576 
L 262.960421 -307.700924 
L 263.247232 -310.348272 
L 263.53623 -312.995619 
L 263.83795 -315.642967 
L 264.160745 -318.290315 
L 264.510514 -320.937663 
L 264.89058 -323.585011 
L 265.30173 -326.232358 
L 265.74239 -328.879706 
L 266.208918 -331.527054 
L 266.695993 -334.174402 
L 267.197058 -336.821749 
L 267.70479 -339.469097 
L 268.211564 -342.116445 
L 268.709883 -344.763793 
L 269.192753 -347.41114 
L 269.653978 -350.058488 
L 270.088385 -352.705836 
L 270.491952 -355.353184 
L 270.861869 -358.000532 
L 271.19651 -360.647879 
L 271.495362 -363.295227 
L 271.758896 -365.942575 
L 271.988412 -368.589923 
L 274.120963 -368.589923 
L 274.120963 -368.589923 
L 274.350479 -365.942575 
L 274.614013 -363.295227 
L 274.912865 -360.647879 
L 275.247506 -358.000532 
L 275.617423 -355.353184 
L 276.02099 -352.705836 
L 276.455397 -350.058488 
L 276.916622 -347.41114 
L 277.399492 -344.763793 
L 277.897811 -342.116445 
L 278.404585 -339.469097 
L 278.912317 -336.821749 
L 279.413382 -334.174402 
L 279.900457 -331.527054 
L 280.366985 -328.879706 
L 280.807645 -326.232358 
L 281.218795 -323.585011 
L 281.598861 -320.937663 
L 281.94863 -318.290315 
L 282.271425 -315.642967 
L 282.573145 -312.995619 
L 282.862143 -310.348272 
L 283.148954 -307.700924 
L 283.445877 -305.053576 
L 283.766431 -302.406228 
L 284.124715 -299.758881 
L 284.534714 -297.111533 
L 285.0096 -294.464185 
L 285.561073 -291.816837 
L 286.198779 -289.169489 
L 286.929869 -286.522142 
L 287.758708 -283.874794 
L 288.686768 -281.227446 
L 289.712712 -278.580098 
L 290.83265 -275.932751 
L 292.040557 -273.285403 
L 293.328803 -270.638055 
L 294.688769 -267.990707 
L 296.111461 -265.343359 
L 297.588104 -262.696012 
L 299.11063 -260.048664 
L 300.67203 -257.401316 
L 302.266533 -254.753968 
L 303.889581 -252.106621 
L 305.537608 -249.459273 
L 307.207636 -246.811925 
L 308.896716 -244.164577 
L 310.601268 -241.517229 
L 312.31638 -238.869882 
L 314.035132 -236.222534 
L 315.748015 -233.575186 
L 317.442503 -230.927838 
L 319.10285 -228.280491 
L 320.710121 -225.633143 
L 322.242496 -222.985795 
L 323.675837 -220.338447 
L 324.984487 -217.691099 
L 326.142255 -215.043752 
L 327.123528 -212.396404 
L 327.904425 -209.749056 
L 328.463918 -207.101708 
L 328.784837 -204.454361 
L 328.854687 -201.807013 
L 328.666232 -199.159665 
L 328.217784 -196.512317 
L 327.513223 -193.86497 
L 326.56171 -191.217622 
L 325.377175 -188.570274 
L 323.977585 -185.922926 
L 322.384087 -183.275578 
L 320.62008 -180.628231 
L 318.710286 -177.980883 
L 316.679895 -175.333535 
L 314.553807 -172.686187 
L 312.356044 -170.03884 
L 310.10931 -167.391492 
L 307.834726 -164.744144 
L 305.551712 -162.096796 
L 303.277987 -159.449448 
L 301.029654 -156.802101 
L 298.821331 -154.154753 
L 296.666297 -151.507405 
L 294.576608 -148.860057 
L 292.56318 -146.21271 
L 290.635813 -143.565362 
L 288.803167 -140.918014 
L 287.072689 -138.270666 
L 285.450512 -135.623318 
L 283.94134 -132.975971 
L 282.548351 -130.328623 
L 281.273117 -127.681275 
L 280.115578 -125.033927 
L 279.074066 -122.38658 
L 278.145386 -119.739232 
L 277.324953 -117.091884 
L 276.606983 -114.444536 
L 275.984709 -111.797188 
L 275.450635 -109.149841 
L 274.996786 -106.502493 
z
" style="stroke: #5d5d5d; stroke-width: 1.25"/>
    </defs>
    <g clip-path="url(#pe24ec8646f)">
     <use xlink:href="#meb52d7af36" x="0" y="604.559688" style="fill: #da8e5c; stroke: #5d5d5d; stroke-width: 1.25"/>
    </g>
   </g>
   <g id="patch_3">
    <path d="M 63.804688 561.6 
L 63.804688 7.2 
" style="fill: none; stroke: #262626; stroke-width: 1.25; stroke-linejoin: miter; stroke-linecap: square"/>
   </g>
   <g id="patch_4">
    <path d="M 342.804688 561.6 
L 342.804688 7.2 
" style="fill: none; stroke: #262626; stroke-width: 1.25; stroke-linejoin: miter; stroke-linecap: square"/>
   </g>
   <g id="patch_5">
    <path d="M 63.804688 561.6 
L 342.804688 561.6 
" style="fill: none; stroke: #262626; stroke-width: 1.25; stroke-linejoin: miter; stroke-linecap: square"/>
   </g>
   <g id="patch_6">
    <path d="M 63.804688 7.2 
L 342.804688 7.2 
" style="fill: none; stroke: #262626; stroke-width: 1.25; stroke-linejoin: miter; stroke-linecap: square"/>
   </g>
   <g id="PathCollection_1">
    <defs>
     <path id="m375fd2e5fe" d="M 0 2.5 
C 0.663008 2.5 1.29895 2.236584 1.767767 1.767767 
C 2.236584 1.29895 2.5 0.663008 2.5 0 
C 2.5 -0.663008 2.236584 -1.29895 1.767767 -1.767767 
C 1.29895 -2.236584 0.663008 -2.5 0 -2.5 
C -0.663008 -2.5 -1.29895 -2.236584 -1.767767 -1.767767 
C -2.236584 -1.29895 -2.5 -0.663008 -2.5 0 
C -2.5 0.663008 -2.236584 1.29895 -1.767767 1.767767 
C -1.29895 2.236584 -0.663008 2.5 0 2.5 
z
"/>
    </defs>
    <g clip-path="url(#pe24ec8646f)">
     <use xlink:href="#m375fd2e5fe" x="121.084379" y="425.963077" style="fill-opacity: 0.3"/>
     <use xlink:href="#m375fd2e5fe" x="130.931996" y="332.105957" style="fill-opacity: 0.3"/>
     <use xlink:href="#m375fd2e5fe" x="146.063957" y="442.036827" style="fill-opacity: 0.3"/>
     <use xlink:href="#m375fd2e5fe" x="123.986122" y="437.082812" style="fill-opacity: 0.3"/>
     <use xlink:href="#m375fd2e5fe" x="142.474467" y="377.352359" style="fill-opacity: 0.3"/>
     <use xlink:href="#m375fd2e5fe" x="139.389265" y="347.555805" style="fill-opacity: 0.3"/>
     <use xlink:href="#m375fd2e5fe" x="120.570982" y="432.23747" style="fill-opacity: 0.3"/>
     <use xlink:href="#m375fd2e5fe" x="124.25226" y="424.42114" style="fill-opacity: 0.3"/>
     <use xlink:href="#m375fd2e5fe" x="143.372278" y="434.348561" style="fill-opacity: 0.3"/>
     <use xlink:href="#m375fd2e5fe" x="142.156975" y="396.661661" style="fill-opacity: 0.3"/>
     <use xlink:href="#m375fd2e5fe" x="142.037821" y="439.533295" style="fill-opacity: 0.3"/>
     <use xlink:href="#m375fd2e5fe" x="141.631522" y="468.417692" style="fill-opacity: 0.3"/>
     <use xlink:href="#m375fd2e5fe" x="126.307986" y="441.859504" style="fill-opacity: 0.3"/>
     <use xlink:href="#m375fd2e5fe" x="131.087632" y="443.268796" style="fill-opacity: 0.3"/>
     <use xlink:href="#m375fd2e5fe" x="128.871967" y="437.54659" style="fill-opacity: 0.3"/>
     <use xlink:href="#m375fd2e5fe" x="120.680783" y="456.266459" style="fill-opacity: 0.3"/>
     <use xlink:href="#m375fd2e5fe" x="136.0219" y="409.685198" style="fill-opacity: 0.3"/>
     <use xlink:href="#m375fd2e5fe" x="124.873041" y="394.641068" style="fill-opacity: 0.3"/>
     <use xlink:href="#m375fd2e5fe" x="132.637585" y="444.759509" style="fill-opacity: 0.3"/>
     <use xlink:href="#m375fd2e5fe" x="141.74521" y="399.521881" style="fill-opacity: 0.3"/>
     <use xlink:href="#m375fd2e5fe" x="122.701307" y="356.287136" style="fill-opacity: 0.3"/>
     <use xlink:href="#m375fd2e5fe" x="127.477021" y="408.173136" style="fill-opacity: 0.3"/>
     <use xlink:href="#m375fd2e5fe" x="129.654153" y="414.353675" style="fill-opacity: 0.3"/>
     <use xlink:href="#m375fd2e5fe" x="142.620193" y="409.121252" style="fill-opacity: 0.3"/>
     <use xlink:href="#m375fd2e5fe" x="134.580143" y="415.796156" style="fill-opacity: 0.3"/>
     <use xlink:href="#m375fd2e5fe" x="145.450735" y="390.310703" style="fill-opacity: 0.3"/>
     <use xlink:href="#m375fd2e5fe" x="136.872396" y="383.157671" style="fill-opacity: 0.3"/>
     <use xlink:href="#m375fd2e5fe" x="136.840288" y="381.476659" style="fill-opacity: 0.3"/>
     <use xlink:href="#m375fd2e5fe" x="139.577121" y="346.108514" style="fill-opacity: 0.3"/>
     <use xlink:href="#m375fd2e5fe" x="139.764018" y="335.852729" style="fill-opacity: 0.3"/>
     <use xlink:href="#m375fd2e5fe" x="138.149394" y="321.937408" style="fill-opacity: 0.3"/>
     <use xlink:href="#m375fd2e5fe" x="127.107263" y="382.210563" style="fill-opacity: 0.3"/>
     <use xlink:href="#m375fd2e5fe" x="136.114654" y="338.332916" style="fill-opacity: 0.3"/>
     <use xlink:href="#m375fd2e5fe" x="147.268051" y="335.199636" style="fill-opacity: 0.3"/>
     <use xlink:href="#m375fd2e5fe" x="128.501116" y="354.821788" style="fill-opacity: 0.3"/>
     <use xlink:href="#m375fd2e5fe" x="138.071729" y="370.07686" style="fill-opacity: 0.3"/>
     <use xlink:href="#m375fd2e5fe" x="121.29667" y="381.305915" style="fill-opacity: 0.3"/>
     <use xlink:href="#m375fd2e5fe" x="125.441872" y="409.8181" style="fill-opacity: 0.3"/>
     <use xlink:href="#m375fd2e5fe" x="122.853301" y="387.324526" style="fill-opacity: 0.3"/>
     <use xlink:href="#m375fd2e5fe" x="135.810896" y="400.644189" style="fill-opacity: 0.3"/>
     <use xlink:href="#m375fd2e5fe" x="123.553373" y="408.283083" style="fill-opacity: 0.3"/>
     <use xlink:href="#m375fd2e5fe" x="123.155208" y="425.465578" style="fill-opacity: 0.3"/>
     <use xlink:href="#m375fd2e5fe" x="140.777197" y="425.121214" style="fill-opacity: 0.3"/>
     <use xlink:href="#m375fd2e5fe" x="122.105415" y="403.967088" style="fill-opacity: 0.3"/>
     <use xlink:href="#m375fd2e5fe" x="125.963974" y="437.951161" style="fill-opacity: 0.3"/>
     <use xlink:href="#m375fd2e5fe" x="134.326311" y="411.258411" style="fill-opacity: 0.3"/>
     <use xlink:href="#m375fd2e5fe" x="136.765514" y="424.736548" style="fill-opacity: 0.3"/>
     <use xlink:href="#m375fd2e5fe" x="123.180995" y="432.860413" style="fill-opacity: 0.3"/>
     <use xlink:href="#m375fd2e5fe" x="126.646147" y="427.530625" style="fill-opacity: 0.3"/>
     <use xlink:href="#m375fd2e5fe" x="120.58002" y="410.939346" style="fill-opacity: 0.3"/>
     <use xlink:href="#m375fd2e5fe" x="138.535946" y="411.96616" style="fill-opacity: 0.3"/>
     <use xlink:href="#m375fd2e5fe" x="122.049846" y="437.319116" style="fill-opacity: 0.3"/>
     <use xlink:href="#m375fd2e5fe" x="141.481681" y="398.933388" style="fill-opacity: 0.3"/>
     <use xlink:href="#m375fd2e5fe" x="139.621379" y="392.997336" style="fill-opacity: 0.3"/>
     <use xlink:href="#m375fd2e5fe" x="141.66767" y="420.338295" style="fill-opacity: 0.3"/>
     <use xlink:href="#m375fd2e5fe" x="139.945221" y="447.56815" style="fill-opacity: 0.3"/>
     <use xlink:href="#m375fd2e5fe" x="126.083436" y="444.227499" style="fill-opacity: 0.3"/>
     <use xlink:href="#m375fd2e5fe" x="121.94909" y="440.531563" style="fill-opacity: 0.3"/>
     <use xlink:href="#m375fd2e5fe" x="135.291206" y="469.475981" style="fill-opacity: 0.3"/>
     <use xlink:href="#m375fd2e5fe" x="137.541054" y="469.643968" style="fill-opacity: 0.3"/>
     <use xlink:href="#m375fd2e5fe" x="126.25118" y="326.655914" style="fill-opacity: 0.3"/>
     <use xlink:href="#m375fd2e5fe" x="127.28608" y="323.153507" style="fill-opacity: 0.3"/>
     <use xlink:href="#m375fd2e5fe" x="130.5559" y="309.95135" style="fill-opacity: 0.3"/>
     <use xlink:href="#m375fd2e5fe" x="126.637847" y="220.916487" style="fill-opacity: 0.3"/>
     <use xlink:href="#m375fd2e5fe" x="137.981457" y="488.884212" style="fill-opacity: 0.3"/>
     <use xlink:href="#m375fd2e5fe" x="121.654769" y="491.811556" style="fill-opacity: 0.3"/>
     <use xlink:href="#m375fd2e5fe" x="133.258574" y="493.033507" style="fill-opacity: 0.3"/>
     <use xlink:href="#m375fd2e5fe" x="126.449763" y="489.008255" style="fill-opacity: 0.3"/>
     <use xlink:href="#m375fd2e5fe" x="132.446261" y="486.961186" style="fill-opacity: 0.3"/>
     <use xlink:href="#m375fd2e5fe" x="141.116039" y="482.595046" style="fill-opacity: 0.3"/>
     <use xlink:href="#m375fd2e5fe" x="134.641535" y="484.509454" style="fill-opacity: 0.3"/>
     <use xlink:href="#m375fd2e5fe" x="145.906963" y="481.606667" style="fill-opacity: 0.3"/>
     <use xlink:href="#m375fd2e5fe" x="125.56198" y="485.002603" style="fill-opacity: 0.3"/>
     <use xlink:href="#m375fd2e5fe" x="134.999835" y="374.004979" style="fill-opacity: 0.3"/>
     <use xlink:href="#m375fd2e5fe" x="127.270431" y="182.965363" style="fill-opacity: 0.3"/>
     <use xlink:href="#m375fd2e5fe" x="125.419836" y="122.042909" style="fill-opacity: 0.3"/>
     <use xlink:href="#m375fd2e5fe" x="141.149771" y="257.123135" style="fill-opacity: 0.3"/>
     <use xlink:href="#m375fd2e5fe" x="136.137304" y="244.662857" style="fill-opacity: 0.3"/>
     <use xlink:href="#m375fd2e5fe" x="133.662012" y="75.174692" style="fill-opacity: 0.3"/>
     <use xlink:href="#m375fd2e5fe" x="131.896093" y="287.161061" style="fill-opacity: 0.3"/>
     <use xlink:href="#m375fd2e5fe" x="125.068304" y="323.005724" style="fill-opacity: 0.3"/>
     <use xlink:href="#m375fd2e5fe" x="133.618691" y="309.993117" style="fill-opacity: 0.3"/>
     <use xlink:href="#m375fd2e5fe" x="141.389379" y="363.913452" style="fill-opacity: 0.3"/>
     <use xlink:href="#m375fd2e5fe" x="136.75681" y="364.167931" style="fill-opacity: 0.3"/>
     <use xlink:href="#m375fd2e5fe" x="121.588503" y="369.413036" style="fill-opacity: 0.3"/>
     <use xlink:href="#m375fd2e5fe" x="137.065842" y="373.938641" style="fill-opacity: 0.3"/>
     <use xlink:href="#m375fd2e5fe" x="137.571496" y="386.749152" style="fill-opacity: 0.3"/>
     <use xlink:href="#m375fd2e5fe" x="142.42042" y="367.249064" style="fill-opacity: 0.3"/>
     <use xlink:href="#m375fd2e5fe" x="121.427576" y="401.710685" style="fill-opacity: 0.3"/>
     <use xlink:href="#m375fd2e5fe" x="143.909012" y="388.03569" style="fill-opacity: 0.3"/>
     <use xlink:href="#m375fd2e5fe" x="128.831549" y="415.44552" style="fill-opacity: 0.3"/>
     <use xlink:href="#m375fd2e5fe" x="137.777332" y="413.70205" style="fill-opacity: 0.3"/>
     <use xlink:href="#m375fd2e5fe" x="135.370172" y="397.02334" style="fill-opacity: 0.3"/>
     <use xlink:href="#m375fd2e5fe" x="139.939782" y="365.953139" style="fill-opacity: 0.3"/>
     <use xlink:href="#m375fd2e5fe" x="134.990269" y="354.991539" style="fill-opacity: 0.3"/>
     <use xlink:href="#m375fd2e5fe" x="145.91855" y="385.946353" style="fill-opacity: 0.3"/>
     <use xlink:href="#m375fd2e5fe" x="139.293034" y="401.731438" style="fill-opacity: 0.3"/>
     <use xlink:href="#m375fd2e5fe" x="140.033419" y="393.684081" style="fill-opacity: 0.3"/>
     <use xlink:href="#m375fd2e5fe" x="125.066618" y="404.284301" style="fill-opacity: 0.3"/>
     <use xlink:href="#m375fd2e5fe" x="144.471118" y="397.398459" style="fill-opacity: 0.3"/>
     <use xlink:href="#m375fd2e5fe" x="121.958012" y="437.964709" style="fill-opacity: 0.3"/>
     <use xlink:href="#m375fd2e5fe" x="132.52143" y="397.935134" style="fill-opacity: 0.3"/>
     <use xlink:href="#m375fd2e5fe" x="142.587715" y="384.444324" style="fill-opacity: 0.3"/>
     <use xlink:href="#m375fd2e5fe" x="126.420442" y="462.811293" style="fill-opacity: 0.3"/>
     <use xlink:href="#m375fd2e5fe" x="127.565726" y="462.624748" style="fill-opacity: 0.3"/>
     <use xlink:href="#m375fd2e5fe" x="146.144762" y="480.784983" style="fill-opacity: 0.3"/>
     <use xlink:href="#m375fd2e5fe" x="131.575303" y="471.053928" style="fill-opacity: 0.3"/>
     <use xlink:href="#m375fd2e5fe" x="127.24313" y="462.491702" style="fill-opacity: 0.3"/>
     <use xlink:href="#m375fd2e5fe" x="135.707026" y="481.826387" style="fill-opacity: 0.3"/>
     <use xlink:href="#m375fd2e5fe" x="120.896721" y="380.915702" style="fill-opacity: 0.3"/>
     <use xlink:href="#m375fd2e5fe" x="123.93448" y="384.368566" style="fill-opacity: 0.3"/>
     <use xlink:href="#m375fd2e5fe" x="130.255009" y="370.000722" style="fill-opacity: 0.3"/>
     <use xlink:href="#m375fd2e5fe" x="126.00837" y="392.433407" style="fill-opacity: 0.3"/>
     <use xlink:href="#m375fd2e5fe" x="127.211042" y="408.677192" style="fill-opacity: 0.3"/>
     <use xlink:href="#m375fd2e5fe" x="139.337047" y="381.95976" style="fill-opacity: 0.3"/>
     <use xlink:href="#m375fd2e5fe" x="129.277711" y="409.011201" style="fill-opacity: 0.3"/>
     <use xlink:href="#m375fd2e5fe" x="134.73729" y="415.160745" style="fill-opacity: 0.3"/>
     <use xlink:href="#m375fd2e5fe" x="131.435436" y="426.801774" style="fill-opacity: 0.3"/>
     <use xlink:href="#m375fd2e5fe" x="124.697245" y="478.964553" style="fill-opacity: 0.3"/>
     <use xlink:href="#m375fd2e5fe" x="122.545972" y="477.404067" style="fill-opacity: 0.3"/>
     <use xlink:href="#m375fd2e5fe" x="123.9626" y="442.215169" style="fill-opacity: 0.3"/>
     <use xlink:href="#m375fd2e5fe" x="144.800827" y="479.164999" style="fill-opacity: 0.3"/>
     <use xlink:href="#m375fd2e5fe" x="144.790823" y="477.665936" style="fill-opacity: 0.3"/>
     <use xlink:href="#m375fd2e5fe" x="143.862169" y="479.800777" style="fill-opacity: 0.3"/>
     <use xlink:href="#m375fd2e5fe" x="140.355845" y="472.275706" style="fill-opacity: 0.3"/>
     <use xlink:href="#m375fd2e5fe" x="132.709012" y="478.261305" style="fill-opacity: 0.3"/>
     <use xlink:href="#m375fd2e5fe" x="131.460435" y="476.11299" style="fill-opacity: 0.3"/>
     <use xlink:href="#m375fd2e5fe" x="147.228359" y="464.68471" style="fill-opacity: 0.3"/>
     <use xlink:href="#m375fd2e5fe" x="128.222446" y="440.314503" style="fill-opacity: 0.3"/>
     <use xlink:href="#m375fd2e5fe" x="125.341768" y="463.583882" style="fill-opacity: 0.3"/>
     <use xlink:href="#m375fd2e5fe" x="139.047215" y="454.458087" style="fill-opacity: 0.3"/>
     <use xlink:href="#m375fd2e5fe" x="136.827876" y="458.413343" style="fill-opacity: 0.3"/>
     <use xlink:href="#m375fd2e5fe" x="125.058272" y="454.038332" style="fill-opacity: 0.3"/>
     <use xlink:href="#m375fd2e5fe" x="146.483549" y="493.625308" style="fill-opacity: 0.3"/>
     <use xlink:href="#m375fd2e5fe" x="130.418566" y="487.88303" style="fill-opacity: 0.3"/>
     <use xlink:href="#m375fd2e5fe" x="125.908465" y="483.57992" style="fill-opacity: 0.3"/>
     <use xlink:href="#m375fd2e5fe" x="141.417608" y="479.735525" style="fill-opacity: 0.3"/>
     <use xlink:href="#m375fd2e5fe" x="140.738891" y="487.380482" style="fill-opacity: 0.3"/>
     <use xlink:href="#m375fd2e5fe" x="142.032805" y="465.029117" style="fill-opacity: 0.3"/>
     <use xlink:href="#m375fd2e5fe" x="146.58057" y="469.723835" style="fill-opacity: 0.3"/>
     <use xlink:href="#m375fd2e5fe" x="133.70939" y="472.30598" style="fill-opacity: 0.3"/>
     <use xlink:href="#m375fd2e5fe" x="129.503126" y="442.025333" style="fill-opacity: 0.3"/>
     <use xlink:href="#m375fd2e5fe" x="142.710331" y="402.149513" style="fill-opacity: 0.3"/>
     <use xlink:href="#m375fd2e5fe" x="121.129486" y="343.336346" style="fill-opacity: 0.3"/>
     <use xlink:href="#m375fd2e5fe" x="120.861304" y="202.724303" style="fill-opacity: 0.3"/>
     <use xlink:href="#m375fd2e5fe" x="138.045665" y="427.102229" style="fill-opacity: 0.3"/>
     <use xlink:href="#m375fd2e5fe" x="146.464587" y="430.521029" style="fill-opacity: 0.3"/>
     <use xlink:href="#m375fd2e5fe" x="138.697974" y="369.822347" style="fill-opacity: 0.3"/>
     <use xlink:href="#m375fd2e5fe" x="122.405602" y="441.204805" style="fill-opacity: 0.3"/>
     <use xlink:href="#m375fd2e5fe" x="146.660259" y="396.181359" style="fill-opacity: 0.3"/>
     <use xlink:href="#m375fd2e5fe" x="139.220151" y="423.411766" style="fill-opacity: 0.3"/>
     <use xlink:href="#m375fd2e5fe" x="143.625917" y="447.968328" style="fill-opacity: 0.3"/>
     <use xlink:href="#m375fd2e5fe" x="141.381035" y="440.398406" style="fill-opacity: 0.3"/>
     <use xlink:href="#m375fd2e5fe" x="132.424568" y="433.274033" style="fill-opacity: 0.3"/>
     <use xlink:href="#m375fd2e5fe" x="124.15974" y="456.408784" style="fill-opacity: 0.3"/>
     <use xlink:href="#m375fd2e5fe" x="122.376847" y="389.999214" style="fill-opacity: 0.3"/>
     <use xlink:href="#m375fd2e5fe" x="127.746801" y="448.904897" style="fill-opacity: 0.3"/>
     <use xlink:href="#m375fd2e5fe" x="133.741052" y="310.121616" style="fill-opacity: 0.3"/>
     <use xlink:href="#m375fd2e5fe" x="132.116642" y="360.725953" style="fill-opacity: 0.3"/>
     <use xlink:href="#m375fd2e5fe" x="119.790034" y="307.127702" style="fill-opacity: 0.3"/>
     <use xlink:href="#m375fd2e5fe" x="119.936238" y="405.114465" style="fill-opacity: 0.3"/>
     <use xlink:href="#m375fd2e5fe" x="121.411973" y="423.222228" style="fill-opacity: 0.3"/>
     <use xlink:href="#m375fd2e5fe" x="139.427968" y="421.286414" style="fill-opacity: 0.3"/>
     <use xlink:href="#m375fd2e5fe" x="139.837085" y="453.084214" style="fill-opacity: 0.3"/>
     <use xlink:href="#m375fd2e5fe" x="129.868506" y="443.154853" style="fill-opacity: 0.3"/>
     <use xlink:href="#m375fd2e5fe" x="136.874268" y="379.315638" style="fill-opacity: 0.3"/>
     <use xlink:href="#m375fd2e5fe" x="140.04948" y="281.239871" style="fill-opacity: 0.3"/>
     <use xlink:href="#m375fd2e5fe" x="135.936029" y="373.702954" style="fill-opacity: 0.3"/>
     <use xlink:href="#m375fd2e5fe" x="121.734826" y="463.286865" style="fill-opacity: 0.3"/>
     <use xlink:href="#m375fd2e5fe" x="122.943169" y="449.747957" style="fill-opacity: 0.3"/>
     <use xlink:href="#m375fd2e5fe" x="131.868008" y="452.178972" style="fill-opacity: 0.3"/>
     <use xlink:href="#m375fd2e5fe" x="125.04131" y="452.349136" style="fill-opacity: 0.3"/>
     <use xlink:href="#m375fd2e5fe" x="120.983805" y="394.071026" style="fill-opacity: 0.3"/>
     <use xlink:href="#m375fd2e5fe" x="133.832799" y="394.769819" style="fill-opacity: 0.3"/>
     <use xlink:href="#m375fd2e5fe" x="124.309333" y="367.912127" style="fill-opacity: 0.3"/>
     <use xlink:href="#m375fd2e5fe" x="130.698254" y="332.629457" style="fill-opacity: 0.3"/>
     <use xlink:href="#m375fd2e5fe" x="128.692119" y="436.766019" style="fill-opacity: 0.3"/>
     <use xlink:href="#m375fd2e5fe" x="139.295876" y="396.325868" style="fill-opacity: 0.3"/>
     <use xlink:href="#m375fd2e5fe" x="128.357074" y="373.188041" style="fill-opacity: 0.3"/>
     <use xlink:href="#m375fd2e5fe" x="140.697347" y="434.92105" style="fill-opacity: 0.3"/>
     <use xlink:href="#m375fd2e5fe" x="136.991622" y="466.333332" style="fill-opacity: 0.3"/>
     <use xlink:href="#m375fd2e5fe" x="123.374449" y="422.067767" style="fill-opacity: 0.3"/>
     <use xlink:href="#m375fd2e5fe" x="133.436938" y="418.93671" style="fill-opacity: 0.3"/>
     <use xlink:href="#m375fd2e5fe" x="120.33683" y="391.273489" style="fill-opacity: 0.3"/>
     <use xlink:href="#m375fd2e5fe" x="121.24516" y="443.680052" style="fill-opacity: 0.3"/>
     <use xlink:href="#m375fd2e5fe" x="138.011424" y="451.308147" style="fill-opacity: 0.3"/>
     <use xlink:href="#m375fd2e5fe" x="138.222168" y="445.528852" style="fill-opacity: 0.3"/>
     <use xlink:href="#m375fd2e5fe" x="122.567653" y="444.691811" style="fill-opacity: 0.3"/>
     <use xlink:href="#m375fd2e5fe" x="140.325814" y="390.414648" style="fill-opacity: 0.3"/>
     <use xlink:href="#m375fd2e5fe" x="140.999354" y="442.605906" style="fill-opacity: 0.3"/>
     <use xlink:href="#m375fd2e5fe" x="138.382697" y="462.420636" style="fill-opacity: 0.3"/>
     <use xlink:href="#m375fd2e5fe" x="127.079463" y="435.141556" style="fill-opacity: 0.3"/>
     <use xlink:href="#m375fd2e5fe" x="121.105659" y="430.99096" style="fill-opacity: 0.3"/>
     <use xlink:href="#m375fd2e5fe" x="144.377762" y="471.367736" style="fill-opacity: 0.3"/>
     <use xlink:href="#m375fd2e5fe" x="130.018672" y="416.046458" style="fill-opacity: 0.3"/>
     <use xlink:href="#m375fd2e5fe" x="124.406919" y="407.808826" style="fill-opacity: 0.3"/>
     <use xlink:href="#m375fd2e5fe" x="140.769846" y="442.476223" style="fill-opacity: 0.3"/>
     <use xlink:href="#m375fd2e5fe" x="135.932552" y="413.186704" style="fill-opacity: 0.3"/>
     <use xlink:href="#m375fd2e5fe" x="141.03142" y="468.481643" style="fill-opacity: 0.3"/>
     <use xlink:href="#m375fd2e5fe" x="121.851196" y="454.006426" style="fill-opacity: 0.3"/>
     <use xlink:href="#m375fd2e5fe" x="137.237607" y="452.987336" style="fill-opacity: 0.3"/>
     <use xlink:href="#m375fd2e5fe" x="133.310563" y="426.84109" style="fill-opacity: 0.3"/>
     <use xlink:href="#m375fd2e5fe" x="134.432398" y="432.469353" style="fill-opacity: 0.3"/>
     <use xlink:href="#m375fd2e5fe" x="133.934205" y="397.425866" style="fill-opacity: 0.3"/>
     <use xlink:href="#m375fd2e5fe" x="120.258819" y="440.592562" style="fill-opacity: 0.3"/>
     <use xlink:href="#m375fd2e5fe" x="146.131715" y="423.834304" style="fill-opacity: 0.3"/>
     <use xlink:href="#m375fd2e5fe" x="137.151521" y="341.792486" style="fill-opacity: 0.3"/>
     <use xlink:href="#m375fd2e5fe" x="131.932936" y="444.452936" style="fill-opacity: 0.3"/>
     <use xlink:href="#m375fd2e5fe" x="145.966924" y="459.439311" style="fill-opacity: 0.3"/>
     <use xlink:href="#m375fd2e5fe" x="121.739138" y="411.436754" style="fill-opacity: 0.3"/>
     <use xlink:href="#m375fd2e5fe" x="129.809558" y="402.165212" style="fill-opacity: 0.3"/>
     <use xlink:href="#m375fd2e5fe" x="127.172277" y="344.081207" style="fill-opacity: 0.3"/>
     <use xlink:href="#m375fd2e5fe" x="129.464678" y="255.097633" style="fill-opacity: 0.3"/>
     <use xlink:href="#m375fd2e5fe" x="128.878938" y="227.585812" style="fill-opacity: 0.3"/>
     <use xlink:href="#m375fd2e5fe" x="133.412872" y="393.961018" style="fill-opacity: 0.3"/>
     <use xlink:href="#m375fd2e5fe" x="122.881247" y="444.763389" style="fill-opacity: 0.3"/>
     <use xlink:href="#m375fd2e5fe" x="129.973548" y="446.960054" style="fill-opacity: 0.3"/>
     <use xlink:href="#m375fd2e5fe" x="140.013677" y="450.408822" style="fill-opacity: 0.3"/>
     <use xlink:href="#m375fd2e5fe" x="128.310142" y="408.470417" style="fill-opacity: 0.3"/>
     <use xlink:href="#m375fd2e5fe" x="140.05469" y="376.628353" style="fill-opacity: 0.3"/>
     <use xlink:href="#m375fd2e5fe" x="128.792143" y="452.07611" style="fill-opacity: 0.3"/>
     <use xlink:href="#m375fd2e5fe" x="119.835058" y="441.881821" style="fill-opacity: 0.3"/>
     <use xlink:href="#m375fd2e5fe" x="146.778944" y="458.706885" style="fill-opacity: 0.3"/>
     <use xlink:href="#m375fd2e5fe" x="134.208987" y="388.834362" style="fill-opacity: 0.3"/>
     <use xlink:href="#m375fd2e5fe" x="133.280341" y="363.949513" style="fill-opacity: 0.3"/>
    </g>
   </g>
   <g id="PathCollection_2">
    <g clip-path="url(#pe24ec8646f)">
     <use xlink:href="#m375fd2e5fe" x="269.204537" y="289.071248" style="fill-opacity: 0.3"/>
     <use xlink:href="#m375fd2e5fe" x="266.863049" y="387.116119" style="fill-opacity: 0.3"/>
     <use xlink:href="#m375fd2e5fe" x="273.750349" y="372.053858" style="fill-opacity: 0.3"/>
     <use xlink:href="#m375fd2e5fe" x="265.873074" y="352.294895" style="fill-opacity: 0.3"/>
     <use xlink:href="#m375fd2e5fe" x="279.679059" y="440.531101" style="fill-opacity: 0.3"/>
     <use xlink:href="#m375fd2e5fe" x="281.300822" y="413.267465" style="fill-opacity: 0.3"/>
     <use xlink:href="#m375fd2e5fe" x="260.738058" y="404.458883" style="fill-opacity: 0.3"/>
     <use xlink:href="#m375fd2e5fe" x="282.804594" y="412.190796" style="fill-opacity: 0.3"/>
     <use xlink:href="#m375fd2e5fe" x="281.985471" y="396.929158" style="fill-opacity: 0.3"/>
     <use xlink:href="#m375fd2e5fe" x="261.449882" y="444.955711" style="fill-opacity: 0.3"/>
     <use xlink:href="#m375fd2e5fe" x="274.530301" y="403.201364" style="fill-opacity: 0.3"/>
     <use xlink:href="#m375fd2e5fe" x="273.693587" y="345.24038" style="fill-opacity: 0.3"/>
    </g>
   </g>
  </g>
 </g>
 <defs>
  <clipPath id="pe24ec8646f">
   <rect x="63.804688" y="7.2" width="279" height="554.4"/>
  </clipPath>
 </defs>
</svg>
