<?xml version="1.0" encoding="utf-8" standalone="no"?>
<!DOCTYPE svg PUBLIC "-//W3C//DTD SVG 1.1//EN"
  "http://www.w3.org/Graphics/SVG/1.1/DTD/svg11.dtd">
<svg xmlns:xlink="http://www.w3.org/1999/xlink" width="437.453594pt" height="390.899687pt" viewBox="0 0 437.453594 390.899687" xmlns="http://www.w3.org/2000/svg" version="1.1">
 <metadata>
  <rdf:RDF xmlns:dc="http://purl.org/dc/elements/1.1/" xmlns:cc="http://creativecommons.org/ns#" xmlns:rdf="http://www.w3.org/1999/02/22-rdf-syntax-ns#">
   <cc:Work>
    <dc:type rdf:resource="http://purl.org/dc/dcmitype/StillImage"/>
    <dc:date>2025-11-17T16:31:56.563120</dc:date>
    <dc:format>image/svg+xml</dc:format>
    <dc:creator>
     <cc:Agent>
      <dc:title>Matplotlib v3.10.5, https://matplotlib.org/</dc:title>
     </cc:Agent>
    </dc:creator>
   </cc:Work>
  </rdf:RDF>
 </metadata>
 <defs>
  <style type="text/css">*{stroke-linejoin: round; stroke-linecap: butt}</style>
 </defs>
 <g id="figure_1">
  <g id="patch_1">
   <path d="M 0 390.899687 
L 437.453594 390.899687 
L 437.453594 0 
L 0 0 
z
" style="fill: #ffffff"/>
  </g>
  <g id="axes_1">
   <g id="patch_2">
    <path d="M 66.023594 347.94 
L 367.814165 347.94 
L 367.814165 65.612571 
L 66.023594 65.612571 
z
" style="fill: #ffffff"/>
   </g>
   <g id="matplotlib.axis_1">
    <g id="xtick_1">
     <g id="text_1">
      <!-- −1.00 -->
      <g style="fill: #262626" transform="translate(49.168672 365.798281) scale(0.11 -0.11)">
       <defs>
        <path id="DejaVuSans-2212" d="M 678 2272 
L 4684 2272 
L 4684 1741 
L 678 1741 
L 678 2272 
z
" transform="scale(0.015625)"/>
        <path id="DejaVuSans-31" d="M 794 531 
L 1825 531 
L 1825 4091 
L 703 3866 
L 703 4441 
L 1819 4666 
L 2450 4666 
L 2450 531 
L 3481 531 
L 3481 0 
L 794 0 
L 794 531 
z
" transform="scale(0.015625)"/>
        <path id="DejaVuSans-2e" d="M 684 794 
L 1344 794 
L 1344 0 
L 684 0 
L 684 794 
z
" transform="scale(0.015625)"/>
        <path id="DejaVuSans-30" d="M 2034 4250 
Q 1547 4250 1301 3770 
Q 1056 3291 1056 2328 
Q 1056 1369 1301 889 
Q 1547 409 2034 409 
Q 2525 409 2770 889 
Q 3016 1369 3016 2328 
Q 3016 3291 2770 3770 
Q 2525 4250 2034 4250 
z
M 2034 4750 
Q 2819 4750 3233 4129 
Q 3647 3509 3647 2328 
Q 3647 1150 3233 529 
Q 2819 -91 2034 -91 
Q 1250 -91 836 529 
Q 422 1150 422 2328 
Q 422 3509 836 4129 
Q 1250 4750 2034 4750 
z
" transform="scale(0.015625)"/>
       </defs>
       <use xlink:href="#DejaVuSans-2212"/>
       <use xlink:href="#DejaVuSans-31" transform="translate(83.789062 0)"/>
       <use xlink:href="#DejaVuSans-2e" transform="translate(147.412109 0)"/>
       <use xlink:href="#DejaVuSans-30" transform="translate(179.199219 0)"/>
       <use xlink:href="#DejaVuSans-30" transform="translate(242.822266 0)"/>
      </g>
     </g>
    </g>
    <g id="xtick_2">
     <g id="text_2">
      <!-- −0.75 -->
      <g style="fill: #262626" transform="translate(86.892493 365.798281) scale(0.11 -0.11)">
       <defs>
        <path id="DejaVuSans-37" d="M 525 4666 
L 3525 4666 
L 3525 4397 
L 1831 0 
L 1172 0 
L 2766 4134 
L 525 4134 
L 525 4666 
z
" transform="scale(0.015625)"/>
        <path id="DejaVuSans-35" d="M 691 4666 
L 3169 4666 
L 3169 4134 
L 1269 4134 
L 1269 2991 
Q 1406 3038 1543 3061 
Q 1681 3084 1819 3084 
Q 2600 3084 3056 2656 
Q 3513 2228 3513 1497 
Q 3513 744 3044 326 
Q 2575 -91 1722 -91 
Q 1428 -91 1123 -41 
Q 819 9 494 109 
L 494 744 
Q 775 591 1075 516 
Q 1375 441 1709 441 
Q 2250 441 2565 725 
Q 2881 1009 2881 1497 
Q 2881 1984 2565 2268 
Q 2250 2553 1709 2553 
Q 1456 2553 1204 2497 
Q 953 2441 691 2322 
L 691 4666 
z
" transform="scale(0.015625)"/>
       </defs>
       <use xlink:href="#DejaVuSans-2212"/>
       <use xlink:href="#DejaVuSans-30" transform="translate(83.789062 0)"/>
       <use xlink:href="#DejaVuSans-2e" transform="translate(147.412109 0)"/>
       <use xlink:href="#DejaVuSans-37" transform="translate(179.199219 0)"/>
       <use xlink:href="#DejaVuSans-35" transform="translate(242.822266 0)"/>
      </g>
     </g>
    </g>
    <g id="xtick_3">
     <g id="text_3">
      <!-- −0.50 -->
      <g style="fill: #262626" transform="translate(124.616315 365.798281) scale(0.11 -0.11)">
       <use xlink:href="#DejaVuSans-2212"/>
       <use xlink:href="#DejaVuSans-30" transform="translate(83.789062 0)"/>
       <use xlink:href="#DejaVuSans-2e" transform="translate(147.412109 0)"/>
       <use xlink:href="#DejaVuSans-35" transform="translate(179.199219 0)"/>
       <use xlink:href="#DejaVuSans-30" transform="translate(242.822266 0)"/>
      </g>
     </g>
    </g>
    <g id="xtick_4">
     <g id="text_4">
      <!-- −0.25 -->
      <g style="fill: #262626" transform="translate(162.340136 365.798281) scale(0.11 -0.11)">
       <defs>
        <path id="DejaVuSans-32" d="M 1228 531 
L 3431 531 
L 3431 0 
L 469 0 
L 469 531 
Q 828 903 1448 1529 
Q 2069 2156 2228 2338 
Q 2531 2678 2651 2914 
Q 2772 3150 2772 3378 
Q 2772 3750 2511 3984 
Q 2250 4219 1831 4219 
Q 1534 4219 1204 4116 
Q 875 4013 500 3803 
L 500 4441 
Q 881 4594 1212 4672 
Q 1544 4750 1819 4750 
Q 2544 4750 2975 4387 
Q 3406 4025 3406 3419 
Q 3406 3131 3298 2873 
Q 3191 2616 2906 2266 
Q 2828 2175 2409 1742 
Q 1991 1309 1228 531 
z
" transform="scale(0.015625)"/>
       </defs>
       <use xlink:href="#DejaVuSans-2212"/>
       <use xlink:href="#DejaVuSans-30" transform="translate(83.789062 0)"/>
       <use xlink:href="#DejaVuSans-2e" transform="translate(147.412109 0)"/>
       <use xlink:href="#DejaVuSans-32" transform="translate(179.199219 0)"/>
       <use xlink:href="#DejaVuSans-35" transform="translate(242.822266 0)"/>
      </g>
     </g>
    </g>
    <g id="xtick_5">
     <g id="text_5">
      <!-- 0.00 -->
      <g style="fill: #262626" transform="translate(204.672786 365.798281) scale(0.11 -0.11)">
       <use xlink:href="#DejaVuSans-30"/>
       <use xlink:href="#DejaVuSans-2e" transform="translate(63.623047 0)"/>
       <use xlink:href="#DejaVuSans-30" transform="translate(95.410156 0)"/>
       <use xlink:href="#DejaVuSans-30" transform="translate(159.033203 0)"/>
      </g>
     </g>
    </g>
    <g id="xtick_6">
     <g id="text_6">
      <!-- 0.25 -->
      <g style="fill: #262626" transform="translate(242.396607 365.798281) scale(0.11 -0.11)">
       <use xlink:href="#DejaVuSans-30"/>
       <use xlink:href="#DejaVuSans-2e" transform="translate(63.623047 0)"/>
       <use xlink:href="#DejaVuSans-32" transform="translate(95.410156 0)"/>
       <use xlink:href="#DejaVuSans-35" transform="translate(159.033203 0)"/>
      </g>
     </g>
    </g>
    <g id="xtick_7">
     <g id="text_7">
      <!-- 0.50 -->
      <g style="fill: #262626" transform="translate(280.120429 365.798281) scale(0.11 -0.11)">
       <use xlink:href="#DejaVuSans-30"/>
       <use xlink:href="#DejaVuSans-2e" transform="translate(63.623047 0)"/>
       <use xlink:href="#DejaVuSans-35" transform="translate(95.410156 0)"/>
       <use xlink:href="#DejaVuSans-30" transform="translate(159.033203 0)"/>
      </g>
     </g>
    </g>
    <g id="xtick_8">
     <g id="text_8">
      <!-- 0.75 -->
      <g style="fill: #262626" transform="translate(317.84425 365.798281) scale(0.11 -0.11)">
       <use xlink:href="#DejaVuSans-30"/>
       <use xlink:href="#DejaVuSans-2e" transform="translate(63.623047 0)"/>
       <use xlink:href="#DejaVuSans-37" transform="translate(95.410156 0)"/>
       <use xlink:href="#DejaVuSans-35" transform="translate(159.033203 0)"/>
      </g>
     </g>
    </g>
    <g id="xtick_9">
     <g id="text_9">
      <!-- 1.00 -->
      <g style="fill: #262626" transform="translate(355.568071 365.798281) scale(0.11 -0.11)">
       <use xlink:href="#DejaVuSans-31"/>
       <use xlink:href="#DejaVuSans-2e" transform="translate(63.623047 0)"/>
       <use xlink:href="#DejaVuSans-30" transform="translate(95.410156 0)"/>
       <use xlink:href="#DejaVuSans-30" transform="translate(159.033203 0)"/>
      </g>
     </g>
    </g>
    <g id="text_10">
     <!-- Specific ROI [r] -->
     <g style="fill: #262626" transform="translate(171.940442 381.204062) scale(0.12 -0.12)">
      <defs>
       <path id="DejaVuSans-53" d="M 3425 4513 
L 3425 3897 
Q 3066 4069 2747 4153 
Q 2428 4238 2131 4238 
Q 1616 4238 1336 4038 
Q 1056 3838 1056 3469 
Q 1056 3159 1242 3001 
Q 1428 2844 1947 2747 
L 2328 2669 
Q 3034 2534 3370 2195 
Q 3706 1856 3706 1288 
Q 3706 609 3251 259 
Q 2797 -91 1919 -91 
Q 1588 -91 1214 -16 
Q 841 59 441 206 
L 441 856 
Q 825 641 1194 531 
Q 1563 422 1919 422 
Q 2459 422 2753 634 
Q 3047 847 3047 1241 
Q 3047 1584 2836 1778 
Q 2625 1972 2144 2069 
L 1759 2144 
Q 1053 2284 737 2584 
Q 422 2884 422 3419 
Q 422 4038 858 4394 
Q 1294 4750 2059 4750 
Q 2388 4750 2728 4690 
Q 3069 4631 3425 4513 
z
" transform="scale(0.015625)"/>
       <path id="DejaVuSans-70" d="M 1159 525 
L 1159 -1331 
L 581 -1331 
L 581 3500 
L 1159 3500 
L 1159 2969 
Q 1341 3281 1617 3432 
Q 1894 3584 2278 3584 
Q 2916 3584 3314 3078 
Q 3713 2572 3713 1747 
Q 3713 922 3314 415 
Q 2916 -91 2278 -91 
Q 1894 -91 1617 61 
Q 1341 213 1159 525 
z
M 3116 1747 
Q 3116 2381 2855 2742 
Q 2594 3103 2138 3103 
Q 1681 3103 1420 2742 
Q 1159 2381 1159 1747 
Q 1159 1113 1420 752 
Q 1681 391 2138 391 
Q 2594 391 2855 752 
Q 3116 1113 3116 1747 
z
" transform="scale(0.015625)"/>
       <path id="DejaVuSans-65" d="M 3597 1894 
L 3597 1613 
L 953 1613 
Q 991 1019 1311 708 
Q 1631 397 2203 397 
Q 2534 397 2845 478 
Q 3156 559 3463 722 
L 3463 178 
Q 3153 47 2828 -22 
Q 2503 -91 2169 -91 
Q 1331 -91 842 396 
Q 353 884 353 1716 
Q 353 2575 817 3079 
Q 1281 3584 2069 3584 
Q 2775 3584 3186 3129 
Q 3597 2675 3597 1894 
z
M 3022 2063 
Q 3016 2534 2758 2815 
Q 2500 3097 2075 3097 
Q 1594 3097 1305 2825 
Q 1016 2553 972 2059 
L 3022 2063 
z
" transform="scale(0.015625)"/>
       <path id="DejaVuSans-63" d="M 3122 3366 
L 3122 2828 
Q 2878 2963 2633 3030 
Q 2388 3097 2138 3097 
Q 1578 3097 1268 2742 
Q 959 2388 959 1747 
Q 959 1106 1268 751 
Q 1578 397 2138 397 
Q 2388 397 2633 464 
Q 2878 531 3122 666 
L 3122 134 
Q 2881 22 2623 -34 
Q 2366 -91 2075 -91 
Q 1284 -91 818 406 
Q 353 903 353 1747 
Q 353 2603 823 3093 
Q 1294 3584 2113 3584 
Q 2378 3584 2631 3529 
Q 2884 3475 3122 3366 
z
" transform="scale(0.015625)"/>
       <path id="DejaVuSans-69" d="M 603 3500 
L 1178 3500 
L 1178 0 
L 603 0 
L 603 3500 
z
M 603 4863 
L 1178 4863 
L 1178 4134 
L 603 4134 
L 603 4863 
z
" transform="scale(0.015625)"/>
       <path id="DejaVuSans-66" d="M 2375 4863 
L 2375 4384 
L 1825 4384 
Q 1516 4384 1395 4259 
Q 1275 4134 1275 3809 
L 1275 3500 
L 2222 3500 
L 2222 3053 
L 1275 3053 
L 1275 0 
L 697 0 
L 697 3053 
L 147 3053 
L 147 3500 
L 697 3500 
L 697 3744 
Q 697 4328 969 4595 
Q 1241 4863 1831 4863 
L 2375 4863 
z
" transform="scale(0.015625)"/>
       <path id="DejaVuSans-20" transform="scale(0.015625)"/>
       <path id="DejaVuSans-52" d="M 2841 2188 
Q 3044 2119 3236 1894 
Q 3428 1669 3622 1275 
L 4263 0 
L 3584 0 
L 2988 1197 
Q 2756 1666 2539 1819 
Q 2322 1972 1947 1972 
L 1259 1972 
L 1259 0 
L 628 0 
L 628 4666 
L 2053 4666 
Q 2853 4666 3247 4331 
Q 3641 3997 3641 3322 
Q 3641 2881 3436 2590 
Q 3231 2300 2841 2188 
z
M 1259 4147 
L 1259 2491 
L 2053 2491 
Q 2509 2491 2742 2702 
Q 2975 2913 2975 3322 
Q 2975 3731 2742 3939 
Q 2509 4147 2053 4147 
L 1259 4147 
z
" transform="scale(0.015625)"/>
       <path id="DejaVuSans-4f" d="M 2522 4238 
Q 1834 4238 1429 3725 
Q 1025 3213 1025 2328 
Q 1025 1447 1429 934 
Q 1834 422 2522 422 
Q 3209 422 3611 934 
Q 4013 1447 4013 2328 
Q 4013 3213 3611 3725 
Q 3209 4238 2522 4238 
z
M 2522 4750 
Q 3503 4750 4090 4092 
Q 4678 3434 4678 2328 
Q 4678 1225 4090 567 
Q 3503 -91 2522 -91 
Q 1538 -91 948 565 
Q 359 1222 359 2328 
Q 359 3434 948 4092 
Q 1538 4750 2522 4750 
z
" transform="scale(0.015625)"/>
       <path id="DejaVuSans-49" d="M 628 4666 
L 1259 4666 
L 1259 0 
L 628 0 
L 628 4666 
z
" transform="scale(0.015625)"/>
       <path id="DejaVuSans-5b" d="M 550 4863 
L 1875 4863 
L 1875 4416 
L 1125 4416 
L 1125 -397 
L 1875 -397 
L 1875 -844 
L 550 -844 
L 550 4863 
z
" transform="scale(0.015625)"/>
       <path id="DejaVuSans-72" d="M 2631 2963 
Q 2534 3019 2420 3045 
Q 2306 3072 2169 3072 
Q 1681 3072 1420 2755 
Q 1159 2438 1159 1844 
L 1159 0 
L 581 0 
L 581 3500 
L 1159 3500 
L 1159 2956 
Q 1341 3275 1631 3429 
Q 1922 3584 2338 3584 
Q 2397 3584 2469 3576 
Q 2541 3569 2628 3553 
L 2631 2963 
z
" transform="scale(0.015625)"/>
       <path id="DejaVuSans-5d" d="M 1947 4863 
L 1947 -844 
L 622 -844 
L 622 -397 
L 1369 -397 
L 1369 4416 
L 622 4416 
L 622 4863 
L 1947 4863 
z
" transform="scale(0.015625)"/>
      </defs>
      <use xlink:href="#DejaVuSans-53"/>
      <use xlink:href="#DejaVuSans-70" transform="translate(63.476562 0)"/>
      <use xlink:href="#DejaVuSans-65" transform="translate(126.953125 0)"/>
      <use xlink:href="#DejaVuSans-63" transform="translate(188.476562 0)"/>
      <use xlink:href="#DejaVuSans-69" transform="translate(243.457031 0)"/>
      <use xlink:href="#DejaVuSans-66" transform="translate(271.240234 0)"/>
      <use xlink:href="#DejaVuSans-69" transform="translate(306.445312 0)"/>
      <use xlink:href="#DejaVuSans-63" transform="translate(334.228516 0)"/>
      <use xlink:href="#DejaVuSans-20" transform="translate(389.208984 0)"/>
      <use xlink:href="#DejaVuSans-52" transform="translate(420.996094 0)"/>
      <use xlink:href="#DejaVuSans-4f" transform="translate(490.478516 0)"/>
      <use xlink:href="#DejaVuSans-49" transform="translate(569.189453 0)"/>
      <use xlink:href="#DejaVuSans-20" transform="translate(598.681641 0)"/>
      <use xlink:href="#DejaVuSans-5b" transform="translate(630.46875 0)"/>
      <use xlink:href="#DejaVuSans-72" transform="translate(669.482422 0)"/>
      <use xlink:href="#DejaVuSans-5d" transform="translate(710.595703 0)"/>
     </g>
    </g>
   </g>
   <g id="matplotlib.axis_2">
    <g id="ytick_1">
     <g id="text_11">
      <!-- −1.00 -->
      <g style="fill: #262626" transform="translate(22.81375 352.119141) scale(0.11 -0.11)">
       <use xlink:href="#DejaVuSans-2212"/>
       <use xlink:href="#DejaVuSans-31" transform="translate(83.789062 0)"/>
       <use xlink:href="#DejaVuSans-2e" transform="translate(147.412109 0)"/>
       <use xlink:href="#DejaVuSans-30" transform="translate(179.199219 0)"/>
       <use xlink:href="#DejaVuSans-30" transform="translate(242.822266 0)"/>
      </g>
     </g>
    </g>
    <g id="ytick_2">
     <g id="text_12">
      <!-- −0.75 -->
      <g style="fill: #262626" transform="translate(22.81375 316.828212) scale(0.11 -0.11)">
       <use xlink:href="#DejaVuSans-2212"/>
       <use xlink:href="#DejaVuSans-30" transform="translate(83.789062 0)"/>
       <use xlink:href="#DejaVuSans-2e" transform="translate(147.412109 0)"/>
       <use xlink:href="#DejaVuSans-37" transform="translate(179.199219 0)"/>
       <use xlink:href="#DejaVuSans-35" transform="translate(242.822266 0)"/>
      </g>
     </g>
    </g>
    <g id="ytick_3">
     <g id="text_13">
      <!-- −0.50 -->
      <g style="fill: #262626" transform="translate(22.81375 281.537283) scale(0.11 -0.11)">
       <use xlink:href="#DejaVuSans-2212"/>
       <use xlink:href="#DejaVuSans-30" transform="translate(83.789062 0)"/>
       <use xlink:href="#DejaVuSans-2e" transform="translate(147.412109 0)"/>
       <use xlink:href="#DejaVuSans-35" transform="translate(179.199219 0)"/>
       <use xlink:href="#DejaVuSans-30" transform="translate(242.822266 0)"/>
      </g>
     </g>
    </g>
    <g id="ytick_4">
     <g id="text_14">
      <!-- −0.25 -->
      <g style="fill: #262626" transform="translate(22.81375 246.246355) scale(0.11 -0.11)">
       <use xlink:href="#DejaVuSans-2212"/>
       <use xlink:href="#DejaVuSans-30" transform="translate(83.789062 0)"/>
       <use xlink:href="#DejaVuSans-2e" transform="translate(147.412109 0)"/>
       <use xlink:href="#DejaVuSans-32" transform="translate(179.199219 0)"/>
       <use xlink:href="#DejaVuSans-35" transform="translate(242.822266 0)"/>
      </g>
     </g>
    </g>
    <g id="ytick_5">
     <g id="text_15">
      <!-- 0.00 -->
      <g style="fill: #262626" transform="translate(32.031406 210.955426) scale(0.11 -0.11)">
       <use xlink:href="#DejaVuSans-30"/>
       <use xlink:href="#DejaVuSans-2e" transform="translate(63.623047 0)"/>
       <use xlink:href="#DejaVuSans-30" transform="translate(95.410156 0)"/>
       <use xlink:href="#DejaVuSans-30" transform="translate(159.033203 0)"/>
      </g>
     </g>
    </g>
    <g id="ytick_6">
     <g id="text_16">
      <!-- 0.25 -->
      <g style="fill: #262626" transform="translate(32.031406 175.664498) scale(0.11 -0.11)">
       <use xlink:href="#DejaVuSans-30"/>
       <use xlink:href="#DejaVuSans-2e" transform="translate(63.623047 0)"/>
       <use xlink:href="#DejaVuSans-32" transform="translate(95.410156 0)"/>
       <use xlink:href="#DejaVuSans-35" transform="translate(159.033203 0)"/>
      </g>
     </g>
    </g>
    <g id="ytick_7">
     <g id="text_17">
      <!-- 0.50 -->
      <g style="fill: #262626" transform="translate(32.031406 140.373569) scale(0.11 -0.11)">
       <use xlink:href="#DejaVuSans-30"/>
       <use xlink:href="#DejaVuSans-2e" transform="translate(63.623047 0)"/>
       <use xlink:href="#DejaVuSans-35" transform="translate(95.410156 0)"/>
       <use xlink:href="#DejaVuSans-30" transform="translate(159.033203 0)"/>
      </g>
     </g>
    </g>
    <g id="ytick_8">
     <g id="text_18">
      <!-- 0.75 -->
      <g style="fill: #262626" transform="translate(32.031406 105.082641) scale(0.11 -0.11)">
       <use xlink:href="#DejaVuSans-30"/>
       <use xlink:href="#DejaVuSans-2e" transform="translate(63.623047 0)"/>
       <use xlink:href="#DejaVuSans-37" transform="translate(95.410156 0)"/>
       <use xlink:href="#DejaVuSans-35" transform="translate(159.033203 0)"/>
      </g>
     </g>
    </g>
    <g id="ytick_9">
     <g id="text_19">
      <!-- 1.00 -->
      <g style="fill: #262626" transform="translate(32.031406 69.791712) scale(0.11 -0.11)">
       <use xlink:href="#DejaVuSans-31"/>
       <use xlink:href="#DejaVuSans-2e" transform="translate(63.623047 0)"/>
       <use xlink:href="#DejaVuSans-30" transform="translate(95.410156 0)"/>
       <use xlink:href="#DejaVuSans-30" transform="translate(159.033203 0)"/>
      </g>
     </g>
    </g>
    <g id="text_20">
     <!-- Unspecific ROI [r] -->
     <g style="fill: #262626" transform="translate(16.318125 259.265036) rotate(-90) scale(0.12 -0.12)">
      <defs>
       <path id="DejaVuSans-55" d="M 556 4666 
L 1191 4666 
L 1191 1831 
Q 1191 1081 1462 751 
Q 1734 422 2344 422 
Q 2950 422 3222 751 
Q 3494 1081 3494 1831 
L 3494 4666 
L 4128 4666 
L 4128 1753 
Q 4128 841 3676 375 
Q 3225 -91 2344 -91 
Q 1459 -91 1007 375 
Q 556 841 556 1753 
L 556 4666 
z
" transform="scale(0.015625)"/>
       <path id="DejaVuSans-6e" d="M 3513 2113 
L 3513 0 
L 2938 0 
L 2938 2094 
Q 2938 2591 2744 2837 
Q 2550 3084 2163 3084 
Q 1697 3084 1428 2787 
Q 1159 2491 1159 1978 
L 1159 0 
L 581 0 
L 581 3500 
L 1159 3500 
L 1159 2956 
Q 1366 3272 1645 3428 
Q 1925 3584 2291 3584 
Q 2894 3584 3203 3211 
Q 3513 2838 3513 2113 
z
" transform="scale(0.015625)"/>
       <path id="DejaVuSans-73" d="M 2834 3397 
L 2834 2853 
Q 2591 2978 2328 3040 
Q 2066 3103 1784 3103 
Q 1356 3103 1142 2972 
Q 928 2841 928 2578 
Q 928 2378 1081 2264 
Q 1234 2150 1697 2047 
L 1894 2003 
Q 2506 1872 2764 1633 
Q 3022 1394 3022 966 
Q 3022 478 2636 193 
Q 2250 -91 1575 -91 
Q 1294 -91 989 -36 
Q 684 19 347 128 
L 347 722 
Q 666 556 975 473 
Q 1284 391 1588 391 
Q 1994 391 2212 530 
Q 2431 669 2431 922 
Q 2431 1156 2273 1281 
Q 2116 1406 1581 1522 
L 1381 1569 
Q 847 1681 609 1914 
Q 372 2147 372 2553 
Q 372 3047 722 3315 
Q 1072 3584 1716 3584 
Q 2034 3584 2315 3537 
Q 2597 3491 2834 3397 
z
" transform="scale(0.015625)"/>
      </defs>
      <use xlink:href="#DejaVuSans-55"/>
      <use xlink:href="#DejaVuSans-6e" transform="translate(73.193359 0)"/>
      <use xlink:href="#DejaVuSans-73" transform="translate(136.572266 0)"/>
      <use xlink:href="#DejaVuSans-70" transform="translate(188.671875 0)"/>
      <use xlink:href="#DejaVuSans-65" transform="translate(252.148438 0)"/>
      <use xlink:href="#DejaVuSans-63" transform="translate(313.671875 0)"/>
      <use xlink:href="#DejaVuSans-69" transform="translate(368.652344 0)"/>
      <use xlink:href="#DejaVuSans-66" transform="translate(396.435547 0)"/>
      <use xlink:href="#DejaVuSans-69" transform="translate(431.640625 0)"/>
      <use xlink:href="#DejaVuSans-63" transform="translate(459.423828 0)"/>
      <use xlink:href="#DejaVuSans-20" transform="translate(514.404297 0)"/>
      <use xlink:href="#DejaVuSans-52" transform="translate(546.191406 0)"/>
      <use xlink:href="#DejaVuSans-4f" transform="translate(615.673828 0)"/>
      <use xlink:href="#DejaVuSans-49" transform="translate(694.384766 0)"/>
      <use xlink:href="#DejaVuSans-20" transform="translate(723.876953 0)"/>
      <use xlink:href="#DejaVuSans-5b" transform="translate(755.664062 0)"/>
      <use xlink:href="#DejaVuSans-72" transform="translate(794.677734 0)"/>
      <use xlink:href="#DejaVuSans-5d" transform="translate(835.791016 0)"/>
     </g>
    </g>
   </g>
   <g id="QuadContourSet_1">
    <path d="M 224.837727 323.975961 
L 226.590453 324.561358 
L 228.343179 324.948303 
L 230.095905 325.105521 
L 231.848631 325.021313 
L 233.601357 324.695612 
L 235.354083 324.129563 
L 235.780788 323.936027 
L 237.106809 322.969576 
L 237.80081 322.296618 
L 238.406038 320.657209 
L 238.093438 319.0178 
L 237.13609 317.378391 
L 237.106809 317.345424 
L 235.58324 315.738982 
L 235.354083 315.540662 
L 233.601357 314.18497 
L 233.466955 314.099573 
L 231.848631 313.204654 
L 230.095905 312.469673 
L 230.056481 312.460164 
L 228.343179 312.07448 
L 226.590453 311.936061 
L 224.837727 312.062176 
L 223.160014 312.460164 
L 223.085001 312.483853 
L 221.332275 313.349824 
L 220.323656 314.099573 
L 219.579549 314.982728 
L 219.070001 315.738982 
L 218.649045 317.378391 
L 218.968372 319.0178 
L 219.579549 319.93793 
L 220.042061 320.657209 
L 221.332275 321.800267 
L 221.89453 322.296618 
L 223.085001 323.016998 
L 224.74264 323.936027 
L 224.837727 323.975961 
z
M 114.415989 307.614349 
L 116.168715 308.136453 
L 117.921441 308.58638 
L 119.674167 308.903599 
L 121.426893 308.995408 
L 123.179619 308.746966 
L 124.932345 308.049641 
L 125.697665 307.541937 
L 126.685071 306.972796 
L 128.05328 305.902528 
L 128.437797 305.629253 
L 130.03602 304.263119 
L 130.190523 304.136005 
L 131.825235 302.62371 
L 131.943249 302.510747 
L 133.420783 300.984301 
L 133.695975 300.66208 
L 134.769547 299.344892 
L 135.448701 298.276968 
L 135.805628 297.705483 
L 136.511761 296.066074 
L 136.889509 294.426665 
L 136.978262 292.787256 
L 136.79962 291.147847 
L 136.355404 289.508438 
L 135.627438 287.86903 
L 135.448701 287.575662 
L 134.548532 286.229621 
L 133.695975 285.243194 
L 133.041307 284.590212 
L 131.943249 283.655861 
L 130.952875 282.950803 
L 130.190523 282.449092 
L 128.437797 281.490419 
L 128.028381 281.311394 
L 126.685071 280.72433 
L 124.932345 280.144811 
L 123.179619 279.776331 
L 121.541844 279.671985 
L 121.426893 279.66441 
L 121.357046 279.671985 
L 119.674167 279.861616 
L 117.921441 280.412332 
L 116.222086 281.311394 
L 116.168715 281.33953 
L 114.415989 282.577416 
L 113.982771 282.950803 
L 112.663263 284.015218 
L 112.030548 284.590212 
L 110.910537 285.526344 
L 110.126651 286.229621 
L 109.157812 287.044008 
L 108.217691 287.86903 
L 107.405086 288.569745 
L 106.345547 289.508438 
L 105.65236 290.15516 
L 104.604416 291.147847 
L 103.899634 291.917429 
L 103.104732 292.787256 
L 102.146908 294.154755 
L 101.953515 294.426665 
L 101.199497 296.066074 
L 100.899207 297.705483 
L 101.06951 299.344892 
L 101.766807 300.984301 
L 102.146908 301.484958 
L 103.126968 302.62371 
L 103.899634 303.248025 
L 105.40848 304.263119 
L 105.65236 304.398358 
L 107.405086 305.236098 
L 109.075404 305.902528 
L 109.157812 305.934464 
L 110.910537 306.545135 
L 112.663263 307.098868 
L 114.200849 307.541937 
L 114.415989 307.614349 
z
M 212.568645 303.435326 
L 214.321371 303.733911 
L 216.074097 303.290504 
L 216.931686 302.62371 
L 217.826823 301.890057 
L 218.464628 300.984301 
L 219.491231 299.344892 
L 219.579549 299.195466 
L 220.236756 297.705483 
L 220.879517 296.066074 
L 221.332275 294.813055 
L 221.451658 294.426665 
L 221.95327 292.787256 
L 222.466977 291.147847 
L 223.048998 289.508438 
L 223.085001 289.425117 
L 223.756954 287.86903 
L 224.735066 286.229621 
L 224.837727 286.102472 
L 226.206546 284.590212 
L 226.590453 284.284944 
L 228.343179 283.098436 
L 228.597196 282.950803 
L 230.095905 282.265035 
L 231.848631 281.561439 
L 232.517964 281.311394 
L 233.601357 280.959964 
L 235.354083 280.402917 
L 237.106809 279.833195 
L 237.618422 279.671985 
L 238.859535 279.295088 
L 240.612261 278.769788 
L 242.364987 278.253503 
L 243.287265 278.032576 
L 244.117713 277.83335 
L 245.870439 277.596679 
L 247.623165 277.661281 
L 248.689196 278.032576 
L 249.375891 278.605044 
L 249.969044 279.671985 
L 250.264705 281.311394 
L 250.396674 282.950803 
L 250.605675 284.590212 
L 251.054968 286.229621 
L 251.128617 286.377552 
L 252.061718 287.86903 
L 252.881343 288.632156 
L 254.480346 289.508438 
L 254.634069 289.567411 
L 256.386795 289.863473 
L 258.139521 289.839735 
L 259.892247 289.606437 
L 260.360295 289.508438 
L 261.644973 289.240528 
L 263.397699 288.848927 
L 265.150425 288.499815 
L 266.903151 288.224406 
L 268.655877 288.030089 
L 270.408603 287.905015 
L 271.168214 287.86903 
L 272.161329 287.826076 
L 273.914055 287.760552 
L 275.666781 287.672843 
L 277.419507 287.529513 
L 279.172233 287.298207 
L 280.924959 286.947032 
L 282.677685 286.443857 
L 283.250811 286.229621 
L 284.430411 285.77334 
L 286.183137 284.911293 
L 286.741999 284.590212 
L 287.935863 283.840587 
L 289.21816 282.950803 
L 289.688589 282.583171 
L 291.321668 281.311394 
L 291.441315 281.204996 
L 293.194041 279.820584 
L 293.426715 279.671985 
L 294.946767 278.590826 
L 296.099194 278.032576 
L 296.699493 277.701204 
L 298.452219 277.202786 
L 300.204945 277.099802 
L 301.95767 277.258647 
L 303.710396 277.524299 
L 305.463122 277.7557 
L 307.215848 277.848036 
L 308.968574 277.737315 
L 310.7213 277.393443 
L 312.474026 276.81048 
L 313.383513 276.393167 
L 314.226752 275.918835 
L 315.950393 274.753758 
L 315.979478 274.726942 
L 317.62249 273.114349 
L 317.732204 272.94155 
L 318.708215 271.47494 
L 319.145073 269.835531 
L 318.782363 268.196122 
L 317.732204 266.891768 
L 317.429227 266.556713 
L 315.979478 265.506287 
L 315.031696 264.917304 
L 314.226752 264.457478 
L 312.474026 263.582198 
L 311.735968 263.277895 
L 310.7213 262.695274 
L 308.968574 261.748274 
L 308.741235 261.638486 
L 308.10252 259.999077 
L 308.968574 259.076313 
L 309.387099 258.359668 
L 310.7213 257.316684 
L 311.251633 256.720259 
L 312.474026 255.792196 
L 313.185746 255.08085 
L 314.226752 254.243564 
L 315.043884 253.441441 
L 315.979478 252.618628 
L 316.793059 251.802032 
L 317.732204 250.892563 
L 318.433669 250.162623 
L 319.48493 249.046614 
L 319.969062 248.523214 
L 321.237656 247.054885 
L 321.38972 246.883805 
L 322.711428 245.244396 
L 322.990382 244.837613 
L 323.89404 243.604987 
L 324.743108 242.109963 
L 324.832874 241.965578 
L 325.603693 240.326169 
L 326.096756 238.68676 
L 326.378985 237.047351 
L 326.495834 235.618548 
L 326.514489 235.407942 
L 326.561021 233.768533 
L 326.557251 232.129124 
L 326.543892 230.489715 
L 326.54164 228.850306 
L 326.552334 227.210897 
L 326.563603 225.571489 
L 326.555111 223.93208 
L 326.504114 222.292671 
L 326.495834 222.175452 
L 326.406398 220.653262 
L 326.242486 219.013853 
L 326.000395 217.374444 
L 325.673575 215.735035 
L 325.259998 214.095626 
L 324.76229 212.456217 
L 324.743108 212.397198 
L 324.283797 210.816808 
L 323.76106 209.177399 
L 323.197134 207.53799 
L 322.990382 206.946204 
L 322.654745 205.898581 
L 322.103422 204.259172 
L 321.488454 202.619763 
L 321.237656 202.004347 
L 320.837102 200.980354 
L 320.103516 199.340945 
L 319.48493 198.149171 
L 319.249269 197.701536 
L 318.30475 196.062127 
L 317.732204 195.149134 
L 317.247676 194.422718 
L 316.124472 192.783309 
L 315.979478 192.553021 
L 315.00549 191.1439 
L 314.226752 189.89306 
L 313.956687 189.504491 
L 313.095239 187.865082 
L 312.500606 186.225673 
L 312.474026 185.923355 
L 312.335345 184.586264 
L 312.474026 184.020326 
L 312.894913 182.946855 
L 314.226752 181.880665 
L 315.89569 181.307446 
L 315.979478 181.287656 
L 317.732204 181.013437 
L 319.48493 180.826297 
L 321.237656 180.637486 
L 322.990382 180.388162 
L 324.743108 180.029241 
L 325.962372 179.668037 
L 326.495834 179.494794 
L 328.24856 178.687159 
L 329.297655 178.028628 
L 330.001286 177.454885 
L 331.01893 176.389219 
L 331.754012 175.159411 
L 331.960928 174.74981 
L 332.295676 173.110401 
L 332.11994 171.470992 
L 331.754012 170.61238 
L 331.340902 169.831583 
L 330.001286 168.40479 
L 329.719862 168.192174 
L 328.24856 167.351669 
L 326.495834 166.736564 
L 325.398651 166.552765 
L 324.743108 166.449839 
L 322.990382 166.430472 
L 321.955736 166.552765 
L 321.237656 166.641716 
L 319.48493 167.058517 
L 317.732204 167.643066 
L 316.379277 168.192174 
L 315.979478 168.378943 
L 314.226752 169.266738 
L 313.13978 169.831583 
L 312.474026 170.259954 
L 310.7213 171.296692 
L 310.374407 171.470992 
L 308.968574 172.341665 
L 307.215848 173.033836 
L 306.725835 173.110401 
L 305.463122 173.32447 
L 303.921872 173.110401 
L 303.710396 173.086081 
L 301.95767 172.326048 
L 300.919833 171.470992 
L 300.204945 170.824331 
L 299.549038 169.831583 
L 298.747761 168.192174 
L 298.452219 167.231377 
L 298.311382 166.552765 
L 298.128644 164.913356 
L 298.064548 163.273948 
L 298.070566 161.634539 
L 298.110457 159.99513 
L 298.160124 158.355721 
L 298.204872 156.716312 
L 298.236176 155.076903 
L 298.248471 153.437494 
L 298.235628 151.798085 
L 298.186168 150.158676 
L 298.07519 148.519267 
L 297.848003 146.879858 
L 297.379531 145.240449 
L 296.699493 144.013753 
L 296.283192 143.60104 
L 294.946767 142.769559 
L 293.194041 142.286865 
L 291.487496 141.961631 
L 291.441315 141.953418 
L 289.688589 141.508968 
L 287.935863 140.950936 
L 286.330176 140.322222 
L 286.183137 140.255767 
L 284.430411 139.248185 
L 283.531399 138.682813 
L 282.677685 138.032091 
L 281.388988 137.043404 
L 280.924959 136.613612 
L 279.462164 135.403995 
L 279.172233 135.114662 
L 277.419507 133.778361 
L 277.389175 133.764586 
L 275.666781 132.71933 
L 273.914055 132.450075 
L 272.161329 132.908305 
L 270.714789 133.764586 
L 270.408603 133.874208 
L 268.655877 134.784232 
L 267.657896 135.403995 
L 266.903151 135.738725 
L 265.150425 136.626404 
L 264.397045 137.043404 
L 263.397699 137.492332 
L 261.644973 138.346691 
L 261.00069 138.682813 
L 259.892247 139.186825 
L 258.139521 140.027922 
L 257.548608 140.322222 
L 256.386795 140.829674 
L 254.634069 141.593787 
L 253.769121 141.961631 
L 252.881343 142.279728 
L 251.128617 142.858777 
L 249.375891 143.369313 
L 248.412181 143.60104 
L 247.623165 143.753175 
L 245.870439 143.991537 
L 244.117713 144.1048 
L 242.364987 144.064642 
L 240.612261 143.844461 
L 239.579947 143.60104 
L 238.859535 143.375828 
L 237.106809 142.588133 
L 235.978341 141.961631 
L 235.354083 141.508804 
L 233.847243 140.322222 
L 233.601357 140.073903 
L 232.192498 138.682813 
L 231.848631 138.252694 
L 230.761328 137.043404 
L 230.095905 136.075136 
L 229.526068 135.403995 
L 228.617701 133.764586 
L 228.343179 132.490214 
L 228.239575 132.125177 
L 228.343179 131.598964 
L 228.504268 130.485768 
L 229.268097 128.846359 
L 230.095905 127.689832 
L 230.373001 127.20695 
L 231.561652 125.567541 
L 231.848631 125.217206 
L 232.751548 123.928132 
L 233.601357 122.733627 
L 233.887434 122.288723 
L 234.90626 120.649314 
L 235.354083 119.848637 
L 235.801681 119.009905 
L 236.549952 117.370496 
L 237.106809 115.853601 
L 237.15226 115.731087 
L 237.626982 114.091678 
L 237.964219 112.452269 
L 238.179525 110.81286 
L 238.285245 109.173451 
L 238.289758 107.534042 
L 238.197134 105.894633 
L 238.007267 104.255224 
L 237.716611 102.615815 
L 237.319415 100.976407 
L 237.106809 100.276254 
L 236.792698 99.336998 
L 236.132513 97.697589 
L 235.354083 96.072402 
L 235.346358 96.05818 
L 234.344929 94.418771 
L 233.601357 93.354045 
L 233.126281 92.779362 
L 231.848631 91.420351 
L 231.508013 91.139953 
L 230.095905 90.12119 
L 228.783479 89.500544 
L 228.343179 89.316461 
L 226.590453 88.967748 
L 224.837727 89.000291 
L 223.085001 89.391845 
L 222.822032 89.500544 
L 221.332275 90.18853 
L 219.889484 91.139953 
L 219.579549 91.380275 
L 218.137484 92.779362 
L 217.826823 93.155491 
L 216.916324 94.418771 
L 216.074097 95.989737 
L 216.039788 96.05818 
L 215.45707 97.697589 
L 215.072275 99.336998 
L 214.806698 100.976407 
L 214.572611 102.615815 
L 214.321371 104.057787 
L 214.286999 104.255224 
L 213.875324 105.894633 
L 213.312551 107.534042 
L 212.597978 109.173451 
L 212.568645 109.229812 
L 211.690798 110.81286 
L 210.815919 112.248258 
L 210.680102 112.452269 
L 209.555354 114.091678 
L 209.063193 114.836805 
L 208.411026 115.731087 
L 207.318067 117.370496 
L 207.310467 117.384083 
L 206.296238 119.009905 
L 205.557741 120.373424 
L 205.391678 120.649314 
L 204.571024 122.288723 
L 203.805015 123.807053 
L 203.733282 123.928132 
L 202.728877 125.567541 
L 202.052289 126.329937 
L 201.013455 127.20695 
L 200.299563 127.631916 
L 198.546837 128.504714 
L 197.790843 128.846359 
L 196.794111 129.220576 
L 195.041385 129.852474 
L 193.288659 130.414123 
L 193.050258 130.485768 
L 191.535933 130.913488 
L 189.783207 131.314711 
L 188.030481 131.599107 
L 186.277755 131.753662 
L 184.525029 131.775115 
L 182.772303 131.674985 
L 181.019577 131.481198 
L 179.266851 131.235837 
L 177.514125 130.9905 
L 175.761399 130.802076 
L 174.008673 130.731402 
L 172.255947 130.84593 
L 170.503221 131.226082 
L 168.750495 131.973754 
L 168.512181 132.125177 
L 166.997769 133.08275 
L 166.17147 133.764586 
L 165.245043 134.556659 
L 164.360433 135.403995 
L 163.492317 136.27472 
L 162.723439 137.043404 
L 161.739591 138.053399 
L 161.059613 138.682813 
L 159.986865 139.664687 
L 159.116224 140.322222 
L 158.234139 140.958749 
L 156.481413 141.934101 
L 156.423692 141.961631 
L 154.728687 142.731311 
L 152.975961 143.388373 
L 152.367515 143.60104 
L 151.223235 144.002833 
L 149.470509 144.603404 
L 147.717783 145.216085 
L 147.650753 145.240449 
L 145.965057 145.940193 
L 144.212331 146.782418 
L 144.033244 146.879858 
L 142.459605 148.040497 
L 141.931741 148.519267 
L 140.86468 150.158676 
L 140.706879 150.739225 
L 140.45931 151.798085 
L 140.473776 153.437494 
L 140.706879 154.735019 
L 140.764441 155.076903 
L 141.240957 156.716312 
L 141.857919 158.355721 
L 142.459605 159.661097 
L 142.620534 159.99513 
L 143.590855 161.634539 
L 144.212331 162.473908 
L 144.940269 163.273948 
L 145.965057 164.162877 
L 147.235918 164.913356 
L 147.717783 165.148392 
L 149.470509 165.661158 
L 151.223235 165.842054 
L 152.975961 165.73559 
L 154.728687 165.344656 
L 155.82002 164.913356 
L 156.481413 164.616904 
L 158.234139 163.448744 
L 158.436448 163.273948 
L 159.94193 161.634539 
L 159.986865 161.571732 
L 160.976521 159.99513 
L 161.739591 158.421098 
L 161.770651 158.355721 
L 162.448629 156.716312 
L 163.099249 155.076903 
L 163.492317 154.162431 
L 163.857126 153.437494 
L 164.883913 151.798085 
L 165.245043 151.351893 
L 166.630066 150.158676 
L 166.997769 149.913297 
L 168.750495 149.155613 
L 170.503221 148.752634 
L 172.255947 148.586127 
L 174.008673 148.630607 
L 175.761399 148.939768 
L 177.514125 149.703005 
L 178.062157 150.158676 
L 179.046582 151.798085 
L 179.266851 153.404312 
L 179.269751 153.437494 
L 179.266851 153.467979 
L 179.105188 155.076903 
L 178.733837 156.716312 
L 178.244125 158.355721 
L 177.669735 159.99513 
L 177.514125 160.359988 
L 176.901041 161.634539 
L 176.016679 163.273948 
L 175.761399 163.676747 
L 174.891881 164.913356 
L 174.008673 166.07756 
L 173.617017 166.552765 
L 172.255947 168.159503 
L 172.226923 168.192174 
L 170.756318 169.831583 
L 170.503221 170.126479 
L 169.363171 171.470992 
L 168.750495 172.273751 
L 168.120618 173.110401 
L 167.049543 174.74981 
L 166.997769 174.832093 
L 166.007267 176.389219 
L 165.245043 177.803229 
L 165.118713 178.028628 
L 164.210791 179.668037 
L 163.492317 181.139607 
L 163.403877 181.307446 
L 162.531367 182.946855 
L 161.752807 184.586264 
L 161.739591 184.613603 
L 160.876792 186.225673 
L 160.090627 187.865082 
L 159.986865 188.082411 
L 159.223346 189.504491 
L 158.420623 191.1439 
L 158.234139 191.528636 
L 157.540609 192.783309 
L 156.686422 194.422718 
L 156.481413 194.810601 
L 155.720201 196.062127 
L 154.752976 197.701536 
L 154.728687 197.740497 
L 153.583443 199.340945 
L 152.975961 200.189019 
L 152.329128 200.980354 
L 151.223235 202.322543 
L 150.946822 202.619763 
L 149.470509 204.195336 
L 149.403754 204.259172 
L 147.717783 205.864291 
L 147.677855 205.898581 
L 145.965057 207.366173 
L 145.742716 207.53799 
L 144.212331 208.719005 
L 143.550235 209.177399 
L 142.459605 209.933537 
L 141.032537 210.816808 
L 140.706879 211.020574 
L 138.954153 211.97349 
L 137.967919 212.456217 
L 137.201427 212.840425 
L 135.448701 213.631955 
L 134.3462 214.095626 
L 133.695975 214.385931 
L 131.943249 215.116104 
L 130.428012 215.735035 
L 130.190523 215.843916 
L 128.437797 216.614228 
L 126.774043 217.374444 
L 126.685071 217.423946 
L 124.932345 218.424594 
L 124.005825 219.013853 
L 123.179619 219.748769 
L 122.286785 220.653262 
L 121.426893 222.182191 
L 121.372305 222.292671 
L 121.041746 223.93208 
L 121.107012 225.571489 
L 121.426893 227.130777 
L 121.442863 227.210897 
L 121.960387 228.850306 
L 122.577754 230.489715 
L 123.179619 231.969514 
L 123.246147 232.129124 
L 123.959526 233.768533 
L 124.676435 235.407942 
L 124.932345 236.007508 
L 125.428265 237.047351 
L 126.214884 238.68676 
L 126.685071 239.647906 
L 127.091859 240.326169 
L 128.187999 241.965578 
L 128.437797 242.289274 
L 129.921367 243.604987 
L 130.190523 243.792778 
L 131.943249 244.581074 
L 133.695975 245.0463 
L 134.626959 245.244396 
L 135.448701 245.387064 
L 137.201427 245.715257 
L 138.954153 246.072689 
L 140.706879 246.455509 
L 142.459605 246.844259 
L 142.627708 246.883805 
L 144.212331 247.245229 
L 145.965057 247.627691 
L 147.717783 247.982446 
L 149.470509 248.314091 
L 150.605244 248.523214 
L 151.223235 248.658504 
L 152.975961 249.07111 
L 154.728687 249.581808 
L 156.1761 250.162623 
L 156.481413 250.337016 
L 158.234139 251.740233 
L 158.291758 251.802032 
L 159.443149 253.441441 
L 159.986865 254.38644 
L 160.362134 255.08085 
L 161.295082 256.720259 
L 161.739591 257.415191 
L 162.433692 258.359668 
L 163.492317 259.557217 
L 164.00862 259.999077 
L 165.245043 260.915311 
L 166.772413 261.638486 
L 166.997769 261.738052 
L 168.750495 262.261252 
L 170.503221 262.600341 
L 172.255947 262.872693 
L 174.008673 263.157218 
L 174.602383 263.277895 
L 175.761399 263.528277 
L 177.514125 264.004034 
L 179.266851 264.563849 
L 180.26942 264.917304 
L 181.019577 265.198984 
L 182.772303 265.858103 
L 184.525029 266.441084 
L 184.943539 266.556713 
L 186.277755 266.939447 
L 188.030481 267.300429 
L 189.783207 267.519933 
L 191.535933 267.61999 
L 193.288659 267.630851 
L 195.041385 267.586214 
L 196.794111 267.520809 
L 198.546837 267.470535 
L 200.299563 267.475156 
L 202.052289 267.58336 
L 203.805015 267.859083 
L 204.964454 268.196122 
L 205.557741 268.530027 
L 206.940621 269.835531 
L 207.298105 271.47494 
L 206.967951 273.114349 
L 206.340065 274.753758 
L 205.617611 276.393167 
L 205.557741 276.528285 
L 204.938167 278.032576 
L 204.383792 279.671985 
L 203.984318 281.311394 
L 203.805015 282.606092 
L 203.759046 282.950803 
L 203.71359 284.590212 
L 203.805015 285.832958 
L 203.835545 286.229621 
L 204.111298 287.86903 
L 204.503533 289.508438 
L 204.973524 291.147847 
L 205.488177 292.787256 
L 205.557741 293.001717 
L 206.071802 294.426665 
L 206.690061 296.066074 
L 207.310467 297.59279 
L 207.367412 297.705483 
L 208.271138 299.344892 
L 209.063193 300.613826 
L 209.402456 300.984301 
L 210.815919 302.428035 
L 211.171751 302.62371 
L 212.568645 303.435326 
z
M 165.245043 301.141983 
L 166.997769 301.215594 
L 168.750495 301.11271 
L 169.556437 300.984301 
L 170.503221 300.797538 
L 172.255947 300.239466 
L 174.008673 299.475313 
L 174.233916 299.344892 
L 175.761399 298.124932 
L 176.1891 297.705483 
L 177.122434 296.066074 
L 177.21741 294.426665 
L 176.19594 292.787256 
L 175.761399 292.470645 
L 174.008673 291.775956 
L 172.255947 291.580419 
L 170.503221 291.749619 
L 168.750495 292.198431 
L 167.220292 292.787256 
L 166.997769 292.895901 
L 165.245043 293.932067 
L 164.485423 294.426665 
L 163.492317 295.303418 
L 162.628552 296.066074 
L 161.739591 297.37942 
L 161.506389 297.705483 
L 161.459039 299.344892 
L 161.739591 299.64393 
L 163.492317 300.768761 
L 164.214989 300.984301 
L 165.245043 301.141983 
z
M 75.856018 293.219173 
L 77.608744 293.364642 
L 79.36147 292.926689 
L 79.618291 292.787256 
L 81.114196 291.532025 
L 81.423059 291.147847 
L 81.96554 289.508438 
L 81.720511 287.86903 
L 81.114196 286.95182 
L 80.263711 286.229621 
L 79.36147 285.805733 
L 77.608744 285.661554 
L 75.856018 286.143101 
L 75.713672 286.229621 
L 74.103292 287.670242 
L 73.95368 287.86903 
L 73.384071 289.508438 
L 73.543203 291.147847 
L 74.103292 292.070036 
L 74.932461 292.787256 
L 75.856018 293.219173 
z
M 209.063193 134.472659 
L 208.28063 133.764586 
L 208.318306 132.125177 
L 209.063193 131.467144 
L 210.815919 131.077793 
L 212.568645 131.454732 
L 213.765882 132.125177 
L 213.862492 133.764586 
L 212.568645 134.531592 
L 210.815919 134.984828 
L 209.063193 134.472659 
z
M 270.408603 125.900145 
L 272.161329 126.713299 
L 273.914055 126.780601 
L 275.666781 125.654812 
L 275.725995 125.567541 
L 277.097138 123.928132 
L 277.419507 123.562015 
L 278.197887 122.288723 
L 279.172233 120.68891 
L 279.192226 120.649314 
L 280.052109 119.009905 
L 280.858505 117.370496 
L 280.924959 117.218032 
L 281.557595 115.731087 
L 282.131962 114.091678 
L 282.517445 112.452269 
L 282.569786 110.81286 
L 281.959411 109.173451 
L 280.924959 108.232529 
L 279.246645 107.534042 
L 279.172233 107.515037 
L 277.419507 107.362061 
L 275.666781 107.460918 
L 275.254427 107.534042 
L 273.914055 107.778133 
L 272.161329 108.282763 
L 270.408603 108.972888 
L 270.021318 109.173451 
L 268.655877 109.968398 
L 267.508774 110.81286 
L 266.903151 111.365345 
L 265.923887 112.452269 
L 265.150425 113.672874 
L 264.919277 114.091678 
L 264.408544 115.731087 
L 264.290017 117.370496 
L 264.551977 119.009905 
L 265.150425 120.584802 
L 265.18109 120.649314 
L 266.291762 122.288723 
L 266.903151 123.055865 
L 267.859248 123.928132 
L 268.655877 124.696448 
L 270.019911 125.567541 
L 270.408603 125.900145 
z
M 163.492317 119.456179 
L 165.245043 119.706586 
L 166.997769 119.506526 
L 168.27207 119.009905 
L 168.750495 118.797573 
L 170.503221 117.547558 
L 170.694315 117.370496 
L 172.255947 115.731087 
L 172.255947 115.731087 
L 173.507819 114.091678 
L 174.008673 113.328323 
L 174.680495 112.452269 
L 175.761399 111.018404 
L 175.971707 110.81286 
L 177.514125 109.445614 
L 177.991113 109.173451 
L 179.266851 108.534764 
L 181.019577 107.880641 
L 181.914633 107.534042 
L 182.772303 107.214052 
L 184.525029 106.422979 
L 185.475845 105.894633 
L 186.277755 105.421408 
L 187.852628 104.255224 
L 188.030481 104.104796 
L 189.453141 102.615815 
L 189.783207 102.179113 
L 190.555335 100.976407 
L 191.25164 99.336998 
L 191.528297 97.697589 
L 191.300903 96.05818 
L 190.480649 94.418771 
L 189.783207 93.633129 
L 188.771658 92.779362 
L 188.030481 92.329053 
L 186.277755 91.611713 
L 184.525029 91.238504 
L 182.772303 91.220316 
L 181.019577 91.605832 
L 179.266851 92.479365 
L 178.884834 92.779362 
L 177.514125 94.322406 
L 177.44949 94.418771 
L 176.685622 96.05818 
L 176.156435 97.697589 
L 175.761399 99.249665 
L 175.740021 99.336998 
L 175.363475 100.976407 
L 174.872218 102.615815 
L 174.047396 104.255224 
L 174.008673 104.313006 
L 172.255947 105.863981 
L 172.198862 105.894633 
L 170.503221 106.578375 
L 168.750495 107.029148 
L 166.997769 107.439783 
L 166.676804 107.534042 
L 165.245043 107.957228 
L 163.492317 108.622708 
L 162.401108 109.173451 
L 161.739591 109.583424 
L 160.264491 110.81286 
L 159.986865 111.171003 
L 159.212435 112.452269 
L 158.846796 114.091678 
L 159.117552 115.731087 
L 159.986865 117.286295 
L 160.052676 117.370496 
L 161.739591 118.720819 
L 162.356608 119.009905 
L 163.492317 119.456179 
z
M 117.921441 114.126031 
L 119.674167 114.385249 
L 121.426893 114.361803 
L 123.068896 114.091678 
L 123.179619 114.073295 
L 124.932345 113.512099 
L 126.685071 112.64982 
L 126.991321 112.452269 
L 128.437797 111.371117 
L 129.042743 110.81286 
L 130.190523 109.453683 
L 130.400416 109.173451 
L 131.280298 107.534042 
L 131.783683 105.894633 
L 131.93968 104.255224 
L 131.738405 102.615815 
L 131.129271 100.976407 
L 130.190523 99.575269 
L 129.993041 99.336998 
L 128.437797 98.024198 
L 127.874459 97.697589 
L 126.685071 97.130298 
L 124.932345 96.644074 
L 123.179619 96.468449 
L 121.426893 96.567835 
L 119.674167 96.933862 
L 117.921441 97.584195 
L 117.704006 97.697589 
L 116.168715 98.591796 
L 115.203569 99.336998 
L 114.415989 100.08498 
L 113.631776 100.976407 
L 112.663263 102.499931 
L 112.596016 102.615815 
L 111.967318 104.255224 
L 111.679792 105.894633 
L 111.720376 107.534042 
L 112.112803 109.173451 
L 112.663263 110.319484 
L 112.944796 110.81286 
L 114.415989 112.437692 
L 114.434251 112.452269 
L 116.168715 113.515888 
L 117.810506 114.091678 
L 117.921441 114.126031 
z
M 356.292176 103.300586 
L 358.044902 103.890921 
L 359.797628 103.98685 
L 361.550354 103.716222 
L 363.30308 103.136925 
L 364.346688 102.615815 
L 365.055806 102.251207 
L 366.808532 101.0361 
L 366.878647 100.976407 
L 368.561258 99.362142 
L 368.583679 99.336998 
L 369.814574 97.697589 
L 370.313984 96.832481 
L 370.721925 96.05818 
L 371.324862 94.418771 
L 371.660917 92.779362 
L 371.727884 91.139953 
L 371.510229 89.500544 
L 370.980878 87.861135 
L 370.313984 86.596371 
L 370.081602 86.221726 
L 368.695116 84.582317 
L 368.561258 84.453357 
L 366.808532 83.095254 
L 366.547267 82.942908 
L 365.055806 82.140734 
L 363.30308 81.464476 
L 362.635567 81.303499 
L 361.550354 81.040212 
L 359.797628 80.873183 
L 358.044902 81.004468 
L 356.990845 81.303499 
L 356.292176 81.549801 
L 354.53945 82.780024 
L 354.387484 82.942908 
L 353.303594 84.582317 
L 352.786724 85.865323 
L 352.67118 86.221726 
L 352.317409 87.861135 
L 352.108564 89.500544 
L 351.999275 91.139953 
L 351.971188 92.779362 
L 352.027252 94.418771 
L 352.187751 96.05818 
L 352.488247 97.697589 
L 352.786724 98.72018 
L 352.997778 99.336998 
L 353.841626 100.976407 
L 354.53945 101.919491 
L 355.310232 102.615815 
L 356.292176 103.300586 
z
" clip-path="url(#p369bd004b0)" style="fill: none; stroke: #aadce0; stroke-width: 1.5"/>
    <path d="M 224.837727 253.500415 
L 226.590453 253.666866 
L 228.343179 253.749658 
L 230.095905 253.743307 
L 231.848631 253.646717 
L 233.601357 253.463034 
L 233.750243 253.441441 
L 235.354083 253.232778 
L 237.106809 252.943352 
L 238.859535 252.599729 
L 240.612261 252.20852 
L 242.254152 251.802032 
L 242.364987 251.775995 
L 244.117713 251.345917 
L 245.870439 250.855202 
L 247.623165 250.279853 
L 247.941599 250.162623 
L 249.375891 249.642139 
L 251.128617 248.865694 
L 251.786792 248.523214 
L 252.881343 247.957406 
L 254.619225 246.883805 
L 254.634069 246.874668 
L 256.386795 245.675926 
L 256.953274 245.244396 
L 258.139521 244.336201 
L 259.02718 243.604987 
L 259.892247 242.879558 
L 260.934284 241.965578 
L 261.644973 241.320455 
L 262.716047 240.326169 
L 263.397699 239.659924 
L 264.388827 238.68676 
L 265.150425 237.887961 
L 265.95937 237.047351 
L 266.903151 235.990821 
L 267.434101 235.407942 
L 268.655877 233.962682 
L 268.824389 233.768533 
L 270.176459 232.129124 
L 270.408603 231.834735 
L 271.507131 230.489715 
L 272.161329 229.658409 
L 272.820707 228.850306 
L 273.914055 227.48163 
L 274.138421 227.210897 
L 275.493971 225.571489 
L 275.666781 225.360626 
L 276.888008 223.93208 
L 277.419507 223.289166 
L 278.281744 222.292671 
L 279.172233 221.199605 
L 279.640858 220.653262 
L 280.910205 219.013853 
L 280.924959 218.991927 
L 282.084505 217.374444 
L 282.677685 216.310236 
L 283.023566 215.735035 
L 283.715937 214.095626 
L 284.086638 212.456217 
L 284.150646 210.816808 
L 283.92426 209.177399 
L 283.422635 207.53799 
L 282.677685 205.938014 
L 282.661139 205.898581 
L 281.762554 204.259172 
L 280.924959 202.99669 
L 280.699762 202.619763 
L 279.607806 200.980354 
L 279.172233 200.362464 
L 278.544546 199.340945 
L 277.534261 197.701536 
L 277.419507 197.504865 
L 276.711877 196.062127 
L 275.975441 194.422718 
L 275.666781 193.638228 
L 275.387807 192.783309 
L 274.932907 191.1439 
L 274.54689 189.504491 
L 274.216797 187.865082 
L 273.922736 186.225673 
L 273.914055 186.173293 
L 273.686941 184.586264 
L 273.431634 182.946855 
L 273.12398 181.307446 
L 272.72795 179.668037 
L 272.201073 178.028628 
L 272.161329 177.927629 
L 271.582113 176.389219 
L 270.73854 174.74981 
L 270.408603 174.235466 
L 269.677182 173.110401 
L 268.655877 171.881297 
L 268.300526 171.470992 
L 266.903151 170.120752 
L 266.584639 169.831583 
L 265.150425 168.673772 
L 264.507472 168.192174 
L 263.397699 167.413106 
L 262.069898 166.552765 
L 261.644973 166.28355 
L 259.892247 165.222676 
L 259.346604 164.913356 
L 258.139521 164.216897 
L 256.386795 163.306578 
L 256.320086 163.273948 
L 254.634069 162.420934 
L 252.881343 161.671723 
L 252.783673 161.634539 
L 251.128617 160.980454 
L 249.375891 160.424706 
L 247.637056 159.99513 
L 247.623165 159.991532 
L 245.870439 159.619469 
L 244.117713 159.337113 
L 242.364987 159.119168 
L 240.612261 158.941746 
L 238.859535 158.783642 
L 237.106809 158.627632 
L 235.354083 158.461713 
L 234.332878 158.355721 
L 233.601357 158.268175 
L 231.848631 158.040267 
L 230.095905 157.80357 
L 228.343179 157.573618 
L 226.590453 157.370158 
L 224.837727 157.214515 
L 223.085001 157.127133 
L 221.332275 157.125812 
L 219.579549 157.224968 
L 217.826823 157.435939 
L 216.074097 157.768187 
L 214.321371 158.231129 
L 213.940346 158.355721 
L 212.568645 158.761787 
L 210.815919 159.406552 
L 209.495615 159.99513 
L 209.063193 160.168842 
L 207.310467 160.978519 
L 206.117022 161.634539 
L 205.557741 161.911055 
L 203.805015 162.907794 
L 203.24057 163.273948 
L 202.052289 163.969311 
L 200.674547 164.913356 
L 200.299563 165.14533 
L 198.546837 166.367784 
L 198.305722 166.552765 
L 196.794111 167.609292 
L 196.045568 168.192174 
L 195.041385 168.913097 
L 193.869002 169.831583 
L 193.288659 170.258283 
L 191.747167 171.470992 
L 191.535933 171.630565 
L 189.783207 173.009038 
L 189.657495 173.110401 
L 188.030481 174.401657 
L 187.606467 174.74981 
L 186.277755 175.858264 
L 185.657986 176.389219 
L 184.525029 177.407437 
L 183.847409 178.028628 
L 182.772303 179.093097 
L 182.198634 179.668037 
L 181.019577 180.97384 
L 180.719205 181.307446 
L 179.387563 182.946855 
L 179.266851 183.11089 
L 178.156888 184.586264 
L 177.514125 185.549936 
L 177.049214 186.225673 
L 176.02192 187.865082 
L 175.761399 188.316057 
L 175.042026 189.504491 
L 174.14476 191.1439 
L 174.008673 191.410847 
L 173.268256 192.783309 
L 172.473386 194.422718 
L 172.255947 194.913372 
L 171.71148 196.062127 
L 171.013308 197.701536 
L 170.503221 199.047869 
L 170.382589 199.340945 
L 169.773311 200.980354 
L 169.235878 202.619763 
L 168.768493 204.259172 
L 168.750495 204.335109 
L 168.330558 205.898581 
L 167.981407 207.53799 
L 167.741886 209.177399 
L 167.637358 210.816808 
L 167.697823 212.456217 
L 167.95629 214.095626 
L 168.449294 215.735035 
L 168.750495 216.401736 
L 169.148344 217.374444 
L 170.072734 219.013853 
L 170.503221 219.607549 
L 171.189448 220.653262 
L 172.255947 221.947353 
L 172.516411 222.292671 
L 174.008673 223.93208 
L 174.008673 223.93208 
L 175.607833 225.571489 
L 175.761399 225.712571 
L 177.319501 227.210897 
L 177.514125 227.386345 
L 179.083863 228.850306 
L 179.266851 229.01798 
L 180.832388 230.489715 
L 181.019577 230.670408 
L 182.505122 232.129124 
L 182.772303 232.407925 
L 184.070515 233.768533 
L 184.525029 234.28303 
L 185.533697 235.407942 
L 186.277755 236.296502 
L 186.932236 237.047351 
L 188.030481 238.35399 
L 188.329893 238.68676 
L 189.783207 240.293544 
L 189.815626 240.326169 
L 191.501951 241.965578 
L 191.535933 241.99672 
L 193.288659 243.43558 
L 193.521571 243.604987 
L 195.041385 244.662729 
L 195.992794 245.244396 
L 196.794111 245.720402 
L 198.546837 246.655505 
L 199.013406 246.883805 
L 200.299563 247.510958 
L 202.052289 248.260054 
L 202.737888 248.523214 
L 203.805015 248.940251 
L 205.557741 249.543027 
L 207.310467 250.052085 
L 207.732228 250.162623 
L 209.063193 250.532642 
L 210.815919 250.964461 
L 212.568645 251.347995 
L 214.321371 251.696418 
L 214.88217 251.802032 
L 216.074097 252.056155 
L 217.826823 252.409188 
L 219.579549 252.736449 
L 221.332275 253.032274 
L 223.085001 253.287577 
L 224.40798 253.441441 
L 224.837727 253.500415 
z
" clip-path="url(#p369bd004b0)" style="fill: none; stroke: #aadce0; stroke-width: 1.5"/>
    <path d="M 219.579549 242.134984 
L 221.332275 242.313373 
L 223.085001 242.411334 
L 224.837727 242.432001 
L 226.590453 242.375102 
L 228.343179 242.237494 
L 230.095905 242.013852 
L 230.371477 241.965578 
L 231.848631 241.728698 
L 233.601357 241.360396 
L 235.354083 240.895747 
L 237.106809 240.326169 
L 237.106809 240.326169 
L 238.859535 239.720314 
L 240.612261 239.000333 
L 241.288557 238.68676 
L 242.364987 238.208518 
L 244.117713 237.313431 
L 244.587553 237.047351 
L 245.870439 236.331562 
L 247.314857 235.407942 
L 247.623165 235.20931 
L 249.375891 233.956752 
L 249.61677 233.768533 
L 251.128617 232.539526 
L 251.591737 232.129124 
L 252.881343 230.915884 
L 253.30745 230.489715 
L 254.634069 229.058802 
L 254.820832 228.850306 
L 256.190438 227.210897 
L 256.386795 226.95661 
L 257.459336 225.571489 
L 258.139521 224.604152 
L 258.624507 223.93208 
L 259.707692 222.292671 
L 259.892247 221.989649 
L 260.74838 220.653262 
L 261.644973 219.055699 
L 261.67002 219.013853 
L 262.556433 217.374444 
L 263.288533 215.735035 
L 263.397699 215.44175 
L 263.941199 214.095626 
L 264.448575 212.456217 
L 264.808018 210.816808 
L 265.03553 209.177399 
L 265.148911 207.53799 
L 265.150425 207.40007 
L 265.168906 205.898581 
L 265.150425 205.47981 
L 265.105158 204.259172 
L 264.980282 202.619763 
L 264.803799 200.980354 
L 264.584375 199.340945 
L 264.327246 197.701536 
L 264.034382 196.062127 
L 263.704721 194.422718 
L 263.397699 193.057713 
L 263.341603 192.783309 
L 262.97061 191.1439 
L 262.545584 189.504491 
L 262.051873 187.865082 
L 261.644973 186.698623 
L 261.485084 186.225673 
L 260.845851 184.586264 
L 260.05735 182.946855 
L 259.892247 182.649532 
L 259.126621 181.307446 
L 258.139521 179.904867 
L 257.962858 179.668037 
L 256.529433 178.028628 
L 256.386795 177.885629 
L 254.736874 176.389219 
L 254.634069 176.305144 
L 252.881343 175.008358 
L 252.48184 174.74981 
L 251.128617 173.91144 
L 249.602118 173.110401 
L 249.375891 172.992489 
L 247.623165 172.179503 
L 245.870439 171.51443 
L 245.738113 171.470992 
L 244.117713 170.915144 
L 242.364987 170.425107 
L 240.612261 170.030237 
L 239.536406 169.831583 
L 238.859535 169.695648 
L 237.106809 169.400811 
L 235.354083 169.158086 
L 233.601357 168.955608 
L 231.848631 168.785269 
L 230.095905 168.642967 
L 228.343179 168.528527 
L 226.590453 168.445272 
L 224.837727 168.399293 
L 223.085001 168.398578 
L 221.332275 168.452192 
L 219.579549 168.569742 
L 217.826823 168.761217 
L 216.074097 169.037267 
L 214.321371 169.409865 
L 212.78493 169.831583 
L 212.568645 169.883899 
L 210.815919 170.401803 
L 209.063193 171.045147 
L 208.088595 171.470992 
L 207.310467 171.785376 
L 205.557741 172.615374 
L 204.654998 173.110401 
L 203.805015 173.5588 
L 202.052289 174.622533 
L 201.859193 174.74981 
L 200.299563 175.777373 
L 199.460319 176.389219 
L 198.546837 177.074822 
L 197.365857 178.028628 
L 196.794111 178.517867 
L 195.511279 179.668037 
L 195.041385 180.126602 
L 193.857591 181.307446 
L 193.288659 181.93995 
L 192.382439 182.946855 
L 191.535933 184.014754 
L 191.073559 184.586264 
L 189.90646 186.225673 
L 189.783207 186.418151 
L 188.813099 187.865082 
L 188.030481 189.212597 
L 187.8507 189.504491 
L 186.923877 191.1439 
L 186.277755 192.446687 
L 186.098058 192.783309 
L 185.294436 194.422718 
L 184.602638 196.062127 
L 184.525029 196.267959 
L 183.932959 197.701536 
L 183.366191 199.340945 
L 182.909073 200.980354 
L 182.772303 201.600314 
L 182.518929 202.619763 
L 182.219329 204.259172 
L 182.02701 205.898581 
L 181.93812 207.53799 
L 181.95262 209.177399 
L 182.075752 210.816808 
L 182.319375 212.456217 
L 182.70309 214.095626 
L 182.772303 214.311152 
L 183.196847 215.735035 
L 183.868128 217.374444 
L 184.525029 218.596874 
L 184.74317 219.013853 
L 185.803637 220.653262 
L 186.277755 221.262935 
L 187.085485 222.292671 
L 188.030481 223.332884 
L 188.588193 223.93208 
L 189.783207 225.099338 
L 190.282667 225.571489 
L 191.535933 226.696796 
L 192.129505 227.210897 
L 193.288659 228.197638 
L 194.084444 228.850306 
L 195.041385 229.639846 
L 196.112693 230.489715 
L 196.794111 231.040224 
L 198.202978 232.129124 
L 198.546837 232.400555 
L 200.299563 233.717485 
L 200.370262 233.768533 
L 202.052289 235.002798 
L 202.649004 235.407942 
L 203.805015 236.203034 
L 205.164741 237.047351 
L 205.557741 237.294223 
L 207.310467 238.295585 
L 208.09588 238.68676 
L 209.063193 239.178531 
L 210.815919 239.939164 
L 211.890206 240.326169 
L 212.568645 240.580699 
L 214.321371 241.126921 
L 216.074097 241.554344 
L 217.826823 241.879677 
L 218.454926 241.965578 
L 219.579549 242.134984 
z
" clip-path="url(#p369bd004b0)" style="fill: none; stroke: #aadce0; stroke-width: 1.5"/>
    <path d="M 221.332275 235.425684 
L 223.085001 235.499996 
L 224.837727 235.472409 
L 225.750497 235.407942 
L 226.590453 235.353393 
L 228.343179 235.153801 
L 230.095905 234.866078 
L 231.848631 234.485695 
L 233.601357 234.005349 
L 234.324572 233.768533 
L 235.354083 233.442688 
L 237.106809 232.783867 
L 238.574615 232.129124 
L 238.859535 232.002292 
L 240.612261 231.11733 
L 241.687434 230.489715 
L 242.364987 230.081731 
L 244.117713 228.880428 
L 244.157968 228.850306 
L 245.870439 227.487522 
L 246.186913 227.210897 
L 247.623165 225.8498 
L 247.897177 225.571489 
L 249.365561 223.93208 
L 249.375891 223.919476 
L 250.663438 222.292671 
L 251.128617 221.635497 
L 251.814665 220.653262 
L 252.83298 219.013853 
L 252.881343 218.928464 
L 253.770658 217.374444 
L 254.581087 215.735035 
L 254.634069 215.614364 
L 255.318987 214.095626 
L 255.936103 212.456217 
L 256.386795 210.982313 
L 256.439523 210.816808 
L 256.86154 209.177399 
L 257.172238 207.53799 
L 257.381698 205.898581 
L 257.49937 204.259172 
L 257.533177 202.619763 
L 257.488817 200.980354 
L 257.369336 199.340945 
L 257.174908 197.701536 
L 256.902714 196.062127 
L 256.546752 194.422718 
L 256.386795 193.825889 
L 256.117046 192.783309 
L 255.596767 191.1439 
L 254.955309 189.504491 
L 254.634069 188.810752 
L 254.18963 187.865082 
L 253.259927 186.225673 
L 252.881343 185.65751 
L 252.125181 184.586264 
L 251.128617 183.39973 
L 250.713463 182.946855 
L 249.375891 181.680048 
L 248.932859 181.307446 
L 247.623165 180.317094 
L 246.624302 179.668037 
L 245.870439 179.211372 
L 244.117713 178.303352 
L 243.494143 178.028628 
L 242.364987 177.541882 
L 240.612261 176.910166 
L 238.859535 176.398373 
L 238.823028 176.389219 
L 237.106809 175.943893 
L 235.354083 175.571671 
L 233.601357 175.266642 
L 231.848631 175.01625 
L 230.095905 174.81152 
L 229.448059 174.74981 
L 228.343179 174.633853 
L 226.590453 174.491941 
L 224.837727 174.396271 
L 223.085001 174.352614 
L 221.332275 174.369349 
L 219.579549 174.456861 
L 217.826823 174.627129 
L 217.011613 174.74981 
L 216.074097 174.877908 
L 214.321371 175.215255 
L 212.568645 175.668534 
L 210.815919 176.25601 
L 210.485955 176.389219 
L 209.063193 176.945692 
L 207.310467 177.790775 
L 206.883674 178.028628 
L 205.557741 178.775832 
L 204.206544 179.668037 
L 203.805015 179.944277 
L 202.052289 181.307446 
L 202.052289 181.307446 
L 200.299563 182.897544 
L 200.248665 182.946855 
L 198.703135 184.586264 
L 198.546837 184.771321 
L 197.350381 186.225673 
L 196.794111 186.993238 
L 196.162043 187.865082 
L 195.116132 189.504491 
L 195.041385 189.632544 
L 194.131942 191.1439 
L 193.288659 192.750431 
L 193.270561 192.783309 
L 192.433172 194.422718 
L 191.704962 196.062127 
L 191.535933 196.489177 
L 191.022638 197.701536 
L 190.43293 199.340945 
L 189.9537 200.980354 
L 189.783207 201.729261 
L 189.562247 202.619763 
L 189.277487 204.259172 
L 189.119317 205.898581 
L 189.090152 207.53799 
L 189.196008 209.177399 
L 189.447858 210.816808 
L 189.783207 212.153143 
L 189.857056 212.456217 
L 190.416724 214.095626 
L 191.183188 215.735035 
L 191.535933 216.337758 
L 192.153877 217.374444 
L 193.288659 218.913153 
L 193.365269 219.013853 
L 194.797662 220.653262 
L 195.041385 220.901967 
L 196.453471 222.292671 
L 196.794111 222.603101 
L 198.301846 223.93208 
L 198.546837 224.138497 
L 200.299563 225.568475 
L 200.303343 225.571489 
L 202.052289 226.938911 
L 202.415525 227.210897 
L 203.805015 228.245033 
L 204.669224 228.850306 
L 205.557741 229.474666 
L 207.132095 230.489715 
L 207.310467 230.605935 
L 209.063193 231.655926 
L 209.971202 232.129124 
L 210.815919 232.578493 
L 212.568645 233.373114 
L 213.633489 233.768533 
L 214.321371 234.033666 
L 216.074097 234.575441 
L 217.826823 234.977867 
L 219.579549 235.256354 
L 221.161565 235.407942 
L 221.332275 235.425684 
z
" clip-path="url(#p369bd004b0)" style="fill: none; stroke: #aadce0; stroke-width: 1.5"/>
    <path d="M 216.074097 229.358077 
L 217.826823 229.827334 
L 219.579549 230.153618 
L 221.332275 230.348519 
L 223.085001 230.421741 
L 224.837727 230.380554 
L 226.590453 230.22936 
L 228.343179 229.969354 
L 230.095905 229.598297 
L 231.848631 229.110397 
L 232.610453 228.850306 
L 233.601357 228.509099 
L 235.354083 227.780754 
L 236.509463 227.210897 
L 237.106809 226.903644 
L 238.859535 225.861396 
L 239.291034 225.571489 
L 240.612261 224.617821 
L 241.459445 223.93208 
L 242.364987 223.130203 
L 243.231183 222.292671 
L 244.117713 221.342013 
L 244.720539 220.653262 
L 245.870439 219.181832 
L 245.996371 219.013853 
L 247.113523 217.374444 
L 247.623165 216.527819 
L 248.092557 215.735035 
L 248.950896 214.095626 
L 249.375891 213.161752 
L 249.697139 212.456217 
L 250.338502 210.816808 
L 250.862872 209.177399 
L 251.128617 208.132175 
L 251.282215 207.53799 
L 251.600958 205.898581 
L 251.811136 204.259172 
L 251.91662 202.619763 
L 251.919598 200.980354 
L 251.819926 199.340945 
L 251.614506 197.701536 
L 251.296622 196.062127 
L 251.128617 195.427422 
L 250.865835 194.422718 
L 250.306173 192.783309 
L 249.586977 191.1439 
L 249.375891 190.74608 
L 248.693017 189.504491 
L 247.623165 187.941547 
L 247.567413 187.865082 
L 246.152738 186.225673 
L 245.870439 185.946372 
L 244.332243 184.586264 
L 244.117713 184.419414 
L 242.364987 183.215962 
L 241.908488 182.946855 
L 240.612261 182.243036 
L 238.859535 181.455685 
L 238.472558 181.307446 
L 237.106809 180.802161 
L 235.354083 180.267664 
L 233.601357 179.834333 
L 232.788865 179.668037 
L 231.848631 179.47141 
L 230.095905 179.17007 
L 228.343179 178.932006 
L 226.590453 178.752416 
L 224.837727 178.630765 
L 223.085001 178.570497 
L 221.332275 178.578605 
L 219.579549 178.665148 
L 217.826823 178.842832 
L 216.074097 179.12676 
L 214.321371 179.534449 
L 213.882902 179.668037 
L 212.568645 180.061805 
L 210.815919 180.740963 
L 209.643643 181.307446 
L 209.063193 181.595078 
L 207.310467 182.638375 
L 206.863915 182.946855 
L 205.557741 183.909066 
L 204.750628 184.586264 
L 203.805015 185.453455 
L 203.037222 186.225673 
L 202.052289 187.33022 
L 201.602038 187.865082 
L 200.37571 189.504491 
L 200.299563 189.617413 
L 199.287037 191.1439 
L 198.546837 192.422424 
L 198.335925 192.783309 
L 197.472229 194.422718 
L 196.794111 195.904653 
L 196.719385 196.062127 
L 196.032397 197.701536 
L 195.4585 199.340945 
L 195.041385 200.822762 
L 194.994361 200.980354 
L 194.629642 202.619763 
L 194.401309 204.259172 
L 194.31715 205.898581 
L 194.387424 207.53799 
L 194.625193 209.177399 
L 195.041385 210.795933 
L 195.046785 210.816808 
L 195.649502 212.456217 
L 196.472396 214.095626 
L 196.794111 214.612674 
L 197.515362 215.735035 
L 198.546837 217.065117 
L 198.795085 217.374444 
L 200.299563 219.013853 
L 200.299563 219.013853 
L 202.006068 220.653262 
L 202.052289 220.694531 
L 203.805015 222.212262 
L 203.901596 222.292671 
L 205.557741 223.608625 
L 205.989047 223.93208 
L 207.310467 224.892825 
L 208.32568 225.571489 
L 209.063193 226.056011 
L 210.815919 227.085865 
L 211.057341 227.210897 
L 212.568645 227.99239 
L 214.321371 228.739565 
L 214.640101 228.850306 
L 216.074097 229.358077 
z
" clip-path="url(#p369bd004b0)" style="fill: none; stroke: #aadce0; stroke-width: 1.5"/>
    <path d="M 219.579549 225.727954 
L 221.332275 225.947694 
L 223.085001 226.018384 
L 224.837727 225.946022 
L 226.590453 225.733601 
L 227.406831 225.571489 
L 228.343179 225.383101 
L 230.095905 224.890541 
L 231.848631 224.244014 
L 232.541203 223.93208 
L 233.601357 223.427342 
L 235.354083 222.419866 
L 235.54764 222.292671 
L 237.106809 221.178345 
L 237.75263 220.653262 
L 238.859535 219.657896 
L 239.509258 219.013853 
L 240.612261 217.788379 
L 240.959582 217.374444 
L 242.183434 215.735035 
L 242.364987 215.460632 
L 243.233377 214.095626 
L 244.117713 212.479839 
L 244.130349 212.456217 
L 244.901276 210.816808 
L 245.54114 209.177399 
L 245.870439 208.137893 
L 246.059805 207.53799 
L 246.460132 205.898581 
L 246.736828 204.259172 
L 246.890467 202.619763 
L 246.91975 200.980354 
L 246.820858 199.340945 
L 246.586498 197.701536 
L 246.204654 196.062127 
L 245.870439 195.050241 
L 245.659595 194.422718 
L 244.927276 192.783309 
L 244.117713 191.393416 
L 243.964049 191.1439 
L 242.71071 189.504491 
L 242.364987 189.131338 
L 241.062155 187.865082 
L 240.612261 187.493936 
L 238.859535 186.238024 
L 238.839767 186.225673 
L 237.106809 185.262297 
L 235.617391 184.586264 
L 235.354083 184.475682 
L 233.601357 183.846918 
L 231.848631 183.342314 
L 230.117424 182.946855 
L 230.095905 182.942029 
L 228.343179 182.624651 
L 226.590453 182.389845 
L 224.837727 182.23435 
L 223.085001 182.159761 
L 221.332275 182.172175 
L 219.579549 182.281784 
L 217.826823 182.502481 
L 216.074097 182.851621 
L 215.729121 182.946855 
L 214.321371 183.340759 
L 212.568645 183.998071 
L 211.343626 184.586264 
L 210.815919 184.853502 
L 209.063193 185.937971 
L 208.668245 186.225673 
L 207.310467 187.306074 
L 206.696439 187.865082 
L 205.557741 189.02279 
L 205.126448 189.504491 
L 203.832597 191.1439 
L 203.805015 191.18341 
L 202.738446 192.783309 
L 202.052289 193.98187 
L 201.803851 194.422718 
L 201.001001 196.062127 
L 200.328108 197.701536 
L 200.299563 197.78666 
L 199.766309 199.340945 
L 199.336949 200.980354 
L 199.047093 202.619763 
L 198.90778 204.259172 
L 198.933132 205.898581 
L 199.138764 207.53799 
L 199.540641 209.177399 
L 200.154613 210.816808 
L 200.299563 211.110979 
L 200.987649 212.456217 
L 202.052289 214.095626 
L 202.052289 214.095626 
L 203.341181 215.735035 
L 203.805015 216.250582 
L 204.856083 217.374444 
L 205.557741 218.053496 
L 206.597926 219.013853 
L 207.310467 219.623617 
L 208.595007 220.653262 
L 209.063193 221.007274 
L 210.815919 222.216622 
L 210.939291 222.292671 
L 212.568645 223.256228 
L 213.925327 223.93208 
L 214.321371 224.124597 
L 216.074097 224.824958 
L 217.826823 225.355654 
L 218.845241 225.571489 
L 219.579549 225.727954 
z
" clip-path="url(#p369bd004b0)" style="fill: none; stroke: #aadce0; stroke-width: 1.5"/>
    <path d="M 217.826823 221.268841 
L 219.579549 221.69643 
L 221.332275 221.937517 
L 223.085001 221.997416 
L 224.837727 221.879855 
L 226.590453 221.58552 
L 228.343179 221.11091 
L 229.566444 220.653262 
L 230.095905 220.441531 
L 231.848631 219.55042 
L 232.712512 219.013853 
L 233.601357 218.40662 
L 234.888697 217.374444 
L 235.354083 216.956312 
L 236.560908 215.735035 
L 237.106809 215.105459 
L 237.910945 214.095626 
L 238.859535 212.715593 
L 239.027809 212.456217 
L 239.950796 210.816808 
L 240.612261 209.403246 
L 240.714739 209.177399 
L 241.328607 207.53799 
L 241.800547 205.898581 
L 242.132295 204.259172 
L 242.322142 202.619763 
L 242.364987 200.980354 
L 242.25183 199.340945 
L 241.968666 197.701536 
L 241.494753 196.062127 
L 240.800181 194.422718 
L 240.612261 194.089023 
L 239.825054 192.783309 
L 238.859535 191.559955 
L 238.495849 191.1439 
L 237.106809 189.867969 
L 236.651068 189.504491 
L 235.354083 188.634736 
L 233.973331 187.865082 
L 233.601357 187.68287 
L 231.848631 186.962203 
L 230.095905 186.394826 
L 229.42833 186.225673 
L 228.343179 185.968104 
L 226.590453 185.660849 
L 224.837727 185.461212 
L 223.085001 185.368565 
L 221.332275 185.387853 
L 219.579549 185.529175 
L 217.826823 185.807367 
L 216.136978 186.225673 
L 216.074097 186.242061 
L 214.321371 186.869845 
L 212.568645 187.707904 
L 212.301866 187.865082 
L 210.815919 188.82869 
L 209.950752 189.504491 
L 209.063193 190.288178 
L 208.217867 191.1439 
L 207.310467 192.206272 
L 206.861775 192.783309 
L 205.773939 194.422718 
L 205.557741 194.812647 
L 204.895768 196.062127 
L 204.191162 197.701536 
L 203.805015 198.863508 
L 203.647562 199.340945 
L 203.268515 200.980354 
L 203.05608 202.619763 
L 203.021764 204.259172 
L 203.179403 205.898581 
L 203.54263 207.53799 
L 203.805015 208.294698 
L 204.127834 209.177399 
L 204.941911 210.816808 
L 205.557741 211.801062 
L 205.990467 212.456217 
L 207.274937 214.095626 
L 207.310467 214.13556 
L 208.820493 215.735035 
L 209.063193 215.966025 
L 210.664509 217.374444 
L 210.815919 217.496565 
L 212.568645 218.769268 
L 212.958167 219.013853 
L 214.321371 219.812724 
L 216.074097 220.649308 
L 216.08477 220.653262 
L 217.826823 221.268841 
z
" clip-path="url(#p369bd004b0)" style="fill: none; stroke: #aadce0; stroke-width: 1.5"/>
    <path d="M 221.332275 217.622135 
L 223.085001 217.672674 
L 224.837727 217.494531 
L 225.360169 217.374444 
L 226.590453 217.06765 
L 228.343179 216.383053 
L 229.557467 215.735035 
L 230.095905 215.413698 
L 231.848631 214.095626 
L 231.848631 214.095626 
L 233.458246 212.456217 
L 233.601357 212.28516 
L 234.690437 210.816808 
L 235.354083 209.737162 
L 235.670626 209.177399 
L 236.424896 207.53799 
L 237.001921 205.898581 
L 237.106809 205.475007 
L 237.39455 204.259172 
L 237.613045 202.619763 
L 237.652569 200.980354 
L 237.497662 199.340945 
L 237.124754 197.701536 
L 237.106809 197.653171 
L 236.470042 196.062127 
L 235.496168 194.422718 
L 235.354083 194.243504 
L 234.036785 192.783309 
L 233.601357 192.407509 
L 231.856266 191.1439 
L 231.848631 191.139348 
L 230.095905 190.271567 
L 228.343179 189.610598 
L 227.961541 189.504491 
L 226.590453 189.167118 
L 224.837727 188.887859 
L 223.085001 188.759194 
L 221.332275 188.784166 
L 219.579549 188.972348 
L 217.826823 189.339146 
L 217.305558 189.504491 
L 216.074097 189.939693 
L 214.321371 190.794121 
L 213.76047 191.1439 
L 212.568645 192.00486 
L 211.681436 192.783309 
L 210.815919 193.692789 
L 210.212198 194.422718 
L 209.115679 196.062127 
L 209.063193 196.163753 
L 208.33276 197.701536 
L 207.771106 199.340945 
L 207.423581 200.980354 
L 207.310467 202.420334 
L 207.295317 202.619763 
L 207.310467 202.898335 
L 207.390931 204.259172 
L 207.719401 205.898581 
L 208.282425 207.53799 
L 209.063193 209.14703 
L 209.079307 209.177399 
L 210.165201 210.816808 
L 210.815919 211.636904 
L 211.53555 212.456217 
L 212.568645 213.479767 
L 213.279217 214.095626 
L 214.321371 214.900567 
L 215.621479 215.735035 
L 216.074097 215.998491 
L 217.826823 216.792062 
L 219.579549 217.339278 
L 219.784426 217.374444 
L 221.332275 217.622135 
z
" clip-path="url(#p369bd004b0)" style="fill: none; stroke: #aadce0; stroke-width: 1.5"/>
    <path d="M 221.332275 212.504658 
L 223.085001 212.559608 
L 223.738844 212.456217 
L 224.837727 212.257651 
L 226.590453 211.559957 
L 227.798447 210.816808 
L 228.343179 210.418019 
L 229.614126 209.177399 
L 230.095905 208.59287 
L 230.808155 207.53799 
L 231.648004 205.898581 
L 231.848631 205.327733 
L 232.177461 204.259172 
L 232.445456 202.619763 
L 232.46105 200.980354 
L 232.196601 199.340945 
L 231.848631 198.359819 
L 231.576385 197.701536 
L 230.468915 196.062127 
L 230.095905 195.676697 
L 228.568278 194.422718 
L 228.343179 194.282594 
L 226.590453 193.468545 
L 224.837727 192.945673 
L 223.685491 192.783309 
L 223.085001 192.713046 
L 221.332275 192.737212 
L 221.023162 192.783309 
L 219.579549 193.039835 
L 217.826823 193.648471 
L 216.355371 194.422718 
L 216.074097 194.6101 
L 214.43948 196.062127 
L 214.321371 196.204537 
L 213.308133 197.701536 
L 212.568645 199.340945 
L 212.568645 199.340945 
L 212.23385 200.980354 
L 212.192663 202.619763 
L 212.438043 204.259172 
L 212.568645 204.674627 
L 213.015137 205.898581 
L 213.906359 207.53799 
L 214.321371 208.124117 
L 215.213514 209.177399 
L 216.074097 210.014518 
L 217.126126 210.816808 
L 217.826823 211.274619 
L 219.579549 212.075271 
L 221.111059 212.456217 
L 221.332275 212.504658 
z
" clip-path="url(#p369bd004b0)" style="fill: none; stroke: #aadce0; stroke-width: 1.5"/>
    <path clip-path="url(#p369bd004b0)" style="fill: none; stroke: #aadce0; stroke-width: 1.5"/>
   </g>
   <g id="LineCollection_1">
    <path d="M 232.008408 347.94 
L 232.008408 65.612571 
" clip-path="url(#p369bd004b0)" style="fill: none; stroke-dasharray: 5.55,2.4; stroke-dashoffset: 0; stroke: #000000; stroke-width: 1.5"/>
   </g>
   <g id="LineCollection_2">
    <path d="M 201.829351 220.892657 
L 201.829351 192.659914 
" clip-path="url(#p369bd004b0)" style="fill: none; stroke-dasharray: 5.55,2.4; stroke-dashoffset: 0; stroke: #000000; stroke-width: 1.5"/>
   </g>
   <g id="LineCollection_3">
    <path d="M 201.829351 220.892657 
L 232.008408 220.892657 
" clip-path="url(#p369bd004b0)" style="fill: none; stroke-dasharray: 5.55,2.4; stroke-dashoffset: 0; stroke: #000000; stroke-width: 1.5"/>
   </g>
   <g id="LineCollection_4">
    <path d="M 201.829351 192.659914 
L 367.814165 192.659914 
" clip-path="url(#p369bd004b0)" style="fill: none; stroke-dasharray: 5.55,2.4; stroke-dashoffset: 0; stroke: #000000; stroke-width: 1.5"/>
   </g>
   <g id="patch_3">
    <path d="M 66.023594 347.94 
L 66.023594 65.612571 
" style="fill: none; stroke: #262626; stroke-width: 1.25; stroke-linejoin: miter; stroke-linecap: square"/>
   </g>
   <g id="patch_4">
    <path d="M 66.023594 347.94 
L 367.814165 347.94 
" style="fill: none; stroke: #262626; stroke-width: 1.25; stroke-linejoin: miter; stroke-linecap: square"/>
   </g>
  </g>
  <g id="axes_2">
   <g id="patch_5">
    <path d="M 66.023594 55.877143 
L 367.814165 55.877143 
L 367.814165 7.2 
L 66.023594 7.2 
z
" style="fill: #ffffff"/>
   </g>
   <g id="matplotlib.axis_3">
    <g id="xtick_10"/>
    <g id="xtick_11"/>
    <g id="xtick_12"/>
    <g id="xtick_13"/>
    <g id="xtick_14"/>
    <g id="xtick_15"/>
    <g id="xtick_16"/>
    <g id="xtick_17"/>
    <g id="xtick_18"/>
   </g>
   <g id="matplotlib.axis_4">
    <g id="ytick_10"/>
    <g id="ytick_11"/>
   </g>
   <g id="line2d_1">
    <path d="M 52.265336 55.875875 
L 67.478554 55.779773 
L 94.524275 55.393273 
L 104.66642 55.469992 
L 109.737493 55.311041 
L 123.260353 54.686187 
L 128.331426 54.720895 
L 143.544644 55.029056 
L 148.615716 54.767045 
L 158.757862 54.159493 
L 163.828934 53.85344 
L 167.209649 53.505439 
L 170.590364 53.005262 
L 173.971079 52.350706 
L 177.351795 51.501666 
L 180.73251 50.349013 
L 182.422867 49.61522 
L 184.113225 48.756673 
L 185.803582 47.763966 
L 187.49394 46.632235 
L 189.184297 45.359857 
L 192.565012 42.391476 
L 195.945728 38.846917 
L 199.326443 34.708065 
L 202.707158 30.014455 
L 211.158945 17.606703 
L 212.849303 15.481809 
L 214.539661 13.623775 
L 216.230018 12.079412 
L 217.920376 10.881918 
L 219.610733 10.051433 
L 221.301091 9.596874 
L 222.991448 9.517899 
L 224.681806 9.806078 
L 226.372163 10.444984 
L 228.062521 11.409625 
L 229.752878 12.66606 
L 231.443236 14.172067 
L 234.823951 17.736784 
L 239.895024 23.748412 
L 246.656454 31.759482 
L 251.727526 37.4494 
L 255.108242 40.949969 
L 258.488957 44.027353 
L 260.179314 45.357614 
L 261.869672 46.53292 
L 263.560029 47.550634 
L 265.250387 48.415626 
L 266.940744 49.139159 
L 270.321459 50.229071 
L 273.702175 50.97607 
L 278.773247 51.793034 
L 290.60575 53.448399 
L 293.986465 53.697832 
L 299.057538 53.767057 
L 305.818968 53.755447 
L 310.890041 54.037358 
L 321.032186 54.825991 
L 327.793616 55.075842 
L 339.626119 55.261741 
L 364.981482 55.434867 
L 383.575415 55.860628 
L 388.646488 55.874516 
L 388.646488 55.874516 
" clip-path="url(#p53cccffab1)" style="fill: none; stroke: #aadce0; stroke-width: 1.5; stroke-linecap: round"/>
   </g>
   <g id="line2d_2">
    <path d="M 232.008408 55.877143 
L 232.008408 7.2 
" clip-path="url(#p53cccffab1)" style="fill: none; stroke: #000000; stroke-width: 1.5; stroke-linecap: round"/>
   </g>
   <g id="patch_6">
    <path d="M 66.023594 55.877143 
L 367.814165 55.877143 
" style="fill: none; stroke: #262626; stroke-width: 1.25; stroke-linejoin: miter; stroke-linecap: square"/>
   </g>
  </g>
  <g id="axes_3">
   <g id="patch_7">
    <path d="M 378.220737 347.94 
L 430.253594 347.94 
L 430.253594 65.612571 
L 378.220737 65.612571 
z
" style="fill: #ffffff"/>
   </g>
   <g id="matplotlib.axis_5">
    <g id="xtick_19"/>
    <g id="xtick_20"/>
   </g>
   <g id="matplotlib.axis_6">
    <g id="ytick_12"/>
    <g id="ytick_13"/>
    <g id="ytick_14"/>
    <g id="ytick_15"/>
    <g id="ytick_16"/>
    <g id="ytick_17"/>
    <g id="ytick_18"/>
    <g id="ytick_19"/>
    <g id="ytick_20"/>
   </g>
   <g id="line2d_3">
    <path d="M 378.222835 362.597326 
L 378.347919 349.932526 
L 378.632394 335.684626 
L 378.737336 327.769126 
L 378.978039 316.687426 
L 378.980778 307.188826 
L 379.30008 300.856426 
L 379.559774 294.524026 
L 379.521584 286.608526 
L 379.582887 280.276126 
L 379.80196 267.611326 
L 379.932416 262.862026 
L 380.229153 259.695826 
L 380.795191 256.529626 
L 381.648171 253.363426 
L 382.748932 250.197226 
L 384.05517 247.031026 
L 385.568424 243.864826 
L 387.349902 240.698626 
L 389.527653 237.532426 
L 390.824408 235.949326 
L 392.296232 234.366226 
L 393.967155 232.783126 
L 395.852115 231.200026 
L 397.951899 229.616926 
L 402.713079 226.450726 
L 415.62084 218.535226 
L 417.930276 216.952126 
L 420.042946 215.369026 
L 421.929051 213.785926 
L 423.567136 212.202826 
L 424.943727 210.619726 
L 426.052242 209.036626 
L 426.890904 207.453526 
L 427.459689 205.870426 
L 427.756851 204.287326 
L 427.775939 202.704226 
L 427.504405 201.121126 
L 426.924653 199.538026 
L 426.017785 197.954926 
L 424.769462 196.371826 
L 423.176443 194.788726 
L 421.251908 193.205626 
L 419.02781 191.622526 
L 413.889905 188.456326 
L 397.352982 178.957726 
L 392.729892 175.791526 
L 390.735434 174.208426 
L 388.980793 172.625326 
L 387.474963 171.042226 
L 386.213906 169.459126 
L 385.180051 167.876026 
L 384.344263 166.292926 
L 383.669948 164.709826 
L 382.653766 161.543626 
L 381.540693 156.794326 
L 380.675703 152.045026 
L 380.07404 147.295726 
L 379.601128 140.963326 
L 379.250488 133.047826 
L 379.172086 126.715426 
L 379.381973 104.552026 
L 379.127267 95.053426 
L 378.478614 76.056226 
L 378.332857 60.225226 
L 378.225344 49.143526 
L 378.223102 47.560426 
L 378.223102 47.560426 
" clip-path="url(#pc946eacdb6)" style="fill: none; stroke: #aadce0; stroke-width: 1.5; stroke-linecap: round"/>
   </g>
   <g id="line2d_4">
    <path d="M 378.220737 192.659914 
L 430.253594 192.659914 
" clip-path="url(#pc946eacdb6)" style="fill: none; stroke: #000000; stroke-width: 1.5; stroke-linecap: round"/>
   </g>
   <g id="patch_8">
    <path d="M 378.220737 347.94 
L 378.220737 65.612571 
" style="fill: none; stroke: #262626; stroke-width: 1.25; stroke-linejoin: miter; stroke-linecap: square"/>
   </g>
  </g>
 </g>
 <defs>
  <clipPath id="p369bd004b0">
   <rect x="66.023594" y="65.612571" width="301.790571" height="282.327429"/>
  </clipPath>
  <clipPath id="p53cccffab1">
   <rect x="66.023594" y="7.2" width="301.790571" height="48.677143"/>
  </clipPath>
  <clipPath id="pc946eacdb6">
   <rect x="378.220737" y="65.612571" width="52.032857" height="282.327429"/>
  </clipPath>
 </defs>
</svg>
