<?xml version="1.0" encoding="utf-8" standalone="no"?>
<!DOCTYPE svg PUBLIC "-//W3C//DTD SVG 1.1//EN"
  "http://www.w3.org/Graphics/SVG/1.1/DTD/svg11.dtd">
<svg xmlns:xlink="http://www.w3.org/1999/xlink" width="436.928594pt" height="390.749687pt" viewBox="0 0 436.928594 390.749687" xmlns="http://www.w3.org/2000/svg" version="1.1">
 <metadata>
  <rdf:RDF xmlns:dc="http://purl.org/dc/elements/1.1/" xmlns:cc="http://creativecommons.org/ns#" xmlns:rdf="http://www.w3.org/1999/02/22-rdf-syntax-ns#">
   <cc:Work>
    <dc:type rdf:resource="http://purl.org/dc/dcmitype/StillImage"/>
    <dc:date>2025-11-14T13:07:58.968501</dc:date>
    <dc:format>image/svg+xml</dc:format>
    <dc:creator>
     <cc:Agent>
      <dc:title>Matplotlib v3.10.5, https://matplotlib.org/</dc:title>
     </cc:Agent>
    </dc:creator>
   </cc:Work>
  </rdf:RDF>
 </metadata>
 <defs>
  <style type="text/css">*{stroke-linejoin: round; stroke-linecap: butt}</style>
 </defs>
 <g id="figure_1">
  <g id="patch_1">
   <path d="M 0 390.749687 
L 436.928594 390.749687 
L 436.928594 0 
L 0 0 
z
" style="fill: #ffffff"/>
  </g>
  <g id="axes_1">
   <g id="patch_2">
    <path d="M 66.023594 347.79 
L 367.379165 347.79 
L 367.379165 65.586857 
L 66.023594 65.586857 
z
" style="fill: #ffffff"/>
   </g>
   <g id="matplotlib.axis_1">
    <g id="xtick_1">
     <g id="text_1">
      <!-- −1.00 -->
      <g style="fill: #262626" transform="translate(49.168672 365.648281) scale(0.11 -0.11)">
       <defs>
        <path id="DejaVuSans-2212" d="M 678 2272 
L 4684 2272 
L 4684 1741 
L 678 1741 
L 678 2272 
z
" transform="scale(0.015625)"/>
        <path id="DejaVuSans-31" d="M 794 531 
L 1825 531 
L 1825 4091 
L 703 3866 
L 703 4441 
L 1819 4666 
L 2450 4666 
L 2450 531 
L 3481 531 
L 3481 0 
L 794 0 
L 794 531 
z
" transform="scale(0.015625)"/>
        <path id="DejaVuSans-2e" d="M 684 794 
L 1344 794 
L 1344 0 
L 684 0 
L 684 794 
z
" transform="scale(0.015625)"/>
        <path id="DejaVuSans-30" d="M 2034 4250 
Q 1547 4250 1301 3770 
Q 1056 3291 1056 2328 
Q 1056 1369 1301 889 
Q 1547 409 2034 409 
Q 2525 409 2770 889 
Q 3016 1369 3016 2328 
Q 3016 3291 2770 3770 
Q 2525 4250 2034 4250 
z
M 2034 4750 
Q 2819 4750 3233 4129 
Q 3647 3509 3647 2328 
Q 3647 1150 3233 529 
Q 2819 -91 2034 -91 
Q 1250 -91 836 529 
Q 422 1150 422 2328 
Q 422 3509 836 4129 
Q 1250 4750 2034 4750 
z
" transform="scale(0.015625)"/>
       </defs>
       <use xlink:href="#DejaVuSans-2212"/>
       <use xlink:href="#DejaVuSans-31" transform="translate(83.789062 0)"/>
       <use xlink:href="#DejaVuSans-2e" transform="translate(147.412109 0)"/>
       <use xlink:href="#DejaVuSans-30" transform="translate(179.199219 0)"/>
       <use xlink:href="#DejaVuSans-30" transform="translate(242.822266 0)"/>
      </g>
     </g>
    </g>
    <g id="xtick_2">
     <g id="text_2">
      <!-- −0.75 -->
      <g style="fill: #262626" transform="translate(86.838118 365.648281) scale(0.11 -0.11)">
       <defs>
        <path id="DejaVuSans-37" d="M 525 4666 
L 3525 4666 
L 3525 4397 
L 1831 0 
L 1172 0 
L 2766 4134 
L 525 4134 
L 525 4666 
z
" transform="scale(0.015625)"/>
        <path id="DejaVuSans-35" d="M 691 4666 
L 3169 4666 
L 3169 4134 
L 1269 4134 
L 1269 2991 
Q 1406 3038 1543 3061 
Q 1681 3084 1819 3084 
Q 2600 3084 3056 2656 
Q 3513 2228 3513 1497 
Q 3513 744 3044 326 
Q 2575 -91 1722 -91 
Q 1428 -91 1123 -41 
Q 819 9 494 109 
L 494 744 
Q 775 591 1075 516 
Q 1375 441 1709 441 
Q 2250 441 2565 725 
Q 2881 1009 2881 1497 
Q 2881 1984 2565 2268 
Q 2250 2553 1709 2553 
Q 1456 2553 1204 2497 
Q 953 2441 691 2322 
L 691 4666 
z
" transform="scale(0.015625)"/>
       </defs>
       <use xlink:href="#DejaVuSans-2212"/>
       <use xlink:href="#DejaVuSans-30" transform="translate(83.789062 0)"/>
       <use xlink:href="#DejaVuSans-2e" transform="translate(147.412109 0)"/>
       <use xlink:href="#DejaVuSans-37" transform="translate(179.199219 0)"/>
       <use xlink:href="#DejaVuSans-35" transform="translate(242.822266 0)"/>
      </g>
     </g>
    </g>
    <g id="xtick_3">
     <g id="text_3">
      <!-- −0.50 -->
      <g style="fill: #262626" transform="translate(124.507565 365.648281) scale(0.11 -0.11)">
       <use xlink:href="#DejaVuSans-2212"/>
       <use xlink:href="#DejaVuSans-30" transform="translate(83.789062 0)"/>
       <use xlink:href="#DejaVuSans-2e" transform="translate(147.412109 0)"/>
       <use xlink:href="#DejaVuSans-35" transform="translate(179.199219 0)"/>
       <use xlink:href="#DejaVuSans-30" transform="translate(242.822266 0)"/>
      </g>
     </g>
    </g>
    <g id="xtick_4">
     <g id="text_4">
      <!-- −0.25 -->
      <g style="fill: #262626" transform="translate(162.177011 365.648281) scale(0.11 -0.11)">
       <defs>
        <path id="DejaVuSans-32" d="M 1228 531 
L 3431 531 
L 3431 0 
L 469 0 
L 469 531 
Q 828 903 1448 1529 
Q 2069 2156 2228 2338 
Q 2531 2678 2651 2914 
Q 2772 3150 2772 3378 
Q 2772 3750 2511 3984 
Q 2250 4219 1831 4219 
Q 1534 4219 1204 4116 
Q 875 4013 500 3803 
L 500 4441 
Q 881 4594 1212 4672 
Q 1544 4750 1819 4750 
Q 2544 4750 2975 4387 
Q 3406 4025 3406 3419 
Q 3406 3131 3298 2873 
Q 3191 2616 2906 2266 
Q 2828 2175 2409 1742 
Q 1991 1309 1228 531 
z
" transform="scale(0.015625)"/>
       </defs>
       <use xlink:href="#DejaVuSans-2212"/>
       <use xlink:href="#DejaVuSans-30" transform="translate(83.789062 0)"/>
       <use xlink:href="#DejaVuSans-2e" transform="translate(147.412109 0)"/>
       <use xlink:href="#DejaVuSans-32" transform="translate(179.199219 0)"/>
       <use xlink:href="#DejaVuSans-35" transform="translate(242.822266 0)"/>
      </g>
     </g>
    </g>
    <g id="xtick_5">
     <g id="text_5">
      <!-- 0.00 -->
      <g style="fill: #262626" transform="translate(204.455286 365.648281) scale(0.11 -0.11)">
       <use xlink:href="#DejaVuSans-30"/>
       <use xlink:href="#DejaVuSans-2e" transform="translate(63.623047 0)"/>
       <use xlink:href="#DejaVuSans-30" transform="translate(95.410156 0)"/>
       <use xlink:href="#DejaVuSans-30" transform="translate(159.033203 0)"/>
      </g>
     </g>
    </g>
    <g id="xtick_6">
     <g id="text_6">
      <!-- 0.25 -->
      <g style="fill: #262626" transform="translate(242.124732 365.648281) scale(0.11 -0.11)">
       <use xlink:href="#DejaVuSans-30"/>
       <use xlink:href="#DejaVuSans-2e" transform="translate(63.623047 0)"/>
       <use xlink:href="#DejaVuSans-32" transform="translate(95.410156 0)"/>
       <use xlink:href="#DejaVuSans-35" transform="translate(159.033203 0)"/>
      </g>
     </g>
    </g>
    <g id="xtick_7">
     <g id="text_7">
      <!-- 0.50 -->
      <g style="fill: #262626" transform="translate(279.794179 365.648281) scale(0.11 -0.11)">
       <use xlink:href="#DejaVuSans-30"/>
       <use xlink:href="#DejaVuSans-2e" transform="translate(63.623047 0)"/>
       <use xlink:href="#DejaVuSans-35" transform="translate(95.410156 0)"/>
       <use xlink:href="#DejaVuSans-30" transform="translate(159.033203 0)"/>
      </g>
     </g>
    </g>
    <g id="xtick_8">
     <g id="text_8">
      <!-- 0.75 -->
      <g style="fill: #262626" transform="translate(317.463625 365.648281) scale(0.11 -0.11)">
       <use xlink:href="#DejaVuSans-30"/>
       <use xlink:href="#DejaVuSans-2e" transform="translate(63.623047 0)"/>
       <use xlink:href="#DejaVuSans-37" transform="translate(95.410156 0)"/>
       <use xlink:href="#DejaVuSans-35" transform="translate(159.033203 0)"/>
      </g>
     </g>
    </g>
    <g id="xtick_9">
     <g id="text_9">
      <!-- 1.00 -->
      <g style="fill: #262626" transform="translate(355.133071 365.648281) scale(0.11 -0.11)">
       <use xlink:href="#DejaVuSans-31"/>
       <use xlink:href="#DejaVuSans-2e" transform="translate(63.623047 0)"/>
       <use xlink:href="#DejaVuSans-30" transform="translate(95.410156 0)"/>
       <use xlink:href="#DejaVuSans-30" transform="translate(159.033203 0)"/>
      </g>
     </g>
    </g>
    <g id="text_10">
     <!-- Specific ROI [r] -->
     <g style="fill: #262626" transform="translate(171.722942 381.054062) scale(0.12 -0.12)">
      <defs>
       <path id="DejaVuSans-53" d="M 3425 4513 
L 3425 3897 
Q 3066 4069 2747 4153 
Q 2428 4238 2131 4238 
Q 1616 4238 1336 4038 
Q 1056 3838 1056 3469 
Q 1056 3159 1242 3001 
Q 1428 2844 1947 2747 
L 2328 2669 
Q 3034 2534 3370 2195 
Q 3706 1856 3706 1288 
Q 3706 609 3251 259 
Q 2797 -91 1919 -91 
Q 1588 -91 1214 -16 
Q 841 59 441 206 
L 441 856 
Q 825 641 1194 531 
Q 1563 422 1919 422 
Q 2459 422 2753 634 
Q 3047 847 3047 1241 
Q 3047 1584 2836 1778 
Q 2625 1972 2144 2069 
L 1759 2144 
Q 1053 2284 737 2584 
Q 422 2884 422 3419 
Q 422 4038 858 4394 
Q 1294 4750 2059 4750 
Q 2388 4750 2728 4690 
Q 3069 4631 3425 4513 
z
" transform="scale(0.015625)"/>
       <path id="DejaVuSans-70" d="M 1159 525 
L 1159 -1331 
L 581 -1331 
L 581 3500 
L 1159 3500 
L 1159 2969 
Q 1341 3281 1617 3432 
Q 1894 3584 2278 3584 
Q 2916 3584 3314 3078 
Q 3713 2572 3713 1747 
Q 3713 922 3314 415 
Q 2916 -91 2278 -91 
Q 1894 -91 1617 61 
Q 1341 213 1159 525 
z
M 3116 1747 
Q 3116 2381 2855 2742 
Q 2594 3103 2138 3103 
Q 1681 3103 1420 2742 
Q 1159 2381 1159 1747 
Q 1159 1113 1420 752 
Q 1681 391 2138 391 
Q 2594 391 2855 752 
Q 3116 1113 3116 1747 
z
" transform="scale(0.015625)"/>
       <path id="DejaVuSans-65" d="M 3597 1894 
L 3597 1613 
L 953 1613 
Q 991 1019 1311 708 
Q 1631 397 2203 397 
Q 2534 397 2845 478 
Q 3156 559 3463 722 
L 3463 178 
Q 3153 47 2828 -22 
Q 2503 -91 2169 -91 
Q 1331 -91 842 396 
Q 353 884 353 1716 
Q 353 2575 817 3079 
Q 1281 3584 2069 3584 
Q 2775 3584 3186 3129 
Q 3597 2675 3597 1894 
z
M 3022 2063 
Q 3016 2534 2758 2815 
Q 2500 3097 2075 3097 
Q 1594 3097 1305 2825 
Q 1016 2553 972 2059 
L 3022 2063 
z
" transform="scale(0.015625)"/>
       <path id="DejaVuSans-63" d="M 3122 3366 
L 3122 2828 
Q 2878 2963 2633 3030 
Q 2388 3097 2138 3097 
Q 1578 3097 1268 2742 
Q 959 2388 959 1747 
Q 959 1106 1268 751 
Q 1578 397 2138 397 
Q 2388 397 2633 464 
Q 2878 531 3122 666 
L 3122 134 
Q 2881 22 2623 -34 
Q 2366 -91 2075 -91 
Q 1284 -91 818 406 
Q 353 903 353 1747 
Q 353 2603 823 3093 
Q 1294 3584 2113 3584 
Q 2378 3584 2631 3529 
Q 2884 3475 3122 3366 
z
" transform="scale(0.015625)"/>
       <path id="DejaVuSans-69" d="M 603 3500 
L 1178 3500 
L 1178 0 
L 603 0 
L 603 3500 
z
M 603 4863 
L 1178 4863 
L 1178 4134 
L 603 4134 
L 603 4863 
z
" transform="scale(0.015625)"/>
       <path id="DejaVuSans-66" d="M 2375 4863 
L 2375 4384 
L 1825 4384 
Q 1516 4384 1395 4259 
Q 1275 4134 1275 3809 
L 1275 3500 
L 2222 3500 
L 2222 3053 
L 1275 3053 
L 1275 0 
L 697 0 
L 697 3053 
L 147 3053 
L 147 3500 
L 697 3500 
L 697 3744 
Q 697 4328 969 4595 
Q 1241 4863 1831 4863 
L 2375 4863 
z
" transform="scale(0.015625)"/>
       <path id="DejaVuSans-20" transform="scale(0.015625)"/>
       <path id="DejaVuSans-52" d="M 2841 2188 
Q 3044 2119 3236 1894 
Q 3428 1669 3622 1275 
L 4263 0 
L 3584 0 
L 2988 1197 
Q 2756 1666 2539 1819 
Q 2322 1972 1947 1972 
L 1259 1972 
L 1259 0 
L 628 0 
L 628 4666 
L 2053 4666 
Q 2853 4666 3247 4331 
Q 3641 3997 3641 3322 
Q 3641 2881 3436 2590 
Q 3231 2300 2841 2188 
z
M 1259 4147 
L 1259 2491 
L 2053 2491 
Q 2509 2491 2742 2702 
Q 2975 2913 2975 3322 
Q 2975 3731 2742 3939 
Q 2509 4147 2053 4147 
L 1259 4147 
z
" transform="scale(0.015625)"/>
       <path id="DejaVuSans-4f" d="M 2522 4238 
Q 1834 4238 1429 3725 
Q 1025 3213 1025 2328 
Q 1025 1447 1429 934 
Q 1834 422 2522 422 
Q 3209 422 3611 934 
Q 4013 1447 4013 2328 
Q 4013 3213 3611 3725 
Q 3209 4238 2522 4238 
z
M 2522 4750 
Q 3503 4750 4090 4092 
Q 4678 3434 4678 2328 
Q 4678 1225 4090 567 
Q 3503 -91 2522 -91 
Q 1538 -91 948 565 
Q 359 1222 359 2328 
Q 359 3434 948 4092 
Q 1538 4750 2522 4750 
z
" transform="scale(0.015625)"/>
       <path id="DejaVuSans-49" d="M 628 4666 
L 1259 4666 
L 1259 0 
L 628 0 
L 628 4666 
z
" transform="scale(0.015625)"/>
       <path id="DejaVuSans-5b" d="M 550 4863 
L 1875 4863 
L 1875 4416 
L 1125 4416 
L 1125 -397 
L 1875 -397 
L 1875 -844 
L 550 -844 
L 550 4863 
z
" transform="scale(0.015625)"/>
       <path id="DejaVuSans-72" d="M 2631 2963 
Q 2534 3019 2420 3045 
Q 2306 3072 2169 3072 
Q 1681 3072 1420 2755 
Q 1159 2438 1159 1844 
L 1159 0 
L 581 0 
L 581 3500 
L 1159 3500 
L 1159 2956 
Q 1341 3275 1631 3429 
Q 1922 3584 2338 3584 
Q 2397 3584 2469 3576 
Q 2541 3569 2628 3553 
L 2631 2963 
z
" transform="scale(0.015625)"/>
       <path id="DejaVuSans-5d" d="M 1947 4863 
L 1947 -844 
L 622 -844 
L 622 -397 
L 1369 -397 
L 1369 4416 
L 622 4416 
L 622 4863 
L 1947 4863 
z
" transform="scale(0.015625)"/>
      </defs>
      <use xlink:href="#DejaVuSans-53"/>
      <use xlink:href="#DejaVuSans-70" transform="translate(63.476562 0)"/>
      <use xlink:href="#DejaVuSans-65" transform="translate(126.953125 0)"/>
      <use xlink:href="#DejaVuSans-63" transform="translate(188.476562 0)"/>
      <use xlink:href="#DejaVuSans-69" transform="translate(243.457031 0)"/>
      <use xlink:href="#DejaVuSans-66" transform="translate(271.240234 0)"/>
      <use xlink:href="#DejaVuSans-69" transform="translate(306.445312 0)"/>
      <use xlink:href="#DejaVuSans-63" transform="translate(334.228516 0)"/>
      <use xlink:href="#DejaVuSans-20" transform="translate(389.208984 0)"/>
      <use xlink:href="#DejaVuSans-52" transform="translate(420.996094 0)"/>
      <use xlink:href="#DejaVuSans-4f" transform="translate(490.478516 0)"/>
      <use xlink:href="#DejaVuSans-49" transform="translate(569.189453 0)"/>
      <use xlink:href="#DejaVuSans-20" transform="translate(598.681641 0)"/>
      <use xlink:href="#DejaVuSans-5b" transform="translate(630.46875 0)"/>
      <use xlink:href="#DejaVuSans-72" transform="translate(669.482422 0)"/>
      <use xlink:href="#DejaVuSans-5d" transform="translate(710.595703 0)"/>
     </g>
    </g>
   </g>
   <g id="matplotlib.axis_2">
    <g id="ytick_1">
     <g id="text_11">
      <!-- −1.00 -->
      <g style="fill: #262626" transform="translate(22.81375 351.969141) scale(0.11 -0.11)">
       <use xlink:href="#DejaVuSans-2212"/>
       <use xlink:href="#DejaVuSans-31" transform="translate(83.789062 0)"/>
       <use xlink:href="#DejaVuSans-2e" transform="translate(147.412109 0)"/>
       <use xlink:href="#DejaVuSans-30" transform="translate(179.199219 0)"/>
       <use xlink:href="#DejaVuSans-30" transform="translate(242.822266 0)"/>
      </g>
     </g>
    </g>
    <g id="ytick_2">
     <g id="text_12">
      <!-- −0.75 -->
      <g style="fill: #262626" transform="translate(22.81375 316.693748) scale(0.11 -0.11)">
       <use xlink:href="#DejaVuSans-2212"/>
       <use xlink:href="#DejaVuSans-30" transform="translate(83.789062 0)"/>
       <use xlink:href="#DejaVuSans-2e" transform="translate(147.412109 0)"/>
       <use xlink:href="#DejaVuSans-37" transform="translate(179.199219 0)"/>
       <use xlink:href="#DejaVuSans-35" transform="translate(242.822266 0)"/>
      </g>
     </g>
    </g>
    <g id="ytick_3">
     <g id="text_13">
      <!-- −0.50 -->
      <g style="fill: #262626" transform="translate(22.81375 281.418355) scale(0.11 -0.11)">
       <use xlink:href="#DejaVuSans-2212"/>
       <use xlink:href="#DejaVuSans-30" transform="translate(83.789062 0)"/>
       <use xlink:href="#DejaVuSans-2e" transform="translate(147.412109 0)"/>
       <use xlink:href="#DejaVuSans-35" transform="translate(179.199219 0)"/>
       <use xlink:href="#DejaVuSans-30" transform="translate(242.822266 0)"/>
      </g>
     </g>
    </g>
    <g id="ytick_4">
     <g id="text_14">
      <!-- −0.25 -->
      <g style="fill: #262626" transform="translate(22.81375 246.142962) scale(0.11 -0.11)">
       <use xlink:href="#DejaVuSans-2212"/>
       <use xlink:href="#DejaVuSans-30" transform="translate(83.789062 0)"/>
       <use xlink:href="#DejaVuSans-2e" transform="translate(147.412109 0)"/>
       <use xlink:href="#DejaVuSans-32" transform="translate(179.199219 0)"/>
       <use xlink:href="#DejaVuSans-35" transform="translate(242.822266 0)"/>
      </g>
     </g>
    </g>
    <g id="ytick_5">
     <g id="text_15">
      <!-- 0.00 -->
      <g style="fill: #262626" transform="translate(32.031406 210.867569) scale(0.11 -0.11)">
       <use xlink:href="#DejaVuSans-30"/>
       <use xlink:href="#DejaVuSans-2e" transform="translate(63.623047 0)"/>
       <use xlink:href="#DejaVuSans-30" transform="translate(95.410156 0)"/>
       <use xlink:href="#DejaVuSans-30" transform="translate(159.033203 0)"/>
      </g>
     </g>
    </g>
    <g id="ytick_6">
     <g id="text_16">
      <!-- 0.25 -->
      <g style="fill: #262626" transform="translate(32.031406 175.592176) scale(0.11 -0.11)">
       <use xlink:href="#DejaVuSans-30"/>
       <use xlink:href="#DejaVuSans-2e" transform="translate(63.623047 0)"/>
       <use xlink:href="#DejaVuSans-32" transform="translate(95.410156 0)"/>
       <use xlink:href="#DejaVuSans-35" transform="translate(159.033203 0)"/>
      </g>
     </g>
    </g>
    <g id="ytick_7">
     <g id="text_17">
      <!-- 0.50 -->
      <g style="fill: #262626" transform="translate(32.031406 140.316783) scale(0.11 -0.11)">
       <use xlink:href="#DejaVuSans-30"/>
       <use xlink:href="#DejaVuSans-2e" transform="translate(63.623047 0)"/>
       <use xlink:href="#DejaVuSans-35" transform="translate(95.410156 0)"/>
       <use xlink:href="#DejaVuSans-30" transform="translate(159.033203 0)"/>
      </g>
     </g>
    </g>
    <g id="ytick_8">
     <g id="text_18">
      <!-- 0.75 -->
      <g style="fill: #262626" transform="translate(32.031406 105.041391) scale(0.11 -0.11)">
       <use xlink:href="#DejaVuSans-30"/>
       <use xlink:href="#DejaVuSans-2e" transform="translate(63.623047 0)"/>
       <use xlink:href="#DejaVuSans-37" transform="translate(95.410156 0)"/>
       <use xlink:href="#DejaVuSans-35" transform="translate(159.033203 0)"/>
      </g>
     </g>
    </g>
    <g id="ytick_9">
     <g id="text_19">
      <!-- 1.00 -->
      <g style="fill: #262626" transform="translate(32.031406 69.765998) scale(0.11 -0.11)">
       <use xlink:href="#DejaVuSans-31"/>
       <use xlink:href="#DejaVuSans-2e" transform="translate(63.623047 0)"/>
       <use xlink:href="#DejaVuSans-30" transform="translate(95.410156 0)"/>
       <use xlink:href="#DejaVuSans-30" transform="translate(159.033203 0)"/>
      </g>
     </g>
    </g>
    <g id="text_20">
     <!-- Unspecific ROI [r] -->
     <g style="fill: #262626" transform="translate(16.318125 259.177179) rotate(-90) scale(0.12 -0.12)">
      <defs>
       <path id="DejaVuSans-55" d="M 556 4666 
L 1191 4666 
L 1191 1831 
Q 1191 1081 1462 751 
Q 1734 422 2344 422 
Q 2950 422 3222 751 
Q 3494 1081 3494 1831 
L 3494 4666 
L 4128 4666 
L 4128 1753 
Q 4128 841 3676 375 
Q 3225 -91 2344 -91 
Q 1459 -91 1007 375 
Q 556 841 556 1753 
L 556 4666 
z
" transform="scale(0.015625)"/>
       <path id="DejaVuSans-6e" d="M 3513 2113 
L 3513 0 
L 2938 0 
L 2938 2094 
Q 2938 2591 2744 2837 
Q 2550 3084 2163 3084 
Q 1697 3084 1428 2787 
Q 1159 2491 1159 1978 
L 1159 0 
L 581 0 
L 581 3500 
L 1159 3500 
L 1159 2956 
Q 1366 3272 1645 3428 
Q 1925 3584 2291 3584 
Q 2894 3584 3203 3211 
Q 3513 2838 3513 2113 
z
" transform="scale(0.015625)"/>
       <path id="DejaVuSans-73" d="M 2834 3397 
L 2834 2853 
Q 2591 2978 2328 3040 
Q 2066 3103 1784 3103 
Q 1356 3103 1142 2972 
Q 928 2841 928 2578 
Q 928 2378 1081 2264 
Q 1234 2150 1697 2047 
L 1894 2003 
Q 2506 1872 2764 1633 
Q 3022 1394 3022 966 
Q 3022 478 2636 193 
Q 2250 -91 1575 -91 
Q 1294 -91 989 -36 
Q 684 19 347 128 
L 347 722 
Q 666 556 975 473 
Q 1284 391 1588 391 
Q 1994 391 2212 530 
Q 2431 669 2431 922 
Q 2431 1156 2273 1281 
Q 2116 1406 1581 1522 
L 1381 1569 
Q 847 1681 609 1914 
Q 372 2147 372 2553 
Q 372 3047 722 3315 
Q 1072 3584 1716 3584 
Q 2034 3584 2315 3537 
Q 2597 3491 2834 3397 
z
" transform="scale(0.015625)"/>
      </defs>
      <use xlink:href="#DejaVuSans-55"/>
      <use xlink:href="#DejaVuSans-6e" transform="translate(73.193359 0)"/>
      <use xlink:href="#DejaVuSans-73" transform="translate(136.572266 0)"/>
      <use xlink:href="#DejaVuSans-70" transform="translate(188.671875 0)"/>
      <use xlink:href="#DejaVuSans-65" transform="translate(252.148438 0)"/>
      <use xlink:href="#DejaVuSans-63" transform="translate(313.671875 0)"/>
      <use xlink:href="#DejaVuSans-69" transform="translate(368.652344 0)"/>
      <use xlink:href="#DejaVuSans-66" transform="translate(396.435547 0)"/>
      <use xlink:href="#DejaVuSans-69" transform="translate(431.640625 0)"/>
      <use xlink:href="#DejaVuSans-63" transform="translate(459.423828 0)"/>
      <use xlink:href="#DejaVuSans-20" transform="translate(514.404297 0)"/>
      <use xlink:href="#DejaVuSans-52" transform="translate(546.191406 0)"/>
      <use xlink:href="#DejaVuSans-4f" transform="translate(615.673828 0)"/>
      <use xlink:href="#DejaVuSans-49" transform="translate(694.384766 0)"/>
      <use xlink:href="#DejaVuSans-20" transform="translate(723.876953 0)"/>
      <use xlink:href="#DejaVuSans-5b" transform="translate(755.664062 0)"/>
      <use xlink:href="#DejaVuSans-72" transform="translate(794.677734 0)"/>
      <use xlink:href="#DejaVuSans-5d" transform="translate(835.791016 0)"/>
     </g>
    </g>
   </g>
   <g id="QuadContourSet_1">
    <path d="M 246.619273 278.925875 
L 248.226267 279.300151 
L 249.833261 279.518374 
L 251.440255 279.554925 
L 253.04725 279.380748 
L 254.654244 278.964286 
L 255.901697 278.435155 
L 256.261238 278.301462 
L 257.868232 277.486826 
L 258.171868 277.293466 
L 259.475227 276.556425 
L 260.077039 276.151777 
L 261.082221 275.541414 
L 261.850365 275.010089 
L 262.689215 274.478221 
L 263.559191 273.8684 
L 264.296209 273.389102 
L 265.237398 272.726711 
L 265.903204 272.288123 
L 266.9044 271.585023 
L 267.510198 271.184514 
L 268.572414 270.443334 
L 269.117192 270.08429 
L 270.249177 269.301645 
L 270.724187 268.990936 
L 271.938834 268.159957 
L 272.331181 267.905789 
L 273.642396 267.018268 
L 273.938175 266.828528 
L 275.358614 265.876579 
L 275.545169 265.757933 
L 277.085605 264.734891 
L 277.152164 264.692866 
L 278.759158 263.639556 
L 278.827668 263.593202 
L 280.366152 262.601192 
L 280.591291 262.451513 
L 281.973146 261.576064 
L 282.38412 261.309824 
L 283.580141 260.572277 
L 284.228453 260.168136 
L 285.187135 259.600629 
L 286.160897 259.026447 
L 286.794129 258.67323 
L 288.238977 257.884758 
L 288.401123 257.801473 
L 290.008118 257.029385 
L 290.646658 256.74307 
L 291.615112 256.341737 
L 293.222106 255.740172 
L 293.653475 255.601381 
L 294.8291 255.258067 
L 296.436095 254.8703 
L 298.043089 254.565035 
L 298.811844 254.459692 
L 299.650083 254.357712 
L 301.257077 254.232378 
L 302.864072 254.166085 
L 304.471066 254.146642 
L 306.07806 254.160459 
L 307.685054 254.193543 
L 309.292049 254.232195 
L 310.899043 254.263373 
L 312.506037 254.274751 
L 314.113031 254.254534 
L 315.720026 254.191136 
L 317.32702 254.072762 
L 318.934014 253.886995 
L 320.541009 253.620423 
L 321.895872 253.318004 
L 322.148003 253.267486 
L 323.754997 252.868595 
L 325.361991 252.366571 
L 325.881082 252.176315 
L 326.968986 251.808433 
L 328.57598 251.172681 
L 328.891281 251.034626 
L 330.182974 250.501721 
L 331.50942 249.892938 
L 331.789968 249.769324 
L 333.396963 249.022481 
L 333.954649 248.751249 
L 335.003957 248.255733 
L 336.330042 247.60956 
L 336.610951 247.475015 
L 338.217945 246.709921 
L 338.73136 246.467872 
L 339.82494 245.958929 
L 341.204302 245.326183 
L 341.431934 245.222179 
L 343.038928 244.516933 
L 343.815617 244.184494 
L 344.645922 243.829122 
L 346.252917 243.155935 
L 346.528389 243.042806 
L 347.859911 242.492022 
L 349.272285 241.901117 
L 349.466905 241.818138 
L 351.073899 241.125696 
L 351.889297 240.759428 
L 352.680894 240.392185 
L 354.256166 239.61774 
L 354.287888 239.601399 
L 355.894882 238.727362 
L 356.325168 238.476051 
L 357.501876 237.74293 
L 358.113211 237.334362 
L 359.108871 236.613199 
L 359.653368 236.192674 
L 360.715865 235.288995 
L 360.980727 235.050985 
L 362.123857 233.909296 
L 362.322859 233.686026 
L 363.109615 232.767608 
L 363.929853 231.665307 
L 363.958383 231.625919 
L 364.6855 230.48423 
L 365.303254 229.342542 
L 365.536848 228.832782 
L 365.824164 228.200853 
L 366.254257 227.059164 
L 366.600073 225.917475 
L 366.867232 224.775787 
L 367.059315 223.634098 
L 367.143842 222.817911 
L 367.17789 222.492409 
L 367.222656 221.350721 
L 367.192805 220.209032 
L 367.143842 219.679162 
L 367.085234 219.067343 
L 366.894544 217.925655 
L 366.616156 216.783966 
L 366.244545 215.642277 
L 365.774405 214.500589 
L 365.536848 214.017764 
L 365.185044 213.3589 
L 364.473341 212.217211 
L 363.929853 211.452013 
L 363.633465 211.075523 
L 362.650202 209.933834 
L 362.322859 209.577402 
L 361.517933 208.792145 
L 360.715865 208.031503 
L 360.26615 207.650457 
L 359.108871 206.651695 
L 358.925002 206.508768 
L 357.553089 205.367079 
L 357.501876 205.320158 
L 356.230193 204.225391 
L 355.894882 203.88555 
L 355.075816 203.083702 
L 354.287888 202.096295 
L 354.163889 201.942013 
L 353.470911 200.800325 
L 353.010174 199.658636 
L 352.730612 198.516947 
L 352.680894 198.136663 
L 352.582685 197.375259 
L 352.534862 196.23357 
L 352.555045 195.091881 
L 352.615146 193.950192 
L 352.680894 192.99088 
L 352.692445 192.808504 
L 352.768042 191.666815 
L 352.832799 190.525126 
L 352.879012 189.383438 
L 352.902606 188.241749 
L 352.902713 187.10006 
L 352.881288 185.958372 
L 352.842768 184.816683 
L 352.793809 183.674994 
L 352.743098 182.533306 
L 352.701267 181.391617 
L 352.680894 180.249928 
L 352.680894 180.249928 
L 352.680894 180.249928 
L 352.696545 179.10824 
L 352.764792 177.966551 
L 352.904029 176.824862 
L 353.133798 175.683174 
L 353.473153 174.541485 
L 353.937401 173.399796 
L 354.287888 172.703736 
L 354.545586 172.258108 
L 355.303882 171.116419 
L 355.894882 170.305152 
L 356.170228 169.97473 
L 357.088401 168.833042 
L 357.501876 168.241269 
L 357.920797 167.691353 
L 358.520306 166.549664 
L 358.748614 165.407976 
L 358.533047 164.266287 
L 357.869943 163.124598 
L 357.501876 162.736973 
L 356.846865 161.982909 
L 355.894882 161.148181 
L 355.589131 160.841221 
L 354.287888 159.741014 
L 354.246082 159.699532 
L 352.943044 158.557843 
L 352.680894 158.344924 
L 351.709378 157.416155 
L 351.073899 156.835019 
L 350.547682 156.274466 
L 349.466905 155.152706 
L 349.450149 155.132777 
L 348.445027 153.991089 
L 347.859911 153.334291 
L 347.472465 152.8494 
L 346.536568 151.707711 
L 346.252917 151.37152 
L 345.625503 150.566023 
L 344.707322 149.424334 
L 344.645922 149.351296 
L 343.791864 148.282645 
L 343.038928 147.38992 
L 342.835009 147.140957 
L 341.835284 145.999268 
L 341.431934 145.570423 
L 340.760238 144.857579 
L 339.82494 143.946303 
L 339.582391 143.715891 
L 338.268245 142.574202 
L 338.217945 142.533801 
L 336.761546 141.432513 
L 336.610951 141.327677 
L 335.003957 140.302303 
L 334.984053 140.290825 
L 333.396963 139.440001 
L 332.773373 139.149136 
L 331.789968 138.716503 
L 330.182974 138.118353 
L 329.828434 138.007447 
L 328.57598 137.629701 
L 326.968986 137.240964 
L 325.361991 136.942058 
L 324.80888 136.865759 
L 323.754997 136.721027 
L 322.148003 136.571646 
L 320.541009 136.487057 
L 318.934014 136.459308 
L 317.32702 136.480362 
L 315.720026 136.541756 
L 314.113031 136.634282 
L 312.506037 136.747704 
L 310.960933 136.865759 
L 310.899043 136.870425 
L 309.292049 136.986484 
L 307.685054 137.085468 
L 306.07806 137.153272 
L 304.471066 137.175837 
L 302.864072 137.140124 
L 301.257077 137.035304 
L 299.753298 136.865759 
L 299.650083 136.853539 
L 298.043089 136.582081 
L 296.436095 136.229092 
L 294.8291 135.801595 
L 294.575187 135.72407 
L 293.222106 135.288606 
L 291.615112 134.718633 
L 291.254267 134.582381 
L 290.008118 134.083122 
L 288.45796 133.440693 
L 288.401123 133.415582 
L 286.794129 132.699294 
L 285.882039 132.299004 
L 285.187135 131.972447 
L 283.580141 131.24499 
L 283.373015 131.157315 
L 281.973146 130.522057 
L 280.753646 130.015627 
L 280.366152 129.844417 
L 278.759158 129.220805 
L 277.696475 128.873938 
L 277.152164 128.686955 
L 275.545169 128.260866 
L 273.938175 127.971923 
L 272.331181 127.84125 
L 270.724187 127.892961 
L 269.117192 128.153977 
L 267.510198 128.653433 
L 267.030324 128.873938 
L 265.903204 129.411337 
L 264.94871 130.015627 
L 264.296209 130.426077 
L 263.338205 131.157315 
L 262.689215 131.621846 
L 261.859334 132.299004 
L 261.082221 132.859687 
L 260.341631 133.440693 
L 259.475227 134.014675 
L 258.657101 134.582381 
L 257.868232 135.032351 
L 256.675374 135.72407 
L 256.261238 135.919643 
L 254.654244 136.673531 
L 254.235234 136.865759 
L 253.04725 137.310988 
L 251.440255 137.892604 
L 251.10799 138.007447 
L 249.833261 138.372898 
L 248.226267 138.811497 
L 246.920685 139.149136 
L 246.619273 139.215145 
L 245.012278 139.54672 
L 243.405284 139.86141 
L 241.79829 140.160301 
L 241.052971 140.290825 
L 240.191296 140.4226 
L 238.584301 140.655554 
L 236.977307 140.879143 
L 235.370313 141.09427 
L 233.763319 141.301588 
L 232.699483 141.432513 
L 232.156324 141.492884 
L 230.54933 141.661888 
L 228.942336 141.824534 
L 227.335342 141.97974 
L 225.728347 142.125776 
L 224.121353 142.260193 
L 222.514359 142.379764 
L 220.907364 142.480472 
L 219.30037 142.557551 
L 218.732504 142.574202 
L 217.693376 142.602753 
L 216.086382 142.614959 
L 214.479387 142.589952 
L 214.098452 142.574202 
L 212.872393 142.5176 
L 211.265399 142.392694 
L 209.658405 142.21307 
L 208.05141 141.976794 
L 206.444416 141.683905 
L 205.277972 141.432513 
L 204.837422 141.331214 
L 203.230428 140.915345 
L 201.623433 140.45996 
L 201.064745 140.290825 
L 200.016439 139.961755 
L 198.409445 139.441757 
L 197.514419 139.149136 
L 196.802451 138.910963 
L 195.195456 138.382938 
L 194.002511 138.007447 
L 193.588462 137.874911 
L 191.981468 137.392358 
L 190.374474 136.955961 
L 189.99947 136.865759 
L 188.767479 136.564313 
L 187.160485 136.232978 
L 185.553491 135.969503 
L 183.946497 135.778908 
L 183.156175 135.72407 
L 182.339502 135.665615 
L 180.732508 135.638467 
L 179.125514 135.706069 
L 178.952462 135.72407 
L 177.51852 135.875868 
L 175.911525 136.160966 
L 174.304531 136.577076 
L 173.463055 136.865759 
L 172.697537 137.147449 
L 171.090542 137.902274 
L 170.903795 138.007447 
L 169.483548 138.903938 
L 169.152401 139.149136 
L 167.876554 140.245391 
L 167.829602 140.290825 
L 166.813841 141.432513 
L 166.26956 142.189712 
L 166.012595 142.574202 
L 165.391618 143.715891 
L 164.916429 144.857579 
L 164.662565 145.675043 
L 164.564184 145.999268 
L 164.314477 147.140957 
L 164.154007 148.282645 
L 164.067928 149.424334 
L 164.041999 150.566023 
L 164.062176 151.707711 
L 164.11439 152.8494 
L 164.184562 153.991089 
L 164.25887 155.132777 
L 164.324265 156.274466 
L 164.369157 157.416155 
L 164.38416 158.557843 
L 164.362735 159.699532 
L 164.301551 160.841221 
L 164.200502 161.982909 
L 164.062318 163.124598 
L 163.891896 164.266287 
L 163.695466 165.407976 
L 163.479756 166.549664 
L 163.251296 167.691353 
L 163.055571 168.634576 
L 163.011478 168.833042 
L 162.746681 169.97473 
L 162.482705 171.116419 
L 162.222963 172.258108 
L 161.96993 173.399796 
L 161.725355 174.541485 
L 161.490481 175.683174 
L 161.448577 175.891732 
L 161.241645 176.824862 
L 161.000024 177.966551 
L 160.772339 179.10824 
L 160.559719 180.249928 
L 160.363361 181.391617 
L 160.184517 182.533306 
L 160.02445 183.674994 
L 159.884363 184.816683 
L 159.841583 185.223353 
L 159.754182 185.958372 
L 159.642895 187.10006 
L 159.557466 188.241749 
L 159.498272 189.383438 
L 159.465353 190.525126 
L 159.458401 191.666815 
L 159.476771 192.808504 
L 159.519495 193.950192 
L 159.5853 195.091881 
L 159.672631 196.23357 
L 159.779668 197.375259 
L 159.841583 197.94499 
L 159.895971 198.516947 
L 160.017088 199.658636 
L 160.148928 200.800325 
L 160.288977 201.942013 
L 160.434471 203.083702 
L 160.582362 204.225391 
L 160.72928 205.367079 
L 160.871502 206.508768 
L 161.004938 207.650457 
L 161.125134 208.792145 
L 161.227311 209.933834 
L 161.306442 211.075523 
L 161.357362 212.217211 
L 161.374909 213.3589 
L 161.35408 214.500589 
L 161.290193 215.642277 
L 161.179015 216.783966 
L 161.016864 217.925655 
L 160.800648 219.067343 
L 160.527842 220.209032 
L 160.196421 221.350721 
L 159.841583 222.388631 
L 159.799308 222.492409 
L 159.280784 223.634098 
L 158.693333 224.775787 
L 158.234588 225.585002 
L 158.00859 225.917475 
L 157.183666 227.059164 
L 156.627594 227.781238 
L 156.239628 228.200853 
L 155.145671 229.342542 
L 155.0206 229.473225 
L 153.859936 230.48423 
L 153.413606 230.876884 
L 152.401309 231.625919 
L 151.806611 232.085209 
L 150.769747 232.767608 
L 150.199617 233.173134 
L 149.007489 233.909296 
L 148.592623 234.197654 
L 147.214599 235.050985 
L 146.985629 235.219201 
L 145.548284 236.192674 
L 145.378634 236.339897 
L 144.185592 237.334362 
L 143.77164 237.839535 
L 143.251511 238.476051 
L 142.8466 239.61774 
L 143.105362 240.759428 
L 143.77164 241.447272 
L 144.369435 241.901117 
L 145.378634 242.3241 
L 146.985629 242.797484 
L 148.180205 243.042806 
L 148.592623 243.104853 
L 150.199617 243.294703 
L 151.806611 243.452479 
L 153.413606 243.603109 
L 155.0206 243.766881 
L 156.627594 243.960282 
L 158.149407 244.184494 
L 158.234588 244.195817 
L 159.841583 244.470403 
L 161.448577 244.812141 
L 163.055571 245.228609 
L 163.369116 245.326183 
L 164.662565 245.726586 
L 166.26956 246.318727 
L 166.619252 246.467872 
L 167.876554 247.029086 
L 169.010713 247.60956 
L 169.483548 247.871091 
L 170.898548 248.751249 
L 171.090542 248.883872 
L 172.4216 249.892938 
L 172.697537 250.130366 
L 173.681532 251.034626 
L 174.304531 251.694384 
L 174.743109 252.176315 
L 175.647137 253.318004 
L 175.911525 253.696642 
L 176.441973 254.459692 
L 177.151871 255.601381 
L 177.51852 256.240199 
L 177.815601 256.74307 
L 178.462683 257.884758 
L 179.095973 259.026447 
L 179.125514 259.07814 
L 179.789403 260.168136 
L 180.511162 261.309824 
L 180.732508 261.636814 
L 181.340718 262.451513 
L 182.260536 263.593202 
L 182.339502 263.682678 
L 183.404254 264.734891 
L 183.946497 265.223001 
L 184.819221 265.876579 
L 185.553491 266.376496 
L 186.761722 267.018268 
L 187.160485 267.211487 
L 188.767479 267.758599 
L 190.374474 268.070956 
L 191.981468 268.142399 
L 193.588462 267.966777 
L 195.195456 267.541781 
L 196.464081 267.018268 
L 196.802451 266.855225 
L 198.374333 265.876579 
L 198.409445 265.85104 
L 199.7554 264.734891 
L 200.016439 264.489755 
L 200.945388 263.593202 
L 201.623433 262.904952 
L 202.10836 262.451513 
L 203.230428 261.460604 
L 203.445716 261.309824 
L 204.837422 260.482183 
L 205.735202 260.168136 
L 206.444416 259.972158 
L 208.05141 259.834366 
L 209.658405 259.967733 
L 210.556462 260.168136 
L 211.265399 260.325809 
L 212.872393 260.878792 
L 213.861857 261.309824 
L 214.479387 261.574597 
L 216.086382 262.397041 
L 216.178283 262.451513 
L 217.693376 263.330423 
L 218.105002 263.593202 
L 219.30037 264.334256 
L 219.899605 264.734891 
L 220.907364 265.386256 
L 221.624342 265.876579 
L 222.514359 266.463995 
L 223.322685 267.018268 
L 224.121353 267.54713 
L 225.027896 268.159957 
L 225.728347 268.618504 
L 226.767917 269.301645 
L 227.335342 269.66458 
L 228.5679 270.443334 
L 228.942336 270.675361 
L 230.450899 271.585023 
L 230.54933 271.643846 
L 232.156324 272.572088 
L 232.439191 272.726711 
L 233.763319 273.458044 
L 234.559563 273.8684 
L 235.370313 274.298116 
L 236.824012 275.010089 
L 236.977307 275.088964 
L 238.584301 275.851036 
L 239.289427 276.151777 
L 240.191296 276.569932 
L 241.79829 277.232723 
L 241.969165 277.293466 
L 243.405284 277.871621 
L 245.012278 278.41943 
L 245.071237 278.435155 
L 246.619273 278.925875 
z
" clip-path="url(#p8ede931c26)" style="fill: none; stroke: #aadce0; stroke-width: 1.5"/>
    <path d="M 248.226267 258.092686 
L 249.833261 258.270253 
L 251.440255 258.378893 
L 253.04725 258.419983 
L 254.654244 258.394686 
L 256.261238 258.303778 
L 257.868232 258.147467 
L 259.475227 257.925243 
L 259.697488 257.884758 
L 261.082221 257.652303 
L 262.689215 257.316928 
L 264.296209 256.913521 
L 264.874276 256.74307 
L 265.903204 256.456758 
L 267.510198 255.938887 
L 268.430096 255.601381 
L 269.117192 255.359284 
L 270.724187 254.723025 
L 271.325881 254.459692 
L 272.331181 254.030987 
L 273.852764 253.318004 
L 273.938175 253.278696 
L 275.545169 252.488713 
L 276.143627 252.176315 
L 277.152164 251.656106 
L 278.305612 251.034626 
L 278.759158 250.792663 
L 280.366152 249.914634 
L 280.405876 249.892938 
L 281.973146 249.047751 
L 282.529203 248.751249 
L 283.580141 248.199094 
L 284.738317 247.60956 
L 285.187135 247.384975 
L 286.794129 246.62516 
L 287.153478 246.467872 
L 288.401123 245.933635 
L 289.957674 245.326183 
L 290.008118 245.306907 
L 291.615112 244.767767 
L 293.222106 244.299977 
L 293.697936 244.184494 
L 294.8291 243.914907 
L 296.436095 243.604419 
L 298.043089 243.361576 
L 299.650083 243.18006 
L 301.257077 243.050734 
L 301.40202 243.042806 
L 302.864072 242.962613 
L 304.471066 242.900914 
L 306.07806 242.851052 
L 307.685054 242.797662 
L 309.292049 242.725064 
L 310.899043 242.617733 
L 312.506037 242.460666 
L 314.113031 242.239644 
L 315.720026 241.941418 
L 315.891884 241.901117 
L 317.32702 241.540542 
L 318.934014 241.032798 
L 319.655452 240.759428 
L 320.541009 240.388131 
L 322.105582 239.61774 
L 322.148003 239.593933 
L 323.754997 238.583039 
L 323.910323 238.476051 
L 325.319049 237.334362 
L 325.361991 237.291942 
L 326.425301 236.192674 
L 326.968986 235.471341 
L 327.281937 235.050985 
L 327.911179 233.909296 
L 328.322002 232.767608 
L 328.524088 231.625919 
L 328.525655 230.48423 
L 328.334503 229.342542 
L 327.959181 228.200853 
L 327.410282 227.059164 
L 326.968986 226.342344 
L 326.714865 225.917475 
L 325.913471 224.775787 
L 325.361991 224.071768 
L 325.029798 223.634098 
L 324.116102 222.492409 
L 323.754997 222.047336 
L 323.213056 221.350721 
L 322.354102 220.209032 
L 322.148003 219.914501 
L 321.588158 219.067343 
L 320.922153 217.925655 
L 320.541009 217.150915 
L 320.373012 216.783966 
L 319.956166 215.642277 
L 319.647248 214.500589 
L 319.436917 213.3589 
L 319.310021 212.217211 
L 319.247143 211.075523 
L 319.226315 209.933834 
L 319.224661 208.792145 
L 319.219759 207.650457 
L 319.190625 206.508768 
L 319.118318 205.367079 
L 318.986206 204.225391 
L 318.934014 203.933715 
L 318.78946 203.083702 
L 318.515367 201.942013 
L 318.152292 200.800325 
L 317.694485 199.658636 
L 317.32702 198.894661 
L 317.151004 198.516947 
L 316.542108 197.375259 
L 315.852473 196.23357 
L 315.720026 196.027364 
L 315.135757 195.091881 
L 314.385431 193.950192 
L 314.113031 193.535655 
L 313.649648 192.808504 
L 312.943899 191.666815 
L 312.506037 190.907774 
L 312.292852 190.525126 
L 311.733151 189.383438 
L 311.256444 188.241749 
L 310.899043 187.169372 
L 310.876832 187.10006 
L 310.612996 185.958372 
L 310.439648 184.816683 
L 310.34598 183.674994 
L 310.315546 182.533306 
L 310.328022 181.391617 
L 310.361024 180.249928 
L 310.391754 179.10824 
L 310.398296 177.966551 
L 310.360512 176.824862 
L 310.260547 175.683174 
L 310.082997 174.541485 
L 309.814786 173.399796 
L 309.444808 172.258108 
L 309.292049 171.883389 
L 308.973582 171.116419 
L 308.3905 169.97473 
L 307.685054 168.837071 
L 307.682489 168.833042 
L 306.870487 167.691353 
L 306.07806 166.726621 
L 305.929616 166.549664 
L 304.889777 165.407976 
L 304.471066 164.986112 
L 303.755569 164.266287 
L 302.864072 163.435129 
L 302.53847 163.124598 
L 301.262693 161.982909 
L 301.257077 161.978117 
L 299.991012 160.841221 
L 299.650083 160.554228 
L 298.701674 159.699532 
L 298.043089 159.145273 
L 297.396476 158.557843 
L 296.436095 157.748605 
L 296.070208 157.416155 
L 294.8291 156.378049 
L 294.713195 156.274466 
L 293.324083 155.132777 
L 293.222106 155.055739 
L 291.876421 153.991089 
L 291.615112 153.802217 
L 290.328544 152.8494 
L 290.008118 152.631796 
L 288.645924 151.707711 
L 288.401123 151.554335 
L 286.794129 150.575853 
L 286.777347 150.566023 
L 285.187135 149.694579 
L 284.650465 149.424334 
L 283.580141 148.912946 
L 282.089769 148.282645 
L 281.973146 148.235085 
L 280.366152 147.642942 
L 278.759158 147.154146 
L 278.708546 147.140957 
L 277.152164 146.737765 
L 275.545169 146.409897 
L 273.938175 146.162104 
L 272.465408 145.999268 
L 272.331181 145.984003 
L 270.724187 145.859328 
L 269.117192 145.792403 
L 267.510198 145.77545 
L 265.903204 145.801406 
L 264.296209 145.863976 
L 262.689215 145.957647 
L 262.139033 145.999268 
L 261.082221 146.070919 
L 259.475227 146.200882 
L 257.868232 146.348164 
L 256.261238 146.510521 
L 254.654244 146.68635 
L 253.04725 146.874644 
L 251.440255 147.074942 
L 250.938666 147.140957 
L 249.833261 147.275995 
L 248.226267 147.483412 
L 246.619273 147.703035 
L 245.012278 147.935887 
L 243.405284 148.183162 
L 242.788817 148.282645 
L 241.79829 148.435377 
L 240.191296 148.696831 
L 238.584301 148.975196 
L 236.977307 149.271455 
L 236.183652 149.424334 
L 235.370313 149.577123 
L 233.763319 149.891632 
L 232.156324 150.223451 
L 230.575873 150.566023 
L 230.54933 150.57169 
L 228.942336 150.916359 
L 227.335342 151.272868 
L 225.728347 151.639068 
L 225.42354 151.707711 
L 224.121353 151.995519 
L 222.514359 152.350244 
L 220.907364 152.704157 
L 220.227677 152.8494 
L 219.30037 153.041671 
L 217.693376 153.362668 
L 216.086382 153.674348 
L 214.479387 153.975729 
L 214.391531 153.991089 
L 212.872393 154.244836 
L 211.265399 154.501082 
L 209.658405 154.746478 
L 208.05141 154.982354 
L 206.976348 155.132777 
L 206.444416 155.20356 
L 204.837422 155.405938 
L 203.230428 155.60609 
L 201.623433 155.808531 
L 200.016439 156.019359 
L 198.409445 156.246865 
L 198.224288 156.274466 
L 196.802451 156.479261 
L 195.195456 156.747184 
L 193.588462 157.072152 
L 192.213264 157.416155 
L 191.981468 157.472915 
L 190.374474 157.940669 
L 188.767479 158.55277 
L 188.756253 158.557843 
L 187.160485 159.275781 
L 186.406767 159.699532 
L 185.553491 160.1813 
L 184.582733 160.841221 
L 183.946497 161.280682 
L 183.075648 161.982909 
L 182.339502 162.594642 
L 181.778379 163.124598 
L 180.732508 164.158965 
L 180.634695 164.266287 
L 179.613787 165.407976 
L 179.125514 165.992014 
L 178.691795 166.549664 
L 177.856808 167.691353 
L 177.51852 168.18658 
L 177.09601 168.833042 
L 176.40343 169.97473 
L 175.911525 170.866124 
L 175.775975 171.116419 
L 175.194111 172.258108 
L 174.670318 173.399796 
L 174.304531 174.277208 
L 174.193278 174.541485 
L 173.745226 175.683174 
L 173.340398 176.824862 
L 172.974447 177.966551 
L 172.697537 178.917801 
L 172.640041 179.10824 
L 172.321248 180.249928 
L 172.033864 181.391617 
L 171.77612 182.533306 
L 171.546802 183.674994 
L 171.345141 184.816683 
L 171.170693 185.958372 
L 171.090542 186.575077 
L 171.018015 187.10006 
L 170.887891 188.241749 
L 170.786182 189.383438 
L 170.712461 190.525126 
L 170.666108 191.666815 
L 170.646272 192.808504 
L 170.651881 193.950192 
L 170.681658 195.091881 
L 170.73416 196.23357 
L 170.807821 197.375259 
L 170.901001 198.516947 
L 171.012018 199.658636 
L 171.090542 200.364773 
L 171.135138 200.800325 
L 171.264774 201.942013 
L 171.405824 203.083702 
L 171.556777 204.225391 
L 171.716153 205.367079 
L 171.882495 206.508768 
L 172.054376 207.650457 
L 172.230426 208.792145 
L 172.409378 209.933834 
L 172.590149 211.075523 
L 172.697537 211.755043 
L 172.765801 212.217211 
L 172.933234 213.3589 
L 173.101571 214.500589 
L 173.271745 215.642277 
L 173.445547 216.783966 
L 173.625809 217.925655 
L 173.816587 219.067343 
L 174.023363 220.209032 
L 174.25326 221.350721 
L 174.304531 221.581989 
L 174.499856 222.492409 
L 174.782832 223.634098 
L 175.118561 224.775787 
L 175.522429 225.917475 
L 175.911525 226.834414 
L 176.006326 227.059164 
L 176.565716 228.200853 
L 177.251596 229.342542 
L 177.51852 229.72465 
L 178.058093 230.48423 
L 179.026751 231.625919 
L 179.125514 231.729395 
L 180.150494 232.767608 
L 180.732508 233.282453 
L 181.474091 233.909296 
L 182.339502 234.567165 
L 183.013359 235.050985 
L 183.946497 235.669198 
L 184.792952 236.192674 
L 185.553491 236.636677 
L 186.849147 237.334362 
L 187.160485 237.49588 
L 188.767479 238.273043 
L 189.222349 238.476051 
L 190.374474 238.982534 
L 191.981468 239.616921 
L 191.983652 239.61774 
L 193.588462 240.221052 
L 195.195456 240.759428 
L 195.195456 240.759428 
L 196.802451 241.28659 
L 198.409445 241.76665 
L 198.876447 241.901117 
L 200.016439 242.239612 
L 201.623433 242.693921 
L 202.908997 243.042806 
L 203.230428 243.133833 
L 204.837422 243.590434 
L 206.444416 244.034008 
L 206.983428 244.184494 
L 208.05141 244.499448 
L 209.658405 244.973837 
L 210.850918 245.326183 
L 211.265399 245.456875 
L 212.872393 245.974275 
L 214.41722 246.467872 
L 214.479387 246.489262 
L 216.086382 247.054423 
L 217.688927 247.60956 
L 217.693376 247.611232 
L 219.30037 248.220921 
L 220.730636 248.751249 
L 220.907364 248.82268 
L 222.514359 249.4659 
L 223.615851 249.892938 
L 224.121353 250.107116 
L 225.728347 250.766698 
L 226.409078 251.034626 
L 227.335342 251.433185 
L 228.942336 252.08882 
L 229.168313 252.176315 
L 230.54933 252.759967 
L 231.966432 253.318004 
L 232.156324 253.39943 
L 233.763319 254.043521 
L 234.892294 254.459692 
L 235.370313 254.650721 
L 236.977307 255.240407 
L 238.063381 255.601381 
L 238.584301 255.787865 
L 240.191296 256.306207 
L 241.731154 256.74307 
L 241.79829 256.76341 
L 243.405284 257.192093 
L 245.012278 257.55321 
L 246.619273 257.847832 
L 246.872236 257.884758 
L 248.226267 258.092686 
z
" clip-path="url(#p8ede931c26)" style="fill: none; stroke: #aadce0; stroke-width: 1.5"/>
    <path d="M 249.833261 246.624274 
L 251.440255 246.794939 
L 253.04725 246.931862 
L 254.654244 247.027522 
L 256.261238 247.073789 
L 257.868232 247.062331 
L 259.475227 246.985023 
L 261.082221 246.83436 
L 262.689215 246.603822 
L 263.385363 246.467872 
L 264.296209 246.292342 
L 265.903204 245.896313 
L 267.510198 245.410696 
L 267.749586 245.326183 
L 269.117192 244.845899 
L 270.724187 244.198032 
L 270.754611 244.184494 
L 272.331181 243.486179 
L 273.250891 243.042806 
L 273.938175 242.713585 
L 275.533309 241.901117 
L 275.545169 241.895128 
L 277.152164 241.054522 
L 277.703446 240.759428 
L 278.759158 240.200286 
L 279.851341 239.61774 
L 280.366152 239.346051 
L 281.973146 238.503464 
L 282.026737 238.476051 
L 283.580141 237.68609 
L 284.290597 237.334362 
L 285.187135 236.890169 
L 286.637426 236.192674 
L 286.794129 236.116489 
L 288.401123 235.366186 
L 289.101371 235.050985 
L 290.008118 234.629037 
L 291.590928 233.909296 
L 291.615112 233.897698 
L 293.222106 233.154833 
L 294.066055 232.767608 
L 294.8291 232.383305 
L 296.314575 231.625919 
L 296.436095 231.55554 
L 298.043089 230.609281 
L 298.249245 230.48423 
L 299.650083 229.446561 
L 299.783707 229.342542 
L 300.945275 228.200853 
L 301.257077 227.790318 
L 301.78614 227.059164 
L 302.377143 225.917475 
L 302.779127 224.775787 
L 302.864072 224.441262 
L 303.064163 223.634098 
L 303.263246 222.492409 
L 303.403953 221.350721 
L 303.509895 220.209032 
L 303.597559 219.067343 
L 303.677932 217.925655 
L 303.757605 216.783966 
L 303.839543 215.642277 
L 303.923624 214.500589 
L 304.007035 213.3589 
L 304.084598 212.217211 
L 304.14905 211.075523 
L 304.191334 209.933834 
L 304.200908 208.792145 
L 304.166107 207.650457 
L 304.074585 206.508768 
L 303.913832 205.367079 
L 303.671809 204.225391 
L 303.33768 203.083702 
L 302.902661 201.942013 
L 302.864072 201.858215 
L 302.390701 200.800325 
L 301.777215 199.658636 
L 301.257077 198.82003 
L 301.073237 198.516947 
L 300.308875 197.375259 
L 299.650083 196.476665 
L 299.475193 196.23357 
L 298.617361 195.091881 
L 298.043089 194.354483 
L 297.733778 193.950192 
L 296.858649 192.808504 
L 296.436095 192.248804 
L 296.004553 191.666815 
L 295.185403 190.525126 
L 294.8291 190.000899 
L 294.417289 189.383438 
L 293.703024 188.241749 
L 293.222106 187.418332 
L 293.039975 187.10006 
L 292.444666 185.958372 
L 291.885593 184.816683 
L 291.615112 184.219478 
L 291.374068 183.674994 
L 290.900546 182.533306 
L 290.438553 181.391617 
L 290.008118 180.322026 
L 289.979989 180.249928 
L 289.541129 179.10824 
L 289.085946 177.966551 
L 288.608886 176.824862 
L 288.401123 176.347374 
L 288.126148 175.683174 
L 287.632871 174.541485 
L 287.116701 173.399796 
L 286.794129 172.713107 
L 286.592818 172.258108 
L 286.069896 171.116419 
L 285.527612 169.97473 
L 285.187135 169.285903 
L 284.975179 168.833042 
L 284.413817 167.691353 
L 283.817386 166.549664 
L 283.580141 166.12633 
L 283.190375 165.407976 
L 282.512786 164.266287 
L 281.973146 163.44577 
L 281.763016 163.124598 
L 280.927895 161.982909 
L 280.366152 161.305118 
L 279.970993 160.841221 
L 278.859762 159.699532 
L 278.759158 159.607548 
L 277.533735 158.557843 
L 277.152164 158.269809 
L 275.907791 157.416155 
L 275.545169 157.194464 
L 273.938175 156.328038 
L 273.824335 156.274466 
L 272.331181 155.636455 
L 270.89933 155.132777 
L 270.724187 155.075811 
L 269.117192 154.635948 
L 267.510198 154.290462 
L 265.903204 154.026917 
L 265.612363 153.991089 
L 264.296209 153.835817 
L 262.689215 153.706267 
L 261.082221 153.630402 
L 259.475227 153.60201 
L 257.868232 153.616095 
L 256.261238 153.668761 
L 254.654244 153.757099 
L 253.04725 153.879071 
L 251.881251 153.991089 
L 251.440255 154.033443 
L 249.833261 154.219417 
L 248.226267 154.436415 
L 246.619273 154.684451 
L 245.012278 154.963725 
L 244.132712 155.132777 
L 243.405284 155.275184 
L 241.79829 155.61797 
L 240.191296 155.990103 
L 239.043859 156.274466 
L 238.584301 156.390902 
L 236.977307 156.817102 
L 235.370313 157.262831 
L 234.830616 157.416155 
L 233.763319 157.72278 
L 232.156324 158.188324 
L 230.878995 158.557843 
L 230.54933 158.652688 
L 228.942336 159.103367 
L 227.335342 159.539414 
L 226.720594 159.699532 
L 225.728347 159.949492 
L 224.121353 160.33252 
L 222.514359 160.69417 
L 221.826086 160.841221 
L 220.907364 161.027333 
L 219.30037 161.33674 
L 217.693376 161.633983 
L 216.086382 161.924512 
L 215.760924 161.982909 
L 214.479387 162.200374 
L 212.872393 162.476367 
L 211.265399 162.761643 
L 209.658405 163.062097 
L 209.340614 163.124598 
L 208.05141 163.368579 
L 206.444416 163.696895 
L 204.837422 164.057216 
L 203.981926 164.266287 
L 203.230428 164.446986 
L 201.623433 164.870987 
L 200.016439 165.349597 
L 199.835852 165.407976 
L 198.409445 165.873458 
L 196.802451 166.47153 
L 196.610284 166.549664 
L 195.195456 167.143261 
L 194.042911 167.691353 
L 193.588462 167.918229 
L 191.981468 168.814565 
L 191.951137 168.833042 
L 190.374474 169.864628 
L 190.221292 169.97473 
L 188.767479 171.116419 
L 188.767479 171.116419 
L 187.531915 172.258108 
L 187.160485 172.643234 
L 186.471279 173.399796 
L 185.557109 174.541485 
L 185.553491 174.546468 
L 184.757499 175.683174 
L 184.062866 176.824862 
L 183.946497 177.037576 
L 183.447423 177.966551 
L 182.905942 179.10824 
L 182.429884 180.249928 
L 182.339502 180.490729 
L 182.000868 181.391617 
L 181.619228 182.533306 
L 181.281722 183.674994 
L 180.983858 184.816683 
L 180.732508 185.912558 
L 180.721805 185.958372 
L 180.484789 187.10006 
L 180.280061 188.241749 
L 180.106109 189.383438 
L 179.961739 190.525126 
L 179.845936 191.666815 
L 179.757775 192.808504 
L 179.696357 193.950192 
L 179.660786 195.091881 
L 179.650167 196.23357 
L 179.663627 197.375259 
L 179.700332 198.516947 
L 179.75952 199.658636 
L 179.84051 200.800325 
L 179.942715 201.942013 
L 180.065645 203.083702 
L 180.208894 204.225391 
L 180.372138 205.367079 
L 180.555131 206.508768 
L 180.732508 207.509775 
L 180.756251 207.650457 
L 180.965604 208.792145 
L 181.193773 209.933834 
L 181.441275 211.075523 
L 181.708975 212.217211 
L 181.998232 213.3589 
L 182.31107 214.500589 
L 182.339502 214.598824 
L 182.635863 215.642277 
L 182.9894 216.783966 
L 183.378326 217.925655 
L 183.809464 219.067343 
L 183.946497 219.401369 
L 184.279078 220.209032 
L 184.804336 221.350721 
L 185.40307 222.492409 
L 185.553491 222.752109 
L 186.0759 223.634098 
L 186.849817 224.775787 
L 187.160485 225.184801 
L 187.737415 225.917475 
L 188.766502 227.059164 
L 188.767479 227.060153 
L 189.951498 228.200853 
L 190.374474 228.565311 
L 191.328155 229.342542 
L 191.981468 229.826609 
L 192.925362 230.48423 
L 193.588462 230.910795 
L 194.77597 231.625919 
L 195.195456 231.862579 
L 196.802451 232.712135 
L 196.912923 232.767608 
L 198.409445 233.484468 
L 199.358534 233.909296 
L 200.016439 234.193632 
L 201.623433 234.852814 
L 202.127916 235.050985 
L 203.230428 235.475214 
L 204.837422 236.062495 
L 205.203881 236.192674 
L 206.444416 236.63008 
L 208.05141 237.172365 
L 208.543436 237.334362 
L 209.658405 237.703436 
L 211.265399 238.217218 
L 212.099137 238.476051 
L 212.872393 238.720541 
L 214.479387 239.214757 
L 215.842762 239.61774 
L 216.086382 239.692049 
L 217.693376 240.170185 
L 219.30037 240.626339 
L 219.788192 240.759428 
L 220.907364 241.079528 
L 222.514359 241.517105 
L 224.006862 241.901117 
L 224.121353 241.932375 
L 225.728347 242.348365 
L 227.335342 242.737959 
L 228.682032 243.042806 
L 228.942336 243.106092 
L 230.54933 243.469972 
L 232.156324 243.807884 
L 233.763319 244.121731 
L 234.110331 244.184494 
L 235.370313 244.431176 
L 236.977307 244.724022 
L 238.584301 244.998336 
L 240.191296 245.256901 
L 240.648227 245.326183 
L 241.79829 245.514552 
L 243.405284 245.76357 
L 245.012278 245.999591 
L 246.619273 246.222003 
L 248.226267 246.428717 
L 248.564018 246.467872 
L 249.833261 246.624274 
z
" clip-path="url(#p8ede931c26)" style="fill: none; stroke: #aadce0; stroke-width: 1.5"/>
    <path d="M 241.79829 238.543264 
L 243.405284 238.641438 
L 245.012278 238.72656 
L 246.619273 238.798283 
L 248.226267 238.85503 
L 249.833261 238.893904 
L 251.440255 238.910659 
L 253.04725 238.899744 
L 254.654244 238.854419 
L 256.261238 238.766954 
L 257.868232 238.628939 
L 259.121613 238.476051 
L 259.475227 238.434214 
L 261.082221 238.183718 
L 262.689215 237.860752 
L 264.296209 237.458974 
L 264.718823 237.334362 
L 265.903204 236.992591 
L 267.510198 236.449901 
L 268.183872 236.192674 
L 269.117192 235.842949 
L 270.724187 235.170978 
L 270.989948 235.050985 
L 272.331181 234.454709 
L 273.469928 233.909296 
L 273.938175 233.687668 
L 275.545169 232.884743 
L 275.771264 232.767608 
L 277.152164 232.054664 
L 277.951944 231.625919 
L 278.759158 231.190856 
L 280.027472 230.48423 
L 280.366152 230.29233 
L 281.973146 229.352504 
L 281.989867 229.342542 
L 283.580141 228.357531 
L 283.825102 228.200853 
L 285.187135 227.278072 
L 285.498729 227.059164 
L 286.794129 226.07406 
L 286.992015 225.917475 
L 288.300219 224.775787 
L 288.401123 224.677974 
L 289.434735 223.634098 
L 290.008118 222.965512 
L 290.39886 222.492409 
L 291.217988 221.350721 
L 291.615112 220.702971 
L 291.910061 220.209032 
L 292.498096 219.067343 
L 292.987597 217.925655 
L 293.222106 217.27833 
L 293.400815 216.783966 
L 293.749146 215.642277 
L 294.030945 214.500589 
L 294.250824 213.3589 
L 294.410569 212.217211 
L 294.509539 211.075523 
L 294.545025 209.933834 
L 294.512602 208.792145 
L 294.406499 207.650457 
L 294.219994 206.508768 
L 293.945868 205.367079 
L 293.576918 204.225391 
L 293.222106 203.358593 
L 293.113371 203.083702 
L 292.571365 201.942013 
L 291.927565 200.800325 
L 291.615112 200.312491 
L 291.208894 199.658636 
L 290.418108 198.516947 
L 290.008118 197.972625 
L 289.572083 197.375259 
L 288.681913 196.23357 
L 288.401123 195.887416 
L 287.777181 195.091881 
L 286.846301 193.950192 
L 286.794129 193.886142 
L 285.947152 192.808504 
L 285.187135 191.856888 
L 285.040778 191.666815 
L 284.177801 190.525126 
L 283.580141 189.731486 
L 283.326982 189.383438 
L 282.516696 188.241749 
L 281.973146 187.467525 
L 281.722684 187.10006 
L 280.964904 185.958372 
L 280.366152 185.052829 
L 280.213272 184.816683 
L 279.495917 183.674994 
L 278.770433 182.533306 
L 278.759158 182.514833 
L 278.079035 181.391617 
L 277.379834 180.249928 
L 277.152164 179.868 
L 276.696814 179.10824 
L 276.020185 177.966551 
L 275.545169 177.151761 
L 275.350618 176.824862 
L 274.697508 175.683174 
L 274.051483 174.541485 
L 273.938175 174.331534 
L 273.415506 173.399796 
L 272.782596 172.258108 
L 272.331181 171.439099 
L 272.142503 171.116419 
L 271.472394 169.97473 
L 270.763811 168.833042 
L 270.724187 168.772517 
L 269.951505 167.691353 
L 269.117192 166.652481 
L 269.024653 166.549664 
L 267.867727 165.407976 
L 267.510198 165.101762 
L 266.373655 164.266287 
L 265.903204 163.967297 
L 264.296209 163.124598 
L 264.296209 163.124598 
L 262.689215 162.527689 
L 261.082221 162.079548 
L 260.604217 161.982909 
L 259.475227 161.779603 
L 257.868232 161.59212 
L 256.261238 161.497717 
L 254.654244 161.486634 
L 253.04725 161.550547 
L 251.440255 161.682215 
L 249.833261 161.875116 
L 249.139565 161.982909 
L 248.226267 162.130828 
L 246.619273 162.441707 
L 245.012278 162.793387 
L 243.629936 163.124598 
L 243.405284 163.179202 
L 241.79829 163.596496 
L 240.191296 164.023242 
L 239.285069 164.266287 
L 238.584301 164.44968 
L 236.977307 164.863358 
L 235.370313 165.256093 
L 234.71642 165.407976 
L 233.763319 165.616674 
L 232.156324 165.94271 
L 230.54933 166.237709 
L 228.942336 166.503317 
L 228.638443 166.549664 
L 227.335342 166.734377 
L 225.728347 166.942641 
L 224.121353 167.135539 
L 222.514359 167.31908 
L 220.907364 167.499612 
L 219.30037 167.683656 
L 219.237103 167.691353 
L 217.693376 167.870885 
L 216.086382 168.074639 
L 214.479387 168.301578 
L 212.872393 168.558059 
L 211.360118 168.833042 
L 211.265399 168.850105 
L 209.658405 169.178379 
L 208.05141 169.556718 
L 206.508248 169.97473 
L 206.444416 169.992414 
L 204.837422 170.491316 
L 203.230428 171.067142 
L 203.105899 171.116419 
L 201.623433 171.735597 
L 200.519007 172.258108 
L 200.016439 172.51347 
L 198.452957 173.399796 
L 198.409445 173.426735 
L 196.802451 174.518147 
L 196.770855 174.541485 
L 195.374071 175.683174 
L 195.195456 175.84722 
L 194.197476 176.824862 
L 193.588462 177.50448 
L 193.195086 177.966551 
L 192.334605 179.10824 
L 191.981468 179.63926 
L 191.588785 180.249928 
L 190.937295 181.391617 
L 190.374474 182.517677 
L 190.366808 182.533306 
L 189.856193 183.674994 
L 189.402988 184.816683 
L 188.999557 185.958372 
L 188.767479 186.688113 
L 188.63659 187.10006 
L 188.306876 188.241749 
L 188.013211 189.383438 
L 187.753648 190.525126 
L 187.52696 191.666815 
L 187.332422 192.808504 
L 187.169639 193.950192 
L 187.160485 194.02833 
L 187.033175 195.091881 
L 186.928821 196.23357 
L 186.85717 197.375259 
L 186.818473 198.516947 
L 186.813014 199.658636 
L 186.841125 200.800325 
L 186.903195 201.942013 
L 186.999691 203.083702 
L 187.131168 204.225391 
L 187.160485 204.426639 
L 187.291956 205.367079 
L 187.486336 206.508768 
L 187.716722 207.650457 
L 187.984362 208.792145 
L 188.290745 209.933834 
L 188.637667 211.075523 
L 188.767479 211.462861 
L 189.018055 212.217211 
L 189.438868 213.3589 
L 189.908652 214.500589 
L 190.374474 215.520912 
L 190.430487 215.642277 
L 190.998873 216.783966 
L 191.63446 217.925655 
L 191.981468 218.495565 
L 192.339743 219.067343 
L 193.126397 220.209032 
L 193.588462 220.817866 
L 194.009327 221.350721 
L 195.004216 222.492409 
L 195.195456 222.694628 
L 196.127971 223.634098 
L 196.802451 224.25222 
L 197.404426 224.775787 
L 198.409445 225.579559 
L 198.8557 225.917475 
L 200.016439 226.733854 
L 200.505459 227.059164 
L 201.623433 227.756412 
L 202.376954 228.200853 
L 203.230428 228.676934 
L 204.491739 229.342542 
L 204.837422 229.516503 
L 206.444416 230.29021 
L 206.866324 230.48423 
L 208.05141 231.010141 
L 209.519045 231.625919 
L 209.658405 231.682784 
L 211.265399 232.316923 
L 212.475659 232.767608 
L 212.872393 232.912915 
L 214.479387 233.47712 
L 215.789938 233.909296 
L 216.086382 234.006587 
L 217.693376 234.50874 
L 219.30037 234.975187 
L 219.578984 235.050985 
L 220.907364 235.4165 
L 222.514359 235.824416 
L 224.102447 236.192674 
L 224.121353 236.197169 
L 225.728347 236.548137 
L 227.335342 236.864652 
L 228.942336 237.147846 
L 230.133792 237.334362 
L 230.54933 237.402465 
L 232.156324 237.635507 
L 233.763319 237.840429 
L 235.370313 238.0199 
L 236.977307 238.176769 
L 238.584301 238.313895 
L 240.191296 238.433952 
L 240.837857 238.476051 
L 241.79829 238.543264 
z
" clip-path="url(#p8ede931c26)" style="fill: none; stroke: #aadce0; stroke-width: 1.5"/>
    <path d="M 233.763319 232.845817 
L 235.370313 232.996945 
L 236.977307 233.120506 
L 238.584301 233.219272 
L 240.191296 233.295574 
L 241.79829 233.351117 
L 243.405284 233.386822 
L 245.012278 233.402699 
L 246.619273 233.397768 
L 248.226267 233.370013 
L 249.833261 233.316371 
L 251.440255 233.232769 
L 253.04725 233.114182 
L 254.654244 232.954739 
L 256.111786 232.767608 
L 256.261238 232.74907 
L 257.868232 232.503611 
L 259.475227 232.200093 
L 261.082221 231.831575 
L 261.848903 231.625919 
L 262.689215 231.404975 
L 264.296209 230.916822 
L 265.536154 230.48423 
L 265.903204 230.357556 
L 267.510198 229.7428 
L 268.452642 229.342542 
L 269.117192 229.060535 
L 270.724187 228.316154 
L 270.95795 228.200853 
L 272.331181 227.515973 
L 273.186094 227.059164 
L 273.938175 226.648264 
L 275.19879 225.917475 
L 275.545169 225.709455 
L 277.020604 224.775787 
L 277.152164 224.688219 
L 278.662496 223.634098 
L 278.759158 223.561885 
L 280.129379 222.492409 
L 280.366152 222.290615 
L 281.425148 221.350721 
L 281.973146 220.807524 
L 282.555088 220.209032 
L 283.527229 219.067343 
L 283.580141 218.997192 
L 284.366723 217.925655 
L 285.067743 216.783966 
L 285.187135 216.555184 
L 285.657253 215.642277 
L 286.134456 214.500589 
L 286.504972 213.3589 
L 286.775377 212.217211 
L 286.794129 212.09673 
L 286.956148 211.075523 
L 287.041031 209.933834 
L 287.029529 208.792145 
L 286.920524 207.650457 
L 286.794129 206.957272 
L 286.715849 206.508768 
L 286.420833 205.367079 
L 286.028281 204.225391 
L 285.537096 203.083702 
L 285.187135 202.401296 
L 284.960319 201.942013 
L 284.312827 200.800325 
L 283.580141 199.66027 
L 283.579129 199.658636 
L 282.813224 198.516947 
L 281.979344 197.375259 
L 281.973146 197.367134 
L 281.139851 196.23357 
L 280.366152 195.234974 
L 280.259132 195.091881 
L 279.387477 193.950192 
L 278.759158 193.150428 
L 278.498599 192.808504 
L 277.619357 191.666815 
L 277.152164 191.068255 
L 276.737319 190.525126 
L 275.854718 189.383438 
L 275.545169 188.985195 
L 274.972217 188.241749 
L 274.071592 187.10006 
L 273.938175 186.930836 
L 273.164926 185.958372 
L 272.331181 184.946187 
L 272.221929 184.816683 
L 271.253165 183.674994 
L 270.724187 183.068932 
L 270.23444 182.533306 
L 269.1594 181.391617 
L 269.117192 181.346541 
L 268.014593 180.249928 
L 267.510198 179.757618 
L 266.780578 179.10824 
L 265.903204 178.333708 
L 265.436646 177.966551 
L 264.296209 177.06559 
L 263.945869 176.824862 
L 262.689215 175.947243 
L 262.242415 175.683174 
L 261.082221 174.978254 
L 260.205395 174.541485 
L 259.475227 174.164187 
L 257.868232 173.502054 
L 257.55482 173.399796 
L 256.261238 172.957056 
L 254.654244 172.548031 
L 253.04725 172.258108 
L 253.04725 172.258108 
L 251.440255 172.041255 
L 249.833261 171.908902 
L 248.226267 171.842858 
L 246.619273 171.827675 
L 245.012278 171.850156 
L 243.405284 171.89904 
L 241.79829 171.964836 
L 240.191296 172.039755 
L 238.584301 172.117684 
L 236.977307 172.194161 
L 235.558668 172.258108 
L 235.370313 172.265679 
L 233.763319 172.327212 
L 232.156324 172.384208 
L 230.54933 172.437919 
L 228.942336 172.490658 
L 227.335342 172.545676 
L 225.728347 172.607051 
L 224.121353 172.679585 
L 222.514359 172.768712 
L 220.907364 172.88043 
L 219.30037 173.021232 
L 217.693376 173.198069 
L 216.219446 173.399796 
L 216.086382 173.417959 
L 214.479387 173.685876 
L 212.872393 174.015661 
L 211.265399 174.416746 
L 210.838123 174.541485 
L 209.658405 174.901324 
L 208.05141 175.484279 
L 207.574337 175.683174 
L 206.444416 176.188156 
L 205.212712 176.824862 
L 204.837422 177.036075 
L 203.374738 177.966551 
L 203.230428 178.067894 
L 201.891299 179.10824 
L 201.623433 179.340719 
L 200.65781 180.249928 
L 200.016439 180.931216 
L 199.609959 181.391617 
L 198.707604 182.533306 
L 198.409445 182.952926 
L 197.918179 183.674994 
L 197.220262 184.816683 
L 196.802451 185.575643 
L 196.597276 185.958372 
L 196.033311 187.10006 
L 195.526357 188.241749 
L 195.195456 189.06277 
L 195.067451 189.383438 
L 194.647252 190.525126 
L 194.271955 191.666815 
L 193.940455 192.808504 
L 193.652271 193.950192 
L 193.588462 194.242106 
L 193.400762 195.091881 
L 193.191769 196.23357 
L 193.028221 197.375259 
L 192.910856 198.516947 
L 192.840483 199.658636 
L 192.818006 200.800325 
L 192.84445 201.942013 
L 192.921003 203.083702 
L 193.049049 204.225391 
L 193.230194 205.367079 
L 193.466295 206.508768 
L 193.588462 206.989191 
L 193.754386 207.650457 
L 194.097258 208.792145 
L 194.50173 209.933834 
L 194.97126 211.075523 
L 195.195456 211.560234 
L 195.503487 212.217211 
L 196.104563 213.3589 
L 196.784845 214.500589 
L 196.802451 214.527997 
L 197.541531 215.642277 
L 198.391757 216.783966 
L 198.409445 216.806225 
L 199.337943 217.925655 
L 200.016439 218.670301 
L 200.396159 219.067343 
L 201.577305 220.209032 
L 201.623433 220.251073 
L 202.895768 221.350721 
L 203.230428 221.621371 
L 204.36819 222.492409 
L 204.837422 222.831512 
L 206.011619 223.634098 
L 206.444416 223.915364 
L 207.845069 224.775787 
L 208.05141 224.897015 
L 209.658405 225.79391 
L 209.892067 225.917475 
L 211.265399 226.61837 
L 212.184885 227.059164 
L 212.872393 227.378518 
L 214.479387 228.080386 
L 214.771925 228.200853 
L 216.086382 228.729132 
L 217.693376 229.325268 
L 217.743107 229.342542 
L 219.30037 229.874525 
L 220.907364 230.373957 
L 221.29441 230.48423 
L 222.514359 230.829268 
L 224.121353 231.238732 
L 225.728347 231.602219 
L 225.845909 231.625919 
L 227.335342 231.928369 
L 228.942336 232.213218 
L 230.54933 232.458696 
L 232.156324 232.667596 
L 233.069237 232.767608 
L 233.763319 232.845817 
z
" clip-path="url(#p8ede931c26)" style="fill: none; stroke: #aadce0; stroke-width: 1.5"/>
    <path d="M 238.584301 228.202508 
L 240.191296 228.295825 
L 241.79829 228.360094 
L 243.405284 228.395476 
L 245.012278 228.401217 
L 246.619273 228.375629 
L 248.226267 228.3161 
L 249.833261 228.21913 
L 250.047382 228.200853 
L 251.440255 228.085371 
L 253.04725 227.907745 
L 254.654244 227.680078 
L 256.261238 227.396391 
L 257.828214 227.059164 
L 257.868232 227.050638 
L 259.475227 226.65162 
L 261.082221 226.180035 
L 261.864579 225.917475 
L 262.689215 225.638684 
L 264.296209 225.02306 
L 264.877367 224.775787 
L 265.903204 224.32944 
L 267.341092 223.634098 
L 267.510198 223.549379 
L 269.117192 222.679487 
L 269.438694 222.492409 
L 270.724187 221.702726 
L 271.261117 221.350721 
L 272.331181 220.597237 
L 272.853329 220.209032 
L 273.938175 219.325338 
L 274.240908 219.067343 
L 275.441619 217.925655 
L 275.545169 217.814547 
L 276.47469 216.783966 
L 277.152164 215.896668 
L 277.34169 215.642277 
L 278.063308 214.500589 
L 278.636797 213.3589 
L 278.759158 213.045955 
L 279.081748 212.217211 
L 279.398567 211.075523 
L 279.590903 209.933834 
L 279.66432 208.792145 
L 279.62331 207.650457 
L 279.471674 206.508768 
L 279.212883 205.367079 
L 278.850405 204.225391 
L 278.759158 203.999261 
L 278.403545 203.083702 
L 277.870884 201.942013 
L 277.253913 200.800325 
L 277.152164 200.631632 
L 276.584483 199.658636 
L 275.852266 198.516947 
L 275.545169 198.071071 
L 275.079107 197.375259 
L 274.266315 196.23357 
L 273.938175 195.793458 
L 273.425232 195.091881 
L 272.552368 193.950192 
L 272.331181 193.669506 
L 271.657692 192.808504 
L 270.724187 191.666815 
L 270.724187 191.666815 
L 269.76427 190.525126 
L 269.117192 189.789324 
L 268.751612 189.383438 
L 267.680474 188.241749 
L 267.510198 188.065701 
L 266.531241 187.10006 
L 265.903204 186.508943 
L 265.278216 185.958372 
L 264.296209 185.130722 
L 263.889782 184.816683 
L 262.689215 183.923943 
L 262.315854 183.674994 
L 261.082221 182.876329 
L 260.477169 182.533306 
L 259.475227 181.975433 
L 258.246996 181.391617 
L 257.868232 181.21243 
L 256.261238 180.561805 
L 255.332159 180.249928 
L 254.654244 180.019114 
L 253.04725 179.563699 
L 251.440255 179.198204 
L 250.959124 179.10824 
L 249.833261 178.88986 
L 248.226267 178.639067 
L 246.619273 178.440456 
L 245.012278 178.283513 
L 243.405284 178.159576 
L 241.79829 178.061625 
L 240.191296 177.984127 
L 239.734437 177.966551 
L 238.584301 177.919617 
L 236.977307 177.868526 
L 235.370313 177.830396 
L 233.763319 177.804628 
L 232.156324 177.791812 
L 230.54933 177.79366 
L 228.942336 177.812973 
L 227.335342 177.853607 
L 225.728347 177.920465 
L 224.973552 177.966551 
L 224.121353 178.017519 
L 222.514359 178.151478 
L 220.907364 178.332822 
L 219.30037 178.571446 
L 217.693376 178.878681 
L 216.726776 179.10824 
L 216.086382 179.265614 
L 214.479387 179.748016 
L 213.120899 180.249928 
L 212.872393 180.347266 
L 211.265399 181.086882 
L 210.699686 181.391617 
L 209.658405 181.998998 
L 208.859047 182.533306 
L 208.05141 183.124215 
L 207.376881 183.674994 
L 206.444416 184.516022 
L 206.138814 184.816683 
L 205.080927 185.958372 
L 204.837422 186.246664 
L 204.158605 187.10006 
L 203.345305 188.241749 
L 203.230428 188.416791 
L 202.620081 189.383438 
L 201.974694 190.525126 
L 201.623433 191.21596 
L 201.399134 191.666815 
L 200.886861 192.808504 
L 200.440376 193.950192 
L 200.057922 195.091881 
L 200.016439 195.237415 
L 199.732763 196.23357 
L 199.471503 197.375259 
L 199.275551 198.516947 
L 199.145834 199.658636 
L 199.083678 200.800325 
L 199.090791 201.942013 
L 199.169265 203.083702 
L 199.321576 204.225391 
L 199.550588 205.367079 
L 199.859552 206.508768 
L 200.016439 206.971033 
L 200.250001 207.650457 
L 200.72664 208.792145 
L 201.295605 209.933834 
L 201.623433 210.505481 
L 201.961645 211.075523 
L 202.730511 212.217211 
L 203.230428 212.878992 
L 203.61022 213.3589 
L 204.607802 214.500589 
L 204.837422 214.743473 
L 205.734976 215.642277 
L 206.444416 216.29964 
L 206.998778 216.783966 
L 208.05141 217.64824 
L 208.410641 217.925655 
L 209.658405 218.842751 
L 209.98377 219.067343 
L 211.265399 219.917592 
L 211.733762 220.209032 
L 212.872393 220.894755 
L 213.681205 221.350721 
L 214.479387 221.788231 
L 215.85661 222.492409 
L 216.086382 222.606961 
L 217.693376 223.358405 
L 218.329837 223.634098 
L 219.30037 224.045388 
L 220.907364 224.670135 
L 221.202347 224.775787 
L 222.514359 225.2367 
L 224.121353 225.744943 
L 224.726029 225.917475 
L 225.728347 226.199084 
L 227.335342 226.60087 
L 228.942336 226.95175 
L 229.503644 227.059164 
L 230.54933 227.257952 
L 232.156324 227.521652 
L 233.763319 227.744782 
L 235.370313 227.93067 
L 236.977307 228.082368 
L 238.562488 228.200853 
L 238.584301 228.202508 
z
" clip-path="url(#p8ede931c26)" style="fill: none; stroke: #aadce0; stroke-width: 1.5"/>
    <path d="M 245.012278 223.635785 
L 245.200942 223.634098 
L 246.619273 223.621626 
L 248.226267 223.560258 
L 249.833261 223.447949 
L 251.440255 223.28025 
L 253.04725 223.052038 
L 254.654244 222.757571 
L 255.822586 222.492409 
L 256.261238 222.391236 
L 257.868232 221.947911 
L 259.475227 221.41867 
L 259.656285 221.350721 
L 261.082221 220.793817 
L 262.384106 220.209032 
L 262.689215 220.064021 
L 264.296209 219.211043 
L 264.54254 219.067343 
L 265.903204 218.207083 
L 266.312207 217.925655 
L 267.510198 217.012138 
L 267.789539 216.783966 
L 269.022472 215.642277 
L 269.117192 215.541044 
L 270.043044 214.500589 
L 270.724187 213.571084 
L 270.87403 213.3589 
L 271.53138 212.217211 
L 272.025564 211.075523 
L 272.331181 210.057861 
L 272.367881 209.933834 
L 272.569937 208.792145 
L 272.636945 207.650457 
L 272.577036 206.508768 
L 272.397982 205.367079 
L 272.331181 205.106118 
L 272.111728 204.225391 
L 271.725772 203.083702 
L 271.24658 201.942013 
L 270.724187 200.886765 
L 270.682113 200.800325 
L 270.049814 199.658636 
L 269.346847 198.516947 
L 269.117192 198.174026 
L 268.584539 197.375259 
L 267.762961 196.23357 
L 267.510198 195.903356 
L 266.882731 195.091881 
L 265.939536 193.950192 
L 265.903204 193.908269 
L 264.922656 192.808504 
L 264.296209 192.148314 
L 263.818546 191.666815 
L 262.689215 190.597649 
L 262.607701 190.525126 
L 261.249666 189.383438 
L 261.082221 189.250236 
L 259.696391 188.241749 
L 259.475227 188.089236 
L 257.873421 187.10006 
L 257.868232 187.097003 
L 256.261238 186.25263 
L 255.612906 185.958372 
L 254.654244 185.538228 
L 253.04725 184.939069 
L 252.663876 184.816683 
L 251.440255 184.433597 
L 249.833261 184.013686 
L 248.261748 183.674994 
L 248.226267 183.667365 
L 246.619273 183.375166 
L 245.012278 183.136605 
L 243.405284 182.942938 
L 241.79829 182.787162 
L 240.191296 182.663894 
L 238.584301 182.569266 
L 237.740198 182.533306 
L 236.977307 182.499888 
L 235.370313 182.455543 
L 233.763319 182.43759 
L 232.156324 182.447604 
L 230.54933 182.488512 
L 229.596505 182.533306 
L 228.942336 182.564008 
L 227.335342 182.679065 
L 225.728347 182.842007 
L 224.121353 183.061856 
L 222.514359 183.34947 
L 221.086763 183.674994 
L 220.907364 183.717691 
L 219.30037 184.181852 
L 217.693376 184.761211 
L 217.561687 184.816683 
L 216.086382 185.482999 
L 215.197893 185.958372 
L 214.479387 186.375845 
L 213.393156 187.10006 
L 212.872393 187.481575 
L 211.943363 188.241749 
L 211.265399 188.858204 
L 210.736191 189.383438 
L 209.710281 190.525126 
L 209.658405 190.58917 
L 208.836814 191.666815 
L 208.081346 192.808504 
L 208.05141 192.859703 
L 207.438536 193.950192 
L 206.8944 195.091881 
L 206.444416 196.23357 
L 206.444416 196.23357 
L 206.088492 197.375259 
L 205.824477 198.516947 
L 205.653084 199.658636 
L 205.57608 200.800325 
L 205.596106 201.942013 
L 205.716518 203.083702 
L 205.941229 204.225391 
L 206.274568 205.367079 
L 206.444416 205.807249 
L 206.725765 206.508768 
L 207.300336 207.650457 
L 208.000308 208.792145 
L 208.05141 208.864622 
L 208.84885 209.933834 
L 209.658405 210.876711 
L 209.840253 211.075523 
L 210.997416 212.217211 
L 211.265399 212.459506 
L 212.330007 213.3589 
L 212.872393 213.785399 
L 213.847423 214.500589 
L 214.479387 214.939499 
L 215.564726 215.642277 
L 216.086382 215.966323 
L 217.498747 216.783966 
L 217.693376 216.893071 
L 219.30037 217.736226 
L 219.687715 217.925655 
L 220.907364 218.507296 
L 222.177635 219.067343 
L 222.514359 219.212454 
L 224.121353 219.855779 
L 225.083963 220.209032 
L 225.728347 220.440215 
L 227.335342 220.967877 
L 228.630105 221.350721 
L 228.942336 221.440978 
L 230.54933 221.862124 
L 232.156324 222.233113 
L 233.438844 222.492409 
L 233.763319 222.556745 
L 235.370313 222.836077 
L 236.977307 223.072104 
L 238.584301 223.266427 
L 240.191296 223.420049 
L 241.79829 223.533268 
L 243.405284 223.605604 
L 244.922863 223.634098 
L 245.012278 223.635785 
z
" clip-path="url(#p8ede931c26)" style="fill: none; stroke: #aadce0; stroke-width: 1.5"/>
    <path d="M 236.977307 217.949896 
L 238.584301 218.2441 
L 240.191296 218.485001 
L 241.79829 218.670891 
L 243.405284 218.799436 
L 245.012278 218.867611 
L 246.619273 218.871661 
L 248.226267 218.807079 
L 249.833261 218.668597 
L 251.440255 218.450197 
L 253.04725 218.145121 
L 253.938476 217.925655 
L 254.654244 217.739162 
L 256.261238 217.217815 
L 257.363602 216.783966 
L 257.868232 216.567843 
L 259.475227 215.756751 
L 259.673471 215.642277 
L 261.082221 214.727294 
L 261.391919 214.500589 
L 262.689215 213.397074 
L 262.729929 213.3589 
L 263.756543 212.217211 
L 264.296209 211.458479 
L 264.549447 211.075523 
L 265.124032 209.933834 
L 265.515215 208.792145 
L 265.737015 207.650457 
L 265.8029 206.508768 
L 265.72581 205.367079 
L 265.518049 204.225391 
L 265.191066 203.083702 
L 264.755151 201.942013 
L 264.296209 200.965432 
L 264.217536 200.800325 
L 263.576816 199.658636 
L 262.847769 198.516947 
L 262.689215 198.294111 
L 262.014666 197.375259 
L 261.088918 196.23357 
L 261.082221 196.225964 
L 260.032319 195.091881 
L 259.475227 194.539235 
L 258.840572 193.950192 
L 257.868232 193.118808 
L 257.473326 192.808504 
L 256.261238 191.927754 
L 255.862901 191.666815 
L 254.654244 190.930769 
L 253.900148 190.525126 
L 253.04725 190.09556 
L 251.440255 189.395451 
L 251.408479 189.383438 
L 249.833261 188.819992 
L 248.226267 188.33859 
L 247.842763 188.241749 
L 246.619273 187.945393 
L 245.012278 187.624887 
L 243.405284 187.366036 
L 241.79829 187.16163 
L 241.162846 187.10006 
L 240.191296 187.007884 
L 238.584301 186.900159 
L 236.977307 186.835371 
L 235.370313 186.813097 
L 233.763319 186.834602 
L 232.156324 186.902842 
L 230.54933 187.022479 
L 229.837205 187.10006 
L 228.942336 187.202724 
L 227.335342 187.453296 
L 225.728347 187.782539 
L 224.121353 188.202954 
L 223.998237 188.241749 
L 222.514359 188.750389 
L 221.006726 189.383438 
L 220.907364 189.429638 
L 219.30037 190.300476 
L 218.941571 190.525126 
L 217.693376 191.407504 
L 217.367718 191.666815 
L 216.119135 192.808504 
L 216.086382 192.84332 
L 215.131284 193.950192 
L 214.479387 194.860082 
L 214.324242 195.091881 
L 213.697606 196.23357 
L 213.214803 197.375259 
L 212.872393 198.516947 
L 212.872393 198.516947 
L 212.677789 199.658636 
L 212.61993 200.800325 
L 212.701987 201.942013 
L 212.872393 202.805207 
L 212.930531 203.083702 
L 213.321604 204.225391 
L 213.873003 205.367079 
L 214.479387 206.337669 
L 214.594148 206.508768 
L 215.519039 207.650457 
L 216.086382 208.247114 
L 216.645195 208.792145 
L 217.693376 209.694656 
L 217.992896 209.933834 
L 219.30037 210.88318 
L 219.585386 211.075523 
L 220.907364 211.905088 
L 221.440961 212.217211 
L 222.514359 212.810724 
L 223.575748 213.3589 
L 224.121353 213.628315 
L 225.728347 214.371279 
L 226.026236 214.500589 
L 227.335342 215.047443 
L 228.870826 215.642277 
L 228.942336 215.669023 
L 230.54933 216.230001 
L 232.156324 216.741443 
L 232.301878 216.783966 
L 233.763319 217.195485 
L 235.370313 217.598359 
L 236.862831 217.925655 
L 236.977307 217.949896 
z
" clip-path="url(#p8ede931c26)" style="fill: none; stroke: #aadce0; stroke-width: 1.5"/>
    <path d="M 243.405284 213.374814 
L 245.012278 213.461593 
L 246.619273 213.451088 
L 247.878716 213.3589 
L 248.226267 213.33086 
L 249.833261 213.071847 
L 251.440255 212.66593 
L 252.712747 212.217211 
L 253.04725 212.079715 
L 254.654244 211.220332 
L 254.873083 211.075523 
L 256.261238 209.933834 
L 256.261238 209.933834 
L 257.157164 208.792145 
L 257.764045 207.650457 
L 257.868232 207.317225 
L 258.090633 206.508768 
L 258.199071 205.367079 
L 258.12026 204.225391 
L 257.873177 203.083702 
L 257.868232 203.069834 
L 257.442919 201.942013 
L 256.86476 200.800325 
L 256.261238 199.839692 
L 256.139064 199.658636 
L 255.218841 198.516947 
L 254.654244 197.90994 
L 254.110174 197.375259 
L 253.04725 196.456088 
L 252.760732 196.23357 
L 251.440255 195.321011 
L 251.063912 195.091881 
L 249.833261 194.418302 
L 248.841815 193.950192 
L 248.226267 193.686211 
L 246.619273 193.104227 
L 245.630589 192.808504 
L 245.012278 192.638773 
L 243.405284 192.286033 
L 241.79829 192.01629 
L 240.191296 191.824946 
L 238.584301 191.709532 
L 236.977307 191.669777 
L 235.370313 191.707646 
L 233.763319 191.82733 
L 232.156324 192.035196 
L 230.54933 192.339709 
L 228.942336 192.751319 
L 228.764374 192.808504 
L 227.335342 193.345715 
L 226.038217 193.950192 
L 225.728347 194.125395 
L 224.286374 195.091881 
L 224.121353 195.232492 
L 223.095657 196.23357 
L 222.514359 197.004417 
L 222.263493 197.375259 
L 221.747768 198.516947 
L 221.484841 199.658636 
L 221.468067 200.800325 
L 221.69356 201.942013 
L 222.158602 203.083702 
L 222.514359 203.665781 
L 222.884707 204.225391 
L 223.879705 205.367079 
L 224.121353 205.593657 
L 225.171552 206.508768 
L 225.728347 206.925208 
L 226.765893 207.650457 
L 227.335342 208.00455 
L 228.68437 208.792145 
L 228.942336 208.929456 
L 230.54933 209.733808 
L 230.975317 209.933834 
L 232.156324 210.447511 
L 233.70801 211.075523 
L 233.763319 211.096465 
L 235.370313 211.654823 
L 236.977307 212.157467 
L 237.195337 212.217211 
L 238.584301 212.57384 
L 240.191296 212.918934 
L 241.79829 213.189151 
L 243.259404 213.3589 
L 243.405284 213.374814 
z
" clip-path="url(#p8ede931c26)" style="fill: none; stroke: #aadce0; stroke-width: 1.5"/>
    <path clip-path="url(#p8ede931c26)" style="fill: none; stroke: #aadce0; stroke-width: 1.5"/>
   </g>
   <g id="LineCollection_1">
    <path d="M 231.769158 347.79 
L 231.769158 65.586857 
" clip-path="url(#p8ede931c26)" style="fill: none; stroke-dasharray: 5.55,2.4; stroke-dashoffset: 0; stroke: #000000; stroke-width: 1.5"/>
   </g>
   <g id="LineCollection_2">
    <path d="M 201.633601 220.798586 
L 201.633601 192.578271 
" clip-path="url(#p8ede931c26)" style="fill: none; stroke-dasharray: 5.55,2.4; stroke-dashoffset: 0; stroke: #000000; stroke-width: 1.5"/>
   </g>
   <g id="LineCollection_3">
    <path d="M 201.633601 220.798586 
L 231.769158 220.798586 
" clip-path="url(#p8ede931c26)" style="fill: none; stroke-dasharray: 5.55,2.4; stroke-dashoffset: 0; stroke: #000000; stroke-width: 1.5"/>
   </g>
   <g id="LineCollection_4">
    <path d="M 201.633601 192.578271 
L 367.379165 192.578271 
" clip-path="url(#p8ede931c26)" style="fill: none; stroke-dasharray: 5.55,2.4; stroke-dashoffset: 0; stroke: #000000; stroke-width: 1.5"/>
   </g>
   <g id="patch_3">
    <path d="M 66.023594 347.79 
L 66.023594 65.586857 
" style="fill: none; stroke: #262626; stroke-width: 1.25; stroke-linejoin: miter; stroke-linecap: square"/>
   </g>
   <g id="patch_4">
    <path d="M 66.023594 347.79 
L 367.379165 347.79 
" style="fill: none; stroke: #262626; stroke-width: 1.25; stroke-linejoin: miter; stroke-linecap: square"/>
   </g>
  </g>
  <g id="axes_2">
   <g id="patch_5">
    <path d="M 66.023594 55.855714 
L 367.379165 55.855714 
L 367.379165 7.2 
L 66.023594 7.2 
z
" style="fill: #ffffff"/>
   </g>
   <g id="matplotlib.axis_3">
    <g id="xtick_10"/>
    <g id="xtick_11"/>
    <g id="xtick_12"/>
    <g id="xtick_13"/>
    <g id="xtick_14"/>
    <g id="xtick_15"/>
    <g id="xtick_16"/>
    <g id="xtick_17"/>
    <g id="xtick_18"/>
   </g>
   <g id="matplotlib.axis_4">
    <g id="ytick_10"/>
    <g id="ytick_11"/>
   </g>
   <g id="line2d_1">
    <path d="M 100.062195 55.849424 
L 116.886287 55.717422 
L 133.710378 55.277269 
L 152.063933 54.761981 
L 156.652322 54.317139 
L 159.711248 53.834935 
L 162.770173 53.160438 
L 165.829099 52.263063 
L 168.888025 51.126109 
L 171.946951 49.753349 
L 175.005876 48.17211 
L 179.594265 45.517417 
L 190.300505 38.891676 
L 196.418357 34.989609 
L 201.006746 31.8423 
L 207.124597 27.305829 
L 213.242449 22.732349 
L 217.830837 19.628542 
L 220.889763 17.815172 
L 223.948689 16.223512 
L 227.007615 14.83693 
L 231.596003 13.067023 
L 236.184392 11.576627 
L 240.772781 10.365401 
L 243.831707 9.793622 
L 246.890632 9.516639 
L 248.420095 9.523057 
L 249.949558 9.644085 
L 251.479021 9.891482 
L 253.008484 10.274583 
L 254.537947 10.79957 
L 256.06741 11.46892 
L 257.596873 12.281091 
L 260.655798 14.307479 
L 263.714724 16.789812 
L 266.77365 19.595228 
L 277.47989 29.885589 
L 280.538816 32.520676 
L 283.597742 34.921573 
L 286.656668 37.074222 
L 289.715593 38.974599 
L 292.774519 40.623101 
L 295.833445 42.024349 
L 298.892371 43.190922 
L 301.951297 44.147809 
L 306.539685 45.27892 
L 314.187 46.783284 
L 323.363777 48.653333 
L 331.011091 50.212641 
L 337.128943 51.214839 
L 343.246795 51.94962 
L 372.30659 54.750751 
L 379.953904 55.332807 
L 387.601218 55.665633 
L 396.777996 55.81749 
L 404.42531 55.848634 
L 404.42531 55.848634 
" clip-path="url(#pee47d5cf85)" style="fill: none; stroke: #aadce0; stroke-width: 1.5; stroke-linecap: round"/>
   </g>
   <g id="line2d_2">
    <path d="M 231.769158 55.855714 
L 231.769158 7.2 
" clip-path="url(#pee47d5cf85)" style="fill: none; stroke: #000000; stroke-width: 1.5; stroke-linecap: round"/>
   </g>
   <g id="patch_6">
    <path d="M 66.023594 55.855714 
L 367.379165 55.855714 
" style="fill: none; stroke: #262626; stroke-width: 1.25; stroke-linejoin: miter; stroke-linecap: square"/>
   </g>
  </g>
  <g id="axes_3">
   <g id="patch_7">
    <path d="M 377.770737 347.79 
L 429.728594 347.79 
L 429.728594 65.586857 
L 377.770737 65.586857 
z
" style="fill: #ffffff"/>
   </g>
   <g id="matplotlib.axis_5">
    <g id="xtick_19"/>
    <g id="xtick_20"/>
   </g>
   <g id="matplotlib.axis_6">
    <g id="ytick_12"/>
    <g id="ytick_13"/>
    <g id="ytick_14"/>
    <g id="ytick_15"/>
    <g id="ytick_16"/>
    <g id="ytick_17"/>
    <g id="ytick_18"/>
    <g id="ytick_19"/>
    <g id="ytick_20"/>
   </g>
   <g id="line2d_3">
    <path d="M 377.777418 317.649455 
L 377.903829 306.766393 
L 378.186067 300.236556 
L 379.137936 286.088575 
L 379.850483 277.382126 
L 380.726226 267.58737 
L 381.191065 262.145839 
L 381.702635 258.880921 
L 382.231021 256.704309 
L 382.947379 254.527696 
L 383.870796 252.351084 
L 385.009312 250.174471 
L 386.362528 247.997859 
L 387.923714 245.821247 
L 390.626283 242.556328 
L 393.695689 239.29141 
L 398.164787 234.938185 
L 414.381592 219.701898 
L 421.604508 213.172061 
L 423.707765 210.995449 
L 425.426874 208.818837 
L 426.098943 207.73053 
L 426.626816 206.642224 
L 426.999713 205.553918 
L 427.210269 204.465612 
L 427.254722 203.377306 
L 427.132906 202.288999 
L 426.848061 201.200693 
L 426.406492 200.112387 
L 425.817132 199.024081 
L 424.240897 196.847469 
L 422.224456 194.670856 
L 419.884902 192.494244 
L 414.706182 188.141019 
L 409.559639 183.787794 
L 406.096309 180.522876 
L 404.051856 178.346263 
L 402.225307 176.169651 
L 399.848411 172.904733 
L 397.792701 169.639814 
L 388.692238 154.403527 
L 386.074966 150.050303 
L 384.313973 146.785384 
L 382.786302 143.520466 
L 381.512936 140.255547 
L 380.499577 136.990629 
L 379.736477 133.72571 
L 379.189193 130.460791 
L 378.69606 126.107567 
L 378.217493 119.57773 
L 377.896577 111.959586 
L 377.784012 103.253137 
L 377.777278 101.076525 
L 377.777278 101.076525 
" clip-path="url(#p415f095b7a)" style="fill: none; stroke: #aadce0; stroke-width: 1.5; stroke-linecap: round"/>
   </g>
   <g id="line2d_4">
    <path d="M 377.770737 192.578271 
L 429.728594 192.578271 
" clip-path="url(#p415f095b7a)" style="fill: none; stroke: #000000; stroke-width: 1.5; stroke-linecap: round"/>
   </g>
   <g id="patch_8">
    <path d="M 377.770737 347.79 
L 377.770737 65.586857 
" style="fill: none; stroke: #262626; stroke-width: 1.25; stroke-linejoin: miter; stroke-linecap: square"/>
   </g>
  </g>
 </g>
 <defs>
  <clipPath id="p8ede931c26">
   <rect x="66.023594" y="65.586857" width="301.355571" height="282.203143"/>
  </clipPath>
  <clipPath id="pee47d5cf85">
   <rect x="66.023594" y="7.2" width="301.355571" height="48.655714"/>
  </clipPath>
  <clipPath id="p415f095b7a">
   <rect x="377.770737" y="65.586857" width="51.957857" height="282.203143"/>
  </clipPath>
 </defs>
</svg>
