<?xml version="1.0" encoding="utf-8" standalone="no"?>
<!DOCTYPE svg PUBLIC "-//W3C//DTD SVG 1.1//EN"
  "http://www.w3.org/Graphics/SVG/1.1/DTD/svg11.dtd">
<svg xmlns:xlink="http://www.w3.org/1999/xlink" width="720pt" height="360pt" viewBox="0 0 720 360" xmlns="http://www.w3.org/2000/svg" version="1.1">
 <metadata>
  <rdf:RDF xmlns:dc="http://purl.org/dc/elements/1.1/" xmlns:cc="http://creativecommons.org/ns#" xmlns:rdf="http://www.w3.org/1999/02/22-rdf-syntax-ns#">
   <cc:Work>
    <dc:type rdf:resource="http://purl.org/dc/dcmitype/StillImage"/>
    <dc:date>2025-09-09T15:45:19.051884</dc:date>
    <dc:format>image/svg+xml</dc:format>
    <dc:creator>
     <cc:Agent>
      <dc:title>Matplotlib v3.10.3, https://matplotlib.org/</dc:title>
     </cc:Agent>
    </dc:creator>
   </cc:Work>
  </rdf:RDF>
 </metadata>
 <defs>
  <style type="text/css">*{stroke-linejoin: round; stroke-linecap: butt}</style>
 </defs>
 <g id="figure_1">
  <g id="patch_1">
   <path d="M 0 360 
L 720 360 
L 720 0 
L 0 0 
z
" style="fill: #ffffff"/>
  </g>
  <g id="axes_1">
   <g id="patch_2">
    <path d="M 90 320.4 
L 648 320.4 
L 648 43.2 
L 90 43.2 
z
" style="fill: #ffffff"/>
   </g>
   <g id="FillBetweenPolyCollection_1">
    <defs>
     <path id="m8bfa7ea13b" d="M 145.998795 -46.671533 
L 145.601205 -46.671533 
L 145.538846 -46.838198 
L 145.463718 -47.004862 
L 145.375552 -47.171527 
L 145.274879 -47.338191 
L 145.163191 -47.504856 
L 145.043039 -47.671521 
L 144.918034 -47.838185 
L 144.792732 -48.00485 
L 144.672407 -48.171514 
L 144.562702 -48.338179 
L 144.469206 -48.504843 
L 144.396988 -48.671508 
L 144.350138 -48.838172 
L 144.33139 -49.004837 
L 144.341855 -49.171502 
L 144.380911 -49.338166 
L 144.446265 -49.504831 
L 144.534177 -49.671495 
L 144.639809 -49.83816 
L 144.757666 -50.004824 
L 144.882063 -50.171489 
L 145.007558 -50.338153 
L 145.129319 -50.504818 
L 145.243373 -50.671482 
L 145.346728 -50.838147 
L 145.437362 -51.004812 
L 145.514092 -51.171476 
L 145.57633 -51.338141 
L 145.62376 -51.504805 
L 145.65594 -51.67147 
L 145.671833 -51.838134 
L 145.669298 -52.004799 
L 145.644525 -52.171463 
L 145.591422 -52.338128 
L 145.501007 -52.504793 
L 145.360817 -52.671457 
L 145.154442 -52.838122 
L 144.861271 -53.004786 
L 144.456608 -53.171451 
L 143.912291 -53.338115 
L 143.197982 -53.50478 
L 142.283208 -53.671444 
L 141.140191 -53.838109 
L 139.747363 -54.004774 
L 138.09333 -54.171438 
L 136.18089 -54.338103 
L 134.030575 -54.504767 
L 131.683129 -54.671432 
L 129.200322 -54.838096 
L 126.663636 -55.004761 
L 124.170554 -55.171425 
L 121.828542 -55.33809 
L 119.747109 -55.504755 
L 118.028721 -55.671419 
L 116.759578 -55.838084 
L 116.001367 -56.004748 
L 115.78507 -56.171413 
L 116.107644 -56.338077 
L 116.931997 -56.504742 
L 118.190234 -56.671406 
L 119.789644 -56.838071 
L 121.620558 -57.004735 
L 123.564949 -57.1714 
L 125.504652 -57.338065 
L 127.328244 -57.504729 
L 128.935963 -57.671394 
L 130.242483 -57.838058 
L 131.177787 -58.004723 
L 131.686728 -58.171387 
L 131.728107 -58.338052 
L 131.274073 -58.504716 
L 130.310506 -58.671381 
L 128.838723 -58.838046 
L 126.87839 -59.00471 
L 124.471127 -59.171375 
L 121.683922 -59.338039 
L 118.611279 -59.504704 
L 115.37505 -59.671368 
L 112.121142 -59.838033 
L 109.012758 -60.004697 
L 106.220363 -60.171362 
L 103.909245 -60.338027 
L 102.225964 -60.504691 
L 101.285386 -60.671356 
L 101.16 -60.83802 
L 101.873001 -61.004685 
L 103.396127 -61.171349 
L 105.652579 -61.338014 
L 108.524633 -61.504678 
L 111.864903 -61.671343 
L 115.509794 -61.838007 
L 119.293421 -62.004672 
L 123.060407 -62.171337 
L 126.676225 -62.338001 
L 130.034245 -62.504666 
L 133.059183 -62.67133 
L 135.707134 -62.837995 
L 137.96279 -63.004659 
L 139.834671 -63.171324 
L 151.765329 -63.171324 
L 151.765329 -63.171324 
L 153.63721 -63.004659 
L 155.892866 -62.837995 
L 158.540817 -62.67133 
L 161.565755 -62.504666 
L 164.923775 -62.338001 
L 168.539593 -62.171337 
L 172.306579 -62.004672 
L 176.090206 -61.838007 
L 179.735097 -61.671343 
L 183.075367 -61.504678 
L 185.947421 -61.338014 
L 188.203873 -61.171349 
L 189.726999 -61.004685 
L 190.44 -60.83802 
L 190.314614 -60.671356 
L 189.374036 -60.504691 
L 187.690755 -60.338027 
L 185.379637 -60.171362 
L 182.587242 -60.004697 
L 179.478858 -59.838033 
L 176.22495 -59.671368 
L 172.988721 -59.504704 
L 169.916078 -59.338039 
L 167.128873 -59.171375 
L 164.72161 -59.00471 
L 162.761277 -58.838046 
L 161.289494 -58.671381 
L 160.325927 -58.504716 
L 159.871893 -58.338052 
L 159.913272 -58.171387 
L 160.422213 -58.004723 
L 161.357517 -57.838058 
L 162.664037 -57.671394 
L 164.271756 -57.504729 
L 166.095348 -57.338065 
L 168.035051 -57.1714 
L 169.979442 -57.004735 
L 171.810356 -56.838071 
L 173.409766 -56.671406 
L 174.668003 -56.504742 
L 175.492356 -56.338077 
L 175.81493 -56.171413 
L 175.598633 -56.004748 
L 174.840422 -55.838084 
L 173.571279 -55.671419 
L 171.852891 -55.504755 
L 169.771458 -55.33809 
L 167.429446 -55.171425 
L 164.936364 -55.004761 
L 162.399678 -54.838096 
L 159.916871 -54.671432 
L 157.569425 -54.504767 
L 155.41911 -54.338103 
L 153.50667 -54.171438 
L 151.852637 -54.004774 
L 150.459809 -53.838109 
L 149.316792 -53.671444 
L 148.402018 -53.50478 
L 147.687709 -53.338115 
L 147.143392 -53.171451 
L 146.738729 -53.004786 
L 146.445558 -52.838122 
L 146.239183 -52.671457 
L 146.098993 -52.504793 
L 146.008578 -52.338128 
L 145.955475 -52.171463 
L 145.930702 -52.004799 
L 145.928167 -51.838134 
L 145.94406 -51.67147 
L 145.97624 -51.504805 
L 146.02367 -51.338141 
L 146.085908 -51.171476 
L 146.162638 -51.004812 
L 146.253272 -50.838147 
L 146.356627 -50.671482 
L 146.470681 -50.504818 
L 146.592442 -50.338153 
L 146.717937 -50.171489 
L 146.842334 -50.004824 
L 146.960191 -49.83816 
L 147.065823 -49.671495 
L 147.153735 -49.504831 
L 147.219089 -49.338166 
L 147.258145 -49.171502 
L 147.26861 -49.004837 
L 147.249862 -48.838172 
L 147.203012 -48.671508 
L 147.130794 -48.504843 
L 147.037298 -48.338179 
L 146.927593 -48.171514 
L 146.807268 -48.00485 
L 146.681966 -47.838185 
L 146.556961 -47.671521 
L 146.436809 -47.504856 
L 146.325121 -47.338191 
L 146.224448 -47.171527 
L 146.136282 -47.004862 
L 146.061154 -46.838198 
L 145.998795 -46.671533 
z
" style="stroke: #3d3d3d; stroke-width: 1.25"/>
    </defs>
    <g clip-path="url(#p9173b0ccf6)">
     <use xlink:href="#m8bfa7ea13b" x="0" y="360" style="fill: #3274a1; stroke: #3d3d3d; stroke-width: 1.25"/>
    </g>
   </g>
   <g id="FillBetweenPolyCollection_2">
    <defs>
     <path id="m48f7b3ced6" d="M 257.87599 -46.612058 
L 256.92401 -46.612058 
L 256.777583 -46.779924 
L 256.601671 -46.94779 
L 256.395615 -47.115656 
L 256.160532 -47.283522 
L 255.899667 -47.451388 
L 255.618617 -47.619254 
L 255.325354 -47.78712 
L 255.030003 -47.954987 
L 254.744363 -48.122853 
L 254.481183 -48.290719 
L 254.253251 -48.458585 
L 254.072374 -48.626451 
L 253.948371 -48.794317 
L 253.888191 -48.962183 
L 253.895268 -49.130049 
L 253.969195 -49.297915 
L 254.105765 -49.465781 
L 254.297364 -49.633647 
L 254.533675 -49.801513 
L 254.802594 -49.969379 
L 255.091246 -50.137245 
L 255.386989 -50.305112 
L 255.67828 -50.472978 
L 255.95534 -50.640844 
L 256.21056 -50.80871 
L 256.438633 -50.976576 
L 256.636437 -51.144442 
L 256.802702 -51.312308 
L 256.937529 -51.480174 
L 257.041801 -51.64804 
L 257.116542 -51.815906 
L 257.16227 -51.983772 
L 257.178362 -52.151638 
L 257.162467 -52.319504 
L 257.109983 -52.487371 
L 257.013629 -52.655237 
L 256.86317 -52.823103 
L 256.645337 -52.990969 
L 256.34404 -53.158835 
L 255.940943 -53.326701 
L 255.416465 -53.494567 
L 254.751266 -53.662433 
L 253.928188 -53.830299 
L 252.934562 -53.998165 
L 251.764708 -54.166031 
L 250.422354 -54.333897 
L 248.92265 -54.501763 
L 247.293399 -54.669629 
L 245.575174 -54.837496 
L 243.820078 -55.005362 
L 242.089031 -55.173228 
L 240.447705 -55.341094 
L 238.961423 -55.50896 
L 237.689528 -55.676826 
L 236.679895 -55.844692 
L 235.964259 -56.012558 
L 235.555007 -56.180424 
L 235.443867 -56.34829 
L 235.60268 -56.516156 
L 235.986116 -56.684022 
L 236.53592 -56.851888 
L 237.186027 -57.019754 
L 237.86779 -57.187621 
L 238.514585 -57.355487 
L 239.065236 -57.523353 
L 239.465956 -57.691219 
L 239.670864 -57.859085 
L 239.641415 -58.026951 
L 239.345337 -58.194817 
L 238.755803 -58.362683 
L 237.85146 -58.530549 
L 236.617795 -58.698415 
L 235.049934 -58.866281 
L 233.156617 -59.034147 
L 230.964701 -59.202013 
L 228.523239 -59.36988 
L 225.906113 -59.537746 
L 223.212233 -59.705612 
L 220.562633 -59.873478 
L 218.094229 -60.041344 
L 215.950583 -60.20921 
L 214.270514 -60.377076 
L 213.175869 -60.544942 
L 212.76 -60.712808 
L 213.078456 -60.880674 
L 214.143187 -61.04854 
L 215.921044 -61.216406 
L 218.336768 -61.384272 
L 221.280053 -61.552138 
L 224.615713 -61.720005 
L 228.195604 -61.887871 
L 231.870848 -62.055737 
L 235.502944 -62.223603 
L 238.97268 -62.391469 
L 242.18613 -62.559335 
L 245.07751 -62.727201 
L 247.609086 -62.895067 
L 249.768631 -63.062933 
L 251.565183 -63.230799 
L 263.234817 -63.230799 
L 263.234817 -63.230799 
L 265.031369 -63.062933 
L 267.190914 -62.895067 
L 269.72249 -62.727201 
L 272.61387 -62.559335 
L 275.82732 -62.391469 
L 279.297056 -62.223603 
L 282.929152 -62.055737 
L 286.604396 -61.887871 
L 290.184287 -61.720005 
L 293.519947 -61.552138 
L 296.463232 -61.384272 
L 298.878956 -61.216406 
L 300.656813 -61.04854 
L 301.721544 -60.880674 
L 302.04 -60.712808 
L 301.624131 -60.544942 
L 300.529486 -60.377076 
L 298.849417 -60.20921 
L 296.705771 -60.041344 
L 294.237367 -59.873478 
L 291.587767 -59.705612 
L 288.893887 -59.537746 
L 286.276761 -59.36988 
L 283.835299 -59.202013 
L 281.643383 -59.034147 
L 279.750066 -58.866281 
L 278.182205 -58.698415 
L 276.94854 -58.530549 
L 276.044197 -58.362683 
L 275.454663 -58.194817 
L 275.158585 -58.026951 
L 275.129136 -57.859085 
L 275.334044 -57.691219 
L 275.734764 -57.523353 
L 276.285415 -57.355487 
L 276.93221 -57.187621 
L 277.613973 -57.019754 
L 278.26408 -56.851888 
L 278.813884 -56.684022 
L 279.19732 -56.516156 
L 279.356133 -56.34829 
L 279.244993 -56.180424 
L 278.835741 -56.012558 
L 278.120105 -55.844692 
L 277.110472 -55.676826 
L 275.838577 -55.50896 
L 274.352295 -55.341094 
L 272.710969 -55.173228 
L 270.979922 -55.005362 
L 269.224826 -54.837496 
L 267.506601 -54.669629 
L 265.87735 -54.501763 
L 264.377646 -54.333897 
L 263.035292 -54.166031 
L 261.865438 -53.998165 
L 260.871812 -53.830299 
L 260.048734 -53.662433 
L 259.383535 -53.494567 
L 258.859057 -53.326701 
L 258.45596 -53.158835 
L 258.154663 -52.990969 
L 257.93683 -52.823103 
L 257.786371 -52.655237 
L 257.690017 -52.487371 
L 257.637533 -52.319504 
L 257.621638 -52.151638 
L 257.63773 -51.983772 
L 257.683458 -51.815906 
L 257.758199 -51.64804 
L 257.862471 -51.480174 
L 257.997298 -51.312308 
L 258.163563 -51.144442 
L 258.361367 -50.976576 
L 258.58944 -50.80871 
L 258.84466 -50.640844 
L 259.12172 -50.472978 
L 259.413011 -50.305112 
L 259.708754 -50.137245 
L 259.997406 -49.969379 
L 260.266325 -49.801513 
L 260.502636 -49.633647 
L 260.694235 -49.465781 
L 260.830805 -49.297915 
L 260.904732 -49.130049 
L 260.911809 -48.962183 
L 260.851629 -48.794317 
L 260.727626 -48.626451 
L 260.546749 -48.458585 
L 260.318817 -48.290719 
L 260.055637 -48.122853 
L 259.769997 -47.954987 
L 259.474646 -47.78712 
L 259.181383 -47.619254 
L 258.900333 -47.451388 
L 258.639468 -47.283522 
L 258.404385 -47.115656 
L 258.198329 -46.94779 
L 258.022417 -46.779924 
L 257.87599 -46.612058 
z
" style="stroke: #3d3d3d; stroke-width: 1.25"/>
    </defs>
    <g clip-path="url(#p9173b0ccf6)">
     <use xlink:href="#m48f7b3ced6" x="0" y="360" style="fill: #e1812c; stroke: #3d3d3d; stroke-width: 1.25"/>
    </g>
   </g>
   <g id="FillBetweenPolyCollection_3">
    <defs>
     <path id="m0741fdf497" d="M 370.071179 -45.355841 
L 367.928821 -45.355841 
L 367.685197 -45.549085 
L 367.403937 -45.74233 
L 367.083846 -45.935574 
L 366.724895 -46.128818 
L 366.32845 -46.322062 
L 365.897468 -46.515306 
L 365.436637 -46.708551 
L 364.952424 -46.901795 
L 364.453038 -47.095039 
L 363.948281 -47.288283 
L 363.449281 -47.481527 
L 362.968129 -47.674772 
L 362.517409 -47.868016 
L 362.109662 -48.06126 
L 361.756807 -48.254504 
L 361.469554 -48.447748 
L 361.256852 -48.640992 
L 361.125402 -48.834237 
L 361.079275 -49.027481 
L 361.119667 -49.220725 
L 361.244792 -49.413969 
L 361.449932 -49.607213 
L 361.727638 -49.800458 
L 362.068053 -49.993702 
L 362.459347 -50.186946 
L 362.88821 -50.38019 
L 363.340393 -50.573434 
L 363.801233 -50.766679 
L 364.256153 -50.959923 
L 364.691092 -51.153167 
L 365.09287 -51.346411 
L 365.449458 -51.539655 
L 365.750164 -51.732899 
L 365.985748 -51.926144 
L 366.148478 -52.119388 
L 366.232137 -52.312632 
L 366.232017 -52.505876 
L 366.14489 -52.69912 
L 365.968999 -52.892365 
L 365.704043 -53.085609 
L 365.351177 -53.278853 
L 364.913001 -53.472097 
L 364.393536 -53.665341 
L 363.798165 -53.858586 
L 363.133515 -54.05183 
L 362.40728 -54.245074 
L 361.627948 -54.438318 
L 360.804463 -54.631562 
L 359.945791 -54.824806 
L 359.060439 -55.018051 
L 358.155925 -55.211295 
L 357.238251 -55.404539 
L 356.31141 -55.597783 
L 355.376975 -55.791027 
L 354.433802 -55.984272 
L 353.477904 -56.177516 
L 352.502514 -56.37076 
L 351.498356 -56.564004 
L 350.454157 -56.757248 
L 349.357367 -56.950493 
L 348.195087 -57.143737 
L 346.955168 -57.336981 
L 345.627426 -57.530225 
L 344.204906 -57.723469 
L 342.685135 -57.916713 
L 341.071256 -58.109958 
L 339.372977 -58.303202 
L 337.607227 -58.496446 
L 335.798445 -58.68969 
L 333.978445 -58.882934 
L 332.185799 -59.076179 
L 330.464727 -59.269423 
L 328.863529 -59.462667 
L 327.432598 -59.655911 
L 326.222118 -59.849155 
L 325.279589 -60.0424 
L 324.647308 -60.235644 
L 324.36 -60.428888 
L 324.442749 -60.622132 
L 324.909396 -60.815376 
L 325.761526 -61.00862 
L 326.988114 -61.201865 
L 328.565887 -61.395109 
L 330.460358 -61.588353 
L 332.627476 -61.781597 
L 335.015756 -61.974841 
L 337.568755 -62.168086 
L 340.227703 -62.36133 
L 342.934119 -62.554574 
L 345.632245 -62.747818 
L 348.271156 -62.941062 
L 350.80643 -63.134307 
L 353.201332 -63.327551 
L 355.427466 -63.520795 
L 357.464923 -63.714039 
L 359.301991 -63.907283 
L 360.934468 -64.100527 
L 362.364721 -64.293772 
L 363.60054 -64.487016 
L 374.39946 -64.487016 
L 374.39946 -64.487016 
L 375.635279 -64.293772 
L 377.065532 -64.100527 
L 378.698009 -63.907283 
L 380.535077 -63.714039 
L 382.572534 -63.520795 
L 384.798668 -63.327551 
L 387.19357 -63.134307 
L 389.728844 -62.941062 
L 392.367755 -62.747818 
L 395.065881 -62.554574 
L 397.772297 -62.36133 
L 400.431245 -62.168086 
L 402.984244 -61.974841 
L 405.372524 -61.781597 
L 407.539642 -61.588353 
L 409.434113 -61.395109 
L 411.011886 -61.201865 
L 412.238474 -61.00862 
L 413.090604 -60.815376 
L 413.557251 -60.622132 
L 413.64 -60.428888 
L 413.352692 -60.235644 
L 412.720411 -60.0424 
L 411.777882 -59.849155 
L 410.567402 -59.655911 
L 409.136471 -59.462667 
L 407.535273 -59.269423 
L 405.814201 -59.076179 
L 404.021555 -58.882934 
L 402.201555 -58.68969 
L 400.392773 -58.496446 
L 398.627023 -58.303202 
L 396.928744 -58.109958 
L 395.314865 -57.916713 
L 393.795094 -57.723469 
L 392.372574 -57.530225 
L 391.044832 -57.336981 
L 389.804913 -57.143737 
L 388.642633 -56.950493 
L 387.545843 -56.757248 
L 386.501644 -56.564004 
L 385.497486 -56.37076 
L 384.522096 -56.177516 
L 383.566198 -55.984272 
L 382.623025 -55.791027 
L 381.68859 -55.597783 
L 380.761749 -55.404539 
L 379.844075 -55.211295 
L 378.939561 -55.018051 
L 378.054209 -54.824806 
L 377.195537 -54.631562 
L 376.372052 -54.438318 
L 375.59272 -54.245074 
L 374.866485 -54.05183 
L 374.201835 -53.858586 
L 373.606464 -53.665341 
L 373.086999 -53.472097 
L 372.648823 -53.278853 
L 372.295957 -53.085609 
L 372.031001 -52.892365 
L 371.85511 -52.69912 
L 371.767983 -52.505876 
L 371.767863 -52.312632 
L 371.851522 -52.119388 
L 372.014252 -51.926144 
L 372.249836 -51.732899 
L 372.550542 -51.539655 
L 372.90713 -51.346411 
L 373.308908 -51.153167 
L 373.743847 -50.959923 
L 374.198767 -50.766679 
L 374.659607 -50.573434 
L 375.11179 -50.38019 
L 375.540653 -50.186946 
L 375.931947 -49.993702 
L 376.272362 -49.800458 
L 376.550068 -49.607213 
L 376.755208 -49.413969 
L 376.880333 -49.220725 
L 376.920725 -49.027481 
L 376.874598 -48.834237 
L 376.743148 -48.640992 
L 376.530446 -48.447748 
L 376.243193 -48.254504 
L 375.890338 -48.06126 
L 375.482591 -47.868016 
L 375.031871 -47.674772 
L 374.550719 -47.481527 
L 374.051719 -47.288283 
L 373.546962 -47.095039 
L 373.047576 -46.901795 
L 372.563363 -46.708551 
L 372.102532 -46.515306 
L 371.67155 -46.322062 
L 371.275105 -46.128818 
L 370.916154 -45.935574 
L 370.596063 -45.74233 
L 370.314803 -45.549085 
L 370.071179 -45.355841 
z
" style="stroke: #3d3d3d; stroke-width: 1.25"/>
    </defs>
    <g clip-path="url(#p9173b0ccf6)">
     <use xlink:href="#m0741fdf497" x="0" y="360" style="fill: #3a923a; stroke: #3d3d3d; stroke-width: 1.25"/>
    </g>
   </g>
   <g id="FillBetweenPolyCollection_4">
    <defs>
     <path id="me0925a1cd5" d="M 481.019316 -45.96765 
L 480.180684 -45.96765 
L 480.072568 -46.148535 
L 479.945779 -46.329419 
L 479.799767 -46.510303 
L 479.634746 -46.691188 
L 479.451846 -46.872072 
L 479.253233 -47.052957 
L 479.042177 -47.233841 
L 478.823041 -47.414725 
L 478.601195 -47.59561 
L 478.382839 -47.776494 
L 478.17474 -47.957379 
L 477.983901 -48.138263 
L 477.817175 -48.319148 
L 477.680861 -48.500032 
L 477.580297 -48.680916 
L 477.519517 -48.861801 
L 477.50096 -49.042685 
L 477.525289 -49.22357 
L 477.591322 -49.404454 
L 477.696075 -49.585338 
L 477.834909 -49.766223 
L 478.001764 -49.947107 
L 478.189444 -50.127992 
L 478.389914 -50.308876 
L 478.59458 -50.48976 
L 478.794502 -50.670645 
L 478.980523 -50.851529 
L 479.143285 -51.032414 
L 479.27314 -51.213298 
L 479.35995 -51.394183 
L 479.392813 -51.575067 
L 479.35976 -51.755951 
L 479.247459 -51.936836 
L 479.041014 -52.11772 
L 478.723915 -52.298605 
L 478.278205 -52.479489 
L 477.684942 -52.660373 
L 476.924973 -52.841258 
L 475.980064 -53.022142 
L 474.834339 -53.203027 
L 473.475999 -53.383911 
L 471.899182 -53.564795 
L 470.105853 -53.74568 
L 468.107502 -53.926564 
L 465.926484 -54.107449 
L 463.59676 -54.288333 
L 461.163887 -54.469218 
L 458.684088 -54.650102 
L 456.22237 -54.830986 
L 453.849687 -55.011871 
L 451.639294 -55.192755 
L 449.662495 -55.37364 
L 447.984101 -55.554524 
L 446.657935 -55.735408 
L 445.722788 -55.916293 
L 445.199152 -56.097177 
L 445.087055 -56.278062 
L 445.365182 -56.458946 
L 445.991399 -56.63983 
L 446.904653 -56.820715 
L 448.028103 -57.001599 
L 449.27328 -57.182484 
L 450.54497 -57.363368 
L 451.746509 -57.544253 
L 452.785158 -57.725137 
L 453.577262 -57.906021 
L 454.052933 -58.086906 
L 454.160015 -58.26779 
L 453.867183 -58.448675 
L 453.166009 -58.629559 
L 452.071915 -58.810443 
L 450.623923 -58.991328 
L 448.883171 -59.172212 
L 446.930215 -59.353097 
L 444.861167 -59.533981 
L 442.782821 -59.714865 
L 440.806987 -59.89575 
L 439.044333 -60.076634 
L 437.598119 -60.257519 
L 436.558231 -60.438403 
L 435.995974 -60.619288 
L 435.96 -60.800172 
L 436.473717 -60.981056 
L 437.534379 -61.161941 
L 439.113931 -61.342825 
L 441.161503 -61.52371 
L 443.607335 -61.704594 
L 446.367754 -61.885478 
L 449.350765 -62.066363 
L 452.461784 -62.247247 
L 455.609047 -62.428132 
L 458.708308 -62.609016 
L 461.686527 -62.7899 
L 464.484383 -62.970785 
L 467.057559 -63.151669 
L 469.376874 -63.332554 
L 471.427419 -63.513438 
L 473.206924 -63.694323 
L 474.723608 -63.875207 
L 486.476392 -63.875207 
L 486.476392 -63.875207 
L 487.993076 -63.694323 
L 489.772581 -63.513438 
L 491.823126 -63.332554 
L 494.142441 -63.151669 
L 496.715617 -62.970785 
L 499.513473 -62.7899 
L 502.491692 -62.609016 
L 505.590953 -62.428132 
L 508.738216 -62.247247 
L 511.849235 -62.066363 
L 514.832246 -61.885478 
L 517.592665 -61.704594 
L 520.038497 -61.52371 
L 522.086069 -61.342825 
L 523.665621 -61.161941 
L 524.726283 -60.981056 
L 525.24 -60.800172 
L 525.204026 -60.619288 
L 524.641769 -60.438403 
L 523.601881 -60.257519 
L 522.155667 -60.076634 
L 520.393013 -59.89575 
L 518.417179 -59.714865 
L 516.338833 -59.533981 
L 514.269785 -59.353097 
L 512.316829 -59.172212 
L 510.576077 -58.991328 
L 509.128085 -58.810443 
L 508.033991 -58.629559 
L 507.332817 -58.448675 
L 507.039985 -58.26779 
L 507.147067 -58.086906 
L 507.622738 -57.906021 
L 508.414842 -57.725137 
L 509.453491 -57.544253 
L 510.65503 -57.363368 
L 511.92672 -57.182484 
L 513.171897 -57.001599 
L 514.295347 -56.820715 
L 515.208601 -56.63983 
L 515.834818 -56.458946 
L 516.112945 -56.278062 
L 516.000848 -56.097177 
L 515.477212 -55.916293 
L 514.542065 -55.735408 
L 513.215899 -55.554524 
L 511.537505 -55.37364 
L 509.560706 -55.192755 
L 507.350313 -55.011871 
L 504.97763 -54.830986 
L 502.515912 -54.650102 
L 500.036113 -54.469218 
L 497.60324 -54.288333 
L 495.273516 -54.107449 
L 493.092498 -53.926564 
L 491.094147 -53.74568 
L 489.300818 -53.564795 
L 487.724001 -53.383911 
L 486.365661 -53.203027 
L 485.219936 -53.022142 
L 484.275027 -52.841258 
L 483.515058 -52.660373 
L 482.921795 -52.479489 
L 482.476085 -52.298605 
L 482.158986 -52.11772 
L 481.952541 -51.936836 
L 481.84024 -51.755951 
L 481.807187 -51.575067 
L 481.84005 -51.394183 
L 481.92686 -51.213298 
L 482.056715 -51.032414 
L 482.219477 -50.851529 
L 482.405498 -50.670645 
L 482.60542 -50.48976 
L 482.810086 -50.308876 
L 483.010556 -50.127992 
L 483.198236 -49.947107 
L 483.365091 -49.766223 
L 483.503925 -49.585338 
L 483.608678 -49.404454 
L 483.674711 -49.22357 
L 483.69904 -49.042685 
L 483.680483 -48.861801 
L 483.619703 -48.680916 
L 483.519139 -48.500032 
L 483.382825 -48.319148 
L 483.216099 -48.138263 
L 483.02526 -47.957379 
L 482.817161 -47.776494 
L 482.598805 -47.59561 
L 482.376959 -47.414725 
L 482.157823 -47.233841 
L 481.946767 -47.052957 
L 481.748154 -46.872072 
L 481.565254 -46.691188 
L 481.400233 -46.510303 
L 481.254221 -46.329419 
L 481.127432 -46.148535 
L 481.019316 -45.96765 
z
" style="stroke: #3d3d3d; stroke-width: 1.25"/>
    </defs>
    <g clip-path="url(#p9173b0ccf6)">
     <use xlink:href="#me0925a1cd5" x="0" y="360" style="fill: #c03d3e; stroke: #3d3d3d; stroke-width: 1.25"/>
    </g>
   </g>
   <g id="patch_3">
    <path d="M 212.76 320.4 
L 257.4 320.4 
L 257.4 186.042857 
L 212.76 186.042857 
z
" clip-path="url(#p9173b0ccf6)" style="fill: #3274a1"/>
   </g>
   <g id="patch_4">
    <path d="M 547.56 320.4 
L 592.2 320.4 
L 592.2 174.257143 
L 547.56 174.257143 
z
" clip-path="url(#p9173b0ccf6)" style="fill: #3274a1"/>
   </g>
   <g id="patch_5">
    <path d="M 257.4 320.4 
L 302.04 320.4 
L 302.04 249.685714 
L 257.4 249.685714 
z
" clip-path="url(#p9173b0ccf6)" style="fill: #e1812c"/>
   </g>
   <g id="patch_6">
    <path d="M 592.2 320.4 
L 636.84 320.4 
L 636.84 174.257143 
L 592.2 174.257143 
z
" clip-path="url(#p9173b0ccf6)" style="fill: #e1812c"/>
   </g>
   <g id="patch_7">
    <path d="M 145.8 320.4 
L 145.8 320.4 
L 145.8 320.4 
L 145.8 320.4 
z
" clip-path="url(#p9173b0ccf6)" style="fill: #3274a1"/>
   </g>
   <g id="patch_8">
    <path d="M 145.8 320.4 
L 145.8 320.4 
L 145.8 320.4 
L 145.8 320.4 
z
" clip-path="url(#p9173b0ccf6)" style="fill: #e1812c"/>
   </g>
   <g id="patch_9">
    <path d="M 212.76 320.4 
L 257.4 320.4 
L 257.4 301.542857 
L 212.76 301.542857 
z
" clip-path="url(#p9173b0ccf6)" style="fill: #3274a1"/>
   </g>
   <g id="patch_10">
    <path d="M 547.56 320.4 
L 592.2 320.4 
L 592.2 292.114286 
L 547.56 292.114286 
z
" clip-path="url(#p9173b0ccf6)" style="fill: #3274a1"/>
   </g>
   <g id="patch_11">
    <path d="M 257.4 320.4 
L 302.04 320.4 
L 302.04 134.185714 
L 257.4 134.185714 
z
" clip-path="url(#p9173b0ccf6)" style="fill: #e1812c"/>
   </g>
   <g id="patch_12">
    <path d="M 592.2 320.4 
L 636.84 320.4 
L 636.84 56.4 
L 592.2 56.4 
z
" clip-path="url(#p9173b0ccf6)" style="fill: #e1812c"/>
   </g>
   <g id="patch_13">
    <path d="M 145.8 320.4 
L 145.8 320.4 
L 145.8 320.4 
L 145.8 320.4 
z
" clip-path="url(#p9173b0ccf6)" style="fill: #3274a1"/>
   </g>
   <g id="patch_14">
    <path d="M 145.8 320.4 
L 145.8 320.4 
L 145.8 320.4 
L 145.8 320.4 
z
" clip-path="url(#p9173b0ccf6)" style="fill: #e1812c"/>
   </g>
   <g id="patch_15">
    <path d="M 212.76 320.4 
L 257.4 320.4 
L 257.4 230.828571 
L 212.76 230.828571 
z
" clip-path="url(#p9173b0ccf6)" style="fill: #3274a1"/>
   </g>
   <g id="patch_16">
    <path d="M 547.56 320.4 
L 592.2 320.4 
L 592.2 186.042857 
L 547.56 186.042857 
z
" clip-path="url(#p9173b0ccf6)" style="fill: #3274a1"/>
   </g>
   <g id="patch_17">
    <path d="M 257.4 320.4 
L 302.04 320.4 
L 302.04 204.9 
L 257.4 204.9 
z
" clip-path="url(#p9173b0ccf6)" style="fill: #e1812c"/>
   </g>
   <g id="patch_18">
    <path d="M 592.2 320.4 
L 636.84 320.4 
L 636.84 162.471429 
L 592.2 162.471429 
z
" clip-path="url(#p9173b0ccf6)" style="fill: #e1812c"/>
   </g>
   <g id="patch_19">
    <path d="M 145.8 320.4 
L 145.8 320.4 
L 145.8 320.4 
L 145.8 320.4 
z
" clip-path="url(#p9173b0ccf6)" style="fill: #3274a1"/>
   </g>
   <g id="patch_20">
    <path d="M 145.8 320.4 
L 145.8 320.4 
L 145.8 320.4 
L 145.8 320.4 
z
" clip-path="url(#p9173b0ccf6)" style="fill: #e1812c"/>
   </g>
   <g id="matplotlib.axis_1">
    <g id="xtick_1">
     <g id="line2d_1">
      <defs>
       <path id="m724502f38a" d="M 0 0 
L 0 3.5 
" style="stroke: #000000; stroke-width: 0.8"/>
      </defs>
      <g>
       <use xlink:href="#m724502f38a" x="145.8" y="320.4" style="stroke: #000000; stroke-width: 0.8"/>
      </g>
     </g>
     <g id="text_1">
      <!-- Spurious -->
      <g transform="translate(124.005469 334.998438) scale(0.1 -0.1)">
       <defs>
        <path id="DejaVuSans-53" d="M 3425 4513 
L 3425 3897 
Q 3066 4069 2747 4153 
Q 2428 4238 2131 4238 
Q 1616 4238 1336 4038 
Q 1056 3838 1056 3469 
Q 1056 3159 1242 3001 
Q 1428 2844 1947 2747 
L 2328 2669 
Q 3034 2534 3370 2195 
Q 3706 1856 3706 1288 
Q 3706 609 3251 259 
Q 2797 -91 1919 -91 
Q 1588 -91 1214 -16 
Q 841 59 441 206 
L 441 856 
Q 825 641 1194 531 
Q 1563 422 1919 422 
Q 2459 422 2753 634 
Q 3047 847 3047 1241 
Q 3047 1584 2836 1778 
Q 2625 1972 2144 2069 
L 1759 2144 
Q 1053 2284 737 2584 
Q 422 2884 422 3419 
Q 422 4038 858 4394 
Q 1294 4750 2059 4750 
Q 2388 4750 2728 4690 
Q 3069 4631 3425 4513 
z
" transform="scale(0.015625)"/>
        <path id="DejaVuSans-70" d="M 1159 525 
L 1159 -1331 
L 581 -1331 
L 581 3500 
L 1159 3500 
L 1159 2969 
Q 1341 3281 1617 3432 
Q 1894 3584 2278 3584 
Q 2916 3584 3314 3078 
Q 3713 2572 3713 1747 
Q 3713 922 3314 415 
Q 2916 -91 2278 -91 
Q 1894 -91 1617 61 
Q 1341 213 1159 525 
z
M 3116 1747 
Q 3116 2381 2855 2742 
Q 2594 3103 2138 3103 
Q 1681 3103 1420 2742 
Q 1159 2381 1159 1747 
Q 1159 1113 1420 752 
Q 1681 391 2138 391 
Q 2594 391 2855 752 
Q 3116 1113 3116 1747 
z
" transform="scale(0.015625)"/>
        <path id="DejaVuSans-75" d="M 544 1381 
L 544 3500 
L 1119 3500 
L 1119 1403 
Q 1119 906 1312 657 
Q 1506 409 1894 409 
Q 2359 409 2629 706 
Q 2900 1003 2900 1516 
L 2900 3500 
L 3475 3500 
L 3475 0 
L 2900 0 
L 2900 538 
Q 2691 219 2414 64 
Q 2138 -91 1772 -91 
Q 1169 -91 856 284 
Q 544 659 544 1381 
z
M 1991 3584 
L 1991 3584 
z
" transform="scale(0.015625)"/>
        <path id="DejaVuSans-72" d="M 2631 2963 
Q 2534 3019 2420 3045 
Q 2306 3072 2169 3072 
Q 1681 3072 1420 2755 
Q 1159 2438 1159 1844 
L 1159 0 
L 581 0 
L 581 3500 
L 1159 3500 
L 1159 2956 
Q 1341 3275 1631 3429 
Q 1922 3584 2338 3584 
Q 2397 3584 2469 3576 
Q 2541 3569 2628 3553 
L 2631 2963 
z
" transform="scale(0.015625)"/>
        <path id="DejaVuSans-69" d="M 603 3500 
L 1178 3500 
L 1178 0 
L 603 0 
L 603 3500 
z
M 603 4863 
L 1178 4863 
L 1178 4134 
L 603 4134 
L 603 4863 
z
" transform="scale(0.015625)"/>
        <path id="DejaVuSans-6f" d="M 1959 3097 
Q 1497 3097 1228 2736 
Q 959 2375 959 1747 
Q 959 1119 1226 758 
Q 1494 397 1959 397 
Q 2419 397 2687 759 
Q 2956 1122 2956 1747 
Q 2956 2369 2687 2733 
Q 2419 3097 1959 3097 
z
M 1959 3584 
Q 2709 3584 3137 3096 
Q 3566 2609 3566 1747 
Q 3566 888 3137 398 
Q 2709 -91 1959 -91 
Q 1206 -91 779 398 
Q 353 888 353 1747 
Q 353 2609 779 3096 
Q 1206 3584 1959 3584 
z
" transform="scale(0.015625)"/>
        <path id="DejaVuSans-73" d="M 2834 3397 
L 2834 2853 
Q 2591 2978 2328 3040 
Q 2066 3103 1784 3103 
Q 1356 3103 1142 2972 
Q 928 2841 928 2578 
Q 928 2378 1081 2264 
Q 1234 2150 1697 2047 
L 1894 2003 
Q 2506 1872 2764 1633 
Q 3022 1394 3022 966 
Q 3022 478 2636 193 
Q 2250 -91 1575 -91 
Q 1294 -91 989 -36 
Q 684 19 347 128 
L 347 722 
Q 666 556 975 473 
Q 1284 391 1588 391 
Q 1994 391 2212 530 
Q 2431 669 2431 922 
Q 2431 1156 2273 1281 
Q 2116 1406 1581 1522 
L 1381 1569 
Q 847 1681 609 1914 
Q 372 2147 372 2553 
Q 372 3047 722 3315 
Q 1072 3584 1716 3584 
Q 2034 3584 2315 3537 
Q 2597 3491 2834 3397 
z
" transform="scale(0.015625)"/>
       </defs>
       <use xlink:href="#DejaVuSans-53"/>
       <use xlink:href="#DejaVuSans-70" transform="translate(63.476562 0)"/>
       <use xlink:href="#DejaVuSans-75" transform="translate(126.953125 0)"/>
       <use xlink:href="#DejaVuSans-72" transform="translate(190.332031 0)"/>
       <use xlink:href="#DejaVuSans-69" transform="translate(231.445312 0)"/>
       <use xlink:href="#DejaVuSans-6f" transform="translate(259.228516 0)"/>
       <use xlink:href="#DejaVuSans-75" transform="translate(320.410156 0)"/>
       <use xlink:href="#DejaVuSans-73" transform="translate(383.789062 0)"/>
      </g>
     </g>
    </g>
    <g id="xtick_2">
     <g id="line2d_2">
      <g>
       <use xlink:href="#m724502f38a" x="257.4" y="320.4" style="stroke: #000000; stroke-width: 0.8"/>
      </g>
     </g>
     <g id="text_2">
      <!-- Specific -->
      <g transform="translate(237.938281 334.998438) scale(0.1 -0.1)">
       <defs>
        <path id="DejaVuSans-65" d="M 3597 1894 
L 3597 1613 
L 953 1613 
Q 991 1019 1311 708 
Q 1631 397 2203 397 
Q 2534 397 2845 478 
Q 3156 559 3463 722 
L 3463 178 
Q 3153 47 2828 -22 
Q 2503 -91 2169 -91 
Q 1331 -91 842 396 
Q 353 884 353 1716 
Q 353 2575 817 3079 
Q 1281 3584 2069 3584 
Q 2775 3584 3186 3129 
Q 3597 2675 3597 1894 
z
M 3022 2063 
Q 3016 2534 2758 2815 
Q 2500 3097 2075 3097 
Q 1594 3097 1305 2825 
Q 1016 2553 972 2059 
L 3022 2063 
z
" transform="scale(0.015625)"/>
        <path id="DejaVuSans-63" d="M 3122 3366 
L 3122 2828 
Q 2878 2963 2633 3030 
Q 2388 3097 2138 3097 
Q 1578 3097 1268 2742 
Q 959 2388 959 1747 
Q 959 1106 1268 751 
Q 1578 397 2138 397 
Q 2388 397 2633 464 
Q 2878 531 3122 666 
L 3122 134 
Q 2881 22 2623 -34 
Q 2366 -91 2075 -91 
Q 1284 -91 818 406 
Q 353 903 353 1747 
Q 353 2603 823 3093 
Q 1294 3584 2113 3584 
Q 2378 3584 2631 3529 
Q 2884 3475 3122 3366 
z
" transform="scale(0.015625)"/>
        <path id="DejaVuSans-66" d="M 2375 4863 
L 2375 4384 
L 1825 4384 
Q 1516 4384 1395 4259 
Q 1275 4134 1275 3809 
L 1275 3500 
L 2222 3500 
L 2222 3053 
L 1275 3053 
L 1275 0 
L 697 0 
L 697 3053 
L 147 3053 
L 147 3500 
L 697 3500 
L 697 3744 
Q 697 4328 969 4595 
Q 1241 4863 1831 4863 
L 2375 4863 
z
" transform="scale(0.015625)"/>
       </defs>
       <use xlink:href="#DejaVuSans-53"/>
       <use xlink:href="#DejaVuSans-70" transform="translate(63.476562 0)"/>
       <use xlink:href="#DejaVuSans-65" transform="translate(126.953125 0)"/>
       <use xlink:href="#DejaVuSans-63" transform="translate(188.476562 0)"/>
       <use xlink:href="#DejaVuSans-69" transform="translate(243.457031 0)"/>
       <use xlink:href="#DejaVuSans-66" transform="translate(271.240234 0)"/>
       <use xlink:href="#DejaVuSans-69" transform="translate(306.445312 0)"/>
       <use xlink:href="#DejaVuSans-63" transform="translate(334.228516 0)"/>
      </g>
     </g>
    </g>
    <g id="xtick_3">
     <g id="line2d_3">
      <g>
       <use xlink:href="#m724502f38a" x="369" y="320.4" style="stroke: #000000; stroke-width: 0.8"/>
      </g>
     </g>
     <g id="text_3">
      <!-- Non-specific -->
      <g transform="translate(338.335156 334.998438) scale(0.1 -0.1)">
       <defs>
        <path id="DejaVuSans-4e" d="M 628 4666 
L 1478 4666 
L 3547 763 
L 3547 4666 
L 4159 4666 
L 4159 0 
L 3309 0 
L 1241 3903 
L 1241 0 
L 628 0 
L 628 4666 
z
" transform="scale(0.015625)"/>
        <path id="DejaVuSans-6e" d="M 3513 2113 
L 3513 0 
L 2938 0 
L 2938 2094 
Q 2938 2591 2744 2837 
Q 2550 3084 2163 3084 
Q 1697 3084 1428 2787 
Q 1159 2491 1159 1978 
L 1159 0 
L 581 0 
L 581 3500 
L 1159 3500 
L 1159 2956 
Q 1366 3272 1645 3428 
Q 1925 3584 2291 3584 
Q 2894 3584 3203 3211 
Q 3513 2838 3513 2113 
z
" transform="scale(0.015625)"/>
        <path id="DejaVuSans-2d" d="M 313 2009 
L 1997 2009 
L 1997 1497 
L 313 1497 
L 313 2009 
z
" transform="scale(0.015625)"/>
       </defs>
       <use xlink:href="#DejaVuSans-4e"/>
       <use xlink:href="#DejaVuSans-6f" transform="translate(74.804688 0)"/>
       <use xlink:href="#DejaVuSans-6e" transform="translate(135.986328 0)"/>
       <use xlink:href="#DejaVuSans-2d" transform="translate(199.365234 0)"/>
       <use xlink:href="#DejaVuSans-73" transform="translate(235.449219 0)"/>
       <use xlink:href="#DejaVuSans-70" transform="translate(287.548828 0)"/>
       <use xlink:href="#DejaVuSans-65" transform="translate(351.025391 0)"/>
       <use xlink:href="#DejaVuSans-63" transform="translate(412.548828 0)"/>
       <use xlink:href="#DejaVuSans-69" transform="translate(467.529297 0)"/>
       <use xlink:href="#DejaVuSans-66" transform="translate(495.3125 0)"/>
       <use xlink:href="#DejaVuSans-69" transform="translate(530.517578 0)"/>
       <use xlink:href="#DejaVuSans-63" transform="translate(558.300781 0)"/>
      </g>
     </g>
    </g>
    <g id="xtick_4">
     <g id="line2d_4">
      <g>
       <use xlink:href="#m724502f38a" x="480.6" y="320.4" style="stroke: #000000; stroke-width: 0.8"/>
      </g>
     </g>
     <g id="text_4">
      <!-- No -->
      <g transform="translate(473.8 334.998438) scale(0.1 -0.1)">
       <use xlink:href="#DejaVuSans-4e"/>
       <use xlink:href="#DejaVuSans-6f" transform="translate(74.804688 0)"/>
      </g>
     </g>
    </g>
    <g id="xtick_5">
     <g id="line2d_5">
      <g>
       <use xlink:href="#m724502f38a" x="592.2" y="320.4" style="stroke: #000000; stroke-width: 0.8"/>
      </g>
     </g>
     <g id="text_5">
      <!-- other -->
      <g transform="translate(578.879688 334.998438) scale(0.1 -0.1)">
       <defs>
        <path id="DejaVuSans-74" d="M 1172 4494 
L 1172 3500 
L 2356 3500 
L 2356 3053 
L 1172 3053 
L 1172 1153 
Q 1172 725 1289 603 
Q 1406 481 1766 481 
L 2356 481 
L 2356 0 
L 1766 0 
Q 1100 0 847 248 
Q 594 497 594 1153 
L 594 3053 
L 172 3053 
L 172 3500 
L 594 3500 
L 594 4494 
L 1172 4494 
z
" transform="scale(0.015625)"/>
        <path id="DejaVuSans-68" d="M 3513 2113 
L 3513 0 
L 2938 0 
L 2938 2094 
Q 2938 2591 2744 2837 
Q 2550 3084 2163 3084 
Q 1697 3084 1428 2787 
Q 1159 2491 1159 1978 
L 1159 0 
L 581 0 
L 581 4863 
L 1159 4863 
L 1159 2956 
Q 1366 3272 1645 3428 
Q 1925 3584 2291 3584 
Q 2894 3584 3203 3211 
Q 3513 2838 3513 2113 
z
" transform="scale(0.015625)"/>
       </defs>
       <use xlink:href="#DejaVuSans-6f"/>
       <use xlink:href="#DejaVuSans-74" transform="translate(61.181641 0)"/>
       <use xlink:href="#DejaVuSans-68" transform="translate(100.390625 0)"/>
       <use xlink:href="#DejaVuSans-65" transform="translate(163.769531 0)"/>
       <use xlink:href="#DejaVuSans-72" transform="translate(225.292969 0)"/>
      </g>
     </g>
    </g>
    <g id="text_6">
     <!-- Connectivity category -->
     <g transform="translate(313.98125 348.676562) scale(0.1 -0.1)">
      <defs>
       <path id="DejaVuSans-43" d="M 4122 4306 
L 4122 3641 
Q 3803 3938 3442 4084 
Q 3081 4231 2675 4231 
Q 1875 4231 1450 3742 
Q 1025 3253 1025 2328 
Q 1025 1406 1450 917 
Q 1875 428 2675 428 
Q 3081 428 3442 575 
Q 3803 722 4122 1019 
L 4122 359 
Q 3791 134 3420 21 
Q 3050 -91 2638 -91 
Q 1578 -91 968 557 
Q 359 1206 359 2328 
Q 359 3453 968 4101 
Q 1578 4750 2638 4750 
Q 3056 4750 3426 4639 
Q 3797 4528 4122 4306 
z
" transform="scale(0.015625)"/>
       <path id="DejaVuSans-76" d="M 191 3500 
L 800 3500 
L 1894 563 
L 2988 3500 
L 3597 3500 
L 2284 0 
L 1503 0 
L 191 3500 
z
" transform="scale(0.015625)"/>
       <path id="DejaVuSans-79" d="M 2059 -325 
Q 1816 -950 1584 -1140 
Q 1353 -1331 966 -1331 
L 506 -1331 
L 506 -850 
L 844 -850 
Q 1081 -850 1212 -737 
Q 1344 -625 1503 -206 
L 1606 56 
L 191 3500 
L 800 3500 
L 1894 763 
L 2988 3500 
L 3597 3500 
L 2059 -325 
z
" transform="scale(0.015625)"/>
       <path id="DejaVuSans-20" transform="scale(0.015625)"/>
       <path id="DejaVuSans-61" d="M 2194 1759 
Q 1497 1759 1228 1600 
Q 959 1441 959 1056 
Q 959 750 1161 570 
Q 1363 391 1709 391 
Q 2188 391 2477 730 
Q 2766 1069 2766 1631 
L 2766 1759 
L 2194 1759 
z
M 3341 1997 
L 3341 0 
L 2766 0 
L 2766 531 
Q 2569 213 2275 61 
Q 1981 -91 1556 -91 
Q 1019 -91 701 211 
Q 384 513 384 1019 
Q 384 1609 779 1909 
Q 1175 2209 1959 2209 
L 2766 2209 
L 2766 2266 
Q 2766 2663 2505 2880 
Q 2244 3097 1772 3097 
Q 1472 3097 1187 3025 
Q 903 2953 641 2809 
L 641 3341 
Q 956 3463 1253 3523 
Q 1550 3584 1831 3584 
Q 2591 3584 2966 3190 
Q 3341 2797 3341 1997 
z
" transform="scale(0.015625)"/>
       <path id="DejaVuSans-67" d="M 2906 1791 
Q 2906 2416 2648 2759 
Q 2391 3103 1925 3103 
Q 1463 3103 1205 2759 
Q 947 2416 947 1791 
Q 947 1169 1205 825 
Q 1463 481 1925 481 
Q 2391 481 2648 825 
Q 2906 1169 2906 1791 
z
M 3481 434 
Q 3481 -459 3084 -895 
Q 2688 -1331 1869 -1331 
Q 1566 -1331 1297 -1286 
Q 1028 -1241 775 -1147 
L 775 -588 
Q 1028 -725 1275 -790 
Q 1522 -856 1778 -856 
Q 2344 -856 2625 -561 
Q 2906 -266 2906 331 
L 2906 616 
Q 2728 306 2450 153 
Q 2172 0 1784 0 
Q 1141 0 747 490 
Q 353 981 353 1791 
Q 353 2603 747 3093 
Q 1141 3584 1784 3584 
Q 2172 3584 2450 3431 
Q 2728 3278 2906 2969 
L 2906 3500 
L 3481 3500 
L 3481 434 
z
" transform="scale(0.015625)"/>
      </defs>
      <use xlink:href="#DejaVuSans-43"/>
      <use xlink:href="#DejaVuSans-6f" transform="translate(69.824219 0)"/>
      <use xlink:href="#DejaVuSans-6e" transform="translate(131.005859 0)"/>
      <use xlink:href="#DejaVuSans-6e" transform="translate(194.384766 0)"/>
      <use xlink:href="#DejaVuSans-65" transform="translate(257.763672 0)"/>
      <use xlink:href="#DejaVuSans-63" transform="translate(319.287109 0)"/>
      <use xlink:href="#DejaVuSans-74" transform="translate(374.267578 0)"/>
      <use xlink:href="#DejaVuSans-69" transform="translate(413.476562 0)"/>
      <use xlink:href="#DejaVuSans-76" transform="translate(441.259766 0)"/>
      <use xlink:href="#DejaVuSans-69" transform="translate(500.439453 0)"/>
      <use xlink:href="#DejaVuSans-74" transform="translate(528.222656 0)"/>
      <use xlink:href="#DejaVuSans-79" transform="translate(567.431641 0)"/>
      <use xlink:href="#DejaVuSans-20" transform="translate(626.611328 0)"/>
      <use xlink:href="#DejaVuSans-63" transform="translate(658.398438 0)"/>
      <use xlink:href="#DejaVuSans-61" transform="translate(713.378906 0)"/>
      <use xlink:href="#DejaVuSans-74" transform="translate(774.658203 0)"/>
      <use xlink:href="#DejaVuSans-65" transform="translate(813.867188 0)"/>
      <use xlink:href="#DejaVuSans-67" transform="translate(875.390625 0)"/>
      <use xlink:href="#DejaVuSans-6f" transform="translate(938.867188 0)"/>
      <use xlink:href="#DejaVuSans-72" transform="translate(1000.048828 0)"/>
      <use xlink:href="#DejaVuSans-79" transform="translate(1041.162109 0)"/>
     </g>
    </g>
   </g>
   <g id="matplotlib.axis_2">
    <g id="ytick_1">
     <g id="line2d_6">
      <defs>
       <path id="ma2f33202a1" d="M 0 0 
L -3.5 0 
" style="stroke: #000000; stroke-width: 0.8"/>
      </defs>
      <g>
       <use xlink:href="#ma2f33202a1" x="90" y="320.4" style="stroke: #000000; stroke-width: 0.8"/>
      </g>
     </g>
     <g id="text_7">
      <!-- 0 -->
      <g transform="translate(76.6375 324.199219) scale(0.1 -0.1)">
       <defs>
        <path id="DejaVuSans-30" d="M 2034 4250 
Q 1547 4250 1301 3770 
Q 1056 3291 1056 2328 
Q 1056 1369 1301 889 
Q 1547 409 2034 409 
Q 2525 409 2770 889 
Q 3016 1369 3016 2328 
Q 3016 3291 2770 3770 
Q 2525 4250 2034 4250 
z
M 2034 4750 
Q 2819 4750 3233 4129 
Q 3647 3509 3647 2328 
Q 3647 1150 3233 529 
Q 2819 -91 2034 -91 
Q 1250 -91 836 529 
Q 422 1150 422 2328 
Q 422 3509 836 4129 
Q 1250 4750 2034 4750 
z
" transform="scale(0.015625)"/>
       </defs>
       <use xlink:href="#DejaVuSans-30"/>
      </g>
     </g>
    </g>
    <g id="ytick_2">
     <g id="line2d_7">
      <g>
       <use xlink:href="#ma2f33202a1" x="90" y="273.257143" style="stroke: #000000; stroke-width: 0.8"/>
      </g>
     </g>
     <g id="text_8">
      <!-- 20 -->
      <g transform="translate(70.275 277.056362) scale(0.1 -0.1)">
       <defs>
        <path id="DejaVuSans-32" d="M 1228 531 
L 3431 531 
L 3431 0 
L 469 0 
L 469 531 
Q 828 903 1448 1529 
Q 2069 2156 2228 2338 
Q 2531 2678 2651 2914 
Q 2772 3150 2772 3378 
Q 2772 3750 2511 3984 
Q 2250 4219 1831 4219 
Q 1534 4219 1204 4116 
Q 875 4013 500 3803 
L 500 4441 
Q 881 4594 1212 4672 
Q 1544 4750 1819 4750 
Q 2544 4750 2975 4387 
Q 3406 4025 3406 3419 
Q 3406 3131 3298 2873 
Q 3191 2616 2906 2266 
Q 2828 2175 2409 1742 
Q 1991 1309 1228 531 
z
" transform="scale(0.015625)"/>
       </defs>
       <use xlink:href="#DejaVuSans-32"/>
       <use xlink:href="#DejaVuSans-30" transform="translate(63.623047 0)"/>
      </g>
     </g>
    </g>
    <g id="ytick_3">
     <g id="line2d_8">
      <g>
       <use xlink:href="#ma2f33202a1" x="90" y="226.114286" style="stroke: #000000; stroke-width: 0.8"/>
      </g>
     </g>
     <g id="text_9">
      <!-- 40 -->
      <g transform="translate(70.275 229.913504) scale(0.1 -0.1)">
       <defs>
        <path id="DejaVuSans-34" d="M 2419 4116 
L 825 1625 
L 2419 1625 
L 2419 4116 
z
M 2253 4666 
L 3047 4666 
L 3047 1625 
L 3713 1625 
L 3713 1100 
L 3047 1100 
L 3047 0 
L 2419 0 
L 2419 1100 
L 313 1100 
L 313 1709 
L 2253 4666 
z
" transform="scale(0.015625)"/>
       </defs>
       <use xlink:href="#DejaVuSans-34"/>
       <use xlink:href="#DejaVuSans-30" transform="translate(63.623047 0)"/>
      </g>
     </g>
    </g>
    <g id="ytick_4">
     <g id="line2d_9">
      <g>
       <use xlink:href="#ma2f33202a1" x="90" y="178.971429" style="stroke: #000000; stroke-width: 0.8"/>
      </g>
     </g>
     <g id="text_10">
      <!-- 60 -->
      <g transform="translate(70.275 182.770647) scale(0.1 -0.1)">
       <defs>
        <path id="DejaVuSans-36" d="M 2113 2584 
Q 1688 2584 1439 2293 
Q 1191 2003 1191 1497 
Q 1191 994 1439 701 
Q 1688 409 2113 409 
Q 2538 409 2786 701 
Q 3034 994 3034 1497 
Q 3034 2003 2786 2293 
Q 2538 2584 2113 2584 
z
M 3366 4563 
L 3366 3988 
Q 3128 4100 2886 4159 
Q 2644 4219 2406 4219 
Q 1781 4219 1451 3797 
Q 1122 3375 1075 2522 
Q 1259 2794 1537 2939 
Q 1816 3084 2150 3084 
Q 2853 3084 3261 2657 
Q 3669 2231 3669 1497 
Q 3669 778 3244 343 
Q 2819 -91 2113 -91 
Q 1303 -91 875 529 
Q 447 1150 447 2328 
Q 447 3434 972 4092 
Q 1497 4750 2381 4750 
Q 2619 4750 2861 4703 
Q 3103 4656 3366 4563 
z
" transform="scale(0.015625)"/>
       </defs>
       <use xlink:href="#DejaVuSans-36"/>
       <use xlink:href="#DejaVuSans-30" transform="translate(63.623047 0)"/>
      </g>
     </g>
    </g>
    <g id="ytick_5">
     <g id="line2d_10">
      <g>
       <use xlink:href="#ma2f33202a1" x="90" y="131.828571" style="stroke: #000000; stroke-width: 0.8"/>
      </g>
     </g>
     <g id="text_11">
      <!-- 80 -->
      <g transform="translate(70.275 135.62779) scale(0.1 -0.1)">
       <defs>
        <path id="DejaVuSans-38" d="M 2034 2216 
Q 1584 2216 1326 1975 
Q 1069 1734 1069 1313 
Q 1069 891 1326 650 
Q 1584 409 2034 409 
Q 2484 409 2743 651 
Q 3003 894 3003 1313 
Q 3003 1734 2745 1975 
Q 2488 2216 2034 2216 
z
M 1403 2484 
Q 997 2584 770 2862 
Q 544 3141 544 3541 
Q 544 4100 942 4425 
Q 1341 4750 2034 4750 
Q 2731 4750 3128 4425 
Q 3525 4100 3525 3541 
Q 3525 3141 3298 2862 
Q 3072 2584 2669 2484 
Q 3125 2378 3379 2068 
Q 3634 1759 3634 1313 
Q 3634 634 3220 271 
Q 2806 -91 2034 -91 
Q 1263 -91 848 271 
Q 434 634 434 1313 
Q 434 1759 690 2068 
Q 947 2378 1403 2484 
z
M 1172 3481 
Q 1172 3119 1398 2916 
Q 1625 2713 2034 2713 
Q 2441 2713 2670 2916 
Q 2900 3119 2900 3481 
Q 2900 3844 2670 4047 
Q 2441 4250 2034 4250 
Q 1625 4250 1398 4047 
Q 1172 3844 1172 3481 
z
" transform="scale(0.015625)"/>
       </defs>
       <use xlink:href="#DejaVuSans-38"/>
       <use xlink:href="#DejaVuSans-30" transform="translate(63.623047 0)"/>
      </g>
     </g>
    </g>
    <g id="ytick_6">
     <g id="line2d_11">
      <g>
       <use xlink:href="#ma2f33202a1" x="90" y="84.685714" style="stroke: #000000; stroke-width: 0.8"/>
      </g>
     </g>
     <g id="text_12">
      <!-- 100 -->
      <g transform="translate(63.9125 88.484933) scale(0.1 -0.1)">
       <defs>
        <path id="DejaVuSans-31" d="M 794 531 
L 1825 531 
L 1825 4091 
L 703 3866 
L 703 4441 
L 1819 4666 
L 2450 4666 
L 2450 531 
L 3481 531 
L 3481 0 
L 794 0 
L 794 531 
z
" transform="scale(0.015625)"/>
       </defs>
       <use xlink:href="#DejaVuSans-31"/>
       <use xlink:href="#DejaVuSans-30" transform="translate(63.623047 0)"/>
       <use xlink:href="#DejaVuSans-30" transform="translate(127.246094 0)"/>
      </g>
     </g>
    </g>
    <g id="text_13">
     <!-- cont_variable -->
     <g transform="translate(57.554687 215.409375) rotate(-90) scale(0.1 -0.1)">
      <defs>
       <path id="DejaVuSans-5f" d="M 3263 -1063 
L 3263 -1509 
L -63 -1509 
L -63 -1063 
L 3263 -1063 
z
" transform="scale(0.015625)"/>
       <path id="DejaVuSans-62" d="M 3116 1747 
Q 3116 2381 2855 2742 
Q 2594 3103 2138 3103 
Q 1681 3103 1420 2742 
Q 1159 2381 1159 1747 
Q 1159 1113 1420 752 
Q 1681 391 2138 391 
Q 2594 391 2855 752 
Q 3116 1113 3116 1747 
z
M 1159 2969 
Q 1341 3281 1617 3432 
Q 1894 3584 2278 3584 
Q 2916 3584 3314 3078 
Q 3713 2572 3713 1747 
Q 3713 922 3314 415 
Q 2916 -91 2278 -91 
Q 1894 -91 1617 61 
Q 1341 213 1159 525 
L 1159 0 
L 581 0 
L 581 4863 
L 1159 4863 
L 1159 2969 
z
" transform="scale(0.015625)"/>
       <path id="DejaVuSans-6c" d="M 603 4863 
L 1178 4863 
L 1178 0 
L 603 0 
L 603 4863 
z
" transform="scale(0.015625)"/>
      </defs>
      <use xlink:href="#DejaVuSans-63"/>
      <use xlink:href="#DejaVuSans-6f" transform="translate(54.980469 0)"/>
      <use xlink:href="#DejaVuSans-6e" transform="translate(116.162109 0)"/>
      <use xlink:href="#DejaVuSans-74" transform="translate(179.541016 0)"/>
      <use xlink:href="#DejaVuSans-5f" transform="translate(218.75 0)"/>
      <use xlink:href="#DejaVuSans-76" transform="translate(268.75 0)"/>
      <use xlink:href="#DejaVuSans-61" transform="translate(327.929688 0)"/>
      <use xlink:href="#DejaVuSans-72" transform="translate(389.208984 0)"/>
      <use xlink:href="#DejaVuSans-69" transform="translate(430.322266 0)"/>
      <use xlink:href="#DejaVuSans-61" transform="translate(458.105469 0)"/>
      <use xlink:href="#DejaVuSans-62" transform="translate(519.384766 0)"/>
      <use xlink:href="#DejaVuSans-6c" transform="translate(582.861328 0)"/>
      <use xlink:href="#DejaVuSans-65" transform="translate(610.644531 0)"/>
     </g>
    </g>
   </g>
   <g id="line2d_12">
    <path clip-path="url(#p9173b0ccf6)" style="fill: none; stroke: #424242; stroke-width: 2.25; stroke-linecap: square"/>
   </g>
   <g id="line2d_13">
    <path clip-path="url(#p9173b0ccf6)" style="fill: none; stroke: #424242; stroke-width: 2.25; stroke-linecap: square"/>
   </g>
   <g id="line2d_14">
    <path clip-path="url(#p9173b0ccf6)" style="fill: none; stroke: #424242; stroke-width: 2.25; stroke-linecap: square"/>
   </g>
   <g id="line2d_15">
    <path clip-path="url(#p9173b0ccf6)" style="fill: none; stroke: #424242; stroke-width: 2.25; stroke-linecap: square"/>
   </g>
   <g id="line2d_16">
    <path clip-path="url(#p9173b0ccf6)" style="fill: none; stroke: #424242; stroke-width: 2.25; stroke-linecap: square"/>
   </g>
   <g id="line2d_17">
    <path clip-path="url(#p9173b0ccf6)" style="fill: none; stroke: #424242; stroke-width: 2.25; stroke-linecap: square"/>
   </g>
   <g id="line2d_18">
    <path clip-path="url(#p9173b0ccf6)" style="fill: none; stroke: #424242; stroke-width: 2.25; stroke-linecap: square"/>
   </g>
   <g id="line2d_19">
    <path clip-path="url(#p9173b0ccf6)" style="fill: none; stroke: #424242; stroke-width: 2.25; stroke-linecap: square"/>
   </g>
   <g id="line2d_20">
    <path clip-path="url(#p9173b0ccf6)" style="fill: none; stroke: #424242; stroke-width: 2.25; stroke-linecap: square"/>
   </g>
   <g id="line2d_21">
    <path clip-path="url(#p9173b0ccf6)" style="fill: none; stroke: #424242; stroke-width: 2.25; stroke-linecap: square"/>
   </g>
   <g id="line2d_22">
    <path clip-path="url(#p9173b0ccf6)" style="fill: none; stroke: #424242; stroke-width: 2.25; stroke-linecap: square"/>
   </g>
   <g id="line2d_23">
    <path clip-path="url(#p9173b0ccf6)" style="fill: none; stroke: #424242; stroke-width: 2.25; stroke-linecap: square"/>
   </g>
   <g id="patch_21">
    <path d="M 90 320.4 
L 90 43.2 
" style="fill: none; stroke: #000000; stroke-width: 0.8; stroke-linejoin: miter; stroke-linecap: square"/>
   </g>
   <g id="patch_22">
    <path d="M 648 320.4 
L 648 43.2 
" style="fill: none; stroke: #000000; stroke-width: 0.8; stroke-linejoin: miter; stroke-linecap: square"/>
   </g>
   <g id="patch_23">
    <path d="M 90 320.4 
L 648 320.4 
" style="fill: none; stroke: #000000; stroke-width: 0.8; stroke-linejoin: miter; stroke-linecap: square"/>
   </g>
   <g id="patch_24">
    <path d="M 90 43.2 
L 648 43.2 
" style="fill: none; stroke: #000000; stroke-width: 0.8; stroke-linejoin: miter; stroke-linecap: square"/>
   </g>
   <g id="PathCollection_1">
    <defs>
     <path id="m7ed6b4ce37" d="M 0 2.5 
C 0.663008 2.5 1.29895 2.236584 1.767767 1.767767 
C 2.236584 1.29895 2.5 0.663008 2.5 0 
C 2.5 -0.663008 2.236584 -1.29895 1.767767 -1.767767 
C 1.29895 -2.236584 0.663008 -2.5 0 -2.5 
C -0.663008 -2.5 -1.29895 -2.236584 -1.767767 -1.767767 
C -2.236584 -1.29895 -2.5 -0.663008 -2.5 0 
C -2.5 0.663008 -2.236584 1.29895 -1.767767 1.767767 
C -1.29895 2.236584 -0.663008 2.5 0 2.5 
z
"/>
    </defs>
    <g clip-path="url(#p9173b0ccf6)">
     <use xlink:href="#m7ed6b4ce37" x="140.16595" y="301.542857" style="fill-opacity: 0.3"/>
     <use xlink:href="#m7ed6b4ce37" x="153.355638" y="301.542857" style="fill-opacity: 0.3"/>
     <use xlink:href="#m7ed6b4ce37" x="143.759068" y="310.971429" style="fill-opacity: 0.3"/>
     <use xlink:href="#m7ed6b4ce37" x="152.518008" y="301.542857" style="fill-opacity: 0.3"/>
     <use xlink:href="#m7ed6b4ce37" x="144.813156" y="299.185714" style="fill-opacity: 0.3"/>
     <use xlink:href="#m7ed6b4ce37" x="146.92142" y="299.185714" style="fill-opacity: 0.3"/>
     <use xlink:href="#m7ed6b4ce37" x="150.14212" y="299.185714" style="fill-opacity: 0.3"/>
     <use xlink:href="#m7ed6b4ce37" x="149.070231" y="299.185714" style="fill-opacity: 0.3"/>
     <use xlink:href="#m7ed6b4ce37" x="137.639057" y="299.185714" style="fill-opacity: 0.3"/>
     <use xlink:href="#m7ed6b4ce37" x="142.245871" y="299.185714" style="fill-opacity: 0.3"/>
     <use xlink:href="#m7ed6b4ce37" x="153.892082" y="299.185714" style="fill-opacity: 0.3"/>
     <use xlink:href="#m7ed6b4ce37" x="156.120914" y="299.185714" style="fill-opacity: 0.3"/>
     <use xlink:href="#m7ed6b4ce37" x="153.70418" y="299.185714" style="fill-opacity: 0.3"/>
     <use xlink:href="#m7ed6b4ce37" x="146.55225" y="299.185714" style="fill-opacity: 0.3"/>
     <use xlink:href="#m7ed6b4ce37" x="155.757366" y="299.185714" style="fill-opacity: 0.3"/>
     <use xlink:href="#m7ed6b4ce37" x="135.098621" y="299.185714" style="fill-opacity: 0.3"/>
     <use xlink:href="#m7ed6b4ce37" x="146.487074" y="299.185714" style="fill-opacity: 0.3"/>
     <use xlink:href="#m7ed6b4ce37" x="153.800312" y="299.185714" style="fill-opacity: 0.3"/>
     <use xlink:href="#m7ed6b4ce37" x="148.2538" y="299.185714" style="fill-opacity: 0.3"/>
     <use xlink:href="#m7ed6b4ce37" x="156.338614" y="299.185714" style="fill-opacity: 0.3"/>
     <use xlink:href="#m7ed6b4ce37" x="150.595988" y="299.185714" style="fill-opacity: 0.3"/>
     <use xlink:href="#m7ed6b4ce37" x="152.633878" y="299.185714" style="fill-opacity: 0.3"/>
     <use xlink:href="#m7ed6b4ce37" x="142.243354" y="299.185714" style="fill-opacity: 0.3"/>
     <use xlink:href="#m7ed6b4ce37" x="144.344488" y="299.185714" style="fill-opacity: 0.3"/>
     <use xlink:href="#m7ed6b4ce37" x="146.683563" y="299.185714" style="fill-opacity: 0.3"/>
     <use xlink:href="#m7ed6b4ce37" x="139.988798" y="299.185714" style="fill-opacity: 0.3"/>
     <use xlink:href="#m7ed6b4ce37" x="150.456796" y="299.185714" style="fill-opacity: 0.3"/>
     <use xlink:href="#m7ed6b4ce37" x="140.58589" y="299.185714" style="fill-opacity: 0.3"/>
     <use xlink:href="#m7ed6b4ce37" x="150.346624" y="303.9" style="fill-opacity: 0.3"/>
     <use xlink:href="#m7ed6b4ce37" x="148.87065" y="303.9" style="fill-opacity: 0.3"/>
     <use xlink:href="#m7ed6b4ce37" x="139.543683" y="303.9" style="fill-opacity: 0.3"/>
     <use xlink:href="#m7ed6b4ce37" x="144.47045" y="303.9" style="fill-opacity: 0.3"/>
     <use xlink:href="#m7ed6b4ce37" x="153.63345" y="303.9" style="fill-opacity: 0.3"/>
     <use xlink:href="#m7ed6b4ce37" x="140.667365" y="303.9" style="fill-opacity: 0.3"/>
     <use xlink:href="#m7ed6b4ce37" x="139.98812" y="303.9" style="fill-opacity: 0.3"/>
     <use xlink:href="#m7ed6b4ce37" x="137.011074" y="303.9" style="fill-opacity: 0.3"/>
     <use xlink:href="#m7ed6b4ce37" x="135.506396" y="303.9" style="fill-opacity: 0.3"/>
     <use xlink:href="#m7ed6b4ce37" x="151.64416" y="303.9" style="fill-opacity: 0.3"/>
     <use xlink:href="#m7ed6b4ce37" x="149.08125" y="303.9" style="fill-opacity: 0.3"/>
     <use xlink:href="#m7ed6b4ce37" x="149.327855" y="303.9" style="fill-opacity: 0.3"/>
     <use xlink:href="#m7ed6b4ce37" x="149.545615" y="303.9" style="fill-opacity: 0.3"/>
     <use xlink:href="#m7ed6b4ce37" x="143.110872" y="303.9" style="fill-opacity: 0.3"/>
     <use xlink:href="#m7ed6b4ce37" x="136.821125" y="303.9" style="fill-opacity: 0.3"/>
     <use xlink:href="#m7ed6b4ce37" x="137.214126" y="303.9" style="fill-opacity: 0.3"/>
     <use xlink:href="#m7ed6b4ce37" x="141.523211" y="303.9" style="fill-opacity: 0.3"/>
     <use xlink:href="#m7ed6b4ce37" x="151.803457" y="303.9" style="fill-opacity: 0.3"/>
     <use xlink:href="#m7ed6b4ce37" x="134.704559" y="303.9" style="fill-opacity: 0.3"/>
     <use xlink:href="#m7ed6b4ce37" x="147.624693" y="303.9" style="fill-opacity: 0.3"/>
     <use xlink:href="#m7ed6b4ce37" x="139.762734" y="299.185714" style="fill-opacity: 0.3"/>
     <use xlink:href="#m7ed6b4ce37" x="138.131646" y="299.185714" style="fill-opacity: 0.3"/>
     <use xlink:href="#m7ed6b4ce37" x="135.440758" y="299.185714" style="fill-opacity: 0.3"/>
     <use xlink:href="#m7ed6b4ce37" x="147.778275" y="299.185714" style="fill-opacity: 0.3"/>
     <use xlink:href="#m7ed6b4ce37" x="142.646975" y="299.185714" style="fill-opacity: 0.3"/>
     <use xlink:href="#m7ed6b4ce37" x="141.38216" y="299.185714" style="fill-opacity: 0.3"/>
    </g>
   </g>
   <g id="PathCollection_2">
    <g clip-path="url(#p9173b0ccf6)">
     <use xlink:href="#m7ed6b4ce37" x="261.040383" y="301.542857" style="fill-opacity: 0.3"/>
     <use xlink:href="#m7ed6b4ce37" x="265.21483" y="301.542857" style="fill-opacity: 0.3"/>
     <use xlink:href="#m7ed6b4ce37" x="248.90382" y="301.542857" style="fill-opacity: 0.3"/>
     <use xlink:href="#m7ed6b4ce37" x="263.192765" y="301.542857" style="fill-opacity: 0.3"/>
     <use xlink:href="#m7ed6b4ce37" x="248.870265" y="301.542857" style="fill-opacity: 0.3"/>
     <use xlink:href="#m7ed6b4ce37" x="265.950185" y="301.542857" style="fill-opacity: 0.3"/>
     <use xlink:href="#m7ed6b4ce37" x="249.582237" y="301.542857" style="fill-opacity: 0.3"/>
     <use xlink:href="#m7ed6b4ce37" x="262.547043" y="301.542857" style="fill-opacity: 0.3"/>
     <use xlink:href="#m7ed6b4ce37" x="260.030201" y="301.542857" style="fill-opacity: 0.3"/>
     <use xlink:href="#m7ed6b4ce37" x="259.869613" y="301.542857" style="fill-opacity: 0.3"/>
     <use xlink:href="#m7ed6b4ce37" x="260.384264" y="310.971429" style="fill-opacity: 0.3"/>
     <use xlink:href="#m7ed6b4ce37" x="246.513508" y="310.971429" style="fill-opacity: 0.3"/>
     <use xlink:href="#m7ed6b4ce37" x="254.435132" y="310.971429" style="fill-opacity: 0.3"/>
     <use xlink:href="#m7ed6b4ce37" x="248.1018" y="310.971429" style="fill-opacity: 0.3"/>
     <use xlink:href="#m7ed6b4ce37" x="263.658859" y="301.542857" style="fill-opacity: 0.3"/>
     <use xlink:href="#m7ed6b4ce37" x="257.46808" y="299.185714" style="fill-opacity: 0.3"/>
     <use xlink:href="#m7ed6b4ce37" x="267.820472" y="299.185714" style="fill-opacity: 0.3"/>
     <use xlink:href="#m7ed6b4ce37" x="265.93033" y="299.185714" style="fill-opacity: 0.3"/>
     <use xlink:href="#m7ed6b4ce37" x="254.898035" y="299.185714" style="fill-opacity: 0.3"/>
     <use xlink:href="#m7ed6b4ce37" x="247.26079" y="299.185714" style="fill-opacity: 0.3"/>
     <use xlink:href="#m7ed6b4ce37" x="251.458564" y="299.185714" style="fill-opacity: 0.3"/>
     <use xlink:href="#m7ed6b4ce37" x="263.259724" y="299.185714" style="fill-opacity: 0.3"/>
     <use xlink:href="#m7ed6b4ce37" x="265.03947" y="299.185714" style="fill-opacity: 0.3"/>
     <use xlink:href="#m7ed6b4ce37" x="247.061849" y="299.185714" style="fill-opacity: 0.3"/>
     <use xlink:href="#m7ed6b4ce37" x="262.786035" y="299.185714" style="fill-opacity: 0.3"/>
     <use xlink:href="#m7ed6b4ce37" x="252.070207" y="299.185714" style="fill-opacity: 0.3"/>
     <use xlink:href="#m7ed6b4ce37" x="267.407312" y="299.185714" style="fill-opacity: 0.3"/>
     <use xlink:href="#m7ed6b4ce37" x="259.877079" y="299.185714" style="fill-opacity: 0.3"/>
     <use xlink:href="#m7ed6b4ce37" x="250.158881" y="299.185714" style="fill-opacity: 0.3"/>
     <use xlink:href="#m7ed6b4ce37" x="266.414831" y="299.185714" style="fill-opacity: 0.3"/>
     <use xlink:href="#m7ed6b4ce37" x="256.929002" y="299.185714" style="fill-opacity: 0.3"/>
     <use xlink:href="#m7ed6b4ce37" x="251.037864" y="299.185714" style="fill-opacity: 0.3"/>
     <use xlink:href="#m7ed6b4ce37" x="250.511093" y="299.185714" style="fill-opacity: 0.3"/>
     <use xlink:href="#m7ed6b4ce37" x="256.775497" y="299.185714" style="fill-opacity: 0.3"/>
     <use xlink:href="#m7ed6b4ce37" x="247.06807" y="299.185714" style="fill-opacity: 0.3"/>
     <use xlink:href="#m7ed6b4ce37" x="260.126546" y="299.185714" style="fill-opacity: 0.3"/>
     <use xlink:href="#m7ed6b4ce37" x="250.037572" y="299.185714" style="fill-opacity: 0.3"/>
     <use xlink:href="#m7ed6b4ce37" x="264.505106" y="299.185714" style="fill-opacity: 0.3"/>
     <use xlink:href="#m7ed6b4ce37" x="247.114151" y="299.185714" style="fill-opacity: 0.3"/>
     <use xlink:href="#m7ed6b4ce37" x="256.931022" y="299.185714" style="fill-opacity: 0.3"/>
     <use xlink:href="#m7ed6b4ce37" x="256.021117" y="299.185714" style="fill-opacity: 0.3"/>
     <use xlink:href="#m7ed6b4ce37" x="256.311837" y="299.185714" style="fill-opacity: 0.3"/>
     <use xlink:href="#m7ed6b4ce37" x="247.530013" y="299.185714" style="fill-opacity: 0.3"/>
     <use xlink:href="#m7ed6b4ce37" x="252.819862" y="299.185714" style="fill-opacity: 0.3"/>
     <use xlink:href="#m7ed6b4ce37" x="254.26148" y="299.185714" style="fill-opacity: 0.3"/>
     <use xlink:href="#m7ed6b4ce37" x="267.739597" y="299.185714" style="fill-opacity: 0.3"/>
     <use xlink:href="#m7ed6b4ce37" x="267.272364" y="299.185714" style="fill-opacity: 0.3"/>
     <use xlink:href="#m7ed6b4ce37" x="258.86256" y="299.185714" style="fill-opacity: 0.3"/>
     <use xlink:href="#m7ed6b4ce37" x="267.670582" y="299.185714" style="fill-opacity: 0.3"/>
     <use xlink:href="#m7ed6b4ce37" x="264.769805" y="299.185714" style="fill-opacity: 0.3"/>
     <use xlink:href="#m7ed6b4ce37" x="249.863569" y="299.185714" style="fill-opacity: 0.3"/>
     <use xlink:href="#m7ed6b4ce37" x="252.036495" y="299.185714" style="fill-opacity: 0.3"/>
     <use xlink:href="#m7ed6b4ce37" x="264.770458" y="299.185714" style="fill-opacity: 0.3"/>
     <use xlink:href="#m7ed6b4ce37" x="256.843497" y="299.185714" style="fill-opacity: 0.3"/>
     <use xlink:href="#m7ed6b4ce37" x="264.538122" y="299.185714" style="fill-opacity: 0.3"/>
     <use xlink:href="#m7ed6b4ce37" x="253.635437" y="299.185714" style="fill-opacity: 0.3"/>
     <use xlink:href="#m7ed6b4ce37" x="254.1463" y="299.185714" style="fill-opacity: 0.3"/>
     <use xlink:href="#m7ed6b4ce37" x="246.766141" y="299.185714" style="fill-opacity: 0.3"/>
     <use xlink:href="#m7ed6b4ce37" x="265.241418" y="299.185714" style="fill-opacity: 0.3"/>
     <use xlink:href="#m7ed6b4ce37" x="253.433524" y="299.185714" style="fill-opacity: 0.3"/>
     <use xlink:href="#m7ed6b4ce37" x="255.51492" y="303.9" style="fill-opacity: 0.3"/>
     <use xlink:href="#m7ed6b4ce37" x="268.079683" y="303.9" style="fill-opacity: 0.3"/>
     <use xlink:href="#m7ed6b4ce37" x="253.262461" y="303.9" style="fill-opacity: 0.3"/>
     <use xlink:href="#m7ed6b4ce37" x="259.405274" y="303.9" style="fill-opacity: 0.3"/>
     <use xlink:href="#m7ed6b4ce37" x="264.669429" y="303.9" style="fill-opacity: 0.3"/>
     <use xlink:href="#m7ed6b4ce37" x="247.725819" y="303.9" style="fill-opacity: 0.3"/>
     <use xlink:href="#m7ed6b4ce37" x="263.341162" y="303.9" style="fill-opacity: 0.3"/>
     <use xlink:href="#m7ed6b4ce37" x="251.079439" y="303.9" style="fill-opacity: 0.3"/>
     <use xlink:href="#m7ed6b4ce37" x="264.754636" y="303.9" style="fill-opacity: 0.3"/>
     <use xlink:href="#m7ed6b4ce37" x="249.971538" y="303.9" style="fill-opacity: 0.3"/>
     <use xlink:href="#m7ed6b4ce37" x="265.499861" y="303.9" style="fill-opacity: 0.3"/>
     <use xlink:href="#m7ed6b4ce37" x="262.33055" y="303.9" style="fill-opacity: 0.3"/>
     <use xlink:href="#m7ed6b4ce37" x="248.907765" y="303.9" style="fill-opacity: 0.3"/>
     <use xlink:href="#m7ed6b4ce37" x="246.416514" y="303.9" style="fill-opacity: 0.3"/>
     <use xlink:href="#m7ed6b4ce37" x="267.890283" y="303.9" style="fill-opacity: 0.3"/>
     <use xlink:href="#m7ed6b4ce37" x="247.511359" y="303.9" style="fill-opacity: 0.3"/>
     <use xlink:href="#m7ed6b4ce37" x="259.661214" y="303.9" style="fill-opacity: 0.3"/>
     <use xlink:href="#m7ed6b4ce37" x="257.753649" y="303.9" style="fill-opacity: 0.3"/>
     <use xlink:href="#m7ed6b4ce37" x="264.871049" y="303.9" style="fill-opacity: 0.3"/>
     <use xlink:href="#m7ed6b4ce37" x="265.410005" y="303.9" style="fill-opacity: 0.3"/>
     <use xlink:href="#m7ed6b4ce37" x="261.537518" y="303.9" style="fill-opacity: 0.3"/>
     <use xlink:href="#m7ed6b4ce37" x="266.290812" y="303.9" style="fill-opacity: 0.3"/>
     <use xlink:href="#m7ed6b4ce37" x="260.851233" y="303.9" style="fill-opacity: 0.3"/>
     <use xlink:href="#m7ed6b4ce37" x="251.601913" y="299.185714" style="fill-opacity: 0.3"/>
     <use xlink:href="#m7ed6b4ce37" x="268.198638" y="299.185714" style="fill-opacity: 0.3"/>
     <use xlink:href="#m7ed6b4ce37" x="254.23297" y="299.185714" style="fill-opacity: 0.3"/>
     <use xlink:href="#m7ed6b4ce37" x="251.652843" y="299.185714" style="fill-opacity: 0.3"/>
    </g>
   </g>
   <g id="PathCollection_3">
    <g clip-path="url(#p9173b0ccf6)">
     <use xlink:href="#m7ed6b4ce37" x="366.11758" y="301.542857" style="fill-opacity: 0.3"/>
     <use xlink:href="#m7ed6b4ce37" x="362.725403" y="301.542857" style="fill-opacity: 0.3"/>
     <use xlink:href="#m7ed6b4ce37" x="370.463061" y="301.542857" style="fill-opacity: 0.3"/>
     <use xlink:href="#m7ed6b4ce37" x="377.628918" y="301.542857" style="fill-opacity: 0.3"/>
     <use xlink:href="#m7ed6b4ce37" x="375.215385" y="310.971429" style="fill-opacity: 0.3"/>
     <use xlink:href="#m7ed6b4ce37" x="363.016189" y="310.971429" style="fill-opacity: 0.3"/>
     <use xlink:href="#m7ed6b4ce37" x="373.96362" y="310.971429" style="fill-opacity: 0.3"/>
     <use xlink:href="#m7ed6b4ce37" x="376.524873" y="301.542857" style="fill-opacity: 0.3"/>
     <use xlink:href="#m7ed6b4ce37" x="378.263179" y="310.971429" style="fill-opacity: 0.3"/>
     <use xlink:href="#m7ed6b4ce37" x="362.561721" y="301.542857" style="fill-opacity: 0.3"/>
     <use xlink:href="#m7ed6b4ce37" x="371.191254" y="310.971429" style="fill-opacity: 0.3"/>
     <use xlink:href="#m7ed6b4ce37" x="366.936627" y="299.185714" style="fill-opacity: 0.3"/>
     <use xlink:href="#m7ed6b4ce37" x="367.842513" y="299.185714" style="fill-opacity: 0.3"/>
     <use xlink:href="#m7ed6b4ce37" x="378.838645" y="299.185714" style="fill-opacity: 0.3"/>
     <use xlink:href="#m7ed6b4ce37" x="367.020059" y="299.185714" style="fill-opacity: 0.3"/>
     <use xlink:href="#m7ed6b4ce37" x="369.362663" y="299.185714" style="fill-opacity: 0.3"/>
     <use xlink:href="#m7ed6b4ce37" x="370.102789" y="299.185714" style="fill-opacity: 0.3"/>
     <use xlink:href="#m7ed6b4ce37" x="365.135614" y="299.185714" style="fill-opacity: 0.3"/>
     <use xlink:href="#m7ed6b4ce37" x="373.669052" y="299.185714" style="fill-opacity: 0.3"/>
     <use xlink:href="#m7ed6b4ce37" x="359.83362" y="299.185714" style="fill-opacity: 0.3"/>
     <use xlink:href="#m7ed6b4ce37" x="364.451281" y="299.185714" style="fill-opacity: 0.3"/>
     <use xlink:href="#m7ed6b4ce37" x="379.7477" y="299.185714" style="fill-opacity: 0.3"/>
     <use xlink:href="#m7ed6b4ce37" x="369.763344" y="299.185714" style="fill-opacity: 0.3"/>
     <use xlink:href="#m7ed6b4ce37" x="371.49478" y="299.185714" style="fill-opacity: 0.3"/>
     <use xlink:href="#m7ed6b4ce37" x="362.955043" y="299.185714" style="fill-opacity: 0.3"/>
     <use xlink:href="#m7ed6b4ce37" x="376.743574" y="299.185714" style="fill-opacity: 0.3"/>
     <use xlink:href="#m7ed6b4ce37" x="370.393183" y="299.185714" style="fill-opacity: 0.3"/>
     <use xlink:href="#m7ed6b4ce37" x="376.253532" y="299.185714" style="fill-opacity: 0.3"/>
     <use xlink:href="#m7ed6b4ce37" x="379.942124" y="299.185714" style="fill-opacity: 0.3"/>
     <use xlink:href="#m7ed6b4ce37" x="367.26403" y="299.185714" style="fill-opacity: 0.3"/>
     <use xlink:href="#m7ed6b4ce37" x="364.682726" y="299.185714" style="fill-opacity: 0.3"/>
     <use xlink:href="#m7ed6b4ce37" x="364.747024" y="299.185714" style="fill-opacity: 0.3"/>
     <use xlink:href="#m7ed6b4ce37" x="363.744261" y="299.185714" style="fill-opacity: 0.3"/>
     <use xlink:href="#m7ed6b4ce37" x="372.823373" y="299.185714" style="fill-opacity: 0.3"/>
     <use xlink:href="#m7ed6b4ce37" x="366.039956" y="303.9" style="fill-opacity: 0.3"/>
     <use xlink:href="#m7ed6b4ce37" x="379.979219" y="303.9" style="fill-opacity: 0.3"/>
     <use xlink:href="#m7ed6b4ce37" x="358.532885" y="303.9" style="fill-opacity: 0.3"/>
     <use xlink:href="#m7ed6b4ce37" x="375.961499" y="303.9" style="fill-opacity: 0.3"/>
     <use xlink:href="#m7ed6b4ce37" x="367.839062" y="303.9" style="fill-opacity: 0.3"/>
     <use xlink:href="#m7ed6b4ce37" x="360.227304" y="303.9" style="fill-opacity: 0.3"/>
     <use xlink:href="#m7ed6b4ce37" x="365.126349" y="299.185714" style="fill-opacity: 0.3"/>
     <use xlink:href="#m7ed6b4ce37" x="377.482417" y="299.185714" style="fill-opacity: 0.3"/>
    </g>
   </g>
   <g id="PathCollection_4">
    <g clip-path="url(#p9173b0ccf6)">
     <use xlink:href="#m7ed6b4ce37" x="471.975058" y="310.971429" style="fill-opacity: 0.3"/>
     <use xlink:href="#m7ed6b4ce37" x="480.199207" y="301.542857" style="fill-opacity: 0.3"/>
     <use xlink:href="#m7ed6b4ce37" x="481.746591" y="299.185714" style="fill-opacity: 0.3"/>
     <use xlink:href="#m7ed6b4ce37" x="471.177673" y="299.185714" style="fill-opacity: 0.3"/>
     <use xlink:href="#m7ed6b4ce37" x="472.944117" y="299.185714" style="fill-opacity: 0.3"/>
     <use xlink:href="#m7ed6b4ce37" x="482.007749" y="299.185714" style="fill-opacity: 0.3"/>
     <use xlink:href="#m7ed6b4ce37" x="480.653421" y="299.185714" style="fill-opacity: 0.3"/>
     <use xlink:href="#m7ed6b4ce37" x="478.568099" y="303.9" style="fill-opacity: 0.3"/>
     <use xlink:href="#m7ed6b4ce37" x="490.698563" y="303.9" style="fill-opacity: 0.3"/>
     <use xlink:href="#m7ed6b4ce37" x="490.760636" y="303.9" style="fill-opacity: 0.3"/>
     <use xlink:href="#m7ed6b4ce37" x="475.544695" y="303.9" style="fill-opacity: 0.3"/>
     <use xlink:href="#m7ed6b4ce37" x="476.700674" y="303.9" style="fill-opacity: 0.3"/>
     <use xlink:href="#m7ed6b4ce37" x="485.83837" y="303.9" style="fill-opacity: 0.3"/>
     <use xlink:href="#m7ed6b4ce37" x="479.928176" y="303.9" style="fill-opacity: 0.3"/>
     <use xlink:href="#m7ed6b4ce37" x="483.728713" y="303.9" style="fill-opacity: 0.3"/>
     <use xlink:href="#m7ed6b4ce37" x="471.731884" y="303.9" style="fill-opacity: 0.3"/>
     <use xlink:href="#m7ed6b4ce37" x="487.292758" y="303.9" style="fill-opacity: 0.3"/>
     <use xlink:href="#m7ed6b4ce37" x="474.549673" y="303.9" style="fill-opacity: 0.3"/>
     <use xlink:href="#m7ed6b4ce37" x="483.471567" y="299.185714" style="fill-opacity: 0.3"/>
     <use xlink:href="#m7ed6b4ce37" x="481.422291" y="299.185714" style="fill-opacity: 0.3"/>
     <use xlink:href="#m7ed6b4ce37" x="486.860014" y="299.185714" style="fill-opacity: 0.3"/>
     <use xlink:href="#m7ed6b4ce37" x="477.470379" y="299.185714" style="fill-opacity: 0.3"/>
     <use xlink:href="#m7ed6b4ce37" x="474.282735" y="299.185714" style="fill-opacity: 0.3"/>
     <use xlink:href="#m7ed6b4ce37" x="475.716052" y="299.185714" style="fill-opacity: 0.3"/>
     <use xlink:href="#m7ed6b4ce37" x="471.067333" y="299.185714" style="fill-opacity: 0.3"/>
     <use xlink:href="#m7ed6b4ce37" x="489.546707" y="299.185714" style="fill-opacity: 0.3"/>
     <use xlink:href="#m7ed6b4ce37" x="476.077224" y="299.185714" style="fill-opacity: 0.3"/>
    </g>
   </g>
   <g id="legend_1">
    <g id="patch_25">
     <path d="M 97 153.946875 
L 154.903125 153.946875 
Q 156.903125 153.946875 156.903125 151.946875 
L 156.903125 50.2 
Q 156.903125 48.2 154.903125 48.2 
L 97 48.2 
Q 95 48.2 95 50.2 
L 95 151.946875 
Q 95 153.946875 97 153.946875 
z
" style="fill: #ffffff; opacity: 0.8; stroke: #cccccc; stroke-linejoin: miter"/>
    </g>
    <g id="text_14">
     <!-- head-plate -->
     <g transform="translate(99 59.798437) scale(0.1 -0.1)">
      <defs>
       <path id="DejaVuSans-64" d="M 2906 2969 
L 2906 4863 
L 3481 4863 
L 3481 0 
L 2906 0 
L 2906 525 
Q 2725 213 2448 61 
Q 2172 -91 1784 -91 
Q 1150 -91 751 415 
Q 353 922 353 1747 
Q 353 2572 751 3078 
Q 1150 3584 1784 3584 
Q 2172 3584 2448 3432 
Q 2725 3281 2906 2969 
z
M 947 1747 
Q 947 1113 1208 752 
Q 1469 391 1925 391 
Q 2381 391 2643 752 
Q 2906 1113 2906 1747 
Q 2906 2381 2643 2742 
Q 2381 3103 1925 3103 
Q 1469 3103 1208 2742 
Q 947 2381 947 1747 
z
" transform="scale(0.015625)"/>
      </defs>
      <use xlink:href="#DejaVuSans-68"/>
      <use xlink:href="#DejaVuSans-65" transform="translate(63.378906 0)"/>
      <use xlink:href="#DejaVuSans-61" transform="translate(124.902344 0)"/>
      <use xlink:href="#DejaVuSans-64" transform="translate(186.181641 0)"/>
      <use xlink:href="#DejaVuSans-2d" transform="translate(249.658203 0)"/>
      <use xlink:href="#DejaVuSans-70" transform="translate(285.742188 0)"/>
      <use xlink:href="#DejaVuSans-6c" transform="translate(349.21875 0)"/>
      <use xlink:href="#DejaVuSans-61" transform="translate(377.001953 0)"/>
      <use xlink:href="#DejaVuSans-74" transform="translate(438.28125 0)"/>
      <use xlink:href="#DejaVuSans-65" transform="translate(477.490234 0)"/>
     </g>
    </g>
    <g id="patch_26">
     <path d="M 107.08125 74.476562 
L 127.08125 74.476562 
L 127.08125 67.476562 
L 107.08125 67.476562 
z
" style="fill: #3274a1"/>
    </g>
    <g id="text_15">
     <!-- f -->
     <g transform="translate(135.08125 74.476562) scale(0.1 -0.1)">
      <use xlink:href="#DejaVuSans-66"/>
     </g>
    </g>
    <g id="patch_27">
     <path d="M 107.08125 89.154688 
L 127.08125 89.154688 
L 127.08125 82.154688 
L 107.08125 82.154688 
z
" style="fill: #e1812c"/>
    </g>
    <g id="text_16">
     <!-- m -->
     <g transform="translate(135.08125 89.154688) scale(0.1 -0.1)">
      <defs>
       <path id="DejaVuSans-6d" d="M 3328 2828 
Q 3544 3216 3844 3400 
Q 4144 3584 4550 3584 
Q 5097 3584 5394 3201 
Q 5691 2819 5691 2113 
L 5691 0 
L 5113 0 
L 5113 2094 
Q 5113 2597 4934 2840 
Q 4756 3084 4391 3084 
Q 3944 3084 3684 2787 
Q 3425 2491 3425 1978 
L 3425 0 
L 2847 0 
L 2847 2094 
Q 2847 2600 2669 2842 
Q 2491 3084 2119 3084 
Q 1678 3084 1418 2786 
Q 1159 2488 1159 1978 
L 1159 0 
L 581 0 
L 581 3500 
L 1159 3500 
L 1159 2956 
Q 1356 3278 1631 3431 
Q 1906 3584 2284 3584 
Q 2666 3584 2933 3390 
Q 3200 3197 3328 2828 
z
" transform="scale(0.015625)"/>
      </defs>
      <use xlink:href="#DejaVuSans-6d"/>
     </g>
    </g>
    <g id="patch_28">
     <path d="M 107.08125 103.832812 
L 127.08125 103.832812 
L 127.08125 96.832812 
L 107.08125 96.832812 
z
" style="fill: #3274a1"/>
    </g>
    <g id="text_17">
     <!-- f -->
     <g transform="translate(135.08125 103.832812) scale(0.1 -0.1)">
      <use xlink:href="#DejaVuSans-66"/>
     </g>
    </g>
    <g id="patch_29">
     <path d="M 107.08125 118.510938 
L 127.08125 118.510938 
L 127.08125 111.510938 
L 107.08125 111.510938 
z
" style="fill: #e1812c"/>
    </g>
    <g id="text_18">
     <!-- m -->
     <g transform="translate(135.08125 118.510938) scale(0.1 -0.1)">
      <use xlink:href="#DejaVuSans-6d"/>
     </g>
    </g>
    <g id="patch_30">
     <path d="M 107.08125 133.189063 
L 127.08125 133.189063 
L 127.08125 126.189063 
L 107.08125 126.189063 
z
" style="fill: #3274a1"/>
    </g>
    <g id="text_19">
     <!-- n -->
     <g transform="translate(135.08125 133.189063) scale(0.1 -0.1)">
      <use xlink:href="#DejaVuSans-6e"/>
     </g>
    </g>
    <g id="patch_31">
     <path d="M 107.08125 147.867188 
L 127.08125 147.867188 
L 127.08125 140.867188 
L 107.08125 140.867188 
z
" style="fill: #e1812c"/>
    </g>
    <g id="text_20">
     <!-- y -->
     <g transform="translate(135.08125 147.867188) scale(0.1 -0.1)">
      <use xlink:href="#DejaVuSans-79"/>
     </g>
    </g>
   </g>
  </g>
 </g>
 <defs>
  <clipPath id="p9173b0ccf6">
   <rect x="90" y="43.2" width="558" height="277.2"/>
  </clipPath>
 </defs>
</svg>
