<?xml version="1.0" encoding="utf-8" standalone="no"?>
<!DOCTYPE svg PUBLIC "-//W3C//DTD SVG 1.1//EN"
  "http://www.w3.org/Graphics/SVG/1.1/DTD/svg11.dtd">
<svg xmlns:xlink="http://www.w3.org/1999/xlink" width="720pt" height="360pt" viewBox="0 0 720 360" xmlns="http://www.w3.org/2000/svg" version="1.1">
 <metadata>
  <rdf:RDF xmlns:dc="http://purl.org/dc/elements/1.1/" xmlns:cc="http://creativecommons.org/ns#" xmlns:rdf="http://www.w3.org/1999/02/22-rdf-syntax-ns#">
   <cc:Work>
    <dc:type rdf:resource="http://purl.org/dc/dcmitype/StillImage"/>
    <dc:date>2025-09-09T15:45:18.332608</dc:date>
    <dc:format>image/svg+xml</dc:format>
    <dc:creator>
     <cc:Agent>
      <dc:title>Matplotlib v3.10.3, https://matplotlib.org/</dc:title>
     </cc:Agent>
    </dc:creator>
   </cc:Work>
  </rdf:RDF>
 </metadata>
 <defs>
  <style type="text/css">*{stroke-linejoin: round; stroke-linecap: butt}</style>
 </defs>
 <g id="figure_1">
  <g id="patch_1">
   <path d="M 0 360 
L 720 360 
L 720 0 
L 0 0 
z
" style="fill: #ffffff"/>
  </g>
  <g id="axes_1">
   <g id="patch_2">
    <path d="M 90 320.4 
L 648 320.4 
L 648 43.2 
L 90 43.2 
z
" style="fill: #ffffff"/>
   </g>
   <g id="FillBetweenPolyCollection_1">
    <defs>
     <path id="mb0775efdd2" d="M 160.509447 -71.164776 
L 158.990553 -71.164776 
L 158.780542 -73.327103 
L 158.530793 -75.489431 
L 158.239422 -77.651759 
L 157.906146 -79.814087 
L 157.53268 -81.976415 
L 157.123062 -84.138742 
L 156.683866 -86.30107 
L 156.224235 -88.463398 
L 155.755732 -90.625726 
L 155.291964 -92.788053 
L 154.847994 -94.950381 
L 154.439574 -97.112709 
L 154.082227 -99.275037 
L 153.790274 -101.437364 
L 153.575867 -103.599692 
L 153.448126 -105.76202 
L 153.412458 -107.924348 
L 153.470113 -110.086675 
L 153.618025 -112.249003 
L 153.848938 -114.411331 
L 154.151795 -116.573659 
L 154.512319 -118.735986 
L 154.913743 -120.898314 
L 155.337551 -123.060642 
L 155.764183 -125.22297 
L 156.173593 -127.385298 
L 156.545612 -129.547625 
L 156.86009 -131.709953 
L 157.09682 -133.872281 
L 157.235279 -136.034609 
L 157.254276 -138.196936 
L 157.131611 -140.359264 
L 156.843849 -142.521592 
L 156.366368 -144.68392 
L 155.673772 -146.846247 
L 154.740787 -149.008575 
L 153.543673 -151.170903 
L 152.06215 -153.333231 
L 150.281765 -155.495558 
L 148.196543 -157.657886 
L 145.811687 -159.820214 
L 143.146046 -161.982542 
L 140.23402 -164.14487 
L 137.126574 -166.307197 
L 133.891057 -168.469525 
L 130.609636 -170.631853 
L 127.376236 -172.794181 
L 124.292067 -174.956508 
L 121.459975 -177.118836 
L 118.97799 -179.281164 
L 116.932635 -181.443492 
L 115.392554 -183.605819 
L 114.403109 -185.768147 
L 113.982467 -187.930475 
L 114.11961 -190.092803 
L 114.774468 -192.25513 
L 115.880202 -194.417458 
L 117.347387 -196.579786 
L 119.069701 -198.742114 
L 120.930556 -200.904442 
L 122.810062 -203.066769 
L 124.591715 -205.229097 
L 126.168316 -207.391425 
L 127.446761 -209.553753 
L 128.351526 -211.71608 
L 128.826844 -213.878408 
L 128.837744 -216.040736 
L 128.370191 -218.203064 
L 127.430616 -220.365391 
L 126.045101 -222.527719 
L 124.258365 -224.690047 
L 122.132619 -226.852375 
L 119.746214 -229.014702 
L 117.191895 -231.17703 
L 114.57446 -233.339358 
L 112.007607 -235.501686 
L 109.609846 -237.664014 
L 107.499494 -239.826341 
L 105.788913 -241.988669 
L 104.578374 -244.150997 
L 103.95 -246.313325 
L 103.962384 -248.475652 
L 104.646444 -250.63798 
L 106.003006 -252.800308 
L 108.00244 -254.962636 
L 110.586475 -257.124963 
L 113.672065 -259.287291 
L 117.156971 -261.449619 
L 120.92653 -263.611947 
L 124.860977 -265.774274 
L 128.842663 -267.936602 
L 132.762543 -270.09893 
L 136.52545 -272.261258 
L 140.05383 -274.423585 
L 143.289794 -276.585913 
L 146.19553 -278.748241 
L 148.752288 -280.910569 
L 150.958218 -283.072897 
L 152.825453 -285.235224 
L 166.674547 -285.235224 
L 166.674547 -285.235224 
L 168.541782 -283.072897 
L 170.747712 -280.910569 
L 173.30447 -278.748241 
L 176.210206 -276.585913 
L 179.44617 -274.423585 
L 182.97455 -272.261258 
L 186.737457 -270.09893 
L 190.657337 -267.936602 
L 194.639023 -265.774274 
L 198.57347 -263.611947 
L 202.343029 -261.449619 
L 205.827935 -259.287291 
L 208.913525 -257.124963 
L 211.49756 -254.962636 
L 213.496994 -252.800308 
L 214.853556 -250.63798 
L 215.537616 -248.475652 
L 215.55 -246.313325 
L 214.921626 -244.150997 
L 213.711087 -241.988669 
L 212.000506 -239.826341 
L 209.890154 -237.664014 
L 207.492393 -235.501686 
L 204.92554 -233.339358 
L 202.308105 -231.17703 
L 199.753786 -229.014702 
L 197.367381 -226.852375 
L 195.241635 -224.690047 
L 193.454899 -222.527719 
L 192.069384 -220.365391 
L 191.129809 -218.203064 
L 190.662256 -216.040736 
L 190.673156 -213.878408 
L 191.148474 -211.71608 
L 192.053239 -209.553753 
L 193.331684 -207.391425 
L 194.908285 -205.229097 
L 196.689938 -203.066769 
L 198.569444 -200.904442 
L 200.430299 -198.742114 
L 202.152613 -196.579786 
L 203.619798 -194.417458 
L 204.725532 -192.25513 
L 205.38039 -190.092803 
L 205.517533 -187.930475 
L 205.096891 -185.768147 
L 204.107446 -183.605819 
L 202.567365 -181.443492 
L 200.52201 -179.281164 
L 198.040025 -177.118836 
L 195.207933 -174.956508 
L 192.123764 -172.794181 
L 188.890364 -170.631853 
L 185.608943 -168.469525 
L 182.373426 -166.307197 
L 179.26598 -164.14487 
L 176.353954 -161.982542 
L 173.688313 -159.820214 
L 171.303457 -157.657886 
L 169.218235 -155.495558 
L 167.43785 -153.333231 
L 165.956327 -151.170903 
L 164.759213 -149.008575 
L 163.826228 -146.846247 
L 163.133632 -144.68392 
L 162.656151 -142.521592 
L 162.368389 -140.359264 
L 162.245724 -138.196936 
L 162.264721 -136.034609 
L 162.40318 -133.872281 
L 162.63991 -131.709953 
L 162.954388 -129.547625 
L 163.326407 -127.385298 
L 163.735817 -125.22297 
L 164.162449 -123.060642 
L 164.586257 -120.898314 
L 164.987681 -118.735986 
L 165.348205 -116.573659 
L 165.651062 -114.411331 
L 165.881975 -112.249003 
L 166.029887 -110.086675 
L 166.087542 -107.924348 
L 166.051874 -105.76202 
L 165.924133 -103.599692 
L 165.709726 -101.437364 
L 165.417773 -99.275037 
L 165.060426 -97.112709 
L 164.652006 -94.950381 
L 164.208036 -92.788053 
L 163.744268 -90.625726 
L 163.275765 -88.463398 
L 162.816134 -86.30107 
L 162.376938 -84.138742 
L 161.96732 -81.976415 
L 161.593854 -79.814087 
L 161.260578 -77.651759 
L 160.969207 -75.489431 
L 160.719458 -73.327103 
L 160.509447 -71.164776 
z
" style="stroke: #3d3d3d; stroke-width: 1.25"/>
    </defs>
    <g clip-path="url(#p73c76e4ef8)">
     <use xlink:href="#mb0775efdd2" x="0" y="360" style="fill: #3274a1; stroke: #3d3d3d; stroke-width: 1.25"/>
    </g>
   </g>
   <g id="FillBetweenPolyCollection_2">
    <defs>
     <path id="mcbf9659e9f" d="M 301.28954 -63.83294 
L 297.21046 -63.83294 
L 296.720573 -66.143385 
L 296.149555 -68.453831 
L 295.493887 -70.764277 
L 294.752552 -73.074722 
L 293.927608 -75.385168 
L 293.024685 -77.695614 
L 292.053355 -80.006059 
L 291.027314 -82.316505 
L 289.964335 -84.626951 
L 288.885958 -86.937396 
L 287.816911 -89.247842 
L 286.784253 -91.558288 
L 285.816278 -93.868733 
L 284.941245 -96.179179 
L 284.185976 -98.489625 
L 283.574449 -100.80007 
L 283.126455 -103.110516 
L 282.856421 -105.420962 
L 282.772491 -107.731407 
L 282.875921 -110.041853 
L 283.160836 -112.352299 
L 283.614355 -114.662744 
L 284.217074 -116.97319 
L 284.943852 -119.283636 
L 285.764847 -121.594081 
L 286.64671 -123.904527 
L 287.553857 -126.214973 
L 288.449742 -128.525418 
L 289.298062 -130.835864 
L 290.063841 -133.14631 
L 290.714378 -135.456755 
L 291.220044 -137.767201 
L 291.554941 -140.077647 
L 291.697471 -142.388092 
L 291.630814 -144.698538 
L 291.343376 -147.008984 
L 290.829211 -149.319429 
L 290.088417 -151.629875 
L 289.127502 -153.940321 
L 287.95966 -156.250766 
L 286.604919 -158.561212 
L 285.090078 -160.871658 
L 283.448381 -163.182103 
L 281.718831 -165.492549 
L 279.945148 -167.802995 
L 278.174311 -170.11344 
L 276.454736 -172.423886 
L 274.834142 -174.734332 
L 273.357202 -177.044777 
L 272.063117 -179.355223 
L 270.983267 -181.665668 
L 270.13911 -183.976114 
L 269.540479 -186.28656 
L 269.184437 -188.597005 
L 269.054788 -190.907451 
L 269.122312 -193.217897 
L 269.345751 -195.528342 
L 269.673515 -197.838788 
L 270.046029 -200.149234 
L 270.398606 -202.459679 
L 270.664715 -204.770125 
L 270.779466 -207.080571 
L 270.683141 -209.391016 
L 270.324602 -211.701462 
L 269.664411 -214.011908 
L 268.677482 -216.322353 
L 267.355153 -218.632799 
L 265.706531 -220.943245 
L 263.759018 -223.25369 
L 261.557958 -225.564136 
L 259.165346 -227.874582 
L 256.657637 -230.185027 
L 254.12269 -232.495473 
L 251.655972 -234.805919 
L 249.356185 -237.116364 
L 247.320543 -239.42681 
L 245.63996 -241.737256 
L 244.394432 -244.047701 
L 243.64892 -246.358147 
L 243.45 -248.668593 
L 243.823517 -250.979038 
L 244.773406 -253.289484 
L 246.281761 -255.59993 
L 248.310138 -257.910375 
L 250.80199 -260.220821 
L 253.686037 -262.531267 
L 256.880316 -264.841712 
L 260.2966 -267.152158 
L 263.844896 -269.462604 
L 267.437684 -271.773049 
L 270.993667 -274.083495 
L 274.440815 -276.393941 
L 277.718571 -278.704386 
L 280.779175 -281.014832 
L 283.588125 -283.325278 
L 286.123844 -285.635723 
L 288.376707 -287.946169 
L 290.347568 -290.256615 
L 292.045972 -292.56706 
L 306.454028 -292.56706 
L 306.454028 -292.56706 
L 308.152432 -290.256615 
L 310.123293 -287.946169 
L 312.376156 -285.635723 
L 314.911875 -283.325278 
L 317.720825 -281.014832 
L 320.781429 -278.704386 
L 324.059185 -276.393941 
L 327.506333 -274.083495 
L 331.062316 -271.773049 
L 334.655104 -269.462604 
L 338.2034 -267.152158 
L 341.619684 -264.841712 
L 344.813963 -262.531267 
L 347.69801 -260.220821 
L 350.189862 -257.910375 
L 352.218239 -255.59993 
L 353.726594 -253.289484 
L 354.676483 -250.979038 
L 355.05 -248.668593 
L 354.85108 -246.358147 
L 354.105568 -244.047701 
L 352.86004 -241.737256 
L 351.179457 -239.42681 
L 349.143815 -237.116364 
L 346.844028 -234.805919 
L 344.37731 -232.495473 
L 341.842363 -230.185027 
L 339.334654 -227.874582 
L 336.942042 -225.564136 
L 334.740982 -223.25369 
L 332.793469 -220.943245 
L 331.144847 -218.632799 
L 329.822518 -216.322353 
L 328.835589 -214.011908 
L 328.175398 -211.701462 
L 327.816859 -209.391016 
L 327.720534 -207.080571 
L 327.835285 -204.770125 
L 328.101394 -202.459679 
L 328.453971 -200.149234 
L 328.826485 -197.838788 
L 329.154249 -195.528342 
L 329.377688 -193.217897 
L 329.445212 -190.907451 
L 329.315563 -188.597005 
L 328.959521 -186.28656 
L 328.36089 -183.976114 
L 327.516733 -181.665668 
L 326.436883 -179.355223 
L 325.142798 -177.044777 
L 323.665858 -174.734332 
L 322.045264 -172.423886 
L 320.325689 -170.11344 
L 318.554852 -167.802995 
L 316.781169 -165.492549 
L 315.051619 -163.182103 
L 313.409922 -160.871658 
L 311.895081 -158.561212 
L 310.54034 -156.250766 
L 309.372498 -153.940321 
L 308.411583 -151.629875 
L 307.670789 -149.319429 
L 307.156624 -147.008984 
L 306.869186 -144.698538 
L 306.802529 -142.388092 
L 306.945059 -140.077647 
L 307.279956 -137.767201 
L 307.785622 -135.456755 
L 308.436159 -133.14631 
L 309.201938 -130.835864 
L 310.050258 -128.525418 
L 310.946143 -126.214973 
L 311.85329 -123.904527 
L 312.735153 -121.594081 
L 313.556148 -119.283636 
L 314.282926 -116.97319 
L 314.885645 -114.662744 
L 315.339164 -112.352299 
L 315.624079 -110.041853 
L 315.727509 -107.731407 
L 315.643579 -105.420962 
L 315.373545 -103.110516 
L 314.925551 -100.80007 
L 314.314024 -98.489625 
L 313.558755 -96.179179 
L 312.683722 -93.868733 
L 311.715747 -91.558288 
L 310.683089 -89.247842 
L 309.614042 -86.937396 
L 308.535665 -84.626951 
L 307.472686 -82.316505 
L 306.446645 -80.006059 
L 305.475315 -77.695614 
L 304.572392 -75.385168 
L 303.747448 -73.074722 
L 303.006113 -70.764277 
L 302.350445 -68.453831 
L 301.779427 -66.143385 
L 301.28954 -63.83294 
z
" style="stroke: #3d3d3d; stroke-width: 1.25"/>
    </defs>
    <g clip-path="url(#p73c76e4ef8)">
     <use xlink:href="#mcbf9659e9f" x="0" y="360" style="fill: #e1812c; stroke: #3d3d3d; stroke-width: 1.25"/>
    </g>
   </g>
   <g id="FillBetweenPolyCollection_3">
    <defs>
     <path id="md90a2824ba" d="M 441.161041 -52.2 
L 436.338959 -52.2 
L 435.835531 -54.745455 
L 435.25775 -57.290909 
L 434.601962 -59.836364 
L 433.866034 -62.381818 
L 433.049717 -64.927273 
L 432.154988 -67.472727 
L 431.186336 -70.018182 
L 430.150979 -72.563636 
L 429.058984 -75.109091 
L 427.923263 -77.654545 
L 426.759439 -80.2 
L 425.58556 -82.745455 
L 424.421665 -85.290909 
L 423.289208 -87.836364 
L 422.210356 -90.381818 
L 421.207183 -92.927273 
L 420.300802 -95.472727 
L 419.510471 -98.018182 
L 418.852722 -100.563636 
L 418.340556 -103.109091 
L 417.982755 -105.654545 
L 417.783356 -108.2 
L 417.741309 -110.745455 
L 417.850354 -113.290909 
L 418.099131 -115.836364 
L 418.471508 -118.381818 
L 418.947135 -120.927273 
L 419.502186 -123.472727 
L 420.110255 -126.018182 
L 420.743368 -128.563636 
L 421.373068 -131.109091 
L 421.971508 -133.654545 
L 422.512512 -136.2 
L 422.972555 -138.745455 
L 423.331617 -141.290909 
L 423.573876 -143.836364 
L 423.688205 -146.381818 
L 423.668463 -148.927273 
L 423.513555 -151.472727 
L 423.22727 -154.018182 
L 422.817897 -156.563636 
L 422.297638 -159.109091 
L 421.681836 -161.654545 
L 420.988056 -164.2 
L 420.235054 -166.745455 
L 419.441684 -169.290909 
L 418.625785 -171.836364 
L 417.803111 -174.381818 
L 416.986353 -176.927273 
L 416.184314 -179.472727 
L 415.401273 -182.018182 
L 414.636612 -184.563636 
L 413.884706 -187.109091 
L 413.135127 -189.654545 
L 412.373155 -192.2 
L 411.580603 -194.745455 
L 410.736907 -197.290909 
L 409.820468 -199.836364 
L 408.810164 -202.381818 
L 407.686957 -204.927273 
L 406.435528 -207.472727 
L 405.045822 -210.018182 
L 403.514424 -212.563636 
L 401.84566 -215.109091 
L 400.052354 -217.654545 
L 398.156161 -220.2 
L 396.187438 -222.745455 
L 394.184625 -225.290909 
L 392.193157 -227.836364 
L 390.263925 -230.381818 
L 388.451371 -232.927273 
L 386.811295 -235.472727 
L 385.398497 -238.018182 
L 384.264371 -240.563636 
L 383.454597 -243.109091 
L 383.007039 -245.654545 
L 382.95 -248.2 
L 383.3009 -250.745455 
L 384.065472 -253.290909 
L 385.237506 -255.836364 
L 386.799149 -258.381818 
L 388.721744 -260.927273 
L 390.967129 -263.472727 
L 393.489336 -266.018182 
L 396.236557 -268.563636 
L 399.153286 -271.109091 
L 402.182496 -273.654545 
L 405.267752 -276.2 
L 408.355132 -278.745455 
L 411.394905 -281.290909 
L 414.342864 -283.836364 
L 417.161316 -286.381818 
L 419.819677 -288.927273 
L 422.294716 -291.472727 
L 424.570453 -294.018182 
L 426.637775 -296.563636 
L 428.493815 -299.109091 
L 430.141164 -301.654545 
L 431.586973 -304.2 
L 445.913027 -304.2 
L 445.913027 -304.2 
L 447.358836 -301.654545 
L 449.006185 -299.109091 
L 450.862225 -296.563636 
L 452.929547 -294.018182 
L 455.205284 -291.472727 
L 457.680323 -288.927273 
L 460.338684 -286.381818 
L 463.157136 -283.836364 
L 466.105095 -281.290909 
L 469.144868 -278.745455 
L 472.232248 -276.2 
L 475.317504 -273.654545 
L 478.346714 -271.109091 
L 481.263443 -268.563636 
L 484.010664 -266.018182 
L 486.532871 -263.472727 
L 488.778256 -260.927273 
L 490.700851 -258.381818 
L 492.262494 -255.836364 
L 493.434528 -253.290909 
L 494.1991 -250.745455 
L 494.55 -248.2 
L 494.492961 -245.654545 
L 494.045403 -243.109091 
L 493.235629 -240.563636 
L 492.101503 -238.018182 
L 490.688705 -235.472727 
L 489.048629 -232.927273 
L 487.236075 -230.381818 
L 485.306843 -227.836364 
L 483.315375 -225.290909 
L 481.312562 -222.745455 
L 479.343839 -220.2 
L 477.447646 -217.654545 
L 475.65434 -215.109091 
L 473.985576 -212.563636 
L 472.454178 -210.018182 
L 471.064472 -207.472727 
L 469.813043 -204.927273 
L 468.689836 -202.381818 
L 467.679532 -199.836364 
L 466.763093 -197.290909 
L 465.919397 -194.745455 
L 465.126845 -192.2 
L 464.364873 -189.654545 
L 463.615294 -187.109091 
L 462.863388 -184.563636 
L 462.098727 -182.018182 
L 461.315686 -179.472727 
L 460.513647 -176.927273 
L 459.696889 -174.381818 
L 458.874215 -171.836364 
L 458.058316 -169.290909 
L 457.264946 -166.745455 
L 456.511944 -164.2 
L 455.818164 -161.654545 
L 455.202362 -159.109091 
L 454.682103 -156.563636 
L 454.27273 -154.018182 
L 453.986445 -151.472727 
L 453.831537 -148.927273 
L 453.811795 -146.381818 
L 453.926124 -143.836364 
L 454.168383 -141.290909 
L 454.527445 -138.745455 
L 454.987488 -136.2 
L 455.528492 -133.654545 
L 456.126932 -131.109091 
L 456.756632 -128.563636 
L 457.389745 -126.018182 
L 457.997814 -123.472727 
L 458.552865 -120.927273 
L 459.028492 -118.381818 
L 459.400869 -115.836364 
L 459.649646 -113.290909 
L 459.758691 -110.745455 
L 459.716644 -108.2 
L 459.517245 -105.654545 
L 459.159444 -103.109091 
L 458.647278 -100.563636 
L 457.989529 -98.018182 
L 457.199198 -95.472727 
L 456.292817 -92.927273 
L 455.289644 -90.381818 
L 454.210792 -87.836364 
L 453.078335 -85.290909 
L 451.91444 -82.745455 
L 450.740561 -80.2 
L 449.576737 -77.654545 
L 448.441016 -75.109091 
L 447.349021 -72.563636 
L 446.313664 -70.018182 
L 445.345012 -67.472727 
L 444.450283 -64.927273 
L 443.633966 -62.381818 
L 442.898038 -59.836364 
L 442.24225 -57.290909 
L 441.664469 -54.745455 
L 441.161041 -52.2 
z
" style="stroke: #3d3d3d; stroke-width: 1.25"/>
    </defs>
    <g clip-path="url(#p73c76e4ef8)">
     <use xlink:href="#md90a2824ba" x="0" y="360" style="fill: #3a923a; stroke: #3d3d3d; stroke-width: 1.25"/>
    </g>
   </g>
   <g id="FillBetweenPolyCollection_4">
    <defs>
     <path id="mec164786b9" d="M 578.815192 -77.232253 
L 577.684808 -77.232253 
L 577.528041 -79.30919 
L 577.342408 -81.386128 
L 577.127126 -83.463065 
L 576.882796 -85.540002 
L 576.611685 -87.616939 
L 576.317928 -89.693876 
L 576.007609 -91.770813 
L 575.688692 -93.84775 
L 575.37078 -95.924687 
L 575.064693 -98.001624 
L 574.781896 -100.078561 
L 574.533799 -102.155498 
L 574.330997 -104.232435 
L 574.182505 -106.309373 
L 574.095078 -108.38631 
L 574.072664 -110.463247 
L 574.11605 -112.540184 
L 574.222744 -114.617121 
L 574.387068 -116.694058 
L 574.600472 -118.770995 
L 574.851988 -120.847932 
L 575.128768 -122.924869 
L 575.416632 -125.001806 
L 575.700526 -127.078743 
L 575.964839 -129.15568 
L 576.193525 -131.232617 
L 576.369999 -133.309555 
L 576.476833 -135.386492 
L 576.495295 -137.463429 
L 576.404797 -139.540366 
L 576.182382 -141.617303 
L 575.802358 -143.69424 
L 575.236233 -145.771177 
L 574.453081 -147.848114 
L 573.420459 -149.925051 
L 572.105948 -152.001988 
L 570.479354 -154.078925 
L 568.515499 -156.155862 
L 566.197467 -158.2328 
L 563.520065 -160.309737 
L 560.493182 -162.386674 
L 557.144634 -164.463611 
L 553.522087 -166.540548 
L 549.693637 -168.617485 
L 545.746718 -170.694422 
L 541.785134 -172.771359 
L 537.924202 -174.848296 
L 534.284209 -176.925233 
L 530.982617 -179.00217 
L 528.125657 -181.079107 
L 525.800098 -183.156045 
L 524.066046 -185.232982 
L 522.951597 -187.309919 
L 522.45 -189.386856 
L 522.519787 -191.463793 
L 523.087969 -193.54073 
L 524.056094 -195.617667 
L 525.308594 -197.694604 
L 526.722615 -199.771541 
L 528.178303 -201.848478 
L 529.568498 -203.925415 
L 530.806843 -206.002352 
L 531.833503 -208.07929 
L 532.618004 -210.156227 
L 533.159044 -212.233164 
L 533.481455 -214.310101 
L 533.630888 -216.387038 
L 533.666963 -218.463975 
L 533.655805 -220.540912 
L 533.662883 -222.617849 
L 533.746952 -224.694786 
L 533.955683 -226.771723 
L 534.32328 -228.84866 
L 534.870097 -230.925597 
L 535.603975 -233.002534 
L 536.522798 -235.079472 
L 537.617682 -237.156409 
L 538.876161 -239.233346 
L 540.284845 -241.310283 
L 541.831183 -243.38722 
L 543.504163 -245.464157 
L 545.294021 -247.541094 
L 547.191165 -249.618031 
L 549.184689 -251.694968 
L 551.260861 -253.771905 
L 553.401946 -255.848842 
L 555.585651 -257.925779 
L 557.785311 -260.002717 
L 559.970825 -262.079654 
L 562.110203 -264.156591 
L 564.1715 -266.233528 
L 566.124859 -268.310465 
L 567.944399 -270.387402 
L 569.609723 -272.464339 
L 571.106887 -274.541276 
L 572.42878 -276.618213 
L 573.574918 -278.69515 
L 574.550748 -280.772087 
L 575.366603 -282.849024 
L 581.133397 -282.849024 
L 581.133397 -282.849024 
L 581.949252 -280.772087 
L 582.925082 -278.69515 
L 584.07122 -276.618213 
L 585.393113 -274.541276 
L 586.890277 -272.464339 
L 588.555601 -270.387402 
L 590.375141 -268.310465 
L 592.3285 -266.233528 
L 594.389797 -264.156591 
L 596.529175 -262.079654 
L 598.714689 -260.002717 
L 600.914349 -257.925779 
L 603.098054 -255.848842 
L 605.239139 -253.771905 
L 607.315311 -251.694968 
L 609.308835 -249.618031 
L 611.205979 -247.541094 
L 612.995837 -245.464157 
L 614.668817 -243.38722 
L 616.215155 -241.310283 
L 617.623839 -239.233346 
L 618.882318 -237.156409 
L 619.977202 -235.079472 
L 620.896025 -233.002534 
L 621.629903 -230.925597 
L 622.17672 -228.84866 
L 622.544317 -226.771723 
L 622.753048 -224.694786 
L 622.837117 -222.617849 
L 622.844195 -220.540912 
L 622.833037 -218.463975 
L 622.869112 -216.387038 
L 623.018545 -214.310101 
L 623.340956 -212.233164 
L 623.881996 -210.156227 
L 624.666497 -208.07929 
L 625.693157 -206.002352 
L 626.931502 -203.925415 
L 628.321697 -201.848478 
L 629.777385 -199.771541 
L 631.191406 -197.694604 
L 632.443906 -195.617667 
L 633.412031 -193.54073 
L 633.980213 -191.463793 
L 634.05 -189.386856 
L 633.548403 -187.309919 
L 632.433954 -185.232982 
L 630.699902 -183.156045 
L 628.374343 -181.079107 
L 625.517383 -179.00217 
L 622.215791 -176.925233 
L 618.575798 -174.848296 
L 614.714866 -172.771359 
L 610.753282 -170.694422 
L 606.806363 -168.617485 
L 602.977913 -166.540548 
L 599.355366 -164.463611 
L 596.006818 -162.386674 
L 592.979935 -160.309737 
L 590.302533 -158.2328 
L 587.984501 -156.155862 
L 586.020646 -154.078925 
L 584.394052 -152.001988 
L 583.079541 -149.925051 
L 582.046919 -147.848114 
L 581.263767 -145.771177 
L 580.697642 -143.69424 
L 580.317618 -141.617303 
L 580.095203 -139.540366 
L 580.004705 -137.463429 
L 580.023167 -135.386492 
L 580.130001 -133.309555 
L 580.306475 -131.232617 
L 580.535161 -129.15568 
L 580.799474 -127.078743 
L 581.083368 -125.001806 
L 581.371232 -122.924869 
L 581.648012 -120.847932 
L 581.899528 -118.770995 
L 582.112932 -116.694058 
L 582.277256 -114.617121 
L 582.38395 -112.540184 
L 582.427336 -110.463247 
L 582.404922 -108.38631 
L 582.317495 -106.309373 
L 582.169003 -104.232435 
L 581.966201 -102.155498 
L 581.718104 -100.078561 
L 581.435307 -98.001624 
L 581.12922 -95.924687 
L 580.811308 -93.84775 
L 580.492391 -91.770813 
L 580.182072 -89.693876 
L 579.888315 -87.616939 
L 579.617204 -85.540002 
L 579.372874 -83.463065 
L 579.157592 -81.386128 
L 578.971959 -79.30919 
L 578.815192 -77.232253 
z
" style="stroke: #3d3d3d; stroke-width: 1.25"/>
    </defs>
    <g clip-path="url(#p73c76e4ef8)">
     <use xlink:href="#mec164786b9" x="0" y="360" style="fill: #c03d3e; stroke: #3d3d3d; stroke-width: 1.25"/>
    </g>
   </g>
   <g id="matplotlib.axis_1">
    <g id="xtick_1">
     <g id="line2d_1">
      <defs>
       <path id="m97026a2534" d="M 0 0 
L 0 3.5 
" style="stroke: #000000; stroke-width: 0.8"/>
      </defs>
      <g>
       <use xlink:href="#m97026a2534" x="159.75" y="320.4" style="stroke: #000000; stroke-width: 0.8"/>
      </g>
     </g>
     <g id="text_1">
      <!-- Spurious -->
      <g transform="translate(137.955469 334.998438) scale(0.1 -0.1)">
       <defs>
        <path id="DejaVuSans-53" d="M 3425 4513 
L 3425 3897 
Q 3066 4069 2747 4153 
Q 2428 4238 2131 4238 
Q 1616 4238 1336 4038 
Q 1056 3838 1056 3469 
Q 1056 3159 1242 3001 
Q 1428 2844 1947 2747 
L 2328 2669 
Q 3034 2534 3370 2195 
Q 3706 1856 3706 1288 
Q 3706 609 3251 259 
Q 2797 -91 1919 -91 
Q 1588 -91 1214 -16 
Q 841 59 441 206 
L 441 856 
Q 825 641 1194 531 
Q 1563 422 1919 422 
Q 2459 422 2753 634 
Q 3047 847 3047 1241 
Q 3047 1584 2836 1778 
Q 2625 1972 2144 2069 
L 1759 2144 
Q 1053 2284 737 2584 
Q 422 2884 422 3419 
Q 422 4038 858 4394 
Q 1294 4750 2059 4750 
Q 2388 4750 2728 4690 
Q 3069 4631 3425 4513 
z
" transform="scale(0.015625)"/>
        <path id="DejaVuSans-70" d="M 1159 525 
L 1159 -1331 
L 581 -1331 
L 581 3500 
L 1159 3500 
L 1159 2969 
Q 1341 3281 1617 3432 
Q 1894 3584 2278 3584 
Q 2916 3584 3314 3078 
Q 3713 2572 3713 1747 
Q 3713 922 3314 415 
Q 2916 -91 2278 -91 
Q 1894 -91 1617 61 
Q 1341 213 1159 525 
z
M 3116 1747 
Q 3116 2381 2855 2742 
Q 2594 3103 2138 3103 
Q 1681 3103 1420 2742 
Q 1159 2381 1159 1747 
Q 1159 1113 1420 752 
Q 1681 391 2138 391 
Q 2594 391 2855 752 
Q 3116 1113 3116 1747 
z
" transform="scale(0.015625)"/>
        <path id="DejaVuSans-75" d="M 544 1381 
L 544 3500 
L 1119 3500 
L 1119 1403 
Q 1119 906 1312 657 
Q 1506 409 1894 409 
Q 2359 409 2629 706 
Q 2900 1003 2900 1516 
L 2900 3500 
L 3475 3500 
L 3475 0 
L 2900 0 
L 2900 538 
Q 2691 219 2414 64 
Q 2138 -91 1772 -91 
Q 1169 -91 856 284 
Q 544 659 544 1381 
z
M 1991 3584 
L 1991 3584 
z
" transform="scale(0.015625)"/>
        <path id="DejaVuSans-72" d="M 2631 2963 
Q 2534 3019 2420 3045 
Q 2306 3072 2169 3072 
Q 1681 3072 1420 2755 
Q 1159 2438 1159 1844 
L 1159 0 
L 581 0 
L 581 3500 
L 1159 3500 
L 1159 2956 
Q 1341 3275 1631 3429 
Q 1922 3584 2338 3584 
Q 2397 3584 2469 3576 
Q 2541 3569 2628 3553 
L 2631 2963 
z
" transform="scale(0.015625)"/>
        <path id="DejaVuSans-69" d="M 603 3500 
L 1178 3500 
L 1178 0 
L 603 0 
L 603 3500 
z
M 603 4863 
L 1178 4863 
L 1178 4134 
L 603 4134 
L 603 4863 
z
" transform="scale(0.015625)"/>
        <path id="DejaVuSans-6f" d="M 1959 3097 
Q 1497 3097 1228 2736 
Q 959 2375 959 1747 
Q 959 1119 1226 758 
Q 1494 397 1959 397 
Q 2419 397 2687 759 
Q 2956 1122 2956 1747 
Q 2956 2369 2687 2733 
Q 2419 3097 1959 3097 
z
M 1959 3584 
Q 2709 3584 3137 3096 
Q 3566 2609 3566 1747 
Q 3566 888 3137 398 
Q 2709 -91 1959 -91 
Q 1206 -91 779 398 
Q 353 888 353 1747 
Q 353 2609 779 3096 
Q 1206 3584 1959 3584 
z
" transform="scale(0.015625)"/>
        <path id="DejaVuSans-73" d="M 2834 3397 
L 2834 2853 
Q 2591 2978 2328 3040 
Q 2066 3103 1784 3103 
Q 1356 3103 1142 2972 
Q 928 2841 928 2578 
Q 928 2378 1081 2264 
Q 1234 2150 1697 2047 
L 1894 2003 
Q 2506 1872 2764 1633 
Q 3022 1394 3022 966 
Q 3022 478 2636 193 
Q 2250 -91 1575 -91 
Q 1294 -91 989 -36 
Q 684 19 347 128 
L 347 722 
Q 666 556 975 473 
Q 1284 391 1588 391 
Q 1994 391 2212 530 
Q 2431 669 2431 922 
Q 2431 1156 2273 1281 
Q 2116 1406 1581 1522 
L 1381 1569 
Q 847 1681 609 1914 
Q 372 2147 372 2553 
Q 372 3047 722 3315 
Q 1072 3584 1716 3584 
Q 2034 3584 2315 3537 
Q 2597 3491 2834 3397 
z
" transform="scale(0.015625)"/>
       </defs>
       <use xlink:href="#DejaVuSans-53"/>
       <use xlink:href="#DejaVuSans-70" transform="translate(63.476562 0)"/>
       <use xlink:href="#DejaVuSans-75" transform="translate(126.953125 0)"/>
       <use xlink:href="#DejaVuSans-72" transform="translate(190.332031 0)"/>
       <use xlink:href="#DejaVuSans-69" transform="translate(231.445312 0)"/>
       <use xlink:href="#DejaVuSans-6f" transform="translate(259.228516 0)"/>
       <use xlink:href="#DejaVuSans-75" transform="translate(320.410156 0)"/>
       <use xlink:href="#DejaVuSans-73" transform="translate(383.789062 0)"/>
      </g>
     </g>
    </g>
    <g id="xtick_2">
     <g id="line2d_2">
      <g>
       <use xlink:href="#m97026a2534" x="299.25" y="320.4" style="stroke: #000000; stroke-width: 0.8"/>
      </g>
     </g>
     <g id="text_2">
      <!-- Specific -->
      <g transform="translate(279.788281 334.998438) scale(0.1 -0.1)">
       <defs>
        <path id="DejaVuSans-65" d="M 3597 1894 
L 3597 1613 
L 953 1613 
Q 991 1019 1311 708 
Q 1631 397 2203 397 
Q 2534 397 2845 478 
Q 3156 559 3463 722 
L 3463 178 
Q 3153 47 2828 -22 
Q 2503 -91 2169 -91 
Q 1331 -91 842 396 
Q 353 884 353 1716 
Q 353 2575 817 3079 
Q 1281 3584 2069 3584 
Q 2775 3584 3186 3129 
Q 3597 2675 3597 1894 
z
M 3022 2063 
Q 3016 2534 2758 2815 
Q 2500 3097 2075 3097 
Q 1594 3097 1305 2825 
Q 1016 2553 972 2059 
L 3022 2063 
z
" transform="scale(0.015625)"/>
        <path id="DejaVuSans-63" d="M 3122 3366 
L 3122 2828 
Q 2878 2963 2633 3030 
Q 2388 3097 2138 3097 
Q 1578 3097 1268 2742 
Q 959 2388 959 1747 
Q 959 1106 1268 751 
Q 1578 397 2138 397 
Q 2388 397 2633 464 
Q 2878 531 3122 666 
L 3122 134 
Q 2881 22 2623 -34 
Q 2366 -91 2075 -91 
Q 1284 -91 818 406 
Q 353 903 353 1747 
Q 353 2603 823 3093 
Q 1294 3584 2113 3584 
Q 2378 3584 2631 3529 
Q 2884 3475 3122 3366 
z
" transform="scale(0.015625)"/>
        <path id="DejaVuSans-66" d="M 2375 4863 
L 2375 4384 
L 1825 4384 
Q 1516 4384 1395 4259 
Q 1275 4134 1275 3809 
L 1275 3500 
L 2222 3500 
L 2222 3053 
L 1275 3053 
L 1275 0 
L 697 0 
L 697 3053 
L 147 3053 
L 147 3500 
L 697 3500 
L 697 3744 
Q 697 4328 969 4595 
Q 1241 4863 1831 4863 
L 2375 4863 
z
" transform="scale(0.015625)"/>
       </defs>
       <use xlink:href="#DejaVuSans-53"/>
       <use xlink:href="#DejaVuSans-70" transform="translate(63.476562 0)"/>
       <use xlink:href="#DejaVuSans-65" transform="translate(126.953125 0)"/>
       <use xlink:href="#DejaVuSans-63" transform="translate(188.476562 0)"/>
       <use xlink:href="#DejaVuSans-69" transform="translate(243.457031 0)"/>
       <use xlink:href="#DejaVuSans-66" transform="translate(271.240234 0)"/>
       <use xlink:href="#DejaVuSans-69" transform="translate(306.445312 0)"/>
       <use xlink:href="#DejaVuSans-63" transform="translate(334.228516 0)"/>
      </g>
     </g>
    </g>
    <g id="xtick_3">
     <g id="line2d_3">
      <g>
       <use xlink:href="#m97026a2534" x="438.75" y="320.4" style="stroke: #000000; stroke-width: 0.8"/>
      </g>
     </g>
     <g id="text_3">
      <!-- Non-specific -->
      <g transform="translate(408.085156 334.998438) scale(0.1 -0.1)">
       <defs>
        <path id="DejaVuSans-4e" d="M 628 4666 
L 1478 4666 
L 3547 763 
L 3547 4666 
L 4159 4666 
L 4159 0 
L 3309 0 
L 1241 3903 
L 1241 0 
L 628 0 
L 628 4666 
z
" transform="scale(0.015625)"/>
        <path id="DejaVuSans-6e" d="M 3513 2113 
L 3513 0 
L 2938 0 
L 2938 2094 
Q 2938 2591 2744 2837 
Q 2550 3084 2163 3084 
Q 1697 3084 1428 2787 
Q 1159 2491 1159 1978 
L 1159 0 
L 581 0 
L 581 3500 
L 1159 3500 
L 1159 2956 
Q 1366 3272 1645 3428 
Q 1925 3584 2291 3584 
Q 2894 3584 3203 3211 
Q 3513 2838 3513 2113 
z
" transform="scale(0.015625)"/>
        <path id="DejaVuSans-2d" d="M 313 2009 
L 1997 2009 
L 1997 1497 
L 313 1497 
L 313 2009 
z
" transform="scale(0.015625)"/>
       </defs>
       <use xlink:href="#DejaVuSans-4e"/>
       <use xlink:href="#DejaVuSans-6f" transform="translate(74.804688 0)"/>
       <use xlink:href="#DejaVuSans-6e" transform="translate(135.986328 0)"/>
       <use xlink:href="#DejaVuSans-2d" transform="translate(199.365234 0)"/>
       <use xlink:href="#DejaVuSans-73" transform="translate(235.449219 0)"/>
       <use xlink:href="#DejaVuSans-70" transform="translate(287.548828 0)"/>
       <use xlink:href="#DejaVuSans-65" transform="translate(351.025391 0)"/>
       <use xlink:href="#DejaVuSans-63" transform="translate(412.548828 0)"/>
       <use xlink:href="#DejaVuSans-69" transform="translate(467.529297 0)"/>
       <use xlink:href="#DejaVuSans-66" transform="translate(495.3125 0)"/>
       <use xlink:href="#DejaVuSans-69" transform="translate(530.517578 0)"/>
       <use xlink:href="#DejaVuSans-63" transform="translate(558.300781 0)"/>
      </g>
     </g>
    </g>
    <g id="xtick_4">
     <g id="line2d_4">
      <g>
       <use xlink:href="#m97026a2534" x="578.25" y="320.4" style="stroke: #000000; stroke-width: 0.8"/>
      </g>
     </g>
     <g id="text_4">
      <!-- No -->
      <g transform="translate(571.45 334.998438) scale(0.1 -0.1)">
       <use xlink:href="#DejaVuSans-4e"/>
       <use xlink:href="#DejaVuSans-6f" transform="translate(74.804688 0)"/>
      </g>
     </g>
    </g>
    <g id="text_5">
     <!-- Connectivity category -->
     <g transform="translate(313.98125 348.676562) scale(0.1 -0.1)">
      <defs>
       <path id="DejaVuSans-43" d="M 4122 4306 
L 4122 3641 
Q 3803 3938 3442 4084 
Q 3081 4231 2675 4231 
Q 1875 4231 1450 3742 
Q 1025 3253 1025 2328 
Q 1025 1406 1450 917 
Q 1875 428 2675 428 
Q 3081 428 3442 575 
Q 3803 722 4122 1019 
L 4122 359 
Q 3791 134 3420 21 
Q 3050 -91 2638 -91 
Q 1578 -91 968 557 
Q 359 1206 359 2328 
Q 359 3453 968 4101 
Q 1578 4750 2638 4750 
Q 3056 4750 3426 4639 
Q 3797 4528 4122 4306 
z
" transform="scale(0.015625)"/>
       <path id="DejaVuSans-74" d="M 1172 4494 
L 1172 3500 
L 2356 3500 
L 2356 3053 
L 1172 3053 
L 1172 1153 
Q 1172 725 1289 603 
Q 1406 481 1766 481 
L 2356 481 
L 2356 0 
L 1766 0 
Q 1100 0 847 248 
Q 594 497 594 1153 
L 594 3053 
L 172 3053 
L 172 3500 
L 594 3500 
L 594 4494 
L 1172 4494 
z
" transform="scale(0.015625)"/>
       <path id="DejaVuSans-76" d="M 191 3500 
L 800 3500 
L 1894 563 
L 2988 3500 
L 3597 3500 
L 2284 0 
L 1503 0 
L 191 3500 
z
" transform="scale(0.015625)"/>
       <path id="DejaVuSans-79" d="M 2059 -325 
Q 1816 -950 1584 -1140 
Q 1353 -1331 966 -1331 
L 506 -1331 
L 506 -850 
L 844 -850 
Q 1081 -850 1212 -737 
Q 1344 -625 1503 -206 
L 1606 56 
L 191 3500 
L 800 3500 
L 1894 763 
L 2988 3500 
L 3597 3500 
L 2059 -325 
z
" transform="scale(0.015625)"/>
       <path id="DejaVuSans-20" transform="scale(0.015625)"/>
       <path id="DejaVuSans-61" d="M 2194 1759 
Q 1497 1759 1228 1600 
Q 959 1441 959 1056 
Q 959 750 1161 570 
Q 1363 391 1709 391 
Q 2188 391 2477 730 
Q 2766 1069 2766 1631 
L 2766 1759 
L 2194 1759 
z
M 3341 1997 
L 3341 0 
L 2766 0 
L 2766 531 
Q 2569 213 2275 61 
Q 1981 -91 1556 -91 
Q 1019 -91 701 211 
Q 384 513 384 1019 
Q 384 1609 779 1909 
Q 1175 2209 1959 2209 
L 2766 2209 
L 2766 2266 
Q 2766 2663 2505 2880 
Q 2244 3097 1772 3097 
Q 1472 3097 1187 3025 
Q 903 2953 641 2809 
L 641 3341 
Q 956 3463 1253 3523 
Q 1550 3584 1831 3584 
Q 2591 3584 2966 3190 
Q 3341 2797 3341 1997 
z
" transform="scale(0.015625)"/>
       <path id="DejaVuSans-67" d="M 2906 1791 
Q 2906 2416 2648 2759 
Q 2391 3103 1925 3103 
Q 1463 3103 1205 2759 
Q 947 2416 947 1791 
Q 947 1169 1205 825 
Q 1463 481 1925 481 
Q 2391 481 2648 825 
Q 2906 1169 2906 1791 
z
M 3481 434 
Q 3481 -459 3084 -895 
Q 2688 -1331 1869 -1331 
Q 1566 -1331 1297 -1286 
Q 1028 -1241 775 -1147 
L 775 -588 
Q 1028 -725 1275 -790 
Q 1522 -856 1778 -856 
Q 2344 -856 2625 -561 
Q 2906 -266 2906 331 
L 2906 616 
Q 2728 306 2450 153 
Q 2172 0 1784 0 
Q 1141 0 747 490 
Q 353 981 353 1791 
Q 353 2603 747 3093 
Q 1141 3584 1784 3584 
Q 2172 3584 2450 3431 
Q 2728 3278 2906 2969 
L 2906 3500 
L 3481 3500 
L 3481 434 
z
" transform="scale(0.015625)"/>
      </defs>
      <use xlink:href="#DejaVuSans-43"/>
      <use xlink:href="#DejaVuSans-6f" transform="translate(69.824219 0)"/>
      <use xlink:href="#DejaVuSans-6e" transform="translate(131.005859 0)"/>
      <use xlink:href="#DejaVuSans-6e" transform="translate(194.384766 0)"/>
      <use xlink:href="#DejaVuSans-65" transform="translate(257.763672 0)"/>
      <use xlink:href="#DejaVuSans-63" transform="translate(319.287109 0)"/>
      <use xlink:href="#DejaVuSans-74" transform="translate(374.267578 0)"/>
      <use xlink:href="#DejaVuSans-69" transform="translate(413.476562 0)"/>
      <use xlink:href="#DejaVuSans-76" transform="translate(441.259766 0)"/>
      <use xlink:href="#DejaVuSans-69" transform="translate(500.439453 0)"/>
      <use xlink:href="#DejaVuSans-74" transform="translate(528.222656 0)"/>
      <use xlink:href="#DejaVuSans-79" transform="translate(567.431641 0)"/>
      <use xlink:href="#DejaVuSans-20" transform="translate(626.611328 0)"/>
      <use xlink:href="#DejaVuSans-63" transform="translate(658.398438 0)"/>
      <use xlink:href="#DejaVuSans-61" transform="translate(713.378906 0)"/>
      <use xlink:href="#DejaVuSans-74" transform="translate(774.658203 0)"/>
      <use xlink:href="#DejaVuSans-65" transform="translate(813.867188 0)"/>
      <use xlink:href="#DejaVuSans-67" transform="translate(875.390625 0)"/>
      <use xlink:href="#DejaVuSans-6f" transform="translate(938.867188 0)"/>
      <use xlink:href="#DejaVuSans-72" transform="translate(1000.048828 0)"/>
      <use xlink:href="#DejaVuSans-79" transform="translate(1041.162109 0)"/>
     </g>
    </g>
   </g>
   <g id="matplotlib.axis_2">
    <g id="ytick_1">
     <g id="line2d_5">
      <defs>
       <path id="mae658c843c" d="M 0 0 
L -3.5 0 
" style="stroke: #000000; stroke-width: 0.8"/>
      </defs>
      <g>
       <use xlink:href="#mae658c843c" x="90" y="294.078973" style="stroke: #000000; stroke-width: 0.8"/>
      </g>
     </g>
     <g id="text_6">
      <!-- 0 -->
      <g transform="translate(76.6375 297.878192) scale(0.1 -0.1)">
       <defs>
        <path id="DejaVuSans-30" d="M 2034 4250 
Q 1547 4250 1301 3770 
Q 1056 3291 1056 2328 
Q 1056 1369 1301 889 
Q 1547 409 2034 409 
Q 2525 409 2770 889 
Q 3016 1369 3016 2328 
Q 3016 3291 2770 3770 
Q 2525 4250 2034 4250 
z
M 2034 4750 
Q 2819 4750 3233 4129 
Q 3647 3509 3647 2328 
Q 3647 1150 3233 529 
Q 2819 -91 2034 -91 
Q 1250 -91 836 529 
Q 422 1150 422 2328 
Q 422 3509 836 4129 
Q 1250 4750 2034 4750 
z
" transform="scale(0.015625)"/>
       </defs>
       <use xlink:href="#DejaVuSans-30"/>
      </g>
     </g>
    </g>
    <g id="ytick_2">
     <g id="line2d_6">
      <g>
       <use xlink:href="#mae658c843c" x="90" y="257.266195" style="stroke: #000000; stroke-width: 0.8"/>
      </g>
     </g>
     <g id="text_7">
      <!-- 100 -->
      <g transform="translate(63.9125 261.065414) scale(0.1 -0.1)">
       <defs>
        <path id="DejaVuSans-31" d="M 794 531 
L 1825 531 
L 1825 4091 
L 703 3866 
L 703 4441 
L 1819 4666 
L 2450 4666 
L 2450 531 
L 3481 531 
L 3481 0 
L 794 0 
L 794 531 
z
" transform="scale(0.015625)"/>
       </defs>
       <use xlink:href="#DejaVuSans-31"/>
       <use xlink:href="#DejaVuSans-30" transform="translate(63.623047 0)"/>
       <use xlink:href="#DejaVuSans-30" transform="translate(127.246094 0)"/>
      </g>
     </g>
    </g>
    <g id="ytick_3">
     <g id="line2d_7">
      <g>
       <use xlink:href="#mae658c843c" x="90" y="220.453417" style="stroke: #000000; stroke-width: 0.8"/>
      </g>
     </g>
     <g id="text_8">
      <!-- 200 -->
      <g transform="translate(63.9125 224.252636) scale(0.1 -0.1)">
       <defs>
        <path id="DejaVuSans-32" d="M 1228 531 
L 3431 531 
L 3431 0 
L 469 0 
L 469 531 
Q 828 903 1448 1529 
Q 2069 2156 2228 2338 
Q 2531 2678 2651 2914 
Q 2772 3150 2772 3378 
Q 2772 3750 2511 3984 
Q 2250 4219 1831 4219 
Q 1534 4219 1204 4116 
Q 875 4013 500 3803 
L 500 4441 
Q 881 4594 1212 4672 
Q 1544 4750 1819 4750 
Q 2544 4750 2975 4387 
Q 3406 4025 3406 3419 
Q 3406 3131 3298 2873 
Q 3191 2616 2906 2266 
Q 2828 2175 2409 1742 
Q 1991 1309 1228 531 
z
" transform="scale(0.015625)"/>
       </defs>
       <use xlink:href="#DejaVuSans-32"/>
       <use xlink:href="#DejaVuSans-30" transform="translate(63.623047 0)"/>
       <use xlink:href="#DejaVuSans-30" transform="translate(127.246094 0)"/>
      </g>
     </g>
    </g>
    <g id="ytick_4">
     <g id="line2d_8">
      <g>
       <use xlink:href="#mae658c843c" x="90" y="183.640639" style="stroke: #000000; stroke-width: 0.8"/>
      </g>
     </g>
     <g id="text_9">
      <!-- 300 -->
      <g transform="translate(63.9125 187.439858) scale(0.1 -0.1)">
       <defs>
        <path id="DejaVuSans-33" d="M 2597 2516 
Q 3050 2419 3304 2112 
Q 3559 1806 3559 1356 
Q 3559 666 3084 287 
Q 2609 -91 1734 -91 
Q 1441 -91 1130 -33 
Q 819 25 488 141 
L 488 750 
Q 750 597 1062 519 
Q 1375 441 1716 441 
Q 2309 441 2620 675 
Q 2931 909 2931 1356 
Q 2931 1769 2642 2001 
Q 2353 2234 1838 2234 
L 1294 2234 
L 1294 2753 
L 1863 2753 
Q 2328 2753 2575 2939 
Q 2822 3125 2822 3475 
Q 2822 3834 2567 4026 
Q 2313 4219 1838 4219 
Q 1578 4219 1281 4162 
Q 984 4106 628 3988 
L 628 4550 
Q 988 4650 1302 4700 
Q 1616 4750 1894 4750 
Q 2613 4750 3031 4423 
Q 3450 4097 3450 3541 
Q 3450 3153 3228 2886 
Q 3006 2619 2597 2516 
z
" transform="scale(0.015625)"/>
       </defs>
       <use xlink:href="#DejaVuSans-33"/>
       <use xlink:href="#DejaVuSans-30" transform="translate(63.623047 0)"/>
       <use xlink:href="#DejaVuSans-30" transform="translate(127.246094 0)"/>
      </g>
     </g>
    </g>
    <g id="ytick_5">
     <g id="line2d_9">
      <g>
       <use xlink:href="#mae658c843c" x="90" y="146.827861" style="stroke: #000000; stroke-width: 0.8"/>
      </g>
     </g>
     <g id="text_10">
      <!-- 400 -->
      <g transform="translate(63.9125 150.62708) scale(0.1 -0.1)">
       <defs>
        <path id="DejaVuSans-34" d="M 2419 4116 
L 825 1625 
L 2419 1625 
L 2419 4116 
z
M 2253 4666 
L 3047 4666 
L 3047 1625 
L 3713 1625 
L 3713 1100 
L 3047 1100 
L 3047 0 
L 2419 0 
L 2419 1100 
L 313 1100 
L 313 1709 
L 2253 4666 
z
" transform="scale(0.015625)"/>
       </defs>
       <use xlink:href="#DejaVuSans-34"/>
       <use xlink:href="#DejaVuSans-30" transform="translate(63.623047 0)"/>
       <use xlink:href="#DejaVuSans-30" transform="translate(127.246094 0)"/>
      </g>
     </g>
    </g>
    <g id="ytick_6">
     <g id="line2d_10">
      <g>
       <use xlink:href="#mae658c843c" x="90" y="110.015083" style="stroke: #000000; stroke-width: 0.8"/>
      </g>
     </g>
     <g id="text_11">
      <!-- 500 -->
      <g transform="translate(63.9125 113.814301) scale(0.1 -0.1)">
       <defs>
        <path id="DejaVuSans-35" d="M 691 4666 
L 3169 4666 
L 3169 4134 
L 1269 4134 
L 1269 2991 
Q 1406 3038 1543 3061 
Q 1681 3084 1819 3084 
Q 2600 3084 3056 2656 
Q 3513 2228 3513 1497 
Q 3513 744 3044 326 
Q 2575 -91 1722 -91 
Q 1428 -91 1123 -41 
Q 819 9 494 109 
L 494 744 
Q 775 591 1075 516 
Q 1375 441 1709 441 
Q 2250 441 2565 725 
Q 2881 1009 2881 1497 
Q 2881 1984 2565 2268 
Q 2250 2553 1709 2553 
Q 1456 2553 1204 2497 
Q 953 2441 691 2322 
L 691 4666 
z
" transform="scale(0.015625)"/>
       </defs>
       <use xlink:href="#DejaVuSans-35"/>
       <use xlink:href="#DejaVuSans-30" transform="translate(63.623047 0)"/>
       <use xlink:href="#DejaVuSans-30" transform="translate(127.246094 0)"/>
      </g>
     </g>
    </g>
    <g id="ytick_7">
     <g id="line2d_11">
      <g>
       <use xlink:href="#mae658c843c" x="90" y="73.202305" style="stroke: #000000; stroke-width: 0.8"/>
      </g>
     </g>
     <g id="text_12">
      <!-- 600 -->
      <g transform="translate(63.9125 77.001523) scale(0.1 -0.1)">
       <defs>
        <path id="DejaVuSans-36" d="M 2113 2584 
Q 1688 2584 1439 2293 
Q 1191 2003 1191 1497 
Q 1191 994 1439 701 
Q 1688 409 2113 409 
Q 2538 409 2786 701 
Q 3034 994 3034 1497 
Q 3034 2003 2786 2293 
Q 2538 2584 2113 2584 
z
M 3366 4563 
L 3366 3988 
Q 3128 4100 2886 4159 
Q 2644 4219 2406 4219 
Q 1781 4219 1451 3797 
Q 1122 3375 1075 2522 
Q 1259 2794 1537 2939 
Q 1816 3084 2150 3084 
Q 2853 3084 3261 2657 
Q 3669 2231 3669 1497 
Q 3669 778 3244 343 
Q 2819 -91 2113 -91 
Q 1303 -91 875 529 
Q 447 1150 447 2328 
Q 447 3434 972 4092 
Q 1497 4750 2381 4750 
Q 2619 4750 2861 4703 
Q 3103 4656 3366 4563 
z
" transform="scale(0.015625)"/>
       </defs>
       <use xlink:href="#DejaVuSans-36"/>
       <use xlink:href="#DejaVuSans-30" transform="translate(63.623047 0)"/>
       <use xlink:href="#DejaVuSans-30" transform="translate(127.246094 0)"/>
      </g>
     </g>
    </g>
    <g id="text_13">
     <!-- cont_variable -->
     <g transform="translate(57.554687 215.409375) rotate(-90) scale(0.1 -0.1)">
      <defs>
       <path id="DejaVuSans-5f" d="M 3263 -1063 
L 3263 -1509 
L -63 -1509 
L -63 -1063 
L 3263 -1063 
z
" transform="scale(0.015625)"/>
       <path id="DejaVuSans-62" d="M 3116 1747 
Q 3116 2381 2855 2742 
Q 2594 3103 2138 3103 
Q 1681 3103 1420 2742 
Q 1159 2381 1159 1747 
Q 1159 1113 1420 752 
Q 1681 391 2138 391 
Q 2594 391 2855 752 
Q 3116 1113 3116 1747 
z
M 1159 2969 
Q 1341 3281 1617 3432 
Q 1894 3584 2278 3584 
Q 2916 3584 3314 3078 
Q 3713 2572 3713 1747 
Q 3713 922 3314 415 
Q 2916 -91 2278 -91 
Q 1894 -91 1617 61 
Q 1341 213 1159 525 
L 1159 0 
L 581 0 
L 581 4863 
L 1159 4863 
L 1159 2969 
z
" transform="scale(0.015625)"/>
       <path id="DejaVuSans-6c" d="M 603 4863 
L 1178 4863 
L 1178 0 
L 603 0 
L 603 4863 
z
" transform="scale(0.015625)"/>
      </defs>
      <use xlink:href="#DejaVuSans-63"/>
      <use xlink:href="#DejaVuSans-6f" transform="translate(54.980469 0)"/>
      <use xlink:href="#DejaVuSans-6e" transform="translate(116.162109 0)"/>
      <use xlink:href="#DejaVuSans-74" transform="translate(179.541016 0)"/>
      <use xlink:href="#DejaVuSans-5f" transform="translate(218.75 0)"/>
      <use xlink:href="#DejaVuSans-76" transform="translate(268.75 0)"/>
      <use xlink:href="#DejaVuSans-61" transform="translate(327.929688 0)"/>
      <use xlink:href="#DejaVuSans-72" transform="translate(389.208984 0)"/>
      <use xlink:href="#DejaVuSans-69" transform="translate(430.322266 0)"/>
      <use xlink:href="#DejaVuSans-61" transform="translate(458.105469 0)"/>
      <use xlink:href="#DejaVuSans-62" transform="translate(519.384766 0)"/>
      <use xlink:href="#DejaVuSans-6c" transform="translate(582.861328 0)"/>
      <use xlink:href="#DejaVuSans-65" transform="translate(610.644531 0)"/>
     </g>
    </g>
   </g>
   <g id="patch_3">
    <path d="M 90 320.4 
L 90 43.2 
" style="fill: none; stroke: #000000; stroke-width: 0.8; stroke-linejoin: miter; stroke-linecap: square"/>
   </g>
   <g id="patch_4">
    <path d="M 648 320.4 
L 648 43.2 
" style="fill: none; stroke: #000000; stroke-width: 0.8; stroke-linejoin: miter; stroke-linecap: square"/>
   </g>
   <g id="patch_5">
    <path d="M 90 320.4 
L 648 320.4 
" style="fill: none; stroke: #000000; stroke-width: 0.8; stroke-linejoin: miter; stroke-linecap: square"/>
   </g>
   <g id="patch_6">
    <path d="M 90 43.2 
L 648 43.2 
" style="fill: none; stroke: #000000; stroke-width: 0.8; stroke-linejoin: miter; stroke-linecap: square"/>
   </g>
   <g id="PathCollection_1">
    <defs>
     <path id="mff1aad3c56" d="M 0 2.5 
C 0.663008 2.5 1.29895 2.236584 1.767767 1.767767 
C 2.236584 1.29895 2.5 0.663008 2.5 0 
C 2.5 -0.663008 2.236584 -1.29895 1.767767 -1.767767 
C 1.29895 -2.236584 0.663008 -2.5 0 -2.5 
C -0.663008 -2.5 -1.29895 -2.236584 -1.767767 -1.767767 
C -2.236584 -1.29895 -2.5 -0.663008 -2.5 0 
C -2.5 0.663008 -2.236584 1.29895 -1.767767 1.767767 
C -1.29895 2.236584 -0.663008 2.5 0 2.5 
z
"/>
    </defs>
    <g clip-path="url(#p73c76e4ef8)">
     <use xlink:href="#mff1aad3c56" x="172.481296" y="253.584917" style="fill-opacity: 0.3"/>
     <use xlink:href="#mff1aad3c56" x="172.108429" y="253.584917" style="fill-opacity: 0.3"/>
     <use xlink:href="#mff1aad3c56" x="151.26344" y="249.903639" style="fill-opacity: 0.3"/>
     <use xlink:href="#mff1aad3c56" x="164.897031" y="183.640639" style="fill-opacity: 0.3"/>
     <use xlink:href="#mff1aad3c56" x="154.110791" y="110.015083" style="fill-opacity: 0.3"/>
     <use xlink:href="#mff1aad3c56" x="165.535447" y="110.015083" style="fill-opacity: 0.3"/>
     <use xlink:href="#mff1aad3c56" x="165.790376" y="110.015083" style="fill-opacity: 0.3"/>
     <use xlink:href="#mff1aad3c56" x="159.513859" y="110.015083" style="fill-opacity: 0.3"/>
     <use xlink:href="#mff1aad3c56" x="153.29249" y="110.015083" style="fill-opacity: 0.3"/>
     <use xlink:href="#mff1aad3c56" x="157.497721" y="110.015083" style="fill-opacity: 0.3"/>
     <use xlink:href="#mff1aad3c56" x="167.951527" y="110.015083" style="fill-opacity: 0.3"/>
     <use xlink:href="#mff1aad3c56" x="152.405221" y="110.015083" style="fill-opacity: 0.3"/>
     <use xlink:href="#mff1aad3c56" x="152.802331" y="110.015083" style="fill-opacity: 0.3"/>
     <use xlink:href="#mff1aad3c56" x="166.992113" y="110.015083" style="fill-opacity: 0.3"/>
     <use xlink:href="#mff1aad3c56" x="157.274769" y="110.015083" style="fill-opacity: 0.3"/>
     <use xlink:href="#mff1aad3c56" x="151.847319" y="110.015083" style="fill-opacity: 0.3"/>
     <use xlink:href="#mff1aad3c56" x="163.791622" y="110.015083" style="fill-opacity: 0.3"/>
     <use xlink:href="#mff1aad3c56" x="165.5618" y="110.015083" style="fill-opacity: 0.3"/>
     <use xlink:href="#mff1aad3c56" x="159.939858" y="110.015083" style="fill-opacity: 0.3"/>
     <use xlink:href="#mff1aad3c56" x="146.117888" y="110.015083" style="fill-opacity: 0.3"/>
     <use xlink:href="#mff1aad3c56" x="160.184067" y="110.015083" style="fill-opacity: 0.3"/>
     <use xlink:href="#mff1aad3c56" x="164.409972" y="110.015083" style="fill-opacity: 0.3"/>
     <use xlink:href="#mff1aad3c56" x="145.854589" y="110.015083" style="fill-opacity: 0.3"/>
     <use xlink:href="#mff1aad3c56" x="162.60872" y="110.015083" style="fill-opacity: 0.3"/>
     <use xlink:href="#mff1aad3c56" x="163.101107" y="110.015083" style="fill-opacity: 0.3"/>
     <use xlink:href="#mff1aad3c56" x="146.936191" y="110.015083" style="fill-opacity: 0.3"/>
     <use xlink:href="#mff1aad3c56" x="156.933094" y="110.015083" style="fill-opacity: 0.3"/>
     <use xlink:href="#mff1aad3c56" x="172.05749" y="110.015083" style="fill-opacity: 0.3"/>
     <use xlink:href="#mff1aad3c56" x="159.290415" y="172.596805" style="fill-opacity: 0.3"/>
     <use xlink:href="#mff1aad3c56" x="153.663663" y="172.596805" style="fill-opacity: 0.3"/>
     <use xlink:href="#mff1aad3c56" x="149.303465" y="172.596805" style="fill-opacity: 0.3"/>
     <use xlink:href="#mff1aad3c56" x="145.964417" y="172.596805" style="fill-opacity: 0.3"/>
     <use xlink:href="#mff1aad3c56" x="165.810248" y="172.596805" style="fill-opacity: 0.3"/>
     <use xlink:href="#mff1aad3c56" x="168.079468" y="172.596805" style="fill-opacity: 0.3"/>
     <use xlink:href="#mff1aad3c56" x="158.761961" y="172.596805" style="fill-opacity: 0.3"/>
     <use xlink:href="#mff1aad3c56" x="171.007821" y="172.596805" style="fill-opacity: 0.3"/>
     <use xlink:href="#mff1aad3c56" x="170.753653" y="172.596805" style="fill-opacity: 0.3"/>
     <use xlink:href="#mff1aad3c56" x="152.995138" y="172.596805" style="fill-opacity: 0.3"/>
     <use xlink:href="#mff1aad3c56" x="160.055175" y="172.596805" style="fill-opacity: 0.3"/>
     <use xlink:href="#mff1aad3c56" x="147.028762" y="172.596805" style="fill-opacity: 0.3"/>
     <use xlink:href="#mff1aad3c56" x="172.42084" y="172.596805" style="fill-opacity: 0.3"/>
     <use xlink:href="#mff1aad3c56" x="169.268591" y="172.596805" style="fill-opacity: 0.3"/>
     <use xlink:href="#mff1aad3c56" x="160.801327" y="172.596805" style="fill-opacity: 0.3"/>
     <use xlink:href="#mff1aad3c56" x="162.943446" y="172.596805" style="fill-opacity: 0.3"/>
     <use xlink:href="#mff1aad3c56" x="169.200702" y="172.596805" style="fill-opacity: 0.3"/>
     <use xlink:href="#mff1aad3c56" x="159.308103" y="172.596805" style="fill-opacity: 0.3"/>
     <use xlink:href="#mff1aad3c56" x="162.731185" y="172.596805" style="fill-opacity: 0.3"/>
     <use xlink:href="#mff1aad3c56" x="151.067124" y="172.596805" style="fill-opacity: 0.3"/>
     <use xlink:href="#mff1aad3c56" x="147.152178" y="135.784027" style="fill-opacity: 0.3"/>
     <use xlink:href="#mff1aad3c56" x="171.313784" y="135.784027" style="fill-opacity: 0.3"/>
     <use xlink:href="#mff1aad3c56" x="152.260014" y="135.784027" style="fill-opacity: 0.3"/>
     <use xlink:href="#mff1aad3c56" x="157.948074" y="135.784027" style="fill-opacity: 0.3"/>
     <use xlink:href="#mff1aad3c56" x="154.890251" y="135.784027" style="fill-opacity: 0.3"/>
     <use xlink:href="#mff1aad3c56" x="167.708777" y="135.784027" style="fill-opacity: 0.3"/>
    </g>
   </g>
   <g id="PathCollection_2">
    <g clip-path="url(#p73c76e4ef8)">
     <use xlink:href="#mff1aad3c56" x="293.676123" y="253.584917" style="fill-opacity: 0.3"/>
     <use xlink:href="#mff1aad3c56" x="311.62345" y="253.584917" style="fill-opacity: 0.3"/>
     <use xlink:href="#mff1aad3c56" x="302.567455" y="253.584917" style="fill-opacity: 0.3"/>
     <use xlink:href="#mff1aad3c56" x="303.555265" y="253.584917" style="fill-opacity: 0.3"/>
     <use xlink:href="#mff1aad3c56" x="295.851929" y="253.584917" style="fill-opacity: 0.3"/>
     <use xlink:href="#mff1aad3c56" x="311.871458" y="253.584917" style="fill-opacity: 0.3"/>
     <use xlink:href="#mff1aad3c56" x="292.220489" y="253.584917" style="fill-opacity: 0.3"/>
     <use xlink:href="#mff1aad3c56" x="298.09834" y="253.584917" style="fill-opacity: 0.3"/>
     <use xlink:href="#mff1aad3c56" x="294.262011" y="253.584917" style="fill-opacity: 0.3"/>
     <use xlink:href="#mff1aad3c56" x="287.836842" y="253.584917" style="fill-opacity: 0.3"/>
     <use xlink:href="#mff1aad3c56" x="296.313403" y="249.903639" style="fill-opacity: 0.3"/>
     <use xlink:href="#mff1aad3c56" x="305.683027" y="249.903639" style="fill-opacity: 0.3"/>
     <use xlink:href="#mff1aad3c56" x="301.191631" y="249.903639" style="fill-opacity: 0.3"/>
     <use xlink:href="#mff1aad3c56" x="307.655951" y="249.903639" style="fill-opacity: 0.3"/>
     <use xlink:href="#mff1aad3c56" x="311.742684" y="183.640639" style="fill-opacity: 0.3"/>
     <use xlink:href="#mff1aad3c56" x="298.471066" y="110.015083" style="fill-opacity: 0.3"/>
     <use xlink:href="#mff1aad3c56" x="292.52399" y="110.015083" style="fill-opacity: 0.3"/>
     <use xlink:href="#mff1aad3c56" x="300.424854" y="110.015083" style="fill-opacity: 0.3"/>
     <use xlink:href="#mff1aad3c56" x="300.905008" y="110.015083" style="fill-opacity: 0.3"/>
     <use xlink:href="#mff1aad3c56" x="290.980536" y="110.015083" style="fill-opacity: 0.3"/>
     <use xlink:href="#mff1aad3c56" x="288.880637" y="110.015083" style="fill-opacity: 0.3"/>
     <use xlink:href="#mff1aad3c56" x="294.507112" y="110.015083" style="fill-opacity: 0.3"/>
     <use xlink:href="#mff1aad3c56" x="290.002675" y="110.015083" style="fill-opacity: 0.3"/>
     <use xlink:href="#mff1aad3c56" x="285.394028" y="110.015083" style="fill-opacity: 0.3"/>
     <use xlink:href="#mff1aad3c56" x="310.045371" y="110.015083" style="fill-opacity: 0.3"/>
     <use xlink:href="#mff1aad3c56" x="310.845327" y="110.015083" style="fill-opacity: 0.3"/>
     <use xlink:href="#mff1aad3c56" x="293.693411" y="110.015083" style="fill-opacity: 0.3"/>
     <use xlink:href="#mff1aad3c56" x="303.882396" y="110.015083" style="fill-opacity: 0.3"/>
     <use xlink:href="#mff1aad3c56" x="295.436948" y="110.015083" style="fill-opacity: 0.3"/>
     <use xlink:href="#mff1aad3c56" x="304.22669" y="110.015083" style="fill-opacity: 0.3"/>
     <use xlink:href="#mff1aad3c56" x="307.341909" y="110.015083" style="fill-opacity: 0.3"/>
     <use xlink:href="#mff1aad3c56" x="301.890835" y="110.015083" style="fill-opacity: 0.3"/>
     <use xlink:href="#mff1aad3c56" x="296.550355" y="110.015083" style="fill-opacity: 0.3"/>
     <use xlink:href="#mff1aad3c56" x="296.259487" y="110.015083" style="fill-opacity: 0.3"/>
     <use xlink:href="#mff1aad3c56" x="305.060246" y="110.015083" style="fill-opacity: 0.3"/>
     <use xlink:href="#mff1aad3c56" x="287.471456" y="110.015083" style="fill-opacity: 0.3"/>
     <use xlink:href="#mff1aad3c56" x="297.522253" y="110.015083" style="fill-opacity: 0.3"/>
     <use xlink:href="#mff1aad3c56" x="294.378301" y="110.015083" style="fill-opacity: 0.3"/>
     <use xlink:href="#mff1aad3c56" x="289.518093" y="110.015083" style="fill-opacity: 0.3"/>
     <use xlink:href="#mff1aad3c56" x="310.313243" y="110.015083" style="fill-opacity: 0.3"/>
     <use xlink:href="#mff1aad3c56" x="304.665079" y="110.015083" style="fill-opacity: 0.3"/>
     <use xlink:href="#mff1aad3c56" x="295.091157" y="110.015083" style="fill-opacity: 0.3"/>
     <use xlink:href="#mff1aad3c56" x="308.285699" y="110.015083" style="fill-opacity: 0.3"/>
     <use xlink:href="#mff1aad3c56" x="311.273071" y="110.015083" style="fill-opacity: 0.3"/>
     <use xlink:href="#mff1aad3c56" x="302.919468" y="110.015083" style="fill-opacity: 0.3"/>
     <use xlink:href="#mff1aad3c56" x="311.867093" y="110.015083" style="fill-opacity: 0.3"/>
     <use xlink:href="#mff1aad3c56" x="302.192816" y="110.015083" style="fill-opacity: 0.3"/>
     <use xlink:href="#mff1aad3c56" x="296.343768" y="110.015083" style="fill-opacity: 0.3"/>
     <use xlink:href="#mff1aad3c56" x="285.397202" y="110.015083" style="fill-opacity: 0.3"/>
     <use xlink:href="#mff1aad3c56" x="302.99978" y="110.015083" style="fill-opacity: 0.3"/>
     <use xlink:href="#mff1aad3c56" x="312.308707" y="110.015083" style="fill-opacity: 0.3"/>
     <use xlink:href="#mff1aad3c56" x="292.666634" y="110.015083" style="fill-opacity: 0.3"/>
     <use xlink:href="#mff1aad3c56" x="293.585096" y="110.015083" style="fill-opacity: 0.3"/>
     <use xlink:href="#mff1aad3c56" x="308.81618" y="110.015083" style="fill-opacity: 0.3"/>
     <use xlink:href="#mff1aad3c56" x="291.758813" y="110.015083" style="fill-opacity: 0.3"/>
     <use xlink:href="#mff1aad3c56" x="305.921558" y="110.015083" style="fill-opacity: 0.3"/>
     <use xlink:href="#mff1aad3c56" x="305.96576" y="110.015083" style="fill-opacity: 0.3"/>
     <use xlink:href="#mff1aad3c56" x="300.015289" y="110.015083" style="fill-opacity: 0.3"/>
     <use xlink:href="#mff1aad3c56" x="293.165083" y="110.015083" style="fill-opacity: 0.3"/>
     <use xlink:href="#mff1aad3c56" x="297.340723" y="110.015083" style="fill-opacity: 0.3"/>
     <use xlink:href="#mff1aad3c56" x="303.301355" y="172.596805" style="fill-opacity: 0.3"/>
     <use xlink:href="#mff1aad3c56" x="291.160809" y="172.596805" style="fill-opacity: 0.3"/>
     <use xlink:href="#mff1aad3c56" x="300.856667" y="172.596805" style="fill-opacity: 0.3"/>
     <use xlink:href="#mff1aad3c56" x="291.076504" y="172.596805" style="fill-opacity: 0.3"/>
     <use xlink:href="#mff1aad3c56" x="309.636304" y="172.596805" style="fill-opacity: 0.3"/>
     <use xlink:href="#mff1aad3c56" x="304.71171" y="172.596805" style="fill-opacity: 0.3"/>
     <use xlink:href="#mff1aad3c56" x="312.734225" y="172.596805" style="fill-opacity: 0.3"/>
     <use xlink:href="#mff1aad3c56" x="291.8507" y="172.596805" style="fill-opacity: 0.3"/>
     <use xlink:href="#mff1aad3c56" x="305.025792" y="172.596805" style="fill-opacity: 0.3"/>
     <use xlink:href="#mff1aad3c56" x="310.903709" y="172.596805" style="fill-opacity: 0.3"/>
     <use xlink:href="#mff1aad3c56" x="298.849514" y="172.596805" style="fill-opacity: 0.3"/>
     <use xlink:href="#mff1aad3c56" x="308.583136" y="172.596805" style="fill-opacity: 0.3"/>
     <use xlink:href="#mff1aad3c56" x="298.39278" y="172.596805" style="fill-opacity: 0.3"/>
     <use xlink:href="#mff1aad3c56" x="305.293219" y="172.596805" style="fill-opacity: 0.3"/>
     <use xlink:href="#mff1aad3c56" x="308.246194" y="172.596805" style="fill-opacity: 0.3"/>
     <use xlink:href="#mff1aad3c56" x="304.86717" y="172.596805" style="fill-opacity: 0.3"/>
     <use xlink:href="#mff1aad3c56" x="302.685068" y="172.596805" style="fill-opacity: 0.3"/>
     <use xlink:href="#mff1aad3c56" x="295.540318" y="172.596805" style="fill-opacity: 0.3"/>
     <use xlink:href="#mff1aad3c56" x="310.533215" y="172.596805" style="fill-opacity: 0.3"/>
     <use xlink:href="#mff1aad3c56" x="294.833041" y="172.596805" style="fill-opacity: 0.3"/>
     <use xlink:href="#mff1aad3c56" x="293.835335" y="172.596805" style="fill-opacity: 0.3"/>
     <use xlink:href="#mff1aad3c56" x="296.308942" y="172.596805" style="fill-opacity: 0.3"/>
     <use xlink:href="#mff1aad3c56" x="291.940753" y="172.596805" style="fill-opacity: 0.3"/>
     <use xlink:href="#mff1aad3c56" x="293.908393" y="135.784027" style="fill-opacity: 0.3"/>
     <use xlink:href="#mff1aad3c56" x="309.608161" y="135.784027" style="fill-opacity: 0.3"/>
     <use xlink:href="#mff1aad3c56" x="292.954205" y="135.784027" style="fill-opacity: 0.3"/>
     <use xlink:href="#mff1aad3c56" x="311.936738" y="135.784027" style="fill-opacity: 0.3"/>
    </g>
   </g>
   <g id="PathCollection_3">
    <g clip-path="url(#p73c76e4ef8)">
     <use xlink:href="#mff1aad3c56" x="445.477263" y="253.584917" style="fill-opacity: 0.3"/>
     <use xlink:href="#mff1aad3c56" x="441.586023" y="253.584917" style="fill-opacity: 0.3"/>
     <use xlink:href="#mff1aad3c56" x="440.19935" y="253.584917" style="fill-opacity: 0.3"/>
     <use xlink:href="#mff1aad3c56" x="434.753543" y="253.584917" style="fill-opacity: 0.3"/>
     <use xlink:href="#mff1aad3c56" x="443.489547" y="249.903639" style="fill-opacity: 0.3"/>
     <use xlink:href="#mff1aad3c56" x="425.097894" y="249.903639" style="fill-opacity: 0.3"/>
     <use xlink:href="#mff1aad3c56" x="450.858024" y="249.903639" style="fill-opacity: 0.3"/>
     <use xlink:href="#mff1aad3c56" x="448.832977" y="183.640639" style="fill-opacity: 0.3"/>
     <use xlink:href="#mff1aad3c56" x="435.400746" y="249.903639" style="fill-opacity: 0.3"/>
     <use xlink:href="#mff1aad3c56" x="446.724589" y="183.640639" style="fill-opacity: 0.3"/>
     <use xlink:href="#mff1aad3c56" x="439.671105" y="249.903639" style="fill-opacity: 0.3"/>
     <use xlink:href="#mff1aad3c56" x="434.746138" y="110.015083" style="fill-opacity: 0.3"/>
     <use xlink:href="#mff1aad3c56" x="448.567294" y="110.015083" style="fill-opacity: 0.3"/>
     <use xlink:href="#mff1aad3c56" x="449.275439" y="110.015083" style="fill-opacity: 0.3"/>
     <use xlink:href="#mff1aad3c56" x="451.829555" y="110.015083" style="fill-opacity: 0.3"/>
     <use xlink:href="#mff1aad3c56" x="434.864009" y="110.015083" style="fill-opacity: 0.3"/>
     <use xlink:href="#mff1aad3c56" x="424.861666" y="110.015083" style="fill-opacity: 0.3"/>
     <use xlink:href="#mff1aad3c56" x="433.873993" y="110.015083" style="fill-opacity: 0.3"/>
     <use xlink:href="#mff1aad3c56" x="432.356833" y="110.015083" style="fill-opacity: 0.3"/>
     <use xlink:href="#mff1aad3c56" x="445.642039" y="110.015083" style="fill-opacity: 0.3"/>
     <use xlink:href="#mff1aad3c56" x="438.987338" y="110.015083" style="fill-opacity: 0.3"/>
     <use xlink:href="#mff1aad3c56" x="426.822361" y="110.015083" style="fill-opacity: 0.3"/>
     <use xlink:href="#mff1aad3c56" x="450.630754" y="110.015083" style="fill-opacity: 0.3"/>
     <use xlink:href="#mff1aad3c56" x="434.483799" y="110.015083" style="fill-opacity: 0.3"/>
     <use xlink:href="#mff1aad3c56" x="431.656937" y="110.015083" style="fill-opacity: 0.3"/>
     <use xlink:href="#mff1aad3c56" x="447.216455" y="110.015083" style="fill-opacity: 0.3"/>
     <use xlink:href="#mff1aad3c56" x="444.097174" y="110.015083" style="fill-opacity: 0.3"/>
     <use xlink:href="#mff1aad3c56" x="424.887892" y="110.015083" style="fill-opacity: 0.3"/>
     <use xlink:href="#mff1aad3c56" x="449.266058" y="110.015083" style="fill-opacity: 0.3"/>
     <use xlink:href="#mff1aad3c56" x="439.268792" y="110.015083" style="fill-opacity: 0.3"/>
     <use xlink:href="#mff1aad3c56" x="439.122556" y="110.015083" style="fill-opacity: 0.3"/>
     <use xlink:href="#mff1aad3c56" x="427.238649" y="110.015083" style="fill-opacity: 0.3"/>
     <use xlink:href="#mff1aad3c56" x="434.450608" y="110.015083" style="fill-opacity: 0.3"/>
     <use xlink:href="#mff1aad3c56" x="428.637612" y="110.015083" style="fill-opacity: 0.3"/>
     <use xlink:href="#mff1aad3c56" x="442.304437" y="172.596805" style="fill-opacity: 0.3"/>
     <use xlink:href="#mff1aad3c56" x="452.550511" y="172.596805" style="fill-opacity: 0.3"/>
     <use xlink:href="#mff1aad3c56" x="424.899581" y="172.596805" style="fill-opacity: 0.3"/>
     <use xlink:href="#mff1aad3c56" x="435.739393" y="172.596805" style="fill-opacity: 0.3"/>
     <use xlink:href="#mff1aad3c56" x="452.492742" y="172.596805" style="fill-opacity: 0.3"/>
     <use xlink:href="#mff1aad3c56" x="428.453002" y="172.596805" style="fill-opacity: 0.3"/>
     <use xlink:href="#mff1aad3c56" x="443.832917" y="135.784027" style="fill-opacity: 0.3"/>
     <use xlink:href="#mff1aad3c56" x="426.380331" y="161.552972" style="fill-opacity: 0.3"/>
    </g>
   </g>
   <g id="PathCollection_4">
    <g clip-path="url(#p73c76e4ef8)">
     <use xlink:href="#mff1aad3c56" x="576.766497" y="249.903639" style="fill-opacity: 0.3"/>
     <use xlink:href="#mff1aad3c56" x="570.260989" y="183.640639" style="fill-opacity: 0.3"/>
     <use xlink:href="#mff1aad3c56" x="571.991403" y="110.015083" style="fill-opacity: 0.3"/>
     <use xlink:href="#mff1aad3c56" x="587.683358" y="110.015083" style="fill-opacity: 0.3"/>
     <use xlink:href="#mff1aad3c56" x="584.105877" y="110.015083" style="fill-opacity: 0.3"/>
     <use xlink:href="#mff1aad3c56" x="576.552594" y="110.015083" style="fill-opacity: 0.3"/>
     <use xlink:href="#mff1aad3c56" x="577.325217" y="110.015083" style="fill-opacity: 0.3"/>
     <use xlink:href="#mff1aad3c56" x="564.91196" y="172.596805" style="fill-opacity: 0.3"/>
     <use xlink:href="#mff1aad3c56" x="580.363753" y="172.596805" style="fill-opacity: 0.3"/>
     <use xlink:href="#mff1aad3c56" x="567.626298" y="172.596805" style="fill-opacity: 0.3"/>
     <use xlink:href="#mff1aad3c56" x="565.070894" y="172.596805" style="fill-opacity: 0.3"/>
     <use xlink:href="#mff1aad3c56" x="582.033806" y="172.596805" style="fill-opacity: 0.3"/>
     <use xlink:href="#mff1aad3c56" x="567.346901" y="172.596805" style="fill-opacity: 0.3"/>
     <use xlink:href="#mff1aad3c56" x="579.985399" y="172.596805" style="fill-opacity: 0.3"/>
     <use xlink:href="#mff1aad3c56" x="569.104696" y="172.596805" style="fill-opacity: 0.3"/>
     <use xlink:href="#mff1aad3c56" x="588.989839" y="172.596805" style="fill-opacity: 0.3"/>
     <use xlink:href="#mff1aad3c56" x="566.826986" y="172.596805" style="fill-opacity: 0.3"/>
     <use xlink:href="#mff1aad3c56" x="567.640532" y="172.596805" style="fill-opacity: 0.3"/>
     <use xlink:href="#mff1aad3c56" x="583.357834" y="135.784027" style="fill-opacity: 0.3"/>
     <use xlink:href="#mff1aad3c56" x="575.260011" y="135.784027" style="fill-opacity: 0.3"/>
     <use xlink:href="#mff1aad3c56" x="571.322809" y="135.784027" style="fill-opacity: 0.3"/>
     <use xlink:href="#mff1aad3c56" x="591.739139" y="135.784027" style="fill-opacity: 0.3"/>
     <use xlink:href="#mff1aad3c56" x="589.580142" y="135.784027" style="fill-opacity: 0.3"/>
     <use xlink:href="#mff1aad3c56" x="567.683422" y="135.784027" style="fill-opacity: 0.3"/>
     <use xlink:href="#mff1aad3c56" x="576.023421" y="135.784027" style="fill-opacity: 0.3"/>
     <use xlink:href="#mff1aad3c56" x="572.10256" y="135.784027" style="fill-opacity: 0.3"/>
     <use xlink:href="#mff1aad3c56" x="586.673151" y="161.552972" style="fill-opacity: 0.3"/>
    </g>
   </g>
  </g>
 </g>
 <defs>
  <clipPath id="p73c76e4ef8">
   <rect x="90" y="43.2" width="558" height="277.2"/>
  </clipPath>
 </defs>
</svg>
