<?xml version="1.0" encoding="utf-8" standalone="no"?>
<!DOCTYPE svg PUBLIC "-//W3C//DTD SVG 1.1//EN"
  "http://www.w3.org/Graphics/SVG/1.1/DTD/svg11.dtd">
<svg xmlns:xlink="http://www.w3.org/1999/xlink" width="720pt" height="360pt" viewBox="0 0 720 360" xmlns="http://www.w3.org/2000/svg" version="1.1">
 <metadata>
  <rdf:RDF xmlns:dc="http://purl.org/dc/elements/1.1/" xmlns:cc="http://creativecommons.org/ns#" xmlns:rdf="http://www.w3.org/1999/02/22-rdf-syntax-ns#">
   <cc:Work>
    <dc:type rdf:resource="http://purl.org/dc/dcmitype/StillImage"/>
    <dc:date>2025-09-12T09:55:02.936991</dc:date>
    <dc:format>image/svg+xml</dc:format>
    <dc:creator>
     <cc:Agent>
      <dc:title>Matplotlib v3.10.3, https://matplotlib.org/</dc:title>
     </cc:Agent>
    </dc:creator>
   </cc:Work>
  </rdf:RDF>
 </metadata>
 <defs>
  <style type="text/css">*{stroke-linejoin: round; stroke-linecap: butt}</style>
 </defs>
 <g id="figure_1">
  <g id="patch_1">
   <path d="M 0 360 
L 720 360 
L 720 0 
L 0 0 
z
" style="fill: #ffffff"/>
  </g>
  <g id="axes_1">
   <g id="patch_2">
    <path d="M 90 320.4 
L 648 320.4 
L 648 43.2 
L 90 43.2 
z
" style="fill: #ffffff"/>
   </g>
   <g id="FillBetweenPolyCollection_1">
    <defs>
     <path id="m051861dbe9" d="M 162.574094 -52.923267 
L 156.925906 -52.923267 
L 156.042931 -55.461416 
L 154.950945 -57.999564 
L 153.622419 -60.537713 
L 152.032653 -63.075862 
L 150.161897 -65.614011 
L 147.997602 -68.15216 
L 145.536645 -70.690308 
L 142.787327 -73.228457 
L 139.770915 -75.766606 
L 136.522517 -78.304755 
L 133.091129 -80.842904 
L 129.538694 -83.381053 
L 125.938161 -85.919201 
L 122.370583 -88.45735 
L 118.921394 -90.995499 
L 115.676137 -93.533648 
L 112.71593 -96.071797 
L 110.11305 -98.609946 
L 107.927002 -101.148094 
L 106.201387 -103.686243 
L 104.961847 -106.224392 
L 104.215227 -108.762541 
L 103.95 -111.30069 
L 104.137856 -113.838838 
L 104.73627 -116.376987 
L 105.691765 -118.915136 
L 106.943542 -121.453285 
L 108.427154 -123.991434 
L 110.077922 -126.529583 
L 111.833859 -129.067731 
L 113.637953 -131.60588 
L 115.439769 -134.144029 
L 117.196374 -136.682178 
L 118.872705 -139.220327 
L 120.441507 -141.758475 
L 121.882985 -144.296624 
L 123.184322 -146.834773 
L 124.339138 -149.372922 
L 125.346973 -151.911071 
L 126.212777 -154.44922 
L 126.946401 -156.987368 
L 127.562021 -159.525517 
L 128.077458 -162.063666 
L 128.513338 -164.601815 
L 128.892098 -167.139964 
L 129.236856 -169.678113 
L 129.570197 -172.216261 
L 129.912985 -174.75441 
L 130.283275 -177.292559 
L 130.695463 -179.830708 
L 131.159719 -182.368857 
L 131.681795 -184.907005 
L 132.263182 -187.445154 
L 132.901621 -189.983303 
L 133.591868 -192.521452 
L 134.326631 -195.059601 
L 135.097554 -197.59775 
L 135.896142 -200.135898 
L 136.714517 -202.674047 
L 137.545959 -205.212196 
L 138.385178 -207.750345 
L 139.228337 -210.288494 
L 140.072866 -212.826642 
L 140.91713 -215.364791 
L 141.760028 -217.90294 
L 142.6006 -220.441089 
L 143.437702 -222.979238 
L 144.269792 -225.517387 
L 145.094852 -228.055535 
L 145.910421 -230.593684 
L 146.713739 -233.131833 
L 147.501938 -235.669982 
L 148.272264 -238.208131 
L 149.022269 -240.746279 
L 149.749962 -243.284428 
L 150.453886 -245.822577 
L 151.133129 -248.360726 
L 151.787267 -250.898875 
L 152.416251 -253.437024 
L 153.020266 -255.975172 
L 153.599581 -258.513321 
L 154.154407 -261.05147 
L 154.684778 -263.589619 
L 155.190479 -266.127768 
L 155.671014 -268.665917 
L 156.125628 -271.204065 
L 156.553366 -273.742214 
L 156.95317 -276.280363 
L 157.324001 -278.818512 
L 157.664962 -281.356661 
L 157.975425 -283.894809 
L 158.25513 -286.432958 
L 158.504262 -288.971107 
L 158.723484 -291.509256 
L 158.913942 -294.047405 
L 159.077223 -296.585554 
L 159.215292 -299.123702 
L 159.330402 -301.661851 
L 159.424989 -304.2 
L 160.075011 -304.2 
L 160.075011 -304.2 
L 160.169598 -301.661851 
L 160.284708 -299.123702 
L 160.422777 -296.585554 
L 160.586058 -294.047405 
L 160.776516 -291.509256 
L 160.995738 -288.971107 
L 161.24487 -286.432958 
L 161.524575 -283.894809 
L 161.835038 -281.356661 
L 162.175999 -278.818512 
L 162.54683 -276.280363 
L 162.946634 -273.742214 
L 163.374372 -271.204065 
L 163.828986 -268.665917 
L 164.309521 -266.127768 
L 164.815222 -263.589619 
L 165.345593 -261.05147 
L 165.900419 -258.513321 
L 166.479734 -255.975172 
L 167.083749 -253.437024 
L 167.712733 -250.898875 
L 168.366871 -248.360726 
L 169.046114 -245.822577 
L 169.750038 -243.284428 
L 170.477731 -240.746279 
L 171.227736 -238.208131 
L 171.998062 -235.669982 
L 172.786261 -233.131833 
L 173.589579 -230.593684 
L 174.405148 -228.055535 
L 175.230208 -225.517387 
L 176.062298 -222.979238 
L 176.8994 -220.441089 
L 177.739972 -217.90294 
L 178.58287 -215.364791 
L 179.427134 -212.826642 
L 180.271663 -210.288494 
L 181.114822 -207.750345 
L 181.954041 -205.212196 
L 182.785483 -202.674047 
L 183.603858 -200.135898 
L 184.402446 -197.59775 
L 185.173369 -195.059601 
L 185.908132 -192.521452 
L 186.598379 -189.983303 
L 187.236818 -187.445154 
L 187.818205 -184.907005 
L 188.340281 -182.368857 
L 188.804537 -179.830708 
L 189.216725 -177.292559 
L 189.587015 -174.75441 
L 189.929803 -172.216261 
L 190.263144 -169.678113 
L 190.607902 -167.139964 
L 190.986662 -164.601815 
L 191.422542 -162.063666 
L 191.937979 -159.525517 
L 192.553599 -156.987368 
L 193.287223 -154.44922 
L 194.153027 -151.911071 
L 195.160862 -149.372922 
L 196.315678 -146.834773 
L 197.617015 -144.296624 
L 199.058493 -141.758475 
L 200.627295 -139.220327 
L 202.303626 -136.682178 
L 204.060231 -134.144029 
L 205.862047 -131.60588 
L 207.666141 -129.067731 
L 209.422078 -126.529583 
L 211.072846 -123.991434 
L 212.556458 -121.453285 
L 213.808235 -118.915136 
L 214.76373 -116.376987 
L 215.362144 -113.838838 
L 215.55 -111.30069 
L 215.284773 -108.762541 
L 214.538153 -106.224392 
L 213.298613 -103.686243 
L 211.572998 -101.148094 
L 209.38695 -98.609946 
L 206.78407 -96.071797 
L 203.823863 -93.533648 
L 200.578606 -90.995499 
L 197.129417 -88.45735 
L 193.561839 -85.919201 
L 189.961306 -83.381053 
L 186.408871 -80.842904 
L 182.977483 -78.304755 
L 179.729085 -75.766606 
L 176.712673 -73.228457 
L 173.963355 -70.690308 
L 171.502398 -68.15216 
L 169.338103 -65.614011 
L 167.467347 -63.075862 
L 165.877581 -60.537713 
L 164.549055 -57.999564 
L 163.457069 -55.461416 
L 162.574094 -52.923267 
z
" style="stroke: #3d3d3d; stroke-width: 1.25"/>
    </defs>
    <g clip-path="url(#p26ee489d12)">
     <use xlink:href="#m051861dbe9" x="0" y="360" style="fill: #3274a1; stroke: #3d3d3d; stroke-width: 1.25"/>
    </g>
   </g>
   <g id="FillBetweenPolyCollection_2">
    <defs>
     <path id="m4b5bc51d8d" d="M 300.607003 -70.227944 
L 297.892997 -70.227944 
L 297.172521 -72.374073 
L 296.153155 -74.520202 
L 294.75464 -76.66633 
L 292.895086 -78.812459 
L 290.500223 -80.958588 
L 287.515253 -83.104716 
L 283.918151 -85.250845 
L 279.732531 -87.396974 
L 275.037655 -89.543102 
L 269.973005 -91.689231 
L 264.735306 -93.835359 
L 259.566856 -95.981488 
L 254.735582 -98.127617 
L 250.508885 -100.273745 
L 247.124836 -102.419874 
L 244.765195 -104.566003 
L 243.534679 -106.712131 
L 243.45 -108.85826 
L 244.440462 -111.004389 
L 246.359821 -113.150517 
L 249.007121 -115.296646 
L 252.1528 -117.442774 
L 255.565738 -119.588903 
L 259.037217 -121.735032 
L 262.39872 -123.88116 
L 265.531944 -126.027289 
L 268.370812 -128.173418 
L 270.896548 -130.319546 
L 273.1277 -132.465675 
L 275.107386 -134.611804 
L 276.890046 -136.757932 
L 278.529626 -138.904061 
L 280.070608 -141.05019 
L 281.542657 -143.196318 
L 282.958984 -145.342447 
L 284.317969 -147.488575 
L 285.607122 -149.634704 
L 286.808228 -151.780833 
L 287.90252 -153.926961 
L 288.874922 -156.07309 
L 289.716758 -158.219219 
L 290.426754 -160.365347 
L 291.010525 -162.511476 
L 291.479033 -164.657605 
L 291.84657 -166.803733 
L 292.128817 -168.949862 
L 292.34134 -171.09599 
L 292.498691 -173.242119 
L 292.614089 -175.388248 
L 292.699527 -177.534376 
L 292.766114 -179.680505 
L 292.824433 -181.826634 
L 292.884807 -183.972762 
L 292.957389 -186.118891 
L 293.052056 -188.26502 
L 293.178106 -190.411148 
L 293.343797 -192.557277 
L 293.55574 -194.703405 
L 293.818216 -196.849534 
L 294.1325 -198.995663 
L 294.496328 -201.141791 
L 294.903634 -203.28792 
L 295.344702 -205.434049 
L 295.806778 -207.580177 
L 296.275119 -209.726306 
L 296.734344 -211.872435 
L 297.169878 -214.018563 
L 297.569262 -216.164692 
L 297.923094 -218.31082 
L 298.225494 -220.456949 
L 298.474056 -222.603078 
L 298.669351 -224.749206 
L 298.814157 -226.895335 
L 298.912585 -229.041464 
L 298.969296 -231.187592 
L 298.988948 -233.333721 
L 298.975938 -235.47985 
L 298.934447 -237.625978 
L 298.86872 -239.772107 
L 298.783454 -241.918236 
L 298.684166 -244.064364 
L 298.577388 -246.210493 
L 298.470603 -248.356621 
L 298.371865 -250.50275 
L 298.289142 -252.648879 
L 298.229495 -254.795007 
L 298.198231 -256.941136 
L 298.198218 -259.087265 
L 298.229512 -261.233393 
L 298.28937 -263.379522 
L 298.372665 -265.525651 
L 298.472618 -267.671779 
L 298.581716 -269.817908 
L 298.692627 -271.964036 
L 298.798989 -274.110165 
L 298.895932 -276.256294 
L 298.980323 -278.402422 
L 299.050723 -280.548551 
L 299.107134 -282.69468 
L 299.392866 -282.69468 
L 299.392866 -282.69468 
L 299.449277 -280.548551 
L 299.519677 -278.402422 
L 299.604068 -276.256294 
L 299.701011 -274.110165 
L 299.807373 -271.964036 
L 299.918284 -269.817908 
L 300.027382 -267.671779 
L 300.127335 -265.525651 
L 300.21063 -263.379522 
L 300.270488 -261.233393 
L 300.301782 -259.087265 
L 300.301769 -256.941136 
L 300.270505 -254.795007 
L 300.210858 -252.648879 
L 300.128135 -250.50275 
L 300.029397 -248.356621 
L 299.922612 -246.210493 
L 299.815834 -244.064364 
L 299.716546 -241.918236 
L 299.63128 -239.772107 
L 299.565553 -237.625978 
L 299.524062 -235.47985 
L 299.511052 -233.333721 
L 299.530704 -231.187592 
L 299.587415 -229.041464 
L 299.685843 -226.895335 
L 299.830649 -224.749206 
L 300.025944 -222.603078 
L 300.274506 -220.456949 
L 300.576906 -218.31082 
L 300.930738 -216.164692 
L 301.330122 -214.018563 
L 301.765656 -211.872435 
L 302.224881 -209.726306 
L 302.693222 -207.580177 
L 303.155298 -205.434049 
L 303.596366 -203.28792 
L 304.003672 -201.141791 
L 304.3675 -198.995663 
L 304.681784 -196.849534 
L 304.94426 -194.703405 
L 305.156203 -192.557277 
L 305.321894 -190.411148 
L 305.447944 -188.26502 
L 305.542611 -186.118891 
L 305.615193 -183.972762 
L 305.675567 -181.826634 
L 305.733886 -179.680505 
L 305.800473 -177.534376 
L 305.885911 -175.388248 
L 306.001309 -173.242119 
L 306.15866 -171.09599 
L 306.371183 -168.949862 
L 306.65343 -166.803733 
L 307.020967 -164.657605 
L 307.489475 -162.511476 
L 308.073246 -160.365347 
L 308.783242 -158.219219 
L 309.625078 -156.07309 
L 310.59748 -153.926961 
L 311.691772 -151.780833 
L 312.892878 -149.634704 
L 314.182031 -147.488575 
L 315.541016 -145.342447 
L 316.957343 -143.196318 
L 318.429392 -141.05019 
L 319.970374 -138.904061 
L 321.609954 -136.757932 
L 323.392614 -134.611804 
L 325.3723 -132.465675 
L 327.603452 -130.319546 
L 330.129188 -128.173418 
L 332.968056 -126.027289 
L 336.10128 -123.88116 
L 339.462783 -121.735032 
L 342.934262 -119.588903 
L 346.3472 -117.442774 
L 349.492879 -115.296646 
L 352.140179 -113.150517 
L 354.059538 -111.004389 
L 355.05 -108.85826 
L 354.965321 -106.712131 
L 353.734805 -104.566003 
L 351.375164 -102.419874 
L 347.991115 -100.273745 
L 343.764418 -98.127617 
L 338.933144 -95.981488 
L 333.764694 -93.835359 
L 328.526995 -91.689231 
L 323.462345 -89.543102 
L 318.767469 -87.396974 
L 314.581849 -85.250845 
L 310.984747 -83.104716 
L 307.999777 -80.958588 
L 305.604914 -78.812459 
L 303.74536 -76.66633 
L 302.346845 -74.520202 
L 301.327479 -72.374073 
L 300.607003 -70.227944 
z
" style="stroke: #3d3d3d; stroke-width: 1.25"/>
    </defs>
    <g clip-path="url(#p26ee489d12)">
     <use xlink:href="#m4b5bc51d8d" x="0" y="360" style="fill: #e1812c; stroke: #3d3d3d; stroke-width: 1.25"/>
    </g>
   </g>
   <g id="FillBetweenPolyCollection_3">
    <defs>
     <path id="m7fb0b5db52" d="M 440.050321 -60.122482 
L 437.449679 -60.122482 
L 436.916778 -62.484267 
L 436.208053 -64.846051 
L 435.283386 -67.207836 
L 434.100208 -69.569621 
L 432.615862 -71.931406 
L 430.790785 -74.293191 
L 428.592424 -76.654975 
L 425.999659 -79.01676 
L 423.007391 -81.378545 
L 419.630843 -83.74033 
L 415.909 -86.102115 
L 411.906664 -88.463899 
L 407.714584 -90.825684 
L 403.447326 -93.187469 
L 399.238721 -95.549254 
L 395.235034 -97.911039 
L 391.586266 -100.272823 
L 388.436303 -102.634608 
L 385.912797 -104.996393 
L 384.117792 -107.358178 
L 383.120062 -109.719963 
L 382.95 -112.081747 
L 383.597574 -114.443532 
L 385.013596 -116.805317 
L 387.1141 -119.167102 
L 389.787346 -121.528887 
L 392.902645 -123.890671 
L 396.320065 -126.252456 
L 399.900052 -128.614241 
L 403.51205 -130.976026 
L 407.041441 -133.337811 
L 410.394352 -135.699595 
L 413.500169 -138.06138 
L 416.311862 -140.423165 
L 418.804455 -142.78495 
L 420.9721 -145.146735 
L 422.824312 -147.508519 
L 424.381889 -149.870304 
L 425.672977 -152.232089 
L 426.729643 -154.593874 
L 427.585161 -156.955659 
L 428.272091 -159.317444 
L 428.821116 -161.679228 
L 429.260514 -164.041013 
L 429.616066 -166.402798 
L 429.911222 -168.764583 
L 430.167321 -171.126368 
L 430.403725 -173.488152 
L 430.637786 -175.849937 
L 430.884612 -178.211722 
L 431.15667 -180.573507 
L 431.463313 -182.935292 
L 431.810325 -185.297076 
L 432.199599 -187.658861 
L 432.629042 -190.020646 
L 433.092754 -192.382431 
L 433.581502 -194.744216 
L 434.083443 -197.106 
L 434.585033 -199.467785 
L 435.072037 -201.82957 
L 435.530514 -204.191355 
L 435.947718 -206.55314 
L 436.31282 -208.914924 
L 436.617434 -211.276709 
L 436.855918 -213.638494 
L 437.025484 -216.000279 
L 437.126137 -218.362064 
L 437.160494 -220.723848 
L 437.133513 -223.085633 
L 437.052174 -225.447418 
L 436.925127 -227.809203 
L 436.762317 -230.170988 
L 436.574597 -232.532772 
L 436.373326 -234.894557 
L 436.169944 -237.256342 
L 435.975557 -239.618127 
L 435.800504 -241.979912 
L 435.65396 -244.341696 
L 435.543568 -246.703481 
L 435.475142 -249.065266 
L 435.452443 -251.427051 
L 435.477062 -253.788836 
L 435.54841 -256.15062 
L 435.663827 -258.512405 
L 435.8188 -260.87419 
L 436.007283 -263.235975 
L 436.222098 -265.59776 
L 436.455382 -267.959544 
L 436.699058 -270.321329 
L 436.945298 -272.683114 
L 437.186921 -275.044899 
L 437.417732 -277.406684 
L 437.632753 -279.768468 
L 437.828348 -282.130253 
L 438.002244 -284.492038 
L 438.153451 -286.853823 
L 438.282106 -289.215608 
L 438.389263 -291.577392 
L 438.476658 -293.939177 
L 439.023342 -293.939177 
L 439.023342 -293.939177 
L 439.110737 -291.577392 
L 439.217894 -289.215608 
L 439.346549 -286.853823 
L 439.497756 -284.492038 
L 439.671652 -282.130253 
L 439.867247 -279.768468 
L 440.082268 -277.406684 
L 440.313079 -275.044899 
L 440.554702 -272.683114 
L 440.800942 -270.321329 
L 441.044618 -267.959544 
L 441.277902 -265.59776 
L 441.492717 -263.235975 
L 441.6812 -260.87419 
L 441.836173 -258.512405 
L 441.95159 -256.15062 
L 442.022938 -253.788836 
L 442.047557 -251.427051 
L 442.024858 -249.065266 
L 441.956432 -246.703481 
L 441.84604 -244.341696 
L 441.699496 -241.979912 
L 441.524443 -239.618127 
L 441.330056 -237.256342 
L 441.126674 -234.894557 
L 440.925403 -232.532772 
L 440.737683 -230.170988 
L 440.574873 -227.809203 
L 440.447826 -225.447418 
L 440.366487 -223.085633 
L 440.339506 -220.723848 
L 440.373863 -218.362064 
L 440.474516 -216.000279 
L 440.644082 -213.638494 
L 440.882566 -211.276709 
L 441.18718 -208.914924 
L 441.552282 -206.55314 
L 441.969486 -204.191355 
L 442.427963 -201.82957 
L 442.914967 -199.467785 
L 443.416557 -197.106 
L 443.918498 -194.744216 
L 444.407246 -192.382431 
L 444.870958 -190.020646 
L 445.300401 -187.658861 
L 445.689675 -185.297076 
L 446.036687 -182.935292 
L 446.34333 -180.573507 
L 446.615388 -178.211722 
L 446.862214 -175.849937 
L 447.096275 -173.488152 
L 447.332679 -171.126368 
L 447.588778 -168.764583 
L 447.883934 -166.402798 
L 448.239486 -164.041013 
L 448.678884 -161.679228 
L 449.227909 -159.317444 
L 449.914839 -156.955659 
L 450.770357 -154.593874 
L 451.827023 -152.232089 
L 453.118111 -149.870304 
L 454.675688 -147.508519 
L 456.5279 -145.146735 
L 458.695545 -142.78495 
L 461.188138 -140.423165 
L 463.999831 -138.06138 
L 467.105648 -135.699595 
L 470.458559 -133.337811 
L 473.98795 -130.976026 
L 477.599948 -128.614241 
L 481.179935 -126.252456 
L 484.597355 -123.890671 
L 487.712654 -121.528887 
L 490.3859 -119.167102 
L 492.486404 -116.805317 
L 493.902426 -114.443532 
L 494.55 -112.081747 
L 494.379938 -109.719963 
L 493.382208 -107.358178 
L 491.587203 -104.996393 
L 489.063697 -102.634608 
L 485.913734 -100.272823 
L 482.264966 -97.911039 
L 478.261279 -95.549254 
L 474.052674 -93.187469 
L 469.785416 -90.825684 
L 465.593336 -88.463899 
L 461.591 -86.102115 
L 457.869157 -83.74033 
L 454.492609 -81.378545 
L 451.500341 -79.01676 
L 448.907576 -76.654975 
L 446.709215 -74.293191 
L 444.884138 -71.931406 
L 443.399792 -69.569621 
L 442.216614 -67.207836 
L 441.291947 -64.846051 
L 440.583222 -62.484267 
L 440.050321 -60.122482 
z
" style="stroke: #3d3d3d; stroke-width: 1.25"/>
    </defs>
    <g clip-path="url(#p26ee489d12)">
     <use xlink:href="#m7fb0b5db52" x="0" y="360" style="fill: #3a923a; stroke: #3d3d3d; stroke-width: 1.25"/>
    </g>
   </g>
   <g id="FillBetweenPolyCollection_4">
    <defs>
     <path id="m5e6250eea3" d="M 581.58738 -52.2 
L 574.91262 -52.2 
L 573.926216 -54.739079 
L 572.720747 -57.278158 
L 571.270287 -59.817237 
L 569.552316 -62.356315 
L 567.549776 -64.895394 
L 565.253217 -67.434473 
L 562.662894 -69.973552 
L 559.790626 -72.512631 
L 556.661214 -75.05171 
L 553.313247 -77.590788 
L 549.799128 -80.129867 
L 546.184208 -82.668946 
L 542.544999 -85.208025 
L 538.966478 -87.747104 
L 535.538629 -90.286183 
L 532.35239 -92.825262 
L 529.495282 -95.36434 
L 527.047006 -97.903419 
L 525.075329 -100.442498 
L 523.632532 -102.981577 
L 522.752699 -105.520656 
L 522.45 -108.059735 
L 522.718086 -110.598813 
L 523.530612 -113.137892 
L 524.842814 -115.676971 
L 526.594004 -118.21605 
L 528.710797 -120.755129 
L 531.110828 -123.294208 
L 533.706746 -125.833287 
L 536.410219 -128.372365 
L 539.135767 -130.911444 
L 541.804217 -133.450523 
L 544.345647 -135.989602 
L 546.701706 -138.528681 
L 548.82725 -141.06776 
L 550.691257 -143.606838 
L 552.277037 -146.145917 
L 553.581766 -148.684996 
L 554.615422 -151.224075 
L 555.399203 -153.763154 
L 555.963552 -156.302233 
L 556.345897 -158.841312 
L 556.588258 -161.38039 
L 556.734836 -163.919469 
L 556.829718 -166.458548 
L 556.914797 -168.997627 
L 557.028005 -171.536706 
L 557.201909 -174.075785 
L 557.462708 -176.614863 
L 557.829635 -179.153942 
L 558.314744 -181.693021 
L 558.923056 -184.2321 
L 559.65299 -186.771179 
L 560.497044 -189.310258 
L 561.442647 -191.849337 
L 562.473129 -194.388415 
L 563.568753 -196.927494 
L 564.707758 -199.466573 
L 565.867376 -202.005652 
L 567.024787 -204.544731 
L 568.157986 -207.08381 
L 569.246542 -209.622888 
L 570.272235 -212.161967 
L 571.219567 -214.701046 
L 572.07613 -217.240125 
L 572.832854 -219.779204 
L 573.484116 -222.318283 
L 574.027738 -224.857362 
L 574.464868 -227.39644 
L 574.799775 -229.935519 
L 575.039545 -232.474598 
L 575.193711 -235.013677 
L 575.273815 -237.552756 
L 575.292915 -240.091835 
L 575.265056 -242.630913 
L 575.204706 -245.169992 
L 575.126187 -247.709071 
L 575.043118 -250.24815 
L 574.967889 -252.787229 
L 574.911199 -255.326308 
L 574.881681 -257.865387 
L 574.885636 -260.404465 
L 574.926898 -262.943544 
L 575.006837 -265.482623 
L 575.124491 -268.021702 
L 575.276835 -270.560781 
L 575.459142 -273.09986 
L 575.665423 -275.638938 
L 575.888905 -278.178017 
L 576.122511 -280.717096 
L 576.359304 -283.256175 
L 576.592871 -285.795254 
L 576.817624 -288.334333 
L 577.029006 -290.873412 
L 577.223593 -293.41249 
L 577.399116 -295.951569 
L 577.554396 -298.490648 
L 577.689219 -301.029727 
L 577.804178 -303.568806 
L 578.695822 -303.568806 
L 578.695822 -303.568806 
L 578.810781 -301.029727 
L 578.945604 -298.490648 
L 579.100884 -295.951569 
L 579.276407 -293.41249 
L 579.470994 -290.873412 
L 579.682376 -288.334333 
L 579.907129 -285.795254 
L 580.140696 -283.256175 
L 580.377489 -280.717096 
L 580.611095 -278.178017 
L 580.834577 -275.638938 
L 581.040858 -273.09986 
L 581.223165 -270.560781 
L 581.375509 -268.021702 
L 581.493163 -265.482623 
L 581.573102 -262.943544 
L 581.614364 -260.404465 
L 581.618319 -257.865387 
L 581.588801 -255.326308 
L 581.532111 -252.787229 
L 581.456882 -250.24815 
L 581.373813 -247.709071 
L 581.295294 -245.169992 
L 581.234944 -242.630913 
L 581.207085 -240.091835 
L 581.226185 -237.552756 
L 581.306289 -235.013677 
L 581.460455 -232.474598 
L 581.700225 -229.935519 
L 582.035132 -227.39644 
L 582.472262 -224.857362 
L 583.015884 -222.318283 
L 583.667146 -219.779204 
L 584.42387 -217.240125 
L 585.280433 -214.701046 
L 586.227765 -212.161967 
L 587.253458 -209.622888 
L 588.342014 -207.08381 
L 589.475213 -204.544731 
L 590.632624 -202.005652 
L 591.792242 -199.466573 
L 592.931247 -196.927494 
L 594.026871 -194.388415 
L 595.057353 -191.849337 
L 596.002956 -189.310258 
L 596.84701 -186.771179 
L 597.576944 -184.2321 
L 598.185256 -181.693021 
L 598.670365 -179.153942 
L 599.037292 -176.614863 
L 599.298091 -174.075785 
L 599.471995 -171.536706 
L 599.585203 -168.997627 
L 599.670282 -166.458548 
L 599.765164 -163.919469 
L 599.911742 -161.38039 
L 600.154103 -158.841312 
L 600.536448 -156.302233 
L 601.100797 -153.763154 
L 601.884578 -151.224075 
L 602.918234 -148.684996 
L 604.222963 -146.145917 
L 605.808743 -143.606838 
L 607.67275 -141.06776 
L 609.798294 -138.528681 
L 612.154353 -135.989602 
L 614.695783 -133.450523 
L 617.364233 -130.911444 
L 620.089781 -128.372365 
L 622.793254 -125.833287 
L 625.389172 -123.294208 
L 627.789203 -120.755129 
L 629.905996 -118.21605 
L 631.657186 -115.676971 
L 632.969388 -113.137892 
L 633.781914 -110.598813 
L 634.05 -108.059735 
L 633.747301 -105.520656 
L 632.867468 -102.981577 
L 631.424671 -100.442498 
L 629.452994 -97.903419 
L 627.004718 -95.36434 
L 624.14761 -92.825262 
L 620.961371 -90.286183 
L 617.533522 -87.747104 
L 613.955001 -85.208025 
L 610.315792 -82.668946 
L 606.700872 -80.129867 
L 603.186753 -77.590788 
L 599.838786 -75.05171 
L 596.709374 -72.512631 
L 593.837106 -69.973552 
L 591.246783 -67.434473 
L 588.950224 -64.895394 
L 586.947684 -62.356315 
L 585.229713 -59.817237 
L 583.779253 -57.278158 
L 582.573784 -54.739079 
L 581.58738 -52.2 
z
" style="stroke: #3d3d3d; stroke-width: 1.25"/>
    </defs>
    <g clip-path="url(#p26ee489d12)">
     <use xlink:href="#m5e6250eea3" x="0" y="360" style="fill: #c03d3e; stroke: #3d3d3d; stroke-width: 1.25"/>
    </g>
   </g>
   <g id="matplotlib.axis_1">
    <g id="xtick_1">
     <g id="line2d_1">
      <defs>
       <path id="ma991179a78" d="M 0 0 
L 0 3.5 
" style="stroke: #000000; stroke-width: 0.8"/>
      </defs>
      <g>
       <use xlink:href="#ma991179a78" x="159.75" y="320.4" style="stroke: #000000; stroke-width: 0.8"/>
      </g>
     </g>
     <g id="text_1">
      <!-- Spurious -->
      <g transform="translate(137.955469 334.998438) scale(0.1 -0.1)">
       <defs>
        <path id="DejaVuSans-53" d="M 3425 4513 
L 3425 3897 
Q 3066 4069 2747 4153 
Q 2428 4238 2131 4238 
Q 1616 4238 1336 4038 
Q 1056 3838 1056 3469 
Q 1056 3159 1242 3001 
Q 1428 2844 1947 2747 
L 2328 2669 
Q 3034 2534 3370 2195 
Q 3706 1856 3706 1288 
Q 3706 609 3251 259 
Q 2797 -91 1919 -91 
Q 1588 -91 1214 -16 
Q 841 59 441 206 
L 441 856 
Q 825 641 1194 531 
Q 1563 422 1919 422 
Q 2459 422 2753 634 
Q 3047 847 3047 1241 
Q 3047 1584 2836 1778 
Q 2625 1972 2144 2069 
L 1759 2144 
Q 1053 2284 737 2584 
Q 422 2884 422 3419 
Q 422 4038 858 4394 
Q 1294 4750 2059 4750 
Q 2388 4750 2728 4690 
Q 3069 4631 3425 4513 
z
" transform="scale(0.015625)"/>
        <path id="DejaVuSans-70" d="M 1159 525 
L 1159 -1331 
L 581 -1331 
L 581 3500 
L 1159 3500 
L 1159 2969 
Q 1341 3281 1617 3432 
Q 1894 3584 2278 3584 
Q 2916 3584 3314 3078 
Q 3713 2572 3713 1747 
Q 3713 922 3314 415 
Q 2916 -91 2278 -91 
Q 1894 -91 1617 61 
Q 1341 213 1159 525 
z
M 3116 1747 
Q 3116 2381 2855 2742 
Q 2594 3103 2138 3103 
Q 1681 3103 1420 2742 
Q 1159 2381 1159 1747 
Q 1159 1113 1420 752 
Q 1681 391 2138 391 
Q 2594 391 2855 752 
Q 3116 1113 3116 1747 
z
" transform="scale(0.015625)"/>
        <path id="DejaVuSans-75" d="M 544 1381 
L 544 3500 
L 1119 3500 
L 1119 1403 
Q 1119 906 1312 657 
Q 1506 409 1894 409 
Q 2359 409 2629 706 
Q 2900 1003 2900 1516 
L 2900 3500 
L 3475 3500 
L 3475 0 
L 2900 0 
L 2900 538 
Q 2691 219 2414 64 
Q 2138 -91 1772 -91 
Q 1169 -91 856 284 
Q 544 659 544 1381 
z
M 1991 3584 
L 1991 3584 
z
" transform="scale(0.015625)"/>
        <path id="DejaVuSans-72" d="M 2631 2963 
Q 2534 3019 2420 3045 
Q 2306 3072 2169 3072 
Q 1681 3072 1420 2755 
Q 1159 2438 1159 1844 
L 1159 0 
L 581 0 
L 581 3500 
L 1159 3500 
L 1159 2956 
Q 1341 3275 1631 3429 
Q 1922 3584 2338 3584 
Q 2397 3584 2469 3576 
Q 2541 3569 2628 3553 
L 2631 2963 
z
" transform="scale(0.015625)"/>
        <path id="DejaVuSans-69" d="M 603 3500 
L 1178 3500 
L 1178 0 
L 603 0 
L 603 3500 
z
M 603 4863 
L 1178 4863 
L 1178 4134 
L 603 4134 
L 603 4863 
z
" transform="scale(0.015625)"/>
        <path id="DejaVuSans-6f" d="M 1959 3097 
Q 1497 3097 1228 2736 
Q 959 2375 959 1747 
Q 959 1119 1226 758 
Q 1494 397 1959 397 
Q 2419 397 2687 759 
Q 2956 1122 2956 1747 
Q 2956 2369 2687 2733 
Q 2419 3097 1959 3097 
z
M 1959 3584 
Q 2709 3584 3137 3096 
Q 3566 2609 3566 1747 
Q 3566 888 3137 398 
Q 2709 -91 1959 -91 
Q 1206 -91 779 398 
Q 353 888 353 1747 
Q 353 2609 779 3096 
Q 1206 3584 1959 3584 
z
" transform="scale(0.015625)"/>
        <path id="DejaVuSans-73" d="M 2834 3397 
L 2834 2853 
Q 2591 2978 2328 3040 
Q 2066 3103 1784 3103 
Q 1356 3103 1142 2972 
Q 928 2841 928 2578 
Q 928 2378 1081 2264 
Q 1234 2150 1697 2047 
L 1894 2003 
Q 2506 1872 2764 1633 
Q 3022 1394 3022 966 
Q 3022 478 2636 193 
Q 2250 -91 1575 -91 
Q 1294 -91 989 -36 
Q 684 19 347 128 
L 347 722 
Q 666 556 975 473 
Q 1284 391 1588 391 
Q 1994 391 2212 530 
Q 2431 669 2431 922 
Q 2431 1156 2273 1281 
Q 2116 1406 1581 1522 
L 1381 1569 
Q 847 1681 609 1914 
Q 372 2147 372 2553 
Q 372 3047 722 3315 
Q 1072 3584 1716 3584 
Q 2034 3584 2315 3537 
Q 2597 3491 2834 3397 
z
" transform="scale(0.015625)"/>
       </defs>
       <use xlink:href="#DejaVuSans-53"/>
       <use xlink:href="#DejaVuSans-70" transform="translate(63.476562 0)"/>
       <use xlink:href="#DejaVuSans-75" transform="translate(126.953125 0)"/>
       <use xlink:href="#DejaVuSans-72" transform="translate(190.332031 0)"/>
       <use xlink:href="#DejaVuSans-69" transform="translate(231.445312 0)"/>
       <use xlink:href="#DejaVuSans-6f" transform="translate(259.228516 0)"/>
       <use xlink:href="#DejaVuSans-75" transform="translate(320.410156 0)"/>
       <use xlink:href="#DejaVuSans-73" transform="translate(383.789062 0)"/>
      </g>
     </g>
    </g>
    <g id="xtick_2">
     <g id="line2d_2">
      <g>
       <use xlink:href="#ma991179a78" x="299.25" y="320.4" style="stroke: #000000; stroke-width: 0.8"/>
      </g>
     </g>
     <g id="text_2">
      <!-- Specific -->
      <g transform="translate(279.788281 334.998438) scale(0.1 -0.1)">
       <defs>
        <path id="DejaVuSans-65" d="M 3597 1894 
L 3597 1613 
L 953 1613 
Q 991 1019 1311 708 
Q 1631 397 2203 397 
Q 2534 397 2845 478 
Q 3156 559 3463 722 
L 3463 178 
Q 3153 47 2828 -22 
Q 2503 -91 2169 -91 
Q 1331 -91 842 396 
Q 353 884 353 1716 
Q 353 2575 817 3079 
Q 1281 3584 2069 3584 
Q 2775 3584 3186 3129 
Q 3597 2675 3597 1894 
z
M 3022 2063 
Q 3016 2534 2758 2815 
Q 2500 3097 2075 3097 
Q 1594 3097 1305 2825 
Q 1016 2553 972 2059 
L 3022 2063 
z
" transform="scale(0.015625)"/>
        <path id="DejaVuSans-63" d="M 3122 3366 
L 3122 2828 
Q 2878 2963 2633 3030 
Q 2388 3097 2138 3097 
Q 1578 3097 1268 2742 
Q 959 2388 959 1747 
Q 959 1106 1268 751 
Q 1578 397 2138 397 
Q 2388 397 2633 464 
Q 2878 531 3122 666 
L 3122 134 
Q 2881 22 2623 -34 
Q 2366 -91 2075 -91 
Q 1284 -91 818 406 
Q 353 903 353 1747 
Q 353 2603 823 3093 
Q 1294 3584 2113 3584 
Q 2378 3584 2631 3529 
Q 2884 3475 3122 3366 
z
" transform="scale(0.015625)"/>
        <path id="DejaVuSans-66" d="M 2375 4863 
L 2375 4384 
L 1825 4384 
Q 1516 4384 1395 4259 
Q 1275 4134 1275 3809 
L 1275 3500 
L 2222 3500 
L 2222 3053 
L 1275 3053 
L 1275 0 
L 697 0 
L 697 3053 
L 147 3053 
L 147 3500 
L 697 3500 
L 697 3744 
Q 697 4328 969 4595 
Q 1241 4863 1831 4863 
L 2375 4863 
z
" transform="scale(0.015625)"/>
       </defs>
       <use xlink:href="#DejaVuSans-53"/>
       <use xlink:href="#DejaVuSans-70" transform="translate(63.476562 0)"/>
       <use xlink:href="#DejaVuSans-65" transform="translate(126.953125 0)"/>
       <use xlink:href="#DejaVuSans-63" transform="translate(188.476562 0)"/>
       <use xlink:href="#DejaVuSans-69" transform="translate(243.457031 0)"/>
       <use xlink:href="#DejaVuSans-66" transform="translate(271.240234 0)"/>
       <use xlink:href="#DejaVuSans-69" transform="translate(306.445312 0)"/>
       <use xlink:href="#DejaVuSans-63" transform="translate(334.228516 0)"/>
      </g>
     </g>
    </g>
    <g id="xtick_3">
     <g id="line2d_3">
      <g>
       <use xlink:href="#ma991179a78" x="438.75" y="320.4" style="stroke: #000000; stroke-width: 0.8"/>
      </g>
     </g>
     <g id="text_3">
      <!-- Non-specific -->
      <g transform="translate(408.085156 334.998438) scale(0.1 -0.1)">
       <defs>
        <path id="DejaVuSans-4e" d="M 628 4666 
L 1478 4666 
L 3547 763 
L 3547 4666 
L 4159 4666 
L 4159 0 
L 3309 0 
L 1241 3903 
L 1241 0 
L 628 0 
L 628 4666 
z
" transform="scale(0.015625)"/>
        <path id="DejaVuSans-6e" d="M 3513 2113 
L 3513 0 
L 2938 0 
L 2938 2094 
Q 2938 2591 2744 2837 
Q 2550 3084 2163 3084 
Q 1697 3084 1428 2787 
Q 1159 2491 1159 1978 
L 1159 0 
L 581 0 
L 581 3500 
L 1159 3500 
L 1159 2956 
Q 1366 3272 1645 3428 
Q 1925 3584 2291 3584 
Q 2894 3584 3203 3211 
Q 3513 2838 3513 2113 
z
" transform="scale(0.015625)"/>
        <path id="DejaVuSans-2d" d="M 313 2009 
L 1997 2009 
L 1997 1497 
L 313 1497 
L 313 2009 
z
" transform="scale(0.015625)"/>
       </defs>
       <use xlink:href="#DejaVuSans-4e"/>
       <use xlink:href="#DejaVuSans-6f" transform="translate(74.804688 0)"/>
       <use xlink:href="#DejaVuSans-6e" transform="translate(135.986328 0)"/>
       <use xlink:href="#DejaVuSans-2d" transform="translate(199.365234 0)"/>
       <use xlink:href="#DejaVuSans-73" transform="translate(235.449219 0)"/>
       <use xlink:href="#DejaVuSans-70" transform="translate(287.548828 0)"/>
       <use xlink:href="#DejaVuSans-65" transform="translate(351.025391 0)"/>
       <use xlink:href="#DejaVuSans-63" transform="translate(412.548828 0)"/>
       <use xlink:href="#DejaVuSans-69" transform="translate(467.529297 0)"/>
       <use xlink:href="#DejaVuSans-66" transform="translate(495.3125 0)"/>
       <use xlink:href="#DejaVuSans-69" transform="translate(530.517578 0)"/>
       <use xlink:href="#DejaVuSans-63" transform="translate(558.300781 0)"/>
      </g>
     </g>
    </g>
    <g id="xtick_4">
     <g id="line2d_4">
      <g>
       <use xlink:href="#ma991179a78" x="578.25" y="320.4" style="stroke: #000000; stroke-width: 0.8"/>
      </g>
     </g>
     <g id="text_4">
      <!-- No -->
      <g transform="translate(571.45 334.998438) scale(0.1 -0.1)">
       <use xlink:href="#DejaVuSans-4e"/>
       <use xlink:href="#DejaVuSans-6f" transform="translate(74.804688 0)"/>
      </g>
     </g>
    </g>
    <g id="text_5">
     <!-- Connectivity category -->
     <g transform="translate(313.98125 348.676562) scale(0.1 -0.1)">
      <defs>
       <path id="DejaVuSans-43" d="M 4122 4306 
L 4122 3641 
Q 3803 3938 3442 4084 
Q 3081 4231 2675 4231 
Q 1875 4231 1450 3742 
Q 1025 3253 1025 2328 
Q 1025 1406 1450 917 
Q 1875 428 2675 428 
Q 3081 428 3442 575 
Q 3803 722 4122 1019 
L 4122 359 
Q 3791 134 3420 21 
Q 3050 -91 2638 -91 
Q 1578 -91 968 557 
Q 359 1206 359 2328 
Q 359 3453 968 4101 
Q 1578 4750 2638 4750 
Q 3056 4750 3426 4639 
Q 3797 4528 4122 4306 
z
" transform="scale(0.015625)"/>
       <path id="DejaVuSans-74" d="M 1172 4494 
L 1172 3500 
L 2356 3500 
L 2356 3053 
L 1172 3053 
L 1172 1153 
Q 1172 725 1289 603 
Q 1406 481 1766 481 
L 2356 481 
L 2356 0 
L 1766 0 
Q 1100 0 847 248 
Q 594 497 594 1153 
L 594 3053 
L 172 3053 
L 172 3500 
L 594 3500 
L 594 4494 
L 1172 4494 
z
" transform="scale(0.015625)"/>
       <path id="DejaVuSans-76" d="M 191 3500 
L 800 3500 
L 1894 563 
L 2988 3500 
L 3597 3500 
L 2284 0 
L 1503 0 
L 191 3500 
z
" transform="scale(0.015625)"/>
       <path id="DejaVuSans-79" d="M 2059 -325 
Q 1816 -950 1584 -1140 
Q 1353 -1331 966 -1331 
L 506 -1331 
L 506 -850 
L 844 -850 
Q 1081 -850 1212 -737 
Q 1344 -625 1503 -206 
L 1606 56 
L 191 3500 
L 800 3500 
L 1894 763 
L 2988 3500 
L 3597 3500 
L 2059 -325 
z
" transform="scale(0.015625)"/>
       <path id="DejaVuSans-20" transform="scale(0.015625)"/>
       <path id="DejaVuSans-61" d="M 2194 1759 
Q 1497 1759 1228 1600 
Q 959 1441 959 1056 
Q 959 750 1161 570 
Q 1363 391 1709 391 
Q 2188 391 2477 730 
Q 2766 1069 2766 1631 
L 2766 1759 
L 2194 1759 
z
M 3341 1997 
L 3341 0 
L 2766 0 
L 2766 531 
Q 2569 213 2275 61 
Q 1981 -91 1556 -91 
Q 1019 -91 701 211 
Q 384 513 384 1019 
Q 384 1609 779 1909 
Q 1175 2209 1959 2209 
L 2766 2209 
L 2766 2266 
Q 2766 2663 2505 2880 
Q 2244 3097 1772 3097 
Q 1472 3097 1187 3025 
Q 903 2953 641 2809 
L 641 3341 
Q 956 3463 1253 3523 
Q 1550 3584 1831 3584 
Q 2591 3584 2966 3190 
Q 3341 2797 3341 1997 
z
" transform="scale(0.015625)"/>
       <path id="DejaVuSans-67" d="M 2906 1791 
Q 2906 2416 2648 2759 
Q 2391 3103 1925 3103 
Q 1463 3103 1205 2759 
Q 947 2416 947 1791 
Q 947 1169 1205 825 
Q 1463 481 1925 481 
Q 2391 481 2648 825 
Q 2906 1169 2906 1791 
z
M 3481 434 
Q 3481 -459 3084 -895 
Q 2688 -1331 1869 -1331 
Q 1566 -1331 1297 -1286 
Q 1028 -1241 775 -1147 
L 775 -588 
Q 1028 -725 1275 -790 
Q 1522 -856 1778 -856 
Q 2344 -856 2625 -561 
Q 2906 -266 2906 331 
L 2906 616 
Q 2728 306 2450 153 
Q 2172 0 1784 0 
Q 1141 0 747 490 
Q 353 981 353 1791 
Q 353 2603 747 3093 
Q 1141 3584 1784 3584 
Q 2172 3584 2450 3431 
Q 2728 3278 2906 2969 
L 2906 3500 
L 3481 3500 
L 3481 434 
z
" transform="scale(0.015625)"/>
      </defs>
      <use xlink:href="#DejaVuSans-43"/>
      <use xlink:href="#DejaVuSans-6f" transform="translate(69.824219 0)"/>
      <use xlink:href="#DejaVuSans-6e" transform="translate(131.005859 0)"/>
      <use xlink:href="#DejaVuSans-6e" transform="translate(194.384766 0)"/>
      <use xlink:href="#DejaVuSans-65" transform="translate(257.763672 0)"/>
      <use xlink:href="#DejaVuSans-63" transform="translate(319.287109 0)"/>
      <use xlink:href="#DejaVuSans-74" transform="translate(374.267578 0)"/>
      <use xlink:href="#DejaVuSans-69" transform="translate(413.476562 0)"/>
      <use xlink:href="#DejaVuSans-76" transform="translate(441.259766 0)"/>
      <use xlink:href="#DejaVuSans-69" transform="translate(500.439453 0)"/>
      <use xlink:href="#DejaVuSans-74" transform="translate(528.222656 0)"/>
      <use xlink:href="#DejaVuSans-79" transform="translate(567.431641 0)"/>
      <use xlink:href="#DejaVuSans-20" transform="translate(626.611328 0)"/>
      <use xlink:href="#DejaVuSans-63" transform="translate(658.398438 0)"/>
      <use xlink:href="#DejaVuSans-61" transform="translate(713.378906 0)"/>
      <use xlink:href="#DejaVuSans-74" transform="translate(774.658203 0)"/>
      <use xlink:href="#DejaVuSans-65" transform="translate(813.867188 0)"/>
      <use xlink:href="#DejaVuSans-67" transform="translate(875.390625 0)"/>
      <use xlink:href="#DejaVuSans-6f" transform="translate(938.867188 0)"/>
      <use xlink:href="#DejaVuSans-72" transform="translate(1000.048828 0)"/>
      <use xlink:href="#DejaVuSans-79" transform="translate(1041.162109 0)"/>
     </g>
    </g>
   </g>
   <g id="matplotlib.axis_2">
    <g id="ytick_1">
     <g id="line2d_5">
      <defs>
       <path id="me6d86676aa" d="M 0 0 
L -3.5 0 
" style="stroke: #000000; stroke-width: 0.8"/>
      </defs>
      <g>
       <use xlink:href="#me6d86676aa" x="90" y="319.646321" style="stroke: #000000; stroke-width: 0.8"/>
      </g>
     </g>
     <g id="text_6">
      <!-- −0.5 -->
      <g transform="translate(58.717187 323.44554) scale(0.1 -0.1)">
       <defs>
        <path id="DejaVuSans-2212" d="M 678 2272 
L 4684 2272 
L 4684 1741 
L 678 1741 
L 678 2272 
z
" transform="scale(0.015625)"/>
        <path id="DejaVuSans-30" d="M 2034 4250 
Q 1547 4250 1301 3770 
Q 1056 3291 1056 2328 
Q 1056 1369 1301 889 
Q 1547 409 2034 409 
Q 2525 409 2770 889 
Q 3016 1369 3016 2328 
Q 3016 3291 2770 3770 
Q 2525 4250 2034 4250 
z
M 2034 4750 
Q 2819 4750 3233 4129 
Q 3647 3509 3647 2328 
Q 3647 1150 3233 529 
Q 2819 -91 2034 -91 
Q 1250 -91 836 529 
Q 422 1150 422 2328 
Q 422 3509 836 4129 
Q 1250 4750 2034 4750 
z
" transform="scale(0.015625)"/>
        <path id="DejaVuSans-2e" d="M 684 794 
L 1344 794 
L 1344 0 
L 684 0 
L 684 794 
z
" transform="scale(0.015625)"/>
        <path id="DejaVuSans-35" d="M 691 4666 
L 3169 4666 
L 3169 4134 
L 1269 4134 
L 1269 2991 
Q 1406 3038 1543 3061 
Q 1681 3084 1819 3084 
Q 2600 3084 3056 2656 
Q 3513 2228 3513 1497 
Q 3513 744 3044 326 
Q 2575 -91 1722 -91 
Q 1428 -91 1123 -41 
Q 819 9 494 109 
L 494 744 
Q 775 591 1075 516 
Q 1375 441 1709 441 
Q 2250 441 2565 725 
Q 2881 1009 2881 1497 
Q 2881 1984 2565 2268 
Q 2250 2553 1709 2553 
Q 1456 2553 1204 2497 
Q 953 2441 691 2322 
L 691 4666 
z
" transform="scale(0.015625)"/>
       </defs>
       <use xlink:href="#DejaVuSans-2212"/>
       <use xlink:href="#DejaVuSans-30" transform="translate(83.789062 0)"/>
       <use xlink:href="#DejaVuSans-2e" transform="translate(147.412109 0)"/>
       <use xlink:href="#DejaVuSans-35" transform="translate(179.199219 0)"/>
      </g>
     </g>
    </g>
    <g id="ytick_2">
     <g id="line2d_6">
      <g>
       <use xlink:href="#me6d86676aa" x="90" y="267.507319" style="stroke: #000000; stroke-width: 0.8"/>
      </g>
     </g>
     <g id="text_7">
      <!-- 0.0 -->
      <g transform="translate(67.096875 271.306538) scale(0.1 -0.1)">
       <use xlink:href="#DejaVuSans-30"/>
       <use xlink:href="#DejaVuSans-2e" transform="translate(63.623047 0)"/>
       <use xlink:href="#DejaVuSans-30" transform="translate(95.410156 0)"/>
      </g>
     </g>
    </g>
    <g id="ytick_3">
     <g id="line2d_7">
      <g>
       <use xlink:href="#me6d86676aa" x="90" y="215.368317" style="stroke: #000000; stroke-width: 0.8"/>
      </g>
     </g>
     <g id="text_8">
      <!-- 0.5 -->
      <g transform="translate(67.096875 219.167535) scale(0.1 -0.1)">
       <use xlink:href="#DejaVuSans-30"/>
       <use xlink:href="#DejaVuSans-2e" transform="translate(63.623047 0)"/>
       <use xlink:href="#DejaVuSans-35" transform="translate(95.410156 0)"/>
      </g>
     </g>
    </g>
    <g id="ytick_4">
     <g id="line2d_8">
      <g>
       <use xlink:href="#me6d86676aa" x="90" y="163.229314" style="stroke: #000000; stroke-width: 0.8"/>
      </g>
     </g>
     <g id="text_9">
      <!-- 1.0 -->
      <g transform="translate(67.096875 167.028533) scale(0.1 -0.1)">
       <defs>
        <path id="DejaVuSans-31" d="M 794 531 
L 1825 531 
L 1825 4091 
L 703 3866 
L 703 4441 
L 1819 4666 
L 2450 4666 
L 2450 531 
L 3481 531 
L 3481 0 
L 794 0 
L 794 531 
z
" transform="scale(0.015625)"/>
       </defs>
       <use xlink:href="#DejaVuSans-31"/>
       <use xlink:href="#DejaVuSans-2e" transform="translate(63.623047 0)"/>
       <use xlink:href="#DejaVuSans-30" transform="translate(95.410156 0)"/>
      </g>
     </g>
    </g>
    <g id="ytick_5">
     <g id="line2d_9">
      <g>
       <use xlink:href="#me6d86676aa" x="90" y="111.090312" style="stroke: #000000; stroke-width: 0.8"/>
      </g>
     </g>
     <g id="text_10">
      <!-- 1.5 -->
      <g transform="translate(67.096875 114.88953) scale(0.1 -0.1)">
       <use xlink:href="#DejaVuSans-31"/>
       <use xlink:href="#DejaVuSans-2e" transform="translate(63.623047 0)"/>
       <use xlink:href="#DejaVuSans-35" transform="translate(95.410156 0)"/>
      </g>
     </g>
    </g>
    <g id="ytick_6">
     <g id="line2d_10">
      <g>
       <use xlink:href="#me6d86676aa" x="90" y="58.951309" style="stroke: #000000; stroke-width: 0.8"/>
      </g>
     </g>
     <g id="text_11">
      <!-- 2.0 -->
      <g transform="translate(67.096875 62.750528) scale(0.1 -0.1)">
       <defs>
        <path id="DejaVuSans-32" d="M 1228 531 
L 3431 531 
L 3431 0 
L 469 0 
L 469 531 
Q 828 903 1448 1529 
Q 2069 2156 2228 2338 
Q 2531 2678 2651 2914 
Q 2772 3150 2772 3378 
Q 2772 3750 2511 3984 
Q 2250 4219 1831 4219 
Q 1534 4219 1204 4116 
Q 875 4013 500 3803 
L 500 4441 
Q 881 4594 1212 4672 
Q 1544 4750 1819 4750 
Q 2544 4750 2975 4387 
Q 3406 4025 3406 3419 
Q 3406 3131 3298 2873 
Q 3191 2616 2906 2266 
Q 2828 2175 2409 1742 
Q 1991 1309 1228 531 
z
" transform="scale(0.015625)"/>
       </defs>
       <use xlink:href="#DejaVuSans-32"/>
       <use xlink:href="#DejaVuSans-2e" transform="translate(63.623047 0)"/>
       <use xlink:href="#DejaVuSans-30" transform="translate(95.410156 0)"/>
      </g>
     </g>
    </g>
    <g id="text_12">
     <!-- cont_variable -->
     <g transform="translate(52.359375 215.409375) rotate(-90) scale(0.1 -0.1)">
      <defs>
       <path id="DejaVuSans-5f" d="M 3263 -1063 
L 3263 -1509 
L -63 -1509 
L -63 -1063 
L 3263 -1063 
z
" transform="scale(0.015625)"/>
       <path id="DejaVuSans-62" d="M 3116 1747 
Q 3116 2381 2855 2742 
Q 2594 3103 2138 3103 
Q 1681 3103 1420 2742 
Q 1159 2381 1159 1747 
Q 1159 1113 1420 752 
Q 1681 391 2138 391 
Q 2594 391 2855 752 
Q 3116 1113 3116 1747 
z
M 1159 2969 
Q 1341 3281 1617 3432 
Q 1894 3584 2278 3584 
Q 2916 3584 3314 3078 
Q 3713 2572 3713 1747 
Q 3713 922 3314 415 
Q 2916 -91 2278 -91 
Q 1894 -91 1617 61 
Q 1341 213 1159 525 
L 1159 0 
L 581 0 
L 581 4863 
L 1159 4863 
L 1159 2969 
z
" transform="scale(0.015625)"/>
       <path id="DejaVuSans-6c" d="M 603 4863 
L 1178 4863 
L 1178 0 
L 603 0 
L 603 4863 
z
" transform="scale(0.015625)"/>
      </defs>
      <use xlink:href="#DejaVuSans-63"/>
      <use xlink:href="#DejaVuSans-6f" transform="translate(54.980469 0)"/>
      <use xlink:href="#DejaVuSans-6e" transform="translate(116.162109 0)"/>
      <use xlink:href="#DejaVuSans-74" transform="translate(179.541016 0)"/>
      <use xlink:href="#DejaVuSans-5f" transform="translate(218.75 0)"/>
      <use xlink:href="#DejaVuSans-76" transform="translate(268.75 0)"/>
      <use xlink:href="#DejaVuSans-61" transform="translate(327.929688 0)"/>
      <use xlink:href="#DejaVuSans-72" transform="translate(389.208984 0)"/>
      <use xlink:href="#DejaVuSans-69" transform="translate(430.322266 0)"/>
      <use xlink:href="#DejaVuSans-61" transform="translate(458.105469 0)"/>
      <use xlink:href="#DejaVuSans-62" transform="translate(519.384766 0)"/>
      <use xlink:href="#DejaVuSans-6c" transform="translate(582.861328 0)"/>
      <use xlink:href="#DejaVuSans-65" transform="translate(610.644531 0)"/>
     </g>
    </g>
   </g>
   <g id="patch_3">
    <path d="M 90 320.4 
L 90 43.2 
" style="fill: none; stroke: #000000; stroke-width: 0.8; stroke-linejoin: miter; stroke-linecap: square"/>
   </g>
   <g id="patch_4">
    <path d="M 648 320.4 
L 648 43.2 
" style="fill: none; stroke: #000000; stroke-width: 0.8; stroke-linejoin: miter; stroke-linecap: square"/>
   </g>
   <g id="patch_5">
    <path d="M 90 320.4 
L 648 320.4 
" style="fill: none; stroke: #000000; stroke-width: 0.8; stroke-linejoin: miter; stroke-linecap: square"/>
   </g>
   <g id="patch_6">
    <path d="M 90 43.2 
L 648 43.2 
" style="fill: none; stroke: #000000; stroke-width: 0.8; stroke-linejoin: miter; stroke-linecap: square"/>
   </g>
   <g id="PathCollection_1">
    <defs>
     <path id="m953fb5388f" d="M 0 2.5 
C 0.663008 2.5 1.29895 2.236584 1.767767 1.767767 
C 2.236584 1.29895 2.5 0.663008 2.5 0 
C 2.5 -0.663008 2.236584 -1.29895 1.767767 -1.767767 
C 1.29895 -2.236584 0.663008 -2.5 0 -2.5 
C -0.663008 -2.5 -1.29895 -2.236584 -1.767767 -1.767767 
C -2.236584 -1.29895 -2.5 -0.663008 -2.5 0 
C -2.5 0.663008 -2.236584 1.29895 -1.767767 1.767767 
C -1.29895 2.236584 -0.663008 2.5 0 2.5 
z
"/>
    </defs>
    <g clip-path="url(#p26ee489d12)">
     <use xlink:href="#m953fb5388f" x="155.571939" y="257.994828" style="fill-opacity: 0.3"/>
     <use xlink:href="#m953fb5388f" x="155.285345" y="170.379954" style="fill-opacity: 0.3"/>
     <use xlink:href="#m953fb5388f" x="169.251221" y="96.9065" style="fill-opacity: 0.3"/>
     <use xlink:href="#m953fb5388f" x="163.534667" y="167.613936" style="fill-opacity: 0.3"/>
     <use xlink:href="#m953fb5388f" x="168.844862" y="238.77831" style="fill-opacity: 0.3"/>
     <use xlink:href="#m953fb5388f" x="170.371405" y="226.271956" style="fill-opacity: 0.3"/>
     <use xlink:href="#m953fb5388f" x="146.531292" y="250.645063" style="fill-opacity: 0.3"/>
     <use xlink:href="#m953fb5388f" x="158.022894" y="253.210328" style="fill-opacity: 0.3"/>
     <use xlink:href="#m953fb5388f" x="151.367961" y="251.850744" style="fill-opacity: 0.3"/>
     <use xlink:href="#m953fb5388f" x="149.059289" y="148.004159" style="fill-opacity: 0.3"/>
     <use xlink:href="#m953fb5388f" x="170.672843" y="265.970233" style="fill-opacity: 0.3"/>
     <use xlink:href="#m953fb5388f" x="164.806903" y="265.56702" style="fill-opacity: 0.3"/>
     <use xlink:href="#m953fb5388f" x="162.212094" y="264.26171" style="fill-opacity: 0.3"/>
     <use xlink:href="#m953fb5388f" x="169.417624" y="264.632655" style="fill-opacity: 0.3"/>
     <use xlink:href="#m953fb5388f" x="163.612816" y="265.060472" style="fill-opacity: 0.3"/>
     <use xlink:href="#m953fb5388f" x="167.343803" y="222.740218" style="fill-opacity: 0.3"/>
     <use xlink:href="#m953fb5388f" x="164.328627" y="144.007722" style="fill-opacity: 0.3"/>
     <use xlink:href="#m953fb5388f" x="169.199214" y="142.108635" style="fill-opacity: 0.3"/>
     <use xlink:href="#m953fb5388f" x="165.409876" y="153.10026" style="fill-opacity: 0.3"/>
     <use xlink:href="#m953fb5388f" x="148.936902" y="213.447162" style="fill-opacity: 0.3"/>
     <use xlink:href="#m953fb5388f" x="169.012726" y="197.86152" style="fill-opacity: 0.3"/>
     <use xlink:href="#m953fb5388f" x="171.764776" y="222.288483" style="fill-opacity: 0.3"/>
     <use xlink:href="#m953fb5388f" x="149.056219" y="246.876261" style="fill-opacity: 0.3"/>
     <use xlink:href="#m953fb5388f" x="163.76583" y="240.875812" style="fill-opacity: 0.3"/>
     <use xlink:href="#m953fb5388f" x="153.320766" y="250.103591" style="fill-opacity: 0.3"/>
     <use xlink:href="#m953fb5388f" x="157.077448" y="246.394661" style="fill-opacity: 0.3"/>
     <use xlink:href="#m953fb5388f" x="167.845245" y="246.117295" style="fill-opacity: 0.3"/>
     <use xlink:href="#m953fb5388f" x="150.480563" y="256.644879" style="fill-opacity: 0.3"/>
     <use xlink:href="#m953fb5388f" x="168.79371" y="262.349284" style="fill-opacity: 0.3"/>
     <use xlink:href="#m953fb5388f" x="152.675811" y="263.094391" style="fill-opacity: 0.3"/>
     <use xlink:href="#m953fb5388f" x="157.897795" y="259.392195" style="fill-opacity: 0.3"/>
     <use xlink:href="#m953fb5388f" x="158.749432" y="256.340904" style="fill-opacity: 0.3"/>
     <use xlink:href="#m953fb5388f" x="164.997399" y="257.29688" style="fill-opacity: 0.3"/>
     <use xlink:href="#m953fb5388f" x="172.875924" y="255.303149" style="fill-opacity: 0.3"/>
     <use xlink:href="#m953fb5388f" x="172.703817" y="175.975257" style="fill-opacity: 0.3"/>
     <use xlink:href="#m953fb5388f" x="170.94637" y="120.026744" style="fill-opacity: 0.3"/>
     <use xlink:href="#m953fb5388f" x="151.335046" y="244.674023" style="fill-opacity: 0.3"/>
     <use xlink:href="#m953fb5388f" x="155.488754" y="247.215116" style="fill-opacity: 0.3"/>
     <use xlink:href="#m953fb5388f" x="173.321337" y="119.66524" style="fill-opacity: 0.3"/>
     <use xlink:href="#m953fb5388f" x="150.409131" y="184.21634" style="fill-opacity: 0.3"/>
     <use xlink:href="#m953fb5388f" x="162.643238" y="235.672177" style="fill-opacity: 0.3"/>
     <use xlink:href="#m953fb5388f" x="155.112141" y="196.701025" style="fill-opacity: 0.3"/>
     <use xlink:href="#m953fb5388f" x="159.311736" y="171.583575" style="fill-opacity: 0.3"/>
     <use xlink:href="#m953fb5388f" x="160.767226" y="220.143871" style="fill-opacity: 0.3"/>
     <use xlink:href="#m953fb5388f" x="170.91312" y="188.791334" style="fill-opacity: 0.3"/>
     <use xlink:href="#m953fb5388f" x="151.790287" y="230.087032" style="fill-opacity: 0.3"/>
     <use xlink:href="#m953fb5388f" x="149.78277" y="178.535484" style="fill-opacity: 0.3"/>
     <use xlink:href="#m953fb5388f" x="149.150188" y="216.798436" style="fill-opacity: 0.3"/>
     <use xlink:href="#m953fb5388f" x="161.157362" y="211.435497" style="fill-opacity: 0.3"/>
     <use xlink:href="#m953fb5388f" x="164.109453" y="190.735987" style="fill-opacity: 0.3"/>
     <use xlink:href="#m953fb5388f" x="164.903744" y="190.227192" style="fill-opacity: 0.3"/>
     <use xlink:href="#m953fb5388f" x="166.040449" y="141.459576" style="fill-opacity: 0.3"/>
     <use xlink:href="#m953fb5388f" x="163.53895" y="218.948248" style="fill-opacity: 0.3"/>
     <use xlink:href="#m953fb5388f" x="147.773186" y="174.192892" style="fill-opacity: 0.3"/>
    </g>
   </g>
   <g id="PathCollection_2">
    <g clip-path="url(#p26ee489d12)">
     <use xlink:href="#m953fb5388f" x="310.609673" y="249.63748" style="fill-opacity: 0.3"/>
     <use xlink:href="#m953fb5388f" x="312.906557" y="258.696101" style="fill-opacity: 0.3"/>
     <use xlink:href="#m953fb5388f" x="307.886423" y="255.269698" style="fill-opacity: 0.3"/>
     <use xlink:href="#m953fb5388f" x="285.473358" y="253.622876" style="fill-opacity: 0.3"/>
     <use xlink:href="#m953fb5388f" x="287.666354" y="258.604054" style="fill-opacity: 0.3"/>
     <use xlink:href="#m953fb5388f" x="299.463212" y="257.54033" style="fill-opacity: 0.3"/>
     <use xlink:href="#m953fb5388f" x="291.887526" y="258.858438" style="fill-opacity: 0.3"/>
     <use xlink:href="#m953fb5388f" x="290.090901" y="256.688168" style="fill-opacity: 0.3"/>
     <use xlink:href="#m953fb5388f" x="303.872395" y="258.297343" style="fill-opacity: 0.3"/>
     <use xlink:href="#m953fb5388f" x="292.176353" y="260.783612" style="fill-opacity: 0.3"/>
     <use xlink:href="#m953fb5388f" x="301.149356" y="214.546512" style="fill-opacity: 0.3"/>
     <use xlink:href="#m953fb5388f" x="288.064869" y="238.350162" style="fill-opacity: 0.3"/>
     <use xlink:href="#m953fb5388f" x="296.92597" y="221.845825" style="fill-opacity: 0.3"/>
     <use xlink:href="#m953fb5388f" x="287.195162" y="218.027394" style="fill-opacity: 0.3"/>
     <use xlink:href="#m953fb5388f" x="311.622568" y="217.103006" style="fill-opacity: 0.3"/>
     <use xlink:href="#m953fb5388f" x="292.602919" y="235.529935" style="fill-opacity: 0.3"/>
     <use xlink:href="#m953fb5388f" x="307.427249" y="243.895186" style="fill-opacity: 0.3"/>
     <use xlink:href="#m953fb5388f" x="295.369383" y="241.809402" style="fill-opacity: 0.3"/>
     <use xlink:href="#m953fb5388f" x="310.531703" y="215.673766" style="fill-opacity: 0.3"/>
     <use xlink:href="#m953fb5388f" x="293.755097" y="224.107375" style="fill-opacity: 0.3"/>
     <use xlink:href="#m953fb5388f" x="303.380132" y="229.181294" style="fill-opacity: 0.3"/>
     <use xlink:href="#m953fb5388f" x="310.627347" y="239.999237" style="fill-opacity: 0.3"/>
     <use xlink:href="#m953fb5388f" x="297.389068" y="217.958841" style="fill-opacity: 0.3"/>
     <use xlink:href="#m953fb5388f" x="296.170488" y="234.538047" style="fill-opacity: 0.3"/>
     <use xlink:href="#m953fb5388f" x="310.317712" y="254.773303" style="fill-opacity: 0.3"/>
     <use xlink:href="#m953fb5388f" x="294.001192" y="251.086017" style="fill-opacity: 0.3"/>
     <use xlink:href="#m953fb5388f" x="295.954679" y="248.397567" style="fill-opacity: 0.3"/>
     <use xlink:href="#m953fb5388f" x="308.624513" y="254.407315" style="fill-opacity: 0.3"/>
     <use xlink:href="#m953fb5388f" x="294.666041" y="253.116323" style="fill-opacity: 0.3"/>
     <use xlink:href="#m953fb5388f" x="296.090433" y="258.914759" style="fill-opacity: 0.3"/>
     <use xlink:href="#m953fb5388f" x="303.428962" y="253.842866" style="fill-opacity: 0.3"/>
     <use xlink:href="#m953fb5388f" x="306.949913" y="239.881311" style="fill-opacity: 0.3"/>
     <use xlink:href="#m953fb5388f" x="297.913875" y="252.110106" style="fill-opacity: 0.3"/>
     <use xlink:href="#m953fb5388f" x="298.897451" y="252.944194" style="fill-opacity: 0.3"/>
     <use xlink:href="#m953fb5388f" x="286.736133" y="249.534382" style="fill-opacity: 0.3"/>
     <use xlink:href="#m953fb5388f" x="295.866254" y="259.853864" style="fill-opacity: 0.3"/>
     <use xlink:href="#m953fb5388f" x="295.89389" y="251.583979" style="fill-opacity: 0.3"/>
     <use xlink:href="#m953fb5388f" x="292.44702" y="261.689966" style="fill-opacity: 0.3"/>
     <use xlink:href="#m953fb5388f" x="296.480211" y="254.811544" style="fill-opacity: 0.3"/>
     <use xlink:href="#m953fb5388f" x="292.100692" y="188.008772" style="fill-opacity: 0.3"/>
     <use xlink:href="#m953fb5388f" x="306.593829" y="171.656755" style="fill-opacity: 0.3"/>
     <use xlink:href="#m953fb5388f" x="301.777802" y="162.312871" style="fill-opacity: 0.3"/>
     <use xlink:href="#m953fb5388f" x="300.277461" y="265.098344" style="fill-opacity: 0.3"/>
     <use xlink:href="#m953fb5388f" x="291.498643" y="264.166401" style="fill-opacity: 0.3"/>
     <use xlink:href="#m953fb5388f" x="303.477331" y="222.411244" style="fill-opacity: 0.3"/>
     <use xlink:href="#m953fb5388f" x="294.550158" y="250.913344" style="fill-opacity: 0.3"/>
     <use xlink:href="#m953fb5388f" x="307.512552" y="254.630261" style="fill-opacity: 0.3"/>
     <use xlink:href="#m953fb5388f" x="308.628485" y="233.692716" style="fill-opacity: 0.3"/>
     <use xlink:href="#m953fb5388f" x="297.350805" y="238.253118" style="fill-opacity: 0.3"/>
     <use xlink:href="#m953fb5388f" x="310.146484" y="252.540513" style="fill-opacity: 0.3"/>
     <use xlink:href="#m953fb5388f" x="309.083496" y="252.698683" style="fill-opacity: 0.3"/>
     <use xlink:href="#m953fb5388f" x="310.352097" y="252.807168" style="fill-opacity: 0.3"/>
     <use xlink:href="#m953fb5388f" x="302.299621" y="251.2866" style="fill-opacity: 0.3"/>
     <use xlink:href="#m953fb5388f" x="290.308238" y="250.542282" style="fill-opacity: 0.3"/>
     <use xlink:href="#m953fb5388f" x="285.770275" y="247.860873" style="fill-opacity: 0.3"/>
     <use xlink:href="#m953fb5388f" x="299.916416" y="245.851128" style="fill-opacity: 0.3"/>
     <use xlink:href="#m953fb5388f" x="309.60889" y="242.882284" style="fill-opacity: 0.3"/>
     <use xlink:href="#m953fb5388f" x="291.256795" y="255.690139" style="fill-opacity: 0.3"/>
     <use xlink:href="#m953fb5388f" x="301.965294" y="252.236824" style="fill-opacity: 0.3"/>
     <use xlink:href="#m953fb5388f" x="298.955682" y="254.569509" style="fill-opacity: 0.3"/>
     <use xlink:href="#m953fb5388f" x="294.656901" y="260.6596" style="fill-opacity: 0.3"/>
     <use xlink:href="#m953fb5388f" x="293.750212" y="257.987797" style="fill-opacity: 0.3"/>
     <use xlink:href="#m953fb5388f" x="290.561772" y="256.06655" style="fill-opacity: 0.3"/>
     <use xlink:href="#m953fb5388f" x="309.082919" y="257.012257" style="fill-opacity: 0.3"/>
     <use xlink:href="#m953fb5388f" x="301.541624" y="101.979032" style="fill-opacity: 0.3"/>
     <use xlink:href="#m953fb5388f" x="305.102911" y="245.051884" style="fill-opacity: 0.3"/>
     <use xlink:href="#m953fb5388f" x="301.72865" y="250.016369" style="fill-opacity: 0.3"/>
     <use xlink:href="#m953fb5388f" x="297.446134" y="155.750868" style="fill-opacity: 0.3"/>
     <use xlink:href="#m953fb5388f" x="296.038857" y="226.176118" style="fill-opacity: 0.3"/>
     <use xlink:href="#m953fb5388f" x="286.083945" y="259.058276" style="fill-opacity: 0.3"/>
     <use xlink:href="#m953fb5388f" x="296.479568" y="222.616954" style="fill-opacity: 0.3"/>
     <use xlink:href="#m953fb5388f" x="290.385509" y="234.503245" style="fill-opacity: 0.3"/>
     <use xlink:href="#m953fb5388f" x="304.926421" y="210.291963" style="fill-opacity: 0.3"/>
     <use xlink:href="#m953fb5388f" x="300.943038" y="177.118847" style="fill-opacity: 0.3"/>
     <use xlink:href="#m953fb5388f" x="304.524445" y="252.509268" style="fill-opacity: 0.3"/>
     <use xlink:href="#m953fb5388f" x="301.105091" y="223.532464" style="fill-opacity: 0.3"/>
     <use xlink:href="#m953fb5388f" x="296.14729" y="243.479064" style="fill-opacity: 0.3"/>
     <use xlink:href="#m953fb5388f" x="303.724278" y="201.148565" style="fill-opacity: 0.3"/>
     <use xlink:href="#m953fb5388f" x="286.435702" y="195.82944" style="fill-opacity: 0.3"/>
     <use xlink:href="#m953fb5388f" x="305.534531" y="199.700992" style="fill-opacity: 0.3"/>
     <use xlink:href="#m953fb5388f" x="285.513378" y="256.829882" style="fill-opacity: 0.3"/>
     <use xlink:href="#m953fb5388f" x="294.831002" y="173.531733" style="fill-opacity: 0.3"/>
     <use xlink:href="#m953fb5388f" x="307.923786" y="186.462144" style="fill-opacity: 0.3"/>
     <use xlink:href="#m953fb5388f" x="296.675557" y="227.934657" style="fill-opacity: 0.3"/>
     <use xlink:href="#m953fb5388f" x="290.204826" y="256.950387" style="fill-opacity: 0.3"/>
     <use xlink:href="#m953fb5388f" x="309.027644" y="158.963098" style="fill-opacity: 0.3"/>
     <use xlink:href="#m953fb5388f" x="289.590144" y="252.703996" style="fill-opacity: 0.3"/>
    </g>
   </g>
   <g id="PathCollection_3">
    <g clip-path="url(#p26ee489d12)">
     <use xlink:href="#m953fb5388f" x="426.698467" y="246.787564" style="fill-opacity: 0.3"/>
     <use xlink:href="#m953fb5388f" x="449.694452" y="236.553969" style="fill-opacity: 0.3"/>
     <use xlink:href="#m953fb5388f" x="426.633798" y="258.683753" style="fill-opacity: 0.3"/>
     <use xlink:href="#m953fb5388f" x="435.923851" y="257.403474" style="fill-opacity: 0.3"/>
     <use xlink:href="#m953fb5388f" x="442.51521" y="201.721366" style="fill-opacity: 0.3"/>
     <use xlink:href="#m953fb5388f" x="427.02311" y="216.293204" style="fill-opacity: 0.3"/>
     <use xlink:href="#m953fb5388f" x="440.604219" y="253.673749" style="fill-opacity: 0.3"/>
     <use xlink:href="#m953fb5388f" x="441.577523" y="242.332179" style="fill-opacity: 0.3"/>
     <use xlink:href="#m953fb5388f" x="440.046559" y="170.093611" style="fill-opacity: 0.3"/>
     <use xlink:href="#m953fb5388f" x="428.134628" y="224.566854" style="fill-opacity: 0.3"/>
     <use xlink:href="#m953fb5388f" x="432.274026" y="242.348482" style="fill-opacity: 0.3"/>
     <use xlink:href="#m953fb5388f" x="443.968125" y="238.89869" style="fill-opacity: 0.3"/>
     <use xlink:href="#m953fb5388f" x="446.80202" y="246.568374" style="fill-opacity: 0.3"/>
     <use xlink:href="#m953fb5388f" x="427.192635" y="252.291426" style="fill-opacity: 0.3"/>
     <use xlink:href="#m953fb5388f" x="450.776254" y="251.794502" style="fill-opacity: 0.3"/>
     <use xlink:href="#m953fb5388f" x="447.231764" y="238.642685" style="fill-opacity: 0.3"/>
     <use xlink:href="#m953fb5388f" x="434.882951" y="254.954342" style="fill-opacity: 0.3"/>
     <use xlink:href="#m953fb5388f" x="444.889802" y="245.071485" style="fill-opacity: 0.3"/>
     <use xlink:href="#m953fb5388f" x="430.387341" y="248.793062" style="fill-opacity: 0.3"/>
     <use xlink:href="#m953fb5388f" x="439.532531" y="253.264463" style="fill-opacity: 0.3"/>
     <use xlink:href="#m953fb5388f" x="450.354758" y="265.461984" style="fill-opacity: 0.3"/>
     <use xlink:href="#m953fb5388f" x="431.709956" y="116.545756" style="fill-opacity: 0.3"/>
     <use xlink:href="#m953fb5388f" x="446.513595" y="252.201767" style="fill-opacity: 0.3"/>
     <use xlink:href="#m953fb5388f" x="452.015166" y="241.728847" style="fill-opacity: 0.3"/>
     <use xlink:href="#m953fb5388f" x="431.823451" y="251.005931" style="fill-opacity: 0.3"/>
     <use xlink:href="#m953fb5388f" x="443.60149" y="247.754364" style="fill-opacity: 0.3"/>
     <use xlink:href="#m953fb5388f" x="428.027816" y="251.331603" style="fill-opacity: 0.3"/>
     <use xlink:href="#m953fb5388f" x="448.725825" y="255.117126" style="fill-opacity: 0.3"/>
     <use xlink:href="#m953fb5388f" x="436.586873" y="255.715288" style="fill-opacity: 0.3"/>
     <use xlink:href="#m953fb5388f" x="429.050786" y="244.684185" style="fill-opacity: 0.3"/>
     <use xlink:href="#m953fb5388f" x="437.23836" y="255.215584" style="fill-opacity: 0.3"/>
     <use xlink:href="#m953fb5388f" x="432.656557" y="253.214535" style="fill-opacity: 0.3"/>
     <use xlink:href="#m953fb5388f" x="425.413792" y="250.56017" style="fill-opacity: 0.3"/>
     <use xlink:href="#m953fb5388f" x="451.460282" y="256.050675" style="fill-opacity: 0.3"/>
     <use xlink:href="#m953fb5388f" x="439.058655" y="241.136206" style="fill-opacity: 0.3"/>
     <use xlink:href="#m953fb5388f" x="452.27701" y="237.672991" style="fill-opacity: 0.3"/>
     <use xlink:href="#m953fb5388f" x="442.5217" y="176.319485" style="fill-opacity: 0.3"/>
     <use xlink:href="#m953fb5388f" x="436.301956" y="179.588454" style="fill-opacity: 0.3"/>
     <use xlink:href="#m953fb5388f" x="444.667782" y="197.230354" style="fill-opacity: 0.3"/>
     <use xlink:href="#m953fb5388f" x="445.085813" y="215.314562" style="fill-opacity: 0.3"/>
     <use xlink:href="#m953fb5388f" x="448.045366" y="253.092928" style="fill-opacity: 0.3"/>
     <use xlink:href="#m953fb5388f" x="445.220384" y="100.476357" style="fill-opacity: 0.3"/>
    </g>
   </g>
   <g id="PathCollection_4">
    <g clip-path="url(#p26ee489d12)">
     <use xlink:href="#m953fb5388f" x="574.851102" y="190.000279" style="fill-opacity: 0.3"/>
     <use xlink:href="#m953fb5388f" x="584.91339" y="99.398098" style="fill-opacity: 0.3"/>
     <use xlink:href="#m953fb5388f" x="565.545546" y="241.526499" style="fill-opacity: 0.3"/>
     <use xlink:href="#m953fb5388f" x="568.883011" y="264.833096" style="fill-opacity: 0.3"/>
     <use xlink:href="#m953fb5388f" x="585.564805" y="253.165042" style="fill-opacity: 0.3"/>
     <use xlink:href="#m953fb5388f" x="578.834682" y="240.588861" style="fill-opacity: 0.3"/>
     <use xlink:href="#m953fb5388f" x="566.952476" y="228.958908" style="fill-opacity: 0.3"/>
     <use xlink:href="#m953fb5388f" x="584.004512" y="261.81924" style="fill-opacity: 0.3"/>
     <use xlink:href="#m953fb5388f" x="585.372418" y="250.759904" style="fill-opacity: 0.3"/>
     <use xlink:href="#m953fb5388f" x="591.785683" y="256.826887" style="fill-opacity: 0.3"/>
     <use xlink:href="#m953fb5388f" x="587.705795" y="259.727117" style="fill-opacity: 0.3"/>
     <use xlink:href="#m953fb5388f" x="572.840803" y="239.341713" style="fill-opacity: 0.3"/>
     <use xlink:href="#m953fb5388f" x="569.598429" y="264.817259" style="fill-opacity: 0.3"/>
     <use xlink:href="#m953fb5388f" x="576.925033" y="259.053326" style="fill-opacity: 0.3"/>
     <use xlink:href="#m953fb5388f" x="582.331462" y="261.548302" style="fill-opacity: 0.3"/>
     <use xlink:href="#m953fb5388f" x="578.643489" y="200.78849" style="fill-opacity: 0.3"/>
     <use xlink:href="#m953fb5388f" x="570.560865" y="259.587395" style="fill-opacity: 0.3"/>
     <use xlink:href="#m953fb5388f" x="587.719976" y="180.166219" style="fill-opacity: 0.3"/>
     <use xlink:href="#m953fb5388f" x="571.059461" y="244.061868" style="fill-opacity: 0.3"/>
     <use xlink:href="#m953fb5388f" x="571.255885" y="258.603556" style="fill-opacity: 0.3"/>
     <use xlink:href="#m953fb5388f" x="570.227262" y="229.356954" style="fill-opacity: 0.3"/>
     <use xlink:href="#m953fb5388f" x="570.205766" y="244.910009" style="fill-opacity: 0.3"/>
     <use xlink:href="#m953fb5388f" x="589.267163" y="167.234217" style="fill-opacity: 0.3"/>
     <use xlink:href="#m953fb5388f" x="583.016362" y="182.105082" style="fill-opacity: 0.3"/>
     <use xlink:href="#m953fb5388f" x="568.17203" y="193.597742" style="fill-opacity: 0.3"/>
     <use xlink:href="#m953fb5388f" x="571.963132" y="255.569165" style="fill-opacity: 0.3"/>
     <use xlink:href="#m953fb5388f" x="570.382004" y="163.130904" style="fill-opacity: 0.3"/>
    </g>
   </g>
  </g>
 </g>
 <defs>
  <clipPath id="p26ee489d12">
   <rect x="90" y="43.2" width="558" height="277.2"/>
  </clipPath>
 </defs>
</svg>
