<?xml version="1.0" encoding="utf-8" standalone="no"?>
<!DOCTYPE svg PUBLIC "-//W3C//DTD SVG 1.1//EN"
  "http://www.w3.org/Graphics/SVG/1.1/DTD/svg11.dtd">
<svg xmlns:xlink="http://www.w3.org/1999/xlink" width="720pt" height="360pt" viewBox="0 0 720 360" xmlns="http://www.w3.org/2000/svg" version="1.1">
 <metadata>
  <rdf:RDF xmlns:dc="http://purl.org/dc/elements/1.1/" xmlns:cc="http://creativecommons.org/ns#" xmlns:rdf="http://www.w3.org/1999/02/22-rdf-syntax-ns#">
   <cc:Work>
    <dc:type rdf:resource="http://purl.org/dc/dcmitype/StillImage"/>
    <dc:date>2025-09-09T15:01:42.100993</dc:date>
    <dc:format>image/svg+xml</dc:format>
    <dc:creator>
     <cc:Agent>
      <dc:title>Matplotlib v3.10.3, https://matplotlib.org/</dc:title>
     </cc:Agent>
    </dc:creator>
   </cc:Work>
  </rdf:RDF>
 </metadata>
 <defs>
  <style type="text/css">*{stroke-linejoin: round; stroke-linecap: butt}</style>
 </defs>
 <g id="figure_1">
  <g id="patch_1">
   <path d="M 0 360 
L 720 360 
L 720 0 
L 0 0 
z
" style="fill: #ffffff"/>
  </g>
  <g id="axes_1">
   <g id="patch_2">
    <path d="M 90 320.4 
L 648 320.4 
L 648 43.2 
L 90 43.2 
z
" style="fill: #ffffff"/>
   </g>
   <g id="FillBetweenPolyCollection_1">
    <defs>
     <path id="m38b639fd11" d="M 151.641008 -51.418004 
L 139.958992 -51.418004 
L 138.932124 -51.495306 
L 137.779546 -51.572607 
L 136.497093 -51.649909 
L 135.082748 -51.727211 
L 133.537043 -51.804513 
L 131.863416 -51.881815 
L 130.068515 -51.959117 
L 128.162432 -52.036418 
L 126.158831 -52.11372 
L 124.074973 -52.191022 
L 121.931597 -52.268324 
L 119.752673 -52.345626 
L 117.565009 -52.422928 
L 115.397709 -52.500229 
L 113.281513 -52.577531 
L 111.248018 -52.654833 
L 109.328808 -52.732135 
L 107.554539 -52.809437 
L 105.95399 -52.886739 
L 104.55315 -52.96404 
L 103.374354 -53.041342 
L 102.435523 -53.118644 
L 101.749545 -53.195946 
L 101.32382 -53.273248 
L 101.16 -53.35055 
L 101.253933 -53.427851 
L 101.595819 -53.505153 
L 102.170567 -53.582455 
L 102.958344 -53.659757 
L 103.93528 -53.737059 
L 105.074306 -53.814361 
L 106.346071 -53.891662 
L 107.71991 -53.968964 
L 109.164799 -54.046266 
L 110.650274 -54.123568 
L 112.147257 -54.20087 
L 113.628756 -54.278172 
L 115.07043 -54.355473 
L 116.450982 -54.432775 
L 117.752376 -54.510077 
L 118.9599 -54.587379 
L 120.062058 -54.664681 
L 121.050335 -54.741983 
L 121.918857 -54.819284 
L 122.663966 -54.896586 
L 123.283773 -54.973888 
L 123.777689 -55.05119 
L 124.146007 -55.128492 
L 124.389533 -55.205794 
L 124.50931 -55.283095 
L 124.506452 -55.360397 
L 124.382089 -55.437699 
L 124.13743 -55.515001 
L 123.77394 -55.592303 
L 123.293608 -55.669605 
L 122.699287 -55.746906 
L 121.995086 -55.824208 
L 121.186766 -55.90151 
L 120.282119 -55.978812 
L 119.291292 -56.056114 
L 118.227022 -56.133416 
L 117.104767 -56.210717 
L 115.94269 -56.288019 
L 114.761512 -56.365321 
L 113.584204 -56.442623 
L 112.435539 -56.519925 
L 111.341509 -56.597227 
L 110.328634 -56.674528 
L 109.423192 -56.75183 
L 108.650399 -56.829132 
L 108.033586 -56.906434 
L 107.593407 -56.983736 
L 107.347116 -57.061038 
L 107.307953 -57.138339 
L 107.484661 -57.215641 
L 107.881176 -57.292943 
L 108.496474 -57.370245 
L 109.324613 -57.447547 
L 110.354947 -57.524849 
L 111.572504 -57.60215 
L 112.958513 -57.679452 
L 114.491051 -57.756754 
L 116.145774 -57.834056 
L 117.896704 -57.911358 
L 119.717036 -57.98866 
L 121.579926 -58.065961 
L 123.459235 -58.143263 
L 125.330196 -58.220565 
L 127.16999 -58.297867 
L 128.9582 -58.375169 
L 130.677163 -58.452471 
L 132.312176 -58.529772 
L 133.851603 -58.607074 
L 135.286855 -58.684376 
L 136.612285 -58.761678 
L 137.824984 -58.83898 
L 138.924531 -58.916282 
L 139.912677 -58.993583 
L 140.793012 -59.070885 
L 150.806988 -59.070885 
L 150.806988 -59.070885 
L 151.687323 -58.993583 
L 152.675469 -58.916282 
L 153.775016 -58.83898 
L 154.987715 -58.761678 
L 156.313145 -58.684376 
L 157.748397 -58.607074 
L 159.287824 -58.529772 
L 160.922837 -58.452471 
L 162.6418 -58.375169 
L 164.43001 -58.297867 
L 166.269804 -58.220565 
L 168.140765 -58.143263 
L 170.020074 -58.065961 
L 171.882964 -57.98866 
L 173.703296 -57.911358 
L 175.454226 -57.834056 
L 177.108949 -57.756754 
L 178.641487 -57.679452 
L 180.027496 -57.60215 
L 181.245053 -57.524849 
L 182.275387 -57.447547 
L 183.103526 -57.370245 
L 183.718824 -57.292943 
L 184.115339 -57.215641 
L 184.292047 -57.138339 
L 184.252884 -57.061038 
L 184.006593 -56.983736 
L 183.566414 -56.906434 
L 182.949601 -56.829132 
L 182.176808 -56.75183 
L 181.271366 -56.674528 
L 180.258491 -56.597227 
L 179.164461 -56.519925 
L 178.015796 -56.442623 
L 176.838488 -56.365321 
L 175.65731 -56.288019 
L 174.495233 -56.210717 
L 173.372978 -56.133416 
L 172.308708 -56.056114 
L 171.317881 -55.978812 
L 170.413234 -55.90151 
L 169.604914 -55.824208 
L 168.900713 -55.746906 
L 168.306392 -55.669605 
L 167.82606 -55.592303 
L 167.46257 -55.515001 
L 167.217911 -55.437699 
L 167.093548 -55.360397 
L 167.09069 -55.283095 
L 167.210467 -55.205794 
L 167.453993 -55.128492 
L 167.822311 -55.05119 
L 168.316227 -54.973888 
L 168.936034 -54.896586 
L 169.681143 -54.819284 
L 170.549665 -54.741983 
L 171.537942 -54.664681 
L 172.6401 -54.587379 
L 173.847624 -54.510077 
L 175.149018 -54.432775 
L 176.52957 -54.355473 
L 177.971244 -54.278172 
L 179.452743 -54.20087 
L 180.949726 -54.123568 
L 182.435201 -54.046266 
L 183.88009 -53.968964 
L 185.253929 -53.891662 
L 186.525694 -53.814361 
L 187.66472 -53.737059 
L 188.641656 -53.659757 
L 189.429433 -53.582455 
L 190.004181 -53.505153 
L 190.346067 -53.427851 
L 190.44 -53.35055 
L 190.27618 -53.273248 
L 189.850455 -53.195946 
L 189.164477 -53.118644 
L 188.225646 -53.041342 
L 187.04685 -52.96404 
L 185.64601 -52.886739 
L 184.045461 -52.809437 
L 182.271192 -52.732135 
L 180.351982 -52.654833 
L 178.318487 -52.577531 
L 176.202291 -52.500229 
L 174.034991 -52.422928 
L 171.847327 -52.345626 
L 169.668403 -52.268324 
L 167.525027 -52.191022 
L 165.441169 -52.11372 
L 163.437568 -52.036418 
L 161.531485 -51.959117 
L 159.736584 -51.881815 
L 158.062957 -51.804513 
L 156.517252 -51.727211 
L 155.102907 -51.649909 
L 153.820454 -51.572607 
L 152.667876 -51.495306 
L 151.641008 -51.418004 
z
" style="stroke: #3d3d3d; stroke-width: 1.25"/>
    </defs>
    <g clip-path="url(#p282a8a0ca7)">
     <use xlink:href="#m38b639fd11" x="0" y="360" style="fill: #3274a1; stroke: #3d3d3d; stroke-width: 1.25"/>
    </g>
   </g>
   <g id="FillBetweenPolyCollection_2">
    <defs>
     <path id="mc1b3522460" d="M 257.707049 -45.585372 
L 257.092951 -45.585372 
L 256.991722 -45.721246 
L 256.868872 -45.857119 
L 256.724016 -45.992993 
L 256.558279 -46.128866 
L 256.374596 -46.26474 
L 256.177872 -46.400613 
L 255.974942 -46.536487 
L 255.774289 -46.67236 
L 255.585533 -46.808234 
L 255.418705 -46.944107 
L 255.283374 -47.079981 
L 255.187753 -47.215854 
L 255.137869 -47.351728 
L 255.136936 -47.487601 
L 255.185017 -47.623475 
L 255.279009 -47.759348 
L 255.412982 -47.895222 
L 255.578791 -48.031095 
L 255.766899 -48.166969 
L 255.967278 -48.302842 
L 256.170273 -48.438716 
L 256.367337 -48.574589 
L 256.551555 -48.710463 
L 256.717916 -48.846336 
L 256.863358 -48.98221 
L 256.98659 -49.118084 
L 257.087763 -49.253957 
L 257.168043 -49.389831 
L 257.229125 -49.525704 
L 257.272735 -49.661578 
L 257.300131 -49.797451 
L 257.311604 -49.933325 
L 257.30596 -50.069198 
L 257.279968 -50.205072 
L 257.227766 -50.340945 
L 257.140233 -50.476819 
L 257.004379 -50.612692 
L 256.802829 -50.748566 
L 256.513558 -50.884439 
L 256.110031 -51.020313 
L 255.561956 -51.156186 
L 254.836839 -51.29206 
L 253.902449 -51.427933 
L 252.730213 -51.563807 
L 251.299383 -51.69968 
L 249.601617 -51.835554 
L 247.645423 -51.971427 
L 245.459757 -52.107301 
L 243.096003 -52.243174 
L 240.627641 -52.379048 
L 238.147119 -52.514921 
L 235.75983 -52.650795 
L 233.575562 -52.786668 
L 231.698263 -52.922542 
L 230.215374 -53.058415 
L 229.188217 -53.194289 
L 228.644898 -53.330162 
L 228.576907 -53.466036 
L 228.940047 -53.60191 
L 229.659666 -53.737783 
L 230.639425 -53.873657 
L 231.772275 -54.00953 
L 232.95189 -54.145404 
L 234.082796 -54.281277 
L 235.087663 -54.417151 
L 235.910795 -54.553024 
L 236.517561 -54.688898 
L 236.89029 -54.824771 
L 237.02181 -54.960645 
L 236.908262 -55.096518 
L 236.542948 -55.232392 
L 235.912763 -55.368265 
L 234.998258 -55.504139 
L 233.777636 -55.640012 
L 232.234153 -55.775886 
L 230.365656 -55.911759 
L 228.19437 -56.047633 
L 225.774864 -56.183506 
L 223.198234 -56.31938 
L 220.591072 -56.455253 
L 218.108657 -56.591127 
L 215.922759 -56.727 
L 214.205484 -56.862874 
L 213.111324 -56.998747 
L 212.76 -57.134621 
L 213.222678 -57.270494 
L 214.51358 -57.406368 
L 216.588228 -57.542241 
L 219.348439 -57.678115 
L 222.653206 -57.813988 
L 226.333702 -57.949862 
L 230.210175 -58.085735 
L 234.108412 -58.221609 
L 237.873747 -58.357483 
L 241.381193 -58.493356 
L 244.541011 -58.62923 
L 247.299804 -58.765103 
L 249.637794 -58.900977 
L 251.563362 -59.03685 
L 263.236638 -59.03685 
L 263.236638 -59.03685 
L 265.162206 -58.900977 
L 267.500196 -58.765103 
L 270.258989 -58.62923 
L 273.418807 -58.493356 
L 276.926253 -58.357483 
L 280.691588 -58.221609 
L 284.589825 -58.085735 
L 288.466298 -57.949862 
L 292.146794 -57.813988 
L 295.451561 -57.678115 
L 298.211772 -57.542241 
L 300.28642 -57.406368 
L 301.577322 -57.270494 
L 302.04 -57.134621 
L 301.688676 -56.998747 
L 300.594516 -56.862874 
L 298.877241 -56.727 
L 296.691343 -56.591127 
L 294.208928 -56.455253 
L 291.601766 -56.31938 
L 289.025136 -56.183506 
L 286.60563 -56.047633 
L 284.434344 -55.911759 
L 282.565847 -55.775886 
L 281.022364 -55.640012 
L 279.801742 -55.504139 
L 278.887237 -55.368265 
L 278.257052 -55.232392 
L 277.891738 -55.096518 
L 277.77819 -54.960645 
L 277.90971 -54.824771 
L 278.282439 -54.688898 
L 278.889205 -54.553024 
L 279.712337 -54.417151 
L 280.717204 -54.281277 
L 281.84811 -54.145404 
L 283.027725 -54.00953 
L 284.160575 -53.873657 
L 285.140334 -53.737783 
L 285.859953 -53.60191 
L 286.223093 -53.466036 
L 286.155102 -53.330162 
L 285.611783 -53.194289 
L 284.584626 -53.058415 
L 283.101737 -52.922542 
L 281.224438 -52.786668 
L 279.04017 -52.650795 
L 276.652881 -52.514921 
L 274.172359 -52.379048 
L 271.703997 -52.243174 
L 269.340243 -52.107301 
L 267.154577 -51.971427 
L 265.198383 -51.835554 
L 263.500617 -51.69968 
L 262.069787 -51.563807 
L 260.897551 -51.427933 
L 259.963161 -51.29206 
L 259.238044 -51.156186 
L 258.689969 -51.020313 
L 258.286442 -50.884439 
L 257.997171 -50.748566 
L 257.795621 -50.612692 
L 257.659767 -50.476819 
L 257.572234 -50.340945 
L 257.520032 -50.205072 
L 257.49404 -50.069198 
L 257.488396 -49.933325 
L 257.499869 -49.797451 
L 257.527265 -49.661578 
L 257.570875 -49.525704 
L 257.631957 -49.389831 
L 257.712237 -49.253957 
L 257.81341 -49.118084 
L 257.936642 -48.98221 
L 258.082084 -48.846336 
L 258.248445 -48.710463 
L 258.432663 -48.574589 
L 258.629727 -48.438716 
L 258.832722 -48.302842 
L 259.033101 -48.166969 
L 259.221209 -48.031095 
L 259.387018 -47.895222 
L 259.520991 -47.759348 
L 259.614983 -47.623475 
L 259.663064 -47.487601 
L 259.662131 -47.351728 
L 259.612247 -47.215854 
L 259.516626 -47.079981 
L 259.381295 -46.944107 
L 259.214467 -46.808234 
L 259.025711 -46.67236 
L 258.825058 -46.536487 
L 258.622128 -46.400613 
L 258.425404 -46.26474 
L 258.241721 -46.128866 
L 258.075984 -45.992993 
L 257.931128 -45.857119 
L 257.808278 -45.721246 
L 257.707049 -45.585372 
z
" style="stroke: #3d3d3d; stroke-width: 1.25"/>
    </defs>
    <g clip-path="url(#p282a8a0ca7)">
     <use xlink:href="#mc1b3522460" x="0" y="360" style="fill: #e1812c; stroke: #3d3d3d; stroke-width: 1.25"/>
    </g>
   </g>
   <g id="FillBetweenPolyCollection_3">
    <defs>
     <path id="m91cbd1a9f1" d="M 369.222131 -45.299375 
L 368.777869 -45.299375 
L 368.712487 -45.441027 
L 368.634429 -45.582678 
L 368.543383 -45.724329 
L 368.439731 -45.86598 
L 368.324684 -46.007631 
L 368.200382 -46.149283 
L 368.069914 -46.290934 
L 367.937255 -46.432585 
L 367.807111 -46.574236 
L 367.684664 -46.715888 
L 367.575252 -46.857539 
L 367.48398 -46.99919 
L 367.415336 -47.140841 
L 367.372823 -47.282493 
L 367.358663 -47.424144 
L 367.373602 -47.565795 
L 367.416848 -47.707446 
L 367.486137 -47.849097 
L 367.577926 -47.990749 
L 367.687691 -48.1324 
L 367.810284 -48.274051 
L 367.940322 -48.415702 
L 368.072549 -48.557354 
L 368.202138 -48.699005 
L 368.324915 -48.840656 
L 368.437457 -48.982307 
L 368.537091 -49.123958 
L 368.621772 -49.26561 
L 368.689859 -49.407261 
L 368.739807 -49.548912 
L 368.769793 -49.690563 
L 368.777299 -49.832215 
L 368.758675 -49.973866 
L 368.708724 -50.115517 
L 368.620325 -50.257168 
L 368.484166 -50.39882 
L 368.288626 -50.540471 
L 368.019881 -50.682122 
L 367.662285 -50.823773 
L 367.199106 -50.965424 
L 366.613626 -51.107076 
L 365.890624 -51.248727 
L 365.018181 -51.390378 
L 363.989693 -51.532029 
L 362.805918 -51.673681 
L 361.476816 -51.815332 
L 360.022928 -51.956983 
L 358.476013 -52.098634 
L 356.878716 -52.240285 
L 355.283119 -52.381937 
L 353.748157 -52.523588 
L 352.335991 -52.665239 
L 351.107632 -52.80689 
L 350.118185 -52.948542 
L 349.412192 -53.090193 
L 349.019568 -53.231844 
L 348.952561 -53.373495 
L 349.204075 -53.515147 
L 349.747488 -53.656798 
L 350.537961 -53.798449 
L 351.515014 -53.9401 
L 352.606047 -54.081751 
L 353.73038 -54.223403 
L 354.803431 -54.365054 
L 355.740689 -54.506705 
L 356.461286 -54.648356 
L 356.891122 -54.790008 
L 356.965592 -54.931659 
L 356.632106 -55.07331 
L 355.852556 -55.214961 
L 354.605851 -55.356612 
L 352.890518 -55.498264 
L 350.72719 -55.639915 
L 348.160634 -55.781566 
L 345.260858 -55.923217 
L 342.122766 -56.064869 
L 338.863904 -56.20652 
L 335.620004 -56.348171 
L 332.538297 -56.489822 
L 329.768899 -56.631474 
L 327.454889 -56.773125 
L 325.722014 -56.914776 
L 324.669059 -57.056427 
L 324.36 -57.198078 
L 324.818858 -57.33973 
L 326.027909 -57.481381 
L 327.929481 -57.623032 
L 330.431147 -57.764683 
L 333.413701 -57.906335 
L 336.740987 -58.047986 
L 340.270483 -58.189637 
L 343.863513 -58.331288 
L 347.394108 -58.472939 
L 350.75578 -58.614591 
L 353.865803 -58.756242 
L 356.666938 -58.897893 
L 359.126816 -59.039544 
L 361.235452 -59.181196 
L 363.001451 -59.322847 
L 374.998549 -59.322847 
L 374.998549 -59.322847 
L 376.764548 -59.181196 
L 378.873184 -59.039544 
L 381.333062 -58.897893 
L 384.134197 -58.756242 
L 387.24422 -58.614591 
L 390.605892 -58.472939 
L 394.136487 -58.331288 
L 397.729517 -58.189637 
L 401.259013 -58.047986 
L 404.586299 -57.906335 
L 407.568853 -57.764683 
L 410.070519 -57.623032 
L 411.972091 -57.481381 
L 413.181142 -57.33973 
L 413.64 -57.198078 
L 413.330941 -57.056427 
L 412.277986 -56.914776 
L 410.545111 -56.773125 
L 408.231101 -56.631474 
L 405.461703 -56.489822 
L 402.379996 -56.348171 
L 399.136096 -56.20652 
L 395.877234 -56.064869 
L 392.739142 -55.923217 
L 389.839366 -55.781566 
L 387.27281 -55.639915 
L 385.109482 -55.498264 
L 383.394149 -55.356612 
L 382.147444 -55.214961 
L 381.367894 -55.07331 
L 381.034408 -54.931659 
L 381.108878 -54.790008 
L 381.538714 -54.648356 
L 382.259311 -54.506705 
L 383.196569 -54.365054 
L 384.26962 -54.223403 
L 385.393953 -54.081751 
L 386.484986 -53.9401 
L 387.462039 -53.798449 
L 388.252512 -53.656798 
L 388.795925 -53.515147 
L 389.047439 -53.373495 
L 388.980432 -53.231844 
L 388.587808 -53.090193 
L 387.881815 -52.948542 
L 386.892368 -52.80689 
L 385.664009 -52.665239 
L 384.251843 -52.523588 
L 382.716881 -52.381937 
L 381.121284 -52.240285 
L 379.523987 -52.098634 
L 377.977072 -51.956983 
L 376.523184 -51.815332 
L 375.194082 -51.673681 
L 374.010307 -51.532029 
L 372.981819 -51.390378 
L 372.109376 -51.248727 
L 371.386374 -51.107076 
L 370.800894 -50.965424 
L 370.337715 -50.823773 
L 369.980119 -50.682122 
L 369.711374 -50.540471 
L 369.515834 -50.39882 
L 369.379675 -50.257168 
L 369.291276 -50.115517 
L 369.241325 -49.973866 
L 369.222701 -49.832215 
L 369.230207 -49.690563 
L 369.260193 -49.548912 
L 369.310141 -49.407261 
L 369.378228 -49.26561 
L 369.462909 -49.123958 
L 369.562543 -48.982307 
L 369.675085 -48.840656 
L 369.797862 -48.699005 
L 369.927451 -48.557354 
L 370.059678 -48.415702 
L 370.189716 -48.274051 
L 370.312309 -48.1324 
L 370.422074 -47.990749 
L 370.513863 -47.849097 
L 370.583152 -47.707446 
L 370.626398 -47.565795 
L 370.641337 -47.424144 
L 370.627177 -47.282493 
L 370.584664 -47.140841 
L 370.51602 -46.99919 
L 370.424748 -46.857539 
L 370.315336 -46.715888 
L 370.192889 -46.574236 
L 370.062745 -46.432585 
L 369.930086 -46.290934 
L 369.799618 -46.149283 
L 369.675316 -46.007631 
L 369.560269 -45.86598 
L 369.456617 -45.724329 
L 369.365571 -45.582678 
L 369.287513 -45.441027 
L 369.222131 -45.299375 
z
" style="stroke: #3d3d3d; stroke-width: 1.25"/>
    </defs>
    <g clip-path="url(#p282a8a0ca7)">
     <use xlink:href="#m91cbd1a9f1" x="0" y="360" style="fill: #3a923a; stroke: #3d3d3d; stroke-width: 1.25"/>
    </g>
   </g>
   <g id="FillBetweenPolyCollection_4">
    <defs>
     <path id="m59a4b80e79" d="M 481.724438 -44.520583 
L 479.475562 -44.520583 
L 479.211312 -44.677967 
L 478.905027 -44.835352 
L 478.555391 -44.992736 
L 478.162486 -45.15012 
L 477.728073 -45.307505 
L 477.255825 -45.464889 
L 476.751478 -45.622274 
L 476.22288 -45.779658 
L 475.679916 -45.937042 
L 475.134292 -46.094427 
L 474.599184 -46.251811 
L 474.088746 -46.409196 
L 473.617515 -46.56658 
L 473.199731 -46.723964 
L 472.848629 -46.881349 
L 472.575732 -47.038733 
L 472.390212 -47.196118 
L 472.298365 -47.353502 
L 472.303225 -47.510887 
L 472.404367 -47.668271 
L 472.597893 -47.825655 
L 472.87662 -47.98304 
L 473.230431 -48.140424 
L 473.646771 -48.297809 
L 474.111248 -48.455193 
L 474.608279 -48.612577 
L 475.121747 -48.769962 
L 475.635608 -48.927346 
L 476.134424 -49.084731 
L 476.603797 -49.242115 
L 477.030673 -49.399499 
L 477.403539 -49.556884 
L 477.712518 -49.714268 
L 477.949372 -49.871653 
L 478.107469 -50.029037 
L 478.18171 -50.186422 
L 478.168475 -50.343806 
L 478.065594 -50.50119 
L 477.872362 -50.658575 
L 477.58959 -50.815959 
L 477.219708 -50.973344 
L 476.766868 -51.130728 
L 476.237044 -51.288112 
L 475.638078 -51.445497 
L 474.979648 -51.602881 
L 474.273111 -51.760266 
L 473.531212 -51.91765 
L 472.767625 -52.075034 
L 471.996348 -52.232419 
L 471.230949 -52.389803 
L 470.483713 -52.547188 
L 469.764731 -52.704572 
L 469.080994 -52.861957 
L 468.435569 -53.019341 
L 467.826919 -53.176725 
L 467.248452 -53.33411 
L 466.688349 -53.491494 
L 466.129732 -53.648879 
L 465.551185 -53.806263 
L 464.927665 -53.963647 
L 464.231759 -54.121032 
L 463.43527 -54.278416 
L 462.511058 -54.435801 
L 461.435048 -54.593185 
L 460.188302 -54.75057 
L 458.759023 -54.907954 
L 457.144355 -55.065338 
L 455.351841 -55.222723 
L 453.400402 -55.380107 
L 451.320719 -55.537492 
L 449.154926 -55.694876 
L 446.955567 -55.85226 
L 444.783811 -56.009645 
L 442.706986 -56.167029 
L 440.79553 -56.324414 
L 439.119549 -56.481798 
L 437.745169 -56.639182 
L 436.730938 -56.796567 
L 436.124532 -56.953951 
L 435.96 -57.111336 
L 436.255761 -57.26872 
L 437.013504 -57.426105 
L 438.218072 -57.583489 
L 439.838345 -57.740873 
L 441.829035 -57.898258 
L 444.133259 -58.055642 
L 446.685674 -58.213027 
L 449.415948 -58.370411 
L 452.252298 -58.527795 
L 455.124864 -58.68518 
L 457.968693 -58.842564 
L 460.726178 -58.999949 
L 463.348831 -59.157333 
L 465.79836 -59.314717 
L 468.047049 -59.472102 
L 470.07751 -59.629486 
L 471.881916 -59.786871 
L 473.46083 -59.944255 
L 474.821787 -60.10164 
L 486.378213 -60.10164 
L 486.378213 -60.10164 
L 487.73917 -59.944255 
L 489.318084 -59.786871 
L 491.12249 -59.629486 
L 493.152951 -59.472102 
L 495.40164 -59.314717 
L 497.851169 -59.157333 
L 500.473822 -58.999949 
L 503.231307 -58.842564 
L 506.075136 -58.68518 
L 508.947702 -58.527795 
L 511.784052 -58.370411 
L 514.514326 -58.213027 
L 517.066741 -58.055642 
L 519.370965 -57.898258 
L 521.361655 -57.740873 
L 522.981928 -57.583489 
L 524.186496 -57.426105 
L 524.944239 -57.26872 
L 525.24 -57.111336 
L 525.075468 -56.953951 
L 524.469062 -56.796567 
L 523.454831 -56.639182 
L 522.080451 -56.481798 
L 520.40447 -56.324414 
L 518.493014 -56.167029 
L 516.416189 -56.009645 
L 514.244433 -55.85226 
L 512.045074 -55.694876 
L 509.879281 -55.537492 
L 507.799598 -55.380107 
L 505.848159 -55.222723 
L 504.055645 -55.065338 
L 502.440977 -54.907954 
L 501.011698 -54.75057 
L 499.764952 -54.593185 
L 498.688942 -54.435801 
L 497.76473 -54.278416 
L 496.968241 -54.121032 
L 496.272335 -53.963647 
L 495.648815 -53.806263 
L 495.070268 -53.648879 
L 494.511651 -53.491494 
L 493.951548 -53.33411 
L 493.373081 -53.176725 
L 492.764431 -53.019341 
L 492.119006 -52.861957 
L 491.435269 -52.704572 
L 490.716287 -52.547188 
L 489.969051 -52.389803 
L 489.203652 -52.232419 
L 488.432375 -52.075034 
L 487.668788 -51.91765 
L 486.926889 -51.760266 
L 486.220352 -51.602881 
L 485.561922 -51.445497 
L 484.962956 -51.288112 
L 484.433132 -51.130728 
L 483.980292 -50.973344 
L 483.61041 -50.815959 
L 483.327638 -50.658575 
L 483.134406 -50.50119 
L 483.031525 -50.343806 
L 483.01829 -50.186422 
L 483.092531 -50.029037 
L 483.250628 -49.871653 
L 483.487482 -49.714268 
L 483.796461 -49.556884 
L 484.169327 -49.399499 
L 484.596203 -49.242115 
L 485.065576 -49.084731 
L 485.564392 -48.927346 
L 486.078253 -48.769962 
L 486.591721 -48.612577 
L 487.088752 -48.455193 
L 487.553229 -48.297809 
L 487.969569 -48.140424 
L 488.32338 -47.98304 
L 488.602107 -47.825655 
L 488.795633 -47.668271 
L 488.896775 -47.510887 
L 488.901635 -47.353502 
L 488.809788 -47.196118 
L 488.624268 -47.038733 
L 488.351371 -46.881349 
L 488.000269 -46.723964 
L 487.582485 -46.56658 
L 487.111254 -46.409196 
L 486.600816 -46.251811 
L 486.065708 -46.094427 
L 485.520084 -45.937042 
L 484.97712 -45.779658 
L 484.448522 -45.622274 
L 483.944175 -45.464889 
L 483.471927 -45.307505 
L 483.037514 -45.15012 
L 482.644609 -44.992736 
L 482.294973 -44.835352 
L 481.988688 -44.677967 
L 481.724438 -44.520583 
z
" style="stroke: #3d3d3d; stroke-width: 1.25"/>
    </defs>
    <g clip-path="url(#p282a8a0ca7)">
     <use xlink:href="#m59a4b80e79" x="0" y="360" style="fill: #c03d3e; stroke: #3d3d3d; stroke-width: 1.25"/>
    </g>
   </g>
   <g id="patch_3">
    <path d="M 212.76 320.4 
L 257.4 320.4 
L 257.4 234.355556 
L 212.76 234.355556 
z
" clip-path="url(#p282a8a0ca7)" style="fill: #3274a1"/>
   </g>
   <g id="patch_4">
    <path d="M 547.56 320.4 
L 592.2 320.4 
L 592.2 173.733333 
L 547.56 173.733333 
z
" clip-path="url(#p282a8a0ca7)" style="fill: #3274a1"/>
   </g>
   <g id="patch_5">
    <path d="M 257.4 320.4 
L 302.04 320.4 
L 302.04 257.822222 
L 257.4 257.822222 
z
" clip-path="url(#p282a8a0ca7)" style="fill: #e1812c"/>
   </g>
   <g id="patch_6">
    <path d="M 592.2 320.4 
L 636.84 320.4 
L 636.84 203.066667 
L 592.2 203.066667 
z
" clip-path="url(#p282a8a0ca7)" style="fill: #e1812c"/>
   </g>
   <g id="patch_7">
    <path d="M 145.8 320.4 
L 145.8 320.4 
L 145.8 320.4 
L 145.8 320.4 
z
" clip-path="url(#p282a8a0ca7)" style="fill: #3274a1"/>
   </g>
   <g id="patch_8">
    <path d="M 145.8 320.4 
L 145.8 320.4 
L 145.8 320.4 
L 145.8 320.4 
z
" clip-path="url(#p282a8a0ca7)" style="fill: #e1812c"/>
   </g>
   <g id="patch_9">
    <path d="M 212.76 320.4 
L 257.4 320.4 
L 257.4 302.8 
L 212.76 302.8 
z
" clip-path="url(#p282a8a0ca7)" style="fill: #3274a1"/>
   </g>
   <g id="patch_10">
    <path d="M 547.56 320.4 
L 592.2 320.4 
L 592.2 298.888889 
L 547.56 298.888889 
z
" clip-path="url(#p282a8a0ca7)" style="fill: #3274a1"/>
   </g>
   <g id="patch_11">
    <path d="M 257.4 320.4 
L 302.04 320.4 
L 302.04 189.377778 
L 257.4 189.377778 
z
" clip-path="url(#p282a8a0ca7)" style="fill: #e1812c"/>
   </g>
   <g id="patch_12">
    <path d="M 592.2 320.4 
L 636.84 320.4 
L 636.84 77.911111 
L 592.2 77.911111 
z
" clip-path="url(#p282a8a0ca7)" style="fill: #e1812c"/>
   </g>
   <g id="patch_13">
    <path d="M 145.8 320.4 
L 145.8 320.4 
L 145.8 320.4 
L 145.8 320.4 
z
" clip-path="url(#p282a8a0ca7)" style="fill: #3274a1"/>
   </g>
   <g id="patch_14">
    <path d="M 145.8 320.4 
L 145.8 320.4 
L 145.8 320.4 
L 145.8 320.4 
z
" clip-path="url(#p282a8a0ca7)" style="fill: #e1812c"/>
   </g>
   <g id="patch_15">
    <path d="M 212.76 320.4 
L 257.4 320.4 
L 257.4 246.088889 
L 212.76 246.088889 
z
" clip-path="url(#p282a8a0ca7)" style="fill: #3274a1"/>
   </g>
   <g id="patch_16">
    <path d="M 547.56 320.4 
L 592.2 320.4 
L 592.2 208.933333 
L 547.56 208.933333 
z
" clip-path="url(#p282a8a0ca7)" style="fill: #3274a1"/>
   </g>
   <g id="patch_17">
    <path d="M 257.4 320.4 
L 302.04 320.4 
L 302.04 246.088889 
L 257.4 246.088889 
z
" clip-path="url(#p282a8a0ca7)" style="fill: #e1812c"/>
   </g>
   <g id="patch_18">
    <path d="M 592.2 320.4 
L 636.84 320.4 
L 636.84 167.866667 
L 592.2 167.866667 
z
" clip-path="url(#p282a8a0ca7)" style="fill: #e1812c"/>
   </g>
   <g id="patch_19">
    <path d="M 145.8 320.4 
L 145.8 320.4 
L 145.8 320.4 
L 145.8 320.4 
z
" clip-path="url(#p282a8a0ca7)" style="fill: #3274a1"/>
   </g>
   <g id="patch_20">
    <path d="M 145.8 320.4 
L 145.8 320.4 
L 145.8 320.4 
L 145.8 320.4 
z
" clip-path="url(#p282a8a0ca7)" style="fill: #e1812c"/>
   </g>
   <g id="patch_21">
    <path d="M 212.76 320.4 
L 302.04 320.4 
L 302.04 171.777778 
L 212.76 171.777778 
z
" clip-path="url(#p282a8a0ca7)" style="fill: #3274a1"/>
   </g>
   <g id="patch_22">
    <path d="M 547.56 320.4 
L 636.84 320.4 
L 636.84 56.4 
L 547.56 56.4 
z
" clip-path="url(#p282a8a0ca7)" style="fill: #3274a1"/>
   </g>
   <g id="patch_23">
    <path d="M 145.8 320.4 
L 145.8 320.4 
L 145.8 320.4 
L 145.8 320.4 
z
" clip-path="url(#p282a8a0ca7)" style="fill: #3274a1"/>
   </g>
   <g id="patch_24">
    <path d="M 212.76 320.4 
L 302.04 320.4 
L 302.04 171.777778 
L 212.76 171.777778 
z
" clip-path="url(#p282a8a0ca7)" style="fill: #3274a1"/>
   </g>
   <g id="patch_25">
    <path d="M 547.56 320.4 
L 636.84 320.4 
L 636.84 56.4 
L 547.56 56.4 
z
" clip-path="url(#p282a8a0ca7)" style="fill: #3274a1"/>
   </g>
   <g id="patch_26">
    <path d="M 145.8 320.4 
L 145.8 320.4 
L 145.8 320.4 
L 145.8 320.4 
z
" clip-path="url(#p282a8a0ca7)" style="fill: #3274a1"/>
   </g>
   <g id="patch_27">
    <path d="M 212.76 320.4 
L 257.4 320.4 
L 257.4 312.577778 
L 212.76 312.577778 
z
" clip-path="url(#p282a8a0ca7)" style="fill: #3274a1"/>
   </g>
   <g id="patch_28">
    <path d="M 547.56 320.4 
L 592.2 320.4 
L 592.2 291.066667 
L 547.56 291.066667 
z
" clip-path="url(#p282a8a0ca7)" style="fill: #3274a1"/>
   </g>
   <g id="patch_29">
    <path d="M 257.4 320.4 
L 302.04 320.4 
L 302.04 179.6 
L 257.4 179.6 
z
" clip-path="url(#p282a8a0ca7)" style="fill: #e1812c"/>
   </g>
   <g id="patch_30">
    <path d="M 592.2 320.4 
L 636.84 320.4 
L 636.84 85.733333 
L 592.2 85.733333 
z
" clip-path="url(#p282a8a0ca7)" style="fill: #e1812c"/>
   </g>
   <g id="patch_31">
    <path d="M 145.8 320.4 
L 145.8 320.4 
L 145.8 320.4 
L 145.8 320.4 
z
" clip-path="url(#p282a8a0ca7)" style="fill: #3274a1"/>
   </g>
   <g id="patch_32">
    <path d="M 145.8 320.4 
L 145.8 320.4 
L 145.8 320.4 
L 145.8 320.4 
z
" clip-path="url(#p282a8a0ca7)" style="fill: #e1812c"/>
   </g>
   <g id="matplotlib.axis_1">
    <g id="xtick_1">
     <g id="line2d_1">
      <defs>
       <path id="m2873b48d84" d="M 0 0 
L 0 3.5 
" style="stroke: #000000; stroke-width: 0.8"/>
      </defs>
      <g>
       <use xlink:href="#m2873b48d84" x="145.8" y="320.4" style="stroke: #000000; stroke-width: 0.8"/>
      </g>
     </g>
     <g id="text_1">
      <!-- No -->
      <g transform="translate(139 334.998438) scale(0.1 -0.1)">
       <defs>
        <path id="DejaVuSans-4e" d="M 628 4666 
L 1478 4666 
L 3547 763 
L 3547 4666 
L 4159 4666 
L 4159 0 
L 3309 0 
L 1241 3903 
L 1241 0 
L 628 0 
L 628 4666 
z
" transform="scale(0.015625)"/>
        <path id="DejaVuSans-6f" d="M 1959 3097 
Q 1497 3097 1228 2736 
Q 959 2375 959 1747 
Q 959 1119 1226 758 
Q 1494 397 1959 397 
Q 2419 397 2687 759 
Q 2956 1122 2956 1747 
Q 2956 2369 2687 2733 
Q 2419 3097 1959 3097 
z
M 1959 3584 
Q 2709 3584 3137 3096 
Q 3566 2609 3566 1747 
Q 3566 888 3137 398 
Q 2709 -91 1959 -91 
Q 1206 -91 779 398 
Q 353 888 353 1747 
Q 353 2609 779 3096 
Q 1206 3584 1959 3584 
z
" transform="scale(0.015625)"/>
       </defs>
       <use xlink:href="#DejaVuSans-4e"/>
       <use xlink:href="#DejaVuSans-6f" transform="translate(74.804688 0)"/>
      </g>
     </g>
    </g>
    <g id="xtick_2">
     <g id="line2d_2">
      <g>
       <use xlink:href="#m2873b48d84" x="257.4" y="320.4" style="stroke: #000000; stroke-width: 0.8"/>
      </g>
     </g>
     <g id="text_2">
      <!-- Specific -->
      <g transform="translate(237.938281 334.998438) scale(0.1 -0.1)">
       <defs>
        <path id="DejaVuSans-53" d="M 3425 4513 
L 3425 3897 
Q 3066 4069 2747 4153 
Q 2428 4238 2131 4238 
Q 1616 4238 1336 4038 
Q 1056 3838 1056 3469 
Q 1056 3159 1242 3001 
Q 1428 2844 1947 2747 
L 2328 2669 
Q 3034 2534 3370 2195 
Q 3706 1856 3706 1288 
Q 3706 609 3251 259 
Q 2797 -91 1919 -91 
Q 1588 -91 1214 -16 
Q 841 59 441 206 
L 441 856 
Q 825 641 1194 531 
Q 1563 422 1919 422 
Q 2459 422 2753 634 
Q 3047 847 3047 1241 
Q 3047 1584 2836 1778 
Q 2625 1972 2144 2069 
L 1759 2144 
Q 1053 2284 737 2584 
Q 422 2884 422 3419 
Q 422 4038 858 4394 
Q 1294 4750 2059 4750 
Q 2388 4750 2728 4690 
Q 3069 4631 3425 4513 
z
" transform="scale(0.015625)"/>
        <path id="DejaVuSans-70" d="M 1159 525 
L 1159 -1331 
L 581 -1331 
L 581 3500 
L 1159 3500 
L 1159 2969 
Q 1341 3281 1617 3432 
Q 1894 3584 2278 3584 
Q 2916 3584 3314 3078 
Q 3713 2572 3713 1747 
Q 3713 922 3314 415 
Q 2916 -91 2278 -91 
Q 1894 -91 1617 61 
Q 1341 213 1159 525 
z
M 3116 1747 
Q 3116 2381 2855 2742 
Q 2594 3103 2138 3103 
Q 1681 3103 1420 2742 
Q 1159 2381 1159 1747 
Q 1159 1113 1420 752 
Q 1681 391 2138 391 
Q 2594 391 2855 752 
Q 3116 1113 3116 1747 
z
" transform="scale(0.015625)"/>
        <path id="DejaVuSans-65" d="M 3597 1894 
L 3597 1613 
L 953 1613 
Q 991 1019 1311 708 
Q 1631 397 2203 397 
Q 2534 397 2845 478 
Q 3156 559 3463 722 
L 3463 178 
Q 3153 47 2828 -22 
Q 2503 -91 2169 -91 
Q 1331 -91 842 396 
Q 353 884 353 1716 
Q 353 2575 817 3079 
Q 1281 3584 2069 3584 
Q 2775 3584 3186 3129 
Q 3597 2675 3597 1894 
z
M 3022 2063 
Q 3016 2534 2758 2815 
Q 2500 3097 2075 3097 
Q 1594 3097 1305 2825 
Q 1016 2553 972 2059 
L 3022 2063 
z
" transform="scale(0.015625)"/>
        <path id="DejaVuSans-63" d="M 3122 3366 
L 3122 2828 
Q 2878 2963 2633 3030 
Q 2388 3097 2138 3097 
Q 1578 3097 1268 2742 
Q 959 2388 959 1747 
Q 959 1106 1268 751 
Q 1578 397 2138 397 
Q 2388 397 2633 464 
Q 2878 531 3122 666 
L 3122 134 
Q 2881 22 2623 -34 
Q 2366 -91 2075 -91 
Q 1284 -91 818 406 
Q 353 903 353 1747 
Q 353 2603 823 3093 
Q 1294 3584 2113 3584 
Q 2378 3584 2631 3529 
Q 2884 3475 3122 3366 
z
" transform="scale(0.015625)"/>
        <path id="DejaVuSans-69" d="M 603 3500 
L 1178 3500 
L 1178 0 
L 603 0 
L 603 3500 
z
M 603 4863 
L 1178 4863 
L 1178 4134 
L 603 4134 
L 603 4863 
z
" transform="scale(0.015625)"/>
        <path id="DejaVuSans-66" d="M 2375 4863 
L 2375 4384 
L 1825 4384 
Q 1516 4384 1395 4259 
Q 1275 4134 1275 3809 
L 1275 3500 
L 2222 3500 
L 2222 3053 
L 1275 3053 
L 1275 0 
L 697 0 
L 697 3053 
L 147 3053 
L 147 3500 
L 697 3500 
L 697 3744 
Q 697 4328 969 4595 
Q 1241 4863 1831 4863 
L 2375 4863 
z
" transform="scale(0.015625)"/>
       </defs>
       <use xlink:href="#DejaVuSans-53"/>
       <use xlink:href="#DejaVuSans-70" transform="translate(63.476562 0)"/>
       <use xlink:href="#DejaVuSans-65" transform="translate(126.953125 0)"/>
       <use xlink:href="#DejaVuSans-63" transform="translate(188.476562 0)"/>
       <use xlink:href="#DejaVuSans-69" transform="translate(243.457031 0)"/>
       <use xlink:href="#DejaVuSans-66" transform="translate(271.240234 0)"/>
       <use xlink:href="#DejaVuSans-69" transform="translate(306.445312 0)"/>
       <use xlink:href="#DejaVuSans-63" transform="translate(334.228516 0)"/>
      </g>
     </g>
    </g>
    <g id="xtick_3">
     <g id="line2d_3">
      <g>
       <use xlink:href="#m2873b48d84" x="369" y="320.4" style="stroke: #000000; stroke-width: 0.8"/>
      </g>
     </g>
     <g id="text_3">
      <!-- Spurious -->
      <g transform="translate(347.205469 334.998438) scale(0.1 -0.1)">
       <defs>
        <path id="DejaVuSans-75" d="M 544 1381 
L 544 3500 
L 1119 3500 
L 1119 1403 
Q 1119 906 1312 657 
Q 1506 409 1894 409 
Q 2359 409 2629 706 
Q 2900 1003 2900 1516 
L 2900 3500 
L 3475 3500 
L 3475 0 
L 2900 0 
L 2900 538 
Q 2691 219 2414 64 
Q 2138 -91 1772 -91 
Q 1169 -91 856 284 
Q 544 659 544 1381 
z
M 1991 3584 
L 1991 3584 
z
" transform="scale(0.015625)"/>
        <path id="DejaVuSans-72" d="M 2631 2963 
Q 2534 3019 2420 3045 
Q 2306 3072 2169 3072 
Q 1681 3072 1420 2755 
Q 1159 2438 1159 1844 
L 1159 0 
L 581 0 
L 581 3500 
L 1159 3500 
L 1159 2956 
Q 1341 3275 1631 3429 
Q 1922 3584 2338 3584 
Q 2397 3584 2469 3576 
Q 2541 3569 2628 3553 
L 2631 2963 
z
" transform="scale(0.015625)"/>
        <path id="DejaVuSans-73" d="M 2834 3397 
L 2834 2853 
Q 2591 2978 2328 3040 
Q 2066 3103 1784 3103 
Q 1356 3103 1142 2972 
Q 928 2841 928 2578 
Q 928 2378 1081 2264 
Q 1234 2150 1697 2047 
L 1894 2003 
Q 2506 1872 2764 1633 
Q 3022 1394 3022 966 
Q 3022 478 2636 193 
Q 2250 -91 1575 -91 
Q 1294 -91 989 -36 
Q 684 19 347 128 
L 347 722 
Q 666 556 975 473 
Q 1284 391 1588 391 
Q 1994 391 2212 530 
Q 2431 669 2431 922 
Q 2431 1156 2273 1281 
Q 2116 1406 1581 1522 
L 1381 1569 
Q 847 1681 609 1914 
Q 372 2147 372 2553 
Q 372 3047 722 3315 
Q 1072 3584 1716 3584 
Q 2034 3584 2315 3537 
Q 2597 3491 2834 3397 
z
" transform="scale(0.015625)"/>
       </defs>
       <use xlink:href="#DejaVuSans-53"/>
       <use xlink:href="#DejaVuSans-70" transform="translate(63.476562 0)"/>
       <use xlink:href="#DejaVuSans-75" transform="translate(126.953125 0)"/>
       <use xlink:href="#DejaVuSans-72" transform="translate(190.332031 0)"/>
       <use xlink:href="#DejaVuSans-69" transform="translate(231.445312 0)"/>
       <use xlink:href="#DejaVuSans-6f" transform="translate(259.228516 0)"/>
       <use xlink:href="#DejaVuSans-75" transform="translate(320.410156 0)"/>
       <use xlink:href="#DejaVuSans-73" transform="translate(383.789062 0)"/>
      </g>
     </g>
    </g>
    <g id="xtick_4">
     <g id="line2d_4">
      <g>
       <use xlink:href="#m2873b48d84" x="480.6" y="320.4" style="stroke: #000000; stroke-width: 0.8"/>
      </g>
     </g>
     <g id="text_4">
      <!-- Non-specific -->
      <g transform="translate(449.935156 334.998438) scale(0.1 -0.1)">
       <defs>
        <path id="DejaVuSans-6e" d="M 3513 2113 
L 3513 0 
L 2938 0 
L 2938 2094 
Q 2938 2591 2744 2837 
Q 2550 3084 2163 3084 
Q 1697 3084 1428 2787 
Q 1159 2491 1159 1978 
L 1159 0 
L 581 0 
L 581 3500 
L 1159 3500 
L 1159 2956 
Q 1366 3272 1645 3428 
Q 1925 3584 2291 3584 
Q 2894 3584 3203 3211 
Q 3513 2838 3513 2113 
z
" transform="scale(0.015625)"/>
        <path id="DejaVuSans-2d" d="M 313 2009 
L 1997 2009 
L 1997 1497 
L 313 1497 
L 313 2009 
z
" transform="scale(0.015625)"/>
       </defs>
       <use xlink:href="#DejaVuSans-4e"/>
       <use xlink:href="#DejaVuSans-6f" transform="translate(74.804688 0)"/>
       <use xlink:href="#DejaVuSans-6e" transform="translate(135.986328 0)"/>
       <use xlink:href="#DejaVuSans-2d" transform="translate(199.365234 0)"/>
       <use xlink:href="#DejaVuSans-73" transform="translate(235.449219 0)"/>
       <use xlink:href="#DejaVuSans-70" transform="translate(287.548828 0)"/>
       <use xlink:href="#DejaVuSans-65" transform="translate(351.025391 0)"/>
       <use xlink:href="#DejaVuSans-63" transform="translate(412.548828 0)"/>
       <use xlink:href="#DejaVuSans-69" transform="translate(467.529297 0)"/>
       <use xlink:href="#DejaVuSans-66" transform="translate(495.3125 0)"/>
       <use xlink:href="#DejaVuSans-69" transform="translate(530.517578 0)"/>
       <use xlink:href="#DejaVuSans-63" transform="translate(558.300781 0)"/>
      </g>
     </g>
    </g>
    <g id="xtick_5">
     <g id="line2d_5">
      <g>
       <use xlink:href="#m2873b48d84" x="592.2" y="320.4" style="stroke: #000000; stroke-width: 0.8"/>
      </g>
     </g>
     <g id="text_5">
      <!-- other -->
      <g transform="translate(578.879688 334.998438) scale(0.1 -0.1)">
       <defs>
        <path id="DejaVuSans-74" d="M 1172 4494 
L 1172 3500 
L 2356 3500 
L 2356 3053 
L 1172 3053 
L 1172 1153 
Q 1172 725 1289 603 
Q 1406 481 1766 481 
L 2356 481 
L 2356 0 
L 1766 0 
Q 1100 0 847 248 
Q 594 497 594 1153 
L 594 3053 
L 172 3053 
L 172 3500 
L 594 3500 
L 594 4494 
L 1172 4494 
z
" transform="scale(0.015625)"/>
        <path id="DejaVuSans-68" d="M 3513 2113 
L 3513 0 
L 2938 0 
L 2938 2094 
Q 2938 2591 2744 2837 
Q 2550 3084 2163 3084 
Q 1697 3084 1428 2787 
Q 1159 2491 1159 1978 
L 1159 0 
L 581 0 
L 581 4863 
L 1159 4863 
L 1159 2956 
Q 1366 3272 1645 3428 
Q 1925 3584 2291 3584 
Q 2894 3584 3203 3211 
Q 3513 2838 3513 2113 
z
" transform="scale(0.015625)"/>
       </defs>
       <use xlink:href="#DejaVuSans-6f"/>
       <use xlink:href="#DejaVuSans-74" transform="translate(61.181641 0)"/>
       <use xlink:href="#DejaVuSans-68" transform="translate(100.390625 0)"/>
       <use xlink:href="#DejaVuSans-65" transform="translate(163.769531 0)"/>
       <use xlink:href="#DejaVuSans-72" transform="translate(225.292969 0)"/>
      </g>
     </g>
    </g>
    <g id="text_6">
     <!-- Connectivity category -->
     <g transform="translate(313.98125 348.676562) scale(0.1 -0.1)">
      <defs>
       <path id="DejaVuSans-43" d="M 4122 4306 
L 4122 3641 
Q 3803 3938 3442 4084 
Q 3081 4231 2675 4231 
Q 1875 4231 1450 3742 
Q 1025 3253 1025 2328 
Q 1025 1406 1450 917 
Q 1875 428 2675 428 
Q 3081 428 3442 575 
Q 3803 722 4122 1019 
L 4122 359 
Q 3791 134 3420 21 
Q 3050 -91 2638 -91 
Q 1578 -91 968 557 
Q 359 1206 359 2328 
Q 359 3453 968 4101 
Q 1578 4750 2638 4750 
Q 3056 4750 3426 4639 
Q 3797 4528 4122 4306 
z
" transform="scale(0.015625)"/>
       <path id="DejaVuSans-76" d="M 191 3500 
L 800 3500 
L 1894 563 
L 2988 3500 
L 3597 3500 
L 2284 0 
L 1503 0 
L 191 3500 
z
" transform="scale(0.015625)"/>
       <path id="DejaVuSans-79" d="M 2059 -325 
Q 1816 -950 1584 -1140 
Q 1353 -1331 966 -1331 
L 506 -1331 
L 506 -850 
L 844 -850 
Q 1081 -850 1212 -737 
Q 1344 -625 1503 -206 
L 1606 56 
L 191 3500 
L 800 3500 
L 1894 763 
L 2988 3500 
L 3597 3500 
L 2059 -325 
z
" transform="scale(0.015625)"/>
       <path id="DejaVuSans-20" transform="scale(0.015625)"/>
       <path id="DejaVuSans-61" d="M 2194 1759 
Q 1497 1759 1228 1600 
Q 959 1441 959 1056 
Q 959 750 1161 570 
Q 1363 391 1709 391 
Q 2188 391 2477 730 
Q 2766 1069 2766 1631 
L 2766 1759 
L 2194 1759 
z
M 3341 1997 
L 3341 0 
L 2766 0 
L 2766 531 
Q 2569 213 2275 61 
Q 1981 -91 1556 -91 
Q 1019 -91 701 211 
Q 384 513 384 1019 
Q 384 1609 779 1909 
Q 1175 2209 1959 2209 
L 2766 2209 
L 2766 2266 
Q 2766 2663 2505 2880 
Q 2244 3097 1772 3097 
Q 1472 3097 1187 3025 
Q 903 2953 641 2809 
L 641 3341 
Q 956 3463 1253 3523 
Q 1550 3584 1831 3584 
Q 2591 3584 2966 3190 
Q 3341 2797 3341 1997 
z
" transform="scale(0.015625)"/>
       <path id="DejaVuSans-67" d="M 2906 1791 
Q 2906 2416 2648 2759 
Q 2391 3103 1925 3103 
Q 1463 3103 1205 2759 
Q 947 2416 947 1791 
Q 947 1169 1205 825 
Q 1463 481 1925 481 
Q 2391 481 2648 825 
Q 2906 1169 2906 1791 
z
M 3481 434 
Q 3481 -459 3084 -895 
Q 2688 -1331 1869 -1331 
Q 1566 -1331 1297 -1286 
Q 1028 -1241 775 -1147 
L 775 -588 
Q 1028 -725 1275 -790 
Q 1522 -856 1778 -856 
Q 2344 -856 2625 -561 
Q 2906 -266 2906 331 
L 2906 616 
Q 2728 306 2450 153 
Q 2172 0 1784 0 
Q 1141 0 747 490 
Q 353 981 353 1791 
Q 353 2603 747 3093 
Q 1141 3584 1784 3584 
Q 2172 3584 2450 3431 
Q 2728 3278 2906 2969 
L 2906 3500 
L 3481 3500 
L 3481 434 
z
" transform="scale(0.015625)"/>
      </defs>
      <use xlink:href="#DejaVuSans-43"/>
      <use xlink:href="#DejaVuSans-6f" transform="translate(69.824219 0)"/>
      <use xlink:href="#DejaVuSans-6e" transform="translate(131.005859 0)"/>
      <use xlink:href="#DejaVuSans-6e" transform="translate(194.384766 0)"/>
      <use xlink:href="#DejaVuSans-65" transform="translate(257.763672 0)"/>
      <use xlink:href="#DejaVuSans-63" transform="translate(319.287109 0)"/>
      <use xlink:href="#DejaVuSans-74" transform="translate(374.267578 0)"/>
      <use xlink:href="#DejaVuSans-69" transform="translate(413.476562 0)"/>
      <use xlink:href="#DejaVuSans-76" transform="translate(441.259766 0)"/>
      <use xlink:href="#DejaVuSans-69" transform="translate(500.439453 0)"/>
      <use xlink:href="#DejaVuSans-74" transform="translate(528.222656 0)"/>
      <use xlink:href="#DejaVuSans-79" transform="translate(567.431641 0)"/>
      <use xlink:href="#DejaVuSans-20" transform="translate(626.611328 0)"/>
      <use xlink:href="#DejaVuSans-63" transform="translate(658.398438 0)"/>
      <use xlink:href="#DejaVuSans-61" transform="translate(713.378906 0)"/>
      <use xlink:href="#DejaVuSans-74" transform="translate(774.658203 0)"/>
      <use xlink:href="#DejaVuSans-65" transform="translate(813.867188 0)"/>
      <use xlink:href="#DejaVuSans-67" transform="translate(875.390625 0)"/>
      <use xlink:href="#DejaVuSans-6f" transform="translate(938.867188 0)"/>
      <use xlink:href="#DejaVuSans-72" transform="translate(1000.048828 0)"/>
      <use xlink:href="#DejaVuSans-79" transform="translate(1041.162109 0)"/>
     </g>
    </g>
   </g>
   <g id="matplotlib.axis_2">
    <g id="ytick_1">
     <g id="line2d_6">
      <defs>
       <path id="m2e0e129eba" d="M 0 0 
L -3.5 0 
" style="stroke: #000000; stroke-width: 0.8"/>
      </defs>
      <g>
       <use xlink:href="#m2e0e129eba" x="90" y="320.4" style="stroke: #000000; stroke-width: 0.8"/>
      </g>
     </g>
     <g id="text_7">
      <!-- 0 -->
      <g transform="translate(76.6375 324.199219) scale(0.1 -0.1)">
       <defs>
        <path id="DejaVuSans-30" d="M 2034 4250 
Q 1547 4250 1301 3770 
Q 1056 3291 1056 2328 
Q 1056 1369 1301 889 
Q 1547 409 2034 409 
Q 2525 409 2770 889 
Q 3016 1369 3016 2328 
Q 3016 3291 2770 3770 
Q 2525 4250 2034 4250 
z
M 2034 4750 
Q 2819 4750 3233 4129 
Q 3647 3509 3647 2328 
Q 3647 1150 3233 529 
Q 2819 -91 2034 -91 
Q 1250 -91 836 529 
Q 422 1150 422 2328 
Q 422 3509 836 4129 
Q 1250 4750 2034 4750 
z
" transform="scale(0.015625)"/>
       </defs>
       <use xlink:href="#DejaVuSans-30"/>
      </g>
     </g>
    </g>
    <g id="ytick_2">
     <g id="line2d_7">
      <g>
       <use xlink:href="#m2e0e129eba" x="90" y="281.288889" style="stroke: #000000; stroke-width: 0.8"/>
      </g>
     </g>
     <g id="text_8">
      <!-- 20 -->
      <g transform="translate(70.275 285.088108) scale(0.1 -0.1)">
       <defs>
        <path id="DejaVuSans-32" d="M 1228 531 
L 3431 531 
L 3431 0 
L 469 0 
L 469 531 
Q 828 903 1448 1529 
Q 2069 2156 2228 2338 
Q 2531 2678 2651 2914 
Q 2772 3150 2772 3378 
Q 2772 3750 2511 3984 
Q 2250 4219 1831 4219 
Q 1534 4219 1204 4116 
Q 875 4013 500 3803 
L 500 4441 
Q 881 4594 1212 4672 
Q 1544 4750 1819 4750 
Q 2544 4750 2975 4387 
Q 3406 4025 3406 3419 
Q 3406 3131 3298 2873 
Q 3191 2616 2906 2266 
Q 2828 2175 2409 1742 
Q 1991 1309 1228 531 
z
" transform="scale(0.015625)"/>
       </defs>
       <use xlink:href="#DejaVuSans-32"/>
       <use xlink:href="#DejaVuSans-30" transform="translate(63.623047 0)"/>
      </g>
     </g>
    </g>
    <g id="ytick_3">
     <g id="line2d_8">
      <g>
       <use xlink:href="#m2e0e129eba" x="90" y="242.177778" style="stroke: #000000; stroke-width: 0.8"/>
      </g>
     </g>
     <g id="text_9">
      <!-- 40 -->
      <g transform="translate(70.275 245.976997) scale(0.1 -0.1)">
       <defs>
        <path id="DejaVuSans-34" d="M 2419 4116 
L 825 1625 
L 2419 1625 
L 2419 4116 
z
M 2253 4666 
L 3047 4666 
L 3047 1625 
L 3713 1625 
L 3713 1100 
L 3047 1100 
L 3047 0 
L 2419 0 
L 2419 1100 
L 313 1100 
L 313 1709 
L 2253 4666 
z
" transform="scale(0.015625)"/>
       </defs>
       <use xlink:href="#DejaVuSans-34"/>
       <use xlink:href="#DejaVuSans-30" transform="translate(63.623047 0)"/>
      </g>
     </g>
    </g>
    <g id="ytick_4">
     <g id="line2d_9">
      <g>
       <use xlink:href="#m2e0e129eba" x="90" y="203.066667" style="stroke: #000000; stroke-width: 0.8"/>
      </g>
     </g>
     <g id="text_10">
      <!-- 60 -->
      <g transform="translate(70.275 206.865885) scale(0.1 -0.1)">
       <defs>
        <path id="DejaVuSans-36" d="M 2113 2584 
Q 1688 2584 1439 2293 
Q 1191 2003 1191 1497 
Q 1191 994 1439 701 
Q 1688 409 2113 409 
Q 2538 409 2786 701 
Q 3034 994 3034 1497 
Q 3034 2003 2786 2293 
Q 2538 2584 2113 2584 
z
M 3366 4563 
L 3366 3988 
Q 3128 4100 2886 4159 
Q 2644 4219 2406 4219 
Q 1781 4219 1451 3797 
Q 1122 3375 1075 2522 
Q 1259 2794 1537 2939 
Q 1816 3084 2150 3084 
Q 2853 3084 3261 2657 
Q 3669 2231 3669 1497 
Q 3669 778 3244 343 
Q 2819 -91 2113 -91 
Q 1303 -91 875 529 
Q 447 1150 447 2328 
Q 447 3434 972 4092 
Q 1497 4750 2381 4750 
Q 2619 4750 2861 4703 
Q 3103 4656 3366 4563 
z
" transform="scale(0.015625)"/>
       </defs>
       <use xlink:href="#DejaVuSans-36"/>
       <use xlink:href="#DejaVuSans-30" transform="translate(63.623047 0)"/>
      </g>
     </g>
    </g>
    <g id="ytick_5">
     <g id="line2d_10">
      <g>
       <use xlink:href="#m2e0e129eba" x="90" y="163.955556" style="stroke: #000000; stroke-width: 0.8"/>
      </g>
     </g>
     <g id="text_11">
      <!-- 80 -->
      <g transform="translate(70.275 167.754774) scale(0.1 -0.1)">
       <defs>
        <path id="DejaVuSans-38" d="M 2034 2216 
Q 1584 2216 1326 1975 
Q 1069 1734 1069 1313 
Q 1069 891 1326 650 
Q 1584 409 2034 409 
Q 2484 409 2743 651 
Q 3003 894 3003 1313 
Q 3003 1734 2745 1975 
Q 2488 2216 2034 2216 
z
M 1403 2484 
Q 997 2584 770 2862 
Q 544 3141 544 3541 
Q 544 4100 942 4425 
Q 1341 4750 2034 4750 
Q 2731 4750 3128 4425 
Q 3525 4100 3525 3541 
Q 3525 3141 3298 2862 
Q 3072 2584 2669 2484 
Q 3125 2378 3379 2068 
Q 3634 1759 3634 1313 
Q 3634 634 3220 271 
Q 2806 -91 2034 -91 
Q 1263 -91 848 271 
Q 434 634 434 1313 
Q 434 1759 690 2068 
Q 947 2378 1403 2484 
z
M 1172 3481 
Q 1172 3119 1398 2916 
Q 1625 2713 2034 2713 
Q 2441 2713 2670 2916 
Q 2900 3119 2900 3481 
Q 2900 3844 2670 4047 
Q 2441 4250 2034 4250 
Q 1625 4250 1398 4047 
Q 1172 3844 1172 3481 
z
" transform="scale(0.015625)"/>
       </defs>
       <use xlink:href="#DejaVuSans-38"/>
       <use xlink:href="#DejaVuSans-30" transform="translate(63.623047 0)"/>
      </g>
     </g>
    </g>
    <g id="ytick_6">
     <g id="line2d_11">
      <g>
       <use xlink:href="#m2e0e129eba" x="90" y="124.844444" style="stroke: #000000; stroke-width: 0.8"/>
      </g>
     </g>
     <g id="text_12">
      <!-- 100 -->
      <g transform="translate(63.9125 128.643663) scale(0.1 -0.1)">
       <defs>
        <path id="DejaVuSans-31" d="M 794 531 
L 1825 531 
L 1825 4091 
L 703 3866 
L 703 4441 
L 1819 4666 
L 2450 4666 
L 2450 531 
L 3481 531 
L 3481 0 
L 794 0 
L 794 531 
z
" transform="scale(0.015625)"/>
       </defs>
       <use xlink:href="#DejaVuSans-31"/>
       <use xlink:href="#DejaVuSans-30" transform="translate(63.623047 0)"/>
       <use xlink:href="#DejaVuSans-30" transform="translate(127.246094 0)"/>
      </g>
     </g>
    </g>
    <g id="ytick_7">
     <g id="line2d_12">
      <g>
       <use xlink:href="#m2e0e129eba" x="90" y="85.733333" style="stroke: #000000; stroke-width: 0.8"/>
      </g>
     </g>
     <g id="text_13">
      <!-- 120 -->
      <g transform="translate(63.9125 89.532552) scale(0.1 -0.1)">
       <use xlink:href="#DejaVuSans-31"/>
       <use xlink:href="#DejaVuSans-32" transform="translate(63.623047 0)"/>
       <use xlink:href="#DejaVuSans-30" transform="translate(127.246094 0)"/>
      </g>
     </g>
    </g>
    <g id="ytick_8">
     <g id="line2d_13">
      <g>
       <use xlink:href="#m2e0e129eba" x="90" y="46.622222" style="stroke: #000000; stroke-width: 0.8"/>
      </g>
     </g>
     <g id="text_14">
      <!-- 140 -->
      <g transform="translate(63.9125 50.421441) scale(0.1 -0.1)">
       <use xlink:href="#DejaVuSans-31"/>
       <use xlink:href="#DejaVuSans-34" transform="translate(63.623047 0)"/>
       <use xlink:href="#DejaVuSans-30" transform="translate(127.246094 0)"/>
      </g>
     </g>
    </g>
    <g id="text_15">
     <!-- cont_variable -->
     <g transform="translate(57.554687 215.409375) rotate(-90) scale(0.1 -0.1)">
      <defs>
       <path id="DejaVuSans-5f" d="M 3263 -1063 
L 3263 -1509 
L -63 -1509 
L -63 -1063 
L 3263 -1063 
z
" transform="scale(0.015625)"/>
       <path id="DejaVuSans-62" d="M 3116 1747 
Q 3116 2381 2855 2742 
Q 2594 3103 2138 3103 
Q 1681 3103 1420 2742 
Q 1159 2381 1159 1747 
Q 1159 1113 1420 752 
Q 1681 391 2138 391 
Q 2594 391 2855 752 
Q 3116 1113 3116 1747 
z
M 1159 2969 
Q 1341 3281 1617 3432 
Q 1894 3584 2278 3584 
Q 2916 3584 3314 3078 
Q 3713 2572 3713 1747 
Q 3713 922 3314 415 
Q 2916 -91 2278 -91 
Q 1894 -91 1617 61 
Q 1341 213 1159 525 
L 1159 0 
L 581 0 
L 581 4863 
L 1159 4863 
L 1159 2969 
z
" transform="scale(0.015625)"/>
       <path id="DejaVuSans-6c" d="M 603 4863 
L 1178 4863 
L 1178 0 
L 603 0 
L 603 4863 
z
" transform="scale(0.015625)"/>
      </defs>
      <use xlink:href="#DejaVuSans-63"/>
      <use xlink:href="#DejaVuSans-6f" transform="translate(54.980469 0)"/>
      <use xlink:href="#DejaVuSans-6e" transform="translate(116.162109 0)"/>
      <use xlink:href="#DejaVuSans-74" transform="translate(179.541016 0)"/>
      <use xlink:href="#DejaVuSans-5f" transform="translate(218.75 0)"/>
      <use xlink:href="#DejaVuSans-76" transform="translate(268.75 0)"/>
      <use xlink:href="#DejaVuSans-61" transform="translate(327.929688 0)"/>
      <use xlink:href="#DejaVuSans-72" transform="translate(389.208984 0)"/>
      <use xlink:href="#DejaVuSans-69" transform="translate(430.322266 0)"/>
      <use xlink:href="#DejaVuSans-61" transform="translate(458.105469 0)"/>
      <use xlink:href="#DejaVuSans-62" transform="translate(519.384766 0)"/>
      <use xlink:href="#DejaVuSans-6c" transform="translate(582.861328 0)"/>
      <use xlink:href="#DejaVuSans-65" transform="translate(610.644531 0)"/>
     </g>
    </g>
   </g>
   <g id="line2d_14">
    <path clip-path="url(#p282a8a0ca7)" style="fill: none; stroke: #424242; stroke-width: 2.25; stroke-linecap: square"/>
   </g>
   <g id="line2d_15">
    <path clip-path="url(#p282a8a0ca7)" style="fill: none; stroke: #424242; stroke-width: 2.25; stroke-linecap: square"/>
   </g>
   <g id="line2d_16">
    <path clip-path="url(#p282a8a0ca7)" style="fill: none; stroke: #424242; stroke-width: 2.25; stroke-linecap: square"/>
   </g>
   <g id="line2d_17">
    <path clip-path="url(#p282a8a0ca7)" style="fill: none; stroke: #424242; stroke-width: 2.25; stroke-linecap: square"/>
   </g>
   <g id="line2d_18">
    <path clip-path="url(#p282a8a0ca7)" style="fill: none; stroke: #424242; stroke-width: 2.25; stroke-linecap: square"/>
   </g>
   <g id="line2d_19">
    <path clip-path="url(#p282a8a0ca7)" style="fill: none; stroke: #424242; stroke-width: 2.25; stroke-linecap: square"/>
   </g>
   <g id="line2d_20">
    <path clip-path="url(#p282a8a0ca7)" style="fill: none; stroke: #424242; stroke-width: 2.25; stroke-linecap: square"/>
   </g>
   <g id="line2d_21">
    <path clip-path="url(#p282a8a0ca7)" style="fill: none; stroke: #424242; stroke-width: 2.25; stroke-linecap: square"/>
   </g>
   <g id="line2d_22">
    <path clip-path="url(#p282a8a0ca7)" style="fill: none; stroke: #424242; stroke-width: 2.25; stroke-linecap: square"/>
   </g>
   <g id="line2d_23">
    <path clip-path="url(#p282a8a0ca7)" style="fill: none; stroke: #424242; stroke-width: 2.25; stroke-linecap: square"/>
   </g>
   <g id="line2d_24">
    <path clip-path="url(#p282a8a0ca7)" style="fill: none; stroke: #424242; stroke-width: 2.25; stroke-linecap: square"/>
   </g>
   <g id="line2d_25">
    <path clip-path="url(#p282a8a0ca7)" style="fill: none; stroke: #424242; stroke-width: 2.25; stroke-linecap: square"/>
   </g>
   <g id="line2d_26">
    <path clip-path="url(#p282a8a0ca7)" style="fill: none; stroke: #424242; stroke-width: 2.25; stroke-linecap: square"/>
   </g>
   <g id="line2d_27">
    <path clip-path="url(#p282a8a0ca7)" style="fill: none; stroke: #424242; stroke-width: 2.25; stroke-linecap: square"/>
   </g>
   <g id="line2d_28">
    <path clip-path="url(#p282a8a0ca7)" style="fill: none; stroke: #424242; stroke-width: 2.25; stroke-linecap: square"/>
   </g>
   <g id="line2d_29">
    <path clip-path="url(#p282a8a0ca7)" style="fill: none; stroke: #424242; stroke-width: 2.25; stroke-linecap: square"/>
   </g>
   <g id="line2d_30">
    <path clip-path="url(#p282a8a0ca7)" style="fill: none; stroke: #424242; stroke-width: 2.25; stroke-linecap: square"/>
   </g>
   <g id="line2d_31">
    <path clip-path="url(#p282a8a0ca7)" style="fill: none; stroke: #424242; stroke-width: 2.25; stroke-linecap: square"/>
   </g>
   <g id="line2d_32">
    <path clip-path="url(#p282a8a0ca7)" style="fill: none; stroke: #424242; stroke-width: 2.25; stroke-linecap: square"/>
   </g>
   <g id="line2d_33">
    <path clip-path="url(#p282a8a0ca7)" style="fill: none; stroke: #424242; stroke-width: 2.25; stroke-linecap: square"/>
   </g>
   <g id="patch_33">
    <path d="M 90 320.4 
L 90 43.2 
" style="fill: none; stroke: #000000; stroke-width: 0.8; stroke-linejoin: miter; stroke-linecap: square"/>
   </g>
   <g id="patch_34">
    <path d="M 648 320.4 
L 648 43.2 
" style="fill: none; stroke: #000000; stroke-width: 0.8; stroke-linejoin: miter; stroke-linecap: square"/>
   </g>
   <g id="patch_35">
    <path d="M 90 320.4 
L 648 320.4 
" style="fill: none; stroke: #000000; stroke-width: 0.8; stroke-linejoin: miter; stroke-linecap: square"/>
   </g>
   <g id="patch_36">
    <path d="M 90 43.2 
L 648 43.2 
" style="fill: none; stroke: #000000; stroke-width: 0.8; stroke-linejoin: miter; stroke-linecap: square"/>
   </g>
   <g id="PathCollection_1">
    <defs>
     <path id="m82f6d440b2" d="M 0 2.5 
C 0.663008 2.5 1.29895 2.236584 1.767767 1.767767 
C 2.236584 1.29895 2.5 0.663008 2.5 0 
C 2.5 -0.663008 2.236584 -1.29895 1.767767 -1.767767 
C 1.29895 -2.236584 0.663008 -2.5 0 -2.5 
C -0.663008 -2.5 -1.29895 -2.236584 -1.767767 -1.767767 
C -2.236584 -1.29895 -2.5 -0.663008 -2.5 0 
C -2.5 0.663008 -2.236584 1.29895 -1.767767 1.767767 
C -1.29895 2.236584 -0.663008 2.5 0 2.5 
z
"/>
    </defs>
    <g clip-path="url(#p282a8a0ca7)">
     <use xlink:href="#m82f6d440b2" x="141.852305" y="304.755556" style="fill-opacity: 0.3"/>
     <use xlink:href="#m82f6d440b2" x="151.913263" y="304.755556" style="fill-opacity: 0.3"/>
     <use xlink:href="#m82f6d440b2" x="141.956547" y="304.755556" style="fill-opacity: 0.3"/>
     <use xlink:href="#m82f6d440b2" x="135.158787" y="304.755556" style="fill-opacity: 0.3"/>
     <use xlink:href="#m82f6d440b2" x="141.973967" y="302.8" style="fill-opacity: 0.3"/>
     <use xlink:href="#m82f6d440b2" x="151.776806" y="302.8" style="fill-opacity: 0.3"/>
     <use xlink:href="#m82f6d440b2" x="153.621868" y="302.8" style="fill-opacity: 0.3"/>
     <use xlink:href="#m82f6d440b2" x="149.397548" y="306.711111" style="fill-opacity: 0.3"/>
     <use xlink:href="#m82f6d440b2" x="150.433467" y="306.711111" style="fill-opacity: 0.3"/>
     <use xlink:href="#m82f6d440b2" x="139.816658" y="306.711111" style="fill-opacity: 0.3"/>
     <use xlink:href="#m82f6d440b2" x="139.412018" y="306.711111" style="fill-opacity: 0.3"/>
     <use xlink:href="#m82f6d440b2" x="138.087053" y="306.711111" style="fill-opacity: 0.3"/>
     <use xlink:href="#m82f6d440b2" x="154.311438" y="306.711111" style="fill-opacity: 0.3"/>
     <use xlink:href="#m82f6d440b2" x="153.993934" y="306.711111" style="fill-opacity: 0.3"/>
     <use xlink:href="#m82f6d440b2" x="141.951935" y="306.711111" style="fill-opacity: 0.3"/>
     <use xlink:href="#m82f6d440b2" x="147.680069" y="306.711111" style="fill-opacity: 0.3"/>
     <use xlink:href="#m82f6d440b2" x="147.43167" y="306.711111" style="fill-opacity: 0.3"/>
     <use xlink:href="#m82f6d440b2" x="143.396014" y="306.711111" style="fill-opacity: 0.3"/>
     <use xlink:href="#m82f6d440b2" x="145.050725" y="306.711111" style="fill-opacity: 0.3"/>
     <use xlink:href="#m82f6d440b2" x="141.07836" y="306.711111" style="fill-opacity: 0.3"/>
     <use xlink:href="#m82f6d440b2" x="139.035675" y="306.711111" style="fill-opacity: 0.3"/>
     <use xlink:href="#m82f6d440b2" x="144.444362" y="302.8" style="fill-opacity: 0.3"/>
     <use xlink:href="#m82f6d440b2" x="150.432773" y="302.8" style="fill-opacity: 0.3"/>
     <use xlink:href="#m82f6d440b2" x="135.541919" y="302.8" style="fill-opacity: 0.3"/>
     <use xlink:href="#m82f6d440b2" x="149.916958" y="302.8" style="fill-opacity: 0.3"/>
     <use xlink:href="#m82f6d440b2" x="142.866684" y="302.8" style="fill-opacity: 0.3"/>
     <use xlink:href="#m82f6d440b2" x="154.021916" y="302.8" style="fill-opacity: 0.3"/>
     <use xlink:href="#m82f6d440b2" x="154.005168" y="302.8" style="fill-opacity: 0.3"/>
     <use xlink:href="#m82f6d440b2" x="136.782767" y="302.8" style="fill-opacity: 0.3"/>
     <use xlink:href="#m82f6d440b2" x="135.367213" y="302.8" style="fill-opacity: 0.3"/>
    </g>
   </g>
   <g id="PathCollection_2">
    <g clip-path="url(#p282a8a0ca7)">
     <use xlink:href="#m82f6d440b2" x="260.719312" y="304.755556" style="fill-opacity: 0.3"/>
     <use xlink:href="#m82f6d440b2" x="251.963662" y="304.755556" style="fill-opacity: 0.3"/>
     <use xlink:href="#m82f6d440b2" x="246.718486" y="304.755556" style="fill-opacity: 0.3"/>
     <use xlink:href="#m82f6d440b2" x="250.487419" y="304.755556" style="fill-opacity: 0.3"/>
     <use xlink:href="#m82f6d440b2" x="266.819107" y="304.755556" style="fill-opacity: 0.3"/>
     <use xlink:href="#m82f6d440b2" x="260.865101" y="304.755556" style="fill-opacity: 0.3"/>
     <use xlink:href="#m82f6d440b2" x="258.819576" y="304.755556" style="fill-opacity: 0.3"/>
     <use xlink:href="#m82f6d440b2" x="267.293239" y="304.755556" style="fill-opacity: 0.3"/>
     <use xlink:href="#m82f6d440b2" x="256.785383" y="304.755556" style="fill-opacity: 0.3"/>
     <use xlink:href="#m82f6d440b2" x="267.48431" y="312.577778" style="fill-opacity: 0.3"/>
     <use xlink:href="#m82f6d440b2" x="257.909648" y="312.577778" style="fill-opacity: 0.3"/>
     <use xlink:href="#m82f6d440b2" x="264.926659" y="304.755556" style="fill-opacity: 0.3"/>
     <use xlink:href="#m82f6d440b2" x="266.655649" y="304.755556" style="fill-opacity: 0.3"/>
     <use xlink:href="#m82f6d440b2" x="263.673208" y="304.755556" style="fill-opacity: 0.3"/>
     <use xlink:href="#m82f6d440b2" x="251.62057" y="302.8" style="fill-opacity: 0.3"/>
     <use xlink:href="#m82f6d440b2" x="268.063135" y="302.8" style="fill-opacity: 0.3"/>
     <use xlink:href="#m82f6d440b2" x="254.797463" y="302.8" style="fill-opacity: 0.3"/>
     <use xlink:href="#m82f6d440b2" x="250.040932" y="302.8" style="fill-opacity: 0.3"/>
     <use xlink:href="#m82f6d440b2" x="254.539714" y="302.8" style="fill-opacity: 0.3"/>
     <use xlink:href="#m82f6d440b2" x="250.046811" y="302.8" style="fill-opacity: 0.3"/>
     <use xlink:href="#m82f6d440b2" x="251.607269" y="302.8" style="fill-opacity: 0.3"/>
     <use xlink:href="#m82f6d440b2" x="259.387676" y="302.8" style="fill-opacity: 0.3"/>
     <use xlink:href="#m82f6d440b2" x="260.826196" y="302.8" style="fill-opacity: 0.3"/>
     <use xlink:href="#m82f6d440b2" x="253.037167" y="302.8" style="fill-opacity: 0.3"/>
     <use xlink:href="#m82f6d440b2" x="267.433557" y="302.8" style="fill-opacity: 0.3"/>
     <use xlink:href="#m82f6d440b2" x="248.055517" y="302.8" style="fill-opacity: 0.3"/>
     <use xlink:href="#m82f6d440b2" x="254.073691" y="302.8" style="fill-opacity: 0.3"/>
     <use xlink:href="#m82f6d440b2" x="255.368884" y="302.8" style="fill-opacity: 0.3"/>
     <use xlink:href="#m82f6d440b2" x="258.112971" y="302.8" style="fill-opacity: 0.3"/>
     <use xlink:href="#m82f6d440b2" x="260.382153" y="302.8" style="fill-opacity: 0.3"/>
     <use xlink:href="#m82f6d440b2" x="255.094321" y="302.8" style="fill-opacity: 0.3"/>
     <use xlink:href="#m82f6d440b2" x="268.186125" y="302.8" style="fill-opacity: 0.3"/>
     <use xlink:href="#m82f6d440b2" x="250.2039" y="302.8" style="fill-opacity: 0.3"/>
     <use xlink:href="#m82f6d440b2" x="248.650185" y="302.8" style="fill-opacity: 0.3"/>
     <use xlink:href="#m82f6d440b2" x="247.297918" y="302.8" style="fill-opacity: 0.3"/>
     <use xlink:href="#m82f6d440b2" x="247.771621" y="302.8" style="fill-opacity: 0.3"/>
     <use xlink:href="#m82f6d440b2" x="248.03198" y="302.8" style="fill-opacity: 0.3"/>
     <use xlink:href="#m82f6d440b2" x="258.090056" y="302.8" style="fill-opacity: 0.3"/>
     <use xlink:href="#m82f6d440b2" x="252.355648" y="302.8" style="fill-opacity: 0.3"/>
     <use xlink:href="#m82f6d440b2" x="250.089875" y="302.8" style="fill-opacity: 0.3"/>
     <use xlink:href="#m82f6d440b2" x="265.223661" y="302.8" style="fill-opacity: 0.3"/>
     <use xlink:href="#m82f6d440b2" x="246.393793" y="302.8" style="fill-opacity: 0.3"/>
     <use xlink:href="#m82f6d440b2" x="267.598877" y="302.8" style="fill-opacity: 0.3"/>
     <use xlink:href="#m82f6d440b2" x="247.01403" y="302.8" style="fill-opacity: 0.3"/>
     <use xlink:href="#m82f6d440b2" x="264.556661" y="302.8" style="fill-opacity: 0.3"/>
     <use xlink:href="#m82f6d440b2" x="259.352785" y="302.8" style="fill-opacity: 0.3"/>
     <use xlink:href="#m82f6d440b2" x="259.823691" y="302.8" style="fill-opacity: 0.3"/>
     <use xlink:href="#m82f6d440b2" x="251.153106" y="302.8" style="fill-opacity: 0.3"/>
     <use xlink:href="#m82f6d440b2" x="248.695146" y="306.711111" style="fill-opacity: 0.3"/>
     <use xlink:href="#m82f6d440b2" x="248.580546" y="306.711111" style="fill-opacity: 0.3"/>
     <use xlink:href="#m82f6d440b2" x="260.758703" y="306.711111" style="fill-opacity: 0.3"/>
     <use xlink:href="#m82f6d440b2" x="263.11726" y="306.711111" style="fill-opacity: 0.3"/>
     <use xlink:href="#m82f6d440b2" x="260.172321" y="306.711111" style="fill-opacity: 0.3"/>
     <use xlink:href="#m82f6d440b2" x="250.446709" y="306.711111" style="fill-opacity: 0.3"/>
     <use xlink:href="#m82f6d440b2" x="248.136887" y="306.711111" style="fill-opacity: 0.3"/>
     <use xlink:href="#m82f6d440b2" x="267.769205" y="306.711111" style="fill-opacity: 0.3"/>
     <use xlink:href="#m82f6d440b2" x="263.529069" y="306.711111" style="fill-opacity: 0.3"/>
     <use xlink:href="#m82f6d440b2" x="251.271358" y="306.711111" style="fill-opacity: 0.3"/>
     <use xlink:href="#m82f6d440b2" x="259.683579" y="306.711111" style="fill-opacity: 0.3"/>
     <use xlink:href="#m82f6d440b2" x="251.760994" y="306.711111" style="fill-opacity: 0.3"/>
     <use xlink:href="#m82f6d440b2" x="259.336044" y="306.711111" style="fill-opacity: 0.3"/>
     <use xlink:href="#m82f6d440b2" x="254.951623" y="306.711111" style="fill-opacity: 0.3"/>
     <use xlink:href="#m82f6d440b2" x="263.533966" y="306.711111" style="fill-opacity: 0.3"/>
     <use xlink:href="#m82f6d440b2" x="259.176574" y="306.711111" style="fill-opacity: 0.3"/>
     <use xlink:href="#m82f6d440b2" x="261.744942" y="306.711111" style="fill-opacity: 0.3"/>
     <use xlink:href="#m82f6d440b2" x="253.064198" y="306.711111" style="fill-opacity: 0.3"/>
     <use xlink:href="#m82f6d440b2" x="266.11708" y="306.711111" style="fill-opacity: 0.3"/>
     <use xlink:href="#m82f6d440b2" x="248.118726" y="306.711111" style="fill-opacity: 0.3"/>
     <use xlink:href="#m82f6d440b2" x="252.22725" y="306.711111" style="fill-opacity: 0.3"/>
     <use xlink:href="#m82f6d440b2" x="261.157394" y="306.711111" style="fill-opacity: 0.3"/>
     <use xlink:href="#m82f6d440b2" x="266.231852" y="306.711111" style="fill-opacity: 0.3"/>
     <use xlink:href="#m82f6d440b2" x="264.159476" y="306.711111" style="fill-opacity: 0.3"/>
     <use xlink:href="#m82f6d440b2" x="255.840894" y="302.8" style="fill-opacity: 0.3"/>
     <use xlink:href="#m82f6d440b2" x="251.397721" y="302.8" style="fill-opacity: 0.3"/>
     <use xlink:href="#m82f6d440b2" x="254.345476" y="302.8" style="fill-opacity: 0.3"/>
     <use xlink:href="#m82f6d440b2" x="261.011585" y="302.8" style="fill-opacity: 0.3"/>
    </g>
   </g>
   <g id="PathCollection_3">
    <g clip-path="url(#p282a8a0ca7)">
     <use xlink:href="#m82f6d440b2" x="369.608734" y="304.755556" style="fill-opacity: 0.3"/>
     <use xlink:href="#m82f6d440b2" x="378.009988" y="312.577778" style="fill-opacity: 0.3"/>
     <use xlink:href="#m82f6d440b2" x="378.423577" y="302.8" style="fill-opacity: 0.3"/>
     <use xlink:href="#m82f6d440b2" x="364.837675" y="302.8" style="fill-opacity: 0.3"/>
     <use xlink:href="#m82f6d440b2" x="359.796795" y="302.8" style="fill-opacity: 0.3"/>
     <use xlink:href="#m82f6d440b2" x="363.18629" y="302.8" style="fill-opacity: 0.3"/>
     <use xlink:href="#m82f6d440b2" x="370.945442" y="302.8" style="fill-opacity: 0.3"/>
     <use xlink:href="#m82f6d440b2" x="377.768476" y="302.8" style="fill-opacity: 0.3"/>
     <use xlink:href="#m82f6d440b2" x="358.244867" y="302.8" style="fill-opacity: 0.3"/>
     <use xlink:href="#m82f6d440b2" x="370.104114" y="302.8" style="fill-opacity: 0.3"/>
     <use xlink:href="#m82f6d440b2" x="366.470401" y="302.8" style="fill-opacity: 0.3"/>
     <use xlink:href="#m82f6d440b2" x="366.479575" y="302.8" style="fill-opacity: 0.3"/>
     <use xlink:href="#m82f6d440b2" x="380.028245" y="302.8" style="fill-opacity: 0.3"/>
     <use xlink:href="#m82f6d440b2" x="363.341101" y="302.8" style="fill-opacity: 0.3"/>
     <use xlink:href="#m82f6d440b2" x="361.185748" y="302.8" style="fill-opacity: 0.3"/>
     <use xlink:href="#m82f6d440b2" x="365.777094" y="302.8" style="fill-opacity: 0.3"/>
     <use xlink:href="#m82f6d440b2" x="362.172782" y="302.8" style="fill-opacity: 0.3"/>
     <use xlink:href="#m82f6d440b2" x="373.192188" y="302.8" style="fill-opacity: 0.3"/>
     <use xlink:href="#m82f6d440b2" x="371.351287" y="302.8" style="fill-opacity: 0.3"/>
     <use xlink:href="#m82f6d440b2" x="368.933786" y="302.8" style="fill-opacity: 0.3"/>
     <use xlink:href="#m82f6d440b2" x="360.505648" y="302.8" style="fill-opacity: 0.3"/>
     <use xlink:href="#m82f6d440b2" x="362.890833" y="302.8" style="fill-opacity: 0.3"/>
     <use xlink:href="#m82f6d440b2" x="367.838978" y="306.711111" style="fill-opacity: 0.3"/>
     <use xlink:href="#m82f6d440b2" x="375.766147" y="306.711111" style="fill-opacity: 0.3"/>
     <use xlink:href="#m82f6d440b2" x="374.480393" y="306.711111" style="fill-opacity: 0.3"/>
     <use xlink:href="#m82f6d440b2" x="369.155837" y="306.711111" style="fill-opacity: 0.3"/>
     <use xlink:href="#m82f6d440b2" x="370.789525" y="306.711111" style="fill-opacity: 0.3"/>
     <use xlink:href="#m82f6d440b2" x="368.07773" y="306.711111" style="fill-opacity: 0.3"/>
     <use xlink:href="#m82f6d440b2" x="365.07176" y="306.711111" style="fill-opacity: 0.3"/>
     <use xlink:href="#m82f6d440b2" x="369.690363" y="306.711111" style="fill-opacity: 0.3"/>
     <use xlink:href="#m82f6d440b2" x="367.286675" y="306.711111" style="fill-opacity: 0.3"/>
     <use xlink:href="#m82f6d440b2" x="364.615823" y="306.711111" style="fill-opacity: 0.3"/>
     <use xlink:href="#m82f6d440b2" x="372.530067" y="306.711111" style="fill-opacity: 0.3"/>
     <use xlink:href="#m82f6d440b2" x="359.363645" y="306.711111" style="fill-opacity: 0.3"/>
     <use xlink:href="#m82f6d440b2" x="368.838057" y="302.8" style="fill-opacity: 0.3"/>
     <use xlink:href="#m82f6d440b2" x="365.549416" y="302.8" style="fill-opacity: 0.3"/>
     <use xlink:href="#m82f6d440b2" x="369.319267" y="302.8" style="fill-opacity: 0.3"/>
     <use xlink:href="#m82f6d440b2" x="369.763304" y="302.8" style="fill-opacity: 0.3"/>
     <use xlink:href="#m82f6d440b2" x="375.591897" y="302.8" style="fill-opacity: 0.3"/>
     <use xlink:href="#m82f6d440b2" x="361.942509" y="302.8" style="fill-opacity: 0.3"/>
     <use xlink:href="#m82f6d440b2" x="376.464925" y="302.8" style="fill-opacity: 0.3"/>
    </g>
   </g>
   <g id="PathCollection_4">
    <g clip-path="url(#p282a8a0ca7)">
     <use xlink:href="#m82f6d440b2" x="485.656323" y="304.755556" style="fill-opacity: 0.3"/>
     <use xlink:href="#m82f6d440b2" x="475.539587" y="304.755556" style="fill-opacity: 0.3"/>
     <use xlink:href="#m82f6d440b2" x="482.473629" y="304.755556" style="fill-opacity: 0.3"/>
     <use xlink:href="#m82f6d440b2" x="474.924353" y="312.577778" style="fill-opacity: 0.3"/>
     <use xlink:href="#m82f6d440b2" x="479.105748" y="312.577778" style="fill-opacity: 0.3"/>
     <use xlink:href="#m82f6d440b2" x="476.076336" y="312.577778" style="fill-opacity: 0.3"/>
     <use xlink:href="#m82f6d440b2" x="491.46637" y="312.577778" style="fill-opacity: 0.3"/>
     <use xlink:href="#m82f6d440b2" x="478.754273" y="312.577778" style="fill-opacity: 0.3"/>
     <use xlink:href="#m82f6d440b2" x="486.522836" y="304.755556" style="fill-opacity: 0.3"/>
     <use xlink:href="#m82f6d440b2" x="485.78281" y="312.577778" style="fill-opacity: 0.3"/>
     <use xlink:href="#m82f6d440b2" x="486.557789" y="312.577778" style="fill-opacity: 0.3"/>
     <use xlink:href="#m82f6d440b2" x="489.875928" y="312.577778" style="fill-opacity: 0.3"/>
     <use xlink:href="#m82f6d440b2" x="474.485463" y="302.8" style="fill-opacity: 0.3"/>
     <use xlink:href="#m82f6d440b2" x="486.364424" y="302.8" style="fill-opacity: 0.3"/>
     <use xlink:href="#m82f6d440b2" x="490.294121" y="302.8" style="fill-opacity: 0.3"/>
     <use xlink:href="#m82f6d440b2" x="481.816487" y="302.8" style="fill-opacity: 0.3"/>
     <use xlink:href="#m82f6d440b2" x="476.972235" y="302.8" style="fill-opacity: 0.3"/>
     <use xlink:href="#m82f6d440b2" x="481.76227" y="302.8" style="fill-opacity: 0.3"/>
     <use xlink:href="#m82f6d440b2" x="476.290605" y="302.8" style="fill-opacity: 0.3"/>
     <use xlink:href="#m82f6d440b2" x="484.052598" y="302.8" style="fill-opacity: 0.3"/>
     <use xlink:href="#m82f6d440b2" x="481.154678" y="302.8" style="fill-opacity: 0.3"/>
     <use xlink:href="#m82f6d440b2" x="481.286351" y="302.8" style="fill-opacity: 0.3"/>
     <use xlink:href="#m82f6d440b2" x="484.803703" y="302.8" style="fill-opacity: 0.3"/>
     <use xlink:href="#m82f6d440b2" x="477.123176" y="302.8" style="fill-opacity: 0.3"/>
     <use xlink:href="#m82f6d440b2" x="473.427201" y="302.8" style="fill-opacity: 0.3"/>
     <use xlink:href="#m82f6d440b2" x="470.298607" y="302.8" style="fill-opacity: 0.3"/>
     <use xlink:href="#m82f6d440b2" x="472.834612" y="302.8" style="fill-opacity: 0.3"/>
     <use xlink:href="#m82f6d440b2" x="477.598617" y="302.8" style="fill-opacity: 0.3"/>
     <use xlink:href="#m82f6d440b2" x="487.36894" y="302.8" style="fill-opacity: 0.3"/>
     <use xlink:href="#m82f6d440b2" x="470.010796" y="302.8" style="fill-opacity: 0.3"/>
     <use xlink:href="#m82f6d440b2" x="483.732533" y="302.8" style="fill-opacity: 0.3"/>
     <use xlink:href="#m82f6d440b2" x="472.106012" y="302.8" style="fill-opacity: 0.3"/>
     <use xlink:href="#m82f6d440b2" x="487.914849" y="302.8" style="fill-opacity: 0.3"/>
     <use xlink:href="#m82f6d440b2" x="477.827509" y="302.8" style="fill-opacity: 0.3"/>
     <use xlink:href="#m82f6d440b2" x="490.961235" y="302.8" style="fill-opacity: 0.3"/>
     <use xlink:href="#m82f6d440b2" x="475.971359" y="302.8" style="fill-opacity: 0.3"/>
     <use xlink:href="#m82f6d440b2" x="489.934497" y="302.8" style="fill-opacity: 0.3"/>
     <use xlink:href="#m82f6d440b2" x="474.65584" y="302.8" style="fill-opacity: 0.3"/>
     <use xlink:href="#m82f6d440b2" x="473.402392" y="302.8" style="fill-opacity: 0.3"/>
     <use xlink:href="#m82f6d440b2" x="477.38273" y="302.8" style="fill-opacity: 0.3"/>
     <use xlink:href="#m82f6d440b2" x="472.289501" y="302.8" style="fill-opacity: 0.3"/>
     <use xlink:href="#m82f6d440b2" x="491.148367" y="302.8" style="fill-opacity: 0.3"/>
     <use xlink:href="#m82f6d440b2" x="482.056877" y="302.8" style="fill-opacity: 0.3"/>
     <use xlink:href="#m82f6d440b2" x="471.776987" y="302.8" style="fill-opacity: 0.3"/>
     <use xlink:href="#m82f6d440b2" x="485.434435" y="302.8" style="fill-opacity: 0.3"/>
     <use xlink:href="#m82f6d440b2" x="485.965054" y="302.8" style="fill-opacity: 0.3"/>
     <use xlink:href="#m82f6d440b2" x="472.761002" y="302.8" style="fill-opacity: 0.3"/>
     <use xlink:href="#m82f6d440b2" x="477.463051" y="302.8" style="fill-opacity: 0.3"/>
     <use xlink:href="#m82f6d440b2" x="478.2945" y="302.8" style="fill-opacity: 0.3"/>
     <use xlink:href="#m82f6d440b2" x="478.769586" y="302.8" style="fill-opacity: 0.3"/>
     <use xlink:href="#m82f6d440b2" x="485.194986" y="302.8" style="fill-opacity: 0.3"/>
     <use xlink:href="#m82f6d440b2" x="478.17105" y="302.8" style="fill-opacity: 0.3"/>
     <use xlink:href="#m82f6d440b2" x="488.600393" y="306.711111" style="fill-opacity: 0.3"/>
     <use xlink:href="#m82f6d440b2" x="486.898042" y="306.711111" style="fill-opacity: 0.3"/>
     <use xlink:href="#m82f6d440b2" x="484.690203" y="306.711111" style="fill-opacity: 0.3"/>
     <use xlink:href="#m82f6d440b2" x="485.106109" y="306.711111" style="fill-opacity: 0.3"/>
     <use xlink:href="#m82f6d440b2" x="490.588549" y="306.711111" style="fill-opacity: 0.3"/>
     <use xlink:href="#m82f6d440b2" x="475.958024" y="306.711111" style="fill-opacity: 0.3"/>
     <use xlink:href="#m82f6d440b2" x="477.571195" y="306.711111" style="fill-opacity: 0.3"/>
     <use xlink:href="#m82f6d440b2" x="475.4361" y="306.711111" style="fill-opacity: 0.3"/>
     <use xlink:href="#m82f6d440b2" x="491.586548" y="306.711111" style="fill-opacity: 0.3"/>
     <use xlink:href="#m82f6d440b2" x="476.450874" y="306.711111" style="fill-opacity: 0.3"/>
     <use xlink:href="#m82f6d440b2" x="485.46771" y="302.8" style="fill-opacity: 0.3"/>
    </g>
   </g>
   <g id="legend_1">
    <g id="patch_37">
     <path d="M 97 212.659375 
L 248.123437 212.659375 
Q 250.123437 212.659375 250.123437 210.659375 
L 250.123437 50.2 
Q 250.123437 48.2 248.123437 48.2 
L 97 48.2 
Q 95 48.2 95 50.2 
L 95 210.659375 
Q 95 212.659375 97 212.659375 
z
" style="fill: #ffffff; opacity: 0.8; stroke: #cccccc; stroke-linejoin: miter"/>
    </g>
    <g id="text_16">
     <!-- anesthesia.before.acquisition -->
     <g transform="translate(99 59.798437) scale(0.1 -0.1)">
      <defs>
       <path id="DejaVuSans-2e" d="M 684 794 
L 1344 794 
L 1344 0 
L 684 0 
L 684 794 
z
" transform="scale(0.015625)"/>
       <path id="DejaVuSans-71" d="M 947 1747 
Q 947 1113 1208 752 
Q 1469 391 1925 391 
Q 2381 391 2643 752 
Q 2906 1113 2906 1747 
Q 2906 2381 2643 2742 
Q 2381 3103 1925 3103 
Q 1469 3103 1208 2742 
Q 947 2381 947 1747 
z
M 2906 525 
Q 2725 213 2448 61 
Q 2172 -91 1784 -91 
Q 1150 -91 751 415 
Q 353 922 353 1747 
Q 353 2572 751 3078 
Q 1150 3584 1784 3584 
Q 2172 3584 2448 3432 
Q 2725 3281 2906 2969 
L 2906 3500 
L 3481 3500 
L 3481 -1331 
L 2906 -1331 
L 2906 525 
z
" transform="scale(0.015625)"/>
      </defs>
      <use xlink:href="#DejaVuSans-61"/>
      <use xlink:href="#DejaVuSans-6e" transform="translate(61.279297 0)"/>
      <use xlink:href="#DejaVuSans-65" transform="translate(124.658203 0)"/>
      <use xlink:href="#DejaVuSans-73" transform="translate(186.181641 0)"/>
      <use xlink:href="#DejaVuSans-74" transform="translate(238.28125 0)"/>
      <use xlink:href="#DejaVuSans-68" transform="translate(277.490234 0)"/>
      <use xlink:href="#DejaVuSans-65" transform="translate(340.869141 0)"/>
      <use xlink:href="#DejaVuSans-73" transform="translate(402.392578 0)"/>
      <use xlink:href="#DejaVuSans-69" transform="translate(454.492188 0)"/>
      <use xlink:href="#DejaVuSans-61" transform="translate(482.275391 0)"/>
      <use xlink:href="#DejaVuSans-2e" transform="translate(543.554688 0)"/>
      <use xlink:href="#DejaVuSans-62" transform="translate(575.341797 0)"/>
      <use xlink:href="#DejaVuSans-65" transform="translate(638.818359 0)"/>
      <use xlink:href="#DejaVuSans-66" transform="translate(700.341797 0)"/>
      <use xlink:href="#DejaVuSans-6f" transform="translate(735.546875 0)"/>
      <use xlink:href="#DejaVuSans-72" transform="translate(796.728516 0)"/>
      <use xlink:href="#DejaVuSans-65" transform="translate(835.591797 0)"/>
      <use xlink:href="#DejaVuSans-2e" transform="translate(897.115234 0)"/>
      <use xlink:href="#DejaVuSans-61" transform="translate(928.902344 0)"/>
      <use xlink:href="#DejaVuSans-63" transform="translate(990.181641 0)"/>
      <use xlink:href="#DejaVuSans-71" transform="translate(1045.162109 0)"/>
      <use xlink:href="#DejaVuSans-75" transform="translate(1108.638672 0)"/>
      <use xlink:href="#DejaVuSans-69" transform="translate(1172.017578 0)"/>
      <use xlink:href="#DejaVuSans-73" transform="translate(1199.800781 0)"/>
      <use xlink:href="#DejaVuSans-69" transform="translate(1251.900391 0)"/>
      <use xlink:href="#DejaVuSans-74" transform="translate(1279.683594 0)"/>
      <use xlink:href="#DejaVuSans-69" transform="translate(1318.892578 0)"/>
      <use xlink:href="#DejaVuSans-6f" transform="translate(1346.675781 0)"/>
      <use xlink:href="#DejaVuSans-6e" transform="translate(1407.857422 0)"/>
     </g>
    </g>
    <g id="patch_38">
     <path d="M 147.770312 74.476562 
L 167.770312 74.476562 
L 167.770312 67.476562 
L 147.770312 67.476562 
z
" style="fill: #3274a1"/>
    </g>
    <g id="text_17">
     <!-- f -->
     <g transform="translate(175.770312 74.476562) scale(0.1 -0.1)">
      <use xlink:href="#DejaVuSans-66"/>
     </g>
    </g>
    <g id="patch_39">
     <path d="M 147.770312 89.154688 
L 167.770312 89.154688 
L 167.770312 82.154688 
L 147.770312 82.154688 
z
" style="fill: #e1812c"/>
    </g>
    <g id="text_18">
     <!-- m -->
     <g transform="translate(175.770312 89.154688) scale(0.1 -0.1)">
      <defs>
       <path id="DejaVuSans-6d" d="M 3328 2828 
Q 3544 3216 3844 3400 
Q 4144 3584 4550 3584 
Q 5097 3584 5394 3201 
Q 5691 2819 5691 2113 
L 5691 0 
L 5113 0 
L 5113 2094 
Q 5113 2597 4934 2840 
Q 4756 3084 4391 3084 
Q 3944 3084 3684 2787 
Q 3425 2491 3425 1978 
L 3425 0 
L 2847 0 
L 2847 2094 
Q 2847 2600 2669 2842 
Q 2491 3084 2119 3084 
Q 1678 3084 1418 2786 
Q 1159 2488 1159 1978 
L 1159 0 
L 581 0 
L 581 3500 
L 1159 3500 
L 1159 2956 
Q 1356 3278 1631 3431 
Q 1906 3584 2284 3584 
Q 2666 3584 2933 3390 
Q 3200 3197 3328 2828 
z
" transform="scale(0.015625)"/>
      </defs>
      <use xlink:href="#DejaVuSans-6d"/>
     </g>
    </g>
    <g id="patch_40">
     <path d="M 147.770312 103.832813 
L 167.770312 103.832813 
L 167.770312 96.832813 
L 147.770312 96.832813 
z
" style="fill: #3274a1"/>
    </g>
    <g id="text_19">
     <!-- f -->
     <g transform="translate(175.770312 103.832813) scale(0.1 -0.1)">
      <use xlink:href="#DejaVuSans-66"/>
     </g>
    </g>
    <g id="patch_41">
     <path d="M 147.770312 118.510938 
L 167.770312 118.510938 
L 167.770312 111.510938 
L 147.770312 111.510938 
z
" style="fill: #e1812c"/>
    </g>
    <g id="text_20">
     <!-- m -->
     <g transform="translate(175.770312 118.510938) scale(0.1 -0.1)">
      <use xlink:href="#DejaVuSans-6d"/>
     </g>
    </g>
    <g id="patch_42">
     <path d="M 147.770312 133.189063 
L 167.770312 133.189063 
L 167.770312 126.189063 
L 147.770312 126.189063 
z
" style="fill: #3274a1"/>
    </g>
    <g id="text_21">
     <!-- n -->
     <g transform="translate(175.770312 133.189063) scale(0.1 -0.1)">
      <use xlink:href="#DejaVuSans-6e"/>
     </g>
    </g>
    <g id="patch_43">
     <path d="M 147.770312 147.867188 
L 167.770312 147.867188 
L 167.770312 140.867188 
L 147.770312 140.867188 
z
" style="fill: #e1812c"/>
    </g>
    <g id="text_22">
     <!-- y -->
     <g transform="translate(175.770312 147.867188) scale(0.1 -0.1)">
      <use xlink:href="#DejaVuSans-79"/>
     </g>
    </g>
    <g id="patch_44">
     <path d="M 147.770312 162.545313 
L 167.770312 162.545313 
L 167.770312 155.545313 
L 147.770312 155.545313 
z
" style="fill: #3274a1"/>
    </g>
    <g id="text_23">
     <!-- y -->
     <g transform="translate(175.770312 162.545313) scale(0.1 -0.1)">
      <use xlink:href="#DejaVuSans-79"/>
     </g>
    </g>
    <g id="patch_45">
     <path d="M 147.770312 177.223437 
L 167.770312 177.223437 
L 167.770312 170.223437 
L 147.770312 170.223437 
z
" style="fill: #3274a1"/>
    </g>
    <g id="text_24">
     <!-- long -->
     <g transform="translate(175.770312 177.223437) scale(0.1 -0.1)">
      <use xlink:href="#DejaVuSans-6c"/>
      <use xlink:href="#DejaVuSans-6f" transform="translate(27.783203 0)"/>
      <use xlink:href="#DejaVuSans-6e" transform="translate(88.964844 0)"/>
      <use xlink:href="#DejaVuSans-67" transform="translate(152.34375 0)"/>
     </g>
    </g>
    <g id="patch_46">
     <path d="M 147.770312 191.901563 
L 167.770312 191.901563 
L 167.770312 184.901563 
L 147.770312 184.901563 
z
" style="fill: #3274a1"/>
    </g>
    <g id="text_25">
     <!-- n -->
     <g transform="translate(175.770312 191.901563) scale(0.1 -0.1)">
      <use xlink:href="#DejaVuSans-6e"/>
     </g>
    </g>
    <g id="patch_47">
     <path d="M 147.770312 206.579687 
L 167.770312 206.579687 
L 167.770312 199.579687 
L 147.770312 199.579687 
z
" style="fill: #e1812c"/>
    </g>
    <g id="text_26">
     <!-- y -->
     <g transform="translate(175.770312 206.579687) scale(0.1 -0.1)">
      <use xlink:href="#DejaVuSans-79"/>
     </g>
    </g>
   </g>
  </g>
 </g>
 <defs>
  <clipPath id="p282a8a0ca7">
   <rect x="90" y="43.2" width="558" height="277.2"/>
  </clipPath>
 </defs>
</svg>
