<?xml version="1.0" encoding="utf-8" standalone="no"?>
<!DOCTYPE svg PUBLIC "-//W3C//DTD SVG 1.1//EN"
  "http://www.w3.org/Graphics/SVG/1.1/DTD/svg11.dtd">
<svg xmlns:xlink="http://www.w3.org/1999/xlink" width="720pt" height="360pt" viewBox="0 0 720 360" xmlns="http://www.w3.org/2000/svg" version="1.1">
 <metadata>
  <rdf:RDF xmlns:dc="http://purl.org/dc/elements/1.1/" xmlns:cc="http://creativecommons.org/ns#" xmlns:rdf="http://www.w3.org/1999/02/22-rdf-syntax-ns#">
   <cc:Work>
    <dc:type rdf:resource="http://purl.org/dc/dcmitype/StillImage"/>
    <dc:date>2025-09-09T15:45:18.759111</dc:date>
    <dc:format>image/svg+xml</dc:format>
    <dc:creator>
     <cc:Agent>
      <dc:title>Matplotlib v3.10.3, https://matplotlib.org/</dc:title>
     </cc:Agent>
    </dc:creator>
   </cc:Work>
  </rdf:RDF>
 </metadata>
 <defs>
  <style type="text/css">*{stroke-linejoin: round; stroke-linecap: butt}</style>
 </defs>
 <g id="figure_1">
  <g id="patch_1">
   <path d="M 0 360 
L 720 360 
L 720 0 
L 0 0 
z
" style="fill: #ffffff"/>
  </g>
  <g id="axes_1">
   <g id="patch_2">
    <path d="M 90 320.4 
L 648 320.4 
L 648 43.2 
L 90 43.2 
z
" style="fill: #ffffff"/>
   </g>
   <g id="FillBetweenPolyCollection_1">
    <defs>
     <path id="m26d97b22bb" d="M 145.998795 -52.374383 
L 145.601205 -52.374383 
L 145.538846 -52.675454 
L 145.463718 -52.976526 
L 145.375552 -53.277597 
L 145.274879 -53.578668 
L 145.163191 -53.87974 
L 145.043039 -54.180811 
L 144.918034 -54.481883 
L 144.792732 -54.782954 
L 144.672407 -55.084026 
L 144.562702 -55.385097 
L 144.469206 -55.686169 
L 144.396988 -55.98724 
L 144.350138 -56.288311 
L 144.33139 -56.589383 
L 144.341855 -56.890454 
L 144.380911 -57.191526 
L 144.446265 -57.492597 
L 144.534177 -57.793669 
L 144.639809 -58.09474 
L 144.757666 -58.395812 
L 144.882063 -58.696883 
L 145.007558 -58.997954 
L 145.129319 -59.299026 
L 145.243373 -59.600097 
L 145.346728 -59.901169 
L 145.437362 -60.20224 
L 145.514092 -60.503312 
L 145.57633 -60.804383 
L 145.62376 -61.105455 
L 145.65594 -61.406526 
L 145.671833 -61.707598 
L 145.669298 -62.008669 
L 145.644525 -62.30974 
L 145.591422 -62.610812 
L 145.501007 -62.911883 
L 145.360817 -63.212955 
L 145.154442 -63.514026 
L 144.861271 -63.815098 
L 144.456608 -64.116169 
L 143.912291 -64.417241 
L 143.197982 -64.718312 
L 142.283208 -65.019383 
L 141.140191 -65.320455 
L 139.747363 -65.621526 
L 138.09333 -65.922598 
L 136.18089 -66.223669 
L 134.030575 -66.524741 
L 131.683129 -66.825812 
L 129.200322 -67.126884 
L 126.663636 -67.427955 
L 124.170554 -67.729027 
L 121.828542 -68.030098 
L 119.747109 -68.331169 
L 118.028721 -68.632241 
L 116.759578 -68.933312 
L 116.001367 -69.234384 
L 115.78507 -69.535455 
L 116.107644 -69.836527 
L 116.931997 -70.137598 
L 118.190234 -70.43867 
L 119.789644 -70.739741 
L 121.620558 -71.040812 
L 123.564949 -71.341884 
L 125.504652 -71.642955 
L 127.328244 -71.944027 
L 128.935963 -72.245098 
L 130.242483 -72.54617 
L 131.177787 -72.847241 
L 131.686728 -73.148313 
L 131.728107 -73.449384 
L 131.274073 -73.750456 
L 130.310506 -74.051527 
L 128.838723 -74.352598 
L 126.87839 -74.65367 
L 124.471127 -74.954741 
L 121.683922 -75.255813 
L 118.611279 -75.556884 
L 115.37505 -75.857956 
L 112.121142 -76.159027 
L 109.012758 -76.460099 
L 106.220363 -76.76117 
L 103.909245 -77.062241 
L 102.225964 -77.363313 
L 101.285386 -77.664384 
L 101.16 -77.965456 
L 101.873001 -78.266527 
L 103.396127 -78.567599 
L 105.652579 -78.86867 
L 108.524633 -79.169742 
L 111.864903 -79.470813 
L 115.509794 -79.771885 
L 119.293421 -80.072956 
L 123.060407 -80.374027 
L 126.676225 -80.675099 
L 130.034245 -80.97617 
L 133.059183 -81.277242 
L 135.707134 -81.578313 
L 137.96279 -81.879385 
L 139.834671 -82.180456 
L 151.765329 -82.180456 
L 151.765329 -82.180456 
L 153.63721 -81.879385 
L 155.892866 -81.578313 
L 158.540817 -81.277242 
L 161.565755 -80.97617 
L 164.923775 -80.675099 
L 168.539593 -80.374027 
L 172.306579 -80.072956 
L 176.090206 -79.771885 
L 179.735097 -79.470813 
L 183.075367 -79.169742 
L 185.947421 -78.86867 
L 188.203873 -78.567599 
L 189.726999 -78.266527 
L 190.44 -77.965456 
L 190.314614 -77.664384 
L 189.374036 -77.363313 
L 187.690755 -77.062241 
L 185.379637 -76.76117 
L 182.587242 -76.460099 
L 179.478858 -76.159027 
L 176.22495 -75.857956 
L 172.988721 -75.556884 
L 169.916078 -75.255813 
L 167.128873 -74.954741 
L 164.72161 -74.65367 
L 162.761277 -74.352598 
L 161.289494 -74.051527 
L 160.325927 -73.750456 
L 159.871893 -73.449384 
L 159.913272 -73.148313 
L 160.422213 -72.847241 
L 161.357517 -72.54617 
L 162.664037 -72.245098 
L 164.271756 -71.944027 
L 166.095348 -71.642955 
L 168.035051 -71.341884 
L 169.979442 -71.040812 
L 171.810356 -70.739741 
L 173.409766 -70.43867 
L 174.668003 -70.137598 
L 175.492356 -69.836527 
L 175.81493 -69.535455 
L 175.598633 -69.234384 
L 174.840422 -68.933312 
L 173.571279 -68.632241 
L 171.852891 -68.331169 
L 169.771458 -68.030098 
L 167.429446 -67.729027 
L 164.936364 -67.427955 
L 162.399678 -67.126884 
L 159.916871 -66.825812 
L 157.569425 -66.524741 
L 155.41911 -66.223669 
L 153.50667 -65.922598 
L 151.852637 -65.621526 
L 150.459809 -65.320455 
L 149.316792 -65.019383 
L 148.402018 -64.718312 
L 147.687709 -64.417241 
L 147.143392 -64.116169 
L 146.738729 -63.815098 
L 146.445558 -63.514026 
L 146.239183 -63.212955 
L 146.098993 -62.911883 
L 146.008578 -62.610812 
L 145.955475 -62.30974 
L 145.930702 -62.008669 
L 145.928167 -61.707598 
L 145.94406 -61.406526 
L 145.97624 -61.105455 
L 146.02367 -60.804383 
L 146.085908 -60.503312 
L 146.162638 -60.20224 
L 146.253272 -59.901169 
L 146.356627 -59.600097 
L 146.470681 -59.299026 
L 146.592442 -58.997954 
L 146.717937 -58.696883 
L 146.842334 -58.395812 
L 146.960191 -58.09474 
L 147.065823 -57.793669 
L 147.153735 -57.492597 
L 147.219089 -57.191526 
L 147.258145 -56.890454 
L 147.26861 -56.589383 
L 147.249862 -56.288311 
L 147.203012 -55.98724 
L 147.130794 -55.686169 
L 147.037298 -55.385097 
L 146.927593 -55.084026 
L 146.807268 -54.782954 
L 146.681966 -54.481883 
L 146.556961 -54.180811 
L 146.436809 -53.87974 
L 146.325121 -53.578668 
L 146.224448 -53.277597 
L 146.136282 -52.976526 
L 146.061154 -52.675454 
L 145.998795 -52.374383 
z
" style="stroke: #3d3d3d; stroke-width: 1.25"/>
    </defs>
    <g clip-path="url(#p0370378725)">
     <use xlink:href="#m26d97b22bb" x="0" y="360" style="fill: #3274a1; stroke: #3d3d3d; stroke-width: 1.25"/>
    </g>
   </g>
   <g id="FillBetweenPolyCollection_2">
    <defs>
     <path id="m2930641966" d="M 257.87599 -52.266943 
L 256.92401 -52.266943 
L 256.777583 -52.570185 
L 256.601671 -52.873427 
L 256.395615 -53.176669 
L 256.160532 -53.479911 
L 255.899667 -53.783153 
L 255.618617 -54.086395 
L 255.325354 -54.389637 
L 255.030003 -54.692879 
L 254.744363 -54.996121 
L 254.481183 -55.299363 
L 254.253251 -55.602605 
L 254.072374 -55.905847 
L 253.948371 -56.209089 
L 253.888191 -56.512331 
L 253.895268 -56.815572 
L 253.969195 -57.118814 
L 254.105765 -57.422056 
L 254.297364 -57.725298 
L 254.533675 -58.02854 
L 254.802594 -58.331782 
L 255.091246 -58.635024 
L 255.386989 -58.938266 
L 255.67828 -59.241508 
L 255.95534 -59.54475 
L 256.21056 -59.847992 
L 256.438633 -60.151234 
L 256.636437 -60.454476 
L 256.802702 -60.757718 
L 256.937529 -61.06096 
L 257.041801 -61.364202 
L 257.116542 -61.667443 
L 257.16227 -61.970685 
L 257.178362 -62.273927 
L 257.162467 -62.577169 
L 257.109983 -62.880411 
L 257.013629 -63.183653 
L 256.86317 -63.486895 
L 256.645337 -63.790137 
L 256.34404 -64.093379 
L 255.940943 -64.396621 
L 255.416465 -64.699863 
L 254.751266 -65.003105 
L 253.928188 -65.306347 
L 252.934562 -65.609589 
L 251.764708 -65.912831 
L 250.422354 -66.216073 
L 248.92265 -66.519315 
L 247.293399 -66.822556 
L 245.575174 -67.125798 
L 243.820078 -67.42904 
L 242.089031 -67.732282 
L 240.447705 -68.035524 
L 238.961423 -68.338766 
L 237.689528 -68.642008 
L 236.679895 -68.94525 
L 235.964259 -69.248492 
L 235.555007 -69.551734 
L 235.443867 -69.854976 
L 235.60268 -70.158218 
L 235.986116 -70.46146 
L 236.53592 -70.764702 
L 237.186027 -71.067944 
L 237.86779 -71.371186 
L 238.514585 -71.674427 
L 239.065236 -71.977669 
L 239.465956 -72.280911 
L 239.670864 -72.584153 
L 239.641415 -72.887395 
L 239.345337 -73.190637 
L 238.755803 -73.493879 
L 237.85146 -73.797121 
L 236.617795 -74.100363 
L 235.049934 -74.403605 
L 233.156617 -74.706847 
L 230.964701 -75.010089 
L 228.523239 -75.313331 
L 225.906113 -75.616573 
L 223.212233 -75.919815 
L 220.562633 -76.223057 
L 218.094229 -76.526298 
L 215.950583 -76.82954 
L 214.270514 -77.132782 
L 213.175869 -77.436024 
L 212.76 -77.739266 
L 213.078456 -78.042508 
L 214.143187 -78.34575 
L 215.921044 -78.648992 
L 218.336768 -78.952234 
L 221.280053 -79.255476 
L 224.615713 -79.558718 
L 228.195604 -79.86196 
L 231.870848 -80.165202 
L 235.502944 -80.468444 
L 238.97268 -80.771686 
L 242.18613 -81.074928 
L 245.07751 -81.37817 
L 247.609086 -81.681411 
L 249.768631 -81.984653 
L 251.565183 -82.287895 
L 263.234817 -82.287895 
L 263.234817 -82.287895 
L 265.031369 -81.984653 
L 267.190914 -81.681411 
L 269.72249 -81.37817 
L 272.61387 -81.074928 
L 275.82732 -80.771686 
L 279.297056 -80.468444 
L 282.929152 -80.165202 
L 286.604396 -79.86196 
L 290.184287 -79.558718 
L 293.519947 -79.255476 
L 296.463232 -78.952234 
L 298.878956 -78.648992 
L 300.656813 -78.34575 
L 301.721544 -78.042508 
L 302.04 -77.739266 
L 301.624131 -77.436024 
L 300.529486 -77.132782 
L 298.849417 -76.82954 
L 296.705771 -76.526298 
L 294.237367 -76.223057 
L 291.587767 -75.919815 
L 288.893887 -75.616573 
L 286.276761 -75.313331 
L 283.835299 -75.010089 
L 281.643383 -74.706847 
L 279.750066 -74.403605 
L 278.182205 -74.100363 
L 276.94854 -73.797121 
L 276.044197 -73.493879 
L 275.454663 -73.190637 
L 275.158585 -72.887395 
L 275.129136 -72.584153 
L 275.334044 -72.280911 
L 275.734764 -71.977669 
L 276.285415 -71.674427 
L 276.93221 -71.371186 
L 277.613973 -71.067944 
L 278.26408 -70.764702 
L 278.813884 -70.46146 
L 279.19732 -70.158218 
L 279.356133 -69.854976 
L 279.244993 -69.551734 
L 278.835741 -69.248492 
L 278.120105 -68.94525 
L 277.110472 -68.642008 
L 275.838577 -68.338766 
L 274.352295 -68.035524 
L 272.710969 -67.732282 
L 270.979922 -67.42904 
L 269.224826 -67.125798 
L 267.506601 -66.822556 
L 265.87735 -66.519315 
L 264.377646 -66.216073 
L 263.035292 -65.912831 
L 261.865438 -65.609589 
L 260.871812 -65.306347 
L 260.048734 -65.003105 
L 259.383535 -64.699863 
L 258.859057 -64.396621 
L 258.45596 -64.093379 
L 258.154663 -63.790137 
L 257.93683 -63.486895 
L 257.786371 -63.183653 
L 257.690017 -62.880411 
L 257.637533 -62.577169 
L 257.621638 -62.273927 
L 257.63773 -61.970685 
L 257.683458 -61.667443 
L 257.758199 -61.364202 
L 257.862471 -61.06096 
L 257.997298 -60.757718 
L 258.163563 -60.454476 
L 258.361367 -60.151234 
L 258.58944 -59.847992 
L 258.84466 -59.54475 
L 259.12172 -59.241508 
L 259.413011 -58.938266 
L 259.708754 -58.635024 
L 259.997406 -58.331782 
L 260.266325 -58.02854 
L 260.502636 -57.725298 
L 260.694235 -57.422056 
L 260.830805 -57.118814 
L 260.904732 -56.815572 
L 260.911809 -56.512331 
L 260.851629 -56.209089 
L 260.727626 -55.905847 
L 260.546749 -55.602605 
L 260.318817 -55.299363 
L 260.055637 -54.996121 
L 259.769997 -54.692879 
L 259.474646 -54.389637 
L 259.181383 -54.086395 
L 258.900333 -53.783153 
L 258.639468 -53.479911 
L 258.404385 -53.176669 
L 258.198329 -52.873427 
L 258.022417 -52.570185 
L 257.87599 -52.266943 
z
" style="stroke: #3d3d3d; stroke-width: 1.25"/>
    </defs>
    <g clip-path="url(#p0370378725)">
     <use xlink:href="#m2930641966" x="0" y="360" style="fill: #e1812c; stroke: #3d3d3d; stroke-width: 1.25"/>
    </g>
   </g>
   <g id="FillBetweenPolyCollection_3">
    <defs>
     <path id="m9ab3a6c47b" d="M 370.071179 -49.997649 
L 367.928821 -49.997649 
L 367.685197 -50.346735 
L 367.403937 -50.695821 
L 367.083846 -51.044908 
L 366.724895 -51.393994 
L 366.32845 -51.74308 
L 365.897468 -52.092166 
L 365.436637 -52.441253 
L 364.952424 -52.790339 
L 364.453038 -53.139425 
L 363.948281 -53.488512 
L 363.449281 -53.837598 
L 362.968129 -54.186684 
L 362.517409 -54.53577 
L 362.109662 -54.884857 
L 361.756807 -55.233943 
L 361.469554 -55.583029 
L 361.256852 -55.932115 
L 361.125402 -56.281202 
L 361.079275 -56.630288 
L 361.119667 -56.979374 
L 361.244792 -57.328461 
L 361.449932 -57.677547 
L 361.727638 -58.026633 
L 362.068053 -58.375719 
L 362.459347 -58.724806 
L 362.88821 -59.073892 
L 363.340393 -59.422978 
L 363.801233 -59.772064 
L 364.256153 -60.121151 
L 364.691092 -60.470237 
L 365.09287 -60.819323 
L 365.449458 -61.16841 
L 365.750164 -61.517496 
L 365.985748 -61.866582 
L 366.148478 -62.215668 
L 366.232137 -62.564755 
L 366.232017 -62.913841 
L 366.14489 -63.262927 
L 365.968999 -63.612013 
L 365.704043 -63.9611 
L 365.351177 -64.310186 
L 364.913001 -64.659272 
L 364.393536 -65.008359 
L 363.798165 -65.357445 
L 363.133515 -65.706531 
L 362.40728 -66.055617 
L 361.627948 -66.404704 
L 360.804463 -66.75379 
L 359.945791 -67.102876 
L 359.060439 -67.451962 
L 358.155925 -67.801049 
L 357.238251 -68.150135 
L 356.31141 -68.499221 
L 355.376975 -68.848308 
L 354.433802 -69.197394 
L 353.477904 -69.54648 
L 352.502514 -69.895566 
L 351.498356 -70.244653 
L 350.454157 -70.593739 
L 349.357367 -70.942825 
L 348.195087 -71.291912 
L 346.955168 -71.640998 
L 345.627426 -71.990084 
L 344.204906 -72.33917 
L 342.685135 -72.688257 
L 341.071256 -73.037343 
L 339.372977 -73.386429 
L 337.607227 -73.735515 
L 335.798445 -74.084602 
L 333.978445 -74.433688 
L 332.185799 -74.782774 
L 330.464727 -75.131861 
L 328.863529 -75.480947 
L 327.432598 -75.830033 
L 326.222118 -76.179119 
L 325.279589 -76.528206 
L 324.647308 -76.877292 
L 324.36 -77.226378 
L 324.442749 -77.575464 
L 324.909396 -77.924551 
L 325.761526 -78.273637 
L 326.988114 -78.622723 
L 328.565887 -78.97181 
L 330.460358 -79.320896 
L 332.627476 -79.669982 
L 335.015756 -80.019068 
L 337.568755 -80.368155 
L 340.227703 -80.717241 
L 342.934119 -81.066327 
L 345.632245 -81.415413 
L 348.271156 -81.7645 
L 350.80643 -82.113586 
L 353.201332 -82.462672 
L 355.427466 -82.811759 
L 357.464923 -83.160845 
L 359.301991 -83.509931 
L 360.934468 -83.859017 
L 362.364721 -84.208104 
L 363.60054 -84.55719 
L 374.39946 -84.55719 
L 374.39946 -84.55719 
L 375.635279 -84.208104 
L 377.065532 -83.859017 
L 378.698009 -83.509931 
L 380.535077 -83.160845 
L 382.572534 -82.811759 
L 384.798668 -82.462672 
L 387.19357 -82.113586 
L 389.728844 -81.7645 
L 392.367755 -81.415413 
L 395.065881 -81.066327 
L 397.772297 -80.717241 
L 400.431245 -80.368155 
L 402.984244 -80.019068 
L 405.372524 -79.669982 
L 407.539642 -79.320896 
L 409.434113 -78.97181 
L 411.011886 -78.622723 
L 412.238474 -78.273637 
L 413.090604 -77.924551 
L 413.557251 -77.575464 
L 413.64 -77.226378 
L 413.352692 -76.877292 
L 412.720411 -76.528206 
L 411.777882 -76.179119 
L 410.567402 -75.830033 
L 409.136471 -75.480947 
L 407.535273 -75.131861 
L 405.814201 -74.782774 
L 404.021555 -74.433688 
L 402.201555 -74.084602 
L 400.392773 -73.735515 
L 398.627023 -73.386429 
L 396.928744 -73.037343 
L 395.314865 -72.688257 
L 393.795094 -72.33917 
L 392.372574 -71.990084 
L 391.044832 -71.640998 
L 389.804913 -71.291912 
L 388.642633 -70.942825 
L 387.545843 -70.593739 
L 386.501644 -70.244653 
L 385.497486 -69.895566 
L 384.522096 -69.54648 
L 383.566198 -69.197394 
L 382.623025 -68.848308 
L 381.68859 -68.499221 
L 380.761749 -68.150135 
L 379.844075 -67.801049 
L 378.939561 -67.451962 
L 378.054209 -67.102876 
L 377.195537 -66.75379 
L 376.372052 -66.404704 
L 375.59272 -66.055617 
L 374.866485 -65.706531 
L 374.201835 -65.357445 
L 373.606464 -65.008359 
L 373.086999 -64.659272 
L 372.648823 -64.310186 
L 372.295957 -63.9611 
L 372.031001 -63.612013 
L 371.85511 -63.262927 
L 371.767983 -62.913841 
L 371.767863 -62.564755 
L 371.851522 -62.215668 
L 372.014252 -61.866582 
L 372.249836 -61.517496 
L 372.550542 -61.16841 
L 372.90713 -60.819323 
L 373.308908 -60.470237 
L 373.743847 -60.121151 
L 374.198767 -59.772064 
L 374.659607 -59.422978 
L 375.11179 -59.073892 
L 375.540653 -58.724806 
L 375.931947 -58.375719 
L 376.272362 -58.026633 
L 376.550068 -57.677547 
L 376.755208 -57.328461 
L 376.880333 -56.979374 
L 376.920725 -56.630288 
L 376.874598 -56.281202 
L 376.743148 -55.932115 
L 376.530446 -55.583029 
L 376.243193 -55.233943 
L 375.890338 -54.884857 
L 375.482591 -54.53577 
L 375.031871 -54.186684 
L 374.550719 -53.837598 
L 374.051719 -53.488512 
L 373.546962 -53.139425 
L 373.047576 -52.790339 
L 372.563363 -52.441253 
L 372.102532 -52.092166 
L 371.67155 -51.74308 
L 371.275105 -51.393994 
L 370.916154 -51.044908 
L 370.596063 -50.695821 
L 370.314803 -50.346735 
L 370.071179 -49.997649 
z
" style="stroke: #3d3d3d; stroke-width: 1.25"/>
    </defs>
    <g clip-path="url(#p0370378725)">
     <use xlink:href="#m9ab3a6c47b" x="0" y="360" style="fill: #3a923a; stroke: #3d3d3d; stroke-width: 1.25"/>
    </g>
   </g>
   <g id="FillBetweenPolyCollection_4">
    <defs>
     <path id="m40abee292d" d="M 481.019316 -51.102852 
L 480.180684 -51.102852 
L 480.072568 -51.429611 
L 479.945779 -51.75637 
L 479.799767 -52.083129 
L 479.634746 -52.409888 
L 479.451846 -52.736647 
L 479.253233 -53.063406 
L 479.042177 -53.390165 
L 478.823041 -53.716923 
L 478.601195 -54.043682 
L 478.382839 -54.370441 
L 478.17474 -54.6972 
L 477.983901 -55.023959 
L 477.817175 -55.350718 
L 477.680861 -55.677477 
L 477.580297 -56.004236 
L 477.519517 -56.330995 
L 477.50096 -56.657754 
L 477.525289 -56.984513 
L 477.591322 -57.311272 
L 477.696075 -57.638031 
L 477.834909 -57.96479 
L 478.001764 -58.291549 
L 478.189444 -58.618308 
L 478.389914 -58.945066 
L 478.59458 -59.271825 
L 478.794502 -59.598584 
L 478.980523 -59.925343 
L 479.143285 -60.252102 
L 479.27314 -60.578861 
L 479.35995 -60.90562 
L 479.392813 -61.232379 
L 479.35976 -61.559138 
L 479.247459 -61.885897 
L 479.041014 -62.212656 
L 478.723915 -62.539415 
L 478.278205 -62.866174 
L 477.684942 -63.192933 
L 476.924973 -63.519692 
L 475.980064 -63.846451 
L 474.834339 -64.173209 
L 473.475999 -64.499968 
L 471.899182 -64.826727 
L 470.105853 -65.153486 
L 468.107502 -65.480245 
L 465.926484 -65.807004 
L 463.59676 -66.133763 
L 461.163887 -66.460522 
L 458.684088 -66.787281 
L 456.22237 -67.11404 
L 453.849687 -67.440799 
L 451.639294 -67.767558 
L 449.662495 -68.094317 
L 447.984101 -68.421076 
L 446.657935 -68.747835 
L 445.722788 -69.074594 
L 445.199152 -69.401352 
L 445.087055 -69.728111 
L 445.365182 -70.05487 
L 445.991399 -70.381629 
L 446.904653 -70.708388 
L 448.028103 -71.035147 
L 449.27328 -71.361906 
L 450.54497 -71.688665 
L 451.746509 -72.015424 
L 452.785158 -72.342183 
L 453.577262 -72.668942 
L 454.052933 -72.995701 
L 454.160015 -73.32246 
L 453.867183 -73.649219 
L 453.166009 -73.975978 
L 452.071915 -74.302737 
L 450.623923 -74.629495 
L 448.883171 -74.956254 
L 446.930215 -75.283013 
L 444.861167 -75.609772 
L 442.782821 -75.936531 
L 440.806987 -76.26329 
L 439.044333 -76.590049 
L 437.598119 -76.916808 
L 436.558231 -77.243567 
L 435.995974 -77.570326 
L 435.96 -77.897085 
L 436.473717 -78.223844 
L 437.534379 -78.550603 
L 439.113931 -78.877362 
L 441.161503 -79.204121 
L 443.607335 -79.53088 
L 446.367754 -79.857638 
L 449.350765 -80.184397 
L 452.461784 -80.511156 
L 455.609047 -80.837915 
L 458.708308 -81.164674 
L 461.686527 -81.491433 
L 464.484383 -81.818192 
L 467.057559 -82.144951 
L 469.376874 -82.47171 
L 471.427419 -82.798469 
L 473.206924 -83.125228 
L 474.723608 -83.451987 
L 486.476392 -83.451987 
L 486.476392 -83.451987 
L 487.993076 -83.125228 
L 489.772581 -82.798469 
L 491.823126 -82.47171 
L 494.142441 -82.144951 
L 496.715617 -81.818192 
L 499.513473 -81.491433 
L 502.491692 -81.164674 
L 505.590953 -80.837915 
L 508.738216 -80.511156 
L 511.849235 -80.184397 
L 514.832246 -79.857638 
L 517.592665 -79.53088 
L 520.038497 -79.204121 
L 522.086069 -78.877362 
L 523.665621 -78.550603 
L 524.726283 -78.223844 
L 525.24 -77.897085 
L 525.204026 -77.570326 
L 524.641769 -77.243567 
L 523.601881 -76.916808 
L 522.155667 -76.590049 
L 520.393013 -76.26329 
L 518.417179 -75.936531 
L 516.338833 -75.609772 
L 514.269785 -75.283013 
L 512.316829 -74.956254 
L 510.576077 -74.629495 
L 509.128085 -74.302737 
L 508.033991 -73.975978 
L 507.332817 -73.649219 
L 507.039985 -73.32246 
L 507.147067 -72.995701 
L 507.622738 -72.668942 
L 508.414842 -72.342183 
L 509.453491 -72.015424 
L 510.65503 -71.688665 
L 511.92672 -71.361906 
L 513.171897 -71.035147 
L 514.295347 -70.708388 
L 515.208601 -70.381629 
L 515.834818 -70.05487 
L 516.112945 -69.728111 
L 516.000848 -69.401352 
L 515.477212 -69.074594 
L 514.542065 -68.747835 
L 513.215899 -68.421076 
L 511.537505 -68.094317 
L 509.560706 -67.767558 
L 507.350313 -67.440799 
L 504.97763 -67.11404 
L 502.515912 -66.787281 
L 500.036113 -66.460522 
L 497.60324 -66.133763 
L 495.273516 -65.807004 
L 493.092498 -65.480245 
L 491.094147 -65.153486 
L 489.300818 -64.826727 
L 487.724001 -64.499968 
L 486.365661 -64.173209 
L 485.219936 -63.846451 
L 484.275027 -63.519692 
L 483.515058 -63.192933 
L 482.921795 -62.866174 
L 482.476085 -62.539415 
L 482.158986 -62.212656 
L 481.952541 -61.885897 
L 481.84024 -61.559138 
L 481.807187 -61.232379 
L 481.84005 -60.90562 
L 481.92686 -60.578861 
L 482.056715 -60.252102 
L 482.219477 -59.925343 
L 482.405498 -59.598584 
L 482.60542 -59.271825 
L 482.810086 -58.945066 
L 483.010556 -58.618308 
L 483.198236 -58.291549 
L 483.365091 -57.96479 
L 483.503925 -57.638031 
L 483.608678 -57.311272 
L 483.674711 -56.984513 
L 483.69904 -56.657754 
L 483.680483 -56.330995 
L 483.619703 -56.004236 
L 483.519139 -55.677477 
L 483.382825 -55.350718 
L 483.216099 -55.023959 
L 483.02526 -54.6972 
L 482.817161 -54.370441 
L 482.598805 -54.043682 
L 482.376959 -53.716923 
L 482.157823 -53.390165 
L 481.946767 -53.063406 
L 481.748154 -52.736647 
L 481.565254 -52.409888 
L 481.400233 -52.083129 
L 481.254221 -51.75637 
L 481.127432 -51.429611 
L 481.019316 -51.102852 
z
" style="stroke: #3d3d3d; stroke-width: 1.25"/>
    </defs>
    <g clip-path="url(#p0370378725)">
     <use xlink:href="#m40abee292d" x="0" y="360" style="fill: #c03d3e; stroke: #3d3d3d; stroke-width: 1.25"/>
    </g>
   </g>
   <g id="patch_3">
    <path d="M 212.76 320.4 
L 257.4 320.4 
L 257.4 77.690323 
L 212.76 77.690323 
z
" clip-path="url(#p0370378725)" style="fill: #3274a1"/>
   </g>
   <g id="patch_4">
    <path d="M 547.56 320.4 
L 592.2 320.4 
L 592.2 56.4 
L 547.56 56.4 
z
" clip-path="url(#p0370378725)" style="fill: #3274a1"/>
   </g>
   <g id="patch_5">
    <path d="M 257.4 320.4 
L 302.04 320.4 
L 302.04 192.658065 
L 257.4 192.658065 
z
" clip-path="url(#p0370378725)" style="fill: #e1812c"/>
   </g>
   <g id="patch_6">
    <path d="M 592.2 320.4 
L 636.84 320.4 
L 636.84 56.4 
L 592.2 56.4 
z
" clip-path="url(#p0370378725)" style="fill: #e1812c"/>
   </g>
   <g id="patch_7">
    <path d="M 145.8 320.4 
L 145.8 320.4 
L 145.8 320.4 
L 145.8 320.4 
z
" clip-path="url(#p0370378725)" style="fill: #3274a1"/>
   </g>
   <g id="patch_8">
    <path d="M 145.8 320.4 
L 145.8 320.4 
L 145.8 320.4 
L 145.8 320.4 
z
" clip-path="url(#p0370378725)" style="fill: #e1812c"/>
   </g>
   <g id="matplotlib.axis_1">
    <g id="xtick_1">
     <g id="line2d_1">
      <defs>
       <path id="m3d6f4d619e" d="M 0 0 
L 0 3.5 
" style="stroke: #000000; stroke-width: 0.8"/>
      </defs>
      <g>
       <use xlink:href="#m3d6f4d619e" x="145.8" y="320.4" style="stroke: #000000; stroke-width: 0.8"/>
      </g>
     </g>
     <g id="text_1">
      <!-- Spurious -->
      <g transform="translate(124.005469 334.998438) scale(0.1 -0.1)">
       <defs>
        <path id="DejaVuSans-53" d="M 3425 4513 
L 3425 3897 
Q 3066 4069 2747 4153 
Q 2428 4238 2131 4238 
Q 1616 4238 1336 4038 
Q 1056 3838 1056 3469 
Q 1056 3159 1242 3001 
Q 1428 2844 1947 2747 
L 2328 2669 
Q 3034 2534 3370 2195 
Q 3706 1856 3706 1288 
Q 3706 609 3251 259 
Q 2797 -91 1919 -91 
Q 1588 -91 1214 -16 
Q 841 59 441 206 
L 441 856 
Q 825 641 1194 531 
Q 1563 422 1919 422 
Q 2459 422 2753 634 
Q 3047 847 3047 1241 
Q 3047 1584 2836 1778 
Q 2625 1972 2144 2069 
L 1759 2144 
Q 1053 2284 737 2584 
Q 422 2884 422 3419 
Q 422 4038 858 4394 
Q 1294 4750 2059 4750 
Q 2388 4750 2728 4690 
Q 3069 4631 3425 4513 
z
" transform="scale(0.015625)"/>
        <path id="DejaVuSans-70" d="M 1159 525 
L 1159 -1331 
L 581 -1331 
L 581 3500 
L 1159 3500 
L 1159 2969 
Q 1341 3281 1617 3432 
Q 1894 3584 2278 3584 
Q 2916 3584 3314 3078 
Q 3713 2572 3713 1747 
Q 3713 922 3314 415 
Q 2916 -91 2278 -91 
Q 1894 -91 1617 61 
Q 1341 213 1159 525 
z
M 3116 1747 
Q 3116 2381 2855 2742 
Q 2594 3103 2138 3103 
Q 1681 3103 1420 2742 
Q 1159 2381 1159 1747 
Q 1159 1113 1420 752 
Q 1681 391 2138 391 
Q 2594 391 2855 752 
Q 3116 1113 3116 1747 
z
" transform="scale(0.015625)"/>
        <path id="DejaVuSans-75" d="M 544 1381 
L 544 3500 
L 1119 3500 
L 1119 1403 
Q 1119 906 1312 657 
Q 1506 409 1894 409 
Q 2359 409 2629 706 
Q 2900 1003 2900 1516 
L 2900 3500 
L 3475 3500 
L 3475 0 
L 2900 0 
L 2900 538 
Q 2691 219 2414 64 
Q 2138 -91 1772 -91 
Q 1169 -91 856 284 
Q 544 659 544 1381 
z
M 1991 3584 
L 1991 3584 
z
" transform="scale(0.015625)"/>
        <path id="DejaVuSans-72" d="M 2631 2963 
Q 2534 3019 2420 3045 
Q 2306 3072 2169 3072 
Q 1681 3072 1420 2755 
Q 1159 2438 1159 1844 
L 1159 0 
L 581 0 
L 581 3500 
L 1159 3500 
L 1159 2956 
Q 1341 3275 1631 3429 
Q 1922 3584 2338 3584 
Q 2397 3584 2469 3576 
Q 2541 3569 2628 3553 
L 2631 2963 
z
" transform="scale(0.015625)"/>
        <path id="DejaVuSans-69" d="M 603 3500 
L 1178 3500 
L 1178 0 
L 603 0 
L 603 3500 
z
M 603 4863 
L 1178 4863 
L 1178 4134 
L 603 4134 
L 603 4863 
z
" transform="scale(0.015625)"/>
        <path id="DejaVuSans-6f" d="M 1959 3097 
Q 1497 3097 1228 2736 
Q 959 2375 959 1747 
Q 959 1119 1226 758 
Q 1494 397 1959 397 
Q 2419 397 2687 759 
Q 2956 1122 2956 1747 
Q 2956 2369 2687 2733 
Q 2419 3097 1959 3097 
z
M 1959 3584 
Q 2709 3584 3137 3096 
Q 3566 2609 3566 1747 
Q 3566 888 3137 398 
Q 2709 -91 1959 -91 
Q 1206 -91 779 398 
Q 353 888 353 1747 
Q 353 2609 779 3096 
Q 1206 3584 1959 3584 
z
" transform="scale(0.015625)"/>
        <path id="DejaVuSans-73" d="M 2834 3397 
L 2834 2853 
Q 2591 2978 2328 3040 
Q 2066 3103 1784 3103 
Q 1356 3103 1142 2972 
Q 928 2841 928 2578 
Q 928 2378 1081 2264 
Q 1234 2150 1697 2047 
L 1894 2003 
Q 2506 1872 2764 1633 
Q 3022 1394 3022 966 
Q 3022 478 2636 193 
Q 2250 -91 1575 -91 
Q 1294 -91 989 -36 
Q 684 19 347 128 
L 347 722 
Q 666 556 975 473 
Q 1284 391 1588 391 
Q 1994 391 2212 530 
Q 2431 669 2431 922 
Q 2431 1156 2273 1281 
Q 2116 1406 1581 1522 
L 1381 1569 
Q 847 1681 609 1914 
Q 372 2147 372 2553 
Q 372 3047 722 3315 
Q 1072 3584 1716 3584 
Q 2034 3584 2315 3537 
Q 2597 3491 2834 3397 
z
" transform="scale(0.015625)"/>
       </defs>
       <use xlink:href="#DejaVuSans-53"/>
       <use xlink:href="#DejaVuSans-70" transform="translate(63.476562 0)"/>
       <use xlink:href="#DejaVuSans-75" transform="translate(126.953125 0)"/>
       <use xlink:href="#DejaVuSans-72" transform="translate(190.332031 0)"/>
       <use xlink:href="#DejaVuSans-69" transform="translate(231.445312 0)"/>
       <use xlink:href="#DejaVuSans-6f" transform="translate(259.228516 0)"/>
       <use xlink:href="#DejaVuSans-75" transform="translate(320.410156 0)"/>
       <use xlink:href="#DejaVuSans-73" transform="translate(383.789062 0)"/>
      </g>
     </g>
    </g>
    <g id="xtick_2">
     <g id="line2d_2">
      <g>
       <use xlink:href="#m3d6f4d619e" x="257.4" y="320.4" style="stroke: #000000; stroke-width: 0.8"/>
      </g>
     </g>
     <g id="text_2">
      <!-- Specific -->
      <g transform="translate(237.938281 334.998438) scale(0.1 -0.1)">
       <defs>
        <path id="DejaVuSans-65" d="M 3597 1894 
L 3597 1613 
L 953 1613 
Q 991 1019 1311 708 
Q 1631 397 2203 397 
Q 2534 397 2845 478 
Q 3156 559 3463 722 
L 3463 178 
Q 3153 47 2828 -22 
Q 2503 -91 2169 -91 
Q 1331 -91 842 396 
Q 353 884 353 1716 
Q 353 2575 817 3079 
Q 1281 3584 2069 3584 
Q 2775 3584 3186 3129 
Q 3597 2675 3597 1894 
z
M 3022 2063 
Q 3016 2534 2758 2815 
Q 2500 3097 2075 3097 
Q 1594 3097 1305 2825 
Q 1016 2553 972 2059 
L 3022 2063 
z
" transform="scale(0.015625)"/>
        <path id="DejaVuSans-63" d="M 3122 3366 
L 3122 2828 
Q 2878 2963 2633 3030 
Q 2388 3097 2138 3097 
Q 1578 3097 1268 2742 
Q 959 2388 959 1747 
Q 959 1106 1268 751 
Q 1578 397 2138 397 
Q 2388 397 2633 464 
Q 2878 531 3122 666 
L 3122 134 
Q 2881 22 2623 -34 
Q 2366 -91 2075 -91 
Q 1284 -91 818 406 
Q 353 903 353 1747 
Q 353 2603 823 3093 
Q 1294 3584 2113 3584 
Q 2378 3584 2631 3529 
Q 2884 3475 3122 3366 
z
" transform="scale(0.015625)"/>
        <path id="DejaVuSans-66" d="M 2375 4863 
L 2375 4384 
L 1825 4384 
Q 1516 4384 1395 4259 
Q 1275 4134 1275 3809 
L 1275 3500 
L 2222 3500 
L 2222 3053 
L 1275 3053 
L 1275 0 
L 697 0 
L 697 3053 
L 147 3053 
L 147 3500 
L 697 3500 
L 697 3744 
Q 697 4328 969 4595 
Q 1241 4863 1831 4863 
L 2375 4863 
z
" transform="scale(0.015625)"/>
       </defs>
       <use xlink:href="#DejaVuSans-53"/>
       <use xlink:href="#DejaVuSans-70" transform="translate(63.476562 0)"/>
       <use xlink:href="#DejaVuSans-65" transform="translate(126.953125 0)"/>
       <use xlink:href="#DejaVuSans-63" transform="translate(188.476562 0)"/>
       <use xlink:href="#DejaVuSans-69" transform="translate(243.457031 0)"/>
       <use xlink:href="#DejaVuSans-66" transform="translate(271.240234 0)"/>
       <use xlink:href="#DejaVuSans-69" transform="translate(306.445312 0)"/>
       <use xlink:href="#DejaVuSans-63" transform="translate(334.228516 0)"/>
      </g>
     </g>
    </g>
    <g id="xtick_3">
     <g id="line2d_3">
      <g>
       <use xlink:href="#m3d6f4d619e" x="369" y="320.4" style="stroke: #000000; stroke-width: 0.8"/>
      </g>
     </g>
     <g id="text_3">
      <!-- Non-specific -->
      <g transform="translate(338.335156 334.998438) scale(0.1 -0.1)">
       <defs>
        <path id="DejaVuSans-4e" d="M 628 4666 
L 1478 4666 
L 3547 763 
L 3547 4666 
L 4159 4666 
L 4159 0 
L 3309 0 
L 1241 3903 
L 1241 0 
L 628 0 
L 628 4666 
z
" transform="scale(0.015625)"/>
        <path id="DejaVuSans-6e" d="M 3513 2113 
L 3513 0 
L 2938 0 
L 2938 2094 
Q 2938 2591 2744 2837 
Q 2550 3084 2163 3084 
Q 1697 3084 1428 2787 
Q 1159 2491 1159 1978 
L 1159 0 
L 581 0 
L 581 3500 
L 1159 3500 
L 1159 2956 
Q 1366 3272 1645 3428 
Q 1925 3584 2291 3584 
Q 2894 3584 3203 3211 
Q 3513 2838 3513 2113 
z
" transform="scale(0.015625)"/>
        <path id="DejaVuSans-2d" d="M 313 2009 
L 1997 2009 
L 1997 1497 
L 313 1497 
L 313 2009 
z
" transform="scale(0.015625)"/>
       </defs>
       <use xlink:href="#DejaVuSans-4e"/>
       <use xlink:href="#DejaVuSans-6f" transform="translate(74.804688 0)"/>
       <use xlink:href="#DejaVuSans-6e" transform="translate(135.986328 0)"/>
       <use xlink:href="#DejaVuSans-2d" transform="translate(199.365234 0)"/>
       <use xlink:href="#DejaVuSans-73" transform="translate(235.449219 0)"/>
       <use xlink:href="#DejaVuSans-70" transform="translate(287.548828 0)"/>
       <use xlink:href="#DejaVuSans-65" transform="translate(351.025391 0)"/>
       <use xlink:href="#DejaVuSans-63" transform="translate(412.548828 0)"/>
       <use xlink:href="#DejaVuSans-69" transform="translate(467.529297 0)"/>
       <use xlink:href="#DejaVuSans-66" transform="translate(495.3125 0)"/>
       <use xlink:href="#DejaVuSans-69" transform="translate(530.517578 0)"/>
       <use xlink:href="#DejaVuSans-63" transform="translate(558.300781 0)"/>
      </g>
     </g>
    </g>
    <g id="xtick_4">
     <g id="line2d_4">
      <g>
       <use xlink:href="#m3d6f4d619e" x="480.6" y="320.4" style="stroke: #000000; stroke-width: 0.8"/>
      </g>
     </g>
     <g id="text_4">
      <!-- No -->
      <g transform="translate(473.8 334.998438) scale(0.1 -0.1)">
       <use xlink:href="#DejaVuSans-4e"/>
       <use xlink:href="#DejaVuSans-6f" transform="translate(74.804688 0)"/>
      </g>
     </g>
    </g>
    <g id="xtick_5">
     <g id="line2d_5">
      <g>
       <use xlink:href="#m3d6f4d619e" x="592.2" y="320.4" style="stroke: #000000; stroke-width: 0.8"/>
      </g>
     </g>
     <g id="text_5">
      <!-- other -->
      <g transform="translate(578.879688 334.998438) scale(0.1 -0.1)">
       <defs>
        <path id="DejaVuSans-74" d="M 1172 4494 
L 1172 3500 
L 2356 3500 
L 2356 3053 
L 1172 3053 
L 1172 1153 
Q 1172 725 1289 603 
Q 1406 481 1766 481 
L 2356 481 
L 2356 0 
L 1766 0 
Q 1100 0 847 248 
Q 594 497 594 1153 
L 594 3053 
L 172 3053 
L 172 3500 
L 594 3500 
L 594 4494 
L 1172 4494 
z
" transform="scale(0.015625)"/>
        <path id="DejaVuSans-68" d="M 3513 2113 
L 3513 0 
L 2938 0 
L 2938 2094 
Q 2938 2591 2744 2837 
Q 2550 3084 2163 3084 
Q 1697 3084 1428 2787 
Q 1159 2491 1159 1978 
L 1159 0 
L 581 0 
L 581 4863 
L 1159 4863 
L 1159 2956 
Q 1366 3272 1645 3428 
Q 1925 3584 2291 3584 
Q 2894 3584 3203 3211 
Q 3513 2838 3513 2113 
z
" transform="scale(0.015625)"/>
       </defs>
       <use xlink:href="#DejaVuSans-6f"/>
       <use xlink:href="#DejaVuSans-74" transform="translate(61.181641 0)"/>
       <use xlink:href="#DejaVuSans-68" transform="translate(100.390625 0)"/>
       <use xlink:href="#DejaVuSans-65" transform="translate(163.769531 0)"/>
       <use xlink:href="#DejaVuSans-72" transform="translate(225.292969 0)"/>
      </g>
     </g>
    </g>
    <g id="text_6">
     <!-- Connectivity category -->
     <g transform="translate(313.98125 348.676562) scale(0.1 -0.1)">
      <defs>
       <path id="DejaVuSans-43" d="M 4122 4306 
L 4122 3641 
Q 3803 3938 3442 4084 
Q 3081 4231 2675 4231 
Q 1875 4231 1450 3742 
Q 1025 3253 1025 2328 
Q 1025 1406 1450 917 
Q 1875 428 2675 428 
Q 3081 428 3442 575 
Q 3803 722 4122 1019 
L 4122 359 
Q 3791 134 3420 21 
Q 3050 -91 2638 -91 
Q 1578 -91 968 557 
Q 359 1206 359 2328 
Q 359 3453 968 4101 
Q 1578 4750 2638 4750 
Q 3056 4750 3426 4639 
Q 3797 4528 4122 4306 
z
" transform="scale(0.015625)"/>
       <path id="DejaVuSans-76" d="M 191 3500 
L 800 3500 
L 1894 563 
L 2988 3500 
L 3597 3500 
L 2284 0 
L 1503 0 
L 191 3500 
z
" transform="scale(0.015625)"/>
       <path id="DejaVuSans-79" d="M 2059 -325 
Q 1816 -950 1584 -1140 
Q 1353 -1331 966 -1331 
L 506 -1331 
L 506 -850 
L 844 -850 
Q 1081 -850 1212 -737 
Q 1344 -625 1503 -206 
L 1606 56 
L 191 3500 
L 800 3500 
L 1894 763 
L 2988 3500 
L 3597 3500 
L 2059 -325 
z
" transform="scale(0.015625)"/>
       <path id="DejaVuSans-20" transform="scale(0.015625)"/>
       <path id="DejaVuSans-61" d="M 2194 1759 
Q 1497 1759 1228 1600 
Q 959 1441 959 1056 
Q 959 750 1161 570 
Q 1363 391 1709 391 
Q 2188 391 2477 730 
Q 2766 1069 2766 1631 
L 2766 1759 
L 2194 1759 
z
M 3341 1997 
L 3341 0 
L 2766 0 
L 2766 531 
Q 2569 213 2275 61 
Q 1981 -91 1556 -91 
Q 1019 -91 701 211 
Q 384 513 384 1019 
Q 384 1609 779 1909 
Q 1175 2209 1959 2209 
L 2766 2209 
L 2766 2266 
Q 2766 2663 2505 2880 
Q 2244 3097 1772 3097 
Q 1472 3097 1187 3025 
Q 903 2953 641 2809 
L 641 3341 
Q 956 3463 1253 3523 
Q 1550 3584 1831 3584 
Q 2591 3584 2966 3190 
Q 3341 2797 3341 1997 
z
" transform="scale(0.015625)"/>
       <path id="DejaVuSans-67" d="M 2906 1791 
Q 2906 2416 2648 2759 
Q 2391 3103 1925 3103 
Q 1463 3103 1205 2759 
Q 947 2416 947 1791 
Q 947 1169 1205 825 
Q 1463 481 1925 481 
Q 2391 481 2648 825 
Q 2906 1169 2906 1791 
z
M 3481 434 
Q 3481 -459 3084 -895 
Q 2688 -1331 1869 -1331 
Q 1566 -1331 1297 -1286 
Q 1028 -1241 775 -1147 
L 775 -588 
Q 1028 -725 1275 -790 
Q 1522 -856 1778 -856 
Q 2344 -856 2625 -561 
Q 2906 -266 2906 331 
L 2906 616 
Q 2728 306 2450 153 
Q 2172 0 1784 0 
Q 1141 0 747 490 
Q 353 981 353 1791 
Q 353 2603 747 3093 
Q 1141 3584 1784 3584 
Q 2172 3584 2450 3431 
Q 2728 3278 2906 2969 
L 2906 3500 
L 3481 3500 
L 3481 434 
z
" transform="scale(0.015625)"/>
      </defs>
      <use xlink:href="#DejaVuSans-43"/>
      <use xlink:href="#DejaVuSans-6f" transform="translate(69.824219 0)"/>
      <use xlink:href="#DejaVuSans-6e" transform="translate(131.005859 0)"/>
      <use xlink:href="#DejaVuSans-6e" transform="translate(194.384766 0)"/>
      <use xlink:href="#DejaVuSans-65" transform="translate(257.763672 0)"/>
      <use xlink:href="#DejaVuSans-63" transform="translate(319.287109 0)"/>
      <use xlink:href="#DejaVuSans-74" transform="translate(374.267578 0)"/>
      <use xlink:href="#DejaVuSans-69" transform="translate(413.476562 0)"/>
      <use xlink:href="#DejaVuSans-76" transform="translate(441.259766 0)"/>
      <use xlink:href="#DejaVuSans-69" transform="translate(500.439453 0)"/>
      <use xlink:href="#DejaVuSans-74" transform="translate(528.222656 0)"/>
      <use xlink:href="#DejaVuSans-79" transform="translate(567.431641 0)"/>
      <use xlink:href="#DejaVuSans-20" transform="translate(626.611328 0)"/>
      <use xlink:href="#DejaVuSans-63" transform="translate(658.398438 0)"/>
      <use xlink:href="#DejaVuSans-61" transform="translate(713.378906 0)"/>
      <use xlink:href="#DejaVuSans-74" transform="translate(774.658203 0)"/>
      <use xlink:href="#DejaVuSans-65" transform="translate(813.867188 0)"/>
      <use xlink:href="#DejaVuSans-67" transform="translate(875.390625 0)"/>
      <use xlink:href="#DejaVuSans-6f" transform="translate(938.867188 0)"/>
      <use xlink:href="#DejaVuSans-72" transform="translate(1000.048828 0)"/>
      <use xlink:href="#DejaVuSans-79" transform="translate(1041.162109 0)"/>
     </g>
    </g>
   </g>
   <g id="matplotlib.axis_2">
    <g id="ytick_1">
     <g id="line2d_6">
      <defs>
       <path id="ma3891b5efd" d="M 0 0 
L -3.5 0 
" style="stroke: #000000; stroke-width: 0.8"/>
      </defs>
      <g>
       <use xlink:href="#ma3891b5efd" x="90" y="320.4" style="stroke: #000000; stroke-width: 0.8"/>
      </g>
     </g>
     <g id="text_7">
      <!-- 0 -->
      <g transform="translate(76.6375 324.199219) scale(0.1 -0.1)">
       <defs>
        <path id="DejaVuSans-30" d="M 2034 4250 
Q 1547 4250 1301 3770 
Q 1056 3291 1056 2328 
Q 1056 1369 1301 889 
Q 1547 409 2034 409 
Q 2525 409 2770 889 
Q 3016 1369 3016 2328 
Q 3016 3291 2770 3770 
Q 2525 4250 2034 4250 
z
M 2034 4750 
Q 2819 4750 3233 4129 
Q 3647 3509 3647 2328 
Q 3647 1150 3233 529 
Q 2819 -91 2034 -91 
Q 1250 -91 836 529 
Q 422 1150 422 2328 
Q 422 3509 836 4129 
Q 1250 4750 2034 4750 
z
" transform="scale(0.015625)"/>
       </defs>
       <use xlink:href="#DejaVuSans-30"/>
      </g>
     </g>
    </g>
    <g id="ytick_2">
     <g id="line2d_7">
      <g>
       <use xlink:href="#ma3891b5efd" x="90" y="277.819355" style="stroke: #000000; stroke-width: 0.8"/>
      </g>
     </g>
     <g id="text_8">
      <!-- 10 -->
      <g transform="translate(70.275 281.618574) scale(0.1 -0.1)">
       <defs>
        <path id="DejaVuSans-31" d="M 794 531 
L 1825 531 
L 1825 4091 
L 703 3866 
L 703 4441 
L 1819 4666 
L 2450 4666 
L 2450 531 
L 3481 531 
L 3481 0 
L 794 0 
L 794 531 
z
" transform="scale(0.015625)"/>
       </defs>
       <use xlink:href="#DejaVuSans-31"/>
       <use xlink:href="#DejaVuSans-30" transform="translate(63.623047 0)"/>
      </g>
     </g>
    </g>
    <g id="ytick_3">
     <g id="line2d_8">
      <g>
       <use xlink:href="#ma3891b5efd" x="90" y="235.23871" style="stroke: #000000; stroke-width: 0.8"/>
      </g>
     </g>
     <g id="text_9">
      <!-- 20 -->
      <g transform="translate(70.275 239.037928) scale(0.1 -0.1)">
       <defs>
        <path id="DejaVuSans-32" d="M 1228 531 
L 3431 531 
L 3431 0 
L 469 0 
L 469 531 
Q 828 903 1448 1529 
Q 2069 2156 2228 2338 
Q 2531 2678 2651 2914 
Q 2772 3150 2772 3378 
Q 2772 3750 2511 3984 
Q 2250 4219 1831 4219 
Q 1534 4219 1204 4116 
Q 875 4013 500 3803 
L 500 4441 
Q 881 4594 1212 4672 
Q 1544 4750 1819 4750 
Q 2544 4750 2975 4387 
Q 3406 4025 3406 3419 
Q 3406 3131 3298 2873 
Q 3191 2616 2906 2266 
Q 2828 2175 2409 1742 
Q 1991 1309 1228 531 
z
" transform="scale(0.015625)"/>
       </defs>
       <use xlink:href="#DejaVuSans-32"/>
       <use xlink:href="#DejaVuSans-30" transform="translate(63.623047 0)"/>
      </g>
     </g>
    </g>
    <g id="ytick_4">
     <g id="line2d_9">
      <g>
       <use xlink:href="#ma3891b5efd" x="90" y="192.658065" style="stroke: #000000; stroke-width: 0.8"/>
      </g>
     </g>
     <g id="text_10">
      <!-- 30 -->
      <g transform="translate(70.275 196.457283) scale(0.1 -0.1)">
       <defs>
        <path id="DejaVuSans-33" d="M 2597 2516 
Q 3050 2419 3304 2112 
Q 3559 1806 3559 1356 
Q 3559 666 3084 287 
Q 2609 -91 1734 -91 
Q 1441 -91 1130 -33 
Q 819 25 488 141 
L 488 750 
Q 750 597 1062 519 
Q 1375 441 1716 441 
Q 2309 441 2620 675 
Q 2931 909 2931 1356 
Q 2931 1769 2642 2001 
Q 2353 2234 1838 2234 
L 1294 2234 
L 1294 2753 
L 1863 2753 
Q 2328 2753 2575 2939 
Q 2822 3125 2822 3475 
Q 2822 3834 2567 4026 
Q 2313 4219 1838 4219 
Q 1578 4219 1281 4162 
Q 984 4106 628 3988 
L 628 4550 
Q 988 4650 1302 4700 
Q 1616 4750 1894 4750 
Q 2613 4750 3031 4423 
Q 3450 4097 3450 3541 
Q 3450 3153 3228 2886 
Q 3006 2619 2597 2516 
z
" transform="scale(0.015625)"/>
       </defs>
       <use xlink:href="#DejaVuSans-33"/>
       <use xlink:href="#DejaVuSans-30" transform="translate(63.623047 0)"/>
      </g>
     </g>
    </g>
    <g id="ytick_5">
     <g id="line2d_10">
      <g>
       <use xlink:href="#ma3891b5efd" x="90" y="150.077419" style="stroke: #000000; stroke-width: 0.8"/>
      </g>
     </g>
     <g id="text_11">
      <!-- 40 -->
      <g transform="translate(70.275 153.876638) scale(0.1 -0.1)">
       <defs>
        <path id="DejaVuSans-34" d="M 2419 4116 
L 825 1625 
L 2419 1625 
L 2419 4116 
z
M 2253 4666 
L 3047 4666 
L 3047 1625 
L 3713 1625 
L 3713 1100 
L 3047 1100 
L 3047 0 
L 2419 0 
L 2419 1100 
L 313 1100 
L 313 1709 
L 2253 4666 
z
" transform="scale(0.015625)"/>
       </defs>
       <use xlink:href="#DejaVuSans-34"/>
       <use xlink:href="#DejaVuSans-30" transform="translate(63.623047 0)"/>
      </g>
     </g>
    </g>
    <g id="ytick_6">
     <g id="line2d_11">
      <g>
       <use xlink:href="#ma3891b5efd" x="90" y="107.496774" style="stroke: #000000; stroke-width: 0.8"/>
      </g>
     </g>
     <g id="text_12">
      <!-- 50 -->
      <g transform="translate(70.275 111.295993) scale(0.1 -0.1)">
       <defs>
        <path id="DejaVuSans-35" d="M 691 4666 
L 3169 4666 
L 3169 4134 
L 1269 4134 
L 1269 2991 
Q 1406 3038 1543 3061 
Q 1681 3084 1819 3084 
Q 2600 3084 3056 2656 
Q 3513 2228 3513 1497 
Q 3513 744 3044 326 
Q 2575 -91 1722 -91 
Q 1428 -91 1123 -41 
Q 819 9 494 109 
L 494 744 
Q 775 591 1075 516 
Q 1375 441 1709 441 
Q 2250 441 2565 725 
Q 2881 1009 2881 1497 
Q 2881 1984 2565 2268 
Q 2250 2553 1709 2553 
Q 1456 2553 1204 2497 
Q 953 2441 691 2322 
L 691 4666 
z
" transform="scale(0.015625)"/>
       </defs>
       <use xlink:href="#DejaVuSans-35"/>
       <use xlink:href="#DejaVuSans-30" transform="translate(63.623047 0)"/>
      </g>
     </g>
    </g>
    <g id="ytick_7">
     <g id="line2d_12">
      <g>
       <use xlink:href="#ma3891b5efd" x="90" y="64.916129" style="stroke: #000000; stroke-width: 0.8"/>
      </g>
     </g>
     <g id="text_13">
      <!-- 60 -->
      <g transform="translate(70.275 68.715348) scale(0.1 -0.1)">
       <defs>
        <path id="DejaVuSans-36" d="M 2113 2584 
Q 1688 2584 1439 2293 
Q 1191 2003 1191 1497 
Q 1191 994 1439 701 
Q 1688 409 2113 409 
Q 2538 409 2786 701 
Q 3034 994 3034 1497 
Q 3034 2003 2786 2293 
Q 2538 2584 2113 2584 
z
M 3366 4563 
L 3366 3988 
Q 3128 4100 2886 4159 
Q 2644 4219 2406 4219 
Q 1781 4219 1451 3797 
Q 1122 3375 1075 2522 
Q 1259 2794 1537 2939 
Q 1816 3084 2150 3084 
Q 2853 3084 3261 2657 
Q 3669 2231 3669 1497 
Q 3669 778 3244 343 
Q 2819 -91 2113 -91 
Q 1303 -91 875 529 
Q 447 1150 447 2328 
Q 447 3434 972 4092 
Q 1497 4750 2381 4750 
Q 2619 4750 2861 4703 
Q 3103 4656 3366 4563 
z
" transform="scale(0.015625)"/>
       </defs>
       <use xlink:href="#DejaVuSans-36"/>
       <use xlink:href="#DejaVuSans-30" transform="translate(63.623047 0)"/>
      </g>
     </g>
    </g>
    <g id="text_14">
     <!-- cont_variable -->
     <g transform="translate(63.917188 215.409375) rotate(-90) scale(0.1 -0.1)">
      <defs>
       <path id="DejaVuSans-5f" d="M 3263 -1063 
L 3263 -1509 
L -63 -1509 
L -63 -1063 
L 3263 -1063 
z
" transform="scale(0.015625)"/>
       <path id="DejaVuSans-62" d="M 3116 1747 
Q 3116 2381 2855 2742 
Q 2594 3103 2138 3103 
Q 1681 3103 1420 2742 
Q 1159 2381 1159 1747 
Q 1159 1113 1420 752 
Q 1681 391 2138 391 
Q 2594 391 2855 752 
Q 3116 1113 3116 1747 
z
M 1159 2969 
Q 1341 3281 1617 3432 
Q 1894 3584 2278 3584 
Q 2916 3584 3314 3078 
Q 3713 2572 3713 1747 
Q 3713 922 3314 415 
Q 2916 -91 2278 -91 
Q 1894 -91 1617 61 
Q 1341 213 1159 525 
L 1159 0 
L 581 0 
L 581 4863 
L 1159 4863 
L 1159 2969 
z
" transform="scale(0.015625)"/>
       <path id="DejaVuSans-6c" d="M 603 4863 
L 1178 4863 
L 1178 0 
L 603 0 
L 603 4863 
z
" transform="scale(0.015625)"/>
      </defs>
      <use xlink:href="#DejaVuSans-63"/>
      <use xlink:href="#DejaVuSans-6f" transform="translate(54.980469 0)"/>
      <use xlink:href="#DejaVuSans-6e" transform="translate(116.162109 0)"/>
      <use xlink:href="#DejaVuSans-74" transform="translate(179.541016 0)"/>
      <use xlink:href="#DejaVuSans-5f" transform="translate(218.75 0)"/>
      <use xlink:href="#DejaVuSans-76" transform="translate(268.75 0)"/>
      <use xlink:href="#DejaVuSans-61" transform="translate(327.929688 0)"/>
      <use xlink:href="#DejaVuSans-72" transform="translate(389.208984 0)"/>
      <use xlink:href="#DejaVuSans-69" transform="translate(430.322266 0)"/>
      <use xlink:href="#DejaVuSans-61" transform="translate(458.105469 0)"/>
      <use xlink:href="#DejaVuSans-62" transform="translate(519.384766 0)"/>
      <use xlink:href="#DejaVuSans-6c" transform="translate(582.861328 0)"/>
      <use xlink:href="#DejaVuSans-65" transform="translate(610.644531 0)"/>
     </g>
    </g>
   </g>
   <g id="line2d_13">
    <path clip-path="url(#p0370378725)" style="fill: none; stroke: #424242; stroke-width: 2.25; stroke-linecap: square"/>
   </g>
   <g id="line2d_14">
    <path clip-path="url(#p0370378725)" style="fill: none; stroke: #424242; stroke-width: 2.25; stroke-linecap: square"/>
   </g>
   <g id="line2d_15">
    <path clip-path="url(#p0370378725)" style="fill: none; stroke: #424242; stroke-width: 2.25; stroke-linecap: square"/>
   </g>
   <g id="line2d_16">
    <path clip-path="url(#p0370378725)" style="fill: none; stroke: #424242; stroke-width: 2.25; stroke-linecap: square"/>
   </g>
   <g id="patch_9">
    <path d="M 90 320.4 
L 90 43.2 
" style="fill: none; stroke: #000000; stroke-width: 0.8; stroke-linejoin: miter; stroke-linecap: square"/>
   </g>
   <g id="patch_10">
    <path d="M 648 320.4 
L 648 43.2 
" style="fill: none; stroke: #000000; stroke-width: 0.8; stroke-linejoin: miter; stroke-linecap: square"/>
   </g>
   <g id="patch_11">
    <path d="M 90 320.4 
L 648 320.4 
" style="fill: none; stroke: #000000; stroke-width: 0.8; stroke-linejoin: miter; stroke-linecap: square"/>
   </g>
   <g id="patch_12">
    <path d="M 90 43.2 
L 648 43.2 
" style="fill: none; stroke: #000000; stroke-width: 0.8; stroke-linejoin: miter; stroke-linecap: square"/>
   </g>
   <g id="PathCollection_1">
    <defs>
     <path id="m6b31496d9c" d="M 0 2.5 
C 0.663008 2.5 1.29895 2.236584 1.767767 1.767767 
C 2.236584 1.29895 2.5 0.663008 2.5 0 
C 2.5 -0.663008 2.236584 -1.29895 1.767767 -1.767767 
C 1.29895 -2.236584 0.663008 -2.5 0 -2.5 
C -0.663008 -2.5 -1.29895 -2.236584 -1.767767 -1.767767 
C -2.236584 -1.29895 -2.5 -0.663008 -2.5 0 
C -2.5 0.663008 -2.236584 1.29895 -1.767767 1.767767 
C -1.29895 2.236584 -0.663008 2.5 0 2.5 
z
"/>
    </defs>
    <g clip-path="url(#p0370378725)">
     <use xlink:href="#m6b31496d9c" x="140.16595" y="286.335484" style="fill-opacity: 0.3"/>
     <use xlink:href="#m6b31496d9c" x="153.355638" y="286.335484" style="fill-opacity: 0.3"/>
     <use xlink:href="#m6b31496d9c" x="143.759068" y="303.367742" style="fill-opacity: 0.3"/>
     <use xlink:href="#m6b31496d9c" x="152.518008" y="286.335484" style="fill-opacity: 0.3"/>
     <use xlink:href="#m6b31496d9c" x="144.813156" y="282.077419" style="fill-opacity: 0.3"/>
     <use xlink:href="#m6b31496d9c" x="146.92142" y="282.077419" style="fill-opacity: 0.3"/>
     <use xlink:href="#m6b31496d9c" x="150.14212" y="282.077419" style="fill-opacity: 0.3"/>
     <use xlink:href="#m6b31496d9c" x="149.070231" y="282.077419" style="fill-opacity: 0.3"/>
     <use xlink:href="#m6b31496d9c" x="137.639057" y="282.077419" style="fill-opacity: 0.3"/>
     <use xlink:href="#m6b31496d9c" x="142.245871" y="282.077419" style="fill-opacity: 0.3"/>
     <use xlink:href="#m6b31496d9c" x="153.892082" y="282.077419" style="fill-opacity: 0.3"/>
     <use xlink:href="#m6b31496d9c" x="156.120914" y="282.077419" style="fill-opacity: 0.3"/>
     <use xlink:href="#m6b31496d9c" x="153.70418" y="282.077419" style="fill-opacity: 0.3"/>
     <use xlink:href="#m6b31496d9c" x="146.55225" y="282.077419" style="fill-opacity: 0.3"/>
     <use xlink:href="#m6b31496d9c" x="155.757366" y="282.077419" style="fill-opacity: 0.3"/>
     <use xlink:href="#m6b31496d9c" x="135.098621" y="282.077419" style="fill-opacity: 0.3"/>
     <use xlink:href="#m6b31496d9c" x="146.487074" y="282.077419" style="fill-opacity: 0.3"/>
     <use xlink:href="#m6b31496d9c" x="153.800312" y="282.077419" style="fill-opacity: 0.3"/>
     <use xlink:href="#m6b31496d9c" x="148.2538" y="282.077419" style="fill-opacity: 0.3"/>
     <use xlink:href="#m6b31496d9c" x="156.338614" y="282.077419" style="fill-opacity: 0.3"/>
     <use xlink:href="#m6b31496d9c" x="150.595988" y="282.077419" style="fill-opacity: 0.3"/>
     <use xlink:href="#m6b31496d9c" x="152.633878" y="282.077419" style="fill-opacity: 0.3"/>
     <use xlink:href="#m6b31496d9c" x="142.243354" y="282.077419" style="fill-opacity: 0.3"/>
     <use xlink:href="#m6b31496d9c" x="144.344488" y="282.077419" style="fill-opacity: 0.3"/>
     <use xlink:href="#m6b31496d9c" x="146.683563" y="282.077419" style="fill-opacity: 0.3"/>
     <use xlink:href="#m6b31496d9c" x="139.988798" y="282.077419" style="fill-opacity: 0.3"/>
     <use xlink:href="#m6b31496d9c" x="150.456796" y="282.077419" style="fill-opacity: 0.3"/>
     <use xlink:href="#m6b31496d9c" x="140.58589" y="282.077419" style="fill-opacity: 0.3"/>
     <use xlink:href="#m6b31496d9c" x="150.346624" y="290.593548" style="fill-opacity: 0.3"/>
     <use xlink:href="#m6b31496d9c" x="148.87065" y="290.593548" style="fill-opacity: 0.3"/>
     <use xlink:href="#m6b31496d9c" x="139.543683" y="290.593548" style="fill-opacity: 0.3"/>
     <use xlink:href="#m6b31496d9c" x="144.47045" y="290.593548" style="fill-opacity: 0.3"/>
     <use xlink:href="#m6b31496d9c" x="153.63345" y="290.593548" style="fill-opacity: 0.3"/>
     <use xlink:href="#m6b31496d9c" x="140.667365" y="290.593548" style="fill-opacity: 0.3"/>
     <use xlink:href="#m6b31496d9c" x="139.98812" y="290.593548" style="fill-opacity: 0.3"/>
     <use xlink:href="#m6b31496d9c" x="137.011074" y="290.593548" style="fill-opacity: 0.3"/>
     <use xlink:href="#m6b31496d9c" x="135.506396" y="290.593548" style="fill-opacity: 0.3"/>
     <use xlink:href="#m6b31496d9c" x="151.64416" y="290.593548" style="fill-opacity: 0.3"/>
     <use xlink:href="#m6b31496d9c" x="149.08125" y="290.593548" style="fill-opacity: 0.3"/>
     <use xlink:href="#m6b31496d9c" x="149.327855" y="290.593548" style="fill-opacity: 0.3"/>
     <use xlink:href="#m6b31496d9c" x="149.545615" y="290.593548" style="fill-opacity: 0.3"/>
     <use xlink:href="#m6b31496d9c" x="143.110872" y="290.593548" style="fill-opacity: 0.3"/>
     <use xlink:href="#m6b31496d9c" x="136.821125" y="290.593548" style="fill-opacity: 0.3"/>
     <use xlink:href="#m6b31496d9c" x="137.214126" y="290.593548" style="fill-opacity: 0.3"/>
     <use xlink:href="#m6b31496d9c" x="141.523211" y="290.593548" style="fill-opacity: 0.3"/>
     <use xlink:href="#m6b31496d9c" x="151.803457" y="290.593548" style="fill-opacity: 0.3"/>
     <use xlink:href="#m6b31496d9c" x="134.704559" y="290.593548" style="fill-opacity: 0.3"/>
     <use xlink:href="#m6b31496d9c" x="147.624693" y="290.593548" style="fill-opacity: 0.3"/>
     <use xlink:href="#m6b31496d9c" x="139.762734" y="282.077419" style="fill-opacity: 0.3"/>
     <use xlink:href="#m6b31496d9c" x="138.131646" y="282.077419" style="fill-opacity: 0.3"/>
     <use xlink:href="#m6b31496d9c" x="135.440758" y="282.077419" style="fill-opacity: 0.3"/>
     <use xlink:href="#m6b31496d9c" x="147.778275" y="282.077419" style="fill-opacity: 0.3"/>
     <use xlink:href="#m6b31496d9c" x="142.646975" y="282.077419" style="fill-opacity: 0.3"/>
     <use xlink:href="#m6b31496d9c" x="141.38216" y="282.077419" style="fill-opacity: 0.3"/>
    </g>
   </g>
   <g id="PathCollection_2">
    <g clip-path="url(#p0370378725)">
     <use xlink:href="#m6b31496d9c" x="261.040383" y="286.335484" style="fill-opacity: 0.3"/>
     <use xlink:href="#m6b31496d9c" x="265.21483" y="286.335484" style="fill-opacity: 0.3"/>
     <use xlink:href="#m6b31496d9c" x="248.90382" y="286.335484" style="fill-opacity: 0.3"/>
     <use xlink:href="#m6b31496d9c" x="263.192765" y="286.335484" style="fill-opacity: 0.3"/>
     <use xlink:href="#m6b31496d9c" x="248.870265" y="286.335484" style="fill-opacity: 0.3"/>
     <use xlink:href="#m6b31496d9c" x="265.950185" y="286.335484" style="fill-opacity: 0.3"/>
     <use xlink:href="#m6b31496d9c" x="249.582237" y="286.335484" style="fill-opacity: 0.3"/>
     <use xlink:href="#m6b31496d9c" x="262.547043" y="286.335484" style="fill-opacity: 0.3"/>
     <use xlink:href="#m6b31496d9c" x="260.030201" y="286.335484" style="fill-opacity: 0.3"/>
     <use xlink:href="#m6b31496d9c" x="259.869613" y="286.335484" style="fill-opacity: 0.3"/>
     <use xlink:href="#m6b31496d9c" x="260.384264" y="303.367742" style="fill-opacity: 0.3"/>
     <use xlink:href="#m6b31496d9c" x="246.513508" y="303.367742" style="fill-opacity: 0.3"/>
     <use xlink:href="#m6b31496d9c" x="254.435132" y="303.367742" style="fill-opacity: 0.3"/>
     <use xlink:href="#m6b31496d9c" x="248.1018" y="303.367742" style="fill-opacity: 0.3"/>
     <use xlink:href="#m6b31496d9c" x="263.658859" y="286.335484" style="fill-opacity: 0.3"/>
     <use xlink:href="#m6b31496d9c" x="257.46808" y="282.077419" style="fill-opacity: 0.3"/>
     <use xlink:href="#m6b31496d9c" x="267.820472" y="282.077419" style="fill-opacity: 0.3"/>
     <use xlink:href="#m6b31496d9c" x="265.93033" y="282.077419" style="fill-opacity: 0.3"/>
     <use xlink:href="#m6b31496d9c" x="254.898035" y="282.077419" style="fill-opacity: 0.3"/>
     <use xlink:href="#m6b31496d9c" x="247.26079" y="282.077419" style="fill-opacity: 0.3"/>
     <use xlink:href="#m6b31496d9c" x="251.458564" y="282.077419" style="fill-opacity: 0.3"/>
     <use xlink:href="#m6b31496d9c" x="263.259724" y="282.077419" style="fill-opacity: 0.3"/>
     <use xlink:href="#m6b31496d9c" x="265.03947" y="282.077419" style="fill-opacity: 0.3"/>
     <use xlink:href="#m6b31496d9c" x="247.061849" y="282.077419" style="fill-opacity: 0.3"/>
     <use xlink:href="#m6b31496d9c" x="262.786035" y="282.077419" style="fill-opacity: 0.3"/>
     <use xlink:href="#m6b31496d9c" x="252.070207" y="282.077419" style="fill-opacity: 0.3"/>
     <use xlink:href="#m6b31496d9c" x="267.407312" y="282.077419" style="fill-opacity: 0.3"/>
     <use xlink:href="#m6b31496d9c" x="259.877079" y="282.077419" style="fill-opacity: 0.3"/>
     <use xlink:href="#m6b31496d9c" x="250.158881" y="282.077419" style="fill-opacity: 0.3"/>
     <use xlink:href="#m6b31496d9c" x="266.414831" y="282.077419" style="fill-opacity: 0.3"/>
     <use xlink:href="#m6b31496d9c" x="256.929002" y="282.077419" style="fill-opacity: 0.3"/>
     <use xlink:href="#m6b31496d9c" x="251.037864" y="282.077419" style="fill-opacity: 0.3"/>
     <use xlink:href="#m6b31496d9c" x="250.511093" y="282.077419" style="fill-opacity: 0.3"/>
     <use xlink:href="#m6b31496d9c" x="256.775497" y="282.077419" style="fill-opacity: 0.3"/>
     <use xlink:href="#m6b31496d9c" x="247.06807" y="282.077419" style="fill-opacity: 0.3"/>
     <use xlink:href="#m6b31496d9c" x="260.126546" y="282.077419" style="fill-opacity: 0.3"/>
     <use xlink:href="#m6b31496d9c" x="250.037572" y="282.077419" style="fill-opacity: 0.3"/>
     <use xlink:href="#m6b31496d9c" x="264.505106" y="282.077419" style="fill-opacity: 0.3"/>
     <use xlink:href="#m6b31496d9c" x="247.114151" y="282.077419" style="fill-opacity: 0.3"/>
     <use xlink:href="#m6b31496d9c" x="256.931022" y="282.077419" style="fill-opacity: 0.3"/>
     <use xlink:href="#m6b31496d9c" x="256.021117" y="282.077419" style="fill-opacity: 0.3"/>
     <use xlink:href="#m6b31496d9c" x="256.311837" y="282.077419" style="fill-opacity: 0.3"/>
     <use xlink:href="#m6b31496d9c" x="247.530013" y="282.077419" style="fill-opacity: 0.3"/>
     <use xlink:href="#m6b31496d9c" x="252.819862" y="282.077419" style="fill-opacity: 0.3"/>
     <use xlink:href="#m6b31496d9c" x="254.26148" y="282.077419" style="fill-opacity: 0.3"/>
     <use xlink:href="#m6b31496d9c" x="267.739597" y="282.077419" style="fill-opacity: 0.3"/>
     <use xlink:href="#m6b31496d9c" x="267.272364" y="282.077419" style="fill-opacity: 0.3"/>
     <use xlink:href="#m6b31496d9c" x="258.86256" y="282.077419" style="fill-opacity: 0.3"/>
     <use xlink:href="#m6b31496d9c" x="267.670582" y="282.077419" style="fill-opacity: 0.3"/>
     <use xlink:href="#m6b31496d9c" x="264.769805" y="282.077419" style="fill-opacity: 0.3"/>
     <use xlink:href="#m6b31496d9c" x="249.863569" y="282.077419" style="fill-opacity: 0.3"/>
     <use xlink:href="#m6b31496d9c" x="252.036495" y="282.077419" style="fill-opacity: 0.3"/>
     <use xlink:href="#m6b31496d9c" x="264.770458" y="282.077419" style="fill-opacity: 0.3"/>
     <use xlink:href="#m6b31496d9c" x="256.843497" y="282.077419" style="fill-opacity: 0.3"/>
     <use xlink:href="#m6b31496d9c" x="264.538122" y="282.077419" style="fill-opacity: 0.3"/>
     <use xlink:href="#m6b31496d9c" x="253.635437" y="282.077419" style="fill-opacity: 0.3"/>
     <use xlink:href="#m6b31496d9c" x="254.1463" y="282.077419" style="fill-opacity: 0.3"/>
     <use xlink:href="#m6b31496d9c" x="246.766141" y="282.077419" style="fill-opacity: 0.3"/>
     <use xlink:href="#m6b31496d9c" x="265.241418" y="282.077419" style="fill-opacity: 0.3"/>
     <use xlink:href="#m6b31496d9c" x="253.433524" y="282.077419" style="fill-opacity: 0.3"/>
     <use xlink:href="#m6b31496d9c" x="255.51492" y="290.593548" style="fill-opacity: 0.3"/>
     <use xlink:href="#m6b31496d9c" x="268.079683" y="290.593548" style="fill-opacity: 0.3"/>
     <use xlink:href="#m6b31496d9c" x="253.262461" y="290.593548" style="fill-opacity: 0.3"/>
     <use xlink:href="#m6b31496d9c" x="259.405274" y="290.593548" style="fill-opacity: 0.3"/>
     <use xlink:href="#m6b31496d9c" x="264.669429" y="290.593548" style="fill-opacity: 0.3"/>
     <use xlink:href="#m6b31496d9c" x="247.725819" y="290.593548" style="fill-opacity: 0.3"/>
     <use xlink:href="#m6b31496d9c" x="263.341162" y="290.593548" style="fill-opacity: 0.3"/>
     <use xlink:href="#m6b31496d9c" x="251.079439" y="290.593548" style="fill-opacity: 0.3"/>
     <use xlink:href="#m6b31496d9c" x="264.754636" y="290.593548" style="fill-opacity: 0.3"/>
     <use xlink:href="#m6b31496d9c" x="249.971538" y="290.593548" style="fill-opacity: 0.3"/>
     <use xlink:href="#m6b31496d9c" x="265.499861" y="290.593548" style="fill-opacity: 0.3"/>
     <use xlink:href="#m6b31496d9c" x="262.33055" y="290.593548" style="fill-opacity: 0.3"/>
     <use xlink:href="#m6b31496d9c" x="248.907765" y="290.593548" style="fill-opacity: 0.3"/>
     <use xlink:href="#m6b31496d9c" x="246.416514" y="290.593548" style="fill-opacity: 0.3"/>
     <use xlink:href="#m6b31496d9c" x="267.890283" y="290.593548" style="fill-opacity: 0.3"/>
     <use xlink:href="#m6b31496d9c" x="247.511359" y="290.593548" style="fill-opacity: 0.3"/>
     <use xlink:href="#m6b31496d9c" x="259.661214" y="290.593548" style="fill-opacity: 0.3"/>
     <use xlink:href="#m6b31496d9c" x="257.753649" y="290.593548" style="fill-opacity: 0.3"/>
     <use xlink:href="#m6b31496d9c" x="264.871049" y="290.593548" style="fill-opacity: 0.3"/>
     <use xlink:href="#m6b31496d9c" x="265.410005" y="290.593548" style="fill-opacity: 0.3"/>
     <use xlink:href="#m6b31496d9c" x="261.537518" y="290.593548" style="fill-opacity: 0.3"/>
     <use xlink:href="#m6b31496d9c" x="266.290812" y="290.593548" style="fill-opacity: 0.3"/>
     <use xlink:href="#m6b31496d9c" x="260.851233" y="290.593548" style="fill-opacity: 0.3"/>
     <use xlink:href="#m6b31496d9c" x="251.601913" y="282.077419" style="fill-opacity: 0.3"/>
     <use xlink:href="#m6b31496d9c" x="268.198638" y="282.077419" style="fill-opacity: 0.3"/>
     <use xlink:href="#m6b31496d9c" x="254.23297" y="282.077419" style="fill-opacity: 0.3"/>
     <use xlink:href="#m6b31496d9c" x="251.652843" y="282.077419" style="fill-opacity: 0.3"/>
    </g>
   </g>
   <g id="PathCollection_3">
    <g clip-path="url(#p0370378725)">
     <use xlink:href="#m6b31496d9c" x="366.11758" y="286.335484" style="fill-opacity: 0.3"/>
     <use xlink:href="#m6b31496d9c" x="362.725403" y="286.335484" style="fill-opacity: 0.3"/>
     <use xlink:href="#m6b31496d9c" x="370.463061" y="286.335484" style="fill-opacity: 0.3"/>
     <use xlink:href="#m6b31496d9c" x="377.628918" y="286.335484" style="fill-opacity: 0.3"/>
     <use xlink:href="#m6b31496d9c" x="375.215385" y="303.367742" style="fill-opacity: 0.3"/>
     <use xlink:href="#m6b31496d9c" x="363.016189" y="303.367742" style="fill-opacity: 0.3"/>
     <use xlink:href="#m6b31496d9c" x="373.96362" y="303.367742" style="fill-opacity: 0.3"/>
     <use xlink:href="#m6b31496d9c" x="376.524873" y="286.335484" style="fill-opacity: 0.3"/>
     <use xlink:href="#m6b31496d9c" x="378.263179" y="303.367742" style="fill-opacity: 0.3"/>
     <use xlink:href="#m6b31496d9c" x="362.561721" y="286.335484" style="fill-opacity: 0.3"/>
     <use xlink:href="#m6b31496d9c" x="371.191254" y="303.367742" style="fill-opacity: 0.3"/>
     <use xlink:href="#m6b31496d9c" x="366.936627" y="282.077419" style="fill-opacity: 0.3"/>
     <use xlink:href="#m6b31496d9c" x="367.842513" y="282.077419" style="fill-opacity: 0.3"/>
     <use xlink:href="#m6b31496d9c" x="378.838645" y="282.077419" style="fill-opacity: 0.3"/>
     <use xlink:href="#m6b31496d9c" x="367.020059" y="282.077419" style="fill-opacity: 0.3"/>
     <use xlink:href="#m6b31496d9c" x="369.362663" y="282.077419" style="fill-opacity: 0.3"/>
     <use xlink:href="#m6b31496d9c" x="370.102789" y="282.077419" style="fill-opacity: 0.3"/>
     <use xlink:href="#m6b31496d9c" x="365.135614" y="282.077419" style="fill-opacity: 0.3"/>
     <use xlink:href="#m6b31496d9c" x="373.669052" y="282.077419" style="fill-opacity: 0.3"/>
     <use xlink:href="#m6b31496d9c" x="359.83362" y="282.077419" style="fill-opacity: 0.3"/>
     <use xlink:href="#m6b31496d9c" x="364.451281" y="282.077419" style="fill-opacity: 0.3"/>
     <use xlink:href="#m6b31496d9c" x="379.7477" y="282.077419" style="fill-opacity: 0.3"/>
     <use xlink:href="#m6b31496d9c" x="369.763344" y="282.077419" style="fill-opacity: 0.3"/>
     <use xlink:href="#m6b31496d9c" x="371.49478" y="282.077419" style="fill-opacity: 0.3"/>
     <use xlink:href="#m6b31496d9c" x="362.955043" y="282.077419" style="fill-opacity: 0.3"/>
     <use xlink:href="#m6b31496d9c" x="376.743574" y="282.077419" style="fill-opacity: 0.3"/>
     <use xlink:href="#m6b31496d9c" x="370.393183" y="282.077419" style="fill-opacity: 0.3"/>
     <use xlink:href="#m6b31496d9c" x="376.253532" y="282.077419" style="fill-opacity: 0.3"/>
     <use xlink:href="#m6b31496d9c" x="379.942124" y="282.077419" style="fill-opacity: 0.3"/>
     <use xlink:href="#m6b31496d9c" x="367.26403" y="282.077419" style="fill-opacity: 0.3"/>
     <use xlink:href="#m6b31496d9c" x="364.682726" y="282.077419" style="fill-opacity: 0.3"/>
     <use xlink:href="#m6b31496d9c" x="364.747024" y="282.077419" style="fill-opacity: 0.3"/>
     <use xlink:href="#m6b31496d9c" x="363.744261" y="282.077419" style="fill-opacity: 0.3"/>
     <use xlink:href="#m6b31496d9c" x="372.823373" y="282.077419" style="fill-opacity: 0.3"/>
     <use xlink:href="#m6b31496d9c" x="366.039956" y="290.593548" style="fill-opacity: 0.3"/>
     <use xlink:href="#m6b31496d9c" x="379.979219" y="290.593548" style="fill-opacity: 0.3"/>
     <use xlink:href="#m6b31496d9c" x="358.532885" y="290.593548" style="fill-opacity: 0.3"/>
     <use xlink:href="#m6b31496d9c" x="375.961499" y="290.593548" style="fill-opacity: 0.3"/>
     <use xlink:href="#m6b31496d9c" x="367.839062" y="290.593548" style="fill-opacity: 0.3"/>
     <use xlink:href="#m6b31496d9c" x="360.227304" y="290.593548" style="fill-opacity: 0.3"/>
     <use xlink:href="#m6b31496d9c" x="365.126349" y="282.077419" style="fill-opacity: 0.3"/>
     <use xlink:href="#m6b31496d9c" x="377.482417" y="282.077419" style="fill-opacity: 0.3"/>
    </g>
   </g>
   <g id="PathCollection_4">
    <g clip-path="url(#p0370378725)">
     <use xlink:href="#m6b31496d9c" x="471.975058" y="303.367742" style="fill-opacity: 0.3"/>
     <use xlink:href="#m6b31496d9c" x="480.199207" y="286.335484" style="fill-opacity: 0.3"/>
     <use xlink:href="#m6b31496d9c" x="481.746591" y="282.077419" style="fill-opacity: 0.3"/>
     <use xlink:href="#m6b31496d9c" x="471.177673" y="282.077419" style="fill-opacity: 0.3"/>
     <use xlink:href="#m6b31496d9c" x="472.944117" y="282.077419" style="fill-opacity: 0.3"/>
     <use xlink:href="#m6b31496d9c" x="482.007749" y="282.077419" style="fill-opacity: 0.3"/>
     <use xlink:href="#m6b31496d9c" x="480.653421" y="282.077419" style="fill-opacity: 0.3"/>
     <use xlink:href="#m6b31496d9c" x="478.568099" y="290.593548" style="fill-opacity: 0.3"/>
     <use xlink:href="#m6b31496d9c" x="490.698563" y="290.593548" style="fill-opacity: 0.3"/>
     <use xlink:href="#m6b31496d9c" x="490.760636" y="290.593548" style="fill-opacity: 0.3"/>
     <use xlink:href="#m6b31496d9c" x="475.544695" y="290.593548" style="fill-opacity: 0.3"/>
     <use xlink:href="#m6b31496d9c" x="476.700674" y="290.593548" style="fill-opacity: 0.3"/>
     <use xlink:href="#m6b31496d9c" x="485.83837" y="290.593548" style="fill-opacity: 0.3"/>
     <use xlink:href="#m6b31496d9c" x="479.928176" y="290.593548" style="fill-opacity: 0.3"/>
     <use xlink:href="#m6b31496d9c" x="483.728713" y="290.593548" style="fill-opacity: 0.3"/>
     <use xlink:href="#m6b31496d9c" x="471.731884" y="290.593548" style="fill-opacity: 0.3"/>
     <use xlink:href="#m6b31496d9c" x="487.292758" y="290.593548" style="fill-opacity: 0.3"/>
     <use xlink:href="#m6b31496d9c" x="474.549673" y="290.593548" style="fill-opacity: 0.3"/>
     <use xlink:href="#m6b31496d9c" x="483.471567" y="282.077419" style="fill-opacity: 0.3"/>
     <use xlink:href="#m6b31496d9c" x="481.422291" y="282.077419" style="fill-opacity: 0.3"/>
     <use xlink:href="#m6b31496d9c" x="486.860014" y="282.077419" style="fill-opacity: 0.3"/>
     <use xlink:href="#m6b31496d9c" x="477.470379" y="282.077419" style="fill-opacity: 0.3"/>
     <use xlink:href="#m6b31496d9c" x="474.282735" y="282.077419" style="fill-opacity: 0.3"/>
     <use xlink:href="#m6b31496d9c" x="475.716052" y="282.077419" style="fill-opacity: 0.3"/>
     <use xlink:href="#m6b31496d9c" x="471.067333" y="282.077419" style="fill-opacity: 0.3"/>
     <use xlink:href="#m6b31496d9c" x="489.546707" y="282.077419" style="fill-opacity: 0.3"/>
     <use xlink:href="#m6b31496d9c" x="476.077224" y="282.077419" style="fill-opacity: 0.3"/>
    </g>
   </g>
   <g id="legend_1">
    <g id="patch_13">
     <path d="M 300.208594 95.234375 
L 437.791406 95.234375 
Q 439.791406 95.234375 439.791406 93.234375 
L 439.791406 50.2 
Q 439.791406 48.2 437.791406 48.2 
L 300.208594 48.2 
Q 298.208594 48.2 298.208594 50.2 
L 298.208594 93.234375 
Q 298.208594 95.234375 300.208594 95.234375 
z
" style="fill: #ffffff; opacity: 0.8; stroke: #cccccc; stroke-linejoin: miter"/>
    </g>
    <g id="text_15">
     <!-- main.experimenter.gender -->
     <g transform="translate(302.208594 59.798437) scale(0.1 -0.1)">
      <defs>
       <path id="DejaVuSans-6d" d="M 3328 2828 
Q 3544 3216 3844 3400 
Q 4144 3584 4550 3584 
Q 5097 3584 5394 3201 
Q 5691 2819 5691 2113 
L 5691 0 
L 5113 0 
L 5113 2094 
Q 5113 2597 4934 2840 
Q 4756 3084 4391 3084 
Q 3944 3084 3684 2787 
Q 3425 2491 3425 1978 
L 3425 0 
L 2847 0 
L 2847 2094 
Q 2847 2600 2669 2842 
Q 2491 3084 2119 3084 
Q 1678 3084 1418 2786 
Q 1159 2488 1159 1978 
L 1159 0 
L 581 0 
L 581 3500 
L 1159 3500 
L 1159 2956 
Q 1356 3278 1631 3431 
Q 1906 3584 2284 3584 
Q 2666 3584 2933 3390 
Q 3200 3197 3328 2828 
z
" transform="scale(0.015625)"/>
       <path id="DejaVuSans-2e" d="M 684 794 
L 1344 794 
L 1344 0 
L 684 0 
L 684 794 
z
" transform="scale(0.015625)"/>
       <path id="DejaVuSans-78" d="M 3513 3500 
L 2247 1797 
L 3578 0 
L 2900 0 
L 1881 1375 
L 863 0 
L 184 0 
L 1544 1831 
L 300 3500 
L 978 3500 
L 1906 2253 
L 2834 3500 
L 3513 3500 
z
" transform="scale(0.015625)"/>
       <path id="DejaVuSans-64" d="M 2906 2969 
L 2906 4863 
L 3481 4863 
L 3481 0 
L 2906 0 
L 2906 525 
Q 2725 213 2448 61 
Q 2172 -91 1784 -91 
Q 1150 -91 751 415 
Q 353 922 353 1747 
Q 353 2572 751 3078 
Q 1150 3584 1784 3584 
Q 2172 3584 2448 3432 
Q 2725 3281 2906 2969 
z
M 947 1747 
Q 947 1113 1208 752 
Q 1469 391 1925 391 
Q 2381 391 2643 752 
Q 2906 1113 2906 1747 
Q 2906 2381 2643 2742 
Q 2381 3103 1925 3103 
Q 1469 3103 1208 2742 
Q 947 2381 947 1747 
z
" transform="scale(0.015625)"/>
      </defs>
      <use xlink:href="#DejaVuSans-6d"/>
      <use xlink:href="#DejaVuSans-61" transform="translate(97.412109 0)"/>
      <use xlink:href="#DejaVuSans-69" transform="translate(158.691406 0)"/>
      <use xlink:href="#DejaVuSans-6e" transform="translate(186.474609 0)"/>
      <use xlink:href="#DejaVuSans-2e" transform="translate(249.853516 0)"/>
      <use xlink:href="#DejaVuSans-65" transform="translate(281.640625 0)"/>
      <use xlink:href="#DejaVuSans-78" transform="translate(341.414062 0)"/>
      <use xlink:href="#DejaVuSans-70" transform="translate(400.59375 0)"/>
      <use xlink:href="#DejaVuSans-65" transform="translate(464.070312 0)"/>
      <use xlink:href="#DejaVuSans-72" transform="translate(525.59375 0)"/>
      <use xlink:href="#DejaVuSans-69" transform="translate(566.707031 0)"/>
      <use xlink:href="#DejaVuSans-6d" transform="translate(594.490234 0)"/>
      <use xlink:href="#DejaVuSans-65" transform="translate(691.902344 0)"/>
      <use xlink:href="#DejaVuSans-6e" transform="translate(753.425781 0)"/>
      <use xlink:href="#DejaVuSans-74" transform="translate(816.804688 0)"/>
      <use xlink:href="#DejaVuSans-65" transform="translate(856.013672 0)"/>
      <use xlink:href="#DejaVuSans-72" transform="translate(917.537109 0)"/>
      <use xlink:href="#DejaVuSans-2e" transform="translate(949.525391 0)"/>
      <use xlink:href="#DejaVuSans-67" transform="translate(981.3125 0)"/>
      <use xlink:href="#DejaVuSans-65" transform="translate(1044.789062 0)"/>
      <use xlink:href="#DejaVuSans-6e" transform="translate(1106.3125 0)"/>
      <use xlink:href="#DejaVuSans-64" transform="translate(1169.691406 0)"/>
      <use xlink:href="#DejaVuSans-65" transform="translate(1233.167969 0)"/>
      <use xlink:href="#DejaVuSans-72" transform="translate(1294.691406 0)"/>
     </g>
    </g>
    <g id="patch_14">
     <path d="M 350.129687 74.476562 
L 370.129687 74.476562 
L 370.129687 67.476562 
L 350.129687 67.476562 
z
" style="fill: #3274a1"/>
    </g>
    <g id="text_16">
     <!-- f -->
     <g transform="translate(378.129687 74.476562) scale(0.1 -0.1)">
      <use xlink:href="#DejaVuSans-66"/>
     </g>
    </g>
    <g id="patch_15">
     <path d="M 350.129687 89.154688 
L 370.129687 89.154688 
L 370.129687 82.154688 
L 350.129687 82.154688 
z
" style="fill: #e1812c"/>
    </g>
    <g id="text_17">
     <!-- m -->
     <g transform="translate(378.129687 89.154688) scale(0.1 -0.1)">
      <use xlink:href="#DejaVuSans-6d"/>
     </g>
    </g>
   </g>
  </g>
 </g>
 <defs>
  <clipPath id="p0370378725">
   <rect x="90" y="43.2" width="558" height="277.2"/>
  </clipPath>
 </defs>
</svg>
