<?xml version="1.0" encoding="utf-8" standalone="no"?>
<!DOCTYPE svg PUBLIC "-//W3C//DTD SVG 1.1//EN"
  "http://www.w3.org/Graphics/SVG/1.1/DTD/svg11.dtd">
<svg xmlns:xlink="http://www.w3.org/1999/xlink" width="720pt" height="360pt" viewBox="0 0 720 360" xmlns="http://www.w3.org/2000/svg" version="1.1">
 <metadata>
  <rdf:RDF xmlns:dc="http://purl.org/dc/elements/1.1/" xmlns:cc="http://creativecommons.org/ns#" xmlns:rdf="http://www.w3.org/1999/02/22-rdf-syntax-ns#">
   <cc:Work>
    <dc:type rdf:resource="http://purl.org/dc/dcmitype/StillImage"/>
    <dc:date>2025-09-12T09:48:54.749289</dc:date>
    <dc:format>image/svg+xml</dc:format>
    <dc:creator>
     <cc:Agent>
      <dc:title>Matplotlib v3.10.3, https://matplotlib.org/</dc:title>
     </cc:Agent>
    </dc:creator>
   </cc:Work>
  </rdf:RDF>
 </metadata>
 <defs>
  <style type="text/css">*{stroke-linejoin: round; stroke-linecap: butt}</style>
 </defs>
 <g id="figure_1">
  <g id="patch_1">
   <path d="M 0 360 
L 720 360 
L 720 0 
L 0 0 
z
" style="fill: #ffffff"/>
  </g>
  <g id="axes_1">
   <g id="patch_2">
    <path d="M 90 320.4 
L 648 320.4 
L 648 43.2 
L 90 43.2 
z
" style="fill: #ffffff"/>
   </g>
   <g id="FillBetweenPolyCollection_1">
    <defs>
     <path id="ma87dc174c0" d="M 162.582644 -60.241445 
L 156.917356 -60.241445 
L 155.994578 -62.611443 
L 154.844211 -64.981441 
L 153.435023 -67.351439 
L 151.739115 -69.721437 
L 149.73452 -72.091435 
L 147.407973 -74.461433 
L 144.75763 -76.831431 
L 141.795472 -79.201429 
L 138.549119 -81.571427 
L 135.062758 -83.941425 
L 131.39699 -86.311422 
L 127.627441 -88.68142 
L 123.842129 -91.051418 
L 120.137679 -93.421416 
L 116.61464 -95.791414 
L 113.372227 -98.161412 
L 110.50293 -100.53141 
L 108.087415 -102.901408 
L 106.190164 -105.271406 
L 104.856171 -107.641404 
L 104.108961 -110.011402 
L 103.95 -112.3814 
L 104.35948 -114.751398 
L 105.298294 -117.121395 
L 106.71096 -119.491393 
L 108.529172 -121.861391 
L 110.675667 -124.231389 
L 113.068122 -126.601387 
L 115.622833 -128.971385 
L 118.258034 -131.341383 
L 120.896747 -133.711381 
L 123.469138 -136.081379 
L 125.91439 -138.451377 
L 128.182123 -140.821375 
L 130.233392 -143.191373 
L 132.041295 -145.561371 
L 133.591192 -147.931368 
L 134.880538 -150.301366 
L 135.91831 -152.671364 
L 136.724023 -155.041362 
L 137.326347 -157.41136 
L 137.761346 -159.781358 
L 138.070412 -162.151356 
L 138.297973 -164.521354 
L 138.489105 -166.891352 
L 138.687164 -169.26135 
L 138.931587 -171.631348 
L 139.255994 -174.001346 
L 139.686688 -176.371344 
L 140.241647 -178.741341 
L 140.930055 -181.111339 
L 141.75236 -183.481337 
L 142.700853 -185.851335 
L 143.76068 -188.221333 
L 144.911196 -190.591331 
L 146.127549 -192.961329 
L 147.38237 -195.331327 
L 148.647443 -197.701325 
L 149.895242 -200.071323 
L 151.100257 -202.441321 
L 152.240031 -204.811319 
L 153.295885 -207.181316 
L 154.253321 -209.551314 
L 155.102132 -211.921312 
L 155.836264 -214.29131 
L 156.453484 -216.661308 
L 156.954932 -219.031306 
L 157.344617 -221.401304 
L 157.628914 -223.771302 
L 157.816098 -226.1413 
L 157.915955 -228.511298 
L 157.939448 -230.881296 
L 157.898457 -233.251294 
L 157.805544 -235.621292 
L 157.673733 -237.991289 
L 157.516256 -240.361287 
L 157.346269 -242.731285 
L 157.176502 -245.101283 
L 157.018869 -247.471281 
L 156.884044 -249.841279 
L 156.781042 -252.211277 
L 156.716849 -254.581275 
L 156.69613 -256.951273 
L 156.721068 -259.321271 
L 156.791348 -261.691269 
L 156.904296 -264.061267 
L 157.05518 -266.431265 
L 157.237626 -268.801262 
L 157.444133 -271.17126 
L 157.666625 -273.541258 
L 157.896996 -275.911256 
L 158.127607 -278.281254 
L 158.35169 -280.651252 
L 158.56364 -283.02125 
L 158.759182 -285.391248 
L 158.935418 -287.761246 
L 159.090767 -290.131244 
L 159.224823 -292.501242 
L 159.338154 -294.87124 
L 160.161846 -294.87124 
L 160.161846 -294.87124 
L 160.275177 -292.501242 
L 160.409233 -290.131244 
L 160.564582 -287.761246 
L 160.740818 -285.391248 
L 160.93636 -283.02125 
L 161.14831 -280.651252 
L 161.372393 -278.281254 
L 161.603004 -275.911256 
L 161.833375 -273.541258 
L 162.055867 -271.17126 
L 162.262374 -268.801262 
L 162.44482 -266.431265 
L 162.595704 -264.061267 
L 162.708652 -261.691269 
L 162.778932 -259.321271 
L 162.80387 -256.951273 
L 162.783151 -254.581275 
L 162.718958 -252.211277 
L 162.615956 -249.841279 
L 162.481131 -247.471281 
L 162.323498 -245.101283 
L 162.153731 -242.731285 
L 161.983744 -240.361287 
L 161.826267 -237.991289 
L 161.694456 -235.621292 
L 161.601543 -233.251294 
L 161.560552 -230.881296 
L 161.584045 -228.511298 
L 161.683902 -226.1413 
L 161.871086 -223.771302 
L 162.155383 -221.401304 
L 162.545068 -219.031306 
L 163.046516 -216.661308 
L 163.663736 -214.29131 
L 164.397868 -211.921312 
L 165.246679 -209.551314 
L 166.204115 -207.181316 
L 167.259969 -204.811319 
L 168.399743 -202.441321 
L 169.604758 -200.071323 
L 170.852557 -197.701325 
L 172.11763 -195.331327 
L 173.372451 -192.961329 
L 174.588804 -190.591331 
L 175.73932 -188.221333 
L 176.799147 -185.851335 
L 177.74764 -183.481337 
L 178.569945 -181.111339 
L 179.258353 -178.741341 
L 179.813312 -176.371344 
L 180.244006 -174.001346 
L 180.568413 -171.631348 
L 180.812836 -169.26135 
L 181.010895 -166.891352 
L 181.202027 -164.521354 
L 181.429588 -162.151356 
L 181.738654 -159.781358 
L 182.173653 -157.41136 
L 182.775977 -155.041362 
L 183.58169 -152.671364 
L 184.619462 -150.301366 
L 185.908808 -147.931368 
L 187.458705 -145.561371 
L 189.266608 -143.191373 
L 191.317877 -140.821375 
L 193.58561 -138.451377 
L 196.030862 -136.081379 
L 198.603253 -133.711381 
L 201.241966 -131.341383 
L 203.877167 -128.971385 
L 206.431878 -126.601387 
L 208.824333 -124.231389 
L 210.970828 -121.861391 
L 212.78904 -119.491393 
L 214.201706 -117.121395 
L 215.14052 -114.751398 
L 215.55 -112.3814 
L 215.391039 -110.011402 
L 214.643829 -107.641404 
L 213.309836 -105.271406 
L 211.412585 -102.901408 
L 208.99707 -100.53141 
L 206.127773 -98.161412 
L 202.88536 -95.791414 
L 199.362321 -93.421416 
L 195.657871 -91.051418 
L 191.872559 -88.68142 
L 188.10301 -86.311422 
L 184.437242 -83.941425 
L 180.950881 -81.571427 
L 177.704528 -79.201429 
L 174.74237 -76.831431 
L 172.092027 -74.461433 
L 169.76548 -72.091435 
L 167.760885 -69.721437 
L 166.064977 -67.351439 
L 164.655789 -64.981441 
L 163.505422 -62.611443 
L 162.582644 -60.241445 
z
" style="stroke: #3d3d3d; stroke-width: 1.25"/>
    </defs>
    <g clip-path="url(#pa4fd95c2ee)">
     <use xlink:href="#ma87dc174c0" x="0" y="360" style="fill: #3274a1; stroke: #3d3d3d; stroke-width: 1.25"/>
    </g>
   </g>
   <g id="FillBetweenPolyCollection_2">
    <defs>
     <path id="mf0f7669c82" d="M 301.041079 -72.087542 
L 297.458921 -72.087542 
L 296.623613 -74.199476 
L 295.487241 -76.311411 
L 293.982676 -78.423345 
L 292.044812 -80.535279 
L 289.61809 -82.647214 
L 286.66548 -84.759148 
L 283.178033 -86.871082 
L 279.183688 -88.983017 
L 274.753836 -91.094951 
L 270.006055 -93.206886 
L 265.101815 -95.31882 
L 260.23848 -97.430754 
L 255.635845 -99.542689 
L 251.51833 -101.654623 
L 248.094849 -103.766557 
L 245.538899 -105.878492 
L 243.971589 -107.990426 
L 243.45 -110.10236 
L 243.962472 -112.214295 
L 245.431413 -114.326229 
L 247.723047 -116.438164 
L 250.662566 -118.550098 
L 254.052418 -120.662032 
L 257.691248 -122.773967 
L 261.391111 -124.885901 
L 264.991105 -126.997835 
L 268.366278 -129.10977 
L 271.431457 -131.221704 
L 274.140367 -133.333639 
L 276.480953 -135.445573 
L 278.468181 -137.557507 
L 280.135674 -139.669442 
L 281.527444 -141.781376 
L 282.690723 -143.89331 
L 283.670522 -146.005245 
L 284.506174 -148.117179 
L 285.229744 -150.229114 
L 285.865929 -152.341048 
L 286.432934 -154.452982 
L 286.943771 -156.564917 
L 287.407556 -158.676851 
L 287.83053 -160.788785 
L 288.216727 -162.90072 
L 288.56837 -165.012654 
L 288.886191 -167.124589 
L 289.169848 -169.236523 
L 289.418581 -171.348457 
L 289.632108 -173.460392 
L 289.811673 -175.572326 
L 289.961042 -177.68426 
L 290.087221 -179.796195 
L 290.200696 -181.908129 
L 290.315082 -184.020063 
L 290.446154 -186.131998 
L 290.610403 -188.243932 
L 290.823291 -190.355867 
L 291.097482 -192.467801 
L 291.441308 -194.579735 
L 291.857694 -196.69167 
L 292.343682 -198.803604 
L 292.890615 -200.915538 
L 293.484943 -203.027473 
L 294.109509 -205.139407 
L 294.745146 -207.251342 
L 295.372367 -209.363276 
L 295.97294 -211.47521 
L 296.531174 -213.587145 
L 297.034799 -215.699079 
L 297.47539 -217.811013 
L 297.848351 -219.922948 
L 298.152539 -222.034882 
L 298.389653 -224.146817 
L 298.563515 -226.258751 
L 298.679378 -228.370685 
L 298.743362 -230.48262 
L 298.762071 -232.594554 
L 298.742399 -234.706488 
L 298.6915 -236.818423 
L 298.616827 -238.930357 
L 298.526179 -241.042292 
L 298.427663 -243.154226 
L 298.32951 -245.26616 
L 298.239744 -247.378095 
L 298.165711 -249.490029 
L 298.113549 -251.601963 
L 298.087676 -253.713898 
L 298.090409 -255.825832 
L 298.12178 -257.937766 
L 298.179596 -260.049701 
L 298.259757 -262.161635 
L 298.356771 -264.27357 
L 298.464396 -266.385504 
L 298.576308 -268.497438 
L 298.686708 -270.609373 
L 298.790782 -272.721307 
L 298.884979 -274.833241 
L 298.967102 -276.945176 
L 299.036227 -279.05711 
L 299.092497 -281.169045 
L 299.407503 -281.169045 
L 299.407503 -281.169045 
L 299.463773 -279.05711 
L 299.532898 -276.945176 
L 299.615021 -274.833241 
L 299.709218 -272.721307 
L 299.813292 -270.609373 
L 299.923692 -268.497438 
L 300.035604 -266.385504 
L 300.143229 -264.27357 
L 300.240243 -262.161635 
L 300.320404 -260.049701 
L 300.37822 -257.937766 
L 300.409591 -255.825832 
L 300.412324 -253.713898 
L 300.386451 -251.601963 
L 300.334289 -249.490029 
L 300.260256 -247.378095 
L 300.17049 -245.26616 
L 300.072337 -243.154226 
L 299.973821 -241.042292 
L 299.883173 -238.930357 
L 299.8085 -236.818423 
L 299.757601 -234.706488 
L 299.737929 -232.594554 
L 299.756638 -230.48262 
L 299.820622 -228.370685 
L 299.936485 -226.258751 
L 300.110347 -224.146817 
L 300.347461 -222.034882 
L 300.651649 -219.922948 
L 301.02461 -217.811013 
L 301.465201 -215.699079 
L 301.968826 -213.587145 
L 302.52706 -211.47521 
L 303.127633 -209.363276 
L 303.754854 -207.251342 
L 304.390491 -205.139407 
L 305.015057 -203.027473 
L 305.609385 -200.915538 
L 306.156318 -198.803604 
L 306.642306 -196.69167 
L 307.058692 -194.579735 
L 307.402518 -192.467801 
L 307.676709 -190.355867 
L 307.889597 -188.243932 
L 308.053846 -186.131998 
L 308.184918 -184.020063 
L 308.299304 -181.908129 
L 308.412779 -179.796195 
L 308.538958 -177.68426 
L 308.688327 -175.572326 
L 308.867892 -173.460392 
L 309.081419 -171.348457 
L 309.330152 -169.236523 
L 309.613809 -167.124589 
L 309.93163 -165.012654 
L 310.283273 -162.90072 
L 310.66947 -160.788785 
L 311.092444 -158.676851 
L 311.556229 -156.564917 
L 312.067066 -154.452982 
L 312.634071 -152.341048 
L 313.270256 -150.229114 
L 313.993826 -148.117179 
L 314.829478 -146.005245 
L 315.809277 -143.89331 
L 316.972556 -141.781376 
L 318.364326 -139.669442 
L 320.031819 -137.557507 
L 322.019047 -135.445573 
L 324.359633 -133.333639 
L 327.068543 -131.221704 
L 330.133722 -129.10977 
L 333.508895 -126.997835 
L 337.108889 -124.885901 
L 340.808752 -122.773967 
L 344.447582 -120.662032 
L 347.837434 -118.550098 
L 350.776953 -116.438164 
L 353.068587 -114.326229 
L 354.537528 -112.214295 
L 355.05 -110.10236 
L 354.528411 -107.990426 
L 352.961101 -105.878492 
L 350.405151 -103.766557 
L 346.98167 -101.654623 
L 342.864155 -99.542689 
L 338.26152 -97.430754 
L 333.398185 -95.31882 
L 328.493945 -93.206886 
L 323.746164 -91.094951 
L 319.316312 -88.983017 
L 315.321967 -86.871082 
L 311.83452 -84.759148 
L 308.88191 -82.647214 
L 306.455188 -80.535279 
L 304.517324 -78.423345 
L 303.012759 -76.311411 
L 301.876387 -74.199476 
L 301.041079 -72.087542 
z
" style="stroke: #3d3d3d; stroke-width: 1.25"/>
    </defs>
    <g clip-path="url(#pa4fd95c2ee)">
     <use xlink:href="#mf0f7669c82" x="0" y="360" style="fill: #e1812c; stroke: #3d3d3d; stroke-width: 1.25"/>
    </g>
   </g>
   <g id="FillBetweenPolyCollection_3">
    <defs>
     <path id="m8b79a14faa" d="M 442.402403 -52.2 
L 435.097597 -52.2 
L 434.089959 -54.745455 
L 432.875474 -57.290909 
L 431.432642 -59.836364 
L 429.743373 -62.381818 
L 427.794634 -64.927273 
L 425.580142 -67.472727 
L 423.101958 -70.018182 
L 420.371852 -72.563636 
L 417.412304 -75.109091 
L 414.257003 -77.654545 
L 410.950729 -80.2 
L 407.548566 -82.745455 
L 404.114403 -85.290909 
L 400.718783 -87.836364 
L 397.436168 -90.381818 
L 394.341798 -92.927273 
L 391.508317 -95.472727 
L 389.002402 -98.018182 
L 386.881617 -100.563636 
L 385.191719 -103.109091 
L 383.964597 -105.654545 
L 383.216981 -108.2 
L 382.95 -110.745455 
L 383.149584 -113.290909 
L 383.787666 -115.836364 
L 384.82406 -118.381818 
L 386.208847 -120.927273 
L 387.885109 -123.472727 
L 389.791776 -126.018182 
L 391.866448 -128.563636 
L 394.047984 -131.109091 
L 396.278768 -133.654545 
L 398.506538 -136.2 
L 400.685755 -138.745455 
L 402.778479 -141.290909 
L 404.754797 -143.836364 
L 406.592832 -146.381818 
L 408.278405 -148.927273 
L 409.804416 -151.472727 
L 411.170004 -154.018182 
L 412.379577 -156.563636 
L 413.441745 -159.109091 
L 414.368241 -161.654545 
L 415.172863 -164.2 
L 415.870495 -166.745455 
L 416.476234 -169.290909 
L 417.00467 -171.836364 
L 417.469331 -174.381818 
L 417.882315 -176.927273 
L 418.254101 -179.472727 
L 418.593532 -182.018182 
L 418.907945 -184.563636 
L 419.203413 -187.109091 
L 419.485047 -189.654545 
L 419.757325 -192.2 
L 420.024395 -194.745455 
L 420.290315 -197.290909 
L 420.559205 -199.836364 
L 420.835308 -202.381818 
L 421.122939 -204.927273 
L 421.426367 -207.472727 
L 421.74963 -210.018182 
L 422.096326 -212.563636 
L 422.469416 -215.109091 
L 422.87105 -217.654545 
L 423.30246 -220.2 
L 423.763911 -222.745455 
L 424.254726 -225.290909 
L 424.77337 -227.836364 
L 425.31758 -230.381818 
L 425.884522 -232.927273 
L 426.470959 -235.472727 
L 427.073404 -238.018182 
L 427.688251 -240.563636 
L 428.311874 -243.109091 
L 428.940688 -245.654545 
L 429.571186 -248.2 
L 430.199934 -250.745455 
L 430.823572 -253.290909 
L 431.438787 -255.836364 
L 432.042308 -258.381818 
L 432.630905 -260.927273 
L 433.201404 -263.472727 
L 433.750728 -266.018182 
L 434.275951 -268.563636 
L 434.774368 -271.109091 
L 435.243575 -273.654545 
L 435.681547 -276.2 
L 436.086715 -278.745455 
L 436.458023 -281.290909 
L 436.794966 -283.836364 
L 437.097609 -286.381818 
L 437.366577 -288.927273 
L 437.603016 -291.472727 
L 437.808535 -294.018182 
L 437.985132 -296.563636 
L 438.135103 -299.109091 
L 438.260946 -301.654545 
L 438.365263 -304.2 
L 439.134737 -304.2 
L 439.134737 -304.2 
L 439.239054 -301.654545 
L 439.364897 -299.109091 
L 439.514868 -296.563636 
L 439.691465 -294.018182 
L 439.896984 -291.472727 
L 440.133423 -288.927273 
L 440.402391 -286.381818 
L 440.705034 -283.836364 
L 441.041977 -281.290909 
L 441.413285 -278.745455 
L 441.818453 -276.2 
L 442.256425 -273.654545 
L 442.725632 -271.109091 
L 443.224049 -268.563636 
L 443.749272 -266.018182 
L 444.298596 -263.472727 
L 444.869095 -260.927273 
L 445.457692 -258.381818 
L 446.061213 -255.836364 
L 446.676428 -253.290909 
L 447.300066 -250.745455 
L 447.928814 -248.2 
L 448.559312 -245.654545 
L 449.188126 -243.109091 
L 449.811749 -240.563636 
L 450.426596 -238.018182 
L 451.029041 -235.472727 
L 451.615478 -232.927273 
L 452.18242 -230.381818 
L 452.72663 -227.836364 
L 453.245274 -225.290909 
L 453.736089 -222.745455 
L 454.19754 -220.2 
L 454.62895 -217.654545 
L 455.030584 -215.109091 
L 455.403674 -212.563636 
L 455.75037 -210.018182 
L 456.073633 -207.472727 
L 456.377061 -204.927273 
L 456.664692 -202.381818 
L 456.940795 -199.836364 
L 457.209685 -197.290909 
L 457.475605 -194.745455 
L 457.742675 -192.2 
L 458.014953 -189.654545 
L 458.296587 -187.109091 
L 458.592055 -184.563636 
L 458.906468 -182.018182 
L 459.245899 -179.472727 
L 459.617685 -176.927273 
L 460.030669 -174.381818 
L 460.49533 -171.836364 
L 461.023766 -169.290909 
L 461.629505 -166.745455 
L 462.327137 -164.2 
L 463.131759 -161.654545 
L 464.058255 -159.109091 
L 465.120423 -156.563636 
L 466.329996 -154.018182 
L 467.695584 -151.472727 
L 469.221595 -148.927273 
L 470.907168 -146.381818 
L 472.745203 -143.836364 
L 474.721521 -141.290909 
L 476.814245 -138.745455 
L 478.993462 -136.2 
L 481.221232 -133.654545 
L 483.452016 -131.109091 
L 485.633552 -128.563636 
L 487.708224 -126.018182 
L 489.614891 -123.472727 
L 491.291153 -120.927273 
L 492.67594 -118.381818 
L 493.712334 -115.836364 
L 494.350416 -113.290909 
L 494.55 -110.745455 
L 494.283019 -108.2 
L 493.535403 -105.654545 
L 492.308281 -103.109091 
L 490.618383 -100.563636 
L 488.497598 -98.018182 
L 485.991683 -95.472727 
L 483.158202 -92.927273 
L 480.063832 -90.381818 
L 476.781217 -87.836364 
L 473.385597 -85.290909 
L 469.951434 -82.745455 
L 466.549271 -80.2 
L 463.242997 -77.654545 
L 460.087696 -75.109091 
L 457.128148 -72.563636 
L 454.398042 -70.018182 
L 451.919858 -67.472727 
L 449.705366 -64.927273 
L 447.756627 -62.381818 
L 446.067358 -59.836364 
L 444.624526 -57.290909 
L 443.410041 -54.745455 
L 442.402403 -52.2 
z
" style="stroke: #3d3d3d; stroke-width: 1.25"/>
    </defs>
    <g clip-path="url(#pa4fd95c2ee)">
     <use xlink:href="#m8b79a14faa" x="0" y="360" style="fill: #3a923a; stroke: #3d3d3d; stroke-width: 1.25"/>
    </g>
   </g>
   <g id="FillBetweenPolyCollection_4">
    <defs>
     <path id="m37caa57e97" d="M 579.23332 -67.609673 
L 577.26668 -67.609673 
L 576.814314 -69.814081 
L 576.192786 -72.018489 
L 575.357074 -74.222897 
L 574.257747 -76.427305 
L 572.843593 -78.631713 
L 571.06544 -80.836121 
L 568.881104 -83.040529 
L 566.261204 -85.244937 
L 563.195332 -87.449345 
L 559.697874 -89.653753 
L 555.812638 -91.858161 
L 551.615395 -94.062569 
L 547.213578 -96.266977 
L 542.74263 -98.471385 
L 538.358925 -100.675793 
L 534.229656 -102.880201 
L 530.520603 -105.084609 
L 527.383083 -107.289017 
L 524.941612 -109.493425 
L 523.283809 -111.697833 
L 522.45381 -113.902241 
L 522.45 -116.10665 
L 523.227252 -118.311058 
L 524.703238 -120.515466 
L 526.767838 -122.719874 
L 529.294276 -124.924282 
L 532.150516 -127.12869 
L 535.209521 -129.333098 
L 538.357321 -131.537506 
L 541.498266 -133.741914 
L 544.55732 -135.946322 
L 547.479726 -138.15073 
L 550.22864 -140.355138 
L 552.78157 -142.559546 
L 555.126411 -144.763954 
L 557.257781 -146.968362 
L 559.174143 -149.17277 
L 560.875961 -151.377178 
L 562.364891 -153.581586 
L 563.643864 -155.785994 
L 564.717765 -157.990402 
L 565.594403 -160.19481 
L 566.285469 -162.399218 
L 566.807229 -164.603626 
L 567.180786 -166.808034 
L 567.431813 -169.012442 
L 567.589743 -171.21685 
L 567.686457 -173.421258 
L 567.754574 -175.625666 
L 567.825501 -177.830074 
L 567.927436 -180.034482 
L 568.083522 -182.23889 
L 568.310366 -184.443298 
L 568.617108 -186.647707 
L 569.005142 -188.852115 
L 569.468546 -191.056523 
L 569.995161 -193.260931 
L 570.56819 -195.465339 
L 571.168106 -197.669747 
L 571.774638 -199.874155 
L 572.368594 -202.078563 
L 572.933315 -204.282971 
L 573.455648 -206.487379 
L 573.926375 -208.691787 
L 574.340143 -210.896195 
L 574.695006 -213.100603 
L 574.991722 -215.305011 
L 575.232977 -217.509419 
L 575.422672 -219.713827 
L 575.565367 -221.918235 
L 575.665956 -224.122643 
L 575.729528 -226.327051 
L 575.761398 -228.531459 
L 575.767209 -230.735867 
L 575.753034 -232.940275 
L 575.725414 -235.144683 
L 575.691279 -237.349091 
L 575.657754 -239.553499 
L 575.631854 -241.757907 
L 575.620118 -243.962315 
L 575.628216 -246.166723 
L 575.660584 -248.371131 
L 575.720137 -250.575539 
L 575.80808 -252.779947 
L 575.923845 -254.984356 
L 576.065161 -257.188764 
L 576.228252 -259.393172 
L 576.408145 -261.59758 
L 576.599063 -263.801988 
L 576.79486 -266.006396 
L 576.989474 -268.210804 
L 577.177334 -270.415212 
L 577.353703 -272.61962 
L 577.51491 -274.824028 
L 577.658479 -277.028436 
L 577.783129 -279.232844 
L 577.888683 -281.437252 
L 577.975889 -283.64166 
L 578.0462 -285.846068 
L 578.4538 -285.846068 
L 578.4538 -285.846068 
L 578.524111 -283.64166 
L 578.611317 -281.437252 
L 578.716871 -279.232844 
L 578.841521 -277.028436 
L 578.98509 -274.824028 
L 579.146297 -272.61962 
L 579.322666 -270.415212 
L 579.510526 -268.210804 
L 579.70514 -266.006396 
L 579.900937 -263.801988 
L 580.091855 -261.59758 
L 580.271748 -259.393172 
L 580.434839 -257.188764 
L 580.576155 -254.984356 
L 580.69192 -252.779947 
L 580.779863 -250.575539 
L 580.839416 -248.371131 
L 580.871784 -246.166723 
L 580.879882 -243.962315 
L 580.868146 -241.757907 
L 580.842246 -239.553499 
L 580.808721 -237.349091 
L 580.774586 -235.144683 
L 580.746966 -232.940275 
L 580.732791 -230.735867 
L 580.738602 -228.531459 
L 580.770472 -226.327051 
L 580.834044 -224.122643 
L 580.934633 -221.918235 
L 581.077328 -219.713827 
L 581.267023 -217.509419 
L 581.508278 -215.305011 
L 581.804994 -213.100603 
L 582.159857 -210.896195 
L 582.573625 -208.691787 
L 583.044352 -206.487379 
L 583.566685 -204.282971 
L 584.131406 -202.078563 
L 584.725362 -199.874155 
L 585.331894 -197.669747 
L 585.93181 -195.465339 
L 586.504839 -193.260931 
L 587.031454 -191.056523 
L 587.494858 -188.852115 
L 587.882892 -186.647707 
L 588.189634 -184.443298 
L 588.416478 -182.23889 
L 588.572564 -180.034482 
L 588.674499 -177.830074 
L 588.745426 -175.625666 
L 588.813543 -173.421258 
L 588.910257 -171.21685 
L 589.068187 -169.012442 
L 589.319214 -166.808034 
L 589.692771 -164.603626 
L 590.214531 -162.399218 
L 590.905597 -160.19481 
L 591.782235 -157.990402 
L 592.856136 -155.785994 
L 594.135109 -153.581586 
L 595.624039 -151.377178 
L 597.325857 -149.17277 
L 599.242219 -146.968362 
L 601.373589 -144.763954 
L 603.71843 -142.559546 
L 606.27136 -140.355138 
L 609.020274 -138.15073 
L 611.94268 -135.946322 
L 615.001734 -133.741914 
L 618.142679 -131.537506 
L 621.290479 -129.333098 
L 624.349484 -127.12869 
L 627.205724 -124.924282 
L 629.732162 -122.719874 
L 631.796762 -120.515466 
L 633.272748 -118.311058 
L 634.05 -116.10665 
L 634.04619 -113.902241 
L 633.216191 -111.697833 
L 631.558388 -109.493425 
L 629.116917 -107.289017 
L 625.979397 -105.084609 
L 622.270344 -102.880201 
L 618.141075 -100.675793 
L 613.75737 -98.471385 
L 609.286422 -96.266977 
L 604.884605 -94.062569 
L 600.687362 -91.858161 
L 596.802126 -89.653753 
L 593.304668 -87.449345 
L 590.238796 -85.244937 
L 587.618896 -83.040529 
L 585.43456 -80.836121 
L 583.656407 -78.631713 
L 582.242253 -76.427305 
L 581.142926 -74.222897 
L 580.307214 -72.018489 
L 579.685686 -69.814081 
L 579.23332 -67.609673 
z
" style="stroke: #3d3d3d; stroke-width: 1.25"/>
    </defs>
    <g clip-path="url(#pa4fd95c2ee)">
     <use xlink:href="#m37caa57e97" x="0" y="360" style="fill: #c03d3e; stroke: #3d3d3d; stroke-width: 1.25"/>
    </g>
   </g>
   <g id="matplotlib.axis_1">
    <g id="xtick_1">
     <g id="line2d_1">
      <defs>
       <path id="mb0a53642aa" d="M 0 0 
L 0 3.5 
" style="stroke: #000000; stroke-width: 0.8"/>
      </defs>
      <g>
       <use xlink:href="#mb0a53642aa" x="159.75" y="320.4" style="stroke: #000000; stroke-width: 0.8"/>
      </g>
     </g>
     <g id="text_1">
      <!-- No -->
      <g transform="translate(152.95 334.998438) scale(0.1 -0.1)">
       <defs>
        <path id="DejaVuSans-4e" d="M 628 4666 
L 1478 4666 
L 3547 763 
L 3547 4666 
L 4159 4666 
L 4159 0 
L 3309 0 
L 1241 3903 
L 1241 0 
L 628 0 
L 628 4666 
z
" transform="scale(0.015625)"/>
        <path id="DejaVuSans-6f" d="M 1959 3097 
Q 1497 3097 1228 2736 
Q 959 2375 959 1747 
Q 959 1119 1226 758 
Q 1494 397 1959 397 
Q 2419 397 2687 759 
Q 2956 1122 2956 1747 
Q 2956 2369 2687 2733 
Q 2419 3097 1959 3097 
z
M 1959 3584 
Q 2709 3584 3137 3096 
Q 3566 2609 3566 1747 
Q 3566 888 3137 398 
Q 2709 -91 1959 -91 
Q 1206 -91 779 398 
Q 353 888 353 1747 
Q 353 2609 779 3096 
Q 1206 3584 1959 3584 
z
" transform="scale(0.015625)"/>
       </defs>
       <use xlink:href="#DejaVuSans-4e"/>
       <use xlink:href="#DejaVuSans-6f" transform="translate(74.804688 0)"/>
      </g>
     </g>
    </g>
    <g id="xtick_2">
     <g id="line2d_2">
      <g>
       <use xlink:href="#mb0a53642aa" x="299.25" y="320.4" style="stroke: #000000; stroke-width: 0.8"/>
      </g>
     </g>
     <g id="text_2">
      <!-- Specific -->
      <g transform="translate(279.788281 334.998438) scale(0.1 -0.1)">
       <defs>
        <path id="DejaVuSans-53" d="M 3425 4513 
L 3425 3897 
Q 3066 4069 2747 4153 
Q 2428 4238 2131 4238 
Q 1616 4238 1336 4038 
Q 1056 3838 1056 3469 
Q 1056 3159 1242 3001 
Q 1428 2844 1947 2747 
L 2328 2669 
Q 3034 2534 3370 2195 
Q 3706 1856 3706 1288 
Q 3706 609 3251 259 
Q 2797 -91 1919 -91 
Q 1588 -91 1214 -16 
Q 841 59 441 206 
L 441 856 
Q 825 641 1194 531 
Q 1563 422 1919 422 
Q 2459 422 2753 634 
Q 3047 847 3047 1241 
Q 3047 1584 2836 1778 
Q 2625 1972 2144 2069 
L 1759 2144 
Q 1053 2284 737 2584 
Q 422 2884 422 3419 
Q 422 4038 858 4394 
Q 1294 4750 2059 4750 
Q 2388 4750 2728 4690 
Q 3069 4631 3425 4513 
z
" transform="scale(0.015625)"/>
        <path id="DejaVuSans-70" d="M 1159 525 
L 1159 -1331 
L 581 -1331 
L 581 3500 
L 1159 3500 
L 1159 2969 
Q 1341 3281 1617 3432 
Q 1894 3584 2278 3584 
Q 2916 3584 3314 3078 
Q 3713 2572 3713 1747 
Q 3713 922 3314 415 
Q 2916 -91 2278 -91 
Q 1894 -91 1617 61 
Q 1341 213 1159 525 
z
M 3116 1747 
Q 3116 2381 2855 2742 
Q 2594 3103 2138 3103 
Q 1681 3103 1420 2742 
Q 1159 2381 1159 1747 
Q 1159 1113 1420 752 
Q 1681 391 2138 391 
Q 2594 391 2855 752 
Q 3116 1113 3116 1747 
z
" transform="scale(0.015625)"/>
        <path id="DejaVuSans-65" d="M 3597 1894 
L 3597 1613 
L 953 1613 
Q 991 1019 1311 708 
Q 1631 397 2203 397 
Q 2534 397 2845 478 
Q 3156 559 3463 722 
L 3463 178 
Q 3153 47 2828 -22 
Q 2503 -91 2169 -91 
Q 1331 -91 842 396 
Q 353 884 353 1716 
Q 353 2575 817 3079 
Q 1281 3584 2069 3584 
Q 2775 3584 3186 3129 
Q 3597 2675 3597 1894 
z
M 3022 2063 
Q 3016 2534 2758 2815 
Q 2500 3097 2075 3097 
Q 1594 3097 1305 2825 
Q 1016 2553 972 2059 
L 3022 2063 
z
" transform="scale(0.015625)"/>
        <path id="DejaVuSans-63" d="M 3122 3366 
L 3122 2828 
Q 2878 2963 2633 3030 
Q 2388 3097 2138 3097 
Q 1578 3097 1268 2742 
Q 959 2388 959 1747 
Q 959 1106 1268 751 
Q 1578 397 2138 397 
Q 2388 397 2633 464 
Q 2878 531 3122 666 
L 3122 134 
Q 2881 22 2623 -34 
Q 2366 -91 2075 -91 
Q 1284 -91 818 406 
Q 353 903 353 1747 
Q 353 2603 823 3093 
Q 1294 3584 2113 3584 
Q 2378 3584 2631 3529 
Q 2884 3475 3122 3366 
z
" transform="scale(0.015625)"/>
        <path id="DejaVuSans-69" d="M 603 3500 
L 1178 3500 
L 1178 0 
L 603 0 
L 603 3500 
z
M 603 4863 
L 1178 4863 
L 1178 4134 
L 603 4134 
L 603 4863 
z
" transform="scale(0.015625)"/>
        <path id="DejaVuSans-66" d="M 2375 4863 
L 2375 4384 
L 1825 4384 
Q 1516 4384 1395 4259 
Q 1275 4134 1275 3809 
L 1275 3500 
L 2222 3500 
L 2222 3053 
L 1275 3053 
L 1275 0 
L 697 0 
L 697 3053 
L 147 3053 
L 147 3500 
L 697 3500 
L 697 3744 
Q 697 4328 969 4595 
Q 1241 4863 1831 4863 
L 2375 4863 
z
" transform="scale(0.015625)"/>
       </defs>
       <use xlink:href="#DejaVuSans-53"/>
       <use xlink:href="#DejaVuSans-70" transform="translate(63.476562 0)"/>
       <use xlink:href="#DejaVuSans-65" transform="translate(126.953125 0)"/>
       <use xlink:href="#DejaVuSans-63" transform="translate(188.476562 0)"/>
       <use xlink:href="#DejaVuSans-69" transform="translate(243.457031 0)"/>
       <use xlink:href="#DejaVuSans-66" transform="translate(271.240234 0)"/>
       <use xlink:href="#DejaVuSans-69" transform="translate(306.445312 0)"/>
       <use xlink:href="#DejaVuSans-63" transform="translate(334.228516 0)"/>
      </g>
     </g>
    </g>
    <g id="xtick_3">
     <g id="line2d_3">
      <g>
       <use xlink:href="#mb0a53642aa" x="438.75" y="320.4" style="stroke: #000000; stroke-width: 0.8"/>
      </g>
     </g>
     <g id="text_3">
      <!-- Spurious -->
      <g transform="translate(416.955469 334.998438) scale(0.1 -0.1)">
       <defs>
        <path id="DejaVuSans-75" d="M 544 1381 
L 544 3500 
L 1119 3500 
L 1119 1403 
Q 1119 906 1312 657 
Q 1506 409 1894 409 
Q 2359 409 2629 706 
Q 2900 1003 2900 1516 
L 2900 3500 
L 3475 3500 
L 3475 0 
L 2900 0 
L 2900 538 
Q 2691 219 2414 64 
Q 2138 -91 1772 -91 
Q 1169 -91 856 284 
Q 544 659 544 1381 
z
M 1991 3584 
L 1991 3584 
z
" transform="scale(0.015625)"/>
        <path id="DejaVuSans-72" d="M 2631 2963 
Q 2534 3019 2420 3045 
Q 2306 3072 2169 3072 
Q 1681 3072 1420 2755 
Q 1159 2438 1159 1844 
L 1159 0 
L 581 0 
L 581 3500 
L 1159 3500 
L 1159 2956 
Q 1341 3275 1631 3429 
Q 1922 3584 2338 3584 
Q 2397 3584 2469 3576 
Q 2541 3569 2628 3553 
L 2631 2963 
z
" transform="scale(0.015625)"/>
        <path id="DejaVuSans-73" d="M 2834 3397 
L 2834 2853 
Q 2591 2978 2328 3040 
Q 2066 3103 1784 3103 
Q 1356 3103 1142 2972 
Q 928 2841 928 2578 
Q 928 2378 1081 2264 
Q 1234 2150 1697 2047 
L 1894 2003 
Q 2506 1872 2764 1633 
Q 3022 1394 3022 966 
Q 3022 478 2636 193 
Q 2250 -91 1575 -91 
Q 1294 -91 989 -36 
Q 684 19 347 128 
L 347 722 
Q 666 556 975 473 
Q 1284 391 1588 391 
Q 1994 391 2212 530 
Q 2431 669 2431 922 
Q 2431 1156 2273 1281 
Q 2116 1406 1581 1522 
L 1381 1569 
Q 847 1681 609 1914 
Q 372 2147 372 2553 
Q 372 3047 722 3315 
Q 1072 3584 1716 3584 
Q 2034 3584 2315 3537 
Q 2597 3491 2834 3397 
z
" transform="scale(0.015625)"/>
       </defs>
       <use xlink:href="#DejaVuSans-53"/>
       <use xlink:href="#DejaVuSans-70" transform="translate(63.476562 0)"/>
       <use xlink:href="#DejaVuSans-75" transform="translate(126.953125 0)"/>
       <use xlink:href="#DejaVuSans-72" transform="translate(190.332031 0)"/>
       <use xlink:href="#DejaVuSans-69" transform="translate(231.445312 0)"/>
       <use xlink:href="#DejaVuSans-6f" transform="translate(259.228516 0)"/>
       <use xlink:href="#DejaVuSans-75" transform="translate(320.410156 0)"/>
       <use xlink:href="#DejaVuSans-73" transform="translate(383.789062 0)"/>
      </g>
     </g>
    </g>
    <g id="xtick_4">
     <g id="line2d_4">
      <g>
       <use xlink:href="#mb0a53642aa" x="578.25" y="320.4" style="stroke: #000000; stroke-width: 0.8"/>
      </g>
     </g>
     <g id="text_4">
      <!-- Non-specific -->
      <g transform="translate(547.585156 334.998438) scale(0.1 -0.1)">
       <defs>
        <path id="DejaVuSans-6e" d="M 3513 2113 
L 3513 0 
L 2938 0 
L 2938 2094 
Q 2938 2591 2744 2837 
Q 2550 3084 2163 3084 
Q 1697 3084 1428 2787 
Q 1159 2491 1159 1978 
L 1159 0 
L 581 0 
L 581 3500 
L 1159 3500 
L 1159 2956 
Q 1366 3272 1645 3428 
Q 1925 3584 2291 3584 
Q 2894 3584 3203 3211 
Q 3513 2838 3513 2113 
z
" transform="scale(0.015625)"/>
        <path id="DejaVuSans-2d" d="M 313 2009 
L 1997 2009 
L 1997 1497 
L 313 1497 
L 313 2009 
z
" transform="scale(0.015625)"/>
       </defs>
       <use xlink:href="#DejaVuSans-4e"/>
       <use xlink:href="#DejaVuSans-6f" transform="translate(74.804688 0)"/>
       <use xlink:href="#DejaVuSans-6e" transform="translate(135.986328 0)"/>
       <use xlink:href="#DejaVuSans-2d" transform="translate(199.365234 0)"/>
       <use xlink:href="#DejaVuSans-73" transform="translate(235.449219 0)"/>
       <use xlink:href="#DejaVuSans-70" transform="translate(287.548828 0)"/>
       <use xlink:href="#DejaVuSans-65" transform="translate(351.025391 0)"/>
       <use xlink:href="#DejaVuSans-63" transform="translate(412.548828 0)"/>
       <use xlink:href="#DejaVuSans-69" transform="translate(467.529297 0)"/>
       <use xlink:href="#DejaVuSans-66" transform="translate(495.3125 0)"/>
       <use xlink:href="#DejaVuSans-69" transform="translate(530.517578 0)"/>
       <use xlink:href="#DejaVuSans-63" transform="translate(558.300781 0)"/>
      </g>
     </g>
    </g>
    <g id="text_5">
     <!-- Connectivity category -->
     <g transform="translate(313.98125 348.676562) scale(0.1 -0.1)">
      <defs>
       <path id="DejaVuSans-43" d="M 4122 4306 
L 4122 3641 
Q 3803 3938 3442 4084 
Q 3081 4231 2675 4231 
Q 1875 4231 1450 3742 
Q 1025 3253 1025 2328 
Q 1025 1406 1450 917 
Q 1875 428 2675 428 
Q 3081 428 3442 575 
Q 3803 722 4122 1019 
L 4122 359 
Q 3791 134 3420 21 
Q 3050 -91 2638 -91 
Q 1578 -91 968 557 
Q 359 1206 359 2328 
Q 359 3453 968 4101 
Q 1578 4750 2638 4750 
Q 3056 4750 3426 4639 
Q 3797 4528 4122 4306 
z
" transform="scale(0.015625)"/>
       <path id="DejaVuSans-74" d="M 1172 4494 
L 1172 3500 
L 2356 3500 
L 2356 3053 
L 1172 3053 
L 1172 1153 
Q 1172 725 1289 603 
Q 1406 481 1766 481 
L 2356 481 
L 2356 0 
L 1766 0 
Q 1100 0 847 248 
Q 594 497 594 1153 
L 594 3053 
L 172 3053 
L 172 3500 
L 594 3500 
L 594 4494 
L 1172 4494 
z
" transform="scale(0.015625)"/>
       <path id="DejaVuSans-76" d="M 191 3500 
L 800 3500 
L 1894 563 
L 2988 3500 
L 3597 3500 
L 2284 0 
L 1503 0 
L 191 3500 
z
" transform="scale(0.015625)"/>
       <path id="DejaVuSans-79" d="M 2059 -325 
Q 1816 -950 1584 -1140 
Q 1353 -1331 966 -1331 
L 506 -1331 
L 506 -850 
L 844 -850 
Q 1081 -850 1212 -737 
Q 1344 -625 1503 -206 
L 1606 56 
L 191 3500 
L 800 3500 
L 1894 763 
L 2988 3500 
L 3597 3500 
L 2059 -325 
z
" transform="scale(0.015625)"/>
       <path id="DejaVuSans-20" transform="scale(0.015625)"/>
       <path id="DejaVuSans-61" d="M 2194 1759 
Q 1497 1759 1228 1600 
Q 959 1441 959 1056 
Q 959 750 1161 570 
Q 1363 391 1709 391 
Q 2188 391 2477 730 
Q 2766 1069 2766 1631 
L 2766 1759 
L 2194 1759 
z
M 3341 1997 
L 3341 0 
L 2766 0 
L 2766 531 
Q 2569 213 2275 61 
Q 1981 -91 1556 -91 
Q 1019 -91 701 211 
Q 384 513 384 1019 
Q 384 1609 779 1909 
Q 1175 2209 1959 2209 
L 2766 2209 
L 2766 2266 
Q 2766 2663 2505 2880 
Q 2244 3097 1772 3097 
Q 1472 3097 1187 3025 
Q 903 2953 641 2809 
L 641 3341 
Q 956 3463 1253 3523 
Q 1550 3584 1831 3584 
Q 2591 3584 2966 3190 
Q 3341 2797 3341 1997 
z
" transform="scale(0.015625)"/>
       <path id="DejaVuSans-67" d="M 2906 1791 
Q 2906 2416 2648 2759 
Q 2391 3103 1925 3103 
Q 1463 3103 1205 2759 
Q 947 2416 947 1791 
Q 947 1169 1205 825 
Q 1463 481 1925 481 
Q 2391 481 2648 825 
Q 2906 1169 2906 1791 
z
M 3481 434 
Q 3481 -459 3084 -895 
Q 2688 -1331 1869 -1331 
Q 1566 -1331 1297 -1286 
Q 1028 -1241 775 -1147 
L 775 -588 
Q 1028 -725 1275 -790 
Q 1522 -856 1778 -856 
Q 2344 -856 2625 -561 
Q 2906 -266 2906 331 
L 2906 616 
Q 2728 306 2450 153 
Q 2172 0 1784 0 
Q 1141 0 747 490 
Q 353 981 353 1791 
Q 353 2603 747 3093 
Q 1141 3584 1784 3584 
Q 2172 3584 2450 3431 
Q 2728 3278 2906 2969 
L 2906 3500 
L 3481 3500 
L 3481 434 
z
" transform="scale(0.015625)"/>
      </defs>
      <use xlink:href="#DejaVuSans-43"/>
      <use xlink:href="#DejaVuSans-6f" transform="translate(69.824219 0)"/>
      <use xlink:href="#DejaVuSans-6e" transform="translate(131.005859 0)"/>
      <use xlink:href="#DejaVuSans-6e" transform="translate(194.384766 0)"/>
      <use xlink:href="#DejaVuSans-65" transform="translate(257.763672 0)"/>
      <use xlink:href="#DejaVuSans-63" transform="translate(319.287109 0)"/>
      <use xlink:href="#DejaVuSans-74" transform="translate(374.267578 0)"/>
      <use xlink:href="#DejaVuSans-69" transform="translate(413.476562 0)"/>
      <use xlink:href="#DejaVuSans-76" transform="translate(441.259766 0)"/>
      <use xlink:href="#DejaVuSans-69" transform="translate(500.439453 0)"/>
      <use xlink:href="#DejaVuSans-74" transform="translate(528.222656 0)"/>
      <use xlink:href="#DejaVuSans-79" transform="translate(567.431641 0)"/>
      <use xlink:href="#DejaVuSans-20" transform="translate(626.611328 0)"/>
      <use xlink:href="#DejaVuSans-63" transform="translate(658.398438 0)"/>
      <use xlink:href="#DejaVuSans-61" transform="translate(713.378906 0)"/>
      <use xlink:href="#DejaVuSans-74" transform="translate(774.658203 0)"/>
      <use xlink:href="#DejaVuSans-65" transform="translate(813.867188 0)"/>
      <use xlink:href="#DejaVuSans-67" transform="translate(875.390625 0)"/>
      <use xlink:href="#DejaVuSans-6f" transform="translate(938.867188 0)"/>
      <use xlink:href="#DejaVuSans-72" transform="translate(1000.048828 0)"/>
      <use xlink:href="#DejaVuSans-79" transform="translate(1041.162109 0)"/>
     </g>
    </g>
   </g>
   <g id="matplotlib.axis_2">
    <g id="ytick_1">
     <g id="line2d_5">
      <defs>
       <path id="mbb9d3de38d" d="M 0 0 
L -3.5 0 
" style="stroke: #000000; stroke-width: 0.8"/>
      </defs>
      <g>
       <use xlink:href="#mbb9d3de38d" x="90" y="314.710577" style="stroke: #000000; stroke-width: 0.8"/>
      </g>
     </g>
     <g id="text_6">
      <!-- −0.5 -->
      <g transform="translate(58.717187 318.509796) scale(0.1 -0.1)">
       <defs>
        <path id="DejaVuSans-2212" d="M 678 2272 
L 4684 2272 
L 4684 1741 
L 678 1741 
L 678 2272 
z
" transform="scale(0.015625)"/>
        <path id="DejaVuSans-30" d="M 2034 4250 
Q 1547 4250 1301 3770 
Q 1056 3291 1056 2328 
Q 1056 1369 1301 889 
Q 1547 409 2034 409 
Q 2525 409 2770 889 
Q 3016 1369 3016 2328 
Q 3016 3291 2770 3770 
Q 2525 4250 2034 4250 
z
M 2034 4750 
Q 2819 4750 3233 4129 
Q 3647 3509 3647 2328 
Q 3647 1150 3233 529 
Q 2819 -91 2034 -91 
Q 1250 -91 836 529 
Q 422 1150 422 2328 
Q 422 3509 836 4129 
Q 1250 4750 2034 4750 
z
" transform="scale(0.015625)"/>
        <path id="DejaVuSans-2e" d="M 684 794 
L 1344 794 
L 1344 0 
L 684 0 
L 684 794 
z
" transform="scale(0.015625)"/>
        <path id="DejaVuSans-35" d="M 691 4666 
L 3169 4666 
L 3169 4134 
L 1269 4134 
L 1269 2991 
Q 1406 3038 1543 3061 
Q 1681 3084 1819 3084 
Q 2600 3084 3056 2656 
Q 3513 2228 3513 1497 
Q 3513 744 3044 326 
Q 2575 -91 1722 -91 
Q 1428 -91 1123 -41 
Q 819 9 494 109 
L 494 744 
Q 775 591 1075 516 
Q 1375 441 1709 441 
Q 2250 441 2565 725 
Q 2881 1009 2881 1497 
Q 2881 1984 2565 2268 
Q 2250 2553 1709 2553 
Q 1456 2553 1204 2497 
Q 953 2441 691 2322 
L 691 4666 
z
" transform="scale(0.015625)"/>
       </defs>
       <use xlink:href="#DejaVuSans-2212"/>
       <use xlink:href="#DejaVuSans-30" transform="translate(83.789062 0)"/>
       <use xlink:href="#DejaVuSans-2e" transform="translate(147.412109 0)"/>
       <use xlink:href="#DejaVuSans-35" transform="translate(179.199219 0)"/>
      </g>
     </g>
    </g>
    <g id="ytick_2">
     <g id="line2d_6">
      <g>
       <use xlink:href="#mbb9d3de38d" x="90" y="264.570012" style="stroke: #000000; stroke-width: 0.8"/>
      </g>
     </g>
     <g id="text_7">
      <!-- 0.0 -->
      <g transform="translate(67.096875 268.369231) scale(0.1 -0.1)">
       <use xlink:href="#DejaVuSans-30"/>
       <use xlink:href="#DejaVuSans-2e" transform="translate(63.623047 0)"/>
       <use xlink:href="#DejaVuSans-30" transform="translate(95.410156 0)"/>
      </g>
     </g>
    </g>
    <g id="ytick_3">
     <g id="line2d_7">
      <g>
       <use xlink:href="#mbb9d3de38d" x="90" y="214.429448" style="stroke: #000000; stroke-width: 0.8"/>
      </g>
     </g>
     <g id="text_8">
      <!-- 0.5 -->
      <g transform="translate(67.096875 218.228666) scale(0.1 -0.1)">
       <use xlink:href="#DejaVuSans-30"/>
       <use xlink:href="#DejaVuSans-2e" transform="translate(63.623047 0)"/>
       <use xlink:href="#DejaVuSans-35" transform="translate(95.410156 0)"/>
      </g>
     </g>
    </g>
    <g id="ytick_4">
     <g id="line2d_8">
      <g>
       <use xlink:href="#mbb9d3de38d" x="90" y="164.288883" style="stroke: #000000; stroke-width: 0.8"/>
      </g>
     </g>
     <g id="text_9">
      <!-- 1.0 -->
      <g transform="translate(67.096875 168.088102) scale(0.1 -0.1)">
       <defs>
        <path id="DejaVuSans-31" d="M 794 531 
L 1825 531 
L 1825 4091 
L 703 3866 
L 703 4441 
L 1819 4666 
L 2450 4666 
L 2450 531 
L 3481 531 
L 3481 0 
L 794 0 
L 794 531 
z
" transform="scale(0.015625)"/>
       </defs>
       <use xlink:href="#DejaVuSans-31"/>
       <use xlink:href="#DejaVuSans-2e" transform="translate(63.623047 0)"/>
       <use xlink:href="#DejaVuSans-30" transform="translate(95.410156 0)"/>
      </g>
     </g>
    </g>
    <g id="ytick_5">
     <g id="line2d_9">
      <g>
       <use xlink:href="#mbb9d3de38d" x="90" y="114.148318" style="stroke: #000000; stroke-width: 0.8"/>
      </g>
     </g>
     <g id="text_10">
      <!-- 1.5 -->
      <g transform="translate(67.096875 117.947537) scale(0.1 -0.1)">
       <use xlink:href="#DejaVuSans-31"/>
       <use xlink:href="#DejaVuSans-2e" transform="translate(63.623047 0)"/>
       <use xlink:href="#DejaVuSans-35" transform="translate(95.410156 0)"/>
      </g>
     </g>
    </g>
    <g id="ytick_6">
     <g id="line2d_10">
      <g>
       <use xlink:href="#mbb9d3de38d" x="90" y="64.007753" style="stroke: #000000; stroke-width: 0.8"/>
      </g>
     </g>
     <g id="text_11">
      <!-- 2.0 -->
      <g transform="translate(67.096875 67.806972) scale(0.1 -0.1)">
       <defs>
        <path id="DejaVuSans-32" d="M 1228 531 
L 3431 531 
L 3431 0 
L 469 0 
L 469 531 
Q 828 903 1448 1529 
Q 2069 2156 2228 2338 
Q 2531 2678 2651 2914 
Q 2772 3150 2772 3378 
Q 2772 3750 2511 3984 
Q 2250 4219 1831 4219 
Q 1534 4219 1204 4116 
Q 875 4013 500 3803 
L 500 4441 
Q 881 4594 1212 4672 
Q 1544 4750 1819 4750 
Q 2544 4750 2975 4387 
Q 3406 4025 3406 3419 
Q 3406 3131 3298 2873 
Q 3191 2616 2906 2266 
Q 2828 2175 2409 1742 
Q 1991 1309 1228 531 
z
" transform="scale(0.015625)"/>
       </defs>
       <use xlink:href="#DejaVuSans-32"/>
       <use xlink:href="#DejaVuSans-2e" transform="translate(63.623047 0)"/>
       <use xlink:href="#DejaVuSans-30" transform="translate(95.410156 0)"/>
      </g>
     </g>
    </g>
    <g id="text_12">
     <!-- cont_variable -->
     <g transform="translate(52.359375 215.409375) rotate(-90) scale(0.1 -0.1)">
      <defs>
       <path id="DejaVuSans-5f" d="M 3263 -1063 
L 3263 -1509 
L -63 -1509 
L -63 -1063 
L 3263 -1063 
z
" transform="scale(0.015625)"/>
       <path id="DejaVuSans-62" d="M 3116 1747 
Q 3116 2381 2855 2742 
Q 2594 3103 2138 3103 
Q 1681 3103 1420 2742 
Q 1159 2381 1159 1747 
Q 1159 1113 1420 752 
Q 1681 391 2138 391 
Q 2594 391 2855 752 
Q 3116 1113 3116 1747 
z
M 1159 2969 
Q 1341 3281 1617 3432 
Q 1894 3584 2278 3584 
Q 2916 3584 3314 3078 
Q 3713 2572 3713 1747 
Q 3713 922 3314 415 
Q 2916 -91 2278 -91 
Q 1894 -91 1617 61 
Q 1341 213 1159 525 
L 1159 0 
L 581 0 
L 581 4863 
L 1159 4863 
L 1159 2969 
z
" transform="scale(0.015625)"/>
       <path id="DejaVuSans-6c" d="M 603 4863 
L 1178 4863 
L 1178 0 
L 603 0 
L 603 4863 
z
" transform="scale(0.015625)"/>
      </defs>
      <use xlink:href="#DejaVuSans-63"/>
      <use xlink:href="#DejaVuSans-6f" transform="translate(54.980469 0)"/>
      <use xlink:href="#DejaVuSans-6e" transform="translate(116.162109 0)"/>
      <use xlink:href="#DejaVuSans-74" transform="translate(179.541016 0)"/>
      <use xlink:href="#DejaVuSans-5f" transform="translate(218.75 0)"/>
      <use xlink:href="#DejaVuSans-76" transform="translate(268.75 0)"/>
      <use xlink:href="#DejaVuSans-61" transform="translate(327.929688 0)"/>
      <use xlink:href="#DejaVuSans-72" transform="translate(389.208984 0)"/>
      <use xlink:href="#DejaVuSans-69" transform="translate(430.322266 0)"/>
      <use xlink:href="#DejaVuSans-61" transform="translate(458.105469 0)"/>
      <use xlink:href="#DejaVuSans-62" transform="translate(519.384766 0)"/>
      <use xlink:href="#DejaVuSans-6c" transform="translate(582.861328 0)"/>
      <use xlink:href="#DejaVuSans-65" transform="translate(610.644531 0)"/>
     </g>
    </g>
   </g>
   <g id="patch_3">
    <path d="M 90 320.4 
L 90 43.2 
" style="fill: none; stroke: #000000; stroke-width: 0.8; stroke-linejoin: miter; stroke-linecap: square"/>
   </g>
   <g id="patch_4">
    <path d="M 648 320.4 
L 648 43.2 
" style="fill: none; stroke: #000000; stroke-width: 0.8; stroke-linejoin: miter; stroke-linecap: square"/>
   </g>
   <g id="patch_5">
    <path d="M 90 320.4 
L 648 320.4 
" style="fill: none; stroke: #000000; stroke-width: 0.8; stroke-linejoin: miter; stroke-linecap: square"/>
   </g>
   <g id="patch_6">
    <path d="M 90 43.2 
L 648 43.2 
" style="fill: none; stroke: #000000; stroke-width: 0.8; stroke-linejoin: miter; stroke-linecap: square"/>
   </g>
   <g id="PathCollection_1">
    <defs>
     <path id="m452f7584ba" d="M 0 2.5 
C 0.663008 2.5 1.29895 2.236584 1.767767 1.767767 
C 2.236584 1.29895 2.5 0.663008 2.5 0 
C 2.5 -0.663008 2.236584 -1.29895 1.767767 -1.767767 
C 1.29895 -2.236584 0.663008 -2.5 0 -2.5 
C -0.663008 -2.5 -1.29895 -2.236584 -1.767767 -1.767767 
C -2.236584 -1.29895 -2.5 -0.663008 -2.5 0 
C -2.5 0.663008 -2.236584 1.29895 -1.767767 1.767767 
C -1.29895 2.236584 -0.663008 2.5 0 2.5 
z
"/>
    </defs>
    <g clip-path="url(#pa4fd95c2ee)">
     <use xlink:href="#m452f7584ba" x="169.51849" y="255.422126" style="fill-opacity: 0.3"/>
     <use xlink:href="#m452f7584ba" x="167.343327" y="254.985049" style="fill-opacity: 0.3"/>
     <use xlink:href="#m452f7584ba" x="160.677825" y="254.853438" style="fill-opacity: 0.3"/>
     <use xlink:href="#m452f7584ba" x="152.256977" y="102.904255" style="fill-opacity: 0.3"/>
     <use xlink:href="#m452f7584ba" x="147.251365" y="236.942159" style="fill-opacity: 0.3"/>
     <use xlink:href="#m452f7584ba" x="171.873605" y="238.683313" style="fill-opacity: 0.3"/>
     <use xlink:href="#m452f7584ba" x="147.391094" y="227.499125" style="fill-opacity: 0.3"/>
     <use xlink:href="#m452f7584ba" x="163.65705" y="259.099952" style="fill-opacity: 0.3"/>
     <use xlink:href="#m452f7584ba" x="161.967162" y="254.298951" style="fill-opacity: 0.3"/>
     <use xlink:href="#m452f7584ba" x="152.626505" y="253.831596" style="fill-opacity: 0.3"/>
     <use xlink:href="#m452f7584ba" x="149.62683" y="237.483967" style="fill-opacity: 0.3"/>
     <use xlink:href="#m452f7584ba" x="169.627219" y="254.477216" style="fill-opacity: 0.3"/>
     <use xlink:href="#m452f7584ba" x="162.264085" y="254.750929" style="fill-opacity: 0.3"/>
     <use xlink:href="#m452f7584ba" x="172.1112" y="261.98306" style="fill-opacity: 0.3"/>
     <use xlink:href="#m452f7584ba" x="162.652426" y="258.839399" style="fill-opacity: 0.3"/>
     <use xlink:href="#m452f7584ba" x="159.253821" y="200.408452" style="fill-opacity: 0.3"/>
     <use xlink:href="#m452f7584ba" x="152.078633" y="176.546286" style="fill-opacity: 0.3"/>
     <use xlink:href="#m452f7584ba" x="164.042647" y="245.05559" style="fill-opacity: 0.3"/>
     <use xlink:href="#m452f7584ba" x="161.80331" y="256.953652" style="fill-opacity: 0.3"/>
     <use xlink:href="#m452f7584ba" x="155.393881" y="180.576612" style="fill-opacity: 0.3"/>
     <use xlink:href="#m452f7584ba" x="165.303268" y="242.023203" style="fill-opacity: 0.3"/>
     <use xlink:href="#m452f7584ba" x="158.237885" y="256.007522" style="fill-opacity: 0.3"/>
     <use xlink:href="#m452f7584ba" x="159.273984" y="228.584009" style="fill-opacity: 0.3"/>
     <use xlink:href="#m452f7584ba" x="170.842711" y="242.838836" style="fill-opacity: 0.3"/>
     <use xlink:href="#m452f7584ba" x="155.16451" y="168.140281" style="fill-opacity: 0.3"/>
     <use xlink:href="#m452f7584ba" x="173.308785" y="182.44116" style="fill-opacity: 0.3"/>
     <use xlink:href="#m452f7584ba" x="155.026467" y="193.493318" style="fill-opacity: 0.3"/>
     <use xlink:href="#m452f7584ba" x="166.461282" y="226.514132" style="fill-opacity: 0.3"/>
     <use xlink:href="#m452f7584ba" x="156.145036" y="190.251958" style="fill-opacity: 0.3"/>
     <use xlink:href="#m452f7584ba" x="170.788985" y="217.872164" style="fill-opacity: 0.3"/>
    </g>
   </g>
   <g id="PathCollection_2">
    <g clip-path="url(#pa4fd95c2ee)">
     <use xlink:href="#m452f7584ba" x="293.726452" y="247.385107" style="fill-opacity: 0.3"/>
     <use xlink:href="#m452f7584ba" x="290.417644" y="256.09652" style="fill-opacity: 0.3"/>
     <use xlink:href="#m452f7584ba" x="293.560103" y="252.801448" style="fill-opacity: 0.3"/>
     <use xlink:href="#m452f7584ba" x="285.907796" y="244.644426" style="fill-opacity: 0.3"/>
     <use xlink:href="#m452f7584ba" x="308.74024" y="251.217746" style="fill-opacity: 0.3"/>
     <use xlink:href="#m452f7584ba" x="308.612807" y="256.008001" style="fill-opacity: 0.3"/>
     <use xlink:href="#m452f7584ba" x="310.947184" y="256.252635" style="fill-opacity: 0.3"/>
     <use xlink:href="#m452f7584ba" x="291.629438" y="256.084645" style="fill-opacity: 0.3"/>
     <use xlink:href="#m452f7584ba" x="309.219146" y="255.713046" style="fill-opacity: 0.3"/>
     <use xlink:href="#m452f7584ba" x="312.754119" y="213.639142" style="fill-opacity: 0.3"/>
     <use xlink:href="#m452f7584ba" x="294.068201" y="220.65868" style="fill-opacity: 0.3"/>
     <use xlink:href="#m452f7584ba" x="297.771574" y="240.375489" style="fill-opacity: 0.3"/>
     <use xlink:href="#m452f7584ba" x="295.271735" y="216.097648" style="fill-opacity: 0.3"/>
     <use xlink:href="#m452f7584ba" x="303.12882" y="168.505446" style="fill-opacity: 0.3"/>
     <use xlink:href="#m452f7584ba" x="312.951859" y="233.818291" style="fill-opacity: 0.3"/>
     <use xlink:href="#m452f7584ba" x="297.250038" y="241.862909" style="fill-opacity: 0.3"/>
     <use xlink:href="#m452f7584ba" x="306.967763" y="244.433637" style="fill-opacity: 0.3"/>
     <use xlink:href="#m452f7584ba" x="287.276863" y="214.72319" style="fill-opacity: 0.3"/>
     <use xlink:href="#m452f7584ba" x="300.04911" y="227.712987" style="fill-opacity: 0.3"/>
     <use xlink:href="#m452f7584ba" x="309.045647" y="238.116288" style="fill-opacity: 0.3"/>
     <use xlink:href="#m452f7584ba" x="290.701628" y="216.92068" style="fill-opacity: 0.3"/>
     <use xlink:href="#m452f7584ba" x="288.037908" y="232.864421" style="fill-opacity: 0.3"/>
     <use xlink:href="#m452f7584ba" x="298.578064" y="249.93733" style="fill-opacity: 0.3"/>
     <use xlink:href="#m452f7584ba" x="294.776457" y="252.324079" style="fill-opacity: 0.3"/>
     <use xlink:href="#m452f7584ba" x="306.097249" y="246.192719" style="fill-opacity: 0.3"/>
     <use xlink:href="#m452f7584ba" x="287.893112" y="251.972119" style="fill-opacity: 0.3"/>
     <use xlink:href="#m452f7584ba" x="289.383357" y="256.306797" style="fill-opacity: 0.3"/>
     <use xlink:href="#m452f7584ba" x="303.276537" y="252.498179" style="fill-opacity: 0.3"/>
     <use xlink:href="#m452f7584ba" x="300.013533" y="238.002883" style="fill-opacity: 0.3"/>
     <use xlink:href="#m452f7584ba" x="294.169903" y="247.285961" style="fill-opacity: 0.3"/>
     <use xlink:href="#m452f7584ba" x="305.606169" y="257.209907" style="fill-opacity: 0.3"/>
     <use xlink:href="#m452f7584ba" x="299.734828" y="249.256998" style="fill-opacity: 0.3"/>
     <use xlink:href="#m452f7584ba" x="300.942657" y="258.975633" style="fill-opacity: 0.3"/>
     <use xlink:href="#m452f7584ba" x="294.934861" y="252.360854" style="fill-opacity: 0.3"/>
     <use xlink:href="#m452f7584ba" x="302.095285" y="172.393308" style="fill-opacity: 0.3"/>
     <use xlink:href="#m452f7584ba" x="302.446415" y="261.357148" style="fill-opacity: 0.3"/>
     <use xlink:href="#m452f7584ba" x="291.474815" y="221.202426" style="fill-opacity: 0.3"/>
     <use xlink:href="#m452f7584ba" x="310.647386" y="249.014296" style="fill-opacity: 0.3"/>
     <use xlink:href="#m452f7584ba" x="296.40711" y="252.18652" style="fill-opacity: 0.3"/>
     <use xlink:href="#m452f7584ba" x="304.981598" y="250.17687" style="fill-opacity: 0.3"/>
     <use xlink:href="#m452f7584ba" x="292.331803" y="250.328978" style="fill-opacity: 0.3"/>
     <use xlink:href="#m452f7584ba" x="310.215045" y="250.825057" style="fill-opacity: 0.3"/>
     <use xlink:href="#m452f7584ba" x="295.016015" y="240.888831" style="fill-opacity: 0.3"/>
     <use xlink:href="#m452f7584ba" x="299.590106" y="253.205774" style="fill-opacity: 0.3"/>
     <use xlink:href="#m452f7584ba" x="304.883484" y="249.884821" style="fill-opacity: 0.3"/>
     <use xlink:href="#m452f7584ba" x="292.817523" y="252.128096" style="fill-opacity: 0.3"/>
     <use xlink:href="#m452f7584ba" x="295.392532" y="254.12392" style="fill-opacity: 0.3"/>
     <use xlink:href="#m452f7584ba" x="303.802986" y="253.55249" style="fill-opacity: 0.3"/>
     <use xlink:href="#m452f7584ba" x="311.499054" y="257.98476" style="fill-opacity: 0.3"/>
     <use xlink:href="#m452f7584ba" x="296.540325" y="255.415365" style="fill-opacity: 0.3"/>
     <use xlink:href="#m452f7584ba" x="298.287388" y="257.088018" style="fill-opacity: 0.3"/>
     <use xlink:href="#m452f7584ba" x="300.845672" y="253.567757" style="fill-opacity: 0.3"/>
     <use xlink:href="#m452f7584ba" x="300.96113" y="105.386265" style="fill-opacity: 0.3"/>
     <use xlink:href="#m452f7584ba" x="303.465304" y="242.975272" style="fill-opacity: 0.3"/>
     <use xlink:href="#m452f7584ba" x="300.872862" y="247.749474" style="fill-opacity: 0.3"/>
     <use xlink:href="#m452f7584ba" x="291.544754" y="242.611895" style="fill-opacity: 0.3"/>
     <use xlink:href="#m452f7584ba" x="289.188819" y="157.097078" style="fill-opacity: 0.3"/>
     <use xlink:href="#m452f7584ba" x="291.140198" y="256.444813" style="fill-opacity: 0.3"/>
     <use xlink:href="#m452f7584ba" x="297.269272" y="196.477656" style="fill-opacity: 0.3"/>
     <use xlink:href="#m452f7584ba" x="285.891558" y="172.322933" style="fill-opacity: 0.3"/>
     <use xlink:href="#m452f7584ba" x="288.833814" y="221.400252" style="fill-opacity: 0.3"/>
     <use xlink:href="#m452f7584ba" x="299.139507" y="232.830953" style="fill-opacity: 0.3"/>
     <use xlink:href="#m452f7584ba" x="300.667388" y="209.547666" style="fill-opacity: 0.3"/>
     <use xlink:href="#m452f7584ba" x="302.205891" y="250.146822" style="fill-opacity: 0.3"/>
     <use xlink:href="#m452f7584ba" x="310.512612" y="241.462738" style="fill-opacity: 0.3"/>
     <use xlink:href="#m452f7584ba" x="305.779247" y="179.008382" style="fill-opacity: 0.3"/>
     <use xlink:href="#m452f7584ba" x="299.67582" y="200.754726" style="fill-opacity: 0.3"/>
     <use xlink:href="#m452f7584ba" x="310.03332" y="195.639478" style="fill-opacity: 0.3"/>
     <use xlink:href="#m452f7584ba" x="305.048966" y="199.362637" style="fill-opacity: 0.3"/>
     <use xlink:href="#m452f7584ba" x="299.818198" y="254.301831" style="fill-opacity: 0.3"/>
     <use xlink:href="#m452f7584ba" x="292.210719" y="190.741251" style="fill-opacity: 0.3"/>
     <use xlink:href="#m452f7584ba" x="305.908335" y="186.63122" style="fill-opacity: 0.3"/>
     <use xlink:href="#m452f7584ba" x="292.440242" y="253.089436" style="fill-opacity: 0.3"/>
     <use xlink:href="#m452f7584ba" x="299.500216" y="164.194244" style="fill-opacity: 0.3"/>
     <use xlink:href="#m452f7584ba" x="312.768776" y="160.186187" style="fill-opacity: 0.3"/>
     <use xlink:href="#m452f7584ba" x="293.91573" y="250.334087" style="fill-opacity: 0.3"/>
    </g>
   </g>
   <g id="PathCollection_3">
    <g clip-path="url(#pa4fd95c2ee)">
     <use xlink:href="#m452f7584ba" x="449.796703" y="171.165446" style="fill-opacity: 0.3"/>
     <use xlink:href="#m452f7584ba" x="442.095991" y="100.508158" style="fill-opacity: 0.3"/>
     <use xlink:href="#m452f7584ba" x="447.40259" y="239.585013" style="fill-opacity: 0.3"/>
     <use xlink:href="#m452f7584ba" x="446.647796" y="222.833546" style="fill-opacity: 0.3"/>
     <use xlink:href="#m452f7584ba" x="434.539938" y="250.821012" style="fill-opacity: 0.3"/>
     <use xlink:href="#m452f7584ba" x="441.503761" y="188.118568" style="fill-opacity: 0.3"/>
     <use xlink:href="#m452f7584ba" x="448.076213" y="149.647293" style="fill-opacity: 0.3"/>
     <use xlink:href="#m452f7584ba" x="442.873936" y="261.99829" style="fill-opacity: 0.3"/>
     <use xlink:href="#m452f7584ba" x="436.391909" y="263.091842" style="fill-opacity: 0.3"/>
     <use xlink:href="#m452f7584ba" x="432.193687" y="262.704083" style="fill-opacity: 0.3"/>
     <use xlink:href="#m452f7584ba" x="436.705169" y="262.253371" style="fill-opacity: 0.3"/>
     <use xlink:href="#m452f7584ba" x="426.617237" y="261.448805" style="fill-opacity: 0.3"/>
     <use xlink:href="#m452f7584ba" x="434.725797" y="261.805531" style="fill-opacity: 0.3"/>
     <use xlink:href="#m452f7584ba" x="446.8631" y="262.21695" style="fill-opacity: 0.3"/>
     <use xlink:href="#m452f7584ba" x="451.245036" y="145.804036" style="fill-opacity: 0.3"/>
     <use xlink:href="#m452f7584ba" x="442.625256" y="154.548066" style="fill-opacity: 0.3"/>
     <use xlink:href="#m452f7584ba" x="439.674361" y="197.59367" style="fill-opacity: 0.3"/>
     <use xlink:href="#m452f7584ba" x="430.685059" y="244.729723" style="fill-opacity: 0.3"/>
     <use xlink:href="#m452f7584ba" x="448.24288" y="238.959265" style="fill-opacity: 0.3"/>
     <use xlink:href="#m452f7584ba" x="450.423267" y="247.833352" style="fill-opacity: 0.3"/>
     <use xlink:href="#m452f7584ba" x="440.199325" y="244.266582" style="fill-opacity: 0.3"/>
     <use xlink:href="#m452f7584ba" x="452.097353" y="243.999847" style="fill-opacity: 0.3"/>
     <use xlink:href="#m452f7584ba" x="447.395741" y="259.60968" style="fill-opacity: 0.3"/>
     <use xlink:href="#m452f7584ba" x="447.429043" y="248.464509" style="fill-opacity: 0.3"/>
     <use xlink:href="#m452f7584ba" x="435.71811" y="260.326228" style="fill-opacity: 0.3"/>
     <use xlink:href="#m452f7584ba" x="451.128689" y="256.765933" style="fill-opacity: 0.3"/>
     <use xlink:href="#m452f7584ba" x="451.739827" y="239.209679" style="fill-opacity: 0.3"/>
     <use xlink:href="#m452f7584ba" x="425.237583" y="256.440053" style="fill-opacity: 0.3"/>
     <use xlink:href="#m452f7584ba" x="438.898775" y="252.833617" style="fill-opacity: 0.3"/>
     <use xlink:href="#m452f7584ba" x="452.096965" y="122.742226" style="fill-opacity: 0.3"/>
     <use xlink:href="#m452f7584ba" x="429.129212" y="122.394578" style="fill-opacity: 0.3"/>
     <use xlink:href="#m452f7584ba" x="424.821973" y="184.471496" style="fill-opacity: 0.3"/>
     <use xlink:href="#m452f7584ba" x="439.938525" y="224.822997" style="fill-opacity: 0.3"/>
     <use xlink:href="#m452f7584ba" x="434.211621" y="233.955081" style="fill-opacity: 0.3"/>
     <use xlink:href="#m452f7584ba" x="434.047261" y="219.021959" style="fill-opacity: 0.3"/>
     <use xlink:href="#m452f7584ba" x="426.326855" y="188.871135" style="fill-opacity: 0.3"/>
     <use xlink:href="#m452f7584ba" x="430.206982" y="215.804752" style="fill-opacity: 0.3"/>
     <use xlink:href="#m452f7584ba" x="449.438191" y="210.64737" style="fill-opacity: 0.3"/>
     <use xlink:href="#m452f7584ba" x="426.610628" y="254.417717" style="fill-opacity: 0.3"/>
     <use xlink:href="#m452f7584ba" x="432.76088" y="143.353558" style="fill-opacity: 0.3"/>
     <use xlink:href="#m452f7584ba" x="440.321282" y="174.832237" style="fill-opacity: 0.3"/>
    </g>
   </g>
   <g id="PathCollection_4">
    <g clip-path="url(#pa4fd95c2ee)">
     <use xlink:href="#m452f7584ba" x="586.093747" y="234.803075" style="fill-opacity: 0.3"/>
     <use xlink:href="#m452f7584ba" x="573.855601" y="254.165549" style="fill-opacity: 0.3"/>
     <use xlink:href="#m452f7584ba" x="573.860253" y="258.104019" style="fill-opacity: 0.3"/>
     <use xlink:href="#m452f7584ba" x="570.83934" y="201.305571" style="fill-opacity: 0.3"/>
     <use xlink:href="#m452f7584ba" x="580.630236" y="215.318885" style="fill-opacity: 0.3"/>
     <use xlink:href="#m452f7584ba" x="569.650403" y="190.033742" style="fill-opacity: 0.3"/>
     <use xlink:href="#m452f7584ba" x="579.808112" y="251.26667" style="fill-opacity: 0.3"/>
     <use xlink:href="#m452f7584ba" x="577.175717" y="236.530421" style="fill-opacity: 0.3"/>
     <use xlink:href="#m452f7584ba" x="589.941728" y="240.359811" style="fill-opacity: 0.3"/>
     <use xlink:href="#m452f7584ba" x="568.172384" y="216.986605" style="fill-opacity: 0.3"/>
     <use xlink:href="#m452f7584ba" x="566.870732" y="170.890078" style="fill-opacity: 0.3"/>
     <use xlink:href="#m452f7584ba" x="576.321225" y="223.275414" style="fill-opacity: 0.3"/>
     <use xlink:href="#m452f7584ba" x="583.509059" y="237.057924" style="fill-opacity: 0.3"/>
     <use xlink:href="#m452f7584ba" x="590.84388" y="239.857072" style="fill-opacity: 0.3"/>
     <use xlink:href="#m452f7584ba" x="580.176003" y="224.915162" style="fill-opacity: 0.3"/>
     <use xlink:href="#m452f7584ba" x="582.48494" y="248.354071" style="fill-opacity: 0.3"/>
     <use xlink:href="#m452f7584ba" x="591.681553" y="248.778123" style="fill-opacity: 0.3"/>
     <use xlink:href="#m452f7584ba" x="575.640757" y="250.73061" style="fill-opacity: 0.3"/>
     <use xlink:href="#m452f7584ba" x="583.133591" y="249.513539" style="fill-opacity: 0.3"/>
     <use xlink:href="#m452f7584ba" x="591.956061" y="249.459452" style="fill-opacity: 0.3"/>
     <use xlink:href="#m452f7584ba" x="576.165864" y="236.811732" style="fill-opacity: 0.3"/>
     <use xlink:href="#m452f7584ba" x="587.07019" y="251.429305" style="fill-opacity: 0.3"/>
     <use xlink:href="#m452f7584ba" x="592.129472" y="242.994123" style="fill-opacity: 0.3"/>
     <use xlink:href="#m452f7584ba" x="576.487958" y="249.76296" style="fill-opacity: 0.3"/>
     <use xlink:href="#m452f7584ba" x="589.762328" y="250.565078" style="fill-opacity: 0.3"/>
     <use xlink:href="#m452f7584ba" x="569.213827" y="246.573055" style="fill-opacity: 0.3"/>
     <use xlink:href="#m452f7584ba" x="589.91177" y="250.873072" style="fill-opacity: 0.3"/>
     <use xlink:href="#m452f7584ba" x="577.12904" y="163.407566" style="fill-opacity: 0.3"/>
     <use xlink:href="#m452f7584ba" x="588.638846" y="262.603074" style="fill-opacity: 0.3"/>
     <use xlink:href="#m452f7584ba" x="584.344624" y="221.518791" style="fill-opacity: 0.3"/>
     <use xlink:href="#m452f7584ba" x="586.672236" y="119.394661" style="fill-opacity: 0.3"/>
     <use xlink:href="#m452f7584ba" x="590.785099" y="143.977739" style="fill-opacity: 0.3"/>
     <use xlink:href="#m452f7584ba" x="581.18785" y="212.581929" style="fill-opacity: 0.3"/>
     <use xlink:href="#m452f7584ba" x="591.349522" y="221.08437" style="fill-opacity: 0.3"/>
     <use xlink:href="#m452f7584ba" x="584.91615" y="249.851107" style="fill-opacity: 0.3"/>
     <use xlink:href="#m452f7584ba" x="570.399197" y="239.779604" style="fill-opacity: 0.3"/>
     <use xlink:href="#m452f7584ba" x="583.038135" y="248.701107" style="fill-opacity: 0.3"/>
     <use xlink:href="#m452f7584ba" x="579.638679" y="248.612068" style="fill-opacity: 0.3"/>
     <use xlink:href="#m452f7584ba" x="578.400438" y="245.574169" style="fill-opacity: 0.3"/>
     <use xlink:href="#m452f7584ba" x="575.712521" y="252.654724" style="fill-opacity: 0.3"/>
     <use xlink:href="#m452f7584ba" x="586.18827" y="253.229958" style="fill-opacity: 0.3"/>
     <use xlink:href="#m452f7584ba" x="578.780638" y="232.051491" style="fill-opacity: 0.3"/>
     <use xlink:href="#m452f7584ba" x="575.769256" y="236.437097" style="fill-opacity: 0.3"/>
     <use xlink:href="#m452f7584ba" x="569.37642" y="242.621667" style="fill-opacity: 0.3"/>
     <use xlink:href="#m452f7584ba" x="581.786468" y="252.749408" style="fill-opacity: 0.3"/>
     <use xlink:href="#m452f7584ba" x="578.856492" y="250.433304" style="fill-opacity: 0.3"/>
     <use xlink:href="#m452f7584ba" x="576.198976" y="248.971018" style="fill-opacity: 0.3"/>
     <use xlink:href="#m452f7584ba" x="569.459509" y="250.777461" style="fill-opacity: 0.3"/>
     <use xlink:href="#m452f7584ba" x="572.694166" y="248.255229" style="fill-opacity: 0.3"/>
     <use xlink:href="#m452f7584ba" x="580.423144" y="245.676596" style="fill-opacity: 0.3"/>
     <use xlink:href="#m452f7584ba" x="581.254343" y="243.743882" style="fill-opacity: 0.3"/>
     <use xlink:href="#m452f7584ba" x="581.00214" y="248.272431" style="fill-opacity: 0.3"/>
     <use xlink:href="#m452f7584ba" x="586.690865" y="235.879205" style="fill-opacity: 0.3"/>
     <use xlink:href="#m452f7584ba" x="581.255128" y="176.87732" style="fill-opacity: 0.3"/>
     <use xlink:href="#m452f7584ba" x="575.018972" y="180.020992" style="fill-opacity: 0.3"/>
     <use xlink:href="#m452f7584ba" x="571.141429" y="177.646044" style="fill-opacity: 0.3"/>
     <use xlink:href="#m452f7584ba" x="567.937755" y="196.986696" style="fill-opacity: 0.3"/>
     <use xlink:href="#m452f7584ba" x="573.896485" y="214.377754" style="fill-opacity: 0.3"/>
     <use xlink:href="#m452f7584ba" x="572.299989" y="222.280671" style="fill-opacity: 0.3"/>
     <use xlink:href="#m452f7584ba" x="570.943591" y="227.881914" style="fill-opacity: 0.3"/>
     <use xlink:href="#m452f7584ba" x="580.977815" y="250.708111" style="fill-opacity: 0.3"/>
     <use xlink:href="#m452f7584ba" x="575.920435" y="174.19642" style="fill-opacity: 0.3"/>
     <use xlink:href="#m452f7584ba" x="584.702777" y="103.941186" style="fill-opacity: 0.3"/>
    </g>
   </g>
  </g>
 </g>
 <defs>
  <clipPath id="pa4fd95c2ee">
   <rect x="90" y="43.2" width="558" height="277.2"/>
  </clipPath>
 </defs>
</svg>
