<?xml version="1.0" encoding="utf-8" standalone="no"?>
<!DOCTYPE svg PUBLIC "-//W3C//DTD SVG 1.1//EN"
  "http://www.w3.org/Graphics/SVG/1.1/DTD/svg11.dtd">
<svg xmlns:xlink="http://www.w3.org/1999/xlink" width="720pt" height="360pt" viewBox="0 0 720 360" xmlns="http://www.w3.org/2000/svg" version="1.1">
 <metadata>
  <rdf:RDF xmlns:dc="http://purl.org/dc/elements/1.1/" xmlns:cc="http://creativecommons.org/ns#" xmlns:rdf="http://www.w3.org/1999/02/22-rdf-syntax-ns#">
   <cc:Work>
    <dc:type rdf:resource="http://purl.org/dc/dcmitype/StillImage"/>
    <dc:date>2025-09-11T15:14:58.660634</dc:date>
    <dc:format>image/svg+xml</dc:format>
    <dc:creator>
     <cc:Agent>
      <dc:title>Matplotlib v3.10.3, https://matplotlib.org/</dc:title>
     </cc:Agent>
    </dc:creator>
   </cc:Work>
  </rdf:RDF>
 </metadata>
 <defs>
  <style type="text/css">*{stroke-linejoin: round; stroke-linecap: butt}</style>
 </defs>
 <g id="figure_1">
  <g id="patch_1">
   <path d="M 0 360 
L 720 360 
L 720 0 
L 0 0 
z
" style="fill: #ffffff"/>
  </g>
  <g id="axes_1">
   <g id="patch_2">
    <path d="M 90 320.4 
L 648 320.4 
L 648 43.2 
L 90 43.2 
z
" style="fill: #ffffff"/>
   </g>
   <g id="FillBetweenPolyCollection_1">
    <defs>
     <path id="m745b3a468b" d="M 146.195146 -45.058603 
L 145.404854 -45.058603 
L 145.29013 -45.195947 
L 145.153427 -45.333291 
L 144.99419 -45.470636 
L 144.81303 -45.60798 
L 144.611957 -45.745324 
L 144.394544 -45.882668 
L 144.165975 -46.020012 
L 143.932946 -46.157357 
L 143.703418 -46.294701 
L 143.486213 -46.432045 
L 143.290475 -46.569389 
L 143.125045 -46.706734 
L 142.997807 -46.844078 
L 142.915061 -46.981422 
L 142.881013 -47.118766 
L 142.897413 -47.256111 
L 142.963409 -47.393455 
L 143.075617 -47.530799 
L 143.228401 -47.668143 
L 143.414336 -47.805488 
L 143.62479 -47.942832 
L 143.850562 -48.080176 
L 144.082502 -48.21752 
L 144.312048 -48.354865 
L 144.531628 -48.492209 
L 144.734888 -48.629553 
L 144.91673 -48.766897 
L 145.073163 -48.904242 
L 145.200975 -49.041586 
L 145.297269 -49.17893 
L 145.358882 -49.316274 
L 145.381735 -49.453619 
L 145.360164 -49.590963 
L 145.286287 -49.728307 
L 145.149452 -49.865651 
L 144.935873 -50.002996 
L 144.628499 -50.14034 
L 144.207236 -50.277684 
L 143.649587 -50.415028 
L 142.931799 -50.552373 
L 142.030523 -50.689717 
L 140.924997 -50.827061 
L 139.599635 -50.964405 
L 138.046858 -51.10175 
L 136.269898 -51.239094 
L 134.285254 -51.376438 
L 132.124426 -51.513782 
L 129.834575 -51.651126 
L 127.477807 -51.788471 
L 125.128927 -51.925815 
L 122.871638 -52.063159 
L 120.793394 -52.200503 
L 118.9793 -52.337848 
L 117.505598 -52.475192 
L 116.433415 -52.612536 
L 115.803428 -52.74988 
L 115.632026 -52.887225 
L 115.909414 -53.024569 
L 116.599817 -53.161913 
L 117.643731 -53.299257 
L 118.961908 -53.436602 
L 120.460571 -53.573946 
L 122.03728 -53.71129 
L 123.586839 -53.848634 
L 125.006765 -53.985979 
L 126.201974 -54.123323 
L 127.088566 -54.260667 
L 127.596736 -54.398011 
L 127.673028 -54.535356 
L 127.282153 -54.6727 
L 126.408592 -54.810044 
L 125.058081 -54.947388 
L 123.258922 -55.084733 
L 121.062872 -55.222077 
L 118.545241 -55.359421 
L 115.803762 -55.496765 
L 112.955833 -55.63411 
L 110.133884 -55.771454 
L 107.478859 -55.908798 
L 105.132099 -56.046142 
L 103.22622 -56.183487 
L 101.875797 -56.320831 
L 101.16884 -56.458175 
L 101.16 -56.595519 
L 101.866338 -56.732864 
L 103.266178 -56.870208 
L 105.301218 -57.007552 
L 107.881676 -57.144896 
L 110.893874 -57.28224 
L 114.209407 -57.419585 
L 117.69489 -57.556929 
L 121.221286 -57.694273 
L 124.671925 -57.831617 
L 127.948592 -57.968962 
L 130.975334 -58.106306 
L 133.699927 -58.24365 
L 136.093237 -58.380994 
L 138.14688 -58.518339 
L 139.869712 -58.655683 
L 151.730288 -58.655683 
L 151.730288 -58.655683 
L 153.45312 -58.518339 
L 155.506763 -58.380994 
L 157.900073 -58.24365 
L 160.624666 -58.106306 
L 163.651408 -57.968962 
L 166.928075 -57.831617 
L 170.378714 -57.694273 
L 173.90511 -57.556929 
L 177.390593 -57.419585 
L 180.706126 -57.28224 
L 183.718324 -57.144896 
L 186.298782 -57.007552 
L 188.333822 -56.870208 
L 189.733662 -56.732864 
L 190.44 -56.595519 
L 190.43116 -56.458175 
L 189.724203 -56.320831 
L 188.37378 -56.183487 
L 186.467901 -56.046142 
L 184.121141 -55.908798 
L 181.466116 -55.771454 
L 178.644167 -55.63411 
L 175.796238 -55.496765 
L 173.054759 -55.359421 
L 170.537128 -55.222077 
L 168.341078 -55.084733 
L 166.541919 -54.947388 
L 165.191408 -54.810044 
L 164.317847 -54.6727 
L 163.926972 -54.535356 
L 164.003264 -54.398011 
L 164.511434 -54.260667 
L 165.398026 -54.123323 
L 166.593235 -53.985979 
L 168.013161 -53.848634 
L 169.56272 -53.71129 
L 171.139429 -53.573946 
L 172.638092 -53.436602 
L 173.956269 -53.299257 
L 175.000183 -53.161913 
L 175.690586 -53.024569 
L 175.967974 -52.887225 
L 175.796572 -52.74988 
L 175.166585 -52.612536 
L 174.094402 -52.475192 
L 172.6207 -52.337848 
L 170.806606 -52.200503 
L 168.728362 -52.063159 
L 166.471073 -51.925815 
L 164.122193 -51.788471 
L 161.765425 -51.651126 
L 159.475574 -51.513782 
L 157.314746 -51.376438 
L 155.330102 -51.239094 
L 153.553142 -51.10175 
L 152.000365 -50.964405 
L 150.675003 -50.827061 
L 149.569477 -50.689717 
L 148.668201 -50.552373 
L 147.950413 -50.415028 
L 147.392764 -50.277684 
L 146.971501 -50.14034 
L 146.664127 -50.002996 
L 146.450548 -49.865651 
L 146.313713 -49.728307 
L 146.239836 -49.590963 
L 146.218265 -49.453619 
L 146.241118 -49.316274 
L 146.302731 -49.17893 
L 146.399025 -49.041586 
L 146.526837 -48.904242 
L 146.68327 -48.766897 
L 146.865112 -48.629553 
L 147.068372 -48.492209 
L 147.287952 -48.354865 
L 147.517498 -48.21752 
L 147.749438 -48.080176 
L 147.97521 -47.942832 
L 148.185664 -47.805488 
L 148.371599 -47.668143 
L 148.524383 -47.530799 
L 148.636591 -47.393455 
L 148.702587 -47.256111 
L 148.718987 -47.118766 
L 148.684939 -46.981422 
L 148.602193 -46.844078 
L 148.474955 -46.706734 
L 148.309525 -46.569389 
L 148.113787 -46.432045 
L 147.896582 -46.294701 
L 147.667054 -46.157357 
L 147.434025 -46.020012 
L 147.205456 -45.882668 
L 146.988043 -45.745324 
L 146.78697 -45.60798 
L 146.60581 -45.470636 
L 146.446573 -45.333291 
L 146.30987 -45.195947 
L 146.195146 -45.058603 
z
" style="stroke: #3d3d3d; stroke-width: 1.25"/>
    </defs>
    <g clip-path="url(#p101fbf4de7)">
     <use xlink:href="#m745b3a468b" x="0" y="360" style="fill: #3274a1; stroke: #3d3d3d; stroke-width: 1.25"/>
    </g>
   </g>
   <g id="FillBetweenPolyCollection_2">
    <defs>
     <path id="m4309dcb539" d="M 257.87599 -45.209646 
L 256.92401 -45.209646 
L 256.777583 -45.343939 
L 256.601671 -45.478232 
L 256.395615 -45.612525 
L 256.160532 -45.746818 
L 255.899667 -45.881111 
L 255.618617 -46.015404 
L 255.325354 -46.149696 
L 255.030003 -46.283989 
L 254.744363 -46.418282 
L 254.481183 -46.552575 
L 254.253251 -46.686868 
L 254.072374 -46.821161 
L 253.948371 -46.955454 
L 253.888191 -47.089746 
L 253.895268 -47.224039 
L 253.969195 -47.358332 
L 254.105765 -47.492625 
L 254.297364 -47.626918 
L 254.533675 -47.761211 
L 254.802594 -47.895504 
L 255.091246 -48.029796 
L 255.386989 -48.164089 
L 255.67828 -48.298382 
L 255.95534 -48.432675 
L 256.21056 -48.566968 
L 256.438633 -48.701261 
L 256.636437 -48.835554 
L 256.802702 -48.969846 
L 256.937529 -49.104139 
L 257.041801 -49.238432 
L 257.116542 -49.372725 
L 257.16227 -49.507018 
L 257.178362 -49.641311 
L 257.162467 -49.775604 
L 257.109983 -49.909896 
L 257.013629 -50.044189 
L 256.86317 -50.178482 
L 256.645337 -50.312775 
L 256.34404 -50.447068 
L 255.940943 -50.581361 
L 255.416465 -50.715654 
L 254.751266 -50.849946 
L 253.928188 -50.984239 
L 252.934562 -51.118532 
L 251.764708 -51.252825 
L 250.422354 -51.387118 
L 248.92265 -51.521411 
L 247.293399 -51.655704 
L 245.575174 -51.789996 
L 243.820078 -51.924289 
L 242.089031 -52.058582 
L 240.447705 -52.192875 
L 238.961423 -52.327168 
L 237.689528 -52.461461 
L 236.679895 -52.595754 
L 235.964259 -52.730046 
L 235.555007 -52.864339 
L 235.443867 -52.998632 
L 235.60268 -53.132925 
L 235.986116 -53.267218 
L 236.53592 -53.401511 
L 237.186027 -53.535804 
L 237.86779 -53.670096 
L 238.514585 -53.804389 
L 239.065236 -53.938682 
L 239.465956 -54.072975 
L 239.670864 -54.207268 
L 239.641415 -54.341561 
L 239.345337 -54.475854 
L 238.755803 -54.610146 
L 237.85146 -54.744439 
L 236.617795 -54.878732 
L 235.049934 -55.013025 
L 233.156617 -55.147318 
L 230.964701 -55.281611 
L 228.523239 -55.415904 
L 225.906113 -55.550196 
L 223.212233 -55.684489 
L 220.562633 -55.818782 
L 218.094229 -55.953075 
L 215.950583 -56.087368 
L 214.270514 -56.221661 
L 213.175869 -56.355954 
L 212.76 -56.490246 
L 213.078456 -56.624539 
L 214.143187 -56.758832 
L 215.921044 -56.893125 
L 218.336768 -57.027418 
L 221.280053 -57.161711 
L 224.615713 -57.296004 
L 228.195604 -57.430296 
L 231.870848 -57.564589 
L 235.502944 -57.698882 
L 238.97268 -57.833175 
L 242.18613 -57.967468 
L 245.07751 -58.101761 
L 247.609086 -58.236054 
L 249.768631 -58.370347 
L 251.565183 -58.504639 
L 263.234817 -58.504639 
L 263.234817 -58.504639 
L 265.031369 -58.370347 
L 267.190914 -58.236054 
L 269.72249 -58.101761 
L 272.61387 -57.967468 
L 275.82732 -57.833175 
L 279.297056 -57.698882 
L 282.929152 -57.564589 
L 286.604396 -57.430296 
L 290.184287 -57.296004 
L 293.519947 -57.161711 
L 296.463232 -57.027418 
L 298.878956 -56.893125 
L 300.656813 -56.758832 
L 301.721544 -56.624539 
L 302.04 -56.490246 
L 301.624131 -56.355954 
L 300.529486 -56.221661 
L 298.849417 -56.087368 
L 296.705771 -55.953075 
L 294.237367 -55.818782 
L 291.587767 -55.684489 
L 288.893887 -55.550196 
L 286.276761 -55.415904 
L 283.835299 -55.281611 
L 281.643383 -55.147318 
L 279.750066 -55.013025 
L 278.182205 -54.878732 
L 276.94854 -54.744439 
L 276.044197 -54.610146 
L 275.454663 -54.475854 
L 275.158585 -54.341561 
L 275.129136 -54.207268 
L 275.334044 -54.072975 
L 275.734764 -53.938682 
L 276.285415 -53.804389 
L 276.93221 -53.670096 
L 277.613973 -53.535804 
L 278.26408 -53.401511 
L 278.813884 -53.267218 
L 279.19732 -53.132925 
L 279.356133 -52.998632 
L 279.244993 -52.864339 
L 278.835741 -52.730046 
L 278.120105 -52.595754 
L 277.110472 -52.461461 
L 275.838577 -52.327168 
L 274.352295 -52.192875 
L 272.710969 -52.058582 
L 270.979922 -51.924289 
L 269.224826 -51.789996 
L 267.506601 -51.655704 
L 265.87735 -51.521411 
L 264.377646 -51.387118 
L 263.035292 -51.252825 
L 261.865438 -51.118532 
L 260.871812 -50.984239 
L 260.048734 -50.849946 
L 259.383535 -50.715654 
L 258.859057 -50.581361 
L 258.45596 -50.447068 
L 258.154663 -50.312775 
L 257.93683 -50.178482 
L 257.786371 -50.044189 
L 257.690017 -49.909896 
L 257.637533 -49.775604 
L 257.621638 -49.641311 
L 257.63773 -49.507018 
L 257.683458 -49.372725 
L 257.758199 -49.238432 
L 257.862471 -49.104139 
L 257.997298 -48.969846 
L 258.163563 -48.835554 
L 258.361367 -48.701261 
L 258.58944 -48.566968 
L 258.84466 -48.432675 
L 259.12172 -48.298382 
L 259.413011 -48.164089 
L 259.708754 -48.029796 
L 259.997406 -47.895504 
L 260.266325 -47.761211 
L 260.502636 -47.626918 
L 260.694235 -47.492625 
L 260.830805 -47.358332 
L 260.904732 -47.224039 
L 260.911809 -47.089746 
L 260.851629 -46.955454 
L 260.727626 -46.821161 
L 260.546749 -46.686868 
L 260.318817 -46.552575 
L 260.055637 -46.418282 
L 259.769997 -46.283989 
L 259.474646 -46.149696 
L 259.181383 -46.015404 
L 258.900333 -45.881111 
L 258.639468 -45.746818 
L 258.404385 -45.612525 
L 258.198329 -45.478232 
L 258.022417 -45.343939 
L 257.87599 -45.209646 
z
" style="stroke: #3d3d3d; stroke-width: 1.25"/>
    </defs>
    <g clip-path="url(#p101fbf4de7)">
     <use xlink:href="#m4309dcb539" x="0" y="360" style="fill: #e1812c; stroke: #3d3d3d; stroke-width: 1.25"/>
    </g>
   </g>
   <g id="FillBetweenPolyCollection_3">
    <defs>
     <path id="mfde8a60142" d="M 370.071179 -44.204673 
L 367.928821 -44.204673 
L 367.685197 -44.359268 
L 367.403937 -44.513864 
L 367.083846 -44.668459 
L 366.724895 -44.823054 
L 366.32845 -44.97765 
L 365.897468 -45.132245 
L 365.436637 -45.28684 
L 364.952424 -45.441436 
L 364.453038 -45.596031 
L 363.948281 -45.750627 
L 363.449281 -45.905222 
L 362.968129 -46.059817 
L 362.517409 -46.214413 
L 362.109662 -46.369008 
L 361.756807 -46.523603 
L 361.469554 -46.678199 
L 361.256852 -46.832794 
L 361.125402 -46.987389 
L 361.079275 -47.141985 
L 361.119667 -47.29658 
L 361.244792 -47.451175 
L 361.449932 -47.605771 
L 361.727638 -47.760366 
L 362.068053 -47.914961 
L 362.459347 -48.069557 
L 362.88821 -48.224152 
L 363.340393 -48.378747 
L 363.801233 -48.533343 
L 364.256153 -48.687938 
L 364.691092 -48.842534 
L 365.09287 -48.997129 
L 365.449458 -49.151724 
L 365.750164 -49.30632 
L 365.985748 -49.460915 
L 366.148478 -49.61551 
L 366.232137 -49.770106 
L 366.232017 -49.924701 
L 366.14489 -50.079296 
L 365.968999 -50.233892 
L 365.704043 -50.388487 
L 365.351177 -50.543082 
L 364.913001 -50.697678 
L 364.393536 -50.852273 
L 363.798165 -51.006868 
L 363.133515 -51.161464 
L 362.40728 -51.316059 
L 361.627948 -51.470654 
L 360.804463 -51.62525 
L 359.945791 -51.779845 
L 359.060439 -51.934441 
L 358.155925 -52.089036 
L 357.238251 -52.243631 
L 356.31141 -52.398227 
L 355.376975 -52.552822 
L 354.433802 -52.707417 
L 353.477904 -52.862013 
L 352.502514 -53.016608 
L 351.498356 -53.171203 
L 350.454157 -53.325799 
L 349.357367 -53.480394 
L 348.195087 -53.634989 
L 346.955168 -53.789585 
L 345.627426 -53.94418 
L 344.204906 -54.098775 
L 342.685135 -54.253371 
L 341.071256 -54.407966 
L 339.372977 -54.562561 
L 337.607227 -54.717157 
L 335.798445 -54.871752 
L 333.978445 -55.026348 
L 332.185799 -55.180943 
L 330.464727 -55.335538 
L 328.863529 -55.490134 
L 327.432598 -55.644729 
L 326.222118 -55.799324 
L 325.279589 -55.95392 
L 324.647308 -56.108515 
L 324.36 -56.26311 
L 324.442749 -56.417706 
L 324.909396 -56.572301 
L 325.761526 -56.726896 
L 326.988114 -56.881492 
L 328.565887 -57.036087 
L 330.460358 -57.190682 
L 332.627476 -57.345278 
L 335.015756 -57.499873 
L 337.568755 -57.654468 
L 340.227703 -57.809064 
L 342.934119 -57.963659 
L 345.632245 -58.118255 
L 348.271156 -58.27285 
L 350.80643 -58.427445 
L 353.201332 -58.582041 
L 355.427466 -58.736636 
L 357.464923 -58.891231 
L 359.301991 -59.045827 
L 360.934468 -59.200422 
L 362.364721 -59.355017 
L 363.60054 -59.509613 
L 374.39946 -59.509613 
L 374.39946 -59.509613 
L 375.635279 -59.355017 
L 377.065532 -59.200422 
L 378.698009 -59.045827 
L 380.535077 -58.891231 
L 382.572534 -58.736636 
L 384.798668 -58.582041 
L 387.19357 -58.427445 
L 389.728844 -58.27285 
L 392.367755 -58.118255 
L 395.065881 -57.963659 
L 397.772297 -57.809064 
L 400.431245 -57.654468 
L 402.984244 -57.499873 
L 405.372524 -57.345278 
L 407.539642 -57.190682 
L 409.434113 -57.036087 
L 411.011886 -56.881492 
L 412.238474 -56.726896 
L 413.090604 -56.572301 
L 413.557251 -56.417706 
L 413.64 -56.26311 
L 413.352692 -56.108515 
L 412.720411 -55.95392 
L 411.777882 -55.799324 
L 410.567402 -55.644729 
L 409.136471 -55.490134 
L 407.535273 -55.335538 
L 405.814201 -55.180943 
L 404.021555 -55.026348 
L 402.201555 -54.871752 
L 400.392773 -54.717157 
L 398.627023 -54.562561 
L 396.928744 -54.407966 
L 395.314865 -54.253371 
L 393.795094 -54.098775 
L 392.372574 -53.94418 
L 391.044832 -53.789585 
L 389.804913 -53.634989 
L 388.642633 -53.480394 
L 387.545843 -53.325799 
L 386.501644 -53.171203 
L 385.497486 -53.016608 
L 384.522096 -52.862013 
L 383.566198 -52.707417 
L 382.623025 -52.552822 
L 381.68859 -52.398227 
L 380.761749 -52.243631 
L 379.844075 -52.089036 
L 378.939561 -51.934441 
L 378.054209 -51.779845 
L 377.195537 -51.62525 
L 376.372052 -51.470654 
L 375.59272 -51.316059 
L 374.866485 -51.161464 
L 374.201835 -51.006868 
L 373.606464 -50.852273 
L 373.086999 -50.697678 
L 372.648823 -50.543082 
L 372.295957 -50.388487 
L 372.031001 -50.233892 
L 371.85511 -50.079296 
L 371.767983 -49.924701 
L 371.767863 -49.770106 
L 371.851522 -49.61551 
L 372.014252 -49.460915 
L 372.249836 -49.30632 
L 372.550542 -49.151724 
L 372.90713 -48.997129 
L 373.308908 -48.842534 
L 373.743847 -48.687938 
L 374.198767 -48.533343 
L 374.659607 -48.378747 
L 375.11179 -48.224152 
L 375.540653 -48.069557 
L 375.931947 -47.914961 
L 376.272362 -47.760366 
L 376.550068 -47.605771 
L 376.755208 -47.451175 
L 376.880333 -47.29658 
L 376.920725 -47.141985 
L 376.874598 -46.987389 
L 376.743148 -46.832794 
L 376.530446 -46.678199 
L 376.243193 -46.523603 
L 375.890338 -46.369008 
L 375.482591 -46.214413 
L 375.031871 -46.059817 
L 374.550719 -45.905222 
L 374.051719 -45.750627 
L 373.546962 -45.596031 
L 373.047576 -45.441436 
L 372.563363 -45.28684 
L 372.102532 -45.132245 
L 371.67155 -44.97765 
L 371.275105 -44.823054 
L 370.916154 -44.668459 
L 370.596063 -44.513864 
L 370.314803 -44.359268 
L 370.071179 -44.204673 
z
" style="stroke: #3d3d3d; stroke-width: 1.25"/>
    </defs>
    <g clip-path="url(#p101fbf4de7)">
     <use xlink:href="#mfde8a60142" x="0" y="360" style="fill: #3a923a; stroke: #3d3d3d; stroke-width: 1.25"/>
    </g>
   </g>
   <g id="FillBetweenPolyCollection_4">
    <defs>
     <path id="m02602ae962" d="M 481.019316 -44.69412 
L 480.180684 -44.69412 
L 480.072568 -44.838828 
L 479.945779 -44.983535 
L 479.799767 -45.128243 
L 479.634746 -45.27295 
L 479.451846 -45.417658 
L 479.253233 -45.562365 
L 479.042177 -45.707073 
L 478.823041 -45.85178 
L 478.601195 -45.996488 
L 478.382839 -46.141195 
L 478.17474 -46.285903 
L 477.983901 -46.430611 
L 477.817175 -46.575318 
L 477.680861 -46.720026 
L 477.580297 -46.864733 
L 477.519517 -47.009441 
L 477.50096 -47.154148 
L 477.525289 -47.298856 
L 477.591322 -47.443563 
L 477.696075 -47.588271 
L 477.834909 -47.732978 
L 478.001764 -47.877686 
L 478.189444 -48.022393 
L 478.389914 -48.167101 
L 478.59458 -48.311808 
L 478.794502 -48.456516 
L 478.980523 -48.601223 
L 479.143285 -48.745931 
L 479.27314 -48.890639 
L 479.35995 -49.035346 
L 479.392813 -49.180054 
L 479.35976 -49.324761 
L 479.247459 -49.469469 
L 479.041014 -49.614176 
L 478.723915 -49.758884 
L 478.278205 -49.903591 
L 477.684942 -50.048299 
L 476.924973 -50.193006 
L 475.980064 -50.337714 
L 474.834339 -50.482421 
L 473.475999 -50.627129 
L 471.899182 -50.771836 
L 470.105853 -50.916544 
L 468.107502 -51.061251 
L 465.926484 -51.205959 
L 463.59676 -51.350667 
L 461.163887 -51.495374 
L 458.684088 -51.640082 
L 456.22237 -51.784789 
L 453.849687 -51.929497 
L 451.639294 -52.074204 
L 449.662495 -52.218912 
L 447.984101 -52.363619 
L 446.657935 -52.508327 
L 445.722788 -52.653034 
L 445.199152 -52.797742 
L 445.087055 -52.942449 
L 445.365182 -53.087157 
L 445.991399 -53.231864 
L 446.904653 -53.376572 
L 448.028103 -53.521279 
L 449.27328 -53.665987 
L 450.54497 -53.810695 
L 451.746509 -53.955402 
L 452.785158 -54.10011 
L 453.577262 -54.244817 
L 454.052933 -54.389525 
L 454.160015 -54.534232 
L 453.867183 -54.67894 
L 453.166009 -54.823647 
L 452.071915 -54.968355 
L 450.623923 -55.113062 
L 448.883171 -55.25777 
L 446.930215 -55.402477 
L 444.861167 -55.547185 
L 442.782821 -55.691892 
L 440.806987 -55.8366 
L 439.044333 -55.981307 
L 437.598119 -56.126015 
L 436.558231 -56.270723 
L 435.995974 -56.41543 
L 435.96 -56.560138 
L 436.473717 -56.704845 
L 437.534379 -56.849553 
L 439.113931 -56.99426 
L 441.161503 -57.138968 
L 443.607335 -57.283675 
L 446.367754 -57.428383 
L 449.350765 -57.57309 
L 452.461784 -57.717798 
L 455.609047 -57.862505 
L 458.708308 -58.007213 
L 461.686527 -58.15192 
L 464.484383 -58.296628 
L 467.057559 -58.441335 
L 469.376874 -58.586043 
L 471.427419 -58.730751 
L 473.206924 -58.875458 
L 474.723608 -59.020166 
L 486.476392 -59.020166 
L 486.476392 -59.020166 
L 487.993076 -58.875458 
L 489.772581 -58.730751 
L 491.823126 -58.586043 
L 494.142441 -58.441335 
L 496.715617 -58.296628 
L 499.513473 -58.15192 
L 502.491692 -58.007213 
L 505.590953 -57.862505 
L 508.738216 -57.717798 
L 511.849235 -57.57309 
L 514.832246 -57.428383 
L 517.592665 -57.283675 
L 520.038497 -57.138968 
L 522.086069 -56.99426 
L 523.665621 -56.849553 
L 524.726283 -56.704845 
L 525.24 -56.560138 
L 525.204026 -56.41543 
L 524.641769 -56.270723 
L 523.601881 -56.126015 
L 522.155667 -55.981307 
L 520.393013 -55.8366 
L 518.417179 -55.691892 
L 516.338833 -55.547185 
L 514.269785 -55.402477 
L 512.316829 -55.25777 
L 510.576077 -55.113062 
L 509.128085 -54.968355 
L 508.033991 -54.823647 
L 507.332817 -54.67894 
L 507.039985 -54.534232 
L 507.147067 -54.389525 
L 507.622738 -54.244817 
L 508.414842 -54.10011 
L 509.453491 -53.955402 
L 510.65503 -53.810695 
L 511.92672 -53.665987 
L 513.171897 -53.521279 
L 514.295347 -53.376572 
L 515.208601 -53.231864 
L 515.834818 -53.087157 
L 516.112945 -52.942449 
L 516.000848 -52.797742 
L 515.477212 -52.653034 
L 514.542065 -52.508327 
L 513.215899 -52.363619 
L 511.537505 -52.218912 
L 509.560706 -52.074204 
L 507.350313 -51.929497 
L 504.97763 -51.784789 
L 502.515912 -51.640082 
L 500.036113 -51.495374 
L 497.60324 -51.350667 
L 495.273516 -51.205959 
L 493.092498 -51.061251 
L 491.094147 -50.916544 
L 489.300818 -50.771836 
L 487.724001 -50.627129 
L 486.365661 -50.482421 
L 485.219936 -50.337714 
L 484.275027 -50.193006 
L 483.515058 -50.048299 
L 482.921795 -49.903591 
L 482.476085 -49.758884 
L 482.158986 -49.614176 
L 481.952541 -49.469469 
L 481.84024 -49.324761 
L 481.807187 -49.180054 
L 481.84005 -49.035346 
L 481.92686 -48.890639 
L 482.056715 -48.745931 
L 482.219477 -48.601223 
L 482.405498 -48.456516 
L 482.60542 -48.311808 
L 482.810086 -48.167101 
L 483.010556 -48.022393 
L 483.198236 -47.877686 
L 483.365091 -47.732978 
L 483.503925 -47.588271 
L 483.608678 -47.443563 
L 483.674711 -47.298856 
L 483.69904 -47.154148 
L 483.680483 -47.009441 
L 483.619703 -46.864733 
L 483.519139 -46.720026 
L 483.382825 -46.575318 
L 483.216099 -46.430611 
L 483.02526 -46.285903 
L 482.817161 -46.141195 
L 482.598805 -45.996488 
L 482.376959 -45.85178 
L 482.157823 -45.707073 
L 481.946767 -45.562365 
L 481.748154 -45.417658 
L 481.565254 -45.27295 
L 481.400233 -45.128243 
L 481.254221 -44.983535 
L 481.127432 -44.838828 
L 481.019316 -44.69412 
z
" style="stroke: #3d3d3d; stroke-width: 1.25"/>
    </defs>
    <g clip-path="url(#p101fbf4de7)">
     <use xlink:href="#m02602ae962" x="0" y="360" style="fill: #c03d3e; stroke: #3d3d3d; stroke-width: 1.25"/>
    </g>
   </g>
   <g id="patch_3">
    <path d="M 212.76 320.4 
L 257.4 320.4 
L 257.4 212.914286 
L 212.76 212.914286 
z
" clip-path="url(#p101fbf4de7)" style="fill: #3274a1"/>
   </g>
   <g id="patch_4">
    <path d="M 547.56 320.4 
L 592.2 320.4 
L 592.2 201.6 
L 547.56 201.6 
z
" clip-path="url(#p101fbf4de7)" style="fill: #3274a1"/>
   </g>
   <g id="patch_5">
    <path d="M 257.4 320.4 
L 302.04 320.4 
L 302.04 263.828571 
L 257.4 263.828571 
z
" clip-path="url(#p101fbf4de7)" style="fill: #e1812c"/>
   </g>
   <g id="patch_6">
    <path d="M 592.2 320.4 
L 636.84 320.4 
L 636.84 203.485714 
L 592.2 203.485714 
z
" clip-path="url(#p101fbf4de7)" style="fill: #e1812c"/>
   </g>
   <g id="patch_7">
    <path d="M 145.8 320.4 
L 145.8 320.4 
L 145.8 320.4 
L 145.8 320.4 
z
" clip-path="url(#p101fbf4de7)" style="fill: #3274a1"/>
   </g>
   <g id="patch_8">
    <path d="M 145.8 320.4 
L 145.8 320.4 
L 145.8 320.4 
L 145.8 320.4 
z
" clip-path="url(#p101fbf4de7)" style="fill: #e1812c"/>
   </g>
   <g id="patch_9">
    <path d="M 212.76 320.4 
L 257.4 320.4 
L 257.4 305.314286 
L 212.76 305.314286 
z
" clip-path="url(#p101fbf4de7)" style="fill: #3274a1"/>
   </g>
   <g id="patch_10">
    <path d="M 547.56 320.4 
L 592.2 320.4 
L 592.2 297.771429 
L 547.56 297.771429 
z
" clip-path="url(#p101fbf4de7)" style="fill: #3274a1"/>
   </g>
   <g id="patch_11">
    <path d="M 257.4 320.4 
L 302.04 320.4 
L 302.04 171.428571 
L 257.4 171.428571 
z
" clip-path="url(#p101fbf4de7)" style="fill: #e1812c"/>
   </g>
   <g id="patch_12">
    <path d="M 592.2 320.4 
L 636.84 320.4 
L 636.84 107.314286 
L 592.2 107.314286 
z
" clip-path="url(#p101fbf4de7)" style="fill: #e1812c"/>
   </g>
   <g id="patch_13">
    <path d="M 145.8 320.4 
L 145.8 320.4 
L 145.8 320.4 
L 145.8 320.4 
z
" clip-path="url(#p101fbf4de7)" style="fill: #3274a1"/>
   </g>
   <g id="patch_14">
    <path d="M 145.8 320.4 
L 145.8 320.4 
L 145.8 320.4 
L 145.8 320.4 
z
" clip-path="url(#p101fbf4de7)" style="fill: #e1812c"/>
   </g>
   <g id="patch_15">
    <path d="M 212.76 320.4 
L 257.4 320.4 
L 257.4 248.742857 
L 212.76 248.742857 
z
" clip-path="url(#p101fbf4de7)" style="fill: #3274a1"/>
   </g>
   <g id="patch_16">
    <path d="M 547.56 320.4 
L 592.2 320.4 
L 592.2 211.028571 
L 547.56 211.028571 
z
" clip-path="url(#p101fbf4de7)" style="fill: #3274a1"/>
   </g>
   <g id="patch_17">
    <path d="M 257.4 320.4 
L 302.04 320.4 
L 302.04 228 
L 257.4 228 
z
" clip-path="url(#p101fbf4de7)" style="fill: #e1812c"/>
   </g>
   <g id="patch_18">
    <path d="M 592.2 320.4 
L 636.84 320.4 
L 636.84 194.057143 
L 592.2 194.057143 
z
" clip-path="url(#p101fbf4de7)" style="fill: #e1812c"/>
   </g>
   <g id="patch_19">
    <path d="M 145.8 320.4 
L 145.8 320.4 
L 145.8 320.4 
L 145.8 320.4 
z
" clip-path="url(#p101fbf4de7)" style="fill: #3274a1"/>
   </g>
   <g id="patch_20">
    <path d="M 145.8 320.4 
L 145.8 320.4 
L 145.8 320.4 
L 145.8 320.4 
z
" clip-path="url(#p101fbf4de7)" style="fill: #e1812c"/>
   </g>
   <g id="patch_21">
    <path d="M 212.76 320.4 
L 302.04 320.4 
L 302.04 156.342857 
L 212.76 156.342857 
z
" clip-path="url(#p101fbf4de7)" style="fill: #3274a1"/>
   </g>
   <g id="patch_22">
    <path d="M 547.56 320.4 
L 636.84 320.4 
L 636.84 84.685714 
L 547.56 84.685714 
z
" clip-path="url(#p101fbf4de7)" style="fill: #3274a1"/>
   </g>
   <g id="patch_23">
    <path d="M 145.8 320.4 
L 145.8 320.4 
L 145.8 320.4 
L 145.8 320.4 
z
" clip-path="url(#p101fbf4de7)" style="fill: #3274a1"/>
   </g>
   <g id="patch_24">
    <path d="M 212.76 320.4 
L 257.4 320.4 
L 257.4 163.885714 
L 212.76 163.885714 
z
" clip-path="url(#p101fbf4de7)" style="fill: #3274a1"/>
   </g>
   <g id="patch_25">
    <path d="M 547.56 320.4 
L 592.2 320.4 
L 592.2 56.4 
L 547.56 56.4 
z
" clip-path="url(#p101fbf4de7)" style="fill: #3274a1"/>
   </g>
   <g id="patch_26">
    <path d="M 257.4 320.4 
L 302.04 320.4 
L 302.04 312.857143 
L 257.4 312.857143 
z
" clip-path="url(#p101fbf4de7)" style="fill: #e1812c"/>
   </g>
   <g id="patch_27">
    <path d="M 592.2 320.4 
L 636.84 320.4 
L 636.84 305.314286 
L 592.2 305.314286 
z
" clip-path="url(#p101fbf4de7)" style="fill: #e1812c"/>
   </g>
   <g id="patch_28">
    <path d="M 145.8 320.4 
L 145.8 320.4 
L 145.8 320.4 
L 145.8 320.4 
z
" clip-path="url(#p101fbf4de7)" style="fill: #3274a1"/>
   </g>
   <g id="patch_29">
    <path d="M 145.8 320.4 
L 145.8 320.4 
L 145.8 320.4 
L 145.8 320.4 
z
" clip-path="url(#p101fbf4de7)" style="fill: #e1812c"/>
   </g>
   <g id="patch_30">
    <path d="M 212.76 320.4 
L 257.4 320.4 
L 257.4 312.857143 
L 212.76 312.857143 
z
" clip-path="url(#p101fbf4de7)" style="fill: #3274a1"/>
   </g>
   <g id="patch_31">
    <path d="M 547.56 320.4 
L 592.2 320.4 
L 592.2 292.114286 
L 547.56 292.114286 
z
" clip-path="url(#p101fbf4de7)" style="fill: #3274a1"/>
   </g>
   <g id="patch_32">
    <path d="M 257.4 320.4 
L 302.04 320.4 
L 302.04 163.885714 
L 257.4 163.885714 
z
" clip-path="url(#p101fbf4de7)" style="fill: #e1812c"/>
   </g>
   <g id="patch_33">
    <path d="M 592.2 320.4 
L 636.84 320.4 
L 636.84 112.971429 
L 592.2 112.971429 
z
" clip-path="url(#p101fbf4de7)" style="fill: #e1812c"/>
   </g>
   <g id="patch_34">
    <path d="M 145.8 320.4 
L 145.8 320.4 
L 145.8 320.4 
L 145.8 320.4 
z
" clip-path="url(#p101fbf4de7)" style="fill: #3274a1"/>
   </g>
   <g id="patch_35">
    <path d="M 145.8 320.4 
L 145.8 320.4 
L 145.8 320.4 
L 145.8 320.4 
z
" clip-path="url(#p101fbf4de7)" style="fill: #e1812c"/>
   </g>
   <g id="patch_36">
    <path d="M 212.76 320.4 
L 302.04 320.4 
L 302.04 163.885714 
L 212.76 163.885714 
z
" clip-path="url(#p101fbf4de7)" style="fill: #e9d4d0"/>
   </g>
   <g id="patch_37">
    <path d="M 547.56 320.4 
L 636.84 320.4 
L 636.84 112.971429 
L 547.56 112.971429 
z
" clip-path="url(#p101fbf4de7)" style="fill: #e9d4d0"/>
   </g>
   <g id="patch_38">
    <path d="M 145.8 320.4 
L 145.8 320.4 
L 145.8 320.4 
L 145.8 320.4 
z
" clip-path="url(#p101fbf4de7)" style="fill: #e9d4d0"/>
   </g>
   <g id="patch_39">
    <path d="M 212.76 320.4 
L 257.4 320.4 
L 257.4 162 
L 212.76 162 
z
" clip-path="url(#p101fbf4de7)" style="fill: #3274a1"/>
   </g>
   <g id="patch_40">
    <path d="M 547.56 320.4 
L 592.2 320.4 
L 592.2 97.885714 
L 547.56 97.885714 
z
" clip-path="url(#p101fbf4de7)" style="fill: #3274a1"/>
   </g>
   <g id="patch_41">
    <path d="M 257.4 320.4 
L 302.04 320.4 
L 302.04 314.742857 
L 257.4 314.742857 
z
" clip-path="url(#p101fbf4de7)" style="fill: #e1812c"/>
   </g>
   <g id="patch_42">
    <path d="M 592.2 320.4 
L 636.84 320.4 
L 636.84 307.2 
L 592.2 307.2 
z
" clip-path="url(#p101fbf4de7)" style="fill: #e1812c"/>
   </g>
   <g id="patch_43">
    <path d="M 145.8 320.4 
L 145.8 320.4 
L 145.8 320.4 
L 145.8 320.4 
z
" clip-path="url(#p101fbf4de7)" style="fill: #3274a1"/>
   </g>
   <g id="patch_44">
    <path d="M 145.8 320.4 
L 145.8 320.4 
L 145.8 320.4 
L 145.8 320.4 
z
" clip-path="url(#p101fbf4de7)" style="fill: #e1812c"/>
   </g>
   <g id="matplotlib.axis_1">
    <g id="xtick_1">
     <g id="line2d_1">
      <defs>
       <path id="m8b5b6145ee" d="M 0 0 
L 0 3.5 
" style="stroke: #000000; stroke-width: 0.8"/>
      </defs>
      <g>
       <use xlink:href="#m8b5b6145ee" x="145.8" y="320.4" style="stroke: #000000; stroke-width: 0.8"/>
      </g>
     </g>
     <g id="text_1">
      <!-- Spurious -->
      <g transform="translate(124.005469 334.998438) scale(0.1 -0.1)">
       <defs>
        <path id="DejaVuSans-53" d="M 3425 4513 
L 3425 3897 
Q 3066 4069 2747 4153 
Q 2428 4238 2131 4238 
Q 1616 4238 1336 4038 
Q 1056 3838 1056 3469 
Q 1056 3159 1242 3001 
Q 1428 2844 1947 2747 
L 2328 2669 
Q 3034 2534 3370 2195 
Q 3706 1856 3706 1288 
Q 3706 609 3251 259 
Q 2797 -91 1919 -91 
Q 1588 -91 1214 -16 
Q 841 59 441 206 
L 441 856 
Q 825 641 1194 531 
Q 1563 422 1919 422 
Q 2459 422 2753 634 
Q 3047 847 3047 1241 
Q 3047 1584 2836 1778 
Q 2625 1972 2144 2069 
L 1759 2144 
Q 1053 2284 737 2584 
Q 422 2884 422 3419 
Q 422 4038 858 4394 
Q 1294 4750 2059 4750 
Q 2388 4750 2728 4690 
Q 3069 4631 3425 4513 
z
" transform="scale(0.015625)"/>
        <path id="DejaVuSans-70" d="M 1159 525 
L 1159 -1331 
L 581 -1331 
L 581 3500 
L 1159 3500 
L 1159 2969 
Q 1341 3281 1617 3432 
Q 1894 3584 2278 3584 
Q 2916 3584 3314 3078 
Q 3713 2572 3713 1747 
Q 3713 922 3314 415 
Q 2916 -91 2278 -91 
Q 1894 -91 1617 61 
Q 1341 213 1159 525 
z
M 3116 1747 
Q 3116 2381 2855 2742 
Q 2594 3103 2138 3103 
Q 1681 3103 1420 2742 
Q 1159 2381 1159 1747 
Q 1159 1113 1420 752 
Q 1681 391 2138 391 
Q 2594 391 2855 752 
Q 3116 1113 3116 1747 
z
" transform="scale(0.015625)"/>
        <path id="DejaVuSans-75" d="M 544 1381 
L 544 3500 
L 1119 3500 
L 1119 1403 
Q 1119 906 1312 657 
Q 1506 409 1894 409 
Q 2359 409 2629 706 
Q 2900 1003 2900 1516 
L 2900 3500 
L 3475 3500 
L 3475 0 
L 2900 0 
L 2900 538 
Q 2691 219 2414 64 
Q 2138 -91 1772 -91 
Q 1169 -91 856 284 
Q 544 659 544 1381 
z
M 1991 3584 
L 1991 3584 
z
" transform="scale(0.015625)"/>
        <path id="DejaVuSans-72" d="M 2631 2963 
Q 2534 3019 2420 3045 
Q 2306 3072 2169 3072 
Q 1681 3072 1420 2755 
Q 1159 2438 1159 1844 
L 1159 0 
L 581 0 
L 581 3500 
L 1159 3500 
L 1159 2956 
Q 1341 3275 1631 3429 
Q 1922 3584 2338 3584 
Q 2397 3584 2469 3576 
Q 2541 3569 2628 3553 
L 2631 2963 
z
" transform="scale(0.015625)"/>
        <path id="DejaVuSans-69" d="M 603 3500 
L 1178 3500 
L 1178 0 
L 603 0 
L 603 3500 
z
M 603 4863 
L 1178 4863 
L 1178 4134 
L 603 4134 
L 603 4863 
z
" transform="scale(0.015625)"/>
        <path id="DejaVuSans-6f" d="M 1959 3097 
Q 1497 3097 1228 2736 
Q 959 2375 959 1747 
Q 959 1119 1226 758 
Q 1494 397 1959 397 
Q 2419 397 2687 759 
Q 2956 1122 2956 1747 
Q 2956 2369 2687 2733 
Q 2419 3097 1959 3097 
z
M 1959 3584 
Q 2709 3584 3137 3096 
Q 3566 2609 3566 1747 
Q 3566 888 3137 398 
Q 2709 -91 1959 -91 
Q 1206 -91 779 398 
Q 353 888 353 1747 
Q 353 2609 779 3096 
Q 1206 3584 1959 3584 
z
" transform="scale(0.015625)"/>
        <path id="DejaVuSans-73" d="M 2834 3397 
L 2834 2853 
Q 2591 2978 2328 3040 
Q 2066 3103 1784 3103 
Q 1356 3103 1142 2972 
Q 928 2841 928 2578 
Q 928 2378 1081 2264 
Q 1234 2150 1697 2047 
L 1894 2003 
Q 2506 1872 2764 1633 
Q 3022 1394 3022 966 
Q 3022 478 2636 193 
Q 2250 -91 1575 -91 
Q 1294 -91 989 -36 
Q 684 19 347 128 
L 347 722 
Q 666 556 975 473 
Q 1284 391 1588 391 
Q 1994 391 2212 530 
Q 2431 669 2431 922 
Q 2431 1156 2273 1281 
Q 2116 1406 1581 1522 
L 1381 1569 
Q 847 1681 609 1914 
Q 372 2147 372 2553 
Q 372 3047 722 3315 
Q 1072 3584 1716 3584 
Q 2034 3584 2315 3537 
Q 2597 3491 2834 3397 
z
" transform="scale(0.015625)"/>
       </defs>
       <use xlink:href="#DejaVuSans-53"/>
       <use xlink:href="#DejaVuSans-70" transform="translate(63.476562 0)"/>
       <use xlink:href="#DejaVuSans-75" transform="translate(126.953125 0)"/>
       <use xlink:href="#DejaVuSans-72" transform="translate(190.332031 0)"/>
       <use xlink:href="#DejaVuSans-69" transform="translate(231.445312 0)"/>
       <use xlink:href="#DejaVuSans-6f" transform="translate(259.228516 0)"/>
       <use xlink:href="#DejaVuSans-75" transform="translate(320.410156 0)"/>
       <use xlink:href="#DejaVuSans-73" transform="translate(383.789062 0)"/>
      </g>
     </g>
    </g>
    <g id="xtick_2">
     <g id="line2d_2">
      <g>
       <use xlink:href="#m8b5b6145ee" x="257.4" y="320.4" style="stroke: #000000; stroke-width: 0.8"/>
      </g>
     </g>
     <g id="text_2">
      <!-- Specific -->
      <g transform="translate(237.938281 334.998438) scale(0.1 -0.1)">
       <defs>
        <path id="DejaVuSans-65" d="M 3597 1894 
L 3597 1613 
L 953 1613 
Q 991 1019 1311 708 
Q 1631 397 2203 397 
Q 2534 397 2845 478 
Q 3156 559 3463 722 
L 3463 178 
Q 3153 47 2828 -22 
Q 2503 -91 2169 -91 
Q 1331 -91 842 396 
Q 353 884 353 1716 
Q 353 2575 817 3079 
Q 1281 3584 2069 3584 
Q 2775 3584 3186 3129 
Q 3597 2675 3597 1894 
z
M 3022 2063 
Q 3016 2534 2758 2815 
Q 2500 3097 2075 3097 
Q 1594 3097 1305 2825 
Q 1016 2553 972 2059 
L 3022 2063 
z
" transform="scale(0.015625)"/>
        <path id="DejaVuSans-63" d="M 3122 3366 
L 3122 2828 
Q 2878 2963 2633 3030 
Q 2388 3097 2138 3097 
Q 1578 3097 1268 2742 
Q 959 2388 959 1747 
Q 959 1106 1268 751 
Q 1578 397 2138 397 
Q 2388 397 2633 464 
Q 2878 531 3122 666 
L 3122 134 
Q 2881 22 2623 -34 
Q 2366 -91 2075 -91 
Q 1284 -91 818 406 
Q 353 903 353 1747 
Q 353 2603 823 3093 
Q 1294 3584 2113 3584 
Q 2378 3584 2631 3529 
Q 2884 3475 3122 3366 
z
" transform="scale(0.015625)"/>
        <path id="DejaVuSans-66" d="M 2375 4863 
L 2375 4384 
L 1825 4384 
Q 1516 4384 1395 4259 
Q 1275 4134 1275 3809 
L 1275 3500 
L 2222 3500 
L 2222 3053 
L 1275 3053 
L 1275 0 
L 697 0 
L 697 3053 
L 147 3053 
L 147 3500 
L 697 3500 
L 697 3744 
Q 697 4328 969 4595 
Q 1241 4863 1831 4863 
L 2375 4863 
z
" transform="scale(0.015625)"/>
       </defs>
       <use xlink:href="#DejaVuSans-53"/>
       <use xlink:href="#DejaVuSans-70" transform="translate(63.476562 0)"/>
       <use xlink:href="#DejaVuSans-65" transform="translate(126.953125 0)"/>
       <use xlink:href="#DejaVuSans-63" transform="translate(188.476562 0)"/>
       <use xlink:href="#DejaVuSans-69" transform="translate(243.457031 0)"/>
       <use xlink:href="#DejaVuSans-66" transform="translate(271.240234 0)"/>
       <use xlink:href="#DejaVuSans-69" transform="translate(306.445312 0)"/>
       <use xlink:href="#DejaVuSans-63" transform="translate(334.228516 0)"/>
      </g>
     </g>
    </g>
    <g id="xtick_3">
     <g id="line2d_3">
      <g>
       <use xlink:href="#m8b5b6145ee" x="369" y="320.4" style="stroke: #000000; stroke-width: 0.8"/>
      </g>
     </g>
     <g id="text_3">
      <!-- Non-specific -->
      <g transform="translate(338.335156 334.998438) scale(0.1 -0.1)">
       <defs>
        <path id="DejaVuSans-4e" d="M 628 4666 
L 1478 4666 
L 3547 763 
L 3547 4666 
L 4159 4666 
L 4159 0 
L 3309 0 
L 1241 3903 
L 1241 0 
L 628 0 
L 628 4666 
z
" transform="scale(0.015625)"/>
        <path id="DejaVuSans-6e" d="M 3513 2113 
L 3513 0 
L 2938 0 
L 2938 2094 
Q 2938 2591 2744 2837 
Q 2550 3084 2163 3084 
Q 1697 3084 1428 2787 
Q 1159 2491 1159 1978 
L 1159 0 
L 581 0 
L 581 3500 
L 1159 3500 
L 1159 2956 
Q 1366 3272 1645 3428 
Q 1925 3584 2291 3584 
Q 2894 3584 3203 3211 
Q 3513 2838 3513 2113 
z
" transform="scale(0.015625)"/>
        <path id="DejaVuSans-2d" d="M 313 2009 
L 1997 2009 
L 1997 1497 
L 313 1497 
L 313 2009 
z
" transform="scale(0.015625)"/>
       </defs>
       <use xlink:href="#DejaVuSans-4e"/>
       <use xlink:href="#DejaVuSans-6f" transform="translate(74.804688 0)"/>
       <use xlink:href="#DejaVuSans-6e" transform="translate(135.986328 0)"/>
       <use xlink:href="#DejaVuSans-2d" transform="translate(199.365234 0)"/>
       <use xlink:href="#DejaVuSans-73" transform="translate(235.449219 0)"/>
       <use xlink:href="#DejaVuSans-70" transform="translate(287.548828 0)"/>
       <use xlink:href="#DejaVuSans-65" transform="translate(351.025391 0)"/>
       <use xlink:href="#DejaVuSans-63" transform="translate(412.548828 0)"/>
       <use xlink:href="#DejaVuSans-69" transform="translate(467.529297 0)"/>
       <use xlink:href="#DejaVuSans-66" transform="translate(495.3125 0)"/>
       <use xlink:href="#DejaVuSans-69" transform="translate(530.517578 0)"/>
       <use xlink:href="#DejaVuSans-63" transform="translate(558.300781 0)"/>
      </g>
     </g>
    </g>
    <g id="xtick_4">
     <g id="line2d_4">
      <g>
       <use xlink:href="#m8b5b6145ee" x="480.6" y="320.4" style="stroke: #000000; stroke-width: 0.8"/>
      </g>
     </g>
     <g id="text_4">
      <!-- No -->
      <g transform="translate(473.8 334.998438) scale(0.1 -0.1)">
       <use xlink:href="#DejaVuSans-4e"/>
       <use xlink:href="#DejaVuSans-6f" transform="translate(74.804688 0)"/>
      </g>
     </g>
    </g>
    <g id="xtick_5">
     <g id="line2d_5">
      <g>
       <use xlink:href="#m8b5b6145ee" x="592.2" y="320.4" style="stroke: #000000; stroke-width: 0.8"/>
      </g>
     </g>
     <g id="text_5">
      <!-- other -->
      <g transform="translate(578.879688 334.998438) scale(0.1 -0.1)">
       <defs>
        <path id="DejaVuSans-74" d="M 1172 4494 
L 1172 3500 
L 2356 3500 
L 2356 3053 
L 1172 3053 
L 1172 1153 
Q 1172 725 1289 603 
Q 1406 481 1766 481 
L 2356 481 
L 2356 0 
L 1766 0 
Q 1100 0 847 248 
Q 594 497 594 1153 
L 594 3053 
L 172 3053 
L 172 3500 
L 594 3500 
L 594 4494 
L 1172 4494 
z
" transform="scale(0.015625)"/>
        <path id="DejaVuSans-68" d="M 3513 2113 
L 3513 0 
L 2938 0 
L 2938 2094 
Q 2938 2591 2744 2837 
Q 2550 3084 2163 3084 
Q 1697 3084 1428 2787 
Q 1159 2491 1159 1978 
L 1159 0 
L 581 0 
L 581 4863 
L 1159 4863 
L 1159 2956 
Q 1366 3272 1645 3428 
Q 1925 3584 2291 3584 
Q 2894 3584 3203 3211 
Q 3513 2838 3513 2113 
z
" transform="scale(0.015625)"/>
       </defs>
       <use xlink:href="#DejaVuSans-6f"/>
       <use xlink:href="#DejaVuSans-74" transform="translate(61.181641 0)"/>
       <use xlink:href="#DejaVuSans-68" transform="translate(100.390625 0)"/>
       <use xlink:href="#DejaVuSans-65" transform="translate(163.769531 0)"/>
       <use xlink:href="#DejaVuSans-72" transform="translate(225.292969 0)"/>
      </g>
     </g>
    </g>
    <g id="text_6">
     <!-- Connectivity category -->
     <g transform="translate(313.98125 348.676562) scale(0.1 -0.1)">
      <defs>
       <path id="DejaVuSans-43" d="M 4122 4306 
L 4122 3641 
Q 3803 3938 3442 4084 
Q 3081 4231 2675 4231 
Q 1875 4231 1450 3742 
Q 1025 3253 1025 2328 
Q 1025 1406 1450 917 
Q 1875 428 2675 428 
Q 3081 428 3442 575 
Q 3803 722 4122 1019 
L 4122 359 
Q 3791 134 3420 21 
Q 3050 -91 2638 -91 
Q 1578 -91 968 557 
Q 359 1206 359 2328 
Q 359 3453 968 4101 
Q 1578 4750 2638 4750 
Q 3056 4750 3426 4639 
Q 3797 4528 4122 4306 
z
" transform="scale(0.015625)"/>
       <path id="DejaVuSans-76" d="M 191 3500 
L 800 3500 
L 1894 563 
L 2988 3500 
L 3597 3500 
L 2284 0 
L 1503 0 
L 191 3500 
z
" transform="scale(0.015625)"/>
       <path id="DejaVuSans-79" d="M 2059 -325 
Q 1816 -950 1584 -1140 
Q 1353 -1331 966 -1331 
L 506 -1331 
L 506 -850 
L 844 -850 
Q 1081 -850 1212 -737 
Q 1344 -625 1503 -206 
L 1606 56 
L 191 3500 
L 800 3500 
L 1894 763 
L 2988 3500 
L 3597 3500 
L 2059 -325 
z
" transform="scale(0.015625)"/>
       <path id="DejaVuSans-20" transform="scale(0.015625)"/>
       <path id="DejaVuSans-61" d="M 2194 1759 
Q 1497 1759 1228 1600 
Q 959 1441 959 1056 
Q 959 750 1161 570 
Q 1363 391 1709 391 
Q 2188 391 2477 730 
Q 2766 1069 2766 1631 
L 2766 1759 
L 2194 1759 
z
M 3341 1997 
L 3341 0 
L 2766 0 
L 2766 531 
Q 2569 213 2275 61 
Q 1981 -91 1556 -91 
Q 1019 -91 701 211 
Q 384 513 384 1019 
Q 384 1609 779 1909 
Q 1175 2209 1959 2209 
L 2766 2209 
L 2766 2266 
Q 2766 2663 2505 2880 
Q 2244 3097 1772 3097 
Q 1472 3097 1187 3025 
Q 903 2953 641 2809 
L 641 3341 
Q 956 3463 1253 3523 
Q 1550 3584 1831 3584 
Q 2591 3584 2966 3190 
Q 3341 2797 3341 1997 
z
" transform="scale(0.015625)"/>
       <path id="DejaVuSans-67" d="M 2906 1791 
Q 2906 2416 2648 2759 
Q 2391 3103 1925 3103 
Q 1463 3103 1205 2759 
Q 947 2416 947 1791 
Q 947 1169 1205 825 
Q 1463 481 1925 481 
Q 2391 481 2648 825 
Q 2906 1169 2906 1791 
z
M 3481 434 
Q 3481 -459 3084 -895 
Q 2688 -1331 1869 -1331 
Q 1566 -1331 1297 -1286 
Q 1028 -1241 775 -1147 
L 775 -588 
Q 1028 -725 1275 -790 
Q 1522 -856 1778 -856 
Q 2344 -856 2625 -561 
Q 2906 -266 2906 331 
L 2906 616 
Q 2728 306 2450 153 
Q 2172 0 1784 0 
Q 1141 0 747 490 
Q 353 981 353 1791 
Q 353 2603 747 3093 
Q 1141 3584 1784 3584 
Q 2172 3584 2450 3431 
Q 2728 3278 2906 2969 
L 2906 3500 
L 3481 3500 
L 3481 434 
z
" transform="scale(0.015625)"/>
      </defs>
      <use xlink:href="#DejaVuSans-43"/>
      <use xlink:href="#DejaVuSans-6f" transform="translate(69.824219 0)"/>
      <use xlink:href="#DejaVuSans-6e" transform="translate(131.005859 0)"/>
      <use xlink:href="#DejaVuSans-6e" transform="translate(194.384766 0)"/>
      <use xlink:href="#DejaVuSans-65" transform="translate(257.763672 0)"/>
      <use xlink:href="#DejaVuSans-63" transform="translate(319.287109 0)"/>
      <use xlink:href="#DejaVuSans-74" transform="translate(374.267578 0)"/>
      <use xlink:href="#DejaVuSans-69" transform="translate(413.476562 0)"/>
      <use xlink:href="#DejaVuSans-76" transform="translate(441.259766 0)"/>
      <use xlink:href="#DejaVuSans-69" transform="translate(500.439453 0)"/>
      <use xlink:href="#DejaVuSans-74" transform="translate(528.222656 0)"/>
      <use xlink:href="#DejaVuSans-79" transform="translate(567.431641 0)"/>
      <use xlink:href="#DejaVuSans-20" transform="translate(626.611328 0)"/>
      <use xlink:href="#DejaVuSans-63" transform="translate(658.398438 0)"/>
      <use xlink:href="#DejaVuSans-61" transform="translate(713.378906 0)"/>
      <use xlink:href="#DejaVuSans-74" transform="translate(774.658203 0)"/>
      <use xlink:href="#DejaVuSans-65" transform="translate(813.867188 0)"/>
      <use xlink:href="#DejaVuSans-67" transform="translate(875.390625 0)"/>
      <use xlink:href="#DejaVuSans-6f" transform="translate(938.867188 0)"/>
      <use xlink:href="#DejaVuSans-72" transform="translate(1000.048828 0)"/>
      <use xlink:href="#DejaVuSans-79" transform="translate(1041.162109 0)"/>
     </g>
    </g>
   </g>
   <g id="matplotlib.axis_2">
    <g id="ytick_1">
     <g id="line2d_6">
      <defs>
       <path id="md934789afd" d="M 0 0 
L -3.5 0 
" style="stroke: #000000; stroke-width: 0.8"/>
      </defs>
      <g>
       <use xlink:href="#md934789afd" x="90" y="320.4" style="stroke: #000000; stroke-width: 0.8"/>
      </g>
     </g>
     <g id="text_7">
      <!-- 0 -->
      <g transform="translate(76.6375 324.199219) scale(0.1 -0.1)">
       <defs>
        <path id="DejaVuSans-30" d="M 2034 4250 
Q 1547 4250 1301 3770 
Q 1056 3291 1056 2328 
Q 1056 1369 1301 889 
Q 1547 409 2034 409 
Q 2525 409 2770 889 
Q 3016 1369 3016 2328 
Q 3016 3291 2770 3770 
Q 2525 4250 2034 4250 
z
M 2034 4750 
Q 2819 4750 3233 4129 
Q 3647 3509 3647 2328 
Q 3647 1150 3233 529 
Q 2819 -91 2034 -91 
Q 1250 -91 836 529 
Q 422 1150 422 2328 
Q 422 3509 836 4129 
Q 1250 4750 2034 4750 
z
" transform="scale(0.015625)"/>
       </defs>
       <use xlink:href="#DejaVuSans-30"/>
      </g>
     </g>
    </g>
    <g id="ytick_2">
     <g id="line2d_7">
      <g>
       <use xlink:href="#md934789afd" x="90" y="282.685714" style="stroke: #000000; stroke-width: 0.8"/>
      </g>
     </g>
     <g id="text_8">
      <!-- 20 -->
      <g transform="translate(70.275 286.484933) scale(0.1 -0.1)">
       <defs>
        <path id="DejaVuSans-32" d="M 1228 531 
L 3431 531 
L 3431 0 
L 469 0 
L 469 531 
Q 828 903 1448 1529 
Q 2069 2156 2228 2338 
Q 2531 2678 2651 2914 
Q 2772 3150 2772 3378 
Q 2772 3750 2511 3984 
Q 2250 4219 1831 4219 
Q 1534 4219 1204 4116 
Q 875 4013 500 3803 
L 500 4441 
Q 881 4594 1212 4672 
Q 1544 4750 1819 4750 
Q 2544 4750 2975 4387 
Q 3406 4025 3406 3419 
Q 3406 3131 3298 2873 
Q 3191 2616 2906 2266 
Q 2828 2175 2409 1742 
Q 1991 1309 1228 531 
z
" transform="scale(0.015625)"/>
       </defs>
       <use xlink:href="#DejaVuSans-32"/>
       <use xlink:href="#DejaVuSans-30" transform="translate(63.623047 0)"/>
      </g>
     </g>
    </g>
    <g id="ytick_3">
     <g id="line2d_8">
      <g>
       <use xlink:href="#md934789afd" x="90" y="244.971429" style="stroke: #000000; stroke-width: 0.8"/>
      </g>
     </g>
     <g id="text_9">
      <!-- 40 -->
      <g transform="translate(70.275 248.770647) scale(0.1 -0.1)">
       <defs>
        <path id="DejaVuSans-34" d="M 2419 4116 
L 825 1625 
L 2419 1625 
L 2419 4116 
z
M 2253 4666 
L 3047 4666 
L 3047 1625 
L 3713 1625 
L 3713 1100 
L 3047 1100 
L 3047 0 
L 2419 0 
L 2419 1100 
L 313 1100 
L 313 1709 
L 2253 4666 
z
" transform="scale(0.015625)"/>
       </defs>
       <use xlink:href="#DejaVuSans-34"/>
       <use xlink:href="#DejaVuSans-30" transform="translate(63.623047 0)"/>
      </g>
     </g>
    </g>
    <g id="ytick_4">
     <g id="line2d_9">
      <g>
       <use xlink:href="#md934789afd" x="90" y="207.257143" style="stroke: #000000; stroke-width: 0.8"/>
      </g>
     </g>
     <g id="text_10">
      <!-- 60 -->
      <g transform="translate(70.275 211.056362) scale(0.1 -0.1)">
       <defs>
        <path id="DejaVuSans-36" d="M 2113 2584 
Q 1688 2584 1439 2293 
Q 1191 2003 1191 1497 
Q 1191 994 1439 701 
Q 1688 409 2113 409 
Q 2538 409 2786 701 
Q 3034 994 3034 1497 
Q 3034 2003 2786 2293 
Q 2538 2584 2113 2584 
z
M 3366 4563 
L 3366 3988 
Q 3128 4100 2886 4159 
Q 2644 4219 2406 4219 
Q 1781 4219 1451 3797 
Q 1122 3375 1075 2522 
Q 1259 2794 1537 2939 
Q 1816 3084 2150 3084 
Q 2853 3084 3261 2657 
Q 3669 2231 3669 1497 
Q 3669 778 3244 343 
Q 2819 -91 2113 -91 
Q 1303 -91 875 529 
Q 447 1150 447 2328 
Q 447 3434 972 4092 
Q 1497 4750 2381 4750 
Q 2619 4750 2861 4703 
Q 3103 4656 3366 4563 
z
" transform="scale(0.015625)"/>
       </defs>
       <use xlink:href="#DejaVuSans-36"/>
       <use xlink:href="#DejaVuSans-30" transform="translate(63.623047 0)"/>
      </g>
     </g>
    </g>
    <g id="ytick_5">
     <g id="line2d_10">
      <g>
       <use xlink:href="#md934789afd" x="90" y="169.542857" style="stroke: #000000; stroke-width: 0.8"/>
      </g>
     </g>
     <g id="text_11">
      <!-- 80 -->
      <g transform="translate(70.275 173.342076) scale(0.1 -0.1)">
       <defs>
        <path id="DejaVuSans-38" d="M 2034 2216 
Q 1584 2216 1326 1975 
Q 1069 1734 1069 1313 
Q 1069 891 1326 650 
Q 1584 409 2034 409 
Q 2484 409 2743 651 
Q 3003 894 3003 1313 
Q 3003 1734 2745 1975 
Q 2488 2216 2034 2216 
z
M 1403 2484 
Q 997 2584 770 2862 
Q 544 3141 544 3541 
Q 544 4100 942 4425 
Q 1341 4750 2034 4750 
Q 2731 4750 3128 4425 
Q 3525 4100 3525 3541 
Q 3525 3141 3298 2862 
Q 3072 2584 2669 2484 
Q 3125 2378 3379 2068 
Q 3634 1759 3634 1313 
Q 3634 634 3220 271 
Q 2806 -91 2034 -91 
Q 1263 -91 848 271 
Q 434 634 434 1313 
Q 434 1759 690 2068 
Q 947 2378 1403 2484 
z
M 1172 3481 
Q 1172 3119 1398 2916 
Q 1625 2713 2034 2713 
Q 2441 2713 2670 2916 
Q 2900 3119 2900 3481 
Q 2900 3844 2670 4047 
Q 2441 4250 2034 4250 
Q 1625 4250 1398 4047 
Q 1172 3844 1172 3481 
z
" transform="scale(0.015625)"/>
       </defs>
       <use xlink:href="#DejaVuSans-38"/>
       <use xlink:href="#DejaVuSans-30" transform="translate(63.623047 0)"/>
      </g>
     </g>
    </g>
    <g id="ytick_6">
     <g id="line2d_11">
      <g>
       <use xlink:href="#md934789afd" x="90" y="131.828571" style="stroke: #000000; stroke-width: 0.8"/>
      </g>
     </g>
     <g id="text_12">
      <!-- 100 -->
      <g transform="translate(63.9125 135.62779) scale(0.1 -0.1)">
       <defs>
        <path id="DejaVuSans-31" d="M 794 531 
L 1825 531 
L 1825 4091 
L 703 3866 
L 703 4441 
L 1819 4666 
L 2450 4666 
L 2450 531 
L 3481 531 
L 3481 0 
L 794 0 
L 794 531 
z
" transform="scale(0.015625)"/>
       </defs>
       <use xlink:href="#DejaVuSans-31"/>
       <use xlink:href="#DejaVuSans-30" transform="translate(63.623047 0)"/>
       <use xlink:href="#DejaVuSans-30" transform="translate(127.246094 0)"/>
      </g>
     </g>
    </g>
    <g id="ytick_7">
     <g id="line2d_12">
      <g>
       <use xlink:href="#md934789afd" x="90" y="94.114286" style="stroke: #000000; stroke-width: 0.8"/>
      </g>
     </g>
     <g id="text_13">
      <!-- 120 -->
      <g transform="translate(63.9125 97.913504) scale(0.1 -0.1)">
       <use xlink:href="#DejaVuSans-31"/>
       <use xlink:href="#DejaVuSans-32" transform="translate(63.623047 0)"/>
       <use xlink:href="#DejaVuSans-30" transform="translate(127.246094 0)"/>
      </g>
     </g>
    </g>
    <g id="ytick_8">
     <g id="line2d_13">
      <g>
       <use xlink:href="#md934789afd" x="90" y="56.4" style="stroke: #000000; stroke-width: 0.8"/>
      </g>
     </g>
     <g id="text_14">
      <!-- 140 -->
      <g transform="translate(63.9125 60.199219) scale(0.1 -0.1)">
       <use xlink:href="#DejaVuSans-31"/>
       <use xlink:href="#DejaVuSans-34" transform="translate(63.623047 0)"/>
       <use xlink:href="#DejaVuSans-30" transform="translate(127.246094 0)"/>
      </g>
     </g>
    </g>
    <g id="text_15">
     <!-- cont_variable -->
     <g transform="translate(57.554687 215.409375) rotate(-90) scale(0.1 -0.1)">
      <defs>
       <path id="DejaVuSans-5f" d="M 3263 -1063 
L 3263 -1509 
L -63 -1509 
L -63 -1063 
L 3263 -1063 
z
" transform="scale(0.015625)"/>
       <path id="DejaVuSans-62" d="M 3116 1747 
Q 3116 2381 2855 2742 
Q 2594 3103 2138 3103 
Q 1681 3103 1420 2742 
Q 1159 2381 1159 1747 
Q 1159 1113 1420 752 
Q 1681 391 2138 391 
Q 2594 391 2855 752 
Q 3116 1113 3116 1747 
z
M 1159 2969 
Q 1341 3281 1617 3432 
Q 1894 3584 2278 3584 
Q 2916 3584 3314 3078 
Q 3713 2572 3713 1747 
Q 3713 922 3314 415 
Q 2916 -91 2278 -91 
Q 1894 -91 1617 61 
Q 1341 213 1159 525 
L 1159 0 
L 581 0 
L 581 4863 
L 1159 4863 
L 1159 2969 
z
" transform="scale(0.015625)"/>
       <path id="DejaVuSans-6c" d="M 603 4863 
L 1178 4863 
L 1178 0 
L 603 0 
L 603 4863 
z
" transform="scale(0.015625)"/>
      </defs>
      <use xlink:href="#DejaVuSans-63"/>
      <use xlink:href="#DejaVuSans-6f" transform="translate(54.980469 0)"/>
      <use xlink:href="#DejaVuSans-6e" transform="translate(116.162109 0)"/>
      <use xlink:href="#DejaVuSans-74" transform="translate(179.541016 0)"/>
      <use xlink:href="#DejaVuSans-5f" transform="translate(218.75 0)"/>
      <use xlink:href="#DejaVuSans-76" transform="translate(268.75 0)"/>
      <use xlink:href="#DejaVuSans-61" transform="translate(327.929688 0)"/>
      <use xlink:href="#DejaVuSans-72" transform="translate(389.208984 0)"/>
      <use xlink:href="#DejaVuSans-69" transform="translate(430.322266 0)"/>
      <use xlink:href="#DejaVuSans-61" transform="translate(458.105469 0)"/>
      <use xlink:href="#DejaVuSans-62" transform="translate(519.384766 0)"/>
      <use xlink:href="#DejaVuSans-6c" transform="translate(582.861328 0)"/>
      <use xlink:href="#DejaVuSans-65" transform="translate(610.644531 0)"/>
     </g>
    </g>
   </g>
   <g id="line2d_14">
    <path clip-path="url(#p101fbf4de7)" style="fill: none; stroke: #424242; stroke-width: 2.25; stroke-linecap: square"/>
   </g>
   <g id="line2d_15">
    <path clip-path="url(#p101fbf4de7)" style="fill: none; stroke: #424242; stroke-width: 2.25; stroke-linecap: square"/>
   </g>
   <g id="line2d_16">
    <path clip-path="url(#p101fbf4de7)" style="fill: none; stroke: #424242; stroke-width: 2.25; stroke-linecap: square"/>
   </g>
   <g id="line2d_17">
    <path clip-path="url(#p101fbf4de7)" style="fill: none; stroke: #424242; stroke-width: 2.25; stroke-linecap: square"/>
   </g>
   <g id="line2d_18">
    <path clip-path="url(#p101fbf4de7)" style="fill: none; stroke: #424242; stroke-width: 2.25; stroke-linecap: square"/>
   </g>
   <g id="line2d_19">
    <path clip-path="url(#p101fbf4de7)" style="fill: none; stroke: #424242; stroke-width: 2.25; stroke-linecap: square"/>
   </g>
   <g id="line2d_20">
    <path clip-path="url(#p101fbf4de7)" style="fill: none; stroke: #424242; stroke-width: 2.25; stroke-linecap: square"/>
   </g>
   <g id="line2d_21">
    <path clip-path="url(#p101fbf4de7)" style="fill: none; stroke: #424242; stroke-width: 2.25; stroke-linecap: square"/>
   </g>
   <g id="line2d_22">
    <path clip-path="url(#p101fbf4de7)" style="fill: none; stroke: #424242; stroke-width: 2.25; stroke-linecap: square"/>
   </g>
   <g id="line2d_23">
    <path clip-path="url(#p101fbf4de7)" style="fill: none; stroke: #424242; stroke-width: 2.25; stroke-linecap: square"/>
   </g>
   <g id="line2d_24">
    <path clip-path="url(#p101fbf4de7)" style="fill: none; stroke: #424242; stroke-width: 2.25; stroke-linecap: square"/>
   </g>
   <g id="line2d_25">
    <path clip-path="url(#p101fbf4de7)" style="fill: none; stroke: #424242; stroke-width: 2.25; stroke-linecap: square"/>
   </g>
   <g id="line2d_26">
    <path clip-path="url(#p101fbf4de7)" style="fill: none; stroke: #424242; stroke-width: 2.25; stroke-linecap: square"/>
   </g>
   <g id="line2d_27">
    <path clip-path="url(#p101fbf4de7)" style="fill: none; stroke: #424242; stroke-width: 2.25; stroke-linecap: square"/>
   </g>
   <g id="line2d_28">
    <path clip-path="url(#p101fbf4de7)" style="fill: none; stroke: #424242; stroke-width: 2.25; stroke-linecap: square"/>
   </g>
   <g id="line2d_29">
    <path clip-path="url(#p101fbf4de7)" style="fill: none; stroke: #424242; stroke-width: 2.25; stroke-linecap: square"/>
   </g>
   <g id="line2d_30">
    <path clip-path="url(#p101fbf4de7)" style="fill: none; stroke: #424242; stroke-width: 2.25; stroke-linecap: square"/>
   </g>
   <g id="line2d_31">
    <path clip-path="url(#p101fbf4de7)" style="fill: none; stroke: #424242; stroke-width: 2.25; stroke-linecap: square"/>
   </g>
   <g id="line2d_32">
    <path clip-path="url(#p101fbf4de7)" style="fill: none; stroke: #424242; stroke-width: 2.25; stroke-linecap: square"/>
   </g>
   <g id="line2d_33">
    <path clip-path="url(#p101fbf4de7)" style="fill: none; stroke: #424242; stroke-width: 2.25; stroke-linecap: square"/>
   </g>
   <g id="line2d_34">
    <path clip-path="url(#p101fbf4de7)" style="fill: none; stroke: #424242; stroke-width: 2.25; stroke-linecap: square"/>
   </g>
   <g id="line2d_35">
    <path clip-path="url(#p101fbf4de7)" style="fill: none; stroke: #424242; stroke-width: 2.25; stroke-linecap: square"/>
   </g>
   <g id="line2d_36">
    <path clip-path="url(#p101fbf4de7)" style="fill: none; stroke: #424242; stroke-width: 2.25; stroke-linecap: square"/>
   </g>
   <g id="line2d_37">
    <path clip-path="url(#p101fbf4de7)" style="fill: none; stroke: #424242; stroke-width: 2.25; stroke-linecap: square"/>
   </g>
   <g id="line2d_38">
    <path clip-path="url(#p101fbf4de7)" style="fill: none; stroke: #424242; stroke-width: 2.25; stroke-linecap: square"/>
   </g>
   <g id="line2d_39">
    <path clip-path="url(#p101fbf4de7)" style="fill: none; stroke: #424242; stroke-width: 2.25; stroke-linecap: square"/>
   </g>
   <g id="line2d_40">
    <path clip-path="url(#p101fbf4de7)" style="fill: none; stroke: #424242; stroke-width: 2.25; stroke-linecap: square"/>
   </g>
   <g id="line2d_41">
    <path clip-path="url(#p101fbf4de7)" style="fill: none; stroke: #424242; stroke-width: 2.25; stroke-linecap: square"/>
   </g>
   <g id="patch_45">
    <path d="M 90 320.4 
L 90 43.2 
" style="fill: none; stroke: #000000; stroke-width: 0.8; stroke-linejoin: miter; stroke-linecap: square"/>
   </g>
   <g id="patch_46">
    <path d="M 648 320.4 
L 648 43.2 
" style="fill: none; stroke: #000000; stroke-width: 0.8; stroke-linejoin: miter; stroke-linecap: square"/>
   </g>
   <g id="patch_47">
    <path d="M 90 320.4 
L 648 320.4 
" style="fill: none; stroke: #000000; stroke-width: 0.8; stroke-linejoin: miter; stroke-linecap: square"/>
   </g>
   <g id="patch_48">
    <path d="M 90 43.2 
L 648 43.2 
" style="fill: none; stroke: #000000; stroke-width: 0.8; stroke-linejoin: miter; stroke-linecap: square"/>
   </g>
   <g id="PathCollection_1">
    <defs>
     <path id="m8ab9c70ccb" d="M 0 2.5 
C 0.663008 2.5 1.29895 2.236584 1.767767 1.767767 
C 2.236584 1.29895 2.5 0.663008 2.5 0 
C 2.5 -0.663008 2.236584 -1.29895 1.767767 -1.767767 
C 1.29895 -2.236584 0.663008 -2.5 0 -2.5 
C -0.663008 -2.5 -1.29895 -2.236584 -1.767767 -1.767767 
C -2.236584 -1.29895 -2.5 -0.663008 -2.5 0 
C -2.5 0.663008 -2.236584 1.29895 -1.767767 1.767767 
C -1.29895 2.236584 -0.663008 2.5 0 2.5 
z
"/>
    </defs>
    <g clip-path="url(#p101fbf4de7)">
     <use xlink:href="#m8ab9c70ccb" x="139.223901" y="305.314286" style="fill-opacity: 0.3"/>
     <use xlink:href="#m8ab9c70ccb" x="146.948391" y="305.314286" style="fill-opacity: 0.3"/>
     <use xlink:href="#m8ab9c70ccb" x="155.517656" y="312.857143" style="fill-opacity: 0.3"/>
     <use xlink:href="#m8ab9c70ccb" x="148.64356" y="312.857143" style="fill-opacity: 0.3"/>
     <use xlink:href="#m8ab9c70ccb" x="145.169021" y="305.314286" style="fill-opacity: 0.3"/>
     <use xlink:href="#m8ab9c70ccb" x="136.414719" y="303.428571" style="fill-opacity: 0.3"/>
     <use xlink:href="#m8ab9c70ccb" x="145.385558" y="303.428571" style="fill-opacity: 0.3"/>
     <use xlink:href="#m8ab9c70ccb" x="151.134366" y="303.428571" style="fill-opacity: 0.3"/>
     <use xlink:href="#m8ab9c70ccb" x="142.999908" y="303.428571" style="fill-opacity: 0.3"/>
     <use xlink:href="#m8ab9c70ccb" x="136.554963" y="303.428571" style="fill-opacity: 0.3"/>
     <use xlink:href="#m8ab9c70ccb" x="137.200713" y="303.428571" style="fill-opacity: 0.3"/>
     <use xlink:href="#m8ab9c70ccb" x="147.256347" y="303.428571" style="fill-opacity: 0.3"/>
     <use xlink:href="#m8ab9c70ccb" x="146.310048" y="303.428571" style="fill-opacity: 0.3"/>
     <use xlink:href="#m8ab9c70ccb" x="143.417813" y="303.428571" style="fill-opacity: 0.3"/>
     <use xlink:href="#m8ab9c70ccb" x="145.775588" y="303.428571" style="fill-opacity: 0.3"/>
     <use xlink:href="#m8ab9c70ccb" x="145.799685" y="303.428571" style="fill-opacity: 0.3"/>
     <use xlink:href="#m8ab9c70ccb" x="156.224711" y="303.428571" style="fill-opacity: 0.3"/>
     <use xlink:href="#m8ab9c70ccb" x="151.254131" y="303.428571" style="fill-opacity: 0.3"/>
     <use xlink:href="#m8ab9c70ccb" x="134.823117" y="303.428571" style="fill-opacity: 0.3"/>
     <use xlink:href="#m8ab9c70ccb" x="137.531411" y="303.428571" style="fill-opacity: 0.3"/>
     <use xlink:href="#m8ab9c70ccb" x="152.273322" y="303.428571" style="fill-opacity: 0.3"/>
     <use xlink:href="#m8ab9c70ccb" x="153.689049" y="303.428571" style="fill-opacity: 0.3"/>
     <use xlink:href="#m8ab9c70ccb" x="135.616338" y="303.428571" style="fill-opacity: 0.3"/>
     <use xlink:href="#m8ab9c70ccb" x="143.906917" y="303.428571" style="fill-opacity: 0.3"/>
     <use xlink:href="#m8ab9c70ccb" x="150.101648" y="303.428571" style="fill-opacity: 0.3"/>
     <use xlink:href="#m8ab9c70ccb" x="149.739461" y="303.428571" style="fill-opacity: 0.3"/>
     <use xlink:href="#m8ab9c70ccb" x="144.425375" y="303.428571" style="fill-opacity: 0.3"/>
     <use xlink:href="#m8ab9c70ccb" x="140.664959" y="303.428571" style="fill-opacity: 0.3"/>
     <use xlink:href="#m8ab9c70ccb" x="151.764027" y="303.428571" style="fill-opacity: 0.3"/>
     <use xlink:href="#m8ab9c70ccb" x="136.235879" y="307.2" style="fill-opacity: 0.3"/>
     <use xlink:href="#m8ab9c70ccb" x="140.015373" y="307.2" style="fill-opacity: 0.3"/>
     <use xlink:href="#m8ab9c70ccb" x="144.877757" y="307.2" style="fill-opacity: 0.3"/>
     <use xlink:href="#m8ab9c70ccb" x="154.971293" y="307.2" style="fill-opacity: 0.3"/>
     <use xlink:href="#m8ab9c70ccb" x="148.293174" y="307.2" style="fill-opacity: 0.3"/>
     <use xlink:href="#m8ab9c70ccb" x="140.677895" y="307.2" style="fill-opacity: 0.3"/>
     <use xlink:href="#m8ab9c70ccb" x="156.583389" y="307.2" style="fill-opacity: 0.3"/>
     <use xlink:href="#m8ab9c70ccb" x="146.761168" y="307.2" style="fill-opacity: 0.3"/>
     <use xlink:href="#m8ab9c70ccb" x="145.394726" y="307.2" style="fill-opacity: 0.3"/>
     <use xlink:href="#m8ab9c70ccb" x="148.45751" y="307.2" style="fill-opacity: 0.3"/>
     <use xlink:href="#m8ab9c70ccb" x="136.833987" y="307.2" style="fill-opacity: 0.3"/>
     <use xlink:href="#m8ab9c70ccb" x="140.716046" y="307.2" style="fill-opacity: 0.3"/>
     <use xlink:href="#m8ab9c70ccb" x="135.16366" y="307.2" style="fill-opacity: 0.3"/>
     <use xlink:href="#m8ab9c70ccb" x="140.860959" y="307.2" style="fill-opacity: 0.3"/>
     <use xlink:href="#m8ab9c70ccb" x="152.884857" y="307.2" style="fill-opacity: 0.3"/>
     <use xlink:href="#m8ab9c70ccb" x="156.746742" y="307.2" style="fill-opacity: 0.3"/>
     <use xlink:href="#m8ab9c70ccb" x="148.554418" y="307.2" style="fill-opacity: 0.3"/>
     <use xlink:href="#m8ab9c70ccb" x="139.681186" y="307.2" style="fill-opacity: 0.3"/>
     <use xlink:href="#m8ab9c70ccb" x="154.316616" y="307.2" style="fill-opacity: 0.3"/>
     <use xlink:href="#m8ab9c70ccb" x="137.442718" y="307.2" style="fill-opacity: 0.3"/>
     <use xlink:href="#m8ab9c70ccb" x="141.601294" y="303.428571" style="fill-opacity: 0.3"/>
     <use xlink:href="#m8ab9c70ccb" x="138.194603" y="303.428571" style="fill-opacity: 0.3"/>
     <use xlink:href="#m8ab9c70ccb" x="144.623503" y="303.428571" style="fill-opacity: 0.3"/>
     <use xlink:href="#m8ab9c70ccb" x="150.472598" y="303.428571" style="fill-opacity: 0.3"/>
     <use xlink:href="#m8ab9c70ccb" x="144.044256" y="303.428571" style="fill-opacity: 0.3"/>
     <use xlink:href="#m8ab9c70ccb" x="152.646291" y="303.428571" style="fill-opacity: 0.3"/>
    </g>
   </g>
   <g id="PathCollection_2">
    <g clip-path="url(#p101fbf4de7)">
     <use xlink:href="#m8ab9c70ccb" x="249.931134" y="305.314286" style="fill-opacity: 0.3"/>
     <use xlink:href="#m8ab9c70ccb" x="249.387678" y="305.314286" style="fill-opacity: 0.3"/>
     <use xlink:href="#m8ab9c70ccb" x="260.20676" y="305.314286" style="fill-opacity: 0.3"/>
     <use xlink:href="#m8ab9c70ccb" x="254.432028" y="305.314286" style="fill-opacity: 0.3"/>
     <use xlink:href="#m8ab9c70ccb" x="252.325182" y="305.314286" style="fill-opacity: 0.3"/>
     <use xlink:href="#m8ab9c70ccb" x="255.387086" y="305.314286" style="fill-opacity: 0.3"/>
     <use xlink:href="#m8ab9c70ccb" x="256.293549" y="305.314286" style="fill-opacity: 0.3"/>
     <use xlink:href="#m8ab9c70ccb" x="267.500956" y="305.314286" style="fill-opacity: 0.3"/>
     <use xlink:href="#m8ab9c70ccb" x="267.295074" y="305.314286" style="fill-opacity: 0.3"/>
     <use xlink:href="#m8ab9c70ccb" x="250.125289" y="305.314286" style="fill-opacity: 0.3"/>
     <use xlink:href="#m8ab9c70ccb" x="248.264432" y="312.857143" style="fill-opacity: 0.3"/>
     <use xlink:href="#m8ab9c70ccb" x="248.593548" y="312.857143" style="fill-opacity: 0.3"/>
     <use xlink:href="#m8ab9c70ccb" x="251.674002" y="312.857143" style="fill-opacity: 0.3"/>
     <use xlink:href="#m8ab9c70ccb" x="267.003408" y="312.857143" style="fill-opacity: 0.3"/>
     <use xlink:href="#m8ab9c70ccb" x="253.349499" y="305.314286" style="fill-opacity: 0.3"/>
     <use xlink:href="#m8ab9c70ccb" x="267.790099" y="303.428571" style="fill-opacity: 0.3"/>
     <use xlink:href="#m8ab9c70ccb" x="250.654879" y="303.428571" style="fill-opacity: 0.3"/>
     <use xlink:href="#m8ab9c70ccb" x="257.864364" y="303.428571" style="fill-opacity: 0.3"/>
     <use xlink:href="#m8ab9c70ccb" x="261.698711" y="303.428571" style="fill-opacity: 0.3"/>
     <use xlink:href="#m8ab9c70ccb" x="249.792588" y="303.428571" style="fill-opacity: 0.3"/>
     <use xlink:href="#m8ab9c70ccb" x="267.464758" y="303.428571" style="fill-opacity: 0.3"/>
     <use xlink:href="#m8ab9c70ccb" x="257.373119" y="303.428571" style="fill-opacity: 0.3"/>
     <use xlink:href="#m8ab9c70ccb" x="249.294015" y="303.428571" style="fill-opacity: 0.3"/>
     <use xlink:href="#m8ab9c70ccb" x="261.401307" y="303.428571" style="fill-opacity: 0.3"/>
     <use xlink:href="#m8ab9c70ccb" x="260.944246" y="303.428571" style="fill-opacity: 0.3"/>
     <use xlink:href="#m8ab9c70ccb" x="252.444353" y="303.428571" style="fill-opacity: 0.3"/>
     <use xlink:href="#m8ab9c70ccb" x="254.118358" y="303.428571" style="fill-opacity: 0.3"/>
     <use xlink:href="#m8ab9c70ccb" x="258.796228" y="303.428571" style="fill-opacity: 0.3"/>
     <use xlink:href="#m8ab9c70ccb" x="268.40652" y="303.428571" style="fill-opacity: 0.3"/>
     <use xlink:href="#m8ab9c70ccb" x="265.285742" y="303.428571" style="fill-opacity: 0.3"/>
     <use xlink:href="#m8ab9c70ccb" x="263.705709" y="303.428571" style="fill-opacity: 0.3"/>
     <use xlink:href="#m8ab9c70ccb" x="255.145984" y="303.428571" style="fill-opacity: 0.3"/>
     <use xlink:href="#m8ab9c70ccb" x="268.556854" y="303.428571" style="fill-opacity: 0.3"/>
     <use xlink:href="#m8ab9c70ccb" x="248.111375" y="303.428571" style="fill-opacity: 0.3"/>
     <use xlink:href="#m8ab9c70ccb" x="255.450931" y="303.428571" style="fill-opacity: 0.3"/>
     <use xlink:href="#m8ab9c70ccb" x="251.140133" y="303.428571" style="fill-opacity: 0.3"/>
     <use xlink:href="#m8ab9c70ccb" x="259.812053" y="303.428571" style="fill-opacity: 0.3"/>
     <use xlink:href="#m8ab9c70ccb" x="253.160057" y="303.428571" style="fill-opacity: 0.3"/>
     <use xlink:href="#m8ab9c70ccb" x="252.075662" y="303.428571" style="fill-opacity: 0.3"/>
     <use xlink:href="#m8ab9c70ccb" x="266.435896" y="303.428571" style="fill-opacity: 0.3"/>
     <use xlink:href="#m8ab9c70ccb" x="249.789836" y="303.428571" style="fill-opacity: 0.3"/>
     <use xlink:href="#m8ab9c70ccb" x="246.698131" y="303.428571" style="fill-opacity: 0.3"/>
     <use xlink:href="#m8ab9c70ccb" x="264.237071" y="303.428571" style="fill-opacity: 0.3"/>
     <use xlink:href="#m8ab9c70ccb" x="259.739722" y="303.428571" style="fill-opacity: 0.3"/>
     <use xlink:href="#m8ab9c70ccb" x="254.832501" y="303.428571" style="fill-opacity: 0.3"/>
     <use xlink:href="#m8ab9c70ccb" x="259.432015" y="303.428571" style="fill-opacity: 0.3"/>
     <use xlink:href="#m8ab9c70ccb" x="261.400522" y="303.428571" style="fill-opacity: 0.3"/>
     <use xlink:href="#m8ab9c70ccb" x="249.764502" y="303.428571" style="fill-opacity: 0.3"/>
     <use xlink:href="#m8ab9c70ccb" x="264.823139" y="303.428571" style="fill-opacity: 0.3"/>
     <use xlink:href="#m8ab9c70ccb" x="257.665869" y="303.428571" style="fill-opacity: 0.3"/>
     <use xlink:href="#m8ab9c70ccb" x="258.046554" y="303.428571" style="fill-opacity: 0.3"/>
     <use xlink:href="#m8ab9c70ccb" x="262.263595" y="303.428571" style="fill-opacity: 0.3"/>
     <use xlink:href="#m8ab9c70ccb" x="255.090651" y="303.428571" style="fill-opacity: 0.3"/>
     <use xlink:href="#m8ab9c70ccb" x="252.153707" y="303.428571" style="fill-opacity: 0.3"/>
     <use xlink:href="#m8ab9c70ccb" x="250.821352" y="303.428571" style="fill-opacity: 0.3"/>
     <use xlink:href="#m8ab9c70ccb" x="258.597788" y="303.428571" style="fill-opacity: 0.3"/>
     <use xlink:href="#m8ab9c70ccb" x="250.437028" y="303.428571" style="fill-opacity: 0.3"/>
     <use xlink:href="#m8ab9c70ccb" x="256.513827" y="303.428571" style="fill-opacity: 0.3"/>
     <use xlink:href="#m8ab9c70ccb" x="248.282403" y="303.428571" style="fill-opacity: 0.3"/>
     <use xlink:href="#m8ab9c70ccb" x="251.938375" y="303.428571" style="fill-opacity: 0.3"/>
     <use xlink:href="#m8ab9c70ccb" x="260.20854" y="307.2" style="fill-opacity: 0.3"/>
     <use xlink:href="#m8ab9c70ccb" x="267.918425" y="307.2" style="fill-opacity: 0.3"/>
     <use xlink:href="#m8ab9c70ccb" x="254.86575" y="307.2" style="fill-opacity: 0.3"/>
     <use xlink:href="#m8ab9c70ccb" x="246.804073" y="307.2" style="fill-opacity: 0.3"/>
     <use xlink:href="#m8ab9c70ccb" x="249.681926" y="307.2" style="fill-opacity: 0.3"/>
     <use xlink:href="#m8ab9c70ccb" x="254.746448" y="307.2" style="fill-opacity: 0.3"/>
     <use xlink:href="#m8ab9c70ccb" x="250.39891" y="307.2" style="fill-opacity: 0.3"/>
     <use xlink:href="#m8ab9c70ccb" x="264.444215" y="307.2" style="fill-opacity: 0.3"/>
     <use xlink:href="#m8ab9c70ccb" x="266.972412" y="307.2" style="fill-opacity: 0.3"/>
     <use xlink:href="#m8ab9c70ccb" x="257.658073" y="307.2" style="fill-opacity: 0.3"/>
     <use xlink:href="#m8ab9c70ccb" x="256.153174" y="307.2" style="fill-opacity: 0.3"/>
     <use xlink:href="#m8ab9c70ccb" x="253.043114" y="307.2" style="fill-opacity: 0.3"/>
     <use xlink:href="#m8ab9c70ccb" x="254.859819" y="307.2" style="fill-opacity: 0.3"/>
     <use xlink:href="#m8ab9c70ccb" x="267.219894" y="307.2" style="fill-opacity: 0.3"/>
     <use xlink:href="#m8ab9c70ccb" x="253.074962" y="307.2" style="fill-opacity: 0.3"/>
     <use xlink:href="#m8ab9c70ccb" x="250.831342" y="307.2" style="fill-opacity: 0.3"/>
     <use xlink:href="#m8ab9c70ccb" x="257.939197" y="307.2" style="fill-opacity: 0.3"/>
     <use xlink:href="#m8ab9c70ccb" x="258.136793" y="307.2" style="fill-opacity: 0.3"/>
     <use xlink:href="#m8ab9c70ccb" x="262.694455" y="307.2" style="fill-opacity: 0.3"/>
     <use xlink:href="#m8ab9c70ccb" x="253.764035" y="307.2" style="fill-opacity: 0.3"/>
     <use xlink:href="#m8ab9c70ccb" x="259.232428" y="307.2" style="fill-opacity: 0.3"/>
     <use xlink:href="#m8ab9c70ccb" x="251.109933" y="307.2" style="fill-opacity: 0.3"/>
     <use xlink:href="#m8ab9c70ccb" x="258.676709" y="307.2" style="fill-opacity: 0.3"/>
     <use xlink:href="#m8ab9c70ccb" x="255.675478" y="303.428571" style="fill-opacity: 0.3"/>
     <use xlink:href="#m8ab9c70ccb" x="249.504629" y="303.428571" style="fill-opacity: 0.3"/>
     <use xlink:href="#m8ab9c70ccb" x="249.32995" y="303.428571" style="fill-opacity: 0.3"/>
     <use xlink:href="#m8ab9c70ccb" x="259.156404" y="303.428571" style="fill-opacity: 0.3"/>
    </g>
   </g>
   <g id="PathCollection_3">
    <g clip-path="url(#p101fbf4de7)">
     <use xlink:href="#m8ab9c70ccb" x="373.410244" y="305.314286" style="fill-opacity: 0.3"/>
     <use xlink:href="#m8ab9c70ccb" x="363.917378" y="305.314286" style="fill-opacity: 0.3"/>
     <use xlink:href="#m8ab9c70ccb" x="366.600872" y="305.314286" style="fill-opacity: 0.3"/>
     <use xlink:href="#m8ab9c70ccb" x="363.865889" y="305.314286" style="fill-opacity: 0.3"/>
     <use xlink:href="#m8ab9c70ccb" x="360.951634" y="312.857143" style="fill-opacity: 0.3"/>
     <use xlink:href="#m8ab9c70ccb" x="358.833154" y="312.857143" style="fill-opacity: 0.3"/>
     <use xlink:href="#m8ab9c70ccb" x="379.761247" y="312.857143" style="fill-opacity: 0.3"/>
     <use xlink:href="#m8ab9c70ccb" x="361.264386" y="305.314286" style="fill-opacity: 0.3"/>
     <use xlink:href="#m8ab9c70ccb" x="372.389019" y="312.857143" style="fill-opacity: 0.3"/>
     <use xlink:href="#m8ab9c70ccb" x="359.428142" y="305.314286" style="fill-opacity: 0.3"/>
     <use xlink:href="#m8ab9c70ccb" x="358.118922" y="312.857143" style="fill-opacity: 0.3"/>
     <use xlink:href="#m8ab9c70ccb" x="378.608949" y="303.428571" style="fill-opacity: 0.3"/>
     <use xlink:href="#m8ab9c70ccb" x="376.606383" y="303.428571" style="fill-opacity: 0.3"/>
     <use xlink:href="#m8ab9c70ccb" x="378.526194" y="303.428571" style="fill-opacity: 0.3"/>
     <use xlink:href="#m8ab9c70ccb" x="369.097735" y="303.428571" style="fill-opacity: 0.3"/>
     <use xlink:href="#m8ab9c70ccb" x="368.525612" y="303.428571" style="fill-opacity: 0.3"/>
     <use xlink:href="#m8ab9c70ccb" x="378.782977" y="303.428571" style="fill-opacity: 0.3"/>
     <use xlink:href="#m8ab9c70ccb" x="360.985906" y="303.428571" style="fill-opacity: 0.3"/>
     <use xlink:href="#m8ab9c70ccb" x="364.698269" y="303.428571" style="fill-opacity: 0.3"/>
     <use xlink:href="#m8ab9c70ccb" x="375.87374" y="303.428571" style="fill-opacity: 0.3"/>
     <use xlink:href="#m8ab9c70ccb" x="358.528226" y="303.428571" style="fill-opacity: 0.3"/>
     <use xlink:href="#m8ab9c70ccb" x="366.006561" y="303.428571" style="fill-opacity: 0.3"/>
     <use xlink:href="#m8ab9c70ccb" x="360.265293" y="303.428571" style="fill-opacity: 0.3"/>
     <use xlink:href="#m8ab9c70ccb" x="363.196167" y="303.428571" style="fill-opacity: 0.3"/>
     <use xlink:href="#m8ab9c70ccb" x="376.582082" y="303.428571" style="fill-opacity: 0.3"/>
     <use xlink:href="#m8ab9c70ccb" x="374.786382" y="303.428571" style="fill-opacity: 0.3"/>
     <use xlink:href="#m8ab9c70ccb" x="371.576924" y="303.428571" style="fill-opacity: 0.3"/>
     <use xlink:href="#m8ab9c70ccb" x="360.991071" y="303.428571" style="fill-opacity: 0.3"/>
     <use xlink:href="#m8ab9c70ccb" x="371.601397" y="303.428571" style="fill-opacity: 0.3"/>
     <use xlink:href="#m8ab9c70ccb" x="365.528425" y="303.428571" style="fill-opacity: 0.3"/>
     <use xlink:href="#m8ab9c70ccb" x="358.842661" y="303.428571" style="fill-opacity: 0.3"/>
     <use xlink:href="#m8ab9c70ccb" x="373.932347" y="303.428571" style="fill-opacity: 0.3"/>
     <use xlink:href="#m8ab9c70ccb" x="362.468867" y="303.428571" style="fill-opacity: 0.3"/>
     <use xlink:href="#m8ab9c70ccb" x="359.234685" y="303.428571" style="fill-opacity: 0.3"/>
     <use xlink:href="#m8ab9c70ccb" x="372.398811" y="307.2" style="fill-opacity: 0.3"/>
     <use xlink:href="#m8ab9c70ccb" x="361.980874" y="307.2" style="fill-opacity: 0.3"/>
     <use xlink:href="#m8ab9c70ccb" x="359.391782" y="307.2" style="fill-opacity: 0.3"/>
     <use xlink:href="#m8ab9c70ccb" x="374.201027" y="307.2" style="fill-opacity: 0.3"/>
     <use xlink:href="#m8ab9c70ccb" x="377.270965" y="307.2" style="fill-opacity: 0.3"/>
     <use xlink:href="#m8ab9c70ccb" x="375.255991" y="307.2" style="fill-opacity: 0.3"/>
     <use xlink:href="#m8ab9c70ccb" x="373.597589" y="303.428571" style="fill-opacity: 0.3"/>
     <use xlink:href="#m8ab9c70ccb" x="358.694023" y="303.428571" style="fill-opacity: 0.3"/>
    </g>
   </g>
   <g id="PathCollection_4">
    <g clip-path="url(#p101fbf4de7)">
     <use xlink:href="#m8ab9c70ccb" x="473.294405" y="312.857143" style="fill-opacity: 0.3"/>
     <use xlink:href="#m8ab9c70ccb" x="489.655992" y="305.314286" style="fill-opacity: 0.3"/>
     <use xlink:href="#m8ab9c70ccb" x="478.047394" y="303.428571" style="fill-opacity: 0.3"/>
     <use xlink:href="#m8ab9c70ccb" x="490.452651" y="303.428571" style="fill-opacity: 0.3"/>
     <use xlink:href="#m8ab9c70ccb" x="480.818463" y="303.428571" style="fill-opacity: 0.3"/>
     <use xlink:href="#m8ab9c70ccb" x="470.856079" y="303.428571" style="fill-opacity: 0.3"/>
     <use xlink:href="#m8ab9c70ccb" x="480.177314" y="303.428571" style="fill-opacity: 0.3"/>
     <use xlink:href="#m8ab9c70ccb" x="474.074926" y="307.2" style="fill-opacity: 0.3"/>
     <use xlink:href="#m8ab9c70ccb" x="484.84622" y="307.2" style="fill-opacity: 0.3"/>
     <use xlink:href="#m8ab9c70ccb" x="487.707027" y="307.2" style="fill-opacity: 0.3"/>
     <use xlink:href="#m8ab9c70ccb" x="486.363633" y="307.2" style="fill-opacity: 0.3"/>
     <use xlink:href="#m8ab9c70ccb" x="478.030201" y="307.2" style="fill-opacity: 0.3"/>
     <use xlink:href="#m8ab9c70ccb" x="480.960163" y="307.2" style="fill-opacity: 0.3"/>
     <use xlink:href="#m8ab9c70ccb" x="470.99291" y="307.2" style="fill-opacity: 0.3"/>
     <use xlink:href="#m8ab9c70ccb" x="481.495552" y="307.2" style="fill-opacity: 0.3"/>
     <use xlink:href="#m8ab9c70ccb" x="470.607909" y="307.2" style="fill-opacity: 0.3"/>
     <use xlink:href="#m8ab9c70ccb" x="484.75946" y="307.2" style="fill-opacity: 0.3"/>
     <use xlink:href="#m8ab9c70ccb" x="472.090053" y="307.2" style="fill-opacity: 0.3"/>
     <use xlink:href="#m8ab9c70ccb" x="483.557719" y="303.428571" style="fill-opacity: 0.3"/>
     <use xlink:href="#m8ab9c70ccb" x="472.863808" y="303.428571" style="fill-opacity: 0.3"/>
     <use xlink:href="#m8ab9c70ccb" x="479.990668" y="303.428571" style="fill-opacity: 0.3"/>
     <use xlink:href="#m8ab9c70ccb" x="483.636198" y="303.428571" style="fill-opacity: 0.3"/>
     <use xlink:href="#m8ab9c70ccb" x="480.033885" y="303.428571" style="fill-opacity: 0.3"/>
     <use xlink:href="#m8ab9c70ccb" x="484.019895" y="303.428571" style="fill-opacity: 0.3"/>
     <use xlink:href="#m8ab9c70ccb" x="470.066968" y="303.428571" style="fill-opacity: 0.3"/>
     <use xlink:href="#m8ab9c70ccb" x="477.602138" y="303.428571" style="fill-opacity: 0.3"/>
     <use xlink:href="#m8ab9c70ccb" x="488.378654" y="303.428571" style="fill-opacity: 0.3"/>
    </g>
   </g>
   <g id="legend_1">
    <g id="patch_49">
     <path d="M 97 271.371875 
L 174.415625 271.371875 
Q 176.415625 271.371875 176.415625 269.371875 
L 176.415625 50.2 
Q 176.415625 48.2 174.415625 48.2 
L 97 48.2 
Q 95 48.2 95 50.2 
L 95 269.371875 
Q 95 271.371875 97 271.371875 
z
" style="fill: #ffffff; opacity: 0.8; stroke: #cccccc; stroke-linejoin: miter"/>
    </g>
    <g id="text_16">
     <!-- fMRI.sequence -->
     <g transform="translate(99 59.798437) scale(0.1 -0.1)">
      <defs>
       <path id="DejaVuSans-4d" d="M 628 4666 
L 1569 4666 
L 2759 1491 
L 3956 4666 
L 4897 4666 
L 4897 0 
L 4281 0 
L 4281 4097 
L 3078 897 
L 2444 897 
L 1241 4097 
L 1241 0 
L 628 0 
L 628 4666 
z
" transform="scale(0.015625)"/>
       <path id="DejaVuSans-52" d="M 2841 2188 
Q 3044 2119 3236 1894 
Q 3428 1669 3622 1275 
L 4263 0 
L 3584 0 
L 2988 1197 
Q 2756 1666 2539 1819 
Q 2322 1972 1947 1972 
L 1259 1972 
L 1259 0 
L 628 0 
L 628 4666 
L 2053 4666 
Q 2853 4666 3247 4331 
Q 3641 3997 3641 3322 
Q 3641 2881 3436 2590 
Q 3231 2300 2841 2188 
z
M 1259 4147 
L 1259 2491 
L 2053 2491 
Q 2509 2491 2742 2702 
Q 2975 2913 2975 3322 
Q 2975 3731 2742 3939 
Q 2509 4147 2053 4147 
L 1259 4147 
z
" transform="scale(0.015625)"/>
       <path id="DejaVuSans-49" d="M 628 4666 
L 1259 4666 
L 1259 0 
L 628 0 
L 628 4666 
z
" transform="scale(0.015625)"/>
       <path id="DejaVuSans-2e" d="M 684 794 
L 1344 794 
L 1344 0 
L 684 0 
L 684 794 
z
" transform="scale(0.015625)"/>
       <path id="DejaVuSans-71" d="M 947 1747 
Q 947 1113 1208 752 
Q 1469 391 1925 391 
Q 2381 391 2643 752 
Q 2906 1113 2906 1747 
Q 2906 2381 2643 2742 
Q 2381 3103 1925 3103 
Q 1469 3103 1208 2742 
Q 947 2381 947 1747 
z
M 2906 525 
Q 2725 213 2448 61 
Q 2172 -91 1784 -91 
Q 1150 -91 751 415 
Q 353 922 353 1747 
Q 353 2572 751 3078 
Q 1150 3584 1784 3584 
Q 2172 3584 2448 3432 
Q 2725 3281 2906 2969 
L 2906 3500 
L 3481 3500 
L 3481 -1331 
L 2906 -1331 
L 2906 525 
z
" transform="scale(0.015625)"/>
      </defs>
      <use xlink:href="#DejaVuSans-66"/>
      <use xlink:href="#DejaVuSans-4d" transform="translate(35.205078 0)"/>
      <use xlink:href="#DejaVuSans-52" transform="translate(121.484375 0)"/>
      <use xlink:href="#DejaVuSans-49" transform="translate(190.966797 0)"/>
      <use xlink:href="#DejaVuSans-2e" transform="translate(220.458984 0)"/>
      <use xlink:href="#DejaVuSans-73" transform="translate(252.246094 0)"/>
      <use xlink:href="#DejaVuSans-65" transform="translate(304.345703 0)"/>
      <use xlink:href="#DejaVuSans-71" transform="translate(365.869141 0)"/>
      <use xlink:href="#DejaVuSans-75" transform="translate(429.345703 0)"/>
      <use xlink:href="#DejaVuSans-65" transform="translate(492.724609 0)"/>
      <use xlink:href="#DejaVuSans-6e" transform="translate(554.248047 0)"/>
      <use xlink:href="#DejaVuSans-63" transform="translate(617.626953 0)"/>
      <use xlink:href="#DejaVuSans-65" transform="translate(672.607422 0)"/>
     </g>
    </g>
    <g id="patch_50">
     <path d="M 105.221094 74.476562 
L 125.221094 74.476562 
L 125.221094 67.476562 
L 105.221094 67.476562 
z
" style="fill: #3274a1"/>
    </g>
    <g id="text_17">
     <!-- f -->
     <g transform="translate(133.221094 74.476562) scale(0.1 -0.1)">
      <use xlink:href="#DejaVuSans-66"/>
     </g>
    </g>
    <g id="patch_51">
     <path d="M 105.221094 89.154688 
L 125.221094 89.154688 
L 125.221094 82.154688 
L 105.221094 82.154688 
z
" style="fill: #e1812c"/>
    </g>
    <g id="text_18">
     <!-- m -->
     <g transform="translate(133.221094 89.154688) scale(0.1 -0.1)">
      <defs>
       <path id="DejaVuSans-6d" d="M 3328 2828 
Q 3544 3216 3844 3400 
Q 4144 3584 4550 3584 
Q 5097 3584 5394 3201 
Q 5691 2819 5691 2113 
L 5691 0 
L 5113 0 
L 5113 2094 
Q 5113 2597 4934 2840 
Q 4756 3084 4391 3084 
Q 3944 3084 3684 2787 
Q 3425 2491 3425 1978 
L 3425 0 
L 2847 0 
L 2847 2094 
Q 2847 2600 2669 2842 
Q 2491 3084 2119 3084 
Q 1678 3084 1418 2786 
Q 1159 2488 1159 1978 
L 1159 0 
L 581 0 
L 581 3500 
L 1159 3500 
L 1159 2956 
Q 1356 3278 1631 3431 
Q 1906 3584 2284 3584 
Q 2666 3584 2933 3390 
Q 3200 3197 3328 2828 
z
" transform="scale(0.015625)"/>
      </defs>
      <use xlink:href="#DejaVuSans-6d"/>
     </g>
    </g>
    <g id="patch_52">
     <path d="M 105.221094 103.832813 
L 125.221094 103.832813 
L 125.221094 96.832813 
L 105.221094 96.832813 
z
" style="fill: #3274a1"/>
    </g>
    <g id="text_19">
     <!-- f -->
     <g transform="translate(133.221094 103.832813) scale(0.1 -0.1)">
      <use xlink:href="#DejaVuSans-66"/>
     </g>
    </g>
    <g id="patch_53">
     <path d="M 105.221094 118.510938 
L 125.221094 118.510938 
L 125.221094 111.510938 
L 105.221094 111.510938 
z
" style="fill: #e1812c"/>
    </g>
    <g id="text_20">
     <!-- m -->
     <g transform="translate(133.221094 118.510938) scale(0.1 -0.1)">
      <use xlink:href="#DejaVuSans-6d"/>
     </g>
    </g>
    <g id="patch_54">
     <path d="M 105.221094 133.189063 
L 125.221094 133.189063 
L 125.221094 126.189063 
L 105.221094 126.189063 
z
" style="fill: #3274a1"/>
    </g>
    <g id="text_21">
     <!-- n -->
     <g transform="translate(133.221094 133.189063) scale(0.1 -0.1)">
      <use xlink:href="#DejaVuSans-6e"/>
     </g>
    </g>
    <g id="patch_55">
     <path d="M 105.221094 147.867188 
L 125.221094 147.867188 
L 125.221094 140.867188 
L 105.221094 140.867188 
z
" style="fill: #e1812c"/>
    </g>
    <g id="text_22">
     <!-- y -->
     <g transform="translate(133.221094 147.867188) scale(0.1 -0.1)">
      <use xlink:href="#DejaVuSans-79"/>
     </g>
    </g>
    <g id="patch_56">
     <path d="M 105.221094 162.545313 
L 125.221094 162.545313 
L 125.221094 155.545313 
L 105.221094 155.545313 
z
" style="fill: #3274a1"/>
    </g>
    <g id="text_23">
     <!-- y -->
     <g transform="translate(133.221094 162.545313) scale(0.1 -0.1)">
      <use xlink:href="#DejaVuSans-79"/>
     </g>
    </g>
    <g id="patch_57">
     <path d="M 105.221094 177.223437 
L 125.221094 177.223437 
L 125.221094 170.223437 
L 105.221094 170.223437 
z
" style="fill: #3274a1"/>
    </g>
    <g id="text_24">
     <!-- long -->
     <g transform="translate(133.221094 177.223437) scale(0.1 -0.1)">
      <use xlink:href="#DejaVuSans-6c"/>
      <use xlink:href="#DejaVuSans-6f" transform="translate(27.783203 0)"/>
      <use xlink:href="#DejaVuSans-6e" transform="translate(88.964844 0)"/>
      <use xlink:href="#DejaVuSans-67" transform="translate(152.34375 0)"/>
     </g>
    </g>
    <g id="patch_58">
     <path d="M 105.221094 191.901563 
L 125.221094 191.901563 
L 125.221094 184.901563 
L 105.221094 184.901563 
z
" style="fill: #e1812c"/>
    </g>
    <g id="text_25">
     <!-- short -->
     <g transform="translate(133.221094 191.901563) scale(0.1 -0.1)">
      <use xlink:href="#DejaVuSans-73"/>
      <use xlink:href="#DejaVuSans-68" transform="translate(52.099609 0)"/>
      <use xlink:href="#DejaVuSans-6f" transform="translate(115.478516 0)"/>
      <use xlink:href="#DejaVuSans-72" transform="translate(176.660156 0)"/>
      <use xlink:href="#DejaVuSans-74" transform="translate(217.773438 0)"/>
     </g>
    </g>
    <g id="patch_59">
     <path d="M 105.221094 206.579687 
L 125.221094 206.579687 
L 125.221094 199.579687 
L 105.221094 199.579687 
z
" style="fill: #3274a1"/>
    </g>
    <g id="text_26">
     <!-- n -->
     <g transform="translate(133.221094 206.579687) scale(0.1 -0.1)">
      <use xlink:href="#DejaVuSans-6e"/>
     </g>
    </g>
    <g id="patch_60">
     <path d="M 105.221094 221.257812 
L 125.221094 221.257812 
L 125.221094 214.257812 
L 105.221094 214.257812 
z
" style="fill: #e1812c"/>
    </g>
    <g id="text_27">
     <!-- y -->
     <g transform="translate(133.221094 221.257812) scale(0.1 -0.1)">
      <use xlink:href="#DejaVuSans-79"/>
     </g>
    </g>
    <g id="patch_61">
     <path d="M 105.221094 235.935937 
L 125.221094 235.935937 
L 125.221094 228.935937 
L 105.221094 228.935937 
z
" style="fill: #e9d4d0"/>
    </g>
    <g id="text_28">
     <!-- 7 -->
     <g transform="translate(133.221094 235.935937) scale(0.1 -0.1)">
      <defs>
       <path id="DejaVuSans-37" d="M 525 4666 
L 3525 4666 
L 3525 4397 
L 1831 0 
L 1172 0 
L 2766 4134 
L 525 4134 
L 525 4666 
z
" transform="scale(0.015625)"/>
      </defs>
      <use xlink:href="#DejaVuSans-37"/>
     </g>
    </g>
    <g id="patch_62">
     <path d="M 105.221094 250.614062 
L 125.221094 250.614062 
L 125.221094 243.614062 
L 105.221094 243.614062 
z
" style="fill: #3274a1"/>
    </g>
    <g id="text_29">
     <!-- GE-EPI -->
     <g transform="translate(133.221094 250.614062) scale(0.1 -0.1)">
      <defs>
       <path id="DejaVuSans-47" d="M 3809 666 
L 3809 1919 
L 2778 1919 
L 2778 2438 
L 4434 2438 
L 4434 434 
Q 4069 175 3628 42 
Q 3188 -91 2688 -91 
Q 1594 -91 976 548 
Q 359 1188 359 2328 
Q 359 3472 976 4111 
Q 1594 4750 2688 4750 
Q 3144 4750 3555 4637 
Q 3966 4525 4313 4306 
L 4313 3634 
Q 3963 3931 3569 4081 
Q 3175 4231 2741 4231 
Q 1884 4231 1454 3753 
Q 1025 3275 1025 2328 
Q 1025 1384 1454 906 
Q 1884 428 2741 428 
Q 3075 428 3337 486 
Q 3600 544 3809 666 
z
" transform="scale(0.015625)"/>
       <path id="DejaVuSans-45" d="M 628 4666 
L 3578 4666 
L 3578 4134 
L 1259 4134 
L 1259 2753 
L 3481 2753 
L 3481 2222 
L 1259 2222 
L 1259 531 
L 3634 531 
L 3634 0 
L 628 0 
L 628 4666 
z
" transform="scale(0.015625)"/>
       <path id="DejaVuSans-50" d="M 1259 4147 
L 1259 2394 
L 2053 2394 
Q 2494 2394 2734 2622 
Q 2975 2850 2975 3272 
Q 2975 3691 2734 3919 
Q 2494 4147 2053 4147 
L 1259 4147 
z
M 628 4666 
L 2053 4666 
Q 2838 4666 3239 4311 
Q 3641 3956 3641 3272 
Q 3641 2581 3239 2228 
Q 2838 1875 2053 1875 
L 1259 1875 
L 1259 0 
L 628 0 
L 628 4666 
z
" transform="scale(0.015625)"/>
      </defs>
      <use xlink:href="#DejaVuSans-47"/>
      <use xlink:href="#DejaVuSans-45" transform="translate(77.490234 0)"/>
      <use xlink:href="#DejaVuSans-2d" transform="translate(140.673828 0)"/>
      <use xlink:href="#DejaVuSans-45" transform="translate(176.757812 0)"/>
      <use xlink:href="#DejaVuSans-50" transform="translate(239.941406 0)"/>
      <use xlink:href="#DejaVuSans-49" transform="translate(300.244141 0)"/>
     </g>
    </g>
    <g id="patch_63">
     <path d="M 105.221094 265.292187 
L 125.221094 265.292187 
L 125.221094 258.292187 
L 105.221094 258.292187 
z
" style="fill: #e1812c"/>
    </g>
    <g id="text_30">
     <!-- SE-EPI -->
     <g transform="translate(133.221094 265.292187) scale(0.1 -0.1)">
      <use xlink:href="#DejaVuSans-53"/>
      <use xlink:href="#DejaVuSans-45" transform="translate(63.476562 0)"/>
      <use xlink:href="#DejaVuSans-2d" transform="translate(126.660156 0)"/>
      <use xlink:href="#DejaVuSans-45" transform="translate(162.744141 0)"/>
      <use xlink:href="#DejaVuSans-50" transform="translate(225.927734 0)"/>
      <use xlink:href="#DejaVuSans-49" transform="translate(286.230469 0)"/>
     </g>
    </g>
   </g>
  </g>
 </g>
 <defs>
  <clipPath id="p101fbf4de7">
   <rect x="90" y="43.2" width="558" height="277.2"/>
  </clipPath>
 </defs>
</svg>
