<?xml version="1.0" encoding="utf-8" standalone="no"?>
<!DOCTYPE svg PUBLIC "-//W3C//DTD SVG 1.1//EN"
  "http://www.w3.org/Graphics/SVG/1.1/DTD/svg11.dtd">
<svg xmlns:xlink="http://www.w3.org/1999/xlink" width="720pt" height="360pt" viewBox="0 0 720 360" xmlns="http://www.w3.org/2000/svg" version="1.1">
 <metadata>
  <rdf:RDF xmlns:dc="http://purl.org/dc/elements/1.1/" xmlns:cc="http://creativecommons.org/ns#" xmlns:rdf="http://www.w3.org/1999/02/22-rdf-syntax-ns#">
   <cc:Work>
    <dc:type rdf:resource="http://purl.org/dc/dcmitype/StillImage"/>
    <dc:date>2025-09-09T16:54:32.163115</dc:date>
    <dc:format>image/svg+xml</dc:format>
    <dc:creator>
     <cc:Agent>
      <dc:title>Matplotlib v3.10.3, https://matplotlib.org/</dc:title>
     </cc:Agent>
    </dc:creator>
   </cc:Work>
  </rdf:RDF>
 </metadata>
 <defs>
  <style type="text/css">*{stroke-linejoin: round; stroke-linecap: butt}</style>
 </defs>
 <g id="figure_1">
  <g id="patch_1">
   <path d="M 0 360 
L 720 360 
L 720 0 
L 0 0 
z
" style="fill: #ffffff"/>
  </g>
  <g id="axes_1">
   <g id="patch_2">
    <path d="M 90 320.4 
L 648 320.4 
L 648 43.2 
L 90 43.2 
z
" style="fill: #ffffff"/>
   </g>
   <g id="FillBetweenPolyCollection_1">
    <defs>
     <path id="m52477f30ae" d="M 161.409798 -73.339435 
L 158.090202 -73.339435 
L 157.62101 -75.62646 
L 157.046654 -77.913486 
L 156.351523 -80.200511 
L 155.519736 -82.487536 
L 154.535697 -84.774561 
L 153.384752 -87.061586 
L 152.053934 -89.348612 
L 150.53278 -91.635637 
L 148.814179 -93.922662 
L 146.895217 -96.209687 
L 144.777964 -98.496712 
L 142.470146 -100.783738 
L 139.985667 -103.070763 
L 137.344892 -105.357788 
L 134.574678 -107.644813 
L 131.708097 -109.931838 
L 128.783826 -112.218863 
L 125.84521 -114.505889 
L 122.939006 -116.792914 
L 120.113851 -119.079939 
L 117.41851 -121.366964 
L 114.899989 -123.653989 
L 112.601607 -125.941015 
L 110.561122 -128.22804 
L 108.80904 -130.515065 
L 107.367184 -132.80209 
L 106.247631 -135.089115 
L 105.452076 -137.376141 
L 104.971676 -139.663166 
L 104.787382 -141.950191 
L 104.87076 -144.237216 
L 105.185242 -146.524241 
L 105.687761 -148.811267 
L 106.330661 -151.098292 
L 107.063804 -153.385317 
L 107.836734 -155.672342 
L 108.600812 -157.959367 
L 109.311198 -160.246393 
L 109.928591 -162.533418 
L 110.420648 -164.820443 
L 110.763023 -167.107468 
L 110.939998 -169.394493 
L 110.944698 -171.681518 
L 110.778902 -173.968544 
L 110.452498 -176.255569 
L 109.982638 -178.542594 
L 109.392659 -180.829619 
L 108.710851 -183.116644 
L 107.969154 -185.40367 
L 107.201835 -187.690695 
L 106.444235 -189.97772 
L 105.731595 -192.264745 
L 105.098022 -194.55177 
L 104.575585 -196.838796 
L 104.193548 -199.125821 
L 103.977733 -201.412846 
L 103.95 -203.699871 
L 104.127816 -205.986896 
L 104.523925 -208.273922 
L 105.146096 -210.560947 
L 105.996967 -212.847972 
L 107.073997 -215.134997 
L 108.369535 -217.422022 
L 109.871041 -219.709048 
L 111.561457 -221.996073 
L 113.41975 -224.283098 
L 115.421611 -226.570123 
L 117.540296 -228.857148 
L 119.747569 -231.144173 
L 122.014704 -233.431199 
L 124.313481 -235.718224 
L 126.617123 -238.005249 
L 128.901102 -240.292274 
L 131.143783 -242.579299 
L 133.32685 -244.866325 
L 135.43552 -247.15335 
L 137.458523 -249.440375 
L 139.387896 -251.7274 
L 141.21861 -254.014425 
L 142.948097 -256.301451 
L 144.575713 -258.588476 
L 146.102208 -260.875501 
L 147.52924 -263.162526 
L 148.858972 -265.449551 
L 150.093772 -267.736577 
L 151.236031 -270.023602 
L 152.288081 -272.310627 
L 153.252203 -274.597652 
L 154.130708 -276.884677 
L 154.926041 -279.171702 
L 155.640909 -281.458728 
L 156.278392 -283.745753 
L 156.842013 -286.032778 
L 157.33578 -288.319803 
L 157.764169 -290.606828 
L 158.13207 -292.893854 
L 158.444695 -295.180879 
L 158.707457 -297.467904 
L 158.925842 -299.754929 
L 160.574158 -299.754929 
L 160.574158 -299.754929 
L 160.792543 -297.467904 
L 161.055305 -295.180879 
L 161.36793 -292.893854 
L 161.735831 -290.606828 
L 162.16422 -288.319803 
L 162.657987 -286.032778 
L 163.221608 -283.745753 
L 163.859091 -281.458728 
L 164.573959 -279.171702 
L 165.369292 -276.884677 
L 166.247797 -274.597652 
L 167.211919 -272.310627 
L 168.263969 -270.023602 
L 169.406228 -267.736577 
L 170.641028 -265.449551 
L 171.97076 -263.162526 
L 173.397792 -260.875501 
L 174.924287 -258.588476 
L 176.551903 -256.301451 
L 178.28139 -254.014425 
L 180.112104 -251.7274 
L 182.041477 -249.440375 
L 184.06448 -247.15335 
L 186.17315 -244.866325 
L 188.356217 -242.579299 
L 190.598898 -240.292274 
L 192.882877 -238.005249 
L 195.186519 -235.718224 
L 197.485296 -233.431199 
L 199.752431 -231.144173 
L 201.959704 -228.857148 
L 204.078389 -226.570123 
L 206.08025 -224.283098 
L 207.938543 -221.996073 
L 209.628959 -219.709048 
L 211.130465 -217.422022 
L 212.426003 -215.134997 
L 213.503033 -212.847972 
L 214.353904 -210.560947 
L 214.976075 -208.273922 
L 215.372184 -205.986896 
L 215.55 -203.699871 
L 215.522267 -201.412846 
L 215.306452 -199.125821 
L 214.924415 -196.838796 
L 214.401978 -194.55177 
L 213.768405 -192.264745 
L 213.055765 -189.97772 
L 212.298165 -187.690695 
L 211.530846 -185.40367 
L 210.789149 -183.116644 
L 210.107341 -180.829619 
L 209.517362 -178.542594 
L 209.047502 -176.255569 
L 208.721098 -173.968544 
L 208.555302 -171.681518 
L 208.560002 -169.394493 
L 208.736977 -167.107468 
L 209.079352 -164.820443 
L 209.571409 -162.533418 
L 210.188802 -160.246393 
L 210.899188 -157.959367 
L 211.663266 -155.672342 
L 212.436196 -153.385317 
L 213.169339 -151.098292 
L 213.812239 -148.811267 
L 214.314758 -146.524241 
L 214.62924 -144.237216 
L 214.712618 -141.950191 
L 214.528324 -139.663166 
L 214.047924 -137.376141 
L 213.252369 -135.089115 
L 212.132816 -132.80209 
L 210.69096 -130.515065 
L 208.938878 -128.22804 
L 206.898393 -125.941015 
L 204.600011 -123.653989 
L 202.08149 -121.366964 
L 199.386149 -119.079939 
L 196.560994 -116.792914 
L 193.65479 -114.505889 
L 190.716174 -112.218863 
L 187.791903 -109.931838 
L 184.925322 -107.644813 
L 182.155108 -105.357788 
L 179.514333 -103.070763 
L 177.029854 -100.783738 
L 174.722036 -98.496712 
L 172.604783 -96.209687 
L 170.685821 -93.922662 
L 168.96722 -91.635637 
L 167.446066 -89.348612 
L 166.115248 -87.061586 
L 164.964303 -84.774561 
L 163.980264 -82.487536 
L 163.148477 -80.200511 
L 162.453346 -77.913486 
L 161.87899 -75.62646 
L 161.409798 -73.339435 
z
" style="stroke: #3d3d3d; stroke-width: 1.25"/>
    </defs>
    <g clip-path="url(#pc73b1010a0)">
     <use xlink:href="#m52477f30ae" x="0" y="360" style="fill: #3274a1; stroke: #3d3d3d; stroke-width: 1.25"/>
    </g>
   </g>
   <g id="FillBetweenPolyCollection_2">
    <defs>
     <path id="m18f9cdf94d" d="M 299.793354 -94.877606 
L 298.706646 -94.877606 
L 298.519777 -96.739919 
L 298.28663 -98.602233 
L 298.001679 -100.464546 
L 297.660251 -102.326859 
L 297.258764 -104.189172 
L 296.794812 -106.051485 
L 296.267049 -107.913798 
L 295.674851 -109.776112 
L 295.017801 -111.638425 
L 294.295074 -113.500738 
L 293.504847 -115.363051 
L 292.643907 -117.225364 
L 291.707608 -119.087677 
L 290.690314 -120.94999 
L 289.58639 -122.812304 
L 288.391698 -124.674617 
L 287.105463 -126.53693 
L 285.732245 -128.399243 
L 284.283685 -130.261556 
L 282.779645 -132.123869 
L 281.248407 -133.986182 
L 279.725669 -135.848496 
L 278.252244 -137.710809 
L 276.870553 -139.573122 
L 275.620224 -141.435435 
L 274.53328 -143.297748 
L 273.629552 -145.160061 
L 272.912965 -147.022375 
L 272.369314 -148.884688 
L 271.965965 -150.747001 
L 271.653682 -152.609314 
L 271.370468 -154.471627 
L 271.047066 -156.33394 
L 270.613456 -158.196253 
L 270.005634 -160.058567 
L 269.171827 -161.92088 
L 268.077486 -163.783193 
L 266.708519 -165.645506 
L 265.072503 -167.507819 
L 263.197882 -169.370132 
L 261.131381 -171.232445 
L 258.934015 -173.094759 
L 256.676208 -174.957072 
L 254.432479 -176.819385 
L 252.276159 -178.681698 
L 250.274479 -180.544011 
L 248.484323 -182.406324 
L 246.948856 -184.268638 
L 245.695193 -186.130951 
L 244.733278 -187.993264 
L 244.056069 -189.855577 
L 243.641123 -191.71789 
L 243.453521 -193.580203 
L 243.45 -195.442516 
L 243.583941 -197.30483 
L 243.810769 -199.167143 
L 244.093155 -201.029456 
L 244.405425 -202.891769 
L 244.736594 -204.754082 
L 245.091639 -206.616395 
L 245.490825 -208.478708 
L 245.96716 -210.341022 
L 246.562339 -212.203335 
L 247.321681 -214.065648 
L 248.288734 -215.927961 
L 249.500181 -217.790274 
L 250.981622 -219.652587 
L 252.744642 -221.514901 
L 254.785387 -223.377214 
L 257.084639 -225.239527 
L 259.609265 -227.10184 
L 262.314732 -228.964153 
L 265.148363 -230.826466 
L 268.052939 -232.688779 
L 270.970342 -234.551093 
L 273.844922 -236.413406 
L 276.626365 -238.275719 
L 279.271928 -240.138032 
L 281.747922 -242.000345 
L 284.030445 -243.862658 
L 286.10537 -245.724971 
L 287.967686 -247.587285 
L 289.620317 -249.449598 
L 291.072572 -251.311911 
L 292.338396 -253.174224 
L 293.434624 -255.036537 
L 294.379365 -256.89885 
L 295.190664 -258.761163 
L 295.885509 -260.623477 
L 296.479207 -262.48579 
L 296.985107 -264.348103 
L 297.414608 -266.210416 
L 297.777366 -268.072729 
L 298.081608 -269.935042 
L 298.334476 -271.797356 
L 298.542329 -273.659669 
L 298.710974 -275.521982 
L 298.845805 -277.384295 
L 298.951867 -279.246608 
L 299.548133 -279.246608 
L 299.548133 -279.246608 
L 299.654195 -277.384295 
L 299.789026 -275.521982 
L 299.957671 -273.659669 
L 300.165524 -271.797356 
L 300.418392 -269.935042 
L 300.722634 -268.072729 
L 301.085392 -266.210416 
L 301.514893 -264.348103 
L 302.020793 -262.48579 
L 302.614491 -260.623477 
L 303.309336 -258.761163 
L 304.120635 -256.89885 
L 305.065376 -255.036537 
L 306.161604 -253.174224 
L 307.427428 -251.311911 
L 308.879683 -249.449598 
L 310.532314 -247.587285 
L 312.39463 -245.724971 
L 314.469555 -243.862658 
L 316.752078 -242.000345 
L 319.228072 -240.138032 
L 321.873635 -238.275719 
L 324.655078 -236.413406 
L 327.529658 -234.551093 
L 330.447061 -232.688779 
L 333.351637 -230.826466 
L 336.185268 -228.964153 
L 338.890735 -227.10184 
L 341.415361 -225.239527 
L 343.714613 -223.377214 
L 345.755358 -221.514901 
L 347.518378 -219.652587 
L 348.999819 -217.790274 
L 350.211266 -215.927961 
L 351.178319 -214.065648 
L 351.937661 -212.203335 
L 352.53284 -210.341022 
L 353.009175 -208.478708 
L 353.408361 -206.616395 
L 353.763406 -204.754082 
L 354.094575 -202.891769 
L 354.406845 -201.029456 
L 354.689231 -199.167143 
L 354.916059 -197.30483 
L 355.05 -195.442516 
L 355.046479 -193.580203 
L 354.858877 -191.71789 
L 354.443931 -189.855577 
L 353.766722 -187.993264 
L 352.804807 -186.130951 
L 351.551144 -184.268638 
L 350.015677 -182.406324 
L 348.225521 -180.544011 
L 346.223841 -178.681698 
L 344.067521 -176.819385 
L 341.823792 -174.957072 
L 339.565985 -173.094759 
L 337.368619 -171.232445 
L 335.302118 -169.370132 
L 333.427497 -167.507819 
L 331.791481 -165.645506 
L 330.422514 -163.783193 
L 329.328173 -161.92088 
L 328.494366 -160.058567 
L 327.886544 -158.196253 
L 327.452934 -156.33394 
L 327.129532 -154.471627 
L 326.846318 -152.609314 
L 326.534035 -150.747001 
L 326.130686 -148.884688 
L 325.587035 -147.022375 
L 324.870448 -145.160061 
L 323.96672 -143.297748 
L 322.879776 -141.435435 
L 321.629447 -139.573122 
L 320.247756 -137.710809 
L 318.774331 -135.848496 
L 317.251593 -133.986182 
L 315.720355 -132.123869 
L 314.216315 -130.261556 
L 312.767755 -128.399243 
L 311.394537 -126.53693 
L 310.108302 -124.674617 
L 308.91361 -122.812304 
L 307.809686 -120.94999 
L 306.792392 -119.087677 
L 305.856093 -117.225364 
L 304.995153 -115.363051 
L 304.204926 -113.500738 
L 303.482199 -111.638425 
L 302.825149 -109.776112 
L 302.232951 -107.913798 
L 301.705188 -106.051485 
L 301.241236 -104.189172 
L 300.839749 -102.326859 
L 300.498321 -100.464546 
L 300.21337 -98.602233 
L 299.980223 -96.739919 
L 299.793354 -94.877606 
z
" style="stroke: #3d3d3d; stroke-width: 1.25"/>
    </defs>
    <g clip-path="url(#pc73b1010a0)">
     <use xlink:href="#m18f9cdf94d" x="0" y="360" style="fill: #e1812c; stroke: #3d3d3d; stroke-width: 1.25"/>
    </g>
   </g>
   <g id="FillBetweenPolyCollection_3">
    <defs>
     <path id="mfe313c90c9" d="M 439.297385 -52.2 
L 438.202615 -52.2 
L 438.053887 -54.745455 
L 437.873877 -57.290909 
L 437.658212 -59.836364 
L 437.402259 -62.381818 
L 437.101091 -64.927273 
L 436.749438 -67.472727 
L 436.341609 -70.018182 
L 435.871382 -72.563636 
L 435.331904 -75.109091 
L 434.715587 -77.654545 
L 434.014059 -80.2 
L 433.218182 -82.745455 
L 432.318178 -85.290909 
L 431.303902 -87.836364 
L 430.165257 -90.381818 
L 428.892784 -92.927273 
L 427.478389 -95.472727 
L 425.916176 -98.018182 
L 424.203331 -100.563636 
L 422.340968 -103.109091 
L 420.334853 -105.654545 
L 418.195914 -108.2 
L 415.940447 -110.745455 
L 413.589969 -113.290909 
L 411.170682 -115.836364 
L 408.712554 -118.381818 
L 406.248073 -120.927273 
L 403.810773 -123.472727 
L 401.43362 -126.018182 
L 399.147441 -128.563636 
L 396.979491 -131.109091 
L 394.95232 -133.654545 
L 393.083011 -136.2 
L 391.382857 -138.745455 
L 389.857484 -141.290909 
L 388.507373 -143.836364 
L 387.328698 -146.381818 
L 386.314373 -148.927273 
L 385.455168 -151.472727 
L 384.740768 -154.018182 
L 384.160666 -156.563636 
L 383.704797 -159.109091 
L 383.363894 -161.654545 
L 383.12955 -164.2 
L 382.994044 -166.745455 
L 382.95 -169.290909 
L 382.989987 -171.836364 
L 383.106149 -174.381818 
L 383.289969 -176.927273 
L 383.532206 -179.472727 
L 383.823058 -182.018182 
L 384.152516 -184.563636 
L 384.510866 -187.109091 
L 384.889258 -189.654545 
L 385.280235 -192.2 
L 385.678141 -194.745455 
L 386.07931 -197.290909 
L 386.482014 -199.836364 
L 386.886138 -202.381818 
L 387.292649 -204.927273 
L 387.702936 -207.472727 
L 388.118124 -210.018182 
L 388.538506 -212.563636 
L 388.96321 -215.109091 
L 389.390182 -217.654545 
L 389.816545 -220.2 
L 390.239319 -222.745455 
L 390.656436 -225.290909 
L 391.067921 -227.836364 
L 391.477077 -230.381818 
L 391.891495 -232.927273 
L 392.323716 -235.472727 
L 392.791385 -238.018182 
L 393.316822 -240.563636 
L 393.925985 -243.109091 
L 394.646862 -245.654545 
L 395.507445 -248.2 
L 396.533439 -250.745455 
L 397.745949 -253.290909 
L 399.159371 -255.836364 
L 400.779707 -258.381818 
L 402.603473 -260.927273 
L 404.617326 -263.472727 
L 406.798443 -266.018182 
L 409.11562 -268.563636 
L 411.530982 -271.109091 
L 414.002145 -273.654545 
L 416.484628 -276.2 
L 418.934308 -278.745455 
L 421.309715 -281.290909 
L 423.573996 -283.836364 
L 425.696423 -286.381818 
L 427.653375 -288.927273 
L 429.428768 -291.472727 
L 431.013982 -294.018182 
L 432.407332 -296.563636 
L 433.613206 -299.109091 
L 434.640974 -301.654545 
L 435.50378 -304.2 
L 441.99622 -304.2 
L 441.99622 -304.2 
L 442.859026 -301.654545 
L 443.886794 -299.109091 
L 445.092668 -296.563636 
L 446.486018 -294.018182 
L 448.071232 -291.472727 
L 449.846625 -288.927273 
L 451.803577 -286.381818 
L 453.926004 -283.836364 
L 456.190285 -281.290909 
L 458.565692 -278.745455 
L 461.015372 -276.2 
L 463.497855 -273.654545 
L 465.969018 -271.109091 
L 468.38438 -268.563636 
L 470.701557 -266.018182 
L 472.882674 -263.472727 
L 474.896527 -260.927273 
L 476.720293 -258.381818 
L 478.340629 -255.836364 
L 479.754051 -253.290909 
L 480.966561 -250.745455 
L 481.992555 -248.2 
L 482.853138 -245.654545 
L 483.574015 -243.109091 
L 484.183178 -240.563636 
L 484.708615 -238.018182 
L 485.176284 -235.472727 
L 485.608505 -232.927273 
L 486.022923 -230.381818 
L 486.432079 -227.836364 
L 486.843564 -225.290909 
L 487.260681 -222.745455 
L 487.683455 -220.2 
L 488.109818 -217.654545 
L 488.53679 -215.109091 
L 488.961494 -212.563636 
L 489.381876 -210.018182 
L 489.797064 -207.472727 
L 490.207351 -204.927273 
L 490.613862 -202.381818 
L 491.017986 -199.836364 
L 491.42069 -197.290909 
L 491.821859 -194.745455 
L 492.219765 -192.2 
L 492.610742 -189.654545 
L 492.989134 -187.109091 
L 493.347484 -184.563636 
L 493.676942 -182.018182 
L 493.967794 -179.472727 
L 494.210031 -176.927273 
L 494.393851 -174.381818 
L 494.510013 -171.836364 
L 494.55 -169.290909 
L 494.505956 -166.745455 
L 494.37045 -164.2 
L 494.136106 -161.654545 
L 493.795203 -159.109091 
L 493.339334 -156.563636 
L 492.759232 -154.018182 
L 492.044832 -151.472727 
L 491.185627 -148.927273 
L 490.171302 -146.381818 
L 488.992627 -143.836364 
L 487.642516 -141.290909 
L 486.117143 -138.745455 
L 484.416989 -136.2 
L 482.54768 -133.654545 
L 480.520509 -131.109091 
L 478.352559 -128.563636 
L 476.06638 -126.018182 
L 473.689227 -123.472727 
L 471.251927 -120.927273 
L 468.787446 -118.381818 
L 466.329318 -115.836364 
L 463.910031 -113.290909 
L 461.559553 -110.745455 
L 459.304086 -108.2 
L 457.165147 -105.654545 
L 455.159032 -103.109091 
L 453.296669 -100.563636 
L 451.583824 -98.018182 
L 450.021611 -95.472727 
L 448.607216 -92.927273 
L 447.334743 -90.381818 
L 446.196098 -87.836364 
L 445.181822 -85.290909 
L 444.281818 -82.745455 
L 443.485941 -80.2 
L 442.784413 -77.654545 
L 442.168096 -75.109091 
L 441.628618 -72.563636 
L 441.158391 -70.018182 
L 440.750562 -67.472727 
L 440.398909 -64.927273 
L 440.097741 -62.381818 
L 439.841788 -59.836364 
L 439.626123 -57.290909 
L 439.446113 -54.745455 
L 439.297385 -52.2 
z
" style="stroke: #3d3d3d; stroke-width: 1.25"/>
    </defs>
    <g clip-path="url(#pc73b1010a0)">
     <use xlink:href="#mfe313c90c9" x="0" y="360" style="fill: #3a923a; stroke: #3d3d3d; stroke-width: 1.25"/>
    </g>
   </g>
   <g id="FillBetweenPolyCollection_4">
    <defs>
     <path id="mff604ec1c1" d="M 578.624162 -110.891707 
L 577.875838 -110.891707 
L 577.721953 -112.633628 
L 577.518813 -114.375548 
L 577.256131 -116.117469 
L 576.92327 -117.85939 
L 576.509787 -119.60131 
L 576.006094 -121.343231 
L 575.40419 -123.085152 
L 574.698429 -124.827072 
L 573.886255 -126.568993 
L 572.968868 -128.310914 
L 571.951732 -130.052835 
L 570.844886 -131.794755 
L 569.662999 -133.536676 
L 568.42512 -135.278597 
L 567.154092 -137.020517 
L 565.875619 -138.762438 
L 564.616984 -140.504359 
L 563.405465 -142.246279 
L 562.26652 -143.9882 
L 561.221828 -145.730121 
L 560.287365 -147.472041 
L 559.471645 -149.213962 
L 558.774347 -150.955883 
L 558.185486 -152.697804 
L 557.685293 -154.439724 
L 557.244892 -156.181645 
L 556.827797 -157.923566 
L 556.392138 -159.665486 
L 555.89345 -161.407407 
L 555.287754 -163.149328 
L 554.534625 -164.891248 
L 553.599948 -166.633169 
L 552.458083 -168.37509 
L 551.093306 -170.11701 
L 549.500484 -171.858931 
L 547.685102 -173.600852 
L 545.662856 -175.342772 
L 543.459077 -177.084693 
L 541.108217 -178.826614 
L 538.653521 -180.568535 
L 536.146843 -182.310455 
L 533.648391 -184.052376 
L 531.226058 -185.794297 
L 528.95394 -187.536217 
L 526.909728 -189.278138 
L 525.170863 -191.020059 
L 523.809606 -192.761979 
L 522.887511 -194.5039 
L 522.45 -196.245821 
L 522.521892 -197.987741 
L 523.104664 -199.729662 
L 524.176021 -201.471583 
L 525.69196 -203.213503 
L 527.591135 -204.955424 
L 529.800879 -206.697345 
L 532.244023 -208.439266 
L 534.845469 -210.181186 
L 537.53764 -211.923107 
L 540.264108 -213.665028 
L 542.981119 -215.406948 
L 545.657119 -217.148869 
L 548.270703 -218.89079 
L 550.807661 -220.63271 
L 553.257852 -222.374631 
L 555.612527 -224.116552 
L 557.862553 -225.858472 
L 559.997682 -227.600393 
L 562.006796 -229.342314 
L 563.87882 -231.084234 
L 565.603933 -232.826155 
L 567.174723 -234.568076 
L 568.586994 -236.309997 
L 569.840125 -238.051917 
L 570.93698 -239.793838 
L 571.883514 -241.535759 
L 572.688235 -243.277679 
L 573.361694 -245.0196 
L 573.916084 -246.761521 
L 574.364977 -248.503441 
L 574.72313 -250.245362 
L 575.006264 -251.987283 
L 575.230701 -253.729203 
L 575.412818 -255.471124 
L 575.5683 -257.213045 
L 575.71128 -258.954966 
L 575.853485 -260.696886 
L 576.003541 -262.438807 
L 576.166562 -264.180728 
L 576.344115 -265.922648 
L 576.534562 -267.664569 
L 576.733744 -269.40649 
L 576.935866 -271.14841 
L 577.134469 -272.890331 
L 577.32333 -274.632252 
L 577.497182 -276.374172 
L 577.652185 -278.116093 
L 577.786127 -279.858014 
L 577.898382 -281.599934 
L 577.989687 -283.341855 
L 578.510313 -283.341855 
L 578.510313 -283.341855 
L 578.601618 -281.599934 
L 578.713873 -279.858014 
L 578.847815 -278.116093 
L 579.002818 -276.374172 
L 579.17667 -274.632252 
L 579.365531 -272.890331 
L 579.564134 -271.14841 
L 579.766256 -269.40649 
L 579.965438 -267.664569 
L 580.155885 -265.922648 
L 580.333438 -264.180728 
L 580.496459 -262.438807 
L 580.646515 -260.696886 
L 580.78872 -258.954966 
L 580.9317 -257.213045 
L 581.087182 -255.471124 
L 581.269299 -253.729203 
L 581.493736 -251.987283 
L 581.77687 -250.245362 
L 582.135023 -248.503441 
L 582.583916 -246.761521 
L 583.138306 -245.0196 
L 583.811765 -243.277679 
L 584.616486 -241.535759 
L 585.56302 -239.793838 
L 586.659875 -238.051917 
L 587.913006 -236.309997 
L 589.325277 -234.568076 
L 590.896067 -232.826155 
L 592.62118 -231.084234 
L 594.493204 -229.342314 
L 596.502318 -227.600393 
L 598.637447 -225.858472 
L 600.887473 -224.116552 
L 603.242148 -222.374631 
L 605.692339 -220.63271 
L 608.229297 -218.89079 
L 610.842881 -217.148869 
L 613.518881 -215.406948 
L 616.235892 -213.665028 
L 618.96236 -211.923107 
L 621.654531 -210.181186 
L 624.255977 -208.439266 
L 626.699121 -206.697345 
L 628.908865 -204.955424 
L 630.80804 -203.213503 
L 632.323979 -201.471583 
L 633.395336 -199.729662 
L 633.978108 -197.987741 
L 634.05 -196.245821 
L 633.612489 -194.5039 
L 632.690394 -192.761979 
L 631.329137 -191.020059 
L 629.590272 -189.278138 
L 627.54606 -187.536217 
L 625.273942 -185.794297 
L 622.851609 -184.052376 
L 620.353157 -182.310455 
L 617.846479 -180.568535 
L 615.391783 -178.826614 
L 613.040923 -177.084693 
L 610.837144 -175.342772 
L 608.814898 -173.600852 
L 606.999516 -171.858931 
L 605.406694 -170.11701 
L 604.041917 -168.37509 
L 602.900052 -166.633169 
L 601.965375 -164.891248 
L 601.212246 -163.149328 
L 600.60655 -161.407407 
L 600.107862 -159.665486 
L 599.672203 -157.923566 
L 599.255108 -156.181645 
L 598.814707 -154.439724 
L 598.314514 -152.697804 
L 597.725653 -150.955883 
L 597.028355 -149.213962 
L 596.212635 -147.472041 
L 595.278172 -145.730121 
L 594.23348 -143.9882 
L 593.094535 -142.246279 
L 591.883016 -140.504359 
L 590.624381 -138.762438 
L 589.345908 -137.020517 
L 588.07488 -135.278597 
L 586.837001 -133.536676 
L 585.655114 -131.794755 
L 584.548268 -130.052835 
L 583.531132 -128.310914 
L 582.613745 -126.568993 
L 581.801571 -124.827072 
L 581.09581 -123.085152 
L 580.493906 -121.343231 
L 579.990213 -119.60131 
L 579.57673 -117.85939 
L 579.243869 -116.117469 
L 578.981187 -114.375548 
L 578.778047 -112.633628 
L 578.624162 -110.891707 
z
" style="stroke: #3d3d3d; stroke-width: 1.25"/>
    </defs>
    <g clip-path="url(#pc73b1010a0)">
     <use xlink:href="#mff604ec1c1" x="0" y="360" style="fill: #c03d3e; stroke: #3d3d3d; stroke-width: 1.25"/>
    </g>
   </g>
   <g id="matplotlib.axis_1">
    <g id="xtick_1">
     <g id="line2d_1">
      <defs>
       <path id="m1f699a762d" d="M 0 0 
L 0 3.5 
" style="stroke: #000000; stroke-width: 0.8"/>
      </defs>
      <g>
       <use xlink:href="#m1f699a762d" x="159.75" y="320.4" style="stroke: #000000; stroke-width: 0.8"/>
      </g>
     </g>
     <g id="text_1">
      <!-- No -->
      <g transform="translate(152.95 334.998438) scale(0.1 -0.1)">
       <defs>
        <path id="DejaVuSans-4e" d="M 628 4666 
L 1478 4666 
L 3547 763 
L 3547 4666 
L 4159 4666 
L 4159 0 
L 3309 0 
L 1241 3903 
L 1241 0 
L 628 0 
L 628 4666 
z
" transform="scale(0.015625)"/>
        <path id="DejaVuSans-6f" d="M 1959 3097 
Q 1497 3097 1228 2736 
Q 959 2375 959 1747 
Q 959 1119 1226 758 
Q 1494 397 1959 397 
Q 2419 397 2687 759 
Q 2956 1122 2956 1747 
Q 2956 2369 2687 2733 
Q 2419 3097 1959 3097 
z
M 1959 3584 
Q 2709 3584 3137 3096 
Q 3566 2609 3566 1747 
Q 3566 888 3137 398 
Q 2709 -91 1959 -91 
Q 1206 -91 779 398 
Q 353 888 353 1747 
Q 353 2609 779 3096 
Q 1206 3584 1959 3584 
z
" transform="scale(0.015625)"/>
       </defs>
       <use xlink:href="#DejaVuSans-4e"/>
       <use xlink:href="#DejaVuSans-6f" transform="translate(74.804688 0)"/>
      </g>
     </g>
    </g>
    <g id="xtick_2">
     <g id="line2d_2">
      <g>
       <use xlink:href="#m1f699a762d" x="299.25" y="320.4" style="stroke: #000000; stroke-width: 0.8"/>
      </g>
     </g>
     <g id="text_2">
      <!-- Specific -->
      <g transform="translate(279.788281 334.998438) scale(0.1 -0.1)">
       <defs>
        <path id="DejaVuSans-53" d="M 3425 4513 
L 3425 3897 
Q 3066 4069 2747 4153 
Q 2428 4238 2131 4238 
Q 1616 4238 1336 4038 
Q 1056 3838 1056 3469 
Q 1056 3159 1242 3001 
Q 1428 2844 1947 2747 
L 2328 2669 
Q 3034 2534 3370 2195 
Q 3706 1856 3706 1288 
Q 3706 609 3251 259 
Q 2797 -91 1919 -91 
Q 1588 -91 1214 -16 
Q 841 59 441 206 
L 441 856 
Q 825 641 1194 531 
Q 1563 422 1919 422 
Q 2459 422 2753 634 
Q 3047 847 3047 1241 
Q 3047 1584 2836 1778 
Q 2625 1972 2144 2069 
L 1759 2144 
Q 1053 2284 737 2584 
Q 422 2884 422 3419 
Q 422 4038 858 4394 
Q 1294 4750 2059 4750 
Q 2388 4750 2728 4690 
Q 3069 4631 3425 4513 
z
" transform="scale(0.015625)"/>
        <path id="DejaVuSans-70" d="M 1159 525 
L 1159 -1331 
L 581 -1331 
L 581 3500 
L 1159 3500 
L 1159 2969 
Q 1341 3281 1617 3432 
Q 1894 3584 2278 3584 
Q 2916 3584 3314 3078 
Q 3713 2572 3713 1747 
Q 3713 922 3314 415 
Q 2916 -91 2278 -91 
Q 1894 -91 1617 61 
Q 1341 213 1159 525 
z
M 3116 1747 
Q 3116 2381 2855 2742 
Q 2594 3103 2138 3103 
Q 1681 3103 1420 2742 
Q 1159 2381 1159 1747 
Q 1159 1113 1420 752 
Q 1681 391 2138 391 
Q 2594 391 2855 752 
Q 3116 1113 3116 1747 
z
" transform="scale(0.015625)"/>
        <path id="DejaVuSans-65" d="M 3597 1894 
L 3597 1613 
L 953 1613 
Q 991 1019 1311 708 
Q 1631 397 2203 397 
Q 2534 397 2845 478 
Q 3156 559 3463 722 
L 3463 178 
Q 3153 47 2828 -22 
Q 2503 -91 2169 -91 
Q 1331 -91 842 396 
Q 353 884 353 1716 
Q 353 2575 817 3079 
Q 1281 3584 2069 3584 
Q 2775 3584 3186 3129 
Q 3597 2675 3597 1894 
z
M 3022 2063 
Q 3016 2534 2758 2815 
Q 2500 3097 2075 3097 
Q 1594 3097 1305 2825 
Q 1016 2553 972 2059 
L 3022 2063 
z
" transform="scale(0.015625)"/>
        <path id="DejaVuSans-63" d="M 3122 3366 
L 3122 2828 
Q 2878 2963 2633 3030 
Q 2388 3097 2138 3097 
Q 1578 3097 1268 2742 
Q 959 2388 959 1747 
Q 959 1106 1268 751 
Q 1578 397 2138 397 
Q 2388 397 2633 464 
Q 2878 531 3122 666 
L 3122 134 
Q 2881 22 2623 -34 
Q 2366 -91 2075 -91 
Q 1284 -91 818 406 
Q 353 903 353 1747 
Q 353 2603 823 3093 
Q 1294 3584 2113 3584 
Q 2378 3584 2631 3529 
Q 2884 3475 3122 3366 
z
" transform="scale(0.015625)"/>
        <path id="DejaVuSans-69" d="M 603 3500 
L 1178 3500 
L 1178 0 
L 603 0 
L 603 3500 
z
M 603 4863 
L 1178 4863 
L 1178 4134 
L 603 4134 
L 603 4863 
z
" transform="scale(0.015625)"/>
        <path id="DejaVuSans-66" d="M 2375 4863 
L 2375 4384 
L 1825 4384 
Q 1516 4384 1395 4259 
Q 1275 4134 1275 3809 
L 1275 3500 
L 2222 3500 
L 2222 3053 
L 1275 3053 
L 1275 0 
L 697 0 
L 697 3053 
L 147 3053 
L 147 3500 
L 697 3500 
L 697 3744 
Q 697 4328 969 4595 
Q 1241 4863 1831 4863 
L 2375 4863 
z
" transform="scale(0.015625)"/>
       </defs>
       <use xlink:href="#DejaVuSans-53"/>
       <use xlink:href="#DejaVuSans-70" transform="translate(63.476562 0)"/>
       <use xlink:href="#DejaVuSans-65" transform="translate(126.953125 0)"/>
       <use xlink:href="#DejaVuSans-63" transform="translate(188.476562 0)"/>
       <use xlink:href="#DejaVuSans-69" transform="translate(243.457031 0)"/>
       <use xlink:href="#DejaVuSans-66" transform="translate(271.240234 0)"/>
       <use xlink:href="#DejaVuSans-69" transform="translate(306.445312 0)"/>
       <use xlink:href="#DejaVuSans-63" transform="translate(334.228516 0)"/>
      </g>
     </g>
    </g>
    <g id="xtick_3">
     <g id="line2d_3">
      <g>
       <use xlink:href="#m1f699a762d" x="438.75" y="320.4" style="stroke: #000000; stroke-width: 0.8"/>
      </g>
     </g>
     <g id="text_3">
      <!-- Spurious -->
      <g transform="translate(416.955469 334.998438) scale(0.1 -0.1)">
       <defs>
        <path id="DejaVuSans-75" d="M 544 1381 
L 544 3500 
L 1119 3500 
L 1119 1403 
Q 1119 906 1312 657 
Q 1506 409 1894 409 
Q 2359 409 2629 706 
Q 2900 1003 2900 1516 
L 2900 3500 
L 3475 3500 
L 3475 0 
L 2900 0 
L 2900 538 
Q 2691 219 2414 64 
Q 2138 -91 1772 -91 
Q 1169 -91 856 284 
Q 544 659 544 1381 
z
M 1991 3584 
L 1991 3584 
z
" transform="scale(0.015625)"/>
        <path id="DejaVuSans-72" d="M 2631 2963 
Q 2534 3019 2420 3045 
Q 2306 3072 2169 3072 
Q 1681 3072 1420 2755 
Q 1159 2438 1159 1844 
L 1159 0 
L 581 0 
L 581 3500 
L 1159 3500 
L 1159 2956 
Q 1341 3275 1631 3429 
Q 1922 3584 2338 3584 
Q 2397 3584 2469 3576 
Q 2541 3569 2628 3553 
L 2631 2963 
z
" transform="scale(0.015625)"/>
        <path id="DejaVuSans-73" d="M 2834 3397 
L 2834 2853 
Q 2591 2978 2328 3040 
Q 2066 3103 1784 3103 
Q 1356 3103 1142 2972 
Q 928 2841 928 2578 
Q 928 2378 1081 2264 
Q 1234 2150 1697 2047 
L 1894 2003 
Q 2506 1872 2764 1633 
Q 3022 1394 3022 966 
Q 3022 478 2636 193 
Q 2250 -91 1575 -91 
Q 1294 -91 989 -36 
Q 684 19 347 128 
L 347 722 
Q 666 556 975 473 
Q 1284 391 1588 391 
Q 1994 391 2212 530 
Q 2431 669 2431 922 
Q 2431 1156 2273 1281 
Q 2116 1406 1581 1522 
L 1381 1569 
Q 847 1681 609 1914 
Q 372 2147 372 2553 
Q 372 3047 722 3315 
Q 1072 3584 1716 3584 
Q 2034 3584 2315 3537 
Q 2597 3491 2834 3397 
z
" transform="scale(0.015625)"/>
       </defs>
       <use xlink:href="#DejaVuSans-53"/>
       <use xlink:href="#DejaVuSans-70" transform="translate(63.476562 0)"/>
       <use xlink:href="#DejaVuSans-75" transform="translate(126.953125 0)"/>
       <use xlink:href="#DejaVuSans-72" transform="translate(190.332031 0)"/>
       <use xlink:href="#DejaVuSans-69" transform="translate(231.445312 0)"/>
       <use xlink:href="#DejaVuSans-6f" transform="translate(259.228516 0)"/>
       <use xlink:href="#DejaVuSans-75" transform="translate(320.410156 0)"/>
       <use xlink:href="#DejaVuSans-73" transform="translate(383.789062 0)"/>
      </g>
     </g>
    </g>
    <g id="xtick_4">
     <g id="line2d_4">
      <g>
       <use xlink:href="#m1f699a762d" x="578.25" y="320.4" style="stroke: #000000; stroke-width: 0.8"/>
      </g>
     </g>
     <g id="text_4">
      <!-- Non-specific -->
      <g transform="translate(547.585156 334.998438) scale(0.1 -0.1)">
       <defs>
        <path id="DejaVuSans-6e" d="M 3513 2113 
L 3513 0 
L 2938 0 
L 2938 2094 
Q 2938 2591 2744 2837 
Q 2550 3084 2163 3084 
Q 1697 3084 1428 2787 
Q 1159 2491 1159 1978 
L 1159 0 
L 581 0 
L 581 3500 
L 1159 3500 
L 1159 2956 
Q 1366 3272 1645 3428 
Q 1925 3584 2291 3584 
Q 2894 3584 3203 3211 
Q 3513 2838 3513 2113 
z
" transform="scale(0.015625)"/>
        <path id="DejaVuSans-2d" d="M 313 2009 
L 1997 2009 
L 1997 1497 
L 313 1497 
L 313 2009 
z
" transform="scale(0.015625)"/>
       </defs>
       <use xlink:href="#DejaVuSans-4e"/>
       <use xlink:href="#DejaVuSans-6f" transform="translate(74.804688 0)"/>
       <use xlink:href="#DejaVuSans-6e" transform="translate(135.986328 0)"/>
       <use xlink:href="#DejaVuSans-2d" transform="translate(199.365234 0)"/>
       <use xlink:href="#DejaVuSans-73" transform="translate(235.449219 0)"/>
       <use xlink:href="#DejaVuSans-70" transform="translate(287.548828 0)"/>
       <use xlink:href="#DejaVuSans-65" transform="translate(351.025391 0)"/>
       <use xlink:href="#DejaVuSans-63" transform="translate(412.548828 0)"/>
       <use xlink:href="#DejaVuSans-69" transform="translate(467.529297 0)"/>
       <use xlink:href="#DejaVuSans-66" transform="translate(495.3125 0)"/>
       <use xlink:href="#DejaVuSans-69" transform="translate(530.517578 0)"/>
       <use xlink:href="#DejaVuSans-63" transform="translate(558.300781 0)"/>
      </g>
     </g>
    </g>
    <g id="text_5">
     <!-- Connectivity category -->
     <g transform="translate(313.98125 348.676562) scale(0.1 -0.1)">
      <defs>
       <path id="DejaVuSans-43" d="M 4122 4306 
L 4122 3641 
Q 3803 3938 3442 4084 
Q 3081 4231 2675 4231 
Q 1875 4231 1450 3742 
Q 1025 3253 1025 2328 
Q 1025 1406 1450 917 
Q 1875 428 2675 428 
Q 3081 428 3442 575 
Q 3803 722 4122 1019 
L 4122 359 
Q 3791 134 3420 21 
Q 3050 -91 2638 -91 
Q 1578 -91 968 557 
Q 359 1206 359 2328 
Q 359 3453 968 4101 
Q 1578 4750 2638 4750 
Q 3056 4750 3426 4639 
Q 3797 4528 4122 4306 
z
" transform="scale(0.015625)"/>
       <path id="DejaVuSans-74" d="M 1172 4494 
L 1172 3500 
L 2356 3500 
L 2356 3053 
L 1172 3053 
L 1172 1153 
Q 1172 725 1289 603 
Q 1406 481 1766 481 
L 2356 481 
L 2356 0 
L 1766 0 
Q 1100 0 847 248 
Q 594 497 594 1153 
L 594 3053 
L 172 3053 
L 172 3500 
L 594 3500 
L 594 4494 
L 1172 4494 
z
" transform="scale(0.015625)"/>
       <path id="DejaVuSans-76" d="M 191 3500 
L 800 3500 
L 1894 563 
L 2988 3500 
L 3597 3500 
L 2284 0 
L 1503 0 
L 191 3500 
z
" transform="scale(0.015625)"/>
       <path id="DejaVuSans-79" d="M 2059 -325 
Q 1816 -950 1584 -1140 
Q 1353 -1331 966 -1331 
L 506 -1331 
L 506 -850 
L 844 -850 
Q 1081 -850 1212 -737 
Q 1344 -625 1503 -206 
L 1606 56 
L 191 3500 
L 800 3500 
L 1894 763 
L 2988 3500 
L 3597 3500 
L 2059 -325 
z
" transform="scale(0.015625)"/>
       <path id="DejaVuSans-20" transform="scale(0.015625)"/>
       <path id="DejaVuSans-61" d="M 2194 1759 
Q 1497 1759 1228 1600 
Q 959 1441 959 1056 
Q 959 750 1161 570 
Q 1363 391 1709 391 
Q 2188 391 2477 730 
Q 2766 1069 2766 1631 
L 2766 1759 
L 2194 1759 
z
M 3341 1997 
L 3341 0 
L 2766 0 
L 2766 531 
Q 2569 213 2275 61 
Q 1981 -91 1556 -91 
Q 1019 -91 701 211 
Q 384 513 384 1019 
Q 384 1609 779 1909 
Q 1175 2209 1959 2209 
L 2766 2209 
L 2766 2266 
Q 2766 2663 2505 2880 
Q 2244 3097 1772 3097 
Q 1472 3097 1187 3025 
Q 903 2953 641 2809 
L 641 3341 
Q 956 3463 1253 3523 
Q 1550 3584 1831 3584 
Q 2591 3584 2966 3190 
Q 3341 2797 3341 1997 
z
" transform="scale(0.015625)"/>
       <path id="DejaVuSans-67" d="M 2906 1791 
Q 2906 2416 2648 2759 
Q 2391 3103 1925 3103 
Q 1463 3103 1205 2759 
Q 947 2416 947 1791 
Q 947 1169 1205 825 
Q 1463 481 1925 481 
Q 2391 481 2648 825 
Q 2906 1169 2906 1791 
z
M 3481 434 
Q 3481 -459 3084 -895 
Q 2688 -1331 1869 -1331 
Q 1566 -1331 1297 -1286 
Q 1028 -1241 775 -1147 
L 775 -588 
Q 1028 -725 1275 -790 
Q 1522 -856 1778 -856 
Q 2344 -856 2625 -561 
Q 2906 -266 2906 331 
L 2906 616 
Q 2728 306 2450 153 
Q 2172 0 1784 0 
Q 1141 0 747 490 
Q 353 981 353 1791 
Q 353 2603 747 3093 
Q 1141 3584 1784 3584 
Q 2172 3584 2450 3431 
Q 2728 3278 2906 2969 
L 2906 3500 
L 3481 3500 
L 3481 434 
z
" transform="scale(0.015625)"/>
      </defs>
      <use xlink:href="#DejaVuSans-43"/>
      <use xlink:href="#DejaVuSans-6f" transform="translate(69.824219 0)"/>
      <use xlink:href="#DejaVuSans-6e" transform="translate(131.005859 0)"/>
      <use xlink:href="#DejaVuSans-6e" transform="translate(194.384766 0)"/>
      <use xlink:href="#DejaVuSans-65" transform="translate(257.763672 0)"/>
      <use xlink:href="#DejaVuSans-63" transform="translate(319.287109 0)"/>
      <use xlink:href="#DejaVuSans-74" transform="translate(374.267578 0)"/>
      <use xlink:href="#DejaVuSans-69" transform="translate(413.476562 0)"/>
      <use xlink:href="#DejaVuSans-76" transform="translate(441.259766 0)"/>
      <use xlink:href="#DejaVuSans-69" transform="translate(500.439453 0)"/>
      <use xlink:href="#DejaVuSans-74" transform="translate(528.222656 0)"/>
      <use xlink:href="#DejaVuSans-79" transform="translate(567.431641 0)"/>
      <use xlink:href="#DejaVuSans-20" transform="translate(626.611328 0)"/>
      <use xlink:href="#DejaVuSans-63" transform="translate(658.398438 0)"/>
      <use xlink:href="#DejaVuSans-61" transform="translate(713.378906 0)"/>
      <use xlink:href="#DejaVuSans-74" transform="translate(774.658203 0)"/>
      <use xlink:href="#DejaVuSans-65" transform="translate(813.867188 0)"/>
      <use xlink:href="#DejaVuSans-67" transform="translate(875.390625 0)"/>
      <use xlink:href="#DejaVuSans-6f" transform="translate(938.867188 0)"/>
      <use xlink:href="#DejaVuSans-72" transform="translate(1000.048828 0)"/>
      <use xlink:href="#DejaVuSans-79" transform="translate(1041.162109 0)"/>
     </g>
    </g>
   </g>
   <g id="matplotlib.axis_2">
    <g id="ytick_1">
     <g id="line2d_5">
      <defs>
       <path id="m5962a7033a" d="M 0 0 
L -3.5 0 
" style="stroke: #000000; stroke-width: 0.8"/>
      </defs>
      <g>
       <use xlink:href="#m5962a7033a" x="90" y="295.634072" style="stroke: #000000; stroke-width: 0.8"/>
      </g>
     </g>
     <g id="text_6">
      <!-- −10 -->
      <g transform="translate(61.895313 299.433291) scale(0.1 -0.1)">
       <defs>
        <path id="DejaVuSans-2212" d="M 678 2272 
L 4684 2272 
L 4684 1741 
L 678 1741 
L 678 2272 
z
" transform="scale(0.015625)"/>
        <path id="DejaVuSans-31" d="M 794 531 
L 1825 531 
L 1825 4091 
L 703 3866 
L 703 4441 
L 1819 4666 
L 2450 4666 
L 2450 531 
L 3481 531 
L 3481 0 
L 794 0 
L 794 531 
z
" transform="scale(0.015625)"/>
        <path id="DejaVuSans-30" d="M 2034 4250 
Q 1547 4250 1301 3770 
Q 1056 3291 1056 2328 
Q 1056 1369 1301 889 
Q 1547 409 2034 409 
Q 2525 409 2770 889 
Q 3016 1369 3016 2328 
Q 3016 3291 2770 3770 
Q 2525 4250 2034 4250 
z
M 2034 4750 
Q 2819 4750 3233 4129 
Q 3647 3509 3647 2328 
Q 3647 1150 3233 529 
Q 2819 -91 2034 -91 
Q 1250 -91 836 529 
Q 422 1150 422 2328 
Q 422 3509 836 4129 
Q 1250 4750 2034 4750 
z
" transform="scale(0.015625)"/>
       </defs>
       <use xlink:href="#DejaVuSans-2212"/>
       <use xlink:href="#DejaVuSans-31" transform="translate(83.789062 0)"/>
       <use xlink:href="#DejaVuSans-30" transform="translate(147.412109 0)"/>
      </g>
     </g>
    </g>
    <g id="ytick_2">
     <g id="line2d_6">
      <g>
       <use xlink:href="#m5962a7033a" x="90" y="263.541819" style="stroke: #000000; stroke-width: 0.8"/>
      </g>
     </g>
     <g id="text_7">
      <!-- 0 -->
      <g transform="translate(76.6375 267.341037) scale(0.1 -0.1)">
       <use xlink:href="#DejaVuSans-30"/>
      </g>
     </g>
    </g>
    <g id="ytick_3">
     <g id="line2d_7">
      <g>
       <use xlink:href="#m5962a7033a" x="90" y="231.449566" style="stroke: #000000; stroke-width: 0.8"/>
      </g>
     </g>
     <g id="text_8">
      <!-- 10 -->
      <g transform="translate(70.275 235.248784) scale(0.1 -0.1)">
       <use xlink:href="#DejaVuSans-31"/>
       <use xlink:href="#DejaVuSans-30" transform="translate(63.623047 0)"/>
      </g>
     </g>
    </g>
    <g id="ytick_4">
     <g id="line2d_8">
      <g>
       <use xlink:href="#m5962a7033a" x="90" y="199.357312" style="stroke: #000000; stroke-width: 0.8"/>
      </g>
     </g>
     <g id="text_9">
      <!-- 20 -->
      <g transform="translate(70.275 203.156531) scale(0.1 -0.1)">
       <defs>
        <path id="DejaVuSans-32" d="M 1228 531 
L 3431 531 
L 3431 0 
L 469 0 
L 469 531 
Q 828 903 1448 1529 
Q 2069 2156 2228 2338 
Q 2531 2678 2651 2914 
Q 2772 3150 2772 3378 
Q 2772 3750 2511 3984 
Q 2250 4219 1831 4219 
Q 1534 4219 1204 4116 
Q 875 4013 500 3803 
L 500 4441 
Q 881 4594 1212 4672 
Q 1544 4750 1819 4750 
Q 2544 4750 2975 4387 
Q 3406 4025 3406 3419 
Q 3406 3131 3298 2873 
Q 3191 2616 2906 2266 
Q 2828 2175 2409 1742 
Q 1991 1309 1228 531 
z
" transform="scale(0.015625)"/>
       </defs>
       <use xlink:href="#DejaVuSans-32"/>
       <use xlink:href="#DejaVuSans-30" transform="translate(63.623047 0)"/>
      </g>
     </g>
    </g>
    <g id="ytick_5">
     <g id="line2d_9">
      <g>
       <use xlink:href="#m5962a7033a" x="90" y="167.265059" style="stroke: #000000; stroke-width: 0.8"/>
      </g>
     </g>
     <g id="text_10">
      <!-- 30 -->
      <g transform="translate(70.275 171.064278) scale(0.1 -0.1)">
       <defs>
        <path id="DejaVuSans-33" d="M 2597 2516 
Q 3050 2419 3304 2112 
Q 3559 1806 3559 1356 
Q 3559 666 3084 287 
Q 2609 -91 1734 -91 
Q 1441 -91 1130 -33 
Q 819 25 488 141 
L 488 750 
Q 750 597 1062 519 
Q 1375 441 1716 441 
Q 2309 441 2620 675 
Q 2931 909 2931 1356 
Q 2931 1769 2642 2001 
Q 2353 2234 1838 2234 
L 1294 2234 
L 1294 2753 
L 1863 2753 
Q 2328 2753 2575 2939 
Q 2822 3125 2822 3475 
Q 2822 3834 2567 4026 
Q 2313 4219 1838 4219 
Q 1578 4219 1281 4162 
Q 984 4106 628 3988 
L 628 4550 
Q 988 4650 1302 4700 
Q 1616 4750 1894 4750 
Q 2613 4750 3031 4423 
Q 3450 4097 3450 3541 
Q 3450 3153 3228 2886 
Q 3006 2619 2597 2516 
z
" transform="scale(0.015625)"/>
       </defs>
       <use xlink:href="#DejaVuSans-33"/>
       <use xlink:href="#DejaVuSans-30" transform="translate(63.623047 0)"/>
      </g>
     </g>
    </g>
    <g id="ytick_6">
     <g id="line2d_10">
      <g>
       <use xlink:href="#m5962a7033a" x="90" y="135.172806" style="stroke: #000000; stroke-width: 0.8"/>
      </g>
     </g>
     <g id="text_11">
      <!-- 40 -->
      <g transform="translate(70.275 138.972025) scale(0.1 -0.1)">
       <defs>
        <path id="DejaVuSans-34" d="M 2419 4116 
L 825 1625 
L 2419 1625 
L 2419 4116 
z
M 2253 4666 
L 3047 4666 
L 3047 1625 
L 3713 1625 
L 3713 1100 
L 3047 1100 
L 3047 0 
L 2419 0 
L 2419 1100 
L 313 1100 
L 313 1709 
L 2253 4666 
z
" transform="scale(0.015625)"/>
       </defs>
       <use xlink:href="#DejaVuSans-34"/>
       <use xlink:href="#DejaVuSans-30" transform="translate(63.623047 0)"/>
      </g>
     </g>
    </g>
    <g id="ytick_7">
     <g id="line2d_11">
      <g>
       <use xlink:href="#m5962a7033a" x="90" y="103.080553" style="stroke: #000000; stroke-width: 0.8"/>
      </g>
     </g>
     <g id="text_12">
      <!-- 50 -->
      <g transform="translate(70.275 106.879771) scale(0.1 -0.1)">
       <defs>
        <path id="DejaVuSans-35" d="M 691 4666 
L 3169 4666 
L 3169 4134 
L 1269 4134 
L 1269 2991 
Q 1406 3038 1543 3061 
Q 1681 3084 1819 3084 
Q 2600 3084 3056 2656 
Q 3513 2228 3513 1497 
Q 3513 744 3044 326 
Q 2575 -91 1722 -91 
Q 1428 -91 1123 -41 
Q 819 9 494 109 
L 494 744 
Q 775 591 1075 516 
Q 1375 441 1709 441 
Q 2250 441 2565 725 
Q 2881 1009 2881 1497 
Q 2881 1984 2565 2268 
Q 2250 2553 1709 2553 
Q 1456 2553 1204 2497 
Q 953 2441 691 2322 
L 691 4666 
z
" transform="scale(0.015625)"/>
       </defs>
       <use xlink:href="#DejaVuSans-35"/>
       <use xlink:href="#DejaVuSans-30" transform="translate(63.623047 0)"/>
      </g>
     </g>
    </g>
    <g id="ytick_8">
     <g id="line2d_12">
      <g>
       <use xlink:href="#m5962a7033a" x="90" y="70.988299" style="stroke: #000000; stroke-width: 0.8"/>
      </g>
     </g>
     <g id="text_13">
      <!-- 60 -->
      <g transform="translate(70.275 74.787518) scale(0.1 -0.1)">
       <defs>
        <path id="DejaVuSans-36" d="M 2113 2584 
Q 1688 2584 1439 2293 
Q 1191 2003 1191 1497 
Q 1191 994 1439 701 
Q 1688 409 2113 409 
Q 2538 409 2786 701 
Q 3034 994 3034 1497 
Q 3034 2003 2786 2293 
Q 2538 2584 2113 2584 
z
M 3366 4563 
L 3366 3988 
Q 3128 4100 2886 4159 
Q 2644 4219 2406 4219 
Q 1781 4219 1451 3797 
Q 1122 3375 1075 2522 
Q 1259 2794 1537 2939 
Q 1816 3084 2150 3084 
Q 2853 3084 3261 2657 
Q 3669 2231 3669 1497 
Q 3669 778 3244 343 
Q 2819 -91 2113 -91 
Q 1303 -91 875 529 
Q 447 1150 447 2328 
Q 447 3434 972 4092 
Q 1497 4750 2381 4750 
Q 2619 4750 2861 4703 
Q 3103 4656 3366 4563 
z
" transform="scale(0.015625)"/>
       </defs>
       <use xlink:href="#DejaVuSans-36"/>
       <use xlink:href="#DejaVuSans-30" transform="translate(63.623047 0)"/>
      </g>
     </g>
    </g>
    <g id="text_14">
     <!-- cont_variable -->
     <g transform="translate(55.5375 215.409375) rotate(-90) scale(0.1 -0.1)">
      <defs>
       <path id="DejaVuSans-5f" d="M 3263 -1063 
L 3263 -1509 
L -63 -1509 
L -63 -1063 
L 3263 -1063 
z
" transform="scale(0.015625)"/>
       <path id="DejaVuSans-62" d="M 3116 1747 
Q 3116 2381 2855 2742 
Q 2594 3103 2138 3103 
Q 1681 3103 1420 2742 
Q 1159 2381 1159 1747 
Q 1159 1113 1420 752 
Q 1681 391 2138 391 
Q 2594 391 2855 752 
Q 3116 1113 3116 1747 
z
M 1159 2969 
Q 1341 3281 1617 3432 
Q 1894 3584 2278 3584 
Q 2916 3584 3314 3078 
Q 3713 2572 3713 1747 
Q 3713 922 3314 415 
Q 2916 -91 2278 -91 
Q 1894 -91 1617 61 
Q 1341 213 1159 525 
L 1159 0 
L 581 0 
L 581 4863 
L 1159 4863 
L 1159 2969 
z
" transform="scale(0.015625)"/>
       <path id="DejaVuSans-6c" d="M 603 4863 
L 1178 4863 
L 1178 0 
L 603 0 
L 603 4863 
z
" transform="scale(0.015625)"/>
      </defs>
      <use xlink:href="#DejaVuSans-63"/>
      <use xlink:href="#DejaVuSans-6f" transform="translate(54.980469 0)"/>
      <use xlink:href="#DejaVuSans-6e" transform="translate(116.162109 0)"/>
      <use xlink:href="#DejaVuSans-74" transform="translate(179.541016 0)"/>
      <use xlink:href="#DejaVuSans-5f" transform="translate(218.75 0)"/>
      <use xlink:href="#DejaVuSans-76" transform="translate(268.75 0)"/>
      <use xlink:href="#DejaVuSans-61" transform="translate(327.929688 0)"/>
      <use xlink:href="#DejaVuSans-72" transform="translate(389.208984 0)"/>
      <use xlink:href="#DejaVuSans-69" transform="translate(430.322266 0)"/>
      <use xlink:href="#DejaVuSans-61" transform="translate(458.105469 0)"/>
      <use xlink:href="#DejaVuSans-62" transform="translate(519.384766 0)"/>
      <use xlink:href="#DejaVuSans-6c" transform="translate(582.861328 0)"/>
      <use xlink:href="#DejaVuSans-65" transform="translate(610.644531 0)"/>
     </g>
    </g>
   </g>
   <g id="patch_3">
    <path d="M 90 320.4 
L 90 43.2 
" style="fill: none; stroke: #000000; stroke-width: 0.8; stroke-linejoin: miter; stroke-linecap: square"/>
   </g>
   <g id="patch_4">
    <path d="M 648 320.4 
L 648 43.2 
" style="fill: none; stroke: #000000; stroke-width: 0.8; stroke-linejoin: miter; stroke-linecap: square"/>
   </g>
   <g id="patch_5">
    <path d="M 90 320.4 
L 648 320.4 
" style="fill: none; stroke: #000000; stroke-width: 0.8; stroke-linejoin: miter; stroke-linecap: square"/>
   </g>
   <g id="patch_6">
    <path d="M 90 43.2 
L 648 43.2 
" style="fill: none; stroke: #000000; stroke-width: 0.8; stroke-linejoin: miter; stroke-linecap: square"/>
   </g>
   <g id="PathCollection_1">
    <defs>
     <path id="mbeab8fcbf5" d="M 0 2.5 
C 0.663008 2.5 1.29895 2.236584 1.767767 1.767767 
C 2.236584 1.29895 2.5 0.663008 2.5 0 
C 2.5 -0.663008 2.236584 -1.29895 1.767767 -1.767767 
C 1.29895 -2.236584 0.663008 -2.5 0 -2.5 
C -0.663008 -2.5 -1.29895 -2.236584 -1.767767 -1.767767 
C -2.236584 -1.29895 -2.5 -0.663008 -2.5 0 
C -2.5 0.663008 -2.236584 1.29895 -1.767767 1.767767 
C -1.29895 2.236584 -0.663008 2.5 0 2.5 
z
"/>
    </defs>
    <g clip-path="url(#pc73b1010a0)">
     <use xlink:href="#mbeab8fcbf5" x="153.749594" y="212.434729" style="fill-opacity: 0.3"/>
     <use xlink:href="#mbeab8fcbf5" x="145.833227" y="215.549118" style="fill-opacity: 0.3"/>
     <use xlink:href="#mbeab8fcbf5" x="154.47533" y="182.798274" style="fill-opacity: 0.3"/>
     <use xlink:href="#mbeab8fcbf5" x="173.055637" y="202.735064" style="fill-opacity: 0.3"/>
     <use xlink:href="#mbeab8fcbf5" x="158.191847" y="176.714527" style="fill-opacity: 0.3"/>
     <use xlink:href="#mbeab8fcbf5" x="172.749384" y="140.670616" style="fill-opacity: 0.3"/>
     <use xlink:href="#mbeab8fcbf5" x="156.658055" y="158.930508" style="fill-opacity: 0.3"/>
     <use xlink:href="#mbeab8fcbf5" x="171.831511" y="229.166253" style="fill-opacity: 0.3"/>
     <use xlink:href="#mbeab8fcbf5" x="147.702956" y="114.89322" style="fill-opacity: 0.3"/>
     <use xlink:href="#mbeab8fcbf5" x="166.765064" y="101.624376" style="fill-opacity: 0.3"/>
     <use xlink:href="#mbeab8fcbf5" x="164.279554" y="132.861352" style="fill-opacity: 0.3"/>
     <use xlink:href="#mbeab8fcbf5" x="173.030911" y="162.996042" style="fill-opacity: 0.3"/>
     <use xlink:href="#mbeab8fcbf5" x="168.999492" y="133.746755" style="fill-opacity: 0.3"/>
     <use xlink:href="#mbeab8fcbf5" x="172.280981" y="138.793422" style="fill-opacity: 0.3"/>
     <use xlink:href="#mbeab8fcbf5" x="161.38131" y="137.67001" style="fill-opacity: 0.3"/>
     <use xlink:href="#mbeab8fcbf5" x="158.489725" y="172.832388" style="fill-opacity: 0.3"/>
     <use xlink:href="#mbeab8fcbf5" x="149.793517" y="167.256478" style="fill-opacity: 0.3"/>
     <use xlink:href="#mbeab8fcbf5" x="150.34006" y="181.938796" style="fill-opacity: 0.3"/>
     <use xlink:href="#mbeab8fcbf5" x="148.345199" y="152.660709" style="fill-opacity: 0.3"/>
     <use xlink:href="#mbeab8fcbf5" x="155.30056" y="154.255245" style="fill-opacity: 0.3"/>
     <use xlink:href="#mbeab8fcbf5" x="156.601872" y="152.774945" style="fill-opacity: 0.3"/>
     <use xlink:href="#mbeab8fcbf5" x="153.812566" y="245.281259" style="fill-opacity: 0.3"/>
     <use xlink:href="#mbeab8fcbf5" x="157.750159" y="204.021023" style="fill-opacity: 0.3"/>
     <use xlink:href="#mbeab8fcbf5" x="158.334981" y="243.135248" style="fill-opacity: 0.3"/>
     <use xlink:href="#mbeab8fcbf5" x="167.750682" y="228.232481" style="fill-opacity: 0.3"/>
     <use xlink:href="#mbeab8fcbf5" x="166.36236" y="227.494956" style="fill-opacity: 0.3"/>
     <use xlink:href="#mbeab8fcbf5" x="161.226712" y="227.599814" style="fill-opacity: 0.3"/>
     <use xlink:href="#mbeab8fcbf5" x="153.86233" y="224.736152" style="fill-opacity: 0.3"/>
     <use xlink:href="#mbeab8fcbf5" x="153.594984" y="225.057004" style="fill-opacity: 0.3"/>
     <use xlink:href="#mbeab8fcbf5" x="146.742375" y="205.152162" style="fill-opacity: 0.3"/>
    </g>
   </g>
   <g id="PathCollection_2">
    <g clip-path="url(#pc73b1010a0)">
     <use xlink:href="#mbeab8fcbf5" x="302.9526" y="221.454838" style="fill-opacity: 0.3"/>
     <use xlink:href="#mbeab8fcbf5" x="308.980935" y="168.490592" style="fill-opacity: 0.3"/>
     <use xlink:href="#mbeab8fcbf5" x="298.185265" y="135.118939" style="fill-opacity: 0.3"/>
     <use xlink:href="#mbeab8fcbf5" x="304.164133" y="213.58515" style="fill-opacity: 0.3"/>
     <use xlink:href="#mbeab8fcbf5" x="306.538533" y="184.040514" style="fill-opacity: 0.3"/>
     <use xlink:href="#mbeab8fcbf5" x="308.740791" y="172.918199" style="fill-opacity: 0.3"/>
     <use xlink:href="#mbeab8fcbf5" x="307.641026" y="162.081727" style="fill-opacity: 0.3"/>
     <use xlink:href="#mbeab8fcbf5" x="300.824149" y="172.342503" style="fill-opacity: 0.3"/>
     <use xlink:href="#mbeab8fcbf5" x="285.687149" y="184.307297" style="fill-opacity: 0.3"/>
     <use xlink:href="#mbeab8fcbf5" x="297.116336" y="239.502417" style="fill-opacity: 0.3"/>
     <use xlink:href="#mbeab8fcbf5" x="293.637569" y="181.43058" style="fill-opacity: 0.3"/>
     <use xlink:href="#mbeab8fcbf5" x="301.161847" y="175.412204" style="fill-opacity: 0.3"/>
     <use xlink:href="#mbeab8fcbf5" x="292.134196" y="184.754875" style="fill-opacity: 0.3"/>
     <use xlink:href="#mbeab8fcbf5" x="298.628423" y="204.112736" style="fill-opacity: 0.3"/>
     <use xlink:href="#mbeab8fcbf5" x="299.88645" y="171.652654" style="fill-opacity: 0.3"/>
     <use xlink:href="#mbeab8fcbf5" x="305.141499" y="170.74592" style="fill-opacity: 0.3"/>
     <use xlink:href="#mbeab8fcbf5" x="288.292241" y="167.633013" style="fill-opacity: 0.3"/>
     <use xlink:href="#mbeab8fcbf5" x="290.775391" y="184.228042" style="fill-opacity: 0.3"/>
     <use xlink:href="#mbeab8fcbf5" x="293.461532" y="213.304493" style="fill-opacity: 0.3"/>
     <use xlink:href="#mbeab8fcbf5" x="305.41773" y="213.10966" style="fill-opacity: 0.3"/>
     <use xlink:href="#mbeab8fcbf5" x="302.837723" y="223.110031" style="fill-opacity: 0.3"/>
     <use xlink:href="#mbeab8fcbf5" x="291.633661" y="211.808651" style="fill-opacity: 0.3"/>
     <use xlink:href="#mbeab8fcbf5" x="309.21143" y="210.375209" style="fill-opacity: 0.3"/>
     <use xlink:href="#mbeab8fcbf5" x="311.526692" y="148.873566" style="fill-opacity: 0.3"/>
     <use xlink:href="#mbeab8fcbf5" x="292.600444" y="156.027347" style="fill-opacity: 0.3"/>
     <use xlink:href="#mbeab8fcbf5" x="293.303076" y="148.02282" style="fill-opacity: 0.3"/>
     <use xlink:href="#mbeab8fcbf5" x="298.793247" y="135.510448" style="fill-opacity: 0.3"/>
     <use xlink:href="#mbeab8fcbf5" x="308.628766" y="129.294028" style="fill-opacity: 0.3"/>
     <use xlink:href="#mbeab8fcbf5" x="288.186266" y="142.396451" style="fill-opacity: 0.3"/>
     <use xlink:href="#mbeab8fcbf5" x="291.379003" y="156.890937" style="fill-opacity: 0.3"/>
     <use xlink:href="#mbeab8fcbf5" x="287.978293" y="142.909125" style="fill-opacity: 0.3"/>
     <use xlink:href="#mbeab8fcbf5" x="306.070121" y="142.698889" style="fill-opacity: 0.3"/>
     <use xlink:href="#mbeab8fcbf5" x="291.94101" y="128.984608" style="fill-opacity: 0.3"/>
     <use xlink:href="#mbeab8fcbf5" x="310.335084" y="134.979803" style="fill-opacity: 0.3"/>
     <use xlink:href="#mbeab8fcbf5" x="312.793327" y="210.878682" style="fill-opacity: 0.3"/>
     <use xlink:href="#mbeab8fcbf5" x="304.214417" y="106.373369" style="fill-opacity: 0.3"/>
     <use xlink:href="#mbeab8fcbf5" x="312.481089" y="167.629418" style="fill-opacity: 0.3"/>
     <use xlink:href="#mbeab8fcbf5" x="303.399019" y="175.903783" style="fill-opacity: 0.3"/>
     <use xlink:href="#mbeab8fcbf5" x="286.71345" y="181.949807" style="fill-opacity: 0.3"/>
     <use xlink:href="#mbeab8fcbf5" x="304.653613" y="163.396842" style="fill-opacity: 0.3"/>
     <use xlink:href="#mbeab8fcbf5" x="294.126958" y="161.770031" style="fill-opacity: 0.3"/>
     <use xlink:href="#mbeab8fcbf5" x="309.906153" y="119.576215" style="fill-opacity: 0.3"/>
     <use xlink:href="#mbeab8fcbf5" x="296.14232" y="161.051832" style="fill-opacity: 0.3"/>
     <use xlink:href="#mbeab8fcbf5" x="298.724381" y="146.804717" style="fill-opacity: 0.3"/>
     <use xlink:href="#mbeab8fcbf5" x="305.846675" y="156.584517" style="fill-opacity: 0.3"/>
     <use xlink:href="#mbeab8fcbf5" x="309.046272" y="148.679431" style="fill-opacity: 0.3"/>
     <use xlink:href="#mbeab8fcbf5" x="309.418939" y="149.37382" style="fill-opacity: 0.3"/>
     <use xlink:href="#mbeab8fcbf5" x="298.268372" y="147.815459" style="fill-opacity: 0.3"/>
     <use xlink:href="#mbeab8fcbf5" x="300.475057" y="195.79081" style="fill-opacity: 0.3"/>
     <use xlink:href="#mbeab8fcbf5" x="288.688041" y="187.807204" style="fill-opacity: 0.3"/>
     <use xlink:href="#mbeab8fcbf5" x="294.349654" y="125.494809" style="fill-opacity: 0.3"/>
     <use xlink:href="#mbeab8fcbf5" x="289.884957" y="140.493766" style="fill-opacity: 0.3"/>
     <use xlink:href="#mbeab8fcbf5" x="300.343426" y="168.880012" style="fill-opacity: 0.3"/>
     <use xlink:href="#mbeab8fcbf5" x="288.065198" y="138.86595" style="fill-opacity: 0.3"/>
     <use xlink:href="#mbeab8fcbf5" x="290.18742" y="124.008617" style="fill-opacity: 0.3"/>
     <use xlink:href="#mbeab8fcbf5" x="301.072575" y="239.075956" style="fill-opacity: 0.3"/>
     <use xlink:href="#mbeab8fcbf5" x="304.99988" y="136.482106" style="fill-opacity: 0.3"/>
     <use xlink:href="#mbeab8fcbf5" x="298.62694" y="144.71546" style="fill-opacity: 0.3"/>
     <use xlink:href="#mbeab8fcbf5" x="309.853357" y="143.976289" style="fill-opacity: 0.3"/>
     <use xlink:href="#mbeab8fcbf5" x="297.349702" y="146.167227" style="fill-opacity: 0.3"/>
     <use xlink:href="#mbeab8fcbf5" x="305.957311" y="133.025417" style="fill-opacity: 0.3"/>
     <use xlink:href="#mbeab8fcbf5" x="294.073258" y="171.508146" style="fill-opacity: 0.3"/>
     <use xlink:href="#mbeab8fcbf5" x="289.795483" y="170.394802" style="fill-opacity: 0.3"/>
     <use xlink:href="#mbeab8fcbf5" x="286.607387" y="172.423895" style="fill-opacity: 0.3"/>
     <use xlink:href="#mbeab8fcbf5" x="289.029862" y="152.113546" style="fill-opacity: 0.3"/>
     <use xlink:href="#mbeab8fcbf5" x="307.48407" y="166.284015" style="fill-opacity: 0.3"/>
     <use xlink:href="#mbeab8fcbf5" x="299.979084" y="179.951534" style="fill-opacity: 0.3"/>
     <use xlink:href="#mbeab8fcbf5" x="285.589793" y="188.95706" style="fill-opacity: 0.3"/>
     <use xlink:href="#mbeab8fcbf5" x="292.689926" y="134.206723" style="fill-opacity: 0.3"/>
     <use xlink:href="#mbeab8fcbf5" x="306.419693" y="191.170822" style="fill-opacity: 0.3"/>
     <use xlink:href="#mbeab8fcbf5" x="296.815445" y="181.764859" style="fill-opacity: 0.3"/>
     <use xlink:href="#mbeab8fcbf5" x="293.912693" y="164.210766" style="fill-opacity: 0.3"/>
     <use xlink:href="#mbeab8fcbf5" x="293.205528" y="212.390066" style="fill-opacity: 0.3"/>
     <use xlink:href="#mbeab8fcbf5" x="289.448147" y="212.852134" style="fill-opacity: 0.3"/>
     <use xlink:href="#mbeab8fcbf5" x="293.95952" y="206.308979" style="fill-opacity: 0.3"/>
     <use xlink:href="#mbeab8fcbf5" x="303.622087" y="225.64865" style="fill-opacity: 0.3"/>
    </g>
   </g>
   <g id="PathCollection_3">
    <g clip-path="url(#pc73b1010a0)">
     <use xlink:href="#mbeab8fcbf5" x="431.488083" y="222.963571" style="fill-opacity: 0.3"/>
     <use xlink:href="#mbeab8fcbf5" x="442.12494" y="196.428551" style="fill-opacity: 0.3"/>
     <use xlink:href="#mbeab8fcbf5" x="445.474239" y="187.027485" style="fill-opacity: 0.3"/>
     <use xlink:href="#mbeab8fcbf5" x="448.147382" y="185.893309" style="fill-opacity: 0.3"/>
     <use xlink:href="#mbeab8fcbf5" x="451.923901" y="153.925048" style="fill-opacity: 0.3"/>
     <use xlink:href="#mbeab8fcbf5" x="436.605732" y="200.618073" style="fill-opacity: 0.3"/>
     <use xlink:href="#mbeab8fcbf5" x="448.235637" y="230.840252" style="fill-opacity: 0.3"/>
     <use xlink:href="#mbeab8fcbf5" x="444.045285" y="100.079946" style="fill-opacity: 0.3"/>
     <use xlink:href="#mbeab8fcbf5" x="428.086289" y="100.308215" style="fill-opacity: 0.3"/>
     <use xlink:href="#mbeab8fcbf5" x="445.391853" y="103.120045" style="fill-opacity: 0.3"/>
     <use xlink:href="#mbeab8fcbf5" x="451.973414" y="100.058181" style="fill-opacity: 0.3"/>
     <use xlink:href="#mbeab8fcbf5" x="435.408283" y="100.16001" style="fill-opacity: 0.3"/>
     <use xlink:href="#mbeab8fcbf5" x="439.007457" y="116.793261" style="fill-opacity: 0.3"/>
     <use xlink:href="#mbeab8fcbf5" x="450.5729" y="100.416876" style="fill-opacity: 0.3"/>
     <use xlink:href="#mbeab8fcbf5" x="440.350947" y="218.794326" style="fill-opacity: 0.3"/>
     <use xlink:href="#mbeab8fcbf5" x="426.488957" y="209.14241" style="fill-opacity: 0.3"/>
     <use xlink:href="#mbeab8fcbf5" x="429.394929" y="188.379839" style="fill-opacity: 0.3"/>
     <use xlink:href="#mbeab8fcbf5" x="440.726136" y="162.979781" style="fill-opacity: 0.3"/>
     <use xlink:href="#mbeab8fcbf5" x="430.821032" y="150.215793" style="fill-opacity: 0.3"/>
     <use xlink:href="#mbeab8fcbf5" x="448.962443" y="111.364205" style="fill-opacity: 0.3"/>
     <use xlink:href="#mbeab8fcbf5" x="443.258786" y="137.572649" style="fill-opacity: 0.3"/>
     <use xlink:href="#mbeab8fcbf5" x="448.041477" y="127.566942" style="fill-opacity: 0.3"/>
     <use xlink:href="#mbeab8fcbf5" x="437.258724" y="263.541819" style="fill-opacity: 0.3"/>
     <use xlink:href="#mbeab8fcbf5" x="433.589327" y="173.616893" style="fill-opacity: 0.3"/>
     <use xlink:href="#mbeab8fcbf5" x="434.37543" y="150.530246" style="fill-opacity: 0.3"/>
     <use xlink:href="#mbeab8fcbf5" x="438.348545" y="145.483707" style="fill-opacity: 0.3"/>
     <use xlink:href="#mbeab8fcbf5" x="429.506945" y="146.113777" style="fill-opacity: 0.3"/>
     <use xlink:href="#mbeab8fcbf5" x="447.619306" y="137.942255" style="fill-opacity: 0.3"/>
     <use xlink:href="#mbeab8fcbf5" x="447.084865" y="172.258675" style="fill-opacity: 0.3"/>
     <use xlink:href="#mbeab8fcbf5" x="434.24641" y="111.842733" style="fill-opacity: 0.3"/>
     <use xlink:href="#mbeab8fcbf5" x="427.999445" y="177.354575" style="fill-opacity: 0.3"/>
     <use xlink:href="#mbeab8fcbf5" x="444.659468" y="143.271857" style="fill-opacity: 0.3"/>
     <use xlink:href="#mbeab8fcbf5" x="434.085868" y="181.622097" style="fill-opacity: 0.3"/>
     <use xlink:href="#mbeab8fcbf5" x="450.000466" y="181.109962" style="fill-opacity: 0.3"/>
     <use xlink:href="#mbeab8fcbf5" x="428.905491" y="205.010433" style="fill-opacity: 0.3"/>
     <use xlink:href="#mbeab8fcbf5" x="436.037964" y="218.851987" style="fill-opacity: 0.3"/>
     <use xlink:href="#mbeab8fcbf5" x="429.373509" y="202.310528" style="fill-opacity: 0.3"/>
     <use xlink:href="#mbeab8fcbf5" x="436.986208" y="225.584725" style="fill-opacity: 0.3"/>
     <use xlink:href="#mbeab8fcbf5" x="452.602311" y="235.041356" style="fill-opacity: 0.3"/>
     <use xlink:href="#mbeab8fcbf5" x="430.390269" y="232.360989" style="fill-opacity: 0.3"/>
     <use xlink:href="#mbeab8fcbf5" x="431.881242" y="227.769341" style="fill-opacity: 0.3"/>
    </g>
   </g>
   <g id="PathCollection_4">
    <g clip-path="url(#pc73b1010a0)">
     <use xlink:href="#mbeab8fcbf5" x="581.052897" y="215.627632" style="fill-opacity: 0.3"/>
     <use xlink:href="#mbeab8fcbf5" x="571.52526" y="205.815288" style="fill-opacity: 0.3"/>
     <use xlink:href="#mbeab8fcbf5" x="578.728657" y="176.378591" style="fill-opacity: 0.3"/>
     <use xlink:href="#mbeab8fcbf5" x="570.73914" y="208.863532" style="fill-opacity: 0.3"/>
     <use xlink:href="#mbeab8fcbf5" x="581.834989" y="182.413042" style="fill-opacity: 0.3"/>
     <use xlink:href="#mbeab8fcbf5" x="590.386497" y="191.016228" style="fill-opacity: 0.3"/>
     <use xlink:href="#mbeab8fcbf5" x="567.583843" y="165.595023" style="fill-opacity: 0.3"/>
     <use xlink:href="#mbeab8fcbf5" x="568.913804" y="182.08375" style="fill-opacity: 0.3"/>
     <use xlink:href="#mbeab8fcbf5" x="574.441199" y="188.395228" style="fill-opacity: 0.3"/>
     <use xlink:href="#mbeab8fcbf5" x="577.836339" y="176.085454" style="fill-opacity: 0.3"/>
     <use xlink:href="#mbeab8fcbf5" x="578.94475" y="186.778904" style="fill-opacity: 0.3"/>
     <use xlink:href="#mbeab8fcbf5" x="566.763931" y="207.321987" style="fill-opacity: 0.3"/>
     <use xlink:href="#mbeab8fcbf5" x="564.469108" y="155.443515" style="fill-opacity: 0.3"/>
     <use xlink:href="#mbeab8fcbf5" x="564.668935" y="163.304779" style="fill-opacity: 0.3"/>
     <use xlink:href="#mbeab8fcbf5" x="566.332721" y="204.370546" style="fill-opacity: 0.3"/>
     <use xlink:href="#mbeab8fcbf5" x="574.491065" y="160.096484" style="fill-opacity: 0.3"/>
     <use xlink:href="#mbeab8fcbf5" x="581.007877" y="158.583013" style="fill-opacity: 0.3"/>
     <use xlink:href="#mbeab8fcbf5" x="588.252434" y="159.341267" style="fill-opacity: 0.3"/>
     <use xlink:href="#mbeab8fcbf5" x="592.019786" y="149.912701" style="fill-opacity: 0.3"/>
     <use xlink:href="#mbeab8fcbf5" x="566.854004" y="135.07393" style="fill-opacity: 0.3"/>
     <use xlink:href="#mbeab8fcbf5" x="570.718296" y="127.772621" style="fill-opacity: 0.3"/>
     <use xlink:href="#mbeab8fcbf5" x="591.121737" y="141.593086" style="fill-opacity: 0.3"/>
     <use xlink:href="#mbeab8fcbf5" x="582.971576" y="139.084787" style="fill-opacity: 0.3"/>
     <use xlink:href="#mbeab8fcbf5" x="591.642063" y="119.464835" style="fill-opacity: 0.3"/>
     <use xlink:href="#mbeab8fcbf5" x="566.616582" y="165.692914" style="fill-opacity: 0.3"/>
     <use xlink:href="#mbeab8fcbf5" x="572.610562" y="166.863116" style="fill-opacity: 0.3"/>
     <use xlink:href="#mbeab8fcbf5" x="591.900671" y="149.93428" style="fill-opacity: 0.3"/>
     <use xlink:href="#mbeab8fcbf5" x="568.752462" y="218.583287" style="fill-opacity: 0.3"/>
     <use xlink:href="#mbeab8fcbf5" x="570.064441" y="99.061505" style="fill-opacity: 0.3"/>
     <use xlink:href="#mbeab8fcbf5" x="568.869789" y="142.123584" style="fill-opacity: 0.3"/>
     <use xlink:href="#mbeab8fcbf5" x="566.186587" y="217.345492" style="fill-opacity: 0.3"/>
     <use xlink:href="#mbeab8fcbf5" x="591.638231" y="226.704933" style="fill-opacity: 0.3"/>
     <use xlink:href="#mbeab8fcbf5" x="581.312213" y="210.71047" style="fill-opacity: 0.3"/>
     <use xlink:href="#mbeab8fcbf5" x="566.985083" y="179.318335" style="fill-opacity: 0.3"/>
     <use xlink:href="#mbeab8fcbf5" x="590.692783" y="176.937186" style="fill-opacity: 0.3"/>
     <use xlink:href="#mbeab8fcbf5" x="585.113176" y="181.489629" style="fill-opacity: 0.3"/>
     <use xlink:href="#mbeab8fcbf5" x="568.189676" y="172.89595" style="fill-opacity: 0.3"/>
     <use xlink:href="#mbeab8fcbf5" x="577.78084" y="178.67477" style="fill-opacity: 0.3"/>
     <use xlink:href="#mbeab8fcbf5" x="591.416337" y="168.39616" style="fill-opacity: 0.3"/>
     <use xlink:href="#mbeab8fcbf5" x="585.122095" y="165.090735" style="fill-opacity: 0.3"/>
     <use xlink:href="#mbeab8fcbf5" x="589.513652" y="161.823458" style="fill-opacity: 0.3"/>
     <use xlink:href="#mbeab8fcbf5" x="584.796968" y="164.770592" style="fill-opacity: 0.3"/>
     <use xlink:href="#mbeab8fcbf5" x="584.804664" y="158.422466" style="fill-opacity: 0.3"/>
     <use xlink:href="#mbeab8fcbf5" x="583.872699" y="168.835368" style="fill-opacity: 0.3"/>
     <use xlink:href="#mbeab8fcbf5" x="575.769465" y="161.094274" style="fill-opacity: 0.3"/>
     <use xlink:href="#mbeab8fcbf5" x="567.870849" y="164.020773" style="fill-opacity: 0.3"/>
     <use xlink:href="#mbeab8fcbf5" x="564.903045" y="161.94563" style="fill-opacity: 0.3"/>
     <use xlink:href="#mbeab8fcbf5" x="568.279916" y="174.358179" style="fill-opacity: 0.3"/>
     <use xlink:href="#mbeab8fcbf5" x="578.380063" y="140.960515" style="fill-opacity: 0.3"/>
     <use xlink:href="#mbeab8fcbf5" x="579.156018" y="140.501638" style="fill-opacity: 0.3"/>
     <use xlink:href="#mbeab8fcbf5" x="579.25698" y="158.454965" style="fill-opacity: 0.3"/>
     <use xlink:href="#mbeab8fcbf5" x="585.374509" y="152.51192" style="fill-opacity: 0.3"/>
     <use xlink:href="#mbeab8fcbf5" x="592.069014" y="159.694102" style="fill-opacity: 0.3"/>
     <use xlink:href="#mbeab8fcbf5" x="571.767311" y="153.389845" style="fill-opacity: 0.3"/>
     <use xlink:href="#mbeab8fcbf5" x="588.392462" y="155.73378" style="fill-opacity: 0.3"/>
     <use xlink:href="#mbeab8fcbf5" x="586.859881" y="150.948282" style="fill-opacity: 0.3"/>
     <use xlink:href="#mbeab8fcbf5" x="582.52001" y="168.736264" style="fill-opacity: 0.3"/>
     <use xlink:href="#mbeab8fcbf5" x="571.074745" y="147.154128" style="fill-opacity: 0.3"/>
     <use xlink:href="#mbeab8fcbf5" x="574.010095" y="167.310232" style="fill-opacity: 0.3"/>
     <use xlink:href="#mbeab8fcbf5" x="584.345018" y="137.100716" style="fill-opacity: 0.3"/>
     <use xlink:href="#mbeab8fcbf5" x="576.088645" y="199.316979" style="fill-opacity: 0.3"/>
     <use xlink:href="#mbeab8fcbf5" x="584.058461" y="195.667409" style="fill-opacity: 0.3"/>
     <use xlink:href="#mbeab8fcbf5" x="592.094218" y="199.258536" style="fill-opacity: 0.3"/>
    </g>
   </g>
  </g>
 </g>
 <defs>
  <clipPath id="pc73b1010a0">
   <rect x="90" y="43.2" width="558" height="277.2"/>
  </clipPath>
 </defs>
</svg>
