<?xml version="1.0" encoding="utf-8" standalone="no"?>
<!DOCTYPE svg PUBLIC "-//W3C//DTD SVG 1.1//EN"
  "http://www.w3.org/Graphics/SVG/1.1/DTD/svg11.dtd">
<svg xmlns:xlink="http://www.w3.org/1999/xlink" width="720pt" height="360pt" viewBox="0 0 720 360" xmlns="http://www.w3.org/2000/svg" version="1.1">
 <metadata>
  <rdf:RDF xmlns:dc="http://purl.org/dc/elements/1.1/" xmlns:cc="http://creativecommons.org/ns#" xmlns:rdf="http://www.w3.org/1999/02/22-rdf-syntax-ns#">
   <cc:Work>
    <dc:type rdf:resource="http://purl.org/dc/dcmitype/StillImage"/>
    <dc:date>2025-10-21T13:23:13.832613</dc:date>
    <dc:format>image/svg+xml</dc:format>
    <dc:creator>
     <cc:Agent>
      <dc:title>Matplotlib v3.10.3, https://matplotlib.org/</dc:title>
     </cc:Agent>
    </dc:creator>
   </cc:Work>
  </rdf:RDF>
 </metadata>
 <defs>
  <style type="text/css">*{stroke-linejoin: round; stroke-linecap: butt}</style>
 </defs>
 <g id="figure_1">
  <g id="patch_1">
   <path d="M 0 360 
L 720 360 
L 720 0 
L 0 0 
z
" style="fill: #ffffff"/>
  </g>
  <g id="axes_1">
   <g id="patch_2">
    <path d="M 90 320.4 
L 648 320.4 
L 648 43.2 
L 90 43.2 
z
" style="fill: #ffffff"/>
   </g>
   <g id="FillBetweenPolyCollection_1">
    <defs>
     <path id="m7b877e927a" d="M 160.279145 -89.768691 
L 159.220855 -89.768691 
L 159.006817 -90.691694 
L 158.719084 -91.614698 
L 158.337224 -92.537701 
L 157.836916 -93.460704 
L 157.189856 -94.383708 
L 156.363979 -95.306711 
L 155.324098 -96.229715 
L 154.033105 -97.152718 
L 152.453841 -98.075721 
L 150.551712 -98.998725 
L 148.298024 -99.921728 
L 145.673954 -100.844732 
L 142.674872 -101.767735 
L 139.314663 -102.690738 
L 135.629501 -103.613742 
L 131.68052 -104.536745 
L 127.554756 -105.459749 
L 123.363877 -106.382752 
L 119.240356 -107.305756 
L 115.331072 -108.228759 
L 111.788619 -109.151762 
L 108.760968 -110.074766 
L 106.380445 -110.997769 
L 104.753146 -111.920773 
L 103.95 -112.843776 
L 104.00053 -113.766779 
L 104.890114 -114.689783 
L 106.561106 -115.612786 
L 108.917721 -116.53579 
L 111.834136 -117.458793 
L 115.16485 -118.381796 
L 118.756141 -119.3048 
L 122.45737 -120.227803 
L 126.130986 -121.150807 
L 129.660354 -122.07381 
L 132.954849 -122.996814 
L 135.952053 -123.919817 
L 138.617236 -124.84282 
L 140.940604 -125.765824 
L 142.932944 -126.688827 
L 144.620398 -127.611831 
L 146.039045 -128.534834 
L 147.229863 -129.457837 
L 148.234481 -130.380841 
L 149.091961 -131.303844 
L 149.836666 -132.226848 
L 150.497155 -133.149851 
L 151.095932 -134.072854 
L 151.649832 -134.995858 
L 152.170812 -135.918861 
L 152.666925 -136.841865 
L 153.14331 -137.764868 
L 153.603054 -138.687872 
L 154.047871 -139.610875 
L 154.478544 -140.533878 
L 154.895163 -141.456882 
L 155.297187 -142.379885 
L 155.68338 -143.302889 
L 156.051699 -144.225892 
L 156.399171 -145.148895 
L 156.721826 -146.071899 
L 157.014714 -146.994902 
L 157.272029 -147.917906 
L 157.487355 -148.840909 
L 157.654025 -149.763913 
L 157.765581 -150.686916 
L 157.816326 -151.609919 
L 157.801909 -152.532923 
L 157.719936 -153.455926 
L 157.570536 -154.37893 
L 157.356832 -155.301933 
L 157.085266 -156.224936 
L 156.765711 -157.14794 
L 156.411325 -158.070943 
L 156.038123 -158.993947 
L 155.664244 -159.91695 
L 155.308974 -160.839953 
L 154.991554 -161.762957 
L 154.729899 -162.68596 
L 154.539331 -163.608964 
L 154.431462 -164.531967 
L 154.413344 -165.454971 
L 154.486983 -166.377974 
L 154.64928 -167.300977 
L 154.892387 -168.223981 
L 155.204455 -169.146984 
L 155.570677 -170.069988 
L 155.974511 -170.992991 
L 156.398947 -171.915994 
L 156.827697 -172.838998 
L 157.246191 -173.762001 
L 157.642317 -174.685005 
L 158.006855 -175.608008 
L 158.333613 -176.531011 
L 158.619306 -177.454015 
L 158.863215 -178.377018 
L 159.066726 -179.300022 
L 159.232787 -180.223025 
L 159.365379 -181.146029 
L 160.134621 -181.146029 
L 160.134621 -181.146029 
L 160.267213 -180.223025 
L 160.433274 -179.300022 
L 160.636785 -178.377018 
L 160.880694 -177.454015 
L 161.166387 -176.531011 
L 161.493145 -175.608008 
L 161.857683 -174.685005 
L 162.253809 -173.762001 
L 162.672303 -172.838998 
L 163.101053 -171.915994 
L 163.525489 -170.992991 
L 163.929323 -170.069988 
L 164.295545 -169.146984 
L 164.607613 -168.223981 
L 164.85072 -167.300977 
L 165.013017 -166.377974 
L 165.086656 -165.454971 
L 165.068538 -164.531967 
L 164.960669 -163.608964 
L 164.770101 -162.68596 
L 164.508446 -161.762957 
L 164.191026 -160.839953 
L 163.835756 -159.91695 
L 163.461877 -158.993947 
L 163.088675 -158.070943 
L 162.734289 -157.14794 
L 162.414734 -156.224936 
L 162.143168 -155.301933 
L 161.929464 -154.37893 
L 161.780064 -153.455926 
L 161.698091 -152.532923 
L 161.683674 -151.609919 
L 161.734419 -150.686916 
L 161.845975 -149.763913 
L 162.012645 -148.840909 
L 162.227971 -147.917906 
L 162.485286 -146.994902 
L 162.778174 -146.071899 
L 163.100829 -145.148895 
L 163.448301 -144.225892 
L 163.81662 -143.302889 
L 164.202813 -142.379885 
L 164.604837 -141.456882 
L 165.021456 -140.533878 
L 165.452129 -139.610875 
L 165.896946 -138.687872 
L 166.35669 -137.764868 
L 166.833075 -136.841865 
L 167.329188 -135.918861 
L 167.850168 -134.995858 
L 168.404068 -134.072854 
L 169.002845 -133.149851 
L 169.663334 -132.226848 
L 170.408039 -131.303844 
L 171.265519 -130.380841 
L 172.270137 -129.457837 
L 173.460955 -128.534834 
L 174.879602 -127.611831 
L 176.567056 -126.688827 
L 178.559396 -125.765824 
L 180.882764 -124.84282 
L 183.547947 -123.919817 
L 186.545151 -122.996814 
L 189.839646 -122.07381 
L 193.369014 -121.150807 
L 197.04263 -120.227803 
L 200.743859 -119.3048 
L 204.33515 -118.381796 
L 207.665864 -117.458793 
L 210.582279 -116.53579 
L 212.938894 -115.612786 
L 214.609886 -114.689783 
L 215.49947 -113.766779 
L 215.55 -112.843776 
L 214.746854 -111.920773 
L 213.119555 -110.997769 
L 210.739032 -110.074766 
L 207.711381 -109.151762 
L 204.168928 -108.228759 
L 200.259644 -107.305756 
L 196.136123 -106.382752 
L 191.945244 -105.459749 
L 187.81948 -104.536745 
L 183.870499 -103.613742 
L 180.185337 -102.690738 
L 176.825128 -101.767735 
L 173.826046 -100.844732 
L 171.201976 -99.921728 
L 168.948288 -98.998725 
L 167.046159 -98.075721 
L 165.466895 -97.152718 
L 164.175902 -96.229715 
L 163.136021 -95.306711 
L 162.310144 -94.383708 
L 161.663084 -93.460704 
L 161.162776 -92.537701 
L 160.780916 -91.614698 
L 160.493183 -90.691694 
L 160.279145 -89.768691 
z
" style="stroke: #3d3d3d; stroke-width: 1.25"/>
    </defs>
    <g clip-path="url(#p2982a445db)">
     <use xlink:href="#m7b877e927a" x="0" y="360" style="fill: #3274a1; stroke: #3d3d3d; stroke-width: 1.25"/>
    </g>
   </g>
   <g id="FillBetweenPolyCollection_2">
    <defs>
     <path id="ma9ec2cfefd" d="M 299.361188 -67.664286 
L 299.138812 -67.664286 
L 299.060099 -69.356464 
L 298.950781 -71.048643 
L 298.814482 -72.740821 
L 298.663119 -74.433 
L 298.515032 -76.125178 
L 298.389215 -77.817357 
L 298.297634 -79.509535 
L 298.239404 -81.201714 
L 298.200033 -82.893892 
L 298.155824 -84.586071 
L 298.07984 -86.278249 
L 297.944264 -87.970427 
L 297.716106 -89.662606 
L 297.347367 -91.354784 
L 296.763973 -93.046963 
L 295.857656 -94.739141 
L 294.482666 -96.43132 
L 292.458097 -98.123498 
L 289.579524 -99.815677 
L 285.648869 -101.507855 
L 280.532668 -103.200034 
L 274.249131 -104.892212 
L 267.062764 -106.584391 
L 259.541939 -108.276569 
L 252.528154 -109.968748 
L 246.990666 -111.660926 
L 243.792871 -113.353105 
L 243.45 -115.045283 
L 245.976097 -116.737461 
L 250.88456 -118.42964 
L 257.338084 -120.121818 
L 264.381251 -121.813997 
L 271.166203 -123.506175 
L 277.103429 -125.198354 
L 281.913241 -126.890532 
L 285.591678 -128.582711 
L 288.323586 -130.274889 
L 290.377802 -131.967068 
L 292.013385 -133.659246 
L 293.416904 -135.351425 
L 294.679778 -137.043603 
L 295.812022 -138.735782 
L 296.777994 -140.42796 
L 297.535387 -142.120138 
L 298.062696 -143.812317 
L 298.369561 -145.504495 
L 298.492929 -147.196674 
L 298.485774 -148.888852 
L 298.40434 -150.581031 
L 298.297353 -152.273209 
L 298.199081 -153.965388 
L 298.127523 -155.657566 
L 298.08793 -157.349745 
L 298.079738 -159.041923 
L 298.103006 -160.734102 
L 298.160661 -162.42628 
L 298.255755 -164.118459 
L 298.386405 -165.810637 
L 298.542632 -167.502816 
L 298.707641 -169.194994 
L 298.862865 -170.887172 
L 298.993715 -172.579351 
L 299.093047 -174.271529 
L 299.161227 -175.963708 
L 299.203676 -177.655886 
L 299.227714 -179.348065 
L 299.240119 -181.040243 
L 299.245964 -182.732422 
L 299.248481 -184.4246 
L 299.249474 -186.116779 
L 299.249832 -187.808957 
L 299.249951 -189.501136 
L 299.249986 -191.193314 
L 299.249995 -192.885493 
L 299.249994 -194.577671 
L 299.249979 -196.26985 
L 299.249926 -197.962028 
L 299.249754 -199.654206 
L 299.249251 -201.346385 
L 299.247896 -203.038563 
L 299.244558 -204.730742 
L 299.23704 -206.42292 
L 299.221576 -208.115099 
L 299.192591 -209.807277 
L 299.143219 -211.499456 
L 299.067094 -213.191634 
L 298.961478 -214.883813 
L 298.830869 -216.575991 
L 298.68929 -218.26817 
L 298.559211 -219.960348 
L 298.466261 -221.652527 
L 298.431128 -223.344705 
L 298.462086 -225.036884 
L 298.551832 -226.729062 
L 298.680282 -228.42124 
L 298.821867 -230.113419 
L 298.953711 -231.805597 
L 299.06117 -233.497776 
L 299.139173 -235.189954 
L 299.360827 -235.189954 
L 299.360827 -235.189954 
L 299.43883 -233.497776 
L 299.546289 -231.805597 
L 299.678133 -230.113419 
L 299.819718 -228.42124 
L 299.948168 -226.729062 
L 300.037914 -225.036884 
L 300.068872 -223.344705 
L 300.033739 -221.652527 
L 299.940789 -219.960348 
L 299.81071 -218.26817 
L 299.669131 -216.575991 
L 299.538522 -214.883813 
L 299.432906 -213.191634 
L 299.356781 -211.499456 
L 299.307409 -209.807277 
L 299.278424 -208.115099 
L 299.26296 -206.42292 
L 299.255442 -204.730742 
L 299.252104 -203.038563 
L 299.250749 -201.346385 
L 299.250246 -199.654206 
L 299.250074 -197.962028 
L 299.250021 -196.26985 
L 299.250006 -194.577671 
L 299.250005 -192.885493 
L 299.250014 -191.193314 
L 299.250049 -189.501136 
L 299.250168 -187.808957 
L 299.250526 -186.116779 
L 299.251519 -184.4246 
L 299.254036 -182.732422 
L 299.259881 -181.040243 
L 299.272286 -179.348065 
L 299.296324 -177.655886 
L 299.338773 -175.963708 
L 299.406953 -174.271529 
L 299.506285 -172.579351 
L 299.637135 -170.887172 
L 299.792359 -169.194994 
L 299.957368 -167.502816 
L 300.113595 -165.810637 
L 300.244245 -164.118459 
L 300.339339 -162.42628 
L 300.396994 -160.734102 
L 300.420262 -159.041923 
L 300.41207 -157.349745 
L 300.372477 -155.657566 
L 300.300919 -153.965388 
L 300.202647 -152.273209 
L 300.09566 -150.581031 
L 300.014226 -148.888852 
L 300.007071 -147.196674 
L 300.130439 -145.504495 
L 300.437304 -143.812317 
L 300.964613 -142.120138 
L 301.722006 -140.42796 
L 302.687978 -138.735782 
L 303.820222 -137.043603 
L 305.083096 -135.351425 
L 306.486615 -133.659246 
L 308.122198 -131.967068 
L 310.176414 -130.274889 
L 312.908322 -128.582711 
L 316.586759 -126.890532 
L 321.396571 -125.198354 
L 327.333797 -123.506175 
L 334.118749 -121.813997 
L 341.161916 -120.121818 
L 347.61544 -118.42964 
L 352.523903 -116.737461 
L 355.05 -115.045283 
L 354.707129 -113.353105 
L 351.509334 -111.660926 
L 345.971846 -109.968748 
L 338.958061 -108.276569 
L 331.437236 -106.584391 
L 324.250869 -104.892212 
L 317.967332 -103.200034 
L 312.851131 -101.507855 
L 308.920476 -99.815677 
L 306.041903 -98.123498 
L 304.017334 -96.43132 
L 302.642344 -94.739141 
L 301.736027 -93.046963 
L 301.152633 -91.354784 
L 300.783894 -89.662606 
L 300.555736 -87.970427 
L 300.42016 -86.278249 
L 300.344176 -84.586071 
L 300.299967 -82.893892 
L 300.260596 -81.201714 
L 300.202366 -79.509535 
L 300.110785 -77.817357 
L 299.984968 -76.125178 
L 299.836881 -74.433 
L 299.685518 -72.740821 
L 299.549219 -71.048643 
L 299.439901 -69.356464 
L 299.361188 -67.664286 
z
" style="stroke: #3d3d3d; stroke-width: 1.25"/>
    </defs>
    <g clip-path="url(#p2982a445db)">
     <use xlink:href="#ma9ec2cfefd" x="0" y="360" style="fill: #e1812c; stroke: #3d3d3d; stroke-width: 1.25"/>
    </g>
   </g>
   <g id="FillBetweenPolyCollection_3">
    <defs>
     <path id="mf671140d85" d="M 438.936429 -52.2 
L 438.563571 -52.2 
L 438.468915 -54.745455 
L 438.344692 -57.290909 
L 438.190377 -59.836364 
L 438.00854 -62.381818 
L 437.803982 -64.927273 
L 437.580894 -67.472727 
L 437.337676 -70.018182 
L 437.059618 -72.563636 
L 436.710354 -75.109091 
L 436.22371 -77.654545 
L 435.498253 -80.2 
L 434.397217 -82.745455 
L 432.756517 -85.290909 
L 430.403007 -87.836364 
L 427.183629 -90.381818 
L 423.003572 -92.927273 
L 417.868031 -95.472727 
L 411.918485 -98.018182 
L 405.452091 -100.563636 
L 398.913367 -103.109091 
L 392.852074 -105.654545 
L 387.849632 -108.2 
L 384.42638 -110.745455 
L 382.95 -113.290909 
L 383.56785 -115.836364 
L 386.181188 -118.381818 
L 390.468191 -120.927273 
L 395.949106 -123.472727 
L 402.07558 -126.018182 
L 408.321175 -128.563636 
L 414.25255 -131.109091 
L 419.56912 -133.654545 
L 424.109554 -136.2 
L 427.832286 -138.745455 
L 430.781814 -141.290909 
L 433.052527 -143.836364 
L 434.758396 -146.381818 
L 436.012319 -148.927273 
L 436.914964 -151.472727 
L 437.550725 -154.018182 
L 437.987841 -156.563636 
L 438.280282 -159.109091 
L 438.469996 -161.654545 
L 438.588929 -164.2 
L 438.660768 -166.745455 
L 438.702472 -169.290909 
L 438.725695 -171.836364 
L 438.738079 -174.381818 
L 438.744398 -176.927273 
L 438.747479 -179.472727 
L 438.748914 -182.018182 
L 438.749553 -184.563636 
L 438.749824 -187.109091 
L 438.749934 -189.654545 
L 438.749976 -192.2 
L 438.749992 -194.745455 
L 438.749997 -197.290909 
L 438.749999 -199.836364 
L 438.75 -202.381818 
L 438.75 -204.927273 
L 438.75 -207.472727 
L 438.75 -210.018182 
L 438.75 -212.563636 
L 438.75 -215.109091 
L 438.749999 -217.654545 
L 438.749997 -220.2 
L 438.749991 -222.745455 
L 438.749976 -225.290909 
L 438.749936 -227.836364 
L 438.749836 -230.381818 
L 438.7496 -232.927273 
L 438.749068 -235.472727 
L 438.747926 -238.018182 
L 438.745593 -240.563636 
L 438.741062 -243.109091 
L 438.732697 -245.654545 
L 438.718021 -248.2 
L 438.693581 -250.745455 
L 438.654982 -253.290909 
L 438.597239 -255.836364 
L 438.515553 -258.381818 
L 438.40652 -260.927273 
L 438.269622 -263.472727 
L 438.108659 -266.018182 
L 437.932628 -268.563636 
L 437.755568 -271.109091 
L 437.595071 -273.654545 
L 437.469558 -276.2 
L 437.394844 -278.745455 
L 437.380874 -281.290909 
L 437.429549 -283.836364 
L 437.534302 -286.381818 
L 437.681551 -288.927273 
L 437.85359 -291.472727 
L 438.032067 -294.018182 
L 438.201109 -296.563636 
L 438.349398 -299.109091 
L 438.470897 -301.654545 
L 438.564373 -304.2 
L 438.935627 -304.2 
L 438.935627 -304.2 
L 439.029103 -301.654545 
L 439.150602 -299.109091 
L 439.298891 -296.563636 
L 439.467933 -294.018182 
L 439.64641 -291.472727 
L 439.818449 -288.927273 
L 439.965698 -286.381818 
L 440.070451 -283.836364 
L 440.119126 -281.290909 
L 440.105156 -278.745455 
L 440.030442 -276.2 
L 439.904929 -273.654545 
L 439.744432 -271.109091 
L 439.567372 -268.563636 
L 439.391341 -266.018182 
L 439.230378 -263.472727 
L 439.09348 -260.927273 
L 438.984447 -258.381818 
L 438.902761 -255.836364 
L 438.845018 -253.290909 
L 438.806419 -250.745455 
L 438.781979 -248.2 
L 438.767303 -245.654545 
L 438.758938 -243.109091 
L 438.754407 -240.563636 
L 438.752074 -238.018182 
L 438.750932 -235.472727 
L 438.7504 -232.927273 
L 438.750164 -230.381818 
L 438.750064 -227.836364 
L 438.750024 -225.290909 
L 438.750009 -222.745455 
L 438.750003 -220.2 
L 438.750001 -217.654545 
L 438.75 -215.109091 
L 438.75 -212.563636 
L 438.75 -210.018182 
L 438.75 -207.472727 
L 438.75 -204.927273 
L 438.75 -202.381818 
L 438.750001 -199.836364 
L 438.750003 -197.290909 
L 438.750008 -194.745455 
L 438.750024 -192.2 
L 438.750066 -189.654545 
L 438.750176 -187.109091 
L 438.750447 -184.563636 
L 438.751086 -182.018182 
L 438.752521 -179.472727 
L 438.755602 -176.927273 
L 438.761921 -174.381818 
L 438.774305 -171.836364 
L 438.797528 -169.290909 
L 438.839232 -166.745455 
L 438.911071 -164.2 
L 439.030004 -161.654545 
L 439.219718 -159.109091 
L 439.512159 -156.563636 
L 439.949275 -154.018182 
L 440.585036 -151.472727 
L 441.487681 -148.927273 
L 442.741604 -146.381818 
L 444.447473 -143.836364 
L 446.718186 -141.290909 
L 449.667714 -138.745455 
L 453.390446 -136.2 
L 457.93088 -133.654545 
L 463.24745 -131.109091 
L 469.178825 -128.563636 
L 475.42442 -126.018182 
L 481.550894 -123.472727 
L 487.031809 -120.927273 
L 491.318812 -118.381818 
L 493.93215 -115.836364 
L 494.55 -113.290909 
L 493.07362 -110.745455 
L 489.650368 -108.2 
L 484.647926 -105.654545 
L 478.586633 -103.109091 
L 472.047909 -100.563636 
L 465.581515 -98.018182 
L 459.631969 -95.472727 
L 454.496428 -92.927273 
L 450.316371 -90.381818 
L 447.096993 -87.836364 
L 444.743483 -85.290909 
L 443.102783 -82.745455 
L 442.001747 -80.2 
L 441.27629 -77.654545 
L 440.789646 -75.109091 
L 440.440382 -72.563636 
L 440.162324 -70.018182 
L 439.919106 -67.472727 
L 439.696018 -64.927273 
L 439.49146 -62.381818 
L 439.309623 -59.836364 
L 439.155308 -57.290909 
L 439.031085 -54.745455 
L 438.936429 -52.2 
z
" style="stroke: #3d3d3d; stroke-width: 1.25"/>
    </defs>
    <g clip-path="url(#p2982a445db)">
     <use xlink:href="#mf671140d85" x="0" y="360" style="fill: #3a923a; stroke: #3d3d3d; stroke-width: 1.25"/>
    </g>
   </g>
   <g id="FillBetweenPolyCollection_4">
    <defs>
     <path id="m37a81388e2" d="M 578.923101 -107.997284 
L 577.576899 -107.997284 
L 577.370787 -108.137039 
L 577.118206 -108.276794 
L 576.813792 -108.416549 
L 576.452847 -108.556304 
L 576.031595 -108.696059 
L 575.547349 -108.835814 
L 574.998545 -108.975569 
L 574.384594 -109.115324 
L 573.705527 -109.255079 
L 572.961429 -109.394834 
L 572.151696 -109.534588 
L 571.274177 -109.674343 
L 570.324304 -109.814098 
L 569.294342 -109.953853 
L 568.172899 -110.093608 
L 566.944842 -110.233363 
L 565.591737 -110.373118 
L 564.092883 -110.512873 
L 562.426949 -110.652628 
L 560.574151 -110.792383 
L 558.518821 -110.932138 
L 556.25214 -111.071893 
L 553.774775 -111.211648 
L 551.099109 -111.351403 
L 548.250783 -111.491158 
L 545.269286 -111.630913 
L 542.207442 -111.770668 
L 539.129717 -111.910423 
L 536.109411 -112.050178 
L 533.224901 -112.189933 
L 530.555243 -112.329688 
L 528.175475 -112.469443 
L 526.152046 -112.609198 
L 524.538765 -112.748953 
L 523.373639 -112.888708 
L 522.676843 -113.028463 
L 522.45 -113.168217 
L 522.676777 -113.307972 
L 523.324697 -113.447727 
L 524.347947 -113.587482 
L 525.690896 -113.727237 
L 527.291979 -113.866992 
L 529.087612 -114.006747 
L 531.015836 -114.146502 
L 533.019437 -114.286257 
L 535.048388 -114.426012 
L 537.061507 -114.565767 
L 539.027332 -114.705522 
L 540.924248 -114.845277 
L 542.739955 -114.985032 
L 544.470391 -115.124787 
L 546.118233 -115.264542 
L 547.691122 -115.404297 
L 549.199717 -115.544052 
L 550.655753 -115.683807 
L 552.070206 -115.823562 
L 553.451721 -115.963317 
L 554.805409 -116.103072 
L 556.132128 -116.242827 
L 557.428295 -116.382582 
L 558.686265 -116.522337 
L 559.895206 -116.662092 
L 561.042395 -116.801846 
L 562.114766 -116.941601 
L 563.100526 -117.081356 
L 563.990654 -117.221111 
L 564.780089 -117.360866 
L 565.468485 -117.500621 
L 566.060439 -117.640376 
L 566.565201 -117.780131 
L 566.995915 -117.919886 
L 567.368509 -118.059641 
L 567.700383 -118.199396 
L 568.009064 -118.339151 
L 568.310961 -118.478906 
L 568.620353 -118.618661 
L 568.948676 -118.758416 
L 569.304127 -118.898171 
L 569.691576 -119.037926 
L 570.112737 -119.177681 
L 570.566517 -119.317436 
L 571.049483 -119.457191 
L 571.556376 -119.596946 
L 572.080623 -119.736701 
L 572.614812 -119.876456 
L 573.151123 -120.016211 
L 573.681706 -120.155966 
L 574.199008 -120.295721 
L 574.696055 -120.435475 
L 575.166697 -120.57523 
L 575.605803 -120.714985 
L 576.009403 -120.85474 
L 576.374785 -120.994495 
L 576.700507 -121.13425 
L 576.986364 -121.274005 
L 577.233281 -121.41376 
L 577.443153 -121.553515 
L 577.618654 -121.69327 
L 577.763014 -121.833025 
L 578.736986 -121.833025 
L 578.736986 -121.833025 
L 578.881346 -121.69327 
L 579.056847 -121.553515 
L 579.266719 -121.41376 
L 579.513636 -121.274005 
L 579.799493 -121.13425 
L 580.125215 -120.994495 
L 580.490597 -120.85474 
L 580.894197 -120.714985 
L 581.333303 -120.57523 
L 581.803945 -120.435475 
L 582.300992 -120.295721 
L 582.818294 -120.155966 
L 583.348877 -120.016211 
L 583.885188 -119.876456 
L 584.419377 -119.736701 
L 584.943624 -119.596946 
L 585.450517 -119.457191 
L 585.933483 -119.317436 
L 586.387263 -119.177681 
L 586.808424 -119.037926 
L 587.195873 -118.898171 
L 587.551324 -118.758416 
L 587.879647 -118.618661 
L 588.189039 -118.478906 
L 588.490936 -118.339151 
L 588.799617 -118.199396 
L 589.131491 -118.059641 
L 589.504085 -117.919886 
L 589.934799 -117.780131 
L 590.439561 -117.640376 
L 591.031515 -117.500621 
L 591.719911 -117.360866 
L 592.509346 -117.221111 
L 593.399474 -117.081356 
L 594.385234 -116.941601 
L 595.457605 -116.801846 
L 596.604794 -116.662092 
L 597.813735 -116.522337 
L 599.071705 -116.382582 
L 600.367872 -116.242827 
L 601.694591 -116.103072 
L 603.048279 -115.963317 
L 604.429794 -115.823562 
L 605.844247 -115.683807 
L 607.300283 -115.544052 
L 608.808878 -115.404297 
L 610.381767 -115.264542 
L 612.029609 -115.124787 
L 613.760045 -114.985032 
L 615.575752 -114.845277 
L 617.472668 -114.705522 
L 619.438493 -114.565767 
L 621.451612 -114.426012 
L 623.480563 -114.286257 
L 625.484164 -114.146502 
L 627.412388 -114.006747 
L 629.208021 -113.866992 
L 630.809104 -113.727237 
L 632.152053 -113.587482 
L 633.175303 -113.447727 
L 633.823223 -113.307972 
L 634.05 -113.168217 
L 633.823157 -113.028463 
L 633.126361 -112.888708 
L 631.961235 -112.748953 
L 630.347954 -112.609198 
L 628.324525 -112.469443 
L 625.944757 -112.329688 
L 623.275099 -112.189933 
L 620.390589 -112.050178 
L 617.370283 -111.910423 
L 614.292558 -111.770668 
L 611.230714 -111.630913 
L 608.249217 -111.491158 
L 605.400891 -111.351403 
L 602.725225 -111.211648 
L 600.24786 -111.071893 
L 597.981179 -110.932138 
L 595.925849 -110.792383 
L 594.073051 -110.652628 
L 592.407117 -110.512873 
L 590.908263 -110.373118 
L 589.555158 -110.233363 
L 588.327101 -110.093608 
L 587.205658 -109.953853 
L 586.175696 -109.814098 
L 585.225823 -109.674343 
L 584.348304 -109.534588 
L 583.538571 -109.394834 
L 582.794473 -109.255079 
L 582.115406 -109.115324 
L 581.501455 -108.975569 
L 580.952651 -108.835814 
L 580.468405 -108.696059 
L 580.047153 -108.556304 
L 579.686208 -108.416549 
L 579.381794 -108.276794 
L 579.129213 -108.137039 
L 578.923101 -107.997284 
z
" style="stroke: #3d3d3d; stroke-width: 1.25"/>
    </defs>
    <g clip-path="url(#p2982a445db)">
     <use xlink:href="#m37a81388e2" x="0" y="360" style="fill: #c03d3e; stroke: #3d3d3d; stroke-width: 1.25"/>
    </g>
   </g>
   <g id="matplotlib.axis_1">
    <g id="xtick_1">
     <g id="line2d_1">
      <defs>
       <path id="m2673abb808" d="M 0 0 
L 0 3.5 
" style="stroke: #000000; stroke-width: 0.8"/>
      </defs>
      <g>
       <use xlink:href="#m2673abb808" x="159.75" y="320.4" style="stroke: #000000; stroke-width: 0.8"/>
      </g>
     </g>
     <g id="text_1">
      <!-- Spurious -->
      <g transform="translate(137.955469 334.998438) scale(0.1 -0.1)">
       <defs>
        <path id="DejaVuSans-53" d="M 3425 4513 
L 3425 3897 
Q 3066 4069 2747 4153 
Q 2428 4238 2131 4238 
Q 1616 4238 1336 4038 
Q 1056 3838 1056 3469 
Q 1056 3159 1242 3001 
Q 1428 2844 1947 2747 
L 2328 2669 
Q 3034 2534 3370 2195 
Q 3706 1856 3706 1288 
Q 3706 609 3251 259 
Q 2797 -91 1919 -91 
Q 1588 -91 1214 -16 
Q 841 59 441 206 
L 441 856 
Q 825 641 1194 531 
Q 1563 422 1919 422 
Q 2459 422 2753 634 
Q 3047 847 3047 1241 
Q 3047 1584 2836 1778 
Q 2625 1972 2144 2069 
L 1759 2144 
Q 1053 2284 737 2584 
Q 422 2884 422 3419 
Q 422 4038 858 4394 
Q 1294 4750 2059 4750 
Q 2388 4750 2728 4690 
Q 3069 4631 3425 4513 
z
" transform="scale(0.015625)"/>
        <path id="DejaVuSans-70" d="M 1159 525 
L 1159 -1331 
L 581 -1331 
L 581 3500 
L 1159 3500 
L 1159 2969 
Q 1341 3281 1617 3432 
Q 1894 3584 2278 3584 
Q 2916 3584 3314 3078 
Q 3713 2572 3713 1747 
Q 3713 922 3314 415 
Q 2916 -91 2278 -91 
Q 1894 -91 1617 61 
Q 1341 213 1159 525 
z
M 3116 1747 
Q 3116 2381 2855 2742 
Q 2594 3103 2138 3103 
Q 1681 3103 1420 2742 
Q 1159 2381 1159 1747 
Q 1159 1113 1420 752 
Q 1681 391 2138 391 
Q 2594 391 2855 752 
Q 3116 1113 3116 1747 
z
" transform="scale(0.015625)"/>
        <path id="DejaVuSans-75" d="M 544 1381 
L 544 3500 
L 1119 3500 
L 1119 1403 
Q 1119 906 1312 657 
Q 1506 409 1894 409 
Q 2359 409 2629 706 
Q 2900 1003 2900 1516 
L 2900 3500 
L 3475 3500 
L 3475 0 
L 2900 0 
L 2900 538 
Q 2691 219 2414 64 
Q 2138 -91 1772 -91 
Q 1169 -91 856 284 
Q 544 659 544 1381 
z
M 1991 3584 
L 1991 3584 
z
" transform="scale(0.015625)"/>
        <path id="DejaVuSans-72" d="M 2631 2963 
Q 2534 3019 2420 3045 
Q 2306 3072 2169 3072 
Q 1681 3072 1420 2755 
Q 1159 2438 1159 1844 
L 1159 0 
L 581 0 
L 581 3500 
L 1159 3500 
L 1159 2956 
Q 1341 3275 1631 3429 
Q 1922 3584 2338 3584 
Q 2397 3584 2469 3576 
Q 2541 3569 2628 3553 
L 2631 2963 
z
" transform="scale(0.015625)"/>
        <path id="DejaVuSans-69" d="M 603 3500 
L 1178 3500 
L 1178 0 
L 603 0 
L 603 3500 
z
M 603 4863 
L 1178 4863 
L 1178 4134 
L 603 4134 
L 603 4863 
z
" transform="scale(0.015625)"/>
        <path id="DejaVuSans-6f" d="M 1959 3097 
Q 1497 3097 1228 2736 
Q 959 2375 959 1747 
Q 959 1119 1226 758 
Q 1494 397 1959 397 
Q 2419 397 2687 759 
Q 2956 1122 2956 1747 
Q 2956 2369 2687 2733 
Q 2419 3097 1959 3097 
z
M 1959 3584 
Q 2709 3584 3137 3096 
Q 3566 2609 3566 1747 
Q 3566 888 3137 398 
Q 2709 -91 1959 -91 
Q 1206 -91 779 398 
Q 353 888 353 1747 
Q 353 2609 779 3096 
Q 1206 3584 1959 3584 
z
" transform="scale(0.015625)"/>
        <path id="DejaVuSans-73" d="M 2834 3397 
L 2834 2853 
Q 2591 2978 2328 3040 
Q 2066 3103 1784 3103 
Q 1356 3103 1142 2972 
Q 928 2841 928 2578 
Q 928 2378 1081 2264 
Q 1234 2150 1697 2047 
L 1894 2003 
Q 2506 1872 2764 1633 
Q 3022 1394 3022 966 
Q 3022 478 2636 193 
Q 2250 -91 1575 -91 
Q 1294 -91 989 -36 
Q 684 19 347 128 
L 347 722 
Q 666 556 975 473 
Q 1284 391 1588 391 
Q 1994 391 2212 530 
Q 2431 669 2431 922 
Q 2431 1156 2273 1281 
Q 2116 1406 1581 1522 
L 1381 1569 
Q 847 1681 609 1914 
Q 372 2147 372 2553 
Q 372 3047 722 3315 
Q 1072 3584 1716 3584 
Q 2034 3584 2315 3537 
Q 2597 3491 2834 3397 
z
" transform="scale(0.015625)"/>
       </defs>
       <use xlink:href="#DejaVuSans-53"/>
       <use xlink:href="#DejaVuSans-70" transform="translate(63.476562 0)"/>
       <use xlink:href="#DejaVuSans-75" transform="translate(126.953125 0)"/>
       <use xlink:href="#DejaVuSans-72" transform="translate(190.332031 0)"/>
       <use xlink:href="#DejaVuSans-69" transform="translate(231.445312 0)"/>
       <use xlink:href="#DejaVuSans-6f" transform="translate(259.228516 0)"/>
       <use xlink:href="#DejaVuSans-75" transform="translate(320.410156 0)"/>
       <use xlink:href="#DejaVuSans-73" transform="translate(383.789062 0)"/>
      </g>
     </g>
    </g>
    <g id="xtick_2">
     <g id="line2d_2">
      <g>
       <use xlink:href="#m2673abb808" x="299.25" y="320.4" style="stroke: #000000; stroke-width: 0.8"/>
      </g>
     </g>
     <g id="text_2">
      <!-- Specific -->
      <g transform="translate(279.788281 334.998438) scale(0.1 -0.1)">
       <defs>
        <path id="DejaVuSans-65" d="M 3597 1894 
L 3597 1613 
L 953 1613 
Q 991 1019 1311 708 
Q 1631 397 2203 397 
Q 2534 397 2845 478 
Q 3156 559 3463 722 
L 3463 178 
Q 3153 47 2828 -22 
Q 2503 -91 2169 -91 
Q 1331 -91 842 396 
Q 353 884 353 1716 
Q 353 2575 817 3079 
Q 1281 3584 2069 3584 
Q 2775 3584 3186 3129 
Q 3597 2675 3597 1894 
z
M 3022 2063 
Q 3016 2534 2758 2815 
Q 2500 3097 2075 3097 
Q 1594 3097 1305 2825 
Q 1016 2553 972 2059 
L 3022 2063 
z
" transform="scale(0.015625)"/>
        <path id="DejaVuSans-63" d="M 3122 3366 
L 3122 2828 
Q 2878 2963 2633 3030 
Q 2388 3097 2138 3097 
Q 1578 3097 1268 2742 
Q 959 2388 959 1747 
Q 959 1106 1268 751 
Q 1578 397 2138 397 
Q 2388 397 2633 464 
Q 2878 531 3122 666 
L 3122 134 
Q 2881 22 2623 -34 
Q 2366 -91 2075 -91 
Q 1284 -91 818 406 
Q 353 903 353 1747 
Q 353 2603 823 3093 
Q 1294 3584 2113 3584 
Q 2378 3584 2631 3529 
Q 2884 3475 3122 3366 
z
" transform="scale(0.015625)"/>
        <path id="DejaVuSans-66" d="M 2375 4863 
L 2375 4384 
L 1825 4384 
Q 1516 4384 1395 4259 
Q 1275 4134 1275 3809 
L 1275 3500 
L 2222 3500 
L 2222 3053 
L 1275 3053 
L 1275 0 
L 697 0 
L 697 3053 
L 147 3053 
L 147 3500 
L 697 3500 
L 697 3744 
Q 697 4328 969 4595 
Q 1241 4863 1831 4863 
L 2375 4863 
z
" transform="scale(0.015625)"/>
       </defs>
       <use xlink:href="#DejaVuSans-53"/>
       <use xlink:href="#DejaVuSans-70" transform="translate(63.476562 0)"/>
       <use xlink:href="#DejaVuSans-65" transform="translate(126.953125 0)"/>
       <use xlink:href="#DejaVuSans-63" transform="translate(188.476562 0)"/>
       <use xlink:href="#DejaVuSans-69" transform="translate(243.457031 0)"/>
       <use xlink:href="#DejaVuSans-66" transform="translate(271.240234 0)"/>
       <use xlink:href="#DejaVuSans-69" transform="translate(306.445312 0)"/>
       <use xlink:href="#DejaVuSans-63" transform="translate(334.228516 0)"/>
      </g>
     </g>
    </g>
    <g id="xtick_3">
     <g id="line2d_3">
      <g>
       <use xlink:href="#m2673abb808" x="438.75" y="320.4" style="stroke: #000000; stroke-width: 0.8"/>
      </g>
     </g>
     <g id="text_3">
      <!-- Non-specific -->
      <g transform="translate(408.085156 334.998438) scale(0.1 -0.1)">
       <defs>
        <path id="DejaVuSans-4e" d="M 628 4666 
L 1478 4666 
L 3547 763 
L 3547 4666 
L 4159 4666 
L 4159 0 
L 3309 0 
L 1241 3903 
L 1241 0 
L 628 0 
L 628 4666 
z
" transform="scale(0.015625)"/>
        <path id="DejaVuSans-6e" d="M 3513 2113 
L 3513 0 
L 2938 0 
L 2938 2094 
Q 2938 2591 2744 2837 
Q 2550 3084 2163 3084 
Q 1697 3084 1428 2787 
Q 1159 2491 1159 1978 
L 1159 0 
L 581 0 
L 581 3500 
L 1159 3500 
L 1159 2956 
Q 1366 3272 1645 3428 
Q 1925 3584 2291 3584 
Q 2894 3584 3203 3211 
Q 3513 2838 3513 2113 
z
" transform="scale(0.015625)"/>
        <path id="DejaVuSans-2d" d="M 313 2009 
L 1997 2009 
L 1997 1497 
L 313 1497 
L 313 2009 
z
" transform="scale(0.015625)"/>
       </defs>
       <use xlink:href="#DejaVuSans-4e"/>
       <use xlink:href="#DejaVuSans-6f" transform="translate(74.804688 0)"/>
       <use xlink:href="#DejaVuSans-6e" transform="translate(135.986328 0)"/>
       <use xlink:href="#DejaVuSans-2d" transform="translate(199.365234 0)"/>
       <use xlink:href="#DejaVuSans-73" transform="translate(235.449219 0)"/>
       <use xlink:href="#DejaVuSans-70" transform="translate(287.548828 0)"/>
       <use xlink:href="#DejaVuSans-65" transform="translate(351.025391 0)"/>
       <use xlink:href="#DejaVuSans-63" transform="translate(412.548828 0)"/>
       <use xlink:href="#DejaVuSans-69" transform="translate(467.529297 0)"/>
       <use xlink:href="#DejaVuSans-66" transform="translate(495.3125 0)"/>
       <use xlink:href="#DejaVuSans-69" transform="translate(530.517578 0)"/>
       <use xlink:href="#DejaVuSans-63" transform="translate(558.300781 0)"/>
      </g>
     </g>
    </g>
    <g id="xtick_4">
     <g id="line2d_4">
      <g>
       <use xlink:href="#m2673abb808" x="578.25" y="320.4" style="stroke: #000000; stroke-width: 0.8"/>
      </g>
     </g>
     <g id="text_4">
      <!-- No -->
      <g transform="translate(571.45 334.998438) scale(0.1 -0.1)">
       <use xlink:href="#DejaVuSans-4e"/>
       <use xlink:href="#DejaVuSans-6f" transform="translate(74.804688 0)"/>
      </g>
     </g>
    </g>
    <g id="text_5">
     <!-- Connectivity category -->
     <g transform="translate(313.98125 348.676562) scale(0.1 -0.1)">
      <defs>
       <path id="DejaVuSans-43" d="M 4122 4306 
L 4122 3641 
Q 3803 3938 3442 4084 
Q 3081 4231 2675 4231 
Q 1875 4231 1450 3742 
Q 1025 3253 1025 2328 
Q 1025 1406 1450 917 
Q 1875 428 2675 428 
Q 3081 428 3442 575 
Q 3803 722 4122 1019 
L 4122 359 
Q 3791 134 3420 21 
Q 3050 -91 2638 -91 
Q 1578 -91 968 557 
Q 359 1206 359 2328 
Q 359 3453 968 4101 
Q 1578 4750 2638 4750 
Q 3056 4750 3426 4639 
Q 3797 4528 4122 4306 
z
" transform="scale(0.015625)"/>
       <path id="DejaVuSans-74" d="M 1172 4494 
L 1172 3500 
L 2356 3500 
L 2356 3053 
L 1172 3053 
L 1172 1153 
Q 1172 725 1289 603 
Q 1406 481 1766 481 
L 2356 481 
L 2356 0 
L 1766 0 
Q 1100 0 847 248 
Q 594 497 594 1153 
L 594 3053 
L 172 3053 
L 172 3500 
L 594 3500 
L 594 4494 
L 1172 4494 
z
" transform="scale(0.015625)"/>
       <path id="DejaVuSans-76" d="M 191 3500 
L 800 3500 
L 1894 563 
L 2988 3500 
L 3597 3500 
L 2284 0 
L 1503 0 
L 191 3500 
z
" transform="scale(0.015625)"/>
       <path id="DejaVuSans-79" d="M 2059 -325 
Q 1816 -950 1584 -1140 
Q 1353 -1331 966 -1331 
L 506 -1331 
L 506 -850 
L 844 -850 
Q 1081 -850 1212 -737 
Q 1344 -625 1503 -206 
L 1606 56 
L 191 3500 
L 800 3500 
L 1894 763 
L 2988 3500 
L 3597 3500 
L 2059 -325 
z
" transform="scale(0.015625)"/>
       <path id="DejaVuSans-20" transform="scale(0.015625)"/>
       <path id="DejaVuSans-61" d="M 2194 1759 
Q 1497 1759 1228 1600 
Q 959 1441 959 1056 
Q 959 750 1161 570 
Q 1363 391 1709 391 
Q 2188 391 2477 730 
Q 2766 1069 2766 1631 
L 2766 1759 
L 2194 1759 
z
M 3341 1997 
L 3341 0 
L 2766 0 
L 2766 531 
Q 2569 213 2275 61 
Q 1981 -91 1556 -91 
Q 1019 -91 701 211 
Q 384 513 384 1019 
Q 384 1609 779 1909 
Q 1175 2209 1959 2209 
L 2766 2209 
L 2766 2266 
Q 2766 2663 2505 2880 
Q 2244 3097 1772 3097 
Q 1472 3097 1187 3025 
Q 903 2953 641 2809 
L 641 3341 
Q 956 3463 1253 3523 
Q 1550 3584 1831 3584 
Q 2591 3584 2966 3190 
Q 3341 2797 3341 1997 
z
" transform="scale(0.015625)"/>
       <path id="DejaVuSans-67" d="M 2906 1791 
Q 2906 2416 2648 2759 
Q 2391 3103 1925 3103 
Q 1463 3103 1205 2759 
Q 947 2416 947 1791 
Q 947 1169 1205 825 
Q 1463 481 1925 481 
Q 2391 481 2648 825 
Q 2906 1169 2906 1791 
z
M 3481 434 
Q 3481 -459 3084 -895 
Q 2688 -1331 1869 -1331 
Q 1566 -1331 1297 -1286 
Q 1028 -1241 775 -1147 
L 775 -588 
Q 1028 -725 1275 -790 
Q 1522 -856 1778 -856 
Q 2344 -856 2625 -561 
Q 2906 -266 2906 331 
L 2906 616 
Q 2728 306 2450 153 
Q 2172 0 1784 0 
Q 1141 0 747 490 
Q 353 981 353 1791 
Q 353 2603 747 3093 
Q 1141 3584 1784 3584 
Q 2172 3584 2450 3431 
Q 2728 3278 2906 2969 
L 2906 3500 
L 3481 3500 
L 3481 434 
z
" transform="scale(0.015625)"/>
      </defs>
      <use xlink:href="#DejaVuSans-43"/>
      <use xlink:href="#DejaVuSans-6f" transform="translate(69.824219 0)"/>
      <use xlink:href="#DejaVuSans-6e" transform="translate(131.005859 0)"/>
      <use xlink:href="#DejaVuSans-6e" transform="translate(194.384766 0)"/>
      <use xlink:href="#DejaVuSans-65" transform="translate(257.763672 0)"/>
      <use xlink:href="#DejaVuSans-63" transform="translate(319.287109 0)"/>
      <use xlink:href="#DejaVuSans-74" transform="translate(374.267578 0)"/>
      <use xlink:href="#DejaVuSans-69" transform="translate(413.476562 0)"/>
      <use xlink:href="#DejaVuSans-76" transform="translate(441.259766 0)"/>
      <use xlink:href="#DejaVuSans-69" transform="translate(500.439453 0)"/>
      <use xlink:href="#DejaVuSans-74" transform="translate(528.222656 0)"/>
      <use xlink:href="#DejaVuSans-79" transform="translate(567.431641 0)"/>
      <use xlink:href="#DejaVuSans-20" transform="translate(626.611328 0)"/>
      <use xlink:href="#DejaVuSans-63" transform="translate(658.398438 0)"/>
      <use xlink:href="#DejaVuSans-61" transform="translate(713.378906 0)"/>
      <use xlink:href="#DejaVuSans-74" transform="translate(774.658203 0)"/>
      <use xlink:href="#DejaVuSans-65" transform="translate(813.867188 0)"/>
      <use xlink:href="#DejaVuSans-67" transform="translate(875.390625 0)"/>
      <use xlink:href="#DejaVuSans-6f" transform="translate(938.867188 0)"/>
      <use xlink:href="#DejaVuSans-72" transform="translate(1000.048828 0)"/>
      <use xlink:href="#DejaVuSans-79" transform="translate(1041.162109 0)"/>
     </g>
    </g>
   </g>
   <g id="matplotlib.axis_2">
    <g id="ytick_1">
     <g id="line2d_5">
      <defs>
       <path id="mca7830104a" d="M 0 0 
L -3.5 0 
" style="stroke: #000000; stroke-width: 0.8"/>
      </defs>
      <g>
       <use xlink:href="#mca7830104a" x="90" y="301.264532" style="stroke: #000000; stroke-width: 0.8"/>
      </g>
     </g>
     <g id="text_6">
      <!-- −0.002 -->
      <g transform="translate(45.992188 305.06375) scale(0.1 -0.1)">
       <defs>
        <path id="DejaVuSans-2212" d="M 678 2272 
L 4684 2272 
L 4684 1741 
L 678 1741 
L 678 2272 
z
" transform="scale(0.015625)"/>
        <path id="DejaVuSans-30" d="M 2034 4250 
Q 1547 4250 1301 3770 
Q 1056 3291 1056 2328 
Q 1056 1369 1301 889 
Q 1547 409 2034 409 
Q 2525 409 2770 889 
Q 3016 1369 3016 2328 
Q 3016 3291 2770 3770 
Q 2525 4250 2034 4250 
z
M 2034 4750 
Q 2819 4750 3233 4129 
Q 3647 3509 3647 2328 
Q 3647 1150 3233 529 
Q 2819 -91 2034 -91 
Q 1250 -91 836 529 
Q 422 1150 422 2328 
Q 422 3509 836 4129 
Q 1250 4750 2034 4750 
z
" transform="scale(0.015625)"/>
        <path id="DejaVuSans-2e" d="M 684 794 
L 1344 794 
L 1344 0 
L 684 0 
L 684 794 
z
" transform="scale(0.015625)"/>
        <path id="DejaVuSans-32" d="M 1228 531 
L 3431 531 
L 3431 0 
L 469 0 
L 469 531 
Q 828 903 1448 1529 
Q 2069 2156 2228 2338 
Q 2531 2678 2651 2914 
Q 2772 3150 2772 3378 
Q 2772 3750 2511 3984 
Q 2250 4219 1831 4219 
Q 1534 4219 1204 4116 
Q 875 4013 500 3803 
L 500 4441 
Q 881 4594 1212 4672 
Q 1544 4750 1819 4750 
Q 2544 4750 2975 4387 
Q 3406 4025 3406 3419 
Q 3406 3131 3298 2873 
Q 3191 2616 2906 2266 
Q 2828 2175 2409 1742 
Q 1991 1309 1228 531 
z
" transform="scale(0.015625)"/>
       </defs>
       <use xlink:href="#DejaVuSans-2212"/>
       <use xlink:href="#DejaVuSans-30" transform="translate(83.789062 0)"/>
       <use xlink:href="#DejaVuSans-2e" transform="translate(147.412109 0)"/>
       <use xlink:href="#DejaVuSans-30" transform="translate(179.199219 0)"/>
       <use xlink:href="#DejaVuSans-30" transform="translate(242.822266 0)"/>
       <use xlink:href="#DejaVuSans-32" transform="translate(306.445312 0)"/>
      </g>
     </g>
    </g>
    <g id="ytick_2">
     <g id="line2d_6">
      <g>
       <use xlink:href="#mca7830104a" x="90" y="247.078049" style="stroke: #000000; stroke-width: 0.8"/>
      </g>
     </g>
     <g id="text_7">
      <!-- 0.000 -->
      <g transform="translate(54.371875 250.877268) scale(0.1 -0.1)">
       <use xlink:href="#DejaVuSans-30"/>
       <use xlink:href="#DejaVuSans-2e" transform="translate(63.623047 0)"/>
       <use xlink:href="#DejaVuSans-30" transform="translate(95.410156 0)"/>
       <use xlink:href="#DejaVuSans-30" transform="translate(159.033203 0)"/>
       <use xlink:href="#DejaVuSans-30" transform="translate(222.65625 0)"/>
      </g>
     </g>
    </g>
    <g id="ytick_3">
     <g id="line2d_7">
      <g>
       <use xlink:href="#mca7830104a" x="90" y="192.891567" style="stroke: #000000; stroke-width: 0.8"/>
      </g>
     </g>
     <g id="text_8">
      <!-- 0.002 -->
      <g transform="translate(54.371875 196.690785) scale(0.1 -0.1)">
       <use xlink:href="#DejaVuSans-30"/>
       <use xlink:href="#DejaVuSans-2e" transform="translate(63.623047 0)"/>
       <use xlink:href="#DejaVuSans-30" transform="translate(95.410156 0)"/>
       <use xlink:href="#DejaVuSans-30" transform="translate(159.033203 0)"/>
       <use xlink:href="#DejaVuSans-32" transform="translate(222.65625 0)"/>
      </g>
     </g>
    </g>
    <g id="ytick_4">
     <g id="line2d_8">
      <g>
       <use xlink:href="#mca7830104a" x="90" y="138.705084" style="stroke: #000000; stroke-width: 0.8"/>
      </g>
     </g>
     <g id="text_9">
      <!-- 0.004 -->
      <g transform="translate(54.371875 142.504303) scale(0.1 -0.1)">
       <defs>
        <path id="DejaVuSans-34" d="M 2419 4116 
L 825 1625 
L 2419 1625 
L 2419 4116 
z
M 2253 4666 
L 3047 4666 
L 3047 1625 
L 3713 1625 
L 3713 1100 
L 3047 1100 
L 3047 0 
L 2419 0 
L 2419 1100 
L 313 1100 
L 313 1709 
L 2253 4666 
z
" transform="scale(0.015625)"/>
       </defs>
       <use xlink:href="#DejaVuSans-30"/>
       <use xlink:href="#DejaVuSans-2e" transform="translate(63.623047 0)"/>
       <use xlink:href="#DejaVuSans-30" transform="translate(95.410156 0)"/>
       <use xlink:href="#DejaVuSans-30" transform="translate(159.033203 0)"/>
       <use xlink:href="#DejaVuSans-34" transform="translate(222.65625 0)"/>
      </g>
     </g>
    </g>
    <g id="ytick_5">
     <g id="line2d_9">
      <g>
       <use xlink:href="#mca7830104a" x="90" y="84.518602" style="stroke: #000000; stroke-width: 0.8"/>
      </g>
     </g>
     <g id="text_10">
      <!-- 0.006 -->
      <g transform="translate(54.371875 88.31782) scale(0.1 -0.1)">
       <defs>
        <path id="DejaVuSans-36" d="M 2113 2584 
Q 1688 2584 1439 2293 
Q 1191 2003 1191 1497 
Q 1191 994 1439 701 
Q 1688 409 2113 409 
Q 2538 409 2786 701 
Q 3034 994 3034 1497 
Q 3034 2003 2786 2293 
Q 2538 2584 2113 2584 
z
M 3366 4563 
L 3366 3988 
Q 3128 4100 2886 4159 
Q 2644 4219 2406 4219 
Q 1781 4219 1451 3797 
Q 1122 3375 1075 2522 
Q 1259 2794 1537 2939 
Q 1816 3084 2150 3084 
Q 2853 3084 3261 2657 
Q 3669 2231 3669 1497 
Q 3669 778 3244 343 
Q 2819 -91 2113 -91 
Q 1303 -91 875 529 
Q 447 1150 447 2328 
Q 447 3434 972 4092 
Q 1497 4750 2381 4750 
Q 2619 4750 2861 4703 
Q 3103 4656 3366 4563 
z
" transform="scale(0.015625)"/>
       </defs>
       <use xlink:href="#DejaVuSans-30"/>
       <use xlink:href="#DejaVuSans-2e" transform="translate(63.623047 0)"/>
       <use xlink:href="#DejaVuSans-30" transform="translate(95.410156 0)"/>
       <use xlink:href="#DejaVuSans-30" transform="translate(159.033203 0)"/>
       <use xlink:href="#DejaVuSans-36" transform="translate(222.65625 0)"/>
      </g>
     </g>
    </g>
    <g id="text_11">
     <!-- cont_variable -->
     <g transform="translate(39.634375 215.409375) rotate(-90) scale(0.1 -0.1)">
      <defs>
       <path id="DejaVuSans-5f" d="M 3263 -1063 
L 3263 -1509 
L -63 -1509 
L -63 -1063 
L 3263 -1063 
z
" transform="scale(0.015625)"/>
       <path id="DejaVuSans-62" d="M 3116 1747 
Q 3116 2381 2855 2742 
Q 2594 3103 2138 3103 
Q 1681 3103 1420 2742 
Q 1159 2381 1159 1747 
Q 1159 1113 1420 752 
Q 1681 391 2138 391 
Q 2594 391 2855 752 
Q 3116 1113 3116 1747 
z
M 1159 2969 
Q 1341 3281 1617 3432 
Q 1894 3584 2278 3584 
Q 2916 3584 3314 3078 
Q 3713 2572 3713 1747 
Q 3713 922 3314 415 
Q 2916 -91 2278 -91 
Q 1894 -91 1617 61 
Q 1341 213 1159 525 
L 1159 0 
L 581 0 
L 581 4863 
L 1159 4863 
L 1159 2969 
z
" transform="scale(0.015625)"/>
       <path id="DejaVuSans-6c" d="M 603 4863 
L 1178 4863 
L 1178 0 
L 603 0 
L 603 4863 
z
" transform="scale(0.015625)"/>
      </defs>
      <use xlink:href="#DejaVuSans-63"/>
      <use xlink:href="#DejaVuSans-6f" transform="translate(54.980469 0)"/>
      <use xlink:href="#DejaVuSans-6e" transform="translate(116.162109 0)"/>
      <use xlink:href="#DejaVuSans-74" transform="translate(179.541016 0)"/>
      <use xlink:href="#DejaVuSans-5f" transform="translate(218.75 0)"/>
      <use xlink:href="#DejaVuSans-76" transform="translate(268.75 0)"/>
      <use xlink:href="#DejaVuSans-61" transform="translate(327.929688 0)"/>
      <use xlink:href="#DejaVuSans-72" transform="translate(389.208984 0)"/>
      <use xlink:href="#DejaVuSans-69" transform="translate(430.322266 0)"/>
      <use xlink:href="#DejaVuSans-61" transform="translate(458.105469 0)"/>
      <use xlink:href="#DejaVuSans-62" transform="translate(519.384766 0)"/>
      <use xlink:href="#DejaVuSans-6c" transform="translate(582.861328 0)"/>
      <use xlink:href="#DejaVuSans-65" transform="translate(610.644531 0)"/>
     </g>
    </g>
   </g>
   <g id="patch_3">
    <path d="M 90 320.4 
L 90 43.2 
" style="fill: none; stroke: #000000; stroke-width: 0.8; stroke-linejoin: miter; stroke-linecap: square"/>
   </g>
   <g id="patch_4">
    <path d="M 648 320.4 
L 648 43.2 
" style="fill: none; stroke: #000000; stroke-width: 0.8; stroke-linejoin: miter; stroke-linecap: square"/>
   </g>
   <g id="patch_5">
    <path d="M 90 320.4 
L 648 320.4 
" style="fill: none; stroke: #000000; stroke-width: 0.8; stroke-linejoin: miter; stroke-linecap: square"/>
   </g>
   <g id="patch_6">
    <path d="M 90 43.2 
L 648 43.2 
" style="fill: none; stroke: #000000; stroke-width: 0.8; stroke-linejoin: miter; stroke-linecap: square"/>
   </g>
   <g id="PathCollection_1">
    <defs>
     <path id="m579a8efef1" d="M 0 2.5 
C 0.663008 2.5 1.29895 2.236584 1.767767 1.767767 
C 2.236584 1.29895 2.5 0.663008 2.5 0 
C 2.5 -0.663008 2.236584 -1.29895 1.767767 -1.767767 
C 1.29895 -2.236584 0.663008 -2.5 0 -2.5 
C -0.663008 -2.5 -1.29895 -2.236584 -1.767767 -1.767767 
C -2.236584 -1.29895 -2.5 -0.663008 -2.5 0 
C -2.5 0.663008 -2.236584 1.29895 -1.767767 1.767767 
C -1.29895 2.236584 -0.663008 2.5 0 2.5 
z
"/>
    </defs>
    <g clip-path="url(#p2982a445db)">
     <use xlink:href="#m579a8efef1" x="161.524006" y="242.743722" style="fill-opacity: 0.3"/>
     <use xlink:href="#m579a8efef1" x="148.718865" y="224.486087" style="fill-opacity: 0.3"/>
     <use xlink:href="#m579a8efef1" x="167.211884" y="244.973694" style="fill-opacity: 0.3"/>
     <use xlink:href="#m579a8efef1" x="155.154351" y="250.857353" style="fill-opacity: 0.3"/>
     <use xlink:href="#m579a8efef1" x="152.407938" y="220.591472" style="fill-opacity: 0.3"/>
     <use xlink:href="#m579a8efef1" x="146.801152" y="255.356016" style="fill-opacity: 0.3"/>
     <use xlink:href="#m579a8efef1" x="171.61004" y="245.09528" style="fill-opacity: 0.3"/>
     <use xlink:href="#m579a8efef1" x="167.969603" y="247.897116" style="fill-opacity: 0.3"/>
     <use xlink:href="#m579a8efef1" x="168.49965" y="245.550653" style="fill-opacity: 0.3"/>
     <use xlink:href="#m579a8efef1" x="147.785887" y="194.279044" style="fill-opacity: 0.3"/>
     <use xlink:href="#m579a8efef1" x="146.384925" y="246.959947" style="fill-opacity: 0.3"/>
     <use xlink:href="#m579a8efef1" x="153.390433" y="247.007157" style="fill-opacity: 0.3"/>
     <use xlink:href="#m579a8efef1" x="148.327037" y="247.74767" style="fill-opacity: 0.3"/>
     <use xlink:href="#m579a8efef1" x="154.505068" y="248.010028" style="fill-opacity: 0.3"/>
     <use xlink:href="#m579a8efef1" x="163.627421" y="246.649403" style="fill-opacity: 0.3"/>
     <use xlink:href="#m579a8efef1" x="153.293743" y="246.816803" style="fill-opacity: 0.3"/>
     <use xlink:href="#m579a8efef1" x="164.556663" y="229.128675" style="fill-opacity: 0.3"/>
     <use xlink:href="#m579a8efef1" x="163.81296" y="230.654859" style="fill-opacity: 0.3"/>
     <use xlink:href="#m579a8efef1" x="163.698654" y="234.58644" style="fill-opacity: 0.3"/>
     <use xlink:href="#m579a8efef1" x="172.741474" y="192.299021" style="fill-opacity: 0.3"/>
     <use xlink:href="#m579a8efef1" x="152.362661" y="215.477823" style="fill-opacity: 0.3"/>
     <use xlink:href="#m579a8efef1" x="165.257326" y="195.62424" style="fill-opacity: 0.3"/>
     <use xlink:href="#m579a8efef1" x="151.013244" y="228.407018" style="fill-opacity: 0.3"/>
     <use xlink:href="#m579a8efef1" x="159.850493" y="196.806838" style="fill-opacity: 0.3"/>
     <use xlink:href="#m579a8efef1" x="164.653203" y="249.188927" style="fill-opacity: 0.3"/>
     <use xlink:href="#m579a8efef1" x="147.471847" y="234.475937" style="fill-opacity: 0.3"/>
     <use xlink:href="#m579a8efef1" x="164.422375" y="244.60096" style="fill-opacity: 0.3"/>
     <use xlink:href="#m579a8efef1" x="146.036271" y="250.056795" style="fill-opacity: 0.3"/>
     <use xlink:href="#m579a8efef1" x="158.373803" y="245.670031" style="fill-opacity: 0.3"/>
     <use xlink:href="#m579a8efef1" x="156.818872" y="247.096481" style="fill-opacity: 0.3"/>
     <use xlink:href="#m579a8efef1" x="161.541677" y="248.688607" style="fill-opacity: 0.3"/>
     <use xlink:href="#m579a8efef1" x="164.278799" y="242.892391" style="fill-opacity: 0.3"/>
     <use xlink:href="#m579a8efef1" x="156.545067" y="247.612612" style="fill-opacity: 0.3"/>
     <use xlink:href="#m579a8efef1" x="155.11903" y="243.549009" style="fill-opacity: 0.3"/>
     <use xlink:href="#m579a8efef1" x="158.327579" y="236.062949" style="fill-opacity: 0.3"/>
     <use xlink:href="#m579a8efef1" x="156.201497" y="256.78626" style="fill-opacity: 0.3"/>
     <use xlink:href="#m579a8efef1" x="147.768862" y="246.961179" style="fill-opacity: 0.3"/>
     <use xlink:href="#m579a8efef1" x="173.05401" y="247.078049" style="fill-opacity: 0.3"/>
     <use xlink:href="#m579a8efef1" x="146.474913" y="247.483681" style="fill-opacity: 0.3"/>
     <use xlink:href="#m579a8efef1" x="154.858708" y="248.387269" style="fill-opacity: 0.3"/>
     <use xlink:href="#m579a8efef1" x="161.855436" y="253.077915" style="fill-opacity: 0.3"/>
     <use xlink:href="#m579a8efef1" x="153.149595" y="246.547959" style="fill-opacity: 0.3"/>
     <use xlink:href="#m579a8efef1" x="173.384137" y="247.427411" style="fill-opacity: 0.3"/>
     <use xlink:href="#m579a8efef1" x="153.617357" y="248.007359" style="fill-opacity: 0.3"/>
     <use xlink:href="#m579a8efef1" x="164.99956" y="247.771434" style="fill-opacity: 0.3"/>
     <use xlink:href="#m579a8efef1" x="149.904926" y="248.155821" style="fill-opacity: 0.3"/>
     <use xlink:href="#m579a8efef1" x="159.62544" y="247.785082" style="fill-opacity: 0.3"/>
     <use xlink:href="#m579a8efef1" x="163.682236" y="247.021515" style="fill-opacity: 0.3"/>
     <use xlink:href="#m579a8efef1" x="147.408686" y="245.936858" style="fill-opacity: 0.3"/>
     <use xlink:href="#m579a8efef1" x="149.047916" y="247.676833" style="fill-opacity: 0.3"/>
     <use xlink:href="#m579a8efef1" x="168.40882" y="245.671548" style="fill-opacity: 0.3"/>
     <use xlink:href="#m579a8efef1" x="158.811753" y="242.03874" style="fill-opacity: 0.3"/>
     <use xlink:href="#m579a8efef1" x="152.951109" y="243.397852" style="fill-opacity: 0.3"/>
     <use xlink:href="#m579a8efef1" x="152.790709" y="247.043432" style="fill-opacity: 0.3"/>
     <use xlink:href="#m579a8efef1" x="172.262502" y="245.262382" style="fill-opacity: 0.3"/>
     <use xlink:href="#m579a8efef1" x="169.864932" y="247.476118" style="fill-opacity: 0.3"/>
    </g>
   </g>
   <g id="PathCollection_2">
    <g clip-path="url(#p2982a445db)">
     <use xlink:href="#m579a8efef1" x="302.725883" y="241.782844" style="fill-opacity: 0.3"/>
     <use xlink:href="#m579a8efef1" x="287.026386" y="246.760735" style="fill-opacity: 0.3"/>
     <use xlink:href="#m579a8efef1" x="298.904603" y="245.273106" style="fill-opacity: 0.3"/>
     <use xlink:href="#m579a8efef1" x="305.568835" y="242.085975" style="fill-opacity: 0.3"/>
     <use xlink:href="#m579a8efef1" x="313.030077" y="240.313479" style="fill-opacity: 0.3"/>
     <use xlink:href="#m579a8efef1" x="304.799088" y="246.208623" style="fill-opacity: 0.3"/>
     <use xlink:href="#m579a8efef1" x="289.046206" y="244.054789" style="fill-opacity: 0.3"/>
     <use xlink:href="#m579a8efef1" x="292.49359" y="245.338795" style="fill-opacity: 0.3"/>
     <use xlink:href="#m579a8efef1" x="312.244331" y="242.198457" style="fill-opacity: 0.3"/>
     <use xlink:href="#m579a8efef1" x="301.38681" y="242.194472" style="fill-opacity: 0.3"/>
     <use xlink:href="#m579a8efef1" x="302.947718" y="247.941546" style="fill-opacity: 0.3"/>
     <use xlink:href="#m579a8efef1" x="289.286588" y="245.432522" style="fill-opacity: 0.3"/>
     <use xlink:href="#m579a8efef1" x="304.115221" y="240.101633" style="fill-opacity: 0.3"/>
     <use xlink:href="#m579a8efef1" x="295.016742" y="252.833474" style="fill-opacity: 0.3"/>
     <use xlink:href="#m579a8efef1" x="291.350429" y="251.437969" style="fill-opacity: 0.3"/>
     <use xlink:href="#m579a8efef1" x="301.871712" y="255.435825" style="fill-opacity: 0.3"/>
     <use xlink:href="#m579a8efef1" x="296.671758" y="249.354478" style="fill-opacity: 0.3"/>
     <use xlink:href="#m579a8efef1" x="302.142011" y="250.331054" style="fill-opacity: 0.3"/>
     <use xlink:href="#m579a8efef1" x="300.909259" y="238.974732" style="fill-opacity: 0.3"/>
     <use xlink:href="#m579a8efef1" x="287.980324" y="225.7845" style="fill-opacity: 0.3"/>
     <use xlink:href="#m579a8efef1" x="307.031238" y="228.269516" style="fill-opacity: 0.3"/>
     <use xlink:href="#m579a8efef1" x="303.112261" y="206.150473" style="fill-opacity: 0.3"/>
     <use xlink:href="#m579a8efef1" x="295.125654" y="136.600736" style="fill-opacity: 0.3"/>
     <use xlink:href="#m579a8efef1" x="300.004878" y="196.486604" style="fill-opacity: 0.3"/>
     <use xlink:href="#m579a8efef1" x="297.186948" y="242.855685" style="fill-opacity: 0.3"/>
     <use xlink:href="#m579a8efef1" x="313.063643" y="251.120682" style="fill-opacity: 0.3"/>
     <use xlink:href="#m579a8efef1" x="311.187422" y="240.038936" style="fill-opacity: 0.3"/>
     <use xlink:href="#m579a8efef1" x="305.472314" y="245.078179" style="fill-opacity: 0.3"/>
     <use xlink:href="#m579a8efef1" x="288.124177" y="244.983399" style="fill-opacity: 0.3"/>
     <use xlink:href="#m579a8efef1" x="290.758188" y="248.463863" style="fill-opacity: 0.3"/>
     <use xlink:href="#m579a8efef1" x="309.554875" y="240.067102" style="fill-opacity: 0.3"/>
     <use xlink:href="#m579a8efef1" x="289.379449" y="231.275439" style="fill-opacity: 0.3"/>
     <use xlink:href="#m579a8efef1" x="298.444858" y="243.639258" style="fill-opacity: 0.3"/>
     <use xlink:href="#m579a8efef1" x="309.469509" y="226.964658" style="fill-opacity: 0.3"/>
     <use xlink:href="#m579a8efef1" x="300.059721" y="231.660557" style="fill-opacity: 0.3"/>
     <use xlink:href="#m579a8efef1" x="293.791202" y="252.479314" style="fill-opacity: 0.3"/>
     <use xlink:href="#m579a8efef1" x="292.460829" y="245.332504" style="fill-opacity: 0.3"/>
     <use xlink:href="#m579a8efef1" x="298.513523" y="244.421101" style="fill-opacity: 0.3"/>
     <use xlink:href="#m579a8efef1" x="300.189921" y="245.957372" style="fill-opacity: 0.3"/>
     <use xlink:href="#m579a8efef1" x="298.168697" y="280.545024" style="fill-opacity: 0.3"/>
     <use xlink:href="#m579a8efef1" x="295.714075" y="260.707613" style="fill-opacity: 0.3"/>
     <use xlink:href="#m579a8efef1" x="309.935729" y="233.583718" style="fill-opacity: 0.3"/>
     <use xlink:href="#m579a8efef1" x="299.151899" y="246.627628" style="fill-opacity: 0.3"/>
     <use xlink:href="#m579a8efef1" x="307.46392" y="247.352871" style="fill-opacity: 0.3"/>
     <use xlink:href="#m579a8efef1" x="289.013764" y="226.177104" style="fill-opacity: 0.3"/>
     <use xlink:href="#m579a8efef1" x="312.560107" y="258.815807" style="fill-opacity: 0.3"/>
     <use xlink:href="#m579a8efef1" x="305.801278" y="240.634609" style="fill-opacity: 0.3"/>
     <use xlink:href="#m579a8efef1" x="302.273382" y="249.583442" style="fill-opacity: 0.3"/>
     <use xlink:href="#m579a8efef1" x="301.242906" y="253.838454" style="fill-opacity: 0.3"/>
     <use xlink:href="#m579a8efef1" x="288.943739" y="239.488688" style="fill-opacity: 0.3"/>
     <use xlink:href="#m579a8efef1" x="302.83096" y="249.34355" style="fill-opacity: 0.3"/>
     <use xlink:href="#m579a8efef1" x="308.32022" y="269.156976" style="fill-opacity: 0.3"/>
     <use xlink:href="#m579a8efef1" x="312.346713" y="256.98882" style="fill-opacity: 0.3"/>
     <use xlink:href="#m579a8efef1" x="287.828224" y="239.03008" style="fill-opacity: 0.3"/>
     <use xlink:href="#m579a8efef1" x="305.401137" y="238.512252" style="fill-opacity: 0.3"/>
     <use xlink:href="#m579a8efef1" x="302.645737" y="238.246045" style="fill-opacity: 0.3"/>
     <use xlink:href="#m579a8efef1" x="306.632837" y="244.943523" style="fill-opacity: 0.3"/>
     <use xlink:href="#m579a8efef1" x="305.360271" y="248.695743" style="fill-opacity: 0.3"/>
     <use xlink:href="#m579a8efef1" x="300.700559" y="242.434256" style="fill-opacity: 0.3"/>
     <use xlink:href="#m579a8efef1" x="294.134905" y="255.401673" style="fill-opacity: 0.3"/>
     <use xlink:href="#m579a8efef1" x="309.332797" y="243.822473" style="fill-opacity: 0.3"/>
     <use xlink:href="#m579a8efef1" x="305.317544" y="246.747951" style="fill-opacity: 0.3"/>
     <use xlink:href="#m579a8efef1" x="296.301008" y="250.100951" style="fill-opacity: 0.3"/>
     <use xlink:href="#m579a8efef1" x="312.953866" y="245.028608" style="fill-opacity: 0.3"/>
     <use xlink:href="#m579a8efef1" x="287.933667" y="235.681406" style="fill-opacity: 0.3"/>
     <use xlink:href="#m579a8efef1" x="306.630183" y="251.011887" style="fill-opacity: 0.3"/>
     <use xlink:href="#m579a8efef1" x="293.013282" y="237.811657" style="fill-opacity: 0.3"/>
     <use xlink:href="#m579a8efef1" x="302.695216" y="246.231835" style="fill-opacity: 0.3"/>
     <use xlink:href="#m579a8efef1" x="309.270092" y="235.560772" style="fill-opacity: 0.3"/>
     <use xlink:href="#m579a8efef1" x="300.466352" y="247.603637" style="fill-opacity: 0.3"/>
     <use xlink:href="#m579a8efef1" x="285.588686" y="246.738531" style="fill-opacity: 0.3"/>
     <use xlink:href="#m579a8efef1" x="305.966809" y="240.856188" style="fill-opacity: 0.3"/>
     <use xlink:href="#m579a8efef1" x="307.590388" y="243.989837" style="fill-opacity: 0.3"/>
     <use xlink:href="#m579a8efef1" x="310.360384" y="243.776027" style="fill-opacity: 0.3"/>
     <use xlink:href="#m579a8efef1" x="303.058161" y="246.807154" style="fill-opacity: 0.3"/>
     <use xlink:href="#m579a8efef1" x="290.6858" y="246.154768" style="fill-opacity: 0.3"/>
     <use xlink:href="#m579a8efef1" x="299.354631" y="225.347454" style="fill-opacity: 0.3"/>
     <use xlink:href="#m579a8efef1" x="309.52755" y="247.650941" style="fill-opacity: 0.3"/>
     <use xlink:href="#m579a8efef1" x="298.429402" y="247.463491" style="fill-opacity: 0.3"/>
     <use xlink:href="#m579a8efef1" x="288.801705" y="252.770453" style="fill-opacity: 0.3"/>
     <use xlink:href="#m579a8efef1" x="286.879928" y="245.795972" style="fill-opacity: 0.3"/>
     <use xlink:href="#m579a8efef1" x="290.508035" y="246.144273" style="fill-opacity: 0.3"/>
     <use xlink:href="#m579a8efef1" x="294.180276" y="247.53444" style="fill-opacity: 0.3"/>
     <use xlink:href="#m579a8efef1" x="297.085092" y="246.569484" style="fill-opacity: 0.3"/>
     <use xlink:href="#m579a8efef1" x="310.859027" y="245.682199" style="fill-opacity: 0.3"/>
     <use xlink:href="#m579a8efef1" x="293.679364" y="245.075592" style="fill-opacity: 0.3"/>
     <use xlink:href="#m579a8efef1" x="312.646633" y="244.188697" style="fill-opacity: 0.3"/>
     <use xlink:href="#m579a8efef1" x="308.668111" y="247.16682" style="fill-opacity: 0.3"/>
     <use xlink:href="#m579a8efef1" x="305.467571" y="247.740995" style="fill-opacity: 0.3"/>
     <use xlink:href="#m579a8efef1" x="302.760292" y="246.817456" style="fill-opacity: 0.3"/>
     <use xlink:href="#m579a8efef1" x="285.740184" y="245.403665" style="fill-opacity: 0.3"/>
     <use xlink:href="#m579a8efef1" x="296.684163" y="240.107359" style="fill-opacity: 0.3"/>
     <use xlink:href="#m579a8efef1" x="297.442976" y="247.435855" style="fill-opacity: 0.3"/>
     <use xlink:href="#m579a8efef1" x="299.465462" y="251.148186" style="fill-opacity: 0.3"/>
     <use xlink:href="#m579a8efef1" x="307.174121" y="245.064445" style="fill-opacity: 0.3"/>
     <use xlink:href="#m579a8efef1" x="309.145046" y="245.488472" style="fill-opacity: 0.3"/>
     <use xlink:href="#m579a8efef1" x="309.499803" y="245.843813" style="fill-opacity: 0.3"/>
     <use xlink:href="#m579a8efef1" x="286.387649" y="246.285898" style="fill-opacity: 0.3"/>
     <use xlink:href="#m579a8efef1" x="302.120811" y="246.84148" style="fill-opacity: 0.3"/>
    </g>
   </g>
   <g id="PathCollection_3">
    <g clip-path="url(#p2982a445db)">
     <use xlink:href="#m579a8efef1" x="451.977948" y="248.578271" style="fill-opacity: 0.3"/>
     <use xlink:href="#m579a8efef1" x="452.579243" y="251.258011" style="fill-opacity: 0.3"/>
     <use xlink:href="#m579a8efef1" x="439.903242" y="243.475558" style="fill-opacity: 0.3"/>
     <use xlink:href="#m579a8efef1" x="440.697181" y="246.481933" style="fill-opacity: 0.3"/>
     <use xlink:href="#m579a8efef1" x="438.16637" y="238.116567" style="fill-opacity: 0.3"/>
     <use xlink:href="#m579a8efef1" x="427.413739" y="244.751199" style="fill-opacity: 0.3"/>
     <use xlink:href="#m579a8efef1" x="452.275303" y="246.145822" style="fill-opacity: 0.3"/>
     <use xlink:href="#m579a8efef1" x="450.474855" y="248.488268" style="fill-opacity: 0.3"/>
     <use xlink:href="#m579a8efef1" x="443.432411" y="243.305148" style="fill-opacity: 0.3"/>
     <use xlink:href="#m579a8efef1" x="436.470498" y="247.115256" style="fill-opacity: 0.3"/>
     <use xlink:href="#m579a8efef1" x="432.888681" y="248.257316" style="fill-opacity: 0.3"/>
     <use xlink:href="#m579a8efef1" x="444.038111" y="242.657836" style="fill-opacity: 0.3"/>
     <use xlink:href="#m579a8efef1" x="443.146096" y="246.27766" style="fill-opacity: 0.3"/>
     <use xlink:href="#m579a8efef1" x="430.798722" y="79.419859" style="fill-opacity: 0.3"/>
     <use xlink:href="#m579a8efef1" x="425.065165" y="243.813967" style="fill-opacity: 0.3"/>
     <use xlink:href="#m579a8efef1" x="448.010531" y="244.389941" style="fill-opacity: 0.3"/>
     <use xlink:href="#m579a8efef1" x="429.432839" y="239.939937" style="fill-opacity: 0.3"/>
     <use xlink:href="#m579a8efef1" x="434.391546" y="240.481462" style="fill-opacity: 0.3"/>
     <use xlink:href="#m579a8efef1" x="439.395718" y="243.65109" style="fill-opacity: 0.3"/>
     <use xlink:href="#m579a8efef1" x="446.066756" y="250.211481" style="fill-opacity: 0.3"/>
     <use xlink:href="#m579a8efef1" x="434.967824" y="246.667898" style="fill-opacity: 0.3"/>
     <use xlink:href="#m579a8efef1" x="447.990986" y="225.826171" style="fill-opacity: 0.3"/>
     <use xlink:href="#m579a8efef1" x="424.821017" y="284.180141" style="fill-opacity: 0.3"/>
     <use xlink:href="#m579a8efef1" x="444.173198" y="224.206092" style="fill-opacity: 0.3"/>
     <use xlink:href="#m579a8efef1" x="452.633347" y="253.829385" style="fill-opacity: 0.3"/>
     <use xlink:href="#m579a8efef1" x="429.156737" y="259.702371" style="fill-opacity: 0.3"/>
     <use xlink:href="#m579a8efef1" x="439.134543" y="242.142975" style="fill-opacity: 0.3"/>
     <use xlink:href="#m579a8efef1" x="437.226384" y="247.535804" style="fill-opacity: 0.3"/>
     <use xlink:href="#m579a8efef1" x="430.201453" y="250.012204" style="fill-opacity: 0.3"/>
     <use xlink:href="#m579a8efef1" x="443.413148" y="238.572192" style="fill-opacity: 0.3"/>
     <use xlink:href="#m579a8efef1" x="439.506851" y="258.755823" style="fill-opacity: 0.3"/>
     <use xlink:href="#m579a8efef1" x="443.981512" y="252.964287" style="fill-opacity: 0.3"/>
     <use xlink:href="#m579a8efef1" x="440.79335" y="252.226619" style="fill-opacity: 0.3"/>
     <use xlink:href="#m579a8efef1" x="451.431308" y="250.802226" style="fill-opacity: 0.3"/>
     <use xlink:href="#m579a8efef1" x="447.611746" y="250.126312" style="fill-opacity: 0.3"/>
     <use xlink:href="#m579a8efef1" x="435.991239" y="247.945936" style="fill-opacity: 0.3"/>
     <use xlink:href="#m579a8efef1" x="434.812762" y="231.847532" style="fill-opacity: 0.3"/>
     <use xlink:href="#m579a8efef1" x="427.521102" y="244.103658" style="fill-opacity: 0.3"/>
     <use xlink:href="#m579a8efef1" x="433.09318" y="244.199319" style="fill-opacity: 0.3"/>
     <use xlink:href="#m579a8efef1" x="438.709994" y="244.517453" style="fill-opacity: 0.3"/>
     <use xlink:href="#m579a8efef1" x="443.803434" y="248.922652" style="fill-opacity: 0.3"/>
     <use xlink:href="#m579a8efef1" x="449.772692" y="244.468681" style="fill-opacity: 0.3"/>
     <use xlink:href="#m579a8efef1" x="425.963006" y="249.61424" style="fill-opacity: 0.3"/>
     <use xlink:href="#m579a8efef1" x="431.236034" y="250.871494" style="fill-opacity: 0.3"/>
     <use xlink:href="#m579a8efef1" x="428.634723" y="245.965929" style="fill-opacity: 0.3"/>
     <use xlink:href="#m579a8efef1" x="437.205132" y="245.819173" style="fill-opacity: 0.3"/>
     <use xlink:href="#m579a8efef1" x="437.757714" y="246.94085" style="fill-opacity: 0.3"/>
     <use xlink:href="#m579a8efef1" x="436.490761" y="235.283655" style="fill-opacity: 0.3"/>
    </g>
   </g>
   <g id="PathCollection_4">
    <g clip-path="url(#p2982a445db)">
     <use xlink:href="#m579a8efef1" x="583.597503" y="241.584855" style="fill-opacity: 0.3"/>
     <use xlink:href="#m579a8efef1" x="573.214267" y="249.417467" style="fill-opacity: 0.3"/>
     <use xlink:href="#m579a8efef1" x="577.824722" y="245.29163" style="fill-opacity: 0.3"/>
     <use xlink:href="#m579a8efef1" x="564.365306" y="247.410254" style="fill-opacity: 0.3"/>
     <use xlink:href="#m579a8efef1" x="569.257678" y="249.810502" style="fill-opacity: 0.3"/>
     <use xlink:href="#m579a8efef1" x="578.308479" y="240.359189" style="fill-opacity: 0.3"/>
     <use xlink:href="#m579a8efef1" x="578.044594" y="248.340654" style="fill-opacity: 0.3"/>
     <use xlink:href="#m579a8efef1" x="573.961026" y="243.919471" style="fill-opacity: 0.3"/>
     <use xlink:href="#m579a8efef1" x="581.907103" y="246.828898" style="fill-opacity: 0.3"/>
     <use xlink:href="#m579a8efef1" x="588.321081" y="243.595514" style="fill-opacity: 0.3"/>
     <use xlink:href="#m579a8efef1" x="586.603477" y="244.024746" style="fill-opacity: 0.3"/>
     <use xlink:href="#m579a8efef1" x="580.311852" y="247.428711" style="fill-opacity: 0.3"/>
     <use xlink:href="#m579a8efef1" x="566.473559" y="246.300924" style="fill-opacity: 0.3"/>
     <use xlink:href="#m579a8efef1" x="578.348986" y="247.767286" style="fill-opacity: 0.3"/>
     <use xlink:href="#m579a8efef1" x="580.595706" y="244.861196" style="fill-opacity: 0.3"/>
     <use xlink:href="#m579a8efef1" x="583.018561" y="247.554727" style="fill-opacity: 0.3"/>
     <use xlink:href="#m579a8efef1" x="581.992185" y="246.147096" style="fill-opacity: 0.3"/>
     <use xlink:href="#m579a8efef1" x="585.09737" y="241.835206" style="fill-opacity: 0.3"/>
     <use xlink:href="#m579a8efef1" x="576.699885" y="243.796608" style="fill-opacity: 0.3"/>
     <use xlink:href="#m579a8efef1" x="588.054824" y="247.11224" style="fill-opacity: 0.3"/>
     <use xlink:href="#m579a8efef1" x="570.3349" y="246.820661" style="fill-opacity: 0.3"/>
     <use xlink:href="#m579a8efef1" x="578.651565" y="245.454823" style="fill-opacity: 0.3"/>
     <use xlink:href="#m579a8efef1" x="584.73223" y="246.518396" style="fill-opacity: 0.3"/>
     <use xlink:href="#m579a8efef1" x="576.749216" y="247.172323" style="fill-opacity: 0.3"/>
     <use xlink:href="#m579a8efef1" x="571.575845" y="246.517709" style="fill-opacity: 0.3"/>
     <use xlink:href="#m579a8efef1" x="587.569721" y="246.625548" style="fill-opacity: 0.3"/>
     <use xlink:href="#m579a8efef1" x="585.439377" y="247.426933" style="fill-opacity: 0.3"/>
     <use xlink:href="#m579a8efef1" x="587.64138" y="245.575421" style="fill-opacity: 0.3"/>
     <use xlink:href="#m579a8efef1" x="578.560776" y="245.126246" style="fill-opacity: 0.3"/>
     <use xlink:href="#m579a8efef1" x="591.161227" y="247.607668" style="fill-opacity: 0.3"/>
     <use xlink:href="#m579a8efef1" x="584.277014" y="246.964538" style="fill-opacity: 0.3"/>
    </g>
   </g>
  </g>
 </g>
 <defs>
  <clipPath id="p2982a445db">
   <rect x="90" y="43.2" width="558" height="277.2"/>
  </clipPath>
 </defs>
</svg>
