<?xml version="1.0" encoding="utf-8" standalone="no"?>
<!DOCTYPE svg PUBLIC "-//W3C//DTD SVG 1.1//EN"
  "http://www.w3.org/Graphics/SVG/1.1/DTD/svg11.dtd">
<svg xmlns:xlink="http://www.w3.org/1999/xlink" width="720pt" height="360pt" viewBox="0 0 720 360" xmlns="http://www.w3.org/2000/svg" version="1.1">
 <metadata>
  <rdf:RDF xmlns:dc="http://purl.org/dc/elements/1.1/" xmlns:cc="http://creativecommons.org/ns#" xmlns:rdf="http://www.w3.org/1999/02/22-rdf-syntax-ns#">
   <cc:Work>
    <dc:type rdf:resource="http://purl.org/dc/dcmitype/StillImage"/>
    <dc:date>2025-09-09T16:54:33.867265</dc:date>
    <dc:format>image/svg+xml</dc:format>
    <dc:creator>
     <cc:Agent>
      <dc:title>Matplotlib v3.10.3, https://matplotlib.org/</dc:title>
     </cc:Agent>
    </dc:creator>
   </cc:Work>
  </rdf:RDF>
 </metadata>
 <defs>
  <style type="text/css">*{stroke-linejoin: round; stroke-linecap: butt}</style>
 </defs>
 <g id="figure_1">
  <g id="patch_1">
   <path d="M 0 360 
L 720 360 
L 720 0 
L 0 0 
z
" style="fill: #ffffff"/>
  </g>
  <g id="axes_1">
   <g id="patch_2">
    <path d="M 90 320.4 
L 648 320.4 
L 648 43.2 
L 90 43.2 
z
" style="fill: #ffffff"/>
   </g>
   <g id="FillBetweenPolyCollection_1">
    <defs>
     <path id="m8a19aecf92" d="M 151.641008 -51.331107 
L 139.958992 -51.331107 
L 138.932124 -51.40784 
L 137.779546 -51.484573 
L 136.497093 -51.561307 
L 135.082748 -51.63804 
L 133.537043 -51.714774 
L 131.863416 -51.791507 
L 130.068515 -51.868241 
L 128.162432 -51.944974 
L 126.158831 -52.021708 
L 124.074973 -52.098441 
L 121.931597 -52.175174 
L 119.752673 -52.251908 
L 117.565009 -52.328641 
L 115.397709 -52.405375 
L 113.281513 -52.482108 
L 111.248018 -52.558842 
L 109.328808 -52.635575 
L 107.554539 -52.712308 
L 105.95399 -52.789042 
L 104.55315 -52.865775 
L 103.374354 -52.942509 
L 102.435523 -53.019242 
L 101.749545 -53.095976 
L 101.32382 -53.172709 
L 101.16 -53.249443 
L 101.253933 -53.326176 
L 101.595819 -53.402909 
L 102.170567 -53.479643 
L 102.958344 -53.556376 
L 103.93528 -53.63311 
L 105.074306 -53.709843 
L 106.346071 -53.786577 
L 107.71991 -53.86331 
L 109.164799 -53.940043 
L 110.650274 -54.016777 
L 112.147257 -54.09351 
L 113.628756 -54.170244 
L 115.07043 -54.246977 
L 116.450982 -54.323711 
L 117.752376 -54.400444 
L 118.9599 -54.477178 
L 120.062058 -54.553911 
L 121.050335 -54.630644 
L 121.918857 -54.707378 
L 122.663966 -54.784111 
L 123.283773 -54.860845 
L 123.777689 -54.937578 
L 124.146007 -55.014312 
L 124.389533 -55.091045 
L 124.50931 -55.167778 
L 124.506452 -55.244512 
L 124.382089 -55.321245 
L 124.13743 -55.397979 
L 123.77394 -55.474712 
L 123.293608 -55.551446 
L 122.699287 -55.628179 
L 121.995086 -55.704913 
L 121.186766 -55.781646 
L 120.282119 -55.858379 
L 119.291292 -55.935113 
L 118.227022 -56.011846 
L 117.104767 -56.08858 
L 115.94269 -56.165313 
L 114.761512 -56.242047 
L 113.584204 -56.31878 
L 112.435539 -56.395513 
L 111.341509 -56.472247 
L 110.328634 -56.54898 
L 109.423192 -56.625714 
L 108.650399 -56.702447 
L 108.033586 -56.779181 
L 107.593407 -56.855914 
L 107.347116 -56.932648 
L 107.307953 -57.009381 
L 107.484661 -57.086114 
L 107.881176 -57.162848 
L 108.496474 -57.239581 
L 109.324613 -57.316315 
L 110.354947 -57.393048 
L 111.572504 -57.469782 
L 112.958513 -57.546515 
L 114.491051 -57.623248 
L 116.145774 -57.699982 
L 117.896704 -57.776715 
L 119.717036 -57.853449 
L 121.579926 -57.930182 
L 123.459235 -58.006916 
L 125.330196 -58.083649 
L 127.16999 -58.160383 
L 128.9582 -58.237116 
L 130.677163 -58.313849 
L 132.312176 -58.390583 
L 133.851603 -58.467316 
L 135.286855 -58.54405 
L 136.612285 -58.620783 
L 137.824984 -58.697517 
L 138.924531 -58.77425 
L 139.912677 -58.850983 
L 140.793012 -58.927717 
L 150.806988 -58.927717 
L 150.806988 -58.927717 
L 151.687323 -58.850983 
L 152.675469 -58.77425 
L 153.775016 -58.697517 
L 154.987715 -58.620783 
L 156.313145 -58.54405 
L 157.748397 -58.467316 
L 159.287824 -58.390583 
L 160.922837 -58.313849 
L 162.6418 -58.237116 
L 164.43001 -58.160383 
L 166.269804 -58.083649 
L 168.140765 -58.006916 
L 170.020074 -57.930182 
L 171.882964 -57.853449 
L 173.703296 -57.776715 
L 175.454226 -57.699982 
L 177.108949 -57.623248 
L 178.641487 -57.546515 
L 180.027496 -57.469782 
L 181.245053 -57.393048 
L 182.275387 -57.316315 
L 183.103526 -57.239581 
L 183.718824 -57.162848 
L 184.115339 -57.086114 
L 184.292047 -57.009381 
L 184.252884 -56.932648 
L 184.006593 -56.855914 
L 183.566414 -56.779181 
L 182.949601 -56.702447 
L 182.176808 -56.625714 
L 181.271366 -56.54898 
L 180.258491 -56.472247 
L 179.164461 -56.395513 
L 178.015796 -56.31878 
L 176.838488 -56.242047 
L 175.65731 -56.165313 
L 174.495233 -56.08858 
L 173.372978 -56.011846 
L 172.308708 -55.935113 
L 171.317881 -55.858379 
L 170.413234 -55.781646 
L 169.604914 -55.704913 
L 168.900713 -55.628179 
L 168.306392 -55.551446 
L 167.82606 -55.474712 
L 167.46257 -55.397979 
L 167.217911 -55.321245 
L 167.093548 -55.244512 
L 167.09069 -55.167778 
L 167.210467 -55.091045 
L 167.453993 -55.014312 
L 167.822311 -54.937578 
L 168.316227 -54.860845 
L 168.936034 -54.784111 
L 169.681143 -54.707378 
L 170.549665 -54.630644 
L 171.537942 -54.553911 
L 172.6401 -54.477178 
L 173.847624 -54.400444 
L 175.149018 -54.323711 
L 176.52957 -54.246977 
L 177.971244 -54.170244 
L 179.452743 -54.09351 
L 180.949726 -54.016777 
L 182.435201 -53.940043 
L 183.88009 -53.86331 
L 185.253929 -53.786577 
L 186.525694 -53.709843 
L 187.66472 -53.63311 
L 188.641656 -53.556376 
L 189.429433 -53.479643 
L 190.004181 -53.402909 
L 190.346067 -53.326176 
L 190.44 -53.249443 
L 190.27618 -53.172709 
L 189.850455 -53.095976 
L 189.164477 -53.019242 
L 188.225646 -52.942509 
L 187.04685 -52.865775 
L 185.64601 -52.789042 
L 184.045461 -52.712308 
L 182.271192 -52.635575 
L 180.351982 -52.558842 
L 178.318487 -52.482108 
L 176.202291 -52.405375 
L 174.034991 -52.328641 
L 171.847327 -52.251908 
L 169.668403 -52.175174 
L 167.525027 -52.098441 
L 165.441169 -52.021708 
L 163.437568 -51.944974 
L 161.531485 -51.868241 
L 159.736584 -51.791507 
L 158.062957 -51.714774 
L 156.517252 -51.63804 
L 155.102907 -51.561307 
L 153.820454 -51.484573 
L 152.667876 -51.40784 
L 151.641008 -51.331107 
z
" style="stroke: #3d3d3d; stroke-width: 1.25"/>
    </defs>
    <g clip-path="url(#p62d84b9b41)">
     <use xlink:href="#m8a19aecf92" x="0" y="360" style="fill: #3274a1; stroke: #3d3d3d; stroke-width: 1.25"/>
    </g>
   </g>
   <g id="FillBetweenPolyCollection_2">
    <defs>
     <path id="m9999837dec" d="M 257.707049 -45.541362 
L 257.092951 -45.541362 
L 256.991722 -45.676236 
L 256.868872 -45.811111 
L 256.724016 -45.945985 
L 256.558279 -46.08086 
L 256.374596 -46.215734 
L 256.177872 -46.350609 
L 255.974942 -46.485483 
L 255.774289 -46.620358 
L 255.585533 -46.755232 
L 255.418705 -46.890106 
L 255.283374 -47.024981 
L 255.187753 -47.159855 
L 255.137869 -47.29473 
L 255.136936 -47.429604 
L 255.185017 -47.564479 
L 255.279009 -47.699353 
L 255.412982 -47.834228 
L 255.578791 -47.969102 
L 255.766899 -48.103976 
L 255.967278 -48.238851 
L 256.170273 -48.373725 
L 256.367337 -48.5086 
L 256.551555 -48.643474 
L 256.717916 -48.778349 
L 256.863358 -48.913223 
L 256.98659 -49.048098 
L 257.087763 -49.182972 
L 257.168043 -49.317846 
L 257.229125 -49.452721 
L 257.272735 -49.587595 
L 257.300131 -49.72247 
L 257.311604 -49.857344 
L 257.30596 -49.992219 
L 257.279968 -50.127093 
L 257.227766 -50.261968 
L 257.140233 -50.396842 
L 257.004379 -50.531716 
L 256.802829 -50.666591 
L 256.513558 -50.801465 
L 256.110031 -50.93634 
L 255.561956 -51.071214 
L 254.836839 -51.206089 
L 253.902449 -51.340963 
L 252.730213 -51.475838 
L 251.299383 -51.610712 
L 249.601617 -51.745587 
L 247.645423 -51.880461 
L 245.459757 -52.015335 
L 243.096003 -52.15021 
L 240.627641 -52.285084 
L 238.147119 -52.419959 
L 235.75983 -52.554833 
L 233.575562 -52.689708 
L 231.698263 -52.824582 
L 230.215374 -52.959457 
L 229.188217 -53.094331 
L 228.644898 -53.229205 
L 228.576907 -53.36408 
L 228.940047 -53.498954 
L 229.659666 -53.633829 
L 230.639425 -53.768703 
L 231.772275 -53.903578 
L 232.95189 -54.038452 
L 234.082796 -54.173327 
L 235.087663 -54.308201 
L 235.910795 -54.443075 
L 236.517561 -54.57795 
L 236.89029 -54.712824 
L 237.02181 -54.847699 
L 236.908262 -54.982573 
L 236.542948 -55.117448 
L 235.912763 -55.252322 
L 234.998258 -55.387197 
L 233.777636 -55.522071 
L 232.234153 -55.656945 
L 230.365656 -55.79182 
L 228.19437 -55.926694 
L 225.774864 -56.061569 
L 223.198234 -56.196443 
L 220.591072 -56.331318 
L 218.108657 -56.466192 
L 215.922759 -56.601067 
L 214.205484 -56.735941 
L 213.111324 -56.870815 
L 212.76 -57.00569 
L 213.222678 -57.140564 
L 214.51358 -57.275439 
L 216.588228 -57.410313 
L 219.348439 -57.545188 
L 222.653206 -57.680062 
L 226.333702 -57.814937 
L 230.210175 -57.949811 
L 234.108412 -58.084685 
L 237.873747 -58.21956 
L 241.381193 -58.354434 
L 244.541011 -58.489309 
L 247.299804 -58.624183 
L 249.637794 -58.759058 
L 251.563362 -58.893932 
L 263.236638 -58.893932 
L 263.236638 -58.893932 
L 265.162206 -58.759058 
L 267.500196 -58.624183 
L 270.258989 -58.489309 
L 273.418807 -58.354434 
L 276.926253 -58.21956 
L 280.691588 -58.084685 
L 284.589825 -57.949811 
L 288.466298 -57.814937 
L 292.146794 -57.680062 
L 295.451561 -57.545188 
L 298.211772 -57.410313 
L 300.28642 -57.275439 
L 301.577322 -57.140564 
L 302.04 -57.00569 
L 301.688676 -56.870815 
L 300.594516 -56.735941 
L 298.877241 -56.601067 
L 296.691343 -56.466192 
L 294.208928 -56.331318 
L 291.601766 -56.196443 
L 289.025136 -56.061569 
L 286.60563 -55.926694 
L 284.434344 -55.79182 
L 282.565847 -55.656945 
L 281.022364 -55.522071 
L 279.801742 -55.387197 
L 278.887237 -55.252322 
L 278.257052 -55.117448 
L 277.891738 -54.982573 
L 277.77819 -54.847699 
L 277.90971 -54.712824 
L 278.282439 -54.57795 
L 278.889205 -54.443075 
L 279.712337 -54.308201 
L 280.717204 -54.173327 
L 281.84811 -54.038452 
L 283.027725 -53.903578 
L 284.160575 -53.768703 
L 285.140334 -53.633829 
L 285.859953 -53.498954 
L 286.223093 -53.36408 
L 286.155102 -53.229205 
L 285.611783 -53.094331 
L 284.584626 -52.959457 
L 283.101737 -52.824582 
L 281.224438 -52.689708 
L 279.04017 -52.554833 
L 276.652881 -52.419959 
L 274.172359 -52.285084 
L 271.703997 -52.15021 
L 269.340243 -52.015335 
L 267.154577 -51.880461 
L 265.198383 -51.745587 
L 263.500617 -51.610712 
L 262.069787 -51.475838 
L 260.897551 -51.340963 
L 259.963161 -51.206089 
L 259.238044 -51.071214 
L 258.689969 -50.93634 
L 258.286442 -50.801465 
L 257.997171 -50.666591 
L 257.795621 -50.531716 
L 257.659767 -50.396842 
L 257.572234 -50.261968 
L 257.520032 -50.127093 
L 257.49404 -49.992219 
L 257.488396 -49.857344 
L 257.499869 -49.72247 
L 257.527265 -49.587595 
L 257.570875 -49.452721 
L 257.631957 -49.317846 
L 257.712237 -49.182972 
L 257.81341 -49.048098 
L 257.936642 -48.913223 
L 258.082084 -48.778349 
L 258.248445 -48.643474 
L 258.432663 -48.5086 
L 258.629727 -48.373725 
L 258.832722 -48.238851 
L 259.033101 -48.103976 
L 259.221209 -47.969102 
L 259.387018 -47.834228 
L 259.520991 -47.699353 
L 259.614983 -47.564479 
L 259.663064 -47.429604 
L 259.662131 -47.29473 
L 259.612247 -47.159855 
L 259.516626 -47.024981 
L 259.381295 -46.890106 
L 259.214467 -46.755232 
L 259.025711 -46.620358 
L 258.825058 -46.485483 
L 258.622128 -46.350609 
L 258.425404 -46.215734 
L 258.241721 -46.08086 
L 258.075984 -45.945985 
L 257.931128 -45.811111 
L 257.808278 -45.676236 
L 257.707049 -45.541362 
z
" style="stroke: #3d3d3d; stroke-width: 1.25"/>
    </defs>
    <g clip-path="url(#p62d84b9b41)">
     <use xlink:href="#m9999837dec" x="0" y="360" style="fill: #e1812c; stroke: #3d3d3d; stroke-width: 1.25"/>
    </g>
   </g>
   <g id="FillBetweenPolyCollection_3">
    <defs>
     <path id="m8c04c2e569" d="M 369.442464 -44.965406 
L 368.557536 -44.965406 
L 368.439316 -45.111915 
L 368.300029 -45.258425 
L 368.139076 -45.404935 
L 367.95679 -45.551445 
L 367.754622 -45.697955 
L 367.535285 -45.844465 
L 367.302821 -45.990975 
L 367.062577 -46.137485 
L 366.821067 -46.283995 
L 366.585729 -46.430505 
L 366.364575 -46.577015 
L 366.16575 -46.723525 
L 365.997046 -46.870035 
L 365.865397 -47.016545 
L 365.776403 -47.163054 
L 365.733937 -47.309564 
L 365.739858 -47.456074 
L 365.793867 -47.602584 
L 365.893526 -47.749094 
L 366.034413 -47.895604 
L 366.210428 -48.042114 
L 366.414178 -48.188624 
L 366.637436 -48.335134 
L 366.871594 -48.481644 
L 367.108078 -48.628154 
L 367.338688 -48.774664 
L 367.555816 -48.921174 
L 367.752535 -49.067684 
L 367.922556 -49.214194 
L 368.060049 -49.360703 
L 368.15938 -49.507213 
L 368.214766 -49.653723 
L 368.219925 -49.800233 
L 368.167749 -49.946743 
L 368.050071 -50.093253 
L 367.85757 -50.239763 
L 367.579871 -50.386273 
L 367.205869 -50.532783 
L 366.724312 -50.679293 
L 366.124639 -50.825803 
L 365.398038 -50.972313 
L 364.538679 -51.118823 
L 363.545025 -51.265333 
L 362.421102 -51.411842 
L 361.17758 -51.558352 
L 359.832523 -51.704862 
L 358.411653 -51.851372 
L 356.948023 -51.997882 
L 355.481001 -52.144392 
L 354.054582 -52.290902 
L 352.715065 -52.437412 
L 351.508236 -52.583922 
L 350.476255 -52.730432 
L 349.654485 -52.876942 
L 349.068543 -53.023452 
L 348.731817 -53.169962 
L 348.643698 -53.316472 
L 348.788662 -53.462981 
L 349.136317 -53.609491 
L 349.64241 -53.756001 
L 350.250724 -53.902511 
L 350.895735 -54.049021 
L 351.505866 -54.195531 
L 352.007142 -54.342041 
L 352.327067 -54.488551 
L 352.398556 -54.635061 
L 352.163748 -54.781571 
L 351.577596 -54.928081 
L 350.611059 -55.074591 
L 349.253773 -55.221101 
L 347.516021 -55.367611 
L 345.429837 -55.51412 
L 343.049048 -55.66063 
L 340.4481 -55.80714 
L 337.719547 -55.95365 
L 334.970196 -56.10016 
L 332.315995 -56.24667 
L 329.875891 -56.39318 
L 327.765046 -56.53969 
L 326.087871 -56.6862 
L 324.931465 -56.83271 
L 324.36 -56.97922 
L 324.410587 -57.12573 
L 325.091019 -57.27224 
L 326.379599 -57.41875 
L 328.227087 -57.565259 
L 330.560558 -57.711769 
L 333.288799 -57.858279 
L 336.308718 -58.004789 
L 339.512164 -58.151299 
L 342.792565 -58.297809 
L 346.050836 -58.444319 
L 349.200132 -58.590829 
L 352.169202 -58.737339 
L 354.904213 -58.883849 
L 357.369126 -59.030359 
L 359.544799 -59.176869 
L 361.427102 -59.323379 
L 363.024359 -59.469889 
L 374.975641 -59.469889 
L 374.975641 -59.469889 
L 376.572898 -59.323379 
L 378.455201 -59.176869 
L 380.630874 -59.030359 
L 383.095787 -58.883849 
L 385.830798 -58.737339 
L 388.799868 -58.590829 
L 391.949164 -58.444319 
L 395.207435 -58.297809 
L 398.487836 -58.151299 
L 401.691282 -58.004789 
L 404.711201 -57.858279 
L 407.439442 -57.711769 
L 409.772913 -57.565259 
L 411.620401 -57.41875 
L 412.908981 -57.27224 
L 413.589413 -57.12573 
L 413.64 -56.97922 
L 413.068535 -56.83271 
L 411.912129 -56.6862 
L 410.234954 -56.53969 
L 408.124109 -56.39318 
L 405.684005 -56.24667 
L 403.029804 -56.10016 
L 400.280453 -55.95365 
L 397.5519 -55.80714 
L 394.950952 -55.66063 
L 392.570163 -55.51412 
L 390.483979 -55.367611 
L 388.746227 -55.221101 
L 387.388941 -55.074591 
L 386.422404 -54.928081 
L 385.836252 -54.781571 
L 385.601444 -54.635061 
L 385.672933 -54.488551 
L 385.992858 -54.342041 
L 386.494134 -54.195531 
L 387.104265 -54.049021 
L 387.749276 -53.902511 
L 388.35759 -53.756001 
L 388.863683 -53.609491 
L 389.211338 -53.462981 
L 389.356302 -53.316472 
L 389.268183 -53.169962 
L 388.931457 -53.023452 
L 388.345515 -52.876942 
L 387.523745 -52.730432 
L 386.491764 -52.583922 
L 385.284935 -52.437412 
L 383.945418 -52.290902 
L 382.518999 -52.144392 
L 381.051977 -51.997882 
L 379.588347 -51.851372 
L 378.167477 -51.704862 
L 376.82242 -51.558352 
L 375.578898 -51.411842 
L 374.454975 -51.265333 
L 373.461321 -51.118823 
L 372.601962 -50.972313 
L 371.875361 -50.825803 
L 371.275688 -50.679293 
L 370.794131 -50.532783 
L 370.420129 -50.386273 
L 370.14243 -50.239763 
L 369.949929 -50.093253 
L 369.832251 -49.946743 
L 369.780075 -49.800233 
L 369.785234 -49.653723 
L 369.84062 -49.507213 
L 369.939951 -49.360703 
L 370.077444 -49.214194 
L 370.247465 -49.067684 
L 370.444184 -48.921174 
L 370.661312 -48.774664 
L 370.891922 -48.628154 
L 371.128406 -48.481644 
L 371.362564 -48.335134 
L 371.585822 -48.188624 
L 371.789572 -48.042114 
L 371.965587 -47.895604 
L 372.106474 -47.749094 
L 372.206133 -47.602584 
L 372.260142 -47.456074 
L 372.266063 -47.309564 
L 372.223597 -47.163054 
L 372.134603 -47.016545 
L 372.002954 -46.870035 
L 371.83425 -46.723525 
L 371.635425 -46.577015 
L 371.414271 -46.430505 
L 371.178933 -46.283995 
L 370.937423 -46.137485 
L 370.697179 -45.990975 
L 370.464715 -45.844465 
L 370.245378 -45.697955 
L 370.04321 -45.551445 
L 369.860924 -45.404935 
L 369.699971 -45.258425 
L 369.560684 -45.111915 
L 369.442464 -44.965406 
z
" style="stroke: #3d3d3d; stroke-width: 1.25"/>
    </defs>
    <g clip-path="url(#p62d84b9b41)">
     <use xlink:href="#m8c04c2e569" x="0" y="360" style="fill: #3a923a; stroke: #3d3d3d; stroke-width: 1.25"/>
    </g>
   </g>
   <g id="FillBetweenPolyCollection_4">
    <defs>
     <path id="m95a65e48d4" d="M 481.724438 -44.484402 
L 479.475562 -44.484402 
L 479.211312 -44.640629 
L 478.905027 -44.796856 
L 478.555391 -44.953083 
L 478.162486 -45.109311 
L 477.728073 -45.265538 
L 477.255825 -45.421765 
L 476.751478 -45.577992 
L 476.22288 -45.734219 
L 475.679916 -45.890447 
L 475.134292 -46.046674 
L 474.599184 -46.202901 
L 474.088746 -46.359128 
L 473.617515 -46.515355 
L 473.199731 -46.671582 
L 472.848629 -46.82781 
L 472.575732 -46.984037 
L 472.390212 -47.140264 
L 472.298365 -47.296491 
L 472.303225 -47.452718 
L 472.404367 -47.608945 
L 472.597893 -47.765173 
L 472.87662 -47.9214 
L 473.230431 -48.077627 
L 473.646771 -48.233854 
L 474.111248 -48.390081 
L 474.608279 -48.546308 
L 475.121747 -48.702536 
L 475.635608 -48.858763 
L 476.134424 -49.01499 
L 476.603797 -49.171217 
L 477.030673 -49.327444 
L 477.403539 -49.483672 
L 477.712518 -49.639899 
L 477.949372 -49.796126 
L 478.107469 -49.952353 
L 478.18171 -50.10858 
L 478.168475 -50.264807 
L 478.065594 -50.421035 
L 477.872362 -50.577262 
L 477.58959 -50.733489 
L 477.219708 -50.889716 
L 476.766868 -51.045943 
L 476.237044 -51.20217 
L 475.638078 -51.358398 
L 474.979648 -51.514625 
L 474.273111 -51.670852 
L 473.531212 -51.827079 
L 472.767625 -51.983306 
L 471.996348 -52.139533 
L 471.230949 -52.295761 
L 470.483713 -52.451988 
L 469.764731 -52.608215 
L 469.080994 -52.764442 
L 468.435569 -52.920669 
L 467.826919 -53.076897 
L 467.248452 -53.233124 
L 466.688349 -53.389351 
L 466.129732 -53.545578 
L 465.551185 -53.701805 
L 464.927665 -53.858032 
L 464.231759 -54.01426 
L 463.43527 -54.170487 
L 462.511058 -54.326714 
L 461.435048 -54.482941 
L 460.188302 -54.639168 
L 458.759023 -54.795395 
L 457.144355 -54.951623 
L 455.351841 -55.10785 
L 453.400402 -55.264077 
L 451.320719 -55.420304 
L 449.154926 -55.576531 
L 446.955567 -55.732758 
L 444.783811 -55.888986 
L 442.706986 -56.045213 
L 440.79553 -56.20144 
L 439.119549 -56.357667 
L 437.745169 -56.513894 
L 436.730938 -56.670122 
L 436.124532 -56.826349 
L 435.96 -56.982576 
L 436.255761 -57.138803 
L 437.013504 -57.29503 
L 438.218072 -57.451257 
L 439.838345 -57.607485 
L 441.829035 -57.763712 
L 444.133259 -57.919939 
L 446.685674 -58.076166 
L 449.415948 -58.232393 
L 452.252298 -58.38862 
L 455.124864 -58.544848 
L 457.968693 -58.701075 
L 460.726178 -58.857302 
L 463.348831 -59.013529 
L 465.79836 -59.169756 
L 468.047049 -59.325983 
L 470.07751 -59.482211 
L 471.881916 -59.638438 
L 473.46083 -59.794665 
L 474.821787 -59.950892 
L 486.378213 -59.950892 
L 486.378213 -59.950892 
L 487.73917 -59.794665 
L 489.318084 -59.638438 
L 491.12249 -59.482211 
L 493.152951 -59.325983 
L 495.40164 -59.169756 
L 497.851169 -59.013529 
L 500.473822 -58.857302 
L 503.231307 -58.701075 
L 506.075136 -58.544848 
L 508.947702 -58.38862 
L 511.784052 -58.232393 
L 514.514326 -58.076166 
L 517.066741 -57.919939 
L 519.370965 -57.763712 
L 521.361655 -57.607485 
L 522.981928 -57.451257 
L 524.186496 -57.29503 
L 524.944239 -57.138803 
L 525.24 -56.982576 
L 525.075468 -56.826349 
L 524.469062 -56.670122 
L 523.454831 -56.513894 
L 522.080451 -56.357667 
L 520.40447 -56.20144 
L 518.493014 -56.045213 
L 516.416189 -55.888986 
L 514.244433 -55.732758 
L 512.045074 -55.576531 
L 509.879281 -55.420304 
L 507.799598 -55.264077 
L 505.848159 -55.10785 
L 504.055645 -54.951623 
L 502.440977 -54.795395 
L 501.011698 -54.639168 
L 499.764952 -54.482941 
L 498.688942 -54.326714 
L 497.76473 -54.170487 
L 496.968241 -54.01426 
L 496.272335 -53.858032 
L 495.648815 -53.701805 
L 495.070268 -53.545578 
L 494.511651 -53.389351 
L 493.951548 -53.233124 
L 493.373081 -53.076897 
L 492.764431 -52.920669 
L 492.119006 -52.764442 
L 491.435269 -52.608215 
L 490.716287 -52.451988 
L 489.969051 -52.295761 
L 489.203652 -52.139533 
L 488.432375 -51.983306 
L 487.668788 -51.827079 
L 486.926889 -51.670852 
L 486.220352 -51.514625 
L 485.561922 -51.358398 
L 484.962956 -51.20217 
L 484.433132 -51.045943 
L 483.980292 -50.889716 
L 483.61041 -50.733489 
L 483.327638 -50.577262 
L 483.134406 -50.421035 
L 483.031525 -50.264807 
L 483.01829 -50.10858 
L 483.092531 -49.952353 
L 483.250628 -49.796126 
L 483.487482 -49.639899 
L 483.796461 -49.483672 
L 484.169327 -49.327444 
L 484.596203 -49.171217 
L 485.065576 -49.01499 
L 485.564392 -48.858763 
L 486.078253 -48.702536 
L 486.591721 -48.546308 
L 487.088752 -48.390081 
L 487.553229 -48.233854 
L 487.969569 -48.077627 
L 488.32338 -47.9214 
L 488.602107 -47.765173 
L 488.795633 -47.608945 
L 488.896775 -47.452718 
L 488.901635 -47.296491 
L 488.809788 -47.140264 
L 488.624268 -46.984037 
L 488.351371 -46.82781 
L 488.000269 -46.671582 
L 487.582485 -46.515355 
L 487.111254 -46.359128 
L 486.600816 -46.202901 
L 486.065708 -46.046674 
L 485.520084 -45.890447 
L 484.97712 -45.734219 
L 484.448522 -45.577992 
L 483.944175 -45.421765 
L 483.471927 -45.265538 
L 483.037514 -45.109311 
L 482.644609 -44.953083 
L 482.294973 -44.796856 
L 481.988688 -44.640629 
L 481.724438 -44.484402 
z
" style="stroke: #3d3d3d; stroke-width: 1.25"/>
    </defs>
    <g clip-path="url(#p62d84b9b41)">
     <use xlink:href="#m95a65e48d4" x="0" y="360" style="fill: #c03d3e; stroke: #3d3d3d; stroke-width: 1.25"/>
    </g>
   </g>
   <g id="patch_3">
    <path d="M 212.76 320.4 
L 257.4 320.4 
L 257.4 234.988235 
L 212.76 234.988235 
z
" clip-path="url(#p62d84b9b41)" style="fill: #3274a1"/>
   </g>
   <g id="patch_4">
    <path d="M 547.56 320.4 
L 592.2 320.4 
L 592.2 172.870588 
L 547.56 172.870588 
z
" clip-path="url(#p62d84b9b41)" style="fill: #3274a1"/>
   </g>
   <g id="patch_5">
    <path d="M 257.4 320.4 
L 302.04 320.4 
L 302.04 258.282353 
L 257.4 258.282353 
z
" clip-path="url(#p62d84b9b41)" style="fill: #e1812c"/>
   </g>
   <g id="patch_6">
    <path d="M 592.2 320.4 
L 636.84 320.4 
L 636.84 203.929412 
L 592.2 203.929412 
z
" clip-path="url(#p62d84b9b41)" style="fill: #e1812c"/>
   </g>
   <g id="patch_7">
    <path d="M 145.8 320.4 
L 145.8 320.4 
L 145.8 320.4 
L 145.8 320.4 
z
" clip-path="url(#p62d84b9b41)" style="fill: #3274a1"/>
   </g>
   <g id="patch_8">
    <path d="M 145.8 320.4 
L 145.8 320.4 
L 145.8 320.4 
L 145.8 320.4 
z
" clip-path="url(#p62d84b9b41)" style="fill: #e1812c"/>
   </g>
   <g id="patch_9">
    <path d="M 212.76 320.4 
L 257.4 320.4 
L 257.4 302.929412 
L 212.76 302.929412 
z
" clip-path="url(#p62d84b9b41)" style="fill: #3274a1"/>
   </g>
   <g id="patch_10">
    <path d="M 547.56 320.4 
L 592.2 320.4 
L 592.2 299.047059 
L 547.56 299.047059 
z
" clip-path="url(#p62d84b9b41)" style="fill: #3274a1"/>
   </g>
   <g id="patch_11">
    <path d="M 257.4 320.4 
L 302.04 320.4 
L 302.04 190.341176 
L 257.4 190.341176 
z
" clip-path="url(#p62d84b9b41)" style="fill: #e1812c"/>
   </g>
   <g id="patch_12">
    <path d="M 592.2 320.4 
L 636.84 320.4 
L 636.84 77.752941 
L 592.2 77.752941 
z
" clip-path="url(#p62d84b9b41)" style="fill: #e1812c"/>
   </g>
   <g id="patch_13">
    <path d="M 145.8 320.4 
L 145.8 320.4 
L 145.8 320.4 
L 145.8 320.4 
z
" clip-path="url(#p62d84b9b41)" style="fill: #3274a1"/>
   </g>
   <g id="patch_14">
    <path d="M 145.8 320.4 
L 145.8 320.4 
L 145.8 320.4 
L 145.8 320.4 
z
" clip-path="url(#p62d84b9b41)" style="fill: #e1812c"/>
   </g>
   <g id="patch_15">
    <path d="M 212.76 320.4 
L 257.4 320.4 
L 257.4 246.635294 
L 212.76 246.635294 
z
" clip-path="url(#p62d84b9b41)" style="fill: #3274a1"/>
   </g>
   <g id="patch_16">
    <path d="M 547.56 320.4 
L 592.2 320.4 
L 592.2 207.811765 
L 547.56 207.811765 
z
" clip-path="url(#p62d84b9b41)" style="fill: #3274a1"/>
   </g>
   <g id="patch_17">
    <path d="M 257.4 320.4 
L 302.04 320.4 
L 302.04 246.635294 
L 257.4 246.635294 
z
" clip-path="url(#p62d84b9b41)" style="fill: #e1812c"/>
   </g>
   <g id="patch_18">
    <path d="M 592.2 320.4 
L 636.84 320.4 
L 636.84 168.988235 
L 592.2 168.988235 
z
" clip-path="url(#p62d84b9b41)" style="fill: #e1812c"/>
   </g>
   <g id="patch_19">
    <path d="M 145.8 320.4 
L 145.8 320.4 
L 145.8 320.4 
L 145.8 320.4 
z
" clip-path="url(#p62d84b9b41)" style="fill: #3274a1"/>
   </g>
   <g id="patch_20">
    <path d="M 145.8 320.4 
L 145.8 320.4 
L 145.8 320.4 
L 145.8 320.4 
z
" clip-path="url(#p62d84b9b41)" style="fill: #e1812c"/>
   </g>
   <g id="patch_21">
    <path d="M 212.76 320.4 
L 302.04 320.4 
L 302.04 172.870588 
L 212.76 172.870588 
z
" clip-path="url(#p62d84b9b41)" style="fill: #3274a1"/>
   </g>
   <g id="patch_22">
    <path d="M 547.56 320.4 
L 636.84 320.4 
L 636.84 56.4 
L 547.56 56.4 
z
" clip-path="url(#p62d84b9b41)" style="fill: #3274a1"/>
   </g>
   <g id="patch_23">
    <path d="M 145.8 320.4 
L 145.8 320.4 
L 145.8 320.4 
L 145.8 320.4 
z
" clip-path="url(#p62d84b9b41)" style="fill: #3274a1"/>
   </g>
   <g id="matplotlib.axis_1">
    <g id="xtick_1">
     <g id="line2d_1">
      <defs>
       <path id="mec53a5d731" d="M 0 0 
L 0 3.5 
" style="stroke: #000000; stroke-width: 0.8"/>
      </defs>
      <g>
       <use xlink:href="#mec53a5d731" x="145.8" y="320.4" style="stroke: #000000; stroke-width: 0.8"/>
      </g>
     </g>
     <g id="text_1">
      <!-- No -->
      <g transform="translate(139 334.998438) scale(0.1 -0.1)">
       <defs>
        <path id="DejaVuSans-4e" d="M 628 4666 
L 1478 4666 
L 3547 763 
L 3547 4666 
L 4159 4666 
L 4159 0 
L 3309 0 
L 1241 3903 
L 1241 0 
L 628 0 
L 628 4666 
z
" transform="scale(0.015625)"/>
        <path id="DejaVuSans-6f" d="M 1959 3097 
Q 1497 3097 1228 2736 
Q 959 2375 959 1747 
Q 959 1119 1226 758 
Q 1494 397 1959 397 
Q 2419 397 2687 759 
Q 2956 1122 2956 1747 
Q 2956 2369 2687 2733 
Q 2419 3097 1959 3097 
z
M 1959 3584 
Q 2709 3584 3137 3096 
Q 3566 2609 3566 1747 
Q 3566 888 3137 398 
Q 2709 -91 1959 -91 
Q 1206 -91 779 398 
Q 353 888 353 1747 
Q 353 2609 779 3096 
Q 1206 3584 1959 3584 
z
" transform="scale(0.015625)"/>
       </defs>
       <use xlink:href="#DejaVuSans-4e"/>
       <use xlink:href="#DejaVuSans-6f" transform="translate(74.804688 0)"/>
      </g>
     </g>
    </g>
    <g id="xtick_2">
     <g id="line2d_2">
      <g>
       <use xlink:href="#mec53a5d731" x="257.4" y="320.4" style="stroke: #000000; stroke-width: 0.8"/>
      </g>
     </g>
     <g id="text_2">
      <!-- Specific -->
      <g transform="translate(237.938281 334.998438) scale(0.1 -0.1)">
       <defs>
        <path id="DejaVuSans-53" d="M 3425 4513 
L 3425 3897 
Q 3066 4069 2747 4153 
Q 2428 4238 2131 4238 
Q 1616 4238 1336 4038 
Q 1056 3838 1056 3469 
Q 1056 3159 1242 3001 
Q 1428 2844 1947 2747 
L 2328 2669 
Q 3034 2534 3370 2195 
Q 3706 1856 3706 1288 
Q 3706 609 3251 259 
Q 2797 -91 1919 -91 
Q 1588 -91 1214 -16 
Q 841 59 441 206 
L 441 856 
Q 825 641 1194 531 
Q 1563 422 1919 422 
Q 2459 422 2753 634 
Q 3047 847 3047 1241 
Q 3047 1584 2836 1778 
Q 2625 1972 2144 2069 
L 1759 2144 
Q 1053 2284 737 2584 
Q 422 2884 422 3419 
Q 422 4038 858 4394 
Q 1294 4750 2059 4750 
Q 2388 4750 2728 4690 
Q 3069 4631 3425 4513 
z
" transform="scale(0.015625)"/>
        <path id="DejaVuSans-70" d="M 1159 525 
L 1159 -1331 
L 581 -1331 
L 581 3500 
L 1159 3500 
L 1159 2969 
Q 1341 3281 1617 3432 
Q 1894 3584 2278 3584 
Q 2916 3584 3314 3078 
Q 3713 2572 3713 1747 
Q 3713 922 3314 415 
Q 2916 -91 2278 -91 
Q 1894 -91 1617 61 
Q 1341 213 1159 525 
z
M 3116 1747 
Q 3116 2381 2855 2742 
Q 2594 3103 2138 3103 
Q 1681 3103 1420 2742 
Q 1159 2381 1159 1747 
Q 1159 1113 1420 752 
Q 1681 391 2138 391 
Q 2594 391 2855 752 
Q 3116 1113 3116 1747 
z
" transform="scale(0.015625)"/>
        <path id="DejaVuSans-65" d="M 3597 1894 
L 3597 1613 
L 953 1613 
Q 991 1019 1311 708 
Q 1631 397 2203 397 
Q 2534 397 2845 478 
Q 3156 559 3463 722 
L 3463 178 
Q 3153 47 2828 -22 
Q 2503 -91 2169 -91 
Q 1331 -91 842 396 
Q 353 884 353 1716 
Q 353 2575 817 3079 
Q 1281 3584 2069 3584 
Q 2775 3584 3186 3129 
Q 3597 2675 3597 1894 
z
M 3022 2063 
Q 3016 2534 2758 2815 
Q 2500 3097 2075 3097 
Q 1594 3097 1305 2825 
Q 1016 2553 972 2059 
L 3022 2063 
z
" transform="scale(0.015625)"/>
        <path id="DejaVuSans-63" d="M 3122 3366 
L 3122 2828 
Q 2878 2963 2633 3030 
Q 2388 3097 2138 3097 
Q 1578 3097 1268 2742 
Q 959 2388 959 1747 
Q 959 1106 1268 751 
Q 1578 397 2138 397 
Q 2388 397 2633 464 
Q 2878 531 3122 666 
L 3122 134 
Q 2881 22 2623 -34 
Q 2366 -91 2075 -91 
Q 1284 -91 818 406 
Q 353 903 353 1747 
Q 353 2603 823 3093 
Q 1294 3584 2113 3584 
Q 2378 3584 2631 3529 
Q 2884 3475 3122 3366 
z
" transform="scale(0.015625)"/>
        <path id="DejaVuSans-69" d="M 603 3500 
L 1178 3500 
L 1178 0 
L 603 0 
L 603 3500 
z
M 603 4863 
L 1178 4863 
L 1178 4134 
L 603 4134 
L 603 4863 
z
" transform="scale(0.015625)"/>
        <path id="DejaVuSans-66" d="M 2375 4863 
L 2375 4384 
L 1825 4384 
Q 1516 4384 1395 4259 
Q 1275 4134 1275 3809 
L 1275 3500 
L 2222 3500 
L 2222 3053 
L 1275 3053 
L 1275 0 
L 697 0 
L 697 3053 
L 147 3053 
L 147 3500 
L 697 3500 
L 697 3744 
Q 697 4328 969 4595 
Q 1241 4863 1831 4863 
L 2375 4863 
z
" transform="scale(0.015625)"/>
       </defs>
       <use xlink:href="#DejaVuSans-53"/>
       <use xlink:href="#DejaVuSans-70" transform="translate(63.476562 0)"/>
       <use xlink:href="#DejaVuSans-65" transform="translate(126.953125 0)"/>
       <use xlink:href="#DejaVuSans-63" transform="translate(188.476562 0)"/>
       <use xlink:href="#DejaVuSans-69" transform="translate(243.457031 0)"/>
       <use xlink:href="#DejaVuSans-66" transform="translate(271.240234 0)"/>
       <use xlink:href="#DejaVuSans-69" transform="translate(306.445312 0)"/>
       <use xlink:href="#DejaVuSans-63" transform="translate(334.228516 0)"/>
      </g>
     </g>
    </g>
    <g id="xtick_3">
     <g id="line2d_3">
      <g>
       <use xlink:href="#mec53a5d731" x="369" y="320.4" style="stroke: #000000; stroke-width: 0.8"/>
      </g>
     </g>
     <g id="text_3">
      <!-- Spurious -->
      <g transform="translate(347.205469 334.998438) scale(0.1 -0.1)">
       <defs>
        <path id="DejaVuSans-75" d="M 544 1381 
L 544 3500 
L 1119 3500 
L 1119 1403 
Q 1119 906 1312 657 
Q 1506 409 1894 409 
Q 2359 409 2629 706 
Q 2900 1003 2900 1516 
L 2900 3500 
L 3475 3500 
L 3475 0 
L 2900 0 
L 2900 538 
Q 2691 219 2414 64 
Q 2138 -91 1772 -91 
Q 1169 -91 856 284 
Q 544 659 544 1381 
z
M 1991 3584 
L 1991 3584 
z
" transform="scale(0.015625)"/>
        <path id="DejaVuSans-72" d="M 2631 2963 
Q 2534 3019 2420 3045 
Q 2306 3072 2169 3072 
Q 1681 3072 1420 2755 
Q 1159 2438 1159 1844 
L 1159 0 
L 581 0 
L 581 3500 
L 1159 3500 
L 1159 2956 
Q 1341 3275 1631 3429 
Q 1922 3584 2338 3584 
Q 2397 3584 2469 3576 
Q 2541 3569 2628 3553 
L 2631 2963 
z
" transform="scale(0.015625)"/>
        <path id="DejaVuSans-73" d="M 2834 3397 
L 2834 2853 
Q 2591 2978 2328 3040 
Q 2066 3103 1784 3103 
Q 1356 3103 1142 2972 
Q 928 2841 928 2578 
Q 928 2378 1081 2264 
Q 1234 2150 1697 2047 
L 1894 2003 
Q 2506 1872 2764 1633 
Q 3022 1394 3022 966 
Q 3022 478 2636 193 
Q 2250 -91 1575 -91 
Q 1294 -91 989 -36 
Q 684 19 347 128 
L 347 722 
Q 666 556 975 473 
Q 1284 391 1588 391 
Q 1994 391 2212 530 
Q 2431 669 2431 922 
Q 2431 1156 2273 1281 
Q 2116 1406 1581 1522 
L 1381 1569 
Q 847 1681 609 1914 
Q 372 2147 372 2553 
Q 372 3047 722 3315 
Q 1072 3584 1716 3584 
Q 2034 3584 2315 3537 
Q 2597 3491 2834 3397 
z
" transform="scale(0.015625)"/>
       </defs>
       <use xlink:href="#DejaVuSans-53"/>
       <use xlink:href="#DejaVuSans-70" transform="translate(63.476562 0)"/>
       <use xlink:href="#DejaVuSans-75" transform="translate(126.953125 0)"/>
       <use xlink:href="#DejaVuSans-72" transform="translate(190.332031 0)"/>
       <use xlink:href="#DejaVuSans-69" transform="translate(231.445312 0)"/>
       <use xlink:href="#DejaVuSans-6f" transform="translate(259.228516 0)"/>
       <use xlink:href="#DejaVuSans-75" transform="translate(320.410156 0)"/>
       <use xlink:href="#DejaVuSans-73" transform="translate(383.789062 0)"/>
      </g>
     </g>
    </g>
    <g id="xtick_4">
     <g id="line2d_4">
      <g>
       <use xlink:href="#mec53a5d731" x="480.6" y="320.4" style="stroke: #000000; stroke-width: 0.8"/>
      </g>
     </g>
     <g id="text_4">
      <!-- Non-specific -->
      <g transform="translate(449.935156 334.998438) scale(0.1 -0.1)">
       <defs>
        <path id="DejaVuSans-6e" d="M 3513 2113 
L 3513 0 
L 2938 0 
L 2938 2094 
Q 2938 2591 2744 2837 
Q 2550 3084 2163 3084 
Q 1697 3084 1428 2787 
Q 1159 2491 1159 1978 
L 1159 0 
L 581 0 
L 581 3500 
L 1159 3500 
L 1159 2956 
Q 1366 3272 1645 3428 
Q 1925 3584 2291 3584 
Q 2894 3584 3203 3211 
Q 3513 2838 3513 2113 
z
" transform="scale(0.015625)"/>
        <path id="DejaVuSans-2d" d="M 313 2009 
L 1997 2009 
L 1997 1497 
L 313 1497 
L 313 2009 
z
" transform="scale(0.015625)"/>
       </defs>
       <use xlink:href="#DejaVuSans-4e"/>
       <use xlink:href="#DejaVuSans-6f" transform="translate(74.804688 0)"/>
       <use xlink:href="#DejaVuSans-6e" transform="translate(135.986328 0)"/>
       <use xlink:href="#DejaVuSans-2d" transform="translate(199.365234 0)"/>
       <use xlink:href="#DejaVuSans-73" transform="translate(235.449219 0)"/>
       <use xlink:href="#DejaVuSans-70" transform="translate(287.548828 0)"/>
       <use xlink:href="#DejaVuSans-65" transform="translate(351.025391 0)"/>
       <use xlink:href="#DejaVuSans-63" transform="translate(412.548828 0)"/>
       <use xlink:href="#DejaVuSans-69" transform="translate(467.529297 0)"/>
       <use xlink:href="#DejaVuSans-66" transform="translate(495.3125 0)"/>
       <use xlink:href="#DejaVuSans-69" transform="translate(530.517578 0)"/>
       <use xlink:href="#DejaVuSans-63" transform="translate(558.300781 0)"/>
      </g>
     </g>
    </g>
    <g id="xtick_5">
     <g id="line2d_5">
      <g>
       <use xlink:href="#mec53a5d731" x="592.2" y="320.4" style="stroke: #000000; stroke-width: 0.8"/>
      </g>
     </g>
     <g id="text_5">
      <!-- other -->
      <g transform="translate(578.879688 334.998438) scale(0.1 -0.1)">
       <defs>
        <path id="DejaVuSans-74" d="M 1172 4494 
L 1172 3500 
L 2356 3500 
L 2356 3053 
L 1172 3053 
L 1172 1153 
Q 1172 725 1289 603 
Q 1406 481 1766 481 
L 2356 481 
L 2356 0 
L 1766 0 
Q 1100 0 847 248 
Q 594 497 594 1153 
L 594 3053 
L 172 3053 
L 172 3500 
L 594 3500 
L 594 4494 
L 1172 4494 
z
" transform="scale(0.015625)"/>
        <path id="DejaVuSans-68" d="M 3513 2113 
L 3513 0 
L 2938 0 
L 2938 2094 
Q 2938 2591 2744 2837 
Q 2550 3084 2163 3084 
Q 1697 3084 1428 2787 
Q 1159 2491 1159 1978 
L 1159 0 
L 581 0 
L 581 4863 
L 1159 4863 
L 1159 2956 
Q 1366 3272 1645 3428 
Q 1925 3584 2291 3584 
Q 2894 3584 3203 3211 
Q 3513 2838 3513 2113 
z
" transform="scale(0.015625)"/>
       </defs>
       <use xlink:href="#DejaVuSans-6f"/>
       <use xlink:href="#DejaVuSans-74" transform="translate(61.181641 0)"/>
       <use xlink:href="#DejaVuSans-68" transform="translate(100.390625 0)"/>
       <use xlink:href="#DejaVuSans-65" transform="translate(163.769531 0)"/>
       <use xlink:href="#DejaVuSans-72" transform="translate(225.292969 0)"/>
      </g>
     </g>
    </g>
    <g id="text_6">
     <!-- Connectivity category -->
     <g transform="translate(313.98125 348.676562) scale(0.1 -0.1)">
      <defs>
       <path id="DejaVuSans-43" d="M 4122 4306 
L 4122 3641 
Q 3803 3938 3442 4084 
Q 3081 4231 2675 4231 
Q 1875 4231 1450 3742 
Q 1025 3253 1025 2328 
Q 1025 1406 1450 917 
Q 1875 428 2675 428 
Q 3081 428 3442 575 
Q 3803 722 4122 1019 
L 4122 359 
Q 3791 134 3420 21 
Q 3050 -91 2638 -91 
Q 1578 -91 968 557 
Q 359 1206 359 2328 
Q 359 3453 968 4101 
Q 1578 4750 2638 4750 
Q 3056 4750 3426 4639 
Q 3797 4528 4122 4306 
z
" transform="scale(0.015625)"/>
       <path id="DejaVuSans-76" d="M 191 3500 
L 800 3500 
L 1894 563 
L 2988 3500 
L 3597 3500 
L 2284 0 
L 1503 0 
L 191 3500 
z
" transform="scale(0.015625)"/>
       <path id="DejaVuSans-79" d="M 2059 -325 
Q 1816 -950 1584 -1140 
Q 1353 -1331 966 -1331 
L 506 -1331 
L 506 -850 
L 844 -850 
Q 1081 -850 1212 -737 
Q 1344 -625 1503 -206 
L 1606 56 
L 191 3500 
L 800 3500 
L 1894 763 
L 2988 3500 
L 3597 3500 
L 2059 -325 
z
" transform="scale(0.015625)"/>
       <path id="DejaVuSans-20" transform="scale(0.015625)"/>
       <path id="DejaVuSans-61" d="M 2194 1759 
Q 1497 1759 1228 1600 
Q 959 1441 959 1056 
Q 959 750 1161 570 
Q 1363 391 1709 391 
Q 2188 391 2477 730 
Q 2766 1069 2766 1631 
L 2766 1759 
L 2194 1759 
z
M 3341 1997 
L 3341 0 
L 2766 0 
L 2766 531 
Q 2569 213 2275 61 
Q 1981 -91 1556 -91 
Q 1019 -91 701 211 
Q 384 513 384 1019 
Q 384 1609 779 1909 
Q 1175 2209 1959 2209 
L 2766 2209 
L 2766 2266 
Q 2766 2663 2505 2880 
Q 2244 3097 1772 3097 
Q 1472 3097 1187 3025 
Q 903 2953 641 2809 
L 641 3341 
Q 956 3463 1253 3523 
Q 1550 3584 1831 3584 
Q 2591 3584 2966 3190 
Q 3341 2797 3341 1997 
z
" transform="scale(0.015625)"/>
       <path id="DejaVuSans-67" d="M 2906 1791 
Q 2906 2416 2648 2759 
Q 2391 3103 1925 3103 
Q 1463 3103 1205 2759 
Q 947 2416 947 1791 
Q 947 1169 1205 825 
Q 1463 481 1925 481 
Q 2391 481 2648 825 
Q 2906 1169 2906 1791 
z
M 3481 434 
Q 3481 -459 3084 -895 
Q 2688 -1331 1869 -1331 
Q 1566 -1331 1297 -1286 
Q 1028 -1241 775 -1147 
L 775 -588 
Q 1028 -725 1275 -790 
Q 1522 -856 1778 -856 
Q 2344 -856 2625 -561 
Q 2906 -266 2906 331 
L 2906 616 
Q 2728 306 2450 153 
Q 2172 0 1784 0 
Q 1141 0 747 490 
Q 353 981 353 1791 
Q 353 2603 747 3093 
Q 1141 3584 1784 3584 
Q 2172 3584 2450 3431 
Q 2728 3278 2906 2969 
L 2906 3500 
L 3481 3500 
L 3481 434 
z
" transform="scale(0.015625)"/>
      </defs>
      <use xlink:href="#DejaVuSans-43"/>
      <use xlink:href="#DejaVuSans-6f" transform="translate(69.824219 0)"/>
      <use xlink:href="#DejaVuSans-6e" transform="translate(131.005859 0)"/>
      <use xlink:href="#DejaVuSans-6e" transform="translate(194.384766 0)"/>
      <use xlink:href="#DejaVuSans-65" transform="translate(257.763672 0)"/>
      <use xlink:href="#DejaVuSans-63" transform="translate(319.287109 0)"/>
      <use xlink:href="#DejaVuSans-74" transform="translate(374.267578 0)"/>
      <use xlink:href="#DejaVuSans-69" transform="translate(413.476562 0)"/>
      <use xlink:href="#DejaVuSans-76" transform="translate(441.259766 0)"/>
      <use xlink:href="#DejaVuSans-69" transform="translate(500.439453 0)"/>
      <use xlink:href="#DejaVuSans-74" transform="translate(528.222656 0)"/>
      <use xlink:href="#DejaVuSans-79" transform="translate(567.431641 0)"/>
      <use xlink:href="#DejaVuSans-20" transform="translate(626.611328 0)"/>
      <use xlink:href="#DejaVuSans-63" transform="translate(658.398438 0)"/>
      <use xlink:href="#DejaVuSans-61" transform="translate(713.378906 0)"/>
      <use xlink:href="#DejaVuSans-74" transform="translate(774.658203 0)"/>
      <use xlink:href="#DejaVuSans-65" transform="translate(813.867188 0)"/>
      <use xlink:href="#DejaVuSans-67" transform="translate(875.390625 0)"/>
      <use xlink:href="#DejaVuSans-6f" transform="translate(938.867188 0)"/>
      <use xlink:href="#DejaVuSans-72" transform="translate(1000.048828 0)"/>
      <use xlink:href="#DejaVuSans-79" transform="translate(1041.162109 0)"/>
     </g>
    </g>
   </g>
   <g id="matplotlib.axis_2">
    <g id="ytick_1">
     <g id="line2d_6">
      <defs>
       <path id="m53dcc65291" d="M 0 0 
L -3.5 0 
" style="stroke: #000000; stroke-width: 0.8"/>
      </defs>
      <g>
       <use xlink:href="#m53dcc65291" x="90" y="320.4" style="stroke: #000000; stroke-width: 0.8"/>
      </g>
     </g>
     <g id="text_7">
      <!-- 0 -->
      <g transform="translate(76.6375 324.199219) scale(0.1 -0.1)">
       <defs>
        <path id="DejaVuSans-30" d="M 2034 4250 
Q 1547 4250 1301 3770 
Q 1056 3291 1056 2328 
Q 1056 1369 1301 889 
Q 1547 409 2034 409 
Q 2525 409 2770 889 
Q 3016 1369 3016 2328 
Q 3016 3291 2770 3770 
Q 2525 4250 2034 4250 
z
M 2034 4750 
Q 2819 4750 3233 4129 
Q 3647 3509 3647 2328 
Q 3647 1150 3233 529 
Q 2819 -91 2034 -91 
Q 1250 -91 836 529 
Q 422 1150 422 2328 
Q 422 3509 836 4129 
Q 1250 4750 2034 4750 
z
" transform="scale(0.015625)"/>
       </defs>
       <use xlink:href="#DejaVuSans-30"/>
      </g>
     </g>
    </g>
    <g id="ytick_2">
     <g id="line2d_7">
      <g>
       <use xlink:href="#m53dcc65291" x="90" y="281.576471" style="stroke: #000000; stroke-width: 0.8"/>
      </g>
     </g>
     <g id="text_8">
      <!-- 20 -->
      <g transform="translate(70.275 285.375689) scale(0.1 -0.1)">
       <defs>
        <path id="DejaVuSans-32" d="M 1228 531 
L 3431 531 
L 3431 0 
L 469 0 
L 469 531 
Q 828 903 1448 1529 
Q 2069 2156 2228 2338 
Q 2531 2678 2651 2914 
Q 2772 3150 2772 3378 
Q 2772 3750 2511 3984 
Q 2250 4219 1831 4219 
Q 1534 4219 1204 4116 
Q 875 4013 500 3803 
L 500 4441 
Q 881 4594 1212 4672 
Q 1544 4750 1819 4750 
Q 2544 4750 2975 4387 
Q 3406 4025 3406 3419 
Q 3406 3131 3298 2873 
Q 3191 2616 2906 2266 
Q 2828 2175 2409 1742 
Q 1991 1309 1228 531 
z
" transform="scale(0.015625)"/>
       </defs>
       <use xlink:href="#DejaVuSans-32"/>
       <use xlink:href="#DejaVuSans-30" transform="translate(63.623047 0)"/>
      </g>
     </g>
    </g>
    <g id="ytick_3">
     <g id="line2d_8">
      <g>
       <use xlink:href="#m53dcc65291" x="90" y="242.752941" style="stroke: #000000; stroke-width: 0.8"/>
      </g>
     </g>
     <g id="text_9">
      <!-- 40 -->
      <g transform="translate(70.275 246.55216) scale(0.1 -0.1)">
       <defs>
        <path id="DejaVuSans-34" d="M 2419 4116 
L 825 1625 
L 2419 1625 
L 2419 4116 
z
M 2253 4666 
L 3047 4666 
L 3047 1625 
L 3713 1625 
L 3713 1100 
L 3047 1100 
L 3047 0 
L 2419 0 
L 2419 1100 
L 313 1100 
L 313 1709 
L 2253 4666 
z
" transform="scale(0.015625)"/>
       </defs>
       <use xlink:href="#DejaVuSans-34"/>
       <use xlink:href="#DejaVuSans-30" transform="translate(63.623047 0)"/>
      </g>
     </g>
    </g>
    <g id="ytick_4">
     <g id="line2d_9">
      <g>
       <use xlink:href="#m53dcc65291" x="90" y="203.929412" style="stroke: #000000; stroke-width: 0.8"/>
      </g>
     </g>
     <g id="text_10">
      <!-- 60 -->
      <g transform="translate(70.275 207.728631) scale(0.1 -0.1)">
       <defs>
        <path id="DejaVuSans-36" d="M 2113 2584 
Q 1688 2584 1439 2293 
Q 1191 2003 1191 1497 
Q 1191 994 1439 701 
Q 1688 409 2113 409 
Q 2538 409 2786 701 
Q 3034 994 3034 1497 
Q 3034 2003 2786 2293 
Q 2538 2584 2113 2584 
z
M 3366 4563 
L 3366 3988 
Q 3128 4100 2886 4159 
Q 2644 4219 2406 4219 
Q 1781 4219 1451 3797 
Q 1122 3375 1075 2522 
Q 1259 2794 1537 2939 
Q 1816 3084 2150 3084 
Q 2853 3084 3261 2657 
Q 3669 2231 3669 1497 
Q 3669 778 3244 343 
Q 2819 -91 2113 -91 
Q 1303 -91 875 529 
Q 447 1150 447 2328 
Q 447 3434 972 4092 
Q 1497 4750 2381 4750 
Q 2619 4750 2861 4703 
Q 3103 4656 3366 4563 
z
" transform="scale(0.015625)"/>
       </defs>
       <use xlink:href="#DejaVuSans-36"/>
       <use xlink:href="#DejaVuSans-30" transform="translate(63.623047 0)"/>
      </g>
     </g>
    </g>
    <g id="ytick_5">
     <g id="line2d_10">
      <g>
       <use xlink:href="#m53dcc65291" x="90" y="165.105882" style="stroke: #000000; stroke-width: 0.8"/>
      </g>
     </g>
     <g id="text_11">
      <!-- 80 -->
      <g transform="translate(70.275 168.905101) scale(0.1 -0.1)">
       <defs>
        <path id="DejaVuSans-38" d="M 2034 2216 
Q 1584 2216 1326 1975 
Q 1069 1734 1069 1313 
Q 1069 891 1326 650 
Q 1584 409 2034 409 
Q 2484 409 2743 651 
Q 3003 894 3003 1313 
Q 3003 1734 2745 1975 
Q 2488 2216 2034 2216 
z
M 1403 2484 
Q 997 2584 770 2862 
Q 544 3141 544 3541 
Q 544 4100 942 4425 
Q 1341 4750 2034 4750 
Q 2731 4750 3128 4425 
Q 3525 4100 3525 3541 
Q 3525 3141 3298 2862 
Q 3072 2584 2669 2484 
Q 3125 2378 3379 2068 
Q 3634 1759 3634 1313 
Q 3634 634 3220 271 
Q 2806 -91 2034 -91 
Q 1263 -91 848 271 
Q 434 634 434 1313 
Q 434 1759 690 2068 
Q 947 2378 1403 2484 
z
M 1172 3481 
Q 1172 3119 1398 2916 
Q 1625 2713 2034 2713 
Q 2441 2713 2670 2916 
Q 2900 3119 2900 3481 
Q 2900 3844 2670 4047 
Q 2441 4250 2034 4250 
Q 1625 4250 1398 4047 
Q 1172 3844 1172 3481 
z
" transform="scale(0.015625)"/>
       </defs>
       <use xlink:href="#DejaVuSans-38"/>
       <use xlink:href="#DejaVuSans-30" transform="translate(63.623047 0)"/>
      </g>
     </g>
    </g>
    <g id="ytick_6">
     <g id="line2d_11">
      <g>
       <use xlink:href="#m53dcc65291" x="90" y="126.282353" style="stroke: #000000; stroke-width: 0.8"/>
      </g>
     </g>
     <g id="text_12">
      <!-- 100 -->
      <g transform="translate(63.9125 130.081572) scale(0.1 -0.1)">
       <defs>
        <path id="DejaVuSans-31" d="M 794 531 
L 1825 531 
L 1825 4091 
L 703 3866 
L 703 4441 
L 1819 4666 
L 2450 4666 
L 2450 531 
L 3481 531 
L 3481 0 
L 794 0 
L 794 531 
z
" transform="scale(0.015625)"/>
       </defs>
       <use xlink:href="#DejaVuSans-31"/>
       <use xlink:href="#DejaVuSans-30" transform="translate(63.623047 0)"/>
       <use xlink:href="#DejaVuSans-30" transform="translate(127.246094 0)"/>
      </g>
     </g>
    </g>
    <g id="ytick_7">
     <g id="line2d_12">
      <g>
       <use xlink:href="#m53dcc65291" x="90" y="87.458824" style="stroke: #000000; stroke-width: 0.8"/>
      </g>
     </g>
     <g id="text_13">
      <!-- 120 -->
      <g transform="translate(63.9125 91.258042) scale(0.1 -0.1)">
       <use xlink:href="#DejaVuSans-31"/>
       <use xlink:href="#DejaVuSans-32" transform="translate(63.623047 0)"/>
       <use xlink:href="#DejaVuSans-30" transform="translate(127.246094 0)"/>
      </g>
     </g>
    </g>
    <g id="ytick_8">
     <g id="line2d_13">
      <g>
       <use xlink:href="#m53dcc65291" x="90" y="48.635294" style="stroke: #000000; stroke-width: 0.8"/>
      </g>
     </g>
     <g id="text_14">
      <!-- 140 -->
      <g transform="translate(63.9125 52.434513) scale(0.1 -0.1)">
       <use xlink:href="#DejaVuSans-31"/>
       <use xlink:href="#DejaVuSans-34" transform="translate(63.623047 0)"/>
       <use xlink:href="#DejaVuSans-30" transform="translate(127.246094 0)"/>
      </g>
     </g>
    </g>
    <g id="text_15">
     <!-- cont_variable -->
     <g transform="translate(57.554687 215.409375) rotate(-90) scale(0.1 -0.1)">
      <defs>
       <path id="DejaVuSans-5f" d="M 3263 -1063 
L 3263 -1509 
L -63 -1509 
L -63 -1063 
L 3263 -1063 
z
" transform="scale(0.015625)"/>
       <path id="DejaVuSans-62" d="M 3116 1747 
Q 3116 2381 2855 2742 
Q 2594 3103 2138 3103 
Q 1681 3103 1420 2742 
Q 1159 2381 1159 1747 
Q 1159 1113 1420 752 
Q 1681 391 2138 391 
Q 2594 391 2855 752 
Q 3116 1113 3116 1747 
z
M 1159 2969 
Q 1341 3281 1617 3432 
Q 1894 3584 2278 3584 
Q 2916 3584 3314 3078 
Q 3713 2572 3713 1747 
Q 3713 922 3314 415 
Q 2916 -91 2278 -91 
Q 1894 -91 1617 61 
Q 1341 213 1159 525 
L 1159 0 
L 581 0 
L 581 4863 
L 1159 4863 
L 1159 2969 
z
" transform="scale(0.015625)"/>
       <path id="DejaVuSans-6c" d="M 603 4863 
L 1178 4863 
L 1178 0 
L 603 0 
L 603 4863 
z
" transform="scale(0.015625)"/>
      </defs>
      <use xlink:href="#DejaVuSans-63"/>
      <use xlink:href="#DejaVuSans-6f" transform="translate(54.980469 0)"/>
      <use xlink:href="#DejaVuSans-6e" transform="translate(116.162109 0)"/>
      <use xlink:href="#DejaVuSans-74" transform="translate(179.541016 0)"/>
      <use xlink:href="#DejaVuSans-5f" transform="translate(218.75 0)"/>
      <use xlink:href="#DejaVuSans-76" transform="translate(268.75 0)"/>
      <use xlink:href="#DejaVuSans-61" transform="translate(327.929688 0)"/>
      <use xlink:href="#DejaVuSans-72" transform="translate(389.208984 0)"/>
      <use xlink:href="#DejaVuSans-69" transform="translate(430.322266 0)"/>
      <use xlink:href="#DejaVuSans-61" transform="translate(458.105469 0)"/>
      <use xlink:href="#DejaVuSans-62" transform="translate(519.384766 0)"/>
      <use xlink:href="#DejaVuSans-6c" transform="translate(582.861328 0)"/>
      <use xlink:href="#DejaVuSans-65" transform="translate(610.644531 0)"/>
     </g>
    </g>
   </g>
   <g id="line2d_14">
    <path clip-path="url(#p62d84b9b41)" style="fill: none; stroke: #424242; stroke-width: 2.25; stroke-linecap: square"/>
   </g>
   <g id="line2d_15">
    <path clip-path="url(#p62d84b9b41)" style="fill: none; stroke: #424242; stroke-width: 2.25; stroke-linecap: square"/>
   </g>
   <g id="line2d_16">
    <path clip-path="url(#p62d84b9b41)" style="fill: none; stroke: #424242; stroke-width: 2.25; stroke-linecap: square"/>
   </g>
   <g id="line2d_17">
    <path clip-path="url(#p62d84b9b41)" style="fill: none; stroke: #424242; stroke-width: 2.25; stroke-linecap: square"/>
   </g>
   <g id="line2d_18">
    <path clip-path="url(#p62d84b9b41)" style="fill: none; stroke: #424242; stroke-width: 2.25; stroke-linecap: square"/>
   </g>
   <g id="line2d_19">
    <path clip-path="url(#p62d84b9b41)" style="fill: none; stroke: #424242; stroke-width: 2.25; stroke-linecap: square"/>
   </g>
   <g id="line2d_20">
    <path clip-path="url(#p62d84b9b41)" style="fill: none; stroke: #424242; stroke-width: 2.25; stroke-linecap: square"/>
   </g>
   <g id="line2d_21">
    <path clip-path="url(#p62d84b9b41)" style="fill: none; stroke: #424242; stroke-width: 2.25; stroke-linecap: square"/>
   </g>
   <g id="line2d_22">
    <path clip-path="url(#p62d84b9b41)" style="fill: none; stroke: #424242; stroke-width: 2.25; stroke-linecap: square"/>
   </g>
   <g id="line2d_23">
    <path clip-path="url(#p62d84b9b41)" style="fill: none; stroke: #424242; stroke-width: 2.25; stroke-linecap: square"/>
   </g>
   <g id="line2d_24">
    <path clip-path="url(#p62d84b9b41)" style="fill: none; stroke: #424242; stroke-width: 2.25; stroke-linecap: square"/>
   </g>
   <g id="line2d_25">
    <path clip-path="url(#p62d84b9b41)" style="fill: none; stroke: #424242; stroke-width: 2.25; stroke-linecap: square"/>
   </g>
   <g id="line2d_26">
    <path clip-path="url(#p62d84b9b41)" style="fill: none; stroke: #424242; stroke-width: 2.25; stroke-linecap: square"/>
   </g>
   <g id="line2d_27">
    <path clip-path="url(#p62d84b9b41)" style="fill: none; stroke: #424242; stroke-width: 2.25; stroke-linecap: square"/>
   </g>
   <g id="patch_24">
    <path d="M 90 320.4 
L 90 43.2 
" style="fill: none; stroke: #000000; stroke-width: 0.8; stroke-linejoin: miter; stroke-linecap: square"/>
   </g>
   <g id="patch_25">
    <path d="M 648 320.4 
L 648 43.2 
" style="fill: none; stroke: #000000; stroke-width: 0.8; stroke-linejoin: miter; stroke-linecap: square"/>
   </g>
   <g id="patch_26">
    <path d="M 90 320.4 
L 648 320.4 
" style="fill: none; stroke: #000000; stroke-width: 0.8; stroke-linejoin: miter; stroke-linecap: square"/>
   </g>
   <g id="patch_27">
    <path d="M 90 43.2 
L 648 43.2 
" style="fill: none; stroke: #000000; stroke-width: 0.8; stroke-linejoin: miter; stroke-linecap: square"/>
   </g>
   <g id="PathCollection_1">
    <defs>
     <path id="m2d11670b62" d="M 0 2.5 
C 0.663008 2.5 1.29895 2.236584 1.767767 1.767767 
C 2.236584 1.29895 2.5 0.663008 2.5 0 
C 2.5 -0.663008 2.236584 -1.29895 1.767767 -1.767767 
C 1.29895 -2.236584 0.663008 -2.5 0 -2.5 
C -0.663008 -2.5 -1.29895 -2.236584 -1.767767 -1.767767 
C -2.236584 -1.29895 -2.5 -0.663008 -2.5 0 
C -2.5 0.663008 -2.236584 1.29895 -1.767767 1.767767 
C -1.29895 2.236584 -0.663008 2.5 0 2.5 
z
"/>
    </defs>
    <g clip-path="url(#p62d84b9b41)">
     <use xlink:href="#m2d11670b62" x="152.475847" y="304.870588" style="fill-opacity: 0.3"/>
     <use xlink:href="#m2d11670b62" x="143.944301" y="304.870588" style="fill-opacity: 0.3"/>
     <use xlink:href="#m2d11670b62" x="147.362511" y="304.870588" style="fill-opacity: 0.3"/>
     <use xlink:href="#m2d11670b62" x="139.288329" y="304.870588" style="fill-opacity: 0.3"/>
     <use xlink:href="#m2d11670b62" x="139.973647" y="302.929412" style="fill-opacity: 0.3"/>
     <use xlink:href="#m2d11670b62" x="145.136712" y="302.929412" style="fill-opacity: 0.3"/>
     <use xlink:href="#m2d11670b62" x="156.483062" y="302.929412" style="fill-opacity: 0.3"/>
     <use xlink:href="#m2d11670b62" x="155.117944" y="306.811765" style="fill-opacity: 0.3"/>
     <use xlink:href="#m2d11670b62" x="144.041967" y="306.811765" style="fill-opacity: 0.3"/>
     <use xlink:href="#m2d11670b62" x="142.509087" y="306.811765" style="fill-opacity: 0.3"/>
     <use xlink:href="#m2d11670b62" x="136.925936" y="306.811765" style="fill-opacity: 0.3"/>
     <use xlink:href="#m2d11670b62" x="150.234564" y="306.811765" style="fill-opacity: 0.3"/>
     <use xlink:href="#m2d11670b62" x="143.154313" y="306.811765" style="fill-opacity: 0.3"/>
     <use xlink:href="#m2d11670b62" x="148.206156" y="306.811765" style="fill-opacity: 0.3"/>
     <use xlink:href="#m2d11670b62" x="151.243099" y="306.811765" style="fill-opacity: 0.3"/>
     <use xlink:href="#m2d11670b62" x="153.912692" y="306.811765" style="fill-opacity: 0.3"/>
     <use xlink:href="#m2d11670b62" x="140.882671" y="306.811765" style="fill-opacity: 0.3"/>
     <use xlink:href="#m2d11670b62" x="148.994117" y="306.811765" style="fill-opacity: 0.3"/>
     <use xlink:href="#m2d11670b62" x="150.471858" y="306.811765" style="fill-opacity: 0.3"/>
     <use xlink:href="#m2d11670b62" x="151.598692" y="306.811765" style="fill-opacity: 0.3"/>
     <use xlink:href="#m2d11670b62" x="144.795555" y="306.811765" style="fill-opacity: 0.3"/>
     <use xlink:href="#m2d11670b62" x="145.67483" y="302.929412" style="fill-opacity: 0.3"/>
     <use xlink:href="#m2d11670b62" x="145.014819" y="302.929412" style="fill-opacity: 0.3"/>
     <use xlink:href="#m2d11670b62" x="156.133853" y="302.929412" style="fill-opacity: 0.3"/>
     <use xlink:href="#m2d11670b62" x="143.30867" y="302.929412" style="fill-opacity: 0.3"/>
     <use xlink:href="#m2d11670b62" x="144.269273" y="302.929412" style="fill-opacity: 0.3"/>
     <use xlink:href="#m2d11670b62" x="154.207617" y="302.929412" style="fill-opacity: 0.3"/>
     <use xlink:href="#m2d11670b62" x="136.40106" y="302.929412" style="fill-opacity: 0.3"/>
     <use xlink:href="#m2d11670b62" x="146.001244" y="302.929412" style="fill-opacity: 0.3"/>
     <use xlink:href="#m2d11670b62" x="138.256038" y="302.929412" style="fill-opacity: 0.3"/>
    </g>
   </g>
   <g id="PathCollection_2">
    <g clip-path="url(#p62d84b9b41)">
     <use xlink:href="#m2d11670b62" x="250.726498" y="304.870588" style="fill-opacity: 0.3"/>
     <use xlink:href="#m2d11670b62" x="247.376608" y="304.870588" style="fill-opacity: 0.3"/>
     <use xlink:href="#m2d11670b62" x="256.002087" y="304.870588" style="fill-opacity: 0.3"/>
     <use xlink:href="#m2d11670b62" x="246.382086" y="304.870588" style="fill-opacity: 0.3"/>
     <use xlink:href="#m2d11670b62" x="253.816843" y="304.870588" style="fill-opacity: 0.3"/>
     <use xlink:href="#m2d11670b62" x="248.637863" y="304.870588" style="fill-opacity: 0.3"/>
     <use xlink:href="#m2d11670b62" x="261.643359" y="304.870588" style="fill-opacity: 0.3"/>
     <use xlink:href="#m2d11670b62" x="253.378738" y="304.870588" style="fill-opacity: 0.3"/>
     <use xlink:href="#m2d11670b62" x="264.931887" y="304.870588" style="fill-opacity: 0.3"/>
     <use xlink:href="#m2d11670b62" x="262.650818" y="312.635294" style="fill-opacity: 0.3"/>
     <use xlink:href="#m2d11670b62" x="266.920849" y="312.635294" style="fill-opacity: 0.3"/>
     <use xlink:href="#m2d11670b62" x="257.546294" y="304.870588" style="fill-opacity: 0.3"/>
     <use xlink:href="#m2d11670b62" x="248.926566" y="304.870588" style="fill-opacity: 0.3"/>
     <use xlink:href="#m2d11670b62" x="255.229663" y="304.870588" style="fill-opacity: 0.3"/>
     <use xlink:href="#m2d11670b62" x="252.355761" y="302.929412" style="fill-opacity: 0.3"/>
     <use xlink:href="#m2d11670b62" x="258.871998" y="302.929412" style="fill-opacity: 0.3"/>
     <use xlink:href="#m2d11670b62" x="267.440031" y="302.929412" style="fill-opacity: 0.3"/>
     <use xlink:href="#m2d11670b62" x="255.232319" y="302.929412" style="fill-opacity: 0.3"/>
     <use xlink:href="#m2d11670b62" x="247.970401" y="302.929412" style="fill-opacity: 0.3"/>
     <use xlink:href="#m2d11670b62" x="260.008305" y="302.929412" style="fill-opacity: 0.3"/>
     <use xlink:href="#m2d11670b62" x="261.655917" y="302.929412" style="fill-opacity: 0.3"/>
     <use xlink:href="#m2d11670b62" x="250.370999" y="302.929412" style="fill-opacity: 0.3"/>
     <use xlink:href="#m2d11670b62" x="267.891418" y="302.929412" style="fill-opacity: 0.3"/>
     <use xlink:href="#m2d11670b62" x="259.487745" y="302.929412" style="fill-opacity: 0.3"/>
     <use xlink:href="#m2d11670b62" x="250.834678" y="302.929412" style="fill-opacity: 0.3"/>
     <use xlink:href="#m2d11670b62" x="261.321735" y="302.929412" style="fill-opacity: 0.3"/>
     <use xlink:href="#m2d11670b62" x="258.900952" y="302.929412" style="fill-opacity: 0.3"/>
     <use xlink:href="#m2d11670b62" x="266.903368" y="302.929412" style="fill-opacity: 0.3"/>
     <use xlink:href="#m2d11670b62" x="262.285373" y="302.929412" style="fill-opacity: 0.3"/>
     <use xlink:href="#m2d11670b62" x="261.123271" y="302.929412" style="fill-opacity: 0.3"/>
     <use xlink:href="#m2d11670b62" x="267.16254" y="302.929412" style="fill-opacity: 0.3"/>
     <use xlink:href="#m2d11670b62" x="252.403964" y="302.929412" style="fill-opacity: 0.3"/>
     <use xlink:href="#m2d11670b62" x="257.64647" y="302.929412" style="fill-opacity: 0.3"/>
     <use xlink:href="#m2d11670b62" x="257.028416" y="302.929412" style="fill-opacity: 0.3"/>
     <use xlink:href="#m2d11670b62" x="267.332483" y="302.929412" style="fill-opacity: 0.3"/>
     <use xlink:href="#m2d11670b62" x="247.933955" y="302.929412" style="fill-opacity: 0.3"/>
     <use xlink:href="#m2d11670b62" x="250.364473" y="302.929412" style="fill-opacity: 0.3"/>
     <use xlink:href="#m2d11670b62" x="251.183185" y="302.929412" style="fill-opacity: 0.3"/>
     <use xlink:href="#m2d11670b62" x="260.773258" y="302.929412" style="fill-opacity: 0.3"/>
     <use xlink:href="#m2d11670b62" x="257.657386" y="302.929412" style="fill-opacity: 0.3"/>
     <use xlink:href="#m2d11670b62" x="252.559221" y="302.929412" style="fill-opacity: 0.3"/>
     <use xlink:href="#m2d11670b62" x="258.983219" y="302.929412" style="fill-opacity: 0.3"/>
     <use xlink:href="#m2d11670b62" x="249.328993" y="302.929412" style="fill-opacity: 0.3"/>
     <use xlink:href="#m2d11670b62" x="265.096348" y="302.929412" style="fill-opacity: 0.3"/>
     <use xlink:href="#m2d11670b62" x="247.36185" y="302.929412" style="fill-opacity: 0.3"/>
     <use xlink:href="#m2d11670b62" x="265.680545" y="302.929412" style="fill-opacity: 0.3"/>
     <use xlink:href="#m2d11670b62" x="248.36956" y="302.929412" style="fill-opacity: 0.3"/>
     <use xlink:href="#m2d11670b62" x="255.972846" y="302.929412" style="fill-opacity: 0.3"/>
     <use xlink:href="#m2d11670b62" x="264.793503" y="306.811765" style="fill-opacity: 0.3"/>
     <use xlink:href="#m2d11670b62" x="268.556973" y="306.811765" style="fill-opacity: 0.3"/>
     <use xlink:href="#m2d11670b62" x="263.374435" y="306.811765" style="fill-opacity: 0.3"/>
     <use xlink:href="#m2d11670b62" x="255.377743" y="306.811765" style="fill-opacity: 0.3"/>
     <use xlink:href="#m2d11670b62" x="248.382272" y="306.811765" style="fill-opacity: 0.3"/>
     <use xlink:href="#m2d11670b62" x="261.450755" y="306.811765" style="fill-opacity: 0.3"/>
     <use xlink:href="#m2d11670b62" x="264.15901" y="306.811765" style="fill-opacity: 0.3"/>
     <use xlink:href="#m2d11670b62" x="251.080848" y="306.811765" style="fill-opacity: 0.3"/>
     <use xlink:href="#m2d11670b62" x="246.386943" y="306.811765" style="fill-opacity: 0.3"/>
     <use xlink:href="#m2d11670b62" x="247.648721" y="306.811765" style="fill-opacity: 0.3"/>
     <use xlink:href="#m2d11670b62" x="251.036444" y="306.811765" style="fill-opacity: 0.3"/>
     <use xlink:href="#m2d11670b62" x="247.825837" y="306.811765" style="fill-opacity: 0.3"/>
     <use xlink:href="#m2d11670b62" x="254.978923" y="306.811765" style="fill-opacity: 0.3"/>
     <use xlink:href="#m2d11670b62" x="257.866664" y="306.811765" style="fill-opacity: 0.3"/>
     <use xlink:href="#m2d11670b62" x="251.706092" y="306.811765" style="fill-opacity: 0.3"/>
     <use xlink:href="#m2d11670b62" x="254.713615" y="306.811765" style="fill-opacity: 0.3"/>
     <use xlink:href="#m2d11670b62" x="265.298062" y="306.811765" style="fill-opacity: 0.3"/>
     <use xlink:href="#m2d11670b62" x="253.490524" y="306.811765" style="fill-opacity: 0.3"/>
     <use xlink:href="#m2d11670b62" x="252.240494" y="306.811765" style="fill-opacity: 0.3"/>
     <use xlink:href="#m2d11670b62" x="250.050551" y="306.811765" style="fill-opacity: 0.3"/>
     <use xlink:href="#m2d11670b62" x="251.172199" y="306.811765" style="fill-opacity: 0.3"/>
     <use xlink:href="#m2d11670b62" x="254.364722" y="306.811765" style="fill-opacity: 0.3"/>
     <use xlink:href="#m2d11670b62" x="257.302932" y="306.811765" style="fill-opacity: 0.3"/>
     <use xlink:href="#m2d11670b62" x="253.863448" y="306.811765" style="fill-opacity: 0.3"/>
     <use xlink:href="#m2d11670b62" x="254.118699" y="302.929412" style="fill-opacity: 0.3"/>
     <use xlink:href="#m2d11670b62" x="252.974633" y="302.929412" style="fill-opacity: 0.3"/>
     <use xlink:href="#m2d11670b62" x="260.634641" y="302.929412" style="fill-opacity: 0.3"/>
     <use xlink:href="#m2d11670b62" x="256.74092" y="302.929412" style="fill-opacity: 0.3"/>
    </g>
   </g>
   <g id="PathCollection_3">
    <g clip-path="url(#p62d84b9b41)">
     <use xlink:href="#m2d11670b62" x="371.512077" y="304.870588" style="fill-opacity: 0.3"/>
     <use xlink:href="#m2d11670b62" x="370.261729" y="312.635294" style="fill-opacity: 0.3"/>
     <use xlink:href="#m2d11670b62" x="376.600889" y="312.635294" style="fill-opacity: 0.3"/>
     <use xlink:href="#m2d11670b62" x="370.077643" y="302.929412" style="fill-opacity: 0.3"/>
     <use xlink:href="#m2d11670b62" x="369.019523" y="302.929412" style="fill-opacity: 0.3"/>
     <use xlink:href="#m2d11670b62" x="368.267659" y="302.929412" style="fill-opacity: 0.3"/>
     <use xlink:href="#m2d11670b62" x="373.501795" y="302.929412" style="fill-opacity: 0.3"/>
     <use xlink:href="#m2d11670b62" x="367.66769" y="302.929412" style="fill-opacity: 0.3"/>
     <use xlink:href="#m2d11670b62" x="378.546863" y="302.929412" style="fill-opacity: 0.3"/>
     <use xlink:href="#m2d11670b62" x="357.917832" y="302.929412" style="fill-opacity: 0.3"/>
     <use xlink:href="#m2d11670b62" x="371.633664" y="302.929412" style="fill-opacity: 0.3"/>
     <use xlink:href="#m2d11670b62" x="359.779709" y="302.929412" style="fill-opacity: 0.3"/>
     <use xlink:href="#m2d11670b62" x="361.80683" y="302.929412" style="fill-opacity: 0.3"/>
     <use xlink:href="#m2d11670b62" x="376.071796" y="302.929412" style="fill-opacity: 0.3"/>
     <use xlink:href="#m2d11670b62" x="366.50745" y="302.929412" style="fill-opacity: 0.3"/>
     <use xlink:href="#m2d11670b62" x="377.156715" y="302.929412" style="fill-opacity: 0.3"/>
     <use xlink:href="#m2d11670b62" x="367.159983" y="302.929412" style="fill-opacity: 0.3"/>
     <use xlink:href="#m2d11670b62" x="359.747707" y="302.929412" style="fill-opacity: 0.3"/>
     <use xlink:href="#m2d11670b62" x="374.803034" y="302.929412" style="fill-opacity: 0.3"/>
     <use xlink:href="#m2d11670b62" x="362.512201" y="302.929412" style="fill-opacity: 0.3"/>
     <use xlink:href="#m2d11670b62" x="372.169848" y="302.929412" style="fill-opacity: 0.3"/>
     <use xlink:href="#m2d11670b62" x="374.610939" y="302.929412" style="fill-opacity: 0.3"/>
     <use xlink:href="#m2d11670b62" x="378.64191" y="302.929412" style="fill-opacity: 0.3"/>
     <use xlink:href="#m2d11670b62" x="369.719846" y="306.811765" style="fill-opacity: 0.3"/>
     <use xlink:href="#m2d11670b62" x="376.505665" y="306.811765" style="fill-opacity: 0.3"/>
     <use xlink:href="#m2d11670b62" x="362.011069" y="306.811765" style="fill-opacity: 0.3"/>
     <use xlink:href="#m2d11670b62" x="359.048511" y="306.811765" style="fill-opacity: 0.3"/>
     <use xlink:href="#m2d11670b62" x="369.918777" y="306.811765" style="fill-opacity: 0.3"/>
     <use xlink:href="#m2d11670b62" x="375.58758" y="306.811765" style="fill-opacity: 0.3"/>
     <use xlink:href="#m2d11670b62" x="378.921905" y="306.811765" style="fill-opacity: 0.3"/>
     <use xlink:href="#m2d11670b62" x="366.281967" y="306.811765" style="fill-opacity: 0.3"/>
     <use xlink:href="#m2d11670b62" x="360.595857" y="306.811765" style="fill-opacity: 0.3"/>
     <use xlink:href="#m2d11670b62" x="368.853562" y="306.811765" style="fill-opacity: 0.3"/>
     <use xlink:href="#m2d11670b62" x="362.126662" y="306.811765" style="fill-opacity: 0.3"/>
     <use xlink:href="#m2d11670b62" x="359.267775" y="306.811765" style="fill-opacity: 0.3"/>
     <use xlink:href="#m2d11670b62" x="365.858821" y="302.929412" style="fill-opacity: 0.3"/>
     <use xlink:href="#m2d11670b62" x="377.623947" y="302.929412" style="fill-opacity: 0.3"/>
     <use xlink:href="#m2d11670b62" x="360.126221" y="302.929412" style="fill-opacity: 0.3"/>
     <use xlink:href="#m2d11670b62" x="374.276525" y="302.929412" style="fill-opacity: 0.3"/>
     <use xlink:href="#m2d11670b62" x="377.218871" y="302.929412" style="fill-opacity: 0.3"/>
     <use xlink:href="#m2d11670b62" x="369.190802" y="302.929412" style="fill-opacity: 0.3"/>
     <use xlink:href="#m2d11670b62" x="375.376812" y="302.929412" style="fill-opacity: 0.3"/>
    </g>
   </g>
   <g id="PathCollection_4">
    <g clip-path="url(#p62d84b9b41)">
     <use xlink:href="#m2d11670b62" x="480.57076" y="304.870588" style="fill-opacity: 0.3"/>
     <use xlink:href="#m2d11670b62" x="475.71857" y="304.870588" style="fill-opacity: 0.3"/>
     <use xlink:href="#m2d11670b62" x="482.413397" y="304.870588" style="fill-opacity: 0.3"/>
     <use xlink:href="#m2d11670b62" x="491.015246" y="312.635294" style="fill-opacity: 0.3"/>
     <use xlink:href="#m2d11670b62" x="487.841417" y="312.635294" style="fill-opacity: 0.3"/>
     <use xlink:href="#m2d11670b62" x="483.996965" y="312.635294" style="fill-opacity: 0.3"/>
     <use xlink:href="#m2d11670b62" x="479.194492" y="312.635294" style="fill-opacity: 0.3"/>
     <use xlink:href="#m2d11670b62" x="482.457667" y="312.635294" style="fill-opacity: 0.3"/>
     <use xlink:href="#m2d11670b62" x="483.692843" y="304.870588" style="fill-opacity: 0.3"/>
     <use xlink:href="#m2d11670b62" x="487.799093" y="312.635294" style="fill-opacity: 0.3"/>
     <use xlink:href="#m2d11670b62" x="482.041758" y="312.635294" style="fill-opacity: 0.3"/>
     <use xlink:href="#m2d11670b62" x="472.876877" y="312.635294" style="fill-opacity: 0.3"/>
     <use xlink:href="#m2d11670b62" x="472.533483" y="302.929412" style="fill-opacity: 0.3"/>
     <use xlink:href="#m2d11670b62" x="472.278584" y="302.929412" style="fill-opacity: 0.3"/>
     <use xlink:href="#m2d11670b62" x="475.260246" y="302.929412" style="fill-opacity: 0.3"/>
     <use xlink:href="#m2d11670b62" x="481.967338" y="302.929412" style="fill-opacity: 0.3"/>
     <use xlink:href="#m2d11670b62" x="470.140815" y="302.929412" style="fill-opacity: 0.3"/>
     <use xlink:href="#m2d11670b62" x="491.739547" y="302.929412" style="fill-opacity: 0.3"/>
     <use xlink:href="#m2d11670b62" x="488.127404" y="302.929412" style="fill-opacity: 0.3"/>
     <use xlink:href="#m2d11670b62" x="488.395044" y="302.929412" style="fill-opacity: 0.3"/>
     <use xlink:href="#m2d11670b62" x="491.145889" y="302.929412" style="fill-opacity: 0.3"/>
     <use xlink:href="#m2d11670b62" x="476.989805" y="302.929412" style="fill-opacity: 0.3"/>
     <use xlink:href="#m2d11670b62" x="471.192361" y="302.929412" style="fill-opacity: 0.3"/>
     <use xlink:href="#m2d11670b62" x="489.742168" y="302.929412" style="fill-opacity: 0.3"/>
     <use xlink:href="#m2d11670b62" x="480.484771" y="302.929412" style="fill-opacity: 0.3"/>
     <use xlink:href="#m2d11670b62" x="475.967692" y="302.929412" style="fill-opacity: 0.3"/>
     <use xlink:href="#m2d11670b62" x="480.955235" y="302.929412" style="fill-opacity: 0.3"/>
     <use xlink:href="#m2d11670b62" x="485.285646" y="302.929412" style="fill-opacity: 0.3"/>
     <use xlink:href="#m2d11670b62" x="470.488722" y="302.929412" style="fill-opacity: 0.3"/>
     <use xlink:href="#m2d11670b62" x="486.527515" y="302.929412" style="fill-opacity: 0.3"/>
     <use xlink:href="#m2d11670b62" x="483.364885" y="302.929412" style="fill-opacity: 0.3"/>
     <use xlink:href="#m2d11670b62" x="489.054786" y="302.929412" style="fill-opacity: 0.3"/>
     <use xlink:href="#m2d11670b62" x="490.659886" y="302.929412" style="fill-opacity: 0.3"/>
     <use xlink:href="#m2d11670b62" x="478.543116" y="302.929412" style="fill-opacity: 0.3"/>
     <use xlink:href="#m2d11670b62" x="488.687831" y="302.929412" style="fill-opacity: 0.3"/>
     <use xlink:href="#m2d11670b62" x="483.365726" y="302.929412" style="fill-opacity: 0.3"/>
     <use xlink:href="#m2d11670b62" x="471.411852" y="302.929412" style="fill-opacity: 0.3"/>
     <use xlink:href="#m2d11670b62" x="476.238328" y="302.929412" style="fill-opacity: 0.3"/>
     <use xlink:href="#m2d11670b62" x="478.32862" y="302.929412" style="fill-opacity: 0.3"/>
     <use xlink:href="#m2d11670b62" x="475.291553" y="302.929412" style="fill-opacity: 0.3"/>
     <use xlink:href="#m2d11670b62" x="473.16191" y="302.929412" style="fill-opacity: 0.3"/>
     <use xlink:href="#m2d11670b62" x="472.104364" y="302.929412" style="fill-opacity: 0.3"/>
     <use xlink:href="#m2d11670b62" x="490.973062" y="302.929412" style="fill-opacity: 0.3"/>
     <use xlink:href="#m2d11670b62" x="479.518014" y="302.929412" style="fill-opacity: 0.3"/>
     <use xlink:href="#m2d11670b62" x="471.246846" y="302.929412" style="fill-opacity: 0.3"/>
     <use xlink:href="#m2d11670b62" x="473.193371" y="302.929412" style="fill-opacity: 0.3"/>
     <use xlink:href="#m2d11670b62" x="488.886719" y="302.929412" style="fill-opacity: 0.3"/>
     <use xlink:href="#m2d11670b62" x="483.862465" y="302.929412" style="fill-opacity: 0.3"/>
     <use xlink:href="#m2d11670b62" x="482.759864" y="302.929412" style="fill-opacity: 0.3"/>
     <use xlink:href="#m2d11670b62" x="488.505109" y="302.929412" style="fill-opacity: 0.3"/>
     <use xlink:href="#m2d11670b62" x="490.082399" y="302.929412" style="fill-opacity: 0.3"/>
     <use xlink:href="#m2d11670b62" x="489.181411" y="302.929412" style="fill-opacity: 0.3"/>
     <use xlink:href="#m2d11670b62" x="476.825689" y="306.811765" style="fill-opacity: 0.3"/>
     <use xlink:href="#m2d11670b62" x="485.262543" y="306.811765" style="fill-opacity: 0.3"/>
     <use xlink:href="#m2d11670b62" x="485.978289" y="306.811765" style="fill-opacity: 0.3"/>
     <use xlink:href="#m2d11670b62" x="478.059371" y="306.811765" style="fill-opacity: 0.3"/>
     <use xlink:href="#m2d11670b62" x="471.453296" y="306.811765" style="fill-opacity: 0.3"/>
     <use xlink:href="#m2d11670b62" x="480.569174" y="306.811765" style="fill-opacity: 0.3"/>
     <use xlink:href="#m2d11670b62" x="477.232148" y="306.811765" style="fill-opacity: 0.3"/>
     <use xlink:href="#m2d11670b62" x="483.489723" y="306.811765" style="fill-opacity: 0.3"/>
     <use xlink:href="#m2d11670b62" x="476.539547" y="306.811765" style="fill-opacity: 0.3"/>
     <use xlink:href="#m2d11670b62" x="470.324876" y="306.811765" style="fill-opacity: 0.3"/>
     <use xlink:href="#m2d11670b62" x="485.007983" y="302.929412" style="fill-opacity: 0.3"/>
    </g>
   </g>
   <g id="legend_1">
    <g id="patch_28">
     <path d="M 97 168.625 
L 178.5125 168.625 
Q 180.5125 168.625 180.5125 166.625 
L 180.5125 50.2 
Q 180.5125 48.2 178.5125 48.2 
L 97 48.2 
Q 95 48.2 95 50.2 
L 95 166.625 
Q 95 168.625 97 168.625 
z
" style="fill: #ffffff; opacity: 0.8; stroke: #cccccc; stroke-linejoin: miter"/>
    </g>
    <g id="text_16">
     <!-- body.restrained -->
     <g transform="translate(99 59.798437) scale(0.1 -0.1)">
      <defs>
       <path id="DejaVuSans-64" d="M 2906 2969 
L 2906 4863 
L 3481 4863 
L 3481 0 
L 2906 0 
L 2906 525 
Q 2725 213 2448 61 
Q 2172 -91 1784 -91 
Q 1150 -91 751 415 
Q 353 922 353 1747 
Q 353 2572 751 3078 
Q 1150 3584 1784 3584 
Q 2172 3584 2448 3432 
Q 2725 3281 2906 2969 
z
M 947 1747 
Q 947 1113 1208 752 
Q 1469 391 1925 391 
Q 2381 391 2643 752 
Q 2906 1113 2906 1747 
Q 2906 2381 2643 2742 
Q 2381 3103 1925 3103 
Q 1469 3103 1208 2742 
Q 947 2381 947 1747 
z
" transform="scale(0.015625)"/>
       <path id="DejaVuSans-2e" d="M 684 794 
L 1344 794 
L 1344 0 
L 684 0 
L 684 794 
z
" transform="scale(0.015625)"/>
      </defs>
      <use xlink:href="#DejaVuSans-62"/>
      <use xlink:href="#DejaVuSans-6f" transform="translate(63.476562 0)"/>
      <use xlink:href="#DejaVuSans-64" transform="translate(124.658203 0)"/>
      <use xlink:href="#DejaVuSans-79" transform="translate(188.134766 0)"/>
      <use xlink:href="#DejaVuSans-2e" transform="translate(233.064453 0)"/>
      <use xlink:href="#DejaVuSans-72" transform="translate(264.851562 0)"/>
      <use xlink:href="#DejaVuSans-65" transform="translate(303.714844 0)"/>
      <use xlink:href="#DejaVuSans-73" transform="translate(365.238281 0)"/>
      <use xlink:href="#DejaVuSans-74" transform="translate(417.337891 0)"/>
      <use xlink:href="#DejaVuSans-72" transform="translate(456.546875 0)"/>
      <use xlink:href="#DejaVuSans-61" transform="translate(497.660156 0)"/>
      <use xlink:href="#DejaVuSans-69" transform="translate(558.939453 0)"/>
      <use xlink:href="#DejaVuSans-6e" transform="translate(586.722656 0)"/>
      <use xlink:href="#DejaVuSans-65" transform="translate(650.101562 0)"/>
      <use xlink:href="#DejaVuSans-64" transform="translate(711.625 0)"/>
     </g>
    </g>
    <g id="patch_29">
     <path d="M 118.885937 74.476562 
L 138.885938 74.476562 
L 138.885938 67.476562 
L 118.885937 67.476562 
z
" style="fill: #3274a1"/>
    </g>
    <g id="text_17">
     <!-- f -->
     <g transform="translate(146.885938 74.476562) scale(0.1 -0.1)">
      <use xlink:href="#DejaVuSans-66"/>
     </g>
    </g>
    <g id="patch_30">
     <path d="M 118.885937 89.154688 
L 138.885938 89.154688 
L 138.885938 82.154688 
L 118.885937 82.154688 
z
" style="fill: #e1812c"/>
    </g>
    <g id="text_18">
     <!-- m -->
     <g transform="translate(146.885938 89.154688) scale(0.1 -0.1)">
      <defs>
       <path id="DejaVuSans-6d" d="M 3328 2828 
Q 3544 3216 3844 3400 
Q 4144 3584 4550 3584 
Q 5097 3584 5394 3201 
Q 5691 2819 5691 2113 
L 5691 0 
L 5113 0 
L 5113 2094 
Q 5113 2597 4934 2840 
Q 4756 3084 4391 3084 
Q 3944 3084 3684 2787 
Q 3425 2491 3425 1978 
L 3425 0 
L 2847 0 
L 2847 2094 
Q 2847 2600 2669 2842 
Q 2491 3084 2119 3084 
Q 1678 3084 1418 2786 
Q 1159 2488 1159 1978 
L 1159 0 
L 581 0 
L 581 3500 
L 1159 3500 
L 1159 2956 
Q 1356 3278 1631 3431 
Q 1906 3584 2284 3584 
Q 2666 3584 2933 3390 
Q 3200 3197 3328 2828 
z
" transform="scale(0.015625)"/>
      </defs>
      <use xlink:href="#DejaVuSans-6d"/>
     </g>
    </g>
    <g id="patch_31">
     <path d="M 118.885937 103.832812 
L 138.885938 103.832812 
L 138.885938 96.832812 
L 118.885937 96.832812 
z
" style="fill: #3274a1"/>
    </g>
    <g id="text_19">
     <!-- f -->
     <g transform="translate(146.885938 103.832812) scale(0.1 -0.1)">
      <use xlink:href="#DejaVuSans-66"/>
     </g>
    </g>
    <g id="patch_32">
     <path d="M 118.885937 118.510938 
L 138.885938 118.510938 
L 138.885938 111.510938 
L 118.885937 111.510938 
z
" style="fill: #e1812c"/>
    </g>
    <g id="text_20">
     <!-- m -->
     <g transform="translate(146.885938 118.510938) scale(0.1 -0.1)">
      <use xlink:href="#DejaVuSans-6d"/>
     </g>
    </g>
    <g id="patch_33">
     <path d="M 118.885937 133.189063 
L 138.885938 133.189063 
L 138.885938 126.189063 
L 118.885937 126.189063 
z
" style="fill: #3274a1"/>
    </g>
    <g id="text_21">
     <!-- n -->
     <g transform="translate(146.885938 133.189063) scale(0.1 -0.1)">
      <use xlink:href="#DejaVuSans-6e"/>
     </g>
    </g>
    <g id="patch_34">
     <path d="M 118.885937 147.867188 
L 138.885938 147.867188 
L 138.885938 140.867188 
L 118.885937 140.867188 
z
" style="fill: #e1812c"/>
    </g>
    <g id="text_22">
     <!-- y -->
     <g transform="translate(146.885938 147.867188) scale(0.1 -0.1)">
      <use xlink:href="#DejaVuSans-79"/>
     </g>
    </g>
    <g id="patch_35">
     <path d="M 118.885937 162.545312 
L 138.885938 162.545312 
L 138.885938 155.545312 
L 118.885937 155.545312 
z
" style="fill: #3274a1"/>
    </g>
    <g id="text_23">
     <!-- y -->
     <g transform="translate(146.885938 162.545312) scale(0.1 -0.1)">
      <use xlink:href="#DejaVuSans-79"/>
     </g>
    </g>
   </g>
  </g>
 </g>
 <defs>
  <clipPath id="p62d84b9b41">
   <rect x="90" y="43.2" width="558" height="277.2"/>
  </clipPath>
 </defs>
</svg>
