<?xml version="1.0" encoding="utf-8" standalone="no"?>
<!DOCTYPE svg PUBLIC "-//W3C//DTD SVG 1.1//EN"
  "http://www.w3.org/Graphics/SVG/1.1/DTD/svg11.dtd">
<svg xmlns:xlink="http://www.w3.org/1999/xlink" width="720pt" height="360pt" viewBox="0 0 720 360" xmlns="http://www.w3.org/2000/svg" version="1.1">
 <metadata>
  <rdf:RDF xmlns:dc="http://purl.org/dc/elements/1.1/" xmlns:cc="http://creativecommons.org/ns#" xmlns:rdf="http://www.w3.org/1999/02/22-rdf-syntax-ns#">
   <cc:Work>
    <dc:type rdf:resource="http://purl.org/dc/dcmitype/StillImage"/>
    <dc:date>2025-09-09T16:54:26.284173</dc:date>
    <dc:format>image/svg+xml</dc:format>
    <dc:creator>
     <cc:Agent>
      <dc:title>Matplotlib v3.10.3, https://matplotlib.org/</dc:title>
     </cc:Agent>
    </dc:creator>
   </cc:Work>
  </rdf:RDF>
 </metadata>
 <defs>
  <style type="text/css">*{stroke-linejoin: round; stroke-linecap: butt}</style>
 </defs>
 <g id="figure_1">
  <g id="patch_1">
   <path d="M 0 360 
L 720 360 
L 720 0 
L 0 0 
z
" style="fill: #ffffff"/>
  </g>
  <g id="axes_1">
   <g id="patch_2">
    <path d="M 90 320.4 
L 648 320.4 
L 648 43.2 
L 90 43.2 
z
" style="fill: #ffffff"/>
   </g>
   <g id="FillBetweenPolyCollection_1">
    <defs>
     <path id="me2d61b0a2b" d="M 146.195146 -44.763543 
L 145.404854 -44.763543 
L 145.29013 -44.893463 
L 145.153427 -45.023384 
L 144.99419 -45.153304 
L 144.81303 -45.283224 
L 144.611957 -45.413144 
L 144.394544 -45.543065 
L 144.165975 -45.672985 
L 143.932946 -45.802905 
L 143.703418 -45.932825 
L 143.486213 -46.062745 
L 143.290475 -46.192666 
L 143.125045 -46.322586 
L 142.997807 -46.452506 
L 142.915061 -46.582426 
L 142.881013 -46.712347 
L 142.897413 -46.842267 
L 142.963409 -46.972187 
L 143.075617 -47.102107 
L 143.228401 -47.232028 
L 143.414336 -47.361948 
L 143.62479 -47.491868 
L 143.850562 -47.621788 
L 144.082502 -47.751708 
L 144.312048 -47.881629 
L 144.531628 -48.011549 
L 144.734888 -48.141469 
L 144.91673 -48.271389 
L 145.073163 -48.40131 
L 145.200975 -48.53123 
L 145.297269 -48.66115 
L 145.358882 -48.79107 
L 145.381735 -48.920991 
L 145.360164 -49.050911 
L 145.286287 -49.180831 
L 145.149452 -49.310751 
L 144.935873 -49.440671 
L 144.628499 -49.570592 
L 144.207236 -49.700512 
L 143.649587 -49.830432 
L 142.931799 -49.960352 
L 142.030523 -50.090273 
L 140.924997 -50.220193 
L 139.599635 -50.350113 
L 138.046858 -50.480033 
L 136.269898 -50.609954 
L 134.285254 -50.739874 
L 132.124426 -50.869794 
L 129.834575 -50.999714 
L 127.477807 -51.129634 
L 125.128927 -51.259555 
L 122.871638 -51.389475 
L 120.793394 -51.519395 
L 118.9793 -51.649315 
L 117.505598 -51.779236 
L 116.433415 -51.909156 
L 115.803428 -52.039076 
L 115.632026 -52.168996 
L 115.909414 -52.298917 
L 116.599817 -52.428837 
L 117.643731 -52.558757 
L 118.961908 -52.688677 
L 120.460571 -52.818597 
L 122.03728 -52.948518 
L 123.586839 -53.078438 
L 125.006765 -53.208358 
L 126.201974 -53.338278 
L 127.088566 -53.468199 
L 127.596736 -53.598119 
L 127.673028 -53.728039 
L 127.282153 -53.857959 
L 126.408592 -53.98788 
L 125.058081 -54.1178 
L 123.258922 -54.24772 
L 121.062872 -54.37764 
L 118.545241 -54.50756 
L 115.803762 -54.637481 
L 112.955833 -54.767401 
L 110.133884 -54.897321 
L 107.478859 -55.027241 
L 105.132099 -55.157162 
L 103.22622 -55.287082 
L 101.875797 -55.417002 
L 101.16884 -55.546922 
L 101.16 -55.676843 
L 101.866338 -55.806763 
L 103.266178 -55.936683 
L 105.301218 -56.066603 
L 107.881676 -56.196523 
L 110.893874 -56.326444 
L 114.209407 -56.456364 
L 117.69489 -56.586284 
L 121.221286 -56.716204 
L 124.671925 -56.846125 
L 127.948592 -56.976045 
L 130.975334 -57.105965 
L 133.699927 -57.235885 
L 136.093237 -57.365806 
L 138.14688 -57.495726 
L 139.869712 -57.625646 
L 151.730288 -57.625646 
L 151.730288 -57.625646 
L 153.45312 -57.495726 
L 155.506763 -57.365806 
L 157.900073 -57.235885 
L 160.624666 -57.105965 
L 163.651408 -56.976045 
L 166.928075 -56.846125 
L 170.378714 -56.716204 
L 173.90511 -56.586284 
L 177.390593 -56.456364 
L 180.706126 -56.326444 
L 183.718324 -56.196523 
L 186.298782 -56.066603 
L 188.333822 -55.936683 
L 189.733662 -55.806763 
L 190.44 -55.676843 
L 190.43116 -55.546922 
L 189.724203 -55.417002 
L 188.37378 -55.287082 
L 186.467901 -55.157162 
L 184.121141 -55.027241 
L 181.466116 -54.897321 
L 178.644167 -54.767401 
L 175.796238 -54.637481 
L 173.054759 -54.50756 
L 170.537128 -54.37764 
L 168.341078 -54.24772 
L 166.541919 -54.1178 
L 165.191408 -53.98788 
L 164.317847 -53.857959 
L 163.926972 -53.728039 
L 164.003264 -53.598119 
L 164.511434 -53.468199 
L 165.398026 -53.338278 
L 166.593235 -53.208358 
L 168.013161 -53.078438 
L 169.56272 -52.948518 
L 171.139429 -52.818597 
L 172.638092 -52.688677 
L 173.956269 -52.558757 
L 175.000183 -52.428837 
L 175.690586 -52.298917 
L 175.967974 -52.168996 
L 175.796572 -52.039076 
L 175.166585 -51.909156 
L 174.094402 -51.779236 
L 172.6207 -51.649315 
L 170.806606 -51.519395 
L 168.728362 -51.389475 
L 166.471073 -51.259555 
L 164.122193 -51.129634 
L 161.765425 -50.999714 
L 159.475574 -50.869794 
L 157.314746 -50.739874 
L 155.330102 -50.609954 
L 153.553142 -50.480033 
L 152.000365 -50.350113 
L 150.675003 -50.220193 
L 149.569477 -50.090273 
L 148.668201 -49.960352 
L 147.950413 -49.830432 
L 147.392764 -49.700512 
L 146.971501 -49.570592 
L 146.664127 -49.440671 
L 146.450548 -49.310751 
L 146.313713 -49.180831 
L 146.239836 -49.050911 
L 146.218265 -48.920991 
L 146.241118 -48.79107 
L 146.302731 -48.66115 
L 146.399025 -48.53123 
L 146.526837 -48.40131 
L 146.68327 -48.271389 
L 146.865112 -48.141469 
L 147.068372 -48.011549 
L 147.287952 -47.881629 
L 147.517498 -47.751708 
L 147.749438 -47.621788 
L 147.97521 -47.491868 
L 148.185664 -47.361948 
L 148.371599 -47.232028 
L 148.524383 -47.102107 
L 148.636591 -46.972187 
L 148.702587 -46.842267 
L 148.718987 -46.712347 
L 148.684939 -46.582426 
L 148.602193 -46.452506 
L 148.474955 -46.322586 
L 148.309525 -46.192666 
L 148.113787 -46.062745 
L 147.896582 -45.932825 
L 147.667054 -45.802905 
L 147.434025 -45.672985 
L 147.205456 -45.543065 
L 146.988043 -45.413144 
L 146.78697 -45.283224 
L 146.60581 -45.153304 
L 146.446573 -45.023384 
L 146.30987 -44.893463 
L 146.195146 -44.763543 
z
" style="stroke: #3d3d3d; stroke-width: 1.25"/>
    </defs>
    <g clip-path="url(#pcb8831b98a)">
     <use xlink:href="#me2d61b0a2b" x="0" y="360" style="fill: #3274a1; stroke: #3d3d3d; stroke-width: 1.25"/>
    </g>
   </g>
   <g id="FillBetweenPolyCollection_2">
    <defs>
     <path id="mc80f79e1a0" d="M 257.87599 -44.906422 
L 256.92401 -44.906422 
L 256.777583 -45.033456 
L 256.601671 -45.16049 
L 256.395615 -45.287524 
L 256.160532 -45.414557 
L 255.899667 -45.541591 
L 255.618617 -45.668625 
L 255.325354 -45.795659 
L 255.030003 -45.922693 
L 254.744363 -46.049726 
L 254.481183 -46.17676 
L 254.253251 -46.303794 
L 254.072374 -46.430828 
L 253.948371 -46.557861 
L 253.888191 -46.684895 
L 253.895268 -46.811929 
L 253.969195 -46.938963 
L 254.105765 -47.065997 
L 254.297364 -47.19303 
L 254.533675 -47.320064 
L 254.802594 -47.447098 
L 255.091246 -47.574132 
L 255.386989 -47.701165 
L 255.67828 -47.828199 
L 255.95534 -47.955233 
L 256.21056 -48.082267 
L 256.438633 -48.209301 
L 256.636437 -48.336334 
L 256.802702 -48.463368 
L 256.937529 -48.590402 
L 257.041801 -48.717436 
L 257.116542 -48.84447 
L 257.16227 -48.971503 
L 257.178362 -49.098537 
L 257.162467 -49.225571 
L 257.109983 -49.352605 
L 257.013629 -49.479638 
L 256.86317 -49.606672 
L 256.645337 -49.733706 
L 256.34404 -49.86074 
L 255.940943 -49.987774 
L 255.416465 -50.114807 
L 254.751266 -50.241841 
L 253.928188 -50.368875 
L 252.934562 -50.495909 
L 251.764708 -50.622943 
L 250.422354 -50.749976 
L 248.92265 -50.87701 
L 247.293399 -51.004044 
L 245.575174 -51.131078 
L 243.820078 -51.258111 
L 242.089031 -51.385145 
L 240.447705 -51.512179 
L 238.961423 -51.639213 
L 237.689528 -51.766247 
L 236.679895 -51.89328 
L 235.964259 -52.020314 
L 235.555007 -52.147348 
L 235.443867 -52.274382 
L 235.60268 -52.401416 
L 235.986116 -52.528449 
L 236.53592 -52.655483 
L 237.186027 -52.782517 
L 237.86779 -52.909551 
L 238.514585 -53.036584 
L 239.065236 -53.163618 
L 239.465956 -53.290652 
L 239.670864 -53.417686 
L 239.641415 -53.54472 
L 239.345337 -53.671753 
L 238.755803 -53.798787 
L 237.85146 -53.925821 
L 236.617795 -54.052855 
L 235.049934 -54.179889 
L 233.156617 -54.306922 
L 230.964701 -54.433956 
L 228.523239 -54.56099 
L 225.906113 -54.688024 
L 223.212233 -54.815057 
L 220.562633 -54.942091 
L 218.094229 -55.069125 
L 215.950583 -55.196159 
L 214.270514 -55.323193 
L 213.175869 -55.450226 
L 212.76 -55.57726 
L 213.078456 -55.704294 
L 214.143187 -55.831328 
L 215.921044 -55.958362 
L 218.336768 -56.085395 
L 221.280053 -56.212429 
L 224.615713 -56.339463 
L 228.195604 -56.466497 
L 231.870848 -56.59353 
L 235.502944 -56.720564 
L 238.97268 -56.847598 
L 242.18613 -56.974632 
L 245.07751 -57.101666 
L 247.609086 -57.228699 
L 249.768631 -57.355733 
L 251.565183 -57.482767 
L 263.234817 -57.482767 
L 263.234817 -57.482767 
L 265.031369 -57.355733 
L 267.190914 -57.228699 
L 269.72249 -57.101666 
L 272.61387 -56.974632 
L 275.82732 -56.847598 
L 279.297056 -56.720564 
L 282.929152 -56.59353 
L 286.604396 -56.466497 
L 290.184287 -56.339463 
L 293.519947 -56.212429 
L 296.463232 -56.085395 
L 298.878956 -55.958362 
L 300.656813 -55.831328 
L 301.721544 -55.704294 
L 302.04 -55.57726 
L 301.624131 -55.450226 
L 300.529486 -55.323193 
L 298.849417 -55.196159 
L 296.705771 -55.069125 
L 294.237367 -54.942091 
L 291.587767 -54.815057 
L 288.893887 -54.688024 
L 286.276761 -54.56099 
L 283.835299 -54.433956 
L 281.643383 -54.306922 
L 279.750066 -54.179889 
L 278.182205 -54.052855 
L 276.94854 -53.925821 
L 276.044197 -53.798787 
L 275.454663 -53.671753 
L 275.158585 -53.54472 
L 275.129136 -53.417686 
L 275.334044 -53.290652 
L 275.734764 -53.163618 
L 276.285415 -53.036584 
L 276.93221 -52.909551 
L 277.613973 -52.782517 
L 278.26408 -52.655483 
L 278.813884 -52.528449 
L 279.19732 -52.401416 
L 279.356133 -52.274382 
L 279.244993 -52.147348 
L 278.835741 -52.020314 
L 278.120105 -51.89328 
L 277.110472 -51.766247 
L 275.838577 -51.639213 
L 274.352295 -51.512179 
L 272.710969 -51.385145 
L 270.979922 -51.258111 
L 269.224826 -51.131078 
L 267.506601 -51.004044 
L 265.87735 -50.87701 
L 264.377646 -50.749976 
L 263.035292 -50.622943 
L 261.865438 -50.495909 
L 260.871812 -50.368875 
L 260.048734 -50.241841 
L 259.383535 -50.114807 
L 258.859057 -49.987774 
L 258.45596 -49.86074 
L 258.154663 -49.733706 
L 257.93683 -49.606672 
L 257.786371 -49.479638 
L 257.690017 -49.352605 
L 257.637533 -49.225571 
L 257.621638 -49.098537 
L 257.63773 -48.971503 
L 257.683458 -48.84447 
L 257.758199 -48.717436 
L 257.862471 -48.590402 
L 257.997298 -48.463368 
L 258.163563 -48.336334 
L 258.361367 -48.209301 
L 258.58944 -48.082267 
L 258.84466 -47.955233 
L 259.12172 -47.828199 
L 259.413011 -47.701165 
L 259.708754 -47.574132 
L 259.997406 -47.447098 
L 260.266325 -47.320064 
L 260.502636 -47.19303 
L 260.694235 -47.065997 
L 260.830805 -46.938963 
L 260.904732 -46.811929 
L 260.911809 -46.684895 
L 260.851629 -46.557861 
L 260.727626 -46.430828 
L 260.546749 -46.303794 
L 260.318817 -46.17676 
L 260.055637 -46.049726 
L 259.769997 -45.922693 
L 259.474646 -45.795659 
L 259.181383 -45.668625 
L 258.900333 -45.541591 
L 258.639468 -45.414557 
L 258.404385 -45.287524 
L 258.198329 -45.16049 
L 258.022417 -45.033456 
L 257.87599 -44.906422 
z
" style="stroke: #3d3d3d; stroke-width: 1.25"/>
    </defs>
    <g clip-path="url(#pcb8831b98a)">
     <use xlink:href="#mc80f79e1a0" x="0" y="360" style="fill: #e1812c; stroke: #3d3d3d; stroke-width: 1.25"/>
    </g>
   </g>
   <g id="FillBetweenPolyCollection_3">
    <defs>
     <path id="m729387dcee" d="M 370.071179 -43.955772 
L 367.928821 -43.955772 
L 367.685197 -44.102011 
L 367.403937 -44.248249 
L 367.083846 -44.394488 
L 366.724895 -44.540727 
L 366.32845 -44.686966 
L 365.897468 -44.833205 
L 365.436637 -44.979444 
L 364.952424 -45.125683 
L 364.453038 -45.271921 
L 363.948281 -45.41816 
L 363.449281 -45.564399 
L 362.968129 -45.710638 
L 362.517409 -45.856877 
L 362.109662 -46.003116 
L 361.756807 -46.149354 
L 361.469554 -46.295593 
L 361.256852 -46.441832 
L 361.125402 -46.588071 
L 361.079275 -46.73431 
L 361.119667 -46.880549 
L 361.244792 -47.026788 
L 361.449932 -47.173026 
L 361.727638 -47.319265 
L 362.068053 -47.465504 
L 362.459347 -47.611743 
L 362.88821 -47.757982 
L 363.340393 -47.904221 
L 363.801233 -48.050459 
L 364.256153 -48.196698 
L 364.691092 -48.342937 
L 365.09287 -48.489176 
L 365.449458 -48.635415 
L 365.750164 -48.781654 
L 365.985748 -48.927893 
L 366.148478 -49.074131 
L 366.232137 -49.22037 
L 366.232017 -49.366609 
L 366.14489 -49.512848 
L 365.968999 -49.659087 
L 365.704043 -49.805326 
L 365.351177 -49.951564 
L 364.913001 -50.097803 
L 364.393536 -50.244042 
L 363.798165 -50.390281 
L 363.133515 -50.53652 
L 362.40728 -50.682759 
L 361.627948 -50.828997 
L 360.804463 -50.975236 
L 359.945791 -51.121475 
L 359.060439 -51.267714 
L 358.155925 -51.413953 
L 357.238251 -51.560192 
L 356.31141 -51.706431 
L 355.376975 -51.852669 
L 354.433802 -51.998908 
L 353.477904 -52.145147 
L 352.502514 -52.291386 
L 351.498356 -52.437625 
L 350.454157 -52.583864 
L 349.357367 -52.730102 
L 348.195087 -52.876341 
L 346.955168 -53.02258 
L 345.627426 -53.168819 
L 344.204906 -53.315058 
L 342.685135 -53.461297 
L 341.071256 -53.607536 
L 339.372977 -53.753774 
L 337.607227 -53.900013 
L 335.798445 -54.046252 
L 333.978445 -54.192491 
L 332.185799 -54.33873 
L 330.464727 -54.484969 
L 328.863529 -54.631207 
L 327.432598 -54.777446 
L 326.222118 -54.923685 
L 325.279589 -55.069924 
L 324.647308 -55.216163 
L 324.36 -55.362402 
L 324.442749 -55.508641 
L 324.909396 -55.654879 
L 325.761526 -55.801118 
L 326.988114 -55.947357 
L 328.565887 -56.093596 
L 330.460358 -56.239835 
L 332.627476 -56.386074 
L 335.015756 -56.532312 
L 337.568755 -56.678551 
L 340.227703 -56.82479 
L 342.934119 -56.971029 
L 345.632245 -57.117268 
L 348.271156 -57.263507 
L 350.80643 -57.409745 
L 353.201332 -57.555984 
L 355.427466 -57.702223 
L 357.464923 -57.848462 
L 359.301991 -57.994701 
L 360.934468 -58.14094 
L 362.364721 -58.287179 
L 363.60054 -58.433417 
L 374.39946 -58.433417 
L 374.39946 -58.433417 
L 375.635279 -58.287179 
L 377.065532 -58.14094 
L 378.698009 -57.994701 
L 380.535077 -57.848462 
L 382.572534 -57.702223 
L 384.798668 -57.555984 
L 387.19357 -57.409745 
L 389.728844 -57.263507 
L 392.367755 -57.117268 
L 395.065881 -56.971029 
L 397.772297 -56.82479 
L 400.431245 -56.678551 
L 402.984244 -56.532312 
L 405.372524 -56.386074 
L 407.539642 -56.239835 
L 409.434113 -56.093596 
L 411.011886 -55.947357 
L 412.238474 -55.801118 
L 413.090604 -55.654879 
L 413.557251 -55.508641 
L 413.64 -55.362402 
L 413.352692 -55.216163 
L 412.720411 -55.069924 
L 411.777882 -54.923685 
L 410.567402 -54.777446 
L 409.136471 -54.631207 
L 407.535273 -54.484969 
L 405.814201 -54.33873 
L 404.021555 -54.192491 
L 402.201555 -54.046252 
L 400.392773 -53.900013 
L 398.627023 -53.753774 
L 396.928744 -53.607536 
L 395.314865 -53.461297 
L 393.795094 -53.315058 
L 392.372574 -53.168819 
L 391.044832 -53.02258 
L 389.804913 -52.876341 
L 388.642633 -52.730102 
L 387.545843 -52.583864 
L 386.501644 -52.437625 
L 385.497486 -52.291386 
L 384.522096 -52.145147 
L 383.566198 -51.998908 
L 382.623025 -51.852669 
L 381.68859 -51.706431 
L 380.761749 -51.560192 
L 379.844075 -51.413953 
L 378.939561 -51.267714 
L 378.054209 -51.121475 
L 377.195537 -50.975236 
L 376.372052 -50.828997 
L 375.59272 -50.682759 
L 374.866485 -50.53652 
L 374.201835 -50.390281 
L 373.606464 -50.244042 
L 373.086999 -50.097803 
L 372.648823 -49.951564 
L 372.295957 -49.805326 
L 372.031001 -49.659087 
L 371.85511 -49.512848 
L 371.767983 -49.366609 
L 371.767863 -49.22037 
L 371.851522 -49.074131 
L 372.014252 -48.927893 
L 372.249836 -48.781654 
L 372.550542 -48.635415 
L 372.90713 -48.489176 
L 373.308908 -48.342937 
L 373.743847 -48.196698 
L 374.198767 -48.050459 
L 374.659607 -47.904221 
L 375.11179 -47.757982 
L 375.540653 -47.611743 
L 375.931947 -47.465504 
L 376.272362 -47.319265 
L 376.550068 -47.173026 
L 376.755208 -47.026788 
L 376.880333 -46.880549 
L 376.920725 -46.73431 
L 376.874598 -46.588071 
L 376.743148 -46.441832 
L 376.530446 -46.295593 
L 376.243193 -46.149354 
L 375.890338 -46.003116 
L 375.482591 -45.856877 
L 375.031871 -45.710638 
L 374.550719 -45.564399 
L 374.051719 -45.41816 
L 373.546962 -45.271921 
L 373.047576 -45.125683 
L 372.563363 -44.979444 
L 372.102532 -44.833205 
L 371.67155 -44.686966 
L 371.275105 -44.540727 
L 370.916154 -44.394488 
L 370.596063 -44.248249 
L 370.314803 -44.102011 
L 370.071179 -43.955772 
z
" style="stroke: #3d3d3d; stroke-width: 1.25"/>
    </defs>
    <g clip-path="url(#pcb8831b98a)">
     <use xlink:href="#m729387dcee" x="0" y="360" style="fill: #3a923a; stroke: #3d3d3d; stroke-width: 1.25"/>
    </g>
   </g>
   <g id="FillBetweenPolyCollection_4">
    <defs>
     <path id="m58b84b640e" d="M 481.019316 -44.418762 
L 480.180684 -44.418762 
L 480.072568 -44.555648 
L 479.945779 -44.692533 
L 479.799767 -44.829419 
L 479.634746 -44.966304 
L 479.451846 -45.10319 
L 479.253233 -45.240075 
L 479.042177 -45.376961 
L 478.823041 -45.513846 
L 478.601195 -45.650732 
L 478.382839 -45.787617 
L 478.17474 -45.924503 
L 477.983901 -46.061388 
L 477.817175 -46.198274 
L 477.680861 -46.335159 
L 477.580297 -46.472045 
L 477.519517 -46.60893 
L 477.50096 -46.745816 
L 477.525289 -46.882701 
L 477.591322 -47.019587 
L 477.696075 -47.156472 
L 477.834909 -47.293358 
L 478.001764 -47.430243 
L 478.189444 -47.567129 
L 478.389914 -47.704014 
L 478.59458 -47.8409 
L 478.794502 -47.977785 
L 478.980523 -48.114671 
L 479.143285 -48.251556 
L 479.27314 -48.388442 
L 479.35995 -48.525327 
L 479.392813 -48.662213 
L 479.35976 -48.799098 
L 479.247459 -48.935984 
L 479.041014 -49.072869 
L 478.723915 -49.209755 
L 478.278205 -49.34664 
L 477.684942 -49.483526 
L 476.924973 -49.620411 
L 475.980064 -49.757297 
L 474.834339 -49.894182 
L 473.475999 -50.031068 
L 471.899182 -50.167953 
L 470.105853 -50.304839 
L 468.107502 -50.441724 
L 465.926484 -50.57861 
L 463.59676 -50.715495 
L 461.163887 -50.852381 
L 458.684088 -50.989266 
L 456.22237 -51.126152 
L 453.849687 -51.263037 
L 451.639294 -51.399923 
L 449.662495 -51.536808 
L 447.984101 -51.673694 
L 446.657935 -51.810579 
L 445.722788 -51.947465 
L 445.199152 -52.08435 
L 445.087055 -52.221236 
L 445.365182 -52.358121 
L 445.991399 -52.495007 
L 446.904653 -52.631892 
L 448.028103 -52.768778 
L 449.27328 -52.905663 
L 450.54497 -53.042549 
L 451.746509 -53.179434 
L 452.785158 -53.31632 
L 453.577262 -53.453205 
L 454.052933 -53.590091 
L 454.160015 -53.726976 
L 453.867183 -53.863862 
L 453.166009 -54.000747 
L 452.071915 -54.137633 
L 450.623923 -54.274518 
L 448.883171 -54.411404 
L 446.930215 -54.548289 
L 444.861167 -54.685175 
L 442.782821 -54.82206 
L 440.806987 -54.958946 
L 439.044333 -55.095831 
L 437.598119 -55.232717 
L 436.558231 -55.369602 
L 435.995974 -55.506488 
L 435.96 -55.643373 
L 436.473717 -55.780259 
L 437.534379 -55.917144 
L 439.113931 -56.05403 
L 441.161503 -56.190915 
L 443.607335 -56.327801 
L 446.367754 -56.464686 
L 449.350765 -56.601572 
L 452.461784 -56.738457 
L 455.609047 -56.875343 
L 458.708308 -57.012228 
L 461.686527 -57.149114 
L 464.484383 -57.285999 
L 467.057559 -57.422885 
L 469.376874 -57.55977 
L 471.427419 -57.696656 
L 473.206924 -57.833541 
L 474.723608 -57.970427 
L 486.476392 -57.970427 
L 486.476392 -57.970427 
L 487.993076 -57.833541 
L 489.772581 -57.696656 
L 491.823126 -57.55977 
L 494.142441 -57.422885 
L 496.715617 -57.285999 
L 499.513473 -57.149114 
L 502.491692 -57.012228 
L 505.590953 -56.875343 
L 508.738216 -56.738457 
L 511.849235 -56.601572 
L 514.832246 -56.464686 
L 517.592665 -56.327801 
L 520.038497 -56.190915 
L 522.086069 -56.05403 
L 523.665621 -55.917144 
L 524.726283 -55.780259 
L 525.24 -55.643373 
L 525.204026 -55.506488 
L 524.641769 -55.369602 
L 523.601881 -55.232717 
L 522.155667 -55.095831 
L 520.393013 -54.958946 
L 518.417179 -54.82206 
L 516.338833 -54.685175 
L 514.269785 -54.548289 
L 512.316829 -54.411404 
L 510.576077 -54.274518 
L 509.128085 -54.137633 
L 508.033991 -54.000747 
L 507.332817 -53.863862 
L 507.039985 -53.726976 
L 507.147067 -53.590091 
L 507.622738 -53.453205 
L 508.414842 -53.31632 
L 509.453491 -53.179434 
L 510.65503 -53.042549 
L 511.92672 -52.905663 
L 513.171897 -52.768778 
L 514.295347 -52.631892 
L 515.208601 -52.495007 
L 515.834818 -52.358121 
L 516.112945 -52.221236 
L 516.000848 -52.08435 
L 515.477212 -51.947465 
L 514.542065 -51.810579 
L 513.215899 -51.673694 
L 511.537505 -51.536808 
L 509.560706 -51.399923 
L 507.350313 -51.263037 
L 504.97763 -51.126152 
L 502.515912 -50.989266 
L 500.036113 -50.852381 
L 497.60324 -50.715495 
L 495.273516 -50.57861 
L 493.092498 -50.441724 
L 491.094147 -50.304839 
L 489.300818 -50.167953 
L 487.724001 -50.031068 
L 486.365661 -49.894182 
L 485.219936 -49.757297 
L 484.275027 -49.620411 
L 483.515058 -49.483526 
L 482.921795 -49.34664 
L 482.476085 -49.209755 
L 482.158986 -49.072869 
L 481.952541 -48.935984 
L 481.84024 -48.799098 
L 481.807187 -48.662213 
L 481.84005 -48.525327 
L 481.92686 -48.388442 
L 482.056715 -48.251556 
L 482.219477 -48.114671 
L 482.405498 -47.977785 
L 482.60542 -47.8409 
L 482.810086 -47.704014 
L 483.010556 -47.567129 
L 483.198236 -47.430243 
L 483.365091 -47.293358 
L 483.503925 -47.156472 
L 483.608678 -47.019587 
L 483.674711 -46.882701 
L 483.69904 -46.745816 
L 483.680483 -46.60893 
L 483.619703 -46.472045 
L 483.519139 -46.335159 
L 483.382825 -46.198274 
L 483.216099 -46.061388 
L 483.02526 -45.924503 
L 482.817161 -45.787617 
L 482.598805 -45.650732 
L 482.376959 -45.513846 
L 482.157823 -45.376961 
L 481.946767 -45.240075 
L 481.748154 -45.10319 
L 481.565254 -44.966304 
L 481.400233 -44.829419 
L 481.254221 -44.692533 
L 481.127432 -44.555648 
L 481.019316 -44.418762 
z
" style="stroke: #3d3d3d; stroke-width: 1.25"/>
    </defs>
    <g clip-path="url(#pcb8831b98a)">
     <use xlink:href="#m58b84b640e" x="0" y="360" style="fill: #c03d3e; stroke: #3d3d3d; stroke-width: 1.25"/>
    </g>
   </g>
   <g id="patch_3">
    <path d="M 212.76 320.4 
L 257.4 320.4 
L 257.4 218.724324 
L 212.76 218.724324 
z
" clip-path="url(#pcb8831b98a)" style="fill: #3274a1"/>
   </g>
   <g id="patch_4">
    <path d="M 547.56 320.4 
L 592.2 320.4 
L 592.2 208.021622 
L 547.56 208.021622 
z
" clip-path="url(#pcb8831b98a)" style="fill: #3274a1"/>
   </g>
   <g id="patch_5">
    <path d="M 257.4 320.4 
L 302.04 320.4 
L 302.04 266.886486 
L 257.4 266.886486 
z
" clip-path="url(#pcb8831b98a)" style="fill: #e1812c"/>
   </g>
   <g id="patch_6">
    <path d="M 592.2 320.4 
L 636.84 320.4 
L 636.84 209.805405 
L 592.2 209.805405 
z
" clip-path="url(#pcb8831b98a)" style="fill: #e1812c"/>
   </g>
   <g id="patch_7">
    <path d="M 145.8 320.4 
L 145.8 320.4 
L 145.8 320.4 
L 145.8 320.4 
z
" clip-path="url(#pcb8831b98a)" style="fill: #3274a1"/>
   </g>
   <g id="patch_8">
    <path d="M 145.8 320.4 
L 145.8 320.4 
L 145.8 320.4 
L 145.8 320.4 
z
" clip-path="url(#pcb8831b98a)" style="fill: #e1812c"/>
   </g>
   <g id="patch_9">
    <path d="M 212.76 320.4 
L 257.4 320.4 
L 257.4 306.12973 
L 212.76 306.12973 
z
" clip-path="url(#pcb8831b98a)" style="fill: #3274a1"/>
   </g>
   <g id="patch_10">
    <path d="M 547.56 320.4 
L 592.2 320.4 
L 592.2 298.994595 
L 547.56 298.994595 
z
" clip-path="url(#pcb8831b98a)" style="fill: #3274a1"/>
   </g>
   <g id="patch_11">
    <path d="M 257.4 320.4 
L 302.04 320.4 
L 302.04 179.481081 
L 257.4 179.481081 
z
" clip-path="url(#pcb8831b98a)" style="fill: #e1812c"/>
   </g>
   <g id="patch_12">
    <path d="M 592.2 320.4 
L 636.84 320.4 
L 636.84 118.832432 
L 592.2 118.832432 
z
" clip-path="url(#pcb8831b98a)" style="fill: #e1812c"/>
   </g>
   <g id="patch_13">
    <path d="M 145.8 320.4 
L 145.8 320.4 
L 145.8 320.4 
L 145.8 320.4 
z
" clip-path="url(#pcb8831b98a)" style="fill: #3274a1"/>
   </g>
   <g id="patch_14">
    <path d="M 145.8 320.4 
L 145.8 320.4 
L 145.8 320.4 
L 145.8 320.4 
z
" clip-path="url(#pcb8831b98a)" style="fill: #e1812c"/>
   </g>
   <g id="patch_15">
    <path d="M 212.76 320.4 
L 257.4 320.4 
L 257.4 252.616216 
L 212.76 252.616216 
z
" clip-path="url(#pcb8831b98a)" style="fill: #3274a1"/>
   </g>
   <g id="patch_16">
    <path d="M 547.56 320.4 
L 592.2 320.4 
L 592.2 216.940541 
L 547.56 216.940541 
z
" clip-path="url(#pcb8831b98a)" style="fill: #3274a1"/>
   </g>
   <g id="patch_17">
    <path d="M 257.4 320.4 
L 302.04 320.4 
L 302.04 232.994595 
L 257.4 232.994595 
z
" clip-path="url(#pcb8831b98a)" style="fill: #e1812c"/>
   </g>
   <g id="patch_18">
    <path d="M 592.2 320.4 
L 636.84 320.4 
L 636.84 200.886486 
L 592.2 200.886486 
z
" clip-path="url(#pcb8831b98a)" style="fill: #e1812c"/>
   </g>
   <g id="patch_19">
    <path d="M 145.8 320.4 
L 145.8 320.4 
L 145.8 320.4 
L 145.8 320.4 
z
" clip-path="url(#pcb8831b98a)" style="fill: #3274a1"/>
   </g>
   <g id="patch_20">
    <path d="M 145.8 320.4 
L 145.8 320.4 
L 145.8 320.4 
L 145.8 320.4 
z
" clip-path="url(#pcb8831b98a)" style="fill: #e1812c"/>
   </g>
   <g id="patch_21">
    <path d="M 212.76 320.4 
L 302.04 320.4 
L 302.04 165.210811 
L 212.76 165.210811 
z
" clip-path="url(#pcb8831b98a)" style="fill: #3274a1"/>
   </g>
   <g id="patch_22">
    <path d="M 547.56 320.4 
L 636.84 320.4 
L 636.84 97.427027 
L 547.56 97.427027 
z
" clip-path="url(#pcb8831b98a)" style="fill: #3274a1"/>
   </g>
   <g id="patch_23">
    <path d="M 145.8 320.4 
L 145.8 320.4 
L 145.8 320.4 
L 145.8 320.4 
z
" clip-path="url(#pcb8831b98a)" style="fill: #3274a1"/>
   </g>
   <g id="patch_24">
    <path d="M 212.76 320.4 
L 302.04 320.4 
L 302.04 165.210811 
L 212.76 165.210811 
z
" clip-path="url(#pcb8831b98a)" style="fill: #3274a1"/>
   </g>
   <g id="patch_25">
    <path d="M 547.56 320.4 
L 636.84 320.4 
L 636.84 56.4 
L 547.56 56.4 
z
" clip-path="url(#pcb8831b98a)" style="fill: #3274a1"/>
   </g>
   <g id="patch_26">
    <path d="M 145.8 320.4 
L 145.8 320.4 
L 145.8 320.4 
L 145.8 320.4 
z
" clip-path="url(#pcb8831b98a)" style="fill: #3274a1"/>
   </g>
   <g id="patch_27">
    <path d="M 212.76 320.4 
L 257.4 320.4 
L 257.4 313.264865 
L 212.76 313.264865 
z
" clip-path="url(#pcb8831b98a)" style="fill: #3274a1"/>
   </g>
   <g id="patch_28">
    <path d="M 547.56 320.4 
L 592.2 320.4 
L 592.2 293.643243 
L 547.56 293.643243 
z
" clip-path="url(#pcb8831b98a)" style="fill: #3274a1"/>
   </g>
   <g id="patch_29">
    <path d="M 257.4 320.4 
L 302.04 320.4 
L 302.04 172.345946 
L 257.4 172.345946 
z
" clip-path="url(#pcb8831b98a)" style="fill: #e1812c"/>
   </g>
   <g id="patch_30">
    <path d="M 592.2 320.4 
L 636.84 320.4 
L 636.84 124.183784 
L 592.2 124.183784 
z
" clip-path="url(#pcb8831b98a)" style="fill: #e1812c"/>
   </g>
   <g id="patch_31">
    <path d="M 145.8 320.4 
L 145.8 320.4 
L 145.8 320.4 
L 145.8 320.4 
z
" clip-path="url(#pcb8831b98a)" style="fill: #3274a1"/>
   </g>
   <g id="patch_32">
    <path d="M 145.8 320.4 
L 145.8 320.4 
L 145.8 320.4 
L 145.8 320.4 
z
" clip-path="url(#pcb8831b98a)" style="fill: #e1812c"/>
   </g>
   <g id="patch_33">
    <path d="M 212.76 320.4 
L 302.04 320.4 
L 302.04 172.345946 
L 212.76 172.345946 
z
" clip-path="url(#pcb8831b98a)" style="fill: #e9d4d0"/>
   </g>
   <g id="patch_34">
    <path d="M 547.56 320.4 
L 636.84 320.4 
L 636.84 124.183784 
L 547.56 124.183784 
z
" clip-path="url(#pcb8831b98a)" style="fill: #e9d4d0"/>
   </g>
   <g id="patch_35">
    <path d="M 145.8 320.4 
L 145.8 320.4 
L 145.8 320.4 
L 145.8 320.4 
z
" clip-path="url(#pcb8831b98a)" style="fill: #e9d4d0"/>
   </g>
   <g id="patch_36">
    <path d="M 212.76 320.4 
L 257.4 320.4 
L 257.4 170.562162 
L 212.76 170.562162 
z
" clip-path="url(#pcb8831b98a)" style="fill: #3274a1"/>
   </g>
   <g id="patch_37">
    <path d="M 547.56 320.4 
L 592.2 320.4 
L 592.2 109.913514 
L 547.56 109.913514 
z
" clip-path="url(#pcb8831b98a)" style="fill: #3274a1"/>
   </g>
   <g id="patch_38">
    <path d="M 257.4 320.4 
L 302.04 320.4 
L 302.04 315.048649 
L 257.4 315.048649 
z
" clip-path="url(#pcb8831b98a)" style="fill: #e1812c"/>
   </g>
   <g id="patch_39">
    <path d="M 592.2 320.4 
L 636.84 320.4 
L 636.84 307.913514 
L 592.2 307.913514 
z
" clip-path="url(#pcb8831b98a)" style="fill: #e1812c"/>
   </g>
   <g id="patch_40">
    <path d="M 145.8 320.4 
L 145.8 320.4 
L 145.8 320.4 
L 145.8 320.4 
z
" clip-path="url(#pcb8831b98a)" style="fill: #3274a1"/>
   </g>
   <g id="patch_41">
    <path d="M 145.8 320.4 
L 145.8 320.4 
L 145.8 320.4 
L 145.8 320.4 
z
" clip-path="url(#pcb8831b98a)" style="fill: #e1812c"/>
   </g>
   <g id="matplotlib.axis_1">
    <g id="xtick_1">
     <g id="line2d_1">
      <defs>
       <path id="m88573fba70" d="M 0 0 
L 0 3.5 
" style="stroke: #000000; stroke-width: 0.8"/>
      </defs>
      <g>
       <use xlink:href="#m88573fba70" x="145.8" y="320.4" style="stroke: #000000; stroke-width: 0.8"/>
      </g>
     </g>
     <g id="text_1">
      <!-- Spurious -->
      <g transform="translate(124.005469 334.998438) scale(0.1 -0.1)">
       <defs>
        <path id="DejaVuSans-53" d="M 3425 4513 
L 3425 3897 
Q 3066 4069 2747 4153 
Q 2428 4238 2131 4238 
Q 1616 4238 1336 4038 
Q 1056 3838 1056 3469 
Q 1056 3159 1242 3001 
Q 1428 2844 1947 2747 
L 2328 2669 
Q 3034 2534 3370 2195 
Q 3706 1856 3706 1288 
Q 3706 609 3251 259 
Q 2797 -91 1919 -91 
Q 1588 -91 1214 -16 
Q 841 59 441 206 
L 441 856 
Q 825 641 1194 531 
Q 1563 422 1919 422 
Q 2459 422 2753 634 
Q 3047 847 3047 1241 
Q 3047 1584 2836 1778 
Q 2625 1972 2144 2069 
L 1759 2144 
Q 1053 2284 737 2584 
Q 422 2884 422 3419 
Q 422 4038 858 4394 
Q 1294 4750 2059 4750 
Q 2388 4750 2728 4690 
Q 3069 4631 3425 4513 
z
" transform="scale(0.015625)"/>
        <path id="DejaVuSans-70" d="M 1159 525 
L 1159 -1331 
L 581 -1331 
L 581 3500 
L 1159 3500 
L 1159 2969 
Q 1341 3281 1617 3432 
Q 1894 3584 2278 3584 
Q 2916 3584 3314 3078 
Q 3713 2572 3713 1747 
Q 3713 922 3314 415 
Q 2916 -91 2278 -91 
Q 1894 -91 1617 61 
Q 1341 213 1159 525 
z
M 3116 1747 
Q 3116 2381 2855 2742 
Q 2594 3103 2138 3103 
Q 1681 3103 1420 2742 
Q 1159 2381 1159 1747 
Q 1159 1113 1420 752 
Q 1681 391 2138 391 
Q 2594 391 2855 752 
Q 3116 1113 3116 1747 
z
" transform="scale(0.015625)"/>
        <path id="DejaVuSans-75" d="M 544 1381 
L 544 3500 
L 1119 3500 
L 1119 1403 
Q 1119 906 1312 657 
Q 1506 409 1894 409 
Q 2359 409 2629 706 
Q 2900 1003 2900 1516 
L 2900 3500 
L 3475 3500 
L 3475 0 
L 2900 0 
L 2900 538 
Q 2691 219 2414 64 
Q 2138 -91 1772 -91 
Q 1169 -91 856 284 
Q 544 659 544 1381 
z
M 1991 3584 
L 1991 3584 
z
" transform="scale(0.015625)"/>
        <path id="DejaVuSans-72" d="M 2631 2963 
Q 2534 3019 2420 3045 
Q 2306 3072 2169 3072 
Q 1681 3072 1420 2755 
Q 1159 2438 1159 1844 
L 1159 0 
L 581 0 
L 581 3500 
L 1159 3500 
L 1159 2956 
Q 1341 3275 1631 3429 
Q 1922 3584 2338 3584 
Q 2397 3584 2469 3576 
Q 2541 3569 2628 3553 
L 2631 2963 
z
" transform="scale(0.015625)"/>
        <path id="DejaVuSans-69" d="M 603 3500 
L 1178 3500 
L 1178 0 
L 603 0 
L 603 3500 
z
M 603 4863 
L 1178 4863 
L 1178 4134 
L 603 4134 
L 603 4863 
z
" transform="scale(0.015625)"/>
        <path id="DejaVuSans-6f" d="M 1959 3097 
Q 1497 3097 1228 2736 
Q 959 2375 959 1747 
Q 959 1119 1226 758 
Q 1494 397 1959 397 
Q 2419 397 2687 759 
Q 2956 1122 2956 1747 
Q 2956 2369 2687 2733 
Q 2419 3097 1959 3097 
z
M 1959 3584 
Q 2709 3584 3137 3096 
Q 3566 2609 3566 1747 
Q 3566 888 3137 398 
Q 2709 -91 1959 -91 
Q 1206 -91 779 398 
Q 353 888 353 1747 
Q 353 2609 779 3096 
Q 1206 3584 1959 3584 
z
" transform="scale(0.015625)"/>
        <path id="DejaVuSans-73" d="M 2834 3397 
L 2834 2853 
Q 2591 2978 2328 3040 
Q 2066 3103 1784 3103 
Q 1356 3103 1142 2972 
Q 928 2841 928 2578 
Q 928 2378 1081 2264 
Q 1234 2150 1697 2047 
L 1894 2003 
Q 2506 1872 2764 1633 
Q 3022 1394 3022 966 
Q 3022 478 2636 193 
Q 2250 -91 1575 -91 
Q 1294 -91 989 -36 
Q 684 19 347 128 
L 347 722 
Q 666 556 975 473 
Q 1284 391 1588 391 
Q 1994 391 2212 530 
Q 2431 669 2431 922 
Q 2431 1156 2273 1281 
Q 2116 1406 1581 1522 
L 1381 1569 
Q 847 1681 609 1914 
Q 372 2147 372 2553 
Q 372 3047 722 3315 
Q 1072 3584 1716 3584 
Q 2034 3584 2315 3537 
Q 2597 3491 2834 3397 
z
" transform="scale(0.015625)"/>
       </defs>
       <use xlink:href="#DejaVuSans-53"/>
       <use xlink:href="#DejaVuSans-70" transform="translate(63.476562 0)"/>
       <use xlink:href="#DejaVuSans-75" transform="translate(126.953125 0)"/>
       <use xlink:href="#DejaVuSans-72" transform="translate(190.332031 0)"/>
       <use xlink:href="#DejaVuSans-69" transform="translate(231.445312 0)"/>
       <use xlink:href="#DejaVuSans-6f" transform="translate(259.228516 0)"/>
       <use xlink:href="#DejaVuSans-75" transform="translate(320.410156 0)"/>
       <use xlink:href="#DejaVuSans-73" transform="translate(383.789062 0)"/>
      </g>
     </g>
    </g>
    <g id="xtick_2">
     <g id="line2d_2">
      <g>
       <use xlink:href="#m88573fba70" x="257.4" y="320.4" style="stroke: #000000; stroke-width: 0.8"/>
      </g>
     </g>
     <g id="text_2">
      <!-- Specific -->
      <g transform="translate(237.938281 334.998438) scale(0.1 -0.1)">
       <defs>
        <path id="DejaVuSans-65" d="M 3597 1894 
L 3597 1613 
L 953 1613 
Q 991 1019 1311 708 
Q 1631 397 2203 397 
Q 2534 397 2845 478 
Q 3156 559 3463 722 
L 3463 178 
Q 3153 47 2828 -22 
Q 2503 -91 2169 -91 
Q 1331 -91 842 396 
Q 353 884 353 1716 
Q 353 2575 817 3079 
Q 1281 3584 2069 3584 
Q 2775 3584 3186 3129 
Q 3597 2675 3597 1894 
z
M 3022 2063 
Q 3016 2534 2758 2815 
Q 2500 3097 2075 3097 
Q 1594 3097 1305 2825 
Q 1016 2553 972 2059 
L 3022 2063 
z
" transform="scale(0.015625)"/>
        <path id="DejaVuSans-63" d="M 3122 3366 
L 3122 2828 
Q 2878 2963 2633 3030 
Q 2388 3097 2138 3097 
Q 1578 3097 1268 2742 
Q 959 2388 959 1747 
Q 959 1106 1268 751 
Q 1578 397 2138 397 
Q 2388 397 2633 464 
Q 2878 531 3122 666 
L 3122 134 
Q 2881 22 2623 -34 
Q 2366 -91 2075 -91 
Q 1284 -91 818 406 
Q 353 903 353 1747 
Q 353 2603 823 3093 
Q 1294 3584 2113 3584 
Q 2378 3584 2631 3529 
Q 2884 3475 3122 3366 
z
" transform="scale(0.015625)"/>
        <path id="DejaVuSans-66" d="M 2375 4863 
L 2375 4384 
L 1825 4384 
Q 1516 4384 1395 4259 
Q 1275 4134 1275 3809 
L 1275 3500 
L 2222 3500 
L 2222 3053 
L 1275 3053 
L 1275 0 
L 697 0 
L 697 3053 
L 147 3053 
L 147 3500 
L 697 3500 
L 697 3744 
Q 697 4328 969 4595 
Q 1241 4863 1831 4863 
L 2375 4863 
z
" transform="scale(0.015625)"/>
       </defs>
       <use xlink:href="#DejaVuSans-53"/>
       <use xlink:href="#DejaVuSans-70" transform="translate(63.476562 0)"/>
       <use xlink:href="#DejaVuSans-65" transform="translate(126.953125 0)"/>
       <use xlink:href="#DejaVuSans-63" transform="translate(188.476562 0)"/>
       <use xlink:href="#DejaVuSans-69" transform="translate(243.457031 0)"/>
       <use xlink:href="#DejaVuSans-66" transform="translate(271.240234 0)"/>
       <use xlink:href="#DejaVuSans-69" transform="translate(306.445312 0)"/>
       <use xlink:href="#DejaVuSans-63" transform="translate(334.228516 0)"/>
      </g>
     </g>
    </g>
    <g id="xtick_3">
     <g id="line2d_3">
      <g>
       <use xlink:href="#m88573fba70" x="369" y="320.4" style="stroke: #000000; stroke-width: 0.8"/>
      </g>
     </g>
     <g id="text_3">
      <!-- Non-specific -->
      <g transform="translate(338.335156 334.998438) scale(0.1 -0.1)">
       <defs>
        <path id="DejaVuSans-4e" d="M 628 4666 
L 1478 4666 
L 3547 763 
L 3547 4666 
L 4159 4666 
L 4159 0 
L 3309 0 
L 1241 3903 
L 1241 0 
L 628 0 
L 628 4666 
z
" transform="scale(0.015625)"/>
        <path id="DejaVuSans-6e" d="M 3513 2113 
L 3513 0 
L 2938 0 
L 2938 2094 
Q 2938 2591 2744 2837 
Q 2550 3084 2163 3084 
Q 1697 3084 1428 2787 
Q 1159 2491 1159 1978 
L 1159 0 
L 581 0 
L 581 3500 
L 1159 3500 
L 1159 2956 
Q 1366 3272 1645 3428 
Q 1925 3584 2291 3584 
Q 2894 3584 3203 3211 
Q 3513 2838 3513 2113 
z
" transform="scale(0.015625)"/>
        <path id="DejaVuSans-2d" d="M 313 2009 
L 1997 2009 
L 1997 1497 
L 313 1497 
L 313 2009 
z
" transform="scale(0.015625)"/>
       </defs>
       <use xlink:href="#DejaVuSans-4e"/>
       <use xlink:href="#DejaVuSans-6f" transform="translate(74.804688 0)"/>
       <use xlink:href="#DejaVuSans-6e" transform="translate(135.986328 0)"/>
       <use xlink:href="#DejaVuSans-2d" transform="translate(199.365234 0)"/>
       <use xlink:href="#DejaVuSans-73" transform="translate(235.449219 0)"/>
       <use xlink:href="#DejaVuSans-70" transform="translate(287.548828 0)"/>
       <use xlink:href="#DejaVuSans-65" transform="translate(351.025391 0)"/>
       <use xlink:href="#DejaVuSans-63" transform="translate(412.548828 0)"/>
       <use xlink:href="#DejaVuSans-69" transform="translate(467.529297 0)"/>
       <use xlink:href="#DejaVuSans-66" transform="translate(495.3125 0)"/>
       <use xlink:href="#DejaVuSans-69" transform="translate(530.517578 0)"/>
       <use xlink:href="#DejaVuSans-63" transform="translate(558.300781 0)"/>
      </g>
     </g>
    </g>
    <g id="xtick_4">
     <g id="line2d_4">
      <g>
       <use xlink:href="#m88573fba70" x="480.6" y="320.4" style="stroke: #000000; stroke-width: 0.8"/>
      </g>
     </g>
     <g id="text_4">
      <!-- No -->
      <g transform="translate(473.8 334.998438) scale(0.1 -0.1)">
       <use xlink:href="#DejaVuSans-4e"/>
       <use xlink:href="#DejaVuSans-6f" transform="translate(74.804688 0)"/>
      </g>
     </g>
    </g>
    <g id="xtick_5">
     <g id="line2d_5">
      <g>
       <use xlink:href="#m88573fba70" x="592.2" y="320.4" style="stroke: #000000; stroke-width: 0.8"/>
      </g>
     </g>
     <g id="text_5">
      <!-- other -->
      <g transform="translate(578.879688 334.998438) scale(0.1 -0.1)">
       <defs>
        <path id="DejaVuSans-74" d="M 1172 4494 
L 1172 3500 
L 2356 3500 
L 2356 3053 
L 1172 3053 
L 1172 1153 
Q 1172 725 1289 603 
Q 1406 481 1766 481 
L 2356 481 
L 2356 0 
L 1766 0 
Q 1100 0 847 248 
Q 594 497 594 1153 
L 594 3053 
L 172 3053 
L 172 3500 
L 594 3500 
L 594 4494 
L 1172 4494 
z
" transform="scale(0.015625)"/>
        <path id="DejaVuSans-68" d="M 3513 2113 
L 3513 0 
L 2938 0 
L 2938 2094 
Q 2938 2591 2744 2837 
Q 2550 3084 2163 3084 
Q 1697 3084 1428 2787 
Q 1159 2491 1159 1978 
L 1159 0 
L 581 0 
L 581 4863 
L 1159 4863 
L 1159 2956 
Q 1366 3272 1645 3428 
Q 1925 3584 2291 3584 
Q 2894 3584 3203 3211 
Q 3513 2838 3513 2113 
z
" transform="scale(0.015625)"/>
       </defs>
       <use xlink:href="#DejaVuSans-6f"/>
       <use xlink:href="#DejaVuSans-74" transform="translate(61.181641 0)"/>
       <use xlink:href="#DejaVuSans-68" transform="translate(100.390625 0)"/>
       <use xlink:href="#DejaVuSans-65" transform="translate(163.769531 0)"/>
       <use xlink:href="#DejaVuSans-72" transform="translate(225.292969 0)"/>
      </g>
     </g>
    </g>
    <g id="text_6">
     <!-- Connectivity category -->
     <g transform="translate(313.98125 348.676562) scale(0.1 -0.1)">
      <defs>
       <path id="DejaVuSans-43" d="M 4122 4306 
L 4122 3641 
Q 3803 3938 3442 4084 
Q 3081 4231 2675 4231 
Q 1875 4231 1450 3742 
Q 1025 3253 1025 2328 
Q 1025 1406 1450 917 
Q 1875 428 2675 428 
Q 3081 428 3442 575 
Q 3803 722 4122 1019 
L 4122 359 
Q 3791 134 3420 21 
Q 3050 -91 2638 -91 
Q 1578 -91 968 557 
Q 359 1206 359 2328 
Q 359 3453 968 4101 
Q 1578 4750 2638 4750 
Q 3056 4750 3426 4639 
Q 3797 4528 4122 4306 
z
" transform="scale(0.015625)"/>
       <path id="DejaVuSans-76" d="M 191 3500 
L 800 3500 
L 1894 563 
L 2988 3500 
L 3597 3500 
L 2284 0 
L 1503 0 
L 191 3500 
z
" transform="scale(0.015625)"/>
       <path id="DejaVuSans-79" d="M 2059 -325 
Q 1816 -950 1584 -1140 
Q 1353 -1331 966 -1331 
L 506 -1331 
L 506 -850 
L 844 -850 
Q 1081 -850 1212 -737 
Q 1344 -625 1503 -206 
L 1606 56 
L 191 3500 
L 800 3500 
L 1894 763 
L 2988 3500 
L 3597 3500 
L 2059 -325 
z
" transform="scale(0.015625)"/>
       <path id="DejaVuSans-20" transform="scale(0.015625)"/>
       <path id="DejaVuSans-61" d="M 2194 1759 
Q 1497 1759 1228 1600 
Q 959 1441 959 1056 
Q 959 750 1161 570 
Q 1363 391 1709 391 
Q 2188 391 2477 730 
Q 2766 1069 2766 1631 
L 2766 1759 
L 2194 1759 
z
M 3341 1997 
L 3341 0 
L 2766 0 
L 2766 531 
Q 2569 213 2275 61 
Q 1981 -91 1556 -91 
Q 1019 -91 701 211 
Q 384 513 384 1019 
Q 384 1609 779 1909 
Q 1175 2209 1959 2209 
L 2766 2209 
L 2766 2266 
Q 2766 2663 2505 2880 
Q 2244 3097 1772 3097 
Q 1472 3097 1187 3025 
Q 903 2953 641 2809 
L 641 3341 
Q 956 3463 1253 3523 
Q 1550 3584 1831 3584 
Q 2591 3584 2966 3190 
Q 3341 2797 3341 1997 
z
" transform="scale(0.015625)"/>
       <path id="DejaVuSans-67" d="M 2906 1791 
Q 2906 2416 2648 2759 
Q 2391 3103 1925 3103 
Q 1463 3103 1205 2759 
Q 947 2416 947 1791 
Q 947 1169 1205 825 
Q 1463 481 1925 481 
Q 2391 481 2648 825 
Q 2906 1169 2906 1791 
z
M 3481 434 
Q 3481 -459 3084 -895 
Q 2688 -1331 1869 -1331 
Q 1566 -1331 1297 -1286 
Q 1028 -1241 775 -1147 
L 775 -588 
Q 1028 -725 1275 -790 
Q 1522 -856 1778 -856 
Q 2344 -856 2625 -561 
Q 2906 -266 2906 331 
L 2906 616 
Q 2728 306 2450 153 
Q 2172 0 1784 0 
Q 1141 0 747 490 
Q 353 981 353 1791 
Q 353 2603 747 3093 
Q 1141 3584 1784 3584 
Q 2172 3584 2450 3431 
Q 2728 3278 2906 2969 
L 2906 3500 
L 3481 3500 
L 3481 434 
z
" transform="scale(0.015625)"/>
      </defs>
      <use xlink:href="#DejaVuSans-43"/>
      <use xlink:href="#DejaVuSans-6f" transform="translate(69.824219 0)"/>
      <use xlink:href="#DejaVuSans-6e" transform="translate(131.005859 0)"/>
      <use xlink:href="#DejaVuSans-6e" transform="translate(194.384766 0)"/>
      <use xlink:href="#DejaVuSans-65" transform="translate(257.763672 0)"/>
      <use xlink:href="#DejaVuSans-63" transform="translate(319.287109 0)"/>
      <use xlink:href="#DejaVuSans-74" transform="translate(374.267578 0)"/>
      <use xlink:href="#DejaVuSans-69" transform="translate(413.476562 0)"/>
      <use xlink:href="#DejaVuSans-76" transform="translate(441.259766 0)"/>
      <use xlink:href="#DejaVuSans-69" transform="translate(500.439453 0)"/>
      <use xlink:href="#DejaVuSans-74" transform="translate(528.222656 0)"/>
      <use xlink:href="#DejaVuSans-79" transform="translate(567.431641 0)"/>
      <use xlink:href="#DejaVuSans-20" transform="translate(626.611328 0)"/>
      <use xlink:href="#DejaVuSans-63" transform="translate(658.398438 0)"/>
      <use xlink:href="#DejaVuSans-61" transform="translate(713.378906 0)"/>
      <use xlink:href="#DejaVuSans-74" transform="translate(774.658203 0)"/>
      <use xlink:href="#DejaVuSans-65" transform="translate(813.867188 0)"/>
      <use xlink:href="#DejaVuSans-67" transform="translate(875.390625 0)"/>
      <use xlink:href="#DejaVuSans-6f" transform="translate(938.867188 0)"/>
      <use xlink:href="#DejaVuSans-72" transform="translate(1000.048828 0)"/>
      <use xlink:href="#DejaVuSans-79" transform="translate(1041.162109 0)"/>
     </g>
    </g>
   </g>
   <g id="matplotlib.axis_2">
    <g id="ytick_1">
     <g id="line2d_6">
      <defs>
       <path id="mfea64c5424" d="M 0 0 
L -3.5 0 
" style="stroke: #000000; stroke-width: 0.8"/>
      </defs>
      <g>
       <use xlink:href="#mfea64c5424" x="90" y="320.4" style="stroke: #000000; stroke-width: 0.8"/>
      </g>
     </g>
     <g id="text_7">
      <!-- 0 -->
      <g transform="translate(76.6375 324.199219) scale(0.1 -0.1)">
       <defs>
        <path id="DejaVuSans-30" d="M 2034 4250 
Q 1547 4250 1301 3770 
Q 1056 3291 1056 2328 
Q 1056 1369 1301 889 
Q 1547 409 2034 409 
Q 2525 409 2770 889 
Q 3016 1369 3016 2328 
Q 3016 3291 2770 3770 
Q 2525 4250 2034 4250 
z
M 2034 4750 
Q 2819 4750 3233 4129 
Q 3647 3509 3647 2328 
Q 3647 1150 3233 529 
Q 2819 -91 2034 -91 
Q 1250 -91 836 529 
Q 422 1150 422 2328 
Q 422 3509 836 4129 
Q 1250 4750 2034 4750 
z
" transform="scale(0.015625)"/>
       </defs>
       <use xlink:href="#DejaVuSans-30"/>
      </g>
     </g>
    </g>
    <g id="ytick_2">
     <g id="line2d_7">
      <g>
       <use xlink:href="#mfea64c5424" x="90" y="284.724324" style="stroke: #000000; stroke-width: 0.8"/>
      </g>
     </g>
     <g id="text_8">
      <!-- 20 -->
      <g transform="translate(70.275 288.523543) scale(0.1 -0.1)">
       <defs>
        <path id="DejaVuSans-32" d="M 1228 531 
L 3431 531 
L 3431 0 
L 469 0 
L 469 531 
Q 828 903 1448 1529 
Q 2069 2156 2228 2338 
Q 2531 2678 2651 2914 
Q 2772 3150 2772 3378 
Q 2772 3750 2511 3984 
Q 2250 4219 1831 4219 
Q 1534 4219 1204 4116 
Q 875 4013 500 3803 
L 500 4441 
Q 881 4594 1212 4672 
Q 1544 4750 1819 4750 
Q 2544 4750 2975 4387 
Q 3406 4025 3406 3419 
Q 3406 3131 3298 2873 
Q 3191 2616 2906 2266 
Q 2828 2175 2409 1742 
Q 1991 1309 1228 531 
z
" transform="scale(0.015625)"/>
       </defs>
       <use xlink:href="#DejaVuSans-32"/>
       <use xlink:href="#DejaVuSans-30" transform="translate(63.623047 0)"/>
      </g>
     </g>
    </g>
    <g id="ytick_3">
     <g id="line2d_8">
      <g>
       <use xlink:href="#mfea64c5424" x="90" y="249.048649" style="stroke: #000000; stroke-width: 0.8"/>
      </g>
     </g>
     <g id="text_9">
      <!-- 40 -->
      <g transform="translate(70.275 252.847867) scale(0.1 -0.1)">
       <defs>
        <path id="DejaVuSans-34" d="M 2419 4116 
L 825 1625 
L 2419 1625 
L 2419 4116 
z
M 2253 4666 
L 3047 4666 
L 3047 1625 
L 3713 1625 
L 3713 1100 
L 3047 1100 
L 3047 0 
L 2419 0 
L 2419 1100 
L 313 1100 
L 313 1709 
L 2253 4666 
z
" transform="scale(0.015625)"/>
       </defs>
       <use xlink:href="#DejaVuSans-34"/>
       <use xlink:href="#DejaVuSans-30" transform="translate(63.623047 0)"/>
      </g>
     </g>
    </g>
    <g id="ytick_4">
     <g id="line2d_9">
      <g>
       <use xlink:href="#mfea64c5424" x="90" y="213.372973" style="stroke: #000000; stroke-width: 0.8"/>
      </g>
     </g>
     <g id="text_10">
      <!-- 60 -->
      <g transform="translate(70.275 217.172192) scale(0.1 -0.1)">
       <defs>
        <path id="DejaVuSans-36" d="M 2113 2584 
Q 1688 2584 1439 2293 
Q 1191 2003 1191 1497 
Q 1191 994 1439 701 
Q 1688 409 2113 409 
Q 2538 409 2786 701 
Q 3034 994 3034 1497 
Q 3034 2003 2786 2293 
Q 2538 2584 2113 2584 
z
M 3366 4563 
L 3366 3988 
Q 3128 4100 2886 4159 
Q 2644 4219 2406 4219 
Q 1781 4219 1451 3797 
Q 1122 3375 1075 2522 
Q 1259 2794 1537 2939 
Q 1816 3084 2150 3084 
Q 2853 3084 3261 2657 
Q 3669 2231 3669 1497 
Q 3669 778 3244 343 
Q 2819 -91 2113 -91 
Q 1303 -91 875 529 
Q 447 1150 447 2328 
Q 447 3434 972 4092 
Q 1497 4750 2381 4750 
Q 2619 4750 2861 4703 
Q 3103 4656 3366 4563 
z
" transform="scale(0.015625)"/>
       </defs>
       <use xlink:href="#DejaVuSans-36"/>
       <use xlink:href="#DejaVuSans-30" transform="translate(63.623047 0)"/>
      </g>
     </g>
    </g>
    <g id="ytick_5">
     <g id="line2d_10">
      <g>
       <use xlink:href="#mfea64c5424" x="90" y="177.697297" style="stroke: #000000; stroke-width: 0.8"/>
      </g>
     </g>
     <g id="text_11">
      <!-- 80 -->
      <g transform="translate(70.275 181.496516) scale(0.1 -0.1)">
       <defs>
        <path id="DejaVuSans-38" d="M 2034 2216 
Q 1584 2216 1326 1975 
Q 1069 1734 1069 1313 
Q 1069 891 1326 650 
Q 1584 409 2034 409 
Q 2484 409 2743 651 
Q 3003 894 3003 1313 
Q 3003 1734 2745 1975 
Q 2488 2216 2034 2216 
z
M 1403 2484 
Q 997 2584 770 2862 
Q 544 3141 544 3541 
Q 544 4100 942 4425 
Q 1341 4750 2034 4750 
Q 2731 4750 3128 4425 
Q 3525 4100 3525 3541 
Q 3525 3141 3298 2862 
Q 3072 2584 2669 2484 
Q 3125 2378 3379 2068 
Q 3634 1759 3634 1313 
Q 3634 634 3220 271 
Q 2806 -91 2034 -91 
Q 1263 -91 848 271 
Q 434 634 434 1313 
Q 434 1759 690 2068 
Q 947 2378 1403 2484 
z
M 1172 3481 
Q 1172 3119 1398 2916 
Q 1625 2713 2034 2713 
Q 2441 2713 2670 2916 
Q 2900 3119 2900 3481 
Q 2900 3844 2670 4047 
Q 2441 4250 2034 4250 
Q 1625 4250 1398 4047 
Q 1172 3844 1172 3481 
z
" transform="scale(0.015625)"/>
       </defs>
       <use xlink:href="#DejaVuSans-38"/>
       <use xlink:href="#DejaVuSans-30" transform="translate(63.623047 0)"/>
      </g>
     </g>
    </g>
    <g id="ytick_6">
     <g id="line2d_11">
      <g>
       <use xlink:href="#mfea64c5424" x="90" y="142.021622" style="stroke: #000000; stroke-width: 0.8"/>
      </g>
     </g>
     <g id="text_12">
      <!-- 100 -->
      <g transform="translate(63.9125 145.82084) scale(0.1 -0.1)">
       <defs>
        <path id="DejaVuSans-31" d="M 794 531 
L 1825 531 
L 1825 4091 
L 703 3866 
L 703 4441 
L 1819 4666 
L 2450 4666 
L 2450 531 
L 3481 531 
L 3481 0 
L 794 0 
L 794 531 
z
" transform="scale(0.015625)"/>
       </defs>
       <use xlink:href="#DejaVuSans-31"/>
       <use xlink:href="#DejaVuSans-30" transform="translate(63.623047 0)"/>
       <use xlink:href="#DejaVuSans-30" transform="translate(127.246094 0)"/>
      </g>
     </g>
    </g>
    <g id="ytick_7">
     <g id="line2d_12">
      <g>
       <use xlink:href="#mfea64c5424" x="90" y="106.345946" style="stroke: #000000; stroke-width: 0.8"/>
      </g>
     </g>
     <g id="text_13">
      <!-- 120 -->
      <g transform="translate(63.9125 110.145165) scale(0.1 -0.1)">
       <use xlink:href="#DejaVuSans-31"/>
       <use xlink:href="#DejaVuSans-32" transform="translate(63.623047 0)"/>
       <use xlink:href="#DejaVuSans-30" transform="translate(127.246094 0)"/>
      </g>
     </g>
    </g>
    <g id="ytick_8">
     <g id="line2d_13">
      <g>
       <use xlink:href="#mfea64c5424" x="90" y="70.67027" style="stroke: #000000; stroke-width: 0.8"/>
      </g>
     </g>
     <g id="text_14">
      <!-- 140 -->
      <g transform="translate(63.9125 74.469489) scale(0.1 -0.1)">
       <use xlink:href="#DejaVuSans-31"/>
       <use xlink:href="#DejaVuSans-34" transform="translate(63.623047 0)"/>
       <use xlink:href="#DejaVuSans-30" transform="translate(127.246094 0)"/>
      </g>
     </g>
    </g>
    <g id="text_15">
     <!-- cont_variable -->
     <g transform="translate(57.554687 215.409375) rotate(-90) scale(0.1 -0.1)">
      <defs>
       <path id="DejaVuSans-5f" d="M 3263 -1063 
L 3263 -1509 
L -63 -1509 
L -63 -1063 
L 3263 -1063 
z
" transform="scale(0.015625)"/>
       <path id="DejaVuSans-62" d="M 3116 1747 
Q 3116 2381 2855 2742 
Q 2594 3103 2138 3103 
Q 1681 3103 1420 2742 
Q 1159 2381 1159 1747 
Q 1159 1113 1420 752 
Q 1681 391 2138 391 
Q 2594 391 2855 752 
Q 3116 1113 3116 1747 
z
M 1159 2969 
Q 1341 3281 1617 3432 
Q 1894 3584 2278 3584 
Q 2916 3584 3314 3078 
Q 3713 2572 3713 1747 
Q 3713 922 3314 415 
Q 2916 -91 2278 -91 
Q 1894 -91 1617 61 
Q 1341 213 1159 525 
L 1159 0 
L 581 0 
L 581 4863 
L 1159 4863 
L 1159 2969 
z
" transform="scale(0.015625)"/>
       <path id="DejaVuSans-6c" d="M 603 4863 
L 1178 4863 
L 1178 0 
L 603 0 
L 603 4863 
z
" transform="scale(0.015625)"/>
      </defs>
      <use xlink:href="#DejaVuSans-63"/>
      <use xlink:href="#DejaVuSans-6f" transform="translate(54.980469 0)"/>
      <use xlink:href="#DejaVuSans-6e" transform="translate(116.162109 0)"/>
      <use xlink:href="#DejaVuSans-74" transform="translate(179.541016 0)"/>
      <use xlink:href="#DejaVuSans-5f" transform="translate(218.75 0)"/>
      <use xlink:href="#DejaVuSans-76" transform="translate(268.75 0)"/>
      <use xlink:href="#DejaVuSans-61" transform="translate(327.929688 0)"/>
      <use xlink:href="#DejaVuSans-72" transform="translate(389.208984 0)"/>
      <use xlink:href="#DejaVuSans-69" transform="translate(430.322266 0)"/>
      <use xlink:href="#DejaVuSans-61" transform="translate(458.105469 0)"/>
      <use xlink:href="#DejaVuSans-62" transform="translate(519.384766 0)"/>
      <use xlink:href="#DejaVuSans-6c" transform="translate(582.861328 0)"/>
      <use xlink:href="#DejaVuSans-65" transform="translate(610.644531 0)"/>
     </g>
    </g>
   </g>
   <g id="line2d_14">
    <path clip-path="url(#pcb8831b98a)" style="fill: none; stroke: #424242; stroke-width: 2.25; stroke-linecap: square"/>
   </g>
   <g id="line2d_15">
    <path clip-path="url(#pcb8831b98a)" style="fill: none; stroke: #424242; stroke-width: 2.25; stroke-linecap: square"/>
   </g>
   <g id="line2d_16">
    <path clip-path="url(#pcb8831b98a)" style="fill: none; stroke: #424242; stroke-width: 2.25; stroke-linecap: square"/>
   </g>
   <g id="line2d_17">
    <path clip-path="url(#pcb8831b98a)" style="fill: none; stroke: #424242; stroke-width: 2.25; stroke-linecap: square"/>
   </g>
   <g id="line2d_18">
    <path clip-path="url(#pcb8831b98a)" style="fill: none; stroke: #424242; stroke-width: 2.25; stroke-linecap: square"/>
   </g>
   <g id="line2d_19">
    <path clip-path="url(#pcb8831b98a)" style="fill: none; stroke: #424242; stroke-width: 2.25; stroke-linecap: square"/>
   </g>
   <g id="line2d_20">
    <path clip-path="url(#pcb8831b98a)" style="fill: none; stroke: #424242; stroke-width: 2.25; stroke-linecap: square"/>
   </g>
   <g id="line2d_21">
    <path clip-path="url(#pcb8831b98a)" style="fill: none; stroke: #424242; stroke-width: 2.25; stroke-linecap: square"/>
   </g>
   <g id="line2d_22">
    <path clip-path="url(#pcb8831b98a)" style="fill: none; stroke: #424242; stroke-width: 2.25; stroke-linecap: square"/>
   </g>
   <g id="line2d_23">
    <path clip-path="url(#pcb8831b98a)" style="fill: none; stroke: #424242; stroke-width: 2.25; stroke-linecap: square"/>
   </g>
   <g id="line2d_24">
    <path clip-path="url(#pcb8831b98a)" style="fill: none; stroke: #424242; stroke-width: 2.25; stroke-linecap: square"/>
   </g>
   <g id="line2d_25">
    <path clip-path="url(#pcb8831b98a)" style="fill: none; stroke: #424242; stroke-width: 2.25; stroke-linecap: square"/>
   </g>
   <g id="line2d_26">
    <path clip-path="url(#pcb8831b98a)" style="fill: none; stroke: #424242; stroke-width: 2.25; stroke-linecap: square"/>
   </g>
   <g id="line2d_27">
    <path clip-path="url(#pcb8831b98a)" style="fill: none; stroke: #424242; stroke-width: 2.25; stroke-linecap: square"/>
   </g>
   <g id="line2d_28">
    <path clip-path="url(#pcb8831b98a)" style="fill: none; stroke: #424242; stroke-width: 2.25; stroke-linecap: square"/>
   </g>
   <g id="line2d_29">
    <path clip-path="url(#pcb8831b98a)" style="fill: none; stroke: #424242; stroke-width: 2.25; stroke-linecap: square"/>
   </g>
   <g id="line2d_30">
    <path clip-path="url(#pcb8831b98a)" style="fill: none; stroke: #424242; stroke-width: 2.25; stroke-linecap: square"/>
   </g>
   <g id="line2d_31">
    <path clip-path="url(#pcb8831b98a)" style="fill: none; stroke: #424242; stroke-width: 2.25; stroke-linecap: square"/>
   </g>
   <g id="line2d_32">
    <path clip-path="url(#pcb8831b98a)" style="fill: none; stroke: #424242; stroke-width: 2.25; stroke-linecap: square"/>
   </g>
   <g id="line2d_33">
    <path clip-path="url(#pcb8831b98a)" style="fill: none; stroke: #424242; stroke-width: 2.25; stroke-linecap: square"/>
   </g>
   <g id="line2d_34">
    <path clip-path="url(#pcb8831b98a)" style="fill: none; stroke: #424242; stroke-width: 2.25; stroke-linecap: square"/>
   </g>
   <g id="line2d_35">
    <path clip-path="url(#pcb8831b98a)" style="fill: none; stroke: #424242; stroke-width: 2.25; stroke-linecap: square"/>
   </g>
   <g id="line2d_36">
    <path clip-path="url(#pcb8831b98a)" style="fill: none; stroke: #424242; stroke-width: 2.25; stroke-linecap: square"/>
   </g>
   <g id="line2d_37">
    <path clip-path="url(#pcb8831b98a)" style="fill: none; stroke: #424242; stroke-width: 2.25; stroke-linecap: square"/>
   </g>
   <g id="line2d_38">
    <path clip-path="url(#pcb8831b98a)" style="fill: none; stroke: #424242; stroke-width: 2.25; stroke-linecap: square"/>
   </g>
   <g id="line2d_39">
    <path clip-path="url(#pcb8831b98a)" style="fill: none; stroke: #424242; stroke-width: 2.25; stroke-linecap: square"/>
   </g>
   <g id="patch_42">
    <path d="M 90 320.4 
L 90 43.2 
" style="fill: none; stroke: #000000; stroke-width: 0.8; stroke-linejoin: miter; stroke-linecap: square"/>
   </g>
   <g id="patch_43">
    <path d="M 648 320.4 
L 648 43.2 
" style="fill: none; stroke: #000000; stroke-width: 0.8; stroke-linejoin: miter; stroke-linecap: square"/>
   </g>
   <g id="patch_44">
    <path d="M 90 320.4 
L 648 320.4 
" style="fill: none; stroke: #000000; stroke-width: 0.8; stroke-linejoin: miter; stroke-linecap: square"/>
   </g>
   <g id="patch_45">
    <path d="M 90 43.2 
L 648 43.2 
" style="fill: none; stroke: #000000; stroke-width: 0.8; stroke-linejoin: miter; stroke-linecap: square"/>
   </g>
   <g id="PathCollection_1">
    <defs>
     <path id="m40a92912e3" d="M 0 2.5 
C 0.663008 2.5 1.29895 2.236584 1.767767 1.767767 
C 2.236584 1.29895 2.5 0.663008 2.5 0 
C 2.5 -0.663008 2.236584 -1.29895 1.767767 -1.767767 
C 1.29895 -2.236584 0.663008 -2.5 0 -2.5 
C -0.663008 -2.5 -1.29895 -2.236584 -1.767767 -1.767767 
C -2.236584 -1.29895 -2.5 -0.663008 -2.5 0 
C -2.5 0.663008 -2.236584 1.29895 -1.767767 1.767767 
C -1.29895 2.236584 -0.663008 2.5 0 2.5 
z
"/>
    </defs>
    <g clip-path="url(#pcb8831b98a)">
     <use xlink:href="#m40a92912e3" x="146.470751" y="306.12973" style="fill-opacity: 0.3"/>
     <use xlink:href="#m40a92912e3" x="147.385279" y="306.12973" style="fill-opacity: 0.3"/>
     <use xlink:href="#m40a92912e3" x="144.392871" y="313.264865" style="fill-opacity: 0.3"/>
     <use xlink:href="#m40a92912e3" x="149.098158" y="313.264865" style="fill-opacity: 0.3"/>
     <use xlink:href="#m40a92912e3" x="135.014377" y="306.12973" style="fill-opacity: 0.3"/>
     <use xlink:href="#m40a92912e3" x="136.884689" y="304.345946" style="fill-opacity: 0.3"/>
     <use xlink:href="#m40a92912e3" x="155.96772" y="304.345946" style="fill-opacity: 0.3"/>
     <use xlink:href="#m40a92912e3" x="151.433927" y="304.345946" style="fill-opacity: 0.3"/>
     <use xlink:href="#m40a92912e3" x="156.440585" y="304.345946" style="fill-opacity: 0.3"/>
     <use xlink:href="#m40a92912e3" x="134.904447" y="304.345946" style="fill-opacity: 0.3"/>
     <use xlink:href="#m40a92912e3" x="137.326832" y="304.345946" style="fill-opacity: 0.3"/>
     <use xlink:href="#m40a92912e3" x="134.765061" y="304.345946" style="fill-opacity: 0.3"/>
     <use xlink:href="#m40a92912e3" x="156.773991" y="304.345946" style="fill-opacity: 0.3"/>
     <use xlink:href="#m40a92912e3" x="150.817846" y="304.345946" style="fill-opacity: 0.3"/>
     <use xlink:href="#m40a92912e3" x="146.669606" y="304.345946" style="fill-opacity: 0.3"/>
     <use xlink:href="#m40a92912e3" x="150.679296" y="304.345946" style="fill-opacity: 0.3"/>
     <use xlink:href="#m40a92912e3" x="136.522615" y="304.345946" style="fill-opacity: 0.3"/>
     <use xlink:href="#m40a92912e3" x="147.94061" y="304.345946" style="fill-opacity: 0.3"/>
     <use xlink:href="#m40a92912e3" x="139.975198" y="304.345946" style="fill-opacity: 0.3"/>
     <use xlink:href="#m40a92912e3" x="136.556307" y="304.345946" style="fill-opacity: 0.3"/>
     <use xlink:href="#m40a92912e3" x="150.770018" y="304.345946" style="fill-opacity: 0.3"/>
     <use xlink:href="#m40a92912e3" x="156.095957" y="304.345946" style="fill-opacity: 0.3"/>
     <use xlink:href="#m40a92912e3" x="150.513071" y="304.345946" style="fill-opacity: 0.3"/>
     <use xlink:href="#m40a92912e3" x="146.074717" y="304.345946" style="fill-opacity: 0.3"/>
     <use xlink:href="#m40a92912e3" x="150.332146" y="304.345946" style="fill-opacity: 0.3"/>
     <use xlink:href="#m40a92912e3" x="144.657381" y="304.345946" style="fill-opacity: 0.3"/>
     <use xlink:href="#m40a92912e3" x="147.488592" y="304.345946" style="fill-opacity: 0.3"/>
     <use xlink:href="#m40a92912e3" x="140.001027" y="304.345946" style="fill-opacity: 0.3"/>
     <use xlink:href="#m40a92912e3" x="150.74529" y="304.345946" style="fill-opacity: 0.3"/>
     <use xlink:href="#m40a92912e3" x="151.289955" y="307.913514" style="fill-opacity: 0.3"/>
     <use xlink:href="#m40a92912e3" x="148.13961" y="307.913514" style="fill-opacity: 0.3"/>
     <use xlink:href="#m40a92912e3" x="140.360944" y="307.913514" style="fill-opacity: 0.3"/>
     <use xlink:href="#m40a92912e3" x="152.591755" y="307.913514" style="fill-opacity: 0.3"/>
     <use xlink:href="#m40a92912e3" x="147.00221" y="307.913514" style="fill-opacity: 0.3"/>
     <use xlink:href="#m40a92912e3" x="141.124382" y="307.913514" style="fill-opacity: 0.3"/>
     <use xlink:href="#m40a92912e3" x="136.779221" y="307.913514" style="fill-opacity: 0.3"/>
     <use xlink:href="#m40a92912e3" x="152.705365" y="307.913514" style="fill-opacity: 0.3"/>
     <use xlink:href="#m40a92912e3" x="140.682354" y="307.913514" style="fill-opacity: 0.3"/>
     <use xlink:href="#m40a92912e3" x="137.532102" y="307.913514" style="fill-opacity: 0.3"/>
     <use xlink:href="#m40a92912e3" x="151.903131" y="307.913514" style="fill-opacity: 0.3"/>
     <use xlink:href="#m40a92912e3" x="150.960541" y="307.913514" style="fill-opacity: 0.3"/>
     <use xlink:href="#m40a92912e3" x="156.664251" y="307.913514" style="fill-opacity: 0.3"/>
     <use xlink:href="#m40a92912e3" x="148.281299" y="307.913514" style="fill-opacity: 0.3"/>
     <use xlink:href="#m40a92912e3" x="145.996656" y="307.913514" style="fill-opacity: 0.3"/>
     <use xlink:href="#m40a92912e3" x="139.360319" y="307.913514" style="fill-opacity: 0.3"/>
     <use xlink:href="#m40a92912e3" x="143.317803" y="307.913514" style="fill-opacity: 0.3"/>
     <use xlink:href="#m40a92912e3" x="144.649953" y="307.913514" style="fill-opacity: 0.3"/>
     <use xlink:href="#m40a92912e3" x="144.743023" y="307.913514" style="fill-opacity: 0.3"/>
     <use xlink:href="#m40a92912e3" x="142.148351" y="307.913514" style="fill-opacity: 0.3"/>
     <use xlink:href="#m40a92912e3" x="151.038997" y="304.345946" style="fill-opacity: 0.3"/>
     <use xlink:href="#m40a92912e3" x="148.592497" y="304.345946" style="fill-opacity: 0.3"/>
     <use xlink:href="#m40a92912e3" x="152.400533" y="304.345946" style="fill-opacity: 0.3"/>
     <use xlink:href="#m40a92912e3" x="156.110928" y="304.345946" style="fill-opacity: 0.3"/>
     <use xlink:href="#m40a92912e3" x="155.932189" y="304.345946" style="fill-opacity: 0.3"/>
     <use xlink:href="#m40a92912e3" x="140.294277" y="304.345946" style="fill-opacity: 0.3"/>
    </g>
   </g>
   <g id="PathCollection_2">
    <g clip-path="url(#pcb8831b98a)">
     <use xlink:href="#m40a92912e3" x="256.888334" y="306.12973" style="fill-opacity: 0.3"/>
     <use xlink:href="#m40a92912e3" x="256.601929" y="306.12973" style="fill-opacity: 0.3"/>
     <use xlink:href="#m40a92912e3" x="251.218995" y="306.12973" style="fill-opacity: 0.3"/>
     <use xlink:href="#m40a92912e3" x="260.977996" y="306.12973" style="fill-opacity: 0.3"/>
     <use xlink:href="#m40a92912e3" x="246.531794" y="306.12973" style="fill-opacity: 0.3"/>
     <use xlink:href="#m40a92912e3" x="251.848374" y="306.12973" style="fill-opacity: 0.3"/>
     <use xlink:href="#m40a92912e3" x="257.34777" y="306.12973" style="fill-opacity: 0.3"/>
     <use xlink:href="#m40a92912e3" x="264.094439" y="306.12973" style="fill-opacity: 0.3"/>
     <use xlink:href="#m40a92912e3" x="265.394657" y="306.12973" style="fill-opacity: 0.3"/>
     <use xlink:href="#m40a92912e3" x="247.150814" y="306.12973" style="fill-opacity: 0.3"/>
     <use xlink:href="#m40a92912e3" x="266.90571" y="313.264865" style="fill-opacity: 0.3"/>
     <use xlink:href="#m40a92912e3" x="254.763586" y="313.264865" style="fill-opacity: 0.3"/>
     <use xlink:href="#m40a92912e3" x="251.31004" y="313.264865" style="fill-opacity: 0.3"/>
     <use xlink:href="#m40a92912e3" x="253.158591" y="313.264865" style="fill-opacity: 0.3"/>
     <use xlink:href="#m40a92912e3" x="266.606119" y="306.12973" style="fill-opacity: 0.3"/>
     <use xlink:href="#m40a92912e3" x="263.959331" y="304.345946" style="fill-opacity: 0.3"/>
     <use xlink:href="#m40a92912e3" x="247.057493" y="304.345946" style="fill-opacity: 0.3"/>
     <use xlink:href="#m40a92912e3" x="259.453007" y="304.345946" style="fill-opacity: 0.3"/>
     <use xlink:href="#m40a92912e3" x="265.543606" y="304.345946" style="fill-opacity: 0.3"/>
     <use xlink:href="#m40a92912e3" x="251.988553" y="304.345946" style="fill-opacity: 0.3"/>
     <use xlink:href="#m40a92912e3" x="266.655692" y="304.345946" style="fill-opacity: 0.3"/>
     <use xlink:href="#m40a92912e3" x="248.790439" y="304.345946" style="fill-opacity: 0.3"/>
     <use xlink:href="#m40a92912e3" x="263.400003" y="304.345946" style="fill-opacity: 0.3"/>
     <use xlink:href="#m40a92912e3" x="251.029089" y="304.345946" style="fill-opacity: 0.3"/>
     <use xlink:href="#m40a92912e3" x="256.716187" y="304.345946" style="fill-opacity: 0.3"/>
     <use xlink:href="#m40a92912e3" x="249.7488" y="304.345946" style="fill-opacity: 0.3"/>
     <use xlink:href="#m40a92912e3" x="254.633385" y="304.345946" style="fill-opacity: 0.3"/>
     <use xlink:href="#m40a92912e3" x="253.585456" y="304.345946" style="fill-opacity: 0.3"/>
     <use xlink:href="#m40a92912e3" x="260.025741" y="304.345946" style="fill-opacity: 0.3"/>
     <use xlink:href="#m40a92912e3" x="257.593964" y="304.345946" style="fill-opacity: 0.3"/>
     <use xlink:href="#m40a92912e3" x="268.062573" y="304.345946" style="fill-opacity: 0.3"/>
     <use xlink:href="#m40a92912e3" x="256.933267" y="304.345946" style="fill-opacity: 0.3"/>
     <use xlink:href="#m40a92912e3" x="257.214788" y="304.345946" style="fill-opacity: 0.3"/>
     <use xlink:href="#m40a92912e3" x="255.208051" y="304.345946" style="fill-opacity: 0.3"/>
     <use xlink:href="#m40a92912e3" x="248.557147" y="304.345946" style="fill-opacity: 0.3"/>
     <use xlink:href="#m40a92912e3" x="253.83229" y="304.345946" style="fill-opacity: 0.3"/>
     <use xlink:href="#m40a92912e3" x="257.833092" y="304.345946" style="fill-opacity: 0.3"/>
     <use xlink:href="#m40a92912e3" x="247.777753" y="304.345946" style="fill-opacity: 0.3"/>
     <use xlink:href="#m40a92912e3" x="260.062673" y="304.345946" style="fill-opacity: 0.3"/>
     <use xlink:href="#m40a92912e3" x="258.197879" y="304.345946" style="fill-opacity: 0.3"/>
     <use xlink:href="#m40a92912e3" x="258.114047" y="304.345946" style="fill-opacity: 0.3"/>
     <use xlink:href="#m40a92912e3" x="261.516647" y="304.345946" style="fill-opacity: 0.3"/>
     <use xlink:href="#m40a92912e3" x="267.530781" y="304.345946" style="fill-opacity: 0.3"/>
     <use xlink:href="#m40a92912e3" x="249.722369" y="304.345946" style="fill-opacity: 0.3"/>
     <use xlink:href="#m40a92912e3" x="257.900675" y="304.345946" style="fill-opacity: 0.3"/>
     <use xlink:href="#m40a92912e3" x="260.019919" y="304.345946" style="fill-opacity: 0.3"/>
     <use xlink:href="#m40a92912e3" x="246.964182" y="304.345946" style="fill-opacity: 0.3"/>
     <use xlink:href="#m40a92912e3" x="258.228974" y="304.345946" style="fill-opacity: 0.3"/>
     <use xlink:href="#m40a92912e3" x="261.01481" y="304.345946" style="fill-opacity: 0.3"/>
     <use xlink:href="#m40a92912e3" x="262.701632" y="304.345946" style="fill-opacity: 0.3"/>
     <use xlink:href="#m40a92912e3" x="253.645528" y="304.345946" style="fill-opacity: 0.3"/>
     <use xlink:href="#m40a92912e3" x="258.243633" y="304.345946" style="fill-opacity: 0.3"/>
     <use xlink:href="#m40a92912e3" x="262.678593" y="304.345946" style="fill-opacity: 0.3"/>
     <use xlink:href="#m40a92912e3" x="263.355382" y="304.345946" style="fill-opacity: 0.3"/>
     <use xlink:href="#m40a92912e3" x="261.612546" y="304.345946" style="fill-opacity: 0.3"/>
     <use xlink:href="#m40a92912e3" x="252.706921" y="304.345946" style="fill-opacity: 0.3"/>
     <use xlink:href="#m40a92912e3" x="251.297905" y="304.345946" style="fill-opacity: 0.3"/>
     <use xlink:href="#m40a92912e3" x="250.770183" y="304.345946" style="fill-opacity: 0.3"/>
     <use xlink:href="#m40a92912e3" x="248.543951" y="304.345946" style="fill-opacity: 0.3"/>
     <use xlink:href="#m40a92912e3" x="247.647762" y="304.345946" style="fill-opacity: 0.3"/>
     <use xlink:href="#m40a92912e3" x="263.840456" y="307.913514" style="fill-opacity: 0.3"/>
     <use xlink:href="#m40a92912e3" x="266.934054" y="307.913514" style="fill-opacity: 0.3"/>
     <use xlink:href="#m40a92912e3" x="268.213957" y="307.913514" style="fill-opacity: 0.3"/>
     <use xlink:href="#m40a92912e3" x="256.317685" y="307.913514" style="fill-opacity: 0.3"/>
     <use xlink:href="#m40a92912e3" x="254.605857" y="307.913514" style="fill-opacity: 0.3"/>
     <use xlink:href="#m40a92912e3" x="260.834698" y="307.913514" style="fill-opacity: 0.3"/>
     <use xlink:href="#m40a92912e3" x="246.945226" y="307.913514" style="fill-opacity: 0.3"/>
     <use xlink:href="#m40a92912e3" x="248.033623" y="307.913514" style="fill-opacity: 0.3"/>
     <use xlink:href="#m40a92912e3" x="258.662429" y="307.913514" style="fill-opacity: 0.3"/>
     <use xlink:href="#m40a92912e3" x="260.724807" y="307.913514" style="fill-opacity: 0.3"/>
     <use xlink:href="#m40a92912e3" x="263.693664" y="307.913514" style="fill-opacity: 0.3"/>
     <use xlink:href="#m40a92912e3" x="248.888678" y="307.913514" style="fill-opacity: 0.3"/>
     <use xlink:href="#m40a92912e3" x="252.326542" y="307.913514" style="fill-opacity: 0.3"/>
     <use xlink:href="#m40a92912e3" x="263.665176" y="307.913514" style="fill-opacity: 0.3"/>
     <use xlink:href="#m40a92912e3" x="265.901168" y="307.913514" style="fill-opacity: 0.3"/>
     <use xlink:href="#m40a92912e3" x="265.298928" y="307.913514" style="fill-opacity: 0.3"/>
     <use xlink:href="#m40a92912e3" x="251.6941" y="307.913514" style="fill-opacity: 0.3"/>
     <use xlink:href="#m40a92912e3" x="250.513711" y="307.913514" style="fill-opacity: 0.3"/>
     <use xlink:href="#m40a92912e3" x="264.293133" y="307.913514" style="fill-opacity: 0.3"/>
     <use xlink:href="#m40a92912e3" x="259.309086" y="307.913514" style="fill-opacity: 0.3"/>
     <use xlink:href="#m40a92912e3" x="254.742723" y="307.913514" style="fill-opacity: 0.3"/>
     <use xlink:href="#m40a92912e3" x="254.316016" y="307.913514" style="fill-opacity: 0.3"/>
     <use xlink:href="#m40a92912e3" x="255.895887" y="307.913514" style="fill-opacity: 0.3"/>
     <use xlink:href="#m40a92912e3" x="264.416349" y="304.345946" style="fill-opacity: 0.3"/>
     <use xlink:href="#m40a92912e3" x="251.953079" y="304.345946" style="fill-opacity: 0.3"/>
     <use xlink:href="#m40a92912e3" x="262.854157" y="304.345946" style="fill-opacity: 0.3"/>
     <use xlink:href="#m40a92912e3" x="253.490089" y="304.345946" style="fill-opacity: 0.3"/>
    </g>
   </g>
   <g id="PathCollection_3">
    <g clip-path="url(#pcb8831b98a)">
     <use xlink:href="#m40a92912e3" x="369.18309" y="306.12973" style="fill-opacity: 0.3"/>
     <use xlink:href="#m40a92912e3" x="370.654608" y="306.12973" style="fill-opacity: 0.3"/>
     <use xlink:href="#m40a92912e3" x="358.006068" y="306.12973" style="fill-opacity: 0.3"/>
     <use xlink:href="#m40a92912e3" x="362.551672" y="306.12973" style="fill-opacity: 0.3"/>
     <use xlink:href="#m40a92912e3" x="371.003056" y="313.264865" style="fill-opacity: 0.3"/>
     <use xlink:href="#m40a92912e3" x="360.087909" y="313.264865" style="fill-opacity: 0.3"/>
     <use xlink:href="#m40a92912e3" x="364.862856" y="313.264865" style="fill-opacity: 0.3"/>
     <use xlink:href="#m40a92912e3" x="371.508599" y="306.12973" style="fill-opacity: 0.3"/>
     <use xlink:href="#m40a92912e3" x="362.559535" y="313.264865" style="fill-opacity: 0.3"/>
     <use xlink:href="#m40a92912e3" x="360.282603" y="306.12973" style="fill-opacity: 0.3"/>
     <use xlink:href="#m40a92912e3" x="362.91414" y="313.264865" style="fill-opacity: 0.3"/>
     <use xlink:href="#m40a92912e3" x="370.165181" y="304.345946" style="fill-opacity: 0.3"/>
     <use xlink:href="#m40a92912e3" x="375.582984" y="304.345946" style="fill-opacity: 0.3"/>
     <use xlink:href="#m40a92912e3" x="364.095288" y="304.345946" style="fill-opacity: 0.3"/>
     <use xlink:href="#m40a92912e3" x="365.514811" y="304.345946" style="fill-opacity: 0.3"/>
     <use xlink:href="#m40a92912e3" x="372.411824" y="304.345946" style="fill-opacity: 0.3"/>
     <use xlink:href="#m40a92912e3" x="376.882175" y="304.345946" style="fill-opacity: 0.3"/>
     <use xlink:href="#m40a92912e3" x="371.38938" y="304.345946" style="fill-opacity: 0.3"/>
     <use xlink:href="#m40a92912e3" x="379.184062" y="304.345946" style="fill-opacity: 0.3"/>
     <use xlink:href="#m40a92912e3" x="378.177369" y="304.345946" style="fill-opacity: 0.3"/>
     <use xlink:href="#m40a92912e3" x="375.495108" y="304.345946" style="fill-opacity: 0.3"/>
     <use xlink:href="#m40a92912e3" x="359.599691" y="304.345946" style="fill-opacity: 0.3"/>
     <use xlink:href="#m40a92912e3" x="374.374604" y="304.345946" style="fill-opacity: 0.3"/>
     <use xlink:href="#m40a92912e3" x="361.684481" y="304.345946" style="fill-opacity: 0.3"/>
     <use xlink:href="#m40a92912e3" x="379.819026" y="304.345946" style="fill-opacity: 0.3"/>
     <use xlink:href="#m40a92912e3" x="373.313576" y="304.345946" style="fill-opacity: 0.3"/>
     <use xlink:href="#m40a92912e3" x="374.411578" y="304.345946" style="fill-opacity: 0.3"/>
     <use xlink:href="#m40a92912e3" x="360.850646" y="304.345946" style="fill-opacity: 0.3"/>
     <use xlink:href="#m40a92912e3" x="364.607424" y="304.345946" style="fill-opacity: 0.3"/>
     <use xlink:href="#m40a92912e3" x="362.78622" y="304.345946" style="fill-opacity: 0.3"/>
     <use xlink:href="#m40a92912e3" x="379.440008" y="304.345946" style="fill-opacity: 0.3"/>
     <use xlink:href="#m40a92912e3" x="368.910199" y="304.345946" style="fill-opacity: 0.3"/>
     <use xlink:href="#m40a92912e3" x="373.338486" y="304.345946" style="fill-opacity: 0.3"/>
     <use xlink:href="#m40a92912e3" x="361.107095" y="304.345946" style="fill-opacity: 0.3"/>
     <use xlink:href="#m40a92912e3" x="359.989711" y="307.913514" style="fill-opacity: 0.3"/>
     <use xlink:href="#m40a92912e3" x="358.708548" y="307.913514" style="fill-opacity: 0.3"/>
     <use xlink:href="#m40a92912e3" x="378.751132" y="307.913514" style="fill-opacity: 0.3"/>
     <use xlink:href="#m40a92912e3" x="364.418171" y="307.913514" style="fill-opacity: 0.3"/>
     <use xlink:href="#m40a92912e3" x="368.978973" y="307.913514" style="fill-opacity: 0.3"/>
     <use xlink:href="#m40a92912e3" x="367.226929" y="307.913514" style="fill-opacity: 0.3"/>
     <use xlink:href="#m40a92912e3" x="360.416357" y="304.345946" style="fill-opacity: 0.3"/>
     <use xlink:href="#m40a92912e3" x="362.403374" y="304.345946" style="fill-opacity: 0.3"/>
    </g>
   </g>
   <g id="PathCollection_4">
    <g clip-path="url(#pcb8831b98a)">
     <use xlink:href="#m40a92912e3" x="489.528281" y="313.264865" style="fill-opacity: 0.3"/>
     <use xlink:href="#m40a92912e3" x="469.945985" y="306.12973" style="fill-opacity: 0.3"/>
     <use xlink:href="#m40a92912e3" x="488.885543" y="304.345946" style="fill-opacity: 0.3"/>
     <use xlink:href="#m40a92912e3" x="491.410621" y="304.345946" style="fill-opacity: 0.3"/>
     <use xlink:href="#m40a92912e3" x="476.577774" y="304.345946" style="fill-opacity: 0.3"/>
     <use xlink:href="#m40a92912e3" x="484.62977" y="304.345946" style="fill-opacity: 0.3"/>
     <use xlink:href="#m40a92912e3" x="480.37703" y="304.345946" style="fill-opacity: 0.3"/>
     <use xlink:href="#m40a92912e3" x="478.81444" y="307.913514" style="fill-opacity: 0.3"/>
     <use xlink:href="#m40a92912e3" x="478.985207" y="307.913514" style="fill-opacity: 0.3"/>
     <use xlink:href="#m40a92912e3" x="480.217426" y="307.913514" style="fill-opacity: 0.3"/>
     <use xlink:href="#m40a92912e3" x="486.35554" y="307.913514" style="fill-opacity: 0.3"/>
     <use xlink:href="#m40a92912e3" x="486.866088" y="307.913514" style="fill-opacity: 0.3"/>
     <use xlink:href="#m40a92912e3" x="491.508166" y="307.913514" style="fill-opacity: 0.3"/>
     <use xlink:href="#m40a92912e3" x="488.328019" y="307.913514" style="fill-opacity: 0.3"/>
     <use xlink:href="#m40a92912e3" x="485.878252" y="307.913514" style="fill-opacity: 0.3"/>
     <use xlink:href="#m40a92912e3" x="483.462198" y="307.913514" style="fill-opacity: 0.3"/>
     <use xlink:href="#m40a92912e3" x="474.919587" y="307.913514" style="fill-opacity: 0.3"/>
     <use xlink:href="#m40a92912e3" x="485.023313" y="307.913514" style="fill-opacity: 0.3"/>
     <use xlink:href="#m40a92912e3" x="470.256719" y="304.345946" style="fill-opacity: 0.3"/>
     <use xlink:href="#m40a92912e3" x="469.61303" y="304.345946" style="fill-opacity: 0.3"/>
     <use xlink:href="#m40a92912e3" x="470.683613" y="304.345946" style="fill-opacity: 0.3"/>
     <use xlink:href="#m40a92912e3" x="483.879143" y="304.345946" style="fill-opacity: 0.3"/>
     <use xlink:href="#m40a92912e3" x="477.746098" y="304.345946" style="fill-opacity: 0.3"/>
     <use xlink:href="#m40a92912e3" x="470.923996" y="304.345946" style="fill-opacity: 0.3"/>
     <use xlink:href="#m40a92912e3" x="491.550574" y="304.345946" style="fill-opacity: 0.3"/>
     <use xlink:href="#m40a92912e3" x="474.356955" y="304.345946" style="fill-opacity: 0.3"/>
     <use xlink:href="#m40a92912e3" x="485.211209" y="304.345946" style="fill-opacity: 0.3"/>
    </g>
   </g>
   <g id="legend_1">
    <g id="patch_46">
     <path d="M 97 256.69375 
L 174.415625 256.69375 
Q 176.415625 256.69375 176.415625 254.69375 
L 176.415625 50.2 
Q 176.415625 48.2 174.415625 48.2 
L 97 48.2 
Q 95 48.2 95 50.2 
L 95 254.69375 
Q 95 256.69375 97 256.69375 
z
" style="fill: #ffffff; opacity: 0.8; stroke: #cccccc; stroke-linejoin: miter"/>
    </g>
    <g id="text_16">
     <!-- fMRI.sequence -->
     <g transform="translate(99 59.798437) scale(0.1 -0.1)">
      <defs>
       <path id="DejaVuSans-4d" d="M 628 4666 
L 1569 4666 
L 2759 1491 
L 3956 4666 
L 4897 4666 
L 4897 0 
L 4281 0 
L 4281 4097 
L 3078 897 
L 2444 897 
L 1241 4097 
L 1241 0 
L 628 0 
L 628 4666 
z
" transform="scale(0.015625)"/>
       <path id="DejaVuSans-52" d="M 2841 2188 
Q 3044 2119 3236 1894 
Q 3428 1669 3622 1275 
L 4263 0 
L 3584 0 
L 2988 1197 
Q 2756 1666 2539 1819 
Q 2322 1972 1947 1972 
L 1259 1972 
L 1259 0 
L 628 0 
L 628 4666 
L 2053 4666 
Q 2853 4666 3247 4331 
Q 3641 3997 3641 3322 
Q 3641 2881 3436 2590 
Q 3231 2300 2841 2188 
z
M 1259 4147 
L 1259 2491 
L 2053 2491 
Q 2509 2491 2742 2702 
Q 2975 2913 2975 3322 
Q 2975 3731 2742 3939 
Q 2509 4147 2053 4147 
L 1259 4147 
z
" transform="scale(0.015625)"/>
       <path id="DejaVuSans-49" d="M 628 4666 
L 1259 4666 
L 1259 0 
L 628 0 
L 628 4666 
z
" transform="scale(0.015625)"/>
       <path id="DejaVuSans-2e" d="M 684 794 
L 1344 794 
L 1344 0 
L 684 0 
L 684 794 
z
" transform="scale(0.015625)"/>
       <path id="DejaVuSans-71" d="M 947 1747 
Q 947 1113 1208 752 
Q 1469 391 1925 391 
Q 2381 391 2643 752 
Q 2906 1113 2906 1747 
Q 2906 2381 2643 2742 
Q 2381 3103 1925 3103 
Q 1469 3103 1208 2742 
Q 947 2381 947 1747 
z
M 2906 525 
Q 2725 213 2448 61 
Q 2172 -91 1784 -91 
Q 1150 -91 751 415 
Q 353 922 353 1747 
Q 353 2572 751 3078 
Q 1150 3584 1784 3584 
Q 2172 3584 2448 3432 
Q 2725 3281 2906 2969 
L 2906 3500 
L 3481 3500 
L 3481 -1331 
L 2906 -1331 
L 2906 525 
z
" transform="scale(0.015625)"/>
      </defs>
      <use xlink:href="#DejaVuSans-66"/>
      <use xlink:href="#DejaVuSans-4d" transform="translate(35.205078 0)"/>
      <use xlink:href="#DejaVuSans-52" transform="translate(121.484375 0)"/>
      <use xlink:href="#DejaVuSans-49" transform="translate(190.966797 0)"/>
      <use xlink:href="#DejaVuSans-2e" transform="translate(220.458984 0)"/>
      <use xlink:href="#DejaVuSans-73" transform="translate(252.246094 0)"/>
      <use xlink:href="#DejaVuSans-65" transform="translate(304.345703 0)"/>
      <use xlink:href="#DejaVuSans-71" transform="translate(365.869141 0)"/>
      <use xlink:href="#DejaVuSans-75" transform="translate(429.345703 0)"/>
      <use xlink:href="#DejaVuSans-65" transform="translate(492.724609 0)"/>
      <use xlink:href="#DejaVuSans-6e" transform="translate(554.248047 0)"/>
      <use xlink:href="#DejaVuSans-63" transform="translate(617.626953 0)"/>
      <use xlink:href="#DejaVuSans-65" transform="translate(672.607422 0)"/>
     </g>
    </g>
    <g id="patch_47">
     <path d="M 105.221094 74.476562 
L 125.221094 74.476562 
L 125.221094 67.476562 
L 105.221094 67.476562 
z
" style="fill: #3274a1"/>
    </g>
    <g id="text_17">
     <!-- f -->
     <g transform="translate(133.221094 74.476562) scale(0.1 -0.1)">
      <use xlink:href="#DejaVuSans-66"/>
     </g>
    </g>
    <g id="patch_48">
     <path d="M 105.221094 89.154688 
L 125.221094 89.154688 
L 125.221094 82.154688 
L 105.221094 82.154688 
z
" style="fill: #e1812c"/>
    </g>
    <g id="text_18">
     <!-- m -->
     <g transform="translate(133.221094 89.154688) scale(0.1 -0.1)">
      <defs>
       <path id="DejaVuSans-6d" d="M 3328 2828 
Q 3544 3216 3844 3400 
Q 4144 3584 4550 3584 
Q 5097 3584 5394 3201 
Q 5691 2819 5691 2113 
L 5691 0 
L 5113 0 
L 5113 2094 
Q 5113 2597 4934 2840 
Q 4756 3084 4391 3084 
Q 3944 3084 3684 2787 
Q 3425 2491 3425 1978 
L 3425 0 
L 2847 0 
L 2847 2094 
Q 2847 2600 2669 2842 
Q 2491 3084 2119 3084 
Q 1678 3084 1418 2786 
Q 1159 2488 1159 1978 
L 1159 0 
L 581 0 
L 581 3500 
L 1159 3500 
L 1159 2956 
Q 1356 3278 1631 3431 
Q 1906 3584 2284 3584 
Q 2666 3584 2933 3390 
Q 3200 3197 3328 2828 
z
" transform="scale(0.015625)"/>
      </defs>
      <use xlink:href="#DejaVuSans-6d"/>
     </g>
    </g>
    <g id="patch_49">
     <path d="M 105.221094 103.832813 
L 125.221094 103.832813 
L 125.221094 96.832813 
L 105.221094 96.832813 
z
" style="fill: #3274a1"/>
    </g>
    <g id="text_19">
     <!-- f -->
     <g transform="translate(133.221094 103.832813) scale(0.1 -0.1)">
      <use xlink:href="#DejaVuSans-66"/>
     </g>
    </g>
    <g id="patch_50">
     <path d="M 105.221094 118.510938 
L 125.221094 118.510938 
L 125.221094 111.510938 
L 105.221094 111.510938 
z
" style="fill: #e1812c"/>
    </g>
    <g id="text_20">
     <!-- m -->
     <g transform="translate(133.221094 118.510938) scale(0.1 -0.1)">
      <use xlink:href="#DejaVuSans-6d"/>
     </g>
    </g>
    <g id="patch_51">
     <path d="M 105.221094 133.189063 
L 125.221094 133.189063 
L 125.221094 126.189063 
L 105.221094 126.189063 
z
" style="fill: #3274a1"/>
    </g>
    <g id="text_21">
     <!-- n -->
     <g transform="translate(133.221094 133.189063) scale(0.1 -0.1)">
      <use xlink:href="#DejaVuSans-6e"/>
     </g>
    </g>
    <g id="patch_52">
     <path d="M 105.221094 147.867188 
L 125.221094 147.867188 
L 125.221094 140.867188 
L 105.221094 140.867188 
z
" style="fill: #e1812c"/>
    </g>
    <g id="text_22">
     <!-- y -->
     <g transform="translate(133.221094 147.867188) scale(0.1 -0.1)">
      <use xlink:href="#DejaVuSans-79"/>
     </g>
    </g>
    <g id="patch_53">
     <path d="M 105.221094 162.545313 
L 125.221094 162.545313 
L 125.221094 155.545313 
L 105.221094 155.545313 
z
" style="fill: #3274a1"/>
    </g>
    <g id="text_23">
     <!-- y -->
     <g transform="translate(133.221094 162.545313) scale(0.1 -0.1)">
      <use xlink:href="#DejaVuSans-79"/>
     </g>
    </g>
    <g id="patch_54">
     <path d="M 105.221094 177.223437 
L 125.221094 177.223437 
L 125.221094 170.223437 
L 105.221094 170.223437 
z
" style="fill: #3274a1"/>
    </g>
    <g id="text_24">
     <!-- long -->
     <g transform="translate(133.221094 177.223437) scale(0.1 -0.1)">
      <use xlink:href="#DejaVuSans-6c"/>
      <use xlink:href="#DejaVuSans-6f" transform="translate(27.783203 0)"/>
      <use xlink:href="#DejaVuSans-6e" transform="translate(88.964844 0)"/>
      <use xlink:href="#DejaVuSans-67" transform="translate(152.34375 0)"/>
     </g>
    </g>
    <g id="patch_55">
     <path d="M 105.221094 191.901563 
L 125.221094 191.901563 
L 125.221094 184.901563 
L 105.221094 184.901563 
z
" style="fill: #3274a1"/>
    </g>
    <g id="text_25">
     <!-- n -->
     <g transform="translate(133.221094 191.901563) scale(0.1 -0.1)">
      <use xlink:href="#DejaVuSans-6e"/>
     </g>
    </g>
    <g id="patch_56">
     <path d="M 105.221094 206.579687 
L 125.221094 206.579687 
L 125.221094 199.579687 
L 105.221094 199.579687 
z
" style="fill: #e1812c"/>
    </g>
    <g id="text_26">
     <!-- y -->
     <g transform="translate(133.221094 206.579687) scale(0.1 -0.1)">
      <use xlink:href="#DejaVuSans-79"/>
     </g>
    </g>
    <g id="patch_57">
     <path d="M 105.221094 221.257812 
L 125.221094 221.257812 
L 125.221094 214.257812 
L 105.221094 214.257812 
z
" style="fill: #e9d4d0"/>
    </g>
    <g id="text_27">
     <!-- 7 -->
     <g transform="translate(133.221094 221.257812) scale(0.1 -0.1)">
      <defs>
       <path id="DejaVuSans-37" d="M 525 4666 
L 3525 4666 
L 3525 4397 
L 1831 0 
L 1172 0 
L 2766 4134 
L 525 4134 
L 525 4666 
z
" transform="scale(0.015625)"/>
      </defs>
      <use xlink:href="#DejaVuSans-37"/>
     </g>
    </g>
    <g id="patch_58">
     <path d="M 105.221094 235.935937 
L 125.221094 235.935937 
L 125.221094 228.935937 
L 105.221094 228.935937 
z
" style="fill: #3274a1"/>
    </g>
    <g id="text_28">
     <!-- GE-EPI -->
     <g transform="translate(133.221094 235.935937) scale(0.1 -0.1)">
      <defs>
       <path id="DejaVuSans-47" d="M 3809 666 
L 3809 1919 
L 2778 1919 
L 2778 2438 
L 4434 2438 
L 4434 434 
Q 4069 175 3628 42 
Q 3188 -91 2688 -91 
Q 1594 -91 976 548 
Q 359 1188 359 2328 
Q 359 3472 976 4111 
Q 1594 4750 2688 4750 
Q 3144 4750 3555 4637 
Q 3966 4525 4313 4306 
L 4313 3634 
Q 3963 3931 3569 4081 
Q 3175 4231 2741 4231 
Q 1884 4231 1454 3753 
Q 1025 3275 1025 2328 
Q 1025 1384 1454 906 
Q 1884 428 2741 428 
Q 3075 428 3337 486 
Q 3600 544 3809 666 
z
" transform="scale(0.015625)"/>
       <path id="DejaVuSans-45" d="M 628 4666 
L 3578 4666 
L 3578 4134 
L 1259 4134 
L 1259 2753 
L 3481 2753 
L 3481 2222 
L 1259 2222 
L 1259 531 
L 3634 531 
L 3634 0 
L 628 0 
L 628 4666 
z
" transform="scale(0.015625)"/>
       <path id="DejaVuSans-50" d="M 1259 4147 
L 1259 2394 
L 2053 2394 
Q 2494 2394 2734 2622 
Q 2975 2850 2975 3272 
Q 2975 3691 2734 3919 
Q 2494 4147 2053 4147 
L 1259 4147 
z
M 628 4666 
L 2053 4666 
Q 2838 4666 3239 4311 
Q 3641 3956 3641 3272 
Q 3641 2581 3239 2228 
Q 2838 1875 2053 1875 
L 1259 1875 
L 1259 0 
L 628 0 
L 628 4666 
z
" transform="scale(0.015625)"/>
      </defs>
      <use xlink:href="#DejaVuSans-47"/>
      <use xlink:href="#DejaVuSans-45" transform="translate(77.490234 0)"/>
      <use xlink:href="#DejaVuSans-2d" transform="translate(140.673828 0)"/>
      <use xlink:href="#DejaVuSans-45" transform="translate(176.757812 0)"/>
      <use xlink:href="#DejaVuSans-50" transform="translate(239.941406 0)"/>
      <use xlink:href="#DejaVuSans-49" transform="translate(300.244141 0)"/>
     </g>
    </g>
    <g id="patch_59">
     <path d="M 105.221094 250.614062 
L 125.221094 250.614062 
L 125.221094 243.614062 
L 105.221094 243.614062 
z
" style="fill: #e1812c"/>
    </g>
    <g id="text_29">
     <!-- SE-EPI -->
     <g transform="translate(133.221094 250.614062) scale(0.1 -0.1)">
      <use xlink:href="#DejaVuSans-53"/>
      <use xlink:href="#DejaVuSans-45" transform="translate(63.476562 0)"/>
      <use xlink:href="#DejaVuSans-2d" transform="translate(126.660156 0)"/>
      <use xlink:href="#DejaVuSans-45" transform="translate(162.744141 0)"/>
      <use xlink:href="#DejaVuSans-50" transform="translate(225.927734 0)"/>
      <use xlink:href="#DejaVuSans-49" transform="translate(286.230469 0)"/>
     </g>
    </g>
   </g>
  </g>
 </g>
 <defs>
  <clipPath id="pcb8831b98a">
   <rect x="90" y="43.2" width="558" height="277.2"/>
  </clipPath>
 </defs>
</svg>
