<?xml version="1.0" encoding="utf-8" standalone="no"?>
<!DOCTYPE svg PUBLIC "-//W3C//DTD SVG 1.1//EN"
  "http://www.w3.org/Graphics/SVG/1.1/DTD/svg11.dtd">
<svg xmlns:xlink="http://www.w3.org/1999/xlink" width="720pt" height="360pt" viewBox="0 0 720 360" xmlns="http://www.w3.org/2000/svg" version="1.1">
 <metadata>
  <rdf:RDF xmlns:dc="http://purl.org/dc/elements/1.1/" xmlns:cc="http://creativecommons.org/ns#" xmlns:rdf="http://www.w3.org/1999/02/22-rdf-syntax-ns#">
   <cc:Work>
    <dc:type rdf:resource="http://purl.org/dc/dcmitype/StillImage"/>
    <dc:date>2025-10-21T16:47:26.884134</dc:date>
    <dc:format>image/svg+xml</dc:format>
    <dc:creator>
     <cc:Agent>
      <dc:title>Matplotlib v3.10.3, https://matplotlib.org/</dc:title>
     </cc:Agent>
    </dc:creator>
   </cc:Work>
  </rdf:RDF>
 </metadata>
 <defs>
  <style type="text/css">*{stroke-linejoin: round; stroke-linecap: butt}</style>
 </defs>
 <g id="figure_1">
  <g id="patch_1">
   <path d="M 0 360 
L 720 360 
L 720 0 
L 0 0 
z
" style="fill: #ffffff"/>
  </g>
  <g id="axes_1">
   <g id="patch_2">
    <path d="M 90 320.4 
L 648 320.4 
L 648 43.2 
L 90 43.2 
z
" style="fill: #ffffff"/>
   </g>
   <g id="FillBetweenPolyCollection_1">
    <defs>
     <path id="m0b93b672ab" d="M 161.55446 -52.2 
L 157.94554 -52.2 
L 157.218491 -54.745455 
L 156.269873 -57.290909 
L 155.061024 -59.836364 
L 153.556672 -62.381818 
L 151.728721 -64.927273 
L 149.560259 -67.472727 
L 147.049281 -70.018182 
L 144.211577 -72.563636 
L 141.082244 -75.109091 
L 137.715379 -77.654545 
L 134.181726 -80.2 
L 130.564378 -82.745455 
L 126.952898 -85.290909 
L 123.436559 -87.836364 
L 120.097593 -90.381818 
L 117.005372 -92.927273 
L 114.212355 -95.472727 
L 111.752367 -98.018182 
L 109.641378 -100.563636 
L 107.880555 -103.109091 
L 106.460941 -105.654545 
L 105.36888 -108.2 
L 104.591157 -110.745455 
L 104.118967 -113.290909 
L 103.95 -115.836364 
L 104.088376 -118.381818 
L 104.542537 -120.927273 
L 105.321588 -123.472727 
L 106.430876 -126.018182 
L 107.867669 -128.563636 
L 109.617797 -131.109091 
L 111.653845 -133.654545 
L 113.93523 -136.2 
L 116.410111 -138.745455 
L 119.018777 -141.290909 
L 121.697936 -143.836364 
L 124.385231 -146.381818 
L 127.023344 -148.927273 
L 129.563206 -151.472727 
L 131.966031 -154.018182 
L 134.204126 -156.563636 
L 136.260628 -159.109091 
L 138.128447 -161.654545 
L 139.808728 -164.2 
L 141.309147 -166.745455 
L 142.64228 -169.290909 
L 143.824158 -171.836364 
L 144.873082 -174.381818 
L 145.808648 -176.927273 
L 146.650945 -179.472727 
L 147.419832 -182.018182 
L 148.134254 -184.563636 
L 148.811578 -187.109091 
L 149.466935 -189.654545 
L 150.112613 -192.2 
L 150.757552 -194.745455 
L 151.406976 -197.290909 
L 152.062238 -199.836364 
L 152.720881 -202.381818 
L 153.376962 -204.927273 
L 154.021607 -207.472727 
L 154.643788 -210.018182 
L 155.231252 -212.563636 
L 155.771548 -215.109091 
L 156.253059 -217.654545 
L 156.665971 -220.2 
L 157.003085 -222.745455 
L 157.260418 -225.290909 
L 157.437542 -227.836364 
L 157.53764 -230.381818 
L 157.567272 -232.927273 
L 157.535904 -235.472727 
L 157.455233 -238.018182 
L 157.338387 -240.563636 
L 157.199092 -243.109091 
L 157.050872 -245.654545 
L 156.906362 -248.2 
L 156.776772 -250.745455 
L 156.671523 -253.290909 
L 156.598056 -255.836364 
L 156.561757 -258.381818 
L 156.565992 -260.927273 
L 156.612175 -263.472727 
L 156.699869 -266.018182 
L 156.826895 -268.563636 
L 156.989465 -271.109091 
L 157.182355 -273.654545 
L 157.39915 -276.2 
L 157.632567 -278.745455 
L 157.87486 -281.290909 
L 158.118281 -283.836364 
L 158.355547 -286.381818 
L 158.580281 -288.927273 
L 158.787347 -291.472727 
L 158.973078 -294.018182 
L 159.135342 -296.563636 
L 159.273473 -299.109091 
L 159.388086 -301.654545 
L 159.480802 -304.2 
L 160.019198 -304.2 
L 160.019198 -304.2 
L 160.111914 -301.654545 
L 160.226527 -299.109091 
L 160.364658 -296.563636 
L 160.526922 -294.018182 
L 160.712653 -291.472727 
L 160.919719 -288.927273 
L 161.144453 -286.381818 
L 161.381719 -283.836364 
L 161.62514 -281.290909 
L 161.867433 -278.745455 
L 162.10085 -276.2 
L 162.317645 -273.654545 
L 162.510535 -271.109091 
L 162.673105 -268.563636 
L 162.800131 -266.018182 
L 162.887825 -263.472727 
L 162.934008 -260.927273 
L 162.938243 -258.381818 
L 162.901944 -255.836364 
L 162.828477 -253.290909 
L 162.723228 -250.745455 
L 162.593638 -248.2 
L 162.449128 -245.654545 
L 162.300908 -243.109091 
L 162.161613 -240.563636 
L 162.044767 -238.018182 
L 161.964096 -235.472727 
L 161.932728 -232.927273 
L 161.96236 -230.381818 
L 162.062458 -227.836364 
L 162.239582 -225.290909 
L 162.496915 -222.745455 
L 162.834029 -220.2 
L 163.246941 -217.654545 
L 163.728452 -215.109091 
L 164.268748 -212.563636 
L 164.856212 -210.018182 
L 165.478393 -207.472727 
L 166.123038 -204.927273 
L 166.779119 -202.381818 
L 167.437762 -199.836364 
L 168.093024 -197.290909 
L 168.742448 -194.745455 
L 169.387387 -192.2 
L 170.033065 -189.654545 
L 170.688422 -187.109091 
L 171.365746 -184.563636 
L 172.080168 -182.018182 
L 172.849055 -179.472727 
L 173.691352 -176.927273 
L 174.626918 -174.381818 
L 175.675842 -171.836364 
L 176.85772 -169.290909 
L 178.190853 -166.745455 
L 179.691272 -164.2 
L 181.371553 -161.654545 
L 183.239372 -159.109091 
L 185.295874 -156.563636 
L 187.533969 -154.018182 
L 189.936794 -151.472727 
L 192.476656 -148.927273 
L 195.114769 -146.381818 
L 197.802064 -143.836364 
L 200.481223 -141.290909 
L 203.089889 -138.745455 
L 205.56477 -136.2 
L 207.846155 -133.654545 
L 209.882203 -131.109091 
L 211.632331 -128.563636 
L 213.069124 -126.018182 
L 214.178412 -123.472727 
L 214.957463 -120.927273 
L 215.411624 -118.381818 
L 215.55 -115.836364 
L 215.381033 -113.290909 
L 214.908843 -110.745455 
L 214.13112 -108.2 
L 213.039059 -105.654545 
L 211.619445 -103.109091 
L 209.858622 -100.563636 
L 207.747633 -98.018182 
L 205.287645 -95.472727 
L 202.494628 -92.927273 
L 199.402407 -90.381818 
L 196.063441 -87.836364 
L 192.547102 -85.290909 
L 188.935622 -82.745455 
L 185.318274 -80.2 
L 181.784621 -77.654545 
L 178.417756 -75.109091 
L 175.288423 -72.563636 
L 172.450719 -70.018182 
L 169.939741 -67.472727 
L 167.771279 -64.927273 
L 165.943328 -62.381818 
L 164.438976 -59.836364 
L 163.230127 -57.290909 
L 162.281509 -54.745455 
L 161.55446 -52.2 
z
" style="stroke: #3d3d3d; stroke-width: 1.25"/>
    </defs>
    <g clip-path="url(#p77d10a5863)">
     <use xlink:href="#m0b93b672ab" x="0" y="360" style="fill: #3274a1; stroke: #3d3d3d; stroke-width: 1.25"/>
    </g>
   </g>
   <g id="FillBetweenPolyCollection_2">
    <defs>
     <path id="mcd7e167888" d="M 299.761958 -70.859784 
L 298.738042 -70.859784 
L 298.476522 -72.48822 
L 298.110618 -74.116656 
L 297.612111 -75.745092 
L 296.950054 -77.373528 
L 296.091896 -79.001964 
L 295.004804 -80.6304 
L 293.657102 -82.258836 
L 292.019732 -83.887272 
L 290.067784 -85.515708 
L 287.782216 -87.144144 
L 285.15201 -88.77258 
L 282.176967 -90.401016 
L 278.871241 -92.029452 
L 275.267357 -93.657888 
L 271.420094 -95.286324 
L 267.409169 -96.91476 
L 263.339442 -98.543196 
L 259.337439 -100.171632 
L 255.543504 -101.800068 
L 252.099808 -103.428504 
L 249.13557 -105.05694 
L 246.751888 -106.685376 
L 245.009185 -108.313812 
L 243.920131 -109.942248 
L 243.45 -111.570684 
L 243.52482 -113.19912 
L 244.045867 -114.827556 
L 244.907497 -116.455992 
L 246.014527 -118.084428 
L 247.295532 -119.712864 
L 248.709568 -121.3413 
L 250.245554 -122.969736 
L 251.915322 -124.598172 
L 253.742711 -126.226608 
L 255.751658 -127.855044 
L 257.955974 -129.48348 
L 260.3526 -131.111916 
L 262.918966 -132.740352 
L 265.614041 -134.368788 
L 268.381988 -135.997224 
L 271.157226 -137.62566 
L 273.869913 -139.254096 
L 276.451274 -140.882532 
L 278.838583 -142.510968 
L 280.979759 -144.139404 
L 282.83749 -145.76784 
L 284.392589 -147.396276 
L 285.646094 -149.024712 
L 286.619594 -150.653148 
L 287.353358 -152.281584 
L 287.902251 -153.91002 
L 288.32979 -155.538456 
L 288.701128 -157.166892 
L 289.075969 -158.795328 
L 289.502444 -160.423763 
L 290.012797 -162.052199 
L 290.621359 -163.680635 
L 291.324919 -165.309071 
L 292.105165 -166.937507 
L 292.932654 -168.565943 
L 293.771595 -170.194379 
L 294.584724 -171.822815 
L 295.337675 -173.451251 
L 296.002407 -175.079687 
L 296.559429 -176.708123 
L 296.998778 -178.336559 
L 297.319824 -179.964995 
L 297.530109 -181.593431 
L 297.643494 -183.221867 
L 297.677907 -184.850303 
L 297.653004 -186.478739 
L 297.588031 -188.107175 
L 297.500121 -189.735611 
L 297.40318 -191.364047 
L 297.307432 -192.992483 
L 297.219564 -194.620919 
L 297.143357 -196.249355 
L 297.080576 -197.877791 
L 297.031926 -199.506227 
L 296.997887 -201.134663 
L 296.979293 -202.763099 
L 296.977606 -204.391535 
L 296.994899 -206.019971 
L 297.033583 -207.648407 
L 297.095955 -209.276843 
L 297.18366 -210.905279 
L 297.297148 -212.533715 
L 297.435233 -214.162151 
L 297.594863 -215.790587 
L 297.771148 -217.419023 
L 297.957699 -219.047459 
L 298.147227 -220.675895 
L 298.332305 -222.304331 
L 298.506162 -223.932767 
L 298.663357 -225.561203 
L 298.800223 -227.189639 
L 298.915018 -228.818075 
L 299.007802 -230.446511 
L 299.080091 -232.074947 
L 299.419909 -232.074947 
L 299.419909 -232.074947 
L 299.492198 -230.446511 
L 299.584982 -228.818075 
L 299.699777 -227.189639 
L 299.836643 -225.561203 
L 299.993838 -223.932767 
L 300.167695 -222.304331 
L 300.352773 -220.675895 
L 300.542301 -219.047459 
L 300.728852 -217.419023 
L 300.905137 -215.790587 
L 301.064767 -214.162151 
L 301.202852 -212.533715 
L 301.31634 -210.905279 
L 301.404045 -209.276843 
L 301.466417 -207.648407 
L 301.505101 -206.019971 
L 301.522394 -204.391535 
L 301.520707 -202.763099 
L 301.502113 -201.134663 
L 301.468074 -199.506227 
L 301.419424 -197.877791 
L 301.356643 -196.249355 
L 301.280436 -194.620919 
L 301.192568 -192.992483 
L 301.09682 -191.364047 
L 300.999879 -189.735611 
L 300.911969 -188.107175 
L 300.846996 -186.478739 
L 300.822093 -184.850303 
L 300.856506 -183.221867 
L 300.969891 -181.593431 
L 301.180176 -179.964995 
L 301.501222 -178.336559 
L 301.940571 -176.708123 
L 302.497593 -175.079687 
L 303.162325 -173.451251 
L 303.915276 -171.822815 
L 304.728405 -170.194379 
L 305.567346 -168.565943 
L 306.394835 -166.937507 
L 307.175081 -165.309071 
L 307.878641 -163.680635 
L 308.487203 -162.052199 
L 308.997556 -160.423763 
L 309.424031 -158.795328 
L 309.798872 -157.166892 
L 310.17021 -155.538456 
L 310.597749 -153.91002 
L 311.146642 -152.281584 
L 311.880406 -150.653148 
L 312.853906 -149.024712 
L 314.107411 -147.396276 
L 315.66251 -145.76784 
L 317.520241 -144.139404 
L 319.661417 -142.510968 
L 322.048726 -140.882532 
L 324.630087 -139.254096 
L 327.342774 -137.62566 
L 330.118012 -135.997224 
L 332.885959 -134.368788 
L 335.581034 -132.740352 
L 338.1474 -131.111916 
L 340.544026 -129.48348 
L 342.748342 -127.855044 
L 344.757289 -126.226608 
L 346.584678 -124.598172 
L 348.254446 -122.969736 
L 349.790432 -121.3413 
L 351.204468 -119.712864 
L 352.485473 -118.084428 
L 353.592503 -116.455992 
L 354.454133 -114.827556 
L 354.97518 -113.19912 
L 355.05 -111.570684 
L 354.579869 -109.942248 
L 353.490815 -108.313812 
L 351.748112 -106.685376 
L 349.36443 -105.05694 
L 346.400192 -103.428504 
L 342.956496 -101.800068 
L 339.162561 -100.171632 
L 335.160558 -98.543196 
L 331.090831 -96.91476 
L 327.079906 -95.286324 
L 323.232643 -93.657888 
L 319.628759 -92.029452 
L 316.323033 -90.401016 
L 313.34799 -88.77258 
L 310.717784 -87.144144 
L 308.432216 -85.515708 
L 306.480268 -83.887272 
L 304.842898 -82.258836 
L 303.495196 -80.6304 
L 302.408104 -79.001964 
L 301.549946 -77.373528 
L 300.887889 -75.745092 
L 300.389382 -74.116656 
L 300.023478 -72.48822 
L 299.761958 -70.859784 
z
" style="stroke: #3d3d3d; stroke-width: 1.25"/>
    </defs>
    <g clip-path="url(#p77d10a5863)">
     <use xlink:href="#mcd7e167888" x="0" y="360" style="fill: #e1812c; stroke: #3d3d3d; stroke-width: 1.25"/>
    </g>
   </g>
   <g id="FillBetweenPolyCollection_3">
    <defs>
     <path id="m0ad0845261" d="M 439.331325 -65.213899 
L 438.168675 -65.213899 
L 437.905394 -67.022673 
L 437.550808 -68.831446 
L 437.085211 -70.64022 
L 436.488834 -72.448993 
L 435.743174 -74.257767 
L 434.832353 -76.06654 
L 433.744329 -77.875314 
L 432.471712 -79.684087 
L 431.012034 -81.492861 
L 429.36742 -83.301634 
L 427.543725 -85.110408 
L 425.549388 -86.919181 
L 423.39435 -88.727955 
L 421.089406 -90.536728 
L 418.646296 -92.345502 
L 416.07865 -94.154275 
L 413.403617 -95.963049 
L 410.643775 -97.771822 
L 407.828698 -99.580596 
L 404.99557 -101.389369 
L 402.188359 -103.198143 
L 399.455416 -105.006916 
L 396.84578 -106.81569 
L 394.404832 -108.624463 
L 392.170193 -110.433237 
L 390.16876 -112.24201 
L 388.415545 -114.050784 
L 386.914609 -115.859557 
L 385.661884 -117.668331 
L 384.64935 -119.477104 
L 383.869727 -121.285878 
L 383.320833 -123.094651 
L 383.008856 -124.903425 
L 382.95 -126.712198 
L 383.170237 -128.520972 
L 383.703107 -130.329745 
L 384.585765 -132.138519 
L 385.853627 -133.947292 
L 387.534183 -135.756066 
L 389.640695 -137.564839 
L 392.166645 -139.373613 
L 395.081818 -141.182386 
L 398.330808 -142.99116 
L 401.834472 -144.799933 
L 405.494409 -146.608707 
L 409.200104 -148.41748 
L 412.837864 -150.226254 
L 416.300387 -152.035027 
L 419.495664 -153.843801 
L 422.354046 -155.652574 
L 424.832616 -157.461348 
L 426.916476 -159.270121 
L 428.617022 -161.078895 
L 429.967699 -162.887668 
L 431.018045 -164.696442 
L 431.82691 -166.505215 
L 432.455753 -168.313989 
L 432.962746 -170.122762 
L 433.398212 -171.931536 
L 433.80166 -173.740309 
L 434.200463 -175.549083 
L 434.610029 -177.357856 
L 435.035172 -179.16663 
L 435.472309 -180.975403 
L 435.912087 -182.784177 
L 436.342046 -184.59295 
L 436.748995 -186.401724 
L 437.120868 -188.210497 
L 437.447929 -190.019271 
L 437.723313 -191.828044 
L 437.942994 -193.636818 
L 438.105336 -195.445591 
L 438.210451 -197.254365 
L 438.259568 -199.063138 
L 438.254587 -200.871912 
L 438.197946 -202.680685 
L 438.092819 -204.489459 
L 437.943586 -206.298232 
L 437.756444 -208.107006 
L 437.53996 -209.915779 
L 437.305358 -211.724553 
L 437.066371 -213.533326 
L 436.838566 -215.3421 
L 436.638153 -217.150873 
L 436.480424 -218.959647 
L 436.378055 -220.76842 
L 436.339578 -222.577194 
L 436.368304 -224.385967 
L 436.461908 -226.194741 
L 436.612783 -228.003514 
L 436.809073 -229.812288 
L 437.036224 -231.621061 
L 437.278764 -233.429835 
L 437.522012 -235.238608 
L 437.753473 -237.047382 
L 437.963738 -238.856155 
L 438.146846 -240.664929 
L 438.300145 -242.473702 
L 438.423788 -244.282476 
L 439.076212 -244.282476 
L 439.076212 -244.282476 
L 439.199855 -242.473702 
L 439.353154 -240.664929 
L 439.536262 -238.856155 
L 439.746527 -237.047382 
L 439.977988 -235.238608 
L 440.221236 -233.429835 
L 440.463776 -231.621061 
L 440.690927 -229.812288 
L 440.887217 -228.003514 
L 441.038092 -226.194741 
L 441.131696 -224.385967 
L 441.160422 -222.577194 
L 441.121945 -220.76842 
L 441.019576 -218.959647 
L 440.861847 -217.150873 
L 440.661434 -215.3421 
L 440.433629 -213.533326 
L 440.194642 -211.724553 
L 439.96004 -209.915779 
L 439.743556 -208.107006 
L 439.556414 -206.298232 
L 439.407181 -204.489459 
L 439.302054 -202.680685 
L 439.245413 -200.871912 
L 439.240432 -199.063138 
L 439.289549 -197.254365 
L 439.394664 -195.445591 
L 439.557006 -193.636818 
L 439.776687 -191.828044 
L 440.052071 -190.019271 
L 440.379132 -188.210497 
L 440.751005 -186.401724 
L 441.157954 -184.59295 
L 441.587913 -182.784177 
L 442.027691 -180.975403 
L 442.464828 -179.16663 
L 442.889971 -177.357856 
L 443.299537 -175.549083 
L 443.69834 -173.740309 
L 444.101788 -171.931536 
L 444.537254 -170.122762 
L 445.044247 -168.313989 
L 445.67309 -166.505215 
L 446.481955 -164.696442 
L 447.532301 -162.887668 
L 448.882978 -161.078895 
L 450.583524 -159.270121 
L 452.667384 -157.461348 
L 455.145954 -155.652574 
L 458.004336 -153.843801 
L 461.199613 -152.035027 
L 464.662136 -150.226254 
L 468.299896 -148.41748 
L 472.005591 -146.608707 
L 475.665528 -144.799933 
L 479.169192 -142.99116 
L 482.418182 -141.182386 
L 485.333355 -139.373613 
L 487.859305 -137.564839 
L 489.965817 -135.756066 
L 491.646373 -133.947292 
L 492.914235 -132.138519 
L 493.796893 -130.329745 
L 494.329763 -128.520972 
L 494.55 -126.712198 
L 494.491144 -124.903425 
L 494.179167 -123.094651 
L 493.630273 -121.285878 
L 492.85065 -119.477104 
L 491.838116 -117.668331 
L 490.585391 -115.859557 
L 489.084455 -114.050784 
L 487.33124 -112.24201 
L 485.329807 -110.433237 
L 483.095168 -108.624463 
L 480.65422 -106.81569 
L 478.044584 -105.006916 
L 475.311641 -103.198143 
L 472.50443 -101.389369 
L 469.671302 -99.580596 
L 466.856225 -97.771822 
L 464.096383 -95.963049 
L 461.42135 -94.154275 
L 458.853704 -92.345502 
L 456.410594 -90.536728 
L 454.10565 -88.727955 
L 451.950612 -86.919181 
L 449.956275 -85.110408 
L 448.13258 -83.301634 
L 446.487966 -81.492861 
L 445.028288 -79.684087 
L 443.755671 -77.875314 
L 442.667647 -76.06654 
L 441.756826 -74.257767 
L 441.011166 -72.448993 
L 440.414789 -70.64022 
L 439.949192 -68.831446 
L 439.594606 -67.022673 
L 439.331325 -65.213899 
z
" style="stroke: #3d3d3d; stroke-width: 1.25"/>
    </defs>
    <g clip-path="url(#p77d10a5863)">
     <use xlink:href="#m0ad0845261" x="0" y="360" style="fill: #3a923a; stroke: #3d3d3d; stroke-width: 1.25"/>
    </g>
   </g>
   <g id="FillBetweenPolyCollection_4">
    <defs>
     <path id="m036e7cf776" d="M 580.043561 -64.789283 
L 576.456439 -64.789283 
L 575.974159 -65.892471 
L 575.389427 -66.995659 
L 574.688116 -68.098848 
L 573.856061 -69.202036 
L 572.879564 -70.305224 
L 571.745984 -71.408413 
L 570.44438 -72.511601 
L 568.966195 -73.614789 
L 567.30594 -74.717977 
L 565.46185 -75.821166 
L 563.43646 -76.924354 
L 561.237072 -78.027542 
L 558.876069 -79.130731 
L 556.371046 -80.233919 
L 553.74473 -81.337107 
L 551.024677 -82.440296 
L 548.242747 -83.543484 
L 545.43436 -84.646672 
L 542.637571 -85.749861 
L 539.891981 -86.853049 
L 537.23755 -87.956237 
L 534.71335 -89.059426 
L 532.356319 -90.162614 
L 530.200083 -91.265802 
L 528.273885 -92.368991 
L 526.601676 -93.472179 
L 525.201419 -94.575367 
L 524.08461 -95.678555 
L 523.256062 -96.781744 
L 522.713932 -97.884932 
L 522.45 -98.98812 
L 522.450179 -100.091309 
L 522.695214 -101.194497 
L 523.161561 -102.297685 
L 523.822368 -103.400874 
L 524.648552 -104.504062 
L 525.609888 -105.60725 
L 526.676091 -106.710439 
L 527.817832 -107.813627 
L 529.007649 -108.916815 
L 530.220732 -110.020004 
L 531.43554 -111.123192 
L 532.634242 -112.22638 
L 533.802967 -113.329569 
L 534.931867 -114.432757 
L 536.014988 -115.535945 
L 537.04998 -116.639133 
L 538.037645 -117.742322 
L 538.981376 -118.84551 
L 539.886496 -119.948698 
L 540.75954 -121.051887 
L 541.607527 -122.155075 
L 542.437249 -123.258263 
L 543.254629 -124.361452 
L 544.064166 -125.46464 
L 544.868532 -126.567828 
L 545.668311 -127.671017 
L 546.461933 -128.774205 
L 547.245791 -129.877393 
L 548.014542 -130.980582 
L 548.761588 -132.08377 
L 549.479683 -133.186958 
L 550.161654 -134.290147 
L 550.801162 -135.393335 
L 551.393446 -136.496523 
L 551.936008 -137.599711 
L 552.429149 -138.7029 
L 552.876327 -139.806088 
L 553.284295 -140.909276 
L 553.66298 -142.012465 
L 554.025118 -143.115653 
L 554.385654 -144.218841 
L 554.760945 -145.32203 
L 555.16782 -146.425218 
L 555.622561 -147.528406 
L 556.139897 -148.631595 
L 556.732056 -149.734783 
L 557.407978 -150.837971 
L 558.172722 -151.94116 
L 559.027122 -153.044348 
L 559.967709 -154.147536 
L 560.986894 -155.250725 
L 562.073404 -156.353913 
L 563.212917 -157.457101 
L 564.388857 -158.560289 
L 565.583274 -159.663478 
L 566.777761 -160.766666 
L 567.954331 -161.869854 
L 569.096207 -162.973043 
L 570.188481 -164.076231 
L 571.218613 -165.179419 
L 572.176753 -166.282608 
L 573.055888 -167.385796 
L 573.85182 -168.488984 
L 574.56301 -169.592173 
L 575.190303 -170.695361 
L 575.736571 -171.798549 
L 576.206316 -172.901738 
L 576.605251 -174.004926 
L 579.894749 -174.004926 
L 579.894749 -174.004926 
L 580.293684 -172.901738 
L 580.763429 -171.798549 
L 581.309697 -170.695361 
L 581.93699 -169.592173 
L 582.64818 -168.488984 
L 583.444112 -167.385796 
L 584.323247 -166.282608 
L 585.281387 -165.179419 
L 586.311519 -164.076231 
L 587.403793 -162.973043 
L 588.545669 -161.869854 
L 589.722239 -160.766666 
L 590.916726 -159.663478 
L 592.111143 -158.560289 
L 593.287083 -157.457101 
L 594.426596 -156.353913 
L 595.513106 -155.250725 
L 596.532291 -154.147536 
L 597.472878 -153.044348 
L 598.327278 -151.94116 
L 599.092022 -150.837971 
L 599.767944 -149.734783 
L 600.360103 -148.631595 
L 600.877439 -147.528406 
L 601.33218 -146.425218 
L 601.739055 -145.32203 
L 602.114346 -144.218841 
L 602.474882 -143.115653 
L 602.83702 -142.012465 
L 603.215705 -140.909276 
L 603.623673 -139.806088 
L 604.070851 -138.7029 
L 604.563992 -137.599711 
L 605.106554 -136.496523 
L 605.698838 -135.393335 
L 606.338346 -134.290147 
L 607.020317 -133.186958 
L 607.738412 -132.08377 
L 608.485458 -130.980582 
L 609.254209 -129.877393 
L 610.038067 -128.774205 
L 610.831689 -127.671017 
L 611.631468 -126.567828 
L 612.435834 -125.46464 
L 613.245371 -124.361452 
L 614.062751 -123.258263 
L 614.892473 -122.155075 
L 615.74046 -121.051887 
L 616.613504 -119.948698 
L 617.518624 -118.84551 
L 618.462355 -117.742322 
L 619.45002 -116.639133 
L 620.485012 -115.535945 
L 621.568133 -114.432757 
L 622.697033 -113.329569 
L 623.865758 -112.22638 
L 625.06446 -111.123192 
L 626.279268 -110.020004 
L 627.492351 -108.916815 
L 628.682168 -107.813627 
L 629.823909 -106.710439 
L 630.890112 -105.60725 
L 631.851448 -104.504062 
L 632.677632 -103.400874 
L 633.338439 -102.297685 
L 633.804786 -101.194497 
L 634.049821 -100.091309 
L 634.05 -98.98812 
L 633.786068 -97.884932 
L 633.243938 -96.781744 
L 632.41539 -95.678555 
L 631.298581 -94.575367 
L 629.898324 -93.472179 
L 628.226115 -92.368991 
L 626.299917 -91.265802 
L 624.143681 -90.162614 
L 621.78665 -89.059426 
L 619.26245 -87.956237 
L 616.608019 -86.853049 
L 613.862429 -85.749861 
L 611.06564 -84.646672 
L 608.257253 -83.543484 
L 605.475323 -82.440296 
L 602.75527 -81.337107 
L 600.128954 -80.233919 
L 597.623931 -79.130731 
L 595.262928 -78.027542 
L 593.06354 -76.924354 
L 591.03815 -75.821166 
L 589.19406 -74.717977 
L 587.533805 -73.614789 
L 586.05562 -72.511601 
L 584.754016 -71.408413 
L 583.620436 -70.305224 
L 582.643939 -69.202036 
L 581.811884 -68.098848 
L 581.110573 -66.995659 
L 580.525841 -65.892471 
L 580.043561 -64.789283 
z
" style="stroke: #3d3d3d; stroke-width: 1.25"/>
    </defs>
    <g clip-path="url(#p77d10a5863)">
     <use xlink:href="#m036e7cf776" x="0" y="360" style="fill: #c03d3e; stroke: #3d3d3d; stroke-width: 1.25"/>
    </g>
   </g>
   <g id="matplotlib.axis_1">
    <g id="xtick_1">
     <g id="line2d_1">
      <defs>
       <path id="ma3585e260d" d="M 0 0 
L 0 3.5 
" style="stroke: #000000; stroke-width: 0.8"/>
      </defs>
      <g>
       <use xlink:href="#ma3585e260d" x="159.75" y="320.4" style="stroke: #000000; stroke-width: 0.8"/>
      </g>
     </g>
     <g id="text_1">
      <!-- Spurious -->
      <g transform="translate(137.955469 334.998438) scale(0.1 -0.1)">
       <defs>
        <path id="DejaVuSans-53" d="M 3425 4513 
L 3425 3897 
Q 3066 4069 2747 4153 
Q 2428 4238 2131 4238 
Q 1616 4238 1336 4038 
Q 1056 3838 1056 3469 
Q 1056 3159 1242 3001 
Q 1428 2844 1947 2747 
L 2328 2669 
Q 3034 2534 3370 2195 
Q 3706 1856 3706 1288 
Q 3706 609 3251 259 
Q 2797 -91 1919 -91 
Q 1588 -91 1214 -16 
Q 841 59 441 206 
L 441 856 
Q 825 641 1194 531 
Q 1563 422 1919 422 
Q 2459 422 2753 634 
Q 3047 847 3047 1241 
Q 3047 1584 2836 1778 
Q 2625 1972 2144 2069 
L 1759 2144 
Q 1053 2284 737 2584 
Q 422 2884 422 3419 
Q 422 4038 858 4394 
Q 1294 4750 2059 4750 
Q 2388 4750 2728 4690 
Q 3069 4631 3425 4513 
z
" transform="scale(0.015625)"/>
        <path id="DejaVuSans-70" d="M 1159 525 
L 1159 -1331 
L 581 -1331 
L 581 3500 
L 1159 3500 
L 1159 2969 
Q 1341 3281 1617 3432 
Q 1894 3584 2278 3584 
Q 2916 3584 3314 3078 
Q 3713 2572 3713 1747 
Q 3713 922 3314 415 
Q 2916 -91 2278 -91 
Q 1894 -91 1617 61 
Q 1341 213 1159 525 
z
M 3116 1747 
Q 3116 2381 2855 2742 
Q 2594 3103 2138 3103 
Q 1681 3103 1420 2742 
Q 1159 2381 1159 1747 
Q 1159 1113 1420 752 
Q 1681 391 2138 391 
Q 2594 391 2855 752 
Q 3116 1113 3116 1747 
z
" transform="scale(0.015625)"/>
        <path id="DejaVuSans-75" d="M 544 1381 
L 544 3500 
L 1119 3500 
L 1119 1403 
Q 1119 906 1312 657 
Q 1506 409 1894 409 
Q 2359 409 2629 706 
Q 2900 1003 2900 1516 
L 2900 3500 
L 3475 3500 
L 3475 0 
L 2900 0 
L 2900 538 
Q 2691 219 2414 64 
Q 2138 -91 1772 -91 
Q 1169 -91 856 284 
Q 544 659 544 1381 
z
M 1991 3584 
L 1991 3584 
z
" transform="scale(0.015625)"/>
        <path id="DejaVuSans-72" d="M 2631 2963 
Q 2534 3019 2420 3045 
Q 2306 3072 2169 3072 
Q 1681 3072 1420 2755 
Q 1159 2438 1159 1844 
L 1159 0 
L 581 0 
L 581 3500 
L 1159 3500 
L 1159 2956 
Q 1341 3275 1631 3429 
Q 1922 3584 2338 3584 
Q 2397 3584 2469 3576 
Q 2541 3569 2628 3553 
L 2631 2963 
z
" transform="scale(0.015625)"/>
        <path id="DejaVuSans-69" d="M 603 3500 
L 1178 3500 
L 1178 0 
L 603 0 
L 603 3500 
z
M 603 4863 
L 1178 4863 
L 1178 4134 
L 603 4134 
L 603 4863 
z
" transform="scale(0.015625)"/>
        <path id="DejaVuSans-6f" d="M 1959 3097 
Q 1497 3097 1228 2736 
Q 959 2375 959 1747 
Q 959 1119 1226 758 
Q 1494 397 1959 397 
Q 2419 397 2687 759 
Q 2956 1122 2956 1747 
Q 2956 2369 2687 2733 
Q 2419 3097 1959 3097 
z
M 1959 3584 
Q 2709 3584 3137 3096 
Q 3566 2609 3566 1747 
Q 3566 888 3137 398 
Q 2709 -91 1959 -91 
Q 1206 -91 779 398 
Q 353 888 353 1747 
Q 353 2609 779 3096 
Q 1206 3584 1959 3584 
z
" transform="scale(0.015625)"/>
        <path id="DejaVuSans-73" d="M 2834 3397 
L 2834 2853 
Q 2591 2978 2328 3040 
Q 2066 3103 1784 3103 
Q 1356 3103 1142 2972 
Q 928 2841 928 2578 
Q 928 2378 1081 2264 
Q 1234 2150 1697 2047 
L 1894 2003 
Q 2506 1872 2764 1633 
Q 3022 1394 3022 966 
Q 3022 478 2636 193 
Q 2250 -91 1575 -91 
Q 1294 -91 989 -36 
Q 684 19 347 128 
L 347 722 
Q 666 556 975 473 
Q 1284 391 1588 391 
Q 1994 391 2212 530 
Q 2431 669 2431 922 
Q 2431 1156 2273 1281 
Q 2116 1406 1581 1522 
L 1381 1569 
Q 847 1681 609 1914 
Q 372 2147 372 2553 
Q 372 3047 722 3315 
Q 1072 3584 1716 3584 
Q 2034 3584 2315 3537 
Q 2597 3491 2834 3397 
z
" transform="scale(0.015625)"/>
       </defs>
       <use xlink:href="#DejaVuSans-53"/>
       <use xlink:href="#DejaVuSans-70" transform="translate(63.476562 0)"/>
       <use xlink:href="#DejaVuSans-75" transform="translate(126.953125 0)"/>
       <use xlink:href="#DejaVuSans-72" transform="translate(190.332031 0)"/>
       <use xlink:href="#DejaVuSans-69" transform="translate(231.445312 0)"/>
       <use xlink:href="#DejaVuSans-6f" transform="translate(259.228516 0)"/>
       <use xlink:href="#DejaVuSans-75" transform="translate(320.410156 0)"/>
       <use xlink:href="#DejaVuSans-73" transform="translate(383.789062 0)"/>
      </g>
     </g>
    </g>
    <g id="xtick_2">
     <g id="line2d_2">
      <g>
       <use xlink:href="#ma3585e260d" x="299.25" y="320.4" style="stroke: #000000; stroke-width: 0.8"/>
      </g>
     </g>
     <g id="text_2">
      <!-- Specific -->
      <g transform="translate(279.788281 334.998438) scale(0.1 -0.1)">
       <defs>
        <path id="DejaVuSans-65" d="M 3597 1894 
L 3597 1613 
L 953 1613 
Q 991 1019 1311 708 
Q 1631 397 2203 397 
Q 2534 397 2845 478 
Q 3156 559 3463 722 
L 3463 178 
Q 3153 47 2828 -22 
Q 2503 -91 2169 -91 
Q 1331 -91 842 396 
Q 353 884 353 1716 
Q 353 2575 817 3079 
Q 1281 3584 2069 3584 
Q 2775 3584 3186 3129 
Q 3597 2675 3597 1894 
z
M 3022 2063 
Q 3016 2534 2758 2815 
Q 2500 3097 2075 3097 
Q 1594 3097 1305 2825 
Q 1016 2553 972 2059 
L 3022 2063 
z
" transform="scale(0.015625)"/>
        <path id="DejaVuSans-63" d="M 3122 3366 
L 3122 2828 
Q 2878 2963 2633 3030 
Q 2388 3097 2138 3097 
Q 1578 3097 1268 2742 
Q 959 2388 959 1747 
Q 959 1106 1268 751 
Q 1578 397 2138 397 
Q 2388 397 2633 464 
Q 2878 531 3122 666 
L 3122 134 
Q 2881 22 2623 -34 
Q 2366 -91 2075 -91 
Q 1284 -91 818 406 
Q 353 903 353 1747 
Q 353 2603 823 3093 
Q 1294 3584 2113 3584 
Q 2378 3584 2631 3529 
Q 2884 3475 3122 3366 
z
" transform="scale(0.015625)"/>
        <path id="DejaVuSans-66" d="M 2375 4863 
L 2375 4384 
L 1825 4384 
Q 1516 4384 1395 4259 
Q 1275 4134 1275 3809 
L 1275 3500 
L 2222 3500 
L 2222 3053 
L 1275 3053 
L 1275 0 
L 697 0 
L 697 3053 
L 147 3053 
L 147 3500 
L 697 3500 
L 697 3744 
Q 697 4328 969 4595 
Q 1241 4863 1831 4863 
L 2375 4863 
z
" transform="scale(0.015625)"/>
       </defs>
       <use xlink:href="#DejaVuSans-53"/>
       <use xlink:href="#DejaVuSans-70" transform="translate(63.476562 0)"/>
       <use xlink:href="#DejaVuSans-65" transform="translate(126.953125 0)"/>
       <use xlink:href="#DejaVuSans-63" transform="translate(188.476562 0)"/>
       <use xlink:href="#DejaVuSans-69" transform="translate(243.457031 0)"/>
       <use xlink:href="#DejaVuSans-66" transform="translate(271.240234 0)"/>
       <use xlink:href="#DejaVuSans-69" transform="translate(306.445312 0)"/>
       <use xlink:href="#DejaVuSans-63" transform="translate(334.228516 0)"/>
      </g>
     </g>
    </g>
    <g id="xtick_3">
     <g id="line2d_3">
      <g>
       <use xlink:href="#ma3585e260d" x="438.75" y="320.4" style="stroke: #000000; stroke-width: 0.8"/>
      </g>
     </g>
     <g id="text_3">
      <!-- Non-specific -->
      <g transform="translate(408.085156 334.998438) scale(0.1 -0.1)">
       <defs>
        <path id="DejaVuSans-4e" d="M 628 4666 
L 1478 4666 
L 3547 763 
L 3547 4666 
L 4159 4666 
L 4159 0 
L 3309 0 
L 1241 3903 
L 1241 0 
L 628 0 
L 628 4666 
z
" transform="scale(0.015625)"/>
        <path id="DejaVuSans-6e" d="M 3513 2113 
L 3513 0 
L 2938 0 
L 2938 2094 
Q 2938 2591 2744 2837 
Q 2550 3084 2163 3084 
Q 1697 3084 1428 2787 
Q 1159 2491 1159 1978 
L 1159 0 
L 581 0 
L 581 3500 
L 1159 3500 
L 1159 2956 
Q 1366 3272 1645 3428 
Q 1925 3584 2291 3584 
Q 2894 3584 3203 3211 
Q 3513 2838 3513 2113 
z
" transform="scale(0.015625)"/>
        <path id="DejaVuSans-2d" d="M 313 2009 
L 1997 2009 
L 1997 1497 
L 313 1497 
L 313 2009 
z
" transform="scale(0.015625)"/>
       </defs>
       <use xlink:href="#DejaVuSans-4e"/>
       <use xlink:href="#DejaVuSans-6f" transform="translate(74.804688 0)"/>
       <use xlink:href="#DejaVuSans-6e" transform="translate(135.986328 0)"/>
       <use xlink:href="#DejaVuSans-2d" transform="translate(199.365234 0)"/>
       <use xlink:href="#DejaVuSans-73" transform="translate(235.449219 0)"/>
       <use xlink:href="#DejaVuSans-70" transform="translate(287.548828 0)"/>
       <use xlink:href="#DejaVuSans-65" transform="translate(351.025391 0)"/>
       <use xlink:href="#DejaVuSans-63" transform="translate(412.548828 0)"/>
       <use xlink:href="#DejaVuSans-69" transform="translate(467.529297 0)"/>
       <use xlink:href="#DejaVuSans-66" transform="translate(495.3125 0)"/>
       <use xlink:href="#DejaVuSans-69" transform="translate(530.517578 0)"/>
       <use xlink:href="#DejaVuSans-63" transform="translate(558.300781 0)"/>
      </g>
     </g>
    </g>
    <g id="xtick_4">
     <g id="line2d_4">
      <g>
       <use xlink:href="#ma3585e260d" x="578.25" y="320.4" style="stroke: #000000; stroke-width: 0.8"/>
      </g>
     </g>
     <g id="text_4">
      <!-- No -->
      <g transform="translate(571.45 334.998438) scale(0.1 -0.1)">
       <use xlink:href="#DejaVuSans-4e"/>
       <use xlink:href="#DejaVuSans-6f" transform="translate(74.804688 0)"/>
      </g>
     </g>
    </g>
    <g id="text_5">
     <!-- Connectivity category -->
     <g transform="translate(313.98125 348.676562) scale(0.1 -0.1)">
      <defs>
       <path id="DejaVuSans-43" d="M 4122 4306 
L 4122 3641 
Q 3803 3938 3442 4084 
Q 3081 4231 2675 4231 
Q 1875 4231 1450 3742 
Q 1025 3253 1025 2328 
Q 1025 1406 1450 917 
Q 1875 428 2675 428 
Q 3081 428 3442 575 
Q 3803 722 4122 1019 
L 4122 359 
Q 3791 134 3420 21 
Q 3050 -91 2638 -91 
Q 1578 -91 968 557 
Q 359 1206 359 2328 
Q 359 3453 968 4101 
Q 1578 4750 2638 4750 
Q 3056 4750 3426 4639 
Q 3797 4528 4122 4306 
z
" transform="scale(0.015625)"/>
       <path id="DejaVuSans-74" d="M 1172 4494 
L 1172 3500 
L 2356 3500 
L 2356 3053 
L 1172 3053 
L 1172 1153 
Q 1172 725 1289 603 
Q 1406 481 1766 481 
L 2356 481 
L 2356 0 
L 1766 0 
Q 1100 0 847 248 
Q 594 497 594 1153 
L 594 3053 
L 172 3053 
L 172 3500 
L 594 3500 
L 594 4494 
L 1172 4494 
z
" transform="scale(0.015625)"/>
       <path id="DejaVuSans-76" d="M 191 3500 
L 800 3500 
L 1894 563 
L 2988 3500 
L 3597 3500 
L 2284 0 
L 1503 0 
L 191 3500 
z
" transform="scale(0.015625)"/>
       <path id="DejaVuSans-79" d="M 2059 -325 
Q 1816 -950 1584 -1140 
Q 1353 -1331 966 -1331 
L 506 -1331 
L 506 -850 
L 844 -850 
Q 1081 -850 1212 -737 
Q 1344 -625 1503 -206 
L 1606 56 
L 191 3500 
L 800 3500 
L 1894 763 
L 2988 3500 
L 3597 3500 
L 2059 -325 
z
" transform="scale(0.015625)"/>
       <path id="DejaVuSans-20" transform="scale(0.015625)"/>
       <path id="DejaVuSans-61" d="M 2194 1759 
Q 1497 1759 1228 1600 
Q 959 1441 959 1056 
Q 959 750 1161 570 
Q 1363 391 1709 391 
Q 2188 391 2477 730 
Q 2766 1069 2766 1631 
L 2766 1759 
L 2194 1759 
z
M 3341 1997 
L 3341 0 
L 2766 0 
L 2766 531 
Q 2569 213 2275 61 
Q 1981 -91 1556 -91 
Q 1019 -91 701 211 
Q 384 513 384 1019 
Q 384 1609 779 1909 
Q 1175 2209 1959 2209 
L 2766 2209 
L 2766 2266 
Q 2766 2663 2505 2880 
Q 2244 3097 1772 3097 
Q 1472 3097 1187 3025 
Q 903 2953 641 2809 
L 641 3341 
Q 956 3463 1253 3523 
Q 1550 3584 1831 3584 
Q 2591 3584 2966 3190 
Q 3341 2797 3341 1997 
z
" transform="scale(0.015625)"/>
       <path id="DejaVuSans-67" d="M 2906 1791 
Q 2906 2416 2648 2759 
Q 2391 3103 1925 3103 
Q 1463 3103 1205 2759 
Q 947 2416 947 1791 
Q 947 1169 1205 825 
Q 1463 481 1925 481 
Q 2391 481 2648 825 
Q 2906 1169 2906 1791 
z
M 3481 434 
Q 3481 -459 3084 -895 
Q 2688 -1331 1869 -1331 
Q 1566 -1331 1297 -1286 
Q 1028 -1241 775 -1147 
L 775 -588 
Q 1028 -725 1275 -790 
Q 1522 -856 1778 -856 
Q 2344 -856 2625 -561 
Q 2906 -266 2906 331 
L 2906 616 
Q 2728 306 2450 153 
Q 2172 0 1784 0 
Q 1141 0 747 490 
Q 353 981 353 1791 
Q 353 2603 747 3093 
Q 1141 3584 1784 3584 
Q 2172 3584 2450 3431 
Q 2728 3278 2906 2969 
L 2906 3500 
L 3481 3500 
L 3481 434 
z
" transform="scale(0.015625)"/>
      </defs>
      <use xlink:href="#DejaVuSans-43"/>
      <use xlink:href="#DejaVuSans-6f" transform="translate(69.824219 0)"/>
      <use xlink:href="#DejaVuSans-6e" transform="translate(131.005859 0)"/>
      <use xlink:href="#DejaVuSans-6e" transform="translate(194.384766 0)"/>
      <use xlink:href="#DejaVuSans-65" transform="translate(257.763672 0)"/>
      <use xlink:href="#DejaVuSans-63" transform="translate(319.287109 0)"/>
      <use xlink:href="#DejaVuSans-74" transform="translate(374.267578 0)"/>
      <use xlink:href="#DejaVuSans-69" transform="translate(413.476562 0)"/>
      <use xlink:href="#DejaVuSans-76" transform="translate(441.259766 0)"/>
      <use xlink:href="#DejaVuSans-69" transform="translate(500.439453 0)"/>
      <use xlink:href="#DejaVuSans-74" transform="translate(528.222656 0)"/>
      <use xlink:href="#DejaVuSans-79" transform="translate(567.431641 0)"/>
      <use xlink:href="#DejaVuSans-20" transform="translate(626.611328 0)"/>
      <use xlink:href="#DejaVuSans-63" transform="translate(658.398438 0)"/>
      <use xlink:href="#DejaVuSans-61" transform="translate(713.378906 0)"/>
      <use xlink:href="#DejaVuSans-74" transform="translate(774.658203 0)"/>
      <use xlink:href="#DejaVuSans-65" transform="translate(813.867188 0)"/>
      <use xlink:href="#DejaVuSans-67" transform="translate(875.390625 0)"/>
      <use xlink:href="#DejaVuSans-6f" transform="translate(938.867188 0)"/>
      <use xlink:href="#DejaVuSans-72" transform="translate(1000.048828 0)"/>
      <use xlink:href="#DejaVuSans-79" transform="translate(1041.162109 0)"/>
     </g>
    </g>
   </g>
   <g id="matplotlib.axis_2">
    <g id="ytick_1">
     <g id="line2d_5">
      <defs>
       <path id="md3aea79c2c" d="M 0 0 
L -3.5 0 
" style="stroke: #000000; stroke-width: 0.8"/>
      </defs>
      <g>
       <use xlink:href="#md3aea79c2c" x="90" y="282.741737" style="stroke: #000000; stroke-width: 0.8"/>
      </g>
     </g>
     <g id="text_6">
      <!-- 0.00 -->
      <g transform="translate(60.734375 286.540956) scale(0.1 -0.1)">
       <defs>
        <path id="DejaVuSans-30" d="M 2034 4250 
Q 1547 4250 1301 3770 
Q 1056 3291 1056 2328 
Q 1056 1369 1301 889 
Q 1547 409 2034 409 
Q 2525 409 2770 889 
Q 3016 1369 3016 2328 
Q 3016 3291 2770 3770 
Q 2525 4250 2034 4250 
z
M 2034 4750 
Q 2819 4750 3233 4129 
Q 3647 3509 3647 2328 
Q 3647 1150 3233 529 
Q 2819 -91 2034 -91 
Q 1250 -91 836 529 
Q 422 1150 422 2328 
Q 422 3509 836 4129 
Q 1250 4750 2034 4750 
z
" transform="scale(0.015625)"/>
        <path id="DejaVuSans-2e" d="M 684 794 
L 1344 794 
L 1344 0 
L 684 0 
L 684 794 
z
" transform="scale(0.015625)"/>
       </defs>
       <use xlink:href="#DejaVuSans-30"/>
       <use xlink:href="#DejaVuSans-2e" transform="translate(63.623047 0)"/>
       <use xlink:href="#DejaVuSans-30" transform="translate(95.410156 0)"/>
       <use xlink:href="#DejaVuSans-30" transform="translate(159.033203 0)"/>
      </g>
     </g>
    </g>
    <g id="ytick_2">
     <g id="line2d_6">
      <g>
       <use xlink:href="#md3aea79c2c" x="90" y="226.919792" style="stroke: #000000; stroke-width: 0.8"/>
      </g>
     </g>
     <g id="text_7">
      <!-- 0.05 -->
      <g transform="translate(60.734375 230.719011) scale(0.1 -0.1)">
       <defs>
        <path id="DejaVuSans-35" d="M 691 4666 
L 3169 4666 
L 3169 4134 
L 1269 4134 
L 1269 2991 
Q 1406 3038 1543 3061 
Q 1681 3084 1819 3084 
Q 2600 3084 3056 2656 
Q 3513 2228 3513 1497 
Q 3513 744 3044 326 
Q 2575 -91 1722 -91 
Q 1428 -91 1123 -41 
Q 819 9 494 109 
L 494 744 
Q 775 591 1075 516 
Q 1375 441 1709 441 
Q 2250 441 2565 725 
Q 2881 1009 2881 1497 
Q 2881 1984 2565 2268 
Q 2250 2553 1709 2553 
Q 1456 2553 1204 2497 
Q 953 2441 691 2322 
L 691 4666 
z
" transform="scale(0.015625)"/>
       </defs>
       <use xlink:href="#DejaVuSans-30"/>
       <use xlink:href="#DejaVuSans-2e" transform="translate(63.623047 0)"/>
       <use xlink:href="#DejaVuSans-30" transform="translate(95.410156 0)"/>
       <use xlink:href="#DejaVuSans-35" transform="translate(159.033203 0)"/>
      </g>
     </g>
    </g>
    <g id="ytick_3">
     <g id="line2d_7">
      <g>
       <use xlink:href="#md3aea79c2c" x="90" y="171.097847" style="stroke: #000000; stroke-width: 0.8"/>
      </g>
     </g>
     <g id="text_8">
      <!-- 0.10 -->
      <g transform="translate(60.734375 174.897066) scale(0.1 -0.1)">
       <defs>
        <path id="DejaVuSans-31" d="M 794 531 
L 1825 531 
L 1825 4091 
L 703 3866 
L 703 4441 
L 1819 4666 
L 2450 4666 
L 2450 531 
L 3481 531 
L 3481 0 
L 794 0 
L 794 531 
z
" transform="scale(0.015625)"/>
       </defs>
       <use xlink:href="#DejaVuSans-30"/>
       <use xlink:href="#DejaVuSans-2e" transform="translate(63.623047 0)"/>
       <use xlink:href="#DejaVuSans-31" transform="translate(95.410156 0)"/>
       <use xlink:href="#DejaVuSans-30" transform="translate(159.033203 0)"/>
      </g>
     </g>
    </g>
    <g id="ytick_4">
     <g id="line2d_8">
      <g>
       <use xlink:href="#md3aea79c2c" x="90" y="115.275902" style="stroke: #000000; stroke-width: 0.8"/>
      </g>
     </g>
     <g id="text_9">
      <!-- 0.15 -->
      <g transform="translate(60.734375 119.075121) scale(0.1 -0.1)">
       <use xlink:href="#DejaVuSans-30"/>
       <use xlink:href="#DejaVuSans-2e" transform="translate(63.623047 0)"/>
       <use xlink:href="#DejaVuSans-31" transform="translate(95.410156 0)"/>
       <use xlink:href="#DejaVuSans-35" transform="translate(159.033203 0)"/>
      </g>
     </g>
    </g>
    <g id="ytick_5">
     <g id="line2d_9">
      <g>
       <use xlink:href="#md3aea79c2c" x="90" y="59.453958" style="stroke: #000000; stroke-width: 0.8"/>
      </g>
     </g>
     <g id="text_10">
      <!-- 0.20 -->
      <g transform="translate(60.734375 63.253176) scale(0.1 -0.1)">
       <defs>
        <path id="DejaVuSans-32" d="M 1228 531 
L 3431 531 
L 3431 0 
L 469 0 
L 469 531 
Q 828 903 1448 1529 
Q 2069 2156 2228 2338 
Q 2531 2678 2651 2914 
Q 2772 3150 2772 3378 
Q 2772 3750 2511 3984 
Q 2250 4219 1831 4219 
Q 1534 4219 1204 4116 
Q 875 4013 500 3803 
L 500 4441 
Q 881 4594 1212 4672 
Q 1544 4750 1819 4750 
Q 2544 4750 2975 4387 
Q 3406 4025 3406 3419 
Q 3406 3131 3298 2873 
Q 3191 2616 2906 2266 
Q 2828 2175 2409 1742 
Q 1991 1309 1228 531 
z
" transform="scale(0.015625)"/>
       </defs>
       <use xlink:href="#DejaVuSans-30"/>
       <use xlink:href="#DejaVuSans-2e" transform="translate(63.623047 0)"/>
       <use xlink:href="#DejaVuSans-32" transform="translate(95.410156 0)"/>
       <use xlink:href="#DejaVuSans-30" transform="translate(159.033203 0)"/>
      </g>
     </g>
    </g>
    <g id="text_11">
     <!-- cont_variable -->
     <g transform="translate(54.376562 215.409375) rotate(-90) scale(0.1 -0.1)">
      <defs>
       <path id="DejaVuSans-5f" d="M 3263 -1063 
L 3263 -1509 
L -63 -1509 
L -63 -1063 
L 3263 -1063 
z
" transform="scale(0.015625)"/>
       <path id="DejaVuSans-62" d="M 3116 1747 
Q 3116 2381 2855 2742 
Q 2594 3103 2138 3103 
Q 1681 3103 1420 2742 
Q 1159 2381 1159 1747 
Q 1159 1113 1420 752 
Q 1681 391 2138 391 
Q 2594 391 2855 752 
Q 3116 1113 3116 1747 
z
M 1159 2969 
Q 1341 3281 1617 3432 
Q 1894 3584 2278 3584 
Q 2916 3584 3314 3078 
Q 3713 2572 3713 1747 
Q 3713 922 3314 415 
Q 2916 -91 2278 -91 
Q 1894 -91 1617 61 
Q 1341 213 1159 525 
L 1159 0 
L 581 0 
L 581 4863 
L 1159 4863 
L 1159 2969 
z
" transform="scale(0.015625)"/>
       <path id="DejaVuSans-6c" d="M 603 4863 
L 1178 4863 
L 1178 0 
L 603 0 
L 603 4863 
z
" transform="scale(0.015625)"/>
      </defs>
      <use xlink:href="#DejaVuSans-63"/>
      <use xlink:href="#DejaVuSans-6f" transform="translate(54.980469 0)"/>
      <use xlink:href="#DejaVuSans-6e" transform="translate(116.162109 0)"/>
      <use xlink:href="#DejaVuSans-74" transform="translate(179.541016 0)"/>
      <use xlink:href="#DejaVuSans-5f" transform="translate(218.75 0)"/>
      <use xlink:href="#DejaVuSans-76" transform="translate(268.75 0)"/>
      <use xlink:href="#DejaVuSans-61" transform="translate(327.929688 0)"/>
      <use xlink:href="#DejaVuSans-72" transform="translate(389.208984 0)"/>
      <use xlink:href="#DejaVuSans-69" transform="translate(430.322266 0)"/>
      <use xlink:href="#DejaVuSans-61" transform="translate(458.105469 0)"/>
      <use xlink:href="#DejaVuSans-62" transform="translate(519.384766 0)"/>
      <use xlink:href="#DejaVuSans-6c" transform="translate(582.861328 0)"/>
      <use xlink:href="#DejaVuSans-65" transform="translate(610.644531 0)"/>
     </g>
    </g>
   </g>
   <g id="patch_3">
    <path d="M 90 320.4 
L 90 43.2 
" style="fill: none; stroke: #000000; stroke-width: 0.8; stroke-linejoin: miter; stroke-linecap: square"/>
   </g>
   <g id="patch_4">
    <path d="M 648 320.4 
L 648 43.2 
" style="fill: none; stroke: #000000; stroke-width: 0.8; stroke-linejoin: miter; stroke-linecap: square"/>
   </g>
   <g id="patch_5">
    <path d="M 90 320.4 
L 648 320.4 
" style="fill: none; stroke: #000000; stroke-width: 0.8; stroke-linejoin: miter; stroke-linecap: square"/>
   </g>
   <g id="patch_6">
    <path d="M 90 43.2 
L 648 43.2 
" style="fill: none; stroke: #000000; stroke-width: 0.8; stroke-linejoin: miter; stroke-linecap: square"/>
   </g>
   <g id="PathCollection_1">
    <defs>
     <path id="m1218685792" d="M 0 2.5 
C 0.663008 2.5 1.29895 2.236584 1.767767 1.767767 
C 2.236584 1.29895 2.5 0.663008 2.5 0 
C 2.5 -0.663008 2.236584 -1.29895 1.767767 -1.767767 
C 1.29895 -2.236584 0.663008 -2.5 0 -2.5 
C -0.663008 -2.5 -1.29895 -2.236584 -1.767767 -1.767767 
C -2.236584 -1.29895 -2.5 -0.663008 -2.5 0 
C -2.5 0.663008 -2.236584 1.29895 -1.767767 1.767767 
C -1.29895 2.236584 -0.663008 2.5 0 2.5 
z
"/>
    </defs>
    <g clip-path="url(#p77d10a5863)">
     <use xlink:href="#m1218685792" x="165.079455" y="244.235772" style="fill-opacity: 0.3"/>
     <use xlink:href="#m1218685792" x="171.56485" y="209.726722" style="fill-opacity: 0.3"/>
     <use xlink:href="#m1218685792" x="155.097909" y="238.648108" style="fill-opacity: 0.3"/>
     <use xlink:href="#m1218685792" x="163.587849" y="231.4572" style="fill-opacity: 0.3"/>
     <use xlink:href="#m1218685792" x="154.366595" y="213.569605" style="fill-opacity: 0.3"/>
     <use xlink:href="#m1218685792" x="154.40204" y="209.089732" style="fill-opacity: 0.3"/>
     <use xlink:href="#m1218685792" x="168.336097" y="204.288455" style="fill-opacity: 0.3"/>
     <use xlink:href="#m1218685792" x="146.360204" y="224.581011" style="fill-opacity: 0.3"/>
     <use xlink:href="#m1218685792" x="159.50173" y="243.865247" style="fill-opacity: 0.3"/>
     <use xlink:href="#m1218685792" x="147.146629" y="234.554774" style="fill-opacity: 0.3"/>
     <use xlink:href="#m1218685792" x="153.957146" y="153.989512" style="fill-opacity: 0.3"/>
     <use xlink:href="#m1218685792" x="154.537708" y="273.755187" style="fill-opacity: 0.3"/>
     <use xlink:href="#m1218685792" x="158.45851" y="271.983571" style="fill-opacity: 0.3"/>
     <use xlink:href="#m1218685792" x="156.678851" y="269.160953" style="fill-opacity: 0.3"/>
     <use xlink:href="#m1218685792" x="161.752335" y="268.725942" style="fill-opacity: 0.3"/>
     <use xlink:href="#m1218685792" x="156.18922" y="270.22058" style="fill-opacity: 0.3"/>
     <use xlink:href="#m1218685792" x="160.653065" y="221.367682" style="fill-opacity: 0.3"/>
     <use xlink:href="#m1218685792" x="161.222258" y="110.472716" style="fill-opacity: 0.3"/>
     <use xlink:href="#m1218685792" x="161.993884" y="169.924986" style="fill-opacity: 0.3"/>
     <use xlink:href="#m1218685792" x="160.407838" y="164.440898" style="fill-opacity: 0.3"/>
     <use xlink:href="#m1218685792" x="160.685587" y="89.844813" style="fill-opacity: 0.3"/>
     <use xlink:href="#m1218685792" x="152.071071" y="183.145447" style="fill-opacity: 0.3"/>
     <use xlink:href="#m1218685792" x="159.608332" y="198.921602" style="fill-opacity: 0.3"/>
     <use xlink:href="#m1218685792" x="166.191632" y="231.899956" style="fill-opacity: 0.3"/>
     <use xlink:href="#m1218685792" x="150.746742" y="225.962305" style="fill-opacity: 0.3"/>
     <use xlink:href="#m1218685792" x="152.560143" y="268.364298" style="fill-opacity: 0.3"/>
     <use xlink:href="#m1218685792" x="149.554682" y="264.081411" style="fill-opacity: 0.3"/>
     <use xlink:href="#m1218685792" x="163.614567" y="260.312956" style="fill-opacity: 0.3"/>
     <use xlink:href="#m1218685792" x="152.597791" y="239.481389" style="fill-opacity: 0.3"/>
     <use xlink:href="#m1218685792" x="152.186922" y="267.56308" style="fill-opacity: 0.3"/>
     <use xlink:href="#m1218685792" x="166.148623" y="267.651301" style="fill-opacity: 0.3"/>
     <use xlink:href="#m1218685792" x="157.737446" y="267.253563" style="fill-opacity: 0.3"/>
     <use xlink:href="#m1218685792" x="149.771161" y="261.278155" style="fill-opacity: 0.3"/>
     <use xlink:href="#m1218685792" x="166.145819" y="256.592411" style="fill-opacity: 0.3"/>
     <use xlink:href="#m1218685792" x="159.997304" y="267.902405" style="fill-opacity: 0.3"/>
     <use xlink:href="#m1218685792" x="154.41499" y="243.112875" style="fill-opacity: 0.3"/>
     <use xlink:href="#m1218685792" x="152.821639" y="191.933278" style="fill-opacity: 0.3"/>
     <use xlink:href="#m1218685792" x="150.651004" y="223.705039" style="fill-opacity: 0.3"/>
     <use xlink:href="#m1218685792" x="172.613567" y="180.53938" style="fill-opacity: 0.3"/>
     <use xlink:href="#m1218685792" x="153.314555" y="255.774059" style="fill-opacity: 0.3"/>
     <use xlink:href="#m1218685792" x="150.765813" y="255.848953" style="fill-opacity: 0.3"/>
     <use xlink:href="#m1218685792" x="159.040642" y="230.199263" style="fill-opacity: 0.3"/>
     <use xlink:href="#m1218685792" x="168.412304" y="203.157254" style="fill-opacity: 0.3"/>
     <use xlink:href="#m1218685792" x="171.245179" y="231.191677" style="fill-opacity: 0.3"/>
     <use xlink:href="#m1218685792" x="169.326463" y="242.521346" style="fill-opacity: 0.3"/>
     <use xlink:href="#m1218685792" x="158.504822" y="228.967995" style="fill-opacity: 0.3"/>
     <use xlink:href="#m1218685792" x="166.148881" y="255.390787" style="fill-opacity: 0.3"/>
     <use xlink:href="#m1218685792" x="169.621248" y="228.589997" style="fill-opacity: 0.3"/>
     <use xlink:href="#m1218685792" x="164.074576" y="239.871214" style="fill-opacity: 0.3"/>
     <use xlink:href="#m1218685792" x="166.402894" y="247.099351" style="fill-opacity: 0.3"/>
     <use xlink:href="#m1218685792" x="168.613823" y="258.969521" style="fill-opacity: 0.3"/>
     <use xlink:href="#m1218685792" x="163.330542" y="237.842365" style="fill-opacity: 0.3"/>
     <use xlink:href="#m1218685792" x="166.500889" y="233.761721" style="fill-opacity: 0.3"/>
     <use xlink:href="#m1218685792" x="149.042632" y="252.510271" style="fill-opacity: 0.3"/>
     <use xlink:href="#m1218685792" x="169.523185" y="222.522296" style="fill-opacity: 0.3"/>
     <use xlink:href="#m1218685792" x="163.715884" y="251.242019" style="fill-opacity: 0.3"/>
     <use xlink:href="#m1218685792" x="151.371674" y="227.894473" style="fill-opacity: 0.3"/>
    </g>
   </g>
   <g id="PathCollection_2">
    <g clip-path="url(#p77d10a5863)">
     <use xlink:href="#m1218685792" x="285.427652" y="202.926848" style="fill-opacity: 0.3"/>
     <use xlink:href="#m1218685792" x="301.931622" y="251.310242" style="fill-opacity: 0.3"/>
     <use xlink:href="#m1218685792" x="289.366218" y="249.129852" style="fill-opacity: 0.3"/>
     <use xlink:href="#m1218685792" x="300.578871" y="246.997293" style="fill-opacity: 0.3"/>
     <use xlink:href="#m1218685792" x="291.239671" y="243.557126" style="fill-opacity: 0.3"/>
     <use xlink:href="#m1218685792" x="288.709208" y="247.926438" style="fill-opacity: 0.3"/>
     <use xlink:href="#m1218685792" x="299.19093" y="250.208373" style="fill-opacity: 0.3"/>
     <use xlink:href="#m1218685792" x="291.798966" y="251.232197" style="fill-opacity: 0.3"/>
     <use xlink:href="#m1218685792" x="288.679984" y="251.852462" style="fill-opacity: 0.3"/>
     <use xlink:href="#m1218685792" x="305.729635" y="257.573067" style="fill-opacity: 0.3"/>
     <use xlink:href="#m1218685792" x="288.962619" y="220.508943" style="fill-opacity: 0.3"/>
     <use xlink:href="#m1218685792" x="298.49599" y="234.771225" style="fill-opacity: 0.3"/>
     <use xlink:href="#m1218685792" x="307.65998" y="238.174238" style="fill-opacity: 0.3"/>
     <use xlink:href="#m1218685792" x="301.637023" y="234.217759" style="fill-opacity: 0.3"/>
     <use xlink:href="#m1218685792" x="303.831809" y="232.598324" style="fill-opacity: 0.3"/>
     <use xlink:href="#m1218685792" x="308.134812" y="236.405963" style="fill-opacity: 0.3"/>
     <use xlink:href="#m1218685792" x="297.592527" y="236.823253" style="fill-opacity: 0.3"/>
     <use xlink:href="#m1218685792" x="308.448036" y="239.76105" style="fill-opacity: 0.3"/>
     <use xlink:href="#m1218685792" x="286.090906" y="224.656159" style="fill-opacity: 0.3"/>
     <use xlink:href="#m1218685792" x="310.955564" y="204.575898" style="fill-opacity: 0.3"/>
     <use xlink:href="#m1218685792" x="297.143919" y="198.451409" style="fill-opacity: 0.3"/>
     <use xlink:href="#m1218685792" x="302.303732" y="224.979169" style="fill-opacity: 0.3"/>
     <use xlink:href="#m1218685792" x="308.353881" y="205.667492" style="fill-opacity: 0.3"/>
     <use xlink:href="#m1218685792" x="297.471025" y="212.924667" style="fill-opacity: 0.3"/>
     <use xlink:href="#m1218685792" x="295.305578" y="237.129954" style="fill-opacity: 0.3"/>
     <use xlink:href="#m1218685792" x="312.557886" y="227.229955" style="fill-opacity: 0.3"/>
     <use xlink:href="#m1218685792" x="312.066419" y="233.092281" style="fill-opacity: 0.3"/>
     <use xlink:href="#m1218685792" x="303.20753" y="236.454354" style="fill-opacity: 0.3"/>
     <use xlink:href="#m1218685792" x="302.590261" y="244.01681" style="fill-opacity: 0.3"/>
     <use xlink:href="#m1218685792" x="289.365495" y="249.512035" style="fill-opacity: 0.3"/>
     <use xlink:href="#m1218685792" x="298.46377" y="247.271467" style="fill-opacity: 0.3"/>
     <use xlink:href="#m1218685792" x="309.626178" y="238.07537" style="fill-opacity: 0.3"/>
     <use xlink:href="#m1218685792" x="297.497702" y="249.233856" style="fill-opacity: 0.3"/>
     <use xlink:href="#m1218685792" x="291.606447" y="232.339313" style="fill-opacity: 0.3"/>
     <use xlink:href="#m1218685792" x="302.58269" y="241.760161" style="fill-opacity: 0.3"/>
     <use xlink:href="#m1218685792" x="295.082493" y="253.744718" style="fill-opacity: 0.3"/>
     <use xlink:href="#m1218685792" x="309.199639" y="250.647736" style="fill-opacity: 0.3"/>
     <use xlink:href="#m1218685792" x="288.33798" y="263.386916" style="fill-opacity: 0.3"/>
     <use xlink:href="#m1218685792" x="294.482755" y="263.460852" style="fill-opacity: 0.3"/>
     <use xlink:href="#m1218685792" x="285.945528" y="200.528144" style="fill-opacity: 0.3"/>
     <use xlink:href="#m1218685792" x="296.245554" y="198.986645" style="fill-opacity: 0.3"/>
     <use xlink:href="#m1218685792" x="304.602613" y="193.176038" style="fill-opacity: 0.3"/>
     <use xlink:href="#m1218685792" x="290.701228" y="271.082603" style="fill-opacity: 0.3"/>
     <use xlink:href="#m1218685792" x="310.973371" y="270.003533" style="fill-opacity: 0.3"/>
     <use xlink:href="#m1218685792" x="294.670517" y="193.19442" style="fill-opacity: 0.3"/>
     <use xlink:href="#m1218685792" x="298.43615" y="221.338484" style="fill-opacity: 0.3"/>
     <use xlink:href="#m1218685792" x="289.991038" y="227.542957" style="fill-opacity: 0.3"/>
     <use xlink:href="#m1218685792" x="304.779152" y="238.83938" style="fill-opacity: 0.3"/>
     <use xlink:href="#m1218685792" x="300.110487" y="231.498652" style="fill-opacity: 0.3"/>
     <use xlink:href="#m1218685792" x="312.633797" y="217.82386" style="fill-opacity: 0.3"/>
     <use xlink:href="#m1218685792" x="301.117408" y="233.570807" style="fill-opacity: 0.3"/>
     <use xlink:href="#m1218685792" x="298.209831" y="230.028959" style="fill-opacity: 0.3"/>
     <use xlink:href="#m1218685792" x="308.827797" y="234.694387" style="fill-opacity: 0.3"/>
     <use xlink:href="#m1218685792" x="288.216374" y="249.517998" style="fill-opacity: 0.3"/>
     <use xlink:href="#m1218685792" x="310.395928" y="260.453616" style="fill-opacity: 0.3"/>
     <use xlink:href="#m1218685792" x="303.199093" y="224.409268" style="fill-opacity: 0.3"/>
     <use xlink:href="#m1218685792" x="302.273371" y="219.605305" style="fill-opacity: 0.3"/>
     <use xlink:href="#m1218685792" x="299.367015" y="236.627811" style="fill-opacity: 0.3"/>
     <use xlink:href="#m1218685792" x="302.928185" y="224.868784" style="fill-opacity: 0.3"/>
     <use xlink:href="#m1218685792" x="311.755504" y="236.774817" style="fill-opacity: 0.3"/>
     <use xlink:href="#m1218685792" x="312.03276" y="267.931124" style="fill-opacity: 0.3"/>
     <use xlink:href="#m1218685792" x="287.095902" y="264.619147" style="fill-opacity: 0.3"/>
     <use xlink:href="#m1218685792" x="309.930465" y="260.793653" style="fill-opacity: 0.3"/>
     <use xlink:href="#m1218685792" x="288.405567" y="258.517966" style="fill-opacity: 0.3"/>
     <use xlink:href="#m1218685792" x="306.758478" y="233.754812" style="fill-opacity: 0.3"/>
     <use xlink:href="#m1218685792" x="289.547833" y="145.982666" style="fill-opacity: 0.3"/>
     <use xlink:href="#m1218685792" x="309.696185" y="246.241844" style="fill-opacity: 0.3"/>
     <use xlink:href="#m1218685792" x="294.805059" y="250.944047" style="fill-opacity: 0.3"/>
     <use xlink:href="#m1218685792" x="291.14832" y="231.128074" style="fill-opacity: 0.3"/>
     <use xlink:href="#m1218685792" x="310.022372" y="253.920847" style="fill-opacity: 0.3"/>
     <use xlink:href="#m1218685792" x="290.889738" y="250.58913" style="fill-opacity: 0.3"/>
     <use xlink:href="#m1218685792" x="289.483392" y="228.407154" style="fill-opacity: 0.3"/>
     <use xlink:href="#m1218685792" x="296.945948" y="254.333055" style="fill-opacity: 0.3"/>
     <use xlink:href="#m1218685792" x="298.640855" y="243.029454" style="fill-opacity: 0.3"/>
     <use xlink:href="#m1218685792" x="295.525206" y="242.177453" style="fill-opacity: 0.3"/>
     <use xlink:href="#m1218685792" x="289.724897" y="256.172479" style="fill-opacity: 0.3"/>
     <use xlink:href="#m1218685792" x="301.985927" y="221.234752" style="fill-opacity: 0.3"/>
     <use xlink:href="#m1218685792" x="306.911199" y="260.662928" style="fill-opacity: 0.3"/>
     <use xlink:href="#m1218685792" x="306.463403" y="254.704107" style="fill-opacity: 0.3"/>
     <use xlink:href="#m1218685792" x="286.500532" y="218.686061" style="fill-opacity: 0.3"/>
     <use xlink:href="#m1218685792" x="310.334232" y="248.990424" style="fill-opacity: 0.3"/>
     <use xlink:href="#m1218685792" x="298.92526" y="248.178406" style="fill-opacity: 0.3"/>
     <use xlink:href="#m1218685792" x="295.110026" y="252.033467" style="fill-opacity: 0.3"/>
     <use xlink:href="#m1218685792" x="286.415813" y="252.847171" style="fill-opacity: 0.3"/>
     <use xlink:href="#m1218685792" x="299.963441" y="252.478768" style="fill-opacity: 0.3"/>
     <use xlink:href="#m1218685792" x="311.917691" y="248.275456" style="fill-opacity: 0.3"/>
     <use xlink:href="#m1218685792" x="298.044025" y="264.219526" style="fill-opacity: 0.3"/>
     <use xlink:href="#m1218685792" x="310.174208" y="251.503631" style="fill-opacity: 0.3"/>
     <use xlink:href="#m1218685792" x="295.10917" y="256.578369" style="fill-opacity: 0.3"/>
     <use xlink:href="#m1218685792" x="303.209793" y="231.675814" style="fill-opacity: 0.3"/>
     <use xlink:href="#m1218685792" x="295.591104" y="250.674583" style="fill-opacity: 0.3"/>
     <use xlink:href="#m1218685792" x="291.550996" y="243.298844" style="fill-opacity: 0.3"/>
     <use xlink:href="#m1218685792" x="309.663973" y="252.373633" style="fill-opacity: 0.3"/>
     <use xlink:href="#m1218685792" x="290.612165" y="169.033511" style="fill-opacity: 0.3"/>
     <use xlink:href="#m1218685792" x="303.154183" y="156.924853" style="fill-opacity: 0.3"/>
     <use xlink:href="#m1218685792" x="303.185234" y="230.150845" style="fill-opacity: 0.3"/>
     <use xlink:href="#m1218685792" x="301.742402" y="254.994971" style="fill-opacity: 0.3"/>
     <use xlink:href="#m1218685792" x="288.186365" y="255.728787" style="fill-opacity: 0.3"/>
     <use xlink:href="#m1218685792" x="308.051986" y="258.647161" style="fill-opacity: 0.3"/>
    </g>
   </g>
   <g id="PathCollection_3">
    <g clip-path="url(#p77d10a5863)">
     <use xlink:href="#m1218685792" x="436.932633" y="222.840949" style="fill-opacity: 0.3"/>
     <use xlink:href="#m1218685792" x="451.763447" y="231.339468" style="fill-opacity: 0.3"/>
     <use xlink:href="#m1218685792" x="451.094028" y="262.921136" style="fill-opacity: 0.3"/>
     <use xlink:href="#m1218685792" x="436.898764" y="249.333973" style="fill-opacity: 0.3"/>
     <use xlink:href="#m1218685792" x="437.082728" y="183.986169" style="fill-opacity: 0.3"/>
     <use xlink:href="#m1218685792" x="440.276884" y="227.13823" style="fill-opacity: 0.3"/>
     <use xlink:href="#m1218685792" x="427.674241" y="250.647533" style="fill-opacity: 0.3"/>
     <use xlink:href="#m1218685792" x="429.529423" y="252.594917" style="fill-opacity: 0.3"/>
     <use xlink:href="#m1218685792" x="433.868092" y="208.707644" style="fill-opacity: 0.3"/>
     <use xlink:href="#m1218685792" x="451.85601" y="237.07146" style="fill-opacity: 0.3"/>
     <use xlink:href="#m1218685792" x="437.335539" y="252.508563" style="fill-opacity: 0.3"/>
     <use xlink:href="#m1218685792" x="433.348568" y="239.126177" style="fill-opacity: 0.3"/>
     <use xlink:href="#m1218685792" x="445.840713" y="225.396016" style="fill-opacity: 0.3"/>
     <use xlink:href="#m1218685792" x="434.393588" y="219.638816" style="fill-opacity: 0.3"/>
     <use xlink:href="#m1218685792" x="446.683493" y="237.763872" style="fill-opacity: 0.3"/>
     <use xlink:href="#m1218685792" x="439.956084" y="243.695945" style="fill-opacity: 0.3"/>
     <use xlink:href="#m1218685792" x="432.896189" y="244.92569" style="fill-opacity: 0.3"/>
     <use xlink:href="#m1218685792" x="446.964785" y="237.623443" style="fill-opacity: 0.3"/>
     <use xlink:href="#m1218685792" x="450.184054" y="229.726704" style="fill-opacity: 0.3"/>
     <use xlink:href="#m1218685792" x="440.78505" y="252.274412" style="fill-opacity: 0.3"/>
     <use xlink:href="#m1218685792" x="427.762674" y="273.217375" style="fill-opacity: 0.3"/>
     <use xlink:href="#m1218685792" x="428.270992" y="137.28625" style="fill-opacity: 0.3"/>
     <use xlink:href="#m1218685792" x="434.608892" y="216.926142" style="fill-opacity: 0.3"/>
     <use xlink:href="#m1218685792" x="433.553792" y="217.038145" style="fill-opacity: 0.3"/>
     <use xlink:href="#m1218685792" x="428.394772" y="219.34665" style="fill-opacity: 0.3"/>
     <use xlink:href="#m1218685792" x="440.444582" y="226.976718" style="fill-opacity: 0.3"/>
     <use xlink:href="#m1218685792" x="445.868059" y="218.39423" style="fill-opacity: 0.3"/>
     <use xlink:href="#m1218685792" x="451.048013" y="233.561673" style="fill-opacity: 0.3"/>
     <use xlink:href="#m1218685792" x="446.873191" y="239.606725" style="fill-opacity: 0.3"/>
     <use xlink:href="#m1218685792" x="450.262129" y="212.999379" style="fill-opacity: 0.3"/>
     <use xlink:href="#m1218685792" x="431.432549" y="226.623386" style="fill-opacity: 0.3"/>
     <use xlink:href="#m1218685792" x="429.832701" y="268.822646" style="fill-opacity: 0.3"/>
     <use xlink:href="#m1218685792" x="426.575523" y="229.478505" style="fill-opacity: 0.3"/>
     <use xlink:href="#m1218685792" x="433.938278" y="244.604904" style="fill-opacity: 0.3"/>
     <use xlink:href="#m1218685792" x="441.687404" y="250.552202" style="fill-opacity: 0.3"/>
     <use xlink:href="#m1218685792" x="429.88291" y="264.632471" style="fill-opacity: 0.3"/>
     <use xlink:href="#m1218685792" x="442.133723" y="219.526798" style="fill-opacity: 0.3"/>
     <use xlink:href="#m1218685792" x="433.184929" y="247.453511" style="fill-opacity: 0.3"/>
     <use xlink:href="#m1218685792" x="448.191419" y="257.635708" style="fill-opacity: 0.3"/>
     <use xlink:href="#m1218685792" x="449.992304" y="193.250976" style="fill-opacity: 0.3"/>
     <use xlink:href="#m1218685792" x="431.986949" y="235.059764" style="fill-opacity: 0.3"/>
     <use xlink:href="#m1218685792" x="434.567672" y="251.802313" style="fill-opacity: 0.3"/>
     <use xlink:href="#m1218685792" x="428.087957" y="230.50682" style="fill-opacity: 0.3"/>
     <use xlink:href="#m1218685792" x="442.738555" y="221.008126" style="fill-opacity: 0.3"/>
     <use xlink:href="#m1218685792" x="435.693018" y="246.448672" style="fill-opacity: 0.3"/>
     <use xlink:href="#m1218685792" x="444.182668" y="236.245621" style="fill-opacity: 0.3"/>
     <use xlink:href="#m1218685792" x="436.001856" y="262.949283" style="fill-opacity: 0.3"/>
     <use xlink:href="#m1218685792" x="442.184655" y="216.942013" style="fill-opacity: 0.3"/>
    </g>
   </g>
   <g id="PathCollection_4">
    <g clip-path="url(#p77d10a5863)">
     <use xlink:href="#m1218685792" x="568.919833" y="211.812517" style="fill-opacity: 0.3"/>
     <use xlink:href="#m1218685792" x="567.223819" y="230.450153" style="fill-opacity: 0.3"/>
     <use xlink:href="#m1218685792" x="586.095336" y="228.544249" style="fill-opacity: 0.3"/>
     <use xlink:href="#m1218685792" x="565.437931" y="271.928976" style="fill-opacity: 0.3"/>
     <use xlink:href="#m1218685792" x="582.182459" y="231.663751" style="fill-opacity: 0.3"/>
     <use xlink:href="#m1218685792" x="590.980351" y="260.371513" style="fill-opacity: 0.3"/>
     <use xlink:href="#m1218685792" x="581.279551" y="225.928962" style="fill-opacity: 0.3"/>
     <use xlink:href="#m1218685792" x="566.538418" y="266.87627" style="fill-opacity: 0.3"/>
     <use xlink:href="#m1218685792" x="571.498213" y="251.388734" style="fill-opacity: 0.3"/>
     <use xlink:href="#m1218685792" x="581.519245" y="266.991525" style="fill-opacity: 0.3"/>
     <use xlink:href="#m1218685792" x="590.856277" y="266.308034" style="fill-opacity: 0.3"/>
     <use xlink:href="#m1218685792" x="579.478198" y="256.777156" style="fill-opacity: 0.3"/>
     <use xlink:href="#m1218685792" x="589.025444" y="274.015654" style="fill-opacity: 0.3"/>
     <use xlink:href="#m1218685792" x="567.778605" y="271.48833" style="fill-opacity: 0.3"/>
     <use xlink:href="#m1218685792" x="574.391004" y="269.594421" style="fill-opacity: 0.3"/>
     <use xlink:href="#m1218685792" x="569.203583" y="261.429737" style="fill-opacity: 0.3"/>
     <use xlink:href="#m1218685792" x="578.243468" y="263.496003" style="fill-opacity: 0.3"/>
     <use xlink:href="#m1218685792" x="591.441608" y="207.86963" style="fill-opacity: 0.3"/>
     <use xlink:href="#m1218685792" x="583.352666" y="244.737142" style="fill-opacity: 0.3"/>
     <use xlink:href="#m1218685792" x="571.715766" y="215.523242" style="fill-opacity: 0.3"/>
     <use xlink:href="#m1218685792" x="590.735471" y="262.003756" style="fill-opacity: 0.3"/>
     <use xlink:href="#m1218685792" x="564.551099" y="241.143288" style="fill-opacity: 0.3"/>
     <use xlink:href="#m1218685792" x="578.76723" y="251.560708" style="fill-opacity: 0.3"/>
     <use xlink:href="#m1218685792" x="588.279322" y="260.281678" style="fill-opacity: 0.3"/>
     <use xlink:href="#m1218685792" x="567.451239" y="238.612563" style="fill-opacity: 0.3"/>
     <use xlink:href="#m1218685792" x="569.923559" y="256.129841" style="fill-opacity: 0.3"/>
     <use xlink:href="#m1218685792" x="571.692985" y="244.622208" style="fill-opacity: 0.3"/>
     <use xlink:href="#m1218685792" x="590.32608" y="207.190138" style="fill-opacity: 0.3"/>
     <use xlink:href="#m1218685792" x="583.951435" y="208.197462" style="fill-opacity: 0.3"/>
     <use xlink:href="#m1218685792" x="575.467533" y="253.47708" style="fill-opacity: 0.3"/>
     <use xlink:href="#m1218685792" x="578.745331" y="236.536804" style="fill-opacity: 0.3"/>
    </g>
   </g>
  </g>
 </g>
 <defs>
  <clipPath id="p77d10a5863">
   <rect x="90" y="43.2" width="558" height="277.2"/>
  </clipPath>
 </defs>
</svg>
