<?xml version="1.0" encoding="utf-8" standalone="no"?>
<!DOCTYPE svg PUBLIC "-//W3C//DTD SVG 1.1//EN"
  "http://www.w3.org/Graphics/SVG/1.1/DTD/svg11.dtd">
<svg xmlns:xlink="http://www.w3.org/1999/xlink" width="720pt" height="360pt" viewBox="0 0 720 360" xmlns="http://www.w3.org/2000/svg" version="1.1">
 <metadata>
  <rdf:RDF xmlns:dc="http://purl.org/dc/elements/1.1/" xmlns:cc="http://creativecommons.org/ns#" xmlns:rdf="http://www.w3.org/1999/02/22-rdf-syntax-ns#">
   <cc:Work>
    <dc:type rdf:resource="http://purl.org/dc/dcmitype/StillImage"/>
    <dc:date>2025-11-14T11:41:29.065761</dc:date>
    <dc:format>image/svg+xml</dc:format>
    <dc:creator>
     <cc:Agent>
      <dc:title>Matplotlib v3.10.5, https://matplotlib.org/</dc:title>
     </cc:Agent>
    </dc:creator>
   </cc:Work>
  </rdf:RDF>
 </metadata>
 <defs>
  <style type="text/css">*{stroke-linejoin: round; stroke-linecap: butt}</style>
 </defs>
 <g id="figure_1">
  <g id="patch_1">
   <path d="M 0 360 
L 720 360 
L 720 0 
L 0 0 
z
" style="fill: #ffffff"/>
  </g>
  <g id="axes_1">
   <g id="patch_2">
    <path d="M 90 320.4 
L 648 320.4 
L 648 43.2 
L 90 43.2 
z
" style="fill: #ffffff"/>
   </g>
   <g id="FillBetweenPolyCollection_1">
    <defs>
     <path id="medcc06fbf2" d="M 160.166867 -52.2 
L 159.333133 -52.2 
L 159.205472 -54.743827 
L 159.047759 -57.287655 
L 158.85538 -59.831482 
L 158.62345 -62.375309 
L 158.346787 -64.919137 
L 158.019841 -67.462964 
L 157.636569 -70.006791 
L 157.190271 -72.550619 
L 156.673395 -75.094446 
L 156.077352 -77.638273 
L 155.392377 -80.182101 
L 154.607492 -82.725928 
L 153.710627 -85.269755 
L 152.688945 -87.813583 
L 151.529408 -90.35741 
L 150.219582 -92.901237 
L 148.74867 -95.445065 
L 147.108704 -97.988892 
L 145.295804 -100.532719 
L 143.311397 -103.076546 
L 141.16325 -105.620374 
L 138.866206 -108.164201 
L 136.442487 -110.708028 
L 133.921511 -113.251856 
L 131.339172 -115.795683 
L 128.736601 -118.33951 
L 126.158477 -120.883338 
L 123.650988 -123.427165 
L 121.259584 -125.970992 
L 119.026674 -128.51482 
L 116.989422 -131.058647 
L 115.177791 -133.602474 
L 113.612957 -136.146302 
L 112.306203 -138.690129 
L 111.25836 -141.233956 
L 110.459833 -143.777784 
L 109.891225 -146.321611 
L 109.524542 -148.865438 
L 109.324895 -151.409266 
L 109.25262 -153.953093 
L 109.265665 -156.49692 
L 109.322097 -159.040748 
L 109.382514 -161.584575 
L 109.412227 -164.128402 
L 109.383001 -166.67223 
L 109.274284 -169.216057 
L 109.073831 -171.759884 
L 108.777754 -174.303712 
L 108.39006 -176.847539 
L 107.921797 -179.391366 
L 107.389964 -181.935194 
L 106.816318 -184.479021 
L 106.226203 -187.022848 
L 105.647455 -189.566675 
L 105.109412 -192.110503 
L 104.641967 -194.65433 
L 104.274627 -197.198157 
L 104.035471 -199.741985 
L 103.95 -202.285812 
L 104.039848 -204.829639 
L 104.321451 -207.373467 
L 104.804774 -209.917294 
L 105.492285 -212.461121 
L 106.378349 -215.004949 
L 107.449198 -217.548776 
L 108.683603 -220.092603 
L 110.054249 -222.636431 
L 111.529755 -225.180258 
L 113.077159 -227.724085 
L 114.664633 -230.267913 
L 116.264125 -232.81174 
L 117.853639 -235.355567 
L 119.418873 -237.899395 
L 120.954046 -240.443222 
L 122.461789 -242.987049 
L 123.95213 -245.530877 
L 125.440701 -248.074704 
L 126.946351 -250.618531 
L 128.488475 -253.162359 
L 130.08433 -255.706186 
L 131.746655 -258.250013 
L 133.481828 -260.793841 
L 135.288735 -263.337668 
L 137.158453 -265.881495 
L 139.074729 -268.425323 
L 141.015157 -270.96915 
L 142.95291 -273.512977 
L 144.85879 -276.056804 
L 146.703391 -278.600632 
L 148.459148 -281.144459 
L 150.102081 -283.688286 
L 151.613113 -286.232114 
L 152.978875 -288.775941 
L 154.191993 -291.319768 
L 155.250899 -293.863596 
L 156.159239 -296.407423 
L 156.925004 -298.95125 
L 157.559486 -301.495078 
L 158.076195 -304.038905 
L 161.423805 -304.038905 
L 161.423805 -304.038905 
L 161.940514 -301.495078 
L 162.574996 -298.95125 
L 163.340761 -296.407423 
L 164.249101 -293.863596 
L 165.308007 -291.319768 
L 166.521125 -288.775941 
L 167.886887 -286.232114 
L 169.397919 -283.688286 
L 171.040852 -281.144459 
L 172.796609 -278.600632 
L 174.64121 -276.056804 
L 176.54709 -273.512977 
L 178.484843 -270.96915 
L 180.425271 -268.425323 
L 182.341547 -265.881495 
L 184.211265 -263.337668 
L 186.018172 -260.793841 
L 187.753345 -258.250013 
L 189.41567 -255.706186 
L 191.011525 -253.162359 
L 192.553649 -250.618531 
L 194.059299 -248.074704 
L 195.54787 -245.530877 
L 197.038211 -242.987049 
L 198.545954 -240.443222 
L 200.081127 -237.899395 
L 201.646361 -235.355567 
L 203.235875 -232.81174 
L 204.835367 -230.267913 
L 206.422841 -227.724085 
L 207.970245 -225.180258 
L 209.445751 -222.636431 
L 210.816397 -220.092603 
L 212.050802 -217.548776 
L 213.121651 -215.004949 
L 214.007715 -212.461121 
L 214.695226 -209.917294 
L 215.178549 -207.373467 
L 215.460152 -204.829639 
L 215.55 -202.285812 
L 215.464529 -199.741985 
L 215.225373 -197.198157 
L 214.858033 -194.65433 
L 214.390588 -192.110503 
L 213.852545 -189.566675 
L 213.273797 -187.022848 
L 212.683682 -184.479021 
L 212.110036 -181.935194 
L 211.578203 -179.391366 
L 211.10994 -176.847539 
L 210.722246 -174.303712 
L 210.426169 -171.759884 
L 210.225716 -169.216057 
L 210.116999 -166.67223 
L 210.087773 -164.128402 
L 210.117486 -161.584575 
L 210.177903 -159.040748 
L 210.234335 -156.49692 
L 210.24738 -153.953093 
L 210.175105 -151.409266 
L 209.975458 -148.865438 
L 209.608775 -146.321611 
L 209.040167 -143.777784 
L 208.24164 -141.233956 
L 207.193797 -138.690129 
L 205.887043 -136.146302 
L 204.322209 -133.602474 
L 202.510578 -131.058647 
L 200.473326 -128.51482 
L 198.240416 -125.970992 
L 195.849012 -123.427165 
L 193.341523 -120.883338 
L 190.763399 -118.33951 
L 188.160828 -115.795683 
L 185.578489 -113.251856 
L 183.057513 -110.708028 
L 180.633794 -108.164201 
L 178.33675 -105.620374 
L 176.188603 -103.076546 
L 174.204196 -100.532719 
L 172.391296 -97.988892 
L 170.75133 -95.445065 
L 169.280418 -92.901237 
L 167.970592 -90.35741 
L 166.811055 -87.813583 
L 165.789373 -85.269755 
L 164.892508 -82.725928 
L 164.107623 -80.182101 
L 163.422648 -77.638273 
L 162.826605 -75.094446 
L 162.309729 -72.550619 
L 161.863431 -70.006791 
L 161.480159 -67.462964 
L 161.153213 -64.919137 
L 160.87655 -62.375309 
L 160.64462 -59.831482 
L 160.452241 -57.287655 
L 160.294528 -54.743827 
L 160.166867 -52.2 
z
" style="stroke: #3d3d3d; stroke-width: 1.25"/>
    </defs>
    <g clip-path="url(#p86ab8a3f88)">
     <use xlink:href="#medcc06fbf2" x="0" y="360" style="fill: #3274a1; stroke: #3d3d3d; stroke-width: 1.25"/>
    </g>
   </g>
   <g id="FillBetweenPolyCollection_2">
    <defs>
     <path id="md0d8238320" d="M 299.50482 -93.064865 
L 298.99518 -93.064865 
L 298.889866 -95.039932 
L 298.750879 -97.015 
L 298.57089 -98.990067 
L 298.341787 -100.965134 
L 298.054661 -102.940201 
L 297.699772 -104.915269 
L 297.266541 -106.890336 
L 296.743621 -108.865403 
L 296.11914 -110.84047 
L 295.381219 -112.815537 
L 294.518816 -114.790605 
L 293.522918 -116.765672 
L 292.388004 -118.740739 
L 291.113626 -120.715806 
L 289.70584 -122.690873 
L 288.178205 -124.665941 
L 286.552061 -126.641008 
L 284.855865 -128.616075 
L 283.123477 -130.591142 
L 281.391493 -132.566209 
L 279.695825 -134.541277 
L 278.067952 -136.516344 
L 276.531314 -138.491411 
L 275.098391 -140.466478 
L 273.76894 -142.441546 
L 272.52975 -144.416613 
L 271.356105 -146.39168 
L 270.214865 -148.366747 
L 269.068888 -150.341814 
L 267.882248 -152.316882 
L 266.625571 -154.291949 
L 265.280714 -156.267016 
L 263.844043 -158.242083 
L 262.327738 -160.21715 
L 260.758773 -162.192218 
L 259.175581 -164.167285 
L 257.622785 -166.142352 
L 256.144729 -168.117419 
L 254.778828 -170.092487 
L 253.549873 -172.067554 
L 252.466351 -174.042621 
L 251.519558 -176.017688 
L 250.685767 -177.992755 
L 249.931181 -179.967823 
L 249.218768 -181.94289 
L 248.51569 -183.917957 
L 247.79988 -185.893024 
L 247.064457 -187.868091 
L 246.319164 -189.843159 
L 245.588663 -191.818226 
L 244.908238 -193.793293 
L 244.318026 -195.76836 
L 243.857177 -197.743427 
L 243.559283 -199.718495 
L 243.45 -201.693562 
L 243.547148 -203.668629 
L 243.862902 -205.643696 
L 244.407104 -207.618764 
L 245.190472 -209.593831 
L 246.226542 -211.568898 
L 247.531559 -213.543965 
L 249.12213 -215.519032 
L 251.011083 -217.4941 
L 253.202463 -219.469167 
L 255.686851 -221.444234 
L 258.438136 -223.419301 
L 261.41253 -225.394368 
L 264.550134 -227.369436 
L 267.778839 -229.344503 
L 271.019888 -231.31957 
L 274.194199 -233.294637 
L 277.228493 -235.269704 
L 280.060432 -237.244772 
L 282.642245 -239.219839 
L 284.942638 -241.194906 
L 286.947053 -243.169973 
L 288.656559 -245.145041 
L 290.085735 -247.120108 
L 291.259907 -249.095175 
L 292.212073 -251.070242 
L 292.979751 -253.045309 
L 293.601951 -255.020377 
L 294.116409 -256.995444 
L 294.557221 -258.970511 
L 294.953011 -260.945578 
L 295.325721 -262.920645 
L 295.690116 -264.895713 
L 296.053989 -266.87078 
L 296.419012 -268.845847 
L 296.78207 -270.820914 
L 297.13689 -272.795981 
L 297.475719 -274.771049 
L 297.790846 -276.746116 
L 298.075793 -278.721183 
L 298.326087 -280.69625 
L 298.539592 -282.671318 
L 298.716447 -284.646385 
L 298.858726 -286.621452 
L 298.969915 -288.596519 
L 299.530085 -288.596519 
L 299.530085 -288.596519 
L 299.641274 -286.621452 
L 299.783553 -284.646385 
L 299.960408 -282.671318 
L 300.173913 -280.69625 
L 300.424207 -278.721183 
L 300.709154 -276.746116 
L 301.024281 -274.771049 
L 301.36311 -272.795981 
L 301.71793 -270.820914 
L 302.080988 -268.845847 
L 302.446011 -266.87078 
L 302.809884 -264.895713 
L 303.174279 -262.920645 
L 303.546989 -260.945578 
L 303.942779 -258.970511 
L 304.383591 -256.995444 
L 304.898049 -255.020377 
L 305.520249 -253.045309 
L 306.287927 -251.070242 
L 307.240093 -249.095175 
L 308.414265 -247.120108 
L 309.843441 -245.145041 
L 311.552947 -243.169973 
L 313.557362 -241.194906 
L 315.857755 -239.219839 
L 318.439568 -237.244772 
L 321.271507 -235.269704 
L 324.305801 -233.294637 
L 327.480112 -231.31957 
L 330.721161 -229.344503 
L 333.949866 -227.369436 
L 337.08747 -225.394368 
L 340.061864 -223.419301 
L 342.813149 -221.444234 
L 345.297537 -219.469167 
L 347.488917 -217.4941 
L 349.37787 -215.519032 
L 350.968441 -213.543965 
L 352.273458 -211.568898 
L 353.309528 -209.593831 
L 354.092896 -207.618764 
L 354.637098 -205.643696 
L 354.952852 -203.668629 
L 355.05 -201.693562 
L 354.940717 -199.718495 
L 354.642823 -197.743427 
L 354.181974 -195.76836 
L 353.591762 -193.793293 
L 352.911337 -191.818226 
L 352.180836 -189.843159 
L 351.435543 -187.868091 
L 350.70012 -185.893024 
L 349.98431 -183.917957 
L 349.281232 -181.94289 
L 348.568819 -179.967823 
L 347.814233 -177.992755 
L 346.980442 -176.017688 
L 346.033649 -174.042621 
L 344.950127 -172.067554 
L 343.721172 -170.092487 
L 342.355271 -168.117419 
L 340.877215 -166.142352 
L 339.324419 -164.167285 
L 337.741227 -162.192218 
L 336.172262 -160.21715 
L 334.655957 -158.242083 
L 333.219286 -156.267016 
L 331.874429 -154.291949 
L 330.617752 -152.316882 
L 329.431112 -150.341814 
L 328.285135 -148.366747 
L 327.143895 -146.39168 
L 325.97025 -144.416613 
L 324.73106 -142.441546 
L 323.401609 -140.466478 
L 321.968686 -138.491411 
L 320.432048 -136.516344 
L 318.804175 -134.541277 
L 317.108507 -132.566209 
L 315.376523 -130.591142 
L 313.644135 -128.616075 
L 311.947939 -126.641008 
L 310.321795 -124.665941 
L 308.79416 -122.690873 
L 307.386374 -120.715806 
L 306.111996 -118.740739 
L 304.977082 -116.765672 
L 303.981184 -114.790605 
L 303.118781 -112.815537 
L 302.38086 -110.84047 
L 301.756379 -108.865403 
L 301.233459 -106.890336 
L 300.800228 -104.915269 
L 300.445339 -102.940201 
L 300.158213 -100.965134 
L 299.92911 -98.990067 
L 299.749121 -97.015 
L 299.610134 -95.039932 
L 299.50482 -93.064865 
z
" style="stroke: #3d3d3d; stroke-width: 1.25"/>
    </defs>
    <g clip-path="url(#p86ab8a3f88)">
     <use xlink:href="#md0d8238320" x="0" y="360" style="fill: #e1812c; stroke: #3d3d3d; stroke-width: 1.25"/>
    </g>
   </g>
   <g id="FillBetweenPolyCollection_3">
    <defs>
     <path id="m3b3855af79" d="M 439.121165 -94.496501 
L 438.378835 -94.496501 
L 438.250988 -96.5007 
L 438.090562 -98.5049 
L 437.892717 -100.5091 
L 437.652529 -102.5133 
L 437.364926 -104.5175 
L 437.024496 -106.521699 
L 436.625205 -108.525899 
L 436.160025 -110.530099 
L 435.620595 -112.534299 
L 434.997002 -114.538499 
L 434.277841 -116.542698 
L 433.450673 -118.546898 
L 432.502983 -120.551098 
L 431.423647 -122.555298 
L 430.204815 -124.559497 
L 428.844011 -126.563697 
L 427.346129 -128.567897 
L 425.724966 -130.572097 
L 424.0039 -132.576297 
L 422.215415 -134.580496 
L 420.399319 -136.584696 
L 418.599684 -138.588896 
L 416.860782 -140.593096 
L 415.222465 -142.597296 
L 413.715599 -144.601495 
L 412.358188 -146.605695 
L 411.15278 -148.609895 
L 410.085561 -150.614095 
L 409.127328 -152.618294 
L 408.236259 -154.622494 
L 407.362148 -156.626694 
L 406.451582 -158.630894 
L 405.45345 -160.635094 
L 404.324169 -162.639293 
L 403.032084 -164.643493 
L 401.560668 -166.647693 
L 399.910324 -168.651893 
L 398.098746 -170.656093 
L 396.159956 -172.660292 
L 394.142222 -174.664492 
L 392.105116 -176.668692 
L 390.11596 -178.672892 
L 388.245927 -180.677091 
L 386.566021 -182.681291 
L 385.143129 -184.685491 
L 384.036352 -186.689691 
L 383.293797 -188.693891 
L 382.95 -190.69809 
L 383.024136 -192.70229 
L 383.519138 -194.70649 
L 384.421793 -196.71069 
L 385.703803 -198.71489 
L 387.323746 -200.719089 
L 389.229788 -202.723289 
L 391.362947 -204.727489 
L 393.660659 -206.731689 
L 396.060408 -208.735888 
L 398.503142 -210.740088 
L 400.93626 -212.744288 
L 403.315965 -214.748488 
L 405.608828 -216.752688 
L 407.79247 -218.756887 
L 409.855344 -220.761087 
L 411.795654 -222.765287 
L 413.619553 -224.769487 
L 415.338813 -226.773687 
L 416.968217 -228.777886 
L 418.522966 -230.782086 
L 420.01637 -232.786286 
L 421.458066 -234.790486 
L 422.852939 -236.794685 
L 424.200807 -238.798885 
L 425.496877 -240.803085 
L 426.732832 -242.807285 
L 427.898377 -244.811485 
L 428.983002 -246.815684 
L 429.977708 -248.819884 
L 430.876472 -250.824084 
L 431.677251 -252.828284 
L 432.382434 -254.832484 
L 432.998679 -256.836683 
L 433.536223 -258.840883 
L 434.007757 -260.845083 
L 434.427068 -262.849283 
L 434.807632 -264.853482 
L 435.161357 -266.857682 
L 435.49763 -268.861882 
L 435.822777 -270.866082 
L 436.139948 -272.870282 
L 436.449411 -274.874481 
L 436.749157 -276.878681 
L 437.035684 -278.882881 
L 437.304843 -280.887081 
L 437.552609 -282.891281 
L 437.775692 -284.89548 
L 437.97194 -286.89968 
L 438.140513 -288.90388 
L 438.281859 -290.90808 
L 438.397535 -292.912279 
L 439.102465 -292.912279 
L 439.102465 -292.912279 
L 439.218141 -290.90808 
L 439.359487 -288.90388 
L 439.52806 -286.89968 
L 439.724308 -284.89548 
L 439.947391 -282.891281 
L 440.195157 -280.887081 
L 440.464316 -278.882881 
L 440.750843 -276.878681 
L 441.050589 -274.874481 
L 441.360052 -272.870282 
L 441.677223 -270.866082 
L 442.00237 -268.861882 
L 442.338643 -266.857682 
L 442.692368 -264.853482 
L 443.072932 -262.849283 
L 443.492243 -260.845083 
L 443.963777 -258.840883 
L 444.501321 -256.836683 
L 445.117566 -254.832484 
L 445.822749 -252.828284 
L 446.623528 -250.824084 
L 447.522292 -248.819884 
L 448.516998 -246.815684 
L 449.601623 -244.811485 
L 450.767168 -242.807285 
L 452.003123 -240.803085 
L 453.299193 -238.798885 
L 454.647061 -236.794685 
L 456.041934 -234.790486 
L 457.48363 -232.786286 
L 458.977034 -230.782086 
L 460.531783 -228.777886 
L 462.161187 -226.773687 
L 463.880447 -224.769487 
L 465.704346 -222.765287 
L 467.644656 -220.761087 
L 469.70753 -218.756887 
L 471.891172 -216.752688 
L 474.184035 -214.748488 
L 476.56374 -212.744288 
L 478.996858 -210.740088 
L 481.439592 -208.735888 
L 483.839341 -206.731689 
L 486.137053 -204.727489 
L 488.270212 -202.723289 
L 490.176254 -200.719089 
L 491.796197 -198.71489 
L 493.078207 -196.71069 
L 493.980862 -194.70649 
L 494.475864 -192.70229 
L 494.55 -190.69809 
L 494.206203 -188.693891 
L 493.463648 -186.689691 
L 492.356871 -184.685491 
L 490.933979 -182.681291 
L 489.254073 -180.677091 
L 487.38404 -178.672892 
L 485.394884 -176.668692 
L 483.357778 -174.664492 
L 481.340044 -172.660292 
L 479.401254 -170.656093 
L 477.589676 -168.651893 
L 475.939332 -166.647693 
L 474.467916 -164.643493 
L 473.175831 -162.639293 
L 472.04655 -160.635094 
L 471.048418 -158.630894 
L 470.137852 -156.626694 
L 469.263741 -154.622494 
L 468.372672 -152.618294 
L 467.414439 -150.614095 
L 466.34722 -148.609895 
L 465.141812 -146.605695 
L 463.784401 -144.601495 
L 462.277535 -142.597296 
L 460.639218 -140.593096 
L 458.900316 -138.588896 
L 457.100681 -136.584696 
L 455.284585 -134.580496 
L 453.4961 -132.576297 
L 451.775034 -130.572097 
L 450.153871 -128.567897 
L 448.655989 -126.563697 
L 447.295185 -124.559497 
L 446.076353 -122.555298 
L 444.997017 -120.551098 
L 444.049327 -118.546898 
L 443.222159 -116.542698 
L 442.502998 -114.538499 
L 441.879405 -112.534299 
L 441.339975 -110.530099 
L 440.874795 -108.525899 
L 440.475504 -106.521699 
L 440.135074 -104.5175 
L 439.847471 -102.5133 
L 439.607283 -100.5091 
L 439.409438 -98.5049 
L 439.249012 -96.5007 
L 439.121165 -94.496501 
z
" style="stroke: #3d3d3d; stroke-width: 1.25"/>
    </defs>
    <g clip-path="url(#p86ab8a3f88)">
     <use xlink:href="#m3b3855af79" x="0" y="360" style="fill: #3a923a; stroke: #3d3d3d; stroke-width: 1.25"/>
    </g>
   </g>
   <g id="FillBetweenPolyCollection_4">
    <defs>
     <path id="m86c6775758" d="M 579.091997 -71.352921 
L 577.408003 -71.352921 
L 577.153155 -73.704912 
L 576.836645 -76.056903 
L 576.448202 -78.408893 
L 575.977059 -80.760884 
L 575.412238 -83.112875 
L 574.742903 -85.464865 
L 573.958775 -87.816856 
L 573.050597 -90.168847 
L 572.01063 -92.520837 
L 570.833161 -94.872828 
L 569.514993 -97.224819 
L 568.055884 -99.576809 
L 566.458897 -101.9288 
L 564.730639 -104.280791 
L 562.88134 -106.632782 
L 560.924766 -108.984772 
L 558.877937 -111.336763 
L 556.760661 -113.688754 
L 554.594884 -116.040744 
L 552.403904 -118.392735 
L 550.211479 -120.744726 
L 548.040892 -123.096716 
L 545.914042 -125.448707 
L 543.850613 -127.800698 
L 541.867392 -130.152689 
L 539.977784 -132.504679 
L 538.191541 -134.85667 
L 536.514733 -137.208661 
L 534.949939 -139.560651 
L 533.496647 -141.912642 
L 532.151797 -144.264633 
L 530.910451 -146.616623 
L 529.76651 -148.968614 
L 528.713446 -151.320605 
L 527.745003 -153.672595 
L 526.855824 -156.024586 
L 526.041993 -158.376577 
L 525.301455 -160.728568 
L 524.634303 -163.080558 
L 524.042922 -165.432549 
L 523.531976 -167.78454 
L 523.108213 -170.13653 
L 522.780104 -172.488521 
L 522.557312 -174.840512 
L 522.45 -177.192502 
L 522.468026 -179.544493 
L 522.620076 -181.896484 
L 522.912802 -184.248475 
L 523.350056 -186.600465 
L 523.932302 -188.952456 
L 524.656291 -191.304447 
L 525.515049 -193.656437 
L 526.498212 -196.008428 
L 527.592688 -198.360419 
L 528.783588 -200.712409 
L 530.055331 -203.0644 
L 531.392787 -205.416391 
L 532.782327 -207.768381 
L 534.212633 -210.120372 
L 535.675163 -212.472363 
L 537.164215 -214.824354 
L 538.676565 -217.176344 
L 540.210753 -219.528335 
L 541.766099 -221.880326 
L 543.341622 -224.232316 
L 544.935013 -226.584307 
L 546.541822 -228.936298 
L 548.154995 -231.288288 
L 549.764847 -233.640279 
L 551.359464 -235.99227 
L 552.925513 -238.344261 
L 554.449334 -240.696251 
L 555.918167 -243.048242 
L 557.321355 -245.400233 
L 558.651338 -247.752223 
L 559.904332 -250.104214 
L 561.080576 -252.456205 
L 562.18414 -254.808195 
L 563.22232 -257.160186 
L 564.204692 -259.512177 
L 565.141976 -261.864167 
L 566.044826 -264.216158 
L 566.922707 -266.568149 
L 567.782979 -268.92014 
L 568.630274 -271.27213 
L 569.466216 -273.624121 
L 570.289485 -275.976112 
L 571.096188 -278.328102 
L 571.880458 -280.680093 
L 572.635207 -283.032084 
L 573.352919 -285.384074 
L 574.026407 -287.736065 
L 574.649461 -290.088056 
L 575.217327 -292.440047 
L 575.727007 -294.792037 
L 576.177365 -297.144028 
L 576.569068 -299.496019 
L 576.90439 -301.848009 
L 577.18692 -304.2 
L 579.31308 -304.2 
L 579.31308 -304.2 
L 579.59561 -301.848009 
L 579.930932 -299.496019 
L 580.322635 -297.144028 
L 580.772993 -294.792037 
L 581.282673 -292.440047 
L 581.850539 -290.088056 
L 582.473593 -287.736065 
L 583.147081 -285.384074 
L 583.864793 -283.032084 
L 584.619542 -280.680093 
L 585.403812 -278.328102 
L 586.210515 -275.976112 
L 587.033784 -273.624121 
L 587.869726 -271.27213 
L 588.717021 -268.92014 
L 589.577293 -266.568149 
L 590.455174 -264.216158 
L 591.358024 -261.864167 
L 592.295308 -259.512177 
L 593.27768 -257.160186 
L 594.31586 -254.808195 
L 595.419424 -252.456205 
L 596.595668 -250.104214 
L 597.848662 -247.752223 
L 599.178645 -245.400233 
L 600.581833 -243.048242 
L 602.050666 -240.696251 
L 603.574487 -238.344261 
L 605.140536 -235.99227 
L 606.735153 -233.640279 
L 608.345005 -231.288288 
L 609.958178 -228.936298 
L 611.564987 -226.584307 
L 613.158378 -224.232316 
L 614.733901 -221.880326 
L 616.289247 -219.528335 
L 617.823435 -217.176344 
L 619.335785 -214.824354 
L 620.824837 -212.472363 
L 622.287367 -210.120372 
L 623.717673 -207.768381 
L 625.107213 -205.416391 
L 626.444669 -203.0644 
L 627.716412 -200.712409 
L 628.907312 -198.360419 
L 630.001788 -196.008428 
L 630.984951 -193.656437 
L 631.843709 -191.304447 
L 632.567698 -188.952456 
L 633.149944 -186.600465 
L 633.587198 -184.248475 
L 633.879924 -181.896484 
L 634.031974 -179.544493 
L 634.05 -177.192502 
L 633.942688 -174.840512 
L 633.719896 -172.488521 
L 633.391787 -170.13653 
L 632.968024 -167.78454 
L 632.457078 -165.432549 
L 631.865697 -163.080558 
L 631.198545 -160.728568 
L 630.458007 -158.376577 
L 629.644176 -156.024586 
L 628.754997 -153.672595 
L 627.786554 -151.320605 
L 626.73349 -148.968614 
L 625.589549 -146.616623 
L 624.348203 -144.264633 
L 623.003353 -141.912642 
L 621.550061 -139.560651 
L 619.985267 -137.208661 
L 618.308459 -134.85667 
L 616.522216 -132.504679 
L 614.632608 -130.152689 
L 612.649387 -127.800698 
L 610.585958 -125.448707 
L 608.459108 -123.096716 
L 606.288521 -120.744726 
L 604.096096 -118.392735 
L 601.905116 -116.040744 
L 599.739339 -113.688754 
L 597.622063 -111.336763 
L 595.575234 -108.984772 
L 593.61866 -106.632782 
L 591.769361 -104.280791 
L 590.041103 -101.9288 
L 588.444116 -99.576809 
L 586.985007 -97.224819 
L 585.666839 -94.872828 
L 584.48937 -92.520837 
L 583.449403 -90.168847 
L 582.541225 -87.816856 
L 581.757097 -85.464865 
L 581.087762 -83.112875 
L 580.522941 -80.760884 
L 580.051798 -78.408893 
L 579.663355 -76.056903 
L 579.346845 -73.704912 
L 579.091997 -71.352921 
z
" style="stroke: #3d3d3d; stroke-width: 1.25"/>
    </defs>
    <g clip-path="url(#p86ab8a3f88)">
     <use xlink:href="#m86c6775758" x="0" y="360" style="fill: #c03d3e; stroke: #3d3d3d; stroke-width: 1.25"/>
    </g>
   </g>
   <g id="matplotlib.axis_1">
    <g id="xtick_1">
     <g id="line2d_1">
      <defs>
       <path id="mf135ced433" d="M 0 0 
L 0 3.5 
" style="stroke: #000000; stroke-width: 0.8"/>
      </defs>
      <g>
       <use xlink:href="#mf135ced433" x="159.75" y="320.4" style="stroke: #000000; stroke-width: 0.8"/>
      </g>
     </g>
     <g id="text_1">
      <!-- Spurious -->
      <g transform="translate(137.955469 334.998438) scale(0.1 -0.1)">
       <defs>
        <path id="DejaVuSans-53" d="M 3425 4513 
L 3425 3897 
Q 3066 4069 2747 4153 
Q 2428 4238 2131 4238 
Q 1616 4238 1336 4038 
Q 1056 3838 1056 3469 
Q 1056 3159 1242 3001 
Q 1428 2844 1947 2747 
L 2328 2669 
Q 3034 2534 3370 2195 
Q 3706 1856 3706 1288 
Q 3706 609 3251 259 
Q 2797 -91 1919 -91 
Q 1588 -91 1214 -16 
Q 841 59 441 206 
L 441 856 
Q 825 641 1194 531 
Q 1563 422 1919 422 
Q 2459 422 2753 634 
Q 3047 847 3047 1241 
Q 3047 1584 2836 1778 
Q 2625 1972 2144 2069 
L 1759 2144 
Q 1053 2284 737 2584 
Q 422 2884 422 3419 
Q 422 4038 858 4394 
Q 1294 4750 2059 4750 
Q 2388 4750 2728 4690 
Q 3069 4631 3425 4513 
z
" transform="scale(0.015625)"/>
        <path id="DejaVuSans-70" d="M 1159 525 
L 1159 -1331 
L 581 -1331 
L 581 3500 
L 1159 3500 
L 1159 2969 
Q 1341 3281 1617 3432 
Q 1894 3584 2278 3584 
Q 2916 3584 3314 3078 
Q 3713 2572 3713 1747 
Q 3713 922 3314 415 
Q 2916 -91 2278 -91 
Q 1894 -91 1617 61 
Q 1341 213 1159 525 
z
M 3116 1747 
Q 3116 2381 2855 2742 
Q 2594 3103 2138 3103 
Q 1681 3103 1420 2742 
Q 1159 2381 1159 1747 
Q 1159 1113 1420 752 
Q 1681 391 2138 391 
Q 2594 391 2855 752 
Q 3116 1113 3116 1747 
z
" transform="scale(0.015625)"/>
        <path id="DejaVuSans-75" d="M 544 1381 
L 544 3500 
L 1119 3500 
L 1119 1403 
Q 1119 906 1312 657 
Q 1506 409 1894 409 
Q 2359 409 2629 706 
Q 2900 1003 2900 1516 
L 2900 3500 
L 3475 3500 
L 3475 0 
L 2900 0 
L 2900 538 
Q 2691 219 2414 64 
Q 2138 -91 1772 -91 
Q 1169 -91 856 284 
Q 544 659 544 1381 
z
M 1991 3584 
L 1991 3584 
z
" transform="scale(0.015625)"/>
        <path id="DejaVuSans-72" d="M 2631 2963 
Q 2534 3019 2420 3045 
Q 2306 3072 2169 3072 
Q 1681 3072 1420 2755 
Q 1159 2438 1159 1844 
L 1159 0 
L 581 0 
L 581 3500 
L 1159 3500 
L 1159 2956 
Q 1341 3275 1631 3429 
Q 1922 3584 2338 3584 
Q 2397 3584 2469 3576 
Q 2541 3569 2628 3553 
L 2631 2963 
z
" transform="scale(0.015625)"/>
        <path id="DejaVuSans-69" d="M 603 3500 
L 1178 3500 
L 1178 0 
L 603 0 
L 603 3500 
z
M 603 4863 
L 1178 4863 
L 1178 4134 
L 603 4134 
L 603 4863 
z
" transform="scale(0.015625)"/>
        <path id="DejaVuSans-6f" d="M 1959 3097 
Q 1497 3097 1228 2736 
Q 959 2375 959 1747 
Q 959 1119 1226 758 
Q 1494 397 1959 397 
Q 2419 397 2687 759 
Q 2956 1122 2956 1747 
Q 2956 2369 2687 2733 
Q 2419 3097 1959 3097 
z
M 1959 3584 
Q 2709 3584 3137 3096 
Q 3566 2609 3566 1747 
Q 3566 888 3137 398 
Q 2709 -91 1959 -91 
Q 1206 -91 779 398 
Q 353 888 353 1747 
Q 353 2609 779 3096 
Q 1206 3584 1959 3584 
z
" transform="scale(0.015625)"/>
        <path id="DejaVuSans-73" d="M 2834 3397 
L 2834 2853 
Q 2591 2978 2328 3040 
Q 2066 3103 1784 3103 
Q 1356 3103 1142 2972 
Q 928 2841 928 2578 
Q 928 2378 1081 2264 
Q 1234 2150 1697 2047 
L 1894 2003 
Q 2506 1872 2764 1633 
Q 3022 1394 3022 966 
Q 3022 478 2636 193 
Q 2250 -91 1575 -91 
Q 1294 -91 989 -36 
Q 684 19 347 128 
L 347 722 
Q 666 556 975 473 
Q 1284 391 1588 391 
Q 1994 391 2212 530 
Q 2431 669 2431 922 
Q 2431 1156 2273 1281 
Q 2116 1406 1581 1522 
L 1381 1569 
Q 847 1681 609 1914 
Q 372 2147 372 2553 
Q 372 3047 722 3315 
Q 1072 3584 1716 3584 
Q 2034 3584 2315 3537 
Q 2597 3491 2834 3397 
z
" transform="scale(0.015625)"/>
       </defs>
       <use xlink:href="#DejaVuSans-53"/>
       <use xlink:href="#DejaVuSans-70" transform="translate(63.476562 0)"/>
       <use xlink:href="#DejaVuSans-75" transform="translate(126.953125 0)"/>
       <use xlink:href="#DejaVuSans-72" transform="translate(190.332031 0)"/>
       <use xlink:href="#DejaVuSans-69" transform="translate(231.445312 0)"/>
       <use xlink:href="#DejaVuSans-6f" transform="translate(259.228516 0)"/>
       <use xlink:href="#DejaVuSans-75" transform="translate(320.410156 0)"/>
       <use xlink:href="#DejaVuSans-73" transform="translate(383.789062 0)"/>
      </g>
     </g>
    </g>
    <g id="xtick_2">
     <g id="line2d_2">
      <g>
       <use xlink:href="#mf135ced433" x="299.25" y="320.4" style="stroke: #000000; stroke-width: 0.8"/>
      </g>
     </g>
     <g id="text_2">
      <!-- Specific -->
      <g transform="translate(279.788281 334.998438) scale(0.1 -0.1)">
       <defs>
        <path id="DejaVuSans-65" d="M 3597 1894 
L 3597 1613 
L 953 1613 
Q 991 1019 1311 708 
Q 1631 397 2203 397 
Q 2534 397 2845 478 
Q 3156 559 3463 722 
L 3463 178 
Q 3153 47 2828 -22 
Q 2503 -91 2169 -91 
Q 1331 -91 842 396 
Q 353 884 353 1716 
Q 353 2575 817 3079 
Q 1281 3584 2069 3584 
Q 2775 3584 3186 3129 
Q 3597 2675 3597 1894 
z
M 3022 2063 
Q 3016 2534 2758 2815 
Q 2500 3097 2075 3097 
Q 1594 3097 1305 2825 
Q 1016 2553 972 2059 
L 3022 2063 
z
" transform="scale(0.015625)"/>
        <path id="DejaVuSans-63" d="M 3122 3366 
L 3122 2828 
Q 2878 2963 2633 3030 
Q 2388 3097 2138 3097 
Q 1578 3097 1268 2742 
Q 959 2388 959 1747 
Q 959 1106 1268 751 
Q 1578 397 2138 397 
Q 2388 397 2633 464 
Q 2878 531 3122 666 
L 3122 134 
Q 2881 22 2623 -34 
Q 2366 -91 2075 -91 
Q 1284 -91 818 406 
Q 353 903 353 1747 
Q 353 2603 823 3093 
Q 1294 3584 2113 3584 
Q 2378 3584 2631 3529 
Q 2884 3475 3122 3366 
z
" transform="scale(0.015625)"/>
        <path id="DejaVuSans-66" d="M 2375 4863 
L 2375 4384 
L 1825 4384 
Q 1516 4384 1395 4259 
Q 1275 4134 1275 3809 
L 1275 3500 
L 2222 3500 
L 2222 3053 
L 1275 3053 
L 1275 0 
L 697 0 
L 697 3053 
L 147 3053 
L 147 3500 
L 697 3500 
L 697 3744 
Q 697 4328 969 4595 
Q 1241 4863 1831 4863 
L 2375 4863 
z
" transform="scale(0.015625)"/>
       </defs>
       <use xlink:href="#DejaVuSans-53"/>
       <use xlink:href="#DejaVuSans-70" transform="translate(63.476562 0)"/>
       <use xlink:href="#DejaVuSans-65" transform="translate(126.953125 0)"/>
       <use xlink:href="#DejaVuSans-63" transform="translate(188.476562 0)"/>
       <use xlink:href="#DejaVuSans-69" transform="translate(243.457031 0)"/>
       <use xlink:href="#DejaVuSans-66" transform="translate(271.240234 0)"/>
       <use xlink:href="#DejaVuSans-69" transform="translate(306.445312 0)"/>
       <use xlink:href="#DejaVuSans-63" transform="translate(334.228516 0)"/>
      </g>
     </g>
    </g>
    <g id="xtick_3">
     <g id="line2d_3">
      <g>
       <use xlink:href="#mf135ced433" x="438.75" y="320.4" style="stroke: #000000; stroke-width: 0.8"/>
      </g>
     </g>
     <g id="text_3">
      <!-- Non-specific -->
      <g transform="translate(408.085156 334.998438) scale(0.1 -0.1)">
       <defs>
        <path id="DejaVuSans-4e" d="M 628 4666 
L 1478 4666 
L 3547 763 
L 3547 4666 
L 4159 4666 
L 4159 0 
L 3309 0 
L 1241 3903 
L 1241 0 
L 628 0 
L 628 4666 
z
" transform="scale(0.015625)"/>
        <path id="DejaVuSans-6e" d="M 3513 2113 
L 3513 0 
L 2938 0 
L 2938 2094 
Q 2938 2591 2744 2837 
Q 2550 3084 2163 3084 
Q 1697 3084 1428 2787 
Q 1159 2491 1159 1978 
L 1159 0 
L 581 0 
L 581 3500 
L 1159 3500 
L 1159 2956 
Q 1366 3272 1645 3428 
Q 1925 3584 2291 3584 
Q 2894 3584 3203 3211 
Q 3513 2838 3513 2113 
z
" transform="scale(0.015625)"/>
        <path id="DejaVuSans-2d" d="M 313 2009 
L 1997 2009 
L 1997 1497 
L 313 1497 
L 313 2009 
z
" transform="scale(0.015625)"/>
       </defs>
       <use xlink:href="#DejaVuSans-4e"/>
       <use xlink:href="#DejaVuSans-6f" transform="translate(74.804688 0)"/>
       <use xlink:href="#DejaVuSans-6e" transform="translate(135.986328 0)"/>
       <use xlink:href="#DejaVuSans-2d" transform="translate(199.365234 0)"/>
       <use xlink:href="#DejaVuSans-73" transform="translate(235.449219 0)"/>
       <use xlink:href="#DejaVuSans-70" transform="translate(287.548828 0)"/>
       <use xlink:href="#DejaVuSans-65" transform="translate(351.025391 0)"/>
       <use xlink:href="#DejaVuSans-63" transform="translate(412.548828 0)"/>
       <use xlink:href="#DejaVuSans-69" transform="translate(467.529297 0)"/>
       <use xlink:href="#DejaVuSans-66" transform="translate(495.3125 0)"/>
       <use xlink:href="#DejaVuSans-69" transform="translate(530.517578 0)"/>
       <use xlink:href="#DejaVuSans-63" transform="translate(558.300781 0)"/>
      </g>
     </g>
    </g>
    <g id="xtick_4">
     <g id="line2d_4">
      <g>
       <use xlink:href="#mf135ced433" x="578.25" y="320.4" style="stroke: #000000; stroke-width: 0.8"/>
      </g>
     </g>
     <g id="text_4">
      <!-- No -->
      <g transform="translate(571.45 334.998438) scale(0.1 -0.1)">
       <use xlink:href="#DejaVuSans-4e"/>
       <use xlink:href="#DejaVuSans-6f" transform="translate(74.804688 0)"/>
      </g>
     </g>
    </g>
    <g id="text_5">
     <!-- Connectivity category -->
     <g transform="translate(313.98125 348.676562) scale(0.1 -0.1)">
      <defs>
       <path id="DejaVuSans-43" d="M 4122 4306 
L 4122 3641 
Q 3803 3938 3442 4084 
Q 3081 4231 2675 4231 
Q 1875 4231 1450 3742 
Q 1025 3253 1025 2328 
Q 1025 1406 1450 917 
Q 1875 428 2675 428 
Q 3081 428 3442 575 
Q 3803 722 4122 1019 
L 4122 359 
Q 3791 134 3420 21 
Q 3050 -91 2638 -91 
Q 1578 -91 968 557 
Q 359 1206 359 2328 
Q 359 3453 968 4101 
Q 1578 4750 2638 4750 
Q 3056 4750 3426 4639 
Q 3797 4528 4122 4306 
z
" transform="scale(0.015625)"/>
       <path id="DejaVuSans-74" d="M 1172 4494 
L 1172 3500 
L 2356 3500 
L 2356 3053 
L 1172 3053 
L 1172 1153 
Q 1172 725 1289 603 
Q 1406 481 1766 481 
L 2356 481 
L 2356 0 
L 1766 0 
Q 1100 0 847 248 
Q 594 497 594 1153 
L 594 3053 
L 172 3053 
L 172 3500 
L 594 3500 
L 594 4494 
L 1172 4494 
z
" transform="scale(0.015625)"/>
       <path id="DejaVuSans-76" d="M 191 3500 
L 800 3500 
L 1894 563 
L 2988 3500 
L 3597 3500 
L 2284 0 
L 1503 0 
L 191 3500 
z
" transform="scale(0.015625)"/>
       <path id="DejaVuSans-79" d="M 2059 -325 
Q 1816 -950 1584 -1140 
Q 1353 -1331 966 -1331 
L 506 -1331 
L 506 -850 
L 844 -850 
Q 1081 -850 1212 -737 
Q 1344 -625 1503 -206 
L 1606 56 
L 191 3500 
L 800 3500 
L 1894 763 
L 2988 3500 
L 3597 3500 
L 2059 -325 
z
" transform="scale(0.015625)"/>
       <path id="DejaVuSans-20" transform="scale(0.015625)"/>
       <path id="DejaVuSans-61" d="M 2194 1759 
Q 1497 1759 1228 1600 
Q 959 1441 959 1056 
Q 959 750 1161 570 
Q 1363 391 1709 391 
Q 2188 391 2477 730 
Q 2766 1069 2766 1631 
L 2766 1759 
L 2194 1759 
z
M 3341 1997 
L 3341 0 
L 2766 0 
L 2766 531 
Q 2569 213 2275 61 
Q 1981 -91 1556 -91 
Q 1019 -91 701 211 
Q 384 513 384 1019 
Q 384 1609 779 1909 
Q 1175 2209 1959 2209 
L 2766 2209 
L 2766 2266 
Q 2766 2663 2505 2880 
Q 2244 3097 1772 3097 
Q 1472 3097 1187 3025 
Q 903 2953 641 2809 
L 641 3341 
Q 956 3463 1253 3523 
Q 1550 3584 1831 3584 
Q 2591 3584 2966 3190 
Q 3341 2797 3341 1997 
z
" transform="scale(0.015625)"/>
       <path id="DejaVuSans-67" d="M 2906 1791 
Q 2906 2416 2648 2759 
Q 2391 3103 1925 3103 
Q 1463 3103 1205 2759 
Q 947 2416 947 1791 
Q 947 1169 1205 825 
Q 1463 481 1925 481 
Q 2391 481 2648 825 
Q 2906 1169 2906 1791 
z
M 3481 434 
Q 3481 -459 3084 -895 
Q 2688 -1331 1869 -1331 
Q 1566 -1331 1297 -1286 
Q 1028 -1241 775 -1147 
L 775 -588 
Q 1028 -725 1275 -790 
Q 1522 -856 1778 -856 
Q 2344 -856 2625 -561 
Q 2906 -266 2906 331 
L 2906 616 
Q 2728 306 2450 153 
Q 2172 0 1784 0 
Q 1141 0 747 490 
Q 353 981 353 1791 
Q 353 2603 747 3093 
Q 1141 3584 1784 3584 
Q 2172 3584 2450 3431 
Q 2728 3278 2906 2969 
L 2906 3500 
L 3481 3500 
L 3481 434 
z
" transform="scale(0.015625)"/>
      </defs>
      <use xlink:href="#DejaVuSans-43"/>
      <use xlink:href="#DejaVuSans-6f" transform="translate(69.824219 0)"/>
      <use xlink:href="#DejaVuSans-6e" transform="translate(131.005859 0)"/>
      <use xlink:href="#DejaVuSans-6e" transform="translate(194.384766 0)"/>
      <use xlink:href="#DejaVuSans-65" transform="translate(257.763672 0)"/>
      <use xlink:href="#DejaVuSans-63" transform="translate(319.287109 0)"/>
      <use xlink:href="#DejaVuSans-74" transform="translate(374.267578 0)"/>
      <use xlink:href="#DejaVuSans-69" transform="translate(413.476562 0)"/>
      <use xlink:href="#DejaVuSans-76" transform="translate(441.259766 0)"/>
      <use xlink:href="#DejaVuSans-69" transform="translate(500.439453 0)"/>
      <use xlink:href="#DejaVuSans-74" transform="translate(528.222656 0)"/>
      <use xlink:href="#DejaVuSans-79" transform="translate(567.431641 0)"/>
      <use xlink:href="#DejaVuSans-20" transform="translate(626.611328 0)"/>
      <use xlink:href="#DejaVuSans-63" transform="translate(658.398438 0)"/>
      <use xlink:href="#DejaVuSans-61" transform="translate(713.378906 0)"/>
      <use xlink:href="#DejaVuSans-74" transform="translate(774.658203 0)"/>
      <use xlink:href="#DejaVuSans-65" transform="translate(813.867188 0)"/>
      <use xlink:href="#DejaVuSans-67" transform="translate(875.390625 0)"/>
      <use xlink:href="#DejaVuSans-6f" transform="translate(938.867188 0)"/>
      <use xlink:href="#DejaVuSans-72" transform="translate(1000.048828 0)"/>
      <use xlink:href="#DejaVuSans-79" transform="translate(1041.162109 0)"/>
     </g>
    </g>
   </g>
   <g id="matplotlib.axis_2">
    <g id="ytick_1">
     <g id="line2d_5">
      <defs>
       <path id="mc7abd8bb3b" d="M 0 0 
L -3.5 0 
" style="stroke: #000000; stroke-width: 0.8"/>
      </defs>
      <g>
       <use xlink:href="#mc7abd8bb3b" x="90" y="301.702524" style="stroke: #000000; stroke-width: 0.8"/>
      </g>
     </g>
     <g id="text_6">
      <!-- −10 -->
      <g transform="translate(61.895313 305.501743) scale(0.1 -0.1)">
       <defs>
        <path id="DejaVuSans-2212" d="M 678 2272 
L 4684 2272 
L 4684 1741 
L 678 1741 
L 678 2272 
z
" transform="scale(0.015625)"/>
        <path id="DejaVuSans-31" d="M 794 531 
L 1825 531 
L 1825 4091 
L 703 3866 
L 703 4441 
L 1819 4666 
L 2450 4666 
L 2450 531 
L 3481 531 
L 3481 0 
L 794 0 
L 794 531 
z
" transform="scale(0.015625)"/>
        <path id="DejaVuSans-30" d="M 2034 4250 
Q 1547 4250 1301 3770 
Q 1056 3291 1056 2328 
Q 1056 1369 1301 889 
Q 1547 409 2034 409 
Q 2525 409 2770 889 
Q 3016 1369 3016 2328 
Q 3016 3291 2770 3770 
Q 2525 4250 2034 4250 
z
M 2034 4750 
Q 2819 4750 3233 4129 
Q 3647 3509 3647 2328 
Q 3647 1150 3233 529 
Q 2819 -91 2034 -91 
Q 1250 -91 836 529 
Q 422 1150 422 2328 
Q 422 3509 836 4129 
Q 1250 4750 2034 4750 
z
" transform="scale(0.015625)"/>
       </defs>
       <use xlink:href="#DejaVuSans-2212"/>
       <use xlink:href="#DejaVuSans-31" transform="translate(83.789062 0)"/>
       <use xlink:href="#DejaVuSans-30" transform="translate(147.412109 0)"/>
      </g>
     </g>
    </g>
    <g id="ytick_2">
     <g id="line2d_6">
      <g>
       <use xlink:href="#mc7abd8bb3b" x="90" y="267.907037" style="stroke: #000000; stroke-width: 0.8"/>
      </g>
     </g>
     <g id="text_7">
      <!-- 0 -->
      <g transform="translate(76.6375 271.706256) scale(0.1 -0.1)">
       <use xlink:href="#DejaVuSans-30"/>
      </g>
     </g>
    </g>
    <g id="ytick_3">
     <g id="line2d_7">
      <g>
       <use xlink:href="#mc7abd8bb3b" x="90" y="234.11155" style="stroke: #000000; stroke-width: 0.8"/>
      </g>
     </g>
     <g id="text_8">
      <!-- 10 -->
      <g transform="translate(70.275 237.910769) scale(0.1 -0.1)">
       <use xlink:href="#DejaVuSans-31"/>
       <use xlink:href="#DejaVuSans-30" transform="translate(63.623047 0)"/>
      </g>
     </g>
    </g>
    <g id="ytick_4">
     <g id="line2d_8">
      <g>
       <use xlink:href="#mc7abd8bb3b" x="90" y="200.316063" style="stroke: #000000; stroke-width: 0.8"/>
      </g>
     </g>
     <g id="text_9">
      <!-- 20 -->
      <g transform="translate(70.275 204.115282) scale(0.1 -0.1)">
       <defs>
        <path id="DejaVuSans-32" d="M 1228 531 
L 3431 531 
L 3431 0 
L 469 0 
L 469 531 
Q 828 903 1448 1529 
Q 2069 2156 2228 2338 
Q 2531 2678 2651 2914 
Q 2772 3150 2772 3378 
Q 2772 3750 2511 3984 
Q 2250 4219 1831 4219 
Q 1534 4219 1204 4116 
Q 875 4013 500 3803 
L 500 4441 
Q 881 4594 1212 4672 
Q 1544 4750 1819 4750 
Q 2544 4750 2975 4387 
Q 3406 4025 3406 3419 
Q 3406 3131 3298 2873 
Q 3191 2616 2906 2266 
Q 2828 2175 2409 1742 
Q 1991 1309 1228 531 
z
" transform="scale(0.015625)"/>
       </defs>
       <use xlink:href="#DejaVuSans-32"/>
       <use xlink:href="#DejaVuSans-30" transform="translate(63.623047 0)"/>
      </g>
     </g>
    </g>
    <g id="ytick_5">
     <g id="line2d_9">
      <g>
       <use xlink:href="#mc7abd8bb3b" x="90" y="166.520576" style="stroke: #000000; stroke-width: 0.8"/>
      </g>
     </g>
     <g id="text_10">
      <!-- 30 -->
      <g transform="translate(70.275 170.319795) scale(0.1 -0.1)">
       <defs>
        <path id="DejaVuSans-33" d="M 2597 2516 
Q 3050 2419 3304 2112 
Q 3559 1806 3559 1356 
Q 3559 666 3084 287 
Q 2609 -91 1734 -91 
Q 1441 -91 1130 -33 
Q 819 25 488 141 
L 488 750 
Q 750 597 1062 519 
Q 1375 441 1716 441 
Q 2309 441 2620 675 
Q 2931 909 2931 1356 
Q 2931 1769 2642 2001 
Q 2353 2234 1838 2234 
L 1294 2234 
L 1294 2753 
L 1863 2753 
Q 2328 2753 2575 2939 
Q 2822 3125 2822 3475 
Q 2822 3834 2567 4026 
Q 2313 4219 1838 4219 
Q 1578 4219 1281 4162 
Q 984 4106 628 3988 
L 628 4550 
Q 988 4650 1302 4700 
Q 1616 4750 1894 4750 
Q 2613 4750 3031 4423 
Q 3450 4097 3450 3541 
Q 3450 3153 3228 2886 
Q 3006 2619 2597 2516 
z
" transform="scale(0.015625)"/>
       </defs>
       <use xlink:href="#DejaVuSans-33"/>
       <use xlink:href="#DejaVuSans-30" transform="translate(63.623047 0)"/>
      </g>
     </g>
    </g>
    <g id="ytick_6">
     <g id="line2d_10">
      <g>
       <use xlink:href="#mc7abd8bb3b" x="90" y="132.725089" style="stroke: #000000; stroke-width: 0.8"/>
      </g>
     </g>
     <g id="text_11">
      <!-- 40 -->
      <g transform="translate(70.275 136.524308) scale(0.1 -0.1)">
       <defs>
        <path id="DejaVuSans-34" d="M 2419 4116 
L 825 1625 
L 2419 1625 
L 2419 4116 
z
M 2253 4666 
L 3047 4666 
L 3047 1625 
L 3713 1625 
L 3713 1100 
L 3047 1100 
L 3047 0 
L 2419 0 
L 2419 1100 
L 313 1100 
L 313 1709 
L 2253 4666 
z
" transform="scale(0.015625)"/>
       </defs>
       <use xlink:href="#DejaVuSans-34"/>
       <use xlink:href="#DejaVuSans-30" transform="translate(63.623047 0)"/>
      </g>
     </g>
    </g>
    <g id="ytick_7">
     <g id="line2d_11">
      <g>
       <use xlink:href="#mc7abd8bb3b" x="90" y="98.929602" style="stroke: #000000; stroke-width: 0.8"/>
      </g>
     </g>
     <g id="text_12">
      <!-- 50 -->
      <g transform="translate(70.275 102.728821) scale(0.1 -0.1)">
       <defs>
        <path id="DejaVuSans-35" d="M 691 4666 
L 3169 4666 
L 3169 4134 
L 1269 4134 
L 1269 2991 
Q 1406 3038 1543 3061 
Q 1681 3084 1819 3084 
Q 2600 3084 3056 2656 
Q 3513 2228 3513 1497 
Q 3513 744 3044 326 
Q 2575 -91 1722 -91 
Q 1428 -91 1123 -41 
Q 819 9 494 109 
L 494 744 
Q 775 591 1075 516 
Q 1375 441 1709 441 
Q 2250 441 2565 725 
Q 2881 1009 2881 1497 
Q 2881 1984 2565 2268 
Q 2250 2553 1709 2553 
Q 1456 2553 1204 2497 
Q 953 2441 691 2322 
L 691 4666 
z
" transform="scale(0.015625)"/>
       </defs>
       <use xlink:href="#DejaVuSans-35"/>
       <use xlink:href="#DejaVuSans-30" transform="translate(63.623047 0)"/>
      </g>
     </g>
    </g>
    <g id="ytick_8">
     <g id="line2d_12">
      <g>
       <use xlink:href="#mc7abd8bb3b" x="90" y="65.134115" style="stroke: #000000; stroke-width: 0.8"/>
      </g>
     </g>
     <g id="text_13">
      <!-- 60 -->
      <g transform="translate(70.275 68.933334) scale(0.1 -0.1)">
       <defs>
        <path id="DejaVuSans-36" d="M 2113 2584 
Q 1688 2584 1439 2293 
Q 1191 2003 1191 1497 
Q 1191 994 1439 701 
Q 1688 409 2113 409 
Q 2538 409 2786 701 
Q 3034 994 3034 1497 
Q 3034 2003 2786 2293 
Q 2538 2584 2113 2584 
z
M 3366 4563 
L 3366 3988 
Q 3128 4100 2886 4159 
Q 2644 4219 2406 4219 
Q 1781 4219 1451 3797 
Q 1122 3375 1075 2522 
Q 1259 2794 1537 2939 
Q 1816 3084 2150 3084 
Q 2853 3084 3261 2657 
Q 3669 2231 3669 1497 
Q 3669 778 3244 343 
Q 2819 -91 2113 -91 
Q 1303 -91 875 529 
Q 447 1150 447 2328 
Q 447 3434 972 4092 
Q 1497 4750 2381 4750 
Q 2619 4750 2861 4703 
Q 3103 4656 3366 4563 
z
" transform="scale(0.015625)"/>
       </defs>
       <use xlink:href="#DejaVuSans-36"/>
       <use xlink:href="#DejaVuSans-30" transform="translate(63.623047 0)"/>
      </g>
     </g>
    </g>
    <g id="text_14">
     <!-- cont_variable -->
     <g transform="translate(55.5375 215.409375) rotate(-90) scale(0.1 -0.1)">
      <defs>
       <path id="DejaVuSans-5f" d="M 3263 -1063 
L 3263 -1509 
L -63 -1509 
L -63 -1063 
L 3263 -1063 
z
" transform="scale(0.015625)"/>
       <path id="DejaVuSans-62" d="M 3116 1747 
Q 3116 2381 2855 2742 
Q 2594 3103 2138 3103 
Q 1681 3103 1420 2742 
Q 1159 2381 1159 1747 
Q 1159 1113 1420 752 
Q 1681 391 2138 391 
Q 2594 391 2855 752 
Q 3116 1113 3116 1747 
z
M 1159 2969 
Q 1341 3281 1617 3432 
Q 1894 3584 2278 3584 
Q 2916 3584 3314 3078 
Q 3713 2572 3713 1747 
Q 3713 922 3314 415 
Q 2916 -91 2278 -91 
Q 1894 -91 1617 61 
Q 1341 213 1159 525 
L 1159 0 
L 581 0 
L 581 4863 
L 1159 4863 
L 1159 2969 
z
" transform="scale(0.015625)"/>
       <path id="DejaVuSans-6c" d="M 603 4863 
L 1178 4863 
L 1178 0 
L 603 0 
L 603 4863 
z
" transform="scale(0.015625)"/>
      </defs>
      <use xlink:href="#DejaVuSans-63"/>
      <use xlink:href="#DejaVuSans-6f" transform="translate(54.980469 0)"/>
      <use xlink:href="#DejaVuSans-6e" transform="translate(116.162109 0)"/>
      <use xlink:href="#DejaVuSans-74" transform="translate(179.541016 0)"/>
      <use xlink:href="#DejaVuSans-5f" transform="translate(218.75 0)"/>
      <use xlink:href="#DejaVuSans-76" transform="translate(268.75 0)"/>
      <use xlink:href="#DejaVuSans-61" transform="translate(327.929688 0)"/>
      <use xlink:href="#DejaVuSans-72" transform="translate(389.208984 0)"/>
      <use xlink:href="#DejaVuSans-69" transform="translate(430.322266 0)"/>
      <use xlink:href="#DejaVuSans-61" transform="translate(458.105469 0)"/>
      <use xlink:href="#DejaVuSans-62" transform="translate(519.384766 0)"/>
      <use xlink:href="#DejaVuSans-6c" transform="translate(582.861328 0)"/>
      <use xlink:href="#DejaVuSans-65" transform="translate(610.644531 0)"/>
     </g>
    </g>
   </g>
   <g id="patch_3">
    <path d="M 90 320.4 
L 90 43.2 
" style="fill: none; stroke: #000000; stroke-width: 0.8; stroke-linejoin: miter; stroke-linecap: square"/>
   </g>
   <g id="patch_4">
    <path d="M 648 320.4 
L 648 43.2 
" style="fill: none; stroke: #000000; stroke-width: 0.8; stroke-linejoin: miter; stroke-linecap: square"/>
   </g>
   <g id="patch_5">
    <path d="M 90 320.4 
L 648 320.4 
" style="fill: none; stroke: #000000; stroke-width: 0.8; stroke-linejoin: miter; stroke-linecap: square"/>
   </g>
   <g id="patch_6">
    <path d="M 90 43.2 
L 648 43.2 
" style="fill: none; stroke: #000000; stroke-width: 0.8; stroke-linejoin: miter; stroke-linecap: square"/>
   </g>
   <g id="PathCollection_1">
    <defs>
     <path id="m153392dff9" d="M 0 2.5 
C 0.663008 2.5 1.29895 2.236584 1.767767 1.767767 
C 2.236584 1.29895 2.5 0.663008 2.5 0 
C 2.5 -0.663008 2.236584 -1.29895 1.767767 -1.767767 
C 1.29895 -2.236584 0.663008 -2.5 0 -2.5 
C -0.663008 -2.5 -1.29895 -2.236584 -1.767767 -1.767767 
C -2.236584 -1.29895 -2.5 -0.663008 -2.5 0 
C -2.5 0.663008 -2.236584 1.29895 -1.767767 1.767767 
C -1.29895 2.236584 -0.663008 2.5 0 2.5 
z
"/>
    </defs>
    <g clip-path="url(#p86ab8a3f88)">
     <use xlink:href="#m153392dff9" x="155.670484" y="214.087538" style="fill-opacity: 0.3"/>
     <use xlink:href="#m153392dff9" x="157.786268" y="225.175179" style="fill-opacity: 0.3"/>
     <use xlink:href="#m153392dff9" x="168.372814" y="161.756734" style="fill-opacity: 0.3"/>
     <use xlink:href="#m153392dff9" x="153.811204" y="197.231864" style="fill-opacity: 0.3"/>
     <use xlink:href="#m153392dff9" x="162.442528" y="205.323872" style="fill-opacity: 0.3"/>
     <use xlink:href="#m153392dff9" x="163.528154" y="176.471556" style="fill-opacity: 0.3"/>
     <use xlink:href="#m153392dff9" x="168.258899" y="205.595365" style="fill-opacity: 0.3"/>
     <use xlink:href="#m153392dff9" x="152.821753" y="158.971543" style="fill-opacity: 0.3"/>
     <use xlink:href="#m153392dff9" x="168.805748" y="152.47257" style="fill-opacity: 0.3"/>
     <use xlink:href="#m153392dff9" x="147.034036" y="148.247275" style="fill-opacity: 0.3"/>
     <use xlink:href="#m153392dff9" x="166.985735" y="233.469899" style="fill-opacity: 0.3"/>
     <use xlink:href="#m153392dff9" x="153.639742" y="96.010128" style="fill-opacity: 0.3"/>
     <use xlink:href="#m153392dff9" x="166.995384" y="98.971191" style="fill-opacity: 0.3"/>
     <use xlink:href="#m153392dff9" x="173.013753" y="95.854058" style="fill-opacity: 0.3"/>
     <use xlink:href="#m153392dff9" x="173.238541" y="113.370086" style="fill-opacity: 0.3"/>
     <use xlink:href="#m153392dff9" x="166.510139" y="96.124557" style="fill-opacity: 0.3"/>
     <use xlink:href="#m153392dff9" x="150.459142" y="140.044766" style="fill-opacity: 0.3"/>
     <use xlink:href="#m153392dff9" x="171.066336" y="220.784658" style="fill-opacity: 0.3"/>
     <use xlink:href="#m153392dff9" x="169.763185" y="229.115106" style="fill-opacity: 0.3"/>
     <use xlink:href="#m153392dff9" x="164.495084" y="210.620486" style="fill-opacity: 0.3"/>
     <use xlink:href="#m153392dff9" x="149.975966" y="212.271768" style="fill-opacity: 0.3"/>
     <use xlink:href="#m153392dff9" x="172.230025" y="188.755982" style="fill-opacity: 0.3"/>
     <use xlink:href="#m153392dff9" x="167.758625" y="179.213556" style="fill-opacity: 0.3"/>
     <use xlink:href="#m153392dff9" x="161.143983" y="162.007865" style="fill-opacity: 0.3"/>
     <use xlink:href="#m153392dff9" x="152.231516" y="148.566454" style="fill-opacity: 0.3"/>
     <use xlink:href="#m153392dff9" x="165.062642" y="107.652893" style="fill-opacity: 0.3"/>
     <use xlink:href="#m153392dff9" x="169.834235" y="135.252299" style="fill-opacity: 0.3"/>
     <use xlink:href="#m153392dff9" x="156.818533" y="124.715559" style="fill-opacity: 0.3"/>
     <use xlink:href="#m153392dff9" x="156.445237" y="147.679795" style="fill-opacity: 0.3"/>
     <use xlink:href="#m153392dff9" x="153.019462" y="206.269213" style="fill-opacity: 0.3"/>
     <use xlink:href="#m153392dff9" x="161.354903" y="203.426015" style="fill-opacity: 0.3"/>
     <use xlink:href="#m153392dff9" x="147.908567" y="227.935445" style="fill-opacity: 0.3"/>
     <use xlink:href="#m153392dff9" x="151.622556" y="246.417428" style="fill-opacity: 0.3"/>
     <use xlink:href="#m153392dff9" x="152.105547" y="230.057481" style="fill-opacity: 0.3"/>
     <use xlink:href="#m153392dff9" x="162.133763" y="230.236006" style="fill-opacity: 0.3"/>
     <use xlink:href="#m153392dff9" x="169.185532" y="205.793791" style="fill-opacity: 0.3"/>
     <use xlink:href="#m153392dff9" x="173.344141" y="214.889059" style="fill-opacity: 0.3"/>
     <use xlink:href="#m153392dff9" x="152.96335" y="231.707056" style="fill-opacity: 0.3"/>
     <use xlink:href="#m153392dff9" x="153.062205" y="267.907037" style="fill-opacity: 0.3"/>
     <use xlink:href="#m153392dff9" x="146.552271" y="138.328449" style="fill-opacity: 0.3"/>
     <use xlink:href="#m153392dff9" x="149.641894" y="111.369204" style="fill-opacity: 0.3"/>
     <use xlink:href="#m153392dff9" x="148.882048" y="173.209521" style="fill-opacity: 0.3"/>
     <use xlink:href="#m153392dff9" x="171.910446" y="148.897595" style="fill-opacity: 0.3"/>
     <use xlink:href="#m153392dff9" x="152.482337" y="144.246731" style="fill-opacity: 0.3"/>
     <use xlink:href="#m153392dff9" x="155.206123" y="120.968383" style="fill-opacity: 0.3"/>
     <use xlink:href="#m153392dff9" x="171.971195" y="242.142696" style="fill-opacity: 0.3"/>
     <use xlink:href="#m153392dff9" x="164.311866" y="135.641522" style="fill-opacity: 0.3"/>
     <use xlink:href="#m153392dff9" x="158.490325" y="171.779218" style="fill-opacity: 0.3"/>
     <use xlink:href="#m153392dff9" x="165.015741" y="136.537862" style="fill-opacity: 0.3"/>
     <use xlink:href="#m153392dff9" x="151.54584" y="170.988857" style="fill-opacity: 0.3"/>
     <use xlink:href="#m153392dff9" x="167.536832" y="108.156818" style="fill-opacity: 0.3"/>
     <use xlink:href="#m153392dff9" x="170.438423" y="177.145573" style="fill-opacity: 0.3"/>
     <use xlink:href="#m153392dff9" x="169.576259" y="179.880362" style="fill-opacity: 0.3"/>
     <use xlink:href="#m153392dff9" x="167.697245" y="152.820291" style="fill-opacity: 0.3"/>
     <use xlink:href="#m153392dff9" x="150.75185" y="181.639586" style="fill-opacity: 0.3"/>
     <use xlink:href="#m153392dff9" x="173.212852" y="151.261427" style="fill-opacity: 0.3"/>
     <use xlink:href="#m153392dff9" x="148.481469" y="181.100271" style="fill-opacity: 0.3"/>
    </g>
   </g>
   <g id="PathCollection_2">
    <g clip-path="url(#p86ab8a3f88)">
     <use xlink:href="#m153392dff9" x="308.294319" y="223.586372" style="fill-opacity: 0.3"/>
     <use xlink:href="#m153392dff9" x="304.446029" y="167.811152" style="fill-opacity: 0.3"/>
     <use xlink:href="#m153392dff9" x="297.839059" y="132.668364" style="fill-opacity: 0.3"/>
     <use xlink:href="#m153392dff9" x="286.525267" y="184.186356" style="fill-opacity: 0.3"/>
     <use xlink:href="#m153392dff9" x="306.997283" y="172.473746" style="fill-opacity: 0.3"/>
     <use xlink:href="#m153392dff9" x="300.690137" y="217.367218" style="fill-opacity: 0.3"/>
     <use xlink:href="#m153392dff9" x="292.232654" y="161.062149" style="fill-opacity: 0.3"/>
     <use xlink:href="#m153392dff9" x="305.949482" y="207.116783" style="fill-opacity: 0.3"/>
     <use xlink:href="#m153392dff9" x="298.100613" y="184.467298" style="fill-opacity: 0.3"/>
     <use xlink:href="#m153392dff9" x="298.723168" y="176.117792" style="fill-opacity: 0.3"/>
     <use xlink:href="#m153392dff9" x="286.743712" y="242.591791" style="fill-opacity: 0.3"/>
     <use xlink:href="#m153392dff9" x="312.618821" y="182.12574" style="fill-opacity: 0.3"/>
     <use xlink:href="#m153392dff9" x="312.576275" y="181.437904" style="fill-opacity: 0.3"/>
     <use xlink:href="#m153392dff9" x="310.49159" y="187.070081" style="fill-opacity: 0.3"/>
     <use xlink:href="#m153392dff9" x="313.135887" y="184.93863" style="fill-opacity: 0.3"/>
     <use xlink:href="#m153392dff9" x="295.666747" y="171.141035" style="fill-opacity: 0.3"/>
     <use xlink:href="#m153392dff9" x="287.074461" y="170.186177" style="fill-opacity: 0.3"/>
     <use xlink:href="#m153392dff9" x="311.116019" y="162.350112" style="fill-opacity: 0.3"/>
     <use xlink:href="#m153392dff9" x="289.772584" y="184.383837" style="fill-opacity: 0.3"/>
     <use xlink:href="#m153392dff9" x="288.433017" y="186.137484" style="fill-opacity: 0.3"/>
     <use xlink:href="#m153392dff9" x="298.033446" y="215.003464" style="fill-opacity: 0.3"/>
     <use xlink:href="#m153392dff9" x="286.318052" y="214.79829" style="fill-opacity: 0.3"/>
     <use xlink:href="#m153392dff9" x="293.130235" y="225.329411" style="fill-opacity: 0.3"/>
     <use xlink:href="#m153392dff9" x="290.24752" y="213.428232" style="fill-opacity: 0.3"/>
     <use xlink:href="#m153392dff9" x="298.845588" y="147.152991" style="fill-opacity: 0.3"/>
     <use xlink:href="#m153392dff9" x="286.735709" y="157.377748" style="fill-opacity: 0.3"/>
     <use xlink:href="#m153392dff9" x="300.390845" y="154.686444" style="fill-opacity: 0.3"/>
     <use xlink:href="#m153392dff9" x="299.597117" y="146.257093" style="fill-opacity: 0.3"/>
     <use xlink:href="#m153392dff9" x="304.594328" y="158.176244" style="fill-opacity: 0.3"/>
     <use xlink:href="#m153392dff9" x="291.592554" y="133.080652" style="fill-opacity: 0.3"/>
     <use xlink:href="#m153392dff9" x="294.159951" y="139.486113" style="fill-opacity: 0.3"/>
     <use xlink:href="#m153392dff9" x="313.157775" y="140.332116" style="fill-opacity: 0.3"/>
     <use xlink:href="#m153392dff9" x="307.173907" y="116.183449" style="fill-opacity: 0.3"/>
     <use xlink:href="#m153392dff9" x="305.390648" y="164.864993" style="fill-opacity: 0.3"/>
     <use xlink:href="#m153392dff9" x="298.107738" y="155.595867" style="fill-opacity: 0.3"/>
     <use xlink:href="#m153392dff9" x="301.06211" y="140.871998" style="fill-opacity: 0.3"/>
     <use xlink:href="#m153392dff9" x="311.804425" y="140.650604" style="fill-opacity: 0.3"/>
     <use xlink:href="#m153392dff9" x="293.871036" y="126.208464" style="fill-opacity: 0.3"/>
     <use xlink:href="#m153392dff9" x="311.418523" y="132.521843" style="fill-opacity: 0.3"/>
     <use xlink:href="#m153392dff9" x="303.27646" y="201.643736" style="fill-opacity: 0.3"/>
     <use xlink:href="#m153392dff9" x="294.065003" y="212.448907" style="fill-opacity: 0.3"/>
     <use xlink:href="#m153392dff9" x="287.88494" y="220.562419" style="fill-opacity: 0.3"/>
     <use xlink:href="#m153392dff9" x="307.250035" y="95.746824" style="fill-opacity: 0.3"/>
     <use xlink:href="#m153392dff9" x="303.25069" y="102.397178" style="fill-opacity: 0.3"/>
     <use xlink:href="#m153392dff9" x="311.874846" y="166.904273" style="fill-opacity: 0.3"/>
     <use xlink:href="#m153392dff9" x="292.682458" y="178.535835" style="fill-opacity: 0.3"/>
     <use xlink:href="#m153392dff9" x="312.915343" y="181.984688" style="fill-opacity: 0.3"/>
     <use xlink:href="#m153392dff9" x="296.022174" y="163.893721" style="fill-opacity: 0.3"/>
     <use xlink:href="#m153392dff9" x="292.069277" y="157.208679" style="fill-opacity: 0.3"/>
     <use xlink:href="#m153392dff9" x="296.966367" y="162.447061" style="fill-opacity: 0.3"/>
     <use xlink:href="#m153392dff9" x="313.100241" y="160.73391" style="fill-opacity: 0.3"/>
     <use xlink:href="#m153392dff9" x="306.661072" y="163.104106" style="fill-opacity: 0.3"/>
     <use xlink:href="#m153392dff9" x="305.098205" y="160.918829" style="fill-opacity: 0.3"/>
     <use xlink:href="#m153392dff9" x="310.776004" y="138.81997" style="fill-opacity: 0.3"/>
     <use xlink:href="#m153392dff9" x="309.949482" y="138.336739" style="fill-opacity: 0.3"/>
     <use xlink:href="#m153392dff9" x="305.801964" y="157.242904" style="fill-opacity: 0.3"/>
     <use xlink:href="#m153392dff9" x="306.069057" y="159.977594" style="fill-opacity: 0.3"/>
     <use xlink:href="#m153392dff9" x="286.740285" y="144.974341" style="fill-opacity: 0.3"/>
     <use xlink:href="#m153392dff9" x="300.070812" y="155.273185" style="fill-opacity: 0.3"/>
     <use xlink:href="#m153392dff9" x="291.872602" y="146.948552" style="fill-opacity: 0.3"/>
     <use xlink:href="#m153392dff9" x="290.458478" y="214.040505" style="fill-opacity: 0.3"/>
     <use xlink:href="#m153392dff9" x="302.525691" y="214.527096" style="fill-opacity: 0.3"/>
     <use xlink:href="#m153392dff9" x="300.491362" y="228.002763" style="fill-opacity: 0.3"/>
     <use xlink:href="#m153392dff9" x="310.510163" y="229.947058" style="fill-opacity: 0.3"/>
     <use xlink:href="#m153392dff9" x="299.851932" y="202.401235" style="fill-opacity: 0.3"/>
     <use xlink:href="#m153392dff9" x="298.317012" y="224.91129" style="fill-opacity: 0.3"/>
     <use xlink:href="#m153392dff9" x="289.9612" y="194.115612" style="fill-opacity: 0.3"/>
     <use xlink:href="#m153392dff9" x="287.522704" y="190.511442" style="fill-opacity: 0.3"/>
     <use xlink:href="#m153392dff9" x="289.825652" y="194.260216" style="fill-opacity: 0.3"/>
     <use xlink:href="#m153392dff9" x="295.772346" y="191.011416" style="fill-opacity: 0.3"/>
     <use xlink:href="#m153392dff9" x="291.959462" y="195.151978" style="fill-opacity: 0.3"/>
     <use xlink:href="#m153392dff9" x="296.497501" y="181.939051" style="fill-opacity: 0.3"/>
     <use xlink:href="#m153392dff9" x="304.911679" y="184.103726" style="fill-opacity: 0.3"/>
     <use xlink:href="#m153392dff9" x="291.210401" y="201.197615" style="fill-opacity: 0.3"/>
     <use xlink:href="#m153392dff9" x="297.566365" y="204.398876" style="fill-opacity: 0.3"/>
     <use xlink:href="#m153392dff9" x="287.797264" y="192.683542" style="fill-opacity: 0.3"/>
     <use xlink:href="#m153392dff9" x="289.810892" y="196.560276" style="fill-opacity: 0.3"/>
     <use xlink:href="#m153392dff9" x="303.210351" y="188.152956" style="fill-opacity: 0.3"/>
     <use xlink:href="#m153392dff9" x="312.364319" y="122.533452" style="fill-opacity: 0.3"/>
     <use xlink:href="#m153392dff9" x="308.738217" y="168.22124" style="fill-opacity: 0.3"/>
     <use xlink:href="#m153392dff9" x="287.882143" y="143.583221" style="fill-opacity: 0.3"/>
     <use xlink:href="#m153392dff9" x="308.553452" y="136.61424" style="fill-opacity: 0.3"/>
     <use xlink:href="#m153392dff9" x="289.244699" y="134.103878" style="fill-opacity: 0.3"/>
     <use xlink:href="#m153392dff9" x="307.933833" y="142.774201" style="fill-opacity: 0.3"/>
     <use xlink:href="#m153392dff9" x="304.708299" y="141.9958" style="fill-opacity: 0.3"/>
     <use xlink:href="#m153392dff9" x="285.584642" y="154.377297" style="fill-opacity: 0.3"/>
     <use xlink:href="#m153392dff9" x="296.588979" y="144.303018" style="fill-opacity: 0.3"/>
     <use xlink:href="#m153392dff9" x="303.751544" y="145.342296" style="fill-opacity: 0.3"/>
     <use xlink:href="#m153392dff9" x="307.350959" y="130.463732" style="fill-opacity: 0.3"/>
     <use xlink:href="#m153392dff9" x="294.616918" y="169.816424" style="fill-opacity: 0.3"/>
     <use xlink:href="#m153392dff9" x="287.878592" y="171.953208" style="fill-opacity: 0.3"/>
     <use xlink:href="#m153392dff9" x="305.640105" y="150.564926" style="fill-opacity: 0.3"/>
     <use xlink:href="#m153392dff9" x="312.29222" y="165.487465" style="fill-opacity: 0.3"/>
     <use xlink:href="#m153392dff9" x="300.337892" y="200.273589" style="fill-opacity: 0.3"/>
     <use xlink:href="#m153392dff9" x="291.512791" y="189.363838" style="fill-opacity: 0.3"/>
     <use xlink:href="#m153392dff9" x="307.582537" y="151.141129" style="fill-opacity: 0.3"/>
     <use xlink:href="#m153392dff9" x="310.465193" y="141.253982" style="fill-opacity: 0.3"/>
     <use xlink:href="#m153392dff9" x="296.716919" y="181.789925" style="fill-opacity: 0.3"/>
     <use xlink:href="#m153392dff9" x="287.336082" y="163.304182" style="fill-opacity: 0.3"/>
    </g>
   </g>
   <g id="PathCollection_3">
    <g clip-path="url(#p86ab8a3f88)">
     <use xlink:href="#m153392dff9" x="433.878446" y="215.299015" style="fill-opacity: 0.3"/>
     <use xlink:href="#m153392dff9" x="436.470813" y="217.449899" style="fill-opacity: 0.3"/>
     <use xlink:href="#m153392dff9" x="432.085612" y="171.867496" style="fill-opacity: 0.3"/>
     <use xlink:href="#m153392dff9" x="445.407906" y="182.878187" style="fill-opacity: 0.3"/>
     <use xlink:href="#m153392dff9" x="436.23456" y="210.326807" style="fill-opacity: 0.3"/>
     <use xlink:href="#m153392dff9" x="434.0077" y="182.472509" style="fill-opacity: 0.3"/>
     <use xlink:href="#m153392dff9" x="435.279716" y="164.761907" style="fill-opacity: 0.3"/>
     <use xlink:href="#m153392dff9" x="446.508376" y="175.809097" style="fill-opacity: 0.3"/>
     <use xlink:href="#m153392dff9" x="433.33107" y="208.703448" style="fill-opacity: 0.3"/>
     <use xlink:href="#m153392dff9" x="425.298831" y="188.772187" style="fill-opacity: 0.3"/>
     <use xlink:href="#m153392dff9" x="427.327559" y="175.100115" style="fill-opacity: 0.3"/>
     <use xlink:href="#m153392dff9" x="446.850135" y="154.071627" style="fill-opacity: 0.3"/>
     <use xlink:href="#m153392dff9" x="428.926244" y="166.908059" style="fill-opacity: 0.3"/>
     <use xlink:href="#m153392dff9" x="452.579143" y="211.918713" style="fill-opacity: 0.3"/>
     <use xlink:href="#m153392dff9" x="448.997543" y="132.620965" style="fill-opacity: 0.3"/>
     <use xlink:href="#m153392dff9" x="444.220198" y="124.932154" style="fill-opacity: 0.3"/>
     <use xlink:href="#m153392dff9" x="429.955192" y="126.534307" style="fill-opacity: 0.3"/>
     <use xlink:href="#m153392dff9" x="430.10456" y="136.844692" style="fill-opacity: 0.3"/>
     <use xlink:href="#m153392dff9" x="434.708615" y="166.097301" style="fill-opacity: 0.3"/>
     <use xlink:href="#m153392dff9" x="452.644343" y="148.269999" style="fill-opacity: 0.3"/>
     <use xlink:href="#m153392dff9" x="451.978553" y="94.697252" style="fill-opacity: 0.3"/>
     <use xlink:href="#m153392dff9" x="438.189885" y="219.258931" style="fill-opacity: 0.3"/>
     <use xlink:href="#m153392dff9" x="426.495754" y="176.706033" style="fill-opacity: 0.3"/>
     <use xlink:href="#m153392dff9" x="447.710851" y="181.500088" style="fill-opacity: 0.3"/>
     <use xlink:href="#m153392dff9" x="430.326869" y="172.450316" style="fill-opacity: 0.3"/>
     <use xlink:href="#m153392dff9" x="441.605275" y="167.711708" style="fill-opacity: 0.3"/>
     <use xlink:href="#m153392dff9" x="424.893668" y="175.617784" style="fill-opacity: 0.3"/>
     <use xlink:href="#m153392dff9" x="433.822888" y="164.230854" style="fill-opacity: 0.3"/>
     <use xlink:href="#m153392dff9" x="431.667245" y="160.790173" style="fill-opacity: 0.3"/>
     <use xlink:href="#m153392dff9" x="436.480362" y="168.174227" style="fill-opacity: 0.3"/>
     <use xlink:href="#m153392dff9" x="440.346466" y="160.022289" style="fill-opacity: 0.3"/>
     <use xlink:href="#m153392dff9" x="449.030356" y="116.300739" style="fill-opacity: 0.3"/>
     <use xlink:href="#m153392dff9" x="443.97624" y="150.984443" style="fill-opacity: 0.3"/>
     <use xlink:href="#m153392dff9" x="451.28465" y="146.038727" style="fill-opacity: 0.3"/>
     <use xlink:href="#m153392dff9" x="440.30829" y="237.893968" style="fill-opacity: 0.3"/>
     <use xlink:href="#m153392dff9" x="428.466609" y="160.66442" style="fill-opacity: 0.3"/>
     <use xlink:href="#m153392dff9" x="426.794438" y="211.868388" style="fill-opacity: 0.3"/>
     <use xlink:href="#m153392dff9" x="449.76927" y="197.693216" style="fill-opacity: 0.3"/>
     <use xlink:href="#m153392dff9" x="441.84556" y="186.332944" style="fill-opacity: 0.3"/>
     <use xlink:href="#m153392dff9" x="438.155523" y="210.242876" style="fill-opacity: 0.3"/>
     <use xlink:href="#m153392dff9" x="428.610332" y="196.336452" style="fill-opacity: 0.3"/>
     <use xlink:href="#m153392dff9" x="434.868249" y="185.891305" style="fill-opacity: 0.3"/>
     <use xlink:href="#m153392dff9" x="440.672729" y="158.547805" style="fill-opacity: 0.3"/>
     <use xlink:href="#m153392dff9" x="451.93864" y="151.908962" style="fill-opacity: 0.3"/>
     <use xlink:href="#m153392dff9" x="439.29235" y="149.337819" style="fill-opacity: 0.3"/>
     <use xlink:href="#m153392dff9" x="446.061628" y="168.069863" style="fill-opacity: 0.3"/>
     <use xlink:href="#m153392dff9" x="427.612599" y="134.755319" style="fill-opacity: 0.3"/>
     <use xlink:href="#m153392dff9" x="447.898183" y="196.430326" style="fill-opacity: 0.3"/>
    </g>
   </g>
   <g id="PathCollection_4">
    <g clip-path="url(#p86ab8a3f88)">
     <use xlink:href="#m153392dff9" x="574.328893" y="191.532292" style="fill-opacity: 0.3"/>
     <use xlink:href="#m153392dff9" x="586.198908" y="203.873082" style="fill-opacity: 0.3"/>
     <use xlink:href="#m153392dff9" x="565.322213" y="187.331854" style="fill-opacity: 0.3"/>
     <use xlink:href="#m153392dff9" x="570.702447" y="95.769745" style="fill-opacity: 0.3"/>
     <use xlink:href="#m153392dff9" x="574.972433" y="173.99015" style="fill-opacity: 0.3"/>
     <use xlink:href="#m153392dff9" x="584.852465" y="138.514685" style="fill-opacity: 0.3"/>
     <use xlink:href="#m153392dff9" x="585.569244" y="157.743686" style="fill-opacity: 0.3"/>
     <use xlink:href="#m153392dff9" x="574.388909" y="248.677334" style="fill-opacity: 0.3"/>
     <use xlink:href="#m153392dff9" x="569.20632" y="220.84538" style="fill-opacity: 0.3"/>
     <use xlink:href="#m153392dff9" x="564.991798" y="205.227291" style="fill-opacity: 0.3"/>
     <use xlink:href="#m153392dff9" x="584.122024" y="207.636676" style="fill-opacity: 0.3"/>
     <use xlink:href="#m153392dff9" x="574.592775" y="230.723725" style="fill-opacity: 0.3"/>
     <use xlink:href="#m153392dff9" x="589.345998" y="227.041835" style="fill-opacity: 0.3"/>
     <use xlink:href="#m153392dff9" x="573.49961" y="235.071346" style="fill-opacity: 0.3"/>
     <use xlink:href="#m153392dff9" x="575.734351" y="227.379716" style="fill-opacity: 0.3"/>
     <use xlink:href="#m153392dff9" x="574.711811" y="153.717257" style="fill-opacity: 0.3"/>
     <use xlink:href="#m153392dff9" x="589.817407" y="166.675421" style="fill-opacity: 0.3"/>
     <use xlink:href="#m153392dff9" x="591.168349" y="214.41961" style="fill-opacity: 0.3"/>
     <use xlink:href="#m153392dff9" x="568.338578" y="184.098092" style="fill-opacity: 0.3"/>
     <use xlink:href="#m153392dff9" x="572.875651" y="201.706295" style="fill-opacity: 0.3"/>
     <use xlink:href="#m153392dff9" x="570.026226" y="97.396142" style="fill-opacity: 0.3"/>
     <use xlink:href="#m153392dff9" x="566.045207" y="130.290959" style="fill-opacity: 0.3"/>
     <use xlink:href="#m153392dff9" x="576.65634" y="162.024989" style="fill-opacity: 0.3"/>
     <use xlink:href="#m153392dff9" x="573.842474" y="131.223353" style="fill-opacity: 0.3"/>
     <use xlink:href="#m153392dff9" x="567.646286" y="166.568147" style="fill-opacity: 0.3"/>
     <use xlink:href="#m153392dff9" x="582.882273" y="135.354828" style="fill-opacity: 0.3"/>
     <use xlink:href="#m153392dff9" x="588.050861" y="172.38338" style="fill-opacity: 0.3"/>
     <use xlink:href="#m153392dff9" x="585.683972" y="166.511539" style="fill-opacity: 0.3"/>
     <use xlink:href="#m153392dff9" x="578.634898" y="181.973093" style="fill-opacity: 0.3"/>
     <use xlink:href="#m153392dff9" x="589.932308" y="131.707734" style="fill-opacity: 0.3"/>
     <use xlink:href="#m153392dff9" x="570.037944" y="191.695091" style="fill-opacity: 0.3"/>
    </g>
   </g>
  </g>
 </g>
 <defs>
  <clipPath id="p86ab8a3f88">
   <rect x="90" y="43.2" width="558" height="277.2"/>
  </clipPath>
 </defs>
</svg>
