<?xml version="1.0" encoding="utf-8" standalone="no"?>
<!DOCTYPE svg PUBLIC "-//W3C//DTD SVG 1.1//EN"
  "http://www.w3.org/Graphics/SVG/1.1/DTD/svg11.dtd">
<svg xmlns:xlink="http://www.w3.org/1999/xlink" width="720pt" height="360pt" viewBox="0 0 720 360" xmlns="http://www.w3.org/2000/svg" version="1.1">
 <metadata>
  <rdf:RDF xmlns:dc="http://purl.org/dc/elements/1.1/" xmlns:cc="http://creativecommons.org/ns#" xmlns:rdf="http://www.w3.org/1999/02/22-rdf-syntax-ns#">
   <cc:Work>
    <dc:type rdf:resource="http://purl.org/dc/dcmitype/StillImage"/>
    <dc:date>2025-10-21T16:47:29.024969</dc:date>
    <dc:format>image/svg+xml</dc:format>
    <dc:creator>
     <cc:Agent>
      <dc:title>Matplotlib v3.10.3, https://matplotlib.org/</dc:title>
     </cc:Agent>
    </dc:creator>
   </cc:Work>
  </rdf:RDF>
 </metadata>
 <defs>
  <style type="text/css">*{stroke-linejoin: round; stroke-linecap: butt}</style>
 </defs>
 <g id="figure_1">
  <g id="patch_1">
   <path d="M 0 360 
L 720 360 
L 720 0 
L 0 0 
z
" style="fill: #ffffff"/>
  </g>
  <g id="axes_1">
   <g id="patch_2">
    <path d="M 90 320.4 
L 648 320.4 
L 648 43.2 
L 90 43.2 
z
" style="fill: #ffffff"/>
   </g>
   <g id="FillBetweenPolyCollection_1">
    <defs>
     <path id="mdb1d8762bb" d="M 160.259138 -89.926008 
L 159.240862 -89.926008 
L 159.033344 -90.845834 
L 158.753793 -91.765659 
L 158.382011 -92.685484 
L 157.893858 -93.60531 
L 157.261113 -94.525135 
L 156.451635 -95.44496 
L 155.429951 -96.364785 
L 154.158397 -97.284611 
L 152.598954 -98.204436 
L 150.715855 -99.124261 
L 148.478969 -100.044086 
L 145.867857 -100.963912 
L 142.876257 -101.883737 
L 139.516601 -102.803562 
L 135.824033 -103.723388 
L 131.85931 -104.643213 
L 127.709943 -105.563038 
L 123.489038 -106.482863 
L 119.331479 -107.402689 
L 115.387385 -108.322514 
L 111.813148 -109.242339 
L 108.760709 -110.162165 
L 106.366073 -111.08199 
L 104.738267 -112.001815 
L 103.95 -112.92164 
L 104.031156 -113.841466 
L 104.965954 -114.761291 
L 106.69417 -115.681116 
L 109.116294 -116.600941 
L 112.102051 -117.520767 
L 115.501257 -118.440592 
L 119.155778 -119.360417 
L 122.911266 -120.280243 
L 126.62749 -121.200068 
L 130.186328 -122.119893 
L 133.496866 -123.039718 
L 136.497468 -123.959544 
L 139.15502 -124.879369 
L 141.461882 -125.799194 
L 143.431229 -126.719019 
L 145.091551 -127.638845 
L 146.48102 -128.55867 
L 147.642312 -129.478495 
L 148.618292 -130.398321 
L 149.448799 -131.318146 
L 150.168567 -132.237971 
L 150.806208 -133.157796 
L 151.384053 -134.077622 
L 151.918642 -134.997447 
L 152.421594 -135.917272 
L 152.900649 -136.837098 
L 153.360699 -137.756923 
L 153.804679 -138.676748 
L 154.234246 -139.596573 
L 154.650219 -140.516399 
L 155.052804 -141.436224 
L 155.441631 -142.356049 
L 155.815675 -143.275874 
L 156.173123 -144.1957 
L 156.511229 -145.115525 
L 156.82624 -146.03535 
L 157.113387 -146.955176 
L 157.367006 -147.875001 
L 157.580764 -148.794826 
L 157.748002 -149.714651 
L 157.862192 -150.634477 
L 157.917464 -151.554302 
L 157.909193 -152.474127 
L 157.834604 -153.393952 
L 157.693348 -154.313778 
L 157.487993 -155.233603 
L 157.224382 -156.153428 
L 156.911786 -157.073254 
L 156.562805 -157.993079 
L 156.192986 -158.912904 
L 155.820145 -159.832729 
L 155.463403 -160.752555 
L 155.142024 -161.67238 
L 154.874121 -162.592205 
L 154.675364 -163.512031 
L 154.557827 -164.431856 
L 154.529083 -165.351681 
L 154.591665 -166.271506 
L 154.742955 -167.191332 
L 154.975504 -168.111157 
L 155.277755 -169.030982 
L 155.635076 -169.950807 
L 156.030991 -170.870633 
L 156.448465 -171.790458 
L 156.871122 -172.710283 
L 157.284271 -173.630109 
L 157.675668 -174.549934 
L 158.035971 -175.469759 
L 158.358892 -176.389584 
L 158.641079 -177.30941 
L 158.881776 -178.229235 
L 159.082351 -179.14906 
L 159.245753 -180.068885 
L 159.375969 -180.988711 
L 160.124031 -180.988711 
L 160.124031 -180.988711 
L 160.254247 -180.068885 
L 160.417649 -179.14906 
L 160.618224 -178.229235 
L 160.858921 -177.30941 
L 161.141108 -176.389584 
L 161.464029 -175.469759 
L 161.824332 -174.549934 
L 162.215729 -173.630109 
L 162.628878 -172.710283 
L 163.051535 -171.790458 
L 163.469009 -170.870633 
L 163.864924 -169.950807 
L 164.222245 -169.030982 
L 164.524496 -168.111157 
L 164.757045 -167.191332 
L 164.908335 -166.271506 
L 164.970917 -165.351681 
L 164.942173 -164.431856 
L 164.824636 -163.512031 
L 164.625879 -162.592205 
L 164.357976 -161.67238 
L 164.036597 -160.752555 
L 163.679855 -159.832729 
L 163.307014 -158.912904 
L 162.937195 -157.993079 
L 162.588214 -157.073254 
L 162.275618 -156.153428 
L 162.012007 -155.233603 
L 161.806652 -154.313778 
L 161.665396 -153.393952 
L 161.590807 -152.474127 
L 161.582536 -151.554302 
L 161.637808 -150.634477 
L 161.751998 -149.714651 
L 161.919236 -148.794826 
L 162.132994 -147.875001 
L 162.386613 -146.955176 
L 162.67376 -146.03535 
L 162.988771 -145.115525 
L 163.326877 -144.1957 
L 163.684325 -143.275874 
L 164.058369 -142.356049 
L 164.447196 -141.436224 
L 164.849781 -140.516399 
L 165.265754 -139.596573 
L 165.695321 -138.676748 
L 166.139301 -137.756923 
L 166.599351 -136.837098 
L 167.078406 -135.917272 
L 167.581358 -134.997447 
L 168.115947 -134.077622 
L 168.693792 -133.157796 
L 169.331433 -132.237971 
L 170.051201 -131.318146 
L 170.881708 -130.398321 
L 171.857688 -129.478495 
L 173.01898 -128.55867 
L 174.408449 -127.638845 
L 176.068771 -126.719019 
L 178.038118 -125.799194 
L 180.34498 -124.879369 
L 183.002532 -123.959544 
L 186.003134 -123.039718 
L 189.313672 -122.119893 
L 192.87251 -121.200068 
L 196.588734 -120.280243 
L 200.344222 -119.360417 
L 203.998743 -118.440592 
L 207.397949 -117.520767 
L 210.383706 -116.600941 
L 212.80583 -115.681116 
L 214.534046 -114.761291 
L 215.468844 -113.841466 
L 215.55 -112.92164 
L 214.761733 -112.001815 
L 213.133927 -111.08199 
L 210.739291 -110.162165 
L 207.686852 -109.242339 
L 204.112615 -108.322514 
L 200.168521 -107.402689 
L 196.010962 -106.482863 
L 191.790057 -105.563038 
L 187.64069 -104.643213 
L 183.675967 -103.723388 
L 179.983399 -102.803562 
L 176.623743 -101.883737 
L 173.632143 -100.963912 
L 171.021031 -100.044086 
L 168.784145 -99.124261 
L 166.901046 -98.204436 
L 165.341603 -97.284611 
L 164.070049 -96.364785 
L 163.048365 -95.44496 
L 162.238887 -94.525135 
L 161.606142 -93.60531 
L 161.117989 -92.685484 
L 160.746207 -91.765659 
L 160.466656 -90.845834 
L 160.259138 -89.926008 
z
" style="stroke: #3d3d3d; stroke-width: 1.25"/>
    </defs>
    <g clip-path="url(#pa983b05791)">
     <use xlink:href="#mdb1d8762bb" x="0" y="360" style="fill: #3274a1; stroke: #3d3d3d; stroke-width: 1.25"/>
    </g>
   </g>
   <g id="FillBetweenPolyCollection_2">
    <defs>
     <path id="m1d1d396592" d="M 299.361188 -67.664286 
L 299.138812 -67.664286 
L 299.060099 -69.356464 
L 298.950781 -71.048643 
L 298.814482 -72.740821 
L 298.663119 -74.433 
L 298.515032 -76.125178 
L 298.389215 -77.817357 
L 298.297634 -79.509535 
L 298.239404 -81.201714 
L 298.200033 -82.893892 
L 298.155824 -84.586071 
L 298.07984 -86.278249 
L 297.944264 -87.970427 
L 297.716106 -89.662606 
L 297.347367 -91.354784 
L 296.763973 -93.046963 
L 295.857656 -94.739141 
L 294.482666 -96.43132 
L 292.458097 -98.123498 
L 289.579524 -99.815677 
L 285.648869 -101.507855 
L 280.532668 -103.200034 
L 274.249131 -104.892212 
L 267.062764 -106.584391 
L 259.541939 -108.276569 
L 252.528154 -109.968748 
L 246.990666 -111.660926 
L 243.792871 -113.353105 
L 243.45 -115.045283 
L 245.976097 -116.737461 
L 250.88456 -118.42964 
L 257.338084 -120.121818 
L 264.381251 -121.813997 
L 271.166203 -123.506175 
L 277.103429 -125.198354 
L 281.913241 -126.890532 
L 285.591678 -128.582711 
L 288.323586 -130.274889 
L 290.377802 -131.967068 
L 292.013385 -133.659246 
L 293.416904 -135.351425 
L 294.679778 -137.043603 
L 295.812022 -138.735782 
L 296.777994 -140.42796 
L 297.535387 -142.120138 
L 298.062696 -143.812317 
L 298.369561 -145.504495 
L 298.492929 -147.196674 
L 298.485774 -148.888852 
L 298.40434 -150.581031 
L 298.297353 -152.273209 
L 298.199081 -153.965388 
L 298.127523 -155.657566 
L 298.08793 -157.349745 
L 298.079738 -159.041923 
L 298.103006 -160.734102 
L 298.160661 -162.42628 
L 298.255755 -164.118459 
L 298.386405 -165.810637 
L 298.542632 -167.502816 
L 298.707641 -169.194994 
L 298.862865 -170.887172 
L 298.993715 -172.579351 
L 299.093047 -174.271529 
L 299.161227 -175.963708 
L 299.203676 -177.655886 
L 299.227714 -179.348065 
L 299.240119 -181.040243 
L 299.245964 -182.732422 
L 299.248481 -184.4246 
L 299.249474 -186.116779 
L 299.249832 -187.808957 
L 299.249951 -189.501136 
L 299.249986 -191.193314 
L 299.249995 -192.885493 
L 299.249994 -194.577671 
L 299.249979 -196.26985 
L 299.249926 -197.962028 
L 299.249754 -199.654206 
L 299.249251 -201.346385 
L 299.247896 -203.038563 
L 299.244558 -204.730742 
L 299.23704 -206.42292 
L 299.221576 -208.115099 
L 299.192591 -209.807277 
L 299.143219 -211.499456 
L 299.067094 -213.191634 
L 298.961478 -214.883813 
L 298.830869 -216.575991 
L 298.68929 -218.26817 
L 298.559211 -219.960348 
L 298.466261 -221.652527 
L 298.431128 -223.344705 
L 298.462086 -225.036884 
L 298.551832 -226.729062 
L 298.680282 -228.42124 
L 298.821867 -230.113419 
L 298.953711 -231.805597 
L 299.06117 -233.497776 
L 299.139173 -235.189954 
L 299.360827 -235.189954 
L 299.360827 -235.189954 
L 299.43883 -233.497776 
L 299.546289 -231.805597 
L 299.678133 -230.113419 
L 299.819718 -228.42124 
L 299.948168 -226.729062 
L 300.037914 -225.036884 
L 300.068872 -223.344705 
L 300.033739 -221.652527 
L 299.940789 -219.960348 
L 299.81071 -218.26817 
L 299.669131 -216.575991 
L 299.538522 -214.883813 
L 299.432906 -213.191634 
L 299.356781 -211.499456 
L 299.307409 -209.807277 
L 299.278424 -208.115099 
L 299.26296 -206.42292 
L 299.255442 -204.730742 
L 299.252104 -203.038563 
L 299.250749 -201.346385 
L 299.250246 -199.654206 
L 299.250074 -197.962028 
L 299.250021 -196.26985 
L 299.250006 -194.577671 
L 299.250005 -192.885493 
L 299.250014 -191.193314 
L 299.250049 -189.501136 
L 299.250168 -187.808957 
L 299.250526 -186.116779 
L 299.251519 -184.4246 
L 299.254036 -182.732422 
L 299.259881 -181.040243 
L 299.272286 -179.348065 
L 299.296324 -177.655886 
L 299.338773 -175.963708 
L 299.406953 -174.271529 
L 299.506285 -172.579351 
L 299.637135 -170.887172 
L 299.792359 -169.194994 
L 299.957368 -167.502816 
L 300.113595 -165.810637 
L 300.244245 -164.118459 
L 300.339339 -162.42628 
L 300.396994 -160.734102 
L 300.420262 -159.041923 
L 300.41207 -157.349745 
L 300.372477 -155.657566 
L 300.300919 -153.965388 
L 300.202647 -152.273209 
L 300.09566 -150.581031 
L 300.014226 -148.888852 
L 300.007071 -147.196674 
L 300.130439 -145.504495 
L 300.437304 -143.812317 
L 300.964613 -142.120138 
L 301.722006 -140.42796 
L 302.687978 -138.735782 
L 303.820222 -137.043603 
L 305.083096 -135.351425 
L 306.486615 -133.659246 
L 308.122198 -131.967068 
L 310.176414 -130.274889 
L 312.908322 -128.582711 
L 316.586759 -126.890532 
L 321.396571 -125.198354 
L 327.333797 -123.506175 
L 334.118749 -121.813997 
L 341.161916 -120.121818 
L 347.61544 -118.42964 
L 352.523903 -116.737461 
L 355.05 -115.045283 
L 354.707129 -113.353105 
L 351.509334 -111.660926 
L 345.971846 -109.968748 
L 338.958061 -108.276569 
L 331.437236 -106.584391 
L 324.250869 -104.892212 
L 317.967332 -103.200034 
L 312.851131 -101.507855 
L 308.920476 -99.815677 
L 306.041903 -98.123498 
L 304.017334 -96.43132 
L 302.642344 -94.739141 
L 301.736027 -93.046963 
L 301.152633 -91.354784 
L 300.783894 -89.662606 
L 300.555736 -87.970427 
L 300.42016 -86.278249 
L 300.344176 -84.586071 
L 300.299967 -82.893892 
L 300.260596 -81.201714 
L 300.202366 -79.509535 
L 300.110785 -77.817357 
L 299.984968 -76.125178 
L 299.836881 -74.433 
L 299.685518 -72.740821 
L 299.549219 -71.048643 
L 299.439901 -69.356464 
L 299.361188 -67.664286 
z
" style="stroke: #3d3d3d; stroke-width: 1.25"/>
    </defs>
    <g clip-path="url(#pa983b05791)">
     <use xlink:href="#m1d1d396592" x="0" y="360" style="fill: #e1812c; stroke: #3d3d3d; stroke-width: 1.25"/>
    </g>
   </g>
   <g id="FillBetweenPolyCollection_3">
    <defs>
     <path id="m82f35b2cbb" d="M 438.936429 -52.2 
L 438.563571 -52.2 
L 438.468915 -54.745455 
L 438.344692 -57.290909 
L 438.190377 -59.836364 
L 438.00854 -62.381818 
L 437.803982 -64.927273 
L 437.580894 -67.472727 
L 437.337676 -70.018182 
L 437.059618 -72.563636 
L 436.710354 -75.109091 
L 436.22371 -77.654545 
L 435.498253 -80.2 
L 434.397217 -82.745455 
L 432.756517 -85.290909 
L 430.403007 -87.836364 
L 427.183629 -90.381818 
L 423.003572 -92.927273 
L 417.868031 -95.472727 
L 411.918485 -98.018182 
L 405.452091 -100.563636 
L 398.913367 -103.109091 
L 392.852074 -105.654545 
L 387.849632 -108.2 
L 384.42638 -110.745455 
L 382.95 -113.290909 
L 383.56785 -115.836364 
L 386.181188 -118.381818 
L 390.468191 -120.927273 
L 395.949106 -123.472727 
L 402.07558 -126.018182 
L 408.321175 -128.563636 
L 414.25255 -131.109091 
L 419.56912 -133.654545 
L 424.109554 -136.2 
L 427.832286 -138.745455 
L 430.781814 -141.290909 
L 433.052527 -143.836364 
L 434.758396 -146.381818 
L 436.012319 -148.927273 
L 436.914964 -151.472727 
L 437.550725 -154.018182 
L 437.987841 -156.563636 
L 438.280282 -159.109091 
L 438.469996 -161.654545 
L 438.588929 -164.2 
L 438.660768 -166.745455 
L 438.702472 -169.290909 
L 438.725695 -171.836364 
L 438.738079 -174.381818 
L 438.744398 -176.927273 
L 438.747479 -179.472727 
L 438.748914 -182.018182 
L 438.749553 -184.563636 
L 438.749824 -187.109091 
L 438.749934 -189.654545 
L 438.749976 -192.2 
L 438.749992 -194.745455 
L 438.749997 -197.290909 
L 438.749999 -199.836364 
L 438.75 -202.381818 
L 438.75 -204.927273 
L 438.75 -207.472727 
L 438.75 -210.018182 
L 438.75 -212.563636 
L 438.75 -215.109091 
L 438.749999 -217.654545 
L 438.749997 -220.2 
L 438.749991 -222.745455 
L 438.749976 -225.290909 
L 438.749936 -227.836364 
L 438.749836 -230.381818 
L 438.7496 -232.927273 
L 438.749068 -235.472727 
L 438.747926 -238.018182 
L 438.745593 -240.563636 
L 438.741062 -243.109091 
L 438.732697 -245.654545 
L 438.718021 -248.2 
L 438.693581 -250.745455 
L 438.654982 -253.290909 
L 438.597239 -255.836364 
L 438.515553 -258.381818 
L 438.40652 -260.927273 
L 438.269622 -263.472727 
L 438.108659 -266.018182 
L 437.932628 -268.563636 
L 437.755568 -271.109091 
L 437.595071 -273.654545 
L 437.469558 -276.2 
L 437.394844 -278.745455 
L 437.380874 -281.290909 
L 437.429549 -283.836364 
L 437.534302 -286.381818 
L 437.681551 -288.927273 
L 437.85359 -291.472727 
L 438.032067 -294.018182 
L 438.201109 -296.563636 
L 438.349398 -299.109091 
L 438.470897 -301.654545 
L 438.564373 -304.2 
L 438.935627 -304.2 
L 438.935627 -304.2 
L 439.029103 -301.654545 
L 439.150602 -299.109091 
L 439.298891 -296.563636 
L 439.467933 -294.018182 
L 439.64641 -291.472727 
L 439.818449 -288.927273 
L 439.965698 -286.381818 
L 440.070451 -283.836364 
L 440.119126 -281.290909 
L 440.105156 -278.745455 
L 440.030442 -276.2 
L 439.904929 -273.654545 
L 439.744432 -271.109091 
L 439.567372 -268.563636 
L 439.391341 -266.018182 
L 439.230378 -263.472727 
L 439.09348 -260.927273 
L 438.984447 -258.381818 
L 438.902761 -255.836364 
L 438.845018 -253.290909 
L 438.806419 -250.745455 
L 438.781979 -248.2 
L 438.767303 -245.654545 
L 438.758938 -243.109091 
L 438.754407 -240.563636 
L 438.752074 -238.018182 
L 438.750932 -235.472727 
L 438.7504 -232.927273 
L 438.750164 -230.381818 
L 438.750064 -227.836364 
L 438.750024 -225.290909 
L 438.750009 -222.745455 
L 438.750003 -220.2 
L 438.750001 -217.654545 
L 438.75 -215.109091 
L 438.75 -212.563636 
L 438.75 -210.018182 
L 438.75 -207.472727 
L 438.75 -204.927273 
L 438.75 -202.381818 
L 438.750001 -199.836364 
L 438.750003 -197.290909 
L 438.750008 -194.745455 
L 438.750024 -192.2 
L 438.750066 -189.654545 
L 438.750176 -187.109091 
L 438.750447 -184.563636 
L 438.751086 -182.018182 
L 438.752521 -179.472727 
L 438.755602 -176.927273 
L 438.761921 -174.381818 
L 438.774305 -171.836364 
L 438.797528 -169.290909 
L 438.839232 -166.745455 
L 438.911071 -164.2 
L 439.030004 -161.654545 
L 439.219718 -159.109091 
L 439.512159 -156.563636 
L 439.949275 -154.018182 
L 440.585036 -151.472727 
L 441.487681 -148.927273 
L 442.741604 -146.381818 
L 444.447473 -143.836364 
L 446.718186 -141.290909 
L 449.667714 -138.745455 
L 453.390446 -136.2 
L 457.93088 -133.654545 
L 463.24745 -131.109091 
L 469.178825 -128.563636 
L 475.42442 -126.018182 
L 481.550894 -123.472727 
L 487.031809 -120.927273 
L 491.318812 -118.381818 
L 493.93215 -115.836364 
L 494.55 -113.290909 
L 493.07362 -110.745455 
L 489.650368 -108.2 
L 484.647926 -105.654545 
L 478.586633 -103.109091 
L 472.047909 -100.563636 
L 465.581515 -98.018182 
L 459.631969 -95.472727 
L 454.496428 -92.927273 
L 450.316371 -90.381818 
L 447.096993 -87.836364 
L 444.743483 -85.290909 
L 443.102783 -82.745455 
L 442.001747 -80.2 
L 441.27629 -77.654545 
L 440.789646 -75.109091 
L 440.440382 -72.563636 
L 440.162324 -70.018182 
L 439.919106 -67.472727 
L 439.696018 -64.927273 
L 439.49146 -62.381818 
L 439.309623 -59.836364 
L 439.155308 -57.290909 
L 439.031085 -54.745455 
L 438.936429 -52.2 
z
" style="stroke: #3d3d3d; stroke-width: 1.25"/>
    </defs>
    <g clip-path="url(#pa983b05791)">
     <use xlink:href="#m82f35b2cbb" x="0" y="360" style="fill: #3a923a; stroke: #3d3d3d; stroke-width: 1.25"/>
    </g>
   </g>
   <g id="FillBetweenPolyCollection_4">
    <defs>
     <path id="m3d89611375" d="M 578.923101 -107.997284 
L 577.576899 -107.997284 
L 577.370787 -108.137039 
L 577.118206 -108.276794 
L 576.813792 -108.416549 
L 576.452847 -108.556304 
L 576.031595 -108.696059 
L 575.547349 -108.835814 
L 574.998545 -108.975569 
L 574.384594 -109.115324 
L 573.705527 -109.255079 
L 572.961429 -109.394834 
L 572.151696 -109.534588 
L 571.274177 -109.674343 
L 570.324304 -109.814098 
L 569.294342 -109.953853 
L 568.172899 -110.093608 
L 566.944842 -110.233363 
L 565.591737 -110.373118 
L 564.092883 -110.512873 
L 562.426949 -110.652628 
L 560.574151 -110.792383 
L 558.518821 -110.932138 
L 556.25214 -111.071893 
L 553.774775 -111.211648 
L 551.099109 -111.351403 
L 548.250783 -111.491158 
L 545.269286 -111.630913 
L 542.207442 -111.770668 
L 539.129717 -111.910423 
L 536.109411 -112.050178 
L 533.224901 -112.189933 
L 530.555243 -112.329688 
L 528.175475 -112.469443 
L 526.152046 -112.609198 
L 524.538765 -112.748953 
L 523.373639 -112.888708 
L 522.676843 -113.028463 
L 522.45 -113.168217 
L 522.676777 -113.307972 
L 523.324697 -113.447727 
L 524.347947 -113.587482 
L 525.690896 -113.727237 
L 527.291979 -113.866992 
L 529.087612 -114.006747 
L 531.015836 -114.146502 
L 533.019437 -114.286257 
L 535.048388 -114.426012 
L 537.061507 -114.565767 
L 539.027332 -114.705522 
L 540.924248 -114.845277 
L 542.739955 -114.985032 
L 544.470391 -115.124787 
L 546.118233 -115.264542 
L 547.691122 -115.404297 
L 549.199717 -115.544052 
L 550.655753 -115.683807 
L 552.070206 -115.823562 
L 553.451721 -115.963317 
L 554.805409 -116.103072 
L 556.132128 -116.242827 
L 557.428295 -116.382582 
L 558.686265 -116.522337 
L 559.895206 -116.662092 
L 561.042395 -116.801846 
L 562.114766 -116.941601 
L 563.100526 -117.081356 
L 563.990654 -117.221111 
L 564.780089 -117.360866 
L 565.468485 -117.500621 
L 566.060439 -117.640376 
L 566.565201 -117.780131 
L 566.995915 -117.919886 
L 567.368509 -118.059641 
L 567.700383 -118.199396 
L 568.009064 -118.339151 
L 568.310961 -118.478906 
L 568.620353 -118.618661 
L 568.948676 -118.758416 
L 569.304127 -118.898171 
L 569.691576 -119.037926 
L 570.112737 -119.177681 
L 570.566517 -119.317436 
L 571.049483 -119.457191 
L 571.556376 -119.596946 
L 572.080623 -119.736701 
L 572.614812 -119.876456 
L 573.151123 -120.016211 
L 573.681706 -120.155966 
L 574.199008 -120.295721 
L 574.696055 -120.435475 
L 575.166697 -120.57523 
L 575.605803 -120.714985 
L 576.009403 -120.85474 
L 576.374785 -120.994495 
L 576.700507 -121.13425 
L 576.986364 -121.274005 
L 577.233281 -121.41376 
L 577.443153 -121.553515 
L 577.618654 -121.69327 
L 577.763014 -121.833025 
L 578.736986 -121.833025 
L 578.736986 -121.833025 
L 578.881346 -121.69327 
L 579.056847 -121.553515 
L 579.266719 -121.41376 
L 579.513636 -121.274005 
L 579.799493 -121.13425 
L 580.125215 -120.994495 
L 580.490597 -120.85474 
L 580.894197 -120.714985 
L 581.333303 -120.57523 
L 581.803945 -120.435475 
L 582.300992 -120.295721 
L 582.818294 -120.155966 
L 583.348877 -120.016211 
L 583.885188 -119.876456 
L 584.419377 -119.736701 
L 584.943624 -119.596946 
L 585.450517 -119.457191 
L 585.933483 -119.317436 
L 586.387263 -119.177681 
L 586.808424 -119.037926 
L 587.195873 -118.898171 
L 587.551324 -118.758416 
L 587.879647 -118.618661 
L 588.189039 -118.478906 
L 588.490936 -118.339151 
L 588.799617 -118.199396 
L 589.131491 -118.059641 
L 589.504085 -117.919886 
L 589.934799 -117.780131 
L 590.439561 -117.640376 
L 591.031515 -117.500621 
L 591.719911 -117.360866 
L 592.509346 -117.221111 
L 593.399474 -117.081356 
L 594.385234 -116.941601 
L 595.457605 -116.801846 
L 596.604794 -116.662092 
L 597.813735 -116.522337 
L 599.071705 -116.382582 
L 600.367872 -116.242827 
L 601.694591 -116.103072 
L 603.048279 -115.963317 
L 604.429794 -115.823562 
L 605.844247 -115.683807 
L 607.300283 -115.544052 
L 608.808878 -115.404297 
L 610.381767 -115.264542 
L 612.029609 -115.124787 
L 613.760045 -114.985032 
L 615.575752 -114.845277 
L 617.472668 -114.705522 
L 619.438493 -114.565767 
L 621.451612 -114.426012 
L 623.480563 -114.286257 
L 625.484164 -114.146502 
L 627.412388 -114.006747 
L 629.208021 -113.866992 
L 630.809104 -113.727237 
L 632.152053 -113.587482 
L 633.175303 -113.447727 
L 633.823223 -113.307972 
L 634.05 -113.168217 
L 633.823157 -113.028463 
L 633.126361 -112.888708 
L 631.961235 -112.748953 
L 630.347954 -112.609198 
L 628.324525 -112.469443 
L 625.944757 -112.329688 
L 623.275099 -112.189933 
L 620.390589 -112.050178 
L 617.370283 -111.910423 
L 614.292558 -111.770668 
L 611.230714 -111.630913 
L 608.249217 -111.491158 
L 605.400891 -111.351403 
L 602.725225 -111.211648 
L 600.24786 -111.071893 
L 597.981179 -110.932138 
L 595.925849 -110.792383 
L 594.073051 -110.652628 
L 592.407117 -110.512873 
L 590.908263 -110.373118 
L 589.555158 -110.233363 
L 588.327101 -110.093608 
L 587.205658 -109.953853 
L 586.175696 -109.814098 
L 585.225823 -109.674343 
L 584.348304 -109.534588 
L 583.538571 -109.394834 
L 582.794473 -109.255079 
L 582.115406 -109.115324 
L 581.501455 -108.975569 
L 580.952651 -108.835814 
L 580.468405 -108.696059 
L 580.047153 -108.556304 
L 579.686208 -108.416549 
L 579.381794 -108.276794 
L 579.129213 -108.137039 
L 578.923101 -107.997284 
z
" style="stroke: #3d3d3d; stroke-width: 1.25"/>
    </defs>
    <g clip-path="url(#pa983b05791)">
     <use xlink:href="#m3d89611375" x="0" y="360" style="fill: #c03d3e; stroke: #3d3d3d; stroke-width: 1.25"/>
    </g>
   </g>
   <g id="matplotlib.axis_1">
    <g id="xtick_1">
     <g id="line2d_1">
      <defs>
       <path id="m83a3c69b86" d="M 0 0 
L 0 3.5 
" style="stroke: #000000; stroke-width: 0.8"/>
      </defs>
      <g>
       <use xlink:href="#m83a3c69b86" x="159.75" y="320.4" style="stroke: #000000; stroke-width: 0.8"/>
      </g>
     </g>
     <g id="text_1">
      <!-- Spurious -->
      <g transform="translate(137.955469 334.998438) scale(0.1 -0.1)">
       <defs>
        <path id="DejaVuSans-53" d="M 3425 4513 
L 3425 3897 
Q 3066 4069 2747 4153 
Q 2428 4238 2131 4238 
Q 1616 4238 1336 4038 
Q 1056 3838 1056 3469 
Q 1056 3159 1242 3001 
Q 1428 2844 1947 2747 
L 2328 2669 
Q 3034 2534 3370 2195 
Q 3706 1856 3706 1288 
Q 3706 609 3251 259 
Q 2797 -91 1919 -91 
Q 1588 -91 1214 -16 
Q 841 59 441 206 
L 441 856 
Q 825 641 1194 531 
Q 1563 422 1919 422 
Q 2459 422 2753 634 
Q 3047 847 3047 1241 
Q 3047 1584 2836 1778 
Q 2625 1972 2144 2069 
L 1759 2144 
Q 1053 2284 737 2584 
Q 422 2884 422 3419 
Q 422 4038 858 4394 
Q 1294 4750 2059 4750 
Q 2388 4750 2728 4690 
Q 3069 4631 3425 4513 
z
" transform="scale(0.015625)"/>
        <path id="DejaVuSans-70" d="M 1159 525 
L 1159 -1331 
L 581 -1331 
L 581 3500 
L 1159 3500 
L 1159 2969 
Q 1341 3281 1617 3432 
Q 1894 3584 2278 3584 
Q 2916 3584 3314 3078 
Q 3713 2572 3713 1747 
Q 3713 922 3314 415 
Q 2916 -91 2278 -91 
Q 1894 -91 1617 61 
Q 1341 213 1159 525 
z
M 3116 1747 
Q 3116 2381 2855 2742 
Q 2594 3103 2138 3103 
Q 1681 3103 1420 2742 
Q 1159 2381 1159 1747 
Q 1159 1113 1420 752 
Q 1681 391 2138 391 
Q 2594 391 2855 752 
Q 3116 1113 3116 1747 
z
" transform="scale(0.015625)"/>
        <path id="DejaVuSans-75" d="M 544 1381 
L 544 3500 
L 1119 3500 
L 1119 1403 
Q 1119 906 1312 657 
Q 1506 409 1894 409 
Q 2359 409 2629 706 
Q 2900 1003 2900 1516 
L 2900 3500 
L 3475 3500 
L 3475 0 
L 2900 0 
L 2900 538 
Q 2691 219 2414 64 
Q 2138 -91 1772 -91 
Q 1169 -91 856 284 
Q 544 659 544 1381 
z
M 1991 3584 
L 1991 3584 
z
" transform="scale(0.015625)"/>
        <path id="DejaVuSans-72" d="M 2631 2963 
Q 2534 3019 2420 3045 
Q 2306 3072 2169 3072 
Q 1681 3072 1420 2755 
Q 1159 2438 1159 1844 
L 1159 0 
L 581 0 
L 581 3500 
L 1159 3500 
L 1159 2956 
Q 1341 3275 1631 3429 
Q 1922 3584 2338 3584 
Q 2397 3584 2469 3576 
Q 2541 3569 2628 3553 
L 2631 2963 
z
" transform="scale(0.015625)"/>
        <path id="DejaVuSans-69" d="M 603 3500 
L 1178 3500 
L 1178 0 
L 603 0 
L 603 3500 
z
M 603 4863 
L 1178 4863 
L 1178 4134 
L 603 4134 
L 603 4863 
z
" transform="scale(0.015625)"/>
        <path id="DejaVuSans-6f" d="M 1959 3097 
Q 1497 3097 1228 2736 
Q 959 2375 959 1747 
Q 959 1119 1226 758 
Q 1494 397 1959 397 
Q 2419 397 2687 759 
Q 2956 1122 2956 1747 
Q 2956 2369 2687 2733 
Q 2419 3097 1959 3097 
z
M 1959 3584 
Q 2709 3584 3137 3096 
Q 3566 2609 3566 1747 
Q 3566 888 3137 398 
Q 2709 -91 1959 -91 
Q 1206 -91 779 398 
Q 353 888 353 1747 
Q 353 2609 779 3096 
Q 1206 3584 1959 3584 
z
" transform="scale(0.015625)"/>
        <path id="DejaVuSans-73" d="M 2834 3397 
L 2834 2853 
Q 2591 2978 2328 3040 
Q 2066 3103 1784 3103 
Q 1356 3103 1142 2972 
Q 928 2841 928 2578 
Q 928 2378 1081 2264 
Q 1234 2150 1697 2047 
L 1894 2003 
Q 2506 1872 2764 1633 
Q 3022 1394 3022 966 
Q 3022 478 2636 193 
Q 2250 -91 1575 -91 
Q 1294 -91 989 -36 
Q 684 19 347 128 
L 347 722 
Q 666 556 975 473 
Q 1284 391 1588 391 
Q 1994 391 2212 530 
Q 2431 669 2431 922 
Q 2431 1156 2273 1281 
Q 2116 1406 1581 1522 
L 1381 1569 
Q 847 1681 609 1914 
Q 372 2147 372 2553 
Q 372 3047 722 3315 
Q 1072 3584 1716 3584 
Q 2034 3584 2315 3537 
Q 2597 3491 2834 3397 
z
" transform="scale(0.015625)"/>
       </defs>
       <use xlink:href="#DejaVuSans-53"/>
       <use xlink:href="#DejaVuSans-70" transform="translate(63.476562 0)"/>
       <use xlink:href="#DejaVuSans-75" transform="translate(126.953125 0)"/>
       <use xlink:href="#DejaVuSans-72" transform="translate(190.332031 0)"/>
       <use xlink:href="#DejaVuSans-69" transform="translate(231.445312 0)"/>
       <use xlink:href="#DejaVuSans-6f" transform="translate(259.228516 0)"/>
       <use xlink:href="#DejaVuSans-75" transform="translate(320.410156 0)"/>
       <use xlink:href="#DejaVuSans-73" transform="translate(383.789062 0)"/>
      </g>
     </g>
    </g>
    <g id="xtick_2">
     <g id="line2d_2">
      <g>
       <use xlink:href="#m83a3c69b86" x="299.25" y="320.4" style="stroke: #000000; stroke-width: 0.8"/>
      </g>
     </g>
     <g id="text_2">
      <!-- Specific -->
      <g transform="translate(279.788281 334.998438) scale(0.1 -0.1)">
       <defs>
        <path id="DejaVuSans-65" d="M 3597 1894 
L 3597 1613 
L 953 1613 
Q 991 1019 1311 708 
Q 1631 397 2203 397 
Q 2534 397 2845 478 
Q 3156 559 3463 722 
L 3463 178 
Q 3153 47 2828 -22 
Q 2503 -91 2169 -91 
Q 1331 -91 842 396 
Q 353 884 353 1716 
Q 353 2575 817 3079 
Q 1281 3584 2069 3584 
Q 2775 3584 3186 3129 
Q 3597 2675 3597 1894 
z
M 3022 2063 
Q 3016 2534 2758 2815 
Q 2500 3097 2075 3097 
Q 1594 3097 1305 2825 
Q 1016 2553 972 2059 
L 3022 2063 
z
" transform="scale(0.015625)"/>
        <path id="DejaVuSans-63" d="M 3122 3366 
L 3122 2828 
Q 2878 2963 2633 3030 
Q 2388 3097 2138 3097 
Q 1578 3097 1268 2742 
Q 959 2388 959 1747 
Q 959 1106 1268 751 
Q 1578 397 2138 397 
Q 2388 397 2633 464 
Q 2878 531 3122 666 
L 3122 134 
Q 2881 22 2623 -34 
Q 2366 -91 2075 -91 
Q 1284 -91 818 406 
Q 353 903 353 1747 
Q 353 2603 823 3093 
Q 1294 3584 2113 3584 
Q 2378 3584 2631 3529 
Q 2884 3475 3122 3366 
z
" transform="scale(0.015625)"/>
        <path id="DejaVuSans-66" d="M 2375 4863 
L 2375 4384 
L 1825 4384 
Q 1516 4384 1395 4259 
Q 1275 4134 1275 3809 
L 1275 3500 
L 2222 3500 
L 2222 3053 
L 1275 3053 
L 1275 0 
L 697 0 
L 697 3053 
L 147 3053 
L 147 3500 
L 697 3500 
L 697 3744 
Q 697 4328 969 4595 
Q 1241 4863 1831 4863 
L 2375 4863 
z
" transform="scale(0.015625)"/>
       </defs>
       <use xlink:href="#DejaVuSans-53"/>
       <use xlink:href="#DejaVuSans-70" transform="translate(63.476562 0)"/>
       <use xlink:href="#DejaVuSans-65" transform="translate(126.953125 0)"/>
       <use xlink:href="#DejaVuSans-63" transform="translate(188.476562 0)"/>
       <use xlink:href="#DejaVuSans-69" transform="translate(243.457031 0)"/>
       <use xlink:href="#DejaVuSans-66" transform="translate(271.240234 0)"/>
       <use xlink:href="#DejaVuSans-69" transform="translate(306.445312 0)"/>
       <use xlink:href="#DejaVuSans-63" transform="translate(334.228516 0)"/>
      </g>
     </g>
    </g>
    <g id="xtick_3">
     <g id="line2d_3">
      <g>
       <use xlink:href="#m83a3c69b86" x="438.75" y="320.4" style="stroke: #000000; stroke-width: 0.8"/>
      </g>
     </g>
     <g id="text_3">
      <!-- Non-specific -->
      <g transform="translate(408.085156 334.998438) scale(0.1 -0.1)">
       <defs>
        <path id="DejaVuSans-4e" d="M 628 4666 
L 1478 4666 
L 3547 763 
L 3547 4666 
L 4159 4666 
L 4159 0 
L 3309 0 
L 1241 3903 
L 1241 0 
L 628 0 
L 628 4666 
z
" transform="scale(0.015625)"/>
        <path id="DejaVuSans-6e" d="M 3513 2113 
L 3513 0 
L 2938 0 
L 2938 2094 
Q 2938 2591 2744 2837 
Q 2550 3084 2163 3084 
Q 1697 3084 1428 2787 
Q 1159 2491 1159 1978 
L 1159 0 
L 581 0 
L 581 3500 
L 1159 3500 
L 1159 2956 
Q 1366 3272 1645 3428 
Q 1925 3584 2291 3584 
Q 2894 3584 3203 3211 
Q 3513 2838 3513 2113 
z
" transform="scale(0.015625)"/>
        <path id="DejaVuSans-2d" d="M 313 2009 
L 1997 2009 
L 1997 1497 
L 313 1497 
L 313 2009 
z
" transform="scale(0.015625)"/>
       </defs>
       <use xlink:href="#DejaVuSans-4e"/>
       <use xlink:href="#DejaVuSans-6f" transform="translate(74.804688 0)"/>
       <use xlink:href="#DejaVuSans-6e" transform="translate(135.986328 0)"/>
       <use xlink:href="#DejaVuSans-2d" transform="translate(199.365234 0)"/>
       <use xlink:href="#DejaVuSans-73" transform="translate(235.449219 0)"/>
       <use xlink:href="#DejaVuSans-70" transform="translate(287.548828 0)"/>
       <use xlink:href="#DejaVuSans-65" transform="translate(351.025391 0)"/>
       <use xlink:href="#DejaVuSans-63" transform="translate(412.548828 0)"/>
       <use xlink:href="#DejaVuSans-69" transform="translate(467.529297 0)"/>
       <use xlink:href="#DejaVuSans-66" transform="translate(495.3125 0)"/>
       <use xlink:href="#DejaVuSans-69" transform="translate(530.517578 0)"/>
       <use xlink:href="#DejaVuSans-63" transform="translate(558.300781 0)"/>
      </g>
     </g>
    </g>
    <g id="xtick_4">
     <g id="line2d_4">
      <g>
       <use xlink:href="#m83a3c69b86" x="578.25" y="320.4" style="stroke: #000000; stroke-width: 0.8"/>
      </g>
     </g>
     <g id="text_4">
      <!-- No -->
      <g transform="translate(571.45 334.998438) scale(0.1 -0.1)">
       <use xlink:href="#DejaVuSans-4e"/>
       <use xlink:href="#DejaVuSans-6f" transform="translate(74.804688 0)"/>
      </g>
     </g>
    </g>
    <g id="text_5">
     <!-- Connectivity category -->
     <g transform="translate(313.98125 348.676562) scale(0.1 -0.1)">
      <defs>
       <path id="DejaVuSans-43" d="M 4122 4306 
L 4122 3641 
Q 3803 3938 3442 4084 
Q 3081 4231 2675 4231 
Q 1875 4231 1450 3742 
Q 1025 3253 1025 2328 
Q 1025 1406 1450 917 
Q 1875 428 2675 428 
Q 3081 428 3442 575 
Q 3803 722 4122 1019 
L 4122 359 
Q 3791 134 3420 21 
Q 3050 -91 2638 -91 
Q 1578 -91 968 557 
Q 359 1206 359 2328 
Q 359 3453 968 4101 
Q 1578 4750 2638 4750 
Q 3056 4750 3426 4639 
Q 3797 4528 4122 4306 
z
" transform="scale(0.015625)"/>
       <path id="DejaVuSans-74" d="M 1172 4494 
L 1172 3500 
L 2356 3500 
L 2356 3053 
L 1172 3053 
L 1172 1153 
Q 1172 725 1289 603 
Q 1406 481 1766 481 
L 2356 481 
L 2356 0 
L 1766 0 
Q 1100 0 847 248 
Q 594 497 594 1153 
L 594 3053 
L 172 3053 
L 172 3500 
L 594 3500 
L 594 4494 
L 1172 4494 
z
" transform="scale(0.015625)"/>
       <path id="DejaVuSans-76" d="M 191 3500 
L 800 3500 
L 1894 563 
L 2988 3500 
L 3597 3500 
L 2284 0 
L 1503 0 
L 191 3500 
z
" transform="scale(0.015625)"/>
       <path id="DejaVuSans-79" d="M 2059 -325 
Q 1816 -950 1584 -1140 
Q 1353 -1331 966 -1331 
L 506 -1331 
L 506 -850 
L 844 -850 
Q 1081 -850 1212 -737 
Q 1344 -625 1503 -206 
L 1606 56 
L 191 3500 
L 800 3500 
L 1894 763 
L 2988 3500 
L 3597 3500 
L 2059 -325 
z
" transform="scale(0.015625)"/>
       <path id="DejaVuSans-20" transform="scale(0.015625)"/>
       <path id="DejaVuSans-61" d="M 2194 1759 
Q 1497 1759 1228 1600 
Q 959 1441 959 1056 
Q 959 750 1161 570 
Q 1363 391 1709 391 
Q 2188 391 2477 730 
Q 2766 1069 2766 1631 
L 2766 1759 
L 2194 1759 
z
M 3341 1997 
L 3341 0 
L 2766 0 
L 2766 531 
Q 2569 213 2275 61 
Q 1981 -91 1556 -91 
Q 1019 -91 701 211 
Q 384 513 384 1019 
Q 384 1609 779 1909 
Q 1175 2209 1959 2209 
L 2766 2209 
L 2766 2266 
Q 2766 2663 2505 2880 
Q 2244 3097 1772 3097 
Q 1472 3097 1187 3025 
Q 903 2953 641 2809 
L 641 3341 
Q 956 3463 1253 3523 
Q 1550 3584 1831 3584 
Q 2591 3584 2966 3190 
Q 3341 2797 3341 1997 
z
" transform="scale(0.015625)"/>
       <path id="DejaVuSans-67" d="M 2906 1791 
Q 2906 2416 2648 2759 
Q 2391 3103 1925 3103 
Q 1463 3103 1205 2759 
Q 947 2416 947 1791 
Q 947 1169 1205 825 
Q 1463 481 1925 481 
Q 2391 481 2648 825 
Q 2906 1169 2906 1791 
z
M 3481 434 
Q 3481 -459 3084 -895 
Q 2688 -1331 1869 -1331 
Q 1566 -1331 1297 -1286 
Q 1028 -1241 775 -1147 
L 775 -588 
Q 1028 -725 1275 -790 
Q 1522 -856 1778 -856 
Q 2344 -856 2625 -561 
Q 2906 -266 2906 331 
L 2906 616 
Q 2728 306 2450 153 
Q 2172 0 1784 0 
Q 1141 0 747 490 
Q 353 981 353 1791 
Q 353 2603 747 3093 
Q 1141 3584 1784 3584 
Q 2172 3584 2450 3431 
Q 2728 3278 2906 2969 
L 2906 3500 
L 3481 3500 
L 3481 434 
z
" transform="scale(0.015625)"/>
      </defs>
      <use xlink:href="#DejaVuSans-43"/>
      <use xlink:href="#DejaVuSans-6f" transform="translate(69.824219 0)"/>
      <use xlink:href="#DejaVuSans-6e" transform="translate(131.005859 0)"/>
      <use xlink:href="#DejaVuSans-6e" transform="translate(194.384766 0)"/>
      <use xlink:href="#DejaVuSans-65" transform="translate(257.763672 0)"/>
      <use xlink:href="#DejaVuSans-63" transform="translate(319.287109 0)"/>
      <use xlink:href="#DejaVuSans-74" transform="translate(374.267578 0)"/>
      <use xlink:href="#DejaVuSans-69" transform="translate(413.476562 0)"/>
      <use xlink:href="#DejaVuSans-76" transform="translate(441.259766 0)"/>
      <use xlink:href="#DejaVuSans-69" transform="translate(500.439453 0)"/>
      <use xlink:href="#DejaVuSans-74" transform="translate(528.222656 0)"/>
      <use xlink:href="#DejaVuSans-79" transform="translate(567.431641 0)"/>
      <use xlink:href="#DejaVuSans-20" transform="translate(626.611328 0)"/>
      <use xlink:href="#DejaVuSans-63" transform="translate(658.398438 0)"/>
      <use xlink:href="#DejaVuSans-61" transform="translate(713.378906 0)"/>
      <use xlink:href="#DejaVuSans-74" transform="translate(774.658203 0)"/>
      <use xlink:href="#DejaVuSans-65" transform="translate(813.867188 0)"/>
      <use xlink:href="#DejaVuSans-67" transform="translate(875.390625 0)"/>
      <use xlink:href="#DejaVuSans-6f" transform="translate(938.867188 0)"/>
      <use xlink:href="#DejaVuSans-72" transform="translate(1000.048828 0)"/>
      <use xlink:href="#DejaVuSans-79" transform="translate(1041.162109 0)"/>
     </g>
    </g>
   </g>
   <g id="matplotlib.axis_2">
    <g id="ytick_1">
     <g id="line2d_5">
      <defs>
       <path id="m870b50c4bc" d="M 0 0 
L -3.5 0 
" style="stroke: #000000; stroke-width: 0.8"/>
      </defs>
      <g>
       <use xlink:href="#m870b50c4bc" x="90" y="301.264532" style="stroke: #000000; stroke-width: 0.8"/>
      </g>
     </g>
     <g id="text_6">
      <!-- −0.002 -->
      <g transform="translate(45.992188 305.06375) scale(0.1 -0.1)">
       <defs>
        <path id="DejaVuSans-2212" d="M 678 2272 
L 4684 2272 
L 4684 1741 
L 678 1741 
L 678 2272 
z
" transform="scale(0.015625)"/>
        <path id="DejaVuSans-30" d="M 2034 4250 
Q 1547 4250 1301 3770 
Q 1056 3291 1056 2328 
Q 1056 1369 1301 889 
Q 1547 409 2034 409 
Q 2525 409 2770 889 
Q 3016 1369 3016 2328 
Q 3016 3291 2770 3770 
Q 2525 4250 2034 4250 
z
M 2034 4750 
Q 2819 4750 3233 4129 
Q 3647 3509 3647 2328 
Q 3647 1150 3233 529 
Q 2819 -91 2034 -91 
Q 1250 -91 836 529 
Q 422 1150 422 2328 
Q 422 3509 836 4129 
Q 1250 4750 2034 4750 
z
" transform="scale(0.015625)"/>
        <path id="DejaVuSans-2e" d="M 684 794 
L 1344 794 
L 1344 0 
L 684 0 
L 684 794 
z
" transform="scale(0.015625)"/>
        <path id="DejaVuSans-32" d="M 1228 531 
L 3431 531 
L 3431 0 
L 469 0 
L 469 531 
Q 828 903 1448 1529 
Q 2069 2156 2228 2338 
Q 2531 2678 2651 2914 
Q 2772 3150 2772 3378 
Q 2772 3750 2511 3984 
Q 2250 4219 1831 4219 
Q 1534 4219 1204 4116 
Q 875 4013 500 3803 
L 500 4441 
Q 881 4594 1212 4672 
Q 1544 4750 1819 4750 
Q 2544 4750 2975 4387 
Q 3406 4025 3406 3419 
Q 3406 3131 3298 2873 
Q 3191 2616 2906 2266 
Q 2828 2175 2409 1742 
Q 1991 1309 1228 531 
z
" transform="scale(0.015625)"/>
       </defs>
       <use xlink:href="#DejaVuSans-2212"/>
       <use xlink:href="#DejaVuSans-30" transform="translate(83.789062 0)"/>
       <use xlink:href="#DejaVuSans-2e" transform="translate(147.412109 0)"/>
       <use xlink:href="#DejaVuSans-30" transform="translate(179.199219 0)"/>
       <use xlink:href="#DejaVuSans-30" transform="translate(242.822266 0)"/>
       <use xlink:href="#DejaVuSans-32" transform="translate(306.445312 0)"/>
      </g>
     </g>
    </g>
    <g id="ytick_2">
     <g id="line2d_6">
      <g>
       <use xlink:href="#m870b50c4bc" x="90" y="247.078049" style="stroke: #000000; stroke-width: 0.8"/>
      </g>
     </g>
     <g id="text_7">
      <!-- 0.000 -->
      <g transform="translate(54.371875 250.877268) scale(0.1 -0.1)">
       <use xlink:href="#DejaVuSans-30"/>
       <use xlink:href="#DejaVuSans-2e" transform="translate(63.623047 0)"/>
       <use xlink:href="#DejaVuSans-30" transform="translate(95.410156 0)"/>
       <use xlink:href="#DejaVuSans-30" transform="translate(159.033203 0)"/>
       <use xlink:href="#DejaVuSans-30" transform="translate(222.65625 0)"/>
      </g>
     </g>
    </g>
    <g id="ytick_3">
     <g id="line2d_7">
      <g>
       <use xlink:href="#m870b50c4bc" x="90" y="192.891567" style="stroke: #000000; stroke-width: 0.8"/>
      </g>
     </g>
     <g id="text_8">
      <!-- 0.002 -->
      <g transform="translate(54.371875 196.690785) scale(0.1 -0.1)">
       <use xlink:href="#DejaVuSans-30"/>
       <use xlink:href="#DejaVuSans-2e" transform="translate(63.623047 0)"/>
       <use xlink:href="#DejaVuSans-30" transform="translate(95.410156 0)"/>
       <use xlink:href="#DejaVuSans-30" transform="translate(159.033203 0)"/>
       <use xlink:href="#DejaVuSans-32" transform="translate(222.65625 0)"/>
      </g>
     </g>
    </g>
    <g id="ytick_4">
     <g id="line2d_8">
      <g>
       <use xlink:href="#m870b50c4bc" x="90" y="138.705084" style="stroke: #000000; stroke-width: 0.8"/>
      </g>
     </g>
     <g id="text_9">
      <!-- 0.004 -->
      <g transform="translate(54.371875 142.504303) scale(0.1 -0.1)">
       <defs>
        <path id="DejaVuSans-34" d="M 2419 4116 
L 825 1625 
L 2419 1625 
L 2419 4116 
z
M 2253 4666 
L 3047 4666 
L 3047 1625 
L 3713 1625 
L 3713 1100 
L 3047 1100 
L 3047 0 
L 2419 0 
L 2419 1100 
L 313 1100 
L 313 1709 
L 2253 4666 
z
" transform="scale(0.015625)"/>
       </defs>
       <use xlink:href="#DejaVuSans-30"/>
       <use xlink:href="#DejaVuSans-2e" transform="translate(63.623047 0)"/>
       <use xlink:href="#DejaVuSans-30" transform="translate(95.410156 0)"/>
       <use xlink:href="#DejaVuSans-30" transform="translate(159.033203 0)"/>
       <use xlink:href="#DejaVuSans-34" transform="translate(222.65625 0)"/>
      </g>
     </g>
    </g>
    <g id="ytick_5">
     <g id="line2d_9">
      <g>
       <use xlink:href="#m870b50c4bc" x="90" y="84.518602" style="stroke: #000000; stroke-width: 0.8"/>
      </g>
     </g>
     <g id="text_10">
      <!-- 0.006 -->
      <g transform="translate(54.371875 88.31782) scale(0.1 -0.1)">
       <defs>
        <path id="DejaVuSans-36" d="M 2113 2584 
Q 1688 2584 1439 2293 
Q 1191 2003 1191 1497 
Q 1191 994 1439 701 
Q 1688 409 2113 409 
Q 2538 409 2786 701 
Q 3034 994 3034 1497 
Q 3034 2003 2786 2293 
Q 2538 2584 2113 2584 
z
M 3366 4563 
L 3366 3988 
Q 3128 4100 2886 4159 
Q 2644 4219 2406 4219 
Q 1781 4219 1451 3797 
Q 1122 3375 1075 2522 
Q 1259 2794 1537 2939 
Q 1816 3084 2150 3084 
Q 2853 3084 3261 2657 
Q 3669 2231 3669 1497 
Q 3669 778 3244 343 
Q 2819 -91 2113 -91 
Q 1303 -91 875 529 
Q 447 1150 447 2328 
Q 447 3434 972 4092 
Q 1497 4750 2381 4750 
Q 2619 4750 2861 4703 
Q 3103 4656 3366 4563 
z
" transform="scale(0.015625)"/>
       </defs>
       <use xlink:href="#DejaVuSans-30"/>
       <use xlink:href="#DejaVuSans-2e" transform="translate(63.623047 0)"/>
       <use xlink:href="#DejaVuSans-30" transform="translate(95.410156 0)"/>
       <use xlink:href="#DejaVuSans-30" transform="translate(159.033203 0)"/>
       <use xlink:href="#DejaVuSans-36" transform="translate(222.65625 0)"/>
      </g>
     </g>
    </g>
    <g id="text_11">
     <!-- cont_variable -->
     <g transform="translate(39.634375 215.409375) rotate(-90) scale(0.1 -0.1)">
      <defs>
       <path id="DejaVuSans-5f" d="M 3263 -1063 
L 3263 -1509 
L -63 -1509 
L -63 -1063 
L 3263 -1063 
z
" transform="scale(0.015625)"/>
       <path id="DejaVuSans-62" d="M 3116 1747 
Q 3116 2381 2855 2742 
Q 2594 3103 2138 3103 
Q 1681 3103 1420 2742 
Q 1159 2381 1159 1747 
Q 1159 1113 1420 752 
Q 1681 391 2138 391 
Q 2594 391 2855 752 
Q 3116 1113 3116 1747 
z
M 1159 2969 
Q 1341 3281 1617 3432 
Q 1894 3584 2278 3584 
Q 2916 3584 3314 3078 
Q 3713 2572 3713 1747 
Q 3713 922 3314 415 
Q 2916 -91 2278 -91 
Q 1894 -91 1617 61 
Q 1341 213 1159 525 
L 1159 0 
L 581 0 
L 581 4863 
L 1159 4863 
L 1159 2969 
z
" transform="scale(0.015625)"/>
       <path id="DejaVuSans-6c" d="M 603 4863 
L 1178 4863 
L 1178 0 
L 603 0 
L 603 4863 
z
" transform="scale(0.015625)"/>
      </defs>
      <use xlink:href="#DejaVuSans-63"/>
      <use xlink:href="#DejaVuSans-6f" transform="translate(54.980469 0)"/>
      <use xlink:href="#DejaVuSans-6e" transform="translate(116.162109 0)"/>
      <use xlink:href="#DejaVuSans-74" transform="translate(179.541016 0)"/>
      <use xlink:href="#DejaVuSans-5f" transform="translate(218.75 0)"/>
      <use xlink:href="#DejaVuSans-76" transform="translate(268.75 0)"/>
      <use xlink:href="#DejaVuSans-61" transform="translate(327.929688 0)"/>
      <use xlink:href="#DejaVuSans-72" transform="translate(389.208984 0)"/>
      <use xlink:href="#DejaVuSans-69" transform="translate(430.322266 0)"/>
      <use xlink:href="#DejaVuSans-61" transform="translate(458.105469 0)"/>
      <use xlink:href="#DejaVuSans-62" transform="translate(519.384766 0)"/>
      <use xlink:href="#DejaVuSans-6c" transform="translate(582.861328 0)"/>
      <use xlink:href="#DejaVuSans-65" transform="translate(610.644531 0)"/>
     </g>
    </g>
   </g>
   <g id="patch_3">
    <path d="M 90 320.4 
L 90 43.2 
" style="fill: none; stroke: #000000; stroke-width: 0.8; stroke-linejoin: miter; stroke-linecap: square"/>
   </g>
   <g id="patch_4">
    <path d="M 648 320.4 
L 648 43.2 
" style="fill: none; stroke: #000000; stroke-width: 0.8; stroke-linejoin: miter; stroke-linecap: square"/>
   </g>
   <g id="patch_5">
    <path d="M 90 320.4 
L 648 320.4 
" style="fill: none; stroke: #000000; stroke-width: 0.8; stroke-linejoin: miter; stroke-linecap: square"/>
   </g>
   <g id="patch_6">
    <path d="M 90 43.2 
L 648 43.2 
" style="fill: none; stroke: #000000; stroke-width: 0.8; stroke-linejoin: miter; stroke-linecap: square"/>
   </g>
   <g id="PathCollection_1">
    <defs>
     <path id="mad3a28a95c" d="M 0 2.5 
C 0.663008 2.5 1.29895 2.236584 1.767767 1.767767 
C 2.236584 1.29895 2.5 0.663008 2.5 0 
C 2.5 -0.663008 2.236584 -1.29895 1.767767 -1.767767 
C 1.29895 -2.236584 0.663008 -2.5 0 -2.5 
C -0.663008 -2.5 -1.29895 -2.236584 -1.767767 -1.767767 
C -2.236584 -1.29895 -2.5 -0.663008 -2.5 0 
C -2.5 0.663008 -2.236584 1.29895 -1.767767 1.767767 
C -1.29895 2.236584 -0.663008 2.5 0 2.5 
z
"/>
    </defs>
    <g clip-path="url(#pa983b05791)">
     <use xlink:href="#mad3a28a95c" x="166.389264" y="242.743722" style="fill-opacity: 0.3"/>
     <use xlink:href="#mad3a28a95c" x="153.448015" y="224.486087" style="fill-opacity: 0.3"/>
     <use xlink:href="#mad3a28a95c" x="161.99563" y="244.888354" style="fill-opacity: 0.3"/>
     <use xlink:href="#mad3a28a95c" x="160.295226" y="244.973694" style="fill-opacity: 0.3"/>
     <use xlink:href="#mad3a28a95c" x="172.58316" y="250.857353" style="fill-opacity: 0.3"/>
     <use xlink:href="#mad3a28a95c" x="151.840108" y="220.591472" style="fill-opacity: 0.3"/>
     <use xlink:href="#mad3a28a95c" x="147.901076" y="255.356016" style="fill-opacity: 0.3"/>
     <use xlink:href="#mad3a28a95c" x="170.171701" y="245.09528" style="fill-opacity: 0.3"/>
     <use xlink:href="#mad3a28a95c" x="169.14965" y="247.897116" style="fill-opacity: 0.3"/>
     <use xlink:href="#mad3a28a95c" x="147.746684" y="245.550653" style="fill-opacity: 0.3"/>
     <use xlink:href="#mad3a28a95c" x="150.40323" y="194.279044" style="fill-opacity: 0.3"/>
     <use xlink:href="#mad3a28a95c" x="152.389956" y="246.959947" style="fill-opacity: 0.3"/>
     <use xlink:href="#mad3a28a95c" x="156.195427" y="247.007157" style="fill-opacity: 0.3"/>
     <use xlink:href="#mad3a28a95c" x="146.175754" y="247.74767" style="fill-opacity: 0.3"/>
     <use xlink:href="#mad3a28a95c" x="166.948486" y="248.010028" style="fill-opacity: 0.3"/>
     <use xlink:href="#mad3a28a95c" x="167.373468" y="246.649403" style="fill-opacity: 0.3"/>
     <use xlink:href="#mad3a28a95c" x="160.721417" y="246.816803" style="fill-opacity: 0.3"/>
     <use xlink:href="#mad3a28a95c" x="152.156905" y="229.128675" style="fill-opacity: 0.3"/>
     <use xlink:href="#mad3a28a95c" x="170.007701" y="230.654859" style="fill-opacity: 0.3"/>
     <use xlink:href="#mad3a28a95c" x="157.580258" y="234.58644" style="fill-opacity: 0.3"/>
     <use xlink:href="#mad3a28a95c" x="170.184391" y="192.299021" style="fill-opacity: 0.3"/>
     <use xlink:href="#mad3a28a95c" x="156.245959" y="215.477823" style="fill-opacity: 0.3"/>
     <use xlink:href="#mad3a28a95c" x="170.563752" y="195.62424" style="fill-opacity: 0.3"/>
     <use xlink:href="#mad3a28a95c" x="155.324896" y="228.407018" style="fill-opacity: 0.3"/>
     <use xlink:href="#mad3a28a95c" x="167.306195" y="196.806838" style="fill-opacity: 0.3"/>
     <use xlink:href="#mad3a28a95c" x="146.912508" y="249.188927" style="fill-opacity: 0.3"/>
     <use xlink:href="#mad3a28a95c" x="164.508072" y="234.475937" style="fill-opacity: 0.3"/>
     <use xlink:href="#mad3a28a95c" x="163.550994" y="244.60096" style="fill-opacity: 0.3"/>
     <use xlink:href="#mad3a28a95c" x="150.182696" y="250.056795" style="fill-opacity: 0.3"/>
     <use xlink:href="#mad3a28a95c" x="156.536007" y="245.670031" style="fill-opacity: 0.3"/>
     <use xlink:href="#mad3a28a95c" x="160.376715" y="247.096481" style="fill-opacity: 0.3"/>
     <use xlink:href="#mad3a28a95c" x="158.017667" y="248.688607" style="fill-opacity: 0.3"/>
     <use xlink:href="#mad3a28a95c" x="164.93372" y="242.892391" style="fill-opacity: 0.3"/>
     <use xlink:href="#mad3a28a95c" x="153.523344" y="247.612612" style="fill-opacity: 0.3"/>
     <use xlink:href="#mad3a28a95c" x="152.198889" y="243.549009" style="fill-opacity: 0.3"/>
     <use xlink:href="#mad3a28a95c" x="147.477582" y="236.062949" style="fill-opacity: 0.3"/>
     <use xlink:href="#mad3a28a95c" x="153.901109" y="256.78626" style="fill-opacity: 0.3"/>
     <use xlink:href="#mad3a28a95c" x="159.194678" y="246.961179" style="fill-opacity: 0.3"/>
     <use xlink:href="#mad3a28a95c" x="157.730857" y="247.078049" style="fill-opacity: 0.3"/>
     <use xlink:href="#mad3a28a95c" x="164.690814" y="247.483681" style="fill-opacity: 0.3"/>
     <use xlink:href="#mad3a28a95c" x="153.565497" y="248.387269" style="fill-opacity: 0.3"/>
     <use xlink:href="#mad3a28a95c" x="161.571224" y="253.077915" style="fill-opacity: 0.3"/>
     <use xlink:href="#mad3a28a95c" x="150.086669" y="246.547959" style="fill-opacity: 0.3"/>
     <use xlink:href="#mad3a28a95c" x="151.045084" y="247.427411" style="fill-opacity: 0.3"/>
     <use xlink:href="#mad3a28a95c" x="149.757775" y="248.007359" style="fill-opacity: 0.3"/>
     <use xlink:href="#mad3a28a95c" x="168.82688" y="247.771434" style="fill-opacity: 0.3"/>
     <use xlink:href="#mad3a28a95c" x="159.654993" y="248.155821" style="fill-opacity: 0.3"/>
     <use xlink:href="#mad3a28a95c" x="164.106698" y="247.785082" style="fill-opacity: 0.3"/>
     <use xlink:href="#mad3a28a95c" x="170.36858" y="247.021515" style="fill-opacity: 0.3"/>
     <use xlink:href="#mad3a28a95c" x="147.191555" y="245.936858" style="fill-opacity: 0.3"/>
     <use xlink:href="#mad3a28a95c" x="151.150163" y="247.676833" style="fill-opacity: 0.3"/>
     <use xlink:href="#mad3a28a95c" x="163.066831" y="245.671548" style="fill-opacity: 0.3"/>
     <use xlink:href="#mad3a28a95c" x="165.637248" y="242.03874" style="fill-opacity: 0.3"/>
     <use xlink:href="#mad3a28a95c" x="161.407484" y="243.397852" style="fill-opacity: 0.3"/>
     <use xlink:href="#mad3a28a95c" x="170.157971" y="247.043432" style="fill-opacity: 0.3"/>
     <use xlink:href="#mad3a28a95c" x="160.484243" y="245.262382" style="fill-opacity: 0.3"/>
     <use xlink:href="#mad3a28a95c" x="161.986081" y="247.476118" style="fill-opacity: 0.3"/>
    </g>
   </g>
   <g id="PathCollection_2">
    <g clip-path="url(#pa983b05791)">
     <use xlink:href="#mad3a28a95c" x="311.032714" y="241.782844" style="fill-opacity: 0.3"/>
     <use xlink:href="#mad3a28a95c" x="310.47398" y="246.760735" style="fill-opacity: 0.3"/>
     <use xlink:href="#mad3a28a95c" x="297.133262" y="245.273106" style="fill-opacity: 0.3"/>
     <use xlink:href="#mad3a28a95c" x="305.540113" y="242.085975" style="fill-opacity: 0.3"/>
     <use xlink:href="#mad3a28a95c" x="295.996406" y="240.313479" style="fill-opacity: 0.3"/>
     <use xlink:href="#mad3a28a95c" x="305.852061" y="246.208623" style="fill-opacity: 0.3"/>
     <use xlink:href="#mad3a28a95c" x="285.604659" y="244.054789" style="fill-opacity: 0.3"/>
     <use xlink:href="#mad3a28a95c" x="309.609139" y="245.338795" style="fill-opacity: 0.3"/>
     <use xlink:href="#mad3a28a95c" x="312.8663" y="242.198457" style="fill-opacity: 0.3"/>
     <use xlink:href="#mad3a28a95c" x="285.711144" y="242.194472" style="fill-opacity: 0.3"/>
     <use xlink:href="#mad3a28a95c" x="303.046885" y="247.941546" style="fill-opacity: 0.3"/>
     <use xlink:href="#mad3a28a95c" x="297.804692" y="245.432522" style="fill-opacity: 0.3"/>
     <use xlink:href="#mad3a28a95c" x="286.758862" y="240.101633" style="fill-opacity: 0.3"/>
     <use xlink:href="#mad3a28a95c" x="290.746125" y="252.833474" style="fill-opacity: 0.3"/>
     <use xlink:href="#mad3a28a95c" x="312.991849" y="251.437969" style="fill-opacity: 0.3"/>
     <use xlink:href="#mad3a28a95c" x="303.982437" y="255.435825" style="fill-opacity: 0.3"/>
     <use xlink:href="#mad3a28a95c" x="297.407787" y="249.354478" style="fill-opacity: 0.3"/>
     <use xlink:href="#mad3a28a95c" x="309.259317" y="250.331054" style="fill-opacity: 0.3"/>
     <use xlink:href="#mad3a28a95c" x="297.022905" y="238.974732" style="fill-opacity: 0.3"/>
     <use xlink:href="#mad3a28a95c" x="302.718721" y="225.7845" style="fill-opacity: 0.3"/>
     <use xlink:href="#mad3a28a95c" x="300.264178" y="228.269516" style="fill-opacity: 0.3"/>
     <use xlink:href="#mad3a28a95c" x="296.946124" y="206.150473" style="fill-opacity: 0.3"/>
     <use xlink:href="#mad3a28a95c" x="301.425993" y="136.600736" style="fill-opacity: 0.3"/>
     <use xlink:href="#mad3a28a95c" x="295.565345" y="196.486604" style="fill-opacity: 0.3"/>
     <use xlink:href="#mad3a28a95c" x="296.399788" y="242.855685" style="fill-opacity: 0.3"/>
     <use xlink:href="#mad3a28a95c" x="303.586187" y="251.120682" style="fill-opacity: 0.3"/>
     <use xlink:href="#mad3a28a95c" x="293.619063" y="240.038936" style="fill-opacity: 0.3"/>
     <use xlink:href="#mad3a28a95c" x="299.050924" y="245.078179" style="fill-opacity: 0.3"/>
     <use xlink:href="#mad3a28a95c" x="287.904489" y="244.983399" style="fill-opacity: 0.3"/>
     <use xlink:href="#mad3a28a95c" x="304.641864" y="248.463863" style="fill-opacity: 0.3"/>
     <use xlink:href="#mad3a28a95c" x="302.522081" y="240.067102" style="fill-opacity: 0.3"/>
     <use xlink:href="#mad3a28a95c" x="299.063585" y="231.275439" style="fill-opacity: 0.3"/>
     <use xlink:href="#mad3a28a95c" x="307.937303" y="243.639258" style="fill-opacity: 0.3"/>
     <use xlink:href="#mad3a28a95c" x="287.712656" y="226.964658" style="fill-opacity: 0.3"/>
     <use xlink:href="#mad3a28a95c" x="290.082746" y="231.660557" style="fill-opacity: 0.3"/>
     <use xlink:href="#mad3a28a95c" x="296.422429" y="252.479314" style="fill-opacity: 0.3"/>
     <use xlink:href="#mad3a28a95c" x="305.179994" y="245.332504" style="fill-opacity: 0.3"/>
     <use xlink:href="#mad3a28a95c" x="305.960649" y="244.421101" style="fill-opacity: 0.3"/>
     <use xlink:href="#mad3a28a95c" x="286.49535" y="245.957372" style="fill-opacity: 0.3"/>
     <use xlink:href="#mad3a28a95c" x="309.158169" y="280.545024" style="fill-opacity: 0.3"/>
     <use xlink:href="#mad3a28a95c" x="296.802968" y="260.707613" style="fill-opacity: 0.3"/>
     <use xlink:href="#mad3a28a95c" x="303.321226" y="233.583718" style="fill-opacity: 0.3"/>
     <use xlink:href="#mad3a28a95c" x="290.49477" y="246.627628" style="fill-opacity: 0.3"/>
     <use xlink:href="#mad3a28a95c" x="289.193256" y="247.352871" style="fill-opacity: 0.3"/>
     <use xlink:href="#mad3a28a95c" x="307.125043" y="226.177104" style="fill-opacity: 0.3"/>
     <use xlink:href="#mad3a28a95c" x="311.019752" y="258.815807" style="fill-opacity: 0.3"/>
     <use xlink:href="#mad3a28a95c" x="300.507646" y="240.634609" style="fill-opacity: 0.3"/>
     <use xlink:href="#mad3a28a95c" x="293.533277" y="249.583442" style="fill-opacity: 0.3"/>
     <use xlink:href="#mad3a28a95c" x="312.271023" y="253.838454" style="fill-opacity: 0.3"/>
     <use xlink:href="#mad3a28a95c" x="312.945571" y="239.488688" style="fill-opacity: 0.3"/>
     <use xlink:href="#mad3a28a95c" x="291.45656" y="249.34355" style="fill-opacity: 0.3"/>
     <use xlink:href="#mad3a28a95c" x="300.336577" y="269.156976" style="fill-opacity: 0.3"/>
     <use xlink:href="#mad3a28a95c" x="300.260988" y="256.98882" style="fill-opacity: 0.3"/>
     <use xlink:href="#mad3a28a95c" x="312.747109" y="239.03008" style="fill-opacity: 0.3"/>
     <use xlink:href="#mad3a28a95c" x="310.24807" y="238.512252" style="fill-opacity: 0.3"/>
     <use xlink:href="#mad3a28a95c" x="299.595521" y="238.246045" style="fill-opacity: 0.3"/>
     <use xlink:href="#mad3a28a95c" x="299.929701" y="244.943523" style="fill-opacity: 0.3"/>
     <use xlink:href="#mad3a28a95c" x="296.011111" y="248.695743" style="fill-opacity: 0.3"/>
     <use xlink:href="#mad3a28a95c" x="290.55115" y="242.434256" style="fill-opacity: 0.3"/>
     <use xlink:href="#mad3a28a95c" x="289.746861" y="255.401673" style="fill-opacity: 0.3"/>
     <use xlink:href="#mad3a28a95c" x="287.202706" y="243.822473" style="fill-opacity: 0.3"/>
     <use xlink:href="#mad3a28a95c" x="300.139069" y="246.747951" style="fill-opacity: 0.3"/>
     <use xlink:href="#mad3a28a95c" x="309.417894" y="250.100951" style="fill-opacity: 0.3"/>
     <use xlink:href="#mad3a28a95c" x="304.223001" y="245.028608" style="fill-opacity: 0.3"/>
     <use xlink:href="#mad3a28a95c" x="289.347333" y="235.681406" style="fill-opacity: 0.3"/>
     <use xlink:href="#mad3a28a95c" x="307.550396" y="251.011887" style="fill-opacity: 0.3"/>
     <use xlink:href="#mad3a28a95c" x="310.076945" y="237.811657" style="fill-opacity: 0.3"/>
     <use xlink:href="#mad3a28a95c" x="310.900636" y="246.231835" style="fill-opacity: 0.3"/>
     <use xlink:href="#mad3a28a95c" x="289.461222" y="235.560772" style="fill-opacity: 0.3"/>
     <use xlink:href="#mad3a28a95c" x="309.838372" y="247.603637" style="fill-opacity: 0.3"/>
     <use xlink:href="#mad3a28a95c" x="291.257845" y="246.738531" style="fill-opacity: 0.3"/>
     <use xlink:href="#mad3a28a95c" x="287.106918" y="240.856188" style="fill-opacity: 0.3"/>
     <use xlink:href="#mad3a28a95c" x="311.996993" y="243.989837" style="fill-opacity: 0.3"/>
     <use xlink:href="#mad3a28a95c" x="287.67025" y="243.776027" style="fill-opacity: 0.3"/>
     <use xlink:href="#mad3a28a95c" x="309.749431" y="246.807154" style="fill-opacity: 0.3"/>
     <use xlink:href="#mad3a28a95c" x="304.017059" y="246.154768" style="fill-opacity: 0.3"/>
     <use xlink:href="#mad3a28a95c" x="302.694817" y="225.347454" style="fill-opacity: 0.3"/>
     <use xlink:href="#mad3a28a95c" x="293.585705" y="247.650941" style="fill-opacity: 0.3"/>
     <use xlink:href="#mad3a28a95c" x="299.748126" y="247.463491" style="fill-opacity: 0.3"/>
     <use xlink:href="#mad3a28a95c" x="305.634825" y="252.770453" style="fill-opacity: 0.3"/>
     <use xlink:href="#mad3a28a95c" x="285.990123" y="245.795972" style="fill-opacity: 0.3"/>
     <use xlink:href="#mad3a28a95c" x="305.293672" y="246.144273" style="fill-opacity: 0.3"/>
     <use xlink:href="#mad3a28a95c" x="287.923009" y="247.53444" style="fill-opacity: 0.3"/>
     <use xlink:href="#mad3a28a95c" x="302.335256" y="246.569484" style="fill-opacity: 0.3"/>
     <use xlink:href="#mad3a28a95c" x="308.83129" y="245.682199" style="fill-opacity: 0.3"/>
     <use xlink:href="#mad3a28a95c" x="295.109285" y="245.075592" style="fill-opacity: 0.3"/>
     <use xlink:href="#mad3a28a95c" x="304.622262" y="244.188697" style="fill-opacity: 0.3"/>
     <use xlink:href="#mad3a28a95c" x="286.748336" y="247.16682" style="fill-opacity: 0.3"/>
     <use xlink:href="#mad3a28a95c" x="294.543578" y="247.740995" style="fill-opacity: 0.3"/>
     <use xlink:href="#mad3a28a95c" x="291.451434" y="246.817456" style="fill-opacity: 0.3"/>
     <use xlink:href="#mad3a28a95c" x="299.909492" y="245.403665" style="fill-opacity: 0.3"/>
     <use xlink:href="#mad3a28a95c" x="311.325754" y="240.107359" style="fill-opacity: 0.3"/>
     <use xlink:href="#mad3a28a95c" x="302.951212" y="247.435855" style="fill-opacity: 0.3"/>
     <use xlink:href="#mad3a28a95c" x="294.804577" y="251.148186" style="fill-opacity: 0.3"/>
     <use xlink:href="#mad3a28a95c" x="293.797502" y="245.064445" style="fill-opacity: 0.3"/>
     <use xlink:href="#mad3a28a95c" x="301.033218" y="245.488472" style="fill-opacity: 0.3"/>
     <use xlink:href="#mad3a28a95c" x="297.971601" y="245.843813" style="fill-opacity: 0.3"/>
     <use xlink:href="#mad3a28a95c" x="303.325787" y="246.285898" style="fill-opacity: 0.3"/>
     <use xlink:href="#mad3a28a95c" x="286.053178" y="246.84148" style="fill-opacity: 0.3"/>
    </g>
   </g>
   <g id="PathCollection_3">
    <g clip-path="url(#pa983b05791)">
     <use xlink:href="#mad3a28a95c" x="435.527766" y="248.578271" style="fill-opacity: 0.3"/>
     <use xlink:href="#mad3a28a95c" x="449.741414" y="251.258011" style="fill-opacity: 0.3"/>
     <use xlink:href="#mad3a28a95c" x="429.173514" y="243.475558" style="fill-opacity: 0.3"/>
     <use xlink:href="#mad3a28a95c" x="445.917176" y="246.481933" style="fill-opacity: 0.3"/>
     <use xlink:href="#mad3a28a95c" x="444.947082" y="238.116567" style="fill-opacity: 0.3"/>
     <use xlink:href="#mad3a28a95c" x="428.715842" y="244.751199" style="fill-opacity: 0.3"/>
     <use xlink:href="#mad3a28a95c" x="432.681703" y="246.145822" style="fill-opacity: 0.3"/>
     <use xlink:href="#mad3a28a95c" x="429.86455" y="248.488268" style="fill-opacity: 0.3"/>
     <use xlink:href="#mad3a28a95c" x="439.815851" y="243.305148" style="fill-opacity: 0.3"/>
     <use xlink:href="#mad3a28a95c" x="450.349664" y="247.115256" style="fill-opacity: 0.3"/>
     <use xlink:href="#mad3a28a95c" x="445.535341" y="248.257316" style="fill-opacity: 0.3"/>
     <use xlink:href="#mad3a28a95c" x="448.444411" y="242.657836" style="fill-opacity: 0.3"/>
     <use xlink:href="#mad3a28a95c" x="449.557083" y="246.27766" style="fill-opacity: 0.3"/>
     <use xlink:href="#mad3a28a95c" x="442.887212" y="79.419859" style="fill-opacity: 0.3"/>
     <use xlink:href="#mad3a28a95c" x="437.109187" y="243.813967" style="fill-opacity: 0.3"/>
     <use xlink:href="#mad3a28a95c" x="449.927466" y="244.389941" style="fill-opacity: 0.3"/>
     <use xlink:href="#mad3a28a95c" x="428.051517" y="239.939937" style="fill-opacity: 0.3"/>
     <use xlink:href="#mad3a28a95c" x="446.821221" y="240.481462" style="fill-opacity: 0.3"/>
     <use xlink:href="#mad3a28a95c" x="435.968054" y="243.65109" style="fill-opacity: 0.3"/>
     <use xlink:href="#mad3a28a95c" x="447.538773" y="250.211481" style="fill-opacity: 0.3"/>
     <use xlink:href="#mad3a28a95c" x="436.667078" y="246.667898" style="fill-opacity: 0.3"/>
     <use xlink:href="#mad3a28a95c" x="438.74776" y="225.826171" style="fill-opacity: 0.3"/>
     <use xlink:href="#mad3a28a95c" x="445.504315" y="284.180141" style="fill-opacity: 0.3"/>
     <use xlink:href="#mad3a28a95c" x="447.652261" y="224.206092" style="fill-opacity: 0.3"/>
     <use xlink:href="#mad3a28a95c" x="433.289305" y="253.829385" style="fill-opacity: 0.3"/>
     <use xlink:href="#mad3a28a95c" x="445.634665" y="259.702371" style="fill-opacity: 0.3"/>
     <use xlink:href="#mad3a28a95c" x="436.330569" y="242.142975" style="fill-opacity: 0.3"/>
     <use xlink:href="#mad3a28a95c" x="443.55781" y="247.535804" style="fill-opacity: 0.3"/>
     <use xlink:href="#mad3a28a95c" x="442.020903" y="250.012204" style="fill-opacity: 0.3"/>
     <use xlink:href="#mad3a28a95c" x="434.721291" y="238.572192" style="fill-opacity: 0.3"/>
     <use xlink:href="#mad3a28a95c" x="437.306635" y="258.755823" style="fill-opacity: 0.3"/>
     <use xlink:href="#mad3a28a95c" x="450.197224" y="252.964287" style="fill-opacity: 0.3"/>
     <use xlink:href="#mad3a28a95c" x="442.966102" y="252.226619" style="fill-opacity: 0.3"/>
     <use xlink:href="#mad3a28a95c" x="446.433746" y="250.802226" style="fill-opacity: 0.3"/>
     <use xlink:href="#mad3a28a95c" x="428.388579" y="250.126312" style="fill-opacity: 0.3"/>
     <use xlink:href="#mad3a28a95c" x="443.47936" y="247.945936" style="fill-opacity: 0.3"/>
     <use xlink:href="#mad3a28a95c" x="447.381141" y="231.847532" style="fill-opacity: 0.3"/>
     <use xlink:href="#mad3a28a95c" x="446.856266" y="244.103658" style="fill-opacity: 0.3"/>
     <use xlink:href="#mad3a28a95c" x="437.053797" y="244.199319" style="fill-opacity: 0.3"/>
     <use xlink:href="#mad3a28a95c" x="447.721632" y="244.517453" style="fill-opacity: 0.3"/>
     <use xlink:href="#mad3a28a95c" x="425.489536" y="248.922652" style="fill-opacity: 0.3"/>
     <use xlink:href="#mad3a28a95c" x="427.991988" y="244.468681" style="fill-opacity: 0.3"/>
     <use xlink:href="#mad3a28a95c" x="446.418052" y="249.61424" style="fill-opacity: 0.3"/>
     <use xlink:href="#mad3a28a95c" x="425.277913" y="250.871494" style="fill-opacity: 0.3"/>
     <use xlink:href="#mad3a28a95c" x="426.345823" y="245.965929" style="fill-opacity: 0.3"/>
     <use xlink:href="#mad3a28a95c" x="436.762292" y="245.819173" style="fill-opacity: 0.3"/>
     <use xlink:href="#mad3a28a95c" x="442.658902" y="246.94085" style="fill-opacity: 0.3"/>
     <use xlink:href="#mad3a28a95c" x="431.695337" y="235.283655" style="fill-opacity: 0.3"/>
    </g>
   </g>
   <g id="PathCollection_4">
    <g clip-path="url(#pa983b05791)">
     <use xlink:href="#mad3a28a95c" x="578.686232" y="241.584855" style="fill-opacity: 0.3"/>
     <use xlink:href="#mad3a28a95c" x="587.010828" y="249.417467" style="fill-opacity: 0.3"/>
     <use xlink:href="#mad3a28a95c" x="576.469636" y="245.29163" style="fill-opacity: 0.3"/>
     <use xlink:href="#mad3a28a95c" x="588.253342" y="247.410254" style="fill-opacity: 0.3"/>
     <use xlink:href="#mad3a28a95c" x="578.357657" y="249.810502" style="fill-opacity: 0.3"/>
     <use xlink:href="#mad3a28a95c" x="590.747453" y="240.359189" style="fill-opacity: 0.3"/>
     <use xlink:href="#mad3a28a95c" x="566.526449" y="248.340654" style="fill-opacity: 0.3"/>
     <use xlink:href="#mad3a28a95c" x="585.855581" y="243.919471" style="fill-opacity: 0.3"/>
     <use xlink:href="#mad3a28a95c" x="568.556122" y="246.828898" style="fill-opacity: 0.3"/>
     <use xlink:href="#mad3a28a95c" x="583.2146" y="243.595514" style="fill-opacity: 0.3"/>
     <use xlink:href="#mad3a28a95c" x="577.576814" y="244.024746" style="fill-opacity: 0.3"/>
     <use xlink:href="#mad3a28a95c" x="591.736057" y="247.428711" style="fill-opacity: 0.3"/>
     <use xlink:href="#mad3a28a95c" x="579.315842" y="246.300924" style="fill-opacity: 0.3"/>
     <use xlink:href="#mad3a28a95c" x="564.916807" y="247.767286" style="fill-opacity: 0.3"/>
     <use xlink:href="#mad3a28a95c" x="575.478765" y="244.861196" style="fill-opacity: 0.3"/>
     <use xlink:href="#mad3a28a95c" x="590.760041" y="247.554727" style="fill-opacity: 0.3"/>
     <use xlink:href="#mad3a28a95c" x="577.906128" y="246.147096" style="fill-opacity: 0.3"/>
     <use xlink:href="#mad3a28a95c" x="582.745605" y="241.835206" style="fill-opacity: 0.3"/>
     <use xlink:href="#mad3a28a95c" x="574.430268" y="243.796608" style="fill-opacity: 0.3"/>
     <use xlink:href="#mad3a28a95c" x="586.988011" y="247.11224" style="fill-opacity: 0.3"/>
     <use xlink:href="#mad3a28a95c" x="565.374433" y="246.820661" style="fill-opacity: 0.3"/>
     <use xlink:href="#mad3a28a95c" x="582.735725" y="245.454823" style="fill-opacity: 0.3"/>
     <use xlink:href="#mad3a28a95c" x="587.992644" y="246.518396" style="fill-opacity: 0.3"/>
     <use xlink:href="#mad3a28a95c" x="566.393414" y="247.172323" style="fill-opacity: 0.3"/>
     <use xlink:href="#mad3a28a95c" x="579.48575" y="246.517709" style="fill-opacity: 0.3"/>
     <use xlink:href="#mad3a28a95c" x="564.300841" y="246.625548" style="fill-opacity: 0.3"/>
     <use xlink:href="#mad3a28a95c" x="576.652118" y="247.426933" style="fill-opacity: 0.3"/>
     <use xlink:href="#mad3a28a95c" x="586.341689" y="245.575421" style="fill-opacity: 0.3"/>
     <use xlink:href="#mad3a28a95c" x="572.930879" y="245.126246" style="fill-opacity: 0.3"/>
     <use xlink:href="#mad3a28a95c" x="578.829274" y="247.607668" style="fill-opacity: 0.3"/>
     <use xlink:href="#mad3a28a95c" x="584.384314" y="246.964538" style="fill-opacity: 0.3"/>
    </g>
   </g>
  </g>
 </g>
 <defs>
  <clipPath id="pa983b05791">
   <rect x="90" y="43.2" width="558" height="277.2"/>
  </clipPath>
 </defs>
</svg>
