<?xml version="1.0" encoding="utf-8" standalone="no"?>
<!DOCTYPE svg PUBLIC "-//W3C//DTD SVG 1.1//EN"
  "http://www.w3.org/Graphics/SVG/1.1/DTD/svg11.dtd">
<svg xmlns:xlink="http://www.w3.org/1999/xlink" width="720pt" height="360pt" viewBox="0 0 720 360" xmlns="http://www.w3.org/2000/svg" version="1.1">
 <metadata>
  <rdf:RDF xmlns:dc="http://purl.org/dc/elements/1.1/" xmlns:cc="http://creativecommons.org/ns#" xmlns:rdf="http://www.w3.org/1999/02/22-rdf-syntax-ns#">
   <cc:Work>
    <dc:type rdf:resource="http://purl.org/dc/dcmitype/StillImage"/>
    <dc:date>2025-09-09T16:54:32.575437</dc:date>
    <dc:format>image/svg+xml</dc:format>
    <dc:creator>
     <cc:Agent>
      <dc:title>Matplotlib v3.10.3, https://matplotlib.org/</dc:title>
     </cc:Agent>
    </dc:creator>
   </cc:Work>
  </rdf:RDF>
 </metadata>
 <defs>
  <style type="text/css">*{stroke-linejoin: round; stroke-linecap: butt}</style>
 </defs>
 <g id="figure_1">
  <g id="patch_1">
   <path d="M 0 360 
L 720 360 
L 720 0 
L 0 0 
z
" style="fill: #ffffff"/>
  </g>
  <g id="axes_1">
   <g id="patch_2">
    <path d="M 90 320.4 
L 648 320.4 
L 648 43.2 
L 90 43.2 
z
" style="fill: #ffffff"/>
   </g>
   <g id="FillBetweenPolyCollection_1">
    <defs>
     <path id="m8b4be490e6" d="M 161.070998 -62.105824 
L 158.429002 -62.105824 
L 158.092354 -64.451161 
L 157.698157 -66.796498 
L 157.244702 -69.141835 
L 156.732568 -71.487172 
L 156.165088 -73.832508 
L 155.548711 -76.177845 
L 154.893205 -78.523182 
L 154.211647 -80.868519 
L 153.520182 -83.213856 
L 152.837507 -85.559193 
L 152.184112 -87.90453 
L 151.581306 -90.249867 
L 151.050069 -92.595204 
L 150.609832 -94.94054 
L 150.277272 -97.285877 
L 150.065204 -99.631214 
L 149.981682 -101.976551 
L 150.029381 -104.321888 
L 150.205285 -106.667225 
L 150.50073 -109.012562 
L 150.901758 -111.357899 
L 151.389737 -113.703236 
L 151.942178 -116.048572 
L 152.533644 -118.393909 
L 153.136661 -120.739246 
L 153.72254 -123.084583 
L 154.262044 -125.42992 
L 154.725858 -127.775257 
L 155.08486 -130.120594 
L 155.31023 -132.465931 
L 155.37346 -134.811268 
L 155.246356 -137.156604 
L 154.901153 -139.501941 
L 154.310839 -141.847278 
L 153.449785 -144.192615 
L 152.294754 -146.537952 
L 150.826297 -148.883289 
L 149.0305 -151.228626 
L 146.900998 -153.573963 
L 144.441074 -155.9193 
L 141.665645 -158.264636 
L 138.602893 -160.609973 
L 135.295267 -162.95531 
L 131.79963 -165.300647 
L 128.18636 -167.645984 
L 124.537295 -169.991321 
L 120.942536 -172.336658 
L 117.49623 -174.681995 
L 114.291585 -177.027332 
L 111.415492 -179.372668 
L 108.943196 -181.718005 
L 106.933495 -184.063342 
L 105.424956 -186.408679 
L 104.433513 -188.754016 
L 103.951756 -191.099353 
L 103.95 -193.44469 
L 104.379077 -195.790027 
L 105.174603 -198.135364 
L 106.262316 -200.4807 
L 107.563971 -202.826037 
L 109.003227 -205.171374 
L 110.510974 -207.516711 
L 112.029631 -209.862048 
L 113.516056 -212.207385 
L 114.942899 -214.552722 
L 116.298394 -216.898059 
L 117.584749 -219.243396 
L 118.815438 -221.588732 
L 120.011798 -223.934069 
L 121.199346 -226.279406 
L 122.404239 -228.624743 
L 123.650219 -230.97008 
L 124.956287 -233.315417 
L 126.335233 -235.660754 
L 127.793038 -238.006091 
L 129.329041 -240.351428 
L 130.93671 -242.696764 
L 132.604816 -245.042101 
L 134.318784 -247.387438 
L 136.062034 -249.732775 
L 137.817175 -252.078112 
L 139.566955 -254.423449 
L 141.294939 -256.768786 
L 142.985933 -259.114123 
L 144.626202 -261.45946 
L 146.203549 -263.804796 
L 147.707323 -266.150133 
L 149.128409 -268.49547 
L 150.459243 -270.840807 
L 151.69385 -273.186144 
L 152.82792 -275.531481 
L 153.858883 -277.876818 
L 154.785962 -280.222155 
L 155.610183 -282.567492 
L 156.334317 -284.912828 
L 156.96274 -287.258165 
L 157.501227 -289.603502 
L 157.956673 -291.948839 
L 158.336786 -294.294176 
L 161.163214 -294.294176 
L 161.163214 -294.294176 
L 161.543327 -291.948839 
L 161.998773 -289.603502 
L 162.53726 -287.258165 
L 163.165683 -284.912828 
L 163.889817 -282.567492 
L 164.714038 -280.222155 
L 165.641117 -277.876818 
L 166.67208 -275.531481 
L 167.80615 -273.186144 
L 169.040757 -270.840807 
L 170.371591 -268.49547 
L 171.792677 -266.150133 
L 173.296451 -263.804796 
L 174.873798 -261.45946 
L 176.514067 -259.114123 
L 178.205061 -256.768786 
L 179.933045 -254.423449 
L 181.682825 -252.078112 
L 183.437966 -249.732775 
L 185.181216 -247.387438 
L 186.895184 -245.042101 
L 188.56329 -242.696764 
L 190.170959 -240.351428 
L 191.706962 -238.006091 
L 193.164767 -235.660754 
L 194.543713 -233.315417 
L 195.849781 -230.97008 
L 197.095761 -228.624743 
L 198.300654 -226.279406 
L 199.488202 -223.934069 
L 200.684562 -221.588732 
L 201.915251 -219.243396 
L 203.201606 -216.898059 
L 204.557101 -214.552722 
L 205.983944 -212.207385 
L 207.470369 -209.862048 
L 208.989026 -207.516711 
L 210.496773 -205.171374 
L 211.936029 -202.826037 
L 213.237684 -200.4807 
L 214.325397 -198.135364 
L 215.120923 -195.790027 
L 215.55 -193.44469 
L 215.548244 -191.099353 
L 215.066487 -188.754016 
L 214.075044 -186.408679 
L 212.566505 -184.063342 
L 210.556804 -181.718005 
L 208.084508 -179.372668 
L 205.208415 -177.027332 
L 202.00377 -174.681995 
L 198.557464 -172.336658 
L 194.962705 -169.991321 
L 191.31364 -167.645984 
L 187.70037 -165.300647 
L 184.204733 -162.95531 
L 180.897107 -160.609973 
L 177.834355 -158.264636 
L 175.058926 -155.9193 
L 172.599002 -153.573963 
L 170.4695 -151.228626 
L 168.673703 -148.883289 
L 167.205246 -146.537952 
L 166.050215 -144.192615 
L 165.189161 -141.847278 
L 164.598847 -139.501941 
L 164.253644 -137.156604 
L 164.12654 -134.811268 
L 164.18977 -132.465931 
L 164.41514 -130.120594 
L 164.774142 -127.775257 
L 165.237956 -125.42992 
L 165.77746 -123.084583 
L 166.363339 -120.739246 
L 166.966356 -118.393909 
L 167.557822 -116.048572 
L 168.110263 -113.703236 
L 168.598242 -111.357899 
L 168.99927 -109.012562 
L 169.294715 -106.667225 
L 169.470619 -104.321888 
L 169.518318 -101.976551 
L 169.434796 -99.631214 
L 169.222728 -97.285877 
L 168.890168 -94.94054 
L 168.449931 -92.595204 
L 167.918694 -90.249867 
L 167.315888 -87.90453 
L 166.662493 -85.559193 
L 165.979818 -83.213856 
L 165.288353 -80.868519 
L 164.606795 -78.523182 
L 163.951289 -76.177845 
L 163.334912 -73.832508 
L 162.767432 -71.487172 
L 162.255298 -69.141835 
L 161.801843 -66.796498 
L 161.407646 -64.451161 
L 161.070998 -62.105824 
z
" style="stroke: #3d3d3d; stroke-width: 1.25"/>
    </defs>
    <g clip-path="url(#pe8c28ed5ec)">
     <use xlink:href="#m8b4be490e6" x="0" y="360" style="fill: #3274a1; stroke: #3d3d3d; stroke-width: 1.25"/>
    </g>
   </g>
   <g id="FillBetweenPolyCollection_2">
    <defs>
     <path id="m55d243e109" d="M 301.409861 -57.930663 
L 297.090139 -57.930663 
L 296.569393 -60.360347 
L 295.962754 -62.79003 
L 295.266879 -65.219714 
L 294.48122 -67.649397 
L 293.608635 -70.079081 
L 292.655913 -72.508765 
L 291.634131 -74.938448 
L 290.558808 -77.368132 
L 289.449787 -79.797815 
L 288.330831 -82.227499 
L 287.228912 -84.657182 
L 286.173208 -87.086866 
L 285.193847 -89.51655 
L 284.320469 -91.946233 
L 283.580686 -94.375917 
L 282.998547 -96.8056 
L 282.593109 -99.235284 
L 282.377227 -101.664967 
L 282.356637 -104.094651 
L 282.529403 -106.524335 
L 282.885771 -108.954018 
L 283.408409 -111.383702 
L 284.073027 -113.813385 
L 284.849298 -116.243069 
L 285.702015 -118.672752 
L 286.592388 -121.102436 
L 287.479391 -123.53212 
L 288.321086 -125.961803 
L 289.075862 -128.391487 
L 289.70355 -130.82117 
L 290.166411 -133.250854 
L 290.430011 -135.680537 
L 290.464001 -138.110221 
L 290.242869 -140.539905 
L 289.746673 -142.969588 
L 288.961807 -145.399272 
L 287.88179 -147.828955 
L 286.508062 -150.258639 
L 284.850744 -152.688322 
L 282.929259 -155.118006 
L 280.772735 -157.54769 
L 278.420068 -159.977373 
L 275.919529 -162.407057 
L 273.32784 -164.83674 
L 270.708647 -167.266424 
L 268.130394 -169.696107 
L 265.663639 -172.125791 
L 263.377925 -174.555475 
L 261.338366 -176.985158 
L 259.602157 -179.414842 
L 258.215243 -181.844525 
L 257.2094 -184.274209 
L 256.599945 -186.703893 
L 256.38427 -189.133576 
L 256.541352 -191.56326 
L 257.032278 -193.992943 
L 257.801809 -196.422627 
L 258.78088 -198.85231 
L 259.889912 -201.281994 
L 261.042729 -203.711678 
L 262.150863 -206.141361 
L 263.128009 -208.571045 
L 263.894399 -211.000728 
L 264.380866 -213.430412 
L 264.532426 -215.860095 
L 264.311208 -218.289779 
L 263.698608 -220.719463 
L 262.696578 -223.149146 
L 261.327986 -225.57883 
L 259.63602 -228.008513 
L 257.68262 -230.438197 
L 255.546 -232.86788 
L 253.317307 -235.297564 
L 251.096554 -237.727248 
L 248.987994 -240.156931 
L 247.095147 -242.586615 
L 245.515737 -245.016298 
L 244.336828 -247.445982 
L 243.63045 -249.875665 
L 243.45 -252.305349 
L 243.827656 -254.735033 
L 244.772985 -257.164716 
L 246.272837 -259.5944 
L 248.292537 -262.024083 
L 250.778263 -264.453767 
L 253.66043 -266.88345 
L 256.857822 -269.313134 
L 260.282148 -271.742818 
L 263.842712 -274.172501 
L 267.450852 -276.602185 
L 271.023895 -279.031868 
L 274.488378 -281.461552 
L 277.782421 -283.891235 
L 280.857166 -286.320919 
L 283.677306 -288.750603 
L 286.22079 -291.180286 
L 288.477841 -293.60997 
L 290.449441 -296.039653 
L 292.145493 -298.469337 
L 306.354507 -298.469337 
L 306.354507 -298.469337 
L 308.050559 -296.039653 
L 310.022159 -293.60997 
L 312.27921 -291.180286 
L 314.822694 -288.750603 
L 317.642834 -286.320919 
L 320.717579 -283.891235 
L 324.011622 -281.461552 
L 327.476105 -279.031868 
L 331.049148 -276.602185 
L 334.657288 -274.172501 
L 338.217852 -271.742818 
L 341.642178 -269.313134 
L 344.83957 -266.88345 
L 347.721737 -264.453767 
L 350.207463 -262.024083 
L 352.227163 -259.5944 
L 353.727015 -257.164716 
L 354.672344 -254.735033 
L 355.05 -252.305349 
L 354.86955 -249.875665 
L 354.163172 -247.445982 
L 352.984263 -245.016298 
L 351.404853 -242.586615 
L 349.512006 -240.156931 
L 347.403446 -237.727248 
L 345.182693 -235.297564 
L 342.954 -232.86788 
L 340.81738 -230.438197 
L 338.86398 -228.008513 
L 337.172014 -225.57883 
L 335.803422 -223.149146 
L 334.801392 -220.719463 
L 334.188792 -218.289779 
L 333.967574 -215.860095 
L 334.119134 -213.430412 
L 334.605601 -211.000728 
L 335.371991 -208.571045 
L 336.349137 -206.141361 
L 337.457271 -203.711678 
L 338.610088 -201.281994 
L 339.71912 -198.85231 
L 340.698191 -196.422627 
L 341.467722 -193.992943 
L 341.958648 -191.56326 
L 342.11573 -189.133576 
L 341.900055 -186.703893 
L 341.2906 -184.274209 
L 340.284757 -181.844525 
L 338.897843 -179.414842 
L 337.161634 -176.985158 
L 335.122075 -174.555475 
L 332.836361 -172.125791 
L 330.369606 -169.696107 
L 327.791353 -167.266424 
L 325.17216 -164.83674 
L 322.580471 -162.407057 
L 320.079932 -159.977373 
L 317.727265 -157.54769 
L 315.570741 -155.118006 
L 313.649256 -152.688322 
L 311.991938 -150.258639 
L 310.61821 -147.828955 
L 309.538193 -145.399272 
L 308.753327 -142.969588 
L 308.257131 -140.539905 
L 308.035999 -138.110221 
L 308.069989 -135.680537 
L 308.333589 -133.250854 
L 308.79645 -130.82117 
L 309.424138 -128.391487 
L 310.178914 -125.961803 
L 311.020609 -123.53212 
L 311.907612 -121.102436 
L 312.797985 -118.672752 
L 313.650702 -116.243069 
L 314.426973 -113.813385 
L 315.091591 -111.383702 
L 315.614229 -108.954018 
L 315.970597 -106.524335 
L 316.143363 -104.094651 
L 316.122773 -101.664967 
L 315.906891 -99.235284 
L 315.501453 -96.8056 
L 314.919314 -94.375917 
L 314.179531 -91.946233 
L 313.306153 -89.51655 
L 312.326792 -87.086866 
L 311.271088 -84.657182 
L 310.169169 -82.227499 
L 309.050213 -79.797815 
L 307.941192 -77.368132 
L 306.865869 -74.938448 
L 305.844087 -72.508765 
L 304.891365 -70.079081 
L 304.01878 -67.649397 
L 303.233121 -65.219714 
L 302.537246 -62.79003 
L 301.930607 -60.360347 
L 301.409861 -57.930663 
z
" style="stroke: #3d3d3d; stroke-width: 1.25"/>
    </defs>
    <g clip-path="url(#pe8c28ed5ec)">
     <use xlink:href="#m55d243e109" x="0" y="360" style="fill: #e1812c; stroke: #3d3d3d; stroke-width: 1.25"/>
    </g>
   </g>
   <g id="FillBetweenPolyCollection_3">
    <defs>
     <path id="mf7b3abe46b" d="M 439.505753 -61.492142 
L 437.994247 -61.492142 
L 437.791571 -63.849877 
L 437.550581 -66.207611 
L 437.268803 -68.565346 
L 436.944965 -70.92308 
L 436.579352 -73.280815 
L 436.174131 -75.638549 
L 435.733603 -77.996284 
L 435.264352 -80.354018 
L 434.775257 -82.711753 
L 434.277347 -85.069487 
L 433.783479 -87.427222 
L 433.307842 -89.784956 
L 432.865314 -92.142691 
L 432.470699 -94.500425 
L 432.1379 -96.85816 
L 431.879085 -99.215894 
L 431.70391 -101.573629 
L 431.618864 -103.931363 
L 431.626788 -106.289098 
L 431.7266 -108.646832 
L 431.913247 -111.004567 
L 432.177878 -113.362301 
L 432.508204 -115.720036 
L 432.889011 -118.07777 
L 433.302761 -120.435505 
L 433.730221 -122.793239 
L 434.151068 -125.150974 
L 434.544412 -127.508708 
L 434.88923 -129.866443 
L 435.164682 -132.224177 
L 435.350348 -134.581912 
L 435.4264 -136.939646 
L 435.37379 -139.297381 
L 435.174494 -141.655115 
L 434.811876 -144.01285 
L 434.271226 -146.370584 
L 433.540487 -148.728319 
L 432.611166 -151.086053 
L 431.479389 -153.443788 
L 430.147007 -155.801522 
L 428.622652 -158.159257 
L 426.922596 -160.516991 
L 425.071267 -162.874726 
L 423.101271 -165.23246 
L 421.052822 -167.590195 
L 418.972505 -169.947929 
L 416.911366 -172.305664 
L 414.9224 -174.663398 
L 413.057579 -177.021133 
L 411.364633 -179.378867 
L 409.883825 -181.736602 
L 408.645021 -184.094336 
L 407.665307 -186.452071 
L 406.947402 -188.809805 
L 406.479023 -191.16754 
L 406.233297 -193.525274 
L 406.170179 -195.883009 
L 406.238796 -198.240743 
L 406.380489 -200.598478 
L 406.532328 -202.956212 
L 406.630823 -205.313947 
L 406.61554 -207.671681 
L 406.432428 -210.029416 
L 406.03665 -212.38715 
L 405.394829 -214.744885 
L 404.486671 -217.102619 
L 403.305965 -219.460354 
L 401.861033 -221.818088 
L 400.174667 -224.175823 
L 398.283621 -226.533557 
L 396.237678 -228.891292 
L 394.09828 -231.249026 
L 391.936709 -233.606761 
L 389.831774 -235.964495 
L 387.866982 -238.32223 
L 386.127222 -240.679964 
L 384.695027 -243.037699 
L 383.646584 -245.395433 
L 383.047698 -247.753168 
L 382.95 -250.110902 
L 383.387697 -252.468637 
L 384.375173 -254.826371 
L 385.905695 -257.184106 
L 387.951374 -259.54184 
L 390.464468 -261.899575 
L 393.379939 -264.257309 
L 396.619084 -266.615044 
L 400.093949 -268.972778 
L 403.712176 -271.330513 
L 407.381876 -273.688247 
L 411.016171 -276.045982 
L 414.537075 -278.403716 
L 417.878471 -280.761451 
L 420.988054 -283.119185 
L 423.828197 -285.47692 
L 426.375821 -287.834654 
L 428.621389 -290.192389 
L 430.567248 -292.550123 
L 432.225525 -294.907858 
L 445.274475 -294.907858 
L 445.274475 -294.907858 
L 446.932752 -292.550123 
L 448.878611 -290.192389 
L 451.124179 -287.834654 
L 453.671803 -285.47692 
L 456.511946 -283.119185 
L 459.621529 -280.761451 
L 462.962925 -278.403716 
L 466.483829 -276.045982 
L 470.118124 -273.688247 
L 473.787824 -271.330513 
L 477.406051 -268.972778 
L 480.880916 -266.615044 
L 484.120061 -264.257309 
L 487.035532 -261.899575 
L 489.548626 -259.54184 
L 491.594305 -257.184106 
L 493.124827 -254.826371 
L 494.112303 -252.468637 
L 494.55 -250.110902 
L 494.452302 -247.753168 
L 493.853416 -245.395433 
L 492.804973 -243.037699 
L 491.372778 -240.679964 
L 489.633018 -238.32223 
L 487.668226 -235.964495 
L 485.563291 -233.606761 
L 483.40172 -231.249026 
L 481.262322 -228.891292 
L 479.216379 -226.533557 
L 477.325333 -224.175823 
L 475.638967 -221.818088 
L 474.194035 -219.460354 
L 473.013329 -217.102619 
L 472.105171 -214.744885 
L 471.46335 -212.38715 
L 471.067572 -210.029416 
L 470.88446 -207.671681 
L 470.869177 -205.313947 
L 470.967672 -202.956212 
L 471.119511 -200.598478 
L 471.261204 -198.240743 
L 471.329821 -195.883009 
L 471.266703 -193.525274 
L 471.020977 -191.16754 
L 470.552598 -188.809805 
L 469.834693 -186.452071 
L 468.854979 -184.094336 
L 467.616175 -181.736602 
L 466.135367 -179.378867 
L 464.442421 -177.021133 
L 462.5776 -174.663398 
L 460.588634 -172.305664 
L 458.527495 -169.947929 
L 456.447178 -167.590195 
L 454.398729 -165.23246 
L 452.428733 -162.874726 
L 450.577404 -160.516991 
L 448.877348 -158.159257 
L 447.352993 -155.801522 
L 446.020611 -153.443788 
L 444.888834 -151.086053 
L 443.959513 -148.728319 
L 443.228774 -146.370584 
L 442.688124 -144.01285 
L 442.325506 -141.655115 
L 442.12621 -139.297381 
L 442.0736 -136.939646 
L 442.149652 -134.581912 
L 442.335318 -132.224177 
L 442.61077 -129.866443 
L 442.955588 -127.508708 
L 443.348932 -125.150974 
L 443.769779 -122.793239 
L 444.197239 -120.435505 
L 444.610989 -118.07777 
L 444.991796 -115.720036 
L 445.322122 -113.362301 
L 445.586753 -111.004567 
L 445.7734 -108.646832 
L 445.873212 -106.289098 
L 445.881136 -103.931363 
L 445.79609 -101.573629 
L 445.620915 -99.215894 
L 445.3621 -96.85816 
L 445.029301 -94.500425 
L 444.634686 -92.142691 
L 444.192158 -89.784956 
L 443.716521 -87.427222 
L 443.222653 -85.069487 
L 442.724743 -82.711753 
L 442.235648 -80.354018 
L 441.766397 -77.996284 
L 441.325869 -75.638549 
L 440.920648 -73.280815 
L 440.555035 -70.92308 
L 440.231197 -68.565346 
L 439.949419 -66.207611 
L 439.708429 -63.849877 
L 439.505753 -61.492142 
z
" style="stroke: #3d3d3d; stroke-width: 1.25"/>
    </defs>
    <g clip-path="url(#pe8c28ed5ec)">
     <use xlink:href="#mf7b3abe46b" x="0" y="360" style="fill: #3a923a; stroke: #3d3d3d; stroke-width: 1.25"/>
    </g>
   </g>
   <g id="FillBetweenPolyCollection_4">
    <defs>
     <path id="m1c926bb420" d="M 579.892131 -52.2 
L 576.607869 -52.2 
L 576.226499 -54.745455 
L 575.782109 -57.290909 
L 575.270967 -59.836364 
L 574.690808 -62.381818 
L 574.041235 -64.927273 
L 573.324104 -67.472727 
L 572.543845 -70.018182 
L 571.707702 -72.563636 
L 570.825854 -75.109091 
L 569.911393 -77.654545 
L 568.98014 -80.2 
L 568.050277 -82.745455 
L 567.141821 -85.290909 
L 566.275921 -87.836364 
L 565.47404 -90.381818 
L 564.757029 -92.927273 
L 564.144168 -95.472727 
L 563.652213 -98.018182 
L 563.294521 -100.563636 
L 563.080295 -103.109091 
L 563.014007 -105.654545 
L 563.095041 -108.2 
L 563.317565 -110.745455 
L 563.670665 -113.290909 
L 564.138701 -115.836364 
L 564.7019 -118.381818 
L 565.337114 -120.927273 
L 566.018728 -123.472727 
L 566.719649 -126.018182 
L 567.412333 -128.563636 
L 568.069804 -131.109091 
L 568.666617 -133.654545 
L 569.179731 -136.2 
L 569.589274 -138.745455 
L 569.879167 -141.290909 
L 570.037612 -143.836364 
L 570.057423 -146.381818 
L 569.936212 -148.927273 
L 569.676409 -151.472727 
L 569.285138 -154.018182 
L 568.773924 -156.563636 
L 568.158248 -159.109091 
L 567.45694 -161.654545 
L 566.691412 -164.2 
L 565.884751 -166.745455 
L 565.060675 -169.290909 
L 564.242386 -171.836364 
L 563.451365 -174.381818 
L 562.706138 -176.927273 
L 562.021093 -179.472727 
L 561.405398 -182.018182 
L 560.862099 -184.563636 
L 560.387462 -187.109091 
L 559.970626 -189.654545 
L 559.593618 -192.2 
L 559.231775 -194.745455 
L 558.854583 -197.290909 
L 558.426939 -199.836364 
L 557.910806 -202.381818 
L 557.267196 -204.927273 
L 556.458419 -207.472727 
L 555.450483 -210.018182 
L 554.215518 -212.563636 
L 552.7341 -215.109091 
L 550.997319 -217.654545 
L 549.008447 -220.2 
L 546.784083 -222.745455 
L 544.354649 -225.290909 
L 541.764163 -227.836364 
L 539.069246 -230.381818 
L 536.337363 -232.927273 
L 533.644354 -235.472727 
L 531.071363 -238.018182 
L 528.701313 -240.563636 
L 526.615118 -243.109091 
L 524.887866 -245.654545 
L 523.585177 -248.2 
L 522.759996 -250.745455 
L 522.45 -253.290909 
L 522.675791 -255.836364 
L 523.439999 -258.381818 
L 524.727323 -260.927273 
L 526.505513 -263.472727 
L 528.727205 -266.018182 
L 531.33246 -268.563636 
L 534.251848 -271.109091 
L 537.409842 -273.654545 
L 540.728316 -276.2 
L 544.12992 -278.745455 
L 547.541151 -281.290909 
L 550.894958 -283.836364 
L 554.132773 -286.381818 
L 557.205903 -288.927273 
L 560.076287 -291.472727 
L 562.716636 -294.018182 
L 565.11003 -296.563636 
L 567.249077 -299.109091 
L 569.134745 -301.654545 
L 570.774972 -304.2 
L 585.725028 -304.2 
L 585.725028 -304.2 
L 587.365255 -301.654545 
L 589.250923 -299.109091 
L 591.38997 -296.563636 
L 593.783364 -294.018182 
L 596.423713 -291.472727 
L 599.294097 -288.927273 
L 602.367227 -286.381818 
L 605.605042 -283.836364 
L 608.958849 -281.290909 
L 612.37008 -278.745455 
L 615.771684 -276.2 
L 619.090158 -273.654545 
L 622.248152 -271.109091 
L 625.16754 -268.563636 
L 627.772795 -266.018182 
L 629.994487 -263.472727 
L 631.772677 -260.927273 
L 633.060001 -258.381818 
L 633.824209 -255.836364 
L 634.05 -253.290909 
L 633.740004 -250.745455 
L 632.914823 -248.2 
L 631.612134 -245.654545 
L 629.884882 -243.109091 
L 627.798687 -240.563636 
L 625.428637 -238.018182 
L 622.855646 -235.472727 
L 620.162637 -232.927273 
L 617.430754 -230.381818 
L 614.735837 -227.836364 
L 612.145351 -225.290909 
L 609.715917 -222.745455 
L 607.491553 -220.2 
L 605.502681 -217.654545 
L 603.7659 -215.109091 
L 602.284482 -212.563636 
L 601.049517 -210.018182 
L 600.041581 -207.472727 
L 599.232804 -204.927273 
L 598.589194 -202.381818 
L 598.073061 -199.836364 
L 597.645417 -197.290909 
L 597.268225 -194.745455 
L 596.906382 -192.2 
L 596.529374 -189.654545 
L 596.112538 -187.109091 
L 595.637901 -184.563636 
L 595.094602 -182.018182 
L 594.478907 -179.472727 
L 593.793862 -176.927273 
L 593.048635 -174.381818 
L 592.257614 -171.836364 
L 591.439325 -169.290909 
L 590.615249 -166.745455 
L 589.808588 -164.2 
L 589.04306 -161.654545 
L 588.341752 -159.109091 
L 587.726076 -156.563636 
L 587.214862 -154.018182 
L 586.823591 -151.472727 
L 586.563788 -148.927273 
L 586.442577 -146.381818 
L 586.462388 -143.836364 
L 586.620833 -141.290909 
L 586.910726 -138.745455 
L 587.320269 -136.2 
L 587.833383 -133.654545 
L 588.430196 -131.109091 
L 589.087667 -128.563636 
L 589.780351 -126.018182 
L 590.481272 -123.472727 
L 591.162886 -120.927273 
L 591.7981 -118.381818 
L 592.361299 -115.836364 
L 592.829335 -113.290909 
L 593.182435 -110.745455 
L 593.404959 -108.2 
L 593.485993 -105.654545 
L 593.419705 -103.109091 
L 593.205479 -100.563636 
L 592.847787 -98.018182 
L 592.355832 -95.472727 
L 591.742971 -92.927273 
L 591.02596 -90.381818 
L 590.224079 -87.836364 
L 589.358179 -85.290909 
L 588.449723 -82.745455 
L 587.51986 -80.2 
L 586.588607 -77.654545 
L 585.674146 -75.109091 
L 584.792298 -72.563636 
L 583.956155 -70.018182 
L 583.175896 -67.472727 
L 582.458765 -64.927273 
L 581.809192 -62.381818 
L 581.229033 -59.836364 
L 580.717891 -57.290909 
L 580.273501 -54.745455 
L 579.892131 -52.2 
z
" style="stroke: #3d3d3d; stroke-width: 1.25"/>
    </defs>
    <g clip-path="url(#pe8c28ed5ec)">
     <use xlink:href="#m1c926bb420" x="0" y="360" style="fill: #c03d3e; stroke: #3d3d3d; stroke-width: 1.25"/>
    </g>
   </g>
   <g id="matplotlib.axis_1">
    <g id="xtick_1">
     <g id="line2d_1">
      <defs>
       <path id="mb3439b3c84" d="M 0 0 
L 0 3.5 
" style="stroke: #000000; stroke-width: 0.8"/>
      </defs>
      <g>
       <use xlink:href="#mb3439b3c84" x="159.75" y="320.4" style="stroke: #000000; stroke-width: 0.8"/>
      </g>
     </g>
     <g id="text_1">
      <!-- No -->
      <g transform="translate(152.95 334.998438) scale(0.1 -0.1)">
       <defs>
        <path id="DejaVuSans-4e" d="M 628 4666 
L 1478 4666 
L 3547 763 
L 3547 4666 
L 4159 4666 
L 4159 0 
L 3309 0 
L 1241 3903 
L 1241 0 
L 628 0 
L 628 4666 
z
" transform="scale(0.015625)"/>
        <path id="DejaVuSans-6f" d="M 1959 3097 
Q 1497 3097 1228 2736 
Q 959 2375 959 1747 
Q 959 1119 1226 758 
Q 1494 397 1959 397 
Q 2419 397 2687 759 
Q 2956 1122 2956 1747 
Q 2956 2369 2687 2733 
Q 2419 3097 1959 3097 
z
M 1959 3584 
Q 2709 3584 3137 3096 
Q 3566 2609 3566 1747 
Q 3566 888 3137 398 
Q 2709 -91 1959 -91 
Q 1206 -91 779 398 
Q 353 888 353 1747 
Q 353 2609 779 3096 
Q 1206 3584 1959 3584 
z
" transform="scale(0.015625)"/>
       </defs>
       <use xlink:href="#DejaVuSans-4e"/>
       <use xlink:href="#DejaVuSans-6f" transform="translate(74.804688 0)"/>
      </g>
     </g>
    </g>
    <g id="xtick_2">
     <g id="line2d_2">
      <g>
       <use xlink:href="#mb3439b3c84" x="299.25" y="320.4" style="stroke: #000000; stroke-width: 0.8"/>
      </g>
     </g>
     <g id="text_2">
      <!-- Specific -->
      <g transform="translate(279.788281 334.998438) scale(0.1 -0.1)">
       <defs>
        <path id="DejaVuSans-53" d="M 3425 4513 
L 3425 3897 
Q 3066 4069 2747 4153 
Q 2428 4238 2131 4238 
Q 1616 4238 1336 4038 
Q 1056 3838 1056 3469 
Q 1056 3159 1242 3001 
Q 1428 2844 1947 2747 
L 2328 2669 
Q 3034 2534 3370 2195 
Q 3706 1856 3706 1288 
Q 3706 609 3251 259 
Q 2797 -91 1919 -91 
Q 1588 -91 1214 -16 
Q 841 59 441 206 
L 441 856 
Q 825 641 1194 531 
Q 1563 422 1919 422 
Q 2459 422 2753 634 
Q 3047 847 3047 1241 
Q 3047 1584 2836 1778 
Q 2625 1972 2144 2069 
L 1759 2144 
Q 1053 2284 737 2584 
Q 422 2884 422 3419 
Q 422 4038 858 4394 
Q 1294 4750 2059 4750 
Q 2388 4750 2728 4690 
Q 3069 4631 3425 4513 
z
" transform="scale(0.015625)"/>
        <path id="DejaVuSans-70" d="M 1159 525 
L 1159 -1331 
L 581 -1331 
L 581 3500 
L 1159 3500 
L 1159 2969 
Q 1341 3281 1617 3432 
Q 1894 3584 2278 3584 
Q 2916 3584 3314 3078 
Q 3713 2572 3713 1747 
Q 3713 922 3314 415 
Q 2916 -91 2278 -91 
Q 1894 -91 1617 61 
Q 1341 213 1159 525 
z
M 3116 1747 
Q 3116 2381 2855 2742 
Q 2594 3103 2138 3103 
Q 1681 3103 1420 2742 
Q 1159 2381 1159 1747 
Q 1159 1113 1420 752 
Q 1681 391 2138 391 
Q 2594 391 2855 752 
Q 3116 1113 3116 1747 
z
" transform="scale(0.015625)"/>
        <path id="DejaVuSans-65" d="M 3597 1894 
L 3597 1613 
L 953 1613 
Q 991 1019 1311 708 
Q 1631 397 2203 397 
Q 2534 397 2845 478 
Q 3156 559 3463 722 
L 3463 178 
Q 3153 47 2828 -22 
Q 2503 -91 2169 -91 
Q 1331 -91 842 396 
Q 353 884 353 1716 
Q 353 2575 817 3079 
Q 1281 3584 2069 3584 
Q 2775 3584 3186 3129 
Q 3597 2675 3597 1894 
z
M 3022 2063 
Q 3016 2534 2758 2815 
Q 2500 3097 2075 3097 
Q 1594 3097 1305 2825 
Q 1016 2553 972 2059 
L 3022 2063 
z
" transform="scale(0.015625)"/>
        <path id="DejaVuSans-63" d="M 3122 3366 
L 3122 2828 
Q 2878 2963 2633 3030 
Q 2388 3097 2138 3097 
Q 1578 3097 1268 2742 
Q 959 2388 959 1747 
Q 959 1106 1268 751 
Q 1578 397 2138 397 
Q 2388 397 2633 464 
Q 2878 531 3122 666 
L 3122 134 
Q 2881 22 2623 -34 
Q 2366 -91 2075 -91 
Q 1284 -91 818 406 
Q 353 903 353 1747 
Q 353 2603 823 3093 
Q 1294 3584 2113 3584 
Q 2378 3584 2631 3529 
Q 2884 3475 3122 3366 
z
" transform="scale(0.015625)"/>
        <path id="DejaVuSans-69" d="M 603 3500 
L 1178 3500 
L 1178 0 
L 603 0 
L 603 3500 
z
M 603 4863 
L 1178 4863 
L 1178 4134 
L 603 4134 
L 603 4863 
z
" transform="scale(0.015625)"/>
        <path id="DejaVuSans-66" d="M 2375 4863 
L 2375 4384 
L 1825 4384 
Q 1516 4384 1395 4259 
Q 1275 4134 1275 3809 
L 1275 3500 
L 2222 3500 
L 2222 3053 
L 1275 3053 
L 1275 0 
L 697 0 
L 697 3053 
L 147 3053 
L 147 3500 
L 697 3500 
L 697 3744 
Q 697 4328 969 4595 
Q 1241 4863 1831 4863 
L 2375 4863 
z
" transform="scale(0.015625)"/>
       </defs>
       <use xlink:href="#DejaVuSans-53"/>
       <use xlink:href="#DejaVuSans-70" transform="translate(63.476562 0)"/>
       <use xlink:href="#DejaVuSans-65" transform="translate(126.953125 0)"/>
       <use xlink:href="#DejaVuSans-63" transform="translate(188.476562 0)"/>
       <use xlink:href="#DejaVuSans-69" transform="translate(243.457031 0)"/>
       <use xlink:href="#DejaVuSans-66" transform="translate(271.240234 0)"/>
       <use xlink:href="#DejaVuSans-69" transform="translate(306.445312 0)"/>
       <use xlink:href="#DejaVuSans-63" transform="translate(334.228516 0)"/>
      </g>
     </g>
    </g>
    <g id="xtick_3">
     <g id="line2d_3">
      <g>
       <use xlink:href="#mb3439b3c84" x="438.75" y="320.4" style="stroke: #000000; stroke-width: 0.8"/>
      </g>
     </g>
     <g id="text_3">
      <!-- Spurious -->
      <g transform="translate(416.955469 334.998438) scale(0.1 -0.1)">
       <defs>
        <path id="DejaVuSans-75" d="M 544 1381 
L 544 3500 
L 1119 3500 
L 1119 1403 
Q 1119 906 1312 657 
Q 1506 409 1894 409 
Q 2359 409 2629 706 
Q 2900 1003 2900 1516 
L 2900 3500 
L 3475 3500 
L 3475 0 
L 2900 0 
L 2900 538 
Q 2691 219 2414 64 
Q 2138 -91 1772 -91 
Q 1169 -91 856 284 
Q 544 659 544 1381 
z
M 1991 3584 
L 1991 3584 
z
" transform="scale(0.015625)"/>
        <path id="DejaVuSans-72" d="M 2631 2963 
Q 2534 3019 2420 3045 
Q 2306 3072 2169 3072 
Q 1681 3072 1420 2755 
Q 1159 2438 1159 1844 
L 1159 0 
L 581 0 
L 581 3500 
L 1159 3500 
L 1159 2956 
Q 1341 3275 1631 3429 
Q 1922 3584 2338 3584 
Q 2397 3584 2469 3576 
Q 2541 3569 2628 3553 
L 2631 2963 
z
" transform="scale(0.015625)"/>
        <path id="DejaVuSans-73" d="M 2834 3397 
L 2834 2853 
Q 2591 2978 2328 3040 
Q 2066 3103 1784 3103 
Q 1356 3103 1142 2972 
Q 928 2841 928 2578 
Q 928 2378 1081 2264 
Q 1234 2150 1697 2047 
L 1894 2003 
Q 2506 1872 2764 1633 
Q 3022 1394 3022 966 
Q 3022 478 2636 193 
Q 2250 -91 1575 -91 
Q 1294 -91 989 -36 
Q 684 19 347 128 
L 347 722 
Q 666 556 975 473 
Q 1284 391 1588 391 
Q 1994 391 2212 530 
Q 2431 669 2431 922 
Q 2431 1156 2273 1281 
Q 2116 1406 1581 1522 
L 1381 1569 
Q 847 1681 609 1914 
Q 372 2147 372 2553 
Q 372 3047 722 3315 
Q 1072 3584 1716 3584 
Q 2034 3584 2315 3537 
Q 2597 3491 2834 3397 
z
" transform="scale(0.015625)"/>
       </defs>
       <use xlink:href="#DejaVuSans-53"/>
       <use xlink:href="#DejaVuSans-70" transform="translate(63.476562 0)"/>
       <use xlink:href="#DejaVuSans-75" transform="translate(126.953125 0)"/>
       <use xlink:href="#DejaVuSans-72" transform="translate(190.332031 0)"/>
       <use xlink:href="#DejaVuSans-69" transform="translate(231.445312 0)"/>
       <use xlink:href="#DejaVuSans-6f" transform="translate(259.228516 0)"/>
       <use xlink:href="#DejaVuSans-75" transform="translate(320.410156 0)"/>
       <use xlink:href="#DejaVuSans-73" transform="translate(383.789062 0)"/>
      </g>
     </g>
    </g>
    <g id="xtick_4">
     <g id="line2d_4">
      <g>
       <use xlink:href="#mb3439b3c84" x="578.25" y="320.4" style="stroke: #000000; stroke-width: 0.8"/>
      </g>
     </g>
     <g id="text_4">
      <!-- Non-specific -->
      <g transform="translate(547.585156 334.998438) scale(0.1 -0.1)">
       <defs>
        <path id="DejaVuSans-6e" d="M 3513 2113 
L 3513 0 
L 2938 0 
L 2938 2094 
Q 2938 2591 2744 2837 
Q 2550 3084 2163 3084 
Q 1697 3084 1428 2787 
Q 1159 2491 1159 1978 
L 1159 0 
L 581 0 
L 581 3500 
L 1159 3500 
L 1159 2956 
Q 1366 3272 1645 3428 
Q 1925 3584 2291 3584 
Q 2894 3584 3203 3211 
Q 3513 2838 3513 2113 
z
" transform="scale(0.015625)"/>
        <path id="DejaVuSans-2d" d="M 313 2009 
L 1997 2009 
L 1997 1497 
L 313 1497 
L 313 2009 
z
" transform="scale(0.015625)"/>
       </defs>
       <use xlink:href="#DejaVuSans-4e"/>
       <use xlink:href="#DejaVuSans-6f" transform="translate(74.804688 0)"/>
       <use xlink:href="#DejaVuSans-6e" transform="translate(135.986328 0)"/>
       <use xlink:href="#DejaVuSans-2d" transform="translate(199.365234 0)"/>
       <use xlink:href="#DejaVuSans-73" transform="translate(235.449219 0)"/>
       <use xlink:href="#DejaVuSans-70" transform="translate(287.548828 0)"/>
       <use xlink:href="#DejaVuSans-65" transform="translate(351.025391 0)"/>
       <use xlink:href="#DejaVuSans-63" transform="translate(412.548828 0)"/>
       <use xlink:href="#DejaVuSans-69" transform="translate(467.529297 0)"/>
       <use xlink:href="#DejaVuSans-66" transform="translate(495.3125 0)"/>
       <use xlink:href="#DejaVuSans-69" transform="translate(530.517578 0)"/>
       <use xlink:href="#DejaVuSans-63" transform="translate(558.300781 0)"/>
      </g>
     </g>
    </g>
    <g id="text_5">
     <!-- Connectivity category -->
     <g transform="translate(313.98125 348.676562) scale(0.1 -0.1)">
      <defs>
       <path id="DejaVuSans-43" d="M 4122 4306 
L 4122 3641 
Q 3803 3938 3442 4084 
Q 3081 4231 2675 4231 
Q 1875 4231 1450 3742 
Q 1025 3253 1025 2328 
Q 1025 1406 1450 917 
Q 1875 428 2675 428 
Q 3081 428 3442 575 
Q 3803 722 4122 1019 
L 4122 359 
Q 3791 134 3420 21 
Q 3050 -91 2638 -91 
Q 1578 -91 968 557 
Q 359 1206 359 2328 
Q 359 3453 968 4101 
Q 1578 4750 2638 4750 
Q 3056 4750 3426 4639 
Q 3797 4528 4122 4306 
z
" transform="scale(0.015625)"/>
       <path id="DejaVuSans-74" d="M 1172 4494 
L 1172 3500 
L 2356 3500 
L 2356 3053 
L 1172 3053 
L 1172 1153 
Q 1172 725 1289 603 
Q 1406 481 1766 481 
L 2356 481 
L 2356 0 
L 1766 0 
Q 1100 0 847 248 
Q 594 497 594 1153 
L 594 3053 
L 172 3053 
L 172 3500 
L 594 3500 
L 594 4494 
L 1172 4494 
z
" transform="scale(0.015625)"/>
       <path id="DejaVuSans-76" d="M 191 3500 
L 800 3500 
L 1894 563 
L 2988 3500 
L 3597 3500 
L 2284 0 
L 1503 0 
L 191 3500 
z
" transform="scale(0.015625)"/>
       <path id="DejaVuSans-79" d="M 2059 -325 
Q 1816 -950 1584 -1140 
Q 1353 -1331 966 -1331 
L 506 -1331 
L 506 -850 
L 844 -850 
Q 1081 -850 1212 -737 
Q 1344 -625 1503 -206 
L 1606 56 
L 191 3500 
L 800 3500 
L 1894 763 
L 2988 3500 
L 3597 3500 
L 2059 -325 
z
" transform="scale(0.015625)"/>
       <path id="DejaVuSans-20" transform="scale(0.015625)"/>
       <path id="DejaVuSans-61" d="M 2194 1759 
Q 1497 1759 1228 1600 
Q 959 1441 959 1056 
Q 959 750 1161 570 
Q 1363 391 1709 391 
Q 2188 391 2477 730 
Q 2766 1069 2766 1631 
L 2766 1759 
L 2194 1759 
z
M 3341 1997 
L 3341 0 
L 2766 0 
L 2766 531 
Q 2569 213 2275 61 
Q 1981 -91 1556 -91 
Q 1019 -91 701 211 
Q 384 513 384 1019 
Q 384 1609 779 1909 
Q 1175 2209 1959 2209 
L 2766 2209 
L 2766 2266 
Q 2766 2663 2505 2880 
Q 2244 3097 1772 3097 
Q 1472 3097 1187 3025 
Q 903 2953 641 2809 
L 641 3341 
Q 956 3463 1253 3523 
Q 1550 3584 1831 3584 
Q 2591 3584 2966 3190 
Q 3341 2797 3341 1997 
z
" transform="scale(0.015625)"/>
       <path id="DejaVuSans-67" d="M 2906 1791 
Q 2906 2416 2648 2759 
Q 2391 3103 1925 3103 
Q 1463 3103 1205 2759 
Q 947 2416 947 1791 
Q 947 1169 1205 825 
Q 1463 481 1925 481 
Q 2391 481 2648 825 
Q 2906 1169 2906 1791 
z
M 3481 434 
Q 3481 -459 3084 -895 
Q 2688 -1331 1869 -1331 
Q 1566 -1331 1297 -1286 
Q 1028 -1241 775 -1147 
L 775 -588 
Q 1028 -725 1275 -790 
Q 1522 -856 1778 -856 
Q 2344 -856 2625 -561 
Q 2906 -266 2906 331 
L 2906 616 
Q 2728 306 2450 153 
Q 2172 0 1784 0 
Q 1141 0 747 490 
Q 353 981 353 1791 
Q 353 2603 747 3093 
Q 1141 3584 1784 3584 
Q 2172 3584 2450 3431 
Q 2728 3278 2906 2969 
L 2906 3500 
L 3481 3500 
L 3481 434 
z
" transform="scale(0.015625)"/>
      </defs>
      <use xlink:href="#DejaVuSans-43"/>
      <use xlink:href="#DejaVuSans-6f" transform="translate(69.824219 0)"/>
      <use xlink:href="#DejaVuSans-6e" transform="translate(131.005859 0)"/>
      <use xlink:href="#DejaVuSans-6e" transform="translate(194.384766 0)"/>
      <use xlink:href="#DejaVuSans-65" transform="translate(257.763672 0)"/>
      <use xlink:href="#DejaVuSans-63" transform="translate(319.287109 0)"/>
      <use xlink:href="#DejaVuSans-74" transform="translate(374.267578 0)"/>
      <use xlink:href="#DejaVuSans-69" transform="translate(413.476562 0)"/>
      <use xlink:href="#DejaVuSans-76" transform="translate(441.259766 0)"/>
      <use xlink:href="#DejaVuSans-69" transform="translate(500.439453 0)"/>
      <use xlink:href="#DejaVuSans-74" transform="translate(528.222656 0)"/>
      <use xlink:href="#DejaVuSans-79" transform="translate(567.431641 0)"/>
      <use xlink:href="#DejaVuSans-20" transform="translate(626.611328 0)"/>
      <use xlink:href="#DejaVuSans-63" transform="translate(658.398438 0)"/>
      <use xlink:href="#DejaVuSans-61" transform="translate(713.378906 0)"/>
      <use xlink:href="#DejaVuSans-74" transform="translate(774.658203 0)"/>
      <use xlink:href="#DejaVuSans-65" transform="translate(813.867188 0)"/>
      <use xlink:href="#DejaVuSans-67" transform="translate(875.390625 0)"/>
      <use xlink:href="#DejaVuSans-6f" transform="translate(938.867188 0)"/>
      <use xlink:href="#DejaVuSans-72" transform="translate(1000.048828 0)"/>
      <use xlink:href="#DejaVuSans-79" transform="translate(1041.162109 0)"/>
     </g>
    </g>
   </g>
   <g id="matplotlib.axis_2">
    <g id="ytick_1">
     <g id="line2d_5">
      <defs>
       <path id="mfb32f91d45" d="M 0 0 
L -3.5 0 
" style="stroke: #000000; stroke-width: 0.8"/>
      </defs>
      <g>
       <use xlink:href="#mfb32f91d45" x="90" y="300.635168" style="stroke: #000000; stroke-width: 0.8"/>
      </g>
     </g>
     <g id="text_6">
      <!-- 0 -->
      <g transform="translate(76.6375 304.434386) scale(0.1 -0.1)">
       <defs>
        <path id="DejaVuSans-30" d="M 2034 4250 
Q 1547 4250 1301 3770 
Q 1056 3291 1056 2328 
Q 1056 1369 1301 889 
Q 1547 409 2034 409 
Q 2525 409 2770 889 
Q 3016 1369 3016 2328 
Q 3016 3291 2770 3770 
Q 2525 4250 2034 4250 
z
M 2034 4750 
Q 2819 4750 3233 4129 
Q 3647 3509 3647 2328 
Q 3647 1150 3233 529 
Q 2819 -91 2034 -91 
Q 1250 -91 836 529 
Q 422 1150 422 2328 
Q 422 3509 836 4129 
Q 1250 4750 2034 4750 
z
" transform="scale(0.015625)"/>
       </defs>
       <use xlink:href="#DejaVuSans-30"/>
      </g>
     </g>
    </g>
    <g id="ytick_2">
     <g id="line2d_6">
      <g>
       <use xlink:href="#mfb32f91d45" x="90" y="261.672818" style="stroke: #000000; stroke-width: 0.8"/>
      </g>
     </g>
     <g id="text_7">
      <!-- 100 -->
      <g transform="translate(63.9125 265.472036) scale(0.1 -0.1)">
       <defs>
        <path id="DejaVuSans-31" d="M 794 531 
L 1825 531 
L 1825 4091 
L 703 3866 
L 703 4441 
L 1819 4666 
L 2450 4666 
L 2450 531 
L 3481 531 
L 3481 0 
L 794 0 
L 794 531 
z
" transform="scale(0.015625)"/>
       </defs>
       <use xlink:href="#DejaVuSans-31"/>
       <use xlink:href="#DejaVuSans-30" transform="translate(63.623047 0)"/>
       <use xlink:href="#DejaVuSans-30" transform="translate(127.246094 0)"/>
      </g>
     </g>
    </g>
    <g id="ytick_3">
     <g id="line2d_7">
      <g>
       <use xlink:href="#mfb32f91d45" x="90" y="222.710468" style="stroke: #000000; stroke-width: 0.8"/>
      </g>
     </g>
     <g id="text_8">
      <!-- 200 -->
      <g transform="translate(63.9125 226.509686) scale(0.1 -0.1)">
       <defs>
        <path id="DejaVuSans-32" d="M 1228 531 
L 3431 531 
L 3431 0 
L 469 0 
L 469 531 
Q 828 903 1448 1529 
Q 2069 2156 2228 2338 
Q 2531 2678 2651 2914 
Q 2772 3150 2772 3378 
Q 2772 3750 2511 3984 
Q 2250 4219 1831 4219 
Q 1534 4219 1204 4116 
Q 875 4013 500 3803 
L 500 4441 
Q 881 4594 1212 4672 
Q 1544 4750 1819 4750 
Q 2544 4750 2975 4387 
Q 3406 4025 3406 3419 
Q 3406 3131 3298 2873 
Q 3191 2616 2906 2266 
Q 2828 2175 2409 1742 
Q 1991 1309 1228 531 
z
" transform="scale(0.015625)"/>
       </defs>
       <use xlink:href="#DejaVuSans-32"/>
       <use xlink:href="#DejaVuSans-30" transform="translate(63.623047 0)"/>
       <use xlink:href="#DejaVuSans-30" transform="translate(127.246094 0)"/>
      </g>
     </g>
    </g>
    <g id="ytick_4">
     <g id="line2d_8">
      <g>
       <use xlink:href="#mfb32f91d45" x="90" y="183.748118" style="stroke: #000000; stroke-width: 0.8"/>
      </g>
     </g>
     <g id="text_9">
      <!-- 300 -->
      <g transform="translate(63.9125 187.547336) scale(0.1 -0.1)">
       <defs>
        <path id="DejaVuSans-33" d="M 2597 2516 
Q 3050 2419 3304 2112 
Q 3559 1806 3559 1356 
Q 3559 666 3084 287 
Q 2609 -91 1734 -91 
Q 1441 -91 1130 -33 
Q 819 25 488 141 
L 488 750 
Q 750 597 1062 519 
Q 1375 441 1716 441 
Q 2309 441 2620 675 
Q 2931 909 2931 1356 
Q 2931 1769 2642 2001 
Q 2353 2234 1838 2234 
L 1294 2234 
L 1294 2753 
L 1863 2753 
Q 2328 2753 2575 2939 
Q 2822 3125 2822 3475 
Q 2822 3834 2567 4026 
Q 2313 4219 1838 4219 
Q 1578 4219 1281 4162 
Q 984 4106 628 3988 
L 628 4550 
Q 988 4650 1302 4700 
Q 1616 4750 1894 4750 
Q 2613 4750 3031 4423 
Q 3450 4097 3450 3541 
Q 3450 3153 3228 2886 
Q 3006 2619 2597 2516 
z
" transform="scale(0.015625)"/>
       </defs>
       <use xlink:href="#DejaVuSans-33"/>
       <use xlink:href="#DejaVuSans-30" transform="translate(63.623047 0)"/>
       <use xlink:href="#DejaVuSans-30" transform="translate(127.246094 0)"/>
      </g>
     </g>
    </g>
    <g id="ytick_5">
     <g id="line2d_9">
      <g>
       <use xlink:href="#mfb32f91d45" x="90" y="144.785767" style="stroke: #000000; stroke-width: 0.8"/>
      </g>
     </g>
     <g id="text_10">
      <!-- 400 -->
      <g transform="translate(63.9125 148.584986) scale(0.1 -0.1)">
       <defs>
        <path id="DejaVuSans-34" d="M 2419 4116 
L 825 1625 
L 2419 1625 
L 2419 4116 
z
M 2253 4666 
L 3047 4666 
L 3047 1625 
L 3713 1625 
L 3713 1100 
L 3047 1100 
L 3047 0 
L 2419 0 
L 2419 1100 
L 313 1100 
L 313 1709 
L 2253 4666 
z
" transform="scale(0.015625)"/>
       </defs>
       <use xlink:href="#DejaVuSans-34"/>
       <use xlink:href="#DejaVuSans-30" transform="translate(63.623047 0)"/>
       <use xlink:href="#DejaVuSans-30" transform="translate(127.246094 0)"/>
      </g>
     </g>
    </g>
    <g id="ytick_6">
     <g id="line2d_10">
      <g>
       <use xlink:href="#mfb32f91d45" x="90" y="105.823417" style="stroke: #000000; stroke-width: 0.8"/>
      </g>
     </g>
     <g id="text_11">
      <!-- 500 -->
      <g transform="translate(63.9125 109.622636) scale(0.1 -0.1)">
       <defs>
        <path id="DejaVuSans-35" d="M 691 4666 
L 3169 4666 
L 3169 4134 
L 1269 4134 
L 1269 2991 
Q 1406 3038 1543 3061 
Q 1681 3084 1819 3084 
Q 2600 3084 3056 2656 
Q 3513 2228 3513 1497 
Q 3513 744 3044 326 
Q 2575 -91 1722 -91 
Q 1428 -91 1123 -41 
Q 819 9 494 109 
L 494 744 
Q 775 591 1075 516 
Q 1375 441 1709 441 
Q 2250 441 2565 725 
Q 2881 1009 2881 1497 
Q 2881 1984 2565 2268 
Q 2250 2553 1709 2553 
Q 1456 2553 1204 2497 
Q 953 2441 691 2322 
L 691 4666 
z
" transform="scale(0.015625)"/>
       </defs>
       <use xlink:href="#DejaVuSans-35"/>
       <use xlink:href="#DejaVuSans-30" transform="translate(63.623047 0)"/>
       <use xlink:href="#DejaVuSans-30" transform="translate(127.246094 0)"/>
      </g>
     </g>
    </g>
    <g id="ytick_7">
     <g id="line2d_11">
      <g>
       <use xlink:href="#mfb32f91d45" x="90" y="66.861067" style="stroke: #000000; stroke-width: 0.8"/>
      </g>
     </g>
     <g id="text_12">
      <!-- 600 -->
      <g transform="translate(63.9125 70.660286) scale(0.1 -0.1)">
       <defs>
        <path id="DejaVuSans-36" d="M 2113 2584 
Q 1688 2584 1439 2293 
Q 1191 2003 1191 1497 
Q 1191 994 1439 701 
Q 1688 409 2113 409 
Q 2538 409 2786 701 
Q 3034 994 3034 1497 
Q 3034 2003 2786 2293 
Q 2538 2584 2113 2584 
z
M 3366 4563 
L 3366 3988 
Q 3128 4100 2886 4159 
Q 2644 4219 2406 4219 
Q 1781 4219 1451 3797 
Q 1122 3375 1075 2522 
Q 1259 2794 1537 2939 
Q 1816 3084 2150 3084 
Q 2853 3084 3261 2657 
Q 3669 2231 3669 1497 
Q 3669 778 3244 343 
Q 2819 -91 2113 -91 
Q 1303 -91 875 529 
Q 447 1150 447 2328 
Q 447 3434 972 4092 
Q 1497 4750 2381 4750 
Q 2619 4750 2861 4703 
Q 3103 4656 3366 4563 
z
" transform="scale(0.015625)"/>
       </defs>
       <use xlink:href="#DejaVuSans-36"/>
       <use xlink:href="#DejaVuSans-30" transform="translate(63.623047 0)"/>
       <use xlink:href="#DejaVuSans-30" transform="translate(127.246094 0)"/>
      </g>
     </g>
    </g>
    <g id="text_13">
     <!-- cont_variable -->
     <g transform="translate(57.554687 215.409375) rotate(-90) scale(0.1 -0.1)">
      <defs>
       <path id="DejaVuSans-5f" d="M 3263 -1063 
L 3263 -1509 
L -63 -1509 
L -63 -1063 
L 3263 -1063 
z
" transform="scale(0.015625)"/>
       <path id="DejaVuSans-62" d="M 3116 1747 
Q 3116 2381 2855 2742 
Q 2594 3103 2138 3103 
Q 1681 3103 1420 2742 
Q 1159 2381 1159 1747 
Q 1159 1113 1420 752 
Q 1681 391 2138 391 
Q 2594 391 2855 752 
Q 3116 1113 3116 1747 
z
M 1159 2969 
Q 1341 3281 1617 3432 
Q 1894 3584 2278 3584 
Q 2916 3584 3314 3078 
Q 3713 2572 3713 1747 
Q 3713 922 3314 415 
Q 2916 -91 2278 -91 
Q 1894 -91 1617 61 
Q 1341 213 1159 525 
L 1159 0 
L 581 0 
L 581 4863 
L 1159 4863 
L 1159 2969 
z
" transform="scale(0.015625)"/>
       <path id="DejaVuSans-6c" d="M 603 4863 
L 1178 4863 
L 1178 0 
L 603 0 
L 603 4863 
z
" transform="scale(0.015625)"/>
      </defs>
      <use xlink:href="#DejaVuSans-63"/>
      <use xlink:href="#DejaVuSans-6f" transform="translate(54.980469 0)"/>
      <use xlink:href="#DejaVuSans-6e" transform="translate(116.162109 0)"/>
      <use xlink:href="#DejaVuSans-74" transform="translate(179.541016 0)"/>
      <use xlink:href="#DejaVuSans-5f" transform="translate(218.75 0)"/>
      <use xlink:href="#DejaVuSans-76" transform="translate(268.75 0)"/>
      <use xlink:href="#DejaVuSans-61" transform="translate(327.929688 0)"/>
      <use xlink:href="#DejaVuSans-72" transform="translate(389.208984 0)"/>
      <use xlink:href="#DejaVuSans-69" transform="translate(430.322266 0)"/>
      <use xlink:href="#DejaVuSans-61" transform="translate(458.105469 0)"/>
      <use xlink:href="#DejaVuSans-62" transform="translate(519.384766 0)"/>
      <use xlink:href="#DejaVuSans-6c" transform="translate(582.861328 0)"/>
      <use xlink:href="#DejaVuSans-65" transform="translate(610.644531 0)"/>
     </g>
    </g>
   </g>
   <g id="patch_3">
    <path d="M 90 320.4 
L 90 43.2 
" style="fill: none; stroke: #000000; stroke-width: 0.8; stroke-linejoin: miter; stroke-linecap: square"/>
   </g>
   <g id="patch_4">
    <path d="M 648 320.4 
L 648 43.2 
" style="fill: none; stroke: #000000; stroke-width: 0.8; stroke-linejoin: miter; stroke-linecap: square"/>
   </g>
   <g id="patch_5">
    <path d="M 90 320.4 
L 648 320.4 
" style="fill: none; stroke: #000000; stroke-width: 0.8; stroke-linejoin: miter; stroke-linecap: square"/>
   </g>
   <g id="patch_6">
    <path d="M 90 43.2 
L 648 43.2 
" style="fill: none; stroke: #000000; stroke-width: 0.8; stroke-linejoin: miter; stroke-linecap: square"/>
   </g>
   <g id="PathCollection_1">
    <defs>
     <path id="mc2200be0eb" d="M 0 2.5 
C 0.663008 2.5 1.29895 2.236584 1.767767 1.767767 
C 2.236584 1.29895 2.5 0.663008 2.5 0 
C 2.5 -0.663008 2.236584 -1.29895 1.767767 -1.767767 
C 1.29895 -2.236584 0.663008 -2.5 0 -2.5 
C -0.663008 -2.5 -1.29895 -2.236584 -1.767767 -1.767767 
C -2.236584 -1.29895 -2.5 -0.663008 -2.5 0 
C -2.5 0.663008 -2.236584 1.29895 -1.767767 1.767767 
C -1.29895 2.236584 -0.663008 2.5 0 2.5 
z
"/>
    </defs>
    <g clip-path="url(#pe8c28ed5ec)">
     <use xlink:href="#mc2200be0eb" x="156.460367" y="257.776583" style="fill-opacity: 0.3"/>
     <use xlink:href="#mc2200be0eb" x="156.106045" y="257.776583" style="fill-opacity: 0.3"/>
     <use xlink:href="#mc2200be0eb" x="149.880568" y="257.776583" style="fill-opacity: 0.3"/>
     <use xlink:href="#mc2200be0eb" x="160.032352" y="183.748118" style="fill-opacity: 0.3"/>
     <use xlink:href="#mc2200be0eb" x="173.310741" y="105.823417" style="fill-opacity: 0.3"/>
     <use xlink:href="#mc2200be0eb" x="162.6083" y="105.823417" style="fill-opacity: 0.3"/>
     <use xlink:href="#mc2200be0eb" x="168.299613" y="105.823417" style="fill-opacity: 0.3"/>
     <use xlink:href="#mc2200be0eb" x="154.970701" y="172.059412" style="fill-opacity: 0.3"/>
     <use xlink:href="#mc2200be0eb" x="159.176681" y="172.059412" style="fill-opacity: 0.3"/>
     <use xlink:href="#mc2200be0eb" x="155.639986" y="172.059412" style="fill-opacity: 0.3"/>
     <use xlink:href="#mc2200be0eb" x="157.214283" y="172.059412" style="fill-opacity: 0.3"/>
     <use xlink:href="#mc2200be0eb" x="167.274612" y="172.059412" style="fill-opacity: 0.3"/>
     <use xlink:href="#mc2200be0eb" x="166.325205" y="172.059412" style="fill-opacity: 0.3"/>
     <use xlink:href="#mc2200be0eb" x="168.009393" y="172.059412" style="fill-opacity: 0.3"/>
     <use xlink:href="#mc2200be0eb" x="162.476636" y="172.059412" style="fill-opacity: 0.3"/>
     <use xlink:href="#mc2200be0eb" x="165.084504" y="172.059412" style="fill-opacity: 0.3"/>
     <use xlink:href="#mc2200be0eb" x="160.271037" y="172.059412" style="fill-opacity: 0.3"/>
     <use xlink:href="#mc2200be0eb" x="171.401919" y="172.059412" style="fill-opacity: 0.3"/>
     <use xlink:href="#mc2200be0eb" x="163.018291" y="172.059412" style="fill-opacity: 0.3"/>
     <use xlink:href="#mc2200be0eb" x="157.373701" y="172.059412" style="fill-opacity: 0.3"/>
     <use xlink:href="#mc2200be0eb" x="156.020467" y="172.059412" style="fill-opacity: 0.3"/>
     <use xlink:href="#mc2200be0eb" x="168.241221" y="133.097062" style="fill-opacity: 0.3"/>
     <use xlink:href="#mc2200be0eb" x="148.189688" y="133.097062" style="fill-opacity: 0.3"/>
     <use xlink:href="#mc2200be0eb" x="169.185165" y="133.097062" style="fill-opacity: 0.3"/>
     <use xlink:href="#mc2200be0eb" x="158.280743" y="133.097062" style="fill-opacity: 0.3"/>
     <use xlink:href="#mc2200be0eb" x="172.347927" y="133.097062" style="fill-opacity: 0.3"/>
     <use xlink:href="#mc2200be0eb" x="153.973347" y="133.097062" style="fill-opacity: 0.3"/>
     <use xlink:href="#mc2200be0eb" x="159.899553" y="133.097062" style="fill-opacity: 0.3"/>
     <use xlink:href="#mc2200be0eb" x="152.96723" y="133.097062" style="fill-opacity: 0.3"/>
     <use xlink:href="#mc2200be0eb" x="168.512881" y="160.370707" style="fill-opacity: 0.3"/>
    </g>
   </g>
   <g id="PathCollection_2">
    <g clip-path="url(#pe8c28ed5ec)">
     <use xlink:href="#mc2200be0eb" x="308.920358" y="257.776583" style="fill-opacity: 0.3"/>
     <use xlink:href="#mc2200be0eb" x="304.099247" y="257.776583" style="fill-opacity: 0.3"/>
     <use xlink:href="#mc2200be0eb" x="299.517169" y="257.776583" style="fill-opacity: 0.3"/>
     <use xlink:href="#mc2200be0eb" x="286.248763" y="257.776583" style="fill-opacity: 0.3"/>
     <use xlink:href="#mc2200be0eb" x="287.351438" y="257.776583" style="fill-opacity: 0.3"/>
     <use xlink:href="#mc2200be0eb" x="286.250322" y="257.776583" style="fill-opacity: 0.3"/>
     <use xlink:href="#mc2200be0eb" x="287.710913" y="257.776583" style="fill-opacity: 0.3"/>
     <use xlink:href="#mc2200be0eb" x="310.493322" y="257.776583" style="fill-opacity: 0.3"/>
     <use xlink:href="#mc2200be0eb" x="306.31799" y="257.776583" style="fill-opacity: 0.3"/>
     <use xlink:href="#mc2200be0eb" x="287.084373" y="253.880348" style="fill-opacity: 0.3"/>
     <use xlink:href="#mc2200be0eb" x="295.40631" y="253.880348" style="fill-opacity: 0.3"/>
     <use xlink:href="#mc2200be0eb" x="291.35403" y="183.748118" style="fill-opacity: 0.3"/>
     <use xlink:href="#mc2200be0eb" x="293.754211" y="183.748118" style="fill-opacity: 0.3"/>
     <use xlink:href="#mc2200be0eb" x="286.205616" y="183.748118" style="fill-opacity: 0.3"/>
     <use xlink:href="#mc2200be0eb" x="289.608766" y="105.823417" style="fill-opacity: 0.3"/>
     <use xlink:href="#mc2200be0eb" x="286.29326" y="105.823417" style="fill-opacity: 0.3"/>
     <use xlink:href="#mc2200be0eb" x="291.239788" y="105.823417" style="fill-opacity: 0.3"/>
     <use xlink:href="#mc2200be0eb" x="298.899182" y="105.823417" style="fill-opacity: 0.3"/>
     <use xlink:href="#mc2200be0eb" x="312.914356" y="105.823417" style="fill-opacity: 0.3"/>
     <use xlink:href="#mc2200be0eb" x="303.712461" y="105.823417" style="fill-opacity: 0.3"/>
     <use xlink:href="#mc2200be0eb" x="289.177725" y="105.823417" style="fill-opacity: 0.3"/>
     <use xlink:href="#mc2200be0eb" x="297.56486" y="105.823417" style="fill-opacity: 0.3"/>
     <use xlink:href="#mc2200be0eb" x="291.455246" y="105.823417" style="fill-opacity: 0.3"/>
     <use xlink:href="#mc2200be0eb" x="295.060386" y="105.823417" style="fill-opacity: 0.3"/>
     <use xlink:href="#mc2200be0eb" x="310.236702" y="105.823417" style="fill-opacity: 0.3"/>
     <use xlink:href="#mc2200be0eb" x="304.022224" y="105.823417" style="fill-opacity: 0.3"/>
     <use xlink:href="#mc2200be0eb" x="299.03159" y="105.823417" style="fill-opacity: 0.3"/>
     <use xlink:href="#mc2200be0eb" x="301.093085" y="105.823417" style="fill-opacity: 0.3"/>
     <use xlink:href="#mc2200be0eb" x="288.702685" y="105.823417" style="fill-opacity: 0.3"/>
     <use xlink:href="#mc2200be0eb" x="310.915478" y="105.823417" style="fill-opacity: 0.3"/>
     <use xlink:href="#mc2200be0eb" x="297.497679" y="105.823417" style="fill-opacity: 0.3"/>
     <use xlink:href="#mc2200be0eb" x="305.314373" y="105.823417" style="fill-opacity: 0.3"/>
     <use xlink:href="#mc2200be0eb" x="300.182087" y="105.823417" style="fill-opacity: 0.3"/>
     <use xlink:href="#mc2200be0eb" x="291.398532" y="105.823417" style="fill-opacity: 0.3"/>
     <use xlink:href="#mc2200be0eb" x="299.126248" y="105.823417" style="fill-opacity: 0.3"/>
     <use xlink:href="#mc2200be0eb" x="304.9886" y="105.823417" style="fill-opacity: 0.3"/>
     <use xlink:href="#mc2200be0eb" x="291.625198" y="105.823417" style="fill-opacity: 0.3"/>
     <use xlink:href="#mc2200be0eb" x="297.347647" y="105.823417" style="fill-opacity: 0.3"/>
     <use xlink:href="#mc2200be0eb" x="302.575875" y="105.823417" style="fill-opacity: 0.3"/>
     <use xlink:href="#mc2200be0eb" x="310.179845" y="105.823417" style="fill-opacity: 0.3"/>
     <use xlink:href="#mc2200be0eb" x="305.44187" y="105.823417" style="fill-opacity: 0.3"/>
     <use xlink:href="#mc2200be0eb" x="304.735487" y="105.823417" style="fill-opacity: 0.3"/>
     <use xlink:href="#mc2200be0eb" x="311.62401" y="105.823417" style="fill-opacity: 0.3"/>
     <use xlink:href="#mc2200be0eb" x="295.984366" y="105.823417" style="fill-opacity: 0.3"/>
     <use xlink:href="#mc2200be0eb" x="291.720918" y="105.823417" style="fill-opacity: 0.3"/>
     <use xlink:href="#mc2200be0eb" x="305.243864" y="105.823417" style="fill-opacity: 0.3"/>
     <use xlink:href="#mc2200be0eb" x="300.739902" y="105.823417" style="fill-opacity: 0.3"/>
     <use xlink:href="#mc2200be0eb" x="307.580981" y="105.823417" style="fill-opacity: 0.3"/>
     <use xlink:href="#mc2200be0eb" x="309.07119" y="172.059412" style="fill-opacity: 0.3"/>
     <use xlink:href="#mc2200be0eb" x="293.390448" y="172.059412" style="fill-opacity: 0.3"/>
     <use xlink:href="#mc2200be0eb" x="288.598583" y="172.059412" style="fill-opacity: 0.3"/>
     <use xlink:href="#mc2200be0eb" x="305.198414" y="172.059412" style="fill-opacity: 0.3"/>
     <use xlink:href="#mc2200be0eb" x="301.361668" y="172.059412" style="fill-opacity: 0.3"/>
     <use xlink:href="#mc2200be0eb" x="298.170307" y="172.059412" style="fill-opacity: 0.3"/>
     <use xlink:href="#mc2200be0eb" x="305.921921" y="172.059412" style="fill-opacity: 0.3"/>
     <use xlink:href="#mc2200be0eb" x="285.767019" y="172.059412" style="fill-opacity: 0.3"/>
     <use xlink:href="#mc2200be0eb" x="308.299886" y="172.059412" style="fill-opacity: 0.3"/>
     <use xlink:href="#mc2200be0eb" x="291.705768" y="172.059412" style="fill-opacity: 0.3"/>
     <use xlink:href="#mc2200be0eb" x="310.309297" y="172.059412" style="fill-opacity: 0.3"/>
     <use xlink:href="#mc2200be0eb" x="299.673561" y="172.059412" style="fill-opacity: 0.3"/>
     <use xlink:href="#mc2200be0eb" x="297.928927" y="172.059412" style="fill-opacity: 0.3"/>
     <use xlink:href="#mc2200be0eb" x="310.779066" y="172.059412" style="fill-opacity: 0.3"/>
     <use xlink:href="#mc2200be0eb" x="292.491027" y="172.059412" style="fill-opacity: 0.3"/>
     <use xlink:href="#mc2200be0eb" x="290.169916" y="172.059412" style="fill-opacity: 0.3"/>
     <use xlink:href="#mc2200be0eb" x="287.525204" y="172.059412" style="fill-opacity: 0.3"/>
     <use xlink:href="#mc2200be0eb" x="307.629595" y="172.059412" style="fill-opacity: 0.3"/>
     <use xlink:href="#mc2200be0eb" x="293.134388" y="172.059412" style="fill-opacity: 0.3"/>
     <use xlink:href="#mc2200be0eb" x="306.88551" y="172.059412" style="fill-opacity: 0.3"/>
     <use xlink:href="#mc2200be0eb" x="307.477485" y="172.059412" style="fill-opacity: 0.3"/>
     <use xlink:href="#mc2200be0eb" x="306.596216" y="172.059412" style="fill-opacity: 0.3"/>
     <use xlink:href="#mc2200be0eb" x="298.923195" y="172.059412" style="fill-opacity: 0.3"/>
     <use xlink:href="#mc2200be0eb" x="289.300085" y="172.059412" style="fill-opacity: 0.3"/>
     <use xlink:href="#mc2200be0eb" x="300.174197" y="133.097062" style="fill-opacity: 0.3"/>
     <use xlink:href="#mc2200be0eb" x="307.226171" y="133.097062" style="fill-opacity: 0.3"/>
     <use xlink:href="#mc2200be0eb" x="304.354281" y="133.097062" style="fill-opacity: 0.3"/>
     <use xlink:href="#mc2200be0eb" x="299.360058" y="133.097062" style="fill-opacity: 0.3"/>
    </g>
   </g>
   <g id="PathCollection_3">
    <g clip-path="url(#pe8c28ed5ec)">
     <use xlink:href="#mc2200be0eb" x="439.761309" y="257.776583" style="fill-opacity: 0.3"/>
     <use xlink:href="#mc2200be0eb" x="452.342548" y="253.880348" style="fill-opacity: 0.3"/>
     <use xlink:href="#mc2200be0eb" x="429.948578" y="253.880348" style="fill-opacity: 0.3"/>
     <use xlink:href="#mc2200be0eb" x="451.91593" y="105.823417" style="fill-opacity: 0.3"/>
     <use xlink:href="#mc2200be0eb" x="438.031824" y="105.823417" style="fill-opacity: 0.3"/>
     <use xlink:href="#mc2200be0eb" x="428.699264" y="105.823417" style="fill-opacity: 0.3"/>
     <use xlink:href="#mc2200be0eb" x="442.678751" y="105.823417" style="fill-opacity: 0.3"/>
     <use xlink:href="#mc2200be0eb" x="426.175146" y="105.823417" style="fill-opacity: 0.3"/>
     <use xlink:href="#mc2200be0eb" x="450.439353" y="105.823417" style="fill-opacity: 0.3"/>
     <use xlink:href="#mc2200be0eb" x="446.229503" y="105.823417" style="fill-opacity: 0.3"/>
     <use xlink:href="#mc2200be0eb" x="426.477362" y="105.823417" style="fill-opacity: 0.3"/>
     <use xlink:href="#mc2200be0eb" x="425.105813" y="105.823417" style="fill-opacity: 0.3"/>
     <use xlink:href="#mc2200be0eb" x="429.536398" y="105.823417" style="fill-opacity: 0.3"/>
     <use xlink:href="#mc2200be0eb" x="431.886961" y="105.823417" style="fill-opacity: 0.3"/>
     <use xlink:href="#mc2200be0eb" x="439.092872" y="105.823417" style="fill-opacity: 0.3"/>
     <use xlink:href="#mc2200be0eb" x="446.587897" y="105.823417" style="fill-opacity: 0.3"/>
     <use xlink:href="#mc2200be0eb" x="438.439273" y="105.823417" style="fill-opacity: 0.3"/>
     <use xlink:href="#mc2200be0eb" x="433.30856" y="105.823417" style="fill-opacity: 0.3"/>
     <use xlink:href="#mc2200be0eb" x="445.410852" y="105.823417" style="fill-opacity: 0.3"/>
     <use xlink:href="#mc2200be0eb" x="441.380264" y="105.823417" style="fill-opacity: 0.3"/>
     <use xlink:href="#mc2200be0eb" x="433.226282" y="105.823417" style="fill-opacity: 0.3"/>
     <use xlink:href="#mc2200be0eb" x="448.482528" y="105.823417" style="fill-opacity: 0.3"/>
     <use xlink:href="#mc2200be0eb" x="438.210006" y="105.823417" style="fill-opacity: 0.3"/>
     <use xlink:href="#mc2200be0eb" x="436.817119" y="172.059412" style="fill-opacity: 0.3"/>
     <use xlink:href="#mc2200be0eb" x="432.528511" y="172.059412" style="fill-opacity: 0.3"/>
     <use xlink:href="#mc2200be0eb" x="428.675277" y="172.059412" style="fill-opacity: 0.3"/>
     <use xlink:href="#mc2200be0eb" x="447.251571" y="172.059412" style="fill-opacity: 0.3"/>
     <use xlink:href="#mc2200be0eb" x="435.02737" y="172.059412" style="fill-opacity: 0.3"/>
     <use xlink:href="#mc2200be0eb" x="443.939422" y="172.059412" style="fill-opacity: 0.3"/>
     <use xlink:href="#mc2200be0eb" x="446.138593" y="172.059412" style="fill-opacity: 0.3"/>
     <use xlink:href="#mc2200be0eb" x="435.594742" y="172.059412" style="fill-opacity: 0.3"/>
     <use xlink:href="#mc2200be0eb" x="442.030966" y="172.059412" style="fill-opacity: 0.3"/>
     <use xlink:href="#mc2200be0eb" x="429.393412" y="172.059412" style="fill-opacity: 0.3"/>
     <use xlink:href="#mc2200be0eb" x="430.294315" y="172.059412" style="fill-opacity: 0.3"/>
     <use xlink:href="#mc2200be0eb" x="446.485225" y="172.059412" style="fill-opacity: 0.3"/>
     <use xlink:href="#mc2200be0eb" x="436.361046" y="133.097062" style="fill-opacity: 0.3"/>
     <use xlink:href="#mc2200be0eb" x="430.366657" y="133.097062" style="fill-opacity: 0.3"/>
     <use xlink:href="#mc2200be0eb" x="449.636264" y="133.097062" style="fill-opacity: 0.3"/>
     <use xlink:href="#mc2200be0eb" x="428.152633" y="133.097062" style="fill-opacity: 0.3"/>
     <use xlink:href="#mc2200be0eb" x="438.116997" y="133.097062" style="fill-opacity: 0.3"/>
     <use xlink:href="#mc2200be0eb" x="434.459332" y="133.097062" style="fill-opacity: 0.3"/>
     <use xlink:href="#mc2200be0eb" x="426.917301" y="133.097062" style="fill-opacity: 0.3"/>
    </g>
   </g>
   <g id="PathCollection_4">
    <g clip-path="url(#pe8c28ed5ec)">
     <use xlink:href="#mc2200be0eb" x="580.301492" y="257.776583" style="fill-opacity: 0.3"/>
     <use xlink:href="#mc2200be0eb" x="585.717965" y="257.776583" style="fill-opacity: 0.3"/>
     <use xlink:href="#mc2200be0eb" x="578.493476" y="257.776583" style="fill-opacity: 0.3"/>
     <use xlink:href="#mc2200be0eb" x="587.528986" y="253.880348" style="fill-opacity: 0.3"/>
     <use xlink:href="#mc2200be0eb" x="579.427937" y="253.880348" style="fill-opacity: 0.3"/>
     <use xlink:href="#mc2200be0eb" x="583.858877" y="253.880348" style="fill-opacity: 0.3"/>
     <use xlink:href="#mc2200be0eb" x="585.21006" y="253.880348" style="fill-opacity: 0.3"/>
     <use xlink:href="#mc2200be0eb" x="564.744777" y="253.880348" style="fill-opacity: 0.3"/>
     <use xlink:href="#mc2200be0eb" x="590.932272" y="183.748118" style="fill-opacity: 0.3"/>
     <use xlink:href="#mc2200be0eb" x="581.801404" y="253.880348" style="fill-opacity: 0.3"/>
     <use xlink:href="#mc2200be0eb" x="581.186353" y="253.880348" style="fill-opacity: 0.3"/>
     <use xlink:href="#mc2200be0eb" x="591.075777" y="253.880348" style="fill-opacity: 0.3"/>
     <use xlink:href="#mc2200be0eb" x="570.337932" y="105.823417" style="fill-opacity: 0.3"/>
     <use xlink:href="#mc2200be0eb" x="590.257937" y="105.823417" style="fill-opacity: 0.3"/>
     <use xlink:href="#mc2200be0eb" x="584.189873" y="105.823417" style="fill-opacity: 0.3"/>
     <use xlink:href="#mc2200be0eb" x="584.910245" y="105.823417" style="fill-opacity: 0.3"/>
     <use xlink:href="#mc2200be0eb" x="572.745951" y="105.823417" style="fill-opacity: 0.3"/>
     <use xlink:href="#mc2200be0eb" x="572.255166" y="105.823417" style="fill-opacity: 0.3"/>
     <use xlink:href="#mc2200be0eb" x="577.513538" y="105.823417" style="fill-opacity: 0.3"/>
     <use xlink:href="#mc2200be0eb" x="570.312129" y="105.823417" style="fill-opacity: 0.3"/>
     <use xlink:href="#mc2200be0eb" x="585.883332" y="105.823417" style="fill-opacity: 0.3"/>
     <use xlink:href="#mc2200be0eb" x="578.894433" y="105.823417" style="fill-opacity: 0.3"/>
     <use xlink:href="#mc2200be0eb" x="573.263791" y="105.823417" style="fill-opacity: 0.3"/>
     <use xlink:href="#mc2200be0eb" x="573.08305" y="105.823417" style="fill-opacity: 0.3"/>
     <use xlink:href="#mc2200be0eb" x="586.102712" y="105.823417" style="fill-opacity: 0.3"/>
     <use xlink:href="#mc2200be0eb" x="576.03908" y="105.823417" style="fill-opacity: 0.3"/>
     <use xlink:href="#mc2200be0eb" x="586.287575" y="105.823417" style="fill-opacity: 0.3"/>
     <use xlink:href="#mc2200be0eb" x="577.793143" y="105.823417" style="fill-opacity: 0.3"/>
     <use xlink:href="#mc2200be0eb" x="584.727329" y="105.823417" style="fill-opacity: 0.3"/>
     <use xlink:href="#mc2200be0eb" x="580.06771" y="105.823417" style="fill-opacity: 0.3"/>
     <use xlink:href="#mc2200be0eb" x="569.775998" y="105.823417" style="fill-opacity: 0.3"/>
     <use xlink:href="#mc2200be0eb" x="584.540237" y="105.823417" style="fill-opacity: 0.3"/>
     <use xlink:href="#mc2200be0eb" x="576.155769" y="105.823417" style="fill-opacity: 0.3"/>
     <use xlink:href="#mc2200be0eb" x="566.805708" y="105.823417" style="fill-opacity: 0.3"/>
     <use xlink:href="#mc2200be0eb" x="587.811365" y="105.823417" style="fill-opacity: 0.3"/>
     <use xlink:href="#mc2200be0eb" x="572.580832" y="105.823417" style="fill-opacity: 0.3"/>
     <use xlink:href="#mc2200be0eb" x="582.69867" y="105.823417" style="fill-opacity: 0.3"/>
     <use xlink:href="#mc2200be0eb" x="573.279975" y="105.823417" style="fill-opacity: 0.3"/>
     <use xlink:href="#mc2200be0eb" x="570.841538" y="105.823417" style="fill-opacity: 0.3"/>
     <use xlink:href="#mc2200be0eb" x="580.112678" y="105.823417" style="fill-opacity: 0.3"/>
     <use xlink:href="#mc2200be0eb" x="575.899364" y="105.823417" style="fill-opacity: 0.3"/>
     <use xlink:href="#mc2200be0eb" x="585.552111" y="105.823417" style="fill-opacity: 0.3"/>
     <use xlink:href="#mc2200be0eb" x="577.438541" y="105.823417" style="fill-opacity: 0.3"/>
     <use xlink:href="#mc2200be0eb" x="573.302257" y="105.823417" style="fill-opacity: 0.3"/>
     <use xlink:href="#mc2200be0eb" x="568.013742" y="105.823417" style="fill-opacity: 0.3"/>
     <use xlink:href="#mc2200be0eb" x="574.388197" y="105.823417" style="fill-opacity: 0.3"/>
     <use xlink:href="#mc2200be0eb" x="570.149925" y="105.823417" style="fill-opacity: 0.3"/>
     <use xlink:href="#mc2200be0eb" x="591.847797" y="105.823417" style="fill-opacity: 0.3"/>
     <use xlink:href="#mc2200be0eb" x="586.228544" y="105.823417" style="fill-opacity: 0.3"/>
     <use xlink:href="#mc2200be0eb" x="581.919307" y="105.823417" style="fill-opacity: 0.3"/>
     <use xlink:href="#mc2200be0eb" x="586.690655" y="105.823417" style="fill-opacity: 0.3"/>
     <use xlink:href="#mc2200be0eb" x="564.490522" y="105.823417" style="fill-opacity: 0.3"/>
     <use xlink:href="#mc2200be0eb" x="576.477909" y="172.059412" style="fill-opacity: 0.3"/>
     <use xlink:href="#mc2200be0eb" x="589.808845" y="172.059412" style="fill-opacity: 0.3"/>
     <use xlink:href="#mc2200be0eb" x="566.59765" y="172.059412" style="fill-opacity: 0.3"/>
     <use xlink:href="#mc2200be0eb" x="570.654209" y="172.059412" style="fill-opacity: 0.3"/>
     <use xlink:href="#mc2200be0eb" x="578.474052" y="172.059412" style="fill-opacity: 0.3"/>
     <use xlink:href="#mc2200be0eb" x="584.211788" y="172.059412" style="fill-opacity: 0.3"/>
     <use xlink:href="#mc2200be0eb" x="569.473347" y="172.059412" style="fill-opacity: 0.3"/>
     <use xlink:href="#mc2200be0eb" x="578.238843" y="172.059412" style="fill-opacity: 0.3"/>
     <use xlink:href="#mc2200be0eb" x="568.283653" y="172.059412" style="fill-opacity: 0.3"/>
     <use xlink:href="#mc2200be0eb" x="574.842289" y="172.059412" style="fill-opacity: 0.3"/>
     <use xlink:href="#mc2200be0eb" x="590.774646" y="160.370707" style="fill-opacity: 0.3"/>
    </g>
   </g>
  </g>
 </g>
 <defs>
  <clipPath id="pe8c28ed5ec">
   <rect x="90" y="43.2" width="558" height="277.2"/>
  </clipPath>
 </defs>
</svg>
