<?xml version="1.0" encoding="utf-8" standalone="no"?>
<!DOCTYPE svg PUBLIC "-//W3C//DTD SVG 1.1//EN"
  "http://www.w3.org/Graphics/SVG/1.1/DTD/svg11.dtd">
<svg xmlns:xlink="http://www.w3.org/1999/xlink" width="720pt" height="360pt" viewBox="0 0 720 360" xmlns="http://www.w3.org/2000/svg" version="1.1">
 <metadata>
  <rdf:RDF xmlns:dc="http://purl.org/dc/elements/1.1/" xmlns:cc="http://creativecommons.org/ns#" xmlns:rdf="http://www.w3.org/1999/02/22-rdf-syntax-ns#">
   <cc:Work>
    <dc:type rdf:resource="http://purl.org/dc/dcmitype/StillImage"/>
    <dc:date>2025-09-11T16:48:56.854887</dc:date>
    <dc:format>image/svg+xml</dc:format>
    <dc:creator>
     <cc:Agent>
      <dc:title>Matplotlib v3.10.3, https://matplotlib.org/</dc:title>
     </cc:Agent>
    </dc:creator>
   </cc:Work>
  </rdf:RDF>
 </metadata>
 <defs>
  <style type="text/css">*{stroke-linejoin: round; stroke-linecap: butt}</style>
 </defs>
 <g id="figure_1">
  <g id="patch_1">
   <path d="M 0 360 
L 720 360 
L 720 0 
L 0 0 
z
" style="fill: #ffffff"/>
  </g>
  <g id="axes_1">
   <g id="patch_2">
    <path d="M 90 320.4 
L 648 320.4 
L 648 43.2 
L 90 43.2 
z
" style="fill: #ffffff"/>
   </g>
   <g id="FillBetweenPolyCollection_1">
    <defs>
     <path id="m37dd26b0f6" d="M 161.684506 -52.2 
L 157.815494 -52.2 
L 157.055273 -54.745455 
L 156.069009 -57.290909 
L 154.818334 -59.836364 
L 153.268355 -62.381818 
L 151.391374 -64.927273 
L 149.170822 -67.472727 
L 146.60497 -70.018182 
L 143.709871 -72.563636 
L 140.521019 -75.109091 
L 137.093275 -77.654545 
L 133.498804 -80.2 
L 129.82304 -82.745455 
L 126.158977 -85.290909 
L 122.600389 -87.836364 
L 119.234785 -90.381818 
L 116.137007 -92.927273 
L 113.364353 -95.472727 
L 110.953869 -98.018182 
L 108.922166 -100.563636 
L 107.267721 -103.109091 
L 105.975204 -105.654545 
L 105.021085 -108.2 
L 104.379566 -110.745455 
L 104.027862 -113.290909 
L 103.95 -115.836364 
L 104.138606 -118.381818 
L 104.5945 -120.927273 
L 105.324328 -123.472727 
L 106.336783 -126.018182 
L 107.638173 -128.563636 
L 109.228167 -131.109091 
L 111.096458 -133.654545 
L 113.220866 -136.2 
L 115.567106 -138.745455 
L 118.090183 -141.290909 
L 120.737059 -143.836364 
L 123.450141 -146.381818 
L 126.171046 -148.927273 
L 128.844141 -151.472727 
L 131.419526 -154.018182 
L 133.855218 -156.563636 
L 136.118521 -159.109091 
L 138.186624 -161.654545 
L 140.046574 -164.2 
L 141.694776 -166.745455 
L 143.136145 -169.290909 
L 144.383015 -171.836364 
L 145.453852 -174.381818 
L 146.371814 -176.927273 
L 147.163187 -179.472727 
L 147.855756 -182.018182 
L 148.477157 -184.563636 
L 149.053314 -187.109091 
L 149.607043 -189.654545 
L 150.15692 -192.2 
L 150.716475 -194.745455 
L 151.293763 -197.290909 
L 151.891322 -199.836364 
L 152.506504 -202.381818 
L 153.132133 -204.927273 
L 153.757433 -207.472727 
L 154.369144 -210.018182 
L 154.952741 -212.563636 
L 155.493681 -215.109091 
L 155.978573 -217.654545 
L 156.396216 -220.2 
L 156.738425 -222.745455 
L 157.000594 -225.290909 
L 157.181979 -227.836364 
L 157.285677 -230.381818 
L 157.318333 -232.927273 
L 157.289597 -235.472727 
L 157.211412 -238.018182 
L 157.097181 -240.563636 
L 156.960922 -243.109091 
L 156.816458 -245.654545 
L 156.676721 -248.2 
L 156.553202 -250.745455 
L 156.455567 -253.290909 
L 156.391424 -255.836364 
L 156.366225 -258.381818 
L 156.383259 -260.927273 
L 156.443716 -263.472727 
L 156.546788 -266.018182 
L 156.689813 -268.563636 
L 156.868455 -271.109091 
L 157.076944 -273.654545 
L 157.308382 -276.2 
L 157.555119 -278.745455 
L 157.809186 -281.290909 
L 158.062762 -283.836364 
L 158.308627 -286.381818 
L 158.540561 -288.927273 
L 158.753648 -291.472727 
L 158.944451 -294.018182 
L 159.111049 -296.563636 
L 159.252949 -299.109091 
L 159.370887 -301.654545 
L 159.466558 -304.2 
L 160.033442 -304.2 
L 160.033442 -304.2 
L 160.129113 -301.654545 
L 160.247051 -299.109091 
L 160.388951 -296.563636 
L 160.555549 -294.018182 
L 160.746352 -291.472727 
L 160.959439 -288.927273 
L 161.191373 -286.381818 
L 161.437238 -283.836364 
L 161.690814 -281.290909 
L 161.944881 -278.745455 
L 162.191618 -276.2 
L 162.423056 -273.654545 
L 162.631545 -271.109091 
L 162.810187 -268.563636 
L 162.953212 -266.018182 
L 163.056284 -263.472727 
L 163.116741 -260.927273 
L 163.133775 -258.381818 
L 163.108576 -255.836364 
L 163.044433 -253.290909 
L 162.946798 -250.745455 
L 162.823279 -248.2 
L 162.683542 -245.654545 
L 162.539078 -243.109091 
L 162.402819 -240.563636 
L 162.288588 -238.018182 
L 162.210403 -235.472727 
L 162.181667 -232.927273 
L 162.214323 -230.381818 
L 162.318021 -227.836364 
L 162.499406 -225.290909 
L 162.761575 -222.745455 
L 163.103784 -220.2 
L 163.521427 -217.654545 
L 164.006319 -215.109091 
L 164.547259 -212.563636 
L 165.130856 -210.018182 
L 165.742567 -207.472727 
L 166.367867 -204.927273 
L 166.993496 -202.381818 
L 167.608678 -199.836364 
L 168.206237 -197.290909 
L 168.783525 -194.745455 
L 169.34308 -192.2 
L 169.892957 -189.654545 
L 170.446686 -187.109091 
L 171.022843 -184.563636 
L 171.644244 -182.018182 
L 172.336813 -179.472727 
L 173.128186 -176.927273 
L 174.046148 -174.381818 
L 175.116985 -171.836364 
L 176.363855 -169.290909 
L 177.805224 -166.745455 
L 179.453426 -164.2 
L 181.313376 -161.654545 
L 183.381479 -159.109091 
L 185.644782 -156.563636 
L 188.080474 -154.018182 
L 190.655859 -151.472727 
L 193.328954 -148.927273 
L 196.049859 -146.381818 
L 198.762941 -143.836364 
L 201.409817 -141.290909 
L 203.932894 -138.745455 
L 206.279134 -136.2 
L 208.403542 -133.654545 
L 210.271833 -131.109091 
L 211.861827 -128.563636 
L 213.163217 -126.018182 
L 214.175672 -123.472727 
L 214.9055 -120.927273 
L 215.361394 -118.381818 
L 215.55 -115.836364 
L 215.472138 -113.290909 
L 215.120434 -110.745455 
L 214.478915 -108.2 
L 213.524796 -105.654545 
L 212.232279 -103.109091 
L 210.577834 -100.563636 
L 208.546131 -98.018182 
L 206.135647 -95.472727 
L 203.362993 -92.927273 
L 200.265215 -90.381818 
L 196.899611 -87.836364 
L 193.341023 -85.290909 
L 189.67696 -82.745455 
L 186.001196 -80.2 
L 182.406725 -77.654545 
L 178.978981 -75.109091 
L 175.790129 -72.563636 
L 172.89503 -70.018182 
L 170.329178 -67.472727 
L 168.108626 -64.927273 
L 166.231645 -62.381818 
L 164.681666 -59.836364 
L 163.430991 -57.290909 
L 162.444727 -54.745455 
L 161.684506 -52.2 
z
" style="stroke: #3d3d3d; stroke-width: 1.25"/>
    </defs>
    <g clip-path="url(#p46f4b32ec8)">
     <use xlink:href="#m37dd26b0f6" x="0" y="360" style="fill: #3274a1; stroke: #3d3d3d; stroke-width: 1.25"/>
    </g>
   </g>
   <g id="FillBetweenPolyCollection_2">
    <defs>
     <path id="m42afdc2e91" d="M 299.851832 -72.001152 
L 298.648168 -72.001152 
L 298.362688 -73.50092 
L 297.971708 -75.000687 
L 297.449365 -76.500455 
L 296.768125 -78.000222 
L 295.900061 -79.499989 
L 294.81833 -80.999757 
L 293.498694 -82.499524 
L 291.920941 -83.999291 
L 290.070086 -85.499059 
L 287.937316 -86.998826 
L 285.520765 -88.498593 
L 282.826273 -89.998361 
L 279.868328 -91.498128 
L 276.67135 -92.997895 
L 273.271325 -94.497663 
L 269.717542 -95.99743 
L 266.07393 -97.497197 
L 262.419278 -98.996965 
L 258.845551 -100.496732 
L 255.453693 -101.996499 
L 252.346769 -103.496267 
L 249.620911 -104.996034 
L 247.355263 -106.495802 
L 245.602676 -107.995569 
L 244.38309 -109.495336 
L 243.681302 -110.995104 
L 243.45 -112.494871 
L 243.617892 -113.994638 
L 244.101534 -115.494406 
L 244.818605 -116.994173 
L 245.69998 -118.49394 
L 246.698247 -119.993708 
L 247.791193 -121.493475 
L 248.979996 -122.993242 
L 250.283062 -124.49301 
L 251.727312 -125.992777 
L 253.339081 -127.492544 
L 255.136486 -128.992312 
L 257.124482 -130.492079 
L 259.292921 -131.991846 
L 261.617196 -133.491614 
L 264.060574 -134.991381 
L 266.577259 -136.491148 
L 269.115475 -137.990916 
L 271.620255 -139.490683 
L 274.036035 -140.990451 
L 276.309337 -142.490218 
L 278.391817 -143.989985 
L 280.243736 -145.489753 
L 281.837568 -146.98952 
L 283.161206 -148.489287 
L 284.220069 -149.989055 
L 285.037493 -151.488822 
L 285.653056 -152.988589 
L 286.118855 -154.488357 
L 286.494162 -155.988124 
L 286.839194 -157.487891 
L 287.20888 -158.987659 
L 287.647498 -160.487426 
L 288.18486 -161.987193 
L 288.834422 -163.486961 
L 289.593414 -164.986728 
L 290.444739 -166.486495 
L 291.360232 -167.986263 
L 292.304705 -169.48603 
L 293.240235 -170.985798 
L 294.130182 -172.485565 
L 294.942551 -173.985332 
L 295.652458 -175.4851 
L 296.243588 -176.984867 
L 296.708654 -178.484634 
L 297.048976 -179.984402 
L 297.273328 -181.484169 
L 297.396298 -182.983936 
L 297.436347 -184.483704 
L 297.413822 -185.983471 
L 297.349129 -187.483238 
L 297.261221 -188.983006 
L 297.16654 -190.482773 
L 297.078462 -191.98254 
L 297.007191 -193.482308 
L 296.960022 -194.982075 
L 296.941797 -196.481842 
L 296.955383 -197.98161 
L 297.00205 -199.481377 
L 297.081658 -200.981145 
L 297.192675 -202.480912 
L 297.332102 -203.980679 
L 297.495438 -205.480447 
L 297.67677 -206.980214 
L 297.869093 -208.479981 
L 298.064821 -209.979749 
L 298.256444 -211.479516 
L 298.4372 -212.979283 
L 298.601659 -214.479051 
L 298.746093 -215.978818 
L 298.868609 -217.478585 
L 298.969034 -218.978353 
L 299.048615 -220.47812 
L 299.451385 -220.47812 
L 299.451385 -220.47812 
L 299.530966 -218.978353 
L 299.631391 -217.478585 
L 299.753907 -215.978818 
L 299.898341 -214.479051 
L 300.0628 -212.979283 
L 300.243556 -211.479516 
L 300.435179 -209.979749 
L 300.630907 -208.479981 
L 300.82323 -206.980214 
L 301.004562 -205.480447 
L 301.167898 -203.980679 
L 301.307325 -202.480912 
L 301.418342 -200.981145 
L 301.49795 -199.481377 
L 301.544617 -197.98161 
L 301.558203 -196.481842 
L 301.539978 -194.982075 
L 301.492809 -193.482308 
L 301.421538 -191.98254 
L 301.33346 -190.482773 
L 301.238779 -188.983006 
L 301.150871 -187.483238 
L 301.086178 -185.983471 
L 301.063653 -184.483704 
L 301.103702 -182.983936 
L 301.226672 -181.484169 
L 301.451024 -179.984402 
L 301.791346 -178.484634 
L 302.256412 -176.984867 
L 302.847542 -175.4851 
L 303.557449 -173.985332 
L 304.369818 -172.485565 
L 305.259765 -170.985798 
L 306.195295 -169.48603 
L 307.139768 -167.986263 
L 308.055261 -166.486495 
L 308.906586 -164.986728 
L 309.665578 -163.486961 
L 310.31514 -161.987193 
L 310.852502 -160.487426 
L 311.29112 -158.987659 
L 311.660806 -157.487891 
L 312.005838 -155.988124 
L 312.381145 -154.488357 
L 312.846944 -152.988589 
L 313.462507 -151.488822 
L 314.279931 -149.989055 
L 315.338794 -148.489287 
L 316.662432 -146.98952 
L 318.256264 -145.489753 
L 320.108183 -143.989985 
L 322.190663 -142.490218 
L 324.463965 -140.990451 
L 326.879745 -139.490683 
L 329.384525 -137.990916 
L 331.922741 -136.491148 
L 334.439426 -134.991381 
L 336.882804 -133.491614 
L 339.207079 -131.991846 
L 341.375518 -130.492079 
L 343.363514 -128.992312 
L 345.160919 -127.492544 
L 346.772688 -125.992777 
L 348.216938 -124.49301 
L 349.520004 -122.993242 
L 350.708807 -121.493475 
L 351.801753 -119.993708 
L 352.80002 -118.49394 
L 353.681395 -116.994173 
L 354.398466 -115.494406 
L 354.882108 -113.994638 
L 355.05 -112.494871 
L 354.818698 -110.995104 
L 354.11691 -109.495336 
L 352.897324 -107.995569 
L 351.144737 -106.495802 
L 348.879089 -104.996034 
L 346.153231 -103.496267 
L 343.046307 -101.996499 
L 339.654449 -100.496732 
L 336.080722 -98.996965 
L 332.42607 -97.497197 
L 328.782458 -95.99743 
L 325.228675 -94.497663 
L 321.82865 -92.997895 
L 318.631672 -91.498128 
L 315.673727 -89.998361 
L 312.979235 -88.498593 
L 310.562684 -86.998826 
L 308.429914 -85.499059 
L 306.579059 -83.999291 
L 305.001306 -82.499524 
L 303.68167 -80.999757 
L 302.599939 -79.499989 
L 301.731875 -78.000222 
L 301.050635 -76.500455 
L 300.528292 -75.000687 
L 300.137312 -73.50092 
L 299.851832 -72.001152 
z
" style="stroke: #3d3d3d; stroke-width: 1.25"/>
    </defs>
    <g clip-path="url(#p46f4b32ec8)">
     <use xlink:href="#m42afdc2e91" x="0" y="360" style="fill: #e1812c; stroke: #3d3d3d; stroke-width: 1.25"/>
    </g>
   </g>
   <g id="FillBetweenPolyCollection_3">
    <defs>
     <path id="m20f2237619" d="M 439.404235 -65.275522 
L 438.095765 -65.275522 
L 437.810346 -67.086631 
L 437.430616 -68.89774 
L 436.938189 -70.708849 
L 436.315622 -72.519958 
L 435.547974 -74.331067 
L 434.624375 -76.142176 
L 433.539307 -77.953285 
L 432.293348 -79.764393 
L 430.893131 -81.575502 
L 429.350407 -83.386611 
L 427.680289 -85.19772 
L 425.898924 -87.008829 
L 424.021035 -88.819938 
L 422.057858 -90.631047 
L 420.015987 -92.442156 
L 417.897477 -94.253265 
L 415.701283 -96.064374 
L 413.425817 -97.875483 
L 411.072082 -99.686591 
L 408.6467 -101.4977 
L 406.164104 -103.308809 
L 403.647376 -105.119918 
L 401.12752 -106.931027 
L 398.641322 -108.742136 
L 396.228311 -110.553245 
L 393.927529 -112.364354 
L 391.77483 -114.175463 
L 389.801276 -115.986572 
L 388.032902 -117.797681 
L 386.491786 -119.608789 
L 385.198041 -121.419898 
L 384.172175 -123.231007 
L 383.437165 -125.042116 
L 383.019673 -126.853225 
L 382.95 -128.664334 
L 383.260572 -130.475443 
L 383.983029 -132.286552 
L 385.144193 -134.097661 
L 386.761408 -135.90877 
L 388.837879 -137.719879 
L 391.358704 -139.530988 
L 394.288267 -141.342096 
L 397.56953 -143.153205 
L 401.125523 -144.964314 
L 404.863062 -146.775423 
L 408.678358 -148.586532 
L 412.463949 -150.397641 
L 416.116151 -152.20875 
L 419.542171 -154.019859 
L 422.666104 -155.830968 
L 425.433204 -157.642077 
L 427.812094 -159.453186 
L 429.794846 -161.264294 
L 431.39511 -163.075403 
L 432.644674 -164.886512 
L 433.58892 -166.697621 
L 434.281717 -168.50873 
L 434.780238 -170.319839 
L 435.140175 -172.130948 
L 435.411726 -173.942057 
L 435.636614 -175.753166 
L 435.846314 -177.564275 
L 436.061512 -179.375384 
L 436.292682 -181.186492 
L 436.541568 -182.997601 
L 436.803258 -184.80871 
L 437.068505 -186.619819 
L 437.325947 -188.430928 
L 437.563976 -190.242037 
L 437.772088 -192.053146 
L 437.941666 -193.864255 
L 438.066278 -195.675364 
L 438.141622 -197.486473 
L 438.165323 -199.297582 
L 438.136741 -201.10869 
L 438.056928 -202.919799 
L 437.92877 -204.730908 
L 437.757287 -206.542017 
L 437.549967 -208.353126 
L 437.316983 -210.164235 
L 437.071123 -211.975344 
L 436.827317 -213.786453 
L 436.601711 -215.597562 
L 436.41035 -217.408671 
L 436.267629 -219.21978 
L 436.184742 -221.030888 
L 436.168406 -222.841997 
L 436.220062 -224.653106 
L 436.33575 -226.464215 
L 436.506645 -228.275324 
L 436.720199 -230.086433 
L 436.961674 -231.897542 
L 437.215817 -233.708651 
L 437.468425 -235.51976 
L 437.70757 -237.330869 
L 437.924369 -239.141978 
L 438.113261 -240.953086 
L 438.271841 -242.764195 
L 438.400361 -244.575304 
L 439.099639 -244.575304 
L 439.099639 -244.575304 
L 439.228159 -242.764195 
L 439.386739 -240.953086 
L 439.575631 -239.141978 
L 439.79243 -237.330869 
L 440.031575 -235.51976 
L 440.284183 -233.708651 
L 440.538326 -231.897542 
L 440.779801 -230.086433 
L 440.993355 -228.275324 
L 441.16425 -226.464215 
L 441.279938 -224.653106 
L 441.331594 -222.841997 
L 441.315258 -221.030888 
L 441.232371 -219.21978 
L 441.08965 -217.408671 
L 440.898289 -215.597562 
L 440.672683 -213.786453 
L 440.428877 -211.975344 
L 440.183017 -210.164235 
L 439.950033 -208.353126 
L 439.742713 -206.542017 
L 439.57123 -204.730908 
L 439.443072 -202.919799 
L 439.363259 -201.10869 
L 439.334677 -199.297582 
L 439.358378 -197.486473 
L 439.433722 -195.675364 
L 439.558334 -193.864255 
L 439.727912 -192.053146 
L 439.936024 -190.242037 
L 440.174053 -188.430928 
L 440.431495 -186.619819 
L 440.696742 -184.80871 
L 440.958432 -182.997601 
L 441.207318 -181.186492 
L 441.438488 -179.375384 
L 441.653686 -177.564275 
L 441.863386 -175.753166 
L 442.088274 -173.942057 
L 442.359825 -172.130948 
L 442.719762 -170.319839 
L 443.218283 -168.50873 
L 443.91108 -166.697621 
L 444.855326 -164.886512 
L 446.10489 -163.075403 
L 447.705154 -161.264294 
L 449.687906 -159.453186 
L 452.066796 -157.642077 
L 454.833896 -155.830968 
L 457.957829 -154.019859 
L 461.383849 -152.20875 
L 465.036051 -150.397641 
L 468.821642 -148.586532 
L 472.636938 -146.775423 
L 476.374477 -144.964314 
L 479.93047 -143.153205 
L 483.211733 -141.342096 
L 486.141296 -139.530988 
L 488.662121 -137.719879 
L 490.738592 -135.90877 
L 492.355807 -134.097661 
L 493.516971 -132.286552 
L 494.239428 -130.475443 
L 494.55 -128.664334 
L 494.480327 -126.853225 
L 494.062835 -125.042116 
L 493.327825 -123.231007 
L 492.301959 -121.419898 
L 491.008214 -119.608789 
L 489.467098 -117.797681 
L 487.698724 -115.986572 
L 485.72517 -114.175463 
L 483.572471 -112.364354 
L 481.271689 -110.553245 
L 478.858678 -108.742136 
L 476.37248 -106.931027 
L 473.852624 -105.119918 
L 471.335896 -103.308809 
L 468.8533 -101.4977 
L 466.427918 -99.686591 
L 464.074183 -97.875483 
L 461.798717 -96.064374 
L 459.602523 -94.253265 
L 457.484013 -92.442156 
L 455.442142 -90.631047 
L 453.478965 -88.819938 
L 451.601076 -87.008829 
L 449.819711 -85.19772 
L 448.149593 -83.386611 
L 446.606869 -81.575502 
L 445.206652 -79.764393 
L 443.960693 -77.953285 
L 442.875625 -76.142176 
L 441.952026 -74.331067 
L 441.184378 -72.519958 
L 440.561811 -70.708849 
L 440.069384 -68.89774 
L 439.689654 -67.086631 
L 439.404235 -65.275522 
z
" style="stroke: #3d3d3d; stroke-width: 1.25"/>
    </defs>
    <g clip-path="url(#p46f4b32ec8)">
     <use xlink:href="#m20f2237619" x="0" y="360" style="fill: #3a923a; stroke: #3d3d3d; stroke-width: 1.25"/>
    </g>
   </g>
   <g id="FillBetweenPolyCollection_4">
    <defs>
     <path id="mdc659b30f4" d="M 580.14161 -66.14471 
L 576.35839 -66.14471 
L 575.847281 -67.229493 
L 575.228047 -68.314276 
L 574.486264 -69.399059 
L 573.607702 -70.483843 
L 572.578895 -71.568626 
L 571.387781 -72.653409 
L 570.024397 -73.738192 
L 568.48157 -74.822975 
L 566.755603 -75.907759 
L 564.846873 -76.992542 
L 562.760334 -78.077325 
L 560.505857 -79.162108 
L 558.0984 -80.246892 
L 555.557955 -81.331675 
L 552.909294 -82.416458 
L 550.181488 -83.501241 
L 547.407233 -84.586024 
L 544.622004 -85.670808 
L 541.863079 -86.755591 
L 539.168489 -87.840374 
L 536.575922 -88.925157 
L 534.121653 -90.00994 
L 531.839537 -91.094724 
L 529.760094 -92.179507 
L 527.909729 -93.26429 
L 526.310092 -94.349073 
L 524.977595 -95.433857 
L 523.92309 -96.51864 
L 523.151691 -97.603423 
L 522.662756 -98.688206 
L 522.45 -99.772989 
L 522.501753 -100.857773 
L 522.801341 -101.942556 
L 523.327604 -103.027339 
L 524.055535 -104.112122 
L 524.957034 -105.196906 
L 526.001782 -106.281689 
L 527.158186 -107.366472 
L 528.394411 -108.451255 
L 529.679417 -109.536038 
L 530.984009 -110.620822 
L 532.281806 -111.705605 
L 533.55012 -112.790388 
L 534.770663 -113.875171 
L 535.930066 -114.959954 
L 537.020156 -116.044738 
L 538.037979 -117.129521 
L 538.985562 -118.214304 
L 539.869416 -119.299087 
L 540.699812 -120.383871 
L 541.489864 -121.468654 
L 542.254477 -122.553437 
L 543.009214 -123.63822 
L 543.769162 -124.723003 
L 544.547849 -125.807787 
L 545.356303 -126.89257 
L 546.202292 -127.977353 
L 547.089803 -129.062136 
L 548.018801 -130.146919 
L 548.985273 -131.231703 
L 549.981562 -132.316486 
L 550.996969 -133.401269 
L 552.018575 -134.486052 
L 553.032236 -135.570836 
L 554.023657 -136.655619 
L 554.979493 -137.740402 
L 555.888371 -138.825185 
L 556.741758 -139.909968 
L 557.534622 -140.994752 
L 558.265815 -142.079535 
L 558.938162 -143.164318 
L 559.558246 -144.249101 
L 560.135901 -145.333884 
L 560.683475 -146.418668 
L 561.214903 -147.503451 
L 561.744681 -148.588234 
L 562.286812 -149.673017 
L 562.853823 -150.757801 
L 563.455909 -151.842584 
L 564.100277 -152.927367 
L 564.79073 -154.01215 
L 565.527505 -155.096933 
L 566.30737 -156.181717 
L 567.123954 -157.2665 
L 567.968268 -158.351283 
L 568.829367 -159.436066 
L 569.695094 -160.52085 
L 570.55284 -161.605633 
L 571.39027 -162.690416 
L 572.195963 -163.775199 
L 572.959931 -164.859982 
L 573.673998 -165.944766 
L 574.332027 -167.029549 
L 574.929995 -168.114332 
L 575.465947 -169.199115 
L 575.93983 -170.283898 
L 576.353252 -171.368682 
L 576.709185 -172.453465 
L 577.01164 -173.538248 
L 579.48836 -173.538248 
L 579.48836 -173.538248 
L 579.790815 -172.453465 
L 580.146748 -171.368682 
L 580.56017 -170.283898 
L 581.034053 -169.199115 
L 581.570005 -168.114332 
L 582.167973 -167.029549 
L 582.826002 -165.944766 
L 583.540069 -164.859982 
L 584.304037 -163.775199 
L 585.10973 -162.690416 
L 585.94716 -161.605633 
L 586.804906 -160.52085 
L 587.670633 -159.436066 
L 588.531732 -158.351283 
L 589.376046 -157.2665 
L 590.19263 -156.181717 
L 590.972495 -155.096933 
L 591.70927 -154.01215 
L 592.399723 -152.927367 
L 593.044091 -151.842584 
L 593.646177 -150.757801 
L 594.213188 -149.673017 
L 594.755319 -148.588234 
L 595.285097 -147.503451 
L 595.816525 -146.418668 
L 596.364099 -145.333884 
L 596.941754 -144.249101 
L 597.561838 -143.164318 
L 598.234185 -142.079535 
L 598.965378 -140.994752 
L 599.758242 -139.909968 
L 600.611629 -138.825185 
L 601.520507 -137.740402 
L 602.476343 -136.655619 
L 603.467764 -135.570836 
L 604.481425 -134.486052 
L 605.503031 -133.401269 
L 606.518438 -132.316486 
L 607.514727 -131.231703 
L 608.481199 -130.146919 
L 609.410197 -129.062136 
L 610.297708 -127.977353 
L 611.143697 -126.89257 
L 611.952151 -125.807787 
L 612.730838 -124.723003 
L 613.490786 -123.63822 
L 614.245523 -122.553437 
L 615.010136 -121.468654 
L 615.800188 -120.383871 
L 616.630584 -119.299087 
L 617.514438 -118.214304 
L 618.462021 -117.129521 
L 619.479844 -116.044738 
L 620.569934 -114.959954 
L 621.729337 -113.875171 
L 622.94988 -112.790388 
L 624.218194 -111.705605 
L 625.515991 -110.620822 
L 626.820583 -109.536038 
L 628.105589 -108.451255 
L 629.341814 -107.366472 
L 630.498218 -106.281689 
L 631.542966 -105.196906 
L 632.444465 -104.112122 
L 633.172396 -103.027339 
L 633.698659 -101.942556 
L 633.998247 -100.857773 
L 634.05 -99.772989 
L 633.837244 -98.688206 
L 633.348309 -97.603423 
L 632.57691 -96.51864 
L 631.522405 -95.433857 
L 630.189908 -94.349073 
L 628.590271 -93.26429 
L 626.739906 -92.179507 
L 624.660463 -91.094724 
L 622.378347 -90.00994 
L 619.924078 -88.925157 
L 617.331511 -87.840374 
L 614.636921 -86.755591 
L 611.877996 -85.670808 
L 609.092767 -84.586024 
L 606.318512 -83.501241 
L 603.590706 -82.416458 
L 600.942045 -81.331675 
L 598.4016 -80.246892 
L 595.994143 -79.162108 
L 593.739666 -78.077325 
L 591.653127 -76.992542 
L 589.744397 -75.907759 
L 588.01843 -74.822975 
L 586.475603 -73.738192 
L 585.112219 -72.653409 
L 583.921105 -71.568626 
L 582.892298 -70.483843 
L 582.013736 -69.399059 
L 581.271953 -68.314276 
L 580.652719 -67.229493 
L 580.14161 -66.14471 
z
" style="stroke: #3d3d3d; stroke-width: 1.25"/>
    </defs>
    <g clip-path="url(#p46f4b32ec8)">
     <use xlink:href="#mdc659b30f4" x="0" y="360" style="fill: #c03d3e; stroke: #3d3d3d; stroke-width: 1.25"/>
    </g>
   </g>
   <g id="matplotlib.axis_1">
    <g id="xtick_1">
     <g id="line2d_1">
      <defs>
       <path id="me9ad526a05" d="M 0 0 
L 0 3.5 
" style="stroke: #000000; stroke-width: 0.8"/>
      </defs>
      <g>
       <use xlink:href="#me9ad526a05" x="159.75" y="320.4" style="stroke: #000000; stroke-width: 0.8"/>
      </g>
     </g>
     <g id="text_1">
      <!-- Spurious -->
      <g transform="translate(137.955469 334.998438) scale(0.1 -0.1)">
       <defs>
        <path id="DejaVuSans-53" d="M 3425 4513 
L 3425 3897 
Q 3066 4069 2747 4153 
Q 2428 4238 2131 4238 
Q 1616 4238 1336 4038 
Q 1056 3838 1056 3469 
Q 1056 3159 1242 3001 
Q 1428 2844 1947 2747 
L 2328 2669 
Q 3034 2534 3370 2195 
Q 3706 1856 3706 1288 
Q 3706 609 3251 259 
Q 2797 -91 1919 -91 
Q 1588 -91 1214 -16 
Q 841 59 441 206 
L 441 856 
Q 825 641 1194 531 
Q 1563 422 1919 422 
Q 2459 422 2753 634 
Q 3047 847 3047 1241 
Q 3047 1584 2836 1778 
Q 2625 1972 2144 2069 
L 1759 2144 
Q 1053 2284 737 2584 
Q 422 2884 422 3419 
Q 422 4038 858 4394 
Q 1294 4750 2059 4750 
Q 2388 4750 2728 4690 
Q 3069 4631 3425 4513 
z
" transform="scale(0.015625)"/>
        <path id="DejaVuSans-70" d="M 1159 525 
L 1159 -1331 
L 581 -1331 
L 581 3500 
L 1159 3500 
L 1159 2969 
Q 1341 3281 1617 3432 
Q 1894 3584 2278 3584 
Q 2916 3584 3314 3078 
Q 3713 2572 3713 1747 
Q 3713 922 3314 415 
Q 2916 -91 2278 -91 
Q 1894 -91 1617 61 
Q 1341 213 1159 525 
z
M 3116 1747 
Q 3116 2381 2855 2742 
Q 2594 3103 2138 3103 
Q 1681 3103 1420 2742 
Q 1159 2381 1159 1747 
Q 1159 1113 1420 752 
Q 1681 391 2138 391 
Q 2594 391 2855 752 
Q 3116 1113 3116 1747 
z
" transform="scale(0.015625)"/>
        <path id="DejaVuSans-75" d="M 544 1381 
L 544 3500 
L 1119 3500 
L 1119 1403 
Q 1119 906 1312 657 
Q 1506 409 1894 409 
Q 2359 409 2629 706 
Q 2900 1003 2900 1516 
L 2900 3500 
L 3475 3500 
L 3475 0 
L 2900 0 
L 2900 538 
Q 2691 219 2414 64 
Q 2138 -91 1772 -91 
Q 1169 -91 856 284 
Q 544 659 544 1381 
z
M 1991 3584 
L 1991 3584 
z
" transform="scale(0.015625)"/>
        <path id="DejaVuSans-72" d="M 2631 2963 
Q 2534 3019 2420 3045 
Q 2306 3072 2169 3072 
Q 1681 3072 1420 2755 
Q 1159 2438 1159 1844 
L 1159 0 
L 581 0 
L 581 3500 
L 1159 3500 
L 1159 2956 
Q 1341 3275 1631 3429 
Q 1922 3584 2338 3584 
Q 2397 3584 2469 3576 
Q 2541 3569 2628 3553 
L 2631 2963 
z
" transform="scale(0.015625)"/>
        <path id="DejaVuSans-69" d="M 603 3500 
L 1178 3500 
L 1178 0 
L 603 0 
L 603 3500 
z
M 603 4863 
L 1178 4863 
L 1178 4134 
L 603 4134 
L 603 4863 
z
" transform="scale(0.015625)"/>
        <path id="DejaVuSans-6f" d="M 1959 3097 
Q 1497 3097 1228 2736 
Q 959 2375 959 1747 
Q 959 1119 1226 758 
Q 1494 397 1959 397 
Q 2419 397 2687 759 
Q 2956 1122 2956 1747 
Q 2956 2369 2687 2733 
Q 2419 3097 1959 3097 
z
M 1959 3584 
Q 2709 3584 3137 3096 
Q 3566 2609 3566 1747 
Q 3566 888 3137 398 
Q 2709 -91 1959 -91 
Q 1206 -91 779 398 
Q 353 888 353 1747 
Q 353 2609 779 3096 
Q 1206 3584 1959 3584 
z
" transform="scale(0.015625)"/>
        <path id="DejaVuSans-73" d="M 2834 3397 
L 2834 2853 
Q 2591 2978 2328 3040 
Q 2066 3103 1784 3103 
Q 1356 3103 1142 2972 
Q 928 2841 928 2578 
Q 928 2378 1081 2264 
Q 1234 2150 1697 2047 
L 1894 2003 
Q 2506 1872 2764 1633 
Q 3022 1394 3022 966 
Q 3022 478 2636 193 
Q 2250 -91 1575 -91 
Q 1294 -91 989 -36 
Q 684 19 347 128 
L 347 722 
Q 666 556 975 473 
Q 1284 391 1588 391 
Q 1994 391 2212 530 
Q 2431 669 2431 922 
Q 2431 1156 2273 1281 
Q 2116 1406 1581 1522 
L 1381 1569 
Q 847 1681 609 1914 
Q 372 2147 372 2553 
Q 372 3047 722 3315 
Q 1072 3584 1716 3584 
Q 2034 3584 2315 3537 
Q 2597 3491 2834 3397 
z
" transform="scale(0.015625)"/>
       </defs>
       <use xlink:href="#DejaVuSans-53"/>
       <use xlink:href="#DejaVuSans-70" transform="translate(63.476562 0)"/>
       <use xlink:href="#DejaVuSans-75" transform="translate(126.953125 0)"/>
       <use xlink:href="#DejaVuSans-72" transform="translate(190.332031 0)"/>
       <use xlink:href="#DejaVuSans-69" transform="translate(231.445312 0)"/>
       <use xlink:href="#DejaVuSans-6f" transform="translate(259.228516 0)"/>
       <use xlink:href="#DejaVuSans-75" transform="translate(320.410156 0)"/>
       <use xlink:href="#DejaVuSans-73" transform="translate(383.789062 0)"/>
      </g>
     </g>
    </g>
    <g id="xtick_2">
     <g id="line2d_2">
      <g>
       <use xlink:href="#me9ad526a05" x="299.25" y="320.4" style="stroke: #000000; stroke-width: 0.8"/>
      </g>
     </g>
     <g id="text_2">
      <!-- Specific -->
      <g transform="translate(279.788281 334.998438) scale(0.1 -0.1)">
       <defs>
        <path id="DejaVuSans-65" d="M 3597 1894 
L 3597 1613 
L 953 1613 
Q 991 1019 1311 708 
Q 1631 397 2203 397 
Q 2534 397 2845 478 
Q 3156 559 3463 722 
L 3463 178 
Q 3153 47 2828 -22 
Q 2503 -91 2169 -91 
Q 1331 -91 842 396 
Q 353 884 353 1716 
Q 353 2575 817 3079 
Q 1281 3584 2069 3584 
Q 2775 3584 3186 3129 
Q 3597 2675 3597 1894 
z
M 3022 2063 
Q 3016 2534 2758 2815 
Q 2500 3097 2075 3097 
Q 1594 3097 1305 2825 
Q 1016 2553 972 2059 
L 3022 2063 
z
" transform="scale(0.015625)"/>
        <path id="DejaVuSans-63" d="M 3122 3366 
L 3122 2828 
Q 2878 2963 2633 3030 
Q 2388 3097 2138 3097 
Q 1578 3097 1268 2742 
Q 959 2388 959 1747 
Q 959 1106 1268 751 
Q 1578 397 2138 397 
Q 2388 397 2633 464 
Q 2878 531 3122 666 
L 3122 134 
Q 2881 22 2623 -34 
Q 2366 -91 2075 -91 
Q 1284 -91 818 406 
Q 353 903 353 1747 
Q 353 2603 823 3093 
Q 1294 3584 2113 3584 
Q 2378 3584 2631 3529 
Q 2884 3475 3122 3366 
z
" transform="scale(0.015625)"/>
        <path id="DejaVuSans-66" d="M 2375 4863 
L 2375 4384 
L 1825 4384 
Q 1516 4384 1395 4259 
Q 1275 4134 1275 3809 
L 1275 3500 
L 2222 3500 
L 2222 3053 
L 1275 3053 
L 1275 0 
L 697 0 
L 697 3053 
L 147 3053 
L 147 3500 
L 697 3500 
L 697 3744 
Q 697 4328 969 4595 
Q 1241 4863 1831 4863 
L 2375 4863 
z
" transform="scale(0.015625)"/>
       </defs>
       <use xlink:href="#DejaVuSans-53"/>
       <use xlink:href="#DejaVuSans-70" transform="translate(63.476562 0)"/>
       <use xlink:href="#DejaVuSans-65" transform="translate(126.953125 0)"/>
       <use xlink:href="#DejaVuSans-63" transform="translate(188.476562 0)"/>
       <use xlink:href="#DejaVuSans-69" transform="translate(243.457031 0)"/>
       <use xlink:href="#DejaVuSans-66" transform="translate(271.240234 0)"/>
       <use xlink:href="#DejaVuSans-69" transform="translate(306.445312 0)"/>
       <use xlink:href="#DejaVuSans-63" transform="translate(334.228516 0)"/>
      </g>
     </g>
    </g>
    <g id="xtick_3">
     <g id="line2d_3">
      <g>
       <use xlink:href="#me9ad526a05" x="438.75" y="320.4" style="stroke: #000000; stroke-width: 0.8"/>
      </g>
     </g>
     <g id="text_3">
      <!-- Non-specific -->
      <g transform="translate(408.085156 334.998438) scale(0.1 -0.1)">
       <defs>
        <path id="DejaVuSans-4e" d="M 628 4666 
L 1478 4666 
L 3547 763 
L 3547 4666 
L 4159 4666 
L 4159 0 
L 3309 0 
L 1241 3903 
L 1241 0 
L 628 0 
L 628 4666 
z
" transform="scale(0.015625)"/>
        <path id="DejaVuSans-6e" d="M 3513 2113 
L 3513 0 
L 2938 0 
L 2938 2094 
Q 2938 2591 2744 2837 
Q 2550 3084 2163 3084 
Q 1697 3084 1428 2787 
Q 1159 2491 1159 1978 
L 1159 0 
L 581 0 
L 581 3500 
L 1159 3500 
L 1159 2956 
Q 1366 3272 1645 3428 
Q 1925 3584 2291 3584 
Q 2894 3584 3203 3211 
Q 3513 2838 3513 2113 
z
" transform="scale(0.015625)"/>
        <path id="DejaVuSans-2d" d="M 313 2009 
L 1997 2009 
L 1997 1497 
L 313 1497 
L 313 2009 
z
" transform="scale(0.015625)"/>
       </defs>
       <use xlink:href="#DejaVuSans-4e"/>
       <use xlink:href="#DejaVuSans-6f" transform="translate(74.804688 0)"/>
       <use xlink:href="#DejaVuSans-6e" transform="translate(135.986328 0)"/>
       <use xlink:href="#DejaVuSans-2d" transform="translate(199.365234 0)"/>
       <use xlink:href="#DejaVuSans-73" transform="translate(235.449219 0)"/>
       <use xlink:href="#DejaVuSans-70" transform="translate(287.548828 0)"/>
       <use xlink:href="#DejaVuSans-65" transform="translate(351.025391 0)"/>
       <use xlink:href="#DejaVuSans-63" transform="translate(412.548828 0)"/>
       <use xlink:href="#DejaVuSans-69" transform="translate(467.529297 0)"/>
       <use xlink:href="#DejaVuSans-66" transform="translate(495.3125 0)"/>
       <use xlink:href="#DejaVuSans-69" transform="translate(530.517578 0)"/>
       <use xlink:href="#DejaVuSans-63" transform="translate(558.300781 0)"/>
      </g>
     </g>
    </g>
    <g id="xtick_4">
     <g id="line2d_4">
      <g>
       <use xlink:href="#me9ad526a05" x="578.25" y="320.4" style="stroke: #000000; stroke-width: 0.8"/>
      </g>
     </g>
     <g id="text_4">
      <!-- No -->
      <g transform="translate(571.45 334.998438) scale(0.1 -0.1)">
       <use xlink:href="#DejaVuSans-4e"/>
       <use xlink:href="#DejaVuSans-6f" transform="translate(74.804688 0)"/>
      </g>
     </g>
    </g>
    <g id="text_5">
     <!-- Connectivity category -->
     <g transform="translate(313.98125 348.676562) scale(0.1 -0.1)">
      <defs>
       <path id="DejaVuSans-43" d="M 4122 4306 
L 4122 3641 
Q 3803 3938 3442 4084 
Q 3081 4231 2675 4231 
Q 1875 4231 1450 3742 
Q 1025 3253 1025 2328 
Q 1025 1406 1450 917 
Q 1875 428 2675 428 
Q 3081 428 3442 575 
Q 3803 722 4122 1019 
L 4122 359 
Q 3791 134 3420 21 
Q 3050 -91 2638 -91 
Q 1578 -91 968 557 
Q 359 1206 359 2328 
Q 359 3453 968 4101 
Q 1578 4750 2638 4750 
Q 3056 4750 3426 4639 
Q 3797 4528 4122 4306 
z
" transform="scale(0.015625)"/>
       <path id="DejaVuSans-74" d="M 1172 4494 
L 1172 3500 
L 2356 3500 
L 2356 3053 
L 1172 3053 
L 1172 1153 
Q 1172 725 1289 603 
Q 1406 481 1766 481 
L 2356 481 
L 2356 0 
L 1766 0 
Q 1100 0 847 248 
Q 594 497 594 1153 
L 594 3053 
L 172 3053 
L 172 3500 
L 594 3500 
L 594 4494 
L 1172 4494 
z
" transform="scale(0.015625)"/>
       <path id="DejaVuSans-76" d="M 191 3500 
L 800 3500 
L 1894 563 
L 2988 3500 
L 3597 3500 
L 2284 0 
L 1503 0 
L 191 3500 
z
" transform="scale(0.015625)"/>
       <path id="DejaVuSans-79" d="M 2059 -325 
Q 1816 -950 1584 -1140 
Q 1353 -1331 966 -1331 
L 506 -1331 
L 506 -850 
L 844 -850 
Q 1081 -850 1212 -737 
Q 1344 -625 1503 -206 
L 1606 56 
L 191 3500 
L 800 3500 
L 1894 763 
L 2988 3500 
L 3597 3500 
L 2059 -325 
z
" transform="scale(0.015625)"/>
       <path id="DejaVuSans-20" transform="scale(0.015625)"/>
       <path id="DejaVuSans-61" d="M 2194 1759 
Q 1497 1759 1228 1600 
Q 959 1441 959 1056 
Q 959 750 1161 570 
Q 1363 391 1709 391 
Q 2188 391 2477 730 
Q 2766 1069 2766 1631 
L 2766 1759 
L 2194 1759 
z
M 3341 1997 
L 3341 0 
L 2766 0 
L 2766 531 
Q 2569 213 2275 61 
Q 1981 -91 1556 -91 
Q 1019 -91 701 211 
Q 384 513 384 1019 
Q 384 1609 779 1909 
Q 1175 2209 1959 2209 
L 2766 2209 
L 2766 2266 
Q 2766 2663 2505 2880 
Q 2244 3097 1772 3097 
Q 1472 3097 1187 3025 
Q 903 2953 641 2809 
L 641 3341 
Q 956 3463 1253 3523 
Q 1550 3584 1831 3584 
Q 2591 3584 2966 3190 
Q 3341 2797 3341 1997 
z
" transform="scale(0.015625)"/>
       <path id="DejaVuSans-67" d="M 2906 1791 
Q 2906 2416 2648 2759 
Q 2391 3103 1925 3103 
Q 1463 3103 1205 2759 
Q 947 2416 947 1791 
Q 947 1169 1205 825 
Q 1463 481 1925 481 
Q 2391 481 2648 825 
Q 2906 1169 2906 1791 
z
M 3481 434 
Q 3481 -459 3084 -895 
Q 2688 -1331 1869 -1331 
Q 1566 -1331 1297 -1286 
Q 1028 -1241 775 -1147 
L 775 -588 
Q 1028 -725 1275 -790 
Q 1522 -856 1778 -856 
Q 2344 -856 2625 -561 
Q 2906 -266 2906 331 
L 2906 616 
Q 2728 306 2450 153 
Q 2172 0 1784 0 
Q 1141 0 747 490 
Q 353 981 353 1791 
Q 353 2603 747 3093 
Q 1141 3584 1784 3584 
Q 2172 3584 2450 3431 
Q 2728 3278 2906 2969 
L 2906 3500 
L 3481 3500 
L 3481 434 
z
" transform="scale(0.015625)"/>
      </defs>
      <use xlink:href="#DejaVuSans-43"/>
      <use xlink:href="#DejaVuSans-6f" transform="translate(69.824219 0)"/>
      <use xlink:href="#DejaVuSans-6e" transform="translate(131.005859 0)"/>
      <use xlink:href="#DejaVuSans-6e" transform="translate(194.384766 0)"/>
      <use xlink:href="#DejaVuSans-65" transform="translate(257.763672 0)"/>
      <use xlink:href="#DejaVuSans-63" transform="translate(319.287109 0)"/>
      <use xlink:href="#DejaVuSans-74" transform="translate(374.267578 0)"/>
      <use xlink:href="#DejaVuSans-69" transform="translate(413.476562 0)"/>
      <use xlink:href="#DejaVuSans-76" transform="translate(441.259766 0)"/>
      <use xlink:href="#DejaVuSans-69" transform="translate(500.439453 0)"/>
      <use xlink:href="#DejaVuSans-74" transform="translate(528.222656 0)"/>
      <use xlink:href="#DejaVuSans-79" transform="translate(567.431641 0)"/>
      <use xlink:href="#DejaVuSans-20" transform="translate(626.611328 0)"/>
      <use xlink:href="#DejaVuSans-63" transform="translate(658.398438 0)"/>
      <use xlink:href="#DejaVuSans-61" transform="translate(713.378906 0)"/>
      <use xlink:href="#DejaVuSans-74" transform="translate(774.658203 0)"/>
      <use xlink:href="#DejaVuSans-65" transform="translate(813.867188 0)"/>
      <use xlink:href="#DejaVuSans-67" transform="translate(875.390625 0)"/>
      <use xlink:href="#DejaVuSans-6f" transform="translate(938.867188 0)"/>
      <use xlink:href="#DejaVuSans-72" transform="translate(1000.048828 0)"/>
      <use xlink:href="#DejaVuSans-79" transform="translate(1041.162109 0)"/>
     </g>
    </g>
   </g>
   <g id="matplotlib.axis_2">
    <g id="ytick_1">
     <g id="line2d_5">
      <defs>
       <path id="mffbf042955" d="M 0 0 
L -3.5 0 
" style="stroke: #000000; stroke-width: 0.8"/>
      </defs>
      <g>
       <use xlink:href="#mffbf042955" x="90" y="281.978918" style="stroke: #000000; stroke-width: 0.8"/>
      </g>
     </g>
     <g id="text_6">
      <!-- 0.00 -->
      <g transform="translate(60.734375 285.778137) scale(0.1 -0.1)">
       <defs>
        <path id="DejaVuSans-30" d="M 2034 4250 
Q 1547 4250 1301 3770 
Q 1056 3291 1056 2328 
Q 1056 1369 1301 889 
Q 1547 409 2034 409 
Q 2525 409 2770 889 
Q 3016 1369 3016 2328 
Q 3016 3291 2770 3770 
Q 2525 4250 2034 4250 
z
M 2034 4750 
Q 2819 4750 3233 4129 
Q 3647 3509 3647 2328 
Q 3647 1150 3233 529 
Q 2819 -91 2034 -91 
Q 1250 -91 836 529 
Q 422 1150 422 2328 
Q 422 3509 836 4129 
Q 1250 4750 2034 4750 
z
" transform="scale(0.015625)"/>
        <path id="DejaVuSans-2e" d="M 684 794 
L 1344 794 
L 1344 0 
L 684 0 
L 684 794 
z
" transform="scale(0.015625)"/>
       </defs>
       <use xlink:href="#DejaVuSans-30"/>
       <use xlink:href="#DejaVuSans-2e" transform="translate(63.623047 0)"/>
       <use xlink:href="#DejaVuSans-30" transform="translate(95.410156 0)"/>
       <use xlink:href="#DejaVuSans-30" transform="translate(159.033203 0)"/>
      </g>
     </g>
    </g>
    <g id="ytick_2">
     <g id="line2d_6">
      <g>
       <use xlink:href="#mffbf042955" x="90" y="226.578821" style="stroke: #000000; stroke-width: 0.8"/>
      </g>
     </g>
     <g id="text_7">
      <!-- 0.05 -->
      <g transform="translate(60.734375 230.37804) scale(0.1 -0.1)">
       <defs>
        <path id="DejaVuSans-35" d="M 691 4666 
L 3169 4666 
L 3169 4134 
L 1269 4134 
L 1269 2991 
Q 1406 3038 1543 3061 
Q 1681 3084 1819 3084 
Q 2600 3084 3056 2656 
Q 3513 2228 3513 1497 
Q 3513 744 3044 326 
Q 2575 -91 1722 -91 
Q 1428 -91 1123 -41 
Q 819 9 494 109 
L 494 744 
Q 775 591 1075 516 
Q 1375 441 1709 441 
Q 2250 441 2565 725 
Q 2881 1009 2881 1497 
Q 2881 1984 2565 2268 
Q 2250 2553 1709 2553 
Q 1456 2553 1204 2497 
Q 953 2441 691 2322 
L 691 4666 
z
" transform="scale(0.015625)"/>
       </defs>
       <use xlink:href="#DejaVuSans-30"/>
       <use xlink:href="#DejaVuSans-2e" transform="translate(63.623047 0)"/>
       <use xlink:href="#DejaVuSans-30" transform="translate(95.410156 0)"/>
       <use xlink:href="#DejaVuSans-35" transform="translate(159.033203 0)"/>
      </g>
     </g>
    </g>
    <g id="ytick_3">
     <g id="line2d_7">
      <g>
       <use xlink:href="#mffbf042955" x="90" y="171.178724" style="stroke: #000000; stroke-width: 0.8"/>
      </g>
     </g>
     <g id="text_8">
      <!-- 0.10 -->
      <g transform="translate(60.734375 174.977942) scale(0.1 -0.1)">
       <defs>
        <path id="DejaVuSans-31" d="M 794 531 
L 1825 531 
L 1825 4091 
L 703 3866 
L 703 4441 
L 1819 4666 
L 2450 4666 
L 2450 531 
L 3481 531 
L 3481 0 
L 794 0 
L 794 531 
z
" transform="scale(0.015625)"/>
       </defs>
       <use xlink:href="#DejaVuSans-30"/>
       <use xlink:href="#DejaVuSans-2e" transform="translate(63.623047 0)"/>
       <use xlink:href="#DejaVuSans-31" transform="translate(95.410156 0)"/>
       <use xlink:href="#DejaVuSans-30" transform="translate(159.033203 0)"/>
      </g>
     </g>
    </g>
    <g id="ytick_4">
     <g id="line2d_8">
      <g>
       <use xlink:href="#mffbf042955" x="90" y="115.778626" style="stroke: #000000; stroke-width: 0.8"/>
      </g>
     </g>
     <g id="text_9">
      <!-- 0.15 -->
      <g transform="translate(60.734375 119.577845) scale(0.1 -0.1)">
       <use xlink:href="#DejaVuSans-30"/>
       <use xlink:href="#DejaVuSans-2e" transform="translate(63.623047 0)"/>
       <use xlink:href="#DejaVuSans-31" transform="translate(95.410156 0)"/>
       <use xlink:href="#DejaVuSans-35" transform="translate(159.033203 0)"/>
      </g>
     </g>
    </g>
    <g id="ytick_5">
     <g id="line2d_9">
      <g>
       <use xlink:href="#mffbf042955" x="90" y="60.378529" style="stroke: #000000; stroke-width: 0.8"/>
      </g>
     </g>
     <g id="text_10">
      <!-- 0.20 -->
      <g transform="translate(60.734375 64.177748) scale(0.1 -0.1)">
       <defs>
        <path id="DejaVuSans-32" d="M 1228 531 
L 3431 531 
L 3431 0 
L 469 0 
L 469 531 
Q 828 903 1448 1529 
Q 2069 2156 2228 2338 
Q 2531 2678 2651 2914 
Q 2772 3150 2772 3378 
Q 2772 3750 2511 3984 
Q 2250 4219 1831 4219 
Q 1534 4219 1204 4116 
Q 875 4013 500 3803 
L 500 4441 
Q 881 4594 1212 4672 
Q 1544 4750 1819 4750 
Q 2544 4750 2975 4387 
Q 3406 4025 3406 3419 
Q 3406 3131 3298 2873 
Q 3191 2616 2906 2266 
Q 2828 2175 2409 1742 
Q 1991 1309 1228 531 
z
" transform="scale(0.015625)"/>
       </defs>
       <use xlink:href="#DejaVuSans-30"/>
       <use xlink:href="#DejaVuSans-2e" transform="translate(63.623047 0)"/>
       <use xlink:href="#DejaVuSans-32" transform="translate(95.410156 0)"/>
       <use xlink:href="#DejaVuSans-30" transform="translate(159.033203 0)"/>
      </g>
     </g>
    </g>
    <g id="text_11">
     <!-- cont_variable -->
     <g transform="translate(54.376562 215.409375) rotate(-90) scale(0.1 -0.1)">
      <defs>
       <path id="DejaVuSans-5f" d="M 3263 -1063 
L 3263 -1509 
L -63 -1509 
L -63 -1063 
L 3263 -1063 
z
" transform="scale(0.015625)"/>
       <path id="DejaVuSans-62" d="M 3116 1747 
Q 3116 2381 2855 2742 
Q 2594 3103 2138 3103 
Q 1681 3103 1420 2742 
Q 1159 2381 1159 1747 
Q 1159 1113 1420 752 
Q 1681 391 2138 391 
Q 2594 391 2855 752 
Q 3116 1113 3116 1747 
z
M 1159 2969 
Q 1341 3281 1617 3432 
Q 1894 3584 2278 3584 
Q 2916 3584 3314 3078 
Q 3713 2572 3713 1747 
Q 3713 922 3314 415 
Q 2916 -91 2278 -91 
Q 1894 -91 1617 61 
Q 1341 213 1159 525 
L 1159 0 
L 581 0 
L 581 4863 
L 1159 4863 
L 1159 2969 
z
" transform="scale(0.015625)"/>
       <path id="DejaVuSans-6c" d="M 603 4863 
L 1178 4863 
L 1178 0 
L 603 0 
L 603 4863 
z
" transform="scale(0.015625)"/>
      </defs>
      <use xlink:href="#DejaVuSans-63"/>
      <use xlink:href="#DejaVuSans-6f" transform="translate(54.980469 0)"/>
      <use xlink:href="#DejaVuSans-6e" transform="translate(116.162109 0)"/>
      <use xlink:href="#DejaVuSans-74" transform="translate(179.541016 0)"/>
      <use xlink:href="#DejaVuSans-5f" transform="translate(218.75 0)"/>
      <use xlink:href="#DejaVuSans-76" transform="translate(268.75 0)"/>
      <use xlink:href="#DejaVuSans-61" transform="translate(327.929688 0)"/>
      <use xlink:href="#DejaVuSans-72" transform="translate(389.208984 0)"/>
      <use xlink:href="#DejaVuSans-69" transform="translate(430.322266 0)"/>
      <use xlink:href="#DejaVuSans-61" transform="translate(458.105469 0)"/>
      <use xlink:href="#DejaVuSans-62" transform="translate(519.384766 0)"/>
      <use xlink:href="#DejaVuSans-6c" transform="translate(582.861328 0)"/>
      <use xlink:href="#DejaVuSans-65" transform="translate(610.644531 0)"/>
     </g>
    </g>
   </g>
   <g id="patch_3">
    <path d="M 90 320.4 
L 90 43.2 
" style="fill: none; stroke: #000000; stroke-width: 0.8; stroke-linejoin: miter; stroke-linecap: square"/>
   </g>
   <g id="patch_4">
    <path d="M 648 320.4 
L 648 43.2 
" style="fill: none; stroke: #000000; stroke-width: 0.8; stroke-linejoin: miter; stroke-linecap: square"/>
   </g>
   <g id="patch_5">
    <path d="M 90 320.4 
L 648 320.4 
" style="fill: none; stroke: #000000; stroke-width: 0.8; stroke-linejoin: miter; stroke-linecap: square"/>
   </g>
   <g id="patch_6">
    <path d="M 90 43.2 
L 648 43.2 
" style="fill: none; stroke: #000000; stroke-width: 0.8; stroke-linejoin: miter; stroke-linecap: square"/>
   </g>
   <g id="PathCollection_1">
    <defs>
     <path id="mf591e95653" d="M 0 2.5 
C 0.663008 2.5 1.29895 2.236584 1.767767 1.767767 
C 2.236584 1.29895 2.5 0.663008 2.5 0 
C 2.5 -0.663008 2.236584 -1.29895 1.767767 -1.767767 
C 1.29895 -2.236584 0.663008 -2.5 0 -2.5 
C -0.663008 -2.5 -1.29895 -2.236584 -1.767767 -1.767767 
C -2.236584 -1.29895 -2.5 -0.663008 -2.5 0 
C -2.5 0.663008 -2.236584 1.29895 -1.767767 1.767767 
C -1.29895 2.236584 -0.663008 2.5 0 2.5 
z
"/>
    </defs>
    <g clip-path="url(#p46f4b32ec8)">
     <use xlink:href="#mf591e95653" x="146.032436" y="243.763944" style="fill-opacity: 0.3"/>
     <use xlink:href="#mf591e95653" x="167.407416" y="209.515679" style="fill-opacity: 0.3"/>
     <use xlink:href="#mf591e95653" x="155.932796" y="231.08194" style="fill-opacity: 0.3"/>
     <use xlink:href="#mf591e95653" x="166.50849" y="213.329521" style="fill-opacity: 0.3"/>
     <use xlink:href="#mf591e95653" x="168.770452" y="208.883503" style="fill-opacity: 0.3"/>
     <use xlink:href="#mf591e95653" x="154.104614" y="204.11851" style="fill-opacity: 0.3"/>
     <use xlink:href="#mf591e95653" x="157.211361" y="224.257714" style="fill-opacity: 0.3"/>
     <use xlink:href="#mf591e95653" x="158.930226" y="243.396218" style="fill-opacity: 0.3"/>
     <use xlink:href="#mf591e95653" x="155.618683" y="234.156105" style="fill-opacity: 0.3"/>
     <use xlink:href="#mf591e95653" x="158.638359" y="154.199677" style="fill-opacity: 0.3"/>
     <use xlink:href="#mf591e95653" x="156.388655" y="273.06028" style="fill-opacity: 0.3"/>
     <use xlink:href="#mf591e95653" x="170.218803" y="271.302052" style="fill-opacity: 0.3"/>
     <use xlink:href="#mf591e95653" x="169.041107" y="268.500765" style="fill-opacity: 0.3"/>
     <use xlink:href="#mf591e95653" x="158.44391" y="268.069041" style="fill-opacity: 0.3"/>
     <use xlink:href="#mf591e95653" x="172.782915" y="269.552384" style="fill-opacity: 0.3"/>
     <use xlink:href="#mf591e95653" x="146.496112" y="221.068668" style="fill-opacity: 0.3"/>
     <use xlink:href="#mf591e95653" x="165.946209" y="111.011738" style="fill-opacity: 0.3"/>
     <use xlink:href="#mf591e95653" x="151.187873" y="170.014726" style="fill-opacity: 0.3"/>
     <use xlink:href="#mf591e95653" x="168.096069" y="164.572081" style="fill-opacity: 0.3"/>
     <use xlink:href="#mf591e95653" x="161.832294" y="90.53972" style="fill-opacity: 0.3"/>
     <use xlink:href="#mf591e95653" x="171.763453" y="183.13528" style="fill-opacity: 0.3"/>
     <use xlink:href="#mf591e95653" x="146.435913" y="198.792214" style="fill-opacity: 0.3"/>
     <use xlink:href="#mf591e95653" x="152.07138" y="231.521349" style="fill-opacity: 0.3"/>
     <use xlink:href="#mf591e95653" x="148.756289" y="225.628569" style="fill-opacity: 0.3"/>
     <use xlink:href="#mf591e95653" x="167.773863" y="267.71013" style="fill-opacity: 0.3"/>
     <use xlink:href="#mf591e95653" x="171.558079" y="263.459609" style="fill-opacity: 0.3"/>
     <use xlink:href="#mf591e95653" x="154.597494" y="259.719632" style="fill-opacity: 0.3"/>
     <use xlink:href="#mf591e95653" x="148.526211" y="239.045489" style="fill-opacity: 0.3"/>
     <use xlink:href="#mf591e95653" x="154.6199" y="266.914967" style="fill-opacity: 0.3"/>
     <use xlink:href="#mf591e95653" x="157.432884" y="267.002521" style="fill-opacity: 0.3"/>
     <use xlink:href="#mf591e95653" x="159.070333" y="266.607788" style="fill-opacity: 0.3"/>
     <use xlink:href="#mf591e95653" x="158.072961" y="260.677537" style="fill-opacity: 0.3"/>
     <use xlink:href="#mf591e95653" x="146.269865" y="256.027204" style="fill-opacity: 0.3"/>
     <use xlink:href="#mf591e95653" x="156.904542" y="267.251727" style="fill-opacity: 0.3"/>
     <use xlink:href="#mf591e95653" x="151.160246" y="223.388361" style="fill-opacity: 0.3"/>
     <use xlink:href="#mf591e95653" x="157.343554" y="180.548906" style="fill-opacity: 0.3"/>
     <use xlink:href="#mf591e95653" x="173.567905" y="255.215036" style="fill-opacity: 0.3"/>
     <use xlink:href="#mf591e95653" x="166.707189" y="255.289363" style="fill-opacity: 0.3"/>
     <use xlink:href="#mf591e95653" x="165.420605" y="229.833509" style="fill-opacity: 0.3"/>
     <use xlink:href="#mf591e95653" x="170.659695" y="202.995856" style="fill-opacity: 0.3"/>
     <use xlink:href="#mf591e95653" x="162.502847" y="230.818423" style="fill-opacity: 0.3"/>
     <use xlink:href="#mf591e95653" x="153.256716" y="242.062474" style="fill-opacity: 0.3"/>
     <use xlink:href="#mf591e95653" x="158.49043" y="228.611546" style="fill-opacity: 0.3"/>
     <use xlink:href="#mf591e95653" x="150.104523" y="254.83466" style="fill-opacity: 0.3"/>
     <use xlink:href="#mf591e95653" x="151.805495" y="228.236404" style="fill-opacity: 0.3"/>
     <use xlink:href="#mf591e95653" x="157.524929" y="239.432369" style="fill-opacity: 0.3"/>
     <use xlink:href="#mf591e95653" x="150.074747" y="246.605882" style="fill-opacity: 0.3"/>
     <use xlink:href="#mf591e95653" x="148.359387" y="258.386349" style="fill-opacity: 0.3"/>
     <use xlink:href="#mf591e95653" x="164.361302" y="237.418852" style="fill-opacity: 0.3"/>
     <use xlink:href="#mf591e95653" x="163.342877" y="233.369046" style="fill-opacity: 0.3"/>
     <use xlink:href="#mf591e95653" x="146.863575" y="251.975912" style="fill-opacity: 0.3"/>
     <use xlink:href="#mf591e95653" x="147.763357" y="222.214556" style="fill-opacity: 0.3"/>
     <use xlink:href="#mf591e95653" x="163.911554" y="250.717244" style="fill-opacity: 0.3"/>
     <use xlink:href="#mf591e95653" x="168.614769" y="227.546136" style="fill-opacity: 0.3"/>
    </g>
   </g>
   <g id="PathCollection_2">
    <g clip-path="url(#p46f4b32ec8)">
     <use xlink:href="#mf591e95653" x="290.140874" y="202.767192" style="fill-opacity: 0.3"/>
     <use xlink:href="#mf591e95653" x="309.892394" y="250.784951" style="fill-opacity: 0.3"/>
     <use xlink:href="#mf591e95653" x="294.071488" y="248.621039" style="fill-opacity: 0.3"/>
     <use xlink:href="#mf591e95653" x="297.943879" y="246.504596" style="fill-opacity: 0.3"/>
     <use xlink:href="#mf591e95653" x="298.219977" y="243.090426" style="fill-opacity: 0.3"/>
     <use xlink:href="#mf591e95653" x="311.536794" y="247.426719" style="fill-opacity: 0.3"/>
     <use xlink:href="#mf591e95653" x="298.564249" y="249.691409" style="fill-opacity: 0.3"/>
     <use xlink:href="#mf591e95653" x="302.939076" y="250.707496" style="fill-opacity: 0.3"/>
     <use xlink:href="#mf591e95653" x="286.645369" y="251.323075" style="fill-opacity: 0.3"/>
     <use xlink:href="#mf591e95653" x="301.142815" y="257.000448" style="fill-opacity: 0.3"/>
     <use xlink:href="#mf591e95653" x="286.600398" y="220.216419" style="fill-opacity: 0.3"/>
     <use xlink:href="#mf591e95653" x="293.197654" y="234.37092" style="fill-opacity: 0.3"/>
     <use xlink:href="#mf591e95653" x="290.010948" y="237.748217" style="fill-opacity: 0.3"/>
     <use xlink:href="#mf591e95653" x="310.99947" y="233.821637" style="fill-opacity: 0.3"/>
     <use xlink:href="#mf591e95653" x="292.725244" y="232.21444" style="fill-opacity: 0.3"/>
     <use xlink:href="#mf591e95653" x="293.784611" y="235.993305" style="fill-opacity: 0.3"/>
     <use xlink:href="#mf591e95653" x="307.166678" y="236.407441" style="fill-opacity: 0.3"/>
     <use xlink:href="#mf591e95653" x="286.458234" y="239.323037" style="fill-opacity: 0.3"/>
     <use xlink:href="#mf591e95653" x="287.685987" y="224.332294" style="fill-opacity: 0.3"/>
     <use xlink:href="#mf591e95653" x="298.089656" y="204.40378" style="fill-opacity: 0.3"/>
     <use xlink:href="#mf591e95653" x="297.578223" y="198.325574" style="fill-opacity: 0.3"/>
     <use xlink:href="#mf591e95653" x="311.002683" y="224.652863" style="fill-opacity: 0.3"/>
     <use xlink:href="#mf591e95653" x="296.309049" y="205.487125" style="fill-opacity: 0.3"/>
     <use xlink:href="#mf591e95653" x="301.692779" y="212.689458" style="fill-opacity: 0.3"/>
     <use xlink:href="#mf591e95653" x="288.243623" y="236.711824" style="fill-opacity: 0.3"/>
     <use xlink:href="#mf591e95653" x="306.997653" y="226.88664" style="fill-opacity: 0.3"/>
     <use xlink:href="#mf591e95653" x="288.453365" y="232.704664" style="fill-opacity: 0.3"/>
     <use xlink:href="#mf591e95653" x="292.097386" y="236.04133" style="fill-opacity: 0.3"/>
     <use xlink:href="#mf591e95653" x="310.1791" y="243.546636" style="fill-opacity: 0.3"/>
     <use xlink:href="#mf591e95653" x="297.549882" y="249.000334" style="fill-opacity: 0.3"/>
     <use xlink:href="#mf591e95653" x="300.615672" y="246.776697" style="fill-opacity: 0.3"/>
     <use xlink:href="#mf591e95653" x="306.50931" y="237.650096" style="fill-opacity: 0.3"/>
     <use xlink:href="#mf591e95653" x="310.344321" y="248.724257" style="fill-opacity: 0.3"/>
     <use xlink:href="#mf591e95653" x="313.064999" y="231.957387" style="fill-opacity: 0.3"/>
     <use xlink:href="#mf591e95653" x="309.632893" y="241.307041" style="fill-opacity: 0.3"/>
     <use xlink:href="#mf591e95653" x="303.94944" y="253.201031" style="fill-opacity: 0.3"/>
     <use xlink:href="#mf591e95653" x="290.837311" y="250.127452" style="fill-opacity: 0.3"/>
     <use xlink:href="#mf591e95653" x="303.568981" y="262.770362" style="fill-opacity: 0.3"/>
     <use xlink:href="#mf591e95653" x="299.264489" y="262.843739" style="fill-opacity: 0.3"/>
     <use xlink:href="#mf591e95653" x="298.877631" y="200.386615" style="fill-opacity: 0.3"/>
     <use xlink:href="#mf591e95653" x="311.729327" y="198.856765" style="fill-opacity: 0.3"/>
     <use xlink:href="#mf591e95653" x="304.791602" y="193.090069" style="fill-opacity: 0.3"/>
     <use xlink:href="#mf591e95653" x="305.922916" y="270.407893" style="fill-opacity: 0.3"/>
     <use xlink:href="#mf591e95653" x="309.740722" y="269.336977" style="fill-opacity: 0.3"/>
     <use xlink:href="#mf591e95653" x="292.157235" y="193.108312" style="fill-opacity: 0.3"/>
     <use xlink:href="#mf591e95653" x="302.013651" y="221.039691" style="fill-opacity: 0.3"/>
     <use xlink:href="#mf591e95653" x="307.49578" y="227.197276" style="fill-opacity: 0.3"/>
     <use xlink:href="#mf591e95653" x="301.990104" y="238.408332" style="fill-opacity: 0.3"/>
     <use xlink:href="#mf591e95653" x="305.69535" y="231.123078" style="fill-opacity: 0.3"/>
     <use xlink:href="#mf591e95653" x="297.11959" y="217.551627" style="fill-opacity: 0.3"/>
     <use xlink:href="#mf591e95653" x="287.915563" y="233.179574" style="fill-opacity: 0.3"/>
     <use xlink:href="#mf591e95653" x="309.928637" y="229.664491" style="fill-opacity: 0.3"/>
     <use xlink:href="#mf591e95653" x="300.170358" y="234.294663" style="fill-opacity: 0.3"/>
     <use xlink:href="#mf591e95653" x="310.96474" y="249.006251" style="fill-opacity: 0.3"/>
     <use xlink:href="#mf591e95653" x="310.066946" y="259.859229" style="fill-opacity: 0.3"/>
     <use xlink:href="#mf591e95653" x="293.170384" y="224.087268" style="fill-opacity: 0.3"/>
     <use xlink:href="#mf591e95653" x="302.209959" y="219.31961" style="fill-opacity: 0.3"/>
     <use xlink:href="#mf591e95653" x="300.195881" y="236.213476" style="fill-opacity: 0.3"/>
     <use xlink:href="#mf591e95653" x="285.676844" y="224.543312" style="fill-opacity: 0.3"/>
     <use xlink:href="#mf591e95653" x="307.174688" y="236.359371" style="fill-opacity: 0.3"/>
     <use xlink:href="#mf591e95653" x="290.739566" y="267.280229" style="fill-opacity: 0.3"/>
     <use xlink:href="#mf591e95653" x="306.715311" y="263.993281" style="fill-opacity: 0.3"/>
     <use xlink:href="#mf591e95653" x="307.948763" y="260.196696" style="fill-opacity: 0.3"/>
     <use xlink:href="#mf591e95653" x="287.790831" y="257.938207" style="fill-opacity: 0.3"/>
     <use xlink:href="#mf591e95653" x="289.023499" y="220.936743" style="fill-opacity: 0.3"/>
     <use xlink:href="#mf591e95653" x="293.262647" y="260.066959" style="fill-opacity: 0.3"/>
     <use xlink:href="#mf591e95653" x="308.516293" y="254.153169" style="fill-opacity: 0.3"/>
     <use xlink:href="#mf591e95653" x="306.619902" y="218.407312" style="fill-opacity: 0.3"/>
     <use xlink:href="#mf591e95653" x="303.992838" y="248.482664" style="fill-opacity: 0.3"/>
     <use xlink:href="#mf591e95653" x="286.335595" y="247.676783" style="fill-opacity: 0.3"/>
     <use xlink:href="#mf591e95653" x="295.854153" y="251.502711" style="fill-opacity: 0.3"/>
     <use xlink:href="#mf591e95653" x="312.594628" y="252.310266" style="fill-opacity: 0.3"/>
     <use xlink:href="#mf591e95653" x="293.391403" y="251.944647" style="fill-opacity: 0.3"/>
     <use xlink:href="#mf591e95653" x="295.851678" y="247.7731" style="fill-opacity: 0.3"/>
     <use xlink:href="#mf591e95653" x="288.22887" y="263.59668" style="fill-opacity: 0.3"/>
     <use xlink:href="#mf591e95653" x="287.663404" y="250.976879" style="fill-opacity: 0.3"/>
     <use xlink:href="#mf591e95653" x="303.006974" y="256.013267" style="fill-opacity: 0.3"/>
     <use xlink:href="#mf591e95653" x="295.476402" y="231.298901" style="fill-opacity: 0.3"/>
     <use xlink:href="#mf591e95653" x="294.293726" y="250.154097" style="fill-opacity: 0.3"/>
     <use xlink:href="#mf591e95653" x="296.854159" y="242.834096" style="fill-opacity: 0.3"/>
     <use xlink:href="#mf591e95653" x="301.984597" y="251.840307" style="fill-opacity: 0.3"/>
     <use xlink:href="#mf591e95653" x="307.787378" y="169.129987" style="fill-opacity: 0.3"/>
     <use xlink:href="#mf591e95653" x="299.541119" y="157.112835" style="fill-opacity: 0.3"/>
     <use xlink:href="#mf591e95653" x="288.011127" y="229.785457" style="fill-opacity: 0.3"/>
     <use xlink:href="#mf591e95653" x="299.903133" y="254.441835" style="fill-opacity: 0.3"/>
     <use xlink:href="#mf591e95653" x="311.774635" y="255.170106" style="fill-opacity: 0.3"/>
     <use xlink:href="#mf591e95653" x="306.376933" y="258.066426" style="fill-opacity: 0.3"/>
    </g>
   </g>
   <g id="PathCollection_3">
    <g clip-path="url(#p46f4b32ec8)">
     <use xlink:href="#mf591e95653" x="439.742053" y="222.530802" style="fill-opacity: 0.3"/>
     <use xlink:href="#mf591e95653" x="436.760788" y="230.965097" style="fill-opacity: 0.3"/>
     <use xlink:href="#mf591e95653" x="426.65938" y="262.308102" style="fill-opacity: 0.3"/>
     <use xlink:href="#mf591e95653" x="441.934825" y="248.823618" style="fill-opacity: 0.3"/>
     <use xlink:href="#mf591e95653" x="445.851839" y="183.969649" style="fill-opacity: 0.3"/>
     <use xlink:href="#mf591e95653" x="448.651415" y="226.795608" style="fill-opacity: 0.3"/>
     <use xlink:href="#mf591e95653" x="426.811122" y="250.12725" style="fill-opacity: 0.3"/>
     <use xlink:href="#mf591e95653" x="436.72788" y="252.059919" style="fill-opacity: 0.3"/>
     <use xlink:href="#mf591e95653" x="440.728131" y="208.504303" style="fill-opacity: 0.3"/>
     <use xlink:href="#mf591e95653" x="447.541477" y="236.653773" style="fill-opacity: 0.3"/>
     <use xlink:href="#mf591e95653" x="447.34577" y="251.974217" style="fill-opacity: 0.3"/>
     <use xlink:href="#mf591e95653" x="447.767301" y="238.692962" style="fill-opacity: 0.3"/>
     <use xlink:href="#mf591e95653" x="437.230673" y="225.06656" style="fill-opacity: 0.3"/>
     <use xlink:href="#mf591e95653" x="429.236788" y="219.352867" style="fill-opacity: 0.3"/>
     <use xlink:href="#mf591e95653" x="442.487126" y="237.340951" style="fill-opacity: 0.3"/>
     <use xlink:href="#mf591e95653" x="440.326374" y="243.228196" style="fill-opacity: 0.3"/>
     <use xlink:href="#mf591e95653" x="452.472159" y="244.448648" style="fill-opacity: 0.3"/>
     <use xlink:href="#mf591e95653" x="435.755156" y="237.201584" style="fill-opacity: 0.3"/>
     <use xlink:href="#mf591e95653" x="439.293678" y="229.364521" style="fill-opacity: 0.3"/>
     <use xlink:href="#mf591e95653" x="426.143523" y="251.741836" style="fill-opacity: 0.3"/>
     <use xlink:href="#mf591e95653" x="428.79152" y="272.526532" style="fill-opacity: 0.3"/>
     <use xlink:href="#mf591e95653" x="428.301361" y="137.622641" style="fill-opacity: 0.3"/>
     <use xlink:href="#mf591e95653" x="438.840171" y="216.660693" style="fill-opacity: 0.3"/>
     <use xlink:href="#mf591e95653" x="438.477795" y="216.771849" style="fill-opacity: 0.3"/>
     <use xlink:href="#mf591e95653" x="428.96899" y="219.062909" style="fill-opacity: 0.3"/>
     <use xlink:href="#mf591e95653" x="439.21661" y="226.635317" style="fill-opacity: 0.3"/>
     <use xlink:href="#mf591e95653" x="441.114572" y="218.117687" style="fill-opacity: 0.3"/>
     <use xlink:href="#mf591e95653" x="426.232891" y="233.170509" style="fill-opacity: 0.3"/>
     <use xlink:href="#mf591e95653" x="440.628966" y="239.169879" style="fill-opacity: 0.3"/>
     <use xlink:href="#mf591e95653" x="443.134919" y="212.763605" style="fill-opacity: 0.3"/>
     <use xlink:href="#mf591e95653" x="443.823044" y="226.284655" style="fill-opacity: 0.3"/>
     <use xlink:href="#mf591e95653" x="451.951364" y="268.165015" style="fill-opacity: 0.3"/>
     <use xlink:href="#mf591e95653" x="425.458232" y="229.118198" style="fill-opacity: 0.3"/>
     <use xlink:href="#mf591e95653" x="451.080365" y="244.130286" style="fill-opacity: 0.3"/>
     <use xlink:href="#mf591e95653" x="428.826739" y="250.03264" style="fill-opacity: 0.3"/>
     <use xlink:href="#mf591e95653" x="438.457611" y="265.313015" style="fill-opacity: 0.3"/>
     <use xlink:href="#mf591e95653" x="448.73939" y="230.138741" style="fill-opacity: 0.3"/>
     <use xlink:href="#mf591e95653" x="434.578338" y="220.711829" style="fill-opacity: 0.3"/>
     <use xlink:href="#mf591e95653" x="428.89468" y="245.960121" style="fill-opacity: 0.3"/>
     <use xlink:href="#mf591e95653" x="442.786297" y="235.834174" style="fill-opacity: 0.3"/>
     <use xlink:href="#mf591e95653" x="444.649835" y="262.336036" style="fill-opacity: 0.3"/>
     <use xlink:href="#mf591e95653" x="448.696627" y="216.676444" style="fill-opacity: 0.3"/>
    </g>
   </g>
   <g id="PathCollection_4">
    <g clip-path="url(#p46f4b32ec8)">
     <use xlink:href="#mf591e95653" x="583.965938" y="211.585712" style="fill-opacity: 0.3"/>
     <use xlink:href="#mf591e95653" x="587.983123" y="230.082503" style="fill-opacity: 0.3"/>
     <use xlink:href="#mf591e95653" x="591.672784" y="228.191001" style="fill-opacity: 0.3"/>
     <use xlink:href="#mf591e95653" x="582.36982" y="271.24787" style="fill-opacity: 0.3"/>
     <use xlink:href="#mf591e95653" x="586.747704" y="231.28693" style="fill-opacity: 0.3"/>
     <use xlink:href="#mf591e95653" x="586.103184" y="259.777747" style="fill-opacity: 0.3"/>
     <use xlink:href="#mf591e95653" x="574.076318" y="225.595478" style="fill-opacity: 0.3"/>
     <use xlink:href="#mf591e95653" x="569.493835" y="266.233347" style="fill-opacity: 0.3"/>
     <use xlink:href="#mf591e95653" x="591.749204" y="250.862851" style="fill-opacity: 0.3"/>
     <use xlink:href="#mf591e95653" x="582.86971" y="266.347731" style="fill-opacity: 0.3"/>
     <use xlink:href="#mf591e95653" x="573.834703" y="265.669405" style="fill-opacity: 0.3"/>
     <use xlink:href="#mf591e95653" x="589.580098" y="256.210552" style="fill-opacity: 0.3"/>
     <use xlink:href="#mf591e95653" x="564.994596" y="273.318778" style="fill-opacity: 0.3"/>
     <use xlink:href="#mf591e95653" x="570.66895" y="270.810554" style="fill-opacity: 0.3"/>
     <use xlink:href="#mf591e95653" x="576.793627" y="268.930957" style="fill-opacity: 0.3"/>
     <use xlink:href="#mf591e95653" x="591.367415" y="257.837266" style="fill-opacity: 0.3"/>
     <use xlink:href="#mf591e95653" x="582.857957" y="261.397655" style="fill-opacity: 0.3"/>
     <use xlink:href="#mf591e95653" x="591.763371" y="240.694829" style="fill-opacity: 0.3"/>
     <use xlink:href="#mf591e95653" x="569.482664" y="251.033525" style="fill-opacity: 0.3"/>
     <use xlink:href="#mf591e95653" x="588.567372" y="259.688591" style="fill-opacity: 0.3"/>
     <use xlink:href="#mf591e95653" x="590.932594" y="238.183229" style="fill-opacity: 0.3"/>
     <use xlink:href="#mf591e95653" x="582.271726" y="255.568129" style="fill-opacity: 0.3"/>
     <use xlink:href="#mf591e95653" x="579.81042" y="244.147459" style="fill-opacity: 0.3"/>
     <use xlink:href="#mf591e95653" x="583.483951" y="206.998264" style="fill-opacity: 0.3"/>
     <use xlink:href="#mf591e95653" x="575.542179" y="207.997976" style="fill-opacity: 0.3"/>
     <use xlink:href="#mf591e95653" x="567.089798" y="252.935415" style="fill-opacity: 0.3"/>
     <use xlink:href="#mf591e95653" x="577.496002" y="236.123157" style="fill-opacity: 0.3"/>
    </g>
   </g>
  </g>
 </g>
 <defs>
  <clipPath id="p46f4b32ec8">
   <rect x="90" y="43.2" width="558" height="277.2"/>
  </clipPath>
 </defs>
</svg>
