<?xml version="1.0" encoding="utf-8" standalone="no"?>
<!DOCTYPE svg PUBLIC "-//W3C//DTD SVG 1.1//EN"
  "http://www.w3.org/Graphics/SVG/1.1/DTD/svg11.dtd">
<svg xmlns:xlink="http://www.w3.org/1999/xlink" width="720pt" height="360pt" viewBox="0 0 720 360" xmlns="http://www.w3.org/2000/svg" version="1.1">
 <metadata>
  <rdf:RDF xmlns:dc="http://purl.org/dc/elements/1.1/" xmlns:cc="http://creativecommons.org/ns#" xmlns:rdf="http://www.w3.org/1999/02/22-rdf-syntax-ns#">
   <cc:Work>
    <dc:type rdf:resource="http://purl.org/dc/dcmitype/StillImage"/>
    <dc:date>2025-10-01T10:08:50.674356</dc:date>
    <dc:format>image/svg+xml</dc:format>
    <dc:creator>
     <cc:Agent>
      <dc:title>Matplotlib v3.10.3, https://matplotlib.org/</dc:title>
     </cc:Agent>
    </dc:creator>
   </cc:Work>
  </rdf:RDF>
 </metadata>
 <defs>
  <style type="text/css">*{stroke-linejoin: round; stroke-linecap: butt}</style>
 </defs>
 <g id="figure_1">
  <g id="patch_1">
   <path d="M 0 360 
L 720 360 
L 720 0 
L 0 0 
z
" style="fill: #ffffff"/>
  </g>
  <g id="axes_1">
   <g id="patch_2">
    <path d="M 90 320.4 
L 648 320.4 
L 648 43.2 
L 90 43.2 
z
" style="fill: #ffffff"/>
   </g>
   <g id="FillBetweenPolyCollection_1">
    <defs>
     <path id="m5db086492e" d="M 229.998402 -63.422684 
L 229.001598 -63.422684 
L 228.711231 -65.160102 
L 228.279795 -66.89752 
L 227.653441 -68.634938 
L 226.764527 -70.372356 
L 225.530965 -72.109774 
L 223.856896 -73.847192 
L 221.635264 -75.58461 
L 218.752813 -77.322028 
L 215.097899 -79.059446 
L 210.571226 -80.796864 
L 205.099253 -82.534282 
L 198.649464 -84.2717 
L 191.246111 -86.009118 
L 182.984376 -87.746536 
L 174.040315 -89.483954 
L 164.673654 -91.221372 
L 155.220649 -92.95879 
L 146.075204 -94.696208 
L 137.658116 -96.433626 
L 130.376779 -98.171044 
L 124.580253 -99.908462 
L 120.51671 -101.64588 
L 118.301112 -103.383298 
L 117.9 -105.120716 
L 119.137529 -106.858134 
L 121.722746 -108.595552 
L 125.293707 -110.33297 
L 129.470386 -112.070388 
L 133.906475 -113.807806 
L 138.330609 -115.545224 
L 142.570103 -117.282642 
L 146.554358 -119.02006 
L 150.299529 -120.757478 
L 153.879843 -122.494896 
L 157.393216 -124.232314 
L 160.929073 -125.969732 
L 164.544734 -127.70715 
L 168.253882 -129.444568 
L 172.027396 -131.181986 
L 175.80407 -132.919404 
L 179.507013 -134.656822 
L 183.061133 -136.39424 
L 186.407811 -138.131658 
L 189.514222 -139.869076 
L 192.376343 -141.606494 
L 195.016002 -143.343912 
L 197.473316 -145.08133 
L 199.796415 -146.818748 
L 202.030585 -148.556166 
L 204.208894 -150.293584 
L 206.345999 -152.031002 
L 208.436183 -153.76842 
L 210.455796 -155.505838 
L 212.369346 -157.243256 
L 214.137722 -158.980674 
L 215.726609 -160.718092 
L 217.113315 -162.45551 
L 218.290703 -164.192928 
L 219.267803 -165.930346 
L 220.067425 -167.667764 
L 220.721717 -169.405182 
L 221.266835 -171.1426 
L 221.737832 -172.880018 
L 222.164566 -174.617436 
L 222.569074 -176.354854 
L 222.964534 -178.092272 
L 223.355677 -179.82969 
L 223.740328 -181.567108 
L 224.111668 -183.304526 
L 224.460725 -185.041944 
L 224.778643 -186.779362 
L 225.058366 -188.51678 
L 225.295573 -190.254198 
L 225.488896 -191.991616 
L 225.639617 -193.729034 
L 225.751127 -195.466452 
L 225.828389 -197.20387 
L 225.877536 -198.941288 
L 225.90564 -200.678706 
L 225.92056 -202.416124 
L 225.930797 -204.153542 
L 225.945289 -205.89096 
L 225.973092 -207.628378 
L 226.022962 -209.365796 
L 226.102802 -211.103214 
L 226.218991 -212.840631 
L 226.375629 -214.578049 
L 226.573795 -216.315467 
L 226.810999 -218.052885 
L 227.081006 -219.790303 
L 227.374201 -221.527721 
L 227.678518 -223.265139 
L 227.980826 -225.002557 
L 228.268511 -226.739975 
L 228.53095 -228.477393 
L 228.760577 -230.214811 
L 228.953378 -231.952229 
L 229.108789 -233.689647 
L 229.2291 -235.427065 
L 229.7709 -235.427065 
L 229.7709 -235.427065 
L 229.891211 -233.689647 
L 230.046622 -231.952229 
L 230.239423 -230.214811 
L 230.46905 -228.477393 
L 230.731489 -226.739975 
L 231.019174 -225.002557 
L 231.321482 -223.265139 
L 231.625799 -221.527721 
L 231.918994 -219.790303 
L 232.189001 -218.052885 
L 232.426205 -216.315467 
L 232.624371 -214.578049 
L 232.781009 -212.840631 
L 232.897198 -211.103214 
L 232.977038 -209.365796 
L 233.026908 -207.628378 
L 233.054711 -205.89096 
L 233.069203 -204.153542 
L 233.07944 -202.416124 
L 233.09436 -200.678706 
L 233.122464 -198.941288 
L 233.171611 -197.20387 
L 233.248873 -195.466452 
L 233.360383 -193.729034 
L 233.511104 -191.991616 
L 233.704427 -190.254198 
L 233.941634 -188.51678 
L 234.221357 -186.779362 
L 234.539275 -185.041944 
L 234.888332 -183.304526 
L 235.259672 -181.567108 
L 235.644323 -179.82969 
L 236.035466 -178.092272 
L 236.430926 -176.354854 
L 236.835434 -174.617436 
L 237.262168 -172.880018 
L 237.733165 -171.1426 
L 238.278283 -169.405182 
L 238.932575 -167.667764 
L 239.732197 -165.930346 
L 240.709297 -164.192928 
L 241.886685 -162.45551 
L 243.273391 -160.718092 
L 244.862278 -158.980674 
L 246.630654 -157.243256 
L 248.544204 -155.505838 
L 250.563817 -153.76842 
L 252.654001 -152.031002 
L 254.791106 -150.293584 
L 256.969415 -148.556166 
L 259.203585 -146.818748 
L 261.526684 -145.08133 
L 263.983998 -143.343912 
L 266.623657 -141.606494 
L 269.485778 -139.869076 
L 272.592189 -138.131658 
L 275.938867 -136.39424 
L 279.492987 -134.656822 
L 283.19593 -132.919404 
L 286.972604 -131.181986 
L 290.746118 -129.444568 
L 294.455266 -127.70715 
L 298.070927 -125.969732 
L 301.606784 -124.232314 
L 305.120157 -122.494896 
L 308.700471 -120.757478 
L 312.445642 -119.02006 
L 316.429897 -117.282642 
L 320.669391 -115.545224 
L 325.093525 -113.807806 
L 329.529614 -112.070388 
L 333.706293 -110.33297 
L 337.277254 -108.595552 
L 339.862471 -106.858134 
L 341.1 -105.120716 
L 340.698888 -103.383298 
L 338.48329 -101.64588 
L 334.419747 -99.908462 
L 328.623221 -98.171044 
L 321.341884 -96.433626 
L 312.924796 -94.696208 
L 303.779351 -92.95879 
L 294.326346 -91.221372 
L 284.959685 -89.483954 
L 276.015624 -87.746536 
L 267.753889 -86.009118 
L 260.350536 -84.2717 
L 253.900747 -82.534282 
L 248.428774 -80.796864 
L 243.902101 -79.059446 
L 240.247187 -77.322028 
L 237.364736 -75.58461 
L 235.143104 -73.847192 
L 233.469035 -72.109774 
L 232.235473 -70.372356 
L 231.346559 -68.634938 
L 230.720205 -66.89752 
L 230.288769 -65.160102 
L 229.998402 -63.422684 
z
" style="stroke: #3f3f3f; stroke-width: 1.25"/>
    </defs>
    <g clip-path="url(#pefe231dc5f)">
     <use xlink:href="#m5db086492e" x="0" y="360" style="fill: #3274a1; stroke: #3f3f3f; stroke-width: 1.25"/>
    </g>
   </g>
   <g id="FillBetweenPolyCollection_2">
    <defs>
     <path id="m62b5bac1aa" d="M 512.060057 -52.2 
L 504.939943 -52.2 
L 503.038836 -54.745455 
L 500.395902 -57.290909 
L 496.86314 -59.836364 
L 492.325806 -62.381818 
L 486.73096 -64.927273 
L 480.114384 -67.472727 
L 472.619194 -70.018182 
L 464.499504 -72.563636 
L 456.10447 -75.109091 
L 447.841918 -77.654545 
L 440.125686 -80.2 
L 433.315513 -82.745455 
L 427.6613 -85.290909 
L 423.263739 -87.836364 
L 420.060364 -90.381818 
L 417.840741 -92.927273 
L 416.288129 -95.472727 
L 415.039318 -98.018182 
L 413.75086 -100.563636 
L 412.159227 -103.109091 
L 410.124547 -105.654545 
L 407.651467 -108.2 
L 404.885426 -110.745455 
L 402.086967 -113.290909 
L 399.589937 -115.836364 
L 397.751231 -118.381818 
L 396.9 -120.927273 
L 397.293439 -123.472727 
L 399.084538 -126.018182 
L 402.305107 -128.563636 
L 406.865174 -131.109091 
L 412.567727 -133.654545 
L 419.135963 -136.2 
L 426.248752 -138.745455 
L 433.579043 -141.290909 
L 440.829698 -143.836364 
L 447.761692 -146.381818 
L 454.210954 -148.927273 
L 460.092177 -151.472727 
L 465.39026 -154.018182 
L 470.142351 -156.563636 
L 474.41498 -159.109091 
L 478.281338 -161.654545 
L 481.80313 -164.2 
L 485.019841 -166.745455 
L 487.946251 -169.290909 
L 490.577083 -171.836364 
L 492.896274 -174.381818 
L 494.88779 -176.927273 
L 496.545157 -179.472727 
L 497.877672 -182.018182 
L 498.912405 -184.563636 
L 499.692155 -187.109091 
L 500.270341 -189.654545 
L 500.704277 -192.2 
L 501.048342 -194.745455 
L 501.348343 -197.290909 
L 501.637929 -199.836364 
L 501.937409 -202.381818 
L 502.254835 -204.927273 
L 502.588799 -207.472727 
L 502.932153 -210.018182 
L 503.275775 -212.563636 
L 503.611585 -215.109091 
L 503.934281 -217.654545 
L 504.241575 -220.2 
L 504.533135 -222.745455 
L 504.808768 -225.290909 
L 505.066571 -227.836364 
L 505.301785 -230.381818 
L 505.506843 -232.927273 
L 505.672704 -235.472727 
L 505.791112 -238.018182 
L 505.857092 -240.563636 
L 505.870869 -243.109091 
L 505.838559 -245.654545 
L 505.771372 -248.2 
L 505.683566 -250.745455 
L 505.589776 -253.290909 
L 505.502567 -255.836364 
L 505.430939 -258.381818 
L 505.380162 -260.927273 
L 505.352819 -263.472727 
L 505.350532 -266.018182 
L 505.375575 -268.563636 
L 505.431712 -271.109091 
L 505.523888 -273.654545 
L 505.656859 -276.2 
L 505.833293 -278.745455 
L 506.052014 -281.290909 
L 506.307048 -283.836364 
L 506.587828 -286.381818 
L 506.880512 -288.927273 
L 507.170046 -291.472727 
L 507.442406 -294.018182 
L 507.686467 -296.563636 
L 507.895128 -299.109091 
L 508.065562 -301.654545 
L 508.198715 -304.2 
L 508.801285 -304.2 
L 508.801285 -304.2 
L 508.934438 -301.654545 
L 509.104872 -299.109091 
L 509.313533 -296.563636 
L 509.557594 -294.018182 
L 509.829954 -291.472727 
L 510.119488 -288.927273 
L 510.412172 -286.381818 
L 510.692952 -283.836364 
L 510.947986 -281.290909 
L 511.166707 -278.745455 
L 511.343141 -276.2 
L 511.476112 -273.654545 
L 511.568288 -271.109091 
L 511.624425 -268.563636 
L 511.649468 -266.018182 
L 511.647181 -263.472727 
L 511.619838 -260.927273 
L 511.569061 -258.381818 
L 511.497433 -255.836364 
L 511.410224 -253.290909 
L 511.316434 -250.745455 
L 511.228628 -248.2 
L 511.161441 -245.654545 
L 511.129131 -243.109091 
L 511.142908 -240.563636 
L 511.208888 -238.018182 
L 511.327296 -235.472727 
L 511.493157 -232.927273 
L 511.698215 -230.381818 
L 511.933429 -227.836364 
L 512.191232 -225.290909 
L 512.466865 -222.745455 
L 512.758425 -220.2 
L 513.065719 -217.654545 
L 513.388415 -215.109091 
L 513.724225 -212.563636 
L 514.067847 -210.018182 
L 514.411201 -207.472727 
L 514.745165 -204.927273 
L 515.062591 -202.381818 
L 515.362071 -199.836364 
L 515.651657 -197.290909 
L 515.951658 -194.745455 
L 516.295723 -192.2 
L 516.729659 -189.654545 
L 517.307845 -187.109091 
L 518.087595 -184.563636 
L 519.122328 -182.018182 
L 520.454843 -179.472727 
L 522.11221 -176.927273 
L 524.103726 -174.381818 
L 526.422917 -171.836364 
L 529.053749 -169.290909 
L 531.980159 -166.745455 
L 535.19687 -164.2 
L 538.718662 -161.654545 
L 542.58502 -159.109091 
L 546.857649 -156.563636 
L 551.60974 -154.018182 
L 556.907823 -151.472727 
L 562.789046 -148.927273 
L 569.238308 -146.381818 
L 576.170302 -143.836364 
L 583.420957 -141.290909 
L 590.751248 -138.745455 
L 597.864037 -136.2 
L 604.432273 -133.654545 
L 610.134826 -131.109091 
L 614.694893 -128.563636 
L 617.915462 -126.018182 
L 619.706561 -123.472727 
L 620.1 -120.927273 
L 619.248769 -118.381818 
L 617.410063 -115.836364 
L 614.913033 -113.290909 
L 612.114574 -110.745455 
L 609.348533 -108.2 
L 606.875453 -105.654545 
L 604.840773 -103.109091 
L 603.24914 -100.563636 
L 601.960682 -98.018182 
L 600.711871 -95.472727 
L 599.159259 -92.927273 
L 596.939636 -90.381818 
L 593.736261 -87.836364 
L 589.3387 -85.290909 
L 583.684487 -82.745455 
L 576.874314 -80.2 
L 569.158082 -77.654545 
L 560.89553 -75.109091 
L 552.500496 -72.563636 
L 544.380806 -70.018182 
L 536.885616 -67.472727 
L 530.26904 -64.927273 
L 524.674194 -62.381818 
L 520.13686 -59.836364 
L 516.604098 -57.290909 
L 513.961164 -54.745455 
L 512.060057 -52.2 
z
" style="stroke: #3f3f3f; stroke-width: 1.25"/>
    </defs>
    <g clip-path="url(#pefe231dc5f)">
     <use xlink:href="#m62b5bac1aa" x="0" y="360" style="fill: #e1812c; stroke: #3f3f3f; stroke-width: 1.25"/>
    </g>
   </g>
   <g id="matplotlib.axis_1">
    <g id="xtick_1">
     <g id="line2d_1">
      <defs>
       <path id="m1616cdca98" d="M 0 0 
L 0 3.5 
" style="stroke: #000000; stroke-width: 0.8"/>
      </defs>
      <g>
       <use xlink:href="#m1616cdca98" x="229.5" y="320.4" style="stroke: #000000; stroke-width: 0.8"/>
      </g>
     </g>
     <g id="text_1">
      <!-- n -->
      <g transform="translate(226.33125 334.998438) scale(0.1 -0.1)">
       <defs>
        <path id="DejaVuSans-6e" d="M 3513 2113 
L 3513 0 
L 2938 0 
L 2938 2094 
Q 2938 2591 2744 2837 
Q 2550 3084 2163 3084 
Q 1697 3084 1428 2787 
Q 1159 2491 1159 1978 
L 1159 0 
L 581 0 
L 581 3500 
L 1159 3500 
L 1159 2956 
Q 1366 3272 1645 3428 
Q 1925 3584 2291 3584 
Q 2894 3584 3203 3211 
Q 3513 2838 3513 2113 
z
" transform="scale(0.015625)"/>
       </defs>
       <use xlink:href="#DejaVuSans-6e"/>
      </g>
     </g>
    </g>
    <g id="xtick_2">
     <g id="line2d_2">
      <g>
       <use xlink:href="#m1616cdca98" x="508.5" y="320.4" style="stroke: #000000; stroke-width: 0.8"/>
      </g>
     </g>
     <g id="text_2">
      <!-- y -->
      <g transform="translate(505.540625 334.998438) scale(0.1 -0.1)">
       <defs>
        <path id="DejaVuSans-79" d="M 2059 -325 
Q 1816 -950 1584 -1140 
Q 1353 -1331 966 -1331 
L 506 -1331 
L 506 -850 
L 844 -850 
Q 1081 -850 1212 -737 
Q 1344 -625 1503 -206 
L 1606 56 
L 191 3500 
L 800 3500 
L 1894 763 
L 2988 3500 
L 3597 3500 
L 2059 -325 
z
" transform="scale(0.015625)"/>
       </defs>
       <use xlink:href="#DejaVuSans-79"/>
      </g>
     </g>
    </g>
    <g id="text_3">
     <!-- value -->
     <g transform="translate(355.342188 348.676562) scale(0.1 -0.1)">
      <defs>
       <path id="DejaVuSans-76" d="M 191 3500 
L 800 3500 
L 1894 563 
L 2988 3500 
L 3597 3500 
L 2284 0 
L 1503 0 
L 191 3500 
z
" transform="scale(0.015625)"/>
       <path id="DejaVuSans-61" d="M 2194 1759 
Q 1497 1759 1228 1600 
Q 959 1441 959 1056 
Q 959 750 1161 570 
Q 1363 391 1709 391 
Q 2188 391 2477 730 
Q 2766 1069 2766 1631 
L 2766 1759 
L 2194 1759 
z
M 3341 1997 
L 3341 0 
L 2766 0 
L 2766 531 
Q 2569 213 2275 61 
Q 1981 -91 1556 -91 
Q 1019 -91 701 211 
Q 384 513 384 1019 
Q 384 1609 779 1909 
Q 1175 2209 1959 2209 
L 2766 2209 
L 2766 2266 
Q 2766 2663 2505 2880 
Q 2244 3097 1772 3097 
Q 1472 3097 1187 3025 
Q 903 2953 641 2809 
L 641 3341 
Q 956 3463 1253 3523 
Q 1550 3584 1831 3584 
Q 2591 3584 2966 3190 
Q 3341 2797 3341 1997 
z
" transform="scale(0.015625)"/>
       <path id="DejaVuSans-6c" d="M 603 4863 
L 1178 4863 
L 1178 0 
L 603 0 
L 603 4863 
z
" transform="scale(0.015625)"/>
       <path id="DejaVuSans-75" d="M 544 1381 
L 544 3500 
L 1119 3500 
L 1119 1403 
Q 1119 906 1312 657 
Q 1506 409 1894 409 
Q 2359 409 2629 706 
Q 2900 1003 2900 1516 
L 2900 3500 
L 3475 3500 
L 3475 0 
L 2900 0 
L 2900 538 
Q 2691 219 2414 64 
Q 2138 -91 1772 -91 
Q 1169 -91 856 284 
Q 544 659 544 1381 
z
M 1991 3584 
L 1991 3584 
z
" transform="scale(0.015625)"/>
       <path id="DejaVuSans-65" d="M 3597 1894 
L 3597 1613 
L 953 1613 
Q 991 1019 1311 708 
Q 1631 397 2203 397 
Q 2534 397 2845 478 
Q 3156 559 3463 722 
L 3463 178 
Q 3153 47 2828 -22 
Q 2503 -91 2169 -91 
Q 1331 -91 842 396 
Q 353 884 353 1716 
Q 353 2575 817 3079 
Q 1281 3584 2069 3584 
Q 2775 3584 3186 3129 
Q 3597 2675 3597 1894 
z
M 3022 2063 
Q 3016 2534 2758 2815 
Q 2500 3097 2075 3097 
Q 1594 3097 1305 2825 
Q 1016 2553 972 2059 
L 3022 2063 
z
" transform="scale(0.015625)"/>
      </defs>
      <use xlink:href="#DejaVuSans-76"/>
      <use xlink:href="#DejaVuSans-61" transform="translate(59.179688 0)"/>
      <use xlink:href="#DejaVuSans-6c" transform="translate(120.458984 0)"/>
      <use xlink:href="#DejaVuSans-75" transform="translate(148.242188 0)"/>
      <use xlink:href="#DejaVuSans-65" transform="translate(211.621094 0)"/>
     </g>
    </g>
   </g>
   <g id="matplotlib.axis_2">
    <g id="ytick_1">
     <g id="line2d_3">
      <defs>
       <path id="mfb0a3518ac" d="M 0 0 
L -3.5 0 
" style="stroke: #000000; stroke-width: 0.8"/>
      </defs>
      <g>
       <use xlink:href="#mfb0a3518ac" x="90" y="290.468261" style="stroke: #000000; stroke-width: 0.8"/>
      </g>
     </g>
     <g id="text_4">
      <!-- 0.00 -->
      <g transform="translate(60.734375 294.26748) scale(0.1 -0.1)">
       <defs>
        <path id="DejaVuSans-30" d="M 2034 4250 
Q 1547 4250 1301 3770 
Q 1056 3291 1056 2328 
Q 1056 1369 1301 889 
Q 1547 409 2034 409 
Q 2525 409 2770 889 
Q 3016 1369 3016 2328 
Q 3016 3291 2770 3770 
Q 2525 4250 2034 4250 
z
M 2034 4750 
Q 2819 4750 3233 4129 
Q 3647 3509 3647 2328 
Q 3647 1150 3233 529 
Q 2819 -91 2034 -91 
Q 1250 -91 836 529 
Q 422 1150 422 2328 
Q 422 3509 836 4129 
Q 1250 4750 2034 4750 
z
" transform="scale(0.015625)"/>
        <path id="DejaVuSans-2e" d="M 684 794 
L 1344 794 
L 1344 0 
L 684 0 
L 684 794 
z
" transform="scale(0.015625)"/>
       </defs>
       <use xlink:href="#DejaVuSans-30"/>
       <use xlink:href="#DejaVuSans-2e" transform="translate(63.623047 0)"/>
       <use xlink:href="#DejaVuSans-30" transform="translate(95.410156 0)"/>
       <use xlink:href="#DejaVuSans-30" transform="translate(159.033203 0)"/>
      </g>
     </g>
    </g>
    <g id="ytick_2">
     <g id="line2d_4">
      <g>
       <use xlink:href="#mfb0a3518ac" x="90" y="230.295826" style="stroke: #000000; stroke-width: 0.8"/>
      </g>
     </g>
     <g id="text_5">
      <!-- 0.05 -->
      <g transform="translate(60.734375 234.095044) scale(0.1 -0.1)">
       <defs>
        <path id="DejaVuSans-35" d="M 691 4666 
L 3169 4666 
L 3169 4134 
L 1269 4134 
L 1269 2991 
Q 1406 3038 1543 3061 
Q 1681 3084 1819 3084 
Q 2600 3084 3056 2656 
Q 3513 2228 3513 1497 
Q 3513 744 3044 326 
Q 2575 -91 1722 -91 
Q 1428 -91 1123 -41 
Q 819 9 494 109 
L 494 744 
Q 775 591 1075 516 
Q 1375 441 1709 441 
Q 2250 441 2565 725 
Q 2881 1009 2881 1497 
Q 2881 1984 2565 2268 
Q 2250 2553 1709 2553 
Q 1456 2553 1204 2497 
Q 953 2441 691 2322 
L 691 4666 
z
" transform="scale(0.015625)"/>
       </defs>
       <use xlink:href="#DejaVuSans-30"/>
       <use xlink:href="#DejaVuSans-2e" transform="translate(63.623047 0)"/>
       <use xlink:href="#DejaVuSans-30" transform="translate(95.410156 0)"/>
       <use xlink:href="#DejaVuSans-35" transform="translate(159.033203 0)"/>
      </g>
     </g>
    </g>
    <g id="ytick_3">
     <g id="line2d_5">
      <g>
       <use xlink:href="#mfb0a3518ac" x="90" y="170.12339" style="stroke: #000000; stroke-width: 0.8"/>
      </g>
     </g>
     <g id="text_6">
      <!-- 0.10 -->
      <g transform="translate(60.734375 173.922609) scale(0.1 -0.1)">
       <defs>
        <path id="DejaVuSans-31" d="M 794 531 
L 1825 531 
L 1825 4091 
L 703 3866 
L 703 4441 
L 1819 4666 
L 2450 4666 
L 2450 531 
L 3481 531 
L 3481 0 
L 794 0 
L 794 531 
z
" transform="scale(0.015625)"/>
       </defs>
       <use xlink:href="#DejaVuSans-30"/>
       <use xlink:href="#DejaVuSans-2e" transform="translate(63.623047 0)"/>
       <use xlink:href="#DejaVuSans-31" transform="translate(95.410156 0)"/>
       <use xlink:href="#DejaVuSans-30" transform="translate(159.033203 0)"/>
      </g>
     </g>
    </g>
    <g id="ytick_4">
     <g id="line2d_6">
      <g>
       <use xlink:href="#mfb0a3518ac" x="90" y="109.950955" style="stroke: #000000; stroke-width: 0.8"/>
      </g>
     </g>
     <g id="text_7">
      <!-- 0.15 -->
      <g transform="translate(60.734375 113.750174) scale(0.1 -0.1)">
       <use xlink:href="#DejaVuSans-30"/>
       <use xlink:href="#DejaVuSans-2e" transform="translate(63.623047 0)"/>
       <use xlink:href="#DejaVuSans-31" transform="translate(95.410156 0)"/>
       <use xlink:href="#DejaVuSans-35" transform="translate(159.033203 0)"/>
      </g>
     </g>
    </g>
    <g id="ytick_5">
     <g id="line2d_7">
      <g>
       <use xlink:href="#mfb0a3518ac" x="90" y="49.77852" style="stroke: #000000; stroke-width: 0.8"/>
      </g>
     </g>
     <g id="text_8">
      <!-- 0.20 -->
      <g transform="translate(60.734375 53.577738) scale(0.1 -0.1)">
       <defs>
        <path id="DejaVuSans-32" d="M 1228 531 
L 3431 531 
L 3431 0 
L 469 0 
L 469 531 
Q 828 903 1448 1529 
Q 2069 2156 2228 2338 
Q 2531 2678 2651 2914 
Q 2772 3150 2772 3378 
Q 2772 3750 2511 3984 
Q 2250 4219 1831 4219 
Q 1534 4219 1204 4116 
Q 875 4013 500 3803 
L 500 4441 
Q 881 4594 1212 4672 
Q 1544 4750 1819 4750 
Q 2544 4750 2975 4387 
Q 3406 4025 3406 3419 
Q 3406 3131 3298 2873 
Q 3191 2616 2906 2266 
Q 2828 2175 2409 1742 
Q 1991 1309 1228 531 
z
" transform="scale(0.015625)"/>
       </defs>
       <use xlink:href="#DejaVuSans-30"/>
       <use xlink:href="#DejaVuSans-2e" transform="translate(63.623047 0)"/>
       <use xlink:href="#DejaVuSans-32" transform="translate(95.410156 0)"/>
       <use xlink:href="#DejaVuSans-30" transform="translate(159.033203 0)"/>
      </g>
     </g>
    </g>
    <g id="text_9">
     <!-- cont_variable -->
     <g transform="translate(54.376562 215.409375) rotate(-90) scale(0.1 -0.1)">
      <defs>
       <path id="DejaVuSans-63" d="M 3122 3366 
L 3122 2828 
Q 2878 2963 2633 3030 
Q 2388 3097 2138 3097 
Q 1578 3097 1268 2742 
Q 959 2388 959 1747 
Q 959 1106 1268 751 
Q 1578 397 2138 397 
Q 2388 397 2633 464 
Q 2878 531 3122 666 
L 3122 134 
Q 2881 22 2623 -34 
Q 2366 -91 2075 -91 
Q 1284 -91 818 406 
Q 353 903 353 1747 
Q 353 2603 823 3093 
Q 1294 3584 2113 3584 
Q 2378 3584 2631 3529 
Q 2884 3475 3122 3366 
z
" transform="scale(0.015625)"/>
       <path id="DejaVuSans-6f" d="M 1959 3097 
Q 1497 3097 1228 2736 
Q 959 2375 959 1747 
Q 959 1119 1226 758 
Q 1494 397 1959 397 
Q 2419 397 2687 759 
Q 2956 1122 2956 1747 
Q 2956 2369 2687 2733 
Q 2419 3097 1959 3097 
z
M 1959 3584 
Q 2709 3584 3137 3096 
Q 3566 2609 3566 1747 
Q 3566 888 3137 398 
Q 2709 -91 1959 -91 
Q 1206 -91 779 398 
Q 353 888 353 1747 
Q 353 2609 779 3096 
Q 1206 3584 1959 3584 
z
" transform="scale(0.015625)"/>
       <path id="DejaVuSans-74" d="M 1172 4494 
L 1172 3500 
L 2356 3500 
L 2356 3053 
L 1172 3053 
L 1172 1153 
Q 1172 725 1289 603 
Q 1406 481 1766 481 
L 2356 481 
L 2356 0 
L 1766 0 
Q 1100 0 847 248 
Q 594 497 594 1153 
L 594 3053 
L 172 3053 
L 172 3500 
L 594 3500 
L 594 4494 
L 1172 4494 
z
" transform="scale(0.015625)"/>
       <path id="DejaVuSans-5f" d="M 3263 -1063 
L 3263 -1509 
L -63 -1509 
L -63 -1063 
L 3263 -1063 
z
" transform="scale(0.015625)"/>
       <path id="DejaVuSans-72" d="M 2631 2963 
Q 2534 3019 2420 3045 
Q 2306 3072 2169 3072 
Q 1681 3072 1420 2755 
Q 1159 2438 1159 1844 
L 1159 0 
L 581 0 
L 581 3500 
L 1159 3500 
L 1159 2956 
Q 1341 3275 1631 3429 
Q 1922 3584 2338 3584 
Q 2397 3584 2469 3576 
Q 2541 3569 2628 3553 
L 2631 2963 
z
" transform="scale(0.015625)"/>
       <path id="DejaVuSans-69" d="M 603 3500 
L 1178 3500 
L 1178 0 
L 603 0 
L 603 3500 
z
M 603 4863 
L 1178 4863 
L 1178 4134 
L 603 4134 
L 603 4863 
z
" transform="scale(0.015625)"/>
       <path id="DejaVuSans-62" d="M 3116 1747 
Q 3116 2381 2855 2742 
Q 2594 3103 2138 3103 
Q 1681 3103 1420 2742 
Q 1159 2381 1159 1747 
Q 1159 1113 1420 752 
Q 1681 391 2138 391 
Q 2594 391 2855 752 
Q 3116 1113 3116 1747 
z
M 1159 2969 
Q 1341 3281 1617 3432 
Q 1894 3584 2278 3584 
Q 2916 3584 3314 3078 
Q 3713 2572 3713 1747 
Q 3713 922 3314 415 
Q 2916 -91 2278 -91 
Q 1894 -91 1617 61 
Q 1341 213 1159 525 
L 1159 0 
L 581 0 
L 581 4863 
L 1159 4863 
L 1159 2969 
z
" transform="scale(0.015625)"/>
      </defs>
      <use xlink:href="#DejaVuSans-63"/>
      <use xlink:href="#DejaVuSans-6f" transform="translate(54.980469 0)"/>
      <use xlink:href="#DejaVuSans-6e" transform="translate(116.162109 0)"/>
      <use xlink:href="#DejaVuSans-74" transform="translate(179.541016 0)"/>
      <use xlink:href="#DejaVuSans-5f" transform="translate(218.75 0)"/>
      <use xlink:href="#DejaVuSans-76" transform="translate(268.75 0)"/>
      <use xlink:href="#DejaVuSans-61" transform="translate(327.929688 0)"/>
      <use xlink:href="#DejaVuSans-72" transform="translate(389.208984 0)"/>
      <use xlink:href="#DejaVuSans-69" transform="translate(430.322266 0)"/>
      <use xlink:href="#DejaVuSans-61" transform="translate(458.105469 0)"/>
      <use xlink:href="#DejaVuSans-62" transform="translate(519.384766 0)"/>
      <use xlink:href="#DejaVuSans-6c" transform="translate(582.861328 0)"/>
      <use xlink:href="#DejaVuSans-65" transform="translate(610.644531 0)"/>
     </g>
    </g>
   </g>
   <g id="patch_3">
    <path d="M 90 320.4 
L 90 43.2 
" style="fill: none; stroke: #000000; stroke-width: 0.8; stroke-linejoin: miter; stroke-linecap: square"/>
   </g>
   <g id="patch_4">
    <path d="M 648 320.4 
L 648 43.2 
" style="fill: none; stroke: #000000; stroke-width: 0.8; stroke-linejoin: miter; stroke-linecap: square"/>
   </g>
   <g id="patch_5">
    <path d="M 90 320.4 
L 648 320.4 
" style="fill: none; stroke: #000000; stroke-width: 0.8; stroke-linejoin: miter; stroke-linecap: square"/>
   </g>
   <g id="patch_6">
    <path d="M 90 43.2 
L 648 43.2 
" style="fill: none; stroke: #000000; stroke-width: 0.8; stroke-linejoin: miter; stroke-linecap: square"/>
   </g>
   <g id="PathCollection_1">
    <defs>
     <path id="m312611b8b3" d="M 0 2.5 
C 0.663008 2.5 1.29895 2.236584 1.767767 1.767767 
C 2.236584 1.29895 2.5 0.663008 2.5 0 
C 2.5 -0.663008 2.236584 -1.29895 1.767767 -1.767767 
C 1.29895 -2.236584 0.663008 -2.5 0 -2.5 
C -0.663008 -2.5 -1.29895 -2.236584 -1.767767 -1.767767 
C -2.236584 -1.29895 -2.5 -0.663008 -2.5 0 
C -2.5 0.663008 -2.236584 1.29895 -1.767767 1.767767 
C -1.29895 2.236584 -0.663008 2.5 0 2.5 
z
"/>
    </defs>
    <g clip-path="url(#pefe231dc5f)">
     <use xlink:href="#m312611b8b3" x="247.499881" y="248.961329" style="fill-opacity: 0.3"/>
     <use xlink:href="#m312611b8b3" x="234.185522" y="204.432988" style="fill-opacity: 0.3"/>
     <use xlink:href="#m312611b8b3" x="222.457202" y="256.587148" style="fill-opacity: 0.3"/>
     <use xlink:href="#m312611b8b3" x="230.289905" y="254.23683" style="fill-opacity: 0.3"/>
     <use xlink:href="#m312611b8b3" x="230.236307" y="225.899098" style="fill-opacity: 0.3"/>
     <use xlink:href="#m312611b8b3" x="236.206387" y="211.762811" style="fill-opacity: 0.3"/>
     <use xlink:href="#m312611b8b3" x="218.695231" y="251.938069" style="fill-opacity: 0.3"/>
     <use xlink:href="#m312611b8b3" x="218.834878" y="248.229792" style="fill-opacity: 0.3"/>
     <use xlink:href="#m312611b8b3" x="239.783963" y="252.939628" style="fill-opacity: 0.3"/>
     <use xlink:href="#m312611b8b3" x="253.240909" y="235.05995" style="fill-opacity: 0.3"/>
     <use xlink:href="#m312611b8b3" x="251.75713" y="255.399405" style="fill-opacity: 0.3"/>
     <use xlink:href="#m312611b8b3" x="243.965106" y="269.102939" style="fill-opacity: 0.3"/>
     <use xlink:href="#m312611b8b3" x="221.629554" y="256.503021" style="fill-opacity: 0.3"/>
     <use xlink:href="#m312611b8b3" x="250.538212" y="257.171627" style="fill-opacity: 0.3"/>
     <use xlink:href="#m312611b8b3" x="215.851829" y="254.456859" style="fill-opacity: 0.3"/>
     <use xlink:href="#m312611b8b3" x="233.224034" y="263.338068" style="fill-opacity: 0.3"/>
     <use xlink:href="#m312611b8b3" x="227.055942" y="184.016166" style="fill-opacity: 0.3"/>
     <use xlink:href="#m312611b8b3" x="227.03533" y="230.531288" style="fill-opacity: 0.3"/>
     <use xlink:href="#m312611b8b3" x="203.597694" y="223.385346" style="fill-opacity: 0.3"/>
     <use xlink:href="#m312611b8b3" x="252.691555" y="214.011163" style="fill-opacity: 0.3"/>
     <use xlink:href="#m312611b8b3" x="246.23386" y="255.872791" style="fill-opacity: 0.3"/>
     <use xlink:href="#m312611b8b3" x="206.0418" y="238.759161" style="fill-opacity: 0.3"/>
     <use xlink:href="#m312611b8b3" x="213.851984" y="242.427388" style="fill-opacity: 0.3"/>
     <use xlink:href="#m312611b8b3" x="230.717925" y="235.186857" style="fill-opacity: 0.3"/>
     <use xlink:href="#m312611b8b3" x="214.377697" y="257.971945" style="fill-opacity: 0.3"/>
     <use xlink:href="#m312611b8b3" x="237.008611" y="238.16256" style="fill-opacity: 0.3"/>
     <use xlink:href="#m312611b8b3" x="233.539088" y="210.664312" style="fill-opacity: 0.3"/>
     <use xlink:href="#m312611b8b3" x="257.180927" y="241.238666" style="fill-opacity: 0.3"/>
     <use xlink:href="#m312611b8b3" x="208.607444" y="234.101326" style="fill-opacity: 0.3"/>
     <use xlink:href="#m312611b8b3" x="210.210749" y="257.878861" style="fill-opacity: 0.3"/>
     <use xlink:href="#m312611b8b3" x="209.482191" y="236.416915" style="fill-opacity: 0.3"/>
     <use xlink:href="#m312611b8b3" x="226.114922" y="215.90519" style="fill-opacity: 0.3"/>
     <use xlink:href="#m312611b8b3" x="237.157226" y="278.099396" style="fill-opacity: 0.3"/>
     <use xlink:href="#m312611b8b3" x="245.556285" y="267.495308" style="fill-opacity: 0.3"/>
     <use xlink:href="#m312611b8b3" x="230.649289" y="269.722608" style="fill-opacity: 0.3"/>
     <use xlink:href="#m312611b8b3" x="221.785376" y="270.947648" style="fill-opacity: 0.3"/>
     <use xlink:href="#m312611b8b3" x="219.537664" y="256.581695" style="fill-opacity: 0.3"/>
     <use xlink:href="#m312611b8b3" x="202.531611" y="237.663534" style="fill-opacity: 0.3"/>
     <use xlink:href="#m312611b8b3" x="236.095272" y="209.760987" style="fill-opacity: 0.3"/>
     <use xlink:href="#m312611b8b3" x="206.935334" y="143.050854" style="fill-opacity: 0.3"/>
     <use xlink:href="#m312611b8b3" x="231.225845" y="249.501773" style="fill-opacity: 0.3"/>
     <use xlink:href="#m312611b8b3" x="227.614649" y="251.123744" style="fill-opacity: 0.3"/>
     <use xlink:href="#m312611b8b3" x="252.96779" y="222.326657" style="fill-opacity: 0.3"/>
     <use xlink:href="#m312611b8b3" x="226.953209" y="256.192414" style="fill-opacity: 0.3"/>
     <use xlink:href="#m312611b8b3" x="244.572201" y="234.832081" style="fill-opacity: 0.3"/>
     <use xlink:href="#m312611b8b3" x="209.077387" y="247.750918" style="fill-opacity: 0.3"/>
     <use xlink:href="#m312611b8b3" x="229.010187" y="259.401212" style="fill-opacity: 0.3"/>
     <use xlink:href="#m312611b8b3" x="231.360849" y="255.809837" style="fill-opacity: 0.3"/>
     <use xlink:href="#m312611b8b3" x="221.770427" y="252.429843" style="fill-opacity: 0.3"/>
     <use xlink:href="#m312611b8b3" x="225.889133" y="263.405591" style="fill-opacity: 0.3"/>
     <use xlink:href="#m312611b8b3" x="226.47958" y="231.899106" style="fill-opacity: 0.3"/>
     <use xlink:href="#m312611b8b3" x="250.285517" y="259.845545" style="fill-opacity: 0.3"/>
     <use xlink:href="#m312611b8b3" x="206.462234" y="194.003026" style="fill-opacity: 0.3"/>
     <use xlink:href="#m312611b8b3" x="222.736987" y="218.011084" style="fill-opacity: 0.3"/>
     <use xlink:href="#m312611b8b3" x="233.666924" y="192.582633" style="fill-opacity: 0.3"/>
     <use xlink:href="#m312611b8b3" x="225.871463" y="239.070187" style="fill-opacity: 0.3"/>
     <use xlink:href="#m312611b8b3" x="222.488872" y="247.660997" style="fill-opacity: 0.3"/>
     <use xlink:href="#m312611b8b3" x="205.47697" y="246.742594" style="fill-opacity: 0.3"/>
     <use xlink:href="#m312611b8b3" x="229.743728" y="261.828325" style="fill-opacity: 0.3"/>
     <use xlink:href="#m312611b8b3" x="254.536497" y="257.11757" style="fill-opacity: 0.3"/>
     <use xlink:href="#m312611b8b3" x="221.915537" y="226.83053" style="fill-opacity: 0.3"/>
     <use xlink:href="#m312611b8b3" x="203.201834" y="180.30075" style="fill-opacity: 0.3"/>
     <use xlink:href="#m312611b8b3" x="242.583621" y="224.167722" style="fill-opacity: 0.3"/>
     <use xlink:href="#m312611b8b3" x="209.248168" y="266.668737" style="fill-opacity: 0.3"/>
     <use xlink:href="#m312611b8b3" x="256.92551" y="260.245515" style="fill-opacity: 0.3"/>
     <use xlink:href="#m312611b8b3" x="238.453526" y="261.398854" style="fill-opacity: 0.3"/>
     <use xlink:href="#m312611b8b3" x="248.476246" y="261.479584" style="fill-opacity: 0.3"/>
     <use xlink:href="#m312611b8b3" x="218.710952" y="233.830882" style="fill-opacity: 0.3"/>
     <use xlink:href="#m312611b8b3" x="255.237159" y="234.162409" style="fill-opacity: 0.3"/>
     <use xlink:href="#m312611b8b3" x="243.606832" y="221.420398" style="fill-opacity: 0.3"/>
     <use xlink:href="#m312611b8b3" x="202.013201" y="204.681351" style="fill-opacity: 0.3"/>
     <use xlink:href="#m312611b8b3" x="224.0234" y="254.086535" style="fill-opacity: 0.3"/>
     <use xlink:href="#m312611b8b3" x="206.417178" y="234.90064" style="fill-opacity: 0.3"/>
     <use xlink:href="#m312611b8b3" x="202.656472" y="223.923433" style="fill-opacity: 0.3"/>
     <use xlink:href="#m312611b8b3" x="241.532203" y="253.211232" style="fill-opacity: 0.3"/>
     <use xlink:href="#m312611b8b3" x="202.370007" y="268.114063" style="fill-opacity: 0.3"/>
     <use xlink:href="#m312611b8b3" x="235.159823" y="247.113289" style="fill-opacity: 0.3"/>
     <use xlink:href="#m312611b8b3" x="250.497325" y="245.627831" style="fill-opacity: 0.3"/>
     <use xlink:href="#m312611b8b3" x="243.550036" y="232.503656" style="fill-opacity: 0.3"/>
     <use xlink:href="#m312611b8b3" x="235.861447" y="257.366738" style="fill-opacity: 0.3"/>
     <use xlink:href="#m312611b8b3" x="255.148885" y="260.985711" style="fill-opacity: 0.3"/>
     <use xlink:href="#m312611b8b3" x="241.44463" y="258.243858" style="fill-opacity: 0.3"/>
     <use xlink:href="#m312611b8b3" x="230.092722" y="257.846744" style="fill-opacity: 0.3"/>
     <use xlink:href="#m312611b8b3" x="213.2611" y="232.096199" style="fill-opacity: 0.3"/>
     <use xlink:href="#m312611b8b3" x="209.013714" y="256.857134" style="fill-opacity: 0.3"/>
     <use xlink:href="#m312611b8b3" x="235.358523" y="266.257775" style="fill-opacity: 0.3"/>
     <use xlink:href="#m312611b8b3" x="219.925616" y="253.315846" style="fill-opacity: 0.3"/>
     <use xlink:href="#m312611b8b3" x="224.301527" y="251.346692" style="fill-opacity: 0.3"/>
     <use xlink:href="#m312611b8b3" x="213.087322" y="270.502519" style="fill-opacity: 0.3"/>
     <use xlink:href="#m312611b8b3" x="203.02402" y="244.256618" style="fill-opacity: 0.3"/>
     <use xlink:href="#m312611b8b3" x="226.924917" y="240.348464" style="fill-opacity: 0.3"/>
     <use xlink:href="#m312611b8b3" x="219.681568" y="256.795609" style="fill-opacity: 0.3"/>
     <use xlink:href="#m312611b8b3" x="226.911735" y="242.899874" style="fill-opacity: 0.3"/>
     <use xlink:href="#m312611b8b3" x="228.995507" y="269.133279" style="fill-opacity: 0.3"/>
     <use xlink:href="#m312611b8b3" x="241.865636" y="262.265847" style="fill-opacity: 0.3"/>
     <use xlink:href="#m312611b8b3" x="246.503513" y="261.782364" style="fill-opacity: 0.3"/>
     <use xlink:href="#m312611b8b3" x="211.541731" y="249.377882" style="fill-opacity: 0.3"/>
     <use xlink:href="#m312611b8b3" x="256.040747" y="252.048081" style="fill-opacity: 0.3"/>
     <use xlink:href="#m312611b8b3" x="226.508114" y="235.422509" style="fill-opacity: 0.3"/>
     <use xlink:href="#m312611b8b3" x="215.433494" y="255.90195" style="fill-opacity: 0.3"/>
     <use xlink:href="#m312611b8b3" x="207.333204" y="247.951382" style="fill-opacity: 0.3"/>
     <use xlink:href="#m312611b8b3" x="233.155384" y="209.028538" style="fill-opacity: 0.3"/>
     <use xlink:href="#m312611b8b3" x="228.615916" y="257.733415" style="fill-opacity: 0.3"/>
     <use xlink:href="#m312611b8b3" x="221.012479" y="264.843354" style="fill-opacity: 0.3"/>
     <use xlink:href="#m312611b8b3" x="229.406175" y="242.069651" style="fill-opacity: 0.3"/>
     <use xlink:href="#m312611b8b3" x="216.009121" y="237.670982" style="fill-opacity: 0.3"/>
     <use xlink:href="#m312611b8b3" x="257.200738" y="210.114369" style="fill-opacity: 0.3"/>
     <use xlink:href="#m312611b8b3" x="228.324241" y="167.898169" style="fill-opacity: 0.3"/>
     <use xlink:href="#m312611b8b3" x="205.657454" y="154.845822" style="fill-opacity: 0.3"/>
     <use xlink:href="#m312611b8b3" x="215.04726" y="233.778692" style="fill-opacity: 0.3"/>
     <use xlink:href="#m312611b8b3" x="223.871198" y="257.880702" style="fill-opacity: 0.3"/>
     <use xlink:href="#m312611b8b3" x="216.490466" y="258.922859" style="fill-opacity: 0.3"/>
     <use xlink:href="#m312611b8b3" x="231.392705" y="260.559047" style="fill-opacity: 0.3"/>
     <use xlink:href="#m312611b8b3" x="216.187953" y="240.662341" style="fill-opacity: 0.3"/>
     <use xlink:href="#m312611b8b3" x="234.195457" y="225.55561" style="fill-opacity: 0.3"/>
     <use xlink:href="#m312611b8b3" x="245.568731" y="261.350054" style="fill-opacity: 0.3"/>
     <use xlink:href="#m312611b8b3" x="221.908944" y="256.513609" style="fill-opacity: 0.3"/>
     <use xlink:href="#m312611b8b3" x="233.146783" y="264.495872" style="fill-opacity: 0.3"/>
     <use xlink:href="#m312611b8b3" x="243.998795" y="231.346469" style="fill-opacity: 0.3"/>
     <use xlink:href="#m312611b8b3" x="224.132805" y="219.540427" style="fill-opacity: 0.3"/>
    </g>
   </g>
   <g id="PathCollection_2">
    <g clip-path="url(#pefe231dc5f)">
     <use xlink:href="#m312611b8b3" x="511.170692" y="240.521303" style="fill-opacity: 0.3"/>
     <use xlink:href="#m312611b8b3" x="507.731973" y="243.453516" style="fill-opacity: 0.3"/>
     <use xlink:href="#m312611b8b3" x="491.141673" y="240.971114" style="fill-opacity: 0.3"/>
     <use xlink:href="#m312611b8b3" x="499.264912" y="244.137868" style="fill-opacity: 0.3"/>
     <use xlink:href="#m312611b8b3" x="506.353343" y="232.046884" style="fill-opacity: 0.3"/>
     <use xlink:href="#m312611b8b3" x="535.573894" y="228.653294" style="fill-opacity: 0.3"/>
     <use xlink:href="#m312611b8b3" x="483.475011" y="227.855776" style="fill-opacity: 0.3"/>
     <use xlink:href="#m312611b8b3" x="501.250188" y="211.076178" style="fill-opacity: 0.3"/>
     <use xlink:href="#m312611b8b3" x="519.539269" y="206.210558" style="fill-opacity: 0.3"/>
     <use xlink:href="#m312611b8b3" x="486.202791" y="199.608755" style="fill-opacity: 0.3"/>
     <use xlink:href="#m312611b8b3" x="486.256462" y="228.20396" style="fill-opacity: 0.3"/>
     <use xlink:href="#m312611b8b3" x="490.313017" y="207.387225" style="fill-opacity: 0.3"/>
     <use xlink:href="#m312611b8b3" x="484.311537" y="205.900713" style="fill-opacity: 0.3"/>
     <use xlink:href="#m312611b8b3" x="503.970899" y="215.209989" style="fill-opacity: 0.3"/>
     <use xlink:href="#m312611b8b3" x="485.3099" y="222.447405" style="fill-opacity: 0.3"/>
     <use xlink:href="#m312611b8b3" x="513.184882" y="227.774771" style="fill-opacity: 0.3"/>
     <use xlink:href="#m312611b8b3" x="501.180995" y="241.301718" style="fill-opacity: 0.3"/>
     <use xlink:href="#m312611b8b3" x="503.395744" y="230.630161" style="fill-opacity: 0.3"/>
     <use xlink:href="#m312611b8b3" x="517.626405" y="236.949368" style="fill-opacity: 0.3"/>
     <use xlink:href="#m312611b8b3" x="522.794587" y="240.573465" style="fill-opacity: 0.3"/>
     <use xlink:href="#m312611b8b3" x="495.487823" y="248.725302" style="fill-opacity: 0.3"/>
     <use xlink:href="#m312611b8b3" x="530.40896" y="248.561926" style="fill-opacity: 0.3"/>
     <use xlink:href="#m312611b8b3" x="481.522829" y="238.52584" style="fill-opacity: 0.3"/>
     <use xlink:href="#m312611b8b3" x="526.1181" y="254.648798" style="fill-opacity: 0.3"/>
     <use xlink:href="#m312611b8b3" x="508.361329" y="241.98504" style="fill-opacity: 0.3"/>
     <use xlink:href="#m312611b8b3" x="513.824257" y="248.37943" style="fill-opacity: 0.3"/>
     <use xlink:href="#m312611b8b3" x="496.829942" y="252.233611" style="fill-opacity: 0.3"/>
     <use xlink:href="#m312611b8b3" x="492.865" y="249.705016" style="fill-opacity: 0.3"/>
     <use xlink:href="#m312611b8b3" x="490.875327" y="241.833667" style="fill-opacity: 0.3"/>
     <use xlink:href="#m312611b8b3" x="499.859089" y="242.320815" style="fill-opacity: 0.3"/>
     <use xlink:href="#m312611b8b3" x="517.034274" y="254.348939" style="fill-opacity: 0.3"/>
     <use xlink:href="#m312611b8b3" x="530.764286" y="236.137718" style="fill-opacity: 0.3"/>
     <use xlink:href="#m312611b8b3" x="526.254737" y="233.321495" style="fill-opacity: 0.3"/>
     <use xlink:href="#m312611b8b3" x="509.350634" y="246.292781" style="fill-opacity: 0.3"/>
     <use xlink:href="#m312611b8b3" x="534.538963" y="259.211356" style="fill-opacity: 0.3"/>
     <use xlink:href="#m312611b8b3" x="511.571388" y="257.626462" style="fill-opacity: 0.3"/>
     <use xlink:href="#m312611b8b3" x="505.4786" y="255.87301" style="fill-opacity: 0.3"/>
     <use xlink:href="#m312611b8b3" x="498.440297" y="269.60502" style="fill-opacity: 0.3"/>
     <use xlink:href="#m312611b8b3" x="484.567873" y="269.684718" style="fill-opacity: 0.3"/>
     <use xlink:href="#m312611b8b3" x="506.827907" y="201.847341" style="fill-opacity: 0.3"/>
     <use xlink:href="#m312611b8b3" x="492.843294" y="200.185705" style="fill-opacity: 0.3"/>
     <use xlink:href="#m312611b8b3" x="535.966915" y="193.922247" style="fill-opacity: 0.3"/>
     <use xlink:href="#m312611b8b3" x="529.071986" y="151.681715" style="fill-opacity: 0.3"/>
     <use xlink:href="#m312611b8b3" x="502.67815" y="278.812807" style="fill-opacity: 0.3"/>
     <use xlink:href="#m312611b8b3" x="492.490054" y="280.201617" style="fill-opacity: 0.3"/>
     <use xlink:href="#m312611b8b3" x="505.623827" y="280.781343" style="fill-opacity: 0.3"/>
     <use xlink:href="#m312611b8b3" x="535.660503" y="278.871656" style="fill-opacity: 0.3"/>
     <use xlink:href="#m312611b8b3" x="522.014925" y="277.900471" style="fill-opacity: 0.3"/>
     <use xlink:href="#m312611b8b3" x="487.608329" y="275.829057" style="fill-opacity: 0.3"/>
     <use xlink:href="#m312611b8b3" x="487.615495" y="276.737304" style="fill-opacity: 0.3"/>
     <use xlink:href="#m312611b8b3" x="518.301977" y="275.360144" style="fill-opacity: 0.3"/>
     <use xlink:href="#m312611b8b3" x="526.141239" y="276.971267" style="fill-opacity: 0.3"/>
     <use xlink:href="#m312611b8b3" x="490.066522" y="224.311011" style="fill-opacity: 0.3"/>
     <use xlink:href="#m312611b8b3" x="504.039183" y="133.676682" style="fill-opacity: 0.3"/>
     <use xlink:href="#m312611b8b3" x="536.078223" y="104.773432" style="fill-opacity: 0.3"/>
     <use xlink:href="#m312611b8b3" x="486.17712" y="168.859122" style="fill-opacity: 0.3"/>
     <use xlink:href="#m312611b8b3" x="522.839776" y="162.947631" style="fill-opacity: 0.3"/>
     <use xlink:href="#m312611b8b3" x="525.960723" y="82.53789" style="fill-opacity: 0.3"/>
     <use xlink:href="#m312611b8b3" x="482.314732" y="183.109922" style="fill-opacity: 0.3"/>
     <use xlink:href="#m312611b8b3" x="492.929215" y="200.115593" style="fill-opacity: 0.3"/>
     <use xlink:href="#m312611b8b3" x="488.127304" y="193.942063" style="fill-opacity: 0.3"/>
     <use xlink:href="#m312611b8b3" x="513.260528" y="219.523319" style="fill-opacity: 0.3"/>
     <use xlink:href="#m312611b8b3" x="513.662873" y="219.644051" style="fill-opacity: 0.3"/>
     <use xlink:href="#m312611b8b3" x="522.978493" y="222.132469" style="fill-opacity: 0.3"/>
     <use xlink:href="#m312611b8b3" x="509.078735" y="224.279538" style="fill-opacity: 0.3"/>
     <use xlink:href="#m312611b8b3" x="481.621764" y="230.357189" style="fill-opacity: 0.3"/>
     <use xlink:href="#m312611b8b3" x="502.683771" y="221.105823" style="fill-opacity: 0.3"/>
     <use xlink:href="#m312611b8b3" x="528.855837" y="237.455342" style="fill-opacity: 0.3"/>
     <use xlink:href="#m312611b8b3" x="488.269665" y="230.967557" style="fill-opacity: 0.3"/>
     <use xlink:href="#m312611b8b3" x="512.623384" y="243.971517" style="fill-opacity: 0.3"/>
     <use xlink:href="#m312611b8b3" x="518.673576" y="243.144368" style="fill-opacity: 0.3"/>
     <use xlink:href="#m312611b8b3" x="490.343674" y="235.231539" style="fill-opacity: 0.3"/>
     <use xlink:href="#m312611b8b3" x="506.701093" y="220.491001" style="fill-opacity: 0.3"/>
     <use xlink:href="#m312611b8b3" x="529.394234" y="215.290524" style="fill-opacity: 0.3"/>
     <use xlink:href="#m312611b8b3" x="482.247427" y="229.976319" style="fill-opacity: 0.3"/>
     <use xlink:href="#m312611b8b3" x="515.182345" y="237.465188" style="fill-opacity: 0.3"/>
     <use xlink:href="#m312611b8b3" x="489.321411" y="233.647306" style="fill-opacity: 0.3"/>
     <use xlink:href="#m312611b8b3" x="493.68665" y="238.676335" style="fill-opacity: 0.3"/>
     <use xlink:href="#m312611b8b3" x="504.041494" y="235.409506" style="fill-opacity: 0.3"/>
     <use xlink:href="#m312611b8b3" x="488.053618" y="254.655225" style="fill-opacity: 0.3"/>
     <use xlink:href="#m312611b8b3" x="514.297089" y="235.664119" style="fill-opacity: 0.3"/>
     <use xlink:href="#m312611b8b3" x="531.104056" y="229.263716" style="fill-opacity: 0.3"/>
     <use xlink:href="#m312611b8b3" x="510.238491" y="266.443113" style="fill-opacity: 0.3"/>
     <use xlink:href="#m312611b8b3" x="532.138823" y="266.354611" style="fill-opacity: 0.3"/>
     <use xlink:href="#m312611b8b3" x="503.321729" y="274.970314" style="fill-opacity: 0.3"/>
     <use xlink:href="#m312611b8b3" x="515.054295" y="270.353641" style="fill-opacity: 0.3"/>
     <use xlink:href="#m312611b8b3" x="506.907781" y="266.29149" style="fill-opacity: 0.3"/>
     <use xlink:href="#m312611b8b3" x="531.761747" y="275.464384" style="fill-opacity: 0.3"/>
     <use xlink:href="#m312611b8b3" x="510.387735" y="227.589643" style="fill-opacity: 0.3"/>
     <use xlink:href="#m312611b8b3" x="533.042356" y="229.227775" style="fill-opacity: 0.3"/>
     <use xlink:href="#m312611b8b3" x="501.434405" y="222.411283" style="fill-opacity: 0.3"/>
     <use xlink:href="#m312611b8b3" x="535.408352" y="233.053952" style="fill-opacity: 0.3"/>
     <use xlink:href="#m312611b8b3" x="526.675947" y="240.76044" style="fill-opacity: 0.3"/>
     <use xlink:href="#m312611b8b3" x="527.239783" y="228.084972" style="fill-opacity: 0.3"/>
     <use xlink:href="#m312611b8b3" x="523.289513" y="240.918903" style="fill-opacity: 0.3"/>
     <use xlink:href="#m312611b8b3" x="532.147898" y="243.836412" style="fill-opacity: 0.3"/>
     <use xlink:href="#m312611b8b3" x="502.249863" y="249.359229" style="fill-opacity: 0.3"/>
     <use xlink:href="#m312611b8b3" x="518.605929" y="274.106654" style="fill-opacity: 0.3"/>
     <use xlink:href="#m312611b8b3" x="519.083588" y="273.366317" style="fill-opacity: 0.3"/>
     <use xlink:href="#m312611b8b3" x="515.150514" y="256.671758" style="fill-opacity: 0.3"/>
     <use xlink:href="#m312611b8b3" x="497.177568" y="274.201751" style="fill-opacity: 0.3"/>
     <use xlink:href="#m312611b8b3" x="506.142474" y="273.490555" style="fill-opacity: 0.3"/>
     <use xlink:href="#m312611b8b3" x="505.743214" y="274.503381" style="fill-opacity: 0.3"/>
     <use xlink:href="#m312611b8b3" x="517.086172" y="270.933285" style="fill-opacity: 0.3"/>
     <use xlink:href="#m312611b8b3" x="491.318727" y="273.773014" style="fill-opacity: 0.3"/>
     <use xlink:href="#m312611b8b3" x="513.487285" y="272.753796" style="fill-opacity: 0.3"/>
     <use xlink:href="#m312611b8b3" x="491.042761" y="267.331912" style="fill-opacity: 0.3"/>
     <use xlink:href="#m312611b8b3" x="526.715621" y="255.770031" style="fill-opacity: 0.3"/>
     <use xlink:href="#m312611b8b3" x="510.06097" y="266.80965" style="fill-opacity: 0.3"/>
     <use xlink:href="#m312611b8b3" x="518.07539" y="262.480127" style="fill-opacity: 0.3"/>
     <use xlink:href="#m312611b8b3" x="497.791379" y="264.356607" style="fill-opacity: 0.3"/>
     <use xlink:href="#m312611b8b3" x="524.712853" y="262.280984" style="fill-opacity: 0.3"/>
     <use xlink:href="#m312611b8b3" x="523.972116" y="281.06211" style="fill-opacity: 0.3"/>
     <use xlink:href="#m312611b8b3" x="501.388904" y="278.337819" style="fill-opacity: 0.3"/>
     <use xlink:href="#m312611b8b3" x="487.782214" y="276.296308" style="fill-opacity: 0.3"/>
     <use xlink:href="#m312611b8b3" x="515.863128" y="274.472423" style="fill-opacity: 0.3"/>
    </g>
   </g>
  </g>
 </g>
 <defs>
  <clipPath id="pefe231dc5f">
   <rect x="90" y="43.2" width="558" height="277.2"/>
  </clipPath>
 </defs>
</svg>
