<?xml version="1.0" encoding="utf-8" standalone="no"?>
<!DOCTYPE svg PUBLIC "-//W3C//DTD SVG 1.1//EN"
  "http://www.w3.org/Graphics/SVG/1.1/DTD/svg11.dtd">
<svg xmlns:xlink="http://www.w3.org/1999/xlink" width="720pt" height="360pt" viewBox="0 0 720 360" xmlns="http://www.w3.org/2000/svg" version="1.1">
 <metadata>
  <rdf:RDF xmlns:dc="http://purl.org/dc/elements/1.1/" xmlns:cc="http://creativecommons.org/ns#" xmlns:rdf="http://www.w3.org/1999/02/22-rdf-syntax-ns#">
   <cc:Work>
    <dc:type rdf:resource="http://purl.org/dc/dcmitype/StillImage"/>
    <dc:date>2025-10-21T16:47:41.128722</dc:date>
    <dc:format>image/svg+xml</dc:format>
    <dc:creator>
     <cc:Agent>
      <dc:title>Matplotlib v3.10.3, https://matplotlib.org/</dc:title>
     </cc:Agent>
    </dc:creator>
   </cc:Work>
  </rdf:RDF>
 </metadata>
 <defs>
  <style type="text/css">*{stroke-linejoin: round; stroke-linecap: butt}</style>
 </defs>
 <g id="figure_1">
  <g id="patch_1">
   <path d="M 0 360 
L 720 360 
L 720 0 
L 0 0 
z
" style="fill: #ffffff"/>
  </g>
  <g id="axes_1">
   <g id="patch_2">
    <path d="M 90 320.4 
L 648 320.4 
L 648 43.2 
L 90 43.2 
z
" style="fill: #ffffff"/>
   </g>
   <g id="FillBetweenPolyCollection_1">
    <defs>
     <path id="m68834e56b5" d="M 231.101422 -52.2 
L 227.898578 -52.2 
L 227.384992 -54.745455 
L 226.764248 -57.290909 
L 226.03423 -59.836364 
L 225.199874 -62.381818 
L 224.274583 -64.927273 
L 223.281019 -67.472727 
L 222.251037 -70.018182 
L 221.224563 -72.563636 
L 220.247388 -75.109091 
L 219.367976 -77.654545 
L 218.633581 -80.2 
L 218.086072 -82.745455 
L 217.757997 -85.290909 
L 217.669376 -87.836364 
L 217.825682 -90.381818 
L 218.217279 -92.927273 
L 218.82041 -95.472727 
L 219.599574 -98.018182 
L 220.510989 -100.563636 
L 221.506646 -103.109091 
L 222.538441 -105.654545 
L 223.561908 -108.2 
L 224.539141 -110.745455 
L 225.440689 -113.290909 
L 226.24634 -115.836364 
L 226.944882 -118.381818 
L 227.533026 -120.927273 
L 228.013746 -123.472727 
L 228.394308 -126.018182 
L 228.684188 -128.563636 
L 228.893081 -131.109091 
L 229.029071 -133.654545 
L 229.097001 -136.2 
L 229.09705 -138.745455 
L 229.023482 -141.290909 
L 228.863576 -143.836364 
L 228.5968 -146.381818 
L 228.194327 -148.927273 
L 227.61911 -151.472727 
L 226.826731 -154.018182 
L 225.767312 -156.563636 
L 224.388687 -159.109091 
L 222.640945 -161.654545 
L 220.482245 -164.2 
L 217.885553 -166.745455 
L 214.845658 -169.290909 
L 211.385564 -171.836364 
L 207.561167 -174.381818 
L 203.463133 -176.927273 
L 199.215026 -179.472727 
L 194.967189 -182.018182 
L 190.886402 -184.563636 
L 187.142107 -187.109091 
L 183.890585 -189.654545 
L 181.259069 -192.2 
L 179.331989 -194.745455 
L 178.141406 -197.290909 
L 177.663237 -199.836364 
L 177.81996 -202.381818 
L 178.489535 -204.927273 
L 179.519177 -207.472727 
L 180.741815 -210.018182 
L 181.992608 -212.563636 
L 183.122867 -215.109091 
L 184.00929 -217.654545 
L 184.557311 -220.2 
L 184.698568 -222.745455 
L 184.383694 -225.290909 
L 183.572649 -227.836364 
L 182.225389 -230.381818 
L 180.295727 -232.927273 
L 177.730674 -235.472727 
L 174.4765 -238.018182 
L 170.491325 -240.563636 
L 165.762574 -243.109091 
L 160.32629 -245.654545 
L 154.284511 -248.2 
L 147.816711 -250.745455 
L 141.181921 -253.290909 
L 134.709469 -255.836364 
L 128.778048 -258.381818 
L 123.784883 -260.927273 
L 120.108565 -263.472727 
L 118.070448 -266.018182 
L 117.9 -268.563636 
L 119.709069 -271.109091 
L 123.478764 -273.654545 
L 129.060742 -276.2 
L 136.192507 -278.745455 
L 144.524291 -281.290909 
L 153.653549 -283.836364 
L 163.162257 -286.381818 
L 172.652241 -288.927273 
L 181.774541 -291.472727 
L 190.250074 -294.018182 
L 197.880457 -296.563636 
L 204.549313 -299.109091 
L 210.215591 -301.654545 
L 214.901199 -304.2 
L 244.098801 -304.2 
L 244.098801 -304.2 
L 248.784409 -301.654545 
L 254.450687 -299.109091 
L 261.119543 -296.563636 
L 268.749926 -294.018182 
L 277.225459 -291.472727 
L 286.347759 -288.927273 
L 295.837743 -286.381818 
L 305.346451 -283.836364 
L 314.475709 -281.290909 
L 322.807493 -278.745455 
L 329.939258 -276.2 
L 335.521236 -273.654545 
L 339.290931 -271.109091 
L 341.1 -268.563636 
L 340.929552 -266.018182 
L 338.891435 -263.472727 
L 335.215117 -260.927273 
L 330.221952 -258.381818 
L 324.290531 -255.836364 
L 317.818079 -253.290909 
L 311.183289 -250.745455 
L 304.715489 -248.2 
L 298.67371 -245.654545 
L 293.237426 -243.109091 
L 288.508675 -240.563636 
L 284.5235 -238.018182 
L 281.269326 -235.472727 
L 278.704273 -232.927273 
L 276.774611 -230.381818 
L 275.427351 -227.836364 
L 274.616306 -225.290909 
L 274.301432 -222.745455 
L 274.442689 -220.2 
L 274.99071 -217.654545 
L 275.877133 -215.109091 
L 277.007392 -212.563636 
L 278.258185 -210.018182 
L 279.480823 -207.472727 
L 280.510465 -204.927273 
L 281.18004 -202.381818 
L 281.336763 -199.836364 
L 280.858594 -197.290909 
L 279.668011 -194.745455 
L 277.740931 -192.2 
L 275.109415 -189.654545 
L 271.857893 -187.109091 
L 268.113598 -184.563636 
L 264.032811 -182.018182 
L 259.784974 -179.472727 
L 255.536867 -176.927273 
L 251.438833 -174.381818 
L 247.614436 -171.836364 
L 244.154342 -169.290909 
L 241.114447 -166.745455 
L 238.517755 -164.2 
L 236.359055 -161.654545 
L 234.611313 -159.109091 
L 233.232688 -156.563636 
L 232.173269 -154.018182 
L 231.38089 -151.472727 
L 230.805673 -148.927273 
L 230.4032 -146.381818 
L 230.136424 -143.836364 
L 229.976518 -141.290909 
L 229.90295 -138.745455 
L 229.902999 -136.2 
L 229.970929 -133.654545 
L 230.106919 -131.109091 
L 230.315812 -128.563636 
L 230.605692 -126.018182 
L 230.986254 -123.472727 
L 231.466974 -120.927273 
L 232.055118 -118.381818 
L 232.75366 -115.836364 
L 233.559311 -113.290909 
L 234.460859 -110.745455 
L 235.438092 -108.2 
L 236.461559 -105.654545 
L 237.493354 -103.109091 
L 238.489011 -100.563636 
L 239.400426 -98.018182 
L 240.17959 -95.472727 
L 240.782721 -92.927273 
L 241.174318 -90.381818 
L 241.330624 -87.836364 
L 241.242003 -85.290909 
L 240.913928 -82.745455 
L 240.366419 -80.2 
L 239.632024 -77.654545 
L 238.752612 -75.109091 
L 237.775437 -72.563636 
L 236.748963 -70.018182 
L 235.718981 -67.472727 
L 234.725417 -64.927273 
L 233.800126 -62.381818 
L 232.96577 -59.836364 
L 232.235752 -57.290909 
L 231.615008 -54.745455 
L 231.101422 -52.2 
z
" style="stroke: #3f3f3f; stroke-width: 1.25"/>
    </defs>
    <g clip-path="url(#p2341770160)">
     <use xlink:href="#m68834e56b5" x="0" y="360" style="fill: #3274a1; stroke: #3f3f3f; stroke-width: 1.25"/>
    </g>
   </g>
   <g id="FillBetweenPolyCollection_2">
    <defs>
     <path id="m4963160dde" d="M 509.595783 -53.747631 
L 507.404217 -53.747631 
L 507.039954 -56.261821 
L 506.597345 -58.77601 
L 506.075039 -61.290199 
L 505.477261 -63.804389 
L 504.814912 -66.318578 
L 504.106139 -68.832767 
L 503.376155 -71.346956 
L 502.656178 -73.861146 
L 501.981477 -76.375335 
L 501.38864 -78.889524 
L 500.912348 -81.403713 
L 500.582038 -83.917903 
L 500.418896 -86.432092 
L 500.43361 -88.946281 
L 500.625209 -91.46047 
L 500.981173 -93.97466 
L 501.478782 -96.488849 
L 502.087517 -99.003038 
L 502.772152 -101.517227 
L 503.4961 -104.031417 
L 504.224579 -106.545606 
L 504.927231 -109.059795 
L 505.579923 -111.573985 
L 506.165647 -114.088174 
L 506.674539 -116.602363 
L 507.103163 -119.116552 
L 507.453273 -121.630742 
L 507.730267 -124.144931 
L 507.941549 -126.65912 
L 508.094912 -129.173309 
L 508.197031 -131.687499 
L 508.252069 -134.201688 
L 508.260335 -136.715877 
L 508.216944 -139.230066 
L 508.110405 -141.744256 
L 507.921154 -144.258445 
L 507.620094 -146.772634 
L 507.167337 -149.286823 
L 506.511458 -151.801013 
L 505.589696 -154.315202 
L 504.329562 -156.829391 
L 502.65235 -159.343581 
L 500.478865 -161.85777 
L 497.737438 -164.371959 
L 494.373886 -166.886148 
L 490.362583 -169.400338 
L 485.717277 -171.914527 
L 480.499928 -174.428716 
L 474.825604 -176.942905 
L 468.861673 -179.457095 
L 462.820062 -181.971284 
L 456.942304 -184.485473 
L 451.478299 -186.999662 
L 446.660973 -189.513852 
L 442.680128 -192.028041 
L 439.659343 -194.54223 
L 437.639816 -197.056419 
L 436.574201 -199.570609 
L 436.332115 -202.084798 
L 436.71704 -204.598987 
L 437.492417 -207.113177 
L 438.412971 -209.627366 
L 439.256251 -212.141555 
L 439.849168 -214.655744 
L 440.085082 -217.169934 
L 439.928607 -219.684123 
L 439.407507 -222.198312 
L 438.593424 -224.712501 
L 437.575318 -227.226691 
L 436.430932 -229.74088 
L 435.202091 -232.255069 
L 433.879072 -234.769258 
L 432.397662 -237.283448 
L 430.650204 -239.797637 
L 428.509251 -242.311826 
L 425.859915 -244.826015 
L 422.63514 -247.340205 
L 418.847195 -249.854394 
L 414.609032 -252.368583 
L 410.140665 -254.882773 
L 405.758193 -257.396962 
L 401.846076 -259.911151 
L 398.816244 -262.42534 
L 397.059997 -264.93953 
L 396.9 -267.453719 
L 398.549704 -269.967908 
L 402.086279 -272.482097 
L 407.440842 -274.996287 
L 414.406872 -277.510476 
L 422.664801 -280.024665 
L 431.818392 -282.538854 
L 441.437062 -285.053044 
L 451.097955 -287.567233 
L 460.422321 -290.081422 
L 469.102288 -292.595611 
L 476.916068 -295.109801 
L 483.73164 -297.62399 
L 489.50055 -300.138179 
L 494.244557 -302.652369 
L 522.755443 -302.652369 
L 522.755443 -302.652369 
L 527.49945 -300.138179 
L 533.26836 -297.62399 
L 540.083932 -295.109801 
L 547.897712 -292.595611 
L 556.577679 -290.081422 
L 565.902045 -287.567233 
L 575.562938 -285.053044 
L 585.181608 -282.538854 
L 594.335199 -280.024665 
L 602.593128 -277.510476 
L 609.559158 -274.996287 
L 614.913721 -272.482097 
L 618.450296 -269.967908 
L 620.1 -267.453719 
L 619.940003 -264.93953 
L 618.183756 -262.42534 
L 615.153924 -259.911151 
L 611.241807 -257.396962 
L 606.859335 -254.882773 
L 602.390968 -252.368583 
L 598.152805 -249.854394 
L 594.36486 -247.340205 
L 591.140085 -244.826015 
L 588.490749 -242.311826 
L 586.349796 -239.797637 
L 584.602338 -237.283448 
L 583.120928 -234.769258 
L 581.797909 -232.255069 
L 580.569068 -229.74088 
L 579.424682 -227.226691 
L 578.406576 -224.712501 
L 577.592493 -222.198312 
L 577.071393 -219.684123 
L 576.914918 -217.169934 
L 577.150832 -214.655744 
L 577.743749 -212.141555 
L 578.587029 -209.627366 
L 579.507583 -207.113177 
L 580.28296 -204.598987 
L 580.667885 -202.084798 
L 580.425799 -199.570609 
L 579.360184 -197.056419 
L 577.340657 -194.54223 
L 574.319872 -192.028041 
L 570.339027 -189.513852 
L 565.521701 -186.999662 
L 560.057696 -184.485473 
L 554.179938 -181.971284 
L 548.138327 -179.457095 
L 542.174396 -176.942905 
L 536.500072 -174.428716 
L 531.282723 -171.914527 
L 526.637417 -169.400338 
L 522.626114 -166.886148 
L 519.262562 -164.371959 
L 516.521135 -161.85777 
L 514.34765 -159.343581 
L 512.670438 -156.829391 
L 511.410304 -154.315202 
L 510.488542 -151.801013 
L 509.832663 -149.286823 
L 509.379906 -146.772634 
L 509.078846 -144.258445 
L 508.889595 -141.744256 
L 508.783056 -139.230066 
L 508.739665 -136.715877 
L 508.747931 -134.201688 
L 508.802969 -131.687499 
L 508.905088 -129.173309 
L 509.058451 -126.65912 
L 509.269733 -124.144931 
L 509.546727 -121.630742 
L 509.896837 -119.116552 
L 510.325461 -116.602363 
L 510.834353 -114.088174 
L 511.420077 -111.573985 
L 512.072769 -109.059795 
L 512.775421 -106.545606 
L 513.5039 -104.031417 
L 514.227848 -101.517227 
L 514.912483 -99.003038 
L 515.521218 -96.488849 
L 516.018827 -93.97466 
L 516.374791 -91.46047 
L 516.56639 -88.946281 
L 516.581104 -86.432092 
L 516.417962 -83.917903 
L 516.087652 -81.403713 
L 515.61136 -78.889524 
L 515.018523 -76.375335 
L 514.343822 -73.861146 
L 513.623845 -71.346956 
L 512.893861 -68.832767 
L 512.185088 -66.318578 
L 511.522739 -63.804389 
L 510.924961 -61.290199 
L 510.402655 -58.77601 
L 509.960046 -56.261821 
L 509.595783 -53.747631 
z
" style="stroke: #3f3f3f; stroke-width: 1.25"/>
    </defs>
    <g clip-path="url(#p2341770160)">
     <use xlink:href="#m4963160dde" x="0" y="360" style="fill: #e1812c; stroke: #3f3f3f; stroke-width: 1.25"/>
    </g>
   </g>
   <g id="matplotlib.axis_1">
    <g id="xtick_1">
     <g id="line2d_1">
      <defs>
       <path id="m42745b3dea" d="M 0 0 
L 0 3.5 
" style="stroke: #000000; stroke-width: 0.8"/>
      </defs>
      <g>
       <use xlink:href="#m42745b3dea" x="229.5" y="320.4" style="stroke: #000000; stroke-width: 0.8"/>
      </g>
     </g>
     <g id="text_1">
      <!-- other -->
      <g transform="translate(216.179688 334.998438) scale(0.1 -0.1)">
       <defs>
        <path id="DejaVuSans-6f" d="M 1959 3097 
Q 1497 3097 1228 2736 
Q 959 2375 959 1747 
Q 959 1119 1226 758 
Q 1494 397 1959 397 
Q 2419 397 2687 759 
Q 2956 1122 2956 1747 
Q 2956 2369 2687 2733 
Q 2419 3097 1959 3097 
z
M 1959 3584 
Q 2709 3584 3137 3096 
Q 3566 2609 3566 1747 
Q 3566 888 3137 398 
Q 2709 -91 1959 -91 
Q 1206 -91 779 398 
Q 353 888 353 1747 
Q 353 2609 779 3096 
Q 1206 3584 1959 3584 
z
" transform="scale(0.015625)"/>
        <path id="DejaVuSans-74" d="M 1172 4494 
L 1172 3500 
L 2356 3500 
L 2356 3053 
L 1172 3053 
L 1172 1153 
Q 1172 725 1289 603 
Q 1406 481 1766 481 
L 2356 481 
L 2356 0 
L 1766 0 
Q 1100 0 847 248 
Q 594 497 594 1153 
L 594 3053 
L 172 3053 
L 172 3500 
L 594 3500 
L 594 4494 
L 1172 4494 
z
" transform="scale(0.015625)"/>
        <path id="DejaVuSans-68" d="M 3513 2113 
L 3513 0 
L 2938 0 
L 2938 2094 
Q 2938 2591 2744 2837 
Q 2550 3084 2163 3084 
Q 1697 3084 1428 2787 
Q 1159 2491 1159 1978 
L 1159 0 
L 581 0 
L 581 4863 
L 1159 4863 
L 1159 2956 
Q 1366 3272 1645 3428 
Q 1925 3584 2291 3584 
Q 2894 3584 3203 3211 
Q 3513 2838 3513 2113 
z
" transform="scale(0.015625)"/>
        <path id="DejaVuSans-65" d="M 3597 1894 
L 3597 1613 
L 953 1613 
Q 991 1019 1311 708 
Q 1631 397 2203 397 
Q 2534 397 2845 478 
Q 3156 559 3463 722 
L 3463 178 
Q 3153 47 2828 -22 
Q 2503 -91 2169 -91 
Q 1331 -91 842 396 
Q 353 884 353 1716 
Q 353 2575 817 3079 
Q 1281 3584 2069 3584 
Q 2775 3584 3186 3129 
Q 3597 2675 3597 1894 
z
M 3022 2063 
Q 3016 2534 2758 2815 
Q 2500 3097 2075 3097 
Q 1594 3097 1305 2825 
Q 1016 2553 972 2059 
L 3022 2063 
z
" transform="scale(0.015625)"/>
        <path id="DejaVuSans-72" d="M 2631 2963 
Q 2534 3019 2420 3045 
Q 2306 3072 2169 3072 
Q 1681 3072 1420 2755 
Q 1159 2438 1159 1844 
L 1159 0 
L 581 0 
L 581 3500 
L 1159 3500 
L 1159 2956 
Q 1341 3275 1631 3429 
Q 1922 3584 2338 3584 
Q 2397 3584 2469 3576 
Q 2541 3569 2628 3553 
L 2631 2963 
z
" transform="scale(0.015625)"/>
       </defs>
       <use xlink:href="#DejaVuSans-6f"/>
       <use xlink:href="#DejaVuSans-74" transform="translate(61.181641 0)"/>
       <use xlink:href="#DejaVuSans-68" transform="translate(100.390625 0)"/>
       <use xlink:href="#DejaVuSans-65" transform="translate(163.769531 0)"/>
       <use xlink:href="#DejaVuSans-72" transform="translate(225.292969 0)"/>
      </g>
     </g>
    </g>
    <g id="xtick_2">
     <g id="line2d_2">
      <g>
       <use xlink:href="#m42745b3dea" x="508.5" y="320.4" style="stroke: #000000; stroke-width: 0.8"/>
      </g>
     </g>
     <g id="text_2">
      <!-- Specific -->
      <g transform="translate(489.038281 334.998438) scale(0.1 -0.1)">
       <defs>
        <path id="DejaVuSans-53" d="M 3425 4513 
L 3425 3897 
Q 3066 4069 2747 4153 
Q 2428 4238 2131 4238 
Q 1616 4238 1336 4038 
Q 1056 3838 1056 3469 
Q 1056 3159 1242 3001 
Q 1428 2844 1947 2747 
L 2328 2669 
Q 3034 2534 3370 2195 
Q 3706 1856 3706 1288 
Q 3706 609 3251 259 
Q 2797 -91 1919 -91 
Q 1588 -91 1214 -16 
Q 841 59 441 206 
L 441 856 
Q 825 641 1194 531 
Q 1563 422 1919 422 
Q 2459 422 2753 634 
Q 3047 847 3047 1241 
Q 3047 1584 2836 1778 
Q 2625 1972 2144 2069 
L 1759 2144 
Q 1053 2284 737 2584 
Q 422 2884 422 3419 
Q 422 4038 858 4394 
Q 1294 4750 2059 4750 
Q 2388 4750 2728 4690 
Q 3069 4631 3425 4513 
z
" transform="scale(0.015625)"/>
        <path id="DejaVuSans-70" d="M 1159 525 
L 1159 -1331 
L 581 -1331 
L 581 3500 
L 1159 3500 
L 1159 2969 
Q 1341 3281 1617 3432 
Q 1894 3584 2278 3584 
Q 2916 3584 3314 3078 
Q 3713 2572 3713 1747 
Q 3713 922 3314 415 
Q 2916 -91 2278 -91 
Q 1894 -91 1617 61 
Q 1341 213 1159 525 
z
M 3116 1747 
Q 3116 2381 2855 2742 
Q 2594 3103 2138 3103 
Q 1681 3103 1420 2742 
Q 1159 2381 1159 1747 
Q 1159 1113 1420 752 
Q 1681 391 2138 391 
Q 2594 391 2855 752 
Q 3116 1113 3116 1747 
z
" transform="scale(0.015625)"/>
        <path id="DejaVuSans-63" d="M 3122 3366 
L 3122 2828 
Q 2878 2963 2633 3030 
Q 2388 3097 2138 3097 
Q 1578 3097 1268 2742 
Q 959 2388 959 1747 
Q 959 1106 1268 751 
Q 1578 397 2138 397 
Q 2388 397 2633 464 
Q 2878 531 3122 666 
L 3122 134 
Q 2881 22 2623 -34 
Q 2366 -91 2075 -91 
Q 1284 -91 818 406 
Q 353 903 353 1747 
Q 353 2603 823 3093 
Q 1294 3584 2113 3584 
Q 2378 3584 2631 3529 
Q 2884 3475 3122 3366 
z
" transform="scale(0.015625)"/>
        <path id="DejaVuSans-69" d="M 603 3500 
L 1178 3500 
L 1178 0 
L 603 0 
L 603 3500 
z
M 603 4863 
L 1178 4863 
L 1178 4134 
L 603 4134 
L 603 4863 
z
" transform="scale(0.015625)"/>
        <path id="DejaVuSans-66" d="M 2375 4863 
L 2375 4384 
L 1825 4384 
Q 1516 4384 1395 4259 
Q 1275 4134 1275 3809 
L 1275 3500 
L 2222 3500 
L 2222 3053 
L 1275 3053 
L 1275 0 
L 697 0 
L 697 3053 
L 147 3053 
L 147 3500 
L 697 3500 
L 697 3744 
Q 697 4328 969 4595 
Q 1241 4863 1831 4863 
L 2375 4863 
z
" transform="scale(0.015625)"/>
       </defs>
       <use xlink:href="#DejaVuSans-53"/>
       <use xlink:href="#DejaVuSans-70" transform="translate(63.476562 0)"/>
       <use xlink:href="#DejaVuSans-65" transform="translate(126.953125 0)"/>
       <use xlink:href="#DejaVuSans-63" transform="translate(188.476562 0)"/>
       <use xlink:href="#DejaVuSans-69" transform="translate(243.457031 0)"/>
       <use xlink:href="#DejaVuSans-66" transform="translate(271.240234 0)"/>
       <use xlink:href="#DejaVuSans-69" transform="translate(306.445312 0)"/>
       <use xlink:href="#DejaVuSans-63" transform="translate(334.228516 0)"/>
      </g>
     </g>
    </g>
    <g id="text_3">
     <!-- Connectivity category -->
     <g transform="translate(313.98125 348.676562) scale(0.1 -0.1)">
      <defs>
       <path id="DejaVuSans-43" d="M 4122 4306 
L 4122 3641 
Q 3803 3938 3442 4084 
Q 3081 4231 2675 4231 
Q 1875 4231 1450 3742 
Q 1025 3253 1025 2328 
Q 1025 1406 1450 917 
Q 1875 428 2675 428 
Q 3081 428 3442 575 
Q 3803 722 4122 1019 
L 4122 359 
Q 3791 134 3420 21 
Q 3050 -91 2638 -91 
Q 1578 -91 968 557 
Q 359 1206 359 2328 
Q 359 3453 968 4101 
Q 1578 4750 2638 4750 
Q 3056 4750 3426 4639 
Q 3797 4528 4122 4306 
z
" transform="scale(0.015625)"/>
       <path id="DejaVuSans-6e" d="M 3513 2113 
L 3513 0 
L 2938 0 
L 2938 2094 
Q 2938 2591 2744 2837 
Q 2550 3084 2163 3084 
Q 1697 3084 1428 2787 
Q 1159 2491 1159 1978 
L 1159 0 
L 581 0 
L 581 3500 
L 1159 3500 
L 1159 2956 
Q 1366 3272 1645 3428 
Q 1925 3584 2291 3584 
Q 2894 3584 3203 3211 
Q 3513 2838 3513 2113 
z
" transform="scale(0.015625)"/>
       <path id="DejaVuSans-76" d="M 191 3500 
L 800 3500 
L 1894 563 
L 2988 3500 
L 3597 3500 
L 2284 0 
L 1503 0 
L 191 3500 
z
" transform="scale(0.015625)"/>
       <path id="DejaVuSans-79" d="M 2059 -325 
Q 1816 -950 1584 -1140 
Q 1353 -1331 966 -1331 
L 506 -1331 
L 506 -850 
L 844 -850 
Q 1081 -850 1212 -737 
Q 1344 -625 1503 -206 
L 1606 56 
L 191 3500 
L 800 3500 
L 1894 763 
L 2988 3500 
L 3597 3500 
L 2059 -325 
z
" transform="scale(0.015625)"/>
       <path id="DejaVuSans-20" transform="scale(0.015625)"/>
       <path id="DejaVuSans-61" d="M 2194 1759 
Q 1497 1759 1228 1600 
Q 959 1441 959 1056 
Q 959 750 1161 570 
Q 1363 391 1709 391 
Q 2188 391 2477 730 
Q 2766 1069 2766 1631 
L 2766 1759 
L 2194 1759 
z
M 3341 1997 
L 3341 0 
L 2766 0 
L 2766 531 
Q 2569 213 2275 61 
Q 1981 -91 1556 -91 
Q 1019 -91 701 211 
Q 384 513 384 1019 
Q 384 1609 779 1909 
Q 1175 2209 1959 2209 
L 2766 2209 
L 2766 2266 
Q 2766 2663 2505 2880 
Q 2244 3097 1772 3097 
Q 1472 3097 1187 3025 
Q 903 2953 641 2809 
L 641 3341 
Q 956 3463 1253 3523 
Q 1550 3584 1831 3584 
Q 2591 3584 2966 3190 
Q 3341 2797 3341 1997 
z
" transform="scale(0.015625)"/>
       <path id="DejaVuSans-67" d="M 2906 1791 
Q 2906 2416 2648 2759 
Q 2391 3103 1925 3103 
Q 1463 3103 1205 2759 
Q 947 2416 947 1791 
Q 947 1169 1205 825 
Q 1463 481 1925 481 
Q 2391 481 2648 825 
Q 2906 1169 2906 1791 
z
M 3481 434 
Q 3481 -459 3084 -895 
Q 2688 -1331 1869 -1331 
Q 1566 -1331 1297 -1286 
Q 1028 -1241 775 -1147 
L 775 -588 
Q 1028 -725 1275 -790 
Q 1522 -856 1778 -856 
Q 2344 -856 2625 -561 
Q 2906 -266 2906 331 
L 2906 616 
Q 2728 306 2450 153 
Q 2172 0 1784 0 
Q 1141 0 747 490 
Q 353 981 353 1791 
Q 353 2603 747 3093 
Q 1141 3584 1784 3584 
Q 2172 3584 2450 3431 
Q 2728 3278 2906 2969 
L 2906 3500 
L 3481 3500 
L 3481 434 
z
" transform="scale(0.015625)"/>
      </defs>
      <use xlink:href="#DejaVuSans-43"/>
      <use xlink:href="#DejaVuSans-6f" transform="translate(69.824219 0)"/>
      <use xlink:href="#DejaVuSans-6e" transform="translate(131.005859 0)"/>
      <use xlink:href="#DejaVuSans-6e" transform="translate(194.384766 0)"/>
      <use xlink:href="#DejaVuSans-65" transform="translate(257.763672 0)"/>
      <use xlink:href="#DejaVuSans-63" transform="translate(319.287109 0)"/>
      <use xlink:href="#DejaVuSans-74" transform="translate(374.267578 0)"/>
      <use xlink:href="#DejaVuSans-69" transform="translate(413.476562 0)"/>
      <use xlink:href="#DejaVuSans-76" transform="translate(441.259766 0)"/>
      <use xlink:href="#DejaVuSans-69" transform="translate(500.439453 0)"/>
      <use xlink:href="#DejaVuSans-74" transform="translate(528.222656 0)"/>
      <use xlink:href="#DejaVuSans-79" transform="translate(567.431641 0)"/>
      <use xlink:href="#DejaVuSans-20" transform="translate(626.611328 0)"/>
      <use xlink:href="#DejaVuSans-63" transform="translate(658.398438 0)"/>
      <use xlink:href="#DejaVuSans-61" transform="translate(713.378906 0)"/>
      <use xlink:href="#DejaVuSans-74" transform="translate(774.658203 0)"/>
      <use xlink:href="#DejaVuSans-65" transform="translate(813.867188 0)"/>
      <use xlink:href="#DejaVuSans-67" transform="translate(875.390625 0)"/>
      <use xlink:href="#DejaVuSans-6f" transform="translate(938.867188 0)"/>
      <use xlink:href="#DejaVuSans-72" transform="translate(1000.048828 0)"/>
      <use xlink:href="#DejaVuSans-79" transform="translate(1041.162109 0)"/>
     </g>
    </g>
   </g>
   <g id="matplotlib.axis_2">
    <g id="ytick_1">
     <g id="line2d_3">
      <defs>
       <path id="m3c52d75bbd" d="M 0 0 
L -3.5 0 
" style="stroke: #000000; stroke-width: 0.8"/>
      </defs>
      <g>
       <use xlink:href="#m3c52d75bbd" x="90" y="308.803867" style="stroke: #000000; stroke-width: 0.8"/>
      </g>
     </g>
     <g id="text_4">
      <!-- 3 -->
      <g transform="translate(76.6375 312.603086) scale(0.1 -0.1)">
       <defs>
        <path id="DejaVuSans-33" d="M 2597 2516 
Q 3050 2419 3304 2112 
Q 3559 1806 3559 1356 
Q 3559 666 3084 287 
Q 2609 -91 1734 -91 
Q 1441 -91 1130 -33 
Q 819 25 488 141 
L 488 750 
Q 750 597 1062 519 
Q 1375 441 1716 441 
Q 2309 441 2620 675 
Q 2931 909 2931 1356 
Q 2931 1769 2642 2001 
Q 2353 2234 1838 2234 
L 1294 2234 
L 1294 2753 
L 1863 2753 
Q 2328 2753 2575 2939 
Q 2822 3125 2822 3475 
Q 2822 3834 2567 4026 
Q 2313 4219 1838 4219 
Q 1578 4219 1281 4162 
Q 984 4106 628 3988 
L 628 4550 
Q 988 4650 1302 4700 
Q 1616 4750 1894 4750 
Q 2613 4750 3031 4423 
Q 3450 4097 3450 3541 
Q 3450 3153 3228 2886 
Q 3006 2619 2597 2516 
z
" transform="scale(0.015625)"/>
       </defs>
       <use xlink:href="#DejaVuSans-33"/>
      </g>
     </g>
    </g>
    <g id="ytick_2">
     <g id="line2d_4">
      <g>
       <use xlink:href="#m3c52d75bbd" x="90" y="272.517048" style="stroke: #000000; stroke-width: 0.8"/>
      </g>
     </g>
     <g id="text_5">
      <!-- 4 -->
      <g transform="translate(76.6375 276.316267) scale(0.1 -0.1)">
       <defs>
        <path id="DejaVuSans-34" d="M 2419 4116 
L 825 1625 
L 2419 1625 
L 2419 4116 
z
M 2253 4666 
L 3047 4666 
L 3047 1625 
L 3713 1625 
L 3713 1100 
L 3047 1100 
L 3047 0 
L 2419 0 
L 2419 1100 
L 313 1100 
L 313 1709 
L 2253 4666 
z
" transform="scale(0.015625)"/>
       </defs>
       <use xlink:href="#DejaVuSans-34"/>
      </g>
     </g>
    </g>
    <g id="ytick_3">
     <g id="line2d_5">
      <g>
       <use xlink:href="#m3c52d75bbd" x="90" y="236.230229" style="stroke: #000000; stroke-width: 0.8"/>
      </g>
     </g>
     <g id="text_6">
      <!-- 5 -->
      <g transform="translate(76.6375 240.029448) scale(0.1 -0.1)">
       <defs>
        <path id="DejaVuSans-35" d="M 691 4666 
L 3169 4666 
L 3169 4134 
L 1269 4134 
L 1269 2991 
Q 1406 3038 1543 3061 
Q 1681 3084 1819 3084 
Q 2600 3084 3056 2656 
Q 3513 2228 3513 1497 
Q 3513 744 3044 326 
Q 2575 -91 1722 -91 
Q 1428 -91 1123 -41 
Q 819 9 494 109 
L 494 744 
Q 775 591 1075 516 
Q 1375 441 1709 441 
Q 2250 441 2565 725 
Q 2881 1009 2881 1497 
Q 2881 1984 2565 2268 
Q 2250 2553 1709 2553 
Q 1456 2553 1204 2497 
Q 953 2441 691 2322 
L 691 4666 
z
" transform="scale(0.015625)"/>
       </defs>
       <use xlink:href="#DejaVuSans-35"/>
      </g>
     </g>
    </g>
    <g id="ytick_4">
     <g id="line2d_6">
      <g>
       <use xlink:href="#m3c52d75bbd" x="90" y="199.94341" style="stroke: #000000; stroke-width: 0.8"/>
      </g>
     </g>
     <g id="text_7">
      <!-- 6 -->
      <g transform="translate(76.6375 203.742628) scale(0.1 -0.1)">
       <defs>
        <path id="DejaVuSans-36" d="M 2113 2584 
Q 1688 2584 1439 2293 
Q 1191 2003 1191 1497 
Q 1191 994 1439 701 
Q 1688 409 2113 409 
Q 2538 409 2786 701 
Q 3034 994 3034 1497 
Q 3034 2003 2786 2293 
Q 2538 2584 2113 2584 
z
M 3366 4563 
L 3366 3988 
Q 3128 4100 2886 4159 
Q 2644 4219 2406 4219 
Q 1781 4219 1451 3797 
Q 1122 3375 1075 2522 
Q 1259 2794 1537 2939 
Q 1816 3084 2150 3084 
Q 2853 3084 3261 2657 
Q 3669 2231 3669 1497 
Q 3669 778 3244 343 
Q 2819 -91 2113 -91 
Q 1303 -91 875 529 
Q 447 1150 447 2328 
Q 447 3434 972 4092 
Q 1497 4750 2381 4750 
Q 2619 4750 2861 4703 
Q 3103 4656 3366 4563 
z
" transform="scale(0.015625)"/>
       </defs>
       <use xlink:href="#DejaVuSans-36"/>
      </g>
     </g>
    </g>
    <g id="ytick_5">
     <g id="line2d_7">
      <g>
       <use xlink:href="#m3c52d75bbd" x="90" y="163.65659" style="stroke: #000000; stroke-width: 0.8"/>
      </g>
     </g>
     <g id="text_8">
      <!-- 7 -->
      <g transform="translate(76.6375 167.455809) scale(0.1 -0.1)">
       <defs>
        <path id="DejaVuSans-37" d="M 525 4666 
L 3525 4666 
L 3525 4397 
L 1831 0 
L 1172 0 
L 2766 4134 
L 525 4134 
L 525 4666 
z
" transform="scale(0.015625)"/>
       </defs>
       <use xlink:href="#DejaVuSans-37"/>
      </g>
     </g>
    </g>
    <g id="ytick_6">
     <g id="line2d_8">
      <g>
       <use xlink:href="#m3c52d75bbd" x="90" y="127.369771" style="stroke: #000000; stroke-width: 0.8"/>
      </g>
     </g>
     <g id="text_9">
      <!-- 8 -->
      <g transform="translate(76.6375 131.16899) scale(0.1 -0.1)">
       <defs>
        <path id="DejaVuSans-38" d="M 2034 2216 
Q 1584 2216 1326 1975 
Q 1069 1734 1069 1313 
Q 1069 891 1326 650 
Q 1584 409 2034 409 
Q 2484 409 2743 651 
Q 3003 894 3003 1313 
Q 3003 1734 2745 1975 
Q 2488 2216 2034 2216 
z
M 1403 2484 
Q 997 2584 770 2862 
Q 544 3141 544 3541 
Q 544 4100 942 4425 
Q 1341 4750 2034 4750 
Q 2731 4750 3128 4425 
Q 3525 4100 3525 3541 
Q 3525 3141 3298 2862 
Q 3072 2584 2669 2484 
Q 3125 2378 3379 2068 
Q 3634 1759 3634 1313 
Q 3634 634 3220 271 
Q 2806 -91 2034 -91 
Q 1263 -91 848 271 
Q 434 634 434 1313 
Q 434 1759 690 2068 
Q 947 2378 1403 2484 
z
M 1172 3481 
Q 1172 3119 1398 2916 
Q 1625 2713 2034 2713 
Q 2441 2713 2670 2916 
Q 2900 3119 2900 3481 
Q 2900 3844 2670 4047 
Q 2441 4250 2034 4250 
Q 1625 4250 1398 4047 
Q 1172 3844 1172 3481 
z
" transform="scale(0.015625)"/>
       </defs>
       <use xlink:href="#DejaVuSans-38"/>
      </g>
     </g>
    </g>
    <g id="ytick_7">
     <g id="line2d_9">
      <g>
       <use xlink:href="#m3c52d75bbd" x="90" y="91.082952" style="stroke: #000000; stroke-width: 0.8"/>
      </g>
     </g>
     <g id="text_10">
      <!-- 9 -->
      <g transform="translate(76.6375 94.882171) scale(0.1 -0.1)">
       <defs>
        <path id="DejaVuSans-39" d="M 703 97 
L 703 672 
Q 941 559 1184 500 
Q 1428 441 1663 441 
Q 2288 441 2617 861 
Q 2947 1281 2994 2138 
Q 2813 1869 2534 1725 
Q 2256 1581 1919 1581 
Q 1219 1581 811 2004 
Q 403 2428 403 3163 
Q 403 3881 828 4315 
Q 1253 4750 1959 4750 
Q 2769 4750 3195 4129 
Q 3622 3509 3622 2328 
Q 3622 1225 3098 567 
Q 2575 -91 1691 -91 
Q 1453 -91 1209 -44 
Q 966 3 703 97 
z
M 1959 2075 
Q 2384 2075 2632 2365 
Q 2881 2656 2881 3163 
Q 2881 3666 2632 3958 
Q 2384 4250 1959 4250 
Q 1534 4250 1286 3958 
Q 1038 3666 1038 3163 
Q 1038 2656 1286 2365 
Q 1534 2075 1959 2075 
z
" transform="scale(0.015625)"/>
       </defs>
       <use xlink:href="#DejaVuSans-39"/>
      </g>
     </g>
    </g>
    <g id="ytick_8">
     <g id="line2d_10">
      <g>
       <use xlink:href="#m3c52d75bbd" x="90" y="54.796133" style="stroke: #000000; stroke-width: 0.8"/>
      </g>
     </g>
     <g id="text_11">
      <!-- 10 -->
      <g transform="translate(70.275 58.595352) scale(0.1 -0.1)">
       <defs>
        <path id="DejaVuSans-31" d="M 794 531 
L 1825 531 
L 1825 4091 
L 703 3866 
L 703 4441 
L 1819 4666 
L 2450 4666 
L 2450 531 
L 3481 531 
L 3481 0 
L 794 0 
L 794 531 
z
" transform="scale(0.015625)"/>
        <path id="DejaVuSans-30" d="M 2034 4250 
Q 1547 4250 1301 3770 
Q 1056 3291 1056 2328 
Q 1056 1369 1301 889 
Q 1547 409 2034 409 
Q 2525 409 2770 889 
Q 3016 1369 3016 2328 
Q 3016 3291 2770 3770 
Q 2525 4250 2034 4250 
z
M 2034 4750 
Q 2819 4750 3233 4129 
Q 3647 3509 3647 2328 
Q 3647 1150 3233 529 
Q 2819 -91 2034 -91 
Q 1250 -91 836 529 
Q 422 1150 422 2328 
Q 422 3509 836 4129 
Q 1250 4750 2034 4750 
z
" transform="scale(0.015625)"/>
       </defs>
       <use xlink:href="#DejaVuSans-31"/>
       <use xlink:href="#DejaVuSans-30" transform="translate(63.623047 0)"/>
      </g>
     </g>
    </g>
    <g id="text_12">
     <!-- cont_variable -->
     <g transform="translate(63.917188 215.409375) rotate(-90) scale(0.1 -0.1)">
      <defs>
       <path id="DejaVuSans-5f" d="M 3263 -1063 
L 3263 -1509 
L -63 -1509 
L -63 -1063 
L 3263 -1063 
z
" transform="scale(0.015625)"/>
       <path id="DejaVuSans-62" d="M 3116 1747 
Q 3116 2381 2855 2742 
Q 2594 3103 2138 3103 
Q 1681 3103 1420 2742 
Q 1159 2381 1159 1747 
Q 1159 1113 1420 752 
Q 1681 391 2138 391 
Q 2594 391 2855 752 
Q 3116 1113 3116 1747 
z
M 1159 2969 
Q 1341 3281 1617 3432 
Q 1894 3584 2278 3584 
Q 2916 3584 3314 3078 
Q 3713 2572 3713 1747 
Q 3713 922 3314 415 
Q 2916 -91 2278 -91 
Q 1894 -91 1617 61 
Q 1341 213 1159 525 
L 1159 0 
L 581 0 
L 581 4863 
L 1159 4863 
L 1159 2969 
z
" transform="scale(0.015625)"/>
       <path id="DejaVuSans-6c" d="M 603 4863 
L 1178 4863 
L 1178 0 
L 603 0 
L 603 4863 
z
" transform="scale(0.015625)"/>
      </defs>
      <use xlink:href="#DejaVuSans-63"/>
      <use xlink:href="#DejaVuSans-6f" transform="translate(54.980469 0)"/>
      <use xlink:href="#DejaVuSans-6e" transform="translate(116.162109 0)"/>
      <use xlink:href="#DejaVuSans-74" transform="translate(179.541016 0)"/>
      <use xlink:href="#DejaVuSans-5f" transform="translate(218.75 0)"/>
      <use xlink:href="#DejaVuSans-76" transform="translate(268.75 0)"/>
      <use xlink:href="#DejaVuSans-61" transform="translate(327.929688 0)"/>
      <use xlink:href="#DejaVuSans-72" transform="translate(389.208984 0)"/>
      <use xlink:href="#DejaVuSans-69" transform="translate(430.322266 0)"/>
      <use xlink:href="#DejaVuSans-61" transform="translate(458.105469 0)"/>
      <use xlink:href="#DejaVuSans-62" transform="translate(519.384766 0)"/>
      <use xlink:href="#DejaVuSans-6c" transform="translate(582.861328 0)"/>
      <use xlink:href="#DejaVuSans-65" transform="translate(610.644531 0)"/>
     </g>
    </g>
   </g>
   <g id="patch_3">
    <path d="M 90 320.4 
L 90 43.2 
" style="fill: none; stroke: #000000; stroke-width: 0.8; stroke-linejoin: miter; stroke-linecap: square"/>
   </g>
   <g id="patch_4">
    <path d="M 648 320.4 
L 648 43.2 
" style="fill: none; stroke: #000000; stroke-width: 0.8; stroke-linejoin: miter; stroke-linecap: square"/>
   </g>
   <g id="patch_5">
    <path d="M 90 320.4 
L 648 320.4 
" style="fill: none; stroke: #000000; stroke-width: 0.8; stroke-linejoin: miter; stroke-linecap: square"/>
   </g>
   <g id="patch_6">
    <path d="M 90 43.2 
L 648 43.2 
" style="fill: none; stroke: #000000; stroke-width: 0.8; stroke-linejoin: miter; stroke-linecap: square"/>
   </g>
   <g id="PathCollection_1">
    <defs>
     <path id="m9784da9bbc" d="M 0 2.5 
C 0.663008 2.5 1.29895 2.236584 1.767767 1.767767 
C 2.236584 1.29895 2.5 0.663008 2.5 0 
C 2.5 -0.663008 2.236584 -1.29895 1.767767 -1.767767 
C 1.29895 -2.236584 0.663008 -2.5 0 -2.5 
C -0.663008 -2.5 -1.29895 -2.236584 -1.767767 -1.767767 
C -2.236584 -1.29895 -2.5 -0.663008 -2.5 0 
C -2.5 0.663008 -2.236584 1.29895 -1.767767 1.767767 
C -1.29895 2.236584 -0.663008 2.5 0 2.5 
z
"/>
    </defs>
    <g clip-path="url(#p2341770160)">
     <use xlink:href="#m9784da9bbc" x="223.064846" y="127.369771" style="fill-opacity: 0.3"/>
     <use xlink:href="#m9784da9bbc" x="212.450103" y="127.369771" style="fill-opacity: 0.3"/>
     <use xlink:href="#m9784da9bbc" x="216.932587" y="127.369771" style="fill-opacity: 0.3"/>
     <use xlink:href="#m9784da9bbc" x="248.57342" y="127.369771" style="fill-opacity: 0.3"/>
     <use xlink:href="#m9784da9bbc" x="210.091513" y="127.369771" style="fill-opacity: 0.3"/>
     <use xlink:href="#m9784da9bbc" x="248.516957" y="127.369771" style="fill-opacity: 0.3"/>
     <use xlink:href="#m9784da9bbc" x="212.96536" y="127.369771" style="fill-opacity: 0.3"/>
     <use xlink:href="#m9784da9bbc" x="249.744672" y="272.517048" style="fill-opacity: 0.3"/>
     <use xlink:href="#m9784da9bbc" x="242.89497" y="272.517048" style="fill-opacity: 0.3"/>
     <use xlink:href="#m9784da9bbc" x="209.279391" y="272.517048" style="fill-opacity: 0.3"/>
     <use xlink:href="#m9784da9bbc" x="211.585832" y="272.517048" style="fill-opacity: 0.3"/>
     <use xlink:href="#m9784da9bbc" x="234.643187" y="272.517048" style="fill-opacity: 0.3"/>
     <use xlink:href="#m9784da9bbc" x="247.037853" y="272.517048" style="fill-opacity: 0.3"/>
     <use xlink:href="#m9784da9bbc" x="253.688495" y="272.517048" style="fill-opacity: 0.3"/>
     <use xlink:href="#m9784da9bbc" x="220.924631" y="272.517048" style="fill-opacity: 0.3"/>
     <use xlink:href="#m9784da9bbc" x="241.310833" y="272.517048" style="fill-opacity: 0.3"/>
     <use xlink:href="#m9784da9bbc" x="202.145233" y="127.369771" style="fill-opacity: 0.3"/>
     <use xlink:href="#m9784da9bbc" x="243.643876" y="127.369771" style="fill-opacity: 0.3"/>
     <use xlink:href="#m9784da9bbc" x="216.013051" y="91.082952" style="fill-opacity: 0.3"/>
     <use xlink:href="#m9784da9bbc" x="231.359015" y="91.082952" style="fill-opacity: 0.3"/>
     <use xlink:href="#m9784da9bbc" x="215.152092" y="91.082952" style="fill-opacity: 0.3"/>
     <use xlink:href="#m9784da9bbc" x="206.075523" y="91.082952" style="fill-opacity: 0.3"/>
     <use xlink:href="#m9784da9bbc" x="246.805592" y="91.082952" style="fill-opacity: 0.3"/>
     <use xlink:href="#m9784da9bbc" x="237.037893" y="91.082952" style="fill-opacity: 0.3"/>
     <use xlink:href="#m9784da9bbc" x="230.123293" y="91.082952" style="fill-opacity: 0.3"/>
     <use xlink:href="#m9784da9bbc" x="241.121051" y="91.082952" style="fill-opacity: 0.3"/>
     <use xlink:href="#m9784da9bbc" x="246.25828" y="91.082952" style="fill-opacity: 0.3"/>
     <use xlink:href="#m9784da9bbc" x="244.009047" y="91.082952" style="fill-opacity: 0.3"/>
     <use xlink:href="#m9784da9bbc" x="234.453529" y="91.082952" style="fill-opacity: 0.3"/>
     <use xlink:href="#m9784da9bbc" x="202.105163" y="91.082952" style="fill-opacity: 0.3"/>
     <use xlink:href="#m9784da9bbc" x="229.191353" y="91.082952" style="fill-opacity: 0.3"/>
     <use xlink:href="#m9784da9bbc" x="204.892417" y="91.082952" style="fill-opacity: 0.3"/>
     <use xlink:href="#m9784da9bbc" x="254.180917" y="91.082952" style="fill-opacity: 0.3"/>
     <use xlink:href="#m9784da9bbc" x="238.817968" y="91.082952" style="fill-opacity: 0.3"/>
     <use xlink:href="#m9784da9bbc" x="207.076675" y="91.082952" style="fill-opacity: 0.3"/>
     <use xlink:href="#m9784da9bbc" x="230.777385" y="91.082952" style="fill-opacity: 0.3"/>
     <use xlink:href="#m9784da9bbc" x="250.503236" y="91.082952" style="fill-opacity: 0.3"/>
     <use xlink:href="#m9784da9bbc" x="229.98191" y="91.082952" style="fill-opacity: 0.3"/>
     <use xlink:href="#m9784da9bbc" x="223.038307" y="91.082952" style="fill-opacity: 0.3"/>
     <use xlink:href="#m9784da9bbc" x="212.667068" y="91.082952" style="fill-opacity: 0.3"/>
     <use xlink:href="#m9784da9bbc" x="210.238857" y="91.082952" style="fill-opacity: 0.3"/>
     <use xlink:href="#m9784da9bbc" x="241.624172" y="91.082952" style="fill-opacity: 0.3"/>
     <use xlink:href="#m9784da9bbc" x="234.692315" y="91.082952" style="fill-opacity: 0.3"/>
     <use xlink:href="#m9784da9bbc" x="210.316273" y="91.082952" style="fill-opacity: 0.3"/>
     <use xlink:href="#m9784da9bbc" x="249.200646" y="91.082952" style="fill-opacity: 0.3"/>
     <use xlink:href="#m9784da9bbc" x="236.670121" y="91.082952" style="fill-opacity: 0.3"/>
     <use xlink:href="#m9784da9bbc" x="243.56169" y="91.082952" style="fill-opacity: 0.3"/>
     <use xlink:href="#m9784da9bbc" x="254.842326" y="91.082952" style="fill-opacity: 0.3"/>
     <use xlink:href="#m9784da9bbc" x="238.000395" y="91.082952" style="fill-opacity: 0.3"/>
     <use xlink:href="#m9784da9bbc" x="248.293979" y="91.082952" style="fill-opacity: 0.3"/>
     <use xlink:href="#m9784da9bbc" x="252.46728" y="91.082952" style="fill-opacity: 0.3"/>
     <use xlink:href="#m9784da9bbc" x="205.85359" y="91.082952" style="fill-opacity: 0.3"/>
     <use xlink:href="#m9784da9bbc" x="216.419347" y="91.082952" style="fill-opacity: 0.3"/>
     <use xlink:href="#m9784da9bbc" x="247.460808" y="91.082952" style="fill-opacity: 0.3"/>
     <use xlink:href="#m9784da9bbc" x="224.630556" y="91.082952" style="fill-opacity: 0.3"/>
     <use xlink:href="#m9784da9bbc" x="226.00249" y="91.082952" style="fill-opacity: 0.3"/>
     <use xlink:href="#m9784da9bbc" x="223.15479" y="91.082952" style="fill-opacity: 0.3"/>
     <use xlink:href="#m9784da9bbc" x="210.056949" y="91.082952" style="fill-opacity: 0.3"/>
     <use xlink:href="#m9784da9bbc" x="225.811721" y="91.082952" style="fill-opacity: 0.3"/>
     <use xlink:href="#m9784da9bbc" x="208.660834" y="91.082952" style="fill-opacity: 0.3"/>
     <use xlink:href="#m9784da9bbc" x="239.456219" y="91.082952" style="fill-opacity: 0.3"/>
     <use xlink:href="#m9784da9bbc" x="254.282273" y="91.082952" style="fill-opacity: 0.3"/>
     <use xlink:href="#m9784da9bbc" x="213.010735" y="91.082952" style="fill-opacity: 0.3"/>
     <use xlink:href="#m9784da9bbc" x="244.225323" y="91.082952" style="fill-opacity: 0.3"/>
     <use xlink:href="#m9784da9bbc" x="211.776086" y="91.082952" style="fill-opacity: 0.3"/>
     <use xlink:href="#m9784da9bbc" x="219.469863" y="91.082952" style="fill-opacity: 0.3"/>
     <use xlink:href="#m9784da9bbc" x="216.669646" y="91.082952" style="fill-opacity: 0.3"/>
     <use xlink:href="#m9784da9bbc" x="228.730861" y="91.082952" style="fill-opacity: 0.3"/>
     <use xlink:href="#m9784da9bbc" x="220.37211" y="91.082952" style="fill-opacity: 0.3"/>
     <use xlink:href="#m9784da9bbc" x="254.908049" y="91.082952" style="fill-opacity: 0.3"/>
     <use xlink:href="#m9784da9bbc" x="228.523781" y="91.082952" style="fill-opacity: 0.3"/>
     <use xlink:href="#m9784da9bbc" x="254.28963" y="91.082952" style="fill-opacity: 0.3"/>
     <use xlink:href="#m9784da9bbc" x="201.796927" y="91.082952" style="fill-opacity: 0.3"/>
     <use xlink:href="#m9784da9bbc" x="256.618255" y="91.082952" style="fill-opacity: 0.3"/>
     <use xlink:href="#m9784da9bbc" x="218.260688" y="91.082952" style="fill-opacity: 0.3"/>
     <use xlink:href="#m9784da9bbc" x="233.274927" y="91.082952" style="fill-opacity: 0.3"/>
     <use xlink:href="#m9784da9bbc" x="204.492183" y="91.082952" style="fill-opacity: 0.3"/>
     <use xlink:href="#m9784da9bbc" x="240.966335" y="91.082952" style="fill-opacity: 0.3"/>
     <use xlink:href="#m9784da9bbc" x="204.902119" y="91.082952" style="fill-opacity: 0.3"/>
     <use xlink:href="#m9784da9bbc" x="243.787406" y="91.082952" style="fill-opacity: 0.3"/>
     <use xlink:href="#m9784da9bbc" x="205.627506" y="91.082952" style="fill-opacity: 0.3"/>
     <use xlink:href="#m9784da9bbc" x="228.231952" y="91.082952" style="fill-opacity: 0.3"/>
     <use xlink:href="#m9784da9bbc" x="241.491251" y="91.082952" style="fill-opacity: 0.3"/>
     <use xlink:href="#m9784da9bbc" x="244.78901" y="91.082952" style="fill-opacity: 0.3"/>
     <use xlink:href="#m9784da9bbc" x="223.972617" y="91.082952" style="fill-opacity: 0.3"/>
     <use xlink:href="#m9784da9bbc" x="240.274408" y="91.082952" style="fill-opacity: 0.3"/>
     <use xlink:href="#m9784da9bbc" x="255.788643" y="91.082952" style="fill-opacity: 0.3"/>
     <use xlink:href="#m9784da9bbc" x="251.976467" y="91.082952" style="fill-opacity: 0.3"/>
     <use xlink:href="#m9784da9bbc" x="212.102318" y="91.082952" style="fill-opacity: 0.3"/>
     <use xlink:href="#m9784da9bbc" x="252.235073" y="91.082952" style="fill-opacity: 0.3"/>
     <use xlink:href="#m9784da9bbc" x="226.380221" y="91.082952" style="fill-opacity: 0.3"/>
     <use xlink:href="#m9784da9bbc" x="212.936487" y="91.082952" style="fill-opacity: 0.3"/>
     <use xlink:href="#m9784da9bbc" x="241.297918" y="91.082952" style="fill-opacity: 0.3"/>
     <use xlink:href="#m9784da9bbc" x="253.54829" y="91.082952" style="fill-opacity: 0.3"/>
     <use xlink:href="#m9784da9bbc" x="231.338017" y="91.082952" style="fill-opacity: 0.3"/>
     <use xlink:href="#m9784da9bbc" x="224.257239" y="91.082952" style="fill-opacity: 0.3"/>
     <use xlink:href="#m9784da9bbc" x="203.780444" y="91.082952" style="fill-opacity: 0.3"/>
     <use xlink:href="#m9784da9bbc" x="201.743758" y="91.082952" style="fill-opacity: 0.3"/>
     <use xlink:href="#m9784da9bbc" x="236.344307" y="91.082952" style="fill-opacity: 0.3"/>
     <use xlink:href="#m9784da9bbc" x="209.948507" y="91.082952" style="fill-opacity: 0.3"/>
     <use xlink:href="#m9784da9bbc" x="232.793611" y="127.369771" style="fill-opacity: 0.3"/>
     <use xlink:href="#m9784da9bbc" x="221.148916" y="127.369771" style="fill-opacity: 0.3"/>
     <use xlink:href="#m9784da9bbc" x="224.503112" y="127.369771" style="fill-opacity: 0.3"/>
     <use xlink:href="#m9784da9bbc" x="224.314962" y="127.369771" style="fill-opacity: 0.3"/>
     <use xlink:href="#m9784da9bbc" x="230.110822" y="127.369771" style="fill-opacity: 0.3"/>
     <use xlink:href="#m9784da9bbc" x="232.167298" y="127.369771" style="fill-opacity: 0.3"/>
     <use xlink:href="#m9784da9bbc" x="230.562493" y="127.369771" style="fill-opacity: 0.3"/>
     <use xlink:href="#m9784da9bbc" x="207.152891" y="127.369771" style="fill-opacity: 0.3"/>
     <use xlink:href="#m9784da9bbc" x="250.359407" y="127.369771" style="fill-opacity: 0.3"/>
     <use xlink:href="#m9784da9bbc" x="208.378514" y="127.369771" style="fill-opacity: 0.3"/>
     <use xlink:href="#m9784da9bbc" x="247.319929" y="127.369771" style="fill-opacity: 0.3"/>
     <use xlink:href="#m9784da9bbc" x="213.467079" y="127.369771" style="fill-opacity: 0.3"/>
     <use xlink:href="#m9784da9bbc" x="255.615006" y="127.369771" style="fill-opacity: 0.3"/>
     <use xlink:href="#m9784da9bbc" x="209.253166" y="127.369771" style="fill-opacity: 0.3"/>
     <use xlink:href="#m9784da9bbc" x="222.335641" y="163.65659" style="fill-opacity: 0.3"/>
     <use xlink:href="#m9784da9bbc" x="203.404252" y="163.65659" style="fill-opacity: 0.3"/>
     <use xlink:href="#m9784da9bbc" x="216.074911" y="163.65659" style="fill-opacity: 0.3"/>
     <use xlink:href="#m9784da9bbc" x="253.660436" y="163.65659" style="fill-opacity: 0.3"/>
     <use xlink:href="#m9784da9bbc" x="247.027154" y="163.65659" style="fill-opacity: 0.3"/>
     <use xlink:href="#m9784da9bbc" x="243.77244" y="163.65659" style="fill-opacity: 0.3"/>
     <use xlink:href="#m9784da9bbc" x="256.384102" y="163.65659" style="fill-opacity: 0.3"/>
     <use xlink:href="#m9784da9bbc" x="207.32821" y="163.65659" style="fill-opacity: 0.3"/>
     <use xlink:href="#m9784da9bbc" x="245.464604" y="163.65659" style="fill-opacity: 0.3"/>
     <use xlink:href="#m9784da9bbc" x="201.850329" y="163.65659" style="fill-opacity: 0.3"/>
     <use xlink:href="#m9784da9bbc" x="204.414242" y="163.65659" style="fill-opacity: 0.3"/>
     <use xlink:href="#m9784da9bbc" x="254.327388" y="163.65659" style="fill-opacity: 0.3"/>
     <use xlink:href="#m9784da9bbc" x="231.219676" y="163.65659" style="fill-opacity: 0.3"/>
     <use xlink:href="#m9784da9bbc" x="231.571195" y="163.65659" style="fill-opacity: 0.3"/>
     <use xlink:href="#m9784da9bbc" x="207.412615" y="163.65659" style="fill-opacity: 0.3"/>
     <use xlink:href="#m9784da9bbc" x="253.412697" y="163.65659" style="fill-opacity: 0.3"/>
     <use xlink:href="#m9784da9bbc" x="230.210839" y="163.65659" style="fill-opacity: 0.3"/>
     <use xlink:href="#m9784da9bbc" x="236.029588" y="163.65659" style="fill-opacity: 0.3"/>
     <use xlink:href="#m9784da9bbc" x="226.68796" y="163.65659" style="fill-opacity: 0.3"/>
     <use xlink:href="#m9784da9bbc" x="242.294387" y="163.65659" style="fill-opacity: 0.3"/>
     <use xlink:href="#m9784da9bbc" x="237.821808" y="163.65659" style="fill-opacity: 0.3"/>
     <use xlink:href="#m9784da9bbc" x="230.778233" y="163.65659" style="fill-opacity: 0.3"/>
     <use xlink:href="#m9784da9bbc" x="204.116447" y="163.65659" style="fill-opacity: 0.3"/>
     <use xlink:href="#m9784da9bbc" x="222.198031" y="163.65659" style="fill-opacity: 0.3"/>
     <use xlink:href="#m9784da9bbc" x="236.163608" y="163.65659" style="fill-opacity: 0.3"/>
     <use xlink:href="#m9784da9bbc" x="231.385793" y="163.65659" style="fill-opacity: 0.3"/>
     <use xlink:href="#m9784da9bbc" x="255.37686" y="163.65659" style="fill-opacity: 0.3"/>
     <use xlink:href="#m9784da9bbc" x="216.248457" y="163.65659" style="fill-opacity: 0.3"/>
     <use xlink:href="#m9784da9bbc" x="231.817174" y="163.65659" style="fill-opacity: 0.3"/>
     <use xlink:href="#m9784da9bbc" x="249.482311" y="163.65659" style="fill-opacity: 0.3"/>
     <use xlink:href="#m9784da9bbc" x="216.954799" y="163.65659" style="fill-opacity: 0.3"/>
     <use xlink:href="#m9784da9bbc" x="227.46397" y="163.65659" style="fill-opacity: 0.3"/>
     <use xlink:href="#m9784da9bbc" x="204.468996" y="163.65659" style="fill-opacity: 0.3"/>
     <use xlink:href="#m9784da9bbc" x="225.544102" y="163.65659" style="fill-opacity: 0.3"/>
     <use xlink:href="#m9784da9bbc" x="257.346131" y="163.65659" style="fill-opacity: 0.3"/>
     <use xlink:href="#m9784da9bbc" x="205.193699" y="163.65659" style="fill-opacity: 0.3"/>
    </g>
   </g>
   <g id="PathCollection_2">
    <g clip-path="url(#p2341770160)">
     <use xlink:href="#m9784da9bbc" x="524.662097" y="127.369771" style="fill-opacity: 0.3"/>
     <use xlink:href="#m9784da9bbc" x="502.452627" y="127.369771" style="fill-opacity: 0.3"/>
     <use xlink:href="#m9784da9bbc" x="497.901218" y="127.369771" style="fill-opacity: 0.3"/>
     <use xlink:href="#m9784da9bbc" x="485.520354" y="127.369771" style="fill-opacity: 0.3"/>
     <use xlink:href="#m9784da9bbc" x="495.820304" y="127.369771" style="fill-opacity: 0.3"/>
     <use xlink:href="#m9784da9bbc" x="516.877829" y="127.369771" style="fill-opacity: 0.3"/>
     <use xlink:href="#m9784da9bbc" x="517.703022" y="127.369771" style="fill-opacity: 0.3"/>
     <use xlink:href="#m9784da9bbc" x="522.217605" y="127.369771" style="fill-opacity: 0.3"/>
     <use xlink:href="#m9784da9bbc" x="497.161312" y="127.369771" style="fill-opacity: 0.3"/>
     <use xlink:href="#m9784da9bbc" x="530.218284" y="272.517048" style="fill-opacity: 0.3"/>
     <use xlink:href="#m9784da9bbc" x="487.053652" y="272.517048" style="fill-opacity: 0.3"/>
     <use xlink:href="#m9784da9bbc" x="487.449333" y="272.517048" style="fill-opacity: 0.3"/>
     <use xlink:href="#m9784da9bbc" x="522.034513" y="127.369771" style="fill-opacity: 0.3"/>
     <use xlink:href="#m9784da9bbc" x="510.025567" y="127.369771" style="fill-opacity: 0.3"/>
     <use xlink:href="#m9784da9bbc" x="533.976891" y="127.369771" style="fill-opacity: 0.3"/>
     <use xlink:href="#m9784da9bbc" x="490.304261" y="91.082952" style="fill-opacity: 0.3"/>
     <use xlink:href="#m9784da9bbc" x="529.816404" y="91.082952" style="fill-opacity: 0.3"/>
     <use xlink:href="#m9784da9bbc" x="500.226373" y="91.082952" style="fill-opacity: 0.3"/>
     <use xlink:href="#m9784da9bbc" x="505.184852" y="91.082952" style="fill-opacity: 0.3"/>
     <use xlink:href="#m9784da9bbc" x="520.851347" y="91.082952" style="fill-opacity: 0.3"/>
     <use xlink:href="#m9784da9bbc" x="535.322583" y="91.082952" style="fill-opacity: 0.3"/>
     <use xlink:href="#m9784da9bbc" x="496.811685" y="91.082952" style="fill-opacity: 0.3"/>
     <use xlink:href="#m9784da9bbc" x="494.425127" y="91.082952" style="fill-opacity: 0.3"/>
     <use xlink:href="#m9784da9bbc" x="526.629642" y="91.082952" style="fill-opacity: 0.3"/>
     <use xlink:href="#m9784da9bbc" x="484.234653" y="91.082952" style="fill-opacity: 0.3"/>
     <use xlink:href="#m9784da9bbc" x="536.14896" y="91.082952" style="fill-opacity: 0.3"/>
     <use xlink:href="#m9784da9bbc" x="497.779634" y="91.082952" style="fill-opacity: 0.3"/>
     <use xlink:href="#m9784da9bbc" x="535.961005" y="91.082952" style="fill-opacity: 0.3"/>
     <use xlink:href="#m9784da9bbc" x="519.542036" y="91.082952" style="fill-opacity: 0.3"/>
     <use xlink:href="#m9784da9bbc" x="502.349021" y="91.082952" style="fill-opacity: 0.3"/>
     <use xlink:href="#m9784da9bbc" x="497.636861" y="91.082952" style="fill-opacity: 0.3"/>
     <use xlink:href="#m9784da9bbc" x="487.280248" y="91.082952" style="fill-opacity: 0.3"/>
     <use xlink:href="#m9784da9bbc" x="521.6258" y="91.082952" style="fill-opacity: 0.3"/>
     <use xlink:href="#m9784da9bbc" x="525.925332" y="91.082952" style="fill-opacity: 0.3"/>
     <use xlink:href="#m9784da9bbc" x="533.285555" y="91.082952" style="fill-opacity: 0.3"/>
     <use xlink:href="#m9784da9bbc" x="500.058773" y="91.082952" style="fill-opacity: 0.3"/>
     <use xlink:href="#m9784da9bbc" x="503.959229" y="91.082952" style="fill-opacity: 0.3"/>
     <use xlink:href="#m9784da9bbc" x="487.75972" y="91.082952" style="fill-opacity: 0.3"/>
     <use xlink:href="#m9784da9bbc" x="506.989819" y="91.082952" style="fill-opacity: 0.3"/>
     <use xlink:href="#m9784da9bbc" x="495.173967" y="91.082952" style="fill-opacity: 0.3"/>
     <use xlink:href="#m9784da9bbc" x="498.732324" y="91.082952" style="fill-opacity: 0.3"/>
     <use xlink:href="#m9784da9bbc" x="501.192834" y="91.082952" style="fill-opacity: 0.3"/>
     <use xlink:href="#m9784da9bbc" x="495.124188" y="91.082952" style="fill-opacity: 0.3"/>
     <use xlink:href="#m9784da9bbc" x="527.631732" y="91.082952" style="fill-opacity: 0.3"/>
     <use xlink:href="#m9784da9bbc" x="533.677891" y="91.082952" style="fill-opacity: 0.3"/>
     <use xlink:href="#m9784da9bbc" x="520.195032" y="91.082952" style="fill-opacity: 0.3"/>
     <use xlink:href="#m9784da9bbc" x="493.036627" y="91.082952" style="fill-opacity: 0.3"/>
     <use xlink:href="#m9784da9bbc" x="530.07455" y="91.082952" style="fill-opacity: 0.3"/>
     <use xlink:href="#m9784da9bbc" x="531.491011" y="91.082952" style="fill-opacity: 0.3"/>
     <use xlink:href="#m9784da9bbc" x="506.547064" y="91.082952" style="fill-opacity: 0.3"/>
     <use xlink:href="#m9784da9bbc" x="483.294416" y="91.082952" style="fill-opacity: 0.3"/>
     <use xlink:href="#m9784da9bbc" x="489.399655" y="91.082952" style="fill-opacity: 0.3"/>
     <use xlink:href="#m9784da9bbc" x="532.45545" y="91.082952" style="fill-opacity: 0.3"/>
     <use xlink:href="#m9784da9bbc" x="499.889904" y="91.082952" style="fill-opacity: 0.3"/>
     <use xlink:href="#m9784da9bbc" x="505.051775" y="127.369771" style="fill-opacity: 0.3"/>
     <use xlink:href="#m9784da9bbc" x="495.141054" y="127.369771" style="fill-opacity: 0.3"/>
     <use xlink:href="#m9784da9bbc" x="530.954707" y="127.369771" style="fill-opacity: 0.3"/>
     <use xlink:href="#m9784da9bbc" x="521.415804" y="127.369771" style="fill-opacity: 0.3"/>
     <use xlink:href="#m9784da9bbc" x="502.638926" y="127.369771" style="fill-opacity: 0.3"/>
     <use xlink:href="#m9784da9bbc" x="503.450265" y="127.369771" style="fill-opacity: 0.3"/>
     <use xlink:href="#m9784da9bbc" x="514.863207" y="127.369771" style="fill-opacity: 0.3"/>
     <use xlink:href="#m9784da9bbc" x="513.177834" y="127.369771" style="fill-opacity: 0.3"/>
     <use xlink:href="#m9784da9bbc" x="523.366736" y="127.369771" style="fill-opacity: 0.3"/>
     <use xlink:href="#m9784da9bbc" x="503.45764" y="163.65659" style="fill-opacity: 0.3"/>
     <use xlink:href="#m9784da9bbc" x="497.413147" y="163.65659" style="fill-opacity: 0.3"/>
     <use xlink:href="#m9784da9bbc" x="509.984586" y="163.65659" style="fill-opacity: 0.3"/>
     <use xlink:href="#m9784da9bbc" x="486.310624" y="163.65659" style="fill-opacity: 0.3"/>
     <use xlink:href="#m9784da9bbc" x="521.80941" y="163.65659" style="fill-opacity: 0.3"/>
     <use xlink:href="#m9784da9bbc" x="483.826267" y="163.65659" style="fill-opacity: 0.3"/>
     <use xlink:href="#m9784da9bbc" x="498.145445" y="163.65659" style="fill-opacity: 0.3"/>
     <use xlink:href="#m9784da9bbc" x="535.949655" y="163.65659" style="fill-opacity: 0.3"/>
     <use xlink:href="#m9784da9bbc" x="491.059558" y="163.65659" style="fill-opacity: 0.3"/>
     <use xlink:href="#m9784da9bbc" x="526.094763" y="163.65659" style="fill-opacity: 0.3"/>
     <use xlink:href="#m9784da9bbc" x="499.651704" y="163.65659" style="fill-opacity: 0.3"/>
     <use xlink:href="#m9784da9bbc" x="491.331704" y="163.65659" style="fill-opacity: 0.3"/>
     <use xlink:href="#m9784da9bbc" x="516.283547" y="163.65659" style="fill-opacity: 0.3"/>
     <use xlink:href="#m9784da9bbc" x="491.561775" y="163.65659" style="fill-opacity: 0.3"/>
     <use xlink:href="#m9784da9bbc" x="492.406743" y="163.65659" style="fill-opacity: 0.3"/>
     <use xlink:href="#m9784da9bbc" x="536.387906" y="163.65659" style="fill-opacity: 0.3"/>
     <use xlink:href="#m9784da9bbc" x="505.795818" y="163.65659" style="fill-opacity: 0.3"/>
     <use xlink:href="#m9784da9bbc" x="487.383255" y="163.65659" style="fill-opacity: 0.3"/>
     <use xlink:href="#m9784da9bbc" x="507.797557" y="163.65659" style="fill-opacity: 0.3"/>
     <use xlink:href="#m9784da9bbc" x="519.69366" y="163.65659" style="fill-opacity: 0.3"/>
     <use xlink:href="#m9784da9bbc" x="499.706786" y="163.65659" style="fill-opacity: 0.3"/>
     <use xlink:href="#m9784da9bbc" x="511.459944" y="163.65659" style="fill-opacity: 0.3"/>
     <use xlink:href="#m9784da9bbc" x="522.898865" y="163.65659" style="fill-opacity: 0.3"/>
     <use xlink:href="#m9784da9bbc" x="512.7832" y="163.65659" style="fill-opacity: 0.3"/>
    </g>
   </g>
  </g>
 </g>
 <defs>
  <clipPath id="p2341770160">
   <rect x="90" y="43.2" width="558" height="277.2"/>
  </clipPath>
 </defs>
</svg>
