<?xml version="1.0" encoding="utf-8" standalone="no"?>
<!DOCTYPE svg PUBLIC "-//W3C//DTD SVG 1.1//EN"
  "http://www.w3.org/Graphics/SVG/1.1/DTD/svg11.dtd">
<svg xmlns:xlink="http://www.w3.org/1999/xlink" width="720pt" height="360pt" viewBox="0 0 720 360" xmlns="http://www.w3.org/2000/svg" version="1.1">
 <metadata>
  <rdf:RDF xmlns:dc="http://purl.org/dc/elements/1.1/" xmlns:cc="http://creativecommons.org/ns#" xmlns:rdf="http://www.w3.org/1999/02/22-rdf-syntax-ns#">
   <cc:Work>
    <dc:type rdf:resource="http://purl.org/dc/dcmitype/StillImage"/>
    <dc:date>2025-10-01T10:09:02.227792</dc:date>
    <dc:format>image/svg+xml</dc:format>
    <dc:creator>
     <cc:Agent>
      <dc:title>Matplotlib v3.10.3, https://matplotlib.org/</dc:title>
     </cc:Agent>
    </dc:creator>
   </cc:Work>
  </rdf:RDF>
 </metadata>
 <defs>
  <style type="text/css">*{stroke-linejoin: round; stroke-linecap: butt}</style>
 </defs>
 <g id="figure_1">
  <g id="patch_1">
   <path d="M 0 360 
L 720 360 
L 720 0 
L 0 0 
z
" style="fill: #ffffff"/>
  </g>
  <g id="axes_1">
   <g id="patch_2">
    <path d="M 90 320.4 
L 648 320.4 
L 648 43.2 
L 90 43.2 
z
" style="fill: #ffffff"/>
   </g>
   <g id="FillBetweenPolyCollection_1">
    <defs>
     <path id="m61389f2bea" d="M 161.616211 -52.2 
L 157.883789 -52.2 
L 157.139898 -54.745455 
L 156.171649 -57.290909 
L 154.940316 -59.836364 
L 153.410585 -62.381818 
L 151.554329 -64.927273 
L 149.354598 -67.472727 
L 146.809354 -70.018182 
L 143.934426 -72.563636 
L 140.76511 -75.109091 
L 137.356005 -77.654545 
L 133.778834 -80.2 
L 130.118286 -82.745455 
L 126.466232 -85.290909 
L 122.914951 -87.836364 
L 119.550212 -90.381818 
L 116.445124 -92.927273 
L 113.65561 -95.472727 
L 111.218111 -98.018182 
L 109.149777 -100.563636 
L 107.451033 -103.109091 
L 106.109963 -105.654545 
L 105.107733 -108.2 
L 104.42406 -110.745455 
L 104.041814 -113.290909 
L 103.95 -115.836364 
L 104.144702 -118.381818 
L 104.627965 -120.927273 
L 105.404948 -123.472727 
L 106.480006 -126.018182 
L 107.852494 -128.563636 
L 109.513122 -131.109091 
L 111.441531 -133.654545 
L 113.605486 -136.2 
L 115.961818 -138.745455 
L 118.458868 -141.290909 
L 121.040016 -143.836364 
L 123.647677 -146.381818 
L 126.227203 -148.927273 
L 128.730155 -151.472727 
L 131.116635 -154.018182 
L 133.356547 -156.563636 
L 135.429838 -159.109091 
L 137.325916 -161.654545 
L 139.042523 -164.2 
L 140.58431 -166.745455 
L 141.961369 -169.290909 
L 143.187847 -171.836364 
L 144.280723 -174.381818 
L 145.258762 -176.927273 
L 146.141592 -179.472727 
L 146.94888 -182.018182 
L 147.699548 -184.563636 
L 148.411028 -187.109091 
L 149.098545 -189.654545 
L 149.774474 -192.2 
L 150.447807 -194.745455 
L 151.123785 -197.290909 
L 151.803736 -199.836364 
L 152.485152 -202.381818 
L 153.162023 -204.927273 
L 153.825408 -207.472727 
L 154.464227 -210.018182 
L 155.066209 -212.563636 
L 155.618919 -215.109091 
L 156.11081 -217.654545 
L 156.53218 -220.2 
L 156.875993 -222.745455 
L 157.138465 -225.290909 
L 157.319395 -227.836364 
L 157.422207 -230.381818 
L 157.453708 -232.927273 
L 157.423607 -235.472727 
L 157.34383 -238.018182 
L 157.227724 -240.563636 
L 157.089218 -243.109091 
L 156.942032 -245.654545 
L 156.798982 -248.2 
L 156.671446 -250.745455 
L 156.568993 -253.290909 
L 156.499167 -255.836364 
L 156.46741 -258.381818 
L 156.477073 -260.927273 
L 156.529484 -263.472727 
L 156.624047 -266.018182 
L 156.758365 -268.563636 
L 156.928398 -271.109091 
L 157.128662 -273.654545 
L 157.352503 -276.2 
L 157.592449 -278.745455 
L 157.840628 -281.290909 
L 158.08923 -283.836364 
L 158.330975 -286.381818 
L 158.559533 -288.927273 
L 158.769851 -291.472727 
L 158.958351 -294.018182 
L 159.122988 -296.563636 
L 159.263171 -299.109091 
L 159.379572 -301.654545 
L 159.473848 -304.2 
L 160.026152 -304.2 
L 160.026152 -304.2 
L 160.120428 -301.654545 
L 160.236829 -299.109091 
L 160.377012 -296.563636 
L 160.541649 -294.018182 
L 160.730149 -291.472727 
L 160.940467 -288.927273 
L 161.169025 -286.381818 
L 161.41077 -283.836364 
L 161.659372 -281.290909 
L 161.907551 -278.745455 
L 162.147497 -276.2 
L 162.371338 -273.654545 
L 162.571602 -271.109091 
L 162.741635 -268.563636 
L 162.875953 -266.018182 
L 162.970516 -263.472727 
L 163.022927 -260.927273 
L 163.03259 -258.381818 
L 163.000833 -255.836364 
L 162.931007 -253.290909 
L 162.828554 -250.745455 
L 162.701018 -248.2 
L 162.557968 -245.654545 
L 162.410782 -243.109091 
L 162.272276 -240.563636 
L 162.15617 -238.018182 
L 162.076393 -235.472727 
L 162.046292 -232.927273 
L 162.077793 -230.381818 
L 162.180605 -227.836364 
L 162.361535 -225.290909 
L 162.624007 -222.745455 
L 162.96782 -220.2 
L 163.38919 -217.654545 
L 163.881081 -215.109091 
L 164.433791 -212.563636 
L 165.035773 -210.018182 
L 165.674592 -207.472727 
L 166.337977 -204.927273 
L 167.014848 -202.381818 
L 167.696264 -199.836364 
L 168.376215 -197.290909 
L 169.052193 -194.745455 
L 169.725526 -192.2 
L 170.401455 -189.654545 
L 171.088972 -187.109091 
L 171.800452 -184.563636 
L 172.55112 -182.018182 
L 173.358408 -179.472727 
L 174.241238 -176.927273 
L 175.219277 -174.381818 
L 176.312153 -171.836364 
L 177.538631 -169.290909 
L 178.91569 -166.745455 
L 180.457477 -164.2 
L 182.174084 -161.654545 
L 184.070162 -159.109091 
L 186.143453 -156.563636 
L 188.383365 -154.018182 
L 190.769845 -151.472727 
L 193.272797 -148.927273 
L 195.852323 -146.381818 
L 198.459984 -143.836364 
L 201.041132 -141.290909 
L 203.538182 -138.745455 
L 205.894514 -136.2 
L 208.058469 -133.654545 
L 209.986878 -131.109091 
L 211.647506 -128.563636 
L 213.019994 -126.018182 
L 214.095052 -123.472727 
L 214.872035 -120.927273 
L 215.355298 -118.381818 
L 215.55 -115.836364 
L 215.458186 -113.290909 
L 215.07594 -110.745455 
L 214.392267 -108.2 
L 213.390037 -105.654545 
L 212.048967 -103.109091 
L 210.350223 -100.563636 
L 208.281889 -98.018182 
L 205.84439 -95.472727 
L 203.054876 -92.927273 
L 199.949788 -90.381818 
L 196.585049 -87.836364 
L 193.033768 -85.290909 
L 189.381714 -82.745455 
L 185.721166 -80.2 
L 182.143995 -77.654545 
L 178.73489 -75.109091 
L 175.565574 -72.563636 
L 172.690646 -70.018182 
L 170.145402 -67.472727 
L 167.945671 -64.927273 
L 166.089415 -62.381818 
L 164.559684 -59.836364 
L 163.328351 -57.290909 
L 162.360102 -54.745455 
L 161.616211 -52.2 
z
" style="stroke: #3d3d3d; stroke-width: 1.25"/>
    </defs>
    <g clip-path="url(#p122cc7202c)">
     <use xlink:href="#m61389f2bea" x="0" y="360" style="fill: #3274a1; stroke: #3d3d3d; stroke-width: 1.25"/>
    </g>
   </g>
   <g id="FillBetweenPolyCollection_2">
    <defs>
     <path id="m5376b1eca3" d="M 299.761958 -71.211809 
L 298.738042 -71.211809 
L 298.476522 -72.834905 
L 298.110618 -74.458 
L 297.612111 -76.081096 
L 296.950054 -77.704191 
L 296.091896 -79.327287 
L 295.004804 -80.950382 
L 293.657102 -82.573478 
L 292.019732 -84.196573 
L 290.067784 -85.819669 
L 287.782216 -87.442764 
L 285.15201 -89.06586 
L 282.176967 -90.688955 
L 278.871241 -92.312051 
L 275.267357 -93.935146 
L 271.420094 -95.558242 
L 267.409169 -97.181337 
L 263.339442 -98.804433 
L 259.337439 -100.427528 
L 255.543504 -102.050624 
L 252.099808 -103.673719 
L 249.13557 -105.296815 
L 246.751888 -106.91991 
L 245.009185 -108.543006 
L 243.920131 -110.166101 
L 243.45 -111.789196 
L 243.52482 -113.412292 
L 244.045867 -115.035387 
L 244.907497 -116.658483 
L 246.014527 -118.281578 
L 247.295532 -119.904674 
L 248.709568 -121.527769 
L 250.245554 -123.150865 
L 251.915322 -124.77396 
L 253.742711 -126.397056 
L 255.751658 -128.020151 
L 257.955974 -129.643247 
L 260.3526 -131.266342 
L 262.918966 -132.889438 
L 265.614041 -134.512533 
L 268.381988 -136.135629 
L 271.157226 -137.758724 
L 273.869913 -139.38182 
L 276.451274 -141.004915 
L 278.838583 -142.628011 
L 280.979759 -144.251106 
L 282.83749 -145.874202 
L 284.392589 -147.497297 
L 285.646094 -149.120393 
L 286.619594 -150.743488 
L 287.353358 -152.366584 
L 287.902251 -153.989679 
L 288.32979 -155.612775 
L 288.701128 -157.23587 
L 289.075969 -158.858966 
L 289.502444 -160.482061 
L 290.012797 -162.105157 
L 290.621359 -163.728252 
L 291.324919 -165.351348 
L 292.105165 -166.974443 
L 292.932654 -168.597539 
L 293.771595 -170.220634 
L 294.584724 -171.84373 
L 295.337675 -173.466825 
L 296.002407 -175.089921 
L 296.559429 -176.713016 
L 296.998778 -178.336112 
L 297.319824 -179.959207 
L 297.530109 -181.582303 
L 297.643494 -183.205398 
L 297.677907 -184.828494 
L 297.653004 -186.451589 
L 297.588031 -188.074685 
L 297.500121 -189.69778 
L 297.40318 -191.320875 
L 297.307432 -192.943971 
L 297.219564 -194.567066 
L 297.143357 -196.190162 
L 297.080576 -197.813257 
L 297.031926 -199.436353 
L 296.997887 -201.059448 
L 296.979293 -202.682544 
L 296.977606 -204.305639 
L 296.994899 -205.928735 
L 297.033583 -207.55183 
L 297.095955 -209.174926 
L 297.18366 -210.798021 
L 297.297148 -212.421117 
L 297.435233 -214.044212 
L 297.594863 -215.667308 
L 297.771148 -217.290403 
L 297.957699 -218.913499 
L 298.147227 -220.536594 
L 298.332305 -222.15969 
L 298.506162 -223.782785 
L 298.663357 -225.405881 
L 298.800223 -227.028976 
L 298.915018 -228.652072 
L 299.007802 -230.275167 
L 299.080091 -231.898263 
L 299.419909 -231.898263 
L 299.419909 -231.898263 
L 299.492198 -230.275167 
L 299.584982 -228.652072 
L 299.699777 -227.028976 
L 299.836643 -225.405881 
L 299.993838 -223.782785 
L 300.167695 -222.15969 
L 300.352773 -220.536594 
L 300.542301 -218.913499 
L 300.728852 -217.290403 
L 300.905137 -215.667308 
L 301.064767 -214.044212 
L 301.202852 -212.421117 
L 301.31634 -210.798021 
L 301.404045 -209.174926 
L 301.466417 -207.55183 
L 301.505101 -205.928735 
L 301.522394 -204.305639 
L 301.520707 -202.682544 
L 301.502113 -201.059448 
L 301.468074 -199.436353 
L 301.419424 -197.813257 
L 301.356643 -196.190162 
L 301.280436 -194.567066 
L 301.192568 -192.943971 
L 301.09682 -191.320875 
L 300.999879 -189.69778 
L 300.911969 -188.074685 
L 300.846996 -186.451589 
L 300.822093 -184.828494 
L 300.856506 -183.205398 
L 300.969891 -181.582303 
L 301.180176 -179.959207 
L 301.501222 -178.336112 
L 301.940571 -176.713016 
L 302.497593 -175.089921 
L 303.162325 -173.466825 
L 303.915276 -171.84373 
L 304.728405 -170.220634 
L 305.567346 -168.597539 
L 306.394835 -166.974443 
L 307.175081 -165.351348 
L 307.878641 -163.728252 
L 308.487203 -162.105157 
L 308.997556 -160.482061 
L 309.424031 -158.858966 
L 309.798872 -157.23587 
L 310.17021 -155.612775 
L 310.597749 -153.989679 
L 311.146642 -152.366584 
L 311.880406 -150.743488 
L 312.853906 -149.120393 
L 314.107411 -147.497297 
L 315.66251 -145.874202 
L 317.520241 -144.251106 
L 319.661417 -142.628011 
L 322.048726 -141.004915 
L 324.630087 -139.38182 
L 327.342774 -137.758724 
L 330.118012 -136.135629 
L 332.885959 -134.512533 
L 335.581034 -132.889438 
L 338.1474 -131.266342 
L 340.544026 -129.643247 
L 342.748342 -128.020151 
L 344.757289 -126.397056 
L 346.584678 -124.77396 
L 348.254446 -123.150865 
L 349.790432 -121.527769 
L 351.204468 -119.904674 
L 352.485473 -118.281578 
L 353.592503 -116.658483 
L 354.454133 -115.035387 
L 354.97518 -113.412292 
L 355.05 -111.789196 
L 354.579869 -110.166101 
L 353.490815 -108.543006 
L 351.748112 -106.91991 
L 349.36443 -105.296815 
L 346.400192 -103.673719 
L 342.956496 -102.050624 
L 339.162561 -100.427528 
L 335.160558 -98.804433 
L 331.090831 -97.181337 
L 327.079906 -95.558242 
L 323.232643 -93.935146 
L 319.628759 -92.312051 
L 316.323033 -90.688955 
L 313.34799 -89.06586 
L 310.717784 -87.442764 
L 308.432216 -85.819669 
L 306.480268 -84.196573 
L 304.842898 -82.573478 
L 303.495196 -80.950382 
L 302.408104 -79.327287 
L 301.549946 -77.704191 
L 300.887889 -76.081096 
L 300.389382 -74.458 
L 300.023478 -72.834905 
L 299.761958 -71.211809 
z
" style="stroke: #3d3d3d; stroke-width: 1.25"/>
    </defs>
    <g clip-path="url(#p122cc7202c)">
     <use xlink:href="#m5376b1eca3" x="0" y="360" style="fill: #e1812c; stroke: #3d3d3d; stroke-width: 1.25"/>
    </g>
   </g>
   <g id="FillBetweenPolyCollection_3">
    <defs>
     <path id="m2391a5a86b" d="M 439.331325 -65.58444 
L 438.168675 -65.58444 
L 437.905394 -67.387282 
L 437.550808 -69.190124 
L 437.085211 -70.992965 
L 436.488834 -72.795807 
L 435.743174 -74.598648 
L 434.832353 -76.40149 
L 433.744329 -78.204331 
L 432.471712 -80.007173 
L 431.012034 -81.810015 
L 429.36742 -83.612856 
L 427.543725 -85.415698 
L 425.549388 -87.218539 
L 423.39435 -89.021381 
L 421.089406 -90.824222 
L 418.646296 -92.627064 
L 416.07865 -94.429906 
L 413.403617 -96.232747 
L 410.643775 -98.035589 
L 407.828698 -99.83843 
L 404.99557 -101.641272 
L 402.188359 -103.444113 
L 399.455416 -105.246955 
L 396.84578 -107.049797 
L 394.404832 -108.852638 
L 392.170193 -110.65548 
L 390.16876 -112.458321 
L 388.415545 -114.261163 
L 386.914609 -116.064004 
L 385.661884 -117.866846 
L 384.64935 -119.669688 
L 383.869727 -121.472529 
L 383.320833 -123.275371 
L 383.008856 -125.078212 
L 382.95 -126.881054 
L 383.170237 -128.683895 
L 383.703107 -130.486737 
L 384.585765 -132.289579 
L 385.853627 -134.09242 
L 387.534183 -135.895262 
L 389.640695 -137.698103 
L 392.166645 -139.500945 
L 395.081818 -141.303787 
L 398.330808 -143.106628 
L 401.834472 -144.90947 
L 405.494409 -146.712311 
L 409.200104 -148.515153 
L 412.837864 -150.317994 
L 416.300387 -152.120836 
L 419.495664 -153.923678 
L 422.354046 -155.726519 
L 424.832616 -157.529361 
L 426.916476 -159.332202 
L 428.617022 -161.135044 
L 429.967699 -162.937885 
L 431.018045 -164.740727 
L 431.82691 -166.543569 
L 432.455753 -168.34641 
L 432.962746 -170.149252 
L 433.398212 -171.952093 
L 433.80166 -173.754935 
L 434.200463 -175.557776 
L 434.610029 -177.360618 
L 435.035172 -179.16346 
L 435.472309 -180.966301 
L 435.912087 -182.769143 
L 436.342046 -184.571984 
L 436.748995 -186.374826 
L 437.120868 -188.177667 
L 437.447929 -189.980509 
L 437.723313 -191.783351 
L 437.942994 -193.586192 
L 438.105336 -195.389034 
L 438.210451 -197.191875 
L 438.259568 -198.994717 
L 438.254587 -200.797558 
L 438.197946 -202.6004 
L 438.092819 -204.403242 
L 437.943586 -206.206083 
L 437.756444 -208.008925 
L 437.53996 -209.811766 
L 437.305358 -211.614608 
L 437.066371 -213.417449 
L 436.838566 -215.220291 
L 436.638153 -217.023133 
L 436.480424 -218.825974 
L 436.378055 -220.628816 
L 436.339578 -222.431657 
L 436.368304 -224.234499 
L 436.461908 -226.037341 
L 436.612783 -227.840182 
L 436.809073 -229.643024 
L 437.036224 -231.445865 
L 437.278764 -233.248707 
L 437.522012 -235.051548 
L 437.753473 -236.85439 
L 437.963738 -238.657232 
L 438.146846 -240.460073 
L 438.300145 -242.262915 
L 438.423788 -244.065756 
L 439.076212 -244.065756 
L 439.076212 -244.065756 
L 439.199855 -242.262915 
L 439.353154 -240.460073 
L 439.536262 -238.657232 
L 439.746527 -236.85439 
L 439.977988 -235.051548 
L 440.221236 -233.248707 
L 440.463776 -231.445865 
L 440.690927 -229.643024 
L 440.887217 -227.840182 
L 441.038092 -226.037341 
L 441.131696 -224.234499 
L 441.160422 -222.431657 
L 441.121945 -220.628816 
L 441.019576 -218.825974 
L 440.861847 -217.023133 
L 440.661434 -215.220291 
L 440.433629 -213.417449 
L 440.194642 -211.614608 
L 439.96004 -209.811766 
L 439.743556 -208.008925 
L 439.556414 -206.206083 
L 439.407181 -204.403242 
L 439.302054 -202.6004 
L 439.245413 -200.797558 
L 439.240432 -198.994717 
L 439.289549 -197.191875 
L 439.394664 -195.389034 
L 439.557006 -193.586192 
L 439.776687 -191.783351 
L 440.052071 -189.980509 
L 440.379132 -188.177667 
L 440.751005 -186.374826 
L 441.157954 -184.571984 
L 441.587913 -182.769143 
L 442.027691 -180.966301 
L 442.464828 -179.16346 
L 442.889971 -177.360618 
L 443.299537 -175.557776 
L 443.69834 -173.754935 
L 444.101788 -171.952093 
L 444.537254 -170.149252 
L 445.044247 -168.34641 
L 445.67309 -166.543569 
L 446.481955 -164.740727 
L 447.532301 -162.937885 
L 448.882978 -161.135044 
L 450.583524 -159.332202 
L 452.667384 -157.529361 
L 455.145954 -155.726519 
L 458.004336 -153.923678 
L 461.199613 -152.120836 
L 464.662136 -150.317994 
L 468.299896 -148.515153 
L 472.005591 -146.712311 
L 475.665528 -144.90947 
L 479.169192 -143.106628 
L 482.418182 -141.303787 
L 485.333355 -139.500945 
L 487.859305 -137.698103 
L 489.965817 -135.895262 
L 491.646373 -134.09242 
L 492.914235 -132.289579 
L 493.796893 -130.486737 
L 494.329763 -128.683895 
L 494.55 -126.881054 
L 494.491144 -125.078212 
L 494.179167 -123.275371 
L 493.630273 -121.472529 
L 492.85065 -119.669688 
L 491.838116 -117.866846 
L 490.585391 -116.064004 
L 489.084455 -114.261163 
L 487.33124 -112.458321 
L 485.329807 -110.65548 
L 483.095168 -108.852638 
L 480.65422 -107.049797 
L 478.044584 -105.246955 
L 475.311641 -103.444113 
L 472.50443 -101.641272 
L 469.671302 -99.83843 
L 466.856225 -98.035589 
L 464.096383 -96.232747 
L 461.42135 -94.429906 
L 458.853704 -92.627064 
L 456.410594 -90.824222 
L 454.10565 -89.021381 
L 451.950612 -87.218539 
L 449.956275 -85.415698 
L 448.13258 -83.612856 
L 446.487966 -81.810015 
L 445.028288 -80.007173 
L 443.755671 -78.204331 
L 442.667647 -76.40149 
L 441.756826 -74.598648 
L 441.011166 -72.795807 
L 440.414789 -70.992965 
L 439.949192 -69.190124 
L 439.594606 -67.387282 
L 439.331325 -65.58444 
z
" style="stroke: #3d3d3d; stroke-width: 1.25"/>
    </defs>
    <g clip-path="url(#p122cc7202c)">
     <use xlink:href="#m2391a5a86b" x="0" y="360" style="fill: #3a923a; stroke: #3d3d3d; stroke-width: 1.25"/>
    </g>
   </g>
   <g id="FillBetweenPolyCollection_4">
    <defs>
     <path id="m3eea35728d" d="M 580.043561 -65.161216 
L 576.456439 -65.161216 
L 575.974159 -66.260787 
L 575.389427 -67.360357 
L 574.688116 -68.459927 
L 573.856061 -69.559498 
L 572.879564 -70.659068 
L 571.745984 -71.758639 
L 570.44438 -72.858209 
L 568.966195 -73.957779 
L 567.30594 -75.05735 
L 565.46185 -76.15692 
L 563.43646 -77.256491 
L 561.237072 -78.356061 
L 558.876069 -79.455631 
L 556.371046 -80.555202 
L 553.74473 -81.654772 
L 551.024677 -82.754342 
L 548.242747 -83.853913 
L 545.43436 -84.953483 
L 542.637571 -86.053054 
L 539.891981 -87.152624 
L 537.23755 -88.252194 
L 534.71335 -89.351765 
L 532.356319 -90.451335 
L 530.200083 -91.550905 
L 528.273885 -92.650476 
L 526.601676 -93.750046 
L 525.201419 -94.849617 
L 524.08461 -95.949187 
L 523.256062 -97.048757 
L 522.713932 -98.148328 
L 522.45 -99.247898 
L 522.450179 -100.347468 
L 522.695214 -101.447039 
L 523.161561 -102.546609 
L 523.822368 -103.64618 
L 524.648552 -104.74575 
L 525.609888 -105.84532 
L 526.676091 -106.944891 
L 527.817832 -108.044461 
L 529.007649 -109.144031 
L 530.220732 -110.243602 
L 531.43554 -111.343172 
L 532.634242 -112.442743 
L 533.802967 -113.542313 
L 534.931867 -114.641883 
L 536.014988 -115.741454 
L 537.04998 -116.841024 
L 538.037645 -117.940594 
L 538.981376 -119.040165 
L 539.886496 -120.139735 
L 540.75954 -121.239306 
L 541.607527 -122.338876 
L 542.437249 -123.438446 
L 543.254629 -124.538017 
L 544.064166 -125.637587 
L 544.868532 -126.737158 
L 545.668311 -127.836728 
L 546.461933 -128.936298 
L 547.245791 -130.035869 
L 548.014542 -131.135439 
L 548.761588 -132.235009 
L 549.479683 -133.33458 
L 550.161654 -134.43415 
L 550.801162 -135.533721 
L 551.393446 -136.633291 
L 551.936008 -137.732861 
L 552.429149 -138.832432 
L 552.876327 -139.932002 
L 553.284295 -141.031572 
L 553.66298 -142.131143 
L 554.025118 -143.230713 
L 554.385654 -144.330284 
L 554.760945 -145.429854 
L 555.16782 -146.529424 
L 555.622561 -147.628995 
L 556.139897 -148.728565 
L 556.732056 -149.828135 
L 557.407978 -150.927706 
L 558.172722 -152.027276 
L 559.027122 -153.126847 
L 559.967709 -154.226417 
L 560.986894 -155.325987 
L 562.073404 -156.425558 
L 563.212917 -157.525128 
L 564.388857 -158.624698 
L 565.583274 -159.724269 
L 566.777761 -160.823839 
L 567.954331 -161.92341 
L 569.096207 -163.02298 
L 570.188481 -164.12255 
L 571.218613 -165.222121 
L 572.176753 -166.321691 
L 573.055888 -167.421261 
L 573.85182 -168.520832 
L 574.56301 -169.620402 
L 575.190303 -170.719973 
L 575.736571 -171.819543 
L 576.206316 -172.919113 
L 576.605251 -174.018684 
L 579.894749 -174.018684 
L 579.894749 -174.018684 
L 580.293684 -172.919113 
L 580.763429 -171.819543 
L 581.309697 -170.719973 
L 581.93699 -169.620402 
L 582.64818 -168.520832 
L 583.444112 -167.421261 
L 584.323247 -166.321691 
L 585.281387 -165.222121 
L 586.311519 -164.12255 
L 587.403793 -163.02298 
L 588.545669 -161.92341 
L 589.722239 -160.823839 
L 590.916726 -159.724269 
L 592.111143 -158.624698 
L 593.287083 -157.525128 
L 594.426596 -156.425558 
L 595.513106 -155.325987 
L 596.532291 -154.226417 
L 597.472878 -153.126847 
L 598.327278 -152.027276 
L 599.092022 -150.927706 
L 599.767944 -149.828135 
L 600.360103 -148.728565 
L 600.877439 -147.628995 
L 601.33218 -146.529424 
L 601.739055 -145.429854 
L 602.114346 -144.330284 
L 602.474882 -143.230713 
L 602.83702 -142.131143 
L 603.215705 -141.031572 
L 603.623673 -139.932002 
L 604.070851 -138.832432 
L 604.563992 -137.732861 
L 605.106554 -136.633291 
L 605.698838 -135.533721 
L 606.338346 -134.43415 
L 607.020317 -133.33458 
L 607.738412 -132.235009 
L 608.485458 -131.135439 
L 609.254209 -130.035869 
L 610.038067 -128.936298 
L 610.831689 -127.836728 
L 611.631468 -126.737158 
L 612.435834 -125.637587 
L 613.245371 -124.538017 
L 614.062751 -123.438446 
L 614.892473 -122.338876 
L 615.74046 -121.239306 
L 616.613504 -120.139735 
L 617.518624 -119.040165 
L 618.462355 -117.940594 
L 619.45002 -116.841024 
L 620.485012 -115.741454 
L 621.568133 -114.641883 
L 622.697033 -113.542313 
L 623.865758 -112.442743 
L 625.06446 -111.343172 
L 626.279268 -110.243602 
L 627.492351 -109.144031 
L 628.682168 -108.044461 
L 629.823909 -106.944891 
L 630.890112 -105.84532 
L 631.851448 -104.74575 
L 632.677632 -103.64618 
L 633.338439 -102.546609 
L 633.804786 -101.447039 
L 634.049821 -100.347468 
L 634.05 -99.247898 
L 633.786068 -98.148328 
L 633.243938 -97.048757 
L 632.41539 -95.949187 
L 631.298581 -94.849617 
L 629.898324 -93.750046 
L 628.226115 -92.650476 
L 626.299917 -91.550905 
L 624.143681 -90.451335 
L 621.78665 -89.351765 
L 619.26245 -88.252194 
L 616.608019 -87.152624 
L 613.862429 -86.053054 
L 611.06564 -84.953483 
L 608.257253 -83.853913 
L 605.475323 -82.754342 
L 602.75527 -81.654772 
L 600.128954 -80.555202 
L 597.623931 -79.455631 
L 595.262928 -78.356061 
L 593.06354 -77.256491 
L 591.03815 -76.15692 
L 589.19406 -75.05735 
L 587.533805 -73.957779 
L 586.05562 -72.858209 
L 584.754016 -71.758639 
L 583.620436 -70.659068 
L 582.643939 -69.559498 
L 581.811884 -68.459927 
L 581.110573 -67.360357 
L 580.525841 -66.260787 
L 580.043561 -65.161216 
z
" style="stroke: #3d3d3d; stroke-width: 1.25"/>
    </defs>
    <g clip-path="url(#p122cc7202c)">
     <use xlink:href="#m3eea35728d" x="0" y="360" style="fill: #c03d3e; stroke: #3d3d3d; stroke-width: 1.25"/>
    </g>
   </g>
   <g id="matplotlib.axis_1">
    <g id="xtick_1">
     <g id="line2d_1">
      <defs>
       <path id="m8e3a0858cd" d="M 0 0 
L 0 3.5 
" style="stroke: #000000; stroke-width: 0.8"/>
      </defs>
      <g>
       <use xlink:href="#m8e3a0858cd" x="159.75" y="320.4" style="stroke: #000000; stroke-width: 0.8"/>
      </g>
     </g>
     <g id="text_1">
      <!-- Spurious -->
      <g transform="translate(137.955469 334.998438) scale(0.1 -0.1)">
       <defs>
        <path id="DejaVuSans-53" d="M 3425 4513 
L 3425 3897 
Q 3066 4069 2747 4153 
Q 2428 4238 2131 4238 
Q 1616 4238 1336 4038 
Q 1056 3838 1056 3469 
Q 1056 3159 1242 3001 
Q 1428 2844 1947 2747 
L 2328 2669 
Q 3034 2534 3370 2195 
Q 3706 1856 3706 1288 
Q 3706 609 3251 259 
Q 2797 -91 1919 -91 
Q 1588 -91 1214 -16 
Q 841 59 441 206 
L 441 856 
Q 825 641 1194 531 
Q 1563 422 1919 422 
Q 2459 422 2753 634 
Q 3047 847 3047 1241 
Q 3047 1584 2836 1778 
Q 2625 1972 2144 2069 
L 1759 2144 
Q 1053 2284 737 2584 
Q 422 2884 422 3419 
Q 422 4038 858 4394 
Q 1294 4750 2059 4750 
Q 2388 4750 2728 4690 
Q 3069 4631 3425 4513 
z
" transform="scale(0.015625)"/>
        <path id="DejaVuSans-70" d="M 1159 525 
L 1159 -1331 
L 581 -1331 
L 581 3500 
L 1159 3500 
L 1159 2969 
Q 1341 3281 1617 3432 
Q 1894 3584 2278 3584 
Q 2916 3584 3314 3078 
Q 3713 2572 3713 1747 
Q 3713 922 3314 415 
Q 2916 -91 2278 -91 
Q 1894 -91 1617 61 
Q 1341 213 1159 525 
z
M 3116 1747 
Q 3116 2381 2855 2742 
Q 2594 3103 2138 3103 
Q 1681 3103 1420 2742 
Q 1159 2381 1159 1747 
Q 1159 1113 1420 752 
Q 1681 391 2138 391 
Q 2594 391 2855 752 
Q 3116 1113 3116 1747 
z
" transform="scale(0.015625)"/>
        <path id="DejaVuSans-75" d="M 544 1381 
L 544 3500 
L 1119 3500 
L 1119 1403 
Q 1119 906 1312 657 
Q 1506 409 1894 409 
Q 2359 409 2629 706 
Q 2900 1003 2900 1516 
L 2900 3500 
L 3475 3500 
L 3475 0 
L 2900 0 
L 2900 538 
Q 2691 219 2414 64 
Q 2138 -91 1772 -91 
Q 1169 -91 856 284 
Q 544 659 544 1381 
z
M 1991 3584 
L 1991 3584 
z
" transform="scale(0.015625)"/>
        <path id="DejaVuSans-72" d="M 2631 2963 
Q 2534 3019 2420 3045 
Q 2306 3072 2169 3072 
Q 1681 3072 1420 2755 
Q 1159 2438 1159 1844 
L 1159 0 
L 581 0 
L 581 3500 
L 1159 3500 
L 1159 2956 
Q 1341 3275 1631 3429 
Q 1922 3584 2338 3584 
Q 2397 3584 2469 3576 
Q 2541 3569 2628 3553 
L 2631 2963 
z
" transform="scale(0.015625)"/>
        <path id="DejaVuSans-69" d="M 603 3500 
L 1178 3500 
L 1178 0 
L 603 0 
L 603 3500 
z
M 603 4863 
L 1178 4863 
L 1178 4134 
L 603 4134 
L 603 4863 
z
" transform="scale(0.015625)"/>
        <path id="DejaVuSans-6f" d="M 1959 3097 
Q 1497 3097 1228 2736 
Q 959 2375 959 1747 
Q 959 1119 1226 758 
Q 1494 397 1959 397 
Q 2419 397 2687 759 
Q 2956 1122 2956 1747 
Q 2956 2369 2687 2733 
Q 2419 3097 1959 3097 
z
M 1959 3584 
Q 2709 3584 3137 3096 
Q 3566 2609 3566 1747 
Q 3566 888 3137 398 
Q 2709 -91 1959 -91 
Q 1206 -91 779 398 
Q 353 888 353 1747 
Q 353 2609 779 3096 
Q 1206 3584 1959 3584 
z
" transform="scale(0.015625)"/>
        <path id="DejaVuSans-73" d="M 2834 3397 
L 2834 2853 
Q 2591 2978 2328 3040 
Q 2066 3103 1784 3103 
Q 1356 3103 1142 2972 
Q 928 2841 928 2578 
Q 928 2378 1081 2264 
Q 1234 2150 1697 2047 
L 1894 2003 
Q 2506 1872 2764 1633 
Q 3022 1394 3022 966 
Q 3022 478 2636 193 
Q 2250 -91 1575 -91 
Q 1294 -91 989 -36 
Q 684 19 347 128 
L 347 722 
Q 666 556 975 473 
Q 1284 391 1588 391 
Q 1994 391 2212 530 
Q 2431 669 2431 922 
Q 2431 1156 2273 1281 
Q 2116 1406 1581 1522 
L 1381 1569 
Q 847 1681 609 1914 
Q 372 2147 372 2553 
Q 372 3047 722 3315 
Q 1072 3584 1716 3584 
Q 2034 3584 2315 3537 
Q 2597 3491 2834 3397 
z
" transform="scale(0.015625)"/>
       </defs>
       <use xlink:href="#DejaVuSans-53"/>
       <use xlink:href="#DejaVuSans-70" transform="translate(63.476562 0)"/>
       <use xlink:href="#DejaVuSans-75" transform="translate(126.953125 0)"/>
       <use xlink:href="#DejaVuSans-72" transform="translate(190.332031 0)"/>
       <use xlink:href="#DejaVuSans-69" transform="translate(231.445312 0)"/>
       <use xlink:href="#DejaVuSans-6f" transform="translate(259.228516 0)"/>
       <use xlink:href="#DejaVuSans-75" transform="translate(320.410156 0)"/>
       <use xlink:href="#DejaVuSans-73" transform="translate(383.789062 0)"/>
      </g>
     </g>
    </g>
    <g id="xtick_2">
     <g id="line2d_2">
      <g>
       <use xlink:href="#m8e3a0858cd" x="299.25" y="320.4" style="stroke: #000000; stroke-width: 0.8"/>
      </g>
     </g>
     <g id="text_2">
      <!-- Specific -->
      <g transform="translate(279.788281 334.998438) scale(0.1 -0.1)">
       <defs>
        <path id="DejaVuSans-65" d="M 3597 1894 
L 3597 1613 
L 953 1613 
Q 991 1019 1311 708 
Q 1631 397 2203 397 
Q 2534 397 2845 478 
Q 3156 559 3463 722 
L 3463 178 
Q 3153 47 2828 -22 
Q 2503 -91 2169 -91 
Q 1331 -91 842 396 
Q 353 884 353 1716 
Q 353 2575 817 3079 
Q 1281 3584 2069 3584 
Q 2775 3584 3186 3129 
Q 3597 2675 3597 1894 
z
M 3022 2063 
Q 3016 2534 2758 2815 
Q 2500 3097 2075 3097 
Q 1594 3097 1305 2825 
Q 1016 2553 972 2059 
L 3022 2063 
z
" transform="scale(0.015625)"/>
        <path id="DejaVuSans-63" d="M 3122 3366 
L 3122 2828 
Q 2878 2963 2633 3030 
Q 2388 3097 2138 3097 
Q 1578 3097 1268 2742 
Q 959 2388 959 1747 
Q 959 1106 1268 751 
Q 1578 397 2138 397 
Q 2388 397 2633 464 
Q 2878 531 3122 666 
L 3122 134 
Q 2881 22 2623 -34 
Q 2366 -91 2075 -91 
Q 1284 -91 818 406 
Q 353 903 353 1747 
Q 353 2603 823 3093 
Q 1294 3584 2113 3584 
Q 2378 3584 2631 3529 
Q 2884 3475 3122 3366 
z
" transform="scale(0.015625)"/>
        <path id="DejaVuSans-66" d="M 2375 4863 
L 2375 4384 
L 1825 4384 
Q 1516 4384 1395 4259 
Q 1275 4134 1275 3809 
L 1275 3500 
L 2222 3500 
L 2222 3053 
L 1275 3053 
L 1275 0 
L 697 0 
L 697 3053 
L 147 3053 
L 147 3500 
L 697 3500 
L 697 3744 
Q 697 4328 969 4595 
Q 1241 4863 1831 4863 
L 2375 4863 
z
" transform="scale(0.015625)"/>
       </defs>
       <use xlink:href="#DejaVuSans-53"/>
       <use xlink:href="#DejaVuSans-70" transform="translate(63.476562 0)"/>
       <use xlink:href="#DejaVuSans-65" transform="translate(126.953125 0)"/>
       <use xlink:href="#DejaVuSans-63" transform="translate(188.476562 0)"/>
       <use xlink:href="#DejaVuSans-69" transform="translate(243.457031 0)"/>
       <use xlink:href="#DejaVuSans-66" transform="translate(271.240234 0)"/>
       <use xlink:href="#DejaVuSans-69" transform="translate(306.445312 0)"/>
       <use xlink:href="#DejaVuSans-63" transform="translate(334.228516 0)"/>
      </g>
     </g>
    </g>
    <g id="xtick_3">
     <g id="line2d_3">
      <g>
       <use xlink:href="#m8e3a0858cd" x="438.75" y="320.4" style="stroke: #000000; stroke-width: 0.8"/>
      </g>
     </g>
     <g id="text_3">
      <!-- Non-specific -->
      <g transform="translate(408.085156 334.998438) scale(0.1 -0.1)">
       <defs>
        <path id="DejaVuSans-4e" d="M 628 4666 
L 1478 4666 
L 3547 763 
L 3547 4666 
L 4159 4666 
L 4159 0 
L 3309 0 
L 1241 3903 
L 1241 0 
L 628 0 
L 628 4666 
z
" transform="scale(0.015625)"/>
        <path id="DejaVuSans-6e" d="M 3513 2113 
L 3513 0 
L 2938 0 
L 2938 2094 
Q 2938 2591 2744 2837 
Q 2550 3084 2163 3084 
Q 1697 3084 1428 2787 
Q 1159 2491 1159 1978 
L 1159 0 
L 581 0 
L 581 3500 
L 1159 3500 
L 1159 2956 
Q 1366 3272 1645 3428 
Q 1925 3584 2291 3584 
Q 2894 3584 3203 3211 
Q 3513 2838 3513 2113 
z
" transform="scale(0.015625)"/>
        <path id="DejaVuSans-2d" d="M 313 2009 
L 1997 2009 
L 1997 1497 
L 313 1497 
L 313 2009 
z
" transform="scale(0.015625)"/>
       </defs>
       <use xlink:href="#DejaVuSans-4e"/>
       <use xlink:href="#DejaVuSans-6f" transform="translate(74.804688 0)"/>
       <use xlink:href="#DejaVuSans-6e" transform="translate(135.986328 0)"/>
       <use xlink:href="#DejaVuSans-2d" transform="translate(199.365234 0)"/>
       <use xlink:href="#DejaVuSans-73" transform="translate(235.449219 0)"/>
       <use xlink:href="#DejaVuSans-70" transform="translate(287.548828 0)"/>
       <use xlink:href="#DejaVuSans-65" transform="translate(351.025391 0)"/>
       <use xlink:href="#DejaVuSans-63" transform="translate(412.548828 0)"/>
       <use xlink:href="#DejaVuSans-69" transform="translate(467.529297 0)"/>
       <use xlink:href="#DejaVuSans-66" transform="translate(495.3125 0)"/>
       <use xlink:href="#DejaVuSans-69" transform="translate(530.517578 0)"/>
       <use xlink:href="#DejaVuSans-63" transform="translate(558.300781 0)"/>
      </g>
     </g>
    </g>
    <g id="xtick_4">
     <g id="line2d_4">
      <g>
       <use xlink:href="#m8e3a0858cd" x="578.25" y="320.4" style="stroke: #000000; stroke-width: 0.8"/>
      </g>
     </g>
     <g id="text_4">
      <!-- No -->
      <g transform="translate(571.45 334.998438) scale(0.1 -0.1)">
       <use xlink:href="#DejaVuSans-4e"/>
       <use xlink:href="#DejaVuSans-6f" transform="translate(74.804688 0)"/>
      </g>
     </g>
    </g>
    <g id="text_5">
     <!-- Connectivity category -->
     <g transform="translate(313.98125 348.676562) scale(0.1 -0.1)">
      <defs>
       <path id="DejaVuSans-43" d="M 4122 4306 
L 4122 3641 
Q 3803 3938 3442 4084 
Q 3081 4231 2675 4231 
Q 1875 4231 1450 3742 
Q 1025 3253 1025 2328 
Q 1025 1406 1450 917 
Q 1875 428 2675 428 
Q 3081 428 3442 575 
Q 3803 722 4122 1019 
L 4122 359 
Q 3791 134 3420 21 
Q 3050 -91 2638 -91 
Q 1578 -91 968 557 
Q 359 1206 359 2328 
Q 359 3453 968 4101 
Q 1578 4750 2638 4750 
Q 3056 4750 3426 4639 
Q 3797 4528 4122 4306 
z
" transform="scale(0.015625)"/>
       <path id="DejaVuSans-74" d="M 1172 4494 
L 1172 3500 
L 2356 3500 
L 2356 3053 
L 1172 3053 
L 1172 1153 
Q 1172 725 1289 603 
Q 1406 481 1766 481 
L 2356 481 
L 2356 0 
L 1766 0 
Q 1100 0 847 248 
Q 594 497 594 1153 
L 594 3053 
L 172 3053 
L 172 3500 
L 594 3500 
L 594 4494 
L 1172 4494 
z
" transform="scale(0.015625)"/>
       <path id="DejaVuSans-76" d="M 191 3500 
L 800 3500 
L 1894 563 
L 2988 3500 
L 3597 3500 
L 2284 0 
L 1503 0 
L 191 3500 
z
" transform="scale(0.015625)"/>
       <path id="DejaVuSans-79" d="M 2059 -325 
Q 1816 -950 1584 -1140 
Q 1353 -1331 966 -1331 
L 506 -1331 
L 506 -850 
L 844 -850 
Q 1081 -850 1212 -737 
Q 1344 -625 1503 -206 
L 1606 56 
L 191 3500 
L 800 3500 
L 1894 763 
L 2988 3500 
L 3597 3500 
L 2059 -325 
z
" transform="scale(0.015625)"/>
       <path id="DejaVuSans-20" transform="scale(0.015625)"/>
       <path id="DejaVuSans-61" d="M 2194 1759 
Q 1497 1759 1228 1600 
Q 959 1441 959 1056 
Q 959 750 1161 570 
Q 1363 391 1709 391 
Q 2188 391 2477 730 
Q 2766 1069 2766 1631 
L 2766 1759 
L 2194 1759 
z
M 3341 1997 
L 3341 0 
L 2766 0 
L 2766 531 
Q 2569 213 2275 61 
Q 1981 -91 1556 -91 
Q 1019 -91 701 211 
Q 384 513 384 1019 
Q 384 1609 779 1909 
Q 1175 2209 1959 2209 
L 2766 2209 
L 2766 2266 
Q 2766 2663 2505 2880 
Q 2244 3097 1772 3097 
Q 1472 3097 1187 3025 
Q 903 2953 641 2809 
L 641 3341 
Q 956 3463 1253 3523 
Q 1550 3584 1831 3584 
Q 2591 3584 2966 3190 
Q 3341 2797 3341 1997 
z
" transform="scale(0.015625)"/>
       <path id="DejaVuSans-67" d="M 2906 1791 
Q 2906 2416 2648 2759 
Q 2391 3103 1925 3103 
Q 1463 3103 1205 2759 
Q 947 2416 947 1791 
Q 947 1169 1205 825 
Q 1463 481 1925 481 
Q 2391 481 2648 825 
Q 2906 1169 2906 1791 
z
M 3481 434 
Q 3481 -459 3084 -895 
Q 2688 -1331 1869 -1331 
Q 1566 -1331 1297 -1286 
Q 1028 -1241 775 -1147 
L 775 -588 
Q 1028 -725 1275 -790 
Q 1522 -856 1778 -856 
Q 2344 -856 2625 -561 
Q 2906 -266 2906 331 
L 2906 616 
Q 2728 306 2450 153 
Q 2172 0 1784 0 
Q 1141 0 747 490 
Q 353 981 353 1791 
Q 353 2603 747 3093 
Q 1141 3584 1784 3584 
Q 2172 3584 2450 3431 
Q 2728 3278 2906 2969 
L 2906 3500 
L 3481 3500 
L 3481 434 
z
" transform="scale(0.015625)"/>
      </defs>
      <use xlink:href="#DejaVuSans-43"/>
      <use xlink:href="#DejaVuSans-6f" transform="translate(69.824219 0)"/>
      <use xlink:href="#DejaVuSans-6e" transform="translate(131.005859 0)"/>
      <use xlink:href="#DejaVuSans-6e" transform="translate(194.384766 0)"/>
      <use xlink:href="#DejaVuSans-65" transform="translate(257.763672 0)"/>
      <use xlink:href="#DejaVuSans-63" transform="translate(319.287109 0)"/>
      <use xlink:href="#DejaVuSans-74" transform="translate(374.267578 0)"/>
      <use xlink:href="#DejaVuSans-69" transform="translate(413.476562 0)"/>
      <use xlink:href="#DejaVuSans-76" transform="translate(441.259766 0)"/>
      <use xlink:href="#DejaVuSans-69" transform="translate(500.439453 0)"/>
      <use xlink:href="#DejaVuSans-74" transform="translate(528.222656 0)"/>
      <use xlink:href="#DejaVuSans-79" transform="translate(567.431641 0)"/>
      <use xlink:href="#DejaVuSans-20" transform="translate(626.611328 0)"/>
      <use xlink:href="#DejaVuSans-63" transform="translate(658.398438 0)"/>
      <use xlink:href="#DejaVuSans-61" transform="translate(713.378906 0)"/>
      <use xlink:href="#DejaVuSans-74" transform="translate(774.658203 0)"/>
      <use xlink:href="#DejaVuSans-65" transform="translate(813.867188 0)"/>
      <use xlink:href="#DejaVuSans-67" transform="translate(875.390625 0)"/>
      <use xlink:href="#DejaVuSans-6f" transform="translate(938.867188 0)"/>
      <use xlink:href="#DejaVuSans-72" transform="translate(1000.048828 0)"/>
      <use xlink:href="#DejaVuSans-79" transform="translate(1041.162109 0)"/>
     </g>
    </g>
   </g>
   <g id="matplotlib.axis_2">
    <g id="ytick_1">
     <g id="line2d_5">
      <defs>
       <path id="mb7b9b5b457" d="M 0 0 
L -3.5 0 
" style="stroke: #000000; stroke-width: 0.8"/>
      </defs>
      <g>
       <use xlink:href="#mb7b9b5b457" x="90" y="282.410695" style="stroke: #000000; stroke-width: 0.8"/>
      </g>
     </g>
     <g id="text_6">
      <!-- 0.00 -->
      <g transform="translate(60.734375 286.209914) scale(0.1 -0.1)">
       <defs>
        <path id="DejaVuSans-30" d="M 2034 4250 
Q 1547 4250 1301 3770 
Q 1056 3291 1056 2328 
Q 1056 1369 1301 889 
Q 1547 409 2034 409 
Q 2525 409 2770 889 
Q 3016 1369 3016 2328 
Q 3016 3291 2770 3770 
Q 2525 4250 2034 4250 
z
M 2034 4750 
Q 2819 4750 3233 4129 
Q 3647 3509 3647 2328 
Q 3647 1150 3233 529 
Q 2819 -91 2034 -91 
Q 1250 -91 836 529 
Q 422 1150 422 2328 
Q 422 3509 836 4129 
Q 1250 4750 2034 4750 
z
" transform="scale(0.015625)"/>
        <path id="DejaVuSans-2e" d="M 684 794 
L 1344 794 
L 1344 0 
L 684 0 
L 684 794 
z
" transform="scale(0.015625)"/>
       </defs>
       <use xlink:href="#DejaVuSans-30"/>
       <use xlink:href="#DejaVuSans-2e" transform="translate(63.623047 0)"/>
       <use xlink:href="#DejaVuSans-30" transform="translate(95.410156 0)"/>
       <use xlink:href="#DejaVuSans-30" transform="translate(159.033203 0)"/>
      </g>
     </g>
    </g>
    <g id="ytick_2">
     <g id="line2d_6">
      <g>
       <use xlink:href="#mb7b9b5b457" x="90" y="226.77182" style="stroke: #000000; stroke-width: 0.8"/>
      </g>
     </g>
     <g id="text_7">
      <!-- 0.05 -->
      <g transform="translate(60.734375 230.571039) scale(0.1 -0.1)">
       <defs>
        <path id="DejaVuSans-35" d="M 691 4666 
L 3169 4666 
L 3169 4134 
L 1269 4134 
L 1269 2991 
Q 1406 3038 1543 3061 
Q 1681 3084 1819 3084 
Q 2600 3084 3056 2656 
Q 3513 2228 3513 1497 
Q 3513 744 3044 326 
Q 2575 -91 1722 -91 
Q 1428 -91 1123 -41 
Q 819 9 494 109 
L 494 744 
Q 775 591 1075 516 
Q 1375 441 1709 441 
Q 2250 441 2565 725 
Q 2881 1009 2881 1497 
Q 2881 1984 2565 2268 
Q 2250 2553 1709 2553 
Q 1456 2553 1204 2497 
Q 953 2441 691 2322 
L 691 4666 
z
" transform="scale(0.015625)"/>
       </defs>
       <use xlink:href="#DejaVuSans-30"/>
       <use xlink:href="#DejaVuSans-2e" transform="translate(63.623047 0)"/>
       <use xlink:href="#DejaVuSans-30" transform="translate(95.410156 0)"/>
       <use xlink:href="#DejaVuSans-35" transform="translate(159.033203 0)"/>
      </g>
     </g>
    </g>
    <g id="ytick_3">
     <g id="line2d_7">
      <g>
       <use xlink:href="#mb7b9b5b457" x="90" y="171.132945" style="stroke: #000000; stroke-width: 0.8"/>
      </g>
     </g>
     <g id="text_8">
      <!-- 0.10 -->
      <g transform="translate(60.734375 174.932164) scale(0.1 -0.1)">
       <defs>
        <path id="DejaVuSans-31" d="M 794 531 
L 1825 531 
L 1825 4091 
L 703 3866 
L 703 4441 
L 1819 4666 
L 2450 4666 
L 2450 531 
L 3481 531 
L 3481 0 
L 794 0 
L 794 531 
z
" transform="scale(0.015625)"/>
       </defs>
       <use xlink:href="#DejaVuSans-30"/>
       <use xlink:href="#DejaVuSans-2e" transform="translate(63.623047 0)"/>
       <use xlink:href="#DejaVuSans-31" transform="translate(95.410156 0)"/>
       <use xlink:href="#DejaVuSans-30" transform="translate(159.033203 0)"/>
      </g>
     </g>
    </g>
    <g id="ytick_4">
     <g id="line2d_8">
      <g>
       <use xlink:href="#mb7b9b5b457" x="90" y="115.49407" style="stroke: #000000; stroke-width: 0.8"/>
      </g>
     </g>
     <g id="text_9">
      <!-- 0.15 -->
      <g transform="translate(60.734375 119.293289) scale(0.1 -0.1)">
       <use xlink:href="#DejaVuSans-30"/>
       <use xlink:href="#DejaVuSans-2e" transform="translate(63.623047 0)"/>
       <use xlink:href="#DejaVuSans-31" transform="translate(95.410156 0)"/>
       <use xlink:href="#DejaVuSans-35" transform="translate(159.033203 0)"/>
      </g>
     </g>
    </g>
    <g id="ytick_5">
     <g id="line2d_9">
      <g>
       <use xlink:href="#mb7b9b5b457" x="90" y="59.855195" style="stroke: #000000; stroke-width: 0.8"/>
      </g>
     </g>
     <g id="text_10">
      <!-- 0.20 -->
      <g transform="translate(60.734375 63.654414) scale(0.1 -0.1)">
       <defs>
        <path id="DejaVuSans-32" d="M 1228 531 
L 3431 531 
L 3431 0 
L 469 0 
L 469 531 
Q 828 903 1448 1529 
Q 2069 2156 2228 2338 
Q 2531 2678 2651 2914 
Q 2772 3150 2772 3378 
Q 2772 3750 2511 3984 
Q 2250 4219 1831 4219 
Q 1534 4219 1204 4116 
Q 875 4013 500 3803 
L 500 4441 
Q 881 4594 1212 4672 
Q 1544 4750 1819 4750 
Q 2544 4750 2975 4387 
Q 3406 4025 3406 3419 
Q 3406 3131 3298 2873 
Q 3191 2616 2906 2266 
Q 2828 2175 2409 1742 
Q 1991 1309 1228 531 
z
" transform="scale(0.015625)"/>
       </defs>
       <use xlink:href="#DejaVuSans-30"/>
       <use xlink:href="#DejaVuSans-2e" transform="translate(63.623047 0)"/>
       <use xlink:href="#DejaVuSans-32" transform="translate(95.410156 0)"/>
       <use xlink:href="#DejaVuSans-30" transform="translate(159.033203 0)"/>
      </g>
     </g>
    </g>
    <g id="text_11">
     <!-- cont_variable -->
     <g transform="translate(54.376562 215.409375) rotate(-90) scale(0.1 -0.1)">
      <defs>
       <path id="DejaVuSans-5f" d="M 3263 -1063 
L 3263 -1509 
L -63 -1509 
L -63 -1063 
L 3263 -1063 
z
" transform="scale(0.015625)"/>
       <path id="DejaVuSans-62" d="M 3116 1747 
Q 3116 2381 2855 2742 
Q 2594 3103 2138 3103 
Q 1681 3103 1420 2742 
Q 1159 2381 1159 1747 
Q 1159 1113 1420 752 
Q 1681 391 2138 391 
Q 2594 391 2855 752 
Q 3116 1113 3116 1747 
z
M 1159 2969 
Q 1341 3281 1617 3432 
Q 1894 3584 2278 3584 
Q 2916 3584 3314 3078 
Q 3713 2572 3713 1747 
Q 3713 922 3314 415 
Q 2916 -91 2278 -91 
Q 1894 -91 1617 61 
Q 1341 213 1159 525 
L 1159 0 
L 581 0 
L 581 4863 
L 1159 4863 
L 1159 2969 
z
" transform="scale(0.015625)"/>
       <path id="DejaVuSans-6c" d="M 603 4863 
L 1178 4863 
L 1178 0 
L 603 0 
L 603 4863 
z
" transform="scale(0.015625)"/>
      </defs>
      <use xlink:href="#DejaVuSans-63"/>
      <use xlink:href="#DejaVuSans-6f" transform="translate(54.980469 0)"/>
      <use xlink:href="#DejaVuSans-6e" transform="translate(116.162109 0)"/>
      <use xlink:href="#DejaVuSans-74" transform="translate(179.541016 0)"/>
      <use xlink:href="#DejaVuSans-5f" transform="translate(218.75 0)"/>
      <use xlink:href="#DejaVuSans-76" transform="translate(268.75 0)"/>
      <use xlink:href="#DejaVuSans-61" transform="translate(327.929688 0)"/>
      <use xlink:href="#DejaVuSans-72" transform="translate(389.208984 0)"/>
      <use xlink:href="#DejaVuSans-69" transform="translate(430.322266 0)"/>
      <use xlink:href="#DejaVuSans-61" transform="translate(458.105469 0)"/>
      <use xlink:href="#DejaVuSans-62" transform="translate(519.384766 0)"/>
      <use xlink:href="#DejaVuSans-6c" transform="translate(582.861328 0)"/>
      <use xlink:href="#DejaVuSans-65" transform="translate(610.644531 0)"/>
     </g>
    </g>
   </g>
   <g id="patch_3">
    <path d="M 90 320.4 
L 90 43.2 
" style="fill: none; stroke: #000000; stroke-width: 0.8; stroke-linejoin: miter; stroke-linecap: square"/>
   </g>
   <g id="patch_4">
    <path d="M 648 320.4 
L 648 43.2 
" style="fill: none; stroke: #000000; stroke-width: 0.8; stroke-linejoin: miter; stroke-linecap: square"/>
   </g>
   <g id="patch_5">
    <path d="M 90 320.4 
L 648 320.4 
" style="fill: none; stroke: #000000; stroke-width: 0.8; stroke-linejoin: miter; stroke-linecap: square"/>
   </g>
   <g id="patch_6">
    <path d="M 90 43.2 
L 648 43.2 
" style="fill: none; stroke: #000000; stroke-width: 0.8; stroke-linejoin: miter; stroke-linecap: square"/>
   </g>
   <g id="PathCollection_1">
    <defs>
     <path id="m350233fa92" d="M 0 2.5 
C 0.663008 2.5 1.29895 2.236584 1.767767 1.767767 
C 2.236584 1.29895 2.5 0.663008 2.5 0 
C 2.5 -0.663008 2.236584 -1.29895 1.767767 -1.767767 
C 1.29895 -2.236584 0.663008 -2.5 0 -2.5 
C -0.663008 -2.5 -1.29895 -2.236584 -1.767767 -1.767767 
C -2.236584 -1.29895 -2.5 -0.663008 -2.5 0 
C -2.5 0.663008 -2.236584 1.29895 -1.767767 1.767767 
C -1.29895 2.236584 -0.663008 2.5 0 2.5 
z
"/>
    </defs>
    <g clip-path="url(#p122cc7202c)">
     <use xlink:href="#m350233fa92" x="152.369546" y="244.031012" style="fill-opacity: 0.3"/>
     <use xlink:href="#m350233fa92" x="167.127293" y="209.635135" style="fill-opacity: 0.3"/>
     <use xlink:href="#m350233fa92" x="146.460991" y="231.294348" style="fill-opacity: 0.3"/>
     <use xlink:href="#m350233fa92" x="166.998425" y="213.465415" style="fill-opacity: 0.3"/>
     <use xlink:href="#m350233fa92" x="169.595131" y="209.000234" style="fill-opacity: 0.3"/>
     <use xlink:href="#m350233fa92" x="154.031213" y="204.214704" style="fill-opacity: 0.3"/>
     <use xlink:href="#m350233fa92" x="165.986944" y="224.440709" style="fill-opacity: 0.3"/>
     <use xlink:href="#m350233fa92" x="161.962395" y="243.661702" style="fill-opacity: 0.3"/>
     <use xlink:href="#m350233fa92" x="172.420089" y="234.381763" style="fill-opacity: 0.3"/>
     <use xlink:href="#m350233fa92" x="152.555612" y="154.080717" style="fill-opacity: 0.3"/>
     <use xlink:href="#m350233fa92" x="173.602119" y="273.453617" style="fill-opacity: 0.3"/>
     <use xlink:href="#m350233fa92" x="163.63524" y="271.687811" style="fill-opacity: 0.3"/>
     <use xlink:href="#m350233fa92" x="171.393443" y="268.87445" style="fill-opacity: 0.3"/>
     <use xlink:href="#m350233fa92" x="157.735697" y="268.440866" style="fill-opacity: 0.3"/>
     <use xlink:href="#m350233fa92" x="165.329911" y="269.930603" style="fill-opacity: 0.3"/>
     <use xlink:href="#m350233fa92" x="158.959709" y="221.237918" style="fill-opacity: 0.3"/>
     <use xlink:href="#m350233fa92" x="149.502759" y="110.706636" style="fill-opacity: 0.3"/>
     <use xlink:href="#m350233fa92" x="156.928831" y="169.963931" style="fill-opacity: 0.3"/>
     <use xlink:href="#m350233fa92" x="168.838075" y="164.497828" style="fill-opacity: 0.3"/>
     <use xlink:href="#m350233fa92" x="168.395564" y="90.146383" style="fill-opacity: 0.3"/>
     <use xlink:href="#m350233fa92" x="152.285722" y="183.141035" style="fill-opacity: 0.3"/>
     <use xlink:href="#m350233fa92" x="147.78194" y="198.865451" style="fill-opacity: 0.3"/>
     <use xlink:href="#m350233fa92" x="148.778498" y="231.735652" style="fill-opacity: 0.3"/>
     <use xlink:href="#m350233fa92" x="163.797572" y="225.817473" style="fill-opacity: 0.3"/>
     <use xlink:href="#m350233fa92" x="151.574354" y="268.080408" style="fill-opacity: 0.3"/>
     <use xlink:href="#m350233fa92" x="159.840825" y="263.811567" style="fill-opacity: 0.3"/>
     <use xlink:href="#m350233fa92" x="166.797622" y="260.055471" style="fill-opacity: 0.3"/>
     <use xlink:href="#m350233fa92" x="154.427169" y="239.292221" style="fill-opacity: 0.3"/>
     <use xlink:href="#m350233fa92" x="162.160054" y="267.281818" style="fill-opacity: 0.3"/>
     <use xlink:href="#m350233fa92" x="154.929027" y="267.36975" style="fill-opacity: 0.3"/>
     <use xlink:href="#m350233fa92" x="159.70498" y="266.973315" style="fill-opacity: 0.3"/>
     <use xlink:href="#m350233fa92" x="160.274402" y="261.017504" style="fill-opacity: 0.3"/>
     <use xlink:href="#m350233fa92" x="151.35187" y="256.347127" style="fill-opacity: 0.3"/>
     <use xlink:href="#m350233fa92" x="152.920596" y="267.620029" style="fill-opacity: 0.3"/>
     <use xlink:href="#m350233fa92" x="154.968976" y="242.911797" style="fill-opacity: 0.3"/>
     <use xlink:href="#m350233fa92" x="164.356845" y="191.900045" style="fill-opacity: 0.3"/>
     <use xlink:href="#m350233fa92" x="169.895533" y="223.56761" style="fill-opacity: 0.3"/>
     <use xlink:href="#m350233fa92" x="152.678743" y="180.543514" style="fill-opacity: 0.3"/>
     <use xlink:href="#m350233fa92" x="156.96907" y="255.531459" style="fill-opacity: 0.3"/>
     <use xlink:href="#m350233fa92" x="157.740894" y="255.606107" style="fill-opacity: 0.3"/>
     <use xlink:href="#m350233fa92" x="146.868738" y="230.040536" style="fill-opacity: 0.3"/>
     <use xlink:href="#m350233fa92" x="163.172249" y="203.087212" style="fill-opacity: 0.3"/>
     <use xlink:href="#m350233fa92" x="160.54001" y="231.029695" style="fill-opacity: 0.3"/>
     <use xlink:href="#m350233fa92" x="159.973316" y="242.322209" style="fill-opacity: 0.3"/>
     <use xlink:href="#m350233fa92" x="151.835553" y="228.813306" style="fill-opacity: 0.3"/>
     <use xlink:href="#m350233fa92" x="147.856073" y="255.149444" style="fill-opacity: 0.3"/>
     <use xlink:href="#m350233fa92" x="155.067674" y="228.436548" style="fill-opacity: 0.3"/>
     <use xlink:href="#m350233fa92" x="160.233168" y="239.680768" style="fill-opacity: 0.3"/>
     <use xlink:href="#m350233fa92" x="156.16585" y="246.8852" style="fill-opacity: 0.3"/>
     <use xlink:href="#m350233fa92" x="150.083716" y="258.716441" style="fill-opacity: 0.3"/>
     <use xlink:href="#m350233fa92" x="172.924909" y="237.658572" style="fill-opacity: 0.3"/>
     <use xlink:href="#m350233fa92" x="158.321349" y="233.591311" style="fill-opacity: 0.3"/>
     <use xlink:href="#m350233fa92" x="171.425887" y="252.278375" style="fill-opacity: 0.3"/>
     <use xlink:href="#m350233fa92" x="164.556737" y="222.388746" style="fill-opacity: 0.3"/>
     <use xlink:href="#m350233fa92" x="151.616122" y="251.014282" style="fill-opacity: 0.3"/>
     <use xlink:href="#m350233fa92" x="163.655544" y="227.743305" style="fill-opacity: 0.3"/>
    </g>
   </g>
   <g id="PathCollection_2">
    <g clip-path="url(#p122cc7202c)">
     <use xlink:href="#m350233fa92" x="299.683278" y="202.857562" style="fill-opacity: 0.3"/>
     <use xlink:href="#m350233fa92" x="299.346404" y="251.082281" style="fill-opacity: 0.3"/>
     <use xlink:href="#m350233fa92" x="300.367211" y="248.909042" style="fill-opacity: 0.3"/>
     <use xlink:href="#m350233fa92" x="310.658804" y="246.783477" style="fill-opacity: 0.3"/>
     <use xlink:href="#m350233fa92" x="298.551125" y="243.354592" style="fill-opacity: 0.3"/>
     <use xlink:href="#m350233fa92" x="285.788338" y="247.709575" style="fill-opacity: 0.3"/>
     <use xlink:href="#m350233fa92" x="290.166909" y="249.984025" style="fill-opacity: 0.3"/>
     <use xlink:href="#m350233fa92" x="293.213691" y="251.004492" style="fill-opacity: 0.3"/>
     <use xlink:href="#m350233fa92" x="305.145951" y="251.622723" style="fill-opacity: 0.3"/>
     <use xlink:href="#m350233fa92" x="307.147083" y="257.324567" style="fill-opacity: 0.3"/>
     <use xlink:href="#m350233fa92" x="288.610512" y="220.381996" style="fill-opacity: 0.3"/>
     <use xlink:href="#m350233fa92" x="288.987015" y="234.597504" style="fill-opacity: 0.3"/>
     <use xlink:href="#m350233fa92" x="298.037922" y="237.989357" style="fill-opacity: 0.3"/>
     <use xlink:href="#m350233fa92" x="305.245057" y="234.045853" style="fill-opacity: 0.3"/>
     <use xlink:href="#m350233fa92" x="310.21311" y="232.431729" style="fill-opacity: 0.3"/>
     <use xlink:href="#m350233fa92" x="286.802713" y="236.226881" style="fill-opacity: 0.3"/>
     <use xlink:href="#m350233fa92" x="310.991542" y="236.642803" style="fill-opacity: 0.3"/>
     <use xlink:href="#m350233fa92" x="286.926501" y="239.570965" style="fill-opacity: 0.3"/>
     <use xlink:href="#m350233fa92" x="300.649527" y="224.515611" style="fill-opacity: 0.3"/>
     <use xlink:href="#m350233fa92" x="303.799952" y="204.501204" style="fill-opacity: 0.3"/>
     <use xlink:href="#m350233fa92" x="286.951583" y="198.3968" style="fill-opacity: 0.3"/>
     <use xlink:href="#m350233fa92" x="294.235263" y="224.837562" style="fill-opacity: 0.3"/>
     <use xlink:href="#m350233fa92" x="303.072162" y="205.589218" style="fill-opacity: 0.3"/>
     <use xlink:href="#m350233fa92" x="294.444905" y="212.822593" style="fill-opacity: 0.3"/>
     <use xlink:href="#m350233fa92" x="286.345432" y="236.948498" style="fill-opacity: 0.3"/>
     <use xlink:href="#m350233fa92" x="308.452095" y="227.080966" style="fill-opacity: 0.3"/>
     <use xlink:href="#m350233fa92" x="308.058488" y="232.924066" style="fill-opacity: 0.3"/>
     <use xlink:href="#m350233fa92" x="288.008863" y="236.275113" style="fill-opacity: 0.3"/>
     <use xlink:href="#m350233fa92" x="286.035468" y="243.812768" style="fill-opacity: 0.3"/>
     <use xlink:href="#m350233fa92" x="312.900333" y="249.289971" style="fill-opacity: 0.3"/>
     <use xlink:href="#m350233fa92" x="300.319744" y="247.056751" style="fill-opacity: 0.3"/>
     <use xlink:href="#m350233fa92" x="312.57817" y="237.890813" style="fill-opacity: 0.3"/>
     <use xlink:href="#m350233fa92" x="293.836279" y="249.012705" style="fill-opacity: 0.3"/>
     <use xlink:href="#m350233fa92" x="291.907988" y="232.173568" style="fill-opacity: 0.3"/>
     <use xlink:href="#m350233fa92" x="308.546691" y="241.56352" style="fill-opacity: 0.3"/>
     <use xlink:href="#m350233fa92" x="299.187353" y="253.508773" style="fill-opacity: 0.3"/>
     <use xlink:href="#m350233fa92" x="306.531717" y="250.421948" style="fill-opacity: 0.3"/>
     <use xlink:href="#m350233fa92" x="288.21008" y="263.11935" style="fill-opacity: 0.3"/>
     <use xlink:href="#m350233fa92" x="299.046408" y="263.193043" style="fill-opacity: 0.3"/>
     <use xlink:href="#m350233fa92" x="303.838127" y="200.466725" style="fill-opacity: 0.3"/>
     <use xlink:href="#m350233fa92" x="290.694053" y="198.930281" style="fill-opacity: 0.3"/>
     <use xlink:href="#m350233fa92" x="297.716578" y="193.138729" style="fill-opacity: 0.3"/>
     <use xlink:href="#m350233fa92" x="288.368738" y="270.789798" style="fill-opacity: 0.3"/>
     <use xlink:href="#m350233fa92" x="291.41671" y="269.714267" style="fill-opacity: 0.3"/>
     <use xlink:href="#m350233fa92" x="288.908181" y="193.157052" style="fill-opacity: 0.3"/>
     <use xlink:href="#m350233fa92" x="287.075279" y="221.208817" style="fill-opacity: 0.3"/>
     <use xlink:href="#m350233fa92" x="289.887051" y="227.392942" style="fill-opacity: 0.3"/>
     <use xlink:href="#m350233fa92" x="306.965721" y="238.652317" style="fill-opacity: 0.3"/>
     <use xlink:href="#m350233fa92" x="291.199656" y="231.335664" style="fill-opacity: 0.3"/>
     <use xlink:href="#m350233fa92" x="290.724841" y="217.705719" style="fill-opacity: 0.3"/>
     <use xlink:href="#m350233fa92" x="302.242525" y="233.401023" style="fill-opacity: 0.3"/>
     <use xlink:href="#m350233fa92" x="293.038791" y="229.87079" style="fill-opacity: 0.3"/>
     <use xlink:href="#m350233fa92" x="297.834261" y="234.520918" style="fill-opacity: 0.3"/>
     <use xlink:href="#m350233fa92" x="297.782438" y="249.295915" style="fill-opacity: 0.3"/>
     <use xlink:href="#m350233fa92" x="301.099435" y="260.195669" style="fill-opacity: 0.3"/>
     <use xlink:href="#m350233fa92" x="295.136945" y="224.269529" style="fill-opacity: 0.3"/>
     <use xlink:href="#m350233fa92" x="305.418629" y="219.481321" style="fill-opacity: 0.3"/>
     <use xlink:href="#m350233fa92" x="307.519071" y="236.448001" style="fill-opacity: 0.3"/>
     <use xlink:href="#m350233fa92" x="304.072826" y="224.727539" style="fill-opacity: 0.3"/>
     <use xlink:href="#m350233fa92" x="294.39584" y="236.594525" style="fill-opacity: 0.3"/>
     <use xlink:href="#m350233fa92" x="290.713333" y="267.648654" style="fill-opacity: 0.3"/>
     <use xlink:href="#m350233fa92" x="305.102866" y="264.347539" style="fill-opacity: 0.3"/>
     <use xlink:href="#m350233fa92" x="287.147347" y="260.534591" style="fill-opacity: 0.3"/>
     <use xlink:href="#m350233fa92" x="292.48352" y="258.266367" style="fill-opacity: 0.3"/>
     <use xlink:href="#m350233fa92" x="311.33056" y="233.584425" style="fill-opacity: 0.3"/>
     <use xlink:href="#m350233fa92" x="292.575758" y="146.10013" style="fill-opacity: 0.3"/>
     <use xlink:href="#m350233fa92" x="307.507088" y="246.030505" style="fill-opacity: 0.3"/>
     <use xlink:href="#m350233fa92" x="290.526224" y="250.717287" style="fill-opacity: 0.3"/>
     <use xlink:href="#m350233fa92" x="309.329996" y="230.966302" style="fill-opacity: 0.3"/>
     <use xlink:href="#m350233fa92" x="286.337075" y="253.684325" style="fill-opacity: 0.3"/>
     <use xlink:href="#m350233fa92" x="303.586265" y="250.363534" style="fill-opacity: 0.3"/>
     <use xlink:href="#m350233fa92" x="309.328155" y="228.254305" style="fill-opacity: 0.3"/>
     <use xlink:href="#m350233fa92" x="303.723091" y="254.095181" style="fill-opacity: 0.3"/>
     <use xlink:href="#m350233fa92" x="306.096211" y="242.828651" style="fill-opacity: 0.3"/>
     <use xlink:href="#m350233fa92" x="305.611128" y="241.979443" style="fill-opacity: 0.3"/>
     <use xlink:href="#m350233fa92" x="312.221379" y="255.928573" style="fill-opacity: 0.3"/>
     <use xlink:href="#m350233fa92" x="293.20214" y="221.105425" style="fill-opacity: 0.3"/>
     <use xlink:href="#m350233fa92" x="292.483363" y="260.404294" style="fill-opacity: 0.3"/>
     <use xlink:href="#m350233fa92" x="293.347449" y="254.465016" style="fill-opacity: 0.3"/>
     <use xlink:href="#m350233fa92" x="291.322152" y="218.565092" style="fill-opacity: 0.3"/>
     <use xlink:href="#m350233fa92" x="291.123512" y="248.770071" style="fill-opacity: 0.3"/>
     <use xlink:href="#m350233fa92" x="286.675841" y="247.960716" style="fill-opacity: 0.3"/>
     <use xlink:href="#m350233fa92" x="287.914699" y="251.803134" style="fill-opacity: 0.3"/>
     <use xlink:href="#m350233fa92" x="291.658372" y="252.61417" style="fill-opacity: 0.3"/>
     <use xlink:href="#m350233fa92" x="288.621186" y="252.246975" style="fill-opacity: 0.3"/>
     <use xlink:href="#m350233fa92" x="296.778695" y="248.057448" style="fill-opacity: 0.3"/>
     <use xlink:href="#m350233fa92" x="312.331883" y="263.949229" style="fill-opacity: 0.3"/>
     <use xlink:href="#m350233fa92" x="309.86026" y="251.275036" style="fill-opacity: 0.3"/>
     <use xlink:href="#m350233fa92" x="293.940118" y="256.333131" style="fill-opacity: 0.3"/>
     <use xlink:href="#m350233fa92" x="296.016875" y="231.512245" style="fill-opacity: 0.3"/>
     <use xlink:href="#m350233fa92" x="301.031566" y="250.448707" style="fill-opacity: 0.3"/>
     <use xlink:href="#m350233fa92" x="312.835043" y="243.097157" style="fill-opacity: 0.3"/>
     <use xlink:href="#m350233fa92" x="303.721031" y="252.142185" style="fill-opacity: 0.3"/>
     <use xlink:href="#m350233fa92" x="291.225038" y="169.075379" style="fill-opacity: 0.3"/>
     <use xlink:href="#m350233fa92" x="299.585837" y="157.006432" style="fill-opacity: 0.3"/>
     <use xlink:href="#m350233fa92" x="305.0855" y="229.992277" style="fill-opacity: 0.3"/>
     <use xlink:href="#m350233fa92" x="300.17979" y="254.754926" style="fill-opacity: 0.3"/>
     <use xlink:href="#m350233fa92" x="299.81394" y="255.486336" style="fill-opacity: 0.3"/>
     <use xlink:href="#m350233fa92" x="294.45619" y="258.395139" style="fill-opacity: 0.3"/>
    </g>
   </g>
   <g id="PathCollection_3">
    <g clip-path="url(#p122cc7202c)">
     <use xlink:href="#m350233fa92" x="448.666541" y="222.706354" style="fill-opacity: 0.3"/>
     <use xlink:href="#m350233fa92" x="443.551465" y="231.177002" style="fill-opacity: 0.3"/>
     <use xlink:href="#m350233fa92" x="430.211241" y="262.655097" style="fill-opacity: 0.3"/>
     <use xlink:href="#m350233fa92" x="428.006972" y="249.112493" style="fill-opacity: 0.3"/>
     <use xlink:href="#m350233fa92" x="426.368062" y="183.979" style="fill-opacity: 0.3"/>
     <use xlink:href="#m350233fa92" x="447.626793" y="226.989542" style="fill-opacity: 0.3"/>
     <use xlink:href="#m350233fa92" x="451.487787" y="250.421745" style="fill-opacity: 0.3"/>
     <use xlink:href="#m350233fa92" x="429.683102" y="252.362743" style="fill-opacity: 0.3"/>
     <use xlink:href="#m350233fa92" x="436.745072" y="208.6194" style="fill-opacity: 0.3"/>
     <use xlink:href="#m350233fa92" x="429.222631" y="236.890196" style="fill-opacity: 0.3"/>
     <use xlink:href="#m350233fa92" x="441.560513" y="252.276673" style="fill-opacity: 0.3"/>
     <use xlink:href="#m350233fa92" x="448.770863" y="238.938174" style="fill-opacity: 0.3"/>
     <use xlink:href="#m350233fa92" x="437.836938" y="225.253041" style="fill-opacity: 0.3"/>
     <use xlink:href="#m350233fa92" x="436.45152" y="219.514722" style="fill-opacity: 0.3"/>
     <use xlink:href="#m350233fa92" x="429.501028" y="237.580336" style="fill-opacity: 0.3"/>
     <use xlink:href="#m350233fa92" x="434.65541" y="243.492955" style="fill-opacity: 0.3"/>
     <use xlink:href="#m350233fa92" x="438.271635" y="244.718667" style="fill-opacity: 0.3"/>
     <use xlink:href="#m350233fa92" x="427.786035" y="237.440368" style="fill-opacity: 0.3"/>
     <use xlink:href="#m350233fa92" x="441.2704" y="229.569527" style="fill-opacity: 0.3"/>
     <use xlink:href="#m350233fa92" x="430.225932" y="252.04329" style="fill-opacity: 0.3"/>
     <use xlink:href="#m350233fa92" x="425.733807" y="272.917569" style="fill-opacity: 0.3"/>
     <use xlink:href="#m350233fa92" x="433.525627" y="137.432234" style="fill-opacity: 0.3"/>
     <use xlink:href="#m350233fa92" x="447.148526" y="216.810944" style="fill-opacity: 0.3"/>
     <use xlink:href="#m350233fa92" x="435.184584" y="216.92258" style="fill-opacity: 0.3"/>
     <use xlink:href="#m350233fa92" x="449.551689" y="219.223514" style="fill-opacity: 0.3"/>
     <use xlink:href="#m350233fa92" x="432.529014" y="226.82856" style="fill-opacity: 0.3"/>
     <use xlink:href="#m350233fa92" x="436.955657" y="218.274218" style="fill-opacity: 0.3"/>
     <use xlink:href="#m350233fa92" x="448.844263" y="233.391919" style="fill-opacity: 0.3"/>
     <use xlink:href="#m350233fa92" x="437.021967" y="239.417147" style="fill-opacity: 0.3"/>
     <use xlink:href="#m350233fa92" x="444.827027" y="212.89706" style="fill-opacity: 0.3"/>
     <use xlink:href="#m350233fa92" x="440.082002" y="226.476387" style="fill-opacity: 0.3"/>
     <use xlink:href="#m350233fa92" x="429.258494" y="268.537253" style="fill-opacity: 0.3"/>
     <use xlink:href="#m350233fa92" x="436.704836" y="229.322142" style="fill-opacity: 0.3"/>
     <use xlink:href="#m350233fa92" x="445.648967" y="244.398934" style="fill-opacity: 0.3"/>
     <use xlink:href="#m350233fa92" x="431.353679" y="250.326727" style="fill-opacity: 0.3"/>
     <use xlink:href="#m350233fa92" x="430.820553" y="264.36082" style="fill-opacity: 0.3"/>
     <use xlink:href="#m350233fa92" x="447.050137" y="219.403072" style="fill-opacity: 0.3"/>
     <use xlink:href="#m350233fa92" x="444.321491" y="247.238198" style="fill-opacity: 0.3"/>
     <use xlink:href="#m350233fa92" x="433.871691" y="257.387003" style="fill-opacity: 0.3"/>
     <use xlink:href="#m350233fa92" x="437.559936" y="193.213422" style="fill-opacity: 0.3"/>
     <use xlink:href="#m350233fa92" x="444.309934" y="234.885097" style="fill-opacity: 0.3"/>
     <use xlink:href="#m350233fa92" x="451.805271" y="251.572739" style="fill-opacity: 0.3"/>
     <use xlink:href="#m350233fa92" x="433.615311" y="230.347084" style="fill-opacity: 0.3"/>
     <use xlink:href="#m350233fa92" x="447.50771" y="220.879542" style="fill-opacity: 0.3"/>
     <use xlink:href="#m350233fa92" x="448.75851" y="246.236655" style="fill-opacity: 0.3"/>
     <use xlink:href="#m350233fa92" x="431.715651" y="236.067065" style="fill-opacity: 0.3"/>
     <use xlink:href="#m350233fa92" x="434.734241" y="262.683151" style="fill-opacity: 0.3"/>
     <use xlink:href="#m350233fa92" x="442.190074" y="216.826764" style="fill-opacity: 0.3"/>
    </g>
   </g>
   <g id="PathCollection_4">
    <g clip-path="url(#p122cc7202c)">
     <use xlink:href="#m350233fa92" x="581.734856" y="211.71409" style="fill-opacity: 0.3"/>
     <use xlink:href="#m350233fa92" x="564.428687" y="230.290604" style="fill-opacity: 0.3"/>
     <use xlink:href="#m350233fa92" x="589.167087" y="228.390949" style="fill-opacity: 0.3"/>
     <use xlink:href="#m350233fa92" x="578.922596" y="271.633396" style="fill-opacity: 0.3"/>
     <use xlink:href="#m350233fa92" x="586.018078" y="231.500222" style="fill-opacity: 0.3"/>
     <use xlink:href="#m350233fa92" x="590.121032" y="260.113835" style="fill-opacity: 0.3"/>
     <use xlink:href="#m350233fa92" x="572.397682" y="225.784239" style="fill-opacity: 0.3"/>
     <use xlink:href="#m350233fa92" x="591.527652" y="266.59726" style="fill-opacity: 0.3"/>
     <use xlink:href="#m350233fa92" x="590.716778" y="251.160516" style="fill-opacity: 0.3"/>
     <use xlink:href="#m350233fa92" x="580.882598" y="266.712137" style="fill-opacity: 0.3"/>
     <use xlink:href="#m350233fa92" x="580.002925" y="266.030888" style="fill-opacity: 0.3"/>
     <use xlink:href="#m350233fa92" x="589.13982" y="256.531266" style="fill-opacity: 0.3"/>
     <use xlink:href="#m350233fa92" x="589.873355" y="273.71323" style="fill-opacity: 0.3"/>
     <use xlink:href="#m350233fa92" x="588.484373" y="271.194195" style="fill-opacity: 0.3"/>
     <use xlink:href="#m350233fa92" x="583.0303" y="269.306497" style="fill-opacity: 0.3"/>
     <use xlink:href="#m350233fa92" x="587.791617" y="261.168589" style="fill-opacity: 0.3"/>
     <use xlink:href="#m350233fa92" x="587.290825" y="263.228079" style="fill-opacity: 0.3"/>
     <use xlink:href="#m350233fa92" x="582.9722" y="207.784134" style="fill-opacity: 0.3"/>
     <use xlink:href="#m350233fa92" x="585.527363" y="244.530738" style="fill-opacity: 0.3"/>
     <use xlink:href="#m350233fa92" x="576.02469" y="215.412645" style="fill-opacity: 0.3"/>
     <use xlink:href="#m350233fa92" x="567.09488" y="261.740726" style="fill-opacity: 0.3"/>
     <use xlink:href="#m350233fa92" x="578.661253" y="240.94867" style="fill-opacity: 0.3"/>
     <use xlink:href="#m350233fa92" x="572.426573" y="251.331926" style="fill-opacity: 0.3"/>
     <use xlink:href="#m350233fa92" x="577.679487" y="260.024295" style="fill-opacity: 0.3"/>
     <use xlink:href="#m350233fa92" x="571.239508" y="238.426244" style="fill-opacity: 0.3"/>
     <use xlink:href="#m350233fa92" x="585.94453" y="255.886074" style="fill-opacity: 0.3"/>
     <use xlink:href="#m350233fa92" x="587.895674" y="244.416181" style="fill-opacity: 0.3"/>
     <use xlink:href="#m350233fa92" x="580.576563" y="207.10687" style="fill-opacity: 0.3"/>
     <use xlink:href="#m350233fa92" x="592.130577" y="208.110891" style="fill-opacity: 0.3"/>
     <use xlink:href="#m350233fa92" x="586.483512" y="253.242013" style="fill-opacity: 0.3"/>
     <use xlink:href="#m350233fa92" x="568.811787" y="236.357293" style="fill-opacity: 0.3"/>
    </g>
   </g>
  </g>
 </g>
 <defs>
  <clipPath id="p122cc7202c">
   <rect x="90" y="43.2" width="558" height="277.2"/>
  </clipPath>
 </defs>
</svg>
