<?xml version="1.0" encoding="utf-8" standalone="no"?>
<!DOCTYPE svg PUBLIC "-//W3C//DTD SVG 1.1//EN"
  "http://www.w3.org/Graphics/SVG/1.1/DTD/svg11.dtd">
<svg xmlns:xlink="http://www.w3.org/1999/xlink" width="720pt" height="360pt" viewBox="0 0 720 360" xmlns="http://www.w3.org/2000/svg" version="1.1">
 <metadata>
  <rdf:RDF xmlns:dc="http://purl.org/dc/elements/1.1/" xmlns:cc="http://creativecommons.org/ns#" xmlns:rdf="http://www.w3.org/1999/02/22-rdf-syntax-ns#">
   <cc:Work>
    <dc:type rdf:resource="http://purl.org/dc/dcmitype/StillImage"/>
    <dc:date>2025-09-11T15:15:03.076621</dc:date>
    <dc:format>image/svg+xml</dc:format>
    <dc:creator>
     <cc:Agent>
      <dc:title>Matplotlib v3.10.3, https://matplotlib.org/</dc:title>
     </cc:Agent>
    </dc:creator>
   </cc:Work>
  </rdf:RDF>
 </metadata>
 <defs>
  <style type="text/css">*{stroke-linejoin: round; stroke-linecap: butt}</style>
 </defs>
 <g id="figure_1">
  <g id="patch_1">
   <path d="M 0 360 
L 720 360 
L 720 0 
L 0 0 
z
" style="fill: #ffffff"/>
  </g>
  <g id="axes_1">
   <g id="patch_2">
    <path d="M 90 320.4 
L 648 320.4 
L 648 43.2 
L 90 43.2 
z
" style="fill: #ffffff"/>
   </g>
   <g id="FillBetweenPolyCollection_1">
    <defs>
     <path id="mb84e0ae8d2" d="M 151.641008 -50.307587 
L 139.958992 -50.307587 
L 138.932124 -50.377626 
L 137.779546 -50.447664 
L 136.497093 -50.517703 
L 135.082748 -50.587742 
L 133.537043 -50.65778 
L 131.863416 -50.727819 
L 130.068515 -50.797857 
L 128.162432 -50.867896 
L 126.158831 -50.937934 
L 124.074973 -51.007973 
L 121.931597 -51.078012 
L 119.752673 -51.14805 
L 117.565009 -51.218089 
L 115.397709 -51.288127 
L 113.281513 -51.358166 
L 111.248018 -51.428204 
L 109.328808 -51.498243 
L 107.554539 -51.568282 
L 105.95399 -51.63832 
L 104.55315 -51.708359 
L 103.374354 -51.778397 
L 102.435523 -51.848436 
L 101.749545 -51.918474 
L 101.32382 -51.988513 
L 101.16 -52.058552 
L 101.253933 -52.12859 
L 101.595819 -52.198629 
L 102.170567 -52.268667 
L 102.958344 -52.338706 
L 103.93528 -52.408744 
L 105.074306 -52.478783 
L 106.346071 -52.548822 
L 107.71991 -52.61886 
L 109.164799 -52.688899 
L 110.650274 -52.758937 
L 112.147257 -52.828976 
L 113.628756 -52.899014 
L 115.07043 -52.969053 
L 116.450982 -53.039092 
L 117.752376 -53.10913 
L 118.9599 -53.179169 
L 120.062058 -53.249207 
L 121.050335 -53.319246 
L 121.918857 -53.389284 
L 122.663966 -53.459323 
L 123.283773 -53.529362 
L 123.777689 -53.5994 
L 124.146007 -53.669439 
L 124.389533 -53.739477 
L 124.50931 -53.809516 
L 124.506452 -53.879555 
L 124.382089 -53.949593 
L 124.13743 -54.019632 
L 123.77394 -54.08967 
L 123.293608 -54.159709 
L 122.699287 -54.229747 
L 121.995086 -54.299786 
L 121.186766 -54.369825 
L 120.282119 -54.439863 
L 119.291292 -54.509902 
L 118.227022 -54.57994 
L 117.104767 -54.649979 
L 115.94269 -54.720017 
L 114.761512 -54.790056 
L 113.584204 -54.860095 
L 112.435539 -54.930133 
L 111.341509 -55.000172 
L 110.328634 -55.07021 
L 109.423192 -55.140249 
L 108.650399 -55.210287 
L 108.033586 -55.280326 
L 107.593407 -55.350365 
L 107.347116 -55.420403 
L 107.307953 -55.490442 
L 107.484661 -55.56048 
L 107.881176 -55.630519 
L 108.496474 -55.700557 
L 109.324613 -55.770596 
L 110.354947 -55.840635 
L 111.572504 -55.910673 
L 112.958513 -55.980712 
L 114.491051 -56.05075 
L 116.145774 -56.120789 
L 117.896704 -56.190827 
L 119.717036 -56.260866 
L 121.579926 -56.330905 
L 123.459235 -56.400943 
L 125.330196 -56.470982 
L 127.16999 -56.54102 
L 128.9582 -56.611059 
L 130.677163 -56.681097 
L 132.312176 -56.751136 
L 133.851603 -56.821175 
L 135.286855 -56.891213 
L 136.612285 -56.961252 
L 137.824984 -57.03129 
L 138.924531 -57.101329 
L 139.912677 -57.171367 
L 140.793012 -57.241406 
L 150.806988 -57.241406 
L 150.806988 -57.241406 
L 151.687323 -57.171367 
L 152.675469 -57.101329 
L 153.775016 -57.03129 
L 154.987715 -56.961252 
L 156.313145 -56.891213 
L 157.748397 -56.821175 
L 159.287824 -56.751136 
L 160.922837 -56.681097 
L 162.6418 -56.611059 
L 164.43001 -56.54102 
L 166.269804 -56.470982 
L 168.140765 -56.400943 
L 170.020074 -56.330905 
L 171.882964 -56.260866 
L 173.703296 -56.190827 
L 175.454226 -56.120789 
L 177.108949 -56.05075 
L 178.641487 -55.980712 
L 180.027496 -55.910673 
L 181.245053 -55.840635 
L 182.275387 -55.770596 
L 183.103526 -55.700557 
L 183.718824 -55.630519 
L 184.115339 -55.56048 
L 184.292047 -55.490442 
L 184.252884 -55.420403 
L 184.006593 -55.350365 
L 183.566414 -55.280326 
L 182.949601 -55.210287 
L 182.176808 -55.140249 
L 181.271366 -55.07021 
L 180.258491 -55.000172 
L 179.164461 -54.930133 
L 178.015796 -54.860095 
L 176.838488 -54.790056 
L 175.65731 -54.720017 
L 174.495233 -54.649979 
L 173.372978 -54.57994 
L 172.308708 -54.509902 
L 171.317881 -54.439863 
L 170.413234 -54.369825 
L 169.604914 -54.299786 
L 168.900713 -54.229747 
L 168.306392 -54.159709 
L 167.82606 -54.08967 
L 167.46257 -54.019632 
L 167.217911 -53.949593 
L 167.093548 -53.879555 
L 167.09069 -53.809516 
L 167.210467 -53.739477 
L 167.453993 -53.669439 
L 167.822311 -53.5994 
L 168.316227 -53.529362 
L 168.936034 -53.459323 
L 169.681143 -53.389284 
L 170.549665 -53.319246 
L 171.537942 -53.249207 
L 172.6401 -53.179169 
L 173.847624 -53.10913 
L 175.149018 -53.039092 
L 176.52957 -52.969053 
L 177.971244 -52.899014 
L 179.452743 -52.828976 
L 180.949726 -52.758937 
L 182.435201 -52.688899 
L 183.88009 -52.61886 
L 185.253929 -52.548822 
L 186.525694 -52.478783 
L 187.66472 -52.408744 
L 188.641656 -52.338706 
L 189.429433 -52.268667 
L 190.004181 -52.198629 
L 190.346067 -52.12859 
L 190.44 -52.058552 
L 190.27618 -51.988513 
L 189.850455 -51.918474 
L 189.164477 -51.848436 
L 188.225646 -51.778397 
L 187.04685 -51.708359 
L 185.64601 -51.63832 
L 184.045461 -51.568282 
L 182.271192 -51.498243 
L 180.351982 -51.428204 
L 178.318487 -51.358166 
L 176.202291 -51.288127 
L 174.034991 -51.218089 
L 171.847327 -51.14805 
L 169.668403 -51.078012 
L 167.525027 -51.007973 
L 165.441169 -50.937934 
L 163.437568 -50.867896 
L 161.531485 -50.797857 
L 159.736584 -50.727819 
L 158.062957 -50.65778 
L 156.517252 -50.587742 
L 155.102907 -50.517703 
L 153.820454 -50.447664 
L 152.667876 -50.377626 
L 151.641008 -50.307587 
z
" style="stroke: #3d3d3d; stroke-width: 1.25"/>
    </defs>
    <g clip-path="url(#pe21e578769)">
     <use xlink:href="#mb84e0ae8d2" x="0" y="360" style="fill: #3274a1; stroke: #3d3d3d; stroke-width: 1.25"/>
    </g>
   </g>
   <g id="FillBetweenPolyCollection_2">
    <defs>
     <path id="mc7496e97db" d="M 257.707049 -45.022988 
L 257.092951 -45.022988 
L 256.991722 -45.146095 
L 256.868872 -45.269202 
L 256.724016 -45.392309 
L 256.558279 -45.515416 
L 256.374596 -45.638523 
L 256.177872 -45.761629 
L 255.974942 -45.884736 
L 255.774289 -46.007843 
L 255.585533 -46.13095 
L 255.418705 -46.254057 
L 255.283374 -46.377164 
L 255.187753 -46.500271 
L 255.137869 -46.623378 
L 255.136936 -46.746484 
L 255.185017 -46.869591 
L 255.279009 -46.992698 
L 255.412982 -47.115805 
L 255.578791 -47.238912 
L 255.766899 -47.362019 
L 255.967278 -47.485126 
L 256.170273 -47.608233 
L 256.367337 -47.731339 
L 256.551555 -47.854446 
L 256.717916 -47.977553 
L 256.863358 -48.10066 
L 256.98659 -48.223767 
L 257.087763 -48.346874 
L 257.168043 -48.469981 
L 257.229125 -48.593088 
L 257.272735 -48.716194 
L 257.300131 -48.839301 
L 257.311604 -48.962408 
L 257.30596 -49.085515 
L 257.279968 -49.208622 
L 257.227766 -49.331729 
L 257.140233 -49.454836 
L 257.004379 -49.577943 
L 256.802829 -49.701049 
L 256.513558 -49.824156 
L 256.110031 -49.947263 
L 255.561956 -50.07037 
L 254.836839 -50.193477 
L 253.902449 -50.316584 
L 252.730213 -50.439691 
L 251.299383 -50.562798 
L 249.601617 -50.685904 
L 247.645423 -50.809011 
L 245.459757 -50.932118 
L 243.096003 -51.055225 
L 240.627641 -51.178332 
L 238.147119 -51.301439 
L 235.75983 -51.424546 
L 233.575562 -51.547653 
L 231.698263 -51.670759 
L 230.215374 -51.793866 
L 229.188217 -51.916973 
L 228.644898 -52.04008 
L 228.576907 -52.163187 
L 228.940047 -52.286294 
L 229.659666 -52.409401 
L 230.639425 -52.532508 
L 231.772275 -52.655614 
L 232.95189 -52.778721 
L 234.082796 -52.901828 
L 235.087663 -53.024935 
L 235.910795 -53.148042 
L 236.517561 -53.271149 
L 236.89029 -53.394256 
L 237.02181 -53.517363 
L 236.908262 -53.640469 
L 236.542948 -53.763576 
L 235.912763 -53.886683 
L 234.998258 -54.00979 
L 233.777636 -54.132897 
L 232.234153 -54.256004 
L 230.365656 -54.379111 
L 228.19437 -54.502218 
L 225.774864 -54.625324 
L 223.198234 -54.748431 
L 220.591072 -54.871538 
L 218.108657 -54.994645 
L 215.922759 -55.117752 
L 214.205484 -55.240859 
L 213.111324 -55.363966 
L 212.76 -55.487073 
L 213.222678 -55.610179 
L 214.51358 -55.733286 
L 216.588228 -55.856393 
L 219.348439 -55.9795 
L 222.653206 -56.102607 
L 226.333702 -56.225714 
L 230.210175 -56.348821 
L 234.108412 -56.471928 
L 237.873747 -56.595035 
L 241.381193 -56.718141 
L 244.541011 -56.841248 
L 247.299804 -56.964355 
L 249.637794 -57.087462 
L 251.563362 -57.210569 
L 263.236638 -57.210569 
L 263.236638 -57.210569 
L 265.162206 -57.087462 
L 267.500196 -56.964355 
L 270.258989 -56.841248 
L 273.418807 -56.718141 
L 276.926253 -56.595035 
L 280.691588 -56.471928 
L 284.589825 -56.348821 
L 288.466298 -56.225714 
L 292.146794 -56.102607 
L 295.451561 -55.9795 
L 298.211772 -55.856393 
L 300.28642 -55.733286 
L 301.577322 -55.610179 
L 302.04 -55.487073 
L 301.688676 -55.363966 
L 300.594516 -55.240859 
L 298.877241 -55.117752 
L 296.691343 -54.994645 
L 294.208928 -54.871538 
L 291.601766 -54.748431 
L 289.025136 -54.625324 
L 286.60563 -54.502218 
L 284.434344 -54.379111 
L 282.565847 -54.256004 
L 281.022364 -54.132897 
L 279.801742 -54.00979 
L 278.887237 -53.886683 
L 278.257052 -53.763576 
L 277.891738 -53.640469 
L 277.77819 -53.517363 
L 277.90971 -53.394256 
L 278.282439 -53.271149 
L 278.889205 -53.148042 
L 279.712337 -53.024935 
L 280.717204 -52.901828 
L 281.84811 -52.778721 
L 283.027725 -52.655614 
L 284.160575 -52.532508 
L 285.140334 -52.409401 
L 285.859953 -52.286294 
L 286.223093 -52.163187 
L 286.155102 -52.04008 
L 285.611783 -51.916973 
L 284.584626 -51.793866 
L 283.101737 -51.670759 
L 281.224438 -51.547653 
L 279.04017 -51.424546 
L 276.652881 -51.301439 
L 274.172359 -51.178332 
L 271.703997 -51.055225 
L 269.340243 -50.932118 
L 267.154577 -50.809011 
L 265.198383 -50.685904 
L 263.500617 -50.562798 
L 262.069787 -50.439691 
L 260.897551 -50.316584 
L 259.963161 -50.193477 
L 259.238044 -50.07037 
L 258.689969 -49.947263 
L 258.286442 -49.824156 
L 257.997171 -49.701049 
L 257.795621 -49.577943 
L 257.659767 -49.454836 
L 257.572234 -49.331729 
L 257.520032 -49.208622 
L 257.49404 -49.085515 
L 257.488396 -48.962408 
L 257.499869 -48.839301 
L 257.527265 -48.716194 
L 257.570875 -48.593088 
L 257.631957 -48.469981 
L 257.712237 -48.346874 
L 257.81341 -48.223767 
L 257.936642 -48.10066 
L 258.082084 -47.977553 
L 258.248445 -47.854446 
L 258.432663 -47.731339 
L 258.629727 -47.608233 
L 258.832722 -47.485126 
L 259.033101 -47.362019 
L 259.221209 -47.238912 
L 259.387018 -47.115805 
L 259.520991 -46.992698 
L 259.614983 -46.869591 
L 259.663064 -46.746484 
L 259.662131 -46.623378 
L 259.612247 -46.500271 
L 259.516626 -46.377164 
L 259.381295 -46.254057 
L 259.214467 -46.13095 
L 259.025711 -46.007843 
L 258.825058 -45.884736 
L 258.622128 -45.761629 
L 258.425404 -45.638523 
L 258.241721 -45.515416 
L 258.075984 -45.392309 
L 257.931128 -45.269202 
L 257.808278 -45.146095 
L 257.707049 -45.022988 
z
" style="stroke: #3d3d3d; stroke-width: 1.25"/>
    </defs>
    <g clip-path="url(#pe21e578769)">
     <use xlink:href="#mc7496e97db" x="0" y="360" style="fill: #e1812c; stroke: #3d3d3d; stroke-width: 1.25"/>
    </g>
   </g>
   <g id="FillBetweenPolyCollection_3">
    <defs>
     <path id="mf764accffc" d="M 369.442464 -44.497283 
L 368.557536 -44.497283 
L 368.439316 -44.63101 
L 368.300029 -44.764737 
L 368.139076 -44.898464 
L 367.95679 -45.032192 
L 367.754622 -45.165919 
L 367.535285 -45.299646 
L 367.302821 -45.433373 
L 367.062577 -45.5671 
L 366.821067 -45.700828 
L 366.585729 -45.834555 
L 366.364575 -45.968282 
L 366.16575 -46.102009 
L 365.997046 -46.235736 
L 365.865397 -46.369463 
L 365.776403 -46.503191 
L 365.733937 -46.636918 
L 365.739858 -46.770645 
L 365.793867 -46.904372 
L 365.893526 -47.038099 
L 366.034413 -47.171827 
L 366.210428 -47.305554 
L 366.414178 -47.439281 
L 366.637436 -47.573008 
L 366.871594 -47.706735 
L 367.108078 -47.840463 
L 367.338688 -47.97419 
L 367.555816 -48.107917 
L 367.752535 -48.241644 
L 367.922556 -48.375371 
L 368.060049 -48.509098 
L 368.15938 -48.642826 
L 368.214766 -48.776553 
L 368.219925 -48.91028 
L 368.167749 -49.044007 
L 368.050071 -49.177734 
L 367.85757 -49.311462 
L 367.579871 -49.445189 
L 367.205869 -49.578916 
L 366.724312 -49.712643 
L 366.124639 -49.84637 
L 365.398038 -49.980097 
L 364.538679 -50.113825 
L 363.545025 -50.247552 
L 362.421102 -50.381279 
L 361.17758 -50.515006 
L 359.832523 -50.648733 
L 358.411653 -50.782461 
L 356.948023 -50.916188 
L 355.481001 -51.049915 
L 354.054582 -51.183642 
L 352.715065 -51.317369 
L 351.508236 -51.451096 
L 350.476255 -51.584824 
L 349.654485 -51.718551 
L 349.068543 -51.852278 
L 348.731817 -51.986005 
L 348.643698 -52.119732 
L 348.788662 -52.25346 
L 349.136317 -52.387187 
L 349.64241 -52.520914 
L 350.250724 -52.654641 
L 350.895735 -52.788368 
L 351.505866 -52.922096 
L 352.007142 -53.055823 
L 352.327067 -53.18955 
L 352.398556 -53.323277 
L 352.163748 -53.457004 
L 351.577596 -53.590731 
L 350.611059 -53.724459 
L 349.253773 -53.858186 
L 347.516021 -53.991913 
L 345.429837 -54.12564 
L 343.049048 -54.259367 
L 340.4481 -54.393095 
L 337.719547 -54.526822 
L 334.970196 -54.660549 
L 332.315995 -54.794276 
L 329.875891 -54.928003 
L 327.765046 -55.06173 
L 326.087871 -55.195458 
L 324.931465 -55.329185 
L 324.36 -55.462912 
L 324.410587 -55.596639 
L 325.091019 -55.730366 
L 326.379599 -55.864094 
L 328.227087 -55.997821 
L 330.560558 -56.131548 
L 333.288799 -56.265275 
L 336.308718 -56.399002 
L 339.512164 -56.532729 
L 342.792565 -56.666457 
L 346.050836 -56.800184 
L 349.200132 -56.933911 
L 352.169202 -57.067638 
L 354.904213 -57.201365 
L 357.369126 -57.335093 
L 359.544799 -57.46882 
L 361.427102 -57.602547 
L 363.024359 -57.736274 
L 374.975641 -57.736274 
L 374.975641 -57.736274 
L 376.572898 -57.602547 
L 378.455201 -57.46882 
L 380.630874 -57.335093 
L 383.095787 -57.201365 
L 385.830798 -57.067638 
L 388.799868 -56.933911 
L 391.949164 -56.800184 
L 395.207435 -56.666457 
L 398.487836 -56.532729 
L 401.691282 -56.399002 
L 404.711201 -56.265275 
L 407.439442 -56.131548 
L 409.772913 -55.997821 
L 411.620401 -55.864094 
L 412.908981 -55.730366 
L 413.589413 -55.596639 
L 413.64 -55.462912 
L 413.068535 -55.329185 
L 411.912129 -55.195458 
L 410.234954 -55.06173 
L 408.124109 -54.928003 
L 405.684005 -54.794276 
L 403.029804 -54.660549 
L 400.280453 -54.526822 
L 397.5519 -54.393095 
L 394.950952 -54.259367 
L 392.570163 -54.12564 
L 390.483979 -53.991913 
L 388.746227 -53.858186 
L 387.388941 -53.724459 
L 386.422404 -53.590731 
L 385.836252 -53.457004 
L 385.601444 -53.323277 
L 385.672933 -53.18955 
L 385.992858 -53.055823 
L 386.494134 -52.922096 
L 387.104265 -52.788368 
L 387.749276 -52.654641 
L 388.35759 -52.520914 
L 388.863683 -52.387187 
L 389.211338 -52.25346 
L 389.356302 -52.119732 
L 389.268183 -51.986005 
L 388.931457 -51.852278 
L 388.345515 -51.718551 
L 387.523745 -51.584824 
L 386.491764 -51.451096 
L 385.284935 -51.317369 
L 383.945418 -51.183642 
L 382.518999 -51.049915 
L 381.051977 -50.916188 
L 379.588347 -50.782461 
L 378.167477 -50.648733 
L 376.82242 -50.515006 
L 375.578898 -50.381279 
L 374.454975 -50.247552 
L 373.461321 -50.113825 
L 372.601962 -49.980097 
L 371.875361 -49.84637 
L 371.275688 -49.712643 
L 370.794131 -49.578916 
L 370.420129 -49.445189 
L 370.14243 -49.311462 
L 369.949929 -49.177734 
L 369.832251 -49.044007 
L 369.780075 -48.91028 
L 369.785234 -48.776553 
L 369.84062 -48.642826 
L 369.939951 -48.509098 
L 370.077444 -48.375371 
L 370.247465 -48.241644 
L 370.444184 -48.107917 
L 370.661312 -47.97419 
L 370.891922 -47.840463 
L 371.128406 -47.706735 
L 371.362564 -47.573008 
L 371.585822 -47.439281 
L 371.789572 -47.305554 
L 371.965587 -47.171827 
L 372.106474 -47.038099 
L 372.206133 -46.904372 
L 372.260142 -46.770645 
L 372.266063 -46.636918 
L 372.223597 -46.503191 
L 372.134603 -46.369463 
L 372.002954 -46.235736 
L 371.83425 -46.102009 
L 371.635425 -45.968282 
L 371.414271 -45.834555 
L 371.178933 -45.700828 
L 370.937423 -45.5671 
L 370.697179 -45.433373 
L 370.464715 -45.299646 
L 370.245378 -45.165919 
L 370.04321 -45.032192 
L 369.860924 -44.898464 
L 369.699971 -44.764737 
L 369.560684 -44.63101 
L 369.442464 -44.497283 
z
" style="stroke: #3d3d3d; stroke-width: 1.25"/>
    </defs>
    <g clip-path="url(#pe21e578769)">
     <use xlink:href="#mf764accffc" x="0" y="360" style="fill: #3a923a; stroke: #3d3d3d; stroke-width: 1.25"/>
    </g>
   </g>
   <g id="FillBetweenPolyCollection_4">
    <defs>
     <path id="m9d3e82c9ca" d="M 481.724438 -44.058246 
L 479.475562 -44.058246 
L 479.211312 -44.200843 
L 478.905027 -44.343439 
L 478.555391 -44.486036 
L 478.162486 -44.628633 
L 477.728073 -44.771229 
L 477.255825 -44.913826 
L 476.751478 -45.056422 
L 476.22288 -45.199019 
L 475.679916 -45.341616 
L 475.134292 -45.484212 
L 474.599184 -45.626809 
L 474.088746 -45.769405 
L 473.617515 -45.912002 
L 473.199731 -46.054599 
L 472.848629 -46.197195 
L 472.575732 -46.339792 
L 472.390212 -46.482389 
L 472.298365 -46.624985 
L 472.303225 -46.767582 
L 472.404367 -46.910178 
L 472.597893 -47.052775 
L 472.87662 -47.195372 
L 473.230431 -47.337968 
L 473.646771 -47.480565 
L 474.111248 -47.623161 
L 474.608279 -47.765758 
L 475.121747 -47.908355 
L 475.635608 -48.050951 
L 476.134424 -48.193548 
L 476.603797 -48.336145 
L 477.030673 -48.478741 
L 477.403539 -48.621338 
L 477.712518 -48.763934 
L 477.949372 -48.906531 
L 478.107469 -49.049128 
L 478.18171 -49.191724 
L 478.168475 -49.334321 
L 478.065594 -49.476917 
L 477.872362 -49.619514 
L 477.58959 -49.762111 
L 477.219708 -49.904707 
L 476.766868 -50.047304 
L 476.237044 -50.189901 
L 475.638078 -50.332497 
L 474.979648 -50.475094 
L 474.273111 -50.61769 
L 473.531212 -50.760287 
L 472.767625 -50.902884 
L 471.996348 -51.04548 
L 471.230949 -51.188077 
L 470.483713 -51.330673 
L 469.764731 -51.47327 
L 469.080994 -51.615867 
L 468.435569 -51.758463 
L 467.826919 -51.90106 
L 467.248452 -52.043657 
L 466.688349 -52.186253 
L 466.129732 -52.32885 
L 465.551185 -52.471446 
L 464.927665 -52.614043 
L 464.231759 -52.75664 
L 463.43527 -52.899236 
L 462.511058 -53.041833 
L 461.435048 -53.184429 
L 460.188302 -53.327026 
L 458.759023 -53.469623 
L 457.144355 -53.612219 
L 455.351841 -53.754816 
L 453.400402 -53.897413 
L 451.320719 -54.040009 
L 449.154926 -54.182606 
L 446.955567 -54.325202 
L 444.783811 -54.467799 
L 442.706986 -54.610396 
L 440.79553 -54.752992 
L 439.119549 -54.895589 
L 437.745169 -55.038185 
L 436.730938 -55.180782 
L 436.124532 -55.323379 
L 435.96 -55.465975 
L 436.255761 -55.608572 
L 437.013504 -55.751169 
L 438.218072 -55.893765 
L 439.838345 -56.036362 
L 441.829035 -56.178958 
L 444.133259 -56.321555 
L 446.685674 -56.464152 
L 449.415948 -56.606748 
L 452.252298 -56.749345 
L 455.124864 -56.891941 
L 457.968693 -57.034538 
L 460.726178 -57.177135 
L 463.348831 -57.319731 
L 465.79836 -57.462328 
L 468.047049 -57.604925 
L 470.07751 -57.747521 
L 471.881916 -57.890118 
L 473.46083 -58.032714 
L 474.821787 -58.175311 
L 486.378213 -58.175311 
L 486.378213 -58.175311 
L 487.73917 -58.032714 
L 489.318084 -57.890118 
L 491.12249 -57.747521 
L 493.152951 -57.604925 
L 495.40164 -57.462328 
L 497.851169 -57.319731 
L 500.473822 -57.177135 
L 503.231307 -57.034538 
L 506.075136 -56.891941 
L 508.947702 -56.749345 
L 511.784052 -56.606748 
L 514.514326 -56.464152 
L 517.066741 -56.321555 
L 519.370965 -56.178958 
L 521.361655 -56.036362 
L 522.981928 -55.893765 
L 524.186496 -55.751169 
L 524.944239 -55.608572 
L 525.24 -55.465975 
L 525.075468 -55.323379 
L 524.469062 -55.180782 
L 523.454831 -55.038185 
L 522.080451 -54.895589 
L 520.40447 -54.752992 
L 518.493014 -54.610396 
L 516.416189 -54.467799 
L 514.244433 -54.325202 
L 512.045074 -54.182606 
L 509.879281 -54.040009 
L 507.799598 -53.897413 
L 505.848159 -53.754816 
L 504.055645 -53.612219 
L 502.440977 -53.469623 
L 501.011698 -53.327026 
L 499.764952 -53.184429 
L 498.688942 -53.041833 
L 497.76473 -52.899236 
L 496.968241 -52.75664 
L 496.272335 -52.614043 
L 495.648815 -52.471446 
L 495.070268 -52.32885 
L 494.511651 -52.186253 
L 493.951548 -52.043657 
L 493.373081 -51.90106 
L 492.764431 -51.758463 
L 492.119006 -51.615867 
L 491.435269 -51.47327 
L 490.716287 -51.330673 
L 489.969051 -51.188077 
L 489.203652 -51.04548 
L 488.432375 -50.902884 
L 487.668788 -50.760287 
L 486.926889 -50.61769 
L 486.220352 -50.475094 
L 485.561922 -50.332497 
L 484.962956 -50.189901 
L 484.433132 -50.047304 
L 483.980292 -49.904707 
L 483.61041 -49.762111 
L 483.327638 -49.619514 
L 483.134406 -49.476917 
L 483.031525 -49.334321 
L 483.01829 -49.191724 
L 483.092531 -49.049128 
L 483.250628 -48.906531 
L 483.487482 -48.763934 
L 483.796461 -48.621338 
L 484.169327 -48.478741 
L 484.596203 -48.336145 
L 485.065576 -48.193548 
L 485.564392 -48.050951 
L 486.078253 -47.908355 
L 486.591721 -47.765758 
L 487.088752 -47.623161 
L 487.553229 -47.480565 
L 487.969569 -47.337968 
L 488.32338 -47.195372 
L 488.602107 -47.052775 
L 488.795633 -46.910178 
L 488.896775 -46.767582 
L 488.901635 -46.624985 
L 488.809788 -46.482389 
L 488.624268 -46.339792 
L 488.351371 -46.197195 
L 488.000269 -46.054599 
L 487.582485 -45.912002 
L 487.111254 -45.769405 
L 486.600816 -45.626809 
L 486.065708 -45.484212 
L 485.520084 -45.341616 
L 484.97712 -45.199019 
L 484.448522 -45.056422 
L 483.944175 -44.913826 
L 483.471927 -44.771229 
L 483.037514 -44.628633 
L 482.644609 -44.486036 
L 482.294973 -44.343439 
L 481.988688 -44.200843 
L 481.724438 -44.058246 
z
" style="stroke: #3d3d3d; stroke-width: 1.25"/>
    </defs>
    <g clip-path="url(#pe21e578769)">
     <use xlink:href="#m9d3e82c9ca" x="0" y="360" style="fill: #c03d3e; stroke: #3d3d3d; stroke-width: 1.25"/>
    </g>
   </g>
   <g id="patch_3">
    <path d="M 212.76 320.4 
L 257.4 320.4 
L 257.4 242.440268 
L 212.76 242.440268 
z
" clip-path="url(#pe21e578769)" style="fill: #3274a1"/>
   </g>
   <g id="patch_4">
    <path d="M 547.56 320.4 
L 592.2 320.4 
L 592.2 185.742282 
L 547.56 185.742282 
z
" clip-path="url(#pe21e578769)" style="fill: #3274a1"/>
   </g>
   <g id="patch_5">
    <path d="M 257.4 320.4 
L 302.04 320.4 
L 302.04 263.702013 
L 257.4 263.702013 
z
" clip-path="url(#pe21e578769)" style="fill: #e1812c"/>
   </g>
   <g id="patch_6">
    <path d="M 592.2 320.4 
L 636.84 320.4 
L 636.84 214.091275 
L 592.2 214.091275 
z
" clip-path="url(#pe21e578769)" style="fill: #e1812c"/>
   </g>
   <g id="patch_7">
    <path d="M 145.8 320.4 
L 145.8 320.4 
L 145.8 320.4 
L 145.8 320.4 
z
" clip-path="url(#pe21e578769)" style="fill: #3274a1"/>
   </g>
   <g id="patch_8">
    <path d="M 145.8 320.4 
L 145.8 320.4 
L 145.8 320.4 
L 145.8 320.4 
z
" clip-path="url(#pe21e578769)" style="fill: #e1812c"/>
   </g>
   <g id="patch_9">
    <path d="M 212.76 320.4 
L 257.4 320.4 
L 257.4 304.453691 
L 212.76 304.453691 
z
" clip-path="url(#pe21e578769)" style="fill: #3274a1"/>
   </g>
   <g id="patch_10">
    <path d="M 547.56 320.4 
L 592.2 320.4 
L 592.2 300.910067 
L 547.56 300.910067 
z
" clip-path="url(#pe21e578769)" style="fill: #3274a1"/>
   </g>
   <g id="patch_11">
    <path d="M 257.4 320.4 
L 302.04 320.4 
L 302.04 201.688591 
L 257.4 201.688591 
z
" clip-path="url(#pe21e578769)" style="fill: #e1812c"/>
   </g>
   <g id="patch_12">
    <path d="M 592.2 320.4 
L 636.84 320.4 
L 636.84 98.92349 
L 592.2 98.92349 
z
" clip-path="url(#pe21e578769)" style="fill: #e1812c"/>
   </g>
   <g id="patch_13">
    <path d="M 145.8 320.4 
L 145.8 320.4 
L 145.8 320.4 
L 145.8 320.4 
z
" clip-path="url(#pe21e578769)" style="fill: #3274a1"/>
   </g>
   <g id="patch_14">
    <path d="M 145.8 320.4 
L 145.8 320.4 
L 145.8 320.4 
L 145.8 320.4 
z
" clip-path="url(#pe21e578769)" style="fill: #e1812c"/>
   </g>
   <g id="patch_15">
    <path d="M 212.76 320.4 
L 257.4 320.4 
L 257.4 253.071141 
L 212.76 253.071141 
z
" clip-path="url(#pe21e578769)" style="fill: #3274a1"/>
   </g>
   <g id="patch_16">
    <path d="M 547.56 320.4 
L 592.2 320.4 
L 592.2 217.634899 
L 547.56 217.634899 
z
" clip-path="url(#pe21e578769)" style="fill: #3274a1"/>
   </g>
   <g id="patch_17">
    <path d="M 257.4 320.4 
L 302.04 320.4 
L 302.04 253.071141 
L 257.4 253.071141 
z
" clip-path="url(#pe21e578769)" style="fill: #e1812c"/>
   </g>
   <g id="patch_18">
    <path d="M 592.2 320.4 
L 636.84 320.4 
L 636.84 182.198658 
L 592.2 182.198658 
z
" clip-path="url(#pe21e578769)" style="fill: #e1812c"/>
   </g>
   <g id="patch_19">
    <path d="M 145.8 320.4 
L 145.8 320.4 
L 145.8 320.4 
L 145.8 320.4 
z
" clip-path="url(#pe21e578769)" style="fill: #3274a1"/>
   </g>
   <g id="patch_20">
    <path d="M 145.8 320.4 
L 145.8 320.4 
L 145.8 320.4 
L 145.8 320.4 
z
" clip-path="url(#pe21e578769)" style="fill: #e1812c"/>
   </g>
   <g id="patch_21">
    <path d="M 212.76 320.4 
L 302.04 320.4 
L 302.04 185.742282 
L 212.76 185.742282 
z
" clip-path="url(#pe21e578769)" style="fill: #3274a1"/>
   </g>
   <g id="patch_22">
    <path d="M 547.56 320.4 
L 636.84 320.4 
L 636.84 79.433557 
L 547.56 79.433557 
z
" clip-path="url(#pe21e578769)" style="fill: #3274a1"/>
   </g>
   <g id="patch_23">
    <path d="M 145.8 320.4 
L 145.8 320.4 
L 145.8 320.4 
L 145.8 320.4 
z
" clip-path="url(#pe21e578769)" style="fill: #3274a1"/>
   </g>
   <g id="patch_24">
    <path d="M 212.76 320.4 
L 257.4 320.4 
L 257.4 189.285906 
L 212.76 189.285906 
z
" clip-path="url(#pe21e578769)" style="fill: #3274a1"/>
   </g>
   <g id="patch_25">
    <path d="M 547.56 320.4 
L 592.2 320.4 
L 592.2 56.4 
L 547.56 56.4 
z
" clip-path="url(#pe21e578769)" style="fill: #3274a1"/>
   </g>
   <g id="patch_26">
    <path d="M 257.4 320.4 
L 302.04 320.4 
L 302.04 316.856376 
L 257.4 316.856376 
z
" clip-path="url(#pe21e578769)" style="fill: #e1812c"/>
   </g>
   <g id="patch_27">
    <path d="M 592.2 320.4 
L 636.84 320.4 
L 636.84 302.681879 
L 592.2 302.681879 
z
" clip-path="url(#pe21e578769)" style="fill: #e1812c"/>
   </g>
   <g id="patch_28">
    <path d="M 145.8 320.4 
L 145.8 320.4 
L 145.8 320.4 
L 145.8 320.4 
z
" clip-path="url(#pe21e578769)" style="fill: #3274a1"/>
   </g>
   <g id="patch_29">
    <path d="M 145.8 320.4 
L 145.8 320.4 
L 145.8 320.4 
L 145.8 320.4 
z
" clip-path="url(#pe21e578769)" style="fill: #e1812c"/>
   </g>
   <g id="matplotlib.axis_1">
    <g id="xtick_1">
     <g id="line2d_1">
      <defs>
       <path id="m972effeacb" d="M 0 0 
L 0 3.5 
" style="stroke: #000000; stroke-width: 0.8"/>
      </defs>
      <g>
       <use xlink:href="#m972effeacb" x="145.8" y="320.4" style="stroke: #000000; stroke-width: 0.8"/>
      </g>
     </g>
     <g id="text_1">
      <!-- No -->
      <g transform="translate(139 334.998438) scale(0.1 -0.1)">
       <defs>
        <path id="DejaVuSans-4e" d="M 628 4666 
L 1478 4666 
L 3547 763 
L 3547 4666 
L 4159 4666 
L 4159 0 
L 3309 0 
L 1241 3903 
L 1241 0 
L 628 0 
L 628 4666 
z
" transform="scale(0.015625)"/>
        <path id="DejaVuSans-6f" d="M 1959 3097 
Q 1497 3097 1228 2736 
Q 959 2375 959 1747 
Q 959 1119 1226 758 
Q 1494 397 1959 397 
Q 2419 397 2687 759 
Q 2956 1122 2956 1747 
Q 2956 2369 2687 2733 
Q 2419 3097 1959 3097 
z
M 1959 3584 
Q 2709 3584 3137 3096 
Q 3566 2609 3566 1747 
Q 3566 888 3137 398 
Q 2709 -91 1959 -91 
Q 1206 -91 779 398 
Q 353 888 353 1747 
Q 353 2609 779 3096 
Q 1206 3584 1959 3584 
z
" transform="scale(0.015625)"/>
       </defs>
       <use xlink:href="#DejaVuSans-4e"/>
       <use xlink:href="#DejaVuSans-6f" transform="translate(74.804688 0)"/>
      </g>
     </g>
    </g>
    <g id="xtick_2">
     <g id="line2d_2">
      <g>
       <use xlink:href="#m972effeacb" x="257.4" y="320.4" style="stroke: #000000; stroke-width: 0.8"/>
      </g>
     </g>
     <g id="text_2">
      <!-- Specific -->
      <g transform="translate(237.938281 334.998438) scale(0.1 -0.1)">
       <defs>
        <path id="DejaVuSans-53" d="M 3425 4513 
L 3425 3897 
Q 3066 4069 2747 4153 
Q 2428 4238 2131 4238 
Q 1616 4238 1336 4038 
Q 1056 3838 1056 3469 
Q 1056 3159 1242 3001 
Q 1428 2844 1947 2747 
L 2328 2669 
Q 3034 2534 3370 2195 
Q 3706 1856 3706 1288 
Q 3706 609 3251 259 
Q 2797 -91 1919 -91 
Q 1588 -91 1214 -16 
Q 841 59 441 206 
L 441 856 
Q 825 641 1194 531 
Q 1563 422 1919 422 
Q 2459 422 2753 634 
Q 3047 847 3047 1241 
Q 3047 1584 2836 1778 
Q 2625 1972 2144 2069 
L 1759 2144 
Q 1053 2284 737 2584 
Q 422 2884 422 3419 
Q 422 4038 858 4394 
Q 1294 4750 2059 4750 
Q 2388 4750 2728 4690 
Q 3069 4631 3425 4513 
z
" transform="scale(0.015625)"/>
        <path id="DejaVuSans-70" d="M 1159 525 
L 1159 -1331 
L 581 -1331 
L 581 3500 
L 1159 3500 
L 1159 2969 
Q 1341 3281 1617 3432 
Q 1894 3584 2278 3584 
Q 2916 3584 3314 3078 
Q 3713 2572 3713 1747 
Q 3713 922 3314 415 
Q 2916 -91 2278 -91 
Q 1894 -91 1617 61 
Q 1341 213 1159 525 
z
M 3116 1747 
Q 3116 2381 2855 2742 
Q 2594 3103 2138 3103 
Q 1681 3103 1420 2742 
Q 1159 2381 1159 1747 
Q 1159 1113 1420 752 
Q 1681 391 2138 391 
Q 2594 391 2855 752 
Q 3116 1113 3116 1747 
z
" transform="scale(0.015625)"/>
        <path id="DejaVuSans-65" d="M 3597 1894 
L 3597 1613 
L 953 1613 
Q 991 1019 1311 708 
Q 1631 397 2203 397 
Q 2534 397 2845 478 
Q 3156 559 3463 722 
L 3463 178 
Q 3153 47 2828 -22 
Q 2503 -91 2169 -91 
Q 1331 -91 842 396 
Q 353 884 353 1716 
Q 353 2575 817 3079 
Q 1281 3584 2069 3584 
Q 2775 3584 3186 3129 
Q 3597 2675 3597 1894 
z
M 3022 2063 
Q 3016 2534 2758 2815 
Q 2500 3097 2075 3097 
Q 1594 3097 1305 2825 
Q 1016 2553 972 2059 
L 3022 2063 
z
" transform="scale(0.015625)"/>
        <path id="DejaVuSans-63" d="M 3122 3366 
L 3122 2828 
Q 2878 2963 2633 3030 
Q 2388 3097 2138 3097 
Q 1578 3097 1268 2742 
Q 959 2388 959 1747 
Q 959 1106 1268 751 
Q 1578 397 2138 397 
Q 2388 397 2633 464 
Q 2878 531 3122 666 
L 3122 134 
Q 2881 22 2623 -34 
Q 2366 -91 2075 -91 
Q 1284 -91 818 406 
Q 353 903 353 1747 
Q 353 2603 823 3093 
Q 1294 3584 2113 3584 
Q 2378 3584 2631 3529 
Q 2884 3475 3122 3366 
z
" transform="scale(0.015625)"/>
        <path id="DejaVuSans-69" d="M 603 3500 
L 1178 3500 
L 1178 0 
L 603 0 
L 603 3500 
z
M 603 4863 
L 1178 4863 
L 1178 4134 
L 603 4134 
L 603 4863 
z
" transform="scale(0.015625)"/>
        <path id="DejaVuSans-66" d="M 2375 4863 
L 2375 4384 
L 1825 4384 
Q 1516 4384 1395 4259 
Q 1275 4134 1275 3809 
L 1275 3500 
L 2222 3500 
L 2222 3053 
L 1275 3053 
L 1275 0 
L 697 0 
L 697 3053 
L 147 3053 
L 147 3500 
L 697 3500 
L 697 3744 
Q 697 4328 969 4595 
Q 1241 4863 1831 4863 
L 2375 4863 
z
" transform="scale(0.015625)"/>
       </defs>
       <use xlink:href="#DejaVuSans-53"/>
       <use xlink:href="#DejaVuSans-70" transform="translate(63.476562 0)"/>
       <use xlink:href="#DejaVuSans-65" transform="translate(126.953125 0)"/>
       <use xlink:href="#DejaVuSans-63" transform="translate(188.476562 0)"/>
       <use xlink:href="#DejaVuSans-69" transform="translate(243.457031 0)"/>
       <use xlink:href="#DejaVuSans-66" transform="translate(271.240234 0)"/>
       <use xlink:href="#DejaVuSans-69" transform="translate(306.445312 0)"/>
       <use xlink:href="#DejaVuSans-63" transform="translate(334.228516 0)"/>
      </g>
     </g>
    </g>
    <g id="xtick_3">
     <g id="line2d_3">
      <g>
       <use xlink:href="#m972effeacb" x="369" y="320.4" style="stroke: #000000; stroke-width: 0.8"/>
      </g>
     </g>
     <g id="text_3">
      <!-- Spurious -->
      <g transform="translate(347.205469 334.998438) scale(0.1 -0.1)">
       <defs>
        <path id="DejaVuSans-75" d="M 544 1381 
L 544 3500 
L 1119 3500 
L 1119 1403 
Q 1119 906 1312 657 
Q 1506 409 1894 409 
Q 2359 409 2629 706 
Q 2900 1003 2900 1516 
L 2900 3500 
L 3475 3500 
L 3475 0 
L 2900 0 
L 2900 538 
Q 2691 219 2414 64 
Q 2138 -91 1772 -91 
Q 1169 -91 856 284 
Q 544 659 544 1381 
z
M 1991 3584 
L 1991 3584 
z
" transform="scale(0.015625)"/>
        <path id="DejaVuSans-72" d="M 2631 2963 
Q 2534 3019 2420 3045 
Q 2306 3072 2169 3072 
Q 1681 3072 1420 2755 
Q 1159 2438 1159 1844 
L 1159 0 
L 581 0 
L 581 3500 
L 1159 3500 
L 1159 2956 
Q 1341 3275 1631 3429 
Q 1922 3584 2338 3584 
Q 2397 3584 2469 3576 
Q 2541 3569 2628 3553 
L 2631 2963 
z
" transform="scale(0.015625)"/>
        <path id="DejaVuSans-73" d="M 2834 3397 
L 2834 2853 
Q 2591 2978 2328 3040 
Q 2066 3103 1784 3103 
Q 1356 3103 1142 2972 
Q 928 2841 928 2578 
Q 928 2378 1081 2264 
Q 1234 2150 1697 2047 
L 1894 2003 
Q 2506 1872 2764 1633 
Q 3022 1394 3022 966 
Q 3022 478 2636 193 
Q 2250 -91 1575 -91 
Q 1294 -91 989 -36 
Q 684 19 347 128 
L 347 722 
Q 666 556 975 473 
Q 1284 391 1588 391 
Q 1994 391 2212 530 
Q 2431 669 2431 922 
Q 2431 1156 2273 1281 
Q 2116 1406 1581 1522 
L 1381 1569 
Q 847 1681 609 1914 
Q 372 2147 372 2553 
Q 372 3047 722 3315 
Q 1072 3584 1716 3584 
Q 2034 3584 2315 3537 
Q 2597 3491 2834 3397 
z
" transform="scale(0.015625)"/>
       </defs>
       <use xlink:href="#DejaVuSans-53"/>
       <use xlink:href="#DejaVuSans-70" transform="translate(63.476562 0)"/>
       <use xlink:href="#DejaVuSans-75" transform="translate(126.953125 0)"/>
       <use xlink:href="#DejaVuSans-72" transform="translate(190.332031 0)"/>
       <use xlink:href="#DejaVuSans-69" transform="translate(231.445312 0)"/>
       <use xlink:href="#DejaVuSans-6f" transform="translate(259.228516 0)"/>
       <use xlink:href="#DejaVuSans-75" transform="translate(320.410156 0)"/>
       <use xlink:href="#DejaVuSans-73" transform="translate(383.789062 0)"/>
      </g>
     </g>
    </g>
    <g id="xtick_4">
     <g id="line2d_4">
      <g>
       <use xlink:href="#m972effeacb" x="480.6" y="320.4" style="stroke: #000000; stroke-width: 0.8"/>
      </g>
     </g>
     <g id="text_4">
      <!-- Non-specific -->
      <g transform="translate(449.935156 334.998438) scale(0.1 -0.1)">
       <defs>
        <path id="DejaVuSans-6e" d="M 3513 2113 
L 3513 0 
L 2938 0 
L 2938 2094 
Q 2938 2591 2744 2837 
Q 2550 3084 2163 3084 
Q 1697 3084 1428 2787 
Q 1159 2491 1159 1978 
L 1159 0 
L 581 0 
L 581 3500 
L 1159 3500 
L 1159 2956 
Q 1366 3272 1645 3428 
Q 1925 3584 2291 3584 
Q 2894 3584 3203 3211 
Q 3513 2838 3513 2113 
z
" transform="scale(0.015625)"/>
        <path id="DejaVuSans-2d" d="M 313 2009 
L 1997 2009 
L 1997 1497 
L 313 1497 
L 313 2009 
z
" transform="scale(0.015625)"/>
       </defs>
       <use xlink:href="#DejaVuSans-4e"/>
       <use xlink:href="#DejaVuSans-6f" transform="translate(74.804688 0)"/>
       <use xlink:href="#DejaVuSans-6e" transform="translate(135.986328 0)"/>
       <use xlink:href="#DejaVuSans-2d" transform="translate(199.365234 0)"/>
       <use xlink:href="#DejaVuSans-73" transform="translate(235.449219 0)"/>
       <use xlink:href="#DejaVuSans-70" transform="translate(287.548828 0)"/>
       <use xlink:href="#DejaVuSans-65" transform="translate(351.025391 0)"/>
       <use xlink:href="#DejaVuSans-63" transform="translate(412.548828 0)"/>
       <use xlink:href="#DejaVuSans-69" transform="translate(467.529297 0)"/>
       <use xlink:href="#DejaVuSans-66" transform="translate(495.3125 0)"/>
       <use xlink:href="#DejaVuSans-69" transform="translate(530.517578 0)"/>
       <use xlink:href="#DejaVuSans-63" transform="translate(558.300781 0)"/>
      </g>
     </g>
    </g>
    <g id="xtick_5">
     <g id="line2d_5">
      <g>
       <use xlink:href="#m972effeacb" x="592.2" y="320.4" style="stroke: #000000; stroke-width: 0.8"/>
      </g>
     </g>
     <g id="text_5">
      <!-- other -->
      <g transform="translate(578.879688 334.998438) scale(0.1 -0.1)">
       <defs>
        <path id="DejaVuSans-74" d="M 1172 4494 
L 1172 3500 
L 2356 3500 
L 2356 3053 
L 1172 3053 
L 1172 1153 
Q 1172 725 1289 603 
Q 1406 481 1766 481 
L 2356 481 
L 2356 0 
L 1766 0 
Q 1100 0 847 248 
Q 594 497 594 1153 
L 594 3053 
L 172 3053 
L 172 3500 
L 594 3500 
L 594 4494 
L 1172 4494 
z
" transform="scale(0.015625)"/>
        <path id="DejaVuSans-68" d="M 3513 2113 
L 3513 0 
L 2938 0 
L 2938 2094 
Q 2938 2591 2744 2837 
Q 2550 3084 2163 3084 
Q 1697 3084 1428 2787 
Q 1159 2491 1159 1978 
L 1159 0 
L 581 0 
L 581 4863 
L 1159 4863 
L 1159 2956 
Q 1366 3272 1645 3428 
Q 1925 3584 2291 3584 
Q 2894 3584 3203 3211 
Q 3513 2838 3513 2113 
z
" transform="scale(0.015625)"/>
       </defs>
       <use xlink:href="#DejaVuSans-6f"/>
       <use xlink:href="#DejaVuSans-74" transform="translate(61.181641 0)"/>
       <use xlink:href="#DejaVuSans-68" transform="translate(100.390625 0)"/>
       <use xlink:href="#DejaVuSans-65" transform="translate(163.769531 0)"/>
       <use xlink:href="#DejaVuSans-72" transform="translate(225.292969 0)"/>
      </g>
     </g>
    </g>
    <g id="text_6">
     <!-- Connectivity category -->
     <g transform="translate(313.98125 348.676562) scale(0.1 -0.1)">
      <defs>
       <path id="DejaVuSans-43" d="M 4122 4306 
L 4122 3641 
Q 3803 3938 3442 4084 
Q 3081 4231 2675 4231 
Q 1875 4231 1450 3742 
Q 1025 3253 1025 2328 
Q 1025 1406 1450 917 
Q 1875 428 2675 428 
Q 3081 428 3442 575 
Q 3803 722 4122 1019 
L 4122 359 
Q 3791 134 3420 21 
Q 3050 -91 2638 -91 
Q 1578 -91 968 557 
Q 359 1206 359 2328 
Q 359 3453 968 4101 
Q 1578 4750 2638 4750 
Q 3056 4750 3426 4639 
Q 3797 4528 4122 4306 
z
" transform="scale(0.015625)"/>
       <path id="DejaVuSans-76" d="M 191 3500 
L 800 3500 
L 1894 563 
L 2988 3500 
L 3597 3500 
L 2284 0 
L 1503 0 
L 191 3500 
z
" transform="scale(0.015625)"/>
       <path id="DejaVuSans-79" d="M 2059 -325 
Q 1816 -950 1584 -1140 
Q 1353 -1331 966 -1331 
L 506 -1331 
L 506 -850 
L 844 -850 
Q 1081 -850 1212 -737 
Q 1344 -625 1503 -206 
L 1606 56 
L 191 3500 
L 800 3500 
L 1894 763 
L 2988 3500 
L 3597 3500 
L 2059 -325 
z
" transform="scale(0.015625)"/>
       <path id="DejaVuSans-20" transform="scale(0.015625)"/>
       <path id="DejaVuSans-61" d="M 2194 1759 
Q 1497 1759 1228 1600 
Q 959 1441 959 1056 
Q 959 750 1161 570 
Q 1363 391 1709 391 
Q 2188 391 2477 730 
Q 2766 1069 2766 1631 
L 2766 1759 
L 2194 1759 
z
M 3341 1997 
L 3341 0 
L 2766 0 
L 2766 531 
Q 2569 213 2275 61 
Q 1981 -91 1556 -91 
Q 1019 -91 701 211 
Q 384 513 384 1019 
Q 384 1609 779 1909 
Q 1175 2209 1959 2209 
L 2766 2209 
L 2766 2266 
Q 2766 2663 2505 2880 
Q 2244 3097 1772 3097 
Q 1472 3097 1187 3025 
Q 903 2953 641 2809 
L 641 3341 
Q 956 3463 1253 3523 
Q 1550 3584 1831 3584 
Q 2591 3584 2966 3190 
Q 3341 2797 3341 1997 
z
" transform="scale(0.015625)"/>
       <path id="DejaVuSans-67" d="M 2906 1791 
Q 2906 2416 2648 2759 
Q 2391 3103 1925 3103 
Q 1463 3103 1205 2759 
Q 947 2416 947 1791 
Q 947 1169 1205 825 
Q 1463 481 1925 481 
Q 2391 481 2648 825 
Q 2906 1169 2906 1791 
z
M 3481 434 
Q 3481 -459 3084 -895 
Q 2688 -1331 1869 -1331 
Q 1566 -1331 1297 -1286 
Q 1028 -1241 775 -1147 
L 775 -588 
Q 1028 -725 1275 -790 
Q 1522 -856 1778 -856 
Q 2344 -856 2625 -561 
Q 2906 -266 2906 331 
L 2906 616 
Q 2728 306 2450 153 
Q 2172 0 1784 0 
Q 1141 0 747 490 
Q 353 981 353 1791 
Q 353 2603 747 3093 
Q 1141 3584 1784 3584 
Q 2172 3584 2450 3431 
Q 2728 3278 2906 2969 
L 2906 3500 
L 3481 3500 
L 3481 434 
z
" transform="scale(0.015625)"/>
      </defs>
      <use xlink:href="#DejaVuSans-43"/>
      <use xlink:href="#DejaVuSans-6f" transform="translate(69.824219 0)"/>
      <use xlink:href="#DejaVuSans-6e" transform="translate(131.005859 0)"/>
      <use xlink:href="#DejaVuSans-6e" transform="translate(194.384766 0)"/>
      <use xlink:href="#DejaVuSans-65" transform="translate(257.763672 0)"/>
      <use xlink:href="#DejaVuSans-63" transform="translate(319.287109 0)"/>
      <use xlink:href="#DejaVuSans-74" transform="translate(374.267578 0)"/>
      <use xlink:href="#DejaVuSans-69" transform="translate(413.476562 0)"/>
      <use xlink:href="#DejaVuSans-76" transform="translate(441.259766 0)"/>
      <use xlink:href="#DejaVuSans-69" transform="translate(500.439453 0)"/>
      <use xlink:href="#DejaVuSans-74" transform="translate(528.222656 0)"/>
      <use xlink:href="#DejaVuSans-79" transform="translate(567.431641 0)"/>
      <use xlink:href="#DejaVuSans-20" transform="translate(626.611328 0)"/>
      <use xlink:href="#DejaVuSans-63" transform="translate(658.398438 0)"/>
      <use xlink:href="#DejaVuSans-61" transform="translate(713.378906 0)"/>
      <use xlink:href="#DejaVuSans-74" transform="translate(774.658203 0)"/>
      <use xlink:href="#DejaVuSans-65" transform="translate(813.867188 0)"/>
      <use xlink:href="#DejaVuSans-67" transform="translate(875.390625 0)"/>
      <use xlink:href="#DejaVuSans-6f" transform="translate(938.867188 0)"/>
      <use xlink:href="#DejaVuSans-72" transform="translate(1000.048828 0)"/>
      <use xlink:href="#DejaVuSans-79" transform="translate(1041.162109 0)"/>
     </g>
    </g>
   </g>
   <g id="matplotlib.axis_2">
    <g id="ytick_1">
     <g id="line2d_6">
      <defs>
       <path id="mda0b245289" d="M 0 0 
L -3.5 0 
" style="stroke: #000000; stroke-width: 0.8"/>
      </defs>
      <g>
       <use xlink:href="#mda0b245289" x="90" y="320.4" style="stroke: #000000; stroke-width: 0.8"/>
      </g>
     </g>
     <g id="text_7">
      <!-- 0 -->
      <g transform="translate(76.6375 324.199219) scale(0.1 -0.1)">
       <defs>
        <path id="DejaVuSans-30" d="M 2034 4250 
Q 1547 4250 1301 3770 
Q 1056 3291 1056 2328 
Q 1056 1369 1301 889 
Q 1547 409 2034 409 
Q 2525 409 2770 889 
Q 3016 1369 3016 2328 
Q 3016 3291 2770 3770 
Q 2525 4250 2034 4250 
z
M 2034 4750 
Q 2819 4750 3233 4129 
Q 3647 3509 3647 2328 
Q 3647 1150 3233 529 
Q 2819 -91 2034 -91 
Q 1250 -91 836 529 
Q 422 1150 422 2328 
Q 422 3509 836 4129 
Q 1250 4750 2034 4750 
z
" transform="scale(0.015625)"/>
       </defs>
       <use xlink:href="#DejaVuSans-30"/>
      </g>
     </g>
    </g>
    <g id="ytick_2">
     <g id="line2d_7">
      <g>
       <use xlink:href="#mda0b245289" x="90" y="284.963758" style="stroke: #000000; stroke-width: 0.8"/>
      </g>
     </g>
     <g id="text_8">
      <!-- 20 -->
      <g transform="translate(70.275 288.762977) scale(0.1 -0.1)">
       <defs>
        <path id="DejaVuSans-32" d="M 1228 531 
L 3431 531 
L 3431 0 
L 469 0 
L 469 531 
Q 828 903 1448 1529 
Q 2069 2156 2228 2338 
Q 2531 2678 2651 2914 
Q 2772 3150 2772 3378 
Q 2772 3750 2511 3984 
Q 2250 4219 1831 4219 
Q 1534 4219 1204 4116 
Q 875 4013 500 3803 
L 500 4441 
Q 881 4594 1212 4672 
Q 1544 4750 1819 4750 
Q 2544 4750 2975 4387 
Q 3406 4025 3406 3419 
Q 3406 3131 3298 2873 
Q 3191 2616 2906 2266 
Q 2828 2175 2409 1742 
Q 1991 1309 1228 531 
z
" transform="scale(0.015625)"/>
       </defs>
       <use xlink:href="#DejaVuSans-32"/>
       <use xlink:href="#DejaVuSans-30" transform="translate(63.623047 0)"/>
      </g>
     </g>
    </g>
    <g id="ytick_3">
     <g id="line2d_8">
      <g>
       <use xlink:href="#mda0b245289" x="90" y="249.527517" style="stroke: #000000; stroke-width: 0.8"/>
      </g>
     </g>
     <g id="text_9">
      <!-- 40 -->
      <g transform="translate(70.275 253.326736) scale(0.1 -0.1)">
       <defs>
        <path id="DejaVuSans-34" d="M 2419 4116 
L 825 1625 
L 2419 1625 
L 2419 4116 
z
M 2253 4666 
L 3047 4666 
L 3047 1625 
L 3713 1625 
L 3713 1100 
L 3047 1100 
L 3047 0 
L 2419 0 
L 2419 1100 
L 313 1100 
L 313 1709 
L 2253 4666 
z
" transform="scale(0.015625)"/>
       </defs>
       <use xlink:href="#DejaVuSans-34"/>
       <use xlink:href="#DejaVuSans-30" transform="translate(63.623047 0)"/>
      </g>
     </g>
    </g>
    <g id="ytick_4">
     <g id="line2d_9">
      <g>
       <use xlink:href="#mda0b245289" x="90" y="214.091275" style="stroke: #000000; stroke-width: 0.8"/>
      </g>
     </g>
     <g id="text_10">
      <!-- 60 -->
      <g transform="translate(70.275 217.890494) scale(0.1 -0.1)">
       <defs>
        <path id="DejaVuSans-36" d="M 2113 2584 
Q 1688 2584 1439 2293 
Q 1191 2003 1191 1497 
Q 1191 994 1439 701 
Q 1688 409 2113 409 
Q 2538 409 2786 701 
Q 3034 994 3034 1497 
Q 3034 2003 2786 2293 
Q 2538 2584 2113 2584 
z
M 3366 4563 
L 3366 3988 
Q 3128 4100 2886 4159 
Q 2644 4219 2406 4219 
Q 1781 4219 1451 3797 
Q 1122 3375 1075 2522 
Q 1259 2794 1537 2939 
Q 1816 3084 2150 3084 
Q 2853 3084 3261 2657 
Q 3669 2231 3669 1497 
Q 3669 778 3244 343 
Q 2819 -91 2113 -91 
Q 1303 -91 875 529 
Q 447 1150 447 2328 
Q 447 3434 972 4092 
Q 1497 4750 2381 4750 
Q 2619 4750 2861 4703 
Q 3103 4656 3366 4563 
z
" transform="scale(0.015625)"/>
       </defs>
       <use xlink:href="#DejaVuSans-36"/>
       <use xlink:href="#DejaVuSans-30" transform="translate(63.623047 0)"/>
      </g>
     </g>
    </g>
    <g id="ytick_5">
     <g id="line2d_10">
      <g>
       <use xlink:href="#mda0b245289" x="90" y="178.655034" style="stroke: #000000; stroke-width: 0.8"/>
      </g>
     </g>
     <g id="text_11">
      <!-- 80 -->
      <g transform="translate(70.275 182.454252) scale(0.1 -0.1)">
       <defs>
        <path id="DejaVuSans-38" d="M 2034 2216 
Q 1584 2216 1326 1975 
Q 1069 1734 1069 1313 
Q 1069 891 1326 650 
Q 1584 409 2034 409 
Q 2484 409 2743 651 
Q 3003 894 3003 1313 
Q 3003 1734 2745 1975 
Q 2488 2216 2034 2216 
z
M 1403 2484 
Q 997 2584 770 2862 
Q 544 3141 544 3541 
Q 544 4100 942 4425 
Q 1341 4750 2034 4750 
Q 2731 4750 3128 4425 
Q 3525 4100 3525 3541 
Q 3525 3141 3298 2862 
Q 3072 2584 2669 2484 
Q 3125 2378 3379 2068 
Q 3634 1759 3634 1313 
Q 3634 634 3220 271 
Q 2806 -91 2034 -91 
Q 1263 -91 848 271 
Q 434 634 434 1313 
Q 434 1759 690 2068 
Q 947 2378 1403 2484 
z
M 1172 3481 
Q 1172 3119 1398 2916 
Q 1625 2713 2034 2713 
Q 2441 2713 2670 2916 
Q 2900 3119 2900 3481 
Q 2900 3844 2670 4047 
Q 2441 4250 2034 4250 
Q 1625 4250 1398 4047 
Q 1172 3844 1172 3481 
z
" transform="scale(0.015625)"/>
       </defs>
       <use xlink:href="#DejaVuSans-38"/>
       <use xlink:href="#DejaVuSans-30" transform="translate(63.623047 0)"/>
      </g>
     </g>
    </g>
    <g id="ytick_6">
     <g id="line2d_11">
      <g>
       <use xlink:href="#mda0b245289" x="90" y="143.218792" style="stroke: #000000; stroke-width: 0.8"/>
      </g>
     </g>
     <g id="text_12">
      <!-- 100 -->
      <g transform="translate(63.9125 147.018011) scale(0.1 -0.1)">
       <defs>
        <path id="DejaVuSans-31" d="M 794 531 
L 1825 531 
L 1825 4091 
L 703 3866 
L 703 4441 
L 1819 4666 
L 2450 4666 
L 2450 531 
L 3481 531 
L 3481 0 
L 794 0 
L 794 531 
z
" transform="scale(0.015625)"/>
       </defs>
       <use xlink:href="#DejaVuSans-31"/>
       <use xlink:href="#DejaVuSans-30" transform="translate(63.623047 0)"/>
       <use xlink:href="#DejaVuSans-30" transform="translate(127.246094 0)"/>
      </g>
     </g>
    </g>
    <g id="ytick_7">
     <g id="line2d_12">
      <g>
       <use xlink:href="#mda0b245289" x="90" y="107.78255" style="stroke: #000000; stroke-width: 0.8"/>
      </g>
     </g>
     <g id="text_13">
      <!-- 120 -->
      <g transform="translate(63.9125 111.581769) scale(0.1 -0.1)">
       <use xlink:href="#DejaVuSans-31"/>
       <use xlink:href="#DejaVuSans-32" transform="translate(63.623047 0)"/>
       <use xlink:href="#DejaVuSans-30" transform="translate(127.246094 0)"/>
      </g>
     </g>
    </g>
    <g id="ytick_8">
     <g id="line2d_13">
      <g>
       <use xlink:href="#mda0b245289" x="90" y="72.346309" style="stroke: #000000; stroke-width: 0.8"/>
      </g>
     </g>
     <g id="text_14">
      <!-- 140 -->
      <g transform="translate(63.9125 76.145527) scale(0.1 -0.1)">
       <use xlink:href="#DejaVuSans-31"/>
       <use xlink:href="#DejaVuSans-34" transform="translate(63.623047 0)"/>
       <use xlink:href="#DejaVuSans-30" transform="translate(127.246094 0)"/>
      </g>
     </g>
    </g>
    <g id="text_15">
     <!-- cont_variable -->
     <g transform="translate(57.554687 215.409375) rotate(-90) scale(0.1 -0.1)">
      <defs>
       <path id="DejaVuSans-5f" d="M 3263 -1063 
L 3263 -1509 
L -63 -1509 
L -63 -1063 
L 3263 -1063 
z
" transform="scale(0.015625)"/>
       <path id="DejaVuSans-62" d="M 3116 1747 
Q 3116 2381 2855 2742 
Q 2594 3103 2138 3103 
Q 1681 3103 1420 2742 
Q 1159 2381 1159 1747 
Q 1159 1113 1420 752 
Q 1681 391 2138 391 
Q 2594 391 2855 752 
Q 3116 1113 3116 1747 
z
M 1159 2969 
Q 1341 3281 1617 3432 
Q 1894 3584 2278 3584 
Q 2916 3584 3314 3078 
Q 3713 2572 3713 1747 
Q 3713 922 3314 415 
Q 2916 -91 2278 -91 
Q 1894 -91 1617 61 
Q 1341 213 1159 525 
L 1159 0 
L 581 0 
L 581 4863 
L 1159 4863 
L 1159 2969 
z
" transform="scale(0.015625)"/>
       <path id="DejaVuSans-6c" d="M 603 4863 
L 1178 4863 
L 1178 0 
L 603 0 
L 603 4863 
z
" transform="scale(0.015625)"/>
      </defs>
      <use xlink:href="#DejaVuSans-63"/>
      <use xlink:href="#DejaVuSans-6f" transform="translate(54.980469 0)"/>
      <use xlink:href="#DejaVuSans-6e" transform="translate(116.162109 0)"/>
      <use xlink:href="#DejaVuSans-74" transform="translate(179.541016 0)"/>
      <use xlink:href="#DejaVuSans-5f" transform="translate(218.75 0)"/>
      <use xlink:href="#DejaVuSans-76" transform="translate(268.75 0)"/>
      <use xlink:href="#DejaVuSans-61" transform="translate(327.929688 0)"/>
      <use xlink:href="#DejaVuSans-72" transform="translate(389.208984 0)"/>
      <use xlink:href="#DejaVuSans-69" transform="translate(430.322266 0)"/>
      <use xlink:href="#DejaVuSans-61" transform="translate(458.105469 0)"/>
      <use xlink:href="#DejaVuSans-62" transform="translate(519.384766 0)"/>
      <use xlink:href="#DejaVuSans-6c" transform="translate(582.861328 0)"/>
      <use xlink:href="#DejaVuSans-65" transform="translate(610.644531 0)"/>
     </g>
    </g>
   </g>
   <g id="line2d_14">
    <path clip-path="url(#pe21e578769)" style="fill: none; stroke: #424242; stroke-width: 2.25; stroke-linecap: square"/>
   </g>
   <g id="line2d_15">
    <path clip-path="url(#pe21e578769)" style="fill: none; stroke: #424242; stroke-width: 2.25; stroke-linecap: square"/>
   </g>
   <g id="line2d_16">
    <path clip-path="url(#pe21e578769)" style="fill: none; stroke: #424242; stroke-width: 2.25; stroke-linecap: square"/>
   </g>
   <g id="line2d_17">
    <path clip-path="url(#pe21e578769)" style="fill: none; stroke: #424242; stroke-width: 2.25; stroke-linecap: square"/>
   </g>
   <g id="line2d_18">
    <path clip-path="url(#pe21e578769)" style="fill: none; stroke: #424242; stroke-width: 2.25; stroke-linecap: square"/>
   </g>
   <g id="line2d_19">
    <path clip-path="url(#pe21e578769)" style="fill: none; stroke: #424242; stroke-width: 2.25; stroke-linecap: square"/>
   </g>
   <g id="line2d_20">
    <path clip-path="url(#pe21e578769)" style="fill: none; stroke: #424242; stroke-width: 2.25; stroke-linecap: square"/>
   </g>
   <g id="line2d_21">
    <path clip-path="url(#pe21e578769)" style="fill: none; stroke: #424242; stroke-width: 2.25; stroke-linecap: square"/>
   </g>
   <g id="line2d_22">
    <path clip-path="url(#pe21e578769)" style="fill: none; stroke: #424242; stroke-width: 2.25; stroke-linecap: square"/>
   </g>
   <g id="line2d_23">
    <path clip-path="url(#pe21e578769)" style="fill: none; stroke: #424242; stroke-width: 2.25; stroke-linecap: square"/>
   </g>
   <g id="line2d_24">
    <path clip-path="url(#pe21e578769)" style="fill: none; stroke: #424242; stroke-width: 2.25; stroke-linecap: square"/>
   </g>
   <g id="line2d_25">
    <path clip-path="url(#pe21e578769)" style="fill: none; stroke: #424242; stroke-width: 2.25; stroke-linecap: square"/>
   </g>
   <g id="line2d_26">
    <path clip-path="url(#pe21e578769)" style="fill: none; stroke: #424242; stroke-width: 2.25; stroke-linecap: square"/>
   </g>
   <g id="line2d_27">
    <path clip-path="url(#pe21e578769)" style="fill: none; stroke: #424242; stroke-width: 2.25; stroke-linecap: square"/>
   </g>
   <g id="line2d_28">
    <path clip-path="url(#pe21e578769)" style="fill: none; stroke: #424242; stroke-width: 2.25; stroke-linecap: square"/>
   </g>
   <g id="line2d_29">
    <path clip-path="url(#pe21e578769)" style="fill: none; stroke: #424242; stroke-width: 2.25; stroke-linecap: square"/>
   </g>
   <g id="line2d_30">
    <path clip-path="url(#pe21e578769)" style="fill: none; stroke: #424242; stroke-width: 2.25; stroke-linecap: square"/>
   </g>
   <g id="line2d_31">
    <path clip-path="url(#pe21e578769)" style="fill: none; stroke: #424242; stroke-width: 2.25; stroke-linecap: square"/>
   </g>
   <g id="patch_30">
    <path d="M 90 320.4 
L 90 43.2 
" style="fill: none; stroke: #000000; stroke-width: 0.8; stroke-linejoin: miter; stroke-linecap: square"/>
   </g>
   <g id="patch_31">
    <path d="M 648 320.4 
L 648 43.2 
" style="fill: none; stroke: #000000; stroke-width: 0.8; stroke-linejoin: miter; stroke-linecap: square"/>
   </g>
   <g id="patch_32">
    <path d="M 90 320.4 
L 648 320.4 
" style="fill: none; stroke: #000000; stroke-width: 0.8; stroke-linejoin: miter; stroke-linecap: square"/>
   </g>
   <g id="patch_33">
    <path d="M 90 43.2 
L 648 43.2 
" style="fill: none; stroke: #000000; stroke-width: 0.8; stroke-linejoin: miter; stroke-linecap: square"/>
   </g>
   <g id="PathCollection_1">
    <defs>
     <path id="m7de499feb0" d="M 0 2.5 
C 0.663008 2.5 1.29895 2.236584 1.767767 1.767767 
C 2.236584 1.29895 2.5 0.663008 2.5 0 
C 2.5 -0.663008 2.236584 -1.29895 1.767767 -1.767767 
C 1.29895 -2.236584 0.663008 -2.5 0 -2.5 
C -0.663008 -2.5 -1.29895 -2.236584 -1.767767 -1.767767 
C -2.236584 -1.29895 -2.5 -0.663008 -2.5 0 
C -2.5 0.663008 -2.236584 1.29895 -1.767767 1.767767 
C -1.29895 2.236584 -0.663008 2.5 0 2.5 
z
"/>
    </defs>
    <g clip-path="url(#pe21e578769)">
     <use xlink:href="#m7de499feb0" x="137.556725" y="306.225503" style="fill-opacity: 0.3"/>
     <use xlink:href="#m7de499feb0" x="138.473062" y="306.225503" style="fill-opacity: 0.3"/>
     <use xlink:href="#m7de499feb0" x="146.425987" y="306.225503" style="fill-opacity: 0.3"/>
     <use xlink:href="#m7de499feb0" x="150.212491" y="306.225503" style="fill-opacity: 0.3"/>
     <use xlink:href="#m7de499feb0" x="156.239472" y="304.453691" style="fill-opacity: 0.3"/>
     <use xlink:href="#m7de499feb0" x="140.774613" y="304.453691" style="fill-opacity: 0.3"/>
     <use xlink:href="#m7de499feb0" x="149.106108" y="304.453691" style="fill-opacity: 0.3"/>
     <use xlink:href="#m7de499feb0" x="143.132304" y="307.997315" style="fill-opacity: 0.3"/>
     <use xlink:href="#m7de499feb0" x="143.756104" y="307.997315" style="fill-opacity: 0.3"/>
     <use xlink:href="#m7de499feb0" x="138.674615" y="307.997315" style="fill-opacity: 0.3"/>
     <use xlink:href="#m7de499feb0" x="141.685597" y="307.997315" style="fill-opacity: 0.3"/>
     <use xlink:href="#m7de499feb0" x="144.240602" y="307.997315" style="fill-opacity: 0.3"/>
     <use xlink:href="#m7de499feb0" x="156.804823" y="307.997315" style="fill-opacity: 0.3"/>
     <use xlink:href="#m7de499feb0" x="135.438171" y="307.997315" style="fill-opacity: 0.3"/>
     <use xlink:href="#m7de499feb0" x="138.137978" y="307.997315" style="fill-opacity: 0.3"/>
     <use xlink:href="#m7de499feb0" x="150.353923" y="307.997315" style="fill-opacity: 0.3"/>
     <use xlink:href="#m7de499feb0" x="141.396287" y="307.997315" style="fill-opacity: 0.3"/>
     <use xlink:href="#m7de499feb0" x="140.954576" y="307.997315" style="fill-opacity: 0.3"/>
     <use xlink:href="#m7de499feb0" x="150.491071" y="307.997315" style="fill-opacity: 0.3"/>
     <use xlink:href="#m7de499feb0" x="156.773543" y="307.997315" style="fill-opacity: 0.3"/>
     <use xlink:href="#m7de499feb0" x="155.062219" y="307.997315" style="fill-opacity: 0.3"/>
     <use xlink:href="#m7de499feb0" x="141.632078" y="304.453691" style="fill-opacity: 0.3"/>
     <use xlink:href="#m7de499feb0" x="139.537565" y="304.453691" style="fill-opacity: 0.3"/>
     <use xlink:href="#m7de499feb0" x="142.557438" y="304.453691" style="fill-opacity: 0.3"/>
     <use xlink:href="#m7de499feb0" x="141.008789" y="304.453691" style="fill-opacity: 0.3"/>
     <use xlink:href="#m7de499feb0" x="151.681887" y="304.453691" style="fill-opacity: 0.3"/>
     <use xlink:href="#m7de499feb0" x="155.198896" y="304.453691" style="fill-opacity: 0.3"/>
     <use xlink:href="#m7de499feb0" x="146.206732" y="304.453691" style="fill-opacity: 0.3"/>
     <use xlink:href="#m7de499feb0" x="141.959335" y="304.453691" style="fill-opacity: 0.3"/>
     <use xlink:href="#m7de499feb0" x="152.808983" y="304.453691" style="fill-opacity: 0.3"/>
    </g>
   </g>
   <g id="PathCollection_2">
    <g clip-path="url(#pe21e578769)">
     <use xlink:href="#m7de499feb0" x="254.391229" y="306.225503" style="fill-opacity: 0.3"/>
     <use xlink:href="#m7de499feb0" x="268.055184" y="306.225503" style="fill-opacity: 0.3"/>
     <use xlink:href="#m7de499feb0" x="260.854973" y="306.225503" style="fill-opacity: 0.3"/>
     <use xlink:href="#m7de499feb0" x="261.086118" y="306.225503" style="fill-opacity: 0.3"/>
     <use xlink:href="#m7de499feb0" x="254.347462" y="306.225503" style="fill-opacity: 0.3"/>
     <use xlink:href="#m7de499feb0" x="255.943496" y="306.225503" style="fill-opacity: 0.3"/>
     <use xlink:href="#m7de499feb0" x="263.765203" y="306.225503" style="fill-opacity: 0.3"/>
     <use xlink:href="#m7de499feb0" x="250.490796" y="306.225503" style="fill-opacity: 0.3"/>
     <use xlink:href="#m7de499feb0" x="259.842656" y="306.225503" style="fill-opacity: 0.3"/>
     <use xlink:href="#m7de499feb0" x="261.590032" y="313.312752" style="fill-opacity: 0.3"/>
     <use xlink:href="#m7de499feb0" x="260.578177" y="313.312752" style="fill-opacity: 0.3"/>
     <use xlink:href="#m7de499feb0" x="251.845613" y="306.225503" style="fill-opacity: 0.3"/>
     <use xlink:href="#m7de499feb0" x="261.953554" y="306.225503" style="fill-opacity: 0.3"/>
     <use xlink:href="#m7de499feb0" x="259.462192" y="306.225503" style="fill-opacity: 0.3"/>
     <use xlink:href="#m7de499feb0" x="253.408778" y="304.453691" style="fill-opacity: 0.3"/>
     <use xlink:href="#m7de499feb0" x="257.680237" y="304.453691" style="fill-opacity: 0.3"/>
     <use xlink:href="#m7de499feb0" x="267.172648" y="304.453691" style="fill-opacity: 0.3"/>
     <use xlink:href="#m7de499feb0" x="247.895106" y="304.453691" style="fill-opacity: 0.3"/>
     <use xlink:href="#m7de499feb0" x="249.619967" y="304.453691" style="fill-opacity: 0.3"/>
     <use xlink:href="#m7de499feb0" x="257.964497" y="304.453691" style="fill-opacity: 0.3"/>
     <use xlink:href="#m7de499feb0" x="255.575827" y="304.453691" style="fill-opacity: 0.3"/>
     <use xlink:href="#m7de499feb0" x="257.229846" y="304.453691" style="fill-opacity: 0.3"/>
     <use xlink:href="#m7de499feb0" x="251.643291" y="304.453691" style="fill-opacity: 0.3"/>
     <use xlink:href="#m7de499feb0" x="248.024749" y="304.453691" style="fill-opacity: 0.3"/>
     <use xlink:href="#m7de499feb0" x="258.625169" y="304.453691" style="fill-opacity: 0.3"/>
     <use xlink:href="#m7de499feb0" x="260.801747" y="304.453691" style="fill-opacity: 0.3"/>
     <use xlink:href="#m7de499feb0" x="252.602588" y="304.453691" style="fill-opacity: 0.3"/>
     <use xlink:href="#m7de499feb0" x="253.602571" y="304.453691" style="fill-opacity: 0.3"/>
     <use xlink:href="#m7de499feb0" x="261.389676" y="304.453691" style="fill-opacity: 0.3"/>
     <use xlink:href="#m7de499feb0" x="259.785722" y="304.453691" style="fill-opacity: 0.3"/>
     <use xlink:href="#m7de499feb0" x="247.487452" y="304.453691" style="fill-opacity: 0.3"/>
     <use xlink:href="#m7de499feb0" x="249.389022" y="304.453691" style="fill-opacity: 0.3"/>
     <use xlink:href="#m7de499feb0" x="266.377865" y="304.453691" style="fill-opacity: 0.3"/>
     <use xlink:href="#m7de499feb0" x="256.353631" y="304.453691" style="fill-opacity: 0.3"/>
     <use xlink:href="#m7de499feb0" x="262.778826" y="304.453691" style="fill-opacity: 0.3"/>
     <use xlink:href="#m7de499feb0" x="259.551809" y="304.453691" style="fill-opacity: 0.3"/>
     <use xlink:href="#m7de499feb0" x="255.092025" y="304.453691" style="fill-opacity: 0.3"/>
     <use xlink:href="#m7de499feb0" x="259.303935" y="304.453691" style="fill-opacity: 0.3"/>
     <use xlink:href="#m7de499feb0" x="264.49378" y="304.453691" style="fill-opacity: 0.3"/>
     <use xlink:href="#m7de499feb0" x="265.775141" y="304.453691" style="fill-opacity: 0.3"/>
     <use xlink:href="#m7de499feb0" x="255.918962" y="304.453691" style="fill-opacity: 0.3"/>
     <use xlink:href="#m7de499feb0" x="256.19579" y="304.453691" style="fill-opacity: 0.3"/>
     <use xlink:href="#m7de499feb0" x="264.340473" y="304.453691" style="fill-opacity: 0.3"/>
     <use xlink:href="#m7de499feb0" x="265.29313" y="304.453691" style="fill-opacity: 0.3"/>
     <use xlink:href="#m7de499feb0" x="248.822824" y="304.453691" style="fill-opacity: 0.3"/>
     <use xlink:href="#m7de499feb0" x="256.052363" y="304.453691" style="fill-opacity: 0.3"/>
     <use xlink:href="#m7de499feb0" x="258.022803" y="304.453691" style="fill-opacity: 0.3"/>
     <use xlink:href="#m7de499feb0" x="267.94963" y="304.453691" style="fill-opacity: 0.3"/>
     <use xlink:href="#m7de499feb0" x="254.379437" y="307.997315" style="fill-opacity: 0.3"/>
     <use xlink:href="#m7de499feb0" x="250.140295" y="307.997315" style="fill-opacity: 0.3"/>
     <use xlink:href="#m7de499feb0" x="247.223386" y="307.997315" style="fill-opacity: 0.3"/>
     <use xlink:href="#m7de499feb0" x="254.801427" y="307.997315" style="fill-opacity: 0.3"/>
     <use xlink:href="#m7de499feb0" x="260.120958" y="307.997315" style="fill-opacity: 0.3"/>
     <use xlink:href="#m7de499feb0" x="253.369498" y="307.997315" style="fill-opacity: 0.3"/>
     <use xlink:href="#m7de499feb0" x="261.806355" y="307.997315" style="fill-opacity: 0.3"/>
     <use xlink:href="#m7de499feb0" x="246.456551" y="307.997315" style="fill-opacity: 0.3"/>
     <use xlink:href="#m7de499feb0" x="248.79388" y="307.997315" style="fill-opacity: 0.3"/>
     <use xlink:href="#m7de499feb0" x="267.157094" y="307.997315" style="fill-opacity: 0.3"/>
     <use xlink:href="#m7de499feb0" x="252.261467" y="307.997315" style="fill-opacity: 0.3"/>
     <use xlink:href="#m7de499feb0" x="249.920639" y="307.997315" style="fill-opacity: 0.3"/>
     <use xlink:href="#m7de499feb0" x="248.782819" y="307.997315" style="fill-opacity: 0.3"/>
     <use xlink:href="#m7de499feb0" x="246.566887" y="307.997315" style="fill-opacity: 0.3"/>
     <use xlink:href="#m7de499feb0" x="260.467988" y="307.997315" style="fill-opacity: 0.3"/>
     <use xlink:href="#m7de499feb0" x="252.420988" y="307.997315" style="fill-opacity: 0.3"/>
     <use xlink:href="#m7de499feb0" x="255.270319" y="307.997315" style="fill-opacity: 0.3"/>
     <use xlink:href="#m7de499feb0" x="260.080684" y="307.997315" style="fill-opacity: 0.3"/>
     <use xlink:href="#m7de499feb0" x="258.840504" y="307.997315" style="fill-opacity: 0.3"/>
     <use xlink:href="#m7de499feb0" x="259.718883" y="307.997315" style="fill-opacity: 0.3"/>
     <use xlink:href="#m7de499feb0" x="248.038376" y="307.997315" style="fill-opacity: 0.3"/>
     <use xlink:href="#m7de499feb0" x="260.488483" y="307.997315" style="fill-opacity: 0.3"/>
     <use xlink:href="#m7de499feb0" x="255.704914" y="307.997315" style="fill-opacity: 0.3"/>
     <use xlink:href="#m7de499feb0" x="257.169061" y="307.997315" style="fill-opacity: 0.3"/>
     <use xlink:href="#m7de499feb0" x="267.056755" y="304.453691" style="fill-opacity: 0.3"/>
     <use xlink:href="#m7de499feb0" x="258.269136" y="304.453691" style="fill-opacity: 0.3"/>
     <use xlink:href="#m7de499feb0" x="251.503728" y="304.453691" style="fill-opacity: 0.3"/>
     <use xlink:href="#m7de499feb0" x="246.39501" y="304.453691" style="fill-opacity: 0.3"/>
    </g>
   </g>
   <g id="PathCollection_3">
    <g clip-path="url(#pe21e578769)">
     <use xlink:href="#m7de499feb0" x="362.10165" y="306.225503" style="fill-opacity: 0.3"/>
     <use xlink:href="#m7de499feb0" x="374.273974" y="313.312752" style="fill-opacity: 0.3"/>
     <use xlink:href="#m7de499feb0" x="358.461975" y="313.312752" style="fill-opacity: 0.3"/>
     <use xlink:href="#m7de499feb0" x="362.477529" y="304.453691" style="fill-opacity: 0.3"/>
     <use xlink:href="#m7de499feb0" x="376.797129" y="304.453691" style="fill-opacity: 0.3"/>
     <use xlink:href="#m7de499feb0" x="369.809256" y="304.453691" style="fill-opacity: 0.3"/>
     <use xlink:href="#m7de499feb0" x="360.10734" y="304.453691" style="fill-opacity: 0.3"/>
     <use xlink:href="#m7de499feb0" x="366.115048" y="304.453691" style="fill-opacity: 0.3"/>
     <use xlink:href="#m7de499feb0" x="370.065346" y="304.453691" style="fill-opacity: 0.3"/>
     <use xlink:href="#m7de499feb0" x="361.590729" y="304.453691" style="fill-opacity: 0.3"/>
     <use xlink:href="#m7de499feb0" x="371.045421" y="304.453691" style="fill-opacity: 0.3"/>
     <use xlink:href="#m7de499feb0" x="377.303775" y="304.453691" style="fill-opacity: 0.3"/>
     <use xlink:href="#m7de499feb0" x="373.54724" y="304.453691" style="fill-opacity: 0.3"/>
     <use xlink:href="#m7de499feb0" x="358.395905" y="304.453691" style="fill-opacity: 0.3"/>
     <use xlink:href="#m7de499feb0" x="370.249486" y="304.453691" style="fill-opacity: 0.3"/>
     <use xlink:href="#m7de499feb0" x="375.877406" y="304.453691" style="fill-opacity: 0.3"/>
     <use xlink:href="#m7de499feb0" x="370.033951" y="304.453691" style="fill-opacity: 0.3"/>
     <use xlink:href="#m7de499feb0" x="375.997991" y="304.453691" style="fill-opacity: 0.3"/>
     <use xlink:href="#m7de499feb0" x="361.831225" y="304.453691" style="fill-opacity: 0.3"/>
     <use xlink:href="#m7de499feb0" x="373.370507" y="304.453691" style="fill-opacity: 0.3"/>
     <use xlink:href="#m7de499feb0" x="373.459496" y="304.453691" style="fill-opacity: 0.3"/>
     <use xlink:href="#m7de499feb0" x="371.162639" y="304.453691" style="fill-opacity: 0.3"/>
     <use xlink:href="#m7de499feb0" x="370.334262" y="304.453691" style="fill-opacity: 0.3"/>
     <use xlink:href="#m7de499feb0" x="363.425001" y="307.997315" style="fill-opacity: 0.3"/>
     <use xlink:href="#m7de499feb0" x="367.250435" y="307.997315" style="fill-opacity: 0.3"/>
     <use xlink:href="#m7de499feb0" x="368.652138" y="307.997315" style="fill-opacity: 0.3"/>
     <use xlink:href="#m7de499feb0" x="377.359281" y="307.997315" style="fill-opacity: 0.3"/>
     <use xlink:href="#m7de499feb0" x="376.381499" y="307.997315" style="fill-opacity: 0.3"/>
     <use xlink:href="#m7de499feb0" x="378.639555" y="307.997315" style="fill-opacity: 0.3"/>
     <use xlink:href="#m7de499feb0" x="362.002391" y="307.997315" style="fill-opacity: 0.3"/>
     <use xlink:href="#m7de499feb0" x="372.477479" y="307.997315" style="fill-opacity: 0.3"/>
     <use xlink:href="#m7de499feb0" x="376.177479" y="307.997315" style="fill-opacity: 0.3"/>
     <use xlink:href="#m7de499feb0" x="360.81459" y="307.997315" style="fill-opacity: 0.3"/>
     <use xlink:href="#m7de499feb0" x="379.115832" y="307.997315" style="fill-opacity: 0.3"/>
     <use xlink:href="#m7de499feb0" x="367.220773" y="307.997315" style="fill-opacity: 0.3"/>
     <use xlink:href="#m7de499feb0" x="360.063034" y="304.453691" style="fill-opacity: 0.3"/>
     <use xlink:href="#m7de499feb0" x="376.993184" y="304.453691" style="fill-opacity: 0.3"/>
     <use xlink:href="#m7de499feb0" x="371.214773" y="304.453691" style="fill-opacity: 0.3"/>
     <use xlink:href="#m7de499feb0" x="378.355579" y="304.453691" style="fill-opacity: 0.3"/>
     <use xlink:href="#m7de499feb0" x="379.108401" y="304.453691" style="fill-opacity: 0.3"/>
     <use xlink:href="#m7de499feb0" x="365.495658" y="304.453691" style="fill-opacity: 0.3"/>
     <use xlink:href="#m7de499feb0" x="377.743291" y="304.453691" style="fill-opacity: 0.3"/>
    </g>
   </g>
   <g id="PathCollection_4">
    <g clip-path="url(#pe21e578769)">
     <use xlink:href="#m7de499feb0" x="490.846552" y="306.225503" style="fill-opacity: 0.3"/>
     <use xlink:href="#m7de499feb0" x="491.229306" y="306.225503" style="fill-opacity: 0.3"/>
     <use xlink:href="#m7de499feb0" x="490.179631" y="306.225503" style="fill-opacity: 0.3"/>
     <use xlink:href="#m7de499feb0" x="471.908921" y="313.312752" style="fill-opacity: 0.3"/>
     <use xlink:href="#m7de499feb0" x="475.737981" y="313.312752" style="fill-opacity: 0.3"/>
     <use xlink:href="#m7de499feb0" x="473.332773" y="313.312752" style="fill-opacity: 0.3"/>
     <use xlink:href="#m7de499feb0" x="486.044945" y="313.312752" style="fill-opacity: 0.3"/>
     <use xlink:href="#m7de499feb0" x="481.139489" y="313.312752" style="fill-opacity: 0.3"/>
     <use xlink:href="#m7de499feb0" x="488.116221" y="306.225503" style="fill-opacity: 0.3"/>
     <use xlink:href="#m7de499feb0" x="482.584604" y="313.312752" style="fill-opacity: 0.3"/>
     <use xlink:href="#m7de499feb0" x="488.449653" y="313.312752" style="fill-opacity: 0.3"/>
     <use xlink:href="#m7de499feb0" x="490.621457" y="313.312752" style="fill-opacity: 0.3"/>
     <use xlink:href="#m7de499feb0" x="480.263402" y="304.453691" style="fill-opacity: 0.3"/>
     <use xlink:href="#m7de499feb0" x="473.404511" y="304.453691" style="fill-opacity: 0.3"/>
     <use xlink:href="#m7de499feb0" x="472.751223" y="304.453691" style="fill-opacity: 0.3"/>
     <use xlink:href="#m7de499feb0" x="479.905998" y="304.453691" style="fill-opacity: 0.3"/>
     <use xlink:href="#m7de499feb0" x="489.703896" y="304.453691" style="fill-opacity: 0.3"/>
     <use xlink:href="#m7de499feb0" x="471.555672" y="304.453691" style="fill-opacity: 0.3"/>
     <use xlink:href="#m7de499feb0" x="490.552303" y="304.453691" style="fill-opacity: 0.3"/>
     <use xlink:href="#m7de499feb0" x="489.634438" y="304.453691" style="fill-opacity: 0.3"/>
     <use xlink:href="#m7de499feb0" x="483.774736" y="304.453691" style="fill-opacity: 0.3"/>
     <use xlink:href="#m7de499feb0" x="470.624027" y="304.453691" style="fill-opacity: 0.3"/>
     <use xlink:href="#m7de499feb0" x="469.784027" y="304.453691" style="fill-opacity: 0.3"/>
     <use xlink:href="#m7de499feb0" x="477.027606" y="304.453691" style="fill-opacity: 0.3"/>
     <use xlink:href="#m7de499feb0" x="471.009403" y="304.453691" style="fill-opacity: 0.3"/>
     <use xlink:href="#m7de499feb0" x="489.429446" y="304.453691" style="fill-opacity: 0.3"/>
     <use xlink:href="#m7de499feb0" x="482.744187" y="304.453691" style="fill-opacity: 0.3"/>
     <use xlink:href="#m7de499feb0" x="491.333339" y="304.453691" style="fill-opacity: 0.3"/>
     <use xlink:href="#m7de499feb0" x="478.907439" y="304.453691" style="fill-opacity: 0.3"/>
     <use xlink:href="#m7de499feb0" x="476.022945" y="304.453691" style="fill-opacity: 0.3"/>
     <use xlink:href="#m7de499feb0" x="482.571765" y="304.453691" style="fill-opacity: 0.3"/>
     <use xlink:href="#m7de499feb0" x="476.492822" y="304.453691" style="fill-opacity: 0.3"/>
     <use xlink:href="#m7de499feb0" x="487.916129" y="304.453691" style="fill-opacity: 0.3"/>
     <use xlink:href="#m7de499feb0" x="471.043764" y="304.453691" style="fill-opacity: 0.3"/>
     <use xlink:href="#m7de499feb0" x="480.425066" y="304.453691" style="fill-opacity: 0.3"/>
     <use xlink:href="#m7de499feb0" x="487.591573" y="304.453691" style="fill-opacity: 0.3"/>
     <use xlink:href="#m7de499feb0" x="469.751358" y="304.453691" style="fill-opacity: 0.3"/>
     <use xlink:href="#m7de499feb0" x="481.519929" y="304.453691" style="fill-opacity: 0.3"/>
     <use xlink:href="#m7de499feb0" x="485.809663" y="304.453691" style="fill-opacity: 0.3"/>
     <use xlink:href="#m7de499feb0" x="490.522528" y="304.453691" style="fill-opacity: 0.3"/>
     <use xlink:href="#m7de499feb0" x="486.900491" y="304.453691" style="fill-opacity: 0.3"/>
     <use xlink:href="#m7de499feb0" x="475.128895" y="304.453691" style="fill-opacity: 0.3"/>
     <use xlink:href="#m7de499feb0" x="488.717126" y="304.453691" style="fill-opacity: 0.3"/>
     <use xlink:href="#m7de499feb0" x="472.515305" y="304.453691" style="fill-opacity: 0.3"/>
     <use xlink:href="#m7de499feb0" x="489.146796" y="304.453691" style="fill-opacity: 0.3"/>
     <use xlink:href="#m7de499feb0" x="481.349046" y="304.453691" style="fill-opacity: 0.3"/>
     <use xlink:href="#m7de499feb0" x="474.417299" y="304.453691" style="fill-opacity: 0.3"/>
     <use xlink:href="#m7de499feb0" x="491.750412" y="304.453691" style="fill-opacity: 0.3"/>
     <use xlink:href="#m7de499feb0" x="489.068368" y="304.453691" style="fill-opacity: 0.3"/>
     <use xlink:href="#m7de499feb0" x="479.246665" y="304.453691" style="fill-opacity: 0.3"/>
     <use xlink:href="#m7de499feb0" x="478.253209" y="304.453691" style="fill-opacity: 0.3"/>
     <use xlink:href="#m7de499feb0" x="471.899039" y="304.453691" style="fill-opacity: 0.3"/>
     <use xlink:href="#m7de499feb0" x="488.487522" y="307.997315" style="fill-opacity: 0.3"/>
     <use xlink:href="#m7de499feb0" x="476.581527" y="307.997315" style="fill-opacity: 0.3"/>
     <use xlink:href="#m7de499feb0" x="475.300066" y="307.997315" style="fill-opacity: 0.3"/>
     <use xlink:href="#m7de499feb0" x="478.531" y="307.997315" style="fill-opacity: 0.3"/>
     <use xlink:href="#m7de499feb0" x="471.868176" y="307.997315" style="fill-opacity: 0.3"/>
     <use xlink:href="#m7de499feb0" x="474.382251" y="307.997315" style="fill-opacity: 0.3"/>
     <use xlink:href="#m7de499feb0" x="485.2077" y="307.997315" style="fill-opacity: 0.3"/>
     <use xlink:href="#m7de499feb0" x="488.925673" y="307.997315" style="fill-opacity: 0.3"/>
     <use xlink:href="#m7de499feb0" x="484.093496" y="307.997315" style="fill-opacity: 0.3"/>
     <use xlink:href="#m7de499feb0" x="477.382011" y="307.997315" style="fill-opacity: 0.3"/>
     <use xlink:href="#m7de499feb0" x="488.555468" y="304.453691" style="fill-opacity: 0.3"/>
    </g>
   </g>
   <g id="legend_1">
    <g id="patch_34">
     <path d="M 97 197.98125 
L 187.007812 197.98125 
Q 189.007812 197.98125 189.007812 195.98125 
L 189.007812 50.2 
Q 189.007812 48.2 187.007812 48.2 
L 97 48.2 
Q 95 48.2 95 50.2 
L 95 195.98125 
Q 95 197.98125 97 197.98125 
z
" style="fill: #ffffff; opacity: 0.8; stroke: #cccccc; stroke-linejoin: miter"/>
    </g>
    <g id="text_16">
     <!-- short.habituation -->
     <g transform="translate(99 59.798437) scale(0.1 -0.1)">
      <defs>
       <path id="DejaVuSans-2e" d="M 684 794 
L 1344 794 
L 1344 0 
L 684 0 
L 684 794 
z
" transform="scale(0.015625)"/>
      </defs>
      <use xlink:href="#DejaVuSans-73"/>
      <use xlink:href="#DejaVuSans-68" transform="translate(52.099609 0)"/>
      <use xlink:href="#DejaVuSans-6f" transform="translate(115.478516 0)"/>
      <use xlink:href="#DejaVuSans-72" transform="translate(176.660156 0)"/>
      <use xlink:href="#DejaVuSans-74" transform="translate(217.773438 0)"/>
      <use xlink:href="#DejaVuSans-2e" transform="translate(256.982422 0)"/>
      <use xlink:href="#DejaVuSans-68" transform="translate(288.769531 0)"/>
      <use xlink:href="#DejaVuSans-61" transform="translate(352.148438 0)"/>
      <use xlink:href="#DejaVuSans-62" transform="translate(413.427734 0)"/>
      <use xlink:href="#DejaVuSans-69" transform="translate(476.904297 0)"/>
      <use xlink:href="#DejaVuSans-74" transform="translate(504.6875 0)"/>
      <use xlink:href="#DejaVuSans-75" transform="translate(543.896484 0)"/>
      <use xlink:href="#DejaVuSans-61" transform="translate(607.275391 0)"/>
      <use xlink:href="#DejaVuSans-74" transform="translate(668.554688 0)"/>
      <use xlink:href="#DejaVuSans-69" transform="translate(707.763672 0)"/>
      <use xlink:href="#DejaVuSans-6f" transform="translate(735.546875 0)"/>
      <use xlink:href="#DejaVuSans-6e" transform="translate(796.728516 0)"/>
     </g>
    </g>
    <g id="patch_35">
     <path d="M 115.155469 74.476562 
L 135.155469 74.476562 
L 135.155469 67.476562 
L 115.155469 67.476562 
z
" style="fill: #3274a1"/>
    </g>
    <g id="text_17">
     <!-- f -->
     <g transform="translate(143.155469 74.476562) scale(0.1 -0.1)">
      <use xlink:href="#DejaVuSans-66"/>
     </g>
    </g>
    <g id="patch_36">
     <path d="M 115.155469 89.154688 
L 135.155469 89.154688 
L 135.155469 82.154688 
L 115.155469 82.154688 
z
" style="fill: #e1812c"/>
    </g>
    <g id="text_18">
     <!-- m -->
     <g transform="translate(143.155469 89.154688) scale(0.1 -0.1)">
      <defs>
       <path id="DejaVuSans-6d" d="M 3328 2828 
Q 3544 3216 3844 3400 
Q 4144 3584 4550 3584 
Q 5097 3584 5394 3201 
Q 5691 2819 5691 2113 
L 5691 0 
L 5113 0 
L 5113 2094 
Q 5113 2597 4934 2840 
Q 4756 3084 4391 3084 
Q 3944 3084 3684 2787 
Q 3425 2491 3425 1978 
L 3425 0 
L 2847 0 
L 2847 2094 
Q 2847 2600 2669 2842 
Q 2491 3084 2119 3084 
Q 1678 3084 1418 2786 
Q 1159 2488 1159 1978 
L 1159 0 
L 581 0 
L 581 3500 
L 1159 3500 
L 1159 2956 
Q 1356 3278 1631 3431 
Q 1906 3584 2284 3584 
Q 2666 3584 2933 3390 
Q 3200 3197 3328 2828 
z
" transform="scale(0.015625)"/>
      </defs>
      <use xlink:href="#DejaVuSans-6d"/>
     </g>
    </g>
    <g id="patch_37">
     <path d="M 115.155469 103.832812 
L 135.155469 103.832812 
L 135.155469 96.832812 
L 115.155469 96.832812 
z
" style="fill: #3274a1"/>
    </g>
    <g id="text_19">
     <!-- f -->
     <g transform="translate(143.155469 103.832812) scale(0.1 -0.1)">
      <use xlink:href="#DejaVuSans-66"/>
     </g>
    </g>
    <g id="patch_38">
     <path d="M 115.155469 118.510938 
L 135.155469 118.510938 
L 135.155469 111.510938 
L 115.155469 111.510938 
z
" style="fill: #e1812c"/>
    </g>
    <g id="text_20">
     <!-- m -->
     <g transform="translate(143.155469 118.510938) scale(0.1 -0.1)">
      <use xlink:href="#DejaVuSans-6d"/>
     </g>
    </g>
    <g id="patch_39">
     <path d="M 115.155469 133.189063 
L 135.155469 133.189063 
L 135.155469 126.189063 
L 115.155469 126.189063 
z
" style="fill: #3274a1"/>
    </g>
    <g id="text_21">
     <!-- n -->
     <g transform="translate(143.155469 133.189063) scale(0.1 -0.1)">
      <use xlink:href="#DejaVuSans-6e"/>
     </g>
    </g>
    <g id="patch_40">
     <path d="M 115.155469 147.867188 
L 135.155469 147.867188 
L 135.155469 140.867188 
L 115.155469 140.867188 
z
" style="fill: #e1812c"/>
    </g>
    <g id="text_22">
     <!-- y -->
     <g transform="translate(143.155469 147.867188) scale(0.1 -0.1)">
      <use xlink:href="#DejaVuSans-79"/>
     </g>
    </g>
    <g id="patch_41">
     <path d="M 115.155469 162.545312 
L 135.155469 162.545312 
L 135.155469 155.545312 
L 115.155469 155.545312 
z
" style="fill: #3274a1"/>
    </g>
    <g id="text_23">
     <!-- y -->
     <g transform="translate(143.155469 162.545312) scale(0.1 -0.1)">
      <use xlink:href="#DejaVuSans-79"/>
     </g>
    </g>
    <g id="patch_42">
     <path d="M 115.155469 177.223437 
L 135.155469 177.223437 
L 135.155469 170.223437 
L 115.155469 170.223437 
z
" style="fill: #3274a1"/>
    </g>
    <g id="text_24">
     <!-- long -->
     <g transform="translate(143.155469 177.223437) scale(0.1 -0.1)">
      <use xlink:href="#DejaVuSans-6c"/>
      <use xlink:href="#DejaVuSans-6f" transform="translate(27.783203 0)"/>
      <use xlink:href="#DejaVuSans-6e" transform="translate(88.964844 0)"/>
      <use xlink:href="#DejaVuSans-67" transform="translate(152.34375 0)"/>
     </g>
    </g>
    <g id="patch_43">
     <path d="M 115.155469 191.901562 
L 135.155469 191.901562 
L 135.155469 184.901562 
L 115.155469 184.901562 
z
" style="fill: #e1812c"/>
    </g>
    <g id="text_25">
     <!-- short -->
     <g transform="translate(143.155469 191.901562) scale(0.1 -0.1)">
      <use xlink:href="#DejaVuSans-73"/>
      <use xlink:href="#DejaVuSans-68" transform="translate(52.099609 0)"/>
      <use xlink:href="#DejaVuSans-6f" transform="translate(115.478516 0)"/>
      <use xlink:href="#DejaVuSans-72" transform="translate(176.660156 0)"/>
      <use xlink:href="#DejaVuSans-74" transform="translate(217.773438 0)"/>
     </g>
    </g>
   </g>
  </g>
 </g>
 <defs>
  <clipPath id="pe21e578769">
   <rect x="90" y="43.2" width="558" height="277.2"/>
  </clipPath>
 </defs>
</svg>
