<?xml version="1.0" encoding="utf-8" standalone="no"?>
<!DOCTYPE svg PUBLIC "-//W3C//DTD SVG 1.1//EN"
  "http://www.w3.org/Graphics/SVG/1.1/DTD/svg11.dtd">
<svg xmlns:xlink="http://www.w3.org/1999/xlink" width="720pt" height="360pt" viewBox="0 0 720 360" xmlns="http://www.w3.org/2000/svg" version="1.1">
 <metadata>
  <rdf:RDF xmlns:dc="http://purl.org/dc/elements/1.1/" xmlns:cc="http://creativecommons.org/ns#" xmlns:rdf="http://www.w3.org/1999/02/22-rdf-syntax-ns#">
   <cc:Work>
    <dc:type rdf:resource="http://purl.org/dc/dcmitype/StillImage"/>
    <dc:date>2025-10-21T16:47:23.089285</dc:date>
    <dc:format>image/svg+xml</dc:format>
    <dc:creator>
     <cc:Agent>
      <dc:title>Matplotlib v3.10.3, https://matplotlib.org/</dc:title>
     </cc:Agent>
    </dc:creator>
   </cc:Work>
  </rdf:RDF>
 </metadata>
 <defs>
  <style type="text/css">*{stroke-linejoin: round; stroke-linecap: butt}</style>
 </defs>
 <g id="figure_1">
  <g id="patch_1">
   <path d="M 0 360 
L 720 360 
L 720 0 
L 0 0 
z
" style="fill: #ffffff"/>
  </g>
  <g id="axes_1">
   <g id="patch_2">
    <path d="M 90 320.4 
L 648 320.4 
L 648 43.2 
L 90 43.2 
z
" style="fill: #ffffff"/>
   </g>
   <g id="FillBetweenPolyCollection_1">
    <defs>
     <path id="m5f48f642ce" d="M 234.61349 -52.2 
L 224.38651 -52.2 
L 222.06447 -54.745455 
L 218.968202 -57.290909 
L 214.96588 -59.836364 
L 209.952813 -62.381818 
L 203.87173 -64.927273 
L 196.732474 -67.472727 
L 188.627569 -70.018182 
L 179.739974 -72.563636 
L 170.340065 -75.109091 
L 160.770354 -77.654545 
L 151.418604 -80.2 
L 142.682313 -82.745455 
L 134.929472 -85.290909 
L 128.461614 -87.836364 
L 123.485015 -90.381818 
L 120.094536 -92.927273 
L 118.27222 -95.472727 
L 117.9 -98.018182 
L 118.783296 -100.563636 
L 120.680582 -103.109091 
L 123.333463 -105.654545 
L 126.492515 -108.2 
L 129.93574 -110.745455 
L 133.478625 -113.290909 
L 136.976695 -115.836364 
L 140.322864 -118.381818 
L 143.442379 -120.927273 
L 146.287833 -123.472727 
L 148.835811 -126.018182 
L 151.085555 -128.563636 
L 153.059002 -131.109091 
L 154.800933 -133.654545 
L 156.37785 -136.2 
L 157.874557 -138.745455 
L 159.388073 -141.290909 
L 161.019208 -143.836364 
L 162.862766 -146.381818 
L 164.997667 -148.927273 
L 167.478382 -151.472727 
L 170.328873 -154.018182 
L 173.539876 -156.563636 
L 177.069826 -159.109091 
L 180.849264 -161.654545 
L 184.787991 -164.2 
L 188.783953 -166.745455 
L 192.732565 -169.290909 
L 196.535263 -171.836364 
L 200.106246 -174.381818 
L 203.376815 -176.927273 
L 206.297183 -179.472727 
L 208.836096 -182.018182 
L 210.978952 -184.563636 
L 212.725243 -187.109091 
L 214.08609 -189.654545 
L 215.082417 -192.2 
L 215.74394 -194.745455 
L 216.108853 -197.290909 
L 216.223806 -199.836364 
L 216.14363 -202.381818 
L 215.930306 -204.927273 
L 215.650813 -207.472727 
L 215.37376 -210.018182 
L 215.165001 -212.563636 
L 215.082724 -215.109091 
L 215.172692 -217.654545 
L 215.46438 -220.2 
L 215.968666 -222.745455 
L 216.677478 -225.290909 
L 217.565475 -227.836364 
L 218.593498 -230.381818 
L 219.713235 -232.927273 
L 220.872374 -235.472727 
L 222.019562 -238.018182 
L 223.10858 -240.563636 
L 224.101398 -243.109091 
L 224.970028 -245.654545 
L 225.697248 -248.2 
L 226.276442 -250.745455 
L 226.710774 -253.290909 
L 227.01191 -255.836364 
L 227.198414 -258.381818 
L 227.293879 -260.927273 
L 227.324861 -263.472727 
L 227.318662 -266.018182 
L 227.301108 -268.563636 
L 227.294494 -271.109091 
L 227.315913 -273.654545 
L 227.376189 -276.2 
L 227.479536 -278.745455 
L 227.623999 -281.290909 
L 227.802573 -283.836364 
L 228.004808 -286.381818 
L 228.218618 -288.927273 
L 228.432021 -291.472727 
L 228.634556 -294.018182 
L 228.81823 -296.563636 
L 228.977947 -299.109091 
L 229.111456 -301.654545 
L 229.218942 -304.2 
L 229.781058 -304.2 
L 229.781058 -304.2 
L 229.888544 -301.654545 
L 230.022053 -299.109091 
L 230.18177 -296.563636 
L 230.365444 -294.018182 
L 230.567979 -291.472727 
L 230.781382 -288.927273 
L 230.995192 -286.381818 
L 231.197427 -283.836364 
L 231.376001 -281.290909 
L 231.520464 -278.745455 
L 231.623811 -276.2 
L 231.684087 -273.654545 
L 231.705506 -271.109091 
L 231.698892 -268.563636 
L 231.681338 -266.018182 
L 231.675139 -263.472727 
L 231.706121 -260.927273 
L 231.801586 -258.381818 
L 231.98809 -255.836364 
L 232.289226 -253.290909 
L 232.723558 -250.745455 
L 233.302752 -248.2 
L 234.029972 -245.654545 
L 234.898602 -243.109091 
L 235.89142 -240.563636 
L 236.980438 -238.018182 
L 238.127626 -235.472727 
L 239.286765 -232.927273 
L 240.406502 -230.381818 
L 241.434525 -227.836364 
L 242.322522 -225.290909 
L 243.031334 -222.745455 
L 243.53562 -220.2 
L 243.827308 -217.654545 
L 243.917276 -215.109091 
L 243.834999 -212.563636 
L 243.62624 -210.018182 
L 243.349187 -207.472727 
L 243.069694 -204.927273 
L 242.85637 -202.381818 
L 242.776194 -199.836364 
L 242.891147 -197.290909 
L 243.25606 -194.745455 
L 243.917583 -192.2 
L 244.91391 -189.654545 
L 246.274757 -187.109091 
L 248.021048 -184.563636 
L 250.163904 -182.018182 
L 252.702817 -179.472727 
L 255.623185 -176.927273 
L 258.893754 -174.381818 
L 262.464737 -171.836364 
L 266.267435 -169.290909 
L 270.216047 -166.745455 
L 274.212009 -164.2 
L 278.150736 -161.654545 
L 281.930174 -159.109091 
L 285.460124 -156.563636 
L 288.671127 -154.018182 
L 291.521618 -151.472727 
L 294.002333 -148.927273 
L 296.137234 -146.381818 
L 297.980792 -143.836364 
L 299.611927 -141.290909 
L 301.125443 -138.745455 
L 302.62215 -136.2 
L 304.199067 -133.654545 
L 305.940998 -131.109091 
L 307.914445 -128.563636 
L 310.164189 -126.018182 
L 312.712167 -123.472727 
L 315.557621 -120.927273 
L 318.677136 -118.381818 
L 322.023305 -115.836364 
L 325.521375 -113.290909 
L 329.06426 -110.745455 
L 332.507485 -108.2 
L 335.666537 -105.654545 
L 338.319418 -103.109091 
L 340.216704 -100.563636 
L 341.1 -98.018182 
L 340.72778 -95.472727 
L 338.905464 -92.927273 
L 335.514985 -90.381818 
L 330.538386 -87.836364 
L 324.070528 -85.290909 
L 316.317687 -82.745455 
L 307.581396 -80.2 
L 298.229646 -77.654545 
L 288.659935 -75.109091 
L 279.260026 -72.563636 
L 270.372431 -70.018182 
L 262.267526 -67.472727 
L 255.12827 -64.927273 
L 249.047187 -62.381818 
L 244.03412 -59.836364 
L 240.031798 -57.290909 
L 236.93553 -54.745455 
L 234.61349 -52.2 
z
" style="stroke: #3f3f3f; stroke-width: 1.25"/>
    </defs>
    <g clip-path="url(#p4c64712a1d)">
     <use xlink:href="#m5f48f642ce" x="0" y="360" style="fill: #3274a1; stroke: #3f3f3f; stroke-width: 1.25"/>
    </g>
   </g>
   <g id="FillBetweenPolyCollection_2">
    <defs>
     <path id="mdfbaf7262f" d="M 511.411667 -59.482247 
L 505.588333 -59.482247 
L 504.092829 -61.149169 
L 502.009409 -62.816091 
L 499.194801 -64.483012 
L 495.507301 -66.149934 
L 490.82245 -67.816856 
L 485.051883 -69.483778 
L 478.163507 -71.150699 
L 470.200468 -72.817621 
L 461.29588 -74.484543 
L 451.680212 -76.151464 
L 441.67869 -77.818386 
L 431.697024 -79.485308 
L 422.195345 -81.15223 
L 413.65205 -82.819151 
L 406.521205 -84.486073 
L 401.188783 -86.152995 
L 397.93377 -87.819916 
L 396.9 -89.486838 
L 398.083052 -91.15376 
L 401.334178 -92.820682 
L 406.380366 -94.487603 
L 412.856982 -96.154525 
L 420.347646 -97.821447 
L 428.425376 -99.488369 
L 436.689603 -101.15529 
L 444.795132 -102.822212 
L 452.470947 -104.489134 
L 459.528556 -106.156055 
L 465.860861 -107.822977 
L 471.433448 -109.489899 
L 476.270525 -111.156821 
L 480.437875 -112.823742 
L 484.025095 -114.490664 
L 487.129132 -116.157586 
L 489.840813 -117.824507 
L 492.235501 -119.491429 
L 494.368385 -121.158351 
L 496.274193 -122.825273 
L 497.970492 -124.492194 
L 499.463281 -126.159116 
L 500.753385 -127.826038 
L 501.84231 -129.492959 
L 502.736494 -131.159881 
L 503.449432 -132.826803 
L 504.00163 -134.493725 
L 504.418791 -136.160646 
L 504.728887 -137.827568 
L 504.958917 -139.49449 
L 505.132039 -141.161412 
L 505.265603 -142.828333 
L 505.370359 -144.495255 
L 505.450832 -146.162177 
L 505.506641 -147.829098 
L 505.534385 -149.49602 
L 505.529636 -151.162942 
L 505.488635 -152.829864 
L 505.409385 -154.496785 
L 505.292034 -156.163707 
L 505.138609 -157.830629 
L 504.952359 -159.49755 
L 504.73702 -161.164472 
L 504.49636 -162.831394 
L 504.234216 -164.498316 
L 503.95509 -166.165237 
L 503.665175 -167.832159 
L 503.373497 -169.499081 
L 503.092769 -171.166003 
L 502.839558 -172.832924 
L 502.633478 -174.499846 
L 502.495355 -176.166768 
L 502.444553 -177.833689 
L 502.495884 -179.500611 
L 502.656719 -181.167533 
L 502.924916 -182.834455 
L 503.288075 -184.501376 
L 503.72439 -186.168298 
L 504.205045 -187.83522 
L 504.697778 -189.502141 
L 505.171019 -191.169063 
L 505.597886 -192.835985 
L 505.959357 -194.502907 
L 506.246133 -196.169828 
L 506.458947 -197.83675 
L 506.607352 -199.503672 
L 506.707311 -201.170593 
L 506.778061 -202.837515 
L 506.838842 -204.504437 
L 506.906019 -206.171359 
L 506.991053 -207.83828 
L 507.099536 -209.505202 
L 507.231331 -211.172124 
L 507.381616 -212.839046 
L 507.542515 -214.505967 
L 507.704928 -216.172889 
L 507.86019 -217.839811 
L 508.001307 -219.506732 
L 508.123639 -221.173654 
L 508.22504 -222.840576 
L 508.305566 -224.507498 
L 508.694434 -224.507498 
L 508.694434 -224.507498 
L 508.77496 -222.840576 
L 508.876361 -221.173654 
L 508.998693 -219.506732 
L 509.13981 -217.839811 
L 509.295072 -216.172889 
L 509.457485 -214.505967 
L 509.618384 -212.839046 
L 509.768669 -211.172124 
L 509.900464 -209.505202 
L 510.008947 -207.83828 
L 510.093981 -206.171359 
L 510.161158 -204.504437 
L 510.221939 -202.837515 
L 510.292689 -201.170593 
L 510.392648 -199.503672 
L 510.541053 -197.83675 
L 510.753867 -196.169828 
L 511.040643 -194.502907 
L 511.402114 -192.835985 
L 511.828981 -191.169063 
L 512.302222 -189.502141 
L 512.794955 -187.83522 
L 513.27561 -186.168298 
L 513.711925 -184.501376 
L 514.075084 -182.834455 
L 514.343281 -181.167533 
L 514.504116 -179.500611 
L 514.555447 -177.833689 
L 514.504645 -176.166768 
L 514.366522 -174.499846 
L 514.160442 -172.832924 
L 513.907231 -171.166003 
L 513.626503 -169.499081 
L 513.334825 -167.832159 
L 513.04491 -166.165237 
L 512.765784 -164.498316 
L 512.50364 -162.831394 
L 512.26298 -161.164472 
L 512.047641 -159.49755 
L 511.861391 -157.830629 
L 511.707966 -156.163707 
L 511.590615 -154.496785 
L 511.511365 -152.829864 
L 511.470364 -151.162942 
L 511.465615 -149.49602 
L 511.493359 -147.829098 
L 511.549168 -146.162177 
L 511.629641 -144.495255 
L 511.734397 -142.828333 
L 511.867961 -141.161412 
L 512.041083 -139.49449 
L 512.271113 -137.827568 
L 512.581209 -136.160646 
L 512.99837 -134.493725 
L 513.550568 -132.826803 
L 514.263506 -131.159881 
L 515.15769 -129.492959 
L 516.246615 -127.826038 
L 517.536719 -126.159116 
L 519.029508 -124.492194 
L 520.725807 -122.825273 
L 522.631615 -121.158351 
L 524.764499 -119.491429 
L 527.159187 -117.824507 
L 529.870868 -116.157586 
L 532.974905 -114.490664 
L 536.562125 -112.823742 
L 540.729475 -111.156821 
L 545.566552 -109.489899 
L 551.139139 -107.822977 
L 557.471444 -106.156055 
L 564.529053 -104.489134 
L 572.204868 -102.822212 
L 580.310397 -101.15529 
L 588.574624 -99.488369 
L 596.652354 -97.821447 
L 604.143018 -96.154525 
L 610.619634 -94.487603 
L 615.665822 -92.820682 
L 618.916948 -91.15376 
L 620.1 -89.486838 
L 619.06623 -87.819916 
L 615.811217 -86.152995 
L 610.478795 -84.486073 
L 603.34795 -82.819151 
L 594.804655 -81.15223 
L 585.302976 -79.485308 
L 575.32131 -77.818386 
L 565.319788 -76.151464 
L 555.70412 -74.484543 
L 546.799532 -72.817621 
L 538.836493 -71.150699 
L 531.948117 -69.483778 
L 526.17755 -67.816856 
L 521.492699 -66.149934 
L 517.805199 -64.483012 
L 514.990591 -62.816091 
L 512.907171 -61.149169 
L 511.411667 -59.482247 
z
" style="stroke: #3f3f3f; stroke-width: 1.25"/>
    </defs>
    <g clip-path="url(#p4c64712a1d)">
     <use xlink:href="#mdfbaf7262f" x="0" y="360" style="fill: #e1812c; stroke: #3f3f3f; stroke-width: 1.25"/>
    </g>
   </g>
   <g id="matplotlib.axis_1">
    <g id="xtick_1">
     <g id="line2d_1">
      <defs>
       <path id="m4015149b51" d="M 0 0 
L 0 3.5 
" style="stroke: #000000; stroke-width: 0.8"/>
      </defs>
      <g>
       <use xlink:href="#m4015149b51" x="229.5" y="320.4" style="stroke: #000000; stroke-width: 0.8"/>
      </g>
     </g>
     <g id="text_1">
      <!-- n -->
      <g transform="translate(226.33125 334.998438) scale(0.1 -0.1)">
       <defs>
        <path id="DejaVuSans-6e" d="M 3513 2113 
L 3513 0 
L 2938 0 
L 2938 2094 
Q 2938 2591 2744 2837 
Q 2550 3084 2163 3084 
Q 1697 3084 1428 2787 
Q 1159 2491 1159 1978 
L 1159 0 
L 581 0 
L 581 3500 
L 1159 3500 
L 1159 2956 
Q 1366 3272 1645 3428 
Q 1925 3584 2291 3584 
Q 2894 3584 3203 3211 
Q 3513 2838 3513 2113 
z
" transform="scale(0.015625)"/>
       </defs>
       <use xlink:href="#DejaVuSans-6e"/>
      </g>
     </g>
    </g>
    <g id="xtick_2">
     <g id="line2d_2">
      <g>
       <use xlink:href="#m4015149b51" x="508.5" y="320.4" style="stroke: #000000; stroke-width: 0.8"/>
      </g>
     </g>
     <g id="text_2">
      <!-- y -->
      <g transform="translate(505.540625 334.998438) scale(0.1 -0.1)">
       <defs>
        <path id="DejaVuSans-79" d="M 2059 -325 
Q 1816 -950 1584 -1140 
Q 1353 -1331 966 -1331 
L 506 -1331 
L 506 -850 
L 844 -850 
Q 1081 -850 1212 -737 
Q 1344 -625 1503 -206 
L 1606 56 
L 191 3500 
L 800 3500 
L 1894 763 
L 2988 3500 
L 3597 3500 
L 2059 -325 
z
" transform="scale(0.015625)"/>
       </defs>
       <use xlink:href="#DejaVuSans-79"/>
      </g>
     </g>
    </g>
    <g id="text_3">
     <!-- value -->
     <g transform="translate(355.342188 348.676562) scale(0.1 -0.1)">
      <defs>
       <path id="DejaVuSans-76" d="M 191 3500 
L 800 3500 
L 1894 563 
L 2988 3500 
L 3597 3500 
L 2284 0 
L 1503 0 
L 191 3500 
z
" transform="scale(0.015625)"/>
       <path id="DejaVuSans-61" d="M 2194 1759 
Q 1497 1759 1228 1600 
Q 959 1441 959 1056 
Q 959 750 1161 570 
Q 1363 391 1709 391 
Q 2188 391 2477 730 
Q 2766 1069 2766 1631 
L 2766 1759 
L 2194 1759 
z
M 3341 1997 
L 3341 0 
L 2766 0 
L 2766 531 
Q 2569 213 2275 61 
Q 1981 -91 1556 -91 
Q 1019 -91 701 211 
Q 384 513 384 1019 
Q 384 1609 779 1909 
Q 1175 2209 1959 2209 
L 2766 2209 
L 2766 2266 
Q 2766 2663 2505 2880 
Q 2244 3097 1772 3097 
Q 1472 3097 1187 3025 
Q 903 2953 641 2809 
L 641 3341 
Q 956 3463 1253 3523 
Q 1550 3584 1831 3584 
Q 2591 3584 2966 3190 
Q 3341 2797 3341 1997 
z
" transform="scale(0.015625)"/>
       <path id="DejaVuSans-6c" d="M 603 4863 
L 1178 4863 
L 1178 0 
L 603 0 
L 603 4863 
z
" transform="scale(0.015625)"/>
       <path id="DejaVuSans-75" d="M 544 1381 
L 544 3500 
L 1119 3500 
L 1119 1403 
Q 1119 906 1312 657 
Q 1506 409 1894 409 
Q 2359 409 2629 706 
Q 2900 1003 2900 1516 
L 2900 3500 
L 3475 3500 
L 3475 0 
L 2900 0 
L 2900 538 
Q 2691 219 2414 64 
Q 2138 -91 1772 -91 
Q 1169 -91 856 284 
Q 544 659 544 1381 
z
M 1991 3584 
L 1991 3584 
z
" transform="scale(0.015625)"/>
       <path id="DejaVuSans-65" d="M 3597 1894 
L 3597 1613 
L 953 1613 
Q 991 1019 1311 708 
Q 1631 397 2203 397 
Q 2534 397 2845 478 
Q 3156 559 3463 722 
L 3463 178 
Q 3153 47 2828 -22 
Q 2503 -91 2169 -91 
Q 1331 -91 842 396 
Q 353 884 353 1716 
Q 353 2575 817 3079 
Q 1281 3584 2069 3584 
Q 2775 3584 3186 3129 
Q 3597 2675 3597 1894 
z
M 3022 2063 
Q 3016 2534 2758 2815 
Q 2500 3097 2075 3097 
Q 1594 3097 1305 2825 
Q 1016 2553 972 2059 
L 3022 2063 
z
" transform="scale(0.015625)"/>
      </defs>
      <use xlink:href="#DejaVuSans-76"/>
      <use xlink:href="#DejaVuSans-61" transform="translate(59.179688 0)"/>
      <use xlink:href="#DejaVuSans-6c" transform="translate(120.458984 0)"/>
      <use xlink:href="#DejaVuSans-75" transform="translate(148.242188 0)"/>
      <use xlink:href="#DejaVuSans-65" transform="translate(211.621094 0)"/>
     </g>
    </g>
   </g>
   <g id="matplotlib.axis_2">
    <g id="ytick_1">
     <g id="line2d_3">
      <defs>
       <path id="m79ffac8919" d="M 0 0 
L -3.5 0 
" style="stroke: #000000; stroke-width: 0.8"/>
      </defs>
      <g>
       <use xlink:href="#m79ffac8919" x="90" y="283.445335" style="stroke: #000000; stroke-width: 0.8"/>
      </g>
     </g>
     <g id="text_4">
      <!-- 0.0 -->
      <g transform="translate(67.096875 287.244553) scale(0.1 -0.1)">
       <defs>
        <path id="DejaVuSans-30" d="M 2034 4250 
Q 1547 4250 1301 3770 
Q 1056 3291 1056 2328 
Q 1056 1369 1301 889 
Q 1547 409 2034 409 
Q 2525 409 2770 889 
Q 3016 1369 3016 2328 
Q 3016 3291 2770 3770 
Q 2525 4250 2034 4250 
z
M 2034 4750 
Q 2819 4750 3233 4129 
Q 3647 3509 3647 2328 
Q 3647 1150 3233 529 
Q 2819 -91 2034 -91 
Q 1250 -91 836 529 
Q 422 1150 422 2328 
Q 422 3509 836 4129 
Q 1250 4750 2034 4750 
z
" transform="scale(0.015625)"/>
        <path id="DejaVuSans-2e" d="M 684 794 
L 1344 794 
L 1344 0 
L 684 0 
L 684 794 
z
" transform="scale(0.015625)"/>
       </defs>
       <use xlink:href="#DejaVuSans-30"/>
       <use xlink:href="#DejaVuSans-2e" transform="translate(63.623047 0)"/>
       <use xlink:href="#DejaVuSans-30" transform="translate(95.410156 0)"/>
      </g>
     </g>
    </g>
    <g id="ytick_2">
     <g id="line2d_4">
      <g>
       <use xlink:href="#m79ffac8919" x="90" y="238.697566" style="stroke: #000000; stroke-width: 0.8"/>
      </g>
     </g>
     <g id="text_5">
      <!-- 0.5 -->
      <g transform="translate(67.096875 242.496785) scale(0.1 -0.1)">
       <defs>
        <path id="DejaVuSans-35" d="M 691 4666 
L 3169 4666 
L 3169 4134 
L 1269 4134 
L 1269 2991 
Q 1406 3038 1543 3061 
Q 1681 3084 1819 3084 
Q 2600 3084 3056 2656 
Q 3513 2228 3513 1497 
Q 3513 744 3044 326 
Q 2575 -91 1722 -91 
Q 1428 -91 1123 -41 
Q 819 9 494 109 
L 494 744 
Q 775 591 1075 516 
Q 1375 441 1709 441 
Q 2250 441 2565 725 
Q 2881 1009 2881 1497 
Q 2881 1984 2565 2268 
Q 2250 2553 1709 2553 
Q 1456 2553 1204 2497 
Q 953 2441 691 2322 
L 691 4666 
z
" transform="scale(0.015625)"/>
       </defs>
       <use xlink:href="#DejaVuSans-30"/>
       <use xlink:href="#DejaVuSans-2e" transform="translate(63.623047 0)"/>
       <use xlink:href="#DejaVuSans-35" transform="translate(95.410156 0)"/>
      </g>
     </g>
    </g>
    <g id="ytick_3">
     <g id="line2d_5">
      <g>
       <use xlink:href="#m79ffac8919" x="90" y="193.949797" style="stroke: #000000; stroke-width: 0.8"/>
      </g>
     </g>
     <g id="text_6">
      <!-- 1.0 -->
      <g transform="translate(67.096875 197.749016) scale(0.1 -0.1)">
       <defs>
        <path id="DejaVuSans-31" d="M 794 531 
L 1825 531 
L 1825 4091 
L 703 3866 
L 703 4441 
L 1819 4666 
L 2450 4666 
L 2450 531 
L 3481 531 
L 3481 0 
L 794 0 
L 794 531 
z
" transform="scale(0.015625)"/>
       </defs>
       <use xlink:href="#DejaVuSans-31"/>
       <use xlink:href="#DejaVuSans-2e" transform="translate(63.623047 0)"/>
       <use xlink:href="#DejaVuSans-30" transform="translate(95.410156 0)"/>
      </g>
     </g>
    </g>
    <g id="ytick_4">
     <g id="line2d_6">
      <g>
       <use xlink:href="#m79ffac8919" x="90" y="149.202029" style="stroke: #000000; stroke-width: 0.8"/>
      </g>
     </g>
     <g id="text_7">
      <!-- 1.5 -->
      <g transform="translate(67.096875 153.001248) scale(0.1 -0.1)">
       <use xlink:href="#DejaVuSans-31"/>
       <use xlink:href="#DejaVuSans-2e" transform="translate(63.623047 0)"/>
       <use xlink:href="#DejaVuSans-35" transform="translate(95.410156 0)"/>
      </g>
     </g>
    </g>
    <g id="ytick_5">
     <g id="line2d_7">
      <g>
       <use xlink:href="#m79ffac8919" x="90" y="104.45426" style="stroke: #000000; stroke-width: 0.8"/>
      </g>
     </g>
     <g id="text_8">
      <!-- 2.0 -->
      <g transform="translate(67.096875 108.253479) scale(0.1 -0.1)">
       <defs>
        <path id="DejaVuSans-32" d="M 1228 531 
L 3431 531 
L 3431 0 
L 469 0 
L 469 531 
Q 828 903 1448 1529 
Q 2069 2156 2228 2338 
Q 2531 2678 2651 2914 
Q 2772 3150 2772 3378 
Q 2772 3750 2511 3984 
Q 2250 4219 1831 4219 
Q 1534 4219 1204 4116 
Q 875 4013 500 3803 
L 500 4441 
Q 881 4594 1212 4672 
Q 1544 4750 1819 4750 
Q 2544 4750 2975 4387 
Q 3406 4025 3406 3419 
Q 3406 3131 3298 2873 
Q 3191 2616 2906 2266 
Q 2828 2175 2409 1742 
Q 1991 1309 1228 531 
z
" transform="scale(0.015625)"/>
       </defs>
       <use xlink:href="#DejaVuSans-32"/>
       <use xlink:href="#DejaVuSans-2e" transform="translate(63.623047 0)"/>
       <use xlink:href="#DejaVuSans-30" transform="translate(95.410156 0)"/>
      </g>
     </g>
    </g>
    <g id="ytick_6">
     <g id="line2d_8">
      <g>
       <use xlink:href="#m79ffac8919" x="90" y="59.706492" style="stroke: #000000; stroke-width: 0.8"/>
      </g>
     </g>
     <g id="text_9">
      <!-- 2.5 -->
      <g transform="translate(67.096875 63.50571) scale(0.1 -0.1)">
       <use xlink:href="#DejaVuSans-32"/>
       <use xlink:href="#DejaVuSans-2e" transform="translate(63.623047 0)"/>
       <use xlink:href="#DejaVuSans-35" transform="translate(95.410156 0)"/>
      </g>
     </g>
    </g>
    <g id="text_10">
     <!-- cont_variable -->
     <g transform="translate(60.739062 215.409375) rotate(-90) scale(0.1 -0.1)">
      <defs>
       <path id="DejaVuSans-63" d="M 3122 3366 
L 3122 2828 
Q 2878 2963 2633 3030 
Q 2388 3097 2138 3097 
Q 1578 3097 1268 2742 
Q 959 2388 959 1747 
Q 959 1106 1268 751 
Q 1578 397 2138 397 
Q 2388 397 2633 464 
Q 2878 531 3122 666 
L 3122 134 
Q 2881 22 2623 -34 
Q 2366 -91 2075 -91 
Q 1284 -91 818 406 
Q 353 903 353 1747 
Q 353 2603 823 3093 
Q 1294 3584 2113 3584 
Q 2378 3584 2631 3529 
Q 2884 3475 3122 3366 
z
" transform="scale(0.015625)"/>
       <path id="DejaVuSans-6f" d="M 1959 3097 
Q 1497 3097 1228 2736 
Q 959 2375 959 1747 
Q 959 1119 1226 758 
Q 1494 397 1959 397 
Q 2419 397 2687 759 
Q 2956 1122 2956 1747 
Q 2956 2369 2687 2733 
Q 2419 3097 1959 3097 
z
M 1959 3584 
Q 2709 3584 3137 3096 
Q 3566 2609 3566 1747 
Q 3566 888 3137 398 
Q 2709 -91 1959 -91 
Q 1206 -91 779 398 
Q 353 888 353 1747 
Q 353 2609 779 3096 
Q 1206 3584 1959 3584 
z
" transform="scale(0.015625)"/>
       <path id="DejaVuSans-74" d="M 1172 4494 
L 1172 3500 
L 2356 3500 
L 2356 3053 
L 1172 3053 
L 1172 1153 
Q 1172 725 1289 603 
Q 1406 481 1766 481 
L 2356 481 
L 2356 0 
L 1766 0 
Q 1100 0 847 248 
Q 594 497 594 1153 
L 594 3053 
L 172 3053 
L 172 3500 
L 594 3500 
L 594 4494 
L 1172 4494 
z
" transform="scale(0.015625)"/>
       <path id="DejaVuSans-5f" d="M 3263 -1063 
L 3263 -1509 
L -63 -1509 
L -63 -1063 
L 3263 -1063 
z
" transform="scale(0.015625)"/>
       <path id="DejaVuSans-72" d="M 2631 2963 
Q 2534 3019 2420 3045 
Q 2306 3072 2169 3072 
Q 1681 3072 1420 2755 
Q 1159 2438 1159 1844 
L 1159 0 
L 581 0 
L 581 3500 
L 1159 3500 
L 1159 2956 
Q 1341 3275 1631 3429 
Q 1922 3584 2338 3584 
Q 2397 3584 2469 3576 
Q 2541 3569 2628 3553 
L 2631 2963 
z
" transform="scale(0.015625)"/>
       <path id="DejaVuSans-69" d="M 603 3500 
L 1178 3500 
L 1178 0 
L 603 0 
L 603 3500 
z
M 603 4863 
L 1178 4863 
L 1178 4134 
L 603 4134 
L 603 4863 
z
" transform="scale(0.015625)"/>
       <path id="DejaVuSans-62" d="M 3116 1747 
Q 3116 2381 2855 2742 
Q 2594 3103 2138 3103 
Q 1681 3103 1420 2742 
Q 1159 2381 1159 1747 
Q 1159 1113 1420 752 
Q 1681 391 2138 391 
Q 2594 391 2855 752 
Q 3116 1113 3116 1747 
z
M 1159 2969 
Q 1341 3281 1617 3432 
Q 1894 3584 2278 3584 
Q 2916 3584 3314 3078 
Q 3713 2572 3713 1747 
Q 3713 922 3314 415 
Q 2916 -91 2278 -91 
Q 1894 -91 1617 61 
Q 1341 213 1159 525 
L 1159 0 
L 581 0 
L 581 4863 
L 1159 4863 
L 1159 2969 
z
" transform="scale(0.015625)"/>
      </defs>
      <use xlink:href="#DejaVuSans-63"/>
      <use xlink:href="#DejaVuSans-6f" transform="translate(54.980469 0)"/>
      <use xlink:href="#DejaVuSans-6e" transform="translate(116.162109 0)"/>
      <use xlink:href="#DejaVuSans-74" transform="translate(179.541016 0)"/>
      <use xlink:href="#DejaVuSans-5f" transform="translate(218.75 0)"/>
      <use xlink:href="#DejaVuSans-76" transform="translate(268.75 0)"/>
      <use xlink:href="#DejaVuSans-61" transform="translate(327.929688 0)"/>
      <use xlink:href="#DejaVuSans-72" transform="translate(389.208984 0)"/>
      <use xlink:href="#DejaVuSans-69" transform="translate(430.322266 0)"/>
      <use xlink:href="#DejaVuSans-61" transform="translate(458.105469 0)"/>
      <use xlink:href="#DejaVuSans-62" transform="translate(519.384766 0)"/>
      <use xlink:href="#DejaVuSans-6c" transform="translate(582.861328 0)"/>
      <use xlink:href="#DejaVuSans-65" transform="translate(610.644531 0)"/>
     </g>
    </g>
   </g>
   <g id="patch_3">
    <path d="M 90 320.4 
L 90 43.2 
" style="fill: none; stroke: #000000; stroke-width: 0.8; stroke-linejoin: miter; stroke-linecap: square"/>
   </g>
   <g id="patch_4">
    <path d="M 648 320.4 
L 648 43.2 
" style="fill: none; stroke: #000000; stroke-width: 0.8; stroke-linejoin: miter; stroke-linecap: square"/>
   </g>
   <g id="patch_5">
    <path d="M 90 320.4 
L 648 320.4 
" style="fill: none; stroke: #000000; stroke-width: 0.8; stroke-linejoin: miter; stroke-linecap: square"/>
   </g>
   <g id="patch_6">
    <path d="M 90 43.2 
L 648 43.2 
" style="fill: none; stroke: #000000; stroke-width: 0.8; stroke-linejoin: miter; stroke-linecap: square"/>
   </g>
   <g id="PathCollection_1">
    <defs>
     <path id="m4752a63340" d="M 0 2.5 
C 0.663008 2.5 1.29895 2.236584 1.767767 1.767767 
C 2.236584 1.29895 2.5 0.663008 2.5 0 
C 2.5 -0.663008 2.236584 -1.29895 1.767767 -1.767767 
C 1.29895 -2.236584 0.663008 -2.5 0 -2.5 
C -0.663008 -2.5 -1.29895 -2.236584 -1.767767 -1.767767 
C -2.236584 -1.29895 -2.5 -0.663008 -2.5 0 
C -2.5 0.663008 -2.236584 1.29895 -1.767767 1.767767 
C -1.29895 2.236584 -0.663008 2.5 0 2.5 
z
"/>
    </defs>
    <g clip-path="url(#p4c64712a1d)">
     <use xlink:href="#m4752a63340" x="255.265506" y="275.281336" style="fill-opacity: 0.3"/>
     <use xlink:href="#m4752a63340" x="208.1412" y="268.108727" style="fill-opacity: 0.3"/>
     <use xlink:href="#m4752a63340" x="249.210833" y="275.883196" style="fill-opacity: 0.3"/>
     <use xlink:href="#m4752a63340" x="251.429179" y="272.942521" style="fill-opacity: 0.3"/>
     <use xlink:href="#m4752a63340" x="236.261402" y="265.662816" style="fill-opacity: 0.3"/>
     <use xlink:href="#m4752a63340" x="241.973725" y="200.086762" style="fill-opacity: 0.3"/>
     <use xlink:href="#m4752a63340" x="217.819703" y="271.529152" style="fill-opacity: 0.3"/>
     <use xlink:href="#m4752a63340" x="222.631374" y="275.804198" style="fill-opacity: 0.3"/>
     <use xlink:href="#m4752a63340" x="250.751979" y="274.891268" style="fill-opacity: 0.3"/>
     <use xlink:href="#m4752a63340" x="219.675164" y="256.879937" style="fill-opacity: 0.3"/>
     <use xlink:href="#m4752a63340" x="232.113594" y="276.022521" style="fill-opacity: 0.3"/>
     <use xlink:href="#m4752a63340" x="208.64791" y="275.872599" style="fill-opacity: 0.3"/>
     <use xlink:href="#m4752a63340" x="254.592605" y="274.159908" style="fill-opacity: 0.3"/>
     <use xlink:href="#m4752a63340" x="221.509055" y="275.540966" style="fill-opacity: 0.3"/>
     <use xlink:href="#m4752a63340" x="238.801275" y="274.773812" style="fill-opacity: 0.3"/>
     <use xlink:href="#m4752a63340" x="216.285062" y="277.674782" style="fill-opacity: 0.3"/>
     <use xlink:href="#m4752a63340" x="216.989656" y="226.985209" style="fill-opacity: 0.3"/>
     <use xlink:href="#m4752a63340" x="217.859777" y="239.491341" style="fill-opacity: 0.3"/>
     <use xlink:href="#m4752a63340" x="254.983686" y="237.99226" style="fill-opacity: 0.3"/>
     <use xlink:href="#m4752a63340" x="219.215557" y="216.925705" style="fill-opacity: 0.3"/>
     <use xlink:href="#m4752a63340" x="235.21089" y="271.572814" style="fill-opacity: 0.3"/>
     <use xlink:href="#m4752a63340" x="249.714121" y="248.456788" style="fill-opacity: 0.3"/>
     <use xlink:href="#m4752a63340" x="207.670726" y="258.421501" style="fill-opacity: 0.3"/>
     <use xlink:href="#m4752a63340" x="252.350586" y="244.256822" style="fill-opacity: 0.3"/>
     <use xlink:href="#m4752a63340" x="257.170265" y="137.028916" style="fill-opacity: 0.3"/>
     <use xlink:href="#m4752a63340" x="220.243353" y="261.839026" style="fill-opacity: 0.3"/>
     <use xlink:href="#m4752a63340" x="236.617567" y="240.979692" style="fill-opacity: 0.3"/>
     <use xlink:href="#m4752a63340" x="240.745848" y="199.84101" style="fill-opacity: 0.3"/>
     <use xlink:href="#m4752a63340" x="217.449093" y="246.592117" style="fill-opacity: 0.3"/>
     <use xlink:href="#m4752a63340" x="222.731336" y="139.167305" style="fill-opacity: 0.3"/>
     <use xlink:href="#m4752a63340" x="240.170833" y="261.853018" style="fill-opacity: 0.3"/>
     <use xlink:href="#m4752a63340" x="237.512766" y="240.186346" style="fill-opacity: 0.3"/>
     <use xlink:href="#m4752a63340" x="205.517382" y="197.712854" style="fill-opacity: 0.3"/>
     <use xlink:href="#m4752a63340" x="252.963676" y="255.561058" style="fill-opacity: 0.3"/>
     <use xlink:href="#m4752a63340" x="211.553356" y="255.04057" style="fill-opacity: 0.3"/>
     <use xlink:href="#m4752a63340" x="223.064166" y="236.160205" style="fill-opacity: 0.3"/>
     <use xlink:href="#m4752a63340" x="226.54425" y="257.833187" style="fill-opacity: 0.3"/>
     <use xlink:href="#m4752a63340" x="214.618688" y="228.781057" style="fill-opacity: 0.3"/>
     <use xlink:href="#m4752a63340" x="208.233635" y="228.670062" style="fill-opacity: 0.3"/>
     <use xlink:href="#m4752a63340" x="243.644266" y="175.242143" style="fill-opacity: 0.3"/>
     <use xlink:href="#m4752a63340" x="231.098914" y="85.925218" style="fill-opacity: 0.3"/>
     <use xlink:href="#m4752a63340" x="256.196792" y="259.386326" style="fill-opacity: 0.3"/>
     <use xlink:href="#m4752a63340" x="203.606682" y="262.23266" style="fill-opacity: 0.3"/>
     <use xlink:href="#m4752a63340" x="241.319475" y="143.478572" style="fill-opacity: 0.3"/>
     <use xlink:href="#m4752a63340" x="211.095397" y="245.996382" style="fill-opacity: 0.3"/>
     <use xlink:href="#m4752a63340" x="202.099791" y="233.627873" style="fill-opacity: 0.3"/>
     <use xlink:href="#m4752a63340" x="211.369634" y="247.065986" style="fill-opacity: 0.3"/>
     <use xlink:href="#m4752a63340" x="205.160896" y="273.75833" style="fill-opacity: 0.3"/>
     <use xlink:href="#m4752a63340" x="242.422101" y="269.455596" style="fill-opacity: 0.3"/>
     <use xlink:href="#m4752a63340" x="240.053532" y="245.568351" style="fill-opacity: 0.3"/>
     <use xlink:href="#m4752a63340" x="216.470728" y="269.507757" style="fill-opacity: 0.3"/>
     <use xlink:href="#m4752a63340" x="214.356767" y="267.056002" style="fill-opacity: 0.3"/>
     <use xlink:href="#m4752a63340" x="250.860609" y="271.876278" style="fill-opacity: 0.3"/>
     <use xlink:href="#m4752a63340" x="216.453725" y="217.392214" style="fill-opacity: 0.3"/>
     <use xlink:href="#m4752a63340" x="250.580158" y="220.834748" style="fill-opacity: 0.3"/>
     <use xlink:href="#m4752a63340" x="219.341246" y="124.137272" style="fill-opacity: 0.3"/>
     <use xlink:href="#m4752a63340" x="234.347651" y="214.719931" style="fill-opacity: 0.3"/>
     <use xlink:href="#m4752a63340" x="237.669387" y="266.389676" style="fill-opacity: 0.3"/>
     <use xlink:href="#m4752a63340" x="214.616011" y="180.867035" style="fill-opacity: 0.3"/>
     <use xlink:href="#m4752a63340" x="247.628581" y="267.437442" style="fill-opacity: 0.3"/>
     <use xlink:href="#m4752a63340" x="216.295131" y="263.685855" style="fill-opacity: 0.3"/>
     <use xlink:href="#m4752a63340" x="225.980589" y="204.888873" style="fill-opacity: 0.3"/>
     <use xlink:href="#m4752a63340" x="244.458475" y="156.871631" style="fill-opacity: 0.3"/>
     <use xlink:href="#m4752a63340" x="239.801435" y="141.382366" style="fill-opacity: 0.3"/>
     <use xlink:href="#m4752a63340" x="252.738838" y="264.173186" style="fill-opacity: 0.3"/>
     <use xlink:href="#m4752a63340" x="247.44421" y="268.433905" style="fill-opacity: 0.3"/>
     <use xlink:href="#m4752a63340" x="244.210033" y="263.848891" style="fill-opacity: 0.3"/>
     <use xlink:href="#m4752a63340" x="254.511654" y="266.029758" style="fill-opacity: 0.3"/>
     <use xlink:href="#m4752a63340" x="208.921963" y="156.561374" style="fill-opacity: 0.3"/>
     <use xlink:href="#m4752a63340" x="211.029208" y="205.184303" style="fill-opacity: 0.3"/>
     <use xlink:href="#m4752a63340" x="244.590032" y="187.531497" style="fill-opacity: 0.3"/>
     <use xlink:href="#m4752a63340" x="233.520692" y="211.961699" style="fill-opacity: 0.3"/>
     <use xlink:href="#m4752a63340" x="217.705666" y="247.973252" style="fill-opacity: 0.3"/>
     <use xlink:href="#m4752a63340" x="244.680661" y="256.123148" style="fill-opacity: 0.3"/>
     <use xlink:href="#m4752a63340" x="201.928312" y="207.989862" style="fill-opacity: 0.3"/>
     <use xlink:href="#m4752a63340" x="249.936802" y="276.194029" style="fill-opacity: 0.3"/>
     <use xlink:href="#m4752a63340" x="212.983663" y="276.648141" style="fill-opacity: 0.3"/>
     <use xlink:href="#m4752a63340" x="229.425613" y="222.676553" style="fill-opacity: 0.3"/>
     <use xlink:href="#m4752a63340" x="220.59975" y="208.485724" style="fill-opacity: 0.3"/>
     <use xlink:href="#m4752a63340" x="236.923103" y="201.119757" style="fill-opacity: 0.3"/>
     <use xlink:href="#m4752a63340" x="233.152345" y="244.918636" style="fill-opacity: 0.3"/>
     <use xlink:href="#m4752a63340" x="239.297735" y="242.796137" style="fill-opacity: 0.3"/>
     <use xlink:href="#m4752a63340" x="206.955806" y="255.119924" style="fill-opacity: 0.3"/>
     <use xlink:href="#m4752a63340" x="223.813188" y="234.340837" style="fill-opacity: 0.3"/>
     <use xlink:href="#m4752a63340" x="231.406585" y="215.888141" style="fill-opacity: 0.3"/>
     <use xlink:href="#m4752a63340" x="252.379677" y="263.323515" style="fill-opacity: 0.3"/>
     <use xlink:href="#m4752a63340" x="235.895157" y="275.803771" style="fill-opacity: 0.3"/>
     <use xlink:href="#m4752a63340" x="223.107422" y="205.870348" style="fill-opacity: 0.3"/>
     <use xlink:href="#m4752a63340" x="236.87989" y="223.130844" style="fill-opacity: 0.3"/>
     <use xlink:href="#m4752a63340" x="218.394777" y="270.57341" style="fill-opacity: 0.3"/>
     <use xlink:href="#m4752a63340" x="218.530148" y="251.329753" style="fill-opacity: 0.3"/>
     <use xlink:href="#m4752a63340" x="202.030833" y="238.651432" style="fill-opacity: 0.3"/>
     <use xlink:href="#m4752a63340" x="213.751857" y="245.704362" style="fill-opacity: 0.3"/>
     <use xlink:href="#m4752a63340" x="228.964858" y="250.703172" style="fill-opacity: 0.3"/>
     <use xlink:href="#m4752a63340" x="217.823012" y="271.07433" style="fill-opacity: 0.3"/>
     <use xlink:href="#m4752a63340" x="204.688696" y="262.823329" style="fill-opacity: 0.3"/>
     <use xlink:href="#m4752a63340" x="239.059506" y="264.051423" style="fill-opacity: 0.3"/>
     <use xlink:href="#m4752a63340" x="244.582724" y="197.386964" style="fill-opacity: 0.3"/>
     <use xlink:href="#m4752a63340" x="227.441392" y="207.086162" style="fill-opacity: 0.3"/>
     <use xlink:href="#m4752a63340" x="223.265075" y="226.493609" style="fill-opacity: 0.3"/>
     <use xlink:href="#m4752a63340" x="223.11619" y="221.928524" style="fill-opacity: 0.3"/>
     <use xlink:href="#m4752a63340" x="218.166784" y="225.251244" style="fill-opacity: 0.3"/>
     <use xlink:href="#m4752a63340" x="224.809798" y="210.149733" style="fill-opacity: 0.3"/>
     <use xlink:href="#m4752a63340" x="211.576489" y="274.281533" style="fill-opacity: 0.3"/>
     <use xlink:href="#m4752a63340" x="255.443006" y="239.924952" style="fill-opacity: 0.3"/>
     <use xlink:href="#m4752a63340" x="212.614232" y="235.322264" style="fill-opacity: 0.3"/>
     <use xlink:href="#m4752a63340" x="229.21927" y="217.55712" style="fill-opacity: 0.3"/>
     <use xlink:href="#m4752a63340" x="251.719199" y="220.013191" style="fill-opacity: 0.3"/>
     <use xlink:href="#m4752a63340" x="232.803674" y="202.791744" style="fill-opacity: 0.3"/>
     <use xlink:href="#m4752a63340" x="223.445696" y="213.889137" style="fill-opacity: 0.3"/>
     <use xlink:href="#m4752a63340" x="208.116033" y="249.4825" style="fill-opacity: 0.3"/>
     <use xlink:href="#m4752a63340" x="232.654419" y="217.120451" style="fill-opacity: 0.3"/>
     <use xlink:href="#m4752a63340" x="233.907766" y="273.199535" style="fill-opacity: 0.3"/>
     <use xlink:href="#m4752a63340" x="248.689296" y="274.384955" style="fill-opacity: 0.3"/>
     <use xlink:href="#m4752a63340" x="238.352753" y="193.865337" style="fill-opacity: 0.3"/>
     <use xlink:href="#m4752a63340" x="225.604106" y="175.266141" style="fill-opacity: 0.3"/>
     <use xlink:href="#m4752a63340" x="207.817144" y="190.288361" style="fill-opacity: 0.3"/>
     <use xlink:href="#m4752a63340" x="220.437266" y="241.770006" style="fill-opacity: 0.3"/>
     <use xlink:href="#m4752a63340" x="225.767184" y="270.740533" style="fill-opacity: 0.3"/>
     <use xlink:href="#m4752a63340" x="224.117328" y="203.359177" style="fill-opacity: 0.3"/>
     <use xlink:href="#m4752a63340" x="215.08889" y="140.09271" style="fill-opacity: 0.3"/>
    </g>
   </g>
   <g id="PathCollection_2">
    <g clip-path="url(#p4c64712a1d)">
     <use xlink:href="#m4752a63340" x="521.388143" y="256.00107" style="fill-opacity: 0.3"/>
     <use xlink:href="#m4752a63340" x="506.211384" y="258.892269" style="fill-opacity: 0.3"/>
     <use xlink:href="#m4752a63340" x="503.752583" y="263.180461" style="fill-opacity: 0.3"/>
     <use xlink:href="#m4752a63340" x="530.821983" y="261.390359" style="fill-opacity: 0.3"/>
     <use xlink:href="#m4752a63340" x="535.45907" y="261.14756" style="fill-opacity: 0.3"/>
     <use xlink:href="#m4752a63340" x="484.501758" y="265.474698" style="fill-opacity: 0.3"/>
     <use xlink:href="#m4752a63340" x="494.172636" y="238.959715" style="fill-opacity: 0.3"/>
     <use xlink:href="#m4752a63340" x="483.595652" y="258.788955" style="fill-opacity: 0.3"/>
     <use xlink:href="#m4752a63340" x="487.914766" y="246.197774" style="fill-opacity: 0.3"/>
     <use xlink:href="#m4752a63340" x="490.926932" y="250.552414" style="fill-opacity: 0.3"/>
     <use xlink:href="#m4752a63340" x="481.666089" y="259.836803" style="fill-opacity: 0.3"/>
     <use xlink:href="#m4752a63340" x="513.630701" y="240.920857" style="fill-opacity: 0.3"/>
     <use xlink:href="#m4752a63340" x="533.206534" y="248.055504" style="fill-opacity: 0.3"/>
     <use xlink:href="#m4752a63340" x="514.842138" y="255.149792" style="fill-opacity: 0.3"/>
     <use xlink:href="#m4752a63340" x="506.481659" y="270.386449" style="fill-opacity: 0.3"/>
     <use xlink:href="#m4752a63340" x="534.651611" y="268.973475" style="fill-opacity: 0.3"/>
     <use xlink:href="#m4752a63340" x="511.568688" y="272.516495" style="fill-opacity: 0.3"/>
     <use xlink:href="#m4752a63340" x="507.765959" y="269.351919" style="fill-opacity: 0.3"/>
     <use xlink:href="#m4752a63340" x="521.456523" y="267.044584" style="fill-opacity: 0.3"/>
     <use xlink:href="#m4752a63340" x="480.741391" y="272.20239" style="fill-opacity: 0.3"/>
     <use xlink:href="#m4752a63340" x="526.826458" y="271.094409" style="fill-opacity: 0.3"/>
     <use xlink:href="#m4752a63340" x="533.263688" y="271.175088" style="fill-opacity: 0.3"/>
     <use xlink:href="#m4752a63340" x="531.249908" y="270.008238" style="fill-opacity: 0.3"/>
     <use xlink:href="#m4752a63340" x="500.371847" y="276.070857" style="fill-opacity: 0.3"/>
     <use xlink:href="#m4752a63340" x="496.345164" y="269.959969" style="fill-opacity: 0.3"/>
     <use xlink:href="#m4752a63340" x="486.888952" y="258.672556" style="fill-opacity: 0.3"/>
     <use xlink:href="#m4752a63340" x="504.381514" y="271.717957" style="fill-opacity: 0.3"/>
     <use xlink:href="#m4752a63340" x="523.094074" y="272.67187" style="fill-opacity: 0.3"/>
     <use xlink:href="#m4752a63340" x="515.790872" y="264.190008" style="fill-opacity: 0.3"/>
     <use xlink:href="#m4752a63340" x="518.020219" y="259.735594" style="fill-opacity: 0.3"/>
     <use xlink:href="#m4752a63340" x="500.769531" y="270.230833" style="fill-opacity: 0.3"/>
     <use xlink:href="#m4752a63340" x="532.756505" y="270.946681" style="fill-opacity: 0.3"/>
     <use xlink:href="#m4752a63340" x="484.091862" y="267.384014" style="fill-opacity: 0.3"/>
     <use xlink:href="#m4752a63340" x="517.526299" y="268.020244" style="fill-opacity: 0.3"/>
     <use xlink:href="#m4752a63340" x="497.887238" y="276.876835" style="fill-opacity: 0.3"/>
     <use xlink:href="#m4752a63340" x="491.501652" y="271.221549" style="fill-opacity: 0.3"/>
     <use xlink:href="#m4752a63340" x="515.620076" y="269.77929" style="fill-opacity: 0.3"/>
     <use xlink:href="#m4752a63340" x="536.377524" y="278.452651" style="fill-opacity: 0.3"/>
     <use xlink:href="#m4752a63340" x="489.495198" y="272.549315" style="fill-opacity: 0.3"/>
     <use xlink:href="#m4752a63340" x="483.262069" y="215.216515" style="fill-opacity: 0.3"/>
     <use xlink:href="#m4752a63340" x="495.634123" y="201.182562" style="fill-opacity: 0.3"/>
     <use xlink:href="#m4752a63340" x="502.437868" y="193.16327" style="fill-opacity: 0.3"/>
     <use xlink:href="#m4752a63340" x="485.766478" y="180.882962" style="fill-opacity: 0.3"/>
     <use xlink:href="#m4752a63340" x="534.005906" y="281.15021" style="fill-opacity: 0.3"/>
     <use xlink:href="#m4752a63340" x="492.945807" y="281.689947" style="fill-opacity: 0.3"/>
     <use xlink:href="#m4752a63340" x="488.433865" y="282.126147" style="fill-opacity: 0.3"/>
     <use xlink:href="#m4752a63340" x="482.644318" y="281.780093" style="fill-opacity: 0.3"/>
     <use xlink:href="#m4752a63340" x="513.510033" y="281.377856" style="fill-opacity: 0.3"/>
     <use xlink:href="#m4752a63340" x="517.003306" y="280.659824" style="fill-opacity: 0.3"/>
     <use xlink:href="#m4752a63340" x="525.212506" y="280.578025" style="fill-opacity: 0.3"/>
     <use xlink:href="#m4752a63340" x="529.371381" y="280.978183" style="fill-opacity: 0.3"/>
     <use xlink:href="#m4752a63340" x="484.898792" y="281.345353" style="fill-opacity: 0.3"/>
     <use xlink:href="#m4752a63340" x="521.746303" y="245.024425" style="fill-opacity: 0.3"/>
     <use xlink:href="#m4752a63340" x="493.658234" y="153.884109" style="fill-opacity: 0.3"/>
     <use xlink:href="#m4752a63340" x="489.294812" y="177.453061" style="fill-opacity: 0.3"/>
     <use xlink:href="#m4752a63340" x="530.965147" y="175.82319" style="fill-opacity: 0.3"/>
     <use xlink:href="#m4752a63340" x="497.503744" y="185.25664" style="fill-opacity: 0.3"/>
     <use xlink:href="#m4752a63340" x="490.336012" y="237.048755" style="fill-opacity: 0.3"/>
     <use xlink:href="#m4752a63340" x="513.447591" y="223.672536" style="fill-opacity: 0.3"/>
     <use xlink:href="#m4752a63340" x="497.330267" y="244.636728" style="fill-opacity: 0.3"/>
     <use xlink:href="#m4752a63340" x="534.522413" y="244.742087" style="fill-opacity: 0.3"/>
     <use xlink:href="#m4752a63340" x="490.112481" y="270.3095" style="fill-opacity: 0.3"/>
     <use xlink:href="#m4752a63340" x="521.376447" y="261.321223" style="fill-opacity: 0.3"/>
     <use xlink:href="#m4752a63340" x="501.418018" y="269.283186" style="fill-opacity: 0.3"/>
     <use xlink:href="#m4752a63340" x="532.753866" y="269.203724" style="fill-opacity: 0.3"/>
     <use xlink:href="#m4752a63340" x="502.603279" y="266.492562" style="fill-opacity: 0.3"/>
     <use xlink:href="#m4752a63340" x="483.118662" y="269.562691" style="fill-opacity: 0.3"/>
     <use xlink:href="#m4752a63340" x="501.476533" y="272.811577" style="fill-opacity: 0.3"/>
     <use xlink:href="#m4752a63340" x="480.623473" y="272.393731" style="fill-opacity: 0.3"/>
     <use xlink:href="#m4752a63340" x="500.933495" y="273.324944" style="fill-opacity: 0.3"/>
     <use xlink:href="#m4752a63340" x="495.432577" y="254.424296" style="fill-opacity: 0.3"/>
     <use xlink:href="#m4752a63340" x="492.968296" y="258.338214" style="fill-opacity: 0.3"/>
     <use xlink:href="#m4752a63340" x="505.746624" y="270.600226" style="fill-opacity: 0.3"/>
     <use xlink:href="#m4752a63340" x="517.804997" y="263.857612" style="fill-opacity: 0.3"/>
     <use xlink:href="#m4752a63340" x="494.380556" y="272.896078" style="fill-opacity: 0.3"/>
     <use xlink:href="#m4752a63340" x="498.814494" y="270.735974" style="fill-opacity: 0.3"/>
     <use xlink:href="#m4752a63340" x="485.532538" y="270.829079" style="fill-opacity: 0.3"/>
     <use xlink:href="#m4752a63340" x="510.762283" y="269.524067" style="fill-opacity: 0.3"/>
     <use xlink:href="#m4752a63340" x="519.11365" y="271.136221" style="fill-opacity: 0.3"/>
     <use xlink:href="#m4752a63340" x="509.792412" y="268.885264" style="fill-opacity: 0.3"/>
     <use xlink:href="#m4752a63340" x="530.326336" y="265.738939" style="fill-opacity: 0.3"/>
     <use xlink:href="#m4752a63340" x="530.930644" y="260.589115" style="fill-opacity: 0.3"/>
     <use xlink:href="#m4752a63340" x="515.233192" y="266.583972" style="fill-opacity: 0.3"/>
     <use xlink:href="#m4752a63340" x="507.856753" y="260.342842" style="fill-opacity: 0.3"/>
     <use xlink:href="#m4752a63340" x="489.274675" y="268.508762" style="fill-opacity: 0.3"/>
     <use xlink:href="#m4752a63340" x="501.235333" y="265.32561" style="fill-opacity: 0.3"/>
     <use xlink:href="#m4752a63340" x="507.981818" y="265.087564" style="fill-opacity: 0.3"/>
     <use xlink:href="#m4752a63340" x="496.029251" y="271.178698" style="fill-opacity: 0.3"/>
     <use xlink:href="#m4752a63340" x="494.462527" y="264.859129" style="fill-opacity: 0.3"/>
     <use xlink:href="#m4752a63340" x="534.251435" y="250.361553" style="fill-opacity: 0.3"/>
     <use xlink:href="#m4752a63340" x="523.431709" y="262.311149" style="fill-opacity: 0.3"/>
     <use xlink:href="#m4752a63340" x="513.158181" y="268.900616" style="fill-opacity: 0.3"/>
     <use xlink:href="#m4752a63340" x="495.443761" y="273.30336" style="fill-opacity: 0.3"/>
     <use xlink:href="#m4752a63340" x="490.975683" y="270.339587" style="fill-opacity: 0.3"/>
     <use xlink:href="#m4752a63340" x="496.722591" y="272.34159" style="fill-opacity: 0.3"/>
     <use xlink:href="#m4752a63340" x="501.361711" y="274.122756" style="fill-opacity: 0.3"/>
     <use xlink:href="#m4752a63340" x="489.031676" y="273.612786" style="fill-opacity: 0.3"/>
     <use xlink:href="#m4752a63340" x="490.459495" y="279.018503" style="fill-opacity: 0.3"/>
     <use xlink:href="#m4752a63340" x="521.577419" y="278.563599" style="fill-opacity: 0.3"/>
     <use xlink:href="#m4752a63340" x="522.714045" y="269.072036" style="fill-opacity: 0.3"/>
     <use xlink:href="#m4752a63340" x="518.469892" y="279.657984" style="fill-opacity: 0.3"/>
     <use xlink:href="#m4752a63340" x="499.515391" y="274.278962" style="fill-opacity: 0.3"/>
     <use xlink:href="#m4752a63340" x="489.344529" y="277.56835" style="fill-opacity: 0.3"/>
     <use xlink:href="#m4752a63340" x="488.023674" y="275.275302" style="fill-opacity: 0.3"/>
     <use xlink:href="#m4752a63340" x="534.927802" y="276.480612" style="fill-opacity: 0.3"/>
     <use xlink:href="#m4752a63340" x="504.34623" y="276.768056" style="fill-opacity: 0.3"/>
     <use xlink:href="#m4752a63340" x="533.544948" y="273.861873" style="fill-opacity: 0.3"/>
     <use xlink:href="#m4752a63340" x="504.772837" y="260.812595" style="fill-opacity: 0.3"/>
     <use xlink:href="#m4752a63340" x="535.872824" y="273.626411" style="fill-opacity: 0.3"/>
     <use xlink:href="#m4752a63340" x="523.449712" y="259.272489" style="fill-opacity: 0.3"/>
     <use xlink:href="#m4752a63340" x="520.659312" y="274.438055" style="fill-opacity: 0.3"/>
     <use xlink:href="#m4752a63340" x="517.588417" y="274.682329" style="fill-opacity: 0.3"/>
     <use xlink:href="#m4752a63340" x="519.600355" y="281.136618" style="fill-opacity: 0.3"/>
     <use xlink:href="#m4752a63340" x="535.72989" y="276.189781" style="fill-opacity: 0.3"/>
     <use xlink:href="#m4752a63340" x="497.388487" y="278.331069" style="fill-opacity: 0.3"/>
     <use xlink:href="#m4752a63340" x="506.481219" y="272.97123" style="fill-opacity: 0.3"/>
    </g>
   </g>
  </g>
 </g>
 <defs>
  <clipPath id="p4c64712a1d">
   <rect x="90" y="43.2" width="558" height="277.2"/>
  </clipPath>
 </defs>
</svg>
