<?xml version="1.0" encoding="utf-8" standalone="no"?>
<!DOCTYPE svg PUBLIC "-//W3C//DTD SVG 1.1//EN"
  "http://www.w3.org/Graphics/SVG/1.1/DTD/svg11.dtd">
<svg xmlns:xlink="http://www.w3.org/1999/xlink" width="720pt" height="360pt" viewBox="0 0 720 360" xmlns="http://www.w3.org/2000/svg" version="1.1">
 <metadata>
  <rdf:RDF xmlns:dc="http://purl.org/dc/elements/1.1/" xmlns:cc="http://creativecommons.org/ns#" xmlns:rdf="http://www.w3.org/1999/02/22-rdf-syntax-ns#">
   <cc:Work>
    <dc:type rdf:resource="http://purl.org/dc/dcmitype/StillImage"/>
    <dc:date>2025-10-21T16:47:36.396968</dc:date>
    <dc:format>image/svg+xml</dc:format>
    <dc:creator>
     <cc:Agent>
      <dc:title>Matplotlib v3.10.3, https://matplotlib.org/</dc:title>
     </cc:Agent>
    </dc:creator>
   </cc:Work>
  </rdf:RDF>
 </metadata>
 <defs>
  <style type="text/css">*{stroke-linejoin: round; stroke-linecap: butt}</style>
 </defs>
 <g id="figure_1">
  <g id="patch_1">
   <path d="M 0 360 
L 720 360 
L 720 0 
L 0 0 
z
" style="fill: #ffffff"/>
  </g>
  <g id="axes_1">
   <g id="patch_2">
    <path d="M 90 320.4 
L 648 320.4 
L 648 43.2 
L 90 43.2 
z
" style="fill: #ffffff"/>
   </g>
   <g id="FillBetweenPolyCollection_1">
    <defs>
     <path id="me1106ec36f" d="M 162.277928 -60.863003 
L 157.222072 -60.863003 
L 156.378888 -62.863553 
L 155.321915 -64.864102 
L 154.020297 -66.864652 
L 152.445912 -68.865201 
L 150.575823 -70.86575 
L 148.394906 -72.8663 
L 145.898438 -74.866849 
L 143.094413 -76.867399 
L 140.005288 -78.867948 
L 136.668924 -80.868497 
L 133.138514 -82.869047 
L 129.481368 -84.869596 
L 125.776563 -86.870146 
L 122.111555 -88.870695 
L 118.578004 -90.871244 
L 115.267116 -92.871794 
L 112.264906 -94.872343 
L 109.64777 -96.872893 
L 107.478728 -98.873442 
L 105.804618 -100.873991 
L 104.6544 -102.874541 
L 104.038629 -104.87509 
L 103.95 -106.87564 
L 104.364808 -108.876189 
L 105.245092 -110.876738 
L 106.541199 -112.877288 
L 108.194545 -114.877837 
L 110.140375 -116.878387 
L 112.310391 -118.878936 
L 114.635183 -120.879485 
L 117.046444 -122.880035 
L 119.478977 -124.880584 
L 121.872534 -126.881133 
L 124.173477 -128.881683 
L 126.336276 -130.882232 
L 128.324782 -132.882782 
L 130.11322 -134.883331 
L 131.686815 -136.88388 
L 133.041961 -138.88443 
L 134.185883 -140.884979 
L 135.135739 -142.885529 
L 135.917189 -144.886078 
L 136.562497 -146.886627 
L 137.108261 -148.887177 
L 137.592935 -150.887726 
L 138.054317 -152.888276 
L 138.527174 -154.888825 
L 139.041192 -156.889374 
L 139.619387 -158.889924 
L 140.277077 -160.890473 
L 141.021482 -162.891023 
L 141.851935 -164.891572 
L 142.760665 -166.892121 
L 143.734037 -168.892671 
L 144.754123 -170.89322 
L 145.800455 -172.89377 
L 146.85177 -174.894319 
L 147.887628 -176.894868 
L 148.889747 -178.895418 
L 149.842982 -180.895967 
L 150.73588 -182.896517 
L 151.560833 -184.897066 
L 152.313839 -186.897615 
L 152.993984 -188.898165 
L 153.602723 -190.898714 
L 154.143081 -192.899264 
L 154.618904 -194.899813 
L 155.034227 -196.900362 
L 155.39285 -198.900912 
L 155.698144 -200.901461 
L 155.953081 -202.902011 
L 156.160449 -204.90256 
L 156.323194 -206.903109 
L 156.444803 -208.903659 
L 156.529643 -210.904208 
L 156.583193 -212.904758 
L 156.612111 -214.905307 
L 156.624105 -216.905856 
L 156.627626 -218.906406 
L 156.631405 -220.906955 
L 156.643893 -222.907505 
L 156.672668 -224.908054 
L 156.723899 -226.908603 
L 156.801904 -228.909153 
L 156.908878 -230.909702 
L 157.044809 -232.910252 
L 157.207589 -234.910801 
L 157.393298 -236.91135 
L 157.596621 -238.9119 
L 157.811361 -240.912449 
L 158.030968 -242.912999 
L 158.249047 -244.913548 
L 158.459794 -246.914097 
L 158.658325 -248.914647 
L 158.840882 -250.915196 
L 159.004922 -252.915745 
L 159.149091 -254.916295 
L 159.273109 -256.916844 
L 159.377594 -258.917394 
L 160.122406 -258.917394 
L 160.122406 -258.917394 
L 160.226891 -256.916844 
L 160.350909 -254.916295 
L 160.495078 -252.915745 
L 160.659118 -250.915196 
L 160.841675 -248.914647 
L 161.040206 -246.914097 
L 161.250953 -244.913548 
L 161.469032 -242.912999 
L 161.688639 -240.912449 
L 161.903379 -238.9119 
L 162.106702 -236.91135 
L 162.292411 -234.910801 
L 162.455191 -232.910252 
L 162.591122 -230.909702 
L 162.698096 -228.909153 
L 162.776101 -226.908603 
L 162.827332 -224.908054 
L 162.856107 -222.907505 
L 162.868595 -220.906955 
L 162.872374 -218.906406 
L 162.875895 -216.905856 
L 162.887889 -214.905307 
L 162.916807 -212.904758 
L 162.970357 -210.904208 
L 163.055197 -208.903659 
L 163.176806 -206.903109 
L 163.339551 -204.90256 
L 163.546919 -202.902011 
L 163.801856 -200.901461 
L 164.10715 -198.900912 
L 164.465773 -196.900362 
L 164.881096 -194.899813 
L 165.356919 -192.899264 
L 165.897277 -190.898714 
L 166.506016 -188.898165 
L 167.186161 -186.897615 
L 167.939167 -184.897066 
L 168.76412 -182.896517 
L 169.657018 -180.895967 
L 170.610253 -178.895418 
L 171.612372 -176.894868 
L 172.64823 -174.894319 
L 173.699545 -172.89377 
L 174.745877 -170.89322 
L 175.765963 -168.892671 
L 176.739335 -166.892121 
L 177.648065 -164.891572 
L 178.478518 -162.891023 
L 179.222923 -160.890473 
L 179.880613 -158.889924 
L 180.458808 -156.889374 
L 180.972826 -154.888825 
L 181.445683 -152.888276 
L 181.907065 -150.887726 
L 182.391739 -148.887177 
L 182.937503 -146.886627 
L 183.582811 -144.886078 
L 184.364261 -142.885529 
L 185.314117 -140.884979 
L 186.458039 -138.88443 
L 187.813185 -136.88388 
L 189.38678 -134.883331 
L 191.175218 -132.882782 
L 193.163724 -130.882232 
L 195.326523 -128.881683 
L 197.627466 -126.881133 
L 200.021023 -124.880584 
L 202.453556 -122.880035 
L 204.864817 -120.879485 
L 207.189609 -118.878936 
L 209.359625 -116.878387 
L 211.305455 -114.877837 
L 212.958801 -112.877288 
L 214.254908 -110.876738 
L 215.135192 -108.876189 
L 215.55 -106.87564 
L 215.461371 -104.87509 
L 214.8456 -102.874541 
L 213.695382 -100.873991 
L 212.021272 -98.873442 
L 209.85223 -96.872893 
L 207.235094 -94.872343 
L 204.232884 -92.871794 
L 200.921996 -90.871244 
L 197.388445 -88.870695 
L 193.723437 -86.870146 
L 190.018632 -84.869596 
L 186.361486 -82.869047 
L 182.831076 -80.868497 
L 179.494712 -78.867948 
L 176.405587 -76.867399 
L 173.601562 -74.866849 
L 171.105094 -72.8663 
L 168.924177 -70.86575 
L 167.054088 -68.865201 
L 165.479703 -66.864652 
L 164.178085 -64.864102 
L 163.121112 -62.863553 
L 162.277928 -60.863003 
z
" style="stroke: #3d3d3d; stroke-width: 1.25"/>
    </defs>
    <g clip-path="url(#p424a702b1d)">
     <use xlink:href="#me1106ec36f" x="0" y="360" style="fill: #3274a1; stroke: #3d3d3d; stroke-width: 1.25"/>
    </g>
   </g>
   <g id="FillBetweenPolyCollection_2">
    <defs>
     <path id="m2dfcfa887a" d="M 301.169455 -66.857265 
L 297.330545 -66.857265 
L 296.268383 -69.254666 
L 294.762975 -71.652067 
L 292.707415 -74.049469 
L 290.0055 -76.44687 
L 286.590179 -78.844271 
L 282.444209 -81.241673 
L 277.619495 -83.639074 
L 272.250564 -86.036475 
L 266.557696 -88.433877 
L 260.836409 -90.831278 
L 255.432444 -93.22868 
L 250.704547 -95.626081 
L 246.980476 -98.023482 
L 244.513856 -100.420884 
L 243.45 -102.818285 
L 243.807411 -105.215686 
L 245.478497 -107.613088 
L 248.249077 -110.010489 
L 251.832363 -112.407891 
L 255.910434 -114.805292 
L 260.175306 -117.202693 
L 264.362588 -119.600095 
L 268.273151 -121.997496 
L 271.781213 -124.394897 
L 274.830185 -126.792299 
L 277.419689 -129.1897 
L 279.588089 -131.587101 
L 281.394679 -133.984503 
L 282.904607 -136.381904 
L 284.178231 -138.779306 
L 285.265165 -141.176707 
L 286.202355 -143.574108 
L 287.014974 -145.97151 
L 287.718938 -148.368911 
L 288.324075 -150.766312 
L 288.837315 -153.163714 
L 289.26556 -155.561115 
L 289.617995 -157.958517 
L 289.907666 -160.355918 
L 290.152127 -162.753319 
L 290.373051 -165.150721 
L 290.594775 -167.548122 
L 290.842005 -169.945523 
L 291.137042 -172.342925 
L 291.49703 -174.740326 
L 291.931755 -177.137727 
L 292.442369 -179.535129 
L 293.02126 -181.93253 
L 293.653045 -184.329932 
L 294.316475 -186.727333 
L 294.9869 -189.124734 
L 295.638921 -191.522136 
L 296.248849 -193.919537 
L 296.796711 -196.316938 
L 297.267659 -198.71434 
L 297.65272 -201.111741 
L 297.94897 -203.509143 
L 298.159217 -205.906544 
L 298.291334 -208.303945 
L 298.357315 -210.701347 
L 298.372145 -213.098748 
L 298.352506 -215.496149 
L 298.315374 -217.893551 
L 298.276581 -220.290952 
L 298.249466 -222.688353 
L 298.243782 -225.085755 
L 298.265005 -227.483156 
L 298.314184 -229.880558 
L 298.388347 -232.277959 
L 298.481379 -234.67536 
L 298.585204 -237.072762 
L 298.691033 -239.470163 
L 298.79046 -241.867564 
L 298.87625 -244.264966 
L 298.942762 -246.662367 
L 298.986046 -249.059769 
L 299.003749 -251.45717 
L 298.994961 -253.854571 
L 298.960138 -256.251973 
L 298.901141 -258.649374 
L 298.821391 -261.046775 
L 298.726004 -263.444177 
L 298.621799 -265.841578 
L 298.517027 -268.238979 
L 298.420761 -270.636381 
L 298.341976 -273.033782 
L 298.288451 -275.431184 
L 298.265697 -277.828585 
L 298.276162 -280.225986 
L 298.318877 -282.623388 
L 298.389658 -285.020789 
L 298.481806 -287.41819 
L 298.58717 -289.815592 
L 298.697333 -292.212993 
L 298.8047 -294.610395 
L 298.903287 -297.007796 
L 298.989134 -299.405197 
L 299.060333 -301.802599 
L 299.116742 -304.2 
L 299.383258 -304.2 
L 299.383258 -304.2 
L 299.439667 -301.802599 
L 299.510866 -299.405197 
L 299.596713 -297.007796 
L 299.6953 -294.610395 
L 299.802667 -292.212993 
L 299.91283 -289.815592 
L 300.018194 -287.41819 
L 300.110342 -285.020789 
L 300.181123 -282.623388 
L 300.223838 -280.225986 
L 300.234303 -277.828585 
L 300.211549 -275.431184 
L 300.158024 -273.033782 
L 300.079239 -270.636381 
L 299.982973 -268.238979 
L 299.878201 -265.841578 
L 299.773996 -263.444177 
L 299.678609 -261.046775 
L 299.598859 -258.649374 
L 299.539862 -256.251973 
L 299.505039 -253.854571 
L 299.496251 -251.45717 
L 299.513954 -249.059769 
L 299.557238 -246.662367 
L 299.62375 -244.264966 
L 299.70954 -241.867564 
L 299.808967 -239.470163 
L 299.914796 -237.072762 
L 300.018621 -234.67536 
L 300.111653 -232.277959 
L 300.185816 -229.880558 
L 300.234995 -227.483156 
L 300.256218 -225.085755 
L 300.250534 -222.688353 
L 300.223419 -220.290952 
L 300.184626 -217.893551 
L 300.147494 -215.496149 
L 300.127855 -213.098748 
L 300.142685 -210.701347 
L 300.208666 -208.303945 
L 300.340783 -205.906544 
L 300.55103 -203.509143 
L 300.84728 -201.111741 
L 301.232341 -198.71434 
L 301.703289 -196.316938 
L 302.251151 -193.919537 
L 302.861079 -191.522136 
L 303.5131 -189.124734 
L 304.183525 -186.727333 
L 304.846955 -184.329932 
L 305.47874 -181.93253 
L 306.057631 -179.535129 
L 306.568245 -177.137727 
L 307.00297 -174.740326 
L 307.362958 -172.342925 
L 307.657995 -169.945523 
L 307.905225 -167.548122 
L 308.126949 -165.150721 
L 308.347873 -162.753319 
L 308.592334 -160.355918 
L 308.882005 -157.958517 
L 309.23444 -155.561115 
L 309.662685 -153.163714 
L 310.175925 -150.766312 
L 310.781062 -148.368911 
L 311.485026 -145.97151 
L 312.297645 -143.574108 
L 313.234835 -141.176707 
L 314.321769 -138.779306 
L 315.595393 -136.381904 
L 317.105321 -133.984503 
L 318.911911 -131.587101 
L 321.080311 -129.1897 
L 323.669815 -126.792299 
L 326.718787 -124.394897 
L 330.226849 -121.997496 
L 334.137412 -119.600095 
L 338.324694 -117.202693 
L 342.589566 -114.805292 
L 346.667637 -112.407891 
L 350.250923 -110.010489 
L 353.021503 -107.613088 
L 354.692589 -105.215686 
L 355.05 -102.818285 
L 353.986144 -100.420884 
L 351.519524 -98.023482 
L 347.795453 -95.626081 
L 343.067556 -93.22868 
L 337.663591 -90.831278 
L 331.942304 -88.433877 
L 326.249436 -86.036475 
L 320.880505 -83.639074 
L 316.055791 -81.241673 
L 311.909821 -78.844271 
L 308.4945 -76.44687 
L 305.792585 -74.049469 
L 303.737025 -71.652067 
L 302.231617 -69.254666 
L 301.169455 -66.857265 
z
" style="stroke: #3d3d3d; stroke-width: 1.25"/>
    </defs>
    <g clip-path="url(#p424a702b1d)">
     <use xlink:href="#m2dfcfa887a" x="0" y="360" style="fill: #e1812c; stroke: #3d3d3d; stroke-width: 1.25"/>
    </g>
   </g>
   <g id="FillBetweenPolyCollection_3">
    <defs>
     <path id="m1cce01ea81" d="M 442.224016 -52.2 
L 435.275984 -52.2 
L 434.272014 -54.51073 
L 433.051934 -56.82146 
L 431.591918 -59.13219 
L 429.871833 -61.442919 
L 427.877158 -63.753649 
L 425.600943 -66.064379 
L 423.045657 -68.375109 
L 420.224753 -70.685839 
L 417.163775 -72.996569 
L 413.900839 -75.307299 
L 410.486371 -77.618028 
L 406.982017 -79.928758 
L 403.458713 -82.239488 
L 399.99399 -84.550218 
L 396.668641 -86.860948 
L 393.562972 -89.171678 
L 390.752877 -91.482407 
L 388.306048 -93.793137 
L 386.278573 -96.103867 
L 384.712208 -98.414597 
L 383.632504 -100.725327 
L 383.047927 -103.036057 
L 382.95 -105.346787 
L 383.314433 -107.657516 
L 384.10311 -109.968246 
L 385.266735 -112.278976 
L 386.747922 -114.589706 
L 388.48447 -116.900436 
L 390.412588 -119.211166 
L 392.469864 -121.521896 
L 394.597806 -123.832625 
L 396.743851 -126.143355 
L 398.862776 -128.454085 
L 400.917526 -130.764815 
L 402.879468 -133.075545 
L 404.728173 -135.386275 
L 406.450796 -137.697004 
L 408.041171 -140.007734 
L 409.498714 -142.318464 
L 410.827237 -144.629194 
L 412.033758 -146.939924 
L 413.12738 -149.250654 
L 414.118298 -151.561384 
L 415.016982 -153.872113 
L 415.833553 -156.182843 
L 416.577371 -158.493573 
L 417.256825 -160.804303 
L 417.879303 -163.115033 
L 418.451314 -165.425763 
L 418.978698 -167.736493 
L 419.466903 -170.047222 
L 419.92124 -172.357952 
L 420.347108 -174.668682 
L 420.750121 -176.979412 
L 421.136135 -179.290142 
L 421.511168 -181.600872 
L 421.881217 -183.911602 
L 422.252008 -186.222331 
L 422.62871 -188.533061 
L 423.015655 -190.843791 
L 423.416102 -193.154521 
L 423.832077 -195.465251 
L 424.264312 -197.775981 
L 424.712291 -200.08671 
L 425.174394 -202.39744 
L 425.648126 -204.70817 
L 426.130413 -207.0189 
L 426.617914 -209.32963 
L 427.107345 -211.64036 
L 427.595757 -213.95109 
L 428.08077 -216.261819 
L 428.560722 -218.572549 
L 429.034737 -220.883279 
L 429.502707 -223.194009 
L 429.965193 -225.504739 
L 430.423254 -227.815469 
L 430.878231 -230.126199 
L 431.331504 -232.436928 
L 431.784241 -234.747658 
L 432.237174 -237.058388 
L 432.690416 -239.369118 
L 433.143341 -241.679848 
L 433.594531 -243.990578 
L 434.041803 -246.301307 
L 434.482309 -248.612037 
L 434.912698 -250.922767 
L 435.329317 -253.233497 
L 435.728449 -255.544227 
L 436.106546 -257.854957 
L 436.460443 -260.165687 
L 436.787548 -262.476416 
L 437.085967 -264.787146 
L 437.354587 -267.097876 
L 437.593093 -269.408606 
L 437.801932 -271.719336 
L 437.982235 -274.030066 
L 438.135705 -276.340796 
L 438.264479 -278.651525 
L 438.370989 -280.962255 
L 439.129011 -280.962255 
L 439.129011 -280.962255 
L 439.235521 -278.651525 
L 439.364295 -276.340796 
L 439.517765 -274.030066 
L 439.698068 -271.719336 
L 439.906907 -269.408606 
L 440.145413 -267.097876 
L 440.414033 -264.787146 
L 440.712452 -262.476416 
L 441.039557 -260.165687 
L 441.393454 -257.854957 
L 441.771551 -255.544227 
L 442.170683 -253.233497 
L 442.587302 -250.922767 
L 443.017691 -248.612037 
L 443.458197 -246.301307 
L 443.905469 -243.990578 
L 444.356659 -241.679848 
L 444.809584 -239.369118 
L 445.262826 -237.058388 
L 445.715759 -234.747658 
L 446.168496 -232.436928 
L 446.621769 -230.126199 
L 447.076746 -227.815469 
L 447.534807 -225.504739 
L 447.997293 -223.194009 
L 448.465263 -220.883279 
L 448.939278 -218.572549 
L 449.41923 -216.261819 
L 449.904243 -213.95109 
L 450.392655 -211.64036 
L 450.882086 -209.32963 
L 451.369587 -207.0189 
L 451.851874 -204.70817 
L 452.325606 -202.39744 
L 452.787709 -200.08671 
L 453.235688 -197.775981 
L 453.667923 -195.465251 
L 454.083898 -193.154521 
L 454.484345 -190.843791 
L 454.87129 -188.533061 
L 455.247992 -186.222331 
L 455.618783 -183.911602 
L 455.988832 -181.600872 
L 456.363865 -179.290142 
L 456.749879 -176.979412 
L 457.152892 -174.668682 
L 457.57876 -172.357952 
L 458.033097 -170.047222 
L 458.521302 -167.736493 
L 459.048686 -165.425763 
L 459.620697 -163.115033 
L 460.243175 -160.804303 
L 460.922629 -158.493573 
L 461.666447 -156.182843 
L 462.483018 -153.872113 
L 463.381702 -151.561384 
L 464.37262 -149.250654 
L 465.466242 -146.939924 
L 466.672763 -144.629194 
L 468.001286 -142.318464 
L 469.458829 -140.007734 
L 471.049204 -137.697004 
L 472.771827 -135.386275 
L 474.620532 -133.075545 
L 476.582474 -130.764815 
L 478.637224 -128.454085 
L 480.756149 -126.143355 
L 482.902194 -123.832625 
L 485.030136 -121.521896 
L 487.087412 -119.211166 
L 489.01553 -116.900436 
L 490.752078 -114.589706 
L 492.233265 -112.278976 
L 493.39689 -109.968246 
L 494.185567 -107.657516 
L 494.55 -105.346787 
L 494.452073 -103.036057 
L 493.867496 -100.725327 
L 492.787792 -98.414597 
L 491.221427 -96.103867 
L 489.193952 -93.793137 
L 486.747123 -91.482407 
L 483.937028 -89.171678 
L 480.831359 -86.860948 
L 477.50601 -84.550218 
L 474.041287 -82.239488 
L 470.517983 -79.928758 
L 467.013629 -77.618028 
L 463.599161 -75.307299 
L 460.336225 -72.996569 
L 457.275247 -70.685839 
L 454.454343 -68.375109 
L 451.899057 -66.064379 
L 449.622842 -63.753649 
L 447.628167 -61.442919 
L 445.908082 -59.13219 
L 444.448066 -56.82146 
L 443.227986 -54.51073 
L 442.224016 -52.2 
z
" style="stroke: #3d3d3d; stroke-width: 1.25"/>
    </defs>
    <g clip-path="url(#p424a702b1d)">
     <use xlink:href="#m1cce01ea81" x="0" y="360" style="fill: #3a923a; stroke: #3d3d3d; stroke-width: 1.25"/>
    </g>
   </g>
   <g id="FillBetweenPolyCollection_4">
    <defs>
     <path id="mc243d630dc" d="M 579.285402 -65.012435 
L 577.214598 -65.012435 
L 576.759831 -66.914921 
L 576.142857 -68.817408 
L 575.32266 -70.719894 
L 574.25457 -72.622381 
L 572.892539 -74.524867 
L 571.192404 -76.427354 
L 569.116049 -78.32984 
L 566.636262 -80.232326 
L 563.741895 -82.134813 
L 560.442778 -84.037299 
L 556.77373 -85.939786 
L 552.796977 -87.842272 
L 548.602354 -89.744759 
L 544.304871 -91.647245 
L 540.039488 -93.549732 
L 535.953344 -95.452218 
L 532.196032 -97.354705 
L 528.908856 -99.257191 
L 526.214231 -101.159678 
L 524.206433 -103.062164 
L 522.944774 -104.964651 
L 522.45 -106.867137 
L 522.704272 -108.769624 
L 523.6546 -110.67211 
L 525.219174 -112.574597 
L 527.295664 -114.477083 
L 529.770382 -116.37957 
L 532.527181 -118.282056 
L 535.455136 -120.184543 
L 538.454343 -122.087029 
L 541.43953 -123.989516 
L 544.341529 -125.892002 
L 547.106968 -127.794489 
L 549.696695 -129.696975 
L 552.08357 -131.599462 
L 554.250144 -133.501948 
L 556.186669 -135.404435 
L 557.889654 -137.306921 
L 559.361029 -139.209407 
L 560.607811 -141.111894 
L 561.642058 -143.01438 
L 562.480882 -144.916867 
L 563.146292 -146.819353 
L 563.664717 -148.72184 
L 564.066126 -150.624326 
L 564.382761 -152.526813 
L 564.647581 -154.429299 
L 564.892522 -156.331786 
L 565.146774 -158.234272 
L 565.435196 -160.136759 
L 565.777044 -162.039245 
L 566.185106 -163.941732 
L 566.665314 -165.844218 
L 567.216873 -167.746705 
L 567.832857 -169.649191 
L 568.50124 -171.551678 
L 569.206219 -173.454164 
L 569.929732 -175.356651 
L 570.652992 -177.259137 
L 571.357908 -179.161624 
L 572.028265 -181.06411 
L 572.650566 -182.966597 
L 573.214499 -184.869083 
L 573.713038 -186.77157 
L 574.142222 -188.674056 
L 574.500728 -190.576543 
L 574.789319 -192.479029 
L 575.01031 -194.381516 
L 575.167124 -196.284002 
L 575.264001 -198.186489 
L 575.305895 -200.088975 
L 575.298513 -201.991461 
L 575.248463 -203.893948 
L 575.163419 -205.796434 
L 575.052229 -207.698921 
L 574.9249 -209.601407 
L 574.792395 -211.503894 
L 574.666247 -213.40638 
L 574.557999 -215.308867 
L 574.478513 -217.211353 
L 574.43724 -219.11384 
L 574.441521 -221.016326 
L 574.496021 -222.918813 
L 574.602358 -224.821299 
L 574.758989 -226.723786 
L 574.961366 -228.626272 
L 575.202351 -230.528759 
L 575.472842 -232.431245 
L 575.762539 -234.333732 
L 576.060776 -236.236218 
L 576.357301 -238.138705 
L 576.642968 -240.041191 
L 576.910239 -241.943678 
L 577.153502 -243.846164 
L 577.369166 -245.748651 
L 577.555582 -247.651137 
L 577.712807 -249.553624 
L 577.842273 -251.45611 
L 577.946406 -253.358597 
L 578.553594 -253.358597 
L 578.553594 -253.358597 
L 578.657727 -251.45611 
L 578.787193 -249.553624 
L 578.944418 -247.651137 
L 579.130834 -245.748651 
L 579.346498 -243.846164 
L 579.589761 -241.943678 
L 579.857032 -240.041191 
L 580.142699 -238.138705 
L 580.439224 -236.236218 
L 580.737461 -234.333732 
L 581.027158 -232.431245 
L 581.297649 -230.528759 
L 581.538634 -228.626272 
L 581.741011 -226.723786 
L 581.897642 -224.821299 
L 582.003979 -222.918813 
L 582.058479 -221.016326 
L 582.06276 -219.11384 
L 582.021487 -217.211353 
L 581.942001 -215.308867 
L 581.833753 -213.40638 
L 581.707605 -211.503894 
L 581.5751 -209.601407 
L 581.447771 -207.698921 
L 581.336581 -205.796434 
L 581.251537 -203.893948 
L 581.201487 -201.991461 
L 581.194105 -200.088975 
L 581.235999 -198.186489 
L 581.332876 -196.284002 
L 581.48969 -194.381516 
L 581.710681 -192.479029 
L 581.999272 -190.576543 
L 582.357778 -188.674056 
L 582.786962 -186.77157 
L 583.285501 -184.869083 
L 583.849434 -182.966597 
L 584.471735 -181.06411 
L 585.142092 -179.161624 
L 585.847008 -177.259137 
L 586.570268 -175.356651 
L 587.293781 -173.454164 
L 587.99876 -171.551678 
L 588.667143 -169.649191 
L 589.283127 -167.746705 
L 589.834686 -165.844218 
L 590.314894 -163.941732 
L 590.722956 -162.039245 
L 591.064804 -160.136759 
L 591.353226 -158.234272 
L 591.607478 -156.331786 
L 591.852419 -154.429299 
L 592.117239 -152.526813 
L 592.433874 -150.624326 
L 592.835283 -148.72184 
L 593.353708 -146.819353 
L 594.019118 -144.916867 
L 594.857942 -143.01438 
L 595.892189 -141.111894 
L 597.138971 -139.209407 
L 598.610346 -137.306921 
L 600.313331 -135.404435 
L 602.249856 -133.501948 
L 604.41643 -131.599462 
L 606.803305 -129.696975 
L 609.393032 -127.794489 
L 612.158471 -125.892002 
L 615.06047 -123.989516 
L 618.045657 -122.087029 
L 621.044864 -120.184543 
L 623.972819 -118.282056 
L 626.729618 -116.37957 
L 629.204336 -114.477083 
L 631.280826 -112.574597 
L 632.8454 -110.67211 
L 633.795728 -108.769624 
L 634.05 -106.867137 
L 633.555226 -104.964651 
L 632.293567 -103.062164 
L 630.285769 -101.159678 
L 627.591144 -99.257191 
L 624.303968 -97.354705 
L 620.546656 -95.452218 
L 616.460512 -93.549732 
L 612.195129 -91.647245 
L 607.897646 -89.744759 
L 603.703023 -87.842272 
L 599.72627 -85.939786 
L 596.057222 -84.037299 
L 592.758105 -82.134813 
L 589.863738 -80.232326 
L 587.383951 -78.32984 
L 585.307596 -76.427354 
L 583.607461 -74.524867 
L 582.24543 -72.622381 
L 581.17734 -70.719894 
L 580.357143 -68.817408 
L 579.740169 -66.914921 
L 579.285402 -65.012435 
z
" style="stroke: #3d3d3d; stroke-width: 1.25"/>
    </defs>
    <g clip-path="url(#p424a702b1d)">
     <use xlink:href="#mc243d630dc" x="0" y="360" style="fill: #c03d3e; stroke: #3d3d3d; stroke-width: 1.25"/>
    </g>
   </g>
   <g id="matplotlib.axis_1">
    <g id="xtick_1">
     <g id="line2d_1">
      <defs>
       <path id="mb3b4499cd5" d="M 0 0 
L 0 3.5 
" style="stroke: #000000; stroke-width: 0.8"/>
      </defs>
      <g>
       <use xlink:href="#mb3b4499cd5" x="159.75" y="320.4" style="stroke: #000000; stroke-width: 0.8"/>
      </g>
     </g>
     <g id="text_1">
      <!-- No -->
      <g transform="translate(152.95 334.998438) scale(0.1 -0.1)">
       <defs>
        <path id="DejaVuSans-4e" d="M 628 4666 
L 1478 4666 
L 3547 763 
L 3547 4666 
L 4159 4666 
L 4159 0 
L 3309 0 
L 1241 3903 
L 1241 0 
L 628 0 
L 628 4666 
z
" transform="scale(0.015625)"/>
        <path id="DejaVuSans-6f" d="M 1959 3097 
Q 1497 3097 1228 2736 
Q 959 2375 959 1747 
Q 959 1119 1226 758 
Q 1494 397 1959 397 
Q 2419 397 2687 759 
Q 2956 1122 2956 1747 
Q 2956 2369 2687 2733 
Q 2419 3097 1959 3097 
z
M 1959 3584 
Q 2709 3584 3137 3096 
Q 3566 2609 3566 1747 
Q 3566 888 3137 398 
Q 2709 -91 1959 -91 
Q 1206 -91 779 398 
Q 353 888 353 1747 
Q 353 2609 779 3096 
Q 1206 3584 1959 3584 
z
" transform="scale(0.015625)"/>
       </defs>
       <use xlink:href="#DejaVuSans-4e"/>
       <use xlink:href="#DejaVuSans-6f" transform="translate(74.804688 0)"/>
      </g>
     </g>
    </g>
    <g id="xtick_2">
     <g id="line2d_2">
      <g>
       <use xlink:href="#mb3b4499cd5" x="299.25" y="320.4" style="stroke: #000000; stroke-width: 0.8"/>
      </g>
     </g>
     <g id="text_2">
      <!-- Specific -->
      <g transform="translate(279.788281 334.998438) scale(0.1 -0.1)">
       <defs>
        <path id="DejaVuSans-53" d="M 3425 4513 
L 3425 3897 
Q 3066 4069 2747 4153 
Q 2428 4238 2131 4238 
Q 1616 4238 1336 4038 
Q 1056 3838 1056 3469 
Q 1056 3159 1242 3001 
Q 1428 2844 1947 2747 
L 2328 2669 
Q 3034 2534 3370 2195 
Q 3706 1856 3706 1288 
Q 3706 609 3251 259 
Q 2797 -91 1919 -91 
Q 1588 -91 1214 -16 
Q 841 59 441 206 
L 441 856 
Q 825 641 1194 531 
Q 1563 422 1919 422 
Q 2459 422 2753 634 
Q 3047 847 3047 1241 
Q 3047 1584 2836 1778 
Q 2625 1972 2144 2069 
L 1759 2144 
Q 1053 2284 737 2584 
Q 422 2884 422 3419 
Q 422 4038 858 4394 
Q 1294 4750 2059 4750 
Q 2388 4750 2728 4690 
Q 3069 4631 3425 4513 
z
" transform="scale(0.015625)"/>
        <path id="DejaVuSans-70" d="M 1159 525 
L 1159 -1331 
L 581 -1331 
L 581 3500 
L 1159 3500 
L 1159 2969 
Q 1341 3281 1617 3432 
Q 1894 3584 2278 3584 
Q 2916 3584 3314 3078 
Q 3713 2572 3713 1747 
Q 3713 922 3314 415 
Q 2916 -91 2278 -91 
Q 1894 -91 1617 61 
Q 1341 213 1159 525 
z
M 3116 1747 
Q 3116 2381 2855 2742 
Q 2594 3103 2138 3103 
Q 1681 3103 1420 2742 
Q 1159 2381 1159 1747 
Q 1159 1113 1420 752 
Q 1681 391 2138 391 
Q 2594 391 2855 752 
Q 3116 1113 3116 1747 
z
" transform="scale(0.015625)"/>
        <path id="DejaVuSans-65" d="M 3597 1894 
L 3597 1613 
L 953 1613 
Q 991 1019 1311 708 
Q 1631 397 2203 397 
Q 2534 397 2845 478 
Q 3156 559 3463 722 
L 3463 178 
Q 3153 47 2828 -22 
Q 2503 -91 2169 -91 
Q 1331 -91 842 396 
Q 353 884 353 1716 
Q 353 2575 817 3079 
Q 1281 3584 2069 3584 
Q 2775 3584 3186 3129 
Q 3597 2675 3597 1894 
z
M 3022 2063 
Q 3016 2534 2758 2815 
Q 2500 3097 2075 3097 
Q 1594 3097 1305 2825 
Q 1016 2553 972 2059 
L 3022 2063 
z
" transform="scale(0.015625)"/>
        <path id="DejaVuSans-63" d="M 3122 3366 
L 3122 2828 
Q 2878 2963 2633 3030 
Q 2388 3097 2138 3097 
Q 1578 3097 1268 2742 
Q 959 2388 959 1747 
Q 959 1106 1268 751 
Q 1578 397 2138 397 
Q 2388 397 2633 464 
Q 2878 531 3122 666 
L 3122 134 
Q 2881 22 2623 -34 
Q 2366 -91 2075 -91 
Q 1284 -91 818 406 
Q 353 903 353 1747 
Q 353 2603 823 3093 
Q 1294 3584 2113 3584 
Q 2378 3584 2631 3529 
Q 2884 3475 3122 3366 
z
" transform="scale(0.015625)"/>
        <path id="DejaVuSans-69" d="M 603 3500 
L 1178 3500 
L 1178 0 
L 603 0 
L 603 3500 
z
M 603 4863 
L 1178 4863 
L 1178 4134 
L 603 4134 
L 603 4863 
z
" transform="scale(0.015625)"/>
        <path id="DejaVuSans-66" d="M 2375 4863 
L 2375 4384 
L 1825 4384 
Q 1516 4384 1395 4259 
Q 1275 4134 1275 3809 
L 1275 3500 
L 2222 3500 
L 2222 3053 
L 1275 3053 
L 1275 0 
L 697 0 
L 697 3053 
L 147 3053 
L 147 3500 
L 697 3500 
L 697 3744 
Q 697 4328 969 4595 
Q 1241 4863 1831 4863 
L 2375 4863 
z
" transform="scale(0.015625)"/>
       </defs>
       <use xlink:href="#DejaVuSans-53"/>
       <use xlink:href="#DejaVuSans-70" transform="translate(63.476562 0)"/>
       <use xlink:href="#DejaVuSans-65" transform="translate(126.953125 0)"/>
       <use xlink:href="#DejaVuSans-63" transform="translate(188.476562 0)"/>
       <use xlink:href="#DejaVuSans-69" transform="translate(243.457031 0)"/>
       <use xlink:href="#DejaVuSans-66" transform="translate(271.240234 0)"/>
       <use xlink:href="#DejaVuSans-69" transform="translate(306.445312 0)"/>
       <use xlink:href="#DejaVuSans-63" transform="translate(334.228516 0)"/>
      </g>
     </g>
    </g>
    <g id="xtick_3">
     <g id="line2d_3">
      <g>
       <use xlink:href="#mb3b4499cd5" x="438.75" y="320.4" style="stroke: #000000; stroke-width: 0.8"/>
      </g>
     </g>
     <g id="text_3">
      <!-- Spurious -->
      <g transform="translate(416.955469 334.998438) scale(0.1 -0.1)">
       <defs>
        <path id="DejaVuSans-75" d="M 544 1381 
L 544 3500 
L 1119 3500 
L 1119 1403 
Q 1119 906 1312 657 
Q 1506 409 1894 409 
Q 2359 409 2629 706 
Q 2900 1003 2900 1516 
L 2900 3500 
L 3475 3500 
L 3475 0 
L 2900 0 
L 2900 538 
Q 2691 219 2414 64 
Q 2138 -91 1772 -91 
Q 1169 -91 856 284 
Q 544 659 544 1381 
z
M 1991 3584 
L 1991 3584 
z
" transform="scale(0.015625)"/>
        <path id="DejaVuSans-72" d="M 2631 2963 
Q 2534 3019 2420 3045 
Q 2306 3072 2169 3072 
Q 1681 3072 1420 2755 
Q 1159 2438 1159 1844 
L 1159 0 
L 581 0 
L 581 3500 
L 1159 3500 
L 1159 2956 
Q 1341 3275 1631 3429 
Q 1922 3584 2338 3584 
Q 2397 3584 2469 3576 
Q 2541 3569 2628 3553 
L 2631 2963 
z
" transform="scale(0.015625)"/>
        <path id="DejaVuSans-73" d="M 2834 3397 
L 2834 2853 
Q 2591 2978 2328 3040 
Q 2066 3103 1784 3103 
Q 1356 3103 1142 2972 
Q 928 2841 928 2578 
Q 928 2378 1081 2264 
Q 1234 2150 1697 2047 
L 1894 2003 
Q 2506 1872 2764 1633 
Q 3022 1394 3022 966 
Q 3022 478 2636 193 
Q 2250 -91 1575 -91 
Q 1294 -91 989 -36 
Q 684 19 347 128 
L 347 722 
Q 666 556 975 473 
Q 1284 391 1588 391 
Q 1994 391 2212 530 
Q 2431 669 2431 922 
Q 2431 1156 2273 1281 
Q 2116 1406 1581 1522 
L 1381 1569 
Q 847 1681 609 1914 
Q 372 2147 372 2553 
Q 372 3047 722 3315 
Q 1072 3584 1716 3584 
Q 2034 3584 2315 3537 
Q 2597 3491 2834 3397 
z
" transform="scale(0.015625)"/>
       </defs>
       <use xlink:href="#DejaVuSans-53"/>
       <use xlink:href="#DejaVuSans-70" transform="translate(63.476562 0)"/>
       <use xlink:href="#DejaVuSans-75" transform="translate(126.953125 0)"/>
       <use xlink:href="#DejaVuSans-72" transform="translate(190.332031 0)"/>
       <use xlink:href="#DejaVuSans-69" transform="translate(231.445312 0)"/>
       <use xlink:href="#DejaVuSans-6f" transform="translate(259.228516 0)"/>
       <use xlink:href="#DejaVuSans-75" transform="translate(320.410156 0)"/>
       <use xlink:href="#DejaVuSans-73" transform="translate(383.789062 0)"/>
      </g>
     </g>
    </g>
    <g id="xtick_4">
     <g id="line2d_4">
      <g>
       <use xlink:href="#mb3b4499cd5" x="578.25" y="320.4" style="stroke: #000000; stroke-width: 0.8"/>
      </g>
     </g>
     <g id="text_4">
      <!-- Non-specific -->
      <g transform="translate(547.585156 334.998438) scale(0.1 -0.1)">
       <defs>
        <path id="DejaVuSans-6e" d="M 3513 2113 
L 3513 0 
L 2938 0 
L 2938 2094 
Q 2938 2591 2744 2837 
Q 2550 3084 2163 3084 
Q 1697 3084 1428 2787 
Q 1159 2491 1159 1978 
L 1159 0 
L 581 0 
L 581 3500 
L 1159 3500 
L 1159 2956 
Q 1366 3272 1645 3428 
Q 1925 3584 2291 3584 
Q 2894 3584 3203 3211 
Q 3513 2838 3513 2113 
z
" transform="scale(0.015625)"/>
        <path id="DejaVuSans-2d" d="M 313 2009 
L 1997 2009 
L 1997 1497 
L 313 1497 
L 313 2009 
z
" transform="scale(0.015625)"/>
       </defs>
       <use xlink:href="#DejaVuSans-4e"/>
       <use xlink:href="#DejaVuSans-6f" transform="translate(74.804688 0)"/>
       <use xlink:href="#DejaVuSans-6e" transform="translate(135.986328 0)"/>
       <use xlink:href="#DejaVuSans-2d" transform="translate(199.365234 0)"/>
       <use xlink:href="#DejaVuSans-73" transform="translate(235.449219 0)"/>
       <use xlink:href="#DejaVuSans-70" transform="translate(287.548828 0)"/>
       <use xlink:href="#DejaVuSans-65" transform="translate(351.025391 0)"/>
       <use xlink:href="#DejaVuSans-63" transform="translate(412.548828 0)"/>
       <use xlink:href="#DejaVuSans-69" transform="translate(467.529297 0)"/>
       <use xlink:href="#DejaVuSans-66" transform="translate(495.3125 0)"/>
       <use xlink:href="#DejaVuSans-69" transform="translate(530.517578 0)"/>
       <use xlink:href="#DejaVuSans-63" transform="translate(558.300781 0)"/>
      </g>
     </g>
    </g>
    <g id="text_5">
     <!-- Connectivity category -->
     <g transform="translate(313.98125 348.676562) scale(0.1 -0.1)">
      <defs>
       <path id="DejaVuSans-43" d="M 4122 4306 
L 4122 3641 
Q 3803 3938 3442 4084 
Q 3081 4231 2675 4231 
Q 1875 4231 1450 3742 
Q 1025 3253 1025 2328 
Q 1025 1406 1450 917 
Q 1875 428 2675 428 
Q 3081 428 3442 575 
Q 3803 722 4122 1019 
L 4122 359 
Q 3791 134 3420 21 
Q 3050 -91 2638 -91 
Q 1578 -91 968 557 
Q 359 1206 359 2328 
Q 359 3453 968 4101 
Q 1578 4750 2638 4750 
Q 3056 4750 3426 4639 
Q 3797 4528 4122 4306 
z
" transform="scale(0.015625)"/>
       <path id="DejaVuSans-74" d="M 1172 4494 
L 1172 3500 
L 2356 3500 
L 2356 3053 
L 1172 3053 
L 1172 1153 
Q 1172 725 1289 603 
Q 1406 481 1766 481 
L 2356 481 
L 2356 0 
L 1766 0 
Q 1100 0 847 248 
Q 594 497 594 1153 
L 594 3053 
L 172 3053 
L 172 3500 
L 594 3500 
L 594 4494 
L 1172 4494 
z
" transform="scale(0.015625)"/>
       <path id="DejaVuSans-76" d="M 191 3500 
L 800 3500 
L 1894 563 
L 2988 3500 
L 3597 3500 
L 2284 0 
L 1503 0 
L 191 3500 
z
" transform="scale(0.015625)"/>
       <path id="DejaVuSans-79" d="M 2059 -325 
Q 1816 -950 1584 -1140 
Q 1353 -1331 966 -1331 
L 506 -1331 
L 506 -850 
L 844 -850 
Q 1081 -850 1212 -737 
Q 1344 -625 1503 -206 
L 1606 56 
L 191 3500 
L 800 3500 
L 1894 763 
L 2988 3500 
L 3597 3500 
L 2059 -325 
z
" transform="scale(0.015625)"/>
       <path id="DejaVuSans-20" transform="scale(0.015625)"/>
       <path id="DejaVuSans-61" d="M 2194 1759 
Q 1497 1759 1228 1600 
Q 959 1441 959 1056 
Q 959 750 1161 570 
Q 1363 391 1709 391 
Q 2188 391 2477 730 
Q 2766 1069 2766 1631 
L 2766 1759 
L 2194 1759 
z
M 3341 1997 
L 3341 0 
L 2766 0 
L 2766 531 
Q 2569 213 2275 61 
Q 1981 -91 1556 -91 
Q 1019 -91 701 211 
Q 384 513 384 1019 
Q 384 1609 779 1909 
Q 1175 2209 1959 2209 
L 2766 2209 
L 2766 2266 
Q 2766 2663 2505 2880 
Q 2244 3097 1772 3097 
Q 1472 3097 1187 3025 
Q 903 2953 641 2809 
L 641 3341 
Q 956 3463 1253 3523 
Q 1550 3584 1831 3584 
Q 2591 3584 2966 3190 
Q 3341 2797 3341 1997 
z
" transform="scale(0.015625)"/>
       <path id="DejaVuSans-67" d="M 2906 1791 
Q 2906 2416 2648 2759 
Q 2391 3103 1925 3103 
Q 1463 3103 1205 2759 
Q 947 2416 947 1791 
Q 947 1169 1205 825 
Q 1463 481 1925 481 
Q 2391 481 2648 825 
Q 2906 1169 2906 1791 
z
M 3481 434 
Q 3481 -459 3084 -895 
Q 2688 -1331 1869 -1331 
Q 1566 -1331 1297 -1286 
Q 1028 -1241 775 -1147 
L 775 -588 
Q 1028 -725 1275 -790 
Q 1522 -856 1778 -856 
Q 2344 -856 2625 -561 
Q 2906 -266 2906 331 
L 2906 616 
Q 2728 306 2450 153 
Q 2172 0 1784 0 
Q 1141 0 747 490 
Q 353 981 353 1791 
Q 353 2603 747 3093 
Q 1141 3584 1784 3584 
Q 2172 3584 2450 3431 
Q 2728 3278 2906 2969 
L 2906 3500 
L 3481 3500 
L 3481 434 
z
" transform="scale(0.015625)"/>
      </defs>
      <use xlink:href="#DejaVuSans-43"/>
      <use xlink:href="#DejaVuSans-6f" transform="translate(69.824219 0)"/>
      <use xlink:href="#DejaVuSans-6e" transform="translate(131.005859 0)"/>
      <use xlink:href="#DejaVuSans-6e" transform="translate(194.384766 0)"/>
      <use xlink:href="#DejaVuSans-65" transform="translate(257.763672 0)"/>
      <use xlink:href="#DejaVuSans-63" transform="translate(319.287109 0)"/>
      <use xlink:href="#DejaVuSans-74" transform="translate(374.267578 0)"/>
      <use xlink:href="#DejaVuSans-69" transform="translate(413.476562 0)"/>
      <use xlink:href="#DejaVuSans-76" transform="translate(441.259766 0)"/>
      <use xlink:href="#DejaVuSans-69" transform="translate(500.439453 0)"/>
      <use xlink:href="#DejaVuSans-74" transform="translate(528.222656 0)"/>
      <use xlink:href="#DejaVuSans-79" transform="translate(567.431641 0)"/>
      <use xlink:href="#DejaVuSans-20" transform="translate(626.611328 0)"/>
      <use xlink:href="#DejaVuSans-63" transform="translate(658.398438 0)"/>
      <use xlink:href="#DejaVuSans-61" transform="translate(713.378906 0)"/>
      <use xlink:href="#DejaVuSans-74" transform="translate(774.658203 0)"/>
      <use xlink:href="#DejaVuSans-65" transform="translate(813.867188 0)"/>
      <use xlink:href="#DejaVuSans-67" transform="translate(875.390625 0)"/>
      <use xlink:href="#DejaVuSans-6f" transform="translate(938.867188 0)"/>
      <use xlink:href="#DejaVuSans-72" transform="translate(1000.048828 0)"/>
      <use xlink:href="#DejaVuSans-79" transform="translate(1041.162109 0)"/>
     </g>
    </g>
   </g>
   <g id="matplotlib.axis_2">
    <g id="ytick_1">
     <g id="line2d_5">
      <defs>
       <path id="m06c1559231" d="M 0 0 
L -3.5 0 
" style="stroke: #000000; stroke-width: 0.8"/>
      </defs>
      <g>
       <use xlink:href="#m06c1559231" x="90" y="312.613586" style="stroke: #000000; stroke-width: 0.8"/>
      </g>
     </g>
     <g id="text_6">
      <!-- −0.5 -->
      <g transform="translate(58.717187 316.412805) scale(0.1 -0.1)">
       <defs>
        <path id="DejaVuSans-2212" d="M 678 2272 
L 4684 2272 
L 4684 1741 
L 678 1741 
L 678 2272 
z
" transform="scale(0.015625)"/>
        <path id="DejaVuSans-30" d="M 2034 4250 
Q 1547 4250 1301 3770 
Q 1056 3291 1056 2328 
Q 1056 1369 1301 889 
Q 1547 409 2034 409 
Q 2525 409 2770 889 
Q 3016 1369 3016 2328 
Q 3016 3291 2770 3770 
Q 2525 4250 2034 4250 
z
M 2034 4750 
Q 2819 4750 3233 4129 
Q 3647 3509 3647 2328 
Q 3647 1150 3233 529 
Q 2819 -91 2034 -91 
Q 1250 -91 836 529 
Q 422 1150 422 2328 
Q 422 3509 836 4129 
Q 1250 4750 2034 4750 
z
" transform="scale(0.015625)"/>
        <path id="DejaVuSans-2e" d="M 684 794 
L 1344 794 
L 1344 0 
L 684 0 
L 684 794 
z
" transform="scale(0.015625)"/>
        <path id="DejaVuSans-35" d="M 691 4666 
L 3169 4666 
L 3169 4134 
L 1269 4134 
L 1269 2991 
Q 1406 3038 1543 3061 
Q 1681 3084 1819 3084 
Q 2600 3084 3056 2656 
Q 3513 2228 3513 1497 
Q 3513 744 3044 326 
Q 2575 -91 1722 -91 
Q 1428 -91 1123 -41 
Q 819 9 494 109 
L 494 744 
Q 775 591 1075 516 
Q 1375 441 1709 441 
Q 2250 441 2565 725 
Q 2881 1009 2881 1497 
Q 2881 1984 2565 2268 
Q 2250 2553 1709 2553 
Q 1456 2553 1204 2497 
Q 953 2441 691 2322 
L 691 4666 
z
" transform="scale(0.015625)"/>
       </defs>
       <use xlink:href="#DejaVuSans-2212"/>
       <use xlink:href="#DejaVuSans-30" transform="translate(83.789062 0)"/>
       <use xlink:href="#DejaVuSans-2e" transform="translate(147.412109 0)"/>
       <use xlink:href="#DejaVuSans-35" transform="translate(179.199219 0)"/>
      </g>
     </g>
    </g>
    <g id="ytick_2">
     <g id="line2d_6">
      <g>
       <use xlink:href="#m06c1559231" x="90" y="269.964953" style="stroke: #000000; stroke-width: 0.8"/>
      </g>
     </g>
     <g id="text_7">
      <!-- 0.0 -->
      <g transform="translate(67.096875 273.764172) scale(0.1 -0.1)">
       <use xlink:href="#DejaVuSans-30"/>
       <use xlink:href="#DejaVuSans-2e" transform="translate(63.623047 0)"/>
       <use xlink:href="#DejaVuSans-30" transform="translate(95.410156 0)"/>
      </g>
     </g>
    </g>
    <g id="ytick_3">
     <g id="line2d_7">
      <g>
       <use xlink:href="#m06c1559231" x="90" y="227.31632" style="stroke: #000000; stroke-width: 0.8"/>
      </g>
     </g>
     <g id="text_8">
      <!-- 0.5 -->
      <g transform="translate(67.096875 231.115539) scale(0.1 -0.1)">
       <use xlink:href="#DejaVuSans-30"/>
       <use xlink:href="#DejaVuSans-2e" transform="translate(63.623047 0)"/>
       <use xlink:href="#DejaVuSans-35" transform="translate(95.410156 0)"/>
      </g>
     </g>
    </g>
    <g id="ytick_4">
     <g id="line2d_8">
      <g>
       <use xlink:href="#m06c1559231" x="90" y="184.667687" style="stroke: #000000; stroke-width: 0.8"/>
      </g>
     </g>
     <g id="text_9">
      <!-- 1.0 -->
      <g transform="translate(67.096875 188.466906) scale(0.1 -0.1)">
       <defs>
        <path id="DejaVuSans-31" d="M 794 531 
L 1825 531 
L 1825 4091 
L 703 3866 
L 703 4441 
L 1819 4666 
L 2450 4666 
L 2450 531 
L 3481 531 
L 3481 0 
L 794 0 
L 794 531 
z
" transform="scale(0.015625)"/>
       </defs>
       <use xlink:href="#DejaVuSans-31"/>
       <use xlink:href="#DejaVuSans-2e" transform="translate(63.623047 0)"/>
       <use xlink:href="#DejaVuSans-30" transform="translate(95.410156 0)"/>
      </g>
     </g>
    </g>
    <g id="ytick_5">
     <g id="line2d_9">
      <g>
       <use xlink:href="#m06c1559231" x="90" y="142.019055" style="stroke: #000000; stroke-width: 0.8"/>
      </g>
     </g>
     <g id="text_10">
      <!-- 1.5 -->
      <g transform="translate(67.096875 145.818273) scale(0.1 -0.1)">
       <use xlink:href="#DejaVuSans-31"/>
       <use xlink:href="#DejaVuSans-2e" transform="translate(63.623047 0)"/>
       <use xlink:href="#DejaVuSans-35" transform="translate(95.410156 0)"/>
      </g>
     </g>
    </g>
    <g id="ytick_6">
     <g id="line2d_10">
      <g>
       <use xlink:href="#m06c1559231" x="90" y="99.370422" style="stroke: #000000; stroke-width: 0.8"/>
      </g>
     </g>
     <g id="text_11">
      <!-- 2.0 -->
      <g transform="translate(67.096875 103.16964) scale(0.1 -0.1)">
       <defs>
        <path id="DejaVuSans-32" d="M 1228 531 
L 3431 531 
L 3431 0 
L 469 0 
L 469 531 
Q 828 903 1448 1529 
Q 2069 2156 2228 2338 
Q 2531 2678 2651 2914 
Q 2772 3150 2772 3378 
Q 2772 3750 2511 3984 
Q 2250 4219 1831 4219 
Q 1534 4219 1204 4116 
Q 875 4013 500 3803 
L 500 4441 
Q 881 4594 1212 4672 
Q 1544 4750 1819 4750 
Q 2544 4750 2975 4387 
Q 3406 4025 3406 3419 
Q 3406 3131 3298 2873 
Q 3191 2616 2906 2266 
Q 2828 2175 2409 1742 
Q 1991 1309 1228 531 
z
" transform="scale(0.015625)"/>
       </defs>
       <use xlink:href="#DejaVuSans-32"/>
       <use xlink:href="#DejaVuSans-2e" transform="translate(63.623047 0)"/>
       <use xlink:href="#DejaVuSans-30" transform="translate(95.410156 0)"/>
      </g>
     </g>
    </g>
    <g id="ytick_7">
     <g id="line2d_11">
      <g>
       <use xlink:href="#m06c1559231" x="90" y="56.721789" style="stroke: #000000; stroke-width: 0.8"/>
      </g>
     </g>
     <g id="text_12">
      <!-- 2.5 -->
      <g transform="translate(67.096875 60.521008) scale(0.1 -0.1)">
       <use xlink:href="#DejaVuSans-32"/>
       <use xlink:href="#DejaVuSans-2e" transform="translate(63.623047 0)"/>
       <use xlink:href="#DejaVuSans-35" transform="translate(95.410156 0)"/>
      </g>
     </g>
    </g>
    <g id="text_13">
     <!-- cont_variable -->
     <g transform="translate(52.359375 215.409375) rotate(-90) scale(0.1 -0.1)">
      <defs>
       <path id="DejaVuSans-5f" d="M 3263 -1063 
L 3263 -1509 
L -63 -1509 
L -63 -1063 
L 3263 -1063 
z
" transform="scale(0.015625)"/>
       <path id="DejaVuSans-62" d="M 3116 1747 
Q 3116 2381 2855 2742 
Q 2594 3103 2138 3103 
Q 1681 3103 1420 2742 
Q 1159 2381 1159 1747 
Q 1159 1113 1420 752 
Q 1681 391 2138 391 
Q 2594 391 2855 752 
Q 3116 1113 3116 1747 
z
M 1159 2969 
Q 1341 3281 1617 3432 
Q 1894 3584 2278 3584 
Q 2916 3584 3314 3078 
Q 3713 2572 3713 1747 
Q 3713 922 3314 415 
Q 2916 -91 2278 -91 
Q 1894 -91 1617 61 
Q 1341 213 1159 525 
L 1159 0 
L 581 0 
L 581 4863 
L 1159 4863 
L 1159 2969 
z
" transform="scale(0.015625)"/>
       <path id="DejaVuSans-6c" d="M 603 4863 
L 1178 4863 
L 1178 0 
L 603 0 
L 603 4863 
z
" transform="scale(0.015625)"/>
      </defs>
      <use xlink:href="#DejaVuSans-63"/>
      <use xlink:href="#DejaVuSans-6f" transform="translate(54.980469 0)"/>
      <use xlink:href="#DejaVuSans-6e" transform="translate(116.162109 0)"/>
      <use xlink:href="#DejaVuSans-74" transform="translate(179.541016 0)"/>
      <use xlink:href="#DejaVuSans-5f" transform="translate(218.75 0)"/>
      <use xlink:href="#DejaVuSans-76" transform="translate(268.75 0)"/>
      <use xlink:href="#DejaVuSans-61" transform="translate(327.929688 0)"/>
      <use xlink:href="#DejaVuSans-72" transform="translate(389.208984 0)"/>
      <use xlink:href="#DejaVuSans-69" transform="translate(430.322266 0)"/>
      <use xlink:href="#DejaVuSans-61" transform="translate(458.105469 0)"/>
      <use xlink:href="#DejaVuSans-62" transform="translate(519.384766 0)"/>
      <use xlink:href="#DejaVuSans-6c" transform="translate(582.861328 0)"/>
      <use xlink:href="#DejaVuSans-65" transform="translate(610.644531 0)"/>
     </g>
    </g>
   </g>
   <g id="patch_3">
    <path d="M 90 320.4 
L 90 43.2 
" style="fill: none; stroke: #000000; stroke-width: 0.8; stroke-linejoin: miter; stroke-linecap: square"/>
   </g>
   <g id="patch_4">
    <path d="M 648 320.4 
L 648 43.2 
" style="fill: none; stroke: #000000; stroke-width: 0.8; stroke-linejoin: miter; stroke-linecap: square"/>
   </g>
   <g id="patch_5">
    <path d="M 90 320.4 
L 648 320.4 
" style="fill: none; stroke: #000000; stroke-width: 0.8; stroke-linejoin: miter; stroke-linecap: square"/>
   </g>
   <g id="patch_6">
    <path d="M 90 43.2 
L 648 43.2 
" style="fill: none; stroke: #000000; stroke-width: 0.8; stroke-linejoin: miter; stroke-linecap: square"/>
   </g>
   <g id="PathCollection_1">
    <defs>
     <path id="m94cf00105c" d="M 0 2.5 
C 0.663008 2.5 1.29895 2.236584 1.767767 1.767767 
C 2.236584 1.29895 2.5 0.663008 2.5 0 
C 2.5 -0.663008 2.236584 -1.29895 1.767767 -1.767767 
C 1.29895 -2.236584 0.663008 -2.5 0 -2.5 
C -0.663008 -2.5 -1.29895 -2.236584 -1.767767 -1.767767 
C -2.236584 -1.29895 -2.5 -0.663008 -2.5 0 
C -2.5 0.663008 -2.236584 1.29895 -1.767767 1.767767 
C -1.29895 2.236584 -0.663008 2.5 0 2.5 
z
"/>
    </defs>
    <g clip-path="url(#p424a702b1d)">
     <use xlink:href="#m94cf00105c" x="158.954421" y="262.183931" style="fill-opacity: 0.3"/>
     <use xlink:href="#m94cf00105c" x="150.9255" y="261.812161" style="fill-opacity: 0.3"/>
     <use xlink:href="#m94cf00105c" x="145.938226" y="261.700215" style="fill-opacity: 0.3"/>
     <use xlink:href="#m94cf00105c" x="152.475342" y="132.455064" style="fill-opacity: 0.3"/>
     <use xlink:href="#m94cf00105c" x="156.875716" y="246.465214" style="fill-opacity: 0.3"/>
     <use xlink:href="#m94cf00105c" x="152.491379" y="247.946208" style="fill-opacity: 0.3"/>
     <use xlink:href="#m94cf00105c" x="167.862813" y="238.433145" style="fill-opacity: 0.3"/>
     <use xlink:href="#m94cf00105c" x="153.309687" y="265.312221" style="fill-opacity: 0.3"/>
     <use xlink:href="#m94cf00105c" x="146.850284" y="261.228579" style="fill-opacity: 0.3"/>
     <use xlink:href="#m94cf00105c" x="157.625274" y="260.831055" style="fill-opacity: 0.3"/>
     <use xlink:href="#m94cf00105c" x="147.243482" y="246.926066" style="fill-opacity: 0.3"/>
     <use xlink:href="#m94cf00105c" x="172.575679" y="261.380208" style="fill-opacity: 0.3"/>
     <use xlink:href="#m94cf00105c" x="164.894173" y="261.613024" style="fill-opacity: 0.3"/>
     <use xlink:href="#m94cf00105c" x="158.833683" y="267.764539" style="fill-opacity: 0.3"/>
     <use xlink:href="#m94cf00105c" x="156.045792" y="265.0906" style="fill-opacity: 0.3"/>
     <use xlink:href="#m94cf00105c" x="152.43053" y="242.892667" style="fill-opacity: 0.3"/>
     <use xlink:href="#m94cf00105c" x="160.244697" y="166.837617" style="fill-opacity: 0.3"/>
     <use xlink:href="#m94cf00105c" x="170.578156" y="247.034562" style="fill-opacity: 0.3"/>
     <use xlink:href="#m94cf00105c" x="173.238586" y="222.484449" style="fill-opacity: 0.3"/>
     <use xlink:href="#m94cf00105c" x="167.421734" y="233.864794" style="fill-opacity: 0.3"/>
     <use xlink:href="#m94cf00105c" x="150.844422" y="210.291454" style="fill-opacity: 0.3"/>
     <use xlink:href="#m94cf00105c" x="150.473232" y="195.093607" style="fill-opacity: 0.3"/>
     <use xlink:href="#m94cf00105c" x="172.776805" y="253.366348" style="fill-opacity: 0.3"/>
     <use xlink:href="#m94cf00105c" x="151.693443" y="263.486618" style="fill-opacity: 0.3"/>
     <use xlink:href="#m94cf00105c" x="170.563759" y="198.521728" style="fill-opacity: 0.3"/>
     <use xlink:href="#m94cf00105c" x="151.108887" y="250.787056" style="fill-opacity: 0.3"/>
     <use xlink:href="#m94cf00105c" x="146.112608" y="262.681858" style="fill-opacity: 0.3"/>
     <use xlink:href="#m94cf00105c" x="158.612114" y="239.355927" style="fill-opacity: 0.3"/>
     <use xlink:href="#m94cf00105c" x="145.966509" y="251.480818" style="fill-opacity: 0.3"/>
     <use xlink:href="#m94cf00105c" x="169.606401" y="187.943615" style="fill-opacity: 0.3"/>
     <use xlink:href="#m94cf00105c" x="170.415321" y="200.107677" style="fill-opacity: 0.3"/>
     <use xlink:href="#m94cf00105c" x="153.441981" y="209.508437" style="fill-opacity: 0.3"/>
     <use xlink:href="#m94cf00105c" x="170.278161" y="237.595329" style="fill-opacity: 0.3"/>
     <use xlink:href="#m94cf00105c" x="172.842661" y="206.751397" style="fill-opacity: 0.3"/>
     <use xlink:href="#m94cf00105c" x="163.726981" y="230.244631" style="fill-opacity: 0.3"/>
    </g>
   </g>
   <g id="PathCollection_2">
    <g clip-path="url(#p424a702b1d)">
     <use xlink:href="#m94cf00105c" x="298.240513" y="255.347792" style="fill-opacity: 0.3"/>
     <use xlink:href="#m94cf00105c" x="287.965301" y="262.757558" style="fill-opacity: 0.3"/>
     <use xlink:href="#m94cf00105c" x="290.48285" y="259.954831" style="fill-opacity: 0.3"/>
     <use xlink:href="#m94cf00105c" x="286.379165" y="253.016619" style="fill-opacity: 0.3"/>
     <use xlink:href="#m94cf00105c" x="306.859396" y="258.607764" style="fill-opacity: 0.3"/>
     <use xlink:href="#m94cf00105c" x="291.308847" y="262.682265" style="fill-opacity: 0.3"/>
     <use xlink:href="#m94cf00105c" x="288.479176" y="262.890346" style="fill-opacity: 0.3"/>
     <use xlink:href="#m94cf00105c" x="294.663051" y="262.747457" style="fill-opacity: 0.3"/>
     <use xlink:href="#m94cf00105c" x="308.931404" y="262.431382" style="fill-opacity: 0.3"/>
     <use xlink:href="#m94cf00105c" x="311.059128" y="226.644101" style="fill-opacity: 0.3"/>
     <use xlink:href="#m94cf00105c" x="310.323129" y="236.617733" style="fill-opacity: 0.3"/>
     <use xlink:href="#m94cf00105c" x="313.0297" y="232.61479" style="fill-opacity: 0.3"/>
     <use xlink:href="#m94cf00105c" x="302.172128" y="249.385541" style="fill-opacity: 0.3"/>
     <use xlink:href="#m94cf00105c" x="312.74945" y="228.735261" style="fill-opacity: 0.3"/>
     <use xlink:href="#m94cf00105c" x="289.491264" y="188.254218" style="fill-opacity: 0.3"/>
     <use xlink:href="#m94cf00105c" x="306.259963" y="243.80811" style="fill-opacity: 0.3"/>
     <use xlink:href="#m94cf00105c" x="287.017874" y="250.650713" style="fill-opacity: 0.3"/>
     <use xlink:href="#m94cf00105c" x="288.184353" y="252.837326" style="fill-opacity: 0.3"/>
     <use xlink:href="#m94cf00105c" x="305.801292" y="227.566172" style="fill-opacity: 0.3"/>
     <use xlink:href="#m94cf00105c" x="289.140362" y="238.615053" style="fill-opacity: 0.3"/>
     <use xlink:href="#m94cf00105c" x="297.981826" y="247.463907" style="fill-opacity: 0.3"/>
     <use xlink:href="#m94cf00105c" x="306.379482" y="229.435316" style="fill-opacity: 0.3"/>
     <use xlink:href="#m94cf00105c" x="296.020656" y="242.996766" style="fill-opacity: 0.3"/>
     <use xlink:href="#m94cf00105c" x="287.001282" y="257.518665" style="fill-opacity: 0.3"/>
     <use xlink:href="#m94cf00105c" x="290.678882" y="259.54879" style="fill-opacity: 0.3"/>
     <use xlink:href="#m94cf00105c" x="305.318255" y="254.333569" style="fill-opacity: 0.3"/>
     <use xlink:href="#m94cf00105c" x="300.956019" y="259.249419" style="fill-opacity: 0.3"/>
     <use xlink:href="#m94cf00105c" x="312.225875" y="262.936415" style="fill-opacity: 0.3"/>
     <use xlink:href="#m94cf00105c" x="295.70217" y="259.696876" style="fill-opacity: 0.3"/>
     <use xlink:href="#m94cf00105c" x="309.827453" y="247.367446" style="fill-opacity: 0.3"/>
     <use xlink:href="#m94cf00105c" x="290.028958" y="255.26346" style="fill-opacity: 0.3"/>
     <use xlink:href="#m94cf00105c" x="312.420192" y="263.704584" style="fill-opacity: 0.3"/>
     <use xlink:href="#m94cf00105c" x="310.702285" y="256.939988" style="fill-opacity: 0.3"/>
     <use xlink:href="#m94cf00105c" x="289.076175" y="265.206478" style="fill-opacity: 0.3"/>
     <use xlink:href="#m94cf00105c" x="304.295049" y="259.58007" style="fill-opacity: 0.3"/>
     <use xlink:href="#m94cf00105c" x="298.133849" y="191.561161" style="fill-opacity: 0.3"/>
     <use xlink:href="#m94cf00105c" x="305.218024" y="267.232151" style="fill-opacity: 0.3"/>
     <use xlink:href="#m94cf00105c" x="311.095289" y="233.07729" style="fill-opacity: 0.3"/>
     <use xlink:href="#m94cf00105c" x="289.460473" y="256.73355" style="fill-opacity: 0.3"/>
     <use xlink:href="#m94cf00105c" x="303.774229" y="259.431785" style="fill-opacity: 0.3"/>
     <use xlink:href="#m94cf00105c" x="300.685665" y="257.722413" style="fill-opacity: 0.3"/>
     <use xlink:href="#m94cf00105c" x="310.112643" y="257.851794" style="fill-opacity: 0.3"/>
     <use xlink:href="#m94cf00105c" x="307.369023" y="258.273749" style="fill-opacity: 0.3"/>
     <use xlink:href="#m94cf00105c" x="308.712856" y="249.82218" style="fill-opacity: 0.3"/>
     <use xlink:href="#m94cf00105c" x="298.518423" y="260.298743" style="fill-opacity: 0.3"/>
     <use xlink:href="#m94cf00105c" x="291.403252" y="257.474002" style="fill-opacity: 0.3"/>
     <use xlink:href="#m94cf00105c" x="299.433131" y="259.38209" style="fill-opacity: 0.3"/>
     <use xlink:href="#m94cf00105c" x="299.799869" y="261.079701" style="fill-opacity: 0.3"/>
     <use xlink:href="#m94cf00105c" x="304.748475" y="260.593653" style="fill-opacity: 0.3"/>
     <use xlink:href="#m94cf00105c" x="300.269976" y="264.36366" style="fill-opacity: 0.3"/>
     <use xlink:href="#m94cf00105c" x="304.334789" y="262.17818" style="fill-opacity: 0.3"/>
     <use xlink:href="#m94cf00105c" x="288.217033" y="263.600908" style="fill-opacity: 0.3"/>
     <use xlink:href="#m94cf00105c" x="312.348034" y="260.606639" style="fill-opacity: 0.3"/>
     <use xlink:href="#m94cf00105c" x="298.336429" y="224.897988" style="fill-opacity: 0.3"/>
     <use xlink:href="#m94cf00105c" x="310.895281" y="81.710585" style="fill-opacity: 0.3"/>
     <use xlink:href="#m94cf00105c" x="300.840453" y="249.747374" style="fill-opacity: 0.3"/>
     <use xlink:href="#m94cf00105c" x="286.79901" y="260.73237" style="fill-opacity: 0.3"/>
     <use xlink:href="#m94cf00105c" x="310.530172" y="256.631479" style="fill-opacity: 0.3"/>
     <use xlink:href="#m94cf00105c" x="285.954881" y="256.681193" style="fill-opacity: 0.3"/>
     <use xlink:href="#m94cf00105c" x="298.025335" y="258.938606" style="fill-opacity: 0.3"/>
     <use xlink:href="#m94cf00105c" x="303.457379" y="253.709382" style="fill-opacity: 0.3"/>
     <use xlink:href="#m94cf00105c" x="313.108287" y="172.198642" style="fill-opacity: 0.3"/>
     <use xlink:href="#m94cf00105c" x="310.85683" y="251.132399" style="fill-opacity: 0.3"/>
     <use xlink:href="#m94cf00105c" x="294.326163" y="134.566215" style="fill-opacity: 0.3"/>
     <use xlink:href="#m94cf00105c" x="309.772926" y="251.596869" style="fill-opacity: 0.3"/>
     <use xlink:href="#m94cf00105c" x="309.646778" y="255.657716" style="fill-opacity: 0.3"/>
     <use xlink:href="#m94cf00105c" x="296.910428" y="251.287786" style="fill-opacity: 0.3"/>
     <use xlink:href="#m94cf00105c" x="303.872021" y="178.550472" style="fill-opacity: 0.3"/>
     <use xlink:href="#m94cf00105c" x="288.601923" y="263.05381" style="fill-opacity: 0.3"/>
     <use xlink:href="#m94cf00105c" x="307.688644" y="212.046859" style="fill-opacity: 0.3"/>
     <use xlink:href="#m94cf00105c" x="302.217096" y="191.501301" style="fill-opacity: 0.3"/>
     <use xlink:href="#m94cf00105c" x="292.360212" y="233.245557" style="fill-opacity: 0.3"/>
     <use xlink:href="#m94cf00105c" x="302.603543" y="242.968299" style="fill-opacity: 0.3"/>
     <use xlink:href="#m94cf00105c" x="290.343033" y="223.163968" style="fill-opacity: 0.3"/>
     <use xlink:href="#m94cf00105c" x="293.524771" y="257.696855" style="fill-opacity: 0.3"/>
     <use xlink:href="#m94cf00105c" x="292.323015" y="250.310335" style="fill-opacity: 0.3"/>
     <use xlink:href="#m94cf00105c" x="293.630559" y="197.18782" style="fill-opacity: 0.3"/>
     <use xlink:href="#m94cf00105c" x="292.424202" y="215.684856" style="fill-opacity: 0.3"/>
     <use xlink:href="#m94cf00105c" x="286.226866" y="211.333921" style="fill-opacity: 0.3"/>
     <use xlink:href="#m94cf00105c" x="312.968983" y="214.500771" style="fill-opacity: 0.3"/>
     <use xlink:href="#m94cf00105c" x="301.846964" y="261.231029" style="fill-opacity: 0.3"/>
     <use xlink:href="#m94cf00105c" x="312.10026" y="207.167581" style="fill-opacity: 0.3"/>
     <use xlink:href="#m94cf00105c" x="294.141358" y="203.671665" style="fill-opacity: 0.3"/>
     <use xlink:href="#m94cf00105c" x="310.846815" y="260.199788" style="fill-opacity: 0.3"/>
     <use xlink:href="#m94cf00105c" x="297.188729" y="184.58719" style="fill-opacity: 0.3"/>
     <use xlink:href="#m94cf00105c" x="306.651516" y="181.17801" style="fill-opacity: 0.3"/>
     <use xlink:href="#m94cf00105c" x="288.717629" y="257.856139" style="fill-opacity: 0.3"/>
    </g>
   </g>
   <g id="PathCollection_3">
    <g clip-path="url(#p424a702b1d)">
     <use xlink:href="#m94cf00105c" x="437.726141" y="190.516764" style="fill-opacity: 0.3"/>
     <use xlink:href="#m94cf00105c" x="426.225943" y="130.416988" style="fill-opacity: 0.3"/>
     <use xlink:href="#m94cf00105c" x="441.616248" y="248.713177" style="fill-opacity: 0.3"/>
     <use xlink:href="#m94cf00105c" x="429.400902" y="234.46469" style="fill-opacity: 0.3"/>
     <use xlink:href="#m94cf00105c" x="434.006974" y="258.270309" style="fill-opacity: 0.3"/>
     <use xlink:href="#m94cf00105c" x="448.502438" y="204.936775" style="fill-opacity: 0.3"/>
     <use xlink:href="#m94cf00105c" x="434.340585" y="172.213823" style="fill-opacity: 0.3"/>
     <use xlink:href="#m94cf00105c" x="432.849924" y="267.777494" style="fill-opacity: 0.3"/>
     <use xlink:href="#m94cf00105c" x="449.942827" y="268.707649" style="fill-opacity: 0.3"/>
     <use xlink:href="#m94cf00105c" x="429.709152" y="268.377828" style="fill-opacity: 0.3"/>
     <use xlink:href="#m94cf00105c" x="449.295972" y="267.994461" style="fill-opacity: 0.3"/>
     <use xlink:href="#m94cf00105c" x="439.733526" y="267.310112" style="fill-opacity: 0.3"/>
     <use xlink:href="#m94cf00105c" x="441.308302" y="267.613537" style="fill-opacity: 0.3"/>
     <use xlink:href="#m94cf00105c" x="451.040817" y="267.963482" style="fill-opacity: 0.3"/>
     <use xlink:href="#m94cf00105c" x="448.951798" y="168.94482" style="fill-opacity: 0.3"/>
     <use xlink:href="#m94cf00105c" x="444.340864" y="176.382329" style="fill-opacity: 0.3"/>
     <use xlink:href="#m94cf00105c" x="433.736609" y="212.99612" style="fill-opacity: 0.3"/>
     <use xlink:href="#m94cf00105c" x="430.361076" y="253.089172" style="fill-opacity: 0.3"/>
     <use xlink:href="#m94cf00105c" x="433.878031" y="248.180928" style="fill-opacity: 0.3"/>
     <use xlink:href="#m94cf00105c" x="433.022793" y="255.729061" style="fill-opacity: 0.3"/>
     <use xlink:href="#m94cf00105c" x="445.848331" y="252.695232" style="fill-opacity: 0.3"/>
     <use xlink:href="#m94cf00105c" x="425.605086" y="252.468353" style="fill-opacity: 0.3"/>
     <use xlink:href="#m94cf00105c" x="432.251327" y="265.745786" style="fill-opacity: 0.3"/>
     <use xlink:href="#m94cf00105c" x="439.757568" y="256.265912" style="fill-opacity: 0.3"/>
     <use xlink:href="#m94cf00105c" x="428.464751" y="266.355269" style="fill-opacity: 0.3"/>
     <use xlink:href="#m94cf00105c" x="427.662844" y="263.326948" style="fill-opacity: 0.3"/>
     <use xlink:href="#m94cf00105c" x="445.317685" y="248.393925" style="fill-opacity: 0.3"/>
     <use xlink:href="#m94cf00105c" x="437.599096" y="263.049761" style="fill-opacity: 0.3"/>
     <use xlink:href="#m94cf00105c" x="439.336945" y="259.982193" style="fill-opacity: 0.3"/>
     <use xlink:href="#m94cf00105c" x="450.766652" y="217.759211" style="fill-opacity: 0.3"/>
     <use xlink:href="#m94cf00105c" x="428.040871" y="235.292174" style="fill-opacity: 0.3"/>
     <use xlink:href="#m94cf00105c" x="442.105631" y="118.130096" style="fill-opacity: 0.3"/>
     <use xlink:href="#m94cf00105c" x="452.621206" y="254.707997" style="fill-opacity: 0.3"/>
     <use xlink:href="#m94cf00105c" x="437.916793" y="149.328873" style="fill-opacity: 0.3"/>
     <use xlink:href="#m94cf00105c" x="441.245531" y="149.03317" style="fill-opacity: 0.3"/>
     <use xlink:href="#m94cf00105c" x="442.155912" y="201.834643" style="fill-opacity: 0.3"/>
     <use xlink:href="#m94cf00105c" x="439.486331" y="236.15688" style="fill-opacity: 0.3"/>
     <use xlink:href="#m94cf00105c" x="435.018356" y="243.924461" style="fill-opacity: 0.3"/>
     <use xlink:href="#m94cf00105c" x="441.428317" y="231.222625" style="fill-opacity: 0.3"/>
     <use xlink:href="#m94cf00105c" x="425.909301" y="205.576895" style="fill-opacity: 0.3"/>
     <use xlink:href="#m94cf00105c" x="424.94366" y="228.486129" style="fill-opacity: 0.3"/>
     <use xlink:href="#m94cf00105c" x="440.621294" y="224.099355" style="fill-opacity: 0.3"/>
     <use xlink:href="#m94cf00105c" x="432.590925" y="261.329599" style="fill-opacity: 0.3"/>
     <use xlink:href="#m94cf00105c" x="432.447708" y="166.860489" style="fill-opacity: 0.3"/>
     <use xlink:href="#m94cf00105c" x="448.611821" y="193.635669" style="fill-opacity: 0.3"/>
    </g>
   </g>
   <g id="PathCollection_4">
    <g clip-path="url(#p424a702b1d)">
     <use xlink:href="#m94cf00105c" x="576.110888" y="244.645749" style="fill-opacity: 0.3"/>
     <use xlink:href="#m94cf00105c" x="584.339828" y="261.11511" style="fill-opacity: 0.3"/>
     <use xlink:href="#m94cf00105c" x="581.502166" y="264.465099" style="fill-opacity: 0.3"/>
     <use xlink:href="#m94cf00105c" x="572.378993" y="216.153395" style="fill-opacity: 0.3"/>
     <use xlink:href="#m94cf00105c" x="564.42221" y="228.072859" style="fill-opacity: 0.3"/>
     <use xlink:href="#m94cf00105c" x="571.231499" y="206.565786" style="fill-opacity: 0.3"/>
     <use xlink:href="#m94cf00105c" x="564.795742" y="258.649377" style="fill-opacity: 0.3"/>
     <use xlink:href="#m94cf00105c" x="570.636514" y="246.114998" style="fill-opacity: 0.3"/>
     <use xlink:href="#m94cf00105c" x="577.62085" y="249.372206" style="fill-opacity: 0.3"/>
     <use xlink:href="#m94cf00105c" x="577.074032" y="229.491391" style="fill-opacity: 0.3"/>
     <use xlink:href="#m94cf00105c" x="573.477913" y="190.282541" style="fill-opacity: 0.3"/>
     <use xlink:href="#m94cf00105c" x="586.042735" y="234.840535" style="fill-opacity: 0.3"/>
     <use xlink:href="#m94cf00105c" x="578.110372" y="246.563682" style="fill-opacity: 0.3"/>
     <use xlink:href="#m94cf00105c" x="569.430097" y="248.944585" style="fill-opacity: 0.3"/>
     <use xlink:href="#m94cf00105c" x="586.734192" y="236.235274" style="fill-opacity: 0.3"/>
     <use xlink:href="#m94cf00105c" x="591.843158" y="256.171974" style="fill-opacity: 0.3"/>
     <use xlink:href="#m94cf00105c" x="589.782958" y="256.532665" style="fill-opacity: 0.3"/>
     <use xlink:href="#m94cf00105c" x="581.309752" y="258.193414" style="fill-opacity: 0.3"/>
     <use xlink:href="#m94cf00105c" x="589.595254" y="257.158196" style="fill-opacity: 0.3"/>
     <use xlink:href="#m94cf00105c" x="586.044444" y="257.112191" style="fill-opacity: 0.3"/>
     <use xlink:href="#m94cf00105c" x="569.27189" y="246.354275" style="fill-opacity: 0.3"/>
     <use xlink:href="#m94cf00105c" x="586.284232" y="258.787711" style="fill-opacity: 0.3"/>
     <use xlink:href="#m94cf00105c" x="567.981985" y="251.612902" style="fill-opacity: 0.3"/>
     <use xlink:href="#m94cf00105c" x="590.347188" y="257.37035" style="fill-opacity: 0.3"/>
     <use xlink:href="#m94cf00105c" x="578.678271" y="258.052616" style="fill-opacity: 0.3"/>
     <use xlink:href="#m94cf00105c" x="586.494" y="254.657075" style="fill-opacity: 0.3"/>
     <use xlink:href="#m94cf00105c" x="590.29581" y="258.31459" style="fill-opacity: 0.3"/>
     <use xlink:href="#m94cf00105c" x="588.978177" y="183.918056" style="fill-opacity: 0.3"/>
     <use xlink:href="#m94cf00105c" x="581.520492" y="268.291911" style="fill-opacity: 0.3"/>
     <use xlink:href="#m94cf00105c" x="589.995278" y="233.346384" style="fill-opacity: 0.3"/>
     <use xlink:href="#m94cf00105c" x="580.712826" y="146.481496" style="fill-opacity: 0.3"/>
     <use xlink:href="#m94cf00105c" x="580.079655" y="167.391406" style="fill-opacity: 0.3"/>
     <use xlink:href="#m94cf00105c" x="582.087124" y="225.744855" style="fill-opacity: 0.3"/>
     <use xlink:href="#m94cf00105c" x="569.590766" y="232.976874" style="fill-opacity: 0.3"/>
     <use xlink:href="#m94cf00105c" x="582.824625" y="257.445326" style="fill-opacity: 0.3"/>
     <use xlink:href="#m94cf00105c" x="565.765897" y="248.878693" style="fill-opacity: 0.3"/>
     <use xlink:href="#m94cf00105c" x="566.095416" y="256.467157" style="fill-opacity: 0.3"/>
     <use xlink:href="#m94cf00105c" x="569.168874" y="256.391422" style="fill-opacity: 0.3"/>
     <use xlink:href="#m94cf00105c" x="577.231387" y="253.807442" style="fill-opacity: 0.3"/>
     <use xlink:href="#m94cf00105c" x="574.15191" y="259.83003" style="fill-opacity: 0.3"/>
     <use xlink:href="#m94cf00105c" x="581.651638" y="260.319314" style="fill-opacity: 0.3"/>
     <use xlink:href="#m94cf00105c" x="575.660384" y="242.305303" style="fill-opacity: 0.3"/>
     <use xlink:href="#m94cf00105c" x="567.292534" y="246.035618" style="fill-opacity: 0.3"/>
     <use xlink:href="#m94cf00105c" x="581.271872" y="251.296098" style="fill-opacity: 0.3"/>
     <use xlink:href="#m94cf00105c" x="579.427283" y="259.910567" style="fill-opacity: 0.3"/>
     <use xlink:href="#m94cf00105c" x="584.124531" y="257.940532" style="fill-opacity: 0.3"/>
     <use xlink:href="#m94cf00105c" x="572.848977" y="256.696738" style="fill-opacity: 0.3"/>
     <use xlink:href="#m94cf00105c" x="584.641379" y="258.233265" style="fill-opacity: 0.3"/>
     <use xlink:href="#m94cf00105c" x="576.775244" y="256.087901" style="fill-opacity: 0.3"/>
     <use xlink:href="#m94cf00105c" x="583.443044" y="253.894564" style="fill-opacity: 0.3"/>
     <use xlink:href="#m94cf00105c" x="590.70857" y="252.250634" style="fill-opacity: 0.3"/>
     <use xlink:href="#m94cf00105c" x="566.002987" y="256.102533" style="fill-opacity: 0.3"/>
     <use xlink:href="#m94cf00105c" x="585.85896" y="245.554282" style="fill-opacity: 0.3"/>
     <use xlink:href="#m94cf00105c" x="575.559996" y="136.564088" style="fill-opacity: 0.3"/>
     <use xlink:href="#m94cf00105c" x="591.796938" y="234.272746" style="fill-opacity: 0.3"/>
     <use xlink:href="#m94cf00105c" x="584.266201" y="254.344451" style="fill-opacity: 0.3"/>
     <use xlink:href="#m94cf00105c" x="568.58767" y="207.010411" style="fill-opacity: 0.3"/>
     <use xlink:href="#m94cf00105c" x="580.849195" y="204.463486" style="fill-opacity: 0.3"/>
     <use xlink:href="#m94cf00105c" x="583.011843" y="195.375178" style="fill-opacity: 0.3"/>
     <use xlink:href="#m94cf00105c" x="582.453976" y="198.049127" style="fill-opacity: 0.3"/>
     <use xlink:href="#m94cf00105c" x="591.301637" y="196.02904" style="fill-opacity: 0.3"/>
     <use xlink:href="#m94cf00105c" x="572.093371" y="212.47984" style="fill-opacity: 0.3"/>
     <use xlink:href="#m94cf00105c" x="590.71223" y="227.272351" style="fill-opacity: 0.3"/>
     <use xlink:href="#m94cf00105c" x="587.122353" y="233.994425" style="fill-opacity: 0.3"/>
     <use xlink:href="#m94cf00105c" x="564.842462" y="238.758738" style="fill-opacity: 0.3"/>
     <use xlink:href="#m94cf00105c" x="573.938217" y="258.174278" style="fill-opacity: 0.3"/>
     <use xlink:href="#m94cf00105c" x="573.728913" y="193.094855" style="fill-opacity: 0.3"/>
     <use xlink:href="#m94cf00105c" x="565.576731" y="133.337057" style="fill-opacity: 0.3"/>
    </g>
   </g>
  </g>
 </g>
 <defs>
  <clipPath id="p424a702b1d">
   <rect x="90" y="43.2" width="558" height="277.2"/>
  </clipPath>
 </defs>
</svg>
