<?xml version="1.0" encoding="utf-8" standalone="no"?>
<!DOCTYPE svg PUBLIC "-//W3C//DTD SVG 1.1//EN"
  "http://www.w3.org/Graphics/SVG/1.1/DTD/svg11.dtd">
<svg xmlns:xlink="http://www.w3.org/1999/xlink" width="720pt" height="360pt" viewBox="0 0 720 360" xmlns="http://www.w3.org/2000/svg" version="1.1">
 <metadata>
  <rdf:RDF xmlns:dc="http://purl.org/dc/elements/1.1/" xmlns:cc="http://creativecommons.org/ns#" xmlns:rdf="http://www.w3.org/1999/02/22-rdf-syntax-ns#">
   <cc:Work>
    <dc:type rdf:resource="http://purl.org/dc/dcmitype/StillImage"/>
    <dc:date>2025-10-01T10:09:32.169551</dc:date>
    <dc:format>image/svg+xml</dc:format>
    <dc:creator>
     <cc:Agent>
      <dc:title>Matplotlib v3.10.3, https://matplotlib.org/</dc:title>
     </cc:Agent>
    </dc:creator>
   </cc:Work>
  </rdf:RDF>
 </metadata>
 <defs>
  <style type="text/css">*{stroke-linejoin: round; stroke-linecap: butt}</style>
 </defs>
 <g id="figure_1">
  <g id="patch_1">
   <path d="M 0 360 
L 720 360 
L 720 0 
L 0 0 
z
" style="fill: #ffffff"/>
  </g>
  <g id="axes_1">
   <g id="patch_2">
    <path d="M 90 320.4 
L 648 320.4 
L 648 43.2 
L 90 43.2 
z
" style="fill: #ffffff"/>
   </g>
   <g id="FillBetweenPolyCollection_1">
    <defs>
     <path id="mab15e7a0f1" d="M 161.114838 -75.494027 
L 158.385162 -75.494027 
L 157.976493 -77.739983 
L 157.471124 -79.985939 
L 156.853871 -82.231895 
L 156.109191 -84.477851 
L 155.221699 -86.723807 
L 154.1768 -88.969763 
L 152.961401 -91.215718 
L 151.564684 -93.461674 
L 149.978906 -95.70763 
L 148.200192 -97.953586 
L 146.229259 -100.199542 
L 144.07204 -102.445498 
L 141.740136 -104.691454 
L 139.251058 -106.937409 
L 136.628207 -109.183365 
L 133.900565 -111.429321 
L 131.102073 -113.675277 
L 128.270699 -115.921233 
L 125.447226 -118.167189 
L 122.673805 -120.413145 
L 119.99235 -122.6591 
L 117.442862 -124.905056 
L 115.061794 -127.151012 
L 112.880553 -129.396968 
L 110.924259 -131.642924 
L 109.210827 -133.88888 
L 107.750439 -136.134836 
L 106.545432 -138.380791 
L 105.590604 -140.626747 
L 104.873872 -142.872703 
L 104.377244 -145.118659 
L 104.078002 -147.364615 
L 103.95 -149.610571 
L 103.964984 -151.856527 
L 104.09386 -154.102482 
L 104.307824 -156.348438 
L 104.579334 -158.594394 
L 104.882884 -160.84035 
L 105.195595 -163.086306 
L 105.497629 -165.332262 
L 105.772472 -167.578218 
L 106.007096 -169.824173 
L 106.192058 -172.070129 
L 106.321543 -174.316085 
L 106.393384 -176.562041 
L 106.409054 -178.807997 
L 106.373635 -181.053953 
L 106.295742 -183.299909 
L 106.18739 -185.545864 
L 106.063774 -187.79182 
L 105.94295 -190.037776 
L 105.845382 -192.283732 
L 105.793373 -194.529688 
L 105.810354 -196.775644 
L 105.920072 -199.0216 
L 106.145677 -201.267555 
L 106.508773 -203.513511 
L 107.02845 -205.759467 
L 107.720365 -208.005423 
L 108.595921 -210.251379 
L 109.661589 -212.497335 
L 110.918427 -214.743291 
L 112.361833 -216.989246 
L 113.981556 -219.235202 
L 115.76199 -221.481158 
L 117.682739 -223.727114 
L 119.719435 -225.97307 
L 121.844773 -228.219026 
L 124.029707 -230.464982 
L 126.24472 -232.710937 
L 128.461104 -234.956893 
L 130.65215 -237.202849 
L 132.794162 -239.448805 
L 134.867238 -241.694761 
L 136.855759 -243.940717 
L 138.748563 -246.186673 
L 140.53881 -248.432628 
L 142.22358 -250.678584 
L 143.803244 -252.92454 
L 145.2807 -255.170496 
L 146.660543 -257.416452 
L 147.948269 -259.662408 
L 149.149557 -261.908364 
L 150.269711 -264.154319 
L 151.313276 -266.400275 
L 152.283844 -268.646231 
L 153.184037 -270.892187 
L 154.015636 -273.138143 
L 154.779817 -275.384099 
L 155.477437 -277.630055 
L 156.109345 -279.87601 
L 156.676653 -282.121966 
L 157.180954 -284.367922 
L 157.624462 -286.613878 
L 158.010072 -288.859834 
L 158.341336 -291.10579 
L 158.622378 -293.351746 
L 158.857762 -295.597701 
L 159.05232 -297.843657 
L 160.44768 -297.843657 
L 160.44768 -297.843657 
L 160.642238 -295.597701 
L 160.877622 -293.351746 
L 161.158664 -291.10579 
L 161.489928 -288.859834 
L 161.875538 -286.613878 
L 162.319046 -284.367922 
L 162.823347 -282.121966 
L 163.390655 -279.87601 
L 164.022563 -277.630055 
L 164.720183 -275.384099 
L 165.484364 -273.138143 
L 166.315963 -270.892187 
L 167.216156 -268.646231 
L 168.186724 -266.400275 
L 169.230289 -264.154319 
L 170.350443 -261.908364 
L 171.551731 -259.662408 
L 172.839457 -257.416452 
L 174.2193 -255.170496 
L 175.696756 -252.92454 
L 177.27642 -250.678584 
L 178.96119 -248.432628 
L 180.751437 -246.186673 
L 182.644241 -243.940717 
L 184.632762 -241.694761 
L 186.705838 -239.448805 
L 188.84785 -237.202849 
L 191.038896 -234.956893 
L 193.25528 -232.710937 
L 195.470293 -230.464982 
L 197.655227 -228.219026 
L 199.780565 -225.97307 
L 201.817261 -223.727114 
L 203.73801 -221.481158 
L 205.518444 -219.235202 
L 207.138167 -216.989246 
L 208.581573 -214.743291 
L 209.838411 -212.497335 
L 210.904079 -210.251379 
L 211.779635 -208.005423 
L 212.47155 -205.759467 
L 212.991227 -203.513511 
L 213.354323 -201.267555 
L 213.579928 -199.0216 
L 213.689646 -196.775644 
L 213.706627 -194.529688 
L 213.654618 -192.283732 
L 213.55705 -190.037776 
L 213.436226 -187.79182 
L 213.31261 -185.545864 
L 213.204258 -183.299909 
L 213.126365 -181.053953 
L 213.090946 -178.807997 
L 213.106616 -176.562041 
L 213.178457 -174.316085 
L 213.307942 -172.070129 
L 213.492904 -169.824173 
L 213.727528 -167.578218 
L 214.002371 -165.332262 
L 214.304405 -163.086306 
L 214.617116 -160.84035 
L 214.920666 -158.594394 
L 215.192176 -156.348438 
L 215.40614 -154.102482 
L 215.535016 -151.856527 
L 215.55 -149.610571 
L 215.421998 -147.364615 
L 215.122756 -145.118659 
L 214.626128 -142.872703 
L 213.909396 -140.626747 
L 212.954568 -138.380791 
L 211.749561 -136.134836 
L 210.289173 -133.88888 
L 208.575741 -131.642924 
L 206.619447 -129.396968 
L 204.438206 -127.151012 
L 202.057138 -124.905056 
L 199.50765 -122.6591 
L 196.826195 -120.413145 
L 194.052774 -118.167189 
L 191.229301 -115.921233 
L 188.397927 -113.675277 
L 185.599435 -111.429321 
L 182.871793 -109.183365 
L 180.248942 -106.937409 
L 177.759864 -104.691454 
L 175.42796 -102.445498 
L 173.270741 -100.199542 
L 171.299808 -97.953586 
L 169.521094 -95.70763 
L 167.935316 -93.461674 
L 166.538599 -91.215718 
L 165.3232 -88.969763 
L 164.278301 -86.723807 
L 163.390809 -84.477851 
L 162.646129 -82.231895 
L 162.028876 -79.985939 
L 161.523507 -77.739983 
L 161.114838 -75.494027 
z
" style="stroke: #3d3d3d; stroke-width: 1.25"/>
    </defs>
    <g clip-path="url(#pb982896a0a)">
     <use xlink:href="#mab15e7a0f1" x="0" y="360" style="fill: #3274a1; stroke: #3d3d3d; stroke-width: 1.25"/>
    </g>
   </g>
   <g id="FillBetweenPolyCollection_2">
    <defs>
     <path id="mca36ebf258" d="M 299.759349 -94.723095 
L 298.740651 -94.723095 
L 298.558799 -96.591139 
L 298.330064 -98.459183 
L 298.048441 -100.327227 
L 297.708704 -102.195271 
L 297.306635 -104.063315 
L 296.839085 -105.931359 
L 296.303822 -107.799403 
L 295.699157 -109.667447 
L 295.023398 -111.535491 
L 294.27424 -113.403535 
L 293.448217 -115.271579 
L 292.540413 -117.139623 
L 291.544548 -119.007667 
L 290.453584 -120.875711 
L 289.260833 -122.743755 
L 287.961521 -124.611799 
L 286.554579 -126.479843 
L 285.044417 -128.347887 
L 283.442323 -130.215931 
L 281.767168 -132.083975 
L 280.045157 -133.952019 
L 278.308456 -135.820063 
L 276.59273 -137.688107 
L 274.933756 -139.556151 
L 273.363505 -141.424195 
L 271.906165 -143.292239 
L 270.574707 -145.160283 
L 269.368533 -147.028327 
L 268.272682 -148.896371 
L 267.258828 -150.764415 
L 266.288091 -152.632459 
L 265.315373 -154.500503 
L 264.294703 -156.368547 
L 263.184865 -158.236591 
L 261.954565 -160.104635 
L 260.586408 -161.972679 
L 259.079187 -163.840723 
L 257.448223 -165.708767 
L 255.723845 -167.576811 
L 253.94832 -169.444855 
L 252.17181 -171.312898 
L 250.447954 -173.180942 
L 248.829647 -175.048986 
L 247.365447 -176.91703 
L 246.096809 -178.785074 
L 245.056159 -180.653118 
L 244.265663 -182.521162 
L 243.736499 -184.389206 
L 243.468481 -186.25725 
L 243.45 -188.125294 
L 243.658388 -189.993338 
L 244.06091 -191.861382 
L 244.61661 -193.729426 
L 245.279167 -195.59747 
L 246.000708 -197.465514 
L 246.736334 -199.333558 
L 247.448863 -201.201602 
L 248.113153 -203.069646 
L 248.719345 -204.93769 
L 249.274466 -206.805734 
L 249.802041 -208.673778 
L 250.339706 -210.541822 
L 250.935088 -212.409866 
L 251.640496 -214.27791 
L 252.507134 -216.145954 
L 253.579567 -218.013998 
L 254.891101 -219.882042 
L 256.460534 -221.750086 
L 258.290533 -223.61813 
L 260.367631 -225.486174 
L 262.663678 -227.354218 
L 265.138406 -229.222262 
L 267.742741 -231.090306 
L 270.422462 -232.95835 
L 273.121872 -234.826394 
L 275.787188 -236.694438 
L 278.369452 -238.562482 
L 280.826805 -240.430526 
L 283.126059 -242.29857 
L 285.243522 -244.166614 
L 287.165107 -246.034658 
L 288.885773 -247.902702 
L 290.408417 -249.770746 
L 291.742353 -251.63879 
L 292.901559 -253.506834 
L 293.902873 -255.374878 
L 294.764312 -257.242922 
L 295.503661 -259.110966 
L 296.13743 -260.97901 
L 296.680206 -262.847054 
L 297.144398 -264.715098 
L 297.5403 -266.583142 
L 297.876372 -268.451186 
L 298.159637 -270.31923 
L 298.396105 -272.187274 
L 298.591132 -274.055318 
L 298.74969 -275.923362 
L 298.87651 -277.791406 
L 298.97614 -279.65945 
L 299.52386 -279.65945 
L 299.52386 -279.65945 
L 299.62349 -277.791406 
L 299.75031 -275.923362 
L 299.908868 -274.055318 
L 300.103895 -272.187274 
L 300.340363 -270.31923 
L 300.623628 -268.451186 
L 300.9597 -266.583142 
L 301.355602 -264.715098 
L 301.819794 -262.847054 
L 302.36257 -260.97901 
L 302.996339 -259.110966 
L 303.735688 -257.242922 
L 304.597127 -255.374878 
L 305.598441 -253.506834 
L 306.757647 -251.63879 
L 308.091583 -249.770746 
L 309.614227 -247.902702 
L 311.334893 -246.034658 
L 313.256478 -244.166614 
L 315.373941 -242.29857 
L 317.673195 -240.430526 
L 320.130548 -238.562482 
L 322.712812 -236.694438 
L 325.378128 -234.826394 
L 328.077538 -232.95835 
L 330.757259 -231.090306 
L 333.361594 -229.222262 
L 335.836322 -227.354218 
L 338.132369 -225.486174 
L 340.209467 -223.61813 
L 342.039466 -221.750086 
L 343.608899 -219.882042 
L 344.920433 -218.013998 
L 345.992866 -216.145954 
L 346.859504 -214.27791 
L 347.564912 -212.409866 
L 348.160294 -210.541822 
L 348.697959 -208.673778 
L 349.225534 -206.805734 
L 349.780655 -204.93769 
L 350.386847 -203.069646 
L 351.051137 -201.201602 
L 351.763666 -199.333558 
L 352.499292 -197.465514 
L 353.220833 -195.59747 
L 353.88339 -193.729426 
L 354.43909 -191.861382 
L 354.841612 -189.993338 
L 355.05 -188.125294 
L 355.031519 -186.25725 
L 354.763501 -184.389206 
L 354.234337 -182.521162 
L 353.443841 -180.653118 
L 352.403191 -178.785074 
L 351.134553 -176.91703 
L 349.670353 -175.048986 
L 348.052046 -173.180942 
L 346.32819 -171.312898 
L 344.55168 -169.444855 
L 342.776155 -167.576811 
L 341.051777 -165.708767 
L 339.420813 -163.840723 
L 337.913592 -161.972679 
L 336.545435 -160.104635 
L 335.315135 -158.236591 
L 334.205297 -156.368547 
L 333.184627 -154.500503 
L 332.211909 -152.632459 
L 331.241172 -150.764415 
L 330.227318 -148.896371 
L 329.131467 -147.028327 
L 327.925293 -145.160283 
L 326.593835 -143.292239 
L 325.136495 -141.424195 
L 323.566244 -139.556151 
L 321.90727 -137.688107 
L 320.191544 -135.820063 
L 318.454843 -133.952019 
L 316.732832 -132.083975 
L 315.057677 -130.215931 
L 313.455583 -128.347887 
L 311.945421 -126.479843 
L 310.538479 -124.611799 
L 309.239167 -122.743755 
L 308.046416 -120.875711 
L 306.955452 -119.007667 
L 305.959587 -117.139623 
L 305.051783 -115.271579 
L 304.22576 -113.403535 
L 303.476602 -111.535491 
L 302.800843 -109.667447 
L 302.196178 -107.799403 
L 301.660915 -105.931359 
L 301.193365 -104.063315 
L 300.791296 -102.195271 
L 300.451559 -100.327227 
L 300.169936 -98.459183 
L 299.941201 -96.591139 
L 299.759349 -94.723095 
z
" style="stroke: #3d3d3d; stroke-width: 1.25"/>
    </defs>
    <g clip-path="url(#pb982896a0a)">
     <use xlink:href="#mca36ebf258" x="0" y="360" style="fill: #e1812c; stroke: #3d3d3d; stroke-width: 1.25"/>
    </g>
   </g>
   <g id="FillBetweenPolyCollection_3">
    <defs>
     <path id="m0943c5d5da" d="M 439.197987 -52.2 
L 438.302013 -52.2 
L 438.177987 -54.745455 
L 438.027748 -57.290909 
L 437.84776 -59.836364 
L 437.634318 -62.381818 
L 437.383512 -64.927273 
L 437.091154 -67.472727 
L 436.752659 -70.018182 
L 436.362893 -72.563636 
L 435.915992 -75.109091 
L 435.405171 -77.654545 
L 434.822562 -80.2 
L 434.159118 -82.745455 
L 433.404606 -85.290909 
L 432.547758 -87.836364 
L 431.576573 -90.381818 
L 430.478817 -92.927273 
L 429.2427 -95.472727 
L 427.857703 -98.018182 
L 426.315512 -100.563636 
L 424.610974 -103.109091 
L 422.743013 -105.654545 
L 420.71538 -108.2 
L 418.53719 -110.745455 
L 416.22315 -113.290909 
L 413.793445 -115.836364 
L 411.273281 -118.381818 
L 408.692101 -120.927273 
L 406.082531 -123.472727 
L 403.479162 -126.018182 
L 400.917243 -128.563636 
L 398.431407 -131.109091 
L 396.054517 -133.654545 
L 393.816708 -136.2 
L 391.744664 -138.745455 
L 389.861147 -141.290909 
L 388.184754 -143.836364 
L 386.72986 -146.381818 
L 385.50669 -148.927273 
L 384.52145 -151.472727 
L 383.776469 -154.018182 
L 383.270298 -156.563636 
L 382.997769 -159.109091 
L 382.95 -161.654545 
L 383.114393 -164.2 
L 383.474676 -166.745455 
L 384.011039 -169.290909 
L 384.700433 -171.836364 
L 385.51708 -174.381818 
L 386.4332 -176.927273 
L 387.419973 -179.472727 
L 388.448671 -182.018182 
L 389.491899 -184.563636 
L 390.52483 -187.109091 
L 391.526329 -189.654545 
L 392.479831 -192.2 
L 393.373887 -194.745455 
L 394.202283 -197.290909 
L 394.963722 -199.836364 
L 395.66109 -202.381818 
L 396.300379 -204.927273 
L 396.889396 -207.472727 
L 397.436428 -210.018182 
L 397.949018 -212.563636 
L 398.433035 -215.109091 
L 398.892162 -217.654545 
L 399.327873 -220.2 
L 399.739937 -222.745455 
L 400.127357 -225.290909 
L 400.489647 -227.836364 
L 400.828254 -230.381818 
L 401.147914 -232.927273 
L 401.457749 -235.472727 
L 401.77189 -238.018182 
L 402.109519 -240.563636 
L 402.494242 -243.109091 
L 402.952827 -245.654545 
L 403.513398 -248.2 
L 404.203246 -250.745455 
L 405.046499 -253.290909 
L 406.061865 -255.836364 
L 407.260718 -258.381818 
L 408.645707 -260.927273 
L 410.210048 -263.472727 
L 411.937571 -266.018182 
L 413.803507 -268.563636 
L 415.775944 -271.109091 
L 417.817786 -273.654545 
L 419.889042 -276.2 
L 421.949215 -278.745455 
L 423.959586 -281.290909 
L 425.885223 -283.836364 
L 427.69655 -286.381818 
L 429.370425 -288.927273 
L 430.890659 -291.472727 
L 432.248036 -294.018182 
L 433.439875 -296.563636 
L 434.469248 -299.109091 
L 435.343957 -301.654545 
L 436.075397 -304.2 
L 441.424603 -304.2 
L 441.424603 -304.2 
L 442.156043 -301.654545 
L 443.030752 -299.109091 
L 444.060125 -296.563636 
L 445.251964 -294.018182 
L 446.609341 -291.472727 
L 448.129575 -288.927273 
L 449.80345 -286.381818 
L 451.614777 -283.836364 
L 453.540414 -281.290909 
L 455.550785 -278.745455 
L 457.610958 -276.2 
L 459.682214 -273.654545 
L 461.724056 -271.109091 
L 463.696493 -268.563636 
L 465.562429 -266.018182 
L 467.289952 -263.472727 
L 468.854293 -260.927273 
L 470.239282 -258.381818 
L 471.438135 -255.836364 
L 472.453501 -253.290909 
L 473.296754 -250.745455 
L 473.986602 -248.2 
L 474.547173 -245.654545 
L 475.005758 -243.109091 
L 475.390481 -240.563636 
L 475.72811 -238.018182 
L 476.042251 -235.472727 
L 476.352086 -232.927273 
L 476.671746 -230.381818 
L 477.010353 -227.836364 
L 477.372643 -225.290909 
L 477.760063 -222.745455 
L 478.172127 -220.2 
L 478.607838 -217.654545 
L 479.066965 -215.109091 
L 479.550982 -212.563636 
L 480.063572 -210.018182 
L 480.610604 -207.472727 
L 481.199621 -204.927273 
L 481.83891 -202.381818 
L 482.536278 -199.836364 
L 483.297717 -197.290909 
L 484.126113 -194.745455 
L 485.020169 -192.2 
L 485.973671 -189.654545 
L 486.97517 -187.109091 
L 488.008101 -184.563636 
L 489.051329 -182.018182 
L 490.080027 -179.472727 
L 491.0668 -176.927273 
L 491.98292 -174.381818 
L 492.799567 -171.836364 
L 493.488961 -169.290909 
L 494.025324 -166.745455 
L 494.385607 -164.2 
L 494.55 -161.654545 
L 494.502231 -159.109091 
L 494.229702 -156.563636 
L 493.723531 -154.018182 
L 492.97855 -151.472727 
L 491.99331 -148.927273 
L 490.77014 -146.381818 
L 489.315246 -143.836364 
L 487.638853 -141.290909 
L 485.755336 -138.745455 
L 483.683292 -136.2 
L 481.445483 -133.654545 
L 479.068593 -131.109091 
L 476.582757 -128.563636 
L 474.020838 -126.018182 
L 471.417469 -123.472727 
L 468.807899 -120.927273 
L 466.226719 -118.381818 
L 463.706555 -115.836364 
L 461.27685 -113.290909 
L 458.96281 -110.745455 
L 456.78462 -108.2 
L 454.756987 -105.654545 
L 452.889026 -103.109091 
L 451.184488 -100.563636 
L 449.642297 -98.018182 
L 448.2573 -95.472727 
L 447.021183 -92.927273 
L 445.923427 -90.381818 
L 444.952242 -87.836364 
L 444.095394 -85.290909 
L 443.340882 -82.745455 
L 442.677438 -80.2 
L 442.094829 -77.654545 
L 441.584008 -75.109091 
L 441.137107 -72.563636 
L 440.747341 -70.018182 
L 440.408846 -67.472727 
L 440.116488 -64.927273 
L 439.865682 -62.381818 
L 439.65224 -59.836364 
L 439.472252 -57.290909 
L 439.322013 -54.745455 
L 439.197987 -52.2 
z
" style="stroke: #3d3d3d; stroke-width: 1.25"/>
    </defs>
    <g clip-path="url(#pb982896a0a)">
     <use xlink:href="#m0943c5d5da" x="0" y="360" style="fill: #3a923a; stroke: #3d3d3d; stroke-width: 1.25"/>
    </g>
   </g>
   <g id="FillBetweenPolyCollection_4">
    <defs>
     <path id="md451573d3d" d="M 578.613921 -110.19238 
L 577.886079 -110.19238 
L 577.73306 -111.953998 
L 577.529279 -113.715617 
L 577.263202 -115.477235 
L 576.922404 -117.238853 
L 576.494021 -119.000472 
L 575.965346 -120.76209 
L 575.324587 -122.523709 
L 574.56176 -124.285327 
L 573.669711 -126.046946 
L 572.645214 -127.808564 
L 571.490079 -129.570183 
L 570.212156 -131.331801 
L 568.826104 -133.09342 
L 567.35373 -134.855038 
L 565.823745 -136.616656 
L 564.270768 -138.378275 
L 562.733511 -140.139893 
L 561.252155 -141.901512 
L 559.8651 -143.66313 
L 558.605369 -145.424749 
L 557.497098 -147.186367 
L 556.552583 -148.947986 
L 555.77033 -150.709604 
L 555.134463 -152.471223 
L 554.615668 -154.232841 
L 554.173601 -155.994459 
L 553.760494 -157.756078 
L 553.325485 -159.517696 
L 552.8191 -161.279315 
L 552.197308 -163.040933 
L 551.424647 -164.802552 
L 550.476117 -166.56417 
L 549.337745 -168.325789 
L 548.005958 -170.087407 
L 546.486125 -171.849025 
L 544.790732 -173.610644 
L 542.93771 -175.372262 
L 540.949383 -177.133881 
L 538.852299 -178.895499 
L 536.677988 -180.657118 
L 534.464414 -182.418736 
L 532.257612 -184.180355 
L 530.112863 -185.941973 
L 528.094723 -187.703592 
L 526.275356 -189.46521 
L 524.730953 -191.226828 
L 523.536372 -192.988447 
L 522.758608 -194.750065 
L 522.45 -196.511684 
L 522.642294 -198.273302 
L 523.342597 -200.034921 
L 524.532015 -201.796539 
L 526.167299 -203.558158 
L 528.185304 -205.319776 
L 530.509578 -207.081395 
L 533.058018 -208.843013 
L 535.750419 -210.604631 
L 538.514789 -212.36625 
L 541.291642 -214.127868 
L 544.035881 -215.889487 
L 546.716349 -217.651105 
L 549.313556 -219.412724 
L 551.816318 -221.174342 
L 554.218144 -222.935961 
L 556.514102 -224.697579 
L 558.698679 -226.459198 
L 560.76481 -228.220816 
L 562.704011 -229.982434 
L 564.507288 -231.744053 
L 566.166414 -233.505671 
L 567.67516 -235.26729 
L 569.030185 -237.028908 
L 570.231448 -238.790527 
L 571.282138 -240.552145 
L 572.188287 -242.313764 
L 572.958234 -244.075382 
L 573.602118 -245.837 
L 574.13152 -247.598619 
L 574.559253 -249.360237 
L 574.899249 -251.121856 
L 575.166421 -252.883474 
L 575.376389 -254.645093 
L 575.544983 -256.406711 
L 575.687535 -258.16833 
L 575.818013 -259.929948 
L 575.948138 -261.691567 
L 576.086641 -263.453185 
L 576.238791 -265.214803 
L 576.40631 -266.976422 
L 576.58768 -268.73804 
L 576.778794 -270.499659 
L 576.973853 -272.261277 
L 577.166335 -274.022896 
L 577.349923 -275.784514 
L 577.519242 -277.546133 
L 577.670347 -279.307751 
L 577.800936 -281.06937 
L 577.910313 -282.830988 
L 577.999161 -284.592606 
L 578.500839 -284.592606 
L 578.500839 -284.592606 
L 578.589687 -282.830988 
L 578.699064 -281.06937 
L 578.829653 -279.307751 
L 578.980758 -277.546133 
L 579.150077 -275.784514 
L 579.333665 -274.022896 
L 579.526147 -272.261277 
L 579.721206 -270.499659 
L 579.91232 -268.73804 
L 580.09369 -266.976422 
L 580.261209 -265.214803 
L 580.413359 -263.453185 
L 580.551862 -261.691567 
L 580.681987 -259.929948 
L 580.812465 -258.16833 
L 580.955017 -256.406711 
L 581.123611 -254.645093 
L 581.333579 -252.883474 
L 581.600751 -251.121856 
L 581.940747 -249.360237 
L 582.36848 -247.598619 
L 582.897882 -245.837 
L 583.541766 -244.075382 
L 584.311713 -242.313764 
L 585.217862 -240.552145 
L 586.268552 -238.790527 
L 587.469815 -237.028908 
L 588.82484 -235.26729 
L 590.333586 -233.505671 
L 591.992712 -231.744053 
L 593.795989 -229.982434 
L 595.73519 -228.220816 
L 597.801321 -226.459198 
L 599.985898 -224.697579 
L 602.281856 -222.935961 
L 604.683682 -221.174342 
L 607.186444 -219.412724 
L 609.783651 -217.651105 
L 612.464119 -215.889487 
L 615.208358 -214.127868 
L 617.985211 -212.36625 
L 620.749581 -210.604631 
L 623.441982 -208.843013 
L 625.990422 -207.081395 
L 628.314696 -205.319776 
L 630.332701 -203.558158 
L 631.967985 -201.796539 
L 633.157403 -200.034921 
L 633.857706 -198.273302 
L 634.05 -196.511684 
L 633.741392 -194.750065 
L 632.963628 -192.988447 
L 631.769047 -191.226828 
L 630.224644 -189.46521 
L 628.405277 -187.703592 
L 626.387137 -185.941973 
L 624.242388 -184.180355 
L 622.035586 -182.418736 
L 619.822012 -180.657118 
L 617.647701 -178.895499 
L 615.550617 -177.133881 
L 613.56229 -175.372262 
L 611.709268 -173.610644 
L 610.013875 -171.849025 
L 608.494042 -170.087407 
L 607.162255 -168.325789 
L 606.023883 -166.56417 
L 605.075353 -164.802552 
L 604.302692 -163.040933 
L 603.6809 -161.279315 
L 603.174515 -159.517696 
L 602.739506 -157.756078 
L 602.326399 -155.994459 
L 601.884332 -154.232841 
L 601.365537 -152.471223 
L 600.72967 -150.709604 
L 599.947417 -148.947986 
L 599.002902 -147.186367 
L 597.894631 -145.424749 
L 596.6349 -143.66313 
L 595.247845 -141.901512 
L 593.766489 -140.139893 
L 592.229232 -138.378275 
L 590.676255 -136.616656 
L 589.14627 -134.855038 
L 587.673896 -133.09342 
L 586.287844 -131.331801 
L 585.009921 -129.570183 
L 583.854786 -127.808564 
L 582.830289 -126.046946 
L 581.93824 -124.285327 
L 581.175413 -122.523709 
L 580.534654 -120.76209 
L 580.005979 -119.000472 
L 579.577596 -117.238853 
L 579.236798 -115.477235 
L 578.970721 -113.715617 
L 578.76694 -111.953998 
L 578.613921 -110.19238 
z
" style="stroke: #3d3d3d; stroke-width: 1.25"/>
    </defs>
    <g clip-path="url(#pb982896a0a)">
     <use xlink:href="#md451573d3d" x="0" y="360" style="fill: #c03d3e; stroke: #3d3d3d; stroke-width: 1.25"/>
    </g>
   </g>
   <g id="matplotlib.axis_1">
    <g id="xtick_1">
     <g id="line2d_1">
      <defs>
       <path id="m3ac04bd3db" d="M 0 0 
L 0 3.5 
" style="stroke: #000000; stroke-width: 0.8"/>
      </defs>
      <g>
       <use xlink:href="#m3ac04bd3db" x="159.75" y="320.4" style="stroke: #000000; stroke-width: 0.8"/>
      </g>
     </g>
     <g id="text_1">
      <!-- No -->
      <g transform="translate(152.95 334.998438) scale(0.1 -0.1)">
       <defs>
        <path id="DejaVuSans-4e" d="M 628 4666 
L 1478 4666 
L 3547 763 
L 3547 4666 
L 4159 4666 
L 4159 0 
L 3309 0 
L 1241 3903 
L 1241 0 
L 628 0 
L 628 4666 
z
" transform="scale(0.015625)"/>
        <path id="DejaVuSans-6f" d="M 1959 3097 
Q 1497 3097 1228 2736 
Q 959 2375 959 1747 
Q 959 1119 1226 758 
Q 1494 397 1959 397 
Q 2419 397 2687 759 
Q 2956 1122 2956 1747 
Q 2956 2369 2687 2733 
Q 2419 3097 1959 3097 
z
M 1959 3584 
Q 2709 3584 3137 3096 
Q 3566 2609 3566 1747 
Q 3566 888 3137 398 
Q 2709 -91 1959 -91 
Q 1206 -91 779 398 
Q 353 888 353 1747 
Q 353 2609 779 3096 
Q 1206 3584 1959 3584 
z
" transform="scale(0.015625)"/>
       </defs>
       <use xlink:href="#DejaVuSans-4e"/>
       <use xlink:href="#DejaVuSans-6f" transform="translate(74.804688 0)"/>
      </g>
     </g>
    </g>
    <g id="xtick_2">
     <g id="line2d_2">
      <g>
       <use xlink:href="#m3ac04bd3db" x="299.25" y="320.4" style="stroke: #000000; stroke-width: 0.8"/>
      </g>
     </g>
     <g id="text_2">
      <!-- Specific -->
      <g transform="translate(279.788281 334.998438) scale(0.1 -0.1)">
       <defs>
        <path id="DejaVuSans-53" d="M 3425 4513 
L 3425 3897 
Q 3066 4069 2747 4153 
Q 2428 4238 2131 4238 
Q 1616 4238 1336 4038 
Q 1056 3838 1056 3469 
Q 1056 3159 1242 3001 
Q 1428 2844 1947 2747 
L 2328 2669 
Q 3034 2534 3370 2195 
Q 3706 1856 3706 1288 
Q 3706 609 3251 259 
Q 2797 -91 1919 -91 
Q 1588 -91 1214 -16 
Q 841 59 441 206 
L 441 856 
Q 825 641 1194 531 
Q 1563 422 1919 422 
Q 2459 422 2753 634 
Q 3047 847 3047 1241 
Q 3047 1584 2836 1778 
Q 2625 1972 2144 2069 
L 1759 2144 
Q 1053 2284 737 2584 
Q 422 2884 422 3419 
Q 422 4038 858 4394 
Q 1294 4750 2059 4750 
Q 2388 4750 2728 4690 
Q 3069 4631 3425 4513 
z
" transform="scale(0.015625)"/>
        <path id="DejaVuSans-70" d="M 1159 525 
L 1159 -1331 
L 581 -1331 
L 581 3500 
L 1159 3500 
L 1159 2969 
Q 1341 3281 1617 3432 
Q 1894 3584 2278 3584 
Q 2916 3584 3314 3078 
Q 3713 2572 3713 1747 
Q 3713 922 3314 415 
Q 2916 -91 2278 -91 
Q 1894 -91 1617 61 
Q 1341 213 1159 525 
z
M 3116 1747 
Q 3116 2381 2855 2742 
Q 2594 3103 2138 3103 
Q 1681 3103 1420 2742 
Q 1159 2381 1159 1747 
Q 1159 1113 1420 752 
Q 1681 391 2138 391 
Q 2594 391 2855 752 
Q 3116 1113 3116 1747 
z
" transform="scale(0.015625)"/>
        <path id="DejaVuSans-65" d="M 3597 1894 
L 3597 1613 
L 953 1613 
Q 991 1019 1311 708 
Q 1631 397 2203 397 
Q 2534 397 2845 478 
Q 3156 559 3463 722 
L 3463 178 
Q 3153 47 2828 -22 
Q 2503 -91 2169 -91 
Q 1331 -91 842 396 
Q 353 884 353 1716 
Q 353 2575 817 3079 
Q 1281 3584 2069 3584 
Q 2775 3584 3186 3129 
Q 3597 2675 3597 1894 
z
M 3022 2063 
Q 3016 2534 2758 2815 
Q 2500 3097 2075 3097 
Q 1594 3097 1305 2825 
Q 1016 2553 972 2059 
L 3022 2063 
z
" transform="scale(0.015625)"/>
        <path id="DejaVuSans-63" d="M 3122 3366 
L 3122 2828 
Q 2878 2963 2633 3030 
Q 2388 3097 2138 3097 
Q 1578 3097 1268 2742 
Q 959 2388 959 1747 
Q 959 1106 1268 751 
Q 1578 397 2138 397 
Q 2388 397 2633 464 
Q 2878 531 3122 666 
L 3122 134 
Q 2881 22 2623 -34 
Q 2366 -91 2075 -91 
Q 1284 -91 818 406 
Q 353 903 353 1747 
Q 353 2603 823 3093 
Q 1294 3584 2113 3584 
Q 2378 3584 2631 3529 
Q 2884 3475 3122 3366 
z
" transform="scale(0.015625)"/>
        <path id="DejaVuSans-69" d="M 603 3500 
L 1178 3500 
L 1178 0 
L 603 0 
L 603 3500 
z
M 603 4863 
L 1178 4863 
L 1178 4134 
L 603 4134 
L 603 4863 
z
" transform="scale(0.015625)"/>
        <path id="DejaVuSans-66" d="M 2375 4863 
L 2375 4384 
L 1825 4384 
Q 1516 4384 1395 4259 
Q 1275 4134 1275 3809 
L 1275 3500 
L 2222 3500 
L 2222 3053 
L 1275 3053 
L 1275 0 
L 697 0 
L 697 3053 
L 147 3053 
L 147 3500 
L 697 3500 
L 697 3744 
Q 697 4328 969 4595 
Q 1241 4863 1831 4863 
L 2375 4863 
z
" transform="scale(0.015625)"/>
       </defs>
       <use xlink:href="#DejaVuSans-53"/>
       <use xlink:href="#DejaVuSans-70" transform="translate(63.476562 0)"/>
       <use xlink:href="#DejaVuSans-65" transform="translate(126.953125 0)"/>
       <use xlink:href="#DejaVuSans-63" transform="translate(188.476562 0)"/>
       <use xlink:href="#DejaVuSans-69" transform="translate(243.457031 0)"/>
       <use xlink:href="#DejaVuSans-66" transform="translate(271.240234 0)"/>
       <use xlink:href="#DejaVuSans-69" transform="translate(306.445312 0)"/>
       <use xlink:href="#DejaVuSans-63" transform="translate(334.228516 0)"/>
      </g>
     </g>
    </g>
    <g id="xtick_3">
     <g id="line2d_3">
      <g>
       <use xlink:href="#m3ac04bd3db" x="438.75" y="320.4" style="stroke: #000000; stroke-width: 0.8"/>
      </g>
     </g>
     <g id="text_3">
      <!-- Spurious -->
      <g transform="translate(416.955469 334.998438) scale(0.1 -0.1)">
       <defs>
        <path id="DejaVuSans-75" d="M 544 1381 
L 544 3500 
L 1119 3500 
L 1119 1403 
Q 1119 906 1312 657 
Q 1506 409 1894 409 
Q 2359 409 2629 706 
Q 2900 1003 2900 1516 
L 2900 3500 
L 3475 3500 
L 3475 0 
L 2900 0 
L 2900 538 
Q 2691 219 2414 64 
Q 2138 -91 1772 -91 
Q 1169 -91 856 284 
Q 544 659 544 1381 
z
M 1991 3584 
L 1991 3584 
z
" transform="scale(0.015625)"/>
        <path id="DejaVuSans-72" d="M 2631 2963 
Q 2534 3019 2420 3045 
Q 2306 3072 2169 3072 
Q 1681 3072 1420 2755 
Q 1159 2438 1159 1844 
L 1159 0 
L 581 0 
L 581 3500 
L 1159 3500 
L 1159 2956 
Q 1341 3275 1631 3429 
Q 1922 3584 2338 3584 
Q 2397 3584 2469 3576 
Q 2541 3569 2628 3553 
L 2631 2963 
z
" transform="scale(0.015625)"/>
        <path id="DejaVuSans-73" d="M 2834 3397 
L 2834 2853 
Q 2591 2978 2328 3040 
Q 2066 3103 1784 3103 
Q 1356 3103 1142 2972 
Q 928 2841 928 2578 
Q 928 2378 1081 2264 
Q 1234 2150 1697 2047 
L 1894 2003 
Q 2506 1872 2764 1633 
Q 3022 1394 3022 966 
Q 3022 478 2636 193 
Q 2250 -91 1575 -91 
Q 1294 -91 989 -36 
Q 684 19 347 128 
L 347 722 
Q 666 556 975 473 
Q 1284 391 1588 391 
Q 1994 391 2212 530 
Q 2431 669 2431 922 
Q 2431 1156 2273 1281 
Q 2116 1406 1581 1522 
L 1381 1569 
Q 847 1681 609 1914 
Q 372 2147 372 2553 
Q 372 3047 722 3315 
Q 1072 3584 1716 3584 
Q 2034 3584 2315 3537 
Q 2597 3491 2834 3397 
z
" transform="scale(0.015625)"/>
       </defs>
       <use xlink:href="#DejaVuSans-53"/>
       <use xlink:href="#DejaVuSans-70" transform="translate(63.476562 0)"/>
       <use xlink:href="#DejaVuSans-75" transform="translate(126.953125 0)"/>
       <use xlink:href="#DejaVuSans-72" transform="translate(190.332031 0)"/>
       <use xlink:href="#DejaVuSans-69" transform="translate(231.445312 0)"/>
       <use xlink:href="#DejaVuSans-6f" transform="translate(259.228516 0)"/>
       <use xlink:href="#DejaVuSans-75" transform="translate(320.410156 0)"/>
       <use xlink:href="#DejaVuSans-73" transform="translate(383.789062 0)"/>
      </g>
     </g>
    </g>
    <g id="xtick_4">
     <g id="line2d_4">
      <g>
       <use xlink:href="#m3ac04bd3db" x="578.25" y="320.4" style="stroke: #000000; stroke-width: 0.8"/>
      </g>
     </g>
     <g id="text_4">
      <!-- Non-specific -->
      <g transform="translate(547.585156 334.998438) scale(0.1 -0.1)">
       <defs>
        <path id="DejaVuSans-6e" d="M 3513 2113 
L 3513 0 
L 2938 0 
L 2938 2094 
Q 2938 2591 2744 2837 
Q 2550 3084 2163 3084 
Q 1697 3084 1428 2787 
Q 1159 2491 1159 1978 
L 1159 0 
L 581 0 
L 581 3500 
L 1159 3500 
L 1159 2956 
Q 1366 3272 1645 3428 
Q 1925 3584 2291 3584 
Q 2894 3584 3203 3211 
Q 3513 2838 3513 2113 
z
" transform="scale(0.015625)"/>
        <path id="DejaVuSans-2d" d="M 313 2009 
L 1997 2009 
L 1997 1497 
L 313 1497 
L 313 2009 
z
" transform="scale(0.015625)"/>
       </defs>
       <use xlink:href="#DejaVuSans-4e"/>
       <use xlink:href="#DejaVuSans-6f" transform="translate(74.804688 0)"/>
       <use xlink:href="#DejaVuSans-6e" transform="translate(135.986328 0)"/>
       <use xlink:href="#DejaVuSans-2d" transform="translate(199.365234 0)"/>
       <use xlink:href="#DejaVuSans-73" transform="translate(235.449219 0)"/>
       <use xlink:href="#DejaVuSans-70" transform="translate(287.548828 0)"/>
       <use xlink:href="#DejaVuSans-65" transform="translate(351.025391 0)"/>
       <use xlink:href="#DejaVuSans-63" transform="translate(412.548828 0)"/>
       <use xlink:href="#DejaVuSans-69" transform="translate(467.529297 0)"/>
       <use xlink:href="#DejaVuSans-66" transform="translate(495.3125 0)"/>
       <use xlink:href="#DejaVuSans-69" transform="translate(530.517578 0)"/>
       <use xlink:href="#DejaVuSans-63" transform="translate(558.300781 0)"/>
      </g>
     </g>
    </g>
    <g id="text_5">
     <!-- Connectivity category -->
     <g transform="translate(313.98125 348.676562) scale(0.1 -0.1)">
      <defs>
       <path id="DejaVuSans-43" d="M 4122 4306 
L 4122 3641 
Q 3803 3938 3442 4084 
Q 3081 4231 2675 4231 
Q 1875 4231 1450 3742 
Q 1025 3253 1025 2328 
Q 1025 1406 1450 917 
Q 1875 428 2675 428 
Q 3081 428 3442 575 
Q 3803 722 4122 1019 
L 4122 359 
Q 3791 134 3420 21 
Q 3050 -91 2638 -91 
Q 1578 -91 968 557 
Q 359 1206 359 2328 
Q 359 3453 968 4101 
Q 1578 4750 2638 4750 
Q 3056 4750 3426 4639 
Q 3797 4528 4122 4306 
z
" transform="scale(0.015625)"/>
       <path id="DejaVuSans-74" d="M 1172 4494 
L 1172 3500 
L 2356 3500 
L 2356 3053 
L 1172 3053 
L 1172 1153 
Q 1172 725 1289 603 
Q 1406 481 1766 481 
L 2356 481 
L 2356 0 
L 1766 0 
Q 1100 0 847 248 
Q 594 497 594 1153 
L 594 3053 
L 172 3053 
L 172 3500 
L 594 3500 
L 594 4494 
L 1172 4494 
z
" transform="scale(0.015625)"/>
       <path id="DejaVuSans-76" d="M 191 3500 
L 800 3500 
L 1894 563 
L 2988 3500 
L 3597 3500 
L 2284 0 
L 1503 0 
L 191 3500 
z
" transform="scale(0.015625)"/>
       <path id="DejaVuSans-79" d="M 2059 -325 
Q 1816 -950 1584 -1140 
Q 1353 -1331 966 -1331 
L 506 -1331 
L 506 -850 
L 844 -850 
Q 1081 -850 1212 -737 
Q 1344 -625 1503 -206 
L 1606 56 
L 191 3500 
L 800 3500 
L 1894 763 
L 2988 3500 
L 3597 3500 
L 2059 -325 
z
" transform="scale(0.015625)"/>
       <path id="DejaVuSans-20" transform="scale(0.015625)"/>
       <path id="DejaVuSans-61" d="M 2194 1759 
Q 1497 1759 1228 1600 
Q 959 1441 959 1056 
Q 959 750 1161 570 
Q 1363 391 1709 391 
Q 2188 391 2477 730 
Q 2766 1069 2766 1631 
L 2766 1759 
L 2194 1759 
z
M 3341 1997 
L 3341 0 
L 2766 0 
L 2766 531 
Q 2569 213 2275 61 
Q 1981 -91 1556 -91 
Q 1019 -91 701 211 
Q 384 513 384 1019 
Q 384 1609 779 1909 
Q 1175 2209 1959 2209 
L 2766 2209 
L 2766 2266 
Q 2766 2663 2505 2880 
Q 2244 3097 1772 3097 
Q 1472 3097 1187 3025 
Q 903 2953 641 2809 
L 641 3341 
Q 956 3463 1253 3523 
Q 1550 3584 1831 3584 
Q 2591 3584 2966 3190 
Q 3341 2797 3341 1997 
z
" transform="scale(0.015625)"/>
       <path id="DejaVuSans-67" d="M 2906 1791 
Q 2906 2416 2648 2759 
Q 2391 3103 1925 3103 
Q 1463 3103 1205 2759 
Q 947 2416 947 1791 
Q 947 1169 1205 825 
Q 1463 481 1925 481 
Q 2391 481 2648 825 
Q 2906 1169 2906 1791 
z
M 3481 434 
Q 3481 -459 3084 -895 
Q 2688 -1331 1869 -1331 
Q 1566 -1331 1297 -1286 
Q 1028 -1241 775 -1147 
L 775 -588 
Q 1028 -725 1275 -790 
Q 1522 -856 1778 -856 
Q 2344 -856 2625 -561 
Q 2906 -266 2906 331 
L 2906 616 
Q 2728 306 2450 153 
Q 2172 0 1784 0 
Q 1141 0 747 490 
Q 353 981 353 1791 
Q 353 2603 747 3093 
Q 1141 3584 1784 3584 
Q 2172 3584 2450 3431 
Q 2728 3278 2906 2969 
L 2906 3500 
L 3481 3500 
L 3481 434 
z
" transform="scale(0.015625)"/>
      </defs>
      <use xlink:href="#DejaVuSans-43"/>
      <use xlink:href="#DejaVuSans-6f" transform="translate(69.824219 0)"/>
      <use xlink:href="#DejaVuSans-6e" transform="translate(131.005859 0)"/>
      <use xlink:href="#DejaVuSans-6e" transform="translate(194.384766 0)"/>
      <use xlink:href="#DejaVuSans-65" transform="translate(257.763672 0)"/>
      <use xlink:href="#DejaVuSans-63" transform="translate(319.287109 0)"/>
      <use xlink:href="#DejaVuSans-74" transform="translate(374.267578 0)"/>
      <use xlink:href="#DejaVuSans-69" transform="translate(413.476562 0)"/>
      <use xlink:href="#DejaVuSans-76" transform="translate(441.259766 0)"/>
      <use xlink:href="#DejaVuSans-69" transform="translate(500.439453 0)"/>
      <use xlink:href="#DejaVuSans-74" transform="translate(528.222656 0)"/>
      <use xlink:href="#DejaVuSans-79" transform="translate(567.431641 0)"/>
      <use xlink:href="#DejaVuSans-20" transform="translate(626.611328 0)"/>
      <use xlink:href="#DejaVuSans-63" transform="translate(658.398438 0)"/>
      <use xlink:href="#DejaVuSans-61" transform="translate(713.378906 0)"/>
      <use xlink:href="#DejaVuSans-74" transform="translate(774.658203 0)"/>
      <use xlink:href="#DejaVuSans-65" transform="translate(813.867188 0)"/>
      <use xlink:href="#DejaVuSans-67" transform="translate(875.390625 0)"/>
      <use xlink:href="#DejaVuSans-6f" transform="translate(938.867188 0)"/>
      <use xlink:href="#DejaVuSans-72" transform="translate(1000.048828 0)"/>
      <use xlink:href="#DejaVuSans-79" transform="translate(1041.162109 0)"/>
     </g>
    </g>
   </g>
   <g id="matplotlib.axis_2">
    <g id="ytick_1">
     <g id="line2d_5">
      <defs>
       <path id="m9e9d03002f" d="M 0 0 
L -3.5 0 
" style="stroke: #000000; stroke-width: 0.8"/>
      </defs>
      <g>
       <use xlink:href="#m9e9d03002f" x="90" y="297.293203" style="stroke: #000000; stroke-width: 0.8"/>
      </g>
     </g>
     <g id="text_6">
      <!-- −10 -->
      <g transform="translate(61.895313 301.092422) scale(0.1 -0.1)">
       <defs>
        <path id="DejaVuSans-2212" d="M 678 2272 
L 4684 2272 
L 4684 1741 
L 678 1741 
L 678 2272 
z
" transform="scale(0.015625)"/>
        <path id="DejaVuSans-31" d="M 794 531 
L 1825 531 
L 1825 4091 
L 703 3866 
L 703 4441 
L 1819 4666 
L 2450 4666 
L 2450 531 
L 3481 531 
L 3481 0 
L 794 0 
L 794 531 
z
" transform="scale(0.015625)"/>
        <path id="DejaVuSans-30" d="M 2034 4250 
Q 1547 4250 1301 3770 
Q 1056 3291 1056 2328 
Q 1056 1369 1301 889 
Q 1547 409 2034 409 
Q 2525 409 2770 889 
Q 3016 1369 3016 2328 
Q 3016 3291 2770 3770 
Q 2525 4250 2034 4250 
z
M 2034 4750 
Q 2819 4750 3233 4129 
Q 3647 3509 3647 2328 
Q 3647 1150 3233 529 
Q 2819 -91 2034 -91 
Q 1250 -91 836 529 
Q 422 1150 422 2328 
Q 422 3509 836 4129 
Q 1250 4750 2034 4750 
z
" transform="scale(0.015625)"/>
       </defs>
       <use xlink:href="#DejaVuSans-2212"/>
       <use xlink:href="#DejaVuSans-31" transform="translate(83.789062 0)"/>
       <use xlink:href="#DejaVuSans-30" transform="translate(147.412109 0)"/>
      </g>
     </g>
    </g>
    <g id="ytick_2">
     <g id="line2d_6">
      <g>
       <use xlink:href="#m9e9d03002f" x="90" y="264.733205" style="stroke: #000000; stroke-width: 0.8"/>
      </g>
     </g>
     <g id="text_7">
      <!-- 0 -->
      <g transform="translate(76.6375 268.532424) scale(0.1 -0.1)">
       <use xlink:href="#DejaVuSans-30"/>
      </g>
     </g>
    </g>
    <g id="ytick_3">
     <g id="line2d_7">
      <g>
       <use xlink:href="#m9e9d03002f" x="90" y="232.173208" style="stroke: #000000; stroke-width: 0.8"/>
      </g>
     </g>
     <g id="text_8">
      <!-- 10 -->
      <g transform="translate(70.275 235.972426) scale(0.1 -0.1)">
       <use xlink:href="#DejaVuSans-31"/>
       <use xlink:href="#DejaVuSans-30" transform="translate(63.623047 0)"/>
      </g>
     </g>
    </g>
    <g id="ytick_4">
     <g id="line2d_8">
      <g>
       <use xlink:href="#m9e9d03002f" x="90" y="199.61321" style="stroke: #000000; stroke-width: 0.8"/>
      </g>
     </g>
     <g id="text_9">
      <!-- 20 -->
      <g transform="translate(70.275 203.412429) scale(0.1 -0.1)">
       <defs>
        <path id="DejaVuSans-32" d="M 1228 531 
L 3431 531 
L 3431 0 
L 469 0 
L 469 531 
Q 828 903 1448 1529 
Q 2069 2156 2228 2338 
Q 2531 2678 2651 2914 
Q 2772 3150 2772 3378 
Q 2772 3750 2511 3984 
Q 2250 4219 1831 4219 
Q 1534 4219 1204 4116 
Q 875 4013 500 3803 
L 500 4441 
Q 881 4594 1212 4672 
Q 1544 4750 1819 4750 
Q 2544 4750 2975 4387 
Q 3406 4025 3406 3419 
Q 3406 3131 3298 2873 
Q 3191 2616 2906 2266 
Q 2828 2175 2409 1742 
Q 1991 1309 1228 531 
z
" transform="scale(0.015625)"/>
       </defs>
       <use xlink:href="#DejaVuSans-32"/>
       <use xlink:href="#DejaVuSans-30" transform="translate(63.623047 0)"/>
      </g>
     </g>
    </g>
    <g id="ytick_5">
     <g id="line2d_9">
      <g>
       <use xlink:href="#m9e9d03002f" x="90" y="167.053212" style="stroke: #000000; stroke-width: 0.8"/>
      </g>
     </g>
     <g id="text_10">
      <!-- 30 -->
      <g transform="translate(70.275 170.852431) scale(0.1 -0.1)">
       <defs>
        <path id="DejaVuSans-33" d="M 2597 2516 
Q 3050 2419 3304 2112 
Q 3559 1806 3559 1356 
Q 3559 666 3084 287 
Q 2609 -91 1734 -91 
Q 1441 -91 1130 -33 
Q 819 25 488 141 
L 488 750 
Q 750 597 1062 519 
Q 1375 441 1716 441 
Q 2309 441 2620 675 
Q 2931 909 2931 1356 
Q 2931 1769 2642 2001 
Q 2353 2234 1838 2234 
L 1294 2234 
L 1294 2753 
L 1863 2753 
Q 2328 2753 2575 2939 
Q 2822 3125 2822 3475 
Q 2822 3834 2567 4026 
Q 2313 4219 1838 4219 
Q 1578 4219 1281 4162 
Q 984 4106 628 3988 
L 628 4550 
Q 988 4650 1302 4700 
Q 1616 4750 1894 4750 
Q 2613 4750 3031 4423 
Q 3450 4097 3450 3541 
Q 3450 3153 3228 2886 
Q 3006 2619 2597 2516 
z
" transform="scale(0.015625)"/>
       </defs>
       <use xlink:href="#DejaVuSans-33"/>
       <use xlink:href="#DejaVuSans-30" transform="translate(63.623047 0)"/>
      </g>
     </g>
    </g>
    <g id="ytick_6">
     <g id="line2d_10">
      <g>
       <use xlink:href="#m9e9d03002f" x="90" y="134.493215" style="stroke: #000000; stroke-width: 0.8"/>
      </g>
     </g>
     <g id="text_11">
      <!-- 40 -->
      <g transform="translate(70.275 138.292434) scale(0.1 -0.1)">
       <defs>
        <path id="DejaVuSans-34" d="M 2419 4116 
L 825 1625 
L 2419 1625 
L 2419 4116 
z
M 2253 4666 
L 3047 4666 
L 3047 1625 
L 3713 1625 
L 3713 1100 
L 3047 1100 
L 3047 0 
L 2419 0 
L 2419 1100 
L 313 1100 
L 313 1709 
L 2253 4666 
z
" transform="scale(0.015625)"/>
       </defs>
       <use xlink:href="#DejaVuSans-34"/>
       <use xlink:href="#DejaVuSans-30" transform="translate(63.623047 0)"/>
      </g>
     </g>
    </g>
    <g id="ytick_7">
     <g id="line2d_11">
      <g>
       <use xlink:href="#m9e9d03002f" x="90" y="101.933217" style="stroke: #000000; stroke-width: 0.8"/>
      </g>
     </g>
     <g id="text_12">
      <!-- 50 -->
      <g transform="translate(70.275 105.732436) scale(0.1 -0.1)">
       <defs>
        <path id="DejaVuSans-35" d="M 691 4666 
L 3169 4666 
L 3169 4134 
L 1269 4134 
L 1269 2991 
Q 1406 3038 1543 3061 
Q 1681 3084 1819 3084 
Q 2600 3084 3056 2656 
Q 3513 2228 3513 1497 
Q 3513 744 3044 326 
Q 2575 -91 1722 -91 
Q 1428 -91 1123 -41 
Q 819 9 494 109 
L 494 744 
Q 775 591 1075 516 
Q 1375 441 1709 441 
Q 2250 441 2565 725 
Q 2881 1009 2881 1497 
Q 2881 1984 2565 2268 
Q 2250 2553 1709 2553 
Q 1456 2553 1204 2497 
Q 953 2441 691 2322 
L 691 4666 
z
" transform="scale(0.015625)"/>
       </defs>
       <use xlink:href="#DejaVuSans-35"/>
       <use xlink:href="#DejaVuSans-30" transform="translate(63.623047 0)"/>
      </g>
     </g>
    </g>
    <g id="ytick_8">
     <g id="line2d_12">
      <g>
       <use xlink:href="#m9e9d03002f" x="90" y="69.373219" style="stroke: #000000; stroke-width: 0.8"/>
      </g>
     </g>
     <g id="text_13">
      <!-- 60 -->
      <g transform="translate(70.275 73.172438) scale(0.1 -0.1)">
       <defs>
        <path id="DejaVuSans-36" d="M 2113 2584 
Q 1688 2584 1439 2293 
Q 1191 2003 1191 1497 
Q 1191 994 1439 701 
Q 1688 409 2113 409 
Q 2538 409 2786 701 
Q 3034 994 3034 1497 
Q 3034 2003 2786 2293 
Q 2538 2584 2113 2584 
z
M 3366 4563 
L 3366 3988 
Q 3128 4100 2886 4159 
Q 2644 4219 2406 4219 
Q 1781 4219 1451 3797 
Q 1122 3375 1075 2522 
Q 1259 2794 1537 2939 
Q 1816 3084 2150 3084 
Q 2853 3084 3261 2657 
Q 3669 2231 3669 1497 
Q 3669 778 3244 343 
Q 2819 -91 2113 -91 
Q 1303 -91 875 529 
Q 447 1150 447 2328 
Q 447 3434 972 4092 
Q 1497 4750 2381 4750 
Q 2619 4750 2861 4703 
Q 3103 4656 3366 4563 
z
" transform="scale(0.015625)"/>
       </defs>
       <use xlink:href="#DejaVuSans-36"/>
       <use xlink:href="#DejaVuSans-30" transform="translate(63.623047 0)"/>
      </g>
     </g>
    </g>
    <g id="text_14">
     <!-- cont_variable -->
     <g transform="translate(55.5375 215.409375) rotate(-90) scale(0.1 -0.1)">
      <defs>
       <path id="DejaVuSans-5f" d="M 3263 -1063 
L 3263 -1509 
L -63 -1509 
L -63 -1063 
L 3263 -1063 
z
" transform="scale(0.015625)"/>
       <path id="DejaVuSans-62" d="M 3116 1747 
Q 3116 2381 2855 2742 
Q 2594 3103 2138 3103 
Q 1681 3103 1420 2742 
Q 1159 2381 1159 1747 
Q 1159 1113 1420 752 
Q 1681 391 2138 391 
Q 2594 391 2855 752 
Q 3116 1113 3116 1747 
z
M 1159 2969 
Q 1341 3281 1617 3432 
Q 1894 3584 2278 3584 
Q 2916 3584 3314 3078 
Q 3713 2572 3713 1747 
Q 3713 922 3314 415 
Q 2916 -91 2278 -91 
Q 1894 -91 1617 61 
Q 1341 213 1159 525 
L 1159 0 
L 581 0 
L 581 4863 
L 1159 4863 
L 1159 2969 
z
" transform="scale(0.015625)"/>
       <path id="DejaVuSans-6c" d="M 603 4863 
L 1178 4863 
L 1178 0 
L 603 0 
L 603 4863 
z
" transform="scale(0.015625)"/>
      </defs>
      <use xlink:href="#DejaVuSans-63"/>
      <use xlink:href="#DejaVuSans-6f" transform="translate(54.980469 0)"/>
      <use xlink:href="#DejaVuSans-6e" transform="translate(116.162109 0)"/>
      <use xlink:href="#DejaVuSans-74" transform="translate(179.541016 0)"/>
      <use xlink:href="#DejaVuSans-5f" transform="translate(218.75 0)"/>
      <use xlink:href="#DejaVuSans-76" transform="translate(268.75 0)"/>
      <use xlink:href="#DejaVuSans-61" transform="translate(327.929688 0)"/>
      <use xlink:href="#DejaVuSans-72" transform="translate(389.208984 0)"/>
      <use xlink:href="#DejaVuSans-69" transform="translate(430.322266 0)"/>
      <use xlink:href="#DejaVuSans-61" transform="translate(458.105469 0)"/>
      <use xlink:href="#DejaVuSans-62" transform="translate(519.384766 0)"/>
      <use xlink:href="#DejaVuSans-6c" transform="translate(582.861328 0)"/>
      <use xlink:href="#DejaVuSans-65" transform="translate(610.644531 0)"/>
     </g>
    </g>
   </g>
   <g id="patch_3">
    <path d="M 90 320.4 
L 90 43.2 
" style="fill: none; stroke: #000000; stroke-width: 0.8; stroke-linejoin: miter; stroke-linecap: square"/>
   </g>
   <g id="patch_4">
    <path d="M 648 320.4 
L 648 43.2 
" style="fill: none; stroke: #000000; stroke-width: 0.8; stroke-linejoin: miter; stroke-linecap: square"/>
   </g>
   <g id="patch_5">
    <path d="M 90 320.4 
L 648 320.4 
" style="fill: none; stroke: #000000; stroke-width: 0.8; stroke-linejoin: miter; stroke-linecap: square"/>
   </g>
   <g id="patch_6">
    <path d="M 90 43.2 
L 648 43.2 
" style="fill: none; stroke: #000000; stroke-width: 0.8; stroke-linejoin: miter; stroke-linecap: square"/>
   </g>
   <g id="PathCollection_1">
    <defs>
     <path id="m82bea27462" d="M 0 2.5 
C 0.663008 2.5 1.29895 2.236584 1.767767 1.767767 
C 2.236584 1.29895 2.5 0.663008 2.5 0 
C 2.5 -0.663008 2.236584 -1.29895 1.767767 -1.767767 
C 1.29895 -2.236584 0.663008 -2.5 0 -2.5 
C -0.663008 -2.5 -1.29895 -2.236584 -1.767767 -1.767767 
C -2.236584 -1.29895 -2.5 -0.663008 -2.5 0 
C -2.5 0.663008 -2.236584 1.29895 -1.767767 1.767767 
C -1.29895 2.236584 -0.663008 2.5 0 2.5 
z
"/>
    </defs>
    <g clip-path="url(#pb982896a0a)">
     <use xlink:href="#m82bea27462" x="170.984482" y="212.88123" style="fill-opacity: 0.3"/>
     <use xlink:href="#m82bea27462" x="168.472658" y="216.041012" style="fill-opacity: 0.3"/>
     <use xlink:href="#m82bea27462" x="152.229389" y="182.812824" style="fill-opacity: 0.3"/>
     <use xlink:href="#m82bea27462" x="169.953858" y="203.040192" style="fill-opacity: 0.3"/>
     <use xlink:href="#m82bea27462" x="159.52565" y="176.640406" style="fill-opacity: 0.3"/>
     <use xlink:href="#m82bea27462" x="157.427962" y="140.071156" style="fill-opacity: 0.3"/>
     <use xlink:href="#m82bea27462" x="163.800724" y="158.597186" style="fill-opacity: 0.3"/>
     <use xlink:href="#m82bea27462" x="161.375973" y="246.206498" style="fill-opacity: 0.3"/>
     <use xlink:href="#m82bea27462" x="171.34669" y="204.344894" style="fill-opacity: 0.3"/>
     <use xlink:href="#m82bea27462" x="152.061384" y="244.029209" style="fill-opacity: 0.3"/>
     <use xlink:href="#m82bea27462" x="164.056325" y="228.909234" style="fill-opacity: 0.3"/>
     <use xlink:href="#m82bea27462" x="170.428122" y="228.16096" style="fill-opacity: 0.3"/>
     <use xlink:href="#m82bea27462" x="153.533609" y="228.267346" style="fill-opacity: 0.3"/>
     <use xlink:href="#m82bea27462" x="166.371963" y="225.361946" style="fill-opacity: 0.3"/>
     <use xlink:href="#m82bea27462" x="164.739597" y="225.687474" style="fill-opacity: 0.3"/>
     <use xlink:href="#m82bea27462" x="170.601594" y="154.717955" style="fill-opacity: 0.3"/>
     <use xlink:href="#m82bea27462" x="149.952485" y="213.201161" style="fill-opacity: 0.3"/>
     <use xlink:href="#m82bea27462" x="167.40126" y="183.988133" style="fill-opacity: 0.3"/>
     <use xlink:href="#m82bea27462" x="173.39956" y="193.778751" style="fill-opacity: 0.3"/>
     <use xlink:href="#m82bea27462" x="173.212811" y="197.086248" style="fill-opacity: 0.3"/>
     <use xlink:href="#m82bea27462" x="170.542084" y="200.952618" style="fill-opacity: 0.3"/>
     <use xlink:href="#m82bea27462" x="152.029149" y="229.856616" style="fill-opacity: 0.3"/>
     <use xlink:href="#m82bea27462" x="161.75542" y="113.918054" style="fill-opacity: 0.3"/>
     <use xlink:href="#m82bea27462" x="152.030868" y="100.455817" style="fill-opacity: 0.3"/>
     <use xlink:href="#m82bea27462" x="156.974064" y="132.148071" style="fill-opacity: 0.3"/>
     <use xlink:href="#m82bea27462" x="162.503136" y="162.721974" style="fill-opacity: 0.3"/>
     <use xlink:href="#m82bea27462" x="160.000159" y="133.046379" style="fill-opacity: 0.3"/>
     <use xlink:href="#m82bea27462" x="152.200374" y="138.166601" style="fill-opacity: 0.3"/>
     <use xlink:href="#m82bea27462" x="148.176461" y="137.026816" style="fill-opacity: 0.3"/>
     <use xlink:href="#m82bea27462" x="169.125324" y="172.701685" style="fill-opacity: 0.3"/>
     <use xlink:href="#m82bea27462" x="164.045644" y="167.044506" style="fill-opacity: 0.3"/>
     <use xlink:href="#m82bea27462" x="155.357143" y="181.940819" style="fill-opacity: 0.3"/>
     <use xlink:href="#m82bea27462" x="149.651223" y="152.236004" style="fill-opacity: 0.3"/>
     <use xlink:href="#m82bea27462" x="149.121278" y="153.85378" style="fill-opacity: 0.3"/>
     <use xlink:href="#m82bea27462" x="157.744551" y="152.351905" style="fill-opacity: 0.3"/>
    </g>
   </g>
   <g id="PathCollection_2">
    <g clip-path="url(#pb982896a0a)">
     <use xlink:href="#m82bea27462" x="308.482326" y="222.032807" style="fill-opacity: 0.3"/>
     <use xlink:href="#m82bea27462" x="304.819956" y="168.296607" style="fill-opacity: 0.3"/>
     <use xlink:href="#m82bea27462" x="308.022687" y="134.438563" style="fill-opacity: 0.3"/>
     <use xlink:href="#m82bea27462" x="298.958626" y="214.048418" style="fill-opacity: 0.3"/>
     <use xlink:href="#m82bea27462" x="307.6476" y="184.07317" style="fill-opacity: 0.3"/>
     <use xlink:href="#m82bea27462" x="296.103169" y="172.788747" style="fill-opacity: 0.3"/>
     <use xlink:href="#m82bea27462" x="304.689208" y="161.794333" style="fill-opacity: 0.3"/>
     <use xlink:href="#m82bea27462" x="307.094452" y="172.20466" style="fill-opacity: 0.3"/>
     <use xlink:href="#m82bea27462" x="306.618541" y="184.343841" style="fill-opacity: 0.3"/>
     <use xlink:href="#m82bea27462" x="302.057365" y="240.343429" style="fill-opacity: 0.3"/>
     <use xlink:href="#m82bea27462" x="297.354023" y="181.425195" style="fill-opacity: 0.3"/>
     <use xlink:href="#m82bea27462" x="297.91396" y="175.319102" style="fill-opacity: 0.3"/>
     <use xlink:href="#m82bea27462" x="308.109051" y="184.797942" style="fill-opacity: 0.3"/>
     <use xlink:href="#m82bea27462" x="300.847951" y="204.437944" style="fill-opacity: 0.3"/>
     <use xlink:href="#m82bea27462" x="308.456621" y="171.504757" style="fill-opacity: 0.3"/>
     <use xlink:href="#m82bea27462" x="308.426839" y="170.584806" style="fill-opacity: 0.3"/>
     <use xlink:href="#m82bea27462" x="307.906567" y="167.426529" style="fill-opacity: 0.3"/>
     <use xlink:href="#m82bea27462" x="289.05241" y="184.263431" style="fill-opacity: 0.3"/>
     <use xlink:href="#m82bea27462" x="310.393201" y="213.763671" style="fill-opacity: 0.3"/>
     <use xlink:href="#m82bea27462" x="296.342152" y="213.565998" style="fill-opacity: 0.3"/>
     <use xlink:href="#m82bea27462" x="311.289996" y="223.712124" style="fill-opacity: 0.3"/>
     <use xlink:href="#m82bea27462" x="296.853691" y="212.246027" style="fill-opacity: 0.3"/>
     <use xlink:href="#m82bea27462" x="303.298001" y="210.791692" style="fill-opacity: 0.3"/>
     <use xlink:href="#m82bea27462" x="287.266804" y="148.393664" style="fill-opacity: 0.3"/>
     <use xlink:href="#m82bea27462" x="287.535297" y="155.651711" style="fill-opacity: 0.3"/>
     <use xlink:href="#m82bea27462" x="303.155843" y="147.530518" style="fill-opacity: 0.3"/>
     <use xlink:href="#m82bea27462" x="288.204185" y="134.835778" style="fill-opacity: 0.3"/>
     <use xlink:href="#m82bea27462" x="294.741909" y="128.528754" style="fill-opacity: 0.3"/>
     <use xlink:href="#m82bea27462" x="287.119973" y="141.822145" style="fill-opacity: 0.3"/>
     <use xlink:href="#m82bea27462" x="285.707925" y="156.527887" style="fill-opacity: 0.3"/>
     <use xlink:href="#m82bea27462" x="312.230587" y="142.342291" style="fill-opacity: 0.3"/>
     <use xlink:href="#m82bea27462" x="297.247754" y="142.12899" style="fill-opacity: 0.3"/>
     <use xlink:href="#m82bea27462" x="301.691881" y="128.214823" style="fill-opacity: 0.3"/>
     <use xlink:href="#m82bea27462" x="306.198391" y="134.297399" style="fill-opacity: 0.3"/>
     <use xlink:href="#m82bea27462" x="297.892135" y="211.302503" style="fill-opacity: 0.3"/>
     <use xlink:href="#m82bea27462" x="286.729263" y="105.274026" style="fill-opacity: 0.3"/>
     <use xlink:href="#m82bea27462" x="298.205729" y="167.422882" style="fill-opacity: 0.3"/>
     <use xlink:href="#m82bea27462" x="306.163551" y="175.817846" style="fill-opacity: 0.3"/>
     <use xlink:href="#m82bea27462" x="295.199366" y="181.95199" style="fill-opacity: 0.3"/>
     <use xlink:href="#m82bea27462" x="294.087906" y="163.128616" style="fill-opacity: 0.3"/>
     <use xlink:href="#m82bea27462" x="296.973706" y="161.478094" style="fill-opacity: 0.3"/>
     <use xlink:href="#m82bea27462" x="309.449488" y="118.669303" style="fill-opacity: 0.3"/>
     <use xlink:href="#m82bea27462" x="300.005365" y="160.749428" style="fill-opacity: 0.3"/>
     <use xlink:href="#m82bea27462" x="294.363684" y="146.294661" style="fill-opacity: 0.3"/>
     <use xlink:href="#m82bea27462" x="295.508849" y="156.217001" style="fill-opacity: 0.3"/>
     <use xlink:href="#m82bea27462" x="312.195017" y="148.196699" style="fill-opacity: 0.3"/>
     <use xlink:href="#m82bea27462" x="288.153944" y="148.901209" style="fill-opacity: 0.3"/>
     <use xlink:href="#m82bea27462" x="301.873168" y="147.320135" style="fill-opacity: 0.3"/>
     <use xlink:href="#m82bea27462" x="306.237454" y="212.835916" style="fill-opacity: 0.3"/>
     <use xlink:href="#m82bea27462" x="311.251059" y="213.304718" style="fill-opacity: 0.3"/>
     <use xlink:href="#m82bea27462" x="293.389324" y="206.666197" style="fill-opacity: 0.3"/>
     <use xlink:href="#m82bea27462" x="306.658245" y="226.287744" style="fill-opacity: 0.3"/>
     <use xlink:href="#m82bea27462" x="304.155168" y="167.202396" style="fill-opacity: 0.3"/>
     <use xlink:href="#m82bea27462" x="298.2373" y="223.309289" style="fill-opacity: 0.3"/>
     <use xlink:href="#m82bea27462" x="299.236625" y="193.639434" style="fill-opacity: 0.3"/>
     <use xlink:href="#m82bea27462" x="305.066445" y="190.64872" style="fill-opacity: 0.3"/>
     <use xlink:href="#m82bea27462" x="296.685914" y="194.637912" style="fill-opacity: 0.3"/>
     <use xlink:href="#m82bea27462" x="306.014004" y="186.141283" style="fill-opacity: 0.3"/>
     <use xlink:href="#m82bea27462" x="299.743849" y="183.993561" style="fill-opacity: 0.3"/>
     <use xlink:href="#m82bea27462" x="287.234937" y="200.462534" style="fill-opacity: 0.3"/>
     <use xlink:href="#m82bea27462" x="290.61345" y="203.546764" style="fill-opacity: 0.3"/>
     <use xlink:href="#m82bea27462" x="298.660004" y="185.715789" style="fill-opacity: 0.3"/>
     <use xlink:href="#m82bea27462" x="308.801252" y="195.994726" style="fill-opacity: 0.3"/>
     <use xlink:href="#m82bea27462" x="302.198514" y="187.894759" style="fill-opacity: 0.3"/>
     <use xlink:href="#m82bea27462" x="296.961041" y="124.674161" style="fill-opacity: 0.3"/>
     <use xlink:href="#m82bea27462" x="291.346912" y="139.891727" style="fill-opacity: 0.3"/>
     <use xlink:href="#m82bea27462" x="304.19263" y="168.691703" style="fill-opacity: 0.3"/>
     <use xlink:href="#m82bea27462" x="303.186686" y="138.240187" style="fill-opacity: 0.3"/>
     <use xlink:href="#m82bea27462" x="293.876952" y="123.166308" style="fill-opacity: 0.3"/>
     <use xlink:href="#m82bea27462" x="287.679729" y="239.910752" style="fill-opacity: 0.3"/>
     <use xlink:href="#m82bea27462" x="302.065292" y="135.821598" style="fill-opacity: 0.3"/>
     <use xlink:href="#m82bea27462" x="307.624592" y="144.174953" style="fill-opacity: 0.3"/>
     <use xlink:href="#m82bea27462" x="292.174376" y="143.425008" style="fill-opacity: 0.3"/>
     <use xlink:href="#m82bea27462" x="298.378152" y="145.647879" style="fill-opacity: 0.3"/>
     <use xlink:href="#m82bea27462" x="286.053593" y="132.314528" style="fill-opacity: 0.3"/>
     <use xlink:href="#m82bea27462" x="302.327128" y="171.358142" style="fill-opacity: 0.3"/>
     <use xlink:href="#m82bea27462" x="286.63485" y="170.228571" style="fill-opacity: 0.3"/>
     <use xlink:href="#m82bea27462" x="306.242021" y="172.287239" style="fill-opacity: 0.3"/>
     <use xlink:href="#m82bea27462" x="289.193078" y="151.680866" style="fill-opacity: 0.3"/>
     <use xlink:href="#m82bea27462" x="313.162183" y="166.05787" style="fill-opacity: 0.3"/>
     <use xlink:href="#m82bea27462" x="301.213836" y="179.924593" style="fill-opacity: 0.3"/>
     <use xlink:href="#m82bea27462" x="301.881433" y="189.061374" style="fill-opacity: 0.3"/>
     <use xlink:href="#m82bea27462" x="296.170746" y="133.513051" style="fill-opacity: 0.3"/>
     <use xlink:href="#m82bea27462" x="299.00138" y="191.307402" style="fill-opacity: 0.3"/>
     <use xlink:href="#m82bea27462" x="292.368094" y="181.764347" style="fill-opacity: 0.3"/>
     <use xlink:href="#m82bea27462" x="306.786846" y="163.954403" style="fill-opacity: 0.3"/>
    </g>
   </g>
   <g id="PathCollection_3">
    <g clip-path="url(#pb982896a0a)">
     <use xlink:href="#m82bea27462" x="430.968905" y="223.56353" style="fill-opacity: 0.3"/>
     <use xlink:href="#m82bea27462" x="425.744777" y="196.641762" style="fill-opacity: 0.3"/>
     <use xlink:href="#m82bea27462" x="452.495876" y="187.103675" style="fill-opacity: 0.3"/>
     <use xlink:href="#m82bea27462" x="437.951907" y="185.952969" style="fill-opacity: 0.3"/>
     <use xlink:href="#m82bea27462" x="452.647887" y="153.51877" style="fill-opacity: 0.3"/>
     <use xlink:href="#m82bea27462" x="451.622941" y="200.892346" style="fill-opacity: 0.3"/>
     <use xlink:href="#m82bea27462" x="426.896488" y="231.555014" style="fill-opacity: 0.3"/>
     <use xlink:href="#m82bea27462" x="426.238135" y="98.888877" style="fill-opacity: 0.3"/>
     <use xlink:href="#m82bea27462" x="446.090799" y="99.120473" style="fill-opacity: 0.3"/>
     <use xlink:href="#m82bea27462" x="451.532525" y="101.973285" style="fill-opacity: 0.3"/>
     <use xlink:href="#m82bea27462" x="424.91257" y="98.866795" style="fill-opacity: 0.3"/>
     <use xlink:href="#m82bea27462" x="432.939374" y="98.970108" style="fill-opacity: 0.3"/>
     <use xlink:href="#m82bea27462" x="434.567195" y="115.845788" style="fill-opacity: 0.3"/>
     <use xlink:href="#m82bea27462" x="429.163723" y="99.230718" style="fill-opacity: 0.3"/>
     <use xlink:href="#m82bea27462" x="430.708655" y="219.333518" style="fill-opacity: 0.3"/>
     <use xlink:href="#m82bea27462" x="433.024808" y="209.540926" style="fill-opacity: 0.3"/>
     <use xlink:href="#m82bea27462" x="441.286009" y="188.47574" style="fill-opacity: 0.3"/>
     <use xlink:href="#m82bea27462" x="433.020302" y="162.705476" style="fill-opacity: 0.3"/>
     <use xlink:href="#m82bea27462" x="426.034653" y="149.755453" style="fill-opacity: 0.3"/>
     <use xlink:href="#m82bea27462" x="445.956815" y="110.337604" style="fill-opacity: 0.3"/>
     <use xlink:href="#m82bea27462" x="449.041083" y="136.928035" style="fill-opacity: 0.3"/>
     <use xlink:href="#m82bea27462" x="430.497789" y="126.776495" style="fill-opacity: 0.3"/>
     <use xlink:href="#m82bea27462" x="425.848839" y="205.348725" style="fill-opacity: 0.3"/>
     <use xlink:href="#m82bea27462" x="431.354541" y="219.39202" style="fill-opacity: 0.3"/>
     <use xlink:href="#m82bea27462" x="425.510449" y="202.609469" style="fill-opacity: 0.3"/>
     <use xlink:href="#m82bea27462" x="427.095185" y="226.222888" style="fill-opacity: 0.3"/>
     <use xlink:href="#m82bea27462" x="438.424518" y="235.817349" style="fill-opacity: 0.3"/>
     <use xlink:href="#m82bea27462" x="446.790215" y="233.097915" style="fill-opacity: 0.3"/>
     <use xlink:href="#m82bea27462" x="434.80856" y="228.439344" style="fill-opacity: 0.3"/>
     <use xlink:href="#m82bea27462" x="435.537316" y="201.622152" style="fill-opacity: 0.3"/>
     <use xlink:href="#m82bea27462" x="447.521322" y="204.890684" style="fill-opacity: 0.3"/>
     <use xlink:href="#m82bea27462" x="441.535293" y="213.653449" style="fill-opacity: 0.3"/>
     <use xlink:href="#m82bea27462" x="445.095599" y="192.259717" style="fill-opacity: 0.3"/>
     <use xlink:href="#m82bea27462" x="432.976912" y="264.733205" style="fill-opacity: 0.3"/>
     <use xlink:href="#m82bea27462" x="428.772797" y="173.497624" style="fill-opacity: 0.3"/>
     <use xlink:href="#m82bea27462" x="451.794779" y="150.074489" style="fill-opacity: 0.3"/>
     <use xlink:href="#m82bea27462" x="437.535092" y="144.954397" style="fill-opacity: 0.3"/>
     <use xlink:href="#m82bea27462" x="452.092898" y="145.593651" style="fill-opacity: 0.3"/>
     <use xlink:href="#m82bea27462" x="445.693091" y="137.303029" style="fill-opacity: 0.3"/>
     <use xlink:href="#m82bea27462" x="439.300342" y="172.11961" style="fill-opacity: 0.3"/>
     <use xlink:href="#m82bea27462" x="448.550201" y="110.823106" style="fill-opacity: 0.3"/>
     <use xlink:href="#m82bea27462" x="430.125962" y="177.289783" style="fill-opacity: 0.3"/>
     <use xlink:href="#m82bea27462" x="426.731102" y="142.71031" style="fill-opacity: 0.3"/>
     <use xlink:href="#m82bea27462" x="425.025687" y="181.619504" style="fill-opacity: 0.3"/>
     <use xlink:href="#m82bea27462" x="425.846149" y="181.099905" style="fill-opacity: 0.3"/>
    </g>
   </g>
   <g id="PathCollection_4">
    <g clip-path="url(#pb982896a0a)">
     <use xlink:href="#m82bea27462" x="575.041291" y="216.12067" style="fill-opacity: 0.3"/>
     <use xlink:href="#m82bea27462" x="581.036766" y="206.16531" style="fill-opacity: 0.3"/>
     <use xlink:href="#m82bea27462" x="569.020178" y="176.299574" style="fill-opacity: 0.3"/>
     <use xlink:href="#m82bea27462" x="574.690523" y="209.257983" style="fill-opacity: 0.3"/>
     <use xlink:href="#m82bea27462" x="567.602762" y="182.421977" style="fill-opacity: 0.3"/>
     <use xlink:href="#m82bea27462" x="575.894378" y="191.150554" style="fill-opacity: 0.3"/>
     <use xlink:href="#m82bea27462" x="579.756516" y="165.358836" style="fill-opacity: 0.3"/>
     <use xlink:href="#m82bea27462" x="572.841885" y="182.087886" style="fill-opacity: 0.3"/>
     <use xlink:href="#m82bea27462" x="584.211392" y="176.002165" style="fill-opacity: 0.3"/>
     <use xlink:href="#m82bea27462" x="587.199359" y="186.851472" style="fill-opacity: 0.3"/>
     <use xlink:href="#m82bea27462" x="586.689404" y="207.69397" style="fill-opacity: 0.3"/>
     <use xlink:href="#m82bea27462" x="569.2963" y="188.491353" style="fill-opacity: 0.3"/>
     <use xlink:href="#m82bea27462" x="574.68941" y="155.059369" style="fill-opacity: 0.3"/>
     <use xlink:href="#m82bea27462" x="570.453287" y="163.035211" style="fill-opacity: 0.3"/>
     <use xlink:href="#m82bea27462" x="583.609374" y="204.699511" style="fill-opacity: 0.3"/>
     <use xlink:href="#m82bea27462" x="568.826062" y="159.780155" style="fill-opacity: 0.3"/>
     <use xlink:href="#m82bea27462" x="578.542162" y="158.244626" style="fill-opacity: 0.3"/>
     <use xlink:href="#m82bea27462" x="574.252821" y="159.013931" style="fill-opacity: 0.3"/>
     <use xlink:href="#m82bea27462" x="564.524744" y="149.447944" style="fill-opacity: 0.3"/>
     <use xlink:href="#m82bea27462" x="576.760266" y="134.392897" style="fill-opacity: 0.3"/>
     <use xlink:href="#m82bea27462" x="566.088897" y="126.985172" style="fill-opacity: 0.3"/>
     <use xlink:href="#m82bea27462" x="575.620828" y="141.00707" style="fill-opacity: 0.3"/>
     <use xlink:href="#m82bea27462" x="579.169306" y="138.462213" style="fill-opacity: 0.3"/>
     <use xlink:href="#m82bea27462" x="571.76853" y="118.556301" style="fill-opacity: 0.3"/>
     <use xlink:href="#m82bea27462" x="583.246544" y="165.458153" style="fill-opacity: 0.3"/>
     <use xlink:href="#m82bea27462" x="565.680567" y="166.645411" style="fill-opacity: 0.3"/>
     <use xlink:href="#m82bea27462" x="577.75538" y="149.469837" style="fill-opacity: 0.3"/>
     <use xlink:href="#m82bea27462" x="565.158429" y="219.119403" style="fill-opacity: 0.3"/>
     <use xlink:href="#m82bea27462" x="578.267895" y="97.855592" style="fill-opacity: 0.3"/>
     <use xlink:href="#m82bea27462" x="588.054099" y="141.5453" style="fill-opacity: 0.3"/>
     <use xlink:href="#m82bea27462" x="578.094393" y="217.863567" style="fill-opacity: 0.3"/>
     <use xlink:href="#m82bea27462" x="584.161153" y="227.359422" style="fill-opacity: 0.3"/>
     <use xlink:href="#m82bea27462" x="579.406973" y="211.13184" style="fill-opacity: 0.3"/>
     <use xlink:href="#m82bea27462" x="564.471299" y="179.282165" style="fill-opacity: 0.3"/>
     <use xlink:href="#m82bea27462" x="588.841483" y="176.866311" style="fill-opacity: 0.3"/>
     <use xlink:href="#m82bea27462" x="585.872723" y="181.485106" style="fill-opacity: 0.3"/>
     <use xlink:href="#m82bea27462" x="575.664917" y="172.766173" style="fill-opacity: 0.3"/>
     <use xlink:href="#m82bea27462" x="566.023139" y="178.62922" style="fill-opacity: 0.3"/>
     <use xlink:href="#m82bea27462" x="578.261207" y="168.200799" style="fill-opacity: 0.3"/>
     <use xlink:href="#m82bea27462" x="565.455513" y="164.847198" style="fill-opacity: 0.3"/>
     <use xlink:href="#m82bea27462" x="591.5129" y="161.5323" style="fill-opacity: 0.3"/>
     <use xlink:href="#m82bea27462" x="585.979576" y="164.522389" style="fill-opacity: 0.3"/>
     <use xlink:href="#m82bea27462" x="583.489115" y="158.081738" style="fill-opacity: 0.3"/>
     <use xlink:href="#m82bea27462" x="569.616659" y="168.646409" style="fill-opacity: 0.3"/>
     <use xlink:href="#m82bea27462" x="575.123808" y="160.792488" style="fill-opacity: 0.3"/>
     <use xlink:href="#m82bea27462" x="566.230761" y="163.761641" style="fill-opacity: 0.3"/>
     <use xlink:href="#m82bea27462" x="570.896024" y="161.656253" style="fill-opacity: 0.3"/>
     <use xlink:href="#m82bea27462" x="588.12627" y="174.249714" style="fill-opacity: 0.3"/>
     <use xlink:href="#m82bea27462" x="592.181911" y="140.36528" style="fill-opacity: 0.3"/>
     <use xlink:href="#m82bea27462" x="574.180267" y="139.899714" style="fill-opacity: 0.3"/>
     <use xlink:href="#m82bea27462" x="589.334989" y="158.114712" style="fill-opacity: 0.3"/>
     <use xlink:href="#m82bea27462" x="589.173517" y="152.085046" style="fill-opacity: 0.3"/>
     <use xlink:href="#m82bea27462" x="580.297279" y="161.411144" style="fill-opacity: 0.3"/>
     <use xlink:href="#m82bea27462" x="573.167405" y="210.743207" style="fill-opacity: 0.3"/>
     <use xlink:href="#m82bea27462" x="578.049772" y="190.167024" style="fill-opacity: 0.3"/>
     <use xlink:href="#m82bea27462" x="581.958758" y="181.908021" style="fill-opacity: 0.3"/>
     <use xlink:href="#m82bea27462" x="590.872275" y="209.17712" style="fill-opacity: 0.3"/>
     <use xlink:href="#m82bea27462" x="580.294767" y="195.779085" style="fill-opacity: 0.3"/>
     <use xlink:href="#m82bea27462" x="577.232097" y="159.371908" style="fill-opacity: 0.3"/>
     <use xlink:href="#m82bea27462" x="581.823159" y="152.975767" style="fill-opacity: 0.3"/>
     <use xlink:href="#m82bea27462" x="573.08379" y="155.353865" style="fill-opacity: 0.3"/>
     <use xlink:href="#m82bea27462" x="580.647727" y="150.498619" style="fill-opacity: 0.3"/>
     <use xlink:href="#m82bea27462" x="578.041966" y="168.54586" style="fill-opacity: 0.3"/>
     <use xlink:href="#m82bea27462" x="576.057867" y="146.649164" style="fill-opacity: 0.3"/>
     <use xlink:href="#m82bea27462" x="586.378076" y="167.099044" style="fill-opacity: 0.3"/>
     <use xlink:href="#m82bea27462" x="568.05983" y="136.449224" style="fill-opacity: 0.3"/>
     <use xlink:href="#m82bea27462" x="588.668792" y="199.572289" style="fill-opacity: 0.3"/>
     <use xlink:href="#m82bea27462" x="579.660829" y="195.869527" style="fill-opacity: 0.3"/>
    </g>
   </g>
  </g>
 </g>
 <defs>
  <clipPath id="pb982896a0a">
   <rect x="90" y="43.2" width="558" height="277.2"/>
  </clipPath>
 </defs>
</svg>
