<?xml version="1.0" encoding="utf-8" standalone="no"?>
<!DOCTYPE svg PUBLIC "-//W3C//DTD SVG 1.1//EN"
  "http://www.w3.org/Graphics/SVG/1.1/DTD/svg11.dtd">
<svg xmlns:xlink="http://www.w3.org/1999/xlink" width="720pt" height="360pt" viewBox="0 0 720 360" xmlns="http://www.w3.org/2000/svg" version="1.1">
 <metadata>
  <rdf:RDF xmlns:dc="http://purl.org/dc/elements/1.1/" xmlns:cc="http://creativecommons.org/ns#" xmlns:rdf="http://www.w3.org/1999/02/22-rdf-syntax-ns#">
   <cc:Work>
    <dc:type rdf:resource="http://purl.org/dc/dcmitype/StillImage"/>
    <dc:date>2025-09-09T16:54:24.487266</dc:date>
    <dc:format>image/svg+xml</dc:format>
    <dc:creator>
     <cc:Agent>
      <dc:title>Matplotlib v3.10.3, https://matplotlib.org/</dc:title>
     </cc:Agent>
    </dc:creator>
   </cc:Work>
  </rdf:RDF>
 </metadata>
 <defs>
  <style type="text/css">*{stroke-linejoin: round; stroke-linecap: butt}</style>
 </defs>
 <g id="figure_1">
  <g id="patch_1">
   <path d="M 0 360 
L 720 360 
L 720 0 
L 0 0 
z
" style="fill: #ffffff"/>
  </g>
  <g id="axes_1">
   <g id="patch_2">
    <path d="M 90 320.4 
L 648 320.4 
L 648 43.2 
L 90 43.2 
z
" style="fill: #ffffff"/>
   </g>
   <g id="FillBetweenPolyCollection_1">
    <defs>
     <path id="mcfa8919f63" d="M 146.195146 -51.730228 
L 145.404854 -51.730228 
L 145.29013 -52.035438 
L 145.153427 -52.340647 
L 144.99419 -52.645857 
L 144.81303 -52.951066 
L 144.611957 -53.256276 
L 144.394544 -53.561485 
L 144.165975 -53.866694 
L 143.932946 -54.171904 
L 143.703418 -54.477113 
L 143.486213 -54.782323 
L 143.290475 -55.087532 
L 143.125045 -55.392742 
L 142.997807 -55.697951 
L 142.915061 -56.00316 
L 142.881013 -56.30837 
L 142.897413 -56.613579 
L 142.963409 -56.918789 
L 143.075617 -57.223998 
L 143.228401 -57.529208 
L 143.414336 -57.834417 
L 143.62479 -58.139626 
L 143.850562 -58.444836 
L 144.082502 -58.750045 
L 144.312048 -59.055255 
L 144.531628 -59.360464 
L 144.734888 -59.665674 
L 144.91673 -59.970883 
L 145.073163 -60.276092 
L 145.200975 -60.581302 
L 145.297269 -60.886511 
L 145.358882 -61.191721 
L 145.381735 -61.49693 
L 145.360164 -61.80214 
L 145.286287 -62.107349 
L 145.149452 -62.412558 
L 144.935873 -62.717768 
L 144.628499 -63.022977 
L 144.207236 -63.328187 
L 143.649587 -63.633396 
L 142.931799 -63.938606 
L 142.030523 -64.243815 
L 140.924997 -64.549025 
L 139.599635 -64.854234 
L 138.046858 -65.159443 
L 136.269898 -65.464653 
L 134.285254 -65.769862 
L 132.124426 -66.075072 
L 129.834575 -66.380281 
L 127.477807 -66.685491 
L 125.128927 -66.9907 
L 122.871638 -67.295909 
L 120.793394 -67.601119 
L 118.9793 -67.906328 
L 117.505598 -68.211538 
L 116.433415 -68.516747 
L 115.803428 -68.821957 
L 115.632026 -69.127166 
L 115.909414 -69.432375 
L 116.599817 -69.737585 
L 117.643731 -70.042794 
L 118.961908 -70.348004 
L 120.460571 -70.653213 
L 122.03728 -70.958423 
L 123.586839 -71.263632 
L 125.006765 -71.568841 
L 126.201974 -71.874051 
L 127.088566 -72.17926 
L 127.596736 -72.48447 
L 127.673028 -72.789679 
L 127.282153 -73.094889 
L 126.408592 -73.400098 
L 125.058081 -73.705307 
L 123.258922 -74.010517 
L 121.062872 -74.315726 
L 118.545241 -74.620936 
L 115.803762 -74.926145 
L 112.955833 -75.231355 
L 110.133884 -75.536564 
L 107.478859 -75.841773 
L 105.132099 -76.146983 
L 103.22622 -76.452192 
L 101.875797 -76.757402 
L 101.16884 -77.062611 
L 101.16 -77.367821 
L 101.866338 -77.67303 
L 103.266178 -77.978239 
L 105.301218 -78.283449 
L 107.881676 -78.588658 
L 110.893874 -78.893868 
L 114.209407 -79.199077 
L 117.69489 -79.504287 
L 121.221286 -79.809496 
L 124.671925 -80.114705 
L 127.948592 -80.419915 
L 130.975334 -80.725124 
L 133.699927 -81.030334 
L 136.093237 -81.335543 
L 138.14688 -81.640753 
L 139.869712 -81.945962 
L 151.730288 -81.945962 
L 151.730288 -81.945962 
L 153.45312 -81.640753 
L 155.506763 -81.335543 
L 157.900073 -81.030334 
L 160.624666 -80.725124 
L 163.651408 -80.419915 
L 166.928075 -80.114705 
L 170.378714 -79.809496 
L 173.90511 -79.504287 
L 177.390593 -79.199077 
L 180.706126 -78.893868 
L 183.718324 -78.588658 
L 186.298782 -78.283449 
L 188.333822 -77.978239 
L 189.733662 -77.67303 
L 190.44 -77.367821 
L 190.43116 -77.062611 
L 189.724203 -76.757402 
L 188.37378 -76.452192 
L 186.467901 -76.146983 
L 184.121141 -75.841773 
L 181.466116 -75.536564 
L 178.644167 -75.231355 
L 175.796238 -74.926145 
L 173.054759 -74.620936 
L 170.537128 -74.315726 
L 168.341078 -74.010517 
L 166.541919 -73.705307 
L 165.191408 -73.400098 
L 164.317847 -73.094889 
L 163.926972 -72.789679 
L 164.003264 -72.48447 
L 164.511434 -72.17926 
L 165.398026 -71.874051 
L 166.593235 -71.568841 
L 168.013161 -71.263632 
L 169.56272 -70.958423 
L 171.139429 -70.653213 
L 172.638092 -70.348004 
L 173.956269 -70.042794 
L 175.000183 -69.737585 
L 175.690586 -69.432375 
L 175.967974 -69.127166 
L 175.796572 -68.821957 
L 175.166585 -68.516747 
L 174.094402 -68.211538 
L 172.6207 -67.906328 
L 170.806606 -67.601119 
L 168.728362 -67.295909 
L 166.471073 -66.9907 
L 164.122193 -66.685491 
L 161.765425 -66.380281 
L 159.475574 -66.075072 
L 157.314746 -65.769862 
L 155.330102 -65.464653 
L 153.553142 -65.159443 
L 152.000365 -64.854234 
L 150.675003 -64.549025 
L 149.569477 -64.243815 
L 148.668201 -63.938606 
L 147.950413 -63.633396 
L 147.392764 -63.328187 
L 146.971501 -63.022977 
L 146.664127 -62.717768 
L 146.450548 -62.412558 
L 146.313713 -62.107349 
L 146.239836 -61.80214 
L 146.218265 -61.49693 
L 146.241118 -61.191721 
L 146.302731 -60.886511 
L 146.399025 -60.581302 
L 146.526837 -60.276092 
L 146.68327 -59.970883 
L 146.865112 -59.665674 
L 147.068372 -59.360464 
L 147.287952 -59.055255 
L 147.517498 -58.750045 
L 147.749438 -58.444836 
L 147.97521 -58.139626 
L 148.185664 -57.834417 
L 148.371599 -57.529208 
L 148.524383 -57.223998 
L 148.636591 -56.918789 
L 148.702587 -56.613579 
L 148.718987 -56.30837 
L 148.684939 -56.00316 
L 148.602193 -55.697951 
L 148.474955 -55.392742 
L 148.309525 -55.087532 
L 148.113787 -54.782323 
L 147.896582 -54.477113 
L 147.667054 -54.171904 
L 147.434025 -53.866694 
L 147.205456 -53.561485 
L 146.988043 -53.256276 
L 146.78697 -52.951066 
L 146.60581 -52.645857 
L 146.446573 -52.340647 
L 146.30987 -52.035438 
L 146.195146 -51.730228 
z
" style="stroke: #3d3d3d; stroke-width: 1.25"/>
    </defs>
    <g clip-path="url(#p94bdf4b9c4)">
     <use xlink:href="#mcfa8919f63" x="0" y="360" style="fill: #3274a1; stroke: #3d3d3d; stroke-width: 1.25"/>
    </g>
   </g>
   <g id="FillBetweenPolyCollection_2">
    <defs>
     <path id="mf794ca6126" d="M 257.87599 -52.065881 
L 256.92401 -52.065881 
L 256.777583 -52.364309 
L 256.601671 -52.662738 
L 256.395615 -52.961166 
L 256.160532 -53.259595 
L 255.899667 -53.558024 
L 255.618617 -53.856452 
L 255.325354 -54.154881 
L 255.030003 -54.453309 
L 254.744363 -54.751738 
L 254.481183 -55.050167 
L 254.253251 -55.348595 
L 254.072374 -55.647024 
L 253.948371 -55.945452 
L 253.888191 -56.243881 
L 253.895268 -56.542309 
L 253.969195 -56.840738 
L 254.105765 -57.139167 
L 254.297364 -57.437595 
L 254.533675 -57.736024 
L 254.802594 -58.034452 
L 255.091246 -58.332881 
L 255.386989 -58.631309 
L 255.67828 -58.929738 
L 255.95534 -59.228167 
L 256.21056 -59.526595 
L 256.438633 -59.825024 
L 256.636437 -60.123452 
L 256.802702 -60.421881 
L 256.937529 -60.720309 
L 257.041801 -61.018738 
L 257.116542 -61.317167 
L 257.16227 -61.615595 
L 257.178362 -61.914024 
L 257.162467 -62.212452 
L 257.109983 -62.510881 
L 257.013629 -62.809309 
L 256.86317 -63.107738 
L 256.645337 -63.406167 
L 256.34404 -63.704595 
L 255.940943 -64.003024 
L 255.416465 -64.301452 
L 254.751266 -64.599881 
L 253.928188 -64.89831 
L 252.934562 -65.196738 
L 251.764708 -65.495167 
L 250.422354 -65.793595 
L 248.92265 -66.092024 
L 247.293399 -66.390452 
L 245.575174 -66.688881 
L 243.820078 -66.98731 
L 242.089031 -67.285738 
L 240.447705 -67.584167 
L 238.961423 -67.882595 
L 237.689528 -68.181024 
L 236.679895 -68.479452 
L 235.964259 -68.777881 
L 235.555007 -69.07631 
L 235.443867 -69.374738 
L 235.60268 -69.673167 
L 235.986116 -69.971595 
L 236.53592 -70.270024 
L 237.186027 -70.568452 
L 237.86779 -70.866881 
L 238.514585 -71.16531 
L 239.065236 -71.463738 
L 239.465956 -71.762167 
L 239.670864 -72.060595 
L 239.641415 -72.359024 
L 239.345337 -72.657452 
L 238.755803 -72.955881 
L 237.85146 -73.25431 
L 236.617795 -73.552738 
L 235.049934 -73.851167 
L 233.156617 -74.149595 
L 230.964701 -74.448024 
L 228.523239 -74.746452 
L 225.906113 -75.044881 
L 223.212233 -75.34331 
L 220.562633 -75.641738 
L 218.094229 -75.940167 
L 215.950583 -76.238595 
L 214.270514 -76.537024 
L 213.175869 -76.835453 
L 212.76 -77.133881 
L 213.078456 -77.43231 
L 214.143187 -77.730738 
L 215.921044 -78.029167 
L 218.336768 -78.327595 
L 221.280053 -78.626024 
L 224.615713 -78.924453 
L 228.195604 -79.222881 
L 231.870848 -79.52131 
L 235.502944 -79.819738 
L 238.97268 -80.118167 
L 242.18613 -80.416595 
L 245.07751 -80.715024 
L 247.609086 -81.013453 
L 249.768631 -81.311881 
L 251.565183 -81.61031 
L 263.234817 -81.61031 
L 263.234817 -81.61031 
L 265.031369 -81.311881 
L 267.190914 -81.013453 
L 269.72249 -80.715024 
L 272.61387 -80.416595 
L 275.82732 -80.118167 
L 279.297056 -79.819738 
L 282.929152 -79.52131 
L 286.604396 -79.222881 
L 290.184287 -78.924453 
L 293.519947 -78.626024 
L 296.463232 -78.327595 
L 298.878956 -78.029167 
L 300.656813 -77.730738 
L 301.721544 -77.43231 
L 302.04 -77.133881 
L 301.624131 -76.835453 
L 300.529486 -76.537024 
L 298.849417 -76.238595 
L 296.705771 -75.940167 
L 294.237367 -75.641738 
L 291.587767 -75.34331 
L 288.893887 -75.044881 
L 286.276761 -74.746452 
L 283.835299 -74.448024 
L 281.643383 -74.149595 
L 279.750066 -73.851167 
L 278.182205 -73.552738 
L 276.94854 -73.25431 
L 276.044197 -72.955881 
L 275.454663 -72.657452 
L 275.158585 -72.359024 
L 275.129136 -72.060595 
L 275.334044 -71.762167 
L 275.734764 -71.463738 
L 276.285415 -71.16531 
L 276.93221 -70.866881 
L 277.613973 -70.568452 
L 278.26408 -70.270024 
L 278.813884 -69.971595 
L 279.19732 -69.673167 
L 279.356133 -69.374738 
L 279.244993 -69.07631 
L 278.835741 -68.777881 
L 278.120105 -68.479452 
L 277.110472 -68.181024 
L 275.838577 -67.882595 
L 274.352295 -67.584167 
L 272.710969 -67.285738 
L 270.979922 -66.98731 
L 269.224826 -66.688881 
L 267.506601 -66.390452 
L 265.87735 -66.092024 
L 264.377646 -65.793595 
L 263.035292 -65.495167 
L 261.865438 -65.196738 
L 260.871812 -64.89831 
L 260.048734 -64.599881 
L 259.383535 -64.301452 
L 258.859057 -64.003024 
L 258.45596 -63.704595 
L 258.154663 -63.406167 
L 257.93683 -63.107738 
L 257.786371 -62.809309 
L 257.690017 -62.510881 
L 257.637533 -62.212452 
L 257.621638 -61.914024 
L 257.63773 -61.615595 
L 257.683458 -61.317167 
L 257.758199 -61.018738 
L 257.862471 -60.720309 
L 257.997298 -60.421881 
L 258.163563 -60.123452 
L 258.361367 -59.825024 
L 258.58944 -59.526595 
L 258.84466 -59.228167 
L 259.12172 -58.929738 
L 259.413011 -58.631309 
L 259.708754 -58.332881 
L 259.997406 -58.034452 
L 260.266325 -57.736024 
L 260.502636 -57.437595 
L 260.694235 -57.139167 
L 260.830805 -56.840738 
L 260.904732 -56.542309 
L 260.911809 -56.243881 
L 260.851629 -55.945452 
L 260.727626 -55.647024 
L 260.546749 -55.348595 
L 260.318817 -55.050167 
L 260.055637 -54.751738 
L 259.769997 -54.453309 
L 259.474646 -54.154881 
L 259.181383 -53.856452 
L 258.900333 -53.558024 
L 258.639468 -53.259595 
L 258.404385 -52.961166 
L 258.198329 -52.662738 
L 258.022417 -52.364309 
L 257.87599 -52.065881 
z
" style="stroke: #3d3d3d; stroke-width: 1.25"/>
    </defs>
    <g clip-path="url(#p94bdf4b9c4)">
     <use xlink:href="#mf794ca6126" x="0" y="360" style="fill: #e1812c; stroke: #3d3d3d; stroke-width: 1.25"/>
    </g>
   </g>
   <g id="FillBetweenPolyCollection_3">
    <defs>
     <path id="m4641233226" d="M 370.071179 -49.832607 
L 367.928821 -49.832607 
L 367.685197 -50.176152 
L 367.403937 -50.519697 
L 367.083846 -50.863242 
L 366.724895 -51.206788 
L 366.32845 -51.550333 
L 365.897468 -51.893878 
L 365.436637 -52.237423 
L 364.952424 -52.580969 
L 364.453038 -52.924514 
L 363.948281 -53.268059 
L 363.449281 -53.611604 
L 362.968129 -53.955149 
L 362.517409 -54.298695 
L 362.109662 -54.64224 
L 361.756807 -54.985785 
L 361.469554 -55.32933 
L 361.256852 -55.672876 
L 361.125402 -56.016421 
L 361.079275 -56.359966 
L 361.119667 -56.703511 
L 361.244792 -57.047056 
L 361.449932 -57.390602 
L 361.727638 -57.734147 
L 362.068053 -58.077692 
L 362.459347 -58.421237 
L 362.88821 -58.764783 
L 363.340393 -59.108328 
L 363.801233 -59.451873 
L 364.256153 -59.795418 
L 364.691092 -60.138963 
L 365.09287 -60.482509 
L 365.449458 -60.826054 
L 365.750164 -61.169599 
L 365.985748 -61.513144 
L 366.148478 -61.85669 
L 366.232137 -62.200235 
L 366.232017 -62.54378 
L 366.14489 -62.887325 
L 365.968999 -63.23087 
L 365.704043 -63.574416 
L 365.351177 -63.917961 
L 364.913001 -64.261506 
L 364.393536 -64.605051 
L 363.798165 -64.948597 
L 363.133515 -65.292142 
L 362.40728 -65.635687 
L 361.627948 -65.979232 
L 360.804463 -66.322777 
L 359.945791 -66.666323 
L 359.060439 -67.009868 
L 358.155925 -67.353413 
L 357.238251 -67.696958 
L 356.31141 -68.040504 
L 355.376975 -68.384049 
L 354.433802 -68.727594 
L 353.477904 -69.071139 
L 352.502514 -69.414684 
L 351.498356 -69.75823 
L 350.454157 -70.101775 
L 349.357367 -70.44532 
L 348.195087 -70.788865 
L 346.955168 -71.132411 
L 345.627426 -71.475956 
L 344.204906 -71.819501 
L 342.685135 -72.163046 
L 341.071256 -72.506591 
L 339.372977 -72.850137 
L 337.607227 -73.193682 
L 335.798445 -73.537227 
L 333.978445 -73.880772 
L 332.185799 -74.224318 
L 330.464727 -74.567863 
L 328.863529 -74.911408 
L 327.432598 -75.254953 
L 326.222118 -75.598498 
L 325.279589 -75.942044 
L 324.647308 -76.285589 
L 324.36 -76.629134 
L 324.442749 -76.972679 
L 324.909396 -77.316225 
L 325.761526 -77.65977 
L 326.988114 -78.003315 
L 328.565887 -78.34686 
L 330.460358 -78.690405 
L 332.627476 -79.033951 
L 335.015756 -79.377496 
L 337.568755 -79.721041 
L 340.227703 -80.064586 
L 342.934119 -80.408132 
L 345.632245 -80.751677 
L 348.271156 -81.095222 
L 350.80643 -81.438767 
L 353.201332 -81.782312 
L 355.427466 -82.125858 
L 357.464923 -82.469403 
L 359.301991 -82.812948 
L 360.934468 -83.156493 
L 362.364721 -83.500039 
L 363.60054 -83.843584 
L 374.39946 -83.843584 
L 374.39946 -83.843584 
L 375.635279 -83.500039 
L 377.065532 -83.156493 
L 378.698009 -82.812948 
L 380.535077 -82.469403 
L 382.572534 -82.125858 
L 384.798668 -81.782312 
L 387.19357 -81.438767 
L 389.728844 -81.095222 
L 392.367755 -80.751677 
L 395.065881 -80.408132 
L 397.772297 -80.064586 
L 400.431245 -79.721041 
L 402.984244 -79.377496 
L 405.372524 -79.033951 
L 407.539642 -78.690405 
L 409.434113 -78.34686 
L 411.011886 -78.003315 
L 412.238474 -77.65977 
L 413.090604 -77.316225 
L 413.557251 -76.972679 
L 413.64 -76.629134 
L 413.352692 -76.285589 
L 412.720411 -75.942044 
L 411.777882 -75.598498 
L 410.567402 -75.254953 
L 409.136471 -74.911408 
L 407.535273 -74.567863 
L 405.814201 -74.224318 
L 404.021555 -73.880772 
L 402.201555 -73.537227 
L 400.392773 -73.193682 
L 398.627023 -72.850137 
L 396.928744 -72.506591 
L 395.314865 -72.163046 
L 393.795094 -71.819501 
L 392.372574 -71.475956 
L 391.044832 -71.132411 
L 389.804913 -70.788865 
L 388.642633 -70.44532 
L 387.545843 -70.101775 
L 386.501644 -69.75823 
L 385.497486 -69.414684 
L 384.522096 -69.071139 
L 383.566198 -68.727594 
L 382.623025 -68.384049 
L 381.68859 -68.040504 
L 380.761749 -67.696958 
L 379.844075 -67.353413 
L 378.939561 -67.009868 
L 378.054209 -66.666323 
L 377.195537 -66.322777 
L 376.372052 -65.979232 
L 375.59272 -65.635687 
L 374.866485 -65.292142 
L 374.201835 -64.948597 
L 373.606464 -64.605051 
L 373.086999 -64.261506 
L 372.648823 -63.917961 
L 372.295957 -63.574416 
L 372.031001 -63.23087 
L 371.85511 -62.887325 
L 371.767983 -62.54378 
L 371.767863 -62.200235 
L 371.851522 -61.85669 
L 372.014252 -61.513144 
L 372.249836 -61.169599 
L 372.550542 -60.826054 
L 372.90713 -60.482509 
L 373.308908 -60.138963 
L 373.743847 -59.795418 
L 374.198767 -59.451873 
L 374.659607 -59.108328 
L 375.11179 -58.764783 
L 375.540653 -58.421237 
L 375.931947 -58.077692 
L 376.272362 -57.734147 
L 376.550068 -57.390602 
L 376.755208 -57.047056 
L 376.880333 -56.703511 
L 376.920725 -56.359966 
L 376.874598 -56.016421 
L 376.743148 -55.672876 
L 376.530446 -55.32933 
L 376.243193 -54.985785 
L 375.890338 -54.64224 
L 375.482591 -54.298695 
L 375.031871 -53.955149 
L 374.550719 -53.611604 
L 374.051719 -53.268059 
L 373.546962 -52.924514 
L 373.047576 -52.580969 
L 372.563363 -52.237423 
L 372.102532 -51.893878 
L 371.67155 -51.550333 
L 371.275105 -51.206788 
L 370.916154 -50.863242 
L 370.596063 -50.519697 
L 370.314803 -50.176152 
L 370.071179 -49.832607 
z
" style="stroke: #3d3d3d; stroke-width: 1.25"/>
    </defs>
    <g clip-path="url(#p94bdf4b9c4)">
     <use xlink:href="#m4641233226" x="0" y="360" style="fill: #3a923a; stroke: #3d3d3d; stroke-width: 1.25"/>
    </g>
   </g>
   <g id="FillBetweenPolyCollection_4">
    <defs>
     <path id="m02ade337a2" d="M 481.019316 -50.920267 
L 480.180684 -50.920267 
L 480.072568 -51.241839 
L 479.945779 -51.563412 
L 479.799767 -51.884984 
L 479.634746 -52.206556 
L 479.451846 -52.528128 
L 479.253233 -52.849701 
L 479.042177 -53.171273 
L 478.823041 -53.492845 
L 478.601195 -53.814418 
L 478.382839 -54.13599 
L 478.17474 -54.457562 
L 477.983901 -54.779134 
L 477.817175 -55.100707 
L 477.680861 -55.422279 
L 477.580297 -55.743851 
L 477.519517 -56.065424 
L 477.50096 -56.386996 
L 477.525289 -56.708568 
L 477.591322 -57.03014 
L 477.696075 -57.351713 
L 477.834909 -57.673285 
L 478.001764 -57.994857 
L 478.189444 -58.31643 
L 478.389914 -58.638002 
L 478.59458 -58.959574 
L 478.794502 -59.281146 
L 478.980523 -59.602719 
L 479.143285 -59.924291 
L 479.27314 -60.245863 
L 479.35995 -60.567436 
L 479.392813 -60.889008 
L 479.35976 -61.21058 
L 479.247459 -61.532152 
L 479.041014 -61.853725 
L 478.723915 -62.175297 
L 478.278205 -62.496869 
L 477.684942 -62.818442 
L 476.924973 -63.140014 
L 475.980064 -63.461586 
L 474.834339 -63.783159 
L 473.475999 -64.104731 
L 471.899182 -64.426303 
L 470.105853 -64.747875 
L 468.107502 -65.069448 
L 465.926484 -65.39102 
L 463.59676 -65.712592 
L 461.163887 -66.034165 
L 458.684088 -66.355737 
L 456.22237 -66.677309 
L 453.849687 -66.998881 
L 451.639294 -67.320454 
L 449.662495 -67.642026 
L 447.984101 -67.963598 
L 446.657935 -68.285171 
L 445.722788 -68.606743 
L 445.199152 -68.928315 
L 445.087055 -69.249887 
L 445.365182 -69.57146 
L 445.991399 -69.893032 
L 446.904653 -70.214604 
L 448.028103 -70.536177 
L 449.27328 -70.857749 
L 450.54497 -71.179321 
L 451.746509 -71.500893 
L 452.785158 -71.822466 
L 453.577262 -72.144038 
L 454.052933 -72.46561 
L 454.160015 -72.787183 
L 453.867183 -73.108755 
L 453.166009 -73.430327 
L 452.071915 -73.751899 
L 450.623923 -74.073472 
L 448.883171 -74.395044 
L 446.930215 -74.716616 
L 444.861167 -75.038189 
L 442.782821 -75.359761 
L 440.806987 -75.681333 
L 439.044333 -76.002905 
L 437.598119 -76.324478 
L 436.558231 -76.64605 
L 435.995974 -76.967622 
L 435.96 -77.289195 
L 436.473717 -77.610767 
L 437.534379 -77.932339 
L 439.113931 -78.253911 
L 441.161503 -78.575484 
L 443.607335 -78.897056 
L 446.367754 -79.218628 
L 449.350765 -79.540201 
L 452.461784 -79.861773 
L 455.609047 -80.183345 
L 458.708308 -80.504917 
L 461.686527 -80.82649 
L 464.484383 -81.148062 
L 467.057559 -81.469634 
L 469.376874 -81.791207 
L 471.427419 -82.112779 
L 473.206924 -82.434351 
L 474.723608 -82.755923 
L 486.476392 -82.755923 
L 486.476392 -82.755923 
L 487.993076 -82.434351 
L 489.772581 -82.112779 
L 491.823126 -81.791207 
L 494.142441 -81.469634 
L 496.715617 -81.148062 
L 499.513473 -80.82649 
L 502.491692 -80.504917 
L 505.590953 -80.183345 
L 508.738216 -79.861773 
L 511.849235 -79.540201 
L 514.832246 -79.218628 
L 517.592665 -78.897056 
L 520.038497 -78.575484 
L 522.086069 -78.253911 
L 523.665621 -77.932339 
L 524.726283 -77.610767 
L 525.24 -77.289195 
L 525.204026 -76.967622 
L 524.641769 -76.64605 
L 523.601881 -76.324478 
L 522.155667 -76.002905 
L 520.393013 -75.681333 
L 518.417179 -75.359761 
L 516.338833 -75.038189 
L 514.269785 -74.716616 
L 512.316829 -74.395044 
L 510.576077 -74.073472 
L 509.128085 -73.751899 
L 508.033991 -73.430327 
L 507.332817 -73.108755 
L 507.039985 -72.787183 
L 507.147067 -72.46561 
L 507.622738 -72.144038 
L 508.414842 -71.822466 
L 509.453491 -71.500893 
L 510.65503 -71.179321 
L 511.92672 -70.857749 
L 513.171897 -70.536177 
L 514.295347 -70.214604 
L 515.208601 -69.893032 
L 515.834818 -69.57146 
L 516.112945 -69.249887 
L 516.000848 -68.928315 
L 515.477212 -68.606743 
L 514.542065 -68.285171 
L 513.215899 -67.963598 
L 511.537505 -67.642026 
L 509.560706 -67.320454 
L 507.350313 -66.998881 
L 504.97763 -66.677309 
L 502.515912 -66.355737 
L 500.036113 -66.034165 
L 497.60324 -65.712592 
L 495.273516 -65.39102 
L 493.092498 -65.069448 
L 491.094147 -64.747875 
L 489.300818 -64.426303 
L 487.724001 -64.104731 
L 486.365661 -63.783159 
L 485.219936 -63.461586 
L 484.275027 -63.140014 
L 483.515058 -62.818442 
L 482.921795 -62.496869 
L 482.476085 -62.175297 
L 482.158986 -61.853725 
L 481.952541 -61.532152 
L 481.84024 -61.21058 
L 481.807187 -60.889008 
L 481.84005 -60.567436 
L 481.92686 -60.245863 
L 482.056715 -59.924291 
L 482.219477 -59.602719 
L 482.405498 -59.281146 
L 482.60542 -58.959574 
L 482.810086 -58.638002 
L 483.010556 -58.31643 
L 483.198236 -57.994857 
L 483.365091 -57.673285 
L 483.503925 -57.351713 
L 483.608678 -57.03014 
L 483.674711 -56.708568 
L 483.69904 -56.386996 
L 483.680483 -56.065424 
L 483.619703 -55.743851 
L 483.519139 -55.422279 
L 483.382825 -55.100707 
L 483.216099 -54.779134 
L 483.02526 -54.457562 
L 482.817161 -54.13599 
L 482.598805 -53.814418 
L 482.376959 -53.492845 
L 482.157823 -53.171273 
L 481.946767 -52.849701 
L 481.748154 -52.528128 
L 481.565254 -52.206556 
L 481.400233 -51.884984 
L 481.254221 -51.563412 
L 481.127432 -51.241839 
L 481.019316 -50.920267 
z
" style="stroke: #3d3d3d; stroke-width: 1.25"/>
    </defs>
    <g clip-path="url(#p94bdf4b9c4)">
     <use xlink:href="#m02ade337a2" x="0" y="360" style="fill: #c03d3e; stroke: #3d3d3d; stroke-width: 1.25"/>
    </g>
   </g>
   <g id="patch_3">
    <path d="M 212.76 320.4 
L 257.4 320.4 
L 257.4 81.542857 
L 212.76 81.542857 
z
" clip-path="url(#p94bdf4b9c4)" style="fill: #3274a1"/>
   </g>
   <g id="patch_4">
    <path d="M 547.56 320.4 
L 592.2 320.4 
L 592.2 56.4 
L 547.56 56.4 
z
" clip-path="url(#p94bdf4b9c4)" style="fill: #3274a1"/>
   </g>
   <g id="patch_5">
    <path d="M 257.4 320.4 
L 302.04 320.4 
L 302.04 194.685714 
L 257.4 194.685714 
z
" clip-path="url(#p94bdf4b9c4)" style="fill: #e1812c"/>
   </g>
   <g id="patch_6">
    <path d="M 592.2 320.4 
L 636.84 320.4 
L 636.84 60.590476 
L 592.2 60.590476 
z
" clip-path="url(#p94bdf4b9c4)" style="fill: #e1812c"/>
   </g>
   <g id="patch_7">
    <path d="M 145.8 320.4 
L 145.8 320.4 
L 145.8 320.4 
L 145.8 320.4 
z
" clip-path="url(#p94bdf4b9c4)" style="fill: #3274a1"/>
   </g>
   <g id="patch_8">
    <path d="M 145.8 320.4 
L 145.8 320.4 
L 145.8 320.4 
L 145.8 320.4 
z
" clip-path="url(#p94bdf4b9c4)" style="fill: #e1812c"/>
   </g>
   <g id="matplotlib.axis_1">
    <g id="xtick_1">
     <g id="line2d_1">
      <defs>
       <path id="mbe6851acd9" d="M 0 0 
L 0 3.5 
" style="stroke: #000000; stroke-width: 0.8"/>
      </defs>
      <g>
       <use xlink:href="#mbe6851acd9" x="145.8" y="320.4" style="stroke: #000000; stroke-width: 0.8"/>
      </g>
     </g>
     <g id="text_1">
      <!-- Spurious -->
      <g transform="translate(124.005469 334.998438) scale(0.1 -0.1)">
       <defs>
        <path id="DejaVuSans-53" d="M 3425 4513 
L 3425 3897 
Q 3066 4069 2747 4153 
Q 2428 4238 2131 4238 
Q 1616 4238 1336 4038 
Q 1056 3838 1056 3469 
Q 1056 3159 1242 3001 
Q 1428 2844 1947 2747 
L 2328 2669 
Q 3034 2534 3370 2195 
Q 3706 1856 3706 1288 
Q 3706 609 3251 259 
Q 2797 -91 1919 -91 
Q 1588 -91 1214 -16 
Q 841 59 441 206 
L 441 856 
Q 825 641 1194 531 
Q 1563 422 1919 422 
Q 2459 422 2753 634 
Q 3047 847 3047 1241 
Q 3047 1584 2836 1778 
Q 2625 1972 2144 2069 
L 1759 2144 
Q 1053 2284 737 2584 
Q 422 2884 422 3419 
Q 422 4038 858 4394 
Q 1294 4750 2059 4750 
Q 2388 4750 2728 4690 
Q 3069 4631 3425 4513 
z
" transform="scale(0.015625)"/>
        <path id="DejaVuSans-70" d="M 1159 525 
L 1159 -1331 
L 581 -1331 
L 581 3500 
L 1159 3500 
L 1159 2969 
Q 1341 3281 1617 3432 
Q 1894 3584 2278 3584 
Q 2916 3584 3314 3078 
Q 3713 2572 3713 1747 
Q 3713 922 3314 415 
Q 2916 -91 2278 -91 
Q 1894 -91 1617 61 
Q 1341 213 1159 525 
z
M 3116 1747 
Q 3116 2381 2855 2742 
Q 2594 3103 2138 3103 
Q 1681 3103 1420 2742 
Q 1159 2381 1159 1747 
Q 1159 1113 1420 752 
Q 1681 391 2138 391 
Q 2594 391 2855 752 
Q 3116 1113 3116 1747 
z
" transform="scale(0.015625)"/>
        <path id="DejaVuSans-75" d="M 544 1381 
L 544 3500 
L 1119 3500 
L 1119 1403 
Q 1119 906 1312 657 
Q 1506 409 1894 409 
Q 2359 409 2629 706 
Q 2900 1003 2900 1516 
L 2900 3500 
L 3475 3500 
L 3475 0 
L 2900 0 
L 2900 538 
Q 2691 219 2414 64 
Q 2138 -91 1772 -91 
Q 1169 -91 856 284 
Q 544 659 544 1381 
z
M 1991 3584 
L 1991 3584 
z
" transform="scale(0.015625)"/>
        <path id="DejaVuSans-72" d="M 2631 2963 
Q 2534 3019 2420 3045 
Q 2306 3072 2169 3072 
Q 1681 3072 1420 2755 
Q 1159 2438 1159 1844 
L 1159 0 
L 581 0 
L 581 3500 
L 1159 3500 
L 1159 2956 
Q 1341 3275 1631 3429 
Q 1922 3584 2338 3584 
Q 2397 3584 2469 3576 
Q 2541 3569 2628 3553 
L 2631 2963 
z
" transform="scale(0.015625)"/>
        <path id="DejaVuSans-69" d="M 603 3500 
L 1178 3500 
L 1178 0 
L 603 0 
L 603 3500 
z
M 603 4863 
L 1178 4863 
L 1178 4134 
L 603 4134 
L 603 4863 
z
" transform="scale(0.015625)"/>
        <path id="DejaVuSans-6f" d="M 1959 3097 
Q 1497 3097 1228 2736 
Q 959 2375 959 1747 
Q 959 1119 1226 758 
Q 1494 397 1959 397 
Q 2419 397 2687 759 
Q 2956 1122 2956 1747 
Q 2956 2369 2687 2733 
Q 2419 3097 1959 3097 
z
M 1959 3584 
Q 2709 3584 3137 3096 
Q 3566 2609 3566 1747 
Q 3566 888 3137 398 
Q 2709 -91 1959 -91 
Q 1206 -91 779 398 
Q 353 888 353 1747 
Q 353 2609 779 3096 
Q 1206 3584 1959 3584 
z
" transform="scale(0.015625)"/>
        <path id="DejaVuSans-73" d="M 2834 3397 
L 2834 2853 
Q 2591 2978 2328 3040 
Q 2066 3103 1784 3103 
Q 1356 3103 1142 2972 
Q 928 2841 928 2578 
Q 928 2378 1081 2264 
Q 1234 2150 1697 2047 
L 1894 2003 
Q 2506 1872 2764 1633 
Q 3022 1394 3022 966 
Q 3022 478 2636 193 
Q 2250 -91 1575 -91 
Q 1294 -91 989 -36 
Q 684 19 347 128 
L 347 722 
Q 666 556 975 473 
Q 1284 391 1588 391 
Q 1994 391 2212 530 
Q 2431 669 2431 922 
Q 2431 1156 2273 1281 
Q 2116 1406 1581 1522 
L 1381 1569 
Q 847 1681 609 1914 
Q 372 2147 372 2553 
Q 372 3047 722 3315 
Q 1072 3584 1716 3584 
Q 2034 3584 2315 3537 
Q 2597 3491 2834 3397 
z
" transform="scale(0.015625)"/>
       </defs>
       <use xlink:href="#DejaVuSans-53"/>
       <use xlink:href="#DejaVuSans-70" transform="translate(63.476562 0)"/>
       <use xlink:href="#DejaVuSans-75" transform="translate(126.953125 0)"/>
       <use xlink:href="#DejaVuSans-72" transform="translate(190.332031 0)"/>
       <use xlink:href="#DejaVuSans-69" transform="translate(231.445312 0)"/>
       <use xlink:href="#DejaVuSans-6f" transform="translate(259.228516 0)"/>
       <use xlink:href="#DejaVuSans-75" transform="translate(320.410156 0)"/>
       <use xlink:href="#DejaVuSans-73" transform="translate(383.789062 0)"/>
      </g>
     </g>
    </g>
    <g id="xtick_2">
     <g id="line2d_2">
      <g>
       <use xlink:href="#mbe6851acd9" x="257.4" y="320.4" style="stroke: #000000; stroke-width: 0.8"/>
      </g>
     </g>
     <g id="text_2">
      <!-- Specific -->
      <g transform="translate(237.938281 334.998438) scale(0.1 -0.1)">
       <defs>
        <path id="DejaVuSans-65" d="M 3597 1894 
L 3597 1613 
L 953 1613 
Q 991 1019 1311 708 
Q 1631 397 2203 397 
Q 2534 397 2845 478 
Q 3156 559 3463 722 
L 3463 178 
Q 3153 47 2828 -22 
Q 2503 -91 2169 -91 
Q 1331 -91 842 396 
Q 353 884 353 1716 
Q 353 2575 817 3079 
Q 1281 3584 2069 3584 
Q 2775 3584 3186 3129 
Q 3597 2675 3597 1894 
z
M 3022 2063 
Q 3016 2534 2758 2815 
Q 2500 3097 2075 3097 
Q 1594 3097 1305 2825 
Q 1016 2553 972 2059 
L 3022 2063 
z
" transform="scale(0.015625)"/>
        <path id="DejaVuSans-63" d="M 3122 3366 
L 3122 2828 
Q 2878 2963 2633 3030 
Q 2388 3097 2138 3097 
Q 1578 3097 1268 2742 
Q 959 2388 959 1747 
Q 959 1106 1268 751 
Q 1578 397 2138 397 
Q 2388 397 2633 464 
Q 2878 531 3122 666 
L 3122 134 
Q 2881 22 2623 -34 
Q 2366 -91 2075 -91 
Q 1284 -91 818 406 
Q 353 903 353 1747 
Q 353 2603 823 3093 
Q 1294 3584 2113 3584 
Q 2378 3584 2631 3529 
Q 2884 3475 3122 3366 
z
" transform="scale(0.015625)"/>
        <path id="DejaVuSans-66" d="M 2375 4863 
L 2375 4384 
L 1825 4384 
Q 1516 4384 1395 4259 
Q 1275 4134 1275 3809 
L 1275 3500 
L 2222 3500 
L 2222 3053 
L 1275 3053 
L 1275 0 
L 697 0 
L 697 3053 
L 147 3053 
L 147 3500 
L 697 3500 
L 697 3744 
Q 697 4328 969 4595 
Q 1241 4863 1831 4863 
L 2375 4863 
z
" transform="scale(0.015625)"/>
       </defs>
       <use xlink:href="#DejaVuSans-53"/>
       <use xlink:href="#DejaVuSans-70" transform="translate(63.476562 0)"/>
       <use xlink:href="#DejaVuSans-65" transform="translate(126.953125 0)"/>
       <use xlink:href="#DejaVuSans-63" transform="translate(188.476562 0)"/>
       <use xlink:href="#DejaVuSans-69" transform="translate(243.457031 0)"/>
       <use xlink:href="#DejaVuSans-66" transform="translate(271.240234 0)"/>
       <use xlink:href="#DejaVuSans-69" transform="translate(306.445312 0)"/>
       <use xlink:href="#DejaVuSans-63" transform="translate(334.228516 0)"/>
      </g>
     </g>
    </g>
    <g id="xtick_3">
     <g id="line2d_3">
      <g>
       <use xlink:href="#mbe6851acd9" x="369" y="320.4" style="stroke: #000000; stroke-width: 0.8"/>
      </g>
     </g>
     <g id="text_3">
      <!-- Non-specific -->
      <g transform="translate(338.335156 334.998438) scale(0.1 -0.1)">
       <defs>
        <path id="DejaVuSans-4e" d="M 628 4666 
L 1478 4666 
L 3547 763 
L 3547 4666 
L 4159 4666 
L 4159 0 
L 3309 0 
L 1241 3903 
L 1241 0 
L 628 0 
L 628 4666 
z
" transform="scale(0.015625)"/>
        <path id="DejaVuSans-6e" d="M 3513 2113 
L 3513 0 
L 2938 0 
L 2938 2094 
Q 2938 2591 2744 2837 
Q 2550 3084 2163 3084 
Q 1697 3084 1428 2787 
Q 1159 2491 1159 1978 
L 1159 0 
L 581 0 
L 581 3500 
L 1159 3500 
L 1159 2956 
Q 1366 3272 1645 3428 
Q 1925 3584 2291 3584 
Q 2894 3584 3203 3211 
Q 3513 2838 3513 2113 
z
" transform="scale(0.015625)"/>
        <path id="DejaVuSans-2d" d="M 313 2009 
L 1997 2009 
L 1997 1497 
L 313 1497 
L 313 2009 
z
" transform="scale(0.015625)"/>
       </defs>
       <use xlink:href="#DejaVuSans-4e"/>
       <use xlink:href="#DejaVuSans-6f" transform="translate(74.804688 0)"/>
       <use xlink:href="#DejaVuSans-6e" transform="translate(135.986328 0)"/>
       <use xlink:href="#DejaVuSans-2d" transform="translate(199.365234 0)"/>
       <use xlink:href="#DejaVuSans-73" transform="translate(235.449219 0)"/>
       <use xlink:href="#DejaVuSans-70" transform="translate(287.548828 0)"/>
       <use xlink:href="#DejaVuSans-65" transform="translate(351.025391 0)"/>
       <use xlink:href="#DejaVuSans-63" transform="translate(412.548828 0)"/>
       <use xlink:href="#DejaVuSans-69" transform="translate(467.529297 0)"/>
       <use xlink:href="#DejaVuSans-66" transform="translate(495.3125 0)"/>
       <use xlink:href="#DejaVuSans-69" transform="translate(530.517578 0)"/>
       <use xlink:href="#DejaVuSans-63" transform="translate(558.300781 0)"/>
      </g>
     </g>
    </g>
    <g id="xtick_4">
     <g id="line2d_4">
      <g>
       <use xlink:href="#mbe6851acd9" x="480.6" y="320.4" style="stroke: #000000; stroke-width: 0.8"/>
      </g>
     </g>
     <g id="text_4">
      <!-- No -->
      <g transform="translate(473.8 334.998438) scale(0.1 -0.1)">
       <use xlink:href="#DejaVuSans-4e"/>
       <use xlink:href="#DejaVuSans-6f" transform="translate(74.804688 0)"/>
      </g>
     </g>
    </g>
    <g id="xtick_5">
     <g id="line2d_5">
      <g>
       <use xlink:href="#mbe6851acd9" x="592.2" y="320.4" style="stroke: #000000; stroke-width: 0.8"/>
      </g>
     </g>
     <g id="text_5">
      <!-- other -->
      <g transform="translate(578.879688 334.998438) scale(0.1 -0.1)">
       <defs>
        <path id="DejaVuSans-74" d="M 1172 4494 
L 1172 3500 
L 2356 3500 
L 2356 3053 
L 1172 3053 
L 1172 1153 
Q 1172 725 1289 603 
Q 1406 481 1766 481 
L 2356 481 
L 2356 0 
L 1766 0 
Q 1100 0 847 248 
Q 594 497 594 1153 
L 594 3053 
L 172 3053 
L 172 3500 
L 594 3500 
L 594 4494 
L 1172 4494 
z
" transform="scale(0.015625)"/>
        <path id="DejaVuSans-68" d="M 3513 2113 
L 3513 0 
L 2938 0 
L 2938 2094 
Q 2938 2591 2744 2837 
Q 2550 3084 2163 3084 
Q 1697 3084 1428 2787 
Q 1159 2491 1159 1978 
L 1159 0 
L 581 0 
L 581 4863 
L 1159 4863 
L 1159 2956 
Q 1366 3272 1645 3428 
Q 1925 3584 2291 3584 
Q 2894 3584 3203 3211 
Q 3513 2838 3513 2113 
z
" transform="scale(0.015625)"/>
       </defs>
       <use xlink:href="#DejaVuSans-6f"/>
       <use xlink:href="#DejaVuSans-74" transform="translate(61.181641 0)"/>
       <use xlink:href="#DejaVuSans-68" transform="translate(100.390625 0)"/>
       <use xlink:href="#DejaVuSans-65" transform="translate(163.769531 0)"/>
       <use xlink:href="#DejaVuSans-72" transform="translate(225.292969 0)"/>
      </g>
     </g>
    </g>
    <g id="text_6">
     <!-- Connectivity category -->
     <g transform="translate(313.98125 348.676562) scale(0.1 -0.1)">
      <defs>
       <path id="DejaVuSans-43" d="M 4122 4306 
L 4122 3641 
Q 3803 3938 3442 4084 
Q 3081 4231 2675 4231 
Q 1875 4231 1450 3742 
Q 1025 3253 1025 2328 
Q 1025 1406 1450 917 
Q 1875 428 2675 428 
Q 3081 428 3442 575 
Q 3803 722 4122 1019 
L 4122 359 
Q 3791 134 3420 21 
Q 3050 -91 2638 -91 
Q 1578 -91 968 557 
Q 359 1206 359 2328 
Q 359 3453 968 4101 
Q 1578 4750 2638 4750 
Q 3056 4750 3426 4639 
Q 3797 4528 4122 4306 
z
" transform="scale(0.015625)"/>
       <path id="DejaVuSans-76" d="M 191 3500 
L 800 3500 
L 1894 563 
L 2988 3500 
L 3597 3500 
L 2284 0 
L 1503 0 
L 191 3500 
z
" transform="scale(0.015625)"/>
       <path id="DejaVuSans-79" d="M 2059 -325 
Q 1816 -950 1584 -1140 
Q 1353 -1331 966 -1331 
L 506 -1331 
L 506 -850 
L 844 -850 
Q 1081 -850 1212 -737 
Q 1344 -625 1503 -206 
L 1606 56 
L 191 3500 
L 800 3500 
L 1894 763 
L 2988 3500 
L 3597 3500 
L 2059 -325 
z
" transform="scale(0.015625)"/>
       <path id="DejaVuSans-20" transform="scale(0.015625)"/>
       <path id="DejaVuSans-61" d="M 2194 1759 
Q 1497 1759 1228 1600 
Q 959 1441 959 1056 
Q 959 750 1161 570 
Q 1363 391 1709 391 
Q 2188 391 2477 730 
Q 2766 1069 2766 1631 
L 2766 1759 
L 2194 1759 
z
M 3341 1997 
L 3341 0 
L 2766 0 
L 2766 531 
Q 2569 213 2275 61 
Q 1981 -91 1556 -91 
Q 1019 -91 701 211 
Q 384 513 384 1019 
Q 384 1609 779 1909 
Q 1175 2209 1959 2209 
L 2766 2209 
L 2766 2266 
Q 2766 2663 2505 2880 
Q 2244 3097 1772 3097 
Q 1472 3097 1187 3025 
Q 903 2953 641 2809 
L 641 3341 
Q 956 3463 1253 3523 
Q 1550 3584 1831 3584 
Q 2591 3584 2966 3190 
Q 3341 2797 3341 1997 
z
" transform="scale(0.015625)"/>
       <path id="DejaVuSans-67" d="M 2906 1791 
Q 2906 2416 2648 2759 
Q 2391 3103 1925 3103 
Q 1463 3103 1205 2759 
Q 947 2416 947 1791 
Q 947 1169 1205 825 
Q 1463 481 1925 481 
Q 2391 481 2648 825 
Q 2906 1169 2906 1791 
z
M 3481 434 
Q 3481 -459 3084 -895 
Q 2688 -1331 1869 -1331 
Q 1566 -1331 1297 -1286 
Q 1028 -1241 775 -1147 
L 775 -588 
Q 1028 -725 1275 -790 
Q 1522 -856 1778 -856 
Q 2344 -856 2625 -561 
Q 2906 -266 2906 331 
L 2906 616 
Q 2728 306 2450 153 
Q 2172 0 1784 0 
Q 1141 0 747 490 
Q 353 981 353 1791 
Q 353 2603 747 3093 
Q 1141 3584 1784 3584 
Q 2172 3584 2450 3431 
Q 2728 3278 2906 2969 
L 2906 3500 
L 3481 3500 
L 3481 434 
z
" transform="scale(0.015625)"/>
      </defs>
      <use xlink:href="#DejaVuSans-43"/>
      <use xlink:href="#DejaVuSans-6f" transform="translate(69.824219 0)"/>
      <use xlink:href="#DejaVuSans-6e" transform="translate(131.005859 0)"/>
      <use xlink:href="#DejaVuSans-6e" transform="translate(194.384766 0)"/>
      <use xlink:href="#DejaVuSans-65" transform="translate(257.763672 0)"/>
      <use xlink:href="#DejaVuSans-63" transform="translate(319.287109 0)"/>
      <use xlink:href="#DejaVuSans-74" transform="translate(374.267578 0)"/>
      <use xlink:href="#DejaVuSans-69" transform="translate(413.476562 0)"/>
      <use xlink:href="#DejaVuSans-76" transform="translate(441.259766 0)"/>
      <use xlink:href="#DejaVuSans-69" transform="translate(500.439453 0)"/>
      <use xlink:href="#DejaVuSans-74" transform="translate(528.222656 0)"/>
      <use xlink:href="#DejaVuSans-79" transform="translate(567.431641 0)"/>
      <use xlink:href="#DejaVuSans-20" transform="translate(626.611328 0)"/>
      <use xlink:href="#DejaVuSans-63" transform="translate(658.398438 0)"/>
      <use xlink:href="#DejaVuSans-61" transform="translate(713.378906 0)"/>
      <use xlink:href="#DejaVuSans-74" transform="translate(774.658203 0)"/>
      <use xlink:href="#DejaVuSans-65" transform="translate(813.867188 0)"/>
      <use xlink:href="#DejaVuSans-67" transform="translate(875.390625 0)"/>
      <use xlink:href="#DejaVuSans-6f" transform="translate(938.867188 0)"/>
      <use xlink:href="#DejaVuSans-72" transform="translate(1000.048828 0)"/>
      <use xlink:href="#DejaVuSans-79" transform="translate(1041.162109 0)"/>
     </g>
    </g>
   </g>
   <g id="matplotlib.axis_2">
    <g id="ytick_1">
     <g id="line2d_6">
      <defs>
       <path id="m0d86b68895" d="M 0 0 
L -3.5 0 
" style="stroke: #000000; stroke-width: 0.8"/>
      </defs>
      <g>
       <use xlink:href="#m0d86b68895" x="90" y="320.4" style="stroke: #000000; stroke-width: 0.8"/>
      </g>
     </g>
     <g id="text_7">
      <!-- 0 -->
      <g transform="translate(76.6375 324.199219) scale(0.1 -0.1)">
       <defs>
        <path id="DejaVuSans-30" d="M 2034 4250 
Q 1547 4250 1301 3770 
Q 1056 3291 1056 2328 
Q 1056 1369 1301 889 
Q 1547 409 2034 409 
Q 2525 409 2770 889 
Q 3016 1369 3016 2328 
Q 3016 3291 2770 3770 
Q 2525 4250 2034 4250 
z
M 2034 4750 
Q 2819 4750 3233 4129 
Q 3647 3509 3647 2328 
Q 3647 1150 3233 529 
Q 2819 -91 2034 -91 
Q 1250 -91 836 529 
Q 422 1150 422 2328 
Q 422 3509 836 4129 
Q 1250 4750 2034 4750 
z
" transform="scale(0.015625)"/>
       </defs>
       <use xlink:href="#DejaVuSans-30"/>
      </g>
     </g>
    </g>
    <g id="ytick_2">
     <g id="line2d_7">
      <g>
       <use xlink:href="#m0d86b68895" x="90" y="278.495238" style="stroke: #000000; stroke-width: 0.8"/>
      </g>
     </g>
     <g id="text_8">
      <!-- 10 -->
      <g transform="translate(70.275 282.294457) scale(0.1 -0.1)">
       <defs>
        <path id="DejaVuSans-31" d="M 794 531 
L 1825 531 
L 1825 4091 
L 703 3866 
L 703 4441 
L 1819 4666 
L 2450 4666 
L 2450 531 
L 3481 531 
L 3481 0 
L 794 0 
L 794 531 
z
" transform="scale(0.015625)"/>
       </defs>
       <use xlink:href="#DejaVuSans-31"/>
       <use xlink:href="#DejaVuSans-30" transform="translate(63.623047 0)"/>
      </g>
     </g>
    </g>
    <g id="ytick_3">
     <g id="line2d_8">
      <g>
       <use xlink:href="#m0d86b68895" x="90" y="236.590476" style="stroke: #000000; stroke-width: 0.8"/>
      </g>
     </g>
     <g id="text_9">
      <!-- 20 -->
      <g transform="translate(70.275 240.389695) scale(0.1 -0.1)">
       <defs>
        <path id="DejaVuSans-32" d="M 1228 531 
L 3431 531 
L 3431 0 
L 469 0 
L 469 531 
Q 828 903 1448 1529 
Q 2069 2156 2228 2338 
Q 2531 2678 2651 2914 
Q 2772 3150 2772 3378 
Q 2772 3750 2511 3984 
Q 2250 4219 1831 4219 
Q 1534 4219 1204 4116 
Q 875 4013 500 3803 
L 500 4441 
Q 881 4594 1212 4672 
Q 1544 4750 1819 4750 
Q 2544 4750 2975 4387 
Q 3406 4025 3406 3419 
Q 3406 3131 3298 2873 
Q 3191 2616 2906 2266 
Q 2828 2175 2409 1742 
Q 1991 1309 1228 531 
z
" transform="scale(0.015625)"/>
       </defs>
       <use xlink:href="#DejaVuSans-32"/>
       <use xlink:href="#DejaVuSans-30" transform="translate(63.623047 0)"/>
      </g>
     </g>
    </g>
    <g id="ytick_4">
     <g id="line2d_9">
      <g>
       <use xlink:href="#m0d86b68895" x="90" y="194.685714" style="stroke: #000000; stroke-width: 0.8"/>
      </g>
     </g>
     <g id="text_10">
      <!-- 30 -->
      <g transform="translate(70.275 198.484933) scale(0.1 -0.1)">
       <defs>
        <path id="DejaVuSans-33" d="M 2597 2516 
Q 3050 2419 3304 2112 
Q 3559 1806 3559 1356 
Q 3559 666 3084 287 
Q 2609 -91 1734 -91 
Q 1441 -91 1130 -33 
Q 819 25 488 141 
L 488 750 
Q 750 597 1062 519 
Q 1375 441 1716 441 
Q 2309 441 2620 675 
Q 2931 909 2931 1356 
Q 2931 1769 2642 2001 
Q 2353 2234 1838 2234 
L 1294 2234 
L 1294 2753 
L 1863 2753 
Q 2328 2753 2575 2939 
Q 2822 3125 2822 3475 
Q 2822 3834 2567 4026 
Q 2313 4219 1838 4219 
Q 1578 4219 1281 4162 
Q 984 4106 628 3988 
L 628 4550 
Q 988 4650 1302 4700 
Q 1616 4750 1894 4750 
Q 2613 4750 3031 4423 
Q 3450 4097 3450 3541 
Q 3450 3153 3228 2886 
Q 3006 2619 2597 2516 
z
" transform="scale(0.015625)"/>
       </defs>
       <use xlink:href="#DejaVuSans-33"/>
       <use xlink:href="#DejaVuSans-30" transform="translate(63.623047 0)"/>
      </g>
     </g>
    </g>
    <g id="ytick_5">
     <g id="line2d_10">
      <g>
       <use xlink:href="#m0d86b68895" x="90" y="152.780952" style="stroke: #000000; stroke-width: 0.8"/>
      </g>
     </g>
     <g id="text_11">
      <!-- 40 -->
      <g transform="translate(70.275 156.580171) scale(0.1 -0.1)">
       <defs>
        <path id="DejaVuSans-34" d="M 2419 4116 
L 825 1625 
L 2419 1625 
L 2419 4116 
z
M 2253 4666 
L 3047 4666 
L 3047 1625 
L 3713 1625 
L 3713 1100 
L 3047 1100 
L 3047 0 
L 2419 0 
L 2419 1100 
L 313 1100 
L 313 1709 
L 2253 4666 
z
" transform="scale(0.015625)"/>
       </defs>
       <use xlink:href="#DejaVuSans-34"/>
       <use xlink:href="#DejaVuSans-30" transform="translate(63.623047 0)"/>
      </g>
     </g>
    </g>
    <g id="ytick_6">
     <g id="line2d_11">
      <g>
       <use xlink:href="#m0d86b68895" x="90" y="110.87619" style="stroke: #000000; stroke-width: 0.8"/>
      </g>
     </g>
     <g id="text_12">
      <!-- 50 -->
      <g transform="translate(70.275 114.675409) scale(0.1 -0.1)">
       <defs>
        <path id="DejaVuSans-35" d="M 691 4666 
L 3169 4666 
L 3169 4134 
L 1269 4134 
L 1269 2991 
Q 1406 3038 1543 3061 
Q 1681 3084 1819 3084 
Q 2600 3084 3056 2656 
Q 3513 2228 3513 1497 
Q 3513 744 3044 326 
Q 2575 -91 1722 -91 
Q 1428 -91 1123 -41 
Q 819 9 494 109 
L 494 744 
Q 775 591 1075 516 
Q 1375 441 1709 441 
Q 2250 441 2565 725 
Q 2881 1009 2881 1497 
Q 2881 1984 2565 2268 
Q 2250 2553 1709 2553 
Q 1456 2553 1204 2497 
Q 953 2441 691 2322 
L 691 4666 
z
" transform="scale(0.015625)"/>
       </defs>
       <use xlink:href="#DejaVuSans-35"/>
       <use xlink:href="#DejaVuSans-30" transform="translate(63.623047 0)"/>
      </g>
     </g>
    </g>
    <g id="ytick_7">
     <g id="line2d_12">
      <g>
       <use xlink:href="#m0d86b68895" x="90" y="68.971429" style="stroke: #000000; stroke-width: 0.8"/>
      </g>
     </g>
     <g id="text_13">
      <!-- 60 -->
      <g transform="translate(70.275 72.770647) scale(0.1 -0.1)">
       <defs>
        <path id="DejaVuSans-36" d="M 2113 2584 
Q 1688 2584 1439 2293 
Q 1191 2003 1191 1497 
Q 1191 994 1439 701 
Q 1688 409 2113 409 
Q 2538 409 2786 701 
Q 3034 994 3034 1497 
Q 3034 2003 2786 2293 
Q 2538 2584 2113 2584 
z
M 3366 4563 
L 3366 3988 
Q 3128 4100 2886 4159 
Q 2644 4219 2406 4219 
Q 1781 4219 1451 3797 
Q 1122 3375 1075 2522 
Q 1259 2794 1537 2939 
Q 1816 3084 2150 3084 
Q 2853 3084 3261 2657 
Q 3669 2231 3669 1497 
Q 3669 778 3244 343 
Q 2819 -91 2113 -91 
Q 1303 -91 875 529 
Q 447 1150 447 2328 
Q 447 3434 972 4092 
Q 1497 4750 2381 4750 
Q 2619 4750 2861 4703 
Q 3103 4656 3366 4563 
z
" transform="scale(0.015625)"/>
       </defs>
       <use xlink:href="#DejaVuSans-36"/>
       <use xlink:href="#DejaVuSans-30" transform="translate(63.623047 0)"/>
      </g>
     </g>
    </g>
    <g id="text_14">
     <!-- cont_variable -->
     <g transform="translate(63.917188 215.409375) rotate(-90) scale(0.1 -0.1)">
      <defs>
       <path id="DejaVuSans-5f" d="M 3263 -1063 
L 3263 -1509 
L -63 -1509 
L -63 -1063 
L 3263 -1063 
z
" transform="scale(0.015625)"/>
       <path id="DejaVuSans-62" d="M 3116 1747 
Q 3116 2381 2855 2742 
Q 2594 3103 2138 3103 
Q 1681 3103 1420 2742 
Q 1159 2381 1159 1747 
Q 1159 1113 1420 752 
Q 1681 391 2138 391 
Q 2594 391 2855 752 
Q 3116 1113 3116 1747 
z
M 1159 2969 
Q 1341 3281 1617 3432 
Q 1894 3584 2278 3584 
Q 2916 3584 3314 3078 
Q 3713 2572 3713 1747 
Q 3713 922 3314 415 
Q 2916 -91 2278 -91 
Q 1894 -91 1617 61 
Q 1341 213 1159 525 
L 1159 0 
L 581 0 
L 581 4863 
L 1159 4863 
L 1159 2969 
z
" transform="scale(0.015625)"/>
       <path id="DejaVuSans-6c" d="M 603 4863 
L 1178 4863 
L 1178 0 
L 603 0 
L 603 4863 
z
" transform="scale(0.015625)"/>
      </defs>
      <use xlink:href="#DejaVuSans-63"/>
      <use xlink:href="#DejaVuSans-6f" transform="translate(54.980469 0)"/>
      <use xlink:href="#DejaVuSans-6e" transform="translate(116.162109 0)"/>
      <use xlink:href="#DejaVuSans-74" transform="translate(179.541016 0)"/>
      <use xlink:href="#DejaVuSans-5f" transform="translate(218.75 0)"/>
      <use xlink:href="#DejaVuSans-76" transform="translate(268.75 0)"/>
      <use xlink:href="#DejaVuSans-61" transform="translate(327.929688 0)"/>
      <use xlink:href="#DejaVuSans-72" transform="translate(389.208984 0)"/>
      <use xlink:href="#DejaVuSans-69" transform="translate(430.322266 0)"/>
      <use xlink:href="#DejaVuSans-61" transform="translate(458.105469 0)"/>
      <use xlink:href="#DejaVuSans-62" transform="translate(519.384766 0)"/>
      <use xlink:href="#DejaVuSans-6c" transform="translate(582.861328 0)"/>
      <use xlink:href="#DejaVuSans-65" transform="translate(610.644531 0)"/>
     </g>
    </g>
   </g>
   <g id="line2d_13">
    <path clip-path="url(#p94bdf4b9c4)" style="fill: none; stroke: #424242; stroke-width: 2.25; stroke-linecap: square"/>
   </g>
   <g id="line2d_14">
    <path clip-path="url(#p94bdf4b9c4)" style="fill: none; stroke: #424242; stroke-width: 2.25; stroke-linecap: square"/>
   </g>
   <g id="line2d_15">
    <path clip-path="url(#p94bdf4b9c4)" style="fill: none; stroke: #424242; stroke-width: 2.25; stroke-linecap: square"/>
   </g>
   <g id="line2d_16">
    <path clip-path="url(#p94bdf4b9c4)" style="fill: none; stroke: #424242; stroke-width: 2.25; stroke-linecap: square"/>
   </g>
   <g id="patch_9">
    <path d="M 90 320.4 
L 90 43.2 
" style="fill: none; stroke: #000000; stroke-width: 0.8; stroke-linejoin: miter; stroke-linecap: square"/>
   </g>
   <g id="patch_10">
    <path d="M 648 320.4 
L 648 43.2 
" style="fill: none; stroke: #000000; stroke-width: 0.8; stroke-linejoin: miter; stroke-linecap: square"/>
   </g>
   <g id="patch_11">
    <path d="M 90 320.4 
L 648 320.4 
" style="fill: none; stroke: #000000; stroke-width: 0.8; stroke-linejoin: miter; stroke-linecap: square"/>
   </g>
   <g id="patch_12">
    <path d="M 90 43.2 
L 648 43.2 
" style="fill: none; stroke: #000000; stroke-width: 0.8; stroke-linejoin: miter; stroke-linecap: square"/>
   </g>
   <g id="PathCollection_1">
    <defs>
     <path id="me14ffd9619" d="M 0 2.5 
C 0.663008 2.5 1.29895 2.236584 1.767767 1.767767 
C 2.236584 1.29895 2.5 0.663008 2.5 0 
C 2.5 -0.663008 2.236584 -1.29895 1.767767 -1.767767 
C 1.29895 -2.236584 0.663008 -2.5 0 -2.5 
C -0.663008 -2.5 -1.29895 -2.236584 -1.767767 -1.767767 
C -2.236584 -1.29895 -2.5 -0.663008 -2.5 0 
C -2.5 0.663008 -2.236584 1.29895 -1.767767 1.767767 
C -1.29895 2.236584 -0.663008 2.5 0 2.5 
z
"/>
    </defs>
    <g clip-path="url(#p94bdf4b9c4)">
     <use xlink:href="#me14ffd9619" x="146.470751" y="286.87619" style="fill-opacity: 0.3"/>
     <use xlink:href="#me14ffd9619" x="147.385279" y="286.87619" style="fill-opacity: 0.3"/>
     <use xlink:href="#me14ffd9619" x="144.392871" y="303.638095" style="fill-opacity: 0.3"/>
     <use xlink:href="#me14ffd9619" x="149.098158" y="303.638095" style="fill-opacity: 0.3"/>
     <use xlink:href="#me14ffd9619" x="135.014377" y="286.87619" style="fill-opacity: 0.3"/>
     <use xlink:href="#me14ffd9619" x="136.884689" y="282.685714" style="fill-opacity: 0.3"/>
     <use xlink:href="#me14ffd9619" x="155.96772" y="282.685714" style="fill-opacity: 0.3"/>
     <use xlink:href="#me14ffd9619" x="151.433927" y="282.685714" style="fill-opacity: 0.3"/>
     <use xlink:href="#me14ffd9619" x="156.440585" y="282.685714" style="fill-opacity: 0.3"/>
     <use xlink:href="#me14ffd9619" x="134.904447" y="282.685714" style="fill-opacity: 0.3"/>
     <use xlink:href="#me14ffd9619" x="137.326832" y="282.685714" style="fill-opacity: 0.3"/>
     <use xlink:href="#me14ffd9619" x="134.765061" y="282.685714" style="fill-opacity: 0.3"/>
     <use xlink:href="#me14ffd9619" x="156.773991" y="282.685714" style="fill-opacity: 0.3"/>
     <use xlink:href="#me14ffd9619" x="150.817846" y="282.685714" style="fill-opacity: 0.3"/>
     <use xlink:href="#me14ffd9619" x="146.669606" y="282.685714" style="fill-opacity: 0.3"/>
     <use xlink:href="#me14ffd9619" x="150.679296" y="282.685714" style="fill-opacity: 0.3"/>
     <use xlink:href="#me14ffd9619" x="136.522615" y="282.685714" style="fill-opacity: 0.3"/>
     <use xlink:href="#me14ffd9619" x="147.94061" y="282.685714" style="fill-opacity: 0.3"/>
     <use xlink:href="#me14ffd9619" x="139.975198" y="282.685714" style="fill-opacity: 0.3"/>
     <use xlink:href="#me14ffd9619" x="136.556307" y="282.685714" style="fill-opacity: 0.3"/>
     <use xlink:href="#me14ffd9619" x="150.770018" y="282.685714" style="fill-opacity: 0.3"/>
     <use xlink:href="#me14ffd9619" x="156.095957" y="282.685714" style="fill-opacity: 0.3"/>
     <use xlink:href="#me14ffd9619" x="150.513071" y="282.685714" style="fill-opacity: 0.3"/>
     <use xlink:href="#me14ffd9619" x="146.074717" y="282.685714" style="fill-opacity: 0.3"/>
     <use xlink:href="#me14ffd9619" x="150.332146" y="282.685714" style="fill-opacity: 0.3"/>
     <use xlink:href="#me14ffd9619" x="144.657381" y="282.685714" style="fill-opacity: 0.3"/>
     <use xlink:href="#me14ffd9619" x="147.488592" y="282.685714" style="fill-opacity: 0.3"/>
     <use xlink:href="#me14ffd9619" x="140.001027" y="282.685714" style="fill-opacity: 0.3"/>
     <use xlink:href="#me14ffd9619" x="150.74529" y="282.685714" style="fill-opacity: 0.3"/>
     <use xlink:href="#me14ffd9619" x="151.289955" y="291.066667" style="fill-opacity: 0.3"/>
     <use xlink:href="#me14ffd9619" x="148.13961" y="291.066667" style="fill-opacity: 0.3"/>
     <use xlink:href="#me14ffd9619" x="140.360944" y="291.066667" style="fill-opacity: 0.3"/>
     <use xlink:href="#me14ffd9619" x="152.591755" y="291.066667" style="fill-opacity: 0.3"/>
     <use xlink:href="#me14ffd9619" x="147.00221" y="291.066667" style="fill-opacity: 0.3"/>
     <use xlink:href="#me14ffd9619" x="141.124382" y="291.066667" style="fill-opacity: 0.3"/>
     <use xlink:href="#me14ffd9619" x="136.779221" y="291.066667" style="fill-opacity: 0.3"/>
     <use xlink:href="#me14ffd9619" x="152.705365" y="291.066667" style="fill-opacity: 0.3"/>
     <use xlink:href="#me14ffd9619" x="140.682354" y="291.066667" style="fill-opacity: 0.3"/>
     <use xlink:href="#me14ffd9619" x="137.532102" y="291.066667" style="fill-opacity: 0.3"/>
     <use xlink:href="#me14ffd9619" x="151.903131" y="291.066667" style="fill-opacity: 0.3"/>
     <use xlink:href="#me14ffd9619" x="150.960541" y="291.066667" style="fill-opacity: 0.3"/>
     <use xlink:href="#me14ffd9619" x="156.664251" y="291.066667" style="fill-opacity: 0.3"/>
     <use xlink:href="#me14ffd9619" x="148.281299" y="291.066667" style="fill-opacity: 0.3"/>
     <use xlink:href="#me14ffd9619" x="145.996656" y="291.066667" style="fill-opacity: 0.3"/>
     <use xlink:href="#me14ffd9619" x="139.360319" y="291.066667" style="fill-opacity: 0.3"/>
     <use xlink:href="#me14ffd9619" x="143.317803" y="291.066667" style="fill-opacity: 0.3"/>
     <use xlink:href="#me14ffd9619" x="144.649953" y="291.066667" style="fill-opacity: 0.3"/>
     <use xlink:href="#me14ffd9619" x="144.743023" y="291.066667" style="fill-opacity: 0.3"/>
     <use xlink:href="#me14ffd9619" x="142.148351" y="291.066667" style="fill-opacity: 0.3"/>
     <use xlink:href="#me14ffd9619" x="151.038997" y="282.685714" style="fill-opacity: 0.3"/>
     <use xlink:href="#me14ffd9619" x="148.592497" y="282.685714" style="fill-opacity: 0.3"/>
     <use xlink:href="#me14ffd9619" x="152.400533" y="282.685714" style="fill-opacity: 0.3"/>
     <use xlink:href="#me14ffd9619" x="156.110928" y="282.685714" style="fill-opacity: 0.3"/>
     <use xlink:href="#me14ffd9619" x="155.932189" y="282.685714" style="fill-opacity: 0.3"/>
     <use xlink:href="#me14ffd9619" x="140.294277" y="282.685714" style="fill-opacity: 0.3"/>
    </g>
   </g>
   <g id="PathCollection_2">
    <g clip-path="url(#p94bdf4b9c4)">
     <use xlink:href="#me14ffd9619" x="256.888334" y="286.87619" style="fill-opacity: 0.3"/>
     <use xlink:href="#me14ffd9619" x="256.601929" y="286.87619" style="fill-opacity: 0.3"/>
     <use xlink:href="#me14ffd9619" x="251.218995" y="286.87619" style="fill-opacity: 0.3"/>
     <use xlink:href="#me14ffd9619" x="260.977996" y="286.87619" style="fill-opacity: 0.3"/>
     <use xlink:href="#me14ffd9619" x="246.531794" y="286.87619" style="fill-opacity: 0.3"/>
     <use xlink:href="#me14ffd9619" x="251.848374" y="286.87619" style="fill-opacity: 0.3"/>
     <use xlink:href="#me14ffd9619" x="257.34777" y="286.87619" style="fill-opacity: 0.3"/>
     <use xlink:href="#me14ffd9619" x="264.094439" y="286.87619" style="fill-opacity: 0.3"/>
     <use xlink:href="#me14ffd9619" x="265.394657" y="286.87619" style="fill-opacity: 0.3"/>
     <use xlink:href="#me14ffd9619" x="247.150814" y="286.87619" style="fill-opacity: 0.3"/>
     <use xlink:href="#me14ffd9619" x="266.90571" y="303.638095" style="fill-opacity: 0.3"/>
     <use xlink:href="#me14ffd9619" x="254.763586" y="303.638095" style="fill-opacity: 0.3"/>
     <use xlink:href="#me14ffd9619" x="251.31004" y="303.638095" style="fill-opacity: 0.3"/>
     <use xlink:href="#me14ffd9619" x="253.158591" y="303.638095" style="fill-opacity: 0.3"/>
     <use xlink:href="#me14ffd9619" x="266.606119" y="286.87619" style="fill-opacity: 0.3"/>
     <use xlink:href="#me14ffd9619" x="263.959331" y="282.685714" style="fill-opacity: 0.3"/>
     <use xlink:href="#me14ffd9619" x="247.057493" y="282.685714" style="fill-opacity: 0.3"/>
     <use xlink:href="#me14ffd9619" x="259.453007" y="282.685714" style="fill-opacity: 0.3"/>
     <use xlink:href="#me14ffd9619" x="265.543606" y="282.685714" style="fill-opacity: 0.3"/>
     <use xlink:href="#me14ffd9619" x="251.988553" y="282.685714" style="fill-opacity: 0.3"/>
     <use xlink:href="#me14ffd9619" x="266.655692" y="282.685714" style="fill-opacity: 0.3"/>
     <use xlink:href="#me14ffd9619" x="248.790439" y="282.685714" style="fill-opacity: 0.3"/>
     <use xlink:href="#me14ffd9619" x="263.400003" y="282.685714" style="fill-opacity: 0.3"/>
     <use xlink:href="#me14ffd9619" x="251.029089" y="282.685714" style="fill-opacity: 0.3"/>
     <use xlink:href="#me14ffd9619" x="256.716187" y="282.685714" style="fill-opacity: 0.3"/>
     <use xlink:href="#me14ffd9619" x="249.7488" y="282.685714" style="fill-opacity: 0.3"/>
     <use xlink:href="#me14ffd9619" x="254.633385" y="282.685714" style="fill-opacity: 0.3"/>
     <use xlink:href="#me14ffd9619" x="253.585456" y="282.685714" style="fill-opacity: 0.3"/>
     <use xlink:href="#me14ffd9619" x="260.025741" y="282.685714" style="fill-opacity: 0.3"/>
     <use xlink:href="#me14ffd9619" x="257.593964" y="282.685714" style="fill-opacity: 0.3"/>
     <use xlink:href="#me14ffd9619" x="268.062573" y="282.685714" style="fill-opacity: 0.3"/>
     <use xlink:href="#me14ffd9619" x="256.933267" y="282.685714" style="fill-opacity: 0.3"/>
     <use xlink:href="#me14ffd9619" x="257.214788" y="282.685714" style="fill-opacity: 0.3"/>
     <use xlink:href="#me14ffd9619" x="255.208051" y="282.685714" style="fill-opacity: 0.3"/>
     <use xlink:href="#me14ffd9619" x="248.557147" y="282.685714" style="fill-opacity: 0.3"/>
     <use xlink:href="#me14ffd9619" x="253.83229" y="282.685714" style="fill-opacity: 0.3"/>
     <use xlink:href="#me14ffd9619" x="257.833092" y="282.685714" style="fill-opacity: 0.3"/>
     <use xlink:href="#me14ffd9619" x="247.777753" y="282.685714" style="fill-opacity: 0.3"/>
     <use xlink:href="#me14ffd9619" x="260.062673" y="282.685714" style="fill-opacity: 0.3"/>
     <use xlink:href="#me14ffd9619" x="258.197879" y="282.685714" style="fill-opacity: 0.3"/>
     <use xlink:href="#me14ffd9619" x="258.114047" y="282.685714" style="fill-opacity: 0.3"/>
     <use xlink:href="#me14ffd9619" x="261.516647" y="282.685714" style="fill-opacity: 0.3"/>
     <use xlink:href="#me14ffd9619" x="267.530781" y="282.685714" style="fill-opacity: 0.3"/>
     <use xlink:href="#me14ffd9619" x="249.722369" y="282.685714" style="fill-opacity: 0.3"/>
     <use xlink:href="#me14ffd9619" x="257.900675" y="282.685714" style="fill-opacity: 0.3"/>
     <use xlink:href="#me14ffd9619" x="260.019919" y="282.685714" style="fill-opacity: 0.3"/>
     <use xlink:href="#me14ffd9619" x="246.964182" y="282.685714" style="fill-opacity: 0.3"/>
     <use xlink:href="#me14ffd9619" x="258.228974" y="282.685714" style="fill-opacity: 0.3"/>
     <use xlink:href="#me14ffd9619" x="261.01481" y="282.685714" style="fill-opacity: 0.3"/>
     <use xlink:href="#me14ffd9619" x="262.701632" y="282.685714" style="fill-opacity: 0.3"/>
     <use xlink:href="#me14ffd9619" x="253.645528" y="282.685714" style="fill-opacity: 0.3"/>
     <use xlink:href="#me14ffd9619" x="258.243633" y="282.685714" style="fill-opacity: 0.3"/>
     <use xlink:href="#me14ffd9619" x="262.678593" y="282.685714" style="fill-opacity: 0.3"/>
     <use xlink:href="#me14ffd9619" x="263.355382" y="282.685714" style="fill-opacity: 0.3"/>
     <use xlink:href="#me14ffd9619" x="261.612546" y="282.685714" style="fill-opacity: 0.3"/>
     <use xlink:href="#me14ffd9619" x="252.706921" y="282.685714" style="fill-opacity: 0.3"/>
     <use xlink:href="#me14ffd9619" x="251.297905" y="282.685714" style="fill-opacity: 0.3"/>
     <use xlink:href="#me14ffd9619" x="250.770183" y="282.685714" style="fill-opacity: 0.3"/>
     <use xlink:href="#me14ffd9619" x="248.543951" y="282.685714" style="fill-opacity: 0.3"/>
     <use xlink:href="#me14ffd9619" x="247.647762" y="282.685714" style="fill-opacity: 0.3"/>
     <use xlink:href="#me14ffd9619" x="263.840456" y="291.066667" style="fill-opacity: 0.3"/>
     <use xlink:href="#me14ffd9619" x="266.934054" y="291.066667" style="fill-opacity: 0.3"/>
     <use xlink:href="#me14ffd9619" x="268.213957" y="291.066667" style="fill-opacity: 0.3"/>
     <use xlink:href="#me14ffd9619" x="256.317685" y="291.066667" style="fill-opacity: 0.3"/>
     <use xlink:href="#me14ffd9619" x="254.605857" y="291.066667" style="fill-opacity: 0.3"/>
     <use xlink:href="#me14ffd9619" x="260.834698" y="291.066667" style="fill-opacity: 0.3"/>
     <use xlink:href="#me14ffd9619" x="246.945226" y="291.066667" style="fill-opacity: 0.3"/>
     <use xlink:href="#me14ffd9619" x="248.033623" y="291.066667" style="fill-opacity: 0.3"/>
     <use xlink:href="#me14ffd9619" x="258.662429" y="291.066667" style="fill-opacity: 0.3"/>
     <use xlink:href="#me14ffd9619" x="260.724807" y="291.066667" style="fill-opacity: 0.3"/>
     <use xlink:href="#me14ffd9619" x="263.693664" y="291.066667" style="fill-opacity: 0.3"/>
     <use xlink:href="#me14ffd9619" x="248.888678" y="291.066667" style="fill-opacity: 0.3"/>
     <use xlink:href="#me14ffd9619" x="252.326542" y="291.066667" style="fill-opacity: 0.3"/>
     <use xlink:href="#me14ffd9619" x="263.665176" y="291.066667" style="fill-opacity: 0.3"/>
     <use xlink:href="#me14ffd9619" x="265.901168" y="291.066667" style="fill-opacity: 0.3"/>
     <use xlink:href="#me14ffd9619" x="265.298928" y="291.066667" style="fill-opacity: 0.3"/>
     <use xlink:href="#me14ffd9619" x="251.6941" y="291.066667" style="fill-opacity: 0.3"/>
     <use xlink:href="#me14ffd9619" x="250.513711" y="291.066667" style="fill-opacity: 0.3"/>
     <use xlink:href="#me14ffd9619" x="264.293133" y="291.066667" style="fill-opacity: 0.3"/>
     <use xlink:href="#me14ffd9619" x="259.309086" y="291.066667" style="fill-opacity: 0.3"/>
     <use xlink:href="#me14ffd9619" x="254.742723" y="291.066667" style="fill-opacity: 0.3"/>
     <use xlink:href="#me14ffd9619" x="254.316016" y="291.066667" style="fill-opacity: 0.3"/>
     <use xlink:href="#me14ffd9619" x="255.895887" y="291.066667" style="fill-opacity: 0.3"/>
     <use xlink:href="#me14ffd9619" x="264.416349" y="282.685714" style="fill-opacity: 0.3"/>
     <use xlink:href="#me14ffd9619" x="251.953079" y="282.685714" style="fill-opacity: 0.3"/>
     <use xlink:href="#me14ffd9619" x="262.854157" y="282.685714" style="fill-opacity: 0.3"/>
     <use xlink:href="#me14ffd9619" x="253.490089" y="282.685714" style="fill-opacity: 0.3"/>
    </g>
   </g>
   <g id="PathCollection_3">
    <g clip-path="url(#p94bdf4b9c4)">
     <use xlink:href="#me14ffd9619" x="369.18309" y="286.87619" style="fill-opacity: 0.3"/>
     <use xlink:href="#me14ffd9619" x="370.654608" y="286.87619" style="fill-opacity: 0.3"/>
     <use xlink:href="#me14ffd9619" x="358.006068" y="286.87619" style="fill-opacity: 0.3"/>
     <use xlink:href="#me14ffd9619" x="362.551672" y="286.87619" style="fill-opacity: 0.3"/>
     <use xlink:href="#me14ffd9619" x="371.003056" y="303.638095" style="fill-opacity: 0.3"/>
     <use xlink:href="#me14ffd9619" x="360.087909" y="303.638095" style="fill-opacity: 0.3"/>
     <use xlink:href="#me14ffd9619" x="364.862856" y="303.638095" style="fill-opacity: 0.3"/>
     <use xlink:href="#me14ffd9619" x="371.508599" y="286.87619" style="fill-opacity: 0.3"/>
     <use xlink:href="#me14ffd9619" x="362.559535" y="303.638095" style="fill-opacity: 0.3"/>
     <use xlink:href="#me14ffd9619" x="360.282603" y="286.87619" style="fill-opacity: 0.3"/>
     <use xlink:href="#me14ffd9619" x="362.91414" y="303.638095" style="fill-opacity: 0.3"/>
     <use xlink:href="#me14ffd9619" x="370.165181" y="282.685714" style="fill-opacity: 0.3"/>
     <use xlink:href="#me14ffd9619" x="375.582984" y="282.685714" style="fill-opacity: 0.3"/>
     <use xlink:href="#me14ffd9619" x="364.095288" y="282.685714" style="fill-opacity: 0.3"/>
     <use xlink:href="#me14ffd9619" x="365.514811" y="282.685714" style="fill-opacity: 0.3"/>
     <use xlink:href="#me14ffd9619" x="372.411824" y="282.685714" style="fill-opacity: 0.3"/>
     <use xlink:href="#me14ffd9619" x="376.882175" y="282.685714" style="fill-opacity: 0.3"/>
     <use xlink:href="#me14ffd9619" x="371.38938" y="282.685714" style="fill-opacity: 0.3"/>
     <use xlink:href="#me14ffd9619" x="379.184062" y="282.685714" style="fill-opacity: 0.3"/>
     <use xlink:href="#me14ffd9619" x="378.177369" y="282.685714" style="fill-opacity: 0.3"/>
     <use xlink:href="#me14ffd9619" x="375.495108" y="282.685714" style="fill-opacity: 0.3"/>
     <use xlink:href="#me14ffd9619" x="359.599691" y="282.685714" style="fill-opacity: 0.3"/>
     <use xlink:href="#me14ffd9619" x="374.374604" y="282.685714" style="fill-opacity: 0.3"/>
     <use xlink:href="#me14ffd9619" x="361.684481" y="282.685714" style="fill-opacity: 0.3"/>
     <use xlink:href="#me14ffd9619" x="379.819026" y="282.685714" style="fill-opacity: 0.3"/>
     <use xlink:href="#me14ffd9619" x="373.313576" y="282.685714" style="fill-opacity: 0.3"/>
     <use xlink:href="#me14ffd9619" x="374.411578" y="282.685714" style="fill-opacity: 0.3"/>
     <use xlink:href="#me14ffd9619" x="360.850646" y="282.685714" style="fill-opacity: 0.3"/>
     <use xlink:href="#me14ffd9619" x="364.607424" y="282.685714" style="fill-opacity: 0.3"/>
     <use xlink:href="#me14ffd9619" x="362.78622" y="282.685714" style="fill-opacity: 0.3"/>
     <use xlink:href="#me14ffd9619" x="379.440008" y="282.685714" style="fill-opacity: 0.3"/>
     <use xlink:href="#me14ffd9619" x="368.910199" y="282.685714" style="fill-opacity: 0.3"/>
     <use xlink:href="#me14ffd9619" x="373.338486" y="282.685714" style="fill-opacity: 0.3"/>
     <use xlink:href="#me14ffd9619" x="361.107095" y="282.685714" style="fill-opacity: 0.3"/>
     <use xlink:href="#me14ffd9619" x="359.989711" y="291.066667" style="fill-opacity: 0.3"/>
     <use xlink:href="#me14ffd9619" x="358.708548" y="291.066667" style="fill-opacity: 0.3"/>
     <use xlink:href="#me14ffd9619" x="378.751132" y="291.066667" style="fill-opacity: 0.3"/>
     <use xlink:href="#me14ffd9619" x="364.418171" y="291.066667" style="fill-opacity: 0.3"/>
     <use xlink:href="#me14ffd9619" x="368.978973" y="291.066667" style="fill-opacity: 0.3"/>
     <use xlink:href="#me14ffd9619" x="367.226929" y="291.066667" style="fill-opacity: 0.3"/>
     <use xlink:href="#me14ffd9619" x="360.416357" y="282.685714" style="fill-opacity: 0.3"/>
     <use xlink:href="#me14ffd9619" x="362.403374" y="282.685714" style="fill-opacity: 0.3"/>
    </g>
   </g>
   <g id="PathCollection_4">
    <g clip-path="url(#p94bdf4b9c4)">
     <use xlink:href="#me14ffd9619" x="489.528281" y="303.638095" style="fill-opacity: 0.3"/>
     <use xlink:href="#me14ffd9619" x="469.945985" y="286.87619" style="fill-opacity: 0.3"/>
     <use xlink:href="#me14ffd9619" x="488.885543" y="282.685714" style="fill-opacity: 0.3"/>
     <use xlink:href="#me14ffd9619" x="491.410621" y="282.685714" style="fill-opacity: 0.3"/>
     <use xlink:href="#me14ffd9619" x="476.577774" y="282.685714" style="fill-opacity: 0.3"/>
     <use xlink:href="#me14ffd9619" x="484.62977" y="282.685714" style="fill-opacity: 0.3"/>
     <use xlink:href="#me14ffd9619" x="480.37703" y="282.685714" style="fill-opacity: 0.3"/>
     <use xlink:href="#me14ffd9619" x="478.81444" y="291.066667" style="fill-opacity: 0.3"/>
     <use xlink:href="#me14ffd9619" x="478.985207" y="291.066667" style="fill-opacity: 0.3"/>
     <use xlink:href="#me14ffd9619" x="480.217426" y="291.066667" style="fill-opacity: 0.3"/>
     <use xlink:href="#me14ffd9619" x="486.35554" y="291.066667" style="fill-opacity: 0.3"/>
     <use xlink:href="#me14ffd9619" x="486.866088" y="291.066667" style="fill-opacity: 0.3"/>
     <use xlink:href="#me14ffd9619" x="491.508166" y="291.066667" style="fill-opacity: 0.3"/>
     <use xlink:href="#me14ffd9619" x="488.328019" y="291.066667" style="fill-opacity: 0.3"/>
     <use xlink:href="#me14ffd9619" x="485.878252" y="291.066667" style="fill-opacity: 0.3"/>
     <use xlink:href="#me14ffd9619" x="483.462198" y="291.066667" style="fill-opacity: 0.3"/>
     <use xlink:href="#me14ffd9619" x="474.919587" y="291.066667" style="fill-opacity: 0.3"/>
     <use xlink:href="#me14ffd9619" x="485.023313" y="291.066667" style="fill-opacity: 0.3"/>
     <use xlink:href="#me14ffd9619" x="470.256719" y="282.685714" style="fill-opacity: 0.3"/>
     <use xlink:href="#me14ffd9619" x="469.61303" y="282.685714" style="fill-opacity: 0.3"/>
     <use xlink:href="#me14ffd9619" x="470.683613" y="282.685714" style="fill-opacity: 0.3"/>
     <use xlink:href="#me14ffd9619" x="483.879143" y="282.685714" style="fill-opacity: 0.3"/>
     <use xlink:href="#me14ffd9619" x="477.746098" y="282.685714" style="fill-opacity: 0.3"/>
     <use xlink:href="#me14ffd9619" x="470.923996" y="282.685714" style="fill-opacity: 0.3"/>
     <use xlink:href="#me14ffd9619" x="491.550574" y="282.685714" style="fill-opacity: 0.3"/>
     <use xlink:href="#me14ffd9619" x="474.356955" y="282.685714" style="fill-opacity: 0.3"/>
     <use xlink:href="#me14ffd9619" x="485.211209" y="282.685714" style="fill-opacity: 0.3"/>
    </g>
   </g>
   <g id="legend_1">
    <g id="patch_13">
     <path d="M 300.208594 95.234375 
L 437.791406 95.234375 
Q 439.791406 95.234375 439.791406 93.234375 
L 439.791406 50.2 
Q 439.791406 48.2 437.791406 48.2 
L 300.208594 48.2 
Q 298.208594 48.2 298.208594 50.2 
L 298.208594 93.234375 
Q 298.208594 95.234375 300.208594 95.234375 
z
" style="fill: #ffffff; opacity: 0.8; stroke: #cccccc; stroke-linejoin: miter"/>
    </g>
    <g id="text_15">
     <!-- main.experimenter.gender -->
     <g transform="translate(302.208594 59.798437) scale(0.1 -0.1)">
      <defs>
       <path id="DejaVuSans-6d" d="M 3328 2828 
Q 3544 3216 3844 3400 
Q 4144 3584 4550 3584 
Q 5097 3584 5394 3201 
Q 5691 2819 5691 2113 
L 5691 0 
L 5113 0 
L 5113 2094 
Q 5113 2597 4934 2840 
Q 4756 3084 4391 3084 
Q 3944 3084 3684 2787 
Q 3425 2491 3425 1978 
L 3425 0 
L 2847 0 
L 2847 2094 
Q 2847 2600 2669 2842 
Q 2491 3084 2119 3084 
Q 1678 3084 1418 2786 
Q 1159 2488 1159 1978 
L 1159 0 
L 581 0 
L 581 3500 
L 1159 3500 
L 1159 2956 
Q 1356 3278 1631 3431 
Q 1906 3584 2284 3584 
Q 2666 3584 2933 3390 
Q 3200 3197 3328 2828 
z
" transform="scale(0.015625)"/>
       <path id="DejaVuSans-2e" d="M 684 794 
L 1344 794 
L 1344 0 
L 684 0 
L 684 794 
z
" transform="scale(0.015625)"/>
       <path id="DejaVuSans-78" d="M 3513 3500 
L 2247 1797 
L 3578 0 
L 2900 0 
L 1881 1375 
L 863 0 
L 184 0 
L 1544 1831 
L 300 3500 
L 978 3500 
L 1906 2253 
L 2834 3500 
L 3513 3500 
z
" transform="scale(0.015625)"/>
       <path id="DejaVuSans-64" d="M 2906 2969 
L 2906 4863 
L 3481 4863 
L 3481 0 
L 2906 0 
L 2906 525 
Q 2725 213 2448 61 
Q 2172 -91 1784 -91 
Q 1150 -91 751 415 
Q 353 922 353 1747 
Q 353 2572 751 3078 
Q 1150 3584 1784 3584 
Q 2172 3584 2448 3432 
Q 2725 3281 2906 2969 
z
M 947 1747 
Q 947 1113 1208 752 
Q 1469 391 1925 391 
Q 2381 391 2643 752 
Q 2906 1113 2906 1747 
Q 2906 2381 2643 2742 
Q 2381 3103 1925 3103 
Q 1469 3103 1208 2742 
Q 947 2381 947 1747 
z
" transform="scale(0.015625)"/>
      </defs>
      <use xlink:href="#DejaVuSans-6d"/>
      <use xlink:href="#DejaVuSans-61" transform="translate(97.412109 0)"/>
      <use xlink:href="#DejaVuSans-69" transform="translate(158.691406 0)"/>
      <use xlink:href="#DejaVuSans-6e" transform="translate(186.474609 0)"/>
      <use xlink:href="#DejaVuSans-2e" transform="translate(249.853516 0)"/>
      <use xlink:href="#DejaVuSans-65" transform="translate(281.640625 0)"/>
      <use xlink:href="#DejaVuSans-78" transform="translate(341.414062 0)"/>
      <use xlink:href="#DejaVuSans-70" transform="translate(400.59375 0)"/>
      <use xlink:href="#DejaVuSans-65" transform="translate(464.070312 0)"/>
      <use xlink:href="#DejaVuSans-72" transform="translate(525.59375 0)"/>
      <use xlink:href="#DejaVuSans-69" transform="translate(566.707031 0)"/>
      <use xlink:href="#DejaVuSans-6d" transform="translate(594.490234 0)"/>
      <use xlink:href="#DejaVuSans-65" transform="translate(691.902344 0)"/>
      <use xlink:href="#DejaVuSans-6e" transform="translate(753.425781 0)"/>
      <use xlink:href="#DejaVuSans-74" transform="translate(816.804688 0)"/>
      <use xlink:href="#DejaVuSans-65" transform="translate(856.013672 0)"/>
      <use xlink:href="#DejaVuSans-72" transform="translate(917.537109 0)"/>
      <use xlink:href="#DejaVuSans-2e" transform="translate(949.525391 0)"/>
      <use xlink:href="#DejaVuSans-67" transform="translate(981.3125 0)"/>
      <use xlink:href="#DejaVuSans-65" transform="translate(1044.789062 0)"/>
      <use xlink:href="#DejaVuSans-6e" transform="translate(1106.3125 0)"/>
      <use xlink:href="#DejaVuSans-64" transform="translate(1169.691406 0)"/>
      <use xlink:href="#DejaVuSans-65" transform="translate(1233.167969 0)"/>
      <use xlink:href="#DejaVuSans-72" transform="translate(1294.691406 0)"/>
     </g>
    </g>
    <g id="patch_14">
     <path d="M 350.129687 74.476562 
L 370.129687 74.476562 
L 370.129687 67.476562 
L 350.129687 67.476562 
z
" style="fill: #3274a1"/>
    </g>
    <g id="text_16">
     <!-- f -->
     <g transform="translate(378.129687 74.476562) scale(0.1 -0.1)">
      <use xlink:href="#DejaVuSans-66"/>
     </g>
    </g>
    <g id="patch_15">
     <path d="M 350.129687 89.154688 
L 370.129687 89.154688 
L 370.129687 82.154688 
L 350.129687 82.154688 
z
" style="fill: #e1812c"/>
    </g>
    <g id="text_17">
     <!-- m -->
     <g transform="translate(378.129687 89.154688) scale(0.1 -0.1)">
      <use xlink:href="#DejaVuSans-6d"/>
     </g>
    </g>
   </g>
  </g>
 </g>
 <defs>
  <clipPath id="p94bdf4b9c4">
   <rect x="90" y="43.2" width="558" height="277.2"/>
  </clipPath>
 </defs>
</svg>
