<?xml version="1.0" encoding="utf-8" standalone="no"?>
<!DOCTYPE svg PUBLIC "-//W3C//DTD SVG 1.1//EN"
  "http://www.w3.org/Graphics/SVG/1.1/DTD/svg11.dtd">
<svg xmlns:xlink="http://www.w3.org/1999/xlink" width="720pt" height="360pt" viewBox="0 0 720 360" xmlns="http://www.w3.org/2000/svg" version="1.1">
 <metadata>
  <rdf:RDF xmlns:dc="http://purl.org/dc/elements/1.1/" xmlns:cc="http://creativecommons.org/ns#" xmlns:rdf="http://www.w3.org/1999/02/22-rdf-syntax-ns#">
   <cc:Work>
    <dc:type rdf:resource="http://purl.org/dc/dcmitype/StillImage"/>
    <dc:date>2025-11-14T11:47:24.850118</dc:date>
    <dc:format>image/svg+xml</dc:format>
    <dc:creator>
     <cc:Agent>
      <dc:title>Matplotlib v3.10.5, https://matplotlib.org/</dc:title>
     </cc:Agent>
    </dc:creator>
   </cc:Work>
  </rdf:RDF>
 </metadata>
 <defs>
  <style type="text/css">*{stroke-linejoin: round; stroke-linecap: butt}</style>
 </defs>
 <g id="figure_1">
  <g id="patch_1">
   <path d="M 0 360 
L 720 360 
L 720 0 
L 0 0 
z
" style="fill: #ffffff"/>
  </g>
  <g id="axes_1">
   <g id="patch_2">
    <path d="M 90 320.4 
L 648 320.4 
L 648 43.2 
L 90 43.2 
z
" style="fill: #ffffff"/>
   </g>
   <g id="FillBetweenPolyCollection_1">
    <defs>
     <path id="mca12eae425" d="M 231.116356 -52.2 
L 227.883644 -52.2 
L 227.369219 -54.745455 
L 226.748157 -57.290909 
L 226.0183 -59.836364 
L 225.18439 -62.381818 
L 224.259459 -64.927273 
L 223.265623 -67.472727 
L 222.23404 -70.018182 
L 221.203861 -72.563636 
L 220.220125 -75.109091 
L 219.330696 -77.654545 
L 218.582496 -80.2 
L 218.017444 -82.745455 
L 217.668582 -85.290909 
L 217.556872 -87.836364 
L 217.689115 -90.381818 
L 218.057264 -92.927273 
L 218.639235 -95.472727 
L 219.401097 -98.018182 
L 220.300347 -100.563636 
L 221.289818 -103.109091 
L 222.321731 -105.654545 
L 223.351407 -108.2 
L 224.340241 -110.745455 
L 225.257703 -113.290909 
L 226.082255 -115.836364 
L 226.80125 -118.381818 
L 227.409978 -120.927273 
L 227.910083 -123.472727 
L 228.307612 -126.018182 
L 228.610912 -128.563636 
L 228.828544 -131.109091 
L 228.967311 -133.654545 
L 229.030464 -136.2 
L 229.016077 -138.745455 
L 228.9156 -141.290909 
L 228.712619 -143.836364 
L 228.381905 -146.381818 
L 227.888897 -148.927273 
L 227.189854 -151.472727 
L 226.232952 -154.018182 
L 224.960603 -156.563636 
L 223.313237 -159.109091 
L 221.234621 -161.654545 
L 218.678585 -164.2 
L 215.616715 -166.745455 
L 212.046272 -169.290909 
L 207.997296 -171.836364 
L 203.537694 -174.381818 
L 198.775077 -176.927273 
L 193.854362 -179.472727 
L 188.950587 -182.018182 
L 184.257049 -184.563636 
L 179.969644 -187.109091 
L 176.269012 -189.654545 
L 173.30267 -192.2 
L 171.169551 -194.745455 
L 169.909236 -197.290909 
L 169.497569 -199.836364 
L 169.84946 -202.381818 
L 170.828534 -204.927273 
L 172.262193 -207.472727 
L 173.959743 -210.018182 
L 175.730764 -212.563636 
L 177.400888 -215.109091 
L 178.822736 -217.654545 
L 179.880694 -220.2 
L 180.489482 -222.745455 
L 180.587701 -225.290909 
L 180.12858 -227.836364 
L 179.07075 -230.381818 
L 177.371907 -232.927273 
L 174.987637 -235.472727 
L 171.876663 -238.018182 
L 168.012289 -240.563636 
L 163.398417 -243.109091 
L 158.087222 -245.654545 
L 152.194782 -248.2 
L 145.910894 -250.745455 
L 139.499887 -253.290909 
L 133.290574 -255.836364 
L 127.655244 -258.381818 
L 122.97949 -260.927273 
L 119.626428 -263.472727 
L 117.9 -266.018182 
L 118.012497 -268.563636 
L 120.06093 -271.109091 
L 124.015635 -273.654545 
L 129.722659 -276.2 
L 136.919396 -278.745455 
L 145.261049 -281.290909 
L 154.354069 -283.836364 
L 163.791995 -286.381818 
L 173.189186 -288.927273 
L 182.208693 -291.472727 
L 190.581748 -294.018182 
L 198.117848 -296.563636 
L 204.705764 -299.109091 
L 210.30698 -301.654545 
L 214.943734 -304.2 
L 244.056266 -304.2 
L 244.056266 -304.2 
L 248.69302 -301.654545 
L 254.294236 -299.109091 
L 260.882152 -296.563636 
L 268.418252 -294.018182 
L 276.791307 -291.472727 
L 285.810814 -288.927273 
L 295.208005 -286.381818 
L 304.645931 -283.836364 
L 313.738951 -281.290909 
L 322.080604 -278.745455 
L 329.277341 -276.2 
L 334.984365 -273.654545 
L 338.93907 -271.109091 
L 340.987503 -268.563636 
L 341.1 -266.018182 
L 339.373572 -263.472727 
L 336.02051 -260.927273 
L 331.344756 -258.381818 
L 325.709426 -255.836364 
L 319.500113 -253.290909 
L 313.089106 -250.745455 
L 306.805218 -248.2 
L 300.912778 -245.654545 
L 295.601583 -243.109091 
L 290.987711 -240.563636 
L 287.123337 -238.018182 
L 284.012363 -235.472727 
L 281.628093 -232.927273 
L 279.92925 -230.381818 
L 278.87142 -227.836364 
L 278.412299 -225.290909 
L 278.510518 -222.745455 
L 279.119306 -220.2 
L 280.177264 -217.654545 
L 281.599112 -215.109091 
L 283.269236 -212.563636 
L 285.040257 -210.018182 
L 286.737807 -207.472727 
L 288.171466 -204.927273 
L 289.15054 -202.381818 
L 289.502431 -199.836364 
L 289.090764 -197.290909 
L 287.830449 -194.745455 
L 285.69733 -192.2 
L 282.730988 -189.654545 
L 279.030356 -187.109091 
L 274.742951 -184.563636 
L 270.049413 -182.018182 
L 265.145638 -179.472727 
L 260.224923 -176.927273 
L 255.462306 -174.381818 
L 251.002704 -171.836364 
L 246.953728 -169.290909 
L 243.383285 -166.745455 
L 240.321415 -164.2 
L 237.765379 -161.654545 
L 235.686763 -159.109091 
L 234.039397 -156.563636 
L 232.767048 -154.018182 
L 231.810146 -151.472727 
L 231.111103 -148.927273 
L 230.618095 -146.381818 
L 230.287381 -143.836364 
L 230.0844 -141.290909 
L 229.983923 -138.745455 
L 229.969536 -136.2 
L 230.032689 -133.654545 
L 230.171456 -131.109091 
L 230.389088 -128.563636 
L 230.692388 -126.018182 
L 231.089917 -123.472727 
L 231.590022 -120.927273 
L 232.19875 -118.381818 
L 232.917745 -115.836364 
L 233.742297 -113.290909 
L 234.659759 -110.745455 
L 235.648593 -108.2 
L 236.678269 -105.654545 
L 237.710182 -103.109091 
L 238.699653 -100.563636 
L 239.598903 -98.018182 
L 240.360765 -95.472727 
L 240.942736 -92.927273 
L 241.310885 -90.381818 
L 241.443128 -87.836364 
L 241.331418 -85.290909 
L 240.982556 -82.745455 
L 240.417504 -80.2 
L 239.669304 -77.654545 
L 238.779875 -75.109091 
L 237.796139 -72.563636 
L 236.76596 -70.018182 
L 235.734377 -67.472727 
L 234.740541 -64.927273 
L 233.81561 -62.381818 
L 232.9817 -59.836364 
L 232.251843 -57.290909 
L 231.630781 -54.745455 
L 231.116356 -52.2 
z
" style="stroke: #3f3f3f; stroke-width: 1.25"/>
    </defs>
    <g clip-path="url(#pcfb60f16a3)">
     <use xlink:href="#mca12eae425" x="0" y="360" style="fill: #3274a1; stroke: #3f3f3f; stroke-width: 1.25"/>
    </g>
   </g>
   <g id="FillBetweenPolyCollection_2">
    <defs>
     <path id="m9ca63974cf" d="M 509.670397 -53.843381 
L 507.329603 -53.843381 
L 506.942768 -56.355636 
L 506.473137 -58.867891 
L 505.919246 -61.380146 
L 505.285451 -63.892401 
L 504.583079 -66.404656 
L 503.831035 -68.916911 
L 503.055629 -71.429166 
L 502.289508 -73.941421 
L 501.569646 -76.453676 
L 500.934526 -78.965931 
L 500.420807 -81.478186 
L 500.059833 -83.99044 
L 499.874479 -86.502695 
L 499.876754 -89.01495 
L 500.066508 -91.527205 
L 500.431453 -94.03946 
L 500.948479 -96.551715 
L 501.586072 -99.06397 
L 502.307491 -101.576225 
L 503.074245 -104.08848 
L 503.849428 -106.600735 
L 504.600513 -109.11299 
L 505.30133 -111.625245 
L 505.93311 -114.1375 
L 506.484604 -116.649754 
L 506.951431 -119.162009 
L 507.334856 -121.674264 
L 507.640231 -124.186519 
L 507.875322 -126.698774 
L 508.048676 -129.211029 
L 508.16812 -131.723284 
L 508.239417 -134.235539 
L 508.265053 -136.747794 
L 508.243103 -139.260049 
L 508.166113 -141.772304 
L 508.020001 -144.284559 
L 507.783006 -146.796813 
L 507.424839 -149.309068 
L 506.906252 -151.821323 
L 506.179335 -154.333578 
L 505.188905 -156.845833 
L 503.875324 -159.358088 
L 502.17896 -161.870343 
L 500.046324 -164.382598 
L 497.4376 -166.894853 
L 494.334885 -169.407108 
L 490.750151 -171.919363 
L 486.731567 -174.431618 
L 482.366789 -176.943873 
L 477.781898 -179.456127 
L 473.135149 -181.968382 
L 468.605384 -184.480637 
L 464.375885 -186.992892 
L 460.615365 -189.505147 
L 457.458605 -192.017402 
L 454.989646 -194.529657 
L 453.230427 -197.041912 
L 452.137085 -199.554167 
L 451.605079 -202.066422 
L 451.482814 -204.578677 
L 451.591934 -207.090932 
L 451.751193 -209.603187 
L 451.799969 -212.115441 
L 451.61744 -214.627696 
L 451.134035 -217.139951 
L 450.333132 -219.652206 
L 449.242723 -222.164461 
L 447.918667 -224.676716 
L 446.422858 -227.188971 
L 444.800752 -229.701226 
L 443.063038 -232.213481 
L 441.175662 -234.725736 
L 439.061029 -237.237991 
L 436.611127 -239.750246 
L 433.711056 -242.2625 
L 430.269248 -244.774755 
L 426.249088 -247.28701 
L 421.695937 -249.799265 
L 416.753951 -252.31152 
L 411.668539 -254.823775 
L 406.772626 -257.33603 
L 402.457617 -259.848285 
L 399.132693 -262.36054 
L 397.178191 -264.872795 
L 396.9 -267.38505 
L 398.491812 -269.897305 
L 402.01085 -272.40956 
L 407.370425 -274.921814 
L 414.349932 -277.434069 
L 422.620196 -279.946324 
L 431.779783 -282.458579 
L 441.396649 -284.970834 
L 451.049149 -287.483089 
L 460.361246 -289.995344 
L 469.028216 -292.507599 
L 476.831044 -295.019854 
L 483.639623 -297.532109 
L 489.406387 -300.044364 
L 494.153035 -302.556619 
L 522.846965 -302.556619 
L 522.846965 -302.556619 
L 527.593613 -300.044364 
L 533.360377 -297.532109 
L 540.168956 -295.019854 
L 547.971784 -292.507599 
L 556.638754 -289.995344 
L 565.950851 -287.483089 
L 575.603351 -284.970834 
L 585.220217 -282.458579 
L 594.379804 -279.946324 
L 602.650068 -277.434069 
L 609.629575 -274.921814 
L 614.98915 -272.40956 
L 618.508188 -269.897305 
L 620.1 -267.38505 
L 619.821809 -264.872795 
L 617.867307 -262.36054 
L 614.542383 -259.848285 
L 610.227374 -257.33603 
L 605.331461 -254.823775 
L 600.246049 -252.31152 
L 595.304063 -249.799265 
L 590.750912 -247.28701 
L 586.730752 -244.774755 
L 583.288944 -242.2625 
L 580.388873 -239.750246 
L 577.938971 -237.237991 
L 575.824338 -234.725736 
L 573.936962 -232.213481 
L 572.199248 -229.701226 
L 570.577142 -227.188971 
L 569.081333 -224.676716 
L 567.757277 -222.164461 
L 566.666868 -219.652206 
L 565.865965 -217.139951 
L 565.38256 -214.627696 
L 565.200031 -212.115441 
L 565.248807 -209.603187 
L 565.408066 -207.090932 
L 565.517186 -204.578677 
L 565.394921 -202.066422 
L 564.862915 -199.554167 
L 563.769573 -197.041912 
L 562.010354 -194.529657 
L 559.541395 -192.017402 
L 556.384635 -189.505147 
L 552.624115 -186.992892 
L 548.394616 -184.480637 
L 543.864851 -181.968382 
L 539.218102 -179.456127 
L 534.633211 -176.943873 
L 530.268433 -174.431618 
L 526.249849 -171.919363 
L 522.665115 -169.407108 
L 519.5624 -166.894853 
L 516.953676 -164.382598 
L 514.82104 -161.870343 
L 513.124676 -159.358088 
L 511.811095 -156.845833 
L 510.820665 -154.333578 
L 510.093748 -151.821323 
L 509.575161 -149.309068 
L 509.216994 -146.796813 
L 508.979999 -144.284559 
L 508.833887 -141.772304 
L 508.756897 -139.260049 
L 508.734947 -136.747794 
L 508.760583 -134.235539 
L 508.83188 -131.723284 
L 508.951324 -129.211029 
L 509.124678 -126.698774 
L 509.359769 -124.186519 
L 509.665144 -121.674264 
L 510.048569 -119.162009 
L 510.515396 -116.649754 
L 511.06689 -114.1375 
L 511.69867 -111.625245 
L 512.399487 -109.11299 
L 513.150572 -106.600735 
L 513.925755 -104.08848 
L 514.692509 -101.576225 
L 515.413928 -99.06397 
L 516.051521 -96.551715 
L 516.568547 -94.03946 
L 516.933492 -91.527205 
L 517.123246 -89.01495 
L 517.125521 -86.502695 
L 516.940167 -83.99044 
L 516.579193 -81.478186 
L 516.065474 -78.965931 
L 515.430354 -76.453676 
L 514.710492 -73.941421 
L 513.944371 -71.429166 
L 513.168965 -68.916911 
L 512.416921 -66.404656 
L 511.714549 -63.892401 
L 511.080754 -61.380146 
L 510.526863 -58.867891 
L 510.057232 -56.355636 
L 509.670397 -53.843381 
z
" style="stroke: #3f3f3f; stroke-width: 1.25"/>
    </defs>
    <g clip-path="url(#pcfb60f16a3)">
     <use xlink:href="#m9ca63974cf" x="0" y="360" style="fill: #e1812c; stroke: #3f3f3f; stroke-width: 1.25"/>
    </g>
   </g>
   <g id="matplotlib.axis_1">
    <g id="xtick_1">
     <g id="line2d_1">
      <defs>
       <path id="md5d73db823" d="M 0 0 
L 0 3.5 
" style="stroke: #000000; stroke-width: 0.8"/>
      </defs>
      <g>
       <use xlink:href="#md5d73db823" x="229.5" y="320.4" style="stroke: #000000; stroke-width: 0.8"/>
      </g>
     </g>
     <g id="text_1">
      <!-- other -->
      <g transform="translate(216.179688 334.998438) scale(0.1 -0.1)">
       <defs>
        <path id="DejaVuSans-6f" d="M 1959 3097 
Q 1497 3097 1228 2736 
Q 959 2375 959 1747 
Q 959 1119 1226 758 
Q 1494 397 1959 397 
Q 2419 397 2687 759 
Q 2956 1122 2956 1747 
Q 2956 2369 2687 2733 
Q 2419 3097 1959 3097 
z
M 1959 3584 
Q 2709 3584 3137 3096 
Q 3566 2609 3566 1747 
Q 3566 888 3137 398 
Q 2709 -91 1959 -91 
Q 1206 -91 779 398 
Q 353 888 353 1747 
Q 353 2609 779 3096 
Q 1206 3584 1959 3584 
z
" transform="scale(0.015625)"/>
        <path id="DejaVuSans-74" d="M 1172 4494 
L 1172 3500 
L 2356 3500 
L 2356 3053 
L 1172 3053 
L 1172 1153 
Q 1172 725 1289 603 
Q 1406 481 1766 481 
L 2356 481 
L 2356 0 
L 1766 0 
Q 1100 0 847 248 
Q 594 497 594 1153 
L 594 3053 
L 172 3053 
L 172 3500 
L 594 3500 
L 594 4494 
L 1172 4494 
z
" transform="scale(0.015625)"/>
        <path id="DejaVuSans-68" d="M 3513 2113 
L 3513 0 
L 2938 0 
L 2938 2094 
Q 2938 2591 2744 2837 
Q 2550 3084 2163 3084 
Q 1697 3084 1428 2787 
Q 1159 2491 1159 1978 
L 1159 0 
L 581 0 
L 581 4863 
L 1159 4863 
L 1159 2956 
Q 1366 3272 1645 3428 
Q 1925 3584 2291 3584 
Q 2894 3584 3203 3211 
Q 3513 2838 3513 2113 
z
" transform="scale(0.015625)"/>
        <path id="DejaVuSans-65" d="M 3597 1894 
L 3597 1613 
L 953 1613 
Q 991 1019 1311 708 
Q 1631 397 2203 397 
Q 2534 397 2845 478 
Q 3156 559 3463 722 
L 3463 178 
Q 3153 47 2828 -22 
Q 2503 -91 2169 -91 
Q 1331 -91 842 396 
Q 353 884 353 1716 
Q 353 2575 817 3079 
Q 1281 3584 2069 3584 
Q 2775 3584 3186 3129 
Q 3597 2675 3597 1894 
z
M 3022 2063 
Q 3016 2534 2758 2815 
Q 2500 3097 2075 3097 
Q 1594 3097 1305 2825 
Q 1016 2553 972 2059 
L 3022 2063 
z
" transform="scale(0.015625)"/>
        <path id="DejaVuSans-72" d="M 2631 2963 
Q 2534 3019 2420 3045 
Q 2306 3072 2169 3072 
Q 1681 3072 1420 2755 
Q 1159 2438 1159 1844 
L 1159 0 
L 581 0 
L 581 3500 
L 1159 3500 
L 1159 2956 
Q 1341 3275 1631 3429 
Q 1922 3584 2338 3584 
Q 2397 3584 2469 3576 
Q 2541 3569 2628 3553 
L 2631 2963 
z
" transform="scale(0.015625)"/>
       </defs>
       <use xlink:href="#DejaVuSans-6f"/>
       <use xlink:href="#DejaVuSans-74" transform="translate(61.181641 0)"/>
       <use xlink:href="#DejaVuSans-68" transform="translate(100.390625 0)"/>
       <use xlink:href="#DejaVuSans-65" transform="translate(163.769531 0)"/>
       <use xlink:href="#DejaVuSans-72" transform="translate(225.292969 0)"/>
      </g>
     </g>
    </g>
    <g id="xtick_2">
     <g id="line2d_2">
      <g>
       <use xlink:href="#md5d73db823" x="508.5" y="320.4" style="stroke: #000000; stroke-width: 0.8"/>
      </g>
     </g>
     <g id="text_2">
      <!-- Specific -->
      <g transform="translate(489.038281 334.998438) scale(0.1 -0.1)">
       <defs>
        <path id="DejaVuSans-53" d="M 3425 4513 
L 3425 3897 
Q 3066 4069 2747 4153 
Q 2428 4238 2131 4238 
Q 1616 4238 1336 4038 
Q 1056 3838 1056 3469 
Q 1056 3159 1242 3001 
Q 1428 2844 1947 2747 
L 2328 2669 
Q 3034 2534 3370 2195 
Q 3706 1856 3706 1288 
Q 3706 609 3251 259 
Q 2797 -91 1919 -91 
Q 1588 -91 1214 -16 
Q 841 59 441 206 
L 441 856 
Q 825 641 1194 531 
Q 1563 422 1919 422 
Q 2459 422 2753 634 
Q 3047 847 3047 1241 
Q 3047 1584 2836 1778 
Q 2625 1972 2144 2069 
L 1759 2144 
Q 1053 2284 737 2584 
Q 422 2884 422 3419 
Q 422 4038 858 4394 
Q 1294 4750 2059 4750 
Q 2388 4750 2728 4690 
Q 3069 4631 3425 4513 
z
" transform="scale(0.015625)"/>
        <path id="DejaVuSans-70" d="M 1159 525 
L 1159 -1331 
L 581 -1331 
L 581 3500 
L 1159 3500 
L 1159 2969 
Q 1341 3281 1617 3432 
Q 1894 3584 2278 3584 
Q 2916 3584 3314 3078 
Q 3713 2572 3713 1747 
Q 3713 922 3314 415 
Q 2916 -91 2278 -91 
Q 1894 -91 1617 61 
Q 1341 213 1159 525 
z
M 3116 1747 
Q 3116 2381 2855 2742 
Q 2594 3103 2138 3103 
Q 1681 3103 1420 2742 
Q 1159 2381 1159 1747 
Q 1159 1113 1420 752 
Q 1681 391 2138 391 
Q 2594 391 2855 752 
Q 3116 1113 3116 1747 
z
" transform="scale(0.015625)"/>
        <path id="DejaVuSans-63" d="M 3122 3366 
L 3122 2828 
Q 2878 2963 2633 3030 
Q 2388 3097 2138 3097 
Q 1578 3097 1268 2742 
Q 959 2388 959 1747 
Q 959 1106 1268 751 
Q 1578 397 2138 397 
Q 2388 397 2633 464 
Q 2878 531 3122 666 
L 3122 134 
Q 2881 22 2623 -34 
Q 2366 -91 2075 -91 
Q 1284 -91 818 406 
Q 353 903 353 1747 
Q 353 2603 823 3093 
Q 1294 3584 2113 3584 
Q 2378 3584 2631 3529 
Q 2884 3475 3122 3366 
z
" transform="scale(0.015625)"/>
        <path id="DejaVuSans-69" d="M 603 3500 
L 1178 3500 
L 1178 0 
L 603 0 
L 603 3500 
z
M 603 4863 
L 1178 4863 
L 1178 4134 
L 603 4134 
L 603 4863 
z
" transform="scale(0.015625)"/>
        <path id="DejaVuSans-66" d="M 2375 4863 
L 2375 4384 
L 1825 4384 
Q 1516 4384 1395 4259 
Q 1275 4134 1275 3809 
L 1275 3500 
L 2222 3500 
L 2222 3053 
L 1275 3053 
L 1275 0 
L 697 0 
L 697 3053 
L 147 3053 
L 147 3500 
L 697 3500 
L 697 3744 
Q 697 4328 969 4595 
Q 1241 4863 1831 4863 
L 2375 4863 
z
" transform="scale(0.015625)"/>
       </defs>
       <use xlink:href="#DejaVuSans-53"/>
       <use xlink:href="#DejaVuSans-70" transform="translate(63.476562 0)"/>
       <use xlink:href="#DejaVuSans-65" transform="translate(126.953125 0)"/>
       <use xlink:href="#DejaVuSans-63" transform="translate(188.476562 0)"/>
       <use xlink:href="#DejaVuSans-69" transform="translate(243.457031 0)"/>
       <use xlink:href="#DejaVuSans-66" transform="translate(271.240234 0)"/>
       <use xlink:href="#DejaVuSans-69" transform="translate(306.445312 0)"/>
       <use xlink:href="#DejaVuSans-63" transform="translate(334.228516 0)"/>
      </g>
     </g>
    </g>
    <g id="text_3">
     <!-- Connectivity category -->
     <g transform="translate(313.98125 348.676562) scale(0.1 -0.1)">
      <defs>
       <path id="DejaVuSans-43" d="M 4122 4306 
L 4122 3641 
Q 3803 3938 3442 4084 
Q 3081 4231 2675 4231 
Q 1875 4231 1450 3742 
Q 1025 3253 1025 2328 
Q 1025 1406 1450 917 
Q 1875 428 2675 428 
Q 3081 428 3442 575 
Q 3803 722 4122 1019 
L 4122 359 
Q 3791 134 3420 21 
Q 3050 -91 2638 -91 
Q 1578 -91 968 557 
Q 359 1206 359 2328 
Q 359 3453 968 4101 
Q 1578 4750 2638 4750 
Q 3056 4750 3426 4639 
Q 3797 4528 4122 4306 
z
" transform="scale(0.015625)"/>
       <path id="DejaVuSans-6e" d="M 3513 2113 
L 3513 0 
L 2938 0 
L 2938 2094 
Q 2938 2591 2744 2837 
Q 2550 3084 2163 3084 
Q 1697 3084 1428 2787 
Q 1159 2491 1159 1978 
L 1159 0 
L 581 0 
L 581 3500 
L 1159 3500 
L 1159 2956 
Q 1366 3272 1645 3428 
Q 1925 3584 2291 3584 
Q 2894 3584 3203 3211 
Q 3513 2838 3513 2113 
z
" transform="scale(0.015625)"/>
       <path id="DejaVuSans-76" d="M 191 3500 
L 800 3500 
L 1894 563 
L 2988 3500 
L 3597 3500 
L 2284 0 
L 1503 0 
L 191 3500 
z
" transform="scale(0.015625)"/>
       <path id="DejaVuSans-79" d="M 2059 -325 
Q 1816 -950 1584 -1140 
Q 1353 -1331 966 -1331 
L 506 -1331 
L 506 -850 
L 844 -850 
Q 1081 -850 1212 -737 
Q 1344 -625 1503 -206 
L 1606 56 
L 191 3500 
L 800 3500 
L 1894 763 
L 2988 3500 
L 3597 3500 
L 2059 -325 
z
" transform="scale(0.015625)"/>
       <path id="DejaVuSans-20" transform="scale(0.015625)"/>
       <path id="DejaVuSans-61" d="M 2194 1759 
Q 1497 1759 1228 1600 
Q 959 1441 959 1056 
Q 959 750 1161 570 
Q 1363 391 1709 391 
Q 2188 391 2477 730 
Q 2766 1069 2766 1631 
L 2766 1759 
L 2194 1759 
z
M 3341 1997 
L 3341 0 
L 2766 0 
L 2766 531 
Q 2569 213 2275 61 
Q 1981 -91 1556 -91 
Q 1019 -91 701 211 
Q 384 513 384 1019 
Q 384 1609 779 1909 
Q 1175 2209 1959 2209 
L 2766 2209 
L 2766 2266 
Q 2766 2663 2505 2880 
Q 2244 3097 1772 3097 
Q 1472 3097 1187 3025 
Q 903 2953 641 2809 
L 641 3341 
Q 956 3463 1253 3523 
Q 1550 3584 1831 3584 
Q 2591 3584 2966 3190 
Q 3341 2797 3341 1997 
z
" transform="scale(0.015625)"/>
       <path id="DejaVuSans-67" d="M 2906 1791 
Q 2906 2416 2648 2759 
Q 2391 3103 1925 3103 
Q 1463 3103 1205 2759 
Q 947 2416 947 1791 
Q 947 1169 1205 825 
Q 1463 481 1925 481 
Q 2391 481 2648 825 
Q 2906 1169 2906 1791 
z
M 3481 434 
Q 3481 -459 3084 -895 
Q 2688 -1331 1869 -1331 
Q 1566 -1331 1297 -1286 
Q 1028 -1241 775 -1147 
L 775 -588 
Q 1028 -725 1275 -790 
Q 1522 -856 1778 -856 
Q 2344 -856 2625 -561 
Q 2906 -266 2906 331 
L 2906 616 
Q 2728 306 2450 153 
Q 2172 0 1784 0 
Q 1141 0 747 490 
Q 353 981 353 1791 
Q 353 2603 747 3093 
Q 1141 3584 1784 3584 
Q 2172 3584 2450 3431 
Q 2728 3278 2906 2969 
L 2906 3500 
L 3481 3500 
L 3481 434 
z
" transform="scale(0.015625)"/>
      </defs>
      <use xlink:href="#DejaVuSans-43"/>
      <use xlink:href="#DejaVuSans-6f" transform="translate(69.824219 0)"/>
      <use xlink:href="#DejaVuSans-6e" transform="translate(131.005859 0)"/>
      <use xlink:href="#DejaVuSans-6e" transform="translate(194.384766 0)"/>
      <use xlink:href="#DejaVuSans-65" transform="translate(257.763672 0)"/>
      <use xlink:href="#DejaVuSans-63" transform="translate(319.287109 0)"/>
      <use xlink:href="#DejaVuSans-74" transform="translate(374.267578 0)"/>
      <use xlink:href="#DejaVuSans-69" transform="translate(413.476562 0)"/>
      <use xlink:href="#DejaVuSans-76" transform="translate(441.259766 0)"/>
      <use xlink:href="#DejaVuSans-69" transform="translate(500.439453 0)"/>
      <use xlink:href="#DejaVuSans-74" transform="translate(528.222656 0)"/>
      <use xlink:href="#DejaVuSans-79" transform="translate(567.431641 0)"/>
      <use xlink:href="#DejaVuSans-20" transform="translate(626.611328 0)"/>
      <use xlink:href="#DejaVuSans-63" transform="translate(658.398438 0)"/>
      <use xlink:href="#DejaVuSans-61" transform="translate(713.378906 0)"/>
      <use xlink:href="#DejaVuSans-74" transform="translate(774.658203 0)"/>
      <use xlink:href="#DejaVuSans-65" transform="translate(813.867188 0)"/>
      <use xlink:href="#DejaVuSans-67" transform="translate(875.390625 0)"/>
      <use xlink:href="#DejaVuSans-6f" transform="translate(938.867188 0)"/>
      <use xlink:href="#DejaVuSans-72" transform="translate(1000.048828 0)"/>
      <use xlink:href="#DejaVuSans-79" transform="translate(1041.162109 0)"/>
     </g>
    </g>
   </g>
   <g id="matplotlib.axis_2">
    <g id="ytick_1">
     <g id="line2d_3">
      <defs>
       <path id="m7780cb4748" d="M 0 0 
L -3.5 0 
" style="stroke: #000000; stroke-width: 0.8"/>
      </defs>
      <g>
       <use xlink:href="#m7780cb4748" x="90" y="308.459836" style="stroke: #000000; stroke-width: 0.8"/>
      </g>
     </g>
     <g id="text_4">
      <!-- 3 -->
      <g transform="translate(76.6375 312.259054) scale(0.1 -0.1)">
       <defs>
        <path id="DejaVuSans-33" d="M 2597 2516 
Q 3050 2419 3304 2112 
Q 3559 1806 3559 1356 
Q 3559 666 3084 287 
Q 2609 -91 1734 -91 
Q 1441 -91 1130 -33 
Q 819 25 488 141 
L 488 750 
Q 750 597 1062 519 
Q 1375 441 1716 441 
Q 2309 441 2620 675 
Q 2931 909 2931 1356 
Q 2931 1769 2642 2001 
Q 2353 2234 1838 2234 
L 1294 2234 
L 1294 2753 
L 1863 2753 
Q 2328 2753 2575 2939 
Q 2822 3125 2822 3475 
Q 2822 3834 2567 4026 
Q 2313 4219 1838 4219 
Q 1578 4219 1281 4162 
Q 984 4106 628 3988 
L 628 4550 
Q 988 4650 1302 4700 
Q 1616 4750 1894 4750 
Q 2613 4750 3031 4423 
Q 3450 4097 3450 3541 
Q 3450 3153 3228 2886 
Q 3006 2619 2597 2516 
z
" transform="scale(0.015625)"/>
       </defs>
       <use xlink:href="#DejaVuSans-33"/>
      </g>
     </g>
    </g>
    <g id="ytick_2">
     <g id="line2d_4">
      <g>
       <use xlink:href="#m7780cb4748" x="90" y="272.271311" style="stroke: #000000; stroke-width: 0.8"/>
      </g>
     </g>
     <g id="text_5">
      <!-- 4 -->
      <g transform="translate(76.6375 276.07053) scale(0.1 -0.1)">
       <defs>
        <path id="DejaVuSans-34" d="M 2419 4116 
L 825 1625 
L 2419 1625 
L 2419 4116 
z
M 2253 4666 
L 3047 4666 
L 3047 1625 
L 3713 1625 
L 3713 1100 
L 3047 1100 
L 3047 0 
L 2419 0 
L 2419 1100 
L 313 1100 
L 313 1709 
L 2253 4666 
z
" transform="scale(0.015625)"/>
       </defs>
       <use xlink:href="#DejaVuSans-34"/>
      </g>
     </g>
    </g>
    <g id="ytick_3">
     <g id="line2d_5">
      <g>
       <use xlink:href="#m7780cb4748" x="90" y="236.082787" style="stroke: #000000; stroke-width: 0.8"/>
      </g>
     </g>
     <g id="text_6">
      <!-- 5 -->
      <g transform="translate(76.6375 239.882005) scale(0.1 -0.1)">
       <defs>
        <path id="DejaVuSans-35" d="M 691 4666 
L 3169 4666 
L 3169 4134 
L 1269 4134 
L 1269 2991 
Q 1406 3038 1543 3061 
Q 1681 3084 1819 3084 
Q 2600 3084 3056 2656 
Q 3513 2228 3513 1497 
Q 3513 744 3044 326 
Q 2575 -91 1722 -91 
Q 1428 -91 1123 -41 
Q 819 9 494 109 
L 494 744 
Q 775 591 1075 516 
Q 1375 441 1709 441 
Q 2250 441 2565 725 
Q 2881 1009 2881 1497 
Q 2881 1984 2565 2268 
Q 2250 2553 1709 2553 
Q 1456 2553 1204 2497 
Q 953 2441 691 2322 
L 691 4666 
z
" transform="scale(0.015625)"/>
       </defs>
       <use xlink:href="#DejaVuSans-35"/>
      </g>
     </g>
    </g>
    <g id="ytick_4">
     <g id="line2d_6">
      <g>
       <use xlink:href="#m7780cb4748" x="90" y="199.894262" style="stroke: #000000; stroke-width: 0.8"/>
      </g>
     </g>
     <g id="text_7">
      <!-- 6 -->
      <g transform="translate(76.6375 203.693481) scale(0.1 -0.1)">
       <defs>
        <path id="DejaVuSans-36" d="M 2113 2584 
Q 1688 2584 1439 2293 
Q 1191 2003 1191 1497 
Q 1191 994 1439 701 
Q 1688 409 2113 409 
Q 2538 409 2786 701 
Q 3034 994 3034 1497 
Q 3034 2003 2786 2293 
Q 2538 2584 2113 2584 
z
M 3366 4563 
L 3366 3988 
Q 3128 4100 2886 4159 
Q 2644 4219 2406 4219 
Q 1781 4219 1451 3797 
Q 1122 3375 1075 2522 
Q 1259 2794 1537 2939 
Q 1816 3084 2150 3084 
Q 2853 3084 3261 2657 
Q 3669 2231 3669 1497 
Q 3669 778 3244 343 
Q 2819 -91 2113 -91 
Q 1303 -91 875 529 
Q 447 1150 447 2328 
Q 447 3434 972 4092 
Q 1497 4750 2381 4750 
Q 2619 4750 2861 4703 
Q 3103 4656 3366 4563 
z
" transform="scale(0.015625)"/>
       </defs>
       <use xlink:href="#DejaVuSans-36"/>
      </g>
     </g>
    </g>
    <g id="ytick_5">
     <g id="line2d_7">
      <g>
       <use xlink:href="#m7780cb4748" x="90" y="163.705738" style="stroke: #000000; stroke-width: 0.8"/>
      </g>
     </g>
     <g id="text_8">
      <!-- 7 -->
      <g transform="translate(76.6375 167.504957) scale(0.1 -0.1)">
       <defs>
        <path id="DejaVuSans-37" d="M 525 4666 
L 3525 4666 
L 3525 4397 
L 1831 0 
L 1172 0 
L 2766 4134 
L 525 4134 
L 525 4666 
z
" transform="scale(0.015625)"/>
       </defs>
       <use xlink:href="#DejaVuSans-37"/>
      </g>
     </g>
    </g>
    <g id="ytick_6">
     <g id="line2d_8">
      <g>
       <use xlink:href="#m7780cb4748" x="90" y="127.517213" style="stroke: #000000; stroke-width: 0.8"/>
      </g>
     </g>
     <g id="text_9">
      <!-- 8 -->
      <g transform="translate(76.6375 131.316432) scale(0.1 -0.1)">
       <defs>
        <path id="DejaVuSans-38" d="M 2034 2216 
Q 1584 2216 1326 1975 
Q 1069 1734 1069 1313 
Q 1069 891 1326 650 
Q 1584 409 2034 409 
Q 2484 409 2743 651 
Q 3003 894 3003 1313 
Q 3003 1734 2745 1975 
Q 2488 2216 2034 2216 
z
M 1403 2484 
Q 997 2584 770 2862 
Q 544 3141 544 3541 
Q 544 4100 942 4425 
Q 1341 4750 2034 4750 
Q 2731 4750 3128 4425 
Q 3525 4100 3525 3541 
Q 3525 3141 3298 2862 
Q 3072 2584 2669 2484 
Q 3125 2378 3379 2068 
Q 3634 1759 3634 1313 
Q 3634 634 3220 271 
Q 2806 -91 2034 -91 
Q 1263 -91 848 271 
Q 434 634 434 1313 
Q 434 1759 690 2068 
Q 947 2378 1403 2484 
z
M 1172 3481 
Q 1172 3119 1398 2916 
Q 1625 2713 2034 2713 
Q 2441 2713 2670 2916 
Q 2900 3119 2900 3481 
Q 2900 3844 2670 4047 
Q 2441 4250 2034 4250 
Q 1625 4250 1398 4047 
Q 1172 3844 1172 3481 
z
" transform="scale(0.015625)"/>
       </defs>
       <use xlink:href="#DejaVuSans-38"/>
      </g>
     </g>
    </g>
    <g id="ytick_7">
     <g id="line2d_9">
      <g>
       <use xlink:href="#m7780cb4748" x="90" y="91.328689" style="stroke: #000000; stroke-width: 0.8"/>
      </g>
     </g>
     <g id="text_10">
      <!-- 9 -->
      <g transform="translate(76.6375 95.127908) scale(0.1 -0.1)">
       <defs>
        <path id="DejaVuSans-39" d="M 703 97 
L 703 672 
Q 941 559 1184 500 
Q 1428 441 1663 441 
Q 2288 441 2617 861 
Q 2947 1281 2994 2138 
Q 2813 1869 2534 1725 
Q 2256 1581 1919 1581 
Q 1219 1581 811 2004 
Q 403 2428 403 3163 
Q 403 3881 828 4315 
Q 1253 4750 1959 4750 
Q 2769 4750 3195 4129 
Q 3622 3509 3622 2328 
Q 3622 1225 3098 567 
Q 2575 -91 1691 -91 
Q 1453 -91 1209 -44 
Q 966 3 703 97 
z
M 1959 2075 
Q 2384 2075 2632 2365 
Q 2881 2656 2881 3163 
Q 2881 3666 2632 3958 
Q 2384 4250 1959 4250 
Q 1534 4250 1286 3958 
Q 1038 3666 1038 3163 
Q 1038 2656 1286 2365 
Q 1534 2075 1959 2075 
z
" transform="scale(0.015625)"/>
       </defs>
       <use xlink:href="#DejaVuSans-39"/>
      </g>
     </g>
    </g>
    <g id="ytick_8">
     <g id="line2d_10">
      <g>
       <use xlink:href="#m7780cb4748" x="90" y="55.140164" style="stroke: #000000; stroke-width: 0.8"/>
      </g>
     </g>
     <g id="text_11">
      <!-- 10 -->
      <g transform="translate(70.275 58.939383) scale(0.1 -0.1)">
       <defs>
        <path id="DejaVuSans-31" d="M 794 531 
L 1825 531 
L 1825 4091 
L 703 3866 
L 703 4441 
L 1819 4666 
L 2450 4666 
L 2450 531 
L 3481 531 
L 3481 0 
L 794 0 
L 794 531 
z
" transform="scale(0.015625)"/>
        <path id="DejaVuSans-30" d="M 2034 4250 
Q 1547 4250 1301 3770 
Q 1056 3291 1056 2328 
Q 1056 1369 1301 889 
Q 1547 409 2034 409 
Q 2525 409 2770 889 
Q 3016 1369 3016 2328 
Q 3016 3291 2770 3770 
Q 2525 4250 2034 4250 
z
M 2034 4750 
Q 2819 4750 3233 4129 
Q 3647 3509 3647 2328 
Q 3647 1150 3233 529 
Q 2819 -91 2034 -91 
Q 1250 -91 836 529 
Q 422 1150 422 2328 
Q 422 3509 836 4129 
Q 1250 4750 2034 4750 
z
" transform="scale(0.015625)"/>
       </defs>
       <use xlink:href="#DejaVuSans-31"/>
       <use xlink:href="#DejaVuSans-30" transform="translate(63.623047 0)"/>
      </g>
     </g>
    </g>
    <g id="text_12">
     <!-- cont_variable -->
     <g transform="translate(63.917188 215.409375) rotate(-90) scale(0.1 -0.1)">
      <defs>
       <path id="DejaVuSans-5f" d="M 3263 -1063 
L 3263 -1509 
L -63 -1509 
L -63 -1063 
L 3263 -1063 
z
" transform="scale(0.015625)"/>
       <path id="DejaVuSans-62" d="M 3116 1747 
Q 3116 2381 2855 2742 
Q 2594 3103 2138 3103 
Q 1681 3103 1420 2742 
Q 1159 2381 1159 1747 
Q 1159 1113 1420 752 
Q 1681 391 2138 391 
Q 2594 391 2855 752 
Q 3116 1113 3116 1747 
z
M 1159 2969 
Q 1341 3281 1617 3432 
Q 1894 3584 2278 3584 
Q 2916 3584 3314 3078 
Q 3713 2572 3713 1747 
Q 3713 922 3314 415 
Q 2916 -91 2278 -91 
Q 1894 -91 1617 61 
Q 1341 213 1159 525 
L 1159 0 
L 581 0 
L 581 4863 
L 1159 4863 
L 1159 2969 
z
" transform="scale(0.015625)"/>
       <path id="DejaVuSans-6c" d="M 603 4863 
L 1178 4863 
L 1178 0 
L 603 0 
L 603 4863 
z
" transform="scale(0.015625)"/>
      </defs>
      <use xlink:href="#DejaVuSans-63"/>
      <use xlink:href="#DejaVuSans-6f" transform="translate(54.980469 0)"/>
      <use xlink:href="#DejaVuSans-6e" transform="translate(116.162109 0)"/>
      <use xlink:href="#DejaVuSans-74" transform="translate(179.541016 0)"/>
      <use xlink:href="#DejaVuSans-5f" transform="translate(218.75 0)"/>
      <use xlink:href="#DejaVuSans-76" transform="translate(268.75 0)"/>
      <use xlink:href="#DejaVuSans-61" transform="translate(327.929688 0)"/>
      <use xlink:href="#DejaVuSans-72" transform="translate(389.208984 0)"/>
      <use xlink:href="#DejaVuSans-69" transform="translate(430.322266 0)"/>
      <use xlink:href="#DejaVuSans-61" transform="translate(458.105469 0)"/>
      <use xlink:href="#DejaVuSans-62" transform="translate(519.384766 0)"/>
      <use xlink:href="#DejaVuSans-6c" transform="translate(582.861328 0)"/>
      <use xlink:href="#DejaVuSans-65" transform="translate(610.644531 0)"/>
     </g>
    </g>
   </g>
   <g id="patch_3">
    <path d="M 90 320.4 
L 90 43.2 
" style="fill: none; stroke: #000000; stroke-width: 0.8; stroke-linejoin: miter; stroke-linecap: square"/>
   </g>
   <g id="patch_4">
    <path d="M 648 320.4 
L 648 43.2 
" style="fill: none; stroke: #000000; stroke-width: 0.8; stroke-linejoin: miter; stroke-linecap: square"/>
   </g>
   <g id="patch_5">
    <path d="M 90 320.4 
L 648 320.4 
" style="fill: none; stroke: #000000; stroke-width: 0.8; stroke-linejoin: miter; stroke-linecap: square"/>
   </g>
   <g id="patch_6">
    <path d="M 90 43.2 
L 648 43.2 
" style="fill: none; stroke: #000000; stroke-width: 0.8; stroke-linejoin: miter; stroke-linecap: square"/>
   </g>
   <g id="PathCollection_1">
    <defs>
     <path id="mdda456415d" d="M 0 2.5 
C 0.663008 2.5 1.29895 2.236584 1.767767 1.767767 
C 2.236584 1.29895 2.5 0.663008 2.5 0 
C 2.5 -0.663008 2.236584 -1.29895 1.767767 -1.767767 
C 1.29895 -2.236584 0.663008 -2.5 0 -2.5 
C -0.663008 -2.5 -1.29895 -2.236584 -1.767767 -1.767767 
C -2.236584 -1.29895 -2.5 -0.663008 -2.5 0 
C -2.5 0.663008 -2.236584 1.29895 -1.767767 1.767767 
C -1.29895 2.236584 -0.663008 2.5 0 2.5 
z
"/>
    </defs>
    <g clip-path="url(#pcfb60f16a3)">
     <use xlink:href="#mdda456415d" x="226.624561" y="127.517213" style="fill-opacity: 0.3"/>
     <use xlink:href="#mdda456415d" x="236.844559" y="127.517213" style="fill-opacity: 0.3"/>
     <use xlink:href="#mdda456415d" x="205.568324" y="127.517213" style="fill-opacity: 0.3"/>
     <use xlink:href="#mdda456415d" x="250.65256" y="127.517213" style="fill-opacity: 0.3"/>
     <use xlink:href="#mdda456415d" x="229.681504" y="127.517213" style="fill-opacity: 0.3"/>
     <use xlink:href="#mdda456415d" x="222.646345" y="127.517213" style="fill-opacity: 0.3"/>
     <use xlink:href="#mdda456415d" x="205.66276" y="272.271311" style="fill-opacity: 0.3"/>
     <use xlink:href="#mdda456415d" x="230.495135" y="272.271311" style="fill-opacity: 0.3"/>
     <use xlink:href="#mdda456415d" x="254.976469" y="272.271311" style="fill-opacity: 0.3"/>
     <use xlink:href="#mdda456415d" x="213.378842" y="272.271311" style="fill-opacity: 0.3"/>
     <use xlink:href="#mdda456415d" x="220.50247" y="272.271311" style="fill-opacity: 0.3"/>
     <use xlink:href="#mdda456415d" x="216.403451" y="272.271311" style="fill-opacity: 0.3"/>
     <use xlink:href="#mdda456415d" x="257.232086" y="272.271311" style="fill-opacity: 0.3"/>
     <use xlink:href="#mdda456415d" x="230.034044" y="272.271311" style="fill-opacity: 0.3"/>
     <use xlink:href="#mdda456415d" x="203.043502" y="127.517213" style="fill-opacity: 0.3"/>
     <use xlink:href="#mdda456415d" x="223.79366" y="127.517213" style="fill-opacity: 0.3"/>
     <use xlink:href="#mdda456415d" x="235.673273" y="127.517213" style="fill-opacity: 0.3"/>
     <use xlink:href="#mdda456415d" x="248.514162" y="127.517213" style="fill-opacity: 0.3"/>
     <use xlink:href="#mdda456415d" x="244.515404" y="91.328689" style="fill-opacity: 0.3"/>
     <use xlink:href="#mdda456415d" x="208.800093" y="91.328689" style="fill-opacity: 0.3"/>
     <use xlink:href="#mdda456415d" x="226.30127" y="91.328689" style="fill-opacity: 0.3"/>
     <use xlink:href="#mdda456415d" x="253.941319" y="91.328689" style="fill-opacity: 0.3"/>
     <use xlink:href="#mdda456415d" x="252.641743" y="91.328689" style="fill-opacity: 0.3"/>
     <use xlink:href="#mdda456415d" x="251.71082" y="91.328689" style="fill-opacity: 0.3"/>
     <use xlink:href="#mdda456415d" x="247.405889" y="91.328689" style="fill-opacity: 0.3"/>
     <use xlink:href="#mdda456415d" x="211.705599" y="91.328689" style="fill-opacity: 0.3"/>
     <use xlink:href="#mdda456415d" x="229.556951" y="91.328689" style="fill-opacity: 0.3"/>
     <use xlink:href="#mdda456415d" x="239.530649" y="91.328689" style="fill-opacity: 0.3"/>
     <use xlink:href="#mdda456415d" x="228.599476" y="91.328689" style="fill-opacity: 0.3"/>
     <use xlink:href="#mdda456415d" x="222.775079" y="91.328689" style="fill-opacity: 0.3"/>
     <use xlink:href="#mdda456415d" x="235.023836" y="91.328689" style="fill-opacity: 0.3"/>
     <use xlink:href="#mdda456415d" x="213.257916" y="91.328689" style="fill-opacity: 0.3"/>
     <use xlink:href="#mdda456415d" x="215.94377" y="91.328689" style="fill-opacity: 0.3"/>
     <use xlink:href="#mdda456415d" x="234.630875" y="91.328689" style="fill-opacity: 0.3"/>
     <use xlink:href="#mdda456415d" x="255.876406" y="91.328689" style="fill-opacity: 0.3"/>
     <use xlink:href="#mdda456415d" x="208.569532" y="91.328689" style="fill-opacity: 0.3"/>
     <use xlink:href="#mdda456415d" x="204.65132" y="91.328689" style="fill-opacity: 0.3"/>
     <use xlink:href="#mdda456415d" x="221.809636" y="91.328689" style="fill-opacity: 0.3"/>
     <use xlink:href="#mdda456415d" x="231.937216" y="91.328689" style="fill-opacity: 0.3"/>
     <use xlink:href="#mdda456415d" x="213.394038" y="91.328689" style="fill-opacity: 0.3"/>
     <use xlink:href="#mdda456415d" x="224.365541" y="91.328689" style="fill-opacity: 0.3"/>
     <use xlink:href="#mdda456415d" x="208.112972" y="91.328689" style="fill-opacity: 0.3"/>
     <use xlink:href="#mdda456415d" x="232.954092" y="91.328689" style="fill-opacity: 0.3"/>
     <use xlink:href="#mdda456415d" x="214.647688" y="91.328689" style="fill-opacity: 0.3"/>
     <use xlink:href="#mdda456415d" x="249.695471" y="91.328689" style="fill-opacity: 0.3"/>
     <use xlink:href="#mdda456415d" x="246.727505" y="91.328689" style="fill-opacity: 0.3"/>
     <use xlink:href="#mdda456415d" x="243.86747" y="91.328689" style="fill-opacity: 0.3"/>
     <use xlink:href="#mdda456415d" x="238.015588" y="91.328689" style="fill-opacity: 0.3"/>
     <use xlink:href="#mdda456415d" x="202.911622" y="91.328689" style="fill-opacity: 0.3"/>
     <use xlink:href="#mdda456415d" x="243.70933" y="91.328689" style="fill-opacity: 0.3"/>
     <use xlink:href="#mdda456415d" x="206.846306" y="91.328689" style="fill-opacity: 0.3"/>
     <use xlink:href="#mdda456415d" x="208.784896" y="91.328689" style="fill-opacity: 0.3"/>
     <use xlink:href="#mdda456415d" x="252.672112" y="91.328689" style="fill-opacity: 0.3"/>
     <use xlink:href="#mdda456415d" x="226.387398" y="91.328689" style="fill-opacity: 0.3"/>
     <use xlink:href="#mdda456415d" x="242.930222" y="91.328689" style="fill-opacity: 0.3"/>
     <use xlink:href="#mdda456415d" x="212.769924" y="91.328689" style="fill-opacity: 0.3"/>
     <use xlink:href="#mdda456415d" x="224.234349" y="91.328689" style="fill-opacity: 0.3"/>
     <use xlink:href="#mdda456415d" x="233.594296" y="91.328689" style="fill-opacity: 0.3"/>
     <use xlink:href="#mdda456415d" x="206.133148" y="91.328689" style="fill-opacity: 0.3"/>
     <use xlink:href="#mdda456415d" x="255.989963" y="91.328689" style="fill-opacity: 0.3"/>
     <use xlink:href="#mdda456415d" x="222.533007" y="91.328689" style="fill-opacity: 0.3"/>
     <use xlink:href="#mdda456415d" x="252.05203" y="91.328689" style="fill-opacity: 0.3"/>
     <use xlink:href="#mdda456415d" x="207.968447" y="91.328689" style="fill-opacity: 0.3"/>
     <use xlink:href="#mdda456415d" x="202.244571" y="91.328689" style="fill-opacity: 0.3"/>
     <use xlink:href="#mdda456415d" x="246.64146" y="91.328689" style="fill-opacity: 0.3"/>
     <use xlink:href="#mdda456415d" x="235.465203" y="91.328689" style="fill-opacity: 0.3"/>
     <use xlink:href="#mdda456415d" x="212.866131" y="91.328689" style="fill-opacity: 0.3"/>
     <use xlink:href="#mdda456415d" x="211.968237" y="91.328689" style="fill-opacity: 0.3"/>
     <use xlink:href="#mdda456415d" x="255.342288" y="91.328689" style="fill-opacity: 0.3"/>
     <use xlink:href="#mdda456415d" x="215.372028" y="91.328689" style="fill-opacity: 0.3"/>
     <use xlink:href="#mdda456415d" x="251.133892" y="91.328689" style="fill-opacity: 0.3"/>
     <use xlink:href="#mdda456415d" x="237.277323" y="91.328689" style="fill-opacity: 0.3"/>
     <use xlink:href="#mdda456415d" x="247.692574" y="91.328689" style="fill-opacity: 0.3"/>
     <use xlink:href="#mdda456415d" x="202.683991" y="91.328689" style="fill-opacity: 0.3"/>
     <use xlink:href="#mdda456415d" x="238.777106" y="91.328689" style="fill-opacity: 0.3"/>
     <use xlink:href="#mdda456415d" x="248.016767" y="91.328689" style="fill-opacity: 0.3"/>
     <use xlink:href="#mdda456415d" x="241.931965" y="91.328689" style="fill-opacity: 0.3"/>
     <use xlink:href="#mdda456415d" x="253.181098" y="91.328689" style="fill-opacity: 0.3"/>
     <use xlink:href="#mdda456415d" x="232.998965" y="91.328689" style="fill-opacity: 0.3"/>
     <use xlink:href="#mdda456415d" x="225.627715" y="91.328689" style="fill-opacity: 0.3"/>
     <use xlink:href="#mdda456415d" x="239.869881" y="91.328689" style="fill-opacity: 0.3"/>
     <use xlink:href="#mdda456415d" x="255.72108" y="91.328689" style="fill-opacity: 0.3"/>
     <use xlink:href="#mdda456415d" x="225.433538" y="91.328689" style="fill-opacity: 0.3"/>
     <use xlink:href="#mdda456415d" x="251.172083" y="91.328689" style="fill-opacity: 0.3"/>
     <use xlink:href="#mdda456415d" x="225.742671" y="91.328689" style="fill-opacity: 0.3"/>
     <use xlink:href="#mdda456415d" x="208.871555" y="91.328689" style="fill-opacity: 0.3"/>
     <use xlink:href="#mdda456415d" x="212.59118" y="91.328689" style="fill-opacity: 0.3"/>
     <use xlink:href="#mdda456415d" x="228.902197" y="91.328689" style="fill-opacity: 0.3"/>
     <use xlink:href="#mdda456415d" x="236.189105" y="91.328689" style="fill-opacity: 0.3"/>
     <use xlink:href="#mdda456415d" x="214.862331" y="91.328689" style="fill-opacity: 0.3"/>
     <use xlink:href="#mdda456415d" x="220.564977" y="127.517213" style="fill-opacity: 0.3"/>
     <use xlink:href="#mdda456415d" x="249.530877" y="127.517213" style="fill-opacity: 0.3"/>
     <use xlink:href="#mdda456415d" x="205.088097" y="127.517213" style="fill-opacity: 0.3"/>
     <use xlink:href="#mdda456415d" x="233.432922" y="127.517213" style="fill-opacity: 0.3"/>
     <use xlink:href="#mdda456415d" x="207.987868" y="127.517213" style="fill-opacity: 0.3"/>
     <use xlink:href="#mdda456415d" x="230.008015" y="127.517213" style="fill-opacity: 0.3"/>
     <use xlink:href="#mdda456415d" x="223.357726" y="127.517213" style="fill-opacity: 0.3"/>
     <use xlink:href="#mdda456415d" x="210.42353" y="127.517213" style="fill-opacity: 0.3"/>
     <use xlink:href="#mdda456415d" x="256.816832" y="127.517213" style="fill-opacity: 0.3"/>
     <use xlink:href="#mdda456415d" x="229.430615" y="127.517213" style="fill-opacity: 0.3"/>
     <use xlink:href="#mdda456415d" x="239.287721" y="127.517213" style="fill-opacity: 0.3"/>
     <use xlink:href="#mdda456415d" x="243.880197" y="163.705738" style="fill-opacity: 0.3"/>
     <use xlink:href="#mdda456415d" x="221.602141" y="163.705738" style="fill-opacity: 0.3"/>
     <use xlink:href="#mdda456415d" x="235.791354" y="163.705738" style="fill-opacity: 0.3"/>
     <use xlink:href="#mdda456415d" x="211.075685" y="163.705738" style="fill-opacity: 0.3"/>
     <use xlink:href="#mdda456415d" x="242.186699" y="163.705738" style="fill-opacity: 0.3"/>
     <use xlink:href="#mdda456415d" x="238.522595" y="163.705738" style="fill-opacity: 0.3"/>
     <use xlink:href="#mdda456415d" x="216.320555" y="163.705738" style="fill-opacity: 0.3"/>
     <use xlink:href="#mdda456415d" x="202.318641" y="163.705738" style="fill-opacity: 0.3"/>
     <use xlink:href="#mdda456415d" x="220.183954" y="163.705738" style="fill-opacity: 0.3"/>
     <use xlink:href="#mdda456415d" x="211.152286" y="163.705738" style="fill-opacity: 0.3"/>
     <use xlink:href="#mdda456415d" x="252.205772" y="163.705738" style="fill-opacity: 0.3"/>
     <use xlink:href="#mdda456415d" x="205.164219" y="163.705738" style="fill-opacity: 0.3"/>
     <use xlink:href="#mdda456415d" x="233.677352" y="163.705738" style="fill-opacity: 0.3"/>
     <use xlink:href="#mdda456415d" x="241.994481" y="163.705738" style="fill-opacity: 0.3"/>
     <use xlink:href="#mdda456415d" x="230.424443" y="163.705738" style="fill-opacity: 0.3"/>
     <use xlink:href="#mdda456415d" x="212.790045" y="163.705738" style="fill-opacity: 0.3"/>
     <use xlink:href="#mdda456415d" x="230.447114" y="163.705738" style="fill-opacity: 0.3"/>
     <use xlink:href="#mdda456415d" x="220.222813" y="163.705738" style="fill-opacity: 0.3"/>
     <use xlink:href="#mdda456415d" x="223.930589" y="163.705738" style="fill-opacity: 0.3"/>
     <use xlink:href="#mdda456415d" x="256.230528" y="163.705738" style="fill-opacity: 0.3"/>
     <use xlink:href="#mdda456415d" x="215.69745" y="163.705738" style="fill-opacity: 0.3"/>
     <use xlink:href="#mdda456415d" x="228.781924" y="163.705738" style="fill-opacity: 0.3"/>
     <use xlink:href="#mdda456415d" x="228.765511" y="163.705738" style="fill-opacity: 0.3"/>
     <use xlink:href="#mdda456415d" x="240.484396" y="163.705738" style="fill-opacity: 0.3"/>
     <use xlink:href="#mdda456415d" x="237.192278" y="163.705738" style="fill-opacity: 0.3"/>
     <use xlink:href="#mdda456415d" x="239.461605" y="163.705738" style="fill-opacity: 0.3"/>
     <use xlink:href="#mdda456415d" x="206.559761" y="163.705738" style="fill-opacity: 0.3"/>
     <use xlink:href="#mdda456415d" x="246.777202" y="163.705738" style="fill-opacity: 0.3"/>
     <use xlink:href="#mdda456415d" x="226.490337" y="163.705738" style="fill-opacity: 0.3"/>
     <use xlink:href="#mdda456415d" x="233.86748" y="163.705738" style="fill-opacity: 0.3"/>
     <use xlink:href="#mdda456415d" x="240.175589" y="163.705738" style="fill-opacity: 0.3"/>
     <use xlink:href="#mdda456415d" x="238.369618" y="163.705738" style="fill-opacity: 0.3"/>
     <use xlink:href="#mdda456415d" x="207.516871" y="163.705738" style="fill-opacity: 0.3"/>
     <use xlink:href="#mdda456415d" x="234.244335" y="163.705738" style="fill-opacity: 0.3"/>
     <use xlink:href="#mdda456415d" x="222.59138" y="163.705738" style="fill-opacity: 0.3"/>
     <use xlink:href="#mdda456415d" x="239.88724" y="163.705738" style="fill-opacity: 0.3"/>
     <use xlink:href="#mdda456415d" x="237.630276" y="163.705738" style="fill-opacity: 0.3"/>
    </g>
   </g>
   <g id="PathCollection_2">
    <g clip-path="url(#pcfb60f16a3)">
     <use xlink:href="#mdda456415d" x="504.765836" y="127.517213" style="fill-opacity: 0.3"/>
     <use xlink:href="#mdda456415d" x="492.198046" y="127.517213" style="fill-opacity: 0.3"/>
     <use xlink:href="#mdda456415d" x="486.22217" y="127.517213" style="fill-opacity: 0.3"/>
     <use xlink:href="#mdda456415d" x="520.795955" y="127.517213" style="fill-opacity: 0.3"/>
     <use xlink:href="#mdda456415d" x="486.457432" y="127.517213" style="fill-opacity: 0.3"/>
     <use xlink:href="#mdda456415d" x="483.845276" y="127.517213" style="fill-opacity: 0.3"/>
     <use xlink:href="#mdda456415d" x="494.025488" y="127.517213" style="fill-opacity: 0.3"/>
     <use xlink:href="#mdda456415d" x="498.577127" y="127.517213" style="fill-opacity: 0.3"/>
     <use xlink:href="#mdda456415d" x="502.596786" y="127.517213" style="fill-opacity: 0.3"/>
     <use xlink:href="#mdda456415d" x="516.929175" y="127.517213" style="fill-opacity: 0.3"/>
     <use xlink:href="#mdda456415d" x="511.473819" y="272.271311" style="fill-opacity: 0.3"/>
     <use xlink:href="#mdda456415d" x="490.086541" y="272.271311" style="fill-opacity: 0.3"/>
     <use xlink:href="#mdda456415d" x="530.647377" y="272.271311" style="fill-opacity: 0.3"/>
     <use xlink:href="#mdda456415d" x="499.689897" y="272.271311" style="fill-opacity: 0.3"/>
     <use xlink:href="#mdda456415d" x="484.991418" y="127.517213" style="fill-opacity: 0.3"/>
     <use xlink:href="#mdda456415d" x="526.031831" y="91.328689" style="fill-opacity: 0.3"/>
     <use xlink:href="#mdda456415d" x="482.833981" y="91.328689" style="fill-opacity: 0.3"/>
     <use xlink:href="#mdda456415d" x="533.374791" y="91.328689" style="fill-opacity: 0.3"/>
     <use xlink:href="#mdda456415d" x="511.391162" y="91.328689" style="fill-opacity: 0.3"/>
     <use xlink:href="#mdda456415d" x="529.965131" y="91.328689" style="fill-opacity: 0.3"/>
     <use xlink:href="#mdda456415d" x="480.849684" y="91.328689" style="fill-opacity: 0.3"/>
     <use xlink:href="#mdda456415d" x="506.509519" y="91.328689" style="fill-opacity: 0.3"/>
     <use xlink:href="#mdda456415d" x="507.375149" y="91.328689" style="fill-opacity: 0.3"/>
     <use xlink:href="#mdda456415d" x="504.161803" y="91.328689" style="fill-opacity: 0.3"/>
     <use xlink:href="#mdda456415d" x="501.236417" y="91.328689" style="fill-opacity: 0.3"/>
     <use xlink:href="#mdda456415d" x="512.327883" y="91.328689" style="fill-opacity: 0.3"/>
     <use xlink:href="#mdda456415d" x="501.487092" y="91.328689" style="fill-opacity: 0.3"/>
     <use xlink:href="#mdda456415d" x="531.003052" y="91.328689" style="fill-opacity: 0.3"/>
     <use xlink:href="#mdda456415d" x="481.385571" y="91.328689" style="fill-opacity: 0.3"/>
     <use xlink:href="#mdda456415d" x="520.66635" y="91.328689" style="fill-opacity: 0.3"/>
     <use xlink:href="#mdda456415d" x="526.629919" y="91.328689" style="fill-opacity: 0.3"/>
     <use xlink:href="#mdda456415d" x="517.249232" y="91.328689" style="fill-opacity: 0.3"/>
     <use xlink:href="#mdda456415d" x="535.051404" y="91.328689" style="fill-opacity: 0.3"/>
     <use xlink:href="#mdda456415d" x="482.621409" y="91.328689" style="fill-opacity: 0.3"/>
     <use xlink:href="#mdda456415d" x="481.185117" y="91.328689" style="fill-opacity: 0.3"/>
     <use xlink:href="#mdda456415d" x="516.305236" y="91.328689" style="fill-opacity: 0.3"/>
     <use xlink:href="#mdda456415d" x="509.980159" y="91.328689" style="fill-opacity: 0.3"/>
     <use xlink:href="#mdda456415d" x="528.414644" y="91.328689" style="fill-opacity: 0.3"/>
     <use xlink:href="#mdda456415d" x="506.214193" y="91.328689" style="fill-opacity: 0.3"/>
     <use xlink:href="#mdda456415d" x="481.285831" y="91.328689" style="fill-opacity: 0.3"/>
     <use xlink:href="#mdda456415d" x="491.663062" y="91.328689" style="fill-opacity: 0.3"/>
     <use xlink:href="#mdda456415d" x="504.332266" y="91.328689" style="fill-opacity: 0.3"/>
     <use xlink:href="#mdda456415d" x="491.981869" y="91.328689" style="fill-opacity: 0.3"/>
     <use xlink:href="#mdda456415d" x="511.030579" y="91.328689" style="fill-opacity: 0.3"/>
     <use xlink:href="#mdda456415d" x="520.949475" y="91.328689" style="fill-opacity: 0.3"/>
     <use xlink:href="#mdda456415d" x="502.91423" y="91.328689" style="fill-opacity: 0.3"/>
     <use xlink:href="#mdda456415d" x="503.169413" y="91.328689" style="fill-opacity: 0.3"/>
     <use xlink:href="#mdda456415d" x="523.185709" y="91.328689" style="fill-opacity: 0.3"/>
     <use xlink:href="#mdda456415d" x="526.891819" y="91.328689" style="fill-opacity: 0.3"/>
     <use xlink:href="#mdda456415d" x="492.88625" y="91.328689" style="fill-opacity: 0.3"/>
     <use xlink:href="#mdda456415d" x="487.141968" y="91.328689" style="fill-opacity: 0.3"/>
     <use xlink:href="#mdda456415d" x="529.099796" y="91.328689" style="fill-opacity: 0.3"/>
     <use xlink:href="#mdda456415d" x="510.425593" y="91.328689" style="fill-opacity: 0.3"/>
     <use xlink:href="#mdda456415d" x="517.098799" y="91.328689" style="fill-opacity: 0.3"/>
     <use xlink:href="#mdda456415d" x="525.521877" y="91.328689" style="fill-opacity: 0.3"/>
     <use xlink:href="#mdda456415d" x="489.574726" y="91.328689" style="fill-opacity: 0.3"/>
     <use xlink:href="#mdda456415d" x="518.620767" y="91.328689" style="fill-opacity: 0.3"/>
     <use xlink:href="#mdda456415d" x="525.802605" y="91.328689" style="fill-opacity: 0.3"/>
     <use xlink:href="#mdda456415d" x="488.086922" y="91.328689" style="fill-opacity: 0.3"/>
     <use xlink:href="#mdda456415d" x="481.298255" y="91.328689" style="fill-opacity: 0.3"/>
     <use xlink:href="#mdda456415d" x="514.564999" y="91.328689" style="fill-opacity: 0.3"/>
     <use xlink:href="#mdda456415d" x="513.714278" y="91.328689" style="fill-opacity: 0.3"/>
     <use xlink:href="#mdda456415d" x="506.545945" y="91.328689" style="fill-opacity: 0.3"/>
     <use xlink:href="#mdda456415d" x="518.112285" y="91.328689" style="fill-opacity: 0.3"/>
     <use xlink:href="#mdda456415d" x="510.21013" y="127.517213" style="fill-opacity: 0.3"/>
     <use xlink:href="#mdda456415d" x="496.718854" y="127.517213" style="fill-opacity: 0.3"/>
     <use xlink:href="#mdda456415d" x="488.1412" y="127.517213" style="fill-opacity: 0.3"/>
     <use xlink:href="#mdda456415d" x="511.182906" y="127.517213" style="fill-opacity: 0.3"/>
     <use xlink:href="#mdda456415d" x="517.636753" y="127.517213" style="fill-opacity: 0.3"/>
     <use xlink:href="#mdda456415d" x="488.619848" y="127.517213" style="fill-opacity: 0.3"/>
     <use xlink:href="#mdda456415d" x="507.147704" y="127.517213" style="fill-opacity: 0.3"/>
     <use xlink:href="#mdda456415d" x="492.463778" y="127.517213" style="fill-opacity: 0.3"/>
     <use xlink:href="#mdda456415d" x="507.952061" y="127.517213" style="fill-opacity: 0.3"/>
     <use xlink:href="#mdda456415d" x="484.967417" y="127.517213" style="fill-opacity: 0.3"/>
     <use xlink:href="#mdda456415d" x="489.588696" y="127.517213" style="fill-opacity: 0.3"/>
     <use xlink:href="#mdda456415d" x="482.900119" y="127.517213" style="fill-opacity: 0.3"/>
     <use xlink:href="#mdda456415d" x="528.522184" y="163.705738" style="fill-opacity: 0.3"/>
     <use xlink:href="#mdda456415d" x="529.446282" y="163.705738" style="fill-opacity: 0.3"/>
     <use xlink:href="#mdda456415d" x="511.874526" y="163.705738" style="fill-opacity: 0.3"/>
     <use xlink:href="#mdda456415d" x="519.74485" y="163.705738" style="fill-opacity: 0.3"/>
     <use xlink:href="#mdda456415d" x="512.285519" y="163.705738" style="fill-opacity: 0.3"/>
     <use xlink:href="#mdda456415d" x="491.874018" y="163.705738" style="fill-opacity: 0.3"/>
     <use xlink:href="#mdda456415d" x="492.587114" y="163.705738" style="fill-opacity: 0.3"/>
     <use xlink:href="#mdda456415d" x="522.126815" y="163.705738" style="fill-opacity: 0.3"/>
     <use xlink:href="#mdda456415d" x="530.038272" y="163.705738" style="fill-opacity: 0.3"/>
     <use xlink:href="#mdda456415d" x="509.249801" y="163.705738" style="fill-opacity: 0.3"/>
     <use xlink:href="#mdda456415d" x="486.485125" y="163.705738" style="fill-opacity: 0.3"/>
     <use xlink:href="#mdda456415d" x="489.947591" y="163.705738" style="fill-opacity: 0.3"/>
     <use xlink:href="#mdda456415d" x="506.077947" y="163.705738" style="fill-opacity: 0.3"/>
     <use xlink:href="#mdda456415d" x="532.092486" y="163.705738" style="fill-opacity: 0.3"/>
     <use xlink:href="#mdda456415d" x="491.750853" y="163.705738" style="fill-opacity: 0.3"/>
     <use xlink:href="#mdda456415d" x="529.837006" y="163.705738" style="fill-opacity: 0.3"/>
     <use xlink:href="#mdda456415d" x="508.774421" y="163.705738" style="fill-opacity: 0.3"/>
     <use xlink:href="#mdda456415d" x="522.468674" y="163.705738" style="fill-opacity: 0.3"/>
     <use xlink:href="#mdda456415d" x="532.649333" y="163.705738" style="fill-opacity: 0.3"/>
     <use xlink:href="#mdda456415d" x="512.159487" y="163.705738" style="fill-opacity: 0.3"/>
     <use xlink:href="#mdda456415d" x="534.019078" y="163.705738" style="fill-opacity: 0.3"/>
     <use xlink:href="#mdda456415d" x="490.753016" y="163.705738" style="fill-opacity: 0.3"/>
     <use xlink:href="#mdda456415d" x="525.515729" y="163.705738" style="fill-opacity: 0.3"/>
    </g>
   </g>
  </g>
 </g>
 <defs>
  <clipPath id="pcfb60f16a3">
   <rect x="90" y="43.2" width="558" height="277.2"/>
  </clipPath>
 </defs>
</svg>
