<?xml version="1.0" encoding="utf-8" standalone="no"?>
<!DOCTYPE svg PUBLIC "-//W3C//DTD SVG 1.1//EN"
  "http://www.w3.org/Graphics/SVG/1.1/DTD/svg11.dtd">
<svg xmlns:xlink="http://www.w3.org/1999/xlink" width="720pt" height="360pt" viewBox="0 0 720 360" xmlns="http://www.w3.org/2000/svg" version="1.1">
 <metadata>
  <rdf:RDF xmlns:dc="http://purl.org/dc/elements/1.1/" xmlns:cc="http://creativecommons.org/ns#" xmlns:rdf="http://www.w3.org/1999/02/22-rdf-syntax-ns#">
   <cc:Work>
    <dc:type rdf:resource="http://purl.org/dc/dcmitype/StillImage"/>
    <dc:date>2025-09-12T09:55:05.034868</dc:date>
    <dc:format>image/svg+xml</dc:format>
    <dc:creator>
     <cc:Agent>
      <dc:title>Matplotlib v3.10.3, https://matplotlib.org/</dc:title>
     </cc:Agent>
    </dc:creator>
   </cc:Work>
  </rdf:RDF>
 </metadata>
 <defs>
  <style type="text/css">*{stroke-linejoin: round; stroke-linecap: butt}</style>
 </defs>
 <g id="figure_1">
  <g id="patch_1">
   <path d="M 0 360 
L 720 360 
L 720 0 
L 0 0 
z
" style="fill: #ffffff"/>
  </g>
  <g id="axes_1">
   <g id="patch_2">
    <path d="M 90 320.4 
L 648 320.4 
L 648 43.2 
L 90 43.2 
z
" style="fill: #ffffff"/>
   </g>
   <g id="FillBetweenPolyCollection_1">
    <defs>
     <path id="m5c1e86c238" d="M 232.412071 -61.139617 
L 226.587929 -61.139617 
L 225.747114 -63.504473 
L 224.737139 -65.86933 
L 223.547358 -68.234186 
L 222.173593 -70.599042 
L 220.620022 -72.963898 
L 218.900818 -75.328754 
L 217.041309 -77.693611 
L 215.078443 -80.058467 
L 213.060387 -82.423323 
L 211.045135 -84.788179 
L 209.098124 -87.153036 
L 207.288924 -89.517892 
L 205.68723 -91.882748 
L 204.35845 -94.247604 
L 203.359263 -96.61246 
L 202.733576 -98.977317 
L 202.50924 -101.342173 
L 202.695886 -103.707029 
L 203.284058 -106.071885 
L 204.245742 -108.436742 
L 205.536196 -110.801598 
L 207.096862 -113.166454 
L 208.859034 -115.53131 
L 210.747864 -117.896166 
L 212.686302 -120.261023 
L 214.598573 -122.625879 
L 216.412888 -124.990735 
L 218.06321 -127.355591 
L 219.490014 -129.720447 
L 220.640117 -132.085304 
L 221.465796 -134.45016 
L 221.923473 -136.815016 
L 221.972333 -139.179872 
L 221.573243 -141.544729 
L 220.688314 -143.909585 
L 219.281382 -146.274441 
L 217.319588 -148.639297 
L 214.776083 -151.004153 
L 211.633747 -153.36901 
L 207.889647 -155.733866 
L 203.559783 -158.098722 
L 198.6836 -160.463578 
L 193.327594 -162.828435 
L 187.587407 -165.193291 
L 181.587803 -167.558147 
L 175.48012 -169.923003 
L 169.436989 -172.287859 
L 163.644412 -174.652716 
L 158.291603 -177.017572 
L 153.5593 -179.382428 
L 149.607502 -181.747284 
L 146.563759 -184.112141 
L 144.513145 -186.476997 
L 143.490962 -188.841853 
L 143.478966 -191.206709 
L 144.405553 -193.571565 
L 146.149932 -195.936422 
L 148.549883 -198.301278 
L 151.412311 -200.666134 
L 154.525573 -203.03099 
L 157.672363 -205.395847 
L 160.642036 -207.760703 
L 163.24137 -210.125559 
L 165.303101 -212.490415 
L 166.691904 -214.855271 
L 167.307879 -217.220128 
L 167.087891 -219.584984 
L 166.005356 -221.94984 
L 164.069106 -224.314696 
L 161.32192 -226.679553 
L 157.839094 -229.044409 
L 153.727155 -231.409265 
L 149.12255 -233.774121 
L 144.189827 -236.138977 
L 139.118754 -238.503834 
L 134.119753 -240.86869 
L 129.417192 -243.233546 
L 125.240401 -245.598402 
L 121.812605 -247.963258 
L 119.338441 -250.328115 
L 117.991051 -252.692971 
L 117.9 -255.057827 
L 119.141349 -257.422683 
L 121.731077 -259.78754 
L 125.622741 -262.152396 
L 130.709796 -264.517252 
L 136.832488 -266.882108 
L 143.7887 -269.246964 
L 151.34768 -271.611821 
L 159.265305 -273.976677 
L 167.29943 -276.341533 
L 175.223913 -278.706389 
L 182.840203 -281.071246 
L 189.985694 -283.436102 
L 196.538484 -285.800958 
L 202.418583 -288.165814 
L 207.585984 -290.53067 
L 212.036225 -292.895527 
L 215.794258 -295.260383 
L 243.205742 -295.260383 
L 243.205742 -295.260383 
L 246.963775 -292.895527 
L 251.414016 -290.53067 
L 256.581417 -288.165814 
L 262.461516 -285.800958 
L 269.014306 -283.436102 
L 276.159797 -281.071246 
L 283.776087 -278.706389 
L 291.70057 -276.341533 
L 299.734695 -273.976677 
L 307.65232 -271.611821 
L 315.2113 -269.246964 
L 322.167512 -266.882108 
L 328.290204 -264.517252 
L 333.377259 -262.152396 
L 337.268923 -259.78754 
L 339.858651 -257.422683 
L 341.1 -255.057827 
L 341.008949 -252.692971 
L 339.661559 -250.328115 
L 337.187395 -247.963258 
L 333.759599 -245.598402 
L 329.582808 -243.233546 
L 324.880247 -240.86869 
L 319.881246 -238.503834 
L 314.810173 -236.138977 
L 309.87745 -233.774121 
L 305.272845 -231.409265 
L 301.160906 -229.044409 
L 297.67808 -226.679553 
L 294.930894 -224.314696 
L 292.994644 -221.94984 
L 291.912109 -219.584984 
L 291.692121 -217.220128 
L 292.308096 -214.855271 
L 293.696899 -212.490415 
L 295.75863 -210.125559 
L 298.357964 -207.760703 
L 301.327637 -205.395847 
L 304.474427 -203.03099 
L 307.587689 -200.666134 
L 310.450117 -198.301278 
L 312.850068 -195.936422 
L 314.594447 -193.571565 
L 315.521034 -191.206709 
L 315.509038 -188.841853 
L 314.486855 -186.476997 
L 312.436241 -184.112141 
L 309.392498 -181.747284 
L 305.4407 -179.382428 
L 300.708397 -177.017572 
L 295.355588 -174.652716 
L 289.563011 -172.287859 
L 283.51988 -169.923003 
L 277.412197 -167.558147 
L 271.412593 -165.193291 
L 265.672406 -162.828435 
L 260.3164 -160.463578 
L 255.440217 -158.098722 
L 251.110353 -155.733866 
L 247.366253 -153.36901 
L 244.223917 -151.004153 
L 241.680412 -148.639297 
L 239.718618 -146.274441 
L 238.311686 -143.909585 
L 237.426757 -141.544729 
L 237.027667 -139.179872 
L 237.076527 -136.815016 
L 237.534204 -134.45016 
L 238.359883 -132.085304 
L 239.509986 -129.720447 
L 240.93679 -127.355591 
L 242.587112 -124.990735 
L 244.401427 -122.625879 
L 246.313698 -120.261023 
L 248.252136 -117.896166 
L 250.140966 -115.53131 
L 251.903138 -113.166454 
L 253.463804 -110.801598 
L 254.754258 -108.436742 
L 255.715942 -106.071885 
L 256.304114 -103.707029 
L 256.49076 -101.342173 
L 256.266424 -98.977317 
L 255.640737 -96.61246 
L 254.64155 -94.247604 
L 253.31277 -91.882748 
L 251.711076 -89.517892 
L 249.901876 -87.153036 
L 247.954865 -84.788179 
L 245.939613 -82.423323 
L 243.921557 -80.058467 
L 241.958691 -77.693611 
L 240.099182 -75.328754 
L 238.379978 -72.963898 
L 236.826407 -70.599042 
L 235.452642 -68.234186 
L 234.262861 -65.86933 
L 233.252886 -63.504473 
L 232.412071 -61.139617 
z
" style="stroke: #3f3f3f; stroke-width: 1.25"/>
    </defs>
    <g clip-path="url(#p434d384538)">
     <use xlink:href="#m5c1e86c238" x="0" y="360" style="fill: #3274a1; stroke: #3f3f3f; stroke-width: 1.25"/>
    </g>
   </g>
   <g id="FillBetweenPolyCollection_2">
    <defs>
     <path id="m475bb04645" d="M 512.57908 -52.2 
L 504.42092 -52.2 
L 503.441147 -54.745455 
L 502.299109 -57.290909 
L 500.987774 -59.836364 
L 499.505105 -62.381818 
L 497.855216 -64.927273 
L 496.04937 -67.472727 
L 494.106711 -70.018182 
L 492.054629 -72.563636 
L 489.92867 -75.109091 
L 487.771916 -77.654545 
L 485.633823 -80.2 
L 483.568505 -82.745455 
L 481.632557 -85.290909 
L 479.882489 -87.836364 
L 478.371951 -90.381818 
L 477.148898 -92.927273 
L 476.25291 -95.472727 
L 475.712842 -98.018182 
L 475.544982 -100.563636 
L 475.751843 -103.109091 
L 476.321673 -105.654545 
L 477.228711 -108.2 
L 478.434147 -110.745455 
L 479.887703 -113.290909 
L 481.529694 -115.836364 
L 483.29342 -118.381818 
L 485.107714 -120.927273 
L 486.899485 -123.472727 
L 488.596124 -126.018182 
L 490.127682 -128.563636 
L 491.428757 -131.109091 
L 492.440087 -133.654545 
L 493.109883 -136.2 
L 493.394942 -138.745455 
L 493.261628 -141.290909 
L 492.686752 -143.836364 
L 491.658421 -146.381818 
L 490.176835 -148.927273 
L 488.255005 -151.472727 
L 485.919321 -154.018182 
L 483.209837 -156.563636 
L 480.180157 -159.109091 
L 476.896761 -161.654545 
L 473.437662 -164.2 
L 469.890296 -166.745455 
L 466.348622 -169.290909 
L 462.909472 -171.836364 
L 459.668284 -174.381818 
L 456.714403 -176.927273 
L 454.126233 -179.472727 
L 451.966535 -182.018182 
L 450.27822 -184.563636 
L 449.080958 -187.109091 
L 448.368875 -189.654545 
L 448.109576 -192.2 
L 448.244623 -194.745455 
L 448.691502 -197.290909 
L 449.347031 -199.836364 
L 450.092057 -202.381818 
L 450.797211 -204.927273 
L 451.329431 -207.472727 
L 451.558933 -210.018182 
L 451.366281 -212.563636 
L 450.649204 -215.109091 
L 449.328821 -217.654545 
L 447.354964 -220.2 
L 444.710306 -222.745455 
L 441.413062 -225.290909 
L 437.518037 -227.836364 
L 433.115916 -230.381818 
L 428.330691 -232.927273 
L 423.315274 -235.472727 
L 418.24538 -238.018182 
L 413.311944 -240.563636 
L 408.712369 -243.109091 
L 404.641086 -245.654545 
L 401.27992 -248.2 
L 398.788864 -250.745455 
L 397.29784 -253.290909 
L 396.9 -255.836364 
L 397.647034 -258.381818 
L 399.546813 -260.927273 
L 402.563522 -263.472727 
L 406.620275 -266.018182 
L 411.60398 -268.563636 
L 417.372075 -271.109091 
L 423.760631 -273.654545 
L 430.5932 -276.2 
L 437.689792 -278.745455 
L 444.875368 -281.290909 
L 451.987335 -283.836364 
L 458.88163 -286.381818 
L 465.437141 -288.927273 
L 471.558351 -291.472727 
L 477.17625 -294.018182 
L 482.247688 -296.563636 
L 486.753414 -299.109091 
L 490.695135 -301.654545 
L 494.091944 -304.2 
L 522.908056 -304.2 
L 522.908056 -304.2 
L 526.304865 -301.654545 
L 530.246586 -299.109091 
L 534.752312 -296.563636 
L 539.82375 -294.018182 
L 545.441649 -291.472727 
L 551.562859 -288.927273 
L 558.11837 -286.381818 
L 565.012665 -283.836364 
L 572.124632 -281.290909 
L 579.310208 -278.745455 
L 586.4068 -276.2 
L 593.239369 -273.654545 
L 599.627925 -271.109091 
L 605.39602 -268.563636 
L 610.379725 -266.018182 
L 614.436478 -263.472727 
L 617.453187 -260.927273 
L 619.352966 -258.381818 
L 620.1 -255.836364 
L 619.70216 -253.290909 
L 618.211136 -250.745455 
L 615.72008 -248.2 
L 612.358914 -245.654545 
L 608.287631 -243.109091 
L 603.688056 -240.563636 
L 598.75462 -238.018182 
L 593.684726 -235.472727 
L 588.669309 -232.927273 
L 583.884084 -230.381818 
L 579.481963 -227.836364 
L 575.586938 -225.290909 
L 572.289694 -222.745455 
L 569.645036 -220.2 
L 567.671179 -217.654545 
L 566.350796 -215.109091 
L 565.633719 -212.563636 
L 565.441067 -210.018182 
L 565.670569 -207.472727 
L 566.202789 -204.927273 
L 566.907943 -202.381818 
L 567.652969 -199.836364 
L 568.308498 -197.290909 
L 568.755377 -194.745455 
L 568.890424 -192.2 
L 568.631125 -189.654545 
L 567.919042 -187.109091 
L 566.72178 -184.563636 
L 565.033465 -182.018182 
L 562.873767 -179.472727 
L 560.285597 -176.927273 
L 557.331716 -174.381818 
L 554.090528 -171.836364 
L 550.651378 -169.290909 
L 547.109704 -166.745455 
L 543.562338 -164.2 
L 540.103239 -161.654545 
L 536.819843 -159.109091 
L 533.790163 -156.563636 
L 531.080679 -154.018182 
L 528.744995 -151.472727 
L 526.823165 -148.927273 
L 525.341579 -146.381818 
L 524.313248 -143.836364 
L 523.738372 -141.290909 
L 523.605058 -138.745455 
L 523.890117 -136.2 
L 524.559913 -133.654545 
L 525.571243 -131.109091 
L 526.872318 -128.563636 
L 528.403876 -126.018182 
L 530.100515 -123.472727 
L 531.892286 -120.927273 
L 533.70658 -118.381818 
L 535.470306 -115.836364 
L 537.112297 -113.290909 
L 538.565853 -110.745455 
L 539.771289 -108.2 
L 540.678327 -105.654545 
L 541.248157 -103.109091 
L 541.455018 -100.563636 
L 541.287158 -98.018182 
L 540.74709 -95.472727 
L 539.851102 -92.927273 
L 538.628049 -90.381818 
L 537.117511 -87.836364 
L 535.367443 -85.290909 
L 533.431495 -82.745455 
L 531.366177 -80.2 
L 529.228084 -77.654545 
L 527.07133 -75.109091 
L 524.945371 -72.563636 
L 522.893289 -70.018182 
L 520.95063 -67.472727 
L 519.144784 -64.927273 
L 517.494895 -62.381818 
L 516.012226 -59.836364 
L 514.700891 -57.290909 
L 513.558853 -54.745455 
L 512.57908 -52.2 
z
" style="stroke: #3f3f3f; stroke-width: 1.25"/>
    </defs>
    <g clip-path="url(#p434d384538)">
     <use xlink:href="#m475bb04645" x="0" y="360" style="fill: #e1812c; stroke: #3f3f3f; stroke-width: 1.25"/>
    </g>
   </g>
   <g id="matplotlib.axis_1">
    <g id="xtick_1">
     <g id="line2d_1">
      <defs>
       <path id="mc30b61e2d7" d="M 0 0 
L 0 3.5 
" style="stroke: #000000; stroke-width: 0.8"/>
      </defs>
      <g>
       <use xlink:href="#mc30b61e2d7" x="229.5" y="320.4" style="stroke: #000000; stroke-width: 0.8"/>
      </g>
     </g>
     <g id="text_1">
      <!-- other -->
      <g transform="translate(216.179688 334.998438) scale(0.1 -0.1)">
       <defs>
        <path id="DejaVuSans-6f" d="M 1959 3097 
Q 1497 3097 1228 2736 
Q 959 2375 959 1747 
Q 959 1119 1226 758 
Q 1494 397 1959 397 
Q 2419 397 2687 759 
Q 2956 1122 2956 1747 
Q 2956 2369 2687 2733 
Q 2419 3097 1959 3097 
z
M 1959 3584 
Q 2709 3584 3137 3096 
Q 3566 2609 3566 1747 
Q 3566 888 3137 398 
Q 2709 -91 1959 -91 
Q 1206 -91 779 398 
Q 353 888 353 1747 
Q 353 2609 779 3096 
Q 1206 3584 1959 3584 
z
" transform="scale(0.015625)"/>
        <path id="DejaVuSans-74" d="M 1172 4494 
L 1172 3500 
L 2356 3500 
L 2356 3053 
L 1172 3053 
L 1172 1153 
Q 1172 725 1289 603 
Q 1406 481 1766 481 
L 2356 481 
L 2356 0 
L 1766 0 
Q 1100 0 847 248 
Q 594 497 594 1153 
L 594 3053 
L 172 3053 
L 172 3500 
L 594 3500 
L 594 4494 
L 1172 4494 
z
" transform="scale(0.015625)"/>
        <path id="DejaVuSans-68" d="M 3513 2113 
L 3513 0 
L 2938 0 
L 2938 2094 
Q 2938 2591 2744 2837 
Q 2550 3084 2163 3084 
Q 1697 3084 1428 2787 
Q 1159 2491 1159 1978 
L 1159 0 
L 581 0 
L 581 4863 
L 1159 4863 
L 1159 2956 
Q 1366 3272 1645 3428 
Q 1925 3584 2291 3584 
Q 2894 3584 3203 3211 
Q 3513 2838 3513 2113 
z
" transform="scale(0.015625)"/>
        <path id="DejaVuSans-65" d="M 3597 1894 
L 3597 1613 
L 953 1613 
Q 991 1019 1311 708 
Q 1631 397 2203 397 
Q 2534 397 2845 478 
Q 3156 559 3463 722 
L 3463 178 
Q 3153 47 2828 -22 
Q 2503 -91 2169 -91 
Q 1331 -91 842 396 
Q 353 884 353 1716 
Q 353 2575 817 3079 
Q 1281 3584 2069 3584 
Q 2775 3584 3186 3129 
Q 3597 2675 3597 1894 
z
M 3022 2063 
Q 3016 2534 2758 2815 
Q 2500 3097 2075 3097 
Q 1594 3097 1305 2825 
Q 1016 2553 972 2059 
L 3022 2063 
z
" transform="scale(0.015625)"/>
        <path id="DejaVuSans-72" d="M 2631 2963 
Q 2534 3019 2420 3045 
Q 2306 3072 2169 3072 
Q 1681 3072 1420 2755 
Q 1159 2438 1159 1844 
L 1159 0 
L 581 0 
L 581 3500 
L 1159 3500 
L 1159 2956 
Q 1341 3275 1631 3429 
Q 1922 3584 2338 3584 
Q 2397 3584 2469 3576 
Q 2541 3569 2628 3553 
L 2631 2963 
z
" transform="scale(0.015625)"/>
       </defs>
       <use xlink:href="#DejaVuSans-6f"/>
       <use xlink:href="#DejaVuSans-74" transform="translate(61.181641 0)"/>
       <use xlink:href="#DejaVuSans-68" transform="translate(100.390625 0)"/>
       <use xlink:href="#DejaVuSans-65" transform="translate(163.769531 0)"/>
       <use xlink:href="#DejaVuSans-72" transform="translate(225.292969 0)"/>
      </g>
     </g>
    </g>
    <g id="xtick_2">
     <g id="line2d_2">
      <g>
       <use xlink:href="#mc30b61e2d7" x="508.5" y="320.4" style="stroke: #000000; stroke-width: 0.8"/>
      </g>
     </g>
     <g id="text_2">
      <!-- Specific -->
      <g transform="translate(489.038281 334.998438) scale(0.1 -0.1)">
       <defs>
        <path id="DejaVuSans-53" d="M 3425 4513 
L 3425 3897 
Q 3066 4069 2747 4153 
Q 2428 4238 2131 4238 
Q 1616 4238 1336 4038 
Q 1056 3838 1056 3469 
Q 1056 3159 1242 3001 
Q 1428 2844 1947 2747 
L 2328 2669 
Q 3034 2534 3370 2195 
Q 3706 1856 3706 1288 
Q 3706 609 3251 259 
Q 2797 -91 1919 -91 
Q 1588 -91 1214 -16 
Q 841 59 441 206 
L 441 856 
Q 825 641 1194 531 
Q 1563 422 1919 422 
Q 2459 422 2753 634 
Q 3047 847 3047 1241 
Q 3047 1584 2836 1778 
Q 2625 1972 2144 2069 
L 1759 2144 
Q 1053 2284 737 2584 
Q 422 2884 422 3419 
Q 422 4038 858 4394 
Q 1294 4750 2059 4750 
Q 2388 4750 2728 4690 
Q 3069 4631 3425 4513 
z
" transform="scale(0.015625)"/>
        <path id="DejaVuSans-70" d="M 1159 525 
L 1159 -1331 
L 581 -1331 
L 581 3500 
L 1159 3500 
L 1159 2969 
Q 1341 3281 1617 3432 
Q 1894 3584 2278 3584 
Q 2916 3584 3314 3078 
Q 3713 2572 3713 1747 
Q 3713 922 3314 415 
Q 2916 -91 2278 -91 
Q 1894 -91 1617 61 
Q 1341 213 1159 525 
z
M 3116 1747 
Q 3116 2381 2855 2742 
Q 2594 3103 2138 3103 
Q 1681 3103 1420 2742 
Q 1159 2381 1159 1747 
Q 1159 1113 1420 752 
Q 1681 391 2138 391 
Q 2594 391 2855 752 
Q 3116 1113 3116 1747 
z
" transform="scale(0.015625)"/>
        <path id="DejaVuSans-63" d="M 3122 3366 
L 3122 2828 
Q 2878 2963 2633 3030 
Q 2388 3097 2138 3097 
Q 1578 3097 1268 2742 
Q 959 2388 959 1747 
Q 959 1106 1268 751 
Q 1578 397 2138 397 
Q 2388 397 2633 464 
Q 2878 531 3122 666 
L 3122 134 
Q 2881 22 2623 -34 
Q 2366 -91 2075 -91 
Q 1284 -91 818 406 
Q 353 903 353 1747 
Q 353 2603 823 3093 
Q 1294 3584 2113 3584 
Q 2378 3584 2631 3529 
Q 2884 3475 3122 3366 
z
" transform="scale(0.015625)"/>
        <path id="DejaVuSans-69" d="M 603 3500 
L 1178 3500 
L 1178 0 
L 603 0 
L 603 3500 
z
M 603 4863 
L 1178 4863 
L 1178 4134 
L 603 4134 
L 603 4863 
z
" transform="scale(0.015625)"/>
        <path id="DejaVuSans-66" d="M 2375 4863 
L 2375 4384 
L 1825 4384 
Q 1516 4384 1395 4259 
Q 1275 4134 1275 3809 
L 1275 3500 
L 2222 3500 
L 2222 3053 
L 1275 3053 
L 1275 0 
L 697 0 
L 697 3053 
L 147 3053 
L 147 3500 
L 697 3500 
L 697 3744 
Q 697 4328 969 4595 
Q 1241 4863 1831 4863 
L 2375 4863 
z
" transform="scale(0.015625)"/>
       </defs>
       <use xlink:href="#DejaVuSans-53"/>
       <use xlink:href="#DejaVuSans-70" transform="translate(63.476562 0)"/>
       <use xlink:href="#DejaVuSans-65" transform="translate(126.953125 0)"/>
       <use xlink:href="#DejaVuSans-63" transform="translate(188.476562 0)"/>
       <use xlink:href="#DejaVuSans-69" transform="translate(243.457031 0)"/>
       <use xlink:href="#DejaVuSans-66" transform="translate(271.240234 0)"/>
       <use xlink:href="#DejaVuSans-69" transform="translate(306.445312 0)"/>
       <use xlink:href="#DejaVuSans-63" transform="translate(334.228516 0)"/>
      </g>
     </g>
    </g>
    <g id="text_3">
     <!-- Connectivity category -->
     <g transform="translate(313.98125 348.676562) scale(0.1 -0.1)">
      <defs>
       <path id="DejaVuSans-43" d="M 4122 4306 
L 4122 3641 
Q 3803 3938 3442 4084 
Q 3081 4231 2675 4231 
Q 1875 4231 1450 3742 
Q 1025 3253 1025 2328 
Q 1025 1406 1450 917 
Q 1875 428 2675 428 
Q 3081 428 3442 575 
Q 3803 722 4122 1019 
L 4122 359 
Q 3791 134 3420 21 
Q 3050 -91 2638 -91 
Q 1578 -91 968 557 
Q 359 1206 359 2328 
Q 359 3453 968 4101 
Q 1578 4750 2638 4750 
Q 3056 4750 3426 4639 
Q 3797 4528 4122 4306 
z
" transform="scale(0.015625)"/>
       <path id="DejaVuSans-6e" d="M 3513 2113 
L 3513 0 
L 2938 0 
L 2938 2094 
Q 2938 2591 2744 2837 
Q 2550 3084 2163 3084 
Q 1697 3084 1428 2787 
Q 1159 2491 1159 1978 
L 1159 0 
L 581 0 
L 581 3500 
L 1159 3500 
L 1159 2956 
Q 1366 3272 1645 3428 
Q 1925 3584 2291 3584 
Q 2894 3584 3203 3211 
Q 3513 2838 3513 2113 
z
" transform="scale(0.015625)"/>
       <path id="DejaVuSans-76" d="M 191 3500 
L 800 3500 
L 1894 563 
L 2988 3500 
L 3597 3500 
L 2284 0 
L 1503 0 
L 191 3500 
z
" transform="scale(0.015625)"/>
       <path id="DejaVuSans-79" d="M 2059 -325 
Q 1816 -950 1584 -1140 
Q 1353 -1331 966 -1331 
L 506 -1331 
L 506 -850 
L 844 -850 
Q 1081 -850 1212 -737 
Q 1344 -625 1503 -206 
L 1606 56 
L 191 3500 
L 800 3500 
L 1894 763 
L 2988 3500 
L 3597 3500 
L 2059 -325 
z
" transform="scale(0.015625)"/>
       <path id="DejaVuSans-20" transform="scale(0.015625)"/>
       <path id="DejaVuSans-61" d="M 2194 1759 
Q 1497 1759 1228 1600 
Q 959 1441 959 1056 
Q 959 750 1161 570 
Q 1363 391 1709 391 
Q 2188 391 2477 730 
Q 2766 1069 2766 1631 
L 2766 1759 
L 2194 1759 
z
M 3341 1997 
L 3341 0 
L 2766 0 
L 2766 531 
Q 2569 213 2275 61 
Q 1981 -91 1556 -91 
Q 1019 -91 701 211 
Q 384 513 384 1019 
Q 384 1609 779 1909 
Q 1175 2209 1959 2209 
L 2766 2209 
L 2766 2266 
Q 2766 2663 2505 2880 
Q 2244 3097 1772 3097 
Q 1472 3097 1187 3025 
Q 903 2953 641 2809 
L 641 3341 
Q 956 3463 1253 3523 
Q 1550 3584 1831 3584 
Q 2591 3584 2966 3190 
Q 3341 2797 3341 1997 
z
" transform="scale(0.015625)"/>
       <path id="DejaVuSans-67" d="M 2906 1791 
Q 2906 2416 2648 2759 
Q 2391 3103 1925 3103 
Q 1463 3103 1205 2759 
Q 947 2416 947 1791 
Q 947 1169 1205 825 
Q 1463 481 1925 481 
Q 2391 481 2648 825 
Q 2906 1169 2906 1791 
z
M 3481 434 
Q 3481 -459 3084 -895 
Q 2688 -1331 1869 -1331 
Q 1566 -1331 1297 -1286 
Q 1028 -1241 775 -1147 
L 775 -588 
Q 1028 -725 1275 -790 
Q 1522 -856 1778 -856 
Q 2344 -856 2625 -561 
Q 2906 -266 2906 331 
L 2906 616 
Q 2728 306 2450 153 
Q 2172 0 1784 0 
Q 1141 0 747 490 
Q 353 981 353 1791 
Q 353 2603 747 3093 
Q 1141 3584 1784 3584 
Q 2172 3584 2450 3431 
Q 2728 3278 2906 2969 
L 2906 3500 
L 3481 3500 
L 3481 434 
z
" transform="scale(0.015625)"/>
      </defs>
      <use xlink:href="#DejaVuSans-43"/>
      <use xlink:href="#DejaVuSans-6f" transform="translate(69.824219 0)"/>
      <use xlink:href="#DejaVuSans-6e" transform="translate(131.005859 0)"/>
      <use xlink:href="#DejaVuSans-6e" transform="translate(194.384766 0)"/>
      <use xlink:href="#DejaVuSans-65" transform="translate(257.763672 0)"/>
      <use xlink:href="#DejaVuSans-63" transform="translate(319.287109 0)"/>
      <use xlink:href="#DejaVuSans-74" transform="translate(374.267578 0)"/>
      <use xlink:href="#DejaVuSans-69" transform="translate(413.476562 0)"/>
      <use xlink:href="#DejaVuSans-76" transform="translate(441.259766 0)"/>
      <use xlink:href="#DejaVuSans-69" transform="translate(500.439453 0)"/>
      <use xlink:href="#DejaVuSans-74" transform="translate(528.222656 0)"/>
      <use xlink:href="#DejaVuSans-79" transform="translate(567.431641 0)"/>
      <use xlink:href="#DejaVuSans-20" transform="translate(626.611328 0)"/>
      <use xlink:href="#DejaVuSans-63" transform="translate(658.398438 0)"/>
      <use xlink:href="#DejaVuSans-61" transform="translate(713.378906 0)"/>
      <use xlink:href="#DejaVuSans-74" transform="translate(774.658203 0)"/>
      <use xlink:href="#DejaVuSans-65" transform="translate(813.867188 0)"/>
      <use xlink:href="#DejaVuSans-67" transform="translate(875.390625 0)"/>
      <use xlink:href="#DejaVuSans-6f" transform="translate(938.867188 0)"/>
      <use xlink:href="#DejaVuSans-72" transform="translate(1000.048828 0)"/>
      <use xlink:href="#DejaVuSans-79" transform="translate(1041.162109 0)"/>
     </g>
    </g>
   </g>
   <g id="matplotlib.axis_2">
    <g id="ytick_1">
     <g id="line2d_3">
      <defs>
       <path id="m00c39bf68f" d="M 0 0 
L -3.5 0 
" style="stroke: #000000; stroke-width: 0.8"/>
      </defs>
      <g>
       <use xlink:href="#m00c39bf68f" x="90" y="305.499521" style="stroke: #000000; stroke-width: 0.8"/>
      </g>
     </g>
     <g id="text_4">
      <!-- 0 -->
      <g transform="translate(76.6375 309.29874) scale(0.1 -0.1)">
       <defs>
        <path id="DejaVuSans-30" d="M 2034 4250 
Q 1547 4250 1301 3770 
Q 1056 3291 1056 2328 
Q 1056 1369 1301 889 
Q 1547 409 2034 409 
Q 2525 409 2770 889 
Q 3016 1369 3016 2328 
Q 3016 3291 2770 3770 
Q 2525 4250 2034 4250 
z
M 2034 4750 
Q 2819 4750 3233 4129 
Q 3647 3509 3647 2328 
Q 3647 1150 3233 529 
Q 2819 -91 2034 -91 
Q 1250 -91 836 529 
Q 422 1150 422 2328 
Q 422 3509 836 4129 
Q 1250 4750 2034 4750 
z
" transform="scale(0.015625)"/>
       </defs>
       <use xlink:href="#DejaVuSans-30"/>
      </g>
     </g>
    </g>
    <g id="ytick_2">
     <g id="line2d_4">
      <g>
       <use xlink:href="#m00c39bf68f" x="90" y="264.942301" style="stroke: #000000; stroke-width: 0.8"/>
      </g>
     </g>
     <g id="text_5">
      <!-- 100 -->
      <g transform="translate(63.9125 268.74152) scale(0.1 -0.1)">
       <defs>
        <path id="DejaVuSans-31" d="M 794 531 
L 1825 531 
L 1825 4091 
L 703 3866 
L 703 4441 
L 1819 4666 
L 2450 4666 
L 2450 531 
L 3481 531 
L 3481 0 
L 794 0 
L 794 531 
z
" transform="scale(0.015625)"/>
       </defs>
       <use xlink:href="#DejaVuSans-31"/>
       <use xlink:href="#DejaVuSans-30" transform="translate(63.623047 0)"/>
       <use xlink:href="#DejaVuSans-30" transform="translate(127.246094 0)"/>
      </g>
     </g>
    </g>
    <g id="ytick_3">
     <g id="line2d_5">
      <g>
       <use xlink:href="#m00c39bf68f" x="90" y="224.385081" style="stroke: #000000; stroke-width: 0.8"/>
      </g>
     </g>
     <g id="text_6">
      <!-- 200 -->
      <g transform="translate(63.9125 228.1843) scale(0.1 -0.1)">
       <defs>
        <path id="DejaVuSans-32" d="M 1228 531 
L 3431 531 
L 3431 0 
L 469 0 
L 469 531 
Q 828 903 1448 1529 
Q 2069 2156 2228 2338 
Q 2531 2678 2651 2914 
Q 2772 3150 2772 3378 
Q 2772 3750 2511 3984 
Q 2250 4219 1831 4219 
Q 1534 4219 1204 4116 
Q 875 4013 500 3803 
L 500 4441 
Q 881 4594 1212 4672 
Q 1544 4750 1819 4750 
Q 2544 4750 2975 4387 
Q 3406 4025 3406 3419 
Q 3406 3131 3298 2873 
Q 3191 2616 2906 2266 
Q 2828 2175 2409 1742 
Q 1991 1309 1228 531 
z
" transform="scale(0.015625)"/>
       </defs>
       <use xlink:href="#DejaVuSans-32"/>
       <use xlink:href="#DejaVuSans-30" transform="translate(63.623047 0)"/>
       <use xlink:href="#DejaVuSans-30" transform="translate(127.246094 0)"/>
      </g>
     </g>
    </g>
    <g id="ytick_4">
     <g id="line2d_6">
      <g>
       <use xlink:href="#m00c39bf68f" x="90" y="183.827861" style="stroke: #000000; stroke-width: 0.8"/>
      </g>
     </g>
     <g id="text_7">
      <!-- 300 -->
      <g transform="translate(63.9125 187.62708) scale(0.1 -0.1)">
       <defs>
        <path id="DejaVuSans-33" d="M 2597 2516 
Q 3050 2419 3304 2112 
Q 3559 1806 3559 1356 
Q 3559 666 3084 287 
Q 2609 -91 1734 -91 
Q 1441 -91 1130 -33 
Q 819 25 488 141 
L 488 750 
Q 750 597 1062 519 
Q 1375 441 1716 441 
Q 2309 441 2620 675 
Q 2931 909 2931 1356 
Q 2931 1769 2642 2001 
Q 2353 2234 1838 2234 
L 1294 2234 
L 1294 2753 
L 1863 2753 
Q 2328 2753 2575 2939 
Q 2822 3125 2822 3475 
Q 2822 3834 2567 4026 
Q 2313 4219 1838 4219 
Q 1578 4219 1281 4162 
Q 984 4106 628 3988 
L 628 4550 
Q 988 4650 1302 4700 
Q 1616 4750 1894 4750 
Q 2613 4750 3031 4423 
Q 3450 4097 3450 3541 
Q 3450 3153 3228 2886 
Q 3006 2619 2597 2516 
z
" transform="scale(0.015625)"/>
       </defs>
       <use xlink:href="#DejaVuSans-33"/>
       <use xlink:href="#DejaVuSans-30" transform="translate(63.623047 0)"/>
       <use xlink:href="#DejaVuSans-30" transform="translate(127.246094 0)"/>
      </g>
     </g>
    </g>
    <g id="ytick_5">
     <g id="line2d_7">
      <g>
       <use xlink:href="#m00c39bf68f" x="90" y="143.270641" style="stroke: #000000; stroke-width: 0.8"/>
      </g>
     </g>
     <g id="text_8">
      <!-- 400 -->
      <g transform="translate(63.9125 147.06986) scale(0.1 -0.1)">
       <defs>
        <path id="DejaVuSans-34" d="M 2419 4116 
L 825 1625 
L 2419 1625 
L 2419 4116 
z
M 2253 4666 
L 3047 4666 
L 3047 1625 
L 3713 1625 
L 3713 1100 
L 3047 1100 
L 3047 0 
L 2419 0 
L 2419 1100 
L 313 1100 
L 313 1709 
L 2253 4666 
z
" transform="scale(0.015625)"/>
       </defs>
       <use xlink:href="#DejaVuSans-34"/>
       <use xlink:href="#DejaVuSans-30" transform="translate(63.623047 0)"/>
       <use xlink:href="#DejaVuSans-30" transform="translate(127.246094 0)"/>
      </g>
     </g>
    </g>
    <g id="ytick_6">
     <g id="line2d_8">
      <g>
       <use xlink:href="#m00c39bf68f" x="90" y="102.713421" style="stroke: #000000; stroke-width: 0.8"/>
      </g>
     </g>
     <g id="text_9">
      <!-- 500 -->
      <g transform="translate(63.9125 106.512639) scale(0.1 -0.1)">
       <defs>
        <path id="DejaVuSans-35" d="M 691 4666 
L 3169 4666 
L 3169 4134 
L 1269 4134 
L 1269 2991 
Q 1406 3038 1543 3061 
Q 1681 3084 1819 3084 
Q 2600 3084 3056 2656 
Q 3513 2228 3513 1497 
Q 3513 744 3044 326 
Q 2575 -91 1722 -91 
Q 1428 -91 1123 -41 
Q 819 9 494 109 
L 494 744 
Q 775 591 1075 516 
Q 1375 441 1709 441 
Q 2250 441 2565 725 
Q 2881 1009 2881 1497 
Q 2881 1984 2565 2268 
Q 2250 2553 1709 2553 
Q 1456 2553 1204 2497 
Q 953 2441 691 2322 
L 691 4666 
z
" transform="scale(0.015625)"/>
       </defs>
       <use xlink:href="#DejaVuSans-35"/>
       <use xlink:href="#DejaVuSans-30" transform="translate(63.623047 0)"/>
       <use xlink:href="#DejaVuSans-30" transform="translate(127.246094 0)"/>
      </g>
     </g>
    </g>
    <g id="ytick_7">
     <g id="line2d_9">
      <g>
       <use xlink:href="#m00c39bf68f" x="90" y="62.156201" style="stroke: #000000; stroke-width: 0.8"/>
      </g>
     </g>
     <g id="text_10">
      <!-- 600 -->
      <g transform="translate(63.9125 65.955419) scale(0.1 -0.1)">
       <defs>
        <path id="DejaVuSans-36" d="M 2113 2584 
Q 1688 2584 1439 2293 
Q 1191 2003 1191 1497 
Q 1191 994 1439 701 
Q 1688 409 2113 409 
Q 2538 409 2786 701 
Q 3034 994 3034 1497 
Q 3034 2003 2786 2293 
Q 2538 2584 2113 2584 
z
M 3366 4563 
L 3366 3988 
Q 3128 4100 2886 4159 
Q 2644 4219 2406 4219 
Q 1781 4219 1451 3797 
Q 1122 3375 1075 2522 
Q 1259 2794 1537 2939 
Q 1816 3084 2150 3084 
Q 2853 3084 3261 2657 
Q 3669 2231 3669 1497 
Q 3669 778 3244 343 
Q 2819 -91 2113 -91 
Q 1303 -91 875 529 
Q 447 1150 447 2328 
Q 447 3434 972 4092 
Q 1497 4750 2381 4750 
Q 2619 4750 2861 4703 
Q 3103 4656 3366 4563 
z
" transform="scale(0.015625)"/>
       </defs>
       <use xlink:href="#DejaVuSans-36"/>
       <use xlink:href="#DejaVuSans-30" transform="translate(63.623047 0)"/>
       <use xlink:href="#DejaVuSans-30" transform="translate(127.246094 0)"/>
      </g>
     </g>
    </g>
    <g id="text_11">
     <!-- cont_variable -->
     <g transform="translate(57.554687 215.409375) rotate(-90) scale(0.1 -0.1)">
      <defs>
       <path id="DejaVuSans-5f" d="M 3263 -1063 
L 3263 -1509 
L -63 -1509 
L -63 -1063 
L 3263 -1063 
z
" transform="scale(0.015625)"/>
       <path id="DejaVuSans-62" d="M 3116 1747 
Q 3116 2381 2855 2742 
Q 2594 3103 2138 3103 
Q 1681 3103 1420 2742 
Q 1159 2381 1159 1747 
Q 1159 1113 1420 752 
Q 1681 391 2138 391 
Q 2594 391 2855 752 
Q 3116 1113 3116 1747 
z
M 1159 2969 
Q 1341 3281 1617 3432 
Q 1894 3584 2278 3584 
Q 2916 3584 3314 3078 
Q 3713 2572 3713 1747 
Q 3713 922 3314 415 
Q 2916 -91 2278 -91 
Q 1894 -91 1617 61 
Q 1341 213 1159 525 
L 1159 0 
L 581 0 
L 581 4863 
L 1159 4863 
L 1159 2969 
z
" transform="scale(0.015625)"/>
       <path id="DejaVuSans-6c" d="M 603 4863 
L 1178 4863 
L 1178 0 
L 603 0 
L 603 4863 
z
" transform="scale(0.015625)"/>
      </defs>
      <use xlink:href="#DejaVuSans-63"/>
      <use xlink:href="#DejaVuSans-6f" transform="translate(54.980469 0)"/>
      <use xlink:href="#DejaVuSans-6e" transform="translate(116.162109 0)"/>
      <use xlink:href="#DejaVuSans-74" transform="translate(179.541016 0)"/>
      <use xlink:href="#DejaVuSans-5f" transform="translate(218.75 0)"/>
      <use xlink:href="#DejaVuSans-76" transform="translate(268.75 0)"/>
      <use xlink:href="#DejaVuSans-61" transform="translate(327.929688 0)"/>
      <use xlink:href="#DejaVuSans-72" transform="translate(389.208984 0)"/>
      <use xlink:href="#DejaVuSans-69" transform="translate(430.322266 0)"/>
      <use xlink:href="#DejaVuSans-61" transform="translate(458.105469 0)"/>
      <use xlink:href="#DejaVuSans-62" transform="translate(519.384766 0)"/>
      <use xlink:href="#DejaVuSans-6c" transform="translate(582.861328 0)"/>
      <use xlink:href="#DejaVuSans-65" transform="translate(610.644531 0)"/>
     </g>
    </g>
   </g>
   <g id="patch_3">
    <path d="M 90 320.4 
L 90 43.2 
" style="fill: none; stroke: #000000; stroke-width: 0.8; stroke-linejoin: miter; stroke-linecap: square"/>
   </g>
   <g id="patch_4">
    <path d="M 648 320.4 
L 648 43.2 
" style="fill: none; stroke: #000000; stroke-width: 0.8; stroke-linejoin: miter; stroke-linecap: square"/>
   </g>
   <g id="patch_5">
    <path d="M 90 320.4 
L 648 320.4 
" style="fill: none; stroke: #000000; stroke-width: 0.8; stroke-linejoin: miter; stroke-linecap: square"/>
   </g>
   <g id="patch_6">
    <path d="M 90 43.2 
L 648 43.2 
" style="fill: none; stroke: #000000; stroke-width: 0.8; stroke-linejoin: miter; stroke-linecap: square"/>
   </g>
   <g id="PathCollection_1">
    <defs>
     <path id="m5be7e170ba" d="M 0 2.5 
C 0.663008 2.5 1.29895 2.236584 1.767767 1.767767 
C 2.236584 1.29895 2.5 0.663008 2.5 0 
C 2.5 -0.663008 2.236584 -1.29895 1.767767 -1.767767 
C 1.29895 -2.236584 0.663008 -2.5 0 -2.5 
C -0.663008 -2.5 -1.29895 -2.236584 -1.767767 -1.767767 
C -2.236584 -1.29895 -2.5 -0.663008 -2.5 0 
C -2.5 0.663008 -2.236584 1.29895 -1.767767 1.767767 
C -1.29895 2.236584 -0.663008 2.5 0 2.5 
z
"/>
    </defs>
    <g clip-path="url(#p434d384538)">
     <use xlink:href="#m5be7e170ba" x="250.352519" y="260.886579" style="fill-opacity: 0.3"/>
     <use xlink:href="#m5be7e170ba" x="246.809836" y="260.886579" style="fill-opacity: 0.3"/>
     <use xlink:href="#m5be7e170ba" x="236.402706" y="260.886579" style="fill-opacity: 0.3"/>
     <use xlink:href="#m5be7e170ba" x="207.468061" y="260.886579" style="fill-opacity: 0.3"/>
     <use xlink:href="#m5be7e170ba" x="224.855842" y="260.886579" style="fill-opacity: 0.3"/>
     <use xlink:href="#m5be7e170ba" x="220.808917" y="260.886579" style="fill-opacity: 0.3"/>
     <use xlink:href="#m5be7e170ba" x="230.810704" y="256.830857" style="fill-opacity: 0.3"/>
     <use xlink:href="#m5be7e170ba" x="249.473747" y="256.830857" style="fill-opacity: 0.3"/>
     <use xlink:href="#m5be7e170ba" x="253.907484" y="256.830857" style="fill-opacity: 0.3"/>
     <use xlink:href="#m5be7e170ba" x="203.491412" y="256.830857" style="fill-opacity: 0.3"/>
     <use xlink:href="#m5be7e170ba" x="245.232763" y="256.830857" style="fill-opacity: 0.3"/>
     <use xlink:href="#m5be7e170ba" x="214.978646" y="256.830857" style="fill-opacity: 0.3"/>
     <use xlink:href="#m5be7e170ba" x="208.76305" y="256.830857" style="fill-opacity: 0.3"/>
     <use xlink:href="#m5be7e170ba" x="208.307678" y="256.830857" style="fill-opacity: 0.3"/>
     <use xlink:href="#m5be7e170ba" x="248.355804" y="183.827861" style="fill-opacity: 0.3"/>
     <use xlink:href="#m5be7e170ba" x="249.065272" y="183.827861" style="fill-opacity: 0.3"/>
     <use xlink:href="#m5be7e170ba" x="212.217042" y="183.827861" style="fill-opacity: 0.3"/>
     <use xlink:href="#m5be7e170ba" x="247.820177" y="183.827861" style="fill-opacity: 0.3"/>
     <use xlink:href="#m5be7e170ba" x="203.557031" y="102.713421" style="fill-opacity: 0.3"/>
     <use xlink:href="#m5be7e170ba" x="205.94996" y="102.713421" style="fill-opacity: 0.3"/>
     <use xlink:href="#m5be7e170ba" x="241.5548" y="102.713421" style="fill-opacity: 0.3"/>
     <use xlink:href="#m5be7e170ba" x="236.956642" y="102.713421" style="fill-opacity: 0.3"/>
     <use xlink:href="#m5be7e170ba" x="202.307388" y="102.713421" style="fill-opacity: 0.3"/>
     <use xlink:href="#m5be7e170ba" x="228.067104" y="102.713421" style="fill-opacity: 0.3"/>
     <use xlink:href="#m5be7e170ba" x="222.083565" y="102.713421" style="fill-opacity: 0.3"/>
     <use xlink:href="#m5be7e170ba" x="247.627102" y="102.713421" style="fill-opacity: 0.3"/>
     <use xlink:href="#m5be7e170ba" x="204.120001" y="102.713421" style="fill-opacity: 0.3"/>
     <use xlink:href="#m5be7e170ba" x="218.865489" y="102.713421" style="fill-opacity: 0.3"/>
     <use xlink:href="#m5be7e170ba" x="202.848438" y="102.713421" style="fill-opacity: 0.3"/>
     <use xlink:href="#m5be7e170ba" x="223.547619" y="102.713421" style="fill-opacity: 0.3"/>
     <use xlink:href="#m5be7e170ba" x="229.42373" y="102.713421" style="fill-opacity: 0.3"/>
     <use xlink:href="#m5be7e170ba" x="207.811126" y="102.713421" style="fill-opacity: 0.3"/>
     <use xlink:href="#m5be7e170ba" x="242.113569" y="102.713421" style="fill-opacity: 0.3"/>
     <use xlink:href="#m5be7e170ba" x="236.970966" y="102.713421" style="fill-opacity: 0.3"/>
     <use xlink:href="#m5be7e170ba" x="232.414484" y="102.713421" style="fill-opacity: 0.3"/>
     <use xlink:href="#m5be7e170ba" x="214.91418" y="102.713421" style="fill-opacity: 0.3"/>
     <use xlink:href="#m5be7e170ba" x="244.297113" y="102.713421" style="fill-opacity: 0.3"/>
     <use xlink:href="#m5be7e170ba" x="209.24992" y="102.713421" style="fill-opacity: 0.3"/>
     <use xlink:href="#m5be7e170ba" x="209.858974" y="102.713421" style="fill-opacity: 0.3"/>
     <use xlink:href="#m5be7e170ba" x="228.671669" y="102.713421" style="fill-opacity: 0.3"/>
     <use xlink:href="#m5be7e170ba" x="252.810222" y="102.713421" style="fill-opacity: 0.3"/>
     <use xlink:href="#m5be7e170ba" x="248.714486" y="102.713421" style="fill-opacity: 0.3"/>
     <use xlink:href="#m5be7e170ba" x="250.540685" y="102.713421" style="fill-opacity: 0.3"/>
     <use xlink:href="#m5be7e170ba" x="207.676654" y="102.713421" style="fill-opacity: 0.3"/>
     <use xlink:href="#m5be7e170ba" x="204.981535" y="102.713421" style="fill-opacity: 0.3"/>
     <use xlink:href="#m5be7e170ba" x="207.764287" y="102.713421" style="fill-opacity: 0.3"/>
     <use xlink:href="#m5be7e170ba" x="242.225907" y="102.713421" style="fill-opacity: 0.3"/>
     <use xlink:href="#m5be7e170ba" x="234.482443" y="102.713421" style="fill-opacity: 0.3"/>
     <use xlink:href="#m5be7e170ba" x="256.353765" y="102.713421" style="fill-opacity: 0.3"/>
     <use xlink:href="#m5be7e170ba" x="245.81266" y="102.713421" style="fill-opacity: 0.3"/>
     <use xlink:href="#m5be7e170ba" x="202.623413" y="102.713421" style="fill-opacity: 0.3"/>
     <use xlink:href="#m5be7e170ba" x="218.541191" y="102.713421" style="fill-opacity: 0.3"/>
     <use xlink:href="#m5be7e170ba" x="202.512634" y="102.713421" style="fill-opacity: 0.3"/>
     <use xlink:href="#m5be7e170ba" x="256.185946" y="102.713421" style="fill-opacity: 0.3"/>
     <use xlink:href="#m5be7e170ba" x="246.912139" y="102.713421" style="fill-opacity: 0.3"/>
     <use xlink:href="#m5be7e170ba" x="220.623976" y="102.713421" style="fill-opacity: 0.3"/>
     <use xlink:href="#m5be7e170ba" x="250.719966" y="102.713421" style="fill-opacity: 0.3"/>
     <use xlink:href="#m5be7e170ba" x="253.030716" y="102.713421" style="fill-opacity: 0.3"/>
     <use xlink:href="#m5be7e170ba" x="232.847073" y="102.713421" style="fill-opacity: 0.3"/>
     <use xlink:href="#m5be7e170ba" x="231.910445" y="102.713421" style="fill-opacity: 0.3"/>
     <use xlink:href="#m5be7e170ba" x="220.81301" y="102.713421" style="fill-opacity: 0.3"/>
     <use xlink:href="#m5be7e170ba" x="210.705518" y="102.713421" style="fill-opacity: 0.3"/>
     <use xlink:href="#m5be7e170ba" x="253.121273" y="102.713421" style="fill-opacity: 0.3"/>
     <use xlink:href="#m5be7e170ba" x="252.952326" y="102.713421" style="fill-opacity: 0.3"/>
     <use xlink:href="#m5be7e170ba" x="209.468536" y="102.713421" style="fill-opacity: 0.3"/>
     <use xlink:href="#m5be7e170ba" x="243.314257" y="102.713421" style="fill-opacity: 0.3"/>
     <use xlink:href="#m5be7e170ba" x="230.981633" y="102.713421" style="fill-opacity: 0.3"/>
     <use xlink:href="#m5be7e170ba" x="232.337646" y="102.713421" style="fill-opacity: 0.3"/>
     <use xlink:href="#m5be7e170ba" x="219.340821" y="102.713421" style="fill-opacity: 0.3"/>
     <use xlink:href="#m5be7e170ba" x="207.417099" y="102.713421" style="fill-opacity: 0.3"/>
     <use xlink:href="#m5be7e170ba" x="201.683062" y="131.103475" style="fill-opacity: 0.3"/>
     <use xlink:href="#m5be7e170ba" x="231.010305" y="131.103475" style="fill-opacity: 0.3"/>
     <use xlink:href="#m5be7e170ba" x="233.143688" y="131.103475" style="fill-opacity: 0.3"/>
     <use xlink:href="#m5be7e170ba" x="223.603956" y="131.103475" style="fill-opacity: 0.3"/>
     <use xlink:href="#m5be7e170ba" x="255.958136" y="131.103475" style="fill-opacity: 0.3"/>
     <use xlink:href="#m5be7e170ba" x="212.298767" y="131.103475" style="fill-opacity: 0.3"/>
     <use xlink:href="#m5be7e170ba" x="205.913051" y="131.103475" style="fill-opacity: 0.3"/>
     <use xlink:href="#m5be7e170ba" x="212.269411" y="131.103475" style="fill-opacity: 0.3"/>
     <use xlink:href="#m5be7e170ba" x="216.217156" y="131.103475" style="fill-opacity: 0.3"/>
     <use xlink:href="#m5be7e170ba" x="234.194919" y="131.103475" style="fill-opacity: 0.3"/>
     <use xlink:href="#m5be7e170ba" x="253.063031" y="131.103475" style="fill-opacity: 0.3"/>
     <use xlink:href="#m5be7e170ba" x="240.845933" y="131.103475" style="fill-opacity: 0.3"/>
     <use xlink:href="#m5be7e170ba" x="228.778456" y="131.103475" style="fill-opacity: 0.3"/>
     <use xlink:href="#m5be7e170ba" x="244.495011" y="131.103475" style="fill-opacity: 0.3"/>
     <use xlink:href="#m5be7e170ba" x="228.111856" y="131.103475" style="fill-opacity: 0.3"/>
     <use xlink:href="#m5be7e170ba" x="207.22846" y="159.493529" style="fill-opacity: 0.3"/>
     <use xlink:href="#m5be7e170ba" x="226.665719" y="159.493529" style="fill-opacity: 0.3"/>
     <use xlink:href="#m5be7e170ba" x="223.362319" y="159.493529" style="fill-opacity: 0.3"/>
     <use xlink:href="#m5be7e170ba" x="255.828747" y="171.660695" style="fill-opacity: 0.3"/>
     <use xlink:href="#m5be7e170ba" x="217.731734" y="171.660695" style="fill-opacity: 0.3"/>
     <use xlink:href="#m5be7e170ba" x="251.648099" y="171.660695" style="fill-opacity: 0.3"/>
     <use xlink:href="#m5be7e170ba" x="252.599539" y="171.660695" style="fill-opacity: 0.3"/>
     <use xlink:href="#m5be7e170ba" x="238.571788" y="171.660695" style="fill-opacity: 0.3"/>
     <use xlink:href="#m5be7e170ba" x="230.088831" y="171.660695" style="fill-opacity: 0.3"/>
     <use xlink:href="#m5be7e170ba" x="242.991874" y="171.660695" style="fill-opacity: 0.3"/>
     <use xlink:href="#m5be7e170ba" x="218.946714" y="171.660695" style="fill-opacity: 0.3"/>
     <use xlink:href="#m5be7e170ba" x="208.610241" y="171.660695" style="fill-opacity: 0.3"/>
     <use xlink:href="#m5be7e170ba" x="216.534301" y="171.660695" style="fill-opacity: 0.3"/>
     <use xlink:href="#m5be7e170ba" x="215.947073" y="171.660695" style="fill-opacity: 0.3"/>
     <use xlink:href="#m5be7e170ba" x="242.088886" y="171.660695" style="fill-opacity: 0.3"/>
     <use xlink:href="#m5be7e170ba" x="228.516675" y="171.660695" style="fill-opacity: 0.3"/>
     <use xlink:href="#m5be7e170ba" x="234.958056" y="171.660695" style="fill-opacity: 0.3"/>
     <use xlink:href="#m5be7e170ba" x="212.647541" y="171.660695" style="fill-opacity: 0.3"/>
     <use xlink:href="#m5be7e170ba" x="231.555252" y="171.660695" style="fill-opacity: 0.3"/>
     <use xlink:href="#m5be7e170ba" x="226.15582" y="171.660695" style="fill-opacity: 0.3"/>
     <use xlink:href="#m5be7e170ba" x="226.801439" y="171.660695" style="fill-opacity: 0.3"/>
     <use xlink:href="#m5be7e170ba" x="242.357178" y="171.660695" style="fill-opacity: 0.3"/>
     <use xlink:href="#m5be7e170ba" x="227.178377" y="171.660695" style="fill-opacity: 0.3"/>
     <use xlink:href="#m5be7e170ba" x="241.810905" y="171.660695" style="fill-opacity: 0.3"/>
     <use xlink:href="#m5be7e170ba" x="233.602331" y="171.660695" style="fill-opacity: 0.3"/>
     <use xlink:href="#m5be7e170ba" x="213.933467" y="171.660695" style="fill-opacity: 0.3"/>
     <use xlink:href="#m5be7e170ba" x="227.200423" y="171.660695" style="fill-opacity: 0.3"/>
     <use xlink:href="#m5be7e170ba" x="234.886208" y="171.660695" style="fill-opacity: 0.3"/>
     <use xlink:href="#m5be7e170ba" x="249.139948" y="171.660695" style="fill-opacity: 0.3"/>
     <use xlink:href="#m5be7e170ba" x="235.196861" y="171.660695" style="fill-opacity: 0.3"/>
     <use xlink:href="#m5be7e170ba" x="254.383772" y="171.660695" style="fill-opacity: 0.3"/>
     <use xlink:href="#m5be7e170ba" x="229.448758" y="171.660695" style="fill-opacity: 0.3"/>
     <use xlink:href="#m5be7e170ba" x="254.437459" y="171.660695" style="fill-opacity: 0.3"/>
     <use xlink:href="#m5be7e170ba" x="230.805767" y="171.660695" style="fill-opacity: 0.3"/>
     <use xlink:href="#m5be7e170ba" x="203.481348" y="171.660695" style="fill-opacity: 0.3"/>
     <use xlink:href="#m5be7e170ba" x="242.074938" y="171.660695" style="fill-opacity: 0.3"/>
     <use xlink:href="#m5be7e170ba" x="249.00369" y="171.660695" style="fill-opacity: 0.3"/>
     <use xlink:href="#m5be7e170ba" x="230.603224" y="171.660695" style="fill-opacity: 0.3"/>
     <use xlink:href="#m5be7e170ba" x="227.834722" y="171.660695" style="fill-opacity: 0.3"/>
     <use xlink:href="#m5be7e170ba" x="242.003102" y="171.660695" style="fill-opacity: 0.3"/>
    </g>
   </g>
   <g id="PathCollection_2">
    <g clip-path="url(#p434d384538)">
     <use xlink:href="#m5be7e170ba" x="518.72115" y="260.886579" style="fill-opacity: 0.3"/>
     <use xlink:href="#m5be7e170ba" x="511.053836" y="260.886579" style="fill-opacity: 0.3"/>
     <use xlink:href="#m5be7e170ba" x="496.278382" y="260.886579" style="fill-opacity: 0.3"/>
     <use xlink:href="#m5be7e170ba" x="506.139029" y="260.886579" style="fill-opacity: 0.3"/>
     <use xlink:href="#m5be7e170ba" x="487.866573" y="260.886579" style="fill-opacity: 0.3"/>
     <use xlink:href="#m5be7e170ba" x="513.247049" y="260.886579" style="fill-opacity: 0.3"/>
     <use xlink:href="#m5be7e170ba" x="484.336872" y="260.886579" style="fill-opacity: 0.3"/>
     <use xlink:href="#m5be7e170ba" x="503.300459" y="260.886579" style="fill-opacity: 0.3"/>
     <use xlink:href="#m5be7e170ba" x="487.703728" y="260.886579" style="fill-opacity: 0.3"/>
     <use xlink:href="#m5be7e170ba" x="488.526046" y="260.886579" style="fill-opacity: 0.3"/>
     <use xlink:href="#m5be7e170ba" x="506.175367" y="256.830857" style="fill-opacity: 0.3"/>
     <use xlink:href="#m5be7e170ba" x="480.631872" y="256.830857" style="fill-opacity: 0.3"/>
     <use xlink:href="#m5be7e170ba" x="501.919604" y="256.830857" style="fill-opacity: 0.3"/>
     <use xlink:href="#m5be7e170ba" x="506.26593" y="256.830857" style="fill-opacity: 0.3"/>
     <use xlink:href="#m5be7e170ba" x="501.420904" y="183.827861" style="fill-opacity: 0.3"/>
     <use xlink:href="#m5be7e170ba" x="535.218482" y="102.713421" style="fill-opacity: 0.3"/>
     <use xlink:href="#m5be7e170ba" x="493.497704" y="102.713421" style="fill-opacity: 0.3"/>
     <use xlink:href="#m5be7e170ba" x="514.342195" y="102.713421" style="fill-opacity: 0.3"/>
     <use xlink:href="#m5be7e170ba" x="515.168399" y="102.713421" style="fill-opacity: 0.3"/>
     <use xlink:href="#m5be7e170ba" x="498.748584" y="102.713421" style="fill-opacity: 0.3"/>
     <use xlink:href="#m5be7e170ba" x="491.948831" y="102.713421" style="fill-opacity: 0.3"/>
     <use xlink:href="#m5be7e170ba" x="506.779671" y="102.713421" style="fill-opacity: 0.3"/>
     <use xlink:href="#m5be7e170ba" x="490.204652" y="102.713421" style="fill-opacity: 0.3"/>
     <use xlink:href="#m5be7e170ba" x="493.559322" y="102.713421" style="fill-opacity: 0.3"/>
     <use xlink:href="#m5be7e170ba" x="481.77064" y="102.713421" style="fill-opacity: 0.3"/>
     <use xlink:href="#m5be7e170ba" x="520.407558" y="102.713421" style="fill-opacity: 0.3"/>
     <use xlink:href="#m5be7e170ba" x="522.367534" y="102.713421" style="fill-opacity: 0.3"/>
     <use xlink:href="#m5be7e170ba" x="533.143033" y="102.713421" style="fill-opacity: 0.3"/>
     <use xlink:href="#m5be7e170ba" x="536.122721" y="102.713421" style="fill-opacity: 0.3"/>
     <use xlink:href="#m5be7e170ba" x="487.177375" y="102.713421" style="fill-opacity: 0.3"/>
     <use xlink:href="#m5be7e170ba" x="498.820194" y="102.713421" style="fill-opacity: 0.3"/>
     <use xlink:href="#m5be7e170ba" x="530.564921" y="102.713421" style="fill-opacity: 0.3"/>
     <use xlink:href="#m5be7e170ba" x="518.419829" y="102.713421" style="fill-opacity: 0.3"/>
     <use xlink:href="#m5be7e170ba" x="525.253708" y="102.713421" style="fill-opacity: 0.3"/>
     <use xlink:href="#m5be7e170ba" x="499.286269" y="102.713421" style="fill-opacity: 0.3"/>
     <use xlink:href="#m5be7e170ba" x="510.176725" y="102.713421" style="fill-opacity: 0.3"/>
     <use xlink:href="#m5be7e170ba" x="530.497775" y="102.713421" style="fill-opacity: 0.3"/>
     <use xlink:href="#m5be7e170ba" x="505.625727" y="102.713421" style="fill-opacity: 0.3"/>
     <use xlink:href="#m5be7e170ba" x="508.537114" y="102.713421" style="fill-opacity: 0.3"/>
     <use xlink:href="#m5be7e170ba" x="488.616881" y="102.713421" style="fill-opacity: 0.3"/>
     <use xlink:href="#m5be7e170ba" x="507.128627" y="102.713421" style="fill-opacity: 0.3"/>
     <use xlink:href="#m5be7e170ba" x="492.163449" y="102.713421" style="fill-opacity: 0.3"/>
     <use xlink:href="#m5be7e170ba" x="534.155091" y="102.713421" style="fill-opacity: 0.3"/>
     <use xlink:href="#m5be7e170ba" x="504.878953" y="102.713421" style="fill-opacity: 0.3"/>
     <use xlink:href="#m5be7e170ba" x="520.430576" y="102.713421" style="fill-opacity: 0.3"/>
     <use xlink:href="#m5be7e170ba" x="499.135849" y="102.713421" style="fill-opacity: 0.3"/>
     <use xlink:href="#m5be7e170ba" x="508.113428" y="102.713421" style="fill-opacity: 0.3"/>
     <use xlink:href="#m5be7e170ba" x="511.435514" y="102.713421" style="fill-opacity: 0.3"/>
     <use xlink:href="#m5be7e170ba" x="514.369028" y="102.713421" style="fill-opacity: 0.3"/>
     <use xlink:href="#m5be7e170ba" x="517.943058" y="102.713421" style="fill-opacity: 0.3"/>
     <use xlink:href="#m5be7e170ba" x="531.244861" y="102.713421" style="fill-opacity: 0.3"/>
     <use xlink:href="#m5be7e170ba" x="523.340336" y="102.713421" style="fill-opacity: 0.3"/>
     <use xlink:href="#m5be7e170ba" x="498.498248" y="102.713421" style="fill-opacity: 0.3"/>
     <use xlink:href="#m5be7e170ba" x="524.633133" y="102.713421" style="fill-opacity: 0.3"/>
     <use xlink:href="#m5be7e170ba" x="519.57908" y="102.713421" style="fill-opacity: 0.3"/>
     <use xlink:href="#m5be7e170ba" x="516.403668" y="102.713421" style="fill-opacity: 0.3"/>
     <use xlink:href="#m5be7e170ba" x="512.768346" y="102.713421" style="fill-opacity: 0.3"/>
     <use xlink:href="#m5be7e170ba" x="535.727488" y="102.713421" style="fill-opacity: 0.3"/>
     <use xlink:href="#m5be7e170ba" x="500.615097" y="102.713421" style="fill-opacity: 0.3"/>
     <use xlink:href="#m5be7e170ba" x="489.346003" y="102.713421" style="fill-opacity: 0.3"/>
     <use xlink:href="#m5be7e170ba" x="486.025078" y="131.103475" style="fill-opacity: 0.3"/>
     <use xlink:href="#m5be7e170ba" x="489.438557" y="131.103475" style="fill-opacity: 0.3"/>
     <use xlink:href="#m5be7e170ba" x="487.312943" y="131.103475" style="fill-opacity: 0.3"/>
     <use xlink:href="#m5be7e170ba" x="487.937591" y="131.103475" style="fill-opacity: 0.3"/>
     <use xlink:href="#m5be7e170ba" x="498.671678" y="171.660695" style="fill-opacity: 0.3"/>
     <use xlink:href="#m5be7e170ba" x="519.012974" y="171.660695" style="fill-opacity: 0.3"/>
     <use xlink:href="#m5be7e170ba" x="510.904638" y="171.660695" style="fill-opacity: 0.3"/>
     <use xlink:href="#m5be7e170ba" x="491.961583" y="171.660695" style="fill-opacity: 0.3"/>
     <use xlink:href="#m5be7e170ba" x="493.634765" y="171.660695" style="fill-opacity: 0.3"/>
     <use xlink:href="#m5be7e170ba" x="510.338587" y="171.660695" style="fill-opacity: 0.3"/>
     <use xlink:href="#m5be7e170ba" x="508.10608" y="171.660695" style="fill-opacity: 0.3"/>
     <use xlink:href="#m5be7e170ba" x="498.800601" y="171.660695" style="fill-opacity: 0.3"/>
     <use xlink:href="#m5be7e170ba" x="489.43105" y="171.660695" style="fill-opacity: 0.3"/>
     <use xlink:href="#m5be7e170ba" x="527.495275" y="171.660695" style="fill-opacity: 0.3"/>
     <use xlink:href="#m5be7e170ba" x="532.194439" y="171.660695" style="fill-opacity: 0.3"/>
     <use xlink:href="#m5be7e170ba" x="494.056326" y="171.660695" style="fill-opacity: 0.3"/>
     <use xlink:href="#m5be7e170ba" x="521.152053" y="171.660695" style="fill-opacity: 0.3"/>
     <use xlink:href="#m5be7e170ba" x="513.472885" y="171.660695" style="fill-opacity: 0.3"/>
     <use xlink:href="#m5be7e170ba" x="536.304987" y="171.660695" style="fill-opacity: 0.3"/>
     <use xlink:href="#m5be7e170ba" x="536.312973" y="171.660695" style="fill-opacity: 0.3"/>
     <use xlink:href="#m5be7e170ba" x="487.537246" y="171.660695" style="fill-opacity: 0.3"/>
     <use xlink:href="#m5be7e170ba" x="519.917271" y="171.660695" style="fill-opacity: 0.3"/>
     <use xlink:href="#m5be7e170ba" x="517.408913" y="171.660695" style="fill-opacity: 0.3"/>
     <use xlink:href="#m5be7e170ba" x="524.252066" y="171.660695" style="fill-opacity: 0.3"/>
     <use xlink:href="#m5be7e170ba" x="536.309787" y="171.660695" style="fill-opacity: 0.3"/>
     <use xlink:href="#m5be7e170ba" x="491.167243" y="171.660695" style="fill-opacity: 0.3"/>
     <use xlink:href="#m5be7e170ba" x="528.582389" y="171.660695" style="fill-opacity: 0.3"/>
    </g>
   </g>
  </g>
 </g>
 <defs>
  <clipPath id="p434d384538">
   <rect x="90" y="43.2" width="558" height="277.2"/>
  </clipPath>
 </defs>
</svg>
