<?xml version="1.0" encoding="utf-8" standalone="no"?>
<!DOCTYPE svg PUBLIC "-//W3C//DTD SVG 1.1//EN"
  "http://www.w3.org/Graphics/SVG/1.1/DTD/svg11.dtd">
<svg xmlns:xlink="http://www.w3.org/1999/xlink" width="720pt" height="360pt" viewBox="0 0 720 360" xmlns="http://www.w3.org/2000/svg" version="1.1">
 <metadata>
  <rdf:RDF xmlns:dc="http://purl.org/dc/elements/1.1/" xmlns:cc="http://creativecommons.org/ns#" xmlns:rdf="http://www.w3.org/1999/02/22-rdf-syntax-ns#">
   <cc:Work>
    <dc:type rdf:resource="http://purl.org/dc/dcmitype/StillImage"/>
    <dc:date>2025-09-09T15:45:19.678276</dc:date>
    <dc:format>image/svg+xml</dc:format>
    <dc:creator>
     <cc:Agent>
      <dc:title>Matplotlib v3.10.3, https://matplotlib.org/</dc:title>
     </cc:Agent>
    </dc:creator>
   </cc:Work>
  </rdf:RDF>
 </metadata>
 <defs>
  <style type="text/css">*{stroke-linejoin: round; stroke-linecap: butt}</style>
 </defs>
 <g id="figure_1">
  <g id="patch_1">
   <path d="M 0 360 
L 720 360 
L 720 0 
L 0 0 
z
" style="fill: #ffffff"/>
  </g>
  <g id="axes_1">
   <g id="patch_2">
    <path d="M 90 320.4 
L 648 320.4 
L 648 43.2 
L 90 43.2 
z
" style="fill: #ffffff"/>
   </g>
   <g id="FillBetweenPolyCollection_1">
    <defs>
     <path id="m6467865667" d="M 145.998795 -45.987191 
L 145.601205 -45.987191 
L 145.538846 -46.137727 
L 145.463718 -46.288263 
L 145.375552 -46.438798 
L 145.274879 -46.589334 
L 145.163191 -46.73987 
L 145.043039 -46.890406 
L 144.918034 -47.040941 
L 144.792732 -47.191477 
L 144.672407 -47.342013 
L 144.562702 -47.492549 
L 144.469206 -47.643084 
L 144.396988 -47.79362 
L 144.350138 -47.944156 
L 144.33139 -48.094691 
L 144.341855 -48.245227 
L 144.380911 -48.395763 
L 144.446265 -48.546299 
L 144.534177 -48.696834 
L 144.639809 -48.84737 
L 144.757666 -48.997906 
L 144.882063 -49.148442 
L 145.007558 -49.298977 
L 145.129319 -49.449513 
L 145.243373 -49.600049 
L 145.346728 -49.750584 
L 145.437362 -49.90112 
L 145.514092 -50.051656 
L 145.57633 -50.202192 
L 145.62376 -50.352727 
L 145.65594 -50.503263 
L 145.671833 -50.653799 
L 145.669298 -50.804334 
L 145.644525 -50.95487 
L 145.591422 -51.105406 
L 145.501007 -51.255942 
L 145.360817 -51.406477 
L 145.154442 -51.557013 
L 144.861271 -51.707549 
L 144.456608 -51.858085 
L 143.912291 -52.00862 
L 143.197982 -52.159156 
L 142.283208 -52.309692 
L 141.140191 -52.460227 
L 139.747363 -52.610763 
L 138.09333 -52.761299 
L 136.18089 -52.911835 
L 134.030575 -53.06237 
L 131.683129 -53.212906 
L 129.200322 -53.363442 
L 126.663636 -53.513978 
L 124.170554 -53.664513 
L 121.828542 -53.815049 
L 119.747109 -53.965585 
L 118.028721 -54.11612 
L 116.759578 -54.266656 
L 116.001367 -54.417192 
L 115.78507 -54.567728 
L 116.107644 -54.718263 
L 116.931997 -54.868799 
L 118.190234 -55.019335 
L 119.789644 -55.169871 
L 121.620558 -55.320406 
L 123.564949 -55.470942 
L 125.504652 -55.621478 
L 127.328244 -55.772013 
L 128.935963 -55.922549 
L 130.242483 -56.073085 
L 131.177787 -56.223621 
L 131.686728 -56.374156 
L 131.728107 -56.524692 
L 131.274073 -56.675228 
L 130.310506 -56.825763 
L 128.838723 -56.976299 
L 126.87839 -57.126835 
L 124.471127 -57.277371 
L 121.683922 -57.427906 
L 118.611279 -57.578442 
L 115.37505 -57.728978 
L 112.121142 -57.879514 
L 109.012758 -58.030049 
L 106.220363 -58.180585 
L 103.909245 -58.331121 
L 102.225964 -58.481656 
L 101.285386 -58.632192 
L 101.16 -58.782728 
L 101.873001 -58.933264 
L 103.396127 -59.083799 
L 105.652579 -59.234335 
L 108.524633 -59.384871 
L 111.864903 -59.535407 
L 115.509794 -59.685942 
L 119.293421 -59.836478 
L 123.060407 -59.987014 
L 126.676225 -60.137549 
L 130.034245 -60.288085 
L 133.059183 -60.438621 
L 135.707134 -60.589157 
L 137.96279 -60.739692 
L 139.834671 -60.890228 
L 151.765329 -60.890228 
L 151.765329 -60.890228 
L 153.63721 -60.739692 
L 155.892866 -60.589157 
L 158.540817 -60.438621 
L 161.565755 -60.288085 
L 164.923775 -60.137549 
L 168.539593 -59.987014 
L 172.306579 -59.836478 
L 176.090206 -59.685942 
L 179.735097 -59.535407 
L 183.075367 -59.384871 
L 185.947421 -59.234335 
L 188.203873 -59.083799 
L 189.726999 -58.933264 
L 190.44 -58.782728 
L 190.314614 -58.632192 
L 189.374036 -58.481656 
L 187.690755 -58.331121 
L 185.379637 -58.180585 
L 182.587242 -58.030049 
L 179.478858 -57.879514 
L 176.22495 -57.728978 
L 172.988721 -57.578442 
L 169.916078 -57.427906 
L 167.128873 -57.277371 
L 164.72161 -57.126835 
L 162.761277 -56.976299 
L 161.289494 -56.825763 
L 160.325927 -56.675228 
L 159.871893 -56.524692 
L 159.913272 -56.374156 
L 160.422213 -56.223621 
L 161.357517 -56.073085 
L 162.664037 -55.922549 
L 164.271756 -55.772013 
L 166.095348 -55.621478 
L 168.035051 -55.470942 
L 169.979442 -55.320406 
L 171.810356 -55.169871 
L 173.409766 -55.019335 
L 174.668003 -54.868799 
L 175.492356 -54.718263 
L 175.81493 -54.567728 
L 175.598633 -54.417192 
L 174.840422 -54.266656 
L 173.571279 -54.11612 
L 171.852891 -53.965585 
L 169.771458 -53.815049 
L 167.429446 -53.664513 
L 164.936364 -53.513978 
L 162.399678 -53.363442 
L 159.916871 -53.212906 
L 157.569425 -53.06237 
L 155.41911 -52.911835 
L 153.50667 -52.761299 
L 151.852637 -52.610763 
L 150.459809 -52.460227 
L 149.316792 -52.309692 
L 148.402018 -52.159156 
L 147.687709 -52.00862 
L 147.143392 -51.858085 
L 146.738729 -51.707549 
L 146.445558 -51.557013 
L 146.239183 -51.406477 
L 146.098993 -51.255942 
L 146.008578 -51.105406 
L 145.955475 -50.95487 
L 145.930702 -50.804334 
L 145.928167 -50.653799 
L 145.94406 -50.503263 
L 145.97624 -50.352727 
L 146.02367 -50.202192 
L 146.085908 -50.051656 
L 146.162638 -49.90112 
L 146.253272 -49.750584 
L 146.356627 -49.600049 
L 146.470681 -49.449513 
L 146.592442 -49.298977 
L 146.717937 -49.148442 
L 146.842334 -48.997906 
L 146.960191 -48.84737 
L 147.065823 -48.696834 
L 147.153735 -48.546299 
L 147.219089 -48.395763 
L 147.258145 -48.245227 
L 147.26861 -48.094691 
L 147.249862 -47.944156 
L 147.203012 -47.79362 
L 147.130794 -47.643084 
L 147.037298 -47.492549 
L 146.927593 -47.342013 
L 146.807268 -47.191477 
L 146.681966 -47.040941 
L 146.556961 -46.890406 
L 146.436809 -46.73987 
L 146.325121 -46.589334 
L 146.224448 -46.438798 
L 146.136282 -46.288263 
L 146.061154 -46.137727 
L 145.998795 -45.987191 
z
" style="stroke: #3d3d3d; stroke-width: 1.25"/>
    </defs>
    <g clip-path="url(#p8938872ac9)">
     <use xlink:href="#m6467865667" x="0" y="360" style="fill: #3274a1; stroke: #3d3d3d; stroke-width: 1.25"/>
    </g>
   </g>
   <g id="FillBetweenPolyCollection_2">
    <defs>
     <path id="m3d12b8dacc" d="M 257.87599 -45.933472 
L 256.92401 -45.933472 
L 256.777583 -46.085093 
L 256.601671 -46.236714 
L 256.395615 -46.388335 
L 256.160532 -46.539956 
L 255.899667 -46.691577 
L 255.618617 -46.843198 
L 255.325354 -46.994818 
L 255.030003 -47.146439 
L 254.744363 -47.29806 
L 254.481183 -47.449681 
L 254.253251 -47.601302 
L 254.072374 -47.752923 
L 253.948371 -47.904544 
L 253.888191 -48.056165 
L 253.895268 -48.207786 
L 253.969195 -48.359407 
L 254.105765 -48.511028 
L 254.297364 -48.662649 
L 254.533675 -48.81427 
L 254.802594 -48.965891 
L 255.091246 -49.117512 
L 255.386989 -49.269133 
L 255.67828 -49.420754 
L 255.95534 -49.572375 
L 256.21056 -49.723996 
L 256.438633 -49.875617 
L 256.636437 -50.027238 
L 256.802702 -50.178859 
L 256.937529 -50.33048 
L 257.041801 -50.482101 
L 257.116542 -50.633722 
L 257.16227 -50.785343 
L 257.178362 -50.936964 
L 257.162467 -51.088585 
L 257.109983 -51.240206 
L 257.013629 -51.391827 
L 256.86317 -51.543448 
L 256.645337 -51.695069 
L 256.34404 -51.846689 
L 255.940943 -51.99831 
L 255.416465 -52.149931 
L 254.751266 -52.301552 
L 253.928188 -52.453173 
L 252.934562 -52.604794 
L 251.764708 -52.756415 
L 250.422354 -52.908036 
L 248.92265 -53.059657 
L 247.293399 -53.211278 
L 245.575174 -53.362899 
L 243.820078 -53.51452 
L 242.089031 -53.666141 
L 240.447705 -53.817762 
L 238.961423 -53.969383 
L 237.689528 -54.121004 
L 236.679895 -54.272625 
L 235.964259 -54.424246 
L 235.555007 -54.575867 
L 235.443867 -54.727488 
L 235.60268 -54.879109 
L 235.986116 -55.03073 
L 236.53592 -55.182351 
L 237.186027 -55.333972 
L 237.86779 -55.485593 
L 238.514585 -55.637214 
L 239.065236 -55.788835 
L 239.465956 -55.940456 
L 239.670864 -56.092077 
L 239.641415 -56.243698 
L 239.345337 -56.395319 
L 238.755803 -56.54694 
L 237.85146 -56.698561 
L 236.617795 -56.850181 
L 235.049934 -57.001802 
L 233.156617 -57.153423 
L 230.964701 -57.305044 
L 228.523239 -57.456665 
L 225.906113 -57.608286 
L 223.212233 -57.759907 
L 220.562633 -57.911528 
L 218.094229 -58.063149 
L 215.950583 -58.21477 
L 214.270514 -58.366391 
L 213.175869 -58.518012 
L 212.76 -58.669633 
L 213.078456 -58.821254 
L 214.143187 -58.972875 
L 215.921044 -59.124496 
L 218.336768 -59.276117 
L 221.280053 -59.427738 
L 224.615713 -59.579359 
L 228.195604 -59.73098 
L 231.870848 -59.882601 
L 235.502944 -60.034222 
L 238.97268 -60.185843 
L 242.18613 -60.337464 
L 245.07751 -60.489085 
L 247.609086 -60.640706 
L 249.768631 -60.792327 
L 251.565183 -60.943948 
L 263.234817 -60.943948 
L 263.234817 -60.943948 
L 265.031369 -60.792327 
L 267.190914 -60.640706 
L 269.72249 -60.489085 
L 272.61387 -60.337464 
L 275.82732 -60.185843 
L 279.297056 -60.034222 
L 282.929152 -59.882601 
L 286.604396 -59.73098 
L 290.184287 -59.579359 
L 293.519947 -59.427738 
L 296.463232 -59.276117 
L 298.878956 -59.124496 
L 300.656813 -58.972875 
L 301.721544 -58.821254 
L 302.04 -58.669633 
L 301.624131 -58.518012 
L 300.529486 -58.366391 
L 298.849417 -58.21477 
L 296.705771 -58.063149 
L 294.237367 -57.911528 
L 291.587767 -57.759907 
L 288.893887 -57.608286 
L 286.276761 -57.456665 
L 283.835299 -57.305044 
L 281.643383 -57.153423 
L 279.750066 -57.001802 
L 278.182205 -56.850181 
L 276.94854 -56.698561 
L 276.044197 -56.54694 
L 275.454663 -56.395319 
L 275.158585 -56.243698 
L 275.129136 -56.092077 
L 275.334044 -55.940456 
L 275.734764 -55.788835 
L 276.285415 -55.637214 
L 276.93221 -55.485593 
L 277.613973 -55.333972 
L 278.26408 -55.182351 
L 278.813884 -55.03073 
L 279.19732 -54.879109 
L 279.356133 -54.727488 
L 279.244993 -54.575867 
L 278.835741 -54.424246 
L 278.120105 -54.272625 
L 277.110472 -54.121004 
L 275.838577 -53.969383 
L 274.352295 -53.817762 
L 272.710969 -53.666141 
L 270.979922 -53.51452 
L 269.224826 -53.362899 
L 267.506601 -53.211278 
L 265.87735 -53.059657 
L 264.377646 -52.908036 
L 263.035292 -52.756415 
L 261.865438 -52.604794 
L 260.871812 -52.453173 
L 260.048734 -52.301552 
L 259.383535 -52.149931 
L 258.859057 -51.99831 
L 258.45596 -51.846689 
L 258.154663 -51.695069 
L 257.93683 -51.543448 
L 257.786371 -51.391827 
L 257.690017 -51.240206 
L 257.637533 -51.088585 
L 257.621638 -50.936964 
L 257.63773 -50.785343 
L 257.683458 -50.633722 
L 257.758199 -50.482101 
L 257.862471 -50.33048 
L 257.997298 -50.178859 
L 258.163563 -50.027238 
L 258.361367 -49.875617 
L 258.58944 -49.723996 
L 258.84466 -49.572375 
L 259.12172 -49.420754 
L 259.413011 -49.269133 
L 259.708754 -49.117512 
L 259.997406 -48.965891 
L 260.266325 -48.81427 
L 260.502636 -48.662649 
L 260.694235 -48.511028 
L 260.830805 -48.359407 
L 260.904732 -48.207786 
L 260.911809 -48.056165 
L 260.851629 -47.904544 
L 260.727626 -47.752923 
L 260.546749 -47.601302 
L 260.318817 -47.449681 
L 260.055637 -47.29806 
L 259.769997 -47.146439 
L 259.474646 -46.994818 
L 259.181383 -46.843198 
L 258.900333 -46.691577 
L 258.639468 -46.539956 
L 258.404385 -46.388335 
L 258.198329 -46.236714 
L 258.022417 -46.085093 
L 257.87599 -45.933472 
z
" style="stroke: #3d3d3d; stroke-width: 1.25"/>
    </defs>
    <g clip-path="url(#p8938872ac9)">
     <use xlink:href="#m3d12b8dacc" x="0" y="360" style="fill: #e1812c; stroke: #3d3d3d; stroke-width: 1.25"/>
    </g>
   </g>
   <g id="FillBetweenPolyCollection_3">
    <defs>
     <path id="mba2b6958ae" d="M 370.071179 -44.798824 
L 367.928821 -44.798824 
L 367.685197 -44.973368 
L 367.403937 -45.147911 
L 367.083846 -45.322454 
L 366.724895 -45.496997 
L 366.32845 -45.67154 
L 365.897468 -45.846083 
L 365.436637 -46.020626 
L 364.952424 -46.195169 
L 364.453038 -46.369713 
L 363.948281 -46.544256 
L 363.449281 -46.718799 
L 362.968129 -46.893342 
L 362.517409 -47.067885 
L 362.109662 -47.242428 
L 361.756807 -47.416971 
L 361.469554 -47.591515 
L 361.256852 -47.766058 
L 361.125402 -47.940601 
L 361.079275 -48.115144 
L 361.119667 -48.289687 
L 361.244792 -48.46423 
L 361.449932 -48.638773 
L 361.727638 -48.813317 
L 362.068053 -48.98786 
L 362.459347 -49.162403 
L 362.88821 -49.336946 
L 363.340393 -49.511489 
L 363.801233 -49.686032 
L 364.256153 -49.860575 
L 364.691092 -50.035119 
L 365.09287 -50.209662 
L 365.449458 -50.384205 
L 365.750164 -50.558748 
L 365.985748 -50.733291 
L 366.148478 -50.907834 
L 366.232137 -51.082377 
L 366.232017 -51.25692 
L 366.14489 -51.431464 
L 365.968999 -51.606007 
L 365.704043 -51.78055 
L 365.351177 -51.955093 
L 364.913001 -52.129636 
L 364.393536 -52.304179 
L 363.798165 -52.478722 
L 363.133515 -52.653266 
L 362.40728 -52.827809 
L 361.627948 -53.002352 
L 360.804463 -53.176895 
L 359.945791 -53.351438 
L 359.060439 -53.525981 
L 358.155925 -53.700524 
L 357.238251 -53.875068 
L 356.31141 -54.049611 
L 355.376975 -54.224154 
L 354.433802 -54.398697 
L 353.477904 -54.57324 
L 352.502514 -54.747783 
L 351.498356 -54.922326 
L 350.454157 -55.096869 
L 349.357367 -55.271413 
L 348.195087 -55.445956 
L 346.955168 -55.620499 
L 345.627426 -55.795042 
L 344.204906 -55.969585 
L 342.685135 -56.144128 
L 341.071256 -56.318671 
L 339.372977 -56.493215 
L 337.607227 -56.667758 
L 335.798445 -56.842301 
L 333.978445 -57.016844 
L 332.185799 -57.191387 
L 330.464727 -57.36593 
L 328.863529 -57.540473 
L 327.432598 -57.715017 
L 326.222118 -57.88956 
L 325.279589 -58.064103 
L 324.647308 -58.238646 
L 324.36 -58.413189 
L 324.442749 -58.587732 
L 324.909396 -58.762275 
L 325.761526 -58.936819 
L 326.988114 -59.111362 
L 328.565887 -59.285905 
L 330.460358 -59.460448 
L 332.627476 -59.634991 
L 335.015756 -59.809534 
L 337.568755 -59.984077 
L 340.227703 -60.15862 
L 342.934119 -60.333164 
L 345.632245 -60.507707 
L 348.271156 -60.68225 
L 350.80643 -60.856793 
L 353.201332 -61.031336 
L 355.427466 -61.205879 
L 357.464923 -61.380422 
L 359.301991 -61.554966 
L 360.934468 -61.729509 
L 362.364721 -61.904052 
L 363.60054 -62.078595 
L 374.39946 -62.078595 
L 374.39946 -62.078595 
L 375.635279 -61.904052 
L 377.065532 -61.729509 
L 378.698009 -61.554966 
L 380.535077 -61.380422 
L 382.572534 -61.205879 
L 384.798668 -61.031336 
L 387.19357 -60.856793 
L 389.728844 -60.68225 
L 392.367755 -60.507707 
L 395.065881 -60.333164 
L 397.772297 -60.15862 
L 400.431245 -59.984077 
L 402.984244 -59.809534 
L 405.372524 -59.634991 
L 407.539642 -59.460448 
L 409.434113 -59.285905 
L 411.011886 -59.111362 
L 412.238474 -58.936819 
L 413.090604 -58.762275 
L 413.557251 -58.587732 
L 413.64 -58.413189 
L 413.352692 -58.238646 
L 412.720411 -58.064103 
L 411.777882 -57.88956 
L 410.567402 -57.715017 
L 409.136471 -57.540473 
L 407.535273 -57.36593 
L 405.814201 -57.191387 
L 404.021555 -57.016844 
L 402.201555 -56.842301 
L 400.392773 -56.667758 
L 398.627023 -56.493215 
L 396.928744 -56.318671 
L 395.314865 -56.144128 
L 393.795094 -55.969585 
L 392.372574 -55.795042 
L 391.044832 -55.620499 
L 389.804913 -55.445956 
L 388.642633 -55.271413 
L 387.545843 -55.096869 
L 386.501644 -54.922326 
L 385.497486 -54.747783 
L 384.522096 -54.57324 
L 383.566198 -54.398697 
L 382.623025 -54.224154 
L 381.68859 -54.049611 
L 380.761749 -53.875068 
L 379.844075 -53.700524 
L 378.939561 -53.525981 
L 378.054209 -53.351438 
L 377.195537 -53.176895 
L 376.372052 -53.002352 
L 375.59272 -52.827809 
L 374.866485 -52.653266 
L 374.201835 -52.478722 
L 373.606464 -52.304179 
L 373.086999 -52.129636 
L 372.648823 -51.955093 
L 372.295957 -51.78055 
L 372.031001 -51.606007 
L 371.85511 -51.431464 
L 371.767983 -51.25692 
L 371.767863 -51.082377 
L 371.851522 -50.907834 
L 372.014252 -50.733291 
L 372.249836 -50.558748 
L 372.550542 -50.384205 
L 372.90713 -50.209662 
L 373.308908 -50.035119 
L 373.743847 -49.860575 
L 374.198767 -49.686032 
L 374.659607 -49.511489 
L 375.11179 -49.336946 
L 375.540653 -49.162403 
L 375.931947 -48.98786 
L 376.272362 -48.813317 
L 376.550068 -48.638773 
L 376.755208 -48.46423 
L 376.880333 -48.289687 
L 376.920725 -48.115144 
L 376.874598 -47.940601 
L 376.743148 -47.766058 
L 376.530446 -47.591515 
L 376.243193 -47.416971 
L 375.890338 -47.242428 
L 375.482591 -47.067885 
L 375.031871 -46.893342 
L 374.550719 -46.718799 
L 374.051719 -46.544256 
L 373.546962 -46.369713 
L 373.047576 -46.195169 
L 372.563363 -46.020626 
L 372.102532 -45.846083 
L 371.67155 -45.67154 
L 371.275105 -45.496997 
L 370.916154 -45.322454 
L 370.596063 -45.147911 
L 370.314803 -44.973368 
L 370.071179 -44.798824 
z
" style="stroke: #3d3d3d; stroke-width: 1.25"/>
    </defs>
    <g clip-path="url(#p8938872ac9)">
     <use xlink:href="#mba2b6958ae" x="0" y="360" style="fill: #3a923a; stroke: #3d3d3d; stroke-width: 1.25"/>
    </g>
   </g>
   <g id="FillBetweenPolyCollection_4">
    <defs>
     <path id="m59789b2a70" d="M 481.019316 -45.351426 
L 480.180684 -45.351426 
L 480.072568 -45.514805 
L 479.945779 -45.678185 
L 479.799767 -45.841564 
L 479.634746 -46.004944 
L 479.451846 -46.168323 
L 479.253233 -46.331703 
L 479.042177 -46.495082 
L 478.823041 -46.658462 
L 478.601195 -46.821841 
L 478.382839 -46.985221 
L 478.17474 -47.1486 
L 477.983901 -47.31198 
L 477.817175 -47.475359 
L 477.680861 -47.638739 
L 477.580297 -47.802118 
L 477.519517 -47.965497 
L 477.50096 -48.128877 
L 477.525289 -48.292256 
L 477.591322 -48.455636 
L 477.696075 -48.619015 
L 477.834909 -48.782395 
L 478.001764 -48.945774 
L 478.189444 -49.109154 
L 478.389914 -49.272533 
L 478.59458 -49.435913 
L 478.794502 -49.599292 
L 478.980523 -49.762672 
L 479.143285 -49.926051 
L 479.27314 -50.089431 
L 479.35995 -50.25281 
L 479.392813 -50.41619 
L 479.35976 -50.579569 
L 479.247459 -50.742948 
L 479.041014 -50.906328 
L 478.723915 -51.069707 
L 478.278205 -51.233087 
L 477.684942 -51.396466 
L 476.924973 -51.559846 
L 475.980064 -51.723225 
L 474.834339 -51.886605 
L 473.475999 -52.049984 
L 471.899182 -52.213364 
L 470.105853 -52.376743 
L 468.107502 -52.540123 
L 465.926484 -52.703502 
L 463.59676 -52.866882 
L 461.163887 -53.030261 
L 458.684088 -53.19364 
L 456.22237 -53.35702 
L 453.849687 -53.520399 
L 451.639294 -53.683779 
L 449.662495 -53.847158 
L 447.984101 -54.010538 
L 446.657935 -54.173917 
L 445.722788 -54.337297 
L 445.199152 -54.500676 
L 445.087055 -54.664056 
L 445.365182 -54.827435 
L 445.991399 -54.990815 
L 446.904653 -55.154194 
L 448.028103 -55.317574 
L 449.27328 -55.480953 
L 450.54497 -55.644333 
L 451.746509 -55.807712 
L 452.785158 -55.971091 
L 453.577262 -56.134471 
L 454.052933 -56.29785 
L 454.160015 -56.46123 
L 453.867183 -56.624609 
L 453.166009 -56.787989 
L 452.071915 -56.951368 
L 450.623923 -57.114748 
L 448.883171 -57.278127 
L 446.930215 -57.441507 
L 444.861167 -57.604886 
L 442.782821 -57.768266 
L 440.806987 -57.931645 
L 439.044333 -58.095025 
L 437.598119 -58.258404 
L 436.558231 -58.421783 
L 435.995974 -58.585163 
L 435.96 -58.748542 
L 436.473717 -58.911922 
L 437.534379 -59.075301 
L 439.113931 -59.238681 
L 441.161503 -59.40206 
L 443.607335 -59.56544 
L 446.367754 -59.728819 
L 449.350765 -59.892199 
L 452.461784 -60.055578 
L 455.609047 -60.218958 
L 458.708308 -60.382337 
L 461.686527 -60.545717 
L 464.484383 -60.709096 
L 467.057559 -60.872476 
L 469.376874 -61.035855 
L 471.427419 -61.199234 
L 473.206924 -61.362614 
L 474.723608 -61.525993 
L 486.476392 -61.525993 
L 486.476392 -61.525993 
L 487.993076 -61.362614 
L 489.772581 -61.199234 
L 491.823126 -61.035855 
L 494.142441 -60.872476 
L 496.715617 -60.709096 
L 499.513473 -60.545717 
L 502.491692 -60.382337 
L 505.590953 -60.218958 
L 508.738216 -60.055578 
L 511.849235 -59.892199 
L 514.832246 -59.728819 
L 517.592665 -59.56544 
L 520.038497 -59.40206 
L 522.086069 -59.238681 
L 523.665621 -59.075301 
L 524.726283 -58.911922 
L 525.24 -58.748542 
L 525.204026 -58.585163 
L 524.641769 -58.421783 
L 523.601881 -58.258404 
L 522.155667 -58.095025 
L 520.393013 -57.931645 
L 518.417179 -57.768266 
L 516.338833 -57.604886 
L 514.269785 -57.441507 
L 512.316829 -57.278127 
L 510.576077 -57.114748 
L 509.128085 -56.951368 
L 508.033991 -56.787989 
L 507.332817 -56.624609 
L 507.039985 -56.46123 
L 507.147067 -56.29785 
L 507.622738 -56.134471 
L 508.414842 -55.971091 
L 509.453491 -55.807712 
L 510.65503 -55.644333 
L 511.92672 -55.480953 
L 513.171897 -55.317574 
L 514.295347 -55.154194 
L 515.208601 -54.990815 
L 515.834818 -54.827435 
L 516.112945 -54.664056 
L 516.000848 -54.500676 
L 515.477212 -54.337297 
L 514.542065 -54.173917 
L 513.215899 -54.010538 
L 511.537505 -53.847158 
L 509.560706 -53.683779 
L 507.350313 -53.520399 
L 504.97763 -53.35702 
L 502.515912 -53.19364 
L 500.036113 -53.030261 
L 497.60324 -52.866882 
L 495.273516 -52.703502 
L 493.092498 -52.540123 
L 491.094147 -52.376743 
L 489.300818 -52.213364 
L 487.724001 -52.049984 
L 486.365661 -51.886605 
L 485.219936 -51.723225 
L 484.275027 -51.559846 
L 483.515058 -51.396466 
L 482.921795 -51.233087 
L 482.476085 -51.069707 
L 482.158986 -50.906328 
L 481.952541 -50.742948 
L 481.84024 -50.579569 
L 481.807187 -50.41619 
L 481.84005 -50.25281 
L 481.92686 -50.089431 
L 482.056715 -49.926051 
L 482.219477 -49.762672 
L 482.405498 -49.599292 
L 482.60542 -49.435913 
L 482.810086 -49.272533 
L 483.010556 -49.109154 
L 483.198236 -48.945774 
L 483.365091 -48.782395 
L 483.503925 -48.619015 
L 483.608678 -48.455636 
L 483.674711 -48.292256 
L 483.69904 -48.128877 
L 483.680483 -47.965497 
L 483.619703 -47.802118 
L 483.519139 -47.638739 
L 483.382825 -47.475359 
L 483.216099 -47.31198 
L 483.02526 -47.1486 
L 482.817161 -46.985221 
L 482.598805 -46.821841 
L 482.376959 -46.658462 
L 482.157823 -46.495082 
L 481.946767 -46.331703 
L 481.748154 -46.168323 
L 481.565254 -46.004944 
L 481.400233 -45.841564 
L 481.254221 -45.678185 
L 481.127432 -45.514805 
L 481.019316 -45.351426 
z
" style="stroke: #3d3d3d; stroke-width: 1.25"/>
    </defs>
    <g clip-path="url(#p8938872ac9)">
     <use xlink:href="#m59789b2a70" x="0" y="360" style="fill: #c03d3e; stroke: #3d3d3d; stroke-width: 1.25"/>
    </g>
   </g>
   <g id="patch_3">
    <path d="M 212.76 320.4 
L 257.4 320.4 
L 257.4 199.045161 
L 212.76 199.045161 
z
" clip-path="url(#p8938872ac9)" style="fill: #3274a1"/>
   </g>
   <g id="patch_4">
    <path d="M 547.56 320.4 
L 592.2 320.4 
L 592.2 188.4 
L 547.56 188.4 
z
" clip-path="url(#p8938872ac9)" style="fill: #3274a1"/>
   </g>
   <g id="patch_5">
    <path d="M 257.4 320.4 
L 302.04 320.4 
L 302.04 256.529032 
L 257.4 256.529032 
z
" clip-path="url(#p8938872ac9)" style="fill: #e1812c"/>
   </g>
   <g id="patch_6">
    <path d="M 592.2 320.4 
L 636.84 320.4 
L 636.84 188.4 
L 592.2 188.4 
z
" clip-path="url(#p8938872ac9)" style="fill: #e1812c"/>
   </g>
   <g id="patch_7">
    <path d="M 145.8 320.4 
L 145.8 320.4 
L 145.8 320.4 
L 145.8 320.4 
z
" clip-path="url(#p8938872ac9)" style="fill: #3274a1"/>
   </g>
   <g id="patch_8">
    <path d="M 145.8 320.4 
L 145.8 320.4 
L 145.8 320.4 
L 145.8 320.4 
z
" clip-path="url(#p8938872ac9)" style="fill: #e1812c"/>
   </g>
   <g id="patch_9">
    <path d="M 212.76 320.4 
L 257.4 320.4 
L 257.4 303.367742 
L 212.76 303.367742 
z
" clip-path="url(#p8938872ac9)" style="fill: #3274a1"/>
   </g>
   <g id="patch_10">
    <path d="M 547.56 320.4 
L 592.2 320.4 
L 592.2 294.851613 
L 547.56 294.851613 
z
" clip-path="url(#p8938872ac9)" style="fill: #3274a1"/>
   </g>
   <g id="patch_11">
    <path d="M 257.4 320.4 
L 302.04 320.4 
L 302.04 152.206452 
L 257.4 152.206452 
z
" clip-path="url(#p8938872ac9)" style="fill: #e1812c"/>
   </g>
   <g id="patch_12">
    <path d="M 592.2 320.4 
L 636.84 320.4 
L 636.84 81.948387 
L 592.2 81.948387 
z
" clip-path="url(#p8938872ac9)" style="fill: #e1812c"/>
   </g>
   <g id="patch_13">
    <path d="M 145.8 320.4 
L 145.8 320.4 
L 145.8 320.4 
L 145.8 320.4 
z
" clip-path="url(#p8938872ac9)" style="fill: #3274a1"/>
   </g>
   <g id="patch_14">
    <path d="M 145.8 320.4 
L 145.8 320.4 
L 145.8 320.4 
L 145.8 320.4 
z
" clip-path="url(#p8938872ac9)" style="fill: #e1812c"/>
   </g>
   <g id="patch_15">
    <path d="M 212.76 320.4 
L 257.4 320.4 
L 257.4 239.496774 
L 212.76 239.496774 
z
" clip-path="url(#p8938872ac9)" style="fill: #3274a1"/>
   </g>
   <g id="patch_16">
    <path d="M 547.56 320.4 
L 592.2 320.4 
L 592.2 199.045161 
L 547.56 199.045161 
z
" clip-path="url(#p8938872ac9)" style="fill: #3274a1"/>
   </g>
   <g id="patch_17">
    <path d="M 257.4 320.4 
L 302.04 320.4 
L 302.04 216.077419 
L 257.4 216.077419 
z
" clip-path="url(#p8938872ac9)" style="fill: #e1812c"/>
   </g>
   <g id="patch_18">
    <path d="M 592.2 320.4 
L 636.84 320.4 
L 636.84 177.754839 
L 592.2 177.754839 
z
" clip-path="url(#p8938872ac9)" style="fill: #e1812c"/>
   </g>
   <g id="patch_19">
    <path d="M 145.8 320.4 
L 145.8 320.4 
L 145.8 320.4 
L 145.8 320.4 
z
" clip-path="url(#p8938872ac9)" style="fill: #3274a1"/>
   </g>
   <g id="patch_20">
    <path d="M 145.8 320.4 
L 145.8 320.4 
L 145.8 320.4 
L 145.8 320.4 
z
" clip-path="url(#p8938872ac9)" style="fill: #e1812c"/>
   </g>
   <g id="patch_21">
    <path d="M 212.76 320.4 
L 302.04 320.4 
L 302.04 135.174194 
L 212.76 135.174194 
z
" clip-path="url(#p8938872ac9)" style="fill: #3274a1"/>
   </g>
   <g id="patch_22">
    <path d="M 547.56 320.4 
L 636.84 320.4 
L 636.84 56.4 
L 547.56 56.4 
z
" clip-path="url(#p8938872ac9)" style="fill: #3274a1"/>
   </g>
   <g id="patch_23">
    <path d="M 145.8 320.4 
L 145.8 320.4 
L 145.8 320.4 
L 145.8 320.4 
z
" clip-path="url(#p8938872ac9)" style="fill: #3274a1"/>
   </g>
   <g id="patch_24">
    <path d="M 212.76 320.4 
L 302.04 320.4 
L 302.04 135.174194 
L 212.76 135.174194 
z
" clip-path="url(#p8938872ac9)" style="fill: #3274a1"/>
   </g>
   <g id="patch_25">
    <path d="M 547.56 320.4 
L 636.84 320.4 
L 636.84 56.4 
L 547.56 56.4 
z
" clip-path="url(#p8938872ac9)" style="fill: #3274a1"/>
   </g>
   <g id="patch_26">
    <path d="M 145.8 320.4 
L 145.8 320.4 
L 145.8 320.4 
L 145.8 320.4 
z
" clip-path="url(#p8938872ac9)" style="fill: #3274a1"/>
   </g>
   <g id="patch_27">
    <path d="M 212.76 320.4 
L 257.4 320.4 
L 257.4 311.883871 
L 212.76 311.883871 
z
" clip-path="url(#p8938872ac9)" style="fill: #3274a1"/>
   </g>
   <g id="patch_28">
    <path d="M 547.56 320.4 
L 592.2 320.4 
L 592.2 288.464516 
L 547.56 288.464516 
z
" clip-path="url(#p8938872ac9)" style="fill: #3274a1"/>
   </g>
   <g id="patch_29">
    <path d="M 257.4 320.4 
L 302.04 320.4 
L 302.04 143.690323 
L 257.4 143.690323 
z
" clip-path="url(#p8938872ac9)" style="fill: #e1812c"/>
   </g>
   <g id="patch_30">
    <path d="M 592.2 320.4 
L 636.84 320.4 
L 636.84 88.335484 
L 592.2 88.335484 
z
" clip-path="url(#p8938872ac9)" style="fill: #e1812c"/>
   </g>
   <g id="patch_31">
    <path d="M 145.8 320.4 
L 145.8 320.4 
L 145.8 320.4 
L 145.8 320.4 
z
" clip-path="url(#p8938872ac9)" style="fill: #3274a1"/>
   </g>
   <g id="patch_32">
    <path d="M 145.8 320.4 
L 145.8 320.4 
L 145.8 320.4 
L 145.8 320.4 
z
" clip-path="url(#p8938872ac9)" style="fill: #e1812c"/>
   </g>
   <g id="patch_33">
    <path d="M 212.76 320.4 
L 302.04 320.4 
L 302.04 143.690323 
L 212.76 143.690323 
z
" clip-path="url(#p8938872ac9)" style="fill: #e9d4d0"/>
   </g>
   <g id="patch_34">
    <path d="M 547.56 320.4 
L 636.84 320.4 
L 636.84 88.335484 
L 547.56 88.335484 
z
" clip-path="url(#p8938872ac9)" style="fill: #e9d4d0"/>
   </g>
   <g id="patch_35">
    <path d="M 145.8 320.4 
L 145.8 320.4 
L 145.8 320.4 
L 145.8 320.4 
z
" clip-path="url(#p8938872ac9)" style="fill: #e9d4d0"/>
   </g>
   <g id="matplotlib.axis_1">
    <g id="xtick_1">
     <g id="line2d_1">
      <defs>
       <path id="m8bf6c64db7" d="M 0 0 
L 0 3.5 
" style="stroke: #000000; stroke-width: 0.8"/>
      </defs>
      <g>
       <use xlink:href="#m8bf6c64db7" x="145.8" y="320.4" style="stroke: #000000; stroke-width: 0.8"/>
      </g>
     </g>
     <g id="text_1">
      <!-- Spurious -->
      <g transform="translate(124.005469 334.998438) scale(0.1 -0.1)">
       <defs>
        <path id="DejaVuSans-53" d="M 3425 4513 
L 3425 3897 
Q 3066 4069 2747 4153 
Q 2428 4238 2131 4238 
Q 1616 4238 1336 4038 
Q 1056 3838 1056 3469 
Q 1056 3159 1242 3001 
Q 1428 2844 1947 2747 
L 2328 2669 
Q 3034 2534 3370 2195 
Q 3706 1856 3706 1288 
Q 3706 609 3251 259 
Q 2797 -91 1919 -91 
Q 1588 -91 1214 -16 
Q 841 59 441 206 
L 441 856 
Q 825 641 1194 531 
Q 1563 422 1919 422 
Q 2459 422 2753 634 
Q 3047 847 3047 1241 
Q 3047 1584 2836 1778 
Q 2625 1972 2144 2069 
L 1759 2144 
Q 1053 2284 737 2584 
Q 422 2884 422 3419 
Q 422 4038 858 4394 
Q 1294 4750 2059 4750 
Q 2388 4750 2728 4690 
Q 3069 4631 3425 4513 
z
" transform="scale(0.015625)"/>
        <path id="DejaVuSans-70" d="M 1159 525 
L 1159 -1331 
L 581 -1331 
L 581 3500 
L 1159 3500 
L 1159 2969 
Q 1341 3281 1617 3432 
Q 1894 3584 2278 3584 
Q 2916 3584 3314 3078 
Q 3713 2572 3713 1747 
Q 3713 922 3314 415 
Q 2916 -91 2278 -91 
Q 1894 -91 1617 61 
Q 1341 213 1159 525 
z
M 3116 1747 
Q 3116 2381 2855 2742 
Q 2594 3103 2138 3103 
Q 1681 3103 1420 2742 
Q 1159 2381 1159 1747 
Q 1159 1113 1420 752 
Q 1681 391 2138 391 
Q 2594 391 2855 752 
Q 3116 1113 3116 1747 
z
" transform="scale(0.015625)"/>
        <path id="DejaVuSans-75" d="M 544 1381 
L 544 3500 
L 1119 3500 
L 1119 1403 
Q 1119 906 1312 657 
Q 1506 409 1894 409 
Q 2359 409 2629 706 
Q 2900 1003 2900 1516 
L 2900 3500 
L 3475 3500 
L 3475 0 
L 2900 0 
L 2900 538 
Q 2691 219 2414 64 
Q 2138 -91 1772 -91 
Q 1169 -91 856 284 
Q 544 659 544 1381 
z
M 1991 3584 
L 1991 3584 
z
" transform="scale(0.015625)"/>
        <path id="DejaVuSans-72" d="M 2631 2963 
Q 2534 3019 2420 3045 
Q 2306 3072 2169 3072 
Q 1681 3072 1420 2755 
Q 1159 2438 1159 1844 
L 1159 0 
L 581 0 
L 581 3500 
L 1159 3500 
L 1159 2956 
Q 1341 3275 1631 3429 
Q 1922 3584 2338 3584 
Q 2397 3584 2469 3576 
Q 2541 3569 2628 3553 
L 2631 2963 
z
" transform="scale(0.015625)"/>
        <path id="DejaVuSans-69" d="M 603 3500 
L 1178 3500 
L 1178 0 
L 603 0 
L 603 3500 
z
M 603 4863 
L 1178 4863 
L 1178 4134 
L 603 4134 
L 603 4863 
z
" transform="scale(0.015625)"/>
        <path id="DejaVuSans-6f" d="M 1959 3097 
Q 1497 3097 1228 2736 
Q 959 2375 959 1747 
Q 959 1119 1226 758 
Q 1494 397 1959 397 
Q 2419 397 2687 759 
Q 2956 1122 2956 1747 
Q 2956 2369 2687 2733 
Q 2419 3097 1959 3097 
z
M 1959 3584 
Q 2709 3584 3137 3096 
Q 3566 2609 3566 1747 
Q 3566 888 3137 398 
Q 2709 -91 1959 -91 
Q 1206 -91 779 398 
Q 353 888 353 1747 
Q 353 2609 779 3096 
Q 1206 3584 1959 3584 
z
" transform="scale(0.015625)"/>
        <path id="DejaVuSans-73" d="M 2834 3397 
L 2834 2853 
Q 2591 2978 2328 3040 
Q 2066 3103 1784 3103 
Q 1356 3103 1142 2972 
Q 928 2841 928 2578 
Q 928 2378 1081 2264 
Q 1234 2150 1697 2047 
L 1894 2003 
Q 2506 1872 2764 1633 
Q 3022 1394 3022 966 
Q 3022 478 2636 193 
Q 2250 -91 1575 -91 
Q 1294 -91 989 -36 
Q 684 19 347 128 
L 347 722 
Q 666 556 975 473 
Q 1284 391 1588 391 
Q 1994 391 2212 530 
Q 2431 669 2431 922 
Q 2431 1156 2273 1281 
Q 2116 1406 1581 1522 
L 1381 1569 
Q 847 1681 609 1914 
Q 372 2147 372 2553 
Q 372 3047 722 3315 
Q 1072 3584 1716 3584 
Q 2034 3584 2315 3537 
Q 2597 3491 2834 3397 
z
" transform="scale(0.015625)"/>
       </defs>
       <use xlink:href="#DejaVuSans-53"/>
       <use xlink:href="#DejaVuSans-70" transform="translate(63.476562 0)"/>
       <use xlink:href="#DejaVuSans-75" transform="translate(126.953125 0)"/>
       <use xlink:href="#DejaVuSans-72" transform="translate(190.332031 0)"/>
       <use xlink:href="#DejaVuSans-69" transform="translate(231.445312 0)"/>
       <use xlink:href="#DejaVuSans-6f" transform="translate(259.228516 0)"/>
       <use xlink:href="#DejaVuSans-75" transform="translate(320.410156 0)"/>
       <use xlink:href="#DejaVuSans-73" transform="translate(383.789062 0)"/>
      </g>
     </g>
    </g>
    <g id="xtick_2">
     <g id="line2d_2">
      <g>
       <use xlink:href="#m8bf6c64db7" x="257.4" y="320.4" style="stroke: #000000; stroke-width: 0.8"/>
      </g>
     </g>
     <g id="text_2">
      <!-- Specific -->
      <g transform="translate(237.938281 334.998438) scale(0.1 -0.1)">
       <defs>
        <path id="DejaVuSans-65" d="M 3597 1894 
L 3597 1613 
L 953 1613 
Q 991 1019 1311 708 
Q 1631 397 2203 397 
Q 2534 397 2845 478 
Q 3156 559 3463 722 
L 3463 178 
Q 3153 47 2828 -22 
Q 2503 -91 2169 -91 
Q 1331 -91 842 396 
Q 353 884 353 1716 
Q 353 2575 817 3079 
Q 1281 3584 2069 3584 
Q 2775 3584 3186 3129 
Q 3597 2675 3597 1894 
z
M 3022 2063 
Q 3016 2534 2758 2815 
Q 2500 3097 2075 3097 
Q 1594 3097 1305 2825 
Q 1016 2553 972 2059 
L 3022 2063 
z
" transform="scale(0.015625)"/>
        <path id="DejaVuSans-63" d="M 3122 3366 
L 3122 2828 
Q 2878 2963 2633 3030 
Q 2388 3097 2138 3097 
Q 1578 3097 1268 2742 
Q 959 2388 959 1747 
Q 959 1106 1268 751 
Q 1578 397 2138 397 
Q 2388 397 2633 464 
Q 2878 531 3122 666 
L 3122 134 
Q 2881 22 2623 -34 
Q 2366 -91 2075 -91 
Q 1284 -91 818 406 
Q 353 903 353 1747 
Q 353 2603 823 3093 
Q 1294 3584 2113 3584 
Q 2378 3584 2631 3529 
Q 2884 3475 3122 3366 
z
" transform="scale(0.015625)"/>
        <path id="DejaVuSans-66" d="M 2375 4863 
L 2375 4384 
L 1825 4384 
Q 1516 4384 1395 4259 
Q 1275 4134 1275 3809 
L 1275 3500 
L 2222 3500 
L 2222 3053 
L 1275 3053 
L 1275 0 
L 697 0 
L 697 3053 
L 147 3053 
L 147 3500 
L 697 3500 
L 697 3744 
Q 697 4328 969 4595 
Q 1241 4863 1831 4863 
L 2375 4863 
z
" transform="scale(0.015625)"/>
       </defs>
       <use xlink:href="#DejaVuSans-53"/>
       <use xlink:href="#DejaVuSans-70" transform="translate(63.476562 0)"/>
       <use xlink:href="#DejaVuSans-65" transform="translate(126.953125 0)"/>
       <use xlink:href="#DejaVuSans-63" transform="translate(188.476562 0)"/>
       <use xlink:href="#DejaVuSans-69" transform="translate(243.457031 0)"/>
       <use xlink:href="#DejaVuSans-66" transform="translate(271.240234 0)"/>
       <use xlink:href="#DejaVuSans-69" transform="translate(306.445312 0)"/>
       <use xlink:href="#DejaVuSans-63" transform="translate(334.228516 0)"/>
      </g>
     </g>
    </g>
    <g id="xtick_3">
     <g id="line2d_3">
      <g>
       <use xlink:href="#m8bf6c64db7" x="369" y="320.4" style="stroke: #000000; stroke-width: 0.8"/>
      </g>
     </g>
     <g id="text_3">
      <!-- Non-specific -->
      <g transform="translate(338.335156 334.998438) scale(0.1 -0.1)">
       <defs>
        <path id="DejaVuSans-4e" d="M 628 4666 
L 1478 4666 
L 3547 763 
L 3547 4666 
L 4159 4666 
L 4159 0 
L 3309 0 
L 1241 3903 
L 1241 0 
L 628 0 
L 628 4666 
z
" transform="scale(0.015625)"/>
        <path id="DejaVuSans-6e" d="M 3513 2113 
L 3513 0 
L 2938 0 
L 2938 2094 
Q 2938 2591 2744 2837 
Q 2550 3084 2163 3084 
Q 1697 3084 1428 2787 
Q 1159 2491 1159 1978 
L 1159 0 
L 581 0 
L 581 3500 
L 1159 3500 
L 1159 2956 
Q 1366 3272 1645 3428 
Q 1925 3584 2291 3584 
Q 2894 3584 3203 3211 
Q 3513 2838 3513 2113 
z
" transform="scale(0.015625)"/>
        <path id="DejaVuSans-2d" d="M 313 2009 
L 1997 2009 
L 1997 1497 
L 313 1497 
L 313 2009 
z
" transform="scale(0.015625)"/>
       </defs>
       <use xlink:href="#DejaVuSans-4e"/>
       <use xlink:href="#DejaVuSans-6f" transform="translate(74.804688 0)"/>
       <use xlink:href="#DejaVuSans-6e" transform="translate(135.986328 0)"/>
       <use xlink:href="#DejaVuSans-2d" transform="translate(199.365234 0)"/>
       <use xlink:href="#DejaVuSans-73" transform="translate(235.449219 0)"/>
       <use xlink:href="#DejaVuSans-70" transform="translate(287.548828 0)"/>
       <use xlink:href="#DejaVuSans-65" transform="translate(351.025391 0)"/>
       <use xlink:href="#DejaVuSans-63" transform="translate(412.548828 0)"/>
       <use xlink:href="#DejaVuSans-69" transform="translate(467.529297 0)"/>
       <use xlink:href="#DejaVuSans-66" transform="translate(495.3125 0)"/>
       <use xlink:href="#DejaVuSans-69" transform="translate(530.517578 0)"/>
       <use xlink:href="#DejaVuSans-63" transform="translate(558.300781 0)"/>
      </g>
     </g>
    </g>
    <g id="xtick_4">
     <g id="line2d_4">
      <g>
       <use xlink:href="#m8bf6c64db7" x="480.6" y="320.4" style="stroke: #000000; stroke-width: 0.8"/>
      </g>
     </g>
     <g id="text_4">
      <!-- No -->
      <g transform="translate(473.8 334.998438) scale(0.1 -0.1)">
       <use xlink:href="#DejaVuSans-4e"/>
       <use xlink:href="#DejaVuSans-6f" transform="translate(74.804688 0)"/>
      </g>
     </g>
    </g>
    <g id="xtick_5">
     <g id="line2d_5">
      <g>
       <use xlink:href="#m8bf6c64db7" x="592.2" y="320.4" style="stroke: #000000; stroke-width: 0.8"/>
      </g>
     </g>
     <g id="text_5">
      <!-- other -->
      <g transform="translate(578.879688 334.998438) scale(0.1 -0.1)">
       <defs>
        <path id="DejaVuSans-74" d="M 1172 4494 
L 1172 3500 
L 2356 3500 
L 2356 3053 
L 1172 3053 
L 1172 1153 
Q 1172 725 1289 603 
Q 1406 481 1766 481 
L 2356 481 
L 2356 0 
L 1766 0 
Q 1100 0 847 248 
Q 594 497 594 1153 
L 594 3053 
L 172 3053 
L 172 3500 
L 594 3500 
L 594 4494 
L 1172 4494 
z
" transform="scale(0.015625)"/>
        <path id="DejaVuSans-68" d="M 3513 2113 
L 3513 0 
L 2938 0 
L 2938 2094 
Q 2938 2591 2744 2837 
Q 2550 3084 2163 3084 
Q 1697 3084 1428 2787 
Q 1159 2491 1159 1978 
L 1159 0 
L 581 0 
L 581 4863 
L 1159 4863 
L 1159 2956 
Q 1366 3272 1645 3428 
Q 1925 3584 2291 3584 
Q 2894 3584 3203 3211 
Q 3513 2838 3513 2113 
z
" transform="scale(0.015625)"/>
       </defs>
       <use xlink:href="#DejaVuSans-6f"/>
       <use xlink:href="#DejaVuSans-74" transform="translate(61.181641 0)"/>
       <use xlink:href="#DejaVuSans-68" transform="translate(100.390625 0)"/>
       <use xlink:href="#DejaVuSans-65" transform="translate(163.769531 0)"/>
       <use xlink:href="#DejaVuSans-72" transform="translate(225.292969 0)"/>
      </g>
     </g>
    </g>
    <g id="text_6">
     <!-- Connectivity category -->
     <g transform="translate(313.98125 348.676562) scale(0.1 -0.1)">
      <defs>
       <path id="DejaVuSans-43" d="M 4122 4306 
L 4122 3641 
Q 3803 3938 3442 4084 
Q 3081 4231 2675 4231 
Q 1875 4231 1450 3742 
Q 1025 3253 1025 2328 
Q 1025 1406 1450 917 
Q 1875 428 2675 428 
Q 3081 428 3442 575 
Q 3803 722 4122 1019 
L 4122 359 
Q 3791 134 3420 21 
Q 3050 -91 2638 -91 
Q 1578 -91 968 557 
Q 359 1206 359 2328 
Q 359 3453 968 4101 
Q 1578 4750 2638 4750 
Q 3056 4750 3426 4639 
Q 3797 4528 4122 4306 
z
" transform="scale(0.015625)"/>
       <path id="DejaVuSans-76" d="M 191 3500 
L 800 3500 
L 1894 563 
L 2988 3500 
L 3597 3500 
L 2284 0 
L 1503 0 
L 191 3500 
z
" transform="scale(0.015625)"/>
       <path id="DejaVuSans-79" d="M 2059 -325 
Q 1816 -950 1584 -1140 
Q 1353 -1331 966 -1331 
L 506 -1331 
L 506 -850 
L 844 -850 
Q 1081 -850 1212 -737 
Q 1344 -625 1503 -206 
L 1606 56 
L 191 3500 
L 800 3500 
L 1894 763 
L 2988 3500 
L 3597 3500 
L 2059 -325 
z
" transform="scale(0.015625)"/>
       <path id="DejaVuSans-20" transform="scale(0.015625)"/>
       <path id="DejaVuSans-61" d="M 2194 1759 
Q 1497 1759 1228 1600 
Q 959 1441 959 1056 
Q 959 750 1161 570 
Q 1363 391 1709 391 
Q 2188 391 2477 730 
Q 2766 1069 2766 1631 
L 2766 1759 
L 2194 1759 
z
M 3341 1997 
L 3341 0 
L 2766 0 
L 2766 531 
Q 2569 213 2275 61 
Q 1981 -91 1556 -91 
Q 1019 -91 701 211 
Q 384 513 384 1019 
Q 384 1609 779 1909 
Q 1175 2209 1959 2209 
L 2766 2209 
L 2766 2266 
Q 2766 2663 2505 2880 
Q 2244 3097 1772 3097 
Q 1472 3097 1187 3025 
Q 903 2953 641 2809 
L 641 3341 
Q 956 3463 1253 3523 
Q 1550 3584 1831 3584 
Q 2591 3584 2966 3190 
Q 3341 2797 3341 1997 
z
" transform="scale(0.015625)"/>
       <path id="DejaVuSans-67" d="M 2906 1791 
Q 2906 2416 2648 2759 
Q 2391 3103 1925 3103 
Q 1463 3103 1205 2759 
Q 947 2416 947 1791 
Q 947 1169 1205 825 
Q 1463 481 1925 481 
Q 2391 481 2648 825 
Q 2906 1169 2906 1791 
z
M 3481 434 
Q 3481 -459 3084 -895 
Q 2688 -1331 1869 -1331 
Q 1566 -1331 1297 -1286 
Q 1028 -1241 775 -1147 
L 775 -588 
Q 1028 -725 1275 -790 
Q 1522 -856 1778 -856 
Q 2344 -856 2625 -561 
Q 2906 -266 2906 331 
L 2906 616 
Q 2728 306 2450 153 
Q 2172 0 1784 0 
Q 1141 0 747 490 
Q 353 981 353 1791 
Q 353 2603 747 3093 
Q 1141 3584 1784 3584 
Q 2172 3584 2450 3431 
Q 2728 3278 2906 2969 
L 2906 3500 
L 3481 3500 
L 3481 434 
z
" transform="scale(0.015625)"/>
      </defs>
      <use xlink:href="#DejaVuSans-43"/>
      <use xlink:href="#DejaVuSans-6f" transform="translate(69.824219 0)"/>
      <use xlink:href="#DejaVuSans-6e" transform="translate(131.005859 0)"/>
      <use xlink:href="#DejaVuSans-6e" transform="translate(194.384766 0)"/>
      <use xlink:href="#DejaVuSans-65" transform="translate(257.763672 0)"/>
      <use xlink:href="#DejaVuSans-63" transform="translate(319.287109 0)"/>
      <use xlink:href="#DejaVuSans-74" transform="translate(374.267578 0)"/>
      <use xlink:href="#DejaVuSans-69" transform="translate(413.476562 0)"/>
      <use xlink:href="#DejaVuSans-76" transform="translate(441.259766 0)"/>
      <use xlink:href="#DejaVuSans-69" transform="translate(500.439453 0)"/>
      <use xlink:href="#DejaVuSans-74" transform="translate(528.222656 0)"/>
      <use xlink:href="#DejaVuSans-79" transform="translate(567.431641 0)"/>
      <use xlink:href="#DejaVuSans-20" transform="translate(626.611328 0)"/>
      <use xlink:href="#DejaVuSans-63" transform="translate(658.398438 0)"/>
      <use xlink:href="#DejaVuSans-61" transform="translate(713.378906 0)"/>
      <use xlink:href="#DejaVuSans-74" transform="translate(774.658203 0)"/>
      <use xlink:href="#DejaVuSans-65" transform="translate(813.867188 0)"/>
      <use xlink:href="#DejaVuSans-67" transform="translate(875.390625 0)"/>
      <use xlink:href="#DejaVuSans-6f" transform="translate(938.867188 0)"/>
      <use xlink:href="#DejaVuSans-72" transform="translate(1000.048828 0)"/>
      <use xlink:href="#DejaVuSans-79" transform="translate(1041.162109 0)"/>
     </g>
    </g>
   </g>
   <g id="matplotlib.axis_2">
    <g id="ytick_1">
     <g id="line2d_6">
      <defs>
       <path id="m2ee9212bbf" d="M 0 0 
L -3.5 0 
" style="stroke: #000000; stroke-width: 0.8"/>
      </defs>
      <g>
       <use xlink:href="#m2ee9212bbf" x="90" y="320.4" style="stroke: #000000; stroke-width: 0.8"/>
      </g>
     </g>
     <g id="text_7">
      <!-- 0 -->
      <g transform="translate(76.6375 324.199219) scale(0.1 -0.1)">
       <defs>
        <path id="DejaVuSans-30" d="M 2034 4250 
Q 1547 4250 1301 3770 
Q 1056 3291 1056 2328 
Q 1056 1369 1301 889 
Q 1547 409 2034 409 
Q 2525 409 2770 889 
Q 3016 1369 3016 2328 
Q 3016 3291 2770 3770 
Q 2525 4250 2034 4250 
z
M 2034 4750 
Q 2819 4750 3233 4129 
Q 3647 3509 3647 2328 
Q 3647 1150 3233 529 
Q 2819 -91 2034 -91 
Q 1250 -91 836 529 
Q 422 1150 422 2328 
Q 422 3509 836 4129 
Q 1250 4750 2034 4750 
z
" transform="scale(0.015625)"/>
       </defs>
       <use xlink:href="#DejaVuSans-30"/>
      </g>
     </g>
    </g>
    <g id="ytick_2">
     <g id="line2d_7">
      <g>
       <use xlink:href="#m2ee9212bbf" x="90" y="277.819355" style="stroke: #000000; stroke-width: 0.8"/>
      </g>
     </g>
     <g id="text_8">
      <!-- 20 -->
      <g transform="translate(70.275 281.618574) scale(0.1 -0.1)">
       <defs>
        <path id="DejaVuSans-32" d="M 1228 531 
L 3431 531 
L 3431 0 
L 469 0 
L 469 531 
Q 828 903 1448 1529 
Q 2069 2156 2228 2338 
Q 2531 2678 2651 2914 
Q 2772 3150 2772 3378 
Q 2772 3750 2511 3984 
Q 2250 4219 1831 4219 
Q 1534 4219 1204 4116 
Q 875 4013 500 3803 
L 500 4441 
Q 881 4594 1212 4672 
Q 1544 4750 1819 4750 
Q 2544 4750 2975 4387 
Q 3406 4025 3406 3419 
Q 3406 3131 3298 2873 
Q 3191 2616 2906 2266 
Q 2828 2175 2409 1742 
Q 1991 1309 1228 531 
z
" transform="scale(0.015625)"/>
       </defs>
       <use xlink:href="#DejaVuSans-32"/>
       <use xlink:href="#DejaVuSans-30" transform="translate(63.623047 0)"/>
      </g>
     </g>
    </g>
    <g id="ytick_3">
     <g id="line2d_8">
      <g>
       <use xlink:href="#m2ee9212bbf" x="90" y="235.23871" style="stroke: #000000; stroke-width: 0.8"/>
      </g>
     </g>
     <g id="text_9">
      <!-- 40 -->
      <g transform="translate(70.275 239.037928) scale(0.1 -0.1)">
       <defs>
        <path id="DejaVuSans-34" d="M 2419 4116 
L 825 1625 
L 2419 1625 
L 2419 4116 
z
M 2253 4666 
L 3047 4666 
L 3047 1625 
L 3713 1625 
L 3713 1100 
L 3047 1100 
L 3047 0 
L 2419 0 
L 2419 1100 
L 313 1100 
L 313 1709 
L 2253 4666 
z
" transform="scale(0.015625)"/>
       </defs>
       <use xlink:href="#DejaVuSans-34"/>
       <use xlink:href="#DejaVuSans-30" transform="translate(63.623047 0)"/>
      </g>
     </g>
    </g>
    <g id="ytick_4">
     <g id="line2d_9">
      <g>
       <use xlink:href="#m2ee9212bbf" x="90" y="192.658065" style="stroke: #000000; stroke-width: 0.8"/>
      </g>
     </g>
     <g id="text_10">
      <!-- 60 -->
      <g transform="translate(70.275 196.457283) scale(0.1 -0.1)">
       <defs>
        <path id="DejaVuSans-36" d="M 2113 2584 
Q 1688 2584 1439 2293 
Q 1191 2003 1191 1497 
Q 1191 994 1439 701 
Q 1688 409 2113 409 
Q 2538 409 2786 701 
Q 3034 994 3034 1497 
Q 3034 2003 2786 2293 
Q 2538 2584 2113 2584 
z
M 3366 4563 
L 3366 3988 
Q 3128 4100 2886 4159 
Q 2644 4219 2406 4219 
Q 1781 4219 1451 3797 
Q 1122 3375 1075 2522 
Q 1259 2794 1537 2939 
Q 1816 3084 2150 3084 
Q 2853 3084 3261 2657 
Q 3669 2231 3669 1497 
Q 3669 778 3244 343 
Q 2819 -91 2113 -91 
Q 1303 -91 875 529 
Q 447 1150 447 2328 
Q 447 3434 972 4092 
Q 1497 4750 2381 4750 
Q 2619 4750 2861 4703 
Q 3103 4656 3366 4563 
z
" transform="scale(0.015625)"/>
       </defs>
       <use xlink:href="#DejaVuSans-36"/>
       <use xlink:href="#DejaVuSans-30" transform="translate(63.623047 0)"/>
      </g>
     </g>
    </g>
    <g id="ytick_5">
     <g id="line2d_10">
      <g>
       <use xlink:href="#m2ee9212bbf" x="90" y="150.077419" style="stroke: #000000; stroke-width: 0.8"/>
      </g>
     </g>
     <g id="text_11">
      <!-- 80 -->
      <g transform="translate(70.275 153.876638) scale(0.1 -0.1)">
       <defs>
        <path id="DejaVuSans-38" d="M 2034 2216 
Q 1584 2216 1326 1975 
Q 1069 1734 1069 1313 
Q 1069 891 1326 650 
Q 1584 409 2034 409 
Q 2484 409 2743 651 
Q 3003 894 3003 1313 
Q 3003 1734 2745 1975 
Q 2488 2216 2034 2216 
z
M 1403 2484 
Q 997 2584 770 2862 
Q 544 3141 544 3541 
Q 544 4100 942 4425 
Q 1341 4750 2034 4750 
Q 2731 4750 3128 4425 
Q 3525 4100 3525 3541 
Q 3525 3141 3298 2862 
Q 3072 2584 2669 2484 
Q 3125 2378 3379 2068 
Q 3634 1759 3634 1313 
Q 3634 634 3220 271 
Q 2806 -91 2034 -91 
Q 1263 -91 848 271 
Q 434 634 434 1313 
Q 434 1759 690 2068 
Q 947 2378 1403 2484 
z
M 1172 3481 
Q 1172 3119 1398 2916 
Q 1625 2713 2034 2713 
Q 2441 2713 2670 2916 
Q 2900 3119 2900 3481 
Q 2900 3844 2670 4047 
Q 2441 4250 2034 4250 
Q 1625 4250 1398 4047 
Q 1172 3844 1172 3481 
z
" transform="scale(0.015625)"/>
       </defs>
       <use xlink:href="#DejaVuSans-38"/>
       <use xlink:href="#DejaVuSans-30" transform="translate(63.623047 0)"/>
      </g>
     </g>
    </g>
    <g id="ytick_6">
     <g id="line2d_11">
      <g>
       <use xlink:href="#m2ee9212bbf" x="90" y="107.496774" style="stroke: #000000; stroke-width: 0.8"/>
      </g>
     </g>
     <g id="text_12">
      <!-- 100 -->
      <g transform="translate(63.9125 111.295993) scale(0.1 -0.1)">
       <defs>
        <path id="DejaVuSans-31" d="M 794 531 
L 1825 531 
L 1825 4091 
L 703 3866 
L 703 4441 
L 1819 4666 
L 2450 4666 
L 2450 531 
L 3481 531 
L 3481 0 
L 794 0 
L 794 531 
z
" transform="scale(0.015625)"/>
       </defs>
       <use xlink:href="#DejaVuSans-31"/>
       <use xlink:href="#DejaVuSans-30" transform="translate(63.623047 0)"/>
       <use xlink:href="#DejaVuSans-30" transform="translate(127.246094 0)"/>
      </g>
     </g>
    </g>
    <g id="ytick_7">
     <g id="line2d_12">
      <g>
       <use xlink:href="#m2ee9212bbf" x="90" y="64.916129" style="stroke: #000000; stroke-width: 0.8"/>
      </g>
     </g>
     <g id="text_13">
      <!-- 120 -->
      <g transform="translate(63.9125 68.715348) scale(0.1 -0.1)">
       <use xlink:href="#DejaVuSans-31"/>
       <use xlink:href="#DejaVuSans-32" transform="translate(63.623047 0)"/>
       <use xlink:href="#DejaVuSans-30" transform="translate(127.246094 0)"/>
      </g>
     </g>
    </g>
    <g id="text_14">
     <!-- cont_variable -->
     <g transform="translate(57.554687 215.409375) rotate(-90) scale(0.1 -0.1)">
      <defs>
       <path id="DejaVuSans-5f" d="M 3263 -1063 
L 3263 -1509 
L -63 -1509 
L -63 -1063 
L 3263 -1063 
z
" transform="scale(0.015625)"/>
       <path id="DejaVuSans-62" d="M 3116 1747 
Q 3116 2381 2855 2742 
Q 2594 3103 2138 3103 
Q 1681 3103 1420 2742 
Q 1159 2381 1159 1747 
Q 1159 1113 1420 752 
Q 1681 391 2138 391 
Q 2594 391 2855 752 
Q 3116 1113 3116 1747 
z
M 1159 2969 
Q 1341 3281 1617 3432 
Q 1894 3584 2278 3584 
Q 2916 3584 3314 3078 
Q 3713 2572 3713 1747 
Q 3713 922 3314 415 
Q 2916 -91 2278 -91 
Q 1894 -91 1617 61 
Q 1341 213 1159 525 
L 1159 0 
L 581 0 
L 581 4863 
L 1159 4863 
L 1159 2969 
z
" transform="scale(0.015625)"/>
       <path id="DejaVuSans-6c" d="M 603 4863 
L 1178 4863 
L 1178 0 
L 603 0 
L 603 4863 
z
" transform="scale(0.015625)"/>
      </defs>
      <use xlink:href="#DejaVuSans-63"/>
      <use xlink:href="#DejaVuSans-6f" transform="translate(54.980469 0)"/>
      <use xlink:href="#DejaVuSans-6e" transform="translate(116.162109 0)"/>
      <use xlink:href="#DejaVuSans-74" transform="translate(179.541016 0)"/>
      <use xlink:href="#DejaVuSans-5f" transform="translate(218.75 0)"/>
      <use xlink:href="#DejaVuSans-76" transform="translate(268.75 0)"/>
      <use xlink:href="#DejaVuSans-61" transform="translate(327.929688 0)"/>
      <use xlink:href="#DejaVuSans-72" transform="translate(389.208984 0)"/>
      <use xlink:href="#DejaVuSans-69" transform="translate(430.322266 0)"/>
      <use xlink:href="#DejaVuSans-61" transform="translate(458.105469 0)"/>
      <use xlink:href="#DejaVuSans-62" transform="translate(519.384766 0)"/>
      <use xlink:href="#DejaVuSans-6c" transform="translate(582.861328 0)"/>
      <use xlink:href="#DejaVuSans-65" transform="translate(610.644531 0)"/>
     </g>
    </g>
   </g>
   <g id="line2d_13">
    <path clip-path="url(#p8938872ac9)" style="fill: none; stroke: #424242; stroke-width: 2.25; stroke-linecap: square"/>
   </g>
   <g id="line2d_14">
    <path clip-path="url(#p8938872ac9)" style="fill: none; stroke: #424242; stroke-width: 2.25; stroke-linecap: square"/>
   </g>
   <g id="line2d_15">
    <path clip-path="url(#p8938872ac9)" style="fill: none; stroke: #424242; stroke-width: 2.25; stroke-linecap: square"/>
   </g>
   <g id="line2d_16">
    <path clip-path="url(#p8938872ac9)" style="fill: none; stroke: #424242; stroke-width: 2.25; stroke-linecap: square"/>
   </g>
   <g id="line2d_17">
    <path clip-path="url(#p8938872ac9)" style="fill: none; stroke: #424242; stroke-width: 2.25; stroke-linecap: square"/>
   </g>
   <g id="line2d_18">
    <path clip-path="url(#p8938872ac9)" style="fill: none; stroke: #424242; stroke-width: 2.25; stroke-linecap: square"/>
   </g>
   <g id="line2d_19">
    <path clip-path="url(#p8938872ac9)" style="fill: none; stroke: #424242; stroke-width: 2.25; stroke-linecap: square"/>
   </g>
   <g id="line2d_20">
    <path clip-path="url(#p8938872ac9)" style="fill: none; stroke: #424242; stroke-width: 2.25; stroke-linecap: square"/>
   </g>
   <g id="line2d_21">
    <path clip-path="url(#p8938872ac9)" style="fill: none; stroke: #424242; stroke-width: 2.25; stroke-linecap: square"/>
   </g>
   <g id="line2d_22">
    <path clip-path="url(#p8938872ac9)" style="fill: none; stroke: #424242; stroke-width: 2.25; stroke-linecap: square"/>
   </g>
   <g id="line2d_23">
    <path clip-path="url(#p8938872ac9)" style="fill: none; stroke: #424242; stroke-width: 2.25; stroke-linecap: square"/>
   </g>
   <g id="line2d_24">
    <path clip-path="url(#p8938872ac9)" style="fill: none; stroke: #424242; stroke-width: 2.25; stroke-linecap: square"/>
   </g>
   <g id="line2d_25">
    <path clip-path="url(#p8938872ac9)" style="fill: none; stroke: #424242; stroke-width: 2.25; stroke-linecap: square"/>
   </g>
   <g id="line2d_26">
    <path clip-path="url(#p8938872ac9)" style="fill: none; stroke: #424242; stroke-width: 2.25; stroke-linecap: square"/>
   </g>
   <g id="line2d_27">
    <path clip-path="url(#p8938872ac9)" style="fill: none; stroke: #424242; stroke-width: 2.25; stroke-linecap: square"/>
   </g>
   <g id="line2d_28">
    <path clip-path="url(#p8938872ac9)" style="fill: none; stroke: #424242; stroke-width: 2.25; stroke-linecap: square"/>
   </g>
   <g id="line2d_29">
    <path clip-path="url(#p8938872ac9)" style="fill: none; stroke: #424242; stroke-width: 2.25; stroke-linecap: square"/>
   </g>
   <g id="line2d_30">
    <path clip-path="url(#p8938872ac9)" style="fill: none; stroke: #424242; stroke-width: 2.25; stroke-linecap: square"/>
   </g>
   <g id="line2d_31">
    <path clip-path="url(#p8938872ac9)" style="fill: none; stroke: #424242; stroke-width: 2.25; stroke-linecap: square"/>
   </g>
   <g id="line2d_32">
    <path clip-path="url(#p8938872ac9)" style="fill: none; stroke: #424242; stroke-width: 2.25; stroke-linecap: square"/>
   </g>
   <g id="line2d_33">
    <path clip-path="url(#p8938872ac9)" style="fill: none; stroke: #424242; stroke-width: 2.25; stroke-linecap: square"/>
   </g>
   <g id="line2d_34">
    <path clip-path="url(#p8938872ac9)" style="fill: none; stroke: #424242; stroke-width: 2.25; stroke-linecap: square"/>
   </g>
   <g id="patch_36">
    <path d="M 90 320.4 
L 90 43.2 
" style="fill: none; stroke: #000000; stroke-width: 0.8; stroke-linejoin: miter; stroke-linecap: square"/>
   </g>
   <g id="patch_37">
    <path d="M 648 320.4 
L 648 43.2 
" style="fill: none; stroke: #000000; stroke-width: 0.8; stroke-linejoin: miter; stroke-linecap: square"/>
   </g>
   <g id="patch_38">
    <path d="M 90 320.4 
L 648 320.4 
" style="fill: none; stroke: #000000; stroke-width: 0.8; stroke-linejoin: miter; stroke-linecap: square"/>
   </g>
   <g id="patch_39">
    <path d="M 90 43.2 
L 648 43.2 
" style="fill: none; stroke: #000000; stroke-width: 0.8; stroke-linejoin: miter; stroke-linecap: square"/>
   </g>
   <g id="PathCollection_1">
    <defs>
     <path id="m5bde3d028c" d="M 0 2.5 
C 0.663008 2.5 1.29895 2.236584 1.767767 1.767767 
C 2.236584 1.29895 2.5 0.663008 2.5 0 
C 2.5 -0.663008 2.236584 -1.29895 1.767767 -1.767767 
C 1.29895 -2.236584 0.663008 -2.5 0 -2.5 
C -0.663008 -2.5 -1.29895 -2.236584 -1.767767 -1.767767 
C -2.236584 -1.29895 -2.5 -0.663008 -2.5 0 
C -2.5 0.663008 -2.236584 1.29895 -1.767767 1.767767 
C -1.29895 2.236584 -0.663008 2.5 0 2.5 
z
"/>
    </defs>
    <g clip-path="url(#p8938872ac9)">
     <use xlink:href="#m5bde3d028c" x="140.16595" y="303.367742" style="fill-opacity: 0.3"/>
     <use xlink:href="#m5bde3d028c" x="153.355638" y="303.367742" style="fill-opacity: 0.3"/>
     <use xlink:href="#m5bde3d028c" x="143.759068" y="311.883871" style="fill-opacity: 0.3"/>
     <use xlink:href="#m5bde3d028c" x="152.518008" y="303.367742" style="fill-opacity: 0.3"/>
     <use xlink:href="#m5bde3d028c" x="144.813156" y="301.23871" style="fill-opacity: 0.3"/>
     <use xlink:href="#m5bde3d028c" x="146.92142" y="301.23871" style="fill-opacity: 0.3"/>
     <use xlink:href="#m5bde3d028c" x="150.14212" y="301.23871" style="fill-opacity: 0.3"/>
     <use xlink:href="#m5bde3d028c" x="149.070231" y="301.23871" style="fill-opacity: 0.3"/>
     <use xlink:href="#m5bde3d028c" x="137.639057" y="301.23871" style="fill-opacity: 0.3"/>
     <use xlink:href="#m5bde3d028c" x="142.245871" y="301.23871" style="fill-opacity: 0.3"/>
     <use xlink:href="#m5bde3d028c" x="153.892082" y="301.23871" style="fill-opacity: 0.3"/>
     <use xlink:href="#m5bde3d028c" x="156.120914" y="301.23871" style="fill-opacity: 0.3"/>
     <use xlink:href="#m5bde3d028c" x="153.70418" y="301.23871" style="fill-opacity: 0.3"/>
     <use xlink:href="#m5bde3d028c" x="146.55225" y="301.23871" style="fill-opacity: 0.3"/>
     <use xlink:href="#m5bde3d028c" x="155.757366" y="301.23871" style="fill-opacity: 0.3"/>
     <use xlink:href="#m5bde3d028c" x="135.098621" y="301.23871" style="fill-opacity: 0.3"/>
     <use xlink:href="#m5bde3d028c" x="146.487074" y="301.23871" style="fill-opacity: 0.3"/>
     <use xlink:href="#m5bde3d028c" x="153.800312" y="301.23871" style="fill-opacity: 0.3"/>
     <use xlink:href="#m5bde3d028c" x="148.2538" y="301.23871" style="fill-opacity: 0.3"/>
     <use xlink:href="#m5bde3d028c" x="156.338614" y="301.23871" style="fill-opacity: 0.3"/>
     <use xlink:href="#m5bde3d028c" x="150.595988" y="301.23871" style="fill-opacity: 0.3"/>
     <use xlink:href="#m5bde3d028c" x="152.633878" y="301.23871" style="fill-opacity: 0.3"/>
     <use xlink:href="#m5bde3d028c" x="142.243354" y="301.23871" style="fill-opacity: 0.3"/>
     <use xlink:href="#m5bde3d028c" x="144.344488" y="301.23871" style="fill-opacity: 0.3"/>
     <use xlink:href="#m5bde3d028c" x="146.683563" y="301.23871" style="fill-opacity: 0.3"/>
     <use xlink:href="#m5bde3d028c" x="139.988798" y="301.23871" style="fill-opacity: 0.3"/>
     <use xlink:href="#m5bde3d028c" x="150.456796" y="301.23871" style="fill-opacity: 0.3"/>
     <use xlink:href="#m5bde3d028c" x="140.58589" y="301.23871" style="fill-opacity: 0.3"/>
     <use xlink:href="#m5bde3d028c" x="150.346624" y="305.496774" style="fill-opacity: 0.3"/>
     <use xlink:href="#m5bde3d028c" x="148.87065" y="305.496774" style="fill-opacity: 0.3"/>
     <use xlink:href="#m5bde3d028c" x="139.543683" y="305.496774" style="fill-opacity: 0.3"/>
     <use xlink:href="#m5bde3d028c" x="144.47045" y="305.496774" style="fill-opacity: 0.3"/>
     <use xlink:href="#m5bde3d028c" x="153.63345" y="305.496774" style="fill-opacity: 0.3"/>
     <use xlink:href="#m5bde3d028c" x="140.667365" y="305.496774" style="fill-opacity: 0.3"/>
     <use xlink:href="#m5bde3d028c" x="139.98812" y="305.496774" style="fill-opacity: 0.3"/>
     <use xlink:href="#m5bde3d028c" x="137.011074" y="305.496774" style="fill-opacity: 0.3"/>
     <use xlink:href="#m5bde3d028c" x="135.506396" y="305.496774" style="fill-opacity: 0.3"/>
     <use xlink:href="#m5bde3d028c" x="151.64416" y="305.496774" style="fill-opacity: 0.3"/>
     <use xlink:href="#m5bde3d028c" x="149.08125" y="305.496774" style="fill-opacity: 0.3"/>
     <use xlink:href="#m5bde3d028c" x="149.327855" y="305.496774" style="fill-opacity: 0.3"/>
     <use xlink:href="#m5bde3d028c" x="149.545615" y="305.496774" style="fill-opacity: 0.3"/>
     <use xlink:href="#m5bde3d028c" x="143.110872" y="305.496774" style="fill-opacity: 0.3"/>
     <use xlink:href="#m5bde3d028c" x="136.821125" y="305.496774" style="fill-opacity: 0.3"/>
     <use xlink:href="#m5bde3d028c" x="137.214126" y="305.496774" style="fill-opacity: 0.3"/>
     <use xlink:href="#m5bde3d028c" x="141.523211" y="305.496774" style="fill-opacity: 0.3"/>
     <use xlink:href="#m5bde3d028c" x="151.803457" y="305.496774" style="fill-opacity: 0.3"/>
     <use xlink:href="#m5bde3d028c" x="134.704559" y="305.496774" style="fill-opacity: 0.3"/>
     <use xlink:href="#m5bde3d028c" x="147.624693" y="305.496774" style="fill-opacity: 0.3"/>
     <use xlink:href="#m5bde3d028c" x="139.762734" y="301.23871" style="fill-opacity: 0.3"/>
     <use xlink:href="#m5bde3d028c" x="138.131646" y="301.23871" style="fill-opacity: 0.3"/>
     <use xlink:href="#m5bde3d028c" x="135.440758" y="301.23871" style="fill-opacity: 0.3"/>
     <use xlink:href="#m5bde3d028c" x="147.778275" y="301.23871" style="fill-opacity: 0.3"/>
     <use xlink:href="#m5bde3d028c" x="142.646975" y="301.23871" style="fill-opacity: 0.3"/>
     <use xlink:href="#m5bde3d028c" x="141.38216" y="301.23871" style="fill-opacity: 0.3"/>
    </g>
   </g>
   <g id="PathCollection_2">
    <g clip-path="url(#p8938872ac9)">
     <use xlink:href="#m5bde3d028c" x="261.040383" y="303.367742" style="fill-opacity: 0.3"/>
     <use xlink:href="#m5bde3d028c" x="265.21483" y="303.367742" style="fill-opacity: 0.3"/>
     <use xlink:href="#m5bde3d028c" x="248.90382" y="303.367742" style="fill-opacity: 0.3"/>
     <use xlink:href="#m5bde3d028c" x="263.192765" y="303.367742" style="fill-opacity: 0.3"/>
     <use xlink:href="#m5bde3d028c" x="248.870265" y="303.367742" style="fill-opacity: 0.3"/>
     <use xlink:href="#m5bde3d028c" x="265.950185" y="303.367742" style="fill-opacity: 0.3"/>
     <use xlink:href="#m5bde3d028c" x="249.582237" y="303.367742" style="fill-opacity: 0.3"/>
     <use xlink:href="#m5bde3d028c" x="262.547043" y="303.367742" style="fill-opacity: 0.3"/>
     <use xlink:href="#m5bde3d028c" x="260.030201" y="303.367742" style="fill-opacity: 0.3"/>
     <use xlink:href="#m5bde3d028c" x="259.869613" y="303.367742" style="fill-opacity: 0.3"/>
     <use xlink:href="#m5bde3d028c" x="260.384264" y="311.883871" style="fill-opacity: 0.3"/>
     <use xlink:href="#m5bde3d028c" x="246.513508" y="311.883871" style="fill-opacity: 0.3"/>
     <use xlink:href="#m5bde3d028c" x="254.435132" y="311.883871" style="fill-opacity: 0.3"/>
     <use xlink:href="#m5bde3d028c" x="248.1018" y="311.883871" style="fill-opacity: 0.3"/>
     <use xlink:href="#m5bde3d028c" x="263.658859" y="303.367742" style="fill-opacity: 0.3"/>
     <use xlink:href="#m5bde3d028c" x="257.46808" y="301.23871" style="fill-opacity: 0.3"/>
     <use xlink:href="#m5bde3d028c" x="267.820472" y="301.23871" style="fill-opacity: 0.3"/>
     <use xlink:href="#m5bde3d028c" x="265.93033" y="301.23871" style="fill-opacity: 0.3"/>
     <use xlink:href="#m5bde3d028c" x="254.898035" y="301.23871" style="fill-opacity: 0.3"/>
     <use xlink:href="#m5bde3d028c" x="247.26079" y="301.23871" style="fill-opacity: 0.3"/>
     <use xlink:href="#m5bde3d028c" x="251.458564" y="301.23871" style="fill-opacity: 0.3"/>
     <use xlink:href="#m5bde3d028c" x="263.259724" y="301.23871" style="fill-opacity: 0.3"/>
     <use xlink:href="#m5bde3d028c" x="265.03947" y="301.23871" style="fill-opacity: 0.3"/>
     <use xlink:href="#m5bde3d028c" x="247.061849" y="301.23871" style="fill-opacity: 0.3"/>
     <use xlink:href="#m5bde3d028c" x="262.786035" y="301.23871" style="fill-opacity: 0.3"/>
     <use xlink:href="#m5bde3d028c" x="252.070207" y="301.23871" style="fill-opacity: 0.3"/>
     <use xlink:href="#m5bde3d028c" x="267.407312" y="301.23871" style="fill-opacity: 0.3"/>
     <use xlink:href="#m5bde3d028c" x="259.877079" y="301.23871" style="fill-opacity: 0.3"/>
     <use xlink:href="#m5bde3d028c" x="250.158881" y="301.23871" style="fill-opacity: 0.3"/>
     <use xlink:href="#m5bde3d028c" x="266.414831" y="301.23871" style="fill-opacity: 0.3"/>
     <use xlink:href="#m5bde3d028c" x="256.929002" y="301.23871" style="fill-opacity: 0.3"/>
     <use xlink:href="#m5bde3d028c" x="251.037864" y="301.23871" style="fill-opacity: 0.3"/>
     <use xlink:href="#m5bde3d028c" x="250.511093" y="301.23871" style="fill-opacity: 0.3"/>
     <use xlink:href="#m5bde3d028c" x="256.775497" y="301.23871" style="fill-opacity: 0.3"/>
     <use xlink:href="#m5bde3d028c" x="247.06807" y="301.23871" style="fill-opacity: 0.3"/>
     <use xlink:href="#m5bde3d028c" x="260.126546" y="301.23871" style="fill-opacity: 0.3"/>
     <use xlink:href="#m5bde3d028c" x="250.037572" y="301.23871" style="fill-opacity: 0.3"/>
     <use xlink:href="#m5bde3d028c" x="264.505106" y="301.23871" style="fill-opacity: 0.3"/>
     <use xlink:href="#m5bde3d028c" x="247.114151" y="301.23871" style="fill-opacity: 0.3"/>
     <use xlink:href="#m5bde3d028c" x="256.931022" y="301.23871" style="fill-opacity: 0.3"/>
     <use xlink:href="#m5bde3d028c" x="256.021117" y="301.23871" style="fill-opacity: 0.3"/>
     <use xlink:href="#m5bde3d028c" x="256.311837" y="301.23871" style="fill-opacity: 0.3"/>
     <use xlink:href="#m5bde3d028c" x="247.530013" y="301.23871" style="fill-opacity: 0.3"/>
     <use xlink:href="#m5bde3d028c" x="252.819862" y="301.23871" style="fill-opacity: 0.3"/>
     <use xlink:href="#m5bde3d028c" x="254.26148" y="301.23871" style="fill-opacity: 0.3"/>
     <use xlink:href="#m5bde3d028c" x="267.739597" y="301.23871" style="fill-opacity: 0.3"/>
     <use xlink:href="#m5bde3d028c" x="267.272364" y="301.23871" style="fill-opacity: 0.3"/>
     <use xlink:href="#m5bde3d028c" x="258.86256" y="301.23871" style="fill-opacity: 0.3"/>
     <use xlink:href="#m5bde3d028c" x="267.670582" y="301.23871" style="fill-opacity: 0.3"/>
     <use xlink:href="#m5bde3d028c" x="264.769805" y="301.23871" style="fill-opacity: 0.3"/>
     <use xlink:href="#m5bde3d028c" x="249.863569" y="301.23871" style="fill-opacity: 0.3"/>
     <use xlink:href="#m5bde3d028c" x="252.036495" y="301.23871" style="fill-opacity: 0.3"/>
     <use xlink:href="#m5bde3d028c" x="264.770458" y="301.23871" style="fill-opacity: 0.3"/>
     <use xlink:href="#m5bde3d028c" x="256.843497" y="301.23871" style="fill-opacity: 0.3"/>
     <use xlink:href="#m5bde3d028c" x="264.538122" y="301.23871" style="fill-opacity: 0.3"/>
     <use xlink:href="#m5bde3d028c" x="253.635437" y="301.23871" style="fill-opacity: 0.3"/>
     <use xlink:href="#m5bde3d028c" x="254.1463" y="301.23871" style="fill-opacity: 0.3"/>
     <use xlink:href="#m5bde3d028c" x="246.766141" y="301.23871" style="fill-opacity: 0.3"/>
     <use xlink:href="#m5bde3d028c" x="265.241418" y="301.23871" style="fill-opacity: 0.3"/>
     <use xlink:href="#m5bde3d028c" x="253.433524" y="301.23871" style="fill-opacity: 0.3"/>
     <use xlink:href="#m5bde3d028c" x="255.51492" y="305.496774" style="fill-opacity: 0.3"/>
     <use xlink:href="#m5bde3d028c" x="268.079683" y="305.496774" style="fill-opacity: 0.3"/>
     <use xlink:href="#m5bde3d028c" x="253.262461" y="305.496774" style="fill-opacity: 0.3"/>
     <use xlink:href="#m5bde3d028c" x="259.405274" y="305.496774" style="fill-opacity: 0.3"/>
     <use xlink:href="#m5bde3d028c" x="264.669429" y="305.496774" style="fill-opacity: 0.3"/>
     <use xlink:href="#m5bde3d028c" x="247.725819" y="305.496774" style="fill-opacity: 0.3"/>
     <use xlink:href="#m5bde3d028c" x="263.341162" y="305.496774" style="fill-opacity: 0.3"/>
     <use xlink:href="#m5bde3d028c" x="251.079439" y="305.496774" style="fill-opacity: 0.3"/>
     <use xlink:href="#m5bde3d028c" x="264.754636" y="305.496774" style="fill-opacity: 0.3"/>
     <use xlink:href="#m5bde3d028c" x="249.971538" y="305.496774" style="fill-opacity: 0.3"/>
     <use xlink:href="#m5bde3d028c" x="265.499861" y="305.496774" style="fill-opacity: 0.3"/>
     <use xlink:href="#m5bde3d028c" x="262.33055" y="305.496774" style="fill-opacity: 0.3"/>
     <use xlink:href="#m5bde3d028c" x="248.907765" y="305.496774" style="fill-opacity: 0.3"/>
     <use xlink:href="#m5bde3d028c" x="246.416514" y="305.496774" style="fill-opacity: 0.3"/>
     <use xlink:href="#m5bde3d028c" x="267.890283" y="305.496774" style="fill-opacity: 0.3"/>
     <use xlink:href="#m5bde3d028c" x="247.511359" y="305.496774" style="fill-opacity: 0.3"/>
     <use xlink:href="#m5bde3d028c" x="259.661214" y="305.496774" style="fill-opacity: 0.3"/>
     <use xlink:href="#m5bde3d028c" x="257.753649" y="305.496774" style="fill-opacity: 0.3"/>
     <use xlink:href="#m5bde3d028c" x="264.871049" y="305.496774" style="fill-opacity: 0.3"/>
     <use xlink:href="#m5bde3d028c" x="265.410005" y="305.496774" style="fill-opacity: 0.3"/>
     <use xlink:href="#m5bde3d028c" x="261.537518" y="305.496774" style="fill-opacity: 0.3"/>
     <use xlink:href="#m5bde3d028c" x="266.290812" y="305.496774" style="fill-opacity: 0.3"/>
     <use xlink:href="#m5bde3d028c" x="260.851233" y="305.496774" style="fill-opacity: 0.3"/>
     <use xlink:href="#m5bde3d028c" x="251.601913" y="301.23871" style="fill-opacity: 0.3"/>
     <use xlink:href="#m5bde3d028c" x="268.198638" y="301.23871" style="fill-opacity: 0.3"/>
     <use xlink:href="#m5bde3d028c" x="254.23297" y="301.23871" style="fill-opacity: 0.3"/>
     <use xlink:href="#m5bde3d028c" x="251.652843" y="301.23871" style="fill-opacity: 0.3"/>
    </g>
   </g>
   <g id="PathCollection_3">
    <g clip-path="url(#p8938872ac9)">
     <use xlink:href="#m5bde3d028c" x="366.11758" y="303.367742" style="fill-opacity: 0.3"/>
     <use xlink:href="#m5bde3d028c" x="362.725403" y="303.367742" style="fill-opacity: 0.3"/>
     <use xlink:href="#m5bde3d028c" x="370.463061" y="303.367742" style="fill-opacity: 0.3"/>
     <use xlink:href="#m5bde3d028c" x="377.628918" y="303.367742" style="fill-opacity: 0.3"/>
     <use xlink:href="#m5bde3d028c" x="375.215385" y="311.883871" style="fill-opacity: 0.3"/>
     <use xlink:href="#m5bde3d028c" x="363.016189" y="311.883871" style="fill-opacity: 0.3"/>
     <use xlink:href="#m5bde3d028c" x="373.96362" y="311.883871" style="fill-opacity: 0.3"/>
     <use xlink:href="#m5bde3d028c" x="376.524873" y="303.367742" style="fill-opacity: 0.3"/>
     <use xlink:href="#m5bde3d028c" x="378.263179" y="311.883871" style="fill-opacity: 0.3"/>
     <use xlink:href="#m5bde3d028c" x="362.561721" y="303.367742" style="fill-opacity: 0.3"/>
     <use xlink:href="#m5bde3d028c" x="371.191254" y="311.883871" style="fill-opacity: 0.3"/>
     <use xlink:href="#m5bde3d028c" x="366.936627" y="301.23871" style="fill-opacity: 0.3"/>
     <use xlink:href="#m5bde3d028c" x="367.842513" y="301.23871" style="fill-opacity: 0.3"/>
     <use xlink:href="#m5bde3d028c" x="378.838645" y="301.23871" style="fill-opacity: 0.3"/>
     <use xlink:href="#m5bde3d028c" x="367.020059" y="301.23871" style="fill-opacity: 0.3"/>
     <use xlink:href="#m5bde3d028c" x="369.362663" y="301.23871" style="fill-opacity: 0.3"/>
     <use xlink:href="#m5bde3d028c" x="370.102789" y="301.23871" style="fill-opacity: 0.3"/>
     <use xlink:href="#m5bde3d028c" x="365.135614" y="301.23871" style="fill-opacity: 0.3"/>
     <use xlink:href="#m5bde3d028c" x="373.669052" y="301.23871" style="fill-opacity: 0.3"/>
     <use xlink:href="#m5bde3d028c" x="359.83362" y="301.23871" style="fill-opacity: 0.3"/>
     <use xlink:href="#m5bde3d028c" x="364.451281" y="301.23871" style="fill-opacity: 0.3"/>
     <use xlink:href="#m5bde3d028c" x="379.7477" y="301.23871" style="fill-opacity: 0.3"/>
     <use xlink:href="#m5bde3d028c" x="369.763344" y="301.23871" style="fill-opacity: 0.3"/>
     <use xlink:href="#m5bde3d028c" x="371.49478" y="301.23871" style="fill-opacity: 0.3"/>
     <use xlink:href="#m5bde3d028c" x="362.955043" y="301.23871" style="fill-opacity: 0.3"/>
     <use xlink:href="#m5bde3d028c" x="376.743574" y="301.23871" style="fill-opacity: 0.3"/>
     <use xlink:href="#m5bde3d028c" x="370.393183" y="301.23871" style="fill-opacity: 0.3"/>
     <use xlink:href="#m5bde3d028c" x="376.253532" y="301.23871" style="fill-opacity: 0.3"/>
     <use xlink:href="#m5bde3d028c" x="379.942124" y="301.23871" style="fill-opacity: 0.3"/>
     <use xlink:href="#m5bde3d028c" x="367.26403" y="301.23871" style="fill-opacity: 0.3"/>
     <use xlink:href="#m5bde3d028c" x="364.682726" y="301.23871" style="fill-opacity: 0.3"/>
     <use xlink:href="#m5bde3d028c" x="364.747024" y="301.23871" style="fill-opacity: 0.3"/>
     <use xlink:href="#m5bde3d028c" x="363.744261" y="301.23871" style="fill-opacity: 0.3"/>
     <use xlink:href="#m5bde3d028c" x="372.823373" y="301.23871" style="fill-opacity: 0.3"/>
     <use xlink:href="#m5bde3d028c" x="366.039956" y="305.496774" style="fill-opacity: 0.3"/>
     <use xlink:href="#m5bde3d028c" x="379.979219" y="305.496774" style="fill-opacity: 0.3"/>
     <use xlink:href="#m5bde3d028c" x="358.532885" y="305.496774" style="fill-opacity: 0.3"/>
     <use xlink:href="#m5bde3d028c" x="375.961499" y="305.496774" style="fill-opacity: 0.3"/>
     <use xlink:href="#m5bde3d028c" x="367.839062" y="305.496774" style="fill-opacity: 0.3"/>
     <use xlink:href="#m5bde3d028c" x="360.227304" y="305.496774" style="fill-opacity: 0.3"/>
     <use xlink:href="#m5bde3d028c" x="365.126349" y="301.23871" style="fill-opacity: 0.3"/>
     <use xlink:href="#m5bde3d028c" x="377.482417" y="301.23871" style="fill-opacity: 0.3"/>
    </g>
   </g>
   <g id="PathCollection_4">
    <g clip-path="url(#p8938872ac9)">
     <use xlink:href="#m5bde3d028c" x="471.975058" y="311.883871" style="fill-opacity: 0.3"/>
     <use xlink:href="#m5bde3d028c" x="480.199207" y="303.367742" style="fill-opacity: 0.3"/>
     <use xlink:href="#m5bde3d028c" x="481.746591" y="301.23871" style="fill-opacity: 0.3"/>
     <use xlink:href="#m5bde3d028c" x="471.177673" y="301.23871" style="fill-opacity: 0.3"/>
     <use xlink:href="#m5bde3d028c" x="472.944117" y="301.23871" style="fill-opacity: 0.3"/>
     <use xlink:href="#m5bde3d028c" x="482.007749" y="301.23871" style="fill-opacity: 0.3"/>
     <use xlink:href="#m5bde3d028c" x="480.653421" y="301.23871" style="fill-opacity: 0.3"/>
     <use xlink:href="#m5bde3d028c" x="478.568099" y="305.496774" style="fill-opacity: 0.3"/>
     <use xlink:href="#m5bde3d028c" x="490.698563" y="305.496774" style="fill-opacity: 0.3"/>
     <use xlink:href="#m5bde3d028c" x="490.760636" y="305.496774" style="fill-opacity: 0.3"/>
     <use xlink:href="#m5bde3d028c" x="475.544695" y="305.496774" style="fill-opacity: 0.3"/>
     <use xlink:href="#m5bde3d028c" x="476.700674" y="305.496774" style="fill-opacity: 0.3"/>
     <use xlink:href="#m5bde3d028c" x="485.83837" y="305.496774" style="fill-opacity: 0.3"/>
     <use xlink:href="#m5bde3d028c" x="479.928176" y="305.496774" style="fill-opacity: 0.3"/>
     <use xlink:href="#m5bde3d028c" x="483.728713" y="305.496774" style="fill-opacity: 0.3"/>
     <use xlink:href="#m5bde3d028c" x="471.731884" y="305.496774" style="fill-opacity: 0.3"/>
     <use xlink:href="#m5bde3d028c" x="487.292758" y="305.496774" style="fill-opacity: 0.3"/>
     <use xlink:href="#m5bde3d028c" x="474.549673" y="305.496774" style="fill-opacity: 0.3"/>
     <use xlink:href="#m5bde3d028c" x="483.471567" y="301.23871" style="fill-opacity: 0.3"/>
     <use xlink:href="#m5bde3d028c" x="481.422291" y="301.23871" style="fill-opacity: 0.3"/>
     <use xlink:href="#m5bde3d028c" x="486.860014" y="301.23871" style="fill-opacity: 0.3"/>
     <use xlink:href="#m5bde3d028c" x="477.470379" y="301.23871" style="fill-opacity: 0.3"/>
     <use xlink:href="#m5bde3d028c" x="474.282735" y="301.23871" style="fill-opacity: 0.3"/>
     <use xlink:href="#m5bde3d028c" x="475.716052" y="301.23871" style="fill-opacity: 0.3"/>
     <use xlink:href="#m5bde3d028c" x="471.067333" y="301.23871" style="fill-opacity: 0.3"/>
     <use xlink:href="#m5bde3d028c" x="489.546707" y="301.23871" style="fill-opacity: 0.3"/>
     <use xlink:href="#m5bde3d028c" x="476.077224" y="301.23871" style="fill-opacity: 0.3"/>
    </g>
   </g>
   <g id="legend_1">
    <g id="patch_40">
     <path d="M 97 227.3375 
L 189.573438 227.3375 
Q 191.573438 227.3375 191.573438 225.3375 
L 191.573438 50.2 
Q 191.573438 48.2 189.573438 48.2 
L 97 48.2 
Q 95 48.2 95 50.2 
L 95 225.3375 
Q 95 227.3375 97 227.3375 
z
" style="fill: #ffffff; opacity: 0.8; stroke: #cccccc; stroke-linejoin: miter"/>
    </g>
    <g id="text_15">
     <!-- MRI.field.strength -->
     <g transform="translate(99 59.798437) scale(0.1 -0.1)">
      <defs>
       <path id="DejaVuSans-4d" d="M 628 4666 
L 1569 4666 
L 2759 1491 
L 3956 4666 
L 4897 4666 
L 4897 0 
L 4281 0 
L 4281 4097 
L 3078 897 
L 2444 897 
L 1241 4097 
L 1241 0 
L 628 0 
L 628 4666 
z
" transform="scale(0.015625)"/>
       <path id="DejaVuSans-52" d="M 2841 2188 
Q 3044 2119 3236 1894 
Q 3428 1669 3622 1275 
L 4263 0 
L 3584 0 
L 2988 1197 
Q 2756 1666 2539 1819 
Q 2322 1972 1947 1972 
L 1259 1972 
L 1259 0 
L 628 0 
L 628 4666 
L 2053 4666 
Q 2853 4666 3247 4331 
Q 3641 3997 3641 3322 
Q 3641 2881 3436 2590 
Q 3231 2300 2841 2188 
z
M 1259 4147 
L 1259 2491 
L 2053 2491 
Q 2509 2491 2742 2702 
Q 2975 2913 2975 3322 
Q 2975 3731 2742 3939 
Q 2509 4147 2053 4147 
L 1259 4147 
z
" transform="scale(0.015625)"/>
       <path id="DejaVuSans-49" d="M 628 4666 
L 1259 4666 
L 1259 0 
L 628 0 
L 628 4666 
z
" transform="scale(0.015625)"/>
       <path id="DejaVuSans-2e" d="M 684 794 
L 1344 794 
L 1344 0 
L 684 0 
L 684 794 
z
" transform="scale(0.015625)"/>
       <path id="DejaVuSans-64" d="M 2906 2969 
L 2906 4863 
L 3481 4863 
L 3481 0 
L 2906 0 
L 2906 525 
Q 2725 213 2448 61 
Q 2172 -91 1784 -91 
Q 1150 -91 751 415 
Q 353 922 353 1747 
Q 353 2572 751 3078 
Q 1150 3584 1784 3584 
Q 2172 3584 2448 3432 
Q 2725 3281 2906 2969 
z
M 947 1747 
Q 947 1113 1208 752 
Q 1469 391 1925 391 
Q 2381 391 2643 752 
Q 2906 1113 2906 1747 
Q 2906 2381 2643 2742 
Q 2381 3103 1925 3103 
Q 1469 3103 1208 2742 
Q 947 2381 947 1747 
z
" transform="scale(0.015625)"/>
      </defs>
      <use xlink:href="#DejaVuSans-4d"/>
      <use xlink:href="#DejaVuSans-52" transform="translate(86.279297 0)"/>
      <use xlink:href="#DejaVuSans-49" transform="translate(155.761719 0)"/>
      <use xlink:href="#DejaVuSans-2e" transform="translate(185.253906 0)"/>
      <use xlink:href="#DejaVuSans-66" transform="translate(217.041016 0)"/>
      <use xlink:href="#DejaVuSans-69" transform="translate(252.246094 0)"/>
      <use xlink:href="#DejaVuSans-65" transform="translate(280.029297 0)"/>
      <use xlink:href="#DejaVuSans-6c" transform="translate(341.552734 0)"/>
      <use xlink:href="#DejaVuSans-64" transform="translate(369.335938 0)"/>
      <use xlink:href="#DejaVuSans-2e" transform="translate(432.8125 0)"/>
      <use xlink:href="#DejaVuSans-73" transform="translate(464.599609 0)"/>
      <use xlink:href="#DejaVuSans-74" transform="translate(516.699219 0)"/>
      <use xlink:href="#DejaVuSans-72" transform="translate(555.908203 0)"/>
      <use xlink:href="#DejaVuSans-65" transform="translate(594.771484 0)"/>
      <use xlink:href="#DejaVuSans-6e" transform="translate(656.294922 0)"/>
      <use xlink:href="#DejaVuSans-67" transform="translate(719.673828 0)"/>
      <use xlink:href="#DejaVuSans-74" transform="translate(783.150391 0)"/>
      <use xlink:href="#DejaVuSans-68" transform="translate(822.359375 0)"/>
     </g>
    </g>
    <g id="patch_41">
     <path d="M 118.495313 74.476562 
L 138.495313 74.476562 
L 138.495313 67.476562 
L 118.495313 67.476562 
z
" style="fill: #3274a1"/>
    </g>
    <g id="text_16">
     <!-- f -->
     <g transform="translate(146.495313 74.476562) scale(0.1 -0.1)">
      <use xlink:href="#DejaVuSans-66"/>
     </g>
    </g>
    <g id="patch_42">
     <path d="M 118.495313 89.154688 
L 138.495313 89.154688 
L 138.495313 82.154688 
L 118.495313 82.154688 
z
" style="fill: #e1812c"/>
    </g>
    <g id="text_17">
     <!-- m -->
     <g transform="translate(146.495313 89.154688) scale(0.1 -0.1)">
      <defs>
       <path id="DejaVuSans-6d" d="M 3328 2828 
Q 3544 3216 3844 3400 
Q 4144 3584 4550 3584 
Q 5097 3584 5394 3201 
Q 5691 2819 5691 2113 
L 5691 0 
L 5113 0 
L 5113 2094 
Q 5113 2597 4934 2840 
Q 4756 3084 4391 3084 
Q 3944 3084 3684 2787 
Q 3425 2491 3425 1978 
L 3425 0 
L 2847 0 
L 2847 2094 
Q 2847 2600 2669 2842 
Q 2491 3084 2119 3084 
Q 1678 3084 1418 2786 
Q 1159 2488 1159 1978 
L 1159 0 
L 581 0 
L 581 3500 
L 1159 3500 
L 1159 2956 
Q 1356 3278 1631 3431 
Q 1906 3584 2284 3584 
Q 2666 3584 2933 3390 
Q 3200 3197 3328 2828 
z
" transform="scale(0.015625)"/>
      </defs>
      <use xlink:href="#DejaVuSans-6d"/>
     </g>
    </g>
    <g id="patch_43">
     <path d="M 118.495313 103.832813 
L 138.495313 103.832813 
L 138.495313 96.832813 
L 118.495313 96.832813 
z
" style="fill: #3274a1"/>
    </g>
    <g id="text_18">
     <!-- f -->
     <g transform="translate(146.495313 103.832813) scale(0.1 -0.1)">
      <use xlink:href="#DejaVuSans-66"/>
     </g>
    </g>
    <g id="patch_44">
     <path d="M 118.495313 118.510938 
L 138.495313 118.510938 
L 138.495313 111.510938 
L 118.495313 111.510938 
z
" style="fill: #e1812c"/>
    </g>
    <g id="text_19">
     <!-- m -->
     <g transform="translate(146.495313 118.510938) scale(0.1 -0.1)">
      <use xlink:href="#DejaVuSans-6d"/>
     </g>
    </g>
    <g id="patch_45">
     <path d="M 118.495313 133.189063 
L 138.495313 133.189063 
L 138.495313 126.189063 
L 118.495313 126.189063 
z
" style="fill: #3274a1"/>
    </g>
    <g id="text_20">
     <!-- n -->
     <g transform="translate(146.495313 133.189063) scale(0.1 -0.1)">
      <use xlink:href="#DejaVuSans-6e"/>
     </g>
    </g>
    <g id="patch_46">
     <path d="M 118.495313 147.867188 
L 138.495313 147.867188 
L 138.495313 140.867188 
L 118.495313 140.867188 
z
" style="fill: #e1812c"/>
    </g>
    <g id="text_21">
     <!-- y -->
     <g transform="translate(146.495313 147.867188) scale(0.1 -0.1)">
      <use xlink:href="#DejaVuSans-79"/>
     </g>
    </g>
    <g id="patch_47">
     <path d="M 118.495313 162.545313 
L 138.495313 162.545313 
L 138.495313 155.545313 
L 118.495313 155.545313 
z
" style="fill: #3274a1"/>
    </g>
    <g id="text_22">
     <!-- y -->
     <g transform="translate(146.495313 162.545313) scale(0.1 -0.1)">
      <use xlink:href="#DejaVuSans-79"/>
     </g>
    </g>
    <g id="patch_48">
     <path d="M 118.495313 177.223437 
L 138.495313 177.223437 
L 138.495313 170.223437 
L 118.495313 170.223437 
z
" style="fill: #3274a1"/>
    </g>
    <g id="text_23">
     <!-- long -->
     <g transform="translate(146.495313 177.223437) scale(0.1 -0.1)">
      <use xlink:href="#DejaVuSans-6c"/>
      <use xlink:href="#DejaVuSans-6f" transform="translate(27.783203 0)"/>
      <use xlink:href="#DejaVuSans-6e" transform="translate(88.964844 0)"/>
      <use xlink:href="#DejaVuSans-67" transform="translate(152.34375 0)"/>
     </g>
    </g>
    <g id="patch_49">
     <path d="M 118.495313 191.901563 
L 138.495313 191.901563 
L 138.495313 184.901563 
L 118.495313 184.901563 
z
" style="fill: #3274a1"/>
    </g>
    <g id="text_24">
     <!-- n -->
     <g transform="translate(146.495313 191.901563) scale(0.1 -0.1)">
      <use xlink:href="#DejaVuSans-6e"/>
     </g>
    </g>
    <g id="patch_50">
     <path d="M 118.495313 206.579687 
L 138.495313 206.579687 
L 138.495313 199.579687 
L 118.495313 199.579687 
z
" style="fill: #e1812c"/>
    </g>
    <g id="text_25">
     <!-- y -->
     <g transform="translate(146.495313 206.579687) scale(0.1 -0.1)">
      <use xlink:href="#DejaVuSans-79"/>
     </g>
    </g>
    <g id="patch_51">
     <path d="M 118.495313 221.257812 
L 138.495313 221.257812 
L 138.495313 214.257812 
L 118.495313 214.257812 
z
" style="fill: #e9d4d0"/>
    </g>
    <g id="text_26">
     <!-- 7 -->
     <g transform="translate(146.495313 221.257812) scale(0.1 -0.1)">
      <defs>
       <path id="DejaVuSans-37" d="M 525 4666 
L 3525 4666 
L 3525 4397 
L 1831 0 
L 1172 0 
L 2766 4134 
L 525 4134 
L 525 4666 
z
" transform="scale(0.015625)"/>
      </defs>
      <use xlink:href="#DejaVuSans-37"/>
     </g>
    </g>
   </g>
  </g>
 </g>
 <defs>
  <clipPath id="p8938872ac9">
   <rect x="90" y="43.2" width="558" height="277.2"/>
  </clipPath>
 </defs>
</svg>
