<?xml version="1.0" encoding="utf-8" standalone="no"?>
<!DOCTYPE svg PUBLIC "-//W3C//DTD SVG 1.1//EN"
  "http://www.w3.org/Graphics/SVG/1.1/DTD/svg11.dtd">
<svg xmlns:xlink="http://www.w3.org/1999/xlink" width="720pt" height="360pt" viewBox="0 0 720 360" xmlns="http://www.w3.org/2000/svg" version="1.1">
 <metadata>
  <rdf:RDF xmlns:dc="http://purl.org/dc/elements/1.1/" xmlns:cc="http://creativecommons.org/ns#" xmlns:rdf="http://www.w3.org/1999/02/22-rdf-syntax-ns#">
   <cc:Work>
    <dc:type rdf:resource="http://purl.org/dc/dcmitype/StillImage"/>
    <dc:date>2025-09-09T16:54:32.992298</dc:date>
    <dc:format>image/svg+xml</dc:format>
    <dc:creator>
     <cc:Agent>
      <dc:title>Matplotlib v3.10.3, https://matplotlib.org/</dc:title>
     </cc:Agent>
    </dc:creator>
   </cc:Work>
  </rdf:RDF>
 </metadata>
 <defs>
  <style type="text/css">*{stroke-linejoin: round; stroke-linecap: butt}</style>
 </defs>
 <g id="figure_1">
  <g id="patch_1">
   <path d="M 0 360 
L 720 360 
L 720 0 
L 0 0 
z
" style="fill: #ffffff"/>
  </g>
  <g id="axes_1">
   <g id="patch_2">
    <path d="M 90 320.4 
L 648 320.4 
L 648 43.2 
L 90 43.2 
z
" style="fill: #ffffff"/>
   </g>
   <g id="FillBetweenPolyCollection_1">
    <defs>
     <path id="m59ceb0b6c2" d="M 167.051261 -163.75534 
L 152.448739 -163.75534 
L 151.165155 -165.00558 
L 149.724433 -166.25582 
L 148.121366 -167.50606 
L 146.353435 -168.7563 
L 144.421304 -170.00654 
L 142.32927 -171.256781 
L 140.085644 -172.507021 
L 137.70304 -173.757261 
L 135.198539 -175.007501 
L 132.593716 -176.257741 
L 129.914496 -177.507981 
L 127.190842 -178.758221 
L 124.456261 -180.008461 
L 121.747136 -181.258701 
L 119.101892 -182.508941 
L 116.560022 -183.759182 
L 114.16101 -185.009422 
L 111.943173 -186.259662 
L 109.942487 -187.509902 
L 108.191438 -188.760142 
L 106.717943 -190.010382 
L 105.544404 -191.260622 
L 104.686931 -192.510862 
L 104.154775 -193.761102 
L 103.95 -195.011342 
L 104.067417 -196.261583 
L 104.494774 -197.511823 
L 105.213209 -198.762063 
L 106.19793 -200.012303 
L 107.4191 -201.262543 
L 108.842882 -202.512783 
L 110.432589 -203.763023 
L 112.149887 -205.013263 
L 113.955999 -206.263503 
L 115.812843 -207.513743 
L 117.684071 -208.763983 
L 119.535945 -210.014224 
L 121.338038 -211.264464 
L 123.063727 -212.514704 
L 124.69047 -213.764944 
L 126.199875 -215.015184 
L 127.577572 -216.265424 
L 128.812919 -217.515664 
L 129.898571 -218.765904 
L 130.829958 -220.016144 
L 131.604716 -221.266384 
L 132.222112 -222.516625 
L 132.682509 -223.766865 
L 132.986916 -225.017105 
L 133.136637 -226.267345 
L 133.133065 -227.517585 
L 132.977611 -228.767825 
L 132.671788 -230.018065 
L 132.217426 -231.268305 
L 131.61701 -232.518545 
L 130.874108 -233.768785 
L 129.993857 -235.019025 
L 128.983458 -236.269266 
L 127.852649 -237.519506 
L 126.614115 -238.769746 
L 125.283778 -240.019986 
L 123.880958 -241.270226 
L 122.428362 -242.520466 
L 120.95189 -243.770706 
L 119.480255 -245.020946 
L 118.044424 -246.271186 
L 116.676887 -247.521426 
L 115.410793 -248.771667 
L 114.27899 -250.021907 
L 113.312998 -251.272147 
L 112.541983 -252.522387 
L 111.991759 -253.772627 
L 111.683896 -255.022867 
L 111.634941 -256.273107 
L 111.855826 -257.523347 
L 112.35147 -258.773587 
L 113.120592 -260.023827 
L 114.155767 -261.274068 
L 115.443684 -262.524308 
L 116.96563 -263.774548 
L 118.698141 -265.024788 
L 120.613814 -266.275028 
L 122.682218 -267.525268 
L 124.87088 -268.775508 
L 127.146295 -270.025748 
L 129.474908 -271.275988 
L 131.824044 -272.526228 
L 134.162746 -273.776468 
L 136.462487 -275.026709 
L 138.697751 -276.276949 
L 140.846454 -277.527189 
L 142.89022 -278.777429 
L 144.814504 -280.027669 
L 146.608569 -281.277909 
L 148.265356 -282.528149 
L 149.78123 -283.778389 
L 151.155664 -285.028629 
L 152.390846 -286.278869 
L 153.491265 -287.52911 
L 166.008735 -287.52911 
L 166.008735 -287.52911 
L 167.109154 -286.278869 
L 168.344336 -285.028629 
L 169.71877 -283.778389 
L 171.234644 -282.528149 
L 172.891431 -281.277909 
L 174.685496 -280.027669 
L 176.60978 -278.777429 
L 178.653546 -277.527189 
L 180.802249 -276.276949 
L 183.037513 -275.026709 
L 185.337254 -273.776468 
L 187.675956 -272.526228 
L 190.025092 -271.275988 
L 192.353705 -270.025748 
L 194.62912 -268.775508 
L 196.817782 -267.525268 
L 198.886186 -266.275028 
L 200.801859 -265.024788 
L 202.53437 -263.774548 
L 204.056316 -262.524308 
L 205.344233 -261.274068 
L 206.379408 -260.023827 
L 207.14853 -258.773587 
L 207.644174 -257.523347 
L 207.865059 -256.273107 
L 207.816104 -255.022867 
L 207.508241 -253.772627 
L 206.958017 -252.522387 
L 206.187002 -251.272147 
L 205.22101 -250.021907 
L 204.089207 -248.771667 
L 202.823113 -247.521426 
L 201.455576 -246.271186 
L 200.019745 -245.020946 
L 198.54811 -243.770706 
L 197.071638 -242.520466 
L 195.619042 -241.270226 
L 194.216222 -240.019986 
L 192.885885 -238.769746 
L 191.647351 -237.519506 
L 190.516542 -236.269266 
L 189.506143 -235.019025 
L 188.625892 -233.768785 
L 187.88299 -232.518545 
L 187.282574 -231.268305 
L 186.828212 -230.018065 
L 186.522389 -228.767825 
L 186.366935 -227.517585 
L 186.363363 -226.267345 
L 186.513084 -225.017105 
L 186.817491 -223.766865 
L 187.277888 -222.516625 
L 187.895284 -221.266384 
L 188.670042 -220.016144 
L 189.601429 -218.765904 
L 190.687081 -217.515664 
L 191.922428 -216.265424 
L 193.300125 -215.015184 
L 194.80953 -213.764944 
L 196.436273 -212.514704 
L 198.161962 -211.264464 
L 199.964055 -210.014224 
L 201.815929 -208.763983 
L 203.687157 -207.513743 
L 205.544001 -206.263503 
L 207.350113 -205.013263 
L 209.067411 -203.763023 
L 210.657118 -202.512783 
L 212.0809 -201.262543 
L 213.30207 -200.012303 
L 214.286791 -198.762063 
L 215.005226 -197.511823 
L 215.432583 -196.261583 
L 215.55 -195.011342 
L 215.345225 -193.761102 
L 214.813069 -192.510862 
L 213.955596 -191.260622 
L 212.782057 -190.010382 
L 211.308562 -188.760142 
L 209.557513 -187.509902 
L 207.556827 -186.259662 
L 205.33899 -185.009422 
L 202.939978 -183.759182 
L 200.398108 -182.508941 
L 197.752864 -181.258701 
L 195.043739 -180.008461 
L 192.309158 -178.758221 
L 189.585504 -177.507981 
L 186.906284 -176.257741 
L 184.301461 -175.007501 
L 181.79696 -173.757261 
L 179.414356 -172.507021 
L 177.17073 -171.256781 
L 175.078696 -170.00654 
L 173.146565 -168.7563 
L 171.378634 -167.50606 
L 169.775567 -166.25582 
L 168.334845 -165.00558 
L 167.051261 -163.75534 
z
" style="stroke: #3d3d3d; stroke-width: 1.25"/>
    </defs>
    <g clip-path="url(#pa570472b27)">
     <use xlink:href="#m59ceb0b6c2" x="0" y="360" style="fill: #3274a1; stroke: #3d3d3d; stroke-width: 1.25"/>
    </g>
   </g>
   <g id="FillBetweenPolyCollection_2">
    <defs>
     <path id="mbae2b82645" d="M 299.633812 -69.421356 
L 298.866188 -69.421356 
L 298.739652 -71.618905 
L 298.58609 -73.816453 
L 298.40502 -76.014002 
L 298.197848 -78.21155 
L 297.968245 -80.409098 
L 297.722341 -82.606647 
L 297.468677 -84.804195 
L 297.217861 -87.001743 
L 296.981917 -89.199292 
L 296.773381 -91.39684 
L 296.604218 -93.594388 
L 296.484691 -95.791937 
L 296.422336 -97.989485 
L 296.42117 -100.187033 
L 296.481271 -102.384582 
L 296.598762 -104.58213 
L 296.766227 -106.779678 
L 296.973489 -108.977227 
L 297.208624 -111.174775 
L 297.459097 -113.372324 
L 297.712841 -115.569872 
L 297.959171 -117.76742 
L 298.189443 -119.964969 
L 298.397395 -122.162517 
L 298.579198 -124.360065 
L 298.733237 -126.557614 
L 298.859704 -128.755162 
L 298.960054 -130.95271 
L 299.036406 -133.150259 
L 299.090919 -135.347807 
L 299.125164 -137.545355 
L 299.139505 -139.742904 
L 299.13245 -141.940452 
L 299.09996 -144.138001 
L 299.034707 -146.335549 
L 298.925292 -148.533097 
L 298.755473 -150.730646 
L 298.503536 -152.928194 
L 298.141948 -155.125742 
L 297.637538 -157.323291 
L 296.952445 -159.520839 
L 296.046049 -161.718387 
L 294.878061 -163.915936 
L 293.412766 -166.113484 
L 291.624229 -168.311032 
L 289.502022 -170.508581 
L 287.056779 -172.706129 
L 284.324696 -174.903677 
L 281.370004 -177.101226 
L 278.284552 -179.298774 
L 275.183899 -181.496323 
L 272.199787 -183.693871 
L 269.469453 -185.891419 
L 267.122829 -188.088968 
L 265.269218 -190.286516 
L 263.985271 -192.484064 
L 263.306122 -194.681613 
L 263.221133 -196.879161 
L 263.675059 -199.076709 
L 264.574582 -201.274258 
L 265.799282 -203.471806 
L 267.215344 -205.669354 
L 268.689863 -207.866903 
L 270.103495 -210.064451 
L 271.359578 -212.261999 
L 272.388493 -214.459548 
L 273.146951 -216.657096 
L 273.612863 -218.854645 
L 273.777263 -221.052193 
L 273.635328 -223.249741 
L 273.178685 -225.44729 
L 272.390954 -227.644838 
L 271.247823 -229.842386 
L 269.722045 -232.039935 
L 267.792692 -234.237483 
L 265.45707 -236.435031 
L 262.742962 -238.63258 
L 259.71858 -240.830128 
L 256.497792 -243.027676 
L 253.23884 -245.225225 
L 250.135821 -247.422773 
L 247.403448 -249.620322 
L 245.256856 -251.81787 
L 243.889154 -254.015418 
L 243.45 -256.212967 
L 244.028347 -258.410515 
L 245.641976 -260.608063 
L 248.235285 -262.805612 
L 251.685549 -265.00316 
L 255.816508 -267.200708 
L 260.417128 -269.398257 
L 265.262718 -271.595805 
L 270.135514 -273.793353 
L 274.842184 -275.990902 
L 279.226491 -278.18845 
L 283.176264 -280.385998 
L 286.624755 -282.583547 
L 289.547242 -284.781095 
L 291.954202 -286.978644 
L 306.545798 -286.978644 
L 306.545798 -286.978644 
L 308.952758 -284.781095 
L 311.875245 -282.583547 
L 315.323736 -280.385998 
L 319.273509 -278.18845 
L 323.657816 -275.990902 
L 328.364486 -273.793353 
L 333.237282 -271.595805 
L 338.082872 -269.398257 
L 342.683492 -267.200708 
L 346.814451 -265.00316 
L 350.264715 -262.805612 
L 352.858024 -260.608063 
L 354.471653 -258.410515 
L 355.05 -256.212967 
L 354.610846 -254.015418 
L 353.243144 -251.81787 
L 351.096552 -249.620322 
L 348.364179 -247.422773 
L 345.26116 -245.225225 
L 342.002208 -243.027676 
L 338.78142 -240.830128 
L 335.757038 -238.63258 
L 333.04293 -236.435031 
L 330.707308 -234.237483 
L 328.777955 -232.039935 
L 327.252177 -229.842386 
L 326.109046 -227.644838 
L 325.321315 -225.44729 
L 324.864672 -223.249741 
L 324.722737 -221.052193 
L 324.887137 -218.854645 
L 325.353049 -216.657096 
L 326.111507 -214.459548 
L 327.140422 -212.261999 
L 328.396505 -210.064451 
L 329.810137 -207.866903 
L 331.284656 -205.669354 
L 332.700718 -203.471806 
L 333.925418 -201.274258 
L 334.824941 -199.076709 
L 335.278867 -196.879161 
L 335.193878 -194.681613 
L 334.514729 -192.484064 
L 333.230782 -190.286516 
L 331.377171 -188.088968 
L 329.030547 -185.891419 
L 326.300213 -183.693871 
L 323.316101 -181.496323 
L 320.215448 -179.298774 
L 317.129996 -177.101226 
L 314.175304 -174.903677 
L 311.443221 -172.706129 
L 308.997978 -170.508581 
L 306.875771 -168.311032 
L 305.087234 -166.113484 
L 303.621939 -163.915936 
L 302.453951 -161.718387 
L 301.547555 -159.520839 
L 300.862462 -157.323291 
L 300.358052 -155.125742 
L 299.996464 -152.928194 
L 299.744527 -150.730646 
L 299.574708 -148.533097 
L 299.465293 -146.335549 
L 299.40004 -144.138001 
L 299.36755 -141.940452 
L 299.360495 -139.742904 
L 299.374836 -137.545355 
L 299.409081 -135.347807 
L 299.463594 -133.150259 
L 299.539946 -130.95271 
L 299.640296 -128.755162 
L 299.766763 -126.557614 
L 299.920802 -124.360065 
L 300.102605 -122.162517 
L 300.310557 -119.964969 
L 300.540829 -117.76742 
L 300.787159 -115.569872 
L 301.040903 -113.372324 
L 301.291376 -111.174775 
L 301.526511 -108.977227 
L 301.733773 -106.779678 
L 301.901238 -104.58213 
L 302.018729 -102.384582 
L 302.07883 -100.187033 
L 302.077664 -97.989485 
L 302.015309 -95.791937 
L 301.895782 -93.594388 
L 301.726619 -91.39684 
L 301.518083 -89.199292 
L 301.282139 -87.001743 
L 301.031323 -84.804195 
L 300.777659 -82.606647 
L 300.531755 -80.409098 
L 300.302152 -78.21155 
L 300.09498 -76.014002 
L 299.91391 -73.816453 
L 299.760348 -71.618905 
L 299.633812 -69.421356 
z
" style="stroke: #3d3d3d; stroke-width: 1.25"/>
    </defs>
    <g clip-path="url(#pa570472b27)">
     <use xlink:href="#mbae2b82645" x="0" y="360" style="fill: #e1812c; stroke: #3d3d3d; stroke-width: 1.25"/>
    </g>
   </g>
   <g id="FillBetweenPolyCollection_3">
    <defs>
     <path id="md6e8e34b04" d="M 439.303081 -60.037131 
L 438.196919 -60.037131 
L 438.049145 -62.42426 
L 437.875036 -64.811388 
L 437.673846 -67.198517 
L 437.445988 -69.585646 
L 437.193278 -71.972774 
L 436.919107 -74.359903 
L 436.628527 -76.747032 
L 436.328221 -79.13416 
L 436.026333 -81.521289 
L 435.732161 -83.908418 
L 435.455718 -86.295546 
L 435.207187 -88.682675 
L 434.996308 -91.069804 
L 434.831746 -93.456932 
L 434.720504 -95.844061 
L 434.667422 -98.23119 
L 434.674822 -100.618318 
L 434.742334 -103.005447 
L 434.866907 -105.392576 
L 435.043017 -107.779704 
L 435.263035 -110.166833 
L 435.517723 -112.553962 
L 435.796796 -114.94109 
L 436.089492 -117.328219 
L 436.385097 -119.715348 
L 436.67336 -122.102476 
L 436.94477 -124.489605 
L 437.190669 -126.876734 
L 437.403195 -129.263862 
L 437.575062 -131.650991 
L 437.699225 -134.03812 
L 437.768458 -136.425248 
L 437.774906 -138.812377 
L 437.709686 -141.199506 
L 437.562589 -143.586634 
L 437.321963 -145.973763 
L 436.974839 -148.360892 
L 436.507336 -150.74802 
L 435.90539 -153.135149 
L 435.155799 -155.522278 
L 434.247547 -157.909406 
L 433.173349 -160.296535 
L 431.931282 -162.683664 
L 430.526378 -165.070792 
L 428.971975 -167.457921 
L 427.290653 -169.84505 
L 425.514567 -172.232178 
L 423.685029 -174.619307 
L 421.851251 -177.006436 
L 420.068227 -179.393564 
L 418.393831 -181.780693 
L 416.885295 -184.167822 
L 415.595319 -186.55495 
L 414.568107 -188.942079 
L 413.835678 -191.329208 
L 413.414772 -193.716336 
L 413.304623 -196.103465 
L 413.485827 -198.490594 
L 413.920396 -200.877722 
L 414.553013 -203.264851 
L 415.313405 -205.65198 
L 416.119669 -208.039108 
L 416.882332 -210.426237 
L 417.508927 -212.813366 
L 417.908834 -215.200494 
L 417.998194 -217.587623 
L 417.704685 -219.974752 
L 416.971995 -222.36188 
L 415.763824 -224.749009 
L 414.067216 -227.136138 
L 411.895026 -229.523266 
L 409.287296 -231.910395 
L 406.311311 -234.297524 
L 403.060125 -236.684652 
L 399.649434 -239.071781 
L 396.212745 -241.45891 
L 392.894994 -243.846038 
L 389.844864 -246.233167 
L 387.206307 -248.620296 
L 385.109839 -251.007424 
L 383.664332 -253.394553 
L 382.95 -255.781682 
L 383.013234 -258.16881 
L 383.863774 -260.555939 
L 385.474499 -262.943068 
L 387.783859 -265.330196 
L 390.700697 -267.717325 
L 394.110999 -270.104454 
L 397.885897 -272.491582 
L 401.890205 -274.878711 
L 405.990707 -277.26584 
L 410.063545 -279.652968 
L 414.000165 -282.040097 
L 417.711503 -284.427226 
L 421.130267 -286.814354 
L 424.211407 -289.201483 
L 426.930999 -291.588612 
L 429.283877 -293.97574 
L 431.280449 -296.362869 
L 446.219551 -296.362869 
L 446.219551 -296.362869 
L 448.216123 -293.97574 
L 450.569001 -291.588612 
L 453.288593 -289.201483 
L 456.369733 -286.814354 
L 459.788497 -284.427226 
L 463.499835 -282.040097 
L 467.436455 -279.652968 
L 471.509293 -277.26584 
L 475.609795 -274.878711 
L 479.614103 -272.491582 
L 483.389001 -270.104454 
L 486.799303 -267.717325 
L 489.716141 -265.330196 
L 492.025501 -262.943068 
L 493.636226 -260.555939 
L 494.486766 -258.16881 
L 494.55 -255.781682 
L 493.835668 -253.394553 
L 492.390161 -251.007424 
L 490.293693 -248.620296 
L 487.655136 -246.233167 
L 484.605006 -243.846038 
L 481.287255 -241.45891 
L 477.850566 -239.071781 
L 474.439875 -236.684652 
L 471.188689 -234.297524 
L 468.212704 -231.910395 
L 465.604974 -229.523266 
L 463.432784 -227.136138 
L 461.736176 -224.749009 
L 460.528005 -222.36188 
L 459.795315 -219.974752 
L 459.501806 -217.587623 
L 459.591166 -215.200494 
L 459.991073 -212.813366 
L 460.617668 -210.426237 
L 461.380331 -208.039108 
L 462.186595 -205.65198 
L 462.946987 -203.264851 
L 463.579604 -200.877722 
L 464.014173 -198.490594 
L 464.195377 -196.103465 
L 464.085228 -193.716336 
L 463.664322 -191.329208 
L 462.931893 -188.942079 
L 461.904681 -186.55495 
L 460.614705 -184.167822 
L 459.106169 -181.780693 
L 457.431773 -179.393564 
L 455.648749 -177.006436 
L 453.814971 -174.619307 
L 451.985433 -172.232178 
L 450.209347 -169.84505 
L 448.528025 -167.457921 
L 446.973622 -165.070792 
L 445.568718 -162.683664 
L 444.326651 -160.296535 
L 443.252453 -157.909406 
L 442.344201 -155.522278 
L 441.59461 -153.135149 
L 440.992664 -150.74802 
L 440.525161 -148.360892 
L 440.178037 -145.973763 
L 439.937411 -143.586634 
L 439.790314 -141.199506 
L 439.725094 -138.812377 
L 439.731542 -136.425248 
L 439.800775 -134.03812 
L 439.924938 -131.650991 
L 440.096805 -129.263862 
L 440.309331 -126.876734 
L 440.55523 -124.489605 
L 440.82664 -122.102476 
L 441.114903 -119.715348 
L 441.410508 -117.328219 
L 441.703204 -114.94109 
L 441.982277 -112.553962 
L 442.236965 -110.166833 
L 442.456983 -107.779704 
L 442.633093 -105.392576 
L 442.757666 -103.005447 
L 442.825178 -100.618318 
L 442.832578 -98.23119 
L 442.779496 -95.844061 
L 442.668254 -93.456932 
L 442.503692 -91.069804 
L 442.292813 -88.682675 
L 442.044282 -86.295546 
L 441.767839 -83.908418 
L 441.473667 -81.521289 
L 441.171779 -79.13416 
L 440.871473 -76.747032 
L 440.580893 -74.359903 
L 440.306722 -71.972774 
L 440.054012 -69.585646 
L 439.826154 -67.198517 
L 439.624964 -64.811388 
L 439.450855 -62.42426 
L 439.303081 -60.037131 
z
" style="stroke: #3d3d3d; stroke-width: 1.25"/>
    </defs>
    <g clip-path="url(#pa570472b27)">
     <use xlink:href="#md6e8e34b04" x="0" y="360" style="fill: #3a923a; stroke: #3d3d3d; stroke-width: 1.25"/>
    </g>
   </g>
   <g id="FillBetweenPolyCollection_4">
    <defs>
     <path id="m855faf3f03" d="M 579.655548 -52.2 
L 576.844452 -52.2 
L 576.51414 -54.745455 
L 576.131284 -57.290909 
L 575.694238 -59.836364 
L 575.203107 -62.381818 
L 574.660091 -64.927273 
L 574.069782 -67.472727 
L 573.439348 -70.018182 
L 572.7786 -72.563636 
L 572.099895 -75.109091 
L 571.417866 -77.654545 
L 570.74898 -80.2 
L 570.110933 -82.745455 
L 569.521893 -85.290909 
L 568.999664 -87.836364 
L 568.560787 -90.381818 
L 568.219665 -92.927273 
L 567.987765 -95.472727 
L 567.872956 -98.018182 
L 567.879032 -100.563636 
L 568.005458 -103.109091 
L 568.247366 -105.654545 
L 568.595775 -108.2 
L 569.038038 -110.745455 
L 569.558463 -113.290909 
L 570.13906 -115.836364 
L 570.760349 -118.381818 
L 571.402184 -120.927273 
L 572.044509 -123.472727 
L 572.66803 -126.018182 
L 573.254747 -128.563636 
L 573.788341 -131.109091 
L 574.254424 -133.654545 
L 574.640647 -136.2 
L 574.936715 -138.745455 
L 575.134336 -141.290909 
L 575.227137 -143.836364 
L 575.210593 -146.381818 
L 575.081993 -148.927273 
L 574.840452 -151.472727 
L 574.486988 -154.018182 
L 574.024635 -156.563636 
L 573.458585 -159.109091 
L 572.796305 -161.654545 
L 572.047598 -164.2 
L 571.22456 -166.745455 
L 570.341389 -169.290909 
L 569.414015 -171.836364 
L 568.459531 -174.381818 
L 567.495434 -176.927273 
L 566.538686 -179.472727 
L 565.604641 -182.018182 
L 564.705914 -184.563636 
L 563.851243 -187.109091 
L 563.044461 -189.654545 
L 562.283649 -192.2 
L 561.560564 -194.745455 
L 560.860437 -197.290909 
L 560.162165 -199.836364 
L 559.438981 -202.381818 
L 558.659581 -204.927273 
L 557.789698 -207.472727 
L 556.794087 -210.018182 
L 555.638822 -212.563636 
L 554.29381 -215.109091 
L 552.735378 -217.654545 
L 550.948779 -220.2 
L 548.930444 -222.745455 
L 546.689801 -225.290909 
L 544.250503 -227.836364 
L 541.650899 -230.381818 
L 538.943658 -232.927273 
L 536.194459 -235.472727 
L 533.479764 -238.018182 
L 530.883732 -240.563636 
L 528.494412 -243.109091 
L 526.399437 -245.654545 
L 524.681461 -248.2 
L 523.413672 -250.745455 
L 522.655665 -253.290909 
L 522.45 -255.836364 
L 522.819702 -258.381818 
L 523.76688 -260.927273 
L 525.27259 -263.472727 
L 527.297931 -266.018182 
L 529.786294 -268.563636 
L 532.666574 -271.109091 
L 535.857092 -273.654545 
L 539.269935 -276.2 
L 542.815372 -278.745455 
L 546.40608 -281.290909 
L 549.960866 -283.836364 
L 553.407722 -286.381818 
L 556.686039 -288.927273 
L 559.747951 -291.472727 
L 562.558812 -294.018182 
L 565.096888 -296.563636 
L 567.352394 -299.109091 
L 569.326037 -301.654545 
L 571.027234 -304.2 
L 585.472766 -304.2 
L 585.472766 -304.2 
L 587.173963 -301.654545 
L 589.147606 -299.109091 
L 591.403112 -296.563636 
L 593.941188 -294.018182 
L 596.752049 -291.472727 
L 599.813961 -288.927273 
L 603.092278 -286.381818 
L 606.539134 -283.836364 
L 610.09392 -281.290909 
L 613.684628 -278.745455 
L 617.230065 -276.2 
L 620.642908 -273.654545 
L 623.833426 -271.109091 
L 626.713706 -268.563636 
L 629.202069 -266.018182 
L 631.22741 -263.472727 
L 632.73312 -260.927273 
L 633.680298 -258.381818 
L 634.05 -255.836364 
L 633.844335 -253.290909 
L 633.086328 -250.745455 
L 631.818539 -248.2 
L 630.100563 -245.654545 
L 628.005588 -243.109091 
L 625.616268 -240.563636 
L 623.020236 -238.018182 
L 620.305541 -235.472727 
L 617.556342 -232.927273 
L 614.849101 -230.381818 
L 612.249497 -227.836364 
L 609.810199 -225.290909 
L 607.569556 -222.745455 
L 605.551221 -220.2 
L 603.764622 -217.654545 
L 602.20619 -215.109091 
L 600.861178 -212.563636 
L 599.705913 -210.018182 
L 598.710302 -207.472727 
L 597.840419 -204.927273 
L 597.061019 -202.381818 
L 596.337835 -199.836364 
L 595.639563 -197.290909 
L 594.939436 -194.745455 
L 594.216351 -192.2 
L 593.455539 -189.654545 
L 592.648757 -187.109091 
L 591.794086 -184.563636 
L 590.895359 -182.018182 
L 589.961314 -179.472727 
L 589.004566 -176.927273 
L 588.040469 -174.381818 
L 587.085985 -171.836364 
L 586.158611 -169.290909 
L 585.27544 -166.745455 
L 584.452402 -164.2 
L 583.703695 -161.654545 
L 583.041415 -159.109091 
L 582.475365 -156.563636 
L 582.013012 -154.018182 
L 581.659548 -151.472727 
L 581.418007 -148.927273 
L 581.289407 -146.381818 
L 581.272863 -143.836364 
L 581.365664 -141.290909 
L 581.563285 -138.745455 
L 581.859353 -136.2 
L 582.245576 -133.654545 
L 582.711659 -131.109091 
L 583.245253 -128.563636 
L 583.83197 -126.018182 
L 584.455491 -123.472727 
L 585.097816 -120.927273 
L 585.739651 -118.381818 
L 586.36094 -115.836364 
L 586.941537 -113.290909 
L 587.461962 -110.745455 
L 587.904225 -108.2 
L 588.252634 -105.654545 
L 588.494542 -103.109091 
L 588.620968 -100.563636 
L 588.627044 -98.018182 
L 588.512235 -95.472727 
L 588.280335 -92.927273 
L 587.939213 -90.381818 
L 587.500336 -87.836364 
L 586.978107 -85.290909 
L 586.389067 -82.745455 
L 585.75102 -80.2 
L 585.082134 -77.654545 
L 584.400105 -75.109091 
L 583.7214 -72.563636 
L 583.060652 -70.018182 
L 582.430218 -67.472727 
L 581.839909 -64.927273 
L 581.296893 -62.381818 
L 580.805762 -59.836364 
L 580.368716 -57.290909 
L 579.98586 -54.745455 
L 579.655548 -52.2 
z
" style="stroke: #3d3d3d; stroke-width: 1.25"/>
    </defs>
    <g clip-path="url(#pa570472b27)">
     <use xlink:href="#m855faf3f03" x="0" y="360" style="fill: #c03d3e; stroke: #3d3d3d; stroke-width: 1.25"/>
    </g>
   </g>
   <g id="matplotlib.axis_1">
    <g id="xtick_1">
     <g id="line2d_1">
      <defs>
       <path id="m9220278232" d="M 0 0 
L 0 3.5 
" style="stroke: #000000; stroke-width: 0.8"/>
      </defs>
      <g>
       <use xlink:href="#m9220278232" x="159.75" y="320.4" style="stroke: #000000; stroke-width: 0.8"/>
      </g>
     </g>
     <g id="text_1">
      <!-- No -->
      <g transform="translate(152.95 334.998438) scale(0.1 -0.1)">
       <defs>
        <path id="DejaVuSans-4e" d="M 628 4666 
L 1478 4666 
L 3547 763 
L 3547 4666 
L 4159 4666 
L 4159 0 
L 3309 0 
L 1241 3903 
L 1241 0 
L 628 0 
L 628 4666 
z
" transform="scale(0.015625)"/>
        <path id="DejaVuSans-6f" d="M 1959 3097 
Q 1497 3097 1228 2736 
Q 959 2375 959 1747 
Q 959 1119 1226 758 
Q 1494 397 1959 397 
Q 2419 397 2687 759 
Q 2956 1122 2956 1747 
Q 2956 2369 2687 2733 
Q 2419 3097 1959 3097 
z
M 1959 3584 
Q 2709 3584 3137 3096 
Q 3566 2609 3566 1747 
Q 3566 888 3137 398 
Q 2709 -91 1959 -91 
Q 1206 -91 779 398 
Q 353 888 353 1747 
Q 353 2609 779 3096 
Q 1206 3584 1959 3584 
z
" transform="scale(0.015625)"/>
       </defs>
       <use xlink:href="#DejaVuSans-4e"/>
       <use xlink:href="#DejaVuSans-6f" transform="translate(74.804688 0)"/>
      </g>
     </g>
    </g>
    <g id="xtick_2">
     <g id="line2d_2">
      <g>
       <use xlink:href="#m9220278232" x="299.25" y="320.4" style="stroke: #000000; stroke-width: 0.8"/>
      </g>
     </g>
     <g id="text_2">
      <!-- Specific -->
      <g transform="translate(279.788281 334.998438) scale(0.1 -0.1)">
       <defs>
        <path id="DejaVuSans-53" d="M 3425 4513 
L 3425 3897 
Q 3066 4069 2747 4153 
Q 2428 4238 2131 4238 
Q 1616 4238 1336 4038 
Q 1056 3838 1056 3469 
Q 1056 3159 1242 3001 
Q 1428 2844 1947 2747 
L 2328 2669 
Q 3034 2534 3370 2195 
Q 3706 1856 3706 1288 
Q 3706 609 3251 259 
Q 2797 -91 1919 -91 
Q 1588 -91 1214 -16 
Q 841 59 441 206 
L 441 856 
Q 825 641 1194 531 
Q 1563 422 1919 422 
Q 2459 422 2753 634 
Q 3047 847 3047 1241 
Q 3047 1584 2836 1778 
Q 2625 1972 2144 2069 
L 1759 2144 
Q 1053 2284 737 2584 
Q 422 2884 422 3419 
Q 422 4038 858 4394 
Q 1294 4750 2059 4750 
Q 2388 4750 2728 4690 
Q 3069 4631 3425 4513 
z
" transform="scale(0.015625)"/>
        <path id="DejaVuSans-70" d="M 1159 525 
L 1159 -1331 
L 581 -1331 
L 581 3500 
L 1159 3500 
L 1159 2969 
Q 1341 3281 1617 3432 
Q 1894 3584 2278 3584 
Q 2916 3584 3314 3078 
Q 3713 2572 3713 1747 
Q 3713 922 3314 415 
Q 2916 -91 2278 -91 
Q 1894 -91 1617 61 
Q 1341 213 1159 525 
z
M 3116 1747 
Q 3116 2381 2855 2742 
Q 2594 3103 2138 3103 
Q 1681 3103 1420 2742 
Q 1159 2381 1159 1747 
Q 1159 1113 1420 752 
Q 1681 391 2138 391 
Q 2594 391 2855 752 
Q 3116 1113 3116 1747 
z
" transform="scale(0.015625)"/>
        <path id="DejaVuSans-65" d="M 3597 1894 
L 3597 1613 
L 953 1613 
Q 991 1019 1311 708 
Q 1631 397 2203 397 
Q 2534 397 2845 478 
Q 3156 559 3463 722 
L 3463 178 
Q 3153 47 2828 -22 
Q 2503 -91 2169 -91 
Q 1331 -91 842 396 
Q 353 884 353 1716 
Q 353 2575 817 3079 
Q 1281 3584 2069 3584 
Q 2775 3584 3186 3129 
Q 3597 2675 3597 1894 
z
M 3022 2063 
Q 3016 2534 2758 2815 
Q 2500 3097 2075 3097 
Q 1594 3097 1305 2825 
Q 1016 2553 972 2059 
L 3022 2063 
z
" transform="scale(0.015625)"/>
        <path id="DejaVuSans-63" d="M 3122 3366 
L 3122 2828 
Q 2878 2963 2633 3030 
Q 2388 3097 2138 3097 
Q 1578 3097 1268 2742 
Q 959 2388 959 1747 
Q 959 1106 1268 751 
Q 1578 397 2138 397 
Q 2388 397 2633 464 
Q 2878 531 3122 666 
L 3122 134 
Q 2881 22 2623 -34 
Q 2366 -91 2075 -91 
Q 1284 -91 818 406 
Q 353 903 353 1747 
Q 353 2603 823 3093 
Q 1294 3584 2113 3584 
Q 2378 3584 2631 3529 
Q 2884 3475 3122 3366 
z
" transform="scale(0.015625)"/>
        <path id="DejaVuSans-69" d="M 603 3500 
L 1178 3500 
L 1178 0 
L 603 0 
L 603 3500 
z
M 603 4863 
L 1178 4863 
L 1178 4134 
L 603 4134 
L 603 4863 
z
" transform="scale(0.015625)"/>
        <path id="DejaVuSans-66" d="M 2375 4863 
L 2375 4384 
L 1825 4384 
Q 1516 4384 1395 4259 
Q 1275 4134 1275 3809 
L 1275 3500 
L 2222 3500 
L 2222 3053 
L 1275 3053 
L 1275 0 
L 697 0 
L 697 3053 
L 147 3053 
L 147 3500 
L 697 3500 
L 697 3744 
Q 697 4328 969 4595 
Q 1241 4863 1831 4863 
L 2375 4863 
z
" transform="scale(0.015625)"/>
       </defs>
       <use xlink:href="#DejaVuSans-53"/>
       <use xlink:href="#DejaVuSans-70" transform="translate(63.476562 0)"/>
       <use xlink:href="#DejaVuSans-65" transform="translate(126.953125 0)"/>
       <use xlink:href="#DejaVuSans-63" transform="translate(188.476562 0)"/>
       <use xlink:href="#DejaVuSans-69" transform="translate(243.457031 0)"/>
       <use xlink:href="#DejaVuSans-66" transform="translate(271.240234 0)"/>
       <use xlink:href="#DejaVuSans-69" transform="translate(306.445312 0)"/>
       <use xlink:href="#DejaVuSans-63" transform="translate(334.228516 0)"/>
      </g>
     </g>
    </g>
    <g id="xtick_3">
     <g id="line2d_3">
      <g>
       <use xlink:href="#m9220278232" x="438.75" y="320.4" style="stroke: #000000; stroke-width: 0.8"/>
      </g>
     </g>
     <g id="text_3">
      <!-- Spurious -->
      <g transform="translate(416.955469 334.998438) scale(0.1 -0.1)">
       <defs>
        <path id="DejaVuSans-75" d="M 544 1381 
L 544 3500 
L 1119 3500 
L 1119 1403 
Q 1119 906 1312 657 
Q 1506 409 1894 409 
Q 2359 409 2629 706 
Q 2900 1003 2900 1516 
L 2900 3500 
L 3475 3500 
L 3475 0 
L 2900 0 
L 2900 538 
Q 2691 219 2414 64 
Q 2138 -91 1772 -91 
Q 1169 -91 856 284 
Q 544 659 544 1381 
z
M 1991 3584 
L 1991 3584 
z
" transform="scale(0.015625)"/>
        <path id="DejaVuSans-72" d="M 2631 2963 
Q 2534 3019 2420 3045 
Q 2306 3072 2169 3072 
Q 1681 3072 1420 2755 
Q 1159 2438 1159 1844 
L 1159 0 
L 581 0 
L 581 3500 
L 1159 3500 
L 1159 2956 
Q 1341 3275 1631 3429 
Q 1922 3584 2338 3584 
Q 2397 3584 2469 3576 
Q 2541 3569 2628 3553 
L 2631 2963 
z
" transform="scale(0.015625)"/>
        <path id="DejaVuSans-73" d="M 2834 3397 
L 2834 2853 
Q 2591 2978 2328 3040 
Q 2066 3103 1784 3103 
Q 1356 3103 1142 2972 
Q 928 2841 928 2578 
Q 928 2378 1081 2264 
Q 1234 2150 1697 2047 
L 1894 2003 
Q 2506 1872 2764 1633 
Q 3022 1394 3022 966 
Q 3022 478 2636 193 
Q 2250 -91 1575 -91 
Q 1294 -91 989 -36 
Q 684 19 347 128 
L 347 722 
Q 666 556 975 473 
Q 1284 391 1588 391 
Q 1994 391 2212 530 
Q 2431 669 2431 922 
Q 2431 1156 2273 1281 
Q 2116 1406 1581 1522 
L 1381 1569 
Q 847 1681 609 1914 
Q 372 2147 372 2553 
Q 372 3047 722 3315 
Q 1072 3584 1716 3584 
Q 2034 3584 2315 3537 
Q 2597 3491 2834 3397 
z
" transform="scale(0.015625)"/>
       </defs>
       <use xlink:href="#DejaVuSans-53"/>
       <use xlink:href="#DejaVuSans-70" transform="translate(63.476562 0)"/>
       <use xlink:href="#DejaVuSans-75" transform="translate(126.953125 0)"/>
       <use xlink:href="#DejaVuSans-72" transform="translate(190.332031 0)"/>
       <use xlink:href="#DejaVuSans-69" transform="translate(231.445312 0)"/>
       <use xlink:href="#DejaVuSans-6f" transform="translate(259.228516 0)"/>
       <use xlink:href="#DejaVuSans-75" transform="translate(320.410156 0)"/>
       <use xlink:href="#DejaVuSans-73" transform="translate(383.789062 0)"/>
      </g>
     </g>
    </g>
    <g id="xtick_4">
     <g id="line2d_4">
      <g>
       <use xlink:href="#m9220278232" x="578.25" y="320.4" style="stroke: #000000; stroke-width: 0.8"/>
      </g>
     </g>
     <g id="text_4">
      <!-- Non-specific -->
      <g transform="translate(547.585156 334.998438) scale(0.1 -0.1)">
       <defs>
        <path id="DejaVuSans-6e" d="M 3513 2113 
L 3513 0 
L 2938 0 
L 2938 2094 
Q 2938 2591 2744 2837 
Q 2550 3084 2163 3084 
Q 1697 3084 1428 2787 
Q 1159 2491 1159 1978 
L 1159 0 
L 581 0 
L 581 3500 
L 1159 3500 
L 1159 2956 
Q 1366 3272 1645 3428 
Q 1925 3584 2291 3584 
Q 2894 3584 3203 3211 
Q 3513 2838 3513 2113 
z
" transform="scale(0.015625)"/>
        <path id="DejaVuSans-2d" d="M 313 2009 
L 1997 2009 
L 1997 1497 
L 313 1497 
L 313 2009 
z
" transform="scale(0.015625)"/>
       </defs>
       <use xlink:href="#DejaVuSans-4e"/>
       <use xlink:href="#DejaVuSans-6f" transform="translate(74.804688 0)"/>
       <use xlink:href="#DejaVuSans-6e" transform="translate(135.986328 0)"/>
       <use xlink:href="#DejaVuSans-2d" transform="translate(199.365234 0)"/>
       <use xlink:href="#DejaVuSans-73" transform="translate(235.449219 0)"/>
       <use xlink:href="#DejaVuSans-70" transform="translate(287.548828 0)"/>
       <use xlink:href="#DejaVuSans-65" transform="translate(351.025391 0)"/>
       <use xlink:href="#DejaVuSans-63" transform="translate(412.548828 0)"/>
       <use xlink:href="#DejaVuSans-69" transform="translate(467.529297 0)"/>
       <use xlink:href="#DejaVuSans-66" transform="translate(495.3125 0)"/>
       <use xlink:href="#DejaVuSans-69" transform="translate(530.517578 0)"/>
       <use xlink:href="#DejaVuSans-63" transform="translate(558.300781 0)"/>
      </g>
     </g>
    </g>
    <g id="text_5">
     <!-- Connectivity category -->
     <g transform="translate(313.98125 348.676562) scale(0.1 -0.1)">
      <defs>
       <path id="DejaVuSans-43" d="M 4122 4306 
L 4122 3641 
Q 3803 3938 3442 4084 
Q 3081 4231 2675 4231 
Q 1875 4231 1450 3742 
Q 1025 3253 1025 2328 
Q 1025 1406 1450 917 
Q 1875 428 2675 428 
Q 3081 428 3442 575 
Q 3803 722 4122 1019 
L 4122 359 
Q 3791 134 3420 21 
Q 3050 -91 2638 -91 
Q 1578 -91 968 557 
Q 359 1206 359 2328 
Q 359 3453 968 4101 
Q 1578 4750 2638 4750 
Q 3056 4750 3426 4639 
Q 3797 4528 4122 4306 
z
" transform="scale(0.015625)"/>
       <path id="DejaVuSans-74" d="M 1172 4494 
L 1172 3500 
L 2356 3500 
L 2356 3053 
L 1172 3053 
L 1172 1153 
Q 1172 725 1289 603 
Q 1406 481 1766 481 
L 2356 481 
L 2356 0 
L 1766 0 
Q 1100 0 847 248 
Q 594 497 594 1153 
L 594 3053 
L 172 3053 
L 172 3500 
L 594 3500 
L 594 4494 
L 1172 4494 
z
" transform="scale(0.015625)"/>
       <path id="DejaVuSans-76" d="M 191 3500 
L 800 3500 
L 1894 563 
L 2988 3500 
L 3597 3500 
L 2284 0 
L 1503 0 
L 191 3500 
z
" transform="scale(0.015625)"/>
       <path id="DejaVuSans-79" d="M 2059 -325 
Q 1816 -950 1584 -1140 
Q 1353 -1331 966 -1331 
L 506 -1331 
L 506 -850 
L 844 -850 
Q 1081 -850 1212 -737 
Q 1344 -625 1503 -206 
L 1606 56 
L 191 3500 
L 800 3500 
L 1894 763 
L 2988 3500 
L 3597 3500 
L 2059 -325 
z
" transform="scale(0.015625)"/>
       <path id="DejaVuSans-20" transform="scale(0.015625)"/>
       <path id="DejaVuSans-61" d="M 2194 1759 
Q 1497 1759 1228 1600 
Q 959 1441 959 1056 
Q 959 750 1161 570 
Q 1363 391 1709 391 
Q 2188 391 2477 730 
Q 2766 1069 2766 1631 
L 2766 1759 
L 2194 1759 
z
M 3341 1997 
L 3341 0 
L 2766 0 
L 2766 531 
Q 2569 213 2275 61 
Q 1981 -91 1556 -91 
Q 1019 -91 701 211 
Q 384 513 384 1019 
Q 384 1609 779 1909 
Q 1175 2209 1959 2209 
L 2766 2209 
L 2766 2266 
Q 2766 2663 2505 2880 
Q 2244 3097 1772 3097 
Q 1472 3097 1187 3025 
Q 903 2953 641 2809 
L 641 3341 
Q 956 3463 1253 3523 
Q 1550 3584 1831 3584 
Q 2591 3584 2966 3190 
Q 3341 2797 3341 1997 
z
" transform="scale(0.015625)"/>
       <path id="DejaVuSans-67" d="M 2906 1791 
Q 2906 2416 2648 2759 
Q 2391 3103 1925 3103 
Q 1463 3103 1205 2759 
Q 947 2416 947 1791 
Q 947 1169 1205 825 
Q 1463 481 1925 481 
Q 2391 481 2648 825 
Q 2906 1169 2906 1791 
z
M 3481 434 
Q 3481 -459 3084 -895 
Q 2688 -1331 1869 -1331 
Q 1566 -1331 1297 -1286 
Q 1028 -1241 775 -1147 
L 775 -588 
Q 1028 -725 1275 -790 
Q 1522 -856 1778 -856 
Q 2344 -856 2625 -561 
Q 2906 -266 2906 331 
L 2906 616 
Q 2728 306 2450 153 
Q 2172 0 1784 0 
Q 1141 0 747 490 
Q 353 981 353 1791 
Q 353 2603 747 3093 
Q 1141 3584 1784 3584 
Q 2172 3584 2450 3431 
Q 2728 3278 2906 2969 
L 2906 3500 
L 3481 3500 
L 3481 434 
z
" transform="scale(0.015625)"/>
      </defs>
      <use xlink:href="#DejaVuSans-43"/>
      <use xlink:href="#DejaVuSans-6f" transform="translate(69.824219 0)"/>
      <use xlink:href="#DejaVuSans-6e" transform="translate(131.005859 0)"/>
      <use xlink:href="#DejaVuSans-6e" transform="translate(194.384766 0)"/>
      <use xlink:href="#DejaVuSans-65" transform="translate(257.763672 0)"/>
      <use xlink:href="#DejaVuSans-63" transform="translate(319.287109 0)"/>
      <use xlink:href="#DejaVuSans-74" transform="translate(374.267578 0)"/>
      <use xlink:href="#DejaVuSans-69" transform="translate(413.476562 0)"/>
      <use xlink:href="#DejaVuSans-76" transform="translate(441.259766 0)"/>
      <use xlink:href="#DejaVuSans-69" transform="translate(500.439453 0)"/>
      <use xlink:href="#DejaVuSans-74" transform="translate(528.222656 0)"/>
      <use xlink:href="#DejaVuSans-79" transform="translate(567.431641 0)"/>
      <use xlink:href="#DejaVuSans-20" transform="translate(626.611328 0)"/>
      <use xlink:href="#DejaVuSans-63" transform="translate(658.398438 0)"/>
      <use xlink:href="#DejaVuSans-61" transform="translate(713.378906 0)"/>
      <use xlink:href="#DejaVuSans-74" transform="translate(774.658203 0)"/>
      <use xlink:href="#DejaVuSans-65" transform="translate(813.867188 0)"/>
      <use xlink:href="#DejaVuSans-67" transform="translate(875.390625 0)"/>
      <use xlink:href="#DejaVuSans-6f" transform="translate(938.867188 0)"/>
      <use xlink:href="#DejaVuSans-72" transform="translate(1000.048828 0)"/>
      <use xlink:href="#DejaVuSans-79" transform="translate(1041.162109 0)"/>
     </g>
    </g>
   </g>
   <g id="matplotlib.axis_2">
    <g id="ytick_1">
     <g id="line2d_5">
      <defs>
       <path id="m5cf646e4f6" d="M 0 0 
L -3.5 0 
" style="stroke: #000000; stroke-width: 0.8"/>
      </defs>
      <g>
       <use xlink:href="#m5cf646e4f6" x="90" y="292.498524" style="stroke: #000000; stroke-width: 0.8"/>
      </g>
     </g>
     <g id="text_6">
      <!-- 3 -->
      <g transform="translate(76.6375 296.297743) scale(0.1 -0.1)">
       <defs>
        <path id="DejaVuSans-33" d="M 2597 2516 
Q 3050 2419 3304 2112 
Q 3559 1806 3559 1356 
Q 3559 666 3084 287 
Q 2609 -91 1734 -91 
Q 1441 -91 1130 -33 
Q 819 25 488 141 
L 488 750 
Q 750 597 1062 519 
Q 1375 441 1716 441 
Q 2309 441 2620 675 
Q 2931 909 2931 1356 
Q 2931 1769 2642 2001 
Q 2353 2234 1838 2234 
L 1294 2234 
L 1294 2753 
L 1863 2753 
Q 2328 2753 2575 2939 
Q 2822 3125 2822 3475 
Q 2822 3834 2567 4026 
Q 2313 4219 1838 4219 
Q 1578 4219 1281 4162 
Q 984 4106 628 3988 
L 628 4550 
Q 988 4650 1302 4700 
Q 1616 4750 1894 4750 
Q 2613 4750 3031 4423 
Q 3450 4097 3450 3541 
Q 3450 3153 3228 2886 
Q 3006 2619 2597 2516 
z
" transform="scale(0.015625)"/>
       </defs>
       <use xlink:href="#DejaVuSans-33"/>
      </g>
     </g>
    </g>
    <g id="ytick_2">
     <g id="line2d_6">
      <g>
       <use xlink:href="#m5cf646e4f6" x="90" y="260.870375" style="stroke: #000000; stroke-width: 0.8"/>
      </g>
     </g>
     <g id="text_7">
      <!-- 4 -->
      <g transform="translate(76.6375 264.669593) scale(0.1 -0.1)">
       <defs>
        <path id="DejaVuSans-34" d="M 2419 4116 
L 825 1625 
L 2419 1625 
L 2419 4116 
z
M 2253 4666 
L 3047 4666 
L 3047 1625 
L 3713 1625 
L 3713 1100 
L 3047 1100 
L 3047 0 
L 2419 0 
L 2419 1100 
L 313 1100 
L 313 1709 
L 2253 4666 
z
" transform="scale(0.015625)"/>
       </defs>
       <use xlink:href="#DejaVuSans-34"/>
      </g>
     </g>
    </g>
    <g id="ytick_3">
     <g id="line2d_7">
      <g>
       <use xlink:href="#m5cf646e4f6" x="90" y="229.242225" style="stroke: #000000; stroke-width: 0.8"/>
      </g>
     </g>
     <g id="text_8">
      <!-- 5 -->
      <g transform="translate(76.6375 233.041444) scale(0.1 -0.1)">
       <defs>
        <path id="DejaVuSans-35" d="M 691 4666 
L 3169 4666 
L 3169 4134 
L 1269 4134 
L 1269 2991 
Q 1406 3038 1543 3061 
Q 1681 3084 1819 3084 
Q 2600 3084 3056 2656 
Q 3513 2228 3513 1497 
Q 3513 744 3044 326 
Q 2575 -91 1722 -91 
Q 1428 -91 1123 -41 
Q 819 9 494 109 
L 494 744 
Q 775 591 1075 516 
Q 1375 441 1709 441 
Q 2250 441 2565 725 
Q 2881 1009 2881 1497 
Q 2881 1984 2565 2268 
Q 2250 2553 1709 2553 
Q 1456 2553 1204 2497 
Q 953 2441 691 2322 
L 691 4666 
z
" transform="scale(0.015625)"/>
       </defs>
       <use xlink:href="#DejaVuSans-35"/>
      </g>
     </g>
    </g>
    <g id="ytick_4">
     <g id="line2d_8">
      <g>
       <use xlink:href="#m5cf646e4f6" x="90" y="197.614075" style="stroke: #000000; stroke-width: 0.8"/>
      </g>
     </g>
     <g id="text_9">
      <!-- 6 -->
      <g transform="translate(76.6375 201.413294) scale(0.1 -0.1)">
       <defs>
        <path id="DejaVuSans-36" d="M 2113 2584 
Q 1688 2584 1439 2293 
Q 1191 2003 1191 1497 
Q 1191 994 1439 701 
Q 1688 409 2113 409 
Q 2538 409 2786 701 
Q 3034 994 3034 1497 
Q 3034 2003 2786 2293 
Q 2538 2584 2113 2584 
z
M 3366 4563 
L 3366 3988 
Q 3128 4100 2886 4159 
Q 2644 4219 2406 4219 
Q 1781 4219 1451 3797 
Q 1122 3375 1075 2522 
Q 1259 2794 1537 2939 
Q 1816 3084 2150 3084 
Q 2853 3084 3261 2657 
Q 3669 2231 3669 1497 
Q 3669 778 3244 343 
Q 2819 -91 2113 -91 
Q 1303 -91 875 529 
Q 447 1150 447 2328 
Q 447 3434 972 4092 
Q 1497 4750 2381 4750 
Q 2619 4750 2861 4703 
Q 3103 4656 3366 4563 
z
" transform="scale(0.015625)"/>
       </defs>
       <use xlink:href="#DejaVuSans-36"/>
      </g>
     </g>
    </g>
    <g id="ytick_5">
     <g id="line2d_9">
      <g>
       <use xlink:href="#m5cf646e4f6" x="90" y="165.985925" style="stroke: #000000; stroke-width: 0.8"/>
      </g>
     </g>
     <g id="text_10">
      <!-- 7 -->
      <g transform="translate(76.6375 169.785144) scale(0.1 -0.1)">
       <defs>
        <path id="DejaVuSans-37" d="M 525 4666 
L 3525 4666 
L 3525 4397 
L 1831 0 
L 1172 0 
L 2766 4134 
L 525 4134 
L 525 4666 
z
" transform="scale(0.015625)"/>
       </defs>
       <use xlink:href="#DejaVuSans-37"/>
      </g>
     </g>
    </g>
    <g id="ytick_6">
     <g id="line2d_10">
      <g>
       <use xlink:href="#m5cf646e4f6" x="90" y="134.357775" style="stroke: #000000; stroke-width: 0.8"/>
      </g>
     </g>
     <g id="text_11">
      <!-- 8 -->
      <g transform="translate(76.6375 138.156994) scale(0.1 -0.1)">
       <defs>
        <path id="DejaVuSans-38" d="M 2034 2216 
Q 1584 2216 1326 1975 
Q 1069 1734 1069 1313 
Q 1069 891 1326 650 
Q 1584 409 2034 409 
Q 2484 409 2743 651 
Q 3003 894 3003 1313 
Q 3003 1734 2745 1975 
Q 2488 2216 2034 2216 
z
M 1403 2484 
Q 997 2584 770 2862 
Q 544 3141 544 3541 
Q 544 4100 942 4425 
Q 1341 4750 2034 4750 
Q 2731 4750 3128 4425 
Q 3525 4100 3525 3541 
Q 3525 3141 3298 2862 
Q 3072 2584 2669 2484 
Q 3125 2378 3379 2068 
Q 3634 1759 3634 1313 
Q 3634 634 3220 271 
Q 2806 -91 2034 -91 
Q 1263 -91 848 271 
Q 434 634 434 1313 
Q 434 1759 690 2068 
Q 947 2378 1403 2484 
z
M 1172 3481 
Q 1172 3119 1398 2916 
Q 1625 2713 2034 2713 
Q 2441 2713 2670 2916 
Q 2900 3119 2900 3481 
Q 2900 3844 2670 4047 
Q 2441 4250 2034 4250 
Q 1625 4250 1398 4047 
Q 1172 3844 1172 3481 
z
" transform="scale(0.015625)"/>
       </defs>
       <use xlink:href="#DejaVuSans-38"/>
      </g>
     </g>
    </g>
    <g id="ytick_7">
     <g id="line2d_11">
      <g>
       <use xlink:href="#m5cf646e4f6" x="90" y="102.729625" style="stroke: #000000; stroke-width: 0.8"/>
      </g>
     </g>
     <g id="text_12">
      <!-- 9 -->
      <g transform="translate(76.6375 106.528844) scale(0.1 -0.1)">
       <defs>
        <path id="DejaVuSans-39" d="M 703 97 
L 703 672 
Q 941 559 1184 500 
Q 1428 441 1663 441 
Q 2288 441 2617 861 
Q 2947 1281 2994 2138 
Q 2813 1869 2534 1725 
Q 2256 1581 1919 1581 
Q 1219 1581 811 2004 
Q 403 2428 403 3163 
Q 403 3881 828 4315 
Q 1253 4750 1959 4750 
Q 2769 4750 3195 4129 
Q 3622 3509 3622 2328 
Q 3622 1225 3098 567 
Q 2575 -91 1691 -91 
Q 1453 -91 1209 -44 
Q 966 3 703 97 
z
M 1959 2075 
Q 2384 2075 2632 2365 
Q 2881 2656 2881 3163 
Q 2881 3666 2632 3958 
Q 2384 4250 1959 4250 
Q 1534 4250 1286 3958 
Q 1038 3666 1038 3163 
Q 1038 2656 1286 2365 
Q 1534 2075 1959 2075 
z
" transform="scale(0.015625)"/>
       </defs>
       <use xlink:href="#DejaVuSans-39"/>
      </g>
     </g>
    </g>
    <g id="ytick_8">
     <g id="line2d_12">
      <g>
       <use xlink:href="#m5cf646e4f6" x="90" y="71.101476" style="stroke: #000000; stroke-width: 0.8"/>
      </g>
     </g>
     <g id="text_13">
      <!-- 10 -->
      <g transform="translate(70.275 74.900694) scale(0.1 -0.1)">
       <defs>
        <path id="DejaVuSans-31" d="M 794 531 
L 1825 531 
L 1825 4091 
L 703 3866 
L 703 4441 
L 1819 4666 
L 2450 4666 
L 2450 531 
L 3481 531 
L 3481 0 
L 794 0 
L 794 531 
z
" transform="scale(0.015625)"/>
        <path id="DejaVuSans-30" d="M 2034 4250 
Q 1547 4250 1301 3770 
Q 1056 3291 1056 2328 
Q 1056 1369 1301 889 
Q 1547 409 2034 409 
Q 2525 409 2770 889 
Q 3016 1369 3016 2328 
Q 3016 3291 2770 3770 
Q 2525 4250 2034 4250 
z
M 2034 4750 
Q 2819 4750 3233 4129 
Q 3647 3509 3647 2328 
Q 3647 1150 3233 529 
Q 2819 -91 2034 -91 
Q 1250 -91 836 529 
Q 422 1150 422 2328 
Q 422 3509 836 4129 
Q 1250 4750 2034 4750 
z
" transform="scale(0.015625)"/>
       </defs>
       <use xlink:href="#DejaVuSans-31"/>
       <use xlink:href="#DejaVuSans-30" transform="translate(63.623047 0)"/>
      </g>
     </g>
    </g>
    <g id="text_14">
     <!-- cont_variable -->
     <g transform="translate(63.917188 215.409375) rotate(-90) scale(0.1 -0.1)">
      <defs>
       <path id="DejaVuSans-5f" d="M 3263 -1063 
L 3263 -1509 
L -63 -1509 
L -63 -1063 
L 3263 -1063 
z
" transform="scale(0.015625)"/>
       <path id="DejaVuSans-62" d="M 3116 1747 
Q 3116 2381 2855 2742 
Q 2594 3103 2138 3103 
Q 1681 3103 1420 2742 
Q 1159 2381 1159 1747 
Q 1159 1113 1420 752 
Q 1681 391 2138 391 
Q 2594 391 2855 752 
Q 3116 1113 3116 1747 
z
M 1159 2969 
Q 1341 3281 1617 3432 
Q 1894 3584 2278 3584 
Q 2916 3584 3314 3078 
Q 3713 2572 3713 1747 
Q 3713 922 3314 415 
Q 2916 -91 2278 -91 
Q 1894 -91 1617 61 
Q 1341 213 1159 525 
L 1159 0 
L 581 0 
L 581 4863 
L 1159 4863 
L 1159 2969 
z
" transform="scale(0.015625)"/>
       <path id="DejaVuSans-6c" d="M 603 4863 
L 1178 4863 
L 1178 0 
L 603 0 
L 603 4863 
z
" transform="scale(0.015625)"/>
      </defs>
      <use xlink:href="#DejaVuSans-63"/>
      <use xlink:href="#DejaVuSans-6f" transform="translate(54.980469 0)"/>
      <use xlink:href="#DejaVuSans-6e" transform="translate(116.162109 0)"/>
      <use xlink:href="#DejaVuSans-74" transform="translate(179.541016 0)"/>
      <use xlink:href="#DejaVuSans-5f" transform="translate(218.75 0)"/>
      <use xlink:href="#DejaVuSans-76" transform="translate(268.75 0)"/>
      <use xlink:href="#DejaVuSans-61" transform="translate(327.929688 0)"/>
      <use xlink:href="#DejaVuSans-72" transform="translate(389.208984 0)"/>
      <use xlink:href="#DejaVuSans-69" transform="translate(430.322266 0)"/>
      <use xlink:href="#DejaVuSans-61" transform="translate(458.105469 0)"/>
      <use xlink:href="#DejaVuSans-62" transform="translate(519.384766 0)"/>
      <use xlink:href="#DejaVuSans-6c" transform="translate(582.861328 0)"/>
      <use xlink:href="#DejaVuSans-65" transform="translate(610.644531 0)"/>
     </g>
    </g>
   </g>
   <g id="patch_3">
    <path d="M 90 320.4 
L 90 43.2 
" style="fill: none; stroke: #000000; stroke-width: 0.8; stroke-linejoin: miter; stroke-linecap: square"/>
   </g>
   <g id="patch_4">
    <path d="M 648 320.4 
L 648 43.2 
" style="fill: none; stroke: #000000; stroke-width: 0.8; stroke-linejoin: miter; stroke-linecap: square"/>
   </g>
   <g id="patch_5">
    <path d="M 90 320.4 
L 648 320.4 
" style="fill: none; stroke: #000000; stroke-width: 0.8; stroke-linejoin: miter; stroke-linecap: square"/>
   </g>
   <g id="patch_6">
    <path d="M 90 43.2 
L 648 43.2 
" style="fill: none; stroke: #000000; stroke-width: 0.8; stroke-linejoin: miter; stroke-linecap: square"/>
   </g>
   <g id="PathCollection_1">
    <defs>
     <path id="m9fcf129b8d" d="M 0 2.5 
C 0.663008 2.5 1.29895 2.236584 1.767767 1.767767 
C 2.236584 1.29895 2.5 0.663008 2.5 0 
C 2.5 -0.663008 2.236584 -1.29895 1.767767 -1.767767 
C 1.29895 -2.236584 0.663008 -2.5 0 -2.5 
C -0.663008 -2.5 -1.29895 -2.236584 -1.767767 -1.767767 
C -2.236584 -1.29895 -2.5 -0.663008 -2.5 0 
C -2.5 0.663008 -2.236584 1.29895 -1.767767 1.767767 
C -1.29895 2.236584 -0.663008 2.5 0 2.5 
z
"/>
    </defs>
    <g clip-path="url(#pa570472b27)">
     <use xlink:href="#m9fcf129b8d" x="168.094809" y="134.357775" style="fill-opacity: 0.3"/>
     <use xlink:href="#m9fcf129b8d" x="157.430376" y="134.357775" style="fill-opacity: 0.3"/>
     <use xlink:href="#m9fcf129b8d" x="161.703139" y="134.357775" style="fill-opacity: 0.3"/>
     <use xlink:href="#m9fcf129b8d" x="151.610411" y="134.357775" style="fill-opacity: 0.3"/>
     <use xlink:href="#m9fcf129b8d" x="152.467058" y="102.729625" style="fill-opacity: 0.3"/>
     <use xlink:href="#m9fcf129b8d" x="158.92089" y="102.729625" style="fill-opacity: 0.3"/>
     <use xlink:href="#m9fcf129b8d" x="173.103828" y="102.729625" style="fill-opacity: 0.3"/>
     <use xlink:href="#m9fcf129b8d" x="171.39743" y="165.985925" style="fill-opacity: 0.3"/>
     <use xlink:href="#m9fcf129b8d" x="157.552459" y="165.985925" style="fill-opacity: 0.3"/>
     <use xlink:href="#m9fcf129b8d" x="155.636359" y="165.985925" style="fill-opacity: 0.3"/>
     <use xlink:href="#m9fcf129b8d" x="148.65742" y="165.985925" style="fill-opacity: 0.3"/>
     <use xlink:href="#m9fcf129b8d" x="165.293205" y="165.985925" style="fill-opacity: 0.3"/>
     <use xlink:href="#m9fcf129b8d" x="156.442891" y="165.985925" style="fill-opacity: 0.3"/>
     <use xlink:href="#m9fcf129b8d" x="162.757695" y="165.985925" style="fill-opacity: 0.3"/>
     <use xlink:href="#m9fcf129b8d" x="166.553874" y="165.985925" style="fill-opacity: 0.3"/>
     <use xlink:href="#m9fcf129b8d" x="169.890865" y="165.985925" style="fill-opacity: 0.3"/>
     <use xlink:href="#m9fcf129b8d" x="153.603339" y="165.985925" style="fill-opacity: 0.3"/>
     <use xlink:href="#m9fcf129b8d" x="163.742646" y="165.985925" style="fill-opacity: 0.3"/>
     <use xlink:href="#m9fcf129b8d" x="165.589823" y="165.985925" style="fill-opacity: 0.3"/>
     <use xlink:href="#m9fcf129b8d" x="166.998365" y="165.985925" style="fill-opacity: 0.3"/>
     <use xlink:href="#m9fcf129b8d" x="158.494444" y="165.985925" style="fill-opacity: 0.3"/>
     <use xlink:href="#m9fcf129b8d" x="159.593538" y="102.729625" style="fill-opacity: 0.3"/>
     <use xlink:href="#m9fcf129b8d" x="158.768524" y="102.729625" style="fill-opacity: 0.3"/>
     <use xlink:href="#m9fcf129b8d" x="172.667316" y="102.729625" style="fill-opacity: 0.3"/>
     <use xlink:href="#m9fcf129b8d" x="156.635837" y="102.729625" style="fill-opacity: 0.3"/>
     <use xlink:href="#m9fcf129b8d" x="157.836591" y="102.729625" style="fill-opacity: 0.3"/>
     <use xlink:href="#m9fcf129b8d" x="170.259521" y="102.729625" style="fill-opacity: 0.3"/>
     <use xlink:href="#m9fcf129b8d" x="148.001325" y="102.729625" style="fill-opacity: 0.3"/>
     <use xlink:href="#m9fcf129b8d" x="160.001556" y="102.729625" style="fill-opacity: 0.3"/>
     <use xlink:href="#m9fcf129b8d" x="150.320047" y="102.729625" style="fill-opacity: 0.3"/>
    </g>
   </g>
   <g id="PathCollection_2">
    <g clip-path="url(#pa570472b27)">
     <use xlink:href="#m9fcf129b8d" x="290.908123" y="134.357775" style="fill-opacity: 0.3"/>
     <use xlink:href="#m9fcf129b8d" x="286.720759" y="134.357775" style="fill-opacity: 0.3"/>
     <use xlink:href="#m9fcf129b8d" x="297.502609" y="134.357775" style="fill-opacity: 0.3"/>
     <use xlink:href="#m9fcf129b8d" x="285.477607" y="134.357775" style="fill-opacity: 0.3"/>
     <use xlink:href="#m9fcf129b8d" x="294.771054" y="134.357775" style="fill-opacity: 0.3"/>
     <use xlink:href="#m9fcf129b8d" x="288.297329" y="134.357775" style="fill-opacity: 0.3"/>
     <use xlink:href="#m9fcf129b8d" x="304.554199" y="134.357775" style="fill-opacity: 0.3"/>
     <use xlink:href="#m9fcf129b8d" x="294.223422" y="134.357775" style="fill-opacity: 0.3"/>
     <use xlink:href="#m9fcf129b8d" x="308.664859" y="134.357775" style="fill-opacity: 0.3"/>
     <use xlink:href="#m9fcf129b8d" x="305.813523" y="260.870375" style="fill-opacity: 0.3"/>
     <use xlink:href="#m9fcf129b8d" x="311.151061" y="260.870375" style="fill-opacity: 0.3"/>
     <use xlink:href="#m9fcf129b8d" x="299.432868" y="134.357775" style="fill-opacity: 0.3"/>
     <use xlink:href="#m9fcf129b8d" x="288.658208" y="134.357775" style="fill-opacity: 0.3"/>
     <use xlink:href="#m9fcf129b8d" x="296.537079" y="134.357775" style="fill-opacity: 0.3"/>
     <use xlink:href="#m9fcf129b8d" x="292.944702" y="102.729625" style="fill-opacity: 0.3"/>
     <use xlink:href="#m9fcf129b8d" x="301.089997" y="102.729625" style="fill-opacity: 0.3"/>
     <use xlink:href="#m9fcf129b8d" x="311.800039" y="102.729625" style="fill-opacity: 0.3"/>
     <use xlink:href="#m9fcf129b8d" x="296.540398" y="102.729625" style="fill-opacity: 0.3"/>
     <use xlink:href="#m9fcf129b8d" x="287.463001" y="102.729625" style="fill-opacity: 0.3"/>
     <use xlink:href="#m9fcf129b8d" x="302.510382" y="102.729625" style="fill-opacity: 0.3"/>
     <use xlink:href="#m9fcf129b8d" x="304.569896" y="102.729625" style="fill-opacity: 0.3"/>
     <use xlink:href="#m9fcf129b8d" x="290.463749" y="102.729625" style="fill-opacity: 0.3"/>
     <use xlink:href="#m9fcf129b8d" x="312.364272" y="102.729625" style="fill-opacity: 0.3"/>
     <use xlink:href="#m9fcf129b8d" x="301.859681" y="102.729625" style="fill-opacity: 0.3"/>
     <use xlink:href="#m9fcf129b8d" x="291.043347" y="102.729625" style="fill-opacity: 0.3"/>
     <use xlink:href="#m9fcf129b8d" x="304.152168" y="102.729625" style="fill-opacity: 0.3"/>
     <use xlink:href="#m9fcf129b8d" x="301.12619" y="102.729625" style="fill-opacity: 0.3"/>
     <use xlink:href="#m9fcf129b8d" x="311.12921" y="102.729625" style="fill-opacity: 0.3"/>
     <use xlink:href="#m9fcf129b8d" x="305.356717" y="102.729625" style="fill-opacity: 0.3"/>
     <use xlink:href="#m9fcf129b8d" x="303.904088" y="102.729625" style="fill-opacity: 0.3"/>
     <use xlink:href="#m9fcf129b8d" x="311.453174" y="102.729625" style="fill-opacity: 0.3"/>
     <use xlink:href="#m9fcf129b8d" x="293.004955" y="102.729625" style="fill-opacity: 0.3"/>
     <use xlink:href="#m9fcf129b8d" x="299.558087" y="102.729625" style="fill-opacity: 0.3"/>
     <use xlink:href="#m9fcf129b8d" x="298.785521" y="102.729625" style="fill-opacity: 0.3"/>
     <use xlink:href="#m9fcf129b8d" x="311.665604" y="102.729625" style="fill-opacity: 0.3"/>
     <use xlink:href="#m9fcf129b8d" x="287.417444" y="102.729625" style="fill-opacity: 0.3"/>
     <use xlink:href="#m9fcf129b8d" x="290.455591" y="102.729625" style="fill-opacity: 0.3"/>
     <use xlink:href="#m9fcf129b8d" x="291.478982" y="102.729625" style="fill-opacity: 0.3"/>
     <use xlink:href="#m9fcf129b8d" x="303.466573" y="102.729625" style="fill-opacity: 0.3"/>
     <use xlink:href="#m9fcf129b8d" x="299.571733" y="102.729625" style="fill-opacity: 0.3"/>
     <use xlink:href="#m9fcf129b8d" x="293.199026" y="102.729625" style="fill-opacity: 0.3"/>
     <use xlink:href="#m9fcf129b8d" x="301.229024" y="102.729625" style="fill-opacity: 0.3"/>
     <use xlink:href="#m9fcf129b8d" x="289.161241" y="102.729625" style="fill-opacity: 0.3"/>
     <use xlink:href="#m9fcf129b8d" x="308.870435" y="102.729625" style="fill-opacity: 0.3"/>
     <use xlink:href="#m9fcf129b8d" x="286.702312" y="102.729625" style="fill-opacity: 0.3"/>
     <use xlink:href="#m9fcf129b8d" x="309.600681" y="102.729625" style="fill-opacity: 0.3"/>
     <use xlink:href="#m9fcf129b8d" x="287.96195" y="102.729625" style="fill-opacity: 0.3"/>
     <use xlink:href="#m9fcf129b8d" x="297.466058" y="102.729625" style="fill-opacity: 0.3"/>
     <use xlink:href="#m9fcf129b8d" x="308.491879" y="165.985925" style="fill-opacity: 0.3"/>
     <use xlink:href="#m9fcf129b8d" x="313.196216" y="165.985925" style="fill-opacity: 0.3"/>
     <use xlink:href="#m9fcf129b8d" x="306.718043" y="165.985925" style="fill-opacity: 0.3"/>
     <use xlink:href="#m9fcf129b8d" x="296.722179" y="165.985925" style="fill-opacity: 0.3"/>
     <use xlink:href="#m9fcf129b8d" x="287.97784" y="165.985925" style="fill-opacity: 0.3"/>
     <use xlink:href="#m9fcf129b8d" x="304.313444" y="165.985925" style="fill-opacity: 0.3"/>
     <use xlink:href="#m9fcf129b8d" x="307.698762" y="165.985925" style="fill-opacity: 0.3"/>
     <use xlink:href="#m9fcf129b8d" x="291.351061" y="165.985925" style="fill-opacity: 0.3"/>
     <use xlink:href="#m9fcf129b8d" x="285.483679" y="165.985925" style="fill-opacity: 0.3"/>
     <use xlink:href="#m9fcf129b8d" x="287.060901" y="165.985925" style="fill-opacity: 0.3"/>
     <use xlink:href="#m9fcf129b8d" x="291.295554" y="165.985925" style="fill-opacity: 0.3"/>
     <use xlink:href="#m9fcf129b8d" x="287.282296" y="165.985925" style="fill-opacity: 0.3"/>
     <use xlink:href="#m9fcf129b8d" x="296.223654" y="165.985925" style="fill-opacity: 0.3"/>
     <use xlink:href="#m9fcf129b8d" x="299.83333" y="165.985925" style="fill-opacity: 0.3"/>
     <use xlink:href="#m9fcf129b8d" x="292.132615" y="165.985925" style="fill-opacity: 0.3"/>
     <use xlink:href="#m9fcf129b8d" x="295.892019" y="165.985925" style="fill-opacity: 0.3"/>
     <use xlink:href="#m9fcf129b8d" x="309.122577" y="165.985925" style="fill-opacity: 0.3"/>
     <use xlink:href="#m9fcf129b8d" x="294.363155" y="165.985925" style="fill-opacity: 0.3"/>
     <use xlink:href="#m9fcf129b8d" x="292.800617" y="165.985925" style="fill-opacity: 0.3"/>
     <use xlink:href="#m9fcf129b8d" x="290.063189" y="165.985925" style="fill-opacity: 0.3"/>
     <use xlink:href="#m9fcf129b8d" x="291.465249" y="165.985925" style="fill-opacity: 0.3"/>
     <use xlink:href="#m9fcf129b8d" x="295.455902" y="165.985925" style="fill-opacity: 0.3"/>
     <use xlink:href="#m9fcf129b8d" x="299.128665" y="165.985925" style="fill-opacity: 0.3"/>
     <use xlink:href="#m9fcf129b8d" x="294.829311" y="165.985925" style="fill-opacity: 0.3"/>
     <use xlink:href="#m9fcf129b8d" x="295.148373" y="102.729625" style="fill-opacity: 0.3"/>
     <use xlink:href="#m9fcf129b8d" x="293.718291" y="102.729625" style="fill-opacity: 0.3"/>
     <use xlink:href="#m9fcf129b8d" x="303.293301" y="102.729625" style="fill-opacity: 0.3"/>
     <use xlink:href="#m9fcf129b8d" x="298.426149" y="102.729625" style="fill-opacity: 0.3"/>
    </g>
   </g>
   <g id="PathCollection_3">
    <g clip-path="url(#pa570472b27)">
     <use xlink:href="#m9fcf129b8d" x="441.890096" y="134.357775" style="fill-opacity: 0.3"/>
     <use xlink:href="#m9fcf129b8d" x="440.327162" y="260.870375" style="fill-opacity: 0.3"/>
     <use xlink:href="#m9fcf129b8d" x="448.251111" y="260.870375" style="fill-opacity: 0.3"/>
     <use xlink:href="#m9fcf129b8d" x="440.097053" y="102.729625" style="fill-opacity: 0.3"/>
     <use xlink:href="#m9fcf129b8d" x="438.774404" y="102.729625" style="fill-opacity: 0.3"/>
     <use xlink:href="#m9fcf129b8d" x="437.834574" y="102.729625" style="fill-opacity: 0.3"/>
     <use xlink:href="#m9fcf129b8d" x="444.377243" y="102.729625" style="fill-opacity: 0.3"/>
     <use xlink:href="#m9fcf129b8d" x="437.084613" y="102.729625" style="fill-opacity: 0.3"/>
     <use xlink:href="#m9fcf129b8d" x="450.683579" y="102.729625" style="fill-opacity: 0.3"/>
     <use xlink:href="#m9fcf129b8d" x="424.89729" y="102.729625" style="fill-opacity: 0.3"/>
     <use xlink:href="#m9fcf129b8d" x="442.04208" y="102.729625" style="fill-opacity: 0.3"/>
     <use xlink:href="#m9fcf129b8d" x="427.224636" y="102.729625" style="fill-opacity: 0.3"/>
     <use xlink:href="#m9fcf129b8d" x="429.758538" y="102.729625" style="fill-opacity: 0.3"/>
     <use xlink:href="#m9fcf129b8d" x="447.589745" y="102.729625" style="fill-opacity: 0.3"/>
     <use xlink:href="#m9fcf129b8d" x="435.634313" y="102.729625" style="fill-opacity: 0.3"/>
     <use xlink:href="#m9fcf129b8d" x="448.945893" y="102.729625" style="fill-opacity: 0.3"/>
     <use xlink:href="#m9fcf129b8d" x="436.449979" y="102.729625" style="fill-opacity: 0.3"/>
     <use xlink:href="#m9fcf129b8d" x="427.184634" y="102.729625" style="fill-opacity: 0.3"/>
     <use xlink:href="#m9fcf129b8d" x="446.003792" y="102.729625" style="fill-opacity: 0.3"/>
     <use xlink:href="#m9fcf129b8d" x="430.640251" y="102.729625" style="fill-opacity: 0.3"/>
     <use xlink:href="#m9fcf129b8d" x="442.71231" y="102.729625" style="fill-opacity: 0.3"/>
     <use xlink:href="#m9fcf129b8d" x="445.763674" y="102.729625" style="fill-opacity: 0.3"/>
     <use xlink:href="#m9fcf129b8d" x="450.802388" y="102.729625" style="fill-opacity: 0.3"/>
     <use xlink:href="#m9fcf129b8d" x="439.649808" y="165.985925" style="fill-opacity: 0.3"/>
     <use xlink:href="#m9fcf129b8d" x="448.132081" y="165.985925" style="fill-opacity: 0.3"/>
     <use xlink:href="#m9fcf129b8d" x="430.013836" y="165.985925" style="fill-opacity: 0.3"/>
     <use xlink:href="#m9fcf129b8d" x="426.310639" y="165.985925" style="fill-opacity: 0.3"/>
     <use xlink:href="#m9fcf129b8d" x="439.898471" y="165.985925" style="fill-opacity: 0.3"/>
     <use xlink:href="#m9fcf129b8d" x="446.984475" y="165.985925" style="fill-opacity: 0.3"/>
     <use xlink:href="#m9fcf129b8d" x="451.152381" y="165.985925" style="fill-opacity: 0.3"/>
     <use xlink:href="#m9fcf129b8d" x="435.352459" y="165.985925" style="fill-opacity: 0.3"/>
     <use xlink:href="#m9fcf129b8d" x="428.244821" y="165.985925" style="fill-opacity: 0.3"/>
     <use xlink:href="#m9fcf129b8d" x="438.566952" y="165.985925" style="fill-opacity: 0.3"/>
     <use xlink:href="#m9fcf129b8d" x="430.158327" y="165.985925" style="fill-opacity: 0.3"/>
     <use xlink:href="#m9fcf129b8d" x="426.584719" y="165.985925" style="fill-opacity: 0.3"/>
     <use xlink:href="#m9fcf129b8d" x="434.823526" y="102.729625" style="fill-opacity: 0.3"/>
     <use xlink:href="#m9fcf129b8d" x="449.529933" y="102.729625" style="fill-opacity: 0.3"/>
     <use xlink:href="#m9fcf129b8d" x="427.657776" y="102.729625" style="fill-opacity: 0.3"/>
     <use xlink:href="#m9fcf129b8d" x="445.345656" y="102.729625" style="fill-opacity: 0.3"/>
     <use xlink:href="#m9fcf129b8d" x="449.023589" y="102.729625" style="fill-opacity: 0.3"/>
     <use xlink:href="#m9fcf129b8d" x="438.988503" y="102.729625" style="fill-opacity: 0.3"/>
     <use xlink:href="#m9fcf129b8d" x="446.721015" y="102.729625" style="fill-opacity: 0.3"/>
    </g>
   </g>
   <g id="PathCollection_4">
    <g clip-path="url(#pa570472b27)">
     <use xlink:href="#m9fcf129b8d" x="578.21345" y="134.357775" style="fill-opacity: 0.3"/>
     <use xlink:href="#m9fcf129b8d" x="572.148213" y="134.357775" style="fill-opacity: 0.3"/>
     <use xlink:href="#m9fcf129b8d" x="580.516746" y="134.357775" style="fill-opacity: 0.3"/>
     <use xlink:href="#m9fcf129b8d" x="591.269058" y="260.870375" style="fill-opacity: 0.3"/>
     <use xlink:href="#m9fcf129b8d" x="587.301771" y="260.870375" style="fill-opacity: 0.3"/>
     <use xlink:href="#m9fcf129b8d" x="582.496207" y="260.870375" style="fill-opacity: 0.3"/>
     <use xlink:href="#m9fcf129b8d" x="576.493115" y="260.870375" style="fill-opacity: 0.3"/>
     <use xlink:href="#m9fcf129b8d" x="580.572084" y="260.870375" style="fill-opacity: 0.3"/>
     <use xlink:href="#m9fcf129b8d" x="582.116054" y="134.357775" style="fill-opacity: 0.3"/>
     <use xlink:href="#m9fcf129b8d" x="587.248867" y="260.870375" style="fill-opacity: 0.3"/>
     <use xlink:href="#m9fcf129b8d" x="580.052198" y="260.870375" style="fill-opacity: 0.3"/>
     <use xlink:href="#m9fcf129b8d" x="568.596097" y="260.870375" style="fill-opacity: 0.3"/>
     <use xlink:href="#m9fcf129b8d" x="568.166854" y="102.729625" style="fill-opacity: 0.3"/>
     <use xlink:href="#m9fcf129b8d" x="567.84823" y="102.729625" style="fill-opacity: 0.3"/>
     <use xlink:href="#m9fcf129b8d" x="571.575307" y="102.729625" style="fill-opacity: 0.3"/>
     <use xlink:href="#m9fcf129b8d" x="579.959173" y="102.729625" style="fill-opacity: 0.3"/>
     <use xlink:href="#m9fcf129b8d" x="565.176019" y="102.729625" style="fill-opacity: 0.3"/>
     <use xlink:href="#m9fcf129b8d" x="592.174433" y="102.729625" style="fill-opacity: 0.3"/>
     <use xlink:href="#m9fcf129b8d" x="587.659255" y="102.729625" style="fill-opacity: 0.3"/>
     <use xlink:href="#m9fcf129b8d" x="587.993805" y="102.729625" style="fill-opacity: 0.3"/>
     <use xlink:href="#m9fcf129b8d" x="591.432361" y="102.729625" style="fill-opacity: 0.3"/>
     <use xlink:href="#m9fcf129b8d" x="573.737257" y="102.729625" style="fill-opacity: 0.3"/>
     <use xlink:href="#m9fcf129b8d" x="566.490451" y="102.729625" style="fill-opacity: 0.3"/>
     <use xlink:href="#m9fcf129b8d" x="589.67771" y="102.729625" style="fill-opacity: 0.3"/>
     <use xlink:href="#m9fcf129b8d" x="578.105964" y="102.729625" style="fill-opacity: 0.3"/>
     <use xlink:href="#m9fcf129b8d" x="572.459615" y="102.729625" style="fill-opacity: 0.3"/>
     <use xlink:href="#m9fcf129b8d" x="578.694043" y="102.729625" style="fill-opacity: 0.3"/>
     <use xlink:href="#m9fcf129b8d" x="584.107057" y="102.729625" style="fill-opacity: 0.3"/>
     <use xlink:href="#m9fcf129b8d" x="565.610903" y="102.729625" style="fill-opacity: 0.3"/>
     <use xlink:href="#m9fcf129b8d" x="585.659394" y="102.729625" style="fill-opacity: 0.3"/>
     <use xlink:href="#m9fcf129b8d" x="581.706107" y="102.729625" style="fill-opacity: 0.3"/>
     <use xlink:href="#m9fcf129b8d" x="588.818482" y="102.729625" style="fill-opacity: 0.3"/>
     <use xlink:href="#m9fcf129b8d" x="590.824858" y="102.729625" style="fill-opacity: 0.3"/>
     <use xlink:href="#m9fcf129b8d" x="575.678895" y="102.729625" style="fill-opacity: 0.3"/>
     <use xlink:href="#m9fcf129b8d" x="588.359789" y="102.729625" style="fill-opacity: 0.3"/>
     <use xlink:href="#m9fcf129b8d" x="581.707157" y="102.729625" style="fill-opacity: 0.3"/>
     <use xlink:href="#m9fcf129b8d" x="566.764815" y="102.729625" style="fill-opacity: 0.3"/>
     <use xlink:href="#m9fcf129b8d" x="572.79791" y="102.729625" style="fill-opacity: 0.3"/>
     <use xlink:href="#m9fcf129b8d" x="575.410775" y="102.729625" style="fill-opacity: 0.3"/>
     <use xlink:href="#m9fcf129b8d" x="571.614442" y="102.729625" style="fill-opacity: 0.3"/>
     <use xlink:href="#m9fcf129b8d" x="568.952387" y="102.729625" style="fill-opacity: 0.3"/>
     <use xlink:href="#m9fcf129b8d" x="567.630455" y="102.729625" style="fill-opacity: 0.3"/>
     <use xlink:href="#m9fcf129b8d" x="591.216327" y="102.729625" style="fill-opacity: 0.3"/>
     <use xlink:href="#m9fcf129b8d" x="576.897517" y="102.729625" style="fill-opacity: 0.3"/>
     <use xlink:href="#m9fcf129b8d" x="566.558558" y="102.729625" style="fill-opacity: 0.3"/>
     <use xlink:href="#m9fcf129b8d" x="568.991714" y="102.729625" style="fill-opacity: 0.3"/>
     <use xlink:href="#m9fcf129b8d" x="588.608398" y="102.729625" style="fill-opacity: 0.3"/>
     <use xlink:href="#m9fcf129b8d" x="582.328081" y="102.729625" style="fill-opacity: 0.3"/>
     <use xlink:href="#m9fcf129b8d" x="580.94983" y="102.729625" style="fill-opacity: 0.3"/>
     <use xlink:href="#m9fcf129b8d" x="588.131386" y="102.729625" style="fill-opacity: 0.3"/>
     <use xlink:href="#m9fcf129b8d" x="590.102998" y="102.729625" style="fill-opacity: 0.3"/>
     <use xlink:href="#m9fcf129b8d" x="588.976764" y="102.729625" style="fill-opacity: 0.3"/>
     <use xlink:href="#m9fcf129b8d" x="573.532111" y="165.985925" style="fill-opacity: 0.3"/>
     <use xlink:href="#m9fcf129b8d" x="584.078179" y="165.985925" style="fill-opacity: 0.3"/>
     <use xlink:href="#m9fcf129b8d" x="584.972861" y="165.985925" style="fill-opacity: 0.3"/>
     <use xlink:href="#m9fcf129b8d" x="575.074214" y="165.985925" style="fill-opacity: 0.3"/>
     <use xlink:href="#m9fcf129b8d" x="566.81662" y="165.985925" style="fill-opacity: 0.3"/>
     <use xlink:href="#m9fcf129b8d" x="578.211468" y="165.985925" style="fill-opacity: 0.3"/>
     <use xlink:href="#m9fcf129b8d" x="574.040186" y="165.985925" style="fill-opacity: 0.3"/>
     <use xlink:href="#m9fcf129b8d" x="581.862154" y="165.985925" style="fill-opacity: 0.3"/>
     <use xlink:href="#m9fcf129b8d" x="573.174434" y="165.985925" style="fill-opacity: 0.3"/>
     <use xlink:href="#m9fcf129b8d" x="565.406095" y="165.985925" style="fill-opacity: 0.3"/>
     <use xlink:href="#m9fcf129b8d" x="583.759978" y="102.729625" style="fill-opacity: 0.3"/>
    </g>
   </g>
  </g>
 </g>
 <defs>
  <clipPath id="pa570472b27">
   <rect x="90" y="43.2" width="558" height="277.2"/>
  </clipPath>
 </defs>
</svg>
