<?xml version="1.0" encoding="utf-8" standalone="no"?>
<!DOCTYPE svg PUBLIC "-//W3C//DTD SVG 1.1//EN"
  "http://www.w3.org/Graphics/SVG/1.1/DTD/svg11.dtd">
<svg xmlns:xlink="http://www.w3.org/1999/xlink" width="720pt" height="360pt" viewBox="0 0 720 360" xmlns="http://www.w3.org/2000/svg" version="1.1">
 <metadata>
  <rdf:RDF xmlns:dc="http://purl.org/dc/elements/1.1/" xmlns:cc="http://creativecommons.org/ns#" xmlns:rdf="http://www.w3.org/1999/02/22-rdf-syntax-ns#">
   <cc:Work>
    <dc:type rdf:resource="http://purl.org/dc/dcmitype/StillImage"/>
    <dc:date>2025-10-21T13:23:23.215953</dc:date>
    <dc:format>image/svg+xml</dc:format>
    <dc:creator>
     <cc:Agent>
      <dc:title>Matplotlib v3.10.3, https://matplotlib.org/</dc:title>
     </cc:Agent>
    </dc:creator>
   </cc:Work>
  </rdf:RDF>
 </metadata>
 <defs>
  <style type="text/css">*{stroke-linejoin: round; stroke-linecap: butt}</style>
 </defs>
 <g id="figure_1">
  <g id="patch_1">
   <path d="M 0 360 
L 720 360 
L 720 0 
L 0 0 
z
" style="fill: #ffffff"/>
  </g>
  <g id="axes_1">
   <g id="patch_2">
    <path d="M 90 320.4 
L 648 320.4 
L 648 43.2 
L 90 43.2 
z
" style="fill: #ffffff"/>
   </g>
   <g id="FillBetweenPolyCollection_1">
    <defs>
     <path id="m8f200a0030" d="M 232.449696 -58.410796 
L 226.550304 -58.410796 
L 225.700367 -60.83078 
L 224.679471 -63.250764 
L 223.476657 -65.670748 
L 222.087378 -68.090732 
L 220.515377 -70.510716 
L 218.774323 -72.9307 
L 216.888959 -75.350684 
L 214.895555 -77.770667 
L 212.841486 -80.190651 
L 210.783801 -82.610635 
L 208.78676 -85.030619 
L 206.91843 -87.450603 
L 205.246523 -89.870587 
L 203.83378 -92.290571 
L 202.7333 -94.710555 
L 201.984206 -97.130539 
L 201.608102 -99.550523 
L 201.60665 -101.970507 
L 201.960563 -104.390491 
L 202.630121 -106.810474 
L 203.557217 -109.230458 
L 204.668759 -111.650442 
L 205.881146 -114.070426 
L 207.105429 -116.49041 
L 208.252726 -118.910394 
L 209.239437 -121.330378 
L 209.99184 -123.750362 
L 210.44972 -126.170346 
L 210.568788 -128.59033 
L 210.321725 -131.010314 
L 209.697859 -133.430298 
L 208.701562 -135.850281 
L 207.349602 -138.270265 
L 205.667765 -140.690249 
L 203.687158 -143.110233 
L 201.440627 -145.530217 
L 198.959752 -147.950201 
L 196.272802 -150.370185 
L 193.403953 -152.790169 
L 190.373904 -155.210153 
L 187.201854 -157.630137 
L 183.908579 -160.050121 
L 180.52016 -162.470105 
L 177.071792 -164.890088 
L 173.610955 -167.310072 
L 170.199329 -169.730056 
L 166.912864 -172.15004 
L 163.839695 -174.570024 
L 161.075812 -176.990008 
L 158.718759 -179.409992 
L 156.859897 -181.829976 
L 155.576025 -184.24996 
L 154.921293 -186.669944 
L 154.920361 -189.089928 
L 155.56362 -191.509912 
L 156.805087 -193.929895 
L 158.563252 -196.349879 
L 160.724799 -198.769863 
L 163.150806 -201.189847 
L 165.684747 -203.609831 
L 168.161479 -206.029815 
L 170.416342 -208.449799 
L 172.293615 -210.869783 
L 173.653763 -213.289767 
L 174.379151 -215.709751 
L 174.378211 -218.129735 
L 173.588219 -220.549719 
L 171.977053 -222.969702 
L 169.544305 -225.389686 
L 166.322046 -227.80967 
L 162.37541 -230.229654 
L 157.802898 -232.649638 
L 152.736107 -235.069622 
L 147.338382 -237.489606 
L 141.801846 -239.90959 
L 136.342274 -242.329574 
L 131.191518 -244.749558 
L 126.587455 -247.169542 
L 122.761868 -249.589526 
L 119.926999 -252.009509 
L 118.261922 -254.429493 
L 117.9 -256.849477 
L 118.9188 -259.269461 
L 121.333601 -261.689445 
L 125.095356 -264.109429 
L 130.093441 -266.529413 
L 136.163042 -268.949397 
L 143.096471 -271.369381 
L 150.657322 -273.789365 
L 158.596063 -276.209349 
L 166.66561 -278.629333 
L 174.635491 -281.049316 
L 182.303479 -283.4693 
L 189.503933 -285.889284 
L 196.112519 -288.309268 
L 202.047349 -290.729252 
L 207.266977 -293.149236 
L 211.765902 -295.56922 
L 215.568379 -297.989204 
L 243.431621 -297.989204 
L 243.431621 -297.989204 
L 247.234098 -295.56922 
L 251.733023 -293.149236 
L 256.952651 -290.729252 
L 262.887481 -288.309268 
L 269.496067 -285.889284 
L 276.696521 -283.4693 
L 284.364509 -281.049316 
L 292.33439 -278.629333 
L 300.403937 -276.209349 
L 308.342678 -273.789365 
L 315.903529 -271.369381 
L 322.836958 -268.949397 
L 328.906559 -266.529413 
L 333.904644 -264.109429 
L 337.666399 -261.689445 
L 340.0812 -259.269461 
L 341.1 -256.849477 
L 340.738078 -254.429493 
L 339.073001 -252.009509 
L 336.238132 -249.589526 
L 332.412545 -247.169542 
L 327.808482 -244.749558 
L 322.657726 -242.329574 
L 317.198154 -239.90959 
L 311.661618 -237.489606 
L 306.263893 -235.069622 
L 301.197102 -232.649638 
L 296.62459 -230.229654 
L 292.677954 -227.80967 
L 289.455695 -225.389686 
L 287.022947 -222.969702 
L 285.411781 -220.549719 
L 284.621789 -218.129735 
L 284.620849 -215.709751 
L 285.346237 -213.289767 
L 286.706385 -210.869783 
L 288.583658 -208.449799 
L 290.838521 -206.029815 
L 293.315253 -203.609831 
L 295.849194 -201.189847 
L 298.275201 -198.769863 
L 300.436748 -196.349879 
L 302.194913 -193.929895 
L 303.43638 -191.509912 
L 304.079639 -189.089928 
L 304.078707 -186.669944 
L 303.423975 -184.24996 
L 302.140103 -181.829976 
L 300.281241 -179.409992 
L 297.924188 -176.990008 
L 295.160305 -174.570024 
L 292.087136 -172.15004 
L 288.800671 -169.730056 
L 285.389045 -167.310072 
L 281.928208 -164.890088 
L 278.47984 -162.470105 
L 275.091421 -160.050121 
L 271.798146 -157.630137 
L 268.626096 -155.210153 
L 265.596047 -152.790169 
L 262.727198 -150.370185 
L 260.040248 -147.950201 
L 257.559373 -145.530217 
L 255.312842 -143.110233 
L 253.332235 -140.690249 
L 251.650398 -138.270265 
L 250.298438 -135.850281 
L 249.302141 -133.430298 
L 248.678275 -131.010314 
L 248.431212 -128.59033 
L 248.55028 -126.170346 
L 249.00816 -123.750362 
L 249.760563 -121.330378 
L 250.747274 -118.910394 
L 251.894571 -116.49041 
L 253.118854 -114.070426 
L 254.331241 -111.650442 
L 255.442783 -109.230458 
L 256.369879 -106.810474 
L 257.039437 -104.390491 
L 257.39335 -101.970507 
L 257.391898 -99.550523 
L 257.015794 -97.130539 
L 256.2667 -94.710555 
L 255.16622 -92.290571 
L 253.753477 -89.870587 
L 252.08157 -87.450603 
L 250.21324 -85.030619 
L 248.216199 -82.610635 
L 246.158514 -80.190651 
L 244.104445 -77.770667 
L 242.111041 -75.350684 
L 240.225677 -72.9307 
L 238.484623 -70.510716 
L 236.912622 -68.090732 
L 235.523343 -65.670748 
L 234.320529 -63.250764 
L 233.299633 -60.83078 
L 232.449696 -58.410796 
z
" style="stroke: #3f3f3f; stroke-width: 1.25"/>
    </defs>
    <g clip-path="url(#pb4e17c1b8a)">
     <use xlink:href="#m8f200a0030" x="0" y="360" style="fill: #3274a1; stroke: #3f3f3f; stroke-width: 1.25"/>
    </g>
   </g>
   <g id="FillBetweenPolyCollection_2">
    <defs>
     <path id="m6cbf2374d1" d="M 512.836991 -52.2 
L 504.163009 -52.2 
L 503.086688 -54.745455 
L 501.827923 -57.290909 
L 500.379442 -59.836364 
L 498.740178 -62.381818 
L 496.916632 -64.927273 
L 494.923985 -67.472727 
L 492.786815 -70.018182 
L 490.539278 -72.563636 
L 488.224646 -75.109091 
L 485.894126 -77.654545 
L 483.604941 -80.2 
L 481.417744 -82.745455 
L 479.393453 -85.290909 
L 477.589725 -87.836364 
L 476.057284 -90.381818 
L 474.836386 -92.927273 
L 473.953712 -95.472727 
L 473.419932 -98.018182 
L 473.228192 -100.563636 
L 473.353647 -103.109091 
L 473.754129 -105.654545 
L 474.37191 -108.2 
L 475.136444 -110.745455 
L 475.967884 -113.290909 
L 476.781112 -115.836364 
L 477.489973 -118.381818 
L 478.011414 -120.927273 
L 478.269227 -123.472727 
L 478.19718 -126.018182 
L 477.741353 -128.563636 
L 476.861603 -131.109091 
L 475.532179 -133.654545 
L 473.741564 -136.2 
L 471.491717 -138.745455 
L 468.796934 -141.290909 
L 465.682536 -143.836364 
L 462.183622 -146.381818 
L 458.344053 -148.927273 
L 454.215776 -151.472727 
L 449.858499 -154.018182 
L 445.339651 -156.563636 
L 440.734461 -159.109091 
L 436.125922 -161.654545 
L 431.604386 -164.2 
L 427.266506 -166.745455 
L 423.213343 -169.290909 
L 419.547479 -171.836364 
L 416.369156 -174.381818 
L 413.771551 -176.927273 
L 411.835465 -179.472727 
L 410.623812 -182.018182 
L 410.176348 -184.563636 
L 410.505154 -187.109091 
L 411.591326 -189.654545 
L 413.383262 -192.2 
L 415.796797 -194.745455 
L 418.717312 -197.290909 
L 422.003757 -199.836364 
L 425.494368 -202.381818 
L 429.013775 -204.927273 
L 432.381046 -207.472727 
L 435.418232 -210.018182 
L 437.958923 -212.563636 
L 439.856395 -215.109091 
L 440.990954 -217.654545 
L 441.276171 -220.2 
L 440.663756 -222.745455 
L 439.146861 -225.290909 
L 436.761685 -227.836364 
L 433.587249 -230.381818 
L 429.743283 -232.927273 
L 425.386193 -235.472727 
L 420.703162 -238.018182 
L 415.904505 -240.563636 
L 411.21453 -243.109091 
L 406.861272 -245.654545 
L 403.06558 -248.2 
L 400.03018 -250.745455 
L 397.929363 -253.290909 
L 396.9 -255.836364 
L 397.034529 -258.381818 
L 398.376445 -260.927273 
L 400.91865 -263.472727 
L 404.604803 -266.018182 
L 409.33356 -268.563636 
L 414.965381 -271.109091 
L 421.331327 -273.654545 
L 428.243173 -276.2 
L 435.504042 -278.745455 
L 442.918771 -281.290909 
L 450.303316 -283.836364 
L 457.492589 -286.381818 
L 464.346351 -288.927273 
L 470.752954 -291.472727 
L 476.63092 -294.018182 
L 481.928544 -296.563636 
L 486.621823 -299.109091 
L 490.711107 -301.654545 
L 494.216917 -304.2 
L 522.783083 -304.2 
L 522.783083 -304.2 
L 526.288893 -301.654545 
L 530.378177 -299.109091 
L 535.071456 -296.563636 
L 540.36908 -294.018182 
L 546.247046 -291.472727 
L 552.653649 -288.927273 
L 559.507411 -286.381818 
L 566.696684 -283.836364 
L 574.081229 -281.290909 
L 581.495958 -278.745455 
L 588.756827 -276.2 
L 595.668673 -273.654545 
L 602.034619 -271.109091 
L 607.66644 -268.563636 
L 612.395197 -266.018182 
L 616.08135 -263.472727 
L 618.623555 -260.927273 
L 619.965471 -258.381818 
L 620.1 -255.836364 
L 619.070637 -253.290909 
L 616.96982 -250.745455 
L 613.93442 -248.2 
L 610.138728 -245.654545 
L 605.78547 -243.109091 
L 601.095495 -240.563636 
L 596.296838 -238.018182 
L 591.613807 -235.472727 
L 587.256717 -232.927273 
L 583.412751 -230.381818 
L 580.238315 -227.836364 
L 577.853139 -225.290909 
L 576.336244 -222.745455 
L 575.723829 -220.2 
L 576.009046 -217.654545 
L 577.143605 -215.109091 
L 579.041077 -212.563636 
L 581.581768 -210.018182 
L 584.618954 -207.472727 
L 587.986225 -204.927273 
L 591.505632 -202.381818 
L 594.996243 -199.836364 
L 598.282688 -197.290909 
L 601.203203 -194.745455 
L 603.616738 -192.2 
L 605.408674 -189.654545 
L 606.494846 -187.109091 
L 606.823652 -184.563636 
L 606.376188 -182.018182 
L 605.164535 -179.472727 
L 603.228449 -176.927273 
L 600.630844 -174.381818 
L 597.452521 -171.836364 
L 593.786657 -169.290909 
L 589.733494 -166.745455 
L 585.395614 -164.2 
L 580.874078 -161.654545 
L 576.265539 -159.109091 
L 571.660349 -156.563636 
L 567.141501 -154.018182 
L 562.784224 -151.472727 
L 558.655947 -148.927273 
L 554.816378 -146.381818 
L 551.317464 -143.836364 
L 548.203066 -141.290909 
L 545.508283 -138.745455 
L 543.258436 -136.2 
L 541.467821 -133.654545 
L 540.138397 -131.109091 
L 539.258647 -128.563636 
L 538.80282 -126.018182 
L 538.730773 -123.472727 
L 538.988586 -120.927273 
L 539.510027 -118.381818 
L 540.218888 -115.836364 
L 541.032116 -113.290909 
L 541.863556 -110.745455 
L 542.62809 -108.2 
L 543.245871 -105.654545 
L 543.646353 -103.109091 
L 543.771808 -100.563636 
L 543.580068 -98.018182 
L 543.046288 -95.472727 
L 542.163614 -92.927273 
L 540.942716 -90.381818 
L 539.410275 -87.836364 
L 537.606547 -85.290909 
L 535.582256 -82.745455 
L 533.395059 -80.2 
L 531.105874 -77.654545 
L 528.775354 -75.109091 
L 526.460722 -72.563636 
L 524.213185 -70.018182 
L 522.076015 -67.472727 
L 520.083368 -64.927273 
L 518.259822 -62.381818 
L 516.620558 -59.836364 
L 515.172077 -57.290909 
L 513.913312 -54.745455 
L 512.836991 -52.2 
z
" style="stroke: #3f3f3f; stroke-width: 1.25"/>
    </defs>
    <g clip-path="url(#pb4e17c1b8a)">
     <use xlink:href="#m6cbf2374d1" x="0" y="360" style="fill: #e1812c; stroke: #3f3f3f; stroke-width: 1.25"/>
    </g>
   </g>
   <g id="matplotlib.axis_1">
    <g id="xtick_1">
     <g id="line2d_1">
      <defs>
       <path id="m9d5f91dbca" d="M 0 0 
L 0 3.5 
" style="stroke: #000000; stroke-width: 0.8"/>
      </defs>
      <g>
       <use xlink:href="#m9d5f91dbca" x="229.5" y="320.4" style="stroke: #000000; stroke-width: 0.8"/>
      </g>
     </g>
     <g id="text_1">
      <!-- other -->
      <g transform="translate(216.179688 334.998438) scale(0.1 -0.1)">
       <defs>
        <path id="DejaVuSans-6f" d="M 1959 3097 
Q 1497 3097 1228 2736 
Q 959 2375 959 1747 
Q 959 1119 1226 758 
Q 1494 397 1959 397 
Q 2419 397 2687 759 
Q 2956 1122 2956 1747 
Q 2956 2369 2687 2733 
Q 2419 3097 1959 3097 
z
M 1959 3584 
Q 2709 3584 3137 3096 
Q 3566 2609 3566 1747 
Q 3566 888 3137 398 
Q 2709 -91 1959 -91 
Q 1206 -91 779 398 
Q 353 888 353 1747 
Q 353 2609 779 3096 
Q 1206 3584 1959 3584 
z
" transform="scale(0.015625)"/>
        <path id="DejaVuSans-74" d="M 1172 4494 
L 1172 3500 
L 2356 3500 
L 2356 3053 
L 1172 3053 
L 1172 1153 
Q 1172 725 1289 603 
Q 1406 481 1766 481 
L 2356 481 
L 2356 0 
L 1766 0 
Q 1100 0 847 248 
Q 594 497 594 1153 
L 594 3053 
L 172 3053 
L 172 3500 
L 594 3500 
L 594 4494 
L 1172 4494 
z
" transform="scale(0.015625)"/>
        <path id="DejaVuSans-68" d="M 3513 2113 
L 3513 0 
L 2938 0 
L 2938 2094 
Q 2938 2591 2744 2837 
Q 2550 3084 2163 3084 
Q 1697 3084 1428 2787 
Q 1159 2491 1159 1978 
L 1159 0 
L 581 0 
L 581 4863 
L 1159 4863 
L 1159 2956 
Q 1366 3272 1645 3428 
Q 1925 3584 2291 3584 
Q 2894 3584 3203 3211 
Q 3513 2838 3513 2113 
z
" transform="scale(0.015625)"/>
        <path id="DejaVuSans-65" d="M 3597 1894 
L 3597 1613 
L 953 1613 
Q 991 1019 1311 708 
Q 1631 397 2203 397 
Q 2534 397 2845 478 
Q 3156 559 3463 722 
L 3463 178 
Q 3153 47 2828 -22 
Q 2503 -91 2169 -91 
Q 1331 -91 842 396 
Q 353 884 353 1716 
Q 353 2575 817 3079 
Q 1281 3584 2069 3584 
Q 2775 3584 3186 3129 
Q 3597 2675 3597 1894 
z
M 3022 2063 
Q 3016 2534 2758 2815 
Q 2500 3097 2075 3097 
Q 1594 3097 1305 2825 
Q 1016 2553 972 2059 
L 3022 2063 
z
" transform="scale(0.015625)"/>
        <path id="DejaVuSans-72" d="M 2631 2963 
Q 2534 3019 2420 3045 
Q 2306 3072 2169 3072 
Q 1681 3072 1420 2755 
Q 1159 2438 1159 1844 
L 1159 0 
L 581 0 
L 581 3500 
L 1159 3500 
L 1159 2956 
Q 1341 3275 1631 3429 
Q 1922 3584 2338 3584 
Q 2397 3584 2469 3576 
Q 2541 3569 2628 3553 
L 2631 2963 
z
" transform="scale(0.015625)"/>
       </defs>
       <use xlink:href="#DejaVuSans-6f"/>
       <use xlink:href="#DejaVuSans-74" transform="translate(61.181641 0)"/>
       <use xlink:href="#DejaVuSans-68" transform="translate(100.390625 0)"/>
       <use xlink:href="#DejaVuSans-65" transform="translate(163.769531 0)"/>
       <use xlink:href="#DejaVuSans-72" transform="translate(225.292969 0)"/>
      </g>
     </g>
    </g>
    <g id="xtick_2">
     <g id="line2d_2">
      <g>
       <use xlink:href="#m9d5f91dbca" x="508.5" y="320.4" style="stroke: #000000; stroke-width: 0.8"/>
      </g>
     </g>
     <g id="text_2">
      <!-- Specific -->
      <g transform="translate(489.038281 334.998438) scale(0.1 -0.1)">
       <defs>
        <path id="DejaVuSans-53" d="M 3425 4513 
L 3425 3897 
Q 3066 4069 2747 4153 
Q 2428 4238 2131 4238 
Q 1616 4238 1336 4038 
Q 1056 3838 1056 3469 
Q 1056 3159 1242 3001 
Q 1428 2844 1947 2747 
L 2328 2669 
Q 3034 2534 3370 2195 
Q 3706 1856 3706 1288 
Q 3706 609 3251 259 
Q 2797 -91 1919 -91 
Q 1588 -91 1214 -16 
Q 841 59 441 206 
L 441 856 
Q 825 641 1194 531 
Q 1563 422 1919 422 
Q 2459 422 2753 634 
Q 3047 847 3047 1241 
Q 3047 1584 2836 1778 
Q 2625 1972 2144 2069 
L 1759 2144 
Q 1053 2284 737 2584 
Q 422 2884 422 3419 
Q 422 4038 858 4394 
Q 1294 4750 2059 4750 
Q 2388 4750 2728 4690 
Q 3069 4631 3425 4513 
z
" transform="scale(0.015625)"/>
        <path id="DejaVuSans-70" d="M 1159 525 
L 1159 -1331 
L 581 -1331 
L 581 3500 
L 1159 3500 
L 1159 2969 
Q 1341 3281 1617 3432 
Q 1894 3584 2278 3584 
Q 2916 3584 3314 3078 
Q 3713 2572 3713 1747 
Q 3713 922 3314 415 
Q 2916 -91 2278 -91 
Q 1894 -91 1617 61 
Q 1341 213 1159 525 
z
M 3116 1747 
Q 3116 2381 2855 2742 
Q 2594 3103 2138 3103 
Q 1681 3103 1420 2742 
Q 1159 2381 1159 1747 
Q 1159 1113 1420 752 
Q 1681 391 2138 391 
Q 2594 391 2855 752 
Q 3116 1113 3116 1747 
z
" transform="scale(0.015625)"/>
        <path id="DejaVuSans-63" d="M 3122 3366 
L 3122 2828 
Q 2878 2963 2633 3030 
Q 2388 3097 2138 3097 
Q 1578 3097 1268 2742 
Q 959 2388 959 1747 
Q 959 1106 1268 751 
Q 1578 397 2138 397 
Q 2388 397 2633 464 
Q 2878 531 3122 666 
L 3122 134 
Q 2881 22 2623 -34 
Q 2366 -91 2075 -91 
Q 1284 -91 818 406 
Q 353 903 353 1747 
Q 353 2603 823 3093 
Q 1294 3584 2113 3584 
Q 2378 3584 2631 3529 
Q 2884 3475 3122 3366 
z
" transform="scale(0.015625)"/>
        <path id="DejaVuSans-69" d="M 603 3500 
L 1178 3500 
L 1178 0 
L 603 0 
L 603 3500 
z
M 603 4863 
L 1178 4863 
L 1178 4134 
L 603 4134 
L 603 4863 
z
" transform="scale(0.015625)"/>
        <path id="DejaVuSans-66" d="M 2375 4863 
L 2375 4384 
L 1825 4384 
Q 1516 4384 1395 4259 
Q 1275 4134 1275 3809 
L 1275 3500 
L 2222 3500 
L 2222 3053 
L 1275 3053 
L 1275 0 
L 697 0 
L 697 3053 
L 147 3053 
L 147 3500 
L 697 3500 
L 697 3744 
Q 697 4328 969 4595 
Q 1241 4863 1831 4863 
L 2375 4863 
z
" transform="scale(0.015625)"/>
       </defs>
       <use xlink:href="#DejaVuSans-53"/>
       <use xlink:href="#DejaVuSans-70" transform="translate(63.476562 0)"/>
       <use xlink:href="#DejaVuSans-65" transform="translate(126.953125 0)"/>
       <use xlink:href="#DejaVuSans-63" transform="translate(188.476562 0)"/>
       <use xlink:href="#DejaVuSans-69" transform="translate(243.457031 0)"/>
       <use xlink:href="#DejaVuSans-66" transform="translate(271.240234 0)"/>
       <use xlink:href="#DejaVuSans-69" transform="translate(306.445312 0)"/>
       <use xlink:href="#DejaVuSans-63" transform="translate(334.228516 0)"/>
      </g>
     </g>
    </g>
    <g id="text_3">
     <!-- Connectivity category -->
     <g transform="translate(313.98125 348.676562) scale(0.1 -0.1)">
      <defs>
       <path id="DejaVuSans-43" d="M 4122 4306 
L 4122 3641 
Q 3803 3938 3442 4084 
Q 3081 4231 2675 4231 
Q 1875 4231 1450 3742 
Q 1025 3253 1025 2328 
Q 1025 1406 1450 917 
Q 1875 428 2675 428 
Q 3081 428 3442 575 
Q 3803 722 4122 1019 
L 4122 359 
Q 3791 134 3420 21 
Q 3050 -91 2638 -91 
Q 1578 -91 968 557 
Q 359 1206 359 2328 
Q 359 3453 968 4101 
Q 1578 4750 2638 4750 
Q 3056 4750 3426 4639 
Q 3797 4528 4122 4306 
z
" transform="scale(0.015625)"/>
       <path id="DejaVuSans-6e" d="M 3513 2113 
L 3513 0 
L 2938 0 
L 2938 2094 
Q 2938 2591 2744 2837 
Q 2550 3084 2163 3084 
Q 1697 3084 1428 2787 
Q 1159 2491 1159 1978 
L 1159 0 
L 581 0 
L 581 3500 
L 1159 3500 
L 1159 2956 
Q 1366 3272 1645 3428 
Q 1925 3584 2291 3584 
Q 2894 3584 3203 3211 
Q 3513 2838 3513 2113 
z
" transform="scale(0.015625)"/>
       <path id="DejaVuSans-76" d="M 191 3500 
L 800 3500 
L 1894 563 
L 2988 3500 
L 3597 3500 
L 2284 0 
L 1503 0 
L 191 3500 
z
" transform="scale(0.015625)"/>
       <path id="DejaVuSans-79" d="M 2059 -325 
Q 1816 -950 1584 -1140 
Q 1353 -1331 966 -1331 
L 506 -1331 
L 506 -850 
L 844 -850 
Q 1081 -850 1212 -737 
Q 1344 -625 1503 -206 
L 1606 56 
L 191 3500 
L 800 3500 
L 1894 763 
L 2988 3500 
L 3597 3500 
L 2059 -325 
z
" transform="scale(0.015625)"/>
       <path id="DejaVuSans-20" transform="scale(0.015625)"/>
       <path id="DejaVuSans-61" d="M 2194 1759 
Q 1497 1759 1228 1600 
Q 959 1441 959 1056 
Q 959 750 1161 570 
Q 1363 391 1709 391 
Q 2188 391 2477 730 
Q 2766 1069 2766 1631 
L 2766 1759 
L 2194 1759 
z
M 3341 1997 
L 3341 0 
L 2766 0 
L 2766 531 
Q 2569 213 2275 61 
Q 1981 -91 1556 -91 
Q 1019 -91 701 211 
Q 384 513 384 1019 
Q 384 1609 779 1909 
Q 1175 2209 1959 2209 
L 2766 2209 
L 2766 2266 
Q 2766 2663 2505 2880 
Q 2244 3097 1772 3097 
Q 1472 3097 1187 3025 
Q 903 2953 641 2809 
L 641 3341 
Q 956 3463 1253 3523 
Q 1550 3584 1831 3584 
Q 2591 3584 2966 3190 
Q 3341 2797 3341 1997 
z
" transform="scale(0.015625)"/>
       <path id="DejaVuSans-67" d="M 2906 1791 
Q 2906 2416 2648 2759 
Q 2391 3103 1925 3103 
Q 1463 3103 1205 2759 
Q 947 2416 947 1791 
Q 947 1169 1205 825 
Q 1463 481 1925 481 
Q 2391 481 2648 825 
Q 2906 1169 2906 1791 
z
M 3481 434 
Q 3481 -459 3084 -895 
Q 2688 -1331 1869 -1331 
Q 1566 -1331 1297 -1286 
Q 1028 -1241 775 -1147 
L 775 -588 
Q 1028 -725 1275 -790 
Q 1522 -856 1778 -856 
Q 2344 -856 2625 -561 
Q 2906 -266 2906 331 
L 2906 616 
Q 2728 306 2450 153 
Q 2172 0 1784 0 
Q 1141 0 747 490 
Q 353 981 353 1791 
Q 353 2603 747 3093 
Q 1141 3584 1784 3584 
Q 2172 3584 2450 3431 
Q 2728 3278 2906 2969 
L 2906 3500 
L 3481 3500 
L 3481 434 
z
" transform="scale(0.015625)"/>
      </defs>
      <use xlink:href="#DejaVuSans-43"/>
      <use xlink:href="#DejaVuSans-6f" transform="translate(69.824219 0)"/>
      <use xlink:href="#DejaVuSans-6e" transform="translate(131.005859 0)"/>
      <use xlink:href="#DejaVuSans-6e" transform="translate(194.384766 0)"/>
      <use xlink:href="#DejaVuSans-65" transform="translate(257.763672 0)"/>
      <use xlink:href="#DejaVuSans-63" transform="translate(319.287109 0)"/>
      <use xlink:href="#DejaVuSans-74" transform="translate(374.267578 0)"/>
      <use xlink:href="#DejaVuSans-69" transform="translate(413.476562 0)"/>
      <use xlink:href="#DejaVuSans-76" transform="translate(441.259766 0)"/>
      <use xlink:href="#DejaVuSans-69" transform="translate(500.439453 0)"/>
      <use xlink:href="#DejaVuSans-74" transform="translate(528.222656 0)"/>
      <use xlink:href="#DejaVuSans-79" transform="translate(567.431641 0)"/>
      <use xlink:href="#DejaVuSans-20" transform="translate(626.611328 0)"/>
      <use xlink:href="#DejaVuSans-63" transform="translate(658.398438 0)"/>
      <use xlink:href="#DejaVuSans-61" transform="translate(713.378906 0)"/>
      <use xlink:href="#DejaVuSans-74" transform="translate(774.658203 0)"/>
      <use xlink:href="#DejaVuSans-65" transform="translate(813.867188 0)"/>
      <use xlink:href="#DejaVuSans-67" transform="translate(875.390625 0)"/>
      <use xlink:href="#DejaVuSans-6f" transform="translate(938.867188 0)"/>
      <use xlink:href="#DejaVuSans-72" transform="translate(1000.048828 0)"/>
      <use xlink:href="#DejaVuSans-79" transform="translate(1041.162109 0)"/>
     </g>
    </g>
   </g>
   <g id="matplotlib.axis_2">
    <g id="ytick_1">
     <g id="line2d_3">
      <defs>
       <path id="m1567b2bf61" d="M 0 0 
L -3.5 0 
" style="stroke: #000000; stroke-width: 0.8"/>
      </defs>
      <g>
       <use xlink:href="#m1567b2bf61" x="90" y="308.165785" style="stroke: #000000; stroke-width: 0.8"/>
      </g>
     </g>
     <g id="text_4">
      <!-- 0 -->
      <g transform="translate(76.6375 311.965004) scale(0.1 -0.1)">
       <defs>
        <path id="DejaVuSans-30" d="M 2034 4250 
Q 1547 4250 1301 3770 
Q 1056 3291 1056 2328 
Q 1056 1369 1301 889 
Q 1547 409 2034 409 
Q 2525 409 2770 889 
Q 3016 1369 3016 2328 
Q 3016 3291 2770 3770 
Q 2525 4250 2034 4250 
z
M 2034 4750 
Q 2819 4750 3233 4129 
Q 3647 3509 3647 2328 
Q 3647 1150 3233 529 
Q 2819 -91 2034 -91 
Q 1250 -91 836 529 
Q 422 1150 422 2328 
Q 422 3509 836 4129 
Q 1250 4750 2034 4750 
z
" transform="scale(0.015625)"/>
       </defs>
       <use xlink:href="#DejaVuSans-30"/>
      </g>
     </g>
    </g>
    <g id="ytick_2">
     <g id="line2d_4">
      <g>
       <use xlink:href="#m1567b2bf61" x="90" y="266.73438" style="stroke: #000000; stroke-width: 0.8"/>
      </g>
     </g>
     <g id="text_5">
      <!-- 100 -->
      <g transform="translate(63.9125 270.533599) scale(0.1 -0.1)">
       <defs>
        <path id="DejaVuSans-31" d="M 794 531 
L 1825 531 
L 1825 4091 
L 703 3866 
L 703 4441 
L 1819 4666 
L 2450 4666 
L 2450 531 
L 3481 531 
L 3481 0 
L 794 0 
L 794 531 
z
" transform="scale(0.015625)"/>
       </defs>
       <use xlink:href="#DejaVuSans-31"/>
       <use xlink:href="#DejaVuSans-30" transform="translate(63.623047 0)"/>
       <use xlink:href="#DejaVuSans-30" transform="translate(127.246094 0)"/>
      </g>
     </g>
    </g>
    <g id="ytick_3">
     <g id="line2d_5">
      <g>
       <use xlink:href="#m1567b2bf61" x="90" y="225.302975" style="stroke: #000000; stroke-width: 0.8"/>
      </g>
     </g>
     <g id="text_6">
      <!-- 200 -->
      <g transform="translate(63.9125 229.102194) scale(0.1 -0.1)">
       <defs>
        <path id="DejaVuSans-32" d="M 1228 531 
L 3431 531 
L 3431 0 
L 469 0 
L 469 531 
Q 828 903 1448 1529 
Q 2069 2156 2228 2338 
Q 2531 2678 2651 2914 
Q 2772 3150 2772 3378 
Q 2772 3750 2511 3984 
Q 2250 4219 1831 4219 
Q 1534 4219 1204 4116 
Q 875 4013 500 3803 
L 500 4441 
Q 881 4594 1212 4672 
Q 1544 4750 1819 4750 
Q 2544 4750 2975 4387 
Q 3406 4025 3406 3419 
Q 3406 3131 3298 2873 
Q 3191 2616 2906 2266 
Q 2828 2175 2409 1742 
Q 1991 1309 1228 531 
z
" transform="scale(0.015625)"/>
       </defs>
       <use xlink:href="#DejaVuSans-32"/>
       <use xlink:href="#DejaVuSans-30" transform="translate(63.623047 0)"/>
       <use xlink:href="#DejaVuSans-30" transform="translate(127.246094 0)"/>
      </g>
     </g>
    </g>
    <g id="ytick_4">
     <g id="line2d_6">
      <g>
       <use xlink:href="#m1567b2bf61" x="90" y="183.87157" style="stroke: #000000; stroke-width: 0.8"/>
      </g>
     </g>
     <g id="text_7">
      <!-- 300 -->
      <g transform="translate(63.9125 187.670789) scale(0.1 -0.1)">
       <defs>
        <path id="DejaVuSans-33" d="M 2597 2516 
Q 3050 2419 3304 2112 
Q 3559 1806 3559 1356 
Q 3559 666 3084 287 
Q 2609 -91 1734 -91 
Q 1441 -91 1130 -33 
Q 819 25 488 141 
L 488 750 
Q 750 597 1062 519 
Q 1375 441 1716 441 
Q 2309 441 2620 675 
Q 2931 909 2931 1356 
Q 2931 1769 2642 2001 
Q 2353 2234 1838 2234 
L 1294 2234 
L 1294 2753 
L 1863 2753 
Q 2328 2753 2575 2939 
Q 2822 3125 2822 3475 
Q 2822 3834 2567 4026 
Q 2313 4219 1838 4219 
Q 1578 4219 1281 4162 
Q 984 4106 628 3988 
L 628 4550 
Q 988 4650 1302 4700 
Q 1616 4750 1894 4750 
Q 2613 4750 3031 4423 
Q 3450 4097 3450 3541 
Q 3450 3153 3228 2886 
Q 3006 2619 2597 2516 
z
" transform="scale(0.015625)"/>
       </defs>
       <use xlink:href="#DejaVuSans-33"/>
       <use xlink:href="#DejaVuSans-30" transform="translate(63.623047 0)"/>
       <use xlink:href="#DejaVuSans-30" transform="translate(127.246094 0)"/>
      </g>
     </g>
    </g>
    <g id="ytick_5">
     <g id="line2d_7">
      <g>
       <use xlink:href="#m1567b2bf61" x="90" y="142.440165" style="stroke: #000000; stroke-width: 0.8"/>
      </g>
     </g>
     <g id="text_8">
      <!-- 400 -->
      <g transform="translate(63.9125 146.239384) scale(0.1 -0.1)">
       <defs>
        <path id="DejaVuSans-34" d="M 2419 4116 
L 825 1625 
L 2419 1625 
L 2419 4116 
z
M 2253 4666 
L 3047 4666 
L 3047 1625 
L 3713 1625 
L 3713 1100 
L 3047 1100 
L 3047 0 
L 2419 0 
L 2419 1100 
L 313 1100 
L 313 1709 
L 2253 4666 
z
" transform="scale(0.015625)"/>
       </defs>
       <use xlink:href="#DejaVuSans-34"/>
       <use xlink:href="#DejaVuSans-30" transform="translate(63.623047 0)"/>
       <use xlink:href="#DejaVuSans-30" transform="translate(127.246094 0)"/>
      </g>
     </g>
    </g>
    <g id="ytick_6">
     <g id="line2d_8">
      <g>
       <use xlink:href="#m1567b2bf61" x="90" y="101.008761" style="stroke: #000000; stroke-width: 0.8"/>
      </g>
     </g>
     <g id="text_9">
      <!-- 500 -->
      <g transform="translate(63.9125 104.807979) scale(0.1 -0.1)">
       <defs>
        <path id="DejaVuSans-35" d="M 691 4666 
L 3169 4666 
L 3169 4134 
L 1269 4134 
L 1269 2991 
Q 1406 3038 1543 3061 
Q 1681 3084 1819 3084 
Q 2600 3084 3056 2656 
Q 3513 2228 3513 1497 
Q 3513 744 3044 326 
Q 2575 -91 1722 -91 
Q 1428 -91 1123 -41 
Q 819 9 494 109 
L 494 744 
Q 775 591 1075 516 
Q 1375 441 1709 441 
Q 2250 441 2565 725 
Q 2881 1009 2881 1497 
Q 2881 1984 2565 2268 
Q 2250 2553 1709 2553 
Q 1456 2553 1204 2497 
Q 953 2441 691 2322 
L 691 4666 
z
" transform="scale(0.015625)"/>
       </defs>
       <use xlink:href="#DejaVuSans-35"/>
       <use xlink:href="#DejaVuSans-30" transform="translate(63.623047 0)"/>
       <use xlink:href="#DejaVuSans-30" transform="translate(127.246094 0)"/>
      </g>
     </g>
    </g>
    <g id="ytick_7">
     <g id="line2d_9">
      <g>
       <use xlink:href="#m1567b2bf61" x="90" y="59.577356" style="stroke: #000000; stroke-width: 0.8"/>
      </g>
     </g>
     <g id="text_10">
      <!-- 600 -->
      <g transform="translate(63.9125 63.376574) scale(0.1 -0.1)">
       <defs>
        <path id="DejaVuSans-36" d="M 2113 2584 
Q 1688 2584 1439 2293 
Q 1191 2003 1191 1497 
Q 1191 994 1439 701 
Q 1688 409 2113 409 
Q 2538 409 2786 701 
Q 3034 994 3034 1497 
Q 3034 2003 2786 2293 
Q 2538 2584 2113 2584 
z
M 3366 4563 
L 3366 3988 
Q 3128 4100 2886 4159 
Q 2644 4219 2406 4219 
Q 1781 4219 1451 3797 
Q 1122 3375 1075 2522 
Q 1259 2794 1537 2939 
Q 1816 3084 2150 3084 
Q 2853 3084 3261 2657 
Q 3669 2231 3669 1497 
Q 3669 778 3244 343 
Q 2819 -91 2113 -91 
Q 1303 -91 875 529 
Q 447 1150 447 2328 
Q 447 3434 972 4092 
Q 1497 4750 2381 4750 
Q 2619 4750 2861 4703 
Q 3103 4656 3366 4563 
z
" transform="scale(0.015625)"/>
       </defs>
       <use xlink:href="#DejaVuSans-36"/>
       <use xlink:href="#DejaVuSans-30" transform="translate(63.623047 0)"/>
       <use xlink:href="#DejaVuSans-30" transform="translate(127.246094 0)"/>
      </g>
     </g>
    </g>
    <g id="text_11">
     <!-- cont_variable -->
     <g transform="translate(57.554687 215.409375) rotate(-90) scale(0.1 -0.1)">
      <defs>
       <path id="DejaVuSans-5f" d="M 3263 -1063 
L 3263 -1509 
L -63 -1509 
L -63 -1063 
L 3263 -1063 
z
" transform="scale(0.015625)"/>
       <path id="DejaVuSans-62" d="M 3116 1747 
Q 3116 2381 2855 2742 
Q 2594 3103 2138 3103 
Q 1681 3103 1420 2742 
Q 1159 2381 1159 1747 
Q 1159 1113 1420 752 
Q 1681 391 2138 391 
Q 2594 391 2855 752 
Q 3116 1113 3116 1747 
z
M 1159 2969 
Q 1341 3281 1617 3432 
Q 1894 3584 2278 3584 
Q 2916 3584 3314 3078 
Q 3713 2572 3713 1747 
Q 3713 922 3314 415 
Q 2916 -91 2278 -91 
Q 1894 -91 1617 61 
Q 1341 213 1159 525 
L 1159 0 
L 581 0 
L 581 4863 
L 1159 4863 
L 1159 2969 
z
" transform="scale(0.015625)"/>
       <path id="DejaVuSans-6c" d="M 603 4863 
L 1178 4863 
L 1178 0 
L 603 0 
L 603 4863 
z
" transform="scale(0.015625)"/>
      </defs>
      <use xlink:href="#DejaVuSans-63"/>
      <use xlink:href="#DejaVuSans-6f" transform="translate(54.980469 0)"/>
      <use xlink:href="#DejaVuSans-6e" transform="translate(116.162109 0)"/>
      <use xlink:href="#DejaVuSans-74" transform="translate(179.541016 0)"/>
      <use xlink:href="#DejaVuSans-5f" transform="translate(218.75 0)"/>
      <use xlink:href="#DejaVuSans-76" transform="translate(268.75 0)"/>
      <use xlink:href="#DejaVuSans-61" transform="translate(327.929688 0)"/>
      <use xlink:href="#DejaVuSans-72" transform="translate(389.208984 0)"/>
      <use xlink:href="#DejaVuSans-69" transform="translate(430.322266 0)"/>
      <use xlink:href="#DejaVuSans-61" transform="translate(458.105469 0)"/>
      <use xlink:href="#DejaVuSans-62" transform="translate(519.384766 0)"/>
      <use xlink:href="#DejaVuSans-6c" transform="translate(582.861328 0)"/>
      <use xlink:href="#DejaVuSans-65" transform="translate(610.644531 0)"/>
     </g>
    </g>
   </g>
   <g id="patch_3">
    <path d="M 90 320.4 
L 90 43.2 
" style="fill: none; stroke: #000000; stroke-width: 0.8; stroke-linejoin: miter; stroke-linecap: square"/>
   </g>
   <g id="patch_4">
    <path d="M 648 320.4 
L 648 43.2 
" style="fill: none; stroke: #000000; stroke-width: 0.8; stroke-linejoin: miter; stroke-linecap: square"/>
   </g>
   <g id="patch_5">
    <path d="M 90 320.4 
L 648 320.4 
" style="fill: none; stroke: #000000; stroke-width: 0.8; stroke-linejoin: miter; stroke-linecap: square"/>
   </g>
   <g id="patch_6">
    <path d="M 90 43.2 
L 648 43.2 
" style="fill: none; stroke: #000000; stroke-width: 0.8; stroke-linejoin: miter; stroke-linecap: square"/>
   </g>
   <g id="PathCollection_1">
    <defs>
     <path id="m4759e0465a" d="M 0 2.5 
C 0.663008 2.5 1.29895 2.236584 1.767767 1.767767 
C 2.236584 1.29895 2.5 0.663008 2.5 0 
C 2.5 -0.663008 2.236584 -1.29895 1.767767 -1.767767 
C 1.29895 -2.236584 0.663008 -2.5 0 -2.5 
C -0.663008 -2.5 -1.29895 -2.236584 -1.767767 -1.767767 
C -2.236584 -1.29895 -2.5 -0.663008 -2.5 0 
C -2.5 0.663008 -2.236584 1.29895 -1.767767 1.767767 
C -1.29895 2.236584 -0.663008 2.5 0 2.5 
z
"/>
    </defs>
    <g clip-path="url(#pb4e17c1b8a)">
     <use xlink:href="#m4759e0465a" x="208.224021" y="262.591239" style="fill-opacity: 0.3"/>
     <use xlink:href="#m4759e0465a" x="207.036535" y="262.591239" style="fill-opacity: 0.3"/>
     <use xlink:href="#m4759e0465a" x="256.189548" y="262.591239" style="fill-opacity: 0.3"/>
     <use xlink:href="#m4759e0465a" x="208.319371" y="262.591239" style="fill-opacity: 0.3"/>
     <use xlink:href="#m4759e0465a" x="245.790244" y="262.591239" style="fill-opacity: 0.3"/>
     <use xlink:href="#m4759e0465a" x="245.151561" y="262.591239" style="fill-opacity: 0.3"/>
     <use xlink:href="#m4759e0465a" x="249.373844" y="262.591239" style="fill-opacity: 0.3"/>
     <use xlink:href="#m4759e0465a" x="247.119838" y="258.448099" style="fill-opacity: 0.3"/>
     <use xlink:href="#m4759e0465a" x="209.737929" y="258.448099" style="fill-opacity: 0.3"/>
     <use xlink:href="#m4759e0465a" x="256.304317" y="258.448099" style="fill-opacity: 0.3"/>
     <use xlink:href="#m4759e0465a" x="234.474211" y="258.448099" style="fill-opacity: 0.3"/>
     <use xlink:href="#m4759e0465a" x="249.581921" y="258.448099" style="fill-opacity: 0.3"/>
     <use xlink:href="#m4759e0465a" x="206.683869" y="258.448099" style="fill-opacity: 0.3"/>
     <use xlink:href="#m4759e0465a" x="255.14972" y="258.448099" style="fill-opacity: 0.3"/>
     <use xlink:href="#m4759e0465a" x="239.283686" y="258.448099" style="fill-opacity: 0.3"/>
     <use xlink:href="#m4759e0465a" x="252.447959" y="258.448099" style="fill-opacity: 0.3"/>
     <use xlink:href="#m4759e0465a" x="217.194921" y="258.448099" style="fill-opacity: 0.3"/>
     <use xlink:href="#m4759e0465a" x="235.305262" y="183.87157" style="fill-opacity: 0.3"/>
     <use xlink:href="#m4759e0465a" x="236.896632" y="183.87157" style="fill-opacity: 0.3"/>
     <use xlink:href="#m4759e0465a" x="218.017418" y="101.008761" style="fill-opacity: 0.3"/>
     <use xlink:href="#m4759e0465a" x="219.575461" y="101.008761" style="fill-opacity: 0.3"/>
     <use xlink:href="#m4759e0465a" x="228.851201" y="101.008761" style="fill-opacity: 0.3"/>
     <use xlink:href="#m4759e0465a" x="249.761401" y="101.008761" style="fill-opacity: 0.3"/>
     <use xlink:href="#m4759e0465a" x="203.857174" y="101.008761" style="fill-opacity: 0.3"/>
     <use xlink:href="#m4759e0465a" x="218.139063" y="101.008761" style="fill-opacity: 0.3"/>
     <use xlink:href="#m4759e0465a" x="239.122607" y="101.008761" style="fill-opacity: 0.3"/>
     <use xlink:href="#m4759e0465a" x="241.806092" y="101.008761" style="fill-opacity: 0.3"/>
     <use xlink:href="#m4759e0465a" x="233.312857" y="101.008761" style="fill-opacity: 0.3"/>
     <use xlink:href="#m4759e0465a" x="212.440884" y="101.008761" style="fill-opacity: 0.3"/>
     <use xlink:href="#m4759e0465a" x="234.097302" y="101.008761" style="fill-opacity: 0.3"/>
     <use xlink:href="#m4759e0465a" x="217.939243" y="101.008761" style="fill-opacity: 0.3"/>
     <use xlink:href="#m4759e0465a" x="244.986828" y="101.008761" style="fill-opacity: 0.3"/>
     <use xlink:href="#m4759e0465a" x="249.288831" y="101.008761" style="fill-opacity: 0.3"/>
     <use xlink:href="#m4759e0465a" x="223.656254" y="101.008761" style="fill-opacity: 0.3"/>
     <use xlink:href="#m4759e0465a" x="225.148678" y="101.008761" style="fill-opacity: 0.3"/>
     <use xlink:href="#m4759e0465a" x="226.368236" y="101.008761" style="fill-opacity: 0.3"/>
     <use xlink:href="#m4759e0465a" x="210.13146" y="101.008761" style="fill-opacity: 0.3"/>
     <use xlink:href="#m4759e0465a" x="245.016381" y="101.008761" style="fill-opacity: 0.3"/>
     <use xlink:href="#m4759e0465a" x="246.174321" y="101.008761" style="fill-opacity: 0.3"/>
     <use xlink:href="#m4759e0465a" x="240.541133" y="101.008761" style="fill-opacity: 0.3"/>
     <use xlink:href="#m4759e0465a" x="227.054171" y="101.008761" style="fill-opacity: 0.3"/>
     <use xlink:href="#m4759e0465a" x="218.162843" y="101.008761" style="fill-opacity: 0.3"/>
     <use xlink:href="#m4759e0465a" x="204.885626" y="101.008761" style="fill-opacity: 0.3"/>
     <use xlink:href="#m4759e0465a" x="216.867354" y="101.008761" style="fill-opacity: 0.3"/>
     <use xlink:href="#m4759e0465a" x="222.069305" y="101.008761" style="fill-opacity: 0.3"/>
     <use xlink:href="#m4759e0465a" x="214.191881" y="101.008761" style="fill-opacity: 0.3"/>
     <use xlink:href="#m4759e0465a" x="246.375297" y="101.008761" style="fill-opacity: 0.3"/>
     <use xlink:href="#m4759e0465a" x="224.732179" y="101.008761" style="fill-opacity: 0.3"/>
     <use xlink:href="#m4759e0465a" x="216.959588" y="101.008761" style="fill-opacity: 0.3"/>
     <use xlink:href="#m4759e0465a" x="230.959301" y="101.008761" style="fill-opacity: 0.3"/>
     <use xlink:href="#m4759e0465a" x="209.397413" y="101.008761" style="fill-opacity: 0.3"/>
     <use xlink:href="#m4759e0465a" x="229.486405" y="101.008761" style="fill-opacity: 0.3"/>
     <use xlink:href="#m4759e0465a" x="216.075384" y="101.008761" style="fill-opacity: 0.3"/>
     <use xlink:href="#m4759e0465a" x="236.413444" y="101.008761" style="fill-opacity: 0.3"/>
     <use xlink:href="#m4759e0465a" x="215.034576" y="101.008761" style="fill-opacity: 0.3"/>
     <use xlink:href="#m4759e0465a" x="207.721227" y="101.008761" style="fill-opacity: 0.3"/>
     <use xlink:href="#m4759e0465a" x="208.431867" y="101.008761" style="fill-opacity: 0.3"/>
     <use xlink:href="#m4759e0465a" x="203.86868" y="101.008761" style="fill-opacity: 0.3"/>
     <use xlink:href="#m4759e0465a" x="249.71359" y="101.008761" style="fill-opacity: 0.3"/>
     <use xlink:href="#m4759e0465a" x="219.542304" y="101.008761" style="fill-opacity: 0.3"/>
     <use xlink:href="#m4759e0465a" x="212.597298" y="101.008761" style="fill-opacity: 0.3"/>
     <use xlink:href="#m4759e0465a" x="241.673563" y="101.008761" style="fill-opacity: 0.3"/>
     <use xlink:href="#m4759e0465a" x="207.377701" y="101.008761" style="fill-opacity: 0.3"/>
     <use xlink:href="#m4759e0465a" x="251.319244" y="101.008761" style="fill-opacity: 0.3"/>
     <use xlink:href="#m4759e0465a" x="211.230378" y="101.008761" style="fill-opacity: 0.3"/>
     <use xlink:href="#m4759e0465a" x="210.74191" y="101.008761" style="fill-opacity: 0.3"/>
     <use xlink:href="#m4759e0465a" x="254.940267" y="101.008761" style="fill-opacity: 0.3"/>
     <use xlink:href="#m4759e0465a" x="253.506172" y="101.008761" style="fill-opacity: 0.3"/>
     <use xlink:href="#m4759e0465a" x="240.890683" y="101.008761" style="fill-opacity: 0.3"/>
     <use xlink:href="#m4759e0465a" x="227.862198" y="101.008761" style="fill-opacity: 0.3"/>
     <use xlink:href="#m4759e0465a" x="214.833379" y="101.008761" style="fill-opacity: 0.3"/>
     <use xlink:href="#m4759e0465a" x="204.196523" y="101.008761" style="fill-opacity: 0.3"/>
     <use xlink:href="#m4759e0465a" x="224.364023" y="101.008761" style="fill-opacity: 0.3"/>
     <use xlink:href="#m4759e0465a" x="251.515517" y="101.008761" style="fill-opacity: 0.3"/>
     <use xlink:href="#m4759e0465a" x="241.757566" y="101.008761" style="fill-opacity: 0.3"/>
     <use xlink:href="#m4759e0465a" x="244.761594" y="101.008761" style="fill-opacity: 0.3"/>
     <use xlink:href="#m4759e0465a" x="252.456512" y="101.008761" style="fill-opacity: 0.3"/>
     <use xlink:href="#m4759e0465a" x="233.87969" y="101.008761" style="fill-opacity: 0.3"/>
     <use xlink:href="#m4759e0465a" x="236.572628" y="101.008761" style="fill-opacity: 0.3"/>
     <use xlink:href="#m4759e0465a" x="238.359493" y="101.008761" style="fill-opacity: 0.3"/>
     <use xlink:href="#m4759e0465a" x="231.736332" y="101.008761" style="fill-opacity: 0.3"/>
     <use xlink:href="#m4759e0465a" x="255.014022" y="101.008761" style="fill-opacity: 0.3"/>
     <use xlink:href="#m4759e0465a" x="209.31249" y="130.010744" style="fill-opacity: 0.3"/>
     <use xlink:href="#m4759e0465a" x="209.50102" y="130.010744" style="fill-opacity: 0.3"/>
     <use xlink:href="#m4759e0465a" x="238.0033" y="130.010744" style="fill-opacity: 0.3"/>
     <use xlink:href="#m4759e0465a" x="215.90936" y="130.010744" style="fill-opacity: 0.3"/>
     <use xlink:href="#m4759e0465a" x="205.556024" y="130.010744" style="fill-opacity: 0.3"/>
     <use xlink:href="#m4759e0465a" x="208.817254" y="130.010744" style="fill-opacity: 0.3"/>
     <use xlink:href="#m4759e0465a" x="224.505596" y="130.010744" style="fill-opacity: 0.3"/>
     <use xlink:href="#m4759e0465a" x="254.535481" y="130.010744" style="fill-opacity: 0.3"/>
     <use xlink:href="#m4759e0465a" x="225.160437" y="130.010744" style="fill-opacity: 0.3"/>
     <use xlink:href="#m4759e0465a" x="213.952602" y="130.010744" style="fill-opacity: 0.3"/>
     <use xlink:href="#m4759e0465a" x="212.593438" y="130.010744" style="fill-opacity: 0.3"/>
     <use xlink:href="#m4759e0465a" x="211.759735" y="130.010744" style="fill-opacity: 0.3"/>
     <use xlink:href="#m4759e0465a" x="215.11867" y="130.010744" style="fill-opacity: 0.3"/>
     <use xlink:href="#m4759e0465a" x="202.081666" y="130.010744" style="fill-opacity: 0.3"/>
     <use xlink:href="#m4759e0465a" x="206.694889" y="130.010744" style="fill-opacity: 0.3"/>
     <use xlink:href="#m4759e0465a" x="248.203116" y="159.012727" style="fill-opacity: 0.3"/>
     <use xlink:href="#m4759e0465a" x="217.396019" y="159.012727" style="fill-opacity: 0.3"/>
     <use xlink:href="#m4759e0465a" x="202.338457" y="159.012727" style="fill-opacity: 0.3"/>
     <use xlink:href="#m4759e0465a" x="242.384755" y="159.012727" style="fill-opacity: 0.3"/>
     <use xlink:href="#m4759e0465a" x="206.225093" y="204.587273" style="fill-opacity: 0.3"/>
     <use xlink:href="#m4759e0465a" x="210.189879" y="204.587273" style="fill-opacity: 0.3"/>
     <use xlink:href="#m4759e0465a" x="250.651601" y="204.587273" style="fill-opacity: 0.3"/>
     <use xlink:href="#m4759e0465a" x="235.559884" y="204.587273" style="fill-opacity: 0.3"/>
     <use xlink:href="#m4759e0465a" x="245.25474" y="204.587273" style="fill-opacity: 0.3"/>
     <use xlink:href="#m4759e0465a" x="222.661704" y="204.587273" style="fill-opacity: 0.3"/>
     <use xlink:href="#m4759e0465a" x="253.141221" y="204.587273" style="fill-opacity: 0.3"/>
     <use xlink:href="#m4759e0465a" x="222.379081" y="204.587273" style="fill-opacity: 0.3"/>
     <use xlink:href="#m4759e0465a" x="229.981814" y="204.587273" style="fill-opacity: 0.3"/>
     <use xlink:href="#m4759e0465a" x="254.533126" y="204.587273" style="fill-opacity: 0.3"/>
     <use xlink:href="#m4759e0465a" x="242.715007" y="204.587273" style="fill-opacity: 0.3"/>
     <use xlink:href="#m4759e0465a" x="211.265496" y="204.587273" style="fill-opacity: 0.3"/>
     <use xlink:href="#m4759e0465a" x="217.896045" y="204.587273" style="fill-opacity: 0.3"/>
     <use xlink:href="#m4759e0465a" x="204.935462" y="204.587273" style="fill-opacity: 0.3"/>
     <use xlink:href="#m4759e0465a" x="251.636272" y="171.442149" style="fill-opacity: 0.3"/>
     <use xlink:href="#m4759e0465a" x="251.149365" y="171.442149" style="fill-opacity: 0.3"/>
     <use xlink:href="#m4759e0465a" x="229.729805" y="171.442149" style="fill-opacity: 0.3"/>
     <use xlink:href="#m4759e0465a" x="213.473881" y="171.442149" style="fill-opacity: 0.3"/>
     <use xlink:href="#m4759e0465a" x="223.344161" y="171.442149" style="fill-opacity: 0.3"/>
     <use xlink:href="#m4759e0465a" x="255.312732" y="171.442149" style="fill-opacity: 0.3"/>
     <use xlink:href="#m4759e0465a" x="250.722056" y="171.442149" style="fill-opacity: 0.3"/>
     <use xlink:href="#m4759e0465a" x="225.113856" y="171.442149" style="fill-opacity: 0.3"/>
     <use xlink:href="#m4759e0465a" x="238.016758" y="171.442149" style="fill-opacity: 0.3"/>
     <use xlink:href="#m4759e0465a" x="202.642136" y="171.442149" style="fill-opacity: 0.3"/>
     <use xlink:href="#m4759e0465a" x="232.449464" y="171.442149" style="fill-opacity: 0.3"/>
     <use xlink:href="#m4759e0465a" x="221.537394" y="171.442149" style="fill-opacity: 0.3"/>
     <use xlink:href="#m4759e0465a" x="237.12365" y="171.442149" style="fill-opacity: 0.3"/>
     <use xlink:href="#m4759e0465a" x="216.820602" y="171.442149" style="fill-opacity: 0.3"/>
     <use xlink:href="#m4759e0465a" x="255.033019" y="171.442149" style="fill-opacity: 0.3"/>
     <use xlink:href="#m4759e0465a" x="232.738878" y="171.442149" style="fill-opacity: 0.3"/>
     <use xlink:href="#m4759e0465a" x="218.410741" y="171.442149" style="fill-opacity: 0.3"/>
     <use xlink:href="#m4759e0465a" x="241.062185" y="171.442149" style="fill-opacity: 0.3"/>
     <use xlink:href="#m4759e0465a" x="217.022212" y="171.442149" style="fill-opacity: 0.3"/>
     <use xlink:href="#m4759e0465a" x="248.692908" y="171.442149" style="fill-opacity: 0.3"/>
     <use xlink:href="#m4759e0465a" x="215.904545" y="171.442149" style="fill-opacity: 0.3"/>
     <use xlink:href="#m4759e0465a" x="252.879444" y="171.442149" style="fill-opacity: 0.3"/>
     <use xlink:href="#m4759e0465a" x="243.83331" y="171.442149" style="fill-opacity: 0.3"/>
     <use xlink:href="#m4759e0465a" x="214.580351" y="171.442149" style="fill-opacity: 0.3"/>
     <use xlink:href="#m4759e0465a" x="242.349281" y="171.442149" style="fill-opacity: 0.3"/>
     <use xlink:href="#m4759e0465a" x="255.252541" y="171.442149" style="fill-opacity: 0.3"/>
     <use xlink:href="#m4759e0465a" x="211.258494" y="171.442149" style="fill-opacity: 0.3"/>
     <use xlink:href="#m4759e0465a" x="253.393667" y="171.442149" style="fill-opacity: 0.3"/>
     <use xlink:href="#m4759e0465a" x="216.689287" y="171.442149" style="fill-opacity: 0.3"/>
     <use xlink:href="#m4759e0465a" x="254.613627" y="171.442149" style="fill-opacity: 0.3"/>
     <use xlink:href="#m4759e0465a" x="238.11307" y="171.442149" style="fill-opacity: 0.3"/>
     <use xlink:href="#m4759e0465a" x="209.869501" y="171.442149" style="fill-opacity: 0.3"/>
     <use xlink:href="#m4759e0465a" x="225.224931" y="171.442149" style="fill-opacity: 0.3"/>
     <use xlink:href="#m4759e0465a" x="201.951813" y="171.442149" style="fill-opacity: 0.3"/>
     <use xlink:href="#m4759e0465a" x="213.978066" y="171.442149" style="fill-opacity: 0.3"/>
     <use xlink:href="#m4759e0465a" x="236.144525" y="171.442149" style="fill-opacity: 0.3"/>
    </g>
   </g>
   <g id="PathCollection_2">
    <g clip-path="url(#pb4e17c1b8a)">
     <use xlink:href="#m4759e0465a" x="524.265082" y="262.591239" style="fill-opacity: 0.3"/>
     <use xlink:href="#m4759e0465a" x="527.629678" y="262.591239" style="fill-opacity: 0.3"/>
     <use xlink:href="#m4759e0465a" x="513.569412" y="262.591239" style="fill-opacity: 0.3"/>
     <use xlink:href="#m4759e0465a" x="506.933845" y="262.591239" style="fill-opacity: 0.3"/>
     <use xlink:href="#m4759e0465a" x="491.745507" y="262.591239" style="fill-opacity: 0.3"/>
     <use xlink:href="#m4759e0465a" x="530.021128" y="262.591239" style="fill-opacity: 0.3"/>
     <use xlink:href="#m4759e0465a" x="481.830455" y="262.591239" style="fill-opacity: 0.3"/>
     <use xlink:href="#m4759e0465a" x="492.999635" y="262.591239" style="fill-opacity: 0.3"/>
     <use xlink:href="#m4759e0465a" x="514.526525" y="262.591239" style="fill-opacity: 0.3"/>
     <use xlink:href="#m4759e0465a" x="520.152585" y="258.448099" style="fill-opacity: 0.3"/>
     <use xlink:href="#m4759e0465a" x="529.916615" y="258.448099" style="fill-opacity: 0.3"/>
     <use xlink:href="#m4759e0465a" x="492.302076" y="183.87157" style="fill-opacity: 0.3"/>
     <use xlink:href="#m4759e0465a" x="522.147524" y="183.87157" style="fill-opacity: 0.3"/>
     <use xlink:href="#m4759e0465a" x="481.498869" y="183.87157" style="fill-opacity: 0.3"/>
     <use xlink:href="#m4759e0465a" x="512.154994" y="101.008761" style="fill-opacity: 0.3"/>
     <use xlink:href="#m4759e0465a" x="535.679357" y="101.008761" style="fill-opacity: 0.3"/>
     <use xlink:href="#m4759e0465a" x="505.863745" y="101.008761" style="fill-opacity: 0.3"/>
     <use xlink:href="#m4759e0465a" x="511.65514" y="101.008761" style="fill-opacity: 0.3"/>
     <use xlink:href="#m4759e0465a" x="493.41448" y="101.008761" style="fill-opacity: 0.3"/>
     <use xlink:href="#m4759e0465a" x="536.050032" y="101.008761" style="fill-opacity: 0.3"/>
     <use xlink:href="#m4759e0465a" x="505.856929" y="101.008761" style="fill-opacity: 0.3"/>
     <use xlink:href="#m4759e0465a" x="485.565658" y="101.008761" style="fill-opacity: 0.3"/>
     <use xlink:href="#m4759e0465a" x="514.699874" y="101.008761" style="fill-opacity: 0.3"/>
     <use xlink:href="#m4759e0465a" x="504.974203" y="101.008761" style="fill-opacity: 0.3"/>
     <use xlink:href="#m4759e0465a" x="529.718958" y="101.008761" style="fill-opacity: 0.3"/>
     <use xlink:href="#m4759e0465a" x="497.598957" y="101.008761" style="fill-opacity: 0.3"/>
     <use xlink:href="#m4759e0465a" x="528.516687" y="101.008761" style="fill-opacity: 0.3"/>
     <use xlink:href="#m4759e0465a" x="512.480413" y="101.008761" style="fill-opacity: 0.3"/>
     <use xlink:href="#m4759e0465a" x="531.649715" y="101.008761" style="fill-opacity: 0.3"/>
     <use xlink:href="#m4759e0465a" x="526.128345" y="101.008761" style="fill-opacity: 0.3"/>
     <use xlink:href="#m4759e0465a" x="510.561681" y="101.008761" style="fill-opacity: 0.3"/>
     <use xlink:href="#m4759e0465a" x="534.930788" y="101.008761" style="fill-opacity: 0.3"/>
     <use xlink:href="#m4759e0465a" x="485.335946" y="101.008761" style="fill-opacity: 0.3"/>
     <use xlink:href="#m4759e0465a" x="516.952551" y="101.008761" style="fill-opacity: 0.3"/>
     <use xlink:href="#m4759e0465a" x="533.843982" y="101.008761" style="fill-opacity: 0.3"/>
     <use xlink:href="#m4759e0465a" x="480.902183" y="101.008761" style="fill-opacity: 0.3"/>
     <use xlink:href="#m4759e0465a" x="494.948245" y="101.008761" style="fill-opacity: 0.3"/>
     <use xlink:href="#m4759e0465a" x="504.182335" y="101.008761" style="fill-opacity: 0.3"/>
     <use xlink:href="#m4759e0465a" x="489.42642" y="101.008761" style="fill-opacity: 0.3"/>
     <use xlink:href="#m4759e0465a" x="504.51315" y="101.008761" style="fill-opacity: 0.3"/>
     <use xlink:href="#m4759e0465a" x="487.207733" y="101.008761" style="fill-opacity: 0.3"/>
     <use xlink:href="#m4759e0465a" x="490.447371" y="101.008761" style="fill-opacity: 0.3"/>
     <use xlink:href="#m4759e0465a" x="519.328653" y="101.008761" style="fill-opacity: 0.3"/>
     <use xlink:href="#m4759e0465a" x="536.277991" y="101.008761" style="fill-opacity: 0.3"/>
     <use xlink:href="#m4759e0465a" x="522.303046" y="101.008761" style="fill-opacity: 0.3"/>
     <use xlink:href="#m4759e0465a" x="514.655274" y="101.008761" style="fill-opacity: 0.3"/>
     <use xlink:href="#m4759e0465a" x="533.041577" y="101.008761" style="fill-opacity: 0.3"/>
     <use xlink:href="#m4759e0465a" x="502.013384" y="101.008761" style="fill-opacity: 0.3"/>
     <use xlink:href="#m4759e0465a" x="495.69112" y="130.010744" style="fill-opacity: 0.3"/>
     <use xlink:href="#m4759e0465a" x="484.299652" y="130.010744" style="fill-opacity: 0.3"/>
     <use xlink:href="#m4759e0465a" x="492.895131" y="130.010744" style="fill-opacity: 0.3"/>
     <use xlink:href="#m4759e0465a" x="520.35754" y="130.010744" style="fill-opacity: 0.3"/>
     <use xlink:href="#m4759e0465a" x="533.110438" y="159.012727" style="fill-opacity: 0.3"/>
     <use xlink:href="#m4759e0465a" x="507.202619" y="204.587273" style="fill-opacity: 0.3"/>
     <use xlink:href="#m4759e0465a" x="509.015372" y="204.587273" style="fill-opacity: 0.3"/>
     <use xlink:href="#m4759e0465a" x="492.553389" y="204.587273" style="fill-opacity: 0.3"/>
     <use xlink:href="#m4759e0465a" x="497.84723" y="204.587273" style="fill-opacity: 0.3"/>
     <use xlink:href="#m4759e0465a" x="515.358239" y="204.587273" style="fill-opacity: 0.3"/>
     <use xlink:href="#m4759e0465a" x="493.155288" y="204.587273" style="fill-opacity: 0.3"/>
     <use xlink:href="#m4759e0465a" x="525.569259" y="204.587273" style="fill-opacity: 0.3"/>
     <use xlink:href="#m4759e0465a" x="517.706142" y="204.587273" style="fill-opacity: 0.3"/>
     <use xlink:href="#m4759e0465a" x="488.808437" y="204.587273" style="fill-opacity: 0.3"/>
     <use xlink:href="#m4759e0465a" x="487.521515" y="171.442149" style="fill-opacity: 0.3"/>
     <use xlink:href="#m4759e0465a" x="529.080028" y="171.442149" style="fill-opacity: 0.3"/>
     <use xlink:href="#m4759e0465a" x="519.878722" y="171.442149" style="fill-opacity: 0.3"/>
     <use xlink:href="#m4759e0465a" x="485.401608" y="171.442149" style="fill-opacity: 0.3"/>
     <use xlink:href="#m4759e0465a" x="501.136387" y="171.442149" style="fill-opacity: 0.3"/>
     <use xlink:href="#m4759e0465a" x="524.720914" y="171.442149" style="fill-opacity: 0.3"/>
     <use xlink:href="#m4759e0465a" x="510.418885" y="171.442149" style="fill-opacity: 0.3"/>
     <use xlink:href="#m4759e0465a" x="505.737947" y="171.442149" style="fill-opacity: 0.3"/>
     <use xlink:href="#m4759e0465a" x="524.967391" y="171.442149" style="fill-opacity: 0.3"/>
     <use xlink:href="#m4759e0465a" x="500.634615" y="171.442149" style="fill-opacity: 0.3"/>
     <use xlink:href="#m4759e0465a" x="500.878959" y="171.442149" style="fill-opacity: 0.3"/>
     <use xlink:href="#m4759e0465a" x="510.635074" y="171.442149" style="fill-opacity: 0.3"/>
     <use xlink:href="#m4759e0465a" x="497.15146" y="171.442149" style="fill-opacity: 0.3"/>
     <use xlink:href="#m4759e0465a" x="515.986079" y="171.442149" style="fill-opacity: 0.3"/>
     <use xlink:href="#m4759e0465a" x="528.669545" y="171.442149" style="fill-opacity: 0.3"/>
     <use xlink:href="#m4759e0465a" x="493.014926" y="171.442149" style="fill-opacity: 0.3"/>
     <use xlink:href="#m4759e0465a" x="518.350449" y="171.442149" style="fill-opacity: 0.3"/>
     <use xlink:href="#m4759e0465a" x="487.804182" y="171.442149" style="fill-opacity: 0.3"/>
     <use xlink:href="#m4759e0465a" x="487.42219" y="171.442149" style="fill-opacity: 0.3"/>
     <use xlink:href="#m4759e0465a" x="490.333771" y="171.442149" style="fill-opacity: 0.3"/>
     <use xlink:href="#m4759e0465a" x="509.817829" y="171.442149" style="fill-opacity: 0.3"/>
     <use xlink:href="#m4759e0465a" x="513.059003" y="171.442149" style="fill-opacity: 0.3"/>
     <use xlink:href="#m4759e0465a" x="485.908585" y="171.442149" style="fill-opacity: 0.3"/>
     <use xlink:href="#m4759e0465a" x="501.448101" y="171.442149" style="fill-opacity: 0.3"/>
    </g>
   </g>
  </g>
 </g>
 <defs>
  <clipPath id="pb4e17c1b8a">
   <rect x="90" y="43.2" width="558" height="277.2"/>
  </clipPath>
 </defs>
</svg>
