<?xml version="1.0" encoding="utf-8" standalone="no"?>
<!DOCTYPE svg PUBLIC "-//W3C//DTD SVG 1.1//EN"
  "http://www.w3.org/Graphics/SVG/1.1/DTD/svg11.dtd">
<svg xmlns:xlink="http://www.w3.org/1999/xlink" width="720pt" height="360pt" viewBox="0 0 720 360" xmlns="http://www.w3.org/2000/svg" version="1.1">
 <metadata>
  <rdf:RDF xmlns:dc="http://purl.org/dc/elements/1.1/" xmlns:cc="http://creativecommons.org/ns#" xmlns:rdf="http://www.w3.org/1999/02/22-rdf-syntax-ns#">
   <cc:Work>
    <dc:type rdf:resource="http://purl.org/dc/dcmitype/StillImage"/>
    <dc:date>2025-10-21T13:23:08.816700</dc:date>
    <dc:format>image/svg+xml</dc:format>
    <dc:creator>
     <cc:Agent>
      <dc:title>Matplotlib v3.10.3, https://matplotlib.org/</dc:title>
     </cc:Agent>
    </dc:creator>
   </cc:Work>
  </rdf:RDF>
 </metadata>
 <defs>
  <style type="text/css">*{stroke-linejoin: round; stroke-linecap: butt}</style>
 </defs>
 <g id="figure_1">
  <g id="patch_1">
   <path d="M 0 360 
L 720 360 
L 720 0 
L 0 0 
z
" style="fill: #ffffff"/>
  </g>
  <g id="axes_1">
   <g id="patch_2">
    <path d="M 90 320.4 
L 648 320.4 
L 648 43.2 
L 90 43.2 
z
" style="fill: #ffffff"/>
   </g>
   <g id="FillBetweenPolyCollection_1">
    <defs>
     <path id="mdd1e2701c6" d="M 234.680105 -52.2 
L 224.319895 -52.2 
L 221.979454 -54.745455 
L 218.862491 -57.290909 
L 214.837549 -59.836364 
L 209.80034 -62.381818 
L 203.693946 -64.927273 
L 196.528488 -67.472727 
L 188.39674 -70.018182 
L 179.482059 -72.563636 
L 170.055644 -75.109091 
L 160.461579 -77.654545 
L 151.090231 -80.2 
L 142.342823 -82.745455 
L 134.591985 -85.290909 
L 128.144228 -87.836364 
L 123.210224 -90.381818 
L 119.887518 -92.927273 
L 118.158037 -95.472727 
L 117.9 -98.018182 
L 118.911292 -100.563636 
L 120.939516 -103.109091 
L 123.713285 -105.654545 
L 126.969794 -108.2 
L 130.475257 -110.745455 
L 134.036765 -113.290909 
L 137.506126 -115.836364 
L 140.777719 -118.381818 
L 143.78309 -120.927273 
L 146.484867 -123.472727 
L 148.871815 -126.018182 
L 150.955749 -128.563636 
L 152.769995 -131.109091 
L 154.368375 -133.654545 
L 155.823472 -136.2 
L 157.223152 -138.745455 
L 158.664843 -141.290909 
L 160.247767 -143.836364 
L 162.063889 -146.381818 
L 164.18873 -148.927273 
L 166.673355 -151.472727 
L 169.538677 -154.018182 
L 172.772912 -156.563636 
L 176.332534 -159.109091 
L 180.146596 -161.654545 
L 184.123745 -164.2 
L 188.160953 -166.745455 
L 192.152708 -169.290909 
L 195.999465 -171.836364 
L 199.614364 -174.381818 
L 202.927592 -176.927273 
L 205.888262 -179.472727 
L 208.46414 -182.018182 
L 210.639861 -184.563636 
L 212.414457 -187.109091 
L 213.798943 -189.654545 
L 214.814478 -192.2 
L 215.491323 -194.745455 
L 215.868438 -197.290909 
L 215.993354 -199.836364 
L 215.921799 -202.381818 
L 215.716555 -204.927273 
L 215.445238 -207.472727 
L 215.176878 -210.018182 
L 214.977526 -212.563636 
L 214.905366 -215.109091 
L 215.006006 -217.654545 
L 215.308688 -220.2 
L 215.824031 -222.745455 
L 216.543737 -225.290909 
L 217.442294 -227.836364 
L 218.480428 -230.381818 
L 219.60975 -232.927273 
L 220.777888 -235.472727 
L 221.933427 -238.018182 
L 223.030077 -240.563636 
L 224.029747 -243.109091 
L 224.904406 -245.654545 
L 225.636846 -248.2 
L 226.220527 -250.745455 
L 226.65876 -253.290909 
L 226.963408 -255.836364 
L 227.153251 -258.381818 
L 227.252084 -260.927273 
L 227.286603 -263.472727 
L 227.284174 -266.018182 
L 227.270594 -268.563636 
L 227.268051 -271.109091 
L 227.293482 -273.654545 
L 227.357535 -276.2 
L 227.464272 -278.745455 
L 227.611633 -281.290909 
L 227.792573 -283.836364 
L 227.996661 -286.381818 
L 228.21188 -288.927273 
L 228.426344 -291.472727 
L 228.629694 -294.018182 
L 228.814031 -296.563636 
L 228.974325 -299.109091 
L 229.108365 -301.654545 
L 229.216353 -304.2 
L 229.783647 -304.2 
L 229.783647 -304.2 
L 229.891635 -301.654545 
L 230.025675 -299.109091 
L 230.185969 -296.563636 
L 230.370306 -294.018182 
L 230.573656 -291.472727 
L 230.78812 -288.927273 
L 231.003339 -286.381818 
L 231.207427 -283.836364 
L 231.388367 -281.290909 
L 231.535728 -278.745455 
L 231.642465 -276.2 
L 231.706518 -273.654545 
L 231.731949 -271.109091 
L 231.729406 -268.563636 
L 231.715826 -266.018182 
L 231.713397 -263.472727 
L 231.747916 -260.927273 
L 231.846749 -258.381818 
L 232.036592 -255.836364 
L 232.34124 -253.290909 
L 232.779473 -250.745455 
L 233.363154 -248.2 
L 234.095594 -245.654545 
L 234.970253 -243.109091 
L 235.969923 -240.563636 
L 237.066573 -238.018182 
L 238.222112 -235.472727 
L 239.39025 -232.927273 
L 240.519572 -230.381818 
L 241.557706 -227.836364 
L 242.456263 -225.290909 
L 243.175969 -222.745455 
L 243.691312 -220.2 
L 243.993994 -217.654545 
L 244.094634 -215.109091 
L 244.022474 -212.563636 
L 243.823122 -210.018182 
L 243.554762 -207.472727 
L 243.283445 -204.927273 
L 243.078201 -202.381818 
L 243.006646 -199.836364 
L 243.131562 -197.290909 
L 243.508677 -194.745455 
L 244.185522 -192.2 
L 245.201057 -189.654545 
L 246.585543 -187.109091 
L 248.360139 -184.563636 
L 250.53586 -182.018182 
L 253.111738 -179.472727 
L 256.072408 -176.927273 
L 259.385636 -174.381818 
L 263.000535 -171.836364 
L 266.847292 -169.290909 
L 270.839047 -166.745455 
L 274.876255 -164.2 
L 278.853404 -161.654545 
L 282.667466 -159.109091 
L 286.227088 -156.563636 
L 289.461323 -154.018182 
L 292.326645 -151.472727 
L 294.81127 -148.927273 
L 296.936111 -146.381818 
L 298.752233 -143.836364 
L 300.335157 -141.290909 
L 301.776848 -138.745455 
L 303.176528 -136.2 
L 304.631625 -133.654545 
L 306.230005 -131.109091 
L 308.044251 -128.563636 
L 310.128185 -126.018182 
L 312.515133 -123.472727 
L 315.21691 -120.927273 
L 318.222281 -118.381818 
L 321.493874 -115.836364 
L 324.963235 -113.290909 
L 328.524743 -110.745455 
L 332.030206 -108.2 
L 335.286715 -105.654545 
L 338.060484 -103.109091 
L 340.088708 -100.563636 
L 341.1 -98.018182 
L 340.841963 -95.472727 
L 339.112482 -92.927273 
L 335.789776 -90.381818 
L 330.855772 -87.836364 
L 324.408015 -85.290909 
L 316.657177 -82.745455 
L 307.909769 -80.2 
L 298.538421 -77.654545 
L 288.944356 -75.109091 
L 279.517941 -72.563636 
L 270.60326 -70.018182 
L 262.471512 -67.472727 
L 255.306054 -64.927273 
L 249.19966 -62.381818 
L 244.162451 -59.836364 
L 240.137509 -57.290909 
L 237.020546 -54.745455 
L 234.680105 -52.2 
z
" style="stroke: #3f3f3f; stroke-width: 1.25"/>
    </defs>
    <g clip-path="url(#p89eea419b1)">
     <use xlink:href="#mdd1e2701c6" x="0" y="360" style="fill: #3274a1; stroke: #3f3f3f; stroke-width: 1.25"/>
    </g>
   </g>
   <g id="FillBetweenPolyCollection_2">
    <defs>
     <path id="mb2da1b46c2" d="M 511.411667 -59.633561 
L 505.588333 -59.633561 
L 504.092829 -61.298358 
L 502.009409 -62.963155 
L 499.194801 -64.627952 
L 495.507301 -66.292749 
L 490.82245 -67.957546 
L 485.051883 -69.622343 
L 478.163507 -71.287141 
L 470.200468 -72.951938 
L 461.29588 -74.616735 
L 451.680212 -76.281532 
L 441.67869 -77.946329 
L 431.697024 -79.611126 
L 422.195345 -81.275923 
L 413.65205 -82.94072 
L 406.521205 -84.605517 
L 401.188783 -86.270315 
L 397.93377 -87.935112 
L 396.9 -89.599909 
L 398.083052 -91.264706 
L 401.334178 -92.929503 
L 406.380366 -94.5943 
L 412.856982 -96.259097 
L 420.347646 -97.923894 
L 428.425376 -99.588692 
L 436.689603 -101.253489 
L 444.795132 -102.918286 
L 452.470947 -104.583083 
L 459.528556 -106.24788 
L 465.860861 -107.912677 
L 471.433448 -109.577474 
L 476.270525 -111.242271 
L 480.437875 -112.907069 
L 484.025095 -114.571866 
L 487.129132 -116.236663 
L 489.840813 -117.90146 
L 492.235501 -119.566257 
L 494.368385 -121.231054 
L 496.274193 -122.895851 
L 497.970492 -124.560648 
L 499.463281 -126.225446 
L 500.753385 -127.890243 
L 501.84231 -129.55504 
L 502.736494 -131.219837 
L 503.449432 -132.884634 
L 504.00163 -134.549431 
L 504.418791 -136.214228 
L 504.728887 -137.879025 
L 504.958917 -139.543822 
L 505.132039 -141.20862 
L 505.265603 -142.873417 
L 505.370359 -144.538214 
L 505.450832 -146.203011 
L 505.506641 -147.867808 
L 505.534385 -149.532605 
L 505.529636 -151.197402 
L 505.488635 -152.862199 
L 505.409385 -154.526997 
L 505.292034 -156.191794 
L 505.138609 -157.856591 
L 504.952359 -159.521388 
L 504.73702 -161.186185 
L 504.49636 -162.850982 
L 504.234216 -164.515779 
L 503.95509 -166.180576 
L 503.665175 -167.845374 
L 503.373497 -169.510171 
L 503.092769 -171.174968 
L 502.839558 -172.839765 
L 502.633478 -174.504562 
L 502.495355 -176.169359 
L 502.444553 -177.834156 
L 502.495884 -179.498953 
L 502.656719 -181.163751 
L 502.924916 -182.828548 
L 503.288075 -184.493345 
L 503.72439 -186.158142 
L 504.205045 -187.822939 
L 504.697778 -189.487736 
L 505.171019 -191.152533 
L 505.597886 -192.81733 
L 505.959357 -194.482128 
L 506.246133 -196.146925 
L 506.458947 -197.811722 
L 506.607352 -199.476519 
L 506.707311 -201.141316 
L 506.778061 -202.806113 
L 506.838842 -204.47091 
L 506.906019 -206.135707 
L 506.991053 -207.800504 
L 507.099536 -209.465302 
L 507.231331 -211.130099 
L 507.381616 -212.794896 
L 507.542515 -214.459693 
L 507.704928 -216.12449 
L 507.86019 -217.789287 
L 508.001307 -219.454084 
L 508.123639 -221.118881 
L 508.22504 -222.783679 
L 508.305566 -224.448476 
L 508.694434 -224.448476 
L 508.694434 -224.448476 
L 508.77496 -222.783679 
L 508.876361 -221.118881 
L 508.998693 -219.454084 
L 509.13981 -217.789287 
L 509.295072 -216.12449 
L 509.457485 -214.459693 
L 509.618384 -212.794896 
L 509.768669 -211.130099 
L 509.900464 -209.465302 
L 510.008947 -207.800504 
L 510.093981 -206.135707 
L 510.161158 -204.47091 
L 510.221939 -202.806113 
L 510.292689 -201.141316 
L 510.392648 -199.476519 
L 510.541053 -197.811722 
L 510.753867 -196.146925 
L 511.040643 -194.482128 
L 511.402114 -192.81733 
L 511.828981 -191.152533 
L 512.302222 -189.487736 
L 512.794955 -187.822939 
L 513.27561 -186.158142 
L 513.711925 -184.493345 
L 514.075084 -182.828548 
L 514.343281 -181.163751 
L 514.504116 -179.498953 
L 514.555447 -177.834156 
L 514.504645 -176.169359 
L 514.366522 -174.504562 
L 514.160442 -172.839765 
L 513.907231 -171.174968 
L 513.626503 -169.510171 
L 513.334825 -167.845374 
L 513.04491 -166.180576 
L 512.765784 -164.515779 
L 512.50364 -162.850982 
L 512.26298 -161.186185 
L 512.047641 -159.521388 
L 511.861391 -157.856591 
L 511.707966 -156.191794 
L 511.590615 -154.526997 
L 511.511365 -152.862199 
L 511.470364 -151.197402 
L 511.465615 -149.532605 
L 511.493359 -147.867808 
L 511.549168 -146.203011 
L 511.629641 -144.538214 
L 511.734397 -142.873417 
L 511.867961 -141.20862 
L 512.041083 -139.543822 
L 512.271113 -137.879025 
L 512.581209 -136.214228 
L 512.99837 -134.549431 
L 513.550568 -132.884634 
L 514.263506 -131.219837 
L 515.15769 -129.55504 
L 516.246615 -127.890243 
L 517.536719 -126.225446 
L 519.029508 -124.560648 
L 520.725807 -122.895851 
L 522.631615 -121.231054 
L 524.764499 -119.566257 
L 527.159187 -117.90146 
L 529.870868 -116.236663 
L 532.974905 -114.571866 
L 536.562125 -112.907069 
L 540.729475 -111.242271 
L 545.566552 -109.577474 
L 551.139139 -107.912677 
L 557.471444 -106.24788 
L 564.529053 -104.583083 
L 572.204868 -102.918286 
L 580.310397 -101.253489 
L 588.574624 -99.588692 
L 596.652354 -97.923894 
L 604.143018 -96.259097 
L 610.619634 -94.5943 
L 615.665822 -92.929503 
L 618.916948 -91.264706 
L 620.1 -89.599909 
L 619.06623 -87.935112 
L 615.811217 -86.270315 
L 610.478795 -84.605517 
L 603.34795 -82.94072 
L 594.804655 -81.275923 
L 585.302976 -79.611126 
L 575.32131 -77.946329 
L 565.319788 -76.281532 
L 555.70412 -74.616735 
L 546.799532 -72.951938 
L 538.836493 -71.287141 
L 531.948117 -69.622343 
L 526.17755 -67.957546 
L 521.492699 -66.292749 
L 517.805199 -64.627952 
L 514.990591 -62.963155 
L 512.907171 -61.298358 
L 511.411667 -59.633561 
z
" style="stroke: #3f3f3f; stroke-width: 1.25"/>
    </defs>
    <g clip-path="url(#p89eea419b1)">
     <use xlink:href="#mb2da1b46c2" x="0" y="360" style="fill: #e1812c; stroke: #3f3f3f; stroke-width: 1.25"/>
    </g>
   </g>
   <g id="matplotlib.axis_1">
    <g id="xtick_1">
     <g id="line2d_1">
      <defs>
       <path id="m701845cb4e" d="M 0 0 
L 0 3.5 
" style="stroke: #000000; stroke-width: 0.8"/>
      </defs>
      <g>
       <use xlink:href="#m701845cb4e" x="229.5" y="320.4" style="stroke: #000000; stroke-width: 0.8"/>
      </g>
     </g>
     <g id="text_1">
      <!-- n -->
      <g transform="translate(226.33125 334.998438) scale(0.1 -0.1)">
       <defs>
        <path id="DejaVuSans-6e" d="M 3513 2113 
L 3513 0 
L 2938 0 
L 2938 2094 
Q 2938 2591 2744 2837 
Q 2550 3084 2163 3084 
Q 1697 3084 1428 2787 
Q 1159 2491 1159 1978 
L 1159 0 
L 581 0 
L 581 3500 
L 1159 3500 
L 1159 2956 
Q 1366 3272 1645 3428 
Q 1925 3584 2291 3584 
Q 2894 3584 3203 3211 
Q 3513 2838 3513 2113 
z
" transform="scale(0.015625)"/>
       </defs>
       <use xlink:href="#DejaVuSans-6e"/>
      </g>
     </g>
    </g>
    <g id="xtick_2">
     <g id="line2d_2">
      <g>
       <use xlink:href="#m701845cb4e" x="508.5" y="320.4" style="stroke: #000000; stroke-width: 0.8"/>
      </g>
     </g>
     <g id="text_2">
      <!-- y -->
      <g transform="translate(505.540625 334.998438) scale(0.1 -0.1)">
       <defs>
        <path id="DejaVuSans-79" d="M 2059 -325 
Q 1816 -950 1584 -1140 
Q 1353 -1331 966 -1331 
L 506 -1331 
L 506 -850 
L 844 -850 
Q 1081 -850 1212 -737 
Q 1344 -625 1503 -206 
L 1606 56 
L 191 3500 
L 800 3500 
L 1894 763 
L 2988 3500 
L 3597 3500 
L 2059 -325 
z
" transform="scale(0.015625)"/>
       </defs>
       <use xlink:href="#DejaVuSans-79"/>
      </g>
     </g>
    </g>
    <g id="text_3">
     <!-- value -->
     <g transform="translate(355.342188 348.676562) scale(0.1 -0.1)">
      <defs>
       <path id="DejaVuSans-76" d="M 191 3500 
L 800 3500 
L 1894 563 
L 2988 3500 
L 3597 3500 
L 2284 0 
L 1503 0 
L 191 3500 
z
" transform="scale(0.015625)"/>
       <path id="DejaVuSans-61" d="M 2194 1759 
Q 1497 1759 1228 1600 
Q 959 1441 959 1056 
Q 959 750 1161 570 
Q 1363 391 1709 391 
Q 2188 391 2477 730 
Q 2766 1069 2766 1631 
L 2766 1759 
L 2194 1759 
z
M 3341 1997 
L 3341 0 
L 2766 0 
L 2766 531 
Q 2569 213 2275 61 
Q 1981 -91 1556 -91 
Q 1019 -91 701 211 
Q 384 513 384 1019 
Q 384 1609 779 1909 
Q 1175 2209 1959 2209 
L 2766 2209 
L 2766 2266 
Q 2766 2663 2505 2880 
Q 2244 3097 1772 3097 
Q 1472 3097 1187 3025 
Q 903 2953 641 2809 
L 641 3341 
Q 956 3463 1253 3523 
Q 1550 3584 1831 3584 
Q 2591 3584 2966 3190 
Q 3341 2797 3341 1997 
z
" transform="scale(0.015625)"/>
       <path id="DejaVuSans-6c" d="M 603 4863 
L 1178 4863 
L 1178 0 
L 603 0 
L 603 4863 
z
" transform="scale(0.015625)"/>
       <path id="DejaVuSans-75" d="M 544 1381 
L 544 3500 
L 1119 3500 
L 1119 1403 
Q 1119 906 1312 657 
Q 1506 409 1894 409 
Q 2359 409 2629 706 
Q 2900 1003 2900 1516 
L 2900 3500 
L 3475 3500 
L 3475 0 
L 2900 0 
L 2900 538 
Q 2691 219 2414 64 
Q 2138 -91 1772 -91 
Q 1169 -91 856 284 
Q 544 659 544 1381 
z
M 1991 3584 
L 1991 3584 
z
" transform="scale(0.015625)"/>
       <path id="DejaVuSans-65" d="M 3597 1894 
L 3597 1613 
L 953 1613 
Q 991 1019 1311 708 
Q 1631 397 2203 397 
Q 2534 397 2845 478 
Q 3156 559 3463 722 
L 3463 178 
Q 3153 47 2828 -22 
Q 2503 -91 2169 -91 
Q 1331 -91 842 396 
Q 353 884 353 1716 
Q 353 2575 817 3079 
Q 1281 3584 2069 3584 
Q 2775 3584 3186 3129 
Q 3597 2675 3597 1894 
z
M 3022 2063 
Q 3016 2534 2758 2815 
Q 2500 3097 2075 3097 
Q 1594 3097 1305 2825 
Q 1016 2553 972 2059 
L 3022 2063 
z
" transform="scale(0.015625)"/>
      </defs>
      <use xlink:href="#DejaVuSans-76"/>
      <use xlink:href="#DejaVuSans-61" transform="translate(59.179688 0)"/>
      <use xlink:href="#DejaVuSans-6c" transform="translate(120.458984 0)"/>
      <use xlink:href="#DejaVuSans-75" transform="translate(148.242188 0)"/>
      <use xlink:href="#DejaVuSans-65" transform="translate(211.621094 0)"/>
     </g>
    </g>
   </g>
   <g id="matplotlib.axis_2">
    <g id="ytick_1">
     <g id="line2d_3">
      <defs>
       <path id="m46fd67012d" d="M 0 0 
L -3.5 0 
" style="stroke: #000000; stroke-width: 0.8"/>
      </defs>
      <g>
       <use xlink:href="#m46fd67012d" x="90" y="283.315781" style="stroke: #000000; stroke-width: 0.8"/>
      </g>
     </g>
     <g id="text_4">
      <!-- 0.0 -->
      <g transform="translate(67.096875 287.115) scale(0.1 -0.1)">
       <defs>
        <path id="DejaVuSans-30" d="M 2034 4250 
Q 1547 4250 1301 3770 
Q 1056 3291 1056 2328 
Q 1056 1369 1301 889 
Q 1547 409 2034 409 
Q 2525 409 2770 889 
Q 3016 1369 3016 2328 
Q 3016 3291 2770 3770 
Q 2525 4250 2034 4250 
z
M 2034 4750 
Q 2819 4750 3233 4129 
Q 3647 3509 3647 2328 
Q 3647 1150 3233 529 
Q 2819 -91 2034 -91 
Q 1250 -91 836 529 
Q 422 1150 422 2328 
Q 422 3509 836 4129 
Q 1250 4750 2034 4750 
z
" transform="scale(0.015625)"/>
        <path id="DejaVuSans-2e" d="M 684 794 
L 1344 794 
L 1344 0 
L 684 0 
L 684 794 
z
" transform="scale(0.015625)"/>
       </defs>
       <use xlink:href="#DejaVuSans-30"/>
       <use xlink:href="#DejaVuSans-2e" transform="translate(63.623047 0)"/>
       <use xlink:href="#DejaVuSans-30" transform="translate(95.410156 0)"/>
      </g>
     </g>
    </g>
    <g id="ytick_2">
     <g id="line2d_4">
      <g>
       <use xlink:href="#m46fd67012d" x="90" y="238.625046" style="stroke: #000000; stroke-width: 0.8"/>
      </g>
     </g>
     <g id="text_5">
      <!-- 0.5 -->
      <g transform="translate(67.096875 242.424265) scale(0.1 -0.1)">
       <defs>
        <path id="DejaVuSans-35" d="M 691 4666 
L 3169 4666 
L 3169 4134 
L 1269 4134 
L 1269 2991 
Q 1406 3038 1543 3061 
Q 1681 3084 1819 3084 
Q 2600 3084 3056 2656 
Q 3513 2228 3513 1497 
Q 3513 744 3044 326 
Q 2575 -91 1722 -91 
Q 1428 -91 1123 -41 
Q 819 9 494 109 
L 494 744 
Q 775 591 1075 516 
Q 1375 441 1709 441 
Q 2250 441 2565 725 
Q 2881 1009 2881 1497 
Q 2881 1984 2565 2268 
Q 2250 2553 1709 2553 
Q 1456 2553 1204 2497 
Q 953 2441 691 2322 
L 691 4666 
z
" transform="scale(0.015625)"/>
       </defs>
       <use xlink:href="#DejaVuSans-30"/>
       <use xlink:href="#DejaVuSans-2e" transform="translate(63.623047 0)"/>
       <use xlink:href="#DejaVuSans-35" transform="translate(95.410156 0)"/>
      </g>
     </g>
    </g>
    <g id="ytick_3">
     <g id="line2d_5">
      <g>
       <use xlink:href="#m46fd67012d" x="90" y="193.934312" style="stroke: #000000; stroke-width: 0.8"/>
      </g>
     </g>
     <g id="text_6">
      <!-- 1.0 -->
      <g transform="translate(67.096875 197.73353) scale(0.1 -0.1)">
       <defs>
        <path id="DejaVuSans-31" d="M 794 531 
L 1825 531 
L 1825 4091 
L 703 3866 
L 703 4441 
L 1819 4666 
L 2450 4666 
L 2450 531 
L 3481 531 
L 3481 0 
L 794 0 
L 794 531 
z
" transform="scale(0.015625)"/>
       </defs>
       <use xlink:href="#DejaVuSans-31"/>
       <use xlink:href="#DejaVuSans-2e" transform="translate(63.623047 0)"/>
       <use xlink:href="#DejaVuSans-30" transform="translate(95.410156 0)"/>
      </g>
     </g>
    </g>
    <g id="ytick_4">
     <g id="line2d_6">
      <g>
       <use xlink:href="#m46fd67012d" x="90" y="149.243577" style="stroke: #000000; stroke-width: 0.8"/>
      </g>
     </g>
     <g id="text_7">
      <!-- 1.5 -->
      <g transform="translate(67.096875 153.042796) scale(0.1 -0.1)">
       <use xlink:href="#DejaVuSans-31"/>
       <use xlink:href="#DejaVuSans-2e" transform="translate(63.623047 0)"/>
       <use xlink:href="#DejaVuSans-35" transform="translate(95.410156 0)"/>
      </g>
     </g>
    </g>
    <g id="ytick_5">
     <g id="line2d_7">
      <g>
       <use xlink:href="#m46fd67012d" x="90" y="104.552842" style="stroke: #000000; stroke-width: 0.8"/>
      </g>
     </g>
     <g id="text_8">
      <!-- 2.0 -->
      <g transform="translate(67.096875 108.352061) scale(0.1 -0.1)">
       <defs>
        <path id="DejaVuSans-32" d="M 1228 531 
L 3431 531 
L 3431 0 
L 469 0 
L 469 531 
Q 828 903 1448 1529 
Q 2069 2156 2228 2338 
Q 2531 2678 2651 2914 
Q 2772 3150 2772 3378 
Q 2772 3750 2511 3984 
Q 2250 4219 1831 4219 
Q 1534 4219 1204 4116 
Q 875 4013 500 3803 
L 500 4441 
Q 881 4594 1212 4672 
Q 1544 4750 1819 4750 
Q 2544 4750 2975 4387 
Q 3406 4025 3406 3419 
Q 3406 3131 3298 2873 
Q 3191 2616 2906 2266 
Q 2828 2175 2409 1742 
Q 1991 1309 1228 531 
z
" transform="scale(0.015625)"/>
       </defs>
       <use xlink:href="#DejaVuSans-32"/>
       <use xlink:href="#DejaVuSans-2e" transform="translate(63.623047 0)"/>
       <use xlink:href="#DejaVuSans-30" transform="translate(95.410156 0)"/>
      </g>
     </g>
    </g>
    <g id="ytick_6">
     <g id="line2d_8">
      <g>
       <use xlink:href="#m46fd67012d" x="90" y="59.862108" style="stroke: #000000; stroke-width: 0.8"/>
      </g>
     </g>
     <g id="text_9">
      <!-- 2.5 -->
      <g transform="translate(67.096875 63.661326) scale(0.1 -0.1)">
       <use xlink:href="#DejaVuSans-32"/>
       <use xlink:href="#DejaVuSans-2e" transform="translate(63.623047 0)"/>
       <use xlink:href="#DejaVuSans-35" transform="translate(95.410156 0)"/>
      </g>
     </g>
    </g>
    <g id="text_10">
     <!-- cont_variable -->
     <g transform="translate(60.739062 215.409375) rotate(-90) scale(0.1 -0.1)">
      <defs>
       <path id="DejaVuSans-63" d="M 3122 3366 
L 3122 2828 
Q 2878 2963 2633 3030 
Q 2388 3097 2138 3097 
Q 1578 3097 1268 2742 
Q 959 2388 959 1747 
Q 959 1106 1268 751 
Q 1578 397 2138 397 
Q 2388 397 2633 464 
Q 2878 531 3122 666 
L 3122 134 
Q 2881 22 2623 -34 
Q 2366 -91 2075 -91 
Q 1284 -91 818 406 
Q 353 903 353 1747 
Q 353 2603 823 3093 
Q 1294 3584 2113 3584 
Q 2378 3584 2631 3529 
Q 2884 3475 3122 3366 
z
" transform="scale(0.015625)"/>
       <path id="DejaVuSans-6f" d="M 1959 3097 
Q 1497 3097 1228 2736 
Q 959 2375 959 1747 
Q 959 1119 1226 758 
Q 1494 397 1959 397 
Q 2419 397 2687 759 
Q 2956 1122 2956 1747 
Q 2956 2369 2687 2733 
Q 2419 3097 1959 3097 
z
M 1959 3584 
Q 2709 3584 3137 3096 
Q 3566 2609 3566 1747 
Q 3566 888 3137 398 
Q 2709 -91 1959 -91 
Q 1206 -91 779 398 
Q 353 888 353 1747 
Q 353 2609 779 3096 
Q 1206 3584 1959 3584 
z
" transform="scale(0.015625)"/>
       <path id="DejaVuSans-74" d="M 1172 4494 
L 1172 3500 
L 2356 3500 
L 2356 3053 
L 1172 3053 
L 1172 1153 
Q 1172 725 1289 603 
Q 1406 481 1766 481 
L 2356 481 
L 2356 0 
L 1766 0 
Q 1100 0 847 248 
Q 594 497 594 1153 
L 594 3053 
L 172 3053 
L 172 3500 
L 594 3500 
L 594 4494 
L 1172 4494 
z
" transform="scale(0.015625)"/>
       <path id="DejaVuSans-5f" d="M 3263 -1063 
L 3263 -1509 
L -63 -1509 
L -63 -1063 
L 3263 -1063 
z
" transform="scale(0.015625)"/>
       <path id="DejaVuSans-72" d="M 2631 2963 
Q 2534 3019 2420 3045 
Q 2306 3072 2169 3072 
Q 1681 3072 1420 2755 
Q 1159 2438 1159 1844 
L 1159 0 
L 581 0 
L 581 3500 
L 1159 3500 
L 1159 2956 
Q 1341 3275 1631 3429 
Q 1922 3584 2338 3584 
Q 2397 3584 2469 3576 
Q 2541 3569 2628 3553 
L 2631 2963 
z
" transform="scale(0.015625)"/>
       <path id="DejaVuSans-69" d="M 603 3500 
L 1178 3500 
L 1178 0 
L 603 0 
L 603 3500 
z
M 603 4863 
L 1178 4863 
L 1178 4134 
L 603 4134 
L 603 4863 
z
" transform="scale(0.015625)"/>
       <path id="DejaVuSans-62" d="M 3116 1747 
Q 3116 2381 2855 2742 
Q 2594 3103 2138 3103 
Q 1681 3103 1420 2742 
Q 1159 2381 1159 1747 
Q 1159 1113 1420 752 
Q 1681 391 2138 391 
Q 2594 391 2855 752 
Q 3116 1113 3116 1747 
z
M 1159 2969 
Q 1341 3281 1617 3432 
Q 1894 3584 2278 3584 
Q 2916 3584 3314 3078 
Q 3713 2572 3713 1747 
Q 3713 922 3314 415 
Q 2916 -91 2278 -91 
Q 1894 -91 1617 61 
Q 1341 213 1159 525 
L 1159 0 
L 581 0 
L 581 4863 
L 1159 4863 
L 1159 2969 
z
" transform="scale(0.015625)"/>
      </defs>
      <use xlink:href="#DejaVuSans-63"/>
      <use xlink:href="#DejaVuSans-6f" transform="translate(54.980469 0)"/>
      <use xlink:href="#DejaVuSans-6e" transform="translate(116.162109 0)"/>
      <use xlink:href="#DejaVuSans-74" transform="translate(179.541016 0)"/>
      <use xlink:href="#DejaVuSans-5f" transform="translate(218.75 0)"/>
      <use xlink:href="#DejaVuSans-76" transform="translate(268.75 0)"/>
      <use xlink:href="#DejaVuSans-61" transform="translate(327.929688 0)"/>
      <use xlink:href="#DejaVuSans-72" transform="translate(389.208984 0)"/>
      <use xlink:href="#DejaVuSans-69" transform="translate(430.322266 0)"/>
      <use xlink:href="#DejaVuSans-61" transform="translate(458.105469 0)"/>
      <use xlink:href="#DejaVuSans-62" transform="translate(519.384766 0)"/>
      <use xlink:href="#DejaVuSans-6c" transform="translate(582.861328 0)"/>
      <use xlink:href="#DejaVuSans-65" transform="translate(610.644531 0)"/>
     </g>
    </g>
   </g>
   <g id="patch_3">
    <path d="M 90 320.4 
L 90 43.2 
" style="fill: none; stroke: #000000; stroke-width: 0.8; stroke-linejoin: miter; stroke-linecap: square"/>
   </g>
   <g id="patch_4">
    <path d="M 648 320.4 
L 648 43.2 
" style="fill: none; stroke: #000000; stroke-width: 0.8; stroke-linejoin: miter; stroke-linecap: square"/>
   </g>
   <g id="patch_5">
    <path d="M 90 320.4 
L 648 320.4 
" style="fill: none; stroke: #000000; stroke-width: 0.8; stroke-linejoin: miter; stroke-linecap: square"/>
   </g>
   <g id="patch_6">
    <path d="M 90 43.2 
L 648 43.2 
" style="fill: none; stroke: #000000; stroke-width: 0.8; stroke-linejoin: miter; stroke-linecap: square"/>
   </g>
   <g id="PathCollection_1">
    <defs>
     <path id="m1592e99943" d="M 0 2.5 
C 0.663008 2.5 1.29895 2.236584 1.767767 1.767767 
C 2.236584 1.29895 2.5 0.663008 2.5 0 
C 2.5 -0.663008 2.236584 -1.29895 1.767767 -1.767767 
C 1.29895 -2.236584 0.663008 -2.5 0 -2.5 
C -0.663008 -2.5 -1.29895 -2.236584 -1.767767 -1.767767 
C -2.236584 -1.29895 -2.5 -0.663008 -2.5 0 
C -2.5 0.663008 -2.236584 1.29895 -1.767767 1.767767 
C -1.29895 2.236584 -0.663008 2.5 0 2.5 
z
"/>
    </defs>
    <g clip-path="url(#p89eea419b1)">
     <use xlink:href="#m1592e99943" x="215.862185" y="275.162188" style="fill-opacity: 0.3"/>
     <use xlink:href="#m1592e99943" x="224.227134" y="267.998721" style="fill-opacity: 0.3"/>
     <use xlink:href="#m1592e99943" x="216.692464" y="275.763281" style="fill-opacity: 0.3"/>
     <use xlink:href="#m1592e99943" x="237.621345" y="272.826354" style="fill-opacity: 0.3"/>
     <use xlink:href="#m1592e99943" x="232.663788" y="265.555927" style="fill-opacity: 0.3"/>
     <use xlink:href="#m1592e99943" x="203.559227" y="200.063454" style="fill-opacity: 0.3"/>
     <use xlink:href="#m1592e99943" x="221.460948" y="271.414787" style="fill-opacity: 0.3"/>
     <use xlink:href="#m1592e99943" x="227.502342" y="275.684384" style="fill-opacity: 0.3"/>
     <use xlink:href="#m1592e99943" x="253.577059" y="274.772617" style="fill-opacity: 0.3"/>
     <use xlink:href="#m1592e99943" x="205.044016" y="256.784243" style="fill-opacity: 0.3"/>
     <use xlink:href="#m1592e99943" x="229.774581" y="275.902428" style="fill-opacity: 0.3"/>
     <use xlink:href="#m1592e99943" x="234.831611" y="275.752697" style="fill-opacity: 0.3"/>
     <use xlink:href="#m1592e99943" x="247.264822" y="274.042189" style="fill-opacity: 0.3"/>
     <use xlink:href="#m1592e99943" x="247.476325" y="275.421487" style="fill-opacity: 0.3"/>
     <use xlink:href="#m1592e99943" x="230.333702" y="274.655311" style="fill-opacity: 0.3"/>
     <use xlink:href="#m1592e99943" x="241.886589" y="277.552583" style="fill-opacity: 0.3"/>
     <use xlink:href="#m1592e99943" x="232.955401" y="226.927618" style="fill-opacity: 0.3"/>
     <use xlink:href="#m1592e99943" x="201.916446" y="239.41781" style="fill-opacity: 0.3"/>
     <use xlink:href="#m1592e99943" x="235.200673" y="237.92064" style="fill-opacity: 0.3"/>
     <use xlink:href="#m1592e99943" x="241.448259" y="216.880935" style="fill-opacity: 0.3"/>
     <use xlink:href="#m1592e99943" x="237.931671" y="271.458392" style="fill-opacity: 0.3"/>
     <use xlink:href="#m1592e99943" x="251.538593" y="258.323842" style="fill-opacity: 0.3"/>
     <use xlink:href="#m1592e99943" x="234.929327" y="244.177217" style="fill-opacity: 0.3"/>
     <use xlink:href="#m1592e99943" x="246.457051" y="137.08598" style="fill-opacity: 0.3"/>
     <use xlink:href="#m1592e99943" x="217.940921" y="261.737012" style="fill-opacity: 0.3"/>
     <use xlink:href="#m1592e99943" x="223.455825" y="240.904263" style="fill-opacity: 0.3"/>
     <use xlink:href="#m1592e99943" x="203.851202" y="199.818016" style="fill-opacity: 0.3"/>
     <use xlink:href="#m1592e99943" x="209.116692" y="246.509536" style="fill-opacity: 0.3"/>
     <use xlink:href="#m1592e99943" x="219.818394" y="139.221643" style="fill-opacity: 0.3"/>
     <use xlink:href="#m1592e99943" x="247.119065" y="261.750986" style="fill-opacity: 0.3"/>
     <use xlink:href="#m1592e99943" x="211.462086" y="240.111928" style="fill-opacity: 0.3"/>
     <use xlink:href="#m1592e99943" x="238.357277" y="197.692572" style="fill-opacity: 0.3"/>
     <use xlink:href="#m1592e99943" x="234.559719" y="255.467045" style="fill-opacity: 0.3"/>
     <use xlink:href="#m1592e99943" x="226.687337" y="254.94722" style="fill-opacity: 0.3"/>
     <use xlink:href="#m1592e99943" x="219.292036" y="236.090919" style="fill-opacity: 0.3"/>
     <use xlink:href="#m1592e99943" x="214.659741" y="257.736278" style="fill-opacity: 0.3"/>
     <use xlink:href="#m1592e99943" x="213.703647" y="228.721176" style="fill-opacity: 0.3"/>
     <use xlink:href="#m1592e99943" x="248.802205" y="228.610323" style="fill-opacity: 0.3"/>
     <use xlink:href="#m1592e99943" x="248.733464" y="175.250502" style="fill-opacity: 0.3"/>
     <use xlink:href="#m1592e99943" x="243.190714" y="86.047417" style="fill-opacity: 0.3"/>
     <use xlink:href="#m1592e99943" x="251.026412" y="259.287437" style="fill-opacity: 0.3"/>
     <use xlink:href="#m1592e99943" x="227.479674" y="262.130144" style="fill-opacity: 0.3"/>
     <use xlink:href="#m1592e99943" x="253.70948" y="143.527415" style="fill-opacity: 0.3"/>
     <use xlink:href="#m1592e99943" x="245.997976" y="245.91456" style="fill-opacity: 0.3"/>
     <use xlink:href="#m1592e99943" x="201.643392" y="233.561815" style="fill-opacity: 0.3"/>
     <use xlink:href="#m1592e99943" x="239.063608" y="246.9828" style="fill-opacity: 0.3"/>
     <use xlink:href="#m1592e99943" x="231.37202" y="273.641123" style="fill-opacity: 0.3"/>
     <use xlink:href="#m1592e99943" x="227.219458" y="269.343874" style="fill-opacity: 0.3"/>
     <use xlink:href="#m1592e99943" x="245.351033" y="245.487074" style="fill-opacity: 0.3"/>
     <use xlink:href="#m1592e99943" x="249.156888" y="269.395968" style="fill-opacity: 0.3"/>
     <use xlink:href="#m1592e99943" x="203.364267" y="266.947338" style="fill-opacity: 0.3"/>
     <use xlink:href="#m1592e99943" x="253.356237" y="271.76147" style="fill-opacity: 0.3"/>
     <use xlink:href="#m1592e99943" x="243.033219" y="217.34685" style="fill-opacity: 0.3"/>
     <use xlink:href="#m1592e99943" x="244.74683" y="220.784995" style="fill-opacity: 0.3"/>
     <use xlink:href="#m1592e99943" x="214.781704" y="124.210767" style="fill-opacity: 0.3"/>
     <use xlink:href="#m1592e99943" x="216.470213" y="214.677972" style="fill-opacity: 0.3"/>
     <use xlink:href="#m1592e99943" x="204.934954" y="266.281861" style="fill-opacity: 0.3"/>
     <use xlink:href="#m1592e99943" x="227.302757" y="180.868224" style="fill-opacity: 0.3"/>
     <use xlink:href="#m1592e99943" x="251.492153" y="267.328291" style="fill-opacity: 0.3"/>
     <use xlink:href="#m1592e99943" x="207.08104" y="263.581486" style="fill-opacity: 0.3"/>
     <use xlink:href="#m1592e99943" x="229.985815" y="204.859445" style="fill-opacity: 0.3"/>
     <use xlink:href="#m1592e99943" x="241.570486" y="156.903404" style="fill-opacity: 0.3"/>
     <use xlink:href="#m1592e99943" x="217.890029" y="141.433881" style="fill-opacity: 0.3"/>
     <use xlink:href="#m1592e99943" x="225.923094" y="264.068196" style="fill-opacity: 0.3"/>
     <use xlink:href="#m1592e99943" x="255.837547" y="268.323484" style="fill-opacity: 0.3"/>
     <use xlink:href="#m1592e99943" x="213.972021" y="263.744314" style="fill-opacity: 0.3"/>
     <use xlink:href="#m1592e99943" x="236.013734" y="265.922402" style="fill-opacity: 0.3"/>
     <use xlink:href="#m1592e99943" x="252.138579" y="156.593542" style="fill-opacity: 0.3"/>
     <use xlink:href="#m1592e99943" x="236.246817" y="205.154499" style="fill-opacity: 0.3"/>
     <use xlink:href="#m1592e99943" x="212.769654" y="187.524191" style="fill-opacity: 0.3"/>
     <use xlink:href="#m1592e99943" x="254.205595" y="211.923256" style="fill-opacity: 0.3"/>
     <use xlink:href="#m1592e99943" x="251.44514" y="247.88891" style="fill-opacity: 0.3"/>
     <use xlink:href="#m1592e99943" x="203.279788" y="256.028418" style="fill-opacity: 0.3"/>
     <use xlink:href="#m1592e99943" x="253.107651" y="207.956482" style="fill-opacity: 0.3"/>
     <use xlink:href="#m1592e99943" x="214.697432" y="276.073718" style="fill-opacity: 0.3"/>
     <use xlink:href="#m1592e99943" x="246.810529" y="276.52725" style="fill-opacity: 0.3"/>
     <use xlink:href="#m1592e99943" x="243.239931" y="222.624453" style="fill-opacity: 0.3"/>
     <use xlink:href="#m1592e99943" x="216.368856" y="208.451711" style="fill-opacity: 0.3"/>
     <use xlink:href="#m1592e99943" x="219.70952" y="201.095132" style="fill-opacity: 0.3"/>
     <use xlink:href="#m1592e99943" x="234.354292" y="244.838187" style="fill-opacity: 0.3"/>
     <use xlink:href="#m1592e99943" x="248.114934" y="242.718393" style="fill-opacity: 0.3"/>
     <use xlink:href="#m1592e99943" x="206.332269" y="255.026473" style="fill-opacity: 0.3"/>
     <use xlink:href="#m1592e99943" x="234.315533" y="234.273871" style="fill-opacity: 0.3"/>
     <use xlink:href="#m1592e99943" x="249.680851" y="215.844694" style="fill-opacity: 0.3"/>
     <use xlink:href="#m1592e99943" x="239.849832" y="263.219608" style="fill-opacity: 0.3"/>
     <use xlink:href="#m1592e99943" x="207.905479" y="275.683957" style="fill-opacity: 0.3"/>
     <use xlink:href="#m1592e99943" x="255.381949" y="205.839669" style="fill-opacity: 0.3"/>
     <use xlink:href="#m1592e99943" x="213.515055" y="223.078166" style="fill-opacity: 0.3"/>
     <use xlink:href="#m1592e99943" x="215.436538" y="270.460262" style="fill-opacity: 0.3"/>
     <use xlink:href="#m1592e99943" x="251.401289" y="251.241133" style="fill-opacity: 0.3"/>
     <use xlink:href="#m1592e99943" x="242.904801" y="238.578971" style="fill-opacity: 0.3"/>
     <use xlink:href="#m1592e99943" x="205.869457" y="245.622912" style="fill-opacity: 0.3"/>
     <use xlink:href="#m1592e99943" x="227.461017" y="250.61535" style="fill-opacity: 0.3"/>
     <use xlink:href="#m1592e99943" x="207.488312" y="270.960544" style="fill-opacity: 0.3"/>
     <use xlink:href="#m1592e99943" x="251.333028" y="262.72006" style="fill-opacity: 0.3"/>
     <use xlink:href="#m1592e99943" x="209.602951" y="263.946589" style="fill-opacity: 0.3"/>
     <use xlink:href="#m1592e99943" x="249.739389" y="197.367097" style="fill-opacity: 0.3"/>
     <use xlink:href="#m1592e99943" x="228.661737" y="207.053933" style="fill-opacity: 0.3"/>
     <use xlink:href="#m1592e99943" x="223.556222" y="226.436644" style="fill-opacity: 0.3"/>
     <use xlink:href="#m1592e99943" x="231.962667" y="221.877378" style="fill-opacity: 0.3"/>
     <use xlink:href="#m1592e99943" x="239.326126" y="225.195863" style="fill-opacity: 0.3"/>
     <use xlink:href="#m1592e99943" x="256.047733" y="210.113599" style="fill-opacity: 0.3"/>
     <use xlink:href="#m1592e99943" x="256.345863" y="274.163659" style="fill-opacity: 0.3"/>
     <use xlink:href="#m1592e99943" x="202.465768" y="239.850868" style="fill-opacity: 0.3"/>
     <use xlink:href="#m1592e99943" x="241.914385" y="235.254046" style="fill-opacity: 0.3"/>
     <use xlink:href="#m1592e99943" x="235.394326" y="217.511545" style="fill-opacity: 0.3"/>
     <use xlink:href="#m1592e99943" x="237.813895" y="219.964486" style="fill-opacity: 0.3"/>
     <use xlink:href="#m1592e99943" x="215.693468" y="202.764989" style="fill-opacity: 0.3"/>
     <use xlink:href="#m1592e99943" x="219.623197" y="213.848237" style="fill-opacity: 0.3"/>
     <use xlink:href="#m1592e99943" x="237.834071" y="249.396234" style="fill-opacity: 0.3"/>
     <use xlink:href="#m1592e99943" x="217.639642" y="217.075433" style="fill-opacity: 0.3"/>
     <use xlink:href="#m1592e99943" x="212.920399" y="273.083041" style="fill-opacity: 0.3"/>
     <use xlink:href="#m1592e99943" x="251.098874" y="274.266949" style="fill-opacity: 0.3"/>
     <use xlink:href="#m1592e99943" x="214.246206" y="193.849959" style="fill-opacity: 0.3"/>
     <use xlink:href="#m1592e99943" x="251.345413" y="175.274469" style="fill-opacity: 0.3"/>
     <use xlink:href="#m1592e99943" x="247.164103" y="190.277542" style="fill-opacity: 0.3"/>
     <use xlink:href="#m1592e99943" x="208.112445" y="241.69357" style="fill-opacity: 0.3"/>
     <use xlink:href="#m1592e99943" x="232.661282" y="270.627173" style="fill-opacity: 0.3"/>
     <use xlink:href="#m1592e99943" x="256.063185" y="203.331698" style="fill-opacity: 0.3"/>
     <use xlink:href="#m1592e99943" x="237.499373" y="140.145868" style="fill-opacity: 0.3"/>
    </g>
   </g>
   <g id="PathCollection_2">
    <g clip-path="url(#p89eea419b1)">
     <use xlink:href="#m1592e99943" x="493.193342" y="255.906496" style="fill-opacity: 0.3"/>
     <use xlink:href="#m1592e99943" x="485.584896" y="258.79401" style="fill-opacity: 0.3"/>
     <use xlink:href="#m1592e99943" x="530.902586" y="263.076737" style="fill-opacity: 0.3"/>
     <use xlink:href="#m1592e99943" x="520.205414" y="261.288916" style="fill-opacity: 0.3"/>
     <use xlink:href="#m1592e99943" x="486.41515" y="261.046427" style="fill-opacity: 0.3"/>
     <use xlink:href="#m1592e99943" x="533.129459" y="265.368049" style="fill-opacity: 0.3"/>
     <use xlink:href="#m1592e99943" x="493.157616" y="238.886861" style="fill-opacity: 0.3"/>
     <use xlink:href="#m1592e99943" x="506.226278" y="258.690827" style="fill-opacity: 0.3"/>
     <use xlink:href="#m1592e99943" x="534.892653" y="246.115695" style="fill-opacity: 0.3"/>
     <use xlink:href="#m1592e99943" x="513.715907" y="250.464784" style="fill-opacity: 0.3"/>
     <use xlink:href="#m1592e99943" x="489.304648" y="259.73734" style="fill-opacity: 0.3"/>
     <use xlink:href="#m1592e99943" x="500.391279" y="240.845504" style="fill-opacity: 0.3"/>
     <use xlink:href="#m1592e99943" x="512.728449" y="247.971057" style="fill-opacity: 0.3"/>
     <use xlink:href="#m1592e99943" x="483.373582" y="255.056303" style="fill-opacity: 0.3"/>
     <use xlink:href="#m1592e99943" x="493.123411" y="270.27354" style="fill-opacity: 0.3"/>
     <use xlink:href="#m1592e99943" x="500.997563" y="268.862367" style="fill-opacity: 0.3"/>
     <use xlink:href="#m1592e99943" x="504.702511" y="272.400871" style="fill-opacity: 0.3"/>
     <use xlink:href="#m1592e99943" x="488.429803" y="269.240328" style="fill-opacity: 0.3"/>
     <use xlink:href="#m1592e99943" x="487.644916" y="266.935935" style="fill-opacity: 0.3"/>
     <use xlink:href="#m1592e99943" x="526.793769" y="272.087166" style="fill-opacity: 0.3"/>
     <use xlink:href="#m1592e99943" x="529.183434" y="270.980597" style="fill-opacity: 0.3"/>
     <use xlink:href="#m1592e99943" x="482.427902" y="271.061173" style="fill-opacity: 0.3"/>
     <use xlink:href="#m1592e99943" x="503.740867" y="269.895811" style="fill-opacity: 0.3"/>
     <use xlink:href="#m1592e99943" x="515.538677" y="275.950703" style="fill-opacity: 0.3"/>
     <use xlink:href="#m1592e99943" x="528.232841" y="269.847603" style="fill-opacity: 0.3"/>
     <use xlink:href="#m1592e99943" x="530.835097" y="258.574577" style="fill-opacity: 0.3"/>
     <use xlink:href="#m1592e99943" x="492.353117" y="271.603351" style="fill-opacity: 0.3"/>
     <use xlink:href="#m1592e99943" x="520.480226" y="272.556048" style="fill-opacity: 0.3"/>
     <use xlink:href="#m1592e99943" x="501.709016" y="264.084997" style="fill-opacity: 0.3"/>
     <use xlink:href="#m1592e99943" x="508.708598" y="259.63626" style="fill-opacity: 0.3"/>
     <use xlink:href="#m1592e99943" x="511.122002" y="270.118123" style="fill-opacity: 0.3"/>
     <use xlink:href="#m1592e99943" x="526.501" y="270.833057" style="fill-opacity: 0.3"/>
     <use xlink:href="#m1592e99943" x="497.786151" y="267.274931" style="fill-opacity: 0.3"/>
     <use xlink:href="#m1592e99943" x="505.832772" y="267.910351" style="fill-opacity: 0.3"/>
     <use xlink:href="#m1592e99943" x="501.842588" y="276.755653" style="fill-opacity: 0.3"/>
     <use xlink:href="#m1592e99943" x="533.291731" y="271.107575" style="fill-opacity: 0.3"/>
     <use xlink:href="#m1592e99943" x="517.830221" y="269.667154" style="fill-opacity: 0.3"/>
     <use xlink:href="#m1592e99943" x="499.757965" y="278.329461" style="fill-opacity: 0.3"/>
     <use xlink:href="#m1592e99943" x="509.272593" y="272.433649" style="fill-opacity: 0.3"/>
     <use xlink:href="#m1592e99943" x="515.733216" y="215.173924" style="fill-opacity: 0.3"/>
     <use xlink:href="#m1592e99943" x="485.811388" y="201.157858" style="fill-opacity: 0.3"/>
     <use xlink:href="#m1592e99943" x="522.344183" y="193.148786" style="fill-opacity: 0.3"/>
     <use xlink:href="#m1592e99943" x="507.727484" y="180.884131" style="fill-opacity: 0.3"/>
     <use xlink:href="#m1592e99943" x="483.172822" y="281.023582" style="fill-opacity: 0.3"/>
     <use xlink:href="#m1592e99943" x="483.237094" y="281.562631" style="fill-opacity: 0.3"/>
     <use xlink:href="#m1592e99943" x="498.500164" y="281.998274" style="fill-opacity: 0.3"/>
     <use xlink:href="#m1592e99943" x="521.987164" y="281.652662" style="fill-opacity: 0.3"/>
     <use xlink:href="#m1592e99943" x="481.427678" y="281.250938" style="fill-opacity: 0.3"/>
     <use xlink:href="#m1592e99943" x="502.868832" y="280.533821" style="fill-opacity: 0.3"/>
     <use xlink:href="#m1592e99943" x="501.533223" y="280.452126" style="fill-opacity: 0.3"/>
     <use xlink:href="#m1592e99943" x="504.983485" y="280.851774" style="fill-opacity: 0.3"/>
     <use xlink:href="#m1592e99943" x="498.839413" y="281.218476" style="fill-opacity: 0.3"/>
     <use xlink:href="#m1592e99943" x="508.397998" y="244.943842" style="fill-opacity: 0.3"/>
     <use xlink:href="#m1592e99943" x="486.292269" y="153.919689" style="fill-opacity: 0.3"/>
     <use xlink:href="#m1592e99943" x="506.098725" y="177.458602" style="fill-opacity: 0.3"/>
     <use xlink:href="#m1592e99943" x="525.668619" y="175.830807" style="fill-opacity: 0.3"/>
     <use xlink:href="#m1592e99943" x="505.209854" y="185.252234" style="fill-opacity: 0.3"/>
     <use xlink:href="#m1592e99943" x="505.615344" y="236.978337" style="fill-opacity: 0.3"/>
     <use xlink:href="#m1592e99943" x="520.347101" y="223.619166" style="fill-opacity: 0.3"/>
     <use xlink:href="#m1592e99943" x="528.045499" y="244.556639" style="fill-opacity: 0.3"/>
     <use xlink:href="#m1592e99943" x="495.598094" y="244.661863" style="fill-opacity: 0.3"/>
     <use xlink:href="#m1592e99943" x="493.135259" y="270.196689" style="fill-opacity: 0.3"/>
     <use xlink:href="#m1592e99943" x="488.31189" y="261.219868" style="fill-opacity: 0.3"/>
     <use xlink:href="#m1592e99943" x="530.723027" y="269.171683" style="fill-opacity: 0.3"/>
     <use xlink:href="#m1592e99943" x="496.495527" y="269.092322" style="fill-opacity: 0.3"/>
     <use xlink:href="#m1592e99943" x="484.899152" y="266.384616" style="fill-opacity: 0.3"/>
     <use xlink:href="#m1592e99943" x="511.597102" y="269.450832" style="fill-opacity: 0.3"/>
     <use xlink:href="#m1592e99943" x="523.380408" y="272.695577" style="fill-opacity: 0.3"/>
     <use xlink:href="#m1592e99943" x="488.182782" y="272.278263" style="fill-opacity: 0.3"/>
     <use xlink:href="#m1592e99943" x="485.509704" y="273.208289" style="fill-opacity: 0.3"/>
     <use xlink:href="#m1592e99943" x="500.846983" y="254.331731" style="fill-opacity: 0.3"/>
     <use xlink:href="#m1592e99943" x="534.044972" y="258.240662" style="fill-opacity: 0.3"/>
     <use xlink:href="#m1592e99943" x="526.012385" y="270.487044" style="fill-opacity: 0.3"/>
     <use xlink:href="#m1592e99943" x="529.776295" y="263.753024" style="fill-opacity: 0.3"/>
     <use xlink:href="#m1592e99943" x="490.48995" y="272.77997" style="fill-opacity: 0.3"/>
     <use xlink:href="#m1592e99943" x="526.798283" y="270.622619" style="fill-opacity: 0.3"/>
     <use xlink:href="#m1592e99943" x="481.088414" y="270.715606" style="fill-opacity: 0.3"/>
     <use xlink:href="#m1592e99943" x="482.938007" y="269.412257" style="fill-opacity: 0.3"/>
     <use xlink:href="#m1592e99943" x="498.61462" y="271.022357" style="fill-opacity: 0.3"/>
     <use xlink:href="#m1592e99943" x="504.441754" y="268.774268" style="fill-opacity: 0.3"/>
     <use xlink:href="#m1592e99943" x="490.305614" y="265.631954" style="fill-opacity: 0.3"/>
     <use xlink:href="#m1592e99943" x="509.431448" y="260.488693" style="fill-opacity: 0.3"/>
     <use xlink:href="#m1592e99943" x="527.547581" y="266.475909" style="fill-opacity: 0.3"/>
     <use xlink:href="#m1592e99943" x="500.454154" y="260.242734" style="fill-opacity: 0.3"/>
     <use xlink:href="#m1592e99943" x="492.026319" y="268.398246" style="fill-opacity: 0.3"/>
     <use xlink:href="#m1592e99943" x="532.507128" y="265.219151" style="fill-opacity: 0.3"/>
     <use xlink:href="#m1592e99943" x="533.248505" y="264.981408" style="fill-opacity: 0.3"/>
     <use xlink:href="#m1592e99943" x="494.72108" y="271.064779" style="fill-opacity: 0.3"/>
     <use xlink:href="#m1592e99943" x="501.68747" y="264.753264" style="fill-opacity: 0.3"/>
     <use xlink:href="#m1592e99943" x="535.573502" y="250.274167" style="fill-opacity: 0.3"/>
     <use xlink:href="#m1592e99943" x="526.812179" y="262.208532" style="fill-opacity: 0.3"/>
     <use xlink:href="#m1592e99943" x="486.179286" y="268.789601" style="fill-opacity: 0.3"/>
     <use xlink:href="#m1592e99943" x="518.893314" y="273.186733" style="fill-opacity: 0.3"/>
     <use xlink:href="#m1592e99943" x="529.465406" y="270.226738" style="fill-opacity: 0.3"/>
     <use xlink:href="#m1592e99943" x="487.781569" y="272.226189" style="fill-opacity: 0.3"/>
     <use xlink:href="#m1592e99943" x="520.563761" y="274.005085" style="fill-opacity: 0.3"/>
     <use xlink:href="#m1592e99943" x="515.726841" y="273.495765" style="fill-opacity: 0.3"/>
     <use xlink:href="#m1592e99943" x="525.975262" y="278.894592" style="fill-opacity: 0.3"/>
     <use xlink:href="#m1592e99943" x="530.281976" y="278.440267" style="fill-opacity: 0.3"/>
     <use xlink:href="#m1592e99943" x="528.167069" y="268.960802" style="fill-opacity: 0.3"/>
     <use xlink:href="#m1592e99943" x="497.52986" y="279.533258" style="fill-opacity: 0.3"/>
     <use xlink:href="#m1592e99943" x="505.699503" y="274.161092" style="fill-opacity: 0.3"/>
     <use xlink:href="#m1592e99943" x="487.695649" y="277.446287" style="fill-opacity: 0.3"/>
     <use xlink:href="#m1592e99943" x="526.494705" y="275.156162" style="fill-opacity: 0.3"/>
     <use xlink:href="#m1592e99943" x="535.999317" y="276.359935" style="fill-opacity: 0.3"/>
     <use xlink:href="#m1592e99943" x="526.06534" y="276.647013" style="fill-opacity: 0.3"/>
     <use xlink:href="#m1592e99943" x="492.667069" y="273.744534" style="fill-opacity: 0.3"/>
     <use xlink:href="#m1592e99943" x="516.481156" y="260.711889" style="fill-opacity: 0.3"/>
     <use xlink:href="#m1592e99943" x="495.436533" y="273.509372" style="fill-opacity: 0.3"/>
     <use xlink:href="#m1592e99943" x="486.070534" y="259.173746" style="fill-opacity: 0.3"/>
     <use xlink:href="#m1592e99943" x="517.933363" y="274.319981" style="fill-opacity: 0.3"/>
     <use xlink:href="#m1592e99943" x="511.815993" y="274.563944" style="fill-opacity: 0.3"/>
     <use xlink:href="#m1592e99943" x="487.549211" y="281.010007" style="fill-opacity: 0.3"/>
     <use xlink:href="#m1592e99943" x="535.048655" y="276.069475" style="fill-opacity: 0.3"/>
     <use xlink:href="#m1592e99943" x="509.261341" y="278.208034" style="fill-opacity: 0.3"/>
     <use xlink:href="#m1592e99943" x="480.783786" y="272.855027" style="fill-opacity: 0.3"/>
    </g>
   </g>
  </g>
 </g>
 <defs>
  <clipPath id="p89eea419b1">
   <rect x="90" y="43.2" width="558" height="277.2"/>
  </clipPath>
 </defs>
</svg>
