<?xml version="1.0" encoding="utf-8" standalone="no"?>
<!DOCTYPE svg PUBLIC "-//W3C//DTD SVG 1.1//EN"
  "http://www.w3.org/Graphics/SVG/1.1/DTD/svg11.dtd">
<svg xmlns:xlink="http://www.w3.org/1999/xlink" width="720pt" height="360pt" viewBox="0 0 720 360" xmlns="http://www.w3.org/2000/svg" version="1.1">
 <metadata>
  <rdf:RDF xmlns:dc="http://purl.org/dc/elements/1.1/" xmlns:cc="http://creativecommons.org/ns#" xmlns:rdf="http://www.w3.org/1999/02/22-rdf-syntax-ns#">
   <cc:Work>
    <dc:type rdf:resource="http://purl.org/dc/dcmitype/StillImage"/>
    <dc:date>2025-09-09T15:45:24.539521</dc:date>
    <dc:format>image/svg+xml</dc:format>
    <dc:creator>
     <cc:Agent>
      <dc:title>Matplotlib v3.10.3, https://matplotlib.org/</dc:title>
     </cc:Agent>
    </dc:creator>
   </cc:Work>
  </rdf:RDF>
 </metadata>
 <defs>
  <style type="text/css">*{stroke-linejoin: round; stroke-linecap: butt}</style>
 </defs>
 <g id="figure_1">
  <g id="patch_1">
   <path d="M 0 360 
L 720 360 
L 720 0 
L 0 0 
z
" style="fill: #ffffff"/>
  </g>
  <g id="axes_1">
   <g id="patch_2">
    <path d="M 90 320.4 
L 648 320.4 
L 648 43.2 
L 90 43.2 
z
" style="fill: #ffffff"/>
   </g>
   <g id="FillBetweenPolyCollection_1">
    <defs>
     <path id="m429e612975" d="M 151.641008 -52.466375 
L 139.958992 -52.466375 
L 138.932124 -52.550534 
L 137.779546 -52.634694 
L 136.497093 -52.718853 
L 135.082748 -52.803012 
L 133.537043 -52.887171 
L 131.863416 -52.971331 
L 130.068515 -53.05549 
L 128.162432 -53.139649 
L 126.158831 -53.223808 
L 124.074973 -53.307968 
L 121.931597 -53.392127 
L 119.752673 -53.476286 
L 117.565009 -53.560445 
L 115.397709 -53.644605 
L 113.281513 -53.728764 
L 111.248018 -53.812923 
L 109.328808 -53.897082 
L 107.554539 -53.981242 
L 105.95399 -54.065401 
L 104.55315 -54.14956 
L 103.374354 -54.233719 
L 102.435523 -54.317879 
L 101.749545 -54.402038 
L 101.32382 -54.486197 
L 101.16 -54.570356 
L 101.253933 -54.654516 
L 101.595819 -54.738675 
L 102.170567 -54.822834 
L 102.958344 -54.906993 
L 103.93528 -54.991153 
L 105.074306 -55.075312 
L 106.346071 -55.159471 
L 107.71991 -55.24363 
L 109.164799 -55.32779 
L 110.650274 -55.411949 
L 112.147257 -55.496108 
L 113.628756 -55.580267 
L 115.07043 -55.664427 
L 116.450982 -55.748586 
L 117.752376 -55.832745 
L 118.9599 -55.916904 
L 120.062058 -56.001064 
L 121.050335 -56.085223 
L 121.918857 -56.169382 
L 122.663966 -56.253541 
L 123.283773 -56.337701 
L 123.777689 -56.42186 
L 124.146007 -56.506019 
L 124.389533 -56.590178 
L 124.50931 -56.674338 
L 124.506452 -56.758497 
L 124.382089 -56.842656 
L 124.13743 -56.926815 
L 123.77394 -57.010975 
L 123.293608 -57.095134 
L 122.699287 -57.179293 
L 121.995086 -57.263452 
L 121.186766 -57.347612 
L 120.282119 -57.431771 
L 119.291292 -57.51593 
L 118.227022 -57.600089 
L 117.104767 -57.684249 
L 115.94269 -57.768408 
L 114.761512 -57.852567 
L 113.584204 -57.936727 
L 112.435539 -58.020886 
L 111.341509 -58.105045 
L 110.328634 -58.189204 
L 109.423192 -58.273364 
L 108.650399 -58.357523 
L 108.033586 -58.441682 
L 107.593407 -58.525841 
L 107.347116 -58.610001 
L 107.307953 -58.69416 
L 107.484661 -58.778319 
L 107.881176 -58.862478 
L 108.496474 -58.946638 
L 109.324613 -59.030797 
L 110.354947 -59.114956 
L 111.572504 -59.199115 
L 112.958513 -59.283275 
L 114.491051 -59.367434 
L 116.145774 -59.451593 
L 117.896704 -59.535752 
L 119.717036 -59.619912 
L 121.579926 -59.704071 
L 123.459235 -59.78823 
L 125.330196 -59.872389 
L 127.16999 -59.956549 
L 128.9582 -60.040708 
L 130.677163 -60.124867 
L 132.312176 -60.209026 
L 133.851603 -60.293186 
L 135.286855 -60.377345 
L 136.612285 -60.461504 
L 137.824984 -60.545663 
L 138.924531 -60.629823 
L 139.912677 -60.713982 
L 140.793012 -60.798141 
L 150.806988 -60.798141 
L 150.806988 -60.798141 
L 151.687323 -60.713982 
L 152.675469 -60.629823 
L 153.775016 -60.545663 
L 154.987715 -60.461504 
L 156.313145 -60.377345 
L 157.748397 -60.293186 
L 159.287824 -60.209026 
L 160.922837 -60.124867 
L 162.6418 -60.040708 
L 164.43001 -59.956549 
L 166.269804 -59.872389 
L 168.140765 -59.78823 
L 170.020074 -59.704071 
L 171.882964 -59.619912 
L 173.703296 -59.535752 
L 175.454226 -59.451593 
L 177.108949 -59.367434 
L 178.641487 -59.283275 
L 180.027496 -59.199115 
L 181.245053 -59.114956 
L 182.275387 -59.030797 
L 183.103526 -58.946638 
L 183.718824 -58.862478 
L 184.115339 -58.778319 
L 184.292047 -58.69416 
L 184.252884 -58.610001 
L 184.006593 -58.525841 
L 183.566414 -58.441682 
L 182.949601 -58.357523 
L 182.176808 -58.273364 
L 181.271366 -58.189204 
L 180.258491 -58.105045 
L 179.164461 -58.020886 
L 178.015796 -57.936727 
L 176.838488 -57.852567 
L 175.65731 -57.768408 
L 174.495233 -57.684249 
L 173.372978 -57.600089 
L 172.308708 -57.51593 
L 171.317881 -57.431771 
L 170.413234 -57.347612 
L 169.604914 -57.263452 
L 168.900713 -57.179293 
L 168.306392 -57.095134 
L 167.82606 -57.010975 
L 167.46257 -56.926815 
L 167.217911 -56.842656 
L 167.093548 -56.758497 
L 167.09069 -56.674338 
L 167.210467 -56.590178 
L 167.453993 -56.506019 
L 167.822311 -56.42186 
L 168.316227 -56.337701 
L 168.936034 -56.253541 
L 169.681143 -56.169382 
L 170.549665 -56.085223 
L 171.537942 -56.001064 
L 172.6401 -55.916904 
L 173.847624 -55.832745 
L 175.149018 -55.748586 
L 176.52957 -55.664427 
L 177.971244 -55.580267 
L 179.452743 -55.496108 
L 180.949726 -55.411949 
L 182.435201 -55.32779 
L 183.88009 -55.24363 
L 185.253929 -55.159471 
L 186.525694 -55.075312 
L 187.66472 -54.991153 
L 188.641656 -54.906993 
L 189.429433 -54.822834 
L 190.004181 -54.738675 
L 190.346067 -54.654516 
L 190.44 -54.570356 
L 190.27618 -54.486197 
L 189.850455 -54.402038 
L 189.164477 -54.317879 
L 188.225646 -54.233719 
L 187.04685 -54.14956 
L 185.64601 -54.065401 
L 184.045461 -53.981242 
L 182.271192 -53.897082 
L 180.351982 -53.812923 
L 178.318487 -53.728764 
L 176.202291 -53.644605 
L 174.034991 -53.560445 
L 171.847327 -53.476286 
L 169.668403 -53.392127 
L 167.525027 -53.307968 
L 165.441169 -53.223808 
L 163.437568 -53.139649 
L 161.531485 -53.05549 
L 159.736584 -52.971331 
L 158.062957 -52.887171 
L 156.517252 -52.803012 
L 155.102907 -52.718853 
L 153.820454 -52.634694 
L 152.667876 -52.550534 
L 151.641008 -52.466375 
z
" style="stroke: #3d3d3d; stroke-width: 1.25"/>
    </defs>
    <g clip-path="url(#p6c879f8a53)">
     <use xlink:href="#m429e612975" x="0" y="360" style="fill: #3274a1; stroke: #3d3d3d; stroke-width: 1.25"/>
    </g>
   </g>
   <g id="FillBetweenPolyCollection_2">
    <defs>
     <path id="m32721e983c" d="M 257.707049 -46.116333 
L 257.092951 -46.116333 
L 256.991722 -46.264259 
L 256.868872 -46.412186 
L 256.724016 -46.560113 
L 256.558279 -46.70804 
L 256.374596 -46.855967 
L 256.177872 -47.003893 
L 255.974942 -47.15182 
L 255.774289 -47.299747 
L 255.585533 -47.447674 
L 255.418705 -47.595601 
L 255.283374 -47.743527 
L 255.187753 -47.891454 
L 255.137869 -48.039381 
L 255.136936 -48.187308 
L 255.185017 -48.335235 
L 255.279009 -48.483162 
L 255.412982 -48.631088 
L 255.578791 -48.779015 
L 255.766899 -48.926942 
L 255.967278 -49.074869 
L 256.170273 -49.222796 
L 256.367337 -49.370722 
L 256.551555 -49.518649 
L 256.717916 -49.666576 
L 256.863358 -49.814503 
L 256.98659 -49.96243 
L 257.087763 -50.110356 
L 257.168043 -50.258283 
L 257.229125 -50.40621 
L 257.272735 -50.554137 
L 257.300131 -50.702064 
L 257.311604 -50.84999 
L 257.30596 -50.997917 
L 257.279968 -51.145844 
L 257.227766 -51.293771 
L 257.140233 -51.441698 
L 257.004379 -51.589625 
L 256.802829 -51.737551 
L 256.513558 -51.885478 
L 256.110031 -52.033405 
L 255.561956 -52.181332 
L 254.836839 -52.329259 
L 253.902449 -52.477185 
L 252.730213 -52.625112 
L 251.299383 -52.773039 
L 249.601617 -52.920966 
L 247.645423 -53.068893 
L 245.459757 -53.216819 
L 243.096003 -53.364746 
L 240.627641 -53.512673 
L 238.147119 -53.6606 
L 235.75983 -53.808527 
L 233.575562 -53.956454 
L 231.698263 -54.10438 
L 230.215374 -54.252307 
L 229.188217 -54.400234 
L 228.644898 -54.548161 
L 228.576907 -54.696088 
L 228.940047 -54.844014 
L 229.659666 -54.991941 
L 230.639425 -55.139868 
L 231.772275 -55.287795 
L 232.95189 -55.435722 
L 234.082796 -55.583648 
L 235.087663 -55.731575 
L 235.910795 -55.879502 
L 236.517561 -56.027429 
L 236.89029 -56.175356 
L 237.02181 -56.323282 
L 236.908262 -56.471209 
L 236.542948 -56.619136 
L 235.912763 -56.767063 
L 234.998258 -56.91499 
L 233.777636 -57.062917 
L 232.234153 -57.210843 
L 230.365656 -57.35877 
L 228.19437 -57.506697 
L 225.774864 -57.654624 
L 223.198234 -57.802551 
L 220.591072 -57.950477 
L 218.108657 -58.098404 
L 215.922759 -58.246331 
L 214.205484 -58.394258 
L 213.111324 -58.542185 
L 212.76 -58.690111 
L 213.222678 -58.838038 
L 214.51358 -58.985965 
L 216.588228 -59.133892 
L 219.348439 -59.281819 
L 222.653206 -59.429746 
L 226.333702 -59.577672 
L 230.210175 -59.725599 
L 234.108412 -59.873526 
L 237.873747 -60.021453 
L 241.381193 -60.16938 
L 244.541011 -60.317306 
L 247.299804 -60.465233 
L 249.637794 -60.61316 
L 251.563362 -60.761087 
L 263.236638 -60.761087 
L 263.236638 -60.761087 
L 265.162206 -60.61316 
L 267.500196 -60.465233 
L 270.258989 -60.317306 
L 273.418807 -60.16938 
L 276.926253 -60.021453 
L 280.691588 -59.873526 
L 284.589825 -59.725599 
L 288.466298 -59.577672 
L 292.146794 -59.429746 
L 295.451561 -59.281819 
L 298.211772 -59.133892 
L 300.28642 -58.985965 
L 301.577322 -58.838038 
L 302.04 -58.690111 
L 301.688676 -58.542185 
L 300.594516 -58.394258 
L 298.877241 -58.246331 
L 296.691343 -58.098404 
L 294.208928 -57.950477 
L 291.601766 -57.802551 
L 289.025136 -57.654624 
L 286.60563 -57.506697 
L 284.434344 -57.35877 
L 282.565847 -57.210843 
L 281.022364 -57.062917 
L 279.801742 -56.91499 
L 278.887237 -56.767063 
L 278.257052 -56.619136 
L 277.891738 -56.471209 
L 277.77819 -56.323282 
L 277.90971 -56.175356 
L 278.282439 -56.027429 
L 278.889205 -55.879502 
L 279.712337 -55.731575 
L 280.717204 -55.583648 
L 281.84811 -55.435722 
L 283.027725 -55.287795 
L 284.160575 -55.139868 
L 285.140334 -54.991941 
L 285.859953 -54.844014 
L 286.223093 -54.696088 
L 286.155102 -54.548161 
L 285.611783 -54.400234 
L 284.584626 -54.252307 
L 283.101737 -54.10438 
L 281.224438 -53.956454 
L 279.04017 -53.808527 
L 276.652881 -53.6606 
L 274.172359 -53.512673 
L 271.703997 -53.364746 
L 269.340243 -53.216819 
L 267.154577 -53.068893 
L 265.198383 -52.920966 
L 263.500617 -52.773039 
L 262.069787 -52.625112 
L 260.897551 -52.477185 
L 259.963161 -52.329259 
L 259.238044 -52.181332 
L 258.689969 -52.033405 
L 258.286442 -51.885478 
L 257.997171 -51.737551 
L 257.795621 -51.589625 
L 257.659767 -51.441698 
L 257.572234 -51.293771 
L 257.520032 -51.145844 
L 257.49404 -50.997917 
L 257.488396 -50.84999 
L 257.499869 -50.702064 
L 257.527265 -50.554137 
L 257.570875 -50.40621 
L 257.631957 -50.258283 
L 257.712237 -50.110356 
L 257.81341 -49.96243 
L 257.936642 -49.814503 
L 258.082084 -49.666576 
L 258.248445 -49.518649 
L 258.432663 -49.370722 
L 258.629727 -49.222796 
L 258.832722 -49.074869 
L 259.033101 -48.926942 
L 259.221209 -48.779015 
L 259.387018 -48.631088 
L 259.520991 -48.483162 
L 259.614983 -48.335235 
L 259.663064 -48.187308 
L 259.662131 -48.039381 
L 259.612247 -47.891454 
L 259.516626 -47.743527 
L 259.381295 -47.595601 
L 259.214467 -47.447674 
L 259.025711 -47.299747 
L 258.825058 -47.15182 
L 258.622128 -47.003893 
L 258.425404 -46.855967 
L 258.241721 -46.70804 
L 258.075984 -46.560113 
L 257.931128 -46.412186 
L 257.808278 -46.264259 
L 257.707049 -46.116333 
z
" style="stroke: #3d3d3d; stroke-width: 1.25"/>
    </defs>
    <g clip-path="url(#p6c879f8a53)">
     <use xlink:href="#m32721e983c" x="0" y="360" style="fill: #e1812c; stroke: #3d3d3d; stroke-width: 1.25"/>
    </g>
   </g>
   <g id="FillBetweenPolyCollection_3">
    <defs>
     <path id="m615b4cb967" d="M 369.222131 -45.804965 
L 368.777869 -45.804965 
L 368.712487 -45.959182 
L 368.634429 -46.113399 
L 368.543383 -46.267616 
L 368.439731 -46.421833 
L 368.324684 -46.57605 
L 368.200382 -46.730267 
L 368.069914 -46.884485 
L 367.937255 -47.038702 
L 367.807111 -47.192919 
L 367.684664 -47.347136 
L 367.575252 -47.501353 
L 367.48398 -47.65557 
L 367.415336 -47.809787 
L 367.372823 -47.964004 
L 367.358663 -48.118221 
L 367.373602 -48.272438 
L 367.416848 -48.426655 
L 367.486137 -48.580872 
L 367.577926 -48.735089 
L 367.687691 -48.889306 
L 367.810284 -49.043523 
L 367.940322 -49.19774 
L 368.072549 -49.351958 
L 368.202138 -49.506175 
L 368.324915 -49.660392 
L 368.437457 -49.814609 
L 368.537091 -49.968826 
L 368.621772 -50.123043 
L 368.689859 -50.27726 
L 368.739807 -50.431477 
L 368.769793 -50.585694 
L 368.777299 -50.739911 
L 368.758675 -50.894128 
L 368.708724 -51.048345 
L 368.620325 -51.202562 
L 368.484166 -51.356779 
L 368.288626 -51.510996 
L 368.019881 -51.665213 
L 367.662285 -51.819431 
L 367.199106 -51.973648 
L 366.613626 -52.127865 
L 365.890624 -52.282082 
L 365.018181 -52.436299 
L 363.989693 -52.590516 
L 362.805918 -52.744733 
L 361.476816 -52.89895 
L 360.022928 -53.053167 
L 358.476013 -53.207384 
L 356.878716 -53.361601 
L 355.283119 -53.515818 
L 353.748157 -53.670035 
L 352.335991 -53.824252 
L 351.107632 -53.978469 
L 350.118185 -54.132686 
L 349.412192 -54.286904 
L 349.019568 -54.441121 
L 348.952561 -54.595338 
L 349.204075 -54.749555 
L 349.747488 -54.903772 
L 350.537961 -55.057989 
L 351.515014 -55.212206 
L 352.606047 -55.366423 
L 353.73038 -55.52064 
L 354.803431 -55.674857 
L 355.740689 -55.829074 
L 356.461286 -55.983291 
L 356.891122 -56.137508 
L 356.965592 -56.291725 
L 356.632106 -56.445942 
L 355.852556 -56.600159 
L 354.605851 -56.754377 
L 352.890518 -56.908594 
L 350.72719 -57.062811 
L 348.160634 -57.217028 
L 345.260858 -57.371245 
L 342.122766 -57.525462 
L 338.863904 -57.679679 
L 335.620004 -57.833896 
L 332.538297 -57.988113 
L 329.768899 -58.14233 
L 327.454889 -58.296547 
L 325.722014 -58.450764 
L 324.669059 -58.604981 
L 324.36 -58.759198 
L 324.818858 -58.913415 
L 326.027909 -59.067632 
L 327.929481 -59.22185 
L 330.431147 -59.376067 
L 333.413701 -59.530284 
L 336.740987 -59.684501 
L 340.270483 -59.838718 
L 343.863513 -59.992935 
L 347.394108 -60.147152 
L 350.75578 -60.301369 
L 353.865803 -60.455586 
L 356.666938 -60.609803 
L 359.126816 -60.76402 
L 361.235452 -60.918237 
L 363.001451 -61.072454 
L 374.998549 -61.072454 
L 374.998549 -61.072454 
L 376.764548 -60.918237 
L 378.873184 -60.76402 
L 381.333062 -60.609803 
L 384.134197 -60.455586 
L 387.24422 -60.301369 
L 390.605892 -60.147152 
L 394.136487 -59.992935 
L 397.729517 -59.838718 
L 401.259013 -59.684501 
L 404.586299 -59.530284 
L 407.568853 -59.376067 
L 410.070519 -59.22185 
L 411.972091 -59.067632 
L 413.181142 -58.913415 
L 413.64 -58.759198 
L 413.330941 -58.604981 
L 412.277986 -58.450764 
L 410.545111 -58.296547 
L 408.231101 -58.14233 
L 405.461703 -57.988113 
L 402.379996 -57.833896 
L 399.136096 -57.679679 
L 395.877234 -57.525462 
L 392.739142 -57.371245 
L 389.839366 -57.217028 
L 387.27281 -57.062811 
L 385.109482 -56.908594 
L 383.394149 -56.754377 
L 382.147444 -56.600159 
L 381.367894 -56.445942 
L 381.034408 -56.291725 
L 381.108878 -56.137508 
L 381.538714 -55.983291 
L 382.259311 -55.829074 
L 383.196569 -55.674857 
L 384.26962 -55.52064 
L 385.393953 -55.366423 
L 386.484986 -55.212206 
L 387.462039 -55.057989 
L 388.252512 -54.903772 
L 388.795925 -54.749555 
L 389.047439 -54.595338 
L 388.980432 -54.441121 
L 388.587808 -54.286904 
L 387.881815 -54.132686 
L 386.892368 -53.978469 
L 385.664009 -53.824252 
L 384.251843 -53.670035 
L 382.716881 -53.515818 
L 381.121284 -53.361601 
L 379.523987 -53.207384 
L 377.977072 -53.053167 
L 376.523184 -52.89895 
L 375.194082 -52.744733 
L 374.010307 -52.590516 
L 372.981819 -52.436299 
L 372.109376 -52.282082 
L 371.386374 -52.127865 
L 370.800894 -51.973648 
L 370.337715 -51.819431 
L 369.980119 -51.665213 
L 369.711374 -51.510996 
L 369.515834 -51.356779 
L 369.379675 -51.202562 
L 369.291276 -51.048345 
L 369.241325 -50.894128 
L 369.222701 -50.739911 
L 369.230207 -50.585694 
L 369.260193 -50.431477 
L 369.310141 -50.27726 
L 369.378228 -50.123043 
L 369.462909 -49.968826 
L 369.562543 -49.814609 
L 369.675085 -49.660392 
L 369.797862 -49.506175 
L 369.927451 -49.351958 
L 370.059678 -49.19774 
L 370.189716 -49.043523 
L 370.312309 -48.889306 
L 370.422074 -48.735089 
L 370.513863 -48.580872 
L 370.583152 -48.426655 
L 370.626398 -48.272438 
L 370.641337 -48.118221 
L 370.627177 -47.964004 
L 370.584664 -47.809787 
L 370.51602 -47.65557 
L 370.424748 -47.501353 
L 370.315336 -47.347136 
L 370.192889 -47.192919 
L 370.062745 -47.038702 
L 369.930086 -46.884485 
L 369.799618 -46.730267 
L 369.675316 -46.57605 
L 369.560269 -46.421833 
L 369.456617 -46.267616 
L 369.365571 -46.113399 
L 369.287513 -45.959182 
L 369.222131 -45.804965 
z
" style="stroke: #3d3d3d; stroke-width: 1.25"/>
    </defs>
    <g clip-path="url(#p6c879f8a53)">
     <use xlink:href="#m615b4cb967" x="0" y="360" style="fill: #3a923a; stroke: #3d3d3d; stroke-width: 1.25"/>
    </g>
   </g>
   <g id="FillBetweenPolyCollection_4">
    <defs>
     <path id="md768c9b9d1" d="M 481.724438 -44.957086 
L 479.475562 -44.957086 
L 479.211312 -45.128432 
L 478.905027 -45.299778 
L 478.555391 -45.471124 
L 478.162486 -45.64247 
L 477.728073 -45.813816 
L 477.255825 -45.985162 
L 476.751478 -46.156508 
L 476.22288 -46.327853 
L 475.679916 -46.499199 
L 475.134292 -46.670545 
L 474.599184 -46.841891 
L 474.088746 -47.013237 
L 473.617515 -47.184583 
L 473.199731 -47.355929 
L 472.848629 -47.527275 
L 472.575732 -47.698621 
L 472.390212 -47.869967 
L 472.298365 -48.041313 
L 472.303225 -48.212659 
L 472.404367 -48.384005 
L 472.597893 -48.555351 
L 472.87662 -48.726697 
L 473.230431 -48.898042 
L 473.646771 -49.069388 
L 474.111248 -49.240734 
L 474.608279 -49.41208 
L 475.121747 -49.583426 
L 475.635608 -49.754772 
L 476.134424 -49.926118 
L 476.603797 -50.097464 
L 477.030673 -50.26881 
L 477.403539 -50.440156 
L 477.712518 -50.611502 
L 477.949372 -50.782848 
L 478.107469 -50.954194 
L 478.18171 -51.12554 
L 478.168475 -51.296886 
L 478.065594 -51.468231 
L 477.872362 -51.639577 
L 477.58959 -51.810923 
L 477.219708 -51.982269 
L 476.766868 -52.153615 
L 476.237044 -52.324961 
L 475.638078 -52.496307 
L 474.979648 -52.667653 
L 474.273111 -52.838999 
L 473.531212 -53.010345 
L 472.767625 -53.181691 
L 471.996348 -53.353037 
L 471.230949 -53.524383 
L 470.483713 -53.695729 
L 469.764731 -53.867075 
L 469.080994 -54.03842 
L 468.435569 -54.209766 
L 467.826919 -54.381112 
L 467.248452 -54.552458 
L 466.688349 -54.723804 
L 466.129732 -54.89515 
L 465.551185 -55.066496 
L 464.927665 -55.237842 
L 464.231759 -55.409188 
L 463.43527 -55.580534 
L 462.511058 -55.75188 
L 461.435048 -55.923226 
L 460.188302 -56.094572 
L 458.759023 -56.265918 
L 457.144355 -56.437264 
L 455.351841 -56.608609 
L 453.400402 -56.779955 
L 451.320719 -56.951301 
L 449.154926 -57.122647 
L 446.955567 -57.293993 
L 444.783811 -57.465339 
L 442.706986 -57.636685 
L 440.79553 -57.808031 
L 439.119549 -57.979377 
L 437.745169 -58.150723 
L 436.730938 -58.322069 
L 436.124532 -58.493415 
L 435.96 -58.664761 
L 436.255761 -58.836107 
L 437.013504 -59.007452 
L 438.218072 -59.178798 
L 439.838345 -59.350144 
L 441.829035 -59.52149 
L 444.133259 -59.692836 
L 446.685674 -59.864182 
L 449.415948 -60.035528 
L 452.252298 -60.206874 
L 455.124864 -60.37822 
L 457.968693 -60.549566 
L 460.726178 -60.720912 
L 463.348831 -60.892258 
L 465.79836 -61.063604 
L 468.047049 -61.23495 
L 470.07751 -61.406296 
L 471.881916 -61.577641 
L 473.46083 -61.748987 
L 474.821787 -61.920333 
L 486.378213 -61.920333 
L 486.378213 -61.920333 
L 487.73917 -61.748987 
L 489.318084 -61.577641 
L 491.12249 -61.406296 
L 493.152951 -61.23495 
L 495.40164 -61.063604 
L 497.851169 -60.892258 
L 500.473822 -60.720912 
L 503.231307 -60.549566 
L 506.075136 -60.37822 
L 508.947702 -60.206874 
L 511.784052 -60.035528 
L 514.514326 -59.864182 
L 517.066741 -59.692836 
L 519.370965 -59.52149 
L 521.361655 -59.350144 
L 522.981928 -59.178798 
L 524.186496 -59.007452 
L 524.944239 -58.836107 
L 525.24 -58.664761 
L 525.075468 -58.493415 
L 524.469062 -58.322069 
L 523.454831 -58.150723 
L 522.080451 -57.979377 
L 520.40447 -57.808031 
L 518.493014 -57.636685 
L 516.416189 -57.465339 
L 514.244433 -57.293993 
L 512.045074 -57.122647 
L 509.879281 -56.951301 
L 507.799598 -56.779955 
L 505.848159 -56.608609 
L 504.055645 -56.437264 
L 502.440977 -56.265918 
L 501.011698 -56.094572 
L 499.764952 -55.923226 
L 498.688942 -55.75188 
L 497.76473 -55.580534 
L 496.968241 -55.409188 
L 496.272335 -55.237842 
L 495.648815 -55.066496 
L 495.070268 -54.89515 
L 494.511651 -54.723804 
L 493.951548 -54.552458 
L 493.373081 -54.381112 
L 492.764431 -54.209766 
L 492.119006 -54.03842 
L 491.435269 -53.867075 
L 490.716287 -53.695729 
L 489.969051 -53.524383 
L 489.203652 -53.353037 
L 488.432375 -53.181691 
L 487.668788 -53.010345 
L 486.926889 -52.838999 
L 486.220352 -52.667653 
L 485.561922 -52.496307 
L 484.962956 -52.324961 
L 484.433132 -52.153615 
L 483.980292 -51.982269 
L 483.61041 -51.810923 
L 483.327638 -51.639577 
L 483.134406 -51.468231 
L 483.031525 -51.296886 
L 483.01829 -51.12554 
L 483.092531 -50.954194 
L 483.250628 -50.782848 
L 483.487482 -50.611502 
L 483.796461 -50.440156 
L 484.169327 -50.26881 
L 484.596203 -50.097464 
L 485.065576 -49.926118 
L 485.564392 -49.754772 
L 486.078253 -49.583426 
L 486.591721 -49.41208 
L 487.088752 -49.240734 
L 487.553229 -49.069388 
L 487.969569 -48.898042 
L 488.32338 -48.726697 
L 488.602107 -48.555351 
L 488.795633 -48.384005 
L 488.896775 -48.212659 
L 488.901635 -48.041313 
L 488.809788 -47.869967 
L 488.624268 -47.698621 
L 488.351371 -47.527275 
L 488.000269 -47.355929 
L 487.582485 -47.184583 
L 487.111254 -47.013237 
L 486.600816 -46.841891 
L 486.065708 -46.670545 
L 485.520084 -46.499199 
L 484.97712 -46.327853 
L 484.448522 -46.156508 
L 483.944175 -45.985162 
L 483.471927 -45.813816 
L 483.037514 -45.64247 
L 482.644609 -45.471124 
L 482.294973 -45.299778 
L 481.988688 -45.128432 
L 481.724438 -44.957086 
z
" style="stroke: #3d3d3d; stroke-width: 1.25"/>
    </defs>
    <g clip-path="url(#p6c879f8a53)">
     <use xlink:href="#md768c9b9d1" x="0" y="360" style="fill: #c03d3e; stroke: #3d3d3d; stroke-width: 1.25"/>
    </g>
   </g>
   <g id="patch_3">
    <path d="M 212.76 320.4 
L 257.4 320.4 
L 257.4 226.722581 
L 212.76 226.722581 
z
" clip-path="url(#p6c879f8a53)" style="fill: #3274a1"/>
   </g>
   <g id="patch_4">
    <path d="M 547.56 320.4 
L 592.2 320.4 
L 592.2 160.722581 
L 547.56 160.722581 
z
" clip-path="url(#p6c879f8a53)" style="fill: #3274a1"/>
   </g>
   <g id="patch_5">
    <path d="M 257.4 320.4 
L 302.04 320.4 
L 302.04 252.270968 
L 257.4 252.270968 
z
" clip-path="url(#p6c879f8a53)" style="fill: #e1812c"/>
   </g>
   <g id="patch_6">
    <path d="M 592.2 320.4 
L 636.84 320.4 
L 636.84 192.658065 
L 592.2 192.658065 
z
" clip-path="url(#p6c879f8a53)" style="fill: #e1812c"/>
   </g>
   <g id="patch_7">
    <path d="M 145.8 320.4 
L 145.8 320.4 
L 145.8 320.4 
L 145.8 320.4 
z
" clip-path="url(#p6c879f8a53)" style="fill: #3274a1"/>
   </g>
   <g id="patch_8">
    <path d="M 145.8 320.4 
L 145.8 320.4 
L 145.8 320.4 
L 145.8 320.4 
z
" clip-path="url(#p6c879f8a53)" style="fill: #e1812c"/>
   </g>
   <g id="patch_9">
    <path d="M 212.76 320.4 
L 257.4 320.4 
L 257.4 301.23871 
L 212.76 301.23871 
z
" clip-path="url(#p6c879f8a53)" style="fill: #3274a1"/>
   </g>
   <g id="patch_10">
    <path d="M 547.56 320.4 
L 592.2 320.4 
L 592.2 296.980645 
L 547.56 296.980645 
z
" clip-path="url(#p6c879f8a53)" style="fill: #3274a1"/>
   </g>
   <g id="patch_11">
    <path d="M 257.4 320.4 
L 302.04 320.4 
L 302.04 177.754839 
L 257.4 177.754839 
z
" clip-path="url(#p6c879f8a53)" style="fill: #e1812c"/>
   </g>
   <g id="patch_12">
    <path d="M 592.2 320.4 
L 636.84 320.4 
L 636.84 56.4 
L 592.2 56.4 
z
" clip-path="url(#p6c879f8a53)" style="fill: #e1812c"/>
   </g>
   <g id="patch_13">
    <path d="M 145.8 320.4 
L 145.8 320.4 
L 145.8 320.4 
L 145.8 320.4 
z
" clip-path="url(#p6c879f8a53)" style="fill: #3274a1"/>
   </g>
   <g id="patch_14">
    <path d="M 145.8 320.4 
L 145.8 320.4 
L 145.8 320.4 
L 145.8 320.4 
z
" clip-path="url(#p6c879f8a53)" style="fill: #e1812c"/>
   </g>
   <g id="matplotlib.axis_1">
    <g id="xtick_1">
     <g id="line2d_1">
      <defs>
       <path id="m17e3af79ee" d="M 0 0 
L 0 3.5 
" style="stroke: #000000; stroke-width: 0.8"/>
      </defs>
      <g>
       <use xlink:href="#m17e3af79ee" x="145.8" y="320.4" style="stroke: #000000; stroke-width: 0.8"/>
      </g>
     </g>
     <g id="text_1">
      <!-- No -->
      <g transform="translate(139 334.998438) scale(0.1 -0.1)">
       <defs>
        <path id="DejaVuSans-4e" d="M 628 4666 
L 1478 4666 
L 3547 763 
L 3547 4666 
L 4159 4666 
L 4159 0 
L 3309 0 
L 1241 3903 
L 1241 0 
L 628 0 
L 628 4666 
z
" transform="scale(0.015625)"/>
        <path id="DejaVuSans-6f" d="M 1959 3097 
Q 1497 3097 1228 2736 
Q 959 2375 959 1747 
Q 959 1119 1226 758 
Q 1494 397 1959 397 
Q 2419 397 2687 759 
Q 2956 1122 2956 1747 
Q 2956 2369 2687 2733 
Q 2419 3097 1959 3097 
z
M 1959 3584 
Q 2709 3584 3137 3096 
Q 3566 2609 3566 1747 
Q 3566 888 3137 398 
Q 2709 -91 1959 -91 
Q 1206 -91 779 398 
Q 353 888 353 1747 
Q 353 2609 779 3096 
Q 1206 3584 1959 3584 
z
" transform="scale(0.015625)"/>
       </defs>
       <use xlink:href="#DejaVuSans-4e"/>
       <use xlink:href="#DejaVuSans-6f" transform="translate(74.804688 0)"/>
      </g>
     </g>
    </g>
    <g id="xtick_2">
     <g id="line2d_2">
      <g>
       <use xlink:href="#m17e3af79ee" x="257.4" y="320.4" style="stroke: #000000; stroke-width: 0.8"/>
      </g>
     </g>
     <g id="text_2">
      <!-- Specific -->
      <g transform="translate(237.938281 334.998438) scale(0.1 -0.1)">
       <defs>
        <path id="DejaVuSans-53" d="M 3425 4513 
L 3425 3897 
Q 3066 4069 2747 4153 
Q 2428 4238 2131 4238 
Q 1616 4238 1336 4038 
Q 1056 3838 1056 3469 
Q 1056 3159 1242 3001 
Q 1428 2844 1947 2747 
L 2328 2669 
Q 3034 2534 3370 2195 
Q 3706 1856 3706 1288 
Q 3706 609 3251 259 
Q 2797 -91 1919 -91 
Q 1588 -91 1214 -16 
Q 841 59 441 206 
L 441 856 
Q 825 641 1194 531 
Q 1563 422 1919 422 
Q 2459 422 2753 634 
Q 3047 847 3047 1241 
Q 3047 1584 2836 1778 
Q 2625 1972 2144 2069 
L 1759 2144 
Q 1053 2284 737 2584 
Q 422 2884 422 3419 
Q 422 4038 858 4394 
Q 1294 4750 2059 4750 
Q 2388 4750 2728 4690 
Q 3069 4631 3425 4513 
z
" transform="scale(0.015625)"/>
        <path id="DejaVuSans-70" d="M 1159 525 
L 1159 -1331 
L 581 -1331 
L 581 3500 
L 1159 3500 
L 1159 2969 
Q 1341 3281 1617 3432 
Q 1894 3584 2278 3584 
Q 2916 3584 3314 3078 
Q 3713 2572 3713 1747 
Q 3713 922 3314 415 
Q 2916 -91 2278 -91 
Q 1894 -91 1617 61 
Q 1341 213 1159 525 
z
M 3116 1747 
Q 3116 2381 2855 2742 
Q 2594 3103 2138 3103 
Q 1681 3103 1420 2742 
Q 1159 2381 1159 1747 
Q 1159 1113 1420 752 
Q 1681 391 2138 391 
Q 2594 391 2855 752 
Q 3116 1113 3116 1747 
z
" transform="scale(0.015625)"/>
        <path id="DejaVuSans-65" d="M 3597 1894 
L 3597 1613 
L 953 1613 
Q 991 1019 1311 708 
Q 1631 397 2203 397 
Q 2534 397 2845 478 
Q 3156 559 3463 722 
L 3463 178 
Q 3153 47 2828 -22 
Q 2503 -91 2169 -91 
Q 1331 -91 842 396 
Q 353 884 353 1716 
Q 353 2575 817 3079 
Q 1281 3584 2069 3584 
Q 2775 3584 3186 3129 
Q 3597 2675 3597 1894 
z
M 3022 2063 
Q 3016 2534 2758 2815 
Q 2500 3097 2075 3097 
Q 1594 3097 1305 2825 
Q 1016 2553 972 2059 
L 3022 2063 
z
" transform="scale(0.015625)"/>
        <path id="DejaVuSans-63" d="M 3122 3366 
L 3122 2828 
Q 2878 2963 2633 3030 
Q 2388 3097 2138 3097 
Q 1578 3097 1268 2742 
Q 959 2388 959 1747 
Q 959 1106 1268 751 
Q 1578 397 2138 397 
Q 2388 397 2633 464 
Q 2878 531 3122 666 
L 3122 134 
Q 2881 22 2623 -34 
Q 2366 -91 2075 -91 
Q 1284 -91 818 406 
Q 353 903 353 1747 
Q 353 2603 823 3093 
Q 1294 3584 2113 3584 
Q 2378 3584 2631 3529 
Q 2884 3475 3122 3366 
z
" transform="scale(0.015625)"/>
        <path id="DejaVuSans-69" d="M 603 3500 
L 1178 3500 
L 1178 0 
L 603 0 
L 603 3500 
z
M 603 4863 
L 1178 4863 
L 1178 4134 
L 603 4134 
L 603 4863 
z
" transform="scale(0.015625)"/>
        <path id="DejaVuSans-66" d="M 2375 4863 
L 2375 4384 
L 1825 4384 
Q 1516 4384 1395 4259 
Q 1275 4134 1275 3809 
L 1275 3500 
L 2222 3500 
L 2222 3053 
L 1275 3053 
L 1275 0 
L 697 0 
L 697 3053 
L 147 3053 
L 147 3500 
L 697 3500 
L 697 3744 
Q 697 4328 969 4595 
Q 1241 4863 1831 4863 
L 2375 4863 
z
" transform="scale(0.015625)"/>
       </defs>
       <use xlink:href="#DejaVuSans-53"/>
       <use xlink:href="#DejaVuSans-70" transform="translate(63.476562 0)"/>
       <use xlink:href="#DejaVuSans-65" transform="translate(126.953125 0)"/>
       <use xlink:href="#DejaVuSans-63" transform="translate(188.476562 0)"/>
       <use xlink:href="#DejaVuSans-69" transform="translate(243.457031 0)"/>
       <use xlink:href="#DejaVuSans-66" transform="translate(271.240234 0)"/>
       <use xlink:href="#DejaVuSans-69" transform="translate(306.445312 0)"/>
       <use xlink:href="#DejaVuSans-63" transform="translate(334.228516 0)"/>
      </g>
     </g>
    </g>
    <g id="xtick_3">
     <g id="line2d_3">
      <g>
       <use xlink:href="#m17e3af79ee" x="369" y="320.4" style="stroke: #000000; stroke-width: 0.8"/>
      </g>
     </g>
     <g id="text_3">
      <!-- Spurious -->
      <g transform="translate(347.205469 334.998438) scale(0.1 -0.1)">
       <defs>
        <path id="DejaVuSans-75" d="M 544 1381 
L 544 3500 
L 1119 3500 
L 1119 1403 
Q 1119 906 1312 657 
Q 1506 409 1894 409 
Q 2359 409 2629 706 
Q 2900 1003 2900 1516 
L 2900 3500 
L 3475 3500 
L 3475 0 
L 2900 0 
L 2900 538 
Q 2691 219 2414 64 
Q 2138 -91 1772 -91 
Q 1169 -91 856 284 
Q 544 659 544 1381 
z
M 1991 3584 
L 1991 3584 
z
" transform="scale(0.015625)"/>
        <path id="DejaVuSans-72" d="M 2631 2963 
Q 2534 3019 2420 3045 
Q 2306 3072 2169 3072 
Q 1681 3072 1420 2755 
Q 1159 2438 1159 1844 
L 1159 0 
L 581 0 
L 581 3500 
L 1159 3500 
L 1159 2956 
Q 1341 3275 1631 3429 
Q 1922 3584 2338 3584 
Q 2397 3584 2469 3576 
Q 2541 3569 2628 3553 
L 2631 2963 
z
" transform="scale(0.015625)"/>
        <path id="DejaVuSans-73" d="M 2834 3397 
L 2834 2853 
Q 2591 2978 2328 3040 
Q 2066 3103 1784 3103 
Q 1356 3103 1142 2972 
Q 928 2841 928 2578 
Q 928 2378 1081 2264 
Q 1234 2150 1697 2047 
L 1894 2003 
Q 2506 1872 2764 1633 
Q 3022 1394 3022 966 
Q 3022 478 2636 193 
Q 2250 -91 1575 -91 
Q 1294 -91 989 -36 
Q 684 19 347 128 
L 347 722 
Q 666 556 975 473 
Q 1284 391 1588 391 
Q 1994 391 2212 530 
Q 2431 669 2431 922 
Q 2431 1156 2273 1281 
Q 2116 1406 1581 1522 
L 1381 1569 
Q 847 1681 609 1914 
Q 372 2147 372 2553 
Q 372 3047 722 3315 
Q 1072 3584 1716 3584 
Q 2034 3584 2315 3537 
Q 2597 3491 2834 3397 
z
" transform="scale(0.015625)"/>
       </defs>
       <use xlink:href="#DejaVuSans-53"/>
       <use xlink:href="#DejaVuSans-70" transform="translate(63.476562 0)"/>
       <use xlink:href="#DejaVuSans-75" transform="translate(126.953125 0)"/>
       <use xlink:href="#DejaVuSans-72" transform="translate(190.332031 0)"/>
       <use xlink:href="#DejaVuSans-69" transform="translate(231.445312 0)"/>
       <use xlink:href="#DejaVuSans-6f" transform="translate(259.228516 0)"/>
       <use xlink:href="#DejaVuSans-75" transform="translate(320.410156 0)"/>
       <use xlink:href="#DejaVuSans-73" transform="translate(383.789062 0)"/>
      </g>
     </g>
    </g>
    <g id="xtick_4">
     <g id="line2d_4">
      <g>
       <use xlink:href="#m17e3af79ee" x="480.6" y="320.4" style="stroke: #000000; stroke-width: 0.8"/>
      </g>
     </g>
     <g id="text_4">
      <!-- Non-specific -->
      <g transform="translate(449.935156 334.998438) scale(0.1 -0.1)">
       <defs>
        <path id="DejaVuSans-6e" d="M 3513 2113 
L 3513 0 
L 2938 0 
L 2938 2094 
Q 2938 2591 2744 2837 
Q 2550 3084 2163 3084 
Q 1697 3084 1428 2787 
Q 1159 2491 1159 1978 
L 1159 0 
L 581 0 
L 581 3500 
L 1159 3500 
L 1159 2956 
Q 1366 3272 1645 3428 
Q 1925 3584 2291 3584 
Q 2894 3584 3203 3211 
Q 3513 2838 3513 2113 
z
" transform="scale(0.015625)"/>
        <path id="DejaVuSans-2d" d="M 313 2009 
L 1997 2009 
L 1997 1497 
L 313 1497 
L 313 2009 
z
" transform="scale(0.015625)"/>
       </defs>
       <use xlink:href="#DejaVuSans-4e"/>
       <use xlink:href="#DejaVuSans-6f" transform="translate(74.804688 0)"/>
       <use xlink:href="#DejaVuSans-6e" transform="translate(135.986328 0)"/>
       <use xlink:href="#DejaVuSans-2d" transform="translate(199.365234 0)"/>
       <use xlink:href="#DejaVuSans-73" transform="translate(235.449219 0)"/>
       <use xlink:href="#DejaVuSans-70" transform="translate(287.548828 0)"/>
       <use xlink:href="#DejaVuSans-65" transform="translate(351.025391 0)"/>
       <use xlink:href="#DejaVuSans-63" transform="translate(412.548828 0)"/>
       <use xlink:href="#DejaVuSans-69" transform="translate(467.529297 0)"/>
       <use xlink:href="#DejaVuSans-66" transform="translate(495.3125 0)"/>
       <use xlink:href="#DejaVuSans-69" transform="translate(530.517578 0)"/>
       <use xlink:href="#DejaVuSans-63" transform="translate(558.300781 0)"/>
      </g>
     </g>
    </g>
    <g id="xtick_5">
     <g id="line2d_5">
      <g>
       <use xlink:href="#m17e3af79ee" x="592.2" y="320.4" style="stroke: #000000; stroke-width: 0.8"/>
      </g>
     </g>
     <g id="text_5">
      <!-- other -->
      <g transform="translate(578.879688 334.998438) scale(0.1 -0.1)">
       <defs>
        <path id="DejaVuSans-74" d="M 1172 4494 
L 1172 3500 
L 2356 3500 
L 2356 3053 
L 1172 3053 
L 1172 1153 
Q 1172 725 1289 603 
Q 1406 481 1766 481 
L 2356 481 
L 2356 0 
L 1766 0 
Q 1100 0 847 248 
Q 594 497 594 1153 
L 594 3053 
L 172 3053 
L 172 3500 
L 594 3500 
L 594 4494 
L 1172 4494 
z
" transform="scale(0.015625)"/>
        <path id="DejaVuSans-68" d="M 3513 2113 
L 3513 0 
L 2938 0 
L 2938 2094 
Q 2938 2591 2744 2837 
Q 2550 3084 2163 3084 
Q 1697 3084 1428 2787 
Q 1159 2491 1159 1978 
L 1159 0 
L 581 0 
L 581 4863 
L 1159 4863 
L 1159 2956 
Q 1366 3272 1645 3428 
Q 1925 3584 2291 3584 
Q 2894 3584 3203 3211 
Q 3513 2838 3513 2113 
z
" transform="scale(0.015625)"/>
       </defs>
       <use xlink:href="#DejaVuSans-6f"/>
       <use xlink:href="#DejaVuSans-74" transform="translate(61.181641 0)"/>
       <use xlink:href="#DejaVuSans-68" transform="translate(100.390625 0)"/>
       <use xlink:href="#DejaVuSans-65" transform="translate(163.769531 0)"/>
       <use xlink:href="#DejaVuSans-72" transform="translate(225.292969 0)"/>
      </g>
     </g>
    </g>
    <g id="text_6">
     <!-- Connectivity category -->
     <g transform="translate(313.98125 348.676562) scale(0.1 -0.1)">
      <defs>
       <path id="DejaVuSans-43" d="M 4122 4306 
L 4122 3641 
Q 3803 3938 3442 4084 
Q 3081 4231 2675 4231 
Q 1875 4231 1450 3742 
Q 1025 3253 1025 2328 
Q 1025 1406 1450 917 
Q 1875 428 2675 428 
Q 3081 428 3442 575 
Q 3803 722 4122 1019 
L 4122 359 
Q 3791 134 3420 21 
Q 3050 -91 2638 -91 
Q 1578 -91 968 557 
Q 359 1206 359 2328 
Q 359 3453 968 4101 
Q 1578 4750 2638 4750 
Q 3056 4750 3426 4639 
Q 3797 4528 4122 4306 
z
" transform="scale(0.015625)"/>
       <path id="DejaVuSans-76" d="M 191 3500 
L 800 3500 
L 1894 563 
L 2988 3500 
L 3597 3500 
L 2284 0 
L 1503 0 
L 191 3500 
z
" transform="scale(0.015625)"/>
       <path id="DejaVuSans-79" d="M 2059 -325 
Q 1816 -950 1584 -1140 
Q 1353 -1331 966 -1331 
L 506 -1331 
L 506 -850 
L 844 -850 
Q 1081 -850 1212 -737 
Q 1344 -625 1503 -206 
L 1606 56 
L 191 3500 
L 800 3500 
L 1894 763 
L 2988 3500 
L 3597 3500 
L 2059 -325 
z
" transform="scale(0.015625)"/>
       <path id="DejaVuSans-20" transform="scale(0.015625)"/>
       <path id="DejaVuSans-61" d="M 2194 1759 
Q 1497 1759 1228 1600 
Q 959 1441 959 1056 
Q 959 750 1161 570 
Q 1363 391 1709 391 
Q 2188 391 2477 730 
Q 2766 1069 2766 1631 
L 2766 1759 
L 2194 1759 
z
M 3341 1997 
L 3341 0 
L 2766 0 
L 2766 531 
Q 2569 213 2275 61 
Q 1981 -91 1556 -91 
Q 1019 -91 701 211 
Q 384 513 384 1019 
Q 384 1609 779 1909 
Q 1175 2209 1959 2209 
L 2766 2209 
L 2766 2266 
Q 2766 2663 2505 2880 
Q 2244 3097 1772 3097 
Q 1472 3097 1187 3025 
Q 903 2953 641 2809 
L 641 3341 
Q 956 3463 1253 3523 
Q 1550 3584 1831 3584 
Q 2591 3584 2966 3190 
Q 3341 2797 3341 1997 
z
" transform="scale(0.015625)"/>
       <path id="DejaVuSans-67" d="M 2906 1791 
Q 2906 2416 2648 2759 
Q 2391 3103 1925 3103 
Q 1463 3103 1205 2759 
Q 947 2416 947 1791 
Q 947 1169 1205 825 
Q 1463 481 1925 481 
Q 2391 481 2648 825 
Q 2906 1169 2906 1791 
z
M 3481 434 
Q 3481 -459 3084 -895 
Q 2688 -1331 1869 -1331 
Q 1566 -1331 1297 -1286 
Q 1028 -1241 775 -1147 
L 775 -588 
Q 1028 -725 1275 -790 
Q 1522 -856 1778 -856 
Q 2344 -856 2625 -561 
Q 2906 -266 2906 331 
L 2906 616 
Q 2728 306 2450 153 
Q 2172 0 1784 0 
Q 1141 0 747 490 
Q 353 981 353 1791 
Q 353 2603 747 3093 
Q 1141 3584 1784 3584 
Q 2172 3584 2450 3431 
Q 2728 3278 2906 2969 
L 2906 3500 
L 3481 3500 
L 3481 434 
z
" transform="scale(0.015625)"/>
      </defs>
      <use xlink:href="#DejaVuSans-43"/>
      <use xlink:href="#DejaVuSans-6f" transform="translate(69.824219 0)"/>
      <use xlink:href="#DejaVuSans-6e" transform="translate(131.005859 0)"/>
      <use xlink:href="#DejaVuSans-6e" transform="translate(194.384766 0)"/>
      <use xlink:href="#DejaVuSans-65" transform="translate(257.763672 0)"/>
      <use xlink:href="#DejaVuSans-63" transform="translate(319.287109 0)"/>
      <use xlink:href="#DejaVuSans-74" transform="translate(374.267578 0)"/>
      <use xlink:href="#DejaVuSans-69" transform="translate(413.476562 0)"/>
      <use xlink:href="#DejaVuSans-76" transform="translate(441.259766 0)"/>
      <use xlink:href="#DejaVuSans-69" transform="translate(500.439453 0)"/>
      <use xlink:href="#DejaVuSans-74" transform="translate(528.222656 0)"/>
      <use xlink:href="#DejaVuSans-79" transform="translate(567.431641 0)"/>
      <use xlink:href="#DejaVuSans-20" transform="translate(626.611328 0)"/>
      <use xlink:href="#DejaVuSans-63" transform="translate(658.398438 0)"/>
      <use xlink:href="#DejaVuSans-61" transform="translate(713.378906 0)"/>
      <use xlink:href="#DejaVuSans-74" transform="translate(774.658203 0)"/>
      <use xlink:href="#DejaVuSans-65" transform="translate(813.867188 0)"/>
      <use xlink:href="#DejaVuSans-67" transform="translate(875.390625 0)"/>
      <use xlink:href="#DejaVuSans-6f" transform="translate(938.867188 0)"/>
      <use xlink:href="#DejaVuSans-72" transform="translate(1000.048828 0)"/>
      <use xlink:href="#DejaVuSans-79" transform="translate(1041.162109 0)"/>
     </g>
    </g>
   </g>
   <g id="matplotlib.axis_2">
    <g id="ytick_1">
     <g id="line2d_6">
      <defs>
       <path id="m41637e69db" d="M 0 0 
L -3.5 0 
" style="stroke: #000000; stroke-width: 0.8"/>
      </defs>
      <g>
       <use xlink:href="#m41637e69db" x="90" y="320.4" style="stroke: #000000; stroke-width: 0.8"/>
      </g>
     </g>
     <g id="text_7">
      <!-- 0 -->
      <g transform="translate(76.6375 324.199219) scale(0.1 -0.1)">
       <defs>
        <path id="DejaVuSans-30" d="M 2034 4250 
Q 1547 4250 1301 3770 
Q 1056 3291 1056 2328 
Q 1056 1369 1301 889 
Q 1547 409 2034 409 
Q 2525 409 2770 889 
Q 3016 1369 3016 2328 
Q 3016 3291 2770 3770 
Q 2525 4250 2034 4250 
z
M 2034 4750 
Q 2819 4750 3233 4129 
Q 3647 3509 3647 2328 
Q 3647 1150 3233 529 
Q 2819 -91 2034 -91 
Q 1250 -91 836 529 
Q 422 1150 422 2328 
Q 422 3509 836 4129 
Q 1250 4750 2034 4750 
z
" transform="scale(0.015625)"/>
       </defs>
       <use xlink:href="#DejaVuSans-30"/>
      </g>
     </g>
    </g>
    <g id="ytick_2">
     <g id="line2d_7">
      <g>
       <use xlink:href="#m41637e69db" x="90" y="277.819355" style="stroke: #000000; stroke-width: 0.8"/>
      </g>
     </g>
     <g id="text_8">
      <!-- 20 -->
      <g transform="translate(70.275 281.618574) scale(0.1 -0.1)">
       <defs>
        <path id="DejaVuSans-32" d="M 1228 531 
L 3431 531 
L 3431 0 
L 469 0 
L 469 531 
Q 828 903 1448 1529 
Q 2069 2156 2228 2338 
Q 2531 2678 2651 2914 
Q 2772 3150 2772 3378 
Q 2772 3750 2511 3984 
Q 2250 4219 1831 4219 
Q 1534 4219 1204 4116 
Q 875 4013 500 3803 
L 500 4441 
Q 881 4594 1212 4672 
Q 1544 4750 1819 4750 
Q 2544 4750 2975 4387 
Q 3406 4025 3406 3419 
Q 3406 3131 3298 2873 
Q 3191 2616 2906 2266 
Q 2828 2175 2409 1742 
Q 1991 1309 1228 531 
z
" transform="scale(0.015625)"/>
       </defs>
       <use xlink:href="#DejaVuSans-32"/>
       <use xlink:href="#DejaVuSans-30" transform="translate(63.623047 0)"/>
      </g>
     </g>
    </g>
    <g id="ytick_3">
     <g id="line2d_8">
      <g>
       <use xlink:href="#m41637e69db" x="90" y="235.23871" style="stroke: #000000; stroke-width: 0.8"/>
      </g>
     </g>
     <g id="text_9">
      <!-- 40 -->
      <g transform="translate(70.275 239.037928) scale(0.1 -0.1)">
       <defs>
        <path id="DejaVuSans-34" d="M 2419 4116 
L 825 1625 
L 2419 1625 
L 2419 4116 
z
M 2253 4666 
L 3047 4666 
L 3047 1625 
L 3713 1625 
L 3713 1100 
L 3047 1100 
L 3047 0 
L 2419 0 
L 2419 1100 
L 313 1100 
L 313 1709 
L 2253 4666 
z
" transform="scale(0.015625)"/>
       </defs>
       <use xlink:href="#DejaVuSans-34"/>
       <use xlink:href="#DejaVuSans-30" transform="translate(63.623047 0)"/>
      </g>
     </g>
    </g>
    <g id="ytick_4">
     <g id="line2d_9">
      <g>
       <use xlink:href="#m41637e69db" x="90" y="192.658065" style="stroke: #000000; stroke-width: 0.8"/>
      </g>
     </g>
     <g id="text_10">
      <!-- 60 -->
      <g transform="translate(70.275 196.457283) scale(0.1 -0.1)">
       <defs>
        <path id="DejaVuSans-36" d="M 2113 2584 
Q 1688 2584 1439 2293 
Q 1191 2003 1191 1497 
Q 1191 994 1439 701 
Q 1688 409 2113 409 
Q 2538 409 2786 701 
Q 3034 994 3034 1497 
Q 3034 2003 2786 2293 
Q 2538 2584 2113 2584 
z
M 3366 4563 
L 3366 3988 
Q 3128 4100 2886 4159 
Q 2644 4219 2406 4219 
Q 1781 4219 1451 3797 
Q 1122 3375 1075 2522 
Q 1259 2794 1537 2939 
Q 1816 3084 2150 3084 
Q 2853 3084 3261 2657 
Q 3669 2231 3669 1497 
Q 3669 778 3244 343 
Q 2819 -91 2113 -91 
Q 1303 -91 875 529 
Q 447 1150 447 2328 
Q 447 3434 972 4092 
Q 1497 4750 2381 4750 
Q 2619 4750 2861 4703 
Q 3103 4656 3366 4563 
z
" transform="scale(0.015625)"/>
       </defs>
       <use xlink:href="#DejaVuSans-36"/>
       <use xlink:href="#DejaVuSans-30" transform="translate(63.623047 0)"/>
      </g>
     </g>
    </g>
    <g id="ytick_5">
     <g id="line2d_10">
      <g>
       <use xlink:href="#m41637e69db" x="90" y="150.077419" style="stroke: #000000; stroke-width: 0.8"/>
      </g>
     </g>
     <g id="text_11">
      <!-- 80 -->
      <g transform="translate(70.275 153.876638) scale(0.1 -0.1)">
       <defs>
        <path id="DejaVuSans-38" d="M 2034 2216 
Q 1584 2216 1326 1975 
Q 1069 1734 1069 1313 
Q 1069 891 1326 650 
Q 1584 409 2034 409 
Q 2484 409 2743 651 
Q 3003 894 3003 1313 
Q 3003 1734 2745 1975 
Q 2488 2216 2034 2216 
z
M 1403 2484 
Q 997 2584 770 2862 
Q 544 3141 544 3541 
Q 544 4100 942 4425 
Q 1341 4750 2034 4750 
Q 2731 4750 3128 4425 
Q 3525 4100 3525 3541 
Q 3525 3141 3298 2862 
Q 3072 2584 2669 2484 
Q 3125 2378 3379 2068 
Q 3634 1759 3634 1313 
Q 3634 634 3220 271 
Q 2806 -91 2034 -91 
Q 1263 -91 848 271 
Q 434 634 434 1313 
Q 434 1759 690 2068 
Q 947 2378 1403 2484 
z
M 1172 3481 
Q 1172 3119 1398 2916 
Q 1625 2713 2034 2713 
Q 2441 2713 2670 2916 
Q 2900 3119 2900 3481 
Q 2900 3844 2670 4047 
Q 2441 4250 2034 4250 
Q 1625 4250 1398 4047 
Q 1172 3844 1172 3481 
z
" transform="scale(0.015625)"/>
       </defs>
       <use xlink:href="#DejaVuSans-38"/>
       <use xlink:href="#DejaVuSans-30" transform="translate(63.623047 0)"/>
      </g>
     </g>
    </g>
    <g id="ytick_6">
     <g id="line2d_11">
      <g>
       <use xlink:href="#m41637e69db" x="90" y="107.496774" style="stroke: #000000; stroke-width: 0.8"/>
      </g>
     </g>
     <g id="text_12">
      <!-- 100 -->
      <g transform="translate(63.9125 111.295993) scale(0.1 -0.1)">
       <defs>
        <path id="DejaVuSans-31" d="M 794 531 
L 1825 531 
L 1825 4091 
L 703 3866 
L 703 4441 
L 1819 4666 
L 2450 4666 
L 2450 531 
L 3481 531 
L 3481 0 
L 794 0 
L 794 531 
z
" transform="scale(0.015625)"/>
       </defs>
       <use xlink:href="#DejaVuSans-31"/>
       <use xlink:href="#DejaVuSans-30" transform="translate(63.623047 0)"/>
       <use xlink:href="#DejaVuSans-30" transform="translate(127.246094 0)"/>
      </g>
     </g>
    </g>
    <g id="ytick_7">
     <g id="line2d_12">
      <g>
       <use xlink:href="#m41637e69db" x="90" y="64.916129" style="stroke: #000000; stroke-width: 0.8"/>
      </g>
     </g>
     <g id="text_13">
      <!-- 120 -->
      <g transform="translate(63.9125 68.715348) scale(0.1 -0.1)">
       <use xlink:href="#DejaVuSans-31"/>
       <use xlink:href="#DejaVuSans-32" transform="translate(63.623047 0)"/>
       <use xlink:href="#DejaVuSans-30" transform="translate(127.246094 0)"/>
      </g>
     </g>
    </g>
    <g id="text_14">
     <!-- cont_variable -->
     <g transform="translate(57.554687 215.409375) rotate(-90) scale(0.1 -0.1)">
      <defs>
       <path id="DejaVuSans-5f" d="M 3263 -1063 
L 3263 -1509 
L -63 -1509 
L -63 -1063 
L 3263 -1063 
z
" transform="scale(0.015625)"/>
       <path id="DejaVuSans-62" d="M 3116 1747 
Q 3116 2381 2855 2742 
Q 2594 3103 2138 3103 
Q 1681 3103 1420 2742 
Q 1159 2381 1159 1747 
Q 1159 1113 1420 752 
Q 1681 391 2138 391 
Q 2594 391 2855 752 
Q 3116 1113 3116 1747 
z
M 1159 2969 
Q 1341 3281 1617 3432 
Q 1894 3584 2278 3584 
Q 2916 3584 3314 3078 
Q 3713 2572 3713 1747 
Q 3713 922 3314 415 
Q 2916 -91 2278 -91 
Q 1894 -91 1617 61 
Q 1341 213 1159 525 
L 1159 0 
L 581 0 
L 581 4863 
L 1159 4863 
L 1159 2969 
z
" transform="scale(0.015625)"/>
       <path id="DejaVuSans-6c" d="M 603 4863 
L 1178 4863 
L 1178 0 
L 603 0 
L 603 4863 
z
" transform="scale(0.015625)"/>
      </defs>
      <use xlink:href="#DejaVuSans-63"/>
      <use xlink:href="#DejaVuSans-6f" transform="translate(54.980469 0)"/>
      <use xlink:href="#DejaVuSans-6e" transform="translate(116.162109 0)"/>
      <use xlink:href="#DejaVuSans-74" transform="translate(179.541016 0)"/>
      <use xlink:href="#DejaVuSans-5f" transform="translate(218.75 0)"/>
      <use xlink:href="#DejaVuSans-76" transform="translate(268.75 0)"/>
      <use xlink:href="#DejaVuSans-61" transform="translate(327.929688 0)"/>
      <use xlink:href="#DejaVuSans-72" transform="translate(389.208984 0)"/>
      <use xlink:href="#DejaVuSans-69" transform="translate(430.322266 0)"/>
      <use xlink:href="#DejaVuSans-61" transform="translate(458.105469 0)"/>
      <use xlink:href="#DejaVuSans-62" transform="translate(519.384766 0)"/>
      <use xlink:href="#DejaVuSans-6c" transform="translate(582.861328 0)"/>
      <use xlink:href="#DejaVuSans-65" transform="translate(610.644531 0)"/>
     </g>
    </g>
   </g>
   <g id="line2d_13">
    <path clip-path="url(#p6c879f8a53)" style="fill: none; stroke: #424242; stroke-width: 2.25; stroke-linecap: square"/>
   </g>
   <g id="line2d_14">
    <path clip-path="url(#p6c879f8a53)" style="fill: none; stroke: #424242; stroke-width: 2.25; stroke-linecap: square"/>
   </g>
   <g id="line2d_15">
    <path clip-path="url(#p6c879f8a53)" style="fill: none; stroke: #424242; stroke-width: 2.25; stroke-linecap: square"/>
   </g>
   <g id="line2d_16">
    <path clip-path="url(#p6c879f8a53)" style="fill: none; stroke: #424242; stroke-width: 2.25; stroke-linecap: square"/>
   </g>
   <g id="line2d_17">
    <path clip-path="url(#p6c879f8a53)" style="fill: none; stroke: #424242; stroke-width: 2.25; stroke-linecap: square"/>
   </g>
   <g id="line2d_18">
    <path clip-path="url(#p6c879f8a53)" style="fill: none; stroke: #424242; stroke-width: 2.25; stroke-linecap: square"/>
   </g>
   <g id="line2d_19">
    <path clip-path="url(#p6c879f8a53)" style="fill: none; stroke: #424242; stroke-width: 2.25; stroke-linecap: square"/>
   </g>
   <g id="line2d_20">
    <path clip-path="url(#p6c879f8a53)" style="fill: none; stroke: #424242; stroke-width: 2.25; stroke-linecap: square"/>
   </g>
   <g id="patch_15">
    <path d="M 90 320.4 
L 90 43.2 
" style="fill: none; stroke: #000000; stroke-width: 0.8; stroke-linejoin: miter; stroke-linecap: square"/>
   </g>
   <g id="patch_16">
    <path d="M 648 320.4 
L 648 43.2 
" style="fill: none; stroke: #000000; stroke-width: 0.8; stroke-linejoin: miter; stroke-linecap: square"/>
   </g>
   <g id="patch_17">
    <path d="M 90 320.4 
L 648 320.4 
" style="fill: none; stroke: #000000; stroke-width: 0.8; stroke-linejoin: miter; stroke-linecap: square"/>
   </g>
   <g id="patch_18">
    <path d="M 90 43.2 
L 648 43.2 
" style="fill: none; stroke: #000000; stroke-width: 0.8; stroke-linejoin: miter; stroke-linecap: square"/>
   </g>
   <g id="PathCollection_1">
    <defs>
     <path id="mf32230e6e4" d="M 0 2.5 
C 0.663008 2.5 1.29895 2.236584 1.767767 1.767767 
C 2.236584 1.29895 2.5 0.663008 2.5 0 
C 2.5 -0.663008 2.236584 -1.29895 1.767767 -1.767767 
C 1.29895 -2.236584 0.663008 -2.5 0 -2.5 
C -0.663008 -2.5 -1.29895 -2.236584 -1.767767 -1.767767 
C -2.236584 -1.29895 -2.5 -0.663008 -2.5 0 
C -2.5 0.663008 -2.236584 1.29895 -1.767767 1.767767 
C -1.29895 2.236584 -0.663008 2.5 0 2.5 
z
"/>
    </defs>
    <g clip-path="url(#p6c879f8a53)">
     <use xlink:href="#mf32230e6e4" x="156.585229" y="303.367742" style="fill-opacity: 0.3"/>
     <use xlink:href="#mf32230e6e4" x="155.360624" y="303.367742" style="fill-opacity: 0.3"/>
     <use xlink:href="#mf32230e6e4" x="138.837101" y="303.367742" style="fill-opacity: 0.3"/>
     <use xlink:href="#mf32230e6e4" x="136.006388" y="303.367742" style="fill-opacity: 0.3"/>
     <use xlink:href="#mf32230e6e4" x="148.43631" y="301.23871" style="fill-opacity: 0.3"/>
     <use xlink:href="#mf32230e6e4" x="139.566966" y="301.23871" style="fill-opacity: 0.3"/>
     <use xlink:href="#mf32230e6e4" x="152.767134" y="301.23871" style="fill-opacity: 0.3"/>
     <use xlink:href="#mf32230e6e4" x="138.836936" y="305.496774" style="fill-opacity: 0.3"/>
     <use xlink:href="#mf32230e6e4" x="137.802272" y="305.496774" style="fill-opacity: 0.3"/>
     <use xlink:href="#mf32230e6e4" x="145.081236" y="305.496774" style="fill-opacity: 0.3"/>
     <use xlink:href="#mf32230e6e4" x="149.800824" y="305.496774" style="fill-opacity: 0.3"/>
     <use xlink:href="#mf32230e6e4" x="145.26267" y="305.496774" style="fill-opacity: 0.3"/>
     <use xlink:href="#mf32230e6e4" x="149.710606" y="305.496774" style="fill-opacity: 0.3"/>
     <use xlink:href="#mf32230e6e4" x="148.348237" y="305.496774" style="fill-opacity: 0.3"/>
     <use xlink:href="#mf32230e6e4" x="151.771749" y="305.496774" style="fill-opacity: 0.3"/>
     <use xlink:href="#mf32230e6e4" x="154.380591" y="305.496774" style="fill-opacity: 0.3"/>
     <use xlink:href="#mf32230e6e4" x="142.511186" y="305.496774" style="fill-opacity: 0.3"/>
     <use xlink:href="#mf32230e6e4" x="144.430671" y="305.496774" style="fill-opacity: 0.3"/>
     <use xlink:href="#mf32230e6e4" x="151.011981" y="305.496774" style="fill-opacity: 0.3"/>
     <use xlink:href="#mf32230e6e4" x="136.577119" y="305.496774" style="fill-opacity: 0.3"/>
     <use xlink:href="#mf32230e6e4" x="155.710682" y="305.496774" style="fill-opacity: 0.3"/>
     <use xlink:href="#mf32230e6e4" x="141.955774" y="301.23871" style="fill-opacity: 0.3"/>
     <use xlink:href="#mf32230e6e4" x="149.283867" y="301.23871" style="fill-opacity: 0.3"/>
     <use xlink:href="#mf32230e6e4" x="138.547135" y="301.23871" style="fill-opacity: 0.3"/>
     <use xlink:href="#mf32230e6e4" x="139.996285" y="301.23871" style="fill-opacity: 0.3"/>
     <use xlink:href="#mf32230e6e4" x="137.032846" y="301.23871" style="fill-opacity: 0.3"/>
     <use xlink:href="#mf32230e6e4" x="150.517854" y="301.23871" style="fill-opacity: 0.3"/>
     <use xlink:href="#mf32230e6e4" x="141.419322" y="301.23871" style="fill-opacity: 0.3"/>
     <use xlink:href="#mf32230e6e4" x="150.258733" y="301.23871" style="fill-opacity: 0.3"/>
     <use xlink:href="#mf32230e6e4" x="137.546301" y="301.23871" style="fill-opacity: 0.3"/>
    </g>
   </g>
   <g id="PathCollection_2">
    <g clip-path="url(#p6c879f8a53)">
     <use xlink:href="#mf32230e6e4" x="248.119697" y="303.367742" style="fill-opacity: 0.3"/>
     <use xlink:href="#mf32230e6e4" x="249.504931" y="303.367742" style="fill-opacity: 0.3"/>
     <use xlink:href="#mf32230e6e4" x="257.02354" y="303.367742" style="fill-opacity: 0.3"/>
     <use xlink:href="#mf32230e6e4" x="267.379848" y="303.367742" style="fill-opacity: 0.3"/>
     <use xlink:href="#mf32230e6e4" x="267.389554" y="303.367742" style="fill-opacity: 0.3"/>
     <use xlink:href="#mf32230e6e4" x="251.595909" y="303.367742" style="fill-opacity: 0.3"/>
     <use xlink:href="#mf32230e6e4" x="250.04068" y="303.367742" style="fill-opacity: 0.3"/>
     <use xlink:href="#mf32230e6e4" x="248.793483" y="303.367742" style="fill-opacity: 0.3"/>
     <use xlink:href="#mf32230e6e4" x="255.054871" y="303.367742" style="fill-opacity: 0.3"/>
     <use xlink:href="#mf32230e6e4" x="248.683193" y="311.883871" style="fill-opacity: 0.3"/>
     <use xlink:href="#mf32230e6e4" x="251.371271" y="311.883871" style="fill-opacity: 0.3"/>
     <use xlink:href="#mf32230e6e4" x="256.906296" y="303.367742" style="fill-opacity: 0.3"/>
     <use xlink:href="#mf32230e6e4" x="246.51409" y="303.367742" style="fill-opacity: 0.3"/>
     <use xlink:href="#mf32230e6e4" x="253.922682" y="303.367742" style="fill-opacity: 0.3"/>
     <use xlink:href="#mf32230e6e4" x="249.98973" y="301.23871" style="fill-opacity: 0.3"/>
     <use xlink:href="#mf32230e6e4" x="252.612489" y="301.23871" style="fill-opacity: 0.3"/>
     <use xlink:href="#mf32230e6e4" x="264.951773" y="301.23871" style="fill-opacity: 0.3"/>
     <use xlink:href="#mf32230e6e4" x="263.992977" y="301.23871" style="fill-opacity: 0.3"/>
     <use xlink:href="#mf32230e6e4" x="258.838904" y="301.23871" style="fill-opacity: 0.3"/>
     <use xlink:href="#mf32230e6e4" x="263.531873" y="301.23871" style="fill-opacity: 0.3"/>
     <use xlink:href="#mf32230e6e4" x="258.334836" y="301.23871" style="fill-opacity: 0.3"/>
     <use xlink:href="#mf32230e6e4" x="248.827147" y="301.23871" style="fill-opacity: 0.3"/>
     <use xlink:href="#mf32230e6e4" x="249.201064" y="301.23871" style="fill-opacity: 0.3"/>
     <use xlink:href="#mf32230e6e4" x="263.74521" y="301.23871" style="fill-opacity: 0.3"/>
     <use xlink:href="#mf32230e6e4" x="256.405608" y="301.23871" style="fill-opacity: 0.3"/>
     <use xlink:href="#mf32230e6e4" x="251.818774" y="301.23871" style="fill-opacity: 0.3"/>
     <use xlink:href="#mf32230e6e4" x="247.970343" y="301.23871" style="fill-opacity: 0.3"/>
     <use xlink:href="#mf32230e6e4" x="251.559116" y="301.23871" style="fill-opacity: 0.3"/>
     <use xlink:href="#mf32230e6e4" x="246.24932" y="301.23871" style="fill-opacity: 0.3"/>
     <use xlink:href="#mf32230e6e4" x="250.152449" y="301.23871" style="fill-opacity: 0.3"/>
     <use xlink:href="#mf32230e6e4" x="265.333978" y="301.23871" style="fill-opacity: 0.3"/>
     <use xlink:href="#mf32230e6e4" x="247.602315" y="301.23871" style="fill-opacity: 0.3"/>
     <use xlink:href="#mf32230e6e4" x="254.269057" y="301.23871" style="fill-opacity: 0.3"/>
     <use xlink:href="#mf32230e6e4" x="260.60937" y="301.23871" style="fill-opacity: 0.3"/>
     <use xlink:href="#mf32230e6e4" x="266.893134" y="301.23871" style="fill-opacity: 0.3"/>
     <use xlink:href="#mf32230e6e4" x="262.588119" y="301.23871" style="fill-opacity: 0.3"/>
     <use xlink:href="#mf32230e6e4" x="266.351947" y="301.23871" style="fill-opacity: 0.3"/>
     <use xlink:href="#mf32230e6e4" x="254.702065" y="301.23871" style="fill-opacity: 0.3"/>
     <use xlink:href="#mf32230e6e4" x="262.473465" y="301.23871" style="fill-opacity: 0.3"/>
     <use xlink:href="#mf32230e6e4" x="264.505512" y="301.23871" style="fill-opacity: 0.3"/>
     <use xlink:href="#mf32230e6e4" x="258.636419" y="301.23871" style="fill-opacity: 0.3"/>
     <use xlink:href="#mf32230e6e4" x="268.092493" y="301.23871" style="fill-opacity: 0.3"/>
     <use xlink:href="#mf32230e6e4" x="260.169243" y="301.23871" style="fill-opacity: 0.3"/>
     <use xlink:href="#mf32230e6e4" x="250.456922" y="301.23871" style="fill-opacity: 0.3"/>
     <use xlink:href="#mf32230e6e4" x="266.245712" y="301.23871" style="fill-opacity: 0.3"/>
     <use xlink:href="#mf32230e6e4" x="265.676915" y="301.23871" style="fill-opacity: 0.3"/>
     <use xlink:href="#mf32230e6e4" x="256.617917" y="301.23871" style="fill-opacity: 0.3"/>
     <use xlink:href="#mf32230e6e4" x="253.160063" y="301.23871" style="fill-opacity: 0.3"/>
     <use xlink:href="#mf32230e6e4" x="267.118215" y="305.496774" style="fill-opacity: 0.3"/>
     <use xlink:href="#mf32230e6e4" x="256.480591" y="305.496774" style="fill-opacity: 0.3"/>
     <use xlink:href="#mf32230e6e4" x="247.267449" y="305.496774" style="fill-opacity: 0.3"/>
     <use xlink:href="#mf32230e6e4" x="258.263822" y="305.496774" style="fill-opacity: 0.3"/>
     <use xlink:href="#mf32230e6e4" x="264.118581" y="305.496774" style="fill-opacity: 0.3"/>
     <use xlink:href="#mf32230e6e4" x="258.956216" y="305.496774" style="fill-opacity: 0.3"/>
     <use xlink:href="#mf32230e6e4" x="255.926135" y="305.496774" style="fill-opacity: 0.3"/>
     <use xlink:href="#mf32230e6e4" x="252.821393" y="305.496774" style="fill-opacity: 0.3"/>
     <use xlink:href="#mf32230e6e4" x="251.261783" y="305.496774" style="fill-opacity: 0.3"/>
     <use xlink:href="#mf32230e6e4" x="266.479245" y="305.496774" style="fill-opacity: 0.3"/>
     <use xlink:href="#mf32230e6e4" x="263.25264" y="305.496774" style="fill-opacity: 0.3"/>
     <use xlink:href="#mf32230e6e4" x="256.264809" y="305.496774" style="fill-opacity: 0.3"/>
     <use xlink:href="#mf32230e6e4" x="257.44807" y="305.496774" style="fill-opacity: 0.3"/>
     <use xlink:href="#mf32230e6e4" x="256.964296" y="305.496774" style="fill-opacity: 0.3"/>
     <use xlink:href="#mf32230e6e4" x="248.693538" y="305.496774" style="fill-opacity: 0.3"/>
     <use xlink:href="#mf32230e6e4" x="264.726956" y="305.496774" style="fill-opacity: 0.3"/>
     <use xlink:href="#mf32230e6e4" x="252.416507" y="305.496774" style="fill-opacity: 0.3"/>
     <use xlink:href="#mf32230e6e4" x="246.450908" y="305.496774" style="fill-opacity: 0.3"/>
     <use xlink:href="#mf32230e6e4" x="250.669281" y="305.496774" style="fill-opacity: 0.3"/>
     <use xlink:href="#mf32230e6e4" x="262.593791" y="305.496774" style="fill-opacity: 0.3"/>
     <use xlink:href="#mf32230e6e4" x="246.417247" y="305.496774" style="fill-opacity: 0.3"/>
     <use xlink:href="#mf32230e6e4" x="247.59367" y="305.496774" style="fill-opacity: 0.3"/>
     <use xlink:href="#mf32230e6e4" x="261.789146" y="305.496774" style="fill-opacity: 0.3"/>
     <use xlink:href="#mf32230e6e4" x="252.80964" y="305.496774" style="fill-opacity: 0.3"/>
     <use xlink:href="#mf32230e6e4" x="251.087193" y="301.23871" style="fill-opacity: 0.3"/>
     <use xlink:href="#mf32230e6e4" x="253.827761" y="301.23871" style="fill-opacity: 0.3"/>
     <use xlink:href="#mf32230e6e4" x="264.16468" y="301.23871" style="fill-opacity: 0.3"/>
     <use xlink:href="#mf32230e6e4" x="265.159428" y="301.23871" style="fill-opacity: 0.3"/>
    </g>
   </g>
   <g id="PathCollection_3">
    <g clip-path="url(#p6c879f8a53)">
     <use xlink:href="#mf32230e6e4" x="379.568856" y="303.367742" style="fill-opacity: 0.3"/>
     <use xlink:href="#mf32230e6e4" x="369.421387" y="311.883871" style="fill-opacity: 0.3"/>
     <use xlink:href="#mf32230e6e4" x="366.370927" y="301.23871" style="fill-opacity: 0.3"/>
     <use xlink:href="#mf32230e6e4" x="363.004654" y="301.23871" style="fill-opacity: 0.3"/>
     <use xlink:href="#mf32230e6e4" x="359.177516" y="301.23871" style="fill-opacity: 0.3"/>
     <use xlink:href="#mf32230e6e4" x="375.929618" y="301.23871" style="fill-opacity: 0.3"/>
     <use xlink:href="#mf32230e6e4" x="370.239663" y="301.23871" style="fill-opacity: 0.3"/>
     <use xlink:href="#mf32230e6e4" x="375.76434" y="301.23871" style="fill-opacity: 0.3"/>
     <use xlink:href="#mf32230e6e4" x="361.009835" y="301.23871" style="fill-opacity: 0.3"/>
     <use xlink:href="#mf32230e6e4" x="369.433539" y="301.23871" style="fill-opacity: 0.3"/>
     <use xlink:href="#mf32230e6e4" x="358.934214" y="301.23871" style="fill-opacity: 0.3"/>
     <use xlink:href="#mf32230e6e4" x="378.682615" y="301.23871" style="fill-opacity: 0.3"/>
     <use xlink:href="#mf32230e6e4" x="374.482779" y="301.23871" style="fill-opacity: 0.3"/>
     <use xlink:href="#mf32230e6e4" x="361.389233" y="301.23871" style="fill-opacity: 0.3"/>
     <use xlink:href="#mf32230e6e4" x="373.081525" y="301.23871" style="fill-opacity: 0.3"/>
     <use xlink:href="#mf32230e6e4" x="368.134033" y="301.23871" style="fill-opacity: 0.3"/>
     <use xlink:href="#mf32230e6e4" x="362.771373" y="301.23871" style="fill-opacity: 0.3"/>
     <use xlink:href="#mf32230e6e4" x="372.57498" y="301.23871" style="fill-opacity: 0.3"/>
     <use xlink:href="#mf32230e6e4" x="363.911198" y="301.23871" style="fill-opacity: 0.3"/>
     <use xlink:href="#mf32230e6e4" x="379.208847" y="301.23871" style="fill-opacity: 0.3"/>
     <use xlink:href="#mf32230e6e4" x="362.536832" y="301.23871" style="fill-opacity: 0.3"/>
     <use xlink:href="#mf32230e6e4" x="367.486363" y="301.23871" style="fill-opacity: 0.3"/>
     <use xlink:href="#mf32230e6e4" x="377.651341" y="305.496774" style="fill-opacity: 0.3"/>
     <use xlink:href="#mf32230e6e4" x="379.065668" y="305.496774" style="fill-opacity: 0.3"/>
     <use xlink:href="#mf32230e6e4" x="379.927347" y="305.496774" style="fill-opacity: 0.3"/>
     <use xlink:href="#mf32230e6e4" x="369.750119" y="305.496774" style="fill-opacity: 0.3"/>
     <use xlink:href="#mf32230e6e4" x="359.646995" y="305.496774" style="fill-opacity: 0.3"/>
     <use xlink:href="#mf32230e6e4" x="372.807897" y="305.496774" style="fill-opacity: 0.3"/>
     <use xlink:href="#mf32230e6e4" x="372.495337" y="305.496774" style="fill-opacity: 0.3"/>
     <use xlink:href="#mf32230e6e4" x="366.209627" y="305.496774" style="fill-opacity: 0.3"/>
     <use xlink:href="#mf32230e6e4" x="376.041575" y="305.496774" style="fill-opacity: 0.3"/>
     <use xlink:href="#mf32230e6e4" x="377.508825" y="305.496774" style="fill-opacity: 0.3"/>
     <use xlink:href="#mf32230e6e4" x="370.532577" y="305.496774" style="fill-opacity: 0.3"/>
     <use xlink:href="#mf32230e6e4" x="358.001816" y="305.496774" style="fill-opacity: 0.3"/>
     <use xlink:href="#mf32230e6e4" x="370.749692" y="301.23871" style="fill-opacity: 0.3"/>
     <use xlink:href="#mf32230e6e4" x="367.175638" y="301.23871" style="fill-opacity: 0.3"/>
     <use xlink:href="#mf32230e6e4" x="375.683055" y="301.23871" style="fill-opacity: 0.3"/>
     <use xlink:href="#mf32230e6e4" x="371.586168" y="301.23871" style="fill-opacity: 0.3"/>
     <use xlink:href="#mf32230e6e4" x="366.483033" y="301.23871" style="fill-opacity: 0.3"/>
     <use xlink:href="#mf32230e6e4" x="375.651741" y="301.23871" style="fill-opacity: 0.3"/>
     <use xlink:href="#mf32230e6e4" x="372.535557" y="301.23871" style="fill-opacity: 0.3"/>
    </g>
   </g>
   <g id="PathCollection_4">
    <g clip-path="url(#p6c879f8a53)">
     <use xlink:href="#mf32230e6e4" x="491.625382" y="303.367742" style="fill-opacity: 0.3"/>
     <use xlink:href="#mf32230e6e4" x="484.936004" y="303.367742" style="fill-opacity: 0.3"/>
     <use xlink:href="#mf32230e6e4" x="481.237171" y="303.367742" style="fill-opacity: 0.3"/>
     <use xlink:href="#mf32230e6e4" x="485.777399" y="311.883871" style="fill-opacity: 0.3"/>
     <use xlink:href="#mf32230e6e4" x="485.569572" y="311.883871" style="fill-opacity: 0.3"/>
     <use xlink:href="#mf32230e6e4" x="477.145104" y="311.883871" style="fill-opacity: 0.3"/>
     <use xlink:href="#mf32230e6e4" x="481.733573" y="311.883871" style="fill-opacity: 0.3"/>
     <use xlink:href="#mf32230e6e4" x="475.901301" y="311.883871" style="fill-opacity: 0.3"/>
     <use xlink:href="#mf32230e6e4" x="469.650672" y="303.367742" style="fill-opacity: 0.3"/>
     <use xlink:href="#mf32230e6e4" x="477.547621" y="311.883871" style="fill-opacity: 0.3"/>
     <use xlink:href="#mf32230e6e4" x="482.142548" y="311.883871" style="fill-opacity: 0.3"/>
     <use xlink:href="#mf32230e6e4" x="482.002541" y="311.883871" style="fill-opacity: 0.3"/>
     <use xlink:href="#mf32230e6e4" x="474.086691" y="301.23871" style="fill-opacity: 0.3"/>
     <use xlink:href="#mf32230e6e4" x="481.798479" y="301.23871" style="fill-opacity: 0.3"/>
     <use xlink:href="#mf32230e6e4" x="471.575563" y="301.23871" style="fill-opacity: 0.3"/>
     <use xlink:href="#mf32230e6e4" x="484.167562" y="301.23871" style="fill-opacity: 0.3"/>
     <use xlink:href="#mf32230e6e4" x="469.674491" y="301.23871" style="fill-opacity: 0.3"/>
     <use xlink:href="#mf32230e6e4" x="484.955789" y="301.23871" style="fill-opacity: 0.3"/>
     <use xlink:href="#mf32230e6e4" x="479.326386" y="301.23871" style="fill-opacity: 0.3"/>
     <use xlink:href="#mf32230e6e4" x="485.442109" y="301.23871" style="fill-opacity: 0.3"/>
     <use xlink:href="#mf32230e6e4" x="478.502526" y="301.23871" style="fill-opacity: 0.3"/>
     <use xlink:href="#mf32230e6e4" x="470.088957" y="301.23871" style="fill-opacity: 0.3"/>
     <use xlink:href="#mf32230e6e4" x="485.95079" y="301.23871" style="fill-opacity: 0.3"/>
     <use xlink:href="#mf32230e6e4" x="476.526336" y="301.23871" style="fill-opacity: 0.3"/>
     <use xlink:href="#mf32230e6e4" x="470.119111" y="301.23871" style="fill-opacity: 0.3"/>
     <use xlink:href="#mf32230e6e4" x="481.732567" y="301.23871" style="fill-opacity: 0.3"/>
     <use xlink:href="#mf32230e6e4" x="482.133622" y="301.23871" style="fill-opacity: 0.3"/>
     <use xlink:href="#mf32230e6e4" x="482.62844" y="301.23871" style="fill-opacity: 0.3"/>
     <use xlink:href="#mf32230e6e4" x="488.452381" y="301.23871" style="fill-opacity: 0.3"/>
     <use xlink:href="#mf32230e6e4" x="487.112297" y="301.23871" style="fill-opacity: 0.3"/>
     <use xlink:href="#mf32230e6e4" x="473.638516" y="301.23871" style="fill-opacity: 0.3"/>
     <use xlink:href="#mf32230e6e4" x="486.398916" y="301.23871" style="fill-opacity: 0.3"/>
     <use xlink:href="#mf32230e6e4" x="475.698856" y="301.23871" style="fill-opacity: 0.3"/>
     <use xlink:href="#mf32230e6e4" x="480.140185" y="301.23871" style="fill-opacity: 0.3"/>
     <use xlink:href="#mf32230e6e4" x="475.751563" y="301.23871" style="fill-opacity: 0.3"/>
     <use xlink:href="#mf32230e6e4" x="488.664456" y="301.23871" style="fill-opacity: 0.3"/>
     <use xlink:href="#mf32230e6e4" x="475.863924" y="301.23871" style="fill-opacity: 0.3"/>
     <use xlink:href="#mf32230e6e4" x="491.233713" y="301.23871" style="fill-opacity: 0.3"/>
     <use xlink:href="#mf32230e6e4" x="475.694" y="301.23871" style="fill-opacity: 0.3"/>
     <use xlink:href="#mf32230e6e4" x="472.36234" y="301.23871" style="fill-opacity: 0.3"/>
     <use xlink:href="#mf32230e6e4" x="491.223429" y="301.23871" style="fill-opacity: 0.3"/>
     <use xlink:href="#mf32230e6e4" x="471.319677" y="301.23871" style="fill-opacity: 0.3"/>
     <use xlink:href="#mf32230e6e4" x="475.429333" y="301.23871" style="fill-opacity: 0.3"/>
     <use xlink:href="#mf32230e6e4" x="486.983952" y="301.23871" style="fill-opacity: 0.3"/>
     <use xlink:href="#mf32230e6e4" x="490.933834" y="301.23871" style="fill-opacity: 0.3"/>
     <use xlink:href="#mf32230e6e4" x="488.954483" y="301.23871" style="fill-opacity: 0.3"/>
     <use xlink:href="#mf32230e6e4" x="483.882023" y="301.23871" style="fill-opacity: 0.3"/>
     <use xlink:href="#mf32230e6e4" x="469.760701" y="301.23871" style="fill-opacity: 0.3"/>
     <use xlink:href="#mf32230e6e4" x="472.066587" y="301.23871" style="fill-opacity: 0.3"/>
     <use xlink:href="#mf32230e6e4" x="476.219017" y="301.23871" style="fill-opacity: 0.3"/>
     <use xlink:href="#mf32230e6e4" x="471.825296" y="301.23871" style="fill-opacity: 0.3"/>
     <use xlink:href="#mf32230e6e4" x="485.901822" y="301.23871" style="fill-opacity: 0.3"/>
     <use xlink:href="#mf32230e6e4" x="484.700477" y="305.496774" style="fill-opacity: 0.3"/>
     <use xlink:href="#mf32230e6e4" x="469.910456" y="305.496774" style="fill-opacity: 0.3"/>
     <use xlink:href="#mf32230e6e4" x="471.962556" y="305.496774" style="fill-opacity: 0.3"/>
     <use xlink:href="#mf32230e6e4" x="485.153224" y="305.496774" style="fill-opacity: 0.3"/>
     <use xlink:href="#mf32230e6e4" x="487.963722" y="305.496774" style="fill-opacity: 0.3"/>
     <use xlink:href="#mf32230e6e4" x="486.144836" y="305.496774" style="fill-opacity: 0.3"/>
     <use xlink:href="#mf32230e6e4" x="472.593747" y="305.496774" style="fill-opacity: 0.3"/>
     <use xlink:href="#mf32230e6e4" x="471.638855" y="305.496774" style="fill-opacity: 0.3"/>
     <use xlink:href="#mf32230e6e4" x="478.707523" y="305.496774" style="fill-opacity: 0.3"/>
     <use xlink:href="#mf32230e6e4" x="478.302383" y="305.496774" style="fill-opacity: 0.3"/>
     <use xlink:href="#mf32230e6e4" x="473.269527" y="301.23871" style="fill-opacity: 0.3"/>
    </g>
   </g>
   <g id="legend_1">
    <g id="patch_19">
     <path d="M 97 124.590625 
L 154.048438 124.590625 
Q 156.048438 124.590625 156.048438 122.590625 
L 156.048438 50.2 
Q 156.048438 48.2 154.048438 48.2 
L 97 48.2 
Q 95 48.2 95 50.2 
L 95 122.590625 
Q 95 124.590625 97 124.590625 
z
" style="fill: #ffffff; opacity: 0.8; stroke: #cccccc; stroke-linejoin: miter"/>
    </g>
    <g id="text_15">
     <!-- rodent.sex -->
     <g transform="translate(99 59.798437) scale(0.1 -0.1)">
      <defs>
       <path id="DejaVuSans-64" d="M 2906 2969 
L 2906 4863 
L 3481 4863 
L 3481 0 
L 2906 0 
L 2906 525 
Q 2725 213 2448 61 
Q 2172 -91 1784 -91 
Q 1150 -91 751 415 
Q 353 922 353 1747 
Q 353 2572 751 3078 
Q 1150 3584 1784 3584 
Q 2172 3584 2448 3432 
Q 2725 3281 2906 2969 
z
M 947 1747 
Q 947 1113 1208 752 
Q 1469 391 1925 391 
Q 2381 391 2643 752 
Q 2906 1113 2906 1747 
Q 2906 2381 2643 2742 
Q 2381 3103 1925 3103 
Q 1469 3103 1208 2742 
Q 947 2381 947 1747 
z
" transform="scale(0.015625)"/>
       <path id="DejaVuSans-2e" d="M 684 794 
L 1344 794 
L 1344 0 
L 684 0 
L 684 794 
z
" transform="scale(0.015625)"/>
       <path id="DejaVuSans-78" d="M 3513 3500 
L 2247 1797 
L 3578 0 
L 2900 0 
L 1881 1375 
L 863 0 
L 184 0 
L 1544 1831 
L 300 3500 
L 978 3500 
L 1906 2253 
L 2834 3500 
L 3513 3500 
z
" transform="scale(0.015625)"/>
      </defs>
      <use xlink:href="#DejaVuSans-72"/>
      <use xlink:href="#DejaVuSans-6f" transform="translate(38.863281 0)"/>
      <use xlink:href="#DejaVuSans-64" transform="translate(100.044922 0)"/>
      <use xlink:href="#DejaVuSans-65" transform="translate(163.521484 0)"/>
      <use xlink:href="#DejaVuSans-6e" transform="translate(225.044922 0)"/>
      <use xlink:href="#DejaVuSans-74" transform="translate(288.423828 0)"/>
      <use xlink:href="#DejaVuSans-2e" transform="translate(327.632812 0)"/>
      <use xlink:href="#DejaVuSans-73" transform="translate(359.419922 0)"/>
      <use xlink:href="#DejaVuSans-65" transform="translate(411.519531 0)"/>
      <use xlink:href="#DejaVuSans-78" transform="translate(471.292969 0)"/>
     </g>
    </g>
    <g id="patch_20">
     <path d="M 106.653906 74.476562 
L 126.653906 74.476562 
L 126.653906 67.476562 
L 106.653906 67.476562 
z
" style="fill: #3274a1"/>
    </g>
    <g id="text_16">
     <!-- f -->
     <g transform="translate(134.653906 74.476562) scale(0.1 -0.1)">
      <use xlink:href="#DejaVuSans-66"/>
     </g>
    </g>
    <g id="patch_21">
     <path d="M 106.653906 89.154688 
L 126.653906 89.154688 
L 126.653906 82.154688 
L 106.653906 82.154688 
z
" style="fill: #e1812c"/>
    </g>
    <g id="text_17">
     <!-- m -->
     <g transform="translate(134.653906 89.154688) scale(0.1 -0.1)">
      <defs>
       <path id="DejaVuSans-6d" d="M 3328 2828 
Q 3544 3216 3844 3400 
Q 4144 3584 4550 3584 
Q 5097 3584 5394 3201 
Q 5691 2819 5691 2113 
L 5691 0 
L 5113 0 
L 5113 2094 
Q 5113 2597 4934 2840 
Q 4756 3084 4391 3084 
Q 3944 3084 3684 2787 
Q 3425 2491 3425 1978 
L 3425 0 
L 2847 0 
L 2847 2094 
Q 2847 2600 2669 2842 
Q 2491 3084 2119 3084 
Q 1678 3084 1418 2786 
Q 1159 2488 1159 1978 
L 1159 0 
L 581 0 
L 581 3500 
L 1159 3500 
L 1159 2956 
Q 1356 3278 1631 3431 
Q 1906 3584 2284 3584 
Q 2666 3584 2933 3390 
Q 3200 3197 3328 2828 
z
" transform="scale(0.015625)"/>
      </defs>
      <use xlink:href="#DejaVuSans-6d"/>
     </g>
    </g>
    <g id="patch_22">
     <path d="M 106.653906 103.832812 
L 126.653906 103.832812 
L 126.653906 96.832812 
L 106.653906 96.832812 
z
" style="fill: #3274a1"/>
    </g>
    <g id="text_18">
     <!-- f -->
     <g transform="translate(134.653906 103.832812) scale(0.1 -0.1)">
      <use xlink:href="#DejaVuSans-66"/>
     </g>
    </g>
    <g id="patch_23">
     <path d="M 106.653906 118.510938 
L 126.653906 118.510938 
L 126.653906 111.510938 
L 106.653906 111.510938 
z
" style="fill: #e1812c"/>
    </g>
    <g id="text_19">
     <!-- m -->
     <g transform="translate(134.653906 118.510938) scale(0.1 -0.1)">
      <use xlink:href="#DejaVuSans-6d"/>
     </g>
    </g>
   </g>
  </g>
 </g>
 <defs>
  <clipPath id="p6c879f8a53">
   <rect x="90" y="43.2" width="558" height="277.2"/>
  </clipPath>
 </defs>
</svg>
