<?xml version="1.0" encoding="utf-8" standalone="no"?>
<!DOCTYPE svg PUBLIC "-//W3C//DTD SVG 1.1//EN"
  "http://www.w3.org/Graphics/SVG/1.1/DTD/svg11.dtd">
<svg xmlns:xlink="http://www.w3.org/1999/xlink" width="457.2pt" height="360pt" viewBox="0 0 457.2 360" xmlns="http://www.w3.org/2000/svg" version="1.1">
 <metadata>
  <rdf:RDF xmlns:dc="http://purl.org/dc/elements/1.1/" xmlns:cc="http://creativecommons.org/ns#" xmlns:rdf="http://www.w3.org/1999/02/22-rdf-syntax-ns#">
   <cc:Work>
    <dc:type rdf:resource="http://purl.org/dc/dcmitype/StillImage"/>
    <dc:date>2025-08-12T09:42:41.651930</dc:date>
    <dc:format>image/svg+xml</dc:format>
    <dc:creator>
     <cc:Agent>
      <dc:title>Matplotlib v3.10.3, https://matplotlib.org/</dc:title>
     </cc:Agent>
    </dc:creator>
   </cc:Work>
  </rdf:RDF>
 </metadata>
 <defs>
  <style type="text/css">*{stroke-linejoin: round; stroke-linecap: butt}</style>
 </defs>
 <g id="figure_1">
  <g id="patch_1">
   <path d="M 0 360 
L 457.2 360 
L 457.2 0 
L 0 0 
z
" style="fill: #ffffff"/>
  </g>
  <g id="axes_1">
   <g id="patch_2">
    <path d="M 51.05 318.04 
L 328.319096 318.04 
L 328.319096 10.8 
L 51.05 10.8 
z
" style="fill: #ffffff"/>
   </g>
   <g id="patch_3">
    <path d="M 63.653141 10.8 
L 91.66012 10.8 
L 91.66012 50.841303 
L 63.653141 50.841303 
z
" clip-path="url(#pe44edb44c2)" style="fill: #d62728; fill-opacity: 0.75; stroke: #000000; stroke-linejoin: miter"/>
   </g>
   <g id="patch_4">
    <path d="M 91.66012 10.8 
L 119.6671 10.8 
L 119.6671 50.841303 
L 91.66012 50.841303 
z
" clip-path="url(#pe44edb44c2)" style="fill: #d62728; fill-opacity: 0.75; stroke: #000000; stroke-linejoin: miter"/>
   </g>
   <g id="patch_5">
    <path d="M 119.6671 10.8 
L 147.674079 10.8 
L 147.674079 38.520902 
L 119.6671 38.520902 
z
" clip-path="url(#pe44edb44c2)" style="fill: #d62728; fill-opacity: 0.75; stroke: #000000; stroke-linejoin: miter"/>
   </g>
   <g id="patch_6">
    <path d="M 147.674079 10.8 
L 175.681059 10.8 
L 175.681059 44.681103 
L 147.674079 44.681103 
z
" clip-path="url(#pe44edb44c2)" style="fill: #d62728; fill-opacity: 0.75; stroke: #000000; stroke-linejoin: miter"/>
   </g>
   <g id="patch_7">
    <path d="M 175.681059 10.8 
L 203.688038 10.8 
L 203.688038 47.761203 
L 175.681059 47.761203 
z
" clip-path="url(#pe44edb44c2)" style="fill: #d62728; fill-opacity: 0.75; stroke: #000000; stroke-linejoin: miter"/>
   </g>
   <g id="patch_8">
    <path d="M 203.688038 10.8 
L 231.695017 10.8 
L 231.695017 38.520902 
L 203.688038 38.520902 
z
" clip-path="url(#pe44edb44c2)" style="fill: #d62728; fill-opacity: 0.75; stroke: #000000; stroke-linejoin: miter"/>
   </g>
   <g id="patch_9">
    <path d="M 231.695017 10.8 
L 259.701997 10.8 
L 259.701997 46.221153 
L 231.695017 46.221153 
z
" clip-path="url(#pe44edb44c2)" style="fill: #d62728; fill-opacity: 0.75; stroke: #000000; stroke-linejoin: miter"/>
   </g>
   <g id="patch_10">
    <path d="M 259.701997 10.8 
L 287.708976 10.8 
L 287.708976 44.681103 
L 259.701997 44.681103 
z
" clip-path="url(#pe44edb44c2)" style="fill: #d62728; fill-opacity: 0.75; stroke: #000000; stroke-linejoin: miter"/>
   </g>
   <g id="patch_11">
    <path d="M 287.708976 10.8 
L 315.715956 10.8 
L 315.715956 43.141053 
L 287.708976 43.141053 
z
" clip-path="url(#pe44edb44c2)" style="fill: #d62728; fill-opacity: 0.75; stroke: #000000; stroke-linejoin: miter"/>
   </g>
   <g id="patch_12">
    <path d="M 63.653141 50.841303 
L 91.66012 50.841303 
L 91.66012 117.063459 
L 63.653141 117.063459 
z
" clip-path="url(#pe44edb44c2)" style="fill: #2ca02c; fill-opacity: 0.75; stroke: #000000; stroke-linejoin: miter"/>
   </g>
   <g id="patch_13">
    <path d="M 91.66012 50.841303 
L 119.6671 50.841303 
L 119.6671 118.603509 
L 91.66012 118.603509 
z
" clip-path="url(#pe44edb44c2)" style="fill: #2ca02c; fill-opacity: 0.75; stroke: #000000; stroke-linejoin: miter"/>
   </g>
   <g id="patch_14">
    <path d="M 119.6671 38.520902 
L 147.674079 38.520902 
L 147.674079 113.983358 
L 119.6671 113.983358 
z
" clip-path="url(#pe44edb44c2)" style="fill: #2ca02c; fill-opacity: 0.75; stroke: #000000; stroke-linejoin: miter"/>
   </g>
   <g id="patch_15">
    <path d="M 147.674079 44.681103 
L 175.681059 44.681103 
L 175.681059 117.063459 
L 147.674079 117.063459 
z
" clip-path="url(#pe44edb44c2)" style="fill: #2ca02c; fill-opacity: 0.75; stroke: #000000; stroke-linejoin: miter"/>
   </g>
   <g id="patch_16">
    <path d="M 175.681059 47.761203 
L 203.688038 47.761203 
L 203.688038 123.223659 
L 175.681059 123.223659 
z
" clip-path="url(#pe44edb44c2)" style="fill: #2ca02c; fill-opacity: 0.75; stroke: #000000; stroke-linejoin: miter"/>
   </g>
   <g id="patch_17">
    <path d="M 203.688038 38.520902 
L 231.695017 38.520902 
L 231.695017 106.283108 
L 203.688038 106.283108 
z
" clip-path="url(#pe44edb44c2)" style="fill: #2ca02c; fill-opacity: 0.75; stroke: #000000; stroke-linejoin: miter"/>
   </g>
   <g id="patch_18">
    <path d="M 231.695017 46.221153 
L 259.701997 46.221153 
L 259.701997 106.283108 
L 231.695017 106.283108 
z
" clip-path="url(#pe44edb44c2)" style="fill: #2ca02c; fill-opacity: 0.75; stroke: #000000; stroke-linejoin: miter"/>
   </g>
   <g id="patch_19">
    <path d="M 259.701997 44.681103 
L 287.708976 44.681103 
L 287.708976 101.662957 
L 259.701997 101.662957 
z
" clip-path="url(#pe44edb44c2)" style="fill: #2ca02c; fill-opacity: 0.75; stroke: #000000; stroke-linejoin: miter"/>
   </g>
   <g id="patch_20">
    <path d="M 287.708976 43.141053 
L 315.715956 43.141053 
L 315.715956 95.502757 
L 287.708976 95.502757 
z
" clip-path="url(#pe44edb44c2)" style="fill: #2ca02c; fill-opacity: 0.75; stroke: #000000; stroke-linejoin: miter"/>
   </g>
   <g id="patch_21">
    <path d="M 63.653141 117.063459 
L 91.66012 117.063459 
L 91.66012 183.285614 
L 63.653141 183.285614 
z
" clip-path="url(#pe44edb44c2)" style="fill: #ff7f0e; fill-opacity: 0.75; stroke: #000000; stroke-linejoin: miter"/>
   </g>
   <g id="patch_22">
    <path d="M 91.66012 118.603509 
L 119.6671 118.603509 
L 119.6671 183.285614 
L 91.66012 183.285614 
z
" clip-path="url(#pe44edb44c2)" style="fill: #ff7f0e; fill-opacity: 0.75; stroke: #000000; stroke-linejoin: miter"/>
   </g>
   <g id="patch_23">
    <path d="M 119.6671 113.983358 
L 147.674079 113.983358 
L 147.674079 175.585363 
L 119.6671 175.585363 
z
" clip-path="url(#pe44edb44c2)" style="fill: #ff7f0e; fill-opacity: 0.75; stroke: #000000; stroke-linejoin: miter"/>
   </g>
   <g id="patch_24">
    <path d="M 147.674079 117.063459 
L 175.681059 117.063459 
L 175.681059 212.546566 
L 147.674079 212.546566 
z
" clip-path="url(#pe44edb44c2)" style="fill: #ff7f0e; fill-opacity: 0.75; stroke: #000000; stroke-linejoin: miter"/>
   </g>
   <g id="patch_25">
    <path d="M 175.681059 123.223659 
L 203.688038 123.223659 
L 203.688038 204.846316 
L 175.681059 204.846316 
z
" clip-path="url(#pe44edb44c2)" style="fill: #ff7f0e; fill-opacity: 0.75; stroke: #000000; stroke-linejoin: miter"/>
   </g>
   <g id="patch_26">
    <path d="M 203.688038 106.283108 
L 231.695017 106.283108 
L 231.695017 195.606015 
L 203.688038 195.606015 
z
" clip-path="url(#pe44edb44c2)" style="fill: #ff7f0e; fill-opacity: 0.75; stroke: #000000; stroke-linejoin: miter"/>
   </g>
   <g id="patch_27">
    <path d="M 231.695017 106.283108 
L 259.701997 106.283108 
L 259.701997 197.146065 
L 231.695017 197.146065 
z
" clip-path="url(#pe44edb44c2)" style="fill: #ff7f0e; fill-opacity: 0.75; stroke: #000000; stroke-linejoin: miter"/>
   </g>
   <g id="patch_28">
    <path d="M 259.701997 101.662957 
L 287.708976 101.662957 
L 287.708976 198.686115 
L 259.701997 198.686115 
z
" clip-path="url(#pe44edb44c2)" style="fill: #ff7f0e; fill-opacity: 0.75; stroke: #000000; stroke-linejoin: miter"/>
   </g>
   <g id="patch_29">
    <path d="M 287.708976 95.502757 
L 315.715956 95.502757 
L 315.715956 190.985865 
L 287.708976 190.985865 
z
" clip-path="url(#pe44edb44c2)" style="fill: #ff7f0e; fill-opacity: 0.75; stroke: #000000; stroke-linejoin: miter"/>
   </g>
   <g id="patch_30">
    <path d="M 63.653141 183.285614 
L 91.66012 183.285614 
L 91.66012 303.409524 
L 63.653141 303.409524 
z
" clip-path="url(#pe44edb44c2)" style="fill: #1f77b4; fill-opacity: 0.75; stroke: #000000; stroke-linejoin: miter"/>
   </g>
   <g id="patch_31">
    <path d="M 91.66012 183.285614 
L 119.6671 183.285614 
L 119.6671 303.409524 
L 91.66012 303.409524 
z
" clip-path="url(#pe44edb44c2)" style="fill: #1f77b4; fill-opacity: 0.75; stroke: #000000; stroke-linejoin: miter"/>
   </g>
   <g id="patch_32">
    <path d="M 119.6671 175.585363 
L 147.674079 175.585363 
L 147.674079 303.409524 
L 119.6671 303.409524 
z
" clip-path="url(#pe44edb44c2)" style="fill: #1f77b4; fill-opacity: 0.75; stroke: #000000; stroke-linejoin: miter"/>
   </g>
   <g id="patch_33">
    <path d="M 147.674079 212.546566 
L 175.681059 212.546566 
L 175.681059 303.409524 
L 147.674079 303.409524 
z
" clip-path="url(#pe44edb44c2)" style="fill: #1f77b4; fill-opacity: 0.75; stroke: #000000; stroke-linejoin: miter"/>
   </g>
   <g id="patch_34">
    <path d="M 175.681059 204.846316 
L 203.688038 204.846316 
L 203.688038 303.409524 
L 175.681059 303.409524 
z
" clip-path="url(#pe44edb44c2)" style="fill: #1f77b4; fill-opacity: 0.75; stroke: #000000; stroke-linejoin: miter"/>
   </g>
   <g id="patch_35">
    <path d="M 203.688038 195.606015 
L 231.695017 195.606015 
L 231.695017 303.409524 
L 203.688038 303.409524 
z
" clip-path="url(#pe44edb44c2)" style="fill: #1f77b4; fill-opacity: 0.75; stroke: #000000; stroke-linejoin: miter"/>
   </g>
   <g id="patch_36">
    <path d="M 231.695017 197.146065 
L 259.701997 197.146065 
L 259.701997 303.409524 
L 231.695017 303.409524 
z
" clip-path="url(#pe44edb44c2)" style="fill: #1f77b4; fill-opacity: 0.75; stroke: #000000; stroke-linejoin: miter"/>
   </g>
   <g id="patch_37">
    <path d="M 259.701997 198.686115 
L 287.708976 198.686115 
L 287.708976 303.409524 
L 259.701997 303.409524 
z
" clip-path="url(#pe44edb44c2)" style="fill: #1f77b4; fill-opacity: 0.75; stroke: #000000; stroke-linejoin: miter"/>
   </g>
   <g id="patch_38">
    <path d="M 287.708976 190.985865 
L 315.715956 190.985865 
L 315.715956 303.409524 
L 287.708976 303.409524 
z
" clip-path="url(#pe44edb44c2)" style="fill: #1f77b4; fill-opacity: 0.75; stroke: #000000; stroke-linejoin: miter"/>
   </g>
   <g id="matplotlib.axis_1">
    <g id="xtick_1">
     <g id="line2d_1">
      <defs>
       <path id="m82828a0357" d="M 0 0 
L 0 3.5 
" style="stroke: #000000; stroke-width: 0.8"/>
      </defs>
      <g>
       <use xlink:href="#m82828a0357" x="77.65663" y="318.04" style="stroke: #000000; stroke-width: 0.8"/>
      </g>
     </g>
     <g id="text_1">
      <!-- s1.cat.gsr1 -->
      <g transform="translate(80.416005 380.54625) rotate(-90) scale(0.1 -0.1)">
       <defs>
        <path id="DejaVuSans-73" d="M 2834 3397 
L 2834 2853 
Q 2591 2978 2328 3040 
Q 2066 3103 1784 3103 
Q 1356 3103 1142 2972 
Q 928 2841 928 2578 
Q 928 2378 1081 2264 
Q 1234 2150 1697 2047 
L 1894 2003 
Q 2506 1872 2764 1633 
Q 3022 1394 3022 966 
Q 3022 478 2636 193 
Q 2250 -91 1575 -91 
Q 1294 -91 989 -36 
Q 684 19 347 128 
L 347 722 
Q 666 556 975 473 
Q 1284 391 1588 391 
Q 1994 391 2212 530 
Q 2431 669 2431 922 
Q 2431 1156 2273 1281 
Q 2116 1406 1581 1522 
L 1381 1569 
Q 847 1681 609 1914 
Q 372 2147 372 2553 
Q 372 3047 722 3315 
Q 1072 3584 1716 3584 
Q 2034 3584 2315 3537 
Q 2597 3491 2834 3397 
z
" transform="scale(0.015625)"/>
        <path id="DejaVuSans-31" d="M 794 531 
L 1825 531 
L 1825 4091 
L 703 3866 
L 703 4441 
L 1819 4666 
L 2450 4666 
L 2450 531 
L 3481 531 
L 3481 0 
L 794 0 
L 794 531 
z
" transform="scale(0.015625)"/>
        <path id="DejaVuSans-2e" d="M 684 794 
L 1344 794 
L 1344 0 
L 684 0 
L 684 794 
z
" transform="scale(0.015625)"/>
        <path id="DejaVuSans-63" d="M 3122 3366 
L 3122 2828 
Q 2878 2963 2633 3030 
Q 2388 3097 2138 3097 
Q 1578 3097 1268 2742 
Q 959 2388 959 1747 
Q 959 1106 1268 751 
Q 1578 397 2138 397 
Q 2388 397 2633 464 
Q 2878 531 3122 666 
L 3122 134 
Q 2881 22 2623 -34 
Q 2366 -91 2075 -91 
Q 1284 -91 818 406 
Q 353 903 353 1747 
Q 353 2603 823 3093 
Q 1294 3584 2113 3584 
Q 2378 3584 2631 3529 
Q 2884 3475 3122 3366 
z
" transform="scale(0.015625)"/>
        <path id="DejaVuSans-61" d="M 2194 1759 
Q 1497 1759 1228 1600 
Q 959 1441 959 1056 
Q 959 750 1161 570 
Q 1363 391 1709 391 
Q 2188 391 2477 730 
Q 2766 1069 2766 1631 
L 2766 1759 
L 2194 1759 
z
M 3341 1997 
L 3341 0 
L 2766 0 
L 2766 531 
Q 2569 213 2275 61 
Q 1981 -91 1556 -91 
Q 1019 -91 701 211 
Q 384 513 384 1019 
Q 384 1609 779 1909 
Q 1175 2209 1959 2209 
L 2766 2209 
L 2766 2266 
Q 2766 2663 2505 2880 
Q 2244 3097 1772 3097 
Q 1472 3097 1187 3025 
Q 903 2953 641 2809 
L 641 3341 
Q 956 3463 1253 3523 
Q 1550 3584 1831 3584 
Q 2591 3584 2966 3190 
Q 3341 2797 3341 1997 
z
" transform="scale(0.015625)"/>
        <path id="DejaVuSans-74" d="M 1172 4494 
L 1172 3500 
L 2356 3500 
L 2356 3053 
L 1172 3053 
L 1172 1153 
Q 1172 725 1289 603 
Q 1406 481 1766 481 
L 2356 481 
L 2356 0 
L 1766 0 
Q 1100 0 847 248 
Q 594 497 594 1153 
L 594 3053 
L 172 3053 
L 172 3500 
L 594 3500 
L 594 4494 
L 1172 4494 
z
" transform="scale(0.015625)"/>
        <path id="DejaVuSans-67" d="M 2906 1791 
Q 2906 2416 2648 2759 
Q 2391 3103 1925 3103 
Q 1463 3103 1205 2759 
Q 947 2416 947 1791 
Q 947 1169 1205 825 
Q 1463 481 1925 481 
Q 2391 481 2648 825 
Q 2906 1169 2906 1791 
z
M 3481 434 
Q 3481 -459 3084 -895 
Q 2688 -1331 1869 -1331 
Q 1566 -1331 1297 -1286 
Q 1028 -1241 775 -1147 
L 775 -588 
Q 1028 -725 1275 -790 
Q 1522 -856 1778 -856 
Q 2344 -856 2625 -561 
Q 2906 -266 2906 331 
L 2906 616 
Q 2728 306 2450 153 
Q 2172 0 1784 0 
Q 1141 0 747 490 
Q 353 981 353 1791 
Q 353 2603 747 3093 
Q 1141 3584 1784 3584 
Q 2172 3584 2450 3431 
Q 2728 3278 2906 2969 
L 2906 3500 
L 3481 3500 
L 3481 434 
z
" transform="scale(0.015625)"/>
        <path id="DejaVuSans-72" d="M 2631 2963 
Q 2534 3019 2420 3045 
Q 2306 3072 2169 3072 
Q 1681 3072 1420 2755 
Q 1159 2438 1159 1844 
L 1159 0 
L 581 0 
L 581 3500 
L 1159 3500 
L 1159 2956 
Q 1341 3275 1631 3429 
Q 1922 3584 2338 3584 
Q 2397 3584 2469 3576 
Q 2541 3569 2628 3553 
L 2631 2963 
z
" transform="scale(0.015625)"/>
       </defs>
       <use xlink:href="#DejaVuSans-73"/>
       <use xlink:href="#DejaVuSans-31" transform="translate(52.099609 0)"/>
       <use xlink:href="#DejaVuSans-2e" transform="translate(115.722656 0)"/>
       <use xlink:href="#DejaVuSans-63" transform="translate(147.509766 0)"/>
       <use xlink:href="#DejaVuSans-61" transform="translate(202.490234 0)"/>
       <use xlink:href="#DejaVuSans-74" transform="translate(263.769531 0)"/>
       <use xlink:href="#DejaVuSans-2e" transform="translate(302.978516 0)"/>
       <use xlink:href="#DejaVuSans-67" transform="translate(334.765625 0)"/>
       <use xlink:href="#DejaVuSans-73" transform="translate(398.242188 0)"/>
       <use xlink:href="#DejaVuSans-72" transform="translate(450.341797 0)"/>
       <use xlink:href="#DejaVuSans-31" transform="translate(491.455078 0)"/>
      </g>
     </g>
    </g>
    <g id="xtick_2">
     <g id="line2d_2">
      <g>
       <use xlink:href="#m82828a0357" x="105.66361" y="318.04" style="stroke: #000000; stroke-width: 0.8"/>
      </g>
     </g>
     <g id="text_2">
      <!-- s1.cat.gsr2 -->
      <g transform="translate(108.422985 380.54625) rotate(-90) scale(0.1 -0.1)">
       <defs>
        <path id="DejaVuSans-32" d="M 1228 531 
L 3431 531 
L 3431 0 
L 469 0 
L 469 531 
Q 828 903 1448 1529 
Q 2069 2156 2228 2338 
Q 2531 2678 2651 2914 
Q 2772 3150 2772 3378 
Q 2772 3750 2511 3984 
Q 2250 4219 1831 4219 
Q 1534 4219 1204 4116 
Q 875 4013 500 3803 
L 500 4441 
Q 881 4594 1212 4672 
Q 1544 4750 1819 4750 
Q 2544 4750 2975 4387 
Q 3406 4025 3406 3419 
Q 3406 3131 3298 2873 
Q 3191 2616 2906 2266 
Q 2828 2175 2409 1742 
Q 1991 1309 1228 531 
z
" transform="scale(0.015625)"/>
       </defs>
       <use xlink:href="#DejaVuSans-73"/>
       <use xlink:href="#DejaVuSans-31" transform="translate(52.099609 0)"/>
       <use xlink:href="#DejaVuSans-2e" transform="translate(115.722656 0)"/>
       <use xlink:href="#DejaVuSans-63" transform="translate(147.509766 0)"/>
       <use xlink:href="#DejaVuSans-61" transform="translate(202.490234 0)"/>
       <use xlink:href="#DejaVuSans-74" transform="translate(263.769531 0)"/>
       <use xlink:href="#DejaVuSans-2e" transform="translate(302.978516 0)"/>
       <use xlink:href="#DejaVuSans-67" transform="translate(334.765625 0)"/>
       <use xlink:href="#DejaVuSans-73" transform="translate(398.242188 0)"/>
       <use xlink:href="#DejaVuSans-72" transform="translate(450.341797 0)"/>
       <use xlink:href="#DejaVuSans-32" transform="translate(491.455078 0)"/>
      </g>
     </g>
    </g>
    <g id="xtick_3">
     <g id="line2d_3">
      <g>
       <use xlink:href="#m82828a0357" x="133.670589" y="318.04" style="stroke: #000000; stroke-width: 0.8"/>
      </g>
     </g>
     <g id="text_3">
      <!-- s1.cat.gsr3 -->
      <g transform="translate(136.429964 380.54625) rotate(-90) scale(0.1 -0.1)">
       <defs>
        <path id="DejaVuSans-33" d="M 2597 2516 
Q 3050 2419 3304 2112 
Q 3559 1806 3559 1356 
Q 3559 666 3084 287 
Q 2609 -91 1734 -91 
Q 1441 -91 1130 -33 
Q 819 25 488 141 
L 488 750 
Q 750 597 1062 519 
Q 1375 441 1716 441 
Q 2309 441 2620 675 
Q 2931 909 2931 1356 
Q 2931 1769 2642 2001 
Q 2353 2234 1838 2234 
L 1294 2234 
L 1294 2753 
L 1863 2753 
Q 2328 2753 2575 2939 
Q 2822 3125 2822 3475 
Q 2822 3834 2567 4026 
Q 2313 4219 1838 4219 
Q 1578 4219 1281 4162 
Q 984 4106 628 3988 
L 628 4550 
Q 988 4650 1302 4700 
Q 1616 4750 1894 4750 
Q 2613 4750 3031 4423 
Q 3450 4097 3450 3541 
Q 3450 3153 3228 2886 
Q 3006 2619 2597 2516 
z
" transform="scale(0.015625)"/>
       </defs>
       <use xlink:href="#DejaVuSans-73"/>
       <use xlink:href="#DejaVuSans-31" transform="translate(52.099609 0)"/>
       <use xlink:href="#DejaVuSans-2e" transform="translate(115.722656 0)"/>
       <use xlink:href="#DejaVuSans-63" transform="translate(147.509766 0)"/>
       <use xlink:href="#DejaVuSans-61" transform="translate(202.490234 0)"/>
       <use xlink:href="#DejaVuSans-74" transform="translate(263.769531 0)"/>
       <use xlink:href="#DejaVuSans-2e" transform="translate(302.978516 0)"/>
       <use xlink:href="#DejaVuSans-67" transform="translate(334.765625 0)"/>
       <use xlink:href="#DejaVuSans-73" transform="translate(398.242188 0)"/>
       <use xlink:href="#DejaVuSans-72" transform="translate(450.341797 0)"/>
       <use xlink:href="#DejaVuSans-33" transform="translate(491.455078 0)"/>
      </g>
     </g>
    </g>
    <g id="xtick_4">
     <g id="line2d_4">
      <g>
       <use xlink:href="#m82828a0357" x="161.677569" y="318.04" style="stroke: #000000; stroke-width: 0.8"/>
      </g>
     </g>
     <g id="text_4">
      <!-- s1.cat.wmcsf1 -->
      <g transform="translate(164.436944 397.024375) rotate(-90) scale(0.1 -0.1)">
       <defs>
        <path id="DejaVuSans-77" d="M 269 3500 
L 844 3500 
L 1563 769 
L 2278 3500 
L 2956 3500 
L 3675 769 
L 4391 3500 
L 4966 3500 
L 4050 0 
L 3372 0 
L 2619 2869 
L 1863 0 
L 1184 0 
L 269 3500 
z
" transform="scale(0.015625)"/>
        <path id="DejaVuSans-6d" d="M 3328 2828 
Q 3544 3216 3844 3400 
Q 4144 3584 4550 3584 
Q 5097 3584 5394 3201 
Q 5691 2819 5691 2113 
L 5691 0 
L 5113 0 
L 5113 2094 
Q 5113 2597 4934 2840 
Q 4756 3084 4391 3084 
Q 3944 3084 3684 2787 
Q 3425 2491 3425 1978 
L 3425 0 
L 2847 0 
L 2847 2094 
Q 2847 2600 2669 2842 
Q 2491 3084 2119 3084 
Q 1678 3084 1418 2786 
Q 1159 2488 1159 1978 
L 1159 0 
L 581 0 
L 581 3500 
L 1159 3500 
L 1159 2956 
Q 1356 3278 1631 3431 
Q 1906 3584 2284 3584 
Q 2666 3584 2933 3390 
Q 3200 3197 3328 2828 
z
" transform="scale(0.015625)"/>
        <path id="DejaVuSans-66" d="M 2375 4863 
L 2375 4384 
L 1825 4384 
Q 1516 4384 1395 4259 
Q 1275 4134 1275 3809 
L 1275 3500 
L 2222 3500 
L 2222 3053 
L 1275 3053 
L 1275 0 
L 697 0 
L 697 3053 
L 147 3053 
L 147 3500 
L 697 3500 
L 697 3744 
Q 697 4328 969 4595 
Q 1241 4863 1831 4863 
L 2375 4863 
z
" transform="scale(0.015625)"/>
       </defs>
       <use xlink:href="#DejaVuSans-73"/>
       <use xlink:href="#DejaVuSans-31" transform="translate(52.099609 0)"/>
       <use xlink:href="#DejaVuSans-2e" transform="translate(115.722656 0)"/>
       <use xlink:href="#DejaVuSans-63" transform="translate(147.509766 0)"/>
       <use xlink:href="#DejaVuSans-61" transform="translate(202.490234 0)"/>
       <use xlink:href="#DejaVuSans-74" transform="translate(263.769531 0)"/>
       <use xlink:href="#DejaVuSans-2e" transform="translate(302.978516 0)"/>
       <use xlink:href="#DejaVuSans-77" transform="translate(334.765625 0)"/>
       <use xlink:href="#DejaVuSans-6d" transform="translate(416.552734 0)"/>
       <use xlink:href="#DejaVuSans-63" transform="translate(513.964844 0)"/>
       <use xlink:href="#DejaVuSans-73" transform="translate(568.945312 0)"/>
       <use xlink:href="#DejaVuSans-66" transform="translate(621.044922 0)"/>
       <use xlink:href="#DejaVuSans-31" transform="translate(656.25 0)"/>
      </g>
     </g>
    </g>
    <g id="xtick_5">
     <g id="line2d_5">
      <g>
       <use xlink:href="#m82828a0357" x="189.684548" y="318.04" style="stroke: #000000; stroke-width: 0.8"/>
      </g>
     </g>
     <g id="text_5">
      <!-- s1.cat.wmcsf2 -->
      <g transform="translate(192.443923 397.024375) rotate(-90) scale(0.1 -0.1)">
       <use xlink:href="#DejaVuSans-73"/>
       <use xlink:href="#DejaVuSans-31" transform="translate(52.099609 0)"/>
       <use xlink:href="#DejaVuSans-2e" transform="translate(115.722656 0)"/>
       <use xlink:href="#DejaVuSans-63" transform="translate(147.509766 0)"/>
       <use xlink:href="#DejaVuSans-61" transform="translate(202.490234 0)"/>
       <use xlink:href="#DejaVuSans-74" transform="translate(263.769531 0)"/>
       <use xlink:href="#DejaVuSans-2e" transform="translate(302.978516 0)"/>
       <use xlink:href="#DejaVuSans-77" transform="translate(334.765625 0)"/>
       <use xlink:href="#DejaVuSans-6d" transform="translate(416.552734 0)"/>
       <use xlink:href="#DejaVuSans-63" transform="translate(513.964844 0)"/>
       <use xlink:href="#DejaVuSans-73" transform="translate(568.945312 0)"/>
       <use xlink:href="#DejaVuSans-66" transform="translate(621.044922 0)"/>
       <use xlink:href="#DejaVuSans-32" transform="translate(656.25 0)"/>
      </g>
     </g>
    </g>
    <g id="xtick_6">
     <g id="line2d_6">
      <g>
       <use xlink:href="#m82828a0357" x="217.691528" y="318.04" style="stroke: #000000; stroke-width: 0.8"/>
      </g>
     </g>
     <g id="text_6">
      <!-- s1.cat.wmcsf3 -->
      <g transform="translate(220.450903 397.024375) rotate(-90) scale(0.1 -0.1)">
       <use xlink:href="#DejaVuSans-73"/>
       <use xlink:href="#DejaVuSans-31" transform="translate(52.099609 0)"/>
       <use xlink:href="#DejaVuSans-2e" transform="translate(115.722656 0)"/>
       <use xlink:href="#DejaVuSans-63" transform="translate(147.509766 0)"/>
       <use xlink:href="#DejaVuSans-61" transform="translate(202.490234 0)"/>
       <use xlink:href="#DejaVuSans-74" transform="translate(263.769531 0)"/>
       <use xlink:href="#DejaVuSans-2e" transform="translate(302.978516 0)"/>
       <use xlink:href="#DejaVuSans-77" transform="translate(334.765625 0)"/>
       <use xlink:href="#DejaVuSans-6d" transform="translate(416.552734 0)"/>
       <use xlink:href="#DejaVuSans-63" transform="translate(513.964844 0)"/>
       <use xlink:href="#DejaVuSans-73" transform="translate(568.945312 0)"/>
       <use xlink:href="#DejaVuSans-66" transform="translate(621.044922 0)"/>
       <use xlink:href="#DejaVuSans-33" transform="translate(656.25 0)"/>
      </g>
     </g>
    </g>
    <g id="xtick_7">
     <g id="line2d_7">
      <g>
       <use xlink:href="#m82828a0357" x="245.698507" y="318.04" style="stroke: #000000; stroke-width: 0.8"/>
      </g>
     </g>
     <g id="text_7">
      <!-- s1.cat.aCompCor1 -->
      <g transform="translate(248.457882 417.40875) rotate(-90) scale(0.1 -0.1)">
       <defs>
        <path id="DejaVuSans-43" d="M 4122 4306 
L 4122 3641 
Q 3803 3938 3442 4084 
Q 3081 4231 2675 4231 
Q 1875 4231 1450 3742 
Q 1025 3253 1025 2328 
Q 1025 1406 1450 917 
Q 1875 428 2675 428 
Q 3081 428 3442 575 
Q 3803 722 4122 1019 
L 4122 359 
Q 3791 134 3420 21 
Q 3050 -91 2638 -91 
Q 1578 -91 968 557 
Q 359 1206 359 2328 
Q 359 3453 968 4101 
Q 1578 4750 2638 4750 
Q 3056 4750 3426 4639 
Q 3797 4528 4122 4306 
z
" transform="scale(0.015625)"/>
        <path id="DejaVuSans-6f" d="M 1959 3097 
Q 1497 3097 1228 2736 
Q 959 2375 959 1747 
Q 959 1119 1226 758 
Q 1494 397 1959 397 
Q 2419 397 2687 759 
Q 2956 1122 2956 1747 
Q 2956 2369 2687 2733 
Q 2419 3097 1959 3097 
z
M 1959 3584 
Q 2709 3584 3137 3096 
Q 3566 2609 3566 1747 
Q 3566 888 3137 398 
Q 2709 -91 1959 -91 
Q 1206 -91 779 398 
Q 353 888 353 1747 
Q 353 2609 779 3096 
Q 1206 3584 1959 3584 
z
" transform="scale(0.015625)"/>
        <path id="DejaVuSans-70" d="M 1159 525 
L 1159 -1331 
L 581 -1331 
L 581 3500 
L 1159 3500 
L 1159 2969 
Q 1341 3281 1617 3432 
Q 1894 3584 2278 3584 
Q 2916 3584 3314 3078 
Q 3713 2572 3713 1747 
Q 3713 922 3314 415 
Q 2916 -91 2278 -91 
Q 1894 -91 1617 61 
Q 1341 213 1159 525 
z
M 3116 1747 
Q 3116 2381 2855 2742 
Q 2594 3103 2138 3103 
Q 1681 3103 1420 2742 
Q 1159 2381 1159 1747 
Q 1159 1113 1420 752 
Q 1681 391 2138 391 
Q 2594 391 2855 752 
Q 3116 1113 3116 1747 
z
" transform="scale(0.015625)"/>
       </defs>
       <use xlink:href="#DejaVuSans-73"/>
       <use xlink:href="#DejaVuSans-31" transform="translate(52.099609 0)"/>
       <use xlink:href="#DejaVuSans-2e" transform="translate(115.722656 0)"/>
       <use xlink:href="#DejaVuSans-63" transform="translate(147.509766 0)"/>
       <use xlink:href="#DejaVuSans-61" transform="translate(202.490234 0)"/>
       <use xlink:href="#DejaVuSans-74" transform="translate(263.769531 0)"/>
       <use xlink:href="#DejaVuSans-2e" transform="translate(302.978516 0)"/>
       <use xlink:href="#DejaVuSans-61" transform="translate(334.765625 0)"/>
       <use xlink:href="#DejaVuSans-43" transform="translate(396.044922 0)"/>
       <use xlink:href="#DejaVuSans-6f" transform="translate(465.869141 0)"/>
       <use xlink:href="#DejaVuSans-6d" transform="translate(527.050781 0)"/>
       <use xlink:href="#DejaVuSans-70" transform="translate(624.462891 0)"/>
       <use xlink:href="#DejaVuSans-43" transform="translate(687.939453 0)"/>
       <use xlink:href="#DejaVuSans-6f" transform="translate(757.763672 0)"/>
       <use xlink:href="#DejaVuSans-72" transform="translate(818.945312 0)"/>
       <use xlink:href="#DejaVuSans-31" transform="translate(860.058594 0)"/>
      </g>
     </g>
    </g>
    <g id="xtick_8">
     <g id="line2d_8">
      <g>
       <use xlink:href="#m82828a0357" x="273.705487" y="318.04" style="stroke: #000000; stroke-width: 0.8"/>
      </g>
     </g>
     <g id="text_8">
      <!-- s1.cat.aCompCor2 -->
      <g transform="translate(276.464862 417.40875) rotate(-90) scale(0.1 -0.1)">
       <use xlink:href="#DejaVuSans-73"/>
       <use xlink:href="#DejaVuSans-31" transform="translate(52.099609 0)"/>
       <use xlink:href="#DejaVuSans-2e" transform="translate(115.722656 0)"/>
       <use xlink:href="#DejaVuSans-63" transform="translate(147.509766 0)"/>
       <use xlink:href="#DejaVuSans-61" transform="translate(202.490234 0)"/>
       <use xlink:href="#DejaVuSans-74" transform="translate(263.769531 0)"/>
       <use xlink:href="#DejaVuSans-2e" transform="translate(302.978516 0)"/>
       <use xlink:href="#DejaVuSans-61" transform="translate(334.765625 0)"/>
       <use xlink:href="#DejaVuSans-43" transform="translate(396.044922 0)"/>
       <use xlink:href="#DejaVuSans-6f" transform="translate(465.869141 0)"/>
       <use xlink:href="#DejaVuSans-6d" transform="translate(527.050781 0)"/>
       <use xlink:href="#DejaVuSans-70" transform="translate(624.462891 0)"/>
       <use xlink:href="#DejaVuSans-43" transform="translate(687.939453 0)"/>
       <use xlink:href="#DejaVuSans-6f" transform="translate(757.763672 0)"/>
       <use xlink:href="#DejaVuSans-72" transform="translate(818.945312 0)"/>
       <use xlink:href="#DejaVuSans-32" transform="translate(860.058594 0)"/>
      </g>
     </g>
    </g>
    <g id="xtick_9">
     <g id="line2d_9">
      <g>
       <use xlink:href="#m82828a0357" x="301.712466" y="318.04" style="stroke: #000000; stroke-width: 0.8"/>
      </g>
     </g>
     <g id="text_9">
      <!-- s1.cat.aCompCor3 -->
      <g transform="translate(304.471841 417.40875) rotate(-90) scale(0.1 -0.1)">
       <use xlink:href="#DejaVuSans-73"/>
       <use xlink:href="#DejaVuSans-31" transform="translate(52.099609 0)"/>
       <use xlink:href="#DejaVuSans-2e" transform="translate(115.722656 0)"/>
       <use xlink:href="#DejaVuSans-63" transform="translate(147.509766 0)"/>
       <use xlink:href="#DejaVuSans-61" transform="translate(202.490234 0)"/>
       <use xlink:href="#DejaVuSans-74" transform="translate(263.769531 0)"/>
       <use xlink:href="#DejaVuSans-2e" transform="translate(302.978516 0)"/>
       <use xlink:href="#DejaVuSans-61" transform="translate(334.765625 0)"/>
       <use xlink:href="#DejaVuSans-43" transform="translate(396.044922 0)"/>
       <use xlink:href="#DejaVuSans-6f" transform="translate(465.869141 0)"/>
       <use xlink:href="#DejaVuSans-6d" transform="translate(527.050781 0)"/>
       <use xlink:href="#DejaVuSans-70" transform="translate(624.462891 0)"/>
       <use xlink:href="#DejaVuSans-43" transform="translate(687.939453 0)"/>
       <use xlink:href="#DejaVuSans-6f" transform="translate(757.763672 0)"/>
       <use xlink:href="#DejaVuSans-72" transform="translate(818.945312 0)"/>
       <use xlink:href="#DejaVuSans-33" transform="translate(860.058594 0)"/>
      </g>
     </g>
    </g>
    <g id="text_10">
     <!-- variable -->
     <g transform="translate(169.512673 429.007187) scale(0.1 -0.1)">
      <defs>
       <path id="DejaVuSans-76" d="M 191 3500 
L 800 3500 
L 1894 563 
L 2988 3500 
L 3597 3500 
L 2284 0 
L 1503 0 
L 191 3500 
z
" transform="scale(0.015625)"/>
       <path id="DejaVuSans-69" d="M 603 3500 
L 1178 3500 
L 1178 0 
L 603 0 
L 603 3500 
z
M 603 4863 
L 1178 4863 
L 1178 4134 
L 603 4134 
L 603 4863 
z
" transform="scale(0.015625)"/>
       <path id="DejaVuSans-62" d="M 3116 1747 
Q 3116 2381 2855 2742 
Q 2594 3103 2138 3103 
Q 1681 3103 1420 2742 
Q 1159 2381 1159 1747 
Q 1159 1113 1420 752 
Q 1681 391 2138 391 
Q 2594 391 2855 752 
Q 3116 1113 3116 1747 
z
M 1159 2969 
Q 1341 3281 1617 3432 
Q 1894 3584 2278 3584 
Q 2916 3584 3314 3078 
Q 3713 2572 3713 1747 
Q 3713 922 3314 415 
Q 2916 -91 2278 -91 
Q 1894 -91 1617 61 
Q 1341 213 1159 525 
L 1159 0 
L 581 0 
L 581 4863 
L 1159 4863 
L 1159 2969 
z
" transform="scale(0.015625)"/>
       <path id="DejaVuSans-6c" d="M 603 4863 
L 1178 4863 
L 1178 0 
L 603 0 
L 603 4863 
z
" transform="scale(0.015625)"/>
       <path id="DejaVuSans-65" d="M 3597 1894 
L 3597 1613 
L 953 1613 
Q 991 1019 1311 708 
Q 1631 397 2203 397 
Q 2534 397 2845 478 
Q 3156 559 3463 722 
L 3463 178 
Q 3153 47 2828 -22 
Q 2503 -91 2169 -91 
Q 1331 -91 842 396 
Q 353 884 353 1716 
Q 353 2575 817 3079 
Q 1281 3584 2069 3584 
Q 2775 3584 3186 3129 
Q 3597 2675 3597 1894 
z
M 3022 2063 
Q 3016 2534 2758 2815 
Q 2500 3097 2075 3097 
Q 1594 3097 1305 2825 
Q 1016 2553 972 2059 
L 3022 2063 
z
" transform="scale(0.015625)"/>
      </defs>
      <use xlink:href="#DejaVuSans-76"/>
      <use xlink:href="#DejaVuSans-61" transform="translate(59.179688 0)"/>
      <use xlink:href="#DejaVuSans-72" transform="translate(120.458984 0)"/>
      <use xlink:href="#DejaVuSans-69" transform="translate(161.572266 0)"/>
      <use xlink:href="#DejaVuSans-61" transform="translate(189.355469 0)"/>
      <use xlink:href="#DejaVuSans-62" transform="translate(250.634766 0)"/>
      <use xlink:href="#DejaVuSans-6c" transform="translate(314.111328 0)"/>
      <use xlink:href="#DejaVuSans-65" transform="translate(341.894531 0)"/>
     </g>
    </g>
   </g>
   <g id="matplotlib.axis_2">
    <g id="ytick_1">
     <g id="line2d_10">
      <defs>
       <path id="m0f25720364" d="M 0 0 
L -3.5 0 
" style="stroke: #000000; stroke-width: 0.8"/>
      </defs>
      <g>
       <use xlink:href="#m0f25720364" x="51.05" y="10.8" style="stroke: #000000; stroke-width: 0.8"/>
      </g>
     </g>
     <g id="text_11">
      <!-- 0 -->
      <g transform="translate(37.6875 14.599219) scale(0.1 -0.1)">
       <defs>
        <path id="DejaVuSans-30" d="M 2034 4250 
Q 1547 4250 1301 3770 
Q 1056 3291 1056 2328 
Q 1056 1369 1301 889 
Q 1547 409 2034 409 
Q 2525 409 2770 889 
Q 3016 1369 3016 2328 
Q 3016 3291 2770 3770 
Q 2525 4250 2034 4250 
z
M 2034 4750 
Q 2819 4750 3233 4129 
Q 3647 3509 3647 2328 
Q 3647 1150 3233 529 
Q 2819 -91 2034 -91 
Q 1250 -91 836 529 
Q 422 1150 422 2328 
Q 422 3509 836 4129 
Q 1250 4750 2034 4750 
z
" transform="scale(0.015625)"/>
       </defs>
       <use xlink:href="#DejaVuSans-30"/>
      </g>
     </g>
    </g>
    <g id="ytick_2">
     <g id="line2d_11">
      <g>
       <use xlink:href="#m0f25720364" x="51.05" y="49.301253" style="stroke: #000000; stroke-width: 0.8"/>
      </g>
     </g>
     <g id="text_12">
      <!-- 25 -->
      <g transform="translate(31.325 53.100472) scale(0.1 -0.1)">
       <defs>
        <path id="DejaVuSans-35" d="M 691 4666 
L 3169 4666 
L 3169 4134 
L 1269 4134 
L 1269 2991 
Q 1406 3038 1543 3061 
Q 1681 3084 1819 3084 
Q 2600 3084 3056 2656 
Q 3513 2228 3513 1497 
Q 3513 744 3044 326 
Q 2575 -91 1722 -91 
Q 1428 -91 1123 -41 
Q 819 9 494 109 
L 494 744 
Q 775 591 1075 516 
Q 1375 441 1709 441 
Q 2250 441 2565 725 
Q 2881 1009 2881 1497 
Q 2881 1984 2565 2268 
Q 2250 2553 1709 2553 
Q 1456 2553 1204 2497 
Q 953 2441 691 2322 
L 691 4666 
z
" transform="scale(0.015625)"/>
       </defs>
       <use xlink:href="#DejaVuSans-32"/>
       <use xlink:href="#DejaVuSans-35" transform="translate(63.623047 0)"/>
      </g>
     </g>
    </g>
    <g id="ytick_3">
     <g id="line2d_12">
      <g>
       <use xlink:href="#m0f25720364" x="51.05" y="87.802506" style="stroke: #000000; stroke-width: 0.8"/>
      </g>
     </g>
     <g id="text_13">
      <!-- 50 -->
      <g transform="translate(31.325 91.601725) scale(0.1 -0.1)">
       <use xlink:href="#DejaVuSans-35"/>
       <use xlink:href="#DejaVuSans-30" transform="translate(63.623047 0)"/>
      </g>
     </g>
    </g>
    <g id="ytick_4">
     <g id="line2d_13">
      <g>
       <use xlink:href="#m0f25720364" x="51.05" y="126.303759" style="stroke: #000000; stroke-width: 0.8"/>
      </g>
     </g>
     <g id="text_14">
      <!-- 75 -->
      <g transform="translate(31.325 130.102978) scale(0.1 -0.1)">
       <defs>
        <path id="DejaVuSans-37" d="M 525 4666 
L 3525 4666 
L 3525 4397 
L 1831 0 
L 1172 0 
L 2766 4134 
L 525 4134 
L 525 4666 
z
" transform="scale(0.015625)"/>
       </defs>
       <use xlink:href="#DejaVuSans-37"/>
       <use xlink:href="#DejaVuSans-35" transform="translate(63.623047 0)"/>
      </g>
     </g>
    </g>
    <g id="ytick_5">
     <g id="line2d_14">
      <g>
       <use xlink:href="#m0f25720364" x="51.05" y="164.805013" style="stroke: #000000; stroke-width: 0.8"/>
      </g>
     </g>
     <g id="text_15">
      <!-- 100 -->
      <g transform="translate(24.9625 168.604231) scale(0.1 -0.1)">
       <use xlink:href="#DejaVuSans-31"/>
       <use xlink:href="#DejaVuSans-30" transform="translate(63.623047 0)"/>
       <use xlink:href="#DejaVuSans-30" transform="translate(127.246094 0)"/>
      </g>
     </g>
    </g>
    <g id="ytick_6">
     <g id="line2d_15">
      <g>
       <use xlink:href="#m0f25720364" x="51.05" y="203.306266" style="stroke: #000000; stroke-width: 0.8"/>
      </g>
     </g>
     <g id="text_16">
      <!-- 125 -->
      <g transform="translate(24.9625 207.105484) scale(0.1 -0.1)">
       <use xlink:href="#DejaVuSans-31"/>
       <use xlink:href="#DejaVuSans-32" transform="translate(63.623047 0)"/>
       <use xlink:href="#DejaVuSans-35" transform="translate(127.246094 0)"/>
      </g>
     </g>
    </g>
    <g id="ytick_7">
     <g id="line2d_16">
      <g>
       <use xlink:href="#m0f25720364" x="51.05" y="241.807519" style="stroke: #000000; stroke-width: 0.8"/>
      </g>
     </g>
     <g id="text_17">
      <!-- 150 -->
      <g transform="translate(24.9625 245.606738) scale(0.1 -0.1)">
       <use xlink:href="#DejaVuSans-31"/>
       <use xlink:href="#DejaVuSans-35" transform="translate(63.623047 0)"/>
       <use xlink:href="#DejaVuSans-30" transform="translate(127.246094 0)"/>
      </g>
     </g>
    </g>
    <g id="ytick_8">
     <g id="line2d_17">
      <g>
       <use xlink:href="#m0f25720364" x="51.05" y="280.308772" style="stroke: #000000; stroke-width: 0.8"/>
      </g>
     </g>
     <g id="text_18">
      <!-- 175 -->
      <g transform="translate(24.9625 284.107991) scale(0.1 -0.1)">
       <use xlink:href="#DejaVuSans-31"/>
       <use xlink:href="#DejaVuSans-37" transform="translate(63.623047 0)"/>
       <use xlink:href="#DejaVuSans-35" transform="translate(127.246094 0)"/>
      </g>
     </g>
    </g>
    <g id="text_19">
     <!-- Count -->
     <g transform="translate(18.882812 179.268438) rotate(-90) scale(0.1 -0.1)">
      <defs>
       <path id="DejaVuSans-75" d="M 544 1381 
L 544 3500 
L 1119 3500 
L 1119 1403 
Q 1119 906 1312 657 
Q 1506 409 1894 409 
Q 2359 409 2629 706 
Q 2900 1003 2900 1516 
L 2900 3500 
L 3475 3500 
L 3475 0 
L 2900 0 
L 2900 538 
Q 2691 219 2414 64 
Q 2138 -91 1772 -91 
Q 1169 -91 856 284 
Q 544 659 544 1381 
z
M 1991 3584 
L 1991 3584 
z
" transform="scale(0.015625)"/>
       <path id="DejaVuSans-6e" d="M 3513 2113 
L 3513 0 
L 2938 0 
L 2938 2094 
Q 2938 2591 2744 2837 
Q 2550 3084 2163 3084 
Q 1697 3084 1428 2787 
Q 1159 2491 1159 1978 
L 1159 0 
L 581 0 
L 581 3500 
L 1159 3500 
L 1159 2956 
Q 1366 3272 1645 3428 
Q 1925 3584 2291 3584 
Q 2894 3584 3203 3211 
Q 3513 2838 3513 2113 
z
" transform="scale(0.015625)"/>
      </defs>
      <use xlink:href="#DejaVuSans-43"/>
      <use xlink:href="#DejaVuSans-6f" transform="translate(69.824219 0)"/>
      <use xlink:href="#DejaVuSans-75" transform="translate(131.005859 0)"/>
      <use xlink:href="#DejaVuSans-6e" transform="translate(194.384766 0)"/>
      <use xlink:href="#DejaVuSans-74" transform="translate(257.763672 0)"/>
     </g>
    </g>
   </g>
   <g id="patch_39">
    <path d="M 51.05 318.04 
L 51.05 10.8 
" style="fill: none; stroke: #000000; stroke-width: 0.8; stroke-linejoin: miter; stroke-linecap: square"/>
   </g>
   <g id="patch_40">
    <path d="M 51.05 318.04 
L 328.319096 318.04 
" style="fill: none; stroke: #000000; stroke-width: 0.8; stroke-linejoin: miter; stroke-linecap: square"/>
   </g>
  </g>
  <g id="legend_1">
   <g id="text_20">
    <!-- value -->
    <g transform="translate(389.877344 153.403125) scale(0.1 -0.1)">
     <use xlink:href="#DejaVuSans-76"/>
     <use xlink:href="#DejaVuSans-61" transform="translate(59.179688 0)"/>
     <use xlink:href="#DejaVuSans-6c" transform="translate(120.458984 0)"/>
     <use xlink:href="#DejaVuSans-75" transform="translate(148.242188 0)"/>
     <use xlink:href="#DejaVuSans-65" transform="translate(211.621094 0)"/>
    </g>
   </g>
   <g id="patch_41">
    <path d="M 358.870312 168.08125 
L 378.870312 168.08125 
L 378.870312 161.08125 
L 358.870312 161.08125 
z
" style="fill: #1f77b4; fill-opacity: 0.75; stroke: #000000; stroke-linejoin: miter"/>
   </g>
   <g id="text_21">
    <!-- Specific -->
    <g transform="translate(386.870312 168.08125) scale(0.1 -0.1)">
     <defs>
      <path id="DejaVuSans-53" d="M 3425 4513 
L 3425 3897 
Q 3066 4069 2747 4153 
Q 2428 4238 2131 4238 
Q 1616 4238 1336 4038 
Q 1056 3838 1056 3469 
Q 1056 3159 1242 3001 
Q 1428 2844 1947 2747 
L 2328 2669 
Q 3034 2534 3370 2195 
Q 3706 1856 3706 1288 
Q 3706 609 3251 259 
Q 2797 -91 1919 -91 
Q 1588 -91 1214 -16 
Q 841 59 441 206 
L 441 856 
Q 825 641 1194 531 
Q 1563 422 1919 422 
Q 2459 422 2753 634 
Q 3047 847 3047 1241 
Q 3047 1584 2836 1778 
Q 2625 1972 2144 2069 
L 1759 2144 
Q 1053 2284 737 2584 
Q 422 2884 422 3419 
Q 422 4038 858 4394 
Q 1294 4750 2059 4750 
Q 2388 4750 2728 4690 
Q 3069 4631 3425 4513 
z
" transform="scale(0.015625)"/>
     </defs>
     <use xlink:href="#DejaVuSans-53"/>
     <use xlink:href="#DejaVuSans-70" transform="translate(63.476562 0)"/>
     <use xlink:href="#DejaVuSans-65" transform="translate(126.953125 0)"/>
     <use xlink:href="#DejaVuSans-63" transform="translate(188.476562 0)"/>
     <use xlink:href="#DejaVuSans-69" transform="translate(243.457031 0)"/>
     <use xlink:href="#DejaVuSans-66" transform="translate(271.240234 0)"/>
     <use xlink:href="#DejaVuSans-69" transform="translate(306.445312 0)"/>
     <use xlink:href="#DejaVuSans-63" transform="translate(334.228516 0)"/>
    </g>
   </g>
   <g id="patch_42">
    <path d="M 358.870312 182.759375 
L 378.870312 182.759375 
L 378.870312 175.759375 
L 358.870312 175.759375 
z
" style="fill: #ff7f0e; fill-opacity: 0.75; stroke: #000000; stroke-linejoin: miter"/>
   </g>
   <g id="text_22">
    <!-- Non-specific -->
    <g transform="translate(386.870312 182.759375) scale(0.1 -0.1)">
     <defs>
      <path id="DejaVuSans-4e" d="M 628 4666 
L 1478 4666 
L 3547 763 
L 3547 4666 
L 4159 4666 
L 4159 0 
L 3309 0 
L 1241 3903 
L 1241 0 
L 628 0 
L 628 4666 
z
" transform="scale(0.015625)"/>
      <path id="DejaVuSans-2d" d="M 313 2009 
L 1997 2009 
L 1997 1497 
L 313 1497 
L 313 2009 
z
" transform="scale(0.015625)"/>
     </defs>
     <use xlink:href="#DejaVuSans-4e"/>
     <use xlink:href="#DejaVuSans-6f" transform="translate(74.804688 0)"/>
     <use xlink:href="#DejaVuSans-6e" transform="translate(135.986328 0)"/>
     <use xlink:href="#DejaVuSans-2d" transform="translate(199.365234 0)"/>
     <use xlink:href="#DejaVuSans-73" transform="translate(235.449219 0)"/>
     <use xlink:href="#DejaVuSans-70" transform="translate(287.548828 0)"/>
     <use xlink:href="#DejaVuSans-65" transform="translate(351.025391 0)"/>
     <use xlink:href="#DejaVuSans-63" transform="translate(412.548828 0)"/>
     <use xlink:href="#DejaVuSans-69" transform="translate(467.529297 0)"/>
     <use xlink:href="#DejaVuSans-66" transform="translate(495.3125 0)"/>
     <use xlink:href="#DejaVuSans-69" transform="translate(530.517578 0)"/>
     <use xlink:href="#DejaVuSans-63" transform="translate(558.300781 0)"/>
    </g>
   </g>
   <g id="patch_43">
    <path d="M 358.870312 197.4375 
L 378.870312 197.4375 
L 378.870312 190.4375 
L 358.870312 190.4375 
z
" style="fill: #2ca02c; fill-opacity: 0.75; stroke: #000000; stroke-linejoin: miter"/>
   </g>
   <g id="text_23">
    <!-- Spurious -->
    <g transform="translate(386.870312 197.4375) scale(0.1 -0.1)">
     <use xlink:href="#DejaVuSans-53"/>
     <use xlink:href="#DejaVuSans-70" transform="translate(63.476562 0)"/>
     <use xlink:href="#DejaVuSans-75" transform="translate(126.953125 0)"/>
     <use xlink:href="#DejaVuSans-72" transform="translate(190.332031 0)"/>
     <use xlink:href="#DejaVuSans-69" transform="translate(231.445312 0)"/>
     <use xlink:href="#DejaVuSans-6f" transform="translate(259.228516 0)"/>
     <use xlink:href="#DejaVuSans-75" transform="translate(320.410156 0)"/>
     <use xlink:href="#DejaVuSans-73" transform="translate(383.789062 0)"/>
    </g>
   </g>
   <g id="patch_44">
    <path d="M 358.870312 212.115625 
L 378.870312 212.115625 
L 378.870312 205.115625 
L 358.870312 205.115625 
z
" style="fill: #d62728; fill-opacity: 0.75; stroke: #000000; stroke-linejoin: miter"/>
   </g>
   <g id="text_24">
    <!-- No -->
    <g transform="translate(386.870312 212.115625) scale(0.1 -0.1)">
     <use xlink:href="#DejaVuSans-4e"/>
     <use xlink:href="#DejaVuSans-6f" transform="translate(74.804688 0)"/>
    </g>
   </g>
  </g>
 </g>
 <defs>
  <clipPath id="pe44edb44c2">
   <rect x="51.05" y="10.8" width="277.269096" height="307.24"/>
  </clipPath>
 </defs>
</svg>
