<?xml version="1.0" encoding="utf-8" standalone="no"?>
<!DOCTYPE svg PUBLIC "-//W3C//DTD SVG 1.1//EN"
  "http://www.w3.org/Graphics/SVG/1.1/DTD/svg11.dtd">
<svg xmlns:xlink="http://www.w3.org/1999/xlink" width="720pt" height="360pt" viewBox="0 0 720 360" xmlns="http://www.w3.org/2000/svg" version="1.1">
 <metadata>
  <rdf:RDF xmlns:dc="http://purl.org/dc/elements/1.1/" xmlns:cc="http://creativecommons.org/ns#" xmlns:rdf="http://www.w3.org/1999/02/22-rdf-syntax-ns#">
   <cc:Work>
    <dc:type rdf:resource="http://purl.org/dc/dcmitype/StillImage"/>
    <dc:date>2025-10-21T13:23:20.614361</dc:date>
    <dc:format>image/svg+xml</dc:format>
    <dc:creator>
     <cc:Agent>
      <dc:title>Matplotlib v3.10.3, https://matplotlib.org/</dc:title>
     </cc:Agent>
    </dc:creator>
   </cc:Work>
  </rdf:RDF>
 </metadata>
 <defs>
  <style type="text/css">*{stroke-linejoin: round; stroke-linecap: butt}</style>
 </defs>
 <g id="figure_1">
  <g id="patch_1">
   <path d="M 0 360 
L 720 360 
L 720 0 
L 0 0 
z
" style="fill: #ffffff"/>
  </g>
  <g id="axes_1">
   <g id="patch_2">
    <path d="M 90 320.4 
L 648 320.4 
L 648 43.2 
L 90 43.2 
z
" style="fill: #ffffff"/>
   </g>
   <g id="FillBetweenPolyCollection_1">
    <defs>
     <path id="m93e3cbceb3" d="M 160.368777 -82.084395 
L 159.131223 -82.084395 
L 158.911235 -82.28949 
L 158.627591 -82.494584 
L 158.266627 -82.699678 
L 157.813036 -82.904772 
L 157.249968 -83.109866 
L 156.559221 -83.314961 
L 155.721556 -83.520055 
L 154.71716 -83.725149 
L 153.52629 -83.930243 
L 152.130133 -84.135338 
L 150.511899 -84.340432 
L 148.658152 -84.545526 
L 146.560327 -84.75062 
L 144.216382 -84.955714 
L 141.632436 -85.160809 
L 138.824242 -85.365903 
L 135.818286 -85.570997 
L 132.652323 -85.776091 
L 129.375142 -85.981186 
L 126.045455 -86.18628 
L 122.729855 -86.391374 
L 119.499913 -86.596468 
L 116.428609 -86.801562 
L 113.58638 -87.006657 
L 111.037158 -87.211751 
L 108.834804 -87.416845 
L 107.020322 -87.621939 
L 105.620142 -87.827034 
L 104.645652 -88.032128 
L 104.093998 -88.237222 
L 103.95 -88.442316 
L 104.188898 -88.64741 
L 104.779546 -88.852505 
L 105.68761 -89.057599 
L 106.878386 -89.262693 
L 108.318902 -89.467787 
L 109.979133 -89.672882 
L 111.83229 -89.877976 
L 113.854304 -90.08307 
L 116.022745 -90.288164 
L 118.315489 -90.493258 
L 120.709455 -90.698353 
L 123.179686 -90.903447 
L 125.698977 -91.108541 
L 128.238098 -91.313635 
L 130.766572 -91.51873 
L 133.253864 -91.723824 
L 135.670746 -91.928918 
L 137.99063 -92.134012 
L 140.190655 -92.339106 
L 142.252395 -92.544201 
L 144.162129 -92.749295 
L 145.910716 -92.954389 
L 147.493147 -93.159483 
L 148.907924 -93.364578 
L 150.156395 -93.569672 
L 151.24216 -93.774766 
L 152.170621 -93.97986 
L 152.948693 -94.184954 
L 153.584652 -94.390049 
L 154.088056 -94.595143 
L 154.469674 -94.800237 
L 154.741362 -95.005331 
L 154.915842 -95.210426 
L 155.006387 -95.41552 
L 155.026429 -95.620614 
L 154.989153 -95.825708 
L 154.907124 -96.030802 
L 154.792015 -96.235897 
L 154.654465 -96.440991 
L 154.504087 -96.646085 
L 154.349594 -96.851179 
L 154.199015 -97.056274 
L 154.059923 -97.261368 
L 153.939624 -97.466462 
L 153.845238 -97.671556 
L 153.783656 -97.876651 
L 153.761334 -98.081745 
L 153.783977 -98.286839 
L 153.856132 -98.491933 
L 153.980762 -98.697027 
L 154.158875 -98.902122 
L 154.389259 -99.107216 
L 154.668382 -99.31231 
L 154.990479 -99.517404 
L 155.347832 -99.722499 
L 155.731211 -99.927593 
L 156.130447 -100.132687 
L 156.535058 -100.337781 
L 156.934887 -100.542875 
L 157.320673 -100.74797 
L 157.684521 -100.953064 
L 158.020221 -101.158158 
L 158.323417 -101.363252 
L 158.591621 -101.568347 
L 158.824086 -101.773441 
L 159.021576 -101.978535 
L 159.186071 -102.183629 
L 159.320433 -102.388723 
L 160.179567 -102.388723 
L 160.179567 -102.388723 
L 160.313929 -102.183629 
L 160.478424 -101.978535 
L 160.675914 -101.773441 
L 160.908379 -101.568347 
L 161.176583 -101.363252 
L 161.479779 -101.158158 
L 161.815479 -100.953064 
L 162.179327 -100.74797 
L 162.565113 -100.542875 
L 162.964942 -100.337781 
L 163.369553 -100.132687 
L 163.768789 -99.927593 
L 164.152168 -99.722499 
L 164.509521 -99.517404 
L 164.831618 -99.31231 
L 165.110741 -99.107216 
L 165.341125 -98.902122 
L 165.519238 -98.697027 
L 165.643868 -98.491933 
L 165.716023 -98.286839 
L 165.738666 -98.081745 
L 165.716344 -97.876651 
L 165.654762 -97.671556 
L 165.560376 -97.466462 
L 165.440077 -97.261368 
L 165.300985 -97.056274 
L 165.150406 -96.851179 
L 164.995913 -96.646085 
L 164.845535 -96.440991 
L 164.707985 -96.235897 
L 164.592876 -96.030802 
L 164.510847 -95.825708 
L 164.473571 -95.620614 
L 164.493613 -95.41552 
L 164.584158 -95.210426 
L 164.758638 -95.005331 
L 165.030326 -94.800237 
L 165.411944 -94.595143 
L 165.915348 -94.390049 
L 166.551307 -94.184954 
L 167.329379 -93.97986 
L 168.25784 -93.774766 
L 169.343605 -93.569672 
L 170.592076 -93.364578 
L 172.006853 -93.159483 
L 173.589284 -92.954389 
L 175.337871 -92.749295 
L 177.247605 -92.544201 
L 179.309345 -92.339106 
L 181.50937 -92.134012 
L 183.829254 -91.928918 
L 186.246136 -91.723824 
L 188.733428 -91.51873 
L 191.261902 -91.313635 
L 193.801023 -91.108541 
L 196.320314 -90.903447 
L 198.790545 -90.698353 
L 201.184511 -90.493258 
L 203.477255 -90.288164 
L 205.645696 -90.08307 
L 207.66771 -89.877976 
L 209.520867 -89.672882 
L 211.181098 -89.467787 
L 212.621614 -89.262693 
L 213.81239 -89.057599 
L 214.720454 -88.852505 
L 215.311102 -88.64741 
L 215.55 -88.442316 
L 215.406002 -88.237222 
L 214.854348 -88.032128 
L 213.879858 -87.827034 
L 212.479678 -87.621939 
L 210.665196 -87.416845 
L 208.462842 -87.211751 
L 205.91362 -87.006657 
L 203.071391 -86.801562 
L 200.000087 -86.596468 
L 196.770145 -86.391374 
L 193.454545 -86.18628 
L 190.124858 -85.981186 
L 186.847677 -85.776091 
L 183.681714 -85.570997 
L 180.675758 -85.365903 
L 177.867564 -85.160809 
L 175.283618 -84.955714 
L 172.939673 -84.75062 
L 170.841848 -84.545526 
L 168.988101 -84.340432 
L 167.369867 -84.135338 
L 165.97371 -83.930243 
L 164.78284 -83.725149 
L 163.778444 -83.520055 
L 162.940779 -83.314961 
L 162.250032 -83.109866 
L 161.686964 -82.904772 
L 161.233373 -82.699678 
L 160.872409 -82.494584 
L 160.588765 -82.28949 
L 160.368777 -82.084395 
z
" style="stroke: #3d3d3d; stroke-width: 1.25"/>
    </defs>
    <g clip-path="url(#pc677bb0ef9)">
     <use xlink:href="#m93e3cbceb3" x="0" y="360" style="fill: #3274a1; stroke: #3d3d3d; stroke-width: 1.25"/>
    </g>
   </g>
   <g id="FillBetweenPolyCollection_2">
    <defs>
     <path id="m6d0aac458c" d="M 302.757206 -60.905734 
L 295.742794 -60.905734 
L 293.853597 -63.363252 
L 291.254903 -65.820769 
L 287.841434 -68.278287 
L 283.566036 -70.735805 
L 278.469866 -73.193323 
L 272.704958 -75.650841 
L 266.541185 -78.108359 
L 260.351725 -80.565876 
L 254.57566 -83.023394 
L 249.662283 -85.480912 
L 246.007173 -87.93843 
L 243.893307 -90.395948 
L 243.45 -92.853466 
L 244.63839 -95.310984 
L 247.265641 -97.768501 
L 251.023248 -100.226019 
L 255.539716 -102.683537 
L 260.435861 -105.141055 
L 265.372151 -107.598573 
L 270.08097 -110.056091 
L 274.381148 -112.513608 
L 278.176133 -114.971126 
L 281.44 -117.428644 
L 284.196745 -119.886162 
L 286.498245 -122.34368 
L 288.405179 -124.801198 
L 289.973636 -127.258715 
L 291.248398 -129.716233 
L 292.262343 -132.173751 
L 293.040219 -134.631269 
L 293.604488 -137.088787 
L 293.980907 -139.546305 
L 294.202071 -142.003822 
L 294.308038 -144.46134 
L 294.34409 -146.918858 
L 294.356471 -149.376376 
L 294.387362 -151.833894 
L 294.470351 -154.291412 
L 294.627337 -156.74893 
L 294.867349 -159.206447 
L 295.187244 -161.663965 
L 295.573903 -164.121483 
L 296.007352 -166.579001 
L 296.464196 -169.036519 
L 296.920867 -171.494037 
L 297.356288 -173.951554 
L 297.753752 -176.409072 
L 298.101911 -178.86659 
L 298.394934 -181.324108 
L 298.631946 -183.781626 
L 298.815966 -186.239144 
L 298.952571 -188.696661 
L 299.048518 -191.154179 
L 299.110526 -193.611697 
L 299.144356 -196.069215 
L 299.154277 -198.526733 
L 299.142952 -200.984251 
L 299.111718 -203.441769 
L 299.061198 -205.899286 
L 298.992153 -208.356804 
L 298.906384 -210.814322 
L 298.80751 -213.27184 
L 298.701387 -215.729358 
L 298.596004 -218.186876 
L 298.500764 -220.644393 
L 298.425255 -223.101911 
L 298.377723 -225.559429 
L 298.363612 -228.016947 
L 298.384532 -230.474465 
L 298.437919 -232.931983 
L 298.517488 -235.3895 
L 298.614316 -237.847018 
L 298.718296 -240.304536 
L 298.819561 -242.762054 
L 298.909594 -245.219572 
L 298.981827 -247.67709 
L 299.031752 -250.134607 
L 299.056685 -252.592125 
L 299.055429 -255.049643 
L 299.02804 -257.507161 
L 298.975846 -259.964679 
L 298.90169 -262.422197 
L 298.81027 -264.879715 
L 298.708351 -267.337232 
L 298.604615 -269.79475 
L 298.509003 -272.252268 
L 298.431578 -274.709786 
L 298.381068 -277.167304 
L 298.363446 -279.624822 
L 298.380886 -282.082339 
L 298.431393 -284.539857 
L 298.509218 -286.997375 
L 298.605954 -289.454893 
L 298.712036 -291.912411 
L 298.818285 -294.369929 
L 298.917148 -296.827446 
L 299.003446 -299.284964 
L 299.074539 -301.742482 
L 299.130034 -304.2 
L 299.369966 -304.2 
L 299.369966 -304.2 
L 299.425461 -301.742482 
L 299.496554 -299.284964 
L 299.582852 -296.827446 
L 299.681715 -294.369929 
L 299.787964 -291.912411 
L 299.894046 -289.454893 
L 299.990782 -286.997375 
L 300.068607 -284.539857 
L 300.119114 -282.082339 
L 300.136554 -279.624822 
L 300.118932 -277.167304 
L 300.068422 -274.709786 
L 299.990997 -272.252268 
L 299.895385 -269.79475 
L 299.791649 -267.337232 
L 299.68973 -264.879715 
L 299.59831 -262.422197 
L 299.524154 -259.964679 
L 299.47196 -257.507161 
L 299.444571 -255.049643 
L 299.443315 -252.592125 
L 299.468248 -250.134607 
L 299.518173 -247.67709 
L 299.590406 -245.219572 
L 299.680439 -242.762054 
L 299.781704 -240.304536 
L 299.885684 -237.847018 
L 299.982512 -235.3895 
L 300.062081 -232.931983 
L 300.115468 -230.474465 
L 300.136388 -228.016947 
L 300.122277 -225.559429 
L 300.074745 -223.101911 
L 299.999236 -220.644393 
L 299.903996 -218.186876 
L 299.798613 -215.729358 
L 299.69249 -213.27184 
L 299.593616 -210.814322 
L 299.507847 -208.356804 
L 299.438802 -205.899286 
L 299.388282 -203.441769 
L 299.357048 -200.984251 
L 299.345723 -198.526733 
L 299.355644 -196.069215 
L 299.389474 -193.611697 
L 299.451482 -191.154179 
L 299.547429 -188.696661 
L 299.684034 -186.239144 
L 299.868054 -183.781626 
L 300.105066 -181.324108 
L 300.398089 -178.86659 
L 300.746248 -176.409072 
L 301.143712 -173.951554 
L 301.579133 -171.494037 
L 302.035804 -169.036519 
L 302.492648 -166.579001 
L 302.926097 -164.121483 
L 303.312756 -161.663965 
L 303.632651 -159.206447 
L 303.872663 -156.74893 
L 304.029649 -154.291412 
L 304.112638 -151.833894 
L 304.143529 -149.376376 
L 304.15591 -146.918858 
L 304.191962 -144.46134 
L 304.297929 -142.003822 
L 304.519093 -139.546305 
L 304.895512 -137.088787 
L 305.459781 -134.631269 
L 306.237657 -132.173751 
L 307.251602 -129.716233 
L 308.526364 -127.258715 
L 310.094821 -124.801198 
L 312.001755 -122.34368 
L 314.303255 -119.886162 
L 317.06 -117.428644 
L 320.323867 -114.971126 
L 324.118852 -112.513608 
L 328.41903 -110.056091 
L 333.127849 -107.598573 
L 338.064139 -105.141055 
L 342.960284 -102.683537 
L 347.476752 -100.226019 
L 351.234359 -97.768501 
L 353.86161 -95.310984 
L 355.05 -92.853466 
L 354.606693 -90.395948 
L 352.492827 -87.93843 
L 348.837717 -85.480912 
L 343.92434 -83.023394 
L 338.148275 -80.565876 
L 331.958815 -78.108359 
L 325.795042 -75.650841 
L 320.030134 -73.193323 
L 314.933964 -70.735805 
L 310.658566 -68.278287 
L 307.245097 -65.820769 
L 304.646403 -63.363252 
L 302.757206 -60.905734 
z
" style="stroke: #3d3d3d; stroke-width: 1.25"/>
    </defs>
    <g clip-path="url(#pc677bb0ef9)">
     <use xlink:href="#m6d0aac458c" x="0" y="360" style="fill: #e1812c; stroke: #3d3d3d; stroke-width: 1.25"/>
    </g>
   </g>
   <g id="FillBetweenPolyCollection_3">
    <defs>
     <path id="m15f44b30ea" d="M 442.455133 -64.00474 
L 435.044867 -64.00474 
L 433.840122 -65.377982 
L 432.344877 -66.751225 
L 430.52399 -68.124468 
L 428.349081 -69.497711 
L 425.802327 -70.870954 
L 422.880367 -72.244197 
L 419.597916 -73.61744 
L 415.990688 -74.990683 
L 412.117154 -76.363926 
L 408.058767 -77.737169 
L 403.918338 -79.110412 
L 399.816439 -80.483655 
L 395.885915 -81.856898 
L 392.264774 -83.230141 
L 389.087988 -84.603384 
L 386.478857 -85.976627 
L 384.540726 -87.34987 
L 383.349835 -88.723112 
L 382.95 -90.096355 
L 383.349657 -91.469598 
L 384.521554 -92.842841 
L 386.4051 -94.216084 
L 388.911101 -95.589327 
L 391.928398 -96.96257 
L 395.331697 -98.335813 
L 398.989875 -99.709056 
L 402.773984 -101.082299 
L 406.564308 -102.455542 
L 410.255973 -103.828785 
L 413.76281 -105.202028 
L 417.019382 -106.575271 
L 419.981253 -107.948514 
L 422.623765 -109.321757 
L 424.939651 -110.694999 
L 426.935894 -112.068242 
L 428.630216 -113.441485 
L 430.047543 -114.814728 
L 431.216747 -116.187971 
L 432.167846 -117.561214 
L 432.929806 -118.934457 
L 433.528979 -120.3077 
L 433.988168 -121.680943 
L 434.326281 -123.054186 
L 434.558452 -124.427429 
L 434.696558 -125.800672 
L 434.749989 -127.173915 
L 434.726563 -128.547158 
L 434.633472 -129.920401 
L 434.478146 -131.293644 
L 434.268952 -132.666887 
L 434.015661 -134.040129 
L 433.729633 -135.413372 
L 433.423724 -136.786615 
L 433.111914 -138.159858 
L 432.808731 -139.533101 
L 432.52851 -140.906344 
L 432.284611 -142.279587 
L 432.088641 -143.65283 
L 431.949807 -145.026073 
L 431.874431 -146.399316 
L 431.865688 -147.772559 
L 431.923569 -149.145802 
L 432.045071 -150.519045 
L 432.224566 -151.892288 
L 432.454307 -153.265531 
L 432.725016 -154.638774 
L 433.026502 -156.012016 
L 433.348257 -157.385259 
L 433.680003 -158.758502 
L 434.012168 -160.131745 
L 434.336271 -161.504988 
L 434.645227 -162.878231 
L 434.933556 -164.251474 
L 435.197515 -165.624717 
L 435.435135 -166.99796 
L 435.646169 -168.371203 
L 435.831962 -169.744446 
L 435.995223 -171.117689 
L 436.139724 -172.490932 
L 436.269941 -173.864175 
L 436.39065 -175.237418 
L 436.506524 -176.610661 
L 436.621753 -177.983904 
L 436.739728 -179.357146 
L 436.862808 -180.730389 
L 436.992205 -182.103632 
L 437.127975 -183.476875 
L 437.269118 -184.850118 
L 437.413773 -186.223361 
L 437.559469 -187.596604 
L 437.703411 -188.969847 
L 437.842762 -190.34309 
L 437.974892 -191.716333 
L 438.097581 -193.089576 
L 438.209152 -194.462819 
L 438.308532 -195.836062 
L 438.39526 -197.209305 
L 438.469433 -198.582548 
L 438.531615 -199.955791 
L 438.968385 -199.955791 
L 438.968385 -199.955791 
L 439.030567 -198.582548 
L 439.10474 -197.209305 
L 439.191468 -195.836062 
L 439.290848 -194.462819 
L 439.402419 -193.089576 
L 439.525108 -191.716333 
L 439.657238 -190.34309 
L 439.796589 -188.969847 
L 439.940531 -187.596604 
L 440.086227 -186.223361 
L 440.230882 -184.850118 
L 440.372025 -183.476875 
L 440.507795 -182.103632 
L 440.637192 -180.730389 
L 440.760272 -179.357146 
L 440.878247 -177.983904 
L 440.993476 -176.610661 
L 441.10935 -175.237418 
L 441.230059 -173.864175 
L 441.360276 -172.490932 
L 441.504777 -171.117689 
L 441.668038 -169.744446 
L 441.853831 -168.371203 
L 442.064865 -166.99796 
L 442.302485 -165.624717 
L 442.566444 -164.251474 
L 442.854773 -162.878231 
L 443.163729 -161.504988 
L 443.487832 -160.131745 
L 443.819997 -158.758502 
L 444.151743 -157.385259 
L 444.473498 -156.012016 
L 444.774984 -154.638774 
L 445.045693 -153.265531 
L 445.275434 -151.892288 
L 445.454929 -150.519045 
L 445.576431 -149.145802 
L 445.634312 -147.772559 
L 445.625569 -146.399316 
L 445.550193 -145.026073 
L 445.411359 -143.65283 
L 445.215389 -142.279587 
L 444.97149 -140.906344 
L 444.691269 -139.533101 
L 444.388086 -138.159858 
L 444.076276 -136.786615 
L 443.770367 -135.413372 
L 443.484339 -134.040129 
L 443.231048 -132.666887 
L 443.021854 -131.293644 
L 442.866528 -129.920401 
L 442.773437 -128.547158 
L 442.750011 -127.173915 
L 442.803442 -125.800672 
L 442.941548 -124.427429 
L 443.173719 -123.054186 
L 443.511832 -121.680943 
L 443.971021 -120.3077 
L 444.570194 -118.934457 
L 445.332154 -117.561214 
L 446.283253 -116.187971 
L 447.452457 -114.814728 
L 448.869784 -113.441485 
L 450.564106 -112.068242 
L 452.560349 -110.694999 
L 454.876235 -109.321757 
L 457.518747 -107.948514 
L 460.480618 -106.575271 
L 463.73719 -105.202028 
L 467.244027 -103.828785 
L 470.935692 -102.455542 
L 474.726016 -101.082299 
L 478.510125 -99.709056 
L 482.168303 -98.335813 
L 485.571602 -96.96257 
L 488.588899 -95.589327 
L 491.0949 -94.216084 
L 492.978446 -92.842841 
L 494.150343 -91.469598 
L 494.55 -90.096355 
L 494.150165 -88.723112 
L 492.959274 -87.34987 
L 491.021143 -85.976627 
L 488.412012 -84.603384 
L 485.235226 -83.230141 
L 481.614085 -81.856898 
L 477.683561 -80.483655 
L 473.581662 -79.110412 
L 469.441233 -77.737169 
L 465.382846 -76.363926 
L 461.509312 -74.990683 
L 457.902084 -73.61744 
L 454.619633 -72.244197 
L 451.697673 -70.870954 
L 449.150919 -69.497711 
L 446.97601 -68.124468 
L 445.155123 -66.751225 
L 443.659878 -65.377982 
L 442.455133 -64.00474 
z
" style="stroke: #3d3d3d; stroke-width: 1.25"/>
    </defs>
    <g clip-path="url(#pc677bb0ef9)">
     <use xlink:href="#m15f44b30ea" x="0" y="360" style="fill: #3a923a; stroke: #3d3d3d; stroke-width: 1.25"/>
    </g>
   </g>
   <g id="FillBetweenPolyCollection_4">
    <defs>
     <path id="m040484c1e4" d="M 580.786834 -52.2 
L 575.713166 -52.2 
L 574.732578 -54.65143 
L 573.46995 -57.10286 
L 571.881988 -59.55429 
L 569.931658 -62.005721 
L 567.592867 -64.457151 
L 564.855197 -66.908581 
L 561.728119 -69.360011 
L 558.244069 -71.811441 
L 554.459812 -74.262871 
L 550.455687 -76.714301 
L 546.332593 -79.165732 
L 542.206831 -81.617162 
L 538.203272 -84.068592 
L 534.447532 -86.520022 
L 531.057972 -88.971452 
L 528.138397 -91.422882 
L 525.772136 -93.874312 
L 524.018037 -96.325742 
L 522.908571 -98.777173 
L 522.45 -101.228603 
L 522.624314 -103.680033 
L 523.392496 -106.131463 
L 524.69861 -108.582893 
L 526.474251 -111.034323 
L 528.642942 -113.485753 
L 531.124205 -115.937184 
L 533.837133 -118.388614 
L 536.703361 -120.840044 
L 539.649449 -123.291474 
L 542.608685 -125.742904 
L 545.522375 -128.194334 
L 548.340683 -130.645764 
L 551.023073 -133.097195 
L 553.538421 -135.548625 
L 555.864849 -138.000055 
L 557.989292 -140.451485 
L 559.906837 -142.902915 
L 561.619851 -145.354345 
L 563.136902 -147.805775 
L 564.471515 -150.257205 
L 565.640816 -152.708636 
L 566.66414 -155.160066 
L 567.56169 -157.611496 
L 568.353361 -160.062926 
L 569.057807 -162.514356 
L 569.691807 -164.965786 
L 570.269943 -167.417216 
L 570.80455 -169.868647 
L 571.305874 -172.320077 
L 571.782317 -174.771507 
L 572.240692 -177.222937 
L 572.686399 -179.674367 
L 573.123497 -182.125797 
L 573.554659 -184.577227 
L 573.981089 -187.028658 
L 574.402431 -189.480088 
L 574.816767 -191.931518 
L 575.220743 -194.382948 
L 575.609828 -196.834378 
L 575.978702 -199.285808 
L 576.321705 -201.737238 
L 576.633284 -204.188668 
L 576.908368 -206.640099 
L 577.14261 -209.091529 
L 577.332492 -211.542959 
L 577.475289 -213.994389 
L 577.56895 -216.445819 
L 577.611959 -218.897249 
L 577.603246 -221.348679 
L 577.542214 -223.80011 
L 577.42893 -226.25154 
L 577.264469 -228.70297 
L 577.051377 -231.1544 
L 576.79419 -233.60583 
L 576.499888 -236.05726 
L 576.178176 -238.50869 
L 575.841494 -240.960121 
L 575.504661 -243.411551 
L 575.184149 -245.862981 
L 574.897009 -248.314411 
L 574.659555 -250.765841 
L 574.485967 -253.217271 
L 574.386974 -255.668701 
L 574.368823 -258.120132 
L 574.432667 -260.571562 
L 574.574469 -263.022992 
L 574.785444 -265.474422 
L 575.052968 -267.925852 
L 575.361827 -270.377282 
L 575.695649 -272.828712 
L 576.038317 -275.280142 
L 576.375205 -277.731573 
L 576.694121 -280.183003 
L 576.98587 -282.634433 
L 577.244453 -285.085863 
L 577.466915 -287.537293 
L 577.652948 -289.988723 
L 577.804333 -292.440153 
L 577.924311 -294.891584 
L 578.575689 -294.891584 
L 578.575689 -294.891584 
L 578.695667 -292.440153 
L 578.847052 -289.988723 
L 579.033085 -287.537293 
L 579.255547 -285.085863 
L 579.51413 -282.634433 
L 579.805879 -280.183003 
L 580.124795 -277.731573 
L 580.461683 -275.280142 
L 580.804351 -272.828712 
L 581.138173 -270.377282 
L 581.447032 -267.925852 
L 581.714556 -265.474422 
L 581.925531 -263.022992 
L 582.067333 -260.571562 
L 582.131177 -258.120132 
L 582.113026 -255.668701 
L 582.014033 -253.217271 
L 581.840445 -250.765841 
L 581.602991 -248.314411 
L 581.315851 -245.862981 
L 580.995339 -243.411551 
L 580.658506 -240.960121 
L 580.321824 -238.50869 
L 580.000112 -236.05726 
L 579.70581 -233.60583 
L 579.448623 -231.1544 
L 579.235531 -228.70297 
L 579.07107 -226.25154 
L 578.957786 -223.80011 
L 578.896754 -221.348679 
L 578.888041 -218.897249 
L 578.93105 -216.445819 
L 579.024711 -213.994389 
L 579.167508 -211.542959 
L 579.35739 -209.091529 
L 579.591632 -206.640099 
L 579.866716 -204.188668 
L 580.178295 -201.737238 
L 580.521298 -199.285808 
L 580.890172 -196.834378 
L 581.279257 -194.382948 
L 581.683233 -191.931518 
L 582.097569 -189.480088 
L 582.518911 -187.028658 
L 582.945341 -184.577227 
L 583.376503 -182.125797 
L 583.813601 -179.674367 
L 584.259308 -177.222937 
L 584.717683 -174.771507 
L 585.194126 -172.320077 
L 585.69545 -169.868647 
L 586.230057 -167.417216 
L 586.808193 -164.965786 
L 587.442193 -162.514356 
L 588.146639 -160.062926 
L 588.93831 -157.611496 
L 589.83586 -155.160066 
L 590.859184 -152.708636 
L 592.028485 -150.257205 
L 593.363098 -147.805775 
L 594.880149 -145.354345 
L 596.593163 -142.902915 
L 598.510708 -140.451485 
L 600.635151 -138.000055 
L 602.961579 -135.548625 
L 605.476927 -133.097195 
L 608.159317 -130.645764 
L 610.977625 -128.194334 
L 613.891315 -125.742904 
L 616.850551 -123.291474 
L 619.796639 -120.840044 
L 622.662867 -118.388614 
L 625.375795 -115.937184 
L 627.857058 -113.485753 
L 630.025749 -111.034323 
L 631.80139 -108.582893 
L 633.107504 -106.131463 
L 633.875686 -103.680033 
L 634.05 -101.228603 
L 633.591429 -98.777173 
L 632.481963 -96.325742 
L 630.727864 -93.874312 
L 628.361603 -91.422882 
L 625.442028 -88.971452 
L 622.052468 -86.520022 
L 618.296728 -84.068592 
L 614.293169 -81.617162 
L 610.167407 -79.165732 
L 606.044313 -76.714301 
L 602.040188 -74.262871 
L 598.255931 -71.811441 
L 594.771881 -69.360011 
L 591.644803 -66.908581 
L 588.907133 -64.457151 
L 586.568342 -62.005721 
L 584.618012 -59.55429 
L 583.03005 -57.10286 
L 581.767422 -54.65143 
L 580.786834 -52.2 
z
" style="stroke: #3d3d3d; stroke-width: 1.25"/>
    </defs>
    <g clip-path="url(#pc677bb0ef9)">
     <use xlink:href="#m040484c1e4" x="0" y="360" style="fill: #c03d3e; stroke: #3d3d3d; stroke-width: 1.25"/>
    </g>
   </g>
   <g id="matplotlib.axis_1">
    <g id="xtick_1">
     <g id="line2d_1">
      <defs>
       <path id="m16a8377ff4" d="M 0 0 
L 0 3.5 
" style="stroke: #000000; stroke-width: 0.8"/>
      </defs>
      <g>
       <use xlink:href="#m16a8377ff4" x="159.75" y="320.4" style="stroke: #000000; stroke-width: 0.8"/>
      </g>
     </g>
     <g id="text_1">
      <!-- No -->
      <g transform="translate(152.95 334.998438) scale(0.1 -0.1)">
       <defs>
        <path id="DejaVuSans-4e" d="M 628 4666 
L 1478 4666 
L 3547 763 
L 3547 4666 
L 4159 4666 
L 4159 0 
L 3309 0 
L 1241 3903 
L 1241 0 
L 628 0 
L 628 4666 
z
" transform="scale(0.015625)"/>
        <path id="DejaVuSans-6f" d="M 1959 3097 
Q 1497 3097 1228 2736 
Q 959 2375 959 1747 
Q 959 1119 1226 758 
Q 1494 397 1959 397 
Q 2419 397 2687 759 
Q 2956 1122 2956 1747 
Q 2956 2369 2687 2733 
Q 2419 3097 1959 3097 
z
M 1959 3584 
Q 2709 3584 3137 3096 
Q 3566 2609 3566 1747 
Q 3566 888 3137 398 
Q 2709 -91 1959 -91 
Q 1206 -91 779 398 
Q 353 888 353 1747 
Q 353 2609 779 3096 
Q 1206 3584 1959 3584 
z
" transform="scale(0.015625)"/>
       </defs>
       <use xlink:href="#DejaVuSans-4e"/>
       <use xlink:href="#DejaVuSans-6f" transform="translate(74.804688 0)"/>
      </g>
     </g>
    </g>
    <g id="xtick_2">
     <g id="line2d_2">
      <g>
       <use xlink:href="#m16a8377ff4" x="299.25" y="320.4" style="stroke: #000000; stroke-width: 0.8"/>
      </g>
     </g>
     <g id="text_2">
      <!-- Specific -->
      <g transform="translate(279.788281 334.998438) scale(0.1 -0.1)">
       <defs>
        <path id="DejaVuSans-53" d="M 3425 4513 
L 3425 3897 
Q 3066 4069 2747 4153 
Q 2428 4238 2131 4238 
Q 1616 4238 1336 4038 
Q 1056 3838 1056 3469 
Q 1056 3159 1242 3001 
Q 1428 2844 1947 2747 
L 2328 2669 
Q 3034 2534 3370 2195 
Q 3706 1856 3706 1288 
Q 3706 609 3251 259 
Q 2797 -91 1919 -91 
Q 1588 -91 1214 -16 
Q 841 59 441 206 
L 441 856 
Q 825 641 1194 531 
Q 1563 422 1919 422 
Q 2459 422 2753 634 
Q 3047 847 3047 1241 
Q 3047 1584 2836 1778 
Q 2625 1972 2144 2069 
L 1759 2144 
Q 1053 2284 737 2584 
Q 422 2884 422 3419 
Q 422 4038 858 4394 
Q 1294 4750 2059 4750 
Q 2388 4750 2728 4690 
Q 3069 4631 3425 4513 
z
" transform="scale(0.015625)"/>
        <path id="DejaVuSans-70" d="M 1159 525 
L 1159 -1331 
L 581 -1331 
L 581 3500 
L 1159 3500 
L 1159 2969 
Q 1341 3281 1617 3432 
Q 1894 3584 2278 3584 
Q 2916 3584 3314 3078 
Q 3713 2572 3713 1747 
Q 3713 922 3314 415 
Q 2916 -91 2278 -91 
Q 1894 -91 1617 61 
Q 1341 213 1159 525 
z
M 3116 1747 
Q 3116 2381 2855 2742 
Q 2594 3103 2138 3103 
Q 1681 3103 1420 2742 
Q 1159 2381 1159 1747 
Q 1159 1113 1420 752 
Q 1681 391 2138 391 
Q 2594 391 2855 752 
Q 3116 1113 3116 1747 
z
" transform="scale(0.015625)"/>
        <path id="DejaVuSans-65" d="M 3597 1894 
L 3597 1613 
L 953 1613 
Q 991 1019 1311 708 
Q 1631 397 2203 397 
Q 2534 397 2845 478 
Q 3156 559 3463 722 
L 3463 178 
Q 3153 47 2828 -22 
Q 2503 -91 2169 -91 
Q 1331 -91 842 396 
Q 353 884 353 1716 
Q 353 2575 817 3079 
Q 1281 3584 2069 3584 
Q 2775 3584 3186 3129 
Q 3597 2675 3597 1894 
z
M 3022 2063 
Q 3016 2534 2758 2815 
Q 2500 3097 2075 3097 
Q 1594 3097 1305 2825 
Q 1016 2553 972 2059 
L 3022 2063 
z
" transform="scale(0.015625)"/>
        <path id="DejaVuSans-63" d="M 3122 3366 
L 3122 2828 
Q 2878 2963 2633 3030 
Q 2388 3097 2138 3097 
Q 1578 3097 1268 2742 
Q 959 2388 959 1747 
Q 959 1106 1268 751 
Q 1578 397 2138 397 
Q 2388 397 2633 464 
Q 2878 531 3122 666 
L 3122 134 
Q 2881 22 2623 -34 
Q 2366 -91 2075 -91 
Q 1284 -91 818 406 
Q 353 903 353 1747 
Q 353 2603 823 3093 
Q 1294 3584 2113 3584 
Q 2378 3584 2631 3529 
Q 2884 3475 3122 3366 
z
" transform="scale(0.015625)"/>
        <path id="DejaVuSans-69" d="M 603 3500 
L 1178 3500 
L 1178 0 
L 603 0 
L 603 3500 
z
M 603 4863 
L 1178 4863 
L 1178 4134 
L 603 4134 
L 603 4863 
z
" transform="scale(0.015625)"/>
        <path id="DejaVuSans-66" d="M 2375 4863 
L 2375 4384 
L 1825 4384 
Q 1516 4384 1395 4259 
Q 1275 4134 1275 3809 
L 1275 3500 
L 2222 3500 
L 2222 3053 
L 1275 3053 
L 1275 0 
L 697 0 
L 697 3053 
L 147 3053 
L 147 3500 
L 697 3500 
L 697 3744 
Q 697 4328 969 4595 
Q 1241 4863 1831 4863 
L 2375 4863 
z
" transform="scale(0.015625)"/>
       </defs>
       <use xlink:href="#DejaVuSans-53"/>
       <use xlink:href="#DejaVuSans-70" transform="translate(63.476562 0)"/>
       <use xlink:href="#DejaVuSans-65" transform="translate(126.953125 0)"/>
       <use xlink:href="#DejaVuSans-63" transform="translate(188.476562 0)"/>
       <use xlink:href="#DejaVuSans-69" transform="translate(243.457031 0)"/>
       <use xlink:href="#DejaVuSans-66" transform="translate(271.240234 0)"/>
       <use xlink:href="#DejaVuSans-69" transform="translate(306.445312 0)"/>
       <use xlink:href="#DejaVuSans-63" transform="translate(334.228516 0)"/>
      </g>
     </g>
    </g>
    <g id="xtick_3">
     <g id="line2d_3">
      <g>
       <use xlink:href="#m16a8377ff4" x="438.75" y="320.4" style="stroke: #000000; stroke-width: 0.8"/>
      </g>
     </g>
     <g id="text_3">
      <!-- Spurious -->
      <g transform="translate(416.955469 334.998438) scale(0.1 -0.1)">
       <defs>
        <path id="DejaVuSans-75" d="M 544 1381 
L 544 3500 
L 1119 3500 
L 1119 1403 
Q 1119 906 1312 657 
Q 1506 409 1894 409 
Q 2359 409 2629 706 
Q 2900 1003 2900 1516 
L 2900 3500 
L 3475 3500 
L 3475 0 
L 2900 0 
L 2900 538 
Q 2691 219 2414 64 
Q 2138 -91 1772 -91 
Q 1169 -91 856 284 
Q 544 659 544 1381 
z
M 1991 3584 
L 1991 3584 
z
" transform="scale(0.015625)"/>
        <path id="DejaVuSans-72" d="M 2631 2963 
Q 2534 3019 2420 3045 
Q 2306 3072 2169 3072 
Q 1681 3072 1420 2755 
Q 1159 2438 1159 1844 
L 1159 0 
L 581 0 
L 581 3500 
L 1159 3500 
L 1159 2956 
Q 1341 3275 1631 3429 
Q 1922 3584 2338 3584 
Q 2397 3584 2469 3576 
Q 2541 3569 2628 3553 
L 2631 2963 
z
" transform="scale(0.015625)"/>
        <path id="DejaVuSans-73" d="M 2834 3397 
L 2834 2853 
Q 2591 2978 2328 3040 
Q 2066 3103 1784 3103 
Q 1356 3103 1142 2972 
Q 928 2841 928 2578 
Q 928 2378 1081 2264 
Q 1234 2150 1697 2047 
L 1894 2003 
Q 2506 1872 2764 1633 
Q 3022 1394 3022 966 
Q 3022 478 2636 193 
Q 2250 -91 1575 -91 
Q 1294 -91 989 -36 
Q 684 19 347 128 
L 347 722 
Q 666 556 975 473 
Q 1284 391 1588 391 
Q 1994 391 2212 530 
Q 2431 669 2431 922 
Q 2431 1156 2273 1281 
Q 2116 1406 1581 1522 
L 1381 1569 
Q 847 1681 609 1914 
Q 372 2147 372 2553 
Q 372 3047 722 3315 
Q 1072 3584 1716 3584 
Q 2034 3584 2315 3537 
Q 2597 3491 2834 3397 
z
" transform="scale(0.015625)"/>
       </defs>
       <use xlink:href="#DejaVuSans-53"/>
       <use xlink:href="#DejaVuSans-70" transform="translate(63.476562 0)"/>
       <use xlink:href="#DejaVuSans-75" transform="translate(126.953125 0)"/>
       <use xlink:href="#DejaVuSans-72" transform="translate(190.332031 0)"/>
       <use xlink:href="#DejaVuSans-69" transform="translate(231.445312 0)"/>
       <use xlink:href="#DejaVuSans-6f" transform="translate(259.228516 0)"/>
       <use xlink:href="#DejaVuSans-75" transform="translate(320.410156 0)"/>
       <use xlink:href="#DejaVuSans-73" transform="translate(383.789062 0)"/>
      </g>
     </g>
    </g>
    <g id="xtick_4">
     <g id="line2d_4">
      <g>
       <use xlink:href="#m16a8377ff4" x="578.25" y="320.4" style="stroke: #000000; stroke-width: 0.8"/>
      </g>
     </g>
     <g id="text_4">
      <!-- Non-specific -->
      <g transform="translate(547.585156 334.998438) scale(0.1 -0.1)">
       <defs>
        <path id="DejaVuSans-6e" d="M 3513 2113 
L 3513 0 
L 2938 0 
L 2938 2094 
Q 2938 2591 2744 2837 
Q 2550 3084 2163 3084 
Q 1697 3084 1428 2787 
Q 1159 2491 1159 1978 
L 1159 0 
L 581 0 
L 581 3500 
L 1159 3500 
L 1159 2956 
Q 1366 3272 1645 3428 
Q 1925 3584 2291 3584 
Q 2894 3584 3203 3211 
Q 3513 2838 3513 2113 
z
" transform="scale(0.015625)"/>
        <path id="DejaVuSans-2d" d="M 313 2009 
L 1997 2009 
L 1997 1497 
L 313 1497 
L 313 2009 
z
" transform="scale(0.015625)"/>
       </defs>
       <use xlink:href="#DejaVuSans-4e"/>
       <use xlink:href="#DejaVuSans-6f" transform="translate(74.804688 0)"/>
       <use xlink:href="#DejaVuSans-6e" transform="translate(135.986328 0)"/>
       <use xlink:href="#DejaVuSans-2d" transform="translate(199.365234 0)"/>
       <use xlink:href="#DejaVuSans-73" transform="translate(235.449219 0)"/>
       <use xlink:href="#DejaVuSans-70" transform="translate(287.548828 0)"/>
       <use xlink:href="#DejaVuSans-65" transform="translate(351.025391 0)"/>
       <use xlink:href="#DejaVuSans-63" transform="translate(412.548828 0)"/>
       <use xlink:href="#DejaVuSans-69" transform="translate(467.529297 0)"/>
       <use xlink:href="#DejaVuSans-66" transform="translate(495.3125 0)"/>
       <use xlink:href="#DejaVuSans-69" transform="translate(530.517578 0)"/>
       <use xlink:href="#DejaVuSans-63" transform="translate(558.300781 0)"/>
      </g>
     </g>
    </g>
    <g id="text_5">
     <!-- Connectivity category -->
     <g transform="translate(313.98125 348.676562) scale(0.1 -0.1)">
      <defs>
       <path id="DejaVuSans-43" d="M 4122 4306 
L 4122 3641 
Q 3803 3938 3442 4084 
Q 3081 4231 2675 4231 
Q 1875 4231 1450 3742 
Q 1025 3253 1025 2328 
Q 1025 1406 1450 917 
Q 1875 428 2675 428 
Q 3081 428 3442 575 
Q 3803 722 4122 1019 
L 4122 359 
Q 3791 134 3420 21 
Q 3050 -91 2638 -91 
Q 1578 -91 968 557 
Q 359 1206 359 2328 
Q 359 3453 968 4101 
Q 1578 4750 2638 4750 
Q 3056 4750 3426 4639 
Q 3797 4528 4122 4306 
z
" transform="scale(0.015625)"/>
       <path id="DejaVuSans-74" d="M 1172 4494 
L 1172 3500 
L 2356 3500 
L 2356 3053 
L 1172 3053 
L 1172 1153 
Q 1172 725 1289 603 
Q 1406 481 1766 481 
L 2356 481 
L 2356 0 
L 1766 0 
Q 1100 0 847 248 
Q 594 497 594 1153 
L 594 3053 
L 172 3053 
L 172 3500 
L 594 3500 
L 594 4494 
L 1172 4494 
z
" transform="scale(0.015625)"/>
       <path id="DejaVuSans-76" d="M 191 3500 
L 800 3500 
L 1894 563 
L 2988 3500 
L 3597 3500 
L 2284 0 
L 1503 0 
L 191 3500 
z
" transform="scale(0.015625)"/>
       <path id="DejaVuSans-79" d="M 2059 -325 
Q 1816 -950 1584 -1140 
Q 1353 -1331 966 -1331 
L 506 -1331 
L 506 -850 
L 844 -850 
Q 1081 -850 1212 -737 
Q 1344 -625 1503 -206 
L 1606 56 
L 191 3500 
L 800 3500 
L 1894 763 
L 2988 3500 
L 3597 3500 
L 2059 -325 
z
" transform="scale(0.015625)"/>
       <path id="DejaVuSans-20" transform="scale(0.015625)"/>
       <path id="DejaVuSans-61" d="M 2194 1759 
Q 1497 1759 1228 1600 
Q 959 1441 959 1056 
Q 959 750 1161 570 
Q 1363 391 1709 391 
Q 2188 391 2477 730 
Q 2766 1069 2766 1631 
L 2766 1759 
L 2194 1759 
z
M 3341 1997 
L 3341 0 
L 2766 0 
L 2766 531 
Q 2569 213 2275 61 
Q 1981 -91 1556 -91 
Q 1019 -91 701 211 
Q 384 513 384 1019 
Q 384 1609 779 1909 
Q 1175 2209 1959 2209 
L 2766 2209 
L 2766 2266 
Q 2766 2663 2505 2880 
Q 2244 3097 1772 3097 
Q 1472 3097 1187 3025 
Q 903 2953 641 2809 
L 641 3341 
Q 956 3463 1253 3523 
Q 1550 3584 1831 3584 
Q 2591 3584 2966 3190 
Q 3341 2797 3341 1997 
z
" transform="scale(0.015625)"/>
       <path id="DejaVuSans-67" d="M 2906 1791 
Q 2906 2416 2648 2759 
Q 2391 3103 1925 3103 
Q 1463 3103 1205 2759 
Q 947 2416 947 1791 
Q 947 1169 1205 825 
Q 1463 481 1925 481 
Q 2391 481 2648 825 
Q 2906 1169 2906 1791 
z
M 3481 434 
Q 3481 -459 3084 -895 
Q 2688 -1331 1869 -1331 
Q 1566 -1331 1297 -1286 
Q 1028 -1241 775 -1147 
L 775 -588 
Q 1028 -725 1275 -790 
Q 1522 -856 1778 -856 
Q 2344 -856 2625 -561 
Q 2906 -266 2906 331 
L 2906 616 
Q 2728 306 2450 153 
Q 2172 0 1784 0 
Q 1141 0 747 490 
Q 353 981 353 1791 
Q 353 2603 747 3093 
Q 1141 3584 1784 3584 
Q 2172 3584 2450 3431 
Q 2728 3278 2906 2969 
L 2906 3500 
L 3481 3500 
L 3481 434 
z
" transform="scale(0.015625)"/>
      </defs>
      <use xlink:href="#DejaVuSans-43"/>
      <use xlink:href="#DejaVuSans-6f" transform="translate(69.824219 0)"/>
      <use xlink:href="#DejaVuSans-6e" transform="translate(131.005859 0)"/>
      <use xlink:href="#DejaVuSans-6e" transform="translate(194.384766 0)"/>
      <use xlink:href="#DejaVuSans-65" transform="translate(257.763672 0)"/>
      <use xlink:href="#DejaVuSans-63" transform="translate(319.287109 0)"/>
      <use xlink:href="#DejaVuSans-74" transform="translate(374.267578 0)"/>
      <use xlink:href="#DejaVuSans-69" transform="translate(413.476562 0)"/>
      <use xlink:href="#DejaVuSans-76" transform="translate(441.259766 0)"/>
      <use xlink:href="#DejaVuSans-69" transform="translate(500.439453 0)"/>
      <use xlink:href="#DejaVuSans-74" transform="translate(528.222656 0)"/>
      <use xlink:href="#DejaVuSans-79" transform="translate(567.431641 0)"/>
      <use xlink:href="#DejaVuSans-20" transform="translate(626.611328 0)"/>
      <use xlink:href="#DejaVuSans-63" transform="translate(658.398438 0)"/>
      <use xlink:href="#DejaVuSans-61" transform="translate(713.378906 0)"/>
      <use xlink:href="#DejaVuSans-74" transform="translate(774.658203 0)"/>
      <use xlink:href="#DejaVuSans-65" transform="translate(813.867188 0)"/>
      <use xlink:href="#DejaVuSans-67" transform="translate(875.390625 0)"/>
      <use xlink:href="#DejaVuSans-6f" transform="translate(938.867188 0)"/>
      <use xlink:href="#DejaVuSans-72" transform="translate(1000.048828 0)"/>
      <use xlink:href="#DejaVuSans-79" transform="translate(1041.162109 0)"/>
     </g>
    </g>
   </g>
   <g id="matplotlib.axis_2">
    <g id="ytick_1">
     <g id="line2d_5">
      <defs>
       <path id="md77c77b664" d="M 0 0 
L -3.5 0 
" style="stroke: #000000; stroke-width: 0.8"/>
      </defs>
      <g>
       <use xlink:href="#md77c77b664" x="90" y="274.604237" style="stroke: #000000; stroke-width: 0.8"/>
      </g>
     </g>
     <g id="text_6">
      <!-- 0.0 -->
      <g transform="translate(67.096875 278.403456) scale(0.1 -0.1)">
       <defs>
        <path id="DejaVuSans-30" d="M 2034 4250 
Q 1547 4250 1301 3770 
Q 1056 3291 1056 2328 
Q 1056 1369 1301 889 
Q 1547 409 2034 409 
Q 2525 409 2770 889 
Q 3016 1369 3016 2328 
Q 3016 3291 2770 3770 
Q 2525 4250 2034 4250 
z
M 2034 4750 
Q 2819 4750 3233 4129 
Q 3647 3509 3647 2328 
Q 3647 1150 3233 529 
Q 2819 -91 2034 -91 
Q 1250 -91 836 529 
Q 422 1150 422 2328 
Q 422 3509 836 4129 
Q 1250 4750 2034 4750 
z
" transform="scale(0.015625)"/>
        <path id="DejaVuSans-2e" d="M 684 794 
L 1344 794 
L 1344 0 
L 684 0 
L 684 794 
z
" transform="scale(0.015625)"/>
       </defs>
       <use xlink:href="#DejaVuSans-30"/>
       <use xlink:href="#DejaVuSans-2e" transform="translate(63.623047 0)"/>
       <use xlink:href="#DejaVuSans-30" transform="translate(95.410156 0)"/>
      </g>
     </g>
    </g>
    <g id="ytick_2">
     <g id="line2d_6">
      <g>
       <use xlink:href="#md77c77b664" x="90" y="226.708512" style="stroke: #000000; stroke-width: 0.8"/>
      </g>
     </g>
     <g id="text_7">
      <!-- 0.2 -->
      <g transform="translate(67.096875 230.50773) scale(0.1 -0.1)">
       <defs>
        <path id="DejaVuSans-32" d="M 1228 531 
L 3431 531 
L 3431 0 
L 469 0 
L 469 531 
Q 828 903 1448 1529 
Q 2069 2156 2228 2338 
Q 2531 2678 2651 2914 
Q 2772 3150 2772 3378 
Q 2772 3750 2511 3984 
Q 2250 4219 1831 4219 
Q 1534 4219 1204 4116 
Q 875 4013 500 3803 
L 500 4441 
Q 881 4594 1212 4672 
Q 1544 4750 1819 4750 
Q 2544 4750 2975 4387 
Q 3406 4025 3406 3419 
Q 3406 3131 3298 2873 
Q 3191 2616 2906 2266 
Q 2828 2175 2409 1742 
Q 1991 1309 1228 531 
z
" transform="scale(0.015625)"/>
       </defs>
       <use xlink:href="#DejaVuSans-30"/>
       <use xlink:href="#DejaVuSans-2e" transform="translate(63.623047 0)"/>
       <use xlink:href="#DejaVuSans-32" transform="translate(95.410156 0)"/>
      </g>
     </g>
    </g>
    <g id="ytick_3">
     <g id="line2d_7">
      <g>
       <use xlink:href="#md77c77b664" x="90" y="178.812786" style="stroke: #000000; stroke-width: 0.8"/>
      </g>
     </g>
     <g id="text_8">
      <!-- 0.4 -->
      <g transform="translate(67.096875 182.612005) scale(0.1 -0.1)">
       <defs>
        <path id="DejaVuSans-34" d="M 2419 4116 
L 825 1625 
L 2419 1625 
L 2419 4116 
z
M 2253 4666 
L 3047 4666 
L 3047 1625 
L 3713 1625 
L 3713 1100 
L 3047 1100 
L 3047 0 
L 2419 0 
L 2419 1100 
L 313 1100 
L 313 1709 
L 2253 4666 
z
" transform="scale(0.015625)"/>
       </defs>
       <use xlink:href="#DejaVuSans-30"/>
       <use xlink:href="#DejaVuSans-2e" transform="translate(63.623047 0)"/>
       <use xlink:href="#DejaVuSans-34" transform="translate(95.410156 0)"/>
      </g>
     </g>
    </g>
    <g id="ytick_4">
     <g id="line2d_8">
      <g>
       <use xlink:href="#md77c77b664" x="90" y="130.917061" style="stroke: #000000; stroke-width: 0.8"/>
      </g>
     </g>
     <g id="text_9">
      <!-- 0.6 -->
      <g transform="translate(67.096875 134.71628) scale(0.1 -0.1)">
       <defs>
        <path id="DejaVuSans-36" d="M 2113 2584 
Q 1688 2584 1439 2293 
Q 1191 2003 1191 1497 
Q 1191 994 1439 701 
Q 1688 409 2113 409 
Q 2538 409 2786 701 
Q 3034 994 3034 1497 
Q 3034 2003 2786 2293 
Q 2538 2584 2113 2584 
z
M 3366 4563 
L 3366 3988 
Q 3128 4100 2886 4159 
Q 2644 4219 2406 4219 
Q 1781 4219 1451 3797 
Q 1122 3375 1075 2522 
Q 1259 2794 1537 2939 
Q 1816 3084 2150 3084 
Q 2853 3084 3261 2657 
Q 3669 2231 3669 1497 
Q 3669 778 3244 343 
Q 2819 -91 2113 -91 
Q 1303 -91 875 529 
Q 447 1150 447 2328 
Q 447 3434 972 4092 
Q 1497 4750 2381 4750 
Q 2619 4750 2861 4703 
Q 3103 4656 3366 4563 
z
" transform="scale(0.015625)"/>
       </defs>
       <use xlink:href="#DejaVuSans-30"/>
       <use xlink:href="#DejaVuSans-2e" transform="translate(63.623047 0)"/>
       <use xlink:href="#DejaVuSans-36" transform="translate(95.410156 0)"/>
      </g>
     </g>
    </g>
    <g id="ytick_5">
     <g id="line2d_9">
      <g>
       <use xlink:href="#md77c77b664" x="90" y="83.021336" style="stroke: #000000; stroke-width: 0.8"/>
      </g>
     </g>
     <g id="text_10">
      <!-- 0.8 -->
      <g transform="translate(67.096875 86.820555) scale(0.1 -0.1)">
       <defs>
        <path id="DejaVuSans-38" d="M 2034 2216 
Q 1584 2216 1326 1975 
Q 1069 1734 1069 1313 
Q 1069 891 1326 650 
Q 1584 409 2034 409 
Q 2484 409 2743 651 
Q 3003 894 3003 1313 
Q 3003 1734 2745 1975 
Q 2488 2216 2034 2216 
z
M 1403 2484 
Q 997 2584 770 2862 
Q 544 3141 544 3541 
Q 544 4100 942 4425 
Q 1341 4750 2034 4750 
Q 2731 4750 3128 4425 
Q 3525 4100 3525 3541 
Q 3525 3141 3298 2862 
Q 3072 2584 2669 2484 
Q 3125 2378 3379 2068 
Q 3634 1759 3634 1313 
Q 3634 634 3220 271 
Q 2806 -91 2034 -91 
Q 1263 -91 848 271 
Q 434 634 434 1313 
Q 434 1759 690 2068 
Q 947 2378 1403 2484 
z
M 1172 3481 
Q 1172 3119 1398 2916 
Q 1625 2713 2034 2713 
Q 2441 2713 2670 2916 
Q 2900 3119 2900 3481 
Q 2900 3844 2670 4047 
Q 2441 4250 2034 4250 
Q 1625 4250 1398 4047 
Q 1172 3844 1172 3481 
z
" transform="scale(0.015625)"/>
       </defs>
       <use xlink:href="#DejaVuSans-30"/>
       <use xlink:href="#DejaVuSans-2e" transform="translate(63.623047 0)"/>
       <use xlink:href="#DejaVuSans-38" transform="translate(95.410156 0)"/>
      </g>
     </g>
    </g>
    <g id="text_11">
     <!-- cont_variable -->
     <g transform="translate(60.739062 215.409375) rotate(-90) scale(0.1 -0.1)">
      <defs>
       <path id="DejaVuSans-5f" d="M 3263 -1063 
L 3263 -1509 
L -63 -1509 
L -63 -1063 
L 3263 -1063 
z
" transform="scale(0.015625)"/>
       <path id="DejaVuSans-62" d="M 3116 1747 
Q 3116 2381 2855 2742 
Q 2594 3103 2138 3103 
Q 1681 3103 1420 2742 
Q 1159 2381 1159 1747 
Q 1159 1113 1420 752 
Q 1681 391 2138 391 
Q 2594 391 2855 752 
Q 3116 1113 3116 1747 
z
M 1159 2969 
Q 1341 3281 1617 3432 
Q 1894 3584 2278 3584 
Q 2916 3584 3314 3078 
Q 3713 2572 3713 1747 
Q 3713 922 3314 415 
Q 2916 -91 2278 -91 
Q 1894 -91 1617 61 
Q 1341 213 1159 525 
L 1159 0 
L 581 0 
L 581 4863 
L 1159 4863 
L 1159 2969 
z
" transform="scale(0.015625)"/>
       <path id="DejaVuSans-6c" d="M 603 4863 
L 1178 4863 
L 1178 0 
L 603 0 
L 603 4863 
z
" transform="scale(0.015625)"/>
      </defs>
      <use xlink:href="#DejaVuSans-63"/>
      <use xlink:href="#DejaVuSans-6f" transform="translate(54.980469 0)"/>
      <use xlink:href="#DejaVuSans-6e" transform="translate(116.162109 0)"/>
      <use xlink:href="#DejaVuSans-74" transform="translate(179.541016 0)"/>
      <use xlink:href="#DejaVuSans-5f" transform="translate(218.75 0)"/>
      <use xlink:href="#DejaVuSans-76" transform="translate(268.75 0)"/>
      <use xlink:href="#DejaVuSans-61" transform="translate(327.929688 0)"/>
      <use xlink:href="#DejaVuSans-72" transform="translate(389.208984 0)"/>
      <use xlink:href="#DejaVuSans-69" transform="translate(430.322266 0)"/>
      <use xlink:href="#DejaVuSans-61" transform="translate(458.105469 0)"/>
      <use xlink:href="#DejaVuSans-62" transform="translate(519.384766 0)"/>
      <use xlink:href="#DejaVuSans-6c" transform="translate(582.861328 0)"/>
      <use xlink:href="#DejaVuSans-65" transform="translate(610.644531 0)"/>
     </g>
    </g>
   </g>
   <g id="patch_3">
    <path d="M 90 320.4 
L 90 43.2 
" style="fill: none; stroke: #000000; stroke-width: 0.8; stroke-linejoin: miter; stroke-linecap: square"/>
   </g>
   <g id="patch_4">
    <path d="M 648 320.4 
L 648 43.2 
" style="fill: none; stroke: #000000; stroke-width: 0.8; stroke-linejoin: miter; stroke-linecap: square"/>
   </g>
   <g id="patch_5">
    <path d="M 90 320.4 
L 648 320.4 
" style="fill: none; stroke: #000000; stroke-width: 0.8; stroke-linejoin: miter; stroke-linecap: square"/>
   </g>
   <g id="patch_6">
    <path d="M 90 43.2 
L 648 43.2 
" style="fill: none; stroke: #000000; stroke-width: 0.8; stroke-linejoin: miter; stroke-linecap: square"/>
   </g>
   <g id="PathCollection_1">
    <defs>
     <path id="mfe3a24f32c" d="M 0 2.5 
C 0.663008 2.5 1.29895 2.236584 1.767767 1.767767 
C 2.236584 1.29895 2.5 0.663008 2.5 0 
C 2.5 -0.663008 2.236584 -1.29895 1.767767 -1.767767 
C 1.29895 -2.236584 0.663008 -2.5 0 -2.5 
C -0.663008 -2.5 -1.29895 -2.236584 -1.767767 -1.767767 
C -2.236584 -1.29895 -2.5 -0.663008 -2.5 0 
C -2.5 0.663008 -2.236584 1.29895 -1.767767 1.767767 
C -1.29895 2.236584 -0.663008 2.5 0 2.5 
z
"/>
    </defs>
    <g clip-path="url(#pc677bb0ef9)">
     <use xlink:href="#mfe3a24f32c" x="163.409299" y="272.749645" style="fill-opacity: 0.3"/>
     <use xlink:href="#mfe3a24f32c" x="152.326309" y="272.78955" style="fill-opacity: 0.3"/>
     <use xlink:href="#mfe3a24f32c" x="149.649176" y="272.262722" style="fill-opacity: 0.3"/>
     <use xlink:href="#mfe3a24f32c" x="158.640316" y="269.040109" style="fill-opacity: 0.3"/>
     <use xlink:href="#mfe3a24f32c" x="155.332069" y="260.695454" style="fill-opacity: 0.3"/>
     <use xlink:href="#mfe3a24f32c" x="169.359516" y="269.235735" style="fill-opacity: 0.3"/>
     <use xlink:href="#mfe3a24f32c" x="173.097909" y="263.883935" style="fill-opacity: 0.3"/>
     <use xlink:href="#mfe3a24f32c" x="145.880927" y="271.880547" style="fill-opacity: 0.3"/>
     <use xlink:href="#mfe3a24f32c" x="156.108188" y="274.831427" style="fill-opacity: 0.3"/>
     <use xlink:href="#mfe3a24f32c" x="168.541863" y="271.370363" style="fill-opacity: 0.3"/>
     <use xlink:href="#mfe3a24f32c" x="157.051628" y="269.355216" style="fill-opacity: 0.3"/>
     <use xlink:href="#mfe3a24f32c" x="157.244682" y="269.641474" style="fill-opacity: 0.3"/>
     <use xlink:href="#mfe3a24f32c" x="159.529456" y="269.060826" style="fill-opacity: 0.3"/>
     <use xlink:href="#mfe3a24f32c" x="149.57876" y="273.345824" style="fill-opacity: 0.3"/>
     <use xlink:href="#mfe3a24f32c" x="152.579537" y="271.182414" style="fill-opacity: 0.3"/>
     <use xlink:href="#mfe3a24f32c" x="171.42028" y="272.983009" style="fill-opacity: 0.3"/>
     <use xlink:href="#mfe3a24f32c" x="147.463484" y="267.085124" style="fill-opacity: 0.3"/>
     <use xlink:href="#mfe3a24f32c" x="146.075533" y="274.112945" style="fill-opacity: 0.3"/>
     <use xlink:href="#mfe3a24f32c" x="171.116694" y="272.329384" style="fill-opacity: 0.3"/>
     <use xlink:href="#mfe3a24f32c" x="160.345069" y="271.306713" style="fill-opacity: 0.3"/>
     <use xlink:href="#mfe3a24f32c" x="159.23251" y="271.873051" style="fill-opacity: 0.3"/>
     <use xlink:href="#mfe3a24f32c" x="146.880181" y="270.243808" style="fill-opacity: 0.3"/>
     <use xlink:href="#mfe3a24f32c" x="160.646922" y="270.194407" style="fill-opacity: 0.3"/>
     <use xlink:href="#mfe3a24f32c" x="157.156083" y="272.683404" style="fill-opacity: 0.3"/>
     <use xlink:href="#mfe3a24f32c" x="156.726261" y="269.635094" style="fill-opacity: 0.3"/>
     <use xlink:href="#mfe3a24f32c" x="156.938277" y="270.484795" style="fill-opacity: 0.3"/>
     <use xlink:href="#mfe3a24f32c" x="156.566671" y="271.422037" style="fill-opacity: 0.3"/>
     <use xlink:href="#mfe3a24f32c" x="152.93097" y="269.203127" style="fill-opacity: 0.3"/>
     <use xlink:href="#mfe3a24f32c" x="162.602158" y="272.819708" style="fill-opacity: 0.3"/>
     <use xlink:href="#mfe3a24f32c" x="155.405637" y="271.912869" style="fill-opacity: 0.3"/>
     <use xlink:href="#mfe3a24f32c" x="166.584366" y="272.202958" style="fill-opacity: 0.3"/>
     <use xlink:href="#mfe3a24f32c" x="164.873439" y="267.265533" style="fill-opacity: 0.3"/>
     <use xlink:href="#mfe3a24f32c" x="165.862887" y="270.684405" style="fill-opacity: 0.3"/>
     <use xlink:href="#mfe3a24f32c" x="148.998394" y="261.903253" style="fill-opacity: 0.3"/>
     <use xlink:href="#mfe3a24f32c" x="151.514669" y="272.66926" style="fill-opacity: 0.3"/>
    </g>
   </g>
   <g id="PathCollection_2">
    <g clip-path="url(#pc677bb0ef9)">
     <use xlink:href="#mfe3a24f32c" x="307.301288" y="271.767467" style="fill-opacity: 0.3"/>
     <use xlink:href="#mfe3a24f32c" x="286.73001" y="274.533346" style="fill-opacity: 0.3"/>
     <use xlink:href="#mfe3a24f32c" x="303.580289" y="272.610185" style="fill-opacity: 0.3"/>
     <use xlink:href="#mfe3a24f32c" x="301.465882" y="267.225053" style="fill-opacity: 0.3"/>
     <use xlink:href="#mfe3a24f32c" x="308.546364" y="273.104068" style="fill-opacity: 0.3"/>
     <use xlink:href="#mfe3a24f32c" x="308.97739" y="272.58927" style="fill-opacity: 0.3"/>
     <use xlink:href="#mfe3a24f32c" x="305.27415" y="271.943396" style="fill-opacity: 0.3"/>
     <use xlink:href="#mfe3a24f32c" x="305.886504" y="272.637788" style="fill-opacity: 0.3"/>
     <use xlink:href="#mfe3a24f32c" x="293.391992" y="272.87395" style="fill-opacity: 0.3"/>
     <use xlink:href="#mfe3a24f32c" x="299.065572" y="273.13511" style="fill-opacity: 0.3"/>
     <use xlink:href="#mfe3a24f32c" x="311.524183" y="265.043947" style="fill-opacity: 0.3"/>
     <use xlink:href="#mfe3a24f32c" x="308.938363" y="268.595994" style="fill-opacity: 0.3"/>
     <use xlink:href="#mfe3a24f32c" x="305.22182" y="267.009329" style="fill-opacity: 0.3"/>
     <use xlink:href="#mfe3a24f32c" x="295.252802" y="262.103256" style="fill-opacity: 0.3"/>
     <use xlink:href="#mfe3a24f32c" x="312.604167" y="192.829056" style="fill-opacity: 0.3"/>
     <use xlink:href="#mfe3a24f32c" x="297.822562" y="256.685326" style="fill-opacity: 0.3"/>
     <use xlink:href="#mfe3a24f32c" x="308.967002" y="245.577897" style="fill-opacity: 0.3"/>
     <use xlink:href="#mfe3a24f32c" x="299.658962" y="259.019164" style="fill-opacity: 0.3"/>
     <use xlink:href="#mfe3a24f32c" x="289.562622" y="202.169003" style="fill-opacity: 0.3"/>
     <use xlink:href="#mfe3a24f32c" x="285.562761" y="215.123405" style="fill-opacity: 0.3"/>
     <use xlink:href="#mfe3a24f32c" x="308.016413" y="132.231607" style="fill-opacity: 0.3"/>
     <use xlink:href="#mfe3a24f32c" x="296.952636" y="200.905006" style="fill-opacity: 0.3"/>
     <use xlink:href="#mfe3a24f32c" x="311.526393" y="259.166957" style="fill-opacity: 0.3"/>
     <use xlink:href="#mfe3a24f32c" x="311.959218" y="234.363386" style="fill-opacity: 0.3"/>
     <use xlink:href="#mfe3a24f32c" x="297.277655" y="245.217381" style="fill-opacity: 0.3"/>
     <use xlink:href="#mfe3a24f32c" x="288.337521" y="210.375686" style="fill-opacity: 0.3"/>
     <use xlink:href="#mfe3a24f32c" x="298.351116" y="242.617601" style="fill-opacity: 0.3"/>
     <use xlink:href="#mfe3a24f32c" x="303.204231" y="266.676693" style="fill-opacity: 0.3"/>
     <use xlink:href="#mfe3a24f32c" x="293.547644" y="255.214052" style="fill-opacity: 0.3"/>
     <use xlink:href="#mfe3a24f32c" x="306.27208" y="251.172288" style="fill-opacity: 0.3"/>
     <use xlink:href="#mfe3a24f32c" x="295.330132" y="262.0993" style="fill-opacity: 0.3"/>
     <use xlink:href="#mfe3a24f32c" x="308.674599" y="259.670133" style="fill-opacity: 0.3"/>
     <use xlink:href="#mfe3a24f32c" x="288.627519" y="267.638027" style="fill-opacity: 0.3"/>
     <use xlink:href="#mfe3a24f32c" x="290.652546" y="273.448119" style="fill-opacity: 0.3"/>
     <use xlink:href="#mfe3a24f32c" x="287.747001" y="234.620514" style="fill-opacity: 0.3"/>
     <use xlink:href="#mfe3a24f32c" x="312.443353" y="272.580719" style="fill-opacity: 0.3"/>
     <use xlink:href="#mfe3a24f32c" x="290.928672" y="80.36092" style="fill-opacity: 0.3"/>
     <use xlink:href="#mfe3a24f32c" x="294.482843" y="243.166038" style="fill-opacity: 0.3"/>
     <use xlink:href="#mfe3a24f32c" x="292.793115" y="257.192067" style="fill-opacity: 0.3"/>
     <use xlink:href="#mfe3a24f32c" x="288.06973" y="236.223632" style="fill-opacity: 0.3"/>
     <use xlink:href="#mfe3a24f32c" x="301.443217" y="233.258293" style="fill-opacity: 0.3"/>
     <use xlink:href="#mfe3a24f32c" x="304.283537" y="258.911032" style="fill-opacity: 0.3"/>
     <use xlink:href="#mfe3a24f32c" x="289.024226" y="255.455976" style="fill-opacity: 0.3"/>
     <use xlink:href="#mfe3a24f32c" x="291.108367" y="259.382604" style="fill-opacity: 0.3"/>
     <use xlink:href="#mfe3a24f32c" x="304.276547" y="268.147888" style="fill-opacity: 0.3"/>
     <use xlink:href="#mfe3a24f32c" x="288.833142" y="248.027465" style="fill-opacity: 0.3"/>
     <use xlink:href="#mfe3a24f32c" x="311.402825" y="267.511211" style="fill-opacity: 0.3"/>
     <use xlink:href="#mfe3a24f32c" x="295.279547" y="271.332135" style="fill-opacity: 0.3"/>
     <use xlink:href="#mfe3a24f32c" x="289.765984" y="273.241206" style="fill-opacity: 0.3"/>
     <use xlink:href="#mfe3a24f32c" x="288.296267" y="272.596812" style="fill-opacity: 0.3"/>
     <use xlink:href="#mfe3a24f32c" x="291.423626" y="271.447546" style="fill-opacity: 0.3"/>
     <use xlink:href="#mfe3a24f32c" x="298.431179" y="272.481258" style="fill-opacity: 0.3"/>
     <use xlink:href="#mfe3a24f32c" x="292.812498" y="272.458589" style="fill-opacity: 0.3"/>
     <use xlink:href="#mfe3a24f32c" x="290.169619" y="264.59808" style="fill-opacity: 0.3"/>
     <use xlink:href="#mfe3a24f32c" x="310.595689" y="271.833915" style="fill-opacity: 0.3"/>
     <use xlink:href="#mfe3a24f32c" x="306.178682" y="271.020951" style="fill-opacity: 0.3"/>
     <use xlink:href="#mfe3a24f32c" x="304.78648" y="272.829596" style="fill-opacity: 0.3"/>
     <use xlink:href="#mfe3a24f32c" x="309.930508" y="273.682554" style="fill-opacity: 0.3"/>
     <use xlink:href="#mfe3a24f32c" x="287.610142" y="274.069861" style="fill-opacity: 0.3"/>
     <use xlink:href="#mfe3a24f32c" x="292.510187" y="268.195123" style="fill-opacity: 0.3"/>
     <use xlink:href="#mfe3a24f32c" x="312.343091" y="271.155382" style="fill-opacity: 0.3"/>
     <use xlink:href="#mfe3a24f32c" x="299.791167" y="273.417024" style="fill-opacity: 0.3"/>
     <use xlink:href="#mfe3a24f32c" x="297.846582" y="259.186839" style="fill-opacity: 0.3"/>
     <use xlink:href="#mfe3a24f32c" x="294.110293" y="272.696112" style="fill-opacity: 0.3"/>
     <use xlink:href="#mfe3a24f32c" x="295.558768" y="268.459277" style="fill-opacity: 0.3"/>
     <use xlink:href="#mfe3a24f32c" x="305.542299" y="267.294284" style="fill-opacity: 0.3"/>
     <use xlink:href="#mfe3a24f32c" x="290.885269" y="263.14405" style="fill-opacity: 0.3"/>
     <use xlink:href="#mfe3a24f32c" x="299.530383" y="273.842075" style="fill-opacity: 0.3"/>
     <use xlink:href="#mfe3a24f32c" x="298.104093" y="259.428498" style="fill-opacity: 0.3"/>
     <use xlink:href="#mfe3a24f32c" x="303.127693" y="257.119419" style="fill-opacity: 0.3"/>
     <use xlink:href="#mfe3a24f32c" x="290.94218" y="266.362898" style="fill-opacity: 0.3"/>
     <use xlink:href="#mfe3a24f32c" x="294.957755" y="270.755534" style="fill-opacity: 0.3"/>
     <use xlink:href="#mfe3a24f32c" x="297.748585" y="270.568155" style="fill-opacity: 0.3"/>
     <use xlink:href="#mfe3a24f32c" x="301.115389" y="273.295218" style="fill-opacity: 0.3"/>
     <use xlink:href="#mfe3a24f32c" x="299.405371" y="270.151317" style="fill-opacity: 0.3"/>
     <use xlink:href="#mfe3a24f32c" x="306.63147" y="264.763148" style="fill-opacity: 0.3"/>
     <use xlink:href="#mfe3a24f32c" x="311.570153" y="266.818147" style="fill-opacity: 0.3"/>
     <use xlink:href="#mfe3a24f32c" x="304.74751" y="265.645673" style="fill-opacity: 0.3"/>
     <use xlink:href="#mfe3a24f32c" x="311.905067" y="256.522015" style="fill-opacity: 0.3"/>
     <use xlink:href="#mfe3a24f32c" x="294.060883" y="272.693013" style="fill-opacity: 0.3"/>
     <use xlink:href="#mfe3a24f32c" x="289.737768" y="271.225887" style="fill-opacity: 0.3"/>
     <use xlink:href="#mfe3a24f32c" x="299.41463" y="209.123448" style="fill-opacity: 0.3"/>
     <use xlink:href="#mfe3a24f32c" x="311.102792" y="269.952295" style="fill-opacity: 0.3"/>
     <use xlink:href="#mfe3a24f32c" x="307.273468" y="270.882681" style="fill-opacity: 0.3"/>
     <use xlink:href="#mfe3a24f32c" x="289.908723" y="270.280472" style="fill-opacity: 0.3"/>
     <use xlink:href="#mfe3a24f32c" x="296.728879" y="270.946508" style="fill-opacity: 0.3"/>
    </g>
   </g>
   <g id="PathCollection_3">
    <g clip-path="url(#pc677bb0ef9)">
     <use xlink:href="#mfe3a24f32c" x="435.461886" y="214.185365" style="fill-opacity: 0.3"/>
     <use xlink:href="#mfe3a24f32c" x="428.987641" y="267.833958" style="fill-opacity: 0.3"/>
     <use xlink:href="#mfe3a24f32c" x="444.77027" y="248.065019" style="fill-opacity: 0.3"/>
     <use xlink:href="#mfe3a24f32c" x="449.406669" y="267.463641" style="fill-opacity: 0.3"/>
     <use xlink:href="#mfe3a24f32c" x="428.097946" y="207.750792" style="fill-opacity: 0.3"/>
     <use xlink:href="#mfe3a24f32c" x="451.670921" y="216.51485" style="fill-opacity: 0.3"/>
     <use xlink:href="#mfe3a24f32c" x="444.419009" y="199.696939" style="fill-opacity: 0.3"/>
     <use xlink:href="#mfe3a24f32c" x="449.769457" y="273.628474" style="fill-opacity: 0.3"/>
     <use xlink:href="#mfe3a24f32c" x="427.421143" y="272.732705" style="fill-opacity: 0.3"/>
     <use xlink:href="#mfe3a24f32c" x="439.152144" y="272.776702" style="fill-opacity: 0.3"/>
     <use xlink:href="#mfe3a24f32c" x="440.613939" y="273.723253" style="fill-opacity: 0.3"/>
     <use xlink:href="#mfe3a24f32c" x="443.261367" y="270.503744" style="fill-opacity: 0.3"/>
     <use xlink:href="#mfe3a24f32c" x="449.987629" y="268.582086" style="fill-opacity: 0.3"/>
     <use xlink:href="#mfe3a24f32c" x="445.448186" y="270.205213" style="fill-opacity: 0.3"/>
     <use xlink:href="#mfe3a24f32c" x="437.939413" y="217.351253" style="fill-opacity: 0.3"/>
     <use xlink:href="#mfe3a24f32c" x="438.194999" y="181.435233" style="fill-opacity: 0.3"/>
     <use xlink:href="#mfe3a24f32c" x="444.075482" y="254.912163" style="fill-opacity: 0.3"/>
     <use xlink:href="#mfe3a24f32c" x="426.705511" y="261.136321" style="fill-opacity: 0.3"/>
     <use xlink:href="#mfe3a24f32c" x="436.637166" y="237.356282" style="fill-opacity: 0.3"/>
     <use xlink:href="#mfe3a24f32c" x="427.505893" y="270.228795" style="fill-opacity: 0.3"/>
     <use xlink:href="#mfe3a24f32c" x="447.766958" y="265.385864" style="fill-opacity: 0.3"/>
     <use xlink:href="#mfe3a24f32c" x="452.420416" y="266.194846" style="fill-opacity: 0.3"/>
     <use xlink:href="#mfe3a24f32c" x="447.418582" y="273.859708" style="fill-opacity: 0.3"/>
     <use xlink:href="#mfe3a24f32c" x="438.340653" y="271.907727" style="fill-opacity: 0.3"/>
     <use xlink:href="#mfe3a24f32c" x="426.549137" y="272.856188" style="fill-opacity: 0.3"/>
     <use xlink:href="#mfe3a24f32c" x="449.537977" y="272.383316" style="fill-opacity: 0.3"/>
     <use xlink:href="#mfe3a24f32c" x="451.02283" y="266.294097" style="fill-opacity: 0.3"/>
     <use xlink:href="#mfe3a24f32c" x="441.325943" y="273.763974" style="fill-opacity: 0.3"/>
     <use xlink:href="#mfe3a24f32c" x="425.521543" y="272.417935" style="fill-opacity: 0.3"/>
     <use xlink:href="#mfe3a24f32c" x="451.935056" y="267.193565" style="fill-opacity: 0.3"/>
     <use xlink:href="#mfe3a24f32c" x="444.526097" y="270.405991" style="fill-opacity: 0.3"/>
     <use xlink:href="#mfe3a24f32c" x="425.176836" y="271.515365" style="fill-opacity: 0.3"/>
     <use xlink:href="#mfe3a24f32c" x="430.803838" y="272.523821" style="fill-opacity: 0.3"/>
     <use xlink:href="#mfe3a24f32c" x="429.389924" y="274.604237" style="fill-opacity: 0.3"/>
     <use xlink:href="#mfe3a24f32c" x="436.39891" y="268.156457" style="fill-opacity: 0.3"/>
     <use xlink:href="#mfe3a24f32c" x="450.362266" y="262.812981" style="fill-opacity: 0.3"/>
     <use xlink:href="#mfe3a24f32c" x="441.127823" y="270.410662" style="fill-opacity: 0.3"/>
     <use xlink:href="#mfe3a24f32c" x="445.44714" y="269.07725" style="fill-opacity: 0.3"/>
     <use xlink:href="#mfe3a24f32c" x="424.827093" y="265.083423" style="fill-opacity: 0.3"/>
     <use xlink:href="#mfe3a24f32c" x="430.322319" y="267.276772" style="fill-opacity: 0.3"/>
     <use xlink:href="#mfe3a24f32c" x="452.527845" y="272.657359" style="fill-opacity: 0.3"/>
     <use xlink:href="#mfe3a24f32c" x="425.552678" y="274.014754" style="fill-opacity: 0.3"/>
     <use xlink:href="#mfe3a24f32c" x="446.63353" y="272.34583" style="fill-opacity: 0.3"/>
     <use xlink:href="#mfe3a24f32c" x="426.539021" y="272.484776" style="fill-opacity: 0.3"/>
     <use xlink:href="#mfe3a24f32c" x="446.648371" y="267.795445" style="fill-opacity: 0.3"/>
    </g>
   </g>
   <g id="PathCollection_4">
    <g clip-path="url(#pc677bb0ef9)">
     <use xlink:href="#mfe3a24f32c" x="575.959189" y="242.626905" style="fill-opacity: 0.3"/>
     <use xlink:href="#mfe3a24f32c" x="587.927647" y="270.668777" style="fill-opacity: 0.3"/>
     <use xlink:href="#mfe3a24f32c" x="581.840246" y="273.60801" style="fill-opacity: 0.3"/>
     <use xlink:href="#mfe3a24f32c" x="587.67697" y="257.323681" style="fill-opacity: 0.3"/>
     <use xlink:href="#mfe3a24f32c" x="587.359842" y="270.544543" style="fill-opacity: 0.3"/>
     <use xlink:href="#mfe3a24f32c" x="566.895027" y="268.921332" style="fill-opacity: 0.3"/>
     <use xlink:href="#mfe3a24f32c" x="579.261295" y="273.239967" style="fill-opacity: 0.3"/>
     <use xlink:href="#mfe3a24f32c" x="578.531746" y="269.866731" style="fill-opacity: 0.3"/>
     <use xlink:href="#mfe3a24f32c" x="584.179285" y="268.092546" style="fill-opacity: 0.3"/>
     <use xlink:href="#mfe3a24f32c" x="580.004223" y="263.553335" style="fill-opacity: 0.3"/>
     <use xlink:href="#mfe3a24f32c" x="570.624331" y="249.89374" style="fill-opacity: 0.3"/>
     <use xlink:href="#mfe3a24f32c" x="588.858888" y="259.475912" style="fill-opacity: 0.3"/>
     <use xlink:href="#mfe3a24f32c" x="574.280391" y="273.049683" style="fill-opacity: 0.3"/>
     <use xlink:href="#mfe3a24f32c" x="578.439968" y="259.737048" style="fill-opacity: 0.3"/>
     <use xlink:href="#mfe3a24f32c" x="572.267582" y="238.586606" style="fill-opacity: 0.3"/>
     <use xlink:href="#mfe3a24f32c" x="569.375011" y="257.673673" style="fill-opacity: 0.3"/>
     <use xlink:href="#mfe3a24f32c" x="588.908057" y="227.918046" style="fill-opacity: 0.3"/>
     <use xlink:href="#mfe3a24f32c" x="586.320051" y="252.903206" style="fill-opacity: 0.3"/>
     <use xlink:href="#mfe3a24f32c" x="585.26345" y="229.924949" style="fill-opacity: 0.3"/>
     <use xlink:href="#mfe3a24f32c" x="572.989119" y="248.711081" style="fill-opacity: 0.3"/>
     <use xlink:href="#mfe3a24f32c" x="583.80123" y="250.843302" style="fill-opacity: 0.3"/>
     <use xlink:href="#mfe3a24f32c" x="574.691892" y="242.493527" style="fill-opacity: 0.3"/>
     <use xlink:href="#mfe3a24f32c" x="583.180719" y="265.496735" style="fill-opacity: 0.3"/>
     <use xlink:href="#mfe3a24f32c" x="569.997266" y="256.713964" style="fill-opacity: 0.3"/>
     <use xlink:href="#mfe3a24f32c" x="577.039799" y="201.045826" style="fill-opacity: 0.3"/>
     <use xlink:href="#mfe3a24f32c" x="569.246419" y="210.437041" style="fill-opacity: 0.3"/>
     <use xlink:href="#mfe3a24f32c" x="578.675475" y="249.6478" style="fill-opacity: 0.3"/>
     <use xlink:href="#mfe3a24f32c" x="584.62979" y="236.244139" style="fill-opacity: 0.3"/>
     <use xlink:href="#mfe3a24f32c" x="592.167016" y="273.521266" style="fill-opacity: 0.3"/>
     <use xlink:href="#mfe3a24f32c" x="565.442832" y="258.228468" style="fill-opacity: 0.3"/>
     <use xlink:href="#mfe3a24f32c" x="572.137354" y="210.085191" style="fill-opacity: 0.3"/>
     <use xlink:href="#mfe3a24f32c" x="570.947868" y="104.831864" style="fill-opacity: 0.3"/>
     <use xlink:href="#mfe3a24f32c" x="572.302486" y="98.100098" style="fill-opacity: 0.3"/>
     <use xlink:href="#mfe3a24f32c" x="586.359474" y="104.629102" style="fill-opacity: 0.3"/>
     <use xlink:href="#mfe3a24f32c" x="582.931224" y="242.133732" style="fill-opacity: 0.3"/>
     <use xlink:href="#mfe3a24f32c" x="584.546959" y="249.940386" style="fill-opacity: 0.3"/>
     <use xlink:href="#mfe3a24f32c" x="588.759193" y="247.302225" style="fill-opacity: 0.3"/>
     <use xlink:href="#mfe3a24f32c" x="591.790405" y="231.927378" style="fill-opacity: 0.3"/>
     <use xlink:href="#mfe3a24f32c" x="585.97932" y="231.565416" style="fill-opacity: 0.3"/>
     <use xlink:href="#mfe3a24f32c" x="576.955082" y="273.119584" style="fill-opacity: 0.3"/>
     <use xlink:href="#mfe3a24f32c" x="592.066215" y="242.264622" style="fill-opacity: 0.3"/>
     <use xlink:href="#mfe3a24f32c" x="566.689234" y="254.717307" style="fill-opacity: 0.3"/>
     <use xlink:href="#mfe3a24f32c" x="584.290666" y="244.609879" style="fill-opacity: 0.3"/>
     <use xlink:href="#mfe3a24f32c" x="576.697547" y="194.096672" style="fill-opacity: 0.3"/>
     <use xlink:href="#mfe3a24f32c" x="577.982862" y="222.642866" style="fill-opacity: 0.3"/>
     <use xlink:href="#mfe3a24f32c" x="564.328877" y="172.424254" style="fill-opacity: 0.3"/>
     <use xlink:href="#mfe3a24f32c" x="587.03171" y="227.076518" style="fill-opacity: 0.3"/>
     <use xlink:href="#mfe3a24f32c" x="571.247054" y="176.648297" style="fill-opacity: 0.3"/>
     <use xlink:href="#mfe3a24f32c" x="581.560015" y="247.088832" style="fill-opacity: 0.3"/>
     <use xlink:href="#mfe3a24f32c" x="587.440259" y="251.733542" style="fill-opacity: 0.3"/>
     <use xlink:href="#mfe3a24f32c" x="579.1857" y="238.397418" style="fill-opacity: 0.3"/>
     <use xlink:href="#mfe3a24f32c" x="580.17018" y="258.889855" style="fill-opacity: 0.3"/>
     <use xlink:href="#mfe3a24f32c" x="588.958841" y="274.230772" style="fill-opacity: 0.3"/>
     <use xlink:href="#mfe3a24f32c" x="576.172205" y="254.221148" style="fill-opacity: 0.3"/>
     <use xlink:href="#mfe3a24f32c" x="591.045774" y="274.808318" style="fill-opacity: 0.3"/>
     <use xlink:href="#mfe3a24f32c" x="584.127333" y="272.965068" style="fill-opacity: 0.3"/>
     <use xlink:href="#mfe3a24f32c" x="586.121665" y="269.596257" style="fill-opacity: 0.3"/>
     <use xlink:href="#mfe3a24f32c" x="577.495361" y="270.98489" style="fill-opacity: 0.3"/>
     <use xlink:href="#mfe3a24f32c" x="591.890218" y="266.92056" style="fill-opacity: 0.3"/>
     <use xlink:href="#mfe3a24f32c" x="573.891006" y="264.69063" style="fill-opacity: 0.3"/>
     <use xlink:href="#mfe3a24f32c" x="586.597256" y="258.139055" style="fill-opacity: 0.3"/>
     <use xlink:href="#mfe3a24f32c" x="572.402608" y="268.814517" style="fill-opacity: 0.3"/>
     <use xlink:href="#mfe3a24f32c" x="586.114954" y="221.300356" style="fill-opacity: 0.3"/>
     <use xlink:href="#mfe3a24f32c" x="584.08246" y="271.020475" style="fill-opacity: 0.3"/>
     <use xlink:href="#mfe3a24f32c" x="579.21566" y="260.056791" style="fill-opacity: 0.3"/>
     <use xlink:href="#mfe3a24f32c" x="564.856197" y="269.424554" style="fill-opacity: 0.3"/>
     <use xlink:href="#mfe3a24f32c" x="579.507806" y="195.569154" style="fill-opacity: 0.3"/>
     <use xlink:href="#mfe3a24f32c" x="572.713688" y="251.963085" style="fill-opacity: 0.3"/>
    </g>
   </g>
  </g>
 </g>
 <defs>
  <clipPath id="pc677bb0ef9">
   <rect x="90" y="43.2" width="558" height="277.2"/>
  </clipPath>
 </defs>
</svg>
