<?xml version="1.0" encoding="utf-8" standalone="no"?>
<!DOCTYPE svg PUBLIC "-//W3C//DTD SVG 1.1//EN"
  "http://www.w3.org/Graphics/SVG/1.1/DTD/svg11.dtd">
<svg xmlns:xlink="http://www.w3.org/1999/xlink" width="720pt" height="360pt" viewBox="0 0 720 360" xmlns="http://www.w3.org/2000/svg" version="1.1">
 <metadata>
  <rdf:RDF xmlns:dc="http://purl.org/dc/elements/1.1/" xmlns:cc="http://creativecommons.org/ns#" xmlns:rdf="http://www.w3.org/1999/02/22-rdf-syntax-ns#">
   <cc:Work>
    <dc:type rdf:resource="http://purl.org/dc/dcmitype/StillImage"/>
    <dc:date>2025-09-12T09:55:06.214978</dc:date>
    <dc:format>image/svg+xml</dc:format>
    <dc:creator>
     <cc:Agent>
      <dc:title>Matplotlib v3.10.3, https://matplotlib.org/</dc:title>
     </cc:Agent>
    </dc:creator>
   </cc:Work>
  </rdf:RDF>
 </metadata>
 <defs>
  <style type="text/css">*{stroke-linejoin: round; stroke-linecap: butt}</style>
 </defs>
 <g id="figure_1">
  <g id="patch_1">
   <path d="M 0 360 
L 720 360 
L 720 0 
L 0 0 
z
" style="fill: #ffffff"/>
  </g>
  <g id="axes_1">
   <g id="patch_2">
    <path d="M 90 320.4 
L 648 320.4 
L 648 43.2 
L 90 43.2 
z
" style="fill: #ffffff"/>
   </g>
   <g id="FillBetweenPolyCollection_1">
    <defs>
     <path id="m5988d4b81c" d="M 160.570628 -69.587469 
L 158.929372 -69.587469 
L 158.686276 -70.665237 
L 158.38507 -71.743004 
L 158.015909 -72.820772 
L 157.568283 -73.898539 
L 157.031192 -74.976307 
L 156.393364 -76.054074 
L 155.643514 -77.131842 
L 154.770643 -78.209609 
L 153.764357 -79.287377 
L 152.615215 -80.365144 
L 151.315096 -81.442912 
L 149.857575 -82.520679 
L 148.238306 -83.598447 
L 146.455409 -84.676214 
L 144.509864 -85.753982 
L 142.405884 -86.831749 
L 140.15128 -87.909517 
L 137.757784 -88.987284 
L 135.24132 -90.065052 
L 132.622189 -91.142819 
L 129.925124 -92.220587 
L 127.179213 -93.298355 
L 124.41761 -94.376122 
L 121.677051 -95.45389 
L 118.997127 -96.531657 
L 116.419339 -97.609425 
L 113.985934 -98.687192 
L 111.738583 -99.76496 
L 109.716947 -100.842727 
L 107.957219 -101.920495 
L 106.490722 -102.998262 
L 105.342657 -104.07603 
L 104.531087 -105.153797 
L 104.066211 -106.231565 
L 103.95 -107.309332 
L 104.176182 -108.3871 
L 104.730603 -109.464867 
L 105.591903 -110.542635 
L 106.732465 -111.620402 
L 108.119577 -112.69817 
L 109.716703 -113.775937 
L 111.484828 -114.853705 
L 113.383778 -115.931472 
L 115.373482 -117.00924 
L 117.415124 -118.087007 
L 119.472179 -119.164775 
L 121.511287 -120.242542 
L 123.502994 -121.32031 
L 125.422323 -122.398077 
L 127.24919 -123.475845 
L 128.968647 -124.553612 
L 130.570944 -125.63138 
L 132.051393 -126.709147 
L 133.410036 -127.786915 
L 134.651108 -128.864682 
L 135.782311 -129.94245 
L 136.813927 -131.020217 
L 137.757825 -132.097985 
L 138.626407 -133.175752 
L 139.431593 -134.25352 
L 140.18391 -135.331287 
L 140.891763 -136.409055 
L 141.560965 -137.486822 
L 142.194567 -138.56459 
L 142.793005 -139.642357 
L 143.354549 -140.720125 
L 143.876017 -141.797893 
L 144.353666 -142.87566 
L 144.784179 -143.953428 
L 145.165627 -145.031195 
L 145.498306 -146.108963 
L 145.785343 -147.18673 
L 146.033012 -148.264498 
L 146.250706 -149.342265 
L 146.450557 -150.420033 
L 146.646747 -151.4978 
L 146.854574 -152.575568 
L 147.08935 -153.653335 
L 147.365256 -154.731103 
L 147.694264 -155.80887 
L 148.085217 -156.886638 
L 148.543168 -157.964405 
L 149.069016 -159.042173 
L 149.659487 -160.11994 
L 150.307422 -161.197708 
L 151.002351 -162.275475 
L 151.731287 -163.353243 
L 152.479646 -164.43101 
L 153.232223 -165.508778 
L 153.974121 -166.586545 
L 154.691587 -167.664313 
L 155.372673 -168.74208 
L 156.007707 -169.819848 
L 156.589554 -170.897615 
L 157.113679 -171.975383 
L 157.578034 -173.05315 
L 157.982805 -174.130918 
L 158.330059 -175.208685 
L 158.623343 -176.286453 
L 160.876657 -176.286453 
L 160.876657 -176.286453 
L 161.169941 -175.208685 
L 161.517195 -174.130918 
L 161.921966 -173.05315 
L 162.386321 -171.975383 
L 162.910446 -170.897615 
L 163.492293 -169.819848 
L 164.127327 -168.74208 
L 164.808413 -167.664313 
L 165.525879 -166.586545 
L 166.267777 -165.508778 
L 167.020354 -164.43101 
L 167.768713 -163.353243 
L 168.497649 -162.275475 
L 169.192578 -161.197708 
L 169.840513 -160.11994 
L 170.430984 -159.042173 
L 170.956832 -157.964405 
L 171.414783 -156.886638 
L 171.805736 -155.80887 
L 172.134744 -154.731103 
L 172.41065 -153.653335 
L 172.645426 -152.575568 
L 172.853253 -151.4978 
L 173.049443 -150.420033 
L 173.249294 -149.342265 
L 173.466988 -148.264498 
L 173.714657 -147.18673 
L 174.001694 -146.108963 
L 174.334373 -145.031195 
L 174.715821 -143.953428 
L 175.146334 -142.87566 
L 175.623983 -141.797893 
L 176.145451 -140.720125 
L 176.706995 -139.642357 
L 177.305433 -138.56459 
L 177.939035 -137.486822 
L 178.608237 -136.409055 
L 179.31609 -135.331287 
L 180.068407 -134.25352 
L 180.873593 -133.175752 
L 181.742175 -132.097985 
L 182.686073 -131.020217 
L 183.717689 -129.94245 
L 184.848892 -128.864682 
L 186.089964 -127.786915 
L 187.448607 -126.709147 
L 188.929056 -125.63138 
L 190.531353 -124.553612 
L 192.25081 -123.475845 
L 194.077677 -122.398077 
L 195.997006 -121.32031 
L 197.988713 -120.242542 
L 200.027821 -119.164775 
L 202.084876 -118.087007 
L 204.126518 -117.00924 
L 206.116222 -115.931472 
L 208.015172 -114.853705 
L 209.783297 -113.775937 
L 211.380423 -112.69817 
L 212.767535 -111.620402 
L 213.908097 -110.542635 
L 214.769397 -109.464867 
L 215.323818 -108.3871 
L 215.55 -107.309332 
L 215.433789 -106.231565 
L 214.968913 -105.153797 
L 214.157343 -104.07603 
L 213.009278 -102.998262 
L 211.542781 -101.920495 
L 209.783053 -100.842727 
L 207.761417 -99.76496 
L 205.514066 -98.687192 
L 203.080661 -97.609425 
L 200.502873 -96.531657 
L 197.822949 -95.45389 
L 195.08239 -94.376122 
L 192.320787 -93.298355 
L 189.574876 -92.220587 
L 186.877811 -91.142819 
L 184.25868 -90.065052 
L 181.742216 -88.987284 
L 179.34872 -87.909517 
L 177.094116 -86.831749 
L 174.990136 -85.753982 
L 173.044591 -84.676214 
L 171.261694 -83.598447 
L 169.642425 -82.520679 
L 168.184904 -81.442912 
L 166.884785 -80.365144 
L 165.735643 -79.287377 
L 164.729357 -78.209609 
L 163.856486 -77.131842 
L 163.106636 -76.054074 
L 162.468808 -74.976307 
L 161.931717 -73.898539 
L 161.484091 -72.820772 
L 161.11493 -71.743004 
L 160.813724 -70.665237 
L 160.570628 -69.587469 
z
" style="stroke: #3d3d3d; stroke-width: 1.25"/>
    </defs>
    <g clip-path="url(#pfc43b91391)">
     <use xlink:href="#m5988d4b81c" x="0" y="360" style="fill: #3274a1; stroke: #3d3d3d; stroke-width: 1.25"/>
    </g>
   </g>
   <g id="FillBetweenPolyCollection_2">
    <defs>
     <path id="m91d9cd26fc" d="M 300.166451 -74.992982 
L 298.333549 -74.992982 
L 297.89194 -76.524965 
L 297.287992 -78.056947 
L 296.485232 -79.588929 
L 295.447868 -81.120912 
L 294.144049 -82.652894 
L 292.54935 -84.184876 
L 290.649919 -85.716859 
L 288.44475 -87.248841 
L 285.946599 -88.780823 
L 283.181343 -90.312806 
L 280.18592 -91.844788 
L 277.005351 -93.376771 
L 273.689614 -94.908753 
L 270.291144 -96.440735 
L 266.863562 -97.972718 
L 263.46176 -99.5047 
L 260.142912 -101.036682 
L 256.967543 -102.568665 
L 253.999571 -104.100647 
L 251.304419 -105.632629 
L 248.944871 -107.164612 
L 246.975116 -108.696594 
L 245.434173 -110.228577 
L 244.340354 -111.760559 
L 243.688351 -113.292541 
L 243.45 -114.824524 
L 243.578796 -116.356506 
L 244.017227 -117.888488 
L 244.705221 -119.420471 
L 245.58772 -120.952453 
L 246.619742 -122.484435 
L 247.768131 -124.016418 
L 249.010187 -125.5484 
L 250.330325 -127.080383 
L 251.716345 -128.612365 
L 253.156815 -130.144347 
L 254.640489 -131.67633 
L 256.157768 -133.208312 
L 257.703389 -134.740294 
L 259.278995 -136.272277 
L 260.894216 -137.804259 
L 262.565334 -139.336241 
L 264.311416 -140.868224 
L 266.148635 -142.400206 
L 268.084137 -143.932189 
L 270.111063 -145.464171 
L 272.206114 -146.996153 
L 274.330435 -148.528136 
L 276.433811 -150.060118 
L 278.461361 -151.5921 
L 280.361393 -153.124083 
L 282.092827 -154.656065 
L 283.630802 -156.188047 
L 284.969463 -157.72003 
L 286.121603 -159.252012 
L 287.115428 -160.783995 
L 287.989225 -162.315977 
L 288.785024 -163.847959 
L 289.54239 -165.379942 
L 290.293325 -166.911924 
L 291.058938 -168.443906 
L 291.848153 -169.975889 
L 292.658372 -171.507871 
L 293.477661 -173.039853 
L 294.28791 -174.571836 
L 295.068308 -176.103818 
L 295.798565 -177.635801 
L 296.461458 -179.167783 
L 297.044436 -180.699765 
L 297.540259 -182.231748 
L 297.946764 -183.76373 
L 298.265991 -185.295712 
L 298.50297 -186.827695 
L 298.66444 -188.359677 
L 298.757779 -189.891659 
L 298.790289 -191.423642 
L 298.768933 -192.955624 
L 298.700495 -194.487607 
L 298.592054 -196.019589 
L 298.45158 -197.551571 
L 298.288461 -199.083554 
L 298.113733 -200.615536 
L 297.939897 -202.147518 
L 297.780236 -203.679501 
L 297.647728 -205.211483 
L 297.553709 -206.743465 
L 297.506543 -208.275448 
L 297.510566 -209.80743 
L 297.565536 -211.339413 
L 297.666716 -212.871395 
L 297.805583 -214.403377 
L 297.971032 -215.93536 
L 298.150845 -217.467342 
L 298.333168 -218.999324 
L 298.507748 -220.531307 
L 298.666765 -222.063289 
L 298.805198 -223.595271 
L 298.920754 -225.127254 
L 299.013459 -226.659236 
L 299.486541 -226.659236 
L 299.486541 -226.659236 
L 299.579246 -225.127254 
L 299.694802 -223.595271 
L 299.833235 -222.063289 
L 299.992252 -220.531307 
L 300.166832 -218.999324 
L 300.349155 -217.467342 
L 300.528968 -215.93536 
L 300.694417 -214.403377 
L 300.833284 -212.871395 
L 300.934464 -211.339413 
L 300.989434 -209.80743 
L 300.993457 -208.275448 
L 300.946291 -206.743465 
L 300.852272 -205.211483 
L 300.719764 -203.679501 
L 300.560103 -202.147518 
L 300.386267 -200.615536 
L 300.211539 -199.083554 
L 300.04842 -197.551571 
L 299.907946 -196.019589 
L 299.799505 -194.487607 
L 299.731067 -192.955624 
L 299.709711 -191.423642 
L 299.742221 -189.891659 
L 299.83556 -188.359677 
L 299.99703 -186.827695 
L 300.234009 -185.295712 
L 300.553236 -183.76373 
L 300.959741 -182.231748 
L 301.455564 -180.699765 
L 302.038542 -179.167783 
L 302.701435 -177.635801 
L 303.431692 -176.103818 
L 304.21209 -174.571836 
L 305.022339 -173.039853 
L 305.841628 -171.507871 
L 306.651847 -169.975889 
L 307.441062 -168.443906 
L 308.206675 -166.911924 
L 308.95761 -165.379942 
L 309.714976 -163.847959 
L 310.510775 -162.315977 
L 311.384572 -160.783995 
L 312.378397 -159.252012 
L 313.530537 -157.72003 
L 314.869198 -156.188047 
L 316.407173 -154.656065 
L 318.138607 -153.124083 
L 320.038639 -151.5921 
L 322.066189 -150.060118 
L 324.169565 -148.528136 
L 326.293886 -146.996153 
L 328.388937 -145.464171 
L 330.415863 -143.932189 
L 332.351365 -142.400206 
L 334.188584 -140.868224 
L 335.934666 -139.336241 
L 337.605784 -137.804259 
L 339.221005 -136.272277 
L 340.796611 -134.740294 
L 342.342232 -133.208312 
L 343.859511 -131.67633 
L 345.343185 -130.144347 
L 346.783655 -128.612365 
L 348.169675 -127.080383 
L 349.489813 -125.5484 
L 350.731869 -124.016418 
L 351.880258 -122.484435 
L 352.91228 -120.952453 
L 353.794779 -119.420471 
L 354.482773 -117.888488 
L 354.921204 -116.356506 
L 355.05 -114.824524 
L 354.811649 -113.292541 
L 354.159646 -111.760559 
L 353.065827 -110.228577 
L 351.524884 -108.696594 
L 349.555129 -107.164612 
L 347.195581 -105.632629 
L 344.500429 -104.100647 
L 341.532457 -102.568665 
L 338.357088 -101.036682 
L 335.03824 -99.5047 
L 331.636438 -97.972718 
L 328.208856 -96.440735 
L 324.810386 -94.908753 
L 321.494649 -93.376771 
L 318.31408 -91.844788 
L 315.318657 -90.312806 
L 312.553401 -88.780823 
L 310.05525 -87.248841 
L 307.850081 -85.716859 
L 305.95065 -84.184876 
L 304.355951 -82.652894 
L 303.052132 -81.120912 
L 302.014768 -79.588929 
L 301.212008 -78.056947 
L 300.60806 -76.524965 
L 300.166451 -74.992982 
z
" style="stroke: #3d3d3d; stroke-width: 1.25"/>
    </defs>
    <g clip-path="url(#pfc43b91391)">
     <use xlink:href="#m91d9cd26fc" x="0" y="360" style="fill: #e1812c; stroke: #3d3d3d; stroke-width: 1.25"/>
    </g>
   </g>
   <g id="FillBetweenPolyCollection_3">
    <defs>
     <path id="mba2b8df36d" d="M 441.930147 -52.2 
L 435.569853 -52.2 
L 434.496521 -54.635692 
L 433.154813 -57.071383 
L 431.510716 -59.507075 
L 429.53639 -61.942766 
L 427.213722 -64.378458 
L 424.537886 -66.814149 
L 421.520524 -69.249841 
L 418.192101 -71.685532 
L 414.603029 -74.121224 
L 410.823209 -76.556915 
L 406.939793 -78.992607 
L 403.053144 -81.428299 
L 399.271217 -83.86399 
L 395.702777 -86.299682 
L 392.450082 -88.735373 
L 389.601757 -91.171065 
L 387.226624 -93.606756 
L 385.369176 -96.042448 
L 384.047202 -98.478139 
L 383.251835 -100.913831 
L 382.95 -103.349523 
L 383.088955 -105.785214 
L 383.602353 -108.220906 
L 384.417113 -110.656597 
L 385.460285 -113.092289 
L 386.665151 -115.52798 
L 387.975929 -117.963672 
L 389.350665 -120.399363 
L 390.762156 -122.835055 
L 392.197004 -125.270746 
L 393.653138 -127.706438 
L 395.136308 -130.14213 
L 396.656137 -132.577821 
L 398.222313 -135.013513 
L 399.841421 -137.449204 
L 401.514759 -139.884896 
L 403.237294 -142.320587 
L 404.997741 -144.756279 
L 406.779581 -147.19197 
L 408.56272 -149.627662 
L 410.325459 -152.063354 
L 412.046447 -154.499045 
L 413.70635 -156.934737 
L 415.289072 -159.370428 
L 416.78246 -161.80612 
L 418.178513 -164.241811 
L 419.473198 -166.677503 
L 420.66598 -169.113194 
L 421.759234 -171.548886 
L 422.757609 -173.984577 
L 423.667469 -176.420269 
L 424.496415 -178.855961 
L 425.252923 -181.291652 
L 425.946063 -183.727344 
L 426.585277 -186.163035 
L 427.180171 -188.598727 
L 427.740293 -191.034418 
L 428.274882 -193.47011 
L 428.79256 -195.905801 
L 429.300991 -198.341493 
L 429.806513 -200.777185 
L 430.313775 -203.212876 
L 430.82542 -205.648568 
L 431.341856 -208.084259 
L 431.861149 -210.519951 
L 432.37909 -212.955642 
L 432.889433 -215.391334 
L 433.384329 -217.827025 
L 433.854926 -220.262717 
L 434.292097 -222.698408 
L 434.687235 -225.1341 
L 435.033057 -227.569792 
L 435.32432 -230.005483 
L 435.558398 -232.441175 
L 435.735642 -234.876866 
L 435.859492 -237.312558 
L 435.936316 -239.748249 
L 435.97499 -242.183941 
L 435.986255 -244.619632 
L 435.981904 -247.055324 
L 435.973889 -249.491016 
L 435.973423 -251.926707 
L 435.990162 -254.362399 
L 436.031562 -256.79809 
L 436.102439 -259.233782 
L 436.204794 -261.669473 
L 436.337886 -264.105165 
L 436.498539 -266.540856 
L 436.681641 -268.976548 
L 436.880745 -271.412239 
L 437.088741 -273.847931 
L 437.298484 -276.283623 
L 437.503357 -278.719314 
L 437.697695 -281.155006 
L 437.877071 -283.590697 
L 438.038417 -286.026389 
L 438.18002 -288.46208 
L 438.301392 -290.897772 
L 438.403074 -293.333463 
L 439.096926 -293.333463 
L 439.096926 -293.333463 
L 439.198608 -290.897772 
L 439.31998 -288.46208 
L 439.461583 -286.026389 
L 439.622929 -283.590697 
L 439.802305 -281.155006 
L 439.996643 -278.719314 
L 440.201516 -276.283623 
L 440.411259 -273.847931 
L 440.619255 -271.412239 
L 440.818359 -268.976548 
L 441.001461 -266.540856 
L 441.162114 -264.105165 
L 441.295206 -261.669473 
L 441.397561 -259.233782 
L 441.468438 -256.79809 
L 441.509838 -254.362399 
L 441.526577 -251.926707 
L 441.526111 -249.491016 
L 441.518096 -247.055324 
L 441.513745 -244.619632 
L 441.52501 -242.183941 
L 441.563684 -239.748249 
L 441.640508 -237.312558 
L 441.764358 -234.876866 
L 441.941602 -232.441175 
L 442.17568 -230.005483 
L 442.466943 -227.569792 
L 442.812765 -225.1341 
L 443.207903 -222.698408 
L 443.645074 -220.262717 
L 444.115671 -217.827025 
L 444.610567 -215.391334 
L 445.12091 -212.955642 
L 445.638851 -210.519951 
L 446.158144 -208.084259 
L 446.67458 -205.648568 
L 447.186225 -203.212876 
L 447.693487 -200.777185 
L 448.199009 -198.341493 
L 448.70744 -195.905801 
L 449.225118 -193.47011 
L 449.759707 -191.034418 
L 450.319829 -188.598727 
L 450.914723 -186.163035 
L 451.553937 -183.727344 
L 452.247077 -181.291652 
L 453.003585 -178.855961 
L 453.832531 -176.420269 
L 454.742391 -173.984577 
L 455.740766 -171.548886 
L 456.83402 -169.113194 
L 458.026802 -166.677503 
L 459.321487 -164.241811 
L 460.71754 -161.80612 
L 462.210928 -159.370428 
L 463.79365 -156.934737 
L 465.453553 -154.499045 
L 467.174541 -152.063354 
L 468.93728 -149.627662 
L 470.720419 -147.19197 
L 472.502259 -144.756279 
L 474.262706 -142.320587 
L 475.985241 -139.884896 
L 477.658579 -137.449204 
L 479.277687 -135.013513 
L 480.843863 -132.577821 
L 482.363692 -130.14213 
L 483.846862 -127.706438 
L 485.302996 -125.270746 
L 486.737844 -122.835055 
L 488.149335 -120.399363 
L 489.524071 -117.963672 
L 490.834849 -115.52798 
L 492.039715 -113.092289 
L 493.082887 -110.656597 
L 493.897647 -108.220906 
L 494.411045 -105.785214 
L 494.55 -103.349523 
L 494.248165 -100.913831 
L 493.452798 -98.478139 
L 492.130824 -96.042448 
L 490.273376 -93.606756 
L 487.898243 -91.171065 
L 485.049918 -88.735373 
L 481.797223 -86.299682 
L 478.228783 -83.86399 
L 474.446856 -81.428299 
L 470.560207 -78.992607 
L 466.676791 -76.556915 
L 462.896971 -74.121224 
L 459.307899 -71.685532 
L 455.979476 -69.249841 
L 452.962114 -66.814149 
L 450.286278 -64.378458 
L 447.96361 -61.942766 
L 445.989284 -59.507075 
L 444.345187 -57.071383 
L 443.003479 -54.635692 
L 441.930147 -52.2 
z
" style="stroke: #3d3d3d; stroke-width: 1.25"/>
    </defs>
    <g clip-path="url(#pfc43b91391)">
     <use xlink:href="#mba2b8df36d" x="0" y="360" style="fill: #3a923a; stroke: #3d3d3d; stroke-width: 1.25"/>
    </g>
   </g>
   <g id="FillBetweenPolyCollection_4">
    <defs>
     <path id="madd091b1e6" d="M 578.57715 -63.084458 
L 577.92285 -63.084458 
L 577.754106 -65.519968 
L 577.517327 -67.955479 
L 577.193679 -70.390989 
L 576.762104 -72.8265 
L 576.199779 -75.26201 
L 575.482626 -77.697521 
L 574.585863 -80.133031 
L 573.484559 -82.568542 
L 572.154273 -85.004053 
L 570.571877 -87.439563 
L 568.716699 -89.875074 
L 566.572092 -92.310584 
L 564.127426 -94.746095 
L 561.380416 -97.181605 
L 558.339582 -99.617116 
L 555.026595 -102.052626 
L 551.478286 -104.488137 
L 547.748181 -106.923647 
L 543.907438 -109.359158 
L 540.045057 -111.794668 
L 536.2671 -114.230179 
L 532.694459 -116.665689 
L 529.458647 -119.1012 
L 526.695165 -121.53671 
L 524.534383 -123.972221 
L 523.09052 -126.407731 
L 522.45 -128.843242 
L 522.661012 -131.278753 
L 523.726213 -133.714263 
L 525.600155 -136.149774 
L 528.192176 -138.585284 
L 531.374463 -141.020795 
L 534.994002 -143.456305 
L 538.886504 -145.891816 
L 542.890224 -148.327326 
L 546.857874 -150.762837 
L 550.66539 -153.198347 
L 554.217051 -155.633858 
L 557.447021 -158.069368 
L 560.317885 -160.504879 
L 562.81698 -162.940389 
L 564.951424 -165.3759 
L 566.742704 -167.81141 
L 568.221572 -170.246921 
L 569.423786 -172.682432 
L 570.387023 -175.117942 
L 571.149006 -177.553453 
L 571.746636 -179.988963 
L 572.21573 -182.424474 
L 572.590842 -184.859984 
L 572.904745 -187.295495 
L 573.187303 -189.731005 
L 573.463766 -192.166516 
L 573.752812 -194.602026 
L 574.064847 -197.037537 
L 574.401152 -199.473047 
L 574.754291 -201.908558 
L 575.109931 -204.344068 
L 575.449858 -206.779579 
L 575.755666 -209.215089 
L 576.01241 -211.6506 
L 576.211491 -214.08611 
L 576.352239 -216.521621 
L 576.441914 -218.957132 
L 576.494205 -221.392642 
L 576.526611 -223.828153 
L 576.557266 -226.263663 
L 576.601869 -228.699174 
L 576.671282 -231.134684 
L 576.770185 -233.570195 
L 576.896902 -236.005705 
L 577.044288 -238.441216 
L 577.20134 -240.876726 
L 577.355134 -243.312237 
L 577.492692 -245.747747 
L 577.602504 -248.183258 
L 577.675596 -250.618768 
L 577.706153 -253.054279 
L 577.691843 -255.489789 
L 577.633938 -257.9253 
L 577.537318 -260.360811 
L 577.410333 -262.796321 
L 577.264431 -265.231832 
L 577.113416 -267.667342 
L 576.972294 -270.102853 
L 576.855739 -272.538363 
L 576.776369 -274.973874 
L 576.743122 -277.409384 
L 576.760077 -279.844895 
L 576.825964 -282.280405 
L 576.934514 -284.715916 
L 577.07557 -287.151426 
L 577.236724 -289.586937 
L 577.405149 -292.022447 
L 577.569261 -294.457958 
L 577.719939 -296.893468 
L 577.851144 -299.328979 
L 577.959965 -301.764489 
L 578.046189 -304.2 
L 578.453811 -304.2 
L 578.453811 -304.2 
L 578.540035 -301.764489 
L 578.648856 -299.328979 
L 578.780061 -296.893468 
L 578.930739 -294.457958 
L 579.094851 -292.022447 
L 579.263276 -289.586937 
L 579.42443 -287.151426 
L 579.565486 -284.715916 
L 579.674036 -282.280405 
L 579.739923 -279.844895 
L 579.756878 -277.409384 
L 579.723631 -274.973874 
L 579.644261 -272.538363 
L 579.527706 -270.102853 
L 579.386584 -267.667342 
L 579.235569 -265.231832 
L 579.089667 -262.796321 
L 578.962682 -260.360811 
L 578.866062 -257.9253 
L 578.808157 -255.489789 
L 578.793847 -253.054279 
L 578.824404 -250.618768 
L 578.897496 -248.183258 
L 579.007308 -245.747747 
L 579.144866 -243.312237 
L 579.29866 -240.876726 
L 579.455712 -238.441216 
L 579.603098 -236.005705 
L 579.729815 -233.570195 
L 579.828718 -231.134684 
L 579.898131 -228.699174 
L 579.942734 -226.263663 
L 579.973389 -223.828153 
L 580.005795 -221.392642 
L 580.058086 -218.957132 
L 580.147761 -216.521621 
L 580.288509 -214.08611 
L 580.48759 -211.6506 
L 580.744334 -209.215089 
L 581.050142 -206.779579 
L 581.390069 -204.344068 
L 581.745709 -201.908558 
L 582.098848 -199.473047 
L 582.435153 -197.037537 
L 582.747188 -194.602026 
L 583.036234 -192.166516 
L 583.312697 -189.731005 
L 583.595255 -187.295495 
L 583.909158 -184.859984 
L 584.28427 -182.424474 
L 584.753364 -179.988963 
L 585.350994 -177.553453 
L 586.112977 -175.117942 
L 587.076214 -172.682432 
L 588.278428 -170.246921 
L 589.757296 -167.81141 
L 591.548576 -165.3759 
L 593.68302 -162.940389 
L 596.182115 -160.504879 
L 599.052979 -158.069368 
L 602.282949 -155.633858 
L 605.83461 -153.198347 
L 609.642126 -150.762837 
L 613.609776 -148.327326 
L 617.613496 -145.891816 
L 621.505998 -143.456305 
L 625.125537 -141.020795 
L 628.307824 -138.585284 
L 630.899845 -136.149774 
L 632.773787 -133.714263 
L 633.838988 -131.278753 
L 634.05 -128.843242 
L 633.40948 -126.407731 
L 631.965617 -123.972221 
L 629.804835 -121.53671 
L 627.041353 -119.1012 
L 623.805541 -116.665689 
L 620.2329 -114.230179 
L 616.454943 -111.794668 
L 612.592562 -109.359158 
L 608.751819 -106.923647 
L 605.021714 -104.488137 
L 601.473405 -102.052626 
L 598.160418 -99.617116 
L 595.119584 -97.181605 
L 592.372574 -94.746095 
L 589.927908 -92.310584 
L 587.783301 -89.875074 
L 585.928123 -87.439563 
L 584.345727 -85.004053 
L 583.015441 -82.568542 
L 581.914137 -80.133031 
L 581.017374 -77.697521 
L 580.300221 -75.26201 
L 579.737896 -72.8265 
L 579.306321 -70.390989 
L 578.982673 -67.955479 
L 578.745894 -65.519968 
L 578.57715 -63.084458 
z
" style="stroke: #3d3d3d; stroke-width: 1.25"/>
    </defs>
    <g clip-path="url(#pfc43b91391)">
     <use xlink:href="#madd091b1e6" x="0" y="360" style="fill: #c03d3e; stroke: #3d3d3d; stroke-width: 1.25"/>
    </g>
   </g>
   <g id="matplotlib.axis_1">
    <g id="xtick_1">
     <g id="line2d_1">
      <defs>
       <path id="md4756a7179" d="M 0 0 
L 0 3.5 
" style="stroke: #000000; stroke-width: 0.8"/>
      </defs>
      <g>
       <use xlink:href="#md4756a7179" x="159.75" y="320.4" style="stroke: #000000; stroke-width: 0.8"/>
      </g>
     </g>
     <g id="text_1">
      <!-- No -->
      <g transform="translate(152.95 334.998438) scale(0.1 -0.1)">
       <defs>
        <path id="DejaVuSans-4e" d="M 628 4666 
L 1478 4666 
L 3547 763 
L 3547 4666 
L 4159 4666 
L 4159 0 
L 3309 0 
L 1241 3903 
L 1241 0 
L 628 0 
L 628 4666 
z
" transform="scale(0.015625)"/>
        <path id="DejaVuSans-6f" d="M 1959 3097 
Q 1497 3097 1228 2736 
Q 959 2375 959 1747 
Q 959 1119 1226 758 
Q 1494 397 1959 397 
Q 2419 397 2687 759 
Q 2956 1122 2956 1747 
Q 2956 2369 2687 2733 
Q 2419 3097 1959 3097 
z
M 1959 3584 
Q 2709 3584 3137 3096 
Q 3566 2609 3566 1747 
Q 3566 888 3137 398 
Q 2709 -91 1959 -91 
Q 1206 -91 779 398 
Q 353 888 353 1747 
Q 353 2609 779 3096 
Q 1206 3584 1959 3584 
z
" transform="scale(0.015625)"/>
       </defs>
       <use xlink:href="#DejaVuSans-4e"/>
       <use xlink:href="#DejaVuSans-6f" transform="translate(74.804688 0)"/>
      </g>
     </g>
    </g>
    <g id="xtick_2">
     <g id="line2d_2">
      <g>
       <use xlink:href="#md4756a7179" x="299.25" y="320.4" style="stroke: #000000; stroke-width: 0.8"/>
      </g>
     </g>
     <g id="text_2">
      <!-- Specific -->
      <g transform="translate(279.788281 334.998438) scale(0.1 -0.1)">
       <defs>
        <path id="DejaVuSans-53" d="M 3425 4513 
L 3425 3897 
Q 3066 4069 2747 4153 
Q 2428 4238 2131 4238 
Q 1616 4238 1336 4038 
Q 1056 3838 1056 3469 
Q 1056 3159 1242 3001 
Q 1428 2844 1947 2747 
L 2328 2669 
Q 3034 2534 3370 2195 
Q 3706 1856 3706 1288 
Q 3706 609 3251 259 
Q 2797 -91 1919 -91 
Q 1588 -91 1214 -16 
Q 841 59 441 206 
L 441 856 
Q 825 641 1194 531 
Q 1563 422 1919 422 
Q 2459 422 2753 634 
Q 3047 847 3047 1241 
Q 3047 1584 2836 1778 
Q 2625 1972 2144 2069 
L 1759 2144 
Q 1053 2284 737 2584 
Q 422 2884 422 3419 
Q 422 4038 858 4394 
Q 1294 4750 2059 4750 
Q 2388 4750 2728 4690 
Q 3069 4631 3425 4513 
z
" transform="scale(0.015625)"/>
        <path id="DejaVuSans-70" d="M 1159 525 
L 1159 -1331 
L 581 -1331 
L 581 3500 
L 1159 3500 
L 1159 2969 
Q 1341 3281 1617 3432 
Q 1894 3584 2278 3584 
Q 2916 3584 3314 3078 
Q 3713 2572 3713 1747 
Q 3713 922 3314 415 
Q 2916 -91 2278 -91 
Q 1894 -91 1617 61 
Q 1341 213 1159 525 
z
M 3116 1747 
Q 3116 2381 2855 2742 
Q 2594 3103 2138 3103 
Q 1681 3103 1420 2742 
Q 1159 2381 1159 1747 
Q 1159 1113 1420 752 
Q 1681 391 2138 391 
Q 2594 391 2855 752 
Q 3116 1113 3116 1747 
z
" transform="scale(0.015625)"/>
        <path id="DejaVuSans-65" d="M 3597 1894 
L 3597 1613 
L 953 1613 
Q 991 1019 1311 708 
Q 1631 397 2203 397 
Q 2534 397 2845 478 
Q 3156 559 3463 722 
L 3463 178 
Q 3153 47 2828 -22 
Q 2503 -91 2169 -91 
Q 1331 -91 842 396 
Q 353 884 353 1716 
Q 353 2575 817 3079 
Q 1281 3584 2069 3584 
Q 2775 3584 3186 3129 
Q 3597 2675 3597 1894 
z
M 3022 2063 
Q 3016 2534 2758 2815 
Q 2500 3097 2075 3097 
Q 1594 3097 1305 2825 
Q 1016 2553 972 2059 
L 3022 2063 
z
" transform="scale(0.015625)"/>
        <path id="DejaVuSans-63" d="M 3122 3366 
L 3122 2828 
Q 2878 2963 2633 3030 
Q 2388 3097 2138 3097 
Q 1578 3097 1268 2742 
Q 959 2388 959 1747 
Q 959 1106 1268 751 
Q 1578 397 2138 397 
Q 2388 397 2633 464 
Q 2878 531 3122 666 
L 3122 134 
Q 2881 22 2623 -34 
Q 2366 -91 2075 -91 
Q 1284 -91 818 406 
Q 353 903 353 1747 
Q 353 2603 823 3093 
Q 1294 3584 2113 3584 
Q 2378 3584 2631 3529 
Q 2884 3475 3122 3366 
z
" transform="scale(0.015625)"/>
        <path id="DejaVuSans-69" d="M 603 3500 
L 1178 3500 
L 1178 0 
L 603 0 
L 603 3500 
z
M 603 4863 
L 1178 4863 
L 1178 4134 
L 603 4134 
L 603 4863 
z
" transform="scale(0.015625)"/>
        <path id="DejaVuSans-66" d="M 2375 4863 
L 2375 4384 
L 1825 4384 
Q 1516 4384 1395 4259 
Q 1275 4134 1275 3809 
L 1275 3500 
L 2222 3500 
L 2222 3053 
L 1275 3053 
L 1275 0 
L 697 0 
L 697 3053 
L 147 3053 
L 147 3500 
L 697 3500 
L 697 3744 
Q 697 4328 969 4595 
Q 1241 4863 1831 4863 
L 2375 4863 
z
" transform="scale(0.015625)"/>
       </defs>
       <use xlink:href="#DejaVuSans-53"/>
       <use xlink:href="#DejaVuSans-70" transform="translate(63.476562 0)"/>
       <use xlink:href="#DejaVuSans-65" transform="translate(126.953125 0)"/>
       <use xlink:href="#DejaVuSans-63" transform="translate(188.476562 0)"/>
       <use xlink:href="#DejaVuSans-69" transform="translate(243.457031 0)"/>
       <use xlink:href="#DejaVuSans-66" transform="translate(271.240234 0)"/>
       <use xlink:href="#DejaVuSans-69" transform="translate(306.445312 0)"/>
       <use xlink:href="#DejaVuSans-63" transform="translate(334.228516 0)"/>
      </g>
     </g>
    </g>
    <g id="xtick_3">
     <g id="line2d_3">
      <g>
       <use xlink:href="#md4756a7179" x="438.75" y="320.4" style="stroke: #000000; stroke-width: 0.8"/>
      </g>
     </g>
     <g id="text_3">
      <!-- Spurious -->
      <g transform="translate(416.955469 334.998438) scale(0.1 -0.1)">
       <defs>
        <path id="DejaVuSans-75" d="M 544 1381 
L 544 3500 
L 1119 3500 
L 1119 1403 
Q 1119 906 1312 657 
Q 1506 409 1894 409 
Q 2359 409 2629 706 
Q 2900 1003 2900 1516 
L 2900 3500 
L 3475 3500 
L 3475 0 
L 2900 0 
L 2900 538 
Q 2691 219 2414 64 
Q 2138 -91 1772 -91 
Q 1169 -91 856 284 
Q 544 659 544 1381 
z
M 1991 3584 
L 1991 3584 
z
" transform="scale(0.015625)"/>
        <path id="DejaVuSans-72" d="M 2631 2963 
Q 2534 3019 2420 3045 
Q 2306 3072 2169 3072 
Q 1681 3072 1420 2755 
Q 1159 2438 1159 1844 
L 1159 0 
L 581 0 
L 581 3500 
L 1159 3500 
L 1159 2956 
Q 1341 3275 1631 3429 
Q 1922 3584 2338 3584 
Q 2397 3584 2469 3576 
Q 2541 3569 2628 3553 
L 2631 2963 
z
" transform="scale(0.015625)"/>
        <path id="DejaVuSans-73" d="M 2834 3397 
L 2834 2853 
Q 2591 2978 2328 3040 
Q 2066 3103 1784 3103 
Q 1356 3103 1142 2972 
Q 928 2841 928 2578 
Q 928 2378 1081 2264 
Q 1234 2150 1697 2047 
L 1894 2003 
Q 2506 1872 2764 1633 
Q 3022 1394 3022 966 
Q 3022 478 2636 193 
Q 2250 -91 1575 -91 
Q 1294 -91 989 -36 
Q 684 19 347 128 
L 347 722 
Q 666 556 975 473 
Q 1284 391 1588 391 
Q 1994 391 2212 530 
Q 2431 669 2431 922 
Q 2431 1156 2273 1281 
Q 2116 1406 1581 1522 
L 1381 1569 
Q 847 1681 609 1914 
Q 372 2147 372 2553 
Q 372 3047 722 3315 
Q 1072 3584 1716 3584 
Q 2034 3584 2315 3537 
Q 2597 3491 2834 3397 
z
" transform="scale(0.015625)"/>
       </defs>
       <use xlink:href="#DejaVuSans-53"/>
       <use xlink:href="#DejaVuSans-70" transform="translate(63.476562 0)"/>
       <use xlink:href="#DejaVuSans-75" transform="translate(126.953125 0)"/>
       <use xlink:href="#DejaVuSans-72" transform="translate(190.332031 0)"/>
       <use xlink:href="#DejaVuSans-69" transform="translate(231.445312 0)"/>
       <use xlink:href="#DejaVuSans-6f" transform="translate(259.228516 0)"/>
       <use xlink:href="#DejaVuSans-75" transform="translate(320.410156 0)"/>
       <use xlink:href="#DejaVuSans-73" transform="translate(383.789062 0)"/>
      </g>
     </g>
    </g>
    <g id="xtick_4">
     <g id="line2d_4">
      <g>
       <use xlink:href="#md4756a7179" x="578.25" y="320.4" style="stroke: #000000; stroke-width: 0.8"/>
      </g>
     </g>
     <g id="text_4">
      <!-- Non-specific -->
      <g transform="translate(547.585156 334.998438) scale(0.1 -0.1)">
       <defs>
        <path id="DejaVuSans-6e" d="M 3513 2113 
L 3513 0 
L 2938 0 
L 2938 2094 
Q 2938 2591 2744 2837 
Q 2550 3084 2163 3084 
Q 1697 3084 1428 2787 
Q 1159 2491 1159 1978 
L 1159 0 
L 581 0 
L 581 3500 
L 1159 3500 
L 1159 2956 
Q 1366 3272 1645 3428 
Q 1925 3584 2291 3584 
Q 2894 3584 3203 3211 
Q 3513 2838 3513 2113 
z
" transform="scale(0.015625)"/>
        <path id="DejaVuSans-2d" d="M 313 2009 
L 1997 2009 
L 1997 1497 
L 313 1497 
L 313 2009 
z
" transform="scale(0.015625)"/>
       </defs>
       <use xlink:href="#DejaVuSans-4e"/>
       <use xlink:href="#DejaVuSans-6f" transform="translate(74.804688 0)"/>
       <use xlink:href="#DejaVuSans-6e" transform="translate(135.986328 0)"/>
       <use xlink:href="#DejaVuSans-2d" transform="translate(199.365234 0)"/>
       <use xlink:href="#DejaVuSans-73" transform="translate(235.449219 0)"/>
       <use xlink:href="#DejaVuSans-70" transform="translate(287.548828 0)"/>
       <use xlink:href="#DejaVuSans-65" transform="translate(351.025391 0)"/>
       <use xlink:href="#DejaVuSans-63" transform="translate(412.548828 0)"/>
       <use xlink:href="#DejaVuSans-69" transform="translate(467.529297 0)"/>
       <use xlink:href="#DejaVuSans-66" transform="translate(495.3125 0)"/>
       <use xlink:href="#DejaVuSans-69" transform="translate(530.517578 0)"/>
       <use xlink:href="#DejaVuSans-63" transform="translate(558.300781 0)"/>
      </g>
     </g>
    </g>
    <g id="text_5">
     <!-- Connectivity category -->
     <g transform="translate(313.98125 348.676562) scale(0.1 -0.1)">
      <defs>
       <path id="DejaVuSans-43" d="M 4122 4306 
L 4122 3641 
Q 3803 3938 3442 4084 
Q 3081 4231 2675 4231 
Q 1875 4231 1450 3742 
Q 1025 3253 1025 2328 
Q 1025 1406 1450 917 
Q 1875 428 2675 428 
Q 3081 428 3442 575 
Q 3803 722 4122 1019 
L 4122 359 
Q 3791 134 3420 21 
Q 3050 -91 2638 -91 
Q 1578 -91 968 557 
Q 359 1206 359 2328 
Q 359 3453 968 4101 
Q 1578 4750 2638 4750 
Q 3056 4750 3426 4639 
Q 3797 4528 4122 4306 
z
" transform="scale(0.015625)"/>
       <path id="DejaVuSans-74" d="M 1172 4494 
L 1172 3500 
L 2356 3500 
L 2356 3053 
L 1172 3053 
L 1172 1153 
Q 1172 725 1289 603 
Q 1406 481 1766 481 
L 2356 481 
L 2356 0 
L 1766 0 
Q 1100 0 847 248 
Q 594 497 594 1153 
L 594 3053 
L 172 3053 
L 172 3500 
L 594 3500 
L 594 4494 
L 1172 4494 
z
" transform="scale(0.015625)"/>
       <path id="DejaVuSans-76" d="M 191 3500 
L 800 3500 
L 1894 563 
L 2988 3500 
L 3597 3500 
L 2284 0 
L 1503 0 
L 191 3500 
z
" transform="scale(0.015625)"/>
       <path id="DejaVuSans-79" d="M 2059 -325 
Q 1816 -950 1584 -1140 
Q 1353 -1331 966 -1331 
L 506 -1331 
L 506 -850 
L 844 -850 
Q 1081 -850 1212 -737 
Q 1344 -625 1503 -206 
L 1606 56 
L 191 3500 
L 800 3500 
L 1894 763 
L 2988 3500 
L 3597 3500 
L 2059 -325 
z
" transform="scale(0.015625)"/>
       <path id="DejaVuSans-20" transform="scale(0.015625)"/>
       <path id="DejaVuSans-61" d="M 2194 1759 
Q 1497 1759 1228 1600 
Q 959 1441 959 1056 
Q 959 750 1161 570 
Q 1363 391 1709 391 
Q 2188 391 2477 730 
Q 2766 1069 2766 1631 
L 2766 1759 
L 2194 1759 
z
M 3341 1997 
L 3341 0 
L 2766 0 
L 2766 531 
Q 2569 213 2275 61 
Q 1981 -91 1556 -91 
Q 1019 -91 701 211 
Q 384 513 384 1019 
Q 384 1609 779 1909 
Q 1175 2209 1959 2209 
L 2766 2209 
L 2766 2266 
Q 2766 2663 2505 2880 
Q 2244 3097 1772 3097 
Q 1472 3097 1187 3025 
Q 903 2953 641 2809 
L 641 3341 
Q 956 3463 1253 3523 
Q 1550 3584 1831 3584 
Q 2591 3584 2966 3190 
Q 3341 2797 3341 1997 
z
" transform="scale(0.015625)"/>
       <path id="DejaVuSans-67" d="M 2906 1791 
Q 2906 2416 2648 2759 
Q 2391 3103 1925 3103 
Q 1463 3103 1205 2759 
Q 947 2416 947 1791 
Q 947 1169 1205 825 
Q 1463 481 1925 481 
Q 2391 481 2648 825 
Q 2906 1169 2906 1791 
z
M 3481 434 
Q 3481 -459 3084 -895 
Q 2688 -1331 1869 -1331 
Q 1566 -1331 1297 -1286 
Q 1028 -1241 775 -1147 
L 775 -588 
Q 1028 -725 1275 -790 
Q 1522 -856 1778 -856 
Q 2344 -856 2625 -561 
Q 2906 -266 2906 331 
L 2906 616 
Q 2728 306 2450 153 
Q 2172 0 1784 0 
Q 1141 0 747 490 
Q 353 981 353 1791 
Q 353 2603 747 3093 
Q 1141 3584 1784 3584 
Q 2172 3584 2450 3431 
Q 2728 3278 2906 2969 
L 2906 3500 
L 3481 3500 
L 3481 434 
z
" transform="scale(0.015625)"/>
      </defs>
      <use xlink:href="#DejaVuSans-43"/>
      <use xlink:href="#DejaVuSans-6f" transform="translate(69.824219 0)"/>
      <use xlink:href="#DejaVuSans-6e" transform="translate(131.005859 0)"/>
      <use xlink:href="#DejaVuSans-6e" transform="translate(194.384766 0)"/>
      <use xlink:href="#DejaVuSans-65" transform="translate(257.763672 0)"/>
      <use xlink:href="#DejaVuSans-63" transform="translate(319.287109 0)"/>
      <use xlink:href="#DejaVuSans-74" transform="translate(374.267578 0)"/>
      <use xlink:href="#DejaVuSans-69" transform="translate(413.476562 0)"/>
      <use xlink:href="#DejaVuSans-76" transform="translate(441.259766 0)"/>
      <use xlink:href="#DejaVuSans-69" transform="translate(500.439453 0)"/>
      <use xlink:href="#DejaVuSans-74" transform="translate(528.222656 0)"/>
      <use xlink:href="#DejaVuSans-79" transform="translate(567.431641 0)"/>
      <use xlink:href="#DejaVuSans-20" transform="translate(626.611328 0)"/>
      <use xlink:href="#DejaVuSans-63" transform="translate(658.398438 0)"/>
      <use xlink:href="#DejaVuSans-61" transform="translate(713.378906 0)"/>
      <use xlink:href="#DejaVuSans-74" transform="translate(774.658203 0)"/>
      <use xlink:href="#DejaVuSans-65" transform="translate(813.867188 0)"/>
      <use xlink:href="#DejaVuSans-67" transform="translate(875.390625 0)"/>
      <use xlink:href="#DejaVuSans-6f" transform="translate(938.867188 0)"/>
      <use xlink:href="#DejaVuSans-72" transform="translate(1000.048828 0)"/>
      <use xlink:href="#DejaVuSans-79" transform="translate(1041.162109 0)"/>
     </g>
    </g>
   </g>
   <g id="matplotlib.axis_2">
    <g id="ytick_1">
     <g id="line2d_5">
      <defs>
       <path id="m33a1ffa21c" d="M 0 0 
L -3.5 0 
" style="stroke: #000000; stroke-width: 0.8"/>
      </defs>
      <g>
       <use xlink:href="#m33a1ffa21c" x="90" y="280.367112" style="stroke: #000000; stroke-width: 0.8"/>
      </g>
     </g>
     <g id="text_6">
      <!-- 0.00 -->
      <g transform="translate(60.734375 284.166331) scale(0.1 -0.1)">
       <defs>
        <path id="DejaVuSans-30" d="M 2034 4250 
Q 1547 4250 1301 3770 
Q 1056 3291 1056 2328 
Q 1056 1369 1301 889 
Q 1547 409 2034 409 
Q 2525 409 2770 889 
Q 3016 1369 3016 2328 
Q 3016 3291 2770 3770 
Q 2525 4250 2034 4250 
z
M 2034 4750 
Q 2819 4750 3233 4129 
Q 3647 3509 3647 2328 
Q 3647 1150 3233 529 
Q 2819 -91 2034 -91 
Q 1250 -91 836 529 
Q 422 1150 422 2328 
Q 422 3509 836 4129 
Q 1250 4750 2034 4750 
z
" transform="scale(0.015625)"/>
        <path id="DejaVuSans-2e" d="M 684 794 
L 1344 794 
L 1344 0 
L 684 0 
L 684 794 
z
" transform="scale(0.015625)"/>
       </defs>
       <use xlink:href="#DejaVuSans-30"/>
       <use xlink:href="#DejaVuSans-2e" transform="translate(63.623047 0)"/>
       <use xlink:href="#DejaVuSans-30" transform="translate(95.410156 0)"/>
       <use xlink:href="#DejaVuSans-30" transform="translate(159.033203 0)"/>
      </g>
     </g>
    </g>
    <g id="ytick_2">
     <g id="line2d_6">
      <g>
       <use xlink:href="#m33a1ffa21c" x="90" y="223.001567" style="stroke: #000000; stroke-width: 0.8"/>
      </g>
     </g>
     <g id="text_7">
      <!-- 0.05 -->
      <g transform="translate(60.734375 226.800786) scale(0.1 -0.1)">
       <defs>
        <path id="DejaVuSans-35" d="M 691 4666 
L 3169 4666 
L 3169 4134 
L 1269 4134 
L 1269 2991 
Q 1406 3038 1543 3061 
Q 1681 3084 1819 3084 
Q 2600 3084 3056 2656 
Q 3513 2228 3513 1497 
Q 3513 744 3044 326 
Q 2575 -91 1722 -91 
Q 1428 -91 1123 -41 
Q 819 9 494 109 
L 494 744 
Q 775 591 1075 516 
Q 1375 441 1709 441 
Q 2250 441 2565 725 
Q 2881 1009 2881 1497 
Q 2881 1984 2565 2268 
Q 2250 2553 1709 2553 
Q 1456 2553 1204 2497 
Q 953 2441 691 2322 
L 691 4666 
z
" transform="scale(0.015625)"/>
       </defs>
       <use xlink:href="#DejaVuSans-30"/>
       <use xlink:href="#DejaVuSans-2e" transform="translate(63.623047 0)"/>
       <use xlink:href="#DejaVuSans-30" transform="translate(95.410156 0)"/>
       <use xlink:href="#DejaVuSans-35" transform="translate(159.033203 0)"/>
      </g>
     </g>
    </g>
    <g id="ytick_3">
     <g id="line2d_7">
      <g>
       <use xlink:href="#m33a1ffa21c" x="90" y="165.636022" style="stroke: #000000; stroke-width: 0.8"/>
      </g>
     </g>
     <g id="text_8">
      <!-- 0.10 -->
      <g transform="translate(60.734375 169.435241) scale(0.1 -0.1)">
       <defs>
        <path id="DejaVuSans-31" d="M 794 531 
L 1825 531 
L 1825 4091 
L 703 3866 
L 703 4441 
L 1819 4666 
L 2450 4666 
L 2450 531 
L 3481 531 
L 3481 0 
L 794 0 
L 794 531 
z
" transform="scale(0.015625)"/>
       </defs>
       <use xlink:href="#DejaVuSans-30"/>
       <use xlink:href="#DejaVuSans-2e" transform="translate(63.623047 0)"/>
       <use xlink:href="#DejaVuSans-31" transform="translate(95.410156 0)"/>
       <use xlink:href="#DejaVuSans-30" transform="translate(159.033203 0)"/>
      </g>
     </g>
    </g>
    <g id="ytick_4">
     <g id="line2d_8">
      <g>
       <use xlink:href="#m33a1ffa21c" x="90" y="108.270477" style="stroke: #000000; stroke-width: 0.8"/>
      </g>
     </g>
     <g id="text_9">
      <!-- 0.15 -->
      <g transform="translate(60.734375 112.069695) scale(0.1 -0.1)">
       <use xlink:href="#DejaVuSans-30"/>
       <use xlink:href="#DejaVuSans-2e" transform="translate(63.623047 0)"/>
       <use xlink:href="#DejaVuSans-31" transform="translate(95.410156 0)"/>
       <use xlink:href="#DejaVuSans-35" transform="translate(159.033203 0)"/>
      </g>
     </g>
    </g>
    <g id="ytick_5">
     <g id="line2d_9">
      <g>
       <use xlink:href="#m33a1ffa21c" x="90" y="50.904931" style="stroke: #000000; stroke-width: 0.8"/>
      </g>
     </g>
     <g id="text_10">
      <!-- 0.20 -->
      <g transform="translate(60.734375 54.70415) scale(0.1 -0.1)">
       <defs>
        <path id="DejaVuSans-32" d="M 1228 531 
L 3431 531 
L 3431 0 
L 469 0 
L 469 531 
Q 828 903 1448 1529 
Q 2069 2156 2228 2338 
Q 2531 2678 2651 2914 
Q 2772 3150 2772 3378 
Q 2772 3750 2511 3984 
Q 2250 4219 1831 4219 
Q 1534 4219 1204 4116 
Q 875 4013 500 3803 
L 500 4441 
Q 881 4594 1212 4672 
Q 1544 4750 1819 4750 
Q 2544 4750 2975 4387 
Q 3406 4025 3406 3419 
Q 3406 3131 3298 2873 
Q 3191 2616 2906 2266 
Q 2828 2175 2409 1742 
Q 1991 1309 1228 531 
z
" transform="scale(0.015625)"/>
       </defs>
       <use xlink:href="#DejaVuSans-30"/>
       <use xlink:href="#DejaVuSans-2e" transform="translate(63.623047 0)"/>
       <use xlink:href="#DejaVuSans-32" transform="translate(95.410156 0)"/>
       <use xlink:href="#DejaVuSans-30" transform="translate(159.033203 0)"/>
      </g>
     </g>
    </g>
    <g id="text_11">
     <!-- cont_variable -->
     <g transform="translate(54.376562 215.409375) rotate(-90) scale(0.1 -0.1)">
      <defs>
       <path id="DejaVuSans-5f" d="M 3263 -1063 
L 3263 -1509 
L -63 -1509 
L -63 -1063 
L 3263 -1063 
z
" transform="scale(0.015625)"/>
       <path id="DejaVuSans-62" d="M 3116 1747 
Q 3116 2381 2855 2742 
Q 2594 3103 2138 3103 
Q 1681 3103 1420 2742 
Q 1159 2381 1159 1747 
Q 1159 1113 1420 752 
Q 1681 391 2138 391 
Q 2594 391 2855 752 
Q 3116 1113 3116 1747 
z
M 1159 2969 
Q 1341 3281 1617 3432 
Q 1894 3584 2278 3584 
Q 2916 3584 3314 3078 
Q 3713 2572 3713 1747 
Q 3713 922 3314 415 
Q 2916 -91 2278 -91 
Q 1894 -91 1617 61 
Q 1341 213 1159 525 
L 1159 0 
L 581 0 
L 581 4863 
L 1159 4863 
L 1159 2969 
z
" transform="scale(0.015625)"/>
       <path id="DejaVuSans-6c" d="M 603 4863 
L 1178 4863 
L 1178 0 
L 603 0 
L 603 4863 
z
" transform="scale(0.015625)"/>
      </defs>
      <use xlink:href="#DejaVuSans-63"/>
      <use xlink:href="#DejaVuSans-6f" transform="translate(54.980469 0)"/>
      <use xlink:href="#DejaVuSans-6e" transform="translate(116.162109 0)"/>
      <use xlink:href="#DejaVuSans-74" transform="translate(179.541016 0)"/>
      <use xlink:href="#DejaVuSans-5f" transform="translate(218.75 0)"/>
      <use xlink:href="#DejaVuSans-76" transform="translate(268.75 0)"/>
      <use xlink:href="#DejaVuSans-61" transform="translate(327.929688 0)"/>
      <use xlink:href="#DejaVuSans-72" transform="translate(389.208984 0)"/>
      <use xlink:href="#DejaVuSans-69" transform="translate(430.322266 0)"/>
      <use xlink:href="#DejaVuSans-61" transform="translate(458.105469 0)"/>
      <use xlink:href="#DejaVuSans-62" transform="translate(519.384766 0)"/>
      <use xlink:href="#DejaVuSans-6c" transform="translate(582.861328 0)"/>
      <use xlink:href="#DejaVuSans-65" transform="translate(610.644531 0)"/>
     </g>
    </g>
   </g>
   <g id="patch_3">
    <path d="M 90 320.4 
L 90 43.2 
" style="fill: none; stroke: #000000; stroke-width: 0.8; stroke-linejoin: miter; stroke-linecap: square"/>
   </g>
   <g id="patch_4">
    <path d="M 648 320.4 
L 648 43.2 
" style="fill: none; stroke: #000000; stroke-width: 0.8; stroke-linejoin: miter; stroke-linecap: square"/>
   </g>
   <g id="patch_5">
    <path d="M 90 320.4 
L 648 320.4 
" style="fill: none; stroke: #000000; stroke-width: 0.8; stroke-linejoin: miter; stroke-linecap: square"/>
   </g>
   <g id="patch_6">
    <path d="M 90 43.2 
L 648 43.2 
" style="fill: none; stroke: #000000; stroke-width: 0.8; stroke-linejoin: miter; stroke-linecap: square"/>
   </g>
   <g id="PathCollection_1">
    <defs>
     <path id="mb899aa1e6a" d="M 0 2.5 
C 0.663008 2.5 1.29895 2.236584 1.767767 1.767767 
C 2.236584 1.29895 2.5 0.663008 2.5 0 
C 2.5 -0.663008 2.236584 -1.29895 1.767767 -1.767767 
C 1.29895 -2.236584 0.663008 -2.5 0 -2.5 
C -0.663008 -2.5 -1.29895 -2.236584 -1.767767 -1.767767 
C -2.236584 -1.29895 -2.5 -0.663008 -2.5 0 
C -2.5 0.663008 -2.236584 1.29895 -1.767767 1.767767 
C -1.29895 2.236584 -0.663008 2.5 0 2.5 
z
"/>
    </defs>
    <g clip-path="url(#pfc43b91391)">
     <use xlink:href="#mb899aa1e6a" x="156.207682" y="240.796372" style="fill-opacity: 0.3"/>
     <use xlink:href="#mb899aa1e6a" x="149.595481" y="244.589094" style="fill-opacity: 0.3"/>
     <use xlink:href="#mb899aa1e6a" x="150.023417" y="246.03555" style="fill-opacity: 0.3"/>
     <use xlink:href="#mb899aa1e6a" x="148.730795" y="226.62955" style="fill-opacity: 0.3"/>
     <use xlink:href="#mb899aa1e6a" x="163.098938" y="204.678466" style="fill-opacity: 0.3"/>
     <use xlink:href="#mb899aa1e6a" x="153.60137" y="257.378302" style="fill-opacity: 0.3"/>
     <use xlink:href="#mb899aa1e6a" x="147.473058" y="221.983338" style="fill-opacity: 0.3"/>
     <use xlink:href="#mb899aa1e6a" x="161.22786" y="264.06293" style="fill-opacity: 0.3"/>
     <use xlink:href="#mb899aa1e6a" x="156.44212" y="264.181373" style="fill-opacity: 0.3"/>
     <use xlink:href="#mb899aa1e6a" x="147.582117" y="258.310015" style="fill-opacity: 0.3"/>
     <use xlink:href="#mb899aa1e6a" x="159.268962" y="253.684553" style="fill-opacity: 0.3"/>
     <use xlink:href="#mb899aa1e6a" x="158.560386" y="255.4735" style="fill-opacity: 0.3"/>
     <use xlink:href="#mb899aa1e6a" x="159.997098" y="253.4947" style="fill-opacity: 0.3"/>
     <use xlink:href="#mb899aa1e6a" x="160.830652" y="271.399734" style="fill-opacity: 0.3"/>
     <use xlink:href="#mb899aa1e6a" x="163.595424" y="266.856244" style="fill-opacity: 0.3"/>
     <use xlink:href="#mb899aa1e6a" x="161.613355" y="255.368979" style="fill-opacity: 0.3"/>
     <use xlink:href="#mb899aa1e6a" x="163.198103" y="219.697919" style="fill-opacity: 0.3"/>
     <use xlink:href="#mb899aa1e6a" x="153.558929" y="252.730683" style="fill-opacity: 0.3"/>
     <use xlink:href="#mb899aa1e6a" x="147.729515" y="259.05568" style="fill-opacity: 0.3"/>
     <use xlink:href="#mb899aa1e6a" x="159.056151" y="237.618374" style="fill-opacity: 0.3"/>
     <use xlink:href="#mb899aa1e6a" x="154.162907" y="248.323859" style="fill-opacity: 0.3"/>
     <use xlink:href="#mb899aa1e6a" x="154.951574" y="257.285983" style="fill-opacity: 0.3"/>
     <use xlink:href="#mb899aa1e6a" x="162.847896" y="236.311125" style="fill-opacity: 0.3"/>
     <use xlink:href="#mb899aa1e6a" x="173.028068" y="253.019339" style="fill-opacity: 0.3"/>
     <use xlink:href="#mb899aa1e6a" x="173.113826" y="241.193494" style="fill-opacity: 0.3"/>
     <use xlink:href="#mb899aa1e6a" x="173.324975" y="202.726344" style="fill-opacity: 0.3"/>
     <use xlink:href="#mb899aa1e6a" x="164.806577" y="203.761524" style="fill-opacity: 0.3"/>
     <use xlink:href="#mb899aa1e6a" x="151.311097" y="226.321966" style="fill-opacity: 0.3"/>
     <use xlink:href="#mb899aa1e6a" x="173.478485" y="249.29968" style="fill-opacity: 0.3"/>
     <use xlink:href="#mb899aa1e6a" x="166.053738" y="247.996358" style="fill-opacity: 0.3"/>
    </g>
   </g>
   <g id="PathCollection_2">
    <g clip-path="url(#pfc43b91391)">
     <use xlink:href="#mb899aa1e6a" x="307.334688" y="198.345165" style="fill-opacity: 0.3"/>
     <use xlink:href="#mb899aa1e6a" x="295.189805" y="248.066467" style="fill-opacity: 0.3"/>
     <use xlink:href="#mb899aa1e6a" x="302.545811" y="245.825785" style="fill-opacity: 0.3"/>
     <use xlink:href="#mb899aa1e6a" x="299.552698" y="218.809935" style="fill-opacity: 0.3"/>
     <use xlink:href="#mb899aa1e6a" x="303.121017" y="243.634256" style="fill-opacity: 0.3"/>
     <use xlink:href="#mb899aa1e6a" x="292.151826" y="240.09896" style="fill-opacity: 0.3"/>
     <use xlink:href="#mb899aa1e6a" x="311.272205" y="246.934128" style="fill-opacity: 0.3"/>
     <use xlink:href="#mb899aa1e6a" x="311.520941" y="259.998428" style="fill-opacity: 0.3"/>
     <use xlink:href="#mb899aa1e6a" x="290.42156" y="248.623681" style="fill-opacity: 0.3"/>
     <use xlink:href="#mb899aa1e6a" x="289.950248" y="216.413444" style="fill-opacity: 0.3"/>
     <use xlink:href="#mb899aa1e6a" x="303.99607" y="234.567223" style="fill-opacity: 0.3"/>
     <use xlink:href="#mb899aa1e6a" x="298.321548" y="249.297925" style="fill-opacity: 0.3"/>
     <use xlink:href="#mb899aa1e6a" x="305.294107" y="228.837123" style="fill-opacity: 0.3"/>
     <use xlink:href="#mb899aa1e6a" x="303.709276" y="209.282217" style="fill-opacity: 0.3"/>
     <use xlink:href="#mb899aa1e6a" x="293.380659" y="232.750052" style="fill-opacity: 0.3"/>
     <use xlink:href="#mb899aa1e6a" x="311.507073" y="233.178881" style="fill-opacity: 0.3"/>
     <use xlink:href="#mb899aa1e6a" x="310.976171" y="221.435655" style="fill-opacity: 0.3"/>
     <use xlink:href="#mb899aa1e6a" x="309.911979" y="220.67534" style="fill-opacity: 0.3"/>
     <use xlink:href="#mb899aa1e6a" x="299.125687" y="193.74597" style="fill-opacity: 0.3"/>
     <use xlink:href="#mb899aa1e6a" x="302.030812" y="221.007282" style="fill-opacity: 0.3"/>
     <use xlink:href="#mb899aa1e6a" x="295.051143" y="201.161594" style="fill-opacity: 0.3"/>
     <use xlink:href="#mb899aa1e6a" x="286.731965" y="208.619446" style="fill-opacity: 0.3"/>
     <use xlink:href="#mb899aa1e6a" x="303.736906" y="215.519256" style="fill-opacity: 0.3"/>
     <use xlink:href="#mb899aa1e6a" x="295.713641" y="233.494063" style="fill-opacity: 0.3"/>
     <use xlink:href="#mb899aa1e6a" x="301.232928" y="229.344739" style="fill-opacity: 0.3"/>
     <use xlink:href="#mb899aa1e6a" x="291.672727" y="232.79978" style="fill-opacity: 0.3"/>
     <use xlink:href="#mb899aa1e6a" x="312.84503" y="246.218536" style="fill-opacity: 0.3"/>
     <use xlink:href="#mb899aa1e6a" x="307.102892" y="241.505368" style="fill-opacity: 0.3"/>
     <use xlink:href="#mb899aa1e6a" x="299.365408" y="234.465622" style="fill-opacity: 0.3"/>
     <use xlink:href="#mb899aa1e6a" x="311.360551" y="238.252305" style="fill-opacity: 0.3"/>
     <use xlink:href="#mb899aa1e6a" x="302.722918" y="250.568262" style="fill-opacity: 0.3"/>
     <use xlink:href="#mb899aa1e6a" x="302.518935" y="247.385641" style="fill-opacity: 0.3"/>
     <use xlink:href="#mb899aa1e6a" x="289.785843" y="260.477088" style="fill-opacity: 0.3"/>
     <use xlink:href="#mb899aa1e6a" x="290.012814" y="260.553068" style="fill-opacity: 0.3"/>
     <use xlink:href="#mb899aa1e6a" x="312.61002" y="194.296007" style="fill-opacity: 0.3"/>
     <use xlink:href="#mb899aa1e6a" x="305.461753" y="267.276669" style="fill-opacity: 0.3"/>
     <use xlink:href="#mb899aa1e6a" x="293.375427" y="188.343614" style="fill-opacity: 0.3"/>
     <use xlink:href="#mb899aa1e6a" x="294.07529" y="214.240254" style="fill-opacity: 0.3"/>
     <use xlink:href="#mb899aa1e6a" x="300.740089" y="223.641964" style="fill-opacity: 0.3"/>
     <use xlink:href="#mb899aa1e6a" x="300.403177" y="213.654112" style="fill-opacity: 0.3"/>
     <use xlink:href="#mb899aa1e6a" x="294.330646" y="229.836497" style="fill-opacity: 0.3"/>
     <use xlink:href="#mb899aa1e6a" x="311.482896" y="266.063128" style="fill-opacity: 0.3"/>
     <use xlink:href="#mb899aa1e6a" x="295.107313" y="215.484818" style="fill-opacity: 0.3"/>
     <use xlink:href="#mb899aa1e6a" x="304.061709" y="232.978034" style="fill-opacity: 0.3"/>
     <use xlink:href="#mb899aa1e6a" x="286.840898" y="220.893844" style="fill-opacity: 0.3"/>
     <use xlink:href="#mb899aa1e6a" x="288.759592" y="233.129105" style="fill-opacity: 0.3"/>
     <use xlink:href="#mb899aa1e6a" x="288.884315" y="235.91052" style="fill-opacity: 0.3"/>
     <use xlink:href="#mb899aa1e6a" x="289.563461" y="241.175712" style="fill-opacity: 0.3"/>
     <use xlink:href="#mb899aa1e6a" x="294.690325" y="265.146953" style="fill-opacity: 0.3"/>
     <use xlink:href="#mb899aa1e6a" x="297.218387" y="261.743393" style="fill-opacity: 0.3"/>
     <use xlink:href="#mb899aa1e6a" x="289.096854" y="263.478982" style="fill-opacity: 0.3"/>
     <use xlink:href="#mb899aa1e6a" x="307.544477" y="257.812115" style="fill-opacity: 0.3"/>
     <use xlink:href="#mb899aa1e6a" x="298.667895" y="217.159323" style="fill-opacity: 0.3"/>
     <use xlink:href="#mb899aa1e6a" x="298.186494" y="257.677775" style="fill-opacity: 0.3"/>
     <use xlink:href="#mb899aa1e6a" x="299.070054" y="251.55418" style="fill-opacity: 0.3"/>
     <use xlink:href="#mb899aa1e6a" x="295.5884" y="252.653719" style="fill-opacity: 0.3"/>
     <use xlink:href="#mb899aa1e6a" x="293.970443" y="214.540155" style="fill-opacity: 0.3"/>
     <use xlink:href="#mb899aa1e6a" x="292.972023" y="244.848028" style="fill-opacity: 0.3"/>
     <use xlink:href="#mb899aa1e6a" x="288.818929" y="239.034539" style="fill-opacity: 0.3"/>
     <use xlink:href="#mb899aa1e6a" x="292.792976" y="225.106407" style="fill-opacity: 0.3"/>
     <use xlink:href="#mb899aa1e6a" x="300.603287" y="248.80969" style="fill-opacity: 0.3"/>
     <use xlink:href="#mb899aa1e6a" x="291.822762" y="249.645896" style="fill-opacity: 0.3"/>
     <use xlink:href="#mb899aa1e6a" x="290.473956" y="249.267305" style="fill-opacity: 0.3"/>
     <use xlink:href="#mb899aa1e6a" x="291.458287" y="261.332721" style="fill-opacity: 0.3"/>
     <use xlink:href="#mb899aa1e6a" x="291.225871" y="253.480269" style="fill-opacity: 0.3"/>
     <use xlink:href="#mb899aa1e6a" x="303.607471" y="243.739135" style="fill-opacity: 0.3"/>
     <use xlink:href="#mb899aa1e6a" x="309.508995" y="227.889104" style="fill-opacity: 0.3"/>
     <use xlink:href="#mb899aa1e6a" x="299.320344" y="247.413231" style="fill-opacity: 0.3"/>
     <use xlink:href="#mb899aa1e6a" x="312.434123" y="239.833537" style="fill-opacity: 0.3"/>
     <use xlink:href="#mb899aa1e6a" x="309.874203" y="249.159263" style="fill-opacity: 0.3"/>
     <use xlink:href="#mb899aa1e6a" x="289.551893" y="230.032691" style="fill-opacity: 0.3"/>
     <use xlink:href="#mb899aa1e6a" x="300.556826" y="151.071113" style="fill-opacity: 0.3"/>
     <use xlink:href="#mb899aa1e6a" x="304.74721" y="250.293223" style="fill-opacity: 0.3"/>
     <use xlink:href="#mb899aa1e6a" x="293.264911" y="232.884511" style="fill-opacity: 0.3"/>
     <use xlink:href="#mb899aa1e6a" x="287.176981" y="252.607195" style="fill-opacity: 0.3"/>
     <use xlink:href="#mb899aa1e6a" x="289.014304" y="255.606268" style="fill-opacity: 0.3"/>
    </g>
   </g>
   <g id="PathCollection_3">
    <g clip-path="url(#pfc43b91391)">
     <use xlink:href="#mb899aa1e6a" x="424.823991" y="205.33307" style="fill-opacity: 0.3"/>
     <use xlink:href="#mb899aa1e6a" x="446.821856" y="227.664444" style="fill-opacity: 0.3"/>
     <use xlink:href="#mb899aa1e6a" x="448.267042" y="224.670943" style="fill-opacity: 0.3"/>
     <use xlink:href="#mb899aa1e6a" x="435.917995" y="200.039815" style="fill-opacity: 0.3"/>
     <use xlink:href="#mb899aa1e6a" x="436.99266" y="240.415601" style="fill-opacity: 0.3"/>
     <use xlink:href="#mb899aa1e6a" x="440.317496" y="195.880132" style="fill-opacity: 0.3"/>
     <use xlink:href="#mb899aa1e6a" x="426.458788" y="148.054603" style="fill-opacity: 0.3"/>
     <use xlink:href="#mb899aa1e6a" x="425.104278" y="269.255355" style="fill-opacity: 0.3"/>
     <use xlink:href="#mb899aa1e6a" x="446.581544" y="271.132065" style="fill-opacity: 0.3"/>
     <use xlink:href="#mb899aa1e6a" x="441.022335" y="269.311459" style="fill-opacity: 0.3"/>
     <use xlink:href="#mb899aa1e6a" x="427.428288" y="268.385578" style="fill-opacity: 0.3"/>
     <use xlink:href="#mb899aa1e6a" x="443.722354" y="266.41079" style="fill-opacity: 0.3"/>
     <use xlink:href="#mb899aa1e6a" x="425.992662" y="265.96375" style="fill-opacity: 0.3"/>
     <use xlink:href="#mb899aa1e6a" x="434.430879" y="267.499718" style="fill-opacity: 0.3"/>
     <use xlink:href="#mb899aa1e6a" x="447.382897" y="103.334472" style="fill-opacity: 0.3"/>
     <use xlink:href="#mb899aa1e6a" x="435.94951" y="158.794993" style="fill-opacity: 0.3"/>
     <use xlink:href="#mb899aa1e6a" x="435.338485" y="178.016765" style="fill-opacity: 0.3"/>
     <use xlink:href="#mb899aa1e6a" x="429.135897" y="228.119443" style="fill-opacity: 0.3"/>
     <use xlink:href="#mb899aa1e6a" x="447.091079" y="222.017603" style="fill-opacity: 0.3"/>
     <use xlink:href="#mb899aa1e6a" x="451.705737" y="265.592105" style="fill-opacity: 0.3"/>
     <use xlink:href="#mb899aa1e6a" x="442.650278" y="261.190788" style="fill-opacity: 0.3"/>
     <use xlink:href="#mb899aa1e6a" x="446.564074" y="257.318126" style="fill-opacity: 0.3"/>
     <use xlink:href="#mb899aa1e6a" x="433.16509" y="264.768732" style="fill-opacity: 0.3"/>
     <use xlink:href="#mb899aa1e6a" x="434.278674" y="248.14713" style="fill-opacity: 0.3"/>
     <use xlink:href="#mb899aa1e6a" x="442.890703" y="264.859393" style="fill-opacity: 0.3"/>
     <use xlink:href="#mb899aa1e6a" x="427.160713" y="264.450656" style="fill-opacity: 0.3"/>
     <use xlink:href="#mb899aa1e6a" x="450.871236" y="247.287466" style="fill-opacity: 0.3"/>
     <use xlink:href="#mb899aa1e6a" x="445.242717" y="268.802524" style="fill-opacity: 0.3"/>
     <use xlink:href="#mb899aa1e6a" x="429.597963" y="265.11744" style="fill-opacity: 0.3"/>
     <use xlink:href="#mb899aa1e6a" x="446.373663" y="175.338634" style="fill-opacity: 0.3"/>
     <use xlink:href="#mb899aa1e6a" x="427.220466" y="226.371723" style="fill-opacity: 0.3"/>
     <use xlink:href="#mb899aa1e6a" x="435.516215" y="198.581942" style="fill-opacity: 0.3"/>
     <use xlink:href="#mb899aa1e6a" x="443.253757" y="245.6825" style="fill-opacity: 0.3"/>
     <use xlink:href="#mb899aa1e6a" x="451.425157" y="227.391579" style="fill-opacity: 0.3"/>
     <use xlink:href="#mb899aa1e6a" x="429.593247" y="252.259848" style="fill-opacity: 0.3"/>
     <use xlink:href="#mb899aa1e6a" x="452.639762" y="224.717957" style="fill-opacity: 0.3"/>
     <use xlink:href="#mb899aa1e6a" x="435.23259" y="255.937542" style="fill-opacity: 0.3"/>
     <use xlink:href="#mb899aa1e6a" x="449.115917" y="234.226173" style="fill-opacity: 0.3"/>
     <use xlink:href="#mb899aa1e6a" x="432.875635" y="251.853087" style="fill-opacity: 0.3"/>
     <use xlink:href="#mb899aa1e6a" x="451.247904" y="218.48247" style="fill-opacity: 0.3"/>
     <use xlink:href="#mb899aa1e6a" x="451.411546" y="224.0032" style="fill-opacity: 0.3"/>
    </g>
   </g>
   <g id="PathCollection_4">
    <g clip-path="url(#pfc43b91391)">
     <use xlink:href="#mb899aa1e6a" x="568.517128" y="227.543457" style="fill-opacity: 0.3"/>
     <use xlink:href="#mb899aa1e6a" x="591.486501" y="247.986264" style="fill-opacity: 0.3"/>
     <use xlink:href="#mb899aa1e6a" x="565.286977" y="254.502473" style="fill-opacity: 0.3"/>
     <use xlink:href="#mb899aa1e6a" x="579.462619" y="178.880735" style="fill-opacity: 0.3"/>
     <use xlink:href="#mb899aa1e6a" x="583.75096" y="223.226045" style="fill-opacity: 0.3"/>
     <use xlink:href="#mb899aa1e6a" x="568.838009" y="207.476542" style="fill-opacity: 0.3"/>
     <use xlink:href="#mb899aa1e6a" x="576.901239" y="247.385432" style="fill-opacity: 0.3"/>
     <use xlink:href="#mb899aa1e6a" x="591.625761" y="231.07011" style="fill-opacity: 0.3"/>
     <use xlink:href="#mb899aa1e6a" x="565.545633" y="249.386666" style="fill-opacity: 0.3"/>
     <use xlink:href="#mb899aa1e6a" x="566.279923" y="230.501339" style="fill-opacity: 0.3"/>
     <use xlink:href="#mb899aa1e6a" x="569.576304" y="204.285813" style="fill-opacity: 0.3"/>
     <use xlink:href="#mb899aa1e6a" x="580.784894" y="233.433952" style="fill-opacity: 0.3"/>
     <use xlink:href="#mb899aa1e6a" x="569.567092" y="235.545485" style="fill-opacity: 0.3"/>
     <use xlink:href="#mb899aa1e6a" x="588.517499" y="236.197914" style="fill-opacity: 0.3"/>
     <use xlink:href="#mb899aa1e6a" x="566.598168" y="199.744424" style="fill-opacity: 0.3"/>
     <use xlink:href="#mb899aa1e6a" x="574.645261" y="220.598113" style="fill-opacity: 0.3"/>
     <use xlink:href="#mb899aa1e6a" x="583.62789" y="223.320307" style="fill-opacity: 0.3"/>
     <use xlink:href="#mb899aa1e6a" x="570.151636" y="240.571355" style="fill-opacity: 0.3"/>
     <use xlink:href="#mb899aa1e6a" x="584.760371" y="230.847673" style="fill-opacity: 0.3"/>
     <use xlink:href="#mb899aa1e6a" x="581.39168" y="234.145509" style="fill-opacity: 0.3"/>
     <use xlink:href="#mb899aa1e6a" x="581.779757" y="240.241618" style="fill-opacity: 0.3"/>
     <use xlink:href="#mb899aa1e6a" x="570.72537" y="243.91601" style="fill-opacity: 0.3"/>
     <use xlink:href="#mb899aa1e6a" x="590.208892" y="234.001197" style="fill-opacity: 0.3"/>
     <use xlink:href="#mb899aa1e6a" x="591.757171" y="245.932664" style="fill-opacity: 0.3"/>
     <use xlink:href="#mb899aa1e6a" x="570.501491" y="228.57095" style="fill-opacity: 0.3"/>
     <use xlink:href="#mb899aa1e6a" x="583.389042" y="225.886097" style="fill-opacity: 0.3"/>
     <use xlink:href="#mb899aa1e6a" x="568.392489" y="249.057299" style="fill-opacity: 0.3"/>
     <use xlink:href="#mb899aa1e6a" x="576.417109" y="188.324723" style="fill-opacity: 0.3"/>
     <use xlink:href="#mb899aa1e6a" x="578.665654" y="270.579381" style="fill-opacity: 0.3"/>
     <use xlink:href="#mb899aa1e6a" x="564.992763" y="217.295928" style="fill-opacity: 0.3"/>
     <use xlink:href="#mb899aa1e6a" x="583.86425" y="130.889459" style="fill-opacity: 0.3"/>
     <use xlink:href="#mb899aa1e6a" x="571.582083" y="164.430729" style="fill-opacity: 0.3"/>
     <use xlink:href="#mb899aa1e6a" x="571.786529" y="82.136161" style="fill-opacity: 0.3"/>
     <use xlink:href="#mb899aa1e6a" x="589.119524" y="194.229165" style="fill-opacity: 0.3"/>
     <use xlink:href="#mb899aa1e6a" x="574.842726" y="212.73157" style="fill-opacity: 0.3"/>
     <use xlink:href="#mb899aa1e6a" x="567.498018" y="212.84667" style="fill-opacity: 0.3"/>
     <use xlink:href="#mb899aa1e6a" x="589.109175" y="215.21901" style="fill-opacity: 0.3"/>
     <use xlink:href="#mb899aa1e6a" x="580.154505" y="217.265924" style="fill-opacity: 0.3"/>
     <use xlink:href="#mb899aa1e6a" x="588.569697" y="223.060068" style="fill-opacity: 0.3"/>
     <use xlink:href="#mb899aa1e6a" x="570.980423" y="229.82711" style="fill-opacity: 0.3"/>
     <use xlink:href="#mb899aa1e6a" x="588.193065" y="236.039322" style="fill-opacity: 0.3"/>
     <use xlink:href="#mb899aa1e6a" x="591.388613" y="235.250758" style="fill-opacity: 0.3"/>
     <use xlink:href="#mb899aa1e6a" x="579.08735" y="227.707042" style="fill-opacity: 0.3"/>
     <use xlink:href="#mb899aa1e6a" x="565.268952" y="208.696224" style="fill-opacity: 0.3"/>
     <use xlink:href="#mb899aa1e6a" x="571.223959" y="222.696965" style="fill-opacity: 0.3"/>
     <use xlink:href="#mb899aa1e6a" x="569.268112" y="226.196709" style="fill-opacity: 0.3"/>
     <use xlink:href="#mb899aa1e6a" x="577.866574" y="230.991147" style="fill-opacity: 0.3"/>
     <use xlink:href="#mb899aa1e6a" x="572.842271" y="227.876708" style="fill-opacity: 0.3"/>
     <use xlink:href="#mb899aa1e6a" x="565.106573" y="246.224663" style="fill-opacity: 0.3"/>
     <use xlink:href="#mb899aa1e6a" x="575.459028" y="257.462676" style="fill-opacity: 0.3"/>
     <use xlink:href="#mb899aa1e6a" x="579.370274" y="220.421621" style="fill-opacity: 0.3"/>
     <use xlink:href="#mb899aa1e6a" x="575.80957" y="225.631034" style="fill-opacity: 0.3"/>
     <use xlink:href="#mb899aa1e6a" x="590.104808" y="263.109947" style="fill-opacity: 0.3"/>
     <use xlink:href="#mb899aa1e6a" x="585.991521" y="226.687784" style="fill-opacity: 0.3"/>
     <use xlink:href="#mb899aa1e6a" x="584.656538" y="216.92643" style="fill-opacity: 0.3"/>
     <use xlink:href="#mb899aa1e6a" x="571.454271" y="244.947762" style="fill-opacity: 0.3"/>
     <use xlink:href="#mb899aa1e6a" x="577.807437" y="243.070464" style="fill-opacity: 0.3"/>
     <use xlink:href="#mb899aa1e6a" x="583.065639" y="232.585276" style="fill-opacity: 0.3"/>
     <use xlink:href="#mb899aa1e6a" x="586.359577" y="248.265204" style="fill-opacity: 0.3"/>
     <use xlink:href="#mb899aa1e6a" x="570.778638" y="235.017669" style="fill-opacity: 0.3"/>
     <use xlink:href="#mb899aa1e6a" x="576.769174" y="260.027353" style="fill-opacity: 0.3"/>
     <use xlink:href="#mb899aa1e6a" x="587.676983" y="163.514602" style="fill-opacity: 0.3"/>
     <use xlink:href="#mb899aa1e6a" x="575.622716" y="212.74788" style="fill-opacity: 0.3"/>
    </g>
   </g>
  </g>
 </g>
 <defs>
  <clipPath id="pfc43b91391">
   <rect x="90" y="43.2" width="558" height="277.2"/>
  </clipPath>
 </defs>
</svg>
