<?xml version="1.0" encoding="utf-8" standalone="no"?>
<!DOCTYPE svg PUBLIC "-//W3C//DTD SVG 1.1//EN"
  "http://www.w3.org/Graphics/SVG/1.1/DTD/svg11.dtd">
<svg xmlns:xlink="http://www.w3.org/1999/xlink" width="720pt" height="360pt" viewBox="0 0 720 360" xmlns="http://www.w3.org/2000/svg" version="1.1">
 <metadata>
  <rdf:RDF xmlns:dc="http://purl.org/dc/elements/1.1/" xmlns:cc="http://creativecommons.org/ns#" xmlns:rdf="http://www.w3.org/1999/02/22-rdf-syntax-ns#">
   <cc:Work>
    <dc:type rdf:resource="http://purl.org/dc/dcmitype/StillImage"/>
    <dc:date>2025-10-01T10:09:23.498827</dc:date>
    <dc:format>image/svg+xml</dc:format>
    <dc:creator>
     <cc:Agent>
      <dc:title>Matplotlib v3.10.3, https://matplotlib.org/</dc:title>
     </cc:Agent>
    </dc:creator>
   </cc:Work>
  </rdf:RDF>
 </metadata>
 <defs>
  <style type="text/css">*{stroke-linejoin: round; stroke-linecap: butt}</style>
 </defs>
 <g id="figure_1">
  <g id="patch_1">
   <path d="M 0 360 
L 720 360 
L 720 0 
L 0 0 
z
" style="fill: #ffffff"/>
  </g>
  <g id="axes_1">
   <g id="patch_2">
    <path d="M 90 320.4 
L 648 320.4 
L 648 43.2 
L 90 43.2 
z
" style="fill: #ffffff"/>
   </g>
   <g id="FillBetweenPolyCollection_1">
    <defs>
     <path id="m0fe8da8316" d="M 160.530891 -67.883179 
L 158.969109 -67.883179 
L 158.738409 -68.977203 
L 158.452467 -70.071227 
L 158.101816 -71.165251 
L 157.676298 -72.259275 
L 157.165235 -73.353299 
L 156.557629 -74.447323 
L 155.842419 -75.541347 
L 155.008774 -76.635371 
L 154.046425 -77.729395 
L 152.946024 -78.823418 
L 151.699526 -79.917442 
L 150.300589 -81.011466 
L 148.744973 -82.10549 
L 147.030929 -83.199514 
L 145.159581 -84.293538 
L 143.135262 -85.387562 
L 140.965806 -86.481586 
L 138.66277 -87.57561 
L 136.241575 -88.669634 
L 133.721523 -89.763658 
L 131.125701 -90.857682 
L 128.480732 -91.951706 
L 125.816371 -93.04573 
L 123.164944 -94.139754 
L 120.560641 -95.233778 
L 118.038674 -96.327802 
L 115.634344 -97.421826 
L 113.38205 -98.51585 
L 111.314283 -99.609873 
L 109.460675 -100.703897 
L 107.847138 -101.797921 
L 106.495132 -102.891945 
L 105.421115 -103.985969 
L 104.636164 -105.079993 
L 104.145803 -106.174017 
L 103.95 -107.268041 
L 104.043326 -108.362065 
L 104.415255 -109.456089 
L 105.05056 -110.550113 
L 105.92979 -111.644137 
L 107.029818 -112.738161 
L 108.324417 -113.832185 
L 109.784906 -114.926209 
L 111.380821 -116.020233 
L 113.080656 -117.114257 
L 114.852635 -118.208281 
L 116.665544 -119.302305 
L 118.489562 -120.396328 
L 120.2971 -121.490352 
L 122.063562 -122.584376 
L 123.768008 -123.6784 
L 125.393645 -124.772424 
L 126.928104 -125.866448 
L 128.363474 -126.960472 
L 129.696063 -128.054496 
L 130.925919 -129.14852 
L 132.056127 -130.242544 
L 133.091963 -131.336568 
L 134.039969 -132.430592 
L 134.907054 -133.524616 
L 135.699706 -134.61864 
L 136.423397 -135.712664 
L 137.082249 -136.806688 
L 137.678977 -137.900712 
L 138.215127 -138.994736 
L 138.691569 -140.08876 
L 139.109173 -141.182783 
L 139.469588 -142.276807 
L 139.776021 -143.370831 
L 140.03391 -144.464855 
L 140.251398 -145.558879 
L 140.439533 -146.652903 
L 140.612151 -147.746927 
L 140.785426 -148.840951 
L 140.977124 -149.934975 
L 141.20561 -151.028999 
L 141.488696 -152.123023 
L 141.842446 -153.217047 
L 142.280031 -154.311071 
L 142.810755 -155.405095 
L 143.43934 -156.499119 
L 144.165529 -157.593143 
L 144.984043 -158.687167 
L 145.884896 -159.781191 
L 146.854025 -160.875215 
L 147.87418 -161.969238 
L 148.925997 -163.063262 
L 149.989143 -164.157286 
L 151.043462 -165.25131 
L 152.070015 -166.345334 
L 153.051964 -167.439358 
L 153.975229 -168.533382 
L 154.828912 -169.627406 
L 155.605479 -170.72143 
L 156.300707 -171.815454 
L 156.91345 -172.909478 
L 157.445255 -174.003502 
L 157.899881 -175.097526 
L 158.282776 -176.19155 
L 161.217224 -176.19155 
L 161.217224 -176.19155 
L 161.600119 -175.097526 
L 162.054745 -174.003502 
L 162.58655 -172.909478 
L 163.199293 -171.815454 
L 163.894521 -170.72143 
L 164.671088 -169.627406 
L 165.524771 -168.533382 
L 166.448036 -167.439358 
L 167.429985 -166.345334 
L 168.456538 -165.25131 
L 169.510857 -164.157286 
L 170.574003 -163.063262 
L 171.62582 -161.969238 
L 172.645975 -160.875215 
L 173.615104 -159.781191 
L 174.515957 -158.687167 
L 175.334471 -157.593143 
L 176.06066 -156.499119 
L 176.689245 -155.405095 
L 177.219969 -154.311071 
L 177.657554 -153.217047 
L 178.011304 -152.123023 
L 178.29439 -151.028999 
L 178.522876 -149.934975 
L 178.714574 -148.840951 
L 178.887849 -147.746927 
L 179.060467 -146.652903 
L 179.248602 -145.558879 
L 179.46609 -144.464855 
L 179.723979 -143.370831 
L 180.030412 -142.276807 
L 180.390827 -141.182783 
L 180.808431 -140.08876 
L 181.284873 -138.994736 
L 181.821023 -137.900712 
L 182.417751 -136.806688 
L 183.076603 -135.712664 
L 183.800294 -134.61864 
L 184.592946 -133.524616 
L 185.460031 -132.430592 
L 186.408037 -131.336568 
L 187.443873 -130.242544 
L 188.574081 -129.14852 
L 189.803937 -128.054496 
L 191.136526 -126.960472 
L 192.571896 -125.866448 
L 194.106355 -124.772424 
L 195.731992 -123.6784 
L 197.436438 -122.584376 
L 199.2029 -121.490352 
L 201.010438 -120.396328 
L 202.834456 -119.302305 
L 204.647365 -118.208281 
L 206.419344 -117.114257 
L 208.119179 -116.020233 
L 209.715094 -114.926209 
L 211.175583 -113.832185 
L 212.470182 -112.738161 
L 213.57021 -111.644137 
L 214.44944 -110.550113 
L 215.084745 -109.456089 
L 215.456674 -108.362065 
L 215.55 -107.268041 
L 215.354197 -106.174017 
L 214.863836 -105.079993 
L 214.078885 -103.985969 
L 213.004868 -102.891945 
L 211.652862 -101.797921 
L 210.039325 -100.703897 
L 208.185717 -99.609873 
L 206.11795 -98.51585 
L 203.865656 -97.421826 
L 201.461326 -96.327802 
L 198.939359 -95.233778 
L 196.335056 -94.139754 
L 193.683629 -93.04573 
L 191.019268 -91.951706 
L 188.374299 -90.857682 
L 185.778477 -89.763658 
L 183.258425 -88.669634 
L 180.83723 -87.57561 
L 178.534194 -86.481586 
L 176.364738 -85.387562 
L 174.340419 -84.293538 
L 172.469071 -83.199514 
L 170.755027 -82.10549 
L 169.199411 -81.011466 
L 167.800474 -79.917442 
L 166.553976 -78.823418 
L 165.453575 -77.729395 
L 164.491226 -76.635371 
L 163.657581 -75.541347 
L 162.942371 -74.447323 
L 162.334765 -73.353299 
L 161.823702 -72.259275 
L 161.398184 -71.165251 
L 161.047533 -70.071227 
L 160.761591 -68.977203 
L 160.530891 -67.883179 
z
" style="stroke: #3d3d3d; stroke-width: 1.25"/>
    </defs>
    <g clip-path="url(#p5a7f334e8f)">
     <use xlink:href="#m0fe8da8316" x="0" y="360" style="fill: #3274a1; stroke: #3d3d3d; stroke-width: 1.25"/>
    </g>
   </g>
   <g id="FillBetweenPolyCollection_2">
    <defs>
     <path id="mb22ee95cae" d="M 300.057883 -72.570167 
L 298.442117 -72.570167 
L 298.032331 -74.253568 
L 297.462453 -75.936969 
L 296.692726 -77.62037 
L 295.682477 -79.30377 
L 294.393293 -80.987171 
L 292.792597 -82.670572 
L 290.857137 -84.353973 
L 288.575881 -86.037373 
L 285.951909 -87.720774 
L 283.003115 -89.404175 
L 279.76183 -91.087575 
L 276.273747 -92.770976 
L 272.596625 -94.454377 
L 268.799192 -96.137778 
L 264.960314 -97.821178 
L 261.168129 -99.504579 
L 257.518489 -101.18798 
L 254.111926 -102.871381 
L 251.048643 -104.554781 
L 248.421586 -106.238182 
L 246.308374 -107.921583 
L 244.763528 -109.604984 
L 243.81265 -111.288384 
L 243.45 -112.971785 
L 243.640146 -114.655186 
L 244.323413 -116.338586 
L 245.423908 -118.021987 
L 246.858382 -119.705388 
L 248.544188 -121.388789 
L 250.405131 -123.072189 
L 252.374812 -124.75559 
L 254.397902 -126.438991 
L 256.430228 -128.122392 
L 258.438623 -129.805792 
L 260.401081 -131.489193 
L 262.307169 -133.172594 
L 264.158125 -134.855995 
L 265.965832 -136.539395 
L 267.750068 -138.222796 
L 269.533939 -139.906197 
L 271.338109 -141.589597 
L 273.174959 -143.272998 
L 275.044095 -144.956399 
L 276.930376 -146.6398 
L 278.805112 -148.3232 
L 280.630275 -150.006601 
L 282.36485 -151.690002 
L 283.971924 -153.373403 
L 285.424977 -155.056803 
L 286.712089 -156.740204 
L 287.837294 -158.423605 
L 288.818984 -160.107006 
L 289.685903 -161.790406 
L 290.471703 -163.473807 
L 291.209227 -165.157208 
L 291.925586 -166.840608 
L 292.638829 -168.524009 
L 293.356562 -170.20741 
L 294.076472 -171.890811 
L 294.788355 -173.574211 
L 295.477053 -175.257612 
L 296.125636 -176.941013 
L 296.71824 -178.624414 
L 297.242161 -180.307814 
L 297.689008 -181.991215 
L 298.054935 -183.674616 
L 298.340131 -185.358017 
L 298.547853 -187.041417 
L 298.683315 -188.724818 
L 298.752686 -190.408219 
L 298.762407 -192.091619 
L 298.718889 -193.77502 
L 298.628559 -195.458421 
L 298.498157 -197.141822 
L 298.335101 -198.825222 
L 298.147765 -200.508623 
L 297.945547 -202.192024 
L 297.738663 -203.875425 
L 297.537703 -205.558825 
L 297.353031 -207.242226 
L 297.194155 -208.925627 
L 297.069167 -210.609028 
L 296.984336 -212.292428 
L 296.943854 -213.975829 
L 296.949705 -215.65923 
L 297.001631 -217.34263 
L 297.097149 -219.026031 
L 297.231628 -220.709432 
L 297.398481 -222.392833 
L 297.58951 -224.076233 
L 297.795433 -225.759634 
L 298.006583 -227.443035 
L 298.21369 -229.126436 
L 298.408649 -230.809836 
L 298.585135 -232.493237 
L 298.738966 -234.176638 
L 298.868185 -235.860039 
L 298.972856 -237.543439 
L 299.054653 -239.22684 
L 299.445347 -239.22684 
L 299.445347 -239.22684 
L 299.527144 -237.543439 
L 299.631815 -235.860039 
L 299.761034 -234.176638 
L 299.914865 -232.493237 
L 300.091351 -230.809836 
L 300.28631 -229.126436 
L 300.493417 -227.443035 
L 300.704567 -225.759634 
L 300.91049 -224.076233 
L 301.101519 -222.392833 
L 301.268372 -220.709432 
L 301.402851 -219.026031 
L 301.498369 -217.34263 
L 301.550295 -215.65923 
L 301.556146 -213.975829 
L 301.515664 -212.292428 
L 301.430833 -210.609028 
L 301.305845 -208.925627 
L 301.146969 -207.242226 
L 300.962297 -205.558825 
L 300.761337 -203.875425 
L 300.554453 -202.192024 
L 300.352235 -200.508623 
L 300.164899 -198.825222 
L 300.001843 -197.141822 
L 299.871441 -195.458421 
L 299.781111 -193.77502 
L 299.737593 -192.091619 
L 299.747314 -190.408219 
L 299.816685 -188.724818 
L 299.952147 -187.041417 
L 300.159869 -185.358017 
L 300.445065 -183.674616 
L 300.810992 -181.991215 
L 301.257839 -180.307814 
L 301.78176 -178.624414 
L 302.374364 -176.941013 
L 303.022947 -175.257612 
L 303.711645 -173.574211 
L 304.423528 -171.890811 
L 305.143438 -170.20741 
L 305.861171 -168.524009 
L 306.574414 -166.840608 
L 307.290773 -165.157208 
L 308.028297 -163.473807 
L 308.814097 -161.790406 
L 309.681016 -160.107006 
L 310.662706 -158.423605 
L 311.787911 -156.740204 
L 313.075023 -155.056803 
L 314.528076 -153.373403 
L 316.13515 -151.690002 
L 317.869725 -150.006601 
L 319.694888 -148.3232 
L 321.569624 -146.6398 
L 323.455905 -144.956399 
L 325.325041 -143.272998 
L 327.161891 -141.589597 
L 328.966061 -139.906197 
L 330.749932 -138.222796 
L 332.534168 -136.539395 
L 334.341875 -134.855995 
L 336.192831 -133.172594 
L 338.098919 -131.489193 
L 340.061377 -129.805792 
L 342.069772 -128.122392 
L 344.102098 -126.438991 
L 346.125188 -124.75559 
L 348.094869 -123.072189 
L 349.955812 -121.388789 
L 351.641618 -119.705388 
L 353.076092 -118.021987 
L 354.176587 -116.338586 
L 354.859854 -114.655186 
L 355.05 -112.971785 
L 354.68735 -111.288384 
L 353.736472 -109.604984 
L 352.191626 -107.921583 
L 350.078414 -106.238182 
L 347.451357 -104.554781 
L 344.388074 -102.871381 
L 340.981511 -101.18798 
L 337.331871 -99.504579 
L 333.539686 -97.821178 
L 329.700808 -96.137778 
L 325.903375 -94.454377 
L 322.226253 -92.770976 
L 318.73817 -91.087575 
L 315.496885 -89.404175 
L 312.548091 -87.720774 
L 309.924119 -86.037373 
L 307.642863 -84.353973 
L 305.707403 -82.670572 
L 304.106707 -80.987171 
L 302.817523 -79.30377 
L 301.807274 -77.62037 
L 301.037547 -75.936969 
L 300.467669 -74.253568 
L 300.057883 -72.570167 
z
" style="stroke: #3d3d3d; stroke-width: 1.25"/>
    </defs>
    <g clip-path="url(#p5a7f334e8f)">
     <use xlink:href="#mb22ee95cae" x="0" y="360" style="fill: #e1812c; stroke: #3d3d3d; stroke-width: 1.25"/>
    </g>
   </g>
   <g id="FillBetweenPolyCollection_3">
    <defs>
     <path id="m3964689576" d="M 441.678981 -52.2 
L 435.821019 -52.2 
L 434.79017 -54.62802 
L 433.489913 -57.05604 
L 431.883855 -59.48406 
L 429.941739 -61.91208 
L 427.643285 -64.3401 
L 424.982059 -66.768119 
L 421.96892 -69.196139 
L 418.634551 -71.624159 
L 415.030611 -74.052179 
L 411.229128 -76.480199 
L 407.319925 -78.908219 
L 403.406106 -81.336239 
L 399.597867 -83.764259 
L 396.005182 -86.192279 
L 392.730061 -88.620299 
L 389.859234 -91.048319 
L 387.458087 -93.476338 
L 385.566546 -95.904358 
L 384.197409 -98.332378 
L 383.337284 -100.760398 
L 382.95 -103.188418 
L 382.98201 -105.616438 
L 383.369083 -108.044458 
L 384.043437 -110.472478 
L 384.940418 -112.900498 
L 386.003976 -115.328518 
L 387.190324 -117.756537 
L 388.469515 -120.184557 
L 389.824912 -122.612577 
L 391.250856 -125.040597 
L 392.749049 -127.468617 
L 394.32432 -129.896637 
L 395.980475 -132.324657 
L 397.716866 -134.752677 
L 399.526143 -137.180697 
L 401.393439 -139.608717 
L 403.296974 -142.036737 
L 405.209876 -144.464756 
L 407.102794 -146.892776 
L 408.946841 -149.320796 
L 410.716372 -151.748816 
L 412.39119 -154.176836 
L 413.957915 -156.604856 
L 415.41041 -159.032876 
L 416.749312 -161.460896 
L 417.980867 -163.888916 
L 419.115309 -166.316936 
L 420.165091 -168.744956 
L 421.143207 -171.172975 
L 422.061833 -173.600995 
L 422.931381 -176.029015 
L 423.760019 -178.457035 
L 424.55363 -180.885055 
L 425.3161 -183.313075 
L 426.049848 -185.741095 
L 426.756435 -188.169115 
L 427.437167 -190.597135 
L 428.09356 -193.025155 
L 428.727619 -195.453175 
L 429.341882 -197.881194 
L 429.939255 -200.309214 
L 430.522642 -202.737234 
L 431.094468 -205.165254 
L 431.656166 -207.593274 
L 432.207707 -210.021294 
L 432.747285 -212.449314 
L 433.271199 -214.877334 
L 433.773977 -217.305354 
L 434.24875 -219.733374 
L 434.687844 -222.161394 
L 435.083528 -224.589413 
L 435.428837 -227.017433 
L 435.718388 -229.445453 
L 435.949074 -231.873473 
L 436.12059 -234.301493 
L 436.235692 -236.729513 
L 436.300185 -239.157533 
L 436.322619 -241.585553 
L 436.313718 -244.013573 
L 436.285605 -246.441593 
L 436.250888 -248.869612 
L 436.221701 -251.297632 
L 436.208799 -253.725652 
L 436.22079 -256.153672 
L 436.26359 -258.581692 
L 436.34013 -261.009712 
L 436.450354 -263.437732 
L 436.591485 -265.865752 
L 436.758506 -268.293772 
L 436.944808 -270.721792 
L 437.142904 -273.149812 
L 437.345145 -275.577831 
L 437.544352 -278.005851 
L 437.734314 -280.433871 
L 437.910129 -282.861891 
L 438.068358 -285.289911 
L 438.207033 -287.717931 
L 438.325525 -290.145951 
L 438.424326 -292.573971 
L 439.075674 -292.573971 
L 439.075674 -292.573971 
L 439.174475 -290.145951 
L 439.292967 -287.717931 
L 439.431642 -285.289911 
L 439.589871 -282.861891 
L 439.765686 -280.433871 
L 439.955648 -278.005851 
L 440.154855 -275.577831 
L 440.357096 -273.149812 
L 440.555192 -270.721792 
L 440.741494 -268.293772 
L 440.908515 -265.865752 
L 441.049646 -263.437732 
L 441.15987 -261.009712 
L 441.23641 -258.581692 
L 441.27921 -256.153672 
L 441.291201 -253.725652 
L 441.278299 -251.297632 
L 441.249112 -248.869612 
L 441.214395 -246.441593 
L 441.186282 -244.013573 
L 441.177381 -241.585553 
L 441.199815 -239.157533 
L 441.264308 -236.729513 
L 441.37941 -234.301493 
L 441.550926 -231.873473 
L 441.781612 -229.445453 
L 442.071163 -227.017433 
L 442.416472 -224.589413 
L 442.812156 -222.161394 
L 443.25125 -219.733374 
L 443.726023 -217.305354 
L 444.228801 -214.877334 
L 444.752715 -212.449314 
L 445.292293 -210.021294 
L 445.843834 -207.593274 
L 446.405532 -205.165254 
L 446.977358 -202.737234 
L 447.560745 -200.309214 
L 448.158118 -197.881194 
L 448.772381 -195.453175 
L 449.40644 -193.025155 
L 450.062833 -190.597135 
L 450.743565 -188.169115 
L 451.450152 -185.741095 
L 452.1839 -183.313075 
L 452.94637 -180.885055 
L 453.739981 -178.457035 
L 454.568619 -176.029015 
L 455.438167 -173.600995 
L 456.356793 -171.172975 
L 457.334909 -168.744956 
L 458.384691 -166.316936 
L 459.519133 -163.888916 
L 460.750688 -161.460896 
L 462.08959 -159.032876 
L 463.542085 -156.604856 
L 465.10881 -154.176836 
L 466.783628 -151.748816 
L 468.553159 -149.320796 
L 470.397206 -146.892776 
L 472.290124 -144.464756 
L 474.203026 -142.036737 
L 476.106561 -139.608717 
L 477.973857 -137.180697 
L 479.783134 -134.752677 
L 481.519525 -132.324657 
L 483.17568 -129.896637 
L 484.750951 -127.468617 
L 486.249144 -125.040597 
L 487.675088 -122.612577 
L 489.030485 -120.184557 
L 490.309676 -117.756537 
L 491.496024 -115.328518 
L 492.559582 -112.900498 
L 493.456563 -110.472478 
L 494.130917 -108.044458 
L 494.51799 -105.616438 
L 494.55 -103.188418 
L 494.162716 -100.760398 
L 493.302591 -98.332378 
L 491.933454 -95.904358 
L 490.041913 -93.476338 
L 487.640766 -91.048319 
L 484.769939 -88.620299 
L 481.494818 -86.192279 
L 477.902133 -83.764259 
L 474.093894 -81.336239 
L 470.180075 -78.908219 
L 466.270872 -76.480199 
L 462.469389 -74.052179 
L 458.865449 -71.624159 
L 455.53108 -69.196139 
L 452.517941 -66.768119 
L 449.856715 -64.3401 
L 447.558261 -61.91208 
L 445.616145 -59.48406 
L 444.010087 -57.05604 
L 442.70983 -54.62802 
L 441.678981 -52.2 
z
" style="stroke: #3d3d3d; stroke-width: 1.25"/>
    </defs>
    <g clip-path="url(#p5a7f334e8f)">
     <use xlink:href="#m3964689576" x="0" y="360" style="fill: #3a923a; stroke: #3d3d3d; stroke-width: 1.25"/>
    </g>
   </g>
   <g id="FillBetweenPolyCollection_4">
    <defs>
     <path id="mb99b745cea" d="M 578.537993 -62.551883 
L 577.962007 -62.551883 
L 577.808688 -64.992773 
L 577.591374 -67.433663 
L 577.291402 -69.874553 
L 576.887444 -72.315443 
L 576.355779 -74.756333 
L 575.670646 -77.197223 
L 574.804715 -79.638113 
L 573.729728 -82.079004 
L 572.417446 -84.519894 
L 570.841024 -86.960784 
L 568.976907 -89.401674 
L 566.807202 -91.842564 
L 564.322332 -94.283454 
L 561.523625 -96.724344 
L 558.425435 -99.165234 
L 555.05652 -101.606124 
L 551.460586 -104.047014 
L 547.696234 -106.487904 
L 543.836679 -108.928794 
L 539.969548 -111.369684 
L 536.196734 -113.810574 
L 532.633739 -116.251465 
L 529.407504 -118.692355 
L 526.651609 -121.133245 
L 524.498141 -123.574135 
L 523.066434 -126.015025 
L 522.45 -128.455915 
L 522.703891 -130.896805 
L 523.835108 -133.337695 
L 525.798278 -135.778585 
L 528.49776 -138.219475 
L 531.79602 -140.660365 
L 535.52684 -143.101255 
L 539.511127 -145.542145 
L 543.572911 -147.983035 
L 547.5534 -150.423926 
L 551.321631 -152.864816 
L 554.78095 -155.305706 
L 557.871192 -157.746596 
L 560.566924 -160.187486 
L 562.872463 -162.628376 
L 564.81468 -165.069266 
L 566.434739 -167.510156 
L 567.78005 -169.951046 
L 568.897554 -172.391936 
L 569.829185 -174.832826 
L 570.609852 -177.273716 
L 571.267711 -179.714606 
L 571.826008 -182.155496 
L 572.305454 -184.596387 
L 572.726084 -187.037277 
L 573.107877 -189.478167 
L 573.469881 -191.919057 
L 573.828168 -194.359947 
L 574.193374 -196.800837 
L 574.568718 -199.241727 
L 574.949322 -201.682617 
L 575.323197 -204.123507 
L 575.673834 -206.564397 
L 575.98384 -209.005287 
L 576.238801 -211.446177 
L 576.430494 -213.887067 
L 576.558777 -216.327957 
L 576.631782 -218.768848 
L 576.664463 -221.209738 
L 576.67587 -223.650628 
L 576.685778 -226.091518 
L 576.711383 -228.532408 
L 576.764685 -230.973298 
L 576.851028 -233.414188 
L 576.96892 -235.855078 
L 577.111028 -238.295968 
L 577.265959 -240.736858 
L 577.420383 -243.177748 
L 577.561015 -245.618638 
L 577.676163 -248.059528 
L 577.7567 -250.500418 
L 577.796545 -252.941309 
L 577.792813 -255.382199 
L 577.745842 -257.823089 
L 577.659227 -260.263979 
L 577.539845 -262.704869 
L 577.397748 -265.145759 
L 577.245742 -267.586649 
L 577.098486 -270.027539 
L 576.971081 -272.468429 
L 576.877292 -274.909319 
L 576.827691 -277.350209 
L 576.828139 -279.791099 
L 576.878942 -282.231989 
L 576.974926 -284.672879 
L 577.10641 -287.11377 
L 577.260882 -289.55466 
L 577.424984 -291.99555 
L 577.586394 -294.43644 
L 577.735256 -296.87733 
L 577.864962 -299.31822 
L 577.972254 -301.75911 
L 578.056793 -304.2 
L 578.443207 -304.2 
L 578.443207 -304.2 
L 578.527746 -301.75911 
L 578.635038 -299.31822 
L 578.764744 -296.87733 
L 578.913606 -294.43644 
L 579.075016 -291.99555 
L 579.239118 -289.55466 
L 579.39359 -287.11377 
L 579.525074 -284.672879 
L 579.621058 -282.231989 
L 579.671861 -279.791099 
L 579.672309 -277.350209 
L 579.622708 -274.909319 
L 579.528919 -272.468429 
L 579.401514 -270.027539 
L 579.254258 -267.586649 
L 579.102252 -265.145759 
L 578.960155 -262.704869 
L 578.840773 -260.263979 
L 578.754158 -257.823089 
L 578.707187 -255.382199 
L 578.703455 -252.941309 
L 578.7433 -250.500418 
L 578.823837 -248.059528 
L 578.938985 -245.618638 
L 579.079617 -243.177748 
L 579.234041 -240.736858 
L 579.388972 -238.295968 
L 579.53108 -235.855078 
L 579.648972 -233.414188 
L 579.735315 -230.973298 
L 579.788617 -228.532408 
L 579.814222 -226.091518 
L 579.82413 -223.650628 
L 579.835537 -221.209738 
L 579.868218 -218.768848 
L 579.941223 -216.327957 
L 580.069506 -213.887067 
L 580.261199 -211.446177 
L 580.51616 -209.005287 
L 580.826166 -206.564397 
L 581.176803 -204.123507 
L 581.550678 -201.682617 
L 581.931282 -199.241727 
L 582.306626 -196.800837 
L 582.671832 -194.359947 
L 583.030119 -191.919057 
L 583.392123 -189.478167 
L 583.773916 -187.037277 
L 584.194546 -184.596387 
L 584.673992 -182.155496 
L 585.232289 -179.714606 
L 585.890148 -177.273716 
L 586.670815 -174.832826 
L 587.602446 -172.391936 
L 588.71995 -169.951046 
L 590.065261 -167.510156 
L 591.68532 -165.069266 
L 593.627537 -162.628376 
L 595.933076 -160.187486 
L 598.628808 -157.746596 
L 601.71905 -155.305706 
L 605.178369 -152.864816 
L 608.9466 -150.423926 
L 612.927089 -147.983035 
L 616.988873 -145.542145 
L 620.97316 -143.101255 
L 624.70398 -140.660365 
L 628.00224 -138.219475 
L 630.701722 -135.778585 
L 632.664892 -133.337695 
L 633.796109 -130.896805 
L 634.05 -128.455915 
L 633.433566 -126.015025 
L 632.001859 -123.574135 
L 629.848391 -121.133245 
L 627.092496 -118.692355 
L 623.866261 -116.251465 
L 620.303266 -113.810574 
L 616.530452 -111.369684 
L 612.663321 -108.928794 
L 608.803766 -106.487904 
L 605.039414 -104.047014 
L 601.44348 -101.606124 
L 598.074565 -99.165234 
L 594.976375 -96.724344 
L 592.177668 -94.283454 
L 589.692798 -91.842564 
L 587.523093 -89.401674 
L 585.658976 -86.960784 
L 584.082554 -84.519894 
L 582.770272 -82.079004 
L 581.695285 -79.638113 
L 580.829354 -77.197223 
L 580.144221 -74.756333 
L 579.612556 -72.315443 
L 579.208598 -69.874553 
L 578.908626 -67.433663 
L 578.691312 -64.992773 
L 578.537993 -62.551883 
z
" style="stroke: #3d3d3d; stroke-width: 1.25"/>
    </defs>
    <g clip-path="url(#p5a7f334e8f)">
     <use xlink:href="#mb99b745cea" x="0" y="360" style="fill: #c03d3e; stroke: #3d3d3d; stroke-width: 1.25"/>
    </g>
   </g>
   <g id="matplotlib.axis_1">
    <g id="xtick_1">
     <g id="line2d_1">
      <defs>
       <path id="m2371b2c8cb" d="M 0 0 
L 0 3.5 
" style="stroke: #000000; stroke-width: 0.8"/>
      </defs>
      <g>
       <use xlink:href="#m2371b2c8cb" x="159.75" y="320.4" style="stroke: #000000; stroke-width: 0.8"/>
      </g>
     </g>
     <g id="text_1">
      <!-- No -->
      <g transform="translate(152.95 334.998438) scale(0.1 -0.1)">
       <defs>
        <path id="DejaVuSans-4e" d="M 628 4666 
L 1478 4666 
L 3547 763 
L 3547 4666 
L 4159 4666 
L 4159 0 
L 3309 0 
L 1241 3903 
L 1241 0 
L 628 0 
L 628 4666 
z
" transform="scale(0.015625)"/>
        <path id="DejaVuSans-6f" d="M 1959 3097 
Q 1497 3097 1228 2736 
Q 959 2375 959 1747 
Q 959 1119 1226 758 
Q 1494 397 1959 397 
Q 2419 397 2687 759 
Q 2956 1122 2956 1747 
Q 2956 2369 2687 2733 
Q 2419 3097 1959 3097 
z
M 1959 3584 
Q 2709 3584 3137 3096 
Q 3566 2609 3566 1747 
Q 3566 888 3137 398 
Q 2709 -91 1959 -91 
Q 1206 -91 779 398 
Q 353 888 353 1747 
Q 353 2609 779 3096 
Q 1206 3584 1959 3584 
z
" transform="scale(0.015625)"/>
       </defs>
       <use xlink:href="#DejaVuSans-4e"/>
       <use xlink:href="#DejaVuSans-6f" transform="translate(74.804688 0)"/>
      </g>
     </g>
    </g>
    <g id="xtick_2">
     <g id="line2d_2">
      <g>
       <use xlink:href="#m2371b2c8cb" x="299.25" y="320.4" style="stroke: #000000; stroke-width: 0.8"/>
      </g>
     </g>
     <g id="text_2">
      <!-- Specific -->
      <g transform="translate(279.788281 334.998438) scale(0.1 -0.1)">
       <defs>
        <path id="DejaVuSans-53" d="M 3425 4513 
L 3425 3897 
Q 3066 4069 2747 4153 
Q 2428 4238 2131 4238 
Q 1616 4238 1336 4038 
Q 1056 3838 1056 3469 
Q 1056 3159 1242 3001 
Q 1428 2844 1947 2747 
L 2328 2669 
Q 3034 2534 3370 2195 
Q 3706 1856 3706 1288 
Q 3706 609 3251 259 
Q 2797 -91 1919 -91 
Q 1588 -91 1214 -16 
Q 841 59 441 206 
L 441 856 
Q 825 641 1194 531 
Q 1563 422 1919 422 
Q 2459 422 2753 634 
Q 3047 847 3047 1241 
Q 3047 1584 2836 1778 
Q 2625 1972 2144 2069 
L 1759 2144 
Q 1053 2284 737 2584 
Q 422 2884 422 3419 
Q 422 4038 858 4394 
Q 1294 4750 2059 4750 
Q 2388 4750 2728 4690 
Q 3069 4631 3425 4513 
z
" transform="scale(0.015625)"/>
        <path id="DejaVuSans-70" d="M 1159 525 
L 1159 -1331 
L 581 -1331 
L 581 3500 
L 1159 3500 
L 1159 2969 
Q 1341 3281 1617 3432 
Q 1894 3584 2278 3584 
Q 2916 3584 3314 3078 
Q 3713 2572 3713 1747 
Q 3713 922 3314 415 
Q 2916 -91 2278 -91 
Q 1894 -91 1617 61 
Q 1341 213 1159 525 
z
M 3116 1747 
Q 3116 2381 2855 2742 
Q 2594 3103 2138 3103 
Q 1681 3103 1420 2742 
Q 1159 2381 1159 1747 
Q 1159 1113 1420 752 
Q 1681 391 2138 391 
Q 2594 391 2855 752 
Q 3116 1113 3116 1747 
z
" transform="scale(0.015625)"/>
        <path id="DejaVuSans-65" d="M 3597 1894 
L 3597 1613 
L 953 1613 
Q 991 1019 1311 708 
Q 1631 397 2203 397 
Q 2534 397 2845 478 
Q 3156 559 3463 722 
L 3463 178 
Q 3153 47 2828 -22 
Q 2503 -91 2169 -91 
Q 1331 -91 842 396 
Q 353 884 353 1716 
Q 353 2575 817 3079 
Q 1281 3584 2069 3584 
Q 2775 3584 3186 3129 
Q 3597 2675 3597 1894 
z
M 3022 2063 
Q 3016 2534 2758 2815 
Q 2500 3097 2075 3097 
Q 1594 3097 1305 2825 
Q 1016 2553 972 2059 
L 3022 2063 
z
" transform="scale(0.015625)"/>
        <path id="DejaVuSans-63" d="M 3122 3366 
L 3122 2828 
Q 2878 2963 2633 3030 
Q 2388 3097 2138 3097 
Q 1578 3097 1268 2742 
Q 959 2388 959 1747 
Q 959 1106 1268 751 
Q 1578 397 2138 397 
Q 2388 397 2633 464 
Q 2878 531 3122 666 
L 3122 134 
Q 2881 22 2623 -34 
Q 2366 -91 2075 -91 
Q 1284 -91 818 406 
Q 353 903 353 1747 
Q 353 2603 823 3093 
Q 1294 3584 2113 3584 
Q 2378 3584 2631 3529 
Q 2884 3475 3122 3366 
z
" transform="scale(0.015625)"/>
        <path id="DejaVuSans-69" d="M 603 3500 
L 1178 3500 
L 1178 0 
L 603 0 
L 603 3500 
z
M 603 4863 
L 1178 4863 
L 1178 4134 
L 603 4134 
L 603 4863 
z
" transform="scale(0.015625)"/>
        <path id="DejaVuSans-66" d="M 2375 4863 
L 2375 4384 
L 1825 4384 
Q 1516 4384 1395 4259 
Q 1275 4134 1275 3809 
L 1275 3500 
L 2222 3500 
L 2222 3053 
L 1275 3053 
L 1275 0 
L 697 0 
L 697 3053 
L 147 3053 
L 147 3500 
L 697 3500 
L 697 3744 
Q 697 4328 969 4595 
Q 1241 4863 1831 4863 
L 2375 4863 
z
" transform="scale(0.015625)"/>
       </defs>
       <use xlink:href="#DejaVuSans-53"/>
       <use xlink:href="#DejaVuSans-70" transform="translate(63.476562 0)"/>
       <use xlink:href="#DejaVuSans-65" transform="translate(126.953125 0)"/>
       <use xlink:href="#DejaVuSans-63" transform="translate(188.476562 0)"/>
       <use xlink:href="#DejaVuSans-69" transform="translate(243.457031 0)"/>
       <use xlink:href="#DejaVuSans-66" transform="translate(271.240234 0)"/>
       <use xlink:href="#DejaVuSans-69" transform="translate(306.445312 0)"/>
       <use xlink:href="#DejaVuSans-63" transform="translate(334.228516 0)"/>
      </g>
     </g>
    </g>
    <g id="xtick_3">
     <g id="line2d_3">
      <g>
       <use xlink:href="#m2371b2c8cb" x="438.75" y="320.4" style="stroke: #000000; stroke-width: 0.8"/>
      </g>
     </g>
     <g id="text_3">
      <!-- Spurious -->
      <g transform="translate(416.955469 334.998438) scale(0.1 -0.1)">
       <defs>
        <path id="DejaVuSans-75" d="M 544 1381 
L 544 3500 
L 1119 3500 
L 1119 1403 
Q 1119 906 1312 657 
Q 1506 409 1894 409 
Q 2359 409 2629 706 
Q 2900 1003 2900 1516 
L 2900 3500 
L 3475 3500 
L 3475 0 
L 2900 0 
L 2900 538 
Q 2691 219 2414 64 
Q 2138 -91 1772 -91 
Q 1169 -91 856 284 
Q 544 659 544 1381 
z
M 1991 3584 
L 1991 3584 
z
" transform="scale(0.015625)"/>
        <path id="DejaVuSans-72" d="M 2631 2963 
Q 2534 3019 2420 3045 
Q 2306 3072 2169 3072 
Q 1681 3072 1420 2755 
Q 1159 2438 1159 1844 
L 1159 0 
L 581 0 
L 581 3500 
L 1159 3500 
L 1159 2956 
Q 1341 3275 1631 3429 
Q 1922 3584 2338 3584 
Q 2397 3584 2469 3576 
Q 2541 3569 2628 3553 
L 2631 2963 
z
" transform="scale(0.015625)"/>
        <path id="DejaVuSans-73" d="M 2834 3397 
L 2834 2853 
Q 2591 2978 2328 3040 
Q 2066 3103 1784 3103 
Q 1356 3103 1142 2972 
Q 928 2841 928 2578 
Q 928 2378 1081 2264 
Q 1234 2150 1697 2047 
L 1894 2003 
Q 2506 1872 2764 1633 
Q 3022 1394 3022 966 
Q 3022 478 2636 193 
Q 2250 -91 1575 -91 
Q 1294 -91 989 -36 
Q 684 19 347 128 
L 347 722 
Q 666 556 975 473 
Q 1284 391 1588 391 
Q 1994 391 2212 530 
Q 2431 669 2431 922 
Q 2431 1156 2273 1281 
Q 2116 1406 1581 1522 
L 1381 1569 
Q 847 1681 609 1914 
Q 372 2147 372 2553 
Q 372 3047 722 3315 
Q 1072 3584 1716 3584 
Q 2034 3584 2315 3537 
Q 2597 3491 2834 3397 
z
" transform="scale(0.015625)"/>
       </defs>
       <use xlink:href="#DejaVuSans-53"/>
       <use xlink:href="#DejaVuSans-70" transform="translate(63.476562 0)"/>
       <use xlink:href="#DejaVuSans-75" transform="translate(126.953125 0)"/>
       <use xlink:href="#DejaVuSans-72" transform="translate(190.332031 0)"/>
       <use xlink:href="#DejaVuSans-69" transform="translate(231.445312 0)"/>
       <use xlink:href="#DejaVuSans-6f" transform="translate(259.228516 0)"/>
       <use xlink:href="#DejaVuSans-75" transform="translate(320.410156 0)"/>
       <use xlink:href="#DejaVuSans-73" transform="translate(383.789062 0)"/>
      </g>
     </g>
    </g>
    <g id="xtick_4">
     <g id="line2d_4">
      <g>
       <use xlink:href="#m2371b2c8cb" x="578.25" y="320.4" style="stroke: #000000; stroke-width: 0.8"/>
      </g>
     </g>
     <g id="text_4">
      <!-- Non-specific -->
      <g transform="translate(547.585156 334.998438) scale(0.1 -0.1)">
       <defs>
        <path id="DejaVuSans-6e" d="M 3513 2113 
L 3513 0 
L 2938 0 
L 2938 2094 
Q 2938 2591 2744 2837 
Q 2550 3084 2163 3084 
Q 1697 3084 1428 2787 
Q 1159 2491 1159 1978 
L 1159 0 
L 581 0 
L 581 3500 
L 1159 3500 
L 1159 2956 
Q 1366 3272 1645 3428 
Q 1925 3584 2291 3584 
Q 2894 3584 3203 3211 
Q 3513 2838 3513 2113 
z
" transform="scale(0.015625)"/>
        <path id="DejaVuSans-2d" d="M 313 2009 
L 1997 2009 
L 1997 1497 
L 313 1497 
L 313 2009 
z
" transform="scale(0.015625)"/>
       </defs>
       <use xlink:href="#DejaVuSans-4e"/>
       <use xlink:href="#DejaVuSans-6f" transform="translate(74.804688 0)"/>
       <use xlink:href="#DejaVuSans-6e" transform="translate(135.986328 0)"/>
       <use xlink:href="#DejaVuSans-2d" transform="translate(199.365234 0)"/>
       <use xlink:href="#DejaVuSans-73" transform="translate(235.449219 0)"/>
       <use xlink:href="#DejaVuSans-70" transform="translate(287.548828 0)"/>
       <use xlink:href="#DejaVuSans-65" transform="translate(351.025391 0)"/>
       <use xlink:href="#DejaVuSans-63" transform="translate(412.548828 0)"/>
       <use xlink:href="#DejaVuSans-69" transform="translate(467.529297 0)"/>
       <use xlink:href="#DejaVuSans-66" transform="translate(495.3125 0)"/>
       <use xlink:href="#DejaVuSans-69" transform="translate(530.517578 0)"/>
       <use xlink:href="#DejaVuSans-63" transform="translate(558.300781 0)"/>
      </g>
     </g>
    </g>
    <g id="text_5">
     <!-- Connectivity category -->
     <g transform="translate(313.98125 348.676562) scale(0.1 -0.1)">
      <defs>
       <path id="DejaVuSans-43" d="M 4122 4306 
L 4122 3641 
Q 3803 3938 3442 4084 
Q 3081 4231 2675 4231 
Q 1875 4231 1450 3742 
Q 1025 3253 1025 2328 
Q 1025 1406 1450 917 
Q 1875 428 2675 428 
Q 3081 428 3442 575 
Q 3803 722 4122 1019 
L 4122 359 
Q 3791 134 3420 21 
Q 3050 -91 2638 -91 
Q 1578 -91 968 557 
Q 359 1206 359 2328 
Q 359 3453 968 4101 
Q 1578 4750 2638 4750 
Q 3056 4750 3426 4639 
Q 3797 4528 4122 4306 
z
" transform="scale(0.015625)"/>
       <path id="DejaVuSans-74" d="M 1172 4494 
L 1172 3500 
L 2356 3500 
L 2356 3053 
L 1172 3053 
L 1172 1153 
Q 1172 725 1289 603 
Q 1406 481 1766 481 
L 2356 481 
L 2356 0 
L 1766 0 
Q 1100 0 847 248 
Q 594 497 594 1153 
L 594 3053 
L 172 3053 
L 172 3500 
L 594 3500 
L 594 4494 
L 1172 4494 
z
" transform="scale(0.015625)"/>
       <path id="DejaVuSans-76" d="M 191 3500 
L 800 3500 
L 1894 563 
L 2988 3500 
L 3597 3500 
L 2284 0 
L 1503 0 
L 191 3500 
z
" transform="scale(0.015625)"/>
       <path id="DejaVuSans-79" d="M 2059 -325 
Q 1816 -950 1584 -1140 
Q 1353 -1331 966 -1331 
L 506 -1331 
L 506 -850 
L 844 -850 
Q 1081 -850 1212 -737 
Q 1344 -625 1503 -206 
L 1606 56 
L 191 3500 
L 800 3500 
L 1894 763 
L 2988 3500 
L 3597 3500 
L 2059 -325 
z
" transform="scale(0.015625)"/>
       <path id="DejaVuSans-20" transform="scale(0.015625)"/>
       <path id="DejaVuSans-61" d="M 2194 1759 
Q 1497 1759 1228 1600 
Q 959 1441 959 1056 
Q 959 750 1161 570 
Q 1363 391 1709 391 
Q 2188 391 2477 730 
Q 2766 1069 2766 1631 
L 2766 1759 
L 2194 1759 
z
M 3341 1997 
L 3341 0 
L 2766 0 
L 2766 531 
Q 2569 213 2275 61 
Q 1981 -91 1556 -91 
Q 1019 -91 701 211 
Q 384 513 384 1019 
Q 384 1609 779 1909 
Q 1175 2209 1959 2209 
L 2766 2209 
L 2766 2266 
Q 2766 2663 2505 2880 
Q 2244 3097 1772 3097 
Q 1472 3097 1187 3025 
Q 903 2953 641 2809 
L 641 3341 
Q 956 3463 1253 3523 
Q 1550 3584 1831 3584 
Q 2591 3584 2966 3190 
Q 3341 2797 3341 1997 
z
" transform="scale(0.015625)"/>
       <path id="DejaVuSans-67" d="M 2906 1791 
Q 2906 2416 2648 2759 
Q 2391 3103 1925 3103 
Q 1463 3103 1205 2759 
Q 947 2416 947 1791 
Q 947 1169 1205 825 
Q 1463 481 1925 481 
Q 2391 481 2648 825 
Q 2906 1169 2906 1791 
z
M 3481 434 
Q 3481 -459 3084 -895 
Q 2688 -1331 1869 -1331 
Q 1566 -1331 1297 -1286 
Q 1028 -1241 775 -1147 
L 775 -588 
Q 1028 -725 1275 -790 
Q 1522 -856 1778 -856 
Q 2344 -856 2625 -561 
Q 2906 -266 2906 331 
L 2906 616 
Q 2728 306 2450 153 
Q 2172 0 1784 0 
Q 1141 0 747 490 
Q 353 981 353 1791 
Q 353 2603 747 3093 
Q 1141 3584 1784 3584 
Q 2172 3584 2450 3431 
Q 2728 3278 2906 2969 
L 2906 3500 
L 3481 3500 
L 3481 434 
z
" transform="scale(0.015625)"/>
      </defs>
      <use xlink:href="#DejaVuSans-43"/>
      <use xlink:href="#DejaVuSans-6f" transform="translate(69.824219 0)"/>
      <use xlink:href="#DejaVuSans-6e" transform="translate(131.005859 0)"/>
      <use xlink:href="#DejaVuSans-6e" transform="translate(194.384766 0)"/>
      <use xlink:href="#DejaVuSans-65" transform="translate(257.763672 0)"/>
      <use xlink:href="#DejaVuSans-63" transform="translate(319.287109 0)"/>
      <use xlink:href="#DejaVuSans-74" transform="translate(374.267578 0)"/>
      <use xlink:href="#DejaVuSans-69" transform="translate(413.476562 0)"/>
      <use xlink:href="#DejaVuSans-76" transform="translate(441.259766 0)"/>
      <use xlink:href="#DejaVuSans-69" transform="translate(500.439453 0)"/>
      <use xlink:href="#DejaVuSans-74" transform="translate(528.222656 0)"/>
      <use xlink:href="#DejaVuSans-79" transform="translate(567.431641 0)"/>
      <use xlink:href="#DejaVuSans-20" transform="translate(626.611328 0)"/>
      <use xlink:href="#DejaVuSans-63" transform="translate(658.398438 0)"/>
      <use xlink:href="#DejaVuSans-61" transform="translate(713.378906 0)"/>
      <use xlink:href="#DejaVuSans-74" transform="translate(774.658203 0)"/>
      <use xlink:href="#DejaVuSans-65" transform="translate(813.867188 0)"/>
      <use xlink:href="#DejaVuSans-67" transform="translate(875.390625 0)"/>
      <use xlink:href="#DejaVuSans-6f" transform="translate(938.867188 0)"/>
      <use xlink:href="#DejaVuSans-72" transform="translate(1000.048828 0)"/>
      <use xlink:href="#DejaVuSans-79" transform="translate(1041.162109 0)"/>
     </g>
    </g>
   </g>
   <g id="matplotlib.axis_2">
    <g id="ytick_1">
     <g id="line2d_5">
      <defs>
       <path id="mf42fd9d400" d="M 0 0 
L -3.5 0 
" style="stroke: #000000; stroke-width: 0.8"/>
      </defs>
      <g>
       <use xlink:href="#mf42fd9d400" x="90" y="281.71848" style="stroke: #000000; stroke-width: 0.8"/>
      </g>
     </g>
     <g id="text_6">
      <!-- 0.00 -->
      <g transform="translate(60.734375 285.517699) scale(0.1 -0.1)">
       <defs>
        <path id="DejaVuSans-30" d="M 2034 4250 
Q 1547 4250 1301 3770 
Q 1056 3291 1056 2328 
Q 1056 1369 1301 889 
Q 1547 409 2034 409 
Q 2525 409 2770 889 
Q 3016 1369 3016 2328 
Q 3016 3291 2770 3770 
Q 2525 4250 2034 4250 
z
M 2034 4750 
Q 2819 4750 3233 4129 
Q 3647 3509 3647 2328 
Q 3647 1150 3233 529 
Q 2819 -91 2034 -91 
Q 1250 -91 836 529 
Q 422 1150 422 2328 
Q 422 3509 836 4129 
Q 1250 4750 2034 4750 
z
" transform="scale(0.015625)"/>
        <path id="DejaVuSans-2e" d="M 684 794 
L 1344 794 
L 1344 0 
L 684 0 
L 684 794 
z
" transform="scale(0.015625)"/>
       </defs>
       <use xlink:href="#DejaVuSans-30"/>
       <use xlink:href="#DejaVuSans-2e" transform="translate(63.623047 0)"/>
       <use xlink:href="#DejaVuSans-30" transform="translate(95.410156 0)"/>
       <use xlink:href="#DejaVuSans-30" transform="translate(159.033203 0)"/>
      </g>
     </g>
    </g>
    <g id="ytick_2">
     <g id="line2d_6">
      <g>
       <use xlink:href="#mf42fd9d400" x="90" y="223.754467" style="stroke: #000000; stroke-width: 0.8"/>
      </g>
     </g>
     <g id="text_7">
      <!-- 0.05 -->
      <g transform="translate(60.734375 227.553686) scale(0.1 -0.1)">
       <defs>
        <path id="DejaVuSans-35" d="M 691 4666 
L 3169 4666 
L 3169 4134 
L 1269 4134 
L 1269 2991 
Q 1406 3038 1543 3061 
Q 1681 3084 1819 3084 
Q 2600 3084 3056 2656 
Q 3513 2228 3513 1497 
Q 3513 744 3044 326 
Q 2575 -91 1722 -91 
Q 1428 -91 1123 -41 
Q 819 9 494 109 
L 494 744 
Q 775 591 1075 516 
Q 1375 441 1709 441 
Q 2250 441 2565 725 
Q 2881 1009 2881 1497 
Q 2881 1984 2565 2268 
Q 2250 2553 1709 2553 
Q 1456 2553 1204 2497 
Q 953 2441 691 2322 
L 691 4666 
z
" transform="scale(0.015625)"/>
       </defs>
       <use xlink:href="#DejaVuSans-30"/>
       <use xlink:href="#DejaVuSans-2e" transform="translate(63.623047 0)"/>
       <use xlink:href="#DejaVuSans-30" transform="translate(95.410156 0)"/>
       <use xlink:href="#DejaVuSans-35" transform="translate(159.033203 0)"/>
      </g>
     </g>
    </g>
    <g id="ytick_3">
     <g id="line2d_7">
      <g>
       <use xlink:href="#mf42fd9d400" x="90" y="165.790454" style="stroke: #000000; stroke-width: 0.8"/>
      </g>
     </g>
     <g id="text_8">
      <!-- 0.10 -->
      <g transform="translate(60.734375 169.589673) scale(0.1 -0.1)">
       <defs>
        <path id="DejaVuSans-31" d="M 794 531 
L 1825 531 
L 1825 4091 
L 703 3866 
L 703 4441 
L 1819 4666 
L 2450 4666 
L 2450 531 
L 3481 531 
L 3481 0 
L 794 0 
L 794 531 
z
" transform="scale(0.015625)"/>
       </defs>
       <use xlink:href="#DejaVuSans-30"/>
       <use xlink:href="#DejaVuSans-2e" transform="translate(63.623047 0)"/>
       <use xlink:href="#DejaVuSans-31" transform="translate(95.410156 0)"/>
       <use xlink:href="#DejaVuSans-30" transform="translate(159.033203 0)"/>
      </g>
     </g>
    </g>
    <g id="ytick_4">
     <g id="line2d_8">
      <g>
       <use xlink:href="#mf42fd9d400" x="90" y="107.826442" style="stroke: #000000; stroke-width: 0.8"/>
      </g>
     </g>
     <g id="text_9">
      <!-- 0.15 -->
      <g transform="translate(60.734375 111.62566) scale(0.1 -0.1)">
       <use xlink:href="#DejaVuSans-30"/>
       <use xlink:href="#DejaVuSans-2e" transform="translate(63.623047 0)"/>
       <use xlink:href="#DejaVuSans-31" transform="translate(95.410156 0)"/>
       <use xlink:href="#DejaVuSans-35" transform="translate(159.033203 0)"/>
      </g>
     </g>
    </g>
    <g id="ytick_5">
     <g id="line2d_9">
      <g>
       <use xlink:href="#mf42fd9d400" x="90" y="49.862429" style="stroke: #000000; stroke-width: 0.8"/>
      </g>
     </g>
     <g id="text_10">
      <!-- 0.20 -->
      <g transform="translate(60.734375 53.661648) scale(0.1 -0.1)">
       <defs>
        <path id="DejaVuSans-32" d="M 1228 531 
L 3431 531 
L 3431 0 
L 469 0 
L 469 531 
Q 828 903 1448 1529 
Q 2069 2156 2228 2338 
Q 2531 2678 2651 2914 
Q 2772 3150 2772 3378 
Q 2772 3750 2511 3984 
Q 2250 4219 1831 4219 
Q 1534 4219 1204 4116 
Q 875 4013 500 3803 
L 500 4441 
Q 881 4594 1212 4672 
Q 1544 4750 1819 4750 
Q 2544 4750 2975 4387 
Q 3406 4025 3406 3419 
Q 3406 3131 3298 2873 
Q 3191 2616 2906 2266 
Q 2828 2175 2409 1742 
Q 1991 1309 1228 531 
z
" transform="scale(0.015625)"/>
       </defs>
       <use xlink:href="#DejaVuSans-30"/>
       <use xlink:href="#DejaVuSans-2e" transform="translate(63.623047 0)"/>
       <use xlink:href="#DejaVuSans-32" transform="translate(95.410156 0)"/>
       <use xlink:href="#DejaVuSans-30" transform="translate(159.033203 0)"/>
      </g>
     </g>
    </g>
    <g id="text_11">
     <!-- cont_variable -->
     <g transform="translate(54.376562 215.409375) rotate(-90) scale(0.1 -0.1)">
      <defs>
       <path id="DejaVuSans-5f" d="M 3263 -1063 
L 3263 -1509 
L -63 -1509 
L -63 -1063 
L 3263 -1063 
z
" transform="scale(0.015625)"/>
       <path id="DejaVuSans-62" d="M 3116 1747 
Q 3116 2381 2855 2742 
Q 2594 3103 2138 3103 
Q 1681 3103 1420 2742 
Q 1159 2381 1159 1747 
Q 1159 1113 1420 752 
Q 1681 391 2138 391 
Q 2594 391 2855 752 
Q 3116 1113 3116 1747 
z
M 1159 2969 
Q 1341 3281 1617 3432 
Q 1894 3584 2278 3584 
Q 2916 3584 3314 3078 
Q 3713 2572 3713 1747 
Q 3713 922 3314 415 
Q 2916 -91 2278 -91 
Q 1894 -91 1617 61 
Q 1341 213 1159 525 
L 1159 0 
L 581 0 
L 581 4863 
L 1159 4863 
L 1159 2969 
z
" transform="scale(0.015625)"/>
       <path id="DejaVuSans-6c" d="M 603 4863 
L 1178 4863 
L 1178 0 
L 603 0 
L 603 4863 
z
" transform="scale(0.015625)"/>
      </defs>
      <use xlink:href="#DejaVuSans-63"/>
      <use xlink:href="#DejaVuSans-6f" transform="translate(54.980469 0)"/>
      <use xlink:href="#DejaVuSans-6e" transform="translate(116.162109 0)"/>
      <use xlink:href="#DejaVuSans-74" transform="translate(179.541016 0)"/>
      <use xlink:href="#DejaVuSans-5f" transform="translate(218.75 0)"/>
      <use xlink:href="#DejaVuSans-76" transform="translate(268.75 0)"/>
      <use xlink:href="#DejaVuSans-61" transform="translate(327.929688 0)"/>
      <use xlink:href="#DejaVuSans-72" transform="translate(389.208984 0)"/>
      <use xlink:href="#DejaVuSans-69" transform="translate(430.322266 0)"/>
      <use xlink:href="#DejaVuSans-61" transform="translate(458.105469 0)"/>
      <use xlink:href="#DejaVuSans-62" transform="translate(519.384766 0)"/>
      <use xlink:href="#DejaVuSans-6c" transform="translate(582.861328 0)"/>
      <use xlink:href="#DejaVuSans-65" transform="translate(610.644531 0)"/>
     </g>
    </g>
   </g>
   <g id="patch_3">
    <path d="M 90 320.4 
L 90 43.2 
" style="fill: none; stroke: #000000; stroke-width: 0.8; stroke-linejoin: miter; stroke-linecap: square"/>
   </g>
   <g id="patch_4">
    <path d="M 648 320.4 
L 648 43.2 
" style="fill: none; stroke: #000000; stroke-width: 0.8; stroke-linejoin: miter; stroke-linecap: square"/>
   </g>
   <g id="patch_5">
    <path d="M 90 320.4 
L 648 320.4 
" style="fill: none; stroke: #000000; stroke-width: 0.8; stroke-linejoin: miter; stroke-linecap: square"/>
   </g>
   <g id="patch_6">
    <path d="M 90 43.2 
L 648 43.2 
" style="fill: none; stroke: #000000; stroke-width: 0.8; stroke-linejoin: miter; stroke-linecap: square"/>
   </g>
   <g id="PathCollection_1">
    <defs>
     <path id="ma2d16d8777" d="M 0 2.5 
C 0.663008 2.5 1.29895 2.236584 1.767767 1.767767 
C 2.236584 1.29895 2.5 0.663008 2.5 0 
C 2.5 -0.663008 2.236584 -1.29895 1.767767 -1.767767 
C 1.29895 -2.236584 0.663008 -2.5 0 -2.5 
C -0.663008 -2.5 -1.29895 -2.236584 -1.767767 -1.767767 
C -2.236584 -1.29895 -2.5 -0.663008 -2.5 0 
C -2.5 0.663008 -2.236584 1.29895 -1.767767 1.767767 
C -1.29895 2.236584 -0.663008 2.5 0 2.5 
z
"/>
    </defs>
    <g clip-path="url(#p5a7f334e8f)">
     <use xlink:href="#ma2d16d8777" x="154.251937" y="241.734917" style="fill-opacity: 0.3"/>
     <use xlink:href="#ma2d16d8777" x="152.054527" y="245.567206" style="fill-opacity: 0.3"/>
     <use xlink:href="#ma2d16d8777" x="157.849194" y="247.028753" style="fill-opacity: 0.3"/>
     <use xlink:href="#ma2d16d8777" x="156.595082" y="227.4203" style="fill-opacity: 0.3"/>
     <use xlink:href="#ma2d16d8777" x="173.595552" y="205.24021" style="fill-opacity: 0.3"/>
     <use xlink:href="#ma2d16d8777" x="157.619903" y="258.489838" style="fill-opacity: 0.3"/>
     <use xlink:href="#ma2d16d8777" x="161.824464" y="222.725615" style="fill-opacity: 0.3"/>
     <use xlink:href="#ma2d16d8777" x="150.406201" y="265.244204" style="fill-opacity: 0.3"/>
     <use xlink:href="#ma2d16d8777" x="148.508753" y="265.363882" style="fill-opacity: 0.3"/>
     <use xlink:href="#ma2d16d8777" x="160.752221" y="259.431271" style="fill-opacity: 0.3"/>
     <use xlink:href="#ma2d16d8777" x="159.438082" y="254.757554" style="fill-opacity: 0.3"/>
     <use xlink:href="#ma2d16d8777" x="161.551002" y="256.565165" style="fill-opacity: 0.3"/>
     <use xlink:href="#ma2d16d8777" x="149.575478" y="254.56572" style="fill-opacity: 0.3"/>
     <use xlink:href="#ma2d16d8777" x="154.738363" y="272.657549" style="fill-opacity: 0.3"/>
     <use xlink:href="#ma2d16d8777" x="160.65676" y="268.066659" style="fill-opacity: 0.3"/>
     <use xlink:href="#ma2d16d8777" x="167.963655" y="259.58867" style="fill-opacity: 0.3"/>
     <use xlink:href="#ma2d16d8777" x="156.185841" y="203.973289" style="fill-opacity: 0.3"/>
     <use xlink:href="#ma2d16d8777" x="158.747058" y="242.255526" style="fill-opacity: 0.3"/>
     <use xlink:href="#ma2d16d8777" x="166.393387" y="228.124235" style="fill-opacity: 0.3"/>
     <use xlink:href="#ma2d16d8777" x="149.829999" y="245.076131" style="fill-opacity: 0.3"/>
     <use xlink:href="#ma2d16d8777" x="162.439243" y="211.920594" style="fill-opacity: 0.3"/>
     <use xlink:href="#ma2d16d8777" x="152.233555" y="220.416353" style="fill-opacity: 0.3"/>
     <use xlink:href="#ma2d16d8777" x="158.96667" y="253.793733" style="fill-opacity: 0.3"/>
     <use xlink:href="#ma2d16d8777" x="154.8064" y="260.184716" style="fill-opacity: 0.3"/>
     <use xlink:href="#ma2d16d8777" x="170.213922" y="238.523764" style="fill-opacity: 0.3"/>
     <use xlink:href="#ma2d16d8777" x="168.956009" y="249.340934" style="fill-opacity: 0.3"/>
     <use xlink:href="#ma2d16d8777" x="155.29438" y="258.396556" style="fill-opacity: 0.3"/>
     <use xlink:href="#ma2d16d8777" x="168.696676" y="237.202877" style="fill-opacity: 0.3"/>
     <use xlink:href="#ma2d16d8777" x="152.14623" y="254.0854" style="fill-opacity: 0.3"/>
     <use xlink:href="#ma2d16d8777" x="158.299698" y="242.136182" style="fill-opacity: 0.3"/>
     <use xlink:href="#ma2d16d8777" x="146.742551" y="203.267722" style="fill-opacity: 0.3"/>
     <use xlink:href="#ma2d16d8777" x="157.714526" y="204.313701" style="fill-opacity: 0.3"/>
     <use xlink:href="#ma2d16d8777" x="161.374866" y="227.109506" style="fill-opacity: 0.3"/>
     <use xlink:href="#ma2d16d8777" x="160.809567" y="250.326936" style="fill-opacity: 0.3"/>
     <use xlink:href="#ma2d16d8777" x="152.534494" y="249.010016" style="fill-opacity: 0.3"/>
    </g>
   </g>
   <g id="PathCollection_2">
    <g clip-path="url(#p5a7f334e8f)">
     <use xlink:href="#ma2d16d8777" x="290.341411" y="198.840836" style="fill-opacity: 0.3"/>
     <use xlink:href="#ma2d16d8777" x="291.684782" y="249.080857" style="fill-opacity: 0.3"/>
     <use xlink:href="#ma2d16d8777" x="292.639921" y="246.816799" style="fill-opacity: 0.3"/>
     <use xlink:href="#ma2d16d8777" x="288.028318" y="219.519106" style="fill-opacity: 0.3"/>
     <use xlink:href="#ma2d16d8777" x="303.352313" y="244.602407" style="fill-opacity: 0.3"/>
     <use xlink:href="#ma2d16d8777" x="307.24071" y="241.030229" style="fill-opacity: 0.3"/>
     <use xlink:href="#ma2d16d8777" x="306.068412" y="247.936706" style="fill-opacity: 0.3"/>
     <use xlink:href="#ma2d16d8777" x="297.262008" y="261.137299" style="fill-opacity: 0.3"/>
     <use xlink:href="#ma2d16d8777" x="285.57903" y="249.643884" style="fill-opacity: 0.3"/>
     <use xlink:href="#ma2d16d8777" x="299.926474" y="217.097613" style="fill-opacity: 0.3"/>
     <use xlink:href="#ma2d16d8777" x="299.926473" y="235.440782" style="fill-opacity: 0.3"/>
     <use xlink:href="#ma2d16d8777" x="287.895946" y="250.325162" style="fill-opacity: 0.3"/>
     <use xlink:href="#ma2d16d8777" x="296.54049" y="229.650903" style="fill-opacity: 0.3"/>
     <use xlink:href="#ma2d16d8777" x="312.379737" y="209.89199" style="fill-opacity: 0.3"/>
     <use xlink:href="#ma2d16d8777" x="306.887128" y="233.604653" style="fill-opacity: 0.3"/>
     <use xlink:href="#ma2d16d8777" x="296.394746" y="234.037956" style="fill-opacity: 0.3"/>
     <use xlink:href="#ma2d16d8777" x="285.438543" y="222.172219" style="fill-opacity: 0.3"/>
     <use xlink:href="#ma2d16d8777" x="296.619979" y="221.403971" style="fill-opacity: 0.3"/>
     <use xlink:href="#ma2d16d8777" x="285.754855" y="194.19366" style="fill-opacity: 0.3"/>
     <use xlink:href="#ma2d16d8777" x="301.882547" y="221.739376" style="fill-opacity: 0.3"/>
     <use xlink:href="#ma2d16d8777" x="298.268921" y="201.686648" style="fill-opacity: 0.3"/>
     <use xlink:href="#ma2d16d8777" x="300.20121" y="209.222304" style="fill-opacity: 0.3"/>
     <use xlink:href="#ma2d16d8777" x="286.117022" y="216.194096" style="fill-opacity: 0.3"/>
     <use xlink:href="#ma2d16d8777" x="305.488806" y="234.356426" style="fill-opacity: 0.3"/>
     <use xlink:href="#ma2d16d8777" x="308.619863" y="230.163814" style="fill-opacity: 0.3"/>
     <use xlink:href="#ma2d16d8777" x="285.674264" y="233.654901" style="fill-opacity: 0.3"/>
     <use xlink:href="#ma2d16d8777" x="306.949154" y="247.213647" style="fill-opacity: 0.3"/>
     <use xlink:href="#ma2d16d8777" x="294.039415" y="242.451309" style="fill-opacity: 0.3"/>
     <use xlink:href="#ma2d16d8777" x="290.00456" y="235.338121" style="fill-opacity: 0.3"/>
     <use xlink:href="#ma2d16d8777" x="290.622682" y="239.164309" style="fill-opacity: 0.3"/>
     <use xlink:href="#ma2d16d8777" x="295.980793" y="251.608752" style="fill-opacity: 0.3"/>
     <use xlink:href="#ma2d16d8777" x="289.821402" y="248.392929" style="fill-opacity: 0.3"/>
     <use xlink:href="#ma2d16d8777" x="299.308503" y="261.620952" style="fill-opacity: 0.3"/>
     <use xlink:href="#ma2d16d8777" x="298.700482" y="261.697725" style="fill-opacity: 0.3"/>
     <use xlink:href="#ma2d16d8777" x="312.637338" y="194.749435" style="fill-opacity: 0.3"/>
     <use xlink:href="#ma2d16d8777" x="292.247187" y="268.49147" style="fill-opacity: 0.3"/>
     <use xlink:href="#ma2d16d8777" x="288.17399" y="188.734944" style="fill-opacity: 0.3"/>
     <use xlink:href="#ma2d16d8777" x="304.048605" y="214.901752" style="fill-opacity: 0.3"/>
     <use xlink:href="#ma2d16d8777" x="298.917127" y="224.401545" style="fill-opacity: 0.3"/>
     <use xlink:href="#ma2d16d8777" x="298.09866" y="214.309495" style="fill-opacity: 0.3"/>
     <use xlink:href="#ma2d16d8777" x="308.650101" y="230.660703" style="fill-opacity: 0.3"/>
     <use xlink:href="#ma2d16d8777" x="297.561731" y="267.265269" style="fill-opacity: 0.3"/>
     <use xlink:href="#ma2d16d8777" x="292.902987" y="216.1593" style="fill-opacity: 0.3"/>
     <use xlink:href="#ma2d16d8777" x="298.37858" y="233.835014" style="fill-opacity: 0.3"/>
     <use xlink:href="#ma2d16d8777" x="292.536906" y="221.624755" style="fill-opacity: 0.3"/>
     <use xlink:href="#ma2d16d8777" x="311.157318" y="233.987661" style="fill-opacity: 0.3"/>
     <use xlink:href="#ma2d16d8777" x="309.862448" y="236.798093" style="fill-opacity: 0.3"/>
     <use xlink:href="#ma2d16d8777" x="305.719455" y="242.118214" style="fill-opacity: 0.3"/>
     <use xlink:href="#ma2d16d8777" x="287.228523" y="266.339536" style="fill-opacity: 0.3"/>
     <use xlink:href="#ma2d16d8777" x="294.841214" y="262.900468" style="fill-opacity: 0.3"/>
     <use xlink:href="#ma2d16d8777" x="289.878312" y="264.654163" style="fill-opacity: 0.3"/>
     <use xlink:href="#ma2d16d8777" x="296.950156" y="258.928177" style="fill-opacity: 0.3"/>
     <use xlink:href="#ma2d16d8777" x="301.70728" y="261.734225" style="fill-opacity: 0.3"/>
     <use xlink:href="#ma2d16d8777" x="292.188849" y="139.711523" style="fill-opacity: 0.3"/>
     <use xlink:href="#ma2d16d8777" x="304.506721" y="243.817968" style="fill-opacity: 0.3"/>
     <use xlink:href="#ma2d16d8777" x="285.763192" y="251.79164" style="fill-opacity: 0.3"/>
     <use xlink:href="#ma2d16d8777" x="302.951026" y="248.332074" style="fill-opacity: 0.3"/>
     <use xlink:href="#ma2d16d8777" x="290.78465" y="255.649052" style="fill-opacity: 0.3"/>
     <use xlink:href="#ma2d16d8777" x="302.431558" y="252.219665" style="fill-opacity: 0.3"/>
     <use xlink:href="#ma2d16d8777" x="293.937105" y="240.482309" style="fill-opacity: 0.3"/>
     <use xlink:href="#ma2d16d8777" x="295.649133" y="239.597613" style="fill-opacity: 0.3"/>
     <use xlink:href="#ma2d16d8777" x="308.873975" y="249.591811" style="fill-opacity: 0.3"/>
     <use xlink:href="#ma2d16d8777" x="306.422653" y="217.851274" style="fill-opacity: 0.3"/>
     <use xlink:href="#ma2d16d8777" x="292.249405" y="258.792436" style="fill-opacity: 0.3"/>
     <use xlink:href="#ma2d16d8777" x="288.678209" y="252.604956" style="fill-opacity: 0.3"/>
     <use xlink:href="#ma2d16d8777" x="311.206528" y="253.715965" style="fill-opacity: 0.3"/>
     <use xlink:href="#ma2d16d8777" x="290.346557" y="215.204781" style="fill-opacity: 0.3"/>
     <use xlink:href="#ma2d16d8777" x="289.426445" y="245.828842" style="fill-opacity: 0.3"/>
     <use xlink:href="#ma2d16d8777" x="290.360158" y="239.954703" style="fill-opacity: 0.3"/>
     <use xlink:href="#ma2d16d8777" x="296.189119" y="225.881266" style="fill-opacity: 0.3"/>
     <use xlink:href="#ma2d16d8777" x="308.608713" y="249.831834" style="fill-opacity: 0.3"/>
     <use xlink:href="#ma2d16d8777" x="294.282989" y="250.676763" style="fill-opacity: 0.3"/>
     <use xlink:href="#ma2d16d8777" x="293.786904" y="250.294223" style="fill-opacity: 0.3"/>
     <use xlink:href="#ma2d16d8777" x="298.197567" y="262.485512" style="fill-opacity: 0.3"/>
     <use xlink:href="#ma2d16d8777" x="311.612022" y="254.551139" style="fill-opacity: 0.3"/>
     <use xlink:href="#ma2d16d8777" x="288.893122" y="244.708381" style="fill-opacity: 0.3"/>
     <use xlink:href="#ma2d16d8777" x="310.88703" y="228.692993" style="fill-opacity: 0.3"/>
     <use xlink:href="#ma2d16d8777" x="285.808354" y="248.420806" style="fill-opacity: 0.3"/>
     <use xlink:href="#ma2d16d8777" x="300.600366" y="240.762037" style="fill-opacity: 0.3"/>
     <use xlink:href="#ma2d16d8777" x="301.78536" y="250.185054" style="fill-opacity: 0.3"/>
     <use xlink:href="#ma2d16d8777" x="302.953503" y="230.858943" style="fill-opacity: 0.3"/>
     <use xlink:href="#ma2d16d8777" x="307.328462" y="151.073597" style="fill-opacity: 0.3"/>
     <use xlink:href="#ma2d16d8777" x="297.728695" y="251.330844" style="fill-opacity: 0.3"/>
     <use xlink:href="#ma2d16d8777" x="293.63263" y="233.740515" style="fill-opacity: 0.3"/>
     <use xlink:href="#ma2d16d8777" x="292.457955" y="253.668956" style="fill-opacity: 0.3"/>
     <use xlink:href="#ma2d16d8777" x="287.30915" y="256.699318" style="fill-opacity: 0.3"/>
    </g>
   </g>
   <g id="PathCollection_3">
    <g clip-path="url(#p5a7f334e8f)">
     <use xlink:href="#ma2d16d8777" x="428.62734" y="205.901643" style="fill-opacity: 0.3"/>
     <use xlink:href="#ma2d16d8777" x="437.717473" y="228.46599" style="fill-opacity: 0.3"/>
     <use xlink:href="#ma2d16d8777" x="451.188748" y="225.441259" style="fill-opacity: 0.3"/>
     <use xlink:href="#ma2d16d8777" x="427.744663" y="200.553166" style="fill-opacity: 0.3"/>
     <use xlink:href="#ma2d16d8777" x="438.424405" y="241.350173" style="fill-opacity: 0.3"/>
     <use xlink:href="#ma2d16d8777" x="426.205584" y="196.350087" style="fill-opacity: 0.3"/>
     <use xlink:href="#ma2d16d8777" x="438.330285" y="148.025617" style="fill-opacity: 0.3"/>
     <use xlink:href="#ma2d16d8777" x="442.03215" y="270.490799" style="fill-opacity: 0.3"/>
     <use xlink:href="#ma2d16d8777" x="452.23008" y="272.387087" style="fill-opacity: 0.3"/>
     <use xlink:href="#ma2d16d8777" x="443.102704" y="270.547488" style="fill-opacity: 0.3"/>
     <use xlink:href="#ma2d16d8777" x="435.822904" y="269.611948" style="fill-opacity: 0.3"/>
     <use xlink:href="#ma2d16d8777" x="450.740664" y="267.616558" style="fill-opacity: 0.3"/>
     <use xlink:href="#ma2d16d8777" x="430.579371" y="267.164854" style="fill-opacity: 0.3"/>
     <use xlink:href="#ma2d16d8777" x="441.077289" y="268.716846" style="fill-opacity: 0.3"/>
     <use xlink:href="#ma2d16d8777" x="429.984861" y="102.838942" style="fill-opacity: 0.3"/>
     <use xlink:href="#ma2d16d8777" x="448.532827" y="158.878057" style="fill-opacity: 0.3"/>
     <use xlink:href="#ma2d16d8777" x="445.540614" y="178.30036" style="fill-opacity: 0.3"/>
     <use xlink:href="#ma2d16d8777" x="438.259229" y="228.925736" style="fill-opacity: 0.3"/>
     <use xlink:href="#ma2d16d8777" x="435.207843" y="222.760238" style="fill-opacity: 0.3"/>
     <use xlink:href="#ma2d16d8777" x="428.747284" y="266.789332" style="fill-opacity: 0.3"/>
     <use xlink:href="#ma2d16d8777" x="438.628525" y="262.342098" style="fill-opacity: 0.3"/>
     <use xlink:href="#ma2d16d8777" x="432.437962" y="258.429034" style="fill-opacity: 0.3"/>
     <use xlink:href="#ma2d16d8777" x="428.379993" y="265.957369" style="fill-opacity: 0.3"/>
     <use xlink:href="#ma2d16d8777" x="426.220849" y="249.162361" style="fill-opacity: 0.3"/>
     <use xlink:href="#ma2d16d8777" x="433.680024" y="266.048976" style="fill-opacity: 0.3"/>
     <use xlink:href="#ma2d16d8777" x="436.490018" y="265.635975" style="fill-opacity: 0.3"/>
     <use xlink:href="#ma2d16d8777" x="438.387288" y="248.293729" style="fill-opacity: 0.3"/>
     <use xlink:href="#ma2d16d8777" x="451.808813" y="270.033244" style="fill-opacity: 0.3"/>
     <use xlink:href="#ma2d16d8777" x="449.97311" y="266.309715" style="fill-opacity: 0.3"/>
     <use xlink:href="#ma2d16d8777" x="435.352132" y="230.851769" style="fill-opacity: 0.3"/>
     <use xlink:href="#ma2d16d8777" x="439.074021" y="240.568931" style="fill-opacity: 0.3"/>
     <use xlink:href="#ma2d16d8777" x="441.974404" y="187.425408" style="fill-opacity: 0.3"/>
     <use xlink:href="#ma2d16d8777" x="445.548683" y="254.129674" style="fill-opacity: 0.3"/>
     <use xlink:href="#ma2d16d8777" x="451.683545" y="175.594289" style="fill-opacity: 0.3"/>
     <use xlink:href="#ma2d16d8777" x="451.00419" y="227.159782" style="fill-opacity: 0.3"/>
     <use xlink:href="#ma2d16d8777" x="450.637609" y="199.080083" style="fill-opacity: 0.3"/>
     <use xlink:href="#ma2d16d8777" x="438.799009" y="246.67202" style="fill-opacity: 0.3"/>
     <use xlink:href="#ma2d16d8777" x="429.550912" y="228.190278" style="fill-opacity: 0.3"/>
     <use xlink:href="#ma2d16d8777" x="430.398981" y="253.317986" style="fill-opacity: 0.3"/>
     <use xlink:href="#ma2d16d8777" x="443.089784" y="225.488764" style="fill-opacity: 0.3"/>
     <use xlink:href="#ma2d16d8777" x="430.193369" y="257.034047" style="fill-opacity: 0.3"/>
     <use xlink:href="#ma2d16d8777" x="452.394355" y="235.096174" style="fill-opacity: 0.3"/>
     <use xlink:href="#ma2d16d8777" x="448.802171" y="252.906981" style="fill-opacity: 0.3"/>
     <use xlink:href="#ma2d16d8777" x="448.258904" y="219.188225" style="fill-opacity: 0.3"/>
     <use xlink:href="#ma2d16d8777" x="429.568118" y="224.76655" style="fill-opacity: 0.3"/>
    </g>
   </g>
   <g id="PathCollection_4">
    <g clip-path="url(#p5a7f334e8f)">
     <use xlink:href="#ma2d16d8777" x="580.639583" y="228.34374" style="fill-opacity: 0.3"/>
     <use xlink:href="#ma2d16d8777" x="580.041886" y="248.999817" style="fill-opacity: 0.3"/>
     <use xlink:href="#ma2d16d8777" x="581.947161" y="255.584007" style="fill-opacity: 0.3"/>
     <use xlink:href="#ma2d16d8777" x="571.959628" y="179.173343" style="fill-opacity: 0.3"/>
     <use xlink:href="#ma2d16d8777" x="570.472213" y="223.981287" style="fill-opacity: 0.3"/>
     <use xlink:href="#ma2d16d8777" x="587.823368" y="208.067477" style="fill-opacity: 0.3"/>
     <use xlink:href="#ma2d16d8777" x="565.723418" y="248.392718" style="fill-opacity: 0.3"/>
     <use xlink:href="#ma2d16d8777" x="573.770823" y="231.907185" style="fill-opacity: 0.3"/>
     <use xlink:href="#ma2d16d8777" x="579.430016" y="250.41483" style="fill-opacity: 0.3"/>
     <use xlink:href="#ma2d16d8777" x="584.733564" y="231.33248" style="fill-opacity: 0.3"/>
     <use xlink:href="#ma2d16d8777" x="583.744229" y="204.84346" style="fill-opacity: 0.3"/>
     <use xlink:href="#ma2d16d8777" x="568.300826" y="234.295688" style="fill-opacity: 0.3"/>
     <use xlink:href="#ma2d16d8777" x="571.119541" y="236.42925" style="fill-opacity: 0.3"/>
     <use xlink:href="#ma2d16d8777" x="573.714905" y="237.088485" style="fill-opacity: 0.3"/>
     <use xlink:href="#ma2d16d8777" x="572.239514" y="200.254693" style="fill-opacity: 0.3"/>
     <use xlink:href="#ma2d16d8777" x="582.381404" y="221.325939" style="fill-opacity: 0.3"/>
     <use xlink:href="#ma2d16d8777" x="572.759629" y="224.076532" style="fill-opacity: 0.3"/>
     <use xlink:href="#ma2d16d8777" x="588.927277" y="241.507553" style="fill-opacity: 0.3"/>
     <use xlink:href="#ma2d16d8777" x="588.498305" y="231.682427" style="fill-opacity: 0.3"/>
     <use xlink:href="#ma2d16d8777" x="586.105785" y="235.014669" style="fill-opacity: 0.3"/>
     <use xlink:href="#ma2d16d8777" x="591.320488" y="241.174375" style="fill-opacity: 0.3"/>
     <use xlink:href="#ma2d16d8777" x="590.902394" y="244.887101" style="fill-opacity: 0.3"/>
     <use xlink:href="#ma2d16d8777" x="584.73106" y="234.868851" style="fill-opacity: 0.3"/>
     <use xlink:href="#ma2d16d8777" x="574.372506" y="246.924793" style="fill-opacity: 0.3"/>
     <use xlink:href="#ma2d16d8777" x="570.372303" y="229.381953" style="fill-opacity: 0.3"/>
     <use xlink:href="#ma2d16d8777" x="574.621774" y="226.66909" style="fill-opacity: 0.3"/>
     <use xlink:href="#ma2d16d8777" x="573.654979" y="250.082026" style="fill-opacity: 0.3"/>
     <use xlink:href="#ma2d16d8777" x="568.421403" y="188.715856" style="fill-opacity: 0.3"/>
     <use xlink:href="#ma2d16d8777" x="577.614801" y="271.828638" style="fill-opacity: 0.3"/>
     <use xlink:href="#ma2d16d8777" x="571.602576" y="217.989304" style="fill-opacity: 0.3"/>
     <use xlink:href="#ma2d16d8777" x="578.493087" y="130.681397" style="fill-opacity: 0.3"/>
     <use xlink:href="#ma2d16d8777" x="574.97612" y="164.572587" style="fill-opacity: 0.3"/>
     <use xlink:href="#ma2d16d8777" x="577.853707" y="81.419479" style="fill-opacity: 0.3"/>
     <use xlink:href="#ma2d16d8777" x="585.590383" y="194.681896" style="fill-opacity: 0.3"/>
     <use xlink:href="#ma2d16d8777" x="582.167545" y="213.377328" style="fill-opacity: 0.3"/>
     <use xlink:href="#ma2d16d8777" x="591.89753" y="213.493629" style="fill-opacity: 0.3"/>
     <use xlink:href="#ma2d16d8777" x="580.744147" y="215.890719" style="fill-opacity: 0.3"/>
     <use xlink:href="#ma2d16d8777" x="576.319772" y="217.958986" style="fill-opacity: 0.3"/>
     <use xlink:href="#ma2d16d8777" x="564.881141" y="223.813578" style="fill-opacity: 0.3"/>
     <use xlink:href="#ma2d16d8777" x="570.091298" y="230.651218" style="fill-opacity: 0.3"/>
     <use xlink:href="#ma2d16d8777" x="571.801898" y="236.928239" style="fill-opacity: 0.3"/>
     <use xlink:href="#ma2d16d8777" x="577.402202" y="236.131448" style="fill-opacity: 0.3"/>
     <use xlink:href="#ma2d16d8777" x="579.313912" y="228.509032" style="fill-opacity: 0.3"/>
     <use xlink:href="#ma2d16d8777" x="569.950021" y="209.299883" style="fill-opacity: 0.3"/>
     <use xlink:href="#ma2d16d8777" x="584.670503" y="223.446687" style="fill-opacity: 0.3"/>
     <use xlink:href="#ma2d16d8777" x="571.706007" y="226.982942" style="fill-opacity: 0.3"/>
     <use xlink:href="#ma2d16d8777" x="579.839551" y="231.827398" style="fill-opacity: 0.3"/>
     <use xlink:href="#ma2d16d8777" x="585.730613" y="228.680468" style="fill-opacity: 0.3"/>
     <use xlink:href="#ma2d16d8777" x="580.580674" y="247.219839" style="fill-opacity: 0.3"/>
     <use xlink:href="#ma2d16d8777" x="566.967556" y="258.575092" style="fill-opacity: 0.3"/>
     <use xlink:href="#ma2d16d8777" x="573.285043" y="221.147606" style="fill-opacity: 0.3"/>
     <use xlink:href="#ma2d16d8777" x="570.517513" y="226.411366" style="fill-opacity: 0.3"/>
     <use xlink:href="#ma2d16d8777" x="582.858288" y="262.914304" style="fill-opacity: 0.3"/>
     <use xlink:href="#ma2d16d8777" x="582.607861" y="216.07778" style="fill-opacity: 0.3"/>
     <use xlink:href="#ma2d16d8777" x="580.891735" y="248.70061" style="fill-opacity: 0.3"/>
     <use xlink:href="#ma2d16d8777" x="568.508134" y="225.298904" style="fill-opacity: 0.3"/>
     <use xlink:href="#ma2d16d8777" x="565.220053" y="188.79367" style="fill-opacity: 0.3"/>
     <use xlink:href="#ma2d16d8777" x="586.699321" y="232.206796" style="fill-opacity: 0.3"/>
     <use xlink:href="#ma2d16d8777" x="587.852181" y="227.479141" style="fill-opacity: 0.3"/>
     <use xlink:href="#ma2d16d8777" x="590.201644" y="217.615951" style="fill-opacity: 0.3"/>
     <use xlink:href="#ma2d16d8777" x="583.911884" y="245.929617" style="fill-opacity: 0.3"/>
     <use xlink:href="#ma2d16d8777" x="577.700875" y="244.032733" style="fill-opacity: 0.3"/>
     <use xlink:href="#ma2d16d8777" x="586.739659" y="233.438158" style="fill-opacity: 0.3"/>
     <use xlink:href="#ma2d16d8777" x="572.030412" y="249.281667" style="fill-opacity: 0.3"/>
     <use xlink:href="#ma2d16d8777" x="567.398151" y="235.895927" style="fill-opacity: 0.3"/>
     <use xlink:href="#ma2d16d8777" x="589.463831" y="261.166525" style="fill-opacity: 0.3"/>
     <use xlink:href="#ma2d16d8777" x="574.122083" y="163.646903" style="fill-opacity: 0.3"/>
     <use xlink:href="#ma2d16d8777" x="572.569509" y="213.393808" style="fill-opacity: 0.3"/>
    </g>
   </g>
  </g>
 </g>
 <defs>
  <clipPath id="p5a7f334e8f">
   <rect x="90" y="43.2" width="558" height="277.2"/>
  </clipPath>
 </defs>
</svg>
