<?xml version="1.0" encoding="utf-8" standalone="no"?>
<!DOCTYPE svg PUBLIC "-//W3C//DTD SVG 1.1//EN"
  "http://www.w3.org/Graphics/SVG/1.1/DTD/svg11.dtd">
<svg xmlns:xlink="http://www.w3.org/1999/xlink" width="720pt" height="360pt" viewBox="0 0 720 360" xmlns="http://www.w3.org/2000/svg" version="1.1">
 <metadata>
  <rdf:RDF xmlns:dc="http://purl.org/dc/elements/1.1/" xmlns:cc="http://creativecommons.org/ns#" xmlns:rdf="http://www.w3.org/1999/02/22-rdf-syntax-ns#">
   <cc:Work>
    <dc:type rdf:resource="http://purl.org/dc/dcmitype/StillImage"/>
    <dc:date>2025-10-21T13:23:09.412004</dc:date>
    <dc:format>image/svg+xml</dc:format>
    <dc:creator>
     <cc:Agent>
      <dc:title>Matplotlib v3.10.3, https://matplotlib.org/</dc:title>
     </cc:Agent>
    </dc:creator>
   </cc:Work>
  </rdf:RDF>
 </metadata>
 <defs>
  <style type="text/css">*{stroke-linejoin: round; stroke-linecap: butt}</style>
 </defs>
 <g id="figure_1">
  <g id="patch_1">
   <path d="M 0 360 
L 720 360 
L 720 0 
L 0 0 
z
" style="fill: #ffffff"/>
  </g>
  <g id="axes_1">
   <g id="patch_2">
    <path d="M 90 320.4 
L 648 320.4 
L 648 43.2 
L 90 43.2 
z
" style="fill: #ffffff"/>
   </g>
   <g id="FillBetweenPolyCollection_1">
    <defs>
     <path id="md4b1327d69" d="M 229.7188 -52.2 
L 229.2812 -52.2 
L 229.184158 -54.745455 
L 229.060347 -57.290909 
L 228.909653 -59.836364 
L 228.734963 -62.381818 
L 228.54243 -64.927273 
L 228.340988 -67.472727 
L 228.141005 -70.018182 
L 227.952115 -72.563636 
L 227.780581 -75.109091 
L 227.626687 -77.654545 
L 227.482822 -80.2 
L 227.332777 -82.745455 
L 227.152556 -85.290909 
L 226.912607 -87.836364 
L 226.580988 -90.381818 
L 226.126726 -92.927273 
L 225.522535 -95.472727 
L 224.746286 -98.018182 
L 223.780988 -100.563636 
L 222.613559 -103.109091 
L 221.23309 -105.654545 
L 219.62958 -108.2 
L 217.794064 -110.745455 
L 215.720726 -113.290909 
L 213.411055 -115.836364 
L 210.87938 -118.381818 
L 208.158545 -120.927273 
L 205.30404 -123.472727 
L 202.394851 -126.018182 
L 199.529621 -128.563636 
L 196.817502 -131.109091 
L 194.364142 -133.654545 
L 192.254549 -136.2 
L 190.535605 -138.745455 
L 189.201687 -141.290909 
L 188.186778 -143.836364 
L 187.365589 -146.381818 
L 186.564644 -148.927273 
L 185.582362 -151.472727 
L 184.215208 -154.018182 
L 182.285624 -156.563636 
L 179.666861 -159.109091 
L 176.30033 -161.654545 
L 172.202555 -164.2 
L 167.460905 -166.745455 
L 162.219646 -169.290909 
L 156.659723 -171.836364 
L 150.976775 -174.381818 
L 145.361699 -176.927273 
L 139.986841 -179.472727 
L 134.998871 -182.018182 
L 130.517359 -184.563636 
L 126.636564 -187.109091 
L 123.427628 -189.654545 
L 120.939071 -192.2 
L 119.195063 -194.745455 
L 118.192621 -197.290909 
L 117.9 -199.836364 
L 118.258658 -202.381818 
L 119.19026 -204.927273 
L 120.608518 -207.472727 
L 122.433891 -210.018182 
L 124.607913 -212.563636 
L 127.10352 -215.109091 
L 129.928431 -217.654545 
L 133.120131 -220.2 
L 136.73297 -222.745455 
L 140.819746 -225.290909 
L 145.411562 -227.836364 
L 150.500242 -230.381818 
L 156.027155 -232.927273 
L 161.88097 -235.472727 
L 167.90494 -238.018182 
L 173.912336 -240.563636 
L 179.707023 -243.109091 
L 185.105389 -245.654545 
L 189.955975 -248.2 
L 194.154063 -250.745455 
L 197.649881 -253.290909 
L 200.450322 -255.836364 
L 202.614996 -258.381818 
L 204.247746 -260.927273 
L 205.48469 -263.472727 
L 206.479659 -266.018182 
L 207.387956 -268.563636 
L 208.349684 -271.109091 
L 209.474465 -273.654545 
L 210.829749 -276.2 
L 212.43487 -278.745455 
L 214.262184 -281.290909 
L 216.2453 -283.836364 
L 218.292842 -286.381818 
L 220.30495 -288.927273 
L 222.189207 -291.472727 
L 223.873056 -294.018182 
L 225.310885 -296.563636 
L 226.485376 -299.109091 
L 227.404041 -301.654545 
L 228.092676 -304.2 
L 230.907324 -304.2 
L 230.907324 -304.2 
L 231.595959 -301.654545 
L 232.514624 -299.109091 
L 233.689115 -296.563636 
L 235.126944 -294.018182 
L 236.810793 -291.472727 
L 238.69505 -288.927273 
L 240.707158 -286.381818 
L 242.7547 -283.836364 
L 244.737816 -281.290909 
L 246.56513 -278.745455 
L 248.170251 -276.2 
L 249.525535 -273.654545 
L 250.650316 -271.109091 
L 251.612044 -268.563636 
L 252.520341 -266.018182 
L 253.51531 -263.472727 
L 254.752254 -260.927273 
L 256.385004 -258.381818 
L 258.549678 -255.836364 
L 261.350119 -253.290909 
L 264.845937 -250.745455 
L 269.044025 -248.2 
L 273.894611 -245.654545 
L 279.292977 -243.109091 
L 285.087664 -240.563636 
L 291.09506 -238.018182 
L 297.11903 -235.472727 
L 302.972845 -232.927273 
L 308.499758 -230.381818 
L 313.588438 -227.836364 
L 318.180254 -225.290909 
L 322.26703 -222.745455 
L 325.879869 -220.2 
L 329.071569 -217.654545 
L 331.89648 -215.109091 
L 334.392087 -212.563636 
L 336.566109 -210.018182 
L 338.391482 -207.472727 
L 339.80974 -204.927273 
L 340.741342 -202.381818 
L 341.1 -199.836364 
L 340.807379 -197.290909 
L 339.804937 -194.745455 
L 338.060929 -192.2 
L 335.572372 -189.654545 
L 332.363436 -187.109091 
L 328.482641 -184.563636 
L 324.001129 -182.018182 
L 319.013159 -179.472727 
L 313.638301 -176.927273 
L 308.023225 -174.381818 
L 302.340277 -171.836364 
L 296.780354 -169.290909 
L 291.539095 -166.745455 
L 286.797445 -164.2 
L 282.69967 -161.654545 
L 279.333139 -159.109091 
L 276.714376 -156.563636 
L 274.784792 -154.018182 
L 273.417638 -151.472727 
L 272.435356 -148.927273 
L 271.634411 -146.381818 
L 270.813222 -143.836364 
L 269.798313 -141.290909 
L 268.464395 -138.745455 
L 266.745451 -136.2 
L 264.635858 -133.654545 
L 262.182498 -131.109091 
L 259.470379 -128.563636 
L 256.605149 -126.018182 
L 253.69596 -123.472727 
L 250.841455 -120.927273 
L 248.12062 -118.381818 
L 245.588945 -115.836364 
L 243.279274 -113.290909 
L 241.205936 -110.745455 
L 239.37042 -108.2 
L 237.76691 -105.654545 
L 236.386441 -103.109091 
L 235.219012 -100.563636 
L 234.253714 -98.018182 
L 233.477465 -95.472727 
L 232.873274 -92.927273 
L 232.419012 -90.381818 
L 232.087393 -87.836364 
L 231.847444 -85.290909 
L 231.667223 -82.745455 
L 231.517178 -80.2 
L 231.373313 -77.654545 
L 231.219419 -75.109091 
L 231.047885 -72.563636 
L 230.858995 -70.018182 
L 230.659012 -67.472727 
L 230.45757 -64.927273 
L 230.265037 -62.381818 
L 230.090347 -59.836364 
L 229.939653 -57.290909 
L 229.815842 -54.745455 
L 229.7188 -52.2 
z
" style="stroke: #3f3f3f; stroke-width: 1.25"/>
    </defs>
    <g clip-path="url(#p52212501a5)">
     <use xlink:href="#md4b1327d69" x="0" y="360" style="fill: #3274a1; stroke: #3f3f3f; stroke-width: 1.25"/>
    </g>
   </g>
   <g id="FillBetweenPolyCollection_2">
    <defs>
     <path id="m2064d6f407" d="M 509.951591 -81.232262 
L 507.048409 -81.232262 
L 506.636887 -82.401806 
L 506.139659 -83.57135 
L 505.547858 -84.740895 
L 504.853899 -85.910439 
L 504.051942 -87.079984 
L 503.138264 -88.249528 
L 502.111451 -89.419072 
L 500.972373 -90.588617 
L 499.723884 -91.758161 
L 498.370236 -92.927705 
L 496.916226 -94.09725 
L 495.366135 -95.266794 
L 493.722557 -96.436339 
L 491.985249 -97.605883 
L 490.150175 -98.775427 
L 488.2089 -99.944972 
L 486.148495 -101.114516 
L 483.952069 -102.28406 
L 481.599998 -103.453605 
L 479.071826 -104.623149 
L 476.348763 -105.792694 
L 473.41657 -106.962238 
L 470.268594 -108.131782 
L 466.908624 -109.301327 
L 463.353233 -110.470871 
L 459.63327 -111.640415 
L 455.794227 -112.80996 
L 451.895282 -113.979504 
L 448.006956 -115.149049 
L 444.207448 -116.318593 
L 440.577877 -117.488137 
L 437.196776 -118.657682 
L 434.134319 -119.827226 
L 431.446792 -120.99677 
L 429.171851 -122.166315 
L 427.325067 -123.335859 
L 425.898112 -124.505403 
L 424.858826 -125.674948 
L 424.153209 -126.844492 
L 423.709169 -128.014037 
L 423.441722 -129.183581 
L 423.259157 -130.353125 
L 423.069625 -131.52267 
L 422.787567 -132.692214 
L 422.339444 -133.861758 
L 421.668317 -135.031303 
L 420.736973 -136.200847 
L 419.529428 -137.370392 
L 418.05083 -138.539936 
L 416.325891 -139.70948 
L 414.396119 -140.879025 
L 412.316182 -142.048569 
L 410.149768 -143.218113 
L 407.965308 -144.387658 
L 405.831893 -145.557202 
L 403.815631 -146.726747 
L 401.976679 -147.896291 
L 400.367033 -149.065835 
L 399.029161 -150.23538 
L 397.995446 -151.404924 
L 397.288369 -152.574468 
L 396.92134 -153.744013 
L 396.9 -154.913557 
L 397.223853 -156.083101 
L 397.888039 -157.252646 
L 398.885079 -158.42219 
L 400.206441 -159.591735 
L 401.843784 -160.761279 
L 403.789802 -161.930823 
L 406.038598 -163.100368 
L 408.585571 -164.269912 
L 411.426866 -165.439456 
L 414.558434 -166.609001 
L 417.974814 -167.778545 
L 421.66776 -168.94809 
L 425.624856 -170.117634 
L 429.828271 -171.287178 
L 434.253777 -172.456723 
L 438.870173 -173.626267 
L 443.63919 -174.795811 
L 448.515938 -175.965356 
L 453.449899 -177.1349 
L 458.386415 -178.304445 
L 463.268598 -179.473989 
L 468.039508 -180.643533 
L 472.644452 -181.813078 
L 477.033226 -182.982622 
L 481.16212 -184.152166 
L 484.995552 -185.321711 
L 488.5072 -186.491255 
L 491.680581 -187.6608 
L 494.509051 -188.830344 
L 496.995274 -189.999888 
L 499.150224 -191.169433 
L 500.991844 -192.338977 
L 502.543497 -193.508521 
L 503.832312 -194.678066 
L 504.887585 -195.84761 
L 505.739307 -197.017154 
L 511.260693 -197.017154 
L 511.260693 -197.017154 
L 512.112415 -195.84761 
L 513.167688 -194.678066 
L 514.456503 -193.508521 
L 516.008156 -192.338977 
L 517.849776 -191.169433 
L 520.004726 -189.999888 
L 522.490949 -188.830344 
L 525.319419 -187.6608 
L 528.4928 -186.491255 
L 532.004448 -185.321711 
L 535.83788 -184.152166 
L 539.966774 -182.982622 
L 544.355548 -181.813078 
L 548.960492 -180.643533 
L 553.731402 -179.473989 
L 558.613585 -178.304445 
L 563.550101 -177.1349 
L 568.484062 -175.965356 
L 573.36081 -174.795811 
L 578.129827 -173.626267 
L 582.746223 -172.456723 
L 587.171729 -171.287178 
L 591.375144 -170.117634 
L 595.33224 -168.94809 
L 599.025186 -167.778545 
L 602.441566 -166.609001 
L 605.573134 -165.439456 
L 608.414429 -164.269912 
L 610.961402 -163.100368 
L 613.210198 -161.930823 
L 615.156216 -160.761279 
L 616.793559 -159.591735 
L 618.114921 -158.42219 
L 619.111961 -157.252646 
L 619.776147 -156.083101 
L 620.1 -154.913557 
L 620.07866 -153.744013 
L 619.711631 -152.574468 
L 619.004554 -151.404924 
L 617.970839 -150.23538 
L 616.632967 -149.065835 
L 615.023321 -147.896291 
L 613.184369 -146.726747 
L 611.168107 -145.557202 
L 609.034692 -144.387658 
L 606.850232 -143.218113 
L 604.683818 -142.048569 
L 602.603881 -140.879025 
L 600.674109 -139.70948 
L 598.94917 -138.539936 
L 597.470572 -137.370392 
L 596.263027 -136.200847 
L 595.331683 -135.031303 
L 594.660556 -133.861758 
L 594.212433 -132.692214 
L 593.930375 -131.52267 
L 593.740843 -130.353125 
L 593.558278 -129.183581 
L 593.290831 -128.014037 
L 592.846791 -126.844492 
L 592.141174 -125.674948 
L 591.101888 -124.505403 
L 589.674933 -123.335859 
L 587.828149 -122.166315 
L 585.553208 -120.99677 
L 582.865681 -119.827226 
L 579.803224 -118.657682 
L 576.422123 -117.488137 
L 572.792552 -116.318593 
L 568.993044 -115.149049 
L 565.104718 -113.979504 
L 561.205773 -112.80996 
L 557.36673 -111.640415 
L 553.646767 -110.470871 
L 550.091376 -109.301327 
L 546.731406 -108.131782 
L 543.58343 -106.962238 
L 540.651237 -105.792694 
L 537.928174 -104.623149 
L 535.400002 -103.453605 
L 533.047931 -102.28406 
L 530.851505 -101.114516 
L 528.7911 -99.944972 
L 526.849825 -98.775427 
L 525.014751 -97.605883 
L 523.277443 -96.436339 
L 521.633865 -95.266794 
L 520.083774 -94.09725 
L 518.629764 -92.927705 
L 517.276116 -91.758161 
L 516.027627 -90.588617 
L 514.888549 -89.419072 
L 513.861736 -88.249528 
L 512.948058 -87.079984 
L 512.146101 -85.910439 
L 511.452142 -84.740895 
L 510.860341 -83.57135 
L 510.363113 -82.401806 
L 509.951591 -81.232262 
z
" style="stroke: #3f3f3f; stroke-width: 1.25"/>
    </defs>
    <g clip-path="url(#p52212501a5)">
     <use xlink:href="#m2064d6f407" x="0" y="360" style="fill: #e1812c; stroke: #3f3f3f; stroke-width: 1.25"/>
    </g>
   </g>
   <g id="matplotlib.axis_1">
    <g id="xtick_1">
     <g id="line2d_1">
      <defs>
       <path id="m7619f59308" d="M 0 0 
L 0 3.5 
" style="stroke: #000000; stroke-width: 0.8"/>
      </defs>
      <g>
       <use xlink:href="#m7619f59308" x="229.5" y="320.4" style="stroke: #000000; stroke-width: 0.8"/>
      </g>
     </g>
     <g id="text_1">
      <!-- 7.0 -->
      <g transform="translate(221.548438 334.998438) scale(0.1 -0.1)">
       <defs>
        <path id="DejaVuSans-37" d="M 525 4666 
L 3525 4666 
L 3525 4397 
L 1831 0 
L 1172 0 
L 2766 4134 
L 525 4134 
L 525 4666 
z
" transform="scale(0.015625)"/>
        <path id="DejaVuSans-2e" d="M 684 794 
L 1344 794 
L 1344 0 
L 684 0 
L 684 794 
z
" transform="scale(0.015625)"/>
        <path id="DejaVuSans-30" d="M 2034 4250 
Q 1547 4250 1301 3770 
Q 1056 3291 1056 2328 
Q 1056 1369 1301 889 
Q 1547 409 2034 409 
Q 2525 409 2770 889 
Q 3016 1369 3016 2328 
Q 3016 3291 2770 3770 
Q 2525 4250 2034 4250 
z
M 2034 4750 
Q 2819 4750 3233 4129 
Q 3647 3509 3647 2328 
Q 3647 1150 3233 529 
Q 2819 -91 2034 -91 
Q 1250 -91 836 529 
Q 422 1150 422 2328 
Q 422 3509 836 4129 
Q 1250 4750 2034 4750 
z
" transform="scale(0.015625)"/>
       </defs>
       <use xlink:href="#DejaVuSans-37"/>
       <use xlink:href="#DejaVuSans-2e" transform="translate(63.623047 0)"/>
       <use xlink:href="#DejaVuSans-30" transform="translate(95.410156 0)"/>
      </g>
     </g>
    </g>
    <g id="xtick_2">
     <g id="line2d_2">
      <g>
       <use xlink:href="#m7619f59308" x="508.5" y="320.4" style="stroke: #000000; stroke-width: 0.8"/>
      </g>
     </g>
     <g id="text_2">
      <!-- 9.4 -->
      <g transform="translate(500.548437 334.998438) scale(0.1 -0.1)">
       <defs>
        <path id="DejaVuSans-39" d="M 703 97 
L 703 672 
Q 941 559 1184 500 
Q 1428 441 1663 441 
Q 2288 441 2617 861 
Q 2947 1281 2994 2138 
Q 2813 1869 2534 1725 
Q 2256 1581 1919 1581 
Q 1219 1581 811 2004 
Q 403 2428 403 3163 
Q 403 3881 828 4315 
Q 1253 4750 1959 4750 
Q 2769 4750 3195 4129 
Q 3622 3509 3622 2328 
Q 3622 1225 3098 567 
Q 2575 -91 1691 -91 
Q 1453 -91 1209 -44 
Q 966 3 703 97 
z
M 1959 2075 
Q 2384 2075 2632 2365 
Q 2881 2656 2881 3163 
Q 2881 3666 2632 3958 
Q 2384 4250 1959 4250 
Q 1534 4250 1286 3958 
Q 1038 3666 1038 3163 
Q 1038 2656 1286 2365 
Q 1534 2075 1959 2075 
z
" transform="scale(0.015625)"/>
        <path id="DejaVuSans-34" d="M 2419 4116 
L 825 1625 
L 2419 1625 
L 2419 4116 
z
M 2253 4666 
L 3047 4666 
L 3047 1625 
L 3713 1625 
L 3713 1100 
L 3047 1100 
L 3047 0 
L 2419 0 
L 2419 1100 
L 313 1100 
L 313 1709 
L 2253 4666 
z
" transform="scale(0.015625)"/>
       </defs>
       <use xlink:href="#DejaVuSans-39"/>
       <use xlink:href="#DejaVuSans-2e" transform="translate(63.623047 0)"/>
       <use xlink:href="#DejaVuSans-34" transform="translate(95.410156 0)"/>
      </g>
     </g>
    </g>
    <g id="text_3">
     <!-- value -->
     <g transform="translate(355.342188 348.676562) scale(0.1 -0.1)">
      <defs>
       <path id="DejaVuSans-76" d="M 191 3500 
L 800 3500 
L 1894 563 
L 2988 3500 
L 3597 3500 
L 2284 0 
L 1503 0 
L 191 3500 
z
" transform="scale(0.015625)"/>
       <path id="DejaVuSans-61" d="M 2194 1759 
Q 1497 1759 1228 1600 
Q 959 1441 959 1056 
Q 959 750 1161 570 
Q 1363 391 1709 391 
Q 2188 391 2477 730 
Q 2766 1069 2766 1631 
L 2766 1759 
L 2194 1759 
z
M 3341 1997 
L 3341 0 
L 2766 0 
L 2766 531 
Q 2569 213 2275 61 
Q 1981 -91 1556 -91 
Q 1019 -91 701 211 
Q 384 513 384 1019 
Q 384 1609 779 1909 
Q 1175 2209 1959 2209 
L 2766 2209 
L 2766 2266 
Q 2766 2663 2505 2880 
Q 2244 3097 1772 3097 
Q 1472 3097 1187 3025 
Q 903 2953 641 2809 
L 641 3341 
Q 956 3463 1253 3523 
Q 1550 3584 1831 3584 
Q 2591 3584 2966 3190 
Q 3341 2797 3341 1997 
z
" transform="scale(0.015625)"/>
       <path id="DejaVuSans-6c" d="M 603 4863 
L 1178 4863 
L 1178 0 
L 603 0 
L 603 4863 
z
" transform="scale(0.015625)"/>
       <path id="DejaVuSans-75" d="M 544 1381 
L 544 3500 
L 1119 3500 
L 1119 1403 
Q 1119 906 1312 657 
Q 1506 409 1894 409 
Q 2359 409 2629 706 
Q 2900 1003 2900 1516 
L 2900 3500 
L 3475 3500 
L 3475 0 
L 2900 0 
L 2900 538 
Q 2691 219 2414 64 
Q 2138 -91 1772 -91 
Q 1169 -91 856 284 
Q 544 659 544 1381 
z
M 1991 3584 
L 1991 3584 
z
" transform="scale(0.015625)"/>
       <path id="DejaVuSans-65" d="M 3597 1894 
L 3597 1613 
L 953 1613 
Q 991 1019 1311 708 
Q 1631 397 2203 397 
Q 2534 397 2845 478 
Q 3156 559 3463 722 
L 3463 178 
Q 3153 47 2828 -22 
Q 2503 -91 2169 -91 
Q 1331 -91 842 396 
Q 353 884 353 1716 
Q 353 2575 817 3079 
Q 1281 3584 2069 3584 
Q 2775 3584 3186 3129 
Q 3597 2675 3597 1894 
z
M 3022 2063 
Q 3016 2534 2758 2815 
Q 2500 3097 2075 3097 
Q 1594 3097 1305 2825 
Q 1016 2553 972 2059 
L 3022 2063 
z
" transform="scale(0.015625)"/>
      </defs>
      <use xlink:href="#DejaVuSans-76"/>
      <use xlink:href="#DejaVuSans-61" transform="translate(59.179688 0)"/>
      <use xlink:href="#DejaVuSans-6c" transform="translate(120.458984 0)"/>
      <use xlink:href="#DejaVuSans-75" transform="translate(148.242188 0)"/>
      <use xlink:href="#DejaVuSans-65" transform="translate(211.621094 0)"/>
     </g>
    </g>
   </g>
   <g id="matplotlib.axis_2">
    <g id="ytick_1">
     <g id="line2d_3">
      <defs>
       <path id="md30693954c" d="M 0 0 
L -3.5 0 
" style="stroke: #000000; stroke-width: 0.8"/>
      </defs>
      <g>
       <use xlink:href="#md30693954c" x="90" y="320.148331" style="stroke: #000000; stroke-width: 0.8"/>
      </g>
     </g>
     <g id="text_4">
      <!-- −10 -->
      <g transform="translate(61.895313 323.947549) scale(0.1 -0.1)">
       <defs>
        <path id="DejaVuSans-2212" d="M 678 2272 
L 4684 2272 
L 4684 1741 
L 678 1741 
L 678 2272 
z
" transform="scale(0.015625)"/>
        <path id="DejaVuSans-31" d="M 794 531 
L 1825 531 
L 1825 4091 
L 703 3866 
L 703 4441 
L 1819 4666 
L 2450 4666 
L 2450 531 
L 3481 531 
L 3481 0 
L 794 0 
L 794 531 
z
" transform="scale(0.015625)"/>
       </defs>
       <use xlink:href="#DejaVuSans-2212"/>
       <use xlink:href="#DejaVuSans-31" transform="translate(83.789062 0)"/>
       <use xlink:href="#DejaVuSans-30" transform="translate(147.412109 0)"/>
      </g>
     </g>
    </g>
    <g id="ytick_2">
     <g id="line2d_4">
      <g>
       <use xlink:href="#md30693954c" x="90" y="281.314988" style="stroke: #000000; stroke-width: 0.8"/>
      </g>
     </g>
     <g id="text_5">
      <!-- 0 -->
      <g transform="translate(76.6375 285.114207) scale(0.1 -0.1)">
       <use xlink:href="#DejaVuSans-30"/>
      </g>
     </g>
    </g>
    <g id="ytick_3">
     <g id="line2d_5">
      <g>
       <use xlink:href="#md30693954c" x="90" y="242.481645" style="stroke: #000000; stroke-width: 0.8"/>
      </g>
     </g>
     <g id="text_6">
      <!-- 10 -->
      <g transform="translate(70.275 246.280864) scale(0.1 -0.1)">
       <use xlink:href="#DejaVuSans-31"/>
       <use xlink:href="#DejaVuSans-30" transform="translate(63.623047 0)"/>
      </g>
     </g>
    </g>
    <g id="ytick_4">
     <g id="line2d_6">
      <g>
       <use xlink:href="#md30693954c" x="90" y="203.648303" style="stroke: #000000; stroke-width: 0.8"/>
      </g>
     </g>
     <g id="text_7">
      <!-- 20 -->
      <g transform="translate(70.275 207.447521) scale(0.1 -0.1)">
       <defs>
        <path id="DejaVuSans-32" d="M 1228 531 
L 3431 531 
L 3431 0 
L 469 0 
L 469 531 
Q 828 903 1448 1529 
Q 2069 2156 2228 2338 
Q 2531 2678 2651 2914 
Q 2772 3150 2772 3378 
Q 2772 3750 2511 3984 
Q 2250 4219 1831 4219 
Q 1534 4219 1204 4116 
Q 875 4013 500 3803 
L 500 4441 
Q 881 4594 1212 4672 
Q 1544 4750 1819 4750 
Q 2544 4750 2975 4387 
Q 3406 4025 3406 3419 
Q 3406 3131 3298 2873 
Q 3191 2616 2906 2266 
Q 2828 2175 2409 1742 
Q 1991 1309 1228 531 
z
" transform="scale(0.015625)"/>
       </defs>
       <use xlink:href="#DejaVuSans-32"/>
       <use xlink:href="#DejaVuSans-30" transform="translate(63.623047 0)"/>
      </g>
     </g>
    </g>
    <g id="ytick_5">
     <g id="line2d_7">
      <g>
       <use xlink:href="#md30693954c" x="90" y="164.81496" style="stroke: #000000; stroke-width: 0.8"/>
      </g>
     </g>
     <g id="text_8">
      <!-- 30 -->
      <g transform="translate(70.275 168.614179) scale(0.1 -0.1)">
       <defs>
        <path id="DejaVuSans-33" d="M 2597 2516 
Q 3050 2419 3304 2112 
Q 3559 1806 3559 1356 
Q 3559 666 3084 287 
Q 2609 -91 1734 -91 
Q 1441 -91 1130 -33 
Q 819 25 488 141 
L 488 750 
Q 750 597 1062 519 
Q 1375 441 1716 441 
Q 2309 441 2620 675 
Q 2931 909 2931 1356 
Q 2931 1769 2642 2001 
Q 2353 2234 1838 2234 
L 1294 2234 
L 1294 2753 
L 1863 2753 
Q 2328 2753 2575 2939 
Q 2822 3125 2822 3475 
Q 2822 3834 2567 4026 
Q 2313 4219 1838 4219 
Q 1578 4219 1281 4162 
Q 984 4106 628 3988 
L 628 4550 
Q 988 4650 1302 4700 
Q 1616 4750 1894 4750 
Q 2613 4750 3031 4423 
Q 3450 4097 3450 3541 
Q 3450 3153 3228 2886 
Q 3006 2619 2597 2516 
z
" transform="scale(0.015625)"/>
       </defs>
       <use xlink:href="#DejaVuSans-33"/>
       <use xlink:href="#DejaVuSans-30" transform="translate(63.623047 0)"/>
      </g>
     </g>
    </g>
    <g id="ytick_6">
     <g id="line2d_8">
      <g>
       <use xlink:href="#md30693954c" x="90" y="125.981617" style="stroke: #000000; stroke-width: 0.8"/>
      </g>
     </g>
     <g id="text_9">
      <!-- 40 -->
      <g transform="translate(70.275 129.780836) scale(0.1 -0.1)">
       <use xlink:href="#DejaVuSans-34"/>
       <use xlink:href="#DejaVuSans-30" transform="translate(63.623047 0)"/>
      </g>
     </g>
    </g>
    <g id="ytick_7">
     <g id="line2d_9">
      <g>
       <use xlink:href="#md30693954c" x="90" y="87.148275" style="stroke: #000000; stroke-width: 0.8"/>
      </g>
     </g>
     <g id="text_10">
      <!-- 50 -->
      <g transform="translate(70.275 90.947493) scale(0.1 -0.1)">
       <defs>
        <path id="DejaVuSans-35" d="M 691 4666 
L 3169 4666 
L 3169 4134 
L 1269 4134 
L 1269 2991 
Q 1406 3038 1543 3061 
Q 1681 3084 1819 3084 
Q 2600 3084 3056 2656 
Q 3513 2228 3513 1497 
Q 3513 744 3044 326 
Q 2575 -91 1722 -91 
Q 1428 -91 1123 -41 
Q 819 9 494 109 
L 494 744 
Q 775 591 1075 516 
Q 1375 441 1709 441 
Q 2250 441 2565 725 
Q 2881 1009 2881 1497 
Q 2881 1984 2565 2268 
Q 2250 2553 1709 2553 
Q 1456 2553 1204 2497 
Q 953 2441 691 2322 
L 691 4666 
z
" transform="scale(0.015625)"/>
       </defs>
       <use xlink:href="#DejaVuSans-35"/>
       <use xlink:href="#DejaVuSans-30" transform="translate(63.623047 0)"/>
      </g>
     </g>
    </g>
    <g id="ytick_8">
     <g id="line2d_10">
      <g>
       <use xlink:href="#md30693954c" x="90" y="48.314932" style="stroke: #000000; stroke-width: 0.8"/>
      </g>
     </g>
     <g id="text_11">
      <!-- 60 -->
      <g transform="translate(70.275 52.114151) scale(0.1 -0.1)">
       <defs>
        <path id="DejaVuSans-36" d="M 2113 2584 
Q 1688 2584 1439 2293 
Q 1191 2003 1191 1497 
Q 1191 994 1439 701 
Q 1688 409 2113 409 
Q 2538 409 2786 701 
Q 3034 994 3034 1497 
Q 3034 2003 2786 2293 
Q 2538 2584 2113 2584 
z
M 3366 4563 
L 3366 3988 
Q 3128 4100 2886 4159 
Q 2644 4219 2406 4219 
Q 1781 4219 1451 3797 
Q 1122 3375 1075 2522 
Q 1259 2794 1537 2939 
Q 1816 3084 2150 3084 
Q 2853 3084 3261 2657 
Q 3669 2231 3669 1497 
Q 3669 778 3244 343 
Q 2819 -91 2113 -91 
Q 1303 -91 875 529 
Q 447 1150 447 2328 
Q 447 3434 972 4092 
Q 1497 4750 2381 4750 
Q 2619 4750 2861 4703 
Q 3103 4656 3366 4563 
z
" transform="scale(0.015625)"/>
       </defs>
       <use xlink:href="#DejaVuSans-36"/>
       <use xlink:href="#DejaVuSans-30" transform="translate(63.623047 0)"/>
      </g>
     </g>
    </g>
    <g id="text_12">
     <!-- cont_variable -->
     <g transform="translate(55.5375 215.409375) rotate(-90) scale(0.1 -0.1)">
      <defs>
       <path id="DejaVuSans-63" d="M 3122 3366 
L 3122 2828 
Q 2878 2963 2633 3030 
Q 2388 3097 2138 3097 
Q 1578 3097 1268 2742 
Q 959 2388 959 1747 
Q 959 1106 1268 751 
Q 1578 397 2138 397 
Q 2388 397 2633 464 
Q 2878 531 3122 666 
L 3122 134 
Q 2881 22 2623 -34 
Q 2366 -91 2075 -91 
Q 1284 -91 818 406 
Q 353 903 353 1747 
Q 353 2603 823 3093 
Q 1294 3584 2113 3584 
Q 2378 3584 2631 3529 
Q 2884 3475 3122 3366 
z
" transform="scale(0.015625)"/>
       <path id="DejaVuSans-6f" d="M 1959 3097 
Q 1497 3097 1228 2736 
Q 959 2375 959 1747 
Q 959 1119 1226 758 
Q 1494 397 1959 397 
Q 2419 397 2687 759 
Q 2956 1122 2956 1747 
Q 2956 2369 2687 2733 
Q 2419 3097 1959 3097 
z
M 1959 3584 
Q 2709 3584 3137 3096 
Q 3566 2609 3566 1747 
Q 3566 888 3137 398 
Q 2709 -91 1959 -91 
Q 1206 -91 779 398 
Q 353 888 353 1747 
Q 353 2609 779 3096 
Q 1206 3584 1959 3584 
z
" transform="scale(0.015625)"/>
       <path id="DejaVuSans-6e" d="M 3513 2113 
L 3513 0 
L 2938 0 
L 2938 2094 
Q 2938 2591 2744 2837 
Q 2550 3084 2163 3084 
Q 1697 3084 1428 2787 
Q 1159 2491 1159 1978 
L 1159 0 
L 581 0 
L 581 3500 
L 1159 3500 
L 1159 2956 
Q 1366 3272 1645 3428 
Q 1925 3584 2291 3584 
Q 2894 3584 3203 3211 
Q 3513 2838 3513 2113 
z
" transform="scale(0.015625)"/>
       <path id="DejaVuSans-74" d="M 1172 4494 
L 1172 3500 
L 2356 3500 
L 2356 3053 
L 1172 3053 
L 1172 1153 
Q 1172 725 1289 603 
Q 1406 481 1766 481 
L 2356 481 
L 2356 0 
L 1766 0 
Q 1100 0 847 248 
Q 594 497 594 1153 
L 594 3053 
L 172 3053 
L 172 3500 
L 594 3500 
L 594 4494 
L 1172 4494 
z
" transform="scale(0.015625)"/>
       <path id="DejaVuSans-5f" d="M 3263 -1063 
L 3263 -1509 
L -63 -1509 
L -63 -1063 
L 3263 -1063 
z
" transform="scale(0.015625)"/>
       <path id="DejaVuSans-72" d="M 2631 2963 
Q 2534 3019 2420 3045 
Q 2306 3072 2169 3072 
Q 1681 3072 1420 2755 
Q 1159 2438 1159 1844 
L 1159 0 
L 581 0 
L 581 3500 
L 1159 3500 
L 1159 2956 
Q 1341 3275 1631 3429 
Q 1922 3584 2338 3584 
Q 2397 3584 2469 3576 
Q 2541 3569 2628 3553 
L 2631 2963 
z
" transform="scale(0.015625)"/>
       <path id="DejaVuSans-69" d="M 603 3500 
L 1178 3500 
L 1178 0 
L 603 0 
L 603 3500 
z
M 603 4863 
L 1178 4863 
L 1178 4134 
L 603 4134 
L 603 4863 
z
" transform="scale(0.015625)"/>
       <path id="DejaVuSans-62" d="M 3116 1747 
Q 3116 2381 2855 2742 
Q 2594 3103 2138 3103 
Q 1681 3103 1420 2742 
Q 1159 2381 1159 1747 
Q 1159 1113 1420 752 
Q 1681 391 2138 391 
Q 2594 391 2855 752 
Q 3116 1113 3116 1747 
z
M 1159 2969 
Q 1341 3281 1617 3432 
Q 1894 3584 2278 3584 
Q 2916 3584 3314 3078 
Q 3713 2572 3713 1747 
Q 3713 922 3314 415 
Q 2916 -91 2278 -91 
Q 1894 -91 1617 61 
Q 1341 213 1159 525 
L 1159 0 
L 581 0 
L 581 4863 
L 1159 4863 
L 1159 2969 
z
" transform="scale(0.015625)"/>
      </defs>
      <use xlink:href="#DejaVuSans-63"/>
      <use xlink:href="#DejaVuSans-6f" transform="translate(54.980469 0)"/>
      <use xlink:href="#DejaVuSans-6e" transform="translate(116.162109 0)"/>
      <use xlink:href="#DejaVuSans-74" transform="translate(179.541016 0)"/>
      <use xlink:href="#DejaVuSans-5f" transform="translate(218.75 0)"/>
      <use xlink:href="#DejaVuSans-76" transform="translate(268.75 0)"/>
      <use xlink:href="#DejaVuSans-61" transform="translate(327.929688 0)"/>
      <use xlink:href="#DejaVuSans-72" transform="translate(389.208984 0)"/>
      <use xlink:href="#DejaVuSans-69" transform="translate(430.322266 0)"/>
      <use xlink:href="#DejaVuSans-61" transform="translate(458.105469 0)"/>
      <use xlink:href="#DejaVuSans-62" transform="translate(519.384766 0)"/>
      <use xlink:href="#DejaVuSans-6c" transform="translate(582.861328 0)"/>
      <use xlink:href="#DejaVuSans-65" transform="translate(610.644531 0)"/>
     </g>
    </g>
   </g>
   <g id="patch_3">
    <path d="M 90 320.4 
L 90 43.2 
" style="fill: none; stroke: #000000; stroke-width: 0.8; stroke-linejoin: miter; stroke-linecap: square"/>
   </g>
   <g id="patch_4">
    <path d="M 648 320.4 
L 648 43.2 
" style="fill: none; stroke: #000000; stroke-width: 0.8; stroke-linejoin: miter; stroke-linecap: square"/>
   </g>
   <g id="patch_5">
    <path d="M 90 320.4 
L 648 320.4 
" style="fill: none; stroke: #000000; stroke-width: 0.8; stroke-linejoin: miter; stroke-linecap: square"/>
   </g>
   <g id="patch_6">
    <path d="M 90 43.2 
L 648 43.2 
" style="fill: none; stroke: #000000; stroke-width: 0.8; stroke-linejoin: miter; stroke-linecap: square"/>
   </g>
   <g id="PathCollection_1">
    <defs>
     <path id="mdef7a37d3b" d="M 0 2.5 
C 0.663008 2.5 1.29895 2.236584 1.767767 1.767767 
C 2.236584 1.29895 2.5 0.663008 2.5 0 
C 2.5 -0.663008 2.236584 -1.29895 1.767767 -1.767767 
C 1.29895 -2.236584 0.663008 -2.5 0 -2.5 
C -0.663008 -2.5 -1.29895 -2.236584 -1.767767 -1.767767 
C -2.236584 -1.29895 -2.5 -0.663008 -2.5 0 
C -2.5 0.663008 -2.236584 1.29895 -1.767767 1.767767 
C -1.29895 2.236584 -0.663008 2.5 0 2.5 
z
"/>
    </defs>
    <g clip-path="url(#p52212501a5)">
     <use xlink:href="#mdef7a37d3b" x="246.429908" y="219.472676" style="fill-opacity: 0.3"/>
     <use xlink:href="#mdef7a37d3b" x="256.605444" y="230.38749" style="fill-opacity: 0.3"/>
     <use xlink:href="#mdef7a37d3b" x="210.725454" y="166.29792" style="fill-opacity: 0.3"/>
     <use xlink:href="#mdef7a37d3b" x="246.984158" y="125.916436" style="fill-opacity: 0.3"/>
     <use xlink:href="#mdef7a37d3b" x="231.396678" y="220.864747" style="fill-opacity: 0.3"/>
     <use xlink:href="#mdef7a37d3b" x="240.481195" y="232.213139" style="fill-opacity: 0.3"/>
     <use xlink:href="#mdef7a37d3b" x="216.912871" y="185.114158" style="fill-opacity: 0.3"/>
     <use xlink:href="#mdef7a37d3b" x="236.650364" y="171.655562" style="fill-opacity: 0.3"/>
     <use xlink:href="#mdef7a37d3b" x="207.284941" y="223.241254" style="fill-opacity: 0.3"/>
     <use xlink:href="#mdef7a37d3b" x="224.584316" y="223.33626" style="fill-opacity: 0.3"/>
     <use xlink:href="#mdef7a37d3b" x="203.070116" y="158.542851" style="fill-opacity: 0.3"/>
     <use xlink:href="#mdef7a37d3b" x="227.714298" y="170.958938" style="fill-opacity: 0.3"/>
     <use xlink:href="#mdef7a37d3b" x="245.115753" y="211.462798" style="fill-opacity: 0.3"/>
     <use xlink:href="#mdef7a37d3b" x="252.331907" y="185.436979" style="fill-opacity: 0.3"/>
     <use xlink:href="#mdef7a37d3b" x="251.740386" y="183.610981" style="fill-opacity: 0.3"/>
     <use xlink:href="#mdef7a37d3b" x="245.723336" y="175.842822" style="fill-opacity: 0.3"/>
     <use xlink:href="#mdef7a37d3b" x="203.318075" y="215.151337" style="fill-opacity: 0.3"/>
     <use xlink:href="#mdef7a37d3b" x="239.469317" y="183.14483" style="fill-opacity: 0.3"/>
     <use xlink:href="#mdef7a37d3b" x="243.073644" y="252.226026" style="fill-opacity: 0.3"/>
     <use xlink:href="#mdef7a37d3b" x="216.268754" y="193.555144" style="fill-opacity: 0.3"/>
     <use xlink:href="#mdef7a37d3b" x="254.153819" y="162.794127" style="fill-opacity: 0.3"/>
     <use xlink:href="#mdef7a37d3b" x="204.47248" y="182.746369" style="fill-opacity: 0.3"/>
     <use xlink:href="#mdef7a37d3b" x="205.470907" y="181.955997" style="fill-opacity: 0.3"/>
     <use xlink:href="#mdef7a37d3b" x="236.297887" y="200.104345" style="fill-opacity: 0.3"/>
     <use xlink:href="#mdef7a37d3b" x="210.183412" y="175.48811" style="fill-opacity: 0.3"/>
     <use xlink:href="#mdef7a37d3b" x="203.351906" y="188.427756" style="fill-opacity: 0.3"/>
     <use xlink:href="#mdef7a37d3b" x="213.158471" y="213.285985" style="fill-opacity: 0.3"/>
     <use xlink:href="#mdef7a37d3b" x="218.754756" y="190.383594" style="fill-opacity: 0.3"/>
     <use xlink:href="#mdef7a37d3b" x="221.570876" y="207.735562" style="fill-opacity: 0.3"/>
     <use xlink:href="#mdef7a37d3b" x="214.509217" y="174.673441" style="fill-opacity: 0.3"/>
     <use xlink:href="#mdef7a37d3b" x="213.930348" y="185.978573" style="fill-opacity: 0.3"/>
     <use xlink:href="#mdef7a37d3b" x="230.297561" y="209.40262" style="fill-opacity: 0.3"/>
     <use xlink:href="#mdef7a37d3b" x="221.933476" y="170.124185" style="fill-opacity: 0.3"/>
     <use xlink:href="#mdef7a37d3b" x="228.587141" y="150.510259" style="fill-opacity: 0.3"/>
     <use xlink:href="#mdef7a37d3b" x="230.40311" y="169.026987" style="fill-opacity: 0.3"/>
     <use xlink:href="#mdef7a37d3b" x="229.709644" y="160.022809" style="fill-opacity: 0.3"/>
     <use xlink:href="#mdef7a37d3b" x="234.057805" y="188.728552" style="fill-opacity: 0.3"/>
     <use xlink:href="#mdef7a37d3b" x="250.081736" y="165.260204" style="fill-opacity: 0.3"/>
     <use xlink:href="#mdef7a37d3b" x="250.302187" y="185.341077" style="fill-opacity: 0.3"/>
     <use xlink:href="#mdef7a37d3b" x="255.69211" y="176.249321" style="fill-opacity: 0.3"/>
     <use xlink:href="#mdef7a37d3b" x="221.13027" y="187.356139" style="fill-opacity: 0.3"/>
     <use xlink:href="#mdef7a37d3b" x="221.60131" y="220.525137" style="fill-opacity: 0.3"/>
     <use xlink:href="#mdef7a37d3b" x="252.093058" y="220.289378" style="fill-opacity: 0.3"/>
     <use xlink:href="#mdef7a37d3b" x="250.69774" y="232.390362" style="fill-opacity: 0.3"/>
     <use xlink:href="#mdef7a37d3b" x="208.578597" y="209.714583" style="fill-opacity: 0.3"/>
     <use xlink:href="#mdef7a37d3b" x="215.271672" y="218.715088" style="fill-opacity: 0.3"/>
     <use xlink:href="#mdef7a37d3b" x="202.873881" y="216.980546" style="fill-opacity: 0.3"/>
     <use xlink:href="#mdef7a37d3b" x="241.792255" y="156.140601" style="fill-opacity: 0.3"/>
     <use xlink:href="#mdef7a37d3b" x="222.368043" y="142.56027" style="fill-opacity: 0.3"/>
     <use xlink:href="#mdef7a37d3b" x="238.63156" y="154.30922" style="fill-opacity: 0.3"/>
     <use xlink:href="#mdef7a37d3b" x="203.430814" y="151.216727" style="fill-opacity: 0.3"/>
     <use xlink:href="#mdef7a37d3b" x="223.209051" y="141.530822" style="fill-opacity: 0.3"/>
     <use xlink:href="#mdef7a37d3b" x="209.972381" y="155.226747" style="fill-opacity: 0.3"/>
     <use xlink:href="#mdef7a37d3b" x="242.900311" y="148.672833" style="fill-opacity: 0.3"/>
     <use xlink:href="#mdef7a37d3b" x="229.338643" y="143.817678" style="fill-opacity: 0.3"/>
     <use xlink:href="#mdef7a37d3b" x="208.071826" y="126.390183" style="fill-opacity: 0.3"/>
     <use xlink:href="#mdef7a37d3b" x="248.844613" y="125.861972" style="fill-opacity: 0.3"/>
     <use xlink:href="#mdef7a37d3b" x="209.275063" y="117.026998" style="fill-opacity: 0.3"/>
     <use xlink:href="#mdef7a37d3b" x="228.962355" y="133.750499" style="fill-opacity: 0.3"/>
     <use xlink:href="#mdef7a37d3b" x="211.77614" y="118.867982" style="fill-opacity: 0.3"/>
     <use xlink:href="#mdef7a37d3b" x="238.087942" y="130.715324" style="fill-opacity: 0.3"/>
     <use xlink:href="#mdef7a37d3b" x="253.753172" y="134.722614" style="fill-opacity: 0.3"/>
     <use xlink:href="#mdef7a37d3b" x="216.947138" y="106.974133" style="fill-opacity: 0.3"/>
     <use xlink:href="#mdef7a37d3b" x="203.83832" y="162.912581" style="fill-opacity: 0.3"/>
     <use xlink:href="#mdef7a37d3b" x="229.08416" y="164.328588" style="fill-opacity: 0.3"/>
     <use xlink:href="#mdef7a37d3b" x="214.253042" y="152.261717" style="fill-opacity: 0.3"/>
     <use xlink:href="#mdef7a37d3b" x="230.537387" y="135.342977" style="fill-opacity: 0.3"/>
     <use xlink:href="#mdef7a37d3b" x="223.078789" y="143.84379" style="fill-opacity: 0.3"/>
     <use xlink:href="#mdef7a37d3b" x="246.589915" y="135.08858" style="fill-opacity: 0.3"/>
     <use xlink:href="#mdef7a37d3b" x="219.712287" y="118.493566" style="fill-opacity: 0.3"/>
     <use xlink:href="#mdef7a37d3b" x="221.180624" y="125.748074" style="fill-opacity: 0.3"/>
     <use xlink:href="#mdef7a37d3b" x="231.488636" y="205.17389" style="fill-opacity: 0.3"/>
     <use xlink:href="#mdef7a37d3b" x="233.888398" y="217.589776" style="fill-opacity: 0.3"/>
     <use xlink:href="#mdef7a37d3b" x="220.524863" y="226.91276" style="fill-opacity: 0.3"/>
     <use xlink:href="#mdef7a37d3b" x="256.870829" y="241.744344" style="fill-opacity: 0.3"/>
     <use xlink:href="#mdef7a37d3b" x="251.734783" y="83.51738" style="fill-opacity: 0.3"/>
     <use xlink:href="#mdef7a37d3b" x="233.684335" y="82.285012" style="fill-opacity: 0.3"/>
     <use xlink:href="#mdef7a37d3b" x="240.966182" y="83.793598" style="fill-opacity: 0.3"/>
     <use xlink:href="#mdef7a37d3b" x="212.283698" y="87.196063" style="fill-opacity: 0.3"/>
     <use xlink:href="#mdef7a37d3b" x="209.405495" y="83.491044" style="fill-opacity: 0.3"/>
     <use xlink:href="#mdef7a37d3b" x="251.257345" y="83.614262" style="fill-opacity: 0.3"/>
     <use xlink:href="#mdef7a37d3b" x="255.73628" y="91.132758" style="fill-opacity: 0.3"/>
     <use xlink:href="#mdef7a37d3b" x="251.461972" y="103.741385" style="fill-opacity: 0.3"/>
     <use xlink:href="#mdef7a37d3b" x="213.055874" y="83.925084" style="fill-opacity: 0.3"/>
     <use xlink:href="#mdef7a37d3b" x="215.918559" y="134.39243" style="fill-opacity: 0.3"/>
     <use xlink:href="#mdef7a37d3b" x="252.219321" y="225.414962" style="fill-opacity: 0.3"/>
     <use xlink:href="#mdef7a37d3b" x="214.289102" y="227.168128" style="fill-opacity: 0.3"/>
     <use xlink:href="#mdef7a37d3b" x="220.016835" y="236.740386" style="fill-opacity: 0.3"/>
     <use xlink:href="#mdef7a37d3b" x="221.420124" y="215.488795" style="fill-opacity: 0.3"/>
     <use xlink:href="#mdef7a37d3b" x="225.601841" y="217.386231" style="fill-opacity: 0.3"/>
     <use xlink:href="#mdef7a37d3b" x="226.70197" y="190.364973" style="fill-opacity: 0.3"/>
     <use xlink:href="#mdef7a37d3b" x="207.03539" y="179.400068" style="fill-opacity: 0.3"/>
     <use xlink:href="#mdef7a37d3b" x="256.56142" y="165.255854" style="fill-opacity: 0.3"/>
     <use xlink:href="#mdef7a37d3b" x="254.942905" y="176.518751" style="fill-opacity: 0.3"/>
     <use xlink:href="#mdef7a37d3b" x="210.151835" y="182.027451" style="fill-opacity: 0.3"/>
     <use xlink:href="#mdef7a37d3b" x="233.408517" y="171.628639" style="fill-opacity: 0.3"/>
     <use xlink:href="#mdef7a37d3b" x="251.691773" y="178.62132" style="fill-opacity: 0.3"/>
     <use xlink:href="#mdef7a37d3b" x="204.652314" y="166.183653" style="fill-opacity: 0.3"/>
     <use xlink:href="#mdef7a37d3b" x="216.755218" y="175.268278" style="fill-opacity: 0.3"/>
     <use xlink:href="#mdef7a37d3b" x="218.257394" y="162.183912" style="fill-opacity: 0.3"/>
     <use xlink:href="#mdef7a37d3b" x="244.46178" y="182.58429" style="fill-opacity: 0.3"/>
     <use xlink:href="#mdef7a37d3b" x="227.390391" y="158.230332" style="fill-opacity: 0.3"/>
     <use xlink:href="#mdef7a37d3b" x="221.562643" y="161.796522" style="fill-opacity: 0.3"/>
     <use xlink:href="#mdef7a37d3b" x="230.950402" y="154.114949" style="fill-opacity: 0.3"/>
     <use xlink:href="#mdef7a37d3b" x="203.418039" y="160.13421" style="fill-opacity: 0.3"/>
     <use xlink:href="#mdef7a37d3b" x="213.047071" y="166.715118" style="fill-opacity: 0.3"/>
     <use xlink:href="#mdef7a37d3b" x="253.922347" y="157.34798" style="fill-opacity: 0.3"/>
     <use xlink:href="#mdef7a37d3b" x="252.257281" y="158.165682" style="fill-opacity: 0.3"/>
     <use xlink:href="#mdef7a37d3b" x="216.833267" y="160.8892" style="fill-opacity: 0.3"/>
     <use xlink:href="#mdef7a37d3b" x="227.147753" y="158.378166" style="fill-opacity: 0.3"/>
     <use xlink:href="#mdef7a37d3b" x="203.744779" y="173.398014" style="fill-opacity: 0.3"/>
     <use xlink:href="#mdef7a37d3b" x="229.150816" y="132.985055" style="fill-opacity: 0.3"/>
     <use xlink:href="#mdef7a37d3b" x="240.302919" y="159.629544" style="fill-opacity: 0.3"/>
     <use xlink:href="#mdef7a37d3b" x="247.44228" y="144.184436" style="fill-opacity: 0.3"/>
     <use xlink:href="#mdef7a37d3b" x="227.278047" y="132.429789" style="fill-opacity: 0.3"/>
     <use xlink:href="#mdef7a37d3b" x="218.440704" y="132.634262" style="fill-opacity: 0.3"/>
     <use xlink:href="#mdef7a37d3b" x="255.596038" y="97.171937" style="fill-opacity: 0.3"/>
     <use xlink:href="#mdef7a37d3b" x="212.530975" y="128.885555" style="fill-opacity: 0.3"/>
     <use xlink:href="#mdef7a37d3b" x="247.830745" y="116.778115" style="fill-opacity: 0.3"/>
     <use xlink:href="#mdef7a37d3b" x="250.762446" y="107.108908" style="fill-opacity: 0.3"/>
     <use xlink:href="#mdef7a37d3b" x="234.889423" y="154.154275" style="fill-opacity: 0.3"/>
     <use xlink:href="#mdef7a37d3b" x="230.15833" y="154.729708" style="fill-opacity: 0.3"/>
     <use xlink:href="#mdef7a37d3b" x="244.725762" y="157.296623" style="fill-opacity: 0.3"/>
     <use xlink:href="#mdef7a37d3b" x="246.147007" y="146.962872" style="fill-opacity: 0.3"/>
     <use xlink:href="#mdef7a37d3b" x="255.038402" y="140.056852" style="fill-opacity: 0.3"/>
     <use xlink:href="#mdef7a37d3b" x="243.233316" y="151.890932" style="fill-opacity: 0.3"/>
     <use xlink:href="#mdef7a37d3b" x="217.367959" y="142.325356" style="fill-opacity: 0.3"/>
     <use xlink:href="#mdef7a37d3b" x="232.553591" y="143.165604" style="fill-opacity: 0.3"/>
     <use xlink:href="#mdef7a37d3b" x="248.46947" y="141.279904" style="fill-opacity: 0.3"/>
     <use xlink:href="#mdef7a37d3b" x="251.159646" y="124.708466" style="fill-opacity: 0.3"/>
     <use xlink:href="#mdef7a37d3b" x="234.584859" y="150.103065" style="fill-opacity: 0.3"/>
     <use xlink:href="#mdef7a37d3b" x="241.923121" y="164.992887" style="fill-opacity: 0.3"/>
     <use xlink:href="#mdef7a37d3b" x="246.207554" y="158.085833" style="fill-opacity: 0.3"/>
     <use xlink:href="#mdef7a37d3b" x="232.59407" y="192.922724" style="fill-opacity: 0.3"/>
     <use xlink:href="#mdef7a37d3b" x="217.826335" y="239.718715" style="fill-opacity: 0.3"/>
     <use xlink:href="#mdef7a37d3b" x="245.77369" y="281.314988" style="fill-opacity: 0.3"/>
     <use xlink:href="#mdef7a37d3b" x="251.952419" y="199.332645" style="fill-opacity: 0.3"/>
     <use xlink:href="#mdef7a37d3b" x="224.620007" y="189.672054" style="fill-opacity: 0.3"/>
     <use xlink:href="#mdef7a37d3b" x="245.752722" y="114.270724" style="fill-opacity: 0.3"/>
     <use xlink:href="#mdef7a37d3b" x="257.215903" y="132.420263" style="fill-opacity: 0.3"/>
     <use xlink:href="#mdef7a37d3b" x="223.760057" y="101.442234" style="fill-opacity: 0.3"/>
     <use xlink:href="#mdef7a37d3b" x="240.275733" y="172.501018" style="fill-opacity: 0.3"/>
     <use xlink:href="#mdef7a37d3b" x="238.338109" y="155.653697" style="fill-opacity: 0.3"/>
     <use xlink:href="#mdef7a37d3b" x="224.225297" y="166.769139" style="fill-opacity: 0.3"/>
     <use xlink:href="#mdef7a37d3b" x="256.563412" y="144.564941" style="fill-opacity: 0.3"/>
     <use xlink:href="#mdef7a37d3b" x="228.382094" y="138.458359" style="fill-opacity: 0.3"/>
     <use xlink:href="#mdef7a37d3b" x="255.686363" y="139.220778" style="fill-opacity: 0.3"/>
     <use xlink:href="#mdef7a37d3b" x="223.394888" y="148.025209" style="fill-opacity: 0.3"/>
     <use xlink:href="#mdef7a37d3b" x="206.950433" y="130.45052" style="fill-opacity: 0.3"/>
     <use xlink:href="#mdef7a37d3b" x="213.708379" y="85.386223" style="fill-opacity: 0.3"/>
     <use xlink:href="#mdef7a37d3b" x="211.857191" y="112.472352" style="fill-opacity: 0.3"/>
     <use xlink:href="#mdef7a37d3b" x="230.655227" y="123.184634" style="fill-opacity: 0.3"/>
     <use xlink:href="#mdef7a37d3b" x="225.627384" y="251.709985" style="fill-opacity: 0.3"/>
     <use xlink:href="#mdef7a37d3b" x="225.893645" y="127.56594" style="fill-opacity: 0.3"/>
     <use xlink:href="#mdef7a37d3b" x="207.437227" y="129.332799" style="fill-opacity: 0.3"/>
     <use xlink:href="#mdef7a37d3b" x="207.000464" y="137.528739" style="fill-opacity: 0.3"/>
     <use xlink:href="#mdef7a37d3b" x="201.703152" y="136.634302" style="fill-opacity: 0.3"/>
     <use xlink:href="#mdef7a37d3b" x="232.668958" y="170.857502" style="fill-opacity: 0.3"/>
     <use xlink:href="#mdef7a37d3b" x="254.303608" y="159.649221" style="fill-opacity: 0.3"/>
     <use xlink:href="#mdef7a37d3b" x="215.245544" y="124.256019" style="fill-opacity: 0.3"/>
     <use xlink:href="#mdef7a37d3b" x="255.996382" y="150.861495" style="fill-opacity: 0.3"/>
     <use xlink:href="#mdef7a37d3b" x="236.947544" y="145.070788" style="fill-opacity: 0.3"/>
     <use xlink:href="#mdef7a37d3b" x="236.474421" y="139.285454" style="fill-opacity: 0.3"/>
     <use xlink:href="#mdef7a37d3b" x="230.877994" y="130.362756" style="fill-opacity: 0.3"/>
     <use xlink:href="#mdef7a37d3b" x="212.185085" y="166.595197" style="fill-opacity: 0.3"/>
     <use xlink:href="#mdef7a37d3b" x="215.129083" y="140.479657" style="fill-opacity: 0.3"/>
     <use xlink:href="#mdef7a37d3b" x="230.886637" y="164.869622" style="fill-opacity: 0.3"/>
     <use xlink:href="#mdef7a37d3b" x="254.615136" y="128.314491" style="fill-opacity: 0.3"/>
     <use xlink:href="#mdef7a37d3b" x="214.561587" y="123.383162" style="fill-opacity: 0.3"/>
     <use xlink:href="#mdef7a37d3b" x="244.755847" y="129.003368" style="fill-opacity: 0.3"/>
     <use xlink:href="#mdef7a37d3b" x="203.669257" y="171.551726" style="fill-opacity: 0.3"/>
     <use xlink:href="#mdef7a37d3b" x="239.670727" y="169.949322" style="fill-opacity: 0.3"/>
     <use xlink:href="#mdef7a37d3b" x="219.181979" y="168.602116" style="fill-opacity: 0.3"/>
     <use xlink:href="#mdef7a37d3b" x="240.533272" y="171.057428" style="fill-opacity: 0.3"/>
     <use xlink:href="#mdef7a37d3b" x="235.551086" y="146.480819" style="fill-opacity: 0.3"/>
     <use xlink:href="#mdef7a37d3b" x="237.247606" y="164.804576" style="fill-opacity: 0.3"/>
     <use xlink:href="#mdef7a37d3b" x="244.501275" y="163.627844" style="fill-opacity: 0.3"/>
     <use xlink:href="#mdef7a37d3b" x="247.741506" y="97.750981" style="fill-opacity: 0.3"/>
     <use xlink:href="#mdef7a37d3b" x="246.509013" y="177.023813" style="fill-opacity: 0.3"/>
     <use xlink:href="#mdef7a37d3b" x="250.364416" y="180.166274" style="fill-opacity: 0.3"/>
     <use xlink:href="#mdef7a37d3b" x="207.976899" y="182.570966" style="fill-opacity: 0.3"/>
     <use xlink:href="#mdef7a37d3b" x="225.296223" y="203.599497" style="fill-opacity: 0.3"/>
     <use xlink:href="#mdef7a37d3b" x="214.124945" y="191.063441" style="fill-opacity: 0.3"/>
     <use xlink:href="#mdef7a37d3b" x="219.512842" y="147.142915" style="fill-opacity: 0.3"/>
     <use xlink:href="#mdef7a37d3b" x="242.126665" y="149.072389" style="fill-opacity: 0.3"/>
     <use xlink:href="#mdef7a37d3b" x="214.784386" y="124.812606" style="fill-opacity: 0.3"/>
     <use xlink:href="#mdef7a37d3b" x="213.985923" y="135.781903" style="fill-opacity: 0.3"/>
     <use xlink:href="#mdef7a37d3b" x="247.800054" y="193.742212" style="fill-opacity: 0.3"/>
     <use xlink:href="#mdef7a37d3b" x="207.325203" y="182.187743" style="fill-opacity: 0.3"/>
     <use xlink:href="#mdef7a37d3b" x="236.523274" y="182.360493" style="fill-opacity: 0.3"/>
     <use xlink:href="#mdef7a37d3b" x="211.8789" y="147.281147" style="fill-opacity: 0.3"/>
     <use xlink:href="#mdef7a37d3b" x="212.943224" y="161.119101" style="fill-opacity: 0.3"/>
     <use xlink:href="#mdef7a37d3b" x="256.63501" y="181.568033" style="fill-opacity: 0.3"/>
     <use xlink:href="#mdef7a37d3b" x="221.049189" y="199.183323" style="fill-opacity: 0.3"/>
    </g>
   </g>
   <g id="PathCollection_2">
    <g clip-path="url(#p52212501a5)">
     <use xlink:href="#mdef7a37d3b" x="534.307469" y="210.488881" style="fill-opacity: 0.3"/>
     <use xlink:href="#mdef7a37d3b" x="508.972973" y="259.218734" style="fill-opacity: 0.3"/>
     <use xlink:href="#mdef7a37d3b" x="512.976052" y="227.237902" style="fill-opacity: 0.3"/>
     <use xlink:href="#mdef7a37d3b" x="488.968759" y="207.221852" style="fill-opacity: 0.3"/>
     <use xlink:href="#mdef7a37d3b" x="528.441285" y="209.291642" style="fill-opacity: 0.3"/>
     <use xlink:href="#mdef7a37d3b" x="524.694318" y="219.418632" style="fill-opacity: 0.3"/>
     <use xlink:href="#mdef7a37d3b" x="484.097556" y="219.977758" style="fill-opacity: 0.3"/>
     <use xlink:href="#mdef7a37d3b" x="503.832945" y="235.384875" style="fill-opacity: 0.3"/>
     <use xlink:href="#mdef7a37d3b" x="533.682922" y="212.060191" style="fill-opacity: 0.3"/>
     <use xlink:href="#mdef7a37d3b" x="510.391756" y="256.621946" style="fill-opacity: 0.3"/>
     <use xlink:href="#mdef7a37d3b" x="489.753479" y="246.827904" style="fill-opacity: 0.3"/>
     <use xlink:href="#mdef7a37d3b" x="500.966033" y="235.462227" style="fill-opacity: 0.3"/>
     <use xlink:href="#mdef7a37d3b" x="501.898726" y="238.588801" style="fill-opacity: 0.3"/>
     <use xlink:href="#mdef7a37d3b" x="480.657067" y="237.696356" style="fill-opacity: 0.3"/>
     <use xlink:href="#mdef7a37d3b" x="529.945978" y="237.82324" style="fill-opacity: 0.3"/>
     <use xlink:href="#mdef7a37d3b" x="500.833111" y="234.358056" style="fill-opacity: 0.3"/>
     <use xlink:href="#mdef7a37d3b" x="513.190012" y="243.584516" style="fill-opacity: 0.3"/>
     <use xlink:href="#mdef7a37d3b" x="494.961132" y="234.746304" style="fill-opacity: 0.3"/>
     <use xlink:href="#mdef7a37d3b" x="503.207967" y="238.028377" style="fill-opacity: 0.3"/>
     <use xlink:href="#mdef7a37d3b" x="498.733681" y="206.044308" style="fill-opacity: 0.3"/>
     <use xlink:href="#mdef7a37d3b" x="533.059275" y="219.854249" style="fill-opacity: 0.3"/>
     <use xlink:href="#mdef7a37d3b" x="501.325533" y="231.909912" style="fill-opacity: 0.3"/>
     <use xlink:href="#mdef7a37d3b" x="480.707535" y="185.012737" style="fill-opacity: 0.3"/>
     <use xlink:href="#mdef7a37d3b" x="523.547281" y="196.523557" style="fill-opacity: 0.3"/>
     <use xlink:href="#mdef7a37d3b" x="480.967281" y="216.92272" style="fill-opacity: 0.3"/>
     <use xlink:href="#mdef7a37d3b" x="528.551269" y="192.382117" style="fill-opacity: 0.3"/>
     <use xlink:href="#mdef7a37d3b" x="521.884619" y="196.689717" style="fill-opacity: 0.3"/>
     <use xlink:href="#mdef7a37d3b" x="531.440685" y="209.942589" style="fill-opacity: 0.3"/>
     <use xlink:href="#mdef7a37d3b" x="488.307271" y="192.956621" style="fill-opacity: 0.3"/>
     <use xlink:href="#mdef7a37d3b" x="495.788988" y="197.714413" style="fill-opacity: 0.3"/>
     <use xlink:href="#mdef7a37d3b" x="502.699181" y="200.63447" style="fill-opacity: 0.3"/>
     <use xlink:href="#mdef7a37d3b" x="516.348223" y="187.580735" style="fill-opacity: 0.3"/>
     <use xlink:href="#mdef7a37d3b" x="510.876623" y="182.531849" style="fill-opacity: 0.3"/>
     <use xlink:href="#mdef7a37d3b" x="492.290269" y="185.01921" style="fill-opacity: 0.3"/>
     <use xlink:href="#mdef7a37d3b" x="530.463025" y="215.054894" style="fill-opacity: 0.3"/>
     <use xlink:href="#mdef7a37d3b" x="482.664432" y="205.245774" style="fill-opacity: 0.3"/>
     <use xlink:href="#mdef7a37d3b" x="490.959898" y="220.393679" style="fill-opacity: 0.3"/>
     <use xlink:href="#mdef7a37d3b" x="521.457644" y="199.075455" style="fill-opacity: 0.3"/>
     <use xlink:href="#mdef7a37d3b" x="482.506569" y="204.661267" style="fill-opacity: 0.3"/>
     <use xlink:href="#mdef7a37d3b" x="491.063603" y="208.339735" style="fill-opacity: 0.3"/>
     <use xlink:href="#mdef7a37d3b" x="523.849063" y="194.87801" style="fill-opacity: 0.3"/>
     <use xlink:href="#mdef7a37d3b" x="512.636942" y="187.073261" style="fill-opacity: 0.3"/>
    </g>
   </g>
  </g>
 </g>
 <defs>
  <clipPath id="p52212501a5">
   <rect x="90" y="43.2" width="558" height="277.2"/>
  </clipPath>
 </defs>
</svg>
