<?xml version="1.0" encoding="utf-8" standalone="no"?>
<!DOCTYPE svg PUBLIC "-//W3C//DTD SVG 1.1//EN"
  "http://www.w3.org/Graphics/SVG/1.1/DTD/svg11.dtd">
<svg xmlns:xlink="http://www.w3.org/1999/xlink" width="720pt" height="360pt" viewBox="0 0 720 360" xmlns="http://www.w3.org/2000/svg" version="1.1">
 <metadata>
  <rdf:RDF xmlns:dc="http://purl.org/dc/elements/1.1/" xmlns:cc="http://creativecommons.org/ns#" xmlns:rdf="http://www.w3.org/1999/02/22-rdf-syntax-ns#">
   <cc:Work>
    <dc:type rdf:resource="http://purl.org/dc/dcmitype/StillImage"/>
    <dc:date>2025-10-21T16:47:27.945836</dc:date>
    <dc:format>image/svg+xml</dc:format>
    <dc:creator>
     <cc:Agent>
      <dc:title>Matplotlib v3.10.3, https://matplotlib.org/</dc:title>
     </cc:Agent>
    </dc:creator>
   </cc:Work>
  </rdf:RDF>
 </metadata>
 <defs>
  <style type="text/css">*{stroke-linejoin: round; stroke-linecap: butt}</style>
 </defs>
 <g id="figure_1">
  <g id="patch_1">
   <path d="M 0 360 
L 720 360 
L 720 0 
L 0 0 
z
" style="fill: #ffffff"/>
  </g>
  <g id="axes_1">
   <g id="patch_2">
    <path d="M 90 320.4 
L 648 320.4 
L 648 43.2 
L 90 43.2 
z
" style="fill: #ffffff"/>
   </g>
   <g id="FillBetweenPolyCollection_1">
    <defs>
     <path id="m1d1db48e2c" d="M 162.470966 -52.2 
L 157.029034 -52.2 
L 156.145449 -54.484636 
L 155.045175 -56.769271 
L 153.698805 -59.053907 
L 152.080108 -61.338543 
L 150.168422 -63.623178 
L 147.951184 -65.907814 
L 145.426379 -68.192449 
L 142.604675 -70.477085 
L 139.510971 -72.761721 
L 136.185121 -75.046356 
L 132.681642 -77.330992 
L 129.068292 -79.615628 
L 125.423511 -81.900263 
L 121.83286 -84.184899 
L 118.384679 -86.469534 
L 115.165316 -88.75417 
L 112.254324 -91.038806 
L 109.720057 -93.323441 
L 107.61605 -95.608077 
L 105.978503 -97.892713 
L 104.825049 -100.177348 
L 104.154862 -102.461984 
L 103.95 -104.746619 
L 104.17777 -107.031255 
L 104.79379 -109.315891 
L 105.745411 -111.600526 
L 106.975125 -113.885162 
L 108.423709 -116.169798 
L 110.032857 -118.454433 
L 111.747237 -120.739069 
L 113.515945 -123.023704 
L 115.293454 -125.30834 
L 117.040172 -127.592976 
L 118.722755 -129.877611 
L 120.314292 -132.162247 
L 121.794441 -134.446883 
L 123.149527 -136.731518 
L 124.372576 -139.016154 
L 125.46322 -141.30079 
L 126.427372 -143.585425 
L 127.276626 -145.870061 
L 128.027332 -148.154696 
L 128.69936 -150.439332 
L 129.314633 -152.723968 
L 129.895539 -155.008603 
L 130.463363 -157.293239 
L 131.036908 -159.577875 
L 131.631419 -161.86251 
L 132.257923 -164.147146 
L 132.923028 -166.431781 
L 133.629156 -168.716417 
L 134.375139 -171.001053 
L 135.157076 -173.285688 
L 135.969298 -175.570324 
L 136.805315 -177.85496 
L 137.658619 -180.139595 
L 138.523256 -182.424231 
L 139.394145 -184.708866 
L 140.267134 -186.993502 
L 141.138844 -189.278138 
L 142.006385 -191.562773 
L 142.867015 -193.847409 
L 143.717827 -196.132045 
L 144.555534 -198.41668 
L 145.376378 -200.701316 
L 146.176195 -202.985951 
L 146.950593 -205.270587 
L 147.695244 -207.555223 
L 148.40621 -209.839858 
L 149.080293 -212.124494 
L 149.71533 -214.40913 
L 150.310421 -216.693765 
L 150.866053 -218.978401 
L 151.384109 -221.263036 
L 151.867764 -223.547672 
L 152.32127 -225.832308 
L 152.749651 -228.116943 
L 153.158333 -230.401579 
L 153.552734 -232.686215 
L 153.937863 -234.97085 
L 154.317943 -237.255486 
L 154.696107 -239.540122 
L 155.074194 -241.824757 
L 155.452647 -244.109393 
L 155.830547 -246.394028 
L 156.205755 -248.678664 
L 156.575151 -250.9633 
L 156.934954 -253.247935 
L 157.281074 -255.532571 
L 157.609468 -257.817207 
L 157.916466 -260.101842 
L 158.199038 -262.386478 
L 158.454984 -264.671113 
L 158.683032 -266.955749 
L 158.882859 -269.240385 
L 159.055026 -271.52502 
L 159.200863 -273.809656 
L 159.322307 -276.094292 
L 159.421723 -278.378927 
L 160.078277 -278.378927 
L 160.078277 -278.378927 
L 160.177693 -276.094292 
L 160.299137 -273.809656 
L 160.444974 -271.52502 
L 160.617141 -269.240385 
L 160.816968 -266.955749 
L 161.045016 -264.671113 
L 161.300962 -262.386478 
L 161.583534 -260.101842 
L 161.890532 -257.817207 
L 162.218926 -255.532571 
L 162.565046 -253.247935 
L 162.924849 -250.9633 
L 163.294245 -248.678664 
L 163.669453 -246.394028 
L 164.047353 -244.109393 
L 164.425806 -241.824757 
L 164.803893 -239.540122 
L 165.182057 -237.255486 
L 165.562137 -234.97085 
L 165.947266 -232.686215 
L 166.341667 -230.401579 
L 166.750349 -228.116943 
L 167.17873 -225.832308 
L 167.632236 -223.547672 
L 168.115891 -221.263036 
L 168.633947 -218.978401 
L 169.189579 -216.693765 
L 169.78467 -214.40913 
L 170.419707 -212.124494 
L 171.09379 -209.839858 
L 171.804756 -207.555223 
L 172.549407 -205.270587 
L 173.323805 -202.985951 
L 174.123622 -200.701316 
L 174.944466 -198.41668 
L 175.782173 -196.132045 
L 176.632985 -193.847409 
L 177.493615 -191.562773 
L 178.361156 -189.278138 
L 179.232866 -186.993502 
L 180.105855 -184.708866 
L 180.976744 -182.424231 
L 181.841381 -180.139595 
L 182.694685 -177.85496 
L 183.530702 -175.570324 
L 184.342924 -173.285688 
L 185.124861 -171.001053 
L 185.870844 -168.716417 
L 186.576972 -166.431781 
L 187.242077 -164.147146 
L 187.868581 -161.86251 
L 188.463092 -159.577875 
L 189.036637 -157.293239 
L 189.604461 -155.008603 
L 190.185367 -152.723968 
L 190.80064 -150.439332 
L 191.472668 -148.154696 
L 192.223374 -145.870061 
L 193.072628 -143.585425 
L 194.03678 -141.30079 
L 195.127424 -139.016154 
L 196.350473 -136.731518 
L 197.705559 -134.446883 
L 199.185708 -132.162247 
L 200.777245 -129.877611 
L 202.459828 -127.592976 
L 204.206546 -125.30834 
L 205.984055 -123.023704 
L 207.752763 -120.739069 
L 209.467143 -118.454433 
L 211.076291 -116.169798 
L 212.524875 -113.885162 
L 213.754589 -111.600526 
L 214.70621 -109.315891 
L 215.32223 -107.031255 
L 215.55 -104.746619 
L 215.345138 -102.461984 
L 214.674951 -100.177348 
L 213.521497 -97.892713 
L 211.88395 -95.608077 
L 209.779943 -93.323441 
L 207.245676 -91.038806 
L 204.334684 -88.75417 
L 201.115321 -86.469534 
L 197.66714 -84.184899 
L 194.076489 -81.900263 
L 190.431708 -79.615628 
L 186.818358 -77.330992 
L 183.314879 -75.046356 
L 179.989029 -72.761721 
L 176.895325 -70.477085 
L 174.073621 -68.192449 
L 171.548816 -65.907814 
L 169.331578 -63.623178 
L 167.419892 -61.338543 
L 165.801195 -59.053907 
L 164.454825 -56.769271 
L 163.354551 -54.484636 
L 162.470966 -52.2 
z
" style="stroke: #3d3d3d; stroke-width: 1.25"/>
    </defs>
    <g clip-path="url(#p73b414f534)">
     <use xlink:href="#m1d1db48e2c" x="0" y="360" style="fill: #3274a1; stroke: #3d3d3d; stroke-width: 1.25"/>
    </g>
   </g>
   <g id="FillBetweenPolyCollection_2">
    <defs>
     <path id="meedb6f5ebe" d="M 300.74921 -64.50741 
L 297.75079 -64.50741 
L 296.814638 -66.928547 
L 295.433616 -69.349685 
L 293.47991 -71.770822 
L 290.831827 -74.191959 
L 287.396921 -76.613096 
L 283.139455 -79.034234 
L 278.107269 -81.455371 
L 272.451292 -83.876508 
L 266.430651 -86.297646 
L 260.398165 -88.718783 
L 254.764969 -91.13992 
L 249.94833 -93.561057 
L 246.311781 -95.982195 
L 244.109898 -98.403332 
L 243.45 -100.824469 
L 244.279517 -103.245606 
L 246.401672 -105.666744 
L 249.515239 -108.087881 
L 253.268587 -110.509018 
L 257.315619 -112.930156 
L 261.362038 -115.351293 
L 265.194092 -117.77243 
L 268.687189 -120.193567 
L 271.796778 -122.614705 
L 274.537444 -125.035842 
L 276.957498 -127.456979 
L 279.115597 -129.878116 
L 281.063741 -132.299254 
L 282.838309 -134.720391 
L 284.458376 -137.141528 
L 285.929107 -139.562665 
L 287.24752 -141.983803 
L 288.40834 -144.40494 
L 289.408505 -146.826077 
L 290.249812 -149.247215 
L 290.939875 -151.668352 
L 291.491889 -154.089489 
L 291.923732 -156.510626 
L 292.256808 -158.931764 
L 292.514829 -161.352901 
L 292.722618 -163.774038 
L 292.904945 -166.195175 
L 293.085353 -168.616313 
L 293.284962 -171.03745 
L 293.521253 -173.458587 
L 293.806871 -175.879725 
L 294.148584 -178.300862 
L 294.54657 -180.721999 
L 294.994256 -183.143136 
L 295.478882 -185.564274 
L 295.982826 -187.985411 
L 296.485561 -190.406548 
L 296.96597 -192.827685 
L 297.404622 -195.248823 
L 297.785669 -197.66996 
L 298.098121 -200.091097 
L 298.33642 -202.512235 
L 298.500417 -204.933372 
L 298.594916 -207.354509 
L 298.62896 -209.775646 
L 298.614974 -212.196784 
L 298.56777 -214.617921 
L 298.503369 -217.039058 
L 298.437634 -219.460195 
L 298.38476 -221.881333 
L 298.355812 -224.30247 
L 298.35757 -226.723607 
L 298.391958 -229.144745 
L 298.456202 -231.565882 
L 298.543723 -233.987019 
L 298.64555 -236.408156 
L 298.751935 -238.829294 
L 298.853801 -241.250431 
L 298.943741 -243.671568 
L 299.016448 -246.092705 
L 299.068614 -248.513843 
L 299.098482 -250.93498 
L 299.105302 -253.356117 
L 299.088932 -255.777255 
L 299.049735 -258.198392 
L 298.988816 -260.619529 
L 298.90851 -263.040666 
L 298.812924 -265.461804 
L 298.708275 -267.882941 
L 298.602802 -270.304078 
L 298.506131 -272.725215 
L 298.42811 -275.146353 
L 298.377331 -277.56749 
L 298.35968 -279.988627 
L 298.377269 -282.409765 
L 298.428056 -284.830902 
L 298.506248 -287.252039 
L 298.603399 -289.673176 
L 298.70991 -292.094314 
L 298.816571 -294.515451 
L 298.915812 -296.936588 
L 299.002437 -299.357725 
L 299.073802 -301.778863 
L 299.129513 -304.2 
L 299.370487 -304.2 
L 299.370487 -304.2 
L 299.426198 -301.778863 
L 299.497563 -299.357725 
L 299.584188 -296.936588 
L 299.683429 -294.515451 
L 299.79009 -292.094314 
L 299.896601 -289.673176 
L 299.993752 -287.252039 
L 300.071944 -284.830902 
L 300.122731 -282.409765 
L 300.14032 -279.988627 
L 300.122669 -277.56749 
L 300.07189 -275.146353 
L 299.993869 -272.725215 
L 299.897198 -270.304078 
L 299.791725 -267.882941 
L 299.687076 -265.461804 
L 299.59149 -263.040666 
L 299.511184 -260.619529 
L 299.450265 -258.198392 
L 299.411068 -255.777255 
L 299.394698 -253.356117 
L 299.401518 -250.93498 
L 299.431386 -248.513843 
L 299.483552 -246.092705 
L 299.556259 -243.671568 
L 299.646199 -241.250431 
L 299.748065 -238.829294 
L 299.85445 -236.408156 
L 299.956277 -233.987019 
L 300.043798 -231.565882 
L 300.108042 -229.144745 
L 300.14243 -226.723607 
L 300.144188 -224.30247 
L 300.11524 -221.881333 
L 300.062366 -219.460195 
L 299.996631 -217.039058 
L 299.93223 -214.617921 
L 299.885026 -212.196784 
L 299.87104 -209.775646 
L 299.905084 -207.354509 
L 299.999583 -204.933372 
L 300.16358 -202.512235 
L 300.401879 -200.091097 
L 300.714331 -197.66996 
L 301.095378 -195.248823 
L 301.53403 -192.827685 
L 302.014439 -190.406548 
L 302.517174 -187.985411 
L 303.021118 -185.564274 
L 303.505744 -183.143136 
L 303.95343 -180.721999 
L 304.351416 -178.300862 
L 304.693129 -175.879725 
L 304.978747 -173.458587 
L 305.215038 -171.03745 
L 305.414647 -168.616313 
L 305.595055 -166.195175 
L 305.777382 -163.774038 
L 305.985171 -161.352901 
L 306.243192 -158.931764 
L 306.576268 -156.510626 
L 307.008111 -154.089489 
L 307.560125 -151.668352 
L 308.250188 -149.247215 
L 309.091495 -146.826077 
L 310.09166 -144.40494 
L 311.25248 -141.983803 
L 312.570893 -139.562665 
L 314.041624 -137.141528 
L 315.661691 -134.720391 
L 317.436259 -132.299254 
L 319.384403 -129.878116 
L 321.542502 -127.456979 
L 323.962556 -125.035842 
L 326.703222 -122.614705 
L 329.812811 -120.193567 
L 333.305908 -117.77243 
L 337.137962 -115.351293 
L 341.184381 -112.930156 
L 345.231413 -110.509018 
L 348.984761 -108.087881 
L 352.098328 -105.666744 
L 354.220483 -103.245606 
L 355.05 -100.824469 
L 354.390102 -98.403332 
L 352.188219 -95.982195 
L 348.55167 -93.561057 
L 343.735031 -91.13992 
L 338.101835 -88.718783 
L 332.069349 -86.297646 
L 326.048708 -83.876508 
L 320.392731 -81.455371 
L 315.360545 -79.034234 
L 311.103079 -76.613096 
L 307.668173 -74.191959 
L 305.02009 -71.770822 
L 303.066384 -69.349685 
L 301.685362 -66.928547 
L 300.74921 -64.50741 
z
" style="stroke: #3d3d3d; stroke-width: 1.25"/>
    </defs>
    <g clip-path="url(#p73b414f534)">
     <use xlink:href="#meedb6f5ebe" x="0" y="360" style="fill: #e1812c; stroke: #3d3d3d; stroke-width: 1.25"/>
    </g>
   </g>
   <g id="FillBetweenPolyCollection_3">
    <defs>
     <path id="m9dcd1f8288" d="M 440.11149 -57.626585 
L 437.38851 -57.626585 
L 436.85863 -59.64818 
L 436.162689 -61.669774 
L 435.264763 -63.691369 
L 434.126936 -65.712964 
L 432.711276 -67.734558 
L 430.982465 -69.756153 
L 428.911004 -71.777748 
L 426.476831 -73.799343 
L 423.673102 -75.820937 
L 420.509775 -77.842532 
L 417.016598 -79.864127 
L 413.245063 -81.885722 
L 409.268922 -83.907316 
L 405.182973 -85.928911 
L 401.099925 -87.950506 
L 397.145413 -89.972101 
L 393.451374 -91.993695 
L 390.14827 -94.01529 
L 387.356783 -96.036885 
L 385.179732 -98.05848 
L 383.694974 -100.080074 
L 382.95 -102.101669 
L 382.958755 -104.123264 
L 383.700995 -106.144858 
L 385.124221 -108.166453 
L 387.14796 -110.188048 
L 389.669911 -112.209643 
L 392.573326 -114.231237 
L 395.734897 -116.252832 
L 399.032414 -118.274427 
L 402.351575 -120.296022 
L 405.59147 -122.317616 
L 408.668442 -124.339211 
L 411.518254 -126.360806 
L 414.09665 -128.382401 
L 416.378537 -130.403995 
L 418.356124 -132.42559 
L 420.036351 -134.447185 
L 421.437968 -136.468779 
L 422.588524 -138.490374 
L 423.521517 -140.511969 
L 424.273818 -142.533564 
L 424.883456 -144.555158 
L 425.387784 -146.576753 
L 425.821993 -148.598348 
L 426.217959 -150.619943 
L 426.603367 -152.641537 
L 427.001081 -154.663132 
L 427.428747 -156.684727 
L 427.898602 -158.706322 
L 428.417494 -160.727916 
L 428.987106 -162.749511 
L 429.604366 -164.771106 
L 430.262046 -166.7927 
L 430.949504 -168.814295 
L 431.65353 -170.83589 
L 432.35926 -172.857485 
L 433.051094 -174.879079 
L 433.713563 -176.900674 
L 434.332104 -178.922269 
L 434.893703 -180.943864 
L 435.38739 -182.965458 
L 435.804571 -184.987053 
L 436.13922 -187.008648 
L 436.387942 -189.030243 
L 436.549946 -191.051837 
L 436.626951 -193.073432 
L 436.623049 -195.095027 
L 436.544548 -197.116622 
L 436.399801 -199.138216 
L 436.199013 -201.159811 
L 435.954003 -203.181406 
L 435.677932 -205.203 
L 435.384945 -207.224595 
L 435.08974 -209.24619 
L 434.807051 -211.267785 
L 434.551073 -213.289379 
L 434.334828 -215.310974 
L 434.169556 -217.332569 
L 434.06413 -219.354164 
L 434.024595 -221.375758 
L 434.053849 -223.397353 
L 434.15151 -225.418948 
L 434.314002 -227.440543 
L 434.534849 -229.462137 
L 434.805157 -231.483732 
L 435.114252 -233.505327 
L 435.450405 -235.526921 
L 435.801596 -237.548516 
L 436.156232 -239.570111 
L 436.503779 -241.591706 
L 436.83525 -243.6133 
L 437.143532 -245.634895 
L 437.423535 -247.65649 
L 437.672174 -249.678085 
L 437.888218 -251.699679 
L 438.072029 -253.721274 
L 438.225242 -255.742869 
L 438.350411 -257.764464 
L 439.149589 -257.764464 
L 439.149589 -257.764464 
L 439.274758 -255.742869 
L 439.427971 -253.721274 
L 439.611782 -251.699679 
L 439.827826 -249.678085 
L 440.076465 -247.65649 
L 440.356468 -245.634895 
L 440.66475 -243.6133 
L 440.996221 -241.591706 
L 441.343768 -239.570111 
L 441.698404 -237.548516 
L 442.049595 -235.526921 
L 442.385748 -233.505327 
L 442.694843 -231.483732 
L 442.965151 -229.462137 
L 443.185998 -227.440543 
L 443.34849 -225.418948 
L 443.446151 -223.397353 
L 443.475405 -221.375758 
L 443.43587 -219.354164 
L 443.330444 -217.332569 
L 443.165172 -215.310974 
L 442.948927 -213.289379 
L 442.692949 -211.267785 
L 442.41026 -209.24619 
L 442.115055 -207.224595 
L 441.822068 -205.203 
L 441.545997 -203.181406 
L 441.300987 -201.159811 
L 441.100199 -199.138216 
L 440.955452 -197.116622 
L 440.876951 -195.095027 
L 440.873049 -193.073432 
L 440.950054 -191.051837 
L 441.112058 -189.030243 
L 441.36078 -187.008648 
L 441.695429 -184.987053 
L 442.11261 -182.965458 
L 442.606297 -180.943864 
L 443.167896 -178.922269 
L 443.786437 -176.900674 
L 444.448906 -174.879079 
L 445.14074 -172.857485 
L 445.84647 -170.83589 
L 446.550496 -168.814295 
L 447.237954 -166.7927 
L 447.895634 -164.771106 
L 448.512894 -162.749511 
L 449.082506 -160.727916 
L 449.601398 -158.706322 
L 450.071253 -156.684727 
L 450.498919 -154.663132 
L 450.896633 -152.641537 
L 451.282041 -150.619943 
L 451.678007 -148.598348 
L 452.112216 -146.576753 
L 452.616544 -144.555158 
L 453.226182 -142.533564 
L 453.978483 -140.511969 
L 454.911476 -138.490374 
L 456.062032 -136.468779 
L 457.463649 -134.447185 
L 459.143876 -132.42559 
L 461.121463 -130.403995 
L 463.40335 -128.382401 
L 465.981746 -126.360806 
L 468.831558 -124.339211 
L 471.90853 -122.317616 
L 475.148425 -120.296022 
L 478.467586 -118.274427 
L 481.765103 -116.252832 
L 484.926674 -114.231237 
L 487.830089 -112.209643 
L 490.35204 -110.188048 
L 492.375779 -108.166453 
L 493.799005 -106.144858 
L 494.541245 -104.123264 
L 494.55 -102.101669 
L 493.805026 -100.080074 
L 492.320268 -98.05848 
L 490.143217 -96.036885 
L 487.35173 -94.01529 
L 484.048626 -91.993695 
L 480.354587 -89.972101 
L 476.400075 -87.950506 
L 472.317027 -85.928911 
L 468.231078 -83.907316 
L 464.254937 -81.885722 
L 460.483402 -79.864127 
L 456.990225 -77.842532 
L 453.826898 -75.820937 
L 451.023169 -73.799343 
L 448.588996 -71.777748 
L 446.517535 -69.756153 
L 444.788724 -67.734558 
L 443.373064 -65.712964 
L 442.235237 -63.691369 
L 441.337311 -61.669774 
L 440.64137 -59.64818 
L 440.11149 -57.626585 
z
" style="stroke: #3d3d3d; stroke-width: 1.25"/>
    </defs>
    <g clip-path="url(#p73b414f534)">
     <use xlink:href="#m9dcd1f8288" x="0" y="360" style="fill: #3a923a; stroke: #3d3d3d; stroke-width: 1.25"/>
    </g>
   </g>
   <g id="FillBetweenPolyCollection_4">
    <defs>
     <path id="mdcbb1f910d" d="M 581.280439 -53.461223 
L 575.219561 -53.461223 
L 574.307689 -55.58145 
L 573.188558 -57.701677 
L 571.83631 -59.821904 
L 570.227921 -61.942131 
L 568.345132 -64.062358 
L 566.176481 -66.182585 
L 563.719315 -68.302811 
L 560.981594 -70.423038 
L 557.983319 -72.543265 
L 554.757409 -74.663492 
L 551.349867 -76.783719 
L 547.819148 -78.903946 
L 544.234672 -81.024173 
L 540.674511 -83.144399 
L 537.22236 -85.264626 
L 533.963944 -87.384853 
L 530.983106 -89.50508 
L 528.357815 -91.625307 
L 526.156374 -93.745534 
L 524.434083 -95.865761 
L 523.230573 -97.985988 
L 522.567971 -100.106214 
L 522.45 -102.226441 
L 522.862043 -104.346668 
L 523.772124 -106.466895 
L 525.132722 -108.587122 
L 526.883269 -110.707349 
L 528.953184 -112.827576 
L 531.265225 -114.947803 
L 533.739013 -117.068029 
L 536.294523 -119.188256 
L 538.855375 -121.308483 
L 541.351807 -123.42871 
L 543.723172 -125.548937 
L 545.919891 -127.669164 
L 547.904777 -129.789391 
L 549.653706 -131.909617 
L 551.155617 -134.029844 
L 552.41188 -136.150071 
L 553.435094 -138.270298 
L 554.247395 -140.390525 
L 554.878413 -142.510752 
L 555.362987 -144.630979 
L 555.738814 -146.751206 
L 556.044146 -148.871432 
L 556.315686 -150.991659 
L 556.586795 -153.111886 
L 556.886078 -155.232113 
L 557.236413 -157.35234 
L 557.654428 -159.472567 
L 558.150417 -161.592794 
L 558.728628 -163.713021 
L 559.387877 -165.833247 
L 560.12238 -167.953474 
L 560.92273 -170.073701 
L 561.776922 -172.193928 
L 562.671346 -174.314155 
L 563.591694 -176.434382 
L 564.523722 -178.554609 
L 565.453854 -180.674836 
L 566.369606 -182.795062 
L 567.25985 -184.915289 
L 568.114943 -187.035516 
L 568.926741 -189.155743 
L 569.688555 -191.27597 
L 570.39507 -193.396197 
L 571.042268 -195.516424 
L 571.627381 -197.63665 
L 572.148881 -199.756877 
L 572.606511 -201.877104 
L 573.001336 -203.997331 
L 573.335814 -206.117558 
L 573.613825 -208.237785 
L 573.84066 -210.358012 
L 574.022926 -212.478239 
L 574.168361 -214.598465 
L 574.285549 -216.718692 
L 574.383541 -218.838919 
L 574.471418 -220.959146 
L 574.557819 -223.079373 
L 574.650472 -225.1996 
L 574.755786 -227.319827 
L 574.878527 -229.440054 
L 575.021616 -231.56028 
L 575.186064 -233.680507 
L 575.37105 -235.800734 
L 575.574124 -237.920961 
L 575.791522 -240.041188 
L 576.018547 -242.161415 
L 576.249982 -244.281642 
L 576.480506 -246.401868 
L 576.705064 -248.522095 
L 576.919175 -250.642322 
L 577.11915 -252.762549 
L 577.302232 -254.882776 
L 577.466632 -257.003003 
L 577.611502 -259.12323 
L 577.736839 -261.243457 
L 577.843345 -263.363683 
L 578.656655 -263.363683 
L 578.656655 -263.363683 
L 578.763161 -261.243457 
L 578.888498 -259.12323 
L 579.033368 -257.003003 
L 579.197768 -254.882776 
L 579.38085 -252.762549 
L 579.580825 -250.642322 
L 579.794936 -248.522095 
L 580.019494 -246.401868 
L 580.250018 -244.281642 
L 580.481453 -242.161415 
L 580.708478 -240.041188 
L 580.925876 -237.920961 
L 581.12895 -235.800734 
L 581.313936 -233.680507 
L 581.478384 -231.56028 
L 581.621473 -229.440054 
L 581.744214 -227.319827 
L 581.849528 -225.1996 
L 581.942181 -223.079373 
L 582.028582 -220.959146 
L 582.116459 -218.838919 
L 582.214451 -216.718692 
L 582.331639 -214.598465 
L 582.477074 -212.478239 
L 582.65934 -210.358012 
L 582.886175 -208.237785 
L 583.164186 -206.117558 
L 583.498664 -203.997331 
L 583.893489 -201.877104 
L 584.351119 -199.756877 
L 584.872619 -197.63665 
L 585.457732 -195.516424 
L 586.10493 -193.396197 
L 586.811445 -191.27597 
L 587.573259 -189.155743 
L 588.385057 -187.035516 
L 589.24015 -184.915289 
L 590.130394 -182.795062 
L 591.046146 -180.674836 
L 591.976278 -178.554609 
L 592.908306 -176.434382 
L 593.828654 -174.314155 
L 594.723078 -172.193928 
L 595.57727 -170.073701 
L 596.37762 -167.953474 
L 597.112123 -165.833247 
L 597.771372 -163.713021 
L 598.349583 -161.592794 
L 598.845572 -159.472567 
L 599.263587 -157.35234 
L 599.613922 -155.232113 
L 599.913205 -153.111886 
L 600.184314 -150.991659 
L 600.455854 -148.871432 
L 600.761186 -146.751206 
L 601.137013 -144.630979 
L 601.621587 -142.510752 
L 602.252605 -140.390525 
L 603.064906 -138.270298 
L 604.08812 -136.150071 
L 605.344383 -134.029844 
L 606.846294 -131.909617 
L 608.595223 -129.789391 
L 610.580109 -127.669164 
L 612.776828 -125.548937 
L 615.148193 -123.42871 
L 617.644625 -121.308483 
L 620.205477 -119.188256 
L 622.760987 -117.068029 
L 625.234775 -114.947803 
L 627.546816 -112.827576 
L 629.616731 -110.707349 
L 631.367278 -108.587122 
L 632.727876 -106.466895 
L 633.637957 -104.346668 
L 634.05 -102.226441 
L 633.932029 -100.106214 
L 633.269427 -97.985988 
L 632.065917 -95.865761 
L 630.343626 -93.745534 
L 628.142185 -91.625307 
L 625.516894 -89.50508 
L 622.536056 -87.384853 
L 619.27764 -85.264626 
L 615.825489 -83.144399 
L 612.265328 -81.024173 
L 608.680852 -78.903946 
L 605.150133 -76.783719 
L 601.742591 -74.663492 
L 598.516681 -72.543265 
L 595.518406 -70.423038 
L 592.780685 -68.302811 
L 590.323519 -66.182585 
L 588.154868 -64.062358 
L 586.272079 -61.942131 
L 584.66369 -59.821904 
L 583.311442 -57.701677 
L 582.192311 -55.58145 
L 581.280439 -53.461223 
z
" style="stroke: #3d3d3d; stroke-width: 1.25"/>
    </defs>
    <g clip-path="url(#p73b414f534)">
     <use xlink:href="#mdcbb1f910d" x="0" y="360" style="fill: #c03d3e; stroke: #3d3d3d; stroke-width: 1.25"/>
    </g>
   </g>
   <g id="matplotlib.axis_1">
    <g id="xtick_1">
     <g id="line2d_1">
      <defs>
       <path id="mb72345c806" d="M 0 0 
L 0 3.5 
" style="stroke: #000000; stroke-width: 0.8"/>
      </defs>
      <g>
       <use xlink:href="#mb72345c806" x="159.75" y="320.4" style="stroke: #000000; stroke-width: 0.8"/>
      </g>
     </g>
     <g id="text_1">
      <!-- Spurious -->
      <g transform="translate(137.955469 334.998438) scale(0.1 -0.1)">
       <defs>
        <path id="DejaVuSans-53" d="M 3425 4513 
L 3425 3897 
Q 3066 4069 2747 4153 
Q 2428 4238 2131 4238 
Q 1616 4238 1336 4038 
Q 1056 3838 1056 3469 
Q 1056 3159 1242 3001 
Q 1428 2844 1947 2747 
L 2328 2669 
Q 3034 2534 3370 2195 
Q 3706 1856 3706 1288 
Q 3706 609 3251 259 
Q 2797 -91 1919 -91 
Q 1588 -91 1214 -16 
Q 841 59 441 206 
L 441 856 
Q 825 641 1194 531 
Q 1563 422 1919 422 
Q 2459 422 2753 634 
Q 3047 847 3047 1241 
Q 3047 1584 2836 1778 
Q 2625 1972 2144 2069 
L 1759 2144 
Q 1053 2284 737 2584 
Q 422 2884 422 3419 
Q 422 4038 858 4394 
Q 1294 4750 2059 4750 
Q 2388 4750 2728 4690 
Q 3069 4631 3425 4513 
z
" transform="scale(0.015625)"/>
        <path id="DejaVuSans-70" d="M 1159 525 
L 1159 -1331 
L 581 -1331 
L 581 3500 
L 1159 3500 
L 1159 2969 
Q 1341 3281 1617 3432 
Q 1894 3584 2278 3584 
Q 2916 3584 3314 3078 
Q 3713 2572 3713 1747 
Q 3713 922 3314 415 
Q 2916 -91 2278 -91 
Q 1894 -91 1617 61 
Q 1341 213 1159 525 
z
M 3116 1747 
Q 3116 2381 2855 2742 
Q 2594 3103 2138 3103 
Q 1681 3103 1420 2742 
Q 1159 2381 1159 1747 
Q 1159 1113 1420 752 
Q 1681 391 2138 391 
Q 2594 391 2855 752 
Q 3116 1113 3116 1747 
z
" transform="scale(0.015625)"/>
        <path id="DejaVuSans-75" d="M 544 1381 
L 544 3500 
L 1119 3500 
L 1119 1403 
Q 1119 906 1312 657 
Q 1506 409 1894 409 
Q 2359 409 2629 706 
Q 2900 1003 2900 1516 
L 2900 3500 
L 3475 3500 
L 3475 0 
L 2900 0 
L 2900 538 
Q 2691 219 2414 64 
Q 2138 -91 1772 -91 
Q 1169 -91 856 284 
Q 544 659 544 1381 
z
M 1991 3584 
L 1991 3584 
z
" transform="scale(0.015625)"/>
        <path id="DejaVuSans-72" d="M 2631 2963 
Q 2534 3019 2420 3045 
Q 2306 3072 2169 3072 
Q 1681 3072 1420 2755 
Q 1159 2438 1159 1844 
L 1159 0 
L 581 0 
L 581 3500 
L 1159 3500 
L 1159 2956 
Q 1341 3275 1631 3429 
Q 1922 3584 2338 3584 
Q 2397 3584 2469 3576 
Q 2541 3569 2628 3553 
L 2631 2963 
z
" transform="scale(0.015625)"/>
        <path id="DejaVuSans-69" d="M 603 3500 
L 1178 3500 
L 1178 0 
L 603 0 
L 603 3500 
z
M 603 4863 
L 1178 4863 
L 1178 4134 
L 603 4134 
L 603 4863 
z
" transform="scale(0.015625)"/>
        <path id="DejaVuSans-6f" d="M 1959 3097 
Q 1497 3097 1228 2736 
Q 959 2375 959 1747 
Q 959 1119 1226 758 
Q 1494 397 1959 397 
Q 2419 397 2687 759 
Q 2956 1122 2956 1747 
Q 2956 2369 2687 2733 
Q 2419 3097 1959 3097 
z
M 1959 3584 
Q 2709 3584 3137 3096 
Q 3566 2609 3566 1747 
Q 3566 888 3137 398 
Q 2709 -91 1959 -91 
Q 1206 -91 779 398 
Q 353 888 353 1747 
Q 353 2609 779 3096 
Q 1206 3584 1959 3584 
z
" transform="scale(0.015625)"/>
        <path id="DejaVuSans-73" d="M 2834 3397 
L 2834 2853 
Q 2591 2978 2328 3040 
Q 2066 3103 1784 3103 
Q 1356 3103 1142 2972 
Q 928 2841 928 2578 
Q 928 2378 1081 2264 
Q 1234 2150 1697 2047 
L 1894 2003 
Q 2506 1872 2764 1633 
Q 3022 1394 3022 966 
Q 3022 478 2636 193 
Q 2250 -91 1575 -91 
Q 1294 -91 989 -36 
Q 684 19 347 128 
L 347 722 
Q 666 556 975 473 
Q 1284 391 1588 391 
Q 1994 391 2212 530 
Q 2431 669 2431 922 
Q 2431 1156 2273 1281 
Q 2116 1406 1581 1522 
L 1381 1569 
Q 847 1681 609 1914 
Q 372 2147 372 2553 
Q 372 3047 722 3315 
Q 1072 3584 1716 3584 
Q 2034 3584 2315 3537 
Q 2597 3491 2834 3397 
z
" transform="scale(0.015625)"/>
       </defs>
       <use xlink:href="#DejaVuSans-53"/>
       <use xlink:href="#DejaVuSans-70" transform="translate(63.476562 0)"/>
       <use xlink:href="#DejaVuSans-75" transform="translate(126.953125 0)"/>
       <use xlink:href="#DejaVuSans-72" transform="translate(190.332031 0)"/>
       <use xlink:href="#DejaVuSans-69" transform="translate(231.445312 0)"/>
       <use xlink:href="#DejaVuSans-6f" transform="translate(259.228516 0)"/>
       <use xlink:href="#DejaVuSans-75" transform="translate(320.410156 0)"/>
       <use xlink:href="#DejaVuSans-73" transform="translate(383.789062 0)"/>
      </g>
     </g>
    </g>
    <g id="xtick_2">
     <g id="line2d_2">
      <g>
       <use xlink:href="#mb72345c806" x="299.25" y="320.4" style="stroke: #000000; stroke-width: 0.8"/>
      </g>
     </g>
     <g id="text_2">
      <!-- Specific -->
      <g transform="translate(279.788281 334.998438) scale(0.1 -0.1)">
       <defs>
        <path id="DejaVuSans-65" d="M 3597 1894 
L 3597 1613 
L 953 1613 
Q 991 1019 1311 708 
Q 1631 397 2203 397 
Q 2534 397 2845 478 
Q 3156 559 3463 722 
L 3463 178 
Q 3153 47 2828 -22 
Q 2503 -91 2169 -91 
Q 1331 -91 842 396 
Q 353 884 353 1716 
Q 353 2575 817 3079 
Q 1281 3584 2069 3584 
Q 2775 3584 3186 3129 
Q 3597 2675 3597 1894 
z
M 3022 2063 
Q 3016 2534 2758 2815 
Q 2500 3097 2075 3097 
Q 1594 3097 1305 2825 
Q 1016 2553 972 2059 
L 3022 2063 
z
" transform="scale(0.015625)"/>
        <path id="DejaVuSans-63" d="M 3122 3366 
L 3122 2828 
Q 2878 2963 2633 3030 
Q 2388 3097 2138 3097 
Q 1578 3097 1268 2742 
Q 959 2388 959 1747 
Q 959 1106 1268 751 
Q 1578 397 2138 397 
Q 2388 397 2633 464 
Q 2878 531 3122 666 
L 3122 134 
Q 2881 22 2623 -34 
Q 2366 -91 2075 -91 
Q 1284 -91 818 406 
Q 353 903 353 1747 
Q 353 2603 823 3093 
Q 1294 3584 2113 3584 
Q 2378 3584 2631 3529 
Q 2884 3475 3122 3366 
z
" transform="scale(0.015625)"/>
        <path id="DejaVuSans-66" d="M 2375 4863 
L 2375 4384 
L 1825 4384 
Q 1516 4384 1395 4259 
Q 1275 4134 1275 3809 
L 1275 3500 
L 2222 3500 
L 2222 3053 
L 1275 3053 
L 1275 0 
L 697 0 
L 697 3053 
L 147 3053 
L 147 3500 
L 697 3500 
L 697 3744 
Q 697 4328 969 4595 
Q 1241 4863 1831 4863 
L 2375 4863 
z
" transform="scale(0.015625)"/>
       </defs>
       <use xlink:href="#DejaVuSans-53"/>
       <use xlink:href="#DejaVuSans-70" transform="translate(63.476562 0)"/>
       <use xlink:href="#DejaVuSans-65" transform="translate(126.953125 0)"/>
       <use xlink:href="#DejaVuSans-63" transform="translate(188.476562 0)"/>
       <use xlink:href="#DejaVuSans-69" transform="translate(243.457031 0)"/>
       <use xlink:href="#DejaVuSans-66" transform="translate(271.240234 0)"/>
       <use xlink:href="#DejaVuSans-69" transform="translate(306.445312 0)"/>
       <use xlink:href="#DejaVuSans-63" transform="translate(334.228516 0)"/>
      </g>
     </g>
    </g>
    <g id="xtick_3">
     <g id="line2d_3">
      <g>
       <use xlink:href="#mb72345c806" x="438.75" y="320.4" style="stroke: #000000; stroke-width: 0.8"/>
      </g>
     </g>
     <g id="text_3">
      <!-- Non-specific -->
      <g transform="translate(408.085156 334.998438) scale(0.1 -0.1)">
       <defs>
        <path id="DejaVuSans-4e" d="M 628 4666 
L 1478 4666 
L 3547 763 
L 3547 4666 
L 4159 4666 
L 4159 0 
L 3309 0 
L 1241 3903 
L 1241 0 
L 628 0 
L 628 4666 
z
" transform="scale(0.015625)"/>
        <path id="DejaVuSans-6e" d="M 3513 2113 
L 3513 0 
L 2938 0 
L 2938 2094 
Q 2938 2591 2744 2837 
Q 2550 3084 2163 3084 
Q 1697 3084 1428 2787 
Q 1159 2491 1159 1978 
L 1159 0 
L 581 0 
L 581 3500 
L 1159 3500 
L 1159 2956 
Q 1366 3272 1645 3428 
Q 1925 3584 2291 3584 
Q 2894 3584 3203 3211 
Q 3513 2838 3513 2113 
z
" transform="scale(0.015625)"/>
        <path id="DejaVuSans-2d" d="M 313 2009 
L 1997 2009 
L 1997 1497 
L 313 1497 
L 313 2009 
z
" transform="scale(0.015625)"/>
       </defs>
       <use xlink:href="#DejaVuSans-4e"/>
       <use xlink:href="#DejaVuSans-6f" transform="translate(74.804688 0)"/>
       <use xlink:href="#DejaVuSans-6e" transform="translate(135.986328 0)"/>
       <use xlink:href="#DejaVuSans-2d" transform="translate(199.365234 0)"/>
       <use xlink:href="#DejaVuSans-73" transform="translate(235.449219 0)"/>
       <use xlink:href="#DejaVuSans-70" transform="translate(287.548828 0)"/>
       <use xlink:href="#DejaVuSans-65" transform="translate(351.025391 0)"/>
       <use xlink:href="#DejaVuSans-63" transform="translate(412.548828 0)"/>
       <use xlink:href="#DejaVuSans-69" transform="translate(467.529297 0)"/>
       <use xlink:href="#DejaVuSans-66" transform="translate(495.3125 0)"/>
       <use xlink:href="#DejaVuSans-69" transform="translate(530.517578 0)"/>
       <use xlink:href="#DejaVuSans-63" transform="translate(558.300781 0)"/>
      </g>
     </g>
    </g>
    <g id="xtick_4">
     <g id="line2d_4">
      <g>
       <use xlink:href="#mb72345c806" x="578.25" y="320.4" style="stroke: #000000; stroke-width: 0.8"/>
      </g>
     </g>
     <g id="text_4">
      <!-- No -->
      <g transform="translate(571.45 334.998438) scale(0.1 -0.1)">
       <use xlink:href="#DejaVuSans-4e"/>
       <use xlink:href="#DejaVuSans-6f" transform="translate(74.804688 0)"/>
      </g>
     </g>
    </g>
    <g id="text_5">
     <!-- Connectivity category -->
     <g transform="translate(313.98125 348.676562) scale(0.1 -0.1)">
      <defs>
       <path id="DejaVuSans-43" d="M 4122 4306 
L 4122 3641 
Q 3803 3938 3442 4084 
Q 3081 4231 2675 4231 
Q 1875 4231 1450 3742 
Q 1025 3253 1025 2328 
Q 1025 1406 1450 917 
Q 1875 428 2675 428 
Q 3081 428 3442 575 
Q 3803 722 4122 1019 
L 4122 359 
Q 3791 134 3420 21 
Q 3050 -91 2638 -91 
Q 1578 -91 968 557 
Q 359 1206 359 2328 
Q 359 3453 968 4101 
Q 1578 4750 2638 4750 
Q 3056 4750 3426 4639 
Q 3797 4528 4122 4306 
z
" transform="scale(0.015625)"/>
       <path id="DejaVuSans-74" d="M 1172 4494 
L 1172 3500 
L 2356 3500 
L 2356 3053 
L 1172 3053 
L 1172 1153 
Q 1172 725 1289 603 
Q 1406 481 1766 481 
L 2356 481 
L 2356 0 
L 1766 0 
Q 1100 0 847 248 
Q 594 497 594 1153 
L 594 3053 
L 172 3053 
L 172 3500 
L 594 3500 
L 594 4494 
L 1172 4494 
z
" transform="scale(0.015625)"/>
       <path id="DejaVuSans-76" d="M 191 3500 
L 800 3500 
L 1894 563 
L 2988 3500 
L 3597 3500 
L 2284 0 
L 1503 0 
L 191 3500 
z
" transform="scale(0.015625)"/>
       <path id="DejaVuSans-79" d="M 2059 -325 
Q 1816 -950 1584 -1140 
Q 1353 -1331 966 -1331 
L 506 -1331 
L 506 -850 
L 844 -850 
Q 1081 -850 1212 -737 
Q 1344 -625 1503 -206 
L 1606 56 
L 191 3500 
L 800 3500 
L 1894 763 
L 2988 3500 
L 3597 3500 
L 2059 -325 
z
" transform="scale(0.015625)"/>
       <path id="DejaVuSans-20" transform="scale(0.015625)"/>
       <path id="DejaVuSans-61" d="M 2194 1759 
Q 1497 1759 1228 1600 
Q 959 1441 959 1056 
Q 959 750 1161 570 
Q 1363 391 1709 391 
Q 2188 391 2477 730 
Q 2766 1069 2766 1631 
L 2766 1759 
L 2194 1759 
z
M 3341 1997 
L 3341 0 
L 2766 0 
L 2766 531 
Q 2569 213 2275 61 
Q 1981 -91 1556 -91 
Q 1019 -91 701 211 
Q 384 513 384 1019 
Q 384 1609 779 1909 
Q 1175 2209 1959 2209 
L 2766 2209 
L 2766 2266 
Q 2766 2663 2505 2880 
Q 2244 3097 1772 3097 
Q 1472 3097 1187 3025 
Q 903 2953 641 2809 
L 641 3341 
Q 956 3463 1253 3523 
Q 1550 3584 1831 3584 
Q 2591 3584 2966 3190 
Q 3341 2797 3341 1997 
z
" transform="scale(0.015625)"/>
       <path id="DejaVuSans-67" d="M 2906 1791 
Q 2906 2416 2648 2759 
Q 2391 3103 1925 3103 
Q 1463 3103 1205 2759 
Q 947 2416 947 1791 
Q 947 1169 1205 825 
Q 1463 481 1925 481 
Q 2391 481 2648 825 
Q 2906 1169 2906 1791 
z
M 3481 434 
Q 3481 -459 3084 -895 
Q 2688 -1331 1869 -1331 
Q 1566 -1331 1297 -1286 
Q 1028 -1241 775 -1147 
L 775 -588 
Q 1028 -725 1275 -790 
Q 1522 -856 1778 -856 
Q 2344 -856 2625 -561 
Q 2906 -266 2906 331 
L 2906 616 
Q 2728 306 2450 153 
Q 2172 0 1784 0 
Q 1141 0 747 490 
Q 353 981 353 1791 
Q 353 2603 747 3093 
Q 1141 3584 1784 3584 
Q 2172 3584 2450 3431 
Q 2728 3278 2906 2969 
L 2906 3500 
L 3481 3500 
L 3481 434 
z
" transform="scale(0.015625)"/>
      </defs>
      <use xlink:href="#DejaVuSans-43"/>
      <use xlink:href="#DejaVuSans-6f" transform="translate(69.824219 0)"/>
      <use xlink:href="#DejaVuSans-6e" transform="translate(131.005859 0)"/>
      <use xlink:href="#DejaVuSans-6e" transform="translate(194.384766 0)"/>
      <use xlink:href="#DejaVuSans-65" transform="translate(257.763672 0)"/>
      <use xlink:href="#DejaVuSans-63" transform="translate(319.287109 0)"/>
      <use xlink:href="#DejaVuSans-74" transform="translate(374.267578 0)"/>
      <use xlink:href="#DejaVuSans-69" transform="translate(413.476562 0)"/>
      <use xlink:href="#DejaVuSans-76" transform="translate(441.259766 0)"/>
      <use xlink:href="#DejaVuSans-69" transform="translate(500.439453 0)"/>
      <use xlink:href="#DejaVuSans-74" transform="translate(528.222656 0)"/>
      <use xlink:href="#DejaVuSans-79" transform="translate(567.431641 0)"/>
      <use xlink:href="#DejaVuSans-20" transform="translate(626.611328 0)"/>
      <use xlink:href="#DejaVuSans-63" transform="translate(658.398438 0)"/>
      <use xlink:href="#DejaVuSans-61" transform="translate(713.378906 0)"/>
      <use xlink:href="#DejaVuSans-74" transform="translate(774.658203 0)"/>
      <use xlink:href="#DejaVuSans-65" transform="translate(813.867188 0)"/>
      <use xlink:href="#DejaVuSans-67" transform="translate(875.390625 0)"/>
      <use xlink:href="#DejaVuSans-6f" transform="translate(938.867188 0)"/>
      <use xlink:href="#DejaVuSans-72" transform="translate(1000.048828 0)"/>
      <use xlink:href="#DejaVuSans-79" transform="translate(1041.162109 0)"/>
     </g>
    </g>
   </g>
   <g id="matplotlib.axis_2">
    <g id="ytick_1">
     <g id="line2d_5">
      <defs>
       <path id="md868e403a0" d="M 0 0 
L -3.5 0 
" style="stroke: #000000; stroke-width: 0.8"/>
      </defs>
      <g>
       <use xlink:href="#md868e403a0" x="90" y="317.101683" style="stroke: #000000; stroke-width: 0.8"/>
      </g>
     </g>
     <g id="text_6">
      <!-- −0.5 -->
      <g transform="translate(58.717187 320.900901) scale(0.1 -0.1)">
       <defs>
        <path id="DejaVuSans-2212" d="M 678 2272 
L 4684 2272 
L 4684 1741 
L 678 1741 
L 678 2272 
z
" transform="scale(0.015625)"/>
        <path id="DejaVuSans-30" d="M 2034 4250 
Q 1547 4250 1301 3770 
Q 1056 3291 1056 2328 
Q 1056 1369 1301 889 
Q 1547 409 2034 409 
Q 2525 409 2770 889 
Q 3016 1369 3016 2328 
Q 3016 3291 2770 3770 
Q 2525 4250 2034 4250 
z
M 2034 4750 
Q 2819 4750 3233 4129 
Q 3647 3509 3647 2328 
Q 3647 1150 3233 529 
Q 2819 -91 2034 -91 
Q 1250 -91 836 529 
Q 422 1150 422 2328 
Q 422 3509 836 4129 
Q 1250 4750 2034 4750 
z
" transform="scale(0.015625)"/>
        <path id="DejaVuSans-2e" d="M 684 794 
L 1344 794 
L 1344 0 
L 684 0 
L 684 794 
z
" transform="scale(0.015625)"/>
        <path id="DejaVuSans-35" d="M 691 4666 
L 3169 4666 
L 3169 4134 
L 1269 4134 
L 1269 2991 
Q 1406 3038 1543 3061 
Q 1681 3084 1819 3084 
Q 2600 3084 3056 2656 
Q 3513 2228 3513 1497 
Q 3513 744 3044 326 
Q 2575 -91 1722 -91 
Q 1428 -91 1123 -41 
Q 819 9 494 109 
L 494 744 
Q 775 591 1075 516 
Q 1375 441 1709 441 
Q 2250 441 2565 725 
Q 2881 1009 2881 1497 
Q 2881 1984 2565 2268 
Q 2250 2553 1709 2553 
Q 1456 2553 1204 2497 
Q 953 2441 691 2322 
L 691 4666 
z
" transform="scale(0.015625)"/>
       </defs>
       <use xlink:href="#DejaVuSans-2212"/>
       <use xlink:href="#DejaVuSans-30" transform="translate(83.789062 0)"/>
       <use xlink:href="#DejaVuSans-2e" transform="translate(147.412109 0)"/>
       <use xlink:href="#DejaVuSans-35" transform="translate(179.199219 0)"/>
      </g>
     </g>
    </g>
    <g id="ytick_2">
     <g id="line2d_6">
      <g>
       <use xlink:href="#md868e403a0" x="90" y="273.309346" style="stroke: #000000; stroke-width: 0.8"/>
      </g>
     </g>
     <g id="text_7">
      <!-- 0.0 -->
      <g transform="translate(67.096875 277.108564) scale(0.1 -0.1)">
       <use xlink:href="#DejaVuSans-30"/>
       <use xlink:href="#DejaVuSans-2e" transform="translate(63.623047 0)"/>
       <use xlink:href="#DejaVuSans-30" transform="translate(95.410156 0)"/>
      </g>
     </g>
    </g>
    <g id="ytick_3">
     <g id="line2d_7">
      <g>
       <use xlink:href="#md868e403a0" x="90" y="229.517009" style="stroke: #000000; stroke-width: 0.8"/>
      </g>
     </g>
     <g id="text_8">
      <!-- 0.5 -->
      <g transform="translate(67.096875 233.316228) scale(0.1 -0.1)">
       <use xlink:href="#DejaVuSans-30"/>
       <use xlink:href="#DejaVuSans-2e" transform="translate(63.623047 0)"/>
       <use xlink:href="#DejaVuSans-35" transform="translate(95.410156 0)"/>
      </g>
     </g>
    </g>
    <g id="ytick_4">
     <g id="line2d_8">
      <g>
       <use xlink:href="#md868e403a0" x="90" y="185.724672" style="stroke: #000000; stroke-width: 0.8"/>
      </g>
     </g>
     <g id="text_9">
      <!-- 1.0 -->
      <g transform="translate(67.096875 189.523891) scale(0.1 -0.1)">
       <defs>
        <path id="DejaVuSans-31" d="M 794 531 
L 1825 531 
L 1825 4091 
L 703 3866 
L 703 4441 
L 1819 4666 
L 2450 4666 
L 2450 531 
L 3481 531 
L 3481 0 
L 794 0 
L 794 531 
z
" transform="scale(0.015625)"/>
       </defs>
       <use xlink:href="#DejaVuSans-31"/>
       <use xlink:href="#DejaVuSans-2e" transform="translate(63.623047 0)"/>
       <use xlink:href="#DejaVuSans-30" transform="translate(95.410156 0)"/>
      </g>
     </g>
    </g>
    <g id="ytick_5">
     <g id="line2d_9">
      <g>
       <use xlink:href="#md868e403a0" x="90" y="141.932335" style="stroke: #000000; stroke-width: 0.8"/>
      </g>
     </g>
     <g id="text_10">
      <!-- 1.5 -->
      <g transform="translate(67.096875 145.731554) scale(0.1 -0.1)">
       <use xlink:href="#DejaVuSans-31"/>
       <use xlink:href="#DejaVuSans-2e" transform="translate(63.623047 0)"/>
       <use xlink:href="#DejaVuSans-35" transform="translate(95.410156 0)"/>
      </g>
     </g>
    </g>
    <g id="ytick_6">
     <g id="line2d_10">
      <g>
       <use xlink:href="#md868e403a0" x="90" y="98.139998" style="stroke: #000000; stroke-width: 0.8"/>
      </g>
     </g>
     <g id="text_11">
      <!-- 2.0 -->
      <g transform="translate(67.096875 101.939217) scale(0.1 -0.1)">
       <defs>
        <path id="DejaVuSans-32" d="M 1228 531 
L 3431 531 
L 3431 0 
L 469 0 
L 469 531 
Q 828 903 1448 1529 
Q 2069 2156 2228 2338 
Q 2531 2678 2651 2914 
Q 2772 3150 2772 3378 
Q 2772 3750 2511 3984 
Q 2250 4219 1831 4219 
Q 1534 4219 1204 4116 
Q 875 4013 500 3803 
L 500 4441 
Q 881 4594 1212 4672 
Q 1544 4750 1819 4750 
Q 2544 4750 2975 4387 
Q 3406 4025 3406 3419 
Q 3406 3131 3298 2873 
Q 3191 2616 2906 2266 
Q 2828 2175 2409 1742 
Q 1991 1309 1228 531 
z
" transform="scale(0.015625)"/>
       </defs>
       <use xlink:href="#DejaVuSans-32"/>
       <use xlink:href="#DejaVuSans-2e" transform="translate(63.623047 0)"/>
       <use xlink:href="#DejaVuSans-30" transform="translate(95.410156 0)"/>
      </g>
     </g>
    </g>
    <g id="ytick_7">
     <g id="line2d_11">
      <g>
       <use xlink:href="#md868e403a0" x="90" y="54.347661" style="stroke: #000000; stroke-width: 0.8"/>
      </g>
     </g>
     <g id="text_12">
      <!-- 2.5 -->
      <g transform="translate(67.096875 58.14688) scale(0.1 -0.1)">
       <use xlink:href="#DejaVuSans-32"/>
       <use xlink:href="#DejaVuSans-2e" transform="translate(63.623047 0)"/>
       <use xlink:href="#DejaVuSans-35" transform="translate(95.410156 0)"/>
      </g>
     </g>
    </g>
    <g id="text_13">
     <!-- cont_variable -->
     <g transform="translate(52.359375 215.409375) rotate(-90) scale(0.1 -0.1)">
      <defs>
       <path id="DejaVuSans-5f" d="M 3263 -1063 
L 3263 -1509 
L -63 -1509 
L -63 -1063 
L 3263 -1063 
z
" transform="scale(0.015625)"/>
       <path id="DejaVuSans-62" d="M 3116 1747 
Q 3116 2381 2855 2742 
Q 2594 3103 2138 3103 
Q 1681 3103 1420 2742 
Q 1159 2381 1159 1747 
Q 1159 1113 1420 752 
Q 1681 391 2138 391 
Q 2594 391 2855 752 
Q 3116 1113 3116 1747 
z
M 1159 2969 
Q 1341 3281 1617 3432 
Q 1894 3584 2278 3584 
Q 2916 3584 3314 3078 
Q 3713 2572 3713 1747 
Q 3713 922 3314 415 
Q 2916 -91 2278 -91 
Q 1894 -91 1617 61 
Q 1341 213 1159 525 
L 1159 0 
L 581 0 
L 581 4863 
L 1159 4863 
L 1159 2969 
z
" transform="scale(0.015625)"/>
       <path id="DejaVuSans-6c" d="M 603 4863 
L 1178 4863 
L 1178 0 
L 603 0 
L 603 4863 
z
" transform="scale(0.015625)"/>
      </defs>
      <use xlink:href="#DejaVuSans-63"/>
      <use xlink:href="#DejaVuSans-6f" transform="translate(54.980469 0)"/>
      <use xlink:href="#DejaVuSans-6e" transform="translate(116.162109 0)"/>
      <use xlink:href="#DejaVuSans-74" transform="translate(179.541016 0)"/>
      <use xlink:href="#DejaVuSans-5f" transform="translate(218.75 0)"/>
      <use xlink:href="#DejaVuSans-76" transform="translate(268.75 0)"/>
      <use xlink:href="#DejaVuSans-61" transform="translate(327.929688 0)"/>
      <use xlink:href="#DejaVuSans-72" transform="translate(389.208984 0)"/>
      <use xlink:href="#DejaVuSans-69" transform="translate(430.322266 0)"/>
      <use xlink:href="#DejaVuSans-61" transform="translate(458.105469 0)"/>
      <use xlink:href="#DejaVuSans-62" transform="translate(519.384766 0)"/>
      <use xlink:href="#DejaVuSans-6c" transform="translate(582.861328 0)"/>
      <use xlink:href="#DejaVuSans-65" transform="translate(610.644531 0)"/>
     </g>
    </g>
   </g>
   <g id="patch_3">
    <path d="M 90 320.4 
L 90 43.2 
" style="fill: none; stroke: #000000; stroke-width: 0.8; stroke-linejoin: miter; stroke-linecap: square"/>
   </g>
   <g id="patch_4">
    <path d="M 648 320.4 
L 648 43.2 
" style="fill: none; stroke: #000000; stroke-width: 0.8; stroke-linejoin: miter; stroke-linecap: square"/>
   </g>
   <g id="patch_5">
    <path d="M 90 320.4 
L 648 320.4 
" style="fill: none; stroke: #000000; stroke-width: 0.8; stroke-linejoin: miter; stroke-linecap: square"/>
   </g>
   <g id="patch_6">
    <path d="M 90 43.2 
L 648 43.2 
" style="fill: none; stroke: #000000; stroke-width: 0.8; stroke-linejoin: miter; stroke-linecap: square"/>
   </g>
   <g id="PathCollection_1">
    <defs>
     <path id="m00af5de58b" d="M 0 2.5 
C 0.663008 2.5 1.29895 2.236584 1.767767 1.767767 
C 2.236584 1.29895 2.5 0.663008 2.5 0 
C 2.5 -0.663008 2.236584 -1.29895 1.767767 -1.767767 
C 1.29895 -2.236584 0.663008 -2.5 0 -2.5 
C -0.663008 -2.5 -1.29895 -2.236584 -1.767767 -1.767767 
C -2.236584 -1.29895 -2.5 -0.663008 -2.5 0 
C -2.5 0.663008 -2.236584 1.29895 -1.767767 1.767767 
C -1.29895 2.236584 -0.663008 2.5 0 2.5 
z
"/>
    </defs>
    <g clip-path="url(#p73b414f534)">
     <use xlink:href="#m00af5de58b" x="149.820311" y="265.319661" style="fill-opacity: 0.3"/>
     <use xlink:href="#m00af5de58b" x="163.992007" y="191.730603" style="fill-opacity: 0.3"/>
     <use xlink:href="#m00af5de58b" x="152.61489" y="239.067857" style="fill-opacity: 0.3"/>
     <use xlink:href="#m00af5de58b" x="173.22227" y="130.019137" style="fill-opacity: 0.3"/>
     <use xlink:href="#m00af5de58b" x="160.427903" y="189.407382" style="fill-opacity: 0.3"/>
     <use xlink:href="#m00af5de58b" x="160.906006" y="249.179416" style="fill-opacity: 0.3"/>
     <use xlink:href="#m00af5de58b" x="172.654647" y="238.675141" style="fill-opacity: 0.3"/>
     <use xlink:href="#m00af5de58b" x="147.569862" y="259.146482" style="fill-opacity: 0.3"/>
     <use xlink:href="#m00af5de58b" x="148.031597" y="261.301087" style="fill-opacity: 0.3"/>
     <use xlink:href="#m00af5de58b" x="153.933651" y="260.159151" style="fill-opacity: 0.3"/>
     <use xlink:href="#m00af5de58b" x="161.560782" y="172.936833" style="fill-opacity: 0.3"/>
     <use xlink:href="#m00af5de58b" x="153.891896" y="272.018324" style="fill-opacity: 0.3"/>
     <use xlink:href="#m00af5de58b" x="170.589307" y="271.679659" style="fill-opacity: 0.3"/>
     <use xlink:href="#m00af5de58b" x="171.299145" y="270.58331" style="fill-opacity: 0.3"/>
     <use xlink:href="#m00af5de58b" x="145.946377" y="270.894871" style="fill-opacity: 0.3"/>
     <use xlink:href="#m00af5de58b" x="149.12347" y="271.254201" style="fill-opacity: 0.3"/>
     <use xlink:href="#m00af5de58b" x="152.13252" y="235.70878" style="fill-opacity: 0.3"/>
     <use xlink:href="#m00af5de58b" x="161.353988" y="169.580166" style="fill-opacity: 0.3"/>
     <use xlink:href="#m00af5de58b" x="149.993259" y="167.985094" style="fill-opacity: 0.3"/>
     <use xlink:href="#m00af5de58b" x="162.702349" y="177.217126" style="fill-opacity: 0.3"/>
     <use xlink:href="#m00af5de58b" x="145.831781" y="227.903402" style="fill-opacity: 0.3"/>
     <use xlink:href="#m00af5de58b" x="158.036814" y="214.812785" style="fill-opacity: 0.3"/>
     <use xlink:href="#m00af5de58b" x="172.292048" y="235.329361" style="fill-opacity: 0.3"/>
     <use xlink:href="#m00af5de58b" x="165.359573" y="255.981008" style="fill-opacity: 0.3"/>
     <use xlink:href="#m00af5de58b" x="168.423552" y="250.94114" style="fill-opacity: 0.3"/>
     <use xlink:href="#m00af5de58b" x="147.987634" y="258.691691" style="fill-opacity: 0.3"/>
     <use xlink:href="#m00af5de58b" x="151.567485" y="255.576504" style="fill-opacity: 0.3"/>
     <use xlink:href="#m00af5de58b" x="155.459941" y="255.343541" style="fill-opacity: 0.3"/>
     <use xlink:href="#m00af5de58b" x="155.136265" y="264.185818" style="fill-opacity: 0.3"/>
     <use xlink:href="#m00af5de58b" x="147.047654" y="268.977034" style="fill-opacity: 0.3"/>
     <use xlink:href="#m00af5de58b" x="150.138724" y="269.602861" style="fill-opacity: 0.3"/>
     <use xlink:href="#m00af5de58b" x="164.853215" y="266.49333" style="fill-opacity: 0.3"/>
     <use xlink:href="#m00af5de58b" x="163.429094" y="263.930505" style="fill-opacity: 0.3"/>
     <use xlink:href="#m00af5de58b" x="162.840793" y="264.733443" style="fill-opacity: 0.3"/>
     <use xlink:href="#m00af5de58b" x="166.770546" y="263.058879" style="fill-opacity: 0.3"/>
     <use xlink:href="#m00af5de58b" x="156.085845" y="237.706751" style="fill-opacity: 0.3"/>
     <use xlink:href="#m00af5de58b" x="148.400177" y="117.402749" style="fill-opacity: 0.3"/>
     <use xlink:href="#m00af5de58b" x="171.746308" y="196.430182" style="fill-opacity: 0.3"/>
     <use xlink:href="#m00af5de58b" x="161.572092" y="149.43818" style="fill-opacity: 0.3"/>
     <use xlink:href="#m00af5de58b" x="156.0158" y="254.131315" style="fill-opacity: 0.3"/>
     <use xlink:href="#m00af5de58b" x="152.063814" y="256.265618" style="fill-opacity: 0.3"/>
     <use xlink:href="#m00af5de58b" x="158.361437" y="149.134547" style="fill-opacity: 0.3"/>
     <use xlink:href="#m00af5de58b" x="153.975992" y="203.351992" style="fill-opacity: 0.3"/>
     <use xlink:href="#m00af5de58b" x="156.616314" y="246.570528" style="fill-opacity: 0.3"/>
     <use xlink:href="#m00af5de58b" x="169.047792" y="213.838068" style="fill-opacity: 0.3"/>
     <use xlink:href="#m00af5de58b" x="169.773684" y="192.741542" style="fill-opacity: 0.3"/>
     <use xlink:href="#m00af5de58b" x="165.876541" y="233.528069" style="fill-opacity: 0.3"/>
     <use xlink:href="#m00af5de58b" x="169.663638" y="207.194599" style="fill-opacity: 0.3"/>
     <use xlink:href="#m00af5de58b" x="148.122522" y="241.87948" style="fill-opacity: 0.3"/>
     <use xlink:href="#m00af5de58b" x="155.036166" y="198.580555" style="fill-opacity: 0.3"/>
     <use xlink:href="#m00af5de58b" x="165.519471" y="230.718188" style="fill-opacity: 0.3"/>
     <use xlink:href="#m00af5de58b" x="159.672174" y="226.213774" style="fill-opacity: 0.3"/>
     <use xlink:href="#m00af5de58b" x="162.397584" y="208.827942" style="fill-opacity: 0.3"/>
     <use xlink:href="#m00af5de58b" x="156.145487" y="208.400598" style="fill-opacity: 0.3"/>
     <use xlink:href="#m00af5de58b" x="156.685092" y="167.439939" style="fill-opacity: 0.3"/>
     <use xlink:href="#m00af5de58b" x="164.448799" y="232.523848" style="fill-opacity: 0.3"/>
     <use xlink:href="#m00af5de58b" x="159.446522" y="194.933147" style="fill-opacity: 0.3"/>
    </g>
   </g>
   <g id="PathCollection_2">
    <g clip-path="url(#p73b414f534)">
     <use xlink:href="#m00af5de58b" x="311.237431" y="258.300197" style="fill-opacity: 0.3"/>
     <use xlink:href="#m00af5de58b" x="288.258296" y="265.90867" style="fill-opacity: 0.3"/>
     <use xlink:href="#m00af5de58b" x="291.692098" y="263.030783" style="fill-opacity: 0.3"/>
     <use xlink:href="#m00af5de58b" x="294.977749" y="261.647592" style="fill-opacity: 0.3"/>
     <use xlink:href="#m00af5de58b" x="305.57482" y="265.831359" style="fill-opacity: 0.3"/>
     <use xlink:href="#m00af5de58b" x="307.82437" y="264.937921" style="fill-opacity: 0.3"/>
     <use xlink:href="#m00af5de58b" x="312.89491" y="266.04502" style="fill-opacity: 0.3"/>
     <use xlink:href="#m00af5de58b" x="306.253759" y="264.222177" style="fill-opacity: 0.3"/>
     <use xlink:href="#m00af5de58b" x="309.286732" y="265.573747" style="fill-opacity: 0.3"/>
     <use xlink:href="#m00af5de58b" x="285.450619" y="267.662003" style="fill-opacity: 0.3"/>
     <use xlink:href="#m00af5de58b" x="311.118951" y="228.826763" style="fill-opacity: 0.3"/>
     <use xlink:href="#m00af5de58b" x="302.718766" y="248.819808" style="fill-opacity: 0.3"/>
     <use xlink:href="#m00af5de58b" x="287.944045" y="234.957566" style="fill-opacity: 0.3"/>
     <use xlink:href="#m00af5de58b" x="310.398202" y="231.750408" style="fill-opacity: 0.3"/>
     <use xlink:href="#m00af5de58b" x="285.942417" y="230.974001" style="fill-opacity: 0.3"/>
     <use xlink:href="#m00af5de58b" x="297.552731" y="246.451057" style="fill-opacity: 0.3"/>
     <use xlink:href="#m00af5de58b" x="312.870806" y="253.477158" style="fill-opacity: 0.3"/>
     <use xlink:href="#m00af5de58b" x="313.191945" y="251.725277" style="fill-opacity: 0.3"/>
     <use xlink:href="#m00af5de58b" x="296.376996" y="229.773561" style="fill-opacity: 0.3"/>
     <use xlink:href="#m00af5de58b" x="313.120003" y="236.857076" style="fill-opacity: 0.3"/>
     <use xlink:href="#m00af5de58b" x="306.901973" y="241.118738" style="fill-opacity: 0.3"/>
     <use xlink:href="#m00af5de58b" x="306.21281" y="250.204891" style="fill-opacity: 0.3"/>
     <use xlink:href="#m00af5de58b" x="304.348633" y="231.69283" style="fill-opacity: 0.3"/>
     <use xlink:href="#m00af5de58b" x="302.576075" y="245.617955" style="fill-opacity: 0.3"/>
     <use xlink:href="#m00af5de58b" x="309.206794" y="262.613853" style="fill-opacity: 0.3"/>
     <use xlink:href="#m00af5de58b" x="302.701377" y="259.516846" style="fill-opacity: 0.3"/>
     <use xlink:href="#m00af5de58b" x="290.691865" y="257.258776" style="fill-opacity: 0.3"/>
     <use xlink:href="#m00af5de58b" x="289.894662" y="262.306454" style="fill-opacity: 0.3"/>
     <use xlink:href="#m00af5de58b" x="293.763827" y="261.22213" style="fill-opacity: 0.3"/>
     <use xlink:href="#m00af5de58b" x="310.091603" y="266.092324" style="fill-opacity: 0.3"/>
     <use xlink:href="#m00af5de58b" x="311.094671" y="261.832365" style="fill-opacity: 0.3"/>
     <use xlink:href="#m00af5de58b" x="297.156657" y="250.105844" style="fill-opacity: 0.3"/>
     <use xlink:href="#m00af5de58b" x="288.476896" y="260.376994" style="fill-opacity: 0.3"/>
     <use xlink:href="#m00af5de58b" x="308.837416" y="261.077557" style="fill-opacity: 0.3"/>
     <use xlink:href="#m00af5de58b" x="304.431159" y="258.213604" style="fill-opacity: 0.3"/>
     <use xlink:href="#m00af5de58b" x="310.213898" y="266.881093" style="fill-opacity: 0.3"/>
     <use xlink:href="#m00af5de58b" x="301.311836" y="259.935091" style="fill-opacity: 0.3"/>
     <use xlink:href="#m00af5de58b" x="303.96588" y="268.423263" style="fill-opacity: 0.3"/>
     <use xlink:href="#m00af5de58b" x="304.575676" y="262.645972" style="fill-opacity: 0.3"/>
     <use xlink:href="#m00af5de58b" x="292.471304" y="206.537314" style="fill-opacity: 0.3"/>
     <use xlink:href="#m00af5de58b" x="302.053885" y="192.803007" style="fill-opacity: 0.3"/>
     <use xlink:href="#m00af5de58b" x="309.144276" y="184.954938" style="fill-opacity: 0.3"/>
     <use xlink:href="#m00af5de58b" x="298.57547" y="271.286011" style="fill-opacity: 0.3"/>
     <use xlink:href="#m00af5de58b" x="300.301714" y="270.503258" style="fill-opacity: 0.3"/>
     <use xlink:href="#m00af5de58b" x="299.002217" y="235.43247" style="fill-opacity: 0.3"/>
     <use xlink:href="#m00af5de58b" x="312.127569" y="259.371815" style="fill-opacity: 0.3"/>
     <use xlink:href="#m00af5de58b" x="301.462083" y="262.49371" style="fill-opacity: 0.3"/>
     <use xlink:href="#m00af5de58b" x="289.359361" y="244.907949" style="fill-opacity: 0.3"/>
     <use xlink:href="#m00af5de58b" x="289.555872" y="248.7383" style="fill-opacity: 0.3"/>
     <use xlink:href="#m00af5de58b" x="296.422859" y="260.738499" style="fill-opacity: 0.3"/>
     <use xlink:href="#m00af5de58b" x="287.684811" y="260.871349" style="fill-opacity: 0.3"/>
     <use xlink:href="#m00af5de58b" x="293.219817" y="260.962466" style="fill-opacity: 0.3"/>
     <use xlink:href="#m00af5de58b" x="297.665436" y="259.685318" style="fill-opacity: 0.3"/>
     <use xlink:href="#m00af5de58b" x="289.484731" y="259.060154" style="fill-opacity: 0.3"/>
     <use xlink:href="#m00af5de58b" x="310.849932" y="256.807998" style="fill-opacity: 0.3"/>
     <use xlink:href="#m00af5de58b" x="288.804258" y="255.119983" style="fill-opacity: 0.3"/>
     <use xlink:href="#m00af5de58b" x="295.552233" y="252.626406" style="fill-opacity: 0.3"/>
     <use xlink:href="#m00af5de58b" x="306.076876" y="263.383918" style="fill-opacity: 0.3"/>
     <use xlink:href="#m00af5de58b" x="294.81913" y="260.483426" style="fill-opacity: 0.3"/>
     <use xlink:href="#m00af5de58b" x="302.985996" y="262.442683" style="fill-opacity: 0.3"/>
     <use xlink:href="#m00af5de58b" x="301.647802" y="267.557843" style="fill-opacity: 0.3"/>
     <use xlink:href="#m00af5de58b" x="304.907157" y="265.313755" style="fill-opacity: 0.3"/>
     <use xlink:href="#m00af5de58b" x="289.294268" y="263.700071" style="fill-opacity: 0.3"/>
     <use xlink:href="#m00af5de58b" x="302.408276" y="264.494384" style="fill-opacity: 0.3"/>
     <use xlink:href="#m00af5de58b" x="291.089402" y="219.703607" style="fill-opacity: 0.3"/>
     <use xlink:href="#m00af5de58b" x="296.736164" y="80.006579" style="fill-opacity: 0.3"/>
     <use xlink:href="#m00af5de58b" x="307.553548" y="252.549594" style="fill-opacity: 0.3"/>
     <use xlink:href="#m00af5de58b" x="294.954602" y="236.659984" style="fill-opacity: 0.3"/>
     <use xlink:href="#m00af5de58b" x="310.143416" y="224.555562" style="fill-opacity: 0.3"/>
     <use xlink:href="#m00af5de58b" x="310.27652" y="263.829173" style="fill-opacity: 0.3"/>
     <use xlink:href="#m00af5de58b" x="288.54723" y="259.618309" style="fill-opacity: 0.3"/>
     <use xlink:href="#m00af5de58b" x="305.45527" y="257.26995" style="fill-opacity: 0.3"/>
     <use xlink:href="#m00af5de58b" x="285.591381" y="261.987306" style="fill-opacity: 0.3"/>
     <use xlink:href="#m00af5de58b" x="303.359941" y="256.61785" style="fill-opacity: 0.3"/>
     <use xlink:href="#m00af5de58b" x="291.209627" y="172.921246" style="fill-opacity: 0.3"/>
     <use xlink:href="#m00af5de58b" x="311.115235" y="257.643245" style="fill-opacity: 0.3"/>
     <use xlink:href="#m00af5de58b" x="290.699796" y="134.279634" style="fill-opacity: 0.3"/>
     <use xlink:href="#m00af5de58b" x="311.963542" y="254.448686" style="fill-opacity: 0.3"/>
     <use xlink:href="#m00af5de58b" x="310.006447" y="258.618432" style="fill-opacity: 0.3"/>
     <use xlink:href="#m00af5de58b" x="309.116615" y="179.443411" style="fill-opacity: 0.3"/>
     <use xlink:href="#m00af5de58b" x="290.88316" y="238.594645" style="fill-opacity: 0.3"/>
     <use xlink:href="#m00af5de58b" x="287.907008" y="266.212866" style="fill-opacity: 0.3"/>
     <use xlink:href="#m00af5de58b" x="310.907238" y="235.605249" style="fill-opacity: 0.3"/>
     <use xlink:href="#m00af5de58b" x="299.696551" y="245.588725" style="fill-opacity: 0.3"/>
     <use xlink:href="#m00af5de58b" x="287.301424" y="225.253303" style="fill-opacity: 0.3"/>
     <use xlink:href="#m00af5de58b" x="299.693477" y="197.390701" style="fill-opacity: 0.3"/>
     <use xlink:href="#m00af5de58b" x="302.724997" y="260.712255" style="fill-opacity: 0.3"/>
     <use xlink:href="#m00af5de58b" x="300.173292" y="236.374199" style="fill-opacity: 0.3"/>
     <use xlink:href="#m00af5de58b" x="287.709966" y="253.127651" style="fill-opacity: 0.3"/>
     <use xlink:href="#m00af5de58b" x="308.429906" y="217.573625" style="fill-opacity: 0.3"/>
     <use xlink:href="#m00af5de58b" x="299.87395" y="213.106011" style="fill-opacity: 0.3"/>
     <use xlink:href="#m00af5de58b" x="290.387021" y="216.357786" style="fill-opacity: 0.3"/>
     <use xlink:href="#m00af5de58b" x="312.21348" y="264.341205" style="fill-opacity: 0.3"/>
     <use xlink:href="#m00af5de58b" x="298.857194" y="194.37783" style="fill-opacity: 0.3"/>
     <use xlink:href="#m00af5de58b" x="295.19649" y="205.238277" style="fill-opacity: 0.3"/>
     <use xlink:href="#m00af5de58b" x="301.379864" y="240.071668" style="fill-opacity: 0.3"/>
     <use xlink:href="#m00af5de58b" x="309.876185" y="264.442418" style="fill-opacity: 0.3"/>
     <use xlink:href="#m00af5de58b" x="305.489594" y="182.141412" style="fill-opacity: 0.3"/>
     <use xlink:href="#m00af5de58b" x="292.944651" y="260.875811" style="fill-opacity: 0.3"/>
    </g>
   </g>
   <g id="PathCollection_3">
    <g clip-path="url(#p73b414f534)">
     <use xlink:href="#m00af5de58b" x="442.562079" y="255.90651" style="fill-opacity: 0.3"/>
     <use xlink:href="#m00af5de58b" x="443.667009" y="247.311159" style="fill-opacity: 0.3"/>
     <use xlink:href="#m00af5de58b" x="431.634167" y="265.898299" style="fill-opacity: 0.3"/>
     <use xlink:href="#m00af5de58b" x="450.909289" y="264.822973" style="fill-opacity: 0.3"/>
     <use xlink:href="#m00af5de58b" x="441.772044" y="218.054728" style="fill-opacity: 0.3"/>
     <use xlink:href="#m00af5de58b" x="437.45014" y="230.293835" style="fill-opacity: 0.3"/>
     <use xlink:href="#m00af5de58b" x="433.650561" y="261.690321" style="fill-opacity: 0.3"/>
     <use xlink:href="#m00af5de58b" x="437.184383" y="252.164364" style="fill-opacity: 0.3"/>
     <use xlink:href="#m00af5de58b" x="432.47848" y="191.490098" style="fill-opacity: 0.3"/>
     <use xlink:href="#m00af5de58b" x="444.536618" y="237.243" style="fill-opacity: 0.3"/>
     <use xlink:href="#m00af5de58b" x="438.085499" y="252.178058" style="fill-opacity: 0.3"/>
     <use xlink:href="#m00af5de58b" x="432.543755" y="249.280525" style="fill-opacity: 0.3"/>
     <use xlink:href="#m00af5de58b" x="427.216159" y="255.722409" style="fill-opacity: 0.3"/>
     <use xlink:href="#m00af5de58b" x="442.508675" y="260.529287" style="fill-opacity: 0.3"/>
     <use xlink:href="#m00af5de58b" x="449.326685" y="260.111913" style="fill-opacity: 0.3"/>
     <use xlink:href="#m00af5de58b" x="434.299351" y="249.065503" style="fill-opacity: 0.3"/>
     <use xlink:href="#m00af5de58b" x="433.005965" y="262.76591" style="fill-opacity: 0.3"/>
     <use xlink:href="#m00af5de58b" x="446.194865" y="254.465149" style="fill-opacity: 0.3"/>
     <use xlink:href="#m00af5de58b" x="427.890607" y="257.590958" style="fill-opacity: 0.3"/>
     <use xlink:href="#m00af5de58b" x="432.298704" y="261.346556" style="fill-opacity: 0.3"/>
     <use xlink:href="#m00af5de58b" x="429.267823" y="271.591438" style="fill-opacity: 0.3"/>
     <use xlink:href="#m00af5de58b" x="433.164884" y="146.514446" style="fill-opacity: 0.3"/>
     <use xlink:href="#m00af5de58b" x="436.573764" y="260.453981" style="fill-opacity: 0.3"/>
     <use xlink:href="#m00af5de58b" x="425.337971" y="251.657617" style="fill-opacity: 0.3"/>
     <use xlink:href="#m00af5de58b" x="425.846923" y="259.44958" style="fill-opacity: 0.3"/>
     <use xlink:href="#m00af5de58b" x="439.870509" y="256.71854" style="fill-opacity: 0.3"/>
     <use xlink:href="#m00af5de58b" x="445.260509" y="259.723117" style="fill-opacity: 0.3"/>
     <use xlink:href="#m00af5de58b" x="439.070649" y="262.902635" style="fill-opacity: 0.3"/>
     <use xlink:href="#m00af5de58b" x="446.828007" y="263.40504" style="fill-opacity: 0.3"/>
     <use xlink:href="#m00af5de58b" x="438.616974" y="254.13985" style="fill-opacity: 0.3"/>
     <use xlink:href="#m00af5de58b" x="445.562932" y="262.985332" style="fill-opacity: 0.3"/>
     <use xlink:href="#m00af5de58b" x="434.625217" y="261.30462" style="fill-opacity: 0.3"/>
     <use xlink:href="#m00af5de58b" x="442.511791" y="259.075178" style="fill-opacity: 0.3"/>
     <use xlink:href="#m00af5de58b" x="450.150991" y="263.686737" style="fill-opacity: 0.3"/>
     <use xlink:href="#m00af5de58b" x="428.929013" y="251.159849" style="fill-opacity: 0.3"/>
     <use xlink:href="#m00af5de58b" x="451.076772" y="248.244056" style="fill-opacity: 0.3"/>
     <use xlink:href="#m00af5de58b" x="449.074189" y="136.331083" style="fill-opacity: 0.3"/>
     <use xlink:href="#m00af5de58b" x="440.057717" y="236.241092" style="fill-opacity: 0.3"/>
     <use xlink:href="#m00af5de58b" x="446.500461" y="259.669356" style="fill-opacity: 0.3"/>
     <use xlink:href="#m00af5de58b" x="427.571656" y="208.666558" style="fill-opacity: 0.3"/>
     <use xlink:href="#m00af5de58b" x="436.405459" y="206.051332" style="fill-opacity: 0.3"/>
     <use xlink:href="#m00af5de58b" x="452.192322" y="253.97176" style="fill-opacity: 0.3"/>
     <use xlink:href="#m00af5de58b" x="444.428859" y="196.719304" style="fill-opacity: 0.3"/>
     <use xlink:href="#m00af5de58b" x="439.065899" y="199.464961" style="fill-opacity: 0.3"/>
     <use xlink:href="#m00af5de58b" x="451.909646" y="214.28266" style="fill-opacity: 0.3"/>
     <use xlink:href="#m00af5de58b" x="438.804739" y="229.47186" style="fill-opacity: 0.3"/>
     <use xlink:href="#m00af5de58b" x="444.935376" y="261.202481" style="fill-opacity: 0.3"/>
     <use xlink:href="#m00af5de58b" x="452.297297" y="133.017514" style="fill-opacity: 0.3"/>
    </g>
   </g>
   <g id="PathCollection_4">
    <g clip-path="url(#p73b414f534)">
     <use xlink:href="#m00af5de58b" x="583.28786" y="208.21001" style="fill-opacity: 0.3"/>
     <use xlink:href="#m00af5de58b" x="581.510936" y="132.111868" style="fill-opacity: 0.3"/>
     <use xlink:href="#m00af5de58b" x="588.813343" y="251.487662" style="fill-opacity: 0.3"/>
     <use xlink:href="#m00af5de58b" x="568.095076" y="271.063226" style="fill-opacity: 0.3"/>
     <use xlink:href="#m00af5de58b" x="591.89167" y="261.26305" style="fill-opacity: 0.3"/>
     <use xlink:href="#m00af5de58b" x="589.91814" y="250.700126" style="fill-opacity: 0.3"/>
     <use xlink:href="#m00af5de58b" x="583.338325" y="240.931952" style="fill-opacity: 0.3"/>
     <use xlink:href="#m00af5de58b" x="581.686532" y="268.531842" style="fill-opacity: 0.3"/>
     <use xlink:href="#m00af5de58b" x="579.3038" y="259.242938" style="fill-opacity: 0.3"/>
     <use xlink:href="#m00af5de58b" x="583.048567" y="264.338689" style="fill-opacity: 0.3"/>
     <use xlink:href="#m00af5de58b" x="567.54305" y="266.774636" style="fill-opacity: 0.3"/>
     <use xlink:href="#m00af5de58b" x="572.479676" y="249.652627" style="fill-opacity: 0.3"/>
     <use xlink:href="#m00af5de58b" x="567.687319" y="271.049923" style="fill-opacity: 0.3"/>
     <use xlink:href="#m00af5de58b" x="566.43329" y="266.208709" style="fill-opacity: 0.3"/>
     <use xlink:href="#m00af5de58b" x="569.741202" y="268.304277" style="fill-opacity: 0.3"/>
     <use xlink:href="#m00af5de58b" x="569.724954" y="245.511065" style="fill-opacity: 0.3"/>
     <use xlink:href="#m00af5de58b" x="564.349238" y="227.033824" style="fill-opacity: 0.3"/>
     <use xlink:href="#m00af5de58b" x="568.854903" y="167.416454" style="fill-opacity: 0.3"/>
     <use xlink:href="#m00af5de58b" x="589.291817" y="249.764033" style="fill-opacity: 0.3"/>
     <use xlink:href="#m00af5de58b" x="590.788905" y="212.035588" style="fill-opacity: 0.3"/>
     <use xlink:href="#m00af5de58b" x="590.205749" y="266.657282" style="fill-opacity: 0.3"/>
     <use xlink:href="#m00af5de58b" x="575.098574" y="199.950234" style="fill-opacity: 0.3"/>
     <use xlink:href="#m00af5de58b" x="570.320707" y="253.617156" style="fill-opacity: 0.3"/>
     <use xlink:href="#m00af5de58b" x="574.318672" y="265.830941" style="fill-opacity: 0.3"/>
     <use xlink:href="#m00af5de58b" x="575.936031" y="241.266277" style="fill-opacity: 0.3"/>
     <use xlink:href="#m00af5de58b" x="578.259417" y="254.329523" style="fill-opacity: 0.3"/>
     <use xlink:href="#m00af5de58b" x="576.715596" y="189.08845" style="fill-opacity: 0.3"/>
     <use xlink:href="#m00af5de58b" x="589.545727" y="201.578715" style="fill-opacity: 0.3"/>
     <use xlink:href="#m00af5de58b" x="581.950426" y="211.231574" style="fill-opacity: 0.3"/>
     <use xlink:href="#m00af5de58b" x="588.073734" y="263.282309" style="fill-opacity: 0.3"/>
     <use xlink:href="#m00af5de58b" x="571.538753" y="185.642015" style="fill-opacity: 0.3"/>
    </g>
   </g>
  </g>
 </g>
 <defs>
  <clipPath id="p73b414f534">
   <rect x="90" y="43.2" width="558" height="277.2"/>
  </clipPath>
 </defs>
</svg>
