<?xml version="1.0" encoding="utf-8" standalone="no"?>
<!DOCTYPE svg PUBLIC "-//W3C//DTD SVG 1.1//EN"
  "http://www.w3.org/Graphics/SVG/1.1/DTD/svg11.dtd">
<svg xmlns:xlink="http://www.w3.org/1999/xlink" width="720pt" height="360pt" viewBox="0 0 720 360" xmlns="http://www.w3.org/2000/svg" version="1.1">
 <metadata>
  <rdf:RDF xmlns:dc="http://purl.org/dc/elements/1.1/" xmlns:cc="http://creativecommons.org/ns#" xmlns:rdf="http://www.w3.org/1999/02/22-rdf-syntax-ns#">
   <cc:Work>
    <dc:type rdf:resource="http://purl.org/dc/dcmitype/StillImage"/>
    <dc:date>2025-09-11T15:14:58.046880</dc:date>
    <dc:format>image/svg+xml</dc:format>
    <dc:creator>
     <cc:Agent>
      <dc:title>Matplotlib v3.10.3, https://matplotlib.org/</dc:title>
     </cc:Agent>
    </dc:creator>
   </cc:Work>
  </rdf:RDF>
 </metadata>
 <defs>
  <style type="text/css">*{stroke-linejoin: round; stroke-linecap: butt}</style>
 </defs>
 <g id="figure_1">
  <g id="patch_1">
   <path d="M 0 360 
L 720 360 
L 720 0 
L 0 0 
z
" style="fill: #ffffff"/>
  </g>
  <g id="axes_1">
   <g id="patch_2">
    <path d="M 90 320.4 
L 648 320.4 
L 648 43.2 
L 90 43.2 
z
" style="fill: #ffffff"/>
   </g>
   <g id="FillBetweenPolyCollection_1">
    <defs>
     <path id="m10ac021f38" d="M 146.195146 -45.713635 
L 145.404854 -45.713635 
L 145.29013 -45.867461 
L 145.153427 -46.021286 
L 144.99419 -46.175112 
L 144.81303 -46.328937 
L 144.611957 -46.482763 
L 144.394544 -46.636588 
L 144.165975 -46.790414 
L 143.932946 -46.94424 
L 143.703418 -47.098065 
L 143.486213 -47.251891 
L 143.290475 -47.405716 
L 143.125045 -47.559542 
L 142.997807 -47.713367 
L 142.915061 -47.867193 
L 142.881013 -48.021018 
L 142.897413 -48.174844 
L 142.963409 -48.32867 
L 143.075617 -48.482495 
L 143.228401 -48.636321 
L 143.414336 -48.790146 
L 143.62479 -48.943972 
L 143.850562 -49.097797 
L 144.082502 -49.251623 
L 144.312048 -49.405448 
L 144.531628 -49.559274 
L 144.734888 -49.7131 
L 144.91673 -49.866925 
L 145.073163 -50.020751 
L 145.200975 -50.174576 
L 145.297269 -50.328402 
L 145.358882 -50.482227 
L 145.381735 -50.636053 
L 145.360164 -50.789878 
L 145.286287 -50.943704 
L 145.149452 -51.097529 
L 144.935873 -51.251355 
L 144.628499 -51.405181 
L 144.207236 -51.559006 
L 143.649587 -51.712832 
L 142.931799 -51.866657 
L 142.030523 -52.020483 
L 140.924997 -52.174308 
L 139.599635 -52.328134 
L 138.046858 -52.481959 
L 136.269898 -52.635785 
L 134.285254 -52.789611 
L 132.124426 -52.943436 
L 129.834575 -53.097262 
L 127.477807 -53.251087 
L 125.128927 -53.404913 
L 122.871638 -53.558738 
L 120.793394 -53.712564 
L 118.9793 -53.866389 
L 117.505598 -54.020215 
L 116.433415 -54.174041 
L 115.803428 -54.327866 
L 115.632026 -54.481692 
L 115.909414 -54.635517 
L 116.599817 -54.789343 
L 117.643731 -54.943168 
L 118.961908 -55.096994 
L 120.460571 -55.250819 
L 122.03728 -55.404645 
L 123.586839 -55.558471 
L 125.006765 -55.712296 
L 126.201974 -55.866122 
L 127.088566 -56.019947 
L 127.596736 -56.173773 
L 127.673028 -56.327598 
L 127.282153 -56.481424 
L 126.408592 -56.635249 
L 125.058081 -56.789075 
L 123.258922 -56.9429 
L 121.062872 -57.096726 
L 118.545241 -57.250552 
L 115.803762 -57.404377 
L 112.955833 -57.558203 
L 110.133884 -57.712028 
L 107.478859 -57.865854 
L 105.132099 -58.019679 
L 103.22622 -58.173505 
L 101.875797 -58.32733 
L 101.16884 -58.481156 
L 101.16 -58.634982 
L 101.866338 -58.788807 
L 103.266178 -58.942633 
L 105.301218 -59.096458 
L 107.881676 -59.250284 
L 110.893874 -59.404109 
L 114.209407 -59.557935 
L 117.69489 -59.71176 
L 121.221286 -59.865586 
L 124.671925 -60.019412 
L 127.948592 -60.173237 
L 130.975334 -60.327063 
L 133.699927 -60.480888 
L 136.093237 -60.634714 
L 138.14688 -60.788539 
L 139.869712 -60.942365 
L 151.730288 -60.942365 
L 151.730288 -60.942365 
L 153.45312 -60.788539 
L 155.506763 -60.634714 
L 157.900073 -60.480888 
L 160.624666 -60.327063 
L 163.651408 -60.173237 
L 166.928075 -60.019412 
L 170.378714 -59.865586 
L 173.90511 -59.71176 
L 177.390593 -59.557935 
L 180.706126 -59.404109 
L 183.718324 -59.250284 
L 186.298782 -59.096458 
L 188.333822 -58.942633 
L 189.733662 -58.788807 
L 190.44 -58.634982 
L 190.43116 -58.481156 
L 189.724203 -58.32733 
L 188.37378 -58.173505 
L 186.467901 -58.019679 
L 184.121141 -57.865854 
L 181.466116 -57.712028 
L 178.644167 -57.558203 
L 175.796238 -57.404377 
L 173.054759 -57.250552 
L 170.537128 -57.096726 
L 168.341078 -56.9429 
L 166.541919 -56.789075 
L 165.191408 -56.635249 
L 164.317847 -56.481424 
L 163.926972 -56.327598 
L 164.003264 -56.173773 
L 164.511434 -56.019947 
L 165.398026 -55.866122 
L 166.593235 -55.712296 
L 168.013161 -55.558471 
L 169.56272 -55.404645 
L 171.139429 -55.250819 
L 172.638092 -55.096994 
L 173.956269 -54.943168 
L 175.000183 -54.789343 
L 175.690586 -54.635517 
L 175.967974 -54.481692 
L 175.796572 -54.327866 
L 175.166585 -54.174041 
L 174.094402 -54.020215 
L 172.6207 -53.866389 
L 170.806606 -53.712564 
L 168.728362 -53.558738 
L 166.471073 -53.404913 
L 164.122193 -53.251087 
L 161.765425 -53.097262 
L 159.475574 -52.943436 
L 157.314746 -52.789611 
L 155.330102 -52.635785 
L 153.553142 -52.481959 
L 152.000365 -52.328134 
L 150.675003 -52.174308 
L 149.569477 -52.020483 
L 148.668201 -51.866657 
L 147.950413 -51.712832 
L 147.392764 -51.559006 
L 146.971501 -51.405181 
L 146.664127 -51.251355 
L 146.450548 -51.097529 
L 146.313713 -50.943704 
L 146.239836 -50.789878 
L 146.218265 -50.636053 
L 146.241118 -50.482227 
L 146.302731 -50.328402 
L 146.399025 -50.174576 
L 146.526837 -50.020751 
L 146.68327 -49.866925 
L 146.865112 -49.7131 
L 147.068372 -49.559274 
L 147.287952 -49.405448 
L 147.517498 -49.251623 
L 147.749438 -49.097797 
L 147.97521 -48.943972 
L 148.185664 -48.790146 
L 148.371599 -48.636321 
L 148.524383 -48.482495 
L 148.636591 -48.32867 
L 148.702587 -48.174844 
L 148.718987 -48.021018 
L 148.684939 -47.867193 
L 148.602193 -47.713367 
L 148.474955 -47.559542 
L 148.309525 -47.405716 
L 148.113787 -47.251891 
L 147.896582 -47.098065 
L 147.667054 -46.94424 
L 147.434025 -46.790414 
L 147.205456 -46.636588 
L 146.988043 -46.482763 
L 146.78697 -46.328937 
L 146.60581 -46.175112 
L 146.446573 -46.021286 
L 146.30987 -45.867461 
L 146.195146 -45.713635 
z
" style="stroke: #3d3d3d; stroke-width: 1.25"/>
    </defs>
    <g clip-path="url(#p741d7dcfe4)">
     <use xlink:href="#m10ac021f38" x="0" y="360" style="fill: #3274a1; stroke: #3d3d3d; stroke-width: 1.25"/>
    </g>
   </g>
   <g id="FillBetweenPolyCollection_2">
    <defs>
     <path id="m76bcb9c7ac" d="M 257.87599 -45.882804 
L 256.92401 -45.882804 
L 256.777583 -46.033212 
L 256.601671 -46.18362 
L 256.395615 -46.334028 
L 256.160532 -46.484436 
L 255.899667 -46.634844 
L 255.618617 -46.785252 
L 255.325354 -46.93566 
L 255.030003 -47.086068 
L 254.744363 -47.236476 
L 254.481183 -47.386884 
L 254.253251 -47.537292 
L 254.072374 -47.6877 
L 253.948371 -47.838108 
L 253.888191 -47.988516 
L 253.895268 -48.138924 
L 253.969195 -48.289332 
L 254.105765 -48.43974 
L 254.297364 -48.590148 
L 254.533675 -48.740556 
L 254.802594 -48.890964 
L 255.091246 -49.041372 
L 255.386989 -49.19178 
L 255.67828 -49.342188 
L 255.95534 -49.492596 
L 256.21056 -49.643004 
L 256.438633 -49.793412 
L 256.636437 -49.94382 
L 256.802702 -50.094228 
L 256.937529 -50.244636 
L 257.041801 -50.395044 
L 257.116542 -50.545452 
L 257.16227 -50.69586 
L 257.178362 -50.846268 
L 257.162467 -50.996676 
L 257.109983 -51.147084 
L 257.013629 -51.297492 
L 256.86317 -51.4479 
L 256.645337 -51.598308 
L 256.34404 -51.748716 
L 255.940943 -51.899124 
L 255.416465 -52.049532 
L 254.751266 -52.19994 
L 253.928188 -52.350348 
L 252.934562 -52.500756 
L 251.764708 -52.651164 
L 250.422354 -52.801572 
L 248.92265 -52.95198 
L 247.293399 -53.102388 
L 245.575174 -53.252796 
L 243.820078 -53.403204 
L 242.089031 -53.553612 
L 240.447705 -53.70402 
L 238.961423 -53.854428 
L 237.689528 -54.004836 
L 236.679895 -54.155244 
L 235.964259 -54.305652 
L 235.555007 -54.45606 
L 235.443867 -54.606468 
L 235.60268 -54.756876 
L 235.986116 -54.907284 
L 236.53592 -55.057692 
L 237.186027 -55.2081 
L 237.86779 -55.358508 
L 238.514585 -55.508916 
L 239.065236 -55.659324 
L 239.465956 -55.809732 
L 239.670864 -55.96014 
L 239.641415 -56.110548 
L 239.345337 -56.260956 
L 238.755803 -56.411364 
L 237.85146 -56.561772 
L 236.617795 -56.71218 
L 235.049934 -56.862588 
L 233.156617 -57.012996 
L 230.964701 -57.163404 
L 228.523239 -57.313812 
L 225.906113 -57.46422 
L 223.212233 -57.614628 
L 220.562633 -57.765036 
L 218.094229 -57.915444 
L 215.950583 -58.065852 
L 214.270514 -58.21626 
L 213.175869 -58.366668 
L 212.76 -58.517076 
L 213.078456 -58.667484 
L 214.143187 -58.817892 
L 215.921044 -58.9683 
L 218.336768 -59.118708 
L 221.280053 -59.269116 
L 224.615713 -59.419524 
L 228.195604 -59.569932 
L 231.870848 -59.72034 
L 235.502944 -59.870748 
L 238.97268 -60.021156 
L 242.18613 -60.171564 
L 245.07751 -60.321972 
L 247.609086 -60.47238 
L 249.768631 -60.622788 
L 251.565183 -60.773196 
L 263.234817 -60.773196 
L 263.234817 -60.773196 
L 265.031369 -60.622788 
L 267.190914 -60.47238 
L 269.72249 -60.321972 
L 272.61387 -60.171564 
L 275.82732 -60.021156 
L 279.297056 -59.870748 
L 282.929152 -59.72034 
L 286.604396 -59.569932 
L 290.184287 -59.419524 
L 293.519947 -59.269116 
L 296.463232 -59.118708 
L 298.878956 -58.9683 
L 300.656813 -58.817892 
L 301.721544 -58.667484 
L 302.04 -58.517076 
L 301.624131 -58.366668 
L 300.529486 -58.21626 
L 298.849417 -58.065852 
L 296.705771 -57.915444 
L 294.237367 -57.765036 
L 291.587767 -57.614628 
L 288.893887 -57.46422 
L 286.276761 -57.313812 
L 283.835299 -57.163404 
L 281.643383 -57.012996 
L 279.750066 -56.862588 
L 278.182205 -56.71218 
L 276.94854 -56.561772 
L 276.044197 -56.411364 
L 275.454663 -56.260956 
L 275.158585 -56.110548 
L 275.129136 -55.96014 
L 275.334044 -55.809732 
L 275.734764 -55.659324 
L 276.285415 -55.508916 
L 276.93221 -55.358508 
L 277.613973 -55.2081 
L 278.26408 -55.057692 
L 278.813884 -54.907284 
L 279.19732 -54.756876 
L 279.356133 -54.606468 
L 279.244993 -54.45606 
L 278.835741 -54.305652 
L 278.120105 -54.155244 
L 277.110472 -54.004836 
L 275.838577 -53.854428 
L 274.352295 -53.70402 
L 272.710969 -53.553612 
L 270.979922 -53.403204 
L 269.224826 -53.252796 
L 267.506601 -53.102388 
L 265.87735 -52.95198 
L 264.377646 -52.801572 
L 263.035292 -52.651164 
L 261.865438 -52.500756 
L 260.871812 -52.350348 
L 260.048734 -52.19994 
L 259.383535 -52.049532 
L 258.859057 -51.899124 
L 258.45596 -51.748716 
L 258.154663 -51.598308 
L 257.93683 -51.4479 
L 257.786371 -51.297492 
L 257.690017 -51.147084 
L 257.637533 -50.996676 
L 257.621638 -50.846268 
L 257.63773 -50.69586 
L 257.683458 -50.545452 
L 257.758199 -50.395044 
L 257.862471 -50.244636 
L 257.997298 -50.094228 
L 258.163563 -49.94382 
L 258.361367 -49.793412 
L 258.58944 -49.643004 
L 258.84466 -49.492596 
L 259.12172 -49.342188 
L 259.413011 -49.19178 
L 259.708754 -49.041372 
L 259.997406 -48.890964 
L 260.266325 -48.740556 
L 260.502636 -48.590148 
L 260.694235 -48.43974 
L 260.830805 -48.289332 
L 260.904732 -48.138924 
L 260.911809 -47.988516 
L 260.851629 -47.838108 
L 260.727626 -47.6877 
L 260.546749 -47.537292 
L 260.318817 -47.386884 
L 260.055637 -47.236476 
L 259.769997 -47.086068 
L 259.474646 -46.93566 
L 259.181383 -46.785252 
L 258.900333 -46.634844 
L 258.639468 -46.484436 
L 258.404385 -46.334028 
L 258.198329 -46.18362 
L 258.022417 -46.033212 
L 257.87599 -45.882804 
z
" style="stroke: #3d3d3d; stroke-width: 1.25"/>
    </defs>
    <g clip-path="url(#p741d7dcfe4)">
     <use xlink:href="#m76bcb9c7ac" x="0" y="360" style="fill: #e1812c; stroke: #3d3d3d; stroke-width: 1.25"/>
    </g>
   </g>
   <g id="FillBetweenPolyCollection_3">
    <defs>
     <path id="m9813a69f53" d="M 370.071179 -44.757234 
L 367.928821 -44.757234 
L 367.685197 -44.930381 
L 367.403937 -45.103527 
L 367.083846 -45.276674 
L 366.724895 -45.449821 
L 366.32845 -45.622968 
L 365.897468 -45.796115 
L 365.436637 -45.969261 
L 364.952424 -46.142408 
L 364.453038 -46.315555 
L 363.948281 -46.488702 
L 363.449281 -46.661849 
L 362.968129 -46.834995 
L 362.517409 -47.008142 
L 362.109662 -47.181289 
L 361.756807 -47.354436 
L 361.469554 -47.527582 
L 361.256852 -47.700729 
L 361.125402 -47.873876 
L 361.079275 -48.047023 
L 361.119667 -48.22017 
L 361.244792 -48.393316 
L 361.449932 -48.566463 
L 361.727638 -48.73961 
L 362.068053 -48.912757 
L 362.459347 -49.085904 
L 362.88821 -49.25905 
L 363.340393 -49.432197 
L 363.801233 -49.605344 
L 364.256153 -49.778491 
L 364.691092 -49.951638 
L 365.09287 -50.124784 
L 365.449458 -50.297931 
L 365.750164 -50.471078 
L 365.985748 -50.644225 
L 366.148478 -50.817372 
L 366.232137 -50.990518 
L 366.232017 -51.163665 
L 366.14489 -51.336812 
L 365.968999 -51.509959 
L 365.704043 -51.683105 
L 365.351177 -51.856252 
L 364.913001 -52.029399 
L 364.393536 -52.202546 
L 363.798165 -52.375693 
L 363.133515 -52.548839 
L 362.40728 -52.721986 
L 361.627948 -52.895133 
L 360.804463 -53.06828 
L 359.945791 -53.241427 
L 359.060439 -53.414573 
L 358.155925 -53.58772 
L 357.238251 -53.760867 
L 356.31141 -53.934014 
L 355.376975 -54.107161 
L 354.433802 -54.280307 
L 353.477904 -54.453454 
L 352.502514 -54.626601 
L 351.498356 -54.799748 
L 350.454157 -54.972895 
L 349.357367 -55.146041 
L 348.195087 -55.319188 
L 346.955168 -55.492335 
L 345.627426 -55.665482 
L 344.204906 -55.838628 
L 342.685135 -56.011775 
L 341.071256 -56.184922 
L 339.372977 -56.358069 
L 337.607227 -56.531216 
L 335.798445 -56.704362 
L 333.978445 -56.877509 
L 332.185799 -57.050656 
L 330.464727 -57.223803 
L 328.863529 -57.39695 
L 327.432598 -57.570096 
L 326.222118 -57.743243 
L 325.279589 -57.91639 
L 324.647308 -58.089537 
L 324.36 -58.262684 
L 324.442749 -58.43583 
L 324.909396 -58.608977 
L 325.761526 -58.782124 
L 326.988114 -58.955271 
L 328.565887 -59.128418 
L 330.460358 -59.301564 
L 332.627476 -59.474711 
L 335.015756 -59.647858 
L 337.568755 -59.821005 
L 340.227703 -59.994151 
L 342.934119 -60.167298 
L 345.632245 -60.340445 
L 348.271156 -60.513592 
L 350.80643 -60.686739 
L 353.201332 -60.859885 
L 355.427466 -61.033032 
L 357.464923 -61.206179 
L 359.301991 -61.379326 
L 360.934468 -61.552473 
L 362.364721 -61.725619 
L 363.60054 -61.898766 
L 374.39946 -61.898766 
L 374.39946 -61.898766 
L 375.635279 -61.725619 
L 377.065532 -61.552473 
L 378.698009 -61.379326 
L 380.535077 -61.206179 
L 382.572534 -61.033032 
L 384.798668 -60.859885 
L 387.19357 -60.686739 
L 389.728844 -60.513592 
L 392.367755 -60.340445 
L 395.065881 -60.167298 
L 397.772297 -59.994151 
L 400.431245 -59.821005 
L 402.984244 -59.647858 
L 405.372524 -59.474711 
L 407.539642 -59.301564 
L 409.434113 -59.128418 
L 411.011886 -58.955271 
L 412.238474 -58.782124 
L 413.090604 -58.608977 
L 413.557251 -58.43583 
L 413.64 -58.262684 
L 413.352692 -58.089537 
L 412.720411 -57.91639 
L 411.777882 -57.743243 
L 410.567402 -57.570096 
L 409.136471 -57.39695 
L 407.535273 -57.223803 
L 405.814201 -57.050656 
L 404.021555 -56.877509 
L 402.201555 -56.704362 
L 400.392773 -56.531216 
L 398.627023 -56.358069 
L 396.928744 -56.184922 
L 395.314865 -56.011775 
L 393.795094 -55.838628 
L 392.372574 -55.665482 
L 391.044832 -55.492335 
L 389.804913 -55.319188 
L 388.642633 -55.146041 
L 387.545843 -54.972895 
L 386.501644 -54.799748 
L 385.497486 -54.626601 
L 384.522096 -54.453454 
L 383.566198 -54.280307 
L 382.623025 -54.107161 
L 381.68859 -53.934014 
L 380.761749 -53.760867 
L 379.844075 -53.58772 
L 378.939561 -53.414573 
L 378.054209 -53.241427 
L 377.195537 -53.06828 
L 376.372052 -52.895133 
L 375.59272 -52.721986 
L 374.866485 -52.548839 
L 374.201835 -52.375693 
L 373.606464 -52.202546 
L 373.086999 -52.029399 
L 372.648823 -51.856252 
L 372.295957 -51.683105 
L 372.031001 -51.509959 
L 371.85511 -51.336812 
L 371.767983 -51.163665 
L 371.767863 -50.990518 
L 371.851522 -50.817372 
L 372.014252 -50.644225 
L 372.249836 -50.471078 
L 372.550542 -50.297931 
L 372.90713 -50.124784 
L 373.308908 -49.951638 
L 373.743847 -49.778491 
L 374.198767 -49.605344 
L 374.659607 -49.432197 
L 375.11179 -49.25905 
L 375.540653 -49.085904 
L 375.931947 -48.912757 
L 376.272362 -48.73961 
L 376.550068 -48.566463 
L 376.755208 -48.393316 
L 376.880333 -48.22017 
L 376.920725 -48.047023 
L 376.874598 -47.873876 
L 376.743148 -47.700729 
L 376.530446 -47.527582 
L 376.243193 -47.354436 
L 375.890338 -47.181289 
L 375.482591 -47.008142 
L 375.031871 -46.834995 
L 374.550719 -46.661849 
L 374.051719 -46.488702 
L 373.546962 -46.315555 
L 373.047576 -46.142408 
L 372.563363 -45.969261 
L 372.102532 -45.796115 
L 371.67155 -45.622968 
L 371.275105 -45.449821 
L 370.916154 -45.276674 
L 370.596063 -45.103527 
L 370.314803 -44.930381 
L 370.071179 -44.757234 
z
" style="stroke: #3d3d3d; stroke-width: 1.25"/>
    </defs>
    <g clip-path="url(#p741d7dcfe4)">
     <use xlink:href="#m9813a69f53" x="0" y="360" style="fill: #3a923a; stroke: #3d3d3d; stroke-width: 1.25"/>
    </g>
   </g>
   <g id="FillBetweenPolyCollection_4">
    <defs>
     <path id="mcbf170b59e" d="M 481.019316 -45.305415 
L 480.180684 -45.305415 
L 480.072568 -45.467487 
L 479.945779 -45.629559 
L 479.799767 -45.791632 
L 479.634746 -45.953704 
L 479.451846 -46.115777 
L 479.253233 -46.277849 
L 479.042177 -46.439922 
L 478.823041 -46.601994 
L 478.601195 -46.764066 
L 478.382839 -46.926139 
L 478.17474 -47.088211 
L 477.983901 -47.250284 
L 477.817175 -47.412356 
L 477.680861 -47.574429 
L 477.580297 -47.736501 
L 477.519517 -47.898573 
L 477.50096 -48.060646 
L 477.525289 -48.222718 
L 477.591322 -48.384791 
L 477.696075 -48.546863 
L 477.834909 -48.708936 
L 478.001764 -48.871008 
L 478.189444 -49.033081 
L 478.389914 -49.195153 
L 478.59458 -49.357225 
L 478.794502 -49.519298 
L 478.980523 -49.68137 
L 479.143285 -49.843443 
L 479.27314 -50.005515 
L 479.35995 -50.167588 
L 479.392813 -50.32966 
L 479.35976 -50.491732 
L 479.247459 -50.653805 
L 479.041014 -50.815877 
L 478.723915 -50.97795 
L 478.278205 -51.140022 
L 477.684942 -51.302095 
L 476.924973 -51.464167 
L 475.980064 -51.626239 
L 474.834339 -51.788312 
L 473.475999 -51.950384 
L 471.899182 -52.112457 
L 470.105853 -52.274529 
L 468.107502 -52.436602 
L 465.926484 -52.598674 
L 463.59676 -52.760746 
L 461.163887 -52.922819 
L 458.684088 -53.084891 
L 456.22237 -53.246964 
L 453.849687 -53.409036 
L 451.639294 -53.571109 
L 449.662495 -53.733181 
L 447.984101 -53.895254 
L 446.657935 -54.057326 
L 445.722788 -54.219398 
L 445.199152 -54.381471 
L 445.087055 -54.543543 
L 445.365182 -54.705616 
L 445.991399 -54.867688 
L 446.904653 -55.029761 
L 448.028103 -55.191833 
L 449.27328 -55.353905 
L 450.54497 -55.515978 
L 451.746509 -55.67805 
L 452.785158 -55.840123 
L 453.577262 -56.002195 
L 454.052933 -56.164268 
L 454.160015 -56.32634 
L 453.867183 -56.488412 
L 453.166009 -56.650485 
L 452.071915 -56.812557 
L 450.623923 -56.97463 
L 448.883171 -57.136702 
L 446.930215 -57.298775 
L 444.861167 -57.460847 
L 442.782821 -57.622919 
L 440.806987 -57.784992 
L 439.044333 -57.947064 
L 437.598119 -58.109137 
L 436.558231 -58.271209 
L 435.995974 -58.433282 
L 435.96 -58.595354 
L 436.473717 -58.757427 
L 437.534379 -58.919499 
L 439.113931 -59.081571 
L 441.161503 -59.243644 
L 443.607335 -59.405716 
L 446.367754 -59.567789 
L 449.350765 -59.729861 
L 452.461784 -59.891934 
L 455.609047 -60.054006 
L 458.708308 -60.216078 
L 461.686527 -60.378151 
L 464.484383 -60.540223 
L 467.057559 -60.702296 
L 469.376874 -60.864368 
L 471.427419 -61.026441 
L 473.206924 -61.188513 
L 474.723608 -61.350585 
L 486.476392 -61.350585 
L 486.476392 -61.350585 
L 487.993076 -61.188513 
L 489.772581 -61.026441 
L 491.823126 -60.864368 
L 494.142441 -60.702296 
L 496.715617 -60.540223 
L 499.513473 -60.378151 
L 502.491692 -60.216078 
L 505.590953 -60.054006 
L 508.738216 -59.891934 
L 511.849235 -59.729861 
L 514.832246 -59.567789 
L 517.592665 -59.405716 
L 520.038497 -59.243644 
L 522.086069 -59.081571 
L 523.665621 -58.919499 
L 524.726283 -58.757427 
L 525.24 -58.595354 
L 525.204026 -58.433282 
L 524.641769 -58.271209 
L 523.601881 -58.109137 
L 522.155667 -57.947064 
L 520.393013 -57.784992 
L 518.417179 -57.622919 
L 516.338833 -57.460847 
L 514.269785 -57.298775 
L 512.316829 -57.136702 
L 510.576077 -56.97463 
L 509.128085 -56.812557 
L 508.033991 -56.650485 
L 507.332817 -56.488412 
L 507.039985 -56.32634 
L 507.147067 -56.164268 
L 507.622738 -56.002195 
L 508.414842 -55.840123 
L 509.453491 -55.67805 
L 510.65503 -55.515978 
L 511.92672 -55.353905 
L 513.171897 -55.191833 
L 514.295347 -55.029761 
L 515.208601 -54.867688 
L 515.834818 -54.705616 
L 516.112945 -54.543543 
L 516.000848 -54.381471 
L 515.477212 -54.219398 
L 514.542065 -54.057326 
L 513.215899 -53.895254 
L 511.537505 -53.733181 
L 509.560706 -53.571109 
L 507.350313 -53.409036 
L 504.97763 -53.246964 
L 502.515912 -53.084891 
L 500.036113 -52.922819 
L 497.60324 -52.760746 
L 495.273516 -52.598674 
L 493.092498 -52.436602 
L 491.094147 -52.274529 
L 489.300818 -52.112457 
L 487.724001 -51.950384 
L 486.365661 -51.788312 
L 485.219936 -51.626239 
L 484.275027 -51.464167 
L 483.515058 -51.302095 
L 482.921795 -51.140022 
L 482.476085 -50.97795 
L 482.158986 -50.815877 
L 481.952541 -50.653805 
L 481.84024 -50.491732 
L 481.807187 -50.32966 
L 481.84005 -50.167588 
L 481.92686 -50.005515 
L 482.056715 -49.843443 
L 482.219477 -49.68137 
L 482.405498 -49.519298 
L 482.60542 -49.357225 
L 482.810086 -49.195153 
L 483.010556 -49.033081 
L 483.198236 -48.871008 
L 483.365091 -48.708936 
L 483.503925 -48.546863 
L 483.608678 -48.384791 
L 483.674711 -48.222718 
L 483.69904 -48.060646 
L 483.680483 -47.898573 
L 483.619703 -47.736501 
L 483.519139 -47.574429 
L 483.382825 -47.412356 
L 483.216099 -47.250284 
L 483.02526 -47.088211 
L 482.817161 -46.926139 
L 482.598805 -46.764066 
L 482.376959 -46.601994 
L 482.157823 -46.439922 
L 481.946767 -46.277849 
L 481.748154 -46.115777 
L 481.565254 -45.953704 
L 481.400233 -45.791632 
L 481.254221 -45.629559 
L 481.127432 -45.467487 
L 481.019316 -45.305415 
z
" style="stroke: #3d3d3d; stroke-width: 1.25"/>
    </defs>
    <g clip-path="url(#p741d7dcfe4)">
     <use xlink:href="#mcbf170b59e" x="0" y="360" style="fill: #c03d3e; stroke: #3d3d3d; stroke-width: 1.25"/>
    </g>
   </g>
   <g id="patch_3">
    <path d="M 212.76 320.4 
L 257.4 320.4 
L 257.4 200.016 
L 212.76 200.016 
z
" clip-path="url(#p741d7dcfe4)" style="fill: #3274a1"/>
   </g>
   <g id="patch_4">
    <path d="M 547.56 320.4 
L 592.2 320.4 
L 592.2 187.344 
L 547.56 187.344 
z
" clip-path="url(#p741d7dcfe4)" style="fill: #3274a1"/>
   </g>
   <g id="patch_5">
    <path d="M 257.4 320.4 
L 302.04 320.4 
L 302.04 257.04 
L 257.4 257.04 
z
" clip-path="url(#p741d7dcfe4)" style="fill: #e1812c"/>
   </g>
   <g id="patch_6">
    <path d="M 592.2 320.4 
L 636.84 320.4 
L 636.84 189.456 
L 592.2 189.456 
z
" clip-path="url(#p741d7dcfe4)" style="fill: #e1812c"/>
   </g>
   <g id="patch_7">
    <path d="M 145.8 320.4 
L 145.8 320.4 
L 145.8 320.4 
L 145.8 320.4 
z
" clip-path="url(#p741d7dcfe4)" style="fill: #3274a1"/>
   </g>
   <g id="patch_8">
    <path d="M 145.8 320.4 
L 145.8 320.4 
L 145.8 320.4 
L 145.8 320.4 
z
" clip-path="url(#p741d7dcfe4)" style="fill: #e1812c"/>
   </g>
   <g id="patch_9">
    <path d="M 212.76 320.4 
L 257.4 320.4 
L 257.4 303.504 
L 212.76 303.504 
z
" clip-path="url(#p741d7dcfe4)" style="fill: #3274a1"/>
   </g>
   <g id="patch_10">
    <path d="M 547.56 320.4 
L 592.2 320.4 
L 592.2 295.056 
L 547.56 295.056 
z
" clip-path="url(#p741d7dcfe4)" style="fill: #3274a1"/>
   </g>
   <g id="patch_11">
    <path d="M 257.4 320.4 
L 302.04 320.4 
L 302.04 153.552 
L 257.4 153.552 
z
" clip-path="url(#p741d7dcfe4)" style="fill: #e1812c"/>
   </g>
   <g id="patch_12">
    <path d="M 592.2 320.4 
L 636.84 320.4 
L 636.84 81.744 
L 592.2 81.744 
z
" clip-path="url(#p741d7dcfe4)" style="fill: #e1812c"/>
   </g>
   <g id="patch_13">
    <path d="M 145.8 320.4 
L 145.8 320.4 
L 145.8 320.4 
L 145.8 320.4 
z
" clip-path="url(#p741d7dcfe4)" style="fill: #3274a1"/>
   </g>
   <g id="patch_14">
    <path d="M 145.8 320.4 
L 145.8 320.4 
L 145.8 320.4 
L 145.8 320.4 
z
" clip-path="url(#p741d7dcfe4)" style="fill: #e1812c"/>
   </g>
   <g id="patch_15">
    <path d="M 212.76 320.4 
L 257.4 320.4 
L 257.4 240.144 
L 212.76 240.144 
z
" clip-path="url(#p741d7dcfe4)" style="fill: #3274a1"/>
   </g>
   <g id="patch_16">
    <path d="M 547.56 320.4 
L 592.2 320.4 
L 592.2 197.904 
L 547.56 197.904 
z
" clip-path="url(#p741d7dcfe4)" style="fill: #3274a1"/>
   </g>
   <g id="patch_17">
    <path d="M 257.4 320.4 
L 302.04 320.4 
L 302.04 216.912 
L 257.4 216.912 
z
" clip-path="url(#p741d7dcfe4)" style="fill: #e1812c"/>
   </g>
   <g id="patch_18">
    <path d="M 592.2 320.4 
L 636.84 320.4 
L 636.84 178.896 
L 592.2 178.896 
z
" clip-path="url(#p741d7dcfe4)" style="fill: #e1812c"/>
   </g>
   <g id="patch_19">
    <path d="M 145.8 320.4 
L 145.8 320.4 
L 145.8 320.4 
L 145.8 320.4 
z
" clip-path="url(#p741d7dcfe4)" style="fill: #3274a1"/>
   </g>
   <g id="patch_20">
    <path d="M 145.8 320.4 
L 145.8 320.4 
L 145.8 320.4 
L 145.8 320.4 
z
" clip-path="url(#p741d7dcfe4)" style="fill: #e1812c"/>
   </g>
   <g id="patch_21">
    <path d="M 212.76 320.4 
L 302.04 320.4 
L 302.04 136.656 
L 212.76 136.656 
z
" clip-path="url(#p741d7dcfe4)" style="fill: #3274a1"/>
   </g>
   <g id="patch_22">
    <path d="M 547.56 320.4 
L 636.84 320.4 
L 636.84 56.4 
L 547.56 56.4 
z
" clip-path="url(#p741d7dcfe4)" style="fill: #3274a1"/>
   </g>
   <g id="patch_23">
    <path d="M 145.8 320.4 
L 145.8 320.4 
L 145.8 320.4 
L 145.8 320.4 
z
" clip-path="url(#p741d7dcfe4)" style="fill: #3274a1"/>
   </g>
   <g id="matplotlib.axis_1">
    <g id="xtick_1">
     <g id="line2d_1">
      <defs>
       <path id="me6e1fc7e34" d="M 0 0 
L 0 3.5 
" style="stroke: #000000; stroke-width: 0.8"/>
      </defs>
      <g>
       <use xlink:href="#me6e1fc7e34" x="145.8" y="320.4" style="stroke: #000000; stroke-width: 0.8"/>
      </g>
     </g>
     <g id="text_1">
      <!-- Spurious -->
      <g transform="translate(124.005469 334.998438) scale(0.1 -0.1)">
       <defs>
        <path id="DejaVuSans-53" d="M 3425 4513 
L 3425 3897 
Q 3066 4069 2747 4153 
Q 2428 4238 2131 4238 
Q 1616 4238 1336 4038 
Q 1056 3838 1056 3469 
Q 1056 3159 1242 3001 
Q 1428 2844 1947 2747 
L 2328 2669 
Q 3034 2534 3370 2195 
Q 3706 1856 3706 1288 
Q 3706 609 3251 259 
Q 2797 -91 1919 -91 
Q 1588 -91 1214 -16 
Q 841 59 441 206 
L 441 856 
Q 825 641 1194 531 
Q 1563 422 1919 422 
Q 2459 422 2753 634 
Q 3047 847 3047 1241 
Q 3047 1584 2836 1778 
Q 2625 1972 2144 2069 
L 1759 2144 
Q 1053 2284 737 2584 
Q 422 2884 422 3419 
Q 422 4038 858 4394 
Q 1294 4750 2059 4750 
Q 2388 4750 2728 4690 
Q 3069 4631 3425 4513 
z
" transform="scale(0.015625)"/>
        <path id="DejaVuSans-70" d="M 1159 525 
L 1159 -1331 
L 581 -1331 
L 581 3500 
L 1159 3500 
L 1159 2969 
Q 1341 3281 1617 3432 
Q 1894 3584 2278 3584 
Q 2916 3584 3314 3078 
Q 3713 2572 3713 1747 
Q 3713 922 3314 415 
Q 2916 -91 2278 -91 
Q 1894 -91 1617 61 
Q 1341 213 1159 525 
z
M 3116 1747 
Q 3116 2381 2855 2742 
Q 2594 3103 2138 3103 
Q 1681 3103 1420 2742 
Q 1159 2381 1159 1747 
Q 1159 1113 1420 752 
Q 1681 391 2138 391 
Q 2594 391 2855 752 
Q 3116 1113 3116 1747 
z
" transform="scale(0.015625)"/>
        <path id="DejaVuSans-75" d="M 544 1381 
L 544 3500 
L 1119 3500 
L 1119 1403 
Q 1119 906 1312 657 
Q 1506 409 1894 409 
Q 2359 409 2629 706 
Q 2900 1003 2900 1516 
L 2900 3500 
L 3475 3500 
L 3475 0 
L 2900 0 
L 2900 538 
Q 2691 219 2414 64 
Q 2138 -91 1772 -91 
Q 1169 -91 856 284 
Q 544 659 544 1381 
z
M 1991 3584 
L 1991 3584 
z
" transform="scale(0.015625)"/>
        <path id="DejaVuSans-72" d="M 2631 2963 
Q 2534 3019 2420 3045 
Q 2306 3072 2169 3072 
Q 1681 3072 1420 2755 
Q 1159 2438 1159 1844 
L 1159 0 
L 581 0 
L 581 3500 
L 1159 3500 
L 1159 2956 
Q 1341 3275 1631 3429 
Q 1922 3584 2338 3584 
Q 2397 3584 2469 3576 
Q 2541 3569 2628 3553 
L 2631 2963 
z
" transform="scale(0.015625)"/>
        <path id="DejaVuSans-69" d="M 603 3500 
L 1178 3500 
L 1178 0 
L 603 0 
L 603 3500 
z
M 603 4863 
L 1178 4863 
L 1178 4134 
L 603 4134 
L 603 4863 
z
" transform="scale(0.015625)"/>
        <path id="DejaVuSans-6f" d="M 1959 3097 
Q 1497 3097 1228 2736 
Q 959 2375 959 1747 
Q 959 1119 1226 758 
Q 1494 397 1959 397 
Q 2419 397 2687 759 
Q 2956 1122 2956 1747 
Q 2956 2369 2687 2733 
Q 2419 3097 1959 3097 
z
M 1959 3584 
Q 2709 3584 3137 3096 
Q 3566 2609 3566 1747 
Q 3566 888 3137 398 
Q 2709 -91 1959 -91 
Q 1206 -91 779 398 
Q 353 888 353 1747 
Q 353 2609 779 3096 
Q 1206 3584 1959 3584 
z
" transform="scale(0.015625)"/>
        <path id="DejaVuSans-73" d="M 2834 3397 
L 2834 2853 
Q 2591 2978 2328 3040 
Q 2066 3103 1784 3103 
Q 1356 3103 1142 2972 
Q 928 2841 928 2578 
Q 928 2378 1081 2264 
Q 1234 2150 1697 2047 
L 1894 2003 
Q 2506 1872 2764 1633 
Q 3022 1394 3022 966 
Q 3022 478 2636 193 
Q 2250 -91 1575 -91 
Q 1294 -91 989 -36 
Q 684 19 347 128 
L 347 722 
Q 666 556 975 473 
Q 1284 391 1588 391 
Q 1994 391 2212 530 
Q 2431 669 2431 922 
Q 2431 1156 2273 1281 
Q 2116 1406 1581 1522 
L 1381 1569 
Q 847 1681 609 1914 
Q 372 2147 372 2553 
Q 372 3047 722 3315 
Q 1072 3584 1716 3584 
Q 2034 3584 2315 3537 
Q 2597 3491 2834 3397 
z
" transform="scale(0.015625)"/>
       </defs>
       <use xlink:href="#DejaVuSans-53"/>
       <use xlink:href="#DejaVuSans-70" transform="translate(63.476562 0)"/>
       <use xlink:href="#DejaVuSans-75" transform="translate(126.953125 0)"/>
       <use xlink:href="#DejaVuSans-72" transform="translate(190.332031 0)"/>
       <use xlink:href="#DejaVuSans-69" transform="translate(231.445312 0)"/>
       <use xlink:href="#DejaVuSans-6f" transform="translate(259.228516 0)"/>
       <use xlink:href="#DejaVuSans-75" transform="translate(320.410156 0)"/>
       <use xlink:href="#DejaVuSans-73" transform="translate(383.789062 0)"/>
      </g>
     </g>
    </g>
    <g id="xtick_2">
     <g id="line2d_2">
      <g>
       <use xlink:href="#me6e1fc7e34" x="257.4" y="320.4" style="stroke: #000000; stroke-width: 0.8"/>
      </g>
     </g>
     <g id="text_2">
      <!-- Specific -->
      <g transform="translate(237.938281 334.998438) scale(0.1 -0.1)">
       <defs>
        <path id="DejaVuSans-65" d="M 3597 1894 
L 3597 1613 
L 953 1613 
Q 991 1019 1311 708 
Q 1631 397 2203 397 
Q 2534 397 2845 478 
Q 3156 559 3463 722 
L 3463 178 
Q 3153 47 2828 -22 
Q 2503 -91 2169 -91 
Q 1331 -91 842 396 
Q 353 884 353 1716 
Q 353 2575 817 3079 
Q 1281 3584 2069 3584 
Q 2775 3584 3186 3129 
Q 3597 2675 3597 1894 
z
M 3022 2063 
Q 3016 2534 2758 2815 
Q 2500 3097 2075 3097 
Q 1594 3097 1305 2825 
Q 1016 2553 972 2059 
L 3022 2063 
z
" transform="scale(0.015625)"/>
        <path id="DejaVuSans-63" d="M 3122 3366 
L 3122 2828 
Q 2878 2963 2633 3030 
Q 2388 3097 2138 3097 
Q 1578 3097 1268 2742 
Q 959 2388 959 1747 
Q 959 1106 1268 751 
Q 1578 397 2138 397 
Q 2388 397 2633 464 
Q 2878 531 3122 666 
L 3122 134 
Q 2881 22 2623 -34 
Q 2366 -91 2075 -91 
Q 1284 -91 818 406 
Q 353 903 353 1747 
Q 353 2603 823 3093 
Q 1294 3584 2113 3584 
Q 2378 3584 2631 3529 
Q 2884 3475 3122 3366 
z
" transform="scale(0.015625)"/>
        <path id="DejaVuSans-66" d="M 2375 4863 
L 2375 4384 
L 1825 4384 
Q 1516 4384 1395 4259 
Q 1275 4134 1275 3809 
L 1275 3500 
L 2222 3500 
L 2222 3053 
L 1275 3053 
L 1275 0 
L 697 0 
L 697 3053 
L 147 3053 
L 147 3500 
L 697 3500 
L 697 3744 
Q 697 4328 969 4595 
Q 1241 4863 1831 4863 
L 2375 4863 
z
" transform="scale(0.015625)"/>
       </defs>
       <use xlink:href="#DejaVuSans-53"/>
       <use xlink:href="#DejaVuSans-70" transform="translate(63.476562 0)"/>
       <use xlink:href="#DejaVuSans-65" transform="translate(126.953125 0)"/>
       <use xlink:href="#DejaVuSans-63" transform="translate(188.476562 0)"/>
       <use xlink:href="#DejaVuSans-69" transform="translate(243.457031 0)"/>
       <use xlink:href="#DejaVuSans-66" transform="translate(271.240234 0)"/>
       <use xlink:href="#DejaVuSans-69" transform="translate(306.445312 0)"/>
       <use xlink:href="#DejaVuSans-63" transform="translate(334.228516 0)"/>
      </g>
     </g>
    </g>
    <g id="xtick_3">
     <g id="line2d_3">
      <g>
       <use xlink:href="#me6e1fc7e34" x="369" y="320.4" style="stroke: #000000; stroke-width: 0.8"/>
      </g>
     </g>
     <g id="text_3">
      <!-- Non-specific -->
      <g transform="translate(338.335156 334.998438) scale(0.1 -0.1)">
       <defs>
        <path id="DejaVuSans-4e" d="M 628 4666 
L 1478 4666 
L 3547 763 
L 3547 4666 
L 4159 4666 
L 4159 0 
L 3309 0 
L 1241 3903 
L 1241 0 
L 628 0 
L 628 4666 
z
" transform="scale(0.015625)"/>
        <path id="DejaVuSans-6e" d="M 3513 2113 
L 3513 0 
L 2938 0 
L 2938 2094 
Q 2938 2591 2744 2837 
Q 2550 3084 2163 3084 
Q 1697 3084 1428 2787 
Q 1159 2491 1159 1978 
L 1159 0 
L 581 0 
L 581 3500 
L 1159 3500 
L 1159 2956 
Q 1366 3272 1645 3428 
Q 1925 3584 2291 3584 
Q 2894 3584 3203 3211 
Q 3513 2838 3513 2113 
z
" transform="scale(0.015625)"/>
        <path id="DejaVuSans-2d" d="M 313 2009 
L 1997 2009 
L 1997 1497 
L 313 1497 
L 313 2009 
z
" transform="scale(0.015625)"/>
       </defs>
       <use xlink:href="#DejaVuSans-4e"/>
       <use xlink:href="#DejaVuSans-6f" transform="translate(74.804688 0)"/>
       <use xlink:href="#DejaVuSans-6e" transform="translate(135.986328 0)"/>
       <use xlink:href="#DejaVuSans-2d" transform="translate(199.365234 0)"/>
       <use xlink:href="#DejaVuSans-73" transform="translate(235.449219 0)"/>
       <use xlink:href="#DejaVuSans-70" transform="translate(287.548828 0)"/>
       <use xlink:href="#DejaVuSans-65" transform="translate(351.025391 0)"/>
       <use xlink:href="#DejaVuSans-63" transform="translate(412.548828 0)"/>
       <use xlink:href="#DejaVuSans-69" transform="translate(467.529297 0)"/>
       <use xlink:href="#DejaVuSans-66" transform="translate(495.3125 0)"/>
       <use xlink:href="#DejaVuSans-69" transform="translate(530.517578 0)"/>
       <use xlink:href="#DejaVuSans-63" transform="translate(558.300781 0)"/>
      </g>
     </g>
    </g>
    <g id="xtick_4">
     <g id="line2d_4">
      <g>
       <use xlink:href="#me6e1fc7e34" x="480.6" y="320.4" style="stroke: #000000; stroke-width: 0.8"/>
      </g>
     </g>
     <g id="text_4">
      <!-- No -->
      <g transform="translate(473.8 334.998438) scale(0.1 -0.1)">
       <use xlink:href="#DejaVuSans-4e"/>
       <use xlink:href="#DejaVuSans-6f" transform="translate(74.804688 0)"/>
      </g>
     </g>
    </g>
    <g id="xtick_5">
     <g id="line2d_5">
      <g>
       <use xlink:href="#me6e1fc7e34" x="592.2" y="320.4" style="stroke: #000000; stroke-width: 0.8"/>
      </g>
     </g>
     <g id="text_5">
      <!-- other -->
      <g transform="translate(578.879688 334.998438) scale(0.1 -0.1)">
       <defs>
        <path id="DejaVuSans-74" d="M 1172 4494 
L 1172 3500 
L 2356 3500 
L 2356 3053 
L 1172 3053 
L 1172 1153 
Q 1172 725 1289 603 
Q 1406 481 1766 481 
L 2356 481 
L 2356 0 
L 1766 0 
Q 1100 0 847 248 
Q 594 497 594 1153 
L 594 3053 
L 172 3053 
L 172 3500 
L 594 3500 
L 594 4494 
L 1172 4494 
z
" transform="scale(0.015625)"/>
        <path id="DejaVuSans-68" d="M 3513 2113 
L 3513 0 
L 2938 0 
L 2938 2094 
Q 2938 2591 2744 2837 
Q 2550 3084 2163 3084 
Q 1697 3084 1428 2787 
Q 1159 2491 1159 1978 
L 1159 0 
L 581 0 
L 581 4863 
L 1159 4863 
L 1159 2956 
Q 1366 3272 1645 3428 
Q 1925 3584 2291 3584 
Q 2894 3584 3203 3211 
Q 3513 2838 3513 2113 
z
" transform="scale(0.015625)"/>
       </defs>
       <use xlink:href="#DejaVuSans-6f"/>
       <use xlink:href="#DejaVuSans-74" transform="translate(61.181641 0)"/>
       <use xlink:href="#DejaVuSans-68" transform="translate(100.390625 0)"/>
       <use xlink:href="#DejaVuSans-65" transform="translate(163.769531 0)"/>
       <use xlink:href="#DejaVuSans-72" transform="translate(225.292969 0)"/>
      </g>
     </g>
    </g>
    <g id="text_6">
     <!-- Connectivity category -->
     <g transform="translate(313.98125 348.676562) scale(0.1 -0.1)">
      <defs>
       <path id="DejaVuSans-43" d="M 4122 4306 
L 4122 3641 
Q 3803 3938 3442 4084 
Q 3081 4231 2675 4231 
Q 1875 4231 1450 3742 
Q 1025 3253 1025 2328 
Q 1025 1406 1450 917 
Q 1875 428 2675 428 
Q 3081 428 3442 575 
Q 3803 722 4122 1019 
L 4122 359 
Q 3791 134 3420 21 
Q 3050 -91 2638 -91 
Q 1578 -91 968 557 
Q 359 1206 359 2328 
Q 359 3453 968 4101 
Q 1578 4750 2638 4750 
Q 3056 4750 3426 4639 
Q 3797 4528 4122 4306 
z
" transform="scale(0.015625)"/>
       <path id="DejaVuSans-76" d="M 191 3500 
L 800 3500 
L 1894 563 
L 2988 3500 
L 3597 3500 
L 2284 0 
L 1503 0 
L 191 3500 
z
" transform="scale(0.015625)"/>
       <path id="DejaVuSans-79" d="M 2059 -325 
Q 1816 -950 1584 -1140 
Q 1353 -1331 966 -1331 
L 506 -1331 
L 506 -850 
L 844 -850 
Q 1081 -850 1212 -737 
Q 1344 -625 1503 -206 
L 1606 56 
L 191 3500 
L 800 3500 
L 1894 763 
L 2988 3500 
L 3597 3500 
L 2059 -325 
z
" transform="scale(0.015625)"/>
       <path id="DejaVuSans-20" transform="scale(0.015625)"/>
       <path id="DejaVuSans-61" d="M 2194 1759 
Q 1497 1759 1228 1600 
Q 959 1441 959 1056 
Q 959 750 1161 570 
Q 1363 391 1709 391 
Q 2188 391 2477 730 
Q 2766 1069 2766 1631 
L 2766 1759 
L 2194 1759 
z
M 3341 1997 
L 3341 0 
L 2766 0 
L 2766 531 
Q 2569 213 2275 61 
Q 1981 -91 1556 -91 
Q 1019 -91 701 211 
Q 384 513 384 1019 
Q 384 1609 779 1909 
Q 1175 2209 1959 2209 
L 2766 2209 
L 2766 2266 
Q 2766 2663 2505 2880 
Q 2244 3097 1772 3097 
Q 1472 3097 1187 3025 
Q 903 2953 641 2809 
L 641 3341 
Q 956 3463 1253 3523 
Q 1550 3584 1831 3584 
Q 2591 3584 2966 3190 
Q 3341 2797 3341 1997 
z
" transform="scale(0.015625)"/>
       <path id="DejaVuSans-67" d="M 2906 1791 
Q 2906 2416 2648 2759 
Q 2391 3103 1925 3103 
Q 1463 3103 1205 2759 
Q 947 2416 947 1791 
Q 947 1169 1205 825 
Q 1463 481 1925 481 
Q 2391 481 2648 825 
Q 2906 1169 2906 1791 
z
M 3481 434 
Q 3481 -459 3084 -895 
Q 2688 -1331 1869 -1331 
Q 1566 -1331 1297 -1286 
Q 1028 -1241 775 -1147 
L 775 -588 
Q 1028 -725 1275 -790 
Q 1522 -856 1778 -856 
Q 2344 -856 2625 -561 
Q 2906 -266 2906 331 
L 2906 616 
Q 2728 306 2450 153 
Q 2172 0 1784 0 
Q 1141 0 747 490 
Q 353 981 353 1791 
Q 353 2603 747 3093 
Q 1141 3584 1784 3584 
Q 2172 3584 2450 3431 
Q 2728 3278 2906 2969 
L 2906 3500 
L 3481 3500 
L 3481 434 
z
" transform="scale(0.015625)"/>
      </defs>
      <use xlink:href="#DejaVuSans-43"/>
      <use xlink:href="#DejaVuSans-6f" transform="translate(69.824219 0)"/>
      <use xlink:href="#DejaVuSans-6e" transform="translate(131.005859 0)"/>
      <use xlink:href="#DejaVuSans-6e" transform="translate(194.384766 0)"/>
      <use xlink:href="#DejaVuSans-65" transform="translate(257.763672 0)"/>
      <use xlink:href="#DejaVuSans-63" transform="translate(319.287109 0)"/>
      <use xlink:href="#DejaVuSans-74" transform="translate(374.267578 0)"/>
      <use xlink:href="#DejaVuSans-69" transform="translate(413.476562 0)"/>
      <use xlink:href="#DejaVuSans-76" transform="translate(441.259766 0)"/>
      <use xlink:href="#DejaVuSans-69" transform="translate(500.439453 0)"/>
      <use xlink:href="#DejaVuSans-74" transform="translate(528.222656 0)"/>
      <use xlink:href="#DejaVuSans-79" transform="translate(567.431641 0)"/>
      <use xlink:href="#DejaVuSans-20" transform="translate(626.611328 0)"/>
      <use xlink:href="#DejaVuSans-63" transform="translate(658.398438 0)"/>
      <use xlink:href="#DejaVuSans-61" transform="translate(713.378906 0)"/>
      <use xlink:href="#DejaVuSans-74" transform="translate(774.658203 0)"/>
      <use xlink:href="#DejaVuSans-65" transform="translate(813.867188 0)"/>
      <use xlink:href="#DejaVuSans-67" transform="translate(875.390625 0)"/>
      <use xlink:href="#DejaVuSans-6f" transform="translate(938.867188 0)"/>
      <use xlink:href="#DejaVuSans-72" transform="translate(1000.048828 0)"/>
      <use xlink:href="#DejaVuSans-79" transform="translate(1041.162109 0)"/>
     </g>
    </g>
   </g>
   <g id="matplotlib.axis_2">
    <g id="ytick_1">
     <g id="line2d_6">
      <defs>
       <path id="mea6421484b" d="M 0 0 
L -3.5 0 
" style="stroke: #000000; stroke-width: 0.8"/>
      </defs>
      <g>
       <use xlink:href="#mea6421484b" x="90" y="320.4" style="stroke: #000000; stroke-width: 0.8"/>
      </g>
     </g>
     <g id="text_7">
      <!-- 0 -->
      <g transform="translate(76.6375 324.199219) scale(0.1 -0.1)">
       <defs>
        <path id="DejaVuSans-30" d="M 2034 4250 
Q 1547 4250 1301 3770 
Q 1056 3291 1056 2328 
Q 1056 1369 1301 889 
Q 1547 409 2034 409 
Q 2525 409 2770 889 
Q 3016 1369 3016 2328 
Q 3016 3291 2770 3770 
Q 2525 4250 2034 4250 
z
M 2034 4750 
Q 2819 4750 3233 4129 
Q 3647 3509 3647 2328 
Q 3647 1150 3233 529 
Q 2819 -91 2034 -91 
Q 1250 -91 836 529 
Q 422 1150 422 2328 
Q 422 3509 836 4129 
Q 1250 4750 2034 4750 
z
" transform="scale(0.015625)"/>
       </defs>
       <use xlink:href="#DejaVuSans-30"/>
      </g>
     </g>
    </g>
    <g id="ytick_2">
     <g id="line2d_7">
      <g>
       <use xlink:href="#mea6421484b" x="90" y="278.16" style="stroke: #000000; stroke-width: 0.8"/>
      </g>
     </g>
     <g id="text_8">
      <!-- 20 -->
      <g transform="translate(70.275 281.959219) scale(0.1 -0.1)">
       <defs>
        <path id="DejaVuSans-32" d="M 1228 531 
L 3431 531 
L 3431 0 
L 469 0 
L 469 531 
Q 828 903 1448 1529 
Q 2069 2156 2228 2338 
Q 2531 2678 2651 2914 
Q 2772 3150 2772 3378 
Q 2772 3750 2511 3984 
Q 2250 4219 1831 4219 
Q 1534 4219 1204 4116 
Q 875 4013 500 3803 
L 500 4441 
Q 881 4594 1212 4672 
Q 1544 4750 1819 4750 
Q 2544 4750 2975 4387 
Q 3406 4025 3406 3419 
Q 3406 3131 3298 2873 
Q 3191 2616 2906 2266 
Q 2828 2175 2409 1742 
Q 1991 1309 1228 531 
z
" transform="scale(0.015625)"/>
       </defs>
       <use xlink:href="#DejaVuSans-32"/>
       <use xlink:href="#DejaVuSans-30" transform="translate(63.623047 0)"/>
      </g>
     </g>
    </g>
    <g id="ytick_3">
     <g id="line2d_8">
      <g>
       <use xlink:href="#mea6421484b" x="90" y="235.92" style="stroke: #000000; stroke-width: 0.8"/>
      </g>
     </g>
     <g id="text_9">
      <!-- 40 -->
      <g transform="translate(70.275 239.719219) scale(0.1 -0.1)">
       <defs>
        <path id="DejaVuSans-34" d="M 2419 4116 
L 825 1625 
L 2419 1625 
L 2419 4116 
z
M 2253 4666 
L 3047 4666 
L 3047 1625 
L 3713 1625 
L 3713 1100 
L 3047 1100 
L 3047 0 
L 2419 0 
L 2419 1100 
L 313 1100 
L 313 1709 
L 2253 4666 
z
" transform="scale(0.015625)"/>
       </defs>
       <use xlink:href="#DejaVuSans-34"/>
       <use xlink:href="#DejaVuSans-30" transform="translate(63.623047 0)"/>
      </g>
     </g>
    </g>
    <g id="ytick_4">
     <g id="line2d_9">
      <g>
       <use xlink:href="#mea6421484b" x="90" y="193.68" style="stroke: #000000; stroke-width: 0.8"/>
      </g>
     </g>
     <g id="text_10">
      <!-- 60 -->
      <g transform="translate(70.275 197.479219) scale(0.1 -0.1)">
       <defs>
        <path id="DejaVuSans-36" d="M 2113 2584 
Q 1688 2584 1439 2293 
Q 1191 2003 1191 1497 
Q 1191 994 1439 701 
Q 1688 409 2113 409 
Q 2538 409 2786 701 
Q 3034 994 3034 1497 
Q 3034 2003 2786 2293 
Q 2538 2584 2113 2584 
z
M 3366 4563 
L 3366 3988 
Q 3128 4100 2886 4159 
Q 2644 4219 2406 4219 
Q 1781 4219 1451 3797 
Q 1122 3375 1075 2522 
Q 1259 2794 1537 2939 
Q 1816 3084 2150 3084 
Q 2853 3084 3261 2657 
Q 3669 2231 3669 1497 
Q 3669 778 3244 343 
Q 2819 -91 2113 -91 
Q 1303 -91 875 529 
Q 447 1150 447 2328 
Q 447 3434 972 4092 
Q 1497 4750 2381 4750 
Q 2619 4750 2861 4703 
Q 3103 4656 3366 4563 
z
" transform="scale(0.015625)"/>
       </defs>
       <use xlink:href="#DejaVuSans-36"/>
       <use xlink:href="#DejaVuSans-30" transform="translate(63.623047 0)"/>
      </g>
     </g>
    </g>
    <g id="ytick_5">
     <g id="line2d_10">
      <g>
       <use xlink:href="#mea6421484b" x="90" y="151.44" style="stroke: #000000; stroke-width: 0.8"/>
      </g>
     </g>
     <g id="text_11">
      <!-- 80 -->
      <g transform="translate(70.275 155.239219) scale(0.1 -0.1)">
       <defs>
        <path id="DejaVuSans-38" d="M 2034 2216 
Q 1584 2216 1326 1975 
Q 1069 1734 1069 1313 
Q 1069 891 1326 650 
Q 1584 409 2034 409 
Q 2484 409 2743 651 
Q 3003 894 3003 1313 
Q 3003 1734 2745 1975 
Q 2488 2216 2034 2216 
z
M 1403 2484 
Q 997 2584 770 2862 
Q 544 3141 544 3541 
Q 544 4100 942 4425 
Q 1341 4750 2034 4750 
Q 2731 4750 3128 4425 
Q 3525 4100 3525 3541 
Q 3525 3141 3298 2862 
Q 3072 2584 2669 2484 
Q 3125 2378 3379 2068 
Q 3634 1759 3634 1313 
Q 3634 634 3220 271 
Q 2806 -91 2034 -91 
Q 1263 -91 848 271 
Q 434 634 434 1313 
Q 434 1759 690 2068 
Q 947 2378 1403 2484 
z
M 1172 3481 
Q 1172 3119 1398 2916 
Q 1625 2713 2034 2713 
Q 2441 2713 2670 2916 
Q 2900 3119 2900 3481 
Q 2900 3844 2670 4047 
Q 2441 4250 2034 4250 
Q 1625 4250 1398 4047 
Q 1172 3844 1172 3481 
z
" transform="scale(0.015625)"/>
       </defs>
       <use xlink:href="#DejaVuSans-38"/>
       <use xlink:href="#DejaVuSans-30" transform="translate(63.623047 0)"/>
      </g>
     </g>
    </g>
    <g id="ytick_6">
     <g id="line2d_11">
      <g>
       <use xlink:href="#mea6421484b" x="90" y="109.2" style="stroke: #000000; stroke-width: 0.8"/>
      </g>
     </g>
     <g id="text_12">
      <!-- 100 -->
      <g transform="translate(63.9125 112.999219) scale(0.1 -0.1)">
       <defs>
        <path id="DejaVuSans-31" d="M 794 531 
L 1825 531 
L 1825 4091 
L 703 3866 
L 703 4441 
L 1819 4666 
L 2450 4666 
L 2450 531 
L 3481 531 
L 3481 0 
L 794 0 
L 794 531 
z
" transform="scale(0.015625)"/>
       </defs>
       <use xlink:href="#DejaVuSans-31"/>
       <use xlink:href="#DejaVuSans-30" transform="translate(63.623047 0)"/>
       <use xlink:href="#DejaVuSans-30" transform="translate(127.246094 0)"/>
      </g>
     </g>
    </g>
    <g id="ytick_7">
     <g id="line2d_12">
      <g>
       <use xlink:href="#mea6421484b" x="90" y="66.96" style="stroke: #000000; stroke-width: 0.8"/>
      </g>
     </g>
     <g id="text_13">
      <!-- 120 -->
      <g transform="translate(63.9125 70.759219) scale(0.1 -0.1)">
       <use xlink:href="#DejaVuSans-31"/>
       <use xlink:href="#DejaVuSans-32" transform="translate(63.623047 0)"/>
       <use xlink:href="#DejaVuSans-30" transform="translate(127.246094 0)"/>
      </g>
     </g>
    </g>
    <g id="text_14">
     <!-- cont_variable -->
     <g transform="translate(57.554687 215.409375) rotate(-90) scale(0.1 -0.1)">
      <defs>
       <path id="DejaVuSans-5f" d="M 3263 -1063 
L 3263 -1509 
L -63 -1509 
L -63 -1063 
L 3263 -1063 
z
" transform="scale(0.015625)"/>
       <path id="DejaVuSans-62" d="M 3116 1747 
Q 3116 2381 2855 2742 
Q 2594 3103 2138 3103 
Q 1681 3103 1420 2742 
Q 1159 2381 1159 1747 
Q 1159 1113 1420 752 
Q 1681 391 2138 391 
Q 2594 391 2855 752 
Q 3116 1113 3116 1747 
z
M 1159 2969 
Q 1341 3281 1617 3432 
Q 1894 3584 2278 3584 
Q 2916 3584 3314 3078 
Q 3713 2572 3713 1747 
Q 3713 922 3314 415 
Q 2916 -91 2278 -91 
Q 1894 -91 1617 61 
Q 1341 213 1159 525 
L 1159 0 
L 581 0 
L 581 4863 
L 1159 4863 
L 1159 2969 
z
" transform="scale(0.015625)"/>
       <path id="DejaVuSans-6c" d="M 603 4863 
L 1178 4863 
L 1178 0 
L 603 0 
L 603 4863 
z
" transform="scale(0.015625)"/>
      </defs>
      <use xlink:href="#DejaVuSans-63"/>
      <use xlink:href="#DejaVuSans-6f" transform="translate(54.980469 0)"/>
      <use xlink:href="#DejaVuSans-6e" transform="translate(116.162109 0)"/>
      <use xlink:href="#DejaVuSans-74" transform="translate(179.541016 0)"/>
      <use xlink:href="#DejaVuSans-5f" transform="translate(218.75 0)"/>
      <use xlink:href="#DejaVuSans-76" transform="translate(268.75 0)"/>
      <use xlink:href="#DejaVuSans-61" transform="translate(327.929688 0)"/>
      <use xlink:href="#DejaVuSans-72" transform="translate(389.208984 0)"/>
      <use xlink:href="#DejaVuSans-69" transform="translate(430.322266 0)"/>
      <use xlink:href="#DejaVuSans-61" transform="translate(458.105469 0)"/>
      <use xlink:href="#DejaVuSans-62" transform="translate(519.384766 0)"/>
      <use xlink:href="#DejaVuSans-6c" transform="translate(582.861328 0)"/>
      <use xlink:href="#DejaVuSans-65" transform="translate(610.644531 0)"/>
     </g>
    </g>
   </g>
   <g id="line2d_13">
    <path clip-path="url(#p741d7dcfe4)" style="fill: none; stroke: #424242; stroke-width: 2.25; stroke-linecap: square"/>
   </g>
   <g id="line2d_14">
    <path clip-path="url(#p741d7dcfe4)" style="fill: none; stroke: #424242; stroke-width: 2.25; stroke-linecap: square"/>
   </g>
   <g id="line2d_15">
    <path clip-path="url(#p741d7dcfe4)" style="fill: none; stroke: #424242; stroke-width: 2.25; stroke-linecap: square"/>
   </g>
   <g id="line2d_16">
    <path clip-path="url(#p741d7dcfe4)" style="fill: none; stroke: #424242; stroke-width: 2.25; stroke-linecap: square"/>
   </g>
   <g id="line2d_17">
    <path clip-path="url(#p741d7dcfe4)" style="fill: none; stroke: #424242; stroke-width: 2.25; stroke-linecap: square"/>
   </g>
   <g id="line2d_18">
    <path clip-path="url(#p741d7dcfe4)" style="fill: none; stroke: #424242; stroke-width: 2.25; stroke-linecap: square"/>
   </g>
   <g id="line2d_19">
    <path clip-path="url(#p741d7dcfe4)" style="fill: none; stroke: #424242; stroke-width: 2.25; stroke-linecap: square"/>
   </g>
   <g id="line2d_20">
    <path clip-path="url(#p741d7dcfe4)" style="fill: none; stroke: #424242; stroke-width: 2.25; stroke-linecap: square"/>
   </g>
   <g id="line2d_21">
    <path clip-path="url(#p741d7dcfe4)" style="fill: none; stroke: #424242; stroke-width: 2.25; stroke-linecap: square"/>
   </g>
   <g id="line2d_22">
    <path clip-path="url(#p741d7dcfe4)" style="fill: none; stroke: #424242; stroke-width: 2.25; stroke-linecap: square"/>
   </g>
   <g id="line2d_23">
    <path clip-path="url(#p741d7dcfe4)" style="fill: none; stroke: #424242; stroke-width: 2.25; stroke-linecap: square"/>
   </g>
   <g id="line2d_24">
    <path clip-path="url(#p741d7dcfe4)" style="fill: none; stroke: #424242; stroke-width: 2.25; stroke-linecap: square"/>
   </g>
   <g id="line2d_25">
    <path clip-path="url(#p741d7dcfe4)" style="fill: none; stroke: #424242; stroke-width: 2.25; stroke-linecap: square"/>
   </g>
   <g id="line2d_26">
    <path clip-path="url(#p741d7dcfe4)" style="fill: none; stroke: #424242; stroke-width: 2.25; stroke-linecap: square"/>
   </g>
   <g id="patch_24">
    <path d="M 90 320.4 
L 90 43.2 
" style="fill: none; stroke: #000000; stroke-width: 0.8; stroke-linejoin: miter; stroke-linecap: square"/>
   </g>
   <g id="patch_25">
    <path d="M 648 320.4 
L 648 43.2 
" style="fill: none; stroke: #000000; stroke-width: 0.8; stroke-linejoin: miter; stroke-linecap: square"/>
   </g>
   <g id="patch_26">
    <path d="M 90 320.4 
L 648 320.4 
" style="fill: none; stroke: #000000; stroke-width: 0.8; stroke-linejoin: miter; stroke-linecap: square"/>
   </g>
   <g id="patch_27">
    <path d="M 90 43.2 
L 648 43.2 
" style="fill: none; stroke: #000000; stroke-width: 0.8; stroke-linejoin: miter; stroke-linecap: square"/>
   </g>
   <g id="PathCollection_1">
    <defs>
     <path id="m5a721e793e" d="M 0 2.5 
C 0.663008 2.5 1.29895 2.236584 1.767767 1.767767 
C 2.236584 1.29895 2.5 0.663008 2.5 0 
C 2.5 -0.663008 2.236584 -1.29895 1.767767 -1.767767 
C 1.29895 -2.236584 0.663008 -2.5 0 -2.5 
C -0.663008 -2.5 -1.29895 -2.236584 -1.767767 -1.767767 
C -2.236584 -1.29895 -2.5 -0.663008 -2.5 0 
C -2.5 0.663008 -2.236584 1.29895 -1.767767 1.767767 
C -1.29895 2.236584 -0.663008 2.5 0 2.5 
z
"/>
    </defs>
    <g clip-path="url(#p741d7dcfe4)">
     <use xlink:href="#m5a721e793e" x="139.223901" y="303.504" style="fill-opacity: 0.3"/>
     <use xlink:href="#m5a721e793e" x="146.948391" y="303.504" style="fill-opacity: 0.3"/>
     <use xlink:href="#m5a721e793e" x="155.517656" y="311.952" style="fill-opacity: 0.3"/>
     <use xlink:href="#m5a721e793e" x="148.64356" y="311.952" style="fill-opacity: 0.3"/>
     <use xlink:href="#m5a721e793e" x="145.169021" y="303.504" style="fill-opacity: 0.3"/>
     <use xlink:href="#m5a721e793e" x="136.414719" y="301.392" style="fill-opacity: 0.3"/>
     <use xlink:href="#m5a721e793e" x="145.385558" y="301.392" style="fill-opacity: 0.3"/>
     <use xlink:href="#m5a721e793e" x="151.134366" y="301.392" style="fill-opacity: 0.3"/>
     <use xlink:href="#m5a721e793e" x="142.999908" y="301.392" style="fill-opacity: 0.3"/>
     <use xlink:href="#m5a721e793e" x="136.554963" y="301.392" style="fill-opacity: 0.3"/>
     <use xlink:href="#m5a721e793e" x="137.200713" y="301.392" style="fill-opacity: 0.3"/>
     <use xlink:href="#m5a721e793e" x="147.256347" y="301.392" style="fill-opacity: 0.3"/>
     <use xlink:href="#m5a721e793e" x="146.310048" y="301.392" style="fill-opacity: 0.3"/>
     <use xlink:href="#m5a721e793e" x="143.417813" y="301.392" style="fill-opacity: 0.3"/>
     <use xlink:href="#m5a721e793e" x="145.775588" y="301.392" style="fill-opacity: 0.3"/>
     <use xlink:href="#m5a721e793e" x="145.799685" y="301.392" style="fill-opacity: 0.3"/>
     <use xlink:href="#m5a721e793e" x="156.224711" y="301.392" style="fill-opacity: 0.3"/>
     <use xlink:href="#m5a721e793e" x="151.254131" y="301.392" style="fill-opacity: 0.3"/>
     <use xlink:href="#m5a721e793e" x="134.823117" y="301.392" style="fill-opacity: 0.3"/>
     <use xlink:href="#m5a721e793e" x="137.531411" y="301.392" style="fill-opacity: 0.3"/>
     <use xlink:href="#m5a721e793e" x="152.273322" y="301.392" style="fill-opacity: 0.3"/>
     <use xlink:href="#m5a721e793e" x="153.689049" y="301.392" style="fill-opacity: 0.3"/>
     <use xlink:href="#m5a721e793e" x="135.616338" y="301.392" style="fill-opacity: 0.3"/>
     <use xlink:href="#m5a721e793e" x="143.906917" y="301.392" style="fill-opacity: 0.3"/>
     <use xlink:href="#m5a721e793e" x="150.101648" y="301.392" style="fill-opacity: 0.3"/>
     <use xlink:href="#m5a721e793e" x="149.739461" y="301.392" style="fill-opacity: 0.3"/>
     <use xlink:href="#m5a721e793e" x="144.425375" y="301.392" style="fill-opacity: 0.3"/>
     <use xlink:href="#m5a721e793e" x="140.664959" y="301.392" style="fill-opacity: 0.3"/>
     <use xlink:href="#m5a721e793e" x="151.764027" y="301.392" style="fill-opacity: 0.3"/>
     <use xlink:href="#m5a721e793e" x="136.235879" y="305.616" style="fill-opacity: 0.3"/>
     <use xlink:href="#m5a721e793e" x="140.015373" y="305.616" style="fill-opacity: 0.3"/>
     <use xlink:href="#m5a721e793e" x="144.877757" y="305.616" style="fill-opacity: 0.3"/>
     <use xlink:href="#m5a721e793e" x="154.971293" y="305.616" style="fill-opacity: 0.3"/>
     <use xlink:href="#m5a721e793e" x="148.293174" y="305.616" style="fill-opacity: 0.3"/>
     <use xlink:href="#m5a721e793e" x="140.677895" y="305.616" style="fill-opacity: 0.3"/>
     <use xlink:href="#m5a721e793e" x="156.583389" y="305.616" style="fill-opacity: 0.3"/>
     <use xlink:href="#m5a721e793e" x="146.761168" y="305.616" style="fill-opacity: 0.3"/>
     <use xlink:href="#m5a721e793e" x="145.394726" y="305.616" style="fill-opacity: 0.3"/>
     <use xlink:href="#m5a721e793e" x="148.45751" y="305.616" style="fill-opacity: 0.3"/>
     <use xlink:href="#m5a721e793e" x="136.833987" y="305.616" style="fill-opacity: 0.3"/>
     <use xlink:href="#m5a721e793e" x="140.716046" y="305.616" style="fill-opacity: 0.3"/>
     <use xlink:href="#m5a721e793e" x="135.16366" y="305.616" style="fill-opacity: 0.3"/>
     <use xlink:href="#m5a721e793e" x="140.860959" y="305.616" style="fill-opacity: 0.3"/>
     <use xlink:href="#m5a721e793e" x="152.884857" y="305.616" style="fill-opacity: 0.3"/>
     <use xlink:href="#m5a721e793e" x="156.746742" y="305.616" style="fill-opacity: 0.3"/>
     <use xlink:href="#m5a721e793e" x="148.554418" y="305.616" style="fill-opacity: 0.3"/>
     <use xlink:href="#m5a721e793e" x="139.681186" y="305.616" style="fill-opacity: 0.3"/>
     <use xlink:href="#m5a721e793e" x="154.316616" y="305.616" style="fill-opacity: 0.3"/>
     <use xlink:href="#m5a721e793e" x="137.442718" y="305.616" style="fill-opacity: 0.3"/>
     <use xlink:href="#m5a721e793e" x="141.601294" y="301.392" style="fill-opacity: 0.3"/>
     <use xlink:href="#m5a721e793e" x="138.194603" y="301.392" style="fill-opacity: 0.3"/>
     <use xlink:href="#m5a721e793e" x="144.623503" y="301.392" style="fill-opacity: 0.3"/>
     <use xlink:href="#m5a721e793e" x="150.472598" y="301.392" style="fill-opacity: 0.3"/>
     <use xlink:href="#m5a721e793e" x="144.044256" y="301.392" style="fill-opacity: 0.3"/>
     <use xlink:href="#m5a721e793e" x="152.646291" y="301.392" style="fill-opacity: 0.3"/>
    </g>
   </g>
   <g id="PathCollection_2">
    <g clip-path="url(#p741d7dcfe4)">
     <use xlink:href="#m5a721e793e" x="249.931134" y="303.504" style="fill-opacity: 0.3"/>
     <use xlink:href="#m5a721e793e" x="249.387678" y="303.504" style="fill-opacity: 0.3"/>
     <use xlink:href="#m5a721e793e" x="260.20676" y="303.504" style="fill-opacity: 0.3"/>
     <use xlink:href="#m5a721e793e" x="254.432028" y="303.504" style="fill-opacity: 0.3"/>
     <use xlink:href="#m5a721e793e" x="252.325182" y="303.504" style="fill-opacity: 0.3"/>
     <use xlink:href="#m5a721e793e" x="255.387086" y="303.504" style="fill-opacity: 0.3"/>
     <use xlink:href="#m5a721e793e" x="256.293549" y="303.504" style="fill-opacity: 0.3"/>
     <use xlink:href="#m5a721e793e" x="267.500956" y="303.504" style="fill-opacity: 0.3"/>
     <use xlink:href="#m5a721e793e" x="267.295074" y="303.504" style="fill-opacity: 0.3"/>
     <use xlink:href="#m5a721e793e" x="250.125289" y="303.504" style="fill-opacity: 0.3"/>
     <use xlink:href="#m5a721e793e" x="248.264432" y="311.952" style="fill-opacity: 0.3"/>
     <use xlink:href="#m5a721e793e" x="248.593548" y="311.952" style="fill-opacity: 0.3"/>
     <use xlink:href="#m5a721e793e" x="251.674002" y="311.952" style="fill-opacity: 0.3"/>
     <use xlink:href="#m5a721e793e" x="267.003408" y="311.952" style="fill-opacity: 0.3"/>
     <use xlink:href="#m5a721e793e" x="253.349499" y="303.504" style="fill-opacity: 0.3"/>
     <use xlink:href="#m5a721e793e" x="267.790099" y="301.392" style="fill-opacity: 0.3"/>
     <use xlink:href="#m5a721e793e" x="250.654879" y="301.392" style="fill-opacity: 0.3"/>
     <use xlink:href="#m5a721e793e" x="257.864364" y="301.392" style="fill-opacity: 0.3"/>
     <use xlink:href="#m5a721e793e" x="261.698711" y="301.392" style="fill-opacity: 0.3"/>
     <use xlink:href="#m5a721e793e" x="249.792588" y="301.392" style="fill-opacity: 0.3"/>
     <use xlink:href="#m5a721e793e" x="267.464758" y="301.392" style="fill-opacity: 0.3"/>
     <use xlink:href="#m5a721e793e" x="257.373119" y="301.392" style="fill-opacity: 0.3"/>
     <use xlink:href="#m5a721e793e" x="249.294015" y="301.392" style="fill-opacity: 0.3"/>
     <use xlink:href="#m5a721e793e" x="261.401307" y="301.392" style="fill-opacity: 0.3"/>
     <use xlink:href="#m5a721e793e" x="260.944246" y="301.392" style="fill-opacity: 0.3"/>
     <use xlink:href="#m5a721e793e" x="252.444353" y="301.392" style="fill-opacity: 0.3"/>
     <use xlink:href="#m5a721e793e" x="254.118358" y="301.392" style="fill-opacity: 0.3"/>
     <use xlink:href="#m5a721e793e" x="258.796228" y="301.392" style="fill-opacity: 0.3"/>
     <use xlink:href="#m5a721e793e" x="268.40652" y="301.392" style="fill-opacity: 0.3"/>
     <use xlink:href="#m5a721e793e" x="265.285742" y="301.392" style="fill-opacity: 0.3"/>
     <use xlink:href="#m5a721e793e" x="263.705709" y="301.392" style="fill-opacity: 0.3"/>
     <use xlink:href="#m5a721e793e" x="255.145984" y="301.392" style="fill-opacity: 0.3"/>
     <use xlink:href="#m5a721e793e" x="268.556854" y="301.392" style="fill-opacity: 0.3"/>
     <use xlink:href="#m5a721e793e" x="248.111375" y="301.392" style="fill-opacity: 0.3"/>
     <use xlink:href="#m5a721e793e" x="255.450931" y="301.392" style="fill-opacity: 0.3"/>
     <use xlink:href="#m5a721e793e" x="251.140133" y="301.392" style="fill-opacity: 0.3"/>
     <use xlink:href="#m5a721e793e" x="259.812053" y="301.392" style="fill-opacity: 0.3"/>
     <use xlink:href="#m5a721e793e" x="253.160057" y="301.392" style="fill-opacity: 0.3"/>
     <use xlink:href="#m5a721e793e" x="252.075662" y="301.392" style="fill-opacity: 0.3"/>
     <use xlink:href="#m5a721e793e" x="266.435896" y="301.392" style="fill-opacity: 0.3"/>
     <use xlink:href="#m5a721e793e" x="249.789836" y="301.392" style="fill-opacity: 0.3"/>
     <use xlink:href="#m5a721e793e" x="246.698131" y="301.392" style="fill-opacity: 0.3"/>
     <use xlink:href="#m5a721e793e" x="264.237071" y="301.392" style="fill-opacity: 0.3"/>
     <use xlink:href="#m5a721e793e" x="259.739722" y="301.392" style="fill-opacity: 0.3"/>
     <use xlink:href="#m5a721e793e" x="254.832501" y="301.392" style="fill-opacity: 0.3"/>
     <use xlink:href="#m5a721e793e" x="259.432015" y="301.392" style="fill-opacity: 0.3"/>
     <use xlink:href="#m5a721e793e" x="261.400522" y="301.392" style="fill-opacity: 0.3"/>
     <use xlink:href="#m5a721e793e" x="249.764502" y="301.392" style="fill-opacity: 0.3"/>
     <use xlink:href="#m5a721e793e" x="264.823139" y="301.392" style="fill-opacity: 0.3"/>
     <use xlink:href="#m5a721e793e" x="257.665869" y="301.392" style="fill-opacity: 0.3"/>
     <use xlink:href="#m5a721e793e" x="258.046554" y="301.392" style="fill-opacity: 0.3"/>
     <use xlink:href="#m5a721e793e" x="262.263595" y="301.392" style="fill-opacity: 0.3"/>
     <use xlink:href="#m5a721e793e" x="255.090651" y="301.392" style="fill-opacity: 0.3"/>
     <use xlink:href="#m5a721e793e" x="252.153707" y="301.392" style="fill-opacity: 0.3"/>
     <use xlink:href="#m5a721e793e" x="250.821352" y="301.392" style="fill-opacity: 0.3"/>
     <use xlink:href="#m5a721e793e" x="258.597788" y="301.392" style="fill-opacity: 0.3"/>
     <use xlink:href="#m5a721e793e" x="250.437028" y="301.392" style="fill-opacity: 0.3"/>
     <use xlink:href="#m5a721e793e" x="256.513827" y="301.392" style="fill-opacity: 0.3"/>
     <use xlink:href="#m5a721e793e" x="248.282403" y="301.392" style="fill-opacity: 0.3"/>
     <use xlink:href="#m5a721e793e" x="251.938375" y="301.392" style="fill-opacity: 0.3"/>
     <use xlink:href="#m5a721e793e" x="260.20854" y="305.616" style="fill-opacity: 0.3"/>
     <use xlink:href="#m5a721e793e" x="267.918425" y="305.616" style="fill-opacity: 0.3"/>
     <use xlink:href="#m5a721e793e" x="254.86575" y="305.616" style="fill-opacity: 0.3"/>
     <use xlink:href="#m5a721e793e" x="246.804073" y="305.616" style="fill-opacity: 0.3"/>
     <use xlink:href="#m5a721e793e" x="249.681926" y="305.616" style="fill-opacity: 0.3"/>
     <use xlink:href="#m5a721e793e" x="254.746448" y="305.616" style="fill-opacity: 0.3"/>
     <use xlink:href="#m5a721e793e" x="250.39891" y="305.616" style="fill-opacity: 0.3"/>
     <use xlink:href="#m5a721e793e" x="264.444215" y="305.616" style="fill-opacity: 0.3"/>
     <use xlink:href="#m5a721e793e" x="266.972412" y="305.616" style="fill-opacity: 0.3"/>
     <use xlink:href="#m5a721e793e" x="257.658073" y="305.616" style="fill-opacity: 0.3"/>
     <use xlink:href="#m5a721e793e" x="256.153174" y="305.616" style="fill-opacity: 0.3"/>
     <use xlink:href="#m5a721e793e" x="253.043114" y="305.616" style="fill-opacity: 0.3"/>
     <use xlink:href="#m5a721e793e" x="254.859819" y="305.616" style="fill-opacity: 0.3"/>
     <use xlink:href="#m5a721e793e" x="267.219894" y="305.616" style="fill-opacity: 0.3"/>
     <use xlink:href="#m5a721e793e" x="253.074962" y="305.616" style="fill-opacity: 0.3"/>
     <use xlink:href="#m5a721e793e" x="250.831342" y="305.616" style="fill-opacity: 0.3"/>
     <use xlink:href="#m5a721e793e" x="257.939197" y="305.616" style="fill-opacity: 0.3"/>
     <use xlink:href="#m5a721e793e" x="258.136793" y="305.616" style="fill-opacity: 0.3"/>
     <use xlink:href="#m5a721e793e" x="262.694455" y="305.616" style="fill-opacity: 0.3"/>
     <use xlink:href="#m5a721e793e" x="253.764035" y="305.616" style="fill-opacity: 0.3"/>
     <use xlink:href="#m5a721e793e" x="259.232428" y="305.616" style="fill-opacity: 0.3"/>
     <use xlink:href="#m5a721e793e" x="251.109933" y="305.616" style="fill-opacity: 0.3"/>
     <use xlink:href="#m5a721e793e" x="258.676709" y="305.616" style="fill-opacity: 0.3"/>
     <use xlink:href="#m5a721e793e" x="255.675478" y="301.392" style="fill-opacity: 0.3"/>
     <use xlink:href="#m5a721e793e" x="249.504629" y="301.392" style="fill-opacity: 0.3"/>
     <use xlink:href="#m5a721e793e" x="249.32995" y="301.392" style="fill-opacity: 0.3"/>
     <use xlink:href="#m5a721e793e" x="259.156404" y="301.392" style="fill-opacity: 0.3"/>
    </g>
   </g>
   <g id="PathCollection_3">
    <g clip-path="url(#p741d7dcfe4)">
     <use xlink:href="#m5a721e793e" x="373.410244" y="303.504" style="fill-opacity: 0.3"/>
     <use xlink:href="#m5a721e793e" x="363.917378" y="303.504" style="fill-opacity: 0.3"/>
     <use xlink:href="#m5a721e793e" x="366.600872" y="303.504" style="fill-opacity: 0.3"/>
     <use xlink:href="#m5a721e793e" x="363.865889" y="303.504" style="fill-opacity: 0.3"/>
     <use xlink:href="#m5a721e793e" x="360.951634" y="311.952" style="fill-opacity: 0.3"/>
     <use xlink:href="#m5a721e793e" x="358.833154" y="311.952" style="fill-opacity: 0.3"/>
     <use xlink:href="#m5a721e793e" x="379.761247" y="311.952" style="fill-opacity: 0.3"/>
     <use xlink:href="#m5a721e793e" x="361.264386" y="303.504" style="fill-opacity: 0.3"/>
     <use xlink:href="#m5a721e793e" x="372.389019" y="311.952" style="fill-opacity: 0.3"/>
     <use xlink:href="#m5a721e793e" x="359.428142" y="303.504" style="fill-opacity: 0.3"/>
     <use xlink:href="#m5a721e793e" x="358.118922" y="311.952" style="fill-opacity: 0.3"/>
     <use xlink:href="#m5a721e793e" x="378.608949" y="301.392" style="fill-opacity: 0.3"/>
     <use xlink:href="#m5a721e793e" x="376.606383" y="301.392" style="fill-opacity: 0.3"/>
     <use xlink:href="#m5a721e793e" x="378.526194" y="301.392" style="fill-opacity: 0.3"/>
     <use xlink:href="#m5a721e793e" x="369.097735" y="301.392" style="fill-opacity: 0.3"/>
     <use xlink:href="#m5a721e793e" x="368.525612" y="301.392" style="fill-opacity: 0.3"/>
     <use xlink:href="#m5a721e793e" x="378.782977" y="301.392" style="fill-opacity: 0.3"/>
     <use xlink:href="#m5a721e793e" x="360.985906" y="301.392" style="fill-opacity: 0.3"/>
     <use xlink:href="#m5a721e793e" x="364.698269" y="301.392" style="fill-opacity: 0.3"/>
     <use xlink:href="#m5a721e793e" x="375.87374" y="301.392" style="fill-opacity: 0.3"/>
     <use xlink:href="#m5a721e793e" x="358.528226" y="301.392" style="fill-opacity: 0.3"/>
     <use xlink:href="#m5a721e793e" x="366.006561" y="301.392" style="fill-opacity: 0.3"/>
     <use xlink:href="#m5a721e793e" x="360.265293" y="301.392" style="fill-opacity: 0.3"/>
     <use xlink:href="#m5a721e793e" x="363.196167" y="301.392" style="fill-opacity: 0.3"/>
     <use xlink:href="#m5a721e793e" x="376.582082" y="301.392" style="fill-opacity: 0.3"/>
     <use xlink:href="#m5a721e793e" x="374.786382" y="301.392" style="fill-opacity: 0.3"/>
     <use xlink:href="#m5a721e793e" x="371.576924" y="301.392" style="fill-opacity: 0.3"/>
     <use xlink:href="#m5a721e793e" x="360.991071" y="301.392" style="fill-opacity: 0.3"/>
     <use xlink:href="#m5a721e793e" x="371.601397" y="301.392" style="fill-opacity: 0.3"/>
     <use xlink:href="#m5a721e793e" x="365.528425" y="301.392" style="fill-opacity: 0.3"/>
     <use xlink:href="#m5a721e793e" x="358.842661" y="301.392" style="fill-opacity: 0.3"/>
     <use xlink:href="#m5a721e793e" x="373.932347" y="301.392" style="fill-opacity: 0.3"/>
     <use xlink:href="#m5a721e793e" x="362.468867" y="301.392" style="fill-opacity: 0.3"/>
     <use xlink:href="#m5a721e793e" x="359.234685" y="301.392" style="fill-opacity: 0.3"/>
     <use xlink:href="#m5a721e793e" x="372.398811" y="305.616" style="fill-opacity: 0.3"/>
     <use xlink:href="#m5a721e793e" x="361.980874" y="305.616" style="fill-opacity: 0.3"/>
     <use xlink:href="#m5a721e793e" x="359.391782" y="305.616" style="fill-opacity: 0.3"/>
     <use xlink:href="#m5a721e793e" x="374.201027" y="305.616" style="fill-opacity: 0.3"/>
     <use xlink:href="#m5a721e793e" x="377.270965" y="305.616" style="fill-opacity: 0.3"/>
     <use xlink:href="#m5a721e793e" x="375.255991" y="305.616" style="fill-opacity: 0.3"/>
     <use xlink:href="#m5a721e793e" x="373.597589" y="301.392" style="fill-opacity: 0.3"/>
     <use xlink:href="#m5a721e793e" x="358.694023" y="301.392" style="fill-opacity: 0.3"/>
    </g>
   </g>
   <g id="PathCollection_4">
    <g clip-path="url(#p741d7dcfe4)">
     <use xlink:href="#m5a721e793e" x="473.294405" y="311.952" style="fill-opacity: 0.3"/>
     <use xlink:href="#m5a721e793e" x="489.655992" y="303.504" style="fill-opacity: 0.3"/>
     <use xlink:href="#m5a721e793e" x="478.047394" y="301.392" style="fill-opacity: 0.3"/>
     <use xlink:href="#m5a721e793e" x="490.452651" y="301.392" style="fill-opacity: 0.3"/>
     <use xlink:href="#m5a721e793e" x="480.818463" y="301.392" style="fill-opacity: 0.3"/>
     <use xlink:href="#m5a721e793e" x="470.856079" y="301.392" style="fill-opacity: 0.3"/>
     <use xlink:href="#m5a721e793e" x="480.177314" y="301.392" style="fill-opacity: 0.3"/>
     <use xlink:href="#m5a721e793e" x="474.074926" y="305.616" style="fill-opacity: 0.3"/>
     <use xlink:href="#m5a721e793e" x="484.84622" y="305.616" style="fill-opacity: 0.3"/>
     <use xlink:href="#m5a721e793e" x="487.707027" y="305.616" style="fill-opacity: 0.3"/>
     <use xlink:href="#m5a721e793e" x="486.363633" y="305.616" style="fill-opacity: 0.3"/>
     <use xlink:href="#m5a721e793e" x="478.030201" y="305.616" style="fill-opacity: 0.3"/>
     <use xlink:href="#m5a721e793e" x="480.960163" y="305.616" style="fill-opacity: 0.3"/>
     <use xlink:href="#m5a721e793e" x="470.99291" y="305.616" style="fill-opacity: 0.3"/>
     <use xlink:href="#m5a721e793e" x="481.495552" y="305.616" style="fill-opacity: 0.3"/>
     <use xlink:href="#m5a721e793e" x="470.607909" y="305.616" style="fill-opacity: 0.3"/>
     <use xlink:href="#m5a721e793e" x="484.75946" y="305.616" style="fill-opacity: 0.3"/>
     <use xlink:href="#m5a721e793e" x="472.090053" y="305.616" style="fill-opacity: 0.3"/>
     <use xlink:href="#m5a721e793e" x="483.557719" y="301.392" style="fill-opacity: 0.3"/>
     <use xlink:href="#m5a721e793e" x="472.863808" y="301.392" style="fill-opacity: 0.3"/>
     <use xlink:href="#m5a721e793e" x="479.990668" y="301.392" style="fill-opacity: 0.3"/>
     <use xlink:href="#m5a721e793e" x="483.636198" y="301.392" style="fill-opacity: 0.3"/>
     <use xlink:href="#m5a721e793e" x="480.033885" y="301.392" style="fill-opacity: 0.3"/>
     <use xlink:href="#m5a721e793e" x="484.019895" y="301.392" style="fill-opacity: 0.3"/>
     <use xlink:href="#m5a721e793e" x="470.066968" y="301.392" style="fill-opacity: 0.3"/>
     <use xlink:href="#m5a721e793e" x="477.602138" y="301.392" style="fill-opacity: 0.3"/>
     <use xlink:href="#m5a721e793e" x="488.378654" y="301.392" style="fill-opacity: 0.3"/>
    </g>
   </g>
   <g id="legend_1">
    <g id="patch_28">
     <path d="M 97 168.625 
L 178.5125 168.625 
Q 180.5125 168.625 180.5125 166.625 
L 180.5125 50.2 
Q 180.5125 48.2 178.5125 48.2 
L 97 48.2 
Q 95 48.2 95 50.2 
L 95 166.625 
Q 95 168.625 97 168.625 
z
" style="fill: #ffffff; opacity: 0.8; stroke: #cccccc; stroke-linejoin: miter"/>
    </g>
    <g id="text_15">
     <!-- body.restrained -->
     <g transform="translate(99 59.798437) scale(0.1 -0.1)">
      <defs>
       <path id="DejaVuSans-64" d="M 2906 2969 
L 2906 4863 
L 3481 4863 
L 3481 0 
L 2906 0 
L 2906 525 
Q 2725 213 2448 61 
Q 2172 -91 1784 -91 
Q 1150 -91 751 415 
Q 353 922 353 1747 
Q 353 2572 751 3078 
Q 1150 3584 1784 3584 
Q 2172 3584 2448 3432 
Q 2725 3281 2906 2969 
z
M 947 1747 
Q 947 1113 1208 752 
Q 1469 391 1925 391 
Q 2381 391 2643 752 
Q 2906 1113 2906 1747 
Q 2906 2381 2643 2742 
Q 2381 3103 1925 3103 
Q 1469 3103 1208 2742 
Q 947 2381 947 1747 
z
" transform="scale(0.015625)"/>
       <path id="DejaVuSans-2e" d="M 684 794 
L 1344 794 
L 1344 0 
L 684 0 
L 684 794 
z
" transform="scale(0.015625)"/>
      </defs>
      <use xlink:href="#DejaVuSans-62"/>
      <use xlink:href="#DejaVuSans-6f" transform="translate(63.476562 0)"/>
      <use xlink:href="#DejaVuSans-64" transform="translate(124.658203 0)"/>
      <use xlink:href="#DejaVuSans-79" transform="translate(188.134766 0)"/>
      <use xlink:href="#DejaVuSans-2e" transform="translate(233.064453 0)"/>
      <use xlink:href="#DejaVuSans-72" transform="translate(264.851562 0)"/>
      <use xlink:href="#DejaVuSans-65" transform="translate(303.714844 0)"/>
      <use xlink:href="#DejaVuSans-73" transform="translate(365.238281 0)"/>
      <use xlink:href="#DejaVuSans-74" transform="translate(417.337891 0)"/>
      <use xlink:href="#DejaVuSans-72" transform="translate(456.546875 0)"/>
      <use xlink:href="#DejaVuSans-61" transform="translate(497.660156 0)"/>
      <use xlink:href="#DejaVuSans-69" transform="translate(558.939453 0)"/>
      <use xlink:href="#DejaVuSans-6e" transform="translate(586.722656 0)"/>
      <use xlink:href="#DejaVuSans-65" transform="translate(650.101562 0)"/>
      <use xlink:href="#DejaVuSans-64" transform="translate(711.625 0)"/>
     </g>
    </g>
    <g id="patch_29">
     <path d="M 118.885937 74.476562 
L 138.885938 74.476562 
L 138.885938 67.476562 
L 118.885937 67.476562 
z
" style="fill: #3274a1"/>
    </g>
    <g id="text_16">
     <!-- f -->
     <g transform="translate(146.885938 74.476562) scale(0.1 -0.1)">
      <use xlink:href="#DejaVuSans-66"/>
     </g>
    </g>
    <g id="patch_30">
     <path d="M 118.885937 89.154688 
L 138.885938 89.154688 
L 138.885938 82.154688 
L 118.885937 82.154688 
z
" style="fill: #e1812c"/>
    </g>
    <g id="text_17">
     <!-- m -->
     <g transform="translate(146.885938 89.154688) scale(0.1 -0.1)">
      <defs>
       <path id="DejaVuSans-6d" d="M 3328 2828 
Q 3544 3216 3844 3400 
Q 4144 3584 4550 3584 
Q 5097 3584 5394 3201 
Q 5691 2819 5691 2113 
L 5691 0 
L 5113 0 
L 5113 2094 
Q 5113 2597 4934 2840 
Q 4756 3084 4391 3084 
Q 3944 3084 3684 2787 
Q 3425 2491 3425 1978 
L 3425 0 
L 2847 0 
L 2847 2094 
Q 2847 2600 2669 2842 
Q 2491 3084 2119 3084 
Q 1678 3084 1418 2786 
Q 1159 2488 1159 1978 
L 1159 0 
L 581 0 
L 581 3500 
L 1159 3500 
L 1159 2956 
Q 1356 3278 1631 3431 
Q 1906 3584 2284 3584 
Q 2666 3584 2933 3390 
Q 3200 3197 3328 2828 
z
" transform="scale(0.015625)"/>
      </defs>
      <use xlink:href="#DejaVuSans-6d"/>
     </g>
    </g>
    <g id="patch_31">
     <path d="M 118.885937 103.832812 
L 138.885938 103.832812 
L 138.885938 96.832812 
L 118.885937 96.832812 
z
" style="fill: #3274a1"/>
    </g>
    <g id="text_18">
     <!-- f -->
     <g transform="translate(146.885938 103.832812) scale(0.1 -0.1)">
      <use xlink:href="#DejaVuSans-66"/>
     </g>
    </g>
    <g id="patch_32">
     <path d="M 118.885937 118.510938 
L 138.885938 118.510938 
L 138.885938 111.510938 
L 118.885937 111.510938 
z
" style="fill: #e1812c"/>
    </g>
    <g id="text_19">
     <!-- m -->
     <g transform="translate(146.885938 118.510938) scale(0.1 -0.1)">
      <use xlink:href="#DejaVuSans-6d"/>
     </g>
    </g>
    <g id="patch_33">
     <path d="M 118.885937 133.189063 
L 138.885938 133.189063 
L 138.885938 126.189063 
L 118.885937 126.189063 
z
" style="fill: #3274a1"/>
    </g>
    <g id="text_20">
     <!-- n -->
     <g transform="translate(146.885938 133.189063) scale(0.1 -0.1)">
      <use xlink:href="#DejaVuSans-6e"/>
     </g>
    </g>
    <g id="patch_34">
     <path d="M 118.885937 147.867188 
L 138.885938 147.867188 
L 138.885938 140.867188 
L 118.885937 140.867188 
z
" style="fill: #e1812c"/>
    </g>
    <g id="text_21">
     <!-- y -->
     <g transform="translate(146.885938 147.867188) scale(0.1 -0.1)">
      <use xlink:href="#DejaVuSans-79"/>
     </g>
    </g>
    <g id="patch_35">
     <path d="M 118.885937 162.545312 
L 138.885938 162.545312 
L 138.885938 155.545312 
L 118.885937 155.545312 
z
" style="fill: #3274a1"/>
    </g>
    <g id="text_22">
     <!-- y -->
     <g transform="translate(146.885938 162.545312) scale(0.1 -0.1)">
      <use xlink:href="#DejaVuSans-79"/>
     </g>
    </g>
   </g>
  </g>
 </g>
 <defs>
  <clipPath id="p741d7dcfe4">
   <rect x="90" y="43.2" width="558" height="277.2"/>
  </clipPath>
 </defs>
</svg>
