<?xml version="1.0" encoding="utf-8" standalone="no"?>
<!DOCTYPE svg PUBLIC "-//W3C//DTD SVG 1.1//EN"
  "http://www.w3.org/Graphics/SVG/1.1/DTD/svg11.dtd">
<svg xmlns:xlink="http://www.w3.org/1999/xlink" width="720pt" height="360pt" viewBox="0 0 720 360" xmlns="http://www.w3.org/2000/svg" version="1.1">
 <metadata>
  <rdf:RDF xmlns:dc="http://purl.org/dc/elements/1.1/" xmlns:cc="http://creativecommons.org/ns#" xmlns:rdf="http://www.w3.org/1999/02/22-rdf-syntax-ns#">
   <cc:Work>
    <dc:type rdf:resource="http://purl.org/dc/dcmitype/StillImage"/>
    <dc:date>2025-10-01T10:09:11.225559</dc:date>
    <dc:format>image/svg+xml</dc:format>
    <dc:creator>
     <cc:Agent>
      <dc:title>Matplotlib v3.10.3, https://matplotlib.org/</dc:title>
     </cc:Agent>
    </dc:creator>
   </cc:Work>
  </rdf:RDF>
 </metadata>
 <defs>
  <style type="text/css">*{stroke-linejoin: round; stroke-linecap: butt}</style>
 </defs>
 <g id="figure_1">
  <g id="patch_1">
   <path d="M 0 360 
L 720 360 
L 720 0 
L 0 0 
z
" style="fill: #ffffff"/>
  </g>
  <g id="axes_1">
   <g id="patch_2">
    <path d="M 90 320.4 
L 648 320.4 
L 648 43.2 
L 90 43.2 
z
" style="fill: #ffffff"/>
   </g>
   <g id="FillBetweenPolyCollection_1">
    <defs>
     <path id="m8255e9e443" d="M 160.186128 -52.2 
L 159.313872 -52.2 
L 159.181061 -54.745455 
L 159.017026 -57.290909 
L 158.816917 -59.836364 
L 158.575568 -62.381818 
L 158.28747 -64.927273 
L 157.946702 -67.472727 
L 157.546806 -70.018182 
L 157.080636 -72.563636 
L 156.540169 -75.109091 
L 155.916341 -77.654545 
L 155.198922 -80.2 
L 154.3765 -82.745455 
L 153.436619 -85.290909 
L 152.366123 -87.836364 
L 151.151725 -90.381818 
L 149.780831 -92.927273 
L 148.242565 -95.472727 
L 146.528964 -98.018182 
L 144.636245 -100.563636 
L 142.566015 -103.109091 
L 140.326315 -105.654545 
L 137.932364 -108.2 
L 135.406882 -110.745455 
L 132.779924 -113.290909 
L 130.088176 -115.836364 
L 127.373735 -118.381818 
L 124.682432 -120.927273 
L 122.061782 -123.472727 
L 119.558734 -126.018182 
L 117.217332 -128.563636 
L 115.076484 -131.109091 
L 113.167967 -133.654545 
L 111.514807 -136.2 
L 110.130147 -138.745455 
L 109.016663 -141.290909 
L 108.166589 -143.836364 
L 107.562331 -146.381818 
L 107.177658 -148.927273 
L 106.979386 -151.472727 
L 106.929439 -154.018182 
L 106.987158 -156.563636 
L 107.11168 -159.109091 
L 107.264202 -161.654545 
L 107.409984 -164.2 
L 107.519914 -166.745455 
L 107.571578 -169.290909 
L 107.549778 -171.836364 
L 107.446539 -174.381818 
L 107.260696 -176.927273 
L 106.997192 -179.472727 
L 106.666235 -182.018182 
L 106.282444 -184.563636 
L 105.864071 -187.109091 
L 105.432343 -189.654545 
L 105.01089 -192.2 
L 104.625188 -194.745455 
L 104.301909 -197.290909 
L 104.068082 -199.836364 
L 103.95 -202.381818 
L 103.971879 -204.927273 
L 104.154333 -207.472727 
L 104.512817 -210.018182 
L 105.056234 -212.563636 
L 105.78592 -215.109091 
L 106.695208 -217.654545 
L 107.769708 -220.2 
L 108.988353 -222.745455 
L 110.325159 -225.290909 
L 111.751532 -227.836364 
L 113.23889 -230.381818 
L 114.761289 -232.927273 
L 116.297744 -235.472727 
L 117.833974 -238.018182 
L 119.363351 -240.563636 
L 120.886943 -243.109091 
L 122.412661 -245.654545 
L 123.953615 -248.2 
L 125.525882 -250.745455 
L 127.145963 -253.290909 
L 128.828226 -255.836364 
L 130.582629 -258.381818 
L 132.412961 -260.927273 
L 134.315788 -263.472727 
L 136.280181 -266.018182 
L 138.288221 -268.563636 
L 140.316192 -271.109091 
L 142.3363 -273.654545 
L 144.318699 -276.2 
L 146.233616 -278.745455 
L 148.053355 -281.290909 
L 149.753993 -283.836364 
L 151.316647 -286.381818 
L 152.728238 -288.927273 
L 153.981745 -291.472727 
L 155.075982 -294.018182 
L 156.014993 -296.563636 
L 156.807165 -299.109091 
L 157.464184 -301.654545 
L 157.99994 -304.2 
L 161.50006 -304.2 
L 161.50006 -304.2 
L 162.035816 -301.654545 
L 162.692835 -299.109091 
L 163.485007 -296.563636 
L 164.424018 -294.018182 
L 165.518255 -291.472727 
L 166.771762 -288.927273 
L 168.183353 -286.381818 
L 169.746007 -283.836364 
L 171.446645 -281.290909 
L 173.266384 -278.745455 
L 175.181301 -276.2 
L 177.1637 -273.654545 
L 179.183808 -271.109091 
L 181.211779 -268.563636 
L 183.219819 -266.018182 
L 185.184212 -263.472727 
L 187.087039 -260.927273 
L 188.917371 -258.381818 
L 190.671774 -255.836364 
L 192.354037 -253.290909 
L 193.974118 -250.745455 
L 195.546385 -248.2 
L 197.087339 -245.654545 
L 198.613057 -243.109091 
L 200.136649 -240.563636 
L 201.666026 -238.018182 
L 203.202256 -235.472727 
L 204.738711 -232.927273 
L 206.26111 -230.381818 
L 207.748468 -227.836364 
L 209.174841 -225.290909 
L 210.511647 -222.745455 
L 211.730292 -220.2 
L 212.804792 -217.654545 
L 213.71408 -215.109091 
L 214.443766 -212.563636 
L 214.987183 -210.018182 
L 215.345667 -207.472727 
L 215.528121 -204.927273 
L 215.55 -202.381818 
L 215.431918 -199.836364 
L 215.198091 -197.290909 
L 214.874812 -194.745455 
L 214.48911 -192.2 
L 214.067657 -189.654545 
L 213.635929 -187.109091 
L 213.217556 -184.563636 
L 212.833765 -182.018182 
L 212.502808 -179.472727 
L 212.239304 -176.927273 
L 212.053461 -174.381818 
L 211.950222 -171.836364 
L 211.928422 -169.290909 
L 211.980086 -166.745455 
L 212.090016 -164.2 
L 212.235798 -161.654545 
L 212.38832 -159.109091 
L 212.512842 -156.563636 
L 212.570561 -154.018182 
L 212.520614 -151.472727 
L 212.322342 -148.927273 
L 211.937669 -146.381818 
L 211.333411 -143.836364 
L 210.483337 -141.290909 
L 209.369853 -138.745455 
L 207.985193 -136.2 
L 206.332033 -133.654545 
L 204.423516 -131.109091 
L 202.282668 -128.563636 
L 199.941266 -126.018182 
L 197.438218 -123.472727 
L 194.817568 -120.927273 
L 192.126265 -118.381818 
L 189.411824 -115.836364 
L 186.720076 -113.290909 
L 184.093118 -110.745455 
L 181.567636 -108.2 
L 179.173685 -105.654545 
L 176.933985 -103.109091 
L 174.863755 -100.563636 
L 172.971036 -98.018182 
L 171.257435 -95.472727 
L 169.719169 -92.927273 
L 168.348275 -90.381818 
L 167.133877 -87.836364 
L 166.063381 -85.290909 
L 165.1235 -82.745455 
L 164.301078 -80.2 
L 163.583659 -77.654545 
L 162.959831 -75.109091 
L 162.419364 -72.563636 
L 161.953194 -70.018182 
L 161.553298 -67.472727 
L 161.21253 -64.927273 
L 160.924432 -62.381818 
L 160.683083 -59.836364 
L 160.482974 -57.290909 
L 160.318939 -54.745455 
L 160.186128 -52.2 
z
" style="stroke: #3d3d3d; stroke-width: 1.25"/>
    </defs>
    <g clip-path="url(#p8a64a17981)">
     <use xlink:href="#m8255e9e443" x="0" y="360" style="fill: #3274a1; stroke: #3d3d3d; stroke-width: 1.25"/>
    </g>
   </g>
   <g id="FillBetweenPolyCollection_2">
    <defs>
     <path id="me92fd62af6" d="M 299.50482 -93.41386 
L 298.99518 -93.41386 
L 298.889866 -95.382693 
L 298.750879 -97.351527 
L 298.57089 -99.32036 
L 298.341787 -101.289194 
L 298.054661 -103.258027 
L 297.699772 -105.226861 
L 297.266541 -107.195694 
L 296.743621 -109.164528 
L 296.11914 -111.133362 
L 295.381219 -113.102195 
L 294.518816 -115.071029 
L 293.522918 -117.039862 
L 292.388004 -119.008696 
L 291.113626 -120.977529 
L 289.70584 -122.946363 
L 288.178205 -124.915197 
L 286.552061 -126.88403 
L 284.855865 -128.852864 
L 283.123477 -130.821697 
L 281.391493 -132.790531 
L 279.695825 -134.759364 
L 278.067952 -136.728198 
L 276.531314 -138.697031 
L 275.098391 -140.665865 
L 273.76894 -142.634699 
L 272.52975 -144.603532 
L 271.356105 -146.572366 
L 270.214865 -148.541199 
L 269.068888 -150.510033 
L 267.882248 -152.478866 
L 266.625571 -154.4477 
L 265.280714 -156.416534 
L 263.844043 -158.385367 
L 262.327738 -160.354201 
L 260.758773 -162.323034 
L 259.175581 -164.291868 
L 257.622785 -166.260701 
L 256.144729 -168.229535 
L 254.778828 -170.198368 
L 253.549873 -172.167202 
L 252.466351 -174.136036 
L 251.519558 -176.104869 
L 250.685767 -178.073703 
L 249.931181 -180.042536 
L 249.218768 -182.01137 
L 248.51569 -183.980203 
L 247.79988 -185.949037 
L 247.064457 -187.917871 
L 246.319164 -189.886704 
L 245.588663 -191.855538 
L 244.908238 -193.824371 
L 244.318026 -195.793205 
L 243.857177 -197.762038 
L 243.559283 -199.730872 
L 243.45 -201.699705 
L 243.547148 -203.668539 
L 243.862902 -205.637373 
L 244.407104 -207.606206 
L 245.190472 -209.57504 
L 246.226542 -211.543873 
L 247.531559 -213.512707 
L 249.12213 -215.48154 
L 251.011083 -217.450374 
L 253.202463 -219.419207 
L 255.686851 -221.388041 
L 258.438136 -223.356875 
L 261.41253 -225.325708 
L 264.550134 -227.294542 
L 267.778839 -229.263375 
L 271.019888 -231.232209 
L 274.194199 -233.201042 
L 277.228493 -235.169876 
L 280.060432 -237.13871 
L 282.642245 -239.107543 
L 284.942638 -241.076377 
L 286.947053 -243.04521 
L 288.656559 -245.014044 
L 290.085735 -246.982877 
L 291.259907 -248.951711 
L 292.212073 -250.920544 
L 292.979751 -252.889378 
L 293.601951 -254.858212 
L 294.116409 -256.827045 
L 294.557221 -258.795879 
L 294.953011 -260.764712 
L 295.325721 -262.733546 
L 295.690116 -264.702379 
L 296.053989 -266.671213 
L 296.419012 -268.640047 
L 296.78207 -270.60888 
L 297.13689 -272.577714 
L 297.475719 -274.546547 
L 297.790846 -276.515381 
L 298.075793 -278.484214 
L 298.326087 -280.453048 
L 298.539592 -282.421881 
L 298.716447 -284.390715 
L 298.858726 -286.359549 
L 298.969915 -288.328382 
L 299.530085 -288.328382 
L 299.530085 -288.328382 
L 299.641274 -286.359549 
L 299.783553 -284.390715 
L 299.960408 -282.421881 
L 300.173913 -280.453048 
L 300.424207 -278.484214 
L 300.709154 -276.515381 
L 301.024281 -274.546547 
L 301.36311 -272.577714 
L 301.71793 -270.60888 
L 302.080988 -268.640047 
L 302.446011 -266.671213 
L 302.809884 -264.702379 
L 303.174279 -262.733546 
L 303.546989 -260.764712 
L 303.942779 -258.795879 
L 304.383591 -256.827045 
L 304.898049 -254.858212 
L 305.520249 -252.889378 
L 306.287927 -250.920544 
L 307.240093 -248.951711 
L 308.414265 -246.982877 
L 309.843441 -245.014044 
L 311.552947 -243.04521 
L 313.557362 -241.076377 
L 315.857755 -239.107543 
L 318.439568 -237.13871 
L 321.271507 -235.169876 
L 324.305801 -233.201042 
L 327.480112 -231.232209 
L 330.721161 -229.263375 
L 333.949866 -227.294542 
L 337.08747 -225.325708 
L 340.061864 -223.356875 
L 342.813149 -221.388041 
L 345.297537 -219.419207 
L 347.488917 -217.450374 
L 349.37787 -215.48154 
L 350.968441 -213.512707 
L 352.273458 -211.543873 
L 353.309528 -209.57504 
L 354.092896 -207.606206 
L 354.637098 -205.637373 
L 354.952852 -203.668539 
L 355.05 -201.699705 
L 354.940717 -199.730872 
L 354.642823 -197.762038 
L 354.181974 -195.793205 
L 353.591762 -193.824371 
L 352.911337 -191.855538 
L 352.180836 -189.886704 
L 351.435543 -187.917871 
L 350.70012 -185.949037 
L 349.98431 -183.980203 
L 349.281232 -182.01137 
L 348.568819 -180.042536 
L 347.814233 -178.073703 
L 346.980442 -176.104869 
L 346.033649 -174.136036 
L 344.950127 -172.167202 
L 343.721172 -170.198368 
L 342.355271 -168.229535 
L 340.877215 -166.260701 
L 339.324419 -164.291868 
L 337.741227 -162.323034 
L 336.172262 -160.354201 
L 334.655957 -158.385367 
L 333.219286 -156.416534 
L 331.874429 -154.4477 
L 330.617752 -152.478866 
L 329.431112 -150.510033 
L 328.285135 -148.541199 
L 327.143895 -146.572366 
L 325.97025 -144.603532 
L 324.73106 -142.634699 
L 323.401609 -140.665865 
L 321.968686 -138.697031 
L 320.432048 -136.728198 
L 318.804175 -134.759364 
L 317.108507 -132.790531 
L 315.376523 -130.821697 
L 313.644135 -128.852864 
L 311.947939 -126.88403 
L 310.321795 -124.915197 
L 308.79416 -122.946363 
L 307.386374 -120.977529 
L 306.111996 -119.008696 
L 304.977082 -117.039862 
L 303.981184 -115.071029 
L 303.118781 -113.102195 
L 302.38086 -111.133362 
L 301.756379 -109.164528 
L 301.233459 -107.195694 
L 300.800228 -105.226861 
L 300.445339 -103.258027 
L 300.158213 -101.289194 
L 299.92911 -99.32036 
L 299.749121 -97.351527 
L 299.610134 -95.382693 
L 299.50482 -93.41386 
z
" style="stroke: #3d3d3d; stroke-width: 1.25"/>
    </defs>
    <g clip-path="url(#p8a64a17981)">
     <use xlink:href="#me92fd62af6" x="0" y="360" style="fill: #e1812c; stroke: #3d3d3d; stroke-width: 1.25"/>
    </g>
   </g>
   <g id="FillBetweenPolyCollection_3">
    <defs>
     <path id="m0d90a78bb2" d="M 439.121165 -94.840976 
L 438.378835 -94.840976 
L 438.250988 -96.838851 
L 438.090562 -98.836725 
L 437.892717 -100.834599 
L 437.652529 -102.832473 
L 437.364926 -104.830347 
L 437.024496 -106.828222 
L 436.625205 -108.826096 
L 436.160025 -110.82397 
L 435.620595 -112.821844 
L 434.997002 -114.819718 
L 434.277841 -116.817593 
L 433.450673 -118.815467 
L 432.502983 -120.813341 
L 431.423647 -122.811215 
L 430.204815 -124.809089 
L 428.844011 -126.806964 
L 427.346129 -128.804838 
L 425.724966 -130.802712 
L 424.0039 -132.800586 
L 422.215415 -134.79846 
L 420.399319 -136.796334 
L 418.599684 -138.794209 
L 416.860782 -140.792083 
L 415.222465 -142.789957 
L 413.715599 -144.787831 
L 412.358188 -146.785705 
L 411.15278 -148.78358 
L 410.085561 -150.781454 
L 409.127328 -152.779328 
L 408.236259 -154.777202 
L 407.362148 -156.775076 
L 406.451582 -158.772951 
L 405.45345 -160.770825 
L 404.324169 -162.768699 
L 403.032084 -164.766573 
L 401.560668 -166.764447 
L 399.910324 -168.762321 
L 398.098746 -170.760196 
L 396.159956 -172.75807 
L 394.142222 -174.755944 
L 392.105116 -176.753818 
L 390.11596 -178.751692 
L 388.245927 -180.749567 
L 386.566021 -182.747441 
L 385.143129 -184.745315 
L 384.036352 -186.743189 
L 383.293797 -188.741063 
L 382.95 -190.738938 
L 383.024136 -192.736812 
L 383.519138 -194.734686 
L 384.421793 -196.73256 
L 385.703803 -198.730434 
L 387.323746 -200.728308 
L 389.229788 -202.726183 
L 391.362947 -204.724057 
L 393.660659 -206.721931 
L 396.060408 -208.719805 
L 398.503142 -210.717679 
L 400.93626 -212.715554 
L 403.315965 -214.713428 
L 405.608828 -216.711302 
L 407.79247 -218.709176 
L 409.855344 -220.70705 
L 411.795654 -222.704925 
L 413.619553 -224.702799 
L 415.338813 -226.700673 
L 416.968217 -228.698547 
L 418.522966 -230.696421 
L 420.01637 -232.694295 
L 421.458066 -234.69217 
L 422.852939 -236.690044 
L 424.200807 -238.687918 
L 425.496877 -240.685792 
L 426.732832 -242.683666 
L 427.898377 -244.681541 
L 428.983002 -246.679415 
L 429.977708 -248.677289 
L 430.876472 -250.675163 
L 431.677251 -252.673037 
L 432.382434 -254.670912 
L 432.998679 -256.668786 
L 433.536223 -258.66666 
L 434.007757 -260.664534 
L 434.427068 -262.662408 
L 434.807632 -264.660283 
L 435.161357 -266.658157 
L 435.49763 -268.656031 
L 435.822777 -270.653905 
L 436.139948 -272.651779 
L 436.449411 -274.649653 
L 436.749157 -276.647528 
L 437.035684 -278.645402 
L 437.304843 -280.643276 
L 437.552609 -282.64115 
L 437.775692 -284.639024 
L 437.97194 -286.636899 
L 438.140513 -288.634773 
L 438.281859 -290.632647 
L 438.397535 -292.630521 
L 439.102465 -292.630521 
L 439.102465 -292.630521 
L 439.218141 -290.632647 
L 439.359487 -288.634773 
L 439.52806 -286.636899 
L 439.724308 -284.639024 
L 439.947391 -282.64115 
L 440.195157 -280.643276 
L 440.464316 -278.645402 
L 440.750843 -276.647528 
L 441.050589 -274.649653 
L 441.360052 -272.651779 
L 441.677223 -270.653905 
L 442.00237 -268.656031 
L 442.338643 -266.658157 
L 442.692368 -264.660283 
L 443.072932 -262.662408 
L 443.492243 -260.664534 
L 443.963777 -258.66666 
L 444.501321 -256.668786 
L 445.117566 -254.670912 
L 445.822749 -252.673037 
L 446.623528 -250.675163 
L 447.522292 -248.677289 
L 448.516998 -246.679415 
L 449.601623 -244.681541 
L 450.767168 -242.683666 
L 452.003123 -240.685792 
L 453.299193 -238.687918 
L 454.647061 -236.690044 
L 456.041934 -234.69217 
L 457.48363 -232.694295 
L 458.977034 -230.696421 
L 460.531783 -228.698547 
L 462.161187 -226.700673 
L 463.880447 -224.702799 
L 465.704346 -222.704925 
L 467.644656 -220.70705 
L 469.70753 -218.709176 
L 471.891172 -216.711302 
L 474.184035 -214.713428 
L 476.56374 -212.715554 
L 478.996858 -210.717679 
L 481.439592 -208.719805 
L 483.839341 -206.721931 
L 486.137053 -204.724057 
L 488.270212 -202.726183 
L 490.176254 -200.728308 
L 491.796197 -198.730434 
L 493.078207 -196.73256 
L 493.980862 -194.734686 
L 494.475864 -192.736812 
L 494.55 -190.738938 
L 494.206203 -188.741063 
L 493.463648 -186.743189 
L 492.356871 -184.745315 
L 490.933979 -182.747441 
L 489.254073 -180.749567 
L 487.38404 -178.751692 
L 485.394884 -176.753818 
L 483.357778 -174.755944 
L 481.340044 -172.75807 
L 479.401254 -170.760196 
L 477.589676 -168.762321 
L 475.939332 -166.764447 
L 474.467916 -164.766573 
L 473.175831 -162.768699 
L 472.04655 -160.770825 
L 471.048418 -158.772951 
L 470.137852 -156.775076 
L 469.263741 -154.777202 
L 468.372672 -152.779328 
L 467.414439 -150.781454 
L 466.34722 -148.78358 
L 465.141812 -146.785705 
L 463.784401 -144.787831 
L 462.277535 -142.789957 
L 460.639218 -140.792083 
L 458.900316 -138.794209 
L 457.100681 -136.796334 
L 455.284585 -134.79846 
L 453.4961 -132.800586 
L 451.775034 -130.802712 
L 450.153871 -128.804838 
L 448.655989 -126.806964 
L 447.295185 -124.809089 
L 446.076353 -122.811215 
L 444.997017 -120.813341 
L 444.049327 -118.815467 
L 443.222159 -116.817593 
L 442.502998 -114.819718 
L 441.879405 -112.821844 
L 441.339975 -110.82397 
L 440.874795 -108.826096 
L 440.475504 -106.828222 
L 440.135074 -104.830347 
L 439.847471 -102.832473 
L 439.607283 -100.834599 
L 439.409438 -98.836725 
L 439.249012 -96.838851 
L 439.121165 -94.840976 
z
" style="stroke: #3d3d3d; stroke-width: 1.25"/>
    </defs>
    <g clip-path="url(#p8a64a17981)">
     <use xlink:href="#m0d90a78bb2" x="0" y="360" style="fill: #3a923a; stroke: #3d3d3d; stroke-width: 1.25"/>
    </g>
   </g>
   <g id="FillBetweenPolyCollection_4">
    <defs>
     <path id="mfabe579654" d="M 579.091997 -71.770442 
L 577.408003 -71.770442 
L 577.153155 -74.115009 
L 576.836645 -76.459577 
L 576.448202 -78.804144 
L 575.977059 -81.148712 
L 575.412238 -83.493279 
L 574.742903 -85.837846 
L 573.958775 -88.182414 
L 573.050597 -90.526981 
L 572.01063 -92.871549 
L 570.833161 -95.216116 
L 569.514993 -97.560684 
L 568.055884 -99.905251 
L 566.458897 -102.249818 
L 564.730639 -104.594386 
L 562.88134 -106.938953 
L 560.924766 -109.283521 
L 558.877937 -111.628088 
L 556.760661 -113.972655 
L 554.594884 -116.317223 
L 552.403904 -118.66179 
L 550.211479 -121.006358 
L 548.040892 -123.350925 
L 545.914042 -125.695492 
L 543.850613 -128.04006 
L 541.867392 -130.384627 
L 539.977784 -132.729195 
L 538.191541 -135.073762 
L 536.514733 -137.41833 
L 534.949939 -139.762897 
L 533.496647 -142.107464 
L 532.151797 -144.452032 
L 530.910451 -146.796599 
L 529.76651 -149.141167 
L 528.713446 -151.485734 
L 527.745003 -153.830301 
L 526.855824 -156.174869 
L 526.041993 -158.519436 
L 525.301455 -160.864004 
L 524.634303 -163.208571 
L 524.042922 -165.553138 
L 523.531976 -167.897706 
L 523.108213 -170.242273 
L 522.780104 -172.586841 
L 522.557312 -174.931408 
L 522.45 -177.275976 
L 522.468026 -179.620543 
L 522.620076 -181.96511 
L 522.912802 -184.309678 
L 523.350056 -186.654245 
L 523.932302 -188.998813 
L 524.656291 -191.34338 
L 525.515049 -193.687947 
L 526.498212 -196.032515 
L 527.592688 -198.377082 
L 528.783588 -200.72165 
L 530.055331 -203.066217 
L 531.392787 -205.410784 
L 532.782327 -207.755352 
L 534.212633 -210.099919 
L 535.675163 -212.444487 
L 537.164215 -214.789054 
L 538.676565 -217.133622 
L 540.210753 -219.478189 
L 541.766099 -221.822756 
L 543.341622 -224.167324 
L 544.935013 -226.511891 
L 546.541822 -228.856459 
L 548.154995 -231.201026 
L 549.764847 -233.545593 
L 551.359464 -235.890161 
L 552.925513 -238.234728 
L 554.449334 -240.579296 
L 555.918167 -242.923863 
L 557.321355 -245.26843 
L 558.651338 -247.612998 
L 559.904332 -249.957565 
L 561.080576 -252.302133 
L 562.18414 -254.6467 
L 563.22232 -256.991268 
L 564.204692 -259.335835 
L 565.141976 -261.680402 
L 566.044826 -264.02497 
L 566.922707 -266.369537 
L 567.782979 -268.714105 
L 568.630274 -271.058672 
L 569.466216 -273.403239 
L 570.289485 -275.747807 
L 571.096188 -278.092374 
L 571.880458 -280.436942 
L 572.635207 -282.781509 
L 573.352919 -285.126076 
L 574.026407 -287.470644 
L 574.649461 -289.815211 
L 575.217327 -292.159779 
L 575.727007 -294.504346 
L 576.177365 -296.848914 
L 576.569068 -299.193481 
L 576.90439 -301.538048 
L 577.18692 -303.882616 
L 579.31308 -303.882616 
L 579.31308 -303.882616 
L 579.59561 -301.538048 
L 579.930932 -299.193481 
L 580.322635 -296.848914 
L 580.772993 -294.504346 
L 581.282673 -292.159779 
L 581.850539 -289.815211 
L 582.473593 -287.470644 
L 583.147081 -285.126076 
L 583.864793 -282.781509 
L 584.619542 -280.436942 
L 585.403812 -278.092374 
L 586.210515 -275.747807 
L 587.033784 -273.403239 
L 587.869726 -271.058672 
L 588.717021 -268.714105 
L 589.577293 -266.369537 
L 590.455174 -264.02497 
L 591.358024 -261.680402 
L 592.295308 -259.335835 
L 593.27768 -256.991268 
L 594.31586 -254.6467 
L 595.419424 -252.302133 
L 596.595668 -249.957565 
L 597.848662 -247.612998 
L 599.178645 -245.26843 
L 600.581833 -242.923863 
L 602.050666 -240.579296 
L 603.574487 -238.234728 
L 605.140536 -235.890161 
L 606.735153 -233.545593 
L 608.345005 -231.201026 
L 609.958178 -228.856459 
L 611.564987 -226.511891 
L 613.158378 -224.167324 
L 614.733901 -221.822756 
L 616.289247 -219.478189 
L 617.823435 -217.133622 
L 619.335785 -214.789054 
L 620.824837 -212.444487 
L 622.287367 -210.099919 
L 623.717673 -207.755352 
L 625.107213 -205.410784 
L 626.444669 -203.066217 
L 627.716412 -200.72165 
L 628.907312 -198.377082 
L 630.001788 -196.032515 
L 630.984951 -193.687947 
L 631.843709 -191.34338 
L 632.567698 -188.998813 
L 633.149944 -186.654245 
L 633.587198 -184.309678 
L 633.879924 -181.96511 
L 634.031974 -179.620543 
L 634.05 -177.275976 
L 633.942688 -174.931408 
L 633.719896 -172.586841 
L 633.391787 -170.242273 
L 632.968024 -167.897706 
L 632.457078 -165.553138 
L 631.865697 -163.208571 
L 631.198545 -160.864004 
L 630.458007 -158.519436 
L 629.644176 -156.174869 
L 628.754997 -153.830301 
L 627.786554 -151.485734 
L 626.73349 -149.141167 
L 625.589549 -146.796599 
L 624.348203 -144.452032 
L 623.003353 -142.107464 
L 621.550061 -139.762897 
L 619.985267 -137.41833 
L 618.308459 -135.073762 
L 616.522216 -132.729195 
L 614.632608 -130.384627 
L 612.649387 -128.04006 
L 610.585958 -125.695492 
L 608.459108 -123.350925 
L 606.288521 -121.006358 
L 604.096096 -118.66179 
L 601.905116 -116.317223 
L 599.739339 -113.972655 
L 597.622063 -111.628088 
L 595.575234 -109.283521 
L 593.61866 -106.938953 
L 591.769361 -104.594386 
L 590.041103 -102.249818 
L 588.444116 -99.905251 
L 586.985007 -97.560684 
L 585.666839 -95.216116 
L 584.48937 -92.871549 
L 583.449403 -90.526981 
L 582.541225 -88.182414 
L 581.757097 -85.837846 
L 581.087762 -83.493279 
L 580.522941 -81.148712 
L 580.051798 -78.804144 
L 579.663355 -76.459577 
L 579.346845 -74.115009 
L 579.091997 -71.770442 
z
" style="stroke: #3d3d3d; stroke-width: 1.25"/>
    </defs>
    <g clip-path="url(#p8a64a17981)">
     <use xlink:href="#mfabe579654" x="0" y="360" style="fill: #c03d3e; stroke: #3d3d3d; stroke-width: 1.25"/>
    </g>
   </g>
   <g id="matplotlib.axis_1">
    <g id="xtick_1">
     <g id="line2d_1">
      <defs>
       <path id="m29cb98bd37" d="M 0 0 
L 0 3.5 
" style="stroke: #000000; stroke-width: 0.8"/>
      </defs>
      <g>
       <use xlink:href="#m29cb98bd37" x="159.75" y="320.4" style="stroke: #000000; stroke-width: 0.8"/>
      </g>
     </g>
     <g id="text_1">
      <!-- Spurious -->
      <g transform="translate(137.955469 334.998438) scale(0.1 -0.1)">
       <defs>
        <path id="DejaVuSans-53" d="M 3425 4513 
L 3425 3897 
Q 3066 4069 2747 4153 
Q 2428 4238 2131 4238 
Q 1616 4238 1336 4038 
Q 1056 3838 1056 3469 
Q 1056 3159 1242 3001 
Q 1428 2844 1947 2747 
L 2328 2669 
Q 3034 2534 3370 2195 
Q 3706 1856 3706 1288 
Q 3706 609 3251 259 
Q 2797 -91 1919 -91 
Q 1588 -91 1214 -16 
Q 841 59 441 206 
L 441 856 
Q 825 641 1194 531 
Q 1563 422 1919 422 
Q 2459 422 2753 634 
Q 3047 847 3047 1241 
Q 3047 1584 2836 1778 
Q 2625 1972 2144 2069 
L 1759 2144 
Q 1053 2284 737 2584 
Q 422 2884 422 3419 
Q 422 4038 858 4394 
Q 1294 4750 2059 4750 
Q 2388 4750 2728 4690 
Q 3069 4631 3425 4513 
z
" transform="scale(0.015625)"/>
        <path id="DejaVuSans-70" d="M 1159 525 
L 1159 -1331 
L 581 -1331 
L 581 3500 
L 1159 3500 
L 1159 2969 
Q 1341 3281 1617 3432 
Q 1894 3584 2278 3584 
Q 2916 3584 3314 3078 
Q 3713 2572 3713 1747 
Q 3713 922 3314 415 
Q 2916 -91 2278 -91 
Q 1894 -91 1617 61 
Q 1341 213 1159 525 
z
M 3116 1747 
Q 3116 2381 2855 2742 
Q 2594 3103 2138 3103 
Q 1681 3103 1420 2742 
Q 1159 2381 1159 1747 
Q 1159 1113 1420 752 
Q 1681 391 2138 391 
Q 2594 391 2855 752 
Q 3116 1113 3116 1747 
z
" transform="scale(0.015625)"/>
        <path id="DejaVuSans-75" d="M 544 1381 
L 544 3500 
L 1119 3500 
L 1119 1403 
Q 1119 906 1312 657 
Q 1506 409 1894 409 
Q 2359 409 2629 706 
Q 2900 1003 2900 1516 
L 2900 3500 
L 3475 3500 
L 3475 0 
L 2900 0 
L 2900 538 
Q 2691 219 2414 64 
Q 2138 -91 1772 -91 
Q 1169 -91 856 284 
Q 544 659 544 1381 
z
M 1991 3584 
L 1991 3584 
z
" transform="scale(0.015625)"/>
        <path id="DejaVuSans-72" d="M 2631 2963 
Q 2534 3019 2420 3045 
Q 2306 3072 2169 3072 
Q 1681 3072 1420 2755 
Q 1159 2438 1159 1844 
L 1159 0 
L 581 0 
L 581 3500 
L 1159 3500 
L 1159 2956 
Q 1341 3275 1631 3429 
Q 1922 3584 2338 3584 
Q 2397 3584 2469 3576 
Q 2541 3569 2628 3553 
L 2631 2963 
z
" transform="scale(0.015625)"/>
        <path id="DejaVuSans-69" d="M 603 3500 
L 1178 3500 
L 1178 0 
L 603 0 
L 603 3500 
z
M 603 4863 
L 1178 4863 
L 1178 4134 
L 603 4134 
L 603 4863 
z
" transform="scale(0.015625)"/>
        <path id="DejaVuSans-6f" d="M 1959 3097 
Q 1497 3097 1228 2736 
Q 959 2375 959 1747 
Q 959 1119 1226 758 
Q 1494 397 1959 397 
Q 2419 397 2687 759 
Q 2956 1122 2956 1747 
Q 2956 2369 2687 2733 
Q 2419 3097 1959 3097 
z
M 1959 3584 
Q 2709 3584 3137 3096 
Q 3566 2609 3566 1747 
Q 3566 888 3137 398 
Q 2709 -91 1959 -91 
Q 1206 -91 779 398 
Q 353 888 353 1747 
Q 353 2609 779 3096 
Q 1206 3584 1959 3584 
z
" transform="scale(0.015625)"/>
        <path id="DejaVuSans-73" d="M 2834 3397 
L 2834 2853 
Q 2591 2978 2328 3040 
Q 2066 3103 1784 3103 
Q 1356 3103 1142 2972 
Q 928 2841 928 2578 
Q 928 2378 1081 2264 
Q 1234 2150 1697 2047 
L 1894 2003 
Q 2506 1872 2764 1633 
Q 3022 1394 3022 966 
Q 3022 478 2636 193 
Q 2250 -91 1575 -91 
Q 1294 -91 989 -36 
Q 684 19 347 128 
L 347 722 
Q 666 556 975 473 
Q 1284 391 1588 391 
Q 1994 391 2212 530 
Q 2431 669 2431 922 
Q 2431 1156 2273 1281 
Q 2116 1406 1581 1522 
L 1381 1569 
Q 847 1681 609 1914 
Q 372 2147 372 2553 
Q 372 3047 722 3315 
Q 1072 3584 1716 3584 
Q 2034 3584 2315 3537 
Q 2597 3491 2834 3397 
z
" transform="scale(0.015625)"/>
       </defs>
       <use xlink:href="#DejaVuSans-53"/>
       <use xlink:href="#DejaVuSans-70" transform="translate(63.476562 0)"/>
       <use xlink:href="#DejaVuSans-75" transform="translate(126.953125 0)"/>
       <use xlink:href="#DejaVuSans-72" transform="translate(190.332031 0)"/>
       <use xlink:href="#DejaVuSans-69" transform="translate(231.445312 0)"/>
       <use xlink:href="#DejaVuSans-6f" transform="translate(259.228516 0)"/>
       <use xlink:href="#DejaVuSans-75" transform="translate(320.410156 0)"/>
       <use xlink:href="#DejaVuSans-73" transform="translate(383.789062 0)"/>
      </g>
     </g>
    </g>
    <g id="xtick_2">
     <g id="line2d_2">
      <g>
       <use xlink:href="#m29cb98bd37" x="299.25" y="320.4" style="stroke: #000000; stroke-width: 0.8"/>
      </g>
     </g>
     <g id="text_2">
      <!-- Specific -->
      <g transform="translate(279.788281 334.998438) scale(0.1 -0.1)">
       <defs>
        <path id="DejaVuSans-65" d="M 3597 1894 
L 3597 1613 
L 953 1613 
Q 991 1019 1311 708 
Q 1631 397 2203 397 
Q 2534 397 2845 478 
Q 3156 559 3463 722 
L 3463 178 
Q 3153 47 2828 -22 
Q 2503 -91 2169 -91 
Q 1331 -91 842 396 
Q 353 884 353 1716 
Q 353 2575 817 3079 
Q 1281 3584 2069 3584 
Q 2775 3584 3186 3129 
Q 3597 2675 3597 1894 
z
M 3022 2063 
Q 3016 2534 2758 2815 
Q 2500 3097 2075 3097 
Q 1594 3097 1305 2825 
Q 1016 2553 972 2059 
L 3022 2063 
z
" transform="scale(0.015625)"/>
        <path id="DejaVuSans-63" d="M 3122 3366 
L 3122 2828 
Q 2878 2963 2633 3030 
Q 2388 3097 2138 3097 
Q 1578 3097 1268 2742 
Q 959 2388 959 1747 
Q 959 1106 1268 751 
Q 1578 397 2138 397 
Q 2388 397 2633 464 
Q 2878 531 3122 666 
L 3122 134 
Q 2881 22 2623 -34 
Q 2366 -91 2075 -91 
Q 1284 -91 818 406 
Q 353 903 353 1747 
Q 353 2603 823 3093 
Q 1294 3584 2113 3584 
Q 2378 3584 2631 3529 
Q 2884 3475 3122 3366 
z
" transform="scale(0.015625)"/>
        <path id="DejaVuSans-66" d="M 2375 4863 
L 2375 4384 
L 1825 4384 
Q 1516 4384 1395 4259 
Q 1275 4134 1275 3809 
L 1275 3500 
L 2222 3500 
L 2222 3053 
L 1275 3053 
L 1275 0 
L 697 0 
L 697 3053 
L 147 3053 
L 147 3500 
L 697 3500 
L 697 3744 
Q 697 4328 969 4595 
Q 1241 4863 1831 4863 
L 2375 4863 
z
" transform="scale(0.015625)"/>
       </defs>
       <use xlink:href="#DejaVuSans-53"/>
       <use xlink:href="#DejaVuSans-70" transform="translate(63.476562 0)"/>
       <use xlink:href="#DejaVuSans-65" transform="translate(126.953125 0)"/>
       <use xlink:href="#DejaVuSans-63" transform="translate(188.476562 0)"/>
       <use xlink:href="#DejaVuSans-69" transform="translate(243.457031 0)"/>
       <use xlink:href="#DejaVuSans-66" transform="translate(271.240234 0)"/>
       <use xlink:href="#DejaVuSans-69" transform="translate(306.445312 0)"/>
       <use xlink:href="#DejaVuSans-63" transform="translate(334.228516 0)"/>
      </g>
     </g>
    </g>
    <g id="xtick_3">
     <g id="line2d_3">
      <g>
       <use xlink:href="#m29cb98bd37" x="438.75" y="320.4" style="stroke: #000000; stroke-width: 0.8"/>
      </g>
     </g>
     <g id="text_3">
      <!-- Non-specific -->
      <g transform="translate(408.085156 334.998438) scale(0.1 -0.1)">
       <defs>
        <path id="DejaVuSans-4e" d="M 628 4666 
L 1478 4666 
L 3547 763 
L 3547 4666 
L 4159 4666 
L 4159 0 
L 3309 0 
L 1241 3903 
L 1241 0 
L 628 0 
L 628 4666 
z
" transform="scale(0.015625)"/>
        <path id="DejaVuSans-6e" d="M 3513 2113 
L 3513 0 
L 2938 0 
L 2938 2094 
Q 2938 2591 2744 2837 
Q 2550 3084 2163 3084 
Q 1697 3084 1428 2787 
Q 1159 2491 1159 1978 
L 1159 0 
L 581 0 
L 581 3500 
L 1159 3500 
L 1159 2956 
Q 1366 3272 1645 3428 
Q 1925 3584 2291 3584 
Q 2894 3584 3203 3211 
Q 3513 2838 3513 2113 
z
" transform="scale(0.015625)"/>
        <path id="DejaVuSans-2d" d="M 313 2009 
L 1997 2009 
L 1997 1497 
L 313 1497 
L 313 2009 
z
" transform="scale(0.015625)"/>
       </defs>
       <use xlink:href="#DejaVuSans-4e"/>
       <use xlink:href="#DejaVuSans-6f" transform="translate(74.804688 0)"/>
       <use xlink:href="#DejaVuSans-6e" transform="translate(135.986328 0)"/>
       <use xlink:href="#DejaVuSans-2d" transform="translate(199.365234 0)"/>
       <use xlink:href="#DejaVuSans-73" transform="translate(235.449219 0)"/>
       <use xlink:href="#DejaVuSans-70" transform="translate(287.548828 0)"/>
       <use xlink:href="#DejaVuSans-65" transform="translate(351.025391 0)"/>
       <use xlink:href="#DejaVuSans-63" transform="translate(412.548828 0)"/>
       <use xlink:href="#DejaVuSans-69" transform="translate(467.529297 0)"/>
       <use xlink:href="#DejaVuSans-66" transform="translate(495.3125 0)"/>
       <use xlink:href="#DejaVuSans-69" transform="translate(530.517578 0)"/>
       <use xlink:href="#DejaVuSans-63" transform="translate(558.300781 0)"/>
      </g>
     </g>
    </g>
    <g id="xtick_4">
     <g id="line2d_4">
      <g>
       <use xlink:href="#m29cb98bd37" x="578.25" y="320.4" style="stroke: #000000; stroke-width: 0.8"/>
      </g>
     </g>
     <g id="text_4">
      <!-- No -->
      <g transform="translate(571.45 334.998438) scale(0.1 -0.1)">
       <use xlink:href="#DejaVuSans-4e"/>
       <use xlink:href="#DejaVuSans-6f" transform="translate(74.804688 0)"/>
      </g>
     </g>
    </g>
    <g id="text_5">
     <!-- Connectivity category -->
     <g transform="translate(313.98125 348.676562) scale(0.1 -0.1)">
      <defs>
       <path id="DejaVuSans-43" d="M 4122 4306 
L 4122 3641 
Q 3803 3938 3442 4084 
Q 3081 4231 2675 4231 
Q 1875 4231 1450 3742 
Q 1025 3253 1025 2328 
Q 1025 1406 1450 917 
Q 1875 428 2675 428 
Q 3081 428 3442 575 
Q 3803 722 4122 1019 
L 4122 359 
Q 3791 134 3420 21 
Q 3050 -91 2638 -91 
Q 1578 -91 968 557 
Q 359 1206 359 2328 
Q 359 3453 968 4101 
Q 1578 4750 2638 4750 
Q 3056 4750 3426 4639 
Q 3797 4528 4122 4306 
z
" transform="scale(0.015625)"/>
       <path id="DejaVuSans-74" d="M 1172 4494 
L 1172 3500 
L 2356 3500 
L 2356 3053 
L 1172 3053 
L 1172 1153 
Q 1172 725 1289 603 
Q 1406 481 1766 481 
L 2356 481 
L 2356 0 
L 1766 0 
Q 1100 0 847 248 
Q 594 497 594 1153 
L 594 3053 
L 172 3053 
L 172 3500 
L 594 3500 
L 594 4494 
L 1172 4494 
z
" transform="scale(0.015625)"/>
       <path id="DejaVuSans-76" d="M 191 3500 
L 800 3500 
L 1894 563 
L 2988 3500 
L 3597 3500 
L 2284 0 
L 1503 0 
L 191 3500 
z
" transform="scale(0.015625)"/>
       <path id="DejaVuSans-79" d="M 2059 -325 
Q 1816 -950 1584 -1140 
Q 1353 -1331 966 -1331 
L 506 -1331 
L 506 -850 
L 844 -850 
Q 1081 -850 1212 -737 
Q 1344 -625 1503 -206 
L 1606 56 
L 191 3500 
L 800 3500 
L 1894 763 
L 2988 3500 
L 3597 3500 
L 2059 -325 
z
" transform="scale(0.015625)"/>
       <path id="DejaVuSans-20" transform="scale(0.015625)"/>
       <path id="DejaVuSans-61" d="M 2194 1759 
Q 1497 1759 1228 1600 
Q 959 1441 959 1056 
Q 959 750 1161 570 
Q 1363 391 1709 391 
Q 2188 391 2477 730 
Q 2766 1069 2766 1631 
L 2766 1759 
L 2194 1759 
z
M 3341 1997 
L 3341 0 
L 2766 0 
L 2766 531 
Q 2569 213 2275 61 
Q 1981 -91 1556 -91 
Q 1019 -91 701 211 
Q 384 513 384 1019 
Q 384 1609 779 1909 
Q 1175 2209 1959 2209 
L 2766 2209 
L 2766 2266 
Q 2766 2663 2505 2880 
Q 2244 3097 1772 3097 
Q 1472 3097 1187 3025 
Q 903 2953 641 2809 
L 641 3341 
Q 956 3463 1253 3523 
Q 1550 3584 1831 3584 
Q 2591 3584 2966 3190 
Q 3341 2797 3341 1997 
z
" transform="scale(0.015625)"/>
       <path id="DejaVuSans-67" d="M 2906 1791 
Q 2906 2416 2648 2759 
Q 2391 3103 1925 3103 
Q 1463 3103 1205 2759 
Q 947 2416 947 1791 
Q 947 1169 1205 825 
Q 1463 481 1925 481 
Q 2391 481 2648 825 
Q 2906 1169 2906 1791 
z
M 3481 434 
Q 3481 -459 3084 -895 
Q 2688 -1331 1869 -1331 
Q 1566 -1331 1297 -1286 
Q 1028 -1241 775 -1147 
L 775 -588 
Q 1028 -725 1275 -790 
Q 1522 -856 1778 -856 
Q 2344 -856 2625 -561 
Q 2906 -266 2906 331 
L 2906 616 
Q 2728 306 2450 153 
Q 2172 0 1784 0 
Q 1141 0 747 490 
Q 353 981 353 1791 
Q 353 2603 747 3093 
Q 1141 3584 1784 3584 
Q 2172 3584 2450 3431 
Q 2728 3278 2906 2969 
L 2906 3500 
L 3481 3500 
L 3481 434 
z
" transform="scale(0.015625)"/>
      </defs>
      <use xlink:href="#DejaVuSans-43"/>
      <use xlink:href="#DejaVuSans-6f" transform="translate(69.824219 0)"/>
      <use xlink:href="#DejaVuSans-6e" transform="translate(131.005859 0)"/>
      <use xlink:href="#DejaVuSans-6e" transform="translate(194.384766 0)"/>
      <use xlink:href="#DejaVuSans-65" transform="translate(257.763672 0)"/>
      <use xlink:href="#DejaVuSans-63" transform="translate(319.287109 0)"/>
      <use xlink:href="#DejaVuSans-74" transform="translate(374.267578 0)"/>
      <use xlink:href="#DejaVuSans-69" transform="translate(413.476562 0)"/>
      <use xlink:href="#DejaVuSans-76" transform="translate(441.259766 0)"/>
      <use xlink:href="#DejaVuSans-69" transform="translate(500.439453 0)"/>
      <use xlink:href="#DejaVuSans-74" transform="translate(528.222656 0)"/>
      <use xlink:href="#DejaVuSans-79" transform="translate(567.431641 0)"/>
      <use xlink:href="#DejaVuSans-20" transform="translate(626.611328 0)"/>
      <use xlink:href="#DejaVuSans-63" transform="translate(658.398438 0)"/>
      <use xlink:href="#DejaVuSans-61" transform="translate(713.378906 0)"/>
      <use xlink:href="#DejaVuSans-74" transform="translate(774.658203 0)"/>
      <use xlink:href="#DejaVuSans-65" transform="translate(813.867188 0)"/>
      <use xlink:href="#DejaVuSans-67" transform="translate(875.390625 0)"/>
      <use xlink:href="#DejaVuSans-6f" transform="translate(938.867188 0)"/>
      <use xlink:href="#DejaVuSans-72" transform="translate(1000.048828 0)"/>
      <use xlink:href="#DejaVuSans-79" transform="translate(1041.162109 0)"/>
     </g>
    </g>
   </g>
   <g id="matplotlib.axis_2">
    <g id="ytick_1">
     <g id="line2d_5">
      <defs>
       <path id="m2f16e0512c" d="M 0 0 
L -3.5 0 
" style="stroke: #000000; stroke-width: 0.8"/>
      </defs>
      <g>
       <use xlink:href="#m2f16e0512c" x="90" y="301.243798" style="stroke: #000000; stroke-width: 0.8"/>
      </g>
     </g>
     <g id="text_6">
      <!-- −10 -->
      <g transform="translate(61.895313 305.043017) scale(0.1 -0.1)">
       <defs>
        <path id="DejaVuSans-2212" d="M 678 2272 
L 4684 2272 
L 4684 1741 
L 678 1741 
L 678 2272 
z
" transform="scale(0.015625)"/>
        <path id="DejaVuSans-31" d="M 794 531 
L 1825 531 
L 1825 4091 
L 703 3866 
L 703 4441 
L 1819 4666 
L 2450 4666 
L 2450 531 
L 3481 531 
L 3481 0 
L 794 0 
L 794 531 
z
" transform="scale(0.015625)"/>
        <path id="DejaVuSans-30" d="M 2034 4250 
Q 1547 4250 1301 3770 
Q 1056 3291 1056 2328 
Q 1056 1369 1301 889 
Q 1547 409 2034 409 
Q 2525 409 2770 889 
Q 3016 1369 3016 2328 
Q 3016 3291 2770 3770 
Q 2525 4250 2034 4250 
z
M 2034 4750 
Q 2819 4750 3233 4129 
Q 3647 3509 3647 2328 
Q 3647 1150 3233 529 
Q 2819 -91 2034 -91 
Q 1250 -91 836 529 
Q 422 1150 422 2328 
Q 422 3509 836 4129 
Q 1250 4750 2034 4750 
z
" transform="scale(0.015625)"/>
       </defs>
       <use xlink:href="#DejaVuSans-2212"/>
       <use xlink:href="#DejaVuSans-31" transform="translate(83.789062 0)"/>
       <use xlink:href="#DejaVuSans-30" transform="translate(147.412109 0)"/>
      </g>
     </g>
    </g>
    <g id="ytick_2">
     <g id="line2d_6">
      <g>
       <use xlink:href="#m2f16e0512c" x="90" y="267.554976" style="stroke: #000000; stroke-width: 0.8"/>
      </g>
     </g>
     <g id="text_7">
      <!-- 0 -->
      <g transform="translate(76.6375 271.354194) scale(0.1 -0.1)">
       <use xlink:href="#DejaVuSans-30"/>
      </g>
     </g>
    </g>
    <g id="ytick_3">
     <g id="line2d_7">
      <g>
       <use xlink:href="#m2f16e0512c" x="90" y="233.866153" style="stroke: #000000; stroke-width: 0.8"/>
      </g>
     </g>
     <g id="text_8">
      <!-- 10 -->
      <g transform="translate(70.275 237.665372) scale(0.1 -0.1)">
       <use xlink:href="#DejaVuSans-31"/>
       <use xlink:href="#DejaVuSans-30" transform="translate(63.623047 0)"/>
      </g>
     </g>
    </g>
    <g id="ytick_4">
     <g id="line2d_8">
      <g>
       <use xlink:href="#m2f16e0512c" x="90" y="200.17733" style="stroke: #000000; stroke-width: 0.8"/>
      </g>
     </g>
     <g id="text_9">
      <!-- 20 -->
      <g transform="translate(70.275 203.976549) scale(0.1 -0.1)">
       <defs>
        <path id="DejaVuSans-32" d="M 1228 531 
L 3431 531 
L 3431 0 
L 469 0 
L 469 531 
Q 828 903 1448 1529 
Q 2069 2156 2228 2338 
Q 2531 2678 2651 2914 
Q 2772 3150 2772 3378 
Q 2772 3750 2511 3984 
Q 2250 4219 1831 4219 
Q 1534 4219 1204 4116 
Q 875 4013 500 3803 
L 500 4441 
Q 881 4594 1212 4672 
Q 1544 4750 1819 4750 
Q 2544 4750 2975 4387 
Q 3406 4025 3406 3419 
Q 3406 3131 3298 2873 
Q 3191 2616 2906 2266 
Q 2828 2175 2409 1742 
Q 1991 1309 1228 531 
z
" transform="scale(0.015625)"/>
       </defs>
       <use xlink:href="#DejaVuSans-32"/>
       <use xlink:href="#DejaVuSans-30" transform="translate(63.623047 0)"/>
      </g>
     </g>
    </g>
    <g id="ytick_5">
     <g id="line2d_9">
      <g>
       <use xlink:href="#m2f16e0512c" x="90" y="166.488508" style="stroke: #000000; stroke-width: 0.8"/>
      </g>
     </g>
     <g id="text_10">
      <!-- 30 -->
      <g transform="translate(70.275 170.287726) scale(0.1 -0.1)">
       <defs>
        <path id="DejaVuSans-33" d="M 2597 2516 
Q 3050 2419 3304 2112 
Q 3559 1806 3559 1356 
Q 3559 666 3084 287 
Q 2609 -91 1734 -91 
Q 1441 -91 1130 -33 
Q 819 25 488 141 
L 488 750 
Q 750 597 1062 519 
Q 1375 441 1716 441 
Q 2309 441 2620 675 
Q 2931 909 2931 1356 
Q 2931 1769 2642 2001 
Q 2353 2234 1838 2234 
L 1294 2234 
L 1294 2753 
L 1863 2753 
Q 2328 2753 2575 2939 
Q 2822 3125 2822 3475 
Q 2822 3834 2567 4026 
Q 2313 4219 1838 4219 
Q 1578 4219 1281 4162 
Q 984 4106 628 3988 
L 628 4550 
Q 988 4650 1302 4700 
Q 1616 4750 1894 4750 
Q 2613 4750 3031 4423 
Q 3450 4097 3450 3541 
Q 3450 3153 3228 2886 
Q 3006 2619 2597 2516 
z
" transform="scale(0.015625)"/>
       </defs>
       <use xlink:href="#DejaVuSans-33"/>
       <use xlink:href="#DejaVuSans-30" transform="translate(63.623047 0)"/>
      </g>
     </g>
    </g>
    <g id="ytick_6">
     <g id="line2d_10">
      <g>
       <use xlink:href="#m2f16e0512c" x="90" y="132.799685" style="stroke: #000000; stroke-width: 0.8"/>
      </g>
     </g>
     <g id="text_11">
      <!-- 40 -->
      <g transform="translate(70.275 136.598904) scale(0.1 -0.1)">
       <defs>
        <path id="DejaVuSans-34" d="M 2419 4116 
L 825 1625 
L 2419 1625 
L 2419 4116 
z
M 2253 4666 
L 3047 4666 
L 3047 1625 
L 3713 1625 
L 3713 1100 
L 3047 1100 
L 3047 0 
L 2419 0 
L 2419 1100 
L 313 1100 
L 313 1709 
L 2253 4666 
z
" transform="scale(0.015625)"/>
       </defs>
       <use xlink:href="#DejaVuSans-34"/>
       <use xlink:href="#DejaVuSans-30" transform="translate(63.623047 0)"/>
      </g>
     </g>
    </g>
    <g id="ytick_7">
     <g id="line2d_11">
      <g>
       <use xlink:href="#m2f16e0512c" x="90" y="99.110862" style="stroke: #000000; stroke-width: 0.8"/>
      </g>
     </g>
     <g id="text_12">
      <!-- 50 -->
      <g transform="translate(70.275 102.910081) scale(0.1 -0.1)">
       <defs>
        <path id="DejaVuSans-35" d="M 691 4666 
L 3169 4666 
L 3169 4134 
L 1269 4134 
L 1269 2991 
Q 1406 3038 1543 3061 
Q 1681 3084 1819 3084 
Q 2600 3084 3056 2656 
Q 3513 2228 3513 1497 
Q 3513 744 3044 326 
Q 2575 -91 1722 -91 
Q 1428 -91 1123 -41 
Q 819 9 494 109 
L 494 744 
Q 775 591 1075 516 
Q 1375 441 1709 441 
Q 2250 441 2565 725 
Q 2881 1009 2881 1497 
Q 2881 1984 2565 2268 
Q 2250 2553 1709 2553 
Q 1456 2553 1204 2497 
Q 953 2441 691 2322 
L 691 4666 
z
" transform="scale(0.015625)"/>
       </defs>
       <use xlink:href="#DejaVuSans-35"/>
       <use xlink:href="#DejaVuSans-30" transform="translate(63.623047 0)"/>
      </g>
     </g>
    </g>
    <g id="ytick_8">
     <g id="line2d_12">
      <g>
       <use xlink:href="#m2f16e0512c" x="90" y="65.422039" style="stroke: #000000; stroke-width: 0.8"/>
      </g>
     </g>
     <g id="text_13">
      <!-- 60 -->
      <g transform="translate(70.275 69.221258) scale(0.1 -0.1)">
       <defs>
        <path id="DejaVuSans-36" d="M 2113 2584 
Q 1688 2584 1439 2293 
Q 1191 2003 1191 1497 
Q 1191 994 1439 701 
Q 1688 409 2113 409 
Q 2538 409 2786 701 
Q 3034 994 3034 1497 
Q 3034 2003 2786 2293 
Q 2538 2584 2113 2584 
z
M 3366 4563 
L 3366 3988 
Q 3128 4100 2886 4159 
Q 2644 4219 2406 4219 
Q 1781 4219 1451 3797 
Q 1122 3375 1075 2522 
Q 1259 2794 1537 2939 
Q 1816 3084 2150 3084 
Q 2853 3084 3261 2657 
Q 3669 2231 3669 1497 
Q 3669 778 3244 343 
Q 2819 -91 2113 -91 
Q 1303 -91 875 529 
Q 447 1150 447 2328 
Q 447 3434 972 4092 
Q 1497 4750 2381 4750 
Q 2619 4750 2861 4703 
Q 3103 4656 3366 4563 
z
" transform="scale(0.015625)"/>
       </defs>
       <use xlink:href="#DejaVuSans-36"/>
       <use xlink:href="#DejaVuSans-30" transform="translate(63.623047 0)"/>
      </g>
     </g>
    </g>
    <g id="text_14">
     <!-- cont_variable -->
     <g transform="translate(55.5375 215.409375) rotate(-90) scale(0.1 -0.1)">
      <defs>
       <path id="DejaVuSans-5f" d="M 3263 -1063 
L 3263 -1509 
L -63 -1509 
L -63 -1063 
L 3263 -1063 
z
" transform="scale(0.015625)"/>
       <path id="DejaVuSans-62" d="M 3116 1747 
Q 3116 2381 2855 2742 
Q 2594 3103 2138 3103 
Q 1681 3103 1420 2742 
Q 1159 2381 1159 1747 
Q 1159 1113 1420 752 
Q 1681 391 2138 391 
Q 2594 391 2855 752 
Q 3116 1113 3116 1747 
z
M 1159 2969 
Q 1341 3281 1617 3432 
Q 1894 3584 2278 3584 
Q 2916 3584 3314 3078 
Q 3713 2572 3713 1747 
Q 3713 922 3314 415 
Q 2916 -91 2278 -91 
Q 1894 -91 1617 61 
Q 1341 213 1159 525 
L 1159 0 
L 581 0 
L 581 4863 
L 1159 4863 
L 1159 2969 
z
" transform="scale(0.015625)"/>
       <path id="DejaVuSans-6c" d="M 603 4863 
L 1178 4863 
L 1178 0 
L 603 0 
L 603 4863 
z
" transform="scale(0.015625)"/>
      </defs>
      <use xlink:href="#DejaVuSans-63"/>
      <use xlink:href="#DejaVuSans-6f" transform="translate(54.980469 0)"/>
      <use xlink:href="#DejaVuSans-6e" transform="translate(116.162109 0)"/>
      <use xlink:href="#DejaVuSans-74" transform="translate(179.541016 0)"/>
      <use xlink:href="#DejaVuSans-5f" transform="translate(218.75 0)"/>
      <use xlink:href="#DejaVuSans-76" transform="translate(268.75 0)"/>
      <use xlink:href="#DejaVuSans-61" transform="translate(327.929688 0)"/>
      <use xlink:href="#DejaVuSans-72" transform="translate(389.208984 0)"/>
      <use xlink:href="#DejaVuSans-69" transform="translate(430.322266 0)"/>
      <use xlink:href="#DejaVuSans-61" transform="translate(458.105469 0)"/>
      <use xlink:href="#DejaVuSans-62" transform="translate(519.384766 0)"/>
      <use xlink:href="#DejaVuSans-6c" transform="translate(582.861328 0)"/>
      <use xlink:href="#DejaVuSans-65" transform="translate(610.644531 0)"/>
     </g>
    </g>
   </g>
   <g id="patch_3">
    <path d="M 90 320.4 
L 90 43.2 
" style="fill: none; stroke: #000000; stroke-width: 0.8; stroke-linejoin: miter; stroke-linecap: square"/>
   </g>
   <g id="patch_4">
    <path d="M 648 320.4 
L 648 43.2 
" style="fill: none; stroke: #000000; stroke-width: 0.8; stroke-linejoin: miter; stroke-linecap: square"/>
   </g>
   <g id="patch_5">
    <path d="M 90 320.4 
L 648 320.4 
" style="fill: none; stroke: #000000; stroke-width: 0.8; stroke-linejoin: miter; stroke-linecap: square"/>
   </g>
   <g id="patch_6">
    <path d="M 90 43.2 
L 648 43.2 
" style="fill: none; stroke: #000000; stroke-width: 0.8; stroke-linejoin: miter; stroke-linecap: square"/>
   </g>
   <g id="PathCollection_1">
    <defs>
     <path id="m901df20ea9" d="M 0 2.5 
C 0.663008 2.5 1.29895 2.236584 1.767767 1.767767 
C 2.236584 1.29895 2.5 0.663008 2.5 0 
C 2.5 -0.663008 2.236584 -1.29895 1.767767 -1.767767 
C 1.29895 -2.236584 0.663008 -2.5 0 -2.5 
C -0.663008 -2.5 -1.29895 -2.236584 -1.767767 -1.767767 
C -2.236584 -1.29895 -2.5 -0.663008 -2.5 0 
C -2.5 0.663008 -2.236584 1.29895 -1.767767 1.767767 
C -1.29895 2.236584 -0.663008 2.5 0 2.5 
z
"/>
    </defs>
    <g clip-path="url(#p8a64a17981)">
     <use xlink:href="#m901df20ea9" x="147.225074" y="213.90534" style="fill-opacity: 0.3"/>
     <use xlink:href="#m901df20ea9" x="163.686785" y="224.957986" style="fill-opacity: 0.3"/>
     <use xlink:href="#m901df20ea9" x="169.676173" y="197.102865" style="fill-opacity: 0.3"/>
     <use xlink:href="#m901df20ea9" x="147.125087" y="205.169333" style="fill-opacity: 0.3"/>
     <use xlink:href="#m901df20ea9" x="170.085115" y="176.40808" style="fill-opacity: 0.3"/>
     <use xlink:href="#m901df20ea9" x="170.210871" y="205.439969" style="fill-opacity: 0.3"/>
     <use xlink:href="#m901df20ea9" x="158.225382" y="158.9633" style="fill-opacity: 0.3"/>
     <use xlink:href="#m901df20ea9" x="151.065408" y="152.484839" style="fill-opacity: 0.3"/>
     <use xlink:href="#m901df20ea9" x="156.09357" y="148.27288" style="fill-opacity: 0.3"/>
     <use xlink:href="#m901df20ea9" x="150.012873" y="233.226527" style="fill-opacity: 0.3"/>
     <use xlink:href="#m901df20ea9" x="151.877227" y="96.200603" style="fill-opacity: 0.3"/>
     <use xlink:href="#m901df20ea9" x="165.866436" y="99.15232" style="fill-opacity: 0.3"/>
     <use xlink:href="#m901df20ea9" x="169.609766" y="96.045024" style="fill-opacity: 0.3"/>
     <use xlink:href="#m901df20ea9" x="154.883894" y="113.505769" style="fill-opacity: 0.3"/>
     <use xlink:href="#m901df20ea9" x="167.593264" y="96.31467" style="fill-opacity: 0.3"/>
     <use xlink:href="#m901df20ea9" x="157.396454" y="140.096259" style="fill-opacity: 0.3"/>
     <use xlink:href="#m901df20ea9" x="164.320419" y="220.581323" style="fill-opacity: 0.3"/>
     <use xlink:href="#m901df20ea9" x="160.590343" y="228.885478" style="fill-opacity: 0.3"/>
     <use xlink:href="#m901df20ea9" x="157.840359" y="210.449231" style="fill-opacity: 0.3"/>
     <use xlink:href="#m901df20ea9" x="150.174233" y="212.0953" style="fill-opacity: 0.3"/>
     <use xlink:href="#m901df20ea9" x="149.929071" y="188.653735" style="fill-opacity: 0.3"/>
     <use xlink:href="#m901df20ea9" x="159.705132" y="179.141426" style="fill-opacity: 0.3"/>
     <use xlink:href="#m901df20ea9" x="161.00723" y="161.990039" style="fill-opacity: 0.3"/>
     <use xlink:href="#m901df20ea9" x="171.410666" y="148.591051" style="fill-opacity: 0.3"/>
     <use xlink:href="#m901df20ea9" x="164.837262" y="107.806621" style="fill-opacity: 0.3"/>
     <use xlink:href="#m901df20ea9" x="147.722543" y="135.318918" style="fill-opacity: 0.3"/>
     <use xlink:href="#m901df20ea9" x="173.20937" y="124.815434" style="fill-opacity: 0.3"/>
     <use xlink:href="#m901df20ea9" x="158.283996" y="147.707191" style="fill-opacity: 0.3"/>
     <use xlink:href="#m901df20ea9" x="171.998834" y="206.11169" style="fill-opacity: 0.3"/>
     <use xlink:href="#m901df20ea9" x="168.908096" y="203.277467" style="fill-opacity: 0.3"/>
     <use xlink:href="#m901df20ea9" x="154.999864" y="227.709541" style="fill-opacity: 0.3"/>
     <use xlink:href="#m901df20ea9" x="149.123059" y="246.133191" style="fill-opacity: 0.3"/>
     <use xlink:href="#m901df20ea9" x="148.95071" y="229.824879" style="fill-opacity: 0.3"/>
     <use xlink:href="#m901df20ea9" x="173.555657" y="230.00284" style="fill-opacity: 0.3"/>
     <use xlink:href="#m901df20ea9" x="158.810065" y="205.63777" style="fill-opacity: 0.3"/>
     <use xlink:href="#m901df20ea9" x="156.992852" y="214.704331" style="fill-opacity: 0.3"/>
     <use xlink:href="#m901df20ea9" x="159.096667" y="231.469247" style="fill-opacity: 0.3"/>
     <use xlink:href="#m901df20ea9" x="149.941195" y="267.554976" style="fill-opacity: 0.3"/>
     <use xlink:href="#m901df20ea9" x="163.572926" y="138.385359" style="fill-opacity: 0.3"/>
     <use xlink:href="#m901df20ea9" x="168.993893" y="111.511202" style="fill-opacity: 0.3"/>
     <use xlink:href="#m901df20ea9" x="146.147723" y="173.156341" style="fill-opacity: 0.3"/>
     <use xlink:href="#m901df20ea9" x="155.815237" y="148.921148" style="fill-opacity: 0.3"/>
     <use xlink:href="#m901df20ea9" x="155.211972" y="144.284963" style="fill-opacity: 0.3"/>
     <use xlink:href="#m901df20ea9" x="171.94661" y="121.080085" style="fill-opacity: 0.3"/>
     <use xlink:href="#m901df20ea9" x="153.289101" y="241.871951" style="fill-opacity: 0.3"/>
     <use xlink:href="#m901df20ea9" x="156.089475" y="135.706912" style="fill-opacity: 0.3"/>
     <use xlink:href="#m901df20ea9" x="151.491168" y="171.730552" style="fill-opacity: 0.3"/>
     <use xlink:href="#m901df20ea9" x="159.270165" y="136.600424" style="fill-opacity: 0.3"/>
     <use xlink:href="#m901df20ea9" x="167.19828" y="170.942685" style="fill-opacity: 0.3"/>
     <use xlink:href="#m901df20ea9" x="147.018552" y="108.308955" style="fill-opacity: 0.3"/>
     <use xlink:href="#m901df20ea9" x="154.411883" y="177.07997" style="fill-opacity: 0.3"/>
     <use xlink:href="#m901df20ea9" x="149.268446" y="179.806127" style="fill-opacity: 0.3"/>
     <use xlink:href="#m901df20ea9" x="172.272956" y="152.831463" style="fill-opacity: 0.3"/>
     <use xlink:href="#m901df20ea9" x="148.089154" y="181.559799" style="fill-opacity: 0.3"/>
     <use xlink:href="#m901df20ea9" x="149.35484" y="151.277519" style="fill-opacity: 0.3"/>
     <use xlink:href="#m901df20ea9" x="162.440367" y="181.022186" style="fill-opacity: 0.3"/>
    </g>
   </g>
   <g id="PathCollection_2">
    <g clip-path="url(#p8a64a17981)">
     <use xlink:href="#m901df20ea9" x="304.432848" y="223.374194" style="fill-opacity: 0.3"/>
     <use xlink:href="#m901df20ea9" x="290.598852" y="167.77501" style="fill-opacity: 0.3"/>
     <use xlink:href="#m901df20ea9" x="290.254041" y="132.743138" style="fill-opacity: 0.3"/>
     <use xlink:href="#m901df20ea9" x="287.642142" y="184.098531" style="fill-opacity: 0.3"/>
     <use xlink:href="#m901df20ea9" x="295.493249" y="172.422888" style="fill-opacity: 0.3"/>
     <use xlink:href="#m901df20ea9" x="310.592148" y="217.174669" style="fill-opacity: 0.3"/>
     <use xlink:href="#m901df20ea9" x="300.372855" y="161.047308" style="fill-opacity: 0.3"/>
     <use xlink:href="#m901df20ea9" x="286.493302" y="206.956586" style="fill-opacity: 0.3"/>
     <use xlink:href="#m901df20ea9" x="287.197277" y="184.378586" style="fill-opacity: 0.3"/>
     <use xlink:href="#m901df20ea9" x="305.529131" y="176.055432" style="fill-opacity: 0.3"/>
     <use xlink:href="#m901df20ea9" x="295.879538" y="242.319629" style="fill-opacity: 0.3"/>
     <use xlink:href="#m901df20ea9" x="295.588279" y="182.044419" style="fill-opacity: 0.3"/>
     <use xlink:href="#m901df20ea9" x="308.487976" y="181.358754" style="fill-opacity: 0.3"/>
     <use xlink:href="#m901df20ea9" x="307.777805" y="186.973155" style="fill-opacity: 0.3"/>
     <use xlink:href="#m901df20ea9" x="299.779314" y="184.848431" style="fill-opacity: 0.3"/>
     <use xlink:href="#m901df20ea9" x="295.212293" y="171.094383" style="fill-opacity: 0.3"/>
     <use xlink:href="#m901df20ea9" x="305.407345" y="170.142539" style="fill-opacity: 0.3"/>
     <use xlink:href="#m901df20ea9" x="292.746868" y="162.331206" style="fill-opacity: 0.3"/>
     <use xlink:href="#m901df20ea9" x="306.3783" y="184.295388" style="fill-opacity: 0.3"/>
     <use xlink:href="#m901df20ea9" x="290.683914" y="186.043501" style="fill-opacity: 0.3"/>
     <use xlink:href="#m901df20ea9" x="296.865083" y="214.818375" style="fill-opacity: 0.3"/>
     <use xlink:href="#m901df20ea9" x="301.311028" y="214.613848" style="fill-opacity: 0.3"/>
     <use xlink:href="#m901df20ea9" x="302.467636" y="225.111732" style="fill-opacity: 0.3"/>
     <use xlink:href="#m901df20ea9" x="312.124146" y="213.248115" style="fill-opacity: 0.3"/>
     <use xlink:href="#m901df20ea9" x="311.823377" y="147.18205" style="fill-opacity: 0.3"/>
     <use xlink:href="#m901df20ea9" x="292.67039" y="157.374536" style="fill-opacity: 0.3"/>
     <use xlink:href="#m901df20ea9" x="292.347573" y="154.691726" style="fill-opacity: 0.3"/>
     <use xlink:href="#m901df20ea9" x="309.353918" y="146.288979" style="fill-opacity: 0.3"/>
     <use xlink:href="#m901df20ea9" x="287.939445" y="158.170512" style="fill-opacity: 0.3"/>
     <use xlink:href="#m901df20ea9" x="308.829784" y="133.154125" style="fill-opacity: 0.3"/>
     <use xlink:href="#m901df20ea9" x="308.061455" y="139.53937" style="fill-opacity: 0.3"/>
     <use xlink:href="#m901df20ea9" x="295.21097" y="140.382702" style="fill-opacity: 0.3"/>
     <use xlink:href="#m901df20ea9" x="286.882118" y="116.310253" style="fill-opacity: 0.3"/>
     <use xlink:href="#m901df20ea9" x="302.19269" y="164.838149" style="fill-opacity: 0.3"/>
     <use xlink:href="#m901df20ea9" x="287.916861" y="155.598279" style="fill-opacity: 0.3"/>
     <use xlink:href="#m901df20ea9" x="312.898296" y="140.920881" style="fill-opacity: 0.3"/>
     <use xlink:href="#m901df20ea9" x="303.910661" y="140.700185" style="fill-opacity: 0.3"/>
     <use xlink:href="#m901df20ea9" x="309.134332" y="126.303628" style="fill-opacity: 0.3"/>
     <use xlink:href="#m901df20ea9" x="298.154934" y="132.59708" style="fill-opacity: 0.3"/>
     <use xlink:href="#m901df20ea9" x="303.595099" y="201.500813" style="fill-opacity: 0.3"/>
     <use xlink:href="#m901df20ea9" x="311.289054" y="212.27188" style="fill-opacity: 0.3"/>
     <use xlink:href="#m901df20ea9" x="291.141605" y="220.359785" style="fill-opacity: 0.3"/>
     <use xlink:href="#m901df20ea9" x="297.277974" y="95.93813" style="fill-opacity: 0.3"/>
     <use xlink:href="#m901df20ea9" x="289.90901" y="102.567494" style="fill-opacity: 0.3"/>
     <use xlink:href="#m901df20ea9" x="310.111229" y="166.870994" style="fill-opacity: 0.3"/>
     <use xlink:href="#m901df20ea9" x="312.687222" y="178.465844" style="fill-opacity: 0.3"/>
     <use xlink:href="#m901df20ea9" x="305.886894" y="181.903812" style="fill-opacity: 0.3"/>
     <use xlink:href="#m901df20ea9" x="291.899594" y="163.869943" style="fill-opacity: 0.3"/>
     <use xlink:href="#m901df20ea9" x="285.820034" y="157.206001" style="fill-opacity: 0.3"/>
     <use xlink:href="#m901df20ea9" x="287.96374" y="162.427849" style="fill-opacity: 0.3"/>
     <use xlink:href="#m901df20ea9" x="298.00748" y="160.720105" style="fill-opacity: 0.3"/>
     <use xlink:href="#m901df20ea9" x="286.807401" y="163.08282" style="fill-opacity: 0.3"/>
     <use xlink:href="#m901df20ea9" x="312.720587" y="160.90444" style="fill-opacity: 0.3"/>
     <use xlink:href="#m901df20ea9" x="288.630694" y="138.875329" style="fill-opacity: 0.3"/>
     <use xlink:href="#m901df20ea9" x="302.420856" y="138.393623" style="fill-opacity: 0.3"/>
     <use xlink:href="#m901df20ea9" x="299.290195" y="157.240117" style="fill-opacity: 0.3"/>
     <use xlink:href="#m901df20ea9" x="304.598077" y="159.966176" style="fill-opacity: 0.3"/>
     <use xlink:href="#m901df20ea9" x="298.194194" y="145.010276" style="fill-opacity: 0.3"/>
     <use xlink:href="#m901df20ea9" x="287.786729" y="155.276615" style="fill-opacity: 0.3"/>
     <use xlink:href="#m901df20ea9" x="288.508349" y="146.978256" style="fill-opacity: 0.3"/>
     <use xlink:href="#m901df20ea9" x="295.531242" y="213.858455" style="fill-opacity: 0.3"/>
     <use xlink:href="#m901df20ea9" x="292.131511" y="214.343511" style="fill-opacity: 0.3"/>
     <use xlink:href="#m901df20ea9" x="305.536667" y="227.776646" style="fill-opacity: 0.3"/>
     <use xlink:href="#m901df20ea9" x="305.620178" y="229.714804" style="fill-opacity: 0.3"/>
     <use xlink:href="#m901df20ea9" x="304.130938" y="202.255921" style="fill-opacity: 0.3"/>
     <use xlink:href="#m901df20ea9" x="305.629575" y="224.69493" style="fill-opacity: 0.3"/>
     <use xlink:href="#m901df20ea9" x="309.101621" y="193.996449" style="fill-opacity: 0.3"/>
     <use xlink:href="#m901df20ea9" x="296.980338" y="190.403654" style="fill-opacity: 0.3"/>
     <use xlink:href="#m901df20ea9" x="307.486714" y="194.140596" style="fill-opacity: 0.3"/>
     <use xlink:href="#m901df20ea9" x="297.604855" y="190.902049" style="fill-opacity: 0.3"/>
     <use xlink:href="#m901df20ea9" x="302.124169" y="195.029543" style="fill-opacity: 0.3"/>
     <use xlink:href="#m901df20ea9" x="304.704996" y="181.858319" style="fill-opacity: 0.3"/>
     <use xlink:href="#m901df20ea9" x="311.315644" y="184.016162" style="fill-opacity: 0.3"/>
     <use xlink:href="#m901df20ea9" x="308.738311" y="201.0561" style="fill-opacity: 0.3"/>
     <use xlink:href="#m901df20ea9" x="307.835006" y="204.247257" style="fill-opacity: 0.3"/>
     <use xlink:href="#m901df20ea9" x="301.218351" y="192.568898" style="fill-opacity: 0.3"/>
     <use xlink:href="#m901df20ea9" x="300.508441" y="196.433397" style="fill-opacity: 0.3"/>
     <use xlink:href="#m901df20ea9" x="303.87852" y="188.052612" style="fill-opacity: 0.3"/>
     <use xlink:href="#m901df20ea9" x="296.381386" y="122.640214" style="fill-opacity: 0.3"/>
     <use xlink:href="#m901df20ea9" x="308.478775" y="168.183803" style="fill-opacity: 0.3"/>
     <use xlink:href="#m901df20ea9" x="297.380676" y="143.623547" style="fill-opacity: 0.3"/>
     <use xlink:href="#m901df20ea9" x="303.233012" y="136.676561" style="fill-opacity: 0.3"/>
     <use xlink:href="#m901df20ea9" x="285.440961" y="134.174121" style="fill-opacity: 0.3"/>
     <use xlink:href="#m901df20ea9" x="300.639932" y="142.81708" style="fill-opacity: 0.3"/>
     <use xlink:href="#m901df20ea9" x="290.747938" y="142.041135" style="fill-opacity: 0.3"/>
     <use xlink:href="#m901df20ea9" x="289.459671" y="154.383554" style="fill-opacity: 0.3"/>
     <use xlink:href="#m901df20ea9" x="288.722556" y="144.341071" style="fill-opacity: 0.3"/>
     <use xlink:href="#m901df20ea9" x="286.965861" y="145.37707" style="fill-opacity: 0.3"/>
     <use xlink:href="#m901df20ea9" x="301.114244" y="130.545465" style="fill-opacity: 0.3"/>
     <use xlink:href="#m901df20ea9" x="310.710962" y="169.773953" style="fill-opacity: 0.3"/>
     <use xlink:href="#m901df20ea9" x="308.467978" y="171.903993" style="fill-opacity: 0.3"/>
     <use xlink:href="#m901df20ea9" x="298.699437" y="150.583216" style="fill-opacity: 0.3"/>
     <use xlink:href="#m901df20ea9" x="292.005775" y="165.458657" style="fill-opacity: 0.3"/>
     <use xlink:href="#m901df20ea9" x="300.815441" y="200.13499" style="fill-opacity: 0.3"/>
     <use xlink:href="#m901df20ea9" x="298.241894" y="189.259672" style="fill-opacity: 0.3"/>
     <use xlink:href="#m901df20ea9" x="308.22233" y="151.1576" style="fill-opacity: 0.3"/>
     <use xlink:href="#m901df20ea9" x="303.508286" y="141.301659" style="fill-opacity: 0.3"/>
     <use xlink:href="#m901df20ea9" x="287.108261" y="181.709663" style="fill-opacity: 0.3"/>
     <use xlink:href="#m901df20ea9" x="298.942153" y="163.282265" style="fill-opacity: 0.3"/>
    </g>
   </g>
   <g id="PathCollection_3">
    <g clip-path="url(#p8a64a17981)">
     <use xlink:href="#m901df20ea9" x="451.093668" y="215.112994" style="fill-opacity: 0.3"/>
     <use xlink:href="#m901df20ea9" x="451.288321" y="217.257088" style="fill-opacity: 0.3"/>
     <use xlink:href="#m901df20ea9" x="433.477497" y="171.818551" style="fill-opacity: 0.3"/>
     <use xlink:href="#m901df20ea9" x="428.925167" y="182.794491" style="fill-opacity: 0.3"/>
     <use xlink:href="#m901df20ea9" x="446.8923" y="210.156478" style="fill-opacity: 0.3"/>
     <use xlink:href="#m901df20ea9" x="425.145465" y="182.390093" style="fill-opacity: 0.3"/>
     <use xlink:href="#m901df20ea9" x="427.64854" y="164.735388" style="fill-opacity: 0.3"/>
     <use xlink:href="#m901df20ea9" x="435.354172" y="175.747712" style="fill-opacity: 0.3"/>
     <use xlink:href="#m901df20ea9" x="436.922231" y="208.538242" style="fill-opacity: 0.3"/>
     <use xlink:href="#m901df20ea9" x="429.637094" y="188.669889" style="fill-opacity: 0.3"/>
     <use xlink:href="#m901df20ea9" x="441.672258" y="175.040968" style="fill-opacity: 0.3"/>
     <use xlink:href="#m901df20ea9" x="449.278055" y="154.078849" style="fill-opacity: 0.3"/>
     <use xlink:href="#m901df20ea9" x="426.013294" y="166.874767" style="fill-opacity: 0.3"/>
     <use xlink:href="#m901df20ea9" x="442.462767" y="211.74336" style="fill-opacity: 0.3"/>
     <use xlink:href="#m901df20ea9" x="446.075789" y="132.69589" style="fill-opacity: 0.3"/>
     <use xlink:href="#m901df20ea9" x="451.319338" y="125.031346" style="fill-opacity: 0.3"/>
     <use xlink:href="#m901df20ea9" x="446.583986" y="126.628442" style="fill-opacity: 0.3"/>
     <use xlink:href="#m901df20ea9" x="447.035184" y="136.906285" style="fill-opacity: 0.3"/>
     <use xlink:href="#m901df20ea9" x="445.887263" y="166.066569" style="fill-opacity: 0.3"/>
     <use xlink:href="#m901df20ea9" x="445.775419" y="148.295533" style="fill-opacity: 0.3"/>
     <use xlink:href="#m901df20ea9" x="436.930991" y="94.891869" style="fill-opacity: 0.3"/>
     <use xlink:href="#m901df20ea9" x="434.985789" y="219.060411" style="fill-opacity: 0.3"/>
     <use xlink:href="#m901df20ea9" x="426.502452" y="176.641817" style="fill-opacity: 0.3"/>
     <use xlink:href="#m901df20ea9" x="435.231941" y="181.420741" style="fill-opacity: 0.3"/>
     <use xlink:href="#m901df20ea9" x="446.268105" y="172.399532" style="fill-opacity: 0.3"/>
     <use xlink:href="#m901df20ea9" x="426.992776" y="167.67588" style="fill-opacity: 0.3"/>
     <use xlink:href="#m901df20ea9" x="437.325993" y="175.557003" style="fill-opacity: 0.3"/>
     <use xlink:href="#m901df20ea9" x="437.304303" y="164.206012" style="fill-opacity: 0.3"/>
     <use xlink:href="#m901df20ea9" x="449.119483" y="160.77619" style="fill-opacity: 0.3"/>
     <use xlink:href="#m901df20ea9" x="434.107373" y="168.136939" style="fill-opacity: 0.3"/>
     <use xlink:href="#m901df20ea9" x="445.645107" y="160.01073" style="fill-opacity: 0.3"/>
     <use xlink:href="#m901df20ea9" x="437.937676" y="116.427173" style="fill-opacity: 0.3"/>
     <use xlink:href="#m901df20ea9" x="437.466727" y="151.001409" style="fill-opacity: 0.3"/>
     <use xlink:href="#m901df20ea9" x="431.386205" y="146.071302" style="fill-opacity: 0.3"/>
     <use xlink:href="#m901df20ea9" x="448.100981" y="237.636633" style="fill-opacity: 0.3"/>
     <use xlink:href="#m901df20ea9" x="443.313752" y="160.650834" style="fill-opacity: 0.3"/>
     <use xlink:href="#m901df20ea9" x="445.68935" y="211.693194" style="fill-opacity: 0.3"/>
     <use xlink:href="#m901df20ea9" x="434.416946" y="197.562761" style="fill-opacity: 0.3"/>
     <use xlink:href="#m901df20ea9" x="429.029983" y="186.238344" style="fill-opacity: 0.3"/>
     <use xlink:href="#m901df20ea9" x="428.354173" y="210.072812" style="fill-opacity: 0.3"/>
     <use xlink:href="#m901df20ea9" x="430.77682" y="196.210279" style="fill-opacity: 0.3"/>
     <use xlink:href="#m901df20ea9" x="432.55741" y="185.798099" style="fill-opacity: 0.3"/>
     <use xlink:href="#m901df20ea9" x="447.450912" y="158.5409" style="fill-opacity: 0.3"/>
     <use xlink:href="#m901df20ea9" x="448.609565" y="151.92301" style="fill-opacity: 0.3"/>
     <use xlink:href="#m901df20ea9" x="452.105684" y="149.359982" style="fill-opacity: 0.3"/>
     <use xlink:href="#m901df20ea9" x="427.592011" y="168.032904" style="fill-opacity: 0.3"/>
     <use xlink:href="#m901df20ea9" x="427.125932" y="134.823507" style="fill-opacity: 0.3"/>
     <use xlink:href="#m901df20ea9" x="450.59814" y="196.303857" style="fill-opacity: 0.3"/>
    </g>
   </g>
   <g id="PathCollection_4">
    <g clip-path="url(#p8a64a17981)">
     <use xlink:href="#m901df20ea9" x="571.284462" y="191.421282" style="fill-opacity: 0.3"/>
     <use xlink:href="#m901df20ea9" x="576.813452" y="203.723123" style="fill-opacity: 0.3"/>
     <use xlink:href="#m901df20ea9" x="574.906988" y="187.234101" style="fill-opacity: 0.3"/>
     <use xlink:href="#m901df20ea9" x="567.056512" y="95.960977" style="fill-opacity: 0.3"/>
     <use xlink:href="#m901df20ea9" x="573.222035" y="173.934505" style="fill-opacity: 0.3"/>
     <use xlink:href="#m901df20ea9" x="578.478925" y="138.571008" style="fill-opacity: 0.3"/>
     <use xlink:href="#m901df20ea9" x="566.278146" y="157.739318" style="fill-opacity: 0.3"/>
     <use xlink:href="#m901df20ea9" x="582.441585" y="248.385965" style="fill-opacity: 0.3"/>
     <use xlink:href="#m901df20ea9" x="584.634958" y="220.641853" style="fill-opacity: 0.3"/>
     <use xlink:href="#m901df20ea9" x="591.156104" y="205.073057" style="fill-opacity: 0.3"/>
     <use xlink:href="#m901df20ea9" x="585.296057" y="207.474838" style="fill-opacity: 0.3"/>
     <use xlink:href="#m901df20ea9" x="591.475357" y="230.48902" style="fill-opacity: 0.3"/>
     <use xlink:href="#m901df20ea9" x="578.511925" y="226.818751" style="fill-opacity: 0.3"/>
     <use xlink:href="#m901df20ea9" x="580.127568" y="234.822919" style="fill-opacity: 0.3"/>
     <use xlink:href="#m901df20ea9" x="579.109177" y="227.155565" style="fill-opacity: 0.3"/>
     <use xlink:href="#m901df20ea9" x="577.774547" y="153.725598" style="fill-opacity: 0.3"/>
     <use xlink:href="#m901df20ea9" x="566.322803" y="166.642863" style="fill-opacity: 0.3"/>
     <use xlink:href="#m901df20ea9" x="578.090446" y="214.236363" style="fill-opacity: 0.3"/>
     <use xlink:href="#m901df20ea9" x="582.537793" y="184.010546" style="fill-opacity: 0.3"/>
     <use xlink:href="#m901df20ea9" x="585.76899" y="201.563174" style="fill-opacity: 0.3"/>
     <use xlink:href="#m901df20ea9" x="576.07683" y="97.582242" style="fill-opacity: 0.3"/>
     <use xlink:href="#m901df20ea9" x="565.050348" y="130.373237" style="fill-opacity: 0.3"/>
     <use xlink:href="#m901df20ea9" x="576.798491" y="162.007109" style="fill-opacity: 0.3"/>
     <use xlink:href="#m901df20ea9" x="574.310634" y="131.302688" style="fill-opacity: 0.3"/>
     <use xlink:href="#m901df20ea9" x="572.492819" y="166.535928" style="fill-opacity: 0.3"/>
     <use xlink:href="#m901df20ea9" x="583.07258" y="135.421123" style="fill-opacity: 0.3"/>
     <use xlink:href="#m901df20ea9" x="573.446165" y="172.332807" style="fill-opacity: 0.3"/>
     <use xlink:href="#m901df20ea9" x="587.448998" y="166.479499" style="fill-opacity: 0.3"/>
     <use xlink:href="#m901df20ea9" x="581.578797" y="181.892253" style="fill-opacity: 0.3"/>
     <use xlink:href="#m901df20ea9" x="578.184343" y="131.78554" style="fill-opacity: 0.3"/>
     <use xlink:href="#m901df20ea9" x="583.576634" y="191.583568" style="fill-opacity: 0.3"/>
    </g>
   </g>
  </g>
 </g>
 <defs>
  <clipPath id="p8a64a17981">
   <rect x="90" y="43.2" width="558" height="277.2"/>
  </clipPath>
 </defs>
</svg>
