<?xml version="1.0" encoding="utf-8" standalone="no"?>
<!DOCTYPE svg PUBLIC "-//W3C//DTD SVG 1.1//EN"
  "http://www.w3.org/Graphics/SVG/1.1/DTD/svg11.dtd">
<svg xmlns:xlink="http://www.w3.org/1999/xlink" width="720pt" height="360pt" viewBox="0 0 720 360" xmlns="http://www.w3.org/2000/svg" version="1.1">
 <metadata>
  <rdf:RDF xmlns:dc="http://purl.org/dc/elements/1.1/" xmlns:cc="http://creativecommons.org/ns#" xmlns:rdf="http://www.w3.org/1999/02/22-rdf-syntax-ns#">
   <cc:Work>
    <dc:type rdf:resource="http://purl.org/dc/dcmitype/StillImage"/>
    <dc:date>2025-09-11T16:49:02.225886</dc:date>
    <dc:format>image/svg+xml</dc:format>
    <dc:creator>
     <cc:Agent>
      <dc:title>Matplotlib v3.10.3, https://matplotlib.org/</dc:title>
     </cc:Agent>
    </dc:creator>
   </cc:Work>
  </rdf:RDF>
 </metadata>
 <defs>
  <style type="text/css">*{stroke-linejoin: round; stroke-linecap: butt}</style>
 </defs>
 <g id="figure_1">
  <g id="patch_1">
   <path d="M 0 360 
L 720 360 
L 720 0 
L 0 0 
z
" style="fill: #ffffff"/>
  </g>
  <g id="axes_1">
   <g id="patch_2">
    <path d="M 90 320.4 
L 648 320.4 
L 648 43.2 
L 90 43.2 
z
" style="fill: #ffffff"/>
   </g>
   <g id="FillBetweenPolyCollection_1">
    <defs>
     <path id="meecb8eafc8" d="M 231.327196 -52.2 
L 227.672804 -52.2 
L 227.129842 -54.745455 
L 226.480748 -57.290909 
L 225.722964 -59.836364 
L 224.859842 -62.381818 
L 223.901856 -64.927273 
L 222.86738 -67.472727 
L 221.782869 -70.018182 
L 220.682277 -72.563636 
L 219.605662 -75.109091 
L 218.59698 -77.654545 
L 217.701232 -80.2 
L 216.961193 -82.745455 
L 216.414041 -85.290909 
L 216.088273 -87.836364 
L 216.001246 -90.381818 
L 216.157643 -92.927273 
L 216.549053 -95.472727 
L 217.154719 -98.018182 
L 217.943355 -100.563636 
L 218.875814 -103.109091 
L 219.908283 -105.654545 
L 220.995635 -108.2 
L 222.094589 -110.745455 
L 223.16635 -113.290909 
L 224.178516 -115.836364 
L 225.106132 -118.381818 
L 225.93189 -120.927273 
L 226.64553 -123.472727 
L 227.242619 -126.018182 
L 227.722854 -128.563636 
L 228.088108 -131.109091 
L 228.340365 -133.654545 
L 228.479717 -136.2 
L 228.502545 -138.745455 
L 228.399996 -141.290909 
L 228.156876 -143.836364 
L 227.751075 -146.381818 
L 227.153646 -148.927273 
L 226.329686 -151.472727 
L 225.240123 -154.018182 
L 223.844506 -156.563636 
L 222.104758 -159.109091 
L 219.989795 -161.654545 
L 217.480708 -164.2 
L 214.576069 -166.745455 
L 211.29677 -169.290909 
L 207.689709 -171.836364 
L 203.829618 -174.381818 
L 199.818433 -176.927273 
L 195.781809 -179.472727 
L 191.862705 -182.018182 
L 188.212331 -184.563636 
L 184.979162 -187.109091 
L 182.297051 -189.654545 
L 180.273679 -192.2 
L 178.980648 -194.745455 
L 178.446363 -197.290909 
L 178.652498 -199.836364 
L 179.534413 -202.381818 
L 180.98533 -204.927273 
L 182.863605 -207.472727 
L 185.002079 -210.018182 
L 187.218293 -212.563636 
L 189.324439 -215.109091 
L 191.136144 -217.654545 
L 192.479614 -220.2 
L 193.197124 -222.745455 
L 193.151283 -225.290909 
L 192.228756 -227.836364 
L 190.344257 -230.381818 
L 187.445379 -232.927273 
L 183.518536 -235.472727 
L 178.595675 -238.018182 
L 172.760917 -240.563636 
L 166.155776 -243.109091 
L 158.981382 -245.654545 
L 151.496158 -248.2 
L 144.007811 -250.745455 
L 136.859187 -253.290909 
L 130.408445 -255.836364 
L 125.004956 -258.381818 
L 120.963186 -260.927273 
L 118.537377 -263.472727 
L 117.9 -266.018182 
L 119.126639 -268.563636 
L 122.18926 -271.109091 
L 126.958763 -273.654545 
L 133.216535 -276.2 
L 140.673585 -278.745455 
L 148.994952 -281.290909 
L 157.826509 -283.836364 
L 166.821218 -286.381818 
L 175.662183 -288.927273 
L 184.080487 -291.472727 
L 191.866673 -294.018182 
L 198.875587 -296.563636 
L 205.025148 -299.109091 
L 210.290173 -301.654545 
L 214.692793 -304.2 
L 244.307207 -304.2 
L 244.307207 -304.2 
L 248.709827 -301.654545 
L 253.974852 -299.109091 
L 260.124413 -296.563636 
L 267.133327 -294.018182 
L 274.919513 -291.472727 
L 283.337817 -288.927273 
L 292.178782 -286.381818 
L 301.173491 -283.836364 
L 310.005048 -281.290909 
L 318.326415 -278.745455 
L 325.783465 -276.2 
L 332.041237 -273.654545 
L 336.81074 -271.109091 
L 339.873361 -268.563636 
L 341.1 -266.018182 
L 340.462623 -263.472727 
L 338.036814 -260.927273 
L 333.995044 -258.381818 
L 328.591555 -255.836364 
L 322.140813 -253.290909 
L 314.992189 -250.745455 
L 307.503842 -248.2 
L 300.018618 -245.654545 
L 292.844224 -243.109091 
L 286.239083 -240.563636 
L 280.404325 -238.018182 
L 275.481464 -235.472727 
L 271.554621 -232.927273 
L 268.655743 -230.381818 
L 266.771244 -227.836364 
L 265.848717 -225.290909 
L 265.802876 -222.745455 
L 266.520386 -220.2 
L 267.863856 -217.654545 
L 269.675561 -215.109091 
L 271.781707 -212.563636 
L 273.997921 -210.018182 
L 276.136395 -207.472727 
L 278.01467 -204.927273 
L 279.465587 -202.381818 
L 280.347502 -199.836364 
L 280.553637 -197.290909 
L 280.019352 -194.745455 
L 278.726321 -192.2 
L 276.702949 -189.654545 
L 274.020838 -187.109091 
L 270.787669 -184.563636 
L 267.137295 -182.018182 
L 263.218191 -179.472727 
L 259.181567 -176.927273 
L 255.170382 -174.381818 
L 251.310291 -171.836364 
L 247.70323 -169.290909 
L 244.423931 -166.745455 
L 241.519292 -164.2 
L 239.010205 -161.654545 
L 236.895242 -159.109091 
L 235.155494 -156.563636 
L 233.759877 -154.018182 
L 232.670314 -151.472727 
L 231.846354 -148.927273 
L 231.248925 -146.381818 
L 230.843124 -143.836364 
L 230.600004 -141.290909 
L 230.497455 -138.745455 
L 230.520283 -136.2 
L 230.659635 -133.654545 
L 230.911892 -131.109091 
L 231.277146 -128.563636 
L 231.757381 -126.018182 
L 232.35447 -123.472727 
L 233.06811 -120.927273 
L 233.893868 -118.381818 
L 234.821484 -115.836364 
L 235.83365 -113.290909 
L 236.905411 -110.745455 
L 238.004365 -108.2 
L 239.091717 -105.654545 
L 240.124186 -103.109091 
L 241.056645 -100.563636 
L 241.845281 -98.018182 
L 242.450947 -95.472727 
L 242.842357 -92.927273 
L 242.998754 -90.381818 
L 242.911727 -87.836364 
L 242.585959 -85.290909 
L 242.038807 -82.745455 
L 241.298768 -80.2 
L 240.40302 -77.654545 
L 239.394338 -75.109091 
L 238.317723 -72.563636 
L 237.217131 -70.018182 
L 236.13262 -67.472727 
L 235.098144 -64.927273 
L 234.140158 -62.381818 
L 233.277036 -59.836364 
L 232.519252 -57.290909 
L 231.870158 -54.745455 
L 231.327196 -52.2 
z
" style="stroke: #3f3f3f; stroke-width: 1.25"/>
    </defs>
    <g clip-path="url(#pb6c21a82d4)">
     <use xlink:href="#meecb8eafc8" x="0" y="360" style="fill: #3274a1; stroke: #3f3f3f; stroke-width: 1.25"/>
    </g>
   </g>
   <g id="FillBetweenPolyCollection_2">
    <defs>
     <path id="m28551311f3" d="M 509.267623 -56.885683 
L 507.732377 -56.885683 
L 507.479305 -59.336478 
L 507.172181 -61.787272 
L 506.810041 -64.238066 
L 506.395697 -66.688861 
L 505.936489 -69.139655 
L 505.444681 -71.590449 
L 504.937354 -74.041243 
L 504.435721 -76.492038 
L 503.963834 -78.942832 
L 503.546762 -81.393626 
L 503.208436 -83.84442 
L 502.969383 -86.295215 
L 502.844672 -88.746009 
L 502.842341 -91.196803 
L 502.962543 -93.647598 
L 503.197524 -96.098392 
L 503.532455 -98.549186 
L 503.946977 -100.99998 
L 504.417249 -103.450775 
L 504.918195 -105.901569 
L 505.425681 -108.352363 
L 505.918343 -110.803157 
L 506.378887 -113.253952 
L 506.794791 -115.704746 
L 507.158396 -118.15554 
L 507.466474 -120.606335 
L 507.719408 -123.057129 
L 507.920108 -125.507923 
L 508.072813 -127.958717 
L 508.181837 -130.409512 
L 508.250328 -132.860306 
L 508.279011 -135.3111 
L 508.264901 -137.761894 
L 508.199921 -140.212689 
L 508.069415 -142.663483 
L 507.850583 -145.114277 
L 507.510947 -147.565072 
L 507.007073 -150.015866 
L 506.283895 -152.46666 
L 505.275076 -154.917454 
L 503.904889 -157.368249 
L 502.092097 -159.819043 
L 499.756122 -162.269837 
L 496.825532 -164.720631 
L 493.248458 -167.171426 
L 489.004044 -169.62222 
L 484.113558 -172.073014 
L 478.649392 -174.523809 
L 472.740008 -176.974603 
L 466.569104 -179.425397 
L 460.367797 -181.876191 
L 454.399574 -184.326986 
L 448.938905 -186.77778 
L 444.245658 -189.228574 
L 440.538436 -191.679369 
L 437.970541 -194.130163 
L 436.612244 -196.580957 
L 436.442267 -199.031751 
L 437.350119 -201.482546 
L 439.149164 -203.93334 
L 441.598563 -206.384134 
L 444.430688 -208.834928 
L 447.379725 -211.285723 
L 450.206989 -213.736517 
L 452.719156 -216.187311 
L 454.776987 -218.638106 
L 456.293903 -221.0889 
L 457.225726 -223.539694 
L 457.554526 -225.990488 
L 457.270656 -228.441283 
L 456.35737 -230.892077 
L 454.781908 -233.342871 
L 452.495646 -235.793665 
L 449.444089 -238.24446 
L 445.585383 -240.695254 
L 440.91414 -243.146048 
L 435.485924 -245.596843 
L 429.43716 -248.047637 
L 422.995585 -250.498431 
L 416.477681 -252.949225 
L 410.271642 -255.40002 
L 404.806897 -257.850814 
L 400.513711 -260.301608 
L 397.778309 -262.752402 
L 396.9 -265.203197 
L 398.056694 -267.653991 
L 401.283951 -270.104785 
L 406.47057 -272.55558 
L 413.371097 -275.006374 
L 421.633016 -277.457168 
L 430.834255 -279.907962 
L 440.525437 -282.358757 
L 450.271029 -284.809551 
L 459.684368 -287.260345 
L 468.452983 -289.711139 
L 476.352528 -292.161934 
L 483.24951 -294.612728 
L 489.094485 -297.063522 
L 493.908405 -299.514317 
L 523.091595 -299.514317 
L 523.091595 -299.514317 
L 527.905515 -297.063522 
L 533.75049 -294.612728 
L 540.647472 -292.161934 
L 548.547017 -289.711139 
L 557.315632 -287.260345 
L 566.728971 -284.809551 
L 576.474563 -282.358757 
L 586.165745 -279.907962 
L 595.366984 -277.457168 
L 603.628903 -275.006374 
L 610.52943 -272.55558 
L 615.716049 -270.104785 
L 618.943306 -267.653991 
L 620.1 -265.203197 
L 619.221691 -262.752402 
L 616.486289 -260.301608 
L 612.193103 -257.850814 
L 606.728358 -255.40002 
L 600.522319 -252.949225 
L 594.004415 -250.498431 
L 587.56284 -248.047637 
L 581.514076 -245.596843 
L 576.08586 -243.146048 
L 571.414617 -240.695254 
L 567.555911 -238.24446 
L 564.504354 -235.793665 
L 562.218092 -233.342871 
L 560.64263 -230.892077 
L 559.729344 -228.441283 
L 559.445474 -225.990488 
L 559.774274 -223.539694 
L 560.706097 -221.0889 
L 562.223013 -218.638106 
L 564.280844 -216.187311 
L 566.793011 -213.736517 
L 569.620275 -211.285723 
L 572.569312 -208.834928 
L 575.401437 -206.384134 
L 577.850836 -203.93334 
L 579.649881 -201.482546 
L 580.557733 -199.031751 
L 580.387756 -196.580957 
L 579.029459 -194.130163 
L 576.461564 -191.679369 
L 572.754342 -189.228574 
L 568.061095 -186.77778 
L 562.600426 -184.326986 
L 556.632203 -181.876191 
L 550.430896 -179.425397 
L 544.259992 -176.974603 
L 538.350608 -174.523809 
L 532.886442 -172.073014 
L 527.995956 -169.62222 
L 523.751542 -167.171426 
L 520.174468 -164.720631 
L 517.243878 -162.269837 
L 514.907903 -159.819043 
L 513.095111 -157.368249 
L 511.724924 -154.917454 
L 510.716105 -152.46666 
L 509.992927 -150.015866 
L 509.489053 -147.565072 
L 509.149417 -145.114277 
L 508.930585 -142.663483 
L 508.800079 -140.212689 
L 508.735099 -137.761894 
L 508.720989 -135.3111 
L 508.749672 -132.860306 
L 508.818163 -130.409512 
L 508.927187 -127.958717 
L 509.079892 -125.507923 
L 509.280592 -123.057129 
L 509.533526 -120.606335 
L 509.841604 -118.15554 
L 510.205209 -115.704746 
L 510.621113 -113.253952 
L 511.081657 -110.803157 
L 511.574319 -108.352363 
L 512.081805 -105.901569 
L 512.582751 -103.450775 
L 513.053023 -100.99998 
L 513.467545 -98.549186 
L 513.802476 -96.098392 
L 514.037457 -93.647598 
L 514.157659 -91.196803 
L 514.155328 -88.746009 
L 514.030617 -86.295215 
L 513.791564 -83.84442 
L 513.453238 -81.393626 
L 513.036166 -78.942832 
L 512.564279 -76.492038 
L 512.062646 -74.041243 
L 511.555319 -71.590449 
L 511.063511 -69.139655 
L 510.604303 -66.688861 
L 510.189959 -64.238066 
L 509.827819 -61.787272 
L 509.520695 -59.336478 
L 509.267623 -56.885683 
z
" style="stroke: #3f3f3f; stroke-width: 1.25"/>
    </defs>
    <g clip-path="url(#pb6c21a82d4)">
     <use xlink:href="#m28551311f3" x="0" y="360" style="fill: #e1812c; stroke: #3f3f3f; stroke-width: 1.25"/>
    </g>
   </g>
   <g id="matplotlib.axis_1">
    <g id="xtick_1">
     <g id="line2d_1">
      <defs>
       <path id="m78d818d001" d="M 0 0 
L 0 3.5 
" style="stroke: #000000; stroke-width: 0.8"/>
      </defs>
      <g>
       <use xlink:href="#m78d818d001" x="229.5" y="320.4" style="stroke: #000000; stroke-width: 0.8"/>
      </g>
     </g>
     <g id="text_1">
      <!-- other -->
      <g transform="translate(216.179688 334.998438) scale(0.1 -0.1)">
       <defs>
        <path id="DejaVuSans-6f" d="M 1959 3097 
Q 1497 3097 1228 2736 
Q 959 2375 959 1747 
Q 959 1119 1226 758 
Q 1494 397 1959 397 
Q 2419 397 2687 759 
Q 2956 1122 2956 1747 
Q 2956 2369 2687 2733 
Q 2419 3097 1959 3097 
z
M 1959 3584 
Q 2709 3584 3137 3096 
Q 3566 2609 3566 1747 
Q 3566 888 3137 398 
Q 2709 -91 1959 -91 
Q 1206 -91 779 398 
Q 353 888 353 1747 
Q 353 2609 779 3096 
Q 1206 3584 1959 3584 
z
" transform="scale(0.015625)"/>
        <path id="DejaVuSans-74" d="M 1172 4494 
L 1172 3500 
L 2356 3500 
L 2356 3053 
L 1172 3053 
L 1172 1153 
Q 1172 725 1289 603 
Q 1406 481 1766 481 
L 2356 481 
L 2356 0 
L 1766 0 
Q 1100 0 847 248 
Q 594 497 594 1153 
L 594 3053 
L 172 3053 
L 172 3500 
L 594 3500 
L 594 4494 
L 1172 4494 
z
" transform="scale(0.015625)"/>
        <path id="DejaVuSans-68" d="M 3513 2113 
L 3513 0 
L 2938 0 
L 2938 2094 
Q 2938 2591 2744 2837 
Q 2550 3084 2163 3084 
Q 1697 3084 1428 2787 
Q 1159 2491 1159 1978 
L 1159 0 
L 581 0 
L 581 4863 
L 1159 4863 
L 1159 2956 
Q 1366 3272 1645 3428 
Q 1925 3584 2291 3584 
Q 2894 3584 3203 3211 
Q 3513 2838 3513 2113 
z
" transform="scale(0.015625)"/>
        <path id="DejaVuSans-65" d="M 3597 1894 
L 3597 1613 
L 953 1613 
Q 991 1019 1311 708 
Q 1631 397 2203 397 
Q 2534 397 2845 478 
Q 3156 559 3463 722 
L 3463 178 
Q 3153 47 2828 -22 
Q 2503 -91 2169 -91 
Q 1331 -91 842 396 
Q 353 884 353 1716 
Q 353 2575 817 3079 
Q 1281 3584 2069 3584 
Q 2775 3584 3186 3129 
Q 3597 2675 3597 1894 
z
M 3022 2063 
Q 3016 2534 2758 2815 
Q 2500 3097 2075 3097 
Q 1594 3097 1305 2825 
Q 1016 2553 972 2059 
L 3022 2063 
z
" transform="scale(0.015625)"/>
        <path id="DejaVuSans-72" d="M 2631 2963 
Q 2534 3019 2420 3045 
Q 2306 3072 2169 3072 
Q 1681 3072 1420 2755 
Q 1159 2438 1159 1844 
L 1159 0 
L 581 0 
L 581 3500 
L 1159 3500 
L 1159 2956 
Q 1341 3275 1631 3429 
Q 1922 3584 2338 3584 
Q 2397 3584 2469 3576 
Q 2541 3569 2628 3553 
L 2631 2963 
z
" transform="scale(0.015625)"/>
       </defs>
       <use xlink:href="#DejaVuSans-6f"/>
       <use xlink:href="#DejaVuSans-74" transform="translate(61.181641 0)"/>
       <use xlink:href="#DejaVuSans-68" transform="translate(100.390625 0)"/>
       <use xlink:href="#DejaVuSans-65" transform="translate(163.769531 0)"/>
       <use xlink:href="#DejaVuSans-72" transform="translate(225.292969 0)"/>
      </g>
     </g>
    </g>
    <g id="xtick_2">
     <g id="line2d_2">
      <g>
       <use xlink:href="#m78d818d001" x="508.5" y="320.4" style="stroke: #000000; stroke-width: 0.8"/>
      </g>
     </g>
     <g id="text_2">
      <!-- Specific -->
      <g transform="translate(489.038281 334.998438) scale(0.1 -0.1)">
       <defs>
        <path id="DejaVuSans-53" d="M 3425 4513 
L 3425 3897 
Q 3066 4069 2747 4153 
Q 2428 4238 2131 4238 
Q 1616 4238 1336 4038 
Q 1056 3838 1056 3469 
Q 1056 3159 1242 3001 
Q 1428 2844 1947 2747 
L 2328 2669 
Q 3034 2534 3370 2195 
Q 3706 1856 3706 1288 
Q 3706 609 3251 259 
Q 2797 -91 1919 -91 
Q 1588 -91 1214 -16 
Q 841 59 441 206 
L 441 856 
Q 825 641 1194 531 
Q 1563 422 1919 422 
Q 2459 422 2753 634 
Q 3047 847 3047 1241 
Q 3047 1584 2836 1778 
Q 2625 1972 2144 2069 
L 1759 2144 
Q 1053 2284 737 2584 
Q 422 2884 422 3419 
Q 422 4038 858 4394 
Q 1294 4750 2059 4750 
Q 2388 4750 2728 4690 
Q 3069 4631 3425 4513 
z
" transform="scale(0.015625)"/>
        <path id="DejaVuSans-70" d="M 1159 525 
L 1159 -1331 
L 581 -1331 
L 581 3500 
L 1159 3500 
L 1159 2969 
Q 1341 3281 1617 3432 
Q 1894 3584 2278 3584 
Q 2916 3584 3314 3078 
Q 3713 2572 3713 1747 
Q 3713 922 3314 415 
Q 2916 -91 2278 -91 
Q 1894 -91 1617 61 
Q 1341 213 1159 525 
z
M 3116 1747 
Q 3116 2381 2855 2742 
Q 2594 3103 2138 3103 
Q 1681 3103 1420 2742 
Q 1159 2381 1159 1747 
Q 1159 1113 1420 752 
Q 1681 391 2138 391 
Q 2594 391 2855 752 
Q 3116 1113 3116 1747 
z
" transform="scale(0.015625)"/>
        <path id="DejaVuSans-63" d="M 3122 3366 
L 3122 2828 
Q 2878 2963 2633 3030 
Q 2388 3097 2138 3097 
Q 1578 3097 1268 2742 
Q 959 2388 959 1747 
Q 959 1106 1268 751 
Q 1578 397 2138 397 
Q 2388 397 2633 464 
Q 2878 531 3122 666 
L 3122 134 
Q 2881 22 2623 -34 
Q 2366 -91 2075 -91 
Q 1284 -91 818 406 
Q 353 903 353 1747 
Q 353 2603 823 3093 
Q 1294 3584 2113 3584 
Q 2378 3584 2631 3529 
Q 2884 3475 3122 3366 
z
" transform="scale(0.015625)"/>
        <path id="DejaVuSans-69" d="M 603 3500 
L 1178 3500 
L 1178 0 
L 603 0 
L 603 3500 
z
M 603 4863 
L 1178 4863 
L 1178 4134 
L 603 4134 
L 603 4863 
z
" transform="scale(0.015625)"/>
        <path id="DejaVuSans-66" d="M 2375 4863 
L 2375 4384 
L 1825 4384 
Q 1516 4384 1395 4259 
Q 1275 4134 1275 3809 
L 1275 3500 
L 2222 3500 
L 2222 3053 
L 1275 3053 
L 1275 0 
L 697 0 
L 697 3053 
L 147 3053 
L 147 3500 
L 697 3500 
L 697 3744 
Q 697 4328 969 4595 
Q 1241 4863 1831 4863 
L 2375 4863 
z
" transform="scale(0.015625)"/>
       </defs>
       <use xlink:href="#DejaVuSans-53"/>
       <use xlink:href="#DejaVuSans-70" transform="translate(63.476562 0)"/>
       <use xlink:href="#DejaVuSans-65" transform="translate(126.953125 0)"/>
       <use xlink:href="#DejaVuSans-63" transform="translate(188.476562 0)"/>
       <use xlink:href="#DejaVuSans-69" transform="translate(243.457031 0)"/>
       <use xlink:href="#DejaVuSans-66" transform="translate(271.240234 0)"/>
       <use xlink:href="#DejaVuSans-69" transform="translate(306.445312 0)"/>
       <use xlink:href="#DejaVuSans-63" transform="translate(334.228516 0)"/>
      </g>
     </g>
    </g>
    <g id="text_3">
     <!-- Connectivity category -->
     <g transform="translate(313.98125 348.676562) scale(0.1 -0.1)">
      <defs>
       <path id="DejaVuSans-43" d="M 4122 4306 
L 4122 3641 
Q 3803 3938 3442 4084 
Q 3081 4231 2675 4231 
Q 1875 4231 1450 3742 
Q 1025 3253 1025 2328 
Q 1025 1406 1450 917 
Q 1875 428 2675 428 
Q 3081 428 3442 575 
Q 3803 722 4122 1019 
L 4122 359 
Q 3791 134 3420 21 
Q 3050 -91 2638 -91 
Q 1578 -91 968 557 
Q 359 1206 359 2328 
Q 359 3453 968 4101 
Q 1578 4750 2638 4750 
Q 3056 4750 3426 4639 
Q 3797 4528 4122 4306 
z
" transform="scale(0.015625)"/>
       <path id="DejaVuSans-6e" d="M 3513 2113 
L 3513 0 
L 2938 0 
L 2938 2094 
Q 2938 2591 2744 2837 
Q 2550 3084 2163 3084 
Q 1697 3084 1428 2787 
Q 1159 2491 1159 1978 
L 1159 0 
L 581 0 
L 581 3500 
L 1159 3500 
L 1159 2956 
Q 1366 3272 1645 3428 
Q 1925 3584 2291 3584 
Q 2894 3584 3203 3211 
Q 3513 2838 3513 2113 
z
" transform="scale(0.015625)"/>
       <path id="DejaVuSans-76" d="M 191 3500 
L 800 3500 
L 1894 563 
L 2988 3500 
L 3597 3500 
L 2284 0 
L 1503 0 
L 191 3500 
z
" transform="scale(0.015625)"/>
       <path id="DejaVuSans-79" d="M 2059 -325 
Q 1816 -950 1584 -1140 
Q 1353 -1331 966 -1331 
L 506 -1331 
L 506 -850 
L 844 -850 
Q 1081 -850 1212 -737 
Q 1344 -625 1503 -206 
L 1606 56 
L 191 3500 
L 800 3500 
L 1894 763 
L 2988 3500 
L 3597 3500 
L 2059 -325 
z
" transform="scale(0.015625)"/>
       <path id="DejaVuSans-20" transform="scale(0.015625)"/>
       <path id="DejaVuSans-61" d="M 2194 1759 
Q 1497 1759 1228 1600 
Q 959 1441 959 1056 
Q 959 750 1161 570 
Q 1363 391 1709 391 
Q 2188 391 2477 730 
Q 2766 1069 2766 1631 
L 2766 1759 
L 2194 1759 
z
M 3341 1997 
L 3341 0 
L 2766 0 
L 2766 531 
Q 2569 213 2275 61 
Q 1981 -91 1556 -91 
Q 1019 -91 701 211 
Q 384 513 384 1019 
Q 384 1609 779 1909 
Q 1175 2209 1959 2209 
L 2766 2209 
L 2766 2266 
Q 2766 2663 2505 2880 
Q 2244 3097 1772 3097 
Q 1472 3097 1187 3025 
Q 903 2953 641 2809 
L 641 3341 
Q 956 3463 1253 3523 
Q 1550 3584 1831 3584 
Q 2591 3584 2966 3190 
Q 3341 2797 3341 1997 
z
" transform="scale(0.015625)"/>
       <path id="DejaVuSans-67" d="M 2906 1791 
Q 2906 2416 2648 2759 
Q 2391 3103 1925 3103 
Q 1463 3103 1205 2759 
Q 947 2416 947 1791 
Q 947 1169 1205 825 
Q 1463 481 1925 481 
Q 2391 481 2648 825 
Q 2906 1169 2906 1791 
z
M 3481 434 
Q 3481 -459 3084 -895 
Q 2688 -1331 1869 -1331 
Q 1566 -1331 1297 -1286 
Q 1028 -1241 775 -1147 
L 775 -588 
Q 1028 -725 1275 -790 
Q 1522 -856 1778 -856 
Q 2344 -856 2625 -561 
Q 2906 -266 2906 331 
L 2906 616 
Q 2728 306 2450 153 
Q 2172 0 1784 0 
Q 1141 0 747 490 
Q 353 981 353 1791 
Q 353 2603 747 3093 
Q 1141 3584 1784 3584 
Q 2172 3584 2450 3431 
Q 2728 3278 2906 2969 
L 2906 3500 
L 3481 3500 
L 3481 434 
z
" transform="scale(0.015625)"/>
      </defs>
      <use xlink:href="#DejaVuSans-43"/>
      <use xlink:href="#DejaVuSans-6f" transform="translate(69.824219 0)"/>
      <use xlink:href="#DejaVuSans-6e" transform="translate(131.005859 0)"/>
      <use xlink:href="#DejaVuSans-6e" transform="translate(194.384766 0)"/>
      <use xlink:href="#DejaVuSans-65" transform="translate(257.763672 0)"/>
      <use xlink:href="#DejaVuSans-63" transform="translate(319.287109 0)"/>
      <use xlink:href="#DejaVuSans-74" transform="translate(374.267578 0)"/>
      <use xlink:href="#DejaVuSans-69" transform="translate(413.476562 0)"/>
      <use xlink:href="#DejaVuSans-76" transform="translate(441.259766 0)"/>
      <use xlink:href="#DejaVuSans-69" transform="translate(500.439453 0)"/>
      <use xlink:href="#DejaVuSans-74" transform="translate(528.222656 0)"/>
      <use xlink:href="#DejaVuSans-79" transform="translate(567.431641 0)"/>
      <use xlink:href="#DejaVuSans-20" transform="translate(626.611328 0)"/>
      <use xlink:href="#DejaVuSans-63" transform="translate(658.398438 0)"/>
      <use xlink:href="#DejaVuSans-61" transform="translate(713.378906 0)"/>
      <use xlink:href="#DejaVuSans-74" transform="translate(774.658203 0)"/>
      <use xlink:href="#DejaVuSans-65" transform="translate(813.867188 0)"/>
      <use xlink:href="#DejaVuSans-67" transform="translate(875.390625 0)"/>
      <use xlink:href="#DejaVuSans-6f" transform="translate(938.867188 0)"/>
      <use xlink:href="#DejaVuSans-72" transform="translate(1000.048828 0)"/>
      <use xlink:href="#DejaVuSans-79" transform="translate(1041.162109 0)"/>
     </g>
    </g>
   </g>
   <g id="matplotlib.axis_2">
    <g id="ytick_1">
     <g id="line2d_3">
      <defs>
       <path id="mccff961909" d="M 0 0 
L -3.5 0 
" style="stroke: #000000; stroke-width: 0.8"/>
      </defs>
      <g>
       <use xlink:href="#mccff961909" x="90" y="305.255445" style="stroke: #000000; stroke-width: 0.8"/>
      </g>
     </g>
     <g id="text_4">
      <!-- 3 -->
      <g transform="translate(76.6375 309.054664) scale(0.1 -0.1)">
       <defs>
        <path id="DejaVuSans-33" d="M 2597 2516 
Q 3050 2419 3304 2112 
Q 3559 1806 3559 1356 
Q 3559 666 3084 287 
Q 2609 -91 1734 -91 
Q 1441 -91 1130 -33 
Q 819 25 488 141 
L 488 750 
Q 750 597 1062 519 
Q 1375 441 1716 441 
Q 2309 441 2620 675 
Q 2931 909 2931 1356 
Q 2931 1769 2642 2001 
Q 2353 2234 1838 2234 
L 1294 2234 
L 1294 2753 
L 1863 2753 
Q 2328 2753 2575 2939 
Q 2822 3125 2822 3475 
Q 2822 3834 2567 4026 
Q 2313 4219 1838 4219 
Q 1578 4219 1281 4162 
Q 984 4106 628 3988 
L 628 4550 
Q 988 4650 1302 4700 
Q 1616 4750 1894 4750 
Q 2613 4750 3031 4423 
Q 3450 4097 3450 3541 
Q 3450 3153 3228 2886 
Q 3006 2619 2597 2516 
z
" transform="scale(0.015625)"/>
       </defs>
       <use xlink:href="#DejaVuSans-33"/>
      </g>
     </g>
    </g>
    <g id="ytick_2">
     <g id="line2d_4">
      <g>
       <use xlink:href="#mccff961909" x="90" y="269.982461" style="stroke: #000000; stroke-width: 0.8"/>
      </g>
     </g>
     <g id="text_5">
      <!-- 4 -->
      <g transform="translate(76.6375 273.781679) scale(0.1 -0.1)">
       <defs>
        <path id="DejaVuSans-34" d="M 2419 4116 
L 825 1625 
L 2419 1625 
L 2419 4116 
z
M 2253 4666 
L 3047 4666 
L 3047 1625 
L 3713 1625 
L 3713 1100 
L 3047 1100 
L 3047 0 
L 2419 0 
L 2419 1100 
L 313 1100 
L 313 1709 
L 2253 4666 
z
" transform="scale(0.015625)"/>
       </defs>
       <use xlink:href="#DejaVuSans-34"/>
      </g>
     </g>
    </g>
    <g id="ytick_3">
     <g id="line2d_5">
      <g>
       <use xlink:href="#mccff961909" x="90" y="234.709476" style="stroke: #000000; stroke-width: 0.8"/>
      </g>
     </g>
     <g id="text_6">
      <!-- 5 -->
      <g transform="translate(76.6375 238.508695) scale(0.1 -0.1)">
       <defs>
        <path id="DejaVuSans-35" d="M 691 4666 
L 3169 4666 
L 3169 4134 
L 1269 4134 
L 1269 2991 
Q 1406 3038 1543 3061 
Q 1681 3084 1819 3084 
Q 2600 3084 3056 2656 
Q 3513 2228 3513 1497 
Q 3513 744 3044 326 
Q 2575 -91 1722 -91 
Q 1428 -91 1123 -41 
Q 819 9 494 109 
L 494 744 
Q 775 591 1075 516 
Q 1375 441 1709 441 
Q 2250 441 2565 725 
Q 2881 1009 2881 1497 
Q 2881 1984 2565 2268 
Q 2250 2553 1709 2553 
Q 1456 2553 1204 2497 
Q 953 2441 691 2322 
L 691 4666 
z
" transform="scale(0.015625)"/>
       </defs>
       <use xlink:href="#DejaVuSans-35"/>
      </g>
     </g>
    </g>
    <g id="ytick_4">
     <g id="line2d_6">
      <g>
       <use xlink:href="#mccff961909" x="90" y="199.436492" style="stroke: #000000; stroke-width: 0.8"/>
      </g>
     </g>
     <g id="text_7">
      <!-- 6 -->
      <g transform="translate(76.6375 203.235711) scale(0.1 -0.1)">
       <defs>
        <path id="DejaVuSans-36" d="M 2113 2584 
Q 1688 2584 1439 2293 
Q 1191 2003 1191 1497 
Q 1191 994 1439 701 
Q 1688 409 2113 409 
Q 2538 409 2786 701 
Q 3034 994 3034 1497 
Q 3034 2003 2786 2293 
Q 2538 2584 2113 2584 
z
M 3366 4563 
L 3366 3988 
Q 3128 4100 2886 4159 
Q 2644 4219 2406 4219 
Q 1781 4219 1451 3797 
Q 1122 3375 1075 2522 
Q 1259 2794 1537 2939 
Q 1816 3084 2150 3084 
Q 2853 3084 3261 2657 
Q 3669 2231 3669 1497 
Q 3669 778 3244 343 
Q 2819 -91 2113 -91 
Q 1303 -91 875 529 
Q 447 1150 447 2328 
Q 447 3434 972 4092 
Q 1497 4750 2381 4750 
Q 2619 4750 2861 4703 
Q 3103 4656 3366 4563 
z
" transform="scale(0.015625)"/>
       </defs>
       <use xlink:href="#DejaVuSans-36"/>
      </g>
     </g>
    </g>
    <g id="ytick_5">
     <g id="line2d_7">
      <g>
       <use xlink:href="#mccff961909" x="90" y="164.163508" style="stroke: #000000; stroke-width: 0.8"/>
      </g>
     </g>
     <g id="text_8">
      <!-- 7 -->
      <g transform="translate(76.6375 167.962727) scale(0.1 -0.1)">
       <defs>
        <path id="DejaVuSans-37" d="M 525 4666 
L 3525 4666 
L 3525 4397 
L 1831 0 
L 1172 0 
L 2766 4134 
L 525 4134 
L 525 4666 
z
" transform="scale(0.015625)"/>
       </defs>
       <use xlink:href="#DejaVuSans-37"/>
      </g>
     </g>
    </g>
    <g id="ytick_6">
     <g id="line2d_8">
      <g>
       <use xlink:href="#mccff961909" x="90" y="128.890524" style="stroke: #000000; stroke-width: 0.8"/>
      </g>
     </g>
     <g id="text_9">
      <!-- 8 -->
      <g transform="translate(76.6375 132.689742) scale(0.1 -0.1)">
       <defs>
        <path id="DejaVuSans-38" d="M 2034 2216 
Q 1584 2216 1326 1975 
Q 1069 1734 1069 1313 
Q 1069 891 1326 650 
Q 1584 409 2034 409 
Q 2484 409 2743 651 
Q 3003 894 3003 1313 
Q 3003 1734 2745 1975 
Q 2488 2216 2034 2216 
z
M 1403 2484 
Q 997 2584 770 2862 
Q 544 3141 544 3541 
Q 544 4100 942 4425 
Q 1341 4750 2034 4750 
Q 2731 4750 3128 4425 
Q 3525 4100 3525 3541 
Q 3525 3141 3298 2862 
Q 3072 2584 2669 2484 
Q 3125 2378 3379 2068 
Q 3634 1759 3634 1313 
Q 3634 634 3220 271 
Q 2806 -91 2034 -91 
Q 1263 -91 848 271 
Q 434 634 434 1313 
Q 434 1759 690 2068 
Q 947 2378 1403 2484 
z
M 1172 3481 
Q 1172 3119 1398 2916 
Q 1625 2713 2034 2713 
Q 2441 2713 2670 2916 
Q 2900 3119 2900 3481 
Q 2900 3844 2670 4047 
Q 2441 4250 2034 4250 
Q 1625 4250 1398 4047 
Q 1172 3844 1172 3481 
z
" transform="scale(0.015625)"/>
       </defs>
       <use xlink:href="#DejaVuSans-38"/>
      </g>
     </g>
    </g>
    <g id="ytick_7">
     <g id="line2d_9">
      <g>
       <use xlink:href="#mccff961909" x="90" y="93.617539" style="stroke: #000000; stroke-width: 0.8"/>
      </g>
     </g>
     <g id="text_10">
      <!-- 9 -->
      <g transform="translate(76.6375 97.416758) scale(0.1 -0.1)">
       <defs>
        <path id="DejaVuSans-39" d="M 703 97 
L 703 672 
Q 941 559 1184 500 
Q 1428 441 1663 441 
Q 2288 441 2617 861 
Q 2947 1281 2994 2138 
Q 2813 1869 2534 1725 
Q 2256 1581 1919 1581 
Q 1219 1581 811 2004 
Q 403 2428 403 3163 
Q 403 3881 828 4315 
Q 1253 4750 1959 4750 
Q 2769 4750 3195 4129 
Q 3622 3509 3622 2328 
Q 3622 1225 3098 567 
Q 2575 -91 1691 -91 
Q 1453 -91 1209 -44 
Q 966 3 703 97 
z
M 1959 2075 
Q 2384 2075 2632 2365 
Q 2881 2656 2881 3163 
Q 2881 3666 2632 3958 
Q 2384 4250 1959 4250 
Q 1534 4250 1286 3958 
Q 1038 3666 1038 3163 
Q 1038 2656 1286 2365 
Q 1534 2075 1959 2075 
z
" transform="scale(0.015625)"/>
       </defs>
       <use xlink:href="#DejaVuSans-39"/>
      </g>
     </g>
    </g>
    <g id="ytick_8">
     <g id="line2d_10">
      <g>
       <use xlink:href="#mccff961909" x="90" y="58.344555" style="stroke: #000000; stroke-width: 0.8"/>
      </g>
     </g>
     <g id="text_11">
      <!-- 10 -->
      <g transform="translate(70.275 62.143774) scale(0.1 -0.1)">
       <defs>
        <path id="DejaVuSans-31" d="M 794 531 
L 1825 531 
L 1825 4091 
L 703 3866 
L 703 4441 
L 1819 4666 
L 2450 4666 
L 2450 531 
L 3481 531 
L 3481 0 
L 794 0 
L 794 531 
z
" transform="scale(0.015625)"/>
        <path id="DejaVuSans-30" d="M 2034 4250 
Q 1547 4250 1301 3770 
Q 1056 3291 1056 2328 
Q 1056 1369 1301 889 
Q 1547 409 2034 409 
Q 2525 409 2770 889 
Q 3016 1369 3016 2328 
Q 3016 3291 2770 3770 
Q 2525 4250 2034 4250 
z
M 2034 4750 
Q 2819 4750 3233 4129 
Q 3647 3509 3647 2328 
Q 3647 1150 3233 529 
Q 2819 -91 2034 -91 
Q 1250 -91 836 529 
Q 422 1150 422 2328 
Q 422 3509 836 4129 
Q 1250 4750 2034 4750 
z
" transform="scale(0.015625)"/>
       </defs>
       <use xlink:href="#DejaVuSans-31"/>
       <use xlink:href="#DejaVuSans-30" transform="translate(63.623047 0)"/>
      </g>
     </g>
    </g>
    <g id="text_12">
     <!-- cont_variable -->
     <g transform="translate(63.917188 215.409375) rotate(-90) scale(0.1 -0.1)">
      <defs>
       <path id="DejaVuSans-5f" d="M 3263 -1063 
L 3263 -1509 
L -63 -1509 
L -63 -1063 
L 3263 -1063 
z
" transform="scale(0.015625)"/>
       <path id="DejaVuSans-62" d="M 3116 1747 
Q 3116 2381 2855 2742 
Q 2594 3103 2138 3103 
Q 1681 3103 1420 2742 
Q 1159 2381 1159 1747 
Q 1159 1113 1420 752 
Q 1681 391 2138 391 
Q 2594 391 2855 752 
Q 3116 1113 3116 1747 
z
M 1159 2969 
Q 1341 3281 1617 3432 
Q 1894 3584 2278 3584 
Q 2916 3584 3314 3078 
Q 3713 2572 3713 1747 
Q 3713 922 3314 415 
Q 2916 -91 2278 -91 
Q 1894 -91 1617 61 
Q 1341 213 1159 525 
L 1159 0 
L 581 0 
L 581 4863 
L 1159 4863 
L 1159 2969 
z
" transform="scale(0.015625)"/>
       <path id="DejaVuSans-6c" d="M 603 4863 
L 1178 4863 
L 1178 0 
L 603 0 
L 603 4863 
z
" transform="scale(0.015625)"/>
      </defs>
      <use xlink:href="#DejaVuSans-63"/>
      <use xlink:href="#DejaVuSans-6f" transform="translate(54.980469 0)"/>
      <use xlink:href="#DejaVuSans-6e" transform="translate(116.162109 0)"/>
      <use xlink:href="#DejaVuSans-74" transform="translate(179.541016 0)"/>
      <use xlink:href="#DejaVuSans-5f" transform="translate(218.75 0)"/>
      <use xlink:href="#DejaVuSans-76" transform="translate(268.75 0)"/>
      <use xlink:href="#DejaVuSans-61" transform="translate(327.929688 0)"/>
      <use xlink:href="#DejaVuSans-72" transform="translate(389.208984 0)"/>
      <use xlink:href="#DejaVuSans-69" transform="translate(430.322266 0)"/>
      <use xlink:href="#DejaVuSans-61" transform="translate(458.105469 0)"/>
      <use xlink:href="#DejaVuSans-62" transform="translate(519.384766 0)"/>
      <use xlink:href="#DejaVuSans-6c" transform="translate(582.861328 0)"/>
      <use xlink:href="#DejaVuSans-65" transform="translate(610.644531 0)"/>
     </g>
    </g>
   </g>
   <g id="patch_3">
    <path d="M 90 320.4 
L 90 43.2 
" style="fill: none; stroke: #000000; stroke-width: 0.8; stroke-linejoin: miter; stroke-linecap: square"/>
   </g>
   <g id="patch_4">
    <path d="M 648 320.4 
L 648 43.2 
" style="fill: none; stroke: #000000; stroke-width: 0.8; stroke-linejoin: miter; stroke-linecap: square"/>
   </g>
   <g id="patch_5">
    <path d="M 90 320.4 
L 648 320.4 
" style="fill: none; stroke: #000000; stroke-width: 0.8; stroke-linejoin: miter; stroke-linecap: square"/>
   </g>
   <g id="patch_6">
    <path d="M 90 43.2 
L 648 43.2 
" style="fill: none; stroke: #000000; stroke-width: 0.8; stroke-linejoin: miter; stroke-linecap: square"/>
   </g>
   <g id="PathCollection_1">
    <defs>
     <path id="m60abfc5d90" d="M 0 2.5 
C 0.663008 2.5 1.29895 2.236584 1.767767 1.767767 
C 2.236584 1.29895 2.5 0.663008 2.5 0 
C 2.5 -0.663008 2.236584 -1.29895 1.767767 -1.767767 
C 1.29895 -2.236584 0.663008 -2.5 0 -2.5 
C -0.663008 -2.5 -1.29895 -2.236584 -1.767767 -1.767767 
C -2.236584 -1.29895 -2.5 -0.663008 -2.5 0 
C -2.5 0.663008 -2.236584 1.29895 -1.767767 1.767767 
C -1.29895 2.236584 -0.663008 2.5 0 2.5 
z
"/>
    </defs>
    <g clip-path="url(#pb6c21a82d4)">
     <use xlink:href="#m60abfc5d90" x="256.110569" y="128.890524" style="fill-opacity: 0.3"/>
     <use xlink:href="#m60abfc5d90" x="235.234587" y="128.890524" style="fill-opacity: 0.3"/>
     <use xlink:href="#m60abfc5d90" x="252.061078" y="128.890524" style="fill-opacity: 0.3"/>
     <use xlink:href="#m60abfc5d90" x="230.33897" y="128.890524" style="fill-opacity: 0.3"/>
     <use xlink:href="#m60abfc5d90" x="248.121702" y="128.890524" style="fill-opacity: 0.3"/>
     <use xlink:href="#m60abfc5d90" x="232.605033" y="128.890524" style="fill-opacity: 0.3"/>
     <use xlink:href="#m60abfc5d90" x="251.631806" y="128.890524" style="fill-opacity: 0.3"/>
     <use xlink:href="#m60abfc5d90" x="242.53777" y="269.982461" style="fill-opacity: 0.3"/>
     <use xlink:href="#m60abfc5d90" x="236.810046" y="269.982461" style="fill-opacity: 0.3"/>
     <use xlink:href="#m60abfc5d90" x="221.29438" y="269.982461" style="fill-opacity: 0.3"/>
     <use xlink:href="#m60abfc5d90" x="244.149392" y="269.982461" style="fill-opacity: 0.3"/>
     <use xlink:href="#m60abfc5d90" x="218.539825" y="269.982461" style="fill-opacity: 0.3"/>
     <use xlink:href="#m60abfc5d90" x="249.680923" y="269.982461" style="fill-opacity: 0.3"/>
     <use xlink:href="#m60abfc5d90" x="257.15625" y="269.982461" style="fill-opacity: 0.3"/>
     <use xlink:href="#m60abfc5d90" x="226.252724" y="269.982461" style="fill-opacity: 0.3"/>
     <use xlink:href="#m60abfc5d90" x="220.853548" y="269.982461" style="fill-opacity: 0.3"/>
     <use xlink:href="#m60abfc5d90" x="217.433333" y="269.982461" style="fill-opacity: 0.3"/>
     <use xlink:href="#m60abfc5d90" x="220.333434" y="128.890524" style="fill-opacity: 0.3"/>
     <use xlink:href="#m60abfc5d90" x="239.31934" y="128.890524" style="fill-opacity: 0.3"/>
     <use xlink:href="#m60abfc5d90" x="213.042354" y="93.617539" style="fill-opacity: 0.3"/>
     <use xlink:href="#m60abfc5d90" x="254.491033" y="93.617539" style="fill-opacity: 0.3"/>
     <use xlink:href="#m60abfc5d90" x="206.786961" y="93.617539" style="fill-opacity: 0.3"/>
     <use xlink:href="#m60abfc5d90" x="222.3945" y="93.617539" style="fill-opacity: 0.3"/>
     <use xlink:href="#m60abfc5d90" x="223.418614" y="93.617539" style="fill-opacity: 0.3"/>
     <use xlink:href="#m60abfc5d90" x="233.692504" y="93.617539" style="fill-opacity: 0.3"/>
     <use xlink:href="#m60abfc5d90" x="204.533638" y="93.617539" style="fill-opacity: 0.3"/>
     <use xlink:href="#m60abfc5d90" x="207.962961" y="93.617539" style="fill-opacity: 0.3"/>
     <use xlink:href="#m60abfc5d90" x="235.153516" y="93.617539" style="fill-opacity: 0.3"/>
     <use xlink:href="#m60abfc5d90" x="242.097973" y="93.617539" style="fill-opacity: 0.3"/>
     <use xlink:href="#m60abfc5d90" x="211.981458" y="93.617539" style="fill-opacity: 0.3"/>
     <use xlink:href="#m60abfc5d90" x="242.588673" y="93.617539" style="fill-opacity: 0.3"/>
     <use xlink:href="#m60abfc5d90" x="248.102582" y="93.617539" style="fill-opacity: 0.3"/>
     <use xlink:href="#m60abfc5d90" x="222.362664" y="93.617539" style="fill-opacity: 0.3"/>
     <use xlink:href="#m60abfc5d90" x="251.892775" y="93.617539" style="fill-opacity: 0.3"/>
     <use xlink:href="#m60abfc5d90" x="221.490492" y="93.617539" style="fill-opacity: 0.3"/>
     <use xlink:href="#m60abfc5d90" x="228.869924" y="93.617539" style="fill-opacity: 0.3"/>
     <use xlink:href="#m60abfc5d90" x="221.964127" y="93.617539" style="fill-opacity: 0.3"/>
     <use xlink:href="#m60abfc5d90" x="250.925422" y="93.617539" style="fill-opacity: 0.3"/>
     <use xlink:href="#m60abfc5d90" x="233.808231" y="93.617539" style="fill-opacity: 0.3"/>
     <use xlink:href="#m60abfc5d90" x="250.563497" y="93.617539" style="fill-opacity: 0.3"/>
     <use xlink:href="#m60abfc5d90" x="219.436909" y="93.617539" style="fill-opacity: 0.3"/>
     <use xlink:href="#m60abfc5d90" x="252.995681" y="93.617539" style="fill-opacity: 0.3"/>
     <use xlink:href="#m60abfc5d90" x="256.104198" y="93.617539" style="fill-opacity: 0.3"/>
     <use xlink:href="#m60abfc5d90" x="208.495881" y="93.617539" style="fill-opacity: 0.3"/>
     <use xlink:href="#m60abfc5d90" x="243.226627" y="93.617539" style="fill-opacity: 0.3"/>
     <use xlink:href="#m60abfc5d90" x="203.530213" y="93.617539" style="fill-opacity: 0.3"/>
     <use xlink:href="#m60abfc5d90" x="243.391394" y="93.617539" style="fill-opacity: 0.3"/>
     <use xlink:href="#m60abfc5d90" x="221.324299" y="93.617539" style="fill-opacity: 0.3"/>
     <use xlink:href="#m60abfc5d90" x="213.193881" y="93.617539" style="fill-opacity: 0.3"/>
     <use xlink:href="#m60abfc5d90" x="221.648408" y="93.617539" style="fill-opacity: 0.3"/>
     <use xlink:href="#m60abfc5d90" x="211.21246" y="93.617539" style="fill-opacity: 0.3"/>
     <use xlink:href="#m60abfc5d90" x="204.971804" y="93.617539" style="fill-opacity: 0.3"/>
     <use xlink:href="#m60abfc5d90" x="246.470298" y="93.617539" style="fill-opacity: 0.3"/>
     <use xlink:href="#m60abfc5d90" x="223.809671" y="93.617539" style="fill-opacity: 0.3"/>
     <use xlink:href="#m60abfc5d90" x="218.631614" y="93.617539" style="fill-opacity: 0.3"/>
     <use xlink:href="#m60abfc5d90" x="253.980486" y="93.617539" style="fill-opacity: 0.3"/>
     <use xlink:href="#m60abfc5d90" x="215.171401" y="93.617539" style="fill-opacity: 0.3"/>
     <use xlink:href="#m60abfc5d90" x="218.033849" y="93.617539" style="fill-opacity: 0.3"/>
     <use xlink:href="#m60abfc5d90" x="220.491255" y="93.617539" style="fill-opacity: 0.3"/>
     <use xlink:href="#m60abfc5d90" x="256.786886" y="93.617539" style="fill-opacity: 0.3"/>
     <use xlink:href="#m60abfc5d90" x="247.490499" y="93.617539" style="fill-opacity: 0.3"/>
     <use xlink:href="#m60abfc5d90" x="212.344891" y="93.617539" style="fill-opacity: 0.3"/>
     <use xlink:href="#m60abfc5d90" x="243.962789" y="93.617539" style="fill-opacity: 0.3"/>
     <use xlink:href="#m60abfc5d90" x="234.07174" y="93.617539" style="fill-opacity: 0.3"/>
     <use xlink:href="#m60abfc5d90" x="248.382176" y="93.617539" style="fill-opacity: 0.3"/>
     <use xlink:href="#m60abfc5d90" x="204.218743" y="93.617539" style="fill-opacity: 0.3"/>
     <use xlink:href="#m60abfc5d90" x="230.137199" y="93.617539" style="fill-opacity: 0.3"/>
     <use xlink:href="#m60abfc5d90" x="234.012242" y="93.617539" style="fill-opacity: 0.3"/>
     <use xlink:href="#m60abfc5d90" x="254.656789" y="93.617539" style="fill-opacity: 0.3"/>
     <use xlink:href="#m60abfc5d90" x="224.980213" y="93.617539" style="fill-opacity: 0.3"/>
     <use xlink:href="#m60abfc5d90" x="235.636805" y="93.617539" style="fill-opacity: 0.3"/>
     <use xlink:href="#m60abfc5d90" x="253.038807" y="93.617539" style="fill-opacity: 0.3"/>
     <use xlink:href="#m60abfc5d90" x="244.936556" y="93.617539" style="fill-opacity: 0.3"/>
     <use xlink:href="#m60abfc5d90" x="221.008014" y="93.617539" style="fill-opacity: 0.3"/>
     <use xlink:href="#m60abfc5d90" x="207.639533" y="93.617539" style="fill-opacity: 0.3"/>
     <use xlink:href="#m60abfc5d90" x="244.153892" y="93.617539" style="fill-opacity: 0.3"/>
     <use xlink:href="#m60abfc5d90" x="251.175235" y="93.617539" style="fill-opacity: 0.3"/>
     <use xlink:href="#m60abfc5d90" x="214.856697" y="93.617539" style="fill-opacity: 0.3"/>
     <use xlink:href="#m60abfc5d90" x="220.490255" y="93.617539" style="fill-opacity: 0.3"/>
     <use xlink:href="#m60abfc5d90" x="243.029764" y="93.617539" style="fill-opacity: 0.3"/>
     <use xlink:href="#m60abfc5d90" x="245.363797" y="93.617539" style="fill-opacity: 0.3"/>
     <use xlink:href="#m60abfc5d90" x="233.529026" y="93.617539" style="fill-opacity: 0.3"/>
     <use xlink:href="#m60abfc5d90" x="248.666374" y="93.617539" style="fill-opacity: 0.3"/>
     <use xlink:href="#m60abfc5d90" x="207.410494" y="93.617539" style="fill-opacity: 0.3"/>
     <use xlink:href="#m60abfc5d90" x="206.598895" y="93.617539" style="fill-opacity: 0.3"/>
     <use xlink:href="#m60abfc5d90" x="229.027256" y="93.617539" style="fill-opacity: 0.3"/>
     <use xlink:href="#m60abfc5d90" x="209.586621" y="93.617539" style="fill-opacity: 0.3"/>
     <use xlink:href="#m60abfc5d90" x="245.585985" y="93.617539" style="fill-opacity: 0.3"/>
     <use xlink:href="#m60abfc5d90" x="205.067901" y="93.617539" style="fill-opacity: 0.3"/>
     <use xlink:href="#m60abfc5d90" x="201.831959" y="93.617539" style="fill-opacity: 0.3"/>
     <use xlink:href="#m60abfc5d90" x="249.835927" y="93.617539" style="fill-opacity: 0.3"/>
     <use xlink:href="#m60abfc5d90" x="238.110355" y="93.617539" style="fill-opacity: 0.3"/>
     <use xlink:href="#m60abfc5d90" x="253.37503" y="93.617539" style="fill-opacity: 0.3"/>
     <use xlink:href="#m60abfc5d90" x="242.328205" y="93.617539" style="fill-opacity: 0.3"/>
     <use xlink:href="#m60abfc5d90" x="205.486603" y="93.617539" style="fill-opacity: 0.3"/>
     <use xlink:href="#m60abfc5d90" x="207.055548" y="93.617539" style="fill-opacity: 0.3"/>
     <use xlink:href="#m60abfc5d90" x="214.013874" y="93.617539" style="fill-opacity: 0.3"/>
     <use xlink:href="#m60abfc5d90" x="218.053047" y="93.617539" style="fill-opacity: 0.3"/>
     <use xlink:href="#m60abfc5d90" x="209.779463" y="93.617539" style="fill-opacity: 0.3"/>
     <use xlink:href="#m60abfc5d90" x="232.375262" y="93.617539" style="fill-opacity: 0.3"/>
     <use xlink:href="#m60abfc5d90" x="232.908762" y="164.163508" style="fill-opacity: 0.3"/>
     <use xlink:href="#m60abfc5d90" x="222.586246" y="164.163508" style="fill-opacity: 0.3"/>
     <use xlink:href="#m60abfc5d90" x="245.253565" y="164.163508" style="fill-opacity: 0.3"/>
     <use xlink:href="#m60abfc5d90" x="249.133342" y="164.163508" style="fill-opacity: 0.3"/>
     <use xlink:href="#m60abfc5d90" x="229.424959" y="164.163508" style="fill-opacity: 0.3"/>
     <use xlink:href="#m60abfc5d90" x="256.771543" y="164.163508" style="fill-opacity: 0.3"/>
     <use xlink:href="#m60abfc5d90" x="202.512541" y="164.163508" style="fill-opacity: 0.3"/>
     <use xlink:href="#m60abfc5d90" x="230.159683" y="164.163508" style="fill-opacity: 0.3"/>
     <use xlink:href="#m60abfc5d90" x="254.814563" y="164.163508" style="fill-opacity: 0.3"/>
     <use xlink:href="#m60abfc5d90" x="246.028465" y="164.163508" style="fill-opacity: 0.3"/>
     <use xlink:href="#m60abfc5d90" x="228.586829" y="164.163508" style="fill-opacity: 0.3"/>
     <use xlink:href="#m60abfc5d90" x="227.345137" y="164.163508" style="fill-opacity: 0.3"/>
     <use xlink:href="#m60abfc5d90" x="245.365622" y="164.163508" style="fill-opacity: 0.3"/>
     <use xlink:href="#m60abfc5d90" x="210.113547" y="164.163508" style="fill-opacity: 0.3"/>
     <use xlink:href="#m60abfc5d90" x="245.005143" y="164.163508" style="fill-opacity: 0.3"/>
     <use xlink:href="#m60abfc5d90" x="206.423761" y="164.163508" style="fill-opacity: 0.3"/>
     <use xlink:href="#m60abfc5d90" x="203.153552" y="164.163508" style="fill-opacity: 0.3"/>
     <use xlink:href="#m60abfc5d90" x="218.149421" y="164.163508" style="fill-opacity: 0.3"/>
     <use xlink:href="#m60abfc5d90" x="227.50941" y="164.163508" style="fill-opacity: 0.3"/>
     <use xlink:href="#m60abfc5d90" x="214.145109" y="164.163508" style="fill-opacity: 0.3"/>
     <use xlink:href="#m60abfc5d90" x="227.06615" y="164.163508" style="fill-opacity: 0.3"/>
     <use xlink:href="#m60abfc5d90" x="224.910247" y="164.163508" style="fill-opacity: 0.3"/>
     <use xlink:href="#m60abfc5d90" x="241.034069" y="164.163508" style="fill-opacity: 0.3"/>
     <use xlink:href="#m60abfc5d90" x="254.471528" y="164.163508" style="fill-opacity: 0.3"/>
     <use xlink:href="#m60abfc5d90" x="228.148614" y="164.163508" style="fill-opacity: 0.3"/>
     <use xlink:href="#m60abfc5d90" x="249.583657" y="164.163508" style="fill-opacity: 0.3"/>
     <use xlink:href="#m60abfc5d90" x="228.866614" y="164.163508" style="fill-opacity: 0.3"/>
     <use xlink:href="#m60abfc5d90" x="222.308447" y="164.163508" style="fill-opacity: 0.3"/>
     <use xlink:href="#m60abfc5d90" x="227.25754" y="164.163508" style="fill-opacity: 0.3"/>
     <use xlink:href="#m60abfc5d90" x="235.767497" y="164.163508" style="fill-opacity: 0.3"/>
     <use xlink:href="#m60abfc5d90" x="211.154192" y="164.163508" style="fill-opacity: 0.3"/>
     <use xlink:href="#m60abfc5d90" x="208.714935" y="164.163508" style="fill-opacity: 0.3"/>
     <use xlink:href="#m60abfc5d90" x="256.07566" y="164.163508" style="fill-opacity: 0.3"/>
     <use xlink:href="#m60abfc5d90" x="246.170652" y="164.163508" style="fill-opacity: 0.3"/>
     <use xlink:href="#m60abfc5d90" x="237.672762" y="164.163508" style="fill-opacity: 0.3"/>
     <use xlink:href="#m60abfc5d90" x="251.379894" y="164.163508" style="fill-opacity: 0.3"/>
    </g>
   </g>
   <g id="PathCollection_2">
    <g clip-path="url(#pb6c21a82d4)">
     <use xlink:href="#m60abfc5d90" x="524.623328" y="128.890524" style="fill-opacity: 0.3"/>
     <use xlink:href="#m60abfc5d90" x="487.354302" y="128.890524" style="fill-opacity: 0.3"/>
     <use xlink:href="#m60abfc5d90" x="513.118544" y="128.890524" style="fill-opacity: 0.3"/>
     <use xlink:href="#m60abfc5d90" x="520.002423" y="128.890524" style="fill-opacity: 0.3"/>
     <use xlink:href="#m60abfc5d90" x="480.656591" y="128.890524" style="fill-opacity: 0.3"/>
     <use xlink:href="#m60abfc5d90" x="523.405383" y="128.890524" style="fill-opacity: 0.3"/>
     <use xlink:href="#m60abfc5d90" x="498.388832" y="128.890524" style="fill-opacity: 0.3"/>
     <use xlink:href="#m60abfc5d90" x="534.053037" y="128.890524" style="fill-opacity: 0.3"/>
     <use xlink:href="#m60abfc5d90" x="513.144567" y="128.890524" style="fill-opacity: 0.3"/>
     <use xlink:href="#m60abfc5d90" x="506.44671" y="269.982461" style="fill-opacity: 0.3"/>
     <use xlink:href="#m60abfc5d90" x="513.819632" y="269.982461" style="fill-opacity: 0.3"/>
     <use xlink:href="#m60abfc5d90" x="507.039479" y="128.890524" style="fill-opacity: 0.3"/>
     <use xlink:href="#m60abfc5d90" x="481.405106" y="128.890524" style="fill-opacity: 0.3"/>
     <use xlink:href="#m60abfc5d90" x="522.130685" y="128.890524" style="fill-opacity: 0.3"/>
     <use xlink:href="#m60abfc5d90" x="509.633872" y="93.617539" style="fill-opacity: 0.3"/>
     <use xlink:href="#m60abfc5d90" x="522.350056" y="93.617539" style="fill-opacity: 0.3"/>
     <use xlink:href="#m60abfc5d90" x="529.882967" y="93.617539" style="fill-opacity: 0.3"/>
     <use xlink:href="#m60abfc5d90" x="519.954155" y="93.617539" style="fill-opacity: 0.3"/>
     <use xlink:href="#m60abfc5d90" x="501.161505" y="93.617539" style="fill-opacity: 0.3"/>
     <use xlink:href="#m60abfc5d90" x="509.24394" y="93.617539" style="fill-opacity: 0.3"/>
     <use xlink:href="#m60abfc5d90" x="524.134145" y="93.617539" style="fill-opacity: 0.3"/>
     <use xlink:href="#m60abfc5d90" x="513.545526" y="93.617539" style="fill-opacity: 0.3"/>
     <use xlink:href="#m60abfc5d90" x="524.617359" y="93.617539" style="fill-opacity: 0.3"/>
     <use xlink:href="#m60abfc5d90" x="502.872565" y="93.617539" style="fill-opacity: 0.3"/>
     <use xlink:href="#m60abfc5d90" x="523.794912" y="93.617539" style="fill-opacity: 0.3"/>
     <use xlink:href="#m60abfc5d90" x="499.843418" y="93.617539" style="fill-opacity: 0.3"/>
     <use xlink:href="#m60abfc5d90" x="493.337726" y="93.617539" style="fill-opacity: 0.3"/>
     <use xlink:href="#m60abfc5d90" x="495.071047" y="93.617539" style="fill-opacity: 0.3"/>
     <use xlink:href="#m60abfc5d90" x="529.783607" y="93.617539" style="fill-opacity: 0.3"/>
     <use xlink:href="#m60abfc5d90" x="493.26002" y="93.617539" style="fill-opacity: 0.3"/>
     <use xlink:href="#m60abfc5d90" x="525.216324" y="93.617539" style="fill-opacity: 0.3"/>
     <use xlink:href="#m60abfc5d90" x="518.508979" y="93.617539" style="fill-opacity: 0.3"/>
     <use xlink:href="#m60abfc5d90" x="524.623027" y="93.617539" style="fill-opacity: 0.3"/>
     <use xlink:href="#m60abfc5d90" x="522.186026" y="93.617539" style="fill-opacity: 0.3"/>
     <use xlink:href="#m60abfc5d90" x="483.574541" y="93.617539" style="fill-opacity: 0.3"/>
     <use xlink:href="#m60abfc5d90" x="486.930325" y="93.617539" style="fill-opacity: 0.3"/>
     <use xlink:href="#m60abfc5d90" x="536.219846" y="93.617539" style="fill-opacity: 0.3"/>
     <use xlink:href="#m60abfc5d90" x="521.996655" y="93.617539" style="fill-opacity: 0.3"/>
     <use xlink:href="#m60abfc5d90" x="516.003243" y="93.617539" style="fill-opacity: 0.3"/>
     <use xlink:href="#m60abfc5d90" x="529.467898" y="93.617539" style="fill-opacity: 0.3"/>
     <use xlink:href="#m60abfc5d90" x="512.286296" y="93.617539" style="fill-opacity: 0.3"/>
     <use xlink:href="#m60abfc5d90" x="515.495608" y="93.617539" style="fill-opacity: 0.3"/>
     <use xlink:href="#m60abfc5d90" x="518.418969" y="93.617539" style="fill-opacity: 0.3"/>
     <use xlink:href="#m60abfc5d90" x="532.178429" y="93.617539" style="fill-opacity: 0.3"/>
     <use xlink:href="#m60abfc5d90" x="530.818149" y="93.617539" style="fill-opacity: 0.3"/>
     <use xlink:href="#m60abfc5d90" x="489.038468" y="93.617539" style="fill-opacity: 0.3"/>
     <use xlink:href="#m60abfc5d90" x="500.862732" y="93.617539" style="fill-opacity: 0.3"/>
     <use xlink:href="#m60abfc5d90" x="513.025779" y="93.617539" style="fill-opacity: 0.3"/>
     <use xlink:href="#m60abfc5d90" x="491.654908" y="93.617539" style="fill-opacity: 0.3"/>
     <use xlink:href="#m60abfc5d90" x="527.472289" y="93.617539" style="fill-opacity: 0.3"/>
     <use xlink:href="#m60abfc5d90" x="514.080798" y="93.617539" style="fill-opacity: 0.3"/>
     <use xlink:href="#m60abfc5d90" x="482.478804" y="93.617539" style="fill-opacity: 0.3"/>
     <use xlink:href="#m60abfc5d90" x="529.366319" y="164.163508" style="fill-opacity: 0.3"/>
     <use xlink:href="#m60abfc5d90" x="488.397453" y="164.163508" style="fill-opacity: 0.3"/>
     <use xlink:href="#m60abfc5d90" x="525.147728" y="164.163508" style="fill-opacity: 0.3"/>
     <use xlink:href="#m60abfc5d90" x="526.044224" y="164.163508" style="fill-opacity: 0.3"/>
     <use xlink:href="#m60abfc5d90" x="509.436851" y="164.163508" style="fill-opacity: 0.3"/>
     <use xlink:href="#m60abfc5d90" x="485.418279" y="164.163508" style="fill-opacity: 0.3"/>
     <use xlink:href="#m60abfc5d90" x="500.167176" y="164.163508" style="fill-opacity: 0.3"/>
     <use xlink:href="#m60abfc5d90" x="515.10342" y="164.163508" style="fill-opacity: 0.3"/>
     <use xlink:href="#m60abfc5d90" x="535.910435" y="164.163508" style="fill-opacity: 0.3"/>
     <use xlink:href="#m60abfc5d90" x="500.997617" y="164.163508" style="fill-opacity: 0.3"/>
     <use xlink:href="#m60abfc5d90" x="507.412589" y="164.163508" style="fill-opacity: 0.3"/>
     <use xlink:href="#m60abfc5d90" x="514.009504" y="164.163508" style="fill-opacity: 0.3"/>
     <use xlink:href="#m60abfc5d90" x="521.184164" y="164.163508" style="fill-opacity: 0.3"/>
     <use xlink:href="#m60abfc5d90" x="502.996596" y="164.163508" style="fill-opacity: 0.3"/>
     <use xlink:href="#m60abfc5d90" x="530.433207" y="164.163508" style="fill-opacity: 0.3"/>
     <use xlink:href="#m60abfc5d90" x="486.419366" y="164.163508" style="fill-opacity: 0.3"/>
     <use xlink:href="#m60abfc5d90" x="494.251231" y="164.163508" style="fill-opacity: 0.3"/>
     <use xlink:href="#m60abfc5d90" x="500.037242" y="164.163508" style="fill-opacity: 0.3"/>
     <use xlink:href="#m60abfc5d90" x="519.520609" y="164.163508" style="fill-opacity: 0.3"/>
     <use xlink:href="#m60abfc5d90" x="534.391652" y="164.163508" style="fill-opacity: 0.3"/>
     <use xlink:href="#m60abfc5d90" x="529.528985" y="164.163508" style="fill-opacity: 0.3"/>
     <use xlink:href="#m60abfc5d90" x="506.490565" y="164.163508" style="fill-opacity: 0.3"/>
     <use xlink:href="#m60abfc5d90" x="510.595378" y="164.163508" style="fill-opacity: 0.3"/>
     <use xlink:href="#m60abfc5d90" x="481.191695" y="164.163508" style="fill-opacity: 0.3"/>
    </g>
   </g>
  </g>
 </g>
 <defs>
  <clipPath id="pb6c21a82d4">
   <rect x="90" y="43.2" width="558" height="277.2"/>
  </clipPath>
 </defs>
</svg>
