<?xml version="1.0" encoding="utf-8" standalone="no"?>
<!DOCTYPE svg PUBLIC "-//W3C//DTD SVG 1.1//EN"
  "http://www.w3.org/Graphics/SVG/1.1/DTD/svg11.dtd">
<svg xmlns:xlink="http://www.w3.org/1999/xlink" width="720pt" height="360pt" viewBox="0 0 720 360" xmlns="http://www.w3.org/2000/svg" version="1.1">
 <metadata>
  <rdf:RDF xmlns:dc="http://purl.org/dc/elements/1.1/" xmlns:cc="http://creativecommons.org/ns#" xmlns:rdf="http://www.w3.org/1999/02/22-rdf-syntax-ns#">
   <cc:Work>
    <dc:type rdf:resource="http://purl.org/dc/dcmitype/StillImage"/>
    <dc:date>2025-09-09T16:54:24.277300</dc:date>
    <dc:format>image/svg+xml</dc:format>
    <dc:creator>
     <cc:Agent>
      <dc:title>Matplotlib v3.10.3, https://matplotlib.org/</dc:title>
     </cc:Agent>
    </dc:creator>
   </cc:Work>
  </rdf:RDF>
 </metadata>
 <defs>
  <style type="text/css">*{stroke-linejoin: round; stroke-linecap: butt}</style>
 </defs>
 <g id="figure_1">
  <g id="patch_1">
   <path d="M 0 360 
L 720 360 
L 720 0 
L 0 0 
z
" style="fill: #ffffff"/>
  </g>
  <g id="axes_1">
   <g id="patch_2">
    <path d="M 90 320.4 
L 648 320.4 
L 648 43.2 
L 90 43.2 
z
" style="fill: #ffffff"/>
   </g>
   <g id="FillBetweenPolyCollection_1">
    <defs>
     <path id="mff37a48fb0" d="M 160.243933 -66.260186 
L 159.256067 -66.260186 
L 159.112663 -68.521596 
L 158.941784 -70.783007 
L 158.742738 -73.044417 
L 158.516287 -75.305828 
L 158.264946 -77.567238 
L 157.99318 -79.828648 
L 157.707469 -82.090059 
L 157.416182 -84.351469 
L 157.129273 -86.61288 
L 156.857767 -88.87429 
L 156.613094 -91.1357 
L 156.406307 -93.397111 
L 156.247258 -95.658521 
L 156.143826 -97.919931 
L 156.101266 -100.181342 
L 156.121766 -102.442752 
L 156.204262 -104.704163 
L 156.344522 -106.965573 
L 156.535501 -109.226983 
L 156.76792 -111.488394 
L 157.030988 -113.749804 
L 157.313203 -116.011214 
L 157.603127 -118.272625 
L 157.890059 -120.534035 
L 158.164534 -122.795446 
L 158.41861 -125.056856 
L 158.645913 -127.318266 
L 158.841454 -129.579677 
L 159.001219 -131.841087 
L 159.121587 -134.102498 
L 159.198603 -136.363908 
L 159.227168 -138.625318 
L 159.200205 -140.886729 
L 159.107858 -143.148139 
L 158.936815 -145.409549 
L 158.669842 -147.67096 
L 158.285624 -149.93237 
L 157.759044 -152.193781 
L 157.061984 -154.455191 
L 156.164749 -156.716601 
L 155.038154 -158.978012 
L 153.656246 -161.239422 
L 151.999544 -163.500833 
L 150.058572 -165.762243 
L 147.837372 -168.023653 
L 145.356568 -170.285064 
L 142.655533 -172.546474 
L 139.793218 -174.807884 
L 136.847258 -177.069295 
L 133.911159 -179.330705 
L 131.089547 -181.592116 
L 128.491743 -183.853526 
L 126.224125 -186.114936 
L 124.381997 -188.376347 
L 123.041769 -190.637757 
L 122.254285 -192.899167 
L 122.040032 -195.160578 
L 122.386768 -197.421988 
L 123.249771 -199.683399 
L 124.554664 -201.944809 
L 126.202385 -204.206219 
L 128.075714 -206.46763 
L 130.0466 -208.72904 
L 131.983549 -210.990451 
L 133.758456 -213.251861 
L 135.252468 -215.513271 
L 136.360707 -217.774682 
L 136.99592 -220.036092 
L 137.091285 -222.297502 
L 136.602692 -224.558913 
L 135.51074 -226.820323 
L 133.822601 -229.081734 
L 131.573653 -231.343144 
L 128.82859 -233.604554 
L 125.681551 -235.865965 
L 122.254702 -238.127375 
L 118.694791 -240.388786 
L 115.167356 -242.650196 
L 111.848574 -244.911606 
L 108.915124 -247.173017 
L 106.532774 -249.434427 
L 104.844746 -251.695837 
L 103.96105 -253.957248 
L 103.95 -256.218658 
L 104.832923 -258.480069 
L 106.582722 -260.741479 
L 109.126522 -263.002889 
L 112.352095 -265.2643 
L 116.117343 -267.52571 
L 120.261758 -269.78712 
L 124.618613 -272.048531 
L 129.026608 -274.309941 
L 133.339906 -276.571352 
L 137.43574 -278.832762 
L 141.219167 -281.094172 
L 144.624909 -283.355583 
L 147.616546 -285.616993 
L 150.1836 -287.878404 
L 152.33714 -290.139814 
L 167.16286 -290.139814 
L 167.16286 -290.139814 
L 169.3164 -287.878404 
L 171.883454 -285.616993 
L 174.875091 -283.355583 
L 178.280833 -281.094172 
L 182.06426 -278.832762 
L 186.160094 -276.571352 
L 190.473392 -274.309941 
L 194.881387 -272.048531 
L 199.238242 -269.78712 
L 203.382657 -267.52571 
L 207.147905 -265.2643 
L 210.373478 -263.002889 
L 212.917278 -260.741479 
L 214.667077 -258.480069 
L 215.55 -256.218658 
L 215.53895 -253.957248 
L 214.655254 -251.695837 
L 212.967226 -249.434427 
L 210.584876 -247.173017 
L 207.651426 -244.911606 
L 204.332644 -242.650196 
L 200.805209 -240.388786 
L 197.245298 -238.127375 
L 193.818449 -235.865965 
L 190.67141 -233.604554 
L 187.926347 -231.343144 
L 185.677399 -229.081734 
L 183.98926 -226.820323 
L 182.897308 -224.558913 
L 182.408715 -222.297502 
L 182.50408 -220.036092 
L 183.139293 -217.774682 
L 184.247532 -215.513271 
L 185.741544 -213.251861 
L 187.516451 -210.990451 
L 189.4534 -208.72904 
L 191.424286 -206.46763 
L 193.297615 -204.206219 
L 194.945336 -201.944809 
L 196.250229 -199.683399 
L 197.113232 -197.421988 
L 197.459968 -195.160578 
L 197.245715 -192.899167 
L 196.458231 -190.637757 
L 195.118003 -188.376347 
L 193.275875 -186.114936 
L 191.008257 -183.853526 
L 188.410453 -181.592116 
L 185.588841 -179.330705 
L 182.652742 -177.069295 
L 179.706782 -174.807884 
L 176.844467 -172.546474 
L 174.143432 -170.285064 
L 171.662628 -168.023653 
L 169.441428 -165.762243 
L 167.500456 -163.500833 
L 165.843754 -161.239422 
L 164.461846 -158.978012 
L 163.335251 -156.716601 
L 162.438016 -154.455191 
L 161.740956 -152.193781 
L 161.214376 -149.93237 
L 160.830158 -147.67096 
L 160.563185 -145.409549 
L 160.392142 -143.148139 
L 160.299795 -140.886729 
L 160.272832 -138.625318 
L 160.301397 -136.363908 
L 160.378413 -134.102498 
L 160.498781 -131.841087 
L 160.658546 -129.579677 
L 160.854087 -127.318266 
L 161.08139 -125.056856 
L 161.335466 -122.795446 
L 161.609941 -120.534035 
L 161.896873 -118.272625 
L 162.186797 -116.011214 
L 162.469012 -113.749804 
L 162.73208 -111.488394 
L 162.964499 -109.226983 
L 163.155478 -106.965573 
L 163.295738 -104.704163 
L 163.378234 -102.442752 
L 163.398734 -100.181342 
L 163.356174 -97.919931 
L 163.252742 -95.658521 
L 163.093693 -93.397111 
L 162.886906 -91.1357 
L 162.642233 -88.87429 
L 162.370727 -86.61288 
L 162.083818 -84.351469 
L 161.792531 -82.090059 
L 161.50682 -79.828648 
L 161.235054 -77.567238 
L 160.983713 -75.305828 
L 160.757262 -73.044417 
L 160.558216 -70.783007 
L 160.387337 -68.521596 
L 160.243933 -66.260186 
z
" style="stroke: #3d3d3d; stroke-width: 1.25"/>
    </defs>
    <g clip-path="url(#p373df27579)">
     <use xlink:href="#mff37a48fb0" x="0" y="360" style="fill: #3274a1; stroke: #3d3d3d; stroke-width: 1.25"/>
    </g>
   </g>
   <g id="FillBetweenPolyCollection_2">
    <defs>
     <path id="m0c0e60c467" d="M 299.844987 -68.747159 
L 298.655013 -68.747159 
L 298.471979 -70.958328 
L 298.252088 -73.169496 
L 297.994519 -75.380665 
L 297.700665 -77.591833 
L 297.374583 -79.803002 
L 297.023271 -82.01417 
L 296.656693 -84.225339 
L 296.287504 -86.436507 
L 295.930454 -88.647676 
L 295.601479 -90.858844 
L 295.316564 -93.070013 
L 295.090467 -95.281181 
L 294.935464 -97.49235 
L 294.860239 -99.703518 
L 294.869085 -101.914687 
L 294.961494 -104.125855 
L 295.132206 -106.337024 
L 295.371705 -108.548192 
L 295.667093 -110.759361 
L 296.003242 -112.970529 
L 296.364058 -115.181698 
L 296.733737 -117.392866 
L 297.09785 -119.604035 
L 297.444175 -121.815203 
L 297.7632 -124.026372 
L 298.048292 -126.23754 
L 298.295546 -128.448709 
L 298.503377 -130.659877 
L 298.671911 -132.871046 
L 298.802251 -135.082214 
L 298.895678 -137.293383 
L 298.952837 -139.504551 
L 298.972952 -141.71572 
L 298.953084 -143.926888 
L 298.887479 -146.138057 
L 298.767037 -148.349225 
L 298.578962 -150.560394 
L 298.306671 -152.771562 
L 297.93005 -154.982731 
L 297.426179 -157.193899 
L 296.770581 -159.405068 
L 295.939082 -161.616236 
L 294.910235 -163.827405 
L 293.668203 -166.038573 
L 292.205885 -168.249742 
L 290.527943 -170.46091 
L 288.653313 -172.672079 
L 286.616748 -174.883247 
L 284.468968 -177.094416 
L 282.275098 -179.305584 
L 280.111289 -181.516753 
L 278.059631 -183.727921 
L 276.201778 -185.93909 
L 274.61191 -188.150258 
L 273.349869 -190.361427 
L 272.455324 -192.572595 
L 271.943759 -194.783764 
L 271.804834 -196.994932 
L 272.003351 -199.206101 
L 272.482646 -201.417269 
L 273.1699 -203.628438 
L 273.982534 -205.839606 
L 274.834738 -208.050775 
L 275.643232 -210.261943 
L 276.331545 -212.473112 
L 276.832445 -214.68428 
L 277.08858 -216.895449 
L 277.051768 -219.106617 
L 276.681671 -221.317786 
L 275.944754 -223.528954 
L 274.814326 -225.740123 
L 273.272244 -227.951291 
L 271.312417 -230.16246 
L 268.945772 -232.373628 
L 266.205876 -234.584797 
L 263.154049 -236.795965 
L 259.882641 -239.007134 
L 256.515292 -241.218302 
L 253.203291 -243.429471 
L 250.117786 -245.640639 
L 247.438229 -247.851808 
L 245.338142 -250.062976 
L 243.969837 -252.274145 
L 243.45 -254.485313 
L 243.84807 -256.696482 
L 245.178984 -258.90765 
L 247.401305 -261.118819 
L 250.42096 -263.329987 
L 254.100067 -265.541156 
L 258.269641 -267.752324 
L 262.744505 -269.963493 
L 267.338559 -272.174661 
L 271.87868 -274.38583 
L 276.21585 -276.596998 
L 280.232662 -278.808167 
L 283.846888 -281.019335 
L 287.011358 -283.230504 
L 289.710789 -285.441672 
L 291.956479 -287.652841 
L 306.543521 -287.652841 
L 306.543521 -287.652841 
L 308.789211 -285.441672 
L 311.488642 -283.230504 
L 314.653112 -281.019335 
L 318.267338 -278.808167 
L 322.28415 -276.596998 
L 326.62132 -274.38583 
L 331.161441 -272.174661 
L 335.755495 -269.963493 
L 340.230359 -267.752324 
L 344.399933 -265.541156 
L 348.07904 -263.329987 
L 351.098695 -261.118819 
L 353.321016 -258.90765 
L 354.65193 -256.696482 
L 355.05 -254.485313 
L 354.530163 -252.274145 
L 353.161858 -250.062976 
L 351.061771 -247.851808 
L 348.382214 -245.640639 
L 345.296709 -243.429471 
L 341.984708 -241.218302 
L 338.617359 -239.007134 
L 335.345951 -236.795965 
L 332.294124 -234.584797 
L 329.554228 -232.373628 
L 327.187583 -230.16246 
L 325.227756 -227.951291 
L 323.685674 -225.740123 
L 322.555246 -223.528954 
L 321.818329 -221.317786 
L 321.448232 -219.106617 
L 321.41142 -216.895449 
L 321.667555 -214.68428 
L 322.168455 -212.473112 
L 322.856768 -210.261943 
L 323.665262 -208.050775 
L 324.517466 -205.839606 
L 325.3301 -203.628438 
L 326.017354 -201.417269 
L 326.496649 -199.206101 
L 326.695166 -196.994932 
L 326.556241 -194.783764 
L 326.044676 -192.572595 
L 325.150131 -190.361427 
L 323.88809 -188.150258 
L 322.298222 -185.93909 
L 320.440369 -183.727921 
L 318.388711 -181.516753 
L 316.224902 -179.305584 
L 314.031032 -177.094416 
L 311.883252 -174.883247 
L 309.846687 -172.672079 
L 307.972057 -170.46091 
L 306.294115 -168.249742 
L 304.831797 -166.038573 
L 303.589765 -163.827405 
L 302.560918 -161.616236 
L 301.729419 -159.405068 
L 301.073821 -157.193899 
L 300.56995 -154.982731 
L 300.193329 -152.771562 
L 299.921038 -150.560394 
L 299.732963 -148.349225 
L 299.612521 -146.138057 
L 299.546916 -143.926888 
L 299.527048 -141.71572 
L 299.547163 -139.504551 
L 299.604322 -137.293383 
L 299.697749 -135.082214 
L 299.828089 -132.871046 
L 299.996623 -130.659877 
L 300.204454 -128.448709 
L 300.451708 -126.23754 
L 300.7368 -124.026372 
L 301.055825 -121.815203 
L 301.40215 -119.604035 
L 301.766263 -117.392866 
L 302.135942 -115.181698 
L 302.496758 -112.970529 
L 302.832907 -110.759361 
L 303.128295 -108.548192 
L 303.367794 -106.337024 
L 303.538506 -104.125855 
L 303.630915 -101.914687 
L 303.639761 -99.703518 
L 303.564536 -97.49235 
L 303.409533 -95.281181 
L 303.183436 -93.070013 
L 302.898521 -90.858844 
L 302.569546 -88.647676 
L 302.212496 -86.436507 
L 301.843307 -84.225339 
L 301.476729 -82.01417 
L 301.125417 -79.803002 
L 300.799335 -77.591833 
L 300.505481 -75.380665 
L 300.247912 -73.169496 
L 300.028021 -70.958328 
L 299.844987 -68.747159 
z
" style="stroke: #3d3d3d; stroke-width: 1.25"/>
    </defs>
    <g clip-path="url(#p373df27579)">
     <use xlink:href="#m0c0e60c467" x="0" y="360" style="fill: #e1812c; stroke: #3d3d3d; stroke-width: 1.25"/>
    </g>
   </g>
   <g id="FillBetweenPolyCollection_3">
    <defs>
     <path id="mf64b1649c3" d="M 440.088974 -52.2 
L 437.411026 -52.2 
L 437.106496 -54.745455 
L 436.754921 -57.290909 
L 436.354807 -59.836364 
L 435.906119 -62.381818 
L 435.410562 -64.927273 
L 434.871836 -67.472727 
L 434.295797 -70.018182 
L 433.69053 -72.563636 
L 433.066298 -75.109091 
L 432.435351 -77.654545 
L 431.811601 -80.2 
L 431.210162 -82.745455 
L 430.646761 -85.290909 
L 430.137077 -87.836364 
L 429.696009 -90.381818 
L 429.336943 -92.927273 
L 429.071065 -95.472727 
L 428.906752 -98.018182 
L 428.849094 -100.563636 
L 428.899584 -103.109091 
L 429.05599 -105.654545 
L 429.312415 -108.2 
L 429.659547 -110.745455 
L 430.085066 -113.290909 
L 430.574183 -115.836364 
L 431.110263 -118.381818 
L 431.675492 -120.927273 
L 432.251542 -123.472727 
L 432.820191 -126.018182 
L 433.363865 -128.563636 
L 433.866088 -131.109091 
L 434.311823 -133.654545 
L 434.687705 -136.2 
L 434.982185 -138.745455 
L 435.185597 -141.290909 
L 435.290172 -143.836364 
L 435.290021 -146.381818 
L 435.181113 -148.927273 
L 434.961249 -151.472727 
L 434.630054 -154.018182 
L 434.188972 -156.563636 
L 433.641252 -159.109091 
L 432.99192 -161.654545 
L 432.247706 -164.2 
L 431.416894 -166.745455 
L 430.5091 -169.290909 
L 429.534935 -171.836364 
L 428.505578 -174.381818 
L 427.432239 -176.927273 
L 426.325549 -179.472727 
L 425.194907 -182.018182 
L 424.047814 -184.563636 
L 422.889263 -187.109091 
L 421.721218 -189.654545 
L 420.542252 -192.2 
L 419.34738 -194.745455 
L 418.128142 -197.290909 
L 416.872945 -199.836364 
L 415.567697 -202.381818 
L 414.196708 -204.927273 
L 412.743858 -207.472727 
L 411.19396 -210.018182 
L 409.534282 -212.563636 
L 407.756133 -215.109091 
L 405.856419 -217.654545 
L 403.83907 -220.2 
L 401.716222 -222.745455 
L 399.509033 -225.290909 
L 397.248056 -227.836364 
L 394.973056 -230.381818 
L 392.732248 -232.927273 
L 390.580909 -235.472727 
L 388.579412 -238.018182 
L 386.790747 -240.563636 
L 385.277648 -243.109091 
L 384.099486 -245.654545 
L 383.309136 -248.2 
L 382.95 -250.745455 
L 383.053436 -253.290909 
L 383.636745 -255.836364 
L 384.701907 -258.381818 
L 386.235142 -260.927273 
L 388.207358 -263.472727 
L 390.575448 -266.018182 
L 393.284345 -268.563636 
L 396.269695 -271.109091 
L 399.460944 -273.654545 
L 402.784629 -276.2 
L 406.167649 -278.745455 
L 409.540307 -281.290909 
L 412.838944 -283.836364 
L 416.008038 -286.381818 
L 419.001666 -288.927273 
L 421.784332 -291.472727 
L 424.331154 -294.018182 
L 426.627488 -296.563636 
L 428.668086 -299.109091 
L 430.455901 -301.654545 
L 432.000675 -304.2 
L 445.499325 -304.2 
L 445.499325 -304.2 
L 447.044099 -301.654545 
L 448.831914 -299.109091 
L 450.872512 -296.563636 
L 453.168846 -294.018182 
L 455.715668 -291.472727 
L 458.498334 -288.927273 
L 461.491962 -286.381818 
L 464.661056 -283.836364 
L 467.959693 -281.290909 
L 471.332351 -278.745455 
L 474.715371 -276.2 
L 478.039056 -273.654545 
L 481.230305 -271.109091 
L 484.215655 -268.563636 
L 486.924552 -266.018182 
L 489.292642 -263.472727 
L 491.264858 -260.927273 
L 492.798093 -258.381818 
L 493.863255 -255.836364 
L 494.446564 -253.290909 
L 494.55 -250.745455 
L 494.190864 -248.2 
L 493.400514 -245.654545 
L 492.222352 -243.109091 
L 490.709253 -240.563636 
L 488.920588 -238.018182 
L 486.919091 -235.472727 
L 484.767752 -232.927273 
L 482.526944 -230.381818 
L 480.251944 -227.836364 
L 477.990967 -225.290909 
L 475.783778 -222.745455 
L 473.66093 -220.2 
L 471.643581 -217.654545 
L 469.743867 -215.109091 
L 467.965718 -212.563636 
L 466.30604 -210.018182 
L 464.756142 -207.472727 
L 463.303292 -204.927273 
L 461.932303 -202.381818 
L 460.627055 -199.836364 
L 459.371858 -197.290909 
L 458.15262 -194.745455 
L 456.957748 -192.2 
L 455.778782 -189.654545 
L 454.610737 -187.109091 
L 453.452186 -184.563636 
L 452.305093 -182.018182 
L 451.174451 -179.472727 
L 450.067761 -176.927273 
L 448.994422 -174.381818 
L 447.965065 -171.836364 
L 446.9909 -169.290909 
L 446.083106 -166.745455 
L 445.252294 -164.2 
L 444.50808 -161.654545 
L 443.858748 -159.109091 
L 443.311028 -156.563636 
L 442.869946 -154.018182 
L 442.538751 -151.472727 
L 442.318887 -148.927273 
L 442.209979 -146.381818 
L 442.209828 -143.836364 
L 442.314403 -141.290909 
L 442.517815 -138.745455 
L 442.812295 -136.2 
L 443.188177 -133.654545 
L 443.633912 -131.109091 
L 444.136135 -128.563636 
L 444.679809 -126.018182 
L 445.248458 -123.472727 
L 445.824508 -120.927273 
L 446.389737 -118.381818 
L 446.925817 -115.836364 
L 447.414934 -113.290909 
L 447.840453 -110.745455 
L 448.187585 -108.2 
L 448.44401 -105.654545 
L 448.600416 -103.109091 
L 448.650906 -100.563636 
L 448.593248 -98.018182 
L 448.428935 -95.472727 
L 448.163057 -92.927273 
L 447.803991 -90.381818 
L 447.362923 -87.836364 
L 446.853239 -85.290909 
L 446.289838 -82.745455 
L 445.688399 -80.2 
L 445.064649 -77.654545 
L 444.433702 -75.109091 
L 443.80947 -72.563636 
L 443.204203 -70.018182 
L 442.628164 -67.472727 
L 442.089438 -64.927273 
L 441.593881 -62.381818 
L 441.145193 -59.836364 
L 440.745079 -57.290909 
L 440.393504 -54.745455 
L 440.088974 -52.2 
z
" style="stroke: #3d3d3d; stroke-width: 1.25"/>
    </defs>
    <g clip-path="url(#p373df27579)">
     <use xlink:href="#mf64b1649c3" x="0" y="360" style="fill: #3a923a; stroke: #3d3d3d; stroke-width: 1.25"/>
    </g>
   </g>
   <g id="FillBetweenPolyCollection_4">
    <defs>
     <path id="m95c7fb1a29" d="M 578.774145 -60.25888 
L 577.725855 -60.25888 
L 577.59071 -62.641529 
L 577.432224 -65.024178 
L 577.249709 -67.406827 
L 577.043433 -69.789476 
L 576.814807 -72.172125 
L 576.566542 -74.554774 
L 576.302722 -76.937422 
L 576.028802 -79.320071 
L 575.751494 -81.70272 
L 575.478549 -84.085369 
L 575.218425 -86.468018 
L 574.979876 -88.850667 
L 574.771469 -91.233316 
L 574.601076 -93.615965 
L 574.475372 -95.998614 
L 574.399397 -98.381262 
L 574.3762 -100.763911 
L 574.406611 -103.14656 
L 574.489153 -105.529209 
L 574.620094 -107.911858 
L 574.793636 -110.294507 
L 575.002205 -112.677156 
L 575.236805 -115.059805 
L 575.487393 -117.442453 
L 575.743225 -119.825102 
L 575.993128 -122.207751 
L 576.225654 -124.5904 
L 576.429107 -126.973049 
L 576.591425 -129.355698 
L 576.699937 -131.738347 
L 576.741017 -134.120996 
L 576.6997 -136.503645 
L 576.559324 -138.886293 
L 576.301268 -141.268942 
L 575.904893 -143.651591 
L 575.347756 -146.03424 
L 574.606177 -148.416889 
L 573.656217 -150.799538 
L 572.47508 -153.182187 
L 571.042924 -155.564836 
L 569.344998 -157.947484 
L 567.373978 -160.330133 
L 565.132316 -162.712782 
L 562.634378 -165.095431 
L 559.908105 -167.47808 
L 556.995951 -169.860729 
L 553.954859 -172.243378 
L 550.85511 -174.626027 
L 547.777962 -177.008676 
L 544.812108 -179.391324 
L 542.049117 -181.773973 
L 539.578119 -184.156622 
L 537.480126 -186.539271 
L 535.822419 -188.92192 
L 534.653485 -191.304569 
L 533.99894 -193.687218 
L 533.858819 -196.069867 
L 534.206477 -198.452516 
L 534.989249 -200.835164 
L 536.130816 -203.217813 
L 537.535129 -205.600462 
L 539.0916 -207.983111 
L 540.681213 -210.36576 
L 542.183137 -212.748409 
L 543.481447 -215.131058 
L 544.471578 -217.513707 
L 545.066166 -219.896355 
L 545.200019 -222.279004 
L 544.833978 -224.661653 
L 543.957511 -227.044302 
L 542.589894 -229.426951 
L 540.779903 -231.8096 
L 538.603963 -234.192249 
L 536.162769 -236.574898 
L 533.576458 -238.957547 
L 530.978526 -241.340195 
L 528.508733 -243.722844 
L 526.305417 -246.105493 
L 524.497648 -248.488142 
L 523.197789 -250.870791 
L 522.494968 -253.25344 
L 522.45 -255.636089 
L 523.092146 -258.018738 
L 524.417974 -260.401386 
L 526.392414 -262.784035 
L 528.951879 -265.166684 
L 532.009169 -267.549333 
L 535.459693 -269.931982 
L 539.188456 -272.314631 
L 543.07723 -274.69728 
L 547.011309 -277.079929 
L 550.885385 -279.462578 
L 554.608159 -281.845226 
L 558.105479 -284.227875 
L 561.321948 -286.610524 
L 564.221092 -288.993173 
L 566.784274 -291.375822 
L 569.008654 -293.758471 
L 570.904509 -296.14112 
L 585.595491 -296.14112 
L 585.595491 -296.14112 
L 587.491346 -293.758471 
L 589.715726 -291.375822 
L 592.278908 -288.993173 
L 595.178052 -286.610524 
L 598.394521 -284.227875 
L 601.891841 -281.845226 
L 605.614615 -279.462578 
L 609.488691 -277.079929 
L 613.42277 -274.69728 
L 617.311544 -272.314631 
L 621.040307 -269.931982 
L 624.490831 -267.549333 
L 627.548121 -265.166684 
L 630.107586 -262.784035 
L 632.082026 -260.401386 
L 633.407854 -258.018738 
L 634.05 -255.636089 
L 634.005032 -253.25344 
L 633.302211 -250.870791 
L 632.002352 -248.488142 
L 630.194583 -246.105493 
L 627.991267 -243.722844 
L 625.521474 -241.340195 
L 622.923542 -238.957547 
L 620.337231 -236.574898 
L 617.896037 -234.192249 
L 615.720097 -231.8096 
L 613.910106 -229.426951 
L 612.542489 -227.044302 
L 611.666022 -224.661653 
L 611.299981 -222.279004 
L 611.433834 -219.896355 
L 612.028422 -217.513707 
L 613.018553 -215.131058 
L 614.316863 -212.748409 
L 615.818787 -210.36576 
L 617.4084 -207.983111 
L 618.964871 -205.600462 
L 620.369184 -203.217813 
L 621.510751 -200.835164 
L 622.293523 -198.452516 
L 622.641181 -196.069867 
L 622.50106 -193.687218 
L 621.846515 -191.304569 
L 620.677581 -188.92192 
L 619.019874 -186.539271 
L 616.921881 -184.156622 
L 614.450883 -181.773973 
L 611.687892 -179.391324 
L 608.722038 -177.008676 
L 605.64489 -174.626027 
L 602.545141 -172.243378 
L 599.504049 -169.860729 
L 596.591895 -167.47808 
L 593.865622 -165.095431 
L 591.367684 -162.712782 
L 589.126022 -160.330133 
L 587.155002 -157.947484 
L 585.457076 -155.564836 
L 584.02492 -153.182187 
L 582.843783 -150.799538 
L 581.893823 -148.416889 
L 581.152244 -146.03424 
L 580.595107 -143.651591 
L 580.198732 -141.268942 
L 579.940676 -138.886293 
L 579.8003 -136.503645 
L 579.758983 -134.120996 
L 579.800063 -131.738347 
L 579.908575 -129.355698 
L 580.070893 -126.973049 
L 580.274346 -124.5904 
L 580.506872 -122.207751 
L 580.756775 -119.825102 
L 581.012607 -117.442453 
L 581.263195 -115.059805 
L 581.497795 -112.677156 
L 581.706364 -110.294507 
L 581.879906 -107.911858 
L 582.010847 -105.529209 
L 582.093389 -103.14656 
L 582.1238 -100.763911 
L 582.100603 -98.381262 
L 582.024628 -95.998614 
L 581.898924 -93.615965 
L 581.728531 -91.233316 
L 581.520124 -88.850667 
L 581.281575 -86.468018 
L 581.021451 -84.085369 
L 580.748506 -81.70272 
L 580.471198 -79.320071 
L 580.197278 -76.937422 
L 579.933458 -74.554774 
L 579.685193 -72.172125 
L 579.456567 -69.789476 
L 579.250291 -67.406827 
L 579.067776 -65.024178 
L 578.90929 -62.641529 
L 578.774145 -60.25888 
z
" style="stroke: #3d3d3d; stroke-width: 1.25"/>
    </defs>
    <g clip-path="url(#p373df27579)">
     <use xlink:href="#m95c7fb1a29" x="0" y="360" style="fill: #c03d3e; stroke: #3d3d3d; stroke-width: 1.25"/>
    </g>
   </g>
   <g id="matplotlib.axis_1">
    <g id="xtick_1">
     <g id="line2d_1">
      <defs>
       <path id="m7a43c52f4b" d="M 0 0 
L 0 3.5 
" style="stroke: #000000; stroke-width: 0.8"/>
      </defs>
      <g>
       <use xlink:href="#m7a43c52f4b" x="159.75" y="320.4" style="stroke: #000000; stroke-width: 0.8"/>
      </g>
     </g>
     <g id="text_1">
      <!-- Spurious -->
      <g transform="translate(137.955469 334.998438) scale(0.1 -0.1)">
       <defs>
        <path id="DejaVuSans-53" d="M 3425 4513 
L 3425 3897 
Q 3066 4069 2747 4153 
Q 2428 4238 2131 4238 
Q 1616 4238 1336 4038 
Q 1056 3838 1056 3469 
Q 1056 3159 1242 3001 
Q 1428 2844 1947 2747 
L 2328 2669 
Q 3034 2534 3370 2195 
Q 3706 1856 3706 1288 
Q 3706 609 3251 259 
Q 2797 -91 1919 -91 
Q 1588 -91 1214 -16 
Q 841 59 441 206 
L 441 856 
Q 825 641 1194 531 
Q 1563 422 1919 422 
Q 2459 422 2753 634 
Q 3047 847 3047 1241 
Q 3047 1584 2836 1778 
Q 2625 1972 2144 2069 
L 1759 2144 
Q 1053 2284 737 2584 
Q 422 2884 422 3419 
Q 422 4038 858 4394 
Q 1294 4750 2059 4750 
Q 2388 4750 2728 4690 
Q 3069 4631 3425 4513 
z
" transform="scale(0.015625)"/>
        <path id="DejaVuSans-70" d="M 1159 525 
L 1159 -1331 
L 581 -1331 
L 581 3500 
L 1159 3500 
L 1159 2969 
Q 1341 3281 1617 3432 
Q 1894 3584 2278 3584 
Q 2916 3584 3314 3078 
Q 3713 2572 3713 1747 
Q 3713 922 3314 415 
Q 2916 -91 2278 -91 
Q 1894 -91 1617 61 
Q 1341 213 1159 525 
z
M 3116 1747 
Q 3116 2381 2855 2742 
Q 2594 3103 2138 3103 
Q 1681 3103 1420 2742 
Q 1159 2381 1159 1747 
Q 1159 1113 1420 752 
Q 1681 391 2138 391 
Q 2594 391 2855 752 
Q 3116 1113 3116 1747 
z
" transform="scale(0.015625)"/>
        <path id="DejaVuSans-75" d="M 544 1381 
L 544 3500 
L 1119 3500 
L 1119 1403 
Q 1119 906 1312 657 
Q 1506 409 1894 409 
Q 2359 409 2629 706 
Q 2900 1003 2900 1516 
L 2900 3500 
L 3475 3500 
L 3475 0 
L 2900 0 
L 2900 538 
Q 2691 219 2414 64 
Q 2138 -91 1772 -91 
Q 1169 -91 856 284 
Q 544 659 544 1381 
z
M 1991 3584 
L 1991 3584 
z
" transform="scale(0.015625)"/>
        <path id="DejaVuSans-72" d="M 2631 2963 
Q 2534 3019 2420 3045 
Q 2306 3072 2169 3072 
Q 1681 3072 1420 2755 
Q 1159 2438 1159 1844 
L 1159 0 
L 581 0 
L 581 3500 
L 1159 3500 
L 1159 2956 
Q 1341 3275 1631 3429 
Q 1922 3584 2338 3584 
Q 2397 3584 2469 3576 
Q 2541 3569 2628 3553 
L 2631 2963 
z
" transform="scale(0.015625)"/>
        <path id="DejaVuSans-69" d="M 603 3500 
L 1178 3500 
L 1178 0 
L 603 0 
L 603 3500 
z
M 603 4863 
L 1178 4863 
L 1178 4134 
L 603 4134 
L 603 4863 
z
" transform="scale(0.015625)"/>
        <path id="DejaVuSans-6f" d="M 1959 3097 
Q 1497 3097 1228 2736 
Q 959 2375 959 1747 
Q 959 1119 1226 758 
Q 1494 397 1959 397 
Q 2419 397 2687 759 
Q 2956 1122 2956 1747 
Q 2956 2369 2687 2733 
Q 2419 3097 1959 3097 
z
M 1959 3584 
Q 2709 3584 3137 3096 
Q 3566 2609 3566 1747 
Q 3566 888 3137 398 
Q 2709 -91 1959 -91 
Q 1206 -91 779 398 
Q 353 888 353 1747 
Q 353 2609 779 3096 
Q 1206 3584 1959 3584 
z
" transform="scale(0.015625)"/>
        <path id="DejaVuSans-73" d="M 2834 3397 
L 2834 2853 
Q 2591 2978 2328 3040 
Q 2066 3103 1784 3103 
Q 1356 3103 1142 2972 
Q 928 2841 928 2578 
Q 928 2378 1081 2264 
Q 1234 2150 1697 2047 
L 1894 2003 
Q 2506 1872 2764 1633 
Q 3022 1394 3022 966 
Q 3022 478 2636 193 
Q 2250 -91 1575 -91 
Q 1294 -91 989 -36 
Q 684 19 347 128 
L 347 722 
Q 666 556 975 473 
Q 1284 391 1588 391 
Q 1994 391 2212 530 
Q 2431 669 2431 922 
Q 2431 1156 2273 1281 
Q 2116 1406 1581 1522 
L 1381 1569 
Q 847 1681 609 1914 
Q 372 2147 372 2553 
Q 372 3047 722 3315 
Q 1072 3584 1716 3584 
Q 2034 3584 2315 3537 
Q 2597 3491 2834 3397 
z
" transform="scale(0.015625)"/>
       </defs>
       <use xlink:href="#DejaVuSans-53"/>
       <use xlink:href="#DejaVuSans-70" transform="translate(63.476562 0)"/>
       <use xlink:href="#DejaVuSans-75" transform="translate(126.953125 0)"/>
       <use xlink:href="#DejaVuSans-72" transform="translate(190.332031 0)"/>
       <use xlink:href="#DejaVuSans-69" transform="translate(231.445312 0)"/>
       <use xlink:href="#DejaVuSans-6f" transform="translate(259.228516 0)"/>
       <use xlink:href="#DejaVuSans-75" transform="translate(320.410156 0)"/>
       <use xlink:href="#DejaVuSans-73" transform="translate(383.789062 0)"/>
      </g>
     </g>
    </g>
    <g id="xtick_2">
     <g id="line2d_2">
      <g>
       <use xlink:href="#m7a43c52f4b" x="299.25" y="320.4" style="stroke: #000000; stroke-width: 0.8"/>
      </g>
     </g>
     <g id="text_2">
      <!-- Specific -->
      <g transform="translate(279.788281 334.998438) scale(0.1 -0.1)">
       <defs>
        <path id="DejaVuSans-65" d="M 3597 1894 
L 3597 1613 
L 953 1613 
Q 991 1019 1311 708 
Q 1631 397 2203 397 
Q 2534 397 2845 478 
Q 3156 559 3463 722 
L 3463 178 
Q 3153 47 2828 -22 
Q 2503 -91 2169 -91 
Q 1331 -91 842 396 
Q 353 884 353 1716 
Q 353 2575 817 3079 
Q 1281 3584 2069 3584 
Q 2775 3584 3186 3129 
Q 3597 2675 3597 1894 
z
M 3022 2063 
Q 3016 2534 2758 2815 
Q 2500 3097 2075 3097 
Q 1594 3097 1305 2825 
Q 1016 2553 972 2059 
L 3022 2063 
z
" transform="scale(0.015625)"/>
        <path id="DejaVuSans-63" d="M 3122 3366 
L 3122 2828 
Q 2878 2963 2633 3030 
Q 2388 3097 2138 3097 
Q 1578 3097 1268 2742 
Q 959 2388 959 1747 
Q 959 1106 1268 751 
Q 1578 397 2138 397 
Q 2388 397 2633 464 
Q 2878 531 3122 666 
L 3122 134 
Q 2881 22 2623 -34 
Q 2366 -91 2075 -91 
Q 1284 -91 818 406 
Q 353 903 353 1747 
Q 353 2603 823 3093 
Q 1294 3584 2113 3584 
Q 2378 3584 2631 3529 
Q 2884 3475 3122 3366 
z
" transform="scale(0.015625)"/>
        <path id="DejaVuSans-66" d="M 2375 4863 
L 2375 4384 
L 1825 4384 
Q 1516 4384 1395 4259 
Q 1275 4134 1275 3809 
L 1275 3500 
L 2222 3500 
L 2222 3053 
L 1275 3053 
L 1275 0 
L 697 0 
L 697 3053 
L 147 3053 
L 147 3500 
L 697 3500 
L 697 3744 
Q 697 4328 969 4595 
Q 1241 4863 1831 4863 
L 2375 4863 
z
" transform="scale(0.015625)"/>
       </defs>
       <use xlink:href="#DejaVuSans-53"/>
       <use xlink:href="#DejaVuSans-70" transform="translate(63.476562 0)"/>
       <use xlink:href="#DejaVuSans-65" transform="translate(126.953125 0)"/>
       <use xlink:href="#DejaVuSans-63" transform="translate(188.476562 0)"/>
       <use xlink:href="#DejaVuSans-69" transform="translate(243.457031 0)"/>
       <use xlink:href="#DejaVuSans-66" transform="translate(271.240234 0)"/>
       <use xlink:href="#DejaVuSans-69" transform="translate(306.445312 0)"/>
       <use xlink:href="#DejaVuSans-63" transform="translate(334.228516 0)"/>
      </g>
     </g>
    </g>
    <g id="xtick_3">
     <g id="line2d_3">
      <g>
       <use xlink:href="#m7a43c52f4b" x="438.75" y="320.4" style="stroke: #000000; stroke-width: 0.8"/>
      </g>
     </g>
     <g id="text_3">
      <!-- Non-specific -->
      <g transform="translate(408.085156 334.998438) scale(0.1 -0.1)">
       <defs>
        <path id="DejaVuSans-4e" d="M 628 4666 
L 1478 4666 
L 3547 763 
L 3547 4666 
L 4159 4666 
L 4159 0 
L 3309 0 
L 1241 3903 
L 1241 0 
L 628 0 
L 628 4666 
z
" transform="scale(0.015625)"/>
        <path id="DejaVuSans-6e" d="M 3513 2113 
L 3513 0 
L 2938 0 
L 2938 2094 
Q 2938 2591 2744 2837 
Q 2550 3084 2163 3084 
Q 1697 3084 1428 2787 
Q 1159 2491 1159 1978 
L 1159 0 
L 581 0 
L 581 3500 
L 1159 3500 
L 1159 2956 
Q 1366 3272 1645 3428 
Q 1925 3584 2291 3584 
Q 2894 3584 3203 3211 
Q 3513 2838 3513 2113 
z
" transform="scale(0.015625)"/>
        <path id="DejaVuSans-2d" d="M 313 2009 
L 1997 2009 
L 1997 1497 
L 313 1497 
L 313 2009 
z
" transform="scale(0.015625)"/>
       </defs>
       <use xlink:href="#DejaVuSans-4e"/>
       <use xlink:href="#DejaVuSans-6f" transform="translate(74.804688 0)"/>
       <use xlink:href="#DejaVuSans-6e" transform="translate(135.986328 0)"/>
       <use xlink:href="#DejaVuSans-2d" transform="translate(199.365234 0)"/>
       <use xlink:href="#DejaVuSans-73" transform="translate(235.449219 0)"/>
       <use xlink:href="#DejaVuSans-70" transform="translate(287.548828 0)"/>
       <use xlink:href="#DejaVuSans-65" transform="translate(351.025391 0)"/>
       <use xlink:href="#DejaVuSans-63" transform="translate(412.548828 0)"/>
       <use xlink:href="#DejaVuSans-69" transform="translate(467.529297 0)"/>
       <use xlink:href="#DejaVuSans-66" transform="translate(495.3125 0)"/>
       <use xlink:href="#DejaVuSans-69" transform="translate(530.517578 0)"/>
       <use xlink:href="#DejaVuSans-63" transform="translate(558.300781 0)"/>
      </g>
     </g>
    </g>
    <g id="xtick_4">
     <g id="line2d_4">
      <g>
       <use xlink:href="#m7a43c52f4b" x="578.25" y="320.4" style="stroke: #000000; stroke-width: 0.8"/>
      </g>
     </g>
     <g id="text_4">
      <!-- No -->
      <g transform="translate(571.45 334.998438) scale(0.1 -0.1)">
       <use xlink:href="#DejaVuSans-4e"/>
       <use xlink:href="#DejaVuSans-6f" transform="translate(74.804688 0)"/>
      </g>
     </g>
    </g>
    <g id="text_5">
     <!-- Connectivity category -->
     <g transform="translate(313.98125 348.676562) scale(0.1 -0.1)">
      <defs>
       <path id="DejaVuSans-43" d="M 4122 4306 
L 4122 3641 
Q 3803 3938 3442 4084 
Q 3081 4231 2675 4231 
Q 1875 4231 1450 3742 
Q 1025 3253 1025 2328 
Q 1025 1406 1450 917 
Q 1875 428 2675 428 
Q 3081 428 3442 575 
Q 3803 722 4122 1019 
L 4122 359 
Q 3791 134 3420 21 
Q 3050 -91 2638 -91 
Q 1578 -91 968 557 
Q 359 1206 359 2328 
Q 359 3453 968 4101 
Q 1578 4750 2638 4750 
Q 3056 4750 3426 4639 
Q 3797 4528 4122 4306 
z
" transform="scale(0.015625)"/>
       <path id="DejaVuSans-74" d="M 1172 4494 
L 1172 3500 
L 2356 3500 
L 2356 3053 
L 1172 3053 
L 1172 1153 
Q 1172 725 1289 603 
Q 1406 481 1766 481 
L 2356 481 
L 2356 0 
L 1766 0 
Q 1100 0 847 248 
Q 594 497 594 1153 
L 594 3053 
L 172 3053 
L 172 3500 
L 594 3500 
L 594 4494 
L 1172 4494 
z
" transform="scale(0.015625)"/>
       <path id="DejaVuSans-76" d="M 191 3500 
L 800 3500 
L 1894 563 
L 2988 3500 
L 3597 3500 
L 2284 0 
L 1503 0 
L 191 3500 
z
" transform="scale(0.015625)"/>
       <path id="DejaVuSans-79" d="M 2059 -325 
Q 1816 -950 1584 -1140 
Q 1353 -1331 966 -1331 
L 506 -1331 
L 506 -850 
L 844 -850 
Q 1081 -850 1212 -737 
Q 1344 -625 1503 -206 
L 1606 56 
L 191 3500 
L 800 3500 
L 1894 763 
L 2988 3500 
L 3597 3500 
L 2059 -325 
z
" transform="scale(0.015625)"/>
       <path id="DejaVuSans-20" transform="scale(0.015625)"/>
       <path id="DejaVuSans-61" d="M 2194 1759 
Q 1497 1759 1228 1600 
Q 959 1441 959 1056 
Q 959 750 1161 570 
Q 1363 391 1709 391 
Q 2188 391 2477 730 
Q 2766 1069 2766 1631 
L 2766 1759 
L 2194 1759 
z
M 3341 1997 
L 3341 0 
L 2766 0 
L 2766 531 
Q 2569 213 2275 61 
Q 1981 -91 1556 -91 
Q 1019 -91 701 211 
Q 384 513 384 1019 
Q 384 1609 779 1909 
Q 1175 2209 1959 2209 
L 2766 2209 
L 2766 2266 
Q 2766 2663 2505 2880 
Q 2244 3097 1772 3097 
Q 1472 3097 1187 3025 
Q 903 2953 641 2809 
L 641 3341 
Q 956 3463 1253 3523 
Q 1550 3584 1831 3584 
Q 2591 3584 2966 3190 
Q 3341 2797 3341 1997 
z
" transform="scale(0.015625)"/>
       <path id="DejaVuSans-67" d="M 2906 1791 
Q 2906 2416 2648 2759 
Q 2391 3103 1925 3103 
Q 1463 3103 1205 2759 
Q 947 2416 947 1791 
Q 947 1169 1205 825 
Q 1463 481 1925 481 
Q 2391 481 2648 825 
Q 2906 1169 2906 1791 
z
M 3481 434 
Q 3481 -459 3084 -895 
Q 2688 -1331 1869 -1331 
Q 1566 -1331 1297 -1286 
Q 1028 -1241 775 -1147 
L 775 -588 
Q 1028 -725 1275 -790 
Q 1522 -856 1778 -856 
Q 2344 -856 2625 -561 
Q 2906 -266 2906 331 
L 2906 616 
Q 2728 306 2450 153 
Q 2172 0 1784 0 
Q 1141 0 747 490 
Q 353 981 353 1791 
Q 353 2603 747 3093 
Q 1141 3584 1784 3584 
Q 2172 3584 2450 3431 
Q 2728 3278 2906 2969 
L 2906 3500 
L 3481 3500 
L 3481 434 
z
" transform="scale(0.015625)"/>
      </defs>
      <use xlink:href="#DejaVuSans-43"/>
      <use xlink:href="#DejaVuSans-6f" transform="translate(69.824219 0)"/>
      <use xlink:href="#DejaVuSans-6e" transform="translate(131.005859 0)"/>
      <use xlink:href="#DejaVuSans-6e" transform="translate(194.384766 0)"/>
      <use xlink:href="#DejaVuSans-65" transform="translate(257.763672 0)"/>
      <use xlink:href="#DejaVuSans-63" transform="translate(319.287109 0)"/>
      <use xlink:href="#DejaVuSans-74" transform="translate(374.267578 0)"/>
      <use xlink:href="#DejaVuSans-69" transform="translate(413.476562 0)"/>
      <use xlink:href="#DejaVuSans-76" transform="translate(441.259766 0)"/>
      <use xlink:href="#DejaVuSans-69" transform="translate(500.439453 0)"/>
      <use xlink:href="#DejaVuSans-74" transform="translate(528.222656 0)"/>
      <use xlink:href="#DejaVuSans-79" transform="translate(567.431641 0)"/>
      <use xlink:href="#DejaVuSans-20" transform="translate(626.611328 0)"/>
      <use xlink:href="#DejaVuSans-63" transform="translate(658.398438 0)"/>
      <use xlink:href="#DejaVuSans-61" transform="translate(713.378906 0)"/>
      <use xlink:href="#DejaVuSans-74" transform="translate(774.658203 0)"/>
      <use xlink:href="#DejaVuSans-65" transform="translate(813.867188 0)"/>
      <use xlink:href="#DejaVuSans-67" transform="translate(875.390625 0)"/>
      <use xlink:href="#DejaVuSans-6f" transform="translate(938.867188 0)"/>
      <use xlink:href="#DejaVuSans-72" transform="translate(1000.048828 0)"/>
      <use xlink:href="#DejaVuSans-79" transform="translate(1041.162109 0)"/>
     </g>
    </g>
   </g>
   <g id="matplotlib.axis_2">
    <g id="ytick_1">
     <g id="line2d_5">
      <defs>
       <path id="m5643b94236" d="M 0 0 
L -3.5 0 
" style="stroke: #000000; stroke-width: 0.8"/>
      </defs>
      <g>
       <use xlink:href="#m5643b94236" x="90" y="290.470798" style="stroke: #000000; stroke-width: 0.8"/>
      </g>
     </g>
     <g id="text_6">
      <!-- 3 -->
      <g transform="translate(76.6375 294.270016) scale(0.1 -0.1)">
       <defs>
        <path id="DejaVuSans-33" d="M 2597 2516 
Q 3050 2419 3304 2112 
Q 3559 1806 3559 1356 
Q 3559 666 3084 287 
Q 2609 -91 1734 -91 
Q 1441 -91 1130 -33 
Q 819 25 488 141 
L 488 750 
Q 750 597 1062 519 
Q 1375 441 1716 441 
Q 2309 441 2620 675 
Q 2931 909 2931 1356 
Q 2931 1769 2642 2001 
Q 2353 2234 1838 2234 
L 1294 2234 
L 1294 2753 
L 1863 2753 
Q 2328 2753 2575 2939 
Q 2822 3125 2822 3475 
Q 2822 3834 2567 4026 
Q 2313 4219 1838 4219 
Q 1578 4219 1281 4162 
Q 984 4106 628 3988 
L 628 4550 
Q 988 4650 1302 4700 
Q 1616 4750 1894 4750 
Q 2613 4750 3031 4423 
Q 3450 4097 3450 3541 
Q 3450 3153 3228 2886 
Q 3006 2619 2597 2516 
z
" transform="scale(0.015625)"/>
       </defs>
       <use xlink:href="#DejaVuSans-33"/>
      </g>
     </g>
    </g>
    <g id="ytick_2">
     <g id="line2d_6">
      <g>
       <use xlink:href="#m5643b94236" x="90" y="259.421998" style="stroke: #000000; stroke-width: 0.8"/>
      </g>
     </g>
     <g id="text_7">
      <!-- 4 -->
      <g transform="translate(76.6375 263.221217) scale(0.1 -0.1)">
       <defs>
        <path id="DejaVuSans-34" d="M 2419 4116 
L 825 1625 
L 2419 1625 
L 2419 4116 
z
M 2253 4666 
L 3047 4666 
L 3047 1625 
L 3713 1625 
L 3713 1100 
L 3047 1100 
L 3047 0 
L 2419 0 
L 2419 1100 
L 313 1100 
L 313 1709 
L 2253 4666 
z
" transform="scale(0.015625)"/>
       </defs>
       <use xlink:href="#DejaVuSans-34"/>
      </g>
     </g>
    </g>
    <g id="ytick_3">
     <g id="line2d_7">
      <g>
       <use xlink:href="#m5643b94236" x="90" y="228.373199" style="stroke: #000000; stroke-width: 0.8"/>
      </g>
     </g>
     <g id="text_8">
      <!-- 5 -->
      <g transform="translate(76.6375 232.172418) scale(0.1 -0.1)">
       <defs>
        <path id="DejaVuSans-35" d="M 691 4666 
L 3169 4666 
L 3169 4134 
L 1269 4134 
L 1269 2991 
Q 1406 3038 1543 3061 
Q 1681 3084 1819 3084 
Q 2600 3084 3056 2656 
Q 3513 2228 3513 1497 
Q 3513 744 3044 326 
Q 2575 -91 1722 -91 
Q 1428 -91 1123 -41 
Q 819 9 494 109 
L 494 744 
Q 775 591 1075 516 
Q 1375 441 1709 441 
Q 2250 441 2565 725 
Q 2881 1009 2881 1497 
Q 2881 1984 2565 2268 
Q 2250 2553 1709 2553 
Q 1456 2553 1204 2497 
Q 953 2441 691 2322 
L 691 4666 
z
" transform="scale(0.015625)"/>
       </defs>
       <use xlink:href="#DejaVuSans-35"/>
      </g>
     </g>
    </g>
    <g id="ytick_4">
     <g id="line2d_8">
      <g>
       <use xlink:href="#m5643b94236" x="90" y="197.3244" style="stroke: #000000; stroke-width: 0.8"/>
      </g>
     </g>
     <g id="text_9">
      <!-- 6 -->
      <g transform="translate(76.6375 201.123618) scale(0.1 -0.1)">
       <defs>
        <path id="DejaVuSans-36" d="M 2113 2584 
Q 1688 2584 1439 2293 
Q 1191 2003 1191 1497 
Q 1191 994 1439 701 
Q 1688 409 2113 409 
Q 2538 409 2786 701 
Q 3034 994 3034 1497 
Q 3034 2003 2786 2293 
Q 2538 2584 2113 2584 
z
M 3366 4563 
L 3366 3988 
Q 3128 4100 2886 4159 
Q 2644 4219 2406 4219 
Q 1781 4219 1451 3797 
Q 1122 3375 1075 2522 
Q 1259 2794 1537 2939 
Q 1816 3084 2150 3084 
Q 2853 3084 3261 2657 
Q 3669 2231 3669 1497 
Q 3669 778 3244 343 
Q 2819 -91 2113 -91 
Q 1303 -91 875 529 
Q 447 1150 447 2328 
Q 447 3434 972 4092 
Q 1497 4750 2381 4750 
Q 2619 4750 2861 4703 
Q 3103 4656 3366 4563 
z
" transform="scale(0.015625)"/>
       </defs>
       <use xlink:href="#DejaVuSans-36"/>
      </g>
     </g>
    </g>
    <g id="ytick_5">
     <g id="line2d_9">
      <g>
       <use xlink:href="#m5643b94236" x="90" y="166.2756" style="stroke: #000000; stroke-width: 0.8"/>
      </g>
     </g>
     <g id="text_10">
      <!-- 7 -->
      <g transform="translate(76.6375 170.074819) scale(0.1 -0.1)">
       <defs>
        <path id="DejaVuSans-37" d="M 525 4666 
L 3525 4666 
L 3525 4397 
L 1831 0 
L 1172 0 
L 2766 4134 
L 525 4134 
L 525 4666 
z
" transform="scale(0.015625)"/>
       </defs>
       <use xlink:href="#DejaVuSans-37"/>
      </g>
     </g>
    </g>
    <g id="ytick_6">
     <g id="line2d_10">
      <g>
       <use xlink:href="#m5643b94236" x="90" y="135.226801" style="stroke: #000000; stroke-width: 0.8"/>
      </g>
     </g>
     <g id="text_11">
      <!-- 8 -->
      <g transform="translate(76.6375 139.02602) scale(0.1 -0.1)">
       <defs>
        <path id="DejaVuSans-38" d="M 2034 2216 
Q 1584 2216 1326 1975 
Q 1069 1734 1069 1313 
Q 1069 891 1326 650 
Q 1584 409 2034 409 
Q 2484 409 2743 651 
Q 3003 894 3003 1313 
Q 3003 1734 2745 1975 
Q 2488 2216 2034 2216 
z
M 1403 2484 
Q 997 2584 770 2862 
Q 544 3141 544 3541 
Q 544 4100 942 4425 
Q 1341 4750 2034 4750 
Q 2731 4750 3128 4425 
Q 3525 4100 3525 3541 
Q 3525 3141 3298 2862 
Q 3072 2584 2669 2484 
Q 3125 2378 3379 2068 
Q 3634 1759 3634 1313 
Q 3634 634 3220 271 
Q 2806 -91 2034 -91 
Q 1263 -91 848 271 
Q 434 634 434 1313 
Q 434 1759 690 2068 
Q 947 2378 1403 2484 
z
M 1172 3481 
Q 1172 3119 1398 2916 
Q 1625 2713 2034 2713 
Q 2441 2713 2670 2916 
Q 2900 3119 2900 3481 
Q 2900 3844 2670 4047 
Q 2441 4250 2034 4250 
Q 1625 4250 1398 4047 
Q 1172 3844 1172 3481 
z
" transform="scale(0.015625)"/>
       </defs>
       <use xlink:href="#DejaVuSans-38"/>
      </g>
     </g>
    </g>
    <g id="ytick_7">
     <g id="line2d_11">
      <g>
       <use xlink:href="#m5643b94236" x="90" y="104.178002" style="stroke: #000000; stroke-width: 0.8"/>
      </g>
     </g>
     <g id="text_12">
      <!-- 9 -->
      <g transform="translate(76.6375 107.97722) scale(0.1 -0.1)">
       <defs>
        <path id="DejaVuSans-39" d="M 703 97 
L 703 672 
Q 941 559 1184 500 
Q 1428 441 1663 441 
Q 2288 441 2617 861 
Q 2947 1281 2994 2138 
Q 2813 1869 2534 1725 
Q 2256 1581 1919 1581 
Q 1219 1581 811 2004 
Q 403 2428 403 3163 
Q 403 3881 828 4315 
Q 1253 4750 1959 4750 
Q 2769 4750 3195 4129 
Q 3622 3509 3622 2328 
Q 3622 1225 3098 567 
Q 2575 -91 1691 -91 
Q 1453 -91 1209 -44 
Q 966 3 703 97 
z
M 1959 2075 
Q 2384 2075 2632 2365 
Q 2881 2656 2881 3163 
Q 2881 3666 2632 3958 
Q 2384 4250 1959 4250 
Q 1534 4250 1286 3958 
Q 1038 3666 1038 3163 
Q 1038 2656 1286 2365 
Q 1534 2075 1959 2075 
z
" transform="scale(0.015625)"/>
       </defs>
       <use xlink:href="#DejaVuSans-39"/>
      </g>
     </g>
    </g>
    <g id="ytick_8">
     <g id="line2d_12">
      <g>
       <use xlink:href="#m5643b94236" x="90" y="73.129202" style="stroke: #000000; stroke-width: 0.8"/>
      </g>
     </g>
     <g id="text_13">
      <!-- 10 -->
      <g transform="translate(70.275 76.928421) scale(0.1 -0.1)">
       <defs>
        <path id="DejaVuSans-31" d="M 794 531 
L 1825 531 
L 1825 4091 
L 703 3866 
L 703 4441 
L 1819 4666 
L 2450 4666 
L 2450 531 
L 3481 531 
L 3481 0 
L 794 0 
L 794 531 
z
" transform="scale(0.015625)"/>
        <path id="DejaVuSans-30" d="M 2034 4250 
Q 1547 4250 1301 3770 
Q 1056 3291 1056 2328 
Q 1056 1369 1301 889 
Q 1547 409 2034 409 
Q 2525 409 2770 889 
Q 3016 1369 3016 2328 
Q 3016 3291 2770 3770 
Q 2525 4250 2034 4250 
z
M 2034 4750 
Q 2819 4750 3233 4129 
Q 3647 3509 3647 2328 
Q 3647 1150 3233 529 
Q 2819 -91 2034 -91 
Q 1250 -91 836 529 
Q 422 1150 422 2328 
Q 422 3509 836 4129 
Q 1250 4750 2034 4750 
z
" transform="scale(0.015625)"/>
       </defs>
       <use xlink:href="#DejaVuSans-31"/>
       <use xlink:href="#DejaVuSans-30" transform="translate(63.623047 0)"/>
      </g>
     </g>
    </g>
    <g id="text_14">
     <!-- cont_variable -->
     <g transform="translate(63.917188 215.409375) rotate(-90) scale(0.1 -0.1)">
      <defs>
       <path id="DejaVuSans-5f" d="M 3263 -1063 
L 3263 -1509 
L -63 -1509 
L -63 -1063 
L 3263 -1063 
z
" transform="scale(0.015625)"/>
       <path id="DejaVuSans-62" d="M 3116 1747 
Q 3116 2381 2855 2742 
Q 2594 3103 2138 3103 
Q 1681 3103 1420 2742 
Q 1159 2381 1159 1747 
Q 1159 1113 1420 752 
Q 1681 391 2138 391 
Q 2594 391 2855 752 
Q 3116 1113 3116 1747 
z
M 1159 2969 
Q 1341 3281 1617 3432 
Q 1894 3584 2278 3584 
Q 2916 3584 3314 3078 
Q 3713 2572 3713 1747 
Q 3713 922 3314 415 
Q 2916 -91 2278 -91 
Q 1894 -91 1617 61 
Q 1341 213 1159 525 
L 1159 0 
L 581 0 
L 581 4863 
L 1159 4863 
L 1159 2969 
z
" transform="scale(0.015625)"/>
       <path id="DejaVuSans-6c" d="M 603 4863 
L 1178 4863 
L 1178 0 
L 603 0 
L 603 4863 
z
" transform="scale(0.015625)"/>
      </defs>
      <use xlink:href="#DejaVuSans-63"/>
      <use xlink:href="#DejaVuSans-6f" transform="translate(54.980469 0)"/>
      <use xlink:href="#DejaVuSans-6e" transform="translate(116.162109 0)"/>
      <use xlink:href="#DejaVuSans-74" transform="translate(179.541016 0)"/>
      <use xlink:href="#DejaVuSans-5f" transform="translate(218.75 0)"/>
      <use xlink:href="#DejaVuSans-76" transform="translate(268.75 0)"/>
      <use xlink:href="#DejaVuSans-61" transform="translate(327.929688 0)"/>
      <use xlink:href="#DejaVuSans-72" transform="translate(389.208984 0)"/>
      <use xlink:href="#DejaVuSans-69" transform="translate(430.322266 0)"/>
      <use xlink:href="#DejaVuSans-61" transform="translate(458.105469 0)"/>
      <use xlink:href="#DejaVuSans-62" transform="translate(519.384766 0)"/>
      <use xlink:href="#DejaVuSans-6c" transform="translate(582.861328 0)"/>
      <use xlink:href="#DejaVuSans-65" transform="translate(610.644531 0)"/>
     </g>
    </g>
   </g>
   <g id="patch_3">
    <path d="M 90 320.4 
L 90 43.2 
" style="fill: none; stroke: #000000; stroke-width: 0.8; stroke-linejoin: miter; stroke-linecap: square"/>
   </g>
   <g id="patch_4">
    <path d="M 648 320.4 
L 648 43.2 
" style="fill: none; stroke: #000000; stroke-width: 0.8; stroke-linejoin: miter; stroke-linecap: square"/>
   </g>
   <g id="patch_5">
    <path d="M 90 320.4 
L 648 320.4 
" style="fill: none; stroke: #000000; stroke-width: 0.8; stroke-linejoin: miter; stroke-linecap: square"/>
   </g>
   <g id="patch_6">
    <path d="M 90 43.2 
L 648 43.2 
" style="fill: none; stroke: #000000; stroke-width: 0.8; stroke-linejoin: miter; stroke-linecap: square"/>
   </g>
   <g id="PathCollection_1">
    <defs>
     <path id="mb8ee536b4b" d="M 0 2.5 
C 0.663008 2.5 1.29895 2.236584 1.767767 1.767767 
C 2.236584 1.29895 2.5 0.663008 2.5 0 
C 2.5 -0.663008 2.236584 -1.29895 1.767767 -1.767767 
C 1.29895 -2.236584 0.663008 -2.5 0 -2.5 
C -0.663008 -2.5 -1.29895 -2.236584 -1.767767 -1.767767 
C -2.236584 -1.29895 -2.5 -0.663008 -2.5 0 
C -2.5 0.663008 -2.236584 1.29895 -1.767767 1.767767 
C -1.29895 2.236584 -0.663008 2.5 0 2.5 
z
"/>
    </defs>
    <g clip-path="url(#p373df27579)">
     <use xlink:href="#mb8ee536b4b" x="160.588438" y="135.226801" style="fill-opacity: 0.3"/>
     <use xlink:href="#mb8ee536b4b" x="161.731599" y="135.226801" style="fill-opacity: 0.3"/>
     <use xlink:href="#mb8ee536b4b" x="157.991089" y="259.421998" style="fill-opacity: 0.3"/>
     <use xlink:href="#mb8ee536b4b" x="163.872698" y="259.421998" style="fill-opacity: 0.3"/>
     <use xlink:href="#mb8ee536b4b" x="146.267972" y="135.226801" style="fill-opacity: 0.3"/>
     <use xlink:href="#mb8ee536b4b" x="148.605861" y="104.178002" style="fill-opacity: 0.3"/>
     <use xlink:href="#mb8ee536b4b" x="172.45965" y="104.178002" style="fill-opacity: 0.3"/>
     <use xlink:href="#mb8ee536b4b" x="166.792408" y="104.178002" style="fill-opacity: 0.3"/>
     <use xlink:href="#mb8ee536b4b" x="173.050732" y="104.178002" style="fill-opacity: 0.3"/>
     <use xlink:href="#mb8ee536b4b" x="146.130559" y="104.178002" style="fill-opacity: 0.3"/>
     <use xlink:href="#mb8ee536b4b" x="149.15854" y="104.178002" style="fill-opacity: 0.3"/>
     <use xlink:href="#mb8ee536b4b" x="145.956326" y="104.178002" style="fill-opacity: 0.3"/>
     <use xlink:href="#mb8ee536b4b" x="173.467488" y="104.178002" style="fill-opacity: 0.3"/>
     <use xlink:href="#mb8ee536b4b" x="166.022308" y="104.178002" style="fill-opacity: 0.3"/>
     <use xlink:href="#mb8ee536b4b" x="160.837007" y="104.178002" style="fill-opacity: 0.3"/>
     <use xlink:href="#mb8ee536b4b" x="165.84912" y="104.178002" style="fill-opacity: 0.3"/>
     <use xlink:href="#mb8ee536b4b" x="148.153269" y="104.178002" style="fill-opacity: 0.3"/>
     <use xlink:href="#mb8ee536b4b" x="162.425762" y="104.178002" style="fill-opacity: 0.3"/>
     <use xlink:href="#mb8ee536b4b" x="152.468998" y="104.178002" style="fill-opacity: 0.3"/>
     <use xlink:href="#mb8ee536b4b" x="148.195383" y="104.178002" style="fill-opacity: 0.3"/>
     <use xlink:href="#mb8ee536b4b" x="165.962522" y="104.178002" style="fill-opacity: 0.3"/>
     <use xlink:href="#mb8ee536b4b" x="172.619947" y="104.178002" style="fill-opacity: 0.3"/>
     <use xlink:href="#mb8ee536b4b" x="165.641339" y="104.178002" style="fill-opacity: 0.3"/>
     <use xlink:href="#mb8ee536b4b" x="160.093396" y="104.178002" style="fill-opacity: 0.3"/>
     <use xlink:href="#mb8ee536b4b" x="165.415182" y="104.178002" style="fill-opacity: 0.3"/>
     <use xlink:href="#mb8ee536b4b" x="158.321726" y="104.178002" style="fill-opacity: 0.3"/>
     <use xlink:href="#mb8ee536b4b" x="161.86074" y="104.178002" style="fill-opacity: 0.3"/>
     <use xlink:href="#mb8ee536b4b" x="152.501284" y="104.178002" style="fill-opacity: 0.3"/>
     <use xlink:href="#mb8ee536b4b" x="165.931612" y="104.178002" style="fill-opacity: 0.3"/>
     <use xlink:href="#mb8ee536b4b" x="166.612444" y="166.2756" style="fill-opacity: 0.3"/>
     <use xlink:href="#mb8ee536b4b" x="162.674513" y="166.2756" style="fill-opacity: 0.3"/>
     <use xlink:href="#mb8ee536b4b" x="152.95118" y="166.2756" style="fill-opacity: 0.3"/>
     <use xlink:href="#mb8ee536b4b" x="168.239694" y="166.2756" style="fill-opacity: 0.3"/>
     <use xlink:href="#mb8ee536b4b" x="161.252763" y="166.2756" style="fill-opacity: 0.3"/>
     <use xlink:href="#mb8ee536b4b" x="153.905478" y="166.2756" style="fill-opacity: 0.3"/>
     <use xlink:href="#mb8ee536b4b" x="148.474026" y="166.2756" style="fill-opacity: 0.3"/>
     <use xlink:href="#mb8ee536b4b" x="168.381706" y="166.2756" style="fill-opacity: 0.3"/>
     <use xlink:href="#mb8ee536b4b" x="153.352942" y="166.2756" style="fill-opacity: 0.3"/>
     <use xlink:href="#mb8ee536b4b" x="149.415127" y="166.2756" style="fill-opacity: 0.3"/>
     <use xlink:href="#mb8ee536b4b" x="167.378913" y="166.2756" style="fill-opacity: 0.3"/>
     <use xlink:href="#mb8ee536b4b" x="166.200676" y="166.2756" style="fill-opacity: 0.3"/>
     <use xlink:href="#mb8ee536b4b" x="173.330314" y="166.2756" style="fill-opacity: 0.3"/>
     <use xlink:href="#mb8ee536b4b" x="162.851624" y="166.2756" style="fill-opacity: 0.3"/>
     <use xlink:href="#mb8ee536b4b" x="159.995819" y="166.2756" style="fill-opacity: 0.3"/>
     <use xlink:href="#mb8ee536b4b" x="151.700399" y="166.2756" style="fill-opacity: 0.3"/>
     <use xlink:href="#mb8ee536b4b" x="156.647254" y="166.2756" style="fill-opacity: 0.3"/>
     <use xlink:href="#mb8ee536b4b" x="158.312442" y="166.2756" style="fill-opacity: 0.3"/>
     <use xlink:href="#mb8ee536b4b" x="158.428779" y="166.2756" style="fill-opacity: 0.3"/>
     <use xlink:href="#mb8ee536b4b" x="155.185438" y="166.2756" style="fill-opacity: 0.3"/>
     <use xlink:href="#mb8ee536b4b" x="166.298746" y="104.178002" style="fill-opacity: 0.3"/>
     <use xlink:href="#mb8ee536b4b" x="163.240621" y="104.178002" style="fill-opacity: 0.3"/>
     <use xlink:href="#mb8ee536b4b" x="168.000666" y="104.178002" style="fill-opacity: 0.3"/>
     <use xlink:href="#mb8ee536b4b" x="172.638661" y="104.178002" style="fill-opacity: 0.3"/>
     <use xlink:href="#mb8ee536b4b" x="172.415237" y="104.178002" style="fill-opacity: 0.3"/>
     <use xlink:href="#mb8ee536b4b" x="152.867846" y="104.178002" style="fill-opacity: 0.3"/>
    </g>
   </g>
   <g id="PathCollection_2">
    <g clip-path="url(#p373df27579)">
     <use xlink:href="#mb8ee536b4b" x="298.610417" y="135.226801" style="fill-opacity: 0.3"/>
     <use xlink:href="#mb8ee536b4b" x="298.252412" y="135.226801" style="fill-opacity: 0.3"/>
     <use xlink:href="#mb8ee536b4b" x="291.523744" y="135.226801" style="fill-opacity: 0.3"/>
     <use xlink:href="#mb8ee536b4b" x="303.722495" y="135.226801" style="fill-opacity: 0.3"/>
     <use xlink:href="#mb8ee536b4b" x="285.664743" y="135.226801" style="fill-opacity: 0.3"/>
     <use xlink:href="#mb8ee536b4b" x="292.310467" y="135.226801" style="fill-opacity: 0.3"/>
     <use xlink:href="#mb8ee536b4b" x="299.184713" y="135.226801" style="fill-opacity: 0.3"/>
     <use xlink:href="#mb8ee536b4b" x="307.618049" y="135.226801" style="fill-opacity: 0.3"/>
     <use xlink:href="#mb8ee536b4b" x="309.243322" y="135.226801" style="fill-opacity: 0.3"/>
     <use xlink:href="#mb8ee536b4b" x="286.438518" y="135.226801" style="fill-opacity: 0.3"/>
     <use xlink:href="#mb8ee536b4b" x="311.132137" y="259.421998" style="fill-opacity: 0.3"/>
     <use xlink:href="#mb8ee536b4b" x="295.954482" y="259.421998" style="fill-opacity: 0.3"/>
     <use xlink:href="#mb8ee536b4b" x="291.63755" y="259.421998" style="fill-opacity: 0.3"/>
     <use xlink:href="#mb8ee536b4b" x="293.948239" y="259.421998" style="fill-opacity: 0.3"/>
     <use xlink:href="#mb8ee536b4b" x="310.757649" y="135.226801" style="fill-opacity: 0.3"/>
     <use xlink:href="#mb8ee536b4b" x="307.449164" y="104.178002" style="fill-opacity: 0.3"/>
     <use xlink:href="#mb8ee536b4b" x="286.321866" y="104.178002" style="fill-opacity: 0.3"/>
     <use xlink:href="#mb8ee536b4b" x="301.816259" y="104.178002" style="fill-opacity: 0.3"/>
     <use xlink:href="#mb8ee536b4b" x="309.429507" y="104.178002" style="fill-opacity: 0.3"/>
     <use xlink:href="#mb8ee536b4b" x="292.485692" y="104.178002" style="fill-opacity: 0.3"/>
     <use xlink:href="#mb8ee536b4b" x="310.819615" y="104.178002" style="fill-opacity: 0.3"/>
     <use xlink:href="#mb8ee536b4b" x="288.488049" y="104.178002" style="fill-opacity: 0.3"/>
     <use xlink:href="#mb8ee536b4b" x="306.750003" y="104.178002" style="fill-opacity: 0.3"/>
     <use xlink:href="#mb8ee536b4b" x="291.286361" y="104.178002" style="fill-opacity: 0.3"/>
     <use xlink:href="#mb8ee536b4b" x="298.395233" y="104.178002" style="fill-opacity: 0.3"/>
     <use xlink:href="#mb8ee536b4b" x="289.686" y="104.178002" style="fill-opacity: 0.3"/>
     <use xlink:href="#mb8ee536b4b" x="295.791732" y="104.178002" style="fill-opacity: 0.3"/>
     <use xlink:href="#mb8ee536b4b" x="294.48182" y="104.178002" style="fill-opacity: 0.3"/>
     <use xlink:href="#mb8ee536b4b" x="302.532176" y="104.178002" style="fill-opacity: 0.3"/>
     <use xlink:href="#mb8ee536b4b" x="299.492454" y="104.178002" style="fill-opacity: 0.3"/>
     <use xlink:href="#mb8ee536b4b" x="312.578216" y="104.178002" style="fill-opacity: 0.3"/>
     <use xlink:href="#mb8ee536b4b" x="298.666584" y="104.178002" style="fill-opacity: 0.3"/>
     <use xlink:href="#mb8ee536b4b" x="299.018485" y="104.178002" style="fill-opacity: 0.3"/>
     <use xlink:href="#mb8ee536b4b" x="296.510064" y="104.178002" style="fill-opacity: 0.3"/>
     <use xlink:href="#mb8ee536b4b" x="288.196433" y="104.178002" style="fill-opacity: 0.3"/>
     <use xlink:href="#mb8ee536b4b" x="294.790362" y="104.178002" style="fill-opacity: 0.3"/>
     <use xlink:href="#mb8ee536b4b" x="299.791365" y="104.178002" style="fill-opacity: 0.3"/>
     <use xlink:href="#mb8ee536b4b" x="287.222191" y="104.178002" style="fill-opacity: 0.3"/>
     <use xlink:href="#mb8ee536b4b" x="302.578341" y="104.178002" style="fill-opacity: 0.3"/>
     <use xlink:href="#mb8ee536b4b" x="300.247348" y="104.178002" style="fill-opacity: 0.3"/>
     <use xlink:href="#mb8ee536b4b" x="300.142559" y="104.178002" style="fill-opacity: 0.3"/>
     <use xlink:href="#mb8ee536b4b" x="304.395809" y="104.178002" style="fill-opacity: 0.3"/>
     <use xlink:href="#mb8ee536b4b" x="311.913476" y="104.178002" style="fill-opacity: 0.3"/>
     <use xlink:href="#mb8ee536b4b" x="289.652961" y="104.178002" style="fill-opacity: 0.3"/>
     <use xlink:href="#mb8ee536b4b" x="299.875844" y="104.178002" style="fill-opacity: 0.3"/>
     <use xlink:href="#mb8ee536b4b" x="302.524898" y="104.178002" style="fill-opacity: 0.3"/>
     <use xlink:href="#mb8ee536b4b" x="286.205228" y="104.178002" style="fill-opacity: 0.3"/>
     <use xlink:href="#mb8ee536b4b" x="300.286217" y="104.178002" style="fill-opacity: 0.3"/>
     <use xlink:href="#mb8ee536b4b" x="303.768513" y="104.178002" style="fill-opacity: 0.3"/>
     <use xlink:href="#mb8ee536b4b" x="305.87704" y="104.178002" style="fill-opacity: 0.3"/>
     <use xlink:href="#mb8ee536b4b" x="294.55691" y="104.178002" style="fill-opacity: 0.3"/>
     <use xlink:href="#mb8ee536b4b" x="300.304541" y="104.178002" style="fill-opacity: 0.3"/>
     <use xlink:href="#mb8ee536b4b" x="305.848241" y="104.178002" style="fill-opacity: 0.3"/>
     <use xlink:href="#mb8ee536b4b" x="306.694227" y="104.178002" style="fill-opacity: 0.3"/>
     <use xlink:href="#mb8ee536b4b" x="304.515683" y="104.178002" style="fill-opacity: 0.3"/>
     <use xlink:href="#mb8ee536b4b" x="293.383651" y="104.178002" style="fill-opacity: 0.3"/>
     <use xlink:href="#mb8ee536b4b" x="291.622381" y="104.178002" style="fill-opacity: 0.3"/>
     <use xlink:href="#mb8ee536b4b" x="290.962729" y="104.178002" style="fill-opacity: 0.3"/>
     <use xlink:href="#mb8ee536b4b" x="288.179939" y="104.178002" style="fill-opacity: 0.3"/>
     <use xlink:href="#mb8ee536b4b" x="287.059703" y="104.178002" style="fill-opacity: 0.3"/>
     <use xlink:href="#mb8ee536b4b" x="307.30057" y="166.2756" style="fill-opacity: 0.3"/>
     <use xlink:href="#mb8ee536b4b" x="311.167567" y="166.2756" style="fill-opacity: 0.3"/>
     <use xlink:href="#mb8ee536b4b" x="312.767446" y="166.2756" style="fill-opacity: 0.3"/>
     <use xlink:href="#mb8ee536b4b" x="297.897106" y="166.2756" style="fill-opacity: 0.3"/>
     <use xlink:href="#mb8ee536b4b" x="295.757321" y="166.2756" style="fill-opacity: 0.3"/>
     <use xlink:href="#mb8ee536b4b" x="303.543372" y="166.2756" style="fill-opacity: 0.3"/>
     <use xlink:href="#mb8ee536b4b" x="286.181532" y="166.2756" style="fill-opacity: 0.3"/>
     <use xlink:href="#mb8ee536b4b" x="287.542029" y="166.2756" style="fill-opacity: 0.3"/>
     <use xlink:href="#mb8ee536b4b" x="300.828036" y="166.2756" style="fill-opacity: 0.3"/>
     <use xlink:href="#mb8ee536b4b" x="303.406009" y="166.2756" style="fill-opacity: 0.3"/>
     <use xlink:href="#mb8ee536b4b" x="307.11708" y="166.2756" style="fill-opacity: 0.3"/>
     <use xlink:href="#mb8ee536b4b" x="288.610847" y="166.2756" style="fill-opacity: 0.3"/>
     <use xlink:href="#mb8ee536b4b" x="292.908178" y="166.2756" style="fill-opacity: 0.3"/>
     <use xlink:href="#mb8ee536b4b" x="307.08147" y="166.2756" style="fill-opacity: 0.3"/>
     <use xlink:href="#mb8ee536b4b" x="309.876461" y="166.2756" style="fill-opacity: 0.3"/>
     <use xlink:href="#mb8ee536b4b" x="309.12366" y="166.2756" style="fill-opacity: 0.3"/>
     <use xlink:href="#mb8ee536b4b" x="292.117625" y="166.2756" style="fill-opacity: 0.3"/>
     <use xlink:href="#mb8ee536b4b" x="290.642139" y="166.2756" style="fill-opacity: 0.3"/>
     <use xlink:href="#mb8ee536b4b" x="307.866416" y="166.2756" style="fill-opacity: 0.3"/>
     <use xlink:href="#mb8ee536b4b" x="301.636357" y="166.2756" style="fill-opacity: 0.3"/>
     <use xlink:href="#mb8ee536b4b" x="295.928404" y="166.2756" style="fill-opacity: 0.3"/>
     <use xlink:href="#mb8ee536b4b" x="295.39502" y="166.2756" style="fill-opacity: 0.3"/>
     <use xlink:href="#mb8ee536b4b" x="297.369859" y="166.2756" style="fill-opacity: 0.3"/>
     <use xlink:href="#mb8ee536b4b" x="308.020436" y="104.178002" style="fill-opacity: 0.3"/>
     <use xlink:href="#mb8ee536b4b" x="292.441349" y="104.178002" style="fill-opacity: 0.3"/>
     <use xlink:href="#mb8ee536b4b" x="306.067696" y="104.178002" style="fill-opacity: 0.3"/>
     <use xlink:href="#mb8ee536b4b" x="294.362612" y="104.178002" style="fill-opacity: 0.3"/>
    </g>
   </g>
   <g id="PathCollection_3">
    <g clip-path="url(#p373df27579)">
     <use xlink:href="#mb8ee536b4b" x="438.978862" y="135.226801" style="fill-opacity: 0.3"/>
     <use xlink:href="#mb8ee536b4b" x="440.81826" y="135.226801" style="fill-opacity: 0.3"/>
     <use xlink:href="#mb8ee536b4b" x="425.007585" y="135.226801" style="fill-opacity: 0.3"/>
     <use xlink:href="#mb8ee536b4b" x="430.68959" y="135.226801" style="fill-opacity: 0.3"/>
     <use xlink:href="#mb8ee536b4b" x="441.25382" y="259.421998" style="fill-opacity: 0.3"/>
     <use xlink:href="#mb8ee536b4b" x="427.609886" y="259.421998" style="fill-opacity: 0.3"/>
     <use xlink:href="#mb8ee536b4b" x="433.57857" y="259.421998" style="fill-opacity: 0.3"/>
     <use xlink:href="#mb8ee536b4b" x="441.885749" y="135.226801" style="fill-opacity: 0.3"/>
     <use xlink:href="#mb8ee536b4b" x="430.699419" y="259.421998" style="fill-opacity: 0.3"/>
     <use xlink:href="#mb8ee536b4b" x="427.853254" y="135.226801" style="fill-opacity: 0.3"/>
     <use xlink:href="#mb8ee536b4b" x="431.142675" y="259.421998" style="fill-opacity: 0.3"/>
     <use xlink:href="#mb8ee536b4b" x="440.206477" y="104.178002" style="fill-opacity: 0.3"/>
     <use xlink:href="#mb8ee536b4b" x="446.97873" y="104.178002" style="fill-opacity: 0.3"/>
     <use xlink:href="#mb8ee536b4b" x="432.61911" y="104.178002" style="fill-opacity: 0.3"/>
     <use xlink:href="#mb8ee536b4b" x="434.393514" y="104.178002" style="fill-opacity: 0.3"/>
     <use xlink:href="#mb8ee536b4b" x="443.014781" y="104.178002" style="fill-opacity: 0.3"/>
     <use xlink:href="#mb8ee536b4b" x="448.602719" y="104.178002" style="fill-opacity: 0.3"/>
     <use xlink:href="#mb8ee536b4b" x="441.736724" y="104.178002" style="fill-opacity: 0.3"/>
     <use xlink:href="#mb8ee536b4b" x="451.480078" y="104.178002" style="fill-opacity: 0.3"/>
     <use xlink:href="#mb8ee536b4b" x="450.221711" y="104.178002" style="fill-opacity: 0.3"/>
     <use xlink:href="#mb8ee536b4b" x="446.868884" y="104.178002" style="fill-opacity: 0.3"/>
     <use xlink:href="#mb8ee536b4b" x="426.999613" y="104.178002" style="fill-opacity: 0.3"/>
     <use xlink:href="#mb8ee536b4b" x="445.468255" y="104.178002" style="fill-opacity: 0.3"/>
     <use xlink:href="#mb8ee536b4b" x="429.605601" y="104.178002" style="fill-opacity: 0.3"/>
     <use xlink:href="#mb8ee536b4b" x="452.273783" y="104.178002" style="fill-opacity: 0.3"/>
     <use xlink:href="#mb8ee536b4b" x="444.14197" y="104.178002" style="fill-opacity: 0.3"/>
     <use xlink:href="#mb8ee536b4b" x="445.514473" y="104.178002" style="fill-opacity: 0.3"/>
     <use xlink:href="#mb8ee536b4b" x="428.563308" y="104.178002" style="fill-opacity: 0.3"/>
     <use xlink:href="#mb8ee536b4b" x="433.25928" y="104.178002" style="fill-opacity: 0.3"/>
     <use xlink:href="#mb8ee536b4b" x="430.982775" y="104.178002" style="fill-opacity: 0.3"/>
     <use xlink:href="#mb8ee536b4b" x="451.80001" y="104.178002" style="fill-opacity: 0.3"/>
     <use xlink:href="#mb8ee536b4b" x="438.637749" y="104.178002" style="fill-opacity: 0.3"/>
     <use xlink:href="#mb8ee536b4b" x="444.173108" y="104.178002" style="fill-opacity: 0.3"/>
     <use xlink:href="#mb8ee536b4b" x="428.883869" y="104.178002" style="fill-opacity: 0.3"/>
     <use xlink:href="#mb8ee536b4b" x="427.487138" y="166.2756" style="fill-opacity: 0.3"/>
     <use xlink:href="#mb8ee536b4b" x="425.885685" y="166.2756" style="fill-opacity: 0.3"/>
     <use xlink:href="#mb8ee536b4b" x="450.938915" y="166.2756" style="fill-opacity: 0.3"/>
     <use xlink:href="#mb8ee536b4b" x="433.022713" y="166.2756" style="fill-opacity: 0.3"/>
     <use xlink:href="#mb8ee536b4b" x="438.723716" y="166.2756" style="fill-opacity: 0.3"/>
     <use xlink:href="#mb8ee536b4b" x="436.533662" y="166.2756" style="fill-opacity: 0.3"/>
     <use xlink:href="#mb8ee536b4b" x="428.020447" y="104.178002" style="fill-opacity: 0.3"/>
     <use xlink:href="#mb8ee536b4b" x="430.504217" y="104.178002" style="fill-opacity: 0.3"/>
    </g>
   </g>
   <g id="PathCollection_4">
    <g clip-path="url(#p373df27579)">
     <use xlink:href="#mb8ee536b4b" x="589.410352" y="259.421998" style="fill-opacity: 0.3"/>
     <use xlink:href="#mb8ee536b4b" x="564.932481" y="135.226801" style="fill-opacity: 0.3"/>
     <use xlink:href="#mb8ee536b4b" x="588.606928" y="104.178002" style="fill-opacity: 0.3"/>
     <use xlink:href="#mb8ee536b4b" x="591.763276" y="104.178002" style="fill-opacity: 0.3"/>
     <use xlink:href="#mb8ee536b4b" x="573.222218" y="104.178002" style="fill-opacity: 0.3"/>
     <use xlink:href="#mb8ee536b4b" x="583.287213" y="104.178002" style="fill-opacity: 0.3"/>
     <use xlink:href="#mb8ee536b4b" x="577.971288" y="104.178002" style="fill-opacity: 0.3"/>
     <use xlink:href="#mb8ee536b4b" x="576.018051" y="166.2756" style="fill-opacity: 0.3"/>
     <use xlink:href="#mb8ee536b4b" x="576.231508" y="166.2756" style="fill-opacity: 0.3"/>
     <use xlink:href="#mb8ee536b4b" x="577.771782" y="166.2756" style="fill-opacity: 0.3"/>
     <use xlink:href="#mb8ee536b4b" x="585.444425" y="166.2756" style="fill-opacity: 0.3"/>
     <use xlink:href="#mb8ee536b4b" x="586.08261" y="166.2756" style="fill-opacity: 0.3"/>
     <use xlink:href="#mb8ee536b4b" x="591.885208" y="166.2756" style="fill-opacity: 0.3"/>
     <use xlink:href="#mb8ee536b4b" x="587.910024" y="166.2756" style="fill-opacity: 0.3"/>
     <use xlink:href="#mb8ee536b4b" x="584.847815" y="166.2756" style="fill-opacity: 0.3"/>
     <use xlink:href="#mb8ee536b4b" x="581.827748" y="166.2756" style="fill-opacity: 0.3"/>
     <use xlink:href="#mb8ee536b4b" x="571.149484" y="166.2756" style="fill-opacity: 0.3"/>
     <use xlink:href="#mb8ee536b4b" x="583.779141" y="166.2756" style="fill-opacity: 0.3"/>
     <use xlink:href="#mb8ee536b4b" x="565.320898" y="104.178002" style="fill-opacity: 0.3"/>
     <use xlink:href="#mb8ee536b4b" x="564.516287" y="104.178002" style="fill-opacity: 0.3"/>
     <use xlink:href="#mb8ee536b4b" x="565.854516" y="104.178002" style="fill-opacity: 0.3"/>
     <use xlink:href="#mb8ee536b4b" x="582.348929" y="104.178002" style="fill-opacity: 0.3"/>
     <use xlink:href="#mb8ee536b4b" x="574.682623" y="104.178002" style="fill-opacity: 0.3"/>
     <use xlink:href="#mb8ee536b4b" x="566.154995" y="104.178002" style="fill-opacity: 0.3"/>
     <use xlink:href="#mb8ee536b4b" x="591.938217" y="104.178002" style="fill-opacity: 0.3"/>
     <use xlink:href="#mb8ee536b4b" x="570.446194" y="104.178002" style="fill-opacity: 0.3"/>
     <use xlink:href="#mb8ee536b4b" x="584.014011" y="104.178002" style="fill-opacity: 0.3"/>
    </g>
   </g>
  </g>
 </g>
 <defs>
  <clipPath id="p373df27579">
   <rect x="90" y="43.2" width="558" height="277.2"/>
  </clipPath>
 </defs>
</svg>
