<?xml version="1.0" encoding="utf-8" standalone="no"?>
<!DOCTYPE svg PUBLIC "-//W3C//DTD SVG 1.1//EN"
  "http://www.w3.org/Graphics/SVG/1.1/DTD/svg11.dtd">
<svg xmlns:xlink="http://www.w3.org/1999/xlink" width="720pt" height="360pt" viewBox="0 0 720 360" xmlns="http://www.w3.org/2000/svg" version="1.1">
 <metadata>
  <rdf:RDF xmlns:dc="http://purl.org/dc/elements/1.1/" xmlns:cc="http://creativecommons.org/ns#" xmlns:rdf="http://www.w3.org/1999/02/22-rdf-syntax-ns#">
   <cc:Work>
    <dc:type rdf:resource="http://purl.org/dc/dcmitype/StillImage"/>
    <dc:date>2025-11-14T11:41:26.373174</dc:date>
    <dc:format>image/svg+xml</dc:format>
    <dc:creator>
     <cc:Agent>
      <dc:title>Matplotlib v3.10.5, https://matplotlib.org/</dc:title>
     </cc:Agent>
    </dc:creator>
   </cc:Work>
  </rdf:RDF>
 </metadata>
 <defs>
  <style type="text/css">*{stroke-linejoin: round; stroke-linecap: butt}</style>
 </defs>
 <g id="figure_1">
  <g id="patch_1">
   <path d="M 0 360 
L 720 360 
L 720 0 
L 0 0 
z
" style="fill: #ffffff"/>
  </g>
  <g id="axes_1">
   <g id="patch_2">
    <path d="M 90 320.4 
L 648 320.4 
L 648 43.2 
L 90 43.2 
z
" style="fill: #ffffff"/>
   </g>
   <g id="FillBetweenPolyCollection_1">
    <defs>
     <path id="m566b57031a" d="M 229.716316 -52.2 
L 229.283684 -52.2 
L 229.187443 -54.745455 
L 229.0646 -57.290909 
L 228.915065 -59.836364 
L 228.741763 -62.381818 
L 228.550895 -64.927273 
L 228.351453 -67.472727 
L 228.153851 -70.018182 
L 227.967757 -72.563636 
L 227.799431 -75.109091 
L 227.649124 -77.654545 
L 227.50917 -80.2 
L 227.363309 -82.745455 
L 227.18754 -85.290909 
L 226.952389 -87.836364 
L 226.626113 -90.381818 
L 226.178068 -92.927273 
L 225.58141 -95.472727 
L 224.81453 -98.018182 
L 223.860965 -100.563636 
L 222.708104 -103.109091 
L 221.345385 -105.654545 
L 219.762986 -108.2 
L 217.951923 -110.745455 
L 215.906172 -113.290909 
L 213.626842 -115.836364 
L 211.12775 -118.381818 
L 208.44114 -120.927273 
L 205.621868 -123.472727 
L 202.748305 -126.018182 
L 199.918546 -128.563636 
L 197.241305 -131.109091 
L 194.821937 -133.654545 
L 192.74531 -136.2 
L 191.058331 -138.745455 
L 189.75555 -141.290909 
L 188.771263 -143.836364 
L 187.980606 -146.381818 
L 187.21062 -148.927273 
L 186.260266 -151.472727 
L 184.926503 -154.018182 
L 183.032074 -156.563636 
L 180.450149 -159.109091 
L 177.121447 -161.654545 
L 173.060922 -164.2 
L 168.353287 -166.745455 
L 163.138953 -169.290909 
L 157.593927 -171.836364 
L 151.908246 -174.381818 
L 146.267319 -176.927273 
L 140.839207 -179.472727 
L 135.768773 -182.018182 
L 131.177404 -184.563636 
L 127.165542 -187.109091 
L 123.814847 -189.654545 
L 121.187746 -192.2 
L 119.323867 -194.745455 
L 118.234808 -197.290909 
L 117.9 -199.836364 
L 118.26662 -202.381818 
L 119.255517 -204.927273 
L 120.773193 -207.472727 
L 122.727826 -210.018182 
L 125.045766 -212.563636 
L 127.684352 -215.109091 
L 130.637584 -217.654545 
L 133.93276 -220.2 
L 137.618371 -222.745455 
L 141.745648 -225.290909 
L 146.347716 -227.836364 
L 151.420929 -230.381818 
L 156.912536 -232.927273 
L 162.717397 -235.472727 
L 168.684513 -238.018182 
L 174.632003 -240.563636 
L 180.367495 -243.109091 
L 185.710045 -245.654545 
L 190.509852 -248.2 
L 194.662975 -250.745455 
L 198.119647 -253.290909 
L 200.88612 -255.836364 
L 203.02087 -258.381818 
L 204.626305 -260.927273 
L 205.837053 -263.472727 
L 206.80566 -266.018182 
L 207.686574 -268.563636 
L 208.619606 -271.109091 
L 209.714648 -273.654545 
L 211.039871 -276.2 
L 212.615566 -278.745455 
L 214.415048 -281.290909 
L 216.372692 -283.836364 
L 218.397588 -286.381818 
L 220.390028 -288.927273 
L 222.257494 -291.472727 
L 223.927175 -294.018182 
L 225.353153 -296.563636 
L 226.517815 -299.109091 
L 227.428421 -301.654545 
L 228.110557 -304.2 
L 230.889443 -304.2 
L 230.889443 -304.2 
L 231.571579 -301.654545 
L 232.482185 -299.109091 
L 233.646847 -296.563636 
L 235.072825 -294.018182 
L 236.742506 -291.472727 
L 238.609972 -288.927273 
L 240.602412 -286.381818 
L 242.627308 -283.836364 
L 244.584952 -281.290909 
L 246.384434 -278.745455 
L 247.960129 -276.2 
L 249.285352 -273.654545 
L 250.380394 -271.109091 
L 251.313426 -268.563636 
L 252.19434 -266.018182 
L 253.162947 -263.472727 
L 254.373695 -260.927273 
L 255.97913 -258.381818 
L 258.11388 -255.836364 
L 260.880353 -253.290909 
L 264.337025 -250.745455 
L 268.490148 -248.2 
L 273.289955 -245.654545 
L 278.632505 -243.109091 
L 284.367997 -240.563636 
L 290.315487 -238.018182 
L 296.282603 -235.472727 
L 302.087464 -232.927273 
L 307.579071 -230.381818 
L 312.652284 -227.836364 
L 317.254352 -225.290909 
L 321.381629 -222.745455 
L 325.06724 -220.2 
L 328.362416 -217.654545 
L 331.315648 -215.109091 
L 333.954234 -212.563636 
L 336.272174 -210.018182 
L 338.226807 -207.472727 
L 339.744483 -204.927273 
L 340.73338 -202.381818 
L 341.1 -199.836364 
L 340.765192 -197.290909 
L 339.676133 -194.745455 
L 337.812254 -192.2 
L 335.185153 -189.654545 
L 331.834458 -187.109091 
L 327.822596 -184.563636 
L 323.231227 -182.018182 
L 318.160793 -179.472727 
L 312.732681 -176.927273 
L 307.091754 -174.381818 
L 301.406073 -171.836364 
L 295.861047 -169.290909 
L 290.646713 -166.745455 
L 285.939078 -164.2 
L 281.878553 -161.654545 
L 278.549851 -159.109091 
L 275.967926 -156.563636 
L 274.073497 -154.018182 
L 272.739734 -151.472727 
L 271.78938 -148.927273 
L 271.019394 -146.381818 
L 270.228737 -143.836364 
L 269.24445 -141.290909 
L 267.941669 -138.745455 
L 266.25469 -136.2 
L 264.178063 -133.654545 
L 261.758695 -131.109091 
L 259.081454 -128.563636 
L 256.251695 -126.018182 
L 253.378132 -123.472727 
L 250.55886 -120.927273 
L 247.87225 -118.381818 
L 245.373158 -115.836364 
L 243.093828 -113.290909 
L 241.048077 -110.745455 
L 239.237014 -108.2 
L 237.654615 -105.654545 
L 236.291896 -103.109091 
L 235.139035 -100.563636 
L 234.18547 -98.018182 
L 233.41859 -95.472727 
L 232.821932 -92.927273 
L 232.373887 -90.381818 
L 232.047611 -87.836364 
L 231.81246 -85.290909 
L 231.636691 -82.745455 
L 231.49083 -80.2 
L 231.350876 -77.654545 
L 231.200569 -75.109091 
L 231.032243 -72.563636 
L 230.846149 -70.018182 
L 230.648547 -67.472727 
L 230.449105 -64.927273 
L 230.258237 -62.381818 
L 230.084935 -59.836364 
L 229.9354 -57.290909 
L 229.812557 -54.745455 
L 229.716316 -52.2 
z
" style="stroke: #3f3f3f; stroke-width: 1.25"/>
    </defs>
    <g clip-path="url(#p2bdffe98c6)">
     <use xlink:href="#m566b57031a" x="0" y="360" style="fill: #3274a1; stroke: #3f3f3f; stroke-width: 1.25"/>
    </g>
   </g>
   <g id="FillBetweenPolyCollection_2">
    <defs>
     <path id="me79895f81e" d="M 509.951591 -81.159125 
L 507.048409 -81.159125 
L 506.636887 -82.329551 
L 506.139659 -83.499978 
L 505.547858 -84.670404 
L 504.853899 -85.840831 
L 504.051942 -87.011257 
L 503.138264 -88.181684 
L 502.111451 -89.35211 
L 500.972373 -90.522537 
L 499.723884 -91.692963 
L 498.370236 -92.86339 
L 496.916226 -94.033816 
L 495.366135 -95.204243 
L 493.722557 -96.374669 
L 491.985249 -97.545096 
L 490.150175 -98.715522 
L 488.2089 -99.885949 
L 486.148495 -101.056375 
L 483.952069 -102.226802 
L 481.599998 -103.397228 
L 479.071826 -104.567655 
L 476.348763 -105.738081 
L 473.41657 -106.908507 
L 470.268594 -108.078934 
L 466.908624 -109.24936 
L 463.353233 -110.419787 
L 459.63327 -111.590213 
L 455.794227 -112.76064 
L 451.895282 -113.931066 
L 448.006956 -115.101493 
L 444.207448 -116.271919 
L 440.577877 -117.442346 
L 437.196776 -118.612772 
L 434.134319 -119.783199 
L 431.446792 -120.953625 
L 429.171851 -122.124052 
L 427.325067 -123.294478 
L 425.898112 -124.464905 
L 424.858826 -125.635331 
L 424.153209 -126.805758 
L 423.709169 -127.976184 
L 423.441722 -129.146611 
L 423.259157 -130.317037 
L 423.069625 -131.487464 
L 422.787567 -132.65789 
L 422.339444 -133.828317 
L 421.668317 -134.998743 
L 420.736973 -136.16917 
L 419.529428 -137.339596 
L 418.05083 -138.510023 
L 416.325891 -139.680449 
L 414.396119 -140.850876 
L 412.316182 -142.021302 
L 410.149768 -143.191729 
L 407.965308 -144.362155 
L 405.831893 -145.532582 
L 403.815631 -146.703008 
L 401.976679 -147.873435 
L 400.367033 -149.043861 
L 399.029161 -150.214288 
L 397.995446 -151.384714 
L 397.288369 -152.555141 
L 396.92134 -153.725567 
L 396.9 -154.895994 
L 397.223853 -156.06642 
L 397.888039 -157.236847 
L 398.885079 -158.407273 
L 400.206441 -159.5777 
L 401.843784 -160.748126 
L 403.789802 -161.918552 
L 406.038598 -163.088979 
L 408.585571 -164.259405 
L 411.426866 -165.429832 
L 414.558434 -166.600258 
L 417.974814 -167.770685 
L 421.66776 -168.941111 
L 425.624856 -170.111538 
L 429.828271 -171.281964 
L 434.253777 -172.452391 
L 438.870173 -173.622817 
L 443.63919 -174.793244 
L 448.515938 -175.96367 
L 453.449899 -177.134097 
L 458.386415 -178.304523 
L 463.268598 -179.47495 
L 468.039508 -180.645376 
L 472.644452 -181.815803 
L 477.033226 -182.986229 
L 481.16212 -184.156656 
L 484.995552 -185.327082 
L 488.5072 -186.497509 
L 491.680581 -187.667935 
L 494.509051 -188.838362 
L 496.995274 -190.008788 
L 499.150224 -191.179215 
L 500.991844 -192.349641 
L 502.543497 -193.520068 
L 503.832312 -194.690494 
L 504.887585 -195.860921 
L 505.739307 -197.031347 
L 511.260693 -197.031347 
L 511.260693 -197.031347 
L 512.112415 -195.860921 
L 513.167688 -194.690494 
L 514.456503 -193.520068 
L 516.008156 -192.349641 
L 517.849776 -191.179215 
L 520.004726 -190.008788 
L 522.490949 -188.838362 
L 525.319419 -187.667935 
L 528.4928 -186.497509 
L 532.004448 -185.327082 
L 535.83788 -184.156656 
L 539.966774 -182.986229 
L 544.355548 -181.815803 
L 548.960492 -180.645376 
L 553.731402 -179.47495 
L 558.613585 -178.304523 
L 563.550101 -177.134097 
L 568.484062 -175.96367 
L 573.36081 -174.793244 
L 578.129827 -173.622817 
L 582.746223 -172.452391 
L 587.171729 -171.281964 
L 591.375144 -170.111538 
L 595.33224 -168.941111 
L 599.025186 -167.770685 
L 602.441566 -166.600258 
L 605.573134 -165.429832 
L 608.414429 -164.259405 
L 610.961402 -163.088979 
L 613.210198 -161.918552 
L 615.156216 -160.748126 
L 616.793559 -159.5777 
L 618.114921 -158.407273 
L 619.111961 -157.236847 
L 619.776147 -156.06642 
L 620.1 -154.895994 
L 620.07866 -153.725567 
L 619.711631 -152.555141 
L 619.004554 -151.384714 
L 617.970839 -150.214288 
L 616.632967 -149.043861 
L 615.023321 -147.873435 
L 613.184369 -146.703008 
L 611.168107 -145.532582 
L 609.034692 -144.362155 
L 606.850232 -143.191729 
L 604.683818 -142.021302 
L 602.603881 -140.850876 
L 600.674109 -139.680449 
L 598.94917 -138.510023 
L 597.470572 -137.339596 
L 596.263027 -136.16917 
L 595.331683 -134.998743 
L 594.660556 -133.828317 
L 594.212433 -132.65789 
L 593.930375 -131.487464 
L 593.740843 -130.317037 
L 593.558278 -129.146611 
L 593.290831 -127.976184 
L 592.846791 -126.805758 
L 592.141174 -125.635331 
L 591.101888 -124.464905 
L 589.674933 -123.294478 
L 587.828149 -122.124052 
L 585.553208 -120.953625 
L 582.865681 -119.783199 
L 579.803224 -118.612772 
L 576.422123 -117.442346 
L 572.792552 -116.271919 
L 568.993044 -115.101493 
L 565.104718 -113.931066 
L 561.205773 -112.76064 
L 557.36673 -111.590213 
L 553.646767 -110.419787 
L 550.091376 -109.24936 
L 546.731406 -108.078934 
L 543.58343 -106.908507 
L 540.651237 -105.738081 
L 537.928174 -104.567655 
L 535.400002 -103.397228 
L 533.047931 -102.226802 
L 530.851505 -101.056375 
L 528.7911 -99.885949 
L 526.849825 -98.715522 
L 525.014751 -97.545096 
L 523.277443 -96.374669 
L 521.633865 -95.204243 
L 520.083774 -94.033816 
L 518.629764 -92.86339 
L 517.276116 -91.692963 
L 516.027627 -90.522537 
L 514.888549 -89.35211 
L 513.861736 -88.181684 
L 512.948058 -87.011257 
L 512.146101 -85.840831 
L 511.452142 -84.670404 
L 510.860341 -83.499978 
L 510.363113 -82.329551 
L 509.951591 -81.159125 
z
" style="stroke: #3f3f3f; stroke-width: 1.25"/>
    </defs>
    <g clip-path="url(#p2bdffe98c6)">
     <use xlink:href="#me79895f81e" x="0" y="360" style="fill: #e1812c; stroke: #3f3f3f; stroke-width: 1.25"/>
    </g>
   </g>
   <g id="matplotlib.axis_1">
    <g id="xtick_1">
     <g id="line2d_1">
      <defs>
       <path id="ma25502f4d7" d="M 0 0 
L 0 3.5 
" style="stroke: #000000; stroke-width: 0.8"/>
      </defs>
      <g>
       <use xlink:href="#ma25502f4d7" x="229.5" y="320.4" style="stroke: #000000; stroke-width: 0.8"/>
      </g>
     </g>
     <g id="text_1">
      <!-- 7.0 -->
      <g transform="translate(221.548438 334.998438) scale(0.1 -0.1)">
       <defs>
        <path id="DejaVuSans-37" d="M 525 4666 
L 3525 4666 
L 3525 4397 
L 1831 0 
L 1172 0 
L 2766 4134 
L 525 4134 
L 525 4666 
z
" transform="scale(0.015625)"/>
        <path id="DejaVuSans-2e" d="M 684 794 
L 1344 794 
L 1344 0 
L 684 0 
L 684 794 
z
" transform="scale(0.015625)"/>
        <path id="DejaVuSans-30" d="M 2034 4250 
Q 1547 4250 1301 3770 
Q 1056 3291 1056 2328 
Q 1056 1369 1301 889 
Q 1547 409 2034 409 
Q 2525 409 2770 889 
Q 3016 1369 3016 2328 
Q 3016 3291 2770 3770 
Q 2525 4250 2034 4250 
z
M 2034 4750 
Q 2819 4750 3233 4129 
Q 3647 3509 3647 2328 
Q 3647 1150 3233 529 
Q 2819 -91 2034 -91 
Q 1250 -91 836 529 
Q 422 1150 422 2328 
Q 422 3509 836 4129 
Q 1250 4750 2034 4750 
z
" transform="scale(0.015625)"/>
       </defs>
       <use xlink:href="#DejaVuSans-37"/>
       <use xlink:href="#DejaVuSans-2e" transform="translate(63.623047 0)"/>
       <use xlink:href="#DejaVuSans-30" transform="translate(95.410156 0)"/>
      </g>
     </g>
    </g>
    <g id="xtick_2">
     <g id="line2d_2">
      <g>
       <use xlink:href="#ma25502f4d7" x="508.5" y="320.4" style="stroke: #000000; stroke-width: 0.8"/>
      </g>
     </g>
     <g id="text_2">
      <!-- 9.4 -->
      <g transform="translate(500.548437 334.998438) scale(0.1 -0.1)">
       <defs>
        <path id="DejaVuSans-39" d="M 703 97 
L 703 672 
Q 941 559 1184 500 
Q 1428 441 1663 441 
Q 2288 441 2617 861 
Q 2947 1281 2994 2138 
Q 2813 1869 2534 1725 
Q 2256 1581 1919 1581 
Q 1219 1581 811 2004 
Q 403 2428 403 3163 
Q 403 3881 828 4315 
Q 1253 4750 1959 4750 
Q 2769 4750 3195 4129 
Q 3622 3509 3622 2328 
Q 3622 1225 3098 567 
Q 2575 -91 1691 -91 
Q 1453 -91 1209 -44 
Q 966 3 703 97 
z
M 1959 2075 
Q 2384 2075 2632 2365 
Q 2881 2656 2881 3163 
Q 2881 3666 2632 3958 
Q 2384 4250 1959 4250 
Q 1534 4250 1286 3958 
Q 1038 3666 1038 3163 
Q 1038 2656 1286 2365 
Q 1534 2075 1959 2075 
z
" transform="scale(0.015625)"/>
        <path id="DejaVuSans-34" d="M 2419 4116 
L 825 1625 
L 2419 1625 
L 2419 4116 
z
M 2253 4666 
L 3047 4666 
L 3047 1625 
L 3713 1625 
L 3713 1100 
L 3047 1100 
L 3047 0 
L 2419 0 
L 2419 1100 
L 313 1100 
L 313 1709 
L 2253 4666 
z
" transform="scale(0.015625)"/>
       </defs>
       <use xlink:href="#DejaVuSans-39"/>
       <use xlink:href="#DejaVuSans-2e" transform="translate(63.623047 0)"/>
       <use xlink:href="#DejaVuSans-34" transform="translate(95.410156 0)"/>
      </g>
     </g>
    </g>
    <g id="text_3">
     <!-- value -->
     <g transform="translate(355.342188 348.676562) scale(0.1 -0.1)">
      <defs>
       <path id="DejaVuSans-76" d="M 191 3500 
L 800 3500 
L 1894 563 
L 2988 3500 
L 3597 3500 
L 2284 0 
L 1503 0 
L 191 3500 
z
" transform="scale(0.015625)"/>
       <path id="DejaVuSans-61" d="M 2194 1759 
Q 1497 1759 1228 1600 
Q 959 1441 959 1056 
Q 959 750 1161 570 
Q 1363 391 1709 391 
Q 2188 391 2477 730 
Q 2766 1069 2766 1631 
L 2766 1759 
L 2194 1759 
z
M 3341 1997 
L 3341 0 
L 2766 0 
L 2766 531 
Q 2569 213 2275 61 
Q 1981 -91 1556 -91 
Q 1019 -91 701 211 
Q 384 513 384 1019 
Q 384 1609 779 1909 
Q 1175 2209 1959 2209 
L 2766 2209 
L 2766 2266 
Q 2766 2663 2505 2880 
Q 2244 3097 1772 3097 
Q 1472 3097 1187 3025 
Q 903 2953 641 2809 
L 641 3341 
Q 956 3463 1253 3523 
Q 1550 3584 1831 3584 
Q 2591 3584 2966 3190 
Q 3341 2797 3341 1997 
z
" transform="scale(0.015625)"/>
       <path id="DejaVuSans-6c" d="M 603 4863 
L 1178 4863 
L 1178 0 
L 603 0 
L 603 4863 
z
" transform="scale(0.015625)"/>
       <path id="DejaVuSans-75" d="M 544 1381 
L 544 3500 
L 1119 3500 
L 1119 1403 
Q 1119 906 1312 657 
Q 1506 409 1894 409 
Q 2359 409 2629 706 
Q 2900 1003 2900 1516 
L 2900 3500 
L 3475 3500 
L 3475 0 
L 2900 0 
L 2900 538 
Q 2691 219 2414 64 
Q 2138 -91 1772 -91 
Q 1169 -91 856 284 
Q 544 659 544 1381 
z
M 1991 3584 
L 1991 3584 
z
" transform="scale(0.015625)"/>
       <path id="DejaVuSans-65" d="M 3597 1894 
L 3597 1613 
L 953 1613 
Q 991 1019 1311 708 
Q 1631 397 2203 397 
Q 2534 397 2845 478 
Q 3156 559 3463 722 
L 3463 178 
Q 3153 47 2828 -22 
Q 2503 -91 2169 -91 
Q 1331 -91 842 396 
Q 353 884 353 1716 
Q 353 2575 817 3079 
Q 1281 3584 2069 3584 
Q 2775 3584 3186 3129 
Q 3597 2675 3597 1894 
z
M 3022 2063 
Q 3016 2534 2758 2815 
Q 2500 3097 2075 3097 
Q 1594 3097 1305 2825 
Q 1016 2553 972 2059 
L 3022 2063 
z
" transform="scale(0.015625)"/>
      </defs>
      <use xlink:href="#DejaVuSans-76"/>
      <use xlink:href="#DejaVuSans-61" transform="translate(59.179688 0)"/>
      <use xlink:href="#DejaVuSans-6c" transform="translate(120.458984 0)"/>
      <use xlink:href="#DejaVuSans-75" transform="translate(148.242188 0)"/>
      <use xlink:href="#DejaVuSans-65" transform="translate(211.621094 0)"/>
     </g>
    </g>
   </g>
   <g id="matplotlib.axis_2">
    <g id="ytick_1">
     <g id="line2d_3">
      <defs>
       <path id="mcac8594163" d="M 0 0 
L -3.5 0 
" style="stroke: #000000; stroke-width: 0.8"/>
      </defs>
      <g>
       <use xlink:href="#mcac8594163" x="90" y="320.252679" style="stroke: #000000; stroke-width: 0.8"/>
      </g>
     </g>
     <g id="text_4">
      <!-- −10 -->
      <g transform="translate(61.895313 324.051897) scale(0.1 -0.1)">
       <defs>
        <path id="DejaVuSans-2212" d="M 678 2272 
L 4684 2272 
L 4684 1741 
L 678 1741 
L 678 2272 
z
" transform="scale(0.015625)"/>
        <path id="DejaVuSans-31" d="M 794 531 
L 1825 531 
L 1825 4091 
L 703 3866 
L 703 4441 
L 1819 4666 
L 2450 4666 
L 2450 531 
L 3481 531 
L 3481 0 
L 794 0 
L 794 531 
z
" transform="scale(0.015625)"/>
       </defs>
       <use xlink:href="#DejaVuSans-2212"/>
       <use xlink:href="#DejaVuSans-31" transform="translate(83.789062 0)"/>
       <use xlink:href="#DejaVuSans-30" transform="translate(147.412109 0)"/>
      </g>
     </g>
    </g>
    <g id="ytick_2">
     <g id="line2d_4">
      <g>
       <use xlink:href="#mcac8594163" x="90" y="281.390046" style="stroke: #000000; stroke-width: 0.8"/>
      </g>
     </g>
     <g id="text_5">
      <!-- 0 -->
      <g transform="translate(76.6375 285.189265) scale(0.1 -0.1)">
       <use xlink:href="#DejaVuSans-30"/>
      </g>
     </g>
    </g>
    <g id="ytick_3">
     <g id="line2d_5">
      <g>
       <use xlink:href="#mcac8594163" x="90" y="242.527414" style="stroke: #000000; stroke-width: 0.8"/>
      </g>
     </g>
     <g id="text_6">
      <!-- 10 -->
      <g transform="translate(70.275 246.326633) scale(0.1 -0.1)">
       <use xlink:href="#DejaVuSans-31"/>
       <use xlink:href="#DejaVuSans-30" transform="translate(63.623047 0)"/>
      </g>
     </g>
    </g>
    <g id="ytick_4">
     <g id="line2d_6">
      <g>
       <use xlink:href="#mcac8594163" x="90" y="203.664782" style="stroke: #000000; stroke-width: 0.8"/>
      </g>
     </g>
     <g id="text_7">
      <!-- 20 -->
      <g transform="translate(70.275 207.464) scale(0.1 -0.1)">
       <defs>
        <path id="DejaVuSans-32" d="M 1228 531 
L 3431 531 
L 3431 0 
L 469 0 
L 469 531 
Q 828 903 1448 1529 
Q 2069 2156 2228 2338 
Q 2531 2678 2651 2914 
Q 2772 3150 2772 3378 
Q 2772 3750 2511 3984 
Q 2250 4219 1831 4219 
Q 1534 4219 1204 4116 
Q 875 4013 500 3803 
L 500 4441 
Q 881 4594 1212 4672 
Q 1544 4750 1819 4750 
Q 2544 4750 2975 4387 
Q 3406 4025 3406 3419 
Q 3406 3131 3298 2873 
Q 3191 2616 2906 2266 
Q 2828 2175 2409 1742 
Q 1991 1309 1228 531 
z
" transform="scale(0.015625)"/>
       </defs>
       <use xlink:href="#DejaVuSans-32"/>
       <use xlink:href="#DejaVuSans-30" transform="translate(63.623047 0)"/>
      </g>
     </g>
    </g>
    <g id="ytick_5">
     <g id="line2d_7">
      <g>
       <use xlink:href="#mcac8594163" x="90" y="164.802149" style="stroke: #000000; stroke-width: 0.8"/>
      </g>
     </g>
     <g id="text_8">
      <!-- 30 -->
      <g transform="translate(70.275 168.601368) scale(0.1 -0.1)">
       <defs>
        <path id="DejaVuSans-33" d="M 2597 2516 
Q 3050 2419 3304 2112 
Q 3559 1806 3559 1356 
Q 3559 666 3084 287 
Q 2609 -91 1734 -91 
Q 1441 -91 1130 -33 
Q 819 25 488 141 
L 488 750 
Q 750 597 1062 519 
Q 1375 441 1716 441 
Q 2309 441 2620 675 
Q 2931 909 2931 1356 
Q 2931 1769 2642 2001 
Q 2353 2234 1838 2234 
L 1294 2234 
L 1294 2753 
L 1863 2753 
Q 2328 2753 2575 2939 
Q 2822 3125 2822 3475 
Q 2822 3834 2567 4026 
Q 2313 4219 1838 4219 
Q 1578 4219 1281 4162 
Q 984 4106 628 3988 
L 628 4550 
Q 988 4650 1302 4700 
Q 1616 4750 1894 4750 
Q 2613 4750 3031 4423 
Q 3450 4097 3450 3541 
Q 3450 3153 3228 2886 
Q 3006 2619 2597 2516 
z
" transform="scale(0.015625)"/>
       </defs>
       <use xlink:href="#DejaVuSans-33"/>
       <use xlink:href="#DejaVuSans-30" transform="translate(63.623047 0)"/>
      </g>
     </g>
    </g>
    <g id="ytick_6">
     <g id="line2d_8">
      <g>
       <use xlink:href="#mcac8594163" x="90" y="125.939517" style="stroke: #000000; stroke-width: 0.8"/>
      </g>
     </g>
     <g id="text_9">
      <!-- 40 -->
      <g transform="translate(70.275 129.738736) scale(0.1 -0.1)">
       <use xlink:href="#DejaVuSans-34"/>
       <use xlink:href="#DejaVuSans-30" transform="translate(63.623047 0)"/>
      </g>
     </g>
    </g>
    <g id="ytick_7">
     <g id="line2d_9">
      <g>
       <use xlink:href="#mcac8594163" x="90" y="87.076884" style="stroke: #000000; stroke-width: 0.8"/>
      </g>
     </g>
     <g id="text_10">
      <!-- 50 -->
      <g transform="translate(70.275 90.876103) scale(0.1 -0.1)">
       <defs>
        <path id="DejaVuSans-35" d="M 691 4666 
L 3169 4666 
L 3169 4134 
L 1269 4134 
L 1269 2991 
Q 1406 3038 1543 3061 
Q 1681 3084 1819 3084 
Q 2600 3084 3056 2656 
Q 3513 2228 3513 1497 
Q 3513 744 3044 326 
Q 2575 -91 1722 -91 
Q 1428 -91 1123 -41 
Q 819 9 494 109 
L 494 744 
Q 775 591 1075 516 
Q 1375 441 1709 441 
Q 2250 441 2565 725 
Q 2881 1009 2881 1497 
Q 2881 1984 2565 2268 
Q 2250 2553 1709 2553 
Q 1456 2553 1204 2497 
Q 953 2441 691 2322 
L 691 4666 
z
" transform="scale(0.015625)"/>
       </defs>
       <use xlink:href="#DejaVuSans-35"/>
       <use xlink:href="#DejaVuSans-30" transform="translate(63.623047 0)"/>
      </g>
     </g>
    </g>
    <g id="ytick_8">
     <g id="line2d_10">
      <g>
       <use xlink:href="#mcac8594163" x="90" y="48.214252" style="stroke: #000000; stroke-width: 0.8"/>
      </g>
     </g>
     <g id="text_11">
      <!-- 60 -->
      <g transform="translate(70.275 52.013471) scale(0.1 -0.1)">
       <defs>
        <path id="DejaVuSans-36" d="M 2113 2584 
Q 1688 2584 1439 2293 
Q 1191 2003 1191 1497 
Q 1191 994 1439 701 
Q 1688 409 2113 409 
Q 2538 409 2786 701 
Q 3034 994 3034 1497 
Q 3034 2003 2786 2293 
Q 2538 2584 2113 2584 
z
M 3366 4563 
L 3366 3988 
Q 3128 4100 2886 4159 
Q 2644 4219 2406 4219 
Q 1781 4219 1451 3797 
Q 1122 3375 1075 2522 
Q 1259 2794 1537 2939 
Q 1816 3084 2150 3084 
Q 2853 3084 3261 2657 
Q 3669 2231 3669 1497 
Q 3669 778 3244 343 
Q 2819 -91 2113 -91 
Q 1303 -91 875 529 
Q 447 1150 447 2328 
Q 447 3434 972 4092 
Q 1497 4750 2381 4750 
Q 2619 4750 2861 4703 
Q 3103 4656 3366 4563 
z
" transform="scale(0.015625)"/>
       </defs>
       <use xlink:href="#DejaVuSans-36"/>
       <use xlink:href="#DejaVuSans-30" transform="translate(63.623047 0)"/>
      </g>
     </g>
    </g>
    <g id="text_12">
     <!-- cont_variable -->
     <g transform="translate(55.5375 215.409375) rotate(-90) scale(0.1 -0.1)">
      <defs>
       <path id="DejaVuSans-63" d="M 3122 3366 
L 3122 2828 
Q 2878 2963 2633 3030 
Q 2388 3097 2138 3097 
Q 1578 3097 1268 2742 
Q 959 2388 959 1747 
Q 959 1106 1268 751 
Q 1578 397 2138 397 
Q 2388 397 2633 464 
Q 2878 531 3122 666 
L 3122 134 
Q 2881 22 2623 -34 
Q 2366 -91 2075 -91 
Q 1284 -91 818 406 
Q 353 903 353 1747 
Q 353 2603 823 3093 
Q 1294 3584 2113 3584 
Q 2378 3584 2631 3529 
Q 2884 3475 3122 3366 
z
" transform="scale(0.015625)"/>
       <path id="DejaVuSans-6f" d="M 1959 3097 
Q 1497 3097 1228 2736 
Q 959 2375 959 1747 
Q 959 1119 1226 758 
Q 1494 397 1959 397 
Q 2419 397 2687 759 
Q 2956 1122 2956 1747 
Q 2956 2369 2687 2733 
Q 2419 3097 1959 3097 
z
M 1959 3584 
Q 2709 3584 3137 3096 
Q 3566 2609 3566 1747 
Q 3566 888 3137 398 
Q 2709 -91 1959 -91 
Q 1206 -91 779 398 
Q 353 888 353 1747 
Q 353 2609 779 3096 
Q 1206 3584 1959 3584 
z
" transform="scale(0.015625)"/>
       <path id="DejaVuSans-6e" d="M 3513 2113 
L 3513 0 
L 2938 0 
L 2938 2094 
Q 2938 2591 2744 2837 
Q 2550 3084 2163 3084 
Q 1697 3084 1428 2787 
Q 1159 2491 1159 1978 
L 1159 0 
L 581 0 
L 581 3500 
L 1159 3500 
L 1159 2956 
Q 1366 3272 1645 3428 
Q 1925 3584 2291 3584 
Q 2894 3584 3203 3211 
Q 3513 2838 3513 2113 
z
" transform="scale(0.015625)"/>
       <path id="DejaVuSans-74" d="M 1172 4494 
L 1172 3500 
L 2356 3500 
L 2356 3053 
L 1172 3053 
L 1172 1153 
Q 1172 725 1289 603 
Q 1406 481 1766 481 
L 2356 481 
L 2356 0 
L 1766 0 
Q 1100 0 847 248 
Q 594 497 594 1153 
L 594 3053 
L 172 3053 
L 172 3500 
L 594 3500 
L 594 4494 
L 1172 4494 
z
" transform="scale(0.015625)"/>
       <path id="DejaVuSans-5f" d="M 3263 -1063 
L 3263 -1509 
L -63 -1509 
L -63 -1063 
L 3263 -1063 
z
" transform="scale(0.015625)"/>
       <path id="DejaVuSans-72" d="M 2631 2963 
Q 2534 3019 2420 3045 
Q 2306 3072 2169 3072 
Q 1681 3072 1420 2755 
Q 1159 2438 1159 1844 
L 1159 0 
L 581 0 
L 581 3500 
L 1159 3500 
L 1159 2956 
Q 1341 3275 1631 3429 
Q 1922 3584 2338 3584 
Q 2397 3584 2469 3576 
Q 2541 3569 2628 3553 
L 2631 2963 
z
" transform="scale(0.015625)"/>
       <path id="DejaVuSans-69" d="M 603 3500 
L 1178 3500 
L 1178 0 
L 603 0 
L 603 3500 
z
M 603 4863 
L 1178 4863 
L 1178 4134 
L 603 4134 
L 603 4863 
z
" transform="scale(0.015625)"/>
       <path id="DejaVuSans-62" d="M 3116 1747 
Q 3116 2381 2855 2742 
Q 2594 3103 2138 3103 
Q 1681 3103 1420 2742 
Q 1159 2381 1159 1747 
Q 1159 1113 1420 752 
Q 1681 391 2138 391 
Q 2594 391 2855 752 
Q 3116 1113 3116 1747 
z
M 1159 2969 
Q 1341 3281 1617 3432 
Q 1894 3584 2278 3584 
Q 2916 3584 3314 3078 
Q 3713 2572 3713 1747 
Q 3713 922 3314 415 
Q 2916 -91 2278 -91 
Q 1894 -91 1617 61 
Q 1341 213 1159 525 
L 1159 0 
L 581 0 
L 581 4863 
L 1159 4863 
L 1159 2969 
z
" transform="scale(0.015625)"/>
      </defs>
      <use xlink:href="#DejaVuSans-63"/>
      <use xlink:href="#DejaVuSans-6f" transform="translate(54.980469 0)"/>
      <use xlink:href="#DejaVuSans-6e" transform="translate(116.162109 0)"/>
      <use xlink:href="#DejaVuSans-74" transform="translate(179.541016 0)"/>
      <use xlink:href="#DejaVuSans-5f" transform="translate(218.75 0)"/>
      <use xlink:href="#DejaVuSans-76" transform="translate(268.75 0)"/>
      <use xlink:href="#DejaVuSans-61" transform="translate(327.929688 0)"/>
      <use xlink:href="#DejaVuSans-72" transform="translate(389.208984 0)"/>
      <use xlink:href="#DejaVuSans-69" transform="translate(430.322266 0)"/>
      <use xlink:href="#DejaVuSans-61" transform="translate(458.105469 0)"/>
      <use xlink:href="#DejaVuSans-62" transform="translate(519.384766 0)"/>
      <use xlink:href="#DejaVuSans-6c" transform="translate(582.861328 0)"/>
      <use xlink:href="#DejaVuSans-65" transform="translate(610.644531 0)"/>
     </g>
    </g>
   </g>
   <g id="patch_3">
    <path d="M 90 320.4 
L 90 43.2 
" style="fill: none; stroke: #000000; stroke-width: 0.8; stroke-linejoin: miter; stroke-linecap: square"/>
   </g>
   <g id="patch_4">
    <path d="M 648 320.4 
L 648 43.2 
" style="fill: none; stroke: #000000; stroke-width: 0.8; stroke-linejoin: miter; stroke-linecap: square"/>
   </g>
   <g id="patch_5">
    <path d="M 90 320.4 
L 648 320.4 
" style="fill: none; stroke: #000000; stroke-width: 0.8; stroke-linejoin: miter; stroke-linecap: square"/>
   </g>
   <g id="patch_6">
    <path d="M 90 43.2 
L 648 43.2 
" style="fill: none; stroke: #000000; stroke-width: 0.8; stroke-linejoin: miter; stroke-linecap: square"/>
   </g>
   <g id="PathCollection_1">
    <defs>
     <path id="m08ce1fe075" d="M 0 2.5 
C 0.663008 2.5 1.29895 2.236584 1.767767 1.767767 
C 2.236584 1.29895 2.5 0.663008 2.5 0 
C 2.5 -0.663008 2.236584 -1.29895 1.767767 -1.767767 
C 1.29895 -2.236584 0.663008 -2.5 0 -2.5 
C -0.663008 -2.5 -1.29895 -2.236584 -1.767767 -1.767767 
C -2.236584 -1.29895 -2.5 -0.663008 -2.5 0 
C -2.5 0.663008 -2.236584 1.29895 -1.767767 1.767767 
C -1.29895 2.236584 -0.663008 2.5 0 2.5 
z
"/>
    </defs>
    <g clip-path="url(#p2bdffe98c6)">
     <use xlink:href="#m08ce1fe075" x="221.597067" y="219.50109" style="fill-opacity: 0.3"/>
     <use xlink:href="#m08ce1fe075" x="239.181256" y="230.424137" style="fill-opacity: 0.3"/>
     <use xlink:href="#m08ce1fe075" x="235.47522" y="166.286228" style="fill-opacity: 0.3"/>
     <use xlink:href="#m08ce1fe075" x="212.147342" y="125.874286" style="fill-opacity: 0.3"/>
     <use xlink:href="#m08ce1fe075" x="242.882556" y="220.894211" style="fill-opacity: 0.3"/>
     <use xlink:href="#m08ce1fe075" x="230.181498" y="232.251162" style="fill-opacity: 0.3"/>
     <use xlink:href="#m08ce1fe075" x="235.42308" y="185.116658" style="fill-opacity: 0.3"/>
     <use xlink:href="#m08ce1fe075" x="203.81719" y="171.647911" style="fill-opacity: 0.3"/>
     <use xlink:href="#m08ce1fe075" x="219.923918" y="223.272511" style="fill-opacity: 0.3"/>
     <use xlink:href="#m08ce1fe075" x="220.575383" y="223.367588" style="fill-opacity: 0.3"/>
     <use xlink:href="#m08ce1fe075" x="218.731057" y="158.525309" style="fill-opacity: 0.3"/>
     <use xlink:href="#m08ce1fe075" x="224.193317" y="170.950762" style="fill-opacity: 0.3"/>
     <use xlink:href="#m08ce1fe075" x="226.678525" y="211.485171" style="fill-opacity: 0.3"/>
     <use xlink:href="#m08ce1fe075" x="233.166819" y="185.439723" style="fill-opacity: 0.3"/>
     <use xlink:href="#m08ce1fe075" x="207.638492" y="183.612347" style="fill-opacity: 0.3"/>
     <use xlink:href="#m08ce1fe075" x="203.312961" y="175.838328" style="fill-opacity: 0.3"/>
     <use xlink:href="#m08ce1fe075" x="255.439123" y="215.176492" style="fill-opacity: 0.3"/>
     <use xlink:href="#m08ce1fe075" x="202.513458" y="183.145844" style="fill-opacity: 0.3"/>
     <use xlink:href="#m08ce1fe075" x="219.780368" y="252.279144" style="fill-opacity: 0.3"/>
     <use xlink:href="#m08ce1fe075" x="237.455715" y="193.56401" style="fill-opacity: 0.3"/>
     <use xlink:href="#m08ce1fe075" x="232.306876" y="162.779792" style="fill-opacity: 0.3"/>
     <use xlink:href="#m08ce1fe075" x="205.388855" y="159.324038" style="fill-opacity: 0.3"/>
     <use xlink:href="#m08ce1fe075" x="237.666845" y="182.747082" style="fill-opacity: 0.3"/>
     <use xlink:href="#m08ce1fe075" x="234.461346" y="181.956115" style="fill-opacity: 0.3"/>
     <use xlink:href="#m08ce1fe075" x="233.406743" y="200.11815" style="fill-opacity: 0.3"/>
     <use xlink:href="#m08ce1fe075" x="225.600199" y="175.483349" style="fill-opacity: 0.3"/>
     <use xlink:href="#m08ce1fe075" x="211.096116" y="188.432755" style="fill-opacity: 0.3"/>
     <use xlink:href="#m08ce1fe075" x="212.223098" y="213.309733" style="fill-opacity: 0.3"/>
     <use xlink:href="#m08ce1fe075" x="226.534576" y="190.390068" style="fill-opacity: 0.3"/>
     <use xlink:href="#m08ce1fe075" x="234.593164" y="207.755124" style="fill-opacity: 0.3"/>
     <use xlink:href="#m08ce1fe075" x="253.491541" y="174.668066" style="fill-opacity: 0.3"/>
     <use xlink:href="#m08ce1fe075" x="249.997398" y="185.981724" style="fill-opacity: 0.3"/>
     <use xlink:href="#m08ce1fe075" x="244.919901" y="209.423439" style="fill-opacity: 0.3"/>
     <use xlink:href="#m08ce1fe075" x="247.122133" y="170.115378" style="fill-opacity: 0.3"/>
     <use xlink:href="#m08ce1fe075" x="230.836396" y="150.486659" style="fill-opacity: 0.3"/>
     <use xlink:href="#m08ce1fe075" x="245.296243" y="169.017353" style="fill-opacity: 0.3"/>
     <use xlink:href="#m08ce1fe075" x="256.918718" y="160.006384" style="fill-opacity: 0.3"/>
     <use xlink:href="#m08ce1fe075" x="213.671162" y="188.733778" style="fill-opacity: 0.3"/>
     <use xlink:href="#m08ce1fe075" x="238.025207" y="165.247729" style="fill-opacity: 0.3"/>
     <use xlink:href="#m08ce1fe075" x="239.706689" y="185.343747" style="fill-opacity: 0.3"/>
     <use xlink:href="#m08ce1fe075" x="228.535284" y="176.245135" style="fill-opacity: 0.3"/>
     <use xlink:href="#m08ce1fe075" x="242.621185" y="187.360329" style="fill-opacity: 0.3"/>
     <use xlink:href="#m08ce1fe075" x="223.059412" y="220.554346" style="fill-opacity: 0.3"/>
     <use xlink:href="#m08ce1fe075" x="241.087953" y="220.318409" style="fill-opacity: 0.3"/>
     <use xlink:href="#m08ce1fe075" x="228.14192" y="232.42852" style="fill-opacity: 0.3"/>
     <use xlink:href="#m08ce1fe075" x="245.172468" y="209.735638" style="fill-opacity: 0.3"/>
     <use xlink:href="#m08ce1fe075" x="238.462388" y="218.742931" style="fill-opacity: 0.3"/>
     <use xlink:href="#m08ce1fe075" x="225.731387" y="217.007081" style="fill-opacity: 0.3"/>
     <use xlink:href="#m08ce1fe075" x="211.661911" y="156.121248" style="fill-opacity: 0.3"/>
     <use xlink:href="#m08ce1fe075" x="213.688077" y="142.530674" style="fill-opacity: 0.3"/>
     <use xlink:href="#m08ce1fe075" x="236.386816" y="154.288486" style="fill-opacity: 0.3"/>
     <use xlink:href="#m08ce1fe075" x="234.774002" y="151.19366" style="fill-opacity: 0.3"/>
     <use xlink:href="#m08ce1fe075" x="213.611846" y="141.500449" style="fill-opacity: 0.3"/>
     <use xlink:href="#m08ce1fe075" x="256.713317" y="155.206705" style="fill-opacity: 0.3"/>
     <use xlink:href="#m08ce1fe075" x="208.886237" y="148.647847" style="fill-opacity: 0.3"/>
     <use xlink:href="#m08ce1fe075" x="217.867325" y="143.789031" style="fill-opacity: 0.3"/>
     <use xlink:href="#m08ce1fe075" x="245.615132" y="126.348391" style="fill-opacity: 0.3"/>
     <use xlink:href="#m08ce1fe075" x="215.648578" y="125.819781" style="fill-opacity: 0.3"/>
     <use xlink:href="#m08ce1fe075" x="249.559065" y="116.978144" style="fill-opacity: 0.3"/>
     <use xlink:href="#m08ce1fe075" x="209.867294" y="133.714258" style="fill-opacity: 0.3"/>
     <use xlink:href="#m08ce1fe075" x="231.559413" y="118.820516" style="fill-opacity: 0.3"/>
     <use xlink:href="#m08ce1fe075" x="244.039539" y="130.676794" style="fill-opacity: 0.3"/>
     <use xlink:href="#m08ce1fe075" x="219.45393" y="134.687107" style="fill-opacity: 0.3"/>
     <use xlink:href="#m08ce1fe075" x="203.827866" y="106.917696" style="fill-opacity: 0.3"/>
     <use xlink:href="#m08ce1fe075" x="252.364421" y="162.898335" style="fill-opacity: 0.3"/>
     <use xlink:href="#m08ce1fe075" x="243.687721" y="164.31541" style="fill-opacity: 0.3"/>
     <use xlink:href="#m08ce1fe075" x="238.322499" y="152.239438" style="fill-opacity: 0.3"/>
     <use xlink:href="#m08ce1fe075" x="237.050409" y="135.307937" style="fill-opacity: 0.3"/>
     <use xlink:href="#m08ce1fe075" x="253.841319" y="143.815162" style="fill-opacity: 0.3"/>
     <use xlink:href="#m08ce1fe075" x="254.04798" y="135.053348" style="fill-opacity: 0.3"/>
     <use xlink:href="#m08ce1fe075" x="213.61314" y="118.445818" style="fill-opacity: 0.3"/>
     <use xlink:href="#m08ce1fe075" x="250.210638" y="125.705797" style="fill-opacity: 0.3"/>
     <use xlink:href="#m08ce1fe075" x="247.694326" y="205.191519" style="fill-opacity: 0.3"/>
     <use xlink:href="#m08ce1fe075" x="252.541827" y="217.61677" style="fill-opacity: 0.3"/>
     <use xlink:href="#m08ce1fe075" x="236.709624" y="226.946786" style="fill-opacity: 0.3"/>
     <use xlink:href="#m08ce1fe075" x="246.594594" y="241.789556" style="fill-opacity: 0.3"/>
     <use xlink:href="#m08ce1fe075" x="256.531174" y="83.443252" style="fill-opacity: 0.3"/>
     <use xlink:href="#m08ce1fe075" x="255.567418" y="82.209954" style="fill-opacity: 0.3"/>
     <use xlink:href="#m08ce1fe075" x="243.438466" y="83.719678" style="fill-opacity: 0.3"/>
     <use xlink:href="#m08ce1fe075" x="230.242026" y="87.124709" style="fill-opacity: 0.3"/>
     <use xlink:href="#m08ce1fe075" x="219.191586" y="83.416895" style="fill-opacity: 0.3"/>
     <use xlink:href="#m08ce1fe075" x="211.337005" y="83.540206" style="fill-opacity: 0.3"/>
     <use xlink:href="#m08ce1fe075" x="208.493843" y="91.064373" style="fill-opacity: 0.3"/>
     <use xlink:href="#m08ce1fe075" x="221.789848" y="103.68251" style="fill-opacity: 0.3"/>
     <use xlink:href="#m08ce1fe075" x="211.352075" y="83.851263" style="fill-opacity: 0.3"/>
     <use xlink:href="#m08ce1fe075" x="251.733887" y="134.356673" style="fill-opacity: 0.3"/>
     <use xlink:href="#m08ce1fe075" x="236.242763" y="225.447858" style="fill-opacity: 0.3"/>
     <use xlink:href="#m08ce1fe075" x="219.189501" y="227.202347" style="fill-opacity: 0.3"/>
     <use xlink:href="#m08ce1fe075" x="216.727404" y="236.781824" style="fill-opacity: 0.3"/>
     <use xlink:href="#m08ce1fe075" x="228.923734" y="215.514204" style="fill-opacity: 0.3"/>
     <use xlink:href="#m08ce1fe075" x="240.601685" y="217.413071" style="fill-opacity: 0.3"/>
     <use xlink:href="#m08ce1fe075" x="218.88278" y="190.371433" style="fill-opacity: 0.3"/>
     <use xlink:href="#m08ce1fe075" x="213.87124" y="179.398258" style="fill-opacity: 0.3"/>
     <use xlink:href="#m08ce1fe075" x="241.192001" y="165.243376" style="fill-opacity: 0.3"/>
     <use xlink:href="#m08ce1fe075" x="248.713388" y="176.514767" style="fill-opacity: 0.3"/>
     <use xlink:href="#m08ce1fe075" x="231.225665" y="182.027622" style="fill-opacity: 0.3"/>
     <use xlink:href="#m08ce1fe075" x="246.32932" y="171.620967" style="fill-opacity: 0.3"/>
     <use xlink:href="#m08ce1fe075" x="252.782713" y="178.618923" style="fill-opacity: 0.3"/>
     <use xlink:href="#m08ce1fe075" x="215.39491" y="166.171874" style="fill-opacity: 0.3"/>
     <use xlink:href="#m08ce1fe075" x="226.408015" y="175.263352" style="fill-opacity: 0.3"/>
     <use xlink:href="#m08ce1fe075" x="202.692219" y="162.169116" style="fill-opacity: 0.3"/>
     <use xlink:href="#m08ce1fe075" x="221.091532" y="182.584881" style="fill-opacity: 0.3"/>
     <use xlink:href="#m08ce1fe075" x="248.6441" y="158.212555" style="fill-opacity: 0.3"/>
     <use xlink:href="#m08ce1fe075" x="229.697585" y="161.781434" style="fill-opacity: 0.3"/>
     <use xlink:href="#m08ce1fe075" x="253.952592" y="154.094068" style="fill-opacity: 0.3"/>
     <use xlink:href="#m08ce1fe075" x="231.959468" y="160.117869" style="fill-opacity: 0.3"/>
     <use xlink:href="#m08ce1fe075" x="242.279327" y="166.703741" style="fill-opacity: 0.3"/>
     <use xlink:href="#m08ce1fe075" x="237.546566" y="157.329537" style="fill-opacity: 0.3"/>
     <use xlink:href="#m08ce1fe075" x="248.393499" y="158.147856" style="fill-opacity: 0.3"/>
     <use xlink:href="#m08ce1fe075" x="223.376628" y="160.873428" style="fill-opacity: 0.3"/>
     <use xlink:href="#m08ce1fe075" x="242.5913" y="158.360501" style="fill-opacity: 0.3"/>
     <use xlink:href="#m08ce1fe075" x="211.234289" y="173.391677" style="fill-opacity: 0.3"/>
     <use xlink:href="#m08ce1fe075" x="214.302491" y="132.948237" style="fill-opacity: 0.3"/>
     <use xlink:href="#m08ce1fe075" x="206.161925" y="159.612822" style="fill-opacity: 0.3"/>
     <use xlink:href="#m08ce1fe075" x="256.007603" y="144.156065" style="fill-opacity: 0.3"/>
     <use xlink:href="#m08ce1fe075" x="224.070699" y="132.392552" style="fill-opacity: 0.3"/>
     <use xlink:href="#m08ce1fe075" x="214.26611" y="132.597179" style="fill-opacity: 0.3"/>
     <use xlink:href="#m08ce1fe075" x="206.656354" y="97.108107" style="fill-opacity: 0.3"/>
     <use xlink:href="#m08ce1fe075" x="212.117323" y="128.845645" style="fill-opacity: 0.3"/>
     <use xlink:href="#m08ce1fe075" x="222.146054" y="116.729073" style="fill-opacity: 0.3"/>
     <use xlink:href="#m08ce1fe075" x="252.468174" y="107.052573" style="fill-opacity: 0.3"/>
     <use xlink:href="#m08ce1fe075" x="221.558894" y="154.133424" style="fill-opacity: 0.3"/>
     <use xlink:href="#m08ce1fe075" x="253.750954" y="154.70929" style="fill-opacity: 0.3"/>
     <use xlink:href="#m08ce1fe075" x="239.302436" y="157.278141" style="fill-opacity: 0.3"/>
     <use xlink:href="#m08ce1fe075" x="224.914494" y="146.936597" style="fill-opacity: 0.3"/>
     <use xlink:href="#m08ce1fe075" x="250.530871" y="140.025367" style="fill-opacity: 0.3"/>
     <use xlink:href="#m08ce1fe075" x="202.061284" y="151.868374" style="fill-opacity: 0.3"/>
     <use xlink:href="#m08ce1fe075" x="215.438717" y="142.295582" style="fill-opacity: 0.3"/>
     <use xlink:href="#m08ce1fe075" x="249.943804" y="143.136465" style="fill-opacity: 0.3"/>
     <use xlink:href="#m08ce1fe075" x="219.946612" y="141.249342" style="fill-opacity: 0.3"/>
     <use xlink:href="#m08ce1fe075" x="235.086952" y="124.665405" style="fill-opacity: 0.3"/>
     <use xlink:href="#m08ce1fe075" x="234.180805" y="150.079157" style="fill-opacity: 0.3"/>
     <use xlink:href="#m08ce1fe075" x="236.512936" y="164.98021" style="fill-opacity: 0.3"/>
     <use xlink:href="#m08ce1fe075" x="239.736953" y="158.067947" style="fill-opacity: 0.3"/>
     <use xlink:href="#m08ce1fe075" x="241.965967" y="192.931113" style="fill-opacity: 0.3"/>
     <use xlink:href="#m08ce1fe075" x="249.218085" y="239.7624" style="fill-opacity: 0.3"/>
     <use xlink:href="#m08ce1fe075" x="218.718752" y="281.390046" style="fill-opacity: 0.3"/>
     <use xlink:href="#m08ce1fe075" x="219.967276" y="199.345868" style="fill-opacity: 0.3"/>
     <use xlink:href="#m08ce1fe075" x="247.012757" y="189.677992" style="fill-opacity: 0.3"/>
     <use xlink:href="#m08ce1fe075" x="221.184413" y="114.21979" style="fill-opacity: 0.3"/>
     <use xlink:href="#m08ce1fe075" x="241.957598" y="132.383019" style="fill-opacity: 0.3"/>
     <use xlink:href="#m08ce1fe075" x="241.843581" y="101.381625" style="fill-opacity: 0.3"/>
     <use xlink:href="#m08ce1fe075" x="225.704658" y="172.494005" style="fill-opacity: 0.3"/>
     <use xlink:href="#m08ce1fe075" x="226.097643" y="155.633976" style="fill-opacity: 0.3"/>
     <use xlink:href="#m08ce1fe075" x="214.447457" y="166.757802" style="fill-opacity: 0.3"/>
     <use xlink:href="#m08ce1fe075" x="215.786144" y="144.536856" style="fill-opacity: 0.3"/>
     <use xlink:href="#m08ce1fe075" x="235.881674" y="138.425669" style="fill-opacity: 0.3"/>
     <use xlink:href="#m08ce1fe075" x="228.685634" y="139.188663" style="fill-opacity: 0.3"/>
     <use xlink:href="#m08ce1fe075" x="222.835101" y="147.999735" style="fill-opacity: 0.3"/>
     <use xlink:href="#m08ce1fe075" x="254.883466" y="130.41179" style="fill-opacity: 0.3"/>
     <use xlink:href="#m08ce1fe075" x="224.221617" y="85.313504" style="fill-opacity: 0.3"/>
     <use xlink:href="#m08ce1fe075" x="208.779467" y="112.420062" style="fill-opacity: 0.3"/>
     <use xlink:href="#m08ce1fe075" x="221.888073" y="123.140424" style="fill-opacity: 0.3"/>
     <use xlink:href="#m08ce1fe075" x="247.867448" y="251.762714" style="fill-opacity: 0.3"/>
     <use xlink:href="#m08ce1fe075" x="222.345081" y="127.525034" style="fill-opacity: 0.3"/>
     <use xlink:href="#m08ce1fe075" x="232.45281" y="129.293226" style="fill-opacity: 0.3"/>
     <use xlink:href="#m08ce1fe075" x="211.090348" y="137.495348" style="fill-opacity: 0.3"/>
     <use xlink:href="#m08ce1fe075" x="257.045342" y="136.600236" style="fill-opacity: 0.3"/>
     <use xlink:href="#m08ce1fe075" x="218.55975" y="170.849249" style="fill-opacity: 0.3"/>
     <use xlink:href="#m08ce1fe075" x="217.031142" y="159.632514" style="fill-opacity: 0.3"/>
     <use xlink:href="#m08ce1fe075" x="224.940284" y="124.212617" style="fill-opacity: 0.3"/>
     <use xlink:href="#m08ce1fe075" x="243.370368" y="150.83816" style="fill-opacity: 0.3"/>
     <use xlink:href="#m08ce1fe075" x="249.977332" y="145.043085" style="fill-opacity: 0.3"/>
     <use xlink:href="#m08ce1fe075" x="213.441727" y="139.253388" style="fill-opacity: 0.3"/>
     <use xlink:href="#m08ce1fe075" x="213.10914" y="130.32396" style="fill-opacity: 0.3"/>
     <use xlink:href="#m08ce1fe075" x="203.922708" y="166.583729" style="fill-opacity: 0.3"/>
     <use xlink:href="#m08ce1fe075" x="241.486242" y="140.448492" style="fill-opacity: 0.3"/>
     <use xlink:href="#m08ce1fe075" x="253.667446" y="164.856852" style="fill-opacity: 0.3"/>
     <use xlink:href="#m08ce1fe075" x="219.8151" y="128.274151" style="fill-opacity: 0.3"/>
     <use xlink:href="#m08ce1fe075" x="257.295912" y="123.339101" style="fill-opacity: 0.3"/>
     <use xlink:href="#m08ce1fe075" x="206.799316" y="128.963546" style="fill-opacity: 0.3"/>
     <use xlink:href="#m08ce1fe075" x="224.96742" y="171.543996" style="fill-opacity: 0.3"/>
     <use xlink:href="#m08ce1fe075" x="206.415749" y="169.940384" style="fill-opacity: 0.3"/>
     <use xlink:href="#m08ce1fe075" x="217.273677" y="168.592161" style="fill-opacity: 0.3"/>
     <use xlink:href="#m08ce1fe075" x="223.019806" y="171.049325" style="fill-opacity: 0.3"/>
     <use xlink:href="#m08ce1fe075" x="246.232319" y="146.454179" style="fill-opacity: 0.3"/>
     <use xlink:href="#m08ce1fe075" x="237.777009" y="164.791757" style="fill-opacity: 0.3"/>
     <use xlink:href="#m08ce1fe075" x="243.897928" y="163.614138" style="fill-opacity: 0.3"/>
     <use xlink:href="#m08ce1fe075" x="222.01732" y="97.687588" style="fill-opacity: 0.3"/>
     <use xlink:href="#m08ce1fe075" x="232.331549" y="177.020211" style="fill-opacity: 0.3"/>
     <use xlink:href="#m08ce1fe075" x="252.412819" y="180.165041" style="fill-opacity: 0.3"/>
     <use xlink:href="#m08ce1fe075" x="201.889505" y="182.571548" style="fill-opacity: 0.3"/>
     <use xlink:href="#m08ce1fe075" x="229.469438" y="203.615939" style="fill-opacity: 0.3"/>
     <use xlink:href="#m08ce1fe075" x="205.412397" y="191.070428" style="fill-opacity: 0.3"/>
     <use xlink:href="#m08ce1fe075" x="225.857585" y="147.116776" style="fill-opacity: 0.3"/>
     <use xlink:href="#m08ce1fe075" x="210.361141" y="149.047704" style="fill-opacity: 0.3"/>
     <use xlink:href="#m08ce1fe075" x="231.63042" y="124.769623" style="fill-opacity: 0.3"/>
     <use xlink:href="#m08ce1fe075" x="227.380097" y="135.747194" style="fill-opacity: 0.3"/>
     <use xlink:href="#m08ce1fe075" x="228.404758" y="193.751219" style="fill-opacity: 0.3"/>
     <use xlink:href="#m08ce1fe075" x="202.09186" y="182.188036" style="fill-opacity: 0.3"/>
     <use xlink:href="#m08ce1fe075" x="212.356732" y="182.360916" style="fill-opacity: 0.3"/>
     <use xlink:href="#m08ce1fe075" x="210.843038" y="147.255111" style="fill-opacity: 0.3"/>
     <use xlink:href="#m08ce1fe075" x="248.111793" y="161.103503" style="fill-opacity: 0.3"/>
     <use xlink:href="#m08ce1fe075" x="211.321767" y="181.567858" style="fill-opacity: 0.3"/>
     <use xlink:href="#m08ce1fe075" x="225.795414" y="199.196434" style="fill-opacity: 0.3"/>
    </g>
   </g>
   <g id="PathCollection_2">
    <g clip-path="url(#p2bdffe98c6)">
     <use xlink:href="#m08ce1fe075" x="523.328294" y="210.51052" style="fill-opacity: 0.3"/>
     <use xlink:href="#m08ce1fe075" x="481.518512" y="259.277127" style="fill-opacity: 0.3"/>
     <use xlink:href="#m08ce1fe075" x="533.661515" y="227.272173" style="fill-opacity: 0.3"/>
     <use xlink:href="#m08ce1fe075" x="500.236001" y="207.241026" style="fill-opacity: 0.3"/>
     <use xlink:href="#m08ce1fe075" x="513.410986" y="209.312377" style="fill-opacity: 0.3"/>
     <use xlink:href="#m08ce1fe075" x="483.160351" y="219.447005" style="fill-opacity: 0.3"/>
     <use xlink:href="#m08ce1fe075" x="521.578796" y="220.006553" style="fill-opacity: 0.3"/>
     <use xlink:href="#m08ce1fe075" x="534.28514" y="235.425291" style="fill-opacity: 0.3"/>
     <use xlink:href="#m08ce1fe075" x="532.844981" y="212.083015" style="fill-opacity: 0.3"/>
     <use xlink:href="#m08ce1fe075" x="497.254179" y="256.67838" style="fill-opacity: 0.3"/>
     <use xlink:href="#m08ce1fe075" x="525.677717" y="246.876951" style="fill-opacity: 0.3"/>
     <use xlink:href="#m08ce1fe075" x="507.62706" y="235.502702" style="fill-opacity: 0.3"/>
     <use xlink:href="#m08ce1fe075" x="495.991033" y="238.631633" style="fill-opacity: 0.3"/>
     <use xlink:href="#m08ce1fe075" x="530.661103" y="237.738515" style="fill-opacity: 0.3"/>
     <use xlink:href="#m08ce1fe075" x="510.979322" y="237.865495" style="fill-opacity: 0.3"/>
     <use xlink:href="#m08ce1fe075" x="520.816199" y="234.397697" style="fill-opacity: 0.3"/>
     <use xlink:href="#m08ce1fe075" x="521.152095" y="243.631117" style="fill-opacity: 0.3"/>
     <use xlink:href="#m08ce1fe075" x="511.293795" y="234.786238" style="fill-opacity: 0.3"/>
     <use xlink:href="#m08ce1fe075" x="501.956217" y="238.070787" style="fill-opacity: 0.3"/>
     <use xlink:href="#m08ce1fe075" x="502.847001" y="206.062594" style="fill-opacity: 0.3"/>
     <use xlink:href="#m08ce1fe075" x="522.866399" y="219.882951" style="fill-opacity: 0.3"/>
     <use xlink:href="#m08ce1fe075" x="483.263934" y="231.947707" style="fill-opacity: 0.3"/>
     <use xlink:href="#m08ce1fe075" x="519.587872" y="185.01516" style="fill-opacity: 0.3"/>
     <use xlink:href="#m08ce1fe075" x="511.155922" y="196.534662" style="fill-opacity: 0.3"/>
     <use xlink:href="#m08ce1fe075" x="526.169058" y="216.949211" style="fill-opacity: 0.3"/>
     <use xlink:href="#m08ce1fe075" x="481.594533" y="192.390098" style="fill-opacity: 0.3"/>
     <use xlink:href="#m08ce1fe075" x="533.122092" y="196.700948" style="fill-opacity: 0.3"/>
     <use xlink:href="#m08ce1fe075" x="489.268935" y="209.963816" style="fill-opacity: 0.3"/>
     <use xlink:href="#m08ce1fe075" x="505.878077" y="192.965036" style="fill-opacity: 0.3"/>
     <use xlink:href="#m08ce1fe075" x="482.053044" y="197.726416" style="fill-opacity: 0.3"/>
     <use xlink:href="#m08ce1fe075" x="504.99459" y="200.648676" style="fill-opacity: 0.3"/>
     <use xlink:href="#m08ce1fe075" x="531.425171" y="187.585095" style="fill-opacity: 0.3"/>
     <use xlink:href="#m08ce1fe075" x="489.65098" y="182.532401" style="fill-opacity: 0.3"/>
     <use xlink:href="#m08ce1fe075" x="521.946487" y="185.021638" style="fill-opacity: 0.3"/>
     <use xlink:href="#m08ce1fe075" x="516.873426" y="215.079976" style="fill-opacity: 0.3"/>
     <use xlink:href="#m08ce1fe075" x="494.364597" y="205.263458" style="fill-opacity: 0.3"/>
     <use xlink:href="#m08ce1fe075" x="523.952802" y="220.422788" style="fill-opacity: 0.3"/>
     <use xlink:href="#m08ce1fe075" x="483.935789" y="199.088485" style="fill-opacity: 0.3"/>
     <use xlink:href="#m08ce1fe075" x="499.982821" y="204.678509" style="fill-opacity: 0.3"/>
     <use xlink:href="#m08ce1fe075" x="503.238154" y="208.359753" style="fill-opacity: 0.3"/>
     <use xlink:href="#m08ce1fe075" x="522.531102" y="194.887874" style="fill-opacity: 0.3"/>
     <use xlink:href="#m08ce1fe075" x="488.607642" y="187.077238" style="fill-opacity: 0.3"/>
    </g>
   </g>
  </g>
 </g>
 <defs>
  <clipPath id="p2bdffe98c6">
   <rect x="90" y="43.2" width="558" height="277.2"/>
  </clipPath>
 </defs>
</svg>
