<?xml version="1.0" encoding="utf-8" standalone="no"?>
<!DOCTYPE svg PUBLIC "-//W3C//DTD SVG 1.1//EN"
  "http://www.w3.org/Graphics/SVG/1.1/DTD/svg11.dtd">
<svg xmlns:xlink="http://www.w3.org/1999/xlink" width="720pt" height="360pt" viewBox="0 0 720 360" xmlns="http://www.w3.org/2000/svg" version="1.1">
 <metadata>
  <rdf:RDF xmlns:dc="http://purl.org/dc/elements/1.1/" xmlns:cc="http://creativecommons.org/ns#" xmlns:rdf="http://www.w3.org/1999/02/22-rdf-syntax-ns#">
   <cc:Work>
    <dc:type rdf:resource="http://purl.org/dc/dcmitype/StillImage"/>
    <dc:date>2025-09-09T16:54:24.963194</dc:date>
    <dc:format>image/svg+xml</dc:format>
    <dc:creator>
     <cc:Agent>
      <dc:title>Matplotlib v3.10.3, https://matplotlib.org/</dc:title>
     </cc:Agent>
    </dc:creator>
   </cc:Work>
  </rdf:RDF>
 </metadata>
 <defs>
  <style type="text/css">*{stroke-linejoin: round; stroke-linecap: butt}</style>
 </defs>
 <g id="figure_1">
  <g id="patch_1">
   <path d="M 0 360 
L 720 360 
L 720 0 
L 0 0 
z
" style="fill: #ffffff"/>
  </g>
  <g id="axes_1">
   <g id="patch_2">
    <path d="M 90 320.4 
L 648 320.4 
L 648 43.2 
L 90 43.2 
z
" style="fill: #ffffff"/>
   </g>
   <g id="FillBetweenPolyCollection_1">
    <defs>
     <path id="m8a097715d3" d="M 146.195146 -46.362871 
L 145.404854 -46.362871 
L 145.29013 -46.533032 
L 145.153427 -46.703193 
L 144.99419 -46.873354 
L 144.81303 -47.043515 
L 144.611957 -47.213676 
L 144.394544 -47.383837 
L 144.165975 -47.553998 
L 143.932946 -47.724159 
L 143.703418 -47.89432 
L 143.486213 -48.064481 
L 143.290475 -48.234642 
L 143.125045 -48.404803 
L 142.997807 -48.574964 
L 142.915061 -48.745125 
L 142.881013 -48.915286 
L 142.897413 -49.085447 
L 142.963409 -49.255608 
L 143.075617 -49.425769 
L 143.228401 -49.59593 
L 143.414336 -49.766091 
L 143.62479 -49.936252 
L 143.850562 -50.106413 
L 144.082502 -50.276574 
L 144.312048 -50.446735 
L 144.531628 -50.616896 
L 144.734888 -50.787057 
L 144.91673 -50.957218 
L 145.073163 -51.127379 
L 145.200975 -51.29754 
L 145.297269 -51.467701 
L 145.358882 -51.637862 
L 145.381735 -51.808023 
L 145.360164 -51.978184 
L 145.286287 -52.148345 
L 145.149452 -52.318506 
L 144.935873 -52.488667 
L 144.628499 -52.658828 
L 144.207236 -52.828989 
L 143.649587 -52.99915 
L 142.931799 -53.169311 
L 142.030523 -53.339472 
L 140.924997 -53.509633 
L 139.599635 -53.679794 
L 138.046858 -53.849955 
L 136.269898 -54.020116 
L 134.285254 -54.190277 
L 132.124426 -54.360438 
L 129.834575 -54.530599 
L 127.477807 -54.70076 
L 125.128927 -54.870921 
L 122.871638 -55.041082 
L 120.793394 -55.211243 
L 118.9793 -55.381404 
L 117.505598 -55.551565 
L 116.433415 -55.721726 
L 115.803428 -55.891887 
L 115.632026 -56.062048 
L 115.909414 -56.232209 
L 116.599817 -56.40237 
L 117.643731 -56.572531 
L 118.961908 -56.742692 
L 120.460571 -56.912853 
L 122.03728 -57.083014 
L 123.586839 -57.253175 
L 125.006765 -57.423336 
L 126.201974 -57.593497 
L 127.088566 -57.763658 
L 127.596736 -57.933819 
L 127.673028 -58.10398 
L 127.282153 -58.274141 
L 126.408592 -58.444302 
L 125.058081 -58.614463 
L 123.258922 -58.784624 
L 121.062872 -58.954785 
L 118.545241 -59.124946 
L 115.803762 -59.295107 
L 112.955833 -59.465268 
L 110.133884 -59.635429 
L 107.478859 -59.805591 
L 105.132099 -59.975752 
L 103.22622 -60.145913 
L 101.875797 -60.316074 
L 101.16884 -60.486235 
L 101.16 -60.656396 
L 101.866338 -60.826557 
L 103.266178 -60.996718 
L 105.301218 -61.166879 
L 107.881676 -61.33704 
L 110.893874 -61.507201 
L 114.209407 -61.677362 
L 117.69489 -61.847523 
L 121.221286 -62.017684 
L 124.671925 -62.187845 
L 127.948592 -62.358006 
L 130.975334 -62.528167 
L 133.699927 -62.698328 
L 136.093237 -62.868489 
L 138.14688 -63.03865 
L 139.869712 -63.208811 
L 151.730288 -63.208811 
L 151.730288 -63.208811 
L 153.45312 -63.03865 
L 155.506763 -62.868489 
L 157.900073 -62.698328 
L 160.624666 -62.528167 
L 163.651408 -62.358006 
L 166.928075 -62.187845 
L 170.378714 -62.017684 
L 173.90511 -61.847523 
L 177.390593 -61.677362 
L 180.706126 -61.507201 
L 183.718324 -61.33704 
L 186.298782 -61.166879 
L 188.333822 -60.996718 
L 189.733662 -60.826557 
L 190.44 -60.656396 
L 190.43116 -60.486235 
L 189.724203 -60.316074 
L 188.37378 -60.145913 
L 186.467901 -59.975752 
L 184.121141 -59.805591 
L 181.466116 -59.635429 
L 178.644167 -59.465268 
L 175.796238 -59.295107 
L 173.054759 -59.124946 
L 170.537128 -58.954785 
L 168.341078 -58.784624 
L 166.541919 -58.614463 
L 165.191408 -58.444302 
L 164.317847 -58.274141 
L 163.926972 -58.10398 
L 164.003264 -57.933819 
L 164.511434 -57.763658 
L 165.398026 -57.593497 
L 166.593235 -57.423336 
L 168.013161 -57.253175 
L 169.56272 -57.083014 
L 171.139429 -56.912853 
L 172.638092 -56.742692 
L 173.956269 -56.572531 
L 175.000183 -56.40237 
L 175.690586 -56.232209 
L 175.967974 -56.062048 
L 175.796572 -55.891887 
L 175.166585 -55.721726 
L 174.094402 -55.551565 
L 172.6207 -55.381404 
L 170.806606 -55.211243 
L 168.728362 -55.041082 
L 166.471073 -54.870921 
L 164.122193 -54.70076 
L 161.765425 -54.530599 
L 159.475574 -54.360438 
L 157.314746 -54.190277 
L 155.330102 -54.020116 
L 153.553142 -53.849955 
L 152.000365 -53.679794 
L 150.675003 -53.509633 
L 149.569477 -53.339472 
L 148.668201 -53.169311 
L 147.950413 -52.99915 
L 147.392764 -52.828989 
L 146.971501 -52.658828 
L 146.664127 -52.488667 
L 146.450548 -52.318506 
L 146.313713 -52.148345 
L 146.239836 -51.978184 
L 146.218265 -51.808023 
L 146.241118 -51.637862 
L 146.302731 -51.467701 
L 146.399025 -51.29754 
L 146.526837 -51.127379 
L 146.68327 -50.957218 
L 146.865112 -50.787057 
L 147.068372 -50.616896 
L 147.287952 -50.446735 
L 147.517498 -50.276574 
L 147.749438 -50.106413 
L 147.97521 -49.936252 
L 148.185664 -49.766091 
L 148.371599 -49.59593 
L 148.524383 -49.425769 
L 148.636591 -49.255608 
L 148.702587 -49.085447 
L 148.718987 -48.915286 
L 148.684939 -48.745125 
L 148.602193 -48.574964 
L 148.474955 -48.404803 
L 148.309525 -48.234642 
L 148.113787 -48.064481 
L 147.896582 -47.89432 
L 147.667054 -47.724159 
L 147.434025 -47.553998 
L 147.205456 -47.383837 
L 146.988043 -47.213676 
L 146.78697 -47.043515 
L 146.60581 -46.873354 
L 146.446573 -46.703193 
L 146.30987 -46.533032 
L 146.195146 -46.362871 
z
" style="stroke: #3d3d3d; stroke-width: 1.25"/>
    </defs>
    <g clip-path="url(#p0dafca4983)">
     <use xlink:href="#m8a097715d3" x="0" y="360" style="fill: #3274a1; stroke: #3d3d3d; stroke-width: 1.25"/>
    </g>
   </g>
   <g id="FillBetweenPolyCollection_2">
    <defs>
     <path id="m3d6f633718" d="M 257.87599 -46.550004 
L 256.92401 -46.550004 
L 256.777583 -46.716385 
L 256.601671 -46.882765 
L 256.395615 -47.049146 
L 256.160532 -47.215526 
L 255.899667 -47.381907 
L 255.618617 -47.548288 
L 255.325354 -47.714668 
L 255.030003 -47.881049 
L 254.744363 -48.047429 
L 254.481183 -48.21381 
L 254.253251 -48.38019 
L 254.072374 -48.546571 
L 253.948371 -48.712951 
L 253.888191 -48.879332 
L 253.895268 -49.045712 
L 253.969195 -49.212093 
L 254.105765 -49.378473 
L 254.297364 -49.544854 
L 254.533675 -49.711234 
L 254.802594 -49.877615 
L 255.091246 -50.043996 
L 255.386989 -50.210376 
L 255.67828 -50.376757 
L 255.95534 -50.543137 
L 256.21056 -50.709518 
L 256.438633 -50.875898 
L 256.636437 -51.042279 
L 256.802702 -51.208659 
L 256.937529 -51.37504 
L 257.041801 -51.54142 
L 257.116542 -51.707801 
L 257.16227 -51.874181 
L 257.178362 -52.040562 
L 257.162467 -52.206942 
L 257.109983 -52.373323 
L 257.013629 -52.539704 
L 256.86317 -52.706084 
L 256.645337 -52.872465 
L 256.34404 -53.038845 
L 255.940943 -53.205226 
L 255.416465 -53.371606 
L 254.751266 -53.537987 
L 253.928188 -53.704367 
L 252.934562 -53.870748 
L 251.764708 -54.037128 
L 250.422354 -54.203509 
L 248.92265 -54.369889 
L 247.293399 -54.53627 
L 245.575174 -54.70265 
L 243.820078 -54.869031 
L 242.089031 -55.035412 
L 240.447705 -55.201792 
L 238.961423 -55.368173 
L 237.689528 -55.534553 
L 236.679895 -55.700934 
L 235.964259 -55.867314 
L 235.555007 -56.033695 
L 235.443867 -56.200075 
L 235.60268 -56.366456 
L 235.986116 -56.532836 
L 236.53592 -56.699217 
L 237.186027 -56.865597 
L 237.86779 -57.031978 
L 238.514585 -57.198358 
L 239.065236 -57.364739 
L 239.465956 -57.53112 
L 239.670864 -57.6975 
L 239.641415 -57.863881 
L 239.345337 -58.030261 
L 238.755803 -58.196642 
L 237.85146 -58.363022 
L 236.617795 -58.529403 
L 235.049934 -58.695783 
L 233.156617 -58.862164 
L 230.964701 -59.028544 
L 228.523239 -59.194925 
L 225.906113 -59.361305 
L 223.212233 -59.527686 
L 220.562633 -59.694066 
L 218.094229 -59.860447 
L 215.950583 -60.026827 
L 214.270514 -60.193208 
L 213.175869 -60.359589 
L 212.76 -60.525969 
L 213.078456 -60.69235 
L 214.143187 -60.85873 
L 215.921044 -61.025111 
L 218.336768 -61.191491 
L 221.280053 -61.357872 
L 224.615713 -61.524252 
L 228.195604 -61.690633 
L 231.870848 -61.857013 
L 235.502944 -62.023394 
L 238.97268 -62.189774 
L 242.18613 -62.356155 
L 245.07751 -62.522535 
L 247.609086 -62.688916 
L 249.768631 -62.855297 
L 251.565183 -63.021677 
L 263.234817 -63.021677 
L 263.234817 -63.021677 
L 265.031369 -62.855297 
L 267.190914 -62.688916 
L 269.72249 -62.522535 
L 272.61387 -62.356155 
L 275.82732 -62.189774 
L 279.297056 -62.023394 
L 282.929152 -61.857013 
L 286.604396 -61.690633 
L 290.184287 -61.524252 
L 293.519947 -61.357872 
L 296.463232 -61.191491 
L 298.878956 -61.025111 
L 300.656813 -60.85873 
L 301.721544 -60.69235 
L 302.04 -60.525969 
L 301.624131 -60.359589 
L 300.529486 -60.193208 
L 298.849417 -60.026827 
L 296.705771 -59.860447 
L 294.237367 -59.694066 
L 291.587767 -59.527686 
L 288.893887 -59.361305 
L 286.276761 -59.194925 
L 283.835299 -59.028544 
L 281.643383 -58.862164 
L 279.750066 -58.695783 
L 278.182205 -58.529403 
L 276.94854 -58.363022 
L 276.044197 -58.196642 
L 275.454663 -58.030261 
L 275.158585 -57.863881 
L 275.129136 -57.6975 
L 275.334044 -57.53112 
L 275.734764 -57.364739 
L 276.285415 -57.198358 
L 276.93221 -57.031978 
L 277.613973 -56.865597 
L 278.26408 -56.699217 
L 278.813884 -56.532836 
L 279.19732 -56.366456 
L 279.356133 -56.200075 
L 279.244993 -56.033695 
L 278.835741 -55.867314 
L 278.120105 -55.700934 
L 277.110472 -55.534553 
L 275.838577 -55.368173 
L 274.352295 -55.201792 
L 272.710969 -55.035412 
L 270.979922 -54.869031 
L 269.224826 -54.70265 
L 267.506601 -54.53627 
L 265.87735 -54.369889 
L 264.377646 -54.203509 
L 263.035292 -54.037128 
L 261.865438 -53.870748 
L 260.871812 -53.704367 
L 260.048734 -53.537987 
L 259.383535 -53.371606 
L 258.859057 -53.205226 
L 258.45596 -53.038845 
L 258.154663 -52.872465 
L 257.93683 -52.706084 
L 257.786371 -52.539704 
L 257.690017 -52.373323 
L 257.637533 -52.206942 
L 257.621638 -52.040562 
L 257.63773 -51.874181 
L 257.683458 -51.707801 
L 257.758199 -51.54142 
L 257.862471 -51.37504 
L 257.997298 -51.208659 
L 258.163563 -51.042279 
L 258.361367 -50.875898 
L 258.58944 -50.709518 
L 258.84466 -50.543137 
L 259.12172 -50.376757 
L 259.413011 -50.210376 
L 259.708754 -50.043996 
L 259.997406 -49.877615 
L 260.266325 -49.711234 
L 260.502636 -49.544854 
L 260.694235 -49.378473 
L 260.830805 -49.212093 
L 260.904732 -49.045712 
L 260.911809 -48.879332 
L 260.851629 -48.712951 
L 260.727626 -48.546571 
L 260.546749 -48.38019 
L 260.318817 -48.21381 
L 260.055637 -48.047429 
L 259.769997 -47.881049 
L 259.474646 -47.714668 
L 259.181383 -47.548288 
L 258.900333 -47.381907 
L 258.639468 -47.215526 
L 258.404385 -47.049146 
L 258.198329 -46.882765 
L 258.022417 -46.716385 
L 257.87599 -46.550004 
z
" style="stroke: #3d3d3d; stroke-width: 1.25"/>
    </defs>
    <g clip-path="url(#p0dafca4983)">
     <use xlink:href="#m3d6f633718" x="0" y="360" style="fill: #e1812c; stroke: #3d3d3d; stroke-width: 1.25"/>
    </g>
   </g>
   <g id="FillBetweenPolyCollection_3">
    <defs>
     <path id="m7549b1da12" d="M 370.071179 -45.304905 
L 367.928821 -45.304905 
L 367.685197 -45.496439 
L 367.403937 -45.687973 
L 367.083846 -45.879507 
L 366.724895 -46.071041 
L 366.32845 -46.262575 
L 365.897468 -46.454109 
L 365.436637 -46.645643 
L 364.952424 -46.837177 
L 364.453038 -47.028711 
L 363.948281 -47.220245 
L 363.449281 -47.411779 
L 362.968129 -47.603313 
L 362.517409 -47.794847 
L 362.109662 -47.986382 
L 361.756807 -48.177916 
L 361.469554 -48.36945 
L 361.256852 -48.560984 
L 361.125402 -48.752518 
L 361.079275 -48.944052 
L 361.119667 -49.135586 
L 361.244792 -49.32712 
L 361.449932 -49.518654 
L 361.727638 -49.710188 
L 362.068053 -49.901722 
L 362.459347 -50.093256 
L 362.88821 -50.28479 
L 363.340393 -50.476324 
L 363.801233 -50.667858 
L 364.256153 -50.859392 
L 364.691092 -51.050926 
L 365.09287 -51.242461 
L 365.449458 -51.433995 
L 365.750164 -51.625529 
L 365.985748 -51.817063 
L 366.148478 -52.008597 
L 366.232137 -52.200131 
L 366.232017 -52.391665 
L 366.14489 -52.583199 
L 365.968999 -52.774733 
L 365.704043 -52.966267 
L 365.351177 -53.157801 
L 364.913001 -53.349335 
L 364.393536 -53.540869 
L 363.798165 -53.732403 
L 363.133515 -53.923937 
L 362.40728 -54.115471 
L 361.627948 -54.307006 
L 360.804463 -54.49854 
L 359.945791 -54.690074 
L 359.060439 -54.881608 
L 358.155925 -55.073142 
L 357.238251 -55.264676 
L 356.31141 -55.45621 
L 355.376975 -55.647744 
L 354.433802 -55.839278 
L 353.477904 -56.030812 
L 352.502514 -56.222346 
L 351.498356 -56.41388 
L 350.454157 -56.605414 
L 349.357367 -56.796948 
L 348.195087 -56.988482 
L 346.955168 -57.180016 
L 345.627426 -57.371551 
L 344.204906 -57.563085 
L 342.685135 -57.754619 
L 341.071256 -57.946153 
L 339.372977 -58.137687 
L 337.607227 -58.329221 
L 335.798445 -58.520755 
L 333.978445 -58.712289 
L 332.185799 -58.903823 
L 330.464727 -59.095357 
L 328.863529 -59.286891 
L 327.432598 -59.478425 
L 326.222118 -59.669959 
L 325.279589 -59.861493 
L 324.647308 -60.053027 
L 324.36 -60.244561 
L 324.442749 -60.436096 
L 324.909396 -60.62763 
L 325.761526 -60.819164 
L 326.988114 -61.010698 
L 328.565887 -61.202232 
L 330.460358 -61.393766 
L 332.627476 -61.5853 
L 335.015756 -61.776834 
L 337.568755 -61.968368 
L 340.227703 -62.159902 
L 342.934119 -62.351436 
L 345.632245 -62.54297 
L 348.271156 -62.734504 
L 350.80643 -62.926038 
L 353.201332 -63.117572 
L 355.427466 -63.309106 
L 357.464923 -63.500641 
L 359.301991 -63.692175 
L 360.934468 -63.883709 
L 362.364721 -64.075243 
L 363.60054 -64.266777 
L 374.39946 -64.266777 
L 374.39946 -64.266777 
L 375.635279 -64.075243 
L 377.065532 -63.883709 
L 378.698009 -63.692175 
L 380.535077 -63.500641 
L 382.572534 -63.309106 
L 384.798668 -63.117572 
L 387.19357 -62.926038 
L 389.728844 -62.734504 
L 392.367755 -62.54297 
L 395.065881 -62.351436 
L 397.772297 -62.159902 
L 400.431245 -61.968368 
L 402.984244 -61.776834 
L 405.372524 -61.5853 
L 407.539642 -61.393766 
L 409.434113 -61.202232 
L 411.011886 -61.010698 
L 412.238474 -60.819164 
L 413.090604 -60.62763 
L 413.557251 -60.436096 
L 413.64 -60.244561 
L 413.352692 -60.053027 
L 412.720411 -59.861493 
L 411.777882 -59.669959 
L 410.567402 -59.478425 
L 409.136471 -59.286891 
L 407.535273 -59.095357 
L 405.814201 -58.903823 
L 404.021555 -58.712289 
L 402.201555 -58.520755 
L 400.392773 -58.329221 
L 398.627023 -58.137687 
L 396.928744 -57.946153 
L 395.314865 -57.754619 
L 393.795094 -57.563085 
L 392.372574 -57.371551 
L 391.044832 -57.180016 
L 389.804913 -56.988482 
L 388.642633 -56.796948 
L 387.545843 -56.605414 
L 386.501644 -56.41388 
L 385.497486 -56.222346 
L 384.522096 -56.030812 
L 383.566198 -55.839278 
L 382.623025 -55.647744 
L 381.68859 -55.45621 
L 380.761749 -55.264676 
L 379.844075 -55.073142 
L 378.939561 -54.881608 
L 378.054209 -54.690074 
L 377.195537 -54.49854 
L 376.372052 -54.307006 
L 375.59272 -54.115471 
L 374.866485 -53.923937 
L 374.201835 -53.732403 
L 373.606464 -53.540869 
L 373.086999 -53.349335 
L 372.648823 -53.157801 
L 372.295957 -52.966267 
L 372.031001 -52.774733 
L 371.85511 -52.583199 
L 371.767983 -52.391665 
L 371.767863 -52.200131 
L 371.851522 -52.008597 
L 372.014252 -51.817063 
L 372.249836 -51.625529 
L 372.550542 -51.433995 
L 372.90713 -51.242461 
L 373.308908 -51.050926 
L 373.743847 -50.859392 
L 374.198767 -50.667858 
L 374.659607 -50.476324 
L 375.11179 -50.28479 
L 375.540653 -50.093256 
L 375.931947 -49.901722 
L 376.272362 -49.710188 
L 376.550068 -49.518654 
L 376.755208 -49.32712 
L 376.880333 -49.135586 
L 376.920725 -48.944052 
L 376.874598 -48.752518 
L 376.743148 -48.560984 
L 376.530446 -48.36945 
L 376.243193 -48.177916 
L 375.890338 -47.986382 
L 375.482591 -47.794847 
L 375.031871 -47.603313 
L 374.550719 -47.411779 
L 374.051719 -47.220245 
L 373.546962 -47.028711 
L 373.047576 -46.837177 
L 372.563363 -46.645643 
L 372.102532 -46.454109 
L 371.67155 -46.262575 
L 371.275105 -46.071041 
L 370.916154 -45.879507 
L 370.596063 -45.687973 
L 370.314803 -45.496439 
L 370.071179 -45.304905 
z
" style="stroke: #3d3d3d; stroke-width: 1.25"/>
    </defs>
    <g clip-path="url(#p0dafca4983)">
     <use xlink:href="#m7549b1da12" x="0" y="360" style="fill: #3a923a; stroke: #3d3d3d; stroke-width: 1.25"/>
    </g>
   </g>
   <g id="FillBetweenPolyCollection_4">
    <defs>
     <path id="me7aa2a7ada" d="M 481.019316 -45.911299 
L 480.180684 -45.911299 
L 480.072568 -46.090583 
L 479.945779 -46.269867 
L 479.799767 -46.44915 
L 479.634746 -46.628434 
L 479.451846 -46.807718 
L 479.253233 -46.987001 
L 479.042177 -47.166285 
L 478.823041 -47.345569 
L 478.601195 -47.524852 
L 478.382839 -47.704136 
L 478.17474 -47.88342 
L 477.983901 -48.062703 
L 477.817175 -48.241987 
L 477.680861 -48.421271 
L 477.580297 -48.600554 
L 477.519517 -48.779838 
L 477.50096 -48.959122 
L 477.525289 -49.138405 
L 477.591322 -49.317689 
L 477.696075 -49.496973 
L 477.834909 -49.676256 
L 478.001764 -49.85554 
L 478.189444 -50.034824 
L 478.389914 -50.214107 
L 478.59458 -50.393391 
L 478.794502 -50.572675 
L 478.980523 -50.751958 
L 479.143285 -50.931242 
L 479.27314 -51.110526 
L 479.35995 -51.289809 
L 479.392813 -51.469093 
L 479.35976 -51.648377 
L 479.247459 -51.82766 
L 479.041014 -52.006944 
L 478.723915 -52.186228 
L 478.278205 -52.365511 
L 477.684942 -52.544795 
L 476.924973 -52.724079 
L 475.980064 -52.903362 
L 474.834339 -53.082646 
L 473.475999 -53.26193 
L 471.899182 -53.441213 
L 470.105853 -53.620497 
L 468.107502 -53.799781 
L 465.926484 -53.979064 
L 463.59676 -54.158348 
L 461.163887 -54.337632 
L 458.684088 -54.516915 
L 456.22237 -54.696199 
L 453.849687 -54.875483 
L 451.639294 -55.054766 
L 449.662495 -55.23405 
L 447.984101 -55.413334 
L 446.657935 -55.592617 
L 445.722788 -55.771901 
L 445.199152 -55.951185 
L 445.087055 -56.130468 
L 445.365182 -56.309752 
L 445.991399 -56.489036 
L 446.904653 -56.668319 
L 448.028103 -56.847603 
L 449.27328 -57.026887 
L 450.54497 -57.20617 
L 451.746509 -57.385454 
L 452.785158 -57.564738 
L 453.577262 -57.744021 
L 454.052933 -57.923305 
L 454.160015 -58.102589 
L 453.867183 -58.281872 
L 453.166009 -58.461156 
L 452.071915 -58.640439 
L 450.623923 -58.819723 
L 448.883171 -58.999007 
L 446.930215 -59.17829 
L 444.861167 -59.357574 
L 442.782821 -59.536858 
L 440.806987 -59.716141 
L 439.044333 -59.895425 
L 437.598119 -60.074709 
L 436.558231 -60.253992 
L 435.995974 -60.433276 
L 435.96 -60.61256 
L 436.473717 -60.791843 
L 437.534379 -60.971127 
L 439.113931 -61.150411 
L 441.161503 -61.329694 
L 443.607335 -61.508978 
L 446.367754 -61.688262 
L 449.350765 -61.867545 
L 452.461784 -62.046829 
L 455.609047 -62.226113 
L 458.708308 -62.405396 
L 461.686527 -62.58468 
L 464.484383 -62.763964 
L 467.057559 -62.943247 
L 469.376874 -63.122531 
L 471.427419 -63.301815 
L 473.206924 -63.481098 
L 474.723608 -63.660382 
L 486.476392 -63.660382 
L 486.476392 -63.660382 
L 487.993076 -63.481098 
L 489.772581 -63.301815 
L 491.823126 -63.122531 
L 494.142441 -62.943247 
L 496.715617 -62.763964 
L 499.513473 -62.58468 
L 502.491692 -62.405396 
L 505.590953 -62.226113 
L 508.738216 -62.046829 
L 511.849235 -61.867545 
L 514.832246 -61.688262 
L 517.592665 -61.508978 
L 520.038497 -61.329694 
L 522.086069 -61.150411 
L 523.665621 -60.971127 
L 524.726283 -60.791843 
L 525.24 -60.61256 
L 525.204026 -60.433276 
L 524.641769 -60.253992 
L 523.601881 -60.074709 
L 522.155667 -59.895425 
L 520.393013 -59.716141 
L 518.417179 -59.536858 
L 516.338833 -59.357574 
L 514.269785 -59.17829 
L 512.316829 -58.999007 
L 510.576077 -58.819723 
L 509.128085 -58.640439 
L 508.033991 -58.461156 
L 507.332817 -58.281872 
L 507.039985 -58.102589 
L 507.147067 -57.923305 
L 507.622738 -57.744021 
L 508.414842 -57.564738 
L 509.453491 -57.385454 
L 510.65503 -57.20617 
L 511.92672 -57.026887 
L 513.171897 -56.847603 
L 514.295347 -56.668319 
L 515.208601 -56.489036 
L 515.834818 -56.309752 
L 516.112945 -56.130468 
L 516.000848 -55.951185 
L 515.477212 -55.771901 
L 514.542065 -55.592617 
L 513.215899 -55.413334 
L 511.537505 -55.23405 
L 509.560706 -55.054766 
L 507.350313 -54.875483 
L 504.97763 -54.696199 
L 502.515912 -54.516915 
L 500.036113 -54.337632 
L 497.60324 -54.158348 
L 495.273516 -53.979064 
L 493.092498 -53.799781 
L 491.094147 -53.620497 
L 489.300818 -53.441213 
L 487.724001 -53.26193 
L 486.365661 -53.082646 
L 485.219936 -52.903362 
L 484.275027 -52.724079 
L 483.515058 -52.544795 
L 482.921795 -52.365511 
L 482.476085 -52.186228 
L 482.158986 -52.006944 
L 481.952541 -51.82766 
L 481.84024 -51.648377 
L 481.807187 -51.469093 
L 481.84005 -51.289809 
L 481.92686 -51.110526 
L 482.056715 -50.931242 
L 482.219477 -50.751958 
L 482.405498 -50.572675 
L 482.60542 -50.393391 
L 482.810086 -50.214107 
L 483.010556 -50.034824 
L 483.198236 -49.85554 
L 483.365091 -49.676256 
L 483.503925 -49.496973 
L 483.608678 -49.317689 
L 483.674711 -49.138405 
L 483.69904 -48.959122 
L 483.680483 -48.779838 
L 483.619703 -48.600554 
L 483.519139 -48.421271 
L 483.382825 -48.241987 
L 483.216099 -48.062703 
L 483.02526 -47.88342 
L 482.817161 -47.704136 
L 482.598805 -47.524852 
L 482.376959 -47.345569 
L 482.157823 -47.166285 
L 481.946767 -46.987001 
L 481.748154 -46.807718 
L 481.565254 -46.628434 
L 481.400233 -46.44915 
L 481.254221 -46.269867 
L 481.127432 -46.090583 
L 481.019316 -45.911299 
z
" style="stroke: #3d3d3d; stroke-width: 1.25"/>
    </defs>
    <g clip-path="url(#p0dafca4983)">
     <use xlink:href="#me7aa2a7ada" x="0" y="360" style="fill: #c03d3e; stroke: #3d3d3d; stroke-width: 1.25"/>
    </g>
   </g>
   <g id="patch_3">
    <path d="M 212.76 320.4 
L 257.4 320.4 
L 257.4 187.231858 
L 212.76 187.231858 
z
" clip-path="url(#p0dafca4983)" style="fill: #3274a1"/>
   </g>
   <g id="patch_4">
    <path d="M 547.56 320.4 
L 592.2 320.4 
L 592.2 173.214159 
L 547.56 173.214159 
z
" clip-path="url(#p0dafca4983)" style="fill: #3274a1"/>
   </g>
   <g id="patch_5">
    <path d="M 257.4 320.4 
L 302.04 320.4 
L 302.04 250.311504 
L 257.4 250.311504 
z
" clip-path="url(#p0dafca4983)" style="fill: #e1812c"/>
   </g>
   <g id="patch_6">
    <path d="M 592.2 320.4 
L 636.84 320.4 
L 636.84 175.550442 
L 592.2 175.550442 
z
" clip-path="url(#p0dafca4983)" style="fill: #e1812c"/>
   </g>
   <g id="patch_7">
    <path d="M 145.8 320.4 
L 145.8 320.4 
L 145.8 320.4 
L 145.8 320.4 
z
" clip-path="url(#p0dafca4983)" style="fill: #3274a1"/>
   </g>
   <g id="patch_8">
    <path d="M 145.8 320.4 
L 145.8 320.4 
L 145.8 320.4 
L 145.8 320.4 
z
" clip-path="url(#p0dafca4983)" style="fill: #e1812c"/>
   </g>
   <g id="patch_9">
    <path d="M 212.76 320.4 
L 257.4 320.4 
L 257.4 301.709735 
L 212.76 301.709735 
z
" clip-path="url(#p0dafca4983)" style="fill: #3274a1"/>
   </g>
   <g id="patch_10">
    <path d="M 547.56 320.4 
L 592.2 320.4 
L 592.2 292.364602 
L 547.56 292.364602 
z
" clip-path="url(#p0dafca4983)" style="fill: #3274a1"/>
   </g>
   <g id="patch_11">
    <path d="M 257.4 320.4 
L 302.04 320.4 
L 302.04 135.833628 
L 257.4 135.833628 
z
" clip-path="url(#p0dafca4983)" style="fill: #e1812c"/>
   </g>
   <g id="patch_12">
    <path d="M 592.2 320.4 
L 636.84 320.4 
L 636.84 56.4 
L 592.2 56.4 
z
" clip-path="url(#p0dafca4983)" style="fill: #e1812c"/>
   </g>
   <g id="patch_13">
    <path d="M 145.8 320.4 
L 145.8 320.4 
L 145.8 320.4 
L 145.8 320.4 
z
" clip-path="url(#p0dafca4983)" style="fill: #3274a1"/>
   </g>
   <g id="patch_14">
    <path d="M 145.8 320.4 
L 145.8 320.4 
L 145.8 320.4 
L 145.8 320.4 
z
" clip-path="url(#p0dafca4983)" style="fill: #e1812c"/>
   </g>
   <g id="patch_15">
    <path d="M 212.76 320.4 
L 257.4 320.4 
L 257.4 231.621239 
L 212.76 231.621239 
z
" clip-path="url(#p0dafca4983)" style="fill: #3274a1"/>
   </g>
   <g id="patch_16">
    <path d="M 547.56 320.4 
L 592.2 320.4 
L 592.2 184.895575 
L 547.56 184.895575 
z
" clip-path="url(#p0dafca4983)" style="fill: #3274a1"/>
   </g>
   <g id="patch_17">
    <path d="M 257.4 320.4 
L 302.04 320.4 
L 302.04 205.922124 
L 257.4 205.922124 
z
" clip-path="url(#p0dafca4983)" style="fill: #e1812c"/>
   </g>
   <g id="patch_18">
    <path d="M 592.2 320.4 
L 636.84 320.4 
L 636.84 163.869027 
L 592.2 163.869027 
z
" clip-path="url(#p0dafca4983)" style="fill: #e1812c"/>
   </g>
   <g id="patch_19">
    <path d="M 145.8 320.4 
L 145.8 320.4 
L 145.8 320.4 
L 145.8 320.4 
z
" clip-path="url(#p0dafca4983)" style="fill: #3274a1"/>
   </g>
   <g id="patch_20">
    <path d="M 145.8 320.4 
L 145.8 320.4 
L 145.8 320.4 
L 145.8 320.4 
z
" clip-path="url(#p0dafca4983)" style="fill: #e1812c"/>
   </g>
   <g id="matplotlib.axis_1">
    <g id="xtick_1">
     <g id="line2d_1">
      <defs>
       <path id="m904d8a14b8" d="M 0 0 
L 0 3.5 
" style="stroke: #000000; stroke-width: 0.8"/>
      </defs>
      <g>
       <use xlink:href="#m904d8a14b8" x="145.8" y="320.4" style="stroke: #000000; stroke-width: 0.8"/>
      </g>
     </g>
     <g id="text_1">
      <!-- Spurious -->
      <g transform="translate(124.005469 334.998438) scale(0.1 -0.1)">
       <defs>
        <path id="DejaVuSans-53" d="M 3425 4513 
L 3425 3897 
Q 3066 4069 2747 4153 
Q 2428 4238 2131 4238 
Q 1616 4238 1336 4038 
Q 1056 3838 1056 3469 
Q 1056 3159 1242 3001 
Q 1428 2844 1947 2747 
L 2328 2669 
Q 3034 2534 3370 2195 
Q 3706 1856 3706 1288 
Q 3706 609 3251 259 
Q 2797 -91 1919 -91 
Q 1588 -91 1214 -16 
Q 841 59 441 206 
L 441 856 
Q 825 641 1194 531 
Q 1563 422 1919 422 
Q 2459 422 2753 634 
Q 3047 847 3047 1241 
Q 3047 1584 2836 1778 
Q 2625 1972 2144 2069 
L 1759 2144 
Q 1053 2284 737 2584 
Q 422 2884 422 3419 
Q 422 4038 858 4394 
Q 1294 4750 2059 4750 
Q 2388 4750 2728 4690 
Q 3069 4631 3425 4513 
z
" transform="scale(0.015625)"/>
        <path id="DejaVuSans-70" d="M 1159 525 
L 1159 -1331 
L 581 -1331 
L 581 3500 
L 1159 3500 
L 1159 2969 
Q 1341 3281 1617 3432 
Q 1894 3584 2278 3584 
Q 2916 3584 3314 3078 
Q 3713 2572 3713 1747 
Q 3713 922 3314 415 
Q 2916 -91 2278 -91 
Q 1894 -91 1617 61 
Q 1341 213 1159 525 
z
M 3116 1747 
Q 3116 2381 2855 2742 
Q 2594 3103 2138 3103 
Q 1681 3103 1420 2742 
Q 1159 2381 1159 1747 
Q 1159 1113 1420 752 
Q 1681 391 2138 391 
Q 2594 391 2855 752 
Q 3116 1113 3116 1747 
z
" transform="scale(0.015625)"/>
        <path id="DejaVuSans-75" d="M 544 1381 
L 544 3500 
L 1119 3500 
L 1119 1403 
Q 1119 906 1312 657 
Q 1506 409 1894 409 
Q 2359 409 2629 706 
Q 2900 1003 2900 1516 
L 2900 3500 
L 3475 3500 
L 3475 0 
L 2900 0 
L 2900 538 
Q 2691 219 2414 64 
Q 2138 -91 1772 -91 
Q 1169 -91 856 284 
Q 544 659 544 1381 
z
M 1991 3584 
L 1991 3584 
z
" transform="scale(0.015625)"/>
        <path id="DejaVuSans-72" d="M 2631 2963 
Q 2534 3019 2420 3045 
Q 2306 3072 2169 3072 
Q 1681 3072 1420 2755 
Q 1159 2438 1159 1844 
L 1159 0 
L 581 0 
L 581 3500 
L 1159 3500 
L 1159 2956 
Q 1341 3275 1631 3429 
Q 1922 3584 2338 3584 
Q 2397 3584 2469 3576 
Q 2541 3569 2628 3553 
L 2631 2963 
z
" transform="scale(0.015625)"/>
        <path id="DejaVuSans-69" d="M 603 3500 
L 1178 3500 
L 1178 0 
L 603 0 
L 603 3500 
z
M 603 4863 
L 1178 4863 
L 1178 4134 
L 603 4134 
L 603 4863 
z
" transform="scale(0.015625)"/>
        <path id="DejaVuSans-6f" d="M 1959 3097 
Q 1497 3097 1228 2736 
Q 959 2375 959 1747 
Q 959 1119 1226 758 
Q 1494 397 1959 397 
Q 2419 397 2687 759 
Q 2956 1122 2956 1747 
Q 2956 2369 2687 2733 
Q 2419 3097 1959 3097 
z
M 1959 3584 
Q 2709 3584 3137 3096 
Q 3566 2609 3566 1747 
Q 3566 888 3137 398 
Q 2709 -91 1959 -91 
Q 1206 -91 779 398 
Q 353 888 353 1747 
Q 353 2609 779 3096 
Q 1206 3584 1959 3584 
z
" transform="scale(0.015625)"/>
        <path id="DejaVuSans-73" d="M 2834 3397 
L 2834 2853 
Q 2591 2978 2328 3040 
Q 2066 3103 1784 3103 
Q 1356 3103 1142 2972 
Q 928 2841 928 2578 
Q 928 2378 1081 2264 
Q 1234 2150 1697 2047 
L 1894 2003 
Q 2506 1872 2764 1633 
Q 3022 1394 3022 966 
Q 3022 478 2636 193 
Q 2250 -91 1575 -91 
Q 1294 -91 989 -36 
Q 684 19 347 128 
L 347 722 
Q 666 556 975 473 
Q 1284 391 1588 391 
Q 1994 391 2212 530 
Q 2431 669 2431 922 
Q 2431 1156 2273 1281 
Q 2116 1406 1581 1522 
L 1381 1569 
Q 847 1681 609 1914 
Q 372 2147 372 2553 
Q 372 3047 722 3315 
Q 1072 3584 1716 3584 
Q 2034 3584 2315 3537 
Q 2597 3491 2834 3397 
z
" transform="scale(0.015625)"/>
       </defs>
       <use xlink:href="#DejaVuSans-53"/>
       <use xlink:href="#DejaVuSans-70" transform="translate(63.476562 0)"/>
       <use xlink:href="#DejaVuSans-75" transform="translate(126.953125 0)"/>
       <use xlink:href="#DejaVuSans-72" transform="translate(190.332031 0)"/>
       <use xlink:href="#DejaVuSans-69" transform="translate(231.445312 0)"/>
       <use xlink:href="#DejaVuSans-6f" transform="translate(259.228516 0)"/>
       <use xlink:href="#DejaVuSans-75" transform="translate(320.410156 0)"/>
       <use xlink:href="#DejaVuSans-73" transform="translate(383.789062 0)"/>
      </g>
     </g>
    </g>
    <g id="xtick_2">
     <g id="line2d_2">
      <g>
       <use xlink:href="#m904d8a14b8" x="257.4" y="320.4" style="stroke: #000000; stroke-width: 0.8"/>
      </g>
     </g>
     <g id="text_2">
      <!-- Specific -->
      <g transform="translate(237.938281 334.998438) scale(0.1 -0.1)">
       <defs>
        <path id="DejaVuSans-65" d="M 3597 1894 
L 3597 1613 
L 953 1613 
Q 991 1019 1311 708 
Q 1631 397 2203 397 
Q 2534 397 2845 478 
Q 3156 559 3463 722 
L 3463 178 
Q 3153 47 2828 -22 
Q 2503 -91 2169 -91 
Q 1331 -91 842 396 
Q 353 884 353 1716 
Q 353 2575 817 3079 
Q 1281 3584 2069 3584 
Q 2775 3584 3186 3129 
Q 3597 2675 3597 1894 
z
M 3022 2063 
Q 3016 2534 2758 2815 
Q 2500 3097 2075 3097 
Q 1594 3097 1305 2825 
Q 1016 2553 972 2059 
L 3022 2063 
z
" transform="scale(0.015625)"/>
        <path id="DejaVuSans-63" d="M 3122 3366 
L 3122 2828 
Q 2878 2963 2633 3030 
Q 2388 3097 2138 3097 
Q 1578 3097 1268 2742 
Q 959 2388 959 1747 
Q 959 1106 1268 751 
Q 1578 397 2138 397 
Q 2388 397 2633 464 
Q 2878 531 3122 666 
L 3122 134 
Q 2881 22 2623 -34 
Q 2366 -91 2075 -91 
Q 1284 -91 818 406 
Q 353 903 353 1747 
Q 353 2603 823 3093 
Q 1294 3584 2113 3584 
Q 2378 3584 2631 3529 
Q 2884 3475 3122 3366 
z
" transform="scale(0.015625)"/>
        <path id="DejaVuSans-66" d="M 2375 4863 
L 2375 4384 
L 1825 4384 
Q 1516 4384 1395 4259 
Q 1275 4134 1275 3809 
L 1275 3500 
L 2222 3500 
L 2222 3053 
L 1275 3053 
L 1275 0 
L 697 0 
L 697 3053 
L 147 3053 
L 147 3500 
L 697 3500 
L 697 3744 
Q 697 4328 969 4595 
Q 1241 4863 1831 4863 
L 2375 4863 
z
" transform="scale(0.015625)"/>
       </defs>
       <use xlink:href="#DejaVuSans-53"/>
       <use xlink:href="#DejaVuSans-70" transform="translate(63.476562 0)"/>
       <use xlink:href="#DejaVuSans-65" transform="translate(126.953125 0)"/>
       <use xlink:href="#DejaVuSans-63" transform="translate(188.476562 0)"/>
       <use xlink:href="#DejaVuSans-69" transform="translate(243.457031 0)"/>
       <use xlink:href="#DejaVuSans-66" transform="translate(271.240234 0)"/>
       <use xlink:href="#DejaVuSans-69" transform="translate(306.445312 0)"/>
       <use xlink:href="#DejaVuSans-63" transform="translate(334.228516 0)"/>
      </g>
     </g>
    </g>
    <g id="xtick_3">
     <g id="line2d_3">
      <g>
       <use xlink:href="#m904d8a14b8" x="369" y="320.4" style="stroke: #000000; stroke-width: 0.8"/>
      </g>
     </g>
     <g id="text_3">
      <!-- Non-specific -->
      <g transform="translate(338.335156 334.998438) scale(0.1 -0.1)">
       <defs>
        <path id="DejaVuSans-4e" d="M 628 4666 
L 1478 4666 
L 3547 763 
L 3547 4666 
L 4159 4666 
L 4159 0 
L 3309 0 
L 1241 3903 
L 1241 0 
L 628 0 
L 628 4666 
z
" transform="scale(0.015625)"/>
        <path id="DejaVuSans-6e" d="M 3513 2113 
L 3513 0 
L 2938 0 
L 2938 2094 
Q 2938 2591 2744 2837 
Q 2550 3084 2163 3084 
Q 1697 3084 1428 2787 
Q 1159 2491 1159 1978 
L 1159 0 
L 581 0 
L 581 3500 
L 1159 3500 
L 1159 2956 
Q 1366 3272 1645 3428 
Q 1925 3584 2291 3584 
Q 2894 3584 3203 3211 
Q 3513 2838 3513 2113 
z
" transform="scale(0.015625)"/>
        <path id="DejaVuSans-2d" d="M 313 2009 
L 1997 2009 
L 1997 1497 
L 313 1497 
L 313 2009 
z
" transform="scale(0.015625)"/>
       </defs>
       <use xlink:href="#DejaVuSans-4e"/>
       <use xlink:href="#DejaVuSans-6f" transform="translate(74.804688 0)"/>
       <use xlink:href="#DejaVuSans-6e" transform="translate(135.986328 0)"/>
       <use xlink:href="#DejaVuSans-2d" transform="translate(199.365234 0)"/>
       <use xlink:href="#DejaVuSans-73" transform="translate(235.449219 0)"/>
       <use xlink:href="#DejaVuSans-70" transform="translate(287.548828 0)"/>
       <use xlink:href="#DejaVuSans-65" transform="translate(351.025391 0)"/>
       <use xlink:href="#DejaVuSans-63" transform="translate(412.548828 0)"/>
       <use xlink:href="#DejaVuSans-69" transform="translate(467.529297 0)"/>
       <use xlink:href="#DejaVuSans-66" transform="translate(495.3125 0)"/>
       <use xlink:href="#DejaVuSans-69" transform="translate(530.517578 0)"/>
       <use xlink:href="#DejaVuSans-63" transform="translate(558.300781 0)"/>
      </g>
     </g>
    </g>
    <g id="xtick_4">
     <g id="line2d_4">
      <g>
       <use xlink:href="#m904d8a14b8" x="480.6" y="320.4" style="stroke: #000000; stroke-width: 0.8"/>
      </g>
     </g>
     <g id="text_4">
      <!-- No -->
      <g transform="translate(473.8 334.998438) scale(0.1 -0.1)">
       <use xlink:href="#DejaVuSans-4e"/>
       <use xlink:href="#DejaVuSans-6f" transform="translate(74.804688 0)"/>
      </g>
     </g>
    </g>
    <g id="xtick_5">
     <g id="line2d_5">
      <g>
       <use xlink:href="#m904d8a14b8" x="592.2" y="320.4" style="stroke: #000000; stroke-width: 0.8"/>
      </g>
     </g>
     <g id="text_5">
      <!-- other -->
      <g transform="translate(578.879688 334.998438) scale(0.1 -0.1)">
       <defs>
        <path id="DejaVuSans-74" d="M 1172 4494 
L 1172 3500 
L 2356 3500 
L 2356 3053 
L 1172 3053 
L 1172 1153 
Q 1172 725 1289 603 
Q 1406 481 1766 481 
L 2356 481 
L 2356 0 
L 1766 0 
Q 1100 0 847 248 
Q 594 497 594 1153 
L 594 3053 
L 172 3053 
L 172 3500 
L 594 3500 
L 594 4494 
L 1172 4494 
z
" transform="scale(0.015625)"/>
        <path id="DejaVuSans-68" d="M 3513 2113 
L 3513 0 
L 2938 0 
L 2938 2094 
Q 2938 2591 2744 2837 
Q 2550 3084 2163 3084 
Q 1697 3084 1428 2787 
Q 1159 2491 1159 1978 
L 1159 0 
L 581 0 
L 581 4863 
L 1159 4863 
L 1159 2956 
Q 1366 3272 1645 3428 
Q 1925 3584 2291 3584 
Q 2894 3584 3203 3211 
Q 3513 2838 3513 2113 
z
" transform="scale(0.015625)"/>
       </defs>
       <use xlink:href="#DejaVuSans-6f"/>
       <use xlink:href="#DejaVuSans-74" transform="translate(61.181641 0)"/>
       <use xlink:href="#DejaVuSans-68" transform="translate(100.390625 0)"/>
       <use xlink:href="#DejaVuSans-65" transform="translate(163.769531 0)"/>
       <use xlink:href="#DejaVuSans-72" transform="translate(225.292969 0)"/>
      </g>
     </g>
    </g>
    <g id="text_6">
     <!-- Connectivity category -->
     <g transform="translate(313.98125 348.676562) scale(0.1 -0.1)">
      <defs>
       <path id="DejaVuSans-43" d="M 4122 4306 
L 4122 3641 
Q 3803 3938 3442 4084 
Q 3081 4231 2675 4231 
Q 1875 4231 1450 3742 
Q 1025 3253 1025 2328 
Q 1025 1406 1450 917 
Q 1875 428 2675 428 
Q 3081 428 3442 575 
Q 3803 722 4122 1019 
L 4122 359 
Q 3791 134 3420 21 
Q 3050 -91 2638 -91 
Q 1578 -91 968 557 
Q 359 1206 359 2328 
Q 359 3453 968 4101 
Q 1578 4750 2638 4750 
Q 3056 4750 3426 4639 
Q 3797 4528 4122 4306 
z
" transform="scale(0.015625)"/>
       <path id="DejaVuSans-76" d="M 191 3500 
L 800 3500 
L 1894 563 
L 2988 3500 
L 3597 3500 
L 2284 0 
L 1503 0 
L 191 3500 
z
" transform="scale(0.015625)"/>
       <path id="DejaVuSans-79" d="M 2059 -325 
Q 1816 -950 1584 -1140 
Q 1353 -1331 966 -1331 
L 506 -1331 
L 506 -850 
L 844 -850 
Q 1081 -850 1212 -737 
Q 1344 -625 1503 -206 
L 1606 56 
L 191 3500 
L 800 3500 
L 1894 763 
L 2988 3500 
L 3597 3500 
L 2059 -325 
z
" transform="scale(0.015625)"/>
       <path id="DejaVuSans-20" transform="scale(0.015625)"/>
       <path id="DejaVuSans-61" d="M 2194 1759 
Q 1497 1759 1228 1600 
Q 959 1441 959 1056 
Q 959 750 1161 570 
Q 1363 391 1709 391 
Q 2188 391 2477 730 
Q 2766 1069 2766 1631 
L 2766 1759 
L 2194 1759 
z
M 3341 1997 
L 3341 0 
L 2766 0 
L 2766 531 
Q 2569 213 2275 61 
Q 1981 -91 1556 -91 
Q 1019 -91 701 211 
Q 384 513 384 1019 
Q 384 1609 779 1909 
Q 1175 2209 1959 2209 
L 2766 2209 
L 2766 2266 
Q 2766 2663 2505 2880 
Q 2244 3097 1772 3097 
Q 1472 3097 1187 3025 
Q 903 2953 641 2809 
L 641 3341 
Q 956 3463 1253 3523 
Q 1550 3584 1831 3584 
Q 2591 3584 2966 3190 
Q 3341 2797 3341 1997 
z
" transform="scale(0.015625)"/>
       <path id="DejaVuSans-67" d="M 2906 1791 
Q 2906 2416 2648 2759 
Q 2391 3103 1925 3103 
Q 1463 3103 1205 2759 
Q 947 2416 947 1791 
Q 947 1169 1205 825 
Q 1463 481 1925 481 
Q 2391 481 2648 825 
Q 2906 1169 2906 1791 
z
M 3481 434 
Q 3481 -459 3084 -895 
Q 2688 -1331 1869 -1331 
Q 1566 -1331 1297 -1286 
Q 1028 -1241 775 -1147 
L 775 -588 
Q 1028 -725 1275 -790 
Q 1522 -856 1778 -856 
Q 2344 -856 2625 -561 
Q 2906 -266 2906 331 
L 2906 616 
Q 2728 306 2450 153 
Q 2172 0 1784 0 
Q 1141 0 747 490 
Q 353 981 353 1791 
Q 353 2603 747 3093 
Q 1141 3584 1784 3584 
Q 2172 3584 2450 3431 
Q 2728 3278 2906 2969 
L 2906 3500 
L 3481 3500 
L 3481 434 
z
" transform="scale(0.015625)"/>
      </defs>
      <use xlink:href="#DejaVuSans-43"/>
      <use xlink:href="#DejaVuSans-6f" transform="translate(69.824219 0)"/>
      <use xlink:href="#DejaVuSans-6e" transform="translate(131.005859 0)"/>
      <use xlink:href="#DejaVuSans-6e" transform="translate(194.384766 0)"/>
      <use xlink:href="#DejaVuSans-65" transform="translate(257.763672 0)"/>
      <use xlink:href="#DejaVuSans-63" transform="translate(319.287109 0)"/>
      <use xlink:href="#DejaVuSans-74" transform="translate(374.267578 0)"/>
      <use xlink:href="#DejaVuSans-69" transform="translate(413.476562 0)"/>
      <use xlink:href="#DejaVuSans-76" transform="translate(441.259766 0)"/>
      <use xlink:href="#DejaVuSans-69" transform="translate(500.439453 0)"/>
      <use xlink:href="#DejaVuSans-74" transform="translate(528.222656 0)"/>
      <use xlink:href="#DejaVuSans-79" transform="translate(567.431641 0)"/>
      <use xlink:href="#DejaVuSans-20" transform="translate(626.611328 0)"/>
      <use xlink:href="#DejaVuSans-63" transform="translate(658.398438 0)"/>
      <use xlink:href="#DejaVuSans-61" transform="translate(713.378906 0)"/>
      <use xlink:href="#DejaVuSans-74" transform="translate(774.658203 0)"/>
      <use xlink:href="#DejaVuSans-65" transform="translate(813.867188 0)"/>
      <use xlink:href="#DejaVuSans-67" transform="translate(875.390625 0)"/>
      <use xlink:href="#DejaVuSans-6f" transform="translate(938.867188 0)"/>
      <use xlink:href="#DejaVuSans-72" transform="translate(1000.048828 0)"/>
      <use xlink:href="#DejaVuSans-79" transform="translate(1041.162109 0)"/>
     </g>
    </g>
   </g>
   <g id="matplotlib.axis_2">
    <g id="ytick_1">
     <g id="line2d_6">
      <defs>
       <path id="mf022286f53" d="M 0 0 
L -3.5 0 
" style="stroke: #000000; stroke-width: 0.8"/>
      </defs>
      <g>
       <use xlink:href="#mf022286f53" x="90" y="320.4" style="stroke: #000000; stroke-width: 0.8"/>
      </g>
     </g>
     <g id="text_7">
      <!-- 0 -->
      <g transform="translate(76.6375 324.199219) scale(0.1 -0.1)">
       <defs>
        <path id="DejaVuSans-30" d="M 2034 4250 
Q 1547 4250 1301 3770 
Q 1056 3291 1056 2328 
Q 1056 1369 1301 889 
Q 1547 409 2034 409 
Q 2525 409 2770 889 
Q 3016 1369 3016 2328 
Q 3016 3291 2770 3770 
Q 2525 4250 2034 4250 
z
M 2034 4750 
Q 2819 4750 3233 4129 
Q 3647 3509 3647 2328 
Q 3647 1150 3233 529 
Q 2819 -91 2034 -91 
Q 1250 -91 836 529 
Q 422 1150 422 2328 
Q 422 3509 836 4129 
Q 1250 4750 2034 4750 
z
" transform="scale(0.015625)"/>
       </defs>
       <use xlink:href="#DejaVuSans-30"/>
      </g>
     </g>
    </g>
    <g id="ytick_2">
     <g id="line2d_7">
      <g>
       <use xlink:href="#mf022286f53" x="90" y="273.674336" style="stroke: #000000; stroke-width: 0.8"/>
      </g>
     </g>
     <g id="text_8">
      <!-- 20 -->
      <g transform="translate(70.275 277.473555) scale(0.1 -0.1)">
       <defs>
        <path id="DejaVuSans-32" d="M 1228 531 
L 3431 531 
L 3431 0 
L 469 0 
L 469 531 
Q 828 903 1448 1529 
Q 2069 2156 2228 2338 
Q 2531 2678 2651 2914 
Q 2772 3150 2772 3378 
Q 2772 3750 2511 3984 
Q 2250 4219 1831 4219 
Q 1534 4219 1204 4116 
Q 875 4013 500 3803 
L 500 4441 
Q 881 4594 1212 4672 
Q 1544 4750 1819 4750 
Q 2544 4750 2975 4387 
Q 3406 4025 3406 3419 
Q 3406 3131 3298 2873 
Q 3191 2616 2906 2266 
Q 2828 2175 2409 1742 
Q 1991 1309 1228 531 
z
" transform="scale(0.015625)"/>
       </defs>
       <use xlink:href="#DejaVuSans-32"/>
       <use xlink:href="#DejaVuSans-30" transform="translate(63.623047 0)"/>
      </g>
     </g>
    </g>
    <g id="ytick_3">
     <g id="line2d_8">
      <g>
       <use xlink:href="#mf022286f53" x="90" y="226.948673" style="stroke: #000000; stroke-width: 0.8"/>
      </g>
     </g>
     <g id="text_9">
      <!-- 40 -->
      <g transform="translate(70.275 230.747891) scale(0.1 -0.1)">
       <defs>
        <path id="DejaVuSans-34" d="M 2419 4116 
L 825 1625 
L 2419 1625 
L 2419 4116 
z
M 2253 4666 
L 3047 4666 
L 3047 1625 
L 3713 1625 
L 3713 1100 
L 3047 1100 
L 3047 0 
L 2419 0 
L 2419 1100 
L 313 1100 
L 313 1709 
L 2253 4666 
z
" transform="scale(0.015625)"/>
       </defs>
       <use xlink:href="#DejaVuSans-34"/>
       <use xlink:href="#DejaVuSans-30" transform="translate(63.623047 0)"/>
      </g>
     </g>
    </g>
    <g id="ytick_4">
     <g id="line2d_9">
      <g>
       <use xlink:href="#mf022286f53" x="90" y="180.223009" style="stroke: #000000; stroke-width: 0.8"/>
      </g>
     </g>
     <g id="text_10">
      <!-- 60 -->
      <g transform="translate(70.275 184.022228) scale(0.1 -0.1)">
       <defs>
        <path id="DejaVuSans-36" d="M 2113 2584 
Q 1688 2584 1439 2293 
Q 1191 2003 1191 1497 
Q 1191 994 1439 701 
Q 1688 409 2113 409 
Q 2538 409 2786 701 
Q 3034 994 3034 1497 
Q 3034 2003 2786 2293 
Q 2538 2584 2113 2584 
z
M 3366 4563 
L 3366 3988 
Q 3128 4100 2886 4159 
Q 2644 4219 2406 4219 
Q 1781 4219 1451 3797 
Q 1122 3375 1075 2522 
Q 1259 2794 1537 2939 
Q 1816 3084 2150 3084 
Q 2853 3084 3261 2657 
Q 3669 2231 3669 1497 
Q 3669 778 3244 343 
Q 2819 -91 2113 -91 
Q 1303 -91 875 529 
Q 447 1150 447 2328 
Q 447 3434 972 4092 
Q 1497 4750 2381 4750 
Q 2619 4750 2861 4703 
Q 3103 4656 3366 4563 
z
" transform="scale(0.015625)"/>
       </defs>
       <use xlink:href="#DejaVuSans-36"/>
       <use xlink:href="#DejaVuSans-30" transform="translate(63.623047 0)"/>
      </g>
     </g>
    </g>
    <g id="ytick_5">
     <g id="line2d_10">
      <g>
       <use xlink:href="#mf022286f53" x="90" y="133.497345" style="stroke: #000000; stroke-width: 0.8"/>
      </g>
     </g>
     <g id="text_11">
      <!-- 80 -->
      <g transform="translate(70.275 137.296564) scale(0.1 -0.1)">
       <defs>
        <path id="DejaVuSans-38" d="M 2034 2216 
Q 1584 2216 1326 1975 
Q 1069 1734 1069 1313 
Q 1069 891 1326 650 
Q 1584 409 2034 409 
Q 2484 409 2743 651 
Q 3003 894 3003 1313 
Q 3003 1734 2745 1975 
Q 2488 2216 2034 2216 
z
M 1403 2484 
Q 997 2584 770 2862 
Q 544 3141 544 3541 
Q 544 4100 942 4425 
Q 1341 4750 2034 4750 
Q 2731 4750 3128 4425 
Q 3525 4100 3525 3541 
Q 3525 3141 3298 2862 
Q 3072 2584 2669 2484 
Q 3125 2378 3379 2068 
Q 3634 1759 3634 1313 
Q 3634 634 3220 271 
Q 2806 -91 2034 -91 
Q 1263 -91 848 271 
Q 434 634 434 1313 
Q 434 1759 690 2068 
Q 947 2378 1403 2484 
z
M 1172 3481 
Q 1172 3119 1398 2916 
Q 1625 2713 2034 2713 
Q 2441 2713 2670 2916 
Q 2900 3119 2900 3481 
Q 2900 3844 2670 4047 
Q 2441 4250 2034 4250 
Q 1625 4250 1398 4047 
Q 1172 3844 1172 3481 
z
" transform="scale(0.015625)"/>
       </defs>
       <use xlink:href="#DejaVuSans-38"/>
       <use xlink:href="#DejaVuSans-30" transform="translate(63.623047 0)"/>
      </g>
     </g>
    </g>
    <g id="ytick_6">
     <g id="line2d_11">
      <g>
       <use xlink:href="#mf022286f53" x="90" y="86.771681" style="stroke: #000000; stroke-width: 0.8"/>
      </g>
     </g>
     <g id="text_12">
      <!-- 100 -->
      <g transform="translate(63.9125 90.5709) scale(0.1 -0.1)">
       <defs>
        <path id="DejaVuSans-31" d="M 794 531 
L 1825 531 
L 1825 4091 
L 703 3866 
L 703 4441 
L 1819 4666 
L 2450 4666 
L 2450 531 
L 3481 531 
L 3481 0 
L 794 0 
L 794 531 
z
" transform="scale(0.015625)"/>
       </defs>
       <use xlink:href="#DejaVuSans-31"/>
       <use xlink:href="#DejaVuSans-30" transform="translate(63.623047 0)"/>
       <use xlink:href="#DejaVuSans-30" transform="translate(127.246094 0)"/>
      </g>
     </g>
    </g>
    <g id="text_13">
     <!-- cont_variable -->
     <g transform="translate(57.554687 215.409375) rotate(-90) scale(0.1 -0.1)">
      <defs>
       <path id="DejaVuSans-5f" d="M 3263 -1063 
L 3263 -1509 
L -63 -1509 
L -63 -1063 
L 3263 -1063 
z
" transform="scale(0.015625)"/>
       <path id="DejaVuSans-62" d="M 3116 1747 
Q 3116 2381 2855 2742 
Q 2594 3103 2138 3103 
Q 1681 3103 1420 2742 
Q 1159 2381 1159 1747 
Q 1159 1113 1420 752 
Q 1681 391 2138 391 
Q 2594 391 2855 752 
Q 3116 1113 3116 1747 
z
M 1159 2969 
Q 1341 3281 1617 3432 
Q 1894 3584 2278 3584 
Q 2916 3584 3314 3078 
Q 3713 2572 3713 1747 
Q 3713 922 3314 415 
Q 2916 -91 2278 -91 
Q 1894 -91 1617 61 
Q 1341 213 1159 525 
L 1159 0 
L 581 0 
L 581 4863 
L 1159 4863 
L 1159 2969 
z
" transform="scale(0.015625)"/>
       <path id="DejaVuSans-6c" d="M 603 4863 
L 1178 4863 
L 1178 0 
L 603 0 
L 603 4863 
z
" transform="scale(0.015625)"/>
      </defs>
      <use xlink:href="#DejaVuSans-63"/>
      <use xlink:href="#DejaVuSans-6f" transform="translate(54.980469 0)"/>
      <use xlink:href="#DejaVuSans-6e" transform="translate(116.162109 0)"/>
      <use xlink:href="#DejaVuSans-74" transform="translate(179.541016 0)"/>
      <use xlink:href="#DejaVuSans-5f" transform="translate(218.75 0)"/>
      <use xlink:href="#DejaVuSans-76" transform="translate(268.75 0)"/>
      <use xlink:href="#DejaVuSans-61" transform="translate(327.929688 0)"/>
      <use xlink:href="#DejaVuSans-72" transform="translate(389.208984 0)"/>
      <use xlink:href="#DejaVuSans-69" transform="translate(430.322266 0)"/>
      <use xlink:href="#DejaVuSans-61" transform="translate(458.105469 0)"/>
      <use xlink:href="#DejaVuSans-62" transform="translate(519.384766 0)"/>
      <use xlink:href="#DejaVuSans-6c" transform="translate(582.861328 0)"/>
      <use xlink:href="#DejaVuSans-65" transform="translate(610.644531 0)"/>
     </g>
    </g>
   </g>
   <g id="line2d_12">
    <path clip-path="url(#p0dafca4983)" style="fill: none; stroke: #424242; stroke-width: 2.25; stroke-linecap: square"/>
   </g>
   <g id="line2d_13">
    <path clip-path="url(#p0dafca4983)" style="fill: none; stroke: #424242; stroke-width: 2.25; stroke-linecap: square"/>
   </g>
   <g id="line2d_14">
    <path clip-path="url(#p0dafca4983)" style="fill: none; stroke: #424242; stroke-width: 2.25; stroke-linecap: square"/>
   </g>
   <g id="line2d_15">
    <path clip-path="url(#p0dafca4983)" style="fill: none; stroke: #424242; stroke-width: 2.25; stroke-linecap: square"/>
   </g>
   <g id="line2d_16">
    <path clip-path="url(#p0dafca4983)" style="fill: none; stroke: #424242; stroke-width: 2.25; stroke-linecap: square"/>
   </g>
   <g id="line2d_17">
    <path clip-path="url(#p0dafca4983)" style="fill: none; stroke: #424242; stroke-width: 2.25; stroke-linecap: square"/>
   </g>
   <g id="line2d_18">
    <path clip-path="url(#p0dafca4983)" style="fill: none; stroke: #424242; stroke-width: 2.25; stroke-linecap: square"/>
   </g>
   <g id="line2d_19">
    <path clip-path="url(#p0dafca4983)" style="fill: none; stroke: #424242; stroke-width: 2.25; stroke-linecap: square"/>
   </g>
   <g id="line2d_20">
    <path clip-path="url(#p0dafca4983)" style="fill: none; stroke: #424242; stroke-width: 2.25; stroke-linecap: square"/>
   </g>
   <g id="line2d_21">
    <path clip-path="url(#p0dafca4983)" style="fill: none; stroke: #424242; stroke-width: 2.25; stroke-linecap: square"/>
   </g>
   <g id="line2d_22">
    <path clip-path="url(#p0dafca4983)" style="fill: none; stroke: #424242; stroke-width: 2.25; stroke-linecap: square"/>
   </g>
   <g id="line2d_23">
    <path clip-path="url(#p0dafca4983)" style="fill: none; stroke: #424242; stroke-width: 2.25; stroke-linecap: square"/>
   </g>
   <g id="patch_21">
    <path d="M 90 320.4 
L 90 43.2 
" style="fill: none; stroke: #000000; stroke-width: 0.8; stroke-linejoin: miter; stroke-linecap: square"/>
   </g>
   <g id="patch_22">
    <path d="M 648 320.4 
L 648 43.2 
" style="fill: none; stroke: #000000; stroke-width: 0.8; stroke-linejoin: miter; stroke-linecap: square"/>
   </g>
   <g id="patch_23">
    <path d="M 90 320.4 
L 648 320.4 
" style="fill: none; stroke: #000000; stroke-width: 0.8; stroke-linejoin: miter; stroke-linecap: square"/>
   </g>
   <g id="patch_24">
    <path d="M 90 43.2 
L 648 43.2 
" style="fill: none; stroke: #000000; stroke-width: 0.8; stroke-linejoin: miter; stroke-linecap: square"/>
   </g>
   <g id="PathCollection_1">
    <defs>
     <path id="m912dd8f8cb" d="M 0 2.5 
C 0.663008 2.5 1.29895 2.236584 1.767767 1.767767 
C 2.236584 1.29895 2.5 0.663008 2.5 0 
C 2.5 -0.663008 2.236584 -1.29895 1.767767 -1.767767 
C 1.29895 -2.236584 0.663008 -2.5 0 -2.5 
C -0.663008 -2.5 -1.29895 -2.236584 -1.767767 -1.767767 
C -2.236584 -1.29895 -2.5 -0.663008 -2.5 0 
C -2.5 0.663008 -2.236584 1.29895 -1.767767 1.767767 
C -1.29895 2.236584 -0.663008 2.5 0 2.5 
z
"/>
    </defs>
    <g clip-path="url(#p0dafca4983)">
     <use xlink:href="#m912dd8f8cb" x="146.470751" y="301.709735" style="fill-opacity: 0.3"/>
     <use xlink:href="#m912dd8f8cb" x="147.385279" y="301.709735" style="fill-opacity: 0.3"/>
     <use xlink:href="#m912dd8f8cb" x="144.392871" y="311.054867" style="fill-opacity: 0.3"/>
     <use xlink:href="#m912dd8f8cb" x="149.098158" y="311.054867" style="fill-opacity: 0.3"/>
     <use xlink:href="#m912dd8f8cb" x="135.014377" y="301.709735" style="fill-opacity: 0.3"/>
     <use xlink:href="#m912dd8f8cb" x="136.884689" y="299.373451" style="fill-opacity: 0.3"/>
     <use xlink:href="#m912dd8f8cb" x="155.96772" y="299.373451" style="fill-opacity: 0.3"/>
     <use xlink:href="#m912dd8f8cb" x="151.433927" y="299.373451" style="fill-opacity: 0.3"/>
     <use xlink:href="#m912dd8f8cb" x="156.440585" y="299.373451" style="fill-opacity: 0.3"/>
     <use xlink:href="#m912dd8f8cb" x="134.904447" y="299.373451" style="fill-opacity: 0.3"/>
     <use xlink:href="#m912dd8f8cb" x="137.326832" y="299.373451" style="fill-opacity: 0.3"/>
     <use xlink:href="#m912dd8f8cb" x="134.765061" y="299.373451" style="fill-opacity: 0.3"/>
     <use xlink:href="#m912dd8f8cb" x="156.773991" y="299.373451" style="fill-opacity: 0.3"/>
     <use xlink:href="#m912dd8f8cb" x="150.817846" y="299.373451" style="fill-opacity: 0.3"/>
     <use xlink:href="#m912dd8f8cb" x="146.669606" y="299.373451" style="fill-opacity: 0.3"/>
     <use xlink:href="#m912dd8f8cb" x="150.679296" y="299.373451" style="fill-opacity: 0.3"/>
     <use xlink:href="#m912dd8f8cb" x="136.522615" y="299.373451" style="fill-opacity: 0.3"/>
     <use xlink:href="#m912dd8f8cb" x="147.94061" y="299.373451" style="fill-opacity: 0.3"/>
     <use xlink:href="#m912dd8f8cb" x="139.975198" y="299.373451" style="fill-opacity: 0.3"/>
     <use xlink:href="#m912dd8f8cb" x="136.556307" y="299.373451" style="fill-opacity: 0.3"/>
     <use xlink:href="#m912dd8f8cb" x="150.770018" y="299.373451" style="fill-opacity: 0.3"/>
     <use xlink:href="#m912dd8f8cb" x="156.095957" y="299.373451" style="fill-opacity: 0.3"/>
     <use xlink:href="#m912dd8f8cb" x="150.513071" y="299.373451" style="fill-opacity: 0.3"/>
     <use xlink:href="#m912dd8f8cb" x="146.074717" y="299.373451" style="fill-opacity: 0.3"/>
     <use xlink:href="#m912dd8f8cb" x="150.332146" y="299.373451" style="fill-opacity: 0.3"/>
     <use xlink:href="#m912dd8f8cb" x="144.657381" y="299.373451" style="fill-opacity: 0.3"/>
     <use xlink:href="#m912dd8f8cb" x="147.488592" y="299.373451" style="fill-opacity: 0.3"/>
     <use xlink:href="#m912dd8f8cb" x="140.001027" y="299.373451" style="fill-opacity: 0.3"/>
     <use xlink:href="#m912dd8f8cb" x="150.74529" y="299.373451" style="fill-opacity: 0.3"/>
     <use xlink:href="#m912dd8f8cb" x="151.289955" y="304.046018" style="fill-opacity: 0.3"/>
     <use xlink:href="#m912dd8f8cb" x="148.13961" y="304.046018" style="fill-opacity: 0.3"/>
     <use xlink:href="#m912dd8f8cb" x="140.360944" y="304.046018" style="fill-opacity: 0.3"/>
     <use xlink:href="#m912dd8f8cb" x="152.591755" y="304.046018" style="fill-opacity: 0.3"/>
     <use xlink:href="#m912dd8f8cb" x="147.00221" y="304.046018" style="fill-opacity: 0.3"/>
     <use xlink:href="#m912dd8f8cb" x="141.124382" y="304.046018" style="fill-opacity: 0.3"/>
     <use xlink:href="#m912dd8f8cb" x="136.779221" y="304.046018" style="fill-opacity: 0.3"/>
     <use xlink:href="#m912dd8f8cb" x="152.705365" y="304.046018" style="fill-opacity: 0.3"/>
     <use xlink:href="#m912dd8f8cb" x="140.682354" y="304.046018" style="fill-opacity: 0.3"/>
     <use xlink:href="#m912dd8f8cb" x="137.532102" y="304.046018" style="fill-opacity: 0.3"/>
     <use xlink:href="#m912dd8f8cb" x="151.903131" y="304.046018" style="fill-opacity: 0.3"/>
     <use xlink:href="#m912dd8f8cb" x="150.960541" y="304.046018" style="fill-opacity: 0.3"/>
     <use xlink:href="#m912dd8f8cb" x="156.664251" y="304.046018" style="fill-opacity: 0.3"/>
     <use xlink:href="#m912dd8f8cb" x="148.281299" y="304.046018" style="fill-opacity: 0.3"/>
     <use xlink:href="#m912dd8f8cb" x="145.996656" y="304.046018" style="fill-opacity: 0.3"/>
     <use xlink:href="#m912dd8f8cb" x="139.360319" y="304.046018" style="fill-opacity: 0.3"/>
     <use xlink:href="#m912dd8f8cb" x="143.317803" y="304.046018" style="fill-opacity: 0.3"/>
     <use xlink:href="#m912dd8f8cb" x="144.649953" y="304.046018" style="fill-opacity: 0.3"/>
     <use xlink:href="#m912dd8f8cb" x="144.743023" y="304.046018" style="fill-opacity: 0.3"/>
     <use xlink:href="#m912dd8f8cb" x="142.148351" y="304.046018" style="fill-opacity: 0.3"/>
     <use xlink:href="#m912dd8f8cb" x="151.038997" y="299.373451" style="fill-opacity: 0.3"/>
     <use xlink:href="#m912dd8f8cb" x="148.592497" y="299.373451" style="fill-opacity: 0.3"/>
     <use xlink:href="#m912dd8f8cb" x="152.400533" y="299.373451" style="fill-opacity: 0.3"/>
     <use xlink:href="#m912dd8f8cb" x="156.110928" y="299.373451" style="fill-opacity: 0.3"/>
     <use xlink:href="#m912dd8f8cb" x="155.932189" y="299.373451" style="fill-opacity: 0.3"/>
     <use xlink:href="#m912dd8f8cb" x="140.294277" y="299.373451" style="fill-opacity: 0.3"/>
    </g>
   </g>
   <g id="PathCollection_2">
    <g clip-path="url(#p0dafca4983)">
     <use xlink:href="#m912dd8f8cb" x="256.888334" y="301.709735" style="fill-opacity: 0.3"/>
     <use xlink:href="#m912dd8f8cb" x="256.601929" y="301.709735" style="fill-opacity: 0.3"/>
     <use xlink:href="#m912dd8f8cb" x="251.218995" y="301.709735" style="fill-opacity: 0.3"/>
     <use xlink:href="#m912dd8f8cb" x="260.977996" y="301.709735" style="fill-opacity: 0.3"/>
     <use xlink:href="#m912dd8f8cb" x="246.531794" y="301.709735" style="fill-opacity: 0.3"/>
     <use xlink:href="#m912dd8f8cb" x="251.848374" y="301.709735" style="fill-opacity: 0.3"/>
     <use xlink:href="#m912dd8f8cb" x="257.34777" y="301.709735" style="fill-opacity: 0.3"/>
     <use xlink:href="#m912dd8f8cb" x="264.094439" y="301.709735" style="fill-opacity: 0.3"/>
     <use xlink:href="#m912dd8f8cb" x="265.394657" y="301.709735" style="fill-opacity: 0.3"/>
     <use xlink:href="#m912dd8f8cb" x="247.150814" y="301.709735" style="fill-opacity: 0.3"/>
     <use xlink:href="#m912dd8f8cb" x="266.90571" y="311.054867" style="fill-opacity: 0.3"/>
     <use xlink:href="#m912dd8f8cb" x="254.763586" y="311.054867" style="fill-opacity: 0.3"/>
     <use xlink:href="#m912dd8f8cb" x="251.31004" y="311.054867" style="fill-opacity: 0.3"/>
     <use xlink:href="#m912dd8f8cb" x="253.158591" y="311.054867" style="fill-opacity: 0.3"/>
     <use xlink:href="#m912dd8f8cb" x="266.606119" y="301.709735" style="fill-opacity: 0.3"/>
     <use xlink:href="#m912dd8f8cb" x="263.959331" y="299.373451" style="fill-opacity: 0.3"/>
     <use xlink:href="#m912dd8f8cb" x="247.057493" y="299.373451" style="fill-opacity: 0.3"/>
     <use xlink:href="#m912dd8f8cb" x="259.453007" y="299.373451" style="fill-opacity: 0.3"/>
     <use xlink:href="#m912dd8f8cb" x="265.543606" y="299.373451" style="fill-opacity: 0.3"/>
     <use xlink:href="#m912dd8f8cb" x="251.988553" y="299.373451" style="fill-opacity: 0.3"/>
     <use xlink:href="#m912dd8f8cb" x="266.655692" y="299.373451" style="fill-opacity: 0.3"/>
     <use xlink:href="#m912dd8f8cb" x="248.790439" y="299.373451" style="fill-opacity: 0.3"/>
     <use xlink:href="#m912dd8f8cb" x="263.400003" y="299.373451" style="fill-opacity: 0.3"/>
     <use xlink:href="#m912dd8f8cb" x="251.029089" y="299.373451" style="fill-opacity: 0.3"/>
     <use xlink:href="#m912dd8f8cb" x="256.716187" y="299.373451" style="fill-opacity: 0.3"/>
     <use xlink:href="#m912dd8f8cb" x="249.7488" y="299.373451" style="fill-opacity: 0.3"/>
     <use xlink:href="#m912dd8f8cb" x="254.633385" y="299.373451" style="fill-opacity: 0.3"/>
     <use xlink:href="#m912dd8f8cb" x="253.585456" y="299.373451" style="fill-opacity: 0.3"/>
     <use xlink:href="#m912dd8f8cb" x="260.025741" y="299.373451" style="fill-opacity: 0.3"/>
     <use xlink:href="#m912dd8f8cb" x="257.593964" y="299.373451" style="fill-opacity: 0.3"/>
     <use xlink:href="#m912dd8f8cb" x="268.062573" y="299.373451" style="fill-opacity: 0.3"/>
     <use xlink:href="#m912dd8f8cb" x="256.933267" y="299.373451" style="fill-opacity: 0.3"/>
     <use xlink:href="#m912dd8f8cb" x="257.214788" y="299.373451" style="fill-opacity: 0.3"/>
     <use xlink:href="#m912dd8f8cb" x="255.208051" y="299.373451" style="fill-opacity: 0.3"/>
     <use xlink:href="#m912dd8f8cb" x="248.557147" y="299.373451" style="fill-opacity: 0.3"/>
     <use xlink:href="#m912dd8f8cb" x="253.83229" y="299.373451" style="fill-opacity: 0.3"/>
     <use xlink:href="#m912dd8f8cb" x="257.833092" y="299.373451" style="fill-opacity: 0.3"/>
     <use xlink:href="#m912dd8f8cb" x="247.777753" y="299.373451" style="fill-opacity: 0.3"/>
     <use xlink:href="#m912dd8f8cb" x="260.062673" y="299.373451" style="fill-opacity: 0.3"/>
     <use xlink:href="#m912dd8f8cb" x="258.197879" y="299.373451" style="fill-opacity: 0.3"/>
     <use xlink:href="#m912dd8f8cb" x="258.114047" y="299.373451" style="fill-opacity: 0.3"/>
     <use xlink:href="#m912dd8f8cb" x="261.516647" y="299.373451" style="fill-opacity: 0.3"/>
     <use xlink:href="#m912dd8f8cb" x="267.530781" y="299.373451" style="fill-opacity: 0.3"/>
     <use xlink:href="#m912dd8f8cb" x="249.722369" y="299.373451" style="fill-opacity: 0.3"/>
     <use xlink:href="#m912dd8f8cb" x="257.900675" y="299.373451" style="fill-opacity: 0.3"/>
     <use xlink:href="#m912dd8f8cb" x="260.019919" y="299.373451" style="fill-opacity: 0.3"/>
     <use xlink:href="#m912dd8f8cb" x="246.964182" y="299.373451" style="fill-opacity: 0.3"/>
     <use xlink:href="#m912dd8f8cb" x="258.228974" y="299.373451" style="fill-opacity: 0.3"/>
     <use xlink:href="#m912dd8f8cb" x="261.01481" y="299.373451" style="fill-opacity: 0.3"/>
     <use xlink:href="#m912dd8f8cb" x="262.701632" y="299.373451" style="fill-opacity: 0.3"/>
     <use xlink:href="#m912dd8f8cb" x="253.645528" y="299.373451" style="fill-opacity: 0.3"/>
     <use xlink:href="#m912dd8f8cb" x="258.243633" y="299.373451" style="fill-opacity: 0.3"/>
     <use xlink:href="#m912dd8f8cb" x="262.678593" y="299.373451" style="fill-opacity: 0.3"/>
     <use xlink:href="#m912dd8f8cb" x="263.355382" y="299.373451" style="fill-opacity: 0.3"/>
     <use xlink:href="#m912dd8f8cb" x="261.612546" y="299.373451" style="fill-opacity: 0.3"/>
     <use xlink:href="#m912dd8f8cb" x="252.706921" y="299.373451" style="fill-opacity: 0.3"/>
     <use xlink:href="#m912dd8f8cb" x="251.297905" y="299.373451" style="fill-opacity: 0.3"/>
     <use xlink:href="#m912dd8f8cb" x="250.770183" y="299.373451" style="fill-opacity: 0.3"/>
     <use xlink:href="#m912dd8f8cb" x="248.543951" y="299.373451" style="fill-opacity: 0.3"/>
     <use xlink:href="#m912dd8f8cb" x="247.647762" y="299.373451" style="fill-opacity: 0.3"/>
     <use xlink:href="#m912dd8f8cb" x="263.840456" y="304.046018" style="fill-opacity: 0.3"/>
     <use xlink:href="#m912dd8f8cb" x="266.934054" y="304.046018" style="fill-opacity: 0.3"/>
     <use xlink:href="#m912dd8f8cb" x="268.213957" y="304.046018" style="fill-opacity: 0.3"/>
     <use xlink:href="#m912dd8f8cb" x="256.317685" y="304.046018" style="fill-opacity: 0.3"/>
     <use xlink:href="#m912dd8f8cb" x="254.605857" y="304.046018" style="fill-opacity: 0.3"/>
     <use xlink:href="#m912dd8f8cb" x="260.834698" y="304.046018" style="fill-opacity: 0.3"/>
     <use xlink:href="#m912dd8f8cb" x="246.945226" y="304.046018" style="fill-opacity: 0.3"/>
     <use xlink:href="#m912dd8f8cb" x="248.033623" y="304.046018" style="fill-opacity: 0.3"/>
     <use xlink:href="#m912dd8f8cb" x="258.662429" y="304.046018" style="fill-opacity: 0.3"/>
     <use xlink:href="#m912dd8f8cb" x="260.724807" y="304.046018" style="fill-opacity: 0.3"/>
     <use xlink:href="#m912dd8f8cb" x="263.693664" y="304.046018" style="fill-opacity: 0.3"/>
     <use xlink:href="#m912dd8f8cb" x="248.888678" y="304.046018" style="fill-opacity: 0.3"/>
     <use xlink:href="#m912dd8f8cb" x="252.326542" y="304.046018" style="fill-opacity: 0.3"/>
     <use xlink:href="#m912dd8f8cb" x="263.665176" y="304.046018" style="fill-opacity: 0.3"/>
     <use xlink:href="#m912dd8f8cb" x="265.901168" y="304.046018" style="fill-opacity: 0.3"/>
     <use xlink:href="#m912dd8f8cb" x="265.298928" y="304.046018" style="fill-opacity: 0.3"/>
     <use xlink:href="#m912dd8f8cb" x="251.6941" y="304.046018" style="fill-opacity: 0.3"/>
     <use xlink:href="#m912dd8f8cb" x="250.513711" y="304.046018" style="fill-opacity: 0.3"/>
     <use xlink:href="#m912dd8f8cb" x="264.293133" y="304.046018" style="fill-opacity: 0.3"/>
     <use xlink:href="#m912dd8f8cb" x="259.309086" y="304.046018" style="fill-opacity: 0.3"/>
     <use xlink:href="#m912dd8f8cb" x="254.742723" y="304.046018" style="fill-opacity: 0.3"/>
     <use xlink:href="#m912dd8f8cb" x="254.316016" y="304.046018" style="fill-opacity: 0.3"/>
     <use xlink:href="#m912dd8f8cb" x="255.895887" y="304.046018" style="fill-opacity: 0.3"/>
     <use xlink:href="#m912dd8f8cb" x="264.416349" y="299.373451" style="fill-opacity: 0.3"/>
     <use xlink:href="#m912dd8f8cb" x="251.953079" y="299.373451" style="fill-opacity: 0.3"/>
     <use xlink:href="#m912dd8f8cb" x="262.854157" y="299.373451" style="fill-opacity: 0.3"/>
     <use xlink:href="#m912dd8f8cb" x="253.490089" y="299.373451" style="fill-opacity: 0.3"/>
    </g>
   </g>
   <g id="PathCollection_3">
    <g clip-path="url(#p0dafca4983)">
     <use xlink:href="#m912dd8f8cb" x="369.18309" y="301.709735" style="fill-opacity: 0.3"/>
     <use xlink:href="#m912dd8f8cb" x="370.654608" y="301.709735" style="fill-opacity: 0.3"/>
     <use xlink:href="#m912dd8f8cb" x="358.006068" y="301.709735" style="fill-opacity: 0.3"/>
     <use xlink:href="#m912dd8f8cb" x="362.551672" y="301.709735" style="fill-opacity: 0.3"/>
     <use xlink:href="#m912dd8f8cb" x="371.003056" y="311.054867" style="fill-opacity: 0.3"/>
     <use xlink:href="#m912dd8f8cb" x="360.087909" y="311.054867" style="fill-opacity: 0.3"/>
     <use xlink:href="#m912dd8f8cb" x="364.862856" y="311.054867" style="fill-opacity: 0.3"/>
     <use xlink:href="#m912dd8f8cb" x="371.508599" y="301.709735" style="fill-opacity: 0.3"/>
     <use xlink:href="#m912dd8f8cb" x="362.559535" y="311.054867" style="fill-opacity: 0.3"/>
     <use xlink:href="#m912dd8f8cb" x="360.282603" y="301.709735" style="fill-opacity: 0.3"/>
     <use xlink:href="#m912dd8f8cb" x="362.91414" y="311.054867" style="fill-opacity: 0.3"/>
     <use xlink:href="#m912dd8f8cb" x="370.165181" y="299.373451" style="fill-opacity: 0.3"/>
     <use xlink:href="#m912dd8f8cb" x="375.582984" y="299.373451" style="fill-opacity: 0.3"/>
     <use xlink:href="#m912dd8f8cb" x="364.095288" y="299.373451" style="fill-opacity: 0.3"/>
     <use xlink:href="#m912dd8f8cb" x="365.514811" y="299.373451" style="fill-opacity: 0.3"/>
     <use xlink:href="#m912dd8f8cb" x="372.411824" y="299.373451" style="fill-opacity: 0.3"/>
     <use xlink:href="#m912dd8f8cb" x="376.882175" y="299.373451" style="fill-opacity: 0.3"/>
     <use xlink:href="#m912dd8f8cb" x="371.38938" y="299.373451" style="fill-opacity: 0.3"/>
     <use xlink:href="#m912dd8f8cb" x="379.184062" y="299.373451" style="fill-opacity: 0.3"/>
     <use xlink:href="#m912dd8f8cb" x="378.177369" y="299.373451" style="fill-opacity: 0.3"/>
     <use xlink:href="#m912dd8f8cb" x="375.495108" y="299.373451" style="fill-opacity: 0.3"/>
     <use xlink:href="#m912dd8f8cb" x="359.599691" y="299.373451" style="fill-opacity: 0.3"/>
     <use xlink:href="#m912dd8f8cb" x="374.374604" y="299.373451" style="fill-opacity: 0.3"/>
     <use xlink:href="#m912dd8f8cb" x="361.684481" y="299.373451" style="fill-opacity: 0.3"/>
     <use xlink:href="#m912dd8f8cb" x="379.819026" y="299.373451" style="fill-opacity: 0.3"/>
     <use xlink:href="#m912dd8f8cb" x="373.313576" y="299.373451" style="fill-opacity: 0.3"/>
     <use xlink:href="#m912dd8f8cb" x="374.411578" y="299.373451" style="fill-opacity: 0.3"/>
     <use xlink:href="#m912dd8f8cb" x="360.850646" y="299.373451" style="fill-opacity: 0.3"/>
     <use xlink:href="#m912dd8f8cb" x="364.607424" y="299.373451" style="fill-opacity: 0.3"/>
     <use xlink:href="#m912dd8f8cb" x="362.78622" y="299.373451" style="fill-opacity: 0.3"/>
     <use xlink:href="#m912dd8f8cb" x="379.440008" y="299.373451" style="fill-opacity: 0.3"/>
     <use xlink:href="#m912dd8f8cb" x="368.910199" y="299.373451" style="fill-opacity: 0.3"/>
     <use xlink:href="#m912dd8f8cb" x="373.338486" y="299.373451" style="fill-opacity: 0.3"/>
     <use xlink:href="#m912dd8f8cb" x="361.107095" y="299.373451" style="fill-opacity: 0.3"/>
     <use xlink:href="#m912dd8f8cb" x="359.989711" y="304.046018" style="fill-opacity: 0.3"/>
     <use xlink:href="#m912dd8f8cb" x="358.708548" y="304.046018" style="fill-opacity: 0.3"/>
     <use xlink:href="#m912dd8f8cb" x="378.751132" y="304.046018" style="fill-opacity: 0.3"/>
     <use xlink:href="#m912dd8f8cb" x="364.418171" y="304.046018" style="fill-opacity: 0.3"/>
     <use xlink:href="#m912dd8f8cb" x="368.978973" y="304.046018" style="fill-opacity: 0.3"/>
     <use xlink:href="#m912dd8f8cb" x="367.226929" y="304.046018" style="fill-opacity: 0.3"/>
     <use xlink:href="#m912dd8f8cb" x="360.416357" y="299.373451" style="fill-opacity: 0.3"/>
     <use xlink:href="#m912dd8f8cb" x="362.403374" y="299.373451" style="fill-opacity: 0.3"/>
    </g>
   </g>
   <g id="PathCollection_4">
    <g clip-path="url(#p0dafca4983)">
     <use xlink:href="#m912dd8f8cb" x="489.528281" y="311.054867" style="fill-opacity: 0.3"/>
     <use xlink:href="#m912dd8f8cb" x="469.945985" y="301.709735" style="fill-opacity: 0.3"/>
     <use xlink:href="#m912dd8f8cb" x="488.885543" y="299.373451" style="fill-opacity: 0.3"/>
     <use xlink:href="#m912dd8f8cb" x="491.410621" y="299.373451" style="fill-opacity: 0.3"/>
     <use xlink:href="#m912dd8f8cb" x="476.577774" y="299.373451" style="fill-opacity: 0.3"/>
     <use xlink:href="#m912dd8f8cb" x="484.62977" y="299.373451" style="fill-opacity: 0.3"/>
     <use xlink:href="#m912dd8f8cb" x="480.37703" y="299.373451" style="fill-opacity: 0.3"/>
     <use xlink:href="#m912dd8f8cb" x="478.81444" y="304.046018" style="fill-opacity: 0.3"/>
     <use xlink:href="#m912dd8f8cb" x="478.985207" y="304.046018" style="fill-opacity: 0.3"/>
     <use xlink:href="#m912dd8f8cb" x="480.217426" y="304.046018" style="fill-opacity: 0.3"/>
     <use xlink:href="#m912dd8f8cb" x="486.35554" y="304.046018" style="fill-opacity: 0.3"/>
     <use xlink:href="#m912dd8f8cb" x="486.866088" y="304.046018" style="fill-opacity: 0.3"/>
     <use xlink:href="#m912dd8f8cb" x="491.508166" y="304.046018" style="fill-opacity: 0.3"/>
     <use xlink:href="#m912dd8f8cb" x="488.328019" y="304.046018" style="fill-opacity: 0.3"/>
     <use xlink:href="#m912dd8f8cb" x="485.878252" y="304.046018" style="fill-opacity: 0.3"/>
     <use xlink:href="#m912dd8f8cb" x="483.462198" y="304.046018" style="fill-opacity: 0.3"/>
     <use xlink:href="#m912dd8f8cb" x="474.919587" y="304.046018" style="fill-opacity: 0.3"/>
     <use xlink:href="#m912dd8f8cb" x="485.023313" y="304.046018" style="fill-opacity: 0.3"/>
     <use xlink:href="#m912dd8f8cb" x="470.256719" y="299.373451" style="fill-opacity: 0.3"/>
     <use xlink:href="#m912dd8f8cb" x="469.61303" y="299.373451" style="fill-opacity: 0.3"/>
     <use xlink:href="#m912dd8f8cb" x="470.683613" y="299.373451" style="fill-opacity: 0.3"/>
     <use xlink:href="#m912dd8f8cb" x="483.879143" y="299.373451" style="fill-opacity: 0.3"/>
     <use xlink:href="#m912dd8f8cb" x="477.746098" y="299.373451" style="fill-opacity: 0.3"/>
     <use xlink:href="#m912dd8f8cb" x="470.923996" y="299.373451" style="fill-opacity: 0.3"/>
     <use xlink:href="#m912dd8f8cb" x="491.550574" y="299.373451" style="fill-opacity: 0.3"/>
     <use xlink:href="#m912dd8f8cb" x="474.356955" y="299.373451" style="fill-opacity: 0.3"/>
     <use xlink:href="#m912dd8f8cb" x="485.211209" y="299.373451" style="fill-opacity: 0.3"/>
    </g>
   </g>
   <g id="legend_1">
    <g id="patch_25">
     <path d="M 97 153.946875 
L 154.903125 153.946875 
Q 156.903125 153.946875 156.903125 151.946875 
L 156.903125 50.2 
Q 156.903125 48.2 154.903125 48.2 
L 97 48.2 
Q 95 48.2 95 50.2 
L 95 151.946875 
Q 95 153.946875 97 153.946875 
z
" style="fill: #ffffff; opacity: 0.8; stroke: #cccccc; stroke-linejoin: miter"/>
    </g>
    <g id="text_14">
     <!-- head-plate -->
     <g transform="translate(99 59.798437) scale(0.1 -0.1)">
      <defs>
       <path id="DejaVuSans-64" d="M 2906 2969 
L 2906 4863 
L 3481 4863 
L 3481 0 
L 2906 0 
L 2906 525 
Q 2725 213 2448 61 
Q 2172 -91 1784 -91 
Q 1150 -91 751 415 
Q 353 922 353 1747 
Q 353 2572 751 3078 
Q 1150 3584 1784 3584 
Q 2172 3584 2448 3432 
Q 2725 3281 2906 2969 
z
M 947 1747 
Q 947 1113 1208 752 
Q 1469 391 1925 391 
Q 2381 391 2643 752 
Q 2906 1113 2906 1747 
Q 2906 2381 2643 2742 
Q 2381 3103 1925 3103 
Q 1469 3103 1208 2742 
Q 947 2381 947 1747 
z
" transform="scale(0.015625)"/>
      </defs>
      <use xlink:href="#DejaVuSans-68"/>
      <use xlink:href="#DejaVuSans-65" transform="translate(63.378906 0)"/>
      <use xlink:href="#DejaVuSans-61" transform="translate(124.902344 0)"/>
      <use xlink:href="#DejaVuSans-64" transform="translate(186.181641 0)"/>
      <use xlink:href="#DejaVuSans-2d" transform="translate(249.658203 0)"/>
      <use xlink:href="#DejaVuSans-70" transform="translate(285.742188 0)"/>
      <use xlink:href="#DejaVuSans-6c" transform="translate(349.21875 0)"/>
      <use xlink:href="#DejaVuSans-61" transform="translate(377.001953 0)"/>
      <use xlink:href="#DejaVuSans-74" transform="translate(438.28125 0)"/>
      <use xlink:href="#DejaVuSans-65" transform="translate(477.490234 0)"/>
     </g>
    </g>
    <g id="patch_26">
     <path d="M 107.08125 74.476562 
L 127.08125 74.476562 
L 127.08125 67.476562 
L 107.08125 67.476562 
z
" style="fill: #3274a1"/>
    </g>
    <g id="text_15">
     <!-- f -->
     <g transform="translate(135.08125 74.476562) scale(0.1 -0.1)">
      <use xlink:href="#DejaVuSans-66"/>
     </g>
    </g>
    <g id="patch_27">
     <path d="M 107.08125 89.154688 
L 127.08125 89.154688 
L 127.08125 82.154688 
L 107.08125 82.154688 
z
" style="fill: #e1812c"/>
    </g>
    <g id="text_16">
     <!-- m -->
     <g transform="translate(135.08125 89.154688) scale(0.1 -0.1)">
      <defs>
       <path id="DejaVuSans-6d" d="M 3328 2828 
Q 3544 3216 3844 3400 
Q 4144 3584 4550 3584 
Q 5097 3584 5394 3201 
Q 5691 2819 5691 2113 
L 5691 0 
L 5113 0 
L 5113 2094 
Q 5113 2597 4934 2840 
Q 4756 3084 4391 3084 
Q 3944 3084 3684 2787 
Q 3425 2491 3425 1978 
L 3425 0 
L 2847 0 
L 2847 2094 
Q 2847 2600 2669 2842 
Q 2491 3084 2119 3084 
Q 1678 3084 1418 2786 
Q 1159 2488 1159 1978 
L 1159 0 
L 581 0 
L 581 3500 
L 1159 3500 
L 1159 2956 
Q 1356 3278 1631 3431 
Q 1906 3584 2284 3584 
Q 2666 3584 2933 3390 
Q 3200 3197 3328 2828 
z
" transform="scale(0.015625)"/>
      </defs>
      <use xlink:href="#DejaVuSans-6d"/>
     </g>
    </g>
    <g id="patch_28">
     <path d="M 107.08125 103.832812 
L 127.08125 103.832812 
L 127.08125 96.832812 
L 107.08125 96.832812 
z
" style="fill: #3274a1"/>
    </g>
    <g id="text_17">
     <!-- f -->
     <g transform="translate(135.08125 103.832812) scale(0.1 -0.1)">
      <use xlink:href="#DejaVuSans-66"/>
     </g>
    </g>
    <g id="patch_29">
     <path d="M 107.08125 118.510938 
L 127.08125 118.510938 
L 127.08125 111.510938 
L 107.08125 111.510938 
z
" style="fill: #e1812c"/>
    </g>
    <g id="text_18">
     <!-- m -->
     <g transform="translate(135.08125 118.510938) scale(0.1 -0.1)">
      <use xlink:href="#DejaVuSans-6d"/>
     </g>
    </g>
    <g id="patch_30">
     <path d="M 107.08125 133.189063 
L 127.08125 133.189063 
L 127.08125 126.189063 
L 107.08125 126.189063 
z
" style="fill: #3274a1"/>
    </g>
    <g id="text_19">
     <!-- n -->
     <g transform="translate(135.08125 133.189063) scale(0.1 -0.1)">
      <use xlink:href="#DejaVuSans-6e"/>
     </g>
    </g>
    <g id="patch_31">
     <path d="M 107.08125 147.867188 
L 127.08125 147.867188 
L 127.08125 140.867188 
L 107.08125 140.867188 
z
" style="fill: #e1812c"/>
    </g>
    <g id="text_20">
     <!-- y -->
     <g transform="translate(135.08125 147.867188) scale(0.1 -0.1)">
      <use xlink:href="#DejaVuSans-79"/>
     </g>
    </g>
   </g>
  </g>
 </g>
 <defs>
  <clipPath id="p0dafca4983">
   <rect x="90" y="43.2" width="558" height="277.2"/>
  </clipPath>
 </defs>
</svg>
