<?xml version="1.0" encoding="utf-8" standalone="no"?>
<!DOCTYPE svg PUBLIC "-//W3C//DTD SVG 1.1//EN"
  "http://www.w3.org/Graphics/SVG/1.1/DTD/svg11.dtd">
<svg xmlns:xlink="http://www.w3.org/1999/xlink" width="720pt" height="360pt" viewBox="0 0 720 360" xmlns="http://www.w3.org/2000/svg" version="1.1">
 <metadata>
  <rdf:RDF xmlns:dc="http://purl.org/dc/elements/1.1/" xmlns:cc="http://creativecommons.org/ns#" xmlns:rdf="http://www.w3.org/1999/02/22-rdf-syntax-ns#">
   <cc:Work>
    <dc:type rdf:resource="http://purl.org/dc/dcmitype/StillImage"/>
    <dc:date>2025-09-11T15:14:57.119111</dc:date>
    <dc:format>image/svg+xml</dc:format>
    <dc:creator>
     <cc:Agent>
      <dc:title>Matplotlib v3.10.3, https://matplotlib.org/</dc:title>
     </cc:Agent>
    </dc:creator>
   </cc:Work>
  </rdf:RDF>
 </metadata>
 <defs>
  <style type="text/css">*{stroke-linejoin: round; stroke-linecap: butt}</style>
 </defs>
 <g id="figure_1">
  <g id="patch_1">
   <path d="M 0 360 
L 720 360 
L 720 0 
L 0 0 
z
" style="fill: #ffffff"/>
  </g>
  <g id="axes_1">
   <g id="patch_2">
    <path d="M 90 320.4 
L 648 320.4 
L 648 43.2 
L 90 43.2 
z
" style="fill: #ffffff"/>
   </g>
   <g id="FillBetweenPolyCollection_1">
    <defs>
     <path id="m049ad2bfc0" d="M 160.185913 -52.2 
L 159.314087 -52.2 
L 159.182169 -54.721006 
L 159.01931 -57.242012 
L 158.820668 -59.763019 
L 158.581071 -62.284025 
L 158.294999 -64.805031 
L 157.956527 -67.326037 
L 157.559231 -69.847043 
L 157.09607 -72.36805 
L 156.55925 -74.889056 
L 155.940114 -77.410062 
L 155.229089 -79.931068 
L 154.415733 -82.452074 
L 153.488944 -84.973081 
L 152.437347 -87.494087 
L 151.249906 -90.015093 
L 149.916745 -92.536099 
L 148.430141 -95.057105 
L 146.785652 -97.578112 
L 144.983246 -100.099118 
L 143.028353 -102.620124 
L 140.932682 -105.14113 
L 138.714695 -107.662137 
L 136.399631 -110.183143 
L 134.019019 -112.704149 
L 131.609648 -115.225155 
L 129.21205 -117.746161 
L 126.868572 -120.267168 
L 124.621179 -122.788174 
L 122.509153 -125.30918 
L 120.566874 -127.830186 
L 118.821853 -130.351192 
L 117.293187 -132.872199 
L 115.99054 -135.393205 
L 114.91374 -137.914211 
L 114.053005 -140.435217 
L 113.389772 -142.956223 
L 112.898076 -145.47723 
L 112.546349 -147.998236 
L 112.299508 -150.519242 
L 112.121188 -153.040248 
L 111.975933 -155.561254 
L 111.831207 -158.082261 
L 111.659071 -160.603267 
L 111.437421 -163.124273 
L 111.150734 -165.645279 
L 110.790284 -168.166285 
L 110.353905 -170.687292 
L 109.845365 -173.208298 
L 109.273492 -175.729304 
L 108.651193 -178.25031 
L 107.994509 -180.771316 
L 107.3218 -183.292323 
L 106.653124 -185.813329 
L 106.009802 -188.334335 
L 105.414112 -190.855341 
L 104.889006 -193.376348 
L 104.457733 -195.897354 
L 104.143269 -198.41836 
L 103.967474 -200.939366 
L 103.95 -203.460372 
L 104.107001 -205.981379 
L 104.449801 -208.502385 
L 104.983699 -211.023391 
L 105.707118 -213.544397 
L 106.611279 -216.065403 
L 107.680533 -218.58641 
L 108.893378 -221.107416 
L 110.224124 -223.628422 
L 111.645047 -226.149428 
L 113.128797 -228.670434 
L 114.650796 -231.191441 
L 116.191329 -233.712447 
L 117.737081 -236.233453 
L 119.281926 -238.754459 
L 120.826884 -241.275465 
L 122.379235 -243.796472 
L 123.950924 -246.317478 
L 125.556438 -248.838484 
L 127.210416 -251.35949 
L 128.925268 -253.880496 
L 130.709087 -256.401503 
L 132.564052 -258.922509 
L 134.485509 -261.443515 
L 136.461784 -263.964521 
L 138.474729 -266.485527 
L 140.500892 -269.006534 
L 142.513172 -271.52754 
L 144.482752 -274.048546 
L 146.381105 -276.569552 
L 148.181865 -279.090558 
L 149.862415 -281.611565 
L 151.40505 -284.132571 
L 152.79767 -286.653577 
L 154.03399 -289.174583 
L 155.113302 -291.69559 
L 156.039888 -294.216596 
L 156.822158 -296.737602 
L 157.471655 -299.258608 
L 158.00201 -301.779614 
L 161.49799 -301.779614 
L 161.49799 -301.779614 
L 162.028345 -299.258608 
L 162.677842 -296.737602 
L 163.460112 -294.216596 
L 164.386698 -291.69559 
L 165.46601 -289.174583 
L 166.70233 -286.653577 
L 168.09495 -284.132571 
L 169.637585 -281.611565 
L 171.318135 -279.090558 
L 173.118895 -276.569552 
L 175.017248 -274.048546 
L 176.986828 -271.52754 
L 178.999108 -269.006534 
L 181.025271 -266.485527 
L 183.038216 -263.964521 
L 185.014491 -261.443515 
L 186.935948 -258.922509 
L 188.790913 -256.401503 
L 190.574732 -253.880496 
L 192.289584 -251.35949 
L 193.943562 -248.838484 
L 195.549076 -246.317478 
L 197.120765 -243.796472 
L 198.673116 -241.275465 
L 200.218074 -238.754459 
L 201.762919 -236.233453 
L 203.308671 -233.712447 
L 204.849204 -231.191441 
L 206.371203 -228.670434 
L 207.854953 -226.149428 
L 209.275876 -223.628422 
L 210.606622 -221.107416 
L 211.819467 -218.58641 
L 212.888721 -216.065403 
L 213.792882 -213.544397 
L 214.516301 -211.023391 
L 215.050199 -208.502385 
L 215.392999 -205.981379 
L 215.55 -203.460372 
L 215.532526 -200.939366 
L 215.356731 -198.41836 
L 215.042267 -195.897354 
L 214.610994 -193.376348 
L 214.085888 -190.855341 
L 213.490198 -188.334335 
L 212.846876 -185.813329 
L 212.1782 -183.292323 
L 211.505491 -180.771316 
L 210.848807 -178.25031 
L 210.226508 -175.729304 
L 209.654635 -173.208298 
L 209.146095 -170.687292 
L 208.709716 -168.166285 
L 208.349266 -165.645279 
L 208.062579 -163.124273 
L 207.840929 -160.603267 
L 207.668793 -158.082261 
L 207.524067 -155.561254 
L 207.378812 -153.040248 
L 207.200492 -150.519242 
L 206.953651 -147.998236 
L 206.601924 -145.47723 
L 206.110228 -142.956223 
L 205.446995 -140.435217 
L 204.58626 -137.914211 
L 203.50946 -135.393205 
L 202.206813 -132.872199 
L 200.678147 -130.351192 
L 198.933126 -127.830186 
L 196.990847 -125.30918 
L 194.878821 -122.788174 
L 192.631428 -120.267168 
L 190.28795 -117.746161 
L 187.890352 -115.225155 
L 185.480981 -112.704149 
L 183.100369 -110.183143 
L 180.785305 -107.662137 
L 178.567318 -105.14113 
L 176.471647 -102.620124 
L 174.516754 -100.099118 
L 172.714348 -97.578112 
L 171.069859 -95.057105 
L 169.583255 -92.536099 
L 168.250094 -90.015093 
L 167.062653 -87.494087 
L 166.011056 -84.973081 
L 165.084267 -82.452074 
L 164.270911 -79.931068 
L 163.559886 -77.410062 
L 162.94075 -74.889056 
L 162.40393 -72.36805 
L 161.940769 -69.847043 
L 161.543473 -67.326037 
L 161.205001 -64.805031 
L 160.918929 -62.284025 
L 160.679332 -59.763019 
L 160.48069 -57.242012 
L 160.317831 -54.721006 
L 160.185913 -52.2 
z
" style="stroke: #3d3d3d; stroke-width: 1.25"/>
    </defs>
    <g clip-path="url(#p6512acfe80)">
     <use xlink:href="#m049ad2bfc0" x="0" y="360" style="fill: #3274a1; stroke: #3d3d3d; stroke-width: 1.25"/>
    </g>
   </g>
   <g id="FillBetweenPolyCollection_2">
    <defs>
     <path id="m14fd07d2ec" d="M 299.501277 -92.566446 
L 298.998723 -92.566446 
L 298.898048 -94.524447 
L 298.766321 -96.482448 
L 298.597177 -98.440449 
L 298.383733 -100.39845 
L 298.118618 -102.35645 
L 297.793994 -104.314451 
L 297.401567 -106.272452 
L 296.932632 -108.230453 
L 296.378218 -110.188454 
L 295.729415 -112.146455 
L 294.97794 -114.104455 
L 294.117008 -116.062456 
L 293.142498 -118.020457 
L 292.054332 -119.978458 
L 290.857934 -121.936459 
L 289.565543 -123.89446 
L 288.197106 -125.852461 
L 286.780513 -127.810461 
L 285.350907 -129.768462 
L 283.948959 -131.726463 
L 282.618088 -133.684464 
L 281.400775 -135.642465 
L 280.334293 -137.600466 
L 279.446314 -139.558466 
L 278.750942 -141.516467 
L 278.245763 -143.474468 
L 277.910428 -145.432469 
L 277.707134 -147.39047 
L 277.583133 -149.348471 
L 277.475128 -151.306471 
L 277.315115 -153.264472 
L 277.036988 -155.222473 
L 276.583066 -157.180474 
L 275.909661 -159.138475 
L 274.990908 -161.096476 
L 273.820332 -163.054476 
L 272.409968 -165.012477 
L 270.787248 -166.970478 
L 268.990277 -168.928479 
L 267.06236 -170.88648 
L 265.046799 -172.844481 
L 262.982874 -174.802482 
L 260.903632 -176.760482 
L 258.835716 -178.718483 
L 256.800952 -180.676484 
L 254.81905 -182.634485 
L 252.91051 -184.592486 
L 251.098843 -186.550487 
L 249.411448 -188.508487 
L 247.87888 -190.466488 
L 246.532751 -192.424489 
L 245.402853 -194.38249 
L 244.514367 -196.340491 
L 243.885951 -198.298492 
L 243.529259 -200.256492 
L 243.45 -202.214493 
L 243.650208 -204.172494 
L 244.130988 -206.130495 
L 244.894868 -208.088496 
L 245.946942 -210.046497 
L 247.294319 -212.004497 
L 248.94382 -213.962498 
L 250.898341 -215.920499 
L 253.15267 -217.8785 
L 255.68971 -219.836501 
L 258.477986 -221.794502 
L 261.471059 -223.752503 
L 264.609077 -225.710503 
L 267.822263 -227.668504 
L 271.035798 -229.626505 
L 274.175344 -231.584506 
L 277.172422 -233.542507 
L 279.968968 -235.500508 
L 282.520597 -237.458508 
L 284.798369 -239.416509 
L 286.789082 -241.37451 
L 288.49429 -243.332511 
L 289.928334 -245.290512 
L 291.115729 -247.248513 
L 292.088188 -249.206513 
L 292.88156 -251.164514 
L 293.53289 -253.122515 
L 294.077765 -255.080516 
L 294.548111 -257.038517 
L 294.970542 -258.996518 
L 295.365345 -260.954519 
L 295.746151 -262.912519 
L 296.120238 -264.87052 
L 296.489401 -266.828521 
L 296.851214 -268.786522 
L 297.200513 -270.744523 
L 297.530884 -272.702524 
L 297.835989 -274.660524 
L 298.110585 -276.618525 
L 298.351178 -278.576526 
L 298.55629 -280.534527 
L 298.726403 -282.492528 
L 298.863657 -284.450529 
L 298.971403 -286.408529 
L 299.528597 -286.408529 
L 299.528597 -286.408529 
L 299.636343 -284.450529 
L 299.773597 -282.492528 
L 299.94371 -280.534527 
L 300.148822 -278.576526 
L 300.389415 -276.618525 
L 300.664011 -274.660524 
L 300.969116 -272.702524 
L 301.299487 -270.744523 
L 301.648786 -268.786522 
L 302.010599 -266.828521 
L 302.379762 -264.87052 
L 302.753849 -262.912519 
L 303.134655 -260.954519 
L 303.529458 -258.996518 
L 303.951889 -257.038517 
L 304.422235 -255.080516 
L 304.96711 -253.122515 
L 305.61844 -251.164514 
L 306.411812 -249.206513 
L 307.384271 -247.248513 
L 308.571666 -245.290512 
L 310.00571 -243.332511 
L 311.710918 -241.37451 
L 313.701631 -239.416509 
L 315.979403 -237.458508 
L 318.531032 -235.500508 
L 321.327578 -233.542507 
L 324.324656 -231.584506 
L 327.464202 -229.626505 
L 330.677737 -227.668504 
L 333.890923 -225.710503 
L 337.028941 -223.752503 
L 340.022014 -221.794502 
L 342.81029 -219.836501 
L 345.34733 -217.8785 
L 347.601659 -215.920499 
L 349.55618 -213.962498 
L 351.205681 -212.004497 
L 352.553058 -210.046497 
L 353.605132 -208.088496 
L 354.369012 -206.130495 
L 354.849792 -204.172494 
L 355.05 -202.214493 
L 354.970741 -200.256492 
L 354.614049 -198.298492 
L 353.985633 -196.340491 
L 353.097147 -194.38249 
L 351.967249 -192.424489 
L 350.62112 -190.466488 
L 349.088552 -188.508487 
L 347.401157 -186.550487 
L 345.58949 -184.592486 
L 343.68095 -182.634485 
L 341.699048 -180.676484 
L 339.664284 -178.718483 
L 337.596368 -176.760482 
L 335.517126 -174.802482 
L 333.453201 -172.844481 
L 331.43764 -170.88648 
L 329.509723 -168.928479 
L 327.712752 -166.970478 
L 326.090032 -165.012477 
L 324.679668 -163.054476 
L 323.509092 -161.096476 
L 322.590339 -159.138475 
L 321.916934 -157.180474 
L 321.463012 -155.222473 
L 321.184885 -153.264472 
L 321.024872 -151.306471 
L 320.916867 -149.348471 
L 320.792866 -147.39047 
L 320.589572 -145.432469 
L 320.254237 -143.474468 
L 319.749058 -141.516467 
L 319.053686 -139.558466 
L 318.165707 -137.600466 
L 317.099225 -135.642465 
L 315.881912 -133.684464 
L 314.551041 -131.726463 
L 313.149093 -129.768462 
L 311.719487 -127.810461 
L 310.302894 -125.852461 
L 308.934457 -123.89446 
L 307.642066 -121.936459 
L 306.445668 -119.978458 
L 305.357502 -118.020457 
L 304.382992 -116.062456 
L 303.52206 -114.104455 
L 302.770585 -112.146455 
L 302.121782 -110.188454 
L 301.567368 -108.230453 
L 301.098433 -106.272452 
L 300.706006 -104.314451 
L 300.381382 -102.35645 
L 300.116267 -100.39845 
L 299.902823 -98.440449 
L 299.733679 -96.482448 
L 299.601952 -94.524447 
L 299.501277 -92.566446 
z
" style="stroke: #3d3d3d; stroke-width: 1.25"/>
    </defs>
    <g clip-path="url(#p6512acfe80)">
     <use xlink:href="#m14fd07d2ec" x="0" y="360" style="fill: #e1812c; stroke: #3d3d3d; stroke-width: 1.25"/>
    </g>
   </g>
   <g id="FillBetweenPolyCollection_3">
    <defs>
     <path id="m9668955213" d="M 439.149692 -93.640694 
L 438.350308 -93.640694 
L 438.216711 -95.634072 
L 438.050025 -97.62745 
L 437.84556 -99.620828 
L 437.598684 -101.614206 
L 437.304862 -103.607584 
L 436.95962 -105.600962 
L 436.558432 -107.59434 
L 436.096566 -109.587718 
L 435.568925 -111.581096 
L 434.969966 -113.574474 
L 434.293773 -115.567852 
L 433.534382 -117.56123 
L 432.686386 -119.554608 
L 431.745847 -121.547986 
L 430.711437 -123.541364 
L 429.58569 -125.534742 
L 428.376141 -127.52812 
L 427.096143 -129.521498 
L 425.765104 -131.514876 
L 424.407956 -133.508254 
L 423.053763 -135.501632 
L 421.733474 -137.49501 
L 420.476998 -139.488388 
L 419.309875 -141.481766 
L 418.24995 -143.475144 
L 417.304453 -145.468522 
L 416.467927 -147.4619 
L 415.721315 -149.455278 
L 415.032432 -151.448656 
L 414.357848 -153.442034 
L 413.646089 -155.435412 
L 412.841872 -157.42879 
L 411.891001 -159.422168 
L 410.745475 -161.415546 
L 409.368332 -163.408924 
L 407.73779 -165.402302 
L 405.8503 -167.39568 
L 403.722233 -169.389058 
L 401.390031 -171.382436 
L 398.908792 -173.375814 
L 396.349372 -175.369192 
L 393.794233 -177.36257 
L 391.332362 -179.355948 
L 389.053655 -181.349326 
L 387.043245 -183.342704 
L 385.376218 -185.336082 
L 384.113138 -187.32946 
L 383.296742 -189.322838 
L 382.95 -191.316216 
L 383.075659 -193.309594 
L 383.657194 -195.302972 
L 384.661008 -197.29635 
L 386.039601 -199.289728 
L 387.735378 -201.283106 
L 389.684746 -203.276484 
L 391.822182 -205.269862 
L 394.083985 -207.26324 
L 396.411482 -209.256618 
L 398.753556 -211.249996 
L 401.068387 -213.243374 
L 403.324365 -215.236752 
L 405.500204 -217.23013 
L 407.584298 -219.223508 
L 409.573417 -221.216886 
L 411.470901 -223.210264 
L 413.284518 -225.203642 
L 415.024198 -227.19702 
L 416.699876 -229.190398 
L 418.319636 -231.183776 
L 419.888361 -233.177154 
L 421.406982 -235.170532 
L 422.872393 -237.16391 
L 424.277996 -239.157288 
L 425.614752 -241.150666 
L 426.872585 -243.144044 
L 428.041916 -245.137422 
L 429.11512 -247.1308 
L 430.087699 -249.124178 
L 430.959021 -251.117556 
L 431.732559 -253.110934 
L 432.415594 -255.104312 
L 433.01847 -257.09769 
L 433.553508 -259.091068 
L 434.033753 -261.084446 
L 434.471732 -263.077824 
L 434.878368 -265.071202 
L 435.262206 -267.06458 
L 435.628993 -269.057958 
L 435.981649 -271.051336 
L 436.320573 -273.044714 
L 436.644203 -275.038092 
L 436.949729 -277.03147 
L 437.233825 -279.024848 
L 437.49332 -281.018226 
L 437.725723 -283.011604 
L 437.929555 -285.004982 
L 438.104496 -286.99836 
L 438.251359 -288.991738 
L 438.371925 -290.985116 
L 439.128075 -290.985116 
L 439.128075 -290.985116 
L 439.248641 -288.991738 
L 439.395504 -286.99836 
L 439.570445 -285.004982 
L 439.774277 -283.011604 
L 440.00668 -281.018226 
L 440.266175 -279.024848 
L 440.550271 -277.03147 
L 440.855797 -275.038092 
L 441.179427 -273.044714 
L 441.518351 -271.051336 
L 441.871007 -269.057958 
L 442.237794 -267.06458 
L 442.621632 -265.071202 
L 443.028268 -263.077824 
L 443.466247 -261.084446 
L 443.946492 -259.091068 
L 444.48153 -257.09769 
L 445.084406 -255.104312 
L 445.767441 -253.110934 
L 446.540979 -251.117556 
L 447.412301 -249.124178 
L 448.38488 -247.1308 
L 449.458084 -245.137422 
L 450.627415 -243.144044 
L 451.885248 -241.150666 
L 453.222004 -239.157288 
L 454.627607 -237.16391 
L 456.093018 -235.170532 
L 457.611639 -233.177154 
L 459.180364 -231.183776 
L 460.800124 -229.190398 
L 462.475802 -227.19702 
L 464.215482 -225.203642 
L 466.029099 -223.210264 
L 467.926583 -221.216886 
L 469.915702 -219.223508 
L 471.999796 -217.23013 
L 474.175635 -215.236752 
L 476.431613 -213.243374 
L 478.746444 -211.249996 
L 481.088518 -209.256618 
L 483.416015 -207.26324 
L 485.677818 -205.269862 
L 487.815254 -203.276484 
L 489.764622 -201.283106 
L 491.460399 -199.289728 
L 492.838992 -197.29635 
L 493.842806 -195.302972 
L 494.424341 -193.309594 
L 494.55 -191.316216 
L 494.203258 -189.322838 
L 493.386862 -187.32946 
L 492.123782 -185.336082 
L 490.456755 -183.342704 
L 488.446345 -181.349326 
L 486.167638 -179.355948 
L 483.705767 -177.36257 
L 481.150628 -175.369192 
L 478.591208 -173.375814 
L 476.109969 -171.382436 
L 473.777767 -169.389058 
L 471.6497 -167.39568 
L 469.76221 -165.402302 
L 468.131668 -163.408924 
L 466.754525 -161.415546 
L 465.608999 -159.422168 
L 464.658128 -157.42879 
L 463.853911 -155.435412 
L 463.142152 -153.442034 
L 462.467568 -151.448656 
L 461.778685 -149.455278 
L 461.032073 -147.4619 
L 460.195547 -145.468522 
L 459.25005 -143.475144 
L 458.190125 -141.481766 
L 457.023002 -139.488388 
L 455.766526 -137.49501 
L 454.446237 -135.501632 
L 453.092044 -133.508254 
L 451.734896 -131.514876 
L 450.403857 -129.521498 
L 449.123859 -127.52812 
L 447.91431 -125.534742 
L 446.788563 -123.541364 
L 445.754153 -121.547986 
L 444.813614 -119.554608 
L 443.965618 -117.56123 
L 443.206227 -115.567852 
L 442.530034 -113.574474 
L 441.931075 -111.581096 
L 441.403434 -109.587718 
L 440.941568 -107.59434 
L 440.54038 -105.600962 
L 440.195138 -103.607584 
L 439.901316 -101.614206 
L 439.65444 -99.620828 
L 439.449975 -97.62745 
L 439.283289 -95.634072 
L 439.149692 -93.640694 
z
" style="stroke: #3d3d3d; stroke-width: 1.25"/>
    </defs>
    <g clip-path="url(#p6512acfe80)">
     <use xlink:href="#m9668955213" x="0" y="360" style="fill: #3a923a; stroke: #3d3d3d; stroke-width: 1.25"/>
    </g>
   </g>
   <g id="FillBetweenPolyCollection_4">
    <defs>
     <path id="m633e3daa7f" d="M 579.276115 -68.769139 
L 577.223885 -68.769139 
L 576.928162 -71.147229 
L 576.564181 -73.525318 
L 576.121138 -75.903408 
L 575.587794 -78.281497 
L 574.952787 -80.659587 
L 574.205004 -83.037676 
L 573.334024 -85.415766 
L 572.330603 -87.793855 
L 571.187188 -90.171945 
L 569.898433 -92.550034 
L 568.461689 -94.928124 
L 566.877434 -97.306213 
L 565.149605 -99.684303 
L 563.285806 -102.062392 
L 561.297365 -104.440482 
L 559.199213 -106.818571 
L 557.009581 -109.196661 
L 554.749527 -111.57475 
L 552.442291 -113.95284 
L 550.112528 -116.330929 
L 547.785455 -118.709019 
L 545.485958 -121.087108 
L 543.237731 -123.465198 
L 541.062482 -125.843287 
L 538.979276 -128.221377 
L 537.00404 -130.599466 
L 535.149266 -132.977556 
L 533.423916 -135.355645 
L 531.833528 -137.733735 
L 530.380492 -140.111824 
L 529.064479 -142.489914 
L 527.882967 -144.868003 
L 526.83183 -147.246093 
L 525.905945 -149.624182 
L 525.099766 -152.002272 
L 524.407856 -154.380361 
L 523.825314 -156.758451 
L 523.348104 -159.13654 
L 522.973264 -161.51463 
L 522.698974 -163.892719 
L 522.5245 -166.270809 
L 522.45 -168.648898 
L 522.476221 -171.026988 
L 522.604095 -173.405077 
L 522.834275 -175.783167 
L 523.166648 -178.161256 
L 523.599884 -180.539346 
L 524.131052 -182.917435 
L 524.755395 -185.295525 
L 525.466264 -187.673614 
L 526.255276 -190.051704 
L 527.112679 -192.429793 
L 528.027919 -194.807883 
L 528.990349 -197.185972 
L 529.990015 -199.564062 
L 531.018431 -201.942151 
L 532.069232 -204.320241 
L 533.138637 -206.69833 
L 534.225626 -209.07642 
L 535.33181 -211.454509 
L 536.460977 -213.832599 
L 537.618371 -216.210688 
L 538.809765 -218.588778 
L 540.040447 -220.966867 
L 541.314245 -223.344957 
L 542.632699 -225.723046 
L 543.994508 -228.101136 
L 545.395301 -230.479225 
L 546.827772 -232.857315 
L 548.282172 -235.235404 
L 549.747065 -237.613494 
L 551.210286 -239.991583 
L 552.659947 -242.369673 
L 554.085395 -244.747762 
L 555.477983 -247.125852 
L 556.831585 -249.503941 
L 558.142796 -251.882031 
L 559.410812 -254.26012 
L 560.637027 -256.63821 
L 561.824397 -259.016299 
L 562.976694 -261.394389 
L 564.097714 -263.772478 
L 565.190564 -266.150568 
L 566.25709 -268.528657 
L 567.297515 -270.906747 
L 568.310304 -273.284836 
L 569.292258 -275.662926 
L 570.238807 -278.041015 
L 571.144444 -280.419105 
L 572.003255 -282.797194 
L 572.809457 -285.175284 
L 573.557907 -287.553373 
L 574.244524 -289.931463 
L 574.866589 -292.309552 
L 575.422914 -294.687642 
L 575.913876 -297.065731 
L 576.341329 -299.443821 
L 576.708427 -301.82191 
L 577.019371 -304.2 
L 579.480629 -304.2 
L 579.480629 -304.2 
L 579.791573 -301.82191 
L 580.158671 -299.443821 
L 580.586124 -297.065731 
L 581.077086 -294.687642 
L 581.633411 -292.309552 
L 582.255476 -289.931463 
L 582.942093 -287.553373 
L 583.690543 -285.175284 
L 584.496745 -282.797194 
L 585.355556 -280.419105 
L 586.261193 -278.041015 
L 587.207742 -275.662926 
L 588.189696 -273.284836 
L 589.202485 -270.906747 
L 590.24291 -268.528657 
L 591.309436 -266.150568 
L 592.402286 -263.772478 
L 593.523306 -261.394389 
L 594.675603 -259.016299 
L 595.862973 -256.63821 
L 597.089188 -254.26012 
L 598.357204 -251.882031 
L 599.668415 -249.503941 
L 601.022017 -247.125852 
L 602.414605 -244.747762 
L 603.840053 -242.369673 
L 605.289714 -239.991583 
L 606.752935 -237.613494 
L 608.217828 -235.235404 
L 609.672228 -232.857315 
L 611.104699 -230.479225 
L 612.505492 -228.101136 
L 613.867301 -225.723046 
L 615.185755 -223.344957 
L 616.459553 -220.966867 
L 617.690235 -218.588778 
L 618.881629 -216.210688 
L 620.039023 -213.832599 
L 621.16819 -211.454509 
L 622.274374 -209.07642 
L 623.361363 -206.69833 
L 624.430768 -204.320241 
L 625.481569 -201.942151 
L 626.509985 -199.564062 
L 627.509651 -197.185972 
L 628.472081 -194.807883 
L 629.387321 -192.429793 
L 630.244724 -190.051704 
L 631.033736 -187.673614 
L 631.744605 -185.295525 
L 632.368948 -182.917435 
L 632.900116 -180.539346 
L 633.333352 -178.161256 
L 633.665725 -175.783167 
L 633.895905 -173.405077 
L 634.023779 -171.026988 
L 634.05 -168.648898 
L 633.9755 -166.270809 
L 633.801026 -163.892719 
L 633.526736 -161.51463 
L 633.151896 -159.13654 
L 632.674686 -156.758451 
L 632.092144 -154.380361 
L 631.400234 -152.002272 
L 630.594055 -149.624182 
L 629.66817 -147.246093 
L 628.617033 -144.868003 
L 627.435521 -142.489914 
L 626.119508 -140.111824 
L 624.666472 -137.733735 
L 623.076084 -135.355645 
L 621.350734 -132.977556 
L 619.49596 -130.599466 
L 617.520724 -128.221377 
L 615.437518 -125.843287 
L 613.262269 -123.465198 
L 611.014042 -121.087108 
L 608.714545 -118.709019 
L 606.387472 -116.330929 
L 604.057709 -113.95284 
L 601.750473 -111.57475 
L 599.490419 -109.196661 
L 597.300787 -106.818571 
L 595.202635 -104.440482 
L 593.214194 -102.062392 
L 591.350395 -99.684303 
L 589.622566 -97.306213 
L 588.038311 -94.928124 
L 586.601567 -92.550034 
L 585.312812 -90.171945 
L 584.169397 -87.793855 
L 583.165976 -85.415766 
L 582.294996 -83.037676 
L 581.547213 -80.659587 
L 580.912206 -78.281497 
L 580.378862 -75.903408 
L 579.935819 -73.525318 
L 579.571838 -71.147229 
L 579.276115 -68.769139 
z
" style="stroke: #3d3d3d; stroke-width: 1.25"/>
    </defs>
    <g clip-path="url(#p6512acfe80)">
     <use xlink:href="#m633e3daa7f" x="0" y="360" style="fill: #c03d3e; stroke: #3d3d3d; stroke-width: 1.25"/>
    </g>
   </g>
   <g id="matplotlib.axis_1">
    <g id="xtick_1">
     <g id="line2d_1">
      <defs>
       <path id="mb56344988d" d="M 0 0 
L 0 3.5 
" style="stroke: #000000; stroke-width: 0.8"/>
      </defs>
      <g>
       <use xlink:href="#mb56344988d" x="159.75" y="320.4" style="stroke: #000000; stroke-width: 0.8"/>
      </g>
     </g>
     <g id="text_1">
      <!-- Spurious -->
      <g transform="translate(137.955469 334.998438) scale(0.1 -0.1)">
       <defs>
        <path id="DejaVuSans-53" d="M 3425 4513 
L 3425 3897 
Q 3066 4069 2747 4153 
Q 2428 4238 2131 4238 
Q 1616 4238 1336 4038 
Q 1056 3838 1056 3469 
Q 1056 3159 1242 3001 
Q 1428 2844 1947 2747 
L 2328 2669 
Q 3034 2534 3370 2195 
Q 3706 1856 3706 1288 
Q 3706 609 3251 259 
Q 2797 -91 1919 -91 
Q 1588 -91 1214 -16 
Q 841 59 441 206 
L 441 856 
Q 825 641 1194 531 
Q 1563 422 1919 422 
Q 2459 422 2753 634 
Q 3047 847 3047 1241 
Q 3047 1584 2836 1778 
Q 2625 1972 2144 2069 
L 1759 2144 
Q 1053 2284 737 2584 
Q 422 2884 422 3419 
Q 422 4038 858 4394 
Q 1294 4750 2059 4750 
Q 2388 4750 2728 4690 
Q 3069 4631 3425 4513 
z
" transform="scale(0.015625)"/>
        <path id="DejaVuSans-70" d="M 1159 525 
L 1159 -1331 
L 581 -1331 
L 581 3500 
L 1159 3500 
L 1159 2969 
Q 1341 3281 1617 3432 
Q 1894 3584 2278 3584 
Q 2916 3584 3314 3078 
Q 3713 2572 3713 1747 
Q 3713 922 3314 415 
Q 2916 -91 2278 -91 
Q 1894 -91 1617 61 
Q 1341 213 1159 525 
z
M 3116 1747 
Q 3116 2381 2855 2742 
Q 2594 3103 2138 3103 
Q 1681 3103 1420 2742 
Q 1159 2381 1159 1747 
Q 1159 1113 1420 752 
Q 1681 391 2138 391 
Q 2594 391 2855 752 
Q 3116 1113 3116 1747 
z
" transform="scale(0.015625)"/>
        <path id="DejaVuSans-75" d="M 544 1381 
L 544 3500 
L 1119 3500 
L 1119 1403 
Q 1119 906 1312 657 
Q 1506 409 1894 409 
Q 2359 409 2629 706 
Q 2900 1003 2900 1516 
L 2900 3500 
L 3475 3500 
L 3475 0 
L 2900 0 
L 2900 538 
Q 2691 219 2414 64 
Q 2138 -91 1772 -91 
Q 1169 -91 856 284 
Q 544 659 544 1381 
z
M 1991 3584 
L 1991 3584 
z
" transform="scale(0.015625)"/>
        <path id="DejaVuSans-72" d="M 2631 2963 
Q 2534 3019 2420 3045 
Q 2306 3072 2169 3072 
Q 1681 3072 1420 2755 
Q 1159 2438 1159 1844 
L 1159 0 
L 581 0 
L 581 3500 
L 1159 3500 
L 1159 2956 
Q 1341 3275 1631 3429 
Q 1922 3584 2338 3584 
Q 2397 3584 2469 3576 
Q 2541 3569 2628 3553 
L 2631 2963 
z
" transform="scale(0.015625)"/>
        <path id="DejaVuSans-69" d="M 603 3500 
L 1178 3500 
L 1178 0 
L 603 0 
L 603 3500 
z
M 603 4863 
L 1178 4863 
L 1178 4134 
L 603 4134 
L 603 4863 
z
" transform="scale(0.015625)"/>
        <path id="DejaVuSans-6f" d="M 1959 3097 
Q 1497 3097 1228 2736 
Q 959 2375 959 1747 
Q 959 1119 1226 758 
Q 1494 397 1959 397 
Q 2419 397 2687 759 
Q 2956 1122 2956 1747 
Q 2956 2369 2687 2733 
Q 2419 3097 1959 3097 
z
M 1959 3584 
Q 2709 3584 3137 3096 
Q 3566 2609 3566 1747 
Q 3566 888 3137 398 
Q 2709 -91 1959 -91 
Q 1206 -91 779 398 
Q 353 888 353 1747 
Q 353 2609 779 3096 
Q 1206 3584 1959 3584 
z
" transform="scale(0.015625)"/>
        <path id="DejaVuSans-73" d="M 2834 3397 
L 2834 2853 
Q 2591 2978 2328 3040 
Q 2066 3103 1784 3103 
Q 1356 3103 1142 2972 
Q 928 2841 928 2578 
Q 928 2378 1081 2264 
Q 1234 2150 1697 2047 
L 1894 2003 
Q 2506 1872 2764 1633 
Q 3022 1394 3022 966 
Q 3022 478 2636 193 
Q 2250 -91 1575 -91 
Q 1294 -91 989 -36 
Q 684 19 347 128 
L 347 722 
Q 666 556 975 473 
Q 1284 391 1588 391 
Q 1994 391 2212 530 
Q 2431 669 2431 922 
Q 2431 1156 2273 1281 
Q 2116 1406 1581 1522 
L 1381 1569 
Q 847 1681 609 1914 
Q 372 2147 372 2553 
Q 372 3047 722 3315 
Q 1072 3584 1716 3584 
Q 2034 3584 2315 3537 
Q 2597 3491 2834 3397 
z
" transform="scale(0.015625)"/>
       </defs>
       <use xlink:href="#DejaVuSans-53"/>
       <use xlink:href="#DejaVuSans-70" transform="translate(63.476562 0)"/>
       <use xlink:href="#DejaVuSans-75" transform="translate(126.953125 0)"/>
       <use xlink:href="#DejaVuSans-72" transform="translate(190.332031 0)"/>
       <use xlink:href="#DejaVuSans-69" transform="translate(231.445312 0)"/>
       <use xlink:href="#DejaVuSans-6f" transform="translate(259.228516 0)"/>
       <use xlink:href="#DejaVuSans-75" transform="translate(320.410156 0)"/>
       <use xlink:href="#DejaVuSans-73" transform="translate(383.789062 0)"/>
      </g>
     </g>
    </g>
    <g id="xtick_2">
     <g id="line2d_2">
      <g>
       <use xlink:href="#mb56344988d" x="299.25" y="320.4" style="stroke: #000000; stroke-width: 0.8"/>
      </g>
     </g>
     <g id="text_2">
      <!-- Specific -->
      <g transform="translate(279.788281 334.998438) scale(0.1 -0.1)">
       <defs>
        <path id="DejaVuSans-65" d="M 3597 1894 
L 3597 1613 
L 953 1613 
Q 991 1019 1311 708 
Q 1631 397 2203 397 
Q 2534 397 2845 478 
Q 3156 559 3463 722 
L 3463 178 
Q 3153 47 2828 -22 
Q 2503 -91 2169 -91 
Q 1331 -91 842 396 
Q 353 884 353 1716 
Q 353 2575 817 3079 
Q 1281 3584 2069 3584 
Q 2775 3584 3186 3129 
Q 3597 2675 3597 1894 
z
M 3022 2063 
Q 3016 2534 2758 2815 
Q 2500 3097 2075 3097 
Q 1594 3097 1305 2825 
Q 1016 2553 972 2059 
L 3022 2063 
z
" transform="scale(0.015625)"/>
        <path id="DejaVuSans-63" d="M 3122 3366 
L 3122 2828 
Q 2878 2963 2633 3030 
Q 2388 3097 2138 3097 
Q 1578 3097 1268 2742 
Q 959 2388 959 1747 
Q 959 1106 1268 751 
Q 1578 397 2138 397 
Q 2388 397 2633 464 
Q 2878 531 3122 666 
L 3122 134 
Q 2881 22 2623 -34 
Q 2366 -91 2075 -91 
Q 1284 -91 818 406 
Q 353 903 353 1747 
Q 353 2603 823 3093 
Q 1294 3584 2113 3584 
Q 2378 3584 2631 3529 
Q 2884 3475 3122 3366 
z
" transform="scale(0.015625)"/>
        <path id="DejaVuSans-66" d="M 2375 4863 
L 2375 4384 
L 1825 4384 
Q 1516 4384 1395 4259 
Q 1275 4134 1275 3809 
L 1275 3500 
L 2222 3500 
L 2222 3053 
L 1275 3053 
L 1275 0 
L 697 0 
L 697 3053 
L 147 3053 
L 147 3500 
L 697 3500 
L 697 3744 
Q 697 4328 969 4595 
Q 1241 4863 1831 4863 
L 2375 4863 
z
" transform="scale(0.015625)"/>
       </defs>
       <use xlink:href="#DejaVuSans-53"/>
       <use xlink:href="#DejaVuSans-70" transform="translate(63.476562 0)"/>
       <use xlink:href="#DejaVuSans-65" transform="translate(126.953125 0)"/>
       <use xlink:href="#DejaVuSans-63" transform="translate(188.476562 0)"/>
       <use xlink:href="#DejaVuSans-69" transform="translate(243.457031 0)"/>
       <use xlink:href="#DejaVuSans-66" transform="translate(271.240234 0)"/>
       <use xlink:href="#DejaVuSans-69" transform="translate(306.445312 0)"/>
       <use xlink:href="#DejaVuSans-63" transform="translate(334.228516 0)"/>
      </g>
     </g>
    </g>
    <g id="xtick_3">
     <g id="line2d_3">
      <g>
       <use xlink:href="#mb56344988d" x="438.75" y="320.4" style="stroke: #000000; stroke-width: 0.8"/>
      </g>
     </g>
     <g id="text_3">
      <!-- Non-specific -->
      <g transform="translate(408.085156 334.998438) scale(0.1 -0.1)">
       <defs>
        <path id="DejaVuSans-4e" d="M 628 4666 
L 1478 4666 
L 3547 763 
L 3547 4666 
L 4159 4666 
L 4159 0 
L 3309 0 
L 1241 3903 
L 1241 0 
L 628 0 
L 628 4666 
z
" transform="scale(0.015625)"/>
        <path id="DejaVuSans-6e" d="M 3513 2113 
L 3513 0 
L 2938 0 
L 2938 2094 
Q 2938 2591 2744 2837 
Q 2550 3084 2163 3084 
Q 1697 3084 1428 2787 
Q 1159 2491 1159 1978 
L 1159 0 
L 581 0 
L 581 3500 
L 1159 3500 
L 1159 2956 
Q 1366 3272 1645 3428 
Q 1925 3584 2291 3584 
Q 2894 3584 3203 3211 
Q 3513 2838 3513 2113 
z
" transform="scale(0.015625)"/>
        <path id="DejaVuSans-2d" d="M 313 2009 
L 1997 2009 
L 1997 1497 
L 313 1497 
L 313 2009 
z
" transform="scale(0.015625)"/>
       </defs>
       <use xlink:href="#DejaVuSans-4e"/>
       <use xlink:href="#DejaVuSans-6f" transform="translate(74.804688 0)"/>
       <use xlink:href="#DejaVuSans-6e" transform="translate(135.986328 0)"/>
       <use xlink:href="#DejaVuSans-2d" transform="translate(199.365234 0)"/>
       <use xlink:href="#DejaVuSans-73" transform="translate(235.449219 0)"/>
       <use xlink:href="#DejaVuSans-70" transform="translate(287.548828 0)"/>
       <use xlink:href="#DejaVuSans-65" transform="translate(351.025391 0)"/>
       <use xlink:href="#DejaVuSans-63" transform="translate(412.548828 0)"/>
       <use xlink:href="#DejaVuSans-69" transform="translate(467.529297 0)"/>
       <use xlink:href="#DejaVuSans-66" transform="translate(495.3125 0)"/>
       <use xlink:href="#DejaVuSans-69" transform="translate(530.517578 0)"/>
       <use xlink:href="#DejaVuSans-63" transform="translate(558.300781 0)"/>
      </g>
     </g>
    </g>
    <g id="xtick_4">
     <g id="line2d_4">
      <g>
       <use xlink:href="#mb56344988d" x="578.25" y="320.4" style="stroke: #000000; stroke-width: 0.8"/>
      </g>
     </g>
     <g id="text_4">
      <!-- No -->
      <g transform="translate(571.45 334.998438) scale(0.1 -0.1)">
       <use xlink:href="#DejaVuSans-4e"/>
       <use xlink:href="#DejaVuSans-6f" transform="translate(74.804688 0)"/>
      </g>
     </g>
    </g>
    <g id="text_5">
     <!-- Connectivity category -->
     <g transform="translate(313.98125 348.676562) scale(0.1 -0.1)">
      <defs>
       <path id="DejaVuSans-43" d="M 4122 4306 
L 4122 3641 
Q 3803 3938 3442 4084 
Q 3081 4231 2675 4231 
Q 1875 4231 1450 3742 
Q 1025 3253 1025 2328 
Q 1025 1406 1450 917 
Q 1875 428 2675 428 
Q 3081 428 3442 575 
Q 3803 722 4122 1019 
L 4122 359 
Q 3791 134 3420 21 
Q 3050 -91 2638 -91 
Q 1578 -91 968 557 
Q 359 1206 359 2328 
Q 359 3453 968 4101 
Q 1578 4750 2638 4750 
Q 3056 4750 3426 4639 
Q 3797 4528 4122 4306 
z
" transform="scale(0.015625)"/>
       <path id="DejaVuSans-74" d="M 1172 4494 
L 1172 3500 
L 2356 3500 
L 2356 3053 
L 1172 3053 
L 1172 1153 
Q 1172 725 1289 603 
Q 1406 481 1766 481 
L 2356 481 
L 2356 0 
L 1766 0 
Q 1100 0 847 248 
Q 594 497 594 1153 
L 594 3053 
L 172 3053 
L 172 3500 
L 594 3500 
L 594 4494 
L 1172 4494 
z
" transform="scale(0.015625)"/>
       <path id="DejaVuSans-76" d="M 191 3500 
L 800 3500 
L 1894 563 
L 2988 3500 
L 3597 3500 
L 2284 0 
L 1503 0 
L 191 3500 
z
" transform="scale(0.015625)"/>
       <path id="DejaVuSans-79" d="M 2059 -325 
Q 1816 -950 1584 -1140 
Q 1353 -1331 966 -1331 
L 506 -1331 
L 506 -850 
L 844 -850 
Q 1081 -850 1212 -737 
Q 1344 -625 1503 -206 
L 1606 56 
L 191 3500 
L 800 3500 
L 1894 763 
L 2988 3500 
L 3597 3500 
L 2059 -325 
z
" transform="scale(0.015625)"/>
       <path id="DejaVuSans-20" transform="scale(0.015625)"/>
       <path id="DejaVuSans-61" d="M 2194 1759 
Q 1497 1759 1228 1600 
Q 959 1441 959 1056 
Q 959 750 1161 570 
Q 1363 391 1709 391 
Q 2188 391 2477 730 
Q 2766 1069 2766 1631 
L 2766 1759 
L 2194 1759 
z
M 3341 1997 
L 3341 0 
L 2766 0 
L 2766 531 
Q 2569 213 2275 61 
Q 1981 -91 1556 -91 
Q 1019 -91 701 211 
Q 384 513 384 1019 
Q 384 1609 779 1909 
Q 1175 2209 1959 2209 
L 2766 2209 
L 2766 2266 
Q 2766 2663 2505 2880 
Q 2244 3097 1772 3097 
Q 1472 3097 1187 3025 
Q 903 2953 641 2809 
L 641 3341 
Q 956 3463 1253 3523 
Q 1550 3584 1831 3584 
Q 2591 3584 2966 3190 
Q 3341 2797 3341 1997 
z
" transform="scale(0.015625)"/>
       <path id="DejaVuSans-67" d="M 2906 1791 
Q 2906 2416 2648 2759 
Q 2391 3103 1925 3103 
Q 1463 3103 1205 2759 
Q 947 2416 947 1791 
Q 947 1169 1205 825 
Q 1463 481 1925 481 
Q 2391 481 2648 825 
Q 2906 1169 2906 1791 
z
M 3481 434 
Q 3481 -459 3084 -895 
Q 2688 -1331 1869 -1331 
Q 1566 -1331 1297 -1286 
Q 1028 -1241 775 -1147 
L 775 -588 
Q 1028 -725 1275 -790 
Q 1522 -856 1778 -856 
Q 2344 -856 2625 -561 
Q 2906 -266 2906 331 
L 2906 616 
Q 2728 306 2450 153 
Q 2172 0 1784 0 
Q 1141 0 747 490 
Q 353 981 353 1791 
Q 353 2603 747 3093 
Q 1141 3584 1784 3584 
Q 2172 3584 2450 3431 
Q 2728 3278 2906 2969 
L 2906 3500 
L 3481 3500 
L 3481 434 
z
" transform="scale(0.015625)"/>
      </defs>
      <use xlink:href="#DejaVuSans-43"/>
      <use xlink:href="#DejaVuSans-6f" transform="translate(69.824219 0)"/>
      <use xlink:href="#DejaVuSans-6e" transform="translate(131.005859 0)"/>
      <use xlink:href="#DejaVuSans-6e" transform="translate(194.384766 0)"/>
      <use xlink:href="#DejaVuSans-65" transform="translate(257.763672 0)"/>
      <use xlink:href="#DejaVuSans-63" transform="translate(319.287109 0)"/>
      <use xlink:href="#DejaVuSans-74" transform="translate(374.267578 0)"/>
      <use xlink:href="#DejaVuSans-69" transform="translate(413.476562 0)"/>
      <use xlink:href="#DejaVuSans-76" transform="translate(441.259766 0)"/>
      <use xlink:href="#DejaVuSans-69" transform="translate(500.439453 0)"/>
      <use xlink:href="#DejaVuSans-74" transform="translate(528.222656 0)"/>
      <use xlink:href="#DejaVuSans-79" transform="translate(567.431641 0)"/>
      <use xlink:href="#DejaVuSans-20" transform="translate(626.611328 0)"/>
      <use xlink:href="#DejaVuSans-63" transform="translate(658.398438 0)"/>
      <use xlink:href="#DejaVuSans-61" transform="translate(713.378906 0)"/>
      <use xlink:href="#DejaVuSans-74" transform="translate(774.658203 0)"/>
      <use xlink:href="#DejaVuSans-65" transform="translate(813.867188 0)"/>
      <use xlink:href="#DejaVuSans-67" transform="translate(875.390625 0)"/>
      <use xlink:href="#DejaVuSans-6f" transform="translate(938.867188 0)"/>
      <use xlink:href="#DejaVuSans-72" transform="translate(1000.048828 0)"/>
      <use xlink:href="#DejaVuSans-79" transform="translate(1041.162109 0)"/>
     </g>
    </g>
   </g>
   <g id="matplotlib.axis_2">
    <g id="ytick_1">
     <g id="line2d_5">
      <defs>
       <path id="m2a3f04bfcc" d="M 0 0 
L -3.5 0 
" style="stroke: #000000; stroke-width: 0.8"/>
      </defs>
      <g>
       <use xlink:href="#m2a3f04bfcc" x="90" y="300.819064" style="stroke: #000000; stroke-width: 0.8"/>
      </g>
     </g>
     <g id="text_6">
      <!-- −10 -->
      <g transform="translate(61.895313 304.618283) scale(0.1 -0.1)">
       <defs>
        <path id="DejaVuSans-2212" d="M 678 2272 
L 4684 2272 
L 4684 1741 
L 678 1741 
L 678 2272 
z
" transform="scale(0.015625)"/>
        <path id="DejaVuSans-31" d="M 794 531 
L 1825 531 
L 1825 4091 
L 703 3866 
L 703 4441 
L 1819 4666 
L 2450 4666 
L 2450 531 
L 3481 531 
L 3481 0 
L 794 0 
L 794 531 
z
" transform="scale(0.015625)"/>
        <path id="DejaVuSans-30" d="M 2034 4250 
Q 1547 4250 1301 3770 
Q 1056 3291 1056 2328 
Q 1056 1369 1301 889 
Q 1547 409 2034 409 
Q 2525 409 2770 889 
Q 3016 1369 3016 2328 
Q 3016 3291 2770 3770 
Q 2525 4250 2034 4250 
z
M 2034 4750 
Q 2819 4750 3233 4129 
Q 3647 3509 3647 2328 
Q 3647 1150 3233 529 
Q 2819 -91 2034 -91 
Q 1250 -91 836 529 
Q 422 1150 422 2328 
Q 422 3509 836 4129 
Q 1250 4750 2034 4750 
z
" transform="scale(0.015625)"/>
       </defs>
       <use xlink:href="#DejaVuSans-2212"/>
       <use xlink:href="#DejaVuSans-31" transform="translate(83.789062 0)"/>
       <use xlink:href="#DejaVuSans-30" transform="translate(147.412109 0)"/>
      </g>
     </g>
    </g>
    <g id="ytick_2">
     <g id="line2d_6">
      <g>
       <use xlink:href="#m2a3f04bfcc" x="90" y="267.591369" style="stroke: #000000; stroke-width: 0.8"/>
      </g>
     </g>
     <g id="text_7">
      <!-- 0 -->
      <g transform="translate(76.6375 271.390587) scale(0.1 -0.1)">
       <use xlink:href="#DejaVuSans-30"/>
      </g>
     </g>
    </g>
    <g id="ytick_3">
     <g id="line2d_7">
      <g>
       <use xlink:href="#m2a3f04bfcc" x="90" y="234.363673" style="stroke: #000000; stroke-width: 0.8"/>
      </g>
     </g>
     <g id="text_8">
      <!-- 10 -->
      <g transform="translate(70.275 238.162892) scale(0.1 -0.1)">
       <use xlink:href="#DejaVuSans-31"/>
       <use xlink:href="#DejaVuSans-30" transform="translate(63.623047 0)"/>
      </g>
     </g>
    </g>
    <g id="ytick_4">
     <g id="line2d_8">
      <g>
       <use xlink:href="#m2a3f04bfcc" x="90" y="201.135977" style="stroke: #000000; stroke-width: 0.8"/>
      </g>
     </g>
     <g id="text_9">
      <!-- 20 -->
      <g transform="translate(70.275 204.935196) scale(0.1 -0.1)">
       <defs>
        <path id="DejaVuSans-32" d="M 1228 531 
L 3431 531 
L 3431 0 
L 469 0 
L 469 531 
Q 828 903 1448 1529 
Q 2069 2156 2228 2338 
Q 2531 2678 2651 2914 
Q 2772 3150 2772 3378 
Q 2772 3750 2511 3984 
Q 2250 4219 1831 4219 
Q 1534 4219 1204 4116 
Q 875 4013 500 3803 
L 500 4441 
Q 881 4594 1212 4672 
Q 1544 4750 1819 4750 
Q 2544 4750 2975 4387 
Q 3406 4025 3406 3419 
Q 3406 3131 3298 2873 
Q 3191 2616 2906 2266 
Q 2828 2175 2409 1742 
Q 1991 1309 1228 531 
z
" transform="scale(0.015625)"/>
       </defs>
       <use xlink:href="#DejaVuSans-32"/>
       <use xlink:href="#DejaVuSans-30" transform="translate(63.623047 0)"/>
      </g>
     </g>
    </g>
    <g id="ytick_5">
     <g id="line2d_9">
      <g>
       <use xlink:href="#m2a3f04bfcc" x="90" y="167.908282" style="stroke: #000000; stroke-width: 0.8"/>
      </g>
     </g>
     <g id="text_10">
      <!-- 30 -->
      <g transform="translate(70.275 171.7075) scale(0.1 -0.1)">
       <defs>
        <path id="DejaVuSans-33" d="M 2597 2516 
Q 3050 2419 3304 2112 
Q 3559 1806 3559 1356 
Q 3559 666 3084 287 
Q 2609 -91 1734 -91 
Q 1441 -91 1130 -33 
Q 819 25 488 141 
L 488 750 
Q 750 597 1062 519 
Q 1375 441 1716 441 
Q 2309 441 2620 675 
Q 2931 909 2931 1356 
Q 2931 1769 2642 2001 
Q 2353 2234 1838 2234 
L 1294 2234 
L 1294 2753 
L 1863 2753 
Q 2328 2753 2575 2939 
Q 2822 3125 2822 3475 
Q 2822 3834 2567 4026 
Q 2313 4219 1838 4219 
Q 1578 4219 1281 4162 
Q 984 4106 628 3988 
L 628 4550 
Q 988 4650 1302 4700 
Q 1616 4750 1894 4750 
Q 2613 4750 3031 4423 
Q 3450 4097 3450 3541 
Q 3450 3153 3228 2886 
Q 3006 2619 2597 2516 
z
" transform="scale(0.015625)"/>
       </defs>
       <use xlink:href="#DejaVuSans-33"/>
       <use xlink:href="#DejaVuSans-30" transform="translate(63.623047 0)"/>
      </g>
     </g>
    </g>
    <g id="ytick_6">
     <g id="line2d_10">
      <g>
       <use xlink:href="#m2a3f04bfcc" x="90" y="134.680586" style="stroke: #000000; stroke-width: 0.8"/>
      </g>
     </g>
     <g id="text_11">
      <!-- 40 -->
      <g transform="translate(70.275 138.479805) scale(0.1 -0.1)">
       <defs>
        <path id="DejaVuSans-34" d="M 2419 4116 
L 825 1625 
L 2419 1625 
L 2419 4116 
z
M 2253 4666 
L 3047 4666 
L 3047 1625 
L 3713 1625 
L 3713 1100 
L 3047 1100 
L 3047 0 
L 2419 0 
L 2419 1100 
L 313 1100 
L 313 1709 
L 2253 4666 
z
" transform="scale(0.015625)"/>
       </defs>
       <use xlink:href="#DejaVuSans-34"/>
       <use xlink:href="#DejaVuSans-30" transform="translate(63.623047 0)"/>
      </g>
     </g>
    </g>
    <g id="ytick_7">
     <g id="line2d_11">
      <g>
       <use xlink:href="#m2a3f04bfcc" x="90" y="101.45289" style="stroke: #000000; stroke-width: 0.8"/>
      </g>
     </g>
     <g id="text_12">
      <!-- 50 -->
      <g transform="translate(70.275 105.252109) scale(0.1 -0.1)">
       <defs>
        <path id="DejaVuSans-35" d="M 691 4666 
L 3169 4666 
L 3169 4134 
L 1269 4134 
L 1269 2991 
Q 1406 3038 1543 3061 
Q 1681 3084 1819 3084 
Q 2600 3084 3056 2656 
Q 3513 2228 3513 1497 
Q 3513 744 3044 326 
Q 2575 -91 1722 -91 
Q 1428 -91 1123 -41 
Q 819 9 494 109 
L 494 744 
Q 775 591 1075 516 
Q 1375 441 1709 441 
Q 2250 441 2565 725 
Q 2881 1009 2881 1497 
Q 2881 1984 2565 2268 
Q 2250 2553 1709 2553 
Q 1456 2553 1204 2497 
Q 953 2441 691 2322 
L 691 4666 
z
" transform="scale(0.015625)"/>
       </defs>
       <use xlink:href="#DejaVuSans-35"/>
       <use xlink:href="#DejaVuSans-30" transform="translate(63.623047 0)"/>
      </g>
     </g>
    </g>
    <g id="ytick_8">
     <g id="line2d_12">
      <g>
       <use xlink:href="#m2a3f04bfcc" x="90" y="68.225194" style="stroke: #000000; stroke-width: 0.8"/>
      </g>
     </g>
     <g id="text_13">
      <!-- 60 -->
      <g transform="translate(70.275 72.024413) scale(0.1 -0.1)">
       <defs>
        <path id="DejaVuSans-36" d="M 2113 2584 
Q 1688 2584 1439 2293 
Q 1191 2003 1191 1497 
Q 1191 994 1439 701 
Q 1688 409 2113 409 
Q 2538 409 2786 701 
Q 3034 994 3034 1497 
Q 3034 2003 2786 2293 
Q 2538 2584 2113 2584 
z
M 3366 4563 
L 3366 3988 
Q 3128 4100 2886 4159 
Q 2644 4219 2406 4219 
Q 1781 4219 1451 3797 
Q 1122 3375 1075 2522 
Q 1259 2794 1537 2939 
Q 1816 3084 2150 3084 
Q 2853 3084 3261 2657 
Q 3669 2231 3669 1497 
Q 3669 778 3244 343 
Q 2819 -91 2113 -91 
Q 1303 -91 875 529 
Q 447 1150 447 2328 
Q 447 3434 972 4092 
Q 1497 4750 2381 4750 
Q 2619 4750 2861 4703 
Q 3103 4656 3366 4563 
z
" transform="scale(0.015625)"/>
       </defs>
       <use xlink:href="#DejaVuSans-36"/>
       <use xlink:href="#DejaVuSans-30" transform="translate(63.623047 0)"/>
      </g>
     </g>
    </g>
    <g id="text_14">
     <!-- cont_variable -->
     <g transform="translate(55.5375 215.409375) rotate(-90) scale(0.1 -0.1)">
      <defs>
       <path id="DejaVuSans-5f" d="M 3263 -1063 
L 3263 -1509 
L -63 -1509 
L -63 -1063 
L 3263 -1063 
z
" transform="scale(0.015625)"/>
       <path id="DejaVuSans-62" d="M 3116 1747 
Q 3116 2381 2855 2742 
Q 2594 3103 2138 3103 
Q 1681 3103 1420 2742 
Q 1159 2381 1159 1747 
Q 1159 1113 1420 752 
Q 1681 391 2138 391 
Q 2594 391 2855 752 
Q 3116 1113 3116 1747 
z
M 1159 2969 
Q 1341 3281 1617 3432 
Q 1894 3584 2278 3584 
Q 2916 3584 3314 3078 
Q 3713 2572 3713 1747 
Q 3713 922 3314 415 
Q 2916 -91 2278 -91 
Q 1894 -91 1617 61 
Q 1341 213 1159 525 
L 1159 0 
L 581 0 
L 581 4863 
L 1159 4863 
L 1159 2969 
z
" transform="scale(0.015625)"/>
       <path id="DejaVuSans-6c" d="M 603 4863 
L 1178 4863 
L 1178 0 
L 603 0 
L 603 4863 
z
" transform="scale(0.015625)"/>
      </defs>
      <use xlink:href="#DejaVuSans-63"/>
      <use xlink:href="#DejaVuSans-6f" transform="translate(54.980469 0)"/>
      <use xlink:href="#DejaVuSans-6e" transform="translate(116.162109 0)"/>
      <use xlink:href="#DejaVuSans-74" transform="translate(179.541016 0)"/>
      <use xlink:href="#DejaVuSans-5f" transform="translate(218.75 0)"/>
      <use xlink:href="#DejaVuSans-76" transform="translate(268.75 0)"/>
      <use xlink:href="#DejaVuSans-61" transform="translate(327.929688 0)"/>
      <use xlink:href="#DejaVuSans-72" transform="translate(389.208984 0)"/>
      <use xlink:href="#DejaVuSans-69" transform="translate(430.322266 0)"/>
      <use xlink:href="#DejaVuSans-61" transform="translate(458.105469 0)"/>
      <use xlink:href="#DejaVuSans-62" transform="translate(519.384766 0)"/>
      <use xlink:href="#DejaVuSans-6c" transform="translate(582.861328 0)"/>
      <use xlink:href="#DejaVuSans-65" transform="translate(610.644531 0)"/>
     </g>
    </g>
   </g>
   <g id="patch_3">
    <path d="M 90 320.4 
L 90 43.2 
" style="fill: none; stroke: #000000; stroke-width: 0.8; stroke-linejoin: miter; stroke-linecap: square"/>
   </g>
   <g id="patch_4">
    <path d="M 648 320.4 
L 648 43.2 
" style="fill: none; stroke: #000000; stroke-width: 0.8; stroke-linejoin: miter; stroke-linecap: square"/>
   </g>
   <g id="patch_5">
    <path d="M 90 320.4 
L 648 320.4 
" style="fill: none; stroke: #000000; stroke-width: 0.8; stroke-linejoin: miter; stroke-linecap: square"/>
   </g>
   <g id="patch_6">
    <path d="M 90 43.2 
L 648 43.2 
" style="fill: none; stroke: #000000; stroke-width: 0.8; stroke-linejoin: miter; stroke-linecap: square"/>
   </g>
   <g id="PathCollection_1">
    <defs>
     <path id="mbd672e5578" d="M 0 2.5 
C 0.663008 2.5 1.29895 2.236584 1.767767 1.767767 
C 2.236584 1.29895 2.5 0.663008 2.5 0 
C 2.5 -0.663008 2.236584 -1.29895 1.767767 -1.767767 
C 1.29895 -2.236584 0.663008 -2.5 0 -2.5 
C -0.663008 -2.5 -1.29895 -2.236584 -1.767767 -1.767767 
C -2.236584 -1.29895 -2.5 -0.663008 -2.5 0 
C -2.5 0.663008 -2.236584 1.29895 -1.767767 1.767767 
C -1.29895 2.236584 -0.663008 2.5 0 2.5 
z
"/>
    </defs>
    <g clip-path="url(#p6512acfe80)">
     <use xlink:href="#mbd672e5578" x="169.423674" y="214.676081" style="fill-opacity: 0.3"/>
     <use xlink:href="#mbd672e5578" x="146.093263" y="225.57744" style="fill-opacity: 0.3"/>
     <use xlink:href="#mbd672e5578" x="156.054158" y="198.103595" style="fill-opacity: 0.3"/>
     <use xlink:href="#mbd672e5578" x="171.673946" y="206.059651" style="fill-opacity: 0.3"/>
     <use xlink:href="#mbd672e5578" x="162.338896" y="177.692077" style="fill-opacity: 0.3"/>
     <use xlink:href="#mbd672e5578" x="154.798051" y="206.326582" style="fill-opacity: 0.3"/>
     <use xlink:href="#mbd672e5578" x="149.965206" y="160.486078" style="fill-opacity: 0.3"/>
     <use xlink:href="#mbd672e5578" x="173.238224" y="154.096293" style="fill-opacity: 0.3"/>
     <use xlink:href="#mbd672e5578" x="157.309566" y="149.941987" style="fill-opacity: 0.3"/>
     <use xlink:href="#mbd672e5578" x="152.783482" y="233.732802" style="fill-opacity: 0.3"/>
     <use xlink:href="#mbd672e5578" x="158.840826" y="98.582466" style="fill-opacity: 0.3"/>
     <use xlink:href="#mbd672e5578" x="149.598861" y="101.49378" style="fill-opacity: 0.3"/>
     <use xlink:href="#mbd672e5578" x="172.445095" y="98.429017" style="fill-opacity: 0.3"/>
     <use xlink:href="#mbd672e5578" x="155.176429" y="115.650762" style="fill-opacity: 0.3"/>
     <use xlink:href="#mbd672e5578" x="173.278393" y="98.694971" style="fill-opacity: 0.3"/>
     <use xlink:href="#mbd672e5578" x="163.75927" y="141.877286" style="fill-opacity: 0.3"/>
     <use xlink:href="#mbd672e5578" x="148.768613" y="221.260683" style="fill-opacity: 0.3"/>
     <use xlink:href="#mbd672e5578" x="168.307325" y="229.451173" style="fill-opacity: 0.3"/>
     <use xlink:href="#mbd672e5578" x="158.955703" y="211.267278" style="fill-opacity: 0.3"/>
     <use xlink:href="#mbd672e5578" x="155.68271" y="212.890816" style="fill-opacity: 0.3"/>
     <use xlink:href="#mbd672e5578" x="169.68476" y="189.770115" style="fill-opacity: 0.3"/>
     <use xlink:href="#mbd672e5578" x="158.120449" y="180.388009" style="fill-opacity: 0.3"/>
     <use xlink:href="#mbd672e5578" x="146.591842" y="163.471387" style="fill-opacity: 0.3"/>
     <use xlink:href="#mbd672e5578" x="155.16985" y="150.255802" style="fill-opacity: 0.3"/>
     <use xlink:href="#mbd672e5578" x="173.207628" y="110.029623" style="fill-opacity: 0.3"/>
     <use xlink:href="#mbd672e5578" x="164.73734" y="137.165336" style="fill-opacity: 0.3"/>
     <use xlink:href="#mbd672e5578" x="159.180764" y="126.805622" style="fill-opacity: 0.3"/>
     <use xlink:href="#mbd672e5578" x="162.939875" y="149.384041" style="fill-opacity: 0.3"/>
     <use xlink:href="#mbd672e5578" x="162.15186" y="231.999576" style="fill-opacity: 0.3"/>
     <use xlink:href="#mbd672e5578" x="159.409731" y="267.591369" style="fill-opacity: 0.3"/>
     <use xlink:href="#mbd672e5578" x="159.16067" y="140.189804" style="fill-opacity: 0.3"/>
     <use xlink:href="#mbd672e5578" x="150.161565" y="113.683497" style="fill-opacity: 0.3"/>
     <use xlink:href="#mbd672e5578" x="162.560582" y="174.484847" style="fill-opacity: 0.3"/>
     <use xlink:href="#mbd672e5578" x="148.041502" y="150.581381" style="fill-opacity: 0.3"/>
     <use xlink:href="#mbd672e5578" x="156.791637" y="146.008655" style="fill-opacity: 0.3"/>
     <use xlink:href="#mbd672e5578" x="156.568615" y="123.121401" style="fill-opacity: 0.3"/>
     <use xlink:href="#mbd672e5578" x="146.882127" y="242.259889" style="fill-opacity: 0.3"/>
     <use xlink:href="#mbd672e5578" x="150.758873" y="137.54802" style="fill-opacity: 0.3"/>
     <use xlink:href="#mbd672e5578" x="172.385844" y="173.078574" style="fill-opacity: 0.3"/>
     <use xlink:href="#mbd672e5578" x="151.512451" y="138.429301" style="fill-opacity: 0.3"/>
     <use xlink:href="#mbd672e5578" x="172.432759" y="172.301491" style="fill-opacity: 0.3"/>
     <use xlink:href="#mbd672e5578" x="146.902635" y="110.525081" style="fill-opacity: 0.3"/>
     <use xlink:href="#mbd672e5578" x="164.268881" y="178.35477" style="fill-opacity: 0.3"/>
     <use xlink:href="#mbd672e5578" x="161.764456" y="181.043612" style="fill-opacity: 0.3"/>
     <use xlink:href="#mbd672e5578" x="173.530885" y="154.438172" style="fill-opacity: 0.3"/>
     <use xlink:href="#mbd672e5578" x="172.86962" y="182.773279" style="fill-opacity: 0.3"/>
     <use xlink:href="#mbd672e5578" x="149.151524" y="152.905498" style="fill-opacity: 0.3"/>
     <use xlink:href="#mbd672e5578" x="172.26956" y="182.243025" style="fill-opacity: 0.3"/>
     <use xlink:href="#mbd672e5578" x="158.681324" y="206.989109" style="fill-opacity: 0.3"/>
     <use xlink:href="#mbd672e5578" x="172.87209" y="204.19368" style="fill-opacity: 0.3"/>
     <use xlink:href="#mbd672e5578" x="167.589181" y="228.291332" style="fill-opacity: 0.3"/>
     <use xlink:href="#mbd672e5578" x="148.740825" y="246.462802" style="fill-opacity: 0.3"/>
     <use xlink:href="#mbd672e5578" x="170.392286" y="230.377715" style="fill-opacity: 0.3"/>
     <use xlink:href="#mbd672e5578" x="166.888202" y="230.55324" style="fill-opacity: 0.3"/>
    </g>
   </g>
   <g id="PathCollection_2">
    <g clip-path="url(#p6512acfe80)">
     <use xlink:href="#mbd672e5578" x="291.35697" y="224.015326" style="fill-opacity: 0.3"/>
     <use xlink:href="#mbd672e5578" x="286.990612" y="169.177174" style="fill-opacity: 0.3"/>
     <use xlink:href="#mbd672e5578" x="291.420651" y="134.624813" style="fill-opacity: 0.3"/>
     <use xlink:href="#mbd672e5578" x="297.239177" y="185.277262" style="fill-opacity: 0.3"/>
     <use xlink:href="#mbd672e5578" x="296.448152" y="173.761433" style="fill-opacity: 0.3"/>
     <use xlink:href="#mbd672e5578" x="289.409925" y="217.900659" style="fill-opacity: 0.3"/>
     <use xlink:href="#mbd672e5578" x="310.317935" y="162.54156" style="fill-opacity: 0.3"/>
     <use xlink:href="#mbd672e5578" x="299.869839" y="207.82244" style="fill-opacity: 0.3"/>
     <use xlink:href="#mbd672e5578" x="308.087105" y="185.553484" style="fill-opacity: 0.3"/>
     <use xlink:href="#mbd672e5578" x="306.848741" y="177.344256" style="fill-opacity: 0.3"/>
     <use xlink:href="#mbd672e5578" x="311.70841" y="242.701439" style="fill-opacity: 0.3"/>
     <use xlink:href="#mbd672e5578" x="308.041104" y="183.251266" style="fill-opacity: 0.3"/>
     <use xlink:href="#mbd672e5578" x="297.870407" y="182.574986" style="fill-opacity: 0.3"/>
     <use xlink:href="#mbd672e5578" x="298.796493" y="188.112538" style="fill-opacity: 0.3"/>
     <use xlink:href="#mbd672e5578" x="292.236083" y="186.016897" style="fill-opacity: 0.3"/>
     <use xlink:href="#mbd672e5578" x="301.723039" y="172.451112" style="fill-opacity: 0.3"/>
     <use xlink:href="#mbd672e5578" x="286.170686" y="171.512297" style="fill-opacity: 0.3"/>
     <use xlink:href="#mbd672e5578" x="297.867785" y="163.807884" style="fill-opacity: 0.3"/>
     <use xlink:href="#mbd672e5578" x="310.524497" y="185.471425" style="fill-opacity: 0.3"/>
     <use xlink:href="#mbd672e5578" x="301.983335" y="187.19561" style="fill-opacity: 0.3"/>
     <use xlink:href="#mbd672e5578" x="288.656412" y="215.576618" style="fill-opacity: 0.3"/>
     <use xlink:href="#mbd672e5578" x="296.06981" y="215.374891" style="fill-opacity: 0.3"/>
     <use xlink:href="#mbd672e5578" x="307.688147" y="225.729081" style="fill-opacity: 0.3"/>
     <use xlink:href="#mbd672e5578" x="292.263811" y="214.027851" style="fill-opacity: 0.3"/>
     <use xlink:href="#mbd672e5578" x="305.177658" y="148.866087" style="fill-opacity: 0.3"/>
     <use xlink:href="#mbd672e5578" x="286.742919" y="158.91906" style="fill-opacity: 0.3"/>
     <use xlink:href="#mbd672e5578" x="286.150705" y="156.272973" style="fill-opacity: 0.3"/>
     <use xlink:href="#mbd672e5578" x="293.067541" y="147.985241" style="fill-opacity: 0.3"/>
     <use xlink:href="#mbd672e5578" x="298.389534" y="159.704141" style="fill-opacity: 0.3"/>
     <use xlink:href="#mbd672e5578" x="286.904918" y="135.030174" style="fill-opacity: 0.3"/>
     <use xlink:href="#mbd672e5578" x="300.552598" y="141.328019" style="fill-opacity: 0.3"/>
     <use xlink:href="#mbd672e5578" x="296.899015" y="142.159808" style="fill-opacity: 0.3"/>
     <use xlink:href="#mbd672e5578" x="308.00825" y="118.416858" style="fill-opacity: 0.3"/>
     <use xlink:href="#mbd672e5578" x="292.794179" y="166.280513" style="fill-opacity: 0.3"/>
     <use xlink:href="#mbd672e5578" x="291.243564" y="157.167117" style="fill-opacity: 0.3"/>
     <use xlink:href="#mbd672e5578" x="302.825739" y="142.69062" style="fill-opacity: 0.3"/>
     <use xlink:href="#mbd672e5578" x="310.689456" y="142.472946" style="fill-opacity: 0.3"/>
     <use xlink:href="#mbd672e5578" x="294.755904" y="128.273445" style="fill-opacity: 0.3"/>
     <use xlink:href="#mbd672e5578" x="293.907831" y="134.480754" style="fill-opacity: 0.3"/>
     <use xlink:href="#mbd672e5578" x="290.748459" y="202.441344" style="fill-opacity: 0.3"/>
     <use xlink:href="#mbd672e5578" x="288.5287" y="213.064979" style="fill-opacity: 0.3"/>
     <use xlink:href="#mbd672e5578" x="299.951473" y="221.042178" style="fill-opacity: 0.3"/>
     <use xlink:href="#mbd672e5578" x="296.126017" y="98.323585" style="fill-opacity: 0.3"/>
     <use xlink:href="#mbd672e5578" x="302.094919" y="104.862208" style="fill-opacity: 0.3"/>
     <use xlink:href="#mbd672e5578" x="289.006975" y="168.285532" style="fill-opacity: 0.3"/>
     <use xlink:href="#mbd672e5578" x="291.675713" y="179.721674" style="fill-opacity: 0.3"/>
     <use xlink:href="#mbd672e5578" x="294.880363" y="183.112584" style="fill-opacity: 0.3"/>
     <use xlink:href="#mbd672e5578" x="303.568534" y="165.325559" style="fill-opacity: 0.3"/>
     <use xlink:href="#mbd672e5578" x="292.48982" y="158.752832" style="fill-opacity: 0.3"/>
     <use xlink:href="#mbd672e5578" x="287.887485" y="163.903205" style="fill-opacity: 0.3"/>
     <use xlink:href="#mbd672e5578" x="293.839175" y="162.218836" style="fill-opacity: 0.3"/>
     <use xlink:href="#mbd672e5578" x="287.680324" y="164.549211" style="fill-opacity: 0.3"/>
     <use xlink:href="#mbd672e5578" x="304.691249" y="162.400648" style="fill-opacity: 0.3"/>
     <use xlink:href="#mbd672e5578" x="293.355296" y="140.673068" style="fill-opacity: 0.3"/>
     <use xlink:href="#mbd672e5578" x="311.036079" y="140.197955" style="fill-opacity: 0.3"/>
     <use xlink:href="#mbd672e5578" x="294.401501" y="158.786482" style="fill-opacity: 0.3"/>
     <use xlink:href="#mbd672e5578" x="287.772716" y="161.475227" style="fill-opacity: 0.3"/>
     <use xlink:href="#mbd672e5578" x="301.828776" y="146.724041" style="fill-opacity: 0.3"/>
     <use xlink:href="#mbd672e5578" x="303.304148" y="156.849855" style="fill-opacity: 0.3"/>
     <use xlink:href="#mbd672e5578" x="310.563538" y="148.665083" style="fill-opacity: 0.3"/>
     <use xlink:href="#mbd672e5578" x="298.136273" y="197.44329" style="fill-opacity: 0.3"/>
     <use xlink:href="#mbd672e5578" x="296.045242" y="189.17722" style="fill-opacity: 0.3"/>
     <use xlink:href="#mbd672e5578" x="303.71899" y="124.660176" style="fill-opacity: 0.3"/>
     <use xlink:href="#mbd672e5578" x="303.145679" y="169.580372" style="fill-opacity: 0.3"/>
     <use xlink:href="#mbd672e5578" x="303.416418" y="145.356292" style="fill-opacity: 0.3"/>
     <use xlink:href="#mbd672e5578" x="305.310526" y="138.504396" style="fill-opacity: 0.3"/>
     <use xlink:href="#mbd672e5578" x="311.702027" y="136.036209" style="fill-opacity: 0.3"/>
     <use xlink:href="#mbd672e5578" x="305.068109" y="144.560864" style="fill-opacity: 0.3"/>
     <use xlink:href="#mbd672e5578" x="298.914757" y="143.795541" style="fill-opacity: 0.3"/>
     <use xlink:href="#mbd672e5578" x="286.987174" y="155.969019" style="fill-opacity: 0.3"/>
     <use xlink:href="#mbd672e5578" x="309.859011" y="146.063996" style="fill-opacity: 0.3"/>
     <use xlink:href="#mbd672e5578" x="306.141571" y="147.085814" style="fill-opacity: 0.3"/>
     <use xlink:href="#mbd672e5578" x="303.026038" y="132.457221" style="fill-opacity: 0.3"/>
     <use xlink:href="#mbd672e5578" x="298.982133" y="171.148756" style="fill-opacity: 0.3"/>
     <use xlink:href="#mbd672e5578" x="300.815566" y="173.24964" style="fill-opacity: 0.3"/>
     <use xlink:href="#mbd672e5578" x="306.247557" y="152.220699" style="fill-opacity: 0.3"/>
     <use xlink:href="#mbd672e5578" x="298.229215" y="166.892528" style="fill-opacity: 0.3"/>
     <use xlink:href="#mbd672e5578" x="299.037264" y="201.094217" style="fill-opacity: 0.3"/>
     <use xlink:href="#mbd672e5578" x="290.895541" y="190.367758" style="fill-opacity: 0.3"/>
     <use xlink:href="#mbd672e5578" x="302.147351" y="152.787221" style="fill-opacity: 0.3"/>
     <use xlink:href="#mbd672e5578" x="290.538657" y="143.066186" style="fill-opacity: 0.3"/>
     <use xlink:href="#mbd672e5578" x="302.147094" y="182.921093" style="fill-opacity: 0.3"/>
     <use xlink:href="#mbd672e5578" x="302.601767" y="164.745925" style="fill-opacity: 0.3"/>
     <use xlink:href="#mbd672e5578" x="294.993962" y="214.629838" style="fill-opacity: 0.3"/>
     <use xlink:href="#mbd672e5578" x="288.783901" y="215.108253" style="fill-opacity: 0.3"/>
     <use xlink:href="#mbd672e5578" x="295.969587" y="228.357518" style="fill-opacity: 0.3"/>
     <use xlink:href="#mbd672e5578" x="305.786316" y="230.269147" style="fill-opacity: 0.3"/>
    </g>
   </g>
   <g id="PathCollection_3">
    <g clip-path="url(#p6512acfe80)">
     <use xlink:href="#mbd672e5578" x="443.008419" y="215.867204" style="fill-opacity: 0.3"/>
     <use xlink:href="#mbd672e5578" x="429.874317" y="217.98195" style="fill-opacity: 0.3"/>
     <use xlink:href="#mbd672e5578" x="428.851163" y="173.165368" style="fill-opacity: 0.3"/>
     <use xlink:href="#mbd672e5578" x="433.20766" y="183.991071" style="fill-opacity: 0.3"/>
     <use xlink:href="#mbd672e5578" x="444.552283" y="210.978532" style="fill-opacity: 0.3"/>
     <use xlink:href="#mbd672e5578" x="434.066758" y="183.592209" style="fill-opacity: 0.3"/>
     <use xlink:href="#mbd672e5578" x="449.416621" y="166.179159" style="fill-opacity: 0.3"/>
     <use xlink:href="#mbd672e5578" x="431.115831" y="189.786048" style="fill-opacity: 0.3"/>
     <use xlink:href="#mbd672e5578" x="427.189273" y="177.040748" style="fill-opacity: 0.3"/>
     <use xlink:href="#mbd672e5578" x="449.903192" y="176.343677" style="fill-opacity: 0.3"/>
     <use xlink:href="#mbd672e5578" x="449.438535" y="209.382447" style="fill-opacity: 0.3"/>
     <use xlink:href="#mbd672e5578" x="451.187125" y="155.668484" style="fill-opacity: 0.3"/>
     <use xlink:href="#mbd672e5578" x="428.907903" y="168.289254" style="fill-opacity: 0.3"/>
     <use xlink:href="#mbd672e5578" x="435.149742" y="212.543693" style="fill-opacity: 0.3"/>
     <use xlink:href="#mbd672e5578" x="431.122818" y="134.578211" style="fill-opacity: 0.3"/>
     <use xlink:href="#mbd672e5578" x="451.011285" y="127.018578" style="fill-opacity: 0.3"/>
     <use xlink:href="#mbd672e5578" x="451.336875" y="128.593814" style="fill-opacity: 0.3"/>
     <use xlink:href="#mbd672e5578" x="433.696851" y="138.730975" style="fill-opacity: 0.3"/>
     <use xlink:href="#mbd672e5578" x="440.33006" y="167.492118" style="fill-opacity: 0.3"/>
     <use xlink:href="#mbd672e5578" x="444.256197" y="149.964329" style="fill-opacity: 0.3"/>
     <use xlink:href="#mbd672e5578" x="438.280122" y="97.291646" style="fill-opacity: 0.3"/>
     <use xlink:href="#mbd672e5578" x="434.238217" y="219.760589" style="fill-opacity: 0.3"/>
     <use xlink:href="#mbd672e5578" x="433.604811" y="177.922614" style="fill-opacity: 0.3"/>
     <use xlink:href="#mbd672e5578" x="429.930914" y="182.636125" style="fill-opacity: 0.3"/>
     <use xlink:href="#mbd672e5578" x="436.20421" y="173.738396" style="fill-opacity: 0.3"/>
     <use xlink:href="#mbd672e5578" x="442.830212" y="169.079402" style="fill-opacity: 0.3"/>
     <use xlink:href="#mbd672e5578" x="426.874256" y="176.852649" style="fill-opacity: 0.3"/>
     <use xlink:href="#mbd672e5578" x="442.146605" y="165.657029" style="fill-opacity: 0.3"/>
     <use xlink:href="#mbd672e5578" x="439.990404" y="162.274154" style="fill-opacity: 0.3"/>
     <use xlink:href="#mbd672e5578" x="440.677295" y="169.534149" style="fill-opacity: 0.3"/>
     <use xlink:href="#mbd672e5578" x="430.213867" y="161.51917" style="fill-opacity: 0.3"/>
     <use xlink:href="#mbd672e5578" x="450.891448" y="118.532178" style="fill-opacity: 0.3"/>
     <use xlink:href="#mbd672e5578" x="429.106492" y="152.633168" style="fill-opacity: 0.3"/>
     <use xlink:href="#mbd672e5578" x="432.482074" y="147.770544" style="fill-opacity: 0.3"/>
     <use xlink:href="#mbd672e5578" x="443.782983" y="160.069459" style="fill-opacity: 0.3"/>
     <use xlink:href="#mbd672e5578" x="429.185603" y="153.542154" style="fill-opacity: 0.3"/>
     <use xlink:href="#mbd672e5578" x="435.707478" y="151.014208" style="fill-opacity: 0.3"/>
     <use xlink:href="#mbd672e5578" x="438.505149" y="169.431539" style="fill-opacity: 0.3"/>
     <use xlink:href="#mbd672e5578" x="435.232493" y="136.676706" style="fill-opacity: 0.3"/>
     <use xlink:href="#mbd672e5578" x="438.668041" y="197.315523" style="fill-opacity: 0.3"/>
     <use xlink:href="#mbd672e5578" x="435.194687" y="238.082543" style="fill-opacity: 0.3"/>
     <use xlink:href="#mbd672e5578" x="426.756166" y="201.033706" style="fill-opacity: 0.3"/>
    </g>
   </g>
   <g id="PathCollection_4">
    <g clip-path="url(#p6512acfe80)">
     <use xlink:href="#mbd672e5578" x="576.659361" y="192.49978" style="fill-opacity: 0.3"/>
     <use xlink:href="#mbd672e5578" x="573.816481" y="204.633235" style="fill-opacity: 0.3"/>
     <use xlink:href="#mbd672e5578" x="565.186927" y="188.369913" style="fill-opacity: 0.3"/>
     <use xlink:href="#mbd672e5578" x="582.656419" y="98.34612" style="fill-opacity: 0.3"/>
     <use xlink:href="#mbd672e5578" x="577.066285" y="175.25236" style="fill-opacity: 0.3"/>
     <use xlink:href="#mbd672e5578" x="570.932805" y="140.372912" style="fill-opacity: 0.3"/>
     <use xlink:href="#mbd672e5578" x="571.169494" y="159.27885" style="fill-opacity: 0.3"/>
     <use xlink:href="#mbd672e5578" x="572.38879" y="99.945193" style="fill-opacity: 0.3"/>
     <use xlink:href="#mbd672e5578" x="566.842549" y="132.287351" style="fill-opacity: 0.3"/>
     <use xlink:href="#mbd672e5578" x="578.526806" y="163.488224" style="fill-opacity: 0.3"/>
     <use xlink:href="#mbd672e5578" x="582.668904" y="133.20408" style="fill-opacity: 0.3"/>
     <use xlink:href="#mbd672e5578" x="585.703016" y="167.955053" style="fill-opacity: 0.3"/>
     <use xlink:href="#mbd672e5578" x="574.323239" y="137.266142" style="fill-opacity: 0.3"/>
     <use xlink:href="#mbd672e5578" x="584.143765" y="173.672586" style="fill-opacity: 0.3"/>
     <use xlink:href="#mbd672e5578" x="568.163299" y="167.899396" style="fill-opacity: 0.3"/>
     <use xlink:href="#mbd672e5578" x="580.160873" y="183.101184" style="fill-opacity: 0.3"/>
     <use xlink:href="#mbd672e5578" x="589.544947" y="133.680323" style="fill-opacity: 0.3"/>
     <use xlink:href="#mbd672e5578" x="571.127787" y="192.659845" style="fill-opacity: 0.3"/>
     <use xlink:href="#mbd672e5578" x="588.349143" y="248.68474" style="fill-opacity: 0.3"/>
     <use xlink:href="#mbd672e5578" x="580.862075" y="221.320385" style="fill-opacity: 0.3"/>
     <use xlink:href="#mbd672e5578" x="578.734399" y="205.964692" style="fill-opacity: 0.3"/>
     <use xlink:href="#mbd672e5578" x="578.041608" y="208.333598" style="fill-opacity: 0.3"/>
     <use xlink:href="#mbd672e5578" x="580.759899" y="231.032766" style="fill-opacity: 0.3"/>
     <use xlink:href="#mbd672e5578" x="572.861388" y="227.412735" style="fill-opacity: 0.3"/>
     <use xlink:href="#mbd672e5578" x="571.408525" y="235.307343" style="fill-opacity: 0.3"/>
     <use xlink:href="#mbd672e5578" x="566.518444" y="227.744939" style="fill-opacity: 0.3"/>
     <use xlink:href="#mbd672e5578" x="590.350861" y="207.135852" style="fill-opacity: 0.3"/>
    </g>
   </g>
  </g>
 </g>
 <defs>
  <clipPath id="p6512acfe80">
   <rect x="90" y="43.2" width="558" height="277.2"/>
  </clipPath>
 </defs>
</svg>
