<?xml version="1.0" encoding="utf-8" standalone="no"?>
<!DOCTYPE svg PUBLIC "-//W3C//DTD SVG 1.1//EN"
  "http://www.w3.org/Graphics/SVG/1.1/DTD/svg11.dtd">
<svg xmlns:xlink="http://www.w3.org/1999/xlink" width="720pt" height="360pt" viewBox="0 0 720 360" xmlns="http://www.w3.org/2000/svg" version="1.1">
 <metadata>
  <rdf:RDF xmlns:dc="http://purl.org/dc/elements/1.1/" xmlns:cc="http://creativecommons.org/ns#" xmlns:rdf="http://www.w3.org/1999/02/22-rdf-syntax-ns#">
   <cc:Work>
    <dc:type rdf:resource="http://purl.org/dc/dcmitype/StillImage"/>
    <dc:date>2025-09-12T09:48:48.808257</dc:date>
    <dc:format>image/svg+xml</dc:format>
    <dc:creator>
     <cc:Agent>
      <dc:title>Matplotlib v3.10.3, https://matplotlib.org/</dc:title>
     </cc:Agent>
    </dc:creator>
   </cc:Work>
  </rdf:RDF>
 </metadata>
 <defs>
  <style type="text/css">*{stroke-linejoin: round; stroke-linecap: butt}</style>
 </defs>
 <g id="figure_1">
  <g id="patch_1">
   <path d="M 0 360 
L 720 360 
L 720 0 
L 0 0 
z
" style="fill: #ffffff"/>
  </g>
  <g id="axes_1">
   <g id="patch_2">
    <path d="M 90 320.4 
L 648 320.4 
L 648 43.2 
L 90 43.2 
z
" style="fill: #ffffff"/>
   </g>
   <g id="FillBetweenPolyCollection_1">
    <defs>
     <path id="m753e5ba420" d="M 235.429999 -52.2 
L 223.570001 -52.2 
L 221.475685 -54.745455 
L 218.832774 -57.290909 
L 215.567303 -59.836364 
L 211.618036 -62.381818 
L 206.944372 -64.927273 
L 201.534291 -67.472727 
L 195.411409 -70.018182 
L 188.640145 -72.563636 
L 181.328045 -75.109091 
L 173.624472 -77.654545 
L 165.715276 -80.2 
L 157.813474 -82.745455 
L 150.146532 -85.290909 
L 142.941317 -87.836364 
L 136.408209 -90.381818 
L 130.726028 -92.927273 
L 126.029465 -95.472727 
L 122.400405 -98.018182 
L 119.864078 -100.563636 
L 118.390374 -103.109091 
L 117.9 -105.654545 
L 118.274562 -108.2 
L 119.369214 -110.745455 
L 121.026281 -113.290909 
L 123.088236 -115.836364 
L 125.408686 -118.381818 
L 127.860378 -120.927273 
L 130.339758 -123.472727 
L 132.768148 -126.018182 
L 135.09004 -128.563636 
L 137.269359 -131.109091 
L 139.284696 -133.654545 
L 141.124503 -136.2 
L 142.783086 -138.745455 
L 144.257952 -141.290909 
L 145.548735 -143.836364 
L 146.657633 -146.381818 
L 147.590992 -148.927273 
L 148.361526 -151.472727 
L 148.99059 -154.018182 
L 149.509938 -156.563636 
L 149.962548 -159.109091 
L 150.402206 -161.654545 
L 150.891781 -164.2 
L 151.500239 -166.745455 
L 152.298654 -169.290909 
L 153.355548 -171.836364 
L 154.731975 -174.381818 
L 156.476806 -176.927273 
L 158.622649 -179.472727 
L 161.182781 -182.018182 
L 164.149402 -184.563636 
L 167.493384 -187.109091 
L 171.165555 -189.654545 
L 175.099433 -192.2 
L 179.215135 -194.745455 
L 183.424152 -197.290909 
L 187.63452 -199.836364 
L 191.75597 -202.381818 
L 195.704624 -204.927273 
L 199.406901 -207.472727 
L 202.802389 -210.018182 
L 205.845588 -212.563636 
L 208.506532 -215.109091 
L 210.770425 -217.654545 
L 212.63647 -220.2 
L 214.116161 -222.745455 
L 215.231264 -225.290909 
L 216.011726 -227.836364 
L 216.493689 -230.381818 
L 216.717731 -232.927273 
L 216.727396 -235.472727 
L 216.568012 -238.018182 
L 216.285728 -240.563636 
L 215.926707 -243.109091 
L 215.536331 -245.654545 
L 215.15834 -248.2 
L 214.833814 -250.745455 
L 214.599969 -253.290909 
L 214.488808 -255.836364 
L 214.525714 -258.381818 
L 214.728137 -260.927273 
L 215.104564 -263.472727 
L 215.653948 -266.018182 
L 216.365749 -268.563636 
L 217.220659 -271.109091 
L 218.192009 -273.654545 
L 219.247749 -276.2 
L 220.352825 -278.745455 
L 221.471694 -281.290909 
L 222.570748 -283.836364 
L 223.620375 -286.381818 
L 224.596507 -288.927273 
L 225.481532 -291.472727 
L 226.26456 -294.018182 
L 226.941093 -296.563636 
L 227.512241 -299.109091 
L 227.983615 -301.654545 
L 228.364081 -304.2 
L 230.635919 -304.2 
L 230.635919 -304.2 
L 231.016385 -301.654545 
L 231.487759 -299.109091 
L 232.058907 -296.563636 
L 232.73544 -294.018182 
L 233.518468 -291.472727 
L 234.403493 -288.927273 
L 235.379625 -286.381818 
L 236.429252 -283.836364 
L 237.528306 -281.290909 
L 238.647175 -278.745455 
L 239.752251 -276.2 
L 240.807991 -273.654545 
L 241.779341 -271.109091 
L 242.634251 -268.563636 
L 243.346052 -266.018182 
L 243.895436 -263.472727 
L 244.271863 -260.927273 
L 244.474286 -258.381818 
L 244.511192 -255.836364 
L 244.400031 -253.290909 
L 244.166186 -250.745455 
L 243.84166 -248.2 
L 243.463669 -245.654545 
L 243.073293 -243.109091 
L 242.714272 -240.563636 
L 242.431988 -238.018182 
L 242.272604 -235.472727 
L 242.282269 -232.927273 
L 242.506311 -230.381818 
L 242.988274 -227.836364 
L 243.768736 -225.290909 
L 244.883839 -222.745455 
L 246.36353 -220.2 
L 248.229575 -217.654545 
L 250.493468 -215.109091 
L 253.154412 -212.563636 
L 256.197611 -210.018182 
L 259.593099 -207.472727 
L 263.295376 -204.927273 
L 267.24403 -202.381818 
L 271.36548 -199.836364 
L 275.575848 -197.290909 
L 279.784865 -194.745455 
L 283.900567 -192.2 
L 287.834445 -189.654545 
L 291.506616 -187.109091 
L 294.850598 -184.563636 
L 297.817219 -182.018182 
L 300.377351 -179.472727 
L 302.523194 -176.927273 
L 304.268025 -174.381818 
L 305.644452 -171.836364 
L 306.701346 -169.290909 
L 307.499761 -166.745455 
L 308.108219 -164.2 
L 308.597794 -161.654545 
L 309.037452 -159.109091 
L 309.490062 -156.563636 
L 310.00941 -154.018182 
L 310.638474 -151.472727 
L 311.409008 -148.927273 
L 312.342367 -146.381818 
L 313.451265 -143.836364 
L 314.742048 -141.290909 
L 316.216914 -138.745455 
L 317.875497 -136.2 
L 319.715304 -133.654545 
L 321.730641 -131.109091 
L 323.90996 -128.563636 
L 326.231852 -126.018182 
L 328.660242 -123.472727 
L 331.139622 -120.927273 
L 333.591314 -118.381818 
L 335.911764 -115.836364 
L 337.973719 -113.290909 
L 339.630786 -110.745455 
L 340.725438 -108.2 
L 341.1 -105.654545 
L 340.609626 -103.109091 
L 339.135922 -100.563636 
L 336.599595 -98.018182 
L 332.970535 -95.472727 
L 328.273972 -92.927273 
L 322.591791 -90.381818 
L 316.058683 -87.836364 
L 308.853468 -85.290909 
L 301.186526 -82.745455 
L 293.284724 -80.2 
L 285.375528 -77.654545 
L 277.671955 -75.109091 
L 270.359855 -72.563636 
L 263.588591 -70.018182 
L 257.465709 -67.472727 
L 252.055628 -64.927273 
L 247.381964 -62.381818 
L 243.432697 -59.836364 
L 240.167226 -57.290909 
L 237.524315 -54.745455 
L 235.429999 -52.2 
z
" style="stroke: #3f3f3f; stroke-width: 1.25"/>
    </defs>
    <g clip-path="url(#p1d8cc26d88)">
     <use xlink:href="#m753e5ba420" x="0" y="360" style="fill: #3274a1; stroke: #3f3f3f; stroke-width: 1.25"/>
    </g>
   </g>
   <g id="FillBetweenPolyCollection_2">
    <defs>
     <path id="m288c16ceca" d="M 511.411667 -60.156218 
L 505.588333 -60.156218 
L 504.092829 -62.268254 
L 502.009409 -64.38029 
L 499.194801 -66.492326 
L 495.507301 -68.604362 
L 490.82245 -70.716398 
L 485.051883 -72.828434 
L 478.163507 -74.94047 
L 470.200468 -77.052506 
L 461.29588 -79.164542 
L 451.680212 -81.276578 
L 441.67869 -83.388614 
L 431.697024 -85.50065 
L 422.195345 -87.612686 
L 413.65205 -89.724722 
L 406.521205 -91.836758 
L 401.188783 -93.948794 
L 397.93377 -96.06083 
L 396.9 -98.172866 
L 398.083052 -100.284902 
L 401.334178 -102.396938 
L 406.380366 -104.508974 
L 412.856982 -106.62101 
L 420.347646 -108.733046 
L 428.425376 -110.845082 
L 436.689603 -112.957118 
L 444.795132 -115.069154 
L 452.470947 -117.18119 
L 459.528556 -119.293226 
L 465.860861 -121.405262 
L 471.433448 -123.517298 
L 476.270525 -125.629334 
L 480.437875 -127.74137 
L 484.025095 -129.853406 
L 487.129132 -131.965442 
L 489.840813 -134.077478 
L 492.235501 -136.189514 
L 494.368385 -138.30155 
L 496.274193 -140.413586 
L 497.970492 -142.525622 
L 499.463281 -144.637658 
L 500.753385 -146.749695 
L 501.84231 -148.861731 
L 502.736494 -150.973767 
L 503.449432 -153.085803 
L 504.00163 -155.197839 
L 504.418791 -157.309875 
L 504.728887 -159.421911 
L 504.958917 -161.533947 
L 505.132039 -163.645983 
L 505.265603 -165.758019 
L 505.370359 -167.870055 
L 505.450832 -169.982091 
L 505.506641 -172.094127 
L 505.534385 -174.206163 
L 505.529636 -176.318199 
L 505.488635 -178.430235 
L 505.409385 -180.542271 
L 505.292034 -182.654307 
L 505.138609 -184.766343 
L 504.952359 -186.878379 
L 504.73702 -188.990415 
L 504.49636 -191.102451 
L 504.234216 -193.214487 
L 503.95509 -195.326523 
L 503.665175 -197.438559 
L 503.373497 -199.550595 
L 503.092769 -201.662631 
L 502.839558 -203.774667 
L 502.633478 -205.886703 
L 502.495355 -207.998739 
L 502.444553 -210.110775 
L 502.495884 -212.222811 
L 502.656719 -214.334847 
L 502.924916 -216.446883 
L 503.288075 -218.558919 
L 503.72439 -220.670955 
L 504.205045 -222.782991 
L 504.697778 -224.895027 
L 505.171019 -227.007063 
L 505.597886 -229.119099 
L 505.959357 -231.231135 
L 506.246133 -233.343171 
L 506.458947 -235.455208 
L 506.607352 -237.567244 
L 506.707311 -239.67928 
L 506.778061 -241.791316 
L 506.838842 -243.903352 
L 506.906019 -246.015388 
L 506.991053 -248.127424 
L 507.099536 -250.23946 
L 507.231331 -252.351496 
L 507.381616 -254.463532 
L 507.542515 -256.575568 
L 507.704928 -258.687604 
L 507.86019 -260.79964 
L 508.001307 -262.911676 
L 508.123639 -265.023712 
L 508.22504 -267.135748 
L 508.305566 -269.247784 
L 508.694434 -269.247784 
L 508.694434 -269.247784 
L 508.77496 -267.135748 
L 508.876361 -265.023712 
L 508.998693 -262.911676 
L 509.13981 -260.79964 
L 509.295072 -258.687604 
L 509.457485 -256.575568 
L 509.618384 -254.463532 
L 509.768669 -252.351496 
L 509.900464 -250.23946 
L 510.008947 -248.127424 
L 510.093981 -246.015388 
L 510.161158 -243.903352 
L 510.221939 -241.791316 
L 510.292689 -239.67928 
L 510.392648 -237.567244 
L 510.541053 -235.455208 
L 510.753867 -233.343171 
L 511.040643 -231.231135 
L 511.402114 -229.119099 
L 511.828981 -227.007063 
L 512.302222 -224.895027 
L 512.794955 -222.782991 
L 513.27561 -220.670955 
L 513.711925 -218.558919 
L 514.075084 -216.446883 
L 514.343281 -214.334847 
L 514.504116 -212.222811 
L 514.555447 -210.110775 
L 514.504645 -207.998739 
L 514.366522 -205.886703 
L 514.160442 -203.774667 
L 513.907231 -201.662631 
L 513.626503 -199.550595 
L 513.334825 -197.438559 
L 513.04491 -195.326523 
L 512.765784 -193.214487 
L 512.50364 -191.102451 
L 512.26298 -188.990415 
L 512.047641 -186.878379 
L 511.861391 -184.766343 
L 511.707966 -182.654307 
L 511.590615 -180.542271 
L 511.511365 -178.430235 
L 511.470364 -176.318199 
L 511.465615 -174.206163 
L 511.493359 -172.094127 
L 511.549168 -169.982091 
L 511.629641 -167.870055 
L 511.734397 -165.758019 
L 511.867961 -163.645983 
L 512.041083 -161.533947 
L 512.271113 -159.421911 
L 512.581209 -157.309875 
L 512.99837 -155.197839 
L 513.550568 -153.085803 
L 514.263506 -150.973767 
L 515.15769 -148.861731 
L 516.246615 -146.749695 
L 517.536719 -144.637658 
L 519.029508 -142.525622 
L 520.725807 -140.413586 
L 522.631615 -138.30155 
L 524.764499 -136.189514 
L 527.159187 -134.077478 
L 529.870868 -131.965442 
L 532.974905 -129.853406 
L 536.562125 -127.74137 
L 540.729475 -125.629334 
L 545.566552 -123.517298 
L 551.139139 -121.405262 
L 557.471444 -119.293226 
L 564.529053 -117.18119 
L 572.204868 -115.069154 
L 580.310397 -112.957118 
L 588.574624 -110.845082 
L 596.652354 -108.733046 
L 604.143018 -106.62101 
L 610.619634 -104.508974 
L 615.665822 -102.396938 
L 618.916948 -100.284902 
L 620.1 -98.172866 
L 619.06623 -96.06083 
L 615.811217 -93.948794 
L 610.478795 -91.836758 
L 603.34795 -89.724722 
L 594.804655 -87.612686 
L 585.302976 -85.50065 
L 575.32131 -83.388614 
L 565.319788 -81.276578 
L 555.70412 -79.164542 
L 546.799532 -77.052506 
L 538.836493 -74.94047 
L 531.948117 -72.828434 
L 526.17755 -70.716398 
L 521.492699 -68.604362 
L 517.805199 -66.492326 
L 514.990591 -64.38029 
L 512.907171 -62.268254 
L 511.411667 -60.156218 
z
" style="stroke: #3f3f3f; stroke-width: 1.25"/>
    </defs>
    <g clip-path="url(#p1d8cc26d88)">
     <use xlink:href="#m288c16ceca" x="0" y="360" style="fill: #e1812c; stroke: #3f3f3f; stroke-width: 1.25"/>
    </g>
   </g>
   <g id="patch_3">
    <path d="M 229.5 278.212555 
L 229.5 278.212555 
L 229.5 278.212555 
L 229.5 278.212555 
z
" clip-path="url(#p1d8cc26d88)" style="fill: #3274a1; stroke: #3f3f3f; stroke-width: 1.25; stroke-linejoin: miter"/>
   </g>
   <g id="patch_4">
    <path d="M 229.5 278.212555 
L 229.5 278.212555 
L 229.5 278.212555 
L 229.5 278.212555 
z
" clip-path="url(#p1d8cc26d88)" style="fill: #e1812c; stroke: #3f3f3f; stroke-width: 1.25; stroke-linejoin: miter"/>
   </g>
   <g id="matplotlib.axis_1">
    <g id="xtick_1">
     <g id="line2d_1">
      <defs>
       <path id="m7f0669278e" d="M 0 0 
L 0 3.5 
" style="stroke: #000000; stroke-width: 0.8"/>
      </defs>
      <g>
       <use xlink:href="#m7f0669278e" x="229.5" y="320.4" style="stroke: #000000; stroke-width: 0.8"/>
      </g>
     </g>
     <g id="text_1">
      <!-- n -->
      <g transform="translate(226.33125 334.998438) scale(0.1 -0.1)">
       <defs>
        <path id="DejaVuSans-6e" d="M 3513 2113 
L 3513 0 
L 2938 0 
L 2938 2094 
Q 2938 2591 2744 2837 
Q 2550 3084 2163 3084 
Q 1697 3084 1428 2787 
Q 1159 2491 1159 1978 
L 1159 0 
L 581 0 
L 581 3500 
L 1159 3500 
L 1159 2956 
Q 1366 3272 1645 3428 
Q 1925 3584 2291 3584 
Q 2894 3584 3203 3211 
Q 3513 2838 3513 2113 
z
" transform="scale(0.015625)"/>
       </defs>
       <use xlink:href="#DejaVuSans-6e"/>
      </g>
     </g>
    </g>
    <g id="xtick_2">
     <g id="line2d_2">
      <g>
       <use xlink:href="#m7f0669278e" x="508.5" y="320.4" style="stroke: #000000; stroke-width: 0.8"/>
      </g>
     </g>
     <g id="text_2">
      <!-- y -->
      <g transform="translate(505.540625 334.998438) scale(0.1 -0.1)">
       <defs>
        <path id="DejaVuSans-79" d="M 2059 -325 
Q 1816 -950 1584 -1140 
Q 1353 -1331 966 -1331 
L 506 -1331 
L 506 -850 
L 844 -850 
Q 1081 -850 1212 -737 
Q 1344 -625 1503 -206 
L 1606 56 
L 191 3500 
L 800 3500 
L 1894 763 
L 2988 3500 
L 3597 3500 
L 2059 -325 
z
" transform="scale(0.015625)"/>
       </defs>
       <use xlink:href="#DejaVuSans-79"/>
      </g>
     </g>
    </g>
    <g id="text_3">
     <!-- value -->
     <g transform="translate(355.342188 348.676562) scale(0.1 -0.1)">
      <defs>
       <path id="DejaVuSans-76" d="M 191 3500 
L 800 3500 
L 1894 563 
L 2988 3500 
L 3597 3500 
L 2284 0 
L 1503 0 
L 191 3500 
z
" transform="scale(0.015625)"/>
       <path id="DejaVuSans-61" d="M 2194 1759 
Q 1497 1759 1228 1600 
Q 959 1441 959 1056 
Q 959 750 1161 570 
Q 1363 391 1709 391 
Q 2188 391 2477 730 
Q 2766 1069 2766 1631 
L 2766 1759 
L 2194 1759 
z
M 3341 1997 
L 3341 0 
L 2766 0 
L 2766 531 
Q 2569 213 2275 61 
Q 1981 -91 1556 -91 
Q 1019 -91 701 211 
Q 384 513 384 1019 
Q 384 1609 779 1909 
Q 1175 2209 1959 2209 
L 2766 2209 
L 2766 2266 
Q 2766 2663 2505 2880 
Q 2244 3097 1772 3097 
Q 1472 3097 1187 3025 
Q 903 2953 641 2809 
L 641 3341 
Q 956 3463 1253 3523 
Q 1550 3584 1831 3584 
Q 2591 3584 2966 3190 
Q 3341 2797 3341 1997 
z
" transform="scale(0.015625)"/>
       <path id="DejaVuSans-6c" d="M 603 4863 
L 1178 4863 
L 1178 0 
L 603 0 
L 603 4863 
z
" transform="scale(0.015625)"/>
       <path id="DejaVuSans-75" d="M 544 1381 
L 544 3500 
L 1119 3500 
L 1119 1403 
Q 1119 906 1312 657 
Q 1506 409 1894 409 
Q 2359 409 2629 706 
Q 2900 1003 2900 1516 
L 2900 3500 
L 3475 3500 
L 3475 0 
L 2900 0 
L 2900 538 
Q 2691 219 2414 64 
Q 2138 -91 1772 -91 
Q 1169 -91 856 284 
Q 544 659 544 1381 
z
M 1991 3584 
L 1991 3584 
z
" transform="scale(0.015625)"/>
       <path id="DejaVuSans-65" d="M 3597 1894 
L 3597 1613 
L 953 1613 
Q 991 1019 1311 708 
Q 1631 397 2203 397 
Q 2534 397 2845 478 
Q 3156 559 3463 722 
L 3463 178 
Q 3153 47 2828 -22 
Q 2503 -91 2169 -91 
Q 1331 -91 842 396 
Q 353 884 353 1716 
Q 353 2575 817 3079 
Q 1281 3584 2069 3584 
Q 2775 3584 3186 3129 
Q 3597 2675 3597 1894 
z
M 3022 2063 
Q 3016 2534 2758 2815 
Q 2500 3097 2075 3097 
Q 1594 3097 1305 2825 
Q 1016 2553 972 2059 
L 3022 2063 
z
" transform="scale(0.015625)"/>
      </defs>
      <use xlink:href="#DejaVuSans-76"/>
      <use xlink:href="#DejaVuSans-61" transform="translate(59.179688 0)"/>
      <use xlink:href="#DejaVuSans-6c" transform="translate(120.458984 0)"/>
      <use xlink:href="#DejaVuSans-75" transform="translate(148.242188 0)"/>
      <use xlink:href="#DejaVuSans-65" transform="translate(211.621094 0)"/>
     </g>
    </g>
   </g>
   <g id="matplotlib.axis_2">
    <g id="ytick_1">
     <g id="line2d_3">
      <defs>
       <path id="m69c913686a" d="M 0 0 
L -3.5 0 
" style="stroke: #000000; stroke-width: 0.8"/>
      </defs>
      <g>
       <use xlink:href="#m69c913686a" x="90" y="278.212555" style="stroke: #000000; stroke-width: 0.8"/>
      </g>
     </g>
     <g id="text_4">
      <!-- 0.0 -->
      <g transform="translate(67.096875 282.011774) scale(0.1 -0.1)">
       <defs>
        <path id="DejaVuSans-30" d="M 2034 4250 
Q 1547 4250 1301 3770 
Q 1056 3291 1056 2328 
Q 1056 1369 1301 889 
Q 1547 409 2034 409 
Q 2525 409 2770 889 
Q 3016 1369 3016 2328 
Q 3016 3291 2770 3770 
Q 2525 4250 2034 4250 
z
M 2034 4750 
Q 2819 4750 3233 4129 
Q 3647 3509 3647 2328 
Q 3647 1150 3233 529 
Q 2819 -91 2034 -91 
Q 1250 -91 836 529 
Q 422 1150 422 2328 
Q 422 3509 836 4129 
Q 1250 4750 2034 4750 
z
" transform="scale(0.015625)"/>
        <path id="DejaVuSans-2e" d="M 684 794 
L 1344 794 
L 1344 0 
L 684 0 
L 684 794 
z
" transform="scale(0.015625)"/>
       </defs>
       <use xlink:href="#DejaVuSans-30"/>
       <use xlink:href="#DejaVuSans-2e" transform="translate(63.623047 0)"/>
       <use xlink:href="#DejaVuSans-30" transform="translate(95.410156 0)"/>
      </g>
     </g>
    </g>
    <g id="ytick_2">
     <g id="line2d_4">
      <g>
       <use xlink:href="#m69c913686a" x="90" y="221.515892" style="stroke: #000000; stroke-width: 0.8"/>
      </g>
     </g>
     <g id="text_5">
      <!-- 0.5 -->
      <g transform="translate(67.096875 225.315111) scale(0.1 -0.1)">
       <defs>
        <path id="DejaVuSans-35" d="M 691 4666 
L 3169 4666 
L 3169 4134 
L 1269 4134 
L 1269 2991 
Q 1406 3038 1543 3061 
Q 1681 3084 1819 3084 
Q 2600 3084 3056 2656 
Q 3513 2228 3513 1497 
Q 3513 744 3044 326 
Q 2575 -91 1722 -91 
Q 1428 -91 1123 -41 
Q 819 9 494 109 
L 494 744 
Q 775 591 1075 516 
Q 1375 441 1709 441 
Q 2250 441 2565 725 
Q 2881 1009 2881 1497 
Q 2881 1984 2565 2268 
Q 2250 2553 1709 2553 
Q 1456 2553 1204 2497 
Q 953 2441 691 2322 
L 691 4666 
z
" transform="scale(0.015625)"/>
       </defs>
       <use xlink:href="#DejaVuSans-30"/>
       <use xlink:href="#DejaVuSans-2e" transform="translate(63.623047 0)"/>
       <use xlink:href="#DejaVuSans-35" transform="translate(95.410156 0)"/>
      </g>
     </g>
    </g>
    <g id="ytick_3">
     <g id="line2d_5">
      <g>
       <use xlink:href="#m69c913686a" x="90" y="164.819229" style="stroke: #000000; stroke-width: 0.8"/>
      </g>
     </g>
     <g id="text_6">
      <!-- 1.0 -->
      <g transform="translate(67.096875 168.618448) scale(0.1 -0.1)">
       <defs>
        <path id="DejaVuSans-31" d="M 794 531 
L 1825 531 
L 1825 4091 
L 703 3866 
L 703 4441 
L 1819 4666 
L 2450 4666 
L 2450 531 
L 3481 531 
L 3481 0 
L 794 0 
L 794 531 
z
" transform="scale(0.015625)"/>
       </defs>
       <use xlink:href="#DejaVuSans-31"/>
       <use xlink:href="#DejaVuSans-2e" transform="translate(63.623047 0)"/>
       <use xlink:href="#DejaVuSans-30" transform="translate(95.410156 0)"/>
      </g>
     </g>
    </g>
    <g id="ytick_4">
     <g id="line2d_6">
      <g>
       <use xlink:href="#m69c913686a" x="90" y="108.122566" style="stroke: #000000; stroke-width: 0.8"/>
      </g>
     </g>
     <g id="text_7">
      <!-- 1.5 -->
      <g transform="translate(67.096875 111.921785) scale(0.1 -0.1)">
       <use xlink:href="#DejaVuSans-31"/>
       <use xlink:href="#DejaVuSans-2e" transform="translate(63.623047 0)"/>
       <use xlink:href="#DejaVuSans-35" transform="translate(95.410156 0)"/>
      </g>
     </g>
    </g>
    <g id="ytick_5">
     <g id="line2d_7">
      <g>
       <use xlink:href="#m69c913686a" x="90" y="51.425903" style="stroke: #000000; stroke-width: 0.8"/>
      </g>
     </g>
     <g id="text_8">
      <!-- 2.0 -->
      <g transform="translate(67.096875 55.225122) scale(0.1 -0.1)">
       <defs>
        <path id="DejaVuSans-32" d="M 1228 531 
L 3431 531 
L 3431 0 
L 469 0 
L 469 531 
Q 828 903 1448 1529 
Q 2069 2156 2228 2338 
Q 2531 2678 2651 2914 
Q 2772 3150 2772 3378 
Q 2772 3750 2511 3984 
Q 2250 4219 1831 4219 
Q 1534 4219 1204 4116 
Q 875 4013 500 3803 
L 500 4441 
Q 881 4594 1212 4672 
Q 1544 4750 1819 4750 
Q 2544 4750 2975 4387 
Q 3406 4025 3406 3419 
Q 3406 3131 3298 2873 
Q 3191 2616 2906 2266 
Q 2828 2175 2409 1742 
Q 1991 1309 1228 531 
z
" transform="scale(0.015625)"/>
       </defs>
       <use xlink:href="#DejaVuSans-32"/>
       <use xlink:href="#DejaVuSans-2e" transform="translate(63.623047 0)"/>
       <use xlink:href="#DejaVuSans-30" transform="translate(95.410156 0)"/>
      </g>
     </g>
    </g>
    <g id="text_9">
     <!-- cont_variable -->
     <g transform="translate(60.739062 215.409375) rotate(-90) scale(0.1 -0.1)">
      <defs>
       <path id="DejaVuSans-63" d="M 3122 3366 
L 3122 2828 
Q 2878 2963 2633 3030 
Q 2388 3097 2138 3097 
Q 1578 3097 1268 2742 
Q 959 2388 959 1747 
Q 959 1106 1268 751 
Q 1578 397 2138 397 
Q 2388 397 2633 464 
Q 2878 531 3122 666 
L 3122 134 
Q 2881 22 2623 -34 
Q 2366 -91 2075 -91 
Q 1284 -91 818 406 
Q 353 903 353 1747 
Q 353 2603 823 3093 
Q 1294 3584 2113 3584 
Q 2378 3584 2631 3529 
Q 2884 3475 3122 3366 
z
" transform="scale(0.015625)"/>
       <path id="DejaVuSans-6f" d="M 1959 3097 
Q 1497 3097 1228 2736 
Q 959 2375 959 1747 
Q 959 1119 1226 758 
Q 1494 397 1959 397 
Q 2419 397 2687 759 
Q 2956 1122 2956 1747 
Q 2956 2369 2687 2733 
Q 2419 3097 1959 3097 
z
M 1959 3584 
Q 2709 3584 3137 3096 
Q 3566 2609 3566 1747 
Q 3566 888 3137 398 
Q 2709 -91 1959 -91 
Q 1206 -91 779 398 
Q 353 888 353 1747 
Q 353 2609 779 3096 
Q 1206 3584 1959 3584 
z
" transform="scale(0.015625)"/>
       <path id="DejaVuSans-74" d="M 1172 4494 
L 1172 3500 
L 2356 3500 
L 2356 3053 
L 1172 3053 
L 1172 1153 
Q 1172 725 1289 603 
Q 1406 481 1766 481 
L 2356 481 
L 2356 0 
L 1766 0 
Q 1100 0 847 248 
Q 594 497 594 1153 
L 594 3053 
L 172 3053 
L 172 3500 
L 594 3500 
L 594 4494 
L 1172 4494 
z
" transform="scale(0.015625)"/>
       <path id="DejaVuSans-5f" d="M 3263 -1063 
L 3263 -1509 
L -63 -1509 
L -63 -1063 
L 3263 -1063 
z
" transform="scale(0.015625)"/>
       <path id="DejaVuSans-72" d="M 2631 2963 
Q 2534 3019 2420 3045 
Q 2306 3072 2169 3072 
Q 1681 3072 1420 2755 
Q 1159 2438 1159 1844 
L 1159 0 
L 581 0 
L 581 3500 
L 1159 3500 
L 1159 2956 
Q 1341 3275 1631 3429 
Q 1922 3584 2338 3584 
Q 2397 3584 2469 3576 
Q 2541 3569 2628 3553 
L 2631 2963 
z
" transform="scale(0.015625)"/>
       <path id="DejaVuSans-69" d="M 603 3500 
L 1178 3500 
L 1178 0 
L 603 0 
L 603 3500 
z
M 603 4863 
L 1178 4863 
L 1178 4134 
L 603 4134 
L 603 4863 
z
" transform="scale(0.015625)"/>
       <path id="DejaVuSans-62" d="M 3116 1747 
Q 3116 2381 2855 2742 
Q 2594 3103 2138 3103 
Q 1681 3103 1420 2742 
Q 1159 2381 1159 1747 
Q 1159 1113 1420 752 
Q 1681 391 2138 391 
Q 2594 391 2855 752 
Q 3116 1113 3116 1747 
z
M 1159 2969 
Q 1341 3281 1617 3432 
Q 1894 3584 2278 3584 
Q 2916 3584 3314 3078 
Q 3713 2572 3713 1747 
Q 3713 922 3314 415 
Q 2916 -91 2278 -91 
Q 1894 -91 1617 61 
Q 1341 213 1159 525 
L 1159 0 
L 581 0 
L 581 4863 
L 1159 4863 
L 1159 2969 
z
" transform="scale(0.015625)"/>
      </defs>
      <use xlink:href="#DejaVuSans-63"/>
      <use xlink:href="#DejaVuSans-6f" transform="translate(54.980469 0)"/>
      <use xlink:href="#DejaVuSans-6e" transform="translate(116.162109 0)"/>
      <use xlink:href="#DejaVuSans-74" transform="translate(179.541016 0)"/>
      <use xlink:href="#DejaVuSans-5f" transform="translate(218.75 0)"/>
      <use xlink:href="#DejaVuSans-76" transform="translate(268.75 0)"/>
      <use xlink:href="#DejaVuSans-61" transform="translate(327.929688 0)"/>
      <use xlink:href="#DejaVuSans-72" transform="translate(389.208984 0)"/>
      <use xlink:href="#DejaVuSans-69" transform="translate(430.322266 0)"/>
      <use xlink:href="#DejaVuSans-61" transform="translate(458.105469 0)"/>
      <use xlink:href="#DejaVuSans-62" transform="translate(519.384766 0)"/>
      <use xlink:href="#DejaVuSans-6c" transform="translate(582.861328 0)"/>
      <use xlink:href="#DejaVuSans-65" transform="translate(610.644531 0)"/>
     </g>
    </g>
   </g>
   <g id="patch_5">
    <path d="M 90 320.4 
L 90 43.2 
" style="fill: none; stroke: #000000; stroke-width: 0.8; stroke-linejoin: miter; stroke-linecap: square"/>
   </g>
   <g id="patch_6">
    <path d="M 648 320.4 
L 648 43.2 
" style="fill: none; stroke: #000000; stroke-width: 0.8; stroke-linejoin: miter; stroke-linecap: square"/>
   </g>
   <g id="patch_7">
    <path d="M 90 320.4 
L 648 320.4 
" style="fill: none; stroke: #000000; stroke-width: 0.8; stroke-linejoin: miter; stroke-linecap: square"/>
   </g>
   <g id="patch_8">
    <path d="M 90 43.2 
L 648 43.2 
" style="fill: none; stroke: #000000; stroke-width: 0.8; stroke-linejoin: miter; stroke-linecap: square"/>
   </g>
   <g id="PathCollection_1">
    <defs>
     <path id="m82af10c4e6" d="M 0 2.5 
C 0.663008 2.5 1.29895 2.236584 1.767767 1.767767 
C 2.236584 1.29895 2.5 0.663008 2.5 0 
C 2.5 -0.663008 2.236584 -1.29895 1.767767 -1.767767 
C 1.29895 -2.236584 0.663008 -2.5 0 -2.5 
C -0.663008 -2.5 -1.29895 -2.236584 -1.767767 -1.767767 
C -2.236584 -1.29895 -2.5 -0.663008 -2.5 0 
C -2.5 0.663008 -2.236584 1.29895 -1.767767 1.767767 
C -1.29895 2.236584 -0.663008 2.5 0 2.5 
z
"/>
    </defs>
    <g clip-path="url(#p1d8cc26d88)">
     <use xlink:href="#m82af10c4e6" x="221.579307" y="267.868543" style="fill-opacity: 0.3"/>
     <use xlink:href="#m82af10c4e6" x="222.000361" y="258.780648" style="fill-opacity: 0.3"/>
     <use xlink:href="#m82af10c4e6" x="218.028681" y="268.631116" style="fill-opacity: 0.3"/>
     <use xlink:href="#m82af10c4e6" x="216.330592" y="264.9052" style="fill-opacity: 0.3"/>
     <use xlink:href="#m82af10c4e6" x="203.061731" y="255.681611" style="fill-opacity: 0.3"/>
     <use xlink:href="#m82af10c4e6" x="218.816925" y="172.594933" style="fill-opacity: 0.3"/>
     <use xlink:href="#m82af10c4e6" x="245.205235" y="263.114422" style="fill-opacity: 0.3"/>
     <use xlink:href="#m82af10c4e6" x="234.192947" y="268.531023" style="fill-opacity: 0.3"/>
     <use xlink:href="#m82af10c4e6" x="235.079164" y="267.374316" style="fill-opacity: 0.3"/>
     <use xlink:href="#m82af10c4e6" x="238.285607" y="244.55346" style="fill-opacity: 0.3"/>
     <use xlink:href="#m82af10c4e6" x="246.237953" y="268.807644" style="fill-opacity: 0.3"/>
     <use xlink:href="#m82af10c4e6" x="228.299045" y="268.617689" style="fill-opacity: 0.3"/>
     <use xlink:href="#m82af10c4e6" x="246.741395" y="266.447662" style="fill-opacity: 0.3"/>
     <use xlink:href="#m82af10c4e6" x="240.482057" y="268.197502" style="fill-opacity: 0.3"/>
     <use xlink:href="#m82af10c4e6" x="204.336254" y="267.225496" style="fill-opacity: 0.3"/>
     <use xlink:href="#m82af10c4e6" x="253.543166" y="270.901105" style="fill-opacity: 0.3"/>
     <use xlink:href="#m82af10c4e6" x="202.252563" y="206.676011" style="fill-opacity: 0.3"/>
     <use xlink:href="#m82af10c4e6" x="224.735996" y="222.521627" style="fill-opacity: 0.3"/>
     <use xlink:href="#m82af10c4e6" x="230.720232" y="220.622251" style="fill-opacity: 0.3"/>
     <use xlink:href="#m82af10c4e6" x="247.549027" y="193.930341" style="fill-opacity: 0.3"/>
     <use xlink:href="#m82af10c4e6" x="255.811044" y="263.169742" style="fill-opacity: 0.3"/>
     <use xlink:href="#m82af10c4e6" x="246.403801" y="246.506665" style="fill-opacity: 0.3"/>
     <use xlink:href="#m82af10c4e6" x="230.979037" y="228.559624" style="fill-opacity: 0.3"/>
     <use xlink:href="#m82af10c4e6" x="250.948447" y="92.698895" style="fill-opacity: 0.3"/>
     <use xlink:href="#m82af10c4e6" x="254.106855" y="250.836764" style="fill-opacity: 0.3"/>
     <use xlink:href="#m82af10c4e6" x="231.420772" y="224.407409" style="fill-opacity: 0.3"/>
     <use xlink:href="#m82af10c4e6" x="238.086508" y="172.283559" style="fill-opacity: 0.3"/>
     <use xlink:href="#m82af10c4e6" x="249.677147" y="231.518508" style="fill-opacity: 0.3"/>
     <use xlink:href="#m82af10c4e6" x="231.768664" y="95.408293" style="fill-opacity: 0.3"/>
     <use xlink:href="#m82af10c4e6" x="224.26788" y="250.854492" style="fill-opacity: 0.3"/>
     <use xlink:href="#m82af10c4e6" x="203.191701" y="223.402217" style="fill-opacity: 0.3"/>
     <use xlink:href="#m82af10c4e6" x="229.986868" y="169.587126" style="fill-opacity: 0.3"/>
     <use xlink:href="#m82af10c4e6" x="239.568463" y="205.66159" style="fill-opacity: 0.3"/>
     <use xlink:href="#m82af10c4e6" x="228.584413" y="245.7703" style="fill-opacity: 0.3"/>
     <use xlink:href="#m82af10c4e6" x="252.824027" y="215.308837" style="fill-opacity: 0.3"/>
     <use xlink:href="#m82af10c4e6" x="222.813009" y="178.679341" style="fill-opacity: 0.3"/>
     <use xlink:href="#m82af10c4e6" x="205.021909" y="117.840164" style="fill-opacity: 0.3"/>
     <use xlink:href="#m82af10c4e6" x="224.179152" y="98.214836" style="fill-opacity: 0.3"/>
     <use xlink:href="#m82af10c4e6" x="247.225176" y="253.794209" style="fill-opacity: 0.3"/>
     <use xlink:href="#m82af10c4e6" x="202.637918" y="259.192658" style="fill-opacity: 0.3"/>
     <use xlink:href="#m82af10c4e6" x="243.350721" y="253.383318" style="fill-opacity: 0.3"/>
     <use xlink:href="#m82af10c4e6" x="235.738269" y="256.146537" style="fill-opacity: 0.3"/>
     <use xlink:href="#m82af10c4e6" x="246.757035" y="117.44706" style="fill-opacity: 0.3"/>
     <use xlink:href="#m82af10c4e6" x="226.58126" y="179.05366" style="fill-opacity: 0.3"/>
     <use xlink:href="#m82af10c4e6" x="235.251494" y="156.687064" style="fill-opacity: 0.3"/>
     <use xlink:href="#m82af10c4e6" x="252.448259" y="187.640807" style="fill-opacity: 0.3"/>
     <use xlink:href="#m82af10c4e6" x="236.105822" y="233.268443" style="fill-opacity: 0.3"/>
     <use xlink:href="#m82af10c4e6" x="232.931297" y="243.594587" style="fill-opacity: 0.3"/>
     <use xlink:href="#m82af10c4e6" x="227.565536" y="182.608381" style="fill-opacity: 0.3"/>
     <use xlink:href="#m82af10c4e6" x="230.802115" y="269.024951" style="fill-opacity: 0.3"/>
     <use xlink:href="#m82af10c4e6" x="201.855393" y="269.600322" style="fill-opacity: 0.3"/>
     <use xlink:href="#m82af10c4e6" x="234.792888" y="201.216825" style="fill-opacity: 0.3"/>
     <use xlink:href="#m82af10c4e6" x="202.017806" y="183.23665" style="fill-opacity: 0.3"/>
     <use xlink:href="#m82af10c4e6" x="256.295498" y="173.903766" style="fill-opacity: 0.3"/>
     <use xlink:href="#m82af10c4e6" x="232.15417" y="229.39816" style="fill-opacity: 0.3"/>
     <use xlink:href="#m82af10c4e6" x="224.29813" y="226.708895" style="fill-opacity: 0.3"/>
     <use xlink:href="#m82af10c4e6" x="230.027884" y="242.323475" style="fill-opacity: 0.3"/>
     <use xlink:href="#m82af10c4e6" x="244.481994" y="215.995796" style="fill-opacity: 0.3"/>
     <use xlink:href="#m82af10c4e6" x="206.799008" y="192.615719" style="fill-opacity: 0.3"/>
     <use xlink:href="#m82af10c4e6" x="220.705602" y="252.717652" style="fill-opacity: 0.3"/>
     <use xlink:href="#m82af10c4e6" x="204.10408" y="268.530482" style="fill-opacity: 0.3"/>
     <use xlink:href="#m82af10c4e6" x="222.228941" y="179.922897" style="fill-opacity: 0.3"/>
     <use xlink:href="#m82af10c4e6" x="202.623014" y="201.792425" style="fill-opacity: 0.3"/>
     <use xlink:href="#m82af10c4e6" x="232.566173" y="261.90347" style="fill-opacity: 0.3"/>
     <use xlink:href="#m82af10c4e6" x="227.245157" y="237.521224" style="fill-opacity: 0.3"/>
     <use xlink:href="#m82af10c4e6" x="248.597792" y="221.457439" style="fill-opacity: 0.3"/>
     <use xlink:href="#m82af10c4e6" x="204.19527" y="230.393697" style="fill-opacity: 0.3"/>
     <use xlink:href="#m82af10c4e6" x="215.412384" y="236.727327" style="fill-opacity: 0.3"/>
     <use xlink:href="#m82af10c4e6" x="220.816705" y="262.53815" style="fill-opacity: 0.3"/>
     <use xlink:href="#m82af10c4e6" x="203.186312" y="252.083903" style="fill-opacity: 0.3"/>
     <use xlink:href="#m82af10c4e6" x="244.032651" y="253.639932" style="fill-opacity: 0.3"/>
     <use xlink:href="#m82af10c4e6" x="219.730974" y="169.174215" style="fill-opacity: 0.3"/>
     <use xlink:href="#m82af10c4e6" x="208.504062" y="181.463367" style="fill-opacity: 0.3"/>
     <use xlink:href="#m82af10c4e6" x="250.067223" y="206.053141" style="fill-opacity: 0.3"/>
     <use xlink:href="#m82af10c4e6" x="211.104265" y="200.269052" style="fill-opacity: 0.3"/>
     <use xlink:href="#m82af10c4e6" x="238.504148" y="204.47903" style="fill-opacity: 0.3"/>
     <use xlink:href="#m82af10c4e6" x="237.697068" y="185.344996" style="fill-opacity: 0.3"/>
     <use xlink:href="#m82af10c4e6" x="208.887084" y="266.601764" style="fill-opacity: 0.3"/>
     <use xlink:href="#m82af10c4e6" x="214.304653" y="223.071024" style="fill-opacity: 0.3"/>
     <use xlink:href="#m82af10c4e6" x="206.033596" y="217.239291" style="fill-opacity: 0.3"/>
     <use xlink:href="#m82af10c4e6" x="221.738777" y="194.730361" style="fill-opacity: 0.3"/>
     <use xlink:href="#m82af10c4e6" x="227.06531" y="197.842272" style="fill-opacity: 0.3"/>
     <use xlink:href="#m82af10c4e6" x="246.516744" y="176.02222" style="fill-opacity: 0.3"/>
     <use xlink:href="#m82af10c4e6" x="256.874811" y="190.082925" style="fill-opacity: 0.3"/>
     <use xlink:href="#m82af10c4e6" x="246.105906" y="235.180702" style="fill-opacity: 0.3"/>
     <use xlink:href="#m82af10c4e6" x="227.943844" y="194.17709" style="fill-opacity: 0.3"/>
     <use xlink:href="#m82af10c4e6" x="254.498459" y="265.230844" style="fill-opacity: 0.3"/>
     <use xlink:href="#m82af10c4e6" x="243.305353" y="266.732803" style="fill-opacity: 0.3"/>
     <use xlink:href="#m82af10c4e6" x="218.246257" y="164.712216" style="fill-opacity: 0.3"/>
     <use xlink:href="#m82af10c4e6" x="227.276424" y="141.146519" style="fill-opacity: 0.3"/>
     <use xlink:href="#m82af10c4e6" x="233.449044" y="160.180087" style="fill-opacity: 0.3"/>
     <use xlink:href="#m82af10c4e6" x="204.657938" y="225.408759" style="fill-opacity: 0.3"/>
     <use xlink:href="#m82af10c4e6" x="239.782592" y="262.11522" style="fill-opacity: 0.3"/>
     <use xlink:href="#m82af10c4e6" x="238.513793" y="176.741173" style="fill-opacity: 0.3"/>
     <use xlink:href="#m82af10c4e6" x="228.696931" y="96.580806" style="fill-opacity: 0.3"/>
    </g>
   </g>
   <g id="PathCollection_2">
    <g clip-path="url(#p1d8cc26d88)">
     <use xlink:href="#m82af10c4e6" x="516.48426" y="243.439911" style="fill-opacity: 0.3"/>
     <use xlink:href="#m82af10c4e6" x="484.937242" y="247.103141" style="fill-opacity: 0.3"/>
     <use xlink:href="#m82af10c4e6" x="523.989472" y="252.536399" style="fill-opacity: 0.3"/>
     <use xlink:href="#m82af10c4e6" x="518.120743" y="250.26829" style="fill-opacity: 0.3"/>
     <use xlink:href="#m82af10c4e6" x="528.917802" y="249.960658" style="fill-opacity: 0.3"/>
     <use xlink:href="#m82af10c4e6" x="494.593146" y="255.44326" style="fill-opacity: 0.3"/>
     <use xlink:href="#m82af10c4e6" x="513.042698" y="221.848043" style="fill-opacity: 0.3"/>
     <use xlink:href="#m82af10c4e6" x="504.418148" y="246.972239" style="fill-opacity: 0.3"/>
     <use xlink:href="#m82af10c4e6" x="508.354052" y="231.018864" style="fill-opacity: 0.3"/>
     <use xlink:href="#m82af10c4e6" x="533.748134" y="236.536313" style="fill-opacity: 0.3"/>
     <use xlink:href="#m82af10c4e6" x="509.855621" y="248.299891" style="fill-opacity: 0.3"/>
     <use xlink:href="#m82af10c4e6" x="532.572178" y="224.332864" style="fill-opacity: 0.3"/>
     <use xlink:href="#m82af10c4e6" x="486.647999" y="233.372659" style="fill-opacity: 0.3"/>
     <use xlink:href="#m82af10c4e6" x="536.179721" y="242.361319" style="fill-opacity: 0.3"/>
     <use xlink:href="#m82af10c4e6" x="532.894135" y="261.666585" style="fill-opacity: 0.3"/>
     <use xlink:href="#m82af10c4e6" x="527.69408" y="259.876308" style="fill-opacity: 0.3"/>
     <use xlink:href="#m82af10c4e6" x="513.589208" y="264.365413" style="fill-opacity: 0.3"/>
     <use xlink:href="#m82af10c4e6" x="514.079464" y="260.355807" style="fill-opacity: 0.3"/>
     <use xlink:href="#m82af10c4e6" x="526.320294" y="257.43235" style="fill-opacity: 0.3"/>
     <use xlink:href="#m82af10c4e6" x="510.208499" y="263.967433" style="fill-opacity: 0.3"/>
     <use xlink:href="#m82af10c4e6" x="491.954931" y="262.56359" style="fill-opacity: 0.3"/>
     <use xlink:href="#m82af10c4e6" x="526.259966" y="262.665813" style="fill-opacity: 0.3"/>
     <use xlink:href="#m82af10c4e6" x="483.81681" y="261.187382" style="fill-opacity: 0.3"/>
     <use xlink:href="#m82af10c4e6" x="527.1351" y="268.868888" style="fill-opacity: 0.3"/>
     <use xlink:href="#m82af10c4e6" x="505.089082" y="261.126223" style="fill-opacity: 0.3"/>
     <use xlink:href="#m82af10c4e6" x="511.751922" y="246.824758" style="fill-opacity: 0.3"/>
     <use xlink:href="#m82af10c4e6" x="507.846343" y="263.353643" style="fill-opacity: 0.3"/>
     <use xlink:href="#m82af10c4e6" x="483.397644" y="264.562277" style="fill-opacity: 0.3"/>
     <use xlink:href="#m82af10c4e6" x="496.347236" y="253.815523" style="fill-opacity: 0.3"/>
     <use xlink:href="#m82af10c4e6" x="528.856321" y="248.171657" style="fill-opacity: 0.3"/>
     <use xlink:href="#m82af10c4e6" x="520.334343" y="261.469416" style="fill-opacity: 0.3"/>
     <use xlink:href="#m82af10c4e6" x="516.216552" y="262.376414" style="fill-opacity: 0.3"/>
     <use xlink:href="#m82af10c4e6" x="524.124878" y="257.862417" style="fill-opacity: 0.3"/>
     <use xlink:href="#m82af10c4e6" x="502.099235" y="258.668539" style="fill-opacity: 0.3"/>
     <use xlink:href="#m82af10c4e6" x="510.856301" y="269.890084" style="fill-opacity: 0.3"/>
     <use xlink:href="#m82af10c4e6" x="492.721897" y="262.72468" style="fill-opacity: 0.3"/>
     <use xlink:href="#m82af10c4e6" x="515.573603" y="260.897298" style="fill-opacity: 0.3"/>
     <use xlink:href="#m82af10c4e6" x="496.67452" y="271.886686" style="fill-opacity: 0.3"/>
     <use xlink:href="#m82af10c4e6" x="511.407489" y="264.406997" style="fill-opacity: 0.3"/>
     <use xlink:href="#m82af10c4e6" x="522.487292" y="191.76475" style="fill-opacity: 0.3"/>
     <use xlink:href="#m82af10c4e6" x="481.716929" y="173.983343" style="fill-opacity: 0.3"/>
     <use xlink:href="#m82af10c4e6" x="529.431694" y="163.822677" style="fill-opacity: 0.3"/>
     <use xlink:href="#m82af10c4e6" x="534.651335" y="148.263187" style="fill-opacity: 0.3"/>
     <use xlink:href="#m82af10c4e6" x="529.231554" y="275.304569" style="fill-opacity: 0.3"/>
     <use xlink:href="#m82af10c4e6" x="519.287749" y="275.988431" style="fill-opacity: 0.3"/>
     <use xlink:href="#m82af10c4e6" x="520.575363" y="276.541108" style="fill-opacity: 0.3"/>
     <use xlink:href="#m82af10c4e6" x="492.731121" y="276.102648" style="fill-opacity: 0.3"/>
     <use xlink:href="#m82af10c4e6" x="508.734845" y="275.593003" style="fill-opacity: 0.3"/>
     <use xlink:href="#m82af10c4e6" x="525.514346" y="274.683236" style="fill-opacity: 0.3"/>
     <use xlink:href="#m82af10c4e6" x="517.446252" y="274.579595" style="fill-opacity: 0.3"/>
     <use xlink:href="#m82af10c4e6" x="528.455827" y="275.086606" style="fill-opacity: 0.3"/>
     <use xlink:href="#m82af10c4e6" x="532.614583" y="275.55182" style="fill-opacity: 0.3"/>
     <use xlink:href="#m82af10c4e6" x="485.264161" y="229.532198" style="fill-opacity: 0.3"/>
     <use xlink:href="#m82af10c4e6" x="483.143374" y="114.054891" style="fill-opacity: 0.3"/>
     <use xlink:href="#m82af10c4e6" x="505.644942" y="143.917407" style="fill-opacity: 0.3"/>
     <use xlink:href="#m82af10c4e6" x="493.997846" y="141.852315" style="fill-opacity: 0.3"/>
     <use xlink:href="#m82af10c4e6" x="505.780087" y="153.804758" style="fill-opacity: 0.3"/>
     <use xlink:href="#m82af10c4e6" x="512.002335" y="219.426803" style="fill-opacity: 0.3"/>
     <use xlink:href="#m82af10c4e6" x="495.182237" y="202.478762" style="fill-opacity: 0.3"/>
     <use xlink:href="#m82af10c4e6" x="517.543837" y="229.040975" style="fill-opacity: 0.3"/>
     <use xlink:href="#m82af10c4e6" x="518.67723" y="229.174468" style="fill-opacity: 0.3"/>
     <use xlink:href="#m82af10c4e6" x="485.116464" y="261.569089" style="fill-opacity: 0.3"/>
     <use xlink:href="#m82af10c4e6" x="490.074347" y="250.180693" style="fill-opacity: 0.3"/>
     <use xlink:href="#m82af10c4e6" x="516.834903" y="260.268721" style="fill-opacity: 0.3"/>
     <use xlink:href="#m82af10c4e6" x="529.114319" y="260.16804" style="fill-opacity: 0.3"/>
     <use xlink:href="#m82af10c4e6" x="535.068688" y="256.732923" style="fill-opacity: 0.3"/>
     <use xlink:href="#m82af10c4e6" x="499.146506" y="260.622861" style="fill-opacity: 0.3"/>
     <use xlink:href="#m82af10c4e6" x="487.471898" y="264.73929" style="fill-opacity: 0.3"/>
     <use xlink:href="#m82af10c4e6" x="534.333763" y="264.209867" style="fill-opacity: 0.3"/>
     <use xlink:href="#m82af10c4e6" x="503.382275" y="265.38974" style="fill-opacity: 0.3"/>
     <use xlink:href="#m82af10c4e6" x="487.714432" y="241.442095" style="fill-opacity: 0.3"/>
     <use xlink:href="#m82af10c4e6" x="531.530234" y="246.401138" style="fill-opacity: 0.3"/>
     <use xlink:href="#m82af10c4e6" x="510.893673" y="261.937446" style="fill-opacity: 0.3"/>
     <use xlink:href="#m82af10c4e6" x="480.620113" y="253.394367" style="fill-opacity: 0.3"/>
     <use xlink:href="#m82af10c4e6" x="488.079987" y="264.846355" style="fill-opacity: 0.3"/>
     <use xlink:href="#m82af10c4e6" x="524.208568" y="262.109443" style="fill-opacity: 0.3"/>
     <use xlink:href="#m82af10c4e6" x="517.86285" y="262.22741" style="fill-opacity: 0.3"/>
     <use xlink:href="#m82af10c4e6" x="526.382647" y="260.573924" style="fill-opacity: 0.3"/>
     <use xlink:href="#m82af10c4e6" x="521.471241" y="262.616568" style="fill-opacity: 0.3"/>
     <use xlink:href="#m82af10c4e6" x="517.37989" y="259.764542" style="fill-opacity: 0.3"/>
     <use xlink:href="#m82af10c4e6" x="483.0843" y="255.778062" style="fill-opacity: 0.3"/>
     <use xlink:href="#m82af10c4e6" x="500.080944" y="249.253091" style="fill-opacity: 0.3"/>
     <use xlink:href="#m82af10c4e6" x="515.880973" y="256.848742" style="fill-opacity: 0.3"/>
     <use xlink:href="#m82af10c4e6" x="525.574919" y="248.941057" style="fill-opacity: 0.3"/>
     <use xlink:href="#m82af10c4e6" x="482.913991" y="259.287504" style="fill-opacity: 0.3"/>
     <use xlink:href="#m82af10c4e6" x="508.494169" y="255.254362" style="fill-opacity: 0.3"/>
     <use xlink:href="#m82af10c4e6" x="507.420222" y="254.952751" style="fill-opacity: 0.3"/>
     <use xlink:href="#m82af10c4e6" x="481.856845" y="262.670387" style="fill-opacity: 0.3"/>
     <use xlink:href="#m82af10c4e6" x="518.648016" y="254.663317" style="fill-opacity: 0.3"/>
     <use xlink:href="#m82af10c4e6" x="509.567007" y="236.294487" style="fill-opacity: 0.3"/>
     <use xlink:href="#m82af10c4e6" x="528.609052" y="251.434956" style="fill-opacity: 0.3"/>
     <use xlink:href="#m82af10c4e6" x="491.671953" y="259.783994" style="fill-opacity: 0.3"/>
     <use xlink:href="#m82af10c4e6" x="534.409424" y="265.362393" style="fill-opacity: 0.3"/>
     <use xlink:href="#m82af10c4e6" x="509.040078" y="261.607211" style="fill-opacity: 0.3"/>
     <use xlink:href="#m82af10c4e6" x="503.858403" y="264.143804" style="fill-opacity: 0.3"/>
     <use xlink:href="#m82af10c4e6" x="512.866197" y="266.40059" style="fill-opacity: 0.3"/>
     <use xlink:href="#m82af10c4e6" x="498.335237" y="265.754444" style="fill-opacity: 0.3"/>
     <use xlink:href="#m82af10c4e6" x="523.359692" y="272.603638" style="fill-opacity: 0.3"/>
     <use xlink:href="#m82af10c4e6" x="507.9178" y="272.027261" style="fill-opacity: 0.3"/>
     <use xlink:href="#m82af10c4e6" x="518.817186" y="260.001187" style="fill-opacity: 0.3"/>
     <use xlink:href="#m82af10c4e6" x="535.052326" y="273.413877" style="fill-opacity: 0.3"/>
     <use xlink:href="#m82af10c4e6" x="531.472102" y="266.598508" style="fill-opacity: 0.3"/>
     <use xlink:href="#m82af10c4e6" x="528.793936" y="270.766253" style="fill-opacity: 0.3"/>
     <use xlink:href="#m82af10c4e6" x="501.188774" y="267.860897" style="fill-opacity: 0.3"/>
     <use xlink:href="#m82af10c4e6" x="515.168827" y="269.388058" style="fill-opacity: 0.3"/>
     <use xlink:href="#m82af10c4e6" x="517.777183" y="269.752258" style="fill-opacity: 0.3"/>
     <use xlink:href="#m82af10c4e6" x="489.508996" y="266.070044" style="fill-opacity: 0.3"/>
     <use xlink:href="#m82af10c4e6" x="521.076436" y="249.536247" style="fill-opacity: 0.3"/>
     <use xlink:href="#m82af10c4e6" x="520.289787" y="265.771707" style="fill-opacity: 0.3"/>
     <use xlink:href="#m82af10c4e6" x="520.448332" y="247.584891" style="fill-opacity: 0.3"/>
     <use xlink:href="#m82af10c4e6" x="492.748857" y="266.800082" style="fill-opacity: 0.3"/>
     <use xlink:href="#m82af10c4e6" x="511.990059" y="267.109584" style="fill-opacity: 0.3"/>
     <use xlink:href="#m82af10c4e6" x="530.404234" y="275.287347" style="fill-opacity: 0.3"/>
     <use xlink:href="#m82af10c4e6" x="493.623732" y="269.019568" style="fill-opacity: 0.3"/>
     <use xlink:href="#m82af10c4e6" x="492.76116" y="271.732639" style="fill-opacity: 0.3"/>
     <use xlink:href="#m82af10c4e6" x="491.997946" y="264.941575" style="fill-opacity: 0.3"/>
    </g>
   </g>
   <g id="legend_1">
    <g id="patch_9">
     <path d="M 602.6625 80.55625 
L 641 80.55625 
Q 643 80.55625 643 78.55625 
L 643 50.2 
Q 643 48.2 641 48.2 
L 602.6625 48.2 
Q 600.6625 48.2 600.6625 50.2 
L 600.6625 78.55625 
Q 600.6625 80.55625 602.6625 80.55625 
z
" style="fill: #ffffff; opacity: 0.8; stroke: #cccccc; stroke-linejoin: miter"/>
    </g>
    <g id="patch_10">
     <path d="M 604.6625 59.798437 
L 624.6625 59.798437 
L 624.6625 52.798437 
L 604.6625 52.798437 
z
" style="fill: #3274a1; stroke: #3f3f3f; stroke-width: 1.25; stroke-linejoin: miter"/>
    </g>
    <g id="text_10">
     <!-- n -->
     <g transform="translate(632.6625 59.798437) scale(0.1 -0.1)">
      <use xlink:href="#DejaVuSans-6e"/>
     </g>
    </g>
    <g id="patch_11">
     <path d="M 604.6625 74.476562 
L 624.6625 74.476562 
L 624.6625 67.476562 
L 604.6625 67.476562 
z
" style="fill: #e1812c; stroke: #3f3f3f; stroke-width: 1.25; stroke-linejoin: miter"/>
    </g>
    <g id="text_11">
     <!-- y -->
     <g transform="translate(632.6625 74.476562) scale(0.1 -0.1)">
      <use xlink:href="#DejaVuSans-79"/>
     </g>
    </g>
   </g>
  </g>
 </g>
 <defs>
  <clipPath id="p1d8cc26d88">
   <rect x="90" y="43.2" width="558" height="277.2"/>
  </clipPath>
 </defs>
</svg>
