<?xml version="1.0" encoding="utf-8" standalone="no"?>
<!DOCTYPE svg PUBLIC "-//W3C//DTD SVG 1.1//EN"
  "http://www.w3.org/Graphics/SVG/1.1/DTD/svg11.dtd">
<svg xmlns:xlink="http://www.w3.org/1999/xlink" width="720pt" height="360pt" viewBox="0 0 720 360" xmlns="http://www.w3.org/2000/svg" version="1.1">
 <metadata>
  <rdf:RDF xmlns:dc="http://purl.org/dc/elements/1.1/" xmlns:cc="http://creativecommons.org/ns#" xmlns:rdf="http://www.w3.org/1999/02/22-rdf-syntax-ns#">
   <cc:Work>
    <dc:type rdf:resource="http://purl.org/dc/dcmitype/StillImage"/>
    <dc:date>2025-09-09T16:54:33.405176</dc:date>
    <dc:format>image/svg+xml</dc:format>
    <dc:creator>
     <cc:Agent>
      <dc:title>Matplotlib v3.10.3, https://matplotlib.org/</dc:title>
     </cc:Agent>
    </dc:creator>
   </cc:Work>
  </rdf:RDF>
 </metadata>
 <defs>
  <style type="text/css">*{stroke-linejoin: round; stroke-linecap: butt}</style>
 </defs>
 <g id="figure_1">
  <g id="patch_1">
   <path d="M 0 360 
L 720 360 
L 720 0 
L 0 0 
z
" style="fill: #ffffff"/>
  </g>
  <g id="axes_1">
   <g id="patch_2">
    <path d="M 90 320.4 
L 648 320.4 
L 648 43.2 
L 90 43.2 
z
" style="fill: #ffffff"/>
   </g>
   <g id="FillBetweenPolyCollection_1">
    <defs>
     <path id="mec13606640" d="M 151.641008 -52.363444 
L 139.958992 -52.363444 
L 138.932124 -52.44693 
L 137.779546 -52.530416 
L 136.497093 -52.613902 
L 135.082748 -52.697388 
L 133.537043 -52.780874 
L 131.863416 -52.86436 
L 130.068515 -52.947846 
L 128.162432 -53.031332 
L 126.158831 -53.114818 
L 124.074973 -53.198304 
L 121.931597 -53.28179 
L 119.752673 -53.365276 
L 117.565009 -53.448762 
L 115.397709 -53.532248 
L 113.281513 -53.615734 
L 111.248018 -53.69922 
L 109.328808 -53.782706 
L 107.554539 -53.866192 
L 105.95399 -53.949678 
L 104.55315 -54.033164 
L 103.374354 -54.11665 
L 102.435523 -54.200136 
L 101.749545 -54.283622 
L 101.32382 -54.367108 
L 101.16 -54.450593 
L 101.253933 -54.534079 
L 101.595819 -54.617565 
L 102.170567 -54.701051 
L 102.958344 -54.784537 
L 103.93528 -54.868023 
L 105.074306 -54.951509 
L 106.346071 -55.034995 
L 107.71991 -55.118481 
L 109.164799 -55.201967 
L 110.650274 -55.285453 
L 112.147257 -55.368939 
L 113.628756 -55.452425 
L 115.07043 -55.535911 
L 116.450982 -55.619397 
L 117.752376 -55.702883 
L 118.9599 -55.786369 
L 120.062058 -55.869855 
L 121.050335 -55.953341 
L 121.918857 -56.036827 
L 122.663966 -56.120313 
L 123.283773 -56.203799 
L 123.777689 -56.287285 
L 124.146007 -56.370771 
L 124.389533 -56.454257 
L 124.50931 -56.537743 
L 124.506452 -56.621229 
L 124.382089 -56.704715 
L 124.13743 -56.788201 
L 123.77394 -56.871687 
L 123.293608 -56.955173 
L 122.699287 -57.038659 
L 121.995086 -57.122145 
L 121.186766 -57.205631 
L 120.282119 -57.289117 
L 119.291292 -57.372603 
L 118.227022 -57.456089 
L 117.104767 -57.539575 
L 115.94269 -57.623061 
L 114.761512 -57.706547 
L 113.584204 -57.790033 
L 112.435539 -57.873519 
L 111.341509 -57.957005 
L 110.328634 -58.040491 
L 109.423192 -58.123977 
L 108.650399 -58.207463 
L 108.033586 -58.290949 
L 107.593407 -58.374435 
L 107.347116 -58.457921 
L 107.307953 -58.541407 
L 107.484661 -58.624892 
L 107.881176 -58.708378 
L 108.496474 -58.791864 
L 109.324613 -58.87535 
L 110.354947 -58.958836 
L 111.572504 -59.042322 
L 112.958513 -59.125808 
L 114.491051 -59.209294 
L 116.145774 -59.29278 
L 117.896704 -59.376266 
L 119.717036 -59.459752 
L 121.579926 -59.543238 
L 123.459235 -59.626724 
L 125.330196 -59.71021 
L 127.16999 -59.793696 
L 128.9582 -59.877182 
L 130.677163 -59.960668 
L 132.312176 -60.044154 
L 133.851603 -60.12764 
L 135.286855 -60.211126 
L 136.612285 -60.294612 
L 137.824984 -60.378098 
L 138.924531 -60.461584 
L 139.912677 -60.54507 
L 140.793012 -60.628556 
L 150.806988 -60.628556 
L 150.806988 -60.628556 
L 151.687323 -60.54507 
L 152.675469 -60.461584 
L 153.775016 -60.378098 
L 154.987715 -60.294612 
L 156.313145 -60.211126 
L 157.748397 -60.12764 
L 159.287824 -60.044154 
L 160.922837 -59.960668 
L 162.6418 -59.877182 
L 164.43001 -59.793696 
L 166.269804 -59.71021 
L 168.140765 -59.626724 
L 170.020074 -59.543238 
L 171.882964 -59.459752 
L 173.703296 -59.376266 
L 175.454226 -59.29278 
L 177.108949 -59.209294 
L 178.641487 -59.125808 
L 180.027496 -59.042322 
L 181.245053 -58.958836 
L 182.275387 -58.87535 
L 183.103526 -58.791864 
L 183.718824 -58.708378 
L 184.115339 -58.624892 
L 184.292047 -58.541407 
L 184.252884 -58.457921 
L 184.006593 -58.374435 
L 183.566414 -58.290949 
L 182.949601 -58.207463 
L 182.176808 -58.123977 
L 181.271366 -58.040491 
L 180.258491 -57.957005 
L 179.164461 -57.873519 
L 178.015796 -57.790033 
L 176.838488 -57.706547 
L 175.65731 -57.623061 
L 174.495233 -57.539575 
L 173.372978 -57.456089 
L 172.308708 -57.372603 
L 171.317881 -57.289117 
L 170.413234 -57.205631 
L 169.604914 -57.122145 
L 168.900713 -57.038659 
L 168.306392 -56.955173 
L 167.82606 -56.871687 
L 167.46257 -56.788201 
L 167.217911 -56.704715 
L 167.093548 -56.621229 
L 167.09069 -56.537743 
L 167.210467 -56.454257 
L 167.453993 -56.370771 
L 167.822311 -56.287285 
L 168.316227 -56.203799 
L 168.936034 -56.120313 
L 169.681143 -56.036827 
L 170.549665 -55.953341 
L 171.537942 -55.869855 
L 172.6401 -55.786369 
L 173.847624 -55.702883 
L 175.149018 -55.619397 
L 176.52957 -55.535911 
L 177.971244 -55.452425 
L 179.452743 -55.368939 
L 180.949726 -55.285453 
L 182.435201 -55.201967 
L 183.88009 -55.118481 
L 185.253929 -55.034995 
L 186.525694 -54.951509 
L 187.66472 -54.868023 
L 188.641656 -54.784537 
L 189.429433 -54.701051 
L 190.004181 -54.617565 
L 190.346067 -54.534079 
L 190.44 -54.450593 
L 190.27618 -54.367108 
L 189.850455 -54.283622 
L 189.164477 -54.200136 
L 188.225646 -54.11665 
L 187.04685 -54.033164 
L 185.64601 -53.949678 
L 184.045461 -53.866192 
L 182.271192 -53.782706 
L 180.351982 -53.69922 
L 178.318487 -53.615734 
L 176.202291 -53.532248 
L 174.034991 -53.448762 
L 171.847327 -53.365276 
L 169.668403 -53.28179 
L 167.525027 -53.198304 
L 165.441169 -53.114818 
L 163.437568 -53.031332 
L 161.531485 -52.947846 
L 159.736584 -52.86436 
L 158.062957 -52.780874 
L 156.517252 -52.697388 
L 155.102907 -52.613902 
L 153.820454 -52.530416 
L 152.667876 -52.44693 
L 151.641008 -52.363444 
z
" style="stroke: #3d3d3d; stroke-width: 1.25"/>
    </defs>
    <g clip-path="url(#p21e60a51fe)">
     <use xlink:href="#mec13606640" x="0" y="360" style="fill: #3274a1; stroke: #3d3d3d; stroke-width: 1.25"/>
    </g>
   </g>
   <g id="FillBetweenPolyCollection_2">
    <defs>
     <path id="m711744c881" d="M 257.707049 -46.064202 
L 257.092951 -46.064202 
L 256.991722 -46.210945 
L 256.868872 -46.357689 
L 256.724016 -46.504432 
L 256.558279 -46.651175 
L 256.374596 -46.797919 
L 256.177872 -46.944662 
L 255.974942 -47.091406 
L 255.774289 -47.238149 
L 255.585533 -47.384892 
L 255.418705 -47.531636 
L 255.283374 -47.678379 
L 255.187753 -47.825123 
L 255.137869 -47.971866 
L 255.136936 -48.118609 
L 255.185017 -48.265353 
L 255.279009 -48.412096 
L 255.412982 -48.55884 
L 255.578791 -48.705583 
L 255.766899 -48.852326 
L 255.967278 -48.99907 
L 256.170273 -49.145813 
L 256.367337 -49.292557 
L 256.551555 -49.4393 
L 256.717916 -49.586043 
L 256.863358 -49.732787 
L 256.98659 -49.87953 
L 257.087763 -50.026274 
L 257.168043 -50.173017 
L 257.229125 -50.31976 
L 257.272735 -50.466504 
L 257.300131 -50.613247 
L 257.311604 -50.759991 
L 257.30596 -50.906734 
L 257.279968 -51.053477 
L 257.227766 -51.200221 
L 257.140233 -51.346964 
L 257.004379 -51.493708 
L 256.802829 -51.640451 
L 256.513558 -51.787194 
L 256.110031 -51.933938 
L 255.561956 -52.080681 
L 254.836839 -52.227425 
L 253.902449 -52.374168 
L 252.730213 -52.520911 
L 251.299383 -52.667655 
L 249.601617 -52.814398 
L 247.645423 -52.961142 
L 245.459757 -53.107885 
L 243.096003 -53.254628 
L 240.627641 -53.401372 
L 238.147119 -53.548115 
L 235.75983 -53.694858 
L 233.575562 -53.841602 
L 231.698263 -53.988345 
L 230.215374 -54.135089 
L 229.188217 -54.281832 
L 228.644898 -54.428575 
L 228.576907 -54.575319 
L 228.940047 -54.722062 
L 229.659666 -54.868806 
L 230.639425 -55.015549 
L 231.772275 -55.162292 
L 232.95189 -55.309036 
L 234.082796 -55.455779 
L 235.087663 -55.602523 
L 235.910795 -55.749266 
L 236.517561 -55.896009 
L 236.89029 -56.042753 
L 237.02181 -56.189496 
L 236.908262 -56.33624 
L 236.542948 -56.482983 
L 235.912763 -56.629726 
L 234.998258 -56.77647 
L 233.777636 -56.923213 
L 232.234153 -57.069957 
L 230.365656 -57.2167 
L 228.19437 -57.363443 
L 225.774864 -57.510187 
L 223.198234 -57.65693 
L 220.591072 -57.803674 
L 218.108657 -57.950417 
L 215.922759 -58.09716 
L 214.205484 -58.243904 
L 213.111324 -58.390647 
L 212.76 -58.537391 
L 213.222678 -58.684134 
L 214.51358 -58.830877 
L 216.588228 -58.977621 
L 219.348439 -59.124364 
L 222.653206 -59.271108 
L 226.333702 -59.417851 
L 230.210175 -59.564594 
L 234.108412 -59.711338 
L 237.873747 -59.858081 
L 241.381193 -60.004825 
L 244.541011 -60.151568 
L 247.299804 -60.298311 
L 249.637794 -60.445055 
L 251.563362 -60.591798 
L 263.236638 -60.591798 
L 263.236638 -60.591798 
L 265.162206 -60.445055 
L 267.500196 -60.298311 
L 270.258989 -60.151568 
L 273.418807 -60.004825 
L 276.926253 -59.858081 
L 280.691588 -59.711338 
L 284.589825 -59.564594 
L 288.466298 -59.417851 
L 292.146794 -59.271108 
L 295.451561 -59.124364 
L 298.211772 -58.977621 
L 300.28642 -58.830877 
L 301.577322 -58.684134 
L 302.04 -58.537391 
L 301.688676 -58.390647 
L 300.594516 -58.243904 
L 298.877241 -58.09716 
L 296.691343 -57.950417 
L 294.208928 -57.803674 
L 291.601766 -57.65693 
L 289.025136 -57.510187 
L 286.60563 -57.363443 
L 284.434344 -57.2167 
L 282.565847 -57.069957 
L 281.022364 -56.923213 
L 279.801742 -56.77647 
L 278.887237 -56.629726 
L 278.257052 -56.482983 
L 277.891738 -56.33624 
L 277.77819 -56.189496 
L 277.90971 -56.042753 
L 278.282439 -55.896009 
L 278.889205 -55.749266 
L 279.712337 -55.602523 
L 280.717204 -55.455779 
L 281.84811 -55.309036 
L 283.027725 -55.162292 
L 284.160575 -55.015549 
L 285.140334 -54.868806 
L 285.859953 -54.722062 
L 286.223093 -54.575319 
L 286.155102 -54.428575 
L 285.611783 -54.281832 
L 284.584626 -54.135089 
L 283.101737 -53.988345 
L 281.224438 -53.841602 
L 279.04017 -53.694858 
L 276.652881 -53.548115 
L 274.172359 -53.401372 
L 271.703997 -53.254628 
L 269.340243 -53.107885 
L 267.154577 -52.961142 
L 265.198383 -52.814398 
L 263.500617 -52.667655 
L 262.069787 -52.520911 
L 260.897551 -52.374168 
L 259.963161 -52.227425 
L 259.238044 -52.080681 
L 258.689969 -51.933938 
L 258.286442 -51.787194 
L 257.997171 -51.640451 
L 257.795621 -51.493708 
L 257.659767 -51.346964 
L 257.572234 -51.200221 
L 257.520032 -51.053477 
L 257.49404 -50.906734 
L 257.488396 -50.759991 
L 257.499869 -50.613247 
L 257.527265 -50.466504 
L 257.570875 -50.31976 
L 257.631957 -50.173017 
L 257.712237 -50.026274 
L 257.81341 -49.87953 
L 257.936642 -49.732787 
L 258.082084 -49.586043 
L 258.248445 -49.4393 
L 258.432663 -49.292557 
L 258.629727 -49.145813 
L 258.832722 -48.99907 
L 259.033101 -48.852326 
L 259.221209 -48.705583 
L 259.387018 -48.55884 
L 259.520991 -48.412096 
L 259.614983 -48.265353 
L 259.663064 -48.118609 
L 259.662131 -47.971866 
L 259.612247 -47.825123 
L 259.516626 -47.678379 
L 259.381295 -47.531636 
L 259.214467 -47.384892 
L 259.025711 -47.238149 
L 258.825058 -47.091406 
L 258.622128 -46.944662 
L 258.425404 -46.797919 
L 258.241721 -46.651175 
L 258.075984 -46.504432 
L 257.931128 -46.357689 
L 257.808278 -46.210945 
L 257.707049 -46.064202 
z
" style="stroke: #3d3d3d; stroke-width: 1.25"/>
    </defs>
    <g clip-path="url(#p21e60a51fe)">
     <use xlink:href="#m711744c881" x="0" y="360" style="fill: #e1812c; stroke: #3d3d3d; stroke-width: 1.25"/>
    </g>
   </g>
   <g id="FillBetweenPolyCollection_3">
    <defs>
     <path id="m5d9d508457" d="M 369.442464 -45.437561 
L 368.557536 -45.437561 
L 368.439316 -45.596964 
L 368.300029 -45.756367 
L 368.139076 -45.91577 
L 367.95679 -46.075172 
L 367.754622 -46.234575 
L 367.535285 -46.393978 
L 367.302821 -46.553381 
L 367.062577 -46.712784 
L 366.821067 -46.872186 
L 366.585729 -47.031589 
L 366.364575 -47.190992 
L 366.16575 -47.350395 
L 365.997046 -47.509798 
L 365.865397 -47.6692 
L 365.776403 -47.828603 
L 365.733937 -47.988006 
L 365.739858 -48.147409 
L 365.793867 -48.306812 
L 365.893526 -48.466215 
L 366.034413 -48.625617 
L 366.210428 -48.78502 
L 366.414178 -48.944423 
L 366.637436 -49.103826 
L 366.871594 -49.263229 
L 367.108078 -49.422631 
L 367.338688 -49.582034 
L 367.555816 -49.741437 
L 367.752535 -49.90084 
L 367.922556 -50.060243 
L 368.060049 -50.219645 
L 368.15938 -50.379048 
L 368.214766 -50.538451 
L 368.219925 -50.697854 
L 368.167749 -50.857257 
L 368.050071 -51.016659 
L 367.85757 -51.176062 
L 367.579871 -51.335465 
L 367.205869 -51.494868 
L 366.724312 -51.654271 
L 366.124639 -51.813673 
L 365.398038 -51.973076 
L 364.538679 -52.132479 
L 363.545025 -52.291882 
L 362.421102 -52.451285 
L 361.17758 -52.610687 
L 359.832523 -52.77009 
L 358.411653 -52.929493 
L 356.948023 -53.088896 
L 355.481001 -53.248299 
L 354.054582 -53.407701 
L 352.715065 -53.567104 
L 351.508236 -53.726507 
L 350.476255 -53.88591 
L 349.654485 -54.045313 
L 349.068543 -54.204715 
L 348.731817 -54.364118 
L 348.643698 -54.523521 
L 348.788662 -54.682924 
L 349.136317 -54.842327 
L 349.64241 -55.001729 
L 350.250724 -55.161132 
L 350.895735 -55.320535 
L 351.505866 -55.479938 
L 352.007142 -55.639341 
L 352.327067 -55.798743 
L 352.398556 -55.958146 
L 352.163748 -56.117549 
L 351.577596 -56.276952 
L 350.611059 -56.436355 
L 349.253773 -56.595757 
L 347.516021 -56.75516 
L 345.429837 -56.914563 
L 343.049048 -57.073966 
L 340.4481 -57.233369 
L 337.719547 -57.392771 
L 334.970196 -57.552174 
L 332.315995 -57.711577 
L 329.875891 -57.87098 
L 327.765046 -58.030383 
L 326.087871 -58.189785 
L 324.931465 -58.349188 
L 324.36 -58.508591 
L 324.410587 -58.667994 
L 325.091019 -58.827397 
L 326.379599 -58.9868 
L 328.227087 -59.146202 
L 330.560558 -59.305605 
L 333.288799 -59.465008 
L 336.308718 -59.624411 
L 339.512164 -59.783814 
L 342.792565 -59.943216 
L 346.050836 -60.102619 
L 349.200132 -60.262022 
L 352.169202 -60.421425 
L 354.904213 -60.580828 
L 357.369126 -60.74023 
L 359.544799 -60.899633 
L 361.427102 -61.059036 
L 363.024359 -61.218439 
L 374.975641 -61.218439 
L 374.975641 -61.218439 
L 376.572898 -61.059036 
L 378.455201 -60.899633 
L 380.630874 -60.74023 
L 383.095787 -60.580828 
L 385.830798 -60.421425 
L 388.799868 -60.262022 
L 391.949164 -60.102619 
L 395.207435 -59.943216 
L 398.487836 -59.783814 
L 401.691282 -59.624411 
L 404.711201 -59.465008 
L 407.439442 -59.305605 
L 409.772913 -59.146202 
L 411.620401 -58.9868 
L 412.908981 -58.827397 
L 413.589413 -58.667994 
L 413.64 -58.508591 
L 413.068535 -58.349188 
L 411.912129 -58.189785 
L 410.234954 -58.030383 
L 408.124109 -57.87098 
L 405.684005 -57.711577 
L 403.029804 -57.552174 
L 400.280453 -57.392771 
L 397.5519 -57.233369 
L 394.950952 -57.073966 
L 392.570163 -56.914563 
L 390.483979 -56.75516 
L 388.746227 -56.595757 
L 387.388941 -56.436355 
L 386.422404 -56.276952 
L 385.836252 -56.117549 
L 385.601444 -55.958146 
L 385.672933 -55.798743 
L 385.992858 -55.639341 
L 386.494134 -55.479938 
L 387.104265 -55.320535 
L 387.749276 -55.161132 
L 388.35759 -55.001729 
L 388.863683 -54.842327 
L 389.211338 -54.682924 
L 389.356302 -54.523521 
L 389.268183 -54.364118 
L 388.931457 -54.204715 
L 388.345515 -54.045313 
L 387.523745 -53.88591 
L 386.491764 -53.726507 
L 385.284935 -53.567104 
L 383.945418 -53.407701 
L 382.518999 -53.248299 
L 381.051977 -53.088896 
L 379.588347 -52.929493 
L 378.167477 -52.77009 
L 376.82242 -52.610687 
L 375.578898 -52.451285 
L 374.454975 -52.291882 
L 373.461321 -52.132479 
L 372.601962 -51.973076 
L 371.875361 -51.813673 
L 371.275688 -51.654271 
L 370.794131 -51.494868 
L 370.420129 -51.335465 
L 370.14243 -51.176062 
L 369.949929 -51.016659 
L 369.832251 -50.857257 
L 369.780075 -50.697854 
L 369.785234 -50.538451 
L 369.84062 -50.379048 
L 369.939951 -50.219645 
L 370.077444 -50.060243 
L 370.247465 -49.90084 
L 370.444184 -49.741437 
L 370.661312 -49.582034 
L 370.891922 -49.422631 
L 371.128406 -49.263229 
L 371.362564 -49.103826 
L 371.585822 -48.944423 
L 371.789572 -48.78502 
L 371.965587 -48.625617 
L 372.106474 -48.466215 
L 372.206133 -48.306812 
L 372.260142 -48.147409 
L 372.266063 -47.988006 
L 372.223597 -47.828603 
L 372.134603 -47.6692 
L 372.002954 -47.509798 
L 371.83425 -47.350395 
L 371.635425 -47.190992 
L 371.414271 -47.031589 
L 371.178933 -46.872186 
L 370.937423 -46.712784 
L 370.697179 -46.553381 
L 370.464715 -46.393978 
L 370.245378 -46.234575 
L 370.04321 -46.075172 
L 369.860924 -45.91577 
L 369.699971 -45.756367 
L 369.560684 -45.596964 
L 369.442464 -45.437561 
z
" style="stroke: #3d3d3d; stroke-width: 1.25"/>
    </defs>
    <g clip-path="url(#p21e60a51fe)">
     <use xlink:href="#m5d9d508457" x="0" y="360" style="fill: #3a923a; stroke: #3d3d3d; stroke-width: 1.25"/>
    </g>
   </g>
   <g id="FillBetweenPolyCollection_4">
    <defs>
     <path id="md609f0884f" d="M 481.724438 -44.914229 
L 479.475562 -44.914229 
L 479.211312 -45.084204 
L 478.905027 -45.25418 
L 478.555391 -45.424155 
L 478.162486 -45.59413 
L 477.728073 -45.764105 
L 477.255825 -45.93408 
L 476.751478 -46.104055 
L 476.22288 -46.274031 
L 475.679916 -46.444006 
L 475.134292 -46.613981 
L 474.599184 -46.783956 
L 474.088746 -46.953931 
L 473.617515 -47.123906 
L 473.199731 -47.293882 
L 472.848629 -47.463857 
L 472.575732 -47.633832 
L 472.390212 -47.803807 
L 472.298365 -47.973782 
L 472.303225 -48.143757 
L 472.404367 -48.313733 
L 472.597893 -48.483708 
L 472.87662 -48.653683 
L 473.230431 -48.823658 
L 473.646771 -48.993633 
L 474.111248 -49.163608 
L 474.608279 -49.333584 
L 475.121747 -49.503559 
L 475.635608 -49.673534 
L 476.134424 -49.843509 
L 476.603797 -50.013484 
L 477.030673 -50.183459 
L 477.403539 -50.353435 
L 477.712518 -50.52341 
L 477.949372 -50.693385 
L 478.107469 -50.86336 
L 478.18171 -51.033335 
L 478.168475 -51.20331 
L 478.065594 -51.373286 
L 477.872362 -51.543261 
L 477.58959 -51.713236 
L 477.219708 -51.883211 
L 476.766868 -52.053186 
L 476.237044 -52.223161 
L 475.638078 -52.393137 
L 474.979648 -52.563112 
L 474.273111 -52.733087 
L 473.531212 -52.903062 
L 472.767625 -53.073037 
L 471.996348 -53.243012 
L 471.230949 -53.412988 
L 470.483713 -53.582963 
L 469.764731 -53.752938 
L 469.080994 -53.922913 
L 468.435569 -54.092888 
L 467.826919 -54.262863 
L 467.248452 -54.432839 
L 466.688349 -54.602814 
L 466.129732 -54.772789 
L 465.551185 -54.942764 
L 464.927665 -55.112739 
L 464.231759 -55.282714 
L 463.43527 -55.45269 
L 462.511058 -55.622665 
L 461.435048 -55.79264 
L 460.188302 -55.962615 
L 458.759023 -56.13259 
L 457.144355 -56.302565 
L 455.351841 -56.472541 
L 453.400402 -56.642516 
L 451.320719 -56.812491 
L 449.154926 -56.982466 
L 446.955567 -57.152441 
L 444.783811 -57.322416 
L 442.706986 -57.492392 
L 440.79553 -57.662367 
L 439.119549 -57.832342 
L 437.745169 -58.002317 
L 436.730938 -58.172292 
L 436.124532 -58.342267 
L 435.96 -58.512243 
L 436.255761 -58.682218 
L 437.013504 -58.852193 
L 438.218072 -59.022168 
L 439.838345 -59.192143 
L 441.829035 -59.362118 
L 444.133259 -59.532094 
L 446.685674 -59.702069 
L 449.415948 -59.872044 
L 452.252298 -60.042019 
L 455.124864 -60.211994 
L 457.968693 -60.381969 
L 460.726178 -60.551945 
L 463.348831 -60.72192 
L 465.79836 -60.891895 
L 468.047049 -61.06187 
L 470.07751 -61.231845 
L 471.881916 -61.40182 
L 473.46083 -61.571796 
L 474.821787 -61.741771 
L 486.378213 -61.741771 
L 486.378213 -61.741771 
L 487.73917 -61.571796 
L 489.318084 -61.40182 
L 491.12249 -61.231845 
L 493.152951 -61.06187 
L 495.40164 -60.891895 
L 497.851169 -60.72192 
L 500.473822 -60.551945 
L 503.231307 -60.381969 
L 506.075136 -60.211994 
L 508.947702 -60.042019 
L 511.784052 -59.872044 
L 514.514326 -59.702069 
L 517.066741 -59.532094 
L 519.370965 -59.362118 
L 521.361655 -59.192143 
L 522.981928 -59.022168 
L 524.186496 -58.852193 
L 524.944239 -58.682218 
L 525.24 -58.512243 
L 525.075468 -58.342267 
L 524.469062 -58.172292 
L 523.454831 -58.002317 
L 522.080451 -57.832342 
L 520.40447 -57.662367 
L 518.493014 -57.492392 
L 516.416189 -57.322416 
L 514.244433 -57.152441 
L 512.045074 -56.982466 
L 509.879281 -56.812491 
L 507.799598 -56.642516 
L 505.848159 -56.472541 
L 504.055645 -56.302565 
L 502.440977 -56.13259 
L 501.011698 -55.962615 
L 499.764952 -55.79264 
L 498.688942 -55.622665 
L 497.76473 -55.45269 
L 496.968241 -55.282714 
L 496.272335 -55.112739 
L 495.648815 -54.942764 
L 495.070268 -54.772789 
L 494.511651 -54.602814 
L 493.951548 -54.432839 
L 493.373081 -54.262863 
L 492.764431 -54.092888 
L 492.119006 -53.922913 
L 491.435269 -53.752938 
L 490.716287 -53.582963 
L 489.969051 -53.412988 
L 489.203652 -53.243012 
L 488.432375 -53.073037 
L 487.668788 -52.903062 
L 486.926889 -52.733087 
L 486.220352 -52.563112 
L 485.561922 -52.393137 
L 484.962956 -52.223161 
L 484.433132 -52.053186 
L 483.980292 -51.883211 
L 483.61041 -51.713236 
L 483.327638 -51.543261 
L 483.134406 -51.373286 
L 483.031525 -51.20331 
L 483.01829 -51.033335 
L 483.092531 -50.86336 
L 483.250628 -50.693385 
L 483.487482 -50.52341 
L 483.796461 -50.353435 
L 484.169327 -50.183459 
L 484.596203 -50.013484 
L 485.065576 -49.843509 
L 485.564392 -49.673534 
L 486.078253 -49.503559 
L 486.591721 -49.333584 
L 487.088752 -49.163608 
L 487.553229 -48.993633 
L 487.969569 -48.823658 
L 488.32338 -48.653683 
L 488.602107 -48.483708 
L 488.795633 -48.313733 
L 488.896775 -48.143757 
L 488.901635 -47.973782 
L 488.809788 -47.803807 
L 488.624268 -47.633832 
L 488.351371 -47.463857 
L 488.000269 -47.293882 
L 487.582485 -47.123906 
L 487.111254 -46.953931 
L 486.600816 -46.783956 
L 486.065708 -46.613981 
L 485.520084 -46.444006 
L 484.97712 -46.274031 
L 484.448522 -46.104055 
L 483.944175 -45.93408 
L 483.471927 -45.764105 
L 483.037514 -45.59413 
L 482.644609 -45.424155 
L 482.294973 -45.25418 
L 481.988688 -45.084204 
L 481.724438 -44.914229 
z
" style="stroke: #3d3d3d; stroke-width: 1.25"/>
    </defs>
    <g clip-path="url(#p21e60a51fe)">
     <use xlink:href="#md609f0884f" x="0" y="360" style="fill: #c03d3e; stroke: #3d3d3d; stroke-width: 1.25"/>
    </g>
   </g>
   <g id="patch_3">
    <path d="M 212.76 320.4 
L 257.4 320.4 
L 257.4 227.472 
L 212.76 227.472 
z
" clip-path="url(#p21e60a51fe)" style="fill: #3274a1"/>
   </g>
   <g id="patch_4">
    <path d="M 547.56 320.4 
L 592.2 320.4 
L 592.2 159.888 
L 547.56 159.888 
z
" clip-path="url(#p21e60a51fe)" style="fill: #3274a1"/>
   </g>
   <g id="patch_5">
    <path d="M 257.4 320.4 
L 302.04 320.4 
L 302.04 252.816 
L 257.4 252.816 
z
" clip-path="url(#p21e60a51fe)" style="fill: #e1812c"/>
   </g>
   <g id="patch_6">
    <path d="M 592.2 320.4 
L 636.84 320.4 
L 636.84 193.68 
L 592.2 193.68 
z
" clip-path="url(#p21e60a51fe)" style="fill: #e1812c"/>
   </g>
   <g id="patch_7">
    <path d="M 145.8 320.4 
L 145.8 320.4 
L 145.8 320.4 
L 145.8 320.4 
z
" clip-path="url(#p21e60a51fe)" style="fill: #3274a1"/>
   </g>
   <g id="patch_8">
    <path d="M 145.8 320.4 
L 145.8 320.4 
L 145.8 320.4 
L 145.8 320.4 
z
" clip-path="url(#p21e60a51fe)" style="fill: #e1812c"/>
   </g>
   <g id="patch_9">
    <path d="M 212.76 320.4 
L 257.4 320.4 
L 257.4 301.392 
L 212.76 301.392 
z
" clip-path="url(#p21e60a51fe)" style="fill: #3274a1"/>
   </g>
   <g id="patch_10">
    <path d="M 547.56 320.4 
L 592.2 320.4 
L 592.2 297.168 
L 547.56 297.168 
z
" clip-path="url(#p21e60a51fe)" style="fill: #3274a1"/>
   </g>
   <g id="patch_11">
    <path d="M 257.4 320.4 
L 302.04 320.4 
L 302.04 178.896 
L 257.4 178.896 
z
" clip-path="url(#p21e60a51fe)" style="fill: #e1812c"/>
   </g>
   <g id="patch_12">
    <path d="M 592.2 320.4 
L 636.84 320.4 
L 636.84 56.4 
L 592.2 56.4 
z
" clip-path="url(#p21e60a51fe)" style="fill: #e1812c"/>
   </g>
   <g id="patch_13">
    <path d="M 145.8 320.4 
L 145.8 320.4 
L 145.8 320.4 
L 145.8 320.4 
z
" clip-path="url(#p21e60a51fe)" style="fill: #3274a1"/>
   </g>
   <g id="patch_14">
    <path d="M 145.8 320.4 
L 145.8 320.4 
L 145.8 320.4 
L 145.8 320.4 
z
" clip-path="url(#p21e60a51fe)" style="fill: #e1812c"/>
   </g>
   <g id="matplotlib.axis_1">
    <g id="xtick_1">
     <g id="line2d_1">
      <defs>
       <path id="m16b5b4ed11" d="M 0 0 
L 0 3.5 
" style="stroke: #000000; stroke-width: 0.8"/>
      </defs>
      <g>
       <use xlink:href="#m16b5b4ed11" x="145.8" y="320.4" style="stroke: #000000; stroke-width: 0.8"/>
      </g>
     </g>
     <g id="text_1">
      <!-- No -->
      <g transform="translate(139 334.998438) scale(0.1 -0.1)">
       <defs>
        <path id="DejaVuSans-4e" d="M 628 4666 
L 1478 4666 
L 3547 763 
L 3547 4666 
L 4159 4666 
L 4159 0 
L 3309 0 
L 1241 3903 
L 1241 0 
L 628 0 
L 628 4666 
z
" transform="scale(0.015625)"/>
        <path id="DejaVuSans-6f" d="M 1959 3097 
Q 1497 3097 1228 2736 
Q 959 2375 959 1747 
Q 959 1119 1226 758 
Q 1494 397 1959 397 
Q 2419 397 2687 759 
Q 2956 1122 2956 1747 
Q 2956 2369 2687 2733 
Q 2419 3097 1959 3097 
z
M 1959 3584 
Q 2709 3584 3137 3096 
Q 3566 2609 3566 1747 
Q 3566 888 3137 398 
Q 2709 -91 1959 -91 
Q 1206 -91 779 398 
Q 353 888 353 1747 
Q 353 2609 779 3096 
Q 1206 3584 1959 3584 
z
" transform="scale(0.015625)"/>
       </defs>
       <use xlink:href="#DejaVuSans-4e"/>
       <use xlink:href="#DejaVuSans-6f" transform="translate(74.804688 0)"/>
      </g>
     </g>
    </g>
    <g id="xtick_2">
     <g id="line2d_2">
      <g>
       <use xlink:href="#m16b5b4ed11" x="257.4" y="320.4" style="stroke: #000000; stroke-width: 0.8"/>
      </g>
     </g>
     <g id="text_2">
      <!-- Specific -->
      <g transform="translate(237.938281 334.998438) scale(0.1 -0.1)">
       <defs>
        <path id="DejaVuSans-53" d="M 3425 4513 
L 3425 3897 
Q 3066 4069 2747 4153 
Q 2428 4238 2131 4238 
Q 1616 4238 1336 4038 
Q 1056 3838 1056 3469 
Q 1056 3159 1242 3001 
Q 1428 2844 1947 2747 
L 2328 2669 
Q 3034 2534 3370 2195 
Q 3706 1856 3706 1288 
Q 3706 609 3251 259 
Q 2797 -91 1919 -91 
Q 1588 -91 1214 -16 
Q 841 59 441 206 
L 441 856 
Q 825 641 1194 531 
Q 1563 422 1919 422 
Q 2459 422 2753 634 
Q 3047 847 3047 1241 
Q 3047 1584 2836 1778 
Q 2625 1972 2144 2069 
L 1759 2144 
Q 1053 2284 737 2584 
Q 422 2884 422 3419 
Q 422 4038 858 4394 
Q 1294 4750 2059 4750 
Q 2388 4750 2728 4690 
Q 3069 4631 3425 4513 
z
" transform="scale(0.015625)"/>
        <path id="DejaVuSans-70" d="M 1159 525 
L 1159 -1331 
L 581 -1331 
L 581 3500 
L 1159 3500 
L 1159 2969 
Q 1341 3281 1617 3432 
Q 1894 3584 2278 3584 
Q 2916 3584 3314 3078 
Q 3713 2572 3713 1747 
Q 3713 922 3314 415 
Q 2916 -91 2278 -91 
Q 1894 -91 1617 61 
Q 1341 213 1159 525 
z
M 3116 1747 
Q 3116 2381 2855 2742 
Q 2594 3103 2138 3103 
Q 1681 3103 1420 2742 
Q 1159 2381 1159 1747 
Q 1159 1113 1420 752 
Q 1681 391 2138 391 
Q 2594 391 2855 752 
Q 3116 1113 3116 1747 
z
" transform="scale(0.015625)"/>
        <path id="DejaVuSans-65" d="M 3597 1894 
L 3597 1613 
L 953 1613 
Q 991 1019 1311 708 
Q 1631 397 2203 397 
Q 2534 397 2845 478 
Q 3156 559 3463 722 
L 3463 178 
Q 3153 47 2828 -22 
Q 2503 -91 2169 -91 
Q 1331 -91 842 396 
Q 353 884 353 1716 
Q 353 2575 817 3079 
Q 1281 3584 2069 3584 
Q 2775 3584 3186 3129 
Q 3597 2675 3597 1894 
z
M 3022 2063 
Q 3016 2534 2758 2815 
Q 2500 3097 2075 3097 
Q 1594 3097 1305 2825 
Q 1016 2553 972 2059 
L 3022 2063 
z
" transform="scale(0.015625)"/>
        <path id="DejaVuSans-63" d="M 3122 3366 
L 3122 2828 
Q 2878 2963 2633 3030 
Q 2388 3097 2138 3097 
Q 1578 3097 1268 2742 
Q 959 2388 959 1747 
Q 959 1106 1268 751 
Q 1578 397 2138 397 
Q 2388 397 2633 464 
Q 2878 531 3122 666 
L 3122 134 
Q 2881 22 2623 -34 
Q 2366 -91 2075 -91 
Q 1284 -91 818 406 
Q 353 903 353 1747 
Q 353 2603 823 3093 
Q 1294 3584 2113 3584 
Q 2378 3584 2631 3529 
Q 2884 3475 3122 3366 
z
" transform="scale(0.015625)"/>
        <path id="DejaVuSans-69" d="M 603 3500 
L 1178 3500 
L 1178 0 
L 603 0 
L 603 3500 
z
M 603 4863 
L 1178 4863 
L 1178 4134 
L 603 4134 
L 603 4863 
z
" transform="scale(0.015625)"/>
        <path id="DejaVuSans-66" d="M 2375 4863 
L 2375 4384 
L 1825 4384 
Q 1516 4384 1395 4259 
Q 1275 4134 1275 3809 
L 1275 3500 
L 2222 3500 
L 2222 3053 
L 1275 3053 
L 1275 0 
L 697 0 
L 697 3053 
L 147 3053 
L 147 3500 
L 697 3500 
L 697 3744 
Q 697 4328 969 4595 
Q 1241 4863 1831 4863 
L 2375 4863 
z
" transform="scale(0.015625)"/>
       </defs>
       <use xlink:href="#DejaVuSans-53"/>
       <use xlink:href="#DejaVuSans-70" transform="translate(63.476562 0)"/>
       <use xlink:href="#DejaVuSans-65" transform="translate(126.953125 0)"/>
       <use xlink:href="#DejaVuSans-63" transform="translate(188.476562 0)"/>
       <use xlink:href="#DejaVuSans-69" transform="translate(243.457031 0)"/>
       <use xlink:href="#DejaVuSans-66" transform="translate(271.240234 0)"/>
       <use xlink:href="#DejaVuSans-69" transform="translate(306.445312 0)"/>
       <use xlink:href="#DejaVuSans-63" transform="translate(334.228516 0)"/>
      </g>
     </g>
    </g>
    <g id="xtick_3">
     <g id="line2d_3">
      <g>
       <use xlink:href="#m16b5b4ed11" x="369" y="320.4" style="stroke: #000000; stroke-width: 0.8"/>
      </g>
     </g>
     <g id="text_3">
      <!-- Spurious -->
      <g transform="translate(347.205469 334.998438) scale(0.1 -0.1)">
       <defs>
        <path id="DejaVuSans-75" d="M 544 1381 
L 544 3500 
L 1119 3500 
L 1119 1403 
Q 1119 906 1312 657 
Q 1506 409 1894 409 
Q 2359 409 2629 706 
Q 2900 1003 2900 1516 
L 2900 3500 
L 3475 3500 
L 3475 0 
L 2900 0 
L 2900 538 
Q 2691 219 2414 64 
Q 2138 -91 1772 -91 
Q 1169 -91 856 284 
Q 544 659 544 1381 
z
M 1991 3584 
L 1991 3584 
z
" transform="scale(0.015625)"/>
        <path id="DejaVuSans-72" d="M 2631 2963 
Q 2534 3019 2420 3045 
Q 2306 3072 2169 3072 
Q 1681 3072 1420 2755 
Q 1159 2438 1159 1844 
L 1159 0 
L 581 0 
L 581 3500 
L 1159 3500 
L 1159 2956 
Q 1341 3275 1631 3429 
Q 1922 3584 2338 3584 
Q 2397 3584 2469 3576 
Q 2541 3569 2628 3553 
L 2631 2963 
z
" transform="scale(0.015625)"/>
        <path id="DejaVuSans-73" d="M 2834 3397 
L 2834 2853 
Q 2591 2978 2328 3040 
Q 2066 3103 1784 3103 
Q 1356 3103 1142 2972 
Q 928 2841 928 2578 
Q 928 2378 1081 2264 
Q 1234 2150 1697 2047 
L 1894 2003 
Q 2506 1872 2764 1633 
Q 3022 1394 3022 966 
Q 3022 478 2636 193 
Q 2250 -91 1575 -91 
Q 1294 -91 989 -36 
Q 684 19 347 128 
L 347 722 
Q 666 556 975 473 
Q 1284 391 1588 391 
Q 1994 391 2212 530 
Q 2431 669 2431 922 
Q 2431 1156 2273 1281 
Q 2116 1406 1581 1522 
L 1381 1569 
Q 847 1681 609 1914 
Q 372 2147 372 2553 
Q 372 3047 722 3315 
Q 1072 3584 1716 3584 
Q 2034 3584 2315 3537 
Q 2597 3491 2834 3397 
z
" transform="scale(0.015625)"/>
       </defs>
       <use xlink:href="#DejaVuSans-53"/>
       <use xlink:href="#DejaVuSans-70" transform="translate(63.476562 0)"/>
       <use xlink:href="#DejaVuSans-75" transform="translate(126.953125 0)"/>
       <use xlink:href="#DejaVuSans-72" transform="translate(190.332031 0)"/>
       <use xlink:href="#DejaVuSans-69" transform="translate(231.445312 0)"/>
       <use xlink:href="#DejaVuSans-6f" transform="translate(259.228516 0)"/>
       <use xlink:href="#DejaVuSans-75" transform="translate(320.410156 0)"/>
       <use xlink:href="#DejaVuSans-73" transform="translate(383.789062 0)"/>
      </g>
     </g>
    </g>
    <g id="xtick_4">
     <g id="line2d_4">
      <g>
       <use xlink:href="#m16b5b4ed11" x="480.6" y="320.4" style="stroke: #000000; stroke-width: 0.8"/>
      </g>
     </g>
     <g id="text_4">
      <!-- Non-specific -->
      <g transform="translate(449.935156 334.998438) scale(0.1 -0.1)">
       <defs>
        <path id="DejaVuSans-6e" d="M 3513 2113 
L 3513 0 
L 2938 0 
L 2938 2094 
Q 2938 2591 2744 2837 
Q 2550 3084 2163 3084 
Q 1697 3084 1428 2787 
Q 1159 2491 1159 1978 
L 1159 0 
L 581 0 
L 581 3500 
L 1159 3500 
L 1159 2956 
Q 1366 3272 1645 3428 
Q 1925 3584 2291 3584 
Q 2894 3584 3203 3211 
Q 3513 2838 3513 2113 
z
" transform="scale(0.015625)"/>
        <path id="DejaVuSans-2d" d="M 313 2009 
L 1997 2009 
L 1997 1497 
L 313 1497 
L 313 2009 
z
" transform="scale(0.015625)"/>
       </defs>
       <use xlink:href="#DejaVuSans-4e"/>
       <use xlink:href="#DejaVuSans-6f" transform="translate(74.804688 0)"/>
       <use xlink:href="#DejaVuSans-6e" transform="translate(135.986328 0)"/>
       <use xlink:href="#DejaVuSans-2d" transform="translate(199.365234 0)"/>
       <use xlink:href="#DejaVuSans-73" transform="translate(235.449219 0)"/>
       <use xlink:href="#DejaVuSans-70" transform="translate(287.548828 0)"/>
       <use xlink:href="#DejaVuSans-65" transform="translate(351.025391 0)"/>
       <use xlink:href="#DejaVuSans-63" transform="translate(412.548828 0)"/>
       <use xlink:href="#DejaVuSans-69" transform="translate(467.529297 0)"/>
       <use xlink:href="#DejaVuSans-66" transform="translate(495.3125 0)"/>
       <use xlink:href="#DejaVuSans-69" transform="translate(530.517578 0)"/>
       <use xlink:href="#DejaVuSans-63" transform="translate(558.300781 0)"/>
      </g>
     </g>
    </g>
    <g id="xtick_5">
     <g id="line2d_5">
      <g>
       <use xlink:href="#m16b5b4ed11" x="592.2" y="320.4" style="stroke: #000000; stroke-width: 0.8"/>
      </g>
     </g>
     <g id="text_5">
      <!-- other -->
      <g transform="translate(578.879688 334.998438) scale(0.1 -0.1)">
       <defs>
        <path id="DejaVuSans-74" d="M 1172 4494 
L 1172 3500 
L 2356 3500 
L 2356 3053 
L 1172 3053 
L 1172 1153 
Q 1172 725 1289 603 
Q 1406 481 1766 481 
L 2356 481 
L 2356 0 
L 1766 0 
Q 1100 0 847 248 
Q 594 497 594 1153 
L 594 3053 
L 172 3053 
L 172 3500 
L 594 3500 
L 594 4494 
L 1172 4494 
z
" transform="scale(0.015625)"/>
        <path id="DejaVuSans-68" d="M 3513 2113 
L 3513 0 
L 2938 0 
L 2938 2094 
Q 2938 2591 2744 2837 
Q 2550 3084 2163 3084 
Q 1697 3084 1428 2787 
Q 1159 2491 1159 1978 
L 1159 0 
L 581 0 
L 581 4863 
L 1159 4863 
L 1159 2956 
Q 1366 3272 1645 3428 
Q 1925 3584 2291 3584 
Q 2894 3584 3203 3211 
Q 3513 2838 3513 2113 
z
" transform="scale(0.015625)"/>
       </defs>
       <use xlink:href="#DejaVuSans-6f"/>
       <use xlink:href="#DejaVuSans-74" transform="translate(61.181641 0)"/>
       <use xlink:href="#DejaVuSans-68" transform="translate(100.390625 0)"/>
       <use xlink:href="#DejaVuSans-65" transform="translate(163.769531 0)"/>
       <use xlink:href="#DejaVuSans-72" transform="translate(225.292969 0)"/>
      </g>
     </g>
    </g>
    <g id="text_6">
     <!-- Connectivity category -->
     <g transform="translate(313.98125 348.676562) scale(0.1 -0.1)">
      <defs>
       <path id="DejaVuSans-43" d="M 4122 4306 
L 4122 3641 
Q 3803 3938 3442 4084 
Q 3081 4231 2675 4231 
Q 1875 4231 1450 3742 
Q 1025 3253 1025 2328 
Q 1025 1406 1450 917 
Q 1875 428 2675 428 
Q 3081 428 3442 575 
Q 3803 722 4122 1019 
L 4122 359 
Q 3791 134 3420 21 
Q 3050 -91 2638 -91 
Q 1578 -91 968 557 
Q 359 1206 359 2328 
Q 359 3453 968 4101 
Q 1578 4750 2638 4750 
Q 3056 4750 3426 4639 
Q 3797 4528 4122 4306 
z
" transform="scale(0.015625)"/>
       <path id="DejaVuSans-76" d="M 191 3500 
L 800 3500 
L 1894 563 
L 2988 3500 
L 3597 3500 
L 2284 0 
L 1503 0 
L 191 3500 
z
" transform="scale(0.015625)"/>
       <path id="DejaVuSans-79" d="M 2059 -325 
Q 1816 -950 1584 -1140 
Q 1353 -1331 966 -1331 
L 506 -1331 
L 506 -850 
L 844 -850 
Q 1081 -850 1212 -737 
Q 1344 -625 1503 -206 
L 1606 56 
L 191 3500 
L 800 3500 
L 1894 763 
L 2988 3500 
L 3597 3500 
L 2059 -325 
z
" transform="scale(0.015625)"/>
       <path id="DejaVuSans-20" transform="scale(0.015625)"/>
       <path id="DejaVuSans-61" d="M 2194 1759 
Q 1497 1759 1228 1600 
Q 959 1441 959 1056 
Q 959 750 1161 570 
Q 1363 391 1709 391 
Q 2188 391 2477 730 
Q 2766 1069 2766 1631 
L 2766 1759 
L 2194 1759 
z
M 3341 1997 
L 3341 0 
L 2766 0 
L 2766 531 
Q 2569 213 2275 61 
Q 1981 -91 1556 -91 
Q 1019 -91 701 211 
Q 384 513 384 1019 
Q 384 1609 779 1909 
Q 1175 2209 1959 2209 
L 2766 2209 
L 2766 2266 
Q 2766 2663 2505 2880 
Q 2244 3097 1772 3097 
Q 1472 3097 1187 3025 
Q 903 2953 641 2809 
L 641 3341 
Q 956 3463 1253 3523 
Q 1550 3584 1831 3584 
Q 2591 3584 2966 3190 
Q 3341 2797 3341 1997 
z
" transform="scale(0.015625)"/>
       <path id="DejaVuSans-67" d="M 2906 1791 
Q 2906 2416 2648 2759 
Q 2391 3103 1925 3103 
Q 1463 3103 1205 2759 
Q 947 2416 947 1791 
Q 947 1169 1205 825 
Q 1463 481 1925 481 
Q 2391 481 2648 825 
Q 2906 1169 2906 1791 
z
M 3481 434 
Q 3481 -459 3084 -895 
Q 2688 -1331 1869 -1331 
Q 1566 -1331 1297 -1286 
Q 1028 -1241 775 -1147 
L 775 -588 
Q 1028 -725 1275 -790 
Q 1522 -856 1778 -856 
Q 2344 -856 2625 -561 
Q 2906 -266 2906 331 
L 2906 616 
Q 2728 306 2450 153 
Q 2172 0 1784 0 
Q 1141 0 747 490 
Q 353 981 353 1791 
Q 353 2603 747 3093 
Q 1141 3584 1784 3584 
Q 2172 3584 2450 3431 
Q 2728 3278 2906 2969 
L 2906 3500 
L 3481 3500 
L 3481 434 
z
" transform="scale(0.015625)"/>
      </defs>
      <use xlink:href="#DejaVuSans-43"/>
      <use xlink:href="#DejaVuSans-6f" transform="translate(69.824219 0)"/>
      <use xlink:href="#DejaVuSans-6e" transform="translate(131.005859 0)"/>
      <use xlink:href="#DejaVuSans-6e" transform="translate(194.384766 0)"/>
      <use xlink:href="#DejaVuSans-65" transform="translate(257.763672 0)"/>
      <use xlink:href="#DejaVuSans-63" transform="translate(319.287109 0)"/>
      <use xlink:href="#DejaVuSans-74" transform="translate(374.267578 0)"/>
      <use xlink:href="#DejaVuSans-69" transform="translate(413.476562 0)"/>
      <use xlink:href="#DejaVuSans-76" transform="translate(441.259766 0)"/>
      <use xlink:href="#DejaVuSans-69" transform="translate(500.439453 0)"/>
      <use xlink:href="#DejaVuSans-74" transform="translate(528.222656 0)"/>
      <use xlink:href="#DejaVuSans-79" transform="translate(567.431641 0)"/>
      <use xlink:href="#DejaVuSans-20" transform="translate(626.611328 0)"/>
      <use xlink:href="#DejaVuSans-63" transform="translate(658.398438 0)"/>
      <use xlink:href="#DejaVuSans-61" transform="translate(713.378906 0)"/>
      <use xlink:href="#DejaVuSans-74" transform="translate(774.658203 0)"/>
      <use xlink:href="#DejaVuSans-65" transform="translate(813.867188 0)"/>
      <use xlink:href="#DejaVuSans-67" transform="translate(875.390625 0)"/>
      <use xlink:href="#DejaVuSans-6f" transform="translate(938.867188 0)"/>
      <use xlink:href="#DejaVuSans-72" transform="translate(1000.048828 0)"/>
      <use xlink:href="#DejaVuSans-79" transform="translate(1041.162109 0)"/>
     </g>
    </g>
   </g>
   <g id="matplotlib.axis_2">
    <g id="ytick_1">
     <g id="line2d_6">
      <defs>
       <path id="m0694a53f16" d="M 0 0 
L -3.5 0 
" style="stroke: #000000; stroke-width: 0.8"/>
      </defs>
      <g>
       <use xlink:href="#m0694a53f16" x="90" y="320.4" style="stroke: #000000; stroke-width: 0.8"/>
      </g>
     </g>
     <g id="text_7">
      <!-- 0 -->
      <g transform="translate(76.6375 324.199219) scale(0.1 -0.1)">
       <defs>
        <path id="DejaVuSans-30" d="M 2034 4250 
Q 1547 4250 1301 3770 
Q 1056 3291 1056 2328 
Q 1056 1369 1301 889 
Q 1547 409 2034 409 
Q 2525 409 2770 889 
Q 3016 1369 3016 2328 
Q 3016 3291 2770 3770 
Q 2525 4250 2034 4250 
z
M 2034 4750 
Q 2819 4750 3233 4129 
Q 3647 3509 3647 2328 
Q 3647 1150 3233 529 
Q 2819 -91 2034 -91 
Q 1250 -91 836 529 
Q 422 1150 422 2328 
Q 422 3509 836 4129 
Q 1250 4750 2034 4750 
z
" transform="scale(0.015625)"/>
       </defs>
       <use xlink:href="#DejaVuSans-30"/>
      </g>
     </g>
    </g>
    <g id="ytick_2">
     <g id="line2d_7">
      <g>
       <use xlink:href="#m0694a53f16" x="90" y="278.16" style="stroke: #000000; stroke-width: 0.8"/>
      </g>
     </g>
     <g id="text_8">
      <!-- 20 -->
      <g transform="translate(70.275 281.959219) scale(0.1 -0.1)">
       <defs>
        <path id="DejaVuSans-32" d="M 1228 531 
L 3431 531 
L 3431 0 
L 469 0 
L 469 531 
Q 828 903 1448 1529 
Q 2069 2156 2228 2338 
Q 2531 2678 2651 2914 
Q 2772 3150 2772 3378 
Q 2772 3750 2511 3984 
Q 2250 4219 1831 4219 
Q 1534 4219 1204 4116 
Q 875 4013 500 3803 
L 500 4441 
Q 881 4594 1212 4672 
Q 1544 4750 1819 4750 
Q 2544 4750 2975 4387 
Q 3406 4025 3406 3419 
Q 3406 3131 3298 2873 
Q 3191 2616 2906 2266 
Q 2828 2175 2409 1742 
Q 1991 1309 1228 531 
z
" transform="scale(0.015625)"/>
       </defs>
       <use xlink:href="#DejaVuSans-32"/>
       <use xlink:href="#DejaVuSans-30" transform="translate(63.623047 0)"/>
      </g>
     </g>
    </g>
    <g id="ytick_3">
     <g id="line2d_8">
      <g>
       <use xlink:href="#m0694a53f16" x="90" y="235.92" style="stroke: #000000; stroke-width: 0.8"/>
      </g>
     </g>
     <g id="text_9">
      <!-- 40 -->
      <g transform="translate(70.275 239.719219) scale(0.1 -0.1)">
       <defs>
        <path id="DejaVuSans-34" d="M 2419 4116 
L 825 1625 
L 2419 1625 
L 2419 4116 
z
M 2253 4666 
L 3047 4666 
L 3047 1625 
L 3713 1625 
L 3713 1100 
L 3047 1100 
L 3047 0 
L 2419 0 
L 2419 1100 
L 313 1100 
L 313 1709 
L 2253 4666 
z
" transform="scale(0.015625)"/>
       </defs>
       <use xlink:href="#DejaVuSans-34"/>
       <use xlink:href="#DejaVuSans-30" transform="translate(63.623047 0)"/>
      </g>
     </g>
    </g>
    <g id="ytick_4">
     <g id="line2d_9">
      <g>
       <use xlink:href="#m0694a53f16" x="90" y="193.68" style="stroke: #000000; stroke-width: 0.8"/>
      </g>
     </g>
     <g id="text_10">
      <!-- 60 -->
      <g transform="translate(70.275 197.479219) scale(0.1 -0.1)">
       <defs>
        <path id="DejaVuSans-36" d="M 2113 2584 
Q 1688 2584 1439 2293 
Q 1191 2003 1191 1497 
Q 1191 994 1439 701 
Q 1688 409 2113 409 
Q 2538 409 2786 701 
Q 3034 994 3034 1497 
Q 3034 2003 2786 2293 
Q 2538 2584 2113 2584 
z
M 3366 4563 
L 3366 3988 
Q 3128 4100 2886 4159 
Q 2644 4219 2406 4219 
Q 1781 4219 1451 3797 
Q 1122 3375 1075 2522 
Q 1259 2794 1537 2939 
Q 1816 3084 2150 3084 
Q 2853 3084 3261 2657 
Q 3669 2231 3669 1497 
Q 3669 778 3244 343 
Q 2819 -91 2113 -91 
Q 1303 -91 875 529 
Q 447 1150 447 2328 
Q 447 3434 972 4092 
Q 1497 4750 2381 4750 
Q 2619 4750 2861 4703 
Q 3103 4656 3366 4563 
z
" transform="scale(0.015625)"/>
       </defs>
       <use xlink:href="#DejaVuSans-36"/>
       <use xlink:href="#DejaVuSans-30" transform="translate(63.623047 0)"/>
      </g>
     </g>
    </g>
    <g id="ytick_5">
     <g id="line2d_10">
      <g>
       <use xlink:href="#m0694a53f16" x="90" y="151.44" style="stroke: #000000; stroke-width: 0.8"/>
      </g>
     </g>
     <g id="text_11">
      <!-- 80 -->
      <g transform="translate(70.275 155.239219) scale(0.1 -0.1)">
       <defs>
        <path id="DejaVuSans-38" d="M 2034 2216 
Q 1584 2216 1326 1975 
Q 1069 1734 1069 1313 
Q 1069 891 1326 650 
Q 1584 409 2034 409 
Q 2484 409 2743 651 
Q 3003 894 3003 1313 
Q 3003 1734 2745 1975 
Q 2488 2216 2034 2216 
z
M 1403 2484 
Q 997 2584 770 2862 
Q 544 3141 544 3541 
Q 544 4100 942 4425 
Q 1341 4750 2034 4750 
Q 2731 4750 3128 4425 
Q 3525 4100 3525 3541 
Q 3525 3141 3298 2862 
Q 3072 2584 2669 2484 
Q 3125 2378 3379 2068 
Q 3634 1759 3634 1313 
Q 3634 634 3220 271 
Q 2806 -91 2034 -91 
Q 1263 -91 848 271 
Q 434 634 434 1313 
Q 434 1759 690 2068 
Q 947 2378 1403 2484 
z
M 1172 3481 
Q 1172 3119 1398 2916 
Q 1625 2713 2034 2713 
Q 2441 2713 2670 2916 
Q 2900 3119 2900 3481 
Q 2900 3844 2670 4047 
Q 2441 4250 2034 4250 
Q 1625 4250 1398 4047 
Q 1172 3844 1172 3481 
z
" transform="scale(0.015625)"/>
       </defs>
       <use xlink:href="#DejaVuSans-38"/>
       <use xlink:href="#DejaVuSans-30" transform="translate(63.623047 0)"/>
      </g>
     </g>
    </g>
    <g id="ytick_6">
     <g id="line2d_11">
      <g>
       <use xlink:href="#m0694a53f16" x="90" y="109.2" style="stroke: #000000; stroke-width: 0.8"/>
      </g>
     </g>
     <g id="text_12">
      <!-- 100 -->
      <g transform="translate(63.9125 112.999219) scale(0.1 -0.1)">
       <defs>
        <path id="DejaVuSans-31" d="M 794 531 
L 1825 531 
L 1825 4091 
L 703 3866 
L 703 4441 
L 1819 4666 
L 2450 4666 
L 2450 531 
L 3481 531 
L 3481 0 
L 794 0 
L 794 531 
z
" transform="scale(0.015625)"/>
       </defs>
       <use xlink:href="#DejaVuSans-31"/>
       <use xlink:href="#DejaVuSans-30" transform="translate(63.623047 0)"/>
       <use xlink:href="#DejaVuSans-30" transform="translate(127.246094 0)"/>
      </g>
     </g>
    </g>
    <g id="ytick_7">
     <g id="line2d_12">
      <g>
       <use xlink:href="#m0694a53f16" x="90" y="66.96" style="stroke: #000000; stroke-width: 0.8"/>
      </g>
     </g>
     <g id="text_13">
      <!-- 120 -->
      <g transform="translate(63.9125 70.759219) scale(0.1 -0.1)">
       <use xlink:href="#DejaVuSans-31"/>
       <use xlink:href="#DejaVuSans-32" transform="translate(63.623047 0)"/>
       <use xlink:href="#DejaVuSans-30" transform="translate(127.246094 0)"/>
      </g>
     </g>
    </g>
    <g id="text_14">
     <!-- cont_variable -->
     <g transform="translate(57.554687 215.409375) rotate(-90) scale(0.1 -0.1)">
      <defs>
       <path id="DejaVuSans-5f" d="M 3263 -1063 
L 3263 -1509 
L -63 -1509 
L -63 -1063 
L 3263 -1063 
z
" transform="scale(0.015625)"/>
       <path id="DejaVuSans-62" d="M 3116 1747 
Q 3116 2381 2855 2742 
Q 2594 3103 2138 3103 
Q 1681 3103 1420 2742 
Q 1159 2381 1159 1747 
Q 1159 1113 1420 752 
Q 1681 391 2138 391 
Q 2594 391 2855 752 
Q 3116 1113 3116 1747 
z
M 1159 2969 
Q 1341 3281 1617 3432 
Q 1894 3584 2278 3584 
Q 2916 3584 3314 3078 
Q 3713 2572 3713 1747 
Q 3713 922 3314 415 
Q 2916 -91 2278 -91 
Q 1894 -91 1617 61 
Q 1341 213 1159 525 
L 1159 0 
L 581 0 
L 581 4863 
L 1159 4863 
L 1159 2969 
z
" transform="scale(0.015625)"/>
       <path id="DejaVuSans-6c" d="M 603 4863 
L 1178 4863 
L 1178 0 
L 603 0 
L 603 4863 
z
" transform="scale(0.015625)"/>
      </defs>
      <use xlink:href="#DejaVuSans-63"/>
      <use xlink:href="#DejaVuSans-6f" transform="translate(54.980469 0)"/>
      <use xlink:href="#DejaVuSans-6e" transform="translate(116.162109 0)"/>
      <use xlink:href="#DejaVuSans-74" transform="translate(179.541016 0)"/>
      <use xlink:href="#DejaVuSans-5f" transform="translate(218.75 0)"/>
      <use xlink:href="#DejaVuSans-76" transform="translate(268.75 0)"/>
      <use xlink:href="#DejaVuSans-61" transform="translate(327.929688 0)"/>
      <use xlink:href="#DejaVuSans-72" transform="translate(389.208984 0)"/>
      <use xlink:href="#DejaVuSans-69" transform="translate(430.322266 0)"/>
      <use xlink:href="#DejaVuSans-61" transform="translate(458.105469 0)"/>
      <use xlink:href="#DejaVuSans-62" transform="translate(519.384766 0)"/>
      <use xlink:href="#DejaVuSans-6c" transform="translate(582.861328 0)"/>
      <use xlink:href="#DejaVuSans-65" transform="translate(610.644531 0)"/>
     </g>
    </g>
   </g>
   <g id="line2d_13">
    <path clip-path="url(#p21e60a51fe)" style="fill: none; stroke: #424242; stroke-width: 2.25; stroke-linecap: square"/>
   </g>
   <g id="line2d_14">
    <path clip-path="url(#p21e60a51fe)" style="fill: none; stroke: #424242; stroke-width: 2.25; stroke-linecap: square"/>
   </g>
   <g id="line2d_15">
    <path clip-path="url(#p21e60a51fe)" style="fill: none; stroke: #424242; stroke-width: 2.25; stroke-linecap: square"/>
   </g>
   <g id="line2d_16">
    <path clip-path="url(#p21e60a51fe)" style="fill: none; stroke: #424242; stroke-width: 2.25; stroke-linecap: square"/>
   </g>
   <g id="line2d_17">
    <path clip-path="url(#p21e60a51fe)" style="fill: none; stroke: #424242; stroke-width: 2.25; stroke-linecap: square"/>
   </g>
   <g id="line2d_18">
    <path clip-path="url(#p21e60a51fe)" style="fill: none; stroke: #424242; stroke-width: 2.25; stroke-linecap: square"/>
   </g>
   <g id="line2d_19">
    <path clip-path="url(#p21e60a51fe)" style="fill: none; stroke: #424242; stroke-width: 2.25; stroke-linecap: square"/>
   </g>
   <g id="line2d_20">
    <path clip-path="url(#p21e60a51fe)" style="fill: none; stroke: #424242; stroke-width: 2.25; stroke-linecap: square"/>
   </g>
   <g id="patch_15">
    <path d="M 90 320.4 
L 90 43.2 
" style="fill: none; stroke: #000000; stroke-width: 0.8; stroke-linejoin: miter; stroke-linecap: square"/>
   </g>
   <g id="patch_16">
    <path d="M 648 320.4 
L 648 43.2 
" style="fill: none; stroke: #000000; stroke-width: 0.8; stroke-linejoin: miter; stroke-linecap: square"/>
   </g>
   <g id="patch_17">
    <path d="M 90 320.4 
L 648 320.4 
" style="fill: none; stroke: #000000; stroke-width: 0.8; stroke-linejoin: miter; stroke-linecap: square"/>
   </g>
   <g id="patch_18">
    <path d="M 90 43.2 
L 648 43.2 
" style="fill: none; stroke: #000000; stroke-width: 0.8; stroke-linejoin: miter; stroke-linecap: square"/>
   </g>
   <g id="PathCollection_1">
    <defs>
     <path id="m8b667b049a" d="M 0 2.5 
C 0.663008 2.5 1.29895 2.236584 1.767767 1.767767 
C 2.236584 1.29895 2.5 0.663008 2.5 0 
C 2.5 -0.663008 2.236584 -1.29895 1.767767 -1.767767 
C 1.29895 -2.236584 0.663008 -2.5 0 -2.5 
C -0.663008 -2.5 -1.29895 -2.236584 -1.767767 -1.767767 
C -2.236584 -1.29895 -2.5 -0.663008 -2.5 0 
C -2.5 0.663008 -2.236584 1.29895 -1.767767 1.767767 
C -1.29895 2.236584 -0.663008 2.5 0 2.5 
z
"/>
    </defs>
    <g clip-path="url(#p21e60a51fe)">
     <use xlink:href="#m8b667b049a" x="152.475847" y="303.504" style="fill-opacity: 0.3"/>
     <use xlink:href="#m8b667b049a" x="143.944301" y="303.504" style="fill-opacity: 0.3"/>
     <use xlink:href="#m8b667b049a" x="147.362511" y="303.504" style="fill-opacity: 0.3"/>
     <use xlink:href="#m8b667b049a" x="139.288329" y="303.504" style="fill-opacity: 0.3"/>
     <use xlink:href="#m8b667b049a" x="139.973647" y="301.392" style="fill-opacity: 0.3"/>
     <use xlink:href="#m8b667b049a" x="145.136712" y="301.392" style="fill-opacity: 0.3"/>
     <use xlink:href="#m8b667b049a" x="156.483062" y="301.392" style="fill-opacity: 0.3"/>
     <use xlink:href="#m8b667b049a" x="155.117944" y="305.616" style="fill-opacity: 0.3"/>
     <use xlink:href="#m8b667b049a" x="144.041967" y="305.616" style="fill-opacity: 0.3"/>
     <use xlink:href="#m8b667b049a" x="142.509087" y="305.616" style="fill-opacity: 0.3"/>
     <use xlink:href="#m8b667b049a" x="136.925936" y="305.616" style="fill-opacity: 0.3"/>
     <use xlink:href="#m8b667b049a" x="150.234564" y="305.616" style="fill-opacity: 0.3"/>
     <use xlink:href="#m8b667b049a" x="143.154313" y="305.616" style="fill-opacity: 0.3"/>
     <use xlink:href="#m8b667b049a" x="148.206156" y="305.616" style="fill-opacity: 0.3"/>
     <use xlink:href="#m8b667b049a" x="151.243099" y="305.616" style="fill-opacity: 0.3"/>
     <use xlink:href="#m8b667b049a" x="153.912692" y="305.616" style="fill-opacity: 0.3"/>
     <use xlink:href="#m8b667b049a" x="140.882671" y="305.616" style="fill-opacity: 0.3"/>
     <use xlink:href="#m8b667b049a" x="148.994117" y="305.616" style="fill-opacity: 0.3"/>
     <use xlink:href="#m8b667b049a" x="150.471858" y="305.616" style="fill-opacity: 0.3"/>
     <use xlink:href="#m8b667b049a" x="151.598692" y="305.616" style="fill-opacity: 0.3"/>
     <use xlink:href="#m8b667b049a" x="144.795555" y="305.616" style="fill-opacity: 0.3"/>
     <use xlink:href="#m8b667b049a" x="145.67483" y="301.392" style="fill-opacity: 0.3"/>
     <use xlink:href="#m8b667b049a" x="145.014819" y="301.392" style="fill-opacity: 0.3"/>
     <use xlink:href="#m8b667b049a" x="156.133853" y="301.392" style="fill-opacity: 0.3"/>
     <use xlink:href="#m8b667b049a" x="143.30867" y="301.392" style="fill-opacity: 0.3"/>
     <use xlink:href="#m8b667b049a" x="144.269273" y="301.392" style="fill-opacity: 0.3"/>
     <use xlink:href="#m8b667b049a" x="154.207617" y="301.392" style="fill-opacity: 0.3"/>
     <use xlink:href="#m8b667b049a" x="136.40106" y="301.392" style="fill-opacity: 0.3"/>
     <use xlink:href="#m8b667b049a" x="146.001244" y="301.392" style="fill-opacity: 0.3"/>
     <use xlink:href="#m8b667b049a" x="138.256038" y="301.392" style="fill-opacity: 0.3"/>
    </g>
   </g>
   <g id="PathCollection_2">
    <g clip-path="url(#p21e60a51fe)">
     <use xlink:href="#m8b667b049a" x="250.726498" y="303.504" style="fill-opacity: 0.3"/>
     <use xlink:href="#m8b667b049a" x="247.376608" y="303.504" style="fill-opacity: 0.3"/>
     <use xlink:href="#m8b667b049a" x="256.002087" y="303.504" style="fill-opacity: 0.3"/>
     <use xlink:href="#m8b667b049a" x="246.382086" y="303.504" style="fill-opacity: 0.3"/>
     <use xlink:href="#m8b667b049a" x="253.816843" y="303.504" style="fill-opacity: 0.3"/>
     <use xlink:href="#m8b667b049a" x="248.637863" y="303.504" style="fill-opacity: 0.3"/>
     <use xlink:href="#m8b667b049a" x="261.643359" y="303.504" style="fill-opacity: 0.3"/>
     <use xlink:href="#m8b667b049a" x="253.378738" y="303.504" style="fill-opacity: 0.3"/>
     <use xlink:href="#m8b667b049a" x="264.931887" y="303.504" style="fill-opacity: 0.3"/>
     <use xlink:href="#m8b667b049a" x="262.650818" y="311.952" style="fill-opacity: 0.3"/>
     <use xlink:href="#m8b667b049a" x="266.920849" y="311.952" style="fill-opacity: 0.3"/>
     <use xlink:href="#m8b667b049a" x="257.546294" y="303.504" style="fill-opacity: 0.3"/>
     <use xlink:href="#m8b667b049a" x="248.926566" y="303.504" style="fill-opacity: 0.3"/>
     <use xlink:href="#m8b667b049a" x="255.229663" y="303.504" style="fill-opacity: 0.3"/>
     <use xlink:href="#m8b667b049a" x="252.355761" y="301.392" style="fill-opacity: 0.3"/>
     <use xlink:href="#m8b667b049a" x="258.871998" y="301.392" style="fill-opacity: 0.3"/>
     <use xlink:href="#m8b667b049a" x="267.440031" y="301.392" style="fill-opacity: 0.3"/>
     <use xlink:href="#m8b667b049a" x="255.232319" y="301.392" style="fill-opacity: 0.3"/>
     <use xlink:href="#m8b667b049a" x="247.970401" y="301.392" style="fill-opacity: 0.3"/>
     <use xlink:href="#m8b667b049a" x="260.008305" y="301.392" style="fill-opacity: 0.3"/>
     <use xlink:href="#m8b667b049a" x="261.655917" y="301.392" style="fill-opacity: 0.3"/>
     <use xlink:href="#m8b667b049a" x="250.370999" y="301.392" style="fill-opacity: 0.3"/>
     <use xlink:href="#m8b667b049a" x="267.891418" y="301.392" style="fill-opacity: 0.3"/>
     <use xlink:href="#m8b667b049a" x="259.487745" y="301.392" style="fill-opacity: 0.3"/>
     <use xlink:href="#m8b667b049a" x="250.834678" y="301.392" style="fill-opacity: 0.3"/>
     <use xlink:href="#m8b667b049a" x="261.321735" y="301.392" style="fill-opacity: 0.3"/>
     <use xlink:href="#m8b667b049a" x="258.900952" y="301.392" style="fill-opacity: 0.3"/>
     <use xlink:href="#m8b667b049a" x="266.903368" y="301.392" style="fill-opacity: 0.3"/>
     <use xlink:href="#m8b667b049a" x="262.285373" y="301.392" style="fill-opacity: 0.3"/>
     <use xlink:href="#m8b667b049a" x="261.123271" y="301.392" style="fill-opacity: 0.3"/>
     <use xlink:href="#m8b667b049a" x="267.16254" y="301.392" style="fill-opacity: 0.3"/>
     <use xlink:href="#m8b667b049a" x="252.403964" y="301.392" style="fill-opacity: 0.3"/>
     <use xlink:href="#m8b667b049a" x="257.64647" y="301.392" style="fill-opacity: 0.3"/>
     <use xlink:href="#m8b667b049a" x="257.028416" y="301.392" style="fill-opacity: 0.3"/>
     <use xlink:href="#m8b667b049a" x="267.332483" y="301.392" style="fill-opacity: 0.3"/>
     <use xlink:href="#m8b667b049a" x="247.933955" y="301.392" style="fill-opacity: 0.3"/>
     <use xlink:href="#m8b667b049a" x="250.364473" y="301.392" style="fill-opacity: 0.3"/>
     <use xlink:href="#m8b667b049a" x="251.183185" y="301.392" style="fill-opacity: 0.3"/>
     <use xlink:href="#m8b667b049a" x="260.773258" y="301.392" style="fill-opacity: 0.3"/>
     <use xlink:href="#m8b667b049a" x="257.657386" y="301.392" style="fill-opacity: 0.3"/>
     <use xlink:href="#m8b667b049a" x="252.559221" y="301.392" style="fill-opacity: 0.3"/>
     <use xlink:href="#m8b667b049a" x="258.983219" y="301.392" style="fill-opacity: 0.3"/>
     <use xlink:href="#m8b667b049a" x="249.328993" y="301.392" style="fill-opacity: 0.3"/>
     <use xlink:href="#m8b667b049a" x="265.096348" y="301.392" style="fill-opacity: 0.3"/>
     <use xlink:href="#m8b667b049a" x="247.36185" y="301.392" style="fill-opacity: 0.3"/>
     <use xlink:href="#m8b667b049a" x="265.680545" y="301.392" style="fill-opacity: 0.3"/>
     <use xlink:href="#m8b667b049a" x="248.36956" y="301.392" style="fill-opacity: 0.3"/>
     <use xlink:href="#m8b667b049a" x="255.972846" y="301.392" style="fill-opacity: 0.3"/>
     <use xlink:href="#m8b667b049a" x="264.793503" y="305.616" style="fill-opacity: 0.3"/>
     <use xlink:href="#m8b667b049a" x="268.556973" y="305.616" style="fill-opacity: 0.3"/>
     <use xlink:href="#m8b667b049a" x="263.374435" y="305.616" style="fill-opacity: 0.3"/>
     <use xlink:href="#m8b667b049a" x="255.377743" y="305.616" style="fill-opacity: 0.3"/>
     <use xlink:href="#m8b667b049a" x="248.382272" y="305.616" style="fill-opacity: 0.3"/>
     <use xlink:href="#m8b667b049a" x="261.450755" y="305.616" style="fill-opacity: 0.3"/>
     <use xlink:href="#m8b667b049a" x="264.15901" y="305.616" style="fill-opacity: 0.3"/>
     <use xlink:href="#m8b667b049a" x="251.080848" y="305.616" style="fill-opacity: 0.3"/>
     <use xlink:href="#m8b667b049a" x="246.386943" y="305.616" style="fill-opacity: 0.3"/>
     <use xlink:href="#m8b667b049a" x="247.648721" y="305.616" style="fill-opacity: 0.3"/>
     <use xlink:href="#m8b667b049a" x="251.036444" y="305.616" style="fill-opacity: 0.3"/>
     <use xlink:href="#m8b667b049a" x="247.825837" y="305.616" style="fill-opacity: 0.3"/>
     <use xlink:href="#m8b667b049a" x="254.978923" y="305.616" style="fill-opacity: 0.3"/>
     <use xlink:href="#m8b667b049a" x="257.866664" y="305.616" style="fill-opacity: 0.3"/>
     <use xlink:href="#m8b667b049a" x="251.706092" y="305.616" style="fill-opacity: 0.3"/>
     <use xlink:href="#m8b667b049a" x="254.713615" y="305.616" style="fill-opacity: 0.3"/>
     <use xlink:href="#m8b667b049a" x="265.298062" y="305.616" style="fill-opacity: 0.3"/>
     <use xlink:href="#m8b667b049a" x="253.490524" y="305.616" style="fill-opacity: 0.3"/>
     <use xlink:href="#m8b667b049a" x="252.240494" y="305.616" style="fill-opacity: 0.3"/>
     <use xlink:href="#m8b667b049a" x="250.050551" y="305.616" style="fill-opacity: 0.3"/>
     <use xlink:href="#m8b667b049a" x="251.172199" y="305.616" style="fill-opacity: 0.3"/>
     <use xlink:href="#m8b667b049a" x="254.364722" y="305.616" style="fill-opacity: 0.3"/>
     <use xlink:href="#m8b667b049a" x="257.302932" y="305.616" style="fill-opacity: 0.3"/>
     <use xlink:href="#m8b667b049a" x="253.863448" y="305.616" style="fill-opacity: 0.3"/>
     <use xlink:href="#m8b667b049a" x="254.118699" y="301.392" style="fill-opacity: 0.3"/>
     <use xlink:href="#m8b667b049a" x="252.974633" y="301.392" style="fill-opacity: 0.3"/>
     <use xlink:href="#m8b667b049a" x="260.634641" y="301.392" style="fill-opacity: 0.3"/>
     <use xlink:href="#m8b667b049a" x="256.74092" y="301.392" style="fill-opacity: 0.3"/>
    </g>
   </g>
   <g id="PathCollection_3">
    <g clip-path="url(#p21e60a51fe)">
     <use xlink:href="#m8b667b049a" x="371.512077" y="303.504" style="fill-opacity: 0.3"/>
     <use xlink:href="#m8b667b049a" x="370.261729" y="311.952" style="fill-opacity: 0.3"/>
     <use xlink:href="#m8b667b049a" x="376.600889" y="311.952" style="fill-opacity: 0.3"/>
     <use xlink:href="#m8b667b049a" x="370.077643" y="301.392" style="fill-opacity: 0.3"/>
     <use xlink:href="#m8b667b049a" x="369.019523" y="301.392" style="fill-opacity: 0.3"/>
     <use xlink:href="#m8b667b049a" x="368.267659" y="301.392" style="fill-opacity: 0.3"/>
     <use xlink:href="#m8b667b049a" x="373.501795" y="301.392" style="fill-opacity: 0.3"/>
     <use xlink:href="#m8b667b049a" x="367.66769" y="301.392" style="fill-opacity: 0.3"/>
     <use xlink:href="#m8b667b049a" x="378.546863" y="301.392" style="fill-opacity: 0.3"/>
     <use xlink:href="#m8b667b049a" x="357.917832" y="301.392" style="fill-opacity: 0.3"/>
     <use xlink:href="#m8b667b049a" x="371.633664" y="301.392" style="fill-opacity: 0.3"/>
     <use xlink:href="#m8b667b049a" x="359.779709" y="301.392" style="fill-opacity: 0.3"/>
     <use xlink:href="#m8b667b049a" x="361.80683" y="301.392" style="fill-opacity: 0.3"/>
     <use xlink:href="#m8b667b049a" x="376.071796" y="301.392" style="fill-opacity: 0.3"/>
     <use xlink:href="#m8b667b049a" x="366.50745" y="301.392" style="fill-opacity: 0.3"/>
     <use xlink:href="#m8b667b049a" x="377.156715" y="301.392" style="fill-opacity: 0.3"/>
     <use xlink:href="#m8b667b049a" x="367.159983" y="301.392" style="fill-opacity: 0.3"/>
     <use xlink:href="#m8b667b049a" x="359.747707" y="301.392" style="fill-opacity: 0.3"/>
     <use xlink:href="#m8b667b049a" x="374.803034" y="301.392" style="fill-opacity: 0.3"/>
     <use xlink:href="#m8b667b049a" x="362.512201" y="301.392" style="fill-opacity: 0.3"/>
     <use xlink:href="#m8b667b049a" x="372.169848" y="301.392" style="fill-opacity: 0.3"/>
     <use xlink:href="#m8b667b049a" x="374.610939" y="301.392" style="fill-opacity: 0.3"/>
     <use xlink:href="#m8b667b049a" x="378.64191" y="301.392" style="fill-opacity: 0.3"/>
     <use xlink:href="#m8b667b049a" x="369.719846" y="305.616" style="fill-opacity: 0.3"/>
     <use xlink:href="#m8b667b049a" x="376.505665" y="305.616" style="fill-opacity: 0.3"/>
     <use xlink:href="#m8b667b049a" x="362.011069" y="305.616" style="fill-opacity: 0.3"/>
     <use xlink:href="#m8b667b049a" x="359.048511" y="305.616" style="fill-opacity: 0.3"/>
     <use xlink:href="#m8b667b049a" x="369.918777" y="305.616" style="fill-opacity: 0.3"/>
     <use xlink:href="#m8b667b049a" x="375.58758" y="305.616" style="fill-opacity: 0.3"/>
     <use xlink:href="#m8b667b049a" x="378.921905" y="305.616" style="fill-opacity: 0.3"/>
     <use xlink:href="#m8b667b049a" x="366.281967" y="305.616" style="fill-opacity: 0.3"/>
     <use xlink:href="#m8b667b049a" x="360.595857" y="305.616" style="fill-opacity: 0.3"/>
     <use xlink:href="#m8b667b049a" x="368.853562" y="305.616" style="fill-opacity: 0.3"/>
     <use xlink:href="#m8b667b049a" x="362.126662" y="305.616" style="fill-opacity: 0.3"/>
     <use xlink:href="#m8b667b049a" x="359.267775" y="305.616" style="fill-opacity: 0.3"/>
     <use xlink:href="#m8b667b049a" x="365.858821" y="301.392" style="fill-opacity: 0.3"/>
     <use xlink:href="#m8b667b049a" x="377.623947" y="301.392" style="fill-opacity: 0.3"/>
     <use xlink:href="#m8b667b049a" x="360.126221" y="301.392" style="fill-opacity: 0.3"/>
     <use xlink:href="#m8b667b049a" x="374.276525" y="301.392" style="fill-opacity: 0.3"/>
     <use xlink:href="#m8b667b049a" x="377.218871" y="301.392" style="fill-opacity: 0.3"/>
     <use xlink:href="#m8b667b049a" x="369.190802" y="301.392" style="fill-opacity: 0.3"/>
     <use xlink:href="#m8b667b049a" x="375.376812" y="301.392" style="fill-opacity: 0.3"/>
    </g>
   </g>
   <g id="PathCollection_4">
    <g clip-path="url(#p21e60a51fe)">
     <use xlink:href="#m8b667b049a" x="480.57076" y="303.504" style="fill-opacity: 0.3"/>
     <use xlink:href="#m8b667b049a" x="475.71857" y="303.504" style="fill-opacity: 0.3"/>
     <use xlink:href="#m8b667b049a" x="482.413397" y="303.504" style="fill-opacity: 0.3"/>
     <use xlink:href="#m8b667b049a" x="491.015246" y="311.952" style="fill-opacity: 0.3"/>
     <use xlink:href="#m8b667b049a" x="487.841417" y="311.952" style="fill-opacity: 0.3"/>
     <use xlink:href="#m8b667b049a" x="483.996965" y="311.952" style="fill-opacity: 0.3"/>
     <use xlink:href="#m8b667b049a" x="479.194492" y="311.952" style="fill-opacity: 0.3"/>
     <use xlink:href="#m8b667b049a" x="482.457667" y="311.952" style="fill-opacity: 0.3"/>
     <use xlink:href="#m8b667b049a" x="483.692843" y="303.504" style="fill-opacity: 0.3"/>
     <use xlink:href="#m8b667b049a" x="487.799093" y="311.952" style="fill-opacity: 0.3"/>
     <use xlink:href="#m8b667b049a" x="482.041758" y="311.952" style="fill-opacity: 0.3"/>
     <use xlink:href="#m8b667b049a" x="472.876877" y="311.952" style="fill-opacity: 0.3"/>
     <use xlink:href="#m8b667b049a" x="472.533483" y="301.392" style="fill-opacity: 0.3"/>
     <use xlink:href="#m8b667b049a" x="472.278584" y="301.392" style="fill-opacity: 0.3"/>
     <use xlink:href="#m8b667b049a" x="475.260246" y="301.392" style="fill-opacity: 0.3"/>
     <use xlink:href="#m8b667b049a" x="481.967338" y="301.392" style="fill-opacity: 0.3"/>
     <use xlink:href="#m8b667b049a" x="470.140815" y="301.392" style="fill-opacity: 0.3"/>
     <use xlink:href="#m8b667b049a" x="491.739547" y="301.392" style="fill-opacity: 0.3"/>
     <use xlink:href="#m8b667b049a" x="488.127404" y="301.392" style="fill-opacity: 0.3"/>
     <use xlink:href="#m8b667b049a" x="488.395044" y="301.392" style="fill-opacity: 0.3"/>
     <use xlink:href="#m8b667b049a" x="491.145889" y="301.392" style="fill-opacity: 0.3"/>
     <use xlink:href="#m8b667b049a" x="476.989805" y="301.392" style="fill-opacity: 0.3"/>
     <use xlink:href="#m8b667b049a" x="471.192361" y="301.392" style="fill-opacity: 0.3"/>
     <use xlink:href="#m8b667b049a" x="489.742168" y="301.392" style="fill-opacity: 0.3"/>
     <use xlink:href="#m8b667b049a" x="480.484771" y="301.392" style="fill-opacity: 0.3"/>
     <use xlink:href="#m8b667b049a" x="475.967692" y="301.392" style="fill-opacity: 0.3"/>
     <use xlink:href="#m8b667b049a" x="480.955235" y="301.392" style="fill-opacity: 0.3"/>
     <use xlink:href="#m8b667b049a" x="485.285646" y="301.392" style="fill-opacity: 0.3"/>
     <use xlink:href="#m8b667b049a" x="470.488722" y="301.392" style="fill-opacity: 0.3"/>
     <use xlink:href="#m8b667b049a" x="486.527515" y="301.392" style="fill-opacity: 0.3"/>
     <use xlink:href="#m8b667b049a" x="483.364885" y="301.392" style="fill-opacity: 0.3"/>
     <use xlink:href="#m8b667b049a" x="489.054786" y="301.392" style="fill-opacity: 0.3"/>
     <use xlink:href="#m8b667b049a" x="490.659886" y="301.392" style="fill-opacity: 0.3"/>
     <use xlink:href="#m8b667b049a" x="478.543116" y="301.392" style="fill-opacity: 0.3"/>
     <use xlink:href="#m8b667b049a" x="488.687831" y="301.392" style="fill-opacity: 0.3"/>
     <use xlink:href="#m8b667b049a" x="483.365726" y="301.392" style="fill-opacity: 0.3"/>
     <use xlink:href="#m8b667b049a" x="471.411852" y="301.392" style="fill-opacity: 0.3"/>
     <use xlink:href="#m8b667b049a" x="476.238328" y="301.392" style="fill-opacity: 0.3"/>
     <use xlink:href="#m8b667b049a" x="478.32862" y="301.392" style="fill-opacity: 0.3"/>
     <use xlink:href="#m8b667b049a" x="475.291553" y="301.392" style="fill-opacity: 0.3"/>
     <use xlink:href="#m8b667b049a" x="473.16191" y="301.392" style="fill-opacity: 0.3"/>
     <use xlink:href="#m8b667b049a" x="472.104364" y="301.392" style="fill-opacity: 0.3"/>
     <use xlink:href="#m8b667b049a" x="490.973062" y="301.392" style="fill-opacity: 0.3"/>
     <use xlink:href="#m8b667b049a" x="479.518014" y="301.392" style="fill-opacity: 0.3"/>
     <use xlink:href="#m8b667b049a" x="471.246846" y="301.392" style="fill-opacity: 0.3"/>
     <use xlink:href="#m8b667b049a" x="473.193371" y="301.392" style="fill-opacity: 0.3"/>
     <use xlink:href="#m8b667b049a" x="488.886719" y="301.392" style="fill-opacity: 0.3"/>
     <use xlink:href="#m8b667b049a" x="483.862465" y="301.392" style="fill-opacity: 0.3"/>
     <use xlink:href="#m8b667b049a" x="482.759864" y="301.392" style="fill-opacity: 0.3"/>
     <use xlink:href="#m8b667b049a" x="488.505109" y="301.392" style="fill-opacity: 0.3"/>
     <use xlink:href="#m8b667b049a" x="490.082399" y="301.392" style="fill-opacity: 0.3"/>
     <use xlink:href="#m8b667b049a" x="489.181411" y="301.392" style="fill-opacity: 0.3"/>
     <use xlink:href="#m8b667b049a" x="476.825689" y="305.616" style="fill-opacity: 0.3"/>
     <use xlink:href="#m8b667b049a" x="485.262543" y="305.616" style="fill-opacity: 0.3"/>
     <use xlink:href="#m8b667b049a" x="485.978289" y="305.616" style="fill-opacity: 0.3"/>
     <use xlink:href="#m8b667b049a" x="478.059371" y="305.616" style="fill-opacity: 0.3"/>
     <use xlink:href="#m8b667b049a" x="471.453296" y="305.616" style="fill-opacity: 0.3"/>
     <use xlink:href="#m8b667b049a" x="480.569174" y="305.616" style="fill-opacity: 0.3"/>
     <use xlink:href="#m8b667b049a" x="477.232148" y="305.616" style="fill-opacity: 0.3"/>
     <use xlink:href="#m8b667b049a" x="483.489723" y="305.616" style="fill-opacity: 0.3"/>
     <use xlink:href="#m8b667b049a" x="476.539547" y="305.616" style="fill-opacity: 0.3"/>
     <use xlink:href="#m8b667b049a" x="470.324876" y="305.616" style="fill-opacity: 0.3"/>
     <use xlink:href="#m8b667b049a" x="485.007983" y="301.392" style="fill-opacity: 0.3"/>
    </g>
   </g>
   <g id="legend_1">
    <g id="patch_19">
     <path d="M 97 124.590625 
L 154.048438 124.590625 
Q 156.048438 124.590625 156.048438 122.590625 
L 156.048438 50.2 
Q 156.048438 48.2 154.048438 48.2 
L 97 48.2 
Q 95 48.2 95 50.2 
L 95 122.590625 
Q 95 124.590625 97 124.590625 
z
" style="fill: #ffffff; opacity: 0.8; stroke: #cccccc; stroke-linejoin: miter"/>
    </g>
    <g id="text_15">
     <!-- rodent.sex -->
     <g transform="translate(99 59.798437) scale(0.1 -0.1)">
      <defs>
       <path id="DejaVuSans-64" d="M 2906 2969 
L 2906 4863 
L 3481 4863 
L 3481 0 
L 2906 0 
L 2906 525 
Q 2725 213 2448 61 
Q 2172 -91 1784 -91 
Q 1150 -91 751 415 
Q 353 922 353 1747 
Q 353 2572 751 3078 
Q 1150 3584 1784 3584 
Q 2172 3584 2448 3432 
Q 2725 3281 2906 2969 
z
M 947 1747 
Q 947 1113 1208 752 
Q 1469 391 1925 391 
Q 2381 391 2643 752 
Q 2906 1113 2906 1747 
Q 2906 2381 2643 2742 
Q 2381 3103 1925 3103 
Q 1469 3103 1208 2742 
Q 947 2381 947 1747 
z
" transform="scale(0.015625)"/>
       <path id="DejaVuSans-2e" d="M 684 794 
L 1344 794 
L 1344 0 
L 684 0 
L 684 794 
z
" transform="scale(0.015625)"/>
       <path id="DejaVuSans-78" d="M 3513 3500 
L 2247 1797 
L 3578 0 
L 2900 0 
L 1881 1375 
L 863 0 
L 184 0 
L 1544 1831 
L 300 3500 
L 978 3500 
L 1906 2253 
L 2834 3500 
L 3513 3500 
z
" transform="scale(0.015625)"/>
      </defs>
      <use xlink:href="#DejaVuSans-72"/>
      <use xlink:href="#DejaVuSans-6f" transform="translate(38.863281 0)"/>
      <use xlink:href="#DejaVuSans-64" transform="translate(100.044922 0)"/>
      <use xlink:href="#DejaVuSans-65" transform="translate(163.521484 0)"/>
      <use xlink:href="#DejaVuSans-6e" transform="translate(225.044922 0)"/>
      <use xlink:href="#DejaVuSans-74" transform="translate(288.423828 0)"/>
      <use xlink:href="#DejaVuSans-2e" transform="translate(327.632812 0)"/>
      <use xlink:href="#DejaVuSans-73" transform="translate(359.419922 0)"/>
      <use xlink:href="#DejaVuSans-65" transform="translate(411.519531 0)"/>
      <use xlink:href="#DejaVuSans-78" transform="translate(471.292969 0)"/>
     </g>
    </g>
    <g id="patch_20">
     <path d="M 106.653906 74.476562 
L 126.653906 74.476562 
L 126.653906 67.476562 
L 106.653906 67.476562 
z
" style="fill: #3274a1"/>
    </g>
    <g id="text_16">
     <!-- f -->
     <g transform="translate(134.653906 74.476562) scale(0.1 -0.1)">
      <use xlink:href="#DejaVuSans-66"/>
     </g>
    </g>
    <g id="patch_21">
     <path d="M 106.653906 89.154688 
L 126.653906 89.154688 
L 126.653906 82.154688 
L 106.653906 82.154688 
z
" style="fill: #e1812c"/>
    </g>
    <g id="text_17">
     <!-- m -->
     <g transform="translate(134.653906 89.154688) scale(0.1 -0.1)">
      <defs>
       <path id="DejaVuSans-6d" d="M 3328 2828 
Q 3544 3216 3844 3400 
Q 4144 3584 4550 3584 
Q 5097 3584 5394 3201 
Q 5691 2819 5691 2113 
L 5691 0 
L 5113 0 
L 5113 2094 
Q 5113 2597 4934 2840 
Q 4756 3084 4391 3084 
Q 3944 3084 3684 2787 
Q 3425 2491 3425 1978 
L 3425 0 
L 2847 0 
L 2847 2094 
Q 2847 2600 2669 2842 
Q 2491 3084 2119 3084 
Q 1678 3084 1418 2786 
Q 1159 2488 1159 1978 
L 1159 0 
L 581 0 
L 581 3500 
L 1159 3500 
L 1159 2956 
Q 1356 3278 1631 3431 
Q 1906 3584 2284 3584 
Q 2666 3584 2933 3390 
Q 3200 3197 3328 2828 
z
" transform="scale(0.015625)"/>
      </defs>
      <use xlink:href="#DejaVuSans-6d"/>
     </g>
    </g>
    <g id="patch_22">
     <path d="M 106.653906 103.832812 
L 126.653906 103.832812 
L 126.653906 96.832812 
L 106.653906 96.832812 
z
" style="fill: #3274a1"/>
    </g>
    <g id="text_18">
     <!-- f -->
     <g transform="translate(134.653906 103.832812) scale(0.1 -0.1)">
      <use xlink:href="#DejaVuSans-66"/>
     </g>
    </g>
    <g id="patch_23">
     <path d="M 106.653906 118.510938 
L 126.653906 118.510938 
L 126.653906 111.510938 
L 106.653906 111.510938 
z
" style="fill: #e1812c"/>
    </g>
    <g id="text_19">
     <!-- m -->
     <g transform="translate(134.653906 118.510938) scale(0.1 -0.1)">
      <use xlink:href="#DejaVuSans-6d"/>
     </g>
    </g>
   </g>
  </g>
 </g>
 <defs>
  <clipPath id="p21e60a51fe">
   <rect x="90" y="43.2" width="558" height="277.2"/>
  </clipPath>
 </defs>
</svg>
