<?xml version="1.0" encoding="utf-8" standalone="no"?>
<!DOCTYPE svg PUBLIC "-//W3C//DTD SVG 1.1//EN"
  "http://www.w3.org/Graphics/SVG/1.1/DTD/svg11.dtd">
<svg xmlns:xlink="http://www.w3.org/1999/xlink" width="720pt" height="360pt" viewBox="0 0 720 360" xmlns="http://www.w3.org/2000/svg" version="1.1">
 <metadata>
  <rdf:RDF xmlns:dc="http://purl.org/dc/elements/1.1/" xmlns:cc="http://creativecommons.org/ns#" xmlns:rdf="http://www.w3.org/1999/02/22-rdf-syntax-ns#">
   <cc:Work>
    <dc:type rdf:resource="http://purl.org/dc/dcmitype/StillImage"/>
    <dc:date>2025-10-01T10:09:26.431625</dc:date>
    <dc:format>image/svg+xml</dc:format>
    <dc:creator>
     <cc:Agent>
      <dc:title>Matplotlib v3.10.3, https://matplotlib.org/</dc:title>
     </cc:Agent>
    </dc:creator>
   </cc:Work>
  </rdf:RDF>
 </metadata>
 <defs>
  <style type="text/css">*{stroke-linejoin: round; stroke-linecap: butt}</style>
 </defs>
 <g id="figure_1">
  <g id="patch_1">
   <path d="M 0 360 
L 720 360 
L 720 0 
L 0 0 
z
" style="fill: #ffffff"/>
  </g>
  <g id="axes_1">
   <g id="patch_2">
    <path d="M 90 320.4 
L 648 320.4 
L 648 43.2 
L 90 43.2 
z
" style="fill: #ffffff"/>
   </g>
   <g id="FillBetweenPolyCollection_1">
    <defs>
     <path id="mec21c55360" d="M 162.277928 -60.855791 
L 157.222072 -60.855791 
L 156.378888 -62.854675 
L 155.321915 -64.853559 
L 154.020297 -66.852443 
L 152.445912 -68.851327 
L 150.575823 -70.850211 
L 148.394906 -72.849095 
L 145.898438 -74.847979 
L 143.094413 -76.846863 
L 140.005288 -78.845747 
L 136.668924 -80.844631 
L 133.138514 -82.843515 
L 129.481368 -84.842399 
L 125.776563 -86.841283 
L 122.111555 -88.840167 
L 118.578004 -90.839051 
L 115.267116 -92.837935 
L 112.264906 -94.836819 
L 109.64777 -96.835703 
L 107.478728 -98.834587 
L 105.804618 -100.833471 
L 104.6544 -102.832354 
L 104.038629 -104.831238 
L 103.95 -106.830122 
L 104.364808 -108.829006 
L 105.245092 -110.82789 
L 106.541199 -112.826774 
L 108.194545 -114.825658 
L 110.140375 -116.824542 
L 112.310391 -118.823426 
L 114.635183 -120.82231 
L 117.046444 -122.821194 
L 119.478977 -124.820078 
L 121.872534 -126.818962 
L 124.173477 -128.817846 
L 126.336276 -130.81673 
L 128.324782 -132.815614 
L 130.11322 -134.814498 
L 131.686815 -136.813382 
L 133.041961 -138.812266 
L 134.185883 -140.81115 
L 135.135739 -142.810034 
L 135.917189 -144.808917 
L 136.562497 -146.807801 
L 137.108261 -148.806685 
L 137.592935 -150.805569 
L 138.054317 -152.804453 
L 138.527174 -154.803337 
L 139.041192 -156.802221 
L 139.619387 -158.801105 
L 140.277077 -160.799989 
L 141.021482 -162.798873 
L 141.851935 -164.797757 
L 142.760665 -166.796641 
L 143.734037 -168.795525 
L 144.754123 -170.794409 
L 145.800455 -172.793293 
L 146.85177 -174.792177 
L 147.887628 -176.791061 
L 148.889747 -178.789945 
L 149.842982 -180.788829 
L 150.73588 -182.787713 
L 151.560833 -184.786597 
L 152.313839 -186.78548 
L 152.993984 -188.784364 
L 153.602723 -190.783248 
L 154.143081 -192.782132 
L 154.618904 -194.781016 
L 155.034227 -196.7799 
L 155.39285 -198.778784 
L 155.698144 -200.777668 
L 155.953081 -202.776552 
L 156.160449 -204.775436 
L 156.323194 -206.77432 
L 156.444803 -208.773204 
L 156.529643 -210.772088 
L 156.583193 -212.770972 
L 156.612111 -214.769856 
L 156.624105 -216.76874 
L 156.627626 -218.767624 
L 156.631405 -220.766508 
L 156.643893 -222.765392 
L 156.672668 -224.764276 
L 156.723899 -226.76316 
L 156.801904 -228.762043 
L 156.908878 -230.760927 
L 157.044809 -232.759811 
L 157.207589 -234.758695 
L 157.393298 -236.757579 
L 157.596621 -238.756463 
L 157.811361 -240.755347 
L 158.030968 -242.754231 
L 158.249047 -244.753115 
L 158.459794 -246.751999 
L 158.658325 -248.750883 
L 158.840882 -250.749767 
L 159.004922 -252.748651 
L 159.149091 -254.747535 
L 159.273109 -256.746419 
L 159.377594 -258.745303 
L 160.122406 -258.745303 
L 160.122406 -258.745303 
L 160.226891 -256.746419 
L 160.350909 -254.747535 
L 160.495078 -252.748651 
L 160.659118 -250.749767 
L 160.841675 -248.750883 
L 161.040206 -246.751999 
L 161.250953 -244.753115 
L 161.469032 -242.754231 
L 161.688639 -240.755347 
L 161.903379 -238.756463 
L 162.106702 -236.757579 
L 162.292411 -234.758695 
L 162.455191 -232.759811 
L 162.591122 -230.760927 
L 162.698096 -228.762043 
L 162.776101 -226.76316 
L 162.827332 -224.764276 
L 162.856107 -222.765392 
L 162.868595 -220.766508 
L 162.872374 -218.767624 
L 162.875895 -216.76874 
L 162.887889 -214.769856 
L 162.916807 -212.770972 
L 162.970357 -210.772088 
L 163.055197 -208.773204 
L 163.176806 -206.77432 
L 163.339551 -204.775436 
L 163.546919 -202.776552 
L 163.801856 -200.777668 
L 164.10715 -198.778784 
L 164.465773 -196.7799 
L 164.881096 -194.781016 
L 165.356919 -192.782132 
L 165.897277 -190.783248 
L 166.506016 -188.784364 
L 167.186161 -186.78548 
L 167.939167 -184.786597 
L 168.76412 -182.787713 
L 169.657018 -180.788829 
L 170.610253 -178.789945 
L 171.612372 -176.791061 
L 172.64823 -174.792177 
L 173.699545 -172.793293 
L 174.745877 -170.794409 
L 175.765963 -168.795525 
L 176.739335 -166.796641 
L 177.648065 -164.797757 
L 178.478518 -162.798873 
L 179.222923 -160.799989 
L 179.880613 -158.801105 
L 180.458808 -156.802221 
L 180.972826 -154.803337 
L 181.445683 -152.804453 
L 181.907065 -150.805569 
L 182.391739 -148.806685 
L 182.937503 -146.807801 
L 183.582811 -144.808917 
L 184.364261 -142.810034 
L 185.314117 -140.81115 
L 186.458039 -138.812266 
L 187.813185 -136.813382 
L 189.38678 -134.814498 
L 191.175218 -132.815614 
L 193.163724 -130.81673 
L 195.326523 -128.817846 
L 197.627466 -126.818962 
L 200.021023 -124.820078 
L 202.453556 -122.821194 
L 204.864817 -120.82231 
L 207.189609 -118.823426 
L 209.359625 -116.824542 
L 211.305455 -114.825658 
L 212.958801 -112.826774 
L 214.254908 -110.82789 
L 215.135192 -108.829006 
L 215.55 -106.830122 
L 215.461371 -104.831238 
L 214.8456 -102.832354 
L 213.695382 -100.833471 
L 212.021272 -98.834587 
L 209.85223 -96.835703 
L 207.235094 -94.836819 
L 204.232884 -92.837935 
L 200.921996 -90.839051 
L 197.388445 -88.840167 
L 193.723437 -86.841283 
L 190.018632 -84.842399 
L 186.361486 -82.843515 
L 182.831076 -80.844631 
L 179.494712 -78.845747 
L 176.405587 -76.846863 
L 173.601562 -74.847979 
L 171.105094 -72.849095 
L 168.924177 -70.850211 
L 167.054088 -68.851327 
L 165.479703 -66.852443 
L 164.178085 -64.853559 
L 163.121112 -62.854675 
L 162.277928 -60.855791 
z
" style="stroke: #3d3d3d; stroke-width: 1.25"/>
    </defs>
    <g clip-path="url(#p15751db376)">
     <use xlink:href="#mec21c55360" x="0" y="360" style="fill: #3274a1; stroke: #3d3d3d; stroke-width: 1.25"/>
    </g>
   </g>
   <g id="FillBetweenPolyCollection_2">
    <defs>
     <path id="m7cc9630427" d="M 301.195003 -66.635274 
L 297.304997 -66.635274 
L 296.237909 -69.034918 
L 294.729269 -71.434561 
L 292.673551 -73.834205 
L 289.975882 -76.233849 
L 286.570107 -78.633493 
L 282.439026 -81.033136 
L 277.633375 -83.43278 
L 272.285204 -85.832424 
L 266.611243 -88.232067 
L 260.903052 -90.631711 
L 255.502988 -93.031355 
L 250.768082 -95.430998 
L 247.026951 -97.830642 
L 244.537022 -100.230286 
L 243.45 -102.62993 
L 243.792227 -105.029573 
L 245.46371 -107.429217 
L 248.255763 -109.828861 
L 251.883445 -112.228504 
L 256.026259 -114.628148 
L 260.369408 -117.027792 
L 264.638645 -119.427435 
L 268.623793 -121.827079 
L 272.18893 -124.226723 
L 275.27007 -126.626366 
L 277.863338 -129.02601 
L 280.007795 -131.425654 
L 281.76707 -133.825298 
L 283.21312 -136.224941 
L 284.414131 -138.624585 
L 285.427206 -141.024229 
L 286.295407 -143.423872 
L 287.048104 -145.823516 
L 287.70342 -148.22316 
L 288.271671 -150.622803 
L 288.759039 -153.022447 
L 289.170939 -155.422091 
L 289.51476 -157.821735 
L 289.801733 -160.221378 
L 290.047751 -162.621022 
L 290.273046 -165.020666 
L 290.500759 -167.420309 
L 290.754645 -169.819953 
L 291.056291 -172.219597 
L 291.422371 -174.61924 
L 291.862421 -177.018884 
L 292.37754 -179.418528 
L 292.960212 -181.818171 
L 293.595247 -184.217815 
L 294.26162 -186.617459 
L 294.934896 -189.017103 
L 295.589835 -191.416746 
L 296.202838 -193.81639 
L 296.753958 -196.216034 
L 297.228316 -198.615677 
L 297.616883 -201.015321 
L 297.916673 -203.414965 
L 298.130448 -205.814608 
L 298.266053 -208.214252 
L 298.335469 -210.613896 
L 298.353665 -213.01354 
L 298.337285 -215.413183 
L 298.303237 -217.812827 
L 298.267254 -220.212471 
L 298.242562 -222.612114 
L 298.238806 -225.011758 
L 298.261397 -227.411402 
L 298.31137 -229.811045 
L 298.385799 -232.210689 
L 298.478663 -234.610333 
L 298.582002 -237.009977 
L 298.687136 -239.40962 
L 298.785738 -241.809264 
L 298.870609 -244.208908 
L 298.936107 -246.608551 
L 298.978266 -249.008195 
L 298.994729 -251.407839 
L 298.984621 -253.807482 
L 298.948485 -256.207126 
L 298.888327 -258.60677 
L 298.807747 -261.006413 
L 298.712041 -263.406057 
L 298.608166 -265.805701 
L 298.504431 -268.205345 
L 298.409861 -270.604988 
L 298.333274 -273.004632 
L 298.282212 -275.404276 
L 298.26191 -277.803919 
L 298.274553 -280.203563 
L 298.318975 -282.603207 
L 298.390887 -285.00285 
L 298.483588 -287.402494 
L 298.589014 -289.802138 
L 298.69889 -292.201782 
L 298.805779 -294.601425 
L 298.903842 -297.001069 
L 298.989226 -299.400713 
L 299.060081 -301.800356 
L 299.116283 -304.2 
L 299.383717 -304.2 
L 299.383717 -304.2 
L 299.439919 -301.800356 
L 299.510774 -299.400713 
L 299.596158 -297.001069 
L 299.694221 -294.601425 
L 299.80111 -292.201782 
L 299.910986 -289.802138 
L 300.016412 -287.402494 
L 300.109113 -285.00285 
L 300.181025 -282.603207 
L 300.225447 -280.203563 
L 300.23809 -277.803919 
L 300.217788 -275.404276 
L 300.166726 -273.004632 
L 300.090139 -270.604988 
L 299.995569 -268.205345 
L 299.891834 -265.805701 
L 299.787959 -263.406057 
L 299.692253 -261.006413 
L 299.611673 -258.60677 
L 299.551515 -256.207126 
L 299.515379 -253.807482 
L 299.505271 -251.407839 
L 299.521734 -249.008195 
L 299.563893 -246.608551 
L 299.629391 -244.208908 
L 299.714262 -241.809264 
L 299.812864 -239.40962 
L 299.917998 -237.009977 
L 300.021337 -234.610333 
L 300.114201 -232.210689 
L 300.18863 -229.811045 
L 300.238603 -227.411402 
L 300.261194 -225.011758 
L 300.257438 -222.612114 
L 300.232746 -220.212471 
L 300.196763 -217.812827 
L 300.162715 -215.413183 
L 300.146335 -213.01354 
L 300.164531 -210.613896 
L 300.233947 -208.214252 
L 300.369552 -205.814608 
L 300.583327 -203.414965 
L 300.883117 -201.015321 
L 301.271684 -198.615677 
L 301.746042 -196.216034 
L 302.297162 -193.81639 
L 302.910165 -191.416746 
L 303.565104 -189.017103 
L 304.23838 -186.617459 
L 304.904753 -184.217815 
L 305.539788 -181.818171 
L 306.12246 -179.418528 
L 306.637579 -177.018884 
L 307.077629 -174.61924 
L 307.443709 -172.219597 
L 307.745355 -169.819953 
L 307.999241 -167.420309 
L 308.226954 -165.020666 
L 308.452249 -162.621022 
L 308.698267 -160.221378 
L 308.98524 -157.821735 
L 309.329061 -155.422091 
L 309.740961 -153.022447 
L 310.228329 -150.622803 
L 310.79658 -148.22316 
L 311.451896 -145.823516 
L 312.204593 -143.423872 
L 313.072794 -141.024229 
L 314.085869 -138.624585 
L 315.28688 -136.224941 
L 316.73293 -133.825298 
L 318.492205 -131.425654 
L 320.636662 -129.02601 
L 323.22993 -126.626366 
L 326.31107 -124.226723 
L 329.876207 -121.827079 
L 333.861355 -119.427435 
L 338.130592 -117.027792 
L 342.473741 -114.628148 
L 346.616555 -112.228504 
L 350.244237 -109.828861 
L 353.03629 -107.429217 
L 354.707773 -105.029573 
L 355.05 -102.62993 
L 353.962978 -100.230286 
L 351.473049 -97.830642 
L 347.731918 -95.430998 
L 342.997012 -93.031355 
L 337.596948 -90.631711 
L 331.888757 -88.232067 
L 326.214796 -85.832424 
L 320.866625 -83.43278 
L 316.060974 -81.033136 
L 311.929893 -78.633493 
L 308.524118 -76.233849 
L 305.826449 -73.834205 
L 303.770731 -71.434561 
L 302.262091 -69.034918 
L 301.195003 -66.635274 
z
" style="stroke: #3d3d3d; stroke-width: 1.25"/>
    </defs>
    <g clip-path="url(#p15751db376)">
     <use xlink:href="#m7cc9630427" x="0" y="360" style="fill: #e1812c; stroke: #3d3d3d; stroke-width: 1.25"/>
    </g>
   </g>
   <g id="FillBetweenPolyCollection_3">
    <defs>
     <path id="m6e3dbe7e3c" d="M 442.224016 -52.2 
L 435.275984 -52.2 
L 434.272014 -54.508806 
L 433.051934 -56.817612 
L 431.591918 -59.126419 
L 429.871833 -61.435225 
L 427.877158 -63.744031 
L 425.600943 -66.052837 
L 423.045657 -68.361643 
L 420.224753 -70.670449 
L 417.163775 -72.979256 
L 413.900839 -75.288062 
L 410.486371 -77.596868 
L 406.982017 -79.905674 
L 403.458713 -82.21448 
L 399.99399 -84.523287 
L 396.668641 -86.832093 
L 393.562972 -89.140899 
L 390.752877 -91.449705 
L 388.306048 -93.758511 
L 386.278573 -96.067317 
L 384.712208 -98.376124 
L 383.632504 -100.68493 
L 383.047927 -102.993736 
L 382.95 -105.302542 
L 383.314433 -107.611348 
L 384.10311 -109.920155 
L 385.266735 -112.228961 
L 386.747922 -114.537767 
L 388.48447 -116.846573 
L 390.412588 -119.155379 
L 392.469864 -121.464185 
L 394.597806 -123.772992 
L 396.743851 -126.081798 
L 398.862776 -128.390604 
L 400.917526 -130.69941 
L 402.879468 -133.008216 
L 404.728173 -135.317023 
L 406.450796 -137.625829 
L 408.041171 -139.934635 
L 409.498714 -142.243441 
L 410.827237 -144.552247 
L 412.033758 -146.861054 
L 413.12738 -149.16986 
L 414.118298 -151.478666 
L 415.016982 -153.787472 
L 415.833553 -156.096278 
L 416.577371 -158.405084 
L 417.256825 -160.713891 
L 417.879303 -163.022697 
L 418.451314 -165.331503 
L 418.978698 -167.640309 
L 419.466903 -169.949115 
L 419.92124 -172.257922 
L 420.347108 -174.566728 
L 420.750121 -176.875534 
L 421.136135 -179.18434 
L 421.511168 -181.493146 
L 421.881217 -183.801952 
L 422.252008 -186.110759 
L 422.62871 -188.419565 
L 423.015655 -190.728371 
L 423.416102 -193.037177 
L 423.832077 -195.345983 
L 424.264312 -197.65479 
L 424.712291 -199.963596 
L 425.174394 -202.272402 
L 425.648126 -204.581208 
L 426.130413 -206.890014 
L 426.617914 -209.19882 
L 427.107345 -211.507627 
L 427.595757 -213.816433 
L 428.08077 -216.125239 
L 428.560722 -218.434045 
L 429.034737 -220.742851 
L 429.502707 -223.051658 
L 429.965193 -225.360464 
L 430.423254 -227.66927 
L 430.878231 -229.978076 
L 431.331504 -232.286882 
L 431.784241 -234.595688 
L 432.237174 -236.904495 
L 432.690416 -239.213301 
L 433.143341 -241.522107 
L 433.594531 -243.830913 
L 434.041803 -246.139719 
L 434.482309 -248.448526 
L 434.912698 -250.757332 
L 435.329317 -253.066138 
L 435.728449 -255.374944 
L 436.106546 -257.68375 
L 436.460443 -259.992556 
L 436.787548 -262.301363 
L 437.085967 -264.610169 
L 437.354587 -266.918975 
L 437.593093 -269.227781 
L 437.801932 -271.536587 
L 437.982235 -273.845394 
L 438.135705 -276.1542 
L 438.264479 -278.463006 
L 438.370989 -280.771812 
L 439.129011 -280.771812 
L 439.129011 -280.771812 
L 439.235521 -278.463006 
L 439.364295 -276.1542 
L 439.517765 -273.845394 
L 439.698068 -271.536587 
L 439.906907 -269.227781 
L 440.145413 -266.918975 
L 440.414033 -264.610169 
L 440.712452 -262.301363 
L 441.039557 -259.992556 
L 441.393454 -257.68375 
L 441.771551 -255.374944 
L 442.170683 -253.066138 
L 442.587302 -250.757332 
L 443.017691 -248.448526 
L 443.458197 -246.139719 
L 443.905469 -243.830913 
L 444.356659 -241.522107 
L 444.809584 -239.213301 
L 445.262826 -236.904495 
L 445.715759 -234.595688 
L 446.168496 -232.286882 
L 446.621769 -229.978076 
L 447.076746 -227.66927 
L 447.534807 -225.360464 
L 447.997293 -223.051658 
L 448.465263 -220.742851 
L 448.939278 -218.434045 
L 449.41923 -216.125239 
L 449.904243 -213.816433 
L 450.392655 -211.507627 
L 450.882086 -209.19882 
L 451.369587 -206.890014 
L 451.851874 -204.581208 
L 452.325606 -202.272402 
L 452.787709 -199.963596 
L 453.235688 -197.65479 
L 453.667923 -195.345983 
L 454.083898 -193.037177 
L 454.484345 -190.728371 
L 454.87129 -188.419565 
L 455.247992 -186.110759 
L 455.618783 -183.801952 
L 455.988832 -181.493146 
L 456.363865 -179.18434 
L 456.749879 -176.875534 
L 457.152892 -174.566728 
L 457.57876 -172.257922 
L 458.033097 -169.949115 
L 458.521302 -167.640309 
L 459.048686 -165.331503 
L 459.620697 -163.022697 
L 460.243175 -160.713891 
L 460.922629 -158.405084 
L 461.666447 -156.096278 
L 462.483018 -153.787472 
L 463.381702 -151.478666 
L 464.37262 -149.16986 
L 465.466242 -146.861054 
L 466.672763 -144.552247 
L 468.001286 -142.243441 
L 469.458829 -139.934635 
L 471.049204 -137.625829 
L 472.771827 -135.317023 
L 474.620532 -133.008216 
L 476.582474 -130.69941 
L 478.637224 -128.390604 
L 480.756149 -126.081798 
L 482.902194 -123.772992 
L 485.030136 -121.464185 
L 487.087412 -119.155379 
L 489.01553 -116.846573 
L 490.752078 -114.537767 
L 492.233265 -112.228961 
L 493.39689 -109.920155 
L 494.185567 -107.611348 
L 494.55 -105.302542 
L 494.452073 -102.993736 
L 493.867496 -100.68493 
L 492.787792 -98.376124 
L 491.221427 -96.067317 
L 489.193952 -93.758511 
L 486.747123 -91.449705 
L 483.937028 -89.140899 
L 480.831359 -86.832093 
L 477.50601 -84.523287 
L 474.041287 -82.21448 
L 470.517983 -79.905674 
L 467.013629 -77.596868 
L 463.599161 -75.288062 
L 460.336225 -72.979256 
L 457.275247 -70.670449 
L 454.454343 -68.361643 
L 451.899057 -66.052837 
L 449.622842 -63.744031 
L 447.628167 -61.435225 
L 445.908082 -59.126419 
L 444.448066 -56.817612 
L 443.227986 -54.508806 
L 442.224016 -52.2 
z
" style="stroke: #3d3d3d; stroke-width: 1.25"/>
    </defs>
    <g clip-path="url(#p15751db376)">
     <use xlink:href="#m6e3dbe7e3c" x="0" y="360" style="fill: #3a923a; stroke: #3d3d3d; stroke-width: 1.25"/>
    </g>
   </g>
   <g id="FillBetweenPolyCollection_4">
    <defs>
     <path id="m7d589d092f" d="M 579.285402 -65.001768 
L 577.214598 -65.001768 
L 576.759831 -66.902671 
L 576.142857 -68.803574 
L 575.32266 -70.704476 
L 574.25457 -72.605379 
L 572.892539 -74.506282 
L 571.192404 -76.407184 
L 569.116049 -78.308087 
L 566.636262 -80.20899 
L 563.741895 -82.109892 
L 560.442778 -84.010795 
L 556.77373 -85.911698 
L 552.796977 -87.8126 
L 548.602354 -89.713503 
L 544.304871 -91.614406 
L 540.039488 -93.515308 
L 535.953344 -95.416211 
L 532.196032 -97.317114 
L 528.908856 -99.218017 
L 526.214231 -101.118919 
L 524.206433 -103.019822 
L 522.944774 -104.920725 
L 522.45 -106.821627 
L 522.704272 -108.72253 
L 523.6546 -110.623433 
L 525.219174 -112.524335 
L 527.295664 -114.425238 
L 529.770382 -116.326141 
L 532.527181 -118.227043 
L 535.455136 -120.127946 
L 538.454343 -122.028849 
L 541.43953 -123.929751 
L 544.341529 -125.830654 
L 547.106968 -127.731557 
L 549.696695 -129.632459 
L 552.08357 -131.533362 
L 554.250144 -133.434265 
L 556.186669 -135.335167 
L 557.889654 -137.23607 
L 559.361029 -139.136973 
L 560.607811 -141.037875 
L 561.642058 -142.938778 
L 562.480882 -144.839681 
L 563.146292 -146.740583 
L 563.664717 -148.641486 
L 564.066126 -150.542389 
L 564.382761 -152.443291 
L 564.647581 -154.344194 
L 564.892522 -156.245097 
L 565.146774 -158.145999 
L 565.435196 -160.046902 
L 565.777044 -161.947805 
L 566.185106 -163.848708 
L 566.665314 -165.74961 
L 567.216873 -167.650513 
L 567.832857 -169.551416 
L 568.50124 -171.452318 
L 569.206219 -173.353221 
L 569.929732 -175.254124 
L 570.652992 -177.155026 
L 571.357908 -179.055929 
L 572.028265 -180.956832 
L 572.650566 -182.857734 
L 573.214499 -184.758637 
L 573.713038 -186.65954 
L 574.142222 -188.560442 
L 574.500728 -190.461345 
L 574.789319 -192.362248 
L 575.01031 -194.26315 
L 575.167124 -196.164053 
L 575.264001 -198.064956 
L 575.305895 -199.965858 
L 575.298513 -201.866761 
L 575.248463 -203.767664 
L 575.163419 -205.668566 
L 575.052229 -207.569469 
L 574.9249 -209.470372 
L 574.792395 -211.371274 
L 574.666247 -213.272177 
L 574.557999 -215.17308 
L 574.478513 -217.073982 
L 574.43724 -218.974885 
L 574.441521 -220.875788 
L 574.496021 -222.77669 
L 574.602358 -224.677593 
L 574.758989 -226.578496 
L 574.961366 -228.479399 
L 575.202351 -230.380301 
L 575.472842 -232.281204 
L 575.762539 -234.182107 
L 576.060776 -236.083009 
L 576.357301 -237.983912 
L 576.642968 -239.884815 
L 576.910239 -241.785717 
L 577.153502 -243.68662 
L 577.369166 -245.587523 
L 577.555582 -247.488425 
L 577.712807 -249.389328 
L 577.842273 -251.290231 
L 577.946406 -253.191133 
L 578.553594 -253.191133 
L 578.553594 -253.191133 
L 578.657727 -251.290231 
L 578.787193 -249.389328 
L 578.944418 -247.488425 
L 579.130834 -245.587523 
L 579.346498 -243.68662 
L 579.589761 -241.785717 
L 579.857032 -239.884815 
L 580.142699 -237.983912 
L 580.439224 -236.083009 
L 580.737461 -234.182107 
L 581.027158 -232.281204 
L 581.297649 -230.380301 
L 581.538634 -228.479399 
L 581.741011 -226.578496 
L 581.897642 -224.677593 
L 582.003979 -222.77669 
L 582.058479 -220.875788 
L 582.06276 -218.974885 
L 582.021487 -217.073982 
L 581.942001 -215.17308 
L 581.833753 -213.272177 
L 581.707605 -211.371274 
L 581.5751 -209.470372 
L 581.447771 -207.569469 
L 581.336581 -205.668566 
L 581.251537 -203.767664 
L 581.201487 -201.866761 
L 581.194105 -199.965858 
L 581.235999 -198.064956 
L 581.332876 -196.164053 
L 581.48969 -194.26315 
L 581.710681 -192.362248 
L 581.999272 -190.461345 
L 582.357778 -188.560442 
L 582.786962 -186.65954 
L 583.285501 -184.758637 
L 583.849434 -182.857734 
L 584.471735 -180.956832 
L 585.142092 -179.055929 
L 585.847008 -177.155026 
L 586.570268 -175.254124 
L 587.293781 -173.353221 
L 587.99876 -171.452318 
L 588.667143 -169.551416 
L 589.283127 -167.650513 
L 589.834686 -165.74961 
L 590.314894 -163.848708 
L 590.722956 -161.947805 
L 591.064804 -160.046902 
L 591.353226 -158.145999 
L 591.607478 -156.245097 
L 591.852419 -154.344194 
L 592.117239 -152.443291 
L 592.433874 -150.542389 
L 592.835283 -148.641486 
L 593.353708 -146.740583 
L 594.019118 -144.839681 
L 594.857942 -142.938778 
L 595.892189 -141.037875 
L 597.138971 -139.136973 
L 598.610346 -137.23607 
L 600.313331 -135.335167 
L 602.249856 -133.434265 
L 604.41643 -131.533362 
L 606.803305 -129.632459 
L 609.393032 -127.731557 
L 612.158471 -125.830654 
L 615.06047 -123.929751 
L 618.045657 -122.028849 
L 621.044864 -120.127946 
L 623.972819 -118.227043 
L 626.729618 -116.326141 
L 629.204336 -114.425238 
L 631.280826 -112.524335 
L 632.8454 -110.623433 
L 633.795728 -108.72253 
L 634.05 -106.821627 
L 633.555226 -104.920725 
L 632.293567 -103.019822 
L 630.285769 -101.118919 
L 627.591144 -99.218017 
L 624.303968 -97.317114 
L 620.546656 -95.416211 
L 616.460512 -93.515308 
L 612.195129 -91.614406 
L 607.897646 -89.713503 
L 603.703023 -87.8126 
L 599.72627 -85.911698 
L 596.057222 -84.010795 
L 592.758105 -82.109892 
L 589.863738 -80.20899 
L 587.383951 -78.308087 
L 585.307596 -76.407184 
L 583.607461 -74.506282 
L 582.24543 -72.605379 
L 581.17734 -70.704476 
L 580.357143 -68.803574 
L 579.740169 -66.902671 
L 579.285402 -65.001768 
z
" style="stroke: #3d3d3d; stroke-width: 1.25"/>
    </defs>
    <g clip-path="url(#p15751db376)">
     <use xlink:href="#m7d589d092f" x="0" y="360" style="fill: #c03d3e; stroke: #3d3d3d; stroke-width: 1.25"/>
    </g>
   </g>
   <g id="matplotlib.axis_1">
    <g id="xtick_1">
     <g id="line2d_1">
      <defs>
       <path id="mbc5602ce1d" d="M 0 0 
L 0 3.5 
" style="stroke: #000000; stroke-width: 0.8"/>
      </defs>
      <g>
       <use xlink:href="#mbc5602ce1d" x="159.75" y="320.4" style="stroke: #000000; stroke-width: 0.8"/>
      </g>
     </g>
     <g id="text_1">
      <!-- No -->
      <g transform="translate(152.95 334.998438) scale(0.1 -0.1)">
       <defs>
        <path id="DejaVuSans-4e" d="M 628 4666 
L 1478 4666 
L 3547 763 
L 3547 4666 
L 4159 4666 
L 4159 0 
L 3309 0 
L 1241 3903 
L 1241 0 
L 628 0 
L 628 4666 
z
" transform="scale(0.015625)"/>
        <path id="DejaVuSans-6f" d="M 1959 3097 
Q 1497 3097 1228 2736 
Q 959 2375 959 1747 
Q 959 1119 1226 758 
Q 1494 397 1959 397 
Q 2419 397 2687 759 
Q 2956 1122 2956 1747 
Q 2956 2369 2687 2733 
Q 2419 3097 1959 3097 
z
M 1959 3584 
Q 2709 3584 3137 3096 
Q 3566 2609 3566 1747 
Q 3566 888 3137 398 
Q 2709 -91 1959 -91 
Q 1206 -91 779 398 
Q 353 888 353 1747 
Q 353 2609 779 3096 
Q 1206 3584 1959 3584 
z
" transform="scale(0.015625)"/>
       </defs>
       <use xlink:href="#DejaVuSans-4e"/>
       <use xlink:href="#DejaVuSans-6f" transform="translate(74.804688 0)"/>
      </g>
     </g>
    </g>
    <g id="xtick_2">
     <g id="line2d_2">
      <g>
       <use xlink:href="#mbc5602ce1d" x="299.25" y="320.4" style="stroke: #000000; stroke-width: 0.8"/>
      </g>
     </g>
     <g id="text_2">
      <!-- Specific -->
      <g transform="translate(279.788281 334.998438) scale(0.1 -0.1)">
       <defs>
        <path id="DejaVuSans-53" d="M 3425 4513 
L 3425 3897 
Q 3066 4069 2747 4153 
Q 2428 4238 2131 4238 
Q 1616 4238 1336 4038 
Q 1056 3838 1056 3469 
Q 1056 3159 1242 3001 
Q 1428 2844 1947 2747 
L 2328 2669 
Q 3034 2534 3370 2195 
Q 3706 1856 3706 1288 
Q 3706 609 3251 259 
Q 2797 -91 1919 -91 
Q 1588 -91 1214 -16 
Q 841 59 441 206 
L 441 856 
Q 825 641 1194 531 
Q 1563 422 1919 422 
Q 2459 422 2753 634 
Q 3047 847 3047 1241 
Q 3047 1584 2836 1778 
Q 2625 1972 2144 2069 
L 1759 2144 
Q 1053 2284 737 2584 
Q 422 2884 422 3419 
Q 422 4038 858 4394 
Q 1294 4750 2059 4750 
Q 2388 4750 2728 4690 
Q 3069 4631 3425 4513 
z
" transform="scale(0.015625)"/>
        <path id="DejaVuSans-70" d="M 1159 525 
L 1159 -1331 
L 581 -1331 
L 581 3500 
L 1159 3500 
L 1159 2969 
Q 1341 3281 1617 3432 
Q 1894 3584 2278 3584 
Q 2916 3584 3314 3078 
Q 3713 2572 3713 1747 
Q 3713 922 3314 415 
Q 2916 -91 2278 -91 
Q 1894 -91 1617 61 
Q 1341 213 1159 525 
z
M 3116 1747 
Q 3116 2381 2855 2742 
Q 2594 3103 2138 3103 
Q 1681 3103 1420 2742 
Q 1159 2381 1159 1747 
Q 1159 1113 1420 752 
Q 1681 391 2138 391 
Q 2594 391 2855 752 
Q 3116 1113 3116 1747 
z
" transform="scale(0.015625)"/>
        <path id="DejaVuSans-65" d="M 3597 1894 
L 3597 1613 
L 953 1613 
Q 991 1019 1311 708 
Q 1631 397 2203 397 
Q 2534 397 2845 478 
Q 3156 559 3463 722 
L 3463 178 
Q 3153 47 2828 -22 
Q 2503 -91 2169 -91 
Q 1331 -91 842 396 
Q 353 884 353 1716 
Q 353 2575 817 3079 
Q 1281 3584 2069 3584 
Q 2775 3584 3186 3129 
Q 3597 2675 3597 1894 
z
M 3022 2063 
Q 3016 2534 2758 2815 
Q 2500 3097 2075 3097 
Q 1594 3097 1305 2825 
Q 1016 2553 972 2059 
L 3022 2063 
z
" transform="scale(0.015625)"/>
        <path id="DejaVuSans-63" d="M 3122 3366 
L 3122 2828 
Q 2878 2963 2633 3030 
Q 2388 3097 2138 3097 
Q 1578 3097 1268 2742 
Q 959 2388 959 1747 
Q 959 1106 1268 751 
Q 1578 397 2138 397 
Q 2388 397 2633 464 
Q 2878 531 3122 666 
L 3122 134 
Q 2881 22 2623 -34 
Q 2366 -91 2075 -91 
Q 1284 -91 818 406 
Q 353 903 353 1747 
Q 353 2603 823 3093 
Q 1294 3584 2113 3584 
Q 2378 3584 2631 3529 
Q 2884 3475 3122 3366 
z
" transform="scale(0.015625)"/>
        <path id="DejaVuSans-69" d="M 603 3500 
L 1178 3500 
L 1178 0 
L 603 0 
L 603 3500 
z
M 603 4863 
L 1178 4863 
L 1178 4134 
L 603 4134 
L 603 4863 
z
" transform="scale(0.015625)"/>
        <path id="DejaVuSans-66" d="M 2375 4863 
L 2375 4384 
L 1825 4384 
Q 1516 4384 1395 4259 
Q 1275 4134 1275 3809 
L 1275 3500 
L 2222 3500 
L 2222 3053 
L 1275 3053 
L 1275 0 
L 697 0 
L 697 3053 
L 147 3053 
L 147 3500 
L 697 3500 
L 697 3744 
Q 697 4328 969 4595 
Q 1241 4863 1831 4863 
L 2375 4863 
z
" transform="scale(0.015625)"/>
       </defs>
       <use xlink:href="#DejaVuSans-53"/>
       <use xlink:href="#DejaVuSans-70" transform="translate(63.476562 0)"/>
       <use xlink:href="#DejaVuSans-65" transform="translate(126.953125 0)"/>
       <use xlink:href="#DejaVuSans-63" transform="translate(188.476562 0)"/>
       <use xlink:href="#DejaVuSans-69" transform="translate(243.457031 0)"/>
       <use xlink:href="#DejaVuSans-66" transform="translate(271.240234 0)"/>
       <use xlink:href="#DejaVuSans-69" transform="translate(306.445312 0)"/>
       <use xlink:href="#DejaVuSans-63" transform="translate(334.228516 0)"/>
      </g>
     </g>
    </g>
    <g id="xtick_3">
     <g id="line2d_3">
      <g>
       <use xlink:href="#mbc5602ce1d" x="438.75" y="320.4" style="stroke: #000000; stroke-width: 0.8"/>
      </g>
     </g>
     <g id="text_3">
      <!-- Spurious -->
      <g transform="translate(416.955469 334.998438) scale(0.1 -0.1)">
       <defs>
        <path id="DejaVuSans-75" d="M 544 1381 
L 544 3500 
L 1119 3500 
L 1119 1403 
Q 1119 906 1312 657 
Q 1506 409 1894 409 
Q 2359 409 2629 706 
Q 2900 1003 2900 1516 
L 2900 3500 
L 3475 3500 
L 3475 0 
L 2900 0 
L 2900 538 
Q 2691 219 2414 64 
Q 2138 -91 1772 -91 
Q 1169 -91 856 284 
Q 544 659 544 1381 
z
M 1991 3584 
L 1991 3584 
z
" transform="scale(0.015625)"/>
        <path id="DejaVuSans-72" d="M 2631 2963 
Q 2534 3019 2420 3045 
Q 2306 3072 2169 3072 
Q 1681 3072 1420 2755 
Q 1159 2438 1159 1844 
L 1159 0 
L 581 0 
L 581 3500 
L 1159 3500 
L 1159 2956 
Q 1341 3275 1631 3429 
Q 1922 3584 2338 3584 
Q 2397 3584 2469 3576 
Q 2541 3569 2628 3553 
L 2631 2963 
z
" transform="scale(0.015625)"/>
        <path id="DejaVuSans-73" d="M 2834 3397 
L 2834 2853 
Q 2591 2978 2328 3040 
Q 2066 3103 1784 3103 
Q 1356 3103 1142 2972 
Q 928 2841 928 2578 
Q 928 2378 1081 2264 
Q 1234 2150 1697 2047 
L 1894 2003 
Q 2506 1872 2764 1633 
Q 3022 1394 3022 966 
Q 3022 478 2636 193 
Q 2250 -91 1575 -91 
Q 1294 -91 989 -36 
Q 684 19 347 128 
L 347 722 
Q 666 556 975 473 
Q 1284 391 1588 391 
Q 1994 391 2212 530 
Q 2431 669 2431 922 
Q 2431 1156 2273 1281 
Q 2116 1406 1581 1522 
L 1381 1569 
Q 847 1681 609 1914 
Q 372 2147 372 2553 
Q 372 3047 722 3315 
Q 1072 3584 1716 3584 
Q 2034 3584 2315 3537 
Q 2597 3491 2834 3397 
z
" transform="scale(0.015625)"/>
       </defs>
       <use xlink:href="#DejaVuSans-53"/>
       <use xlink:href="#DejaVuSans-70" transform="translate(63.476562 0)"/>
       <use xlink:href="#DejaVuSans-75" transform="translate(126.953125 0)"/>
       <use xlink:href="#DejaVuSans-72" transform="translate(190.332031 0)"/>
       <use xlink:href="#DejaVuSans-69" transform="translate(231.445312 0)"/>
       <use xlink:href="#DejaVuSans-6f" transform="translate(259.228516 0)"/>
       <use xlink:href="#DejaVuSans-75" transform="translate(320.410156 0)"/>
       <use xlink:href="#DejaVuSans-73" transform="translate(383.789062 0)"/>
      </g>
     </g>
    </g>
    <g id="xtick_4">
     <g id="line2d_4">
      <g>
       <use xlink:href="#mbc5602ce1d" x="578.25" y="320.4" style="stroke: #000000; stroke-width: 0.8"/>
      </g>
     </g>
     <g id="text_4">
      <!-- Non-specific -->
      <g transform="translate(547.585156 334.998438) scale(0.1 -0.1)">
       <defs>
        <path id="DejaVuSans-6e" d="M 3513 2113 
L 3513 0 
L 2938 0 
L 2938 2094 
Q 2938 2591 2744 2837 
Q 2550 3084 2163 3084 
Q 1697 3084 1428 2787 
Q 1159 2491 1159 1978 
L 1159 0 
L 581 0 
L 581 3500 
L 1159 3500 
L 1159 2956 
Q 1366 3272 1645 3428 
Q 1925 3584 2291 3584 
Q 2894 3584 3203 3211 
Q 3513 2838 3513 2113 
z
" transform="scale(0.015625)"/>
        <path id="DejaVuSans-2d" d="M 313 2009 
L 1997 2009 
L 1997 1497 
L 313 1497 
L 313 2009 
z
" transform="scale(0.015625)"/>
       </defs>
       <use xlink:href="#DejaVuSans-4e"/>
       <use xlink:href="#DejaVuSans-6f" transform="translate(74.804688 0)"/>
       <use xlink:href="#DejaVuSans-6e" transform="translate(135.986328 0)"/>
       <use xlink:href="#DejaVuSans-2d" transform="translate(199.365234 0)"/>
       <use xlink:href="#DejaVuSans-73" transform="translate(235.449219 0)"/>
       <use xlink:href="#DejaVuSans-70" transform="translate(287.548828 0)"/>
       <use xlink:href="#DejaVuSans-65" transform="translate(351.025391 0)"/>
       <use xlink:href="#DejaVuSans-63" transform="translate(412.548828 0)"/>
       <use xlink:href="#DejaVuSans-69" transform="translate(467.529297 0)"/>
       <use xlink:href="#DejaVuSans-66" transform="translate(495.3125 0)"/>
       <use xlink:href="#DejaVuSans-69" transform="translate(530.517578 0)"/>
       <use xlink:href="#DejaVuSans-63" transform="translate(558.300781 0)"/>
      </g>
     </g>
    </g>
    <g id="text_5">
     <!-- Connectivity category -->
     <g transform="translate(313.98125 348.676562) scale(0.1 -0.1)">
      <defs>
       <path id="DejaVuSans-43" d="M 4122 4306 
L 4122 3641 
Q 3803 3938 3442 4084 
Q 3081 4231 2675 4231 
Q 1875 4231 1450 3742 
Q 1025 3253 1025 2328 
Q 1025 1406 1450 917 
Q 1875 428 2675 428 
Q 3081 428 3442 575 
Q 3803 722 4122 1019 
L 4122 359 
Q 3791 134 3420 21 
Q 3050 -91 2638 -91 
Q 1578 -91 968 557 
Q 359 1206 359 2328 
Q 359 3453 968 4101 
Q 1578 4750 2638 4750 
Q 3056 4750 3426 4639 
Q 3797 4528 4122 4306 
z
" transform="scale(0.015625)"/>
       <path id="DejaVuSans-74" d="M 1172 4494 
L 1172 3500 
L 2356 3500 
L 2356 3053 
L 1172 3053 
L 1172 1153 
Q 1172 725 1289 603 
Q 1406 481 1766 481 
L 2356 481 
L 2356 0 
L 1766 0 
Q 1100 0 847 248 
Q 594 497 594 1153 
L 594 3053 
L 172 3053 
L 172 3500 
L 594 3500 
L 594 4494 
L 1172 4494 
z
" transform="scale(0.015625)"/>
       <path id="DejaVuSans-76" d="M 191 3500 
L 800 3500 
L 1894 563 
L 2988 3500 
L 3597 3500 
L 2284 0 
L 1503 0 
L 191 3500 
z
" transform="scale(0.015625)"/>
       <path id="DejaVuSans-79" d="M 2059 -325 
Q 1816 -950 1584 -1140 
Q 1353 -1331 966 -1331 
L 506 -1331 
L 506 -850 
L 844 -850 
Q 1081 -850 1212 -737 
Q 1344 -625 1503 -206 
L 1606 56 
L 191 3500 
L 800 3500 
L 1894 763 
L 2988 3500 
L 3597 3500 
L 2059 -325 
z
" transform="scale(0.015625)"/>
       <path id="DejaVuSans-20" transform="scale(0.015625)"/>
       <path id="DejaVuSans-61" d="M 2194 1759 
Q 1497 1759 1228 1600 
Q 959 1441 959 1056 
Q 959 750 1161 570 
Q 1363 391 1709 391 
Q 2188 391 2477 730 
Q 2766 1069 2766 1631 
L 2766 1759 
L 2194 1759 
z
M 3341 1997 
L 3341 0 
L 2766 0 
L 2766 531 
Q 2569 213 2275 61 
Q 1981 -91 1556 -91 
Q 1019 -91 701 211 
Q 384 513 384 1019 
Q 384 1609 779 1909 
Q 1175 2209 1959 2209 
L 2766 2209 
L 2766 2266 
Q 2766 2663 2505 2880 
Q 2244 3097 1772 3097 
Q 1472 3097 1187 3025 
Q 903 2953 641 2809 
L 641 3341 
Q 956 3463 1253 3523 
Q 1550 3584 1831 3584 
Q 2591 3584 2966 3190 
Q 3341 2797 3341 1997 
z
" transform="scale(0.015625)"/>
       <path id="DejaVuSans-67" d="M 2906 1791 
Q 2906 2416 2648 2759 
Q 2391 3103 1925 3103 
Q 1463 3103 1205 2759 
Q 947 2416 947 1791 
Q 947 1169 1205 825 
Q 1463 481 1925 481 
Q 2391 481 2648 825 
Q 2906 1169 2906 1791 
z
M 3481 434 
Q 3481 -459 3084 -895 
Q 2688 -1331 1869 -1331 
Q 1566 -1331 1297 -1286 
Q 1028 -1241 775 -1147 
L 775 -588 
Q 1028 -725 1275 -790 
Q 1522 -856 1778 -856 
Q 2344 -856 2625 -561 
Q 2906 -266 2906 331 
L 2906 616 
Q 2728 306 2450 153 
Q 2172 0 1784 0 
Q 1141 0 747 490 
Q 353 981 353 1791 
Q 353 2603 747 3093 
Q 1141 3584 1784 3584 
Q 2172 3584 2450 3431 
Q 2728 3278 2906 2969 
L 2906 3500 
L 3481 3500 
L 3481 434 
z
" transform="scale(0.015625)"/>
      </defs>
      <use xlink:href="#DejaVuSans-43"/>
      <use xlink:href="#DejaVuSans-6f" transform="translate(69.824219 0)"/>
      <use xlink:href="#DejaVuSans-6e" transform="translate(131.005859 0)"/>
      <use xlink:href="#DejaVuSans-6e" transform="translate(194.384766 0)"/>
      <use xlink:href="#DejaVuSans-65" transform="translate(257.763672 0)"/>
      <use xlink:href="#DejaVuSans-63" transform="translate(319.287109 0)"/>
      <use xlink:href="#DejaVuSans-74" transform="translate(374.267578 0)"/>
      <use xlink:href="#DejaVuSans-69" transform="translate(413.476562 0)"/>
      <use xlink:href="#DejaVuSans-76" transform="translate(441.259766 0)"/>
      <use xlink:href="#DejaVuSans-69" transform="translate(500.439453 0)"/>
      <use xlink:href="#DejaVuSans-74" transform="translate(528.222656 0)"/>
      <use xlink:href="#DejaVuSans-79" transform="translate(567.431641 0)"/>
      <use xlink:href="#DejaVuSans-20" transform="translate(626.611328 0)"/>
      <use xlink:href="#DejaVuSans-63" transform="translate(658.398438 0)"/>
      <use xlink:href="#DejaVuSans-61" transform="translate(713.378906 0)"/>
      <use xlink:href="#DejaVuSans-74" transform="translate(774.658203 0)"/>
      <use xlink:href="#DejaVuSans-65" transform="translate(813.867188 0)"/>
      <use xlink:href="#DejaVuSans-67" transform="translate(875.390625 0)"/>
      <use xlink:href="#DejaVuSans-6f" transform="translate(938.867188 0)"/>
      <use xlink:href="#DejaVuSans-72" transform="translate(1000.048828 0)"/>
      <use xlink:href="#DejaVuSans-79" transform="translate(1041.162109 0)"/>
     </g>
    </g>
   </g>
   <g id="matplotlib.axis_2">
    <g id="ytick_1">
     <g id="line2d_5">
      <defs>
       <path id="m0d6eda2818" d="M 0 0 
L -3.5 0 
" style="stroke: #000000; stroke-width: 0.8"/>
      </defs>
      <g>
       <use xlink:href="#m0d6eda2818" x="90" y="312.609579" style="stroke: #000000; stroke-width: 0.8"/>
      </g>
     </g>
     <g id="text_6">
      <!-- −0.5 -->
      <g transform="translate(58.717187 316.408798) scale(0.1 -0.1)">
       <defs>
        <path id="DejaVuSans-2212" d="M 678 2272 
L 4684 2272 
L 4684 1741 
L 678 1741 
L 678 2272 
z
" transform="scale(0.015625)"/>
        <path id="DejaVuSans-30" d="M 2034 4250 
Q 1547 4250 1301 3770 
Q 1056 3291 1056 2328 
Q 1056 1369 1301 889 
Q 1547 409 2034 409 
Q 2525 409 2770 889 
Q 3016 1369 3016 2328 
Q 3016 3291 2770 3770 
Q 2525 4250 2034 4250 
z
M 2034 4750 
Q 2819 4750 3233 4129 
Q 3647 3509 3647 2328 
Q 3647 1150 3233 529 
Q 2819 -91 2034 -91 
Q 1250 -91 836 529 
Q 422 1150 422 2328 
Q 422 3509 836 4129 
Q 1250 4750 2034 4750 
z
" transform="scale(0.015625)"/>
        <path id="DejaVuSans-2e" d="M 684 794 
L 1344 794 
L 1344 0 
L 684 0 
L 684 794 
z
" transform="scale(0.015625)"/>
        <path id="DejaVuSans-35" d="M 691 4666 
L 3169 4666 
L 3169 4134 
L 1269 4134 
L 1269 2991 
Q 1406 3038 1543 3061 
Q 1681 3084 1819 3084 
Q 2600 3084 3056 2656 
Q 3513 2228 3513 1497 
Q 3513 744 3044 326 
Q 2575 -91 1722 -91 
Q 1428 -91 1123 -41 
Q 819 9 494 109 
L 494 744 
Q 775 591 1075 516 
Q 1375 441 1709 441 
Q 2250 441 2565 725 
Q 2881 1009 2881 1497 
Q 2881 1984 2565 2268 
Q 2250 2553 1709 2553 
Q 1456 2553 1204 2497 
Q 953 2441 691 2322 
L 691 4666 
z
" transform="scale(0.015625)"/>
       </defs>
       <use xlink:href="#DejaVuSans-2212"/>
       <use xlink:href="#DejaVuSans-30" transform="translate(83.789062 0)"/>
       <use xlink:href="#DejaVuSans-2e" transform="translate(147.412109 0)"/>
       <use xlink:href="#DejaVuSans-35" transform="translate(179.199219 0)"/>
      </g>
     </g>
    </g>
    <g id="ytick_2">
     <g id="line2d_6">
      <g>
       <use xlink:href="#m0d6eda2818" x="90" y="269.996451" style="stroke: #000000; stroke-width: 0.8"/>
      </g>
     </g>
     <g id="text_7">
      <!-- 0.0 -->
      <g transform="translate(67.096875 273.795669) scale(0.1 -0.1)">
       <use xlink:href="#DejaVuSans-30"/>
       <use xlink:href="#DejaVuSans-2e" transform="translate(63.623047 0)"/>
       <use xlink:href="#DejaVuSans-30" transform="translate(95.410156 0)"/>
      </g>
     </g>
    </g>
    <g id="ytick_3">
     <g id="line2d_7">
      <g>
       <use xlink:href="#m0d6eda2818" x="90" y="227.383323" style="stroke: #000000; stroke-width: 0.8"/>
      </g>
     </g>
     <g id="text_8">
      <!-- 0.5 -->
      <g transform="translate(67.096875 231.182541) scale(0.1 -0.1)">
       <use xlink:href="#DejaVuSans-30"/>
       <use xlink:href="#DejaVuSans-2e" transform="translate(63.623047 0)"/>
       <use xlink:href="#DejaVuSans-35" transform="translate(95.410156 0)"/>
      </g>
     </g>
    </g>
    <g id="ytick_4">
     <g id="line2d_8">
      <g>
       <use xlink:href="#m0d6eda2818" x="90" y="184.770194" style="stroke: #000000; stroke-width: 0.8"/>
      </g>
     </g>
     <g id="text_9">
      <!-- 1.0 -->
      <g transform="translate(67.096875 188.569413) scale(0.1 -0.1)">
       <defs>
        <path id="DejaVuSans-31" d="M 794 531 
L 1825 531 
L 1825 4091 
L 703 3866 
L 703 4441 
L 1819 4666 
L 2450 4666 
L 2450 531 
L 3481 531 
L 3481 0 
L 794 0 
L 794 531 
z
" transform="scale(0.015625)"/>
       </defs>
       <use xlink:href="#DejaVuSans-31"/>
       <use xlink:href="#DejaVuSans-2e" transform="translate(63.623047 0)"/>
       <use xlink:href="#DejaVuSans-30" transform="translate(95.410156 0)"/>
      </g>
     </g>
    </g>
    <g id="ytick_5">
     <g id="line2d_9">
      <g>
       <use xlink:href="#m0d6eda2818" x="90" y="142.157066" style="stroke: #000000; stroke-width: 0.8"/>
      </g>
     </g>
     <g id="text_10">
      <!-- 1.5 -->
      <g transform="translate(67.096875 145.956285) scale(0.1 -0.1)">
       <use xlink:href="#DejaVuSans-31"/>
       <use xlink:href="#DejaVuSans-2e" transform="translate(63.623047 0)"/>
       <use xlink:href="#DejaVuSans-35" transform="translate(95.410156 0)"/>
      </g>
     </g>
    </g>
    <g id="ytick_6">
     <g id="line2d_10">
      <g>
       <use xlink:href="#m0d6eda2818" x="90" y="99.543938" style="stroke: #000000; stroke-width: 0.8"/>
      </g>
     </g>
     <g id="text_11">
      <!-- 2.0 -->
      <g transform="translate(67.096875 103.343157) scale(0.1 -0.1)">
       <defs>
        <path id="DejaVuSans-32" d="M 1228 531 
L 3431 531 
L 3431 0 
L 469 0 
L 469 531 
Q 828 903 1448 1529 
Q 2069 2156 2228 2338 
Q 2531 2678 2651 2914 
Q 2772 3150 2772 3378 
Q 2772 3750 2511 3984 
Q 2250 4219 1831 4219 
Q 1534 4219 1204 4116 
Q 875 4013 500 3803 
L 500 4441 
Q 881 4594 1212 4672 
Q 1544 4750 1819 4750 
Q 2544 4750 2975 4387 
Q 3406 4025 3406 3419 
Q 3406 3131 3298 2873 
Q 3191 2616 2906 2266 
Q 2828 2175 2409 1742 
Q 1991 1309 1228 531 
z
" transform="scale(0.015625)"/>
       </defs>
       <use xlink:href="#DejaVuSans-32"/>
       <use xlink:href="#DejaVuSans-2e" transform="translate(63.623047 0)"/>
       <use xlink:href="#DejaVuSans-30" transform="translate(95.410156 0)"/>
      </g>
     </g>
    </g>
    <g id="ytick_7">
     <g id="line2d_11">
      <g>
       <use xlink:href="#m0d6eda2818" x="90" y="56.93081" style="stroke: #000000; stroke-width: 0.8"/>
      </g>
     </g>
     <g id="text_12">
      <!-- 2.5 -->
      <g transform="translate(67.096875 60.730029) scale(0.1 -0.1)">
       <use xlink:href="#DejaVuSans-32"/>
       <use xlink:href="#DejaVuSans-2e" transform="translate(63.623047 0)"/>
       <use xlink:href="#DejaVuSans-35" transform="translate(95.410156 0)"/>
      </g>
     </g>
    </g>
    <g id="text_13">
     <!-- cont_variable -->
     <g transform="translate(52.359375 215.409375) rotate(-90) scale(0.1 -0.1)">
      <defs>
       <path id="DejaVuSans-5f" d="M 3263 -1063 
L 3263 -1509 
L -63 -1509 
L -63 -1063 
L 3263 -1063 
z
" transform="scale(0.015625)"/>
       <path id="DejaVuSans-62" d="M 3116 1747 
Q 3116 2381 2855 2742 
Q 2594 3103 2138 3103 
Q 1681 3103 1420 2742 
Q 1159 2381 1159 1747 
Q 1159 1113 1420 752 
Q 1681 391 2138 391 
Q 2594 391 2855 752 
Q 3116 1113 3116 1747 
z
M 1159 2969 
Q 1341 3281 1617 3432 
Q 1894 3584 2278 3584 
Q 2916 3584 3314 3078 
Q 3713 2572 3713 1747 
Q 3713 922 3314 415 
Q 2916 -91 2278 -91 
Q 1894 -91 1617 61 
Q 1341 213 1159 525 
L 1159 0 
L 581 0 
L 581 4863 
L 1159 4863 
L 1159 2969 
z
" transform="scale(0.015625)"/>
       <path id="DejaVuSans-6c" d="M 603 4863 
L 1178 4863 
L 1178 0 
L 603 0 
L 603 4863 
z
" transform="scale(0.015625)"/>
      </defs>
      <use xlink:href="#DejaVuSans-63"/>
      <use xlink:href="#DejaVuSans-6f" transform="translate(54.980469 0)"/>
      <use xlink:href="#DejaVuSans-6e" transform="translate(116.162109 0)"/>
      <use xlink:href="#DejaVuSans-74" transform="translate(179.541016 0)"/>
      <use xlink:href="#DejaVuSans-5f" transform="translate(218.75 0)"/>
      <use xlink:href="#DejaVuSans-76" transform="translate(268.75 0)"/>
      <use xlink:href="#DejaVuSans-61" transform="translate(327.929688 0)"/>
      <use xlink:href="#DejaVuSans-72" transform="translate(389.208984 0)"/>
      <use xlink:href="#DejaVuSans-69" transform="translate(430.322266 0)"/>
      <use xlink:href="#DejaVuSans-61" transform="translate(458.105469 0)"/>
      <use xlink:href="#DejaVuSans-62" transform="translate(519.384766 0)"/>
      <use xlink:href="#DejaVuSans-6c" transform="translate(582.861328 0)"/>
      <use xlink:href="#DejaVuSans-65" transform="translate(610.644531 0)"/>
     </g>
    </g>
   </g>
   <g id="patch_3">
    <path d="M 90 320.4 
L 90 43.2 
" style="fill: none; stroke: #000000; stroke-width: 0.8; stroke-linejoin: miter; stroke-linecap: square"/>
   </g>
   <g id="patch_4">
    <path d="M 648 320.4 
L 648 43.2 
" style="fill: none; stroke: #000000; stroke-width: 0.8; stroke-linejoin: miter; stroke-linecap: square"/>
   </g>
   <g id="patch_5">
    <path d="M 90 320.4 
L 648 320.4 
" style="fill: none; stroke: #000000; stroke-width: 0.8; stroke-linejoin: miter; stroke-linecap: square"/>
   </g>
   <g id="patch_6">
    <path d="M 90 43.2 
L 648 43.2 
" style="fill: none; stroke: #000000; stroke-width: 0.8; stroke-linejoin: miter; stroke-linecap: square"/>
   </g>
   <g id="PathCollection_1">
    <defs>
     <path id="m24cf832e66" d="M 0 2.5 
C 0.663008 2.5 1.29895 2.236584 1.767767 1.767767 
C 2.236584 1.29895 2.5 0.663008 2.5 0 
C 2.5 -0.663008 2.236584 -1.29895 1.767767 -1.767767 
C 1.29895 -2.236584 0.663008 -2.5 0 -2.5 
C -0.663008 -2.5 -1.29895 -2.236584 -1.767767 -1.767767 
C -2.236584 -1.29895 -2.5 -0.663008 -2.5 0 
C -2.5 0.663008 -2.236584 1.29895 -1.767767 1.767767 
C -1.29895 2.236584 -0.663008 2.5 0 2.5 
z
"/>
    </defs>
    <g clip-path="url(#p15751db376)">
     <use xlink:href="#m24cf832e66" x="148.411661" y="262.221906" style="fill-opacity: 0.3"/>
     <use xlink:href="#m24cf832e66" x="163.572705" y="261.850446" style="fill-opacity: 0.3"/>
     <use xlink:href="#m24cf832e66" x="164.845298" y="261.738593" style="fill-opacity: 0.3"/>
     <use xlink:href="#m24cf832e66" x="165.192584" y="132.601037" style="fill-opacity: 0.3"/>
     <use xlink:href="#m24cf832e66" x="147.717128" y="246.516275" style="fill-opacity: 0.3"/>
     <use xlink:href="#m24cf832e66" x="148.000386" y="247.996036" style="fill-opacity: 0.3"/>
     <use xlink:href="#m24cf832e66" x="164.696016" y="238.490892" style="fill-opacity: 0.3"/>
     <use xlink:href="#m24cf832e66" x="170.712279" y="265.347592" style="fill-opacity: 0.3"/>
     <use xlink:href="#m24cf832e66" x="171.396945" y="261.26735" style="fill-opacity: 0.3"/>
     <use xlink:href="#m24cf832e66" x="159.179585" y="260.870157" style="fill-opacity: 0.3"/>
     <use xlink:href="#m24cf832e66" x="152.43214" y="246.976743" style="fill-opacity: 0.3"/>
     <use xlink:href="#m24cf832e66" x="163.010032" y="261.418852" style="fill-opacity: 0.3"/>
     <use xlink:href="#m24cf832e66" x="165.696528" y="261.651474" style="fill-opacity: 0.3"/>
     <use xlink:href="#m24cf832e66" x="154.502881" y="267.797868" style="fill-opacity: 0.3"/>
     <use xlink:href="#m24cf832e66" x="164.767599" y="265.126155" style="fill-opacity: 0.3"/>
     <use xlink:href="#m24cf832e66" x="173.071816" y="242.946702" style="fill-opacity: 0.3"/>
     <use xlink:href="#m24cf832e66" x="173.50078" y="166.954967" style="fill-opacity: 0.3"/>
     <use xlink:href="#m24cf832e66" x="153.269234" y="247.085149" style="fill-opacity: 0.3"/>
     <use xlink:href="#m24cf832e66" x="156.97027" y="222.555474" style="fill-opacity: 0.3"/>
     <use xlink:href="#m24cf832e66" x="166.28282" y="233.926344" style="fill-opacity: 0.3"/>
     <use xlink:href="#m24cf832e66" x="172.775707" y="210.372629" style="fill-opacity: 0.3"/>
     <use xlink:href="#m24cf832e66" x="148.780041" y="195.187434" style="fill-opacity: 0.3"/>
     <use xlink:href="#m24cf832e66" x="157.290723" y="253.411664" style="fill-opacity: 0.3"/>
     <use xlink:href="#m24cf832e66" x="165.671199" y="263.523509" style="fill-opacity: 0.3"/>
     <use xlink:href="#m24cf832e66" x="172.198644" y="198.612701" style="fill-opacity: 0.3"/>
     <use xlink:href="#m24cf832e66" x="167.228123" y="250.834519" style="fill-opacity: 0.3"/>
     <use xlink:href="#m24cf832e66" x="169.97715" y="262.719419" style="fill-opacity: 0.3"/>
     <use xlink:href="#m24cf832e66" x="162.661317" y="239.412906" style="fill-opacity: 0.3"/>
     <use xlink:href="#m24cf832e66" x="148.306465" y="251.527703" style="fill-opacity: 0.3"/>
     <use xlink:href="#m24cf832e66" x="156.898461" y="188.043395" style="fill-opacity: 0.3"/>
     <use xlink:href="#m24cf832e66" x="162.120992" y="200.197331" style="fill-opacity: 0.3"/>
     <use xlink:href="#m24cf832e66" x="171.12729" y="209.590264" style="fill-opacity: 0.3"/>
     <use xlink:href="#m24cf832e66" x="168.168505" y="237.653774" style="fill-opacity: 0.3"/>
     <use xlink:href="#m24cf832e66" x="145.830689" y="206.835519" style="fill-opacity: 0.3"/>
     <use xlink:href="#m24cf832e66" x="152.467798" y="230.309195" style="fill-opacity: 0.3"/>
    </g>
   </g>
   <g id="PathCollection_2">
    <g clip-path="url(#p15751db376)">
     <use xlink:href="#m24cf832e66" x="310.485206" y="255.391458" style="fill-opacity: 0.3"/>
     <use xlink:href="#m24cf832e66" x="309.536913" y="262.795055" style="fill-opacity: 0.3"/>
     <use xlink:href="#m24cf832e66" x="303.554344" y="259.994662" style="fill-opacity: 0.3"/>
     <use xlink:href="#m24cf832e66" x="290.624343" y="253.062226" style="fill-opacity: 0.3"/>
     <use xlink:href="#m24cf832e66" x="286.237799" y="258.648716" style="fill-opacity: 0.3"/>
     <use xlink:href="#m24cf832e66" x="308.588614" y="262.719826" style="fill-opacity: 0.3"/>
     <use xlink:href="#m24cf832e66" x="307.870763" y="262.927733" style="fill-opacity: 0.3"/>
     <use xlink:href="#m24cf832e66" x="309.516797" y="262.784963" style="fill-opacity: 0.3"/>
     <use xlink:href="#m24cf832e66" x="308.93872" y="262.469151" style="fill-opacity: 0.3"/>
     <use xlink:href="#m24cf832e66" x="298.21254" y="226.711663" style="fill-opacity: 0.3"/>
     <use xlink:href="#m24cf832e66" x="309.544131" y="232.677381" style="fill-opacity: 0.3"/>
     <use xlink:href="#m24cf832e66" x="287.028398" y="249.434171" style="fill-opacity: 0.3"/>
     <use xlink:href="#m24cf832e66" x="297.771747" y="228.801082" style="fill-opacity: 0.3"/>
     <use xlink:href="#m24cf832e66" x="286.491823" y="188.353739" style="fill-opacity: 0.3"/>
     <use xlink:href="#m24cf832e66" x="304.098332" y="243.861383" style="fill-opacity: 0.3"/>
     <use xlink:href="#m24cf832e66" x="288.575855" y="250.69829" style="fill-opacity: 0.3"/>
     <use xlink:href="#m24cf832e66" x="300.22159" y="252.883082" style="fill-opacity: 0.3"/>
     <use xlink:href="#m24cf832e66" x="312.666007" y="227.632966" style="fill-opacity: 0.3"/>
     <use xlink:href="#m24cf832e66" x="305.543124" y="238.672649" style="fill-opacity: 0.3"/>
     <use xlink:href="#m24cf832e66" x="312.573114" y="247.514136" style="fill-opacity: 0.3"/>
     <use xlink:href="#m24cf832e66" x="312.503509" y="229.500554" style="fill-opacity: 0.3"/>
     <use xlink:href="#m24cf832e66" x="289.860579" y="243.050714" style="fill-opacity: 0.3"/>
     <use xlink:href="#m24cf832e66" x="296.251226" y="257.560524" style="fill-opacity: 0.3"/>
     <use xlink:href="#m24cf832e66" x="307.819494" y="259.588959" style="fill-opacity: 0.3"/>
     <use xlink:href="#m24cf832e66" x="298.414858" y="254.378079" style="fill-opacity: 0.3"/>
     <use xlink:href="#m24cf832e66" x="292.999785" y="259.289838" style="fill-opacity: 0.3"/>
     <use xlink:href="#m24cf832e66" x="304.775442" y="262.973764" style="fill-opacity: 0.3"/>
     <use xlink:href="#m24cf832e66" x="311.585621" y="259.736921" style="fill-opacity: 0.3"/>
     <use xlink:href="#m24cf832e66" x="294.738717" y="247.417756" style="fill-opacity: 0.3"/>
     <use xlink:href="#m24cf832e66" x="292.712606" y="255.307196" style="fill-opacity: 0.3"/>
     <use xlink:href="#m24cf832e66" x="309.147304" y="263.741294" style="fill-opacity: 0.3"/>
     <use xlink:href="#m24cf832e66" x="285.514299" y="256.982329" style="fill-opacity: 0.3"/>
     <use xlink:href="#m24cf832e66" x="294.640453" y="265.241937" style="fill-opacity: 0.3"/>
     <use xlink:href="#m24cf832e66" x="312.399768" y="259.620213" style="fill-opacity: 0.3"/>
     <use xlink:href="#m24cf832e66" x="292.589981" y="191.657929" style="fill-opacity: 0.3"/>
     <use xlink:href="#m24cf832e66" x="300.084438" y="267.265923" style="fill-opacity: 0.3"/>
     <use xlink:href="#m24cf832e66" x="289.685509" y="233.139496" style="fill-opacity: 0.3"/>
     <use xlink:href="#m24cf832e66" x="304.037916" y="256.776063" style="fill-opacity: 0.3"/>
     <use xlink:href="#m24cf832e66" x="285.483536" y="259.472051" style="fill-opacity: 0.3"/>
     <use xlink:href="#m24cf832e66" x="289.920307" y="257.764103" style="fill-opacity: 0.3"/>
     <use xlink:href="#m24cf832e66" x="298.939076" y="257.893375" style="fill-opacity: 0.3"/>
     <use xlink:href="#m24cf832e66" x="302.755336" y="258.31498" style="fill-opacity: 0.3"/>
     <use xlink:href="#m24cf832e66" x="295.383544" y="249.870447" style="fill-opacity: 0.3"/>
     <use xlink:href="#m24cf832e66" x="294.391331" y="260.338288" style="fill-opacity: 0.3"/>
     <use xlink:href="#m24cf832e66" x="296.296592" y="257.515898" style="fill-opacity: 0.3"/>
     <use xlink:href="#m24cf832e66" x="289.894318" y="259.422398" style="fill-opacity: 0.3"/>
     <use xlink:href="#m24cf832e66" x="305.902478" y="261.118595" style="fill-opacity: 0.3"/>
     <use xlink:href="#m24cf832e66" x="296.156715" y="260.632952" style="fill-opacity: 0.3"/>
     <use xlink:href="#m24cf832e66" x="286.19028" y="264.399821" style="fill-opacity: 0.3"/>
     <use xlink:href="#m24cf832e66" x="297.305097" y="262.21616" style="fill-opacity: 0.3"/>
     <use xlink:href="#m24cf832e66" x="303.428134" y="263.637703" style="fill-opacity: 0.3"/>
     <use xlink:href="#m24cf832e66" x="290.31234" y="260.645928" style="fill-opacity: 0.3"/>
     <use xlink:href="#m24cf832e66" x="307.297039" y="224.967003" style="fill-opacity: 0.3"/>
     <use xlink:href="#m24cf832e66" x="307.341128" y="81.898803" style="fill-opacity: 0.3"/>
     <use xlink:href="#m24cf832e66" x="297.595248" y="249.795702" style="fill-opacity: 0.3"/>
     <use xlink:href="#m24cf832e66" x="306.813574" y="260.771553" style="fill-opacity: 0.3"/>
     <use xlink:href="#m24cf832e66" x="297.749983" y="256.674077" style="fill-opacity: 0.3"/>
     <use xlink:href="#m24cf832e66" x="292.343423" y="256.723749" style="fill-opacity: 0.3"/>
     <use xlink:href="#m24cf832e66" x="296.30677" y="258.979283" style="fill-opacity: 0.3"/>
     <use xlink:href="#m24cf832e66" x="306.975834" y="253.754412" style="fill-opacity: 0.3"/>
     <use xlink:href="#m24cf832e66" x="290.335622" y="172.31153" style="fill-opacity: 0.3"/>
     <use xlink:href="#m24cf832e66" x="289.255815" y="251.179574" style="fill-opacity: 0.3"/>
     <use xlink:href="#m24cf832e66" x="300.703473" y="134.710431" style="fill-opacity: 0.3"/>
     <use xlink:href="#m24cf832e66" x="303.760511" y="251.643657" style="fill-opacity: 0.3"/>
     <use xlink:href="#m24cf832e66" x="307.206871" y="255.701124" style="fill-opacity: 0.3"/>
     <use xlink:href="#m24cf832e66" x="299.354512" y="251.334832" style="fill-opacity: 0.3"/>
     <use xlink:href="#m24cf832e66" x="312.284394" y="178.658071" style="fill-opacity: 0.3"/>
     <use xlink:href="#m24cf832e66" x="285.696333" y="263.09106" style="fill-opacity: 0.3"/>
     <use xlink:href="#m24cf832e66" x="307.664274" y="212.126573" style="fill-opacity: 0.3"/>
     <use xlink:href="#m24cf832e66" x="310.22603" y="191.598119" style="fill-opacity: 0.3"/>
     <use xlink:href="#m24cf832e66" x="311.628952" y="233.307623" style="fill-opacity: 0.3"/>
     <use xlink:href="#m24cf832e66" x="296.969652" y="243.022271" style="fill-opacity: 0.3"/>
     <use xlink:href="#m24cf832e66" x="301.566469" y="223.234427" style="fill-opacity: 0.3"/>
     <use xlink:href="#m24cf832e66" x="288.408568" y="257.738566" style="fill-opacity: 0.3"/>
     <use xlink:href="#m24cf832e66" x="308.909665" y="250.358194" style="fill-opacity: 0.3"/>
     <use xlink:href="#m24cf832e66" x="286.900002" y="197.279904" style="fill-opacity: 0.3"/>
     <use xlink:href="#m24cf832e66" x="290.960257" y="215.761541" style="fill-opacity: 0.3"/>
     <use xlink:href="#m24cf832e66" x="310.972025" y="211.414228" style="fill-opacity: 0.3"/>
     <use xlink:href="#m24cf832e66" x="310.275584" y="214.578442" style="fill-opacity: 0.3"/>
     <use xlink:href="#m24cf832e66" x="309.097671" y="261.269797" style="fill-opacity: 0.3"/>
     <use xlink:href="#m24cf832e66" x="312.674227" y="207.251357" style="fill-opacity: 0.3"/>
     <use xlink:href="#m24cf832e66" x="292.824115" y="203.758351" style="fill-opacity: 0.3"/>
     <use xlink:href="#m24cf832e66" x="289.439667" y="260.239415" style="fill-opacity: 0.3"/>
     <use xlink:href="#m24cf832e66" x="308.981383" y="184.689764" style="fill-opacity: 0.3"/>
     <use xlink:href="#m24cf832e66" x="300.789602" y="181.283422" style="fill-opacity: 0.3"/>
     <use xlink:href="#m24cf832e66" x="311.946898" y="257.897717" style="fill-opacity: 0.3"/>
    </g>
   </g>
   <g id="PathCollection_3">
    <g clip-path="url(#p15751db376)">
     <use xlink:href="#m24cf832e66" x="441.556536" y="190.614402" style="fill-opacity: 0.3"/>
     <use xlink:href="#m24cf832e66" x="435.640133" y="130.564658" style="fill-opacity: 0.3"/>
     <use xlink:href="#m24cf832e66" x="428.94436" y="248.762366" style="fill-opacity: 0.3"/>
     <use xlink:href="#m24cf832e66" x="427.499412" y="234.525742" style="fill-opacity: 0.3"/>
     <use xlink:href="#m24cf832e66" x="446.046254" y="258.311542" style="fill-opacity: 0.3"/>
     <use xlink:href="#m24cf832e66" x="449.302666" y="205.022408" style="fill-opacity: 0.3"/>
     <use xlink:href="#m24cf832e66" x="442.68854" y="172.326698" style="fill-opacity: 0.3"/>
     <use xlink:href="#m24cf832e66" x="437.862225" y="267.810813" style="fill-opacity: 0.3"/>
     <use xlink:href="#m24cf832e66" x="444.080395" y="268.740193" style="fill-opacity: 0.3"/>
     <use xlink:href="#m24cf832e66" x="439.665347" y="268.410647" style="fill-opacity: 0.3"/>
     <use xlink:href="#m24cf832e66" x="445.301835" y="268.027599" style="fill-opacity: 0.3"/>
     <use xlink:href="#m24cf832e66" x="443.419744" y="267.343819" style="fill-opacity: 0.3"/>
     <use xlink:href="#m24cf832e66" x="438.295891" y="267.646992" style="fill-opacity: 0.3"/>
     <use xlink:href="#m24cf832e66" x="445.36048" y="267.996646" style="fill-opacity: 0.3"/>
     <use xlink:href="#m24cf832e66" x="434.935573" y="169.060416" style="fill-opacity: 0.3"/>
     <use xlink:href="#m24cf832e66" x="426.041427" y="176.491734" style="fill-opacity: 0.3"/>
     <use xlink:href="#m24cf832e66" x="448.881408" y="213.075044" style="fill-opacity: 0.3"/>
     <use xlink:href="#m24cf832e66" x="442.73679" y="253.134718" style="fill-opacity: 0.3"/>
     <use xlink:href="#m24cf832e66" x="451.510705" y="248.23056" style="fill-opacity: 0.3"/>
     <use xlink:href="#m24cf832e66" x="428.550332" y="255.77241" style="fill-opacity: 0.3"/>
     <use xlink:href="#m24cf832e66" x="429.297291" y="252.741107" style="fill-opacity: 0.3"/>
     <use xlink:href="#m24cf832e66" x="432.992046" y="252.514416" style="fill-opacity: 0.3"/>
     <use xlink:href="#m24cf832e66" x="433.79324" y="265.780796" style="fill-opacity: 0.3"/>
     <use xlink:href="#m24cf832e66" x="432.745537" y="256.308813" style="fill-opacity: 0.3"/>
     <use xlink:href="#m24cf832e66" x="430.063148" y="266.389771" style="fill-opacity: 0.3"/>
     <use xlink:href="#m24cf832e66" x="440.384116" y="263.363972" style="fill-opacity: 0.3"/>
     <use xlink:href="#m24cf832e66" x="446.683781" y="248.44338" style="fill-opacity: 0.3"/>
     <use xlink:href="#m24cf832e66" x="439.39055" y="263.087015" style="fill-opacity: 0.3"/>
     <use xlink:href="#m24cf832e66" x="446.354645" y="260.022001" style="fill-opacity: 0.3"/>
     <use xlink:href="#m24cf832e66" x="440.094739" y="217.834169" style="fill-opacity: 0.3"/>
     <use xlink:href="#m24cf832e66" x="424.80639" y="235.352537" style="fill-opacity: 0.3"/>
     <use xlink:href="#m24cf832e66" x="451.517344" y="118.287995" style="fill-opacity: 0.3"/>
     <use xlink:href="#m24cf832e66" x="444.313398" y="254.752196" style="fill-opacity: 0.3"/>
     <use xlink:href="#m24cf832e66" x="437.486677" y="149.460799" style="fill-opacity: 0.3"/>
     <use xlink:href="#m24cf832e66" x="426.260286" y="149.165342" style="fill-opacity: 0.3"/>
     <use xlink:href="#m24cf832e66" x="429.780428" y="201.922859" style="fill-opacity: 0.3"/>
     <use xlink:href="#m24cf832e66" x="424.984991" y="236.216523" style="fill-opacity: 0.3"/>
     <use xlink:href="#m24cf832e66" x="428.032658" y="243.977637" style="fill-opacity: 0.3"/>
     <use xlink:href="#m24cf832e66" x="437.118303" y="231.286376" style="fill-opacity: 0.3"/>
     <use xlink:href="#m24cf832e66" x="451.483603" y="205.661995" style="fill-opacity: 0.3"/>
     <use xlink:href="#m24cf832e66" x="426.124513" y="228.552157" style="fill-opacity: 0.3"/>
     <use xlink:href="#m24cf832e66" x="427.253867" y="224.169035" style="fill-opacity: 0.3"/>
     <use xlink:href="#m24cf832e66" x="425.699757" y="261.368286" style="fill-opacity: 0.3"/>
     <use xlink:href="#m24cf832e66" x="442.356167" y="166.97782" style="fill-opacity: 0.3"/>
     <use xlink:href="#m24cf832e66" x="425.323762" y="193.73071" style="fill-opacity: 0.3"/>
    </g>
   </g>
   <g id="PathCollection_4">
    <g clip-path="url(#p15751db376)">
     <use xlink:href="#m24cf832e66" x="575.748464" y="244.698325" style="fill-opacity: 0.3"/>
     <use xlink:href="#m24cf832e66" x="571.666993" y="261.153974" style="fill-opacity: 0.3"/>
     <use xlink:href="#m24cf832e66" x="590.53629" y="264.501175" style="fill-opacity: 0.3"/>
     <use xlink:href="#m24cf832e66" x="577.715374" y="216.22969" style="fill-opacity: 0.3"/>
     <use xlink:href="#m24cf832e66" x="579.473845" y="228.139231" style="fill-opacity: 0.3"/>
     <use xlink:href="#m24cf832e66" x="572.107413" y="206.650063" style="fill-opacity: 0.3"/>
     <use xlink:href="#m24cf832e66" x="589.627855" y="258.690294" style="fill-opacity: 0.3"/>
     <use xlink:href="#m24cf832e66" x="567.677964" y="246.16635" style="fill-opacity: 0.3"/>
     <use xlink:href="#m24cf832e66" x="584.256295" y="249.420846" style="fill-opacity: 0.3"/>
     <use xlink:href="#m24cf832e66" x="577.015811" y="229.556582" style="fill-opacity: 0.3"/>
     <use xlink:href="#m24cf832e66" x="580.663654" y="190.380374" style="fill-opacity: 0.3"/>
     <use xlink:href="#m24cf832e66" x="577.813608" y="234.901273" style="fill-opacity: 0.3"/>
     <use xlink:href="#m24cf832e66" x="579.307983" y="246.614661" style="fill-opacity: 0.3"/>
     <use xlink:href="#m24cf832e66" x="581.20228" y="248.993582" style="fill-opacity: 0.3"/>
     <use xlink:href="#m24cf832e66" x="577.432808" y="236.294851" style="fill-opacity: 0.3"/>
     <use xlink:href="#m24cf832e66" x="581.874807" y="256.214954" style="fill-opacity: 0.3"/>
     <use xlink:href="#m24cf832e66" x="576.830157" y="256.575345" style="fill-opacity: 0.3"/>
     <use xlink:href="#m24cf832e66" x="579.934606" y="258.234711" style="fill-opacity: 0.3"/>
     <use xlink:href="#m24cf832e66" x="572.479524" y="257.200355" style="fill-opacity: 0.3"/>
     <use xlink:href="#m24cf832e66" x="567.843309" y="257.154389" style="fill-opacity: 0.3"/>
     <use xlink:href="#m24cf832e66" x="581.438547" y="246.405429" style="fill-opacity: 0.3"/>
     <use xlink:href="#m24cf832e66" x="574.29638" y="258.828514" style="fill-opacity: 0.3"/>
     <use xlink:href="#m24cf832e66" x="585.556908" y="251.659677" style="fill-opacity: 0.3"/>
     <use xlink:href="#m24cf832e66" x="579.570185" y="257.412332" style="fill-opacity: 0.3"/>
     <use xlink:href="#m24cf832e66" x="577.096728" y="258.09403" style="fill-opacity: 0.3"/>
     <use xlink:href="#m24cf832e66" x="586.718211" y="254.701317" style="fill-opacity: 0.3"/>
     <use xlink:href="#m24cf832e66" x="575.129999" y="258.355786" style="fill-opacity: 0.3"/>
     <use xlink:href="#m24cf832e66" x="582.475739" y="184.021187" style="fill-opacity: 0.3"/>
     <use xlink:href="#m24cf832e66" x="567.468998" y="268.324802" style="fill-opacity: 0.3"/>
     <use xlink:href="#m24cf832e66" x="591.508448" y="233.408366" style="fill-opacity: 0.3"/>
     <use xlink:href="#m24cf832e66" x="585.439768" y="146.615793" style="fill-opacity: 0.3"/>
     <use xlink:href="#m24cf832e66" x="571.554896" y="167.508295" style="fill-opacity: 0.3"/>
     <use xlink:href="#m24cf832e66" x="580.102779" y="225.813166" style="fill-opacity: 0.3"/>
     <use xlink:href="#m24cf832e66" x="569.096659" y="233.039164" style="fill-opacity: 0.3"/>
     <use xlink:href="#m24cf832e66" x="568.393849" y="257.487246" style="fill-opacity: 0.3"/>
     <use xlink:href="#m24cf832e66" x="568.448544" y="248.927744" style="fill-opacity: 0.3"/>
     <use xlink:href="#m24cf832e66" x="587.658456" y="256.509891" style="fill-opacity: 0.3"/>
     <use xlink:href="#m24cf832e66" x="574.311262" y="256.434219" style="fill-opacity: 0.3"/>
     <use xlink:href="#m24cf832e66" x="573.88216" y="253.85239" style="fill-opacity: 0.3"/>
     <use xlink:href="#m24cf832e66" x="588.978328" y="259.869965" style="fill-opacity: 0.3"/>
     <use xlink:href="#m24cf832e66" x="578.492823" y="260.358841" style="fill-opacity: 0.3"/>
     <use xlink:href="#m24cf832e66" x="589.468769" y="242.359827" style="fill-opacity: 0.3"/>
     <use xlink:href="#m24cf832e66" x="565.806146" y="246.087037" style="fill-opacity: 0.3"/>
     <use xlink:href="#m24cf832e66" x="589.12073" y="251.343137" style="fill-opacity: 0.3"/>
     <use xlink:href="#m24cf832e66" x="591.617467" y="259.950434" style="fill-opacity: 0.3"/>
     <use xlink:href="#m24cf832e66" x="585.158272" y="257.982039" style="fill-opacity: 0.3"/>
     <use xlink:href="#m24cf832e66" x="564.379331" y="256.739281" style="fill-opacity: 0.3"/>
     <use xlink:href="#m24cf832e66" x="577.609239" y="258.274529" style="fill-opacity: 0.3"/>
     <use xlink:href="#m24cf832e66" x="570.761032" y="256.130951" style="fill-opacity: 0.3"/>
     <use xlink:href="#m24cf832e66" x="575.181571" y="253.93944" style="fill-opacity: 0.3"/>
     <use xlink:href="#m24cf832e66" x="566.785764" y="252.296878" style="fill-opacity: 0.3"/>
     <use xlink:href="#m24cf832e66" x="569.819092" y="256.145571" style="fill-opacity: 0.3"/>
     <use xlink:href="#m24cf832e66" x="571.697889" y="245.606101" style="fill-opacity: 0.3"/>
     <use xlink:href="#m24cf832e66" x="565.425815" y="136.70664" style="fill-opacity: 0.3"/>
     <use xlink:href="#m24cf832e66" x="568.517002" y="234.333957" style="fill-opacity: 0.3"/>
     <use xlink:href="#m24cf832e66" x="574.589196" y="254.388952" style="fill-opacity: 0.3"/>
     <use xlink:href="#m24cf832e66" x="568.142982" y="207.094318" style="fill-opacity: 0.3"/>
     <use xlink:href="#m24cf832e66" x="576.733105" y="204.549513" style="fill-opacity: 0.3"/>
     <use xlink:href="#m24cf832e66" x="566.589406" y="195.468771" style="fill-opacity: 0.3"/>
     <use xlink:href="#m24cf832e66" x="578.78106" y="198.140494" style="fill-opacity: 0.3"/>
     <use xlink:href="#m24cf832e66" x="564.349402" y="196.122089" style="fill-opacity: 0.3"/>
     <use xlink:href="#m24cf832e66" x="571.504951" y="212.559193" style="fill-opacity: 0.3"/>
     <use xlink:href="#m24cf832e66" x="587.649999" y="227.339389" style="fill-opacity: 0.3"/>
     <use xlink:href="#m24cf832e66" x="583.969617" y="234.055867" style="fill-opacity: 0.3"/>
     <use xlink:href="#m24cf832e66" x="566.214294" y="238.816215" style="fill-opacity: 0.3"/>
     <use xlink:href="#m24cf832e66" x="582.940374" y="258.215591" style="fill-opacity: 0.3"/>
     <use xlink:href="#m24cf832e66" x="582.678678" y="193.190346" style="fill-opacity: 0.3"/>
     <use xlink:href="#m24cf832e66" x="589.984249" y="133.482297" style="fill-opacity: 0.3"/>
    </g>
   </g>
  </g>
 </g>
 <defs>
  <clipPath id="p15751db376">
   <rect x="90" y="43.2" width="558" height="277.2"/>
  </clipPath>
 </defs>
</svg>
