<?xml version="1.0" encoding="utf-8" standalone="no"?>
<!DOCTYPE svg PUBLIC "-//W3C//DTD SVG 1.1//EN"
  "http://www.w3.org/Graphics/SVG/1.1/DTD/svg11.dtd">
<svg xmlns:xlink="http://www.w3.org/1999/xlink" width="720pt" height="360pt" viewBox="0 0 720 360" xmlns="http://www.w3.org/2000/svg" version="1.1">
 <metadata>
  <rdf:RDF xmlns:dc="http://purl.org/dc/elements/1.1/" xmlns:cc="http://creativecommons.org/ns#" xmlns:rdf="http://www.w3.org/1999/02/22-rdf-syntax-ns#">
   <cc:Work>
    <dc:type rdf:resource="http://purl.org/dc/dcmitype/StillImage"/>
    <dc:date>2025-09-09T16:54:22.232341</dc:date>
    <dc:format>image/svg+xml</dc:format>
    <dc:creator>
     <cc:Agent>
      <dc:title>Matplotlib v3.10.3, https://matplotlib.org/</dc:title>
     </cc:Agent>
    </dc:creator>
   </cc:Work>
  </rdf:RDF>
 </metadata>
 <defs>
  <style type="text/css">*{stroke-linejoin: round; stroke-linecap: butt}</style>
 </defs>
 <g id="figure_1">
  <g id="patch_1">
   <path d="M 0 360 
L 720 360 
L 720 0 
L 0 0 
z
" style="fill: #ffffff"/>
  </g>
  <g id="axes_1">
   <g id="patch_2">
    <path d="M 90 320.4 
L 648 320.4 
L 648 43.2 
L 90 43.2 
z
" style="fill: #ffffff"/>
   </g>
   <g id="FillBetweenPolyCollection_1">
    <defs>
     <path id="m6a29bc4163" d="M 160.388298 -92.555635 
L 159.111702 -92.555635 
L 158.845797 -93.451846 
L 158.485801 -94.348057 
L 158.005599 -95.244268 
L 157.374699 -96.140479 
L 156.558599 -97.03669 
L 155.519672 -97.932901 
L 154.218691 -98.829112 
L 152.617057 -99.725323 
L 150.679759 -100.621534 
L 148.379005 -101.517745 
L 145.698315 -102.413956 
L 142.636807 -103.310167 
L 139.213228 -104.206378 
L 135.469252 -105.102589 
L 131.471484 -105.9988 
L 127.311673 -106.895011 
L 123.104748 -107.791222 
L 118.984477 -108.687433 
L 115.096813 -109.583644 
L 111.591298 -110.479855 
L 108.61117 -111.376066 
L 106.283068 -112.272277 
L 104.707337 -113.168488 
L 103.95 -114.064699 
L 104.037271 -114.96091 
L 104.953272 -115.857121 
L 106.641242 -116.753332 
L 109.008122 -117.649543 
L 111.93203 -118.545754 
L 115.271797 -119.441965 
L 118.877563 -120.338176 
L 122.60132 -121.234387 
L 126.306423 -122.130598 
L 129.875231 -123.026809 
L 133.214357 -123.92302 
L 136.257308 -124.819231 
L 138.964609 -125.715442 
L 141.321753 -126.611652 
L 143.335513 -127.507863 
L 145.02923 -128.404074 
L 146.437695 -129.300285 
L 147.602184 -130.196496 
L 148.566064 -131.092707 
L 149.37126 -131.988918 
L 150.055713 -132.885129 
L 150.651829 -133.78134 
L 151.185822 -134.677551 
L 151.677765 -135.573762 
L 152.142157 -136.469973 
L 152.588794 -137.366184 
L 153.023748 -138.262395 
L 153.450325 -139.158606 
L 153.869876 -140.054817 
L 154.282428 -140.951028 
L 154.687092 -141.847239 
L 155.082295 -142.74345 
L 155.46585 -143.639661 
L 155.834936 -144.535872 
L 156.186028 -145.432083 
L 156.51484 -146.328294 
L 156.816325 -147.224505 
L 157.084746 -148.120716 
L 157.313856 -149.016927 
L 157.49718 -149.913138 
L 157.628397 -150.809349 
L 157.701802 -151.70556 
L 157.71283 -152.601771 
L 157.6586 -153.497982 
L 157.538438 -154.394193 
L 157.354341 -155.290404 
L 157.111309 -156.186615 
L 156.817523 -157.082826 
L 156.484285 -157.979037 
L 156.125735 -158.875248 
L 155.758284 -159.771459 
L 155.399821 -160.66767 
L 155.068703 -161.563881 
L 154.782631 -162.460092 
L 154.557483 -163.356303 
L 154.406226 -164.252514 
L 154.338009 -165.148725 
L 154.357545 -166.044936 
L 154.464824 -166.941147 
L 154.655219 -167.837358 
L 154.919943 -168.733569 
L 155.246827 -169.62978 
L 155.621324 -170.525991 
L 156.027629 -171.422202 
L 156.449811 -172.318413 
L 156.872842 -173.214624 
L 157.283448 -174.110834 
L 157.670711 -175.007045 
L 158.026411 -175.903256 
L 158.345107 -176.799467 
L 158.623998 -177.695678 
L 158.862607 -178.591889 
L 159.062347 -179.4881 
L 159.226047 -180.384311 
L 159.357463 -181.280522 
L 160.142537 -181.280522 
L 160.142537 -181.280522 
L 160.273953 -180.384311 
L 160.437653 -179.4881 
L 160.637393 -178.591889 
L 160.876002 -177.695678 
L 161.154893 -176.799467 
L 161.473589 -175.903256 
L 161.829289 -175.007045 
L 162.216552 -174.110834 
L 162.627158 -173.214624 
L 163.050189 -172.318413 
L 163.472371 -171.422202 
L 163.878676 -170.525991 
L 164.253173 -169.62978 
L 164.580057 -168.733569 
L 164.844781 -167.837358 
L 165.035176 -166.941147 
L 165.142455 -166.044936 
L 165.161991 -165.148725 
L 165.093774 -164.252514 
L 164.942517 -163.356303 
L 164.717369 -162.460092 
L 164.431297 -161.563881 
L 164.100179 -160.66767 
L 163.741716 -159.771459 
L 163.374265 -158.875248 
L 163.015715 -157.979037 
L 162.682477 -157.082826 
L 162.388691 -156.186615 
L 162.145659 -155.290404 
L 161.961562 -154.394193 
L 161.8414 -153.497982 
L 161.78717 -152.601771 
L 161.798198 -151.70556 
L 161.871603 -150.809349 
L 162.00282 -149.913138 
L 162.186144 -149.016927 
L 162.415254 -148.120716 
L 162.683675 -147.224505 
L 162.98516 -146.328294 
L 163.313972 -145.432083 
L 163.665064 -144.535872 
L 164.03415 -143.639661 
L 164.417705 -142.74345 
L 164.812908 -141.847239 
L 165.217572 -140.951028 
L 165.630124 -140.054817 
L 166.049675 -139.158606 
L 166.476252 -138.262395 
L 166.911206 -137.366184 
L 167.357843 -136.469973 
L 167.822235 -135.573762 
L 168.314178 -134.677551 
L 168.848171 -133.78134 
L 169.444287 -132.885129 
L 170.12874 -131.988918 
L 170.933936 -131.092707 
L 171.897816 -130.196496 
L 173.062305 -129.300285 
L 174.47077 -128.404074 
L 176.164487 -127.507863 
L 178.178247 -126.611652 
L 180.535391 -125.715442 
L 183.242692 -124.819231 
L 186.285643 -123.92302 
L 189.624769 -123.026809 
L 193.193577 -122.130598 
L 196.89868 -121.234387 
L 200.622437 -120.338176 
L 204.228203 -119.441965 
L 207.56797 -118.545754 
L 210.491878 -117.649543 
L 212.858758 -116.753332 
L 214.546728 -115.857121 
L 215.462729 -114.96091 
L 215.55 -114.064699 
L 214.792663 -113.168488 
L 213.216932 -112.272277 
L 210.88883 -111.376066 
L 207.908702 -110.479855 
L 204.403187 -109.583644 
L 200.515523 -108.687433 
L 196.395252 -107.791222 
L 192.188327 -106.895011 
L 188.028516 -105.9988 
L 184.030748 -105.102589 
L 180.286772 -104.206378 
L 176.863193 -103.310167 
L 173.801685 -102.413956 
L 171.120995 -101.517745 
L 168.820241 -100.621534 
L 166.882943 -99.725323 
L 165.281309 -98.829112 
L 163.980328 -97.932901 
L 162.941401 -97.03669 
L 162.125301 -96.140479 
L 161.494401 -95.244268 
L 161.014199 -94.348057 
L 160.654203 -93.451846 
L 160.388298 -92.555635 
z
" style="stroke: #3d3d3d; stroke-width: 1.25"/>
    </defs>
    <g clip-path="url(#pb7f58eae1c)">
     <use xlink:href="#m6a29bc4163" x="0" y="360" style="fill: #3274a1; stroke: #3d3d3d; stroke-width: 1.25"/>
    </g>
   </g>
   <g id="FillBetweenPolyCollection_2">
    <defs>
     <path id="mde9bd9e719" d="M 299.374512 -68.601658 
L 299.125488 -68.601658 
L 299.044308 -70.284495 
L 298.932891 -71.967332 
L 298.79317 -73.650169 
L 298.633749 -75.333006 
L 298.469026 -77.015843 
L 298.315478 -78.69868 
L 298.186024 -80.381517 
L 298.084617 -82.064354 
L 298.003344 -83.747191 
L 297.922904 -85.430028 
L 297.815126 -87.112865 
L 297.644654 -88.795702 
L 297.367254 -90.478539 
L 296.924221 -92.161376 
L 296.234786 -93.844213 
L 295.18974 -95.52705 
L 293.649494 -97.209887 
L 291.449542 -98.892724 
L 288.416873 -100.575561 
L 284.401823 -102.258398 
L 279.32829 -103.941235 
L 273.258338 -105.624072 
L 266.454933 -107.306909 
L 259.41464 -108.989746 
L 252.839848 -110.672583 
L 247.534848 -112.35542 
L 244.239964 -114.038257 
L 243.45 -115.721094 
L 245.279363 -117.403931 
L 249.424716 -119.086768 
L 255.24053 -120.769605 
L 261.90059 -122.452442 
L 268.589759 -124.135279 
L 274.666393 -125.818116 
L 279.754228 -127.500953 
L 283.751667 -129.18379 
L 286.773076 -130.866627 
L 289.052964 -132.549464 
L 290.847527 -134.232301 
L 292.360991 -135.915138 
L 293.71071 -137.597975 
L 294.930051 -139.280812 
L 295.996643 -140.963649 
L 296.868964 -142.646486 
L 297.516594 -144.329323 
L 297.936408 -146.01216 
L 298.154331 -147.694997 
L 298.217075 -149.377834 
L 298.179684 -151.060671 
L 298.093782 -152.743508 
L 297.999639 -154.426345 
L 297.923372 -156.109182 
L 297.87883 -157.792019 
L 297.872119 -159.474856 
L 297.905942 -161.157693 
L 297.981508 -162.84053 
L 298.097593 -164.523367 
L 298.248337 -166.206204 
L 298.422081 -167.889041 
L 298.602758 -169.571878 
L 298.773499 -171.254715 
L 298.920743 -172.937552 
L 299.036977 -174.620389 
L 299.121179 -176.303226 
L 299.177273 -177.986063 
L 299.211701 -179.6689 
L 299.231197 -181.351737 
L 299.241397 -183.034574 
L 299.246333 -184.717411 
L 299.248544 -186.400248 
L 299.249461 -188.083085 
L 299.249813 -189.765922 
L 299.249936 -191.448759 
L 299.249966 -193.131596 
L 299.24994 -194.814433 
L 299.249826 -196.49727 
L 299.249496 -198.180107 
L 299.248633 -199.862944 
L 299.246544 -201.545781 
L 299.241864 -203.228618 
L 299.232164 -204.911455 
L 299.213591 -206.594292 
L 299.18079 -208.277129 
L 299.127491 -209.959966 
L 299.04807 -211.642803 
L 298.940063 -213.32564 
L 298.807022 -215.008477 
L 298.660439 -216.691314 
L 298.519344 -218.374151 
L 298.406791 -220.056988 
L 298.343861 -221.739825 
L 298.343241 -223.422662 
L 298.405058 -225.105499 
L 298.516839 -226.788336 
L 298.657608 -228.471173 
L 298.804285 -230.15401 
L 298.937721 -231.836847 
L 299.046265 -233.519684 
L 299.126227 -235.202521 
L 299.373773 -235.202521 
L 299.373773 -235.202521 
L 299.453735 -233.519684 
L 299.562279 -231.836847 
L 299.695715 -230.15401 
L 299.842392 -228.471173 
L 299.983161 -226.788336 
L 300.094942 -225.105499 
L 300.156759 -223.422662 
L 300.156139 -221.739825 
L 300.093209 -220.056988 
L 299.980656 -218.374151 
L 299.839561 -216.691314 
L 299.692978 -215.008477 
L 299.559937 -213.32564 
L 299.45193 -211.642803 
L 299.372509 -209.959966 
L 299.31921 -208.277129 
L 299.286409 -206.594292 
L 299.267836 -204.911455 
L 299.258136 -203.228618 
L 299.253456 -201.545781 
L 299.251367 -199.862944 
L 299.250504 -198.180107 
L 299.250174 -196.49727 
L 299.25006 -194.814433 
L 299.250034 -193.131596 
L 299.250064 -191.448759 
L 299.250187 -189.765922 
L 299.250539 -188.083085 
L 299.251456 -186.400248 
L 299.253667 -184.717411 
L 299.258603 -183.034574 
L 299.268803 -181.351737 
L 299.288299 -179.6689 
L 299.322727 -177.986063 
L 299.378821 -176.303226 
L 299.463023 -174.620389 
L 299.579257 -172.937552 
L 299.726501 -171.254715 
L 299.897242 -169.571878 
L 300.077919 -167.889041 
L 300.251663 -166.206204 
L 300.402407 -164.523367 
L 300.518492 -162.84053 
L 300.594058 -161.157693 
L 300.627881 -159.474856 
L 300.62117 -157.792019 
L 300.576628 -156.109182 
L 300.500361 -154.426345 
L 300.406218 -152.743508 
L 300.320316 -151.060671 
L 300.282925 -149.377834 
L 300.345669 -147.694997 
L 300.563592 -146.01216 
L 300.983406 -144.329323 
L 301.631036 -142.646486 
L 302.503357 -140.963649 
L 303.569949 -139.280812 
L 304.78929 -137.597975 
L 306.139009 -135.915138 
L 307.652473 -134.232301 
L 309.447036 -132.549464 
L 311.726924 -130.866627 
L 314.748333 -129.18379 
L 318.745772 -127.500953 
L 323.833607 -125.818116 
L 329.910241 -124.135279 
L 336.59941 -122.452442 
L 343.25947 -120.769605 
L 349.075284 -119.086768 
L 353.220637 -117.403931 
L 355.05 -115.721094 
L 354.260036 -114.038257 
L 350.965152 -112.35542 
L 345.660152 -110.672583 
L 339.08536 -108.989746 
L 332.045067 -107.306909 
L 325.241662 -105.624072 
L 319.17171 -103.941235 
L 314.098177 -102.258398 
L 310.083127 -100.575561 
L 307.050458 -98.892724 
L 304.850506 -97.209887 
L 303.31026 -95.52705 
L 302.265214 -93.844213 
L 301.575779 -92.161376 
L 301.132746 -90.478539 
L 300.855346 -88.795702 
L 300.684874 -87.112865 
L 300.577096 -85.430028 
L 300.496656 -83.747191 
L 300.415383 -82.064354 
L 300.313976 -80.381517 
L 300.184522 -78.69868 
L 300.030974 -77.015843 
L 299.866251 -75.333006 
L 299.70683 -73.650169 
L 299.567109 -71.967332 
L 299.455692 -70.284495 
L 299.374512 -68.601658 
z
" style="stroke: #3d3d3d; stroke-width: 1.25"/>
    </defs>
    <g clip-path="url(#pb7f58eae1c)">
     <use xlink:href="#mde9bd9e719" x="0" y="360" style="fill: #e1812c; stroke: #3d3d3d; stroke-width: 1.25"/>
    </g>
   </g>
   <g id="FillBetweenPolyCollection_3">
    <defs>
     <path id="m815632ead1" d="M 438.963109 -52.2 
L 438.536891 -52.2 
L 438.436593 -54.745455 
L 438.305856 -57.290909 
L 438.142453 -59.836364 
L 437.945716 -62.381818 
L 437.715496 -64.927273 
L 437.449595 -67.472727 
L 437.139449 -70.018182 
L 436.764237 -72.563636 
L 436.284224 -75.109091 
L 435.634741 -77.654545 
L 434.722795 -80.2 
L 433.428549 -82.745455 
L 431.61376 -85.290909 
L 429.138435 -87.836364 
L 425.885502 -90.381818 
L 421.79116 -92.927273 
L 416.876202 -95.472727 
L 411.271545 -98.018182 
L 405.230332 -100.563636 
L 399.119951 -103.109091 
L 393.390686 -105.654545 
L 388.522858 -108.2 
L 384.960258 -110.745455 
L 383.042392 -113.290909 
L 382.95 -115.836364 
L 384.676235 -118.381818 
L 388.030216 -120.927273 
L 392.671883 -123.472727 
L 398.169613 -126.018182 
L 404.067149 -128.563636 
L 409.945503 -131.109091 
L 415.468483 -133.654545 
L 420.406024 -136.2 
L 424.635681 -138.745455 
L 428.127357 -141.290909 
L 430.918783 -143.836364 
L 433.089082 -146.381818 
L 434.735815 -148.927273 
L 435.958282 -151.472727 
L 436.847422 -154.018182 
L 437.481165 -156.563636 
L 437.923419 -159.109091 
L 438.225053 -161.654545 
L 438.425653 -164.2 
L 438.555411 -166.745455 
L 438.636848 -169.290909 
L 438.686325 -171.836364 
L 438.715371 -174.381818 
L 438.731819 -176.927273 
L 438.740794 -179.472727 
L 438.745507 -182.018182 
L 438.747888 -184.563636 
L 438.749044 -187.109091 
L 438.749584 -189.654545 
L 438.749826 -192.2 
L 438.74993 -194.745455 
L 438.749973 -197.290909 
L 438.74999 -199.836364 
L 438.749996 -202.381818 
L 438.749999 -204.927273 
L 438.749999 -207.472727 
L 438.749999 -210.018182 
L 438.749998 -212.563636 
L 438.749994 -215.109091 
L 438.749985 -217.654545 
L 438.749961 -220.2 
L 438.749905 -222.745455 
L 438.749774 -225.290909 
L 438.749486 -227.836364 
L 438.748877 -230.381818 
L 438.747644 -232.927273 
L 438.745249 -235.472727 
L 438.740796 -238.018182 
L 438.73287 -240.563636 
L 438.719371 -243.109091 
L 438.697383 -245.654545 
L 438.663162 -248.2 
L 438.612311 -250.745455 
L 438.540254 -253.290909 
L 438.443034 -255.836364 
L 438.318392 -258.381818 
L 438.166968 -260.927273 
L 437.993345 -263.472727 
L 437.806577 -266.018182 
L 437.619896 -268.563636 
L 437.449431 -271.109091 
L 437.312025 -273.654545 
L 437.222531 -276.2 
L 437.191178 -278.745455 
L 437.221647 -281.290909 
L 437.310359 -283.836364 
L 437.447171 -286.381818 
L 437.617276 -288.927273 
L 437.803842 -291.472727 
L 437.990712 -294.018182 
L 438.164601 -296.563636 
L 438.316388 -299.109091 
L 438.441431 -301.654545 
L 438.539036 -304.2 
L 438.960964 -304.2 
L 438.960964 -304.2 
L 439.058569 -301.654545 
L 439.183612 -299.109091 
L 439.335399 -296.563636 
L 439.509288 -294.018182 
L 439.696158 -291.472727 
L 439.882724 -288.927273 
L 440.052829 -286.381818 
L 440.189641 -283.836364 
L 440.278353 -281.290909 
L 440.308822 -278.745455 
L 440.277469 -276.2 
L 440.187975 -273.654545 
L 440.050569 -271.109091 
L 439.880104 -268.563636 
L 439.693423 -266.018182 
L 439.506655 -263.472727 
L 439.333032 -260.927273 
L 439.181608 -258.381818 
L 439.056966 -255.836364 
L 438.959746 -253.290909 
L 438.887689 -250.745455 
L 438.836838 -248.2 
L 438.802617 -245.654545 
L 438.780629 -243.109091 
L 438.76713 -240.563636 
L 438.759204 -238.018182 
L 438.754751 -235.472727 
L 438.752356 -232.927273 
L 438.751123 -230.381818 
L 438.750514 -227.836364 
L 438.750226 -225.290909 
L 438.750095 -222.745455 
L 438.750039 -220.2 
L 438.750015 -217.654545 
L 438.750006 -215.109091 
L 438.750002 -212.563636 
L 438.750001 -210.018182 
L 438.750001 -207.472727 
L 438.750001 -204.927273 
L 438.750004 -202.381818 
L 438.75001 -199.836364 
L 438.750027 -197.290909 
L 438.75007 -194.745455 
L 438.750174 -192.2 
L 438.750416 -189.654545 
L 438.750956 -187.109091 
L 438.752112 -184.563636 
L 438.754493 -182.018182 
L 438.759206 -179.472727 
L 438.768181 -176.927273 
L 438.784629 -174.381818 
L 438.813675 -171.836364 
L 438.863152 -169.290909 
L 438.944589 -166.745455 
L 439.074347 -164.2 
L 439.274947 -161.654545 
L 439.576581 -159.109091 
L 440.018835 -156.563636 
L 440.652578 -154.018182 
L 441.541718 -151.472727 
L 442.764185 -148.927273 
L 444.410918 -146.381818 
L 446.581217 -143.836364 
L 449.372643 -141.290909 
L 452.864319 -138.745455 
L 457.093976 -136.2 
L 462.031517 -133.654545 
L 467.554497 -131.109091 
L 473.432851 -128.563636 
L 479.330387 -126.018182 
L 484.828117 -123.472727 
L 489.469784 -120.927273 
L 492.823765 -118.381818 
L 494.55 -115.836364 
L 494.457608 -113.290909 
L 492.539742 -110.745455 
L 488.977142 -108.2 
L 484.109314 -105.654545 
L 478.380049 -103.109091 
L 472.269668 -100.563636 
L 466.228455 -98.018182 
L 460.623798 -95.472727 
L 455.70884 -92.927273 
L 451.614498 -90.381818 
L 448.361565 -87.836364 
L 445.88624 -85.290909 
L 444.071451 -82.745455 
L 442.777205 -80.2 
L 441.865259 -77.654545 
L 441.215776 -75.109091 
L 440.735763 -72.563636 
L 440.360551 -70.018182 
L 440.050405 -67.472727 
L 439.784504 -64.927273 
L 439.554284 -62.381818 
L 439.357547 -59.836364 
L 439.194144 -57.290909 
L 439.063407 -54.745455 
L 438.963109 -52.2 
z
" style="stroke: #3d3d3d; stroke-width: 1.25"/>
    </defs>
    <g clip-path="url(#pb7f58eae1c)">
     <use xlink:href="#m815632ead1" x="0" y="360" style="fill: #3a923a; stroke: #3d3d3d; stroke-width: 1.25"/>
    </g>
   </g>
   <g id="FillBetweenPolyCollection_4">
    <defs>
     <path id="m87f9bf9f22" d="M 579.013621 -109.220239 
L 577.486379 -109.220239 
L 577.253683 -109.357969 
L 576.968508 -109.495699 
L 576.624625 -109.633429 
L 576.216456 -109.771159 
L 575.739347 -109.908889 
L 575.189761 -110.046619 
L 574.565341 -110.184349 
L 573.864794 -110.322079 
L 573.087581 -110.459809 
L 572.233406 -110.597538 
L 571.301546 -110.735268 
L 570.290082 -110.872998 
L 569.195136 -111.010728 
L 568.010236 -111.148458 
L 566.72595 -111.286188 
L 565.329912 -111.423918 
L 563.807335 -111.561648 
L 562.142078 -111.699378 
L 560.318232 -111.837108 
L 558.322159 -111.974838 
L 556.144814 -112.112568 
L 553.784131 -112.250298 
L 551.247226 -112.388028 
L 548.552123 -112.525758 
L 545.72878 -112.663488 
L 542.819198 -112.801218 
L 539.876507 -112.938948 
L 536.963022 -113.076678 
L 534.14735 -113.214408 
L 531.500774 -113.352137 
L 529.093185 -113.489867 
L 526.988912 -113.627597 
L 525.242827 -113.765327 
L 523.897065 -113.903057 
L 522.978649 -114.040787 
L 522.498225 -114.178517 
L 522.45 -114.316247 
L 522.81284 -114.453977 
L 523.552406 -114.591707 
L 524.624069 -114.729437 
L 525.97632 -114.867167 
L 527.554348 -115.004897 
L 529.303458 -115.142627 
L 531.172067 -115.280357 
L 533.114089 -115.418087 
L 535.090567 -115.555817 
L 537.07055 -115.693547 
L 539.031242 -115.831277 
L 540.957541 -115.969006 
L 542.841087 -116.106736 
L 544.678996 -116.244466 
L 546.472405 -116.382196 
L 548.224957 -116.519926 
L 549.941348 -116.657656 
L 551.625994 -116.795386 
L 553.281907 -116.933116 
L 554.90981 -117.070846 
L 556.507555 -117.208576 
L 558.069852 -117.346306 
L 559.588344 -117.484036 
L 561.052015 -117.621766 
L 562.447906 -117.759496 
L 563.762076 -117.897226 
L 564.98073 -118.034956 
L 566.09141 -118.172686 
L 567.084121 -118.310416 
L 567.952287 -118.448146 
L 568.693451 -118.585875 
L 569.309629 -118.723605 
L 569.807315 -118.861335 
L 570.19714 -118.999065 
L 570.493225 -119.136795 
L 570.712314 -119.274525 
L 570.872775 -119.412255 
L 570.993551 -119.549985 
L 571.093166 -119.687715 
L 571.188828 -119.825445 
L 571.295694 -119.963175 
L 571.426321 -120.100905 
L 571.590296 -120.238635 
L 571.794056 -120.376365 
L 572.040873 -120.514095 
L 572.330992 -120.651825 
L 572.661896 -120.789555 
L 573.02868 -120.927285 
L 573.424516 -121.065015 
L 573.841172 -121.202745 
L 574.269574 -121.340474 
L 574.700376 -121.478204 
L 575.124487 -121.615934 
L 575.53356 -121.753664 
L 575.920379 -121.891394 
L 576.279143 -122.029124 
L 576.605635 -122.166854 
L 576.897264 -122.304584 
L 577.152997 -122.442314 
L 577.373202 -122.580044 
L 577.559423 -122.717774 
L 577.714106 -122.855504 
L 578.785894 -122.855504 
L 578.785894 -122.855504 
L 578.940577 -122.717774 
L 579.126798 -122.580044 
L 579.347003 -122.442314 
L 579.602736 -122.304584 
L 579.894365 -122.166854 
L 580.220857 -122.029124 
L 580.579621 -121.891394 
L 580.96644 -121.753664 
L 581.375513 -121.615934 
L 581.799624 -121.478204 
L 582.230426 -121.340474 
L 582.658828 -121.202745 
L 583.075484 -121.065015 
L 583.47132 -120.927285 
L 583.838104 -120.789555 
L 584.169008 -120.651825 
L 584.459127 -120.514095 
L 584.705944 -120.376365 
L 584.909704 -120.238635 
L 585.073679 -120.100905 
L 585.204306 -119.963175 
L 585.311172 -119.825445 
L 585.406834 -119.687715 
L 585.506449 -119.549985 
L 585.627225 -119.412255 
L 585.787686 -119.274525 
L 586.006775 -119.136795 
L 586.30286 -118.999065 
L 586.692685 -118.861335 
L 587.190371 -118.723605 
L 587.806549 -118.585875 
L 588.547713 -118.448146 
L 589.415879 -118.310416 
L 590.40859 -118.172686 
L 591.51927 -118.034956 
L 592.737924 -117.897226 
L 594.052094 -117.759496 
L 595.447985 -117.621766 
L 596.911656 -117.484036 
L 598.430148 -117.346306 
L 599.992445 -117.208576 
L 601.59019 -117.070846 
L 603.218093 -116.933116 
L 604.874006 -116.795386 
L 606.558652 -116.657656 
L 608.275043 -116.519926 
L 610.027595 -116.382196 
L 611.821004 -116.244466 
L 613.658913 -116.106736 
L 615.542459 -115.969006 
L 617.468758 -115.831277 
L 619.42945 -115.693547 
L 621.409433 -115.555817 
L 623.385911 -115.418087 
L 625.327933 -115.280357 
L 627.196542 -115.142627 
L 628.945652 -115.004897 
L 630.52368 -114.867167 
L 631.875931 -114.729437 
L 632.947594 -114.591707 
L 633.68716 -114.453977 
L 634.05 -114.316247 
L 634.001775 -114.178517 
L 633.521351 -114.040787 
L 632.602935 -113.903057 
L 631.257173 -113.765327 
L 629.511088 -113.627597 
L 627.406815 -113.489867 
L 624.999226 -113.352137 
L 622.35265 -113.214408 
L 619.536978 -113.076678 
L 616.623493 -112.938948 
L 613.680802 -112.801218 
L 610.77122 -112.663488 
L 607.947877 -112.525758 
L 605.252774 -112.388028 
L 602.715869 -112.250298 
L 600.355186 -112.112568 
L 598.177841 -111.974838 
L 596.181768 -111.837108 
L 594.357922 -111.699378 
L 592.692665 -111.561648 
L 591.170088 -111.423918 
L 589.77405 -111.286188 
L 588.489764 -111.148458 
L 587.304864 -111.010728 
L 586.209918 -110.872998 
L 585.198454 -110.735268 
L 584.266594 -110.597538 
L 583.412419 -110.459809 
L 582.635206 -110.322079 
L 581.934659 -110.184349 
L 581.310239 -110.046619 
L 580.760653 -109.908889 
L 580.283544 -109.771159 
L 579.875375 -109.633429 
L 579.531492 -109.495699 
L 579.246317 -109.357969 
L 579.013621 -109.220239 
z
" style="stroke: #3d3d3d; stroke-width: 1.25"/>
    </defs>
    <g clip-path="url(#pb7f58eae1c)">
     <use xlink:href="#m87f9bf9f22" x="0" y="360" style="fill: #c03d3e; stroke: #3d3d3d; stroke-width: 1.25"/>
    </g>
   </g>
   <g id="matplotlib.axis_1">
    <g id="xtick_1">
     <g id="line2d_1">
      <defs>
       <path id="mabeaf2f464" d="M 0 0 
L 0 3.5 
" style="stroke: #000000; stroke-width: 0.8"/>
      </defs>
      <g>
       <use xlink:href="#mabeaf2f464" x="159.75" y="320.4" style="stroke: #000000; stroke-width: 0.8"/>
      </g>
     </g>
     <g id="text_1">
      <!-- Spurious -->
      <g transform="translate(137.955469 334.998438) scale(0.1 -0.1)">
       <defs>
        <path id="DejaVuSans-53" d="M 3425 4513 
L 3425 3897 
Q 3066 4069 2747 4153 
Q 2428 4238 2131 4238 
Q 1616 4238 1336 4038 
Q 1056 3838 1056 3469 
Q 1056 3159 1242 3001 
Q 1428 2844 1947 2747 
L 2328 2669 
Q 3034 2534 3370 2195 
Q 3706 1856 3706 1288 
Q 3706 609 3251 259 
Q 2797 -91 1919 -91 
Q 1588 -91 1214 -16 
Q 841 59 441 206 
L 441 856 
Q 825 641 1194 531 
Q 1563 422 1919 422 
Q 2459 422 2753 634 
Q 3047 847 3047 1241 
Q 3047 1584 2836 1778 
Q 2625 1972 2144 2069 
L 1759 2144 
Q 1053 2284 737 2584 
Q 422 2884 422 3419 
Q 422 4038 858 4394 
Q 1294 4750 2059 4750 
Q 2388 4750 2728 4690 
Q 3069 4631 3425 4513 
z
" transform="scale(0.015625)"/>
        <path id="DejaVuSans-70" d="M 1159 525 
L 1159 -1331 
L 581 -1331 
L 581 3500 
L 1159 3500 
L 1159 2969 
Q 1341 3281 1617 3432 
Q 1894 3584 2278 3584 
Q 2916 3584 3314 3078 
Q 3713 2572 3713 1747 
Q 3713 922 3314 415 
Q 2916 -91 2278 -91 
Q 1894 -91 1617 61 
Q 1341 213 1159 525 
z
M 3116 1747 
Q 3116 2381 2855 2742 
Q 2594 3103 2138 3103 
Q 1681 3103 1420 2742 
Q 1159 2381 1159 1747 
Q 1159 1113 1420 752 
Q 1681 391 2138 391 
Q 2594 391 2855 752 
Q 3116 1113 3116 1747 
z
" transform="scale(0.015625)"/>
        <path id="DejaVuSans-75" d="M 544 1381 
L 544 3500 
L 1119 3500 
L 1119 1403 
Q 1119 906 1312 657 
Q 1506 409 1894 409 
Q 2359 409 2629 706 
Q 2900 1003 2900 1516 
L 2900 3500 
L 3475 3500 
L 3475 0 
L 2900 0 
L 2900 538 
Q 2691 219 2414 64 
Q 2138 -91 1772 -91 
Q 1169 -91 856 284 
Q 544 659 544 1381 
z
M 1991 3584 
L 1991 3584 
z
" transform="scale(0.015625)"/>
        <path id="DejaVuSans-72" d="M 2631 2963 
Q 2534 3019 2420 3045 
Q 2306 3072 2169 3072 
Q 1681 3072 1420 2755 
Q 1159 2438 1159 1844 
L 1159 0 
L 581 0 
L 581 3500 
L 1159 3500 
L 1159 2956 
Q 1341 3275 1631 3429 
Q 1922 3584 2338 3584 
Q 2397 3584 2469 3576 
Q 2541 3569 2628 3553 
L 2631 2963 
z
" transform="scale(0.015625)"/>
        <path id="DejaVuSans-69" d="M 603 3500 
L 1178 3500 
L 1178 0 
L 603 0 
L 603 3500 
z
M 603 4863 
L 1178 4863 
L 1178 4134 
L 603 4134 
L 603 4863 
z
" transform="scale(0.015625)"/>
        <path id="DejaVuSans-6f" d="M 1959 3097 
Q 1497 3097 1228 2736 
Q 959 2375 959 1747 
Q 959 1119 1226 758 
Q 1494 397 1959 397 
Q 2419 397 2687 759 
Q 2956 1122 2956 1747 
Q 2956 2369 2687 2733 
Q 2419 3097 1959 3097 
z
M 1959 3584 
Q 2709 3584 3137 3096 
Q 3566 2609 3566 1747 
Q 3566 888 3137 398 
Q 2709 -91 1959 -91 
Q 1206 -91 779 398 
Q 353 888 353 1747 
Q 353 2609 779 3096 
Q 1206 3584 1959 3584 
z
" transform="scale(0.015625)"/>
        <path id="DejaVuSans-73" d="M 2834 3397 
L 2834 2853 
Q 2591 2978 2328 3040 
Q 2066 3103 1784 3103 
Q 1356 3103 1142 2972 
Q 928 2841 928 2578 
Q 928 2378 1081 2264 
Q 1234 2150 1697 2047 
L 1894 2003 
Q 2506 1872 2764 1633 
Q 3022 1394 3022 966 
Q 3022 478 2636 193 
Q 2250 -91 1575 -91 
Q 1294 -91 989 -36 
Q 684 19 347 128 
L 347 722 
Q 666 556 975 473 
Q 1284 391 1588 391 
Q 1994 391 2212 530 
Q 2431 669 2431 922 
Q 2431 1156 2273 1281 
Q 2116 1406 1581 1522 
L 1381 1569 
Q 847 1681 609 1914 
Q 372 2147 372 2553 
Q 372 3047 722 3315 
Q 1072 3584 1716 3584 
Q 2034 3584 2315 3537 
Q 2597 3491 2834 3397 
z
" transform="scale(0.015625)"/>
       </defs>
       <use xlink:href="#DejaVuSans-53"/>
       <use xlink:href="#DejaVuSans-70" transform="translate(63.476562 0)"/>
       <use xlink:href="#DejaVuSans-75" transform="translate(126.953125 0)"/>
       <use xlink:href="#DejaVuSans-72" transform="translate(190.332031 0)"/>
       <use xlink:href="#DejaVuSans-69" transform="translate(231.445312 0)"/>
       <use xlink:href="#DejaVuSans-6f" transform="translate(259.228516 0)"/>
       <use xlink:href="#DejaVuSans-75" transform="translate(320.410156 0)"/>
       <use xlink:href="#DejaVuSans-73" transform="translate(383.789062 0)"/>
      </g>
     </g>
    </g>
    <g id="xtick_2">
     <g id="line2d_2">
      <g>
       <use xlink:href="#mabeaf2f464" x="299.25" y="320.4" style="stroke: #000000; stroke-width: 0.8"/>
      </g>
     </g>
     <g id="text_2">
      <!-- Specific -->
      <g transform="translate(279.788281 334.998438) scale(0.1 -0.1)">
       <defs>
        <path id="DejaVuSans-65" d="M 3597 1894 
L 3597 1613 
L 953 1613 
Q 991 1019 1311 708 
Q 1631 397 2203 397 
Q 2534 397 2845 478 
Q 3156 559 3463 722 
L 3463 178 
Q 3153 47 2828 -22 
Q 2503 -91 2169 -91 
Q 1331 -91 842 396 
Q 353 884 353 1716 
Q 353 2575 817 3079 
Q 1281 3584 2069 3584 
Q 2775 3584 3186 3129 
Q 3597 2675 3597 1894 
z
M 3022 2063 
Q 3016 2534 2758 2815 
Q 2500 3097 2075 3097 
Q 1594 3097 1305 2825 
Q 1016 2553 972 2059 
L 3022 2063 
z
" transform="scale(0.015625)"/>
        <path id="DejaVuSans-63" d="M 3122 3366 
L 3122 2828 
Q 2878 2963 2633 3030 
Q 2388 3097 2138 3097 
Q 1578 3097 1268 2742 
Q 959 2388 959 1747 
Q 959 1106 1268 751 
Q 1578 397 2138 397 
Q 2388 397 2633 464 
Q 2878 531 3122 666 
L 3122 134 
Q 2881 22 2623 -34 
Q 2366 -91 2075 -91 
Q 1284 -91 818 406 
Q 353 903 353 1747 
Q 353 2603 823 3093 
Q 1294 3584 2113 3584 
Q 2378 3584 2631 3529 
Q 2884 3475 3122 3366 
z
" transform="scale(0.015625)"/>
        <path id="DejaVuSans-66" d="M 2375 4863 
L 2375 4384 
L 1825 4384 
Q 1516 4384 1395 4259 
Q 1275 4134 1275 3809 
L 1275 3500 
L 2222 3500 
L 2222 3053 
L 1275 3053 
L 1275 0 
L 697 0 
L 697 3053 
L 147 3053 
L 147 3500 
L 697 3500 
L 697 3744 
Q 697 4328 969 4595 
Q 1241 4863 1831 4863 
L 2375 4863 
z
" transform="scale(0.015625)"/>
       </defs>
       <use xlink:href="#DejaVuSans-53"/>
       <use xlink:href="#DejaVuSans-70" transform="translate(63.476562 0)"/>
       <use xlink:href="#DejaVuSans-65" transform="translate(126.953125 0)"/>
       <use xlink:href="#DejaVuSans-63" transform="translate(188.476562 0)"/>
       <use xlink:href="#DejaVuSans-69" transform="translate(243.457031 0)"/>
       <use xlink:href="#DejaVuSans-66" transform="translate(271.240234 0)"/>
       <use xlink:href="#DejaVuSans-69" transform="translate(306.445312 0)"/>
       <use xlink:href="#DejaVuSans-63" transform="translate(334.228516 0)"/>
      </g>
     </g>
    </g>
    <g id="xtick_3">
     <g id="line2d_3">
      <g>
       <use xlink:href="#mabeaf2f464" x="438.75" y="320.4" style="stroke: #000000; stroke-width: 0.8"/>
      </g>
     </g>
     <g id="text_3">
      <!-- Non-specific -->
      <g transform="translate(408.085156 334.998438) scale(0.1 -0.1)">
       <defs>
        <path id="DejaVuSans-4e" d="M 628 4666 
L 1478 4666 
L 3547 763 
L 3547 4666 
L 4159 4666 
L 4159 0 
L 3309 0 
L 1241 3903 
L 1241 0 
L 628 0 
L 628 4666 
z
" transform="scale(0.015625)"/>
        <path id="DejaVuSans-6e" d="M 3513 2113 
L 3513 0 
L 2938 0 
L 2938 2094 
Q 2938 2591 2744 2837 
Q 2550 3084 2163 3084 
Q 1697 3084 1428 2787 
Q 1159 2491 1159 1978 
L 1159 0 
L 581 0 
L 581 3500 
L 1159 3500 
L 1159 2956 
Q 1366 3272 1645 3428 
Q 1925 3584 2291 3584 
Q 2894 3584 3203 3211 
Q 3513 2838 3513 2113 
z
" transform="scale(0.015625)"/>
        <path id="DejaVuSans-2d" d="M 313 2009 
L 1997 2009 
L 1997 1497 
L 313 1497 
L 313 2009 
z
" transform="scale(0.015625)"/>
       </defs>
       <use xlink:href="#DejaVuSans-4e"/>
       <use xlink:href="#DejaVuSans-6f" transform="translate(74.804688 0)"/>
       <use xlink:href="#DejaVuSans-6e" transform="translate(135.986328 0)"/>
       <use xlink:href="#DejaVuSans-2d" transform="translate(199.365234 0)"/>
       <use xlink:href="#DejaVuSans-73" transform="translate(235.449219 0)"/>
       <use xlink:href="#DejaVuSans-70" transform="translate(287.548828 0)"/>
       <use xlink:href="#DejaVuSans-65" transform="translate(351.025391 0)"/>
       <use xlink:href="#DejaVuSans-63" transform="translate(412.548828 0)"/>
       <use xlink:href="#DejaVuSans-69" transform="translate(467.529297 0)"/>
       <use xlink:href="#DejaVuSans-66" transform="translate(495.3125 0)"/>
       <use xlink:href="#DejaVuSans-69" transform="translate(530.517578 0)"/>
       <use xlink:href="#DejaVuSans-63" transform="translate(558.300781 0)"/>
      </g>
     </g>
    </g>
    <g id="xtick_4">
     <g id="line2d_4">
      <g>
       <use xlink:href="#mabeaf2f464" x="578.25" y="320.4" style="stroke: #000000; stroke-width: 0.8"/>
      </g>
     </g>
     <g id="text_4">
      <!-- No -->
      <g transform="translate(571.45 334.998438) scale(0.1 -0.1)">
       <use xlink:href="#DejaVuSans-4e"/>
       <use xlink:href="#DejaVuSans-6f" transform="translate(74.804688 0)"/>
      </g>
     </g>
    </g>
    <g id="text_5">
     <!-- Connectivity category -->
     <g transform="translate(313.98125 348.676562) scale(0.1 -0.1)">
      <defs>
       <path id="DejaVuSans-43" d="M 4122 4306 
L 4122 3641 
Q 3803 3938 3442 4084 
Q 3081 4231 2675 4231 
Q 1875 4231 1450 3742 
Q 1025 3253 1025 2328 
Q 1025 1406 1450 917 
Q 1875 428 2675 428 
Q 3081 428 3442 575 
Q 3803 722 4122 1019 
L 4122 359 
Q 3791 134 3420 21 
Q 3050 -91 2638 -91 
Q 1578 -91 968 557 
Q 359 1206 359 2328 
Q 359 3453 968 4101 
Q 1578 4750 2638 4750 
Q 3056 4750 3426 4639 
Q 3797 4528 4122 4306 
z
" transform="scale(0.015625)"/>
       <path id="DejaVuSans-74" d="M 1172 4494 
L 1172 3500 
L 2356 3500 
L 2356 3053 
L 1172 3053 
L 1172 1153 
Q 1172 725 1289 603 
Q 1406 481 1766 481 
L 2356 481 
L 2356 0 
L 1766 0 
Q 1100 0 847 248 
Q 594 497 594 1153 
L 594 3053 
L 172 3053 
L 172 3500 
L 594 3500 
L 594 4494 
L 1172 4494 
z
" transform="scale(0.015625)"/>
       <path id="DejaVuSans-76" d="M 191 3500 
L 800 3500 
L 1894 563 
L 2988 3500 
L 3597 3500 
L 2284 0 
L 1503 0 
L 191 3500 
z
" transform="scale(0.015625)"/>
       <path id="DejaVuSans-79" d="M 2059 -325 
Q 1816 -950 1584 -1140 
Q 1353 -1331 966 -1331 
L 506 -1331 
L 506 -850 
L 844 -850 
Q 1081 -850 1212 -737 
Q 1344 -625 1503 -206 
L 1606 56 
L 191 3500 
L 800 3500 
L 1894 763 
L 2988 3500 
L 3597 3500 
L 2059 -325 
z
" transform="scale(0.015625)"/>
       <path id="DejaVuSans-20" transform="scale(0.015625)"/>
       <path id="DejaVuSans-61" d="M 2194 1759 
Q 1497 1759 1228 1600 
Q 959 1441 959 1056 
Q 959 750 1161 570 
Q 1363 391 1709 391 
Q 2188 391 2477 730 
Q 2766 1069 2766 1631 
L 2766 1759 
L 2194 1759 
z
M 3341 1997 
L 3341 0 
L 2766 0 
L 2766 531 
Q 2569 213 2275 61 
Q 1981 -91 1556 -91 
Q 1019 -91 701 211 
Q 384 513 384 1019 
Q 384 1609 779 1909 
Q 1175 2209 1959 2209 
L 2766 2209 
L 2766 2266 
Q 2766 2663 2505 2880 
Q 2244 3097 1772 3097 
Q 1472 3097 1187 3025 
Q 903 2953 641 2809 
L 641 3341 
Q 956 3463 1253 3523 
Q 1550 3584 1831 3584 
Q 2591 3584 2966 3190 
Q 3341 2797 3341 1997 
z
" transform="scale(0.015625)"/>
       <path id="DejaVuSans-67" d="M 2906 1791 
Q 2906 2416 2648 2759 
Q 2391 3103 1925 3103 
Q 1463 3103 1205 2759 
Q 947 2416 947 1791 
Q 947 1169 1205 825 
Q 1463 481 1925 481 
Q 2391 481 2648 825 
Q 2906 1169 2906 1791 
z
M 3481 434 
Q 3481 -459 3084 -895 
Q 2688 -1331 1869 -1331 
Q 1566 -1331 1297 -1286 
Q 1028 -1241 775 -1147 
L 775 -588 
Q 1028 -725 1275 -790 
Q 1522 -856 1778 -856 
Q 2344 -856 2625 -561 
Q 2906 -266 2906 331 
L 2906 616 
Q 2728 306 2450 153 
Q 2172 0 1784 0 
Q 1141 0 747 490 
Q 353 981 353 1791 
Q 353 2603 747 3093 
Q 1141 3584 1784 3584 
Q 2172 3584 2450 3431 
Q 2728 3278 2906 2969 
L 2906 3500 
L 3481 3500 
L 3481 434 
z
" transform="scale(0.015625)"/>
      </defs>
      <use xlink:href="#DejaVuSans-43"/>
      <use xlink:href="#DejaVuSans-6f" transform="translate(69.824219 0)"/>
      <use xlink:href="#DejaVuSans-6e" transform="translate(131.005859 0)"/>
      <use xlink:href="#DejaVuSans-6e" transform="translate(194.384766 0)"/>
      <use xlink:href="#DejaVuSans-65" transform="translate(257.763672 0)"/>
      <use xlink:href="#DejaVuSans-63" transform="translate(319.287109 0)"/>
      <use xlink:href="#DejaVuSans-74" transform="translate(374.267578 0)"/>
      <use xlink:href="#DejaVuSans-69" transform="translate(413.476562 0)"/>
      <use xlink:href="#DejaVuSans-76" transform="translate(441.259766 0)"/>
      <use xlink:href="#DejaVuSans-69" transform="translate(500.439453 0)"/>
      <use xlink:href="#DejaVuSans-74" transform="translate(528.222656 0)"/>
      <use xlink:href="#DejaVuSans-79" transform="translate(567.431641 0)"/>
      <use xlink:href="#DejaVuSans-20" transform="translate(626.611328 0)"/>
      <use xlink:href="#DejaVuSans-63" transform="translate(658.398438 0)"/>
      <use xlink:href="#DejaVuSans-61" transform="translate(713.378906 0)"/>
      <use xlink:href="#DejaVuSans-74" transform="translate(774.658203 0)"/>
      <use xlink:href="#DejaVuSans-65" transform="translate(813.867188 0)"/>
      <use xlink:href="#DejaVuSans-67" transform="translate(875.390625 0)"/>
      <use xlink:href="#DejaVuSans-6f" transform="translate(938.867188 0)"/>
      <use xlink:href="#DejaVuSans-72" transform="translate(1000.048828 0)"/>
      <use xlink:href="#DejaVuSans-79" transform="translate(1041.162109 0)"/>
     </g>
    </g>
   </g>
   <g id="matplotlib.axis_2">
    <g id="ytick_1">
     <g id="line2d_5">
      <defs>
       <path id="m0d7efc7da3" d="M 0 0 
L -3.5 0 
" style="stroke: #000000; stroke-width: 0.8"/>
      </defs>
      <g>
       <use xlink:href="#m0d7efc7da3" x="90" y="299.145148" style="stroke: #000000; stroke-width: 0.8"/>
      </g>
     </g>
     <g id="text_6">
      <!-- −0.002 -->
      <g transform="translate(45.992188 302.944367) scale(0.1 -0.1)">
       <defs>
        <path id="DejaVuSans-2212" d="M 678 2272 
L 4684 2272 
L 4684 1741 
L 678 1741 
L 678 2272 
z
" transform="scale(0.015625)"/>
        <path id="DejaVuSans-30" d="M 2034 4250 
Q 1547 4250 1301 3770 
Q 1056 3291 1056 2328 
Q 1056 1369 1301 889 
Q 1547 409 2034 409 
Q 2525 409 2770 889 
Q 3016 1369 3016 2328 
Q 3016 3291 2770 3770 
Q 2525 4250 2034 4250 
z
M 2034 4750 
Q 2819 4750 3233 4129 
Q 3647 3509 3647 2328 
Q 3647 1150 3233 529 
Q 2819 -91 2034 -91 
Q 1250 -91 836 529 
Q 422 1150 422 2328 
Q 422 3509 836 4129 
Q 1250 4750 2034 4750 
z
" transform="scale(0.015625)"/>
        <path id="DejaVuSans-2e" d="M 684 794 
L 1344 794 
L 1344 0 
L 684 0 
L 684 794 
z
" transform="scale(0.015625)"/>
        <path id="DejaVuSans-32" d="M 1228 531 
L 3431 531 
L 3431 0 
L 469 0 
L 469 531 
Q 828 903 1448 1529 
Q 2069 2156 2228 2338 
Q 2531 2678 2651 2914 
Q 2772 3150 2772 3378 
Q 2772 3750 2511 3984 
Q 2250 4219 1831 4219 
Q 1534 4219 1204 4116 
Q 875 4013 500 3803 
L 500 4441 
Q 881 4594 1212 4672 
Q 1544 4750 1819 4750 
Q 2544 4750 2975 4387 
Q 3406 4025 3406 3419 
Q 3406 3131 3298 2873 
Q 3191 2616 2906 2266 
Q 2828 2175 2409 1742 
Q 1991 1309 1228 531 
z
" transform="scale(0.015625)"/>
       </defs>
       <use xlink:href="#DejaVuSans-2212"/>
       <use xlink:href="#DejaVuSans-30" transform="translate(83.789062 0)"/>
       <use xlink:href="#DejaVuSans-2e" transform="translate(147.412109 0)"/>
       <use xlink:href="#DejaVuSans-30" transform="translate(179.199219 0)"/>
       <use xlink:href="#DejaVuSans-30" transform="translate(242.822266 0)"/>
       <use xlink:href="#DejaVuSans-32" transform="translate(306.445312 0)"/>
      </g>
     </g>
    </g>
    <g id="ytick_2">
     <g id="line2d_6">
      <g>
       <use xlink:href="#m0d7efc7da3" x="90" y="245.919971" style="stroke: #000000; stroke-width: 0.8"/>
      </g>
     </g>
     <g id="text_7">
      <!-- 0.000 -->
      <g transform="translate(54.371875 249.71919) scale(0.1 -0.1)">
       <use xlink:href="#DejaVuSans-30"/>
       <use xlink:href="#DejaVuSans-2e" transform="translate(63.623047 0)"/>
       <use xlink:href="#DejaVuSans-30" transform="translate(95.410156 0)"/>
       <use xlink:href="#DejaVuSans-30" transform="translate(159.033203 0)"/>
       <use xlink:href="#DejaVuSans-30" transform="translate(222.65625 0)"/>
      </g>
     </g>
    </g>
    <g id="ytick_3">
     <g id="line2d_7">
      <g>
       <use xlink:href="#m0d7efc7da3" x="90" y="192.694795" style="stroke: #000000; stroke-width: 0.8"/>
      </g>
     </g>
     <g id="text_8">
      <!-- 0.002 -->
      <g transform="translate(54.371875 196.494013) scale(0.1 -0.1)">
       <use xlink:href="#DejaVuSans-30"/>
       <use xlink:href="#DejaVuSans-2e" transform="translate(63.623047 0)"/>
       <use xlink:href="#DejaVuSans-30" transform="translate(95.410156 0)"/>
       <use xlink:href="#DejaVuSans-30" transform="translate(159.033203 0)"/>
       <use xlink:href="#DejaVuSans-32" transform="translate(222.65625 0)"/>
      </g>
     </g>
    </g>
    <g id="ytick_4">
     <g id="line2d_8">
      <g>
       <use xlink:href="#m0d7efc7da3" x="90" y="139.469618" style="stroke: #000000; stroke-width: 0.8"/>
      </g>
     </g>
     <g id="text_9">
      <!-- 0.004 -->
      <g transform="translate(54.371875 143.268836) scale(0.1 -0.1)">
       <defs>
        <path id="DejaVuSans-34" d="M 2419 4116 
L 825 1625 
L 2419 1625 
L 2419 4116 
z
M 2253 4666 
L 3047 4666 
L 3047 1625 
L 3713 1625 
L 3713 1100 
L 3047 1100 
L 3047 0 
L 2419 0 
L 2419 1100 
L 313 1100 
L 313 1709 
L 2253 4666 
z
" transform="scale(0.015625)"/>
       </defs>
       <use xlink:href="#DejaVuSans-30"/>
       <use xlink:href="#DejaVuSans-2e" transform="translate(63.623047 0)"/>
       <use xlink:href="#DejaVuSans-30" transform="translate(95.410156 0)"/>
       <use xlink:href="#DejaVuSans-30" transform="translate(159.033203 0)"/>
       <use xlink:href="#DejaVuSans-34" transform="translate(222.65625 0)"/>
      </g>
     </g>
    </g>
    <g id="ytick_5">
     <g id="line2d_9">
      <g>
       <use xlink:href="#m0d7efc7da3" x="90" y="86.244441" style="stroke: #000000; stroke-width: 0.8"/>
      </g>
     </g>
     <g id="text_10">
      <!-- 0.006 -->
      <g transform="translate(54.371875 90.04366) scale(0.1 -0.1)">
       <defs>
        <path id="DejaVuSans-36" d="M 2113 2584 
Q 1688 2584 1439 2293 
Q 1191 2003 1191 1497 
Q 1191 994 1439 701 
Q 1688 409 2113 409 
Q 2538 409 2786 701 
Q 3034 994 3034 1497 
Q 3034 2003 2786 2293 
Q 2538 2584 2113 2584 
z
M 3366 4563 
L 3366 3988 
Q 3128 4100 2886 4159 
Q 2644 4219 2406 4219 
Q 1781 4219 1451 3797 
Q 1122 3375 1075 2522 
Q 1259 2794 1537 2939 
Q 1816 3084 2150 3084 
Q 2853 3084 3261 2657 
Q 3669 2231 3669 1497 
Q 3669 778 3244 343 
Q 2819 -91 2113 -91 
Q 1303 -91 875 529 
Q 447 1150 447 2328 
Q 447 3434 972 4092 
Q 1497 4750 2381 4750 
Q 2619 4750 2861 4703 
Q 3103 4656 3366 4563 
z
" transform="scale(0.015625)"/>
       </defs>
       <use xlink:href="#DejaVuSans-30"/>
       <use xlink:href="#DejaVuSans-2e" transform="translate(63.623047 0)"/>
       <use xlink:href="#DejaVuSans-30" transform="translate(95.410156 0)"/>
       <use xlink:href="#DejaVuSans-30" transform="translate(159.033203 0)"/>
       <use xlink:href="#DejaVuSans-36" transform="translate(222.65625 0)"/>
      </g>
     </g>
    </g>
    <g id="text_11">
     <!-- cont_variable -->
     <g transform="translate(39.634375 215.409375) rotate(-90) scale(0.1 -0.1)">
      <defs>
       <path id="DejaVuSans-5f" d="M 3263 -1063 
L 3263 -1509 
L -63 -1509 
L -63 -1063 
L 3263 -1063 
z
" transform="scale(0.015625)"/>
       <path id="DejaVuSans-62" d="M 3116 1747 
Q 3116 2381 2855 2742 
Q 2594 3103 2138 3103 
Q 1681 3103 1420 2742 
Q 1159 2381 1159 1747 
Q 1159 1113 1420 752 
Q 1681 391 2138 391 
Q 2594 391 2855 752 
Q 3116 1113 3116 1747 
z
M 1159 2969 
Q 1341 3281 1617 3432 
Q 1894 3584 2278 3584 
Q 2916 3584 3314 3078 
Q 3713 2572 3713 1747 
Q 3713 922 3314 415 
Q 2916 -91 2278 -91 
Q 1894 -91 1617 61 
Q 1341 213 1159 525 
L 1159 0 
L 581 0 
L 581 4863 
L 1159 4863 
L 1159 2969 
z
" transform="scale(0.015625)"/>
       <path id="DejaVuSans-6c" d="M 603 4863 
L 1178 4863 
L 1178 0 
L 603 0 
L 603 4863 
z
" transform="scale(0.015625)"/>
      </defs>
      <use xlink:href="#DejaVuSans-63"/>
      <use xlink:href="#DejaVuSans-6f" transform="translate(54.980469 0)"/>
      <use xlink:href="#DejaVuSans-6e" transform="translate(116.162109 0)"/>
      <use xlink:href="#DejaVuSans-74" transform="translate(179.541016 0)"/>
      <use xlink:href="#DejaVuSans-5f" transform="translate(218.75 0)"/>
      <use xlink:href="#DejaVuSans-76" transform="translate(268.75 0)"/>
      <use xlink:href="#DejaVuSans-61" transform="translate(327.929688 0)"/>
      <use xlink:href="#DejaVuSans-72" transform="translate(389.208984 0)"/>
      <use xlink:href="#DejaVuSans-69" transform="translate(430.322266 0)"/>
      <use xlink:href="#DejaVuSans-61" transform="translate(458.105469 0)"/>
      <use xlink:href="#DejaVuSans-62" transform="translate(519.384766 0)"/>
      <use xlink:href="#DejaVuSans-6c" transform="translate(582.861328 0)"/>
      <use xlink:href="#DejaVuSans-65" transform="translate(610.644531 0)"/>
     </g>
    </g>
   </g>
   <g id="patch_3">
    <path d="M 90 320.4 
L 90 43.2 
" style="fill: none; stroke: #000000; stroke-width: 0.8; stroke-linejoin: miter; stroke-linecap: square"/>
   </g>
   <g id="patch_4">
    <path d="M 648 320.4 
L 648 43.2 
" style="fill: none; stroke: #000000; stroke-width: 0.8; stroke-linejoin: miter; stroke-linecap: square"/>
   </g>
   <g id="patch_5">
    <path d="M 90 320.4 
L 648 320.4 
" style="fill: none; stroke: #000000; stroke-width: 0.8; stroke-linejoin: miter; stroke-linecap: square"/>
   </g>
   <g id="patch_6">
    <path d="M 90 43.2 
L 648 43.2 
" style="fill: none; stroke: #000000; stroke-width: 0.8; stroke-linejoin: miter; stroke-linecap: square"/>
   </g>
   <g id="PathCollection_1">
    <defs>
     <path id="m21c667f746" d="M 0 2.5 
C 0.663008 2.5 1.29895 2.236584 1.767767 1.767767 
C 2.236584 1.29895 2.5 0.663008 2.5 0 
C 2.5 -0.663008 2.236584 -1.29895 1.767767 -1.767767 
C 1.29895 -2.236584 0.663008 -2.5 0 -2.5 
C -0.663008 -2.5 -1.29895 -2.236584 -1.767767 -1.767767 
C -2.236584 -1.29895 -2.5 -0.663008 -2.5 0 
C -2.5 0.663008 -2.236584 1.29895 -1.767767 1.767767 
C -1.29895 2.236584 -0.663008 2.5 0 2.5 
z
"/>
    </defs>
    <g clip-path="url(#pb7f58eae1c)">
     <use xlink:href="#m21c667f746" x="164.048599" y="241.662539" style="fill-opacity: 0.3"/>
     <use xlink:href="#m21c667f746" x="169.873007" y="223.728806" style="fill-opacity: 0.3"/>
     <use xlink:href="#m21c667f746" x="158.298734" y="243.852949" style="fill-opacity: 0.3"/>
     <use xlink:href="#m21c667f746" x="149.481818" y="249.632228" style="fill-opacity: 0.3"/>
     <use xlink:href="#m21c667f746" x="151.326114" y="219.903284" style="fill-opacity: 0.3"/>
     <use xlink:href="#m21c667f746" x="152.922522" y="254.051081" style="fill-opacity: 0.3"/>
     <use xlink:href="#m21c667f746" x="158.429821" y="243.972378" style="fill-opacity: 0.3"/>
     <use xlink:href="#m21c667f746" x="160.636701" y="246.724507" style="fill-opacity: 0.3"/>
     <use xlink:href="#m21c667f746" x="147.067998" y="244.419672" style="fill-opacity: 0.3"/>
     <use xlink:href="#m21c667f746" x="166.929654" y="194.057657" style="fill-opacity: 0.3"/>
     <use xlink:href="#m21c667f746" x="154.006399" y="245.803965" style="fill-opacity: 0.3"/>
     <use xlink:href="#m21c667f746" x="157.210796" y="245.850337" style="fill-opacity: 0.3"/>
     <use xlink:href="#m21c667f746" x="160.648111" y="246.577713" style="fill-opacity: 0.3"/>
     <use xlink:href="#m21c667f746" x="170.76132" y="246.835416" style="fill-opacity: 0.3"/>
     <use xlink:href="#m21c667f746" x="149.079584" y="245.49893" style="fill-opacity: 0.3"/>
     <use xlink:href="#m21c667f746" x="155.649007" y="245.66336" style="fill-opacity: 0.3"/>
     <use xlink:href="#m21c667f746" x="164.292461" y="228.289031" style="fill-opacity: 0.3"/>
     <use xlink:href="#m21c667f746" x="164.53426" y="229.78814" style="fill-opacity: 0.3"/>
     <use xlink:href="#m21c667f746" x="149.009583" y="233.649972" style="fill-opacity: 0.3"/>
     <use xlink:href="#m21c667f746" x="161.479738" y="192.112761" style="fill-opacity: 0.3"/>
     <use xlink:href="#m21c667f746" x="146.264513" y="214.880355" style="fill-opacity: 0.3"/>
     <use xlink:href="#m21c667f746" x="171.279907" y="195.378988" style="fill-opacity: 0.3"/>
     <use xlink:href="#m21c667f746" x="170.036861" y="227.580177" style="fill-opacity: 0.3"/>
     <use xlink:href="#m21c667f746" x="152.505845" y="196.540606" style="fill-opacity: 0.3"/>
     <use xlink:href="#m21c667f746" x="152.87718" y="247.993401" style="fill-opacity: 0.3"/>
     <use xlink:href="#m21c667f746" x="148.564565" y="233.541429" style="fill-opacity: 0.3"/>
     <use xlink:href="#m21c667f746" x="164.526751" y="243.486828" style="fill-opacity: 0.3"/>
     <use xlink:href="#m21c667f746" x="153.967164" y="248.845872" style="fill-opacity: 0.3"/>
     <use xlink:href="#m21c667f746" x="149.279913" y="245.805175" style="fill-opacity: 0.3"/>
     <use xlink:href="#m21c667f746" x="147.251092" y="245.919971" style="fill-opacity: 0.3"/>
     <use xlink:href="#m21c667f746" x="169.863601" y="246.318407" style="fill-opacity: 0.3"/>
     <use xlink:href="#m21c667f746" x="170.206933" y="247.205965" style="fill-opacity: 0.3"/>
     <use xlink:href="#m21c667f746" x="151.999825" y="251.813395" style="fill-opacity: 0.3"/>
     <use xlink:href="#m21c667f746" x="152.474334" y="245.399285" style="fill-opacity: 0.3"/>
     <use xlink:href="#m21c667f746" x="158.316602" y="246.263135" style="fill-opacity: 0.3"/>
     <use xlink:href="#m21c667f746" x="156.505356" y="246.832795" style="fill-opacity: 0.3"/>
     <use xlink:href="#m21c667f746" x="159.913716" y="246.601055" style="fill-opacity: 0.3"/>
     <use xlink:href="#m21c667f746" x="166.909989" y="246.978623" style="fill-opacity: 0.3"/>
     <use xlink:href="#m21c667f746" x="147.546356" y="246.614461" style="fill-opacity: 0.3"/>
     <use xlink:href="#m21c667f746" x="170.097518" y="245.86444" style="fill-opacity: 0.3"/>
     <use xlink:href="#m21c667f746" x="157.794172" y="244.799026" style="fill-opacity: 0.3"/>
     <use xlink:href="#m21c667f746" x="164.52069" y="246.508132" style="fill-opacity: 0.3"/>
     <use xlink:href="#m21c667f746" x="156.045321" y="244.538423" style="fill-opacity: 0.3"/>
     <use xlink:href="#m21c667f746" x="159.23484" y="240.970063" style="fill-opacity: 0.3"/>
     <use xlink:href="#m21c667f746" x="167.620085" y="242.305063" style="fill-opacity: 0.3"/>
     <use xlink:href="#m21c667f746" x="157.559216" y="245.885969" style="fill-opacity: 0.3"/>
     <use xlink:href="#m21c667f746" x="154.306174" y="244.136515" style="fill-opacity: 0.3"/>
     <use xlink:href="#m21c667f746" x="164.847938" y="246.310978" style="fill-opacity: 0.3"/>
     <use xlink:href="#m21c667f746" x="152.420525" y="244.536932" style="fill-opacity: 0.3"/>
     <use xlink:href="#m21c667f746" x="147.875705" y="245.938076" style="fill-opacity: 0.3"/>
     <use xlink:href="#m21c667f746" x="168.423698" y="247.501957" style="fill-opacity: 0.3"/>
     <use xlink:href="#m21c667f746" x="164.118707" y="241.80857" style="fill-opacity: 0.3"/>
     <use xlink:href="#m21c667f746" x="172.081138" y="246.445051" style="fill-opacity: 0.3"/>
     <use xlink:href="#m21c667f746" x="161.207625" y="242.453539" style="fill-opacity: 0.3"/>
    </g>
   </g>
   <g id="PathCollection_2">
    <g clip-path="url(#pb7f58eae1c)">
     <use xlink:href="#m21c667f746" x="287.11585" y="240.718707" style="fill-opacity: 0.3"/>
     <use xlink:href="#m21c667f746" x="305.81735" y="245.608287" style="fill-opacity: 0.3"/>
     <use xlink:href="#m21c667f746" x="310.931426" y="244.147049" style="fill-opacity: 0.3"/>
     <use xlink:href="#m21c667f746" x="312.32514" y="241.01646" style="fill-opacity: 0.3"/>
     <use xlink:href="#m21c667f746" x="301.053371" y="239.275409" style="fill-opacity: 0.3"/>
     <use xlink:href="#m21c667f746" x="304.25498" y="245.065969" style="fill-opacity: 0.3"/>
     <use xlink:href="#m21c667f746" x="292.879341" y="242.950346" style="fill-opacity: 0.3"/>
     <use xlink:href="#m21c667f746" x="290.61718" y="244.211573" style="fill-opacity: 0.3"/>
     <use xlink:href="#m21c667f746" x="293.832924" y="241.126946" style="fill-opacity: 0.3"/>
     <use xlink:href="#m21c667f746" x="297.939366" y="241.123032" style="fill-opacity: 0.3"/>
     <use xlink:href="#m21c667f746" x="293.560341" y="246.768149" style="fill-opacity: 0.3"/>
     <use xlink:href="#m21c667f746" x="302.96217" y="244.303637" style="fill-opacity: 0.3"/>
     <use xlink:href="#m21c667f746" x="296.98351" y="239.067322" style="fill-opacity: 0.3"/>
     <use xlink:href="#m21c667f746" x="288.710059" y="251.573291" style="fill-opacity: 0.3"/>
     <use xlink:href="#m21c667f746" x="309.770119" y="250.202543" style="fill-opacity: 0.3"/>
     <use xlink:href="#m21c667f746" x="299.366713" y="254.129474" style="fill-opacity: 0.3"/>
     <use xlink:href="#m21c667f746" x="304.455648" y="248.156015" style="fill-opacity: 0.3"/>
     <use xlink:href="#m21c667f746" x="286.37516" y="249.115266" style="fill-opacity: 0.3"/>
     <use xlink:href="#m21c667f746" x="312.588566" y="237.960412" style="fill-opacity: 0.3"/>
     <use xlink:href="#m21c667f746" x="301.519779" y="225.004184" style="fill-opacity: 0.3"/>
     <use xlink:href="#m21c667f746" x="311.027349" y="227.445115" style="fill-opacity: 0.3"/>
     <use xlink:href="#m21c667f746" x="311.708278" y="205.718479" style="fill-opacity: 0.3"/>
     <use xlink:href="#m21c667f746" x="290.988495" y="137.402602" style="fill-opacity: 0.3"/>
     <use xlink:href="#m21c667f746" x="291.054888" y="196.226053" style="fill-opacity: 0.3"/>
     <use xlink:href="#m21c667f746" x="311.215512" y="241.772515" style="fill-opacity: 0.3"/>
     <use xlink:href="#m21c667f746" x="286.27585" y="249.890885" style="fill-opacity: 0.3"/>
     <use xlink:href="#m21c667f746" x="298.303833" y="239.005737" style="fill-opacity: 0.3"/>
     <use xlink:href="#m21c667f746" x="287.4152" y="243.95558" style="fill-opacity: 0.3"/>
     <use xlink:href="#m21c667f746" x="312.189119" y="243.862482" style="fill-opacity: 0.3"/>
     <use xlink:href="#m21c667f746" x="310.579189" y="247.2812" style="fill-opacity: 0.3"/>
     <use xlink:href="#m21c667f746" x="299.608787" y="239.033404" style="fill-opacity: 0.3"/>
     <use xlink:href="#m21c667f746" x="301.628955" y="230.397711" style="fill-opacity: 0.3"/>
     <use xlink:href="#m21c667f746" x="287.453137" y="242.542187" style="fill-opacity: 0.3"/>
     <use xlink:href="#m21c667f746" x="292.063354" y="226.163406" style="fill-opacity: 0.3"/>
     <use xlink:href="#m21c667f746" x="301.916356" y="230.775997" style="fill-opacity: 0.3"/>
     <use xlink:href="#m21c667f746" x="305.548056" y="251.225414" style="fill-opacity: 0.3"/>
     <use xlink:href="#m21c667f746" x="302.003536" y="244.205393" style="fill-opacity: 0.3"/>
     <use xlink:href="#m21c667f746" x="299.50713" y="243.310159" style="fill-opacity: 0.3"/>
     <use xlink:href="#m21c667f746" x="309.935604" y="244.819176" style="fill-opacity: 0.3"/>
     <use xlink:href="#m21c667f746" x="304.983097" y="278.793219" style="fill-opacity: 0.3"/>
     <use xlink:href="#m21c667f746" x="309.737617" y="259.307737" style="fill-opacity: 0.3"/>
     <use xlink:href="#m21c667f746" x="298.333591" y="232.665039" style="fill-opacity: 0.3"/>
     <use xlink:href="#m21c667f746" x="303.503984" y="245.477541" style="fill-opacity: 0.3"/>
     <use xlink:href="#m21c667f746" x="295.997551" y="246.189918" style="fill-opacity: 0.3"/>
     <use xlink:href="#m21c667f746" x="310.661895" y="225.389823" style="fill-opacity: 0.3"/>
     <use xlink:href="#m21c667f746" x="308.175575" y="257.449494" style="fill-opacity: 0.3"/>
     <use xlink:href="#m21c667f746" x="290.849507" y="239.590842" style="fill-opacity: 0.3"/>
     <use xlink:href="#m21c667f746" x="307.040265" y="248.380917" style="fill-opacity: 0.3"/>
     <use xlink:href="#m21c667f746" x="305.179932" y="252.560442" style="fill-opacity: 0.3"/>
     <use xlink:href="#m21c667f746" x="291.536623" y="238.46525" style="fill-opacity: 0.3"/>
     <use xlink:href="#m21c667f746" x="299.290335" y="248.145281" style="fill-opacity: 0.3"/>
     <use xlink:href="#m21c667f746" x="301.851678" y="267.607203" style="fill-opacity: 0.3"/>
     <use xlink:href="#m21c667f746" x="310.104126" y="255.654919" style="fill-opacity: 0.3"/>
     <use xlink:href="#m21c667f746" x="308.252977" y="238.014779" style="fill-opacity: 0.3"/>
     <use xlink:href="#m21c667f746" x="287.093306" y="237.506137" style="fill-opacity: 0.3"/>
     <use xlink:href="#m21c667f746" x="292.453697" y="237.244653" style="fill-opacity: 0.3"/>
     <use xlink:href="#m21c667f746" x="286.263663" y="243.823314" style="fill-opacity: 0.3"/>
     <use xlink:href="#m21c667f746" x="307.19384" y="247.508966" style="fill-opacity: 0.3"/>
     <use xlink:href="#m21c667f746" x="306.497411" y="241.358562" style="fill-opacity: 0.3"/>
     <use xlink:href="#m21c667f746" x="298.991023" y="254.095928" style="fill-opacity: 0.3"/>
     <use xlink:href="#m21c667f746" x="288.104402" y="224.574892" style="fill-opacity: 0.3"/>
     <use xlink:href="#m21c667f746" x="309.158076" y="246.4827" style="fill-opacity: 0.3"/>
     <use xlink:href="#m21c667f746" x="309.50085" y="246.298575" style="fill-opacity: 0.3"/>
     <use xlink:href="#m21c667f746" x="309.637364" y="251.511388" style="fill-opacity: 0.3"/>
     <use xlink:href="#m21c667f746" x="313.040112" y="244.66064" style="fill-opacity: 0.3"/>
     <use xlink:href="#m21c667f746" x="312.464369" y="245.002761" style="fill-opacity: 0.3"/>
     <use xlink:href="#m21c667f746" x="311.358137" y="246.368266" style="fill-opacity: 0.3"/>
     <use xlink:href="#m21c667f746" x="310.115403" y="245.420429" style="fill-opacity: 0.3"/>
     <use xlink:href="#m21c667f746" x="297.934637" y="244.548885" style="fill-opacity: 0.3"/>
     <use xlink:href="#m21c667f746" x="300.810522" y="243.95304" style="fill-opacity: 0.3"/>
     <use xlink:href="#m21c667f746" x="293.748393" y="243.081878" style="fill-opacity: 0.3"/>
     <use xlink:href="#m21c667f746" x="286.806157" y="246.007168" style="fill-opacity: 0.3"/>
     <use xlink:href="#m21c667f746" x="303.417329" y="246.571156" style="fill-opacity: 0.3"/>
     <use xlink:href="#m21c667f746" x="292.74971" y="245.664001" style="fill-opacity: 0.3"/>
     <use xlink:href="#m21c667f746" x="295.982173" y="244.275292" style="fill-opacity: 0.3"/>
     <use xlink:href="#m21c667f746" x="285.77706" y="239.072946" style="fill-opacity: 0.3"/>
     <use xlink:href="#m21c667f746" x="307.940452" y="246.27143" style="fill-opacity: 0.3"/>
     <use xlink:href="#m21c667f746" x="288.239538" y="249.917901" style="fill-opacity: 0.3"/>
     <use xlink:href="#m21c667f746" x="308.019768" y="243.94209" style="fill-opacity: 0.3"/>
     <use xlink:href="#m21c667f746" x="310.40313" y="244.358594" style="fill-opacity: 0.3"/>
     <use xlink:href="#m21c667f746" x="291.41843" y="244.707632" style="fill-opacity: 0.3"/>
     <use xlink:href="#m21c667f746" x="293.9651" y="245.141874" style="fill-opacity: 0.3"/>
     <use xlink:href="#m21c667f746" x="296.354907" y="245.687599" style="fill-opacity: 0.3"/>
     <use xlink:href="#m21c667f746" x="301.059996" y="242.722152" style="fill-opacity: 0.3"/>
     <use xlink:href="#m21c667f746" x="290.846814" y="245.595729" style="fill-opacity: 0.3"/>
     <use xlink:href="#m21c667f746" x="299.418999" y="248.889245" style="fill-opacity: 0.3"/>
     <use xlink:href="#m21c667f746" x="296.470087" y="243.906889" style="fill-opacity: 0.3"/>
    </g>
   </g>
   <g id="PathCollection_3">
    <g clip-path="url(#pb7f58eae1c)">
     <use xlink:href="#m21c667f746" x="451.061782" y="247.393578" style="fill-opacity: 0.3"/>
     <use xlink:href="#m21c667f746" x="448.592141" y="250.025778" style="fill-opacity: 0.3"/>
     <use xlink:href="#m21c667f746" x="438.237169" y="242.381391" style="fill-opacity: 0.3"/>
     <use xlink:href="#m21c667f746" x="427.984824" y="245.334431" style="fill-opacity: 0.3"/>
     <use xlink:href="#m21c667f746" x="445.870639" y="237.117472" style="fill-opacity: 0.3"/>
     <use xlink:href="#m21c667f746" x="436.524592" y="243.634402" style="fill-opacity: 0.3"/>
     <use xlink:href="#m21c667f746" x="449.150463" y="245.004283" style="fill-opacity: 0.3"/>
     <use xlink:href="#m21c667f746" x="427.656684" y="245.956518" style="fill-opacity: 0.3"/>
     <use xlink:href="#m21c667f746" x="428.457938" y="247.305172" style="fill-opacity: 0.3"/>
     <use xlink:href="#m21c667f746" x="442.84948" y="247.078317" style="fill-opacity: 0.3"/>
     <use xlink:href="#m21c667f746" x="448.294315" y="242.214004" style="fill-opacity: 0.3"/>
     <use xlink:href="#m21c667f746" x="435.10251" y="241.578175" style="fill-opacity: 0.3"/>
     <use xlink:href="#m21c667f746" x="428.639443" y="245.133781" style="fill-opacity: 0.3"/>
     <use xlink:href="#m21c667f746" x="426.814795" y="81.236154" style="fill-opacity: 0.3"/>
     <use xlink:href="#m21c667f746" x="433.062776" y="242.713796" style="fill-opacity: 0.3"/>
     <use xlink:href="#m21c667f746" x="432.255271" y="243.279552" style="fill-opacity: 0.3"/>
     <use xlink:href="#m21c667f746" x="433.302332" y="238.908494" style="fill-opacity: 0.3"/>
     <use xlink:href="#m21c667f746" x="451.069772" y="239.440412" style="fill-opacity: 0.3"/>
     <use xlink:href="#m21c667f746" x="436.034503" y="242.553809" style="fill-opacity: 0.3"/>
     <use xlink:href="#m21c667f746" x="439.039067" y="248.997814" style="fill-opacity: 0.3"/>
     <use xlink:href="#m21c667f746" x="441.645789" y="245.517097" style="fill-opacity: 0.3"/>
     <use xlink:href="#m21c667f746" x="439.284332" y="225.045116" style="fill-opacity: 0.3"/>
     <use xlink:href="#m21c667f746" x="435.04417" y="282.363846" style="fill-opacity: 0.3"/>
     <use xlink:href="#m21c667f746" x="449.50019" y="223.453779" style="fill-opacity: 0.3"/>
     <use xlink:href="#m21c667f746" x="444.446928" y="252.551534" style="fill-opacity: 0.3"/>
     <use xlink:href="#m21c667f746" x="435.35879" y="258.320329" style="fill-opacity: 0.3"/>
     <use xlink:href="#m21c667f746" x="447.764048" y="241.072449" style="fill-opacity: 0.3"/>
     <use xlink:href="#m21c667f746" x="448.653617" y="246.369605" style="fill-opacity: 0.3"/>
     <use xlink:href="#m21c667f746" x="425.53116" y="248.802072" style="fill-opacity: 0.3"/>
     <use xlink:href="#m21c667f746" x="436.935246" y="237.565014" style="fill-opacity: 0.3"/>
     <use xlink:href="#m21c667f746" x="447.778818" y="257.390574" style="fill-opacity: 0.3"/>
     <use xlink:href="#m21c667f746" x="438.984438" y="251.701783" style="fill-opacity: 0.3"/>
     <use xlink:href="#m21c667f746" x="445.883599" y="250.977202" style="fill-opacity: 0.3"/>
     <use xlink:href="#m21c667f746" x="450.33409" y="249.578079" style="fill-opacity: 0.3"/>
     <use xlink:href="#m21c667f746" x="447.232325" y="248.411169" style="fill-opacity: 0.3"/>
     <use xlink:href="#m21c667f746" x="451.464732" y="249.646118" style="fill-opacity: 0.3"/>
     <use xlink:href="#m21c667f746" x="440.939494" y="244.827581" style="fill-opacity: 0.3"/>
     <use xlink:href="#m21c667f746" x="440.608695" y="244.683428" style="fill-opacity: 0.3"/>
     <use xlink:href="#m21c667f746" x="426.152876" y="245.785207" style="fill-opacity: 0.3"/>
     <use xlink:href="#m21c667f746" x="442.854149" y="234.334818" style="fill-opacity: 0.3"/>
     <use xlink:href="#m21c667f746" x="427.154043" y="248.914156" style="fill-opacity: 0.3"/>
     <use xlink:href="#m21c667f746" x="449.669981" y="244.567562" style="fill-opacity: 0.3"/>
    </g>
   </g>
   <g id="PathCollection_4">
    <g clip-path="url(#pb7f58eae1c)">
     <use xlink:href="#m21c667f746" x="585.315097" y="240.52423" style="fill-opacity: 0.3"/>
     <use xlink:href="#m21c667f746" x="591.867652" y="248.217887" style="fill-opacity: 0.3"/>
     <use xlink:href="#m21c667f746" x="579.664347" y="244.165245" style="fill-opacity: 0.3"/>
     <use xlink:href="#m21c667f746" x="580.807693" y="246.246283" style="fill-opacity: 0.3"/>
     <use xlink:href="#m21c667f746" x="591.184889" y="248.603948" style="fill-opacity: 0.3"/>
     <use xlink:href="#m21c667f746" x="587.79179" y="239.320309" style="fill-opacity: 0.3"/>
     <use xlink:href="#m21c667f746" x="585.862949" y="247.160177" style="fill-opacity: 0.3"/>
     <use xlink:href="#m21c667f746" x="585.645168" y="245.66715" style="fill-opacity: 0.3"/>
     <use xlink:href="#m21c667f746" x="566.694883" y="244.325542" style="fill-opacity: 0.3"/>
     <use xlink:href="#m21c667f746" x="573.39531" y="245.370247" style="fill-opacity: 0.3"/>
     <use xlink:href="#m21c667f746" x="586.478002" y="246.012572" style="fill-opacity: 0.3"/>
     <use xlink:href="#m21c667f746" x="575.895486" y="245.369572" style="fill-opacity: 0.3"/>
     <use xlink:href="#m21c667f746" x="583.486308" y="245.475498" style="fill-opacity: 0.3"/>
     <use xlink:href="#m21c667f746" x="576.975996" y="246.262666" style="fill-opacity: 0.3"/>
     <use xlink:href="#m21c667f746" x="569.368822" y="244.444001" style="fill-opacity: 0.3"/>
     <use xlink:href="#m21c667f746" x="581.715995" y="244.002794" style="fill-opacity: 0.3"/>
     <use xlink:href="#m21c667f746" x="570.516852" y="246.440194" style="fill-opacity: 0.3"/>
     <use xlink:href="#m21c667f746" x="585.497885" y="245.808474" style="fill-opacity: 0.3"/>
     <use xlink:href="#m21c667f746" x="565.408994" y="242.817429" style="fill-opacity: 0.3"/>
     <use xlink:href="#m21c667f746" x="565.965005" y="245.67524" style="fill-opacity: 0.3"/>
     <use xlink:href="#m21c667f746" x="577.313521" y="242.499218" style="fill-opacity: 0.3"/>
     <use xlink:href="#m21c667f746" x="571.454262" y="242.920836" style="fill-opacity: 0.3"/>
     <use xlink:href="#m21c667f746" x="586.906519" y="246.264412" style="fill-opacity: 0.3"/>
     <use xlink:href="#m21c667f746" x="571.694959" y="245.156633" style="fill-opacity: 0.3"/>
     <use xlink:href="#m21c667f746" x="574.461167" y="246.59698" style="fill-opacity: 0.3"/>
     <use xlink:href="#m21c667f746" x="586.771273" y="243.742447" style="fill-opacity: 0.3"/>
     <use xlink:href="#m21c667f746" x="590.990397" y="246.694294" style="fill-opacity: 0.3"/>
    </g>
   </g>
  </g>
 </g>
 <defs>
  <clipPath id="pb7f58eae1c">
   <rect x="90" y="43.2" width="558" height="277.2"/>
  </clipPath>
 </defs>
</svg>
