<?xml version="1.0" encoding="utf-8" standalone="no"?>
<!DOCTYPE svg PUBLIC "-//W3C//DTD SVG 1.1//EN"
  "http://www.w3.org/Graphics/SVG/1.1/DTD/svg11.dtd">
<svg xmlns:xlink="http://www.w3.org/1999/xlink" width="720pt" height="360pt" viewBox="0 0 720 360" xmlns="http://www.w3.org/2000/svg" version="1.1">
 <metadata>
  <rdf:RDF xmlns:dc="http://purl.org/dc/elements/1.1/" xmlns:cc="http://creativecommons.org/ns#" xmlns:rdf="http://www.w3.org/1999/02/22-rdf-syntax-ns#">
   <cc:Work>
    <dc:type rdf:resource="http://purl.org/dc/dcmitype/StillImage"/>
    <dc:date>2025-10-21T13:23:12.869161</dc:date>
    <dc:format>image/svg+xml</dc:format>
    <dc:creator>
     <cc:Agent>
      <dc:title>Matplotlib v3.10.3, https://matplotlib.org/</dc:title>
     </cc:Agent>
    </dc:creator>
   </cc:Work>
  </rdf:RDF>
 </metadata>
 <defs>
  <style type="text/css">*{stroke-linejoin: round; stroke-linecap: butt}</style>
 </defs>
 <g id="figure_1">
  <g id="patch_1">
   <path d="M 0 360 
L 720 360 
L 720 0 
L 0 0 
z
" style="fill: #ffffff"/>
  </g>
  <g id="axes_1">
   <g id="patch_2">
    <path d="M 90 320.4 
L 648 320.4 
L 648 43.2 
L 90 43.2 
z
" style="fill: #ffffff"/>
   </g>
   <g id="FillBetweenPolyCollection_1">
    <defs>
     <path id="m002582bfff" d="M 162.541166 -52.2 
L 156.958834 -52.2 
L 156.06096 -54.489336 
L 154.944984 -56.778672 
L 153.58166 -59.068007 
L 151.944956 -61.357343 
L 150.014432 -63.646679 
L 147.777757 -65.936015 
L 145.233151 -68.22535 
L 142.39153 -70.514686 
L 139.278069 -72.804022 
L 135.932973 -75.093358 
L 132.411232 -77.382694 
L 128.781258 -79.672029 
L 125.122385 -81.961365 
L 121.521337 -84.250701 
L 118.067891 -86.540037 
L 114.850054 -88.829372 
L 111.949151 -91.118708 
L 109.435257 -93.408044 
L 107.363367 -95.69738 
L 105.770634 -97.986715 
L 104.674903 -100.276051 
L 104.07461 -102.565387 
L 103.95 -104.854723 
L 104.265464 -107.144059 
L 104.972697 -109.433394 
L 106.014331 -111.72273 
L 107.32769 -114.012066 
L 108.848334 -116.301402 
L 110.513146 -118.590737 
L 112.26282 -120.880073 
L 114.043682 -123.169409 
L 115.80889 -125.458745 
L 117.519099 -127.748081 
L 119.142732 -130.037416 
L 120.655975 -132.326752 
L 122.042598 -134.616088 
L 123.293674 -136.905424 
L 124.40719 -139.194759 
L 125.387555 -141.484095 
L 126.244944 -143.773431 
L 126.994449 -146.062767 
L 127.655012 -148.352103 
L 128.248163 -150.641438 
L 128.796612 -152.930774 
L 129.32279 -155.22011 
L 129.847466 -157.509446 
L 130.388541 -159.798781 
L 130.960164 -162.088117 
L 131.572214 -164.377453 
L 132.2302 -166.666789 
L 132.935559 -168.956124 
L 133.686271 -171.24546 
L 134.477706 -173.534796 
L 135.303558 -175.824132 
L 136.156753 -178.113468 
L 137.030217 -180.402803 
L 137.917434 -182.692139 
L 138.812749 -184.981475 
L 139.71143 -187.270811 
L 140.60954 -189.560146 
L 141.503669 -191.849482 
L 142.390617 -194.138818 
L 143.267109 -196.428154 
L 144.129582 -198.71749 
L 144.974109 -201.006825 
L 145.796447 -203.296161 
L 146.592213 -205.585497 
L 147.357147 -207.874833 
L 148.087433 -210.164168 
L 148.780021 -212.453504 
L 149.432906 -214.74284 
L 150.045347 -217.032176 
L 150.61797 -219.321512 
L 151.152774 -221.610847 
L 151.653011 -223.900183 
L 152.122969 -226.189519 
L 152.567662 -228.478855 
L 152.992458 -230.76819 
L 153.402677 -233.057526 
L 153.803194 -235.346862 
L 154.198078 -237.636198 
L 154.5903 -239.925533 
L 154.981544 -242.214869 
L 155.372125 -244.504205 
L 155.761028 -246.793541 
L 156.146061 -249.082877 
L 156.524099 -251.372212 
L 156.8914 -253.661548 
L 157.243949 -255.950884 
L 157.577807 -258.24022 
L 157.889426 -260.529555 
L 158.175903 -262.818891 
L 158.43516 -265.108227 
L 158.666037 -267.397563 
L 158.868303 -269.686899 
L 159.042597 -271.976234 
L 159.190304 -274.26557 
L 159.313401 -276.554906 
L 159.41428 -278.844242 
L 160.08572 -278.844242 
L 160.08572 -278.844242 
L 160.186599 -276.554906 
L 160.309696 -274.26557 
L 160.457403 -271.976234 
L 160.631697 -269.686899 
L 160.833963 -267.397563 
L 161.06484 -265.108227 
L 161.324097 -262.818891 
L 161.610574 -260.529555 
L 161.922193 -258.24022 
L 162.256051 -255.950884 
L 162.6086 -253.661548 
L 162.975901 -251.372212 
L 163.353939 -249.082877 
L 163.738972 -246.793541 
L 164.127875 -244.504205 
L 164.518456 -242.214869 
L 164.9097 -239.925533 
L 165.301922 -237.636198 
L 165.696806 -235.346862 
L 166.097323 -233.057526 
L 166.507542 -230.76819 
L 166.932338 -228.478855 
L 167.377031 -226.189519 
L 167.846989 -223.900183 
L 168.347226 -221.610847 
L 168.88203 -219.321512 
L 169.454653 -217.032176 
L 170.067094 -214.74284 
L 170.719979 -212.453504 
L 171.412567 -210.164168 
L 172.142853 -207.874833 
L 172.907787 -205.585497 
L 173.703553 -203.296161 
L 174.525891 -201.006825 
L 175.370418 -198.71749 
L 176.232891 -196.428154 
L 177.109383 -194.138818 
L 177.996331 -191.849482 
L 178.89046 -189.560146 
L 179.78857 -187.270811 
L 180.687251 -184.981475 
L 181.582566 -182.692139 
L 182.469783 -180.402803 
L 183.343247 -178.113468 
L 184.196442 -175.824132 
L 185.022294 -173.534796 
L 185.813729 -171.24546 
L 186.564441 -168.956124 
L 187.2698 -166.666789 
L 187.927786 -164.377453 
L 188.539836 -162.088117 
L 189.111459 -159.798781 
L 189.652534 -157.509446 
L 190.17721 -155.22011 
L 190.703388 -152.930774 
L 191.251837 -150.641438 
L 191.844988 -148.352103 
L 192.505551 -146.062767 
L 193.255056 -143.773431 
L 194.112445 -141.484095 
L 195.09281 -139.194759 
L 196.206326 -136.905424 
L 197.457402 -134.616088 
L 198.844025 -132.326752 
L 200.357268 -130.037416 
L 201.980901 -127.748081 
L 203.69111 -125.458745 
L 205.456318 -123.169409 
L 207.23718 -120.880073 
L 208.986854 -118.590737 
L 210.651666 -116.301402 
L 212.17231 -114.012066 
L 213.485669 -111.72273 
L 214.527303 -109.433394 
L 215.234536 -107.144059 
L 215.55 -104.854723 
L 215.42539 -102.565387 
L 214.825097 -100.276051 
L 213.729366 -97.986715 
L 212.136633 -95.69738 
L 210.064743 -93.408044 
L 207.550849 -91.118708 
L 204.649946 -88.829372 
L 201.432109 -86.540037 
L 197.978663 -84.250701 
L 194.377615 -81.961365 
L 190.718742 -79.672029 
L 187.088768 -77.382694 
L 183.567027 -75.093358 
L 180.221931 -72.804022 
L 177.10847 -70.514686 
L 174.266849 -68.22535 
L 171.722243 -65.936015 
L 169.485568 -63.646679 
L 167.555044 -61.357343 
L 165.91834 -59.068007 
L 164.555016 -56.778672 
L 163.43904 -54.489336 
L 162.541166 -52.2 
z
" style="stroke: #3d3d3d; stroke-width: 1.25"/>
    </defs>
    <g clip-path="url(#p63e57b7701)">
     <use xlink:href="#m002582bfff" x="0" y="360" style="fill: #3274a1; stroke: #3d3d3d; stroke-width: 1.25"/>
    </g>
   </g>
   <g id="FillBetweenPolyCollection_2">
    <defs>
     <path id="mdcfee5dfa9" d="M 300.74921 -64.908864 
L 297.75079 -64.908864 
L 296.814638 -67.325946 
L 295.433616 -69.743029 
L 293.47991 -72.160111 
L 290.831827 -74.577193 
L 287.396921 -76.994275 
L 283.139455 -79.411357 
L 278.107269 -81.828439 
L 272.451292 -84.245522 
L 266.430651 -86.662604 
L 260.398165 -89.079686 
L 254.764969 -91.496768 
L 249.94833 -93.91385 
L 246.311781 -96.330933 
L 244.109898 -98.748015 
L 243.45 -101.165097 
L 244.279517 -103.582179 
L 246.401672 -105.999261 
L 249.515239 -108.416343 
L 253.268587 -110.833426 
L 257.315619 -113.250508 
L 261.362038 -115.66759 
L 265.194092 -118.084672 
L 268.687189 -120.501754 
L 271.796778 -122.918837 
L 274.537444 -125.335919 
L 276.957498 -127.753001 
L 279.115597 -130.170083 
L 281.063741 -132.587165 
L 282.838309 -135.004247 
L 284.458376 -137.42133 
L 285.929107 -139.838412 
L 287.24752 -142.255494 
L 288.40834 -144.672576 
L 289.408505 -147.089658 
L 290.249812 -149.506741 
L 290.939875 -151.923823 
L 291.491889 -154.340905 
L 291.923732 -156.757987 
L 292.256808 -159.175069 
L 292.514829 -161.592151 
L 292.722618 -164.009234 
L 292.904945 -166.426316 
L 293.085353 -168.843398 
L 293.284962 -171.26048 
L 293.521253 -173.677562 
L 293.806871 -176.094644 
L 294.148584 -178.511727 
L 294.54657 -180.928809 
L 294.994256 -183.345891 
L 295.478882 -185.762973 
L 295.982826 -188.180055 
L 296.485561 -190.597138 
L 296.96597 -193.01422 
L 297.404622 -195.431302 
L 297.785669 -197.848384 
L 298.098121 -200.265466 
L 298.33642 -202.682548 
L 298.500417 -205.099631 
L 298.594916 -207.516713 
L 298.62896 -209.933795 
L 298.614974 -212.350877 
L 298.56777 -214.767959 
L 298.503369 -217.185042 
L 298.437634 -219.602124 
L 298.38476 -222.019206 
L 298.355812 -224.436288 
L 298.35757 -226.85337 
L 298.391958 -229.270452 
L 298.456202 -231.687535 
L 298.543723 -234.104617 
L 298.64555 -236.521699 
L 298.751935 -238.938781 
L 298.853801 -241.355863 
L 298.943741 -243.772946 
L 299.016448 -246.190028 
L 299.068614 -248.60711 
L 299.098482 -251.024192 
L 299.105302 -253.441274 
L 299.088932 -255.858356 
L 299.049735 -258.275439 
L 298.988816 -260.692521 
L 298.90851 -263.109603 
L 298.812924 -265.526685 
L 298.708275 -267.943767 
L 298.602802 -270.360849 
L 298.506131 -272.777932 
L 298.42811 -275.195014 
L 298.377331 -277.612096 
L 298.35968 -280.029178 
L 298.377269 -282.44626 
L 298.428056 -284.863343 
L 298.506248 -287.280425 
L 298.603399 -289.697507 
L 298.70991 -292.114589 
L 298.816571 -294.531671 
L 298.915812 -296.948753 
L 299.002437 -299.365836 
L 299.073802 -301.782918 
L 299.129513 -304.2 
L 299.370487 -304.2 
L 299.370487 -304.2 
L 299.426198 -301.782918 
L 299.497563 -299.365836 
L 299.584188 -296.948753 
L 299.683429 -294.531671 
L 299.79009 -292.114589 
L 299.896601 -289.697507 
L 299.993752 -287.280425 
L 300.071944 -284.863343 
L 300.122731 -282.44626 
L 300.14032 -280.029178 
L 300.122669 -277.612096 
L 300.07189 -275.195014 
L 299.993869 -272.777932 
L 299.897198 -270.360849 
L 299.791725 -267.943767 
L 299.687076 -265.526685 
L 299.59149 -263.109603 
L 299.511184 -260.692521 
L 299.450265 -258.275439 
L 299.411068 -255.858356 
L 299.394698 -253.441274 
L 299.401518 -251.024192 
L 299.431386 -248.60711 
L 299.483552 -246.190028 
L 299.556259 -243.772946 
L 299.646199 -241.355863 
L 299.748065 -238.938781 
L 299.85445 -236.521699 
L 299.956277 -234.104617 
L 300.043798 -231.687535 
L 300.108042 -229.270452 
L 300.14243 -226.85337 
L 300.144188 -224.436288 
L 300.11524 -222.019206 
L 300.062366 -219.602124 
L 299.996631 -217.185042 
L 299.93223 -214.767959 
L 299.885026 -212.350877 
L 299.87104 -209.933795 
L 299.905084 -207.516713 
L 299.999583 -205.099631 
L 300.16358 -202.682548 
L 300.401879 -200.265466 
L 300.714331 -197.848384 
L 301.095378 -195.431302 
L 301.53403 -193.01422 
L 302.014439 -190.597138 
L 302.517174 -188.180055 
L 303.021118 -185.762973 
L 303.505744 -183.345891 
L 303.95343 -180.928809 
L 304.351416 -178.511727 
L 304.693129 -176.094644 
L 304.978747 -173.677562 
L 305.215038 -171.26048 
L 305.414647 -168.843398 
L 305.595055 -166.426316 
L 305.777382 -164.009234 
L 305.985171 -161.592151 
L 306.243192 -159.175069 
L 306.576268 -156.757987 
L 307.008111 -154.340905 
L 307.560125 -151.923823 
L 308.250188 -149.506741 
L 309.091495 -147.089658 
L 310.09166 -144.672576 
L 311.25248 -142.255494 
L 312.570893 -139.838412 
L 314.041624 -137.42133 
L 315.661691 -135.004247 
L 317.436259 -132.587165 
L 319.384403 -130.170083 
L 321.542502 -127.753001 
L 323.962556 -125.335919 
L 326.703222 -122.918837 
L 329.812811 -120.501754 
L 333.305908 -118.084672 
L 337.137962 -115.66759 
L 341.184381 -113.250508 
L 345.231413 -110.833426 
L 348.984761 -108.416343 
L 352.098328 -105.999261 
L 354.220483 -103.582179 
L 355.05 -101.165097 
L 354.390102 -98.748015 
L 352.188219 -96.330933 
L 348.55167 -93.91385 
L 343.735031 -91.496768 
L 338.101835 -89.079686 
L 332.069349 -86.662604 
L 326.048708 -84.245522 
L 320.392731 -81.828439 
L 315.360545 -79.411357 
L 311.103079 -76.994275 
L 307.668173 -74.577193 
L 305.02009 -72.160111 
L 303.066384 -69.743029 
L 301.685362 -67.325946 
L 300.74921 -64.908864 
z
" style="stroke: #3d3d3d; stroke-width: 1.25"/>
    </defs>
    <g clip-path="url(#p63e57b7701)">
     <use xlink:href="#mdcfee5dfa9" x="0" y="360" style="fill: #e1812c; stroke: #3d3d3d; stroke-width: 1.25"/>
    </g>
   </g>
   <g id="FillBetweenPolyCollection_3">
    <defs>
     <path id="mfe201fb27e" d="M 440.11149 -58.039563 
L 437.38851 -58.039563 
L 436.85863 -60.057772 
L 436.162689 -62.075981 
L 435.264763 -64.09419 
L 434.126936 -66.112399 
L 432.711276 -68.130608 
L 430.982465 -70.148816 
L 428.911004 -72.167025 
L 426.476831 -74.185234 
L 423.673102 -76.203443 
L 420.509775 -78.221652 
L 417.016598 -80.239861 
L 413.245063 -82.258069 
L 409.268922 -84.276278 
L 405.182973 -86.294487 
L 401.099925 -88.312696 
L 397.145413 -90.330905 
L 393.451374 -92.349113 
L 390.14827 -94.367322 
L 387.356783 -96.385531 
L 385.179732 -98.40374 
L 383.694974 -100.421949 
L 382.95 -102.440158 
L 382.958755 -104.458366 
L 383.700995 -106.476575 
L 385.124221 -108.494784 
L 387.14796 -110.512993 
L 389.669911 -112.531202 
L 392.573326 -114.549411 
L 395.734897 -116.567619 
L 399.032414 -118.585828 
L 402.351575 -120.604037 
L 405.59147 -122.622246 
L 408.668442 -124.640455 
L 411.518254 -126.658663 
L 414.09665 -128.676872 
L 416.378537 -130.695081 
L 418.356124 -132.71329 
L 420.036351 -134.731499 
L 421.437968 -136.749708 
L 422.588524 -138.767916 
L 423.521517 -140.786125 
L 424.273818 -142.804334 
L 424.883456 -144.822543 
L 425.387784 -146.840752 
L 425.821993 -148.858961 
L 426.217959 -150.877169 
L 426.603367 -152.895378 
L 427.001081 -154.913587 
L 427.428747 -156.931796 
L 427.898602 -158.950005 
L 428.417494 -160.968214 
L 428.987106 -162.986422 
L 429.604366 -165.004631 
L 430.262046 -167.02284 
L 430.949504 -169.041049 
L 431.65353 -171.059258 
L 432.35926 -173.077466 
L 433.051094 -175.095675 
L 433.713563 -177.113884 
L 434.332104 -179.132093 
L 434.893703 -181.150302 
L 435.38739 -183.168511 
L 435.804571 -185.186719 
L 436.13922 -187.204928 
L 436.387942 -189.223137 
L 436.549946 -191.241346 
L 436.626951 -193.259555 
L 436.623049 -195.277764 
L 436.544548 -197.295972 
L 436.399801 -199.314181 
L 436.199013 -201.33239 
L 435.954003 -203.350599 
L 435.677932 -205.368808 
L 435.384945 -207.387016 
L 435.08974 -209.405225 
L 434.807051 -211.423434 
L 434.551073 -213.441643 
L 434.334828 -215.459852 
L 434.169556 -217.478061 
L 434.06413 -219.496269 
L 434.024595 -221.514478 
L 434.053849 -223.532687 
L 434.15151 -225.550896 
L 434.314002 -227.569105 
L 434.534849 -229.587314 
L 434.805157 -231.605522 
L 435.114252 -233.623731 
L 435.450405 -235.64194 
L 435.801596 -237.660149 
L 436.156232 -239.678358 
L 436.503779 -241.696566 
L 436.83525 -243.714775 
L 437.143532 -245.732984 
L 437.423535 -247.751193 
L 437.672174 -249.769402 
L 437.888218 -251.787611 
L 438.072029 -253.805819 
L 438.225242 -255.824028 
L 438.350411 -257.842237 
L 439.149589 -257.842237 
L 439.149589 -257.842237 
L 439.274758 -255.824028 
L 439.427971 -253.805819 
L 439.611782 -251.787611 
L 439.827826 -249.769402 
L 440.076465 -247.751193 
L 440.356468 -245.732984 
L 440.66475 -243.714775 
L 440.996221 -241.696566 
L 441.343768 -239.678358 
L 441.698404 -237.660149 
L 442.049595 -235.64194 
L 442.385748 -233.623731 
L 442.694843 -231.605522 
L 442.965151 -229.587314 
L 443.185998 -227.569105 
L 443.34849 -225.550896 
L 443.446151 -223.532687 
L 443.475405 -221.514478 
L 443.43587 -219.496269 
L 443.330444 -217.478061 
L 443.165172 -215.459852 
L 442.948927 -213.441643 
L 442.692949 -211.423434 
L 442.41026 -209.405225 
L 442.115055 -207.387016 
L 441.822068 -205.368808 
L 441.545997 -203.350599 
L 441.300987 -201.33239 
L 441.100199 -199.314181 
L 440.955452 -197.295972 
L 440.876951 -195.277764 
L 440.873049 -193.259555 
L 440.950054 -191.241346 
L 441.112058 -189.223137 
L 441.36078 -187.204928 
L 441.695429 -185.186719 
L 442.11261 -183.168511 
L 442.606297 -181.150302 
L 443.167896 -179.132093 
L 443.786437 -177.113884 
L 444.448906 -175.095675 
L 445.14074 -173.077466 
L 445.84647 -171.059258 
L 446.550496 -169.041049 
L 447.237954 -167.02284 
L 447.895634 -165.004631 
L 448.512894 -162.986422 
L 449.082506 -160.968214 
L 449.601398 -158.950005 
L 450.071253 -156.931796 
L 450.498919 -154.913587 
L 450.896633 -152.895378 
L 451.282041 -150.877169 
L 451.678007 -148.858961 
L 452.112216 -146.840752 
L 452.616544 -144.822543 
L 453.226182 -142.804334 
L 453.978483 -140.786125 
L 454.911476 -138.767916 
L 456.062032 -136.749708 
L 457.463649 -134.731499 
L 459.143876 -132.71329 
L 461.121463 -130.695081 
L 463.40335 -128.676872 
L 465.981746 -126.658663 
L 468.831558 -124.640455 
L 471.90853 -122.622246 
L 475.148425 -120.604037 
L 478.467586 -118.585828 
L 481.765103 -116.567619 
L 484.926674 -114.549411 
L 487.830089 -112.531202 
L 490.35204 -110.512993 
L 492.375779 -108.494784 
L 493.799005 -106.476575 
L 494.541245 -104.458366 
L 494.55 -102.440158 
L 493.805026 -100.421949 
L 492.320268 -98.40374 
L 490.143217 -96.385531 
L 487.35173 -94.367322 
L 484.048626 -92.349113 
L 480.354587 -90.330905 
L 476.400075 -88.312696 
L 472.317027 -86.294487 
L 468.231078 -84.276278 
L 464.254937 -82.258069 
L 460.483402 -80.239861 
L 456.990225 -78.221652 
L 453.826898 -76.203443 
L 451.023169 -74.185234 
L 448.588996 -72.167025 
L 446.517535 -70.148816 
L 444.788724 -68.130608 
L 443.373064 -66.112399 
L 442.235237 -64.09419 
L 441.337311 -62.075981 
L 440.64137 -60.057772 
L 440.11149 -58.039563 
z
" style="stroke: #3d3d3d; stroke-width: 1.25"/>
    </defs>
    <g clip-path="url(#p63e57b7701)">
     <use xlink:href="#mfe201fb27e" x="0" y="360" style="fill: #3a923a; stroke: #3d3d3d; stroke-width: 1.25"/>
    </g>
   </g>
   <g id="FillBetweenPolyCollection_4">
    <defs>
     <path id="mdd3f733f8a" d="M 581.280439 -53.881178 
L 575.219561 -53.881178 
L 574.307689 -55.997854 
L 573.188558 -58.11453 
L 571.83631 -60.231206 
L 570.227921 -62.347881 
L 568.345132 -64.464557 
L 566.176481 -66.581233 
L 563.719315 -68.697909 
L 560.981594 -70.814585 
L 557.983319 -72.93126 
L 554.757409 -75.047936 
L 551.349867 -77.164612 
L 547.819148 -79.281288 
L 544.234672 -81.397963 
L 540.674511 -83.514639 
L 537.22236 -85.631315 
L 533.963944 -87.747991 
L 530.983106 -89.864666 
L 528.357815 -91.981342 
L 526.156374 -94.098018 
L 524.434083 -96.214694 
L 523.230573 -98.331369 
L 522.567971 -100.448045 
L 522.45 -102.564721 
L 522.862043 -104.681397 
L 523.772124 -106.798072 
L 525.132722 -108.914748 
L 526.883269 -111.031424 
L 528.953184 -113.1481 
L 531.265225 -115.264776 
L 533.739013 -117.381451 
L 536.294523 -119.498127 
L 538.855375 -121.614803 
L 541.351807 -123.731479 
L 543.723172 -125.848154 
L 545.919891 -127.96483 
L 547.904777 -130.081506 
L 549.653706 -132.198182 
L 551.155617 -134.314857 
L 552.41188 -136.431533 
L 553.435094 -138.548209 
L 554.247395 -140.664885 
L 554.878413 -142.78156 
L 555.362987 -144.898236 
L 555.738814 -147.014912 
L 556.044146 -149.131588 
L 556.315686 -151.248264 
L 556.586795 -153.364939 
L 556.886078 -155.481615 
L 557.236413 -157.598291 
L 557.654428 -159.714967 
L 558.150417 -161.831642 
L 558.728628 -163.948318 
L 559.387877 -166.064994 
L 560.12238 -168.18167 
L 560.92273 -170.298345 
L 561.776922 -172.415021 
L 562.671346 -174.531697 
L 563.591694 -176.648373 
L 564.523722 -178.765048 
L 565.453854 -180.881724 
L 566.369606 -182.9984 
L 567.25985 -185.115076 
L 568.114943 -187.231752 
L 568.926741 -189.348427 
L 569.688555 -191.465103 
L 570.39507 -193.581779 
L 571.042268 -195.698455 
L 571.627381 -197.81513 
L 572.148881 -199.931806 
L 572.606511 -202.048482 
L 573.001336 -204.165158 
L 573.335814 -206.281833 
L 573.613825 -208.398509 
L 573.84066 -210.515185 
L 574.022926 -212.631861 
L 574.168361 -214.748536 
L 574.285549 -216.865212 
L 574.383541 -218.981888 
L 574.471418 -221.098564 
L 574.557819 -223.215239 
L 574.650472 -225.331915 
L 574.755786 -227.448591 
L 574.878527 -229.565267 
L 575.021616 -231.681943 
L 575.186064 -233.798618 
L 575.37105 -235.915294 
L 575.574124 -238.03197 
L 575.791522 -240.148646 
L 576.018547 -242.265321 
L 576.249982 -244.381997 
L 576.480506 -246.498673 
L 576.705064 -248.615349 
L 576.919175 -250.732024 
L 577.11915 -252.8487 
L 577.302232 -254.965376 
L 577.466632 -257.082052 
L 577.611502 -259.198727 
L 577.736839 -261.315403 
L 577.843345 -263.432079 
L 578.656655 -263.432079 
L 578.656655 -263.432079 
L 578.763161 -261.315403 
L 578.888498 -259.198727 
L 579.033368 -257.082052 
L 579.197768 -254.965376 
L 579.38085 -252.8487 
L 579.580825 -250.732024 
L 579.794936 -248.615349 
L 580.019494 -246.498673 
L 580.250018 -244.381997 
L 580.481453 -242.265321 
L 580.708478 -240.148646 
L 580.925876 -238.03197 
L 581.12895 -235.915294 
L 581.313936 -233.798618 
L 581.478384 -231.681943 
L 581.621473 -229.565267 
L 581.744214 -227.448591 
L 581.849528 -225.331915 
L 581.942181 -223.215239 
L 582.028582 -221.098564 
L 582.116459 -218.981888 
L 582.214451 -216.865212 
L 582.331639 -214.748536 
L 582.477074 -212.631861 
L 582.65934 -210.515185 
L 582.886175 -208.398509 
L 583.164186 -206.281833 
L 583.498664 -204.165158 
L 583.893489 -202.048482 
L 584.351119 -199.931806 
L 584.872619 -197.81513 
L 585.457732 -195.698455 
L 586.10493 -193.581779 
L 586.811445 -191.465103 
L 587.573259 -189.348427 
L 588.385057 -187.231752 
L 589.24015 -185.115076 
L 590.130394 -182.9984 
L 591.046146 -180.881724 
L 591.976278 -178.765048 
L 592.908306 -176.648373 
L 593.828654 -174.531697 
L 594.723078 -172.415021 
L 595.57727 -170.298345 
L 596.37762 -168.18167 
L 597.112123 -166.064994 
L 597.771372 -163.948318 
L 598.349583 -161.831642 
L 598.845572 -159.714967 
L 599.263587 -157.598291 
L 599.613922 -155.481615 
L 599.913205 -153.364939 
L 600.184314 -151.248264 
L 600.455854 -149.131588 
L 600.761186 -147.014912 
L 601.137013 -144.898236 
L 601.621587 -142.78156 
L 602.252605 -140.664885 
L 603.064906 -138.548209 
L 604.08812 -136.431533 
L 605.344383 -134.314857 
L 606.846294 -132.198182 
L 608.595223 -130.081506 
L 610.580109 -127.96483 
L 612.776828 -125.848154 
L 615.148193 -123.731479 
L 617.644625 -121.614803 
L 620.205477 -119.498127 
L 622.760987 -117.381451 
L 625.234775 -115.264776 
L 627.546816 -113.1481 
L 629.616731 -111.031424 
L 631.367278 -108.914748 
L 632.727876 -106.798072 
L 633.637957 -104.681397 
L 634.05 -102.564721 
L 633.932029 -100.448045 
L 633.269427 -98.331369 
L 632.065917 -96.214694 
L 630.343626 -94.098018 
L 628.142185 -91.981342 
L 625.516894 -89.864666 
L 622.536056 -87.747991 
L 619.27764 -85.631315 
L 615.825489 -83.514639 
L 612.265328 -81.397963 
L 608.680852 -79.281288 
L 605.150133 -77.164612 
L 601.742591 -75.047936 
L 598.516681 -72.93126 
L 595.518406 -70.814585 
L 592.780685 -68.697909 
L 590.323519 -66.581233 
L 588.154868 -64.464557 
L 586.272079 -62.347881 
L 584.66369 -60.231206 
L 583.311442 -58.11453 
L 582.192311 -55.997854 
L 581.280439 -53.881178 
z
" style="stroke: #3d3d3d; stroke-width: 1.25"/>
    </defs>
    <g clip-path="url(#p63e57b7701)">
     <use xlink:href="#mdd3f733f8a" x="0" y="360" style="fill: #c03d3e; stroke: #3d3d3d; stroke-width: 1.25"/>
    </g>
   </g>
   <g id="matplotlib.axis_1">
    <g id="xtick_1">
     <g id="line2d_1">
      <defs>
       <path id="m800b22e08c" d="M 0 0 
L 0 3.5 
" style="stroke: #000000; stroke-width: 0.8"/>
      </defs>
      <g>
       <use xlink:href="#m800b22e08c" x="159.75" y="320.4" style="stroke: #000000; stroke-width: 0.8"/>
      </g>
     </g>
     <g id="text_1">
      <!-- Spurious -->
      <g transform="translate(137.955469 334.998438) scale(0.1 -0.1)">
       <defs>
        <path id="DejaVuSans-53" d="M 3425 4513 
L 3425 3897 
Q 3066 4069 2747 4153 
Q 2428 4238 2131 4238 
Q 1616 4238 1336 4038 
Q 1056 3838 1056 3469 
Q 1056 3159 1242 3001 
Q 1428 2844 1947 2747 
L 2328 2669 
Q 3034 2534 3370 2195 
Q 3706 1856 3706 1288 
Q 3706 609 3251 259 
Q 2797 -91 1919 -91 
Q 1588 -91 1214 -16 
Q 841 59 441 206 
L 441 856 
Q 825 641 1194 531 
Q 1563 422 1919 422 
Q 2459 422 2753 634 
Q 3047 847 3047 1241 
Q 3047 1584 2836 1778 
Q 2625 1972 2144 2069 
L 1759 2144 
Q 1053 2284 737 2584 
Q 422 2884 422 3419 
Q 422 4038 858 4394 
Q 1294 4750 2059 4750 
Q 2388 4750 2728 4690 
Q 3069 4631 3425 4513 
z
" transform="scale(0.015625)"/>
        <path id="DejaVuSans-70" d="M 1159 525 
L 1159 -1331 
L 581 -1331 
L 581 3500 
L 1159 3500 
L 1159 2969 
Q 1341 3281 1617 3432 
Q 1894 3584 2278 3584 
Q 2916 3584 3314 3078 
Q 3713 2572 3713 1747 
Q 3713 922 3314 415 
Q 2916 -91 2278 -91 
Q 1894 -91 1617 61 
Q 1341 213 1159 525 
z
M 3116 1747 
Q 3116 2381 2855 2742 
Q 2594 3103 2138 3103 
Q 1681 3103 1420 2742 
Q 1159 2381 1159 1747 
Q 1159 1113 1420 752 
Q 1681 391 2138 391 
Q 2594 391 2855 752 
Q 3116 1113 3116 1747 
z
" transform="scale(0.015625)"/>
        <path id="DejaVuSans-75" d="M 544 1381 
L 544 3500 
L 1119 3500 
L 1119 1403 
Q 1119 906 1312 657 
Q 1506 409 1894 409 
Q 2359 409 2629 706 
Q 2900 1003 2900 1516 
L 2900 3500 
L 3475 3500 
L 3475 0 
L 2900 0 
L 2900 538 
Q 2691 219 2414 64 
Q 2138 -91 1772 -91 
Q 1169 -91 856 284 
Q 544 659 544 1381 
z
M 1991 3584 
L 1991 3584 
z
" transform="scale(0.015625)"/>
        <path id="DejaVuSans-72" d="M 2631 2963 
Q 2534 3019 2420 3045 
Q 2306 3072 2169 3072 
Q 1681 3072 1420 2755 
Q 1159 2438 1159 1844 
L 1159 0 
L 581 0 
L 581 3500 
L 1159 3500 
L 1159 2956 
Q 1341 3275 1631 3429 
Q 1922 3584 2338 3584 
Q 2397 3584 2469 3576 
Q 2541 3569 2628 3553 
L 2631 2963 
z
" transform="scale(0.015625)"/>
        <path id="DejaVuSans-69" d="M 603 3500 
L 1178 3500 
L 1178 0 
L 603 0 
L 603 3500 
z
M 603 4863 
L 1178 4863 
L 1178 4134 
L 603 4134 
L 603 4863 
z
" transform="scale(0.015625)"/>
        <path id="DejaVuSans-6f" d="M 1959 3097 
Q 1497 3097 1228 2736 
Q 959 2375 959 1747 
Q 959 1119 1226 758 
Q 1494 397 1959 397 
Q 2419 397 2687 759 
Q 2956 1122 2956 1747 
Q 2956 2369 2687 2733 
Q 2419 3097 1959 3097 
z
M 1959 3584 
Q 2709 3584 3137 3096 
Q 3566 2609 3566 1747 
Q 3566 888 3137 398 
Q 2709 -91 1959 -91 
Q 1206 -91 779 398 
Q 353 888 353 1747 
Q 353 2609 779 3096 
Q 1206 3584 1959 3584 
z
" transform="scale(0.015625)"/>
        <path id="DejaVuSans-73" d="M 2834 3397 
L 2834 2853 
Q 2591 2978 2328 3040 
Q 2066 3103 1784 3103 
Q 1356 3103 1142 2972 
Q 928 2841 928 2578 
Q 928 2378 1081 2264 
Q 1234 2150 1697 2047 
L 1894 2003 
Q 2506 1872 2764 1633 
Q 3022 1394 3022 966 
Q 3022 478 2636 193 
Q 2250 -91 1575 -91 
Q 1294 -91 989 -36 
Q 684 19 347 128 
L 347 722 
Q 666 556 975 473 
Q 1284 391 1588 391 
Q 1994 391 2212 530 
Q 2431 669 2431 922 
Q 2431 1156 2273 1281 
Q 2116 1406 1581 1522 
L 1381 1569 
Q 847 1681 609 1914 
Q 372 2147 372 2553 
Q 372 3047 722 3315 
Q 1072 3584 1716 3584 
Q 2034 3584 2315 3537 
Q 2597 3491 2834 3397 
z
" transform="scale(0.015625)"/>
       </defs>
       <use xlink:href="#DejaVuSans-53"/>
       <use xlink:href="#DejaVuSans-70" transform="translate(63.476562 0)"/>
       <use xlink:href="#DejaVuSans-75" transform="translate(126.953125 0)"/>
       <use xlink:href="#DejaVuSans-72" transform="translate(190.332031 0)"/>
       <use xlink:href="#DejaVuSans-69" transform="translate(231.445312 0)"/>
       <use xlink:href="#DejaVuSans-6f" transform="translate(259.228516 0)"/>
       <use xlink:href="#DejaVuSans-75" transform="translate(320.410156 0)"/>
       <use xlink:href="#DejaVuSans-73" transform="translate(383.789062 0)"/>
      </g>
     </g>
    </g>
    <g id="xtick_2">
     <g id="line2d_2">
      <g>
       <use xlink:href="#m800b22e08c" x="299.25" y="320.4" style="stroke: #000000; stroke-width: 0.8"/>
      </g>
     </g>
     <g id="text_2">
      <!-- Specific -->
      <g transform="translate(279.788281 334.998438) scale(0.1 -0.1)">
       <defs>
        <path id="DejaVuSans-65" d="M 3597 1894 
L 3597 1613 
L 953 1613 
Q 991 1019 1311 708 
Q 1631 397 2203 397 
Q 2534 397 2845 478 
Q 3156 559 3463 722 
L 3463 178 
Q 3153 47 2828 -22 
Q 2503 -91 2169 -91 
Q 1331 -91 842 396 
Q 353 884 353 1716 
Q 353 2575 817 3079 
Q 1281 3584 2069 3584 
Q 2775 3584 3186 3129 
Q 3597 2675 3597 1894 
z
M 3022 2063 
Q 3016 2534 2758 2815 
Q 2500 3097 2075 3097 
Q 1594 3097 1305 2825 
Q 1016 2553 972 2059 
L 3022 2063 
z
" transform="scale(0.015625)"/>
        <path id="DejaVuSans-63" d="M 3122 3366 
L 3122 2828 
Q 2878 2963 2633 3030 
Q 2388 3097 2138 3097 
Q 1578 3097 1268 2742 
Q 959 2388 959 1747 
Q 959 1106 1268 751 
Q 1578 397 2138 397 
Q 2388 397 2633 464 
Q 2878 531 3122 666 
L 3122 134 
Q 2881 22 2623 -34 
Q 2366 -91 2075 -91 
Q 1284 -91 818 406 
Q 353 903 353 1747 
Q 353 2603 823 3093 
Q 1294 3584 2113 3584 
Q 2378 3584 2631 3529 
Q 2884 3475 3122 3366 
z
" transform="scale(0.015625)"/>
        <path id="DejaVuSans-66" d="M 2375 4863 
L 2375 4384 
L 1825 4384 
Q 1516 4384 1395 4259 
Q 1275 4134 1275 3809 
L 1275 3500 
L 2222 3500 
L 2222 3053 
L 1275 3053 
L 1275 0 
L 697 0 
L 697 3053 
L 147 3053 
L 147 3500 
L 697 3500 
L 697 3744 
Q 697 4328 969 4595 
Q 1241 4863 1831 4863 
L 2375 4863 
z
" transform="scale(0.015625)"/>
       </defs>
       <use xlink:href="#DejaVuSans-53"/>
       <use xlink:href="#DejaVuSans-70" transform="translate(63.476562 0)"/>
       <use xlink:href="#DejaVuSans-65" transform="translate(126.953125 0)"/>
       <use xlink:href="#DejaVuSans-63" transform="translate(188.476562 0)"/>
       <use xlink:href="#DejaVuSans-69" transform="translate(243.457031 0)"/>
       <use xlink:href="#DejaVuSans-66" transform="translate(271.240234 0)"/>
       <use xlink:href="#DejaVuSans-69" transform="translate(306.445312 0)"/>
       <use xlink:href="#DejaVuSans-63" transform="translate(334.228516 0)"/>
      </g>
     </g>
    </g>
    <g id="xtick_3">
     <g id="line2d_3">
      <g>
       <use xlink:href="#m800b22e08c" x="438.75" y="320.4" style="stroke: #000000; stroke-width: 0.8"/>
      </g>
     </g>
     <g id="text_3">
      <!-- Non-specific -->
      <g transform="translate(408.085156 334.998438) scale(0.1 -0.1)">
       <defs>
        <path id="DejaVuSans-4e" d="M 628 4666 
L 1478 4666 
L 3547 763 
L 3547 4666 
L 4159 4666 
L 4159 0 
L 3309 0 
L 1241 3903 
L 1241 0 
L 628 0 
L 628 4666 
z
" transform="scale(0.015625)"/>
        <path id="DejaVuSans-6e" d="M 3513 2113 
L 3513 0 
L 2938 0 
L 2938 2094 
Q 2938 2591 2744 2837 
Q 2550 3084 2163 3084 
Q 1697 3084 1428 2787 
Q 1159 2491 1159 1978 
L 1159 0 
L 581 0 
L 581 3500 
L 1159 3500 
L 1159 2956 
Q 1366 3272 1645 3428 
Q 1925 3584 2291 3584 
Q 2894 3584 3203 3211 
Q 3513 2838 3513 2113 
z
" transform="scale(0.015625)"/>
        <path id="DejaVuSans-2d" d="M 313 2009 
L 1997 2009 
L 1997 1497 
L 313 1497 
L 313 2009 
z
" transform="scale(0.015625)"/>
       </defs>
       <use xlink:href="#DejaVuSans-4e"/>
       <use xlink:href="#DejaVuSans-6f" transform="translate(74.804688 0)"/>
       <use xlink:href="#DejaVuSans-6e" transform="translate(135.986328 0)"/>
       <use xlink:href="#DejaVuSans-2d" transform="translate(199.365234 0)"/>
       <use xlink:href="#DejaVuSans-73" transform="translate(235.449219 0)"/>
       <use xlink:href="#DejaVuSans-70" transform="translate(287.548828 0)"/>
       <use xlink:href="#DejaVuSans-65" transform="translate(351.025391 0)"/>
       <use xlink:href="#DejaVuSans-63" transform="translate(412.548828 0)"/>
       <use xlink:href="#DejaVuSans-69" transform="translate(467.529297 0)"/>
       <use xlink:href="#DejaVuSans-66" transform="translate(495.3125 0)"/>
       <use xlink:href="#DejaVuSans-69" transform="translate(530.517578 0)"/>
       <use xlink:href="#DejaVuSans-63" transform="translate(558.300781 0)"/>
      </g>
     </g>
    </g>
    <g id="xtick_4">
     <g id="line2d_4">
      <g>
       <use xlink:href="#m800b22e08c" x="578.25" y="320.4" style="stroke: #000000; stroke-width: 0.8"/>
      </g>
     </g>
     <g id="text_4">
      <!-- No -->
      <g transform="translate(571.45 334.998438) scale(0.1 -0.1)">
       <use xlink:href="#DejaVuSans-4e"/>
       <use xlink:href="#DejaVuSans-6f" transform="translate(74.804688 0)"/>
      </g>
     </g>
    </g>
    <g id="text_5">
     <!-- Connectivity category -->
     <g transform="translate(313.98125 348.676562) scale(0.1 -0.1)">
      <defs>
       <path id="DejaVuSans-43" d="M 4122 4306 
L 4122 3641 
Q 3803 3938 3442 4084 
Q 3081 4231 2675 4231 
Q 1875 4231 1450 3742 
Q 1025 3253 1025 2328 
Q 1025 1406 1450 917 
Q 1875 428 2675 428 
Q 3081 428 3442 575 
Q 3803 722 4122 1019 
L 4122 359 
Q 3791 134 3420 21 
Q 3050 -91 2638 -91 
Q 1578 -91 968 557 
Q 359 1206 359 2328 
Q 359 3453 968 4101 
Q 1578 4750 2638 4750 
Q 3056 4750 3426 4639 
Q 3797 4528 4122 4306 
z
" transform="scale(0.015625)"/>
       <path id="DejaVuSans-74" d="M 1172 4494 
L 1172 3500 
L 2356 3500 
L 2356 3053 
L 1172 3053 
L 1172 1153 
Q 1172 725 1289 603 
Q 1406 481 1766 481 
L 2356 481 
L 2356 0 
L 1766 0 
Q 1100 0 847 248 
Q 594 497 594 1153 
L 594 3053 
L 172 3053 
L 172 3500 
L 594 3500 
L 594 4494 
L 1172 4494 
z
" transform="scale(0.015625)"/>
       <path id="DejaVuSans-76" d="M 191 3500 
L 800 3500 
L 1894 563 
L 2988 3500 
L 3597 3500 
L 2284 0 
L 1503 0 
L 191 3500 
z
" transform="scale(0.015625)"/>
       <path id="DejaVuSans-79" d="M 2059 -325 
Q 1816 -950 1584 -1140 
Q 1353 -1331 966 -1331 
L 506 -1331 
L 506 -850 
L 844 -850 
Q 1081 -850 1212 -737 
Q 1344 -625 1503 -206 
L 1606 56 
L 191 3500 
L 800 3500 
L 1894 763 
L 2988 3500 
L 3597 3500 
L 2059 -325 
z
" transform="scale(0.015625)"/>
       <path id="DejaVuSans-20" transform="scale(0.015625)"/>
       <path id="DejaVuSans-61" d="M 2194 1759 
Q 1497 1759 1228 1600 
Q 959 1441 959 1056 
Q 959 750 1161 570 
Q 1363 391 1709 391 
Q 2188 391 2477 730 
Q 2766 1069 2766 1631 
L 2766 1759 
L 2194 1759 
z
M 3341 1997 
L 3341 0 
L 2766 0 
L 2766 531 
Q 2569 213 2275 61 
Q 1981 -91 1556 -91 
Q 1019 -91 701 211 
Q 384 513 384 1019 
Q 384 1609 779 1909 
Q 1175 2209 1959 2209 
L 2766 2209 
L 2766 2266 
Q 2766 2663 2505 2880 
Q 2244 3097 1772 3097 
Q 1472 3097 1187 3025 
Q 903 2953 641 2809 
L 641 3341 
Q 956 3463 1253 3523 
Q 1550 3584 1831 3584 
Q 2591 3584 2966 3190 
Q 3341 2797 3341 1997 
z
" transform="scale(0.015625)"/>
       <path id="DejaVuSans-67" d="M 2906 1791 
Q 2906 2416 2648 2759 
Q 2391 3103 1925 3103 
Q 1463 3103 1205 2759 
Q 947 2416 947 1791 
Q 947 1169 1205 825 
Q 1463 481 1925 481 
Q 2391 481 2648 825 
Q 2906 1169 2906 1791 
z
M 3481 434 
Q 3481 -459 3084 -895 
Q 2688 -1331 1869 -1331 
Q 1566 -1331 1297 -1286 
Q 1028 -1241 775 -1147 
L 775 -588 
Q 1028 -725 1275 -790 
Q 1522 -856 1778 -856 
Q 2344 -856 2625 -561 
Q 2906 -266 2906 331 
L 2906 616 
Q 2728 306 2450 153 
Q 2172 0 1784 0 
Q 1141 0 747 490 
Q 353 981 353 1791 
Q 353 2603 747 3093 
Q 1141 3584 1784 3584 
Q 2172 3584 2450 3431 
Q 2728 3278 2906 2969 
L 2906 3500 
L 3481 3500 
L 3481 434 
z
" transform="scale(0.015625)"/>
      </defs>
      <use xlink:href="#DejaVuSans-43"/>
      <use xlink:href="#DejaVuSans-6f" transform="translate(69.824219 0)"/>
      <use xlink:href="#DejaVuSans-6e" transform="translate(131.005859 0)"/>
      <use xlink:href="#DejaVuSans-6e" transform="translate(194.384766 0)"/>
      <use xlink:href="#DejaVuSans-65" transform="translate(257.763672 0)"/>
      <use xlink:href="#DejaVuSans-63" transform="translate(319.287109 0)"/>
      <use xlink:href="#DejaVuSans-74" transform="translate(374.267578 0)"/>
      <use xlink:href="#DejaVuSans-69" transform="translate(413.476562 0)"/>
      <use xlink:href="#DejaVuSans-76" transform="translate(441.259766 0)"/>
      <use xlink:href="#DejaVuSans-69" transform="translate(500.439453 0)"/>
      <use xlink:href="#DejaVuSans-74" transform="translate(528.222656 0)"/>
      <use xlink:href="#DejaVuSans-79" transform="translate(567.431641 0)"/>
      <use xlink:href="#DejaVuSans-20" transform="translate(626.611328 0)"/>
      <use xlink:href="#DejaVuSans-63" transform="translate(658.398438 0)"/>
      <use xlink:href="#DejaVuSans-61" transform="translate(713.378906 0)"/>
      <use xlink:href="#DejaVuSans-74" transform="translate(774.658203 0)"/>
      <use xlink:href="#DejaVuSans-65" transform="translate(813.867188 0)"/>
      <use xlink:href="#DejaVuSans-67" transform="translate(875.390625 0)"/>
      <use xlink:href="#DejaVuSans-6f" transform="translate(938.867188 0)"/>
      <use xlink:href="#DejaVuSans-72" transform="translate(1000.048828 0)"/>
      <use xlink:href="#DejaVuSans-79" transform="translate(1041.162109 0)"/>
     </g>
    </g>
   </g>
   <g id="matplotlib.axis_2">
    <g id="ytick_1">
     <g id="line2d_5">
      <defs>
       <path id="mfa387a5bf9" d="M 0 0 
L -3.5 0 
" style="stroke: #000000; stroke-width: 0.8"/>
      </defs>
      <g>
       <use xlink:href="#mfa387a5bf9" x="90" y="316.664036" style="stroke: #000000; stroke-width: 0.8"/>
      </g>
     </g>
     <g id="text_6">
      <!-- −0.5 -->
      <g transform="translate(58.717187 320.463255) scale(0.1 -0.1)">
       <defs>
        <path id="DejaVuSans-2212" d="M 678 2272 
L 4684 2272 
L 4684 1741 
L 678 1741 
L 678 2272 
z
" transform="scale(0.015625)"/>
        <path id="DejaVuSans-30" d="M 2034 4250 
Q 1547 4250 1301 3770 
Q 1056 3291 1056 2328 
Q 1056 1369 1301 889 
Q 1547 409 2034 409 
Q 2525 409 2770 889 
Q 3016 1369 3016 2328 
Q 3016 3291 2770 3770 
Q 2525 4250 2034 4250 
z
M 2034 4750 
Q 2819 4750 3233 4129 
Q 3647 3509 3647 2328 
Q 3647 1150 3233 529 
Q 2819 -91 2034 -91 
Q 1250 -91 836 529 
Q 422 1150 422 2328 
Q 422 3509 836 4129 
Q 1250 4750 2034 4750 
z
" transform="scale(0.015625)"/>
        <path id="DejaVuSans-2e" d="M 684 794 
L 1344 794 
L 1344 0 
L 684 0 
L 684 794 
z
" transform="scale(0.015625)"/>
        <path id="DejaVuSans-35" d="M 691 4666 
L 3169 4666 
L 3169 4134 
L 1269 4134 
L 1269 2991 
Q 1406 3038 1543 3061 
Q 1681 3084 1819 3084 
Q 2600 3084 3056 2656 
Q 3513 2228 3513 1497 
Q 3513 744 3044 326 
Q 2575 -91 1722 -91 
Q 1428 -91 1123 -41 
Q 819 9 494 109 
L 494 744 
Q 775 591 1075 516 
Q 1375 441 1709 441 
Q 2250 441 2565 725 
Q 2881 1009 2881 1497 
Q 2881 1984 2565 2268 
Q 2250 2553 1709 2553 
Q 1456 2553 1204 2497 
Q 953 2441 691 2322 
L 691 4666 
z
" transform="scale(0.015625)"/>
       </defs>
       <use xlink:href="#DejaVuSans-2212"/>
       <use xlink:href="#DejaVuSans-30" transform="translate(83.789062 0)"/>
       <use xlink:href="#DejaVuSans-2e" transform="translate(147.412109 0)"/>
       <use xlink:href="#DejaVuSans-35" transform="translate(179.199219 0)"/>
      </g>
     </g>
    </g>
    <g id="ytick_2">
     <g id="line2d_6">
      <g>
       <use xlink:href="#mfa387a5bf9" x="90" y="272.945046" style="stroke: #000000; stroke-width: 0.8"/>
      </g>
     </g>
     <g id="text_7">
      <!-- 0.0 -->
      <g transform="translate(67.096875 276.744264) scale(0.1 -0.1)">
       <use xlink:href="#DejaVuSans-30"/>
       <use xlink:href="#DejaVuSans-2e" transform="translate(63.623047 0)"/>
       <use xlink:href="#DejaVuSans-30" transform="translate(95.410156 0)"/>
      </g>
     </g>
    </g>
    <g id="ytick_3">
     <g id="line2d_7">
      <g>
       <use xlink:href="#mfa387a5bf9" x="90" y="229.226055" style="stroke: #000000; stroke-width: 0.8"/>
      </g>
     </g>
     <g id="text_8">
      <!-- 0.5 -->
      <g transform="translate(67.096875 233.025274) scale(0.1 -0.1)">
       <use xlink:href="#DejaVuSans-30"/>
       <use xlink:href="#DejaVuSans-2e" transform="translate(63.623047 0)"/>
       <use xlink:href="#DejaVuSans-35" transform="translate(95.410156 0)"/>
      </g>
     </g>
    </g>
    <g id="ytick_4">
     <g id="line2d_8">
      <g>
       <use xlink:href="#mfa387a5bf9" x="90" y="185.507065" style="stroke: #000000; stroke-width: 0.8"/>
      </g>
     </g>
     <g id="text_9">
      <!-- 1.0 -->
      <g transform="translate(67.096875 189.306284) scale(0.1 -0.1)">
       <defs>
        <path id="DejaVuSans-31" d="M 794 531 
L 1825 531 
L 1825 4091 
L 703 3866 
L 703 4441 
L 1819 4666 
L 2450 4666 
L 2450 531 
L 3481 531 
L 3481 0 
L 794 0 
L 794 531 
z
" transform="scale(0.015625)"/>
       </defs>
       <use xlink:href="#DejaVuSans-31"/>
       <use xlink:href="#DejaVuSans-2e" transform="translate(63.623047 0)"/>
       <use xlink:href="#DejaVuSans-30" transform="translate(95.410156 0)"/>
      </g>
     </g>
    </g>
    <g id="ytick_5">
     <g id="line2d_9">
      <g>
       <use xlink:href="#mfa387a5bf9" x="90" y="141.788074" style="stroke: #000000; stroke-width: 0.8"/>
      </g>
     </g>
     <g id="text_10">
      <!-- 1.5 -->
      <g transform="translate(67.096875 145.587293) scale(0.1 -0.1)">
       <use xlink:href="#DejaVuSans-31"/>
       <use xlink:href="#DejaVuSans-2e" transform="translate(63.623047 0)"/>
       <use xlink:href="#DejaVuSans-35" transform="translate(95.410156 0)"/>
      </g>
     </g>
    </g>
    <g id="ytick_6">
     <g id="line2d_10">
      <g>
       <use xlink:href="#mfa387a5bf9" x="90" y="98.069084" style="stroke: #000000; stroke-width: 0.8"/>
      </g>
     </g>
     <g id="text_11">
      <!-- 2.0 -->
      <g transform="translate(67.096875 101.868303) scale(0.1 -0.1)">
       <defs>
        <path id="DejaVuSans-32" d="M 1228 531 
L 3431 531 
L 3431 0 
L 469 0 
L 469 531 
Q 828 903 1448 1529 
Q 2069 2156 2228 2338 
Q 2531 2678 2651 2914 
Q 2772 3150 2772 3378 
Q 2772 3750 2511 3984 
Q 2250 4219 1831 4219 
Q 1534 4219 1204 4116 
Q 875 4013 500 3803 
L 500 4441 
Q 881 4594 1212 4672 
Q 1544 4750 1819 4750 
Q 2544 4750 2975 4387 
Q 3406 4025 3406 3419 
Q 3406 3131 3298 2873 
Q 3191 2616 2906 2266 
Q 2828 2175 2409 1742 
Q 1991 1309 1228 531 
z
" transform="scale(0.015625)"/>
       </defs>
       <use xlink:href="#DejaVuSans-32"/>
       <use xlink:href="#DejaVuSans-2e" transform="translate(63.623047 0)"/>
       <use xlink:href="#DejaVuSans-30" transform="translate(95.410156 0)"/>
      </g>
     </g>
    </g>
    <g id="ytick_7">
     <g id="line2d_11">
      <g>
       <use xlink:href="#mfa387a5bf9" x="90" y="54.350094" style="stroke: #000000; stroke-width: 0.8"/>
      </g>
     </g>
     <g id="text_12">
      <!-- 2.5 -->
      <g transform="translate(67.096875 58.149312) scale(0.1 -0.1)">
       <use xlink:href="#DejaVuSans-32"/>
       <use xlink:href="#DejaVuSans-2e" transform="translate(63.623047 0)"/>
       <use xlink:href="#DejaVuSans-35" transform="translate(95.410156 0)"/>
      </g>
     </g>
    </g>
    <g id="text_13">
     <!-- cont_variable -->
     <g transform="translate(52.359375 215.409375) rotate(-90) scale(0.1 -0.1)">
      <defs>
       <path id="DejaVuSans-5f" d="M 3263 -1063 
L 3263 -1509 
L -63 -1509 
L -63 -1063 
L 3263 -1063 
z
" transform="scale(0.015625)"/>
       <path id="DejaVuSans-62" d="M 3116 1747 
Q 3116 2381 2855 2742 
Q 2594 3103 2138 3103 
Q 1681 3103 1420 2742 
Q 1159 2381 1159 1747 
Q 1159 1113 1420 752 
Q 1681 391 2138 391 
Q 2594 391 2855 752 
Q 3116 1113 3116 1747 
z
M 1159 2969 
Q 1341 3281 1617 3432 
Q 1894 3584 2278 3584 
Q 2916 3584 3314 3078 
Q 3713 2572 3713 1747 
Q 3713 922 3314 415 
Q 2916 -91 2278 -91 
Q 1894 -91 1617 61 
Q 1341 213 1159 525 
L 1159 0 
L 581 0 
L 581 4863 
L 1159 4863 
L 1159 2969 
z
" transform="scale(0.015625)"/>
       <path id="DejaVuSans-6c" d="M 603 4863 
L 1178 4863 
L 1178 0 
L 603 0 
L 603 4863 
z
" transform="scale(0.015625)"/>
      </defs>
      <use xlink:href="#DejaVuSans-63"/>
      <use xlink:href="#DejaVuSans-6f" transform="translate(54.980469 0)"/>
      <use xlink:href="#DejaVuSans-6e" transform="translate(116.162109 0)"/>
      <use xlink:href="#DejaVuSans-74" transform="translate(179.541016 0)"/>
      <use xlink:href="#DejaVuSans-5f" transform="translate(218.75 0)"/>
      <use xlink:href="#DejaVuSans-76" transform="translate(268.75 0)"/>
      <use xlink:href="#DejaVuSans-61" transform="translate(327.929688 0)"/>
      <use xlink:href="#DejaVuSans-72" transform="translate(389.208984 0)"/>
      <use xlink:href="#DejaVuSans-69" transform="translate(430.322266 0)"/>
      <use xlink:href="#DejaVuSans-61" transform="translate(458.105469 0)"/>
      <use xlink:href="#DejaVuSans-62" transform="translate(519.384766 0)"/>
      <use xlink:href="#DejaVuSans-6c" transform="translate(582.861328 0)"/>
      <use xlink:href="#DejaVuSans-65" transform="translate(610.644531 0)"/>
     </g>
    </g>
   </g>
   <g id="patch_3">
    <path d="M 90 320.4 
L 90 43.2 
" style="fill: none; stroke: #000000; stroke-width: 0.8; stroke-linejoin: miter; stroke-linecap: square"/>
   </g>
   <g id="patch_4">
    <path d="M 648 320.4 
L 648 43.2 
" style="fill: none; stroke: #000000; stroke-width: 0.8; stroke-linejoin: miter; stroke-linecap: square"/>
   </g>
   <g id="patch_5">
    <path d="M 90 320.4 
L 648 320.4 
" style="fill: none; stroke: #000000; stroke-width: 0.8; stroke-linejoin: miter; stroke-linecap: square"/>
   </g>
   <g id="patch_6">
    <path d="M 90 43.2 
L 648 43.2 
" style="fill: none; stroke: #000000; stroke-width: 0.8; stroke-linejoin: miter; stroke-linecap: square"/>
   </g>
   <g id="PathCollection_1">
    <defs>
     <path id="m0a6f18f33e" d="M 0 2.5 
C 0.663008 2.5 1.29895 2.236584 1.767767 1.767767 
C 2.236584 1.29895 2.5 0.663008 2.5 0 
C 2.5 -0.663008 2.236584 -1.29895 1.767767 -1.767767 
C 1.29895 -2.236584 0.663008 -2.5 0 -2.5 
C -0.663008 -2.5 -1.29895 -2.236584 -1.767767 -1.767767 
C -2.236584 -1.29895 -2.5 -0.663008 -2.5 0 
C -2.5 0.663008 -2.236584 1.29895 -1.767767 1.767767 
C -1.29895 2.236584 -0.663008 2.5 0 2.5 
z
"/>
    </defs>
    <g clip-path="url(#p63e57b7701)">
     <use xlink:href="#m0a6f18f33e" x="153.280435" y="264.968742" style="fill-opacity: 0.3"/>
     <use xlink:href="#m0a6f18f33e" x="170.405443" y="191.502937" style="fill-opacity: 0.3"/>
     <use xlink:href="#m0a6f18f33e" x="162.906384" y="129.894829" style="fill-opacity: 0.3"/>
     <use xlink:href="#m0a6f18f33e" x="154.987752" y="189.183607" style="fill-opacity: 0.3"/>
     <use xlink:href="#m0a6f18f33e" x="166.618674" y="248.855531" style="fill-opacity: 0.3"/>
     <use xlink:href="#m0a6f18f33e" x="163.976557" y="238.368849" style="fill-opacity: 0.3"/>
     <use xlink:href="#m0a6f18f33e" x="150.139621" y="258.805903" style="fill-opacity: 0.3"/>
     <use xlink:href="#m0a6f18f33e" x="161.979236" y="260.956899" style="fill-opacity: 0.3"/>
     <use xlink:href="#m0a6f18f33e" x="154.39164" y="259.816876" style="fill-opacity: 0.3"/>
     <use xlink:href="#m0a6f18f33e" x="167.99985" y="172.740644" style="fill-opacity: 0.3"/>
     <use xlink:href="#m0a6f18f33e" x="166.539296" y="271.656186" style="fill-opacity: 0.3"/>
     <use xlink:href="#m0a6f18f33e" x="157.541519" y="271.318089" style="fill-opacity: 0.3"/>
     <use xlink:href="#m0a6f18f33e" x="171.974905" y="270.223575" style="fill-opacity: 0.3"/>
     <use xlink:href="#m0a6f18f33e" x="166.907971" y="270.534615" style="fill-opacity: 0.3"/>
     <use xlink:href="#m0a6f18f33e" x="154.221047" y="270.893343" style="fill-opacity: 0.3"/>
     <use xlink:href="#m0a6f18f33e" x="166.745915" y="235.407456" style="fill-opacity: 0.3"/>
     <use xlink:href="#m0a6f18f33e" x="152.815941" y="169.389599" style="fill-opacity: 0.3"/>
     <use xlink:href="#m0a6f18f33e" x="155.168983" y="167.797199" style="fill-opacity: 0.3"/>
     <use xlink:href="#m0a6f18f33e" x="155.938582" y="177.013768" style="fill-opacity: 0.3"/>
     <use xlink:href="#m0a6f18f33e" x="163.711803" y="227.615151" style="fill-opacity: 0.3"/>
     <use xlink:href="#m0a6f18f33e" x="158.872969" y="214.546459" style="fill-opacity: 0.3"/>
     <use xlink:href="#m0a6f18f33e" x="162.42593" y="235.028672" style="fill-opacity: 0.3"/>
     <use xlink:href="#m0a6f18f33e" x="147.801271" y="255.645731" style="fill-opacity: 0.3"/>
     <use xlink:href="#m0a6f18f33e" x="159.540503" y="250.614304" style="fill-opacity: 0.3"/>
     <use xlink:href="#m0a6f18f33e" x="172.082612" y="258.351874" style="fill-opacity: 0.3"/>
     <use xlink:href="#m0a6f18f33e" x="160.06025" y="255.241905" style="fill-opacity: 0.3"/>
     <use xlink:href="#m0a6f18f33e" x="154.581239" y="255.009331" style="fill-opacity: 0.3"/>
     <use xlink:href="#m0a6f18f33e" x="158.684081" y="263.836799" style="fill-opacity: 0.3"/>
     <use xlink:href="#m0a6f18f33e" x="156.894132" y="268.61999" style="fill-opacity: 0.3"/>
     <use xlink:href="#m0a6f18f33e" x="153.279784" y="269.244769" style="fill-opacity: 0.3"/>
     <use xlink:href="#m0a6f18f33e" x="165.227541" y="266.140446" style="fill-opacity: 0.3"/>
     <use xlink:href="#m0a6f18f33e" x="152.51894" y="263.581913" style="fill-opacity: 0.3"/>
     <use xlink:href="#m0a6f18f33e" x="147.00507" y="264.383507" style="fill-opacity: 0.3"/>
     <use xlink:href="#m0a6f18f33e" x="154.750122" y="262.711747" style="fill-opacity: 0.3"/>
     <use xlink:href="#m0a6f18f33e" x="153.135151" y="237.40208" style="fill-opacity: 0.3"/>
     <use xlink:href="#m0a6f18f33e" x="154.077835" y="117.299572" style="fill-opacity: 0.3"/>
     <use xlink:href="#m0a6f18f33e" x="162.450174" y="196.194644" style="fill-opacity: 0.3"/>
     <use xlink:href="#m0a6f18f33e" x="151.701906" y="149.281348" style="fill-opacity: 0.3"/>
     <use xlink:href="#m0a6f18f33e" x="147.953821" y="253.799136" style="fill-opacity: 0.3"/>
     <use xlink:href="#m0a6f18f33e" x="172.349279" y="255.929864" style="fill-opacity: 0.3"/>
     <use xlink:href="#m0a6f18f33e" x="156.211115" y="148.978224" style="fill-opacity: 0.3"/>
     <use xlink:href="#m0a6f18f33e" x="158.400516" y="203.104862" style="fill-opacity: 0.3"/>
     <use xlink:href="#m0a6f18f33e" x="157.17758" y="246.251012" style="fill-opacity: 0.3"/>
     <use xlink:href="#m0a6f18f33e" x="153.26885" y="213.573375" style="fill-opacity: 0.3"/>
     <use xlink:href="#m0a6f18f33e" x="161.248029" y="192.512182" style="fill-opacity: 0.3"/>
     <use xlink:href="#m0a6f18f33e" x="160.052319" y="233.230397" style="fill-opacity: 0.3"/>
     <use xlink:href="#m0a6f18f33e" x="149.71893" y="206.941033" style="fill-opacity: 0.3"/>
     <use xlink:href="#m0a6f18f33e" x="169.640373" y="241.567821" style="fill-opacity: 0.3"/>
     <use xlink:href="#m0a6f18f33e" x="171.133017" y="198.341416" style="fill-opacity: 0.3"/>
     <use xlink:href="#m0a6f18f33e" x="148.326144" y="230.425223" style="fill-opacity: 0.3"/>
     <use xlink:href="#m0a6f18f33e" x="161.124458" y="225.928353" style="fill-opacity: 0.3"/>
     <use xlink:href="#m0a6f18f33e" x="150.655767" y="208.57164" style="fill-opacity: 0.3"/>
     <use xlink:href="#m0a6f18f33e" x="160.147047" y="208.145012" style="fill-opacity: 0.3"/>
     <use xlink:href="#m0a6f18f33e" x="171.059912" y="167.252957" style="fill-opacity: 0.3"/>
     <use xlink:href="#m0a6f18f33e" x="156.356807" y="232.227858" style="fill-opacity: 0.3"/>
     <use xlink:href="#m0a6f18f33e" x="162.895745" y="194.700117" style="fill-opacity: 0.3"/>
    </g>
   </g>
   <g id="PathCollection_2">
    <g clip-path="url(#p63e57b7701)">
     <use xlink:href="#m0a6f18f33e" x="310.11738" y="257.961035" style="fill-opacity: 0.3"/>
     <use xlink:href="#m0a6f18f33e" x="291.28994" y="265.556765" style="fill-opacity: 0.3"/>
     <use xlink:href="#m0a6f18f33e" x="299.44159" y="262.683698" style="fill-opacity: 0.3"/>
     <use xlink:href="#m0a6f18f33e" x="312.729685" y="261.302823" style="fill-opacity: 0.3"/>
     <use xlink:href="#m0a6f18f33e" x="293.618255" y="265.479583" style="fill-opacity: 0.3"/>
     <use xlink:href="#m0a6f18f33e" x="297.589044" y="264.587642" style="fill-opacity: 0.3"/>
     <use xlink:href="#m0a6f18f33e" x="299.361514" y="265.692886" style="fill-opacity: 0.3"/>
     <use xlink:href="#m0a6f18f33e" x="290.270369" y="263.873096" style="fill-opacity: 0.3"/>
     <use xlink:href="#m0a6f18f33e" x="293.781528" y="265.222403" style="fill-opacity: 0.3"/>
     <use xlink:href="#m0a6f18f33e" x="310.993153" y="267.307161" style="fill-opacity: 0.3"/>
     <use xlink:href="#m0a6f18f33e" x="310.483608" y="228.536965" style="fill-opacity: 0.3"/>
     <use xlink:href="#m0a6f18f33e" x="298.901598" y="248.496525" style="fill-opacity: 0.3"/>
     <use xlink:href="#m0a6f18f33e" x="299.665964" y="234.657501" style="fill-opacity: 0.3"/>
     <use xlink:href="#m0a6f18f33e" x="302.242874" y="231.455714" style="fill-opacity: 0.3"/>
     <use xlink:href="#m0a6f18f33e" x="312.067191" y="230.680607" style="fill-opacity: 0.3"/>
     <use xlink:href="#m0a6f18f33e" x="293.730665" y="246.131741" style="fill-opacity: 0.3"/>
     <use xlink:href="#m0a6f18f33e" x="307.75794" y="253.146074" style="fill-opacity: 0.3"/>
     <use xlink:href="#m0a6f18f33e" x="301.359209" y="251.397127" style="fill-opacity: 0.3"/>
     <use xlink:href="#m0a6f18f33e" x="297.636924" y="229.482177" style="fill-opacity: 0.3"/>
     <use xlink:href="#m0a6f18f33e" x="294.953129" y="236.553829" style="fill-opacity: 0.3"/>
     <use xlink:href="#m0a6f18f33e" x="310.168088" y="240.808353" style="fill-opacity: 0.3"/>
     <use xlink:href="#m0a6f18f33e" x="293.226181" y="249.879288" style="fill-opacity: 0.3"/>
     <use xlink:href="#m0a6f18f33e" x="296.647189" y="231.398232" style="fill-opacity: 0.3"/>
     <use xlink:href="#m0a6f18f33e" x="292.208408" y="245.300035" style="fill-opacity: 0.3"/>
     <use xlink:href="#m0a6f18f33e" x="294.848016" y="262.267467" style="fill-opacity: 0.3"/>
     <use xlink:href="#m0a6f18f33e" x="290.03895" y="259.175646" style="fill-opacity: 0.3"/>
     <use xlink:href="#m0a6f18f33e" x="288.292898" y="256.921359" style="fill-opacity: 0.3"/>
     <use xlink:href="#m0a6f18f33e" x="287.197245" y="261.960583" style="fill-opacity: 0.3"/>
     <use xlink:href="#m0a6f18f33e" x="286.710492" y="260.878075" style="fill-opacity: 0.3"/>
     <use xlink:href="#m0a6f18f33e" x="288.646202" y="265.740112" style="fill-opacity: 0.3"/>
     <use xlink:href="#m0a6f18f33e" x="303.613393" y="261.487287" style="fill-opacity: 0.3"/>
     <use xlink:href="#m0a6f18f33e" x="310.091661" y="249.780406" style="fill-opacity: 0.3"/>
     <use xlink:href="#m0a6f18f33e" x="302.328331" y="260.034354" style="fill-opacity: 0.3"/>
     <use xlink:href="#m0a6f18f33e" x="298.060185" y="260.733743" style="fill-opacity: 0.3"/>
     <use xlink:href="#m0a6f18f33e" x="295.811966" y="257.874587" style="fill-opacity: 0.3"/>
     <use xlink:href="#m0a6f18f33e" x="309.476492" y="266.52756" style="fill-opacity: 0.3"/>
     <use xlink:href="#m0a6f18f33e" x="305.04708" y="259.593191" style="fill-opacity: 0.3"/>
     <use xlink:href="#m0a6f18f33e" x="288.569035" y="268.067146" style="fill-opacity: 0.3"/>
     <use xlink:href="#m0a6f18f33e" x="303.181579" y="262.299532" style="fill-opacity: 0.3"/>
     <use xlink:href="#m0a6f18f33e" x="298.753879" y="206.284848" style="fill-opacity: 0.3"/>
     <use xlink:href="#m0a6f18f33e" x="288.667042" y="192.573544" style="fill-opacity: 0.3"/>
     <use xlink:href="#m0a6f18f33e" x="288.369007" y="184.73862" style="fill-opacity: 0.3"/>
     <use xlink:href="#m0a6f18f33e" x="295.631597" y="270.925099" style="fill-opacity: 0.3"/>
     <use xlink:href="#m0a6f18f33e" x="293.61848" y="270.143658" style="fill-opacity: 0.3"/>
     <use xlink:href="#m0a6f18f33e" x="288.010423" y="235.131609" style="fill-opacity: 0.3"/>
     <use xlink:href="#m0a6f18f33e" x="287.831318" y="259.030858" style="fill-opacity: 0.3"/>
     <use xlink:href="#m0a6f18f33e" x="289.421669" y="262.147525" style="fill-opacity: 0.3"/>
     <use xlink:href="#m0a6f18f33e" x="287.764219" y="244.591218" style="fill-opacity: 0.3"/>
     <use xlink:href="#m0a6f18f33e" x="310.138303" y="248.415153" style="fill-opacity: 0.3"/>
     <use xlink:href="#m0a6f18f33e" x="307.639367" y="260.395253" style="fill-opacity: 0.3"/>
     <use xlink:href="#m0a6f18f33e" x="291.338095" y="260.527881" style="fill-opacity: 0.3"/>
     <use xlink:href="#m0a6f18f33e" x="292.335245" y="260.618846" style="fill-opacity: 0.3"/>
     <use xlink:href="#m0a6f18f33e" x="311.345842" y="259.343837" style="fill-opacity: 0.3"/>
     <use xlink:href="#m0a6f18f33e" x="309.451065" y="258.71972" style="fill-opacity: 0.3"/>
     <use xlink:href="#m0a6f18f33e" x="290.262662" y="256.471336" style="fill-opacity: 0.3"/>
     <use xlink:href="#m0a6f18f33e" x="312.945163" y="254.786148" style="fill-opacity: 0.3"/>
     <use xlink:href="#m0a6f18f33e" x="289.771551" y="252.296747" style="fill-opacity: 0.3"/>
     <use xlink:href="#m0a6f18f33e" x="306.108353" y="263.036241" style="fill-opacity: 0.3"/>
     <use xlink:href="#m0a6f18f33e" x="309.651117" y="260.140607" style="fill-opacity: 0.3"/>
     <use xlink:href="#m0a6f18f33e" x="298.49919" y="262.096583" style="fill-opacity: 0.3"/>
     <use xlink:href="#m0a6f18f33e" x="296.540684" y="267.203176" style="fill-opacity: 0.3"/>
     <use xlink:href="#m0a6f18f33e" x="297.212357" y="264.962847" style="fill-opacity: 0.3"/>
     <use xlink:href="#m0a6f18f33e" x="296.148302" y="263.351865" style="fill-opacity: 0.3"/>
     <use xlink:href="#m0a6f18f33e" x="302.383858" y="264.144848" style="fill-opacity: 0.3"/>
     <use xlink:href="#m0a6f18f33e" x="286.062745" y="219.42909" style="fill-opacity: 0.3"/>
     <use xlink:href="#m0a6f18f33e" x="307.768355" y="79.966036" style="fill-opacity: 0.3"/>
     <use xlink:href="#m0a6f18f33e" x="285.500202" y="252.220064" style="fill-opacity: 0.3"/>
     <use xlink:href="#m0a6f18f33e" x="289.23889" y="236.357067" style="fill-opacity: 0.3"/>
     <use xlink:href="#m0a6f18f33e" x="303.051815" y="224.272918" style="fill-opacity: 0.3"/>
     <use xlink:href="#m0a6f18f33e" x="293.032263" y="263.480751" style="fill-opacity: 0.3"/>
     <use xlink:href="#m0a6f18f33e" x="288.359982" y="259.27694" style="fill-opacity: 0.3"/>
     <use xlink:href="#m0a6f18f33e" x="309.836563" y="256.932514" style="fill-opacity: 0.3"/>
     <use xlink:href="#m0a6f18f33e" x="289.738798" y="261.641969" style="fill-opacity: 0.3"/>
     <use xlink:href="#m0a6f18f33e" x="310.326281" y="256.281506" style="fill-opacity: 0.3"/>
     <use xlink:href="#m0a6f18f33e" x="290.305811" y="172.725083" style="fill-opacity: 0.3"/>
     <use xlink:href="#m0a6f18f33e" x="287.044008" y="257.305184" style="fill-opacity: 0.3"/>
     <use xlink:href="#m0a6f18f33e" x="299.878921" y="134.14819" style="fill-opacity: 0.3"/>
     <use xlink:href="#m0a6f18f33e" x="304.94673" y="254.115975" style="fill-opacity: 0.3"/>
     <use xlink:href="#m0a6f18f33e" x="309.423188" y="258.278738" style="fill-opacity: 0.3"/>
     <use xlink:href="#m0a6f18f33e" x="308.688197" y="179.236325" style="fill-opacity: 0.3"/>
     <use xlink:href="#m0a6f18f33e" x="308.980813" y="238.288487" style="fill-opacity: 0.3"/>
     <use xlink:href="#m0a6f18f33e" x="308.86834" y="265.860452" style="fill-opacity: 0.3"/>
     <use xlink:href="#m0a6f18f33e" x="293.76244" y="235.304099" style="fill-opacity: 0.3"/>
     <use xlink:href="#m0a6f18f33e" x="285.637929" y="245.270853" style="fill-opacity: 0.3"/>
     <use xlink:href="#m0a6f18f33e" x="297.241762" y="224.96949" style="fill-opacity: 0.3"/>
     <use xlink:href="#m0a6f18f33e" x="311.057627" y="197.153555" style="fill-opacity: 0.3"/>
     <use xlink:href="#m0a6f18f33e" x="300.880888" y="260.369054" style="fill-opacity: 0.3"/>
     <use xlink:href="#m0a6f18f33e" x="306.073118" y="236.071761" style="fill-opacity: 0.3"/>
     <use xlink:href="#m0a6f18f33e" x="294.561716" y="252.797153" style="fill-opacity: 0.3"/>
     <use xlink:href="#m0a6f18f33e" x="291.501392" y="217.302675" style="fill-opacity: 0.3"/>
     <use xlink:href="#m0a6f18f33e" x="292.53971" y="212.842544" style="fill-opacity: 0.3"/>
     <use xlink:href="#m0a6f18f33e" x="307.815375" y="216.088873" style="fill-opacity: 0.3"/>
     <use xlink:href="#m0a6f18f33e" x="295.565642" y="263.991925" style="fill-opacity: 0.3"/>
     <use xlink:href="#m0a6f18f33e" x="309.403378" y="194.14573" style="fill-opacity: 0.3"/>
     <use xlink:href="#m0a6f18f33e" x="303.428069" y="204.987987" style="fill-opacity: 0.3"/>
     <use xlink:href="#m0a6f18f33e" x="309.083059" y="239.763037" style="fill-opacity: 0.3"/>
     <use xlink:href="#m0a6f18f33e" x="293.365975" y="264.092969" style="fill-opacity: 0.3"/>
     <use xlink:href="#m0a6f18f33e" x="304.871524" y="181.929807" style="fill-opacity: 0.3"/>
     <use xlink:href="#m0a6f18f33e" x="285.830854" y="260.532335" style="fill-opacity: 0.3"/>
    </g>
   </g>
   <g id="PathCollection_3">
    <g clip-path="url(#p63e57b7701)">
     <use xlink:href="#m0a6f18f33e" x="445.209816" y="255.571357" style="fill-opacity: 0.3"/>
     <use xlink:href="#m0a6f18f33e" x="437.281434" y="246.990402" style="fill-opacity: 0.3"/>
     <use xlink:href="#m0a6f18f33e" x="436.829794" y="265.546411" style="fill-opacity: 0.3"/>
     <use xlink:href="#m0a6f18f33e" x="450.376222" y="264.472887" style="fill-opacity: 0.3"/>
     <use xlink:href="#m0a6f18f33e" x="450.882491" y="217.782972" style="fill-opacity: 0.3"/>
     <use xlink:href="#m0a6f18f33e" x="426.133832" y="230.001581" style="fill-opacity: 0.3"/>
     <use xlink:href="#m0a6f18f33e" x="428.137287" y="261.345481" style="fill-opacity: 0.3"/>
     <use xlink:href="#m0a6f18f33e" x="437.813431" y="251.835479" style="fill-opacity: 0.3"/>
     <use xlink:href="#m0a6f18f33e" x="450.315822" y="191.262835" style="fill-opacity: 0.3"/>
     <use xlink:href="#m0a6f18f33e" x="450.232777" y="236.939106" style="fill-opacity: 0.3"/>
     <use xlink:href="#m0a6f18f33e" x="426.142947" y="251.84915" style="fill-opacity: 0.3"/>
     <use xlink:href="#m0a6f18f33e" x="451.73612" y="248.95647" style="fill-opacity: 0.3"/>
     <use xlink:href="#m0a6f18f33e" x="428.011469" y="255.387564" style="fill-opacity: 0.3"/>
     <use xlink:href="#m0a6f18f33e" x="442.245499" y="260.186392" style="fill-opacity: 0.3"/>
     <use xlink:href="#m0a6f18f33e" x="440.419383" y="259.769716" style="fill-opacity: 0.3"/>
     <use xlink:href="#m0a6f18f33e" x="433.28703" y="248.741808" style="fill-opacity: 0.3"/>
     <use xlink:href="#m0a6f18f33e" x="448.000018" y="262.419269" style="fill-opacity: 0.3"/>
     <use xlink:href="#m0a6f18f33e" x="443.872062" y="254.132411" style="fill-opacity: 0.3"/>
     <use xlink:href="#m0a6f18f33e" x="448.892136" y="257.252984" style="fill-opacity: 0.3"/>
     <use xlink:href="#m0a6f18f33e" x="450.534642" y="261.002292" style="fill-opacity: 0.3"/>
     <use xlink:href="#m0a6f18f33e" x="433.481863" y="271.230015" style="fill-opacity: 0.3"/>
     <use xlink:href="#m0a6f18f33e" x="431.007011" y="146.362511" style="fill-opacity: 0.3"/>
     <use xlink:href="#m0a6f18f33e" x="447.452412" y="260.111212" style="fill-opacity: 0.3"/>
     <use xlink:href="#m0a6f18f33e" x="449.075548" y="251.329581" style="fill-opacity: 0.3"/>
     <use xlink:href="#m0a6f18f33e" x="436.821007" y="259.108494" style="fill-opacity: 0.3"/>
     <use xlink:href="#m0a6f18f33e" x="451.957074" y="256.382027" style="fill-opacity: 0.3"/>
     <use xlink:href="#m0a6f18f33e" x="426.32558" y="259.381572" style="fill-opacity: 0.3"/>
     <use xlink:href="#m0a6f18f33e" x="436.253253" y="262.555765" style="fill-opacity: 0.3"/>
     <use xlink:href="#m0a6f18f33e" x="449.922953" y="263.057329" style="fill-opacity: 0.3"/>
     <use xlink:href="#m0a6f18f33e" x="446.936011" y="253.807656" style="fill-opacity: 0.3"/>
     <use xlink:href="#m0a6f18f33e" x="427.002455" y="262.638323" style="fill-opacity: 0.3"/>
     <use xlink:href="#m0a6f18f33e" x="437.283799" y="260.960426" style="fill-opacity: 0.3"/>
     <use xlink:href="#m0a6f18f33e" x="450.422721" y="258.734719" style="fill-opacity: 0.3"/>
     <use xlink:href="#m0a6f18f33e" x="437.493924" y="263.338553" style="fill-opacity: 0.3"/>
     <use xlink:href="#m0a6f18f33e" x="444.916353" y="250.832647" style="fill-opacity: 0.3"/>
     <use xlink:href="#m0a6f18f33e" x="432.408141" y="247.921737" style="fill-opacity: 0.3"/>
     <use xlink:href="#m0a6f18f33e" x="436.234511" y="136.196204" style="fill-opacity: 0.3"/>
     <use xlink:href="#m0a6f18f33e" x="442.464512" y="235.938876" style="fill-opacity: 0.3"/>
     <use xlink:href="#m0a6f18f33e" x="437.147826" y="259.327901" style="fill-opacity: 0.3"/>
     <use xlink:href="#m0a6f18f33e" x="444.961212" y="208.410526" style="fill-opacity: 0.3"/>
     <use xlink:href="#m0a6f18f33e" x="436.602414" y="205.799681" style="fill-opacity: 0.3"/>
     <use xlink:href="#m0a6f18f33e" x="425.460287" y="253.639848" style="fill-opacity: 0.3"/>
     <use xlink:href="#m0a6f18f33e" x="445.191637" y="196.483283" style="fill-opacity: 0.3"/>
     <use xlink:href="#m0a6f18f33e" x="427.893552" y="199.22434" style="fill-opacity: 0.3"/>
     <use xlink:href="#m0a6f18f33e" x="444.31631" y="214.017222" style="fill-opacity: 0.3"/>
     <use xlink:href="#m0a6f18f33e" x="451.50243" y="229.180982" style="fill-opacity: 0.3"/>
     <use xlink:href="#m0a6f18f33e" x="448.932425" y="260.858458" style="fill-opacity: 0.3"/>
     <use xlink:href="#m0a6f18f33e" x="451.734635" y="132.888184" style="fill-opacity: 0.3"/>
    </g>
   </g>
   <g id="PathCollection_4">
    <g clip-path="url(#p63e57b7701)">
     <use xlink:href="#m0a6f18f33e" x="568.779537" y="207.954743" style="fill-opacity: 0.3"/>
     <use xlink:href="#m0a6f18f33e" x="585.342758" y="131.984055" style="fill-opacity: 0.3"/>
     <use xlink:href="#m0a6f18f33e" x="582.120039" y="251.159911" style="fill-opacity: 0.3"/>
     <use xlink:href="#m0a6f18f33e" x="582.725505" y="270.702688" style="fill-opacity: 0.3"/>
     <use xlink:href="#m0a6f18f33e" x="571.167952" y="260.918926" style="fill-opacity: 0.3"/>
     <use xlink:href="#m0a6f18f33e" x="585.811836" y="250.373693" style="fill-opacity: 0.3"/>
     <use xlink:href="#m0a6f18f33e" x="566.494028" y="240.62188" style="fill-opacity: 0.3"/>
     <use xlink:href="#m0a6f18f33e" x="568.166331" y="268.175544" style="fill-opacity: 0.3"/>
     <use xlink:href="#m0a6f18f33e" x="586.190141" y="258.902198" style="fill-opacity: 0.3"/>
     <use xlink:href="#m0a6f18f33e" x="586.666584" y="263.989414" style="fill-opacity: 0.3"/>
     <use xlink:href="#m0a6f18f33e" x="574.981775" y="266.421281" style="fill-opacity: 0.3"/>
     <use xlink:href="#m0a6f18f33e" x="586.709892" y="249.327949" style="fill-opacity: 0.3"/>
     <use xlink:href="#m0a6f18f33e" x="587.65536" y="270.689407" style="fill-opacity: 0.3"/>
     <use xlink:href="#m0a6f18f33e" x="579.224355" y="265.856302" style="fill-opacity: 0.3"/>
     <use xlink:href="#m0a6f18f33e" x="585.214046" y="267.94836" style="fill-opacity: 0.3"/>
     <use xlink:href="#m0a6f18f33e" x="571.159803" y="245.193323" style="fill-opacity: 0.3"/>
     <use xlink:href="#m0a6f18f33e" x="566.42483" y="226.74703" style="fill-opacity: 0.3"/>
     <use xlink:href="#m0a6f18f33e" x="589.921578" y="167.229511" style="fill-opacity: 0.3"/>
     <use xlink:href="#m0a6f18f33e" x="592.066134" y="249.439168" style="fill-opacity: 0.3"/>
     <use xlink:href="#m0a6f18f33e" x="583.076739" y="211.773914" style="fill-opacity: 0.3"/>
     <use xlink:href="#m0a6f18f33e" x="570.157962" y="266.304123" style="fill-opacity: 0.3"/>
     <use xlink:href="#m0a6f18f33e" x="570.379908" y="199.708801" style="fill-opacity: 0.3"/>
     <use xlink:href="#m0a6f18f33e" x="588.772049" y="253.285838" style="fill-opacity: 0.3"/>
     <use xlink:href="#m0a6f18f33e" x="585.929425" y="265.479166" style="fill-opacity: 0.3"/>
     <use xlink:href="#m0a6f18f33e" x="574.306016" y="240.955645" style="fill-opacity: 0.3"/>
     <use xlink:href="#m0a6f18f33e" x="569.797987" y="253.997012" style="fill-opacity: 0.3"/>
     <use xlink:href="#m0a6f18f33e" x="579.109408" y="188.865209" style="fill-opacity: 0.3"/>
     <use xlink:href="#m0a6f18f33e" x="573.556908" y="201.334554" style="fill-opacity: 0.3"/>
     <use xlink:href="#m0a6f18f33e" x="576.434786" y="210.971246" style="fill-opacity: 0.3"/>
     <use xlink:href="#m0a6f18f33e" x="591.295373" y="262.934803" style="fill-opacity: 0.3"/>
     <use xlink:href="#m0a6f18f33e" x="570.068159" y="185.424547" style="fill-opacity: 0.3"/>
    </g>
   </g>
  </g>
 </g>
 <defs>
  <clipPath id="p63e57b7701">
   <rect x="90" y="43.2" width="558" height="277.2"/>
  </clipPath>
 </defs>
</svg>
