<?xml version="1.0" encoding="utf-8" standalone="no"?>
<!DOCTYPE svg PUBLIC "-//W3C//DTD SVG 1.1//EN"
  "http://www.w3.org/Graphics/SVG/1.1/DTD/svg11.dtd">
<svg xmlns:xlink="http://www.w3.org/1999/xlink" width="720pt" height="360pt" viewBox="0 0 720 360" xmlns="http://www.w3.org/2000/svg" version="1.1">
 <metadata>
  <rdf:RDF xmlns:dc="http://purl.org/dc/elements/1.1/" xmlns:cc="http://creativecommons.org/ns#" xmlns:rdf="http://www.w3.org/1999/02/22-rdf-syntax-ns#">
   <cc:Work>
    <dc:type rdf:resource="http://purl.org/dc/dcmitype/StillImage"/>
    <dc:date>2025-09-09T16:54:33.168086</dc:date>
    <dc:format>image/svg+xml</dc:format>
    <dc:creator>
     <cc:Agent>
      <dc:title>Matplotlib v3.10.3, https://matplotlib.org/</dc:title>
     </cc:Agent>
    </dc:creator>
   </cc:Work>
  </rdf:RDF>
 </metadata>
 <defs>
  <style type="text/css">*{stroke-linejoin: round; stroke-linecap: butt}</style>
 </defs>
 <g id="figure_1">
  <g id="patch_1">
   <path d="M 0 360 
L 720 360 
L 720 0 
L 0 0 
z
" style="fill: #ffffff"/>
  </g>
  <g id="axes_1">
   <g id="patch_2">
    <path d="M 90 320.4 
L 648 320.4 
L 648 43.2 
L 90 43.2 
z
" style="fill: #ffffff"/>
   </g>
   <g id="FillBetweenPolyCollection_1">
    <defs>
     <path id="m4b5ad33c0b" d="M 151.641008 -60.592507 
L 139.958992 -60.592507 
L 138.932124 -60.729819 
L 137.779546 -60.867132 
L 136.497093 -61.004444 
L 135.082748 -61.141756 
L 133.537043 -61.279069 
L 131.863416 -61.416381 
L 130.068515 -61.553694 
L 128.162432 -61.691006 
L 126.158831 -61.828319 
L 124.074973 -61.965631 
L 121.931597 -62.102944 
L 119.752673 -62.240256 
L 117.565009 -62.377569 
L 115.397709 -62.514881 
L 113.281513 -62.652194 
L 111.248018 -62.789506 
L 109.328808 -62.926819 
L 107.554539 -63.064131 
L 105.95399 -63.201443 
L 104.55315 -63.338756 
L 103.374354 -63.476068 
L 102.435523 -63.613381 
L 101.749545 -63.750693 
L 101.32382 -63.888006 
L 101.16 -64.025318 
L 101.253933 -64.162631 
L 101.595819 -64.299943 
L 102.170567 -64.437256 
L 102.958344 -64.574568 
L 103.93528 -64.711881 
L 105.074306 -64.849193 
L 106.346071 -64.986506 
L 107.71991 -65.123818 
L 109.164799 -65.26113 
L 110.650274 -65.398443 
L 112.147257 -65.535755 
L 113.628756 -65.673068 
L 115.07043 -65.81038 
L 116.450982 -65.947693 
L 117.752376 -66.085005 
L 118.9599 -66.222318 
L 120.062058 -66.35963 
L 121.050335 -66.496943 
L 121.918857 -66.634255 
L 122.663966 -66.771568 
L 123.283773 -66.90888 
L 123.777689 -67.046193 
L 124.146007 -67.183505 
L 124.389533 -67.320817 
L 124.50931 -67.45813 
L 124.506452 -67.595442 
L 124.382089 -67.732755 
L 124.13743 -67.870067 
L 123.77394 -68.00738 
L 123.293608 -68.144692 
L 122.699287 -68.282005 
L 121.995086 -68.419317 
L 121.186766 -68.55663 
L 120.282119 -68.693942 
L 119.291292 -68.831255 
L 118.227022 -68.968567 
L 117.104767 -69.10588 
L 115.94269 -69.243192 
L 114.761512 -69.380504 
L 113.584204 -69.517817 
L 112.435539 -69.655129 
L 111.341509 -69.792442 
L 110.328634 -69.929754 
L 109.423192 -70.067067 
L 108.650399 -70.204379 
L 108.033586 -70.341692 
L 107.593407 -70.479004 
L 107.347116 -70.616317 
L 107.307953 -70.753629 
L 107.484661 -70.890942 
L 107.881176 -71.028254 
L 108.496474 -71.165567 
L 109.324613 -71.302879 
L 110.354947 -71.440191 
L 111.572504 -71.577504 
L 112.958513 -71.714816 
L 114.491051 -71.852129 
L 116.145774 -71.989441 
L 117.896704 -72.126754 
L 119.717036 -72.264066 
L 121.579926 -72.401379 
L 123.459235 -72.538691 
L 125.330196 -72.676004 
L 127.16999 -72.813316 
L 128.9582 -72.950629 
L 130.677163 -73.087941 
L 132.312176 -73.225254 
L 133.851603 -73.362566 
L 135.286855 -73.499878 
L 136.612285 -73.637191 
L 137.824984 -73.774503 
L 138.924531 -73.911816 
L 139.912677 -74.049128 
L 140.793012 -74.186441 
L 150.806988 -74.186441 
L 150.806988 -74.186441 
L 151.687323 -74.049128 
L 152.675469 -73.911816 
L 153.775016 -73.774503 
L 154.987715 -73.637191 
L 156.313145 -73.499878 
L 157.748397 -73.362566 
L 159.287824 -73.225254 
L 160.922837 -73.087941 
L 162.6418 -72.950629 
L 164.43001 -72.813316 
L 166.269804 -72.676004 
L 168.140765 -72.538691 
L 170.020074 -72.401379 
L 171.882964 -72.264066 
L 173.703296 -72.126754 
L 175.454226 -71.989441 
L 177.108949 -71.852129 
L 178.641487 -71.714816 
L 180.027496 -71.577504 
L 181.245053 -71.440191 
L 182.275387 -71.302879 
L 183.103526 -71.165567 
L 183.718824 -71.028254 
L 184.115339 -70.890942 
L 184.292047 -70.753629 
L 184.252884 -70.616317 
L 184.006593 -70.479004 
L 183.566414 -70.341692 
L 182.949601 -70.204379 
L 182.176808 -70.067067 
L 181.271366 -69.929754 
L 180.258491 -69.792442 
L 179.164461 -69.655129 
L 178.015796 -69.517817 
L 176.838488 -69.380504 
L 175.65731 -69.243192 
L 174.495233 -69.10588 
L 173.372978 -68.968567 
L 172.308708 -68.831255 
L 171.317881 -68.693942 
L 170.413234 -68.55663 
L 169.604914 -68.419317 
L 168.900713 -68.282005 
L 168.306392 -68.144692 
L 167.82606 -68.00738 
L 167.46257 -67.870067 
L 167.217911 -67.732755 
L 167.093548 -67.595442 
L 167.09069 -67.45813 
L 167.210467 -67.320817 
L 167.453993 -67.183505 
L 167.822311 -67.046193 
L 168.316227 -66.90888 
L 168.936034 -66.771568 
L 169.681143 -66.634255 
L 170.549665 -66.496943 
L 171.537942 -66.35963 
L 172.6401 -66.222318 
L 173.847624 -66.085005 
L 175.149018 -65.947693 
L 176.52957 -65.81038 
L 177.971244 -65.673068 
L 179.452743 -65.535755 
L 180.949726 -65.398443 
L 182.435201 -65.26113 
L 183.88009 -65.123818 
L 185.253929 -64.986506 
L 186.525694 -64.849193 
L 187.66472 -64.711881 
L 188.641656 -64.574568 
L 189.429433 -64.437256 
L 190.004181 -64.299943 
L 190.346067 -64.162631 
L 190.44 -64.025318 
L 190.27618 -63.888006 
L 189.850455 -63.750693 
L 189.164477 -63.613381 
L 188.225646 -63.476068 
L 187.04685 -63.338756 
L 185.64601 -63.201443 
L 184.045461 -63.064131 
L 182.271192 -62.926819 
L 180.351982 -62.789506 
L 178.318487 -62.652194 
L 176.202291 -62.514881 
L 174.034991 -62.377569 
L 171.847327 -62.240256 
L 169.668403 -62.102944 
L 167.525027 -61.965631 
L 165.441169 -61.828319 
L 163.437568 -61.691006 
L 161.531485 -61.553694 
L 159.736584 -61.416381 
L 158.062957 -61.279069 
L 156.517252 -61.141756 
L 155.102907 -61.004444 
L 153.820454 -60.867132 
L 152.667876 -60.729819 
L 151.641008 -60.592507 
z
" style="stroke: #3d3d3d; stroke-width: 1.25"/>
    </defs>
    <g clip-path="url(#p0d007fb7cb)">
     <use xlink:href="#m4b5ad33c0b" x="0" y="360" style="fill: #3274a1; stroke: #3d3d3d; stroke-width: 1.25"/>
    </g>
   </g>
   <g id="FillBetweenPolyCollection_2">
    <defs>
     <path id="ma6865ed94e" d="M 257.707049 -50.231911 
L 257.092951 -50.231911 
L 256.991722 -50.473265 
L 256.868872 -50.71462 
L 256.724016 -50.955974 
L 256.558279 -51.197328 
L 256.374596 -51.438682 
L 256.177872 -51.680037 
L 255.974942 -51.921391 
L 255.774289 -52.162745 
L 255.585533 -52.404099 
L 255.418705 -52.645454 
L 255.283374 -52.886808 
L 255.187753 -53.128162 
L 255.137869 -53.369517 
L 255.136936 -53.610871 
L 255.185017 -53.852225 
L 255.279009 -54.093579 
L 255.412982 -54.334934 
L 255.578791 -54.576288 
L 255.766899 -54.817642 
L 255.967278 -55.058996 
L 256.170273 -55.300351 
L 256.367337 -55.541705 
L 256.551555 -55.783059 
L 256.717916 -56.024413 
L 256.863358 -56.265768 
L 256.98659 -56.507122 
L 257.087763 -56.748476 
L 257.168043 -56.989831 
L 257.229125 -57.231185 
L 257.272735 -57.472539 
L 257.300131 -57.713893 
L 257.311604 -57.955248 
L 257.30596 -58.196602 
L 257.279968 -58.437956 
L 257.227766 -58.67931 
L 257.140233 -58.920665 
L 257.004379 -59.162019 
L 256.802829 -59.403373 
L 256.513558 -59.644728 
L 256.110031 -59.886082 
L 255.561956 -60.127436 
L 254.836839 -60.36879 
L 253.902449 -60.610145 
L 252.730213 -60.851499 
L 251.299383 -61.092853 
L 249.601617 -61.334207 
L 247.645423 -61.575562 
L 245.459757 -61.816916 
L 243.096003 -62.05827 
L 240.627641 -62.299625 
L 238.147119 -62.540979 
L 235.75983 -62.782333 
L 233.575562 -63.023687 
L 231.698263 -63.265042 
L 230.215374 -63.506396 
L 229.188217 -63.74775 
L 228.644898 -63.989104 
L 228.576907 -64.230459 
L 228.940047 -64.471813 
L 229.659666 -64.713167 
L 230.639425 -64.954521 
L 231.772275 -65.195876 
L 232.95189 -65.43723 
L 234.082796 -65.678584 
L 235.087663 -65.919939 
L 235.910795 -66.161293 
L 236.517561 -66.402647 
L 236.89029 -66.644001 
L 237.02181 -66.885356 
L 236.908262 -67.12671 
L 236.542948 -67.368064 
L 235.912763 -67.609418 
L 234.998258 -67.850773 
L 233.777636 -68.092127 
L 232.234153 -68.333481 
L 230.365656 -68.574836 
L 228.19437 -68.81619 
L 225.774864 -69.057544 
L 223.198234 -69.298898 
L 220.591072 -69.540253 
L 218.108657 -69.781607 
L 215.922759 -70.022961 
L 214.205484 -70.264315 
L 213.111324 -70.50567 
L 212.76 -70.747024 
L 213.222678 -70.988378 
L 214.51358 -71.229732 
L 216.588228 -71.471087 
L 219.348439 -71.712441 
L 222.653206 -71.953795 
L 226.333702 -72.19515 
L 230.210175 -72.436504 
L 234.108412 -72.677858 
L 237.873747 -72.919212 
L 241.381193 -73.160567 
L 244.541011 -73.401921 
L 247.299804 -73.643275 
L 249.637794 -73.884629 
L 251.563362 -74.125984 
L 263.236638 -74.125984 
L 263.236638 -74.125984 
L 265.162206 -73.884629 
L 267.500196 -73.643275 
L 270.258989 -73.401921 
L 273.418807 -73.160567 
L 276.926253 -72.919212 
L 280.691588 -72.677858 
L 284.589825 -72.436504 
L 288.466298 -72.19515 
L 292.146794 -71.953795 
L 295.451561 -71.712441 
L 298.211772 -71.471087 
L 300.28642 -71.229732 
L 301.577322 -70.988378 
L 302.04 -70.747024 
L 301.688676 -70.50567 
L 300.594516 -70.264315 
L 298.877241 -70.022961 
L 296.691343 -69.781607 
L 294.208928 -69.540253 
L 291.601766 -69.298898 
L 289.025136 -69.057544 
L 286.60563 -68.81619 
L 284.434344 -68.574836 
L 282.565847 -68.333481 
L 281.022364 -68.092127 
L 279.801742 -67.850773 
L 278.887237 -67.609418 
L 278.257052 -67.368064 
L 277.891738 -67.12671 
L 277.77819 -66.885356 
L 277.90971 -66.644001 
L 278.282439 -66.402647 
L 278.889205 -66.161293 
L 279.712337 -65.919939 
L 280.717204 -65.678584 
L 281.84811 -65.43723 
L 283.027725 -65.195876 
L 284.160575 -64.954521 
L 285.140334 -64.713167 
L 285.859953 -64.471813 
L 286.223093 -64.230459 
L 286.155102 -63.989104 
L 285.611783 -63.74775 
L 284.584626 -63.506396 
L 283.101737 -63.265042 
L 281.224438 -63.023687 
L 279.04017 -62.782333 
L 276.652881 -62.540979 
L 274.172359 -62.299625 
L 271.703997 -62.05827 
L 269.340243 -61.816916 
L 267.154577 -61.575562 
L 265.198383 -61.334207 
L 263.500617 -61.092853 
L 262.069787 -60.851499 
L 260.897551 -60.610145 
L 259.963161 -60.36879 
L 259.238044 -60.127436 
L 258.689969 -59.886082 
L 258.286442 -59.644728 
L 257.997171 -59.403373 
L 257.795621 -59.162019 
L 257.659767 -58.920665 
L 257.572234 -58.67931 
L 257.520032 -58.437956 
L 257.49404 -58.196602 
L 257.488396 -57.955248 
L 257.499869 -57.713893 
L 257.527265 -57.472539 
L 257.570875 -57.231185 
L 257.631957 -56.989831 
L 257.712237 -56.748476 
L 257.81341 -56.507122 
L 257.936642 -56.265768 
L 258.082084 -56.024413 
L 258.248445 -55.783059 
L 258.432663 -55.541705 
L 258.629727 -55.300351 
L 258.832722 -55.058996 
L 259.033101 -54.817642 
L 259.221209 -54.576288 
L 259.387018 -54.334934 
L 259.520991 -54.093579 
L 259.614983 -53.852225 
L 259.663064 -53.610871 
L 259.662131 -53.369517 
L 259.612247 -53.128162 
L 259.516626 -52.886808 
L 259.381295 -52.645454 
L 259.214467 -52.404099 
L 259.025711 -52.162745 
L 258.825058 -51.921391 
L 258.622128 -51.680037 
L 258.425404 -51.438682 
L 258.241721 -51.197328 
L 258.075984 -50.955974 
L 257.931128 -50.71462 
L 257.808278 -50.473265 
L 257.707049 -50.231911 
z
" style="stroke: #3d3d3d; stroke-width: 1.25"/>
    </defs>
    <g clip-path="url(#p0d007fb7cb)">
     <use xlink:href="#ma6865ed94e" x="0" y="360" style="fill: #e1812c; stroke: #3d3d3d; stroke-width: 1.25"/>
    </g>
   </g>
   <g id="FillBetweenPolyCollection_3">
    <defs>
     <path id="m822b08b4dd" d="M 369.442464 -49.201252 
L 368.557536 -49.201252 
L 368.439316 -49.463428 
L 368.300029 -49.725603 
L 368.139076 -49.987779 
L 367.95679 -50.249955 
L 367.754622 -50.51213 
L 367.535285 -50.774306 
L 367.302821 -51.036482 
L 367.062577 -51.298657 
L 366.821067 -51.560833 
L 366.585729 -51.823009 
L 366.364575 -52.085184 
L 366.16575 -52.34736 
L 365.997046 -52.609536 
L 365.865397 -52.871711 
L 365.776403 -53.133887 
L 365.733937 -53.396063 
L 365.739858 -53.658238 
L 365.793867 -53.920414 
L 365.893526 -54.18259 
L 366.034413 -54.444765 
L 366.210428 -54.706941 
L 366.414178 -54.969117 
L 366.637436 -55.231292 
L 366.871594 -55.493468 
L 367.108078 -55.755644 
L 367.338688 -56.017819 
L 367.555816 -56.279995 
L 367.752535 -56.542171 
L 367.922556 -56.804346 
L 368.060049 -57.066522 
L 368.15938 -57.328698 
L 368.214766 -57.590873 
L 368.219925 -57.853049 
L 368.167749 -58.115225 
L 368.050071 -58.3774 
L 367.85757 -58.639576 
L 367.579871 -58.901752 
L 367.205869 -59.163927 
L 366.724312 -59.426103 
L 366.124639 -59.688279 
L 365.398038 -59.950454 
L 364.538679 -60.21263 
L 363.545025 -60.474806 
L 362.421102 -60.736981 
L 361.17758 -60.999157 
L 359.832523 -61.261333 
L 358.411653 -61.523508 
L 356.948023 -61.785684 
L 355.481001 -62.04786 
L 354.054582 -62.310035 
L 352.715065 -62.572211 
L 351.508236 -62.834387 
L 350.476255 -63.096562 
L 349.654485 -63.358738 
L 349.068543 -63.620914 
L 348.731817 -63.883089 
L 348.643698 -64.145265 
L 348.788662 -64.407441 
L 349.136317 -64.669616 
L 349.64241 -64.931792 
L 350.250724 -65.193967 
L 350.895735 -65.456143 
L 351.505866 -65.718319 
L 352.007142 -65.980494 
L 352.327067 -66.24267 
L 352.398556 -66.504846 
L 352.163748 -66.767021 
L 351.577596 -67.029197 
L 350.611059 -67.291373 
L 349.253773 -67.553548 
L 347.516021 -67.815724 
L 345.429837 -68.0779 
L 343.049048 -68.340075 
L 340.4481 -68.602251 
L 337.719547 -68.864427 
L 334.970196 -69.126602 
L 332.315995 -69.388778 
L 329.875891 -69.650954 
L 327.765046 -69.913129 
L 326.087871 -70.175305 
L 324.931465 -70.437481 
L 324.36 -70.699656 
L 324.410587 -70.961832 
L 325.091019 -71.224008 
L 326.379599 -71.486183 
L 328.227087 -71.748359 
L 330.560558 -72.010535 
L 333.288799 -72.27271 
L 336.308718 -72.534886 
L 339.512164 -72.797062 
L 342.792565 -73.059237 
L 346.050836 -73.321413 
L 349.200132 -73.583589 
L 352.169202 -73.845764 
L 354.904213 -74.10794 
L 357.369126 -74.370116 
L 359.544799 -74.632291 
L 361.427102 -74.894467 
L 363.024359 -75.156643 
L 374.975641 -75.156643 
L 374.975641 -75.156643 
L 376.572898 -74.894467 
L 378.455201 -74.632291 
L 380.630874 -74.370116 
L 383.095787 -74.10794 
L 385.830798 -73.845764 
L 388.799868 -73.583589 
L 391.949164 -73.321413 
L 395.207435 -73.059237 
L 398.487836 -72.797062 
L 401.691282 -72.534886 
L 404.711201 -72.27271 
L 407.439442 -72.010535 
L 409.772913 -71.748359 
L 411.620401 -71.486183 
L 412.908981 -71.224008 
L 413.589413 -70.961832 
L 413.64 -70.699656 
L 413.068535 -70.437481 
L 411.912129 -70.175305 
L 410.234954 -69.913129 
L 408.124109 -69.650954 
L 405.684005 -69.388778 
L 403.029804 -69.126602 
L 400.280453 -68.864427 
L 397.5519 -68.602251 
L 394.950952 -68.340075 
L 392.570163 -68.0779 
L 390.483979 -67.815724 
L 388.746227 -67.553548 
L 387.388941 -67.291373 
L 386.422404 -67.029197 
L 385.836252 -66.767021 
L 385.601444 -66.504846 
L 385.672933 -66.24267 
L 385.992858 -65.980494 
L 386.494134 -65.718319 
L 387.104265 -65.456143 
L 387.749276 -65.193967 
L 388.35759 -64.931792 
L 388.863683 -64.669616 
L 389.211338 -64.407441 
L 389.356302 -64.145265 
L 389.268183 -63.883089 
L 388.931457 -63.620914 
L 388.345515 -63.358738 
L 387.523745 -63.096562 
L 386.491764 -62.834387 
L 385.284935 -62.572211 
L 383.945418 -62.310035 
L 382.518999 -62.04786 
L 381.051977 -61.785684 
L 379.588347 -61.523508 
L 378.167477 -61.261333 
L 376.82242 -60.999157 
L 375.578898 -60.736981 
L 374.454975 -60.474806 
L 373.461321 -60.21263 
L 372.601962 -59.950454 
L 371.875361 -59.688279 
L 371.275688 -59.426103 
L 370.794131 -59.163927 
L 370.420129 -58.901752 
L 370.14243 -58.639576 
L 369.949929 -58.3774 
L 369.832251 -58.115225 
L 369.780075 -57.853049 
L 369.785234 -57.590873 
L 369.84062 -57.328698 
L 369.939951 -57.066522 
L 370.077444 -56.804346 
L 370.247465 -56.542171 
L 370.444184 -56.279995 
L 370.661312 -56.017819 
L 370.891922 -55.755644 
L 371.128406 -55.493468 
L 371.362564 -55.231292 
L 371.585822 -54.969117 
L 371.789572 -54.706941 
L 371.965587 -54.444765 
L 372.106474 -54.18259 
L 372.206133 -53.920414 
L 372.260142 -53.658238 
L 372.266063 -53.396063 
L 372.223597 -53.133887 
L 372.134603 -52.871711 
L 372.002954 -52.609536 
L 371.83425 -52.34736 
L 371.635425 -52.085184 
L 371.414271 -51.823009 
L 371.178933 -51.560833 
L 370.937423 -51.298657 
L 370.697179 -51.036482 
L 370.464715 -50.774306 
L 370.245378 -50.51213 
L 370.04321 -50.249955 
L 369.860924 -49.987779 
L 369.699971 -49.725603 
L 369.560684 -49.463428 
L 369.442464 -49.201252 
z
" style="stroke: #3d3d3d; stroke-width: 1.25"/>
    </defs>
    <g clip-path="url(#p0d007fb7cb)">
     <use xlink:href="#m822b08b4dd" x="0" y="360" style="fill: #3a923a; stroke: #3d3d3d; stroke-width: 1.25"/>
    </g>
   </g>
   <g id="FillBetweenPolyCollection_4">
    <defs>
     <path id="me6e7aee9db" d="M 481.724438 -48.340509 
L 479.475562 -48.340509 
L 479.211312 -48.620073 
L 478.905027 -48.899638 
L 478.555391 -49.179202 
L 478.162486 -49.458766 
L 477.728073 -49.738331 
L 477.255825 -50.017895 
L 476.751478 -50.29746 
L 476.22288 -50.577024 
L 475.679916 -50.856588 
L 475.134292 -51.136153 
L 474.599184 -51.415717 
L 474.088746 -51.695282 
L 473.617515 -51.974846 
L 473.199731 -52.254411 
L 472.848629 -52.533975 
L 472.575732 -52.813539 
L 472.390212 -53.093104 
L 472.298365 -53.372668 
L 472.303225 -53.652233 
L 472.404367 -53.931797 
L 472.597893 -54.211361 
L 472.87662 -54.490926 
L 473.230431 -54.77049 
L 473.646771 -55.050055 
L 474.111248 -55.329619 
L 474.608279 -55.609184 
L 475.121747 -55.888748 
L 475.635608 -56.168312 
L 476.134424 -56.447877 
L 476.603797 -56.727441 
L 477.030673 -57.007006 
L 477.403539 -57.28657 
L 477.712518 -57.566134 
L 477.949372 -57.845699 
L 478.107469 -58.125263 
L 478.18171 -58.404828 
L 478.168475 -58.684392 
L 478.065594 -58.963957 
L 477.872362 -59.243521 
L 477.58959 -59.523085 
L 477.219708 -59.80265 
L 476.766868 -60.082214 
L 476.237044 -60.361779 
L 475.638078 -60.641343 
L 474.979648 -60.920907 
L 474.273111 -61.200472 
L 473.531212 -61.480036 
L 472.767625 -61.759601 
L 471.996348 -62.039165 
L 471.230949 -62.31873 
L 470.483713 -62.598294 
L 469.764731 -62.877858 
L 469.080994 -63.157423 
L 468.435569 -63.436987 
L 467.826919 -63.716552 
L 467.248452 -63.996116 
L 466.688349 -64.27568 
L 466.129732 -64.555245 
L 465.551185 -64.834809 
L 464.927665 -65.114374 
L 464.231759 -65.393938 
L 463.43527 -65.673503 
L 462.511058 -65.953067 
L 461.435048 -66.232631 
L 460.188302 -66.512196 
L 458.759023 -66.79176 
L 457.144355 -67.071325 
L 455.351841 -67.350889 
L 453.400402 -67.630453 
L 451.320719 -67.910018 
L 449.154926 -68.189582 
L 446.955567 -68.469147 
L 444.783811 -68.748711 
L 442.706986 -69.028276 
L 440.79553 -69.30784 
L 439.119549 -69.587404 
L 437.745169 -69.866969 
L 436.730938 -70.146533 
L 436.124532 -70.426098 
L 435.96 -70.705662 
L 436.255761 -70.985226 
L 437.013504 -71.264791 
L 438.218072 -71.544355 
L 439.838345 -71.82392 
L 441.829035 -72.103484 
L 444.133259 -72.383049 
L 446.685674 -72.662613 
L 449.415948 -72.942177 
L 452.252298 -73.221742 
L 455.124864 -73.501306 
L 457.968693 -73.780871 
L 460.726178 -74.060435 
L 463.348831 -74.339999 
L 465.79836 -74.619564 
L 468.047049 -74.899128 
L 470.07751 -75.178693 
L 471.881916 -75.458257 
L 473.46083 -75.737822 
L 474.821787 -76.017386 
L 486.378213 -76.017386 
L 486.378213 -76.017386 
L 487.73917 -75.737822 
L 489.318084 -75.458257 
L 491.12249 -75.178693 
L 493.152951 -74.899128 
L 495.40164 -74.619564 
L 497.851169 -74.339999 
L 500.473822 -74.060435 
L 503.231307 -73.780871 
L 506.075136 -73.501306 
L 508.947702 -73.221742 
L 511.784052 -72.942177 
L 514.514326 -72.662613 
L 517.066741 -72.383049 
L 519.370965 -72.103484 
L 521.361655 -71.82392 
L 522.981928 -71.544355 
L 524.186496 -71.264791 
L 524.944239 -70.985226 
L 525.24 -70.705662 
L 525.075468 -70.426098 
L 524.469062 -70.146533 
L 523.454831 -69.866969 
L 522.080451 -69.587404 
L 520.40447 -69.30784 
L 518.493014 -69.028276 
L 516.416189 -68.748711 
L 514.244433 -68.469147 
L 512.045074 -68.189582 
L 509.879281 -67.910018 
L 507.799598 -67.630453 
L 505.848159 -67.350889 
L 504.055645 -67.071325 
L 502.440977 -66.79176 
L 501.011698 -66.512196 
L 499.764952 -66.232631 
L 498.688942 -65.953067 
L 497.76473 -65.673503 
L 496.968241 -65.393938 
L 496.272335 -65.114374 
L 495.648815 -64.834809 
L 495.070268 -64.555245 
L 494.511651 -64.27568 
L 493.951548 -63.996116 
L 493.373081 -63.716552 
L 492.764431 -63.436987 
L 492.119006 -63.157423 
L 491.435269 -62.877858 
L 490.716287 -62.598294 
L 489.969051 -62.31873 
L 489.203652 -62.039165 
L 488.432375 -61.759601 
L 487.668788 -61.480036 
L 486.926889 -61.200472 
L 486.220352 -60.920907 
L 485.561922 -60.641343 
L 484.962956 -60.361779 
L 484.433132 -60.082214 
L 483.980292 -59.80265 
L 483.61041 -59.523085 
L 483.327638 -59.243521 
L 483.134406 -58.963957 
L 483.031525 -58.684392 
L 483.01829 -58.404828 
L 483.092531 -58.125263 
L 483.250628 -57.845699 
L 483.487482 -57.566134 
L 483.796461 -57.28657 
L 484.169327 -57.007006 
L 484.596203 -56.727441 
L 485.065576 -56.447877 
L 485.564392 -56.168312 
L 486.078253 -55.888748 
L 486.591721 -55.609184 
L 487.088752 -55.329619 
L 487.553229 -55.050055 
L 487.969569 -54.77049 
L 488.32338 -54.490926 
L 488.602107 -54.211361 
L 488.795633 -53.931797 
L 488.896775 -53.652233 
L 488.901635 -53.372668 
L 488.809788 -53.093104 
L 488.624268 -52.813539 
L 488.351371 -52.533975 
L 488.000269 -52.254411 
L 487.582485 -51.974846 
L 487.111254 -51.695282 
L 486.600816 -51.415717 
L 486.065708 -51.136153 
L 485.520084 -50.856588 
L 484.97712 -50.577024 
L 484.448522 -50.29746 
L 483.944175 -50.017895 
L 483.471927 -49.738331 
L 483.037514 -49.458766 
L 482.644609 -49.179202 
L 482.294973 -48.899638 
L 481.988688 -48.620073 
L 481.724438 -48.340509 
z
" style="stroke: #3d3d3d; stroke-width: 1.25"/>
    </defs>
    <g clip-path="url(#p0d007fb7cb)">
     <use xlink:href="#me6e7aee9db" x="0" y="360" style="fill: #c03d3e; stroke: #3d3d3d; stroke-width: 1.25"/>
    </g>
   </g>
   <g id="patch_3">
    <path d="M 212.76 320.4 
L 257.4 320.4 
L 257.4 167.557895 
L 212.76 167.557895 
z
" clip-path="url(#p0d007fb7cb)" style="fill: #3274a1"/>
   </g>
   <g id="patch_4">
    <path d="M 547.56 320.4 
L 592.2 320.4 
L 592.2 56.4 
L 547.56 56.4 
z
" clip-path="url(#p0d007fb7cb)" style="fill: #3274a1"/>
   </g>
   <g id="patch_5">
    <path d="M 257.4 320.4 
L 302.04 320.4 
L 302.04 209.242105 
L 257.4 209.242105 
z
" clip-path="url(#p0d007fb7cb)" style="fill: #e1812c"/>
   </g>
   <g id="patch_6">
    <path d="M 592.2 320.4 
L 636.84 320.4 
L 636.84 111.978947 
L 592.2 111.978947 
z
" clip-path="url(#p0d007fb7cb)" style="fill: #e1812c"/>
   </g>
   <g id="patch_7">
    <path d="M 145.8 320.4 
L 145.8 320.4 
L 145.8 320.4 
L 145.8 320.4 
z
" clip-path="url(#p0d007fb7cb)" style="fill: #3274a1"/>
   </g>
   <g id="patch_8">
    <path d="M 145.8 320.4 
L 145.8 320.4 
L 145.8 320.4 
L 145.8 320.4 
z
" clip-path="url(#p0d007fb7cb)" style="fill: #e1812c"/>
   </g>
   <g id="matplotlib.axis_1">
    <g id="xtick_1">
     <g id="line2d_1">
      <defs>
       <path id="m7fe2f5e474" d="M 0 0 
L 0 3.5 
" style="stroke: #000000; stroke-width: 0.8"/>
      </defs>
      <g>
       <use xlink:href="#m7fe2f5e474" x="145.8" y="320.4" style="stroke: #000000; stroke-width: 0.8"/>
      </g>
     </g>
     <g id="text_1">
      <!-- No -->
      <g transform="translate(139 334.998438) scale(0.1 -0.1)">
       <defs>
        <path id="DejaVuSans-4e" d="M 628 4666 
L 1478 4666 
L 3547 763 
L 3547 4666 
L 4159 4666 
L 4159 0 
L 3309 0 
L 1241 3903 
L 1241 0 
L 628 0 
L 628 4666 
z
" transform="scale(0.015625)"/>
        <path id="DejaVuSans-6f" d="M 1959 3097 
Q 1497 3097 1228 2736 
Q 959 2375 959 1747 
Q 959 1119 1226 758 
Q 1494 397 1959 397 
Q 2419 397 2687 759 
Q 2956 1122 2956 1747 
Q 2956 2369 2687 2733 
Q 2419 3097 1959 3097 
z
M 1959 3584 
Q 2709 3584 3137 3096 
Q 3566 2609 3566 1747 
Q 3566 888 3137 398 
Q 2709 -91 1959 -91 
Q 1206 -91 779 398 
Q 353 888 353 1747 
Q 353 2609 779 3096 
Q 1206 3584 1959 3584 
z
" transform="scale(0.015625)"/>
       </defs>
       <use xlink:href="#DejaVuSans-4e"/>
       <use xlink:href="#DejaVuSans-6f" transform="translate(74.804688 0)"/>
      </g>
     </g>
    </g>
    <g id="xtick_2">
     <g id="line2d_2">
      <g>
       <use xlink:href="#m7fe2f5e474" x="257.4" y="320.4" style="stroke: #000000; stroke-width: 0.8"/>
      </g>
     </g>
     <g id="text_2">
      <!-- Specific -->
      <g transform="translate(237.938281 334.998438) scale(0.1 -0.1)">
       <defs>
        <path id="DejaVuSans-53" d="M 3425 4513 
L 3425 3897 
Q 3066 4069 2747 4153 
Q 2428 4238 2131 4238 
Q 1616 4238 1336 4038 
Q 1056 3838 1056 3469 
Q 1056 3159 1242 3001 
Q 1428 2844 1947 2747 
L 2328 2669 
Q 3034 2534 3370 2195 
Q 3706 1856 3706 1288 
Q 3706 609 3251 259 
Q 2797 -91 1919 -91 
Q 1588 -91 1214 -16 
Q 841 59 441 206 
L 441 856 
Q 825 641 1194 531 
Q 1563 422 1919 422 
Q 2459 422 2753 634 
Q 3047 847 3047 1241 
Q 3047 1584 2836 1778 
Q 2625 1972 2144 2069 
L 1759 2144 
Q 1053 2284 737 2584 
Q 422 2884 422 3419 
Q 422 4038 858 4394 
Q 1294 4750 2059 4750 
Q 2388 4750 2728 4690 
Q 3069 4631 3425 4513 
z
" transform="scale(0.015625)"/>
        <path id="DejaVuSans-70" d="M 1159 525 
L 1159 -1331 
L 581 -1331 
L 581 3500 
L 1159 3500 
L 1159 2969 
Q 1341 3281 1617 3432 
Q 1894 3584 2278 3584 
Q 2916 3584 3314 3078 
Q 3713 2572 3713 1747 
Q 3713 922 3314 415 
Q 2916 -91 2278 -91 
Q 1894 -91 1617 61 
Q 1341 213 1159 525 
z
M 3116 1747 
Q 3116 2381 2855 2742 
Q 2594 3103 2138 3103 
Q 1681 3103 1420 2742 
Q 1159 2381 1159 1747 
Q 1159 1113 1420 752 
Q 1681 391 2138 391 
Q 2594 391 2855 752 
Q 3116 1113 3116 1747 
z
" transform="scale(0.015625)"/>
        <path id="DejaVuSans-65" d="M 3597 1894 
L 3597 1613 
L 953 1613 
Q 991 1019 1311 708 
Q 1631 397 2203 397 
Q 2534 397 2845 478 
Q 3156 559 3463 722 
L 3463 178 
Q 3153 47 2828 -22 
Q 2503 -91 2169 -91 
Q 1331 -91 842 396 
Q 353 884 353 1716 
Q 353 2575 817 3079 
Q 1281 3584 2069 3584 
Q 2775 3584 3186 3129 
Q 3597 2675 3597 1894 
z
M 3022 2063 
Q 3016 2534 2758 2815 
Q 2500 3097 2075 3097 
Q 1594 3097 1305 2825 
Q 1016 2553 972 2059 
L 3022 2063 
z
" transform="scale(0.015625)"/>
        <path id="DejaVuSans-63" d="M 3122 3366 
L 3122 2828 
Q 2878 2963 2633 3030 
Q 2388 3097 2138 3097 
Q 1578 3097 1268 2742 
Q 959 2388 959 1747 
Q 959 1106 1268 751 
Q 1578 397 2138 397 
Q 2388 397 2633 464 
Q 2878 531 3122 666 
L 3122 134 
Q 2881 22 2623 -34 
Q 2366 -91 2075 -91 
Q 1284 -91 818 406 
Q 353 903 353 1747 
Q 353 2603 823 3093 
Q 1294 3584 2113 3584 
Q 2378 3584 2631 3529 
Q 2884 3475 3122 3366 
z
" transform="scale(0.015625)"/>
        <path id="DejaVuSans-69" d="M 603 3500 
L 1178 3500 
L 1178 0 
L 603 0 
L 603 3500 
z
M 603 4863 
L 1178 4863 
L 1178 4134 
L 603 4134 
L 603 4863 
z
" transform="scale(0.015625)"/>
        <path id="DejaVuSans-66" d="M 2375 4863 
L 2375 4384 
L 1825 4384 
Q 1516 4384 1395 4259 
Q 1275 4134 1275 3809 
L 1275 3500 
L 2222 3500 
L 2222 3053 
L 1275 3053 
L 1275 0 
L 697 0 
L 697 3053 
L 147 3053 
L 147 3500 
L 697 3500 
L 697 3744 
Q 697 4328 969 4595 
Q 1241 4863 1831 4863 
L 2375 4863 
z
" transform="scale(0.015625)"/>
       </defs>
       <use xlink:href="#DejaVuSans-53"/>
       <use xlink:href="#DejaVuSans-70" transform="translate(63.476562 0)"/>
       <use xlink:href="#DejaVuSans-65" transform="translate(126.953125 0)"/>
       <use xlink:href="#DejaVuSans-63" transform="translate(188.476562 0)"/>
       <use xlink:href="#DejaVuSans-69" transform="translate(243.457031 0)"/>
       <use xlink:href="#DejaVuSans-66" transform="translate(271.240234 0)"/>
       <use xlink:href="#DejaVuSans-69" transform="translate(306.445312 0)"/>
       <use xlink:href="#DejaVuSans-63" transform="translate(334.228516 0)"/>
      </g>
     </g>
    </g>
    <g id="xtick_3">
     <g id="line2d_3">
      <g>
       <use xlink:href="#m7fe2f5e474" x="369" y="320.4" style="stroke: #000000; stroke-width: 0.8"/>
      </g>
     </g>
     <g id="text_3">
      <!-- Spurious -->
      <g transform="translate(347.205469 334.998438) scale(0.1 -0.1)">
       <defs>
        <path id="DejaVuSans-75" d="M 544 1381 
L 544 3500 
L 1119 3500 
L 1119 1403 
Q 1119 906 1312 657 
Q 1506 409 1894 409 
Q 2359 409 2629 706 
Q 2900 1003 2900 1516 
L 2900 3500 
L 3475 3500 
L 3475 0 
L 2900 0 
L 2900 538 
Q 2691 219 2414 64 
Q 2138 -91 1772 -91 
Q 1169 -91 856 284 
Q 544 659 544 1381 
z
M 1991 3584 
L 1991 3584 
z
" transform="scale(0.015625)"/>
        <path id="DejaVuSans-72" d="M 2631 2963 
Q 2534 3019 2420 3045 
Q 2306 3072 2169 3072 
Q 1681 3072 1420 2755 
Q 1159 2438 1159 1844 
L 1159 0 
L 581 0 
L 581 3500 
L 1159 3500 
L 1159 2956 
Q 1341 3275 1631 3429 
Q 1922 3584 2338 3584 
Q 2397 3584 2469 3576 
Q 2541 3569 2628 3553 
L 2631 2963 
z
" transform="scale(0.015625)"/>
        <path id="DejaVuSans-73" d="M 2834 3397 
L 2834 2853 
Q 2591 2978 2328 3040 
Q 2066 3103 1784 3103 
Q 1356 3103 1142 2972 
Q 928 2841 928 2578 
Q 928 2378 1081 2264 
Q 1234 2150 1697 2047 
L 1894 2003 
Q 2506 1872 2764 1633 
Q 3022 1394 3022 966 
Q 3022 478 2636 193 
Q 2250 -91 1575 -91 
Q 1294 -91 989 -36 
Q 684 19 347 128 
L 347 722 
Q 666 556 975 473 
Q 1284 391 1588 391 
Q 1994 391 2212 530 
Q 2431 669 2431 922 
Q 2431 1156 2273 1281 
Q 2116 1406 1581 1522 
L 1381 1569 
Q 847 1681 609 1914 
Q 372 2147 372 2553 
Q 372 3047 722 3315 
Q 1072 3584 1716 3584 
Q 2034 3584 2315 3537 
Q 2597 3491 2834 3397 
z
" transform="scale(0.015625)"/>
       </defs>
       <use xlink:href="#DejaVuSans-53"/>
       <use xlink:href="#DejaVuSans-70" transform="translate(63.476562 0)"/>
       <use xlink:href="#DejaVuSans-75" transform="translate(126.953125 0)"/>
       <use xlink:href="#DejaVuSans-72" transform="translate(190.332031 0)"/>
       <use xlink:href="#DejaVuSans-69" transform="translate(231.445312 0)"/>
       <use xlink:href="#DejaVuSans-6f" transform="translate(259.228516 0)"/>
       <use xlink:href="#DejaVuSans-75" transform="translate(320.410156 0)"/>
       <use xlink:href="#DejaVuSans-73" transform="translate(383.789062 0)"/>
      </g>
     </g>
    </g>
    <g id="xtick_4">
     <g id="line2d_4">
      <g>
       <use xlink:href="#m7fe2f5e474" x="480.6" y="320.4" style="stroke: #000000; stroke-width: 0.8"/>
      </g>
     </g>
     <g id="text_4">
      <!-- Non-specific -->
      <g transform="translate(449.935156 334.998438) scale(0.1 -0.1)">
       <defs>
        <path id="DejaVuSans-6e" d="M 3513 2113 
L 3513 0 
L 2938 0 
L 2938 2094 
Q 2938 2591 2744 2837 
Q 2550 3084 2163 3084 
Q 1697 3084 1428 2787 
Q 1159 2491 1159 1978 
L 1159 0 
L 581 0 
L 581 3500 
L 1159 3500 
L 1159 2956 
Q 1366 3272 1645 3428 
Q 1925 3584 2291 3584 
Q 2894 3584 3203 3211 
Q 3513 2838 3513 2113 
z
" transform="scale(0.015625)"/>
        <path id="DejaVuSans-2d" d="M 313 2009 
L 1997 2009 
L 1997 1497 
L 313 1497 
L 313 2009 
z
" transform="scale(0.015625)"/>
       </defs>
       <use xlink:href="#DejaVuSans-4e"/>
       <use xlink:href="#DejaVuSans-6f" transform="translate(74.804688 0)"/>
       <use xlink:href="#DejaVuSans-6e" transform="translate(135.986328 0)"/>
       <use xlink:href="#DejaVuSans-2d" transform="translate(199.365234 0)"/>
       <use xlink:href="#DejaVuSans-73" transform="translate(235.449219 0)"/>
       <use xlink:href="#DejaVuSans-70" transform="translate(287.548828 0)"/>
       <use xlink:href="#DejaVuSans-65" transform="translate(351.025391 0)"/>
       <use xlink:href="#DejaVuSans-63" transform="translate(412.548828 0)"/>
       <use xlink:href="#DejaVuSans-69" transform="translate(467.529297 0)"/>
       <use xlink:href="#DejaVuSans-66" transform="translate(495.3125 0)"/>
       <use xlink:href="#DejaVuSans-69" transform="translate(530.517578 0)"/>
       <use xlink:href="#DejaVuSans-63" transform="translate(558.300781 0)"/>
      </g>
     </g>
    </g>
    <g id="xtick_5">
     <g id="line2d_5">
      <g>
       <use xlink:href="#m7fe2f5e474" x="592.2" y="320.4" style="stroke: #000000; stroke-width: 0.8"/>
      </g>
     </g>
     <g id="text_5">
      <!-- other -->
      <g transform="translate(578.879688 334.998438) scale(0.1 -0.1)">
       <defs>
        <path id="DejaVuSans-74" d="M 1172 4494 
L 1172 3500 
L 2356 3500 
L 2356 3053 
L 1172 3053 
L 1172 1153 
Q 1172 725 1289 603 
Q 1406 481 1766 481 
L 2356 481 
L 2356 0 
L 1766 0 
Q 1100 0 847 248 
Q 594 497 594 1153 
L 594 3053 
L 172 3053 
L 172 3500 
L 594 3500 
L 594 4494 
L 1172 4494 
z
" transform="scale(0.015625)"/>
        <path id="DejaVuSans-68" d="M 3513 2113 
L 3513 0 
L 2938 0 
L 2938 2094 
Q 2938 2591 2744 2837 
Q 2550 3084 2163 3084 
Q 1697 3084 1428 2787 
Q 1159 2491 1159 1978 
L 1159 0 
L 581 0 
L 581 4863 
L 1159 4863 
L 1159 2956 
Q 1366 3272 1645 3428 
Q 1925 3584 2291 3584 
Q 2894 3584 3203 3211 
Q 3513 2838 3513 2113 
z
" transform="scale(0.015625)"/>
       </defs>
       <use xlink:href="#DejaVuSans-6f"/>
       <use xlink:href="#DejaVuSans-74" transform="translate(61.181641 0)"/>
       <use xlink:href="#DejaVuSans-68" transform="translate(100.390625 0)"/>
       <use xlink:href="#DejaVuSans-65" transform="translate(163.769531 0)"/>
       <use xlink:href="#DejaVuSans-72" transform="translate(225.292969 0)"/>
      </g>
     </g>
    </g>
    <g id="text_6">
     <!-- Connectivity category -->
     <g transform="translate(313.98125 348.676562) scale(0.1 -0.1)">
      <defs>
       <path id="DejaVuSans-43" d="M 4122 4306 
L 4122 3641 
Q 3803 3938 3442 4084 
Q 3081 4231 2675 4231 
Q 1875 4231 1450 3742 
Q 1025 3253 1025 2328 
Q 1025 1406 1450 917 
Q 1875 428 2675 428 
Q 3081 428 3442 575 
Q 3803 722 4122 1019 
L 4122 359 
Q 3791 134 3420 21 
Q 3050 -91 2638 -91 
Q 1578 -91 968 557 
Q 359 1206 359 2328 
Q 359 3453 968 4101 
Q 1578 4750 2638 4750 
Q 3056 4750 3426 4639 
Q 3797 4528 4122 4306 
z
" transform="scale(0.015625)"/>
       <path id="DejaVuSans-76" d="M 191 3500 
L 800 3500 
L 1894 563 
L 2988 3500 
L 3597 3500 
L 2284 0 
L 1503 0 
L 191 3500 
z
" transform="scale(0.015625)"/>
       <path id="DejaVuSans-79" d="M 2059 -325 
Q 1816 -950 1584 -1140 
Q 1353 -1331 966 -1331 
L 506 -1331 
L 506 -850 
L 844 -850 
Q 1081 -850 1212 -737 
Q 1344 -625 1503 -206 
L 1606 56 
L 191 3500 
L 800 3500 
L 1894 763 
L 2988 3500 
L 3597 3500 
L 2059 -325 
z
" transform="scale(0.015625)"/>
       <path id="DejaVuSans-20" transform="scale(0.015625)"/>
       <path id="DejaVuSans-61" d="M 2194 1759 
Q 1497 1759 1228 1600 
Q 959 1441 959 1056 
Q 959 750 1161 570 
Q 1363 391 1709 391 
Q 2188 391 2477 730 
Q 2766 1069 2766 1631 
L 2766 1759 
L 2194 1759 
z
M 3341 1997 
L 3341 0 
L 2766 0 
L 2766 531 
Q 2569 213 2275 61 
Q 1981 -91 1556 -91 
Q 1019 -91 701 211 
Q 384 513 384 1019 
Q 384 1609 779 1909 
Q 1175 2209 1959 2209 
L 2766 2209 
L 2766 2266 
Q 2766 2663 2505 2880 
Q 2244 3097 1772 3097 
Q 1472 3097 1187 3025 
Q 903 2953 641 2809 
L 641 3341 
Q 956 3463 1253 3523 
Q 1550 3584 1831 3584 
Q 2591 3584 2966 3190 
Q 3341 2797 3341 1997 
z
" transform="scale(0.015625)"/>
       <path id="DejaVuSans-67" d="M 2906 1791 
Q 2906 2416 2648 2759 
Q 2391 3103 1925 3103 
Q 1463 3103 1205 2759 
Q 947 2416 947 1791 
Q 947 1169 1205 825 
Q 1463 481 1925 481 
Q 2391 481 2648 825 
Q 2906 1169 2906 1791 
z
M 3481 434 
Q 3481 -459 3084 -895 
Q 2688 -1331 1869 -1331 
Q 1566 -1331 1297 -1286 
Q 1028 -1241 775 -1147 
L 775 -588 
Q 1028 -725 1275 -790 
Q 1522 -856 1778 -856 
Q 2344 -856 2625 -561 
Q 2906 -266 2906 331 
L 2906 616 
Q 2728 306 2450 153 
Q 2172 0 1784 0 
Q 1141 0 747 490 
Q 353 981 353 1791 
Q 353 2603 747 3093 
Q 1141 3584 1784 3584 
Q 2172 3584 2450 3431 
Q 2728 3278 2906 2969 
L 2906 3500 
L 3481 3500 
L 3481 434 
z
" transform="scale(0.015625)"/>
      </defs>
      <use xlink:href="#DejaVuSans-43"/>
      <use xlink:href="#DejaVuSans-6f" transform="translate(69.824219 0)"/>
      <use xlink:href="#DejaVuSans-6e" transform="translate(131.005859 0)"/>
      <use xlink:href="#DejaVuSans-6e" transform="translate(194.384766 0)"/>
      <use xlink:href="#DejaVuSans-65" transform="translate(257.763672 0)"/>
      <use xlink:href="#DejaVuSans-63" transform="translate(319.287109 0)"/>
      <use xlink:href="#DejaVuSans-74" transform="translate(374.267578 0)"/>
      <use xlink:href="#DejaVuSans-69" transform="translate(413.476562 0)"/>
      <use xlink:href="#DejaVuSans-76" transform="translate(441.259766 0)"/>
      <use xlink:href="#DejaVuSans-69" transform="translate(500.439453 0)"/>
      <use xlink:href="#DejaVuSans-74" transform="translate(528.222656 0)"/>
      <use xlink:href="#DejaVuSans-79" transform="translate(567.431641 0)"/>
      <use xlink:href="#DejaVuSans-20" transform="translate(626.611328 0)"/>
      <use xlink:href="#DejaVuSans-63" transform="translate(658.398438 0)"/>
      <use xlink:href="#DejaVuSans-61" transform="translate(713.378906 0)"/>
      <use xlink:href="#DejaVuSans-74" transform="translate(774.658203 0)"/>
      <use xlink:href="#DejaVuSans-65" transform="translate(813.867188 0)"/>
      <use xlink:href="#DejaVuSans-67" transform="translate(875.390625 0)"/>
      <use xlink:href="#DejaVuSans-6f" transform="translate(938.867188 0)"/>
      <use xlink:href="#DejaVuSans-72" transform="translate(1000.048828 0)"/>
      <use xlink:href="#DejaVuSans-79" transform="translate(1041.162109 0)"/>
     </g>
    </g>
   </g>
   <g id="matplotlib.axis_2">
    <g id="ytick_1">
     <g id="line2d_6">
      <defs>
       <path id="m22263031fd" d="M 0 0 
L -3.5 0 
" style="stroke: #000000; stroke-width: 0.8"/>
      </defs>
      <g>
       <use xlink:href="#m22263031fd" x="90" y="320.4" style="stroke: #000000; stroke-width: 0.8"/>
      </g>
     </g>
     <g id="text_7">
      <!-- 0 -->
      <g transform="translate(76.6375 324.199219) scale(0.1 -0.1)">
       <defs>
        <path id="DejaVuSans-30" d="M 2034 4250 
Q 1547 4250 1301 3770 
Q 1056 3291 1056 2328 
Q 1056 1369 1301 889 
Q 1547 409 2034 409 
Q 2525 409 2770 889 
Q 3016 1369 3016 2328 
Q 3016 3291 2770 3770 
Q 2525 4250 2034 4250 
z
M 2034 4750 
Q 2819 4750 3233 4129 
Q 3647 3509 3647 2328 
Q 3647 1150 3233 529 
Q 2819 -91 2034 -91 
Q 1250 -91 836 529 
Q 422 1150 422 2328 
Q 422 3509 836 4129 
Q 1250 4750 2034 4750 
z
" transform="scale(0.015625)"/>
       </defs>
       <use xlink:href="#DejaVuSans-30"/>
      </g>
     </g>
    </g>
    <g id="ytick_2">
     <g id="line2d_7">
      <g>
       <use xlink:href="#m22263031fd" x="90" y="285.663158" style="stroke: #000000; stroke-width: 0.8"/>
      </g>
     </g>
     <g id="text_8">
      <!-- 10 -->
      <g transform="translate(70.275 289.462377) scale(0.1 -0.1)">
       <defs>
        <path id="DejaVuSans-31" d="M 794 531 
L 1825 531 
L 1825 4091 
L 703 3866 
L 703 4441 
L 1819 4666 
L 2450 4666 
L 2450 531 
L 3481 531 
L 3481 0 
L 794 0 
L 794 531 
z
" transform="scale(0.015625)"/>
       </defs>
       <use xlink:href="#DejaVuSans-31"/>
       <use xlink:href="#DejaVuSans-30" transform="translate(63.623047 0)"/>
      </g>
     </g>
    </g>
    <g id="ytick_3">
     <g id="line2d_8">
      <g>
       <use xlink:href="#m22263031fd" x="90" y="250.926316" style="stroke: #000000; stroke-width: 0.8"/>
      </g>
     </g>
     <g id="text_9">
      <!-- 20 -->
      <g transform="translate(70.275 254.725535) scale(0.1 -0.1)">
       <defs>
        <path id="DejaVuSans-32" d="M 1228 531 
L 3431 531 
L 3431 0 
L 469 0 
L 469 531 
Q 828 903 1448 1529 
Q 2069 2156 2228 2338 
Q 2531 2678 2651 2914 
Q 2772 3150 2772 3378 
Q 2772 3750 2511 3984 
Q 2250 4219 1831 4219 
Q 1534 4219 1204 4116 
Q 875 4013 500 3803 
L 500 4441 
Q 881 4594 1212 4672 
Q 1544 4750 1819 4750 
Q 2544 4750 2975 4387 
Q 3406 4025 3406 3419 
Q 3406 3131 3298 2873 
Q 3191 2616 2906 2266 
Q 2828 2175 2409 1742 
Q 1991 1309 1228 531 
z
" transform="scale(0.015625)"/>
       </defs>
       <use xlink:href="#DejaVuSans-32"/>
       <use xlink:href="#DejaVuSans-30" transform="translate(63.623047 0)"/>
      </g>
     </g>
    </g>
    <g id="ytick_4">
     <g id="line2d_9">
      <g>
       <use xlink:href="#m22263031fd" x="90" y="216.189474" style="stroke: #000000; stroke-width: 0.8"/>
      </g>
     </g>
     <g id="text_10">
      <!-- 30 -->
      <g transform="translate(70.275 219.988692) scale(0.1 -0.1)">
       <defs>
        <path id="DejaVuSans-33" d="M 2597 2516 
Q 3050 2419 3304 2112 
Q 3559 1806 3559 1356 
Q 3559 666 3084 287 
Q 2609 -91 1734 -91 
Q 1441 -91 1130 -33 
Q 819 25 488 141 
L 488 750 
Q 750 597 1062 519 
Q 1375 441 1716 441 
Q 2309 441 2620 675 
Q 2931 909 2931 1356 
Q 2931 1769 2642 2001 
Q 2353 2234 1838 2234 
L 1294 2234 
L 1294 2753 
L 1863 2753 
Q 2328 2753 2575 2939 
Q 2822 3125 2822 3475 
Q 2822 3834 2567 4026 
Q 2313 4219 1838 4219 
Q 1578 4219 1281 4162 
Q 984 4106 628 3988 
L 628 4550 
Q 988 4650 1302 4700 
Q 1616 4750 1894 4750 
Q 2613 4750 3031 4423 
Q 3450 4097 3450 3541 
Q 3450 3153 3228 2886 
Q 3006 2619 2597 2516 
z
" transform="scale(0.015625)"/>
       </defs>
       <use xlink:href="#DejaVuSans-33"/>
       <use xlink:href="#DejaVuSans-30" transform="translate(63.623047 0)"/>
      </g>
     </g>
    </g>
    <g id="ytick_5">
     <g id="line2d_10">
      <g>
       <use xlink:href="#m22263031fd" x="90" y="181.452632" style="stroke: #000000; stroke-width: 0.8"/>
      </g>
     </g>
     <g id="text_11">
      <!-- 40 -->
      <g transform="translate(70.275 185.25185) scale(0.1 -0.1)">
       <defs>
        <path id="DejaVuSans-34" d="M 2419 4116 
L 825 1625 
L 2419 1625 
L 2419 4116 
z
M 2253 4666 
L 3047 4666 
L 3047 1625 
L 3713 1625 
L 3713 1100 
L 3047 1100 
L 3047 0 
L 2419 0 
L 2419 1100 
L 313 1100 
L 313 1709 
L 2253 4666 
z
" transform="scale(0.015625)"/>
       </defs>
       <use xlink:href="#DejaVuSans-34"/>
       <use xlink:href="#DejaVuSans-30" transform="translate(63.623047 0)"/>
      </g>
     </g>
    </g>
    <g id="ytick_6">
     <g id="line2d_11">
      <g>
       <use xlink:href="#m22263031fd" x="90" y="146.715789" style="stroke: #000000; stroke-width: 0.8"/>
      </g>
     </g>
     <g id="text_12">
      <!-- 50 -->
      <g transform="translate(70.275 150.515008) scale(0.1 -0.1)">
       <defs>
        <path id="DejaVuSans-35" d="M 691 4666 
L 3169 4666 
L 3169 4134 
L 1269 4134 
L 1269 2991 
Q 1406 3038 1543 3061 
Q 1681 3084 1819 3084 
Q 2600 3084 3056 2656 
Q 3513 2228 3513 1497 
Q 3513 744 3044 326 
Q 2575 -91 1722 -91 
Q 1428 -91 1123 -41 
Q 819 9 494 109 
L 494 744 
Q 775 591 1075 516 
Q 1375 441 1709 441 
Q 2250 441 2565 725 
Q 2881 1009 2881 1497 
Q 2881 1984 2565 2268 
Q 2250 2553 1709 2553 
Q 1456 2553 1204 2497 
Q 953 2441 691 2322 
L 691 4666 
z
" transform="scale(0.015625)"/>
       </defs>
       <use xlink:href="#DejaVuSans-35"/>
       <use xlink:href="#DejaVuSans-30" transform="translate(63.623047 0)"/>
      </g>
     </g>
    </g>
    <g id="ytick_7">
     <g id="line2d_12">
      <g>
       <use xlink:href="#m22263031fd" x="90" y="111.978947" style="stroke: #000000; stroke-width: 0.8"/>
      </g>
     </g>
     <g id="text_13">
      <!-- 60 -->
      <g transform="translate(70.275 115.778166) scale(0.1 -0.1)">
       <defs>
        <path id="DejaVuSans-36" d="M 2113 2584 
Q 1688 2584 1439 2293 
Q 1191 2003 1191 1497 
Q 1191 994 1439 701 
Q 1688 409 2113 409 
Q 2538 409 2786 701 
Q 3034 994 3034 1497 
Q 3034 2003 2786 2293 
Q 2538 2584 2113 2584 
z
M 3366 4563 
L 3366 3988 
Q 3128 4100 2886 4159 
Q 2644 4219 2406 4219 
Q 1781 4219 1451 3797 
Q 1122 3375 1075 2522 
Q 1259 2794 1537 2939 
Q 1816 3084 2150 3084 
Q 2853 3084 3261 2657 
Q 3669 2231 3669 1497 
Q 3669 778 3244 343 
Q 2819 -91 2113 -91 
Q 1303 -91 875 529 
Q 447 1150 447 2328 
Q 447 3434 972 4092 
Q 1497 4750 2381 4750 
Q 2619 4750 2861 4703 
Q 3103 4656 3366 4563 
z
" transform="scale(0.015625)"/>
       </defs>
       <use xlink:href="#DejaVuSans-36"/>
       <use xlink:href="#DejaVuSans-30" transform="translate(63.623047 0)"/>
      </g>
     </g>
    </g>
    <g id="ytick_8">
     <g id="line2d_13">
      <g>
       <use xlink:href="#m22263031fd" x="90" y="77.242105" style="stroke: #000000; stroke-width: 0.8"/>
      </g>
     </g>
     <g id="text_14">
      <!-- 70 -->
      <g transform="translate(70.275 81.041324) scale(0.1 -0.1)">
       <defs>
        <path id="DejaVuSans-37" d="M 525 4666 
L 3525 4666 
L 3525 4397 
L 1831 0 
L 1172 0 
L 2766 4134 
L 525 4134 
L 525 4666 
z
" transform="scale(0.015625)"/>
       </defs>
       <use xlink:href="#DejaVuSans-37"/>
       <use xlink:href="#DejaVuSans-30" transform="translate(63.623047 0)"/>
      </g>
     </g>
    </g>
    <g id="text_15">
     <!-- cont_variable -->
     <g transform="translate(63.917188 215.409375) rotate(-90) scale(0.1 -0.1)">
      <defs>
       <path id="DejaVuSans-5f" d="M 3263 -1063 
L 3263 -1509 
L -63 -1509 
L -63 -1063 
L 3263 -1063 
z
" transform="scale(0.015625)"/>
       <path id="DejaVuSans-62" d="M 3116 1747 
Q 3116 2381 2855 2742 
Q 2594 3103 2138 3103 
Q 1681 3103 1420 2742 
Q 1159 2381 1159 1747 
Q 1159 1113 1420 752 
Q 1681 391 2138 391 
Q 2594 391 2855 752 
Q 3116 1113 3116 1747 
z
M 1159 2969 
Q 1341 3281 1617 3432 
Q 1894 3584 2278 3584 
Q 2916 3584 3314 3078 
Q 3713 2572 3713 1747 
Q 3713 922 3314 415 
Q 2916 -91 2278 -91 
Q 1894 -91 1617 61 
Q 1341 213 1159 525 
L 1159 0 
L 581 0 
L 581 4863 
L 1159 4863 
L 1159 2969 
z
" transform="scale(0.015625)"/>
       <path id="DejaVuSans-6c" d="M 603 4863 
L 1178 4863 
L 1178 0 
L 603 0 
L 603 4863 
z
" transform="scale(0.015625)"/>
      </defs>
      <use xlink:href="#DejaVuSans-63"/>
      <use xlink:href="#DejaVuSans-6f" transform="translate(54.980469 0)"/>
      <use xlink:href="#DejaVuSans-6e" transform="translate(116.162109 0)"/>
      <use xlink:href="#DejaVuSans-74" transform="translate(179.541016 0)"/>
      <use xlink:href="#DejaVuSans-5f" transform="translate(218.75 0)"/>
      <use xlink:href="#DejaVuSans-76" transform="translate(268.75 0)"/>
      <use xlink:href="#DejaVuSans-61" transform="translate(327.929688 0)"/>
      <use xlink:href="#DejaVuSans-72" transform="translate(389.208984 0)"/>
      <use xlink:href="#DejaVuSans-69" transform="translate(430.322266 0)"/>
      <use xlink:href="#DejaVuSans-61" transform="translate(458.105469 0)"/>
      <use xlink:href="#DejaVuSans-62" transform="translate(519.384766 0)"/>
      <use xlink:href="#DejaVuSans-6c" transform="translate(582.861328 0)"/>
      <use xlink:href="#DejaVuSans-65" transform="translate(610.644531 0)"/>
     </g>
    </g>
   </g>
   <g id="line2d_14">
    <path clip-path="url(#p0d007fb7cb)" style="fill: none; stroke: #424242; stroke-width: 2.25; stroke-linecap: square"/>
   </g>
   <g id="line2d_15">
    <path clip-path="url(#p0d007fb7cb)" style="fill: none; stroke: #424242; stroke-width: 2.25; stroke-linecap: square"/>
   </g>
   <g id="line2d_16">
    <path clip-path="url(#p0d007fb7cb)" style="fill: none; stroke: #424242; stroke-width: 2.25; stroke-linecap: square"/>
   </g>
   <g id="line2d_17">
    <path clip-path="url(#p0d007fb7cb)" style="fill: none; stroke: #424242; stroke-width: 2.25; stroke-linecap: square"/>
   </g>
   <g id="patch_9">
    <path d="M 90 320.4 
L 90 43.2 
" style="fill: none; stroke: #000000; stroke-width: 0.8; stroke-linejoin: miter; stroke-linecap: square"/>
   </g>
   <g id="patch_10">
    <path d="M 648 320.4 
L 648 43.2 
" style="fill: none; stroke: #000000; stroke-width: 0.8; stroke-linejoin: miter; stroke-linecap: square"/>
   </g>
   <g id="patch_11">
    <path d="M 90 320.4 
L 648 320.4 
" style="fill: none; stroke: #000000; stroke-width: 0.8; stroke-linejoin: miter; stroke-linecap: square"/>
   </g>
   <g id="patch_12">
    <path d="M 90 43.2 
L 648 43.2 
" style="fill: none; stroke: #000000; stroke-width: 0.8; stroke-linejoin: miter; stroke-linecap: square"/>
   </g>
   <g id="PathCollection_1">
    <defs>
     <path id="mf8728ce088" d="M 0 2.5 
C 0.663008 2.5 1.29895 2.236584 1.767767 1.767767 
C 2.236584 1.29895 2.5 0.663008 2.5 0 
C 2.5 -0.663008 2.236584 -1.29895 1.767767 -1.767767 
C 1.29895 -2.236584 0.663008 -2.5 0 -2.5 
C -0.663008 -2.5 -1.29895 -2.236584 -1.767767 -1.767767 
C -2.236584 -1.29895 -2.5 -0.663008 -2.5 0 
C -2.5 0.663008 -2.236584 1.29895 -1.767767 1.767767 
C -1.29895 2.236584 -0.663008 2.5 0 2.5 
z
"/>
    </defs>
    <g clip-path="url(#p0d007fb7cb)">
     <use xlink:href="#mf8728ce088" x="152.475847" y="292.610526" style="fill-opacity: 0.3"/>
     <use xlink:href="#mf8728ce088" x="143.944301" y="292.610526" style="fill-opacity: 0.3"/>
     <use xlink:href="#mf8728ce088" x="147.362511" y="292.610526" style="fill-opacity: 0.3"/>
     <use xlink:href="#mf8728ce088" x="139.288329" y="292.610526" style="fill-opacity: 0.3"/>
     <use xlink:href="#mf8728ce088" x="139.973647" y="289.136842" style="fill-opacity: 0.3"/>
     <use xlink:href="#mf8728ce088" x="145.136712" y="289.136842" style="fill-opacity: 0.3"/>
     <use xlink:href="#mf8728ce088" x="156.483062" y="289.136842" style="fill-opacity: 0.3"/>
     <use xlink:href="#mf8728ce088" x="155.117944" y="296.084211" style="fill-opacity: 0.3"/>
     <use xlink:href="#mf8728ce088" x="144.041967" y="296.084211" style="fill-opacity: 0.3"/>
     <use xlink:href="#mf8728ce088" x="142.509087" y="296.084211" style="fill-opacity: 0.3"/>
     <use xlink:href="#mf8728ce088" x="136.925936" y="296.084211" style="fill-opacity: 0.3"/>
     <use xlink:href="#mf8728ce088" x="150.234564" y="296.084211" style="fill-opacity: 0.3"/>
     <use xlink:href="#mf8728ce088" x="143.154313" y="296.084211" style="fill-opacity: 0.3"/>
     <use xlink:href="#mf8728ce088" x="148.206156" y="296.084211" style="fill-opacity: 0.3"/>
     <use xlink:href="#mf8728ce088" x="151.243099" y="296.084211" style="fill-opacity: 0.3"/>
     <use xlink:href="#mf8728ce088" x="153.912692" y="296.084211" style="fill-opacity: 0.3"/>
     <use xlink:href="#mf8728ce088" x="140.882671" y="296.084211" style="fill-opacity: 0.3"/>
     <use xlink:href="#mf8728ce088" x="148.994117" y="296.084211" style="fill-opacity: 0.3"/>
     <use xlink:href="#mf8728ce088" x="150.471858" y="296.084211" style="fill-opacity: 0.3"/>
     <use xlink:href="#mf8728ce088" x="151.598692" y="296.084211" style="fill-opacity: 0.3"/>
     <use xlink:href="#mf8728ce088" x="144.795555" y="296.084211" style="fill-opacity: 0.3"/>
     <use xlink:href="#mf8728ce088" x="145.67483" y="289.136842" style="fill-opacity: 0.3"/>
     <use xlink:href="#mf8728ce088" x="145.014819" y="289.136842" style="fill-opacity: 0.3"/>
     <use xlink:href="#mf8728ce088" x="156.133853" y="289.136842" style="fill-opacity: 0.3"/>
     <use xlink:href="#mf8728ce088" x="143.30867" y="289.136842" style="fill-opacity: 0.3"/>
     <use xlink:href="#mf8728ce088" x="144.269273" y="289.136842" style="fill-opacity: 0.3"/>
     <use xlink:href="#mf8728ce088" x="154.207617" y="289.136842" style="fill-opacity: 0.3"/>
     <use xlink:href="#mf8728ce088" x="136.40106" y="289.136842" style="fill-opacity: 0.3"/>
     <use xlink:href="#mf8728ce088" x="146.001244" y="289.136842" style="fill-opacity: 0.3"/>
     <use xlink:href="#mf8728ce088" x="138.256038" y="289.136842" style="fill-opacity: 0.3"/>
    </g>
   </g>
   <g id="PathCollection_2">
    <g clip-path="url(#p0d007fb7cb)">
     <use xlink:href="#mf8728ce088" x="250.726498" y="292.610526" style="fill-opacity: 0.3"/>
     <use xlink:href="#mf8728ce088" x="247.376608" y="292.610526" style="fill-opacity: 0.3"/>
     <use xlink:href="#mf8728ce088" x="256.002087" y="292.610526" style="fill-opacity: 0.3"/>
     <use xlink:href="#mf8728ce088" x="246.382086" y="292.610526" style="fill-opacity: 0.3"/>
     <use xlink:href="#mf8728ce088" x="253.816843" y="292.610526" style="fill-opacity: 0.3"/>
     <use xlink:href="#mf8728ce088" x="248.637863" y="292.610526" style="fill-opacity: 0.3"/>
     <use xlink:href="#mf8728ce088" x="261.643359" y="292.610526" style="fill-opacity: 0.3"/>
     <use xlink:href="#mf8728ce088" x="253.378738" y="292.610526" style="fill-opacity: 0.3"/>
     <use xlink:href="#mf8728ce088" x="264.931887" y="292.610526" style="fill-opacity: 0.3"/>
     <use xlink:href="#mf8728ce088" x="262.650818" y="306.505263" style="fill-opacity: 0.3"/>
     <use xlink:href="#mf8728ce088" x="266.920849" y="306.505263" style="fill-opacity: 0.3"/>
     <use xlink:href="#mf8728ce088" x="257.546294" y="292.610526" style="fill-opacity: 0.3"/>
     <use xlink:href="#mf8728ce088" x="248.926566" y="292.610526" style="fill-opacity: 0.3"/>
     <use xlink:href="#mf8728ce088" x="255.229663" y="292.610526" style="fill-opacity: 0.3"/>
     <use xlink:href="#mf8728ce088" x="252.355761" y="289.136842" style="fill-opacity: 0.3"/>
     <use xlink:href="#mf8728ce088" x="258.871998" y="289.136842" style="fill-opacity: 0.3"/>
     <use xlink:href="#mf8728ce088" x="267.440031" y="289.136842" style="fill-opacity: 0.3"/>
     <use xlink:href="#mf8728ce088" x="255.232319" y="289.136842" style="fill-opacity: 0.3"/>
     <use xlink:href="#mf8728ce088" x="247.970401" y="289.136842" style="fill-opacity: 0.3"/>
     <use xlink:href="#mf8728ce088" x="260.008305" y="289.136842" style="fill-opacity: 0.3"/>
     <use xlink:href="#mf8728ce088" x="261.655917" y="289.136842" style="fill-opacity: 0.3"/>
     <use xlink:href="#mf8728ce088" x="250.370999" y="289.136842" style="fill-opacity: 0.3"/>
     <use xlink:href="#mf8728ce088" x="267.891418" y="289.136842" style="fill-opacity: 0.3"/>
     <use xlink:href="#mf8728ce088" x="259.487745" y="289.136842" style="fill-opacity: 0.3"/>
     <use xlink:href="#mf8728ce088" x="250.834678" y="289.136842" style="fill-opacity: 0.3"/>
     <use xlink:href="#mf8728ce088" x="261.321735" y="289.136842" style="fill-opacity: 0.3"/>
     <use xlink:href="#mf8728ce088" x="258.900952" y="289.136842" style="fill-opacity: 0.3"/>
     <use xlink:href="#mf8728ce088" x="266.903368" y="289.136842" style="fill-opacity: 0.3"/>
     <use xlink:href="#mf8728ce088" x="262.285373" y="289.136842" style="fill-opacity: 0.3"/>
     <use xlink:href="#mf8728ce088" x="261.123271" y="289.136842" style="fill-opacity: 0.3"/>
     <use xlink:href="#mf8728ce088" x="267.16254" y="289.136842" style="fill-opacity: 0.3"/>
     <use xlink:href="#mf8728ce088" x="252.403964" y="289.136842" style="fill-opacity: 0.3"/>
     <use xlink:href="#mf8728ce088" x="257.64647" y="289.136842" style="fill-opacity: 0.3"/>
     <use xlink:href="#mf8728ce088" x="257.028416" y="289.136842" style="fill-opacity: 0.3"/>
     <use xlink:href="#mf8728ce088" x="267.332483" y="289.136842" style="fill-opacity: 0.3"/>
     <use xlink:href="#mf8728ce088" x="247.933955" y="289.136842" style="fill-opacity: 0.3"/>
     <use xlink:href="#mf8728ce088" x="250.364473" y="289.136842" style="fill-opacity: 0.3"/>
     <use xlink:href="#mf8728ce088" x="251.183185" y="289.136842" style="fill-opacity: 0.3"/>
     <use xlink:href="#mf8728ce088" x="260.773258" y="289.136842" style="fill-opacity: 0.3"/>
     <use xlink:href="#mf8728ce088" x="257.657386" y="289.136842" style="fill-opacity: 0.3"/>
     <use xlink:href="#mf8728ce088" x="252.559221" y="289.136842" style="fill-opacity: 0.3"/>
     <use xlink:href="#mf8728ce088" x="258.983219" y="289.136842" style="fill-opacity: 0.3"/>
     <use xlink:href="#mf8728ce088" x="249.328993" y="289.136842" style="fill-opacity: 0.3"/>
     <use xlink:href="#mf8728ce088" x="265.096348" y="289.136842" style="fill-opacity: 0.3"/>
     <use xlink:href="#mf8728ce088" x="247.36185" y="289.136842" style="fill-opacity: 0.3"/>
     <use xlink:href="#mf8728ce088" x="265.680545" y="289.136842" style="fill-opacity: 0.3"/>
     <use xlink:href="#mf8728ce088" x="248.36956" y="289.136842" style="fill-opacity: 0.3"/>
     <use xlink:href="#mf8728ce088" x="255.972846" y="289.136842" style="fill-opacity: 0.3"/>
     <use xlink:href="#mf8728ce088" x="264.793503" y="296.084211" style="fill-opacity: 0.3"/>
     <use xlink:href="#mf8728ce088" x="268.556973" y="296.084211" style="fill-opacity: 0.3"/>
     <use xlink:href="#mf8728ce088" x="263.374435" y="296.084211" style="fill-opacity: 0.3"/>
     <use xlink:href="#mf8728ce088" x="255.377743" y="296.084211" style="fill-opacity: 0.3"/>
     <use xlink:href="#mf8728ce088" x="248.382272" y="296.084211" style="fill-opacity: 0.3"/>
     <use xlink:href="#mf8728ce088" x="261.450755" y="296.084211" style="fill-opacity: 0.3"/>
     <use xlink:href="#mf8728ce088" x="264.15901" y="296.084211" style="fill-opacity: 0.3"/>
     <use xlink:href="#mf8728ce088" x="251.080848" y="296.084211" style="fill-opacity: 0.3"/>
     <use xlink:href="#mf8728ce088" x="246.386943" y="296.084211" style="fill-opacity: 0.3"/>
     <use xlink:href="#mf8728ce088" x="247.648721" y="296.084211" style="fill-opacity: 0.3"/>
     <use xlink:href="#mf8728ce088" x="251.036444" y="296.084211" style="fill-opacity: 0.3"/>
     <use xlink:href="#mf8728ce088" x="247.825837" y="296.084211" style="fill-opacity: 0.3"/>
     <use xlink:href="#mf8728ce088" x="254.978923" y="296.084211" style="fill-opacity: 0.3"/>
     <use xlink:href="#mf8728ce088" x="257.866664" y="296.084211" style="fill-opacity: 0.3"/>
     <use xlink:href="#mf8728ce088" x="251.706092" y="296.084211" style="fill-opacity: 0.3"/>
     <use xlink:href="#mf8728ce088" x="254.713615" y="296.084211" style="fill-opacity: 0.3"/>
     <use xlink:href="#mf8728ce088" x="265.298062" y="296.084211" style="fill-opacity: 0.3"/>
     <use xlink:href="#mf8728ce088" x="253.490524" y="296.084211" style="fill-opacity: 0.3"/>
     <use xlink:href="#mf8728ce088" x="252.240494" y="296.084211" style="fill-opacity: 0.3"/>
     <use xlink:href="#mf8728ce088" x="250.050551" y="296.084211" style="fill-opacity: 0.3"/>
     <use xlink:href="#mf8728ce088" x="251.172199" y="296.084211" style="fill-opacity: 0.3"/>
     <use xlink:href="#mf8728ce088" x="254.364722" y="296.084211" style="fill-opacity: 0.3"/>
     <use xlink:href="#mf8728ce088" x="257.302932" y="296.084211" style="fill-opacity: 0.3"/>
     <use xlink:href="#mf8728ce088" x="253.863448" y="296.084211" style="fill-opacity: 0.3"/>
     <use xlink:href="#mf8728ce088" x="254.118699" y="289.136842" style="fill-opacity: 0.3"/>
     <use xlink:href="#mf8728ce088" x="252.974633" y="289.136842" style="fill-opacity: 0.3"/>
     <use xlink:href="#mf8728ce088" x="260.634641" y="289.136842" style="fill-opacity: 0.3"/>
     <use xlink:href="#mf8728ce088" x="256.74092" y="289.136842" style="fill-opacity: 0.3"/>
    </g>
   </g>
   <g id="PathCollection_3">
    <g clip-path="url(#p0d007fb7cb)">
     <use xlink:href="#mf8728ce088" x="371.512077" y="292.610526" style="fill-opacity: 0.3"/>
     <use xlink:href="#mf8728ce088" x="370.261729" y="306.505263" style="fill-opacity: 0.3"/>
     <use xlink:href="#mf8728ce088" x="376.600889" y="306.505263" style="fill-opacity: 0.3"/>
     <use xlink:href="#mf8728ce088" x="370.077643" y="289.136842" style="fill-opacity: 0.3"/>
     <use xlink:href="#mf8728ce088" x="369.019523" y="289.136842" style="fill-opacity: 0.3"/>
     <use xlink:href="#mf8728ce088" x="368.267659" y="289.136842" style="fill-opacity: 0.3"/>
     <use xlink:href="#mf8728ce088" x="373.501795" y="289.136842" style="fill-opacity: 0.3"/>
     <use xlink:href="#mf8728ce088" x="367.66769" y="289.136842" style="fill-opacity: 0.3"/>
     <use xlink:href="#mf8728ce088" x="378.546863" y="289.136842" style="fill-opacity: 0.3"/>
     <use xlink:href="#mf8728ce088" x="357.917832" y="289.136842" style="fill-opacity: 0.3"/>
     <use xlink:href="#mf8728ce088" x="371.633664" y="289.136842" style="fill-opacity: 0.3"/>
     <use xlink:href="#mf8728ce088" x="359.779709" y="289.136842" style="fill-opacity: 0.3"/>
     <use xlink:href="#mf8728ce088" x="361.80683" y="289.136842" style="fill-opacity: 0.3"/>
     <use xlink:href="#mf8728ce088" x="376.071796" y="289.136842" style="fill-opacity: 0.3"/>
     <use xlink:href="#mf8728ce088" x="366.50745" y="289.136842" style="fill-opacity: 0.3"/>
     <use xlink:href="#mf8728ce088" x="377.156715" y="289.136842" style="fill-opacity: 0.3"/>
     <use xlink:href="#mf8728ce088" x="367.159983" y="289.136842" style="fill-opacity: 0.3"/>
     <use xlink:href="#mf8728ce088" x="359.747707" y="289.136842" style="fill-opacity: 0.3"/>
     <use xlink:href="#mf8728ce088" x="374.803034" y="289.136842" style="fill-opacity: 0.3"/>
     <use xlink:href="#mf8728ce088" x="362.512201" y="289.136842" style="fill-opacity: 0.3"/>
     <use xlink:href="#mf8728ce088" x="372.169848" y="289.136842" style="fill-opacity: 0.3"/>
     <use xlink:href="#mf8728ce088" x="374.610939" y="289.136842" style="fill-opacity: 0.3"/>
     <use xlink:href="#mf8728ce088" x="378.64191" y="289.136842" style="fill-opacity: 0.3"/>
     <use xlink:href="#mf8728ce088" x="369.719846" y="296.084211" style="fill-opacity: 0.3"/>
     <use xlink:href="#mf8728ce088" x="376.505665" y="296.084211" style="fill-opacity: 0.3"/>
     <use xlink:href="#mf8728ce088" x="362.011069" y="296.084211" style="fill-opacity: 0.3"/>
     <use xlink:href="#mf8728ce088" x="359.048511" y="296.084211" style="fill-opacity: 0.3"/>
     <use xlink:href="#mf8728ce088" x="369.918777" y="296.084211" style="fill-opacity: 0.3"/>
     <use xlink:href="#mf8728ce088" x="375.58758" y="296.084211" style="fill-opacity: 0.3"/>
     <use xlink:href="#mf8728ce088" x="378.921905" y="296.084211" style="fill-opacity: 0.3"/>
     <use xlink:href="#mf8728ce088" x="366.281967" y="296.084211" style="fill-opacity: 0.3"/>
     <use xlink:href="#mf8728ce088" x="360.595857" y="296.084211" style="fill-opacity: 0.3"/>
     <use xlink:href="#mf8728ce088" x="368.853562" y="296.084211" style="fill-opacity: 0.3"/>
     <use xlink:href="#mf8728ce088" x="362.126662" y="296.084211" style="fill-opacity: 0.3"/>
     <use xlink:href="#mf8728ce088" x="359.267775" y="296.084211" style="fill-opacity: 0.3"/>
     <use xlink:href="#mf8728ce088" x="365.858821" y="289.136842" style="fill-opacity: 0.3"/>
     <use xlink:href="#mf8728ce088" x="377.623947" y="289.136842" style="fill-opacity: 0.3"/>
     <use xlink:href="#mf8728ce088" x="360.126221" y="289.136842" style="fill-opacity: 0.3"/>
     <use xlink:href="#mf8728ce088" x="374.276525" y="289.136842" style="fill-opacity: 0.3"/>
     <use xlink:href="#mf8728ce088" x="377.218871" y="289.136842" style="fill-opacity: 0.3"/>
     <use xlink:href="#mf8728ce088" x="369.190802" y="289.136842" style="fill-opacity: 0.3"/>
     <use xlink:href="#mf8728ce088" x="375.376812" y="289.136842" style="fill-opacity: 0.3"/>
    </g>
   </g>
   <g id="PathCollection_4">
    <g clip-path="url(#p0d007fb7cb)">
     <use xlink:href="#mf8728ce088" x="480.57076" y="292.610526" style="fill-opacity: 0.3"/>
     <use xlink:href="#mf8728ce088" x="475.71857" y="292.610526" style="fill-opacity: 0.3"/>
     <use xlink:href="#mf8728ce088" x="482.413397" y="292.610526" style="fill-opacity: 0.3"/>
     <use xlink:href="#mf8728ce088" x="491.015246" y="306.505263" style="fill-opacity: 0.3"/>
     <use xlink:href="#mf8728ce088" x="487.841417" y="306.505263" style="fill-opacity: 0.3"/>
     <use xlink:href="#mf8728ce088" x="483.996965" y="306.505263" style="fill-opacity: 0.3"/>
     <use xlink:href="#mf8728ce088" x="479.194492" y="306.505263" style="fill-opacity: 0.3"/>
     <use xlink:href="#mf8728ce088" x="482.457667" y="306.505263" style="fill-opacity: 0.3"/>
     <use xlink:href="#mf8728ce088" x="483.692843" y="292.610526" style="fill-opacity: 0.3"/>
     <use xlink:href="#mf8728ce088" x="487.799093" y="306.505263" style="fill-opacity: 0.3"/>
     <use xlink:href="#mf8728ce088" x="482.041758" y="306.505263" style="fill-opacity: 0.3"/>
     <use xlink:href="#mf8728ce088" x="472.876877" y="306.505263" style="fill-opacity: 0.3"/>
     <use xlink:href="#mf8728ce088" x="472.533483" y="289.136842" style="fill-opacity: 0.3"/>
     <use xlink:href="#mf8728ce088" x="472.278584" y="289.136842" style="fill-opacity: 0.3"/>
     <use xlink:href="#mf8728ce088" x="475.260246" y="289.136842" style="fill-opacity: 0.3"/>
     <use xlink:href="#mf8728ce088" x="481.967338" y="289.136842" style="fill-opacity: 0.3"/>
     <use xlink:href="#mf8728ce088" x="470.140815" y="289.136842" style="fill-opacity: 0.3"/>
     <use xlink:href="#mf8728ce088" x="491.739547" y="289.136842" style="fill-opacity: 0.3"/>
     <use xlink:href="#mf8728ce088" x="488.127404" y="289.136842" style="fill-opacity: 0.3"/>
     <use xlink:href="#mf8728ce088" x="488.395044" y="289.136842" style="fill-opacity: 0.3"/>
     <use xlink:href="#mf8728ce088" x="491.145889" y="289.136842" style="fill-opacity: 0.3"/>
     <use xlink:href="#mf8728ce088" x="476.989805" y="289.136842" style="fill-opacity: 0.3"/>
     <use xlink:href="#mf8728ce088" x="471.192361" y="289.136842" style="fill-opacity: 0.3"/>
     <use xlink:href="#mf8728ce088" x="489.742168" y="289.136842" style="fill-opacity: 0.3"/>
     <use xlink:href="#mf8728ce088" x="480.484771" y="289.136842" style="fill-opacity: 0.3"/>
     <use xlink:href="#mf8728ce088" x="475.967692" y="289.136842" style="fill-opacity: 0.3"/>
     <use xlink:href="#mf8728ce088" x="480.955235" y="289.136842" style="fill-opacity: 0.3"/>
     <use xlink:href="#mf8728ce088" x="485.285646" y="289.136842" style="fill-opacity: 0.3"/>
     <use xlink:href="#mf8728ce088" x="470.488722" y="289.136842" style="fill-opacity: 0.3"/>
     <use xlink:href="#mf8728ce088" x="486.527515" y="289.136842" style="fill-opacity: 0.3"/>
     <use xlink:href="#mf8728ce088" x="483.364885" y="289.136842" style="fill-opacity: 0.3"/>
     <use xlink:href="#mf8728ce088" x="489.054786" y="289.136842" style="fill-opacity: 0.3"/>
     <use xlink:href="#mf8728ce088" x="490.659886" y="289.136842" style="fill-opacity: 0.3"/>
     <use xlink:href="#mf8728ce088" x="478.543116" y="289.136842" style="fill-opacity: 0.3"/>
     <use xlink:href="#mf8728ce088" x="488.687831" y="289.136842" style="fill-opacity: 0.3"/>
     <use xlink:href="#mf8728ce088" x="483.365726" y="289.136842" style="fill-opacity: 0.3"/>
     <use xlink:href="#mf8728ce088" x="471.411852" y="289.136842" style="fill-opacity: 0.3"/>
     <use xlink:href="#mf8728ce088" x="476.238328" y="289.136842" style="fill-opacity: 0.3"/>
     <use xlink:href="#mf8728ce088" x="478.32862" y="289.136842" style="fill-opacity: 0.3"/>
     <use xlink:href="#mf8728ce088" x="475.291553" y="289.136842" style="fill-opacity: 0.3"/>
     <use xlink:href="#mf8728ce088" x="473.16191" y="289.136842" style="fill-opacity: 0.3"/>
     <use xlink:href="#mf8728ce088" x="472.104364" y="289.136842" style="fill-opacity: 0.3"/>
     <use xlink:href="#mf8728ce088" x="490.973062" y="289.136842" style="fill-opacity: 0.3"/>
     <use xlink:href="#mf8728ce088" x="479.518014" y="289.136842" style="fill-opacity: 0.3"/>
     <use xlink:href="#mf8728ce088" x="471.246846" y="289.136842" style="fill-opacity: 0.3"/>
     <use xlink:href="#mf8728ce088" x="473.193371" y="289.136842" style="fill-opacity: 0.3"/>
     <use xlink:href="#mf8728ce088" x="488.886719" y="289.136842" style="fill-opacity: 0.3"/>
     <use xlink:href="#mf8728ce088" x="483.862465" y="289.136842" style="fill-opacity: 0.3"/>
     <use xlink:href="#mf8728ce088" x="482.759864" y="289.136842" style="fill-opacity: 0.3"/>
     <use xlink:href="#mf8728ce088" x="488.505109" y="289.136842" style="fill-opacity: 0.3"/>
     <use xlink:href="#mf8728ce088" x="490.082399" y="289.136842" style="fill-opacity: 0.3"/>
     <use xlink:href="#mf8728ce088" x="489.181411" y="289.136842" style="fill-opacity: 0.3"/>
     <use xlink:href="#mf8728ce088" x="476.825689" y="296.084211" style="fill-opacity: 0.3"/>
     <use xlink:href="#mf8728ce088" x="485.262543" y="296.084211" style="fill-opacity: 0.3"/>
     <use xlink:href="#mf8728ce088" x="485.978289" y="296.084211" style="fill-opacity: 0.3"/>
     <use xlink:href="#mf8728ce088" x="478.059371" y="296.084211" style="fill-opacity: 0.3"/>
     <use xlink:href="#mf8728ce088" x="471.453296" y="296.084211" style="fill-opacity: 0.3"/>
     <use xlink:href="#mf8728ce088" x="480.569174" y="296.084211" style="fill-opacity: 0.3"/>
     <use xlink:href="#mf8728ce088" x="477.232148" y="296.084211" style="fill-opacity: 0.3"/>
     <use xlink:href="#mf8728ce088" x="483.489723" y="296.084211" style="fill-opacity: 0.3"/>
     <use xlink:href="#mf8728ce088" x="476.539547" y="296.084211" style="fill-opacity: 0.3"/>
     <use xlink:href="#mf8728ce088" x="470.324876" y="296.084211" style="fill-opacity: 0.3"/>
     <use xlink:href="#mf8728ce088" x="485.007983" y="289.136842" style="fill-opacity: 0.3"/>
    </g>
   </g>
   <g id="legend_1">
    <g id="patch_13">
     <path d="M 97 95.234375 
L 234.582813 95.234375 
Q 236.582813 95.234375 236.582813 93.234375 
L 236.582813 50.2 
Q 236.582813 48.2 234.582813 48.2 
L 97 48.2 
Q 95 48.2 95 50.2 
L 95 93.234375 
Q 95 95.234375 97 95.234375 
z
" style="fill: #ffffff; opacity: 0.8; stroke: #cccccc; stroke-linejoin: miter"/>
    </g>
    <g id="text_16">
     <!-- main.experimenter.gender -->
     <g transform="translate(99 59.798437) scale(0.1 -0.1)">
      <defs>
       <path id="DejaVuSans-6d" d="M 3328 2828 
Q 3544 3216 3844 3400 
Q 4144 3584 4550 3584 
Q 5097 3584 5394 3201 
Q 5691 2819 5691 2113 
L 5691 0 
L 5113 0 
L 5113 2094 
Q 5113 2597 4934 2840 
Q 4756 3084 4391 3084 
Q 3944 3084 3684 2787 
Q 3425 2491 3425 1978 
L 3425 0 
L 2847 0 
L 2847 2094 
Q 2847 2600 2669 2842 
Q 2491 3084 2119 3084 
Q 1678 3084 1418 2786 
Q 1159 2488 1159 1978 
L 1159 0 
L 581 0 
L 581 3500 
L 1159 3500 
L 1159 2956 
Q 1356 3278 1631 3431 
Q 1906 3584 2284 3584 
Q 2666 3584 2933 3390 
Q 3200 3197 3328 2828 
z
" transform="scale(0.015625)"/>
       <path id="DejaVuSans-2e" d="M 684 794 
L 1344 794 
L 1344 0 
L 684 0 
L 684 794 
z
" transform="scale(0.015625)"/>
       <path id="DejaVuSans-78" d="M 3513 3500 
L 2247 1797 
L 3578 0 
L 2900 0 
L 1881 1375 
L 863 0 
L 184 0 
L 1544 1831 
L 300 3500 
L 978 3500 
L 1906 2253 
L 2834 3500 
L 3513 3500 
z
" transform="scale(0.015625)"/>
       <path id="DejaVuSans-64" d="M 2906 2969 
L 2906 4863 
L 3481 4863 
L 3481 0 
L 2906 0 
L 2906 525 
Q 2725 213 2448 61 
Q 2172 -91 1784 -91 
Q 1150 -91 751 415 
Q 353 922 353 1747 
Q 353 2572 751 3078 
Q 1150 3584 1784 3584 
Q 2172 3584 2448 3432 
Q 2725 3281 2906 2969 
z
M 947 1747 
Q 947 1113 1208 752 
Q 1469 391 1925 391 
Q 2381 391 2643 752 
Q 2906 1113 2906 1747 
Q 2906 2381 2643 2742 
Q 2381 3103 1925 3103 
Q 1469 3103 1208 2742 
Q 947 2381 947 1747 
z
" transform="scale(0.015625)"/>
      </defs>
      <use xlink:href="#DejaVuSans-6d"/>
      <use xlink:href="#DejaVuSans-61" transform="translate(97.412109 0)"/>
      <use xlink:href="#DejaVuSans-69" transform="translate(158.691406 0)"/>
      <use xlink:href="#DejaVuSans-6e" transform="translate(186.474609 0)"/>
      <use xlink:href="#DejaVuSans-2e" transform="translate(249.853516 0)"/>
      <use xlink:href="#DejaVuSans-65" transform="translate(281.640625 0)"/>
      <use xlink:href="#DejaVuSans-78" transform="translate(341.414062 0)"/>
      <use xlink:href="#DejaVuSans-70" transform="translate(400.59375 0)"/>
      <use xlink:href="#DejaVuSans-65" transform="translate(464.070312 0)"/>
      <use xlink:href="#DejaVuSans-72" transform="translate(525.59375 0)"/>
      <use xlink:href="#DejaVuSans-69" transform="translate(566.707031 0)"/>
      <use xlink:href="#DejaVuSans-6d" transform="translate(594.490234 0)"/>
      <use xlink:href="#DejaVuSans-65" transform="translate(691.902344 0)"/>
      <use xlink:href="#DejaVuSans-6e" transform="translate(753.425781 0)"/>
      <use xlink:href="#DejaVuSans-74" transform="translate(816.804688 0)"/>
      <use xlink:href="#DejaVuSans-65" transform="translate(856.013672 0)"/>
      <use xlink:href="#DejaVuSans-72" transform="translate(917.537109 0)"/>
      <use xlink:href="#DejaVuSans-2e" transform="translate(949.525391 0)"/>
      <use xlink:href="#DejaVuSans-67" transform="translate(981.3125 0)"/>
      <use xlink:href="#DejaVuSans-65" transform="translate(1044.789062 0)"/>
      <use xlink:href="#DejaVuSans-6e" transform="translate(1106.3125 0)"/>
      <use xlink:href="#DejaVuSans-64" transform="translate(1169.691406 0)"/>
      <use xlink:href="#DejaVuSans-65" transform="translate(1233.167969 0)"/>
      <use xlink:href="#DejaVuSans-72" transform="translate(1294.691406 0)"/>
     </g>
    </g>
    <g id="patch_14">
     <path d="M 146.921094 74.476562 
L 166.921094 74.476562 
L 166.921094 67.476562 
L 146.921094 67.476562 
z
" style="fill: #3274a1"/>
    </g>
    <g id="text_17">
     <!-- f -->
     <g transform="translate(174.921094 74.476562) scale(0.1 -0.1)">
      <use xlink:href="#DejaVuSans-66"/>
     </g>
    </g>
    <g id="patch_15">
     <path d="M 146.921094 89.154688 
L 166.921094 89.154688 
L 166.921094 82.154688 
L 146.921094 82.154688 
z
" style="fill: #e1812c"/>
    </g>
    <g id="text_18">
     <!-- m -->
     <g transform="translate(174.921094 89.154688) scale(0.1 -0.1)">
      <use xlink:href="#DejaVuSans-6d"/>
     </g>
    </g>
   </g>
  </g>
 </g>
 <defs>
  <clipPath id="p0d007fb7cb">
   <rect x="90" y="43.2" width="558" height="277.2"/>
  </clipPath>
 </defs>
</svg>
