<?xml version="1.0" encoding="utf-8" standalone="no"?>
<!DOCTYPE svg PUBLIC "-//W3C//DTD SVG 1.1//EN"
  "http://www.w3.org/Graphics/SVG/1.1/DTD/svg11.dtd">
<svg xmlns:xlink="http://www.w3.org/1999/xlink" width="720pt" height="360pt" viewBox="0 0 720 360" xmlns="http://www.w3.org/2000/svg" version="1.1">
 <metadata>
  <rdf:RDF xmlns:dc="http://purl.org/dc/elements/1.1/" xmlns:cc="http://creativecommons.org/ns#" xmlns:rdf="http://www.w3.org/1999/02/22-rdf-syntax-ns#">
   <cc:Work>
    <dc:type rdf:resource="http://purl.org/dc/dcmitype/StillImage"/>
    <dc:date>2025-09-09T15:45:18.640904</dc:date>
    <dc:format>image/svg+xml</dc:format>
    <dc:creator>
     <cc:Agent>
      <dc:title>Matplotlib v3.10.3, https://matplotlib.org/</dc:title>
     </cc:Agent>
    </dc:creator>
   </cc:Work>
  </rdf:RDF>
 </metadata>
 <defs>
  <style type="text/css">*{stroke-linejoin: round; stroke-linecap: butt}</style>
 </defs>
 <g id="figure_1">
  <g id="patch_1">
   <path d="M 0 360 
L 720 360 
L 720 0 
L 0 0 
z
" style="fill: #ffffff"/>
  </g>
  <g id="axes_1">
   <g id="patch_2">
    <path d="M 90 320.4 
L 648 320.4 
L 648 43.2 
L 90 43.2 
z
" style="fill: #ffffff"/>
   </g>
   <g id="FillBetweenPolyCollection_1">
    <defs>
     <path id="m089e9539d7" d="M 159.998494 -69.530581 
L 159.501506 -69.530581 
L 159.423557 -71.725923 
L 159.329647 -73.921265 
L 159.21944 -76.116606 
L 159.093598 -78.311948 
L 158.953988 -80.50729 
L 158.803799 -82.702632 
L 158.647542 -84.897974 
L 158.490915 -87.093315 
L 158.340508 -89.288657 
L 158.203377 -91.483999 
L 158.086508 -93.679341 
L 157.996234 -95.874683 
L 157.937672 -98.070024 
L 157.914237 -100.265366 
L 157.927318 -102.460708 
L 157.976138 -104.65605 
L 158.057831 -106.851392 
L 158.167721 -109.046733 
L 158.299761 -111.242075 
L 158.447083 -113.437417 
L 158.602578 -115.632759 
L 158.759447 -117.828101 
L 158.911648 -120.023442 
L 159.054216 -122.218784 
L 159.18341 -124.414126 
L 159.296703 -126.609468 
L 159.392615 -128.80481 
L 159.470412 -131.000151 
L 159.529701 -133.195493 
L 159.569925 -135.390835 
L 159.589791 -137.586177 
L 159.586623 -139.781519 
L 159.555656 -141.97686 
L 159.489278 -144.172202 
L 159.376258 -146.367544 
L 159.201021 -148.562886 
L 158.943052 -150.758228 
L 158.576589 -152.953569 
L 158.070759 -155.148911 
L 157.390363 -157.344253 
L 156.497477 -159.539595 
L 155.35401 -161.734937 
L 153.925238 -163.930278 
L 152.184203 -166.12562 
L 150.116663 -168.320962 
L 147.726113 -170.516304 
L 145.038219 -172.711646 
L 142.103911 -174.906987 
L 139.000403 -177.102329 
L 135.829545 -179.297671 
L 132.713193 -181.493013 
L 129.785678 -183.688354 
L 127.183886 -185.883696 
L 125.035902 -188.079038 
L 123.449473 -190.27438 
L 122.501709 -192.469722 
L 122.231338 -194.665063 
L 122.634555 -196.860405 
L 123.664996 -199.055747 
L 125.237792 -201.251089 
L 127.237055 -203.446431 
L 129.525698 -205.641772 
L 131.956186 -207.837114 
L 134.380815 -210.032456 
L 136.660305 -212.227798 
L 138.669953 -214.42314 
L 140.303104 -216.618481 
L 141.472233 -218.813823 
L 142.10841 -221.009165 
L 142.160134 -223.204507 
L 141.592591 -225.399849 
L 140.388132 -227.59519 
L 138.548404 -229.790532 
L 136.097988 -231.985874 
L 133.088909 -234.181216 
L 129.604903 -236.376558 
L 125.764099 -238.571899 
L 121.718812 -240.767241 
L 117.651428 -242.962583 
L 113.765947 -245.157925 
L 110.275454 -247.353267 
L 107.386557 -249.548608 
L 105.282455 -251.74395 
L 104.106732 -253.939292 
L 103.95 -256.134634 
L 104.841251 -258.329976 
L 106.745158 -260.525317 
L 109.565724 -262.720659 
L 113.155791 -264.916001 
L 117.331129 -267.111343 
L 121.887242 -269.306685 
L 126.616776 -271.502026 
L 131.325509 -273.697368 
L 135.845281 -275.89271 
L 140.042807 -278.088052 
L 143.823979 -280.283394 
L 147.133917 -282.478735 
L 149.953487 -284.674077 
L 152.293339 -286.869419 
L 167.206661 -286.869419 
L 167.206661 -286.869419 
L 169.546513 -284.674077 
L 172.366083 -282.478735 
L 175.676021 -280.283394 
L 179.457193 -278.088052 
L 183.654719 -275.89271 
L 188.174491 -273.697368 
L 192.883224 -271.502026 
L 197.612758 -269.306685 
L 202.168871 -267.111343 
L 206.344209 -264.916001 
L 209.934276 -262.720659 
L 212.754842 -260.525317 
L 214.658749 -258.329976 
L 215.55 -256.134634 
L 215.393268 -253.939292 
L 214.217545 -251.74395 
L 212.113443 -249.548608 
L 209.224546 -247.353267 
L 205.734053 -245.157925 
L 201.848572 -242.962583 
L 197.781188 -240.767241 
L 193.735901 -238.571899 
L 189.895097 -236.376558 
L 186.411091 -234.181216 
L 183.402012 -231.985874 
L 180.951596 -229.790532 
L 179.111868 -227.59519 
L 177.907409 -225.399849 
L 177.339866 -223.204507 
L 177.39159 -221.009165 
L 178.027767 -218.813823 
L 179.196896 -216.618481 
L 180.830047 -214.42314 
L 182.839695 -212.227798 
L 185.119185 -210.032456 
L 187.543814 -207.837114 
L 189.974302 -205.641772 
L 192.262945 -203.446431 
L 194.262208 -201.251089 
L 195.835004 -199.055747 
L 196.865445 -196.860405 
L 197.268662 -194.665063 
L 196.998291 -192.469722 
L 196.050527 -190.27438 
L 194.464098 -188.079038 
L 192.316114 -185.883696 
L 189.714322 -183.688354 
L 186.786807 -181.493013 
L 183.670455 -179.297671 
L 180.499597 -177.102329 
L 177.396089 -174.906987 
L 174.461781 -172.711646 
L 171.773887 -170.516304 
L 169.383337 -168.320962 
L 167.315797 -166.12562 
L 165.574762 -163.930278 
L 164.14599 -161.734937 
L 163.002523 -159.539595 
L 162.109637 -157.344253 
L 161.429241 -155.148911 
L 160.923411 -152.953569 
L 160.556948 -150.758228 
L 160.298979 -148.562886 
L 160.123742 -146.367544 
L 160.010722 -144.172202 
L 159.944344 -141.97686 
L 159.913377 -139.781519 
L 159.910209 -137.586177 
L 159.930075 -135.390835 
L 159.970299 -133.195493 
L 160.029588 -131.000151 
L 160.107385 -128.80481 
L 160.203297 -126.609468 
L 160.31659 -124.414126 
L 160.445784 -122.218784 
L 160.588352 -120.023442 
L 160.740553 -117.828101 
L 160.897422 -115.632759 
L 161.052917 -113.437417 
L 161.200239 -111.242075 
L 161.332279 -109.046733 
L 161.442169 -106.851392 
L 161.523862 -104.65605 
L 161.572682 -102.460708 
L 161.585763 -100.265366 
L 161.562328 -98.070024 
L 161.503766 -95.874683 
L 161.413492 -93.679341 
L 161.296623 -91.483999 
L 161.159492 -89.288657 
L 161.009085 -87.093315 
L 160.852458 -84.897974 
L 160.696201 -82.702632 
L 160.546012 -80.50729 
L 160.406402 -78.311948 
L 160.28056 -76.116606 
L 160.170353 -73.921265 
L 160.076443 -71.725923 
L 159.998494 -69.530581 
z
" style="stroke: #3d3d3d; stroke-width: 1.25"/>
    </defs>
    <g clip-path="url(#p1081f96967)">
     <use xlink:href="#m089e9539d7" x="0" y="360" style="fill: #3274a1; stroke: #3d3d3d; stroke-width: 1.25"/>
    </g>
   </g>
   <g id="FillBetweenPolyCollection_2">
    <defs>
     <path id="m0f1a107900" d="M 299.844987 -68.747159 
L 298.655013 -68.747159 
L 298.471979 -70.958328 
L 298.252088 -73.169496 
L 297.994519 -75.380665 
L 297.700665 -77.591833 
L 297.374583 -79.803002 
L 297.023271 -82.01417 
L 296.656693 -84.225339 
L 296.287504 -86.436507 
L 295.930454 -88.647676 
L 295.601479 -90.858844 
L 295.316564 -93.070013 
L 295.090467 -95.281181 
L 294.935464 -97.49235 
L 294.860239 -99.703518 
L 294.869085 -101.914687 
L 294.961494 -104.125855 
L 295.132206 -106.337024 
L 295.371705 -108.548192 
L 295.667093 -110.759361 
L 296.003242 -112.970529 
L 296.364058 -115.181698 
L 296.733737 -117.392866 
L 297.09785 -119.604035 
L 297.444175 -121.815203 
L 297.7632 -124.026372 
L 298.048292 -126.23754 
L 298.295546 -128.448709 
L 298.503377 -130.659877 
L 298.671911 -132.871046 
L 298.802251 -135.082214 
L 298.895678 -137.293383 
L 298.952837 -139.504551 
L 298.972952 -141.71572 
L 298.953084 -143.926888 
L 298.887479 -146.138057 
L 298.767037 -148.349225 
L 298.578962 -150.560394 
L 298.306671 -152.771562 
L 297.93005 -154.982731 
L 297.426179 -157.193899 
L 296.770581 -159.405068 
L 295.939082 -161.616236 
L 294.910235 -163.827405 
L 293.668203 -166.038573 
L 292.205885 -168.249742 
L 290.527943 -170.46091 
L 288.653313 -172.672079 
L 286.616748 -174.883247 
L 284.468968 -177.094416 
L 282.275098 -179.305584 
L 280.111289 -181.516753 
L 278.059631 -183.727921 
L 276.201778 -185.93909 
L 274.61191 -188.150258 
L 273.349869 -190.361427 
L 272.455324 -192.572595 
L 271.943759 -194.783764 
L 271.804834 -196.994932 
L 272.003351 -199.206101 
L 272.482646 -201.417269 
L 273.1699 -203.628438 
L 273.982534 -205.839606 
L 274.834738 -208.050775 
L 275.643232 -210.261943 
L 276.331545 -212.473112 
L 276.832445 -214.68428 
L 277.08858 -216.895449 
L 277.051768 -219.106617 
L 276.681671 -221.317786 
L 275.944754 -223.528954 
L 274.814326 -225.740123 
L 273.272244 -227.951291 
L 271.312417 -230.16246 
L 268.945772 -232.373628 
L 266.205876 -234.584797 
L 263.154049 -236.795965 
L 259.882641 -239.007134 
L 256.515292 -241.218302 
L 253.203291 -243.429471 
L 250.117786 -245.640639 
L 247.438229 -247.851808 
L 245.338142 -250.062976 
L 243.969837 -252.274145 
L 243.45 -254.485313 
L 243.84807 -256.696482 
L 245.178984 -258.90765 
L 247.401305 -261.118819 
L 250.42096 -263.329987 
L 254.100067 -265.541156 
L 258.269641 -267.752324 
L 262.744505 -269.963493 
L 267.338559 -272.174661 
L 271.87868 -274.38583 
L 276.21585 -276.596998 
L 280.232662 -278.808167 
L 283.846888 -281.019335 
L 287.011358 -283.230504 
L 289.710789 -285.441672 
L 291.956479 -287.652841 
L 306.543521 -287.652841 
L 306.543521 -287.652841 
L 308.789211 -285.441672 
L 311.488642 -283.230504 
L 314.653112 -281.019335 
L 318.267338 -278.808167 
L 322.28415 -276.596998 
L 326.62132 -274.38583 
L 331.161441 -272.174661 
L 335.755495 -269.963493 
L 340.230359 -267.752324 
L 344.399933 -265.541156 
L 348.07904 -263.329987 
L 351.098695 -261.118819 
L 353.321016 -258.90765 
L 354.65193 -256.696482 
L 355.05 -254.485313 
L 354.530163 -252.274145 
L 353.161858 -250.062976 
L 351.061771 -247.851808 
L 348.382214 -245.640639 
L 345.296709 -243.429471 
L 341.984708 -241.218302 
L 338.617359 -239.007134 
L 335.345951 -236.795965 
L 332.294124 -234.584797 
L 329.554228 -232.373628 
L 327.187583 -230.16246 
L 325.227756 -227.951291 
L 323.685674 -225.740123 
L 322.555246 -223.528954 
L 321.818329 -221.317786 
L 321.448232 -219.106617 
L 321.41142 -216.895449 
L 321.667555 -214.68428 
L 322.168455 -212.473112 
L 322.856768 -210.261943 
L 323.665262 -208.050775 
L 324.517466 -205.839606 
L 325.3301 -203.628438 
L 326.017354 -201.417269 
L 326.496649 -199.206101 
L 326.695166 -196.994932 
L 326.556241 -194.783764 
L 326.044676 -192.572595 
L 325.150131 -190.361427 
L 323.88809 -188.150258 
L 322.298222 -185.93909 
L 320.440369 -183.727921 
L 318.388711 -181.516753 
L 316.224902 -179.305584 
L 314.031032 -177.094416 
L 311.883252 -174.883247 
L 309.846687 -172.672079 
L 307.972057 -170.46091 
L 306.294115 -168.249742 
L 304.831797 -166.038573 
L 303.589765 -163.827405 
L 302.560918 -161.616236 
L 301.729419 -159.405068 
L 301.073821 -157.193899 
L 300.56995 -154.982731 
L 300.193329 -152.771562 
L 299.921038 -150.560394 
L 299.732963 -148.349225 
L 299.612521 -146.138057 
L 299.546916 -143.926888 
L 299.527048 -141.71572 
L 299.547163 -139.504551 
L 299.604322 -137.293383 
L 299.697749 -135.082214 
L 299.828089 -132.871046 
L 299.996623 -130.659877 
L 300.204454 -128.448709 
L 300.451708 -126.23754 
L 300.7368 -124.026372 
L 301.055825 -121.815203 
L 301.40215 -119.604035 
L 301.766263 -117.392866 
L 302.135942 -115.181698 
L 302.496758 -112.970529 
L 302.832907 -110.759361 
L 303.128295 -108.548192 
L 303.367794 -106.337024 
L 303.538506 -104.125855 
L 303.630915 -101.914687 
L 303.639761 -99.703518 
L 303.564536 -97.49235 
L 303.409533 -95.281181 
L 303.183436 -93.070013 
L 302.898521 -90.858844 
L 302.569546 -88.647676 
L 302.212496 -86.436507 
L 301.843307 -84.225339 
L 301.476729 -82.01417 
L 301.125417 -79.803002 
L 300.799335 -77.591833 
L 300.505481 -75.380665 
L 300.247912 -73.169496 
L 300.028021 -70.958328 
L 299.844987 -68.747159 
z
" style="stroke: #3d3d3d; stroke-width: 1.25"/>
    </defs>
    <g clip-path="url(#p1081f96967)">
     <use xlink:href="#m0f1a107900" x="0" y="360" style="fill: #e1812c; stroke: #3d3d3d; stroke-width: 1.25"/>
    </g>
   </g>
   <g id="FillBetweenPolyCollection_3">
    <defs>
     <path id="mad41421781" d="M 440.088974 -52.2 
L 437.411026 -52.2 
L 437.106496 -54.745455 
L 436.754921 -57.290909 
L 436.354807 -59.836364 
L 435.906119 -62.381818 
L 435.410562 -64.927273 
L 434.871836 -67.472727 
L 434.295797 -70.018182 
L 433.69053 -72.563636 
L 433.066298 -75.109091 
L 432.435351 -77.654545 
L 431.811601 -80.2 
L 431.210162 -82.745455 
L 430.646761 -85.290909 
L 430.137077 -87.836364 
L 429.696009 -90.381818 
L 429.336943 -92.927273 
L 429.071065 -95.472727 
L 428.906752 -98.018182 
L 428.849094 -100.563636 
L 428.899584 -103.109091 
L 429.05599 -105.654545 
L 429.312415 -108.2 
L 429.659547 -110.745455 
L 430.085066 -113.290909 
L 430.574183 -115.836364 
L 431.110263 -118.381818 
L 431.675492 -120.927273 
L 432.251542 -123.472727 
L 432.820191 -126.018182 
L 433.363865 -128.563636 
L 433.866088 -131.109091 
L 434.311823 -133.654545 
L 434.687705 -136.2 
L 434.982185 -138.745455 
L 435.185597 -141.290909 
L 435.290172 -143.836364 
L 435.290021 -146.381818 
L 435.181113 -148.927273 
L 434.961249 -151.472727 
L 434.630054 -154.018182 
L 434.188972 -156.563636 
L 433.641252 -159.109091 
L 432.99192 -161.654545 
L 432.247706 -164.2 
L 431.416894 -166.745455 
L 430.5091 -169.290909 
L 429.534935 -171.836364 
L 428.505578 -174.381818 
L 427.432239 -176.927273 
L 426.325549 -179.472727 
L 425.194907 -182.018182 
L 424.047814 -184.563636 
L 422.889263 -187.109091 
L 421.721218 -189.654545 
L 420.542252 -192.2 
L 419.34738 -194.745455 
L 418.128142 -197.290909 
L 416.872945 -199.836364 
L 415.567697 -202.381818 
L 414.196708 -204.927273 
L 412.743858 -207.472727 
L 411.19396 -210.018182 
L 409.534282 -212.563636 
L 407.756133 -215.109091 
L 405.856419 -217.654545 
L 403.83907 -220.2 
L 401.716222 -222.745455 
L 399.509033 -225.290909 
L 397.248056 -227.836364 
L 394.973056 -230.381818 
L 392.732248 -232.927273 
L 390.580909 -235.472727 
L 388.579412 -238.018182 
L 386.790747 -240.563636 
L 385.277648 -243.109091 
L 384.099486 -245.654545 
L 383.309136 -248.2 
L 382.95 -250.745455 
L 383.053436 -253.290909 
L 383.636745 -255.836364 
L 384.701907 -258.381818 
L 386.235142 -260.927273 
L 388.207358 -263.472727 
L 390.575448 -266.018182 
L 393.284345 -268.563636 
L 396.269695 -271.109091 
L 399.460944 -273.654545 
L 402.784629 -276.2 
L 406.167649 -278.745455 
L 409.540307 -281.290909 
L 412.838944 -283.836364 
L 416.008038 -286.381818 
L 419.001666 -288.927273 
L 421.784332 -291.472727 
L 424.331154 -294.018182 
L 426.627488 -296.563636 
L 428.668086 -299.109091 
L 430.455901 -301.654545 
L 432.000675 -304.2 
L 445.499325 -304.2 
L 445.499325 -304.2 
L 447.044099 -301.654545 
L 448.831914 -299.109091 
L 450.872512 -296.563636 
L 453.168846 -294.018182 
L 455.715668 -291.472727 
L 458.498334 -288.927273 
L 461.491962 -286.381818 
L 464.661056 -283.836364 
L 467.959693 -281.290909 
L 471.332351 -278.745455 
L 474.715371 -276.2 
L 478.039056 -273.654545 
L 481.230305 -271.109091 
L 484.215655 -268.563636 
L 486.924552 -266.018182 
L 489.292642 -263.472727 
L 491.264858 -260.927273 
L 492.798093 -258.381818 
L 493.863255 -255.836364 
L 494.446564 -253.290909 
L 494.55 -250.745455 
L 494.190864 -248.2 
L 493.400514 -245.654545 
L 492.222352 -243.109091 
L 490.709253 -240.563636 
L 488.920588 -238.018182 
L 486.919091 -235.472727 
L 484.767752 -232.927273 
L 482.526944 -230.381818 
L 480.251944 -227.836364 
L 477.990967 -225.290909 
L 475.783778 -222.745455 
L 473.66093 -220.2 
L 471.643581 -217.654545 
L 469.743867 -215.109091 
L 467.965718 -212.563636 
L 466.30604 -210.018182 
L 464.756142 -207.472727 
L 463.303292 -204.927273 
L 461.932303 -202.381818 
L 460.627055 -199.836364 
L 459.371858 -197.290909 
L 458.15262 -194.745455 
L 456.957748 -192.2 
L 455.778782 -189.654545 
L 454.610737 -187.109091 
L 453.452186 -184.563636 
L 452.305093 -182.018182 
L 451.174451 -179.472727 
L 450.067761 -176.927273 
L 448.994422 -174.381818 
L 447.965065 -171.836364 
L 446.9909 -169.290909 
L 446.083106 -166.745455 
L 445.252294 -164.2 
L 444.50808 -161.654545 
L 443.858748 -159.109091 
L 443.311028 -156.563636 
L 442.869946 -154.018182 
L 442.538751 -151.472727 
L 442.318887 -148.927273 
L 442.209979 -146.381818 
L 442.209828 -143.836364 
L 442.314403 -141.290909 
L 442.517815 -138.745455 
L 442.812295 -136.2 
L 443.188177 -133.654545 
L 443.633912 -131.109091 
L 444.136135 -128.563636 
L 444.679809 -126.018182 
L 445.248458 -123.472727 
L 445.824508 -120.927273 
L 446.389737 -118.381818 
L 446.925817 -115.836364 
L 447.414934 -113.290909 
L 447.840453 -110.745455 
L 448.187585 -108.2 
L 448.44401 -105.654545 
L 448.600416 -103.109091 
L 448.650906 -100.563636 
L 448.593248 -98.018182 
L 448.428935 -95.472727 
L 448.163057 -92.927273 
L 447.803991 -90.381818 
L 447.362923 -87.836364 
L 446.853239 -85.290909 
L 446.289838 -82.745455 
L 445.688399 -80.2 
L 445.064649 -77.654545 
L 444.433702 -75.109091 
L 443.80947 -72.563636 
L 443.204203 -70.018182 
L 442.628164 -67.472727 
L 442.089438 -64.927273 
L 441.593881 -62.381818 
L 441.145193 -59.836364 
L 440.745079 -57.290909 
L 440.393504 -54.745455 
L 440.088974 -52.2 
z
" style="stroke: #3d3d3d; stroke-width: 1.25"/>
    </defs>
    <g clip-path="url(#p1081f96967)">
     <use xlink:href="#mad41421781" x="0" y="360" style="fill: #3a923a; stroke: #3d3d3d; stroke-width: 1.25"/>
    </g>
   </g>
   <g id="FillBetweenPolyCollection_4">
    <defs>
     <path id="m782f218d07" d="M 578.774145 -60.25888 
L 577.725855 -60.25888 
L 577.59071 -62.641529 
L 577.432224 -65.024178 
L 577.249709 -67.406827 
L 577.043433 -69.789476 
L 576.814807 -72.172125 
L 576.566542 -74.554774 
L 576.302722 -76.937422 
L 576.028802 -79.320071 
L 575.751494 -81.70272 
L 575.478549 -84.085369 
L 575.218425 -86.468018 
L 574.979876 -88.850667 
L 574.771469 -91.233316 
L 574.601076 -93.615965 
L 574.475372 -95.998614 
L 574.399397 -98.381262 
L 574.3762 -100.763911 
L 574.406611 -103.14656 
L 574.489153 -105.529209 
L 574.620094 -107.911858 
L 574.793636 -110.294507 
L 575.002205 -112.677156 
L 575.236805 -115.059805 
L 575.487393 -117.442453 
L 575.743225 -119.825102 
L 575.993128 -122.207751 
L 576.225654 -124.5904 
L 576.429107 -126.973049 
L 576.591425 -129.355698 
L 576.699937 -131.738347 
L 576.741017 -134.120996 
L 576.6997 -136.503645 
L 576.559324 -138.886293 
L 576.301268 -141.268942 
L 575.904893 -143.651591 
L 575.347756 -146.03424 
L 574.606177 -148.416889 
L 573.656217 -150.799538 
L 572.47508 -153.182187 
L 571.042924 -155.564836 
L 569.344998 -157.947484 
L 567.373978 -160.330133 
L 565.132316 -162.712782 
L 562.634378 -165.095431 
L 559.908105 -167.47808 
L 556.995951 -169.860729 
L 553.954859 -172.243378 
L 550.85511 -174.626027 
L 547.777962 -177.008676 
L 544.812108 -179.391324 
L 542.049117 -181.773973 
L 539.578119 -184.156622 
L 537.480126 -186.539271 
L 535.822419 -188.92192 
L 534.653485 -191.304569 
L 533.99894 -193.687218 
L 533.858819 -196.069867 
L 534.206477 -198.452516 
L 534.989249 -200.835164 
L 536.130816 -203.217813 
L 537.535129 -205.600462 
L 539.0916 -207.983111 
L 540.681213 -210.36576 
L 542.183137 -212.748409 
L 543.481447 -215.131058 
L 544.471578 -217.513707 
L 545.066166 -219.896355 
L 545.200019 -222.279004 
L 544.833978 -224.661653 
L 543.957511 -227.044302 
L 542.589894 -229.426951 
L 540.779903 -231.8096 
L 538.603963 -234.192249 
L 536.162769 -236.574898 
L 533.576458 -238.957547 
L 530.978526 -241.340195 
L 528.508733 -243.722844 
L 526.305417 -246.105493 
L 524.497648 -248.488142 
L 523.197789 -250.870791 
L 522.494968 -253.25344 
L 522.45 -255.636089 
L 523.092146 -258.018738 
L 524.417974 -260.401386 
L 526.392414 -262.784035 
L 528.951879 -265.166684 
L 532.009169 -267.549333 
L 535.459693 -269.931982 
L 539.188456 -272.314631 
L 543.07723 -274.69728 
L 547.011309 -277.079929 
L 550.885385 -279.462578 
L 554.608159 -281.845226 
L 558.105479 -284.227875 
L 561.321948 -286.610524 
L 564.221092 -288.993173 
L 566.784274 -291.375822 
L 569.008654 -293.758471 
L 570.904509 -296.14112 
L 585.595491 -296.14112 
L 585.595491 -296.14112 
L 587.491346 -293.758471 
L 589.715726 -291.375822 
L 592.278908 -288.993173 
L 595.178052 -286.610524 
L 598.394521 -284.227875 
L 601.891841 -281.845226 
L 605.614615 -279.462578 
L 609.488691 -277.079929 
L 613.42277 -274.69728 
L 617.311544 -272.314631 
L 621.040307 -269.931982 
L 624.490831 -267.549333 
L 627.548121 -265.166684 
L 630.107586 -262.784035 
L 632.082026 -260.401386 
L 633.407854 -258.018738 
L 634.05 -255.636089 
L 634.005032 -253.25344 
L 633.302211 -250.870791 
L 632.002352 -248.488142 
L 630.194583 -246.105493 
L 627.991267 -243.722844 
L 625.521474 -241.340195 
L 622.923542 -238.957547 
L 620.337231 -236.574898 
L 617.896037 -234.192249 
L 615.720097 -231.8096 
L 613.910106 -229.426951 
L 612.542489 -227.044302 
L 611.666022 -224.661653 
L 611.299981 -222.279004 
L 611.433834 -219.896355 
L 612.028422 -217.513707 
L 613.018553 -215.131058 
L 614.316863 -212.748409 
L 615.818787 -210.36576 
L 617.4084 -207.983111 
L 618.964871 -205.600462 
L 620.369184 -203.217813 
L 621.510751 -200.835164 
L 622.293523 -198.452516 
L 622.641181 -196.069867 
L 622.50106 -193.687218 
L 621.846515 -191.304569 
L 620.677581 -188.92192 
L 619.019874 -186.539271 
L 616.921881 -184.156622 
L 614.450883 -181.773973 
L 611.687892 -179.391324 
L 608.722038 -177.008676 
L 605.64489 -174.626027 
L 602.545141 -172.243378 
L 599.504049 -169.860729 
L 596.591895 -167.47808 
L 593.865622 -165.095431 
L 591.367684 -162.712782 
L 589.126022 -160.330133 
L 587.155002 -157.947484 
L 585.457076 -155.564836 
L 584.02492 -153.182187 
L 582.843783 -150.799538 
L 581.893823 -148.416889 
L 581.152244 -146.03424 
L 580.595107 -143.651591 
L 580.198732 -141.268942 
L 579.940676 -138.886293 
L 579.8003 -136.503645 
L 579.758983 -134.120996 
L 579.800063 -131.738347 
L 579.908575 -129.355698 
L 580.070893 -126.973049 
L 580.274346 -124.5904 
L 580.506872 -122.207751 
L 580.756775 -119.825102 
L 581.012607 -117.442453 
L 581.263195 -115.059805 
L 581.497795 -112.677156 
L 581.706364 -110.294507 
L 581.879906 -107.911858 
L 582.010847 -105.529209 
L 582.093389 -103.14656 
L 582.1238 -100.763911 
L 582.100603 -98.381262 
L 582.024628 -95.998614 
L 581.898924 -93.615965 
L 581.728531 -91.233316 
L 581.520124 -88.850667 
L 581.281575 -86.468018 
L 581.021451 -84.085369 
L 580.748506 -81.70272 
L 580.471198 -79.320071 
L 580.197278 -76.937422 
L 579.933458 -74.554774 
L 579.685193 -72.172125 
L 579.456567 -69.789476 
L 579.250291 -67.406827 
L 579.067776 -65.024178 
L 578.90929 -62.641529 
L 578.774145 -60.25888 
z
" style="stroke: #3d3d3d; stroke-width: 1.25"/>
    </defs>
    <g clip-path="url(#p1081f96967)">
     <use xlink:href="#m782f218d07" x="0" y="360" style="fill: #c03d3e; stroke: #3d3d3d; stroke-width: 1.25"/>
    </g>
   </g>
   <g id="matplotlib.axis_1">
    <g id="xtick_1">
     <g id="line2d_1">
      <defs>
       <path id="meea3fb79bd" d="M 0 0 
L 0 3.5 
" style="stroke: #000000; stroke-width: 0.8"/>
      </defs>
      <g>
       <use xlink:href="#meea3fb79bd" x="159.75" y="320.4" style="stroke: #000000; stroke-width: 0.8"/>
      </g>
     </g>
     <g id="text_1">
      <!-- Spurious -->
      <g transform="translate(137.955469 334.998438) scale(0.1 -0.1)">
       <defs>
        <path id="DejaVuSans-53" d="M 3425 4513 
L 3425 3897 
Q 3066 4069 2747 4153 
Q 2428 4238 2131 4238 
Q 1616 4238 1336 4038 
Q 1056 3838 1056 3469 
Q 1056 3159 1242 3001 
Q 1428 2844 1947 2747 
L 2328 2669 
Q 3034 2534 3370 2195 
Q 3706 1856 3706 1288 
Q 3706 609 3251 259 
Q 2797 -91 1919 -91 
Q 1588 -91 1214 -16 
Q 841 59 441 206 
L 441 856 
Q 825 641 1194 531 
Q 1563 422 1919 422 
Q 2459 422 2753 634 
Q 3047 847 3047 1241 
Q 3047 1584 2836 1778 
Q 2625 1972 2144 2069 
L 1759 2144 
Q 1053 2284 737 2584 
Q 422 2884 422 3419 
Q 422 4038 858 4394 
Q 1294 4750 2059 4750 
Q 2388 4750 2728 4690 
Q 3069 4631 3425 4513 
z
" transform="scale(0.015625)"/>
        <path id="DejaVuSans-70" d="M 1159 525 
L 1159 -1331 
L 581 -1331 
L 581 3500 
L 1159 3500 
L 1159 2969 
Q 1341 3281 1617 3432 
Q 1894 3584 2278 3584 
Q 2916 3584 3314 3078 
Q 3713 2572 3713 1747 
Q 3713 922 3314 415 
Q 2916 -91 2278 -91 
Q 1894 -91 1617 61 
Q 1341 213 1159 525 
z
M 3116 1747 
Q 3116 2381 2855 2742 
Q 2594 3103 2138 3103 
Q 1681 3103 1420 2742 
Q 1159 2381 1159 1747 
Q 1159 1113 1420 752 
Q 1681 391 2138 391 
Q 2594 391 2855 752 
Q 3116 1113 3116 1747 
z
" transform="scale(0.015625)"/>
        <path id="DejaVuSans-75" d="M 544 1381 
L 544 3500 
L 1119 3500 
L 1119 1403 
Q 1119 906 1312 657 
Q 1506 409 1894 409 
Q 2359 409 2629 706 
Q 2900 1003 2900 1516 
L 2900 3500 
L 3475 3500 
L 3475 0 
L 2900 0 
L 2900 538 
Q 2691 219 2414 64 
Q 2138 -91 1772 -91 
Q 1169 -91 856 284 
Q 544 659 544 1381 
z
M 1991 3584 
L 1991 3584 
z
" transform="scale(0.015625)"/>
        <path id="DejaVuSans-72" d="M 2631 2963 
Q 2534 3019 2420 3045 
Q 2306 3072 2169 3072 
Q 1681 3072 1420 2755 
Q 1159 2438 1159 1844 
L 1159 0 
L 581 0 
L 581 3500 
L 1159 3500 
L 1159 2956 
Q 1341 3275 1631 3429 
Q 1922 3584 2338 3584 
Q 2397 3584 2469 3576 
Q 2541 3569 2628 3553 
L 2631 2963 
z
" transform="scale(0.015625)"/>
        <path id="DejaVuSans-69" d="M 603 3500 
L 1178 3500 
L 1178 0 
L 603 0 
L 603 3500 
z
M 603 4863 
L 1178 4863 
L 1178 4134 
L 603 4134 
L 603 4863 
z
" transform="scale(0.015625)"/>
        <path id="DejaVuSans-6f" d="M 1959 3097 
Q 1497 3097 1228 2736 
Q 959 2375 959 1747 
Q 959 1119 1226 758 
Q 1494 397 1959 397 
Q 2419 397 2687 759 
Q 2956 1122 2956 1747 
Q 2956 2369 2687 2733 
Q 2419 3097 1959 3097 
z
M 1959 3584 
Q 2709 3584 3137 3096 
Q 3566 2609 3566 1747 
Q 3566 888 3137 398 
Q 2709 -91 1959 -91 
Q 1206 -91 779 398 
Q 353 888 353 1747 
Q 353 2609 779 3096 
Q 1206 3584 1959 3584 
z
" transform="scale(0.015625)"/>
        <path id="DejaVuSans-73" d="M 2834 3397 
L 2834 2853 
Q 2591 2978 2328 3040 
Q 2066 3103 1784 3103 
Q 1356 3103 1142 2972 
Q 928 2841 928 2578 
Q 928 2378 1081 2264 
Q 1234 2150 1697 2047 
L 1894 2003 
Q 2506 1872 2764 1633 
Q 3022 1394 3022 966 
Q 3022 478 2636 193 
Q 2250 -91 1575 -91 
Q 1294 -91 989 -36 
Q 684 19 347 128 
L 347 722 
Q 666 556 975 473 
Q 1284 391 1588 391 
Q 1994 391 2212 530 
Q 2431 669 2431 922 
Q 2431 1156 2273 1281 
Q 2116 1406 1581 1522 
L 1381 1569 
Q 847 1681 609 1914 
Q 372 2147 372 2553 
Q 372 3047 722 3315 
Q 1072 3584 1716 3584 
Q 2034 3584 2315 3537 
Q 2597 3491 2834 3397 
z
" transform="scale(0.015625)"/>
       </defs>
       <use xlink:href="#DejaVuSans-53"/>
       <use xlink:href="#DejaVuSans-70" transform="translate(63.476562 0)"/>
       <use xlink:href="#DejaVuSans-75" transform="translate(126.953125 0)"/>
       <use xlink:href="#DejaVuSans-72" transform="translate(190.332031 0)"/>
       <use xlink:href="#DejaVuSans-69" transform="translate(231.445312 0)"/>
       <use xlink:href="#DejaVuSans-6f" transform="translate(259.228516 0)"/>
       <use xlink:href="#DejaVuSans-75" transform="translate(320.410156 0)"/>
       <use xlink:href="#DejaVuSans-73" transform="translate(383.789062 0)"/>
      </g>
     </g>
    </g>
    <g id="xtick_2">
     <g id="line2d_2">
      <g>
       <use xlink:href="#meea3fb79bd" x="299.25" y="320.4" style="stroke: #000000; stroke-width: 0.8"/>
      </g>
     </g>
     <g id="text_2">
      <!-- Specific -->
      <g transform="translate(279.788281 334.998438) scale(0.1 -0.1)">
       <defs>
        <path id="DejaVuSans-65" d="M 3597 1894 
L 3597 1613 
L 953 1613 
Q 991 1019 1311 708 
Q 1631 397 2203 397 
Q 2534 397 2845 478 
Q 3156 559 3463 722 
L 3463 178 
Q 3153 47 2828 -22 
Q 2503 -91 2169 -91 
Q 1331 -91 842 396 
Q 353 884 353 1716 
Q 353 2575 817 3079 
Q 1281 3584 2069 3584 
Q 2775 3584 3186 3129 
Q 3597 2675 3597 1894 
z
M 3022 2063 
Q 3016 2534 2758 2815 
Q 2500 3097 2075 3097 
Q 1594 3097 1305 2825 
Q 1016 2553 972 2059 
L 3022 2063 
z
" transform="scale(0.015625)"/>
        <path id="DejaVuSans-63" d="M 3122 3366 
L 3122 2828 
Q 2878 2963 2633 3030 
Q 2388 3097 2138 3097 
Q 1578 3097 1268 2742 
Q 959 2388 959 1747 
Q 959 1106 1268 751 
Q 1578 397 2138 397 
Q 2388 397 2633 464 
Q 2878 531 3122 666 
L 3122 134 
Q 2881 22 2623 -34 
Q 2366 -91 2075 -91 
Q 1284 -91 818 406 
Q 353 903 353 1747 
Q 353 2603 823 3093 
Q 1294 3584 2113 3584 
Q 2378 3584 2631 3529 
Q 2884 3475 3122 3366 
z
" transform="scale(0.015625)"/>
        <path id="DejaVuSans-66" d="M 2375 4863 
L 2375 4384 
L 1825 4384 
Q 1516 4384 1395 4259 
Q 1275 4134 1275 3809 
L 1275 3500 
L 2222 3500 
L 2222 3053 
L 1275 3053 
L 1275 0 
L 697 0 
L 697 3053 
L 147 3053 
L 147 3500 
L 697 3500 
L 697 3744 
Q 697 4328 969 4595 
Q 1241 4863 1831 4863 
L 2375 4863 
z
" transform="scale(0.015625)"/>
       </defs>
       <use xlink:href="#DejaVuSans-53"/>
       <use xlink:href="#DejaVuSans-70" transform="translate(63.476562 0)"/>
       <use xlink:href="#DejaVuSans-65" transform="translate(126.953125 0)"/>
       <use xlink:href="#DejaVuSans-63" transform="translate(188.476562 0)"/>
       <use xlink:href="#DejaVuSans-69" transform="translate(243.457031 0)"/>
       <use xlink:href="#DejaVuSans-66" transform="translate(271.240234 0)"/>
       <use xlink:href="#DejaVuSans-69" transform="translate(306.445312 0)"/>
       <use xlink:href="#DejaVuSans-63" transform="translate(334.228516 0)"/>
      </g>
     </g>
    </g>
    <g id="xtick_3">
     <g id="line2d_3">
      <g>
       <use xlink:href="#meea3fb79bd" x="438.75" y="320.4" style="stroke: #000000; stroke-width: 0.8"/>
      </g>
     </g>
     <g id="text_3">
      <!-- Non-specific -->
      <g transform="translate(408.085156 334.998438) scale(0.1 -0.1)">
       <defs>
        <path id="DejaVuSans-4e" d="M 628 4666 
L 1478 4666 
L 3547 763 
L 3547 4666 
L 4159 4666 
L 4159 0 
L 3309 0 
L 1241 3903 
L 1241 0 
L 628 0 
L 628 4666 
z
" transform="scale(0.015625)"/>
        <path id="DejaVuSans-6e" d="M 3513 2113 
L 3513 0 
L 2938 0 
L 2938 2094 
Q 2938 2591 2744 2837 
Q 2550 3084 2163 3084 
Q 1697 3084 1428 2787 
Q 1159 2491 1159 1978 
L 1159 0 
L 581 0 
L 581 3500 
L 1159 3500 
L 1159 2956 
Q 1366 3272 1645 3428 
Q 1925 3584 2291 3584 
Q 2894 3584 3203 3211 
Q 3513 2838 3513 2113 
z
" transform="scale(0.015625)"/>
        <path id="DejaVuSans-2d" d="M 313 2009 
L 1997 2009 
L 1997 1497 
L 313 1497 
L 313 2009 
z
" transform="scale(0.015625)"/>
       </defs>
       <use xlink:href="#DejaVuSans-4e"/>
       <use xlink:href="#DejaVuSans-6f" transform="translate(74.804688 0)"/>
       <use xlink:href="#DejaVuSans-6e" transform="translate(135.986328 0)"/>
       <use xlink:href="#DejaVuSans-2d" transform="translate(199.365234 0)"/>
       <use xlink:href="#DejaVuSans-73" transform="translate(235.449219 0)"/>
       <use xlink:href="#DejaVuSans-70" transform="translate(287.548828 0)"/>
       <use xlink:href="#DejaVuSans-65" transform="translate(351.025391 0)"/>
       <use xlink:href="#DejaVuSans-63" transform="translate(412.548828 0)"/>
       <use xlink:href="#DejaVuSans-69" transform="translate(467.529297 0)"/>
       <use xlink:href="#DejaVuSans-66" transform="translate(495.3125 0)"/>
       <use xlink:href="#DejaVuSans-69" transform="translate(530.517578 0)"/>
       <use xlink:href="#DejaVuSans-63" transform="translate(558.300781 0)"/>
      </g>
     </g>
    </g>
    <g id="xtick_4">
     <g id="line2d_4">
      <g>
       <use xlink:href="#meea3fb79bd" x="578.25" y="320.4" style="stroke: #000000; stroke-width: 0.8"/>
      </g>
     </g>
     <g id="text_4">
      <!-- No -->
      <g transform="translate(571.45 334.998438) scale(0.1 -0.1)">
       <use xlink:href="#DejaVuSans-4e"/>
       <use xlink:href="#DejaVuSans-6f" transform="translate(74.804688 0)"/>
      </g>
     </g>
    </g>
    <g id="text_5">
     <!-- Connectivity category -->
     <g transform="translate(313.98125 348.676562) scale(0.1 -0.1)">
      <defs>
       <path id="DejaVuSans-43" d="M 4122 4306 
L 4122 3641 
Q 3803 3938 3442 4084 
Q 3081 4231 2675 4231 
Q 1875 4231 1450 3742 
Q 1025 3253 1025 2328 
Q 1025 1406 1450 917 
Q 1875 428 2675 428 
Q 3081 428 3442 575 
Q 3803 722 4122 1019 
L 4122 359 
Q 3791 134 3420 21 
Q 3050 -91 2638 -91 
Q 1578 -91 968 557 
Q 359 1206 359 2328 
Q 359 3453 968 4101 
Q 1578 4750 2638 4750 
Q 3056 4750 3426 4639 
Q 3797 4528 4122 4306 
z
" transform="scale(0.015625)"/>
       <path id="DejaVuSans-74" d="M 1172 4494 
L 1172 3500 
L 2356 3500 
L 2356 3053 
L 1172 3053 
L 1172 1153 
Q 1172 725 1289 603 
Q 1406 481 1766 481 
L 2356 481 
L 2356 0 
L 1766 0 
Q 1100 0 847 248 
Q 594 497 594 1153 
L 594 3053 
L 172 3053 
L 172 3500 
L 594 3500 
L 594 4494 
L 1172 4494 
z
" transform="scale(0.015625)"/>
       <path id="DejaVuSans-76" d="M 191 3500 
L 800 3500 
L 1894 563 
L 2988 3500 
L 3597 3500 
L 2284 0 
L 1503 0 
L 191 3500 
z
" transform="scale(0.015625)"/>
       <path id="DejaVuSans-79" d="M 2059 -325 
Q 1816 -950 1584 -1140 
Q 1353 -1331 966 -1331 
L 506 -1331 
L 506 -850 
L 844 -850 
Q 1081 -850 1212 -737 
Q 1344 -625 1503 -206 
L 1606 56 
L 191 3500 
L 800 3500 
L 1894 763 
L 2988 3500 
L 3597 3500 
L 2059 -325 
z
" transform="scale(0.015625)"/>
       <path id="DejaVuSans-20" transform="scale(0.015625)"/>
       <path id="DejaVuSans-61" d="M 2194 1759 
Q 1497 1759 1228 1600 
Q 959 1441 959 1056 
Q 959 750 1161 570 
Q 1363 391 1709 391 
Q 2188 391 2477 730 
Q 2766 1069 2766 1631 
L 2766 1759 
L 2194 1759 
z
M 3341 1997 
L 3341 0 
L 2766 0 
L 2766 531 
Q 2569 213 2275 61 
Q 1981 -91 1556 -91 
Q 1019 -91 701 211 
Q 384 513 384 1019 
Q 384 1609 779 1909 
Q 1175 2209 1959 2209 
L 2766 2209 
L 2766 2266 
Q 2766 2663 2505 2880 
Q 2244 3097 1772 3097 
Q 1472 3097 1187 3025 
Q 903 2953 641 2809 
L 641 3341 
Q 956 3463 1253 3523 
Q 1550 3584 1831 3584 
Q 2591 3584 2966 3190 
Q 3341 2797 3341 1997 
z
" transform="scale(0.015625)"/>
       <path id="DejaVuSans-67" d="M 2906 1791 
Q 2906 2416 2648 2759 
Q 2391 3103 1925 3103 
Q 1463 3103 1205 2759 
Q 947 2416 947 1791 
Q 947 1169 1205 825 
Q 1463 481 1925 481 
Q 2391 481 2648 825 
Q 2906 1169 2906 1791 
z
M 3481 434 
Q 3481 -459 3084 -895 
Q 2688 -1331 1869 -1331 
Q 1566 -1331 1297 -1286 
Q 1028 -1241 775 -1147 
L 775 -588 
Q 1028 -725 1275 -790 
Q 1522 -856 1778 -856 
Q 2344 -856 2625 -561 
Q 2906 -266 2906 331 
L 2906 616 
Q 2728 306 2450 153 
Q 2172 0 1784 0 
Q 1141 0 747 490 
Q 353 981 353 1791 
Q 353 2603 747 3093 
Q 1141 3584 1784 3584 
Q 2172 3584 2450 3431 
Q 2728 3278 2906 2969 
L 2906 3500 
L 3481 3500 
L 3481 434 
z
" transform="scale(0.015625)"/>
      </defs>
      <use xlink:href="#DejaVuSans-43"/>
      <use xlink:href="#DejaVuSans-6f" transform="translate(69.824219 0)"/>
      <use xlink:href="#DejaVuSans-6e" transform="translate(131.005859 0)"/>
      <use xlink:href="#DejaVuSans-6e" transform="translate(194.384766 0)"/>
      <use xlink:href="#DejaVuSans-65" transform="translate(257.763672 0)"/>
      <use xlink:href="#DejaVuSans-63" transform="translate(319.287109 0)"/>
      <use xlink:href="#DejaVuSans-74" transform="translate(374.267578 0)"/>
      <use xlink:href="#DejaVuSans-69" transform="translate(413.476562 0)"/>
      <use xlink:href="#DejaVuSans-76" transform="translate(441.259766 0)"/>
      <use xlink:href="#DejaVuSans-69" transform="translate(500.439453 0)"/>
      <use xlink:href="#DejaVuSans-74" transform="translate(528.222656 0)"/>
      <use xlink:href="#DejaVuSans-79" transform="translate(567.431641 0)"/>
      <use xlink:href="#DejaVuSans-20" transform="translate(626.611328 0)"/>
      <use xlink:href="#DejaVuSans-63" transform="translate(658.398438 0)"/>
      <use xlink:href="#DejaVuSans-61" transform="translate(713.378906 0)"/>
      <use xlink:href="#DejaVuSans-74" transform="translate(774.658203 0)"/>
      <use xlink:href="#DejaVuSans-65" transform="translate(813.867188 0)"/>
      <use xlink:href="#DejaVuSans-67" transform="translate(875.390625 0)"/>
      <use xlink:href="#DejaVuSans-6f" transform="translate(938.867188 0)"/>
      <use xlink:href="#DejaVuSans-72" transform="translate(1000.048828 0)"/>
      <use xlink:href="#DejaVuSans-79" transform="translate(1041.162109 0)"/>
     </g>
    </g>
   </g>
   <g id="matplotlib.axis_2">
    <g id="ytick_1">
     <g id="line2d_5">
      <defs>
       <path id="m2c2aabe98a" d="M 0 0 
L -3.5 0 
" style="stroke: #000000; stroke-width: 0.8"/>
      </defs>
      <g>
       <use xlink:href="#m2c2aabe98a" x="90" y="290.470798" style="stroke: #000000; stroke-width: 0.8"/>
      </g>
     </g>
     <g id="text_6">
      <!-- 3 -->
      <g transform="translate(76.6375 294.270016) scale(0.1 -0.1)">
       <defs>
        <path id="DejaVuSans-33" d="M 2597 2516 
Q 3050 2419 3304 2112 
Q 3559 1806 3559 1356 
Q 3559 666 3084 287 
Q 2609 -91 1734 -91 
Q 1441 -91 1130 -33 
Q 819 25 488 141 
L 488 750 
Q 750 597 1062 519 
Q 1375 441 1716 441 
Q 2309 441 2620 675 
Q 2931 909 2931 1356 
Q 2931 1769 2642 2001 
Q 2353 2234 1838 2234 
L 1294 2234 
L 1294 2753 
L 1863 2753 
Q 2328 2753 2575 2939 
Q 2822 3125 2822 3475 
Q 2822 3834 2567 4026 
Q 2313 4219 1838 4219 
Q 1578 4219 1281 4162 
Q 984 4106 628 3988 
L 628 4550 
Q 988 4650 1302 4700 
Q 1616 4750 1894 4750 
Q 2613 4750 3031 4423 
Q 3450 4097 3450 3541 
Q 3450 3153 3228 2886 
Q 3006 2619 2597 2516 
z
" transform="scale(0.015625)"/>
       </defs>
       <use xlink:href="#DejaVuSans-33"/>
      </g>
     </g>
    </g>
    <g id="ytick_2">
     <g id="line2d_6">
      <g>
       <use xlink:href="#m2c2aabe98a" x="90" y="259.421998" style="stroke: #000000; stroke-width: 0.8"/>
      </g>
     </g>
     <g id="text_7">
      <!-- 4 -->
      <g transform="translate(76.6375 263.221217) scale(0.1 -0.1)">
       <defs>
        <path id="DejaVuSans-34" d="M 2419 4116 
L 825 1625 
L 2419 1625 
L 2419 4116 
z
M 2253 4666 
L 3047 4666 
L 3047 1625 
L 3713 1625 
L 3713 1100 
L 3047 1100 
L 3047 0 
L 2419 0 
L 2419 1100 
L 313 1100 
L 313 1709 
L 2253 4666 
z
" transform="scale(0.015625)"/>
       </defs>
       <use xlink:href="#DejaVuSans-34"/>
      </g>
     </g>
    </g>
    <g id="ytick_3">
     <g id="line2d_7">
      <g>
       <use xlink:href="#m2c2aabe98a" x="90" y="228.373199" style="stroke: #000000; stroke-width: 0.8"/>
      </g>
     </g>
     <g id="text_8">
      <!-- 5 -->
      <g transform="translate(76.6375 232.172418) scale(0.1 -0.1)">
       <defs>
        <path id="DejaVuSans-35" d="M 691 4666 
L 3169 4666 
L 3169 4134 
L 1269 4134 
L 1269 2991 
Q 1406 3038 1543 3061 
Q 1681 3084 1819 3084 
Q 2600 3084 3056 2656 
Q 3513 2228 3513 1497 
Q 3513 744 3044 326 
Q 2575 -91 1722 -91 
Q 1428 -91 1123 -41 
Q 819 9 494 109 
L 494 744 
Q 775 591 1075 516 
Q 1375 441 1709 441 
Q 2250 441 2565 725 
Q 2881 1009 2881 1497 
Q 2881 1984 2565 2268 
Q 2250 2553 1709 2553 
Q 1456 2553 1204 2497 
Q 953 2441 691 2322 
L 691 4666 
z
" transform="scale(0.015625)"/>
       </defs>
       <use xlink:href="#DejaVuSans-35"/>
      </g>
     </g>
    </g>
    <g id="ytick_4">
     <g id="line2d_8">
      <g>
       <use xlink:href="#m2c2aabe98a" x="90" y="197.3244" style="stroke: #000000; stroke-width: 0.8"/>
      </g>
     </g>
     <g id="text_9">
      <!-- 6 -->
      <g transform="translate(76.6375 201.123618) scale(0.1 -0.1)">
       <defs>
        <path id="DejaVuSans-36" d="M 2113 2584 
Q 1688 2584 1439 2293 
Q 1191 2003 1191 1497 
Q 1191 994 1439 701 
Q 1688 409 2113 409 
Q 2538 409 2786 701 
Q 3034 994 3034 1497 
Q 3034 2003 2786 2293 
Q 2538 2584 2113 2584 
z
M 3366 4563 
L 3366 3988 
Q 3128 4100 2886 4159 
Q 2644 4219 2406 4219 
Q 1781 4219 1451 3797 
Q 1122 3375 1075 2522 
Q 1259 2794 1537 2939 
Q 1816 3084 2150 3084 
Q 2853 3084 3261 2657 
Q 3669 2231 3669 1497 
Q 3669 778 3244 343 
Q 2819 -91 2113 -91 
Q 1303 -91 875 529 
Q 447 1150 447 2328 
Q 447 3434 972 4092 
Q 1497 4750 2381 4750 
Q 2619 4750 2861 4703 
Q 3103 4656 3366 4563 
z
" transform="scale(0.015625)"/>
       </defs>
       <use xlink:href="#DejaVuSans-36"/>
      </g>
     </g>
    </g>
    <g id="ytick_5">
     <g id="line2d_9">
      <g>
       <use xlink:href="#m2c2aabe98a" x="90" y="166.2756" style="stroke: #000000; stroke-width: 0.8"/>
      </g>
     </g>
     <g id="text_10">
      <!-- 7 -->
      <g transform="translate(76.6375 170.074819) scale(0.1 -0.1)">
       <defs>
        <path id="DejaVuSans-37" d="M 525 4666 
L 3525 4666 
L 3525 4397 
L 1831 0 
L 1172 0 
L 2766 4134 
L 525 4134 
L 525 4666 
z
" transform="scale(0.015625)"/>
       </defs>
       <use xlink:href="#DejaVuSans-37"/>
      </g>
     </g>
    </g>
    <g id="ytick_6">
     <g id="line2d_10">
      <g>
       <use xlink:href="#m2c2aabe98a" x="90" y="135.226801" style="stroke: #000000; stroke-width: 0.8"/>
      </g>
     </g>
     <g id="text_11">
      <!-- 8 -->
      <g transform="translate(76.6375 139.02602) scale(0.1 -0.1)">
       <defs>
        <path id="DejaVuSans-38" d="M 2034 2216 
Q 1584 2216 1326 1975 
Q 1069 1734 1069 1313 
Q 1069 891 1326 650 
Q 1584 409 2034 409 
Q 2484 409 2743 651 
Q 3003 894 3003 1313 
Q 3003 1734 2745 1975 
Q 2488 2216 2034 2216 
z
M 1403 2484 
Q 997 2584 770 2862 
Q 544 3141 544 3541 
Q 544 4100 942 4425 
Q 1341 4750 2034 4750 
Q 2731 4750 3128 4425 
Q 3525 4100 3525 3541 
Q 3525 3141 3298 2862 
Q 3072 2584 2669 2484 
Q 3125 2378 3379 2068 
Q 3634 1759 3634 1313 
Q 3634 634 3220 271 
Q 2806 -91 2034 -91 
Q 1263 -91 848 271 
Q 434 634 434 1313 
Q 434 1759 690 2068 
Q 947 2378 1403 2484 
z
M 1172 3481 
Q 1172 3119 1398 2916 
Q 1625 2713 2034 2713 
Q 2441 2713 2670 2916 
Q 2900 3119 2900 3481 
Q 2900 3844 2670 4047 
Q 2441 4250 2034 4250 
Q 1625 4250 1398 4047 
Q 1172 3844 1172 3481 
z
" transform="scale(0.015625)"/>
       </defs>
       <use xlink:href="#DejaVuSans-38"/>
      </g>
     </g>
    </g>
    <g id="ytick_7">
     <g id="line2d_11">
      <g>
       <use xlink:href="#m2c2aabe98a" x="90" y="104.178002" style="stroke: #000000; stroke-width: 0.8"/>
      </g>
     </g>
     <g id="text_12">
      <!-- 9 -->
      <g transform="translate(76.6375 107.97722) scale(0.1 -0.1)">
       <defs>
        <path id="DejaVuSans-39" d="M 703 97 
L 703 672 
Q 941 559 1184 500 
Q 1428 441 1663 441 
Q 2288 441 2617 861 
Q 2947 1281 2994 2138 
Q 2813 1869 2534 1725 
Q 2256 1581 1919 1581 
Q 1219 1581 811 2004 
Q 403 2428 403 3163 
Q 403 3881 828 4315 
Q 1253 4750 1959 4750 
Q 2769 4750 3195 4129 
Q 3622 3509 3622 2328 
Q 3622 1225 3098 567 
Q 2575 -91 1691 -91 
Q 1453 -91 1209 -44 
Q 966 3 703 97 
z
M 1959 2075 
Q 2384 2075 2632 2365 
Q 2881 2656 2881 3163 
Q 2881 3666 2632 3958 
Q 2384 4250 1959 4250 
Q 1534 4250 1286 3958 
Q 1038 3666 1038 3163 
Q 1038 2656 1286 2365 
Q 1534 2075 1959 2075 
z
" transform="scale(0.015625)"/>
       </defs>
       <use xlink:href="#DejaVuSans-39"/>
      </g>
     </g>
    </g>
    <g id="ytick_8">
     <g id="line2d_12">
      <g>
       <use xlink:href="#m2c2aabe98a" x="90" y="73.129202" style="stroke: #000000; stroke-width: 0.8"/>
      </g>
     </g>
     <g id="text_13">
      <!-- 10 -->
      <g transform="translate(70.275 76.928421) scale(0.1 -0.1)">
       <defs>
        <path id="DejaVuSans-31" d="M 794 531 
L 1825 531 
L 1825 4091 
L 703 3866 
L 703 4441 
L 1819 4666 
L 2450 4666 
L 2450 531 
L 3481 531 
L 3481 0 
L 794 0 
L 794 531 
z
" transform="scale(0.015625)"/>
        <path id="DejaVuSans-30" d="M 2034 4250 
Q 1547 4250 1301 3770 
Q 1056 3291 1056 2328 
Q 1056 1369 1301 889 
Q 1547 409 2034 409 
Q 2525 409 2770 889 
Q 3016 1369 3016 2328 
Q 3016 3291 2770 3770 
Q 2525 4250 2034 4250 
z
M 2034 4750 
Q 2819 4750 3233 4129 
Q 3647 3509 3647 2328 
Q 3647 1150 3233 529 
Q 2819 -91 2034 -91 
Q 1250 -91 836 529 
Q 422 1150 422 2328 
Q 422 3509 836 4129 
Q 1250 4750 2034 4750 
z
" transform="scale(0.015625)"/>
       </defs>
       <use xlink:href="#DejaVuSans-31"/>
       <use xlink:href="#DejaVuSans-30" transform="translate(63.623047 0)"/>
      </g>
     </g>
    </g>
    <g id="text_14">
     <!-- cont_variable -->
     <g transform="translate(63.917188 215.409375) rotate(-90) scale(0.1 -0.1)">
      <defs>
       <path id="DejaVuSans-5f" d="M 3263 -1063 
L 3263 -1509 
L -63 -1509 
L -63 -1063 
L 3263 -1063 
z
" transform="scale(0.015625)"/>
       <path id="DejaVuSans-62" d="M 3116 1747 
Q 3116 2381 2855 2742 
Q 2594 3103 2138 3103 
Q 1681 3103 1420 2742 
Q 1159 2381 1159 1747 
Q 1159 1113 1420 752 
Q 1681 391 2138 391 
Q 2594 391 2855 752 
Q 3116 1113 3116 1747 
z
M 1159 2969 
Q 1341 3281 1617 3432 
Q 1894 3584 2278 3584 
Q 2916 3584 3314 3078 
Q 3713 2572 3713 1747 
Q 3713 922 3314 415 
Q 2916 -91 2278 -91 
Q 1894 -91 1617 61 
Q 1341 213 1159 525 
L 1159 0 
L 581 0 
L 581 4863 
L 1159 4863 
L 1159 2969 
z
" transform="scale(0.015625)"/>
       <path id="DejaVuSans-6c" d="M 603 4863 
L 1178 4863 
L 1178 0 
L 603 0 
L 603 4863 
z
" transform="scale(0.015625)"/>
      </defs>
      <use xlink:href="#DejaVuSans-63"/>
      <use xlink:href="#DejaVuSans-6f" transform="translate(54.980469 0)"/>
      <use xlink:href="#DejaVuSans-6e" transform="translate(116.162109 0)"/>
      <use xlink:href="#DejaVuSans-74" transform="translate(179.541016 0)"/>
      <use xlink:href="#DejaVuSans-5f" transform="translate(218.75 0)"/>
      <use xlink:href="#DejaVuSans-76" transform="translate(268.75 0)"/>
      <use xlink:href="#DejaVuSans-61" transform="translate(327.929688 0)"/>
      <use xlink:href="#DejaVuSans-72" transform="translate(389.208984 0)"/>
      <use xlink:href="#DejaVuSans-69" transform="translate(430.322266 0)"/>
      <use xlink:href="#DejaVuSans-61" transform="translate(458.105469 0)"/>
      <use xlink:href="#DejaVuSans-62" transform="translate(519.384766 0)"/>
      <use xlink:href="#DejaVuSans-6c" transform="translate(582.861328 0)"/>
      <use xlink:href="#DejaVuSans-65" transform="translate(610.644531 0)"/>
     </g>
    </g>
   </g>
   <g id="patch_3">
    <path d="M 90 320.4 
L 90 43.2 
" style="fill: none; stroke: #000000; stroke-width: 0.8; stroke-linejoin: miter; stroke-linecap: square"/>
   </g>
   <g id="patch_4">
    <path d="M 648 320.4 
L 648 43.2 
" style="fill: none; stroke: #000000; stroke-width: 0.8; stroke-linejoin: miter; stroke-linecap: square"/>
   </g>
   <g id="patch_5">
    <path d="M 90 320.4 
L 648 320.4 
" style="fill: none; stroke: #000000; stroke-width: 0.8; stroke-linejoin: miter; stroke-linecap: square"/>
   </g>
   <g id="patch_6">
    <path d="M 90 43.2 
L 648 43.2 
" style="fill: none; stroke: #000000; stroke-width: 0.8; stroke-linejoin: miter; stroke-linecap: square"/>
   </g>
   <g id="PathCollection_1">
    <defs>
     <path id="mb74636778d" d="M 0 2.5 
C 0.663008 2.5 1.29895 2.236584 1.767767 1.767767 
C 2.236584 1.29895 2.5 0.663008 2.5 0 
C 2.5 -0.663008 2.236584 -1.29895 1.767767 -1.767767 
C 1.29895 -2.236584 0.663008 -2.5 0 -2.5 
C -0.663008 -2.5 -1.29895 -2.236584 -1.767767 -1.767767 
C -2.236584 -1.29895 -2.5 -0.663008 -2.5 0 
C -2.5 0.663008 -2.236584 1.29895 -1.767767 1.767767 
C -1.29895 2.236584 -0.663008 2.5 0 2.5 
z
"/>
    </defs>
    <g clip-path="url(#p1081f96967)">
     <use xlink:href="#mb74636778d" x="152.707438" y="135.226801" style="fill-opacity: 0.3"/>
     <use xlink:href="#mb74636778d" x="169.194547" y="135.226801" style="fill-opacity: 0.3"/>
     <use xlink:href="#mb74636778d" x="157.198835" y="259.421998" style="fill-opacity: 0.3"/>
     <use xlink:href="#mb74636778d" x="168.14751" y="135.226801" style="fill-opacity: 0.3"/>
     <use xlink:href="#mb74636778d" x="158.516445" y="104.178002" style="fill-opacity: 0.3"/>
     <use xlink:href="#mb74636778d" x="161.151775" y="104.178002" style="fill-opacity: 0.3"/>
     <use xlink:href="#mb74636778d" x="165.17765" y="104.178002" style="fill-opacity: 0.3"/>
     <use xlink:href="#mb74636778d" x="163.837789" y="104.178002" style="fill-opacity: 0.3"/>
     <use xlink:href="#mb74636778d" x="149.548821" y="104.178002" style="fill-opacity: 0.3"/>
     <use xlink:href="#mb74636778d" x="155.307339" y="104.178002" style="fill-opacity: 0.3"/>
     <use xlink:href="#mb74636778d" x="169.865102" y="104.178002" style="fill-opacity: 0.3"/>
     <use xlink:href="#mb74636778d" x="172.651142" y="104.178002" style="fill-opacity: 0.3"/>
     <use xlink:href="#mb74636778d" x="169.630225" y="104.178002" style="fill-opacity: 0.3"/>
     <use xlink:href="#mb74636778d" x="160.690313" y="104.178002" style="fill-opacity: 0.3"/>
     <use xlink:href="#mb74636778d" x="172.196708" y="104.178002" style="fill-opacity: 0.3"/>
     <use xlink:href="#mb74636778d" x="146.373277" y="104.178002" style="fill-opacity: 0.3"/>
     <use xlink:href="#mb74636778d" x="160.608843" y="104.178002" style="fill-opacity: 0.3"/>
     <use xlink:href="#mb74636778d" x="169.75039" y="104.178002" style="fill-opacity: 0.3"/>
     <use xlink:href="#mb74636778d" x="162.81725" y="104.178002" style="fill-opacity: 0.3"/>
     <use xlink:href="#mb74636778d" x="172.923267" y="104.178002" style="fill-opacity: 0.3"/>
     <use xlink:href="#mb74636778d" x="165.744985" y="104.178002" style="fill-opacity: 0.3"/>
     <use xlink:href="#mb74636778d" x="168.292347" y="104.178002" style="fill-opacity: 0.3"/>
     <use xlink:href="#mb74636778d" x="155.304192" y="104.178002" style="fill-opacity: 0.3"/>
     <use xlink:href="#mb74636778d" x="157.93061" y="104.178002" style="fill-opacity: 0.3"/>
     <use xlink:href="#mb74636778d" x="160.854454" y="104.178002" style="fill-opacity: 0.3"/>
     <use xlink:href="#mb74636778d" x="152.485997" y="104.178002" style="fill-opacity: 0.3"/>
     <use xlink:href="#mb74636778d" x="165.570995" y="104.178002" style="fill-opacity: 0.3"/>
     <use xlink:href="#mb74636778d" x="153.232363" y="104.178002" style="fill-opacity: 0.3"/>
     <use xlink:href="#mb74636778d" x="165.43328" y="166.2756" style="fill-opacity: 0.3"/>
     <use xlink:href="#mb74636778d" x="163.588313" y="166.2756" style="fill-opacity: 0.3"/>
     <use xlink:href="#mb74636778d" x="151.929604" y="166.2756" style="fill-opacity: 0.3"/>
     <use xlink:href="#mb74636778d" x="158.088063" y="166.2756" style="fill-opacity: 0.3"/>
     <use xlink:href="#mb74636778d" x="169.541812" y="166.2756" style="fill-opacity: 0.3"/>
     <use xlink:href="#mb74636778d" x="153.334206" y="166.2756" style="fill-opacity: 0.3"/>
     <use xlink:href="#mb74636778d" x="152.485151" y="166.2756" style="fill-opacity: 0.3"/>
     <use xlink:href="#mb74636778d" x="148.763842" y="166.2756" style="fill-opacity: 0.3"/>
     <use xlink:href="#mb74636778d" x="146.882995" y="166.2756" style="fill-opacity: 0.3"/>
     <use xlink:href="#mb74636778d" x="167.0552" y="166.2756" style="fill-opacity: 0.3"/>
     <use xlink:href="#mb74636778d" x="163.851563" y="166.2756" style="fill-opacity: 0.3"/>
     <use xlink:href="#mb74636778d" x="164.159819" y="166.2756" style="fill-opacity: 0.3"/>
     <use xlink:href="#mb74636778d" x="164.432019" y="166.2756" style="fill-opacity: 0.3"/>
     <use xlink:href="#mb74636778d" x="156.388589" y="166.2756" style="fill-opacity: 0.3"/>
     <use xlink:href="#mb74636778d" x="148.526406" y="166.2756" style="fill-opacity: 0.3"/>
     <use xlink:href="#mb74636778d" x="149.017657" y="166.2756" style="fill-opacity: 0.3"/>
     <use xlink:href="#mb74636778d" x="154.404014" y="166.2756" style="fill-opacity: 0.3"/>
     <use xlink:href="#mb74636778d" x="167.254321" y="166.2756" style="fill-opacity: 0.3"/>
     <use xlink:href="#mb74636778d" x="145.880699" y="166.2756" style="fill-opacity: 0.3"/>
     <use xlink:href="#mb74636778d" x="162.030866" y="166.2756" style="fill-opacity: 0.3"/>
     <use xlink:href="#mb74636778d" x="152.203417" y="104.178002" style="fill-opacity: 0.3"/>
     <use xlink:href="#mb74636778d" x="150.164557" y="104.178002" style="fill-opacity: 0.3"/>
     <use xlink:href="#mb74636778d" x="146.800947" y="104.178002" style="fill-opacity: 0.3"/>
     <use xlink:href="#mb74636778d" x="162.222844" y="104.178002" style="fill-opacity: 0.3"/>
     <use xlink:href="#mb74636778d" x="155.808719" y="104.178002" style="fill-opacity: 0.3"/>
     <use xlink:href="#mb74636778d" x="154.2277" y="104.178002" style="fill-opacity: 0.3"/>
    </g>
   </g>
   <g id="PathCollection_2">
    <g clip-path="url(#p1081f96967)">
     <use xlink:href="#mb74636778d" x="303.800479" y="135.226801" style="fill-opacity: 0.3"/>
     <use xlink:href="#mb74636778d" x="309.018537" y="135.226801" style="fill-opacity: 0.3"/>
     <use xlink:href="#mb74636778d" x="288.629775" y="135.226801" style="fill-opacity: 0.3"/>
     <use xlink:href="#mb74636778d" x="306.490957" y="135.226801" style="fill-opacity: 0.3"/>
     <use xlink:href="#mb74636778d" x="288.587831" y="135.226801" style="fill-opacity: 0.3"/>
     <use xlink:href="#mb74636778d" x="309.937732" y="135.226801" style="fill-opacity: 0.3"/>
     <use xlink:href="#mb74636778d" x="289.477796" y="135.226801" style="fill-opacity: 0.3"/>
     <use xlink:href="#mb74636778d" x="305.683804" y="135.226801" style="fill-opacity: 0.3"/>
     <use xlink:href="#mb74636778d" x="302.537751" y="135.226801" style="fill-opacity: 0.3"/>
     <use xlink:href="#mb74636778d" x="302.337016" y="135.226801" style="fill-opacity: 0.3"/>
     <use xlink:href="#mb74636778d" x="302.980331" y="259.421998" style="fill-opacity: 0.3"/>
     <use xlink:href="#mb74636778d" x="285.641885" y="259.421998" style="fill-opacity: 0.3"/>
     <use xlink:href="#mb74636778d" x="295.543915" y="259.421998" style="fill-opacity: 0.3"/>
     <use xlink:href="#mb74636778d" x="287.62725" y="259.421998" style="fill-opacity: 0.3"/>
     <use xlink:href="#mb74636778d" x="307.073574" y="135.226801" style="fill-opacity: 0.3"/>
     <use xlink:href="#mb74636778d" x="299.3351" y="104.178002" style="fill-opacity: 0.3"/>
     <use xlink:href="#mb74636778d" x="312.275591" y="104.178002" style="fill-opacity: 0.3"/>
     <use xlink:href="#mb74636778d" x="309.912913" y="104.178002" style="fill-opacity: 0.3"/>
     <use xlink:href="#mb74636778d" x="296.122544" y="104.178002" style="fill-opacity: 0.3"/>
     <use xlink:href="#mb74636778d" x="286.575988" y="104.178002" style="fill-opacity: 0.3"/>
     <use xlink:href="#mb74636778d" x="291.823205" y="104.178002" style="fill-opacity: 0.3"/>
     <use xlink:href="#mb74636778d" x="306.574655" y="104.178002" style="fill-opacity: 0.3"/>
     <use xlink:href="#mb74636778d" x="308.799337" y="104.178002" style="fill-opacity: 0.3"/>
     <use xlink:href="#mb74636778d" x="286.327312" y="104.178002" style="fill-opacity: 0.3"/>
     <use xlink:href="#mb74636778d" x="305.982544" y="104.178002" style="fill-opacity: 0.3"/>
     <use xlink:href="#mb74636778d" x="292.587759" y="104.178002" style="fill-opacity: 0.3"/>
     <use xlink:href="#mb74636778d" x="311.75914" y="104.178002" style="fill-opacity: 0.3"/>
     <use xlink:href="#mb74636778d" x="302.346349" y="104.178002" style="fill-opacity: 0.3"/>
     <use xlink:href="#mb74636778d" x="290.198601" y="104.178002" style="fill-opacity: 0.3"/>
     <use xlink:href="#mb74636778d" x="310.518539" y="104.178002" style="fill-opacity: 0.3"/>
     <use xlink:href="#mb74636778d" x="298.661253" y="104.178002" style="fill-opacity: 0.3"/>
     <use xlink:href="#mb74636778d" x="291.29733" y="104.178002" style="fill-opacity: 0.3"/>
     <use xlink:href="#mb74636778d" x="290.638867" y="104.178002" style="fill-opacity: 0.3"/>
     <use xlink:href="#mb74636778d" x="298.469371" y="104.178002" style="fill-opacity: 0.3"/>
     <use xlink:href="#mb74636778d" x="286.335088" y="104.178002" style="fill-opacity: 0.3"/>
     <use xlink:href="#mb74636778d" x="302.658182" y="104.178002" style="fill-opacity: 0.3"/>
     <use xlink:href="#mb74636778d" x="290.046965" y="104.178002" style="fill-opacity: 0.3"/>
     <use xlink:href="#mb74636778d" x="308.131382" y="104.178002" style="fill-opacity: 0.3"/>
     <use xlink:href="#mb74636778d" x="286.392688" y="104.178002" style="fill-opacity: 0.3"/>
     <use xlink:href="#mb74636778d" x="298.663778" y="104.178002" style="fill-opacity: 0.3"/>
     <use xlink:href="#mb74636778d" x="297.526397" y="104.178002" style="fill-opacity: 0.3"/>
     <use xlink:href="#mb74636778d" x="297.889796" y="104.178002" style="fill-opacity: 0.3"/>
     <use xlink:href="#mb74636778d" x="286.912516" y="104.178002" style="fill-opacity: 0.3"/>
     <use xlink:href="#mb74636778d" x="293.524828" y="104.178002" style="fill-opacity: 0.3"/>
     <use xlink:href="#mb74636778d" x="295.32685" y="104.178002" style="fill-opacity: 0.3"/>
     <use xlink:href="#mb74636778d" x="312.174497" y="104.178002" style="fill-opacity: 0.3"/>
     <use xlink:href="#mb74636778d" x="311.590455" y="104.178002" style="fill-opacity: 0.3"/>
     <use xlink:href="#mb74636778d" x="301.0782" y="104.178002" style="fill-opacity: 0.3"/>
     <use xlink:href="#mb74636778d" x="312.088228" y="104.178002" style="fill-opacity: 0.3"/>
     <use xlink:href="#mb74636778d" x="308.462256" y="104.178002" style="fill-opacity: 0.3"/>
     <use xlink:href="#mb74636778d" x="289.829461" y="104.178002" style="fill-opacity: 0.3"/>
     <use xlink:href="#mb74636778d" x="292.545618" y="104.178002" style="fill-opacity: 0.3"/>
     <use xlink:href="#mb74636778d" x="308.463072" y="104.178002" style="fill-opacity: 0.3"/>
     <use xlink:href="#mb74636778d" x="298.554371" y="104.178002" style="fill-opacity: 0.3"/>
     <use xlink:href="#mb74636778d" x="308.172653" y="104.178002" style="fill-opacity: 0.3"/>
     <use xlink:href="#mb74636778d" x="294.544297" y="104.178002" style="fill-opacity: 0.3"/>
     <use xlink:href="#mb74636778d" x="295.182875" y="104.178002" style="fill-opacity: 0.3"/>
     <use xlink:href="#mb74636778d" x="285.957677" y="104.178002" style="fill-opacity: 0.3"/>
     <use xlink:href="#mb74636778d" x="309.051773" y="104.178002" style="fill-opacity: 0.3"/>
     <use xlink:href="#mb74636778d" x="294.291905" y="104.178002" style="fill-opacity: 0.3"/>
     <use xlink:href="#mb74636778d" x="296.89365" y="166.2756" style="fill-opacity: 0.3"/>
     <use xlink:href="#mb74636778d" x="312.599603" y="166.2756" style="fill-opacity: 0.3"/>
     <use xlink:href="#mb74636778d" x="294.078076" y="166.2756" style="fill-opacity: 0.3"/>
     <use xlink:href="#mb74636778d" x="301.756592" y="166.2756" style="fill-opacity: 0.3"/>
     <use xlink:href="#mb74636778d" x="308.336786" y="166.2756" style="fill-opacity: 0.3"/>
     <use xlink:href="#mb74636778d" x="287.157274" y="166.2756" style="fill-opacity: 0.3"/>
     <use xlink:href="#mb74636778d" x="306.676453" y="166.2756" style="fill-opacity: 0.3"/>
     <use xlink:href="#mb74636778d" x="291.349298" y="166.2756" style="fill-opacity: 0.3"/>
     <use xlink:href="#mb74636778d" x="308.443295" y="166.2756" style="fill-opacity: 0.3"/>
     <use xlink:href="#mb74636778d" x="289.964423" y="166.2756" style="fill-opacity: 0.3"/>
     <use xlink:href="#mb74636778d" x="309.374826" y="166.2756" style="fill-opacity: 0.3"/>
     <use xlink:href="#mb74636778d" x="305.413187" y="166.2756" style="fill-opacity: 0.3"/>
     <use xlink:href="#mb74636778d" x="288.634706" y="166.2756" style="fill-opacity: 0.3"/>
     <use xlink:href="#mb74636778d" x="285.520643" y="166.2756" style="fill-opacity: 0.3"/>
     <use xlink:href="#mb74636778d" x="312.362853" y="166.2756" style="fill-opacity: 0.3"/>
     <use xlink:href="#mb74636778d" x="286.889199" y="166.2756" style="fill-opacity: 0.3"/>
     <use xlink:href="#mb74636778d" x="302.076518" y="166.2756" style="fill-opacity: 0.3"/>
     <use xlink:href="#mb74636778d" x="299.692061" y="166.2756" style="fill-opacity: 0.3"/>
     <use xlink:href="#mb74636778d" x="308.588811" y="166.2756" style="fill-opacity: 0.3"/>
     <use xlink:href="#mb74636778d" x="309.262506" y="166.2756" style="fill-opacity: 0.3"/>
     <use xlink:href="#mb74636778d" x="304.421898" y="166.2756" style="fill-opacity: 0.3"/>
     <use xlink:href="#mb74636778d" x="310.363515" y="166.2756" style="fill-opacity: 0.3"/>
     <use xlink:href="#mb74636778d" x="303.564041" y="166.2756" style="fill-opacity: 0.3"/>
     <use xlink:href="#mb74636778d" x="292.002391" y="104.178002" style="fill-opacity: 0.3"/>
     <use xlink:href="#mb74636778d" x="312.748297" y="104.178002" style="fill-opacity: 0.3"/>
     <use xlink:href="#mb74636778d" x="295.291212" y="104.178002" style="fill-opacity: 0.3"/>
     <use xlink:href="#mb74636778d" x="292.066053" y="104.178002" style="fill-opacity: 0.3"/>
    </g>
   </g>
   <g id="PathCollection_3">
    <g clip-path="url(#p1081f96967)">
     <use xlink:href="#mb74636778d" x="435.146975" y="135.226801" style="fill-opacity: 0.3"/>
     <use xlink:href="#mb74636778d" x="430.906754" y="135.226801" style="fill-opacity: 0.3"/>
     <use xlink:href="#mb74636778d" x="440.578827" y="135.226801" style="fill-opacity: 0.3"/>
     <use xlink:href="#mb74636778d" x="449.536148" y="135.226801" style="fill-opacity: 0.3"/>
     <use xlink:href="#mb74636778d" x="446.519232" y="259.421998" style="fill-opacity: 0.3"/>
     <use xlink:href="#mb74636778d" x="431.270236" y="259.421998" style="fill-opacity: 0.3"/>
     <use xlink:href="#mb74636778d" x="444.954525" y="259.421998" style="fill-opacity: 0.3"/>
     <use xlink:href="#mb74636778d" x="448.156091" y="135.226801" style="fill-opacity: 0.3"/>
     <use xlink:href="#mb74636778d" x="450.328974" y="259.421998" style="fill-opacity: 0.3"/>
     <use xlink:href="#mb74636778d" x="430.702151" y="135.226801" style="fill-opacity: 0.3"/>
     <use xlink:href="#mb74636778d" x="441.489068" y="259.421998" style="fill-opacity: 0.3"/>
     <use xlink:href="#mb74636778d" x="436.170784" y="104.178002" style="fill-opacity: 0.3"/>
     <use xlink:href="#mb74636778d" x="437.303141" y="104.178002" style="fill-opacity: 0.3"/>
     <use xlink:href="#mb74636778d" x="451.048306" y="104.178002" style="fill-opacity: 0.3"/>
     <use xlink:href="#mb74636778d" x="436.275074" y="104.178002" style="fill-opacity: 0.3"/>
     <use xlink:href="#mb74636778d" x="439.203328" y="104.178002" style="fill-opacity: 0.3"/>
     <use xlink:href="#mb74636778d" x="440.128486" y="104.178002" style="fill-opacity: 0.3"/>
     <use xlink:href="#mb74636778d" x="433.919517" y="104.178002" style="fill-opacity: 0.3"/>
     <use xlink:href="#mb74636778d" x="444.586315" y="104.178002" style="fill-opacity: 0.3"/>
     <use xlink:href="#mb74636778d" x="427.292024" y="104.178002" style="fill-opacity: 0.3"/>
     <use xlink:href="#mb74636778d" x="433.064101" y="104.178002" style="fill-opacity: 0.3"/>
     <use xlink:href="#mb74636778d" x="452.184625" y="104.178002" style="fill-opacity: 0.3"/>
     <use xlink:href="#mb74636778d" x="439.70418" y="104.178002" style="fill-opacity: 0.3"/>
     <use xlink:href="#mb74636778d" x="441.868474" y="104.178002" style="fill-opacity: 0.3"/>
     <use xlink:href="#mb74636778d" x="431.193804" y="104.178002" style="fill-opacity: 0.3"/>
     <use xlink:href="#mb74636778d" x="448.429468" y="104.178002" style="fill-opacity: 0.3"/>
     <use xlink:href="#mb74636778d" x="440.491479" y="104.178002" style="fill-opacity: 0.3"/>
     <use xlink:href="#mb74636778d" x="447.816915" y="104.178002" style="fill-opacity: 0.3"/>
     <use xlink:href="#mb74636778d" x="452.427655" y="104.178002" style="fill-opacity: 0.3"/>
     <use xlink:href="#mb74636778d" x="436.580038" y="104.178002" style="fill-opacity: 0.3"/>
     <use xlink:href="#mb74636778d" x="433.353408" y="104.178002" style="fill-opacity: 0.3"/>
     <use xlink:href="#mb74636778d" x="433.433779" y="104.178002" style="fill-opacity: 0.3"/>
     <use xlink:href="#mb74636778d" x="432.180327" y="104.178002" style="fill-opacity: 0.3"/>
     <use xlink:href="#mb74636778d" x="443.529217" y="104.178002" style="fill-opacity: 0.3"/>
     <use xlink:href="#mb74636778d" x="435.049944" y="166.2756" style="fill-opacity: 0.3"/>
     <use xlink:href="#mb74636778d" x="452.474024" y="166.2756" style="fill-opacity: 0.3"/>
     <use xlink:href="#mb74636778d" x="425.666107" y="166.2756" style="fill-opacity: 0.3"/>
     <use xlink:href="#mb74636778d" x="447.451874" y="166.2756" style="fill-opacity: 0.3"/>
     <use xlink:href="#mb74636778d" x="437.298827" y="166.2756" style="fill-opacity: 0.3"/>
     <use xlink:href="#mb74636778d" x="427.78413" y="166.2756" style="fill-opacity: 0.3"/>
     <use xlink:href="#mb74636778d" x="433.907936" y="104.178002" style="fill-opacity: 0.3"/>
     <use xlink:href="#mb74636778d" x="449.353022" y="104.178002" style="fill-opacity: 0.3"/>
    </g>
   </g>
   <g id="PathCollection_4">
    <g clip-path="url(#p1081f96967)">
     <use xlink:href="#mb74636778d" x="567.468822" y="259.421998" style="fill-opacity: 0.3"/>
     <use xlink:href="#mb74636778d" x="577.749009" y="135.226801" style="fill-opacity: 0.3"/>
     <use xlink:href="#mb74636778d" x="579.683239" y="104.178002" style="fill-opacity: 0.3"/>
     <use xlink:href="#mb74636778d" x="566.472091" y="104.178002" style="fill-opacity: 0.3"/>
     <use xlink:href="#mb74636778d" x="568.680146" y="104.178002" style="fill-opacity: 0.3"/>
     <use xlink:href="#mb74636778d" x="580.009686" y="104.178002" style="fill-opacity: 0.3"/>
     <use xlink:href="#mb74636778d" x="578.316776" y="104.178002" style="fill-opacity: 0.3"/>
     <use xlink:href="#mb74636778d" x="575.710123" y="166.2756" style="fill-opacity: 0.3"/>
     <use xlink:href="#mb74636778d" x="590.873203" y="166.2756" style="fill-opacity: 0.3"/>
     <use xlink:href="#mb74636778d" x="590.950795" y="166.2756" style="fill-opacity: 0.3"/>
     <use xlink:href="#mb74636778d" x="571.930869" y="166.2756" style="fill-opacity: 0.3"/>
     <use xlink:href="#mb74636778d" x="573.375842" y="166.2756" style="fill-opacity: 0.3"/>
     <use xlink:href="#mb74636778d" x="584.797962" y="166.2756" style="fill-opacity: 0.3"/>
     <use xlink:href="#mb74636778d" x="577.410219" y="166.2756" style="fill-opacity: 0.3"/>
     <use xlink:href="#mb74636778d" x="582.160891" y="166.2756" style="fill-opacity: 0.3"/>
     <use xlink:href="#mb74636778d" x="567.164855" y="166.2756" style="fill-opacity: 0.3"/>
     <use xlink:href="#mb74636778d" x="586.615948" y="166.2756" style="fill-opacity: 0.3"/>
     <use xlink:href="#mb74636778d" x="570.687092" y="166.2756" style="fill-opacity: 0.3"/>
     <use xlink:href="#mb74636778d" x="581.839459" y="104.178002" style="fill-opacity: 0.3"/>
     <use xlink:href="#mb74636778d" x="579.277864" y="104.178002" style="fill-opacity: 0.3"/>
     <use xlink:href="#mb74636778d" x="586.075018" y="104.178002" style="fill-opacity: 0.3"/>
     <use xlink:href="#mb74636778d" x="574.337974" y="104.178002" style="fill-opacity: 0.3"/>
     <use xlink:href="#mb74636778d" x="570.353419" y="104.178002" style="fill-opacity: 0.3"/>
     <use xlink:href="#mb74636778d" x="572.145065" y="104.178002" style="fill-opacity: 0.3"/>
     <use xlink:href="#mb74636778d" x="566.334166" y="104.178002" style="fill-opacity: 0.3"/>
     <use xlink:href="#mb74636778d" x="589.433384" y="104.178002" style="fill-opacity: 0.3"/>
     <use xlink:href="#mb74636778d" x="572.59653" y="104.178002" style="fill-opacity: 0.3"/>
    </g>
   </g>
  </g>
 </g>
 <defs>
  <clipPath id="p1081f96967">
   <rect x="90" y="43.2" width="558" height="277.2"/>
  </clipPath>
 </defs>
</svg>
