<?xml version="1.0" encoding="utf-8" standalone="no"?>
<!DOCTYPE svg PUBLIC "-//W3C//DTD SVG 1.1//EN"
  "http://www.w3.org/Graphics/SVG/1.1/DTD/svg11.dtd">
<svg xmlns:xlink="http://www.w3.org/1999/xlink" width="720pt" height="360pt" viewBox="0 0 720 360" xmlns="http://www.w3.org/2000/svg" version="1.1">
 <metadata>
  <rdf:RDF xmlns:dc="http://purl.org/dc/elements/1.1/" xmlns:cc="http://creativecommons.org/ns#" xmlns:rdf="http://www.w3.org/1999/02/22-rdf-syntax-ns#">
   <cc:Work>
    <dc:type rdf:resource="http://purl.org/dc/dcmitype/StillImage"/>
    <dc:date>2025-09-11T16:48:58.965398</dc:date>
    <dc:format>image/svg+xml</dc:format>
    <dc:creator>
     <cc:Agent>
      <dc:title>Matplotlib v3.10.3, https://matplotlib.org/</dc:title>
     </cc:Agent>
    </dc:creator>
   </cc:Work>
  </rdf:RDF>
 </metadata>
 <defs>
  <style type="text/css">*{stroke-linejoin: round; stroke-linecap: butt}</style>
 </defs>
 <g id="figure_1">
  <g id="patch_1">
   <path d="M 0 360 
L 720 360 
L 720 0 
L 0 0 
z
" style="fill: #ffffff"/>
  </g>
  <g id="axes_1">
   <g id="patch_2">
    <path d="M 90 320.4 
L 648 320.4 
L 648 43.2 
L 90 43.2 
z
" style="fill: #ffffff"/>
   </g>
   <g id="FillBetweenPolyCollection_1">
    <defs>
     <path id="mc392ded4c8" d="M 231.184635 -52.2 
L 227.815365 -52.2 
L 227.306 -54.745455 
L 226.695572 -57.290909 
L 225.981735 -59.836364 
L 225.16799 -62.381818 
L 224.264876 -64.927273 
L 223.29072 -67.472727 
L 222.271767 -70.018182 
L 221.241528 -72.563636 
L 220.239297 -75.109091 
L 219.307872 -77.654545 
L 218.490631 -80.2 
L 217.828231 -82.745455 
L 217.355277 -85.290909 
L 217.097329 -87.836364 
L 217.068613 -90.381818 
L 217.270724 -92.927273 
L 217.692475 -95.472727 
L 218.310922 -98.018182 
L 219.093426 -100.563636 
L 220.000495 -103.109091 
L 220.989059 -105.654545 
L 222.015799 -108.2 
L 223.040155 -110.745455 
L 224.026748 -113.290909 
L 224.94699 -115.836364 
L 225.779827 -118.381818 
L 226.511634 -120.927273 
L 227.135355 -123.472727 
L 227.649079 -126.018182 
L 228.054207 -128.563636 
L 228.3534 -131.109091 
L 228.548475 -133.654545 
L 228.638348 -136.2 
L 228.61716 -138.745455 
L 228.472668 -141.290909 
L 228.185017 -143.836364 
L 227.726027 -146.381818 
L 227.059168 -148.927273 
L 226.140399 -151.472727 
L 224.920082 -154.018182 
L 223.346089 -156.563636 
L 221.368189 -159.109091 
L 218.943581 -161.654545 
L 216.043304 -164.2 
L 212.658987 -166.745455 
L 208.809214 -169.290909 
L 204.544622 -171.836364 
L 199.95079 -174.381818 
L 195.148087 -176.927273 
L 190.28789 -179.472727 
L 185.544965 -182.018182 
L 181.106353 -184.563636 
L 177.15759 -187.109091 
L 173.867587 -189.654545 
L 171.373838 -192.2 
L 169.769661 -194.745455 
L 169.095068 -197.290909 
L 169.332372 -199.836364 
L 170.407029 -202.381818 
L 172.193498 -204.927273 
L 174.525198 -207.472727 
L 177.207115 -210.018182 
L 180.029361 -212.563636 
L 182.780002 -215.109091 
L 185.255841 -217.654545 
L 187.270387 -220.2 
L 188.658936 -222.745455 
L 189.281317 -225.290909 
L 189.02336 -227.836364 
L 187.798328 -230.381818 
L 185.549441 -232.927273 
L 182.254207 -235.472727 
L 177.930598 -238.018182 
L 172.644352 -240.563636 
L 166.516013 -243.109091 
L 159.725836 -245.654545 
L 152.514562 -248.2 
L 145.17839 -250.745455 
L 138.057167 -253.290909 
L 131.515801 -255.836364 
L 125.920082 -258.381818 
L 121.609116 -260.927273 
L 118.867416 -263.472727 
L 117.9 -266.018182 
L 118.813691 -268.563636 
L 121.607097 -271.109091 
L 126.170638 -273.654545 
L 132.296661 -276.2 
L 139.698345 -278.745455 
L 148.034986 -281.290909 
L 156.940569 -283.836364 
L 166.052306 -286.381818 
L 175.036086 -288.927273 
L 183.606501 -291.472727 
L 191.540009 -294.018182 
L 198.680841 -296.563636 
L 204.940172 -299.109091 
L 210.289792 -301.654545 
L 214.751931 -304.2 
L 244.248069 -304.2 
L 244.248069 -304.2 
L 248.710208 -301.654545 
L 254.059828 -299.109091 
L 260.319159 -296.563636 
L 267.459991 -294.018182 
L 275.393499 -291.472727 
L 283.963914 -288.927273 
L 292.947694 -286.381818 
L 302.059431 -283.836364 
L 310.965014 -281.290909 
L 319.301655 -278.745455 
L 326.703339 -276.2 
L 332.829362 -273.654545 
L 337.392903 -271.109091 
L 340.186309 -268.563636 
L 341.1 -266.018182 
L 340.132584 -263.472727 
L 337.390884 -260.927273 
L 333.079918 -258.381818 
L 327.484199 -255.836364 
L 320.942833 -253.290909 
L 313.82161 -250.745455 
L 306.485438 -248.2 
L 299.274164 -245.654545 
L 292.483987 -243.109091 
L 286.355648 -240.563636 
L 281.069402 -238.018182 
L 276.745793 -235.472727 
L 273.450559 -232.927273 
L 271.201672 -230.381818 
L 269.97664 -227.836364 
L 269.718683 -225.290909 
L 270.341064 -222.745455 
L 271.729613 -220.2 
L 273.744159 -217.654545 
L 276.219998 -215.109091 
L 278.970639 -212.563636 
L 281.792885 -210.018182 
L 284.474802 -207.472727 
L 286.806502 -204.927273 
L 288.592971 -202.381818 
L 289.667628 -199.836364 
L 289.904932 -197.290909 
L 289.230339 -194.745455 
L 287.626162 -192.2 
L 285.132413 -189.654545 
L 281.84241 -187.109091 
L 277.893647 -184.563636 
L 273.455035 -182.018182 
L 268.71211 -179.472727 
L 263.851913 -176.927273 
L 259.04921 -174.381818 
L 254.455378 -171.836364 
L 250.190786 -169.290909 
L 246.341013 -166.745455 
L 242.956696 -164.2 
L 240.056419 -161.654545 
L 237.631811 -159.109091 
L 235.653911 -156.563636 
L 234.079918 -154.018182 
L 232.859601 -151.472727 
L 231.940832 -148.927273 
L 231.273973 -146.381818 
L 230.814983 -143.836364 
L 230.527332 -141.290909 
L 230.38284 -138.745455 
L 230.361652 -136.2 
L 230.451525 -133.654545 
L 230.6466 -131.109091 
L 230.945793 -128.563636 
L 231.350921 -126.018182 
L 231.864645 -123.472727 
L 232.488366 -120.927273 
L 233.220173 -118.381818 
L 234.05301 -115.836364 
L 234.973252 -113.290909 
L 235.959845 -110.745455 
L 236.984201 -108.2 
L 238.010941 -105.654545 
L 238.999505 -103.109091 
L 239.906574 -100.563636 
L 240.689078 -98.018182 
L 241.307525 -95.472727 
L 241.729276 -92.927273 
L 241.931387 -90.381818 
L 241.902671 -87.836364 
L 241.644723 -85.290909 
L 241.171769 -82.745455 
L 240.509369 -80.2 
L 239.692128 -77.654545 
L 238.760703 -75.109091 
L 237.758472 -72.563636 
L 236.728233 -70.018182 
L 235.70928 -67.472727 
L 234.735124 -64.927273 
L 233.83201 -62.381818 
L 233.018265 -59.836364 
L 232.304428 -57.290909 
L 231.694 -54.745455 
L 231.184635 -52.2 
z
" style="stroke: #3f3f3f; stroke-width: 1.25"/>
    </defs>
    <g clip-path="url(#p194db7d342)">
     <use xlink:href="#mc392ded4c8" x="0" y="360" style="fill: #3274a1; stroke: #3f3f3f; stroke-width: 1.25"/>
    </g>
   </g>
   <g id="FillBetweenPolyCollection_2">
    <defs>
     <path id="m4a0b2610b8" d="M 509.689974 -53.018858 
L 507.310026 -53.018858 
L 506.943958 -55.54777 
L 506.504177 -58.076682 
L 505.989038 -60.605594 
L 505.401329 -63.134506 
L 504.749167 -65.663418 
L 504.046543 -68.19233 
L 503.313386 -70.721242 
L 502.575008 -73.250154 
L 501.860907 -75.779066 
L 501.202958 -78.307978 
L 500.633127 -80.836889 
L 500.180934 -83.365801 
L 499.870927 -85.894713 
L 499.720478 -88.423625 
L 499.73817 -90.952537 
L 499.922988 -93.481449 
L 500.264412 -96.010361 
L 500.743409 -98.539273 
L 501.334187 -101.068185 
L 502.006484 -103.597097 
L 502.728116 -106.126009 
L 503.467474 -108.654921 
L 504.1957 -111.183833 
L 504.88835 -113.712745 
L 505.526401 -116.241657 
L 506.096583 -118.770569 
L 506.591091 -121.299481 
L 507.006754 -123.828393 
L 507.343823 -126.357305 
L 507.604503 -128.886217 
L 507.791355 -131.415129 
L 507.905674 -133.944041 
L 507.945904 -136.472953 
L 507.906168 -139.001865 
L 507.774958 -141.530777 
L 507.534074 -144.059689 
L 507.157924 -146.5886 
L 506.613341 -149.117512 
L 505.860101 -151.646424 
L 504.852358 -154.175336 
L 503.541162 -156.704248 
L 501.878165 -159.23316 
L 499.82047 -161.762072 
L 497.336406 -164.290984 
L 494.41177 -166.819896 
L 491.055886 -169.348808 
L 487.306626 -171.87772 
L 483.233496 -174.406632 
L 478.937936 -176.935544 
L 474.550196 -179.464456 
L 470.222578 -181.993368 
L 466.119263 -184.52228 
L 462.403557 -187.051192 
L 459.223821 -189.580104 
L 456.699738 -192.109016 
L 454.910647 -194.637928 
L 453.887517 -197.16684 
L 453.609669 -199.695752 
L 454.006701 -202.224664 
L 454.965291 -204.753576 
L 456.339801 -207.282488 
L 457.965068 -209.8114 
L 459.669475 -212.340311 
L 461.286464 -214.869223 
L 462.663089 -217.398135 
L 463.664889 -219.927047 
L 464.177161 -222.455959 
L 464.103537 -224.984871 
L 463.363343 -227.513783 
L 461.889507 -230.042695 
L 459.628651 -232.571607 
L 456.544488 -235.100519 
L 452.624834 -237.629431 
L 447.891543 -240.158343 
L 442.411752 -242.687255 
L 436.308097 -245.216167 
L 429.765282 -247.745079 
L 423.030584 -250.273991 
L 416.406582 -252.802903 
L 410.235572 -255.331815 
L 404.876458 -257.860727 
L 400.676284 -260.389639 
L 397.939674 -262.918551 
L 396.9 -265.447463 
L 397.696139 -267.976375 
L 400.357968 -270.505287 
L 404.80261 -273.034199 
L 410.841919 -275.563111 
L 418.200133 -278.092022 
L 426.539282 -280.620934 
L 435.48901 -283.149846 
L 444.677119 -285.678758 
L 453.75736 -288.20767 
L 462.4317 -290.736582 
L 470.465324 -293.265494 
L 477.693776 -295.794406 
L 484.022715 -298.323318 
L 489.421578 -300.85223 
L 493.912957 -303.381142 
L 523.087043 -303.381142 
L 523.087043 -303.381142 
L 527.578422 -300.85223 
L 532.977285 -298.323318 
L 539.306224 -295.794406 
L 546.534676 -293.265494 
L 554.5683 -290.736582 
L 563.24264 -288.20767 
L 572.322881 -285.678758 
L 581.51099 -283.149846 
L 590.460718 -280.620934 
L 598.799867 -278.092022 
L 606.158081 -275.563111 
L 612.19739 -273.034199 
L 616.642032 -270.505287 
L 619.303861 -267.976375 
L 620.1 -265.447463 
L 619.060326 -262.918551 
L 616.323716 -260.389639 
L 612.123542 -257.860727 
L 606.764428 -255.331815 
L 600.593418 -252.802903 
L 593.969416 -250.273991 
L 587.234718 -247.745079 
L 580.691903 -245.216167 
L 574.588248 -242.687255 
L 569.108457 -240.158343 
L 564.375166 -237.629431 
L 560.455512 -235.100519 
L 557.371349 -232.571607 
L 555.110493 -230.042695 
L 553.636657 -227.513783 
L 552.896463 -224.984871 
L 552.822839 -222.455959 
L 553.335111 -219.927047 
L 554.336911 -217.398135 
L 555.713536 -214.869223 
L 557.330525 -212.340311 
L 559.034932 -209.8114 
L 560.660199 -207.282488 
L 562.034709 -204.753576 
L 562.993299 -202.224664 
L 563.390331 -199.695752 
L 563.112483 -197.16684 
L 562.089353 -194.637928 
L 560.300262 -192.109016 
L 557.776179 -189.580104 
L 554.596443 -187.051192 
L 550.880737 -184.52228 
L 546.777422 -181.993368 
L 542.449804 -179.464456 
L 538.062064 -176.935544 
L 533.766504 -174.406632 
L 529.693374 -171.87772 
L 525.944114 -169.348808 
L 522.58823 -166.819896 
L 519.663594 -164.290984 
L 517.17953 -161.762072 
L 515.121835 -159.23316 
L 513.458838 -156.704248 
L 512.147642 -154.175336 
L 511.139899 -151.646424 
L 510.386659 -149.117512 
L 509.842076 -146.5886 
L 509.465926 -144.059689 
L 509.225042 -141.530777 
L 509.093832 -139.001865 
L 509.054096 -136.472953 
L 509.094326 -133.944041 
L 509.208645 -131.415129 
L 509.395497 -128.886217 
L 509.656177 -126.357305 
L 509.993246 -123.828393 
L 510.408909 -121.299481 
L 510.903417 -118.770569 
L 511.473599 -116.241657 
L 512.11165 -113.712745 
L 512.8043 -111.183833 
L 513.532526 -108.654921 
L 514.271884 -106.126009 
L 514.993516 -103.597097 
L 515.665813 -101.068185 
L 516.256591 -98.539273 
L 516.735588 -96.010361 
L 517.077012 -93.481449 
L 517.26183 -90.952537 
L 517.279522 -88.423625 
L 517.129073 -85.894713 
L 516.819066 -83.365801 
L 516.366873 -80.836889 
L 515.797042 -78.307978 
L 515.139093 -75.779066 
L 514.424992 -73.250154 
L 513.686614 -70.721242 
L 512.953457 -68.19233 
L 512.250833 -65.663418 
L 511.598671 -63.134506 
L 511.010962 -60.605594 
L 510.495823 -58.076682 
L 510.056042 -55.54777 
L 509.689974 -53.018858 
z
" style="stroke: #3f3f3f; stroke-width: 1.25"/>
    </defs>
    <g clip-path="url(#p194db7d342)">
     <use xlink:href="#m4a0b2610b8" x="0" y="360" style="fill: #e1812c; stroke: #3f3f3f; stroke-width: 1.25"/>
    </g>
   </g>
   <g id="matplotlib.axis_1">
    <g id="xtick_1">
     <g id="line2d_1">
      <defs>
       <path id="m6a90f097b4" d="M 0 0 
L 0 3.5 
" style="stroke: #000000; stroke-width: 0.8"/>
      </defs>
      <g>
       <use xlink:href="#m6a90f097b4" x="229.5" y="320.4" style="stroke: #000000; stroke-width: 0.8"/>
      </g>
     </g>
     <g id="text_1">
      <!-- other -->
      <g transform="translate(216.179688 334.998438) scale(0.1 -0.1)">
       <defs>
        <path id="DejaVuSans-6f" d="M 1959 3097 
Q 1497 3097 1228 2736 
Q 959 2375 959 1747 
Q 959 1119 1226 758 
Q 1494 397 1959 397 
Q 2419 397 2687 759 
Q 2956 1122 2956 1747 
Q 2956 2369 2687 2733 
Q 2419 3097 1959 3097 
z
M 1959 3584 
Q 2709 3584 3137 3096 
Q 3566 2609 3566 1747 
Q 3566 888 3137 398 
Q 2709 -91 1959 -91 
Q 1206 -91 779 398 
Q 353 888 353 1747 
Q 353 2609 779 3096 
Q 1206 3584 1959 3584 
z
" transform="scale(0.015625)"/>
        <path id="DejaVuSans-74" d="M 1172 4494 
L 1172 3500 
L 2356 3500 
L 2356 3053 
L 1172 3053 
L 1172 1153 
Q 1172 725 1289 603 
Q 1406 481 1766 481 
L 2356 481 
L 2356 0 
L 1766 0 
Q 1100 0 847 248 
Q 594 497 594 1153 
L 594 3053 
L 172 3053 
L 172 3500 
L 594 3500 
L 594 4494 
L 1172 4494 
z
" transform="scale(0.015625)"/>
        <path id="DejaVuSans-68" d="M 3513 2113 
L 3513 0 
L 2938 0 
L 2938 2094 
Q 2938 2591 2744 2837 
Q 2550 3084 2163 3084 
Q 1697 3084 1428 2787 
Q 1159 2491 1159 1978 
L 1159 0 
L 581 0 
L 581 4863 
L 1159 4863 
L 1159 2956 
Q 1366 3272 1645 3428 
Q 1925 3584 2291 3584 
Q 2894 3584 3203 3211 
Q 3513 2838 3513 2113 
z
" transform="scale(0.015625)"/>
        <path id="DejaVuSans-65" d="M 3597 1894 
L 3597 1613 
L 953 1613 
Q 991 1019 1311 708 
Q 1631 397 2203 397 
Q 2534 397 2845 478 
Q 3156 559 3463 722 
L 3463 178 
Q 3153 47 2828 -22 
Q 2503 -91 2169 -91 
Q 1331 -91 842 396 
Q 353 884 353 1716 
Q 353 2575 817 3079 
Q 1281 3584 2069 3584 
Q 2775 3584 3186 3129 
Q 3597 2675 3597 1894 
z
M 3022 2063 
Q 3016 2534 2758 2815 
Q 2500 3097 2075 3097 
Q 1594 3097 1305 2825 
Q 1016 2553 972 2059 
L 3022 2063 
z
" transform="scale(0.015625)"/>
        <path id="DejaVuSans-72" d="M 2631 2963 
Q 2534 3019 2420 3045 
Q 2306 3072 2169 3072 
Q 1681 3072 1420 2755 
Q 1159 2438 1159 1844 
L 1159 0 
L 581 0 
L 581 3500 
L 1159 3500 
L 1159 2956 
Q 1341 3275 1631 3429 
Q 1922 3584 2338 3584 
Q 2397 3584 2469 3576 
Q 2541 3569 2628 3553 
L 2631 2963 
z
" transform="scale(0.015625)"/>
       </defs>
       <use xlink:href="#DejaVuSans-6f"/>
       <use xlink:href="#DejaVuSans-74" transform="translate(61.181641 0)"/>
       <use xlink:href="#DejaVuSans-68" transform="translate(100.390625 0)"/>
       <use xlink:href="#DejaVuSans-65" transform="translate(163.769531 0)"/>
       <use xlink:href="#DejaVuSans-72" transform="translate(225.292969 0)"/>
      </g>
     </g>
    </g>
    <g id="xtick_2">
     <g id="line2d_2">
      <g>
       <use xlink:href="#m6a90f097b4" x="508.5" y="320.4" style="stroke: #000000; stroke-width: 0.8"/>
      </g>
     </g>
     <g id="text_2">
      <!-- Specific -->
      <g transform="translate(489.038281 334.998438) scale(0.1 -0.1)">
       <defs>
        <path id="DejaVuSans-53" d="M 3425 4513 
L 3425 3897 
Q 3066 4069 2747 4153 
Q 2428 4238 2131 4238 
Q 1616 4238 1336 4038 
Q 1056 3838 1056 3469 
Q 1056 3159 1242 3001 
Q 1428 2844 1947 2747 
L 2328 2669 
Q 3034 2534 3370 2195 
Q 3706 1856 3706 1288 
Q 3706 609 3251 259 
Q 2797 -91 1919 -91 
Q 1588 -91 1214 -16 
Q 841 59 441 206 
L 441 856 
Q 825 641 1194 531 
Q 1563 422 1919 422 
Q 2459 422 2753 634 
Q 3047 847 3047 1241 
Q 3047 1584 2836 1778 
Q 2625 1972 2144 2069 
L 1759 2144 
Q 1053 2284 737 2584 
Q 422 2884 422 3419 
Q 422 4038 858 4394 
Q 1294 4750 2059 4750 
Q 2388 4750 2728 4690 
Q 3069 4631 3425 4513 
z
" transform="scale(0.015625)"/>
        <path id="DejaVuSans-70" d="M 1159 525 
L 1159 -1331 
L 581 -1331 
L 581 3500 
L 1159 3500 
L 1159 2969 
Q 1341 3281 1617 3432 
Q 1894 3584 2278 3584 
Q 2916 3584 3314 3078 
Q 3713 2572 3713 1747 
Q 3713 922 3314 415 
Q 2916 -91 2278 -91 
Q 1894 -91 1617 61 
Q 1341 213 1159 525 
z
M 3116 1747 
Q 3116 2381 2855 2742 
Q 2594 3103 2138 3103 
Q 1681 3103 1420 2742 
Q 1159 2381 1159 1747 
Q 1159 1113 1420 752 
Q 1681 391 2138 391 
Q 2594 391 2855 752 
Q 3116 1113 3116 1747 
z
" transform="scale(0.015625)"/>
        <path id="DejaVuSans-63" d="M 3122 3366 
L 3122 2828 
Q 2878 2963 2633 3030 
Q 2388 3097 2138 3097 
Q 1578 3097 1268 2742 
Q 959 2388 959 1747 
Q 959 1106 1268 751 
Q 1578 397 2138 397 
Q 2388 397 2633 464 
Q 2878 531 3122 666 
L 3122 134 
Q 2881 22 2623 -34 
Q 2366 -91 2075 -91 
Q 1284 -91 818 406 
Q 353 903 353 1747 
Q 353 2603 823 3093 
Q 1294 3584 2113 3584 
Q 2378 3584 2631 3529 
Q 2884 3475 3122 3366 
z
" transform="scale(0.015625)"/>
        <path id="DejaVuSans-69" d="M 603 3500 
L 1178 3500 
L 1178 0 
L 603 0 
L 603 3500 
z
M 603 4863 
L 1178 4863 
L 1178 4134 
L 603 4134 
L 603 4863 
z
" transform="scale(0.015625)"/>
        <path id="DejaVuSans-66" d="M 2375 4863 
L 2375 4384 
L 1825 4384 
Q 1516 4384 1395 4259 
Q 1275 4134 1275 3809 
L 1275 3500 
L 2222 3500 
L 2222 3053 
L 1275 3053 
L 1275 0 
L 697 0 
L 697 3053 
L 147 3053 
L 147 3500 
L 697 3500 
L 697 3744 
Q 697 4328 969 4595 
Q 1241 4863 1831 4863 
L 2375 4863 
z
" transform="scale(0.015625)"/>
       </defs>
       <use xlink:href="#DejaVuSans-53"/>
       <use xlink:href="#DejaVuSans-70" transform="translate(63.476562 0)"/>
       <use xlink:href="#DejaVuSans-65" transform="translate(126.953125 0)"/>
       <use xlink:href="#DejaVuSans-63" transform="translate(188.476562 0)"/>
       <use xlink:href="#DejaVuSans-69" transform="translate(243.457031 0)"/>
       <use xlink:href="#DejaVuSans-66" transform="translate(271.240234 0)"/>
       <use xlink:href="#DejaVuSans-69" transform="translate(306.445312 0)"/>
       <use xlink:href="#DejaVuSans-63" transform="translate(334.228516 0)"/>
      </g>
     </g>
    </g>
    <g id="text_3">
     <!-- Connectivity category -->
     <g transform="translate(313.98125 348.676562) scale(0.1 -0.1)">
      <defs>
       <path id="DejaVuSans-43" d="M 4122 4306 
L 4122 3641 
Q 3803 3938 3442 4084 
Q 3081 4231 2675 4231 
Q 1875 4231 1450 3742 
Q 1025 3253 1025 2328 
Q 1025 1406 1450 917 
Q 1875 428 2675 428 
Q 3081 428 3442 575 
Q 3803 722 4122 1019 
L 4122 359 
Q 3791 134 3420 21 
Q 3050 -91 2638 -91 
Q 1578 -91 968 557 
Q 359 1206 359 2328 
Q 359 3453 968 4101 
Q 1578 4750 2638 4750 
Q 3056 4750 3426 4639 
Q 3797 4528 4122 4306 
z
" transform="scale(0.015625)"/>
       <path id="DejaVuSans-6e" d="M 3513 2113 
L 3513 0 
L 2938 0 
L 2938 2094 
Q 2938 2591 2744 2837 
Q 2550 3084 2163 3084 
Q 1697 3084 1428 2787 
Q 1159 2491 1159 1978 
L 1159 0 
L 581 0 
L 581 3500 
L 1159 3500 
L 1159 2956 
Q 1366 3272 1645 3428 
Q 1925 3584 2291 3584 
Q 2894 3584 3203 3211 
Q 3513 2838 3513 2113 
z
" transform="scale(0.015625)"/>
       <path id="DejaVuSans-76" d="M 191 3500 
L 800 3500 
L 1894 563 
L 2988 3500 
L 3597 3500 
L 2284 0 
L 1503 0 
L 191 3500 
z
" transform="scale(0.015625)"/>
       <path id="DejaVuSans-79" d="M 2059 -325 
Q 1816 -950 1584 -1140 
Q 1353 -1331 966 -1331 
L 506 -1331 
L 506 -850 
L 844 -850 
Q 1081 -850 1212 -737 
Q 1344 -625 1503 -206 
L 1606 56 
L 191 3500 
L 800 3500 
L 1894 763 
L 2988 3500 
L 3597 3500 
L 2059 -325 
z
" transform="scale(0.015625)"/>
       <path id="DejaVuSans-20" transform="scale(0.015625)"/>
       <path id="DejaVuSans-61" d="M 2194 1759 
Q 1497 1759 1228 1600 
Q 959 1441 959 1056 
Q 959 750 1161 570 
Q 1363 391 1709 391 
Q 2188 391 2477 730 
Q 2766 1069 2766 1631 
L 2766 1759 
L 2194 1759 
z
M 3341 1997 
L 3341 0 
L 2766 0 
L 2766 531 
Q 2569 213 2275 61 
Q 1981 -91 1556 -91 
Q 1019 -91 701 211 
Q 384 513 384 1019 
Q 384 1609 779 1909 
Q 1175 2209 1959 2209 
L 2766 2209 
L 2766 2266 
Q 2766 2663 2505 2880 
Q 2244 3097 1772 3097 
Q 1472 3097 1187 3025 
Q 903 2953 641 2809 
L 641 3341 
Q 956 3463 1253 3523 
Q 1550 3584 1831 3584 
Q 2591 3584 2966 3190 
Q 3341 2797 3341 1997 
z
" transform="scale(0.015625)"/>
       <path id="DejaVuSans-67" d="M 2906 1791 
Q 2906 2416 2648 2759 
Q 2391 3103 1925 3103 
Q 1463 3103 1205 2759 
Q 947 2416 947 1791 
Q 947 1169 1205 825 
Q 1463 481 1925 481 
Q 2391 481 2648 825 
Q 2906 1169 2906 1791 
z
M 3481 434 
Q 3481 -459 3084 -895 
Q 2688 -1331 1869 -1331 
Q 1566 -1331 1297 -1286 
Q 1028 -1241 775 -1147 
L 775 -588 
Q 1028 -725 1275 -790 
Q 1522 -856 1778 -856 
Q 2344 -856 2625 -561 
Q 2906 -266 2906 331 
L 2906 616 
Q 2728 306 2450 153 
Q 2172 0 1784 0 
Q 1141 0 747 490 
Q 353 981 353 1791 
Q 353 2603 747 3093 
Q 1141 3584 1784 3584 
Q 2172 3584 2450 3431 
Q 2728 3278 2906 2969 
L 2906 3500 
L 3481 3500 
L 3481 434 
z
" transform="scale(0.015625)"/>
      </defs>
      <use xlink:href="#DejaVuSans-43"/>
      <use xlink:href="#DejaVuSans-6f" transform="translate(69.824219 0)"/>
      <use xlink:href="#DejaVuSans-6e" transform="translate(131.005859 0)"/>
      <use xlink:href="#DejaVuSans-6e" transform="translate(194.384766 0)"/>
      <use xlink:href="#DejaVuSans-65" transform="translate(257.763672 0)"/>
      <use xlink:href="#DejaVuSans-63" transform="translate(319.287109 0)"/>
      <use xlink:href="#DejaVuSans-74" transform="translate(374.267578 0)"/>
      <use xlink:href="#DejaVuSans-69" transform="translate(413.476562 0)"/>
      <use xlink:href="#DejaVuSans-76" transform="translate(441.259766 0)"/>
      <use xlink:href="#DejaVuSans-69" transform="translate(500.439453 0)"/>
      <use xlink:href="#DejaVuSans-74" transform="translate(528.222656 0)"/>
      <use xlink:href="#DejaVuSans-79" transform="translate(567.431641 0)"/>
      <use xlink:href="#DejaVuSans-20" transform="translate(626.611328 0)"/>
      <use xlink:href="#DejaVuSans-63" transform="translate(658.398438 0)"/>
      <use xlink:href="#DejaVuSans-61" transform="translate(713.378906 0)"/>
      <use xlink:href="#DejaVuSans-74" transform="translate(774.658203 0)"/>
      <use xlink:href="#DejaVuSans-65" transform="translate(813.867188 0)"/>
      <use xlink:href="#DejaVuSans-67" transform="translate(875.390625 0)"/>
      <use xlink:href="#DejaVuSans-6f" transform="translate(938.867188 0)"/>
      <use xlink:href="#DejaVuSans-72" transform="translate(1000.048828 0)"/>
      <use xlink:href="#DejaVuSans-79" transform="translate(1041.162109 0)"/>
     </g>
    </g>
   </g>
   <g id="matplotlib.axis_2">
    <g id="ytick_1">
     <g id="line2d_3">
      <defs>
       <path id="me9626f8416" d="M 0 0 
L -3.5 0 
" style="stroke: #000000; stroke-width: 0.8"/>
      </defs>
      <g>
       <use xlink:href="#me9626f8416" x="90" y="306.08672" style="stroke: #000000; stroke-width: 0.8"/>
      </g>
     </g>
     <g id="text_4">
      <!-- 3 -->
      <g transform="translate(76.6375 309.885939) scale(0.1 -0.1)">
       <defs>
        <path id="DejaVuSans-33" d="M 2597 2516 
Q 3050 2419 3304 2112 
Q 3559 1806 3559 1356 
Q 3559 666 3084 287 
Q 2609 -91 1734 -91 
Q 1441 -91 1130 -33 
Q 819 25 488 141 
L 488 750 
Q 750 597 1062 519 
Q 1375 441 1716 441 
Q 2309 441 2620 675 
Q 2931 909 2931 1356 
Q 2931 1769 2642 2001 
Q 2353 2234 1838 2234 
L 1294 2234 
L 1294 2753 
L 1863 2753 
Q 2328 2753 2575 2939 
Q 2822 3125 2822 3475 
Q 2822 3834 2567 4026 
Q 2313 4219 1838 4219 
Q 1578 4219 1281 4162 
Q 984 4106 628 3988 
L 628 4550 
Q 988 4650 1302 4700 
Q 1616 4750 1894 4750 
Q 2613 4750 3031 4423 
Q 3450 4097 3450 3541 
Q 3450 3153 3228 2886 
Q 3006 2619 2597 2516 
z
" transform="scale(0.015625)"/>
       </defs>
       <use xlink:href="#DejaVuSans-33"/>
      </g>
     </g>
    </g>
    <g id="ytick_2">
     <g id="line2d_4">
      <g>
       <use xlink:href="#me9626f8416" x="90" y="270.576229" style="stroke: #000000; stroke-width: 0.8"/>
      </g>
     </g>
     <g id="text_5">
      <!-- 4 -->
      <g transform="translate(76.6375 274.375447) scale(0.1 -0.1)">
       <defs>
        <path id="DejaVuSans-34" d="M 2419 4116 
L 825 1625 
L 2419 1625 
L 2419 4116 
z
M 2253 4666 
L 3047 4666 
L 3047 1625 
L 3713 1625 
L 3713 1100 
L 3047 1100 
L 3047 0 
L 2419 0 
L 2419 1100 
L 313 1100 
L 313 1709 
L 2253 4666 
z
" transform="scale(0.015625)"/>
       </defs>
       <use xlink:href="#DejaVuSans-34"/>
      </g>
     </g>
    </g>
    <g id="ytick_3">
     <g id="line2d_5">
      <g>
       <use xlink:href="#me9626f8416" x="90" y="235.065737" style="stroke: #000000; stroke-width: 0.8"/>
      </g>
     </g>
     <g id="text_6">
      <!-- 5 -->
      <g transform="translate(76.6375 238.864956) scale(0.1 -0.1)">
       <defs>
        <path id="DejaVuSans-35" d="M 691 4666 
L 3169 4666 
L 3169 4134 
L 1269 4134 
L 1269 2991 
Q 1406 3038 1543 3061 
Q 1681 3084 1819 3084 
Q 2600 3084 3056 2656 
Q 3513 2228 3513 1497 
Q 3513 744 3044 326 
Q 2575 -91 1722 -91 
Q 1428 -91 1123 -41 
Q 819 9 494 109 
L 494 744 
Q 775 591 1075 516 
Q 1375 441 1709 441 
Q 2250 441 2565 725 
Q 2881 1009 2881 1497 
Q 2881 1984 2565 2268 
Q 2250 2553 1709 2553 
Q 1456 2553 1204 2497 
Q 953 2441 691 2322 
L 691 4666 
z
" transform="scale(0.015625)"/>
       </defs>
       <use xlink:href="#DejaVuSans-35"/>
      </g>
     </g>
    </g>
    <g id="ytick_4">
     <g id="line2d_6">
      <g>
       <use xlink:href="#me9626f8416" x="90" y="199.555246" style="stroke: #000000; stroke-width: 0.8"/>
      </g>
     </g>
     <g id="text_7">
      <!-- 6 -->
      <g transform="translate(76.6375 203.354464) scale(0.1 -0.1)">
       <defs>
        <path id="DejaVuSans-36" d="M 2113 2584 
Q 1688 2584 1439 2293 
Q 1191 2003 1191 1497 
Q 1191 994 1439 701 
Q 1688 409 2113 409 
Q 2538 409 2786 701 
Q 3034 994 3034 1497 
Q 3034 2003 2786 2293 
Q 2538 2584 2113 2584 
z
M 3366 4563 
L 3366 3988 
Q 3128 4100 2886 4159 
Q 2644 4219 2406 4219 
Q 1781 4219 1451 3797 
Q 1122 3375 1075 2522 
Q 1259 2794 1537 2939 
Q 1816 3084 2150 3084 
Q 2853 3084 3261 2657 
Q 3669 2231 3669 1497 
Q 3669 778 3244 343 
Q 2819 -91 2113 -91 
Q 1303 -91 875 529 
Q 447 1150 447 2328 
Q 447 3434 972 4092 
Q 1497 4750 2381 4750 
Q 2619 4750 2861 4703 
Q 3103 4656 3366 4563 
z
" transform="scale(0.015625)"/>
       </defs>
       <use xlink:href="#DejaVuSans-36"/>
      </g>
     </g>
    </g>
    <g id="ytick_5">
     <g id="line2d_7">
      <g>
       <use xlink:href="#me9626f8416" x="90" y="164.044754" style="stroke: #000000; stroke-width: 0.8"/>
      </g>
     </g>
     <g id="text_8">
      <!-- 7 -->
      <g transform="translate(76.6375 167.843973) scale(0.1 -0.1)">
       <defs>
        <path id="DejaVuSans-37" d="M 525 4666 
L 3525 4666 
L 3525 4397 
L 1831 0 
L 1172 0 
L 2766 4134 
L 525 4134 
L 525 4666 
z
" transform="scale(0.015625)"/>
       </defs>
       <use xlink:href="#DejaVuSans-37"/>
      </g>
     </g>
    </g>
    <g id="ytick_6">
     <g id="line2d_8">
      <g>
       <use xlink:href="#me9626f8416" x="90" y="128.534263" style="stroke: #000000; stroke-width: 0.8"/>
      </g>
     </g>
     <g id="text_9">
      <!-- 8 -->
      <g transform="translate(76.6375 132.333482) scale(0.1 -0.1)">
       <defs>
        <path id="DejaVuSans-38" d="M 2034 2216 
Q 1584 2216 1326 1975 
Q 1069 1734 1069 1313 
Q 1069 891 1326 650 
Q 1584 409 2034 409 
Q 2484 409 2743 651 
Q 3003 894 3003 1313 
Q 3003 1734 2745 1975 
Q 2488 2216 2034 2216 
z
M 1403 2484 
Q 997 2584 770 2862 
Q 544 3141 544 3541 
Q 544 4100 942 4425 
Q 1341 4750 2034 4750 
Q 2731 4750 3128 4425 
Q 3525 4100 3525 3541 
Q 3525 3141 3298 2862 
Q 3072 2584 2669 2484 
Q 3125 2378 3379 2068 
Q 3634 1759 3634 1313 
Q 3634 634 3220 271 
Q 2806 -91 2034 -91 
Q 1263 -91 848 271 
Q 434 634 434 1313 
Q 434 1759 690 2068 
Q 947 2378 1403 2484 
z
M 1172 3481 
Q 1172 3119 1398 2916 
Q 1625 2713 2034 2713 
Q 2441 2713 2670 2916 
Q 2900 3119 2900 3481 
Q 2900 3844 2670 4047 
Q 2441 4250 2034 4250 
Q 1625 4250 1398 4047 
Q 1172 3844 1172 3481 
z
" transform="scale(0.015625)"/>
       </defs>
       <use xlink:href="#DejaVuSans-38"/>
      </g>
     </g>
    </g>
    <g id="ytick_7">
     <g id="line2d_9">
      <g>
       <use xlink:href="#me9626f8416" x="90" y="93.023771" style="stroke: #000000; stroke-width: 0.8"/>
      </g>
     </g>
     <g id="text_10">
      <!-- 9 -->
      <g transform="translate(76.6375 96.82299) scale(0.1 -0.1)">
       <defs>
        <path id="DejaVuSans-39" d="M 703 97 
L 703 672 
Q 941 559 1184 500 
Q 1428 441 1663 441 
Q 2288 441 2617 861 
Q 2947 1281 2994 2138 
Q 2813 1869 2534 1725 
Q 2256 1581 1919 1581 
Q 1219 1581 811 2004 
Q 403 2428 403 3163 
Q 403 3881 828 4315 
Q 1253 4750 1959 4750 
Q 2769 4750 3195 4129 
Q 3622 3509 3622 2328 
Q 3622 1225 3098 567 
Q 2575 -91 1691 -91 
Q 1453 -91 1209 -44 
Q 966 3 703 97 
z
M 1959 2075 
Q 2384 2075 2632 2365 
Q 2881 2656 2881 3163 
Q 2881 3666 2632 3958 
Q 2384 4250 1959 4250 
Q 1534 4250 1286 3958 
Q 1038 3666 1038 3163 
Q 1038 2656 1286 2365 
Q 1534 2075 1959 2075 
z
" transform="scale(0.015625)"/>
       </defs>
       <use xlink:href="#DejaVuSans-39"/>
      </g>
     </g>
    </g>
    <g id="ytick_8">
     <g id="line2d_10">
      <g>
       <use xlink:href="#me9626f8416" x="90" y="57.51328" style="stroke: #000000; stroke-width: 0.8"/>
      </g>
     </g>
     <g id="text_11">
      <!-- 10 -->
      <g transform="translate(70.275 61.312499) scale(0.1 -0.1)">
       <defs>
        <path id="DejaVuSans-31" d="M 794 531 
L 1825 531 
L 1825 4091 
L 703 3866 
L 703 4441 
L 1819 4666 
L 2450 4666 
L 2450 531 
L 3481 531 
L 3481 0 
L 794 0 
L 794 531 
z
" transform="scale(0.015625)"/>
        <path id="DejaVuSans-30" d="M 2034 4250 
Q 1547 4250 1301 3770 
Q 1056 3291 1056 2328 
Q 1056 1369 1301 889 
Q 1547 409 2034 409 
Q 2525 409 2770 889 
Q 3016 1369 3016 2328 
Q 3016 3291 2770 3770 
Q 2525 4250 2034 4250 
z
M 2034 4750 
Q 2819 4750 3233 4129 
Q 3647 3509 3647 2328 
Q 3647 1150 3233 529 
Q 2819 -91 2034 -91 
Q 1250 -91 836 529 
Q 422 1150 422 2328 
Q 422 3509 836 4129 
Q 1250 4750 2034 4750 
z
" transform="scale(0.015625)"/>
       </defs>
       <use xlink:href="#DejaVuSans-31"/>
       <use xlink:href="#DejaVuSans-30" transform="translate(63.623047 0)"/>
      </g>
     </g>
    </g>
    <g id="text_12">
     <!-- cont_variable -->
     <g transform="translate(63.917188 215.409375) rotate(-90) scale(0.1 -0.1)">
      <defs>
       <path id="DejaVuSans-5f" d="M 3263 -1063 
L 3263 -1509 
L -63 -1509 
L -63 -1063 
L 3263 -1063 
z
" transform="scale(0.015625)"/>
       <path id="DejaVuSans-62" d="M 3116 1747 
Q 3116 2381 2855 2742 
Q 2594 3103 2138 3103 
Q 1681 3103 1420 2742 
Q 1159 2381 1159 1747 
Q 1159 1113 1420 752 
Q 1681 391 2138 391 
Q 2594 391 2855 752 
Q 3116 1113 3116 1747 
z
M 1159 2969 
Q 1341 3281 1617 3432 
Q 1894 3584 2278 3584 
Q 2916 3584 3314 3078 
Q 3713 2572 3713 1747 
Q 3713 922 3314 415 
Q 2916 -91 2278 -91 
Q 1894 -91 1617 61 
Q 1341 213 1159 525 
L 1159 0 
L 581 0 
L 581 4863 
L 1159 4863 
L 1159 2969 
z
" transform="scale(0.015625)"/>
       <path id="DejaVuSans-6c" d="M 603 4863 
L 1178 4863 
L 1178 0 
L 603 0 
L 603 4863 
z
" transform="scale(0.015625)"/>
      </defs>
      <use xlink:href="#DejaVuSans-63"/>
      <use xlink:href="#DejaVuSans-6f" transform="translate(54.980469 0)"/>
      <use xlink:href="#DejaVuSans-6e" transform="translate(116.162109 0)"/>
      <use xlink:href="#DejaVuSans-74" transform="translate(179.541016 0)"/>
      <use xlink:href="#DejaVuSans-5f" transform="translate(218.75 0)"/>
      <use xlink:href="#DejaVuSans-76" transform="translate(268.75 0)"/>
      <use xlink:href="#DejaVuSans-61" transform="translate(327.929688 0)"/>
      <use xlink:href="#DejaVuSans-72" transform="translate(389.208984 0)"/>
      <use xlink:href="#DejaVuSans-69" transform="translate(430.322266 0)"/>
      <use xlink:href="#DejaVuSans-61" transform="translate(458.105469 0)"/>
      <use xlink:href="#DejaVuSans-62" transform="translate(519.384766 0)"/>
      <use xlink:href="#DejaVuSans-6c" transform="translate(582.861328 0)"/>
      <use xlink:href="#DejaVuSans-65" transform="translate(610.644531 0)"/>
     </g>
    </g>
   </g>
   <g id="patch_3">
    <path d="M 90 320.4 
L 90 43.2 
" style="fill: none; stroke: #000000; stroke-width: 0.8; stroke-linejoin: miter; stroke-linecap: square"/>
   </g>
   <g id="patch_4">
    <path d="M 648 320.4 
L 648 43.2 
" style="fill: none; stroke: #000000; stroke-width: 0.8; stroke-linejoin: miter; stroke-linecap: square"/>
   </g>
   <g id="patch_5">
    <path d="M 90 320.4 
L 648 320.4 
" style="fill: none; stroke: #000000; stroke-width: 0.8; stroke-linejoin: miter; stroke-linecap: square"/>
   </g>
   <g id="patch_6">
    <path d="M 90 43.2 
L 648 43.2 
" style="fill: none; stroke: #000000; stroke-width: 0.8; stroke-linejoin: miter; stroke-linecap: square"/>
   </g>
   <g id="PathCollection_1">
    <defs>
     <path id="m15e5b51901" d="M 0 2.5 
C 0.663008 2.5 1.29895 2.236584 1.767767 1.767767 
C 2.236584 1.29895 2.5 0.663008 2.5 0 
C 2.5 -0.663008 2.236584 -1.29895 1.767767 -1.767767 
C 1.29895 -2.236584 0.663008 -2.5 0 -2.5 
C -0.663008 -2.5 -1.29895 -2.236584 -1.767767 -1.767767 
C -2.236584 -1.29895 -2.5 -0.663008 -2.5 0 
C -2.5 0.663008 -2.236584 1.29895 -1.767767 1.767767 
C -1.29895 2.236584 -0.663008 2.5 0 2.5 
z
"/>
    </defs>
    <g clip-path="url(#p194db7d342)">
     <use xlink:href="#m15e5b51901" x="225.188938" y="128.534263" style="fill-opacity: 0.3"/>
     <use xlink:href="#m15e5b51901" x="233.738168" y="128.534263" style="fill-opacity: 0.3"/>
     <use xlink:href="#m15e5b51901" x="253.053328" y="128.534263" style="fill-opacity: 0.3"/>
     <use xlink:href="#m15e5b51901" x="214.772026" y="128.534263" style="fill-opacity: 0.3"/>
     <use xlink:href="#m15e5b51901" x="209.743244" y="128.534263" style="fill-opacity: 0.3"/>
     <use xlink:href="#m15e5b51901" x="253.977368" y="128.534263" style="fill-opacity: 0.3"/>
     <use xlink:href="#m15e5b51901" x="234.437246" y="270.576229" style="fill-opacity: 0.3"/>
     <use xlink:href="#m15e5b51901" x="238.788773" y="270.576229" style="fill-opacity: 0.3"/>
     <use xlink:href="#m15e5b51901" x="255.66718" y="270.576229" style="fill-opacity: 0.3"/>
     <use xlink:href="#m15e5b51901" x="242.148756" y="270.576229" style="fill-opacity: 0.3"/>
     <use xlink:href="#m15e5b51901" x="255.915111" y="270.576229" style="fill-opacity: 0.3"/>
     <use xlink:href="#m15e5b51901" x="229.946488" y="270.576229" style="fill-opacity: 0.3"/>
     <use xlink:href="#m15e5b51901" x="254.863611" y="270.576229" style="fill-opacity: 0.3"/>
     <use xlink:href="#m15e5b51901" x="247.965602" y="270.576229" style="fill-opacity: 0.3"/>
     <use xlink:href="#m15e5b51901" x="209.090652" y="128.534263" style="fill-opacity: 0.3"/>
     <use xlink:href="#m15e5b51901" x="236.468775" y="128.534263" style="fill-opacity: 0.3"/>
     <use xlink:href="#m15e5b51901" x="234.175092" y="128.534263" style="fill-opacity: 0.3"/>
     <use xlink:href="#m15e5b51901" x="211.887659" y="128.534263" style="fill-opacity: 0.3"/>
     <use xlink:href="#m15e5b51901" x="237.445982" y="93.023771" style="fill-opacity: 0.3"/>
     <use xlink:href="#m15e5b51901" x="231.125633" y="93.023771" style="fill-opacity: 0.3"/>
     <use xlink:href="#m15e5b51901" x="229.372848" y="93.023771" style="fill-opacity: 0.3"/>
     <use xlink:href="#m15e5b51901" x="219.730882" y="93.023771" style="fill-opacity: 0.3"/>
     <use xlink:href="#m15e5b51901" x="243.90027" y="93.023771" style="fill-opacity: 0.3"/>
     <use xlink:href="#m15e5b51901" x="236.089074" y="93.023771" style="fill-opacity: 0.3"/>
     <use xlink:href="#m15e5b51901" x="255.291933" y="93.023771" style="fill-opacity: 0.3"/>
     <use xlink:href="#m15e5b51901" x="205.138561" y="93.023771" style="fill-opacity: 0.3"/>
     <use xlink:href="#m15e5b51901" x="206.985639" y="93.023771" style="fill-opacity: 0.3"/>
     <use xlink:href="#m15e5b51901" x="236.906207" y="93.023771" style="fill-opacity: 0.3"/>
     <use xlink:href="#m15e5b51901" x="231.716739" y="93.023771" style="fill-opacity: 0.3"/>
     <use xlink:href="#m15e5b51901" x="213.972222" y="93.023771" style="fill-opacity: 0.3"/>
     <use xlink:href="#m15e5b51901" x="203.632009" y="93.023771" style="fill-opacity: 0.3"/>
     <use xlink:href="#m15e5b51901" x="208.975653" y="93.023771" style="fill-opacity: 0.3"/>
     <use xlink:href="#m15e5b51901" x="222.146969" y="93.023771" style="fill-opacity: 0.3"/>
     <use xlink:href="#m15e5b51901" x="249.613661" y="93.023771" style="fill-opacity: 0.3"/>
     <use xlink:href="#m15e5b51901" x="229.664763" y="93.023771" style="fill-opacity: 0.3"/>
     <use xlink:href="#m15e5b51901" x="232.178519" y="93.023771" style="fill-opacity: 0.3"/>
     <use xlink:href="#m15e5b51901" x="227.708457" y="93.023771" style="fill-opacity: 0.3"/>
     <use xlink:href="#m15e5b51901" x="218.824592" y="93.023771" style="fill-opacity: 0.3"/>
     <use xlink:href="#m15e5b51901" x="232.08528" y="93.023771" style="fill-opacity: 0.3"/>
     <use xlink:href="#m15e5b51901" x="241.201119" y="93.023771" style="fill-opacity: 0.3"/>
     <use xlink:href="#m15e5b51901" x="250.9563" y="93.023771" style="fill-opacity: 0.3"/>
     <use xlink:href="#m15e5b51901" x="214.306671" y="93.023771" style="fill-opacity: 0.3"/>
     <use xlink:href="#m15e5b51901" x="246.482052" y="93.023771" style="fill-opacity: 0.3"/>
     <use xlink:href="#m15e5b51901" x="224.9337" y="93.023771" style="fill-opacity: 0.3"/>
     <use xlink:href="#m15e5b51901" x="251.113603" y="93.023771" style="fill-opacity: 0.3"/>
     <use xlink:href="#m15e5b51901" x="210.17788" y="93.023771" style="fill-opacity: 0.3"/>
     <use xlink:href="#m15e5b51901" x="217.732883" y="93.023771" style="fill-opacity: 0.3"/>
     <use xlink:href="#m15e5b51901" x="213.487619" y="93.023771" style="fill-opacity: 0.3"/>
     <use xlink:href="#m15e5b51901" x="236.761309" y="93.023771" style="fill-opacity: 0.3"/>
     <use xlink:href="#m15e5b51901" x="211.038429" y="93.023771" style="fill-opacity: 0.3"/>
     <use xlink:href="#m15e5b51901" x="228.2628" y="93.023771" style="fill-opacity: 0.3"/>
     <use xlink:href="#m15e5b51901" x="204.91376" y="93.023771" style="fill-opacity: 0.3"/>
     <use xlink:href="#m15e5b51901" x="252.865452" y="93.023771" style="fill-opacity: 0.3"/>
     <use xlink:href="#m15e5b51901" x="212.184189" y="93.023771" style="fill-opacity: 0.3"/>
     <use xlink:href="#m15e5b51901" x="253.084484" y="93.023771" style="fill-opacity: 0.3"/>
     <use xlink:href="#m15e5b51901" x="249.992742" y="93.023771" style="fill-opacity: 0.3"/>
     <use xlink:href="#m15e5b51901" x="225.492012" y="93.023771" style="fill-opacity: 0.3"/>
     <use xlink:href="#m15e5b51901" x="211.662009" y="93.023771" style="fill-opacity: 0.3"/>
     <use xlink:href="#m15e5b51901" x="249.392237" y="93.023771" style="fill-opacity: 0.3"/>
     <use xlink:href="#m15e5b51901" x="209.732161" y="93.023771" style="fill-opacity: 0.3"/>
     <use xlink:href="#m15e5b51901" x="255.43692" y="93.023771" style="fill-opacity: 0.3"/>
     <use xlink:href="#m15e5b51901" x="241.380126" y="93.023771" style="fill-opacity: 0.3"/>
     <use xlink:href="#m15e5b51901" x="251.658806" y="93.023771" style="fill-opacity: 0.3"/>
     <use xlink:href="#m15e5b51901" x="232.686117" y="93.023771" style="fill-opacity: 0.3"/>
     <use xlink:href="#m15e5b51901" x="232.957573" y="93.023771" style="fill-opacity: 0.3"/>
     <use xlink:href="#m15e5b51901" x="246.426762" y="93.023771" style="fill-opacity: 0.3"/>
     <use xlink:href="#m15e5b51901" x="211.2947" y="93.023771" style="fill-opacity: 0.3"/>
     <use xlink:href="#m15e5b51901" x="217.544958" y="93.023771" style="fill-opacity: 0.3"/>
     <use xlink:href="#m15e5b51901" x="203.818994" y="93.023771" style="fill-opacity: 0.3"/>
     <use xlink:href="#m15e5b51901" x="217.445579" y="93.023771" style="fill-opacity: 0.3"/>
     <use xlink:href="#m15e5b51901" x="233.810634" y="93.023771" style="fill-opacity: 0.3"/>
     <use xlink:href="#m15e5b51901" x="212.673569" y="93.023771" style="fill-opacity: 0.3"/>
     <use xlink:href="#m15e5b51901" x="250.747111" y="93.023771" style="fill-opacity: 0.3"/>
     <use xlink:href="#m15e5b51901" x="224.193027" y="93.023771" style="fill-opacity: 0.3"/>
     <use xlink:href="#m15e5b51901" x="224.515959" y="93.023771" style="fill-opacity: 0.3"/>
     <use xlink:href="#m15e5b51901" x="249.22433" y="93.023771" style="fill-opacity: 0.3"/>
     <use xlink:href="#m15e5b51901" x="233.608027" y="93.023771" style="fill-opacity: 0.3"/>
     <use xlink:href="#m15e5b51901" x="235.234506" y="93.023771" style="fill-opacity: 0.3"/>
     <use xlink:href="#m15e5b51901" x="220.990446" y="93.023771" style="fill-opacity: 0.3"/>
     <use xlink:href="#m15e5b51901" x="253.935051" y="93.023771" style="fill-opacity: 0.3"/>
     <use xlink:href="#m15e5b51901" x="207.911073" y="93.023771" style="fill-opacity: 0.3"/>
     <use xlink:href="#m15e5b51901" x="231.108424" y="93.023771" style="fill-opacity: 0.3"/>
     <use xlink:href="#m15e5b51901" x="255.89933" y="93.023771" style="fill-opacity: 0.3"/>
     <use xlink:href="#m15e5b51901" x="218.997216" y="93.023771" style="fill-opacity: 0.3"/>
     <use xlink:href="#m15e5b51901" x="208.049557" y="93.023771" style="fill-opacity: 0.3"/>
     <use xlink:href="#m15e5b51901" x="239.473623" y="93.023771" style="fill-opacity: 0.3"/>
     <use xlink:href="#m15e5b51901" x="235.186408" y="93.023771" style="fill-opacity: 0.3"/>
     <use xlink:href="#m15e5b51901" x="205.992611" y="93.023771" style="fill-opacity: 0.3"/>
     <use xlink:href="#m15e5b51901" x="240.531178" y="164.044754" style="fill-opacity: 0.3"/>
     <use xlink:href="#m15e5b51901" x="249.738157" y="164.044754" style="fill-opacity: 0.3"/>
     <use xlink:href="#m15e5b51901" x="240.664125" y="164.044754" style="fill-opacity: 0.3"/>
     <use xlink:href="#m15e5b51901" x="214.571242" y="164.044754" style="fill-opacity: 0.3"/>
     <use xlink:href="#m15e5b51901" x="250.094615" y="164.044754" style="fill-opacity: 0.3"/>
     <use xlink:href="#m15e5b51901" x="214.282405" y="164.044754" style="fill-opacity: 0.3"/>
     <use xlink:href="#m15e5b51901" x="231.905252" y="164.044754" style="fill-opacity: 0.3"/>
     <use xlink:href="#m15e5b51901" x="227.616169" y="164.044754" style="fill-opacity: 0.3"/>
     <use xlink:href="#m15e5b51901" x="213.792585" y="164.044754" style="fill-opacity: 0.3"/>
     <use xlink:href="#m15e5b51901" x="253.120807" y="164.044754" style="fill-opacity: 0.3"/>
     <use xlink:href="#m15e5b51901" x="223.717797" y="164.044754" style="fill-opacity: 0.3"/>
     <use xlink:href="#m15e5b51901" x="204.917094" y="164.044754" style="fill-opacity: 0.3"/>
     <use xlink:href="#m15e5b51901" x="235.893728" y="164.044754" style="fill-opacity: 0.3"/>
     <use xlink:href="#m15e5b51901" x="232.518968" y="164.044754" style="fill-opacity: 0.3"/>
     <use xlink:href="#m15e5b51901" x="233.912114" y="164.044754" style="fill-opacity: 0.3"/>
     <use xlink:href="#m15e5b51901" x="210.713781" y="164.044754" style="fill-opacity: 0.3"/>
     <use xlink:href="#m15e5b51901" x="249.685062" y="164.044754" style="fill-opacity: 0.3"/>
     <use xlink:href="#m15e5b51901" x="242.664677" y="164.044754" style="fill-opacity: 0.3"/>
     <use xlink:href="#m15e5b51901" x="242.428431" y="164.044754" style="fill-opacity: 0.3"/>
     <use xlink:href="#m15e5b51901" x="211.063465" y="164.044754" style="fill-opacity: 0.3"/>
     <use xlink:href="#m15e5b51901" x="217.187164" y="164.044754" style="fill-opacity: 0.3"/>
     <use xlink:href="#m15e5b51901" x="250.87003" y="164.044754" style="fill-opacity: 0.3"/>
     <use xlink:href="#m15e5b51901" x="250.977786" y="164.044754" style="fill-opacity: 0.3"/>
     <use xlink:href="#m15e5b51901" x="218.188944" y="164.044754" style="fill-opacity: 0.3"/>
     <use xlink:href="#m15e5b51901" x="212.906006" y="164.044754" style="fill-opacity: 0.3"/>
     <use xlink:href="#m15e5b51901" x="217.053155" y="164.044754" style="fill-opacity: 0.3"/>
     <use xlink:href="#m15e5b51901" x="247.144617" y="164.044754" style="fill-opacity: 0.3"/>
     <use xlink:href="#m15e5b51901" x="241.58247" y="164.044754" style="fill-opacity: 0.3"/>
     <use xlink:href="#m15e5b51901" x="236.42828" y="164.044754" style="fill-opacity: 0.3"/>
     <use xlink:href="#m15e5b51901" x="249.619875" y="164.044754" style="fill-opacity: 0.3"/>
     <use xlink:href="#m15e5b51901" x="235.40639" y="164.044754" style="fill-opacity: 0.3"/>
     <use xlink:href="#m15e5b51901" x="205.702184" y="164.044754" style="fill-opacity: 0.3"/>
     <use xlink:href="#m15e5b51901" x="228.784836" y="164.044754" style="fill-opacity: 0.3"/>
     <use xlink:href="#m15e5b51901" x="221.225358" y="164.044754" style="fill-opacity: 0.3"/>
     <use xlink:href="#m15e5b51901" x="243.478841" y="164.044754" style="fill-opacity: 0.3"/>
     <use xlink:href="#m15e5b51901" x="255.848358" y="164.044754" style="fill-opacity: 0.3"/>
     <use xlink:href="#m15e5b51901" x="218.762444" y="164.044754" style="fill-opacity: 0.3"/>
    </g>
   </g>
   <g id="PathCollection_2">
    <g clip-path="url(#p194db7d342)">
     <use xlink:href="#m15e5b51901" x="515.688726" y="128.534263" style="fill-opacity: 0.3"/>
     <use xlink:href="#m15e5b51901" x="526.410941" y="128.534263" style="fill-opacity: 0.3"/>
     <use xlink:href="#m15e5b51901" x="490.033644" y="128.534263" style="fill-opacity: 0.3"/>
     <use xlink:href="#m15e5b51901" x="489.225292" y="128.534263" style="fill-opacity: 0.3"/>
     <use xlink:href="#m15e5b51901" x="534.607879" y="128.534263" style="fill-opacity: 0.3"/>
     <use xlink:href="#m15e5b51901" x="531.353279" y="128.534263" style="fill-opacity: 0.3"/>
     <use xlink:href="#m15e5b51901" x="515.975091" y="128.534263" style="fill-opacity: 0.3"/>
     <use xlink:href="#m15e5b51901" x="517.506755" y="128.534263" style="fill-opacity: 0.3"/>
     <use xlink:href="#m15e5b51901" x="494.778863" y="128.534263" style="fill-opacity: 0.3"/>
     <use xlink:href="#m15e5b51901" x="521.25333" y="128.534263" style="fill-opacity: 0.3"/>
     <use xlink:href="#m15e5b51901" x="501.234105" y="270.576229" style="fill-opacity: 0.3"/>
     <use xlink:href="#m15e5b51901" x="510.221782" y="270.576229" style="fill-opacity: 0.3"/>
     <use xlink:href="#m15e5b51901" x="530.681367" y="270.576229" style="fill-opacity: 0.3"/>
     <use xlink:href="#m15e5b51901" x="486.200706" y="270.576229" style="fill-opacity: 0.3"/>
     <use xlink:href="#m15e5b51901" x="489.871335" y="128.534263" style="fill-opacity: 0.3"/>
     <use xlink:href="#m15e5b51901" x="497.192204" y="93.023771" style="fill-opacity: 0.3"/>
     <use xlink:href="#m15e5b51901" x="497.647247" y="93.023771" style="fill-opacity: 0.3"/>
     <use xlink:href="#m15e5b51901" x="523.376616" y="93.023771" style="fill-opacity: 0.3"/>
     <use xlink:href="#m15e5b51901" x="532.617721" y="93.023771" style="fill-opacity: 0.3"/>
     <use xlink:href="#m15e5b51901" x="495.358098" y="93.023771" style="fill-opacity: 0.3"/>
     <use xlink:href="#m15e5b51901" x="505.177137" y="93.023771" style="fill-opacity: 0.3"/>
     <use xlink:href="#m15e5b51901" x="519.286119" y="93.023771" style="fill-opacity: 0.3"/>
     <use xlink:href="#m15e5b51901" x="524.043298" y="93.023771" style="fill-opacity: 0.3"/>
     <use xlink:href="#m15e5b51901" x="513.841757" y="93.023771" style="fill-opacity: 0.3"/>
     <use xlink:href="#m15e5b51901" x="535.662565" y="93.023771" style="fill-opacity: 0.3"/>
     <use xlink:href="#m15e5b51901" x="487.139893" y="93.023771" style="fill-opacity: 0.3"/>
     <use xlink:href="#m15e5b51901" x="483.428441" y="93.023771" style="fill-opacity: 0.3"/>
     <use xlink:href="#m15e5b51901" x="524.95873" y="93.023771" style="fill-opacity: 0.3"/>
     <use xlink:href="#m15e5b51901" x="482.271814" y="93.023771" style="fill-opacity: 0.3"/>
     <use xlink:href="#m15e5b51901" x="536.387521" y="93.023771" style="fill-opacity: 0.3"/>
     <use xlink:href="#m15e5b51901" x="503.911617" y="93.023771" style="fill-opacity: 0.3"/>
     <use xlink:href="#m15e5b51901" x="522.835853" y="93.023771" style="fill-opacity: 0.3"/>
     <use xlink:href="#m15e5b51901" x="511.799908" y="93.023771" style="fill-opacity: 0.3"/>
     <use xlink:href="#m15e5b51901" x="511.787956" y="93.023771" style="fill-opacity: 0.3"/>
     <use xlink:href="#m15e5b51901" x="498.778373" y="93.023771" style="fill-opacity: 0.3"/>
     <use xlink:href="#m15e5b51901" x="505.479411" y="93.023771" style="fill-opacity: 0.3"/>
     <use xlink:href="#m15e5b51901" x="491.405559" y="93.023771" style="fill-opacity: 0.3"/>
     <use xlink:href="#m15e5b51901" x="497.115087" y="93.023771" style="fill-opacity: 0.3"/>
     <use xlink:href="#m15e5b51901" x="522.04553" y="93.023771" style="fill-opacity: 0.3"/>
     <use xlink:href="#m15e5b51901" x="492.816868" y="93.023771" style="fill-opacity: 0.3"/>
     <use xlink:href="#m15e5b51901" x="487.229409" y="93.023771" style="fill-opacity: 0.3"/>
     <use xlink:href="#m15e5b51901" x="525.874474" y="93.023771" style="fill-opacity: 0.3"/>
     <use xlink:href="#m15e5b51901" x="533.665204" y="93.023771" style="fill-opacity: 0.3"/>
     <use xlink:href="#m15e5b51901" x="508.705565" y="93.023771" style="fill-opacity: 0.3"/>
     <use xlink:href="#m15e5b51901" x="509.389093" y="93.023771" style="fill-opacity: 0.3"/>
     <use xlink:href="#m15e5b51901" x="514.037106" y="93.023771" style="fill-opacity: 0.3"/>
     <use xlink:href="#m15e5b51901" x="516.332472" y="93.023771" style="fill-opacity: 0.3"/>
     <use xlink:href="#m15e5b51901" x="514.998066" y="93.023771" style="fill-opacity: 0.3"/>
     <use xlink:href="#m15e5b51901" x="497.547193" y="93.023771" style="fill-opacity: 0.3"/>
     <use xlink:href="#m15e5b51901" x="511.044981" y="93.023771" style="fill-opacity: 0.3"/>
     <use xlink:href="#m15e5b51901" x="503.627432" y="93.023771" style="fill-opacity: 0.3"/>
     <use xlink:href="#m15e5b51901" x="483.773756" y="93.023771" style="fill-opacity: 0.3"/>
     <use xlink:href="#m15e5b51901" x="528.787478" y="93.023771" style="fill-opacity: 0.3"/>
     <use xlink:href="#m15e5b51901" x="508.659724" y="93.023771" style="fill-opacity: 0.3"/>
     <use xlink:href="#m15e5b51901" x="511.020615" y="93.023771" style="fill-opacity: 0.3"/>
     <use xlink:href="#m15e5b51901" x="505.646508" y="93.023771" style="fill-opacity: 0.3"/>
     <use xlink:href="#m15e5b51901" x="536.164256" y="93.023771" style="fill-opacity: 0.3"/>
     <use xlink:href="#m15e5b51901" x="521.647025" y="93.023771" style="fill-opacity: 0.3"/>
     <use xlink:href="#m15e5b51901" x="511.627466" y="93.023771" style="fill-opacity: 0.3"/>
     <use xlink:href="#m15e5b51901" x="508.83237" y="93.023771" style="fill-opacity: 0.3"/>
     <use xlink:href="#m15e5b51901" x="508.886575" y="93.023771" style="fill-opacity: 0.3"/>
     <use xlink:href="#m15e5b51901" x="493.774069" y="93.023771" style="fill-opacity: 0.3"/>
     <use xlink:href="#m15e5b51901" x="526.60407" y="93.023771" style="fill-opacity: 0.3"/>
     <use xlink:href="#m15e5b51901" x="532.460595" y="93.023771" style="fill-opacity: 0.3"/>
     <use xlink:href="#m15e5b51901" x="522.775083" y="164.044754" style="fill-opacity: 0.3"/>
     <use xlink:href="#m15e5b51901" x="486.335642" y="164.044754" style="fill-opacity: 0.3"/>
     <use xlink:href="#m15e5b51901" x="497.609768" y="164.044754" style="fill-opacity: 0.3"/>
     <use xlink:href="#m15e5b51901" x="520.790014" y="164.044754" style="fill-opacity: 0.3"/>
     <use xlink:href="#m15e5b51901" x="517.436098" y="164.044754" style="fill-opacity: 0.3"/>
     <use xlink:href="#m15e5b51901" x="488.783434" y="164.044754" style="fill-opacity: 0.3"/>
     <use xlink:href="#m15e5b51901" x="506.735899" y="164.044754" style="fill-opacity: 0.3"/>
     <use xlink:href="#m15e5b51901" x="481.827838" y="164.044754" style="fill-opacity: 0.3"/>
     <use xlink:href="#m15e5b51901" x="519.873687" y="164.044754" style="fill-opacity: 0.3"/>
     <use xlink:href="#m15e5b51901" x="510.690987" y="164.044754" style="fill-opacity: 0.3"/>
     <use xlink:href="#m15e5b51901" x="498.223021" y="164.044754" style="fill-opacity: 0.3"/>
     <use xlink:href="#m15e5b51901" x="494.380486" y="164.044754" style="fill-opacity: 0.3"/>
     <use xlink:href="#m15e5b51901" x="531.524858" y="164.044754" style="fill-opacity: 0.3"/>
     <use xlink:href="#m15e5b51901" x="481.259969" y="164.044754" style="fill-opacity: 0.3"/>
     <use xlink:href="#m15e5b51901" x="509.983721" y="164.044754" style="fill-opacity: 0.3"/>
     <use xlink:href="#m15e5b51901" x="526.970363" y="164.044754" style="fill-opacity: 0.3"/>
     <use xlink:href="#m15e5b51901" x="503.744062" y="164.044754" style="fill-opacity: 0.3"/>
     <use xlink:href="#m15e5b51901" x="515.29217" y="164.044754" style="fill-opacity: 0.3"/>
     <use xlink:href="#m15e5b51901" x="502.837894" y="164.044754" style="fill-opacity: 0.3"/>
     <use xlink:href="#m15e5b51901" x="481.152882" y="164.044754" style="fill-opacity: 0.3"/>
     <use xlink:href="#m15e5b51901" x="533.69118" y="164.044754" style="fill-opacity: 0.3"/>
     <use xlink:href="#m15e5b51901" x="534.013618" y="164.044754" style="fill-opacity: 0.3"/>
     <use xlink:href="#m15e5b51901" x="508.327054" y="164.044754" style="fill-opacity: 0.3"/>
    </g>
   </g>
  </g>
 </g>
 <defs>
  <clipPath id="p194db7d342">
   <rect x="90" y="43.2" width="558" height="277.2"/>
  </clipPath>
 </defs>
</svg>
