<?xml version="1.0" encoding="utf-8" standalone="no"?>
<!DOCTYPE svg PUBLIC "-//W3C//DTD SVG 1.1//EN"
  "http://www.w3.org/Graphics/SVG/1.1/DTD/svg11.dtd">
<svg xmlns:xlink="http://www.w3.org/1999/xlink" width="720pt" height="360pt" viewBox="0 0 720 360" xmlns="http://www.w3.org/2000/svg" version="1.1">
 <metadata>
  <rdf:RDF xmlns:dc="http://purl.org/dc/elements/1.1/" xmlns:cc="http://creativecommons.org/ns#" xmlns:rdf="http://www.w3.org/1999/02/22-rdf-syntax-ns#">
   <cc:Work>
    <dc:type rdf:resource="http://purl.org/dc/dcmitype/StillImage"/>
    <dc:date>2025-09-09T16:54:34.974140</dc:date>
    <dc:format>image/svg+xml</dc:format>
    <dc:creator>
     <cc:Agent>
      <dc:title>Matplotlib v3.10.3, https://matplotlib.org/</dc:title>
     </cc:Agent>
    </dc:creator>
   </cc:Work>
  </rdf:RDF>
 </metadata>
 <defs>
  <style type="text/css">*{stroke-linejoin: round; stroke-linecap: butt}</style>
 </defs>
 <g id="figure_1">
  <g id="patch_1">
   <path d="M 0 360 
L 720 360 
L 720 0 
L 0 0 
z
" style="fill: #ffffff"/>
  </g>
  <g id="axes_1">
   <g id="patch_2">
    <path d="M 90 320.4 
L 648 320.4 
L 648 43.2 
L 90 43.2 
z
" style="fill: #ffffff"/>
   </g>
   <g id="FillBetweenPolyCollection_1">
    <defs>
     <path id="mb0c8ccf836" d="M 151.641008 -49.634154 
L 139.958992 -49.634154 
L 138.932124 -49.699788 
L 137.779546 -49.765421 
L 136.497093 -49.831055 
L 135.082748 -49.896689 
L 133.537043 -49.962322 
L 131.863416 -50.027956 
L 130.068515 -50.09359 
L 128.162432 -50.159223 
L 126.158831 -50.224857 
L 124.074973 -50.29049 
L 121.931597 -50.356124 
L 119.752673 -50.421758 
L 117.565009 -50.487391 
L 115.397709 -50.553025 
L 113.281513 -50.618659 
L 111.248018 -50.684292 
L 109.328808 -50.749926 
L 107.554539 -50.815559 
L 105.95399 -50.881193 
L 104.55315 -50.946827 
L 103.374354 -51.01246 
L 102.435523 -51.078094 
L 101.749545 -51.143728 
L 101.32382 -51.209361 
L 101.16 -51.274995 
L 101.253933 -51.340629 
L 101.595819 -51.406262 
L 102.170567 -51.471896 
L 102.958344 -51.537529 
L 103.93528 -51.603163 
L 105.074306 -51.668797 
L 106.346071 -51.73443 
L 107.71991 -51.800064 
L 109.164799 -51.865698 
L 110.650274 -51.931331 
L 112.147257 -51.996965 
L 113.628756 -52.062598 
L 115.07043 -52.128232 
L 116.450982 -52.193866 
L 117.752376 -52.259499 
L 118.9599 -52.325133 
L 120.062058 -52.390767 
L 121.050335 -52.4564 
L 121.918857 -52.522034 
L 122.663966 -52.587668 
L 123.283773 -52.653301 
L 123.777689 -52.718935 
L 124.146007 -52.784568 
L 124.389533 -52.850202 
L 124.50931 -52.915836 
L 124.506452 -52.981469 
L 124.382089 -53.047103 
L 124.13743 -53.112737 
L 123.77394 -53.17837 
L 123.293608 -53.244004 
L 122.699287 -53.309637 
L 121.995086 -53.375271 
L 121.186766 -53.440905 
L 120.282119 -53.506538 
L 119.291292 -53.572172 
L 118.227022 -53.637806 
L 117.104767 -53.703439 
L 115.94269 -53.769073 
L 114.761512 -53.834707 
L 113.584204 -53.90034 
L 112.435539 -53.965974 
L 111.341509 -54.031607 
L 110.328634 -54.097241 
L 109.423192 -54.162875 
L 108.650399 -54.228508 
L 108.033586 -54.294142 
L 107.593407 -54.359776 
L 107.347116 -54.425409 
L 107.307953 -54.491043 
L 107.484661 -54.556676 
L 107.881176 -54.62231 
L 108.496474 -54.687944 
L 109.324613 -54.753577 
L 110.354947 -54.819211 
L 111.572504 -54.884845 
L 112.958513 -54.950478 
L 114.491051 -55.016112 
L 116.145774 -55.081746 
L 117.896704 -55.147379 
L 119.717036 -55.213013 
L 121.579926 -55.278646 
L 123.459235 -55.34428 
L 125.330196 -55.409914 
L 127.16999 -55.475547 
L 128.9582 -55.541181 
L 130.677163 -55.606815 
L 132.312176 -55.672448 
L 133.851603 -55.738082 
L 135.286855 -55.803715 
L 136.612285 -55.869349 
L 137.824984 -55.934983 
L 138.924531 -56.000616 
L 139.912677 -56.06625 
L 140.793012 -56.131884 
L 150.806988 -56.131884 
L 150.806988 -56.131884 
L 151.687323 -56.06625 
L 152.675469 -56.000616 
L 153.775016 -55.934983 
L 154.987715 -55.869349 
L 156.313145 -55.803715 
L 157.748397 -55.738082 
L 159.287824 -55.672448 
L 160.922837 -55.606815 
L 162.6418 -55.541181 
L 164.43001 -55.475547 
L 166.269804 -55.409914 
L 168.140765 -55.34428 
L 170.020074 -55.278646 
L 171.882964 -55.213013 
L 173.703296 -55.147379 
L 175.454226 -55.081746 
L 177.108949 -55.016112 
L 178.641487 -54.950478 
L 180.027496 -54.884845 
L 181.245053 -54.819211 
L 182.275387 -54.753577 
L 183.103526 -54.687944 
L 183.718824 -54.62231 
L 184.115339 -54.556676 
L 184.292047 -54.491043 
L 184.252884 -54.425409 
L 184.006593 -54.359776 
L 183.566414 -54.294142 
L 182.949601 -54.228508 
L 182.176808 -54.162875 
L 181.271366 -54.097241 
L 180.258491 -54.031607 
L 179.164461 -53.965974 
L 178.015796 -53.90034 
L 176.838488 -53.834707 
L 175.65731 -53.769073 
L 174.495233 -53.703439 
L 173.372978 -53.637806 
L 172.308708 -53.572172 
L 171.317881 -53.506538 
L 170.413234 -53.440905 
L 169.604914 -53.375271 
L 168.900713 -53.309637 
L 168.306392 -53.244004 
L 167.82606 -53.17837 
L 167.46257 -53.112737 
L 167.217911 -53.047103 
L 167.093548 -52.981469 
L 167.09069 -52.915836 
L 167.210467 -52.850202 
L 167.453993 -52.784568 
L 167.822311 -52.718935 
L 168.316227 -52.653301 
L 168.936034 -52.587668 
L 169.681143 -52.522034 
L 170.549665 -52.4564 
L 171.537942 -52.390767 
L 172.6401 -52.325133 
L 173.847624 -52.259499 
L 175.149018 -52.193866 
L 176.52957 -52.128232 
L 177.971244 -52.062598 
L 179.452743 -51.996965 
L 180.949726 -51.931331 
L 182.435201 -51.865698 
L 183.88009 -51.800064 
L 185.253929 -51.73443 
L 186.525694 -51.668797 
L 187.66472 -51.603163 
L 188.641656 -51.537529 
L 189.429433 -51.471896 
L 190.004181 -51.406262 
L 190.346067 -51.340629 
L 190.44 -51.274995 
L 190.27618 -51.209361 
L 189.850455 -51.143728 
L 189.164477 -51.078094 
L 188.225646 -51.01246 
L 187.04685 -50.946827 
L 185.64601 -50.881193 
L 184.045461 -50.815559 
L 182.271192 -50.749926 
L 180.351982 -50.684292 
L 178.318487 -50.618659 
L 176.202291 -50.553025 
L 174.034991 -50.487391 
L 171.847327 -50.421758 
L 169.668403 -50.356124 
L 167.525027 -50.29049 
L 165.441169 -50.224857 
L 163.437568 -50.159223 
L 161.531485 -50.09359 
L 159.736584 -50.027956 
L 158.062957 -49.962322 
L 156.517252 -49.896689 
L 155.102907 -49.831055 
L 153.820454 -49.765421 
L 152.667876 -49.699788 
L 151.641008 -49.634154 
z
" style="stroke: #3d3d3d; stroke-width: 1.25"/>
    </defs>
    <g clip-path="url(#p67530dc807)">
     <use xlink:href="#mb0c8ccf836" x="0" y="360" style="fill: #3274a1; stroke: #3d3d3d; stroke-width: 1.25"/>
    </g>
   </g>
   <g id="FillBetweenPolyCollection_2">
    <defs>
     <path id="m995549fa7d" d="M 257.707049 -44.68192 
L 257.092951 -44.68192 
L 256.991722 -44.797284 
L 256.868872 -44.912648 
L 256.724016 -45.028013 
L 256.558279 -45.143377 
L 256.374596 -45.258741 
L 256.177872 -45.374106 
L 255.974942 -45.48947 
L 255.774289 -45.604834 
L 255.585533 -45.720198 
L 255.418705 -45.835563 
L 255.283374 -45.950927 
L 255.187753 -46.066291 
L 255.137869 -46.181656 
L 255.136936 -46.29702 
L 255.185017 -46.412384 
L 255.279009 -46.527749 
L 255.412982 -46.643113 
L 255.578791 -46.758477 
L 255.766899 -46.873842 
L 255.967278 -46.989206 
L 256.170273 -47.10457 
L 256.367337 -47.219934 
L 256.551555 -47.335299 
L 256.717916 -47.450663 
L 256.863358 -47.566027 
L 256.98659 -47.681392 
L 257.087763 -47.796756 
L 257.168043 -47.91212 
L 257.229125 -48.027485 
L 257.272735 -48.142849 
L 257.300131 -48.258213 
L 257.311604 -48.373577 
L 257.30596 -48.488942 
L 257.279968 -48.604306 
L 257.227766 -48.71967 
L 257.140233 -48.835035 
L 257.004379 -48.950399 
L 256.802829 -49.065763 
L 256.513558 -49.181128 
L 256.110031 -49.296492 
L 255.561956 -49.411856 
L 254.836839 -49.527221 
L 253.902449 -49.642585 
L 252.730213 -49.757949 
L 251.299383 -49.873313 
L 249.601617 -49.988678 
L 247.645423 -50.104042 
L 245.459757 -50.219406 
L 243.096003 -50.334771 
L 240.627641 -50.450135 
L 238.147119 -50.565499 
L 235.75983 -50.680864 
L 233.575562 -50.796228 
L 231.698263 -50.911592 
L 230.215374 -51.026957 
L 229.188217 -51.142321 
L 228.644898 -51.257685 
L 228.576907 -51.373049 
L 228.940047 -51.488414 
L 229.659666 -51.603778 
L 230.639425 -51.719142 
L 231.772275 -51.834507 
L 232.95189 -51.949871 
L 234.082796 -52.065235 
L 235.087663 -52.1806 
L 235.910795 -52.295964 
L 236.517561 -52.411328 
L 236.89029 -52.526692 
L 237.02181 -52.642057 
L 236.908262 -52.757421 
L 236.542948 -52.872785 
L 235.912763 -52.98815 
L 234.998258 -53.103514 
L 233.777636 -53.218878 
L 232.234153 -53.334243 
L 230.365656 -53.449607 
L 228.19437 -53.564971 
L 225.774864 -53.680336 
L 223.198234 -53.7957 
L 220.591072 -53.911064 
L 218.108657 -54.026428 
L 215.922759 -54.141793 
L 214.205484 -54.257157 
L 213.111324 -54.372521 
L 212.76 -54.487886 
L 213.222678 -54.60325 
L 214.51358 -54.718614 
L 216.588228 -54.833979 
L 219.348439 -54.949343 
L 222.653206 -55.064707 
L 226.333702 -55.180071 
L 230.210175 -55.295436 
L 234.108412 -55.4108 
L 237.873747 -55.526164 
L 241.381193 -55.641529 
L 244.541011 -55.756893 
L 247.299804 -55.872257 
L 249.637794 -55.987622 
L 251.563362 -56.102986 
L 263.236638 -56.102986 
L 263.236638 -56.102986 
L 265.162206 -55.987622 
L 267.500196 -55.872257 
L 270.258989 -55.756893 
L 273.418807 -55.641529 
L 276.926253 -55.526164 
L 280.691588 -55.4108 
L 284.589825 -55.295436 
L 288.466298 -55.180071 
L 292.146794 -55.064707 
L 295.451561 -54.949343 
L 298.211772 -54.833979 
L 300.28642 -54.718614 
L 301.577322 -54.60325 
L 302.04 -54.487886 
L 301.688676 -54.372521 
L 300.594516 -54.257157 
L 298.877241 -54.141793 
L 296.691343 -54.026428 
L 294.208928 -53.911064 
L 291.601766 -53.7957 
L 289.025136 -53.680336 
L 286.60563 -53.564971 
L 284.434344 -53.449607 
L 282.565847 -53.334243 
L 281.022364 -53.218878 
L 279.801742 -53.103514 
L 278.887237 -52.98815 
L 278.257052 -52.872785 
L 277.891738 -52.757421 
L 277.77819 -52.642057 
L 277.90971 -52.526692 
L 278.282439 -52.411328 
L 278.889205 -52.295964 
L 279.712337 -52.1806 
L 280.717204 -52.065235 
L 281.84811 -51.949871 
L 283.027725 -51.834507 
L 284.160575 -51.719142 
L 285.140334 -51.603778 
L 285.859953 -51.488414 
L 286.223093 -51.373049 
L 286.155102 -51.257685 
L 285.611783 -51.142321 
L 284.584626 -51.026957 
L 283.101737 -50.911592 
L 281.224438 -50.796228 
L 279.04017 -50.680864 
L 276.652881 -50.565499 
L 274.172359 -50.450135 
L 271.703997 -50.334771 
L 269.340243 -50.219406 
L 267.154577 -50.104042 
L 265.198383 -49.988678 
L 263.500617 -49.873313 
L 262.069787 -49.757949 
L 260.897551 -49.642585 
L 259.963161 -49.527221 
L 259.238044 -49.411856 
L 258.689969 -49.296492 
L 258.286442 -49.181128 
L 257.997171 -49.065763 
L 257.795621 -48.950399 
L 257.659767 -48.835035 
L 257.572234 -48.71967 
L 257.520032 -48.604306 
L 257.49404 -48.488942 
L 257.488396 -48.373577 
L 257.499869 -48.258213 
L 257.527265 -48.142849 
L 257.570875 -48.027485 
L 257.631957 -47.91212 
L 257.712237 -47.796756 
L 257.81341 -47.681392 
L 257.936642 -47.566027 
L 258.082084 -47.450663 
L 258.248445 -47.335299 
L 258.432663 -47.219934 
L 258.629727 -47.10457 
L 258.832722 -46.989206 
L 259.033101 -46.873842 
L 259.221209 -46.758477 
L 259.387018 -46.643113 
L 259.520991 -46.527749 
L 259.614983 -46.412384 
L 259.663064 -46.29702 
L 259.662131 -46.181656 
L 259.612247 -46.066291 
L 259.516626 -45.950927 
L 259.381295 -45.835563 
L 259.214467 -45.720198 
L 259.025711 -45.604834 
L 258.825058 -45.48947 
L 258.622128 -45.374106 
L 258.425404 -45.258741 
L 258.241721 -45.143377 
L 258.075984 -45.028013 
L 257.931128 -44.912648 
L 257.808278 -44.797284 
L 257.707049 -44.68192 
z
" style="stroke: #3d3d3d; stroke-width: 1.25"/>
    </defs>
    <g clip-path="url(#p67530dc807)">
     <use xlink:href="#m995549fa7d" x="0" y="360" style="fill: #e1812c; stroke: #3d3d3d; stroke-width: 1.25"/>
    </g>
   </g>
   <g id="FillBetweenPolyCollection_3">
    <defs>
     <path id="mba74babc0c" d="M 369.442464 -44.189278 
L 368.557536 -44.189278 
L 368.439316 -44.314594 
L 368.300029 -44.439911 
L 368.139076 -44.565228 
L 367.95679 -44.690544 
L 367.754622 -44.815861 
L 367.535285 -44.941178 
L 367.302821 -45.066494 
L 367.062577 -45.191811 
L 366.821067 -45.317128 
L 366.585729 -45.442444 
L 366.364575 -45.567761 
L 366.16575 -45.693078 
L 365.997046 -45.818394 
L 365.865397 -45.943711 
L 365.776403 -46.069028 
L 365.733937 -46.194344 
L 365.739858 -46.319661 
L 365.793867 -46.444978 
L 365.893526 -46.570294 
L 366.034413 -46.695611 
L 366.210428 -46.820928 
L 366.414178 -46.946244 
L 366.637436 -47.071561 
L 366.871594 -47.196878 
L 367.108078 -47.322194 
L 367.338688 -47.447511 
L 367.555816 -47.572828 
L 367.752535 -47.698144 
L 367.922556 -47.823461 
L 368.060049 -47.948778 
L 368.15938 -48.074094 
L 368.214766 -48.199411 
L 368.219925 -48.324728 
L 368.167749 -48.450044 
L 368.050071 -48.575361 
L 367.85757 -48.700678 
L 367.579871 -48.825994 
L 367.205869 -48.951311 
L 366.724312 -49.076628 
L 366.124639 -49.201944 
L 365.398038 -49.327261 
L 364.538679 -49.452578 
L 363.545025 -49.577894 
L 362.421102 -49.703211 
L 361.17758 -49.828528 
L 359.832523 -49.953844 
L 358.411653 -50.079161 
L 356.948023 -50.204478 
L 355.481001 -50.329794 
L 354.054582 -50.455111 
L 352.715065 -50.580428 
L 351.508236 -50.705745 
L 350.476255 -50.831061 
L 349.654485 -50.956378 
L 349.068543 -51.081695 
L 348.731817 -51.207011 
L 348.643698 -51.332328 
L 348.788662 -51.457645 
L 349.136317 -51.582961 
L 349.64241 -51.708278 
L 350.250724 -51.833595 
L 350.895735 -51.958911 
L 351.505866 -52.084228 
L 352.007142 -52.209545 
L 352.327067 -52.334861 
L 352.398556 -52.460178 
L 352.163748 -52.585495 
L 351.577596 -52.710811 
L 350.611059 -52.836128 
L 349.253773 -52.961445 
L 347.516021 -53.086761 
L 345.429837 -53.212078 
L 343.049048 -53.337395 
L 340.4481 -53.462711 
L 337.719547 -53.588028 
L 334.970196 -53.713345 
L 332.315995 -53.838661 
L 329.875891 -53.963978 
L 327.765046 -54.089295 
L 326.087871 -54.214611 
L 324.931465 -54.339928 
L 324.36 -54.465245 
L 324.410587 -54.590561 
L 325.091019 -54.715878 
L 326.379599 -54.841195 
L 328.227087 -54.966511 
L 330.560558 -55.091828 
L 333.288799 -55.217145 
L 336.308718 -55.342461 
L 339.512164 -55.467778 
L 342.792565 -55.593095 
L 346.050836 -55.718411 
L 349.200132 -55.843728 
L 352.169202 -55.969045 
L 354.904213 -56.094361 
L 357.369126 -56.219678 
L 359.544799 -56.344995 
L 361.427102 -56.470311 
L 363.024359 -56.595628 
L 374.975641 -56.595628 
L 374.975641 -56.595628 
L 376.572898 -56.470311 
L 378.455201 -56.344995 
L 380.630874 -56.219678 
L 383.095787 -56.094361 
L 385.830798 -55.969045 
L 388.799868 -55.843728 
L 391.949164 -55.718411 
L 395.207435 -55.593095 
L 398.487836 -55.467778 
L 401.691282 -55.342461 
L 404.711201 -55.217145 
L 407.439442 -55.091828 
L 409.772913 -54.966511 
L 411.620401 -54.841195 
L 412.908981 -54.715878 
L 413.589413 -54.590561 
L 413.64 -54.465245 
L 413.068535 -54.339928 
L 411.912129 -54.214611 
L 410.234954 -54.089295 
L 408.124109 -53.963978 
L 405.684005 -53.838661 
L 403.029804 -53.713345 
L 400.280453 -53.588028 
L 397.5519 -53.462711 
L 394.950952 -53.337395 
L 392.570163 -53.212078 
L 390.483979 -53.086761 
L 388.746227 -52.961445 
L 387.388941 -52.836128 
L 386.422404 -52.710811 
L 385.836252 -52.585495 
L 385.601444 -52.460178 
L 385.672933 -52.334861 
L 385.992858 -52.209545 
L 386.494134 -52.084228 
L 387.104265 -51.958911 
L 387.749276 -51.833595 
L 388.35759 -51.708278 
L 388.863683 -51.582961 
L 389.211338 -51.457645 
L 389.356302 -51.332328 
L 389.268183 -51.207011 
L 388.931457 -51.081695 
L 388.345515 -50.956378 
L 387.523745 -50.831061 
L 386.491764 -50.705745 
L 385.284935 -50.580428 
L 383.945418 -50.455111 
L 382.518999 -50.329794 
L 381.051977 -50.204478 
L 379.588347 -50.079161 
L 378.167477 -49.953844 
L 376.82242 -49.828528 
L 375.578898 -49.703211 
L 374.454975 -49.577894 
L 373.461321 -49.452578 
L 372.601962 -49.327261 
L 371.875361 -49.201944 
L 371.275688 -49.076628 
L 370.794131 -48.951311 
L 370.420129 -48.825994 
L 370.14243 -48.700678 
L 369.949929 -48.575361 
L 369.832251 -48.450044 
L 369.780075 -48.324728 
L 369.785234 -48.199411 
L 369.84062 -48.074094 
L 369.939951 -47.948778 
L 370.077444 -47.823461 
L 370.247465 -47.698144 
L 370.444184 -47.572828 
L 370.661312 -47.447511 
L 370.891922 -47.322194 
L 371.128406 -47.196878 
L 371.362564 -47.071561 
L 371.585822 -46.946244 
L 371.789572 -46.820928 
L 371.965587 -46.695611 
L 372.106474 -46.570294 
L 372.206133 -46.444978 
L 372.260142 -46.319661 
L 372.266063 -46.194344 
L 372.223597 -46.069028 
L 372.134603 -45.943711 
L 372.002954 -45.818394 
L 371.83425 -45.693078 
L 371.635425 -45.567761 
L 371.414271 -45.442444 
L 371.178933 -45.317128 
L 370.937423 -45.191811 
L 370.697179 -45.066494 
L 370.464715 -44.941178 
L 370.245378 -44.815861 
L 370.04321 -44.690544 
L 369.860924 -44.565228 
L 369.699971 -44.439911 
L 369.560684 -44.314594 
L 369.442464 -44.189278 
z
" style="stroke: #3d3d3d; stroke-width: 1.25"/>
    </defs>
    <g clip-path="url(#p67530dc807)">
     <use xlink:href="#mba74babc0c" x="0" y="360" style="fill: #3a923a; stroke: #3d3d3d; stroke-width: 1.25"/>
    </g>
   </g>
   <g id="FillBetweenPolyCollection_4">
    <defs>
     <path id="m34751f9131" d="M 481.724438 -43.777853 
L 479.475562 -43.777853 
L 479.211312 -43.911482 
L 478.905027 -44.04511 
L 478.555391 -44.178738 
L 478.162486 -44.312366 
L 477.728073 -44.445995 
L 477.255825 -44.579623 
L 476.751478 -44.713251 
L 476.22288 -44.846879 
L 475.679916 -44.980508 
L 475.134292 -45.114136 
L 474.599184 -45.247764 
L 474.088746 -45.381393 
L 473.617515 -45.515021 
L 473.199731 -45.648649 
L 472.848629 -45.782277 
L 472.575732 -45.915906 
L 472.390212 -46.049534 
L 472.298365 -46.183162 
L 472.303225 -46.31679 
L 472.404367 -46.450419 
L 472.597893 -46.584047 
L 472.87662 -46.717675 
L 473.230431 -46.851304 
L 473.646771 -46.984932 
L 474.111248 -47.11856 
L 474.608279 -47.252188 
L 475.121747 -47.385817 
L 475.635608 -47.519445 
L 476.134424 -47.653073 
L 476.603797 -47.786701 
L 477.030673 -47.92033 
L 477.403539 -48.053958 
L 477.712518 -48.187586 
L 477.949372 -48.321215 
L 478.107469 -48.454843 
L 478.18171 -48.588471 
L 478.168475 -48.722099 
L 478.065594 -48.855728 
L 477.872362 -48.989356 
L 477.58959 -49.122984 
L 477.219708 -49.256612 
L 476.766868 -49.390241 
L 476.237044 -49.523869 
L 475.638078 -49.657497 
L 474.979648 -49.791126 
L 474.273111 -49.924754 
L 473.531212 -50.058382 
L 472.767625 -50.19201 
L 471.996348 -50.325639 
L 471.230949 -50.459267 
L 470.483713 -50.592895 
L 469.764731 -50.726524 
L 469.080994 -50.860152 
L 468.435569 -50.99378 
L 467.826919 -51.127408 
L 467.248452 -51.261037 
L 466.688349 -51.394665 
L 466.129732 -51.528293 
L 465.551185 -51.661921 
L 464.927665 -51.79555 
L 464.231759 -51.929178 
L 463.43527 -52.062806 
L 462.511058 -52.196435 
L 461.435048 -52.330063 
L 460.188302 -52.463691 
L 458.759023 -52.597319 
L 457.144355 -52.730948 
L 455.351841 -52.864576 
L 453.400402 -52.998204 
L 451.320719 -53.131832 
L 449.154926 -53.265461 
L 446.955567 -53.399089 
L 444.783811 -53.532717 
L 442.706986 -53.666346 
L 440.79553 -53.799974 
L 439.119549 -53.933602 
L 437.745169 -54.06723 
L 436.730938 -54.200859 
L 436.124532 -54.334487 
L 435.96 -54.468115 
L 436.255761 -54.601743 
L 437.013504 -54.735372 
L 438.218072 -54.869 
L 439.838345 -55.002628 
L 441.829035 -55.136257 
L 444.133259 -55.269885 
L 446.685674 -55.403513 
L 449.415948 -55.537141 
L 452.252298 -55.67077 
L 455.124864 -55.804398 
L 457.968693 -55.938026 
L 460.726178 -56.071655 
L 463.348831 -56.205283 
L 465.79836 -56.338911 
L 468.047049 -56.472539 
L 470.07751 -56.606168 
L 471.881916 -56.739796 
L 473.46083 -56.873424 
L 474.821787 -57.007052 
L 486.378213 -57.007052 
L 486.378213 -57.007052 
L 487.73917 -56.873424 
L 489.318084 -56.739796 
L 491.12249 -56.606168 
L 493.152951 -56.472539 
L 495.40164 -56.338911 
L 497.851169 -56.205283 
L 500.473822 -56.071655 
L 503.231307 -55.938026 
L 506.075136 -55.804398 
L 508.947702 -55.67077 
L 511.784052 -55.537141 
L 514.514326 -55.403513 
L 517.066741 -55.269885 
L 519.370965 -55.136257 
L 521.361655 -55.002628 
L 522.981928 -54.869 
L 524.186496 -54.735372 
L 524.944239 -54.601743 
L 525.24 -54.468115 
L 525.075468 -54.334487 
L 524.469062 -54.200859 
L 523.454831 -54.06723 
L 522.080451 -53.933602 
L 520.40447 -53.799974 
L 518.493014 -53.666346 
L 516.416189 -53.532717 
L 514.244433 -53.399089 
L 512.045074 -53.265461 
L 509.879281 -53.131832 
L 507.799598 -52.998204 
L 505.848159 -52.864576 
L 504.055645 -52.730948 
L 502.440977 -52.597319 
L 501.011698 -52.463691 
L 499.764952 -52.330063 
L 498.688942 -52.196435 
L 497.76473 -52.062806 
L 496.968241 -51.929178 
L 496.272335 -51.79555 
L 495.648815 -51.661921 
L 495.070268 -51.528293 
L 494.511651 -51.394665 
L 493.951548 -51.261037 
L 493.373081 -51.127408 
L 492.764431 -50.99378 
L 492.119006 -50.860152 
L 491.435269 -50.726524 
L 490.716287 -50.592895 
L 489.969051 -50.459267 
L 489.203652 -50.325639 
L 488.432375 -50.19201 
L 487.668788 -50.058382 
L 486.926889 -49.924754 
L 486.220352 -49.791126 
L 485.561922 -49.657497 
L 484.962956 -49.523869 
L 484.433132 -49.390241 
L 483.980292 -49.256612 
L 483.61041 -49.122984 
L 483.327638 -48.989356 
L 483.134406 -48.855728 
L 483.031525 -48.722099 
L 483.01829 -48.588471 
L 483.092531 -48.454843 
L 483.250628 -48.321215 
L 483.487482 -48.187586 
L 483.796461 -48.053958 
L 484.169327 -47.92033 
L 484.596203 -47.786701 
L 485.065576 -47.653073 
L 485.564392 -47.519445 
L 486.078253 -47.385817 
L 486.591721 -47.252188 
L 487.088752 -47.11856 
L 487.553229 -46.984932 
L 487.969569 -46.851304 
L 488.32338 -46.717675 
L 488.602107 -46.584047 
L 488.795633 -46.450419 
L 488.896775 -46.31679 
L 488.901635 -46.183162 
L 488.809788 -46.049534 
L 488.624268 -45.915906 
L 488.351371 -45.782277 
L 488.000269 -45.648649 
L 487.582485 -45.515021 
L 487.111254 -45.381393 
L 486.600816 -45.247764 
L 486.065708 -45.114136 
L 485.520084 -44.980508 
L 484.97712 -44.846879 
L 484.448522 -44.713251 
L 483.944175 -44.579623 
L 483.471927 -44.445995 
L 483.037514 -44.312366 
L 482.644609 -44.178738 
L 482.294973 -44.04511 
L 481.988688 -43.911482 
L 481.724438 -43.777853 
z
" style="stroke: #3d3d3d; stroke-width: 1.25"/>
    </defs>
    <g clip-path="url(#p67530dc807)">
     <use xlink:href="#m34751f9131" x="0" y="360" style="fill: #c03d3e; stroke: #3d3d3d; stroke-width: 1.25"/>
    </g>
   </g>
   <g id="patch_3">
    <path d="M 212.76 320.4 
L 257.4 320.4 
L 257.4 247.343396 
L 212.76 247.343396 
z
" clip-path="url(#p67530dc807)" style="fill: #3274a1"/>
   </g>
   <g id="patch_4">
    <path d="M 547.56 320.4 
L 592.2 320.4 
L 592.2 194.211321 
L 547.56 194.211321 
z
" clip-path="url(#p67530dc807)" style="fill: #3274a1"/>
   </g>
   <g id="patch_5">
    <path d="M 257.4 320.4 
L 302.04 320.4 
L 302.04 267.267925 
L 257.4 267.267925 
z
" clip-path="url(#p67530dc807)" style="fill: #e1812c"/>
   </g>
   <g id="patch_6">
    <path d="M 592.2 320.4 
L 636.84 320.4 
L 636.84 220.777358 
L 592.2 220.777358 
z
" clip-path="url(#p67530dc807)" style="fill: #e1812c"/>
   </g>
   <g id="patch_7">
    <path d="M 145.8 320.4 
L 145.8 320.4 
L 145.8 320.4 
L 145.8 320.4 
z
" clip-path="url(#p67530dc807)" style="fill: #3274a1"/>
   </g>
   <g id="patch_8">
    <path d="M 145.8 320.4 
L 145.8 320.4 
L 145.8 320.4 
L 145.8 320.4 
z
" clip-path="url(#p67530dc807)" style="fill: #e1812c"/>
   </g>
   <g id="patch_9">
    <path d="M 212.76 320.4 
L 257.4 320.4 
L 257.4 305.456604 
L 212.76 305.456604 
z
" clip-path="url(#p67530dc807)" style="fill: #3274a1"/>
   </g>
   <g id="patch_10">
    <path d="M 547.56 320.4 
L 592.2 320.4 
L 592.2 302.135849 
L 547.56 302.135849 
z
" clip-path="url(#p67530dc807)" style="fill: #3274a1"/>
   </g>
   <g id="patch_11">
    <path d="M 257.4 320.4 
L 302.04 320.4 
L 302.04 209.154717 
L 257.4 209.154717 
z
" clip-path="url(#p67530dc807)" style="fill: #e1812c"/>
   </g>
   <g id="patch_12">
    <path d="M 592.2 320.4 
L 636.84 320.4 
L 636.84 112.85283 
L 592.2 112.85283 
z
" clip-path="url(#p67530dc807)" style="fill: #e1812c"/>
   </g>
   <g id="patch_13">
    <path d="M 145.8 320.4 
L 145.8 320.4 
L 145.8 320.4 
L 145.8 320.4 
z
" clip-path="url(#p67530dc807)" style="fill: #3274a1"/>
   </g>
   <g id="patch_14">
    <path d="M 145.8 320.4 
L 145.8 320.4 
L 145.8 320.4 
L 145.8 320.4 
z
" clip-path="url(#p67530dc807)" style="fill: #e1812c"/>
   </g>
   <g id="patch_15">
    <path d="M 212.76 320.4 
L 257.4 320.4 
L 257.4 257.30566 
L 212.76 257.30566 
z
" clip-path="url(#p67530dc807)" style="fill: #3274a1"/>
   </g>
   <g id="patch_16">
    <path d="M 547.56 320.4 
L 592.2 320.4 
L 592.2 224.098113 
L 547.56 224.098113 
z
" clip-path="url(#p67530dc807)" style="fill: #3274a1"/>
   </g>
   <g id="patch_17">
    <path d="M 257.4 320.4 
L 302.04 320.4 
L 302.04 257.30566 
L 257.4 257.30566 
z
" clip-path="url(#p67530dc807)" style="fill: #e1812c"/>
   </g>
   <g id="patch_18">
    <path d="M 592.2 320.4 
L 636.84 320.4 
L 636.84 190.890566 
L 592.2 190.890566 
z
" clip-path="url(#p67530dc807)" style="fill: #e1812c"/>
   </g>
   <g id="patch_19">
    <path d="M 145.8 320.4 
L 145.8 320.4 
L 145.8 320.4 
L 145.8 320.4 
z
" clip-path="url(#p67530dc807)" style="fill: #3274a1"/>
   </g>
   <g id="patch_20">
    <path d="M 145.8 320.4 
L 145.8 320.4 
L 145.8 320.4 
L 145.8 320.4 
z
" clip-path="url(#p67530dc807)" style="fill: #e1812c"/>
   </g>
   <g id="patch_21">
    <path d="M 212.76 320.4 
L 302.04 320.4 
L 302.04 194.211321 
L 212.76 194.211321 
z
" clip-path="url(#p67530dc807)" style="fill: #3274a1"/>
   </g>
   <g id="patch_22">
    <path d="M 547.56 320.4 
L 636.84 320.4 
L 636.84 94.588679 
L 547.56 94.588679 
z
" clip-path="url(#p67530dc807)" style="fill: #3274a1"/>
   </g>
   <g id="patch_23">
    <path d="M 145.8 320.4 
L 145.8 320.4 
L 145.8 320.4 
L 145.8 320.4 
z
" clip-path="url(#p67530dc807)" style="fill: #3274a1"/>
   </g>
   <g id="patch_24">
    <path d="M 212.76 320.4 
L 302.04 320.4 
L 302.04 194.211321 
L 212.76 194.211321 
z
" clip-path="url(#p67530dc807)" style="fill: #3274a1"/>
   </g>
   <g id="patch_25">
    <path d="M 547.56 320.4 
L 636.84 320.4 
L 636.84 56.4 
L 547.56 56.4 
z
" clip-path="url(#p67530dc807)" style="fill: #3274a1"/>
   </g>
   <g id="patch_26">
    <path d="M 145.8 320.4 
L 145.8 320.4 
L 145.8 320.4 
L 145.8 320.4 
z
" clip-path="url(#p67530dc807)" style="fill: #3274a1"/>
   </g>
   <g id="patch_27">
    <path d="M 212.76 320.4 
L 257.4 320.4 
L 257.4 313.758491 
L 212.76 313.758491 
z
" clip-path="url(#p67530dc807)" style="fill: #3274a1"/>
   </g>
   <g id="patch_28">
    <path d="M 547.56 320.4 
L 592.2 320.4 
L 592.2 295.49434 
L 547.56 295.49434 
z
" clip-path="url(#p67530dc807)" style="fill: #3274a1"/>
   </g>
   <g id="patch_29">
    <path d="M 257.4 320.4 
L 302.04 320.4 
L 302.04 200.85283 
L 257.4 200.85283 
z
" clip-path="url(#p67530dc807)" style="fill: #e1812c"/>
   </g>
   <g id="patch_30">
    <path d="M 592.2 320.4 
L 636.84 320.4 
L 636.84 119.49434 
L 592.2 119.49434 
z
" clip-path="url(#p67530dc807)" style="fill: #e1812c"/>
   </g>
   <g id="patch_31">
    <path d="M 145.8 320.4 
L 145.8 320.4 
L 145.8 320.4 
L 145.8 320.4 
z
" clip-path="url(#p67530dc807)" style="fill: #3274a1"/>
   </g>
   <g id="patch_32">
    <path d="M 145.8 320.4 
L 145.8 320.4 
L 145.8 320.4 
L 145.8 320.4 
z
" clip-path="url(#p67530dc807)" style="fill: #e1812c"/>
   </g>
   <g id="patch_33">
    <path d="M 212.76 320.4 
L 302.04 320.4 
L 302.04 200.85283 
L 212.76 200.85283 
z
" clip-path="url(#p67530dc807)" style="fill: #e9d4d0"/>
   </g>
   <g id="patch_34">
    <path d="M 547.56 320.4 
L 636.84 320.4 
L 636.84 119.49434 
L 547.56 119.49434 
z
" clip-path="url(#p67530dc807)" style="fill: #e9d4d0"/>
   </g>
   <g id="patch_35">
    <path d="M 145.8 320.4 
L 145.8 320.4 
L 145.8 320.4 
L 145.8 320.4 
z
" clip-path="url(#p67530dc807)" style="fill: #e9d4d0"/>
   </g>
   <g id="patch_36">
    <path d="M 212.76 320.4 
L 257.4 320.4 
L 257.4 200.85283 
L 212.76 200.85283 
z
" clip-path="url(#p67530dc807)" style="fill: #3274a1"/>
   </g>
   <g id="patch_37">
    <path d="M 547.56 320.4 
L 592.2 320.4 
L 592.2 104.550943 
L 547.56 104.550943 
z
" clip-path="url(#p67530dc807)" style="fill: #3274a1"/>
   </g>
   <g id="patch_38">
    <path d="M 257.4 320.4 
L 302.04 320.4 
L 302.04 313.758491 
L 257.4 313.758491 
z
" clip-path="url(#p67530dc807)" style="fill: #e1812c"/>
   </g>
   <g id="patch_39">
    <path d="M 592.2 320.4 
L 636.84 320.4 
L 636.84 310.437736 
L 592.2 310.437736 
z
" clip-path="url(#p67530dc807)" style="fill: #e1812c"/>
   </g>
   <g id="patch_40">
    <path d="M 145.8 320.4 
L 145.8 320.4 
L 145.8 320.4 
L 145.8 320.4 
z
" clip-path="url(#p67530dc807)" style="fill: #3274a1"/>
   </g>
   <g id="patch_41">
    <path d="M 145.8 320.4 
L 145.8 320.4 
L 145.8 320.4 
L 145.8 320.4 
z
" clip-path="url(#p67530dc807)" style="fill: #e1812c"/>
   </g>
   <g id="matplotlib.axis_1">
    <g id="xtick_1">
     <g id="line2d_1">
      <defs>
       <path id="mcfdeb6b7bf" d="M 0 0 
L 0 3.5 
" style="stroke: #000000; stroke-width: 0.8"/>
      </defs>
      <g>
       <use xlink:href="#mcfdeb6b7bf" x="145.8" y="320.4" style="stroke: #000000; stroke-width: 0.8"/>
      </g>
     </g>
     <g id="text_1">
      <!-- No -->
      <g transform="translate(139 334.998438) scale(0.1 -0.1)">
       <defs>
        <path id="DejaVuSans-4e" d="M 628 4666 
L 1478 4666 
L 3547 763 
L 3547 4666 
L 4159 4666 
L 4159 0 
L 3309 0 
L 1241 3903 
L 1241 0 
L 628 0 
L 628 4666 
z
" transform="scale(0.015625)"/>
        <path id="DejaVuSans-6f" d="M 1959 3097 
Q 1497 3097 1228 2736 
Q 959 2375 959 1747 
Q 959 1119 1226 758 
Q 1494 397 1959 397 
Q 2419 397 2687 759 
Q 2956 1122 2956 1747 
Q 2956 2369 2687 2733 
Q 2419 3097 1959 3097 
z
M 1959 3584 
Q 2709 3584 3137 3096 
Q 3566 2609 3566 1747 
Q 3566 888 3137 398 
Q 2709 -91 1959 -91 
Q 1206 -91 779 398 
Q 353 888 353 1747 
Q 353 2609 779 3096 
Q 1206 3584 1959 3584 
z
" transform="scale(0.015625)"/>
       </defs>
       <use xlink:href="#DejaVuSans-4e"/>
       <use xlink:href="#DejaVuSans-6f" transform="translate(74.804688 0)"/>
      </g>
     </g>
    </g>
    <g id="xtick_2">
     <g id="line2d_2">
      <g>
       <use xlink:href="#mcfdeb6b7bf" x="257.4" y="320.4" style="stroke: #000000; stroke-width: 0.8"/>
      </g>
     </g>
     <g id="text_2">
      <!-- Specific -->
      <g transform="translate(237.938281 334.998438) scale(0.1 -0.1)">
       <defs>
        <path id="DejaVuSans-53" d="M 3425 4513 
L 3425 3897 
Q 3066 4069 2747 4153 
Q 2428 4238 2131 4238 
Q 1616 4238 1336 4038 
Q 1056 3838 1056 3469 
Q 1056 3159 1242 3001 
Q 1428 2844 1947 2747 
L 2328 2669 
Q 3034 2534 3370 2195 
Q 3706 1856 3706 1288 
Q 3706 609 3251 259 
Q 2797 -91 1919 -91 
Q 1588 -91 1214 -16 
Q 841 59 441 206 
L 441 856 
Q 825 641 1194 531 
Q 1563 422 1919 422 
Q 2459 422 2753 634 
Q 3047 847 3047 1241 
Q 3047 1584 2836 1778 
Q 2625 1972 2144 2069 
L 1759 2144 
Q 1053 2284 737 2584 
Q 422 2884 422 3419 
Q 422 4038 858 4394 
Q 1294 4750 2059 4750 
Q 2388 4750 2728 4690 
Q 3069 4631 3425 4513 
z
" transform="scale(0.015625)"/>
        <path id="DejaVuSans-70" d="M 1159 525 
L 1159 -1331 
L 581 -1331 
L 581 3500 
L 1159 3500 
L 1159 2969 
Q 1341 3281 1617 3432 
Q 1894 3584 2278 3584 
Q 2916 3584 3314 3078 
Q 3713 2572 3713 1747 
Q 3713 922 3314 415 
Q 2916 -91 2278 -91 
Q 1894 -91 1617 61 
Q 1341 213 1159 525 
z
M 3116 1747 
Q 3116 2381 2855 2742 
Q 2594 3103 2138 3103 
Q 1681 3103 1420 2742 
Q 1159 2381 1159 1747 
Q 1159 1113 1420 752 
Q 1681 391 2138 391 
Q 2594 391 2855 752 
Q 3116 1113 3116 1747 
z
" transform="scale(0.015625)"/>
        <path id="DejaVuSans-65" d="M 3597 1894 
L 3597 1613 
L 953 1613 
Q 991 1019 1311 708 
Q 1631 397 2203 397 
Q 2534 397 2845 478 
Q 3156 559 3463 722 
L 3463 178 
Q 3153 47 2828 -22 
Q 2503 -91 2169 -91 
Q 1331 -91 842 396 
Q 353 884 353 1716 
Q 353 2575 817 3079 
Q 1281 3584 2069 3584 
Q 2775 3584 3186 3129 
Q 3597 2675 3597 1894 
z
M 3022 2063 
Q 3016 2534 2758 2815 
Q 2500 3097 2075 3097 
Q 1594 3097 1305 2825 
Q 1016 2553 972 2059 
L 3022 2063 
z
" transform="scale(0.015625)"/>
        <path id="DejaVuSans-63" d="M 3122 3366 
L 3122 2828 
Q 2878 2963 2633 3030 
Q 2388 3097 2138 3097 
Q 1578 3097 1268 2742 
Q 959 2388 959 1747 
Q 959 1106 1268 751 
Q 1578 397 2138 397 
Q 2388 397 2633 464 
Q 2878 531 3122 666 
L 3122 134 
Q 2881 22 2623 -34 
Q 2366 -91 2075 -91 
Q 1284 -91 818 406 
Q 353 903 353 1747 
Q 353 2603 823 3093 
Q 1294 3584 2113 3584 
Q 2378 3584 2631 3529 
Q 2884 3475 3122 3366 
z
" transform="scale(0.015625)"/>
        <path id="DejaVuSans-69" d="M 603 3500 
L 1178 3500 
L 1178 0 
L 603 0 
L 603 3500 
z
M 603 4863 
L 1178 4863 
L 1178 4134 
L 603 4134 
L 603 4863 
z
" transform="scale(0.015625)"/>
        <path id="DejaVuSans-66" d="M 2375 4863 
L 2375 4384 
L 1825 4384 
Q 1516 4384 1395 4259 
Q 1275 4134 1275 3809 
L 1275 3500 
L 2222 3500 
L 2222 3053 
L 1275 3053 
L 1275 0 
L 697 0 
L 697 3053 
L 147 3053 
L 147 3500 
L 697 3500 
L 697 3744 
Q 697 4328 969 4595 
Q 1241 4863 1831 4863 
L 2375 4863 
z
" transform="scale(0.015625)"/>
       </defs>
       <use xlink:href="#DejaVuSans-53"/>
       <use xlink:href="#DejaVuSans-70" transform="translate(63.476562 0)"/>
       <use xlink:href="#DejaVuSans-65" transform="translate(126.953125 0)"/>
       <use xlink:href="#DejaVuSans-63" transform="translate(188.476562 0)"/>
       <use xlink:href="#DejaVuSans-69" transform="translate(243.457031 0)"/>
       <use xlink:href="#DejaVuSans-66" transform="translate(271.240234 0)"/>
       <use xlink:href="#DejaVuSans-69" transform="translate(306.445312 0)"/>
       <use xlink:href="#DejaVuSans-63" transform="translate(334.228516 0)"/>
      </g>
     </g>
    </g>
    <g id="xtick_3">
     <g id="line2d_3">
      <g>
       <use xlink:href="#mcfdeb6b7bf" x="369" y="320.4" style="stroke: #000000; stroke-width: 0.8"/>
      </g>
     </g>
     <g id="text_3">
      <!-- Spurious -->
      <g transform="translate(347.205469 334.998438) scale(0.1 -0.1)">
       <defs>
        <path id="DejaVuSans-75" d="M 544 1381 
L 544 3500 
L 1119 3500 
L 1119 1403 
Q 1119 906 1312 657 
Q 1506 409 1894 409 
Q 2359 409 2629 706 
Q 2900 1003 2900 1516 
L 2900 3500 
L 3475 3500 
L 3475 0 
L 2900 0 
L 2900 538 
Q 2691 219 2414 64 
Q 2138 -91 1772 -91 
Q 1169 -91 856 284 
Q 544 659 544 1381 
z
M 1991 3584 
L 1991 3584 
z
" transform="scale(0.015625)"/>
        <path id="DejaVuSans-72" d="M 2631 2963 
Q 2534 3019 2420 3045 
Q 2306 3072 2169 3072 
Q 1681 3072 1420 2755 
Q 1159 2438 1159 1844 
L 1159 0 
L 581 0 
L 581 3500 
L 1159 3500 
L 1159 2956 
Q 1341 3275 1631 3429 
Q 1922 3584 2338 3584 
Q 2397 3584 2469 3576 
Q 2541 3569 2628 3553 
L 2631 2963 
z
" transform="scale(0.015625)"/>
        <path id="DejaVuSans-73" d="M 2834 3397 
L 2834 2853 
Q 2591 2978 2328 3040 
Q 2066 3103 1784 3103 
Q 1356 3103 1142 2972 
Q 928 2841 928 2578 
Q 928 2378 1081 2264 
Q 1234 2150 1697 2047 
L 1894 2003 
Q 2506 1872 2764 1633 
Q 3022 1394 3022 966 
Q 3022 478 2636 193 
Q 2250 -91 1575 -91 
Q 1294 -91 989 -36 
Q 684 19 347 128 
L 347 722 
Q 666 556 975 473 
Q 1284 391 1588 391 
Q 1994 391 2212 530 
Q 2431 669 2431 922 
Q 2431 1156 2273 1281 
Q 2116 1406 1581 1522 
L 1381 1569 
Q 847 1681 609 1914 
Q 372 2147 372 2553 
Q 372 3047 722 3315 
Q 1072 3584 1716 3584 
Q 2034 3584 2315 3537 
Q 2597 3491 2834 3397 
z
" transform="scale(0.015625)"/>
       </defs>
       <use xlink:href="#DejaVuSans-53"/>
       <use xlink:href="#DejaVuSans-70" transform="translate(63.476562 0)"/>
       <use xlink:href="#DejaVuSans-75" transform="translate(126.953125 0)"/>
       <use xlink:href="#DejaVuSans-72" transform="translate(190.332031 0)"/>
       <use xlink:href="#DejaVuSans-69" transform="translate(231.445312 0)"/>
       <use xlink:href="#DejaVuSans-6f" transform="translate(259.228516 0)"/>
       <use xlink:href="#DejaVuSans-75" transform="translate(320.410156 0)"/>
       <use xlink:href="#DejaVuSans-73" transform="translate(383.789062 0)"/>
      </g>
     </g>
    </g>
    <g id="xtick_4">
     <g id="line2d_4">
      <g>
       <use xlink:href="#mcfdeb6b7bf" x="480.6" y="320.4" style="stroke: #000000; stroke-width: 0.8"/>
      </g>
     </g>
     <g id="text_4">
      <!-- Non-specific -->
      <g transform="translate(449.935156 334.998438) scale(0.1 -0.1)">
       <defs>
        <path id="DejaVuSans-6e" d="M 3513 2113 
L 3513 0 
L 2938 0 
L 2938 2094 
Q 2938 2591 2744 2837 
Q 2550 3084 2163 3084 
Q 1697 3084 1428 2787 
Q 1159 2491 1159 1978 
L 1159 0 
L 581 0 
L 581 3500 
L 1159 3500 
L 1159 2956 
Q 1366 3272 1645 3428 
Q 1925 3584 2291 3584 
Q 2894 3584 3203 3211 
Q 3513 2838 3513 2113 
z
" transform="scale(0.015625)"/>
        <path id="DejaVuSans-2d" d="M 313 2009 
L 1997 2009 
L 1997 1497 
L 313 1497 
L 313 2009 
z
" transform="scale(0.015625)"/>
       </defs>
       <use xlink:href="#DejaVuSans-4e"/>
       <use xlink:href="#DejaVuSans-6f" transform="translate(74.804688 0)"/>
       <use xlink:href="#DejaVuSans-6e" transform="translate(135.986328 0)"/>
       <use xlink:href="#DejaVuSans-2d" transform="translate(199.365234 0)"/>
       <use xlink:href="#DejaVuSans-73" transform="translate(235.449219 0)"/>
       <use xlink:href="#DejaVuSans-70" transform="translate(287.548828 0)"/>
       <use xlink:href="#DejaVuSans-65" transform="translate(351.025391 0)"/>
       <use xlink:href="#DejaVuSans-63" transform="translate(412.548828 0)"/>
       <use xlink:href="#DejaVuSans-69" transform="translate(467.529297 0)"/>
       <use xlink:href="#DejaVuSans-66" transform="translate(495.3125 0)"/>
       <use xlink:href="#DejaVuSans-69" transform="translate(530.517578 0)"/>
       <use xlink:href="#DejaVuSans-63" transform="translate(558.300781 0)"/>
      </g>
     </g>
    </g>
    <g id="xtick_5">
     <g id="line2d_5">
      <g>
       <use xlink:href="#mcfdeb6b7bf" x="592.2" y="320.4" style="stroke: #000000; stroke-width: 0.8"/>
      </g>
     </g>
     <g id="text_5">
      <!-- other -->
      <g transform="translate(578.879688 334.998438) scale(0.1 -0.1)">
       <defs>
        <path id="DejaVuSans-74" d="M 1172 4494 
L 1172 3500 
L 2356 3500 
L 2356 3053 
L 1172 3053 
L 1172 1153 
Q 1172 725 1289 603 
Q 1406 481 1766 481 
L 2356 481 
L 2356 0 
L 1766 0 
Q 1100 0 847 248 
Q 594 497 594 1153 
L 594 3053 
L 172 3053 
L 172 3500 
L 594 3500 
L 594 4494 
L 1172 4494 
z
" transform="scale(0.015625)"/>
        <path id="DejaVuSans-68" d="M 3513 2113 
L 3513 0 
L 2938 0 
L 2938 2094 
Q 2938 2591 2744 2837 
Q 2550 3084 2163 3084 
Q 1697 3084 1428 2787 
Q 1159 2491 1159 1978 
L 1159 0 
L 581 0 
L 581 4863 
L 1159 4863 
L 1159 2956 
Q 1366 3272 1645 3428 
Q 1925 3584 2291 3584 
Q 2894 3584 3203 3211 
Q 3513 2838 3513 2113 
z
" transform="scale(0.015625)"/>
       </defs>
       <use xlink:href="#DejaVuSans-6f"/>
       <use xlink:href="#DejaVuSans-74" transform="translate(61.181641 0)"/>
       <use xlink:href="#DejaVuSans-68" transform="translate(100.390625 0)"/>
       <use xlink:href="#DejaVuSans-65" transform="translate(163.769531 0)"/>
       <use xlink:href="#DejaVuSans-72" transform="translate(225.292969 0)"/>
      </g>
     </g>
    </g>
    <g id="text_6">
     <!-- Connectivity category -->
     <g transform="translate(313.98125 348.676562) scale(0.1 -0.1)">
      <defs>
       <path id="DejaVuSans-43" d="M 4122 4306 
L 4122 3641 
Q 3803 3938 3442 4084 
Q 3081 4231 2675 4231 
Q 1875 4231 1450 3742 
Q 1025 3253 1025 2328 
Q 1025 1406 1450 917 
Q 1875 428 2675 428 
Q 3081 428 3442 575 
Q 3803 722 4122 1019 
L 4122 359 
Q 3791 134 3420 21 
Q 3050 -91 2638 -91 
Q 1578 -91 968 557 
Q 359 1206 359 2328 
Q 359 3453 968 4101 
Q 1578 4750 2638 4750 
Q 3056 4750 3426 4639 
Q 3797 4528 4122 4306 
z
" transform="scale(0.015625)"/>
       <path id="DejaVuSans-76" d="M 191 3500 
L 800 3500 
L 1894 563 
L 2988 3500 
L 3597 3500 
L 2284 0 
L 1503 0 
L 191 3500 
z
" transform="scale(0.015625)"/>
       <path id="DejaVuSans-79" d="M 2059 -325 
Q 1816 -950 1584 -1140 
Q 1353 -1331 966 -1331 
L 506 -1331 
L 506 -850 
L 844 -850 
Q 1081 -850 1212 -737 
Q 1344 -625 1503 -206 
L 1606 56 
L 191 3500 
L 800 3500 
L 1894 763 
L 2988 3500 
L 3597 3500 
L 2059 -325 
z
" transform="scale(0.015625)"/>
       <path id="DejaVuSans-20" transform="scale(0.015625)"/>
       <path id="DejaVuSans-61" d="M 2194 1759 
Q 1497 1759 1228 1600 
Q 959 1441 959 1056 
Q 959 750 1161 570 
Q 1363 391 1709 391 
Q 2188 391 2477 730 
Q 2766 1069 2766 1631 
L 2766 1759 
L 2194 1759 
z
M 3341 1997 
L 3341 0 
L 2766 0 
L 2766 531 
Q 2569 213 2275 61 
Q 1981 -91 1556 -91 
Q 1019 -91 701 211 
Q 384 513 384 1019 
Q 384 1609 779 1909 
Q 1175 2209 1959 2209 
L 2766 2209 
L 2766 2266 
Q 2766 2663 2505 2880 
Q 2244 3097 1772 3097 
Q 1472 3097 1187 3025 
Q 903 2953 641 2809 
L 641 3341 
Q 956 3463 1253 3523 
Q 1550 3584 1831 3584 
Q 2591 3584 2966 3190 
Q 3341 2797 3341 1997 
z
" transform="scale(0.015625)"/>
       <path id="DejaVuSans-67" d="M 2906 1791 
Q 2906 2416 2648 2759 
Q 2391 3103 1925 3103 
Q 1463 3103 1205 2759 
Q 947 2416 947 1791 
Q 947 1169 1205 825 
Q 1463 481 1925 481 
Q 2391 481 2648 825 
Q 2906 1169 2906 1791 
z
M 3481 434 
Q 3481 -459 3084 -895 
Q 2688 -1331 1869 -1331 
Q 1566 -1331 1297 -1286 
Q 1028 -1241 775 -1147 
L 775 -588 
Q 1028 -725 1275 -790 
Q 1522 -856 1778 -856 
Q 2344 -856 2625 -561 
Q 2906 -266 2906 331 
L 2906 616 
Q 2728 306 2450 153 
Q 2172 0 1784 0 
Q 1141 0 747 490 
Q 353 981 353 1791 
Q 353 2603 747 3093 
Q 1141 3584 1784 3584 
Q 2172 3584 2450 3431 
Q 2728 3278 2906 2969 
L 2906 3500 
L 3481 3500 
L 3481 434 
z
" transform="scale(0.015625)"/>
      </defs>
      <use xlink:href="#DejaVuSans-43"/>
      <use xlink:href="#DejaVuSans-6f" transform="translate(69.824219 0)"/>
      <use xlink:href="#DejaVuSans-6e" transform="translate(131.005859 0)"/>
      <use xlink:href="#DejaVuSans-6e" transform="translate(194.384766 0)"/>
      <use xlink:href="#DejaVuSans-65" transform="translate(257.763672 0)"/>
      <use xlink:href="#DejaVuSans-63" transform="translate(319.287109 0)"/>
      <use xlink:href="#DejaVuSans-74" transform="translate(374.267578 0)"/>
      <use xlink:href="#DejaVuSans-69" transform="translate(413.476562 0)"/>
      <use xlink:href="#DejaVuSans-76" transform="translate(441.259766 0)"/>
      <use xlink:href="#DejaVuSans-69" transform="translate(500.439453 0)"/>
      <use xlink:href="#DejaVuSans-74" transform="translate(528.222656 0)"/>
      <use xlink:href="#DejaVuSans-79" transform="translate(567.431641 0)"/>
      <use xlink:href="#DejaVuSans-20" transform="translate(626.611328 0)"/>
      <use xlink:href="#DejaVuSans-63" transform="translate(658.398438 0)"/>
      <use xlink:href="#DejaVuSans-61" transform="translate(713.378906 0)"/>
      <use xlink:href="#DejaVuSans-74" transform="translate(774.658203 0)"/>
      <use xlink:href="#DejaVuSans-65" transform="translate(813.867188 0)"/>
      <use xlink:href="#DejaVuSans-67" transform="translate(875.390625 0)"/>
      <use xlink:href="#DejaVuSans-6f" transform="translate(938.867188 0)"/>
      <use xlink:href="#DejaVuSans-72" transform="translate(1000.048828 0)"/>
      <use xlink:href="#DejaVuSans-79" transform="translate(1041.162109 0)"/>
     </g>
    </g>
   </g>
   <g id="matplotlib.axis_2">
    <g id="ytick_1">
     <g id="line2d_6">
      <defs>
       <path id="m139d29c903" d="M 0 0 
L -3.5 0 
" style="stroke: #000000; stroke-width: 0.8"/>
      </defs>
      <g>
       <use xlink:href="#m139d29c903" x="90" y="320.4" style="stroke: #000000; stroke-width: 0.8"/>
      </g>
     </g>
     <g id="text_7">
      <!-- 0 -->
      <g transform="translate(76.6375 324.199219) scale(0.1 -0.1)">
       <defs>
        <path id="DejaVuSans-30" d="M 2034 4250 
Q 1547 4250 1301 3770 
Q 1056 3291 1056 2328 
Q 1056 1369 1301 889 
Q 1547 409 2034 409 
Q 2525 409 2770 889 
Q 3016 1369 3016 2328 
Q 3016 3291 2770 3770 
Q 2525 4250 2034 4250 
z
M 2034 4750 
Q 2819 4750 3233 4129 
Q 3647 3509 3647 2328 
Q 3647 1150 3233 529 
Q 2819 -91 2034 -91 
Q 1250 -91 836 529 
Q 422 1150 422 2328 
Q 422 3509 836 4129 
Q 1250 4750 2034 4750 
z
" transform="scale(0.015625)"/>
       </defs>
       <use xlink:href="#DejaVuSans-30"/>
      </g>
     </g>
    </g>
    <g id="ytick_2">
     <g id="line2d_7">
      <g>
       <use xlink:href="#m139d29c903" x="90" y="287.192453" style="stroke: #000000; stroke-width: 0.8"/>
      </g>
     </g>
     <g id="text_8">
      <!-- 20 -->
      <g transform="translate(70.275 290.991672) scale(0.1 -0.1)">
       <defs>
        <path id="DejaVuSans-32" d="M 1228 531 
L 3431 531 
L 3431 0 
L 469 0 
L 469 531 
Q 828 903 1448 1529 
Q 2069 2156 2228 2338 
Q 2531 2678 2651 2914 
Q 2772 3150 2772 3378 
Q 2772 3750 2511 3984 
Q 2250 4219 1831 4219 
Q 1534 4219 1204 4116 
Q 875 4013 500 3803 
L 500 4441 
Q 881 4594 1212 4672 
Q 1544 4750 1819 4750 
Q 2544 4750 2975 4387 
Q 3406 4025 3406 3419 
Q 3406 3131 3298 2873 
Q 3191 2616 2906 2266 
Q 2828 2175 2409 1742 
Q 1991 1309 1228 531 
z
" transform="scale(0.015625)"/>
       </defs>
       <use xlink:href="#DejaVuSans-32"/>
       <use xlink:href="#DejaVuSans-30" transform="translate(63.623047 0)"/>
      </g>
     </g>
    </g>
    <g id="ytick_3">
     <g id="line2d_8">
      <g>
       <use xlink:href="#m139d29c903" x="90" y="253.984906" style="stroke: #000000; stroke-width: 0.8"/>
      </g>
     </g>
     <g id="text_9">
      <!-- 40 -->
      <g transform="translate(70.275 257.784124) scale(0.1 -0.1)">
       <defs>
        <path id="DejaVuSans-34" d="M 2419 4116 
L 825 1625 
L 2419 1625 
L 2419 4116 
z
M 2253 4666 
L 3047 4666 
L 3047 1625 
L 3713 1625 
L 3713 1100 
L 3047 1100 
L 3047 0 
L 2419 0 
L 2419 1100 
L 313 1100 
L 313 1709 
L 2253 4666 
z
" transform="scale(0.015625)"/>
       </defs>
       <use xlink:href="#DejaVuSans-34"/>
       <use xlink:href="#DejaVuSans-30" transform="translate(63.623047 0)"/>
      </g>
     </g>
    </g>
    <g id="ytick_4">
     <g id="line2d_9">
      <g>
       <use xlink:href="#m139d29c903" x="90" y="220.777358" style="stroke: #000000; stroke-width: 0.8"/>
      </g>
     </g>
     <g id="text_10">
      <!-- 60 -->
      <g transform="translate(70.275 224.576577) scale(0.1 -0.1)">
       <defs>
        <path id="DejaVuSans-36" d="M 2113 2584 
Q 1688 2584 1439 2293 
Q 1191 2003 1191 1497 
Q 1191 994 1439 701 
Q 1688 409 2113 409 
Q 2538 409 2786 701 
Q 3034 994 3034 1497 
Q 3034 2003 2786 2293 
Q 2538 2584 2113 2584 
z
M 3366 4563 
L 3366 3988 
Q 3128 4100 2886 4159 
Q 2644 4219 2406 4219 
Q 1781 4219 1451 3797 
Q 1122 3375 1075 2522 
Q 1259 2794 1537 2939 
Q 1816 3084 2150 3084 
Q 2853 3084 3261 2657 
Q 3669 2231 3669 1497 
Q 3669 778 3244 343 
Q 2819 -91 2113 -91 
Q 1303 -91 875 529 
Q 447 1150 447 2328 
Q 447 3434 972 4092 
Q 1497 4750 2381 4750 
Q 2619 4750 2861 4703 
Q 3103 4656 3366 4563 
z
" transform="scale(0.015625)"/>
       </defs>
       <use xlink:href="#DejaVuSans-36"/>
       <use xlink:href="#DejaVuSans-30" transform="translate(63.623047 0)"/>
      </g>
     </g>
    </g>
    <g id="ytick_5">
     <g id="line2d_10">
      <g>
       <use xlink:href="#m139d29c903" x="90" y="187.569811" style="stroke: #000000; stroke-width: 0.8"/>
      </g>
     </g>
     <g id="text_11">
      <!-- 80 -->
      <g transform="translate(70.275 191.36903) scale(0.1 -0.1)">
       <defs>
        <path id="DejaVuSans-38" d="M 2034 2216 
Q 1584 2216 1326 1975 
Q 1069 1734 1069 1313 
Q 1069 891 1326 650 
Q 1584 409 2034 409 
Q 2484 409 2743 651 
Q 3003 894 3003 1313 
Q 3003 1734 2745 1975 
Q 2488 2216 2034 2216 
z
M 1403 2484 
Q 997 2584 770 2862 
Q 544 3141 544 3541 
Q 544 4100 942 4425 
Q 1341 4750 2034 4750 
Q 2731 4750 3128 4425 
Q 3525 4100 3525 3541 
Q 3525 3141 3298 2862 
Q 3072 2584 2669 2484 
Q 3125 2378 3379 2068 
Q 3634 1759 3634 1313 
Q 3634 634 3220 271 
Q 2806 -91 2034 -91 
Q 1263 -91 848 271 
Q 434 634 434 1313 
Q 434 1759 690 2068 
Q 947 2378 1403 2484 
z
M 1172 3481 
Q 1172 3119 1398 2916 
Q 1625 2713 2034 2713 
Q 2441 2713 2670 2916 
Q 2900 3119 2900 3481 
Q 2900 3844 2670 4047 
Q 2441 4250 2034 4250 
Q 1625 4250 1398 4047 
Q 1172 3844 1172 3481 
z
" transform="scale(0.015625)"/>
       </defs>
       <use xlink:href="#DejaVuSans-38"/>
       <use xlink:href="#DejaVuSans-30" transform="translate(63.623047 0)"/>
      </g>
     </g>
    </g>
    <g id="ytick_6">
     <g id="line2d_11">
      <g>
       <use xlink:href="#m139d29c903" x="90" y="154.362264" style="stroke: #000000; stroke-width: 0.8"/>
      </g>
     </g>
     <g id="text_12">
      <!-- 100 -->
      <g transform="translate(63.9125 158.161483) scale(0.1 -0.1)">
       <defs>
        <path id="DejaVuSans-31" d="M 794 531 
L 1825 531 
L 1825 4091 
L 703 3866 
L 703 4441 
L 1819 4666 
L 2450 4666 
L 2450 531 
L 3481 531 
L 3481 0 
L 794 0 
L 794 531 
z
" transform="scale(0.015625)"/>
       </defs>
       <use xlink:href="#DejaVuSans-31"/>
       <use xlink:href="#DejaVuSans-30" transform="translate(63.623047 0)"/>
       <use xlink:href="#DejaVuSans-30" transform="translate(127.246094 0)"/>
      </g>
     </g>
    </g>
    <g id="ytick_7">
     <g id="line2d_12">
      <g>
       <use xlink:href="#m139d29c903" x="90" y="121.154717" style="stroke: #000000; stroke-width: 0.8"/>
      </g>
     </g>
     <g id="text_13">
      <!-- 120 -->
      <g transform="translate(63.9125 124.953936) scale(0.1 -0.1)">
       <use xlink:href="#DejaVuSans-31"/>
       <use xlink:href="#DejaVuSans-32" transform="translate(63.623047 0)"/>
       <use xlink:href="#DejaVuSans-30" transform="translate(127.246094 0)"/>
      </g>
     </g>
    </g>
    <g id="ytick_8">
     <g id="line2d_13">
      <g>
       <use xlink:href="#m139d29c903" x="90" y="87.94717" style="stroke: #000000; stroke-width: 0.8"/>
      </g>
     </g>
     <g id="text_14">
      <!-- 140 -->
      <g transform="translate(63.9125 91.746389) scale(0.1 -0.1)">
       <use xlink:href="#DejaVuSans-31"/>
       <use xlink:href="#DejaVuSans-34" transform="translate(63.623047 0)"/>
       <use xlink:href="#DejaVuSans-30" transform="translate(127.246094 0)"/>
      </g>
     </g>
    </g>
    <g id="ytick_9">
     <g id="line2d_14">
      <g>
       <use xlink:href="#m139d29c903" x="90" y="54.739623" style="stroke: #000000; stroke-width: 0.8"/>
      </g>
     </g>
     <g id="text_15">
      <!-- 160 -->
      <g transform="translate(63.9125 58.538841) scale(0.1 -0.1)">
       <use xlink:href="#DejaVuSans-31"/>
       <use xlink:href="#DejaVuSans-36" transform="translate(63.623047 0)"/>
       <use xlink:href="#DejaVuSans-30" transform="translate(127.246094 0)"/>
      </g>
     </g>
    </g>
    <g id="text_16">
     <!-- cont_variable -->
     <g transform="translate(57.554687 215.409375) rotate(-90) scale(0.1 -0.1)">
      <defs>
       <path id="DejaVuSans-5f" d="M 3263 -1063 
L 3263 -1509 
L -63 -1509 
L -63 -1063 
L 3263 -1063 
z
" transform="scale(0.015625)"/>
       <path id="DejaVuSans-62" d="M 3116 1747 
Q 3116 2381 2855 2742 
Q 2594 3103 2138 3103 
Q 1681 3103 1420 2742 
Q 1159 2381 1159 1747 
Q 1159 1113 1420 752 
Q 1681 391 2138 391 
Q 2594 391 2855 752 
Q 3116 1113 3116 1747 
z
M 1159 2969 
Q 1341 3281 1617 3432 
Q 1894 3584 2278 3584 
Q 2916 3584 3314 3078 
Q 3713 2572 3713 1747 
Q 3713 922 3314 415 
Q 2916 -91 2278 -91 
Q 1894 -91 1617 61 
Q 1341 213 1159 525 
L 1159 0 
L 581 0 
L 581 4863 
L 1159 4863 
L 1159 2969 
z
" transform="scale(0.015625)"/>
       <path id="DejaVuSans-6c" d="M 603 4863 
L 1178 4863 
L 1178 0 
L 603 0 
L 603 4863 
z
" transform="scale(0.015625)"/>
      </defs>
      <use xlink:href="#DejaVuSans-63"/>
      <use xlink:href="#DejaVuSans-6f" transform="translate(54.980469 0)"/>
      <use xlink:href="#DejaVuSans-6e" transform="translate(116.162109 0)"/>
      <use xlink:href="#DejaVuSans-74" transform="translate(179.541016 0)"/>
      <use xlink:href="#DejaVuSans-5f" transform="translate(218.75 0)"/>
      <use xlink:href="#DejaVuSans-76" transform="translate(268.75 0)"/>
      <use xlink:href="#DejaVuSans-61" transform="translate(327.929688 0)"/>
      <use xlink:href="#DejaVuSans-72" transform="translate(389.208984 0)"/>
      <use xlink:href="#DejaVuSans-69" transform="translate(430.322266 0)"/>
      <use xlink:href="#DejaVuSans-61" transform="translate(458.105469 0)"/>
      <use xlink:href="#DejaVuSans-62" transform="translate(519.384766 0)"/>
      <use xlink:href="#DejaVuSans-6c" transform="translate(582.861328 0)"/>
      <use xlink:href="#DejaVuSans-65" transform="translate(610.644531 0)"/>
     </g>
    </g>
   </g>
   <g id="line2d_15">
    <path clip-path="url(#p67530dc807)" style="fill: none; stroke: #424242; stroke-width: 2.25; stroke-linecap: square"/>
   </g>
   <g id="line2d_16">
    <path clip-path="url(#p67530dc807)" style="fill: none; stroke: #424242; stroke-width: 2.25; stroke-linecap: square"/>
   </g>
   <g id="line2d_17">
    <path clip-path="url(#p67530dc807)" style="fill: none; stroke: #424242; stroke-width: 2.25; stroke-linecap: square"/>
   </g>
   <g id="line2d_18">
    <path clip-path="url(#p67530dc807)" style="fill: none; stroke: #424242; stroke-width: 2.25; stroke-linecap: square"/>
   </g>
   <g id="line2d_19">
    <path clip-path="url(#p67530dc807)" style="fill: none; stroke: #424242; stroke-width: 2.25; stroke-linecap: square"/>
   </g>
   <g id="line2d_20">
    <path clip-path="url(#p67530dc807)" style="fill: none; stroke: #424242; stroke-width: 2.25; stroke-linecap: square"/>
   </g>
   <g id="line2d_21">
    <path clip-path="url(#p67530dc807)" style="fill: none; stroke: #424242; stroke-width: 2.25; stroke-linecap: square"/>
   </g>
   <g id="line2d_22">
    <path clip-path="url(#p67530dc807)" style="fill: none; stroke: #424242; stroke-width: 2.25; stroke-linecap: square"/>
   </g>
   <g id="line2d_23">
    <path clip-path="url(#p67530dc807)" style="fill: none; stroke: #424242; stroke-width: 2.25; stroke-linecap: square"/>
   </g>
   <g id="line2d_24">
    <path clip-path="url(#p67530dc807)" style="fill: none; stroke: #424242; stroke-width: 2.25; stroke-linecap: square"/>
   </g>
   <g id="line2d_25">
    <path clip-path="url(#p67530dc807)" style="fill: none; stroke: #424242; stroke-width: 2.25; stroke-linecap: square"/>
   </g>
   <g id="line2d_26">
    <path clip-path="url(#p67530dc807)" style="fill: none; stroke: #424242; stroke-width: 2.25; stroke-linecap: square"/>
   </g>
   <g id="line2d_27">
    <path clip-path="url(#p67530dc807)" style="fill: none; stroke: #424242; stroke-width: 2.25; stroke-linecap: square"/>
   </g>
   <g id="line2d_28">
    <path clip-path="url(#p67530dc807)" style="fill: none; stroke: #424242; stroke-width: 2.25; stroke-linecap: square"/>
   </g>
   <g id="line2d_29">
    <path clip-path="url(#p67530dc807)" style="fill: none; stroke: #424242; stroke-width: 2.25; stroke-linecap: square"/>
   </g>
   <g id="line2d_30">
    <path clip-path="url(#p67530dc807)" style="fill: none; stroke: #424242; stroke-width: 2.25; stroke-linecap: square"/>
   </g>
   <g id="line2d_31">
    <path clip-path="url(#p67530dc807)" style="fill: none; stroke: #424242; stroke-width: 2.25; stroke-linecap: square"/>
   </g>
   <g id="line2d_32">
    <path clip-path="url(#p67530dc807)" style="fill: none; stroke: #424242; stroke-width: 2.25; stroke-linecap: square"/>
   </g>
   <g id="line2d_33">
    <path clip-path="url(#p67530dc807)" style="fill: none; stroke: #424242; stroke-width: 2.25; stroke-linecap: square"/>
   </g>
   <g id="line2d_34">
    <path clip-path="url(#p67530dc807)" style="fill: none; stroke: #424242; stroke-width: 2.25; stroke-linecap: square"/>
   </g>
   <g id="line2d_35">
    <path clip-path="url(#p67530dc807)" style="fill: none; stroke: #424242; stroke-width: 2.25; stroke-linecap: square"/>
   </g>
   <g id="line2d_36">
    <path clip-path="url(#p67530dc807)" style="fill: none; stroke: #424242; stroke-width: 2.25; stroke-linecap: square"/>
   </g>
   <g id="line2d_37">
    <path clip-path="url(#p67530dc807)" style="fill: none; stroke: #424242; stroke-width: 2.25; stroke-linecap: square"/>
   </g>
   <g id="line2d_38">
    <path clip-path="url(#p67530dc807)" style="fill: none; stroke: #424242; stroke-width: 2.25; stroke-linecap: square"/>
   </g>
   <g id="line2d_39">
    <path clip-path="url(#p67530dc807)" style="fill: none; stroke: #424242; stroke-width: 2.25; stroke-linecap: square"/>
   </g>
   <g id="line2d_40">
    <path clip-path="url(#p67530dc807)" style="fill: none; stroke: #424242; stroke-width: 2.25; stroke-linecap: square"/>
   </g>
   <g id="patch_42">
    <path d="M 90 320.4 
L 90 43.2 
" style="fill: none; stroke: #000000; stroke-width: 0.8; stroke-linejoin: miter; stroke-linecap: square"/>
   </g>
   <g id="patch_43">
    <path d="M 648 320.4 
L 648 43.2 
" style="fill: none; stroke: #000000; stroke-width: 0.8; stroke-linejoin: miter; stroke-linecap: square"/>
   </g>
   <g id="patch_44">
    <path d="M 90 320.4 
L 648 320.4 
" style="fill: none; stroke: #000000; stroke-width: 0.8; stroke-linejoin: miter; stroke-linecap: square"/>
   </g>
   <g id="patch_45">
    <path d="M 90 43.2 
L 648 43.2 
" style="fill: none; stroke: #000000; stroke-width: 0.8; stroke-linejoin: miter; stroke-linecap: square"/>
   </g>
   <g id="PathCollection_1">
    <defs>
     <path id="m6f1c7963b2" d="M 0 2.5 
C 0.663008 2.5 1.29895 2.236584 1.767767 1.767767 
C 2.236584 1.29895 2.5 0.663008 2.5 0 
C 2.5 -0.663008 2.236584 -1.29895 1.767767 -1.767767 
C 1.29895 -2.236584 0.663008 -2.5 0 -2.5 
C -0.663008 -2.5 -1.29895 -2.236584 -1.767767 -1.767767 
C -2.236584 -1.29895 -2.5 -0.663008 -2.5 0 
C -2.5 0.663008 -2.236584 1.29895 -1.767767 1.767767 
C -1.29895 2.236584 -0.663008 2.5 0 2.5 
z
"/>
    </defs>
    <g clip-path="url(#p67530dc807)">
     <use xlink:href="#m6f1c7963b2" x="152.475847" y="307.116981" style="fill-opacity: 0.3"/>
     <use xlink:href="#m6f1c7963b2" x="143.944301" y="307.116981" style="fill-opacity: 0.3"/>
     <use xlink:href="#m6f1c7963b2" x="147.362511" y="307.116981" style="fill-opacity: 0.3"/>
     <use xlink:href="#m6f1c7963b2" x="139.288329" y="307.116981" style="fill-opacity: 0.3"/>
     <use xlink:href="#m6f1c7963b2" x="139.973647" y="305.456604" style="fill-opacity: 0.3"/>
     <use xlink:href="#m6f1c7963b2" x="145.136712" y="305.456604" style="fill-opacity: 0.3"/>
     <use xlink:href="#m6f1c7963b2" x="156.483062" y="305.456604" style="fill-opacity: 0.3"/>
     <use xlink:href="#m6f1c7963b2" x="155.117944" y="308.777358" style="fill-opacity: 0.3"/>
     <use xlink:href="#m6f1c7963b2" x="144.041967" y="308.777358" style="fill-opacity: 0.3"/>
     <use xlink:href="#m6f1c7963b2" x="142.509087" y="308.777358" style="fill-opacity: 0.3"/>
     <use xlink:href="#m6f1c7963b2" x="136.925936" y="308.777358" style="fill-opacity: 0.3"/>
     <use xlink:href="#m6f1c7963b2" x="150.234564" y="308.777358" style="fill-opacity: 0.3"/>
     <use xlink:href="#m6f1c7963b2" x="143.154313" y="308.777358" style="fill-opacity: 0.3"/>
     <use xlink:href="#m6f1c7963b2" x="148.206156" y="308.777358" style="fill-opacity: 0.3"/>
     <use xlink:href="#m6f1c7963b2" x="151.243099" y="308.777358" style="fill-opacity: 0.3"/>
     <use xlink:href="#m6f1c7963b2" x="153.912692" y="308.777358" style="fill-opacity: 0.3"/>
     <use xlink:href="#m6f1c7963b2" x="140.882671" y="308.777358" style="fill-opacity: 0.3"/>
     <use xlink:href="#m6f1c7963b2" x="148.994117" y="308.777358" style="fill-opacity: 0.3"/>
     <use xlink:href="#m6f1c7963b2" x="150.471858" y="308.777358" style="fill-opacity: 0.3"/>
     <use xlink:href="#m6f1c7963b2" x="151.598692" y="308.777358" style="fill-opacity: 0.3"/>
     <use xlink:href="#m6f1c7963b2" x="144.795555" y="308.777358" style="fill-opacity: 0.3"/>
     <use xlink:href="#m6f1c7963b2" x="145.67483" y="305.456604" style="fill-opacity: 0.3"/>
     <use xlink:href="#m6f1c7963b2" x="145.014819" y="305.456604" style="fill-opacity: 0.3"/>
     <use xlink:href="#m6f1c7963b2" x="156.133853" y="305.456604" style="fill-opacity: 0.3"/>
     <use xlink:href="#m6f1c7963b2" x="143.30867" y="305.456604" style="fill-opacity: 0.3"/>
     <use xlink:href="#m6f1c7963b2" x="144.269273" y="305.456604" style="fill-opacity: 0.3"/>
     <use xlink:href="#m6f1c7963b2" x="154.207617" y="305.456604" style="fill-opacity: 0.3"/>
     <use xlink:href="#m6f1c7963b2" x="136.40106" y="305.456604" style="fill-opacity: 0.3"/>
     <use xlink:href="#m6f1c7963b2" x="146.001244" y="305.456604" style="fill-opacity: 0.3"/>
     <use xlink:href="#m6f1c7963b2" x="138.256038" y="305.456604" style="fill-opacity: 0.3"/>
    </g>
   </g>
   <g id="PathCollection_2">
    <g clip-path="url(#p67530dc807)">
     <use xlink:href="#m6f1c7963b2" x="250.726498" y="307.116981" style="fill-opacity: 0.3"/>
     <use xlink:href="#m6f1c7963b2" x="247.376608" y="307.116981" style="fill-opacity: 0.3"/>
     <use xlink:href="#m6f1c7963b2" x="256.002087" y="307.116981" style="fill-opacity: 0.3"/>
     <use xlink:href="#m6f1c7963b2" x="246.382086" y="307.116981" style="fill-opacity: 0.3"/>
     <use xlink:href="#m6f1c7963b2" x="253.816843" y="307.116981" style="fill-opacity: 0.3"/>
     <use xlink:href="#m6f1c7963b2" x="248.637863" y="307.116981" style="fill-opacity: 0.3"/>
     <use xlink:href="#m6f1c7963b2" x="261.643359" y="307.116981" style="fill-opacity: 0.3"/>
     <use xlink:href="#m6f1c7963b2" x="253.378738" y="307.116981" style="fill-opacity: 0.3"/>
     <use xlink:href="#m6f1c7963b2" x="264.931887" y="307.116981" style="fill-opacity: 0.3"/>
     <use xlink:href="#m6f1c7963b2" x="262.650818" y="313.758491" style="fill-opacity: 0.3"/>
     <use xlink:href="#m6f1c7963b2" x="266.920849" y="313.758491" style="fill-opacity: 0.3"/>
     <use xlink:href="#m6f1c7963b2" x="257.546294" y="307.116981" style="fill-opacity: 0.3"/>
     <use xlink:href="#m6f1c7963b2" x="248.926566" y="307.116981" style="fill-opacity: 0.3"/>
     <use xlink:href="#m6f1c7963b2" x="255.229663" y="307.116981" style="fill-opacity: 0.3"/>
     <use xlink:href="#m6f1c7963b2" x="252.355761" y="305.456604" style="fill-opacity: 0.3"/>
     <use xlink:href="#m6f1c7963b2" x="258.871998" y="305.456604" style="fill-opacity: 0.3"/>
     <use xlink:href="#m6f1c7963b2" x="267.440031" y="305.456604" style="fill-opacity: 0.3"/>
     <use xlink:href="#m6f1c7963b2" x="255.232319" y="305.456604" style="fill-opacity: 0.3"/>
     <use xlink:href="#m6f1c7963b2" x="247.970401" y="305.456604" style="fill-opacity: 0.3"/>
     <use xlink:href="#m6f1c7963b2" x="260.008305" y="305.456604" style="fill-opacity: 0.3"/>
     <use xlink:href="#m6f1c7963b2" x="261.655917" y="305.456604" style="fill-opacity: 0.3"/>
     <use xlink:href="#m6f1c7963b2" x="250.370999" y="305.456604" style="fill-opacity: 0.3"/>
     <use xlink:href="#m6f1c7963b2" x="267.891418" y="305.456604" style="fill-opacity: 0.3"/>
     <use xlink:href="#m6f1c7963b2" x="259.487745" y="305.456604" style="fill-opacity: 0.3"/>
     <use xlink:href="#m6f1c7963b2" x="250.834678" y="305.456604" style="fill-opacity: 0.3"/>
     <use xlink:href="#m6f1c7963b2" x="261.321735" y="305.456604" style="fill-opacity: 0.3"/>
     <use xlink:href="#m6f1c7963b2" x="258.900952" y="305.456604" style="fill-opacity: 0.3"/>
     <use xlink:href="#m6f1c7963b2" x="266.903368" y="305.456604" style="fill-opacity: 0.3"/>
     <use xlink:href="#m6f1c7963b2" x="262.285373" y="305.456604" style="fill-opacity: 0.3"/>
     <use xlink:href="#m6f1c7963b2" x="261.123271" y="305.456604" style="fill-opacity: 0.3"/>
     <use xlink:href="#m6f1c7963b2" x="267.16254" y="305.456604" style="fill-opacity: 0.3"/>
     <use xlink:href="#m6f1c7963b2" x="252.403964" y="305.456604" style="fill-opacity: 0.3"/>
     <use xlink:href="#m6f1c7963b2" x="257.64647" y="305.456604" style="fill-opacity: 0.3"/>
     <use xlink:href="#m6f1c7963b2" x="257.028416" y="305.456604" style="fill-opacity: 0.3"/>
     <use xlink:href="#m6f1c7963b2" x="267.332483" y="305.456604" style="fill-opacity: 0.3"/>
     <use xlink:href="#m6f1c7963b2" x="247.933955" y="305.456604" style="fill-opacity: 0.3"/>
     <use xlink:href="#m6f1c7963b2" x="250.364473" y="305.456604" style="fill-opacity: 0.3"/>
     <use xlink:href="#m6f1c7963b2" x="251.183185" y="305.456604" style="fill-opacity: 0.3"/>
     <use xlink:href="#m6f1c7963b2" x="260.773258" y="305.456604" style="fill-opacity: 0.3"/>
     <use xlink:href="#m6f1c7963b2" x="257.657386" y="305.456604" style="fill-opacity: 0.3"/>
     <use xlink:href="#m6f1c7963b2" x="252.559221" y="305.456604" style="fill-opacity: 0.3"/>
     <use xlink:href="#m6f1c7963b2" x="258.983219" y="305.456604" style="fill-opacity: 0.3"/>
     <use xlink:href="#m6f1c7963b2" x="249.328993" y="305.456604" style="fill-opacity: 0.3"/>
     <use xlink:href="#m6f1c7963b2" x="265.096348" y="305.456604" style="fill-opacity: 0.3"/>
     <use xlink:href="#m6f1c7963b2" x="247.36185" y="305.456604" style="fill-opacity: 0.3"/>
     <use xlink:href="#m6f1c7963b2" x="265.680545" y="305.456604" style="fill-opacity: 0.3"/>
     <use xlink:href="#m6f1c7963b2" x="248.36956" y="305.456604" style="fill-opacity: 0.3"/>
     <use xlink:href="#m6f1c7963b2" x="255.972846" y="305.456604" style="fill-opacity: 0.3"/>
     <use xlink:href="#m6f1c7963b2" x="264.793503" y="308.777358" style="fill-opacity: 0.3"/>
     <use xlink:href="#m6f1c7963b2" x="268.556973" y="308.777358" style="fill-opacity: 0.3"/>
     <use xlink:href="#m6f1c7963b2" x="263.374435" y="308.777358" style="fill-opacity: 0.3"/>
     <use xlink:href="#m6f1c7963b2" x="255.377743" y="308.777358" style="fill-opacity: 0.3"/>
     <use xlink:href="#m6f1c7963b2" x="248.382272" y="308.777358" style="fill-opacity: 0.3"/>
     <use xlink:href="#m6f1c7963b2" x="261.450755" y="308.777358" style="fill-opacity: 0.3"/>
     <use xlink:href="#m6f1c7963b2" x="264.15901" y="308.777358" style="fill-opacity: 0.3"/>
     <use xlink:href="#m6f1c7963b2" x="251.080848" y="308.777358" style="fill-opacity: 0.3"/>
     <use xlink:href="#m6f1c7963b2" x="246.386943" y="308.777358" style="fill-opacity: 0.3"/>
     <use xlink:href="#m6f1c7963b2" x="247.648721" y="308.777358" style="fill-opacity: 0.3"/>
     <use xlink:href="#m6f1c7963b2" x="251.036444" y="308.777358" style="fill-opacity: 0.3"/>
     <use xlink:href="#m6f1c7963b2" x="247.825837" y="308.777358" style="fill-opacity: 0.3"/>
     <use xlink:href="#m6f1c7963b2" x="254.978923" y="308.777358" style="fill-opacity: 0.3"/>
     <use xlink:href="#m6f1c7963b2" x="257.866664" y="308.777358" style="fill-opacity: 0.3"/>
     <use xlink:href="#m6f1c7963b2" x="251.706092" y="308.777358" style="fill-opacity: 0.3"/>
     <use xlink:href="#m6f1c7963b2" x="254.713615" y="308.777358" style="fill-opacity: 0.3"/>
     <use xlink:href="#m6f1c7963b2" x="265.298062" y="308.777358" style="fill-opacity: 0.3"/>
     <use xlink:href="#m6f1c7963b2" x="253.490524" y="308.777358" style="fill-opacity: 0.3"/>
     <use xlink:href="#m6f1c7963b2" x="252.240494" y="308.777358" style="fill-opacity: 0.3"/>
     <use xlink:href="#m6f1c7963b2" x="250.050551" y="308.777358" style="fill-opacity: 0.3"/>
     <use xlink:href="#m6f1c7963b2" x="251.172199" y="308.777358" style="fill-opacity: 0.3"/>
     <use xlink:href="#m6f1c7963b2" x="254.364722" y="308.777358" style="fill-opacity: 0.3"/>
     <use xlink:href="#m6f1c7963b2" x="257.302932" y="308.777358" style="fill-opacity: 0.3"/>
     <use xlink:href="#m6f1c7963b2" x="253.863448" y="308.777358" style="fill-opacity: 0.3"/>
     <use xlink:href="#m6f1c7963b2" x="254.118699" y="305.456604" style="fill-opacity: 0.3"/>
     <use xlink:href="#m6f1c7963b2" x="252.974633" y="305.456604" style="fill-opacity: 0.3"/>
     <use xlink:href="#m6f1c7963b2" x="260.634641" y="305.456604" style="fill-opacity: 0.3"/>
     <use xlink:href="#m6f1c7963b2" x="256.74092" y="305.456604" style="fill-opacity: 0.3"/>
    </g>
   </g>
   <g id="PathCollection_3">
    <g clip-path="url(#p67530dc807)">
     <use xlink:href="#m6f1c7963b2" x="371.512077" y="307.116981" style="fill-opacity: 0.3"/>
     <use xlink:href="#m6f1c7963b2" x="370.261729" y="313.758491" style="fill-opacity: 0.3"/>
     <use xlink:href="#m6f1c7963b2" x="376.600889" y="313.758491" style="fill-opacity: 0.3"/>
     <use xlink:href="#m6f1c7963b2" x="370.077643" y="305.456604" style="fill-opacity: 0.3"/>
     <use xlink:href="#m6f1c7963b2" x="369.019523" y="305.456604" style="fill-opacity: 0.3"/>
     <use xlink:href="#m6f1c7963b2" x="368.267659" y="305.456604" style="fill-opacity: 0.3"/>
     <use xlink:href="#m6f1c7963b2" x="373.501795" y="305.456604" style="fill-opacity: 0.3"/>
     <use xlink:href="#m6f1c7963b2" x="367.66769" y="305.456604" style="fill-opacity: 0.3"/>
     <use xlink:href="#m6f1c7963b2" x="378.546863" y="305.456604" style="fill-opacity: 0.3"/>
     <use xlink:href="#m6f1c7963b2" x="357.917832" y="305.456604" style="fill-opacity: 0.3"/>
     <use xlink:href="#m6f1c7963b2" x="371.633664" y="305.456604" style="fill-opacity: 0.3"/>
     <use xlink:href="#m6f1c7963b2" x="359.779709" y="305.456604" style="fill-opacity: 0.3"/>
     <use xlink:href="#m6f1c7963b2" x="361.80683" y="305.456604" style="fill-opacity: 0.3"/>
     <use xlink:href="#m6f1c7963b2" x="376.071796" y="305.456604" style="fill-opacity: 0.3"/>
     <use xlink:href="#m6f1c7963b2" x="366.50745" y="305.456604" style="fill-opacity: 0.3"/>
     <use xlink:href="#m6f1c7963b2" x="377.156715" y="305.456604" style="fill-opacity: 0.3"/>
     <use xlink:href="#m6f1c7963b2" x="367.159983" y="305.456604" style="fill-opacity: 0.3"/>
     <use xlink:href="#m6f1c7963b2" x="359.747707" y="305.456604" style="fill-opacity: 0.3"/>
     <use xlink:href="#m6f1c7963b2" x="374.803034" y="305.456604" style="fill-opacity: 0.3"/>
     <use xlink:href="#m6f1c7963b2" x="362.512201" y="305.456604" style="fill-opacity: 0.3"/>
     <use xlink:href="#m6f1c7963b2" x="372.169848" y="305.456604" style="fill-opacity: 0.3"/>
     <use xlink:href="#m6f1c7963b2" x="374.610939" y="305.456604" style="fill-opacity: 0.3"/>
     <use xlink:href="#m6f1c7963b2" x="378.64191" y="305.456604" style="fill-opacity: 0.3"/>
     <use xlink:href="#m6f1c7963b2" x="369.719846" y="308.777358" style="fill-opacity: 0.3"/>
     <use xlink:href="#m6f1c7963b2" x="376.505665" y="308.777358" style="fill-opacity: 0.3"/>
     <use xlink:href="#m6f1c7963b2" x="362.011069" y="308.777358" style="fill-opacity: 0.3"/>
     <use xlink:href="#m6f1c7963b2" x="359.048511" y="308.777358" style="fill-opacity: 0.3"/>
     <use xlink:href="#m6f1c7963b2" x="369.918777" y="308.777358" style="fill-opacity: 0.3"/>
     <use xlink:href="#m6f1c7963b2" x="375.58758" y="308.777358" style="fill-opacity: 0.3"/>
     <use xlink:href="#m6f1c7963b2" x="378.921905" y="308.777358" style="fill-opacity: 0.3"/>
     <use xlink:href="#m6f1c7963b2" x="366.281967" y="308.777358" style="fill-opacity: 0.3"/>
     <use xlink:href="#m6f1c7963b2" x="360.595857" y="308.777358" style="fill-opacity: 0.3"/>
     <use xlink:href="#m6f1c7963b2" x="368.853562" y="308.777358" style="fill-opacity: 0.3"/>
     <use xlink:href="#m6f1c7963b2" x="362.126662" y="308.777358" style="fill-opacity: 0.3"/>
     <use xlink:href="#m6f1c7963b2" x="359.267775" y="308.777358" style="fill-opacity: 0.3"/>
     <use xlink:href="#m6f1c7963b2" x="365.858821" y="305.456604" style="fill-opacity: 0.3"/>
     <use xlink:href="#m6f1c7963b2" x="377.623947" y="305.456604" style="fill-opacity: 0.3"/>
     <use xlink:href="#m6f1c7963b2" x="360.126221" y="305.456604" style="fill-opacity: 0.3"/>
     <use xlink:href="#m6f1c7963b2" x="374.276525" y="305.456604" style="fill-opacity: 0.3"/>
     <use xlink:href="#m6f1c7963b2" x="377.218871" y="305.456604" style="fill-opacity: 0.3"/>
     <use xlink:href="#m6f1c7963b2" x="369.190802" y="305.456604" style="fill-opacity: 0.3"/>
     <use xlink:href="#m6f1c7963b2" x="375.376812" y="305.456604" style="fill-opacity: 0.3"/>
    </g>
   </g>
   <g id="PathCollection_4">
    <g clip-path="url(#p67530dc807)">
     <use xlink:href="#m6f1c7963b2" x="480.57076" y="307.116981" style="fill-opacity: 0.3"/>
     <use xlink:href="#m6f1c7963b2" x="475.71857" y="307.116981" style="fill-opacity: 0.3"/>
     <use xlink:href="#m6f1c7963b2" x="482.413397" y="307.116981" style="fill-opacity: 0.3"/>
     <use xlink:href="#m6f1c7963b2" x="491.015246" y="313.758491" style="fill-opacity: 0.3"/>
     <use xlink:href="#m6f1c7963b2" x="487.841417" y="313.758491" style="fill-opacity: 0.3"/>
     <use xlink:href="#m6f1c7963b2" x="483.996965" y="313.758491" style="fill-opacity: 0.3"/>
     <use xlink:href="#m6f1c7963b2" x="479.194492" y="313.758491" style="fill-opacity: 0.3"/>
     <use xlink:href="#m6f1c7963b2" x="482.457667" y="313.758491" style="fill-opacity: 0.3"/>
     <use xlink:href="#m6f1c7963b2" x="483.692843" y="307.116981" style="fill-opacity: 0.3"/>
     <use xlink:href="#m6f1c7963b2" x="487.799093" y="313.758491" style="fill-opacity: 0.3"/>
     <use xlink:href="#m6f1c7963b2" x="482.041758" y="313.758491" style="fill-opacity: 0.3"/>
     <use xlink:href="#m6f1c7963b2" x="472.876877" y="313.758491" style="fill-opacity: 0.3"/>
     <use xlink:href="#m6f1c7963b2" x="472.533483" y="305.456604" style="fill-opacity: 0.3"/>
     <use xlink:href="#m6f1c7963b2" x="472.278584" y="305.456604" style="fill-opacity: 0.3"/>
     <use xlink:href="#m6f1c7963b2" x="475.260246" y="305.456604" style="fill-opacity: 0.3"/>
     <use xlink:href="#m6f1c7963b2" x="481.967338" y="305.456604" style="fill-opacity: 0.3"/>
     <use xlink:href="#m6f1c7963b2" x="470.140815" y="305.456604" style="fill-opacity: 0.3"/>
     <use xlink:href="#m6f1c7963b2" x="491.739547" y="305.456604" style="fill-opacity: 0.3"/>
     <use xlink:href="#m6f1c7963b2" x="488.127404" y="305.456604" style="fill-opacity: 0.3"/>
     <use xlink:href="#m6f1c7963b2" x="488.395044" y="305.456604" style="fill-opacity: 0.3"/>
     <use xlink:href="#m6f1c7963b2" x="491.145889" y="305.456604" style="fill-opacity: 0.3"/>
     <use xlink:href="#m6f1c7963b2" x="476.989805" y="305.456604" style="fill-opacity: 0.3"/>
     <use xlink:href="#m6f1c7963b2" x="471.192361" y="305.456604" style="fill-opacity: 0.3"/>
     <use xlink:href="#m6f1c7963b2" x="489.742168" y="305.456604" style="fill-opacity: 0.3"/>
     <use xlink:href="#m6f1c7963b2" x="480.484771" y="305.456604" style="fill-opacity: 0.3"/>
     <use xlink:href="#m6f1c7963b2" x="475.967692" y="305.456604" style="fill-opacity: 0.3"/>
     <use xlink:href="#m6f1c7963b2" x="480.955235" y="305.456604" style="fill-opacity: 0.3"/>
     <use xlink:href="#m6f1c7963b2" x="485.285646" y="305.456604" style="fill-opacity: 0.3"/>
     <use xlink:href="#m6f1c7963b2" x="470.488722" y="305.456604" style="fill-opacity: 0.3"/>
     <use xlink:href="#m6f1c7963b2" x="486.527515" y="305.456604" style="fill-opacity: 0.3"/>
     <use xlink:href="#m6f1c7963b2" x="483.364885" y="305.456604" style="fill-opacity: 0.3"/>
     <use xlink:href="#m6f1c7963b2" x="489.054786" y="305.456604" style="fill-opacity: 0.3"/>
     <use xlink:href="#m6f1c7963b2" x="490.659886" y="305.456604" style="fill-opacity: 0.3"/>
     <use xlink:href="#m6f1c7963b2" x="478.543116" y="305.456604" style="fill-opacity: 0.3"/>
     <use xlink:href="#m6f1c7963b2" x="488.687831" y="305.456604" style="fill-opacity: 0.3"/>
     <use xlink:href="#m6f1c7963b2" x="483.365726" y="305.456604" style="fill-opacity: 0.3"/>
     <use xlink:href="#m6f1c7963b2" x="471.411852" y="305.456604" style="fill-opacity: 0.3"/>
     <use xlink:href="#m6f1c7963b2" x="476.238328" y="305.456604" style="fill-opacity: 0.3"/>
     <use xlink:href="#m6f1c7963b2" x="478.32862" y="305.456604" style="fill-opacity: 0.3"/>
     <use xlink:href="#m6f1c7963b2" x="475.291553" y="305.456604" style="fill-opacity: 0.3"/>
     <use xlink:href="#m6f1c7963b2" x="473.16191" y="305.456604" style="fill-opacity: 0.3"/>
     <use xlink:href="#m6f1c7963b2" x="472.104364" y="305.456604" style="fill-opacity: 0.3"/>
     <use xlink:href="#m6f1c7963b2" x="490.973062" y="305.456604" style="fill-opacity: 0.3"/>
     <use xlink:href="#m6f1c7963b2" x="479.518014" y="305.456604" style="fill-opacity: 0.3"/>
     <use xlink:href="#m6f1c7963b2" x="471.246846" y="305.456604" style="fill-opacity: 0.3"/>
     <use xlink:href="#m6f1c7963b2" x="473.193371" y="305.456604" style="fill-opacity: 0.3"/>
     <use xlink:href="#m6f1c7963b2" x="488.886719" y="305.456604" style="fill-opacity: 0.3"/>
     <use xlink:href="#m6f1c7963b2" x="483.862465" y="305.456604" style="fill-opacity: 0.3"/>
     <use xlink:href="#m6f1c7963b2" x="482.759864" y="305.456604" style="fill-opacity: 0.3"/>
     <use xlink:href="#m6f1c7963b2" x="488.505109" y="305.456604" style="fill-opacity: 0.3"/>
     <use xlink:href="#m6f1c7963b2" x="490.082399" y="305.456604" style="fill-opacity: 0.3"/>
     <use xlink:href="#m6f1c7963b2" x="489.181411" y="305.456604" style="fill-opacity: 0.3"/>
     <use xlink:href="#m6f1c7963b2" x="476.825689" y="308.777358" style="fill-opacity: 0.3"/>
     <use xlink:href="#m6f1c7963b2" x="485.262543" y="308.777358" style="fill-opacity: 0.3"/>
     <use xlink:href="#m6f1c7963b2" x="485.978289" y="308.777358" style="fill-opacity: 0.3"/>
     <use xlink:href="#m6f1c7963b2" x="478.059371" y="308.777358" style="fill-opacity: 0.3"/>
     <use xlink:href="#m6f1c7963b2" x="471.453296" y="308.777358" style="fill-opacity: 0.3"/>
     <use xlink:href="#m6f1c7963b2" x="480.569174" y="308.777358" style="fill-opacity: 0.3"/>
     <use xlink:href="#m6f1c7963b2" x="477.232148" y="308.777358" style="fill-opacity: 0.3"/>
     <use xlink:href="#m6f1c7963b2" x="483.489723" y="308.777358" style="fill-opacity: 0.3"/>
     <use xlink:href="#m6f1c7963b2" x="476.539547" y="308.777358" style="fill-opacity: 0.3"/>
     <use xlink:href="#m6f1c7963b2" x="470.324876" y="308.777358" style="fill-opacity: 0.3"/>
     <use xlink:href="#m6f1c7963b2" x="485.007983" y="305.456604" style="fill-opacity: 0.3"/>
    </g>
   </g>
   <g id="legend_1">
    <g id="patch_46">
     <path d="M 97 256.69375 
L 174.415625 256.69375 
Q 176.415625 256.69375 176.415625 254.69375 
L 176.415625 50.2 
Q 176.415625 48.2 174.415625 48.2 
L 97 48.2 
Q 95 48.2 95 50.2 
L 95 254.69375 
Q 95 256.69375 97 256.69375 
z
" style="fill: #ffffff; opacity: 0.8; stroke: #cccccc; stroke-linejoin: miter"/>
    </g>
    <g id="text_17">
     <!-- fMRI.sequence -->
     <g transform="translate(99 59.798437) scale(0.1 -0.1)">
      <defs>
       <path id="DejaVuSans-4d" d="M 628 4666 
L 1569 4666 
L 2759 1491 
L 3956 4666 
L 4897 4666 
L 4897 0 
L 4281 0 
L 4281 4097 
L 3078 897 
L 2444 897 
L 1241 4097 
L 1241 0 
L 628 0 
L 628 4666 
z
" transform="scale(0.015625)"/>
       <path id="DejaVuSans-52" d="M 2841 2188 
Q 3044 2119 3236 1894 
Q 3428 1669 3622 1275 
L 4263 0 
L 3584 0 
L 2988 1197 
Q 2756 1666 2539 1819 
Q 2322 1972 1947 1972 
L 1259 1972 
L 1259 0 
L 628 0 
L 628 4666 
L 2053 4666 
Q 2853 4666 3247 4331 
Q 3641 3997 3641 3322 
Q 3641 2881 3436 2590 
Q 3231 2300 2841 2188 
z
M 1259 4147 
L 1259 2491 
L 2053 2491 
Q 2509 2491 2742 2702 
Q 2975 2913 2975 3322 
Q 2975 3731 2742 3939 
Q 2509 4147 2053 4147 
L 1259 4147 
z
" transform="scale(0.015625)"/>
       <path id="DejaVuSans-49" d="M 628 4666 
L 1259 4666 
L 1259 0 
L 628 0 
L 628 4666 
z
" transform="scale(0.015625)"/>
       <path id="DejaVuSans-2e" d="M 684 794 
L 1344 794 
L 1344 0 
L 684 0 
L 684 794 
z
" transform="scale(0.015625)"/>
       <path id="DejaVuSans-71" d="M 947 1747 
Q 947 1113 1208 752 
Q 1469 391 1925 391 
Q 2381 391 2643 752 
Q 2906 1113 2906 1747 
Q 2906 2381 2643 2742 
Q 2381 3103 1925 3103 
Q 1469 3103 1208 2742 
Q 947 2381 947 1747 
z
M 2906 525 
Q 2725 213 2448 61 
Q 2172 -91 1784 -91 
Q 1150 -91 751 415 
Q 353 922 353 1747 
Q 353 2572 751 3078 
Q 1150 3584 1784 3584 
Q 2172 3584 2448 3432 
Q 2725 3281 2906 2969 
L 2906 3500 
L 3481 3500 
L 3481 -1331 
L 2906 -1331 
L 2906 525 
z
" transform="scale(0.015625)"/>
      </defs>
      <use xlink:href="#DejaVuSans-66"/>
      <use xlink:href="#DejaVuSans-4d" transform="translate(35.205078 0)"/>
      <use xlink:href="#DejaVuSans-52" transform="translate(121.484375 0)"/>
      <use xlink:href="#DejaVuSans-49" transform="translate(190.966797 0)"/>
      <use xlink:href="#DejaVuSans-2e" transform="translate(220.458984 0)"/>
      <use xlink:href="#DejaVuSans-73" transform="translate(252.246094 0)"/>
      <use xlink:href="#DejaVuSans-65" transform="translate(304.345703 0)"/>
      <use xlink:href="#DejaVuSans-71" transform="translate(365.869141 0)"/>
      <use xlink:href="#DejaVuSans-75" transform="translate(429.345703 0)"/>
      <use xlink:href="#DejaVuSans-65" transform="translate(492.724609 0)"/>
      <use xlink:href="#DejaVuSans-6e" transform="translate(554.248047 0)"/>
      <use xlink:href="#DejaVuSans-63" transform="translate(617.626953 0)"/>
      <use xlink:href="#DejaVuSans-65" transform="translate(672.607422 0)"/>
     </g>
    </g>
    <g id="patch_47">
     <path d="M 105.221094 74.476562 
L 125.221094 74.476562 
L 125.221094 67.476562 
L 105.221094 67.476562 
z
" style="fill: #3274a1"/>
    </g>
    <g id="text_18">
     <!-- f -->
     <g transform="translate(133.221094 74.476562) scale(0.1 -0.1)">
      <use xlink:href="#DejaVuSans-66"/>
     </g>
    </g>
    <g id="patch_48">
     <path d="M 105.221094 89.154688 
L 125.221094 89.154688 
L 125.221094 82.154688 
L 105.221094 82.154688 
z
" style="fill: #e1812c"/>
    </g>
    <g id="text_19">
     <!-- m -->
     <g transform="translate(133.221094 89.154688) scale(0.1 -0.1)">
      <defs>
       <path id="DejaVuSans-6d" d="M 3328 2828 
Q 3544 3216 3844 3400 
Q 4144 3584 4550 3584 
Q 5097 3584 5394 3201 
Q 5691 2819 5691 2113 
L 5691 0 
L 5113 0 
L 5113 2094 
Q 5113 2597 4934 2840 
Q 4756 3084 4391 3084 
Q 3944 3084 3684 2787 
Q 3425 2491 3425 1978 
L 3425 0 
L 2847 0 
L 2847 2094 
Q 2847 2600 2669 2842 
Q 2491 3084 2119 3084 
Q 1678 3084 1418 2786 
Q 1159 2488 1159 1978 
L 1159 0 
L 581 0 
L 581 3500 
L 1159 3500 
L 1159 2956 
Q 1356 3278 1631 3431 
Q 1906 3584 2284 3584 
Q 2666 3584 2933 3390 
Q 3200 3197 3328 2828 
z
" transform="scale(0.015625)"/>
      </defs>
      <use xlink:href="#DejaVuSans-6d"/>
     </g>
    </g>
    <g id="patch_49">
     <path d="M 105.221094 103.832813 
L 125.221094 103.832813 
L 125.221094 96.832813 
L 105.221094 96.832813 
z
" style="fill: #3274a1"/>
    </g>
    <g id="text_20">
     <!-- f -->
     <g transform="translate(133.221094 103.832813) scale(0.1 -0.1)">
      <use xlink:href="#DejaVuSans-66"/>
     </g>
    </g>
    <g id="patch_50">
     <path d="M 105.221094 118.510938 
L 125.221094 118.510938 
L 125.221094 111.510938 
L 105.221094 111.510938 
z
" style="fill: #e1812c"/>
    </g>
    <g id="text_21">
     <!-- m -->
     <g transform="translate(133.221094 118.510938) scale(0.1 -0.1)">
      <use xlink:href="#DejaVuSans-6d"/>
     </g>
    </g>
    <g id="patch_51">
     <path d="M 105.221094 133.189063 
L 125.221094 133.189063 
L 125.221094 126.189063 
L 105.221094 126.189063 
z
" style="fill: #3274a1"/>
    </g>
    <g id="text_22">
     <!-- n -->
     <g transform="translate(133.221094 133.189063) scale(0.1 -0.1)">
      <use xlink:href="#DejaVuSans-6e"/>
     </g>
    </g>
    <g id="patch_52">
     <path d="M 105.221094 147.867188 
L 125.221094 147.867188 
L 125.221094 140.867188 
L 105.221094 140.867188 
z
" style="fill: #e1812c"/>
    </g>
    <g id="text_23">
     <!-- y -->
     <g transform="translate(133.221094 147.867188) scale(0.1 -0.1)">
      <use xlink:href="#DejaVuSans-79"/>
     </g>
    </g>
    <g id="patch_53">
     <path d="M 105.221094 162.545313 
L 125.221094 162.545313 
L 125.221094 155.545313 
L 105.221094 155.545313 
z
" style="fill: #3274a1"/>
    </g>
    <g id="text_24">
     <!-- y -->
     <g transform="translate(133.221094 162.545313) scale(0.1 -0.1)">
      <use xlink:href="#DejaVuSans-79"/>
     </g>
    </g>
    <g id="patch_54">
     <path d="M 105.221094 177.223437 
L 125.221094 177.223437 
L 125.221094 170.223437 
L 105.221094 170.223437 
z
" style="fill: #3274a1"/>
    </g>
    <g id="text_25">
     <!-- long -->
     <g transform="translate(133.221094 177.223437) scale(0.1 -0.1)">
      <use xlink:href="#DejaVuSans-6c"/>
      <use xlink:href="#DejaVuSans-6f" transform="translate(27.783203 0)"/>
      <use xlink:href="#DejaVuSans-6e" transform="translate(88.964844 0)"/>
      <use xlink:href="#DejaVuSans-67" transform="translate(152.34375 0)"/>
     </g>
    </g>
    <g id="patch_55">
     <path d="M 105.221094 191.901563 
L 125.221094 191.901563 
L 125.221094 184.901563 
L 105.221094 184.901563 
z
" style="fill: #3274a1"/>
    </g>
    <g id="text_26">
     <!-- n -->
     <g transform="translate(133.221094 191.901563) scale(0.1 -0.1)">
      <use xlink:href="#DejaVuSans-6e"/>
     </g>
    </g>
    <g id="patch_56">
     <path d="M 105.221094 206.579687 
L 125.221094 206.579687 
L 125.221094 199.579687 
L 105.221094 199.579687 
z
" style="fill: #e1812c"/>
    </g>
    <g id="text_27">
     <!-- y -->
     <g transform="translate(133.221094 206.579687) scale(0.1 -0.1)">
      <use xlink:href="#DejaVuSans-79"/>
     </g>
    </g>
    <g id="patch_57">
     <path d="M 105.221094 221.257812 
L 125.221094 221.257812 
L 125.221094 214.257812 
L 105.221094 214.257812 
z
" style="fill: #e9d4d0"/>
    </g>
    <g id="text_28">
     <!-- 7 -->
     <g transform="translate(133.221094 221.257812) scale(0.1 -0.1)">
      <defs>
       <path id="DejaVuSans-37" d="M 525 4666 
L 3525 4666 
L 3525 4397 
L 1831 0 
L 1172 0 
L 2766 4134 
L 525 4134 
L 525 4666 
z
" transform="scale(0.015625)"/>
      </defs>
      <use xlink:href="#DejaVuSans-37"/>
     </g>
    </g>
    <g id="patch_58">
     <path d="M 105.221094 235.935937 
L 125.221094 235.935937 
L 125.221094 228.935937 
L 105.221094 228.935937 
z
" style="fill: #3274a1"/>
    </g>
    <g id="text_29">
     <!-- GE-EPI -->
     <g transform="translate(133.221094 235.935937) scale(0.1 -0.1)">
      <defs>
       <path id="DejaVuSans-47" d="M 3809 666 
L 3809 1919 
L 2778 1919 
L 2778 2438 
L 4434 2438 
L 4434 434 
Q 4069 175 3628 42 
Q 3188 -91 2688 -91 
Q 1594 -91 976 548 
Q 359 1188 359 2328 
Q 359 3472 976 4111 
Q 1594 4750 2688 4750 
Q 3144 4750 3555 4637 
Q 3966 4525 4313 4306 
L 4313 3634 
Q 3963 3931 3569 4081 
Q 3175 4231 2741 4231 
Q 1884 4231 1454 3753 
Q 1025 3275 1025 2328 
Q 1025 1384 1454 906 
Q 1884 428 2741 428 
Q 3075 428 3337 486 
Q 3600 544 3809 666 
z
" transform="scale(0.015625)"/>
       <path id="DejaVuSans-45" d="M 628 4666 
L 3578 4666 
L 3578 4134 
L 1259 4134 
L 1259 2753 
L 3481 2753 
L 3481 2222 
L 1259 2222 
L 1259 531 
L 3634 531 
L 3634 0 
L 628 0 
L 628 4666 
z
" transform="scale(0.015625)"/>
       <path id="DejaVuSans-50" d="M 1259 4147 
L 1259 2394 
L 2053 2394 
Q 2494 2394 2734 2622 
Q 2975 2850 2975 3272 
Q 2975 3691 2734 3919 
Q 2494 4147 2053 4147 
L 1259 4147 
z
M 628 4666 
L 2053 4666 
Q 2838 4666 3239 4311 
Q 3641 3956 3641 3272 
Q 3641 2581 3239 2228 
Q 2838 1875 2053 1875 
L 1259 1875 
L 1259 0 
L 628 0 
L 628 4666 
z
" transform="scale(0.015625)"/>
      </defs>
      <use xlink:href="#DejaVuSans-47"/>
      <use xlink:href="#DejaVuSans-45" transform="translate(77.490234 0)"/>
      <use xlink:href="#DejaVuSans-2d" transform="translate(140.673828 0)"/>
      <use xlink:href="#DejaVuSans-45" transform="translate(176.757812 0)"/>
      <use xlink:href="#DejaVuSans-50" transform="translate(239.941406 0)"/>
      <use xlink:href="#DejaVuSans-49" transform="translate(300.244141 0)"/>
     </g>
    </g>
    <g id="patch_59">
     <path d="M 105.221094 250.614062 
L 125.221094 250.614062 
L 125.221094 243.614062 
L 105.221094 243.614062 
z
" style="fill: #e1812c"/>
    </g>
    <g id="text_30">
     <!-- SE-EPI -->
     <g transform="translate(133.221094 250.614062) scale(0.1 -0.1)">
      <use xlink:href="#DejaVuSans-53"/>
      <use xlink:href="#DejaVuSans-45" transform="translate(63.476562 0)"/>
      <use xlink:href="#DejaVuSans-2d" transform="translate(126.660156 0)"/>
      <use xlink:href="#DejaVuSans-45" transform="translate(162.744141 0)"/>
      <use xlink:href="#DejaVuSans-50" transform="translate(225.927734 0)"/>
      <use xlink:href="#DejaVuSans-49" transform="translate(286.230469 0)"/>
     </g>
    </g>
   </g>
  </g>
 </g>
 <defs>
  <clipPath id="p67530dc807">
   <rect x="90" y="43.2" width="558" height="277.2"/>
  </clipPath>
 </defs>
</svg>
