<?xml version="1.0" encoding="utf-8" standalone="no"?>
<!DOCTYPE svg PUBLIC "-//W3C//DTD SVG 1.1//EN"
  "http://www.w3.org/Graphics/SVG/1.1/DTD/svg11.dtd">
<svg xmlns:xlink="http://www.w3.org/1999/xlink" width="720pt" height="360pt" viewBox="0 0 720 360" xmlns="http://www.w3.org/2000/svg" version="1.1">
 <metadata>
  <rdf:RDF xmlns:dc="http://purl.org/dc/elements/1.1/" xmlns:cc="http://creativecommons.org/ns#" xmlns:rdf="http://www.w3.org/1999/02/22-rdf-syntax-ns#">
   <cc:Work>
    <dc:type rdf:resource="http://purl.org/dc/dcmitype/StillImage"/>
    <dc:date>2025-10-01T10:08:54.465252</dc:date>
    <dc:format>image/svg+xml</dc:format>
    <dc:creator>
     <cc:Agent>
      <dc:title>Matplotlib v3.10.3, https://matplotlib.org/</dc:title>
     </cc:Agent>
    </dc:creator>
   </cc:Work>
  </rdf:RDF>
 </metadata>
 <defs>
  <style type="text/css">*{stroke-linejoin: round; stroke-linecap: butt}</style>
 </defs>
 <g id="figure_1">
  <g id="patch_1">
   <path d="M 0 360 
L 720 360 
L 720 0 
L 0 0 
z
" style="fill: #ffffff"/>
  </g>
  <g id="axes_1">
   <g id="patch_2">
    <path d="M 90 320.4 
L 648 320.4 
L 648 43.2 
L 90 43.2 
z
" style="fill: #ffffff"/>
   </g>
   <g id="FillBetweenPolyCollection_1">
    <defs>
     <path id="m3ee93ccc41" d="M 369.4376 -52.2 
L 368.5624 -52.2 
L 368.368315 -54.745455 
L 368.120694 -57.290909 
L 367.819305 -59.836364 
L 367.469926 -62.381818 
L 367.084859 -64.927273 
L 366.681976 -67.472727 
L 366.282009 -70.018182 
L 365.904231 -72.563636 
L 365.561162 -75.109091 
L 365.253374 -77.654545 
L 364.965644 -80.2 
L 364.665554 -82.745455 
L 364.305112 -85.290909 
L 363.825213 -87.836364 
L 363.161976 -90.381818 
L 362.253451 -92.927273 
L 361.04507 -95.472727 
L 359.492572 -98.018182 
L 357.561976 -100.563636 
L 355.227117 -103.109091 
L 352.466179 -105.654545 
L 349.259161 -108.2 
L 345.588128 -110.745455 
L 341.441452 -113.290909 
L 336.82211 -115.836364 
L 331.758761 -118.381818 
L 326.317091 -120.927273 
L 320.608081 -123.472727 
L 314.789701 -126.018182 
L 309.059243 -128.563636 
L 303.635003 -131.109091 
L 298.728284 -133.654545 
L 294.509098 -136.2 
L 291.07121 -138.745455 
L 288.403374 -141.290909 
L 286.373556 -143.836364 
L 284.731177 -146.381818 
L 283.129289 -148.927273 
L 281.164725 -151.472727 
L 278.430417 -154.018182 
L 274.571249 -156.563636 
L 269.333721 -159.109091 
L 262.60066 -161.654545 
L 254.405109 -164.2 
L 244.921811 -166.745455 
L 234.439293 -169.290909 
L 223.319447 -171.836364 
L 211.95355 -174.381818 
L 200.723398 -176.927273 
L 189.973681 -179.472727 
L 179.997743 -182.018182 
L 171.034718 -184.563636 
L 163.273128 -187.109091 
L 156.855257 -189.654545 
L 151.878143 -192.2 
L 148.390126 -194.745455 
L 146.385243 -197.290909 
L 145.8 -199.836364 
L 146.517316 -202.381818 
L 148.380521 -204.927273 
L 151.217036 -207.472727 
L 154.867782 -210.018182 
L 159.215826 -212.563636 
L 164.20704 -215.109091 
L 169.856861 -217.654545 
L 176.240263 -220.2 
L 183.46594 -222.745455 
L 191.639492 -225.290909 
L 200.823125 -227.836364 
L 211.000484 -230.381818 
L 222.05431 -232.927273 
L 233.761939 -235.472727 
L 245.809879 -238.018182 
L 257.824672 -240.563636 
L 269.414045 -243.109091 
L 280.210779 -245.654545 
L 289.911949 -248.2 
L 298.308126 -250.745455 
L 305.299762 -253.290909 
L 310.900644 -255.836364 
L 315.229991 -258.381818 
L 318.495493 -260.927273 
L 320.969381 -263.472727 
L 322.959318 -266.018182 
L 324.775911 -268.563636 
L 326.699369 -271.109091 
L 328.94893 -273.654545 
L 331.659498 -276.2 
L 334.86974 -278.745455 
L 338.524368 -281.290909 
L 342.4906 -283.836364 
L 346.585683 -286.381818 
L 350.6099 -288.927273 
L 354.378414 -291.472727 
L 357.746112 -294.018182 
L 360.621769 -296.563636 
L 362.970753 -299.109091 
L 364.808083 -301.654545 
L 366.185351 -304.2 
L 371.814649 -304.2 
L 371.814649 -304.2 
L 373.191917 -301.654545 
L 375.029247 -299.109091 
L 377.378231 -296.563636 
L 380.253888 -294.018182 
L 383.621586 -291.472727 
L 387.3901 -288.927273 
L 391.414317 -286.381818 
L 395.5094 -283.836364 
L 399.475632 -281.290909 
L 403.13026 -278.745455 
L 406.340502 -276.2 
L 409.05107 -273.654545 
L 411.300631 -271.109091 
L 413.224089 -268.563636 
L 415.040682 -266.018182 
L 417.030619 -263.472727 
L 419.504507 -260.927273 
L 422.770009 -258.381818 
L 427.099356 -255.836364 
L 432.700238 -253.290909 
L 439.691874 -250.745455 
L 448.088051 -248.2 
L 457.789221 -245.654545 
L 468.585955 -243.109091 
L 480.175328 -240.563636 
L 492.190121 -238.018182 
L 504.238061 -235.472727 
L 515.94569 -232.927273 
L 526.999516 -230.381818 
L 537.176875 -227.836364 
L 546.360508 -225.290909 
L 554.53406 -222.745455 
L 561.759737 -220.2 
L 568.143139 -217.654545 
L 573.79296 -215.109091 
L 578.784174 -212.563636 
L 583.132218 -210.018182 
L 586.782964 -207.472727 
L 589.619479 -204.927273 
L 591.482684 -202.381818 
L 592.2 -199.836364 
L 591.614757 -197.290909 
L 589.609874 -194.745455 
L 586.121857 -192.2 
L 581.144743 -189.654545 
L 574.726872 -187.109091 
L 566.965282 -184.563636 
L 558.002257 -182.018182 
L 548.026319 -179.472727 
L 537.276602 -176.927273 
L 526.04645 -174.381818 
L 514.680553 -171.836364 
L 503.560707 -169.290909 
L 493.078189 -166.745455 
L 483.594891 -164.2 
L 475.39934 -161.654545 
L 468.666279 -159.109091 
L 463.428751 -156.563636 
L 459.569583 -154.018182 
L 456.835275 -151.472727 
L 454.870711 -148.927273 
L 453.268823 -146.381818 
L 451.626444 -143.836364 
L 449.596626 -141.290909 
L 446.92879 -138.745455 
L 443.490902 -136.2 
L 439.271716 -133.654545 
L 434.364997 -131.109091 
L 428.940757 -128.563636 
L 423.210299 -126.018182 
L 417.391919 -123.472727 
L 411.682909 -120.927273 
L 406.241239 -118.381818 
L 401.17789 -115.836364 
L 396.558548 -113.290909 
L 392.411872 -110.745455 
L 388.740839 -108.2 
L 385.533821 -105.654545 
L 382.772883 -103.109091 
L 380.438024 -100.563636 
L 378.507428 -98.018182 
L 376.95493 -95.472727 
L 375.746549 -92.927273 
L 374.838024 -90.381818 
L 374.174787 -87.836364 
L 373.694888 -85.290909 
L 373.334446 -82.745455 
L 373.034356 -80.2 
L 372.746626 -77.654545 
L 372.438838 -75.109091 
L 372.095769 -72.563636 
L 371.717991 -70.018182 
L 371.318024 -67.472727 
L 370.915141 -64.927273 
L 370.530074 -62.381818 
L 370.180695 -59.836364 
L 369.879306 -57.290909 
L 369.631685 -54.745455 
L 369.4376 -52.2 
z
" style="stroke: #3f3f3f; stroke-width: 1.25"/>
    </defs>
    <g clip-path="url(#pe1951fbd57)">
     <use xlink:href="#m3ee93ccc41" x="0" y="360" style="fill: #3274a1; stroke: #3f3f3f; stroke-width: 1.25"/>
    </g>
   </g>
   <g id="patch_3">
    <path d="M 369 281.314988 
L 369 281.314988 
L 369 281.314988 
L 369 281.314988 
z
" clip-path="url(#pe1951fbd57)" style="fill: #3274a1; stroke: #3f3f3f; stroke-width: 1.25; stroke-linejoin: miter"/>
   </g>
   <g id="matplotlib.axis_1">
    <g id="xtick_1">
     <g id="line2d_1">
      <defs>
       <path id="mf5e47bf217" d="M 0 0 
L 0 3.5 
" style="stroke: #000000; stroke-width: 0.8"/>
      </defs>
      <g>
       <use xlink:href="#mf5e47bf217" x="369" y="320.4" style="stroke: #000000; stroke-width: 0.8"/>
      </g>
     </g>
     <g id="text_1">
      <!-- 7 -->
      <g transform="translate(365.81875 334.998438) scale(0.1 -0.1)">
       <defs>
        <path id="DejaVuSans-37" d="M 525 4666 
L 3525 4666 
L 3525 4397 
L 1831 0 
L 1172 0 
L 2766 4134 
L 525 4134 
L 525 4666 
z
" transform="scale(0.015625)"/>
       </defs>
       <use xlink:href="#DejaVuSans-37"/>
      </g>
     </g>
    </g>
    <g id="text_2">
     <!-- value -->
     <g transform="translate(355.342188 348.676562) scale(0.1 -0.1)">
      <defs>
       <path id="DejaVuSans-76" d="M 191 3500 
L 800 3500 
L 1894 563 
L 2988 3500 
L 3597 3500 
L 2284 0 
L 1503 0 
L 191 3500 
z
" transform="scale(0.015625)"/>
       <path id="DejaVuSans-61" d="M 2194 1759 
Q 1497 1759 1228 1600 
Q 959 1441 959 1056 
Q 959 750 1161 570 
Q 1363 391 1709 391 
Q 2188 391 2477 730 
Q 2766 1069 2766 1631 
L 2766 1759 
L 2194 1759 
z
M 3341 1997 
L 3341 0 
L 2766 0 
L 2766 531 
Q 2569 213 2275 61 
Q 1981 -91 1556 -91 
Q 1019 -91 701 211 
Q 384 513 384 1019 
Q 384 1609 779 1909 
Q 1175 2209 1959 2209 
L 2766 2209 
L 2766 2266 
Q 2766 2663 2505 2880 
Q 2244 3097 1772 3097 
Q 1472 3097 1187 3025 
Q 903 2953 641 2809 
L 641 3341 
Q 956 3463 1253 3523 
Q 1550 3584 1831 3584 
Q 2591 3584 2966 3190 
Q 3341 2797 3341 1997 
z
" transform="scale(0.015625)"/>
       <path id="DejaVuSans-6c" d="M 603 4863 
L 1178 4863 
L 1178 0 
L 603 0 
L 603 4863 
z
" transform="scale(0.015625)"/>
       <path id="DejaVuSans-75" d="M 544 1381 
L 544 3500 
L 1119 3500 
L 1119 1403 
Q 1119 906 1312 657 
Q 1506 409 1894 409 
Q 2359 409 2629 706 
Q 2900 1003 2900 1516 
L 2900 3500 
L 3475 3500 
L 3475 0 
L 2900 0 
L 2900 538 
Q 2691 219 2414 64 
Q 2138 -91 1772 -91 
Q 1169 -91 856 284 
Q 544 659 544 1381 
z
M 1991 3584 
L 1991 3584 
z
" transform="scale(0.015625)"/>
       <path id="DejaVuSans-65" d="M 3597 1894 
L 3597 1613 
L 953 1613 
Q 991 1019 1311 708 
Q 1631 397 2203 397 
Q 2534 397 2845 478 
Q 3156 559 3463 722 
L 3463 178 
Q 3153 47 2828 -22 
Q 2503 -91 2169 -91 
Q 1331 -91 842 396 
Q 353 884 353 1716 
Q 353 2575 817 3079 
Q 1281 3584 2069 3584 
Q 2775 3584 3186 3129 
Q 3597 2675 3597 1894 
z
M 3022 2063 
Q 3016 2534 2758 2815 
Q 2500 3097 2075 3097 
Q 1594 3097 1305 2825 
Q 1016 2553 972 2059 
L 3022 2063 
z
" transform="scale(0.015625)"/>
      </defs>
      <use xlink:href="#DejaVuSans-76"/>
      <use xlink:href="#DejaVuSans-61" transform="translate(59.179688 0)"/>
      <use xlink:href="#DejaVuSans-6c" transform="translate(120.458984 0)"/>
      <use xlink:href="#DejaVuSans-75" transform="translate(148.242188 0)"/>
      <use xlink:href="#DejaVuSans-65" transform="translate(211.621094 0)"/>
     </g>
    </g>
   </g>
   <g id="matplotlib.axis_2">
    <g id="ytick_1">
     <g id="line2d_2">
      <defs>
       <path id="m0c71e98e7c" d="M 0 0 
L -3.5 0 
" style="stroke: #000000; stroke-width: 0.8"/>
      </defs>
      <g>
       <use xlink:href="#m0c71e98e7c" x="90" y="320.148331" style="stroke: #000000; stroke-width: 0.8"/>
      </g>
     </g>
     <g id="text_3">
      <!-- −10 -->
      <g transform="translate(61.895313 323.947549) scale(0.1 -0.1)">
       <defs>
        <path id="DejaVuSans-2212" d="M 678 2272 
L 4684 2272 
L 4684 1741 
L 678 1741 
L 678 2272 
z
" transform="scale(0.015625)"/>
        <path id="DejaVuSans-31" d="M 794 531 
L 1825 531 
L 1825 4091 
L 703 3866 
L 703 4441 
L 1819 4666 
L 2450 4666 
L 2450 531 
L 3481 531 
L 3481 0 
L 794 0 
L 794 531 
z
" transform="scale(0.015625)"/>
        <path id="DejaVuSans-30" d="M 2034 4250 
Q 1547 4250 1301 3770 
Q 1056 3291 1056 2328 
Q 1056 1369 1301 889 
Q 1547 409 2034 409 
Q 2525 409 2770 889 
Q 3016 1369 3016 2328 
Q 3016 3291 2770 3770 
Q 2525 4250 2034 4250 
z
M 2034 4750 
Q 2819 4750 3233 4129 
Q 3647 3509 3647 2328 
Q 3647 1150 3233 529 
Q 2819 -91 2034 -91 
Q 1250 -91 836 529 
Q 422 1150 422 2328 
Q 422 3509 836 4129 
Q 1250 4750 2034 4750 
z
" transform="scale(0.015625)"/>
       </defs>
       <use xlink:href="#DejaVuSans-2212"/>
       <use xlink:href="#DejaVuSans-31" transform="translate(83.789062 0)"/>
       <use xlink:href="#DejaVuSans-30" transform="translate(147.412109 0)"/>
      </g>
     </g>
    </g>
    <g id="ytick_2">
     <g id="line2d_3">
      <g>
       <use xlink:href="#m0c71e98e7c" x="90" y="281.314988" style="stroke: #000000; stroke-width: 0.8"/>
      </g>
     </g>
     <g id="text_4">
      <!-- 0 -->
      <g transform="translate(76.6375 285.114207) scale(0.1 -0.1)">
       <use xlink:href="#DejaVuSans-30"/>
      </g>
     </g>
    </g>
    <g id="ytick_3">
     <g id="line2d_4">
      <g>
       <use xlink:href="#m0c71e98e7c" x="90" y="242.481645" style="stroke: #000000; stroke-width: 0.8"/>
      </g>
     </g>
     <g id="text_5">
      <!-- 10 -->
      <g transform="translate(70.275 246.280864) scale(0.1 -0.1)">
       <use xlink:href="#DejaVuSans-31"/>
       <use xlink:href="#DejaVuSans-30" transform="translate(63.623047 0)"/>
      </g>
     </g>
    </g>
    <g id="ytick_4">
     <g id="line2d_5">
      <g>
       <use xlink:href="#m0c71e98e7c" x="90" y="203.648303" style="stroke: #000000; stroke-width: 0.8"/>
      </g>
     </g>
     <g id="text_6">
      <!-- 20 -->
      <g transform="translate(70.275 207.447521) scale(0.1 -0.1)">
       <defs>
        <path id="DejaVuSans-32" d="M 1228 531 
L 3431 531 
L 3431 0 
L 469 0 
L 469 531 
Q 828 903 1448 1529 
Q 2069 2156 2228 2338 
Q 2531 2678 2651 2914 
Q 2772 3150 2772 3378 
Q 2772 3750 2511 3984 
Q 2250 4219 1831 4219 
Q 1534 4219 1204 4116 
Q 875 4013 500 3803 
L 500 4441 
Q 881 4594 1212 4672 
Q 1544 4750 1819 4750 
Q 2544 4750 2975 4387 
Q 3406 4025 3406 3419 
Q 3406 3131 3298 2873 
Q 3191 2616 2906 2266 
Q 2828 2175 2409 1742 
Q 1991 1309 1228 531 
z
" transform="scale(0.015625)"/>
       </defs>
       <use xlink:href="#DejaVuSans-32"/>
       <use xlink:href="#DejaVuSans-30" transform="translate(63.623047 0)"/>
      </g>
     </g>
    </g>
    <g id="ytick_5">
     <g id="line2d_6">
      <g>
       <use xlink:href="#m0c71e98e7c" x="90" y="164.81496" style="stroke: #000000; stroke-width: 0.8"/>
      </g>
     </g>
     <g id="text_7">
      <!-- 30 -->
      <g transform="translate(70.275 168.614179) scale(0.1 -0.1)">
       <defs>
        <path id="DejaVuSans-33" d="M 2597 2516 
Q 3050 2419 3304 2112 
Q 3559 1806 3559 1356 
Q 3559 666 3084 287 
Q 2609 -91 1734 -91 
Q 1441 -91 1130 -33 
Q 819 25 488 141 
L 488 750 
Q 750 597 1062 519 
Q 1375 441 1716 441 
Q 2309 441 2620 675 
Q 2931 909 2931 1356 
Q 2931 1769 2642 2001 
Q 2353 2234 1838 2234 
L 1294 2234 
L 1294 2753 
L 1863 2753 
Q 2328 2753 2575 2939 
Q 2822 3125 2822 3475 
Q 2822 3834 2567 4026 
Q 2313 4219 1838 4219 
Q 1578 4219 1281 4162 
Q 984 4106 628 3988 
L 628 4550 
Q 988 4650 1302 4700 
Q 1616 4750 1894 4750 
Q 2613 4750 3031 4423 
Q 3450 4097 3450 3541 
Q 3450 3153 3228 2886 
Q 3006 2619 2597 2516 
z
" transform="scale(0.015625)"/>
       </defs>
       <use xlink:href="#DejaVuSans-33"/>
       <use xlink:href="#DejaVuSans-30" transform="translate(63.623047 0)"/>
      </g>
     </g>
    </g>
    <g id="ytick_6">
     <g id="line2d_7">
      <g>
       <use xlink:href="#m0c71e98e7c" x="90" y="125.981617" style="stroke: #000000; stroke-width: 0.8"/>
      </g>
     </g>
     <g id="text_8">
      <!-- 40 -->
      <g transform="translate(70.275 129.780836) scale(0.1 -0.1)">
       <defs>
        <path id="DejaVuSans-34" d="M 2419 4116 
L 825 1625 
L 2419 1625 
L 2419 4116 
z
M 2253 4666 
L 3047 4666 
L 3047 1625 
L 3713 1625 
L 3713 1100 
L 3047 1100 
L 3047 0 
L 2419 0 
L 2419 1100 
L 313 1100 
L 313 1709 
L 2253 4666 
z
" transform="scale(0.015625)"/>
       </defs>
       <use xlink:href="#DejaVuSans-34"/>
       <use xlink:href="#DejaVuSans-30" transform="translate(63.623047 0)"/>
      </g>
     </g>
    </g>
    <g id="ytick_7">
     <g id="line2d_8">
      <g>
       <use xlink:href="#m0c71e98e7c" x="90" y="87.148275" style="stroke: #000000; stroke-width: 0.8"/>
      </g>
     </g>
     <g id="text_9">
      <!-- 50 -->
      <g transform="translate(70.275 90.947493) scale(0.1 -0.1)">
       <defs>
        <path id="DejaVuSans-35" d="M 691 4666 
L 3169 4666 
L 3169 4134 
L 1269 4134 
L 1269 2991 
Q 1406 3038 1543 3061 
Q 1681 3084 1819 3084 
Q 2600 3084 3056 2656 
Q 3513 2228 3513 1497 
Q 3513 744 3044 326 
Q 2575 -91 1722 -91 
Q 1428 -91 1123 -41 
Q 819 9 494 109 
L 494 744 
Q 775 591 1075 516 
Q 1375 441 1709 441 
Q 2250 441 2565 725 
Q 2881 1009 2881 1497 
Q 2881 1984 2565 2268 
Q 2250 2553 1709 2553 
Q 1456 2553 1204 2497 
Q 953 2441 691 2322 
L 691 4666 
z
" transform="scale(0.015625)"/>
       </defs>
       <use xlink:href="#DejaVuSans-35"/>
       <use xlink:href="#DejaVuSans-30" transform="translate(63.623047 0)"/>
      </g>
     </g>
    </g>
    <g id="ytick_8">
     <g id="line2d_9">
      <g>
       <use xlink:href="#m0c71e98e7c" x="90" y="48.314932" style="stroke: #000000; stroke-width: 0.8"/>
      </g>
     </g>
     <g id="text_10">
      <!-- 60 -->
      <g transform="translate(70.275 52.114151) scale(0.1 -0.1)">
       <defs>
        <path id="DejaVuSans-36" d="M 2113 2584 
Q 1688 2584 1439 2293 
Q 1191 2003 1191 1497 
Q 1191 994 1439 701 
Q 1688 409 2113 409 
Q 2538 409 2786 701 
Q 3034 994 3034 1497 
Q 3034 2003 2786 2293 
Q 2538 2584 2113 2584 
z
M 3366 4563 
L 3366 3988 
Q 3128 4100 2886 4159 
Q 2644 4219 2406 4219 
Q 1781 4219 1451 3797 
Q 1122 3375 1075 2522 
Q 1259 2794 1537 2939 
Q 1816 3084 2150 3084 
Q 2853 3084 3261 2657 
Q 3669 2231 3669 1497 
Q 3669 778 3244 343 
Q 2819 -91 2113 -91 
Q 1303 -91 875 529 
Q 447 1150 447 2328 
Q 447 3434 972 4092 
Q 1497 4750 2381 4750 
Q 2619 4750 2861 4703 
Q 3103 4656 3366 4563 
z
" transform="scale(0.015625)"/>
       </defs>
       <use xlink:href="#DejaVuSans-36"/>
       <use xlink:href="#DejaVuSans-30" transform="translate(63.623047 0)"/>
      </g>
     </g>
    </g>
    <g id="text_11">
     <!-- cont_variable -->
     <g transform="translate(55.5375 215.409375) rotate(-90) scale(0.1 -0.1)">
      <defs>
       <path id="DejaVuSans-63" d="M 3122 3366 
L 3122 2828 
Q 2878 2963 2633 3030 
Q 2388 3097 2138 3097 
Q 1578 3097 1268 2742 
Q 959 2388 959 1747 
Q 959 1106 1268 751 
Q 1578 397 2138 397 
Q 2388 397 2633 464 
Q 2878 531 3122 666 
L 3122 134 
Q 2881 22 2623 -34 
Q 2366 -91 2075 -91 
Q 1284 -91 818 406 
Q 353 903 353 1747 
Q 353 2603 823 3093 
Q 1294 3584 2113 3584 
Q 2378 3584 2631 3529 
Q 2884 3475 3122 3366 
z
" transform="scale(0.015625)"/>
       <path id="DejaVuSans-6f" d="M 1959 3097 
Q 1497 3097 1228 2736 
Q 959 2375 959 1747 
Q 959 1119 1226 758 
Q 1494 397 1959 397 
Q 2419 397 2687 759 
Q 2956 1122 2956 1747 
Q 2956 2369 2687 2733 
Q 2419 3097 1959 3097 
z
M 1959 3584 
Q 2709 3584 3137 3096 
Q 3566 2609 3566 1747 
Q 3566 888 3137 398 
Q 2709 -91 1959 -91 
Q 1206 -91 779 398 
Q 353 888 353 1747 
Q 353 2609 779 3096 
Q 1206 3584 1959 3584 
z
" transform="scale(0.015625)"/>
       <path id="DejaVuSans-6e" d="M 3513 2113 
L 3513 0 
L 2938 0 
L 2938 2094 
Q 2938 2591 2744 2837 
Q 2550 3084 2163 3084 
Q 1697 3084 1428 2787 
Q 1159 2491 1159 1978 
L 1159 0 
L 581 0 
L 581 3500 
L 1159 3500 
L 1159 2956 
Q 1366 3272 1645 3428 
Q 1925 3584 2291 3584 
Q 2894 3584 3203 3211 
Q 3513 2838 3513 2113 
z
" transform="scale(0.015625)"/>
       <path id="DejaVuSans-74" d="M 1172 4494 
L 1172 3500 
L 2356 3500 
L 2356 3053 
L 1172 3053 
L 1172 1153 
Q 1172 725 1289 603 
Q 1406 481 1766 481 
L 2356 481 
L 2356 0 
L 1766 0 
Q 1100 0 847 248 
Q 594 497 594 1153 
L 594 3053 
L 172 3053 
L 172 3500 
L 594 3500 
L 594 4494 
L 1172 4494 
z
" transform="scale(0.015625)"/>
       <path id="DejaVuSans-5f" d="M 3263 -1063 
L 3263 -1509 
L -63 -1509 
L -63 -1063 
L 3263 -1063 
z
" transform="scale(0.015625)"/>
       <path id="DejaVuSans-72" d="M 2631 2963 
Q 2534 3019 2420 3045 
Q 2306 3072 2169 3072 
Q 1681 3072 1420 2755 
Q 1159 2438 1159 1844 
L 1159 0 
L 581 0 
L 581 3500 
L 1159 3500 
L 1159 2956 
Q 1341 3275 1631 3429 
Q 1922 3584 2338 3584 
Q 2397 3584 2469 3576 
Q 2541 3569 2628 3553 
L 2631 2963 
z
" transform="scale(0.015625)"/>
       <path id="DejaVuSans-69" d="M 603 3500 
L 1178 3500 
L 1178 0 
L 603 0 
L 603 3500 
z
M 603 4863 
L 1178 4863 
L 1178 4134 
L 603 4134 
L 603 4863 
z
" transform="scale(0.015625)"/>
       <path id="DejaVuSans-62" d="M 3116 1747 
Q 3116 2381 2855 2742 
Q 2594 3103 2138 3103 
Q 1681 3103 1420 2742 
Q 1159 2381 1159 1747 
Q 1159 1113 1420 752 
Q 1681 391 2138 391 
Q 2594 391 2855 752 
Q 3116 1113 3116 1747 
z
M 1159 2969 
Q 1341 3281 1617 3432 
Q 1894 3584 2278 3584 
Q 2916 3584 3314 3078 
Q 3713 2572 3713 1747 
Q 3713 922 3314 415 
Q 2916 -91 2278 -91 
Q 1894 -91 1617 61 
Q 1341 213 1159 525 
L 1159 0 
L 581 0 
L 581 4863 
L 1159 4863 
L 1159 2969 
z
" transform="scale(0.015625)"/>
      </defs>
      <use xlink:href="#DejaVuSans-63"/>
      <use xlink:href="#DejaVuSans-6f" transform="translate(54.980469 0)"/>
      <use xlink:href="#DejaVuSans-6e" transform="translate(116.162109 0)"/>
      <use xlink:href="#DejaVuSans-74" transform="translate(179.541016 0)"/>
      <use xlink:href="#DejaVuSans-5f" transform="translate(218.75 0)"/>
      <use xlink:href="#DejaVuSans-76" transform="translate(268.75 0)"/>
      <use xlink:href="#DejaVuSans-61" transform="translate(327.929688 0)"/>
      <use xlink:href="#DejaVuSans-72" transform="translate(389.208984 0)"/>
      <use xlink:href="#DejaVuSans-69" transform="translate(430.322266 0)"/>
      <use xlink:href="#DejaVuSans-61" transform="translate(458.105469 0)"/>
      <use xlink:href="#DejaVuSans-62" transform="translate(519.384766 0)"/>
      <use xlink:href="#DejaVuSans-6c" transform="translate(582.861328 0)"/>
      <use xlink:href="#DejaVuSans-65" transform="translate(610.644531 0)"/>
     </g>
    </g>
   </g>
   <g id="patch_4">
    <path d="M 90 320.4 
L 90 43.2 
" style="fill: none; stroke: #000000; stroke-width: 0.8; stroke-linejoin: miter; stroke-linecap: square"/>
   </g>
   <g id="patch_5">
    <path d="M 648 320.4 
L 648 43.2 
" style="fill: none; stroke: #000000; stroke-width: 0.8; stroke-linejoin: miter; stroke-linecap: square"/>
   </g>
   <g id="patch_6">
    <path d="M 90 320.4 
L 648 320.4 
" style="fill: none; stroke: #000000; stroke-width: 0.8; stroke-linejoin: miter; stroke-linecap: square"/>
   </g>
   <g id="patch_7">
    <path d="M 90 43.2 
L 648 43.2 
" style="fill: none; stroke: #000000; stroke-width: 0.8; stroke-linejoin: miter; stroke-linecap: square"/>
   </g>
   <g id="PathCollection_1">
    <defs>
     <path id="me4158df878" d="M 0 2.5 
C 0.663008 2.5 1.29895 2.236584 1.767767 1.767767 
C 2.236584 1.29895 2.5 0.663008 2.5 0 
C 2.5 -0.663008 2.236584 -1.29895 1.767767 -1.767767 
C 1.29895 -2.236584 0.663008 -2.5 0 -2.5 
C -0.663008 -2.5 -1.29895 -2.236584 -1.767767 -1.767767 
C -2.236584 -1.29895 -2.5 -0.663008 -2.5 0 
C -2.5 0.663008 -2.236584 1.29895 -1.767767 1.767767 
C -1.29895 2.236584 -0.663008 2.5 0 2.5 
z
"/>
    </defs>
    <g clip-path="url(#pe1951fbd57)">
     <use xlink:href="#me4158df878" x="339.103377" y="219.472676" style="fill-opacity: 0.3"/>
     <use xlink:href="#me4158df878" x="323.838443" y="230.38749" style="fill-opacity: 0.3"/>
     <use xlink:href="#me4158df878" x="400.131145" y="166.29792" style="fill-opacity: 0.3"/>
     <use xlink:href="#me4158df878" x="315.810431" y="125.916436" style="fill-opacity: 0.3"/>
     <use xlink:href="#me4158df878" x="418.382477" y="220.864747" style="fill-opacity: 0.3"/>
     <use xlink:href="#me4158df878" x="332.534254" y="232.213139" style="fill-opacity: 0.3"/>
     <use xlink:href="#me4158df878" x="348.204434" y="185.114158" style="fill-opacity: 0.3"/>
     <use xlink:href="#me4158df878" x="412.275907" y="171.655562" style="fill-opacity: 0.3"/>
     <use xlink:href="#me4158df878" x="320.372977" y="223.241254" style="fill-opacity: 0.3"/>
     <use xlink:href="#me4158df878" x="334.097571" y="223.33626" style="fill-opacity: 0.3"/>
     <use xlink:href="#me4158df878" x="318.724139" y="158.542851" style="fill-opacity: 0.3"/>
     <use xlink:href="#me4158df878" x="357.899607" y="170.958938" style="fill-opacity: 0.3"/>
     <use xlink:href="#me4158df878" x="382.094303" y="211.462798" style="fill-opacity: 0.3"/>
     <use xlink:href="#me4158df878" x="397.700043" y="185.436979" style="fill-opacity: 0.3"/>
     <use xlink:href="#me4158df878" x="380.377785" y="183.610981" style="fill-opacity: 0.3"/>
     <use xlink:href="#me4158df878" x="404.828829" y="175.842822" style="fill-opacity: 0.3"/>
     <use xlink:href="#me4158df878" x="320.795781" y="215.151337" style="fill-opacity: 0.3"/>
     <use xlink:href="#me4158df878" x="388.498519" y="183.14483" style="fill-opacity: 0.3"/>
     <use xlink:href="#me4158df878" x="381.797199" y="252.226026" style="fill-opacity: 0.3"/>
     <use xlink:href="#me4158df878" x="347.72432" y="193.555144" style="fill-opacity: 0.3"/>
     <use xlink:href="#me4158df878" x="407.105598" y="162.794127" style="fill-opacity: 0.3"/>
     <use xlink:href="#me4158df878" x="336.544295" y="182.746369" style="fill-opacity: 0.3"/>
     <use xlink:href="#me4158df878" x="406.509633" y="181.955997" style="fill-opacity: 0.3"/>
     <use xlink:href="#me4158df878" x="390.928353" y="200.104345" style="fill-opacity: 0.3"/>
     <use xlink:href="#me4158df878" x="408.480295" y="175.48811" style="fill-opacity: 0.3"/>
     <use xlink:href="#me4158df878" x="408.085505" y="188.427756" style="fill-opacity: 0.3"/>
     <use xlink:href="#me4158df878" x="394.778554" y="213.285985" style="fill-opacity: 0.3"/>
     <use xlink:href="#me4158df878" x="376.163625" y="190.383594" style="fill-opacity: 0.3"/>
     <use xlink:href="#me4158df878" x="422.624223" y="207.735562" style="fill-opacity: 0.3"/>
     <use xlink:href="#me4158df878" x="409.366469" y="174.673441" style="fill-opacity: 0.3"/>
     <use xlink:href="#me4158df878" x="333.741603" y="185.978573" style="fill-opacity: 0.3"/>
     <use xlink:href="#me4158df878" x="356.390383" y="209.40262" style="fill-opacity: 0.3"/>
     <use xlink:href="#me4158df878" x="388.016736" y="170.124185" style="fill-opacity: 0.3"/>
     <use xlink:href="#me4158df878" x="415.507186" y="150.510259" style="fill-opacity: 0.3"/>
     <use xlink:href="#me4158df878" x="358.057509" y="169.026987" style="fill-opacity: 0.3"/>
     <use xlink:href="#me4158df878" x="348.15359" y="160.022809" style="fill-opacity: 0.3"/>
     <use xlink:href="#me4158df878" x="339.549166" y="188.728552" style="fill-opacity: 0.3"/>
     <use xlink:href="#me4158df878" x="332.825619" y="165.260204" style="fill-opacity: 0.3"/>
     <use xlink:href="#me4158df878" x="407.800099" y="185.341077" style="fill-opacity: 0.3"/>
     <use xlink:href="#me4158df878" x="407.117135" y="176.249321" style="fill-opacity: 0.3"/>
     <use xlink:href="#me4158df878" x="327.680405" y="187.356139" style="fill-opacity: 0.3"/>
     <use xlink:href="#me4158df878" x="372.074329" y="220.525137" style="fill-opacity: 0.3"/>
     <use xlink:href="#me4158df878" x="326.867632" y="220.289378" style="fill-opacity: 0.3"/>
     <use xlink:href="#me4158df878" x="342.924038" y="232.390362" style="fill-opacity: 0.3"/>
     <use xlink:href="#me4158df878" x="404.095454" y="209.714583" style="fill-opacity: 0.3"/>
     <use xlink:href="#me4158df878" x="318.757431" y="218.715088" style="fill-opacity: 0.3"/>
     <use xlink:href="#me4158df878" x="385.021811" y="216.980546" style="fill-opacity: 0.3"/>
     <use xlink:href="#me4158df878" x="403.130048" y="156.140601" style="fill-opacity: 0.3"/>
     <use xlink:href="#me4158df878" x="334.591511" y="142.56027" style="fill-opacity: 0.3"/>
     <use xlink:href="#me4158df878" x="417.717077" y="154.30922" style="fill-opacity: 0.3"/>
     <use xlink:href="#me4158df878" x="410.189509" y="151.216727" style="fill-opacity: 0.3"/>
     <use xlink:href="#me4158df878" x="334.728142" y="141.530822" style="fill-opacity: 0.3"/>
     <use xlink:href="#me4158df878" x="408.085053" y="155.226747" style="fill-opacity: 0.3"/>
     <use xlink:href="#me4158df878" x="344.875111" y="148.672833" style="fill-opacity: 0.3"/>
     <use xlink:href="#me4158df878" x="390.747367" y="143.817678" style="fill-opacity: 0.3"/>
     <use xlink:href="#me4158df878" x="417.594083" y="126.390183" style="fill-opacity: 0.3"/>
     <use xlink:href="#me4158df878" x="366.543116" y="125.861972" style="fill-opacity: 0.3"/>
     <use xlink:href="#me4158df878" x="420.764335" y="117.026998" style="fill-opacity: 0.3"/>
     <use xlink:href="#me4158df878" x="339.81413" y="133.750499" style="fill-opacity: 0.3"/>
     <use xlink:href="#me4158df878" x="403.074671" y="118.867982" style="fill-opacity: 0.3"/>
     <use xlink:href="#me4158df878" x="372.368884" y="130.715324" style="fill-opacity: 0.3"/>
     <use xlink:href="#me4158df878" x="388.892926" y="134.722614" style="fill-opacity: 0.3"/>
     <use xlink:href="#me4158df878" x="343.49279" y="106.974133" style="fill-opacity: 0.3"/>
     <use xlink:href="#me4158df878" x="320.611036" y="162.912581" style="fill-opacity: 0.3"/>
     <use xlink:href="#me4158df878" x="365.081366" y="164.328588" style="fill-opacity: 0.3"/>
     <use xlink:href="#me4158df878" x="321.63957" y="152.261717" style="fill-opacity: 0.3"/>
     <use xlink:href="#me4158df878" x="332.670461" y="135.342977" style="fill-opacity: 0.3"/>
     <use xlink:href="#me4158df878" x="338.601122" y="143.84379" style="fill-opacity: 0.3"/>
     <use xlink:href="#me4158df878" x="313.546639" y="135.08858" style="fill-opacity: 0.3"/>
     <use xlink:href="#me4158df878" x="363.544797" y="118.493566" style="fill-opacity: 0.3"/>
     <use xlink:href="#me4158df878" x="335.510712" y="125.748074" style="fill-opacity: 0.3"/>
     <use xlink:href="#me4158df878" x="416.456894" y="205.17389" style="fill-opacity: 0.3"/>
     <use xlink:href="#me4158df878" x="316.600514" y="217.589776" style="fill-opacity: 0.3"/>
     <use xlink:href="#me4158df878" x="330.677504" y="226.91276" style="fill-opacity: 0.3"/>
     <use xlink:href="#me4158df878" x="400.955274" y="241.744344" style="fill-opacity: 0.3"/>
     <use xlink:href="#me4158df878" x="325.142043" y="83.51738" style="fill-opacity: 0.3"/>
     <use xlink:href="#me4158df878" x="324.867111" y="82.285012" style="fill-opacity: 0.3"/>
     <use xlink:href="#me4158df878" x="356.583148" y="83.793598" style="fill-opacity: 0.3"/>
     <use xlink:href="#me4158df878" x="351.900612" y="87.196063" style="fill-opacity: 0.3"/>
     <use xlink:href="#me4158df878" x="388.346204" y="83.491044" style="fill-opacity: 0.3"/>
     <use xlink:href="#me4158df878" x="395.158705" y="83.614262" style="fill-opacity: 0.3"/>
     <use xlink:href="#me4158df878" x="395.727822" y="91.132758" style="fill-opacity: 0.3"/>
     <use xlink:href="#me4158df878" x="351.702965" y="103.741385" style="fill-opacity: 0.3"/>
     <use xlink:href="#me4158df878" x="393.65494" y="83.925084" style="fill-opacity: 0.3"/>
     <use xlink:href="#me4158df878" x="321.864246" y="134.39243" style="fill-opacity: 0.3"/>
     <use xlink:href="#me4158df878" x="359.655555" y="225.414962" style="fill-opacity: 0.3"/>
     <use xlink:href="#me4158df878" x="352.731313" y="227.168128" style="fill-opacity: 0.3"/>
     <use xlink:href="#me4158df878" x="335.124171" y="236.740386" style="fill-opacity: 0.3"/>
     <use xlink:href="#me4158df878" x="347.243958" y="215.488795" style="fill-opacity: 0.3"/>
     <use xlink:href="#me4158df878" x="320.180008" y="217.386231" style="fill-opacity: 0.3"/>
     <use xlink:href="#me4158df878" x="410.419161" y="190.364973" style="fill-opacity: 0.3"/>
     <use xlink:href="#me4158df878" x="345.099478" y="179.400068" style="fill-opacity: 0.3"/>
     <use xlink:href="#me4158df878" x="408.946824" y="165.255854" style="fill-opacity: 0.3"/>
     <use xlink:href="#me4158df878" x="386.190398" y="176.518751" style="fill-opacity: 0.3"/>
     <use xlink:href="#me4158df878" x="344.35511" y="182.027451" style="fill-opacity: 0.3"/>
     <use xlink:href="#me4158df878" x="382.249898" y="171.628639" style="fill-opacity: 0.3"/>
     <use xlink:href="#me4158df878" x="356.667407" y="178.62132" style="fill-opacity: 0.3"/>
     <use xlink:href="#me4158df878" x="361.223522" y="166.183653" style="fill-opacity: 0.3"/>
     <use xlink:href="#me4158df878" x="387.788291" y="175.268278" style="fill-opacity: 0.3"/>
     <use xlink:href="#me4158df878" x="360.432308" y="162.183912" style="fill-opacity: 0.3"/>
     <use xlink:href="#me4158df878" x="314.426826" y="182.58429" style="fill-opacity: 0.3"/>
     <use xlink:href="#me4158df878" x="355.341617" y="158.230332" style="fill-opacity: 0.3"/>
     <use xlink:href="#me4158df878" x="390.631996" y="161.796522" style="fill-opacity: 0.3"/>
     <use xlink:href="#me4158df878" x="358.412288" y="154.114949" style="fill-opacity: 0.3"/>
     <use xlink:href="#me4158df878" x="340.242742" y="160.13421" style="fill-opacity: 0.3"/>
     <use xlink:href="#me4158df878" x="352.973447" y="166.715118" style="fill-opacity: 0.3"/>
     <use xlink:href="#me4158df878" x="393.167473" y="157.34798" style="fill-opacity: 0.3"/>
     <use xlink:href="#me4158df878" x="366.524781" y="158.165682" style="fill-opacity: 0.3"/>
     <use xlink:href="#me4158df878" x="369.507067" y="160.8892" style="fill-opacity: 0.3"/>
     <use xlink:href="#me4158df878" x="412.755746" y="158.378166" style="fill-opacity: 0.3"/>
     <use xlink:href="#me4158df878" x="339.400566" y="173.398014" style="fill-opacity: 0.3"/>
     <use xlink:href="#me4158df878" x="397.18718" y="132.985055" style="fill-opacity: 0.3"/>
     <use xlink:href="#me4158df878" x="319.306389" y="159.629544" style="fill-opacity: 0.3"/>
     <use xlink:href="#me4158df878" x="333.506143" y="144.184436" style="fill-opacity: 0.3"/>
     <use xlink:href="#me4158df878" x="365.824369" y="132.429789" style="fill-opacity: 0.3"/>
     <use xlink:href="#me4158df878" x="331.116714" y="132.634262" style="fill-opacity: 0.3"/>
     <use xlink:href="#me4158df878" x="378.27359" y="97.171937" style="fill-opacity: 0.3"/>
     <use xlink:href="#me4158df878" x="397.544498" y="128.885555" style="fill-opacity: 0.3"/>
     <use xlink:href="#me4158df878" x="407.589575" y="116.778115" style="fill-opacity: 0.3"/>
     <use xlink:href="#me4158df878" x="371.113067" y="107.108908" style="fill-opacity: 0.3"/>
     <use xlink:href="#me4158df878" x="385.472489" y="154.154275" style="fill-opacity: 0.3"/>
     <use xlink:href="#me4158df878" x="383.622562" y="154.729708" style="fill-opacity: 0.3"/>
     <use xlink:href="#me4158df878" x="355.819095" y="157.296623" style="fill-opacity: 0.3"/>
     <use xlink:href="#me4158df878" x="410.675386" y="146.962872" style="fill-opacity: 0.3"/>
     <use xlink:href="#me4158df878" x="331.243474" y="140.056852" style="fill-opacity: 0.3"/>
     <use xlink:href="#me4158df878" x="424.324065" y="151.890932" style="fill-opacity: 0.3"/>
     <use xlink:href="#me4158df878" x="314.238335" y="142.325356" style="fill-opacity: 0.3"/>
     <use xlink:href="#me4158df878" x="336.409028" y="143.165604" style="fill-opacity: 0.3"/>
     <use xlink:href="#me4158df878" x="314.372644" y="141.279904" style="fill-opacity: 0.3"/>
     <use xlink:href="#me4158df878" x="377.520921" y="124.708466" style="fill-opacity: 0.3"/>
     <use xlink:href="#me4158df878" x="377.539405" y="150.103065" style="fill-opacity: 0.3"/>
     <use xlink:href="#me4158df878" x="319.43064" y="164.992887" style="fill-opacity: 0.3"/>
     <use xlink:href="#me4158df878" x="335.32955" y="158.085833" style="fill-opacity: 0.3"/>
     <use xlink:href="#me4158df878" x="338.097862" y="192.922724" style="fill-opacity: 0.3"/>
     <use xlink:href="#me4158df878" x="364.888785" y="239.718715" style="fill-opacity: 0.3"/>
     <use xlink:href="#me4158df878" x="381.051255" y="281.314988" style="fill-opacity: 0.3"/>
     <use xlink:href="#me4158df878" x="335.991349" y="199.332645" style="fill-opacity: 0.3"/>
     <use xlink:href="#me4158df878" x="415.18399" y="189.672054" style="fill-opacity: 0.3"/>
     <use xlink:href="#me4158df878" x="424.22011" y="114.270724" style="fill-opacity: 0.3"/>
     <use xlink:href="#me4158df878" x="394.826051" y="132.420263" style="fill-opacity: 0.3"/>
     <use xlink:href="#me4158df878" x="329.072292" y="101.442234" style="fill-opacity: 0.3"/>
     <use xlink:href="#me4158df878" x="385.502821" y="172.501018" style="fill-opacity: 0.3"/>
     <use xlink:href="#me4158df878" x="377.944084" y="155.653697" style="fill-opacity: 0.3"/>
     <use xlink:href="#me4158df878" x="384.225642" y="166.769139" style="fill-opacity: 0.3"/>
     <use xlink:href="#me4158df878" x="323.116518" y="144.564941" style="fill-opacity: 0.3"/>
     <use xlink:href="#me4158df878" x="404.174473" y="138.458359" style="fill-opacity: 0.3"/>
     <use xlink:href="#me4158df878" x="415.182335" y="139.220778" style="fill-opacity: 0.3"/>
     <use xlink:href="#me4158df878" x="399.196437" y="148.025209" style="fill-opacity: 0.3"/>
     <use xlink:href="#me4158df878" x="351.031303" y="130.45052" style="fill-opacity: 0.3"/>
     <use xlink:href="#me4158df878" x="325.678529" y="85.386223" style="fill-opacity: 0.3"/>
     <use xlink:href="#me4158df878" x="364.424867" y="112.472352" style="fill-opacity: 0.3"/>
     <use xlink:href="#me4158df878" x="352.962044" y="123.184634" style="fill-opacity: 0.3"/>
     <use xlink:href="#me4158df878" x="348.394177" y="251.709985" style="fill-opacity: 0.3"/>
     <use xlink:href="#me4158df878" x="359.214598" y="127.56594" style="fill-opacity: 0.3"/>
     <use xlink:href="#me4158df878" x="343.961826" y="129.332799" style="fill-opacity: 0.3"/>
     <use xlink:href="#me4158df878" x="397.971194" y="137.528739" style="fill-opacity: 0.3"/>
     <use xlink:href="#me4158df878" x="367.188887" y="136.634302" style="fill-opacity: 0.3"/>
     <use xlink:href="#me4158df878" x="363.030393" y="170.857502" style="fill-opacity: 0.3"/>
     <use xlink:href="#me4158df878" x="313.877915" y="159.649221" style="fill-opacity: 0.3"/>
     <use xlink:href="#me4158df878" x="387.864467" y="124.256019" style="fill-opacity: 0.3"/>
     <use xlink:href="#me4158df878" x="323.51623" y="150.861495" style="fill-opacity: 0.3"/>
     <use xlink:href="#me4158df878" x="420.572039" y="145.070788" style="fill-opacity: 0.3"/>
     <use xlink:href="#me4158df878" x="374.964285" y="139.285454" style="fill-opacity: 0.3"/>
     <use xlink:href="#me4158df878" x="378.407137" y="130.362756" style="fill-opacity: 0.3"/>
     <use xlink:href="#me4158df878" x="370.132225" y="166.595197" style="fill-opacity: 0.3"/>
     <use xlink:href="#me4158df878" x="423.438878" y="140.479657" style="fill-opacity: 0.3"/>
     <use xlink:href="#me4158df878" x="365.863732" y="164.869622" style="fill-opacity: 0.3"/>
     <use xlink:href="#me4158df878" x="331.834981" y="128.314491" style="fill-opacity: 0.3"/>
     <use xlink:href="#me4158df878" x="322.471217" y="123.383162" style="fill-opacity: 0.3"/>
     <use xlink:href="#me4158df878" x="354.499448" y="129.003368" style="fill-opacity: 0.3"/>
     <use xlink:href="#me4158df878" x="321.817299" y="171.551726" style="fill-opacity: 0.3"/>
     <use xlink:href="#me4158df878" x="333.533932" y="169.949322" style="fill-opacity: 0.3"/>
     <use xlink:href="#me4158df878" x="365.026275" y="168.602116" style="fill-opacity: 0.3"/>
     <use xlink:href="#me4158df878" x="353.373701" y="171.057428" style="fill-opacity: 0.3"/>
     <use xlink:href="#me4158df878" x="370.323598" y="146.480819" style="fill-opacity: 0.3"/>
     <use xlink:href="#me4158df878" x="386.214552" y="164.804576" style="fill-opacity: 0.3"/>
     <use xlink:href="#me4158df878" x="316.722982" y="163.627844" style="fill-opacity: 0.3"/>
     <use xlink:href="#me4158df878" x="410.38553" y="97.750981" style="fill-opacity: 0.3"/>
     <use xlink:href="#me4158df878" x="404.324135" y="177.023813" style="fill-opacity: 0.3"/>
     <use xlink:href="#me4158df878" x="409.632038" y="180.166274" style="fill-opacity: 0.3"/>
     <use xlink:href="#me4158df878" x="315.341678" y="182.570966" style="fill-opacity: 0.3"/>
     <use xlink:href="#me4158df878" x="345.641483" y="203.599497" style="fill-opacity: 0.3"/>
     <use xlink:href="#me4158df878" x="407.954442" y="191.063441" style="fill-opacity: 0.3"/>
     <use xlink:href="#me4158df878" x="350.809473" y="147.142915" style="fill-opacity: 0.3"/>
     <use xlink:href="#me4158df878" x="353.077783" y="149.072389" style="fill-opacity: 0.3"/>
     <use xlink:href="#me4158df878" x="364.550837" y="124.812606" style="fill-opacity: 0.3"/>
     <use xlink:href="#me4158df878" x="372.57974" y="135.781903" style="fill-opacity: 0.3"/>
     <use xlink:href="#me4158df878" x="409.766346" y="193.742212" style="fill-opacity: 0.3"/>
     <use xlink:href="#me4158df878" x="354.864785" y="182.187743" style="fill-opacity: 0.3"/>
     <use xlink:href="#me4158df878" x="396.345532" y="182.360493" style="fill-opacity: 0.3"/>
     <use xlink:href="#me4158df878" x="366.404403" y="147.281147" style="fill-opacity: 0.3"/>
     <use xlink:href="#me4158df878" x="357.147148" y="161.119101" style="fill-opacity: 0.3"/>
     <use xlink:href="#me4158df878" x="403.897969" y="181.568033" style="fill-opacity: 0.3"/>
     <use xlink:href="#me4158df878" x="356.640125" y="199.183323" style="fill-opacity: 0.3"/>
    </g>
   </g>
   <g id="legend_1">
    <g id="patch_8">
     <path d="M 602.6375 65.878125 
L 641 65.878125 
Q 643 65.878125 643 63.878125 
L 643 50.2 
Q 643 48.2 641 48.2 
L 602.6375 48.2 
Q 600.6375 48.2 600.6375 50.2 
L 600.6375 63.878125 
Q 600.6375 65.878125 602.6375 65.878125 
z
" style="fill: #ffffff; opacity: 0.8; stroke: #cccccc; stroke-linejoin: miter"/>
    </g>
    <g id="patch_9">
     <path d="M 604.6375 59.798437 
L 624.6375 59.798437 
L 624.6375 52.798437 
L 604.6375 52.798437 
z
" style="fill: #3274a1; stroke: #3f3f3f; stroke-width: 1.25; stroke-linejoin: miter"/>
    </g>
    <g id="text_12">
     <!-- 7 -->
     <g transform="translate(632.6375 59.798437) scale(0.1 -0.1)">
      <use xlink:href="#DejaVuSans-37"/>
     </g>
    </g>
   </g>
  </g>
 </g>
 <defs>
  <clipPath id="pe1951fbd57">
   <rect x="90" y="43.2" width="558" height="277.2"/>
  </clipPath>
 </defs>
</svg>
