<?xml version="1.0" encoding="utf-8" standalone="no"?>
<!DOCTYPE svg PUBLIC "-//W3C//DTD SVG 1.1//EN"
  "http://www.w3.org/Graphics/SVG/1.1/DTD/svg11.dtd">
<svg xmlns:xlink="http://www.w3.org/1999/xlink" width="720pt" height="360pt" viewBox="0 0 720 360" xmlns="http://www.w3.org/2000/svg" version="1.1">
 <metadata>
  <rdf:RDF xmlns:dc="http://purl.org/dc/elements/1.1/" xmlns:cc="http://creativecommons.org/ns#" xmlns:rdf="http://www.w3.org/1999/02/22-rdf-syntax-ns#">
   <cc:Work>
    <dc:type rdf:resource="http://purl.org/dc/dcmitype/StillImage"/>
    <dc:date>2025-10-21T16:47:32.598614</dc:date>
    <dc:format>image/svg+xml</dc:format>
    <dc:creator>
     <cc:Agent>
      <dc:title>Matplotlib v3.10.3, https://matplotlib.org/</dc:title>
     </cc:Agent>
    </dc:creator>
   </cc:Work>
  </rdf:RDF>
 </metadata>
 <defs>
  <style type="text/css">*{stroke-linejoin: round; stroke-linecap: butt}</style>
 </defs>
 <g id="figure_1">
  <g id="patch_1">
   <path d="M 0 360 
L 720 360 
L 720 0 
L 0 0 
z
" style="fill: #ffffff"/>
  </g>
  <g id="axes_1">
   <g id="patch_2">
    <path d="M 90 320.4 
L 648 320.4 
L 648 43.2 
L 90 43.2 
z
" style="fill: #ffffff"/>
   </g>
   <g id="FillBetweenPolyCollection_1">
    <defs>
     <path id="m4b224bb9c5" d="M 232.409145 -60.333181 
L 226.590855 -60.333181 
L 225.737342 -62.714329 
L 224.709479 -65.095477 
L 223.496144 -67.476625 
L 222.093064 -69.857773 
L 220.504825 -72.238921 
L 218.746596 -74.620068 
L 216.845313 -77.001216 
L 214.840091 -79.382364 
L 212.781652 -81.763512 
L 210.730664 -84.14466 
L 208.754964 -86.525808 
L 206.925777 -88.906956 
L 205.313172 -91.288103 
L 203.981099 -93.669251 
L 202.982447 -96.050399 
L 202.354576 -98.431547 
L 202.115784 -100.812695 
L 202.263071 -103.193843 
L 202.771442 -105.574991 
L 203.594856 -107.956138 
L 204.668745 -110.337286 
L 205.913879 -112.718434 
L 207.24122 -115.099582 
L 208.557341 -117.48073 
L 209.769919 -119.861878 
L 210.792853 -122.243025 
L 211.550603 -124.624173 
L 211.981416 -127.005321 
L 212.039258 -129.386469 
L 211.694341 -131.767617 
L 210.932316 -134.148765 
L 209.752265 -136.529913 
L 208.163803 -138.91106 
L 206.183635 -141.292208 
L 203.832026 -143.673356 
L 201.129649 -146.054504 
L 198.095286 -148.435652 
L 194.744773 -150.8168 
L 191.091448 -153.197948 
L 187.148209 -155.579095 
L 182.931012 -157.960243 
L 178.463457 -160.341391 
L 173.781823 -162.722539 
L 168.939808 -165.103687 
L 164.012091 -167.484835 
L 159.095922 -169.865983 
L 154.310092 -172.24713 
L 149.790921 -174.628278 
L 145.685288 -177.009426 
L 142.141132 -179.390574 
L 139.296245 -181.771722 
L 137.266479 -184.15287 
L 136.134652 -186.534017 
L 135.941447 -188.915165 
L 136.679396 -191.296313 
L 138.290712 -193.677461 
L 140.669286 -196.058609 
L 143.666655 -198.439757 
L 147.101303 -200.820905 
L 150.77027 -203.202052 
L 154.461848 -205.5832 
L 157.968079 -207.964348 
L 161.095946 -210.345496 
L 163.676409 -212.726644 
L 165.570844 -215.107792 
L 166.674853 -217.48894 
L 166.919786 -219.870087 
L 166.272579 -222.251235 
L 164.734649 -224.632383 
L 162.340497 -227.013531 
L 159.156533 -229.394679 
L 155.280267 -231.775827 
L 150.839717 -234.156975 
L 145.992546 -236.538122 
L 140.924209 -238.91927 
L 135.844388 -241.300418 
L 130.981069 -243.681566 
L 126.571951 -246.062714 
L 122.853289 -248.443862 
L 120.046762 -250.825009 
L 118.34541 -253.206157 
L 117.9 -255.587305 
L 118.807325 -257.968453 
L 121.101867 -260.349601 
L 124.751925 -262.730749 
L 129.660823 -265.111897 
L 135.673244 -267.493044 
L 142.586103 -269.874192 
L 150.162856 -272.25534 
L 158.149797 -274.636488 
L 166.292701 -277.017636 
L 174.352257 -279.398784 
L 182.116973 -281.779932 
L 189.412625 -284.161079 
L 196.1078 -286.542227 
L 202.115537 -288.923375 
L 207.391478 -291.304523 
L 211.929247 -293.685671 
L 215.753925 -296.066819 
L 243.246075 -296.066819 
L 243.246075 -296.066819 
L 247.070753 -293.685671 
L 251.608522 -291.304523 
L 256.884463 -288.923375 
L 262.8922 -286.542227 
L 269.587375 -284.161079 
L 276.883027 -281.779932 
L 284.647743 -279.398784 
L 292.707299 -277.017636 
L 300.850203 -274.636488 
L 308.837144 -272.25534 
L 316.413897 -269.874192 
L 323.326756 -267.493044 
L 329.339177 -265.111897 
L 334.248075 -262.730749 
L 337.898133 -260.349601 
L 340.192675 -257.968453 
L 341.1 -255.587305 
L 340.65459 -253.206157 
L 338.953238 -250.825009 
L 336.146711 -248.443862 
L 332.428049 -246.062714 
L 328.018931 -243.681566 
L 323.155612 -241.300418 
L 318.075791 -238.91927 
L 313.007454 -236.538122 
L 308.160283 -234.156975 
L 303.719733 -231.775827 
L 299.843467 -229.394679 
L 296.659503 -227.013531 
L 294.265351 -224.632383 
L 292.727421 -222.251235 
L 292.080214 -219.870087 
L 292.325147 -217.48894 
L 293.429156 -215.107792 
L 295.323591 -212.726644 
L 297.904054 -210.345496 
L 301.031921 -207.964348 
L 304.538152 -205.5832 
L 308.22973 -203.202052 
L 311.898697 -200.820905 
L 315.333345 -198.439757 
L 318.330714 -196.058609 
L 320.709288 -193.677461 
L 322.320604 -191.296313 
L 323.058553 -188.915165 
L 322.865348 -186.534017 
L 321.733521 -184.15287 
L 319.703755 -181.771722 
L 316.858868 -179.390574 
L 313.314712 -177.009426 
L 309.209079 -174.628278 
L 304.689908 -172.24713 
L 299.904078 -169.865983 
L 294.987909 -167.484835 
L 290.060192 -165.103687 
L 285.218177 -162.722539 
L 280.536543 -160.341391 
L 276.068988 -157.960243 
L 271.851791 -155.579095 
L 267.908552 -153.197948 
L 264.255227 -150.8168 
L 260.904714 -148.435652 
L 257.870351 -146.054504 
L 255.167974 -143.673356 
L 252.816365 -141.292208 
L 250.836197 -138.91106 
L 249.247735 -136.529913 
L 248.067684 -134.148765 
L 247.305659 -131.767617 
L 246.960742 -129.386469 
L 247.018584 -127.005321 
L 247.449397 -124.624173 
L 248.207147 -122.243025 
L 249.230081 -119.861878 
L 250.442659 -117.48073 
L 251.75878 -115.099582 
L 253.086121 -112.718434 
L 254.331255 -110.337286 
L 255.405144 -107.956138 
L 256.228558 -105.574991 
L 256.736929 -103.193843 
L 256.884216 -100.812695 
L 256.645424 -98.431547 
L 256.017553 -96.050399 
L 255.018901 -93.669251 
L 253.686828 -91.288103 
L 252.074223 -88.906956 
L 250.245036 -86.525808 
L 248.269336 -84.14466 
L 246.218348 -81.763512 
L 244.159909 -79.382364 
L 242.154687 -77.001216 
L 240.253404 -74.620068 
L 238.495175 -72.238921 
L 236.906936 -69.857773 
L 235.503856 -67.476625 
L 234.290521 -65.095477 
L 233.262658 -62.714329 
L 232.409145 -60.333181 
z
" style="stroke: #3f3f3f; stroke-width: 1.25"/>
    </defs>
    <g clip-path="url(#pb158a84059)">
     <use xlink:href="#m4b224bb9c5" x="0" y="360" style="fill: #3274a1; stroke: #3f3f3f; stroke-width: 1.25"/>
    </g>
   </g>
   <g id="FillBetweenPolyCollection_2">
    <defs>
     <path id="m65bdd969cc" d="M 512.588268 -52.2 
L 504.411732 -52.2 
L 503.404008 -54.745455 
L 502.225139 -57.290909 
L 500.867455 -59.836364 
L 499.328726 -62.381818 
L 497.613415 -64.927273 
L 495.733733 -67.472727 
L 493.710355 -70.018182 
L 491.572696 -72.563636 
L 489.358618 -75.109091 
L 487.113519 -77.654545 
L 484.888756 -80.2 
L 482.739457 -82.745455 
L 480.721796 -85.290909 
L 478.889879 -87.836364 
L 477.292465 -90.381818 
L 475.969729 -92.927273 
L 474.950346 -95.472727 
L 474.249122 -98.018182 
L 473.86541 -100.563636 
L 473.782444 -103.109091 
L 473.967703 -105.654545 
L 474.3743 -108.2 
L 474.943316 -110.745455 
L 475.606921 -113.290909 
L 476.292054 -115.836364 
L 476.924389 -118.381818 
L 477.432298 -120.927273 
L 477.750522 -123.472727 
L 477.823292 -126.018182 
L 477.606728 -128.563636 
L 477.070362 -131.109091 
L 476.197769 -133.654545 
L 474.986348 -136.2 
L 473.446357 -138.745455 
L 471.599403 -141.290909 
L 469.476587 -143.836364 
L 467.116528 -146.381818 
L 464.563498 -148.927273 
L 461.865793 -151.472727 
L 459.074483 -154.018182 
L 456.242534 -156.563636 
L 453.424269 -159.109091 
L 450.675034 -161.654545 
L 448.050912 -164.2 
L 445.608277 -166.745455 
L 443.403015 -169.290909 
L 441.489259 -171.836364 
L 439.917571 -174.381818 
L 438.732573 -176.927273 
L 437.970142 -179.472727 
L 437.654356 -182.018182 
L 437.794446 -184.563636 
L 438.382078 -187.109091 
L 439.38925 -189.654545 
L 440.7671 -192.2 
L 442.445838 -194.745455 
L 444.335935 -197.290909 
L 446.330611 -199.836364 
L 448.30955 -202.381818 
L 450.143703 -204.927273 
L 451.700937 -207.472727 
L 452.852273 -210.018182 
L 453.478382 -212.563636 
L 453.476044 -215.109091 
L 452.764239 -217.654545 
L 451.289568 -220.2 
L 449.030723 -222.745455 
L 446.001738 -225.290909 
L 442.253784 -227.836364 
L 437.875298 -230.381818 
L 432.99031 -232.927273 
L 427.754879 -235.472727 
L 422.35165 -238.018182 
L 416.982673 -240.563636 
L 411.860728 -243.109091 
L 407.199569 -245.654545 
L 403.203589 -248.2 
L 400.057541 -250.745455 
L 397.916963 -253.290909 
L 396.9 -255.836364 
L 397.081205 -258.381818 
L 398.4878 -260.927273 
L 401.098699 -263.472727 
L 404.846362 -266.018182 
L 409.621335 -268.563636 
L 415.279121 -271.109091 
L 421.648812 -273.654545 
L 428.542838 -276.2 
L 435.767068 -278.745455 
L 443.130564 -281.290909 
L 450.454324 -283.836364 
L 457.57851 -286.381818 
L 464.36781 -288.927273 
L 470.714771 -291.472727 
L 476.541122 -294.018182 
L 481.797251 -296.563636 
L 486.460152 -299.109091 
L 490.530186 -301.654545 
L 494.027087 -304.2 
L 522.972913 -304.2 
L 522.972913 -304.2 
L 526.469814 -301.654545 
L 530.539848 -299.109091 
L 535.202749 -296.563636 
L 540.458878 -294.018182 
L 546.285229 -291.472727 
L 552.63219 -288.927273 
L 559.42149 -286.381818 
L 566.545676 -283.836364 
L 573.869436 -281.290909 
L 581.232932 -278.745455 
L 588.457162 -276.2 
L 595.351188 -273.654545 
L 601.720879 -271.109091 
L 607.378665 -268.563636 
L 612.153638 -266.018182 
L 615.901301 -263.472727 
L 618.5122 -260.927273 
L 619.918795 -258.381818 
L 620.1 -255.836364 
L 619.083037 -253.290909 
L 616.942459 -250.745455 
L 613.796411 -248.2 
L 609.800431 -245.654545 
L 605.139272 -243.109091 
L 600.017327 -240.563636 
L 594.64835 -238.018182 
L 589.245121 -235.472727 
L 584.00969 -232.927273 
L 579.124702 -230.381818 
L 574.746216 -227.836364 
L 570.998262 -225.290909 
L 567.969277 -222.745455 
L 565.710432 -220.2 
L 564.235761 -217.654545 
L 563.523956 -215.109091 
L 563.521618 -212.563636 
L 564.147727 -210.018182 
L 565.299063 -207.472727 
L 566.856297 -204.927273 
L 568.69045 -202.381818 
L 570.669389 -199.836364 
L 572.664065 -197.290909 
L 574.554162 -194.745455 
L 576.2329 -192.2 
L 577.61075 -189.654545 
L 578.617922 -187.109091 
L 579.205554 -184.563636 
L 579.345644 -182.018182 
L 579.029858 -179.472727 
L 578.267427 -176.927273 
L 577.082429 -174.381818 
L 575.510741 -171.836364 
L 573.596985 -169.290909 
L 571.391723 -166.745455 
L 568.949088 -164.2 
L 566.324966 -161.654545 
L 563.575731 -159.109091 
L 560.757466 -156.563636 
L 557.925517 -154.018182 
L 555.134207 -151.472727 
L 552.436502 -148.927273 
L 549.883472 -146.381818 
L 547.523413 -143.836364 
L 545.400597 -141.290909 
L 543.553643 -138.745455 
L 542.013652 -136.2 
L 540.802231 -133.654545 
L 539.929638 -131.109091 
L 539.393272 -128.563636 
L 539.176708 -126.018182 
L 539.249478 -123.472727 
L 539.567702 -120.927273 
L 540.075611 -118.381818 
L 540.707946 -115.836364 
L 541.393079 -113.290909 
L 542.056684 -110.745455 
L 542.6257 -108.2 
L 543.032297 -105.654545 
L 543.217556 -103.109091 
L 543.13459 -100.563636 
L 542.750878 -98.018182 
L 542.049654 -95.472727 
L 541.030271 -92.927273 
L 539.707535 -90.381818 
L 538.110121 -87.836364 
L 536.278204 -85.290909 
L 534.260543 -82.745455 
L 532.111244 -80.2 
L 529.886481 -77.654545 
L 527.641382 -75.109091 
L 525.427304 -72.563636 
L 523.289645 -70.018182 
L 521.266267 -67.472727 
L 519.386585 -64.927273 
L 517.671274 -62.381818 
L 516.132545 -59.836364 
L 514.774861 -57.290909 
L 513.595992 -54.745455 
L 512.588268 -52.2 
z
" style="stroke: #3f3f3f; stroke-width: 1.25"/>
    </defs>
    <g clip-path="url(#pb158a84059)">
     <use xlink:href="#m65bdd969cc" x="0" y="360" style="fill: #e1812c; stroke: #3f3f3f; stroke-width: 1.25"/>
    </g>
   </g>
   <g id="matplotlib.axis_1">
    <g id="xtick_1">
     <g id="line2d_1">
      <defs>
       <path id="m490e486a60" d="M 0 0 
L 0 3.5 
" style="stroke: #000000; stroke-width: 0.8"/>
      </defs>
      <g>
       <use xlink:href="#m490e486a60" x="229.5" y="320.4" style="stroke: #000000; stroke-width: 0.8"/>
      </g>
     </g>
     <g id="text_1">
      <!-- other -->
      <g transform="translate(216.179688 334.998438) scale(0.1 -0.1)">
       <defs>
        <path id="DejaVuSans-6f" d="M 1959 3097 
Q 1497 3097 1228 2736 
Q 959 2375 959 1747 
Q 959 1119 1226 758 
Q 1494 397 1959 397 
Q 2419 397 2687 759 
Q 2956 1122 2956 1747 
Q 2956 2369 2687 2733 
Q 2419 3097 1959 3097 
z
M 1959 3584 
Q 2709 3584 3137 3096 
Q 3566 2609 3566 1747 
Q 3566 888 3137 398 
Q 2709 -91 1959 -91 
Q 1206 -91 779 398 
Q 353 888 353 1747 
Q 353 2609 779 3096 
Q 1206 3584 1959 3584 
z
" transform="scale(0.015625)"/>
        <path id="DejaVuSans-74" d="M 1172 4494 
L 1172 3500 
L 2356 3500 
L 2356 3053 
L 1172 3053 
L 1172 1153 
Q 1172 725 1289 603 
Q 1406 481 1766 481 
L 2356 481 
L 2356 0 
L 1766 0 
Q 1100 0 847 248 
Q 594 497 594 1153 
L 594 3053 
L 172 3053 
L 172 3500 
L 594 3500 
L 594 4494 
L 1172 4494 
z
" transform="scale(0.015625)"/>
        <path id="DejaVuSans-68" d="M 3513 2113 
L 3513 0 
L 2938 0 
L 2938 2094 
Q 2938 2591 2744 2837 
Q 2550 3084 2163 3084 
Q 1697 3084 1428 2787 
Q 1159 2491 1159 1978 
L 1159 0 
L 581 0 
L 581 4863 
L 1159 4863 
L 1159 2956 
Q 1366 3272 1645 3428 
Q 1925 3584 2291 3584 
Q 2894 3584 3203 3211 
Q 3513 2838 3513 2113 
z
" transform="scale(0.015625)"/>
        <path id="DejaVuSans-65" d="M 3597 1894 
L 3597 1613 
L 953 1613 
Q 991 1019 1311 708 
Q 1631 397 2203 397 
Q 2534 397 2845 478 
Q 3156 559 3463 722 
L 3463 178 
Q 3153 47 2828 -22 
Q 2503 -91 2169 -91 
Q 1331 -91 842 396 
Q 353 884 353 1716 
Q 353 2575 817 3079 
Q 1281 3584 2069 3584 
Q 2775 3584 3186 3129 
Q 3597 2675 3597 1894 
z
M 3022 2063 
Q 3016 2534 2758 2815 
Q 2500 3097 2075 3097 
Q 1594 3097 1305 2825 
Q 1016 2553 972 2059 
L 3022 2063 
z
" transform="scale(0.015625)"/>
        <path id="DejaVuSans-72" d="M 2631 2963 
Q 2534 3019 2420 3045 
Q 2306 3072 2169 3072 
Q 1681 3072 1420 2755 
Q 1159 2438 1159 1844 
L 1159 0 
L 581 0 
L 581 3500 
L 1159 3500 
L 1159 2956 
Q 1341 3275 1631 3429 
Q 1922 3584 2338 3584 
Q 2397 3584 2469 3576 
Q 2541 3569 2628 3553 
L 2631 2963 
z
" transform="scale(0.015625)"/>
       </defs>
       <use xlink:href="#DejaVuSans-6f"/>
       <use xlink:href="#DejaVuSans-74" transform="translate(61.181641 0)"/>
       <use xlink:href="#DejaVuSans-68" transform="translate(100.390625 0)"/>
       <use xlink:href="#DejaVuSans-65" transform="translate(163.769531 0)"/>
       <use xlink:href="#DejaVuSans-72" transform="translate(225.292969 0)"/>
      </g>
     </g>
    </g>
    <g id="xtick_2">
     <g id="line2d_2">
      <g>
       <use xlink:href="#m490e486a60" x="508.5" y="320.4" style="stroke: #000000; stroke-width: 0.8"/>
      </g>
     </g>
     <g id="text_2">
      <!-- Specific -->
      <g transform="translate(489.038281 334.998438) scale(0.1 -0.1)">
       <defs>
        <path id="DejaVuSans-53" d="M 3425 4513 
L 3425 3897 
Q 3066 4069 2747 4153 
Q 2428 4238 2131 4238 
Q 1616 4238 1336 4038 
Q 1056 3838 1056 3469 
Q 1056 3159 1242 3001 
Q 1428 2844 1947 2747 
L 2328 2669 
Q 3034 2534 3370 2195 
Q 3706 1856 3706 1288 
Q 3706 609 3251 259 
Q 2797 -91 1919 -91 
Q 1588 -91 1214 -16 
Q 841 59 441 206 
L 441 856 
Q 825 641 1194 531 
Q 1563 422 1919 422 
Q 2459 422 2753 634 
Q 3047 847 3047 1241 
Q 3047 1584 2836 1778 
Q 2625 1972 2144 2069 
L 1759 2144 
Q 1053 2284 737 2584 
Q 422 2884 422 3419 
Q 422 4038 858 4394 
Q 1294 4750 2059 4750 
Q 2388 4750 2728 4690 
Q 3069 4631 3425 4513 
z
" transform="scale(0.015625)"/>
        <path id="DejaVuSans-70" d="M 1159 525 
L 1159 -1331 
L 581 -1331 
L 581 3500 
L 1159 3500 
L 1159 2969 
Q 1341 3281 1617 3432 
Q 1894 3584 2278 3584 
Q 2916 3584 3314 3078 
Q 3713 2572 3713 1747 
Q 3713 922 3314 415 
Q 2916 -91 2278 -91 
Q 1894 -91 1617 61 
Q 1341 213 1159 525 
z
M 3116 1747 
Q 3116 2381 2855 2742 
Q 2594 3103 2138 3103 
Q 1681 3103 1420 2742 
Q 1159 2381 1159 1747 
Q 1159 1113 1420 752 
Q 1681 391 2138 391 
Q 2594 391 2855 752 
Q 3116 1113 3116 1747 
z
" transform="scale(0.015625)"/>
        <path id="DejaVuSans-63" d="M 3122 3366 
L 3122 2828 
Q 2878 2963 2633 3030 
Q 2388 3097 2138 3097 
Q 1578 3097 1268 2742 
Q 959 2388 959 1747 
Q 959 1106 1268 751 
Q 1578 397 2138 397 
Q 2388 397 2633 464 
Q 2878 531 3122 666 
L 3122 134 
Q 2881 22 2623 -34 
Q 2366 -91 2075 -91 
Q 1284 -91 818 406 
Q 353 903 353 1747 
Q 353 2603 823 3093 
Q 1294 3584 2113 3584 
Q 2378 3584 2631 3529 
Q 2884 3475 3122 3366 
z
" transform="scale(0.015625)"/>
        <path id="DejaVuSans-69" d="M 603 3500 
L 1178 3500 
L 1178 0 
L 603 0 
L 603 3500 
z
M 603 4863 
L 1178 4863 
L 1178 4134 
L 603 4134 
L 603 4863 
z
" transform="scale(0.015625)"/>
        <path id="DejaVuSans-66" d="M 2375 4863 
L 2375 4384 
L 1825 4384 
Q 1516 4384 1395 4259 
Q 1275 4134 1275 3809 
L 1275 3500 
L 2222 3500 
L 2222 3053 
L 1275 3053 
L 1275 0 
L 697 0 
L 697 3053 
L 147 3053 
L 147 3500 
L 697 3500 
L 697 3744 
Q 697 4328 969 4595 
Q 1241 4863 1831 4863 
L 2375 4863 
z
" transform="scale(0.015625)"/>
       </defs>
       <use xlink:href="#DejaVuSans-53"/>
       <use xlink:href="#DejaVuSans-70" transform="translate(63.476562 0)"/>
       <use xlink:href="#DejaVuSans-65" transform="translate(126.953125 0)"/>
       <use xlink:href="#DejaVuSans-63" transform="translate(188.476562 0)"/>
       <use xlink:href="#DejaVuSans-69" transform="translate(243.457031 0)"/>
       <use xlink:href="#DejaVuSans-66" transform="translate(271.240234 0)"/>
       <use xlink:href="#DejaVuSans-69" transform="translate(306.445312 0)"/>
       <use xlink:href="#DejaVuSans-63" transform="translate(334.228516 0)"/>
      </g>
     </g>
    </g>
    <g id="text_3">
     <!-- Connectivity category -->
     <g transform="translate(313.98125 348.676562) scale(0.1 -0.1)">
      <defs>
       <path id="DejaVuSans-43" d="M 4122 4306 
L 4122 3641 
Q 3803 3938 3442 4084 
Q 3081 4231 2675 4231 
Q 1875 4231 1450 3742 
Q 1025 3253 1025 2328 
Q 1025 1406 1450 917 
Q 1875 428 2675 428 
Q 3081 428 3442 575 
Q 3803 722 4122 1019 
L 4122 359 
Q 3791 134 3420 21 
Q 3050 -91 2638 -91 
Q 1578 -91 968 557 
Q 359 1206 359 2328 
Q 359 3453 968 4101 
Q 1578 4750 2638 4750 
Q 3056 4750 3426 4639 
Q 3797 4528 4122 4306 
z
" transform="scale(0.015625)"/>
       <path id="DejaVuSans-6e" d="M 3513 2113 
L 3513 0 
L 2938 0 
L 2938 2094 
Q 2938 2591 2744 2837 
Q 2550 3084 2163 3084 
Q 1697 3084 1428 2787 
Q 1159 2491 1159 1978 
L 1159 0 
L 581 0 
L 581 3500 
L 1159 3500 
L 1159 2956 
Q 1366 3272 1645 3428 
Q 1925 3584 2291 3584 
Q 2894 3584 3203 3211 
Q 3513 2838 3513 2113 
z
" transform="scale(0.015625)"/>
       <path id="DejaVuSans-76" d="M 191 3500 
L 800 3500 
L 1894 563 
L 2988 3500 
L 3597 3500 
L 2284 0 
L 1503 0 
L 191 3500 
z
" transform="scale(0.015625)"/>
       <path id="DejaVuSans-79" d="M 2059 -325 
Q 1816 -950 1584 -1140 
Q 1353 -1331 966 -1331 
L 506 -1331 
L 506 -850 
L 844 -850 
Q 1081 -850 1212 -737 
Q 1344 -625 1503 -206 
L 1606 56 
L 191 3500 
L 800 3500 
L 1894 763 
L 2988 3500 
L 3597 3500 
L 2059 -325 
z
" transform="scale(0.015625)"/>
       <path id="DejaVuSans-20" transform="scale(0.015625)"/>
       <path id="DejaVuSans-61" d="M 2194 1759 
Q 1497 1759 1228 1600 
Q 959 1441 959 1056 
Q 959 750 1161 570 
Q 1363 391 1709 391 
Q 2188 391 2477 730 
Q 2766 1069 2766 1631 
L 2766 1759 
L 2194 1759 
z
M 3341 1997 
L 3341 0 
L 2766 0 
L 2766 531 
Q 2569 213 2275 61 
Q 1981 -91 1556 -91 
Q 1019 -91 701 211 
Q 384 513 384 1019 
Q 384 1609 779 1909 
Q 1175 2209 1959 2209 
L 2766 2209 
L 2766 2266 
Q 2766 2663 2505 2880 
Q 2244 3097 1772 3097 
Q 1472 3097 1187 3025 
Q 903 2953 641 2809 
L 641 3341 
Q 956 3463 1253 3523 
Q 1550 3584 1831 3584 
Q 2591 3584 2966 3190 
Q 3341 2797 3341 1997 
z
" transform="scale(0.015625)"/>
       <path id="DejaVuSans-67" d="M 2906 1791 
Q 2906 2416 2648 2759 
Q 2391 3103 1925 3103 
Q 1463 3103 1205 2759 
Q 947 2416 947 1791 
Q 947 1169 1205 825 
Q 1463 481 1925 481 
Q 2391 481 2648 825 
Q 2906 1169 2906 1791 
z
M 3481 434 
Q 3481 -459 3084 -895 
Q 2688 -1331 1869 -1331 
Q 1566 -1331 1297 -1286 
Q 1028 -1241 775 -1147 
L 775 -588 
Q 1028 -725 1275 -790 
Q 1522 -856 1778 -856 
Q 2344 -856 2625 -561 
Q 2906 -266 2906 331 
L 2906 616 
Q 2728 306 2450 153 
Q 2172 0 1784 0 
Q 1141 0 747 490 
Q 353 981 353 1791 
Q 353 2603 747 3093 
Q 1141 3584 1784 3584 
Q 2172 3584 2450 3431 
Q 2728 3278 2906 2969 
L 2906 3500 
L 3481 3500 
L 3481 434 
z
" transform="scale(0.015625)"/>
      </defs>
      <use xlink:href="#DejaVuSans-43"/>
      <use xlink:href="#DejaVuSans-6f" transform="translate(69.824219 0)"/>
      <use xlink:href="#DejaVuSans-6e" transform="translate(131.005859 0)"/>
      <use xlink:href="#DejaVuSans-6e" transform="translate(194.384766 0)"/>
      <use xlink:href="#DejaVuSans-65" transform="translate(257.763672 0)"/>
      <use xlink:href="#DejaVuSans-63" transform="translate(319.287109 0)"/>
      <use xlink:href="#DejaVuSans-74" transform="translate(374.267578 0)"/>
      <use xlink:href="#DejaVuSans-69" transform="translate(413.476562 0)"/>
      <use xlink:href="#DejaVuSans-76" transform="translate(441.259766 0)"/>
      <use xlink:href="#DejaVuSans-69" transform="translate(500.439453 0)"/>
      <use xlink:href="#DejaVuSans-74" transform="translate(528.222656 0)"/>
      <use xlink:href="#DejaVuSans-79" transform="translate(567.431641 0)"/>
      <use xlink:href="#DejaVuSans-20" transform="translate(626.611328 0)"/>
      <use xlink:href="#DejaVuSans-63" transform="translate(658.398438 0)"/>
      <use xlink:href="#DejaVuSans-61" transform="translate(713.378906 0)"/>
      <use xlink:href="#DejaVuSans-74" transform="translate(774.658203 0)"/>
      <use xlink:href="#DejaVuSans-65" transform="translate(813.867188 0)"/>
      <use xlink:href="#DejaVuSans-67" transform="translate(875.390625 0)"/>
      <use xlink:href="#DejaVuSans-6f" transform="translate(938.867188 0)"/>
      <use xlink:href="#DejaVuSans-72" transform="translate(1000.048828 0)"/>
      <use xlink:href="#DejaVuSans-79" transform="translate(1041.162109 0)"/>
     </g>
    </g>
   </g>
   <g id="matplotlib.axis_2">
    <g id="ytick_1">
     <g id="line2d_3">
      <defs>
       <path id="m1505a8a35d" d="M 0 0 
L -3.5 0 
" style="stroke: #000000; stroke-width: 0.8"/>
      </defs>
      <g>
       <use xlink:href="#m1505a8a35d" x="90" y="307.168586" style="stroke: #000000; stroke-width: 0.8"/>
      </g>
     </g>
     <g id="text_4">
      <!-- 0 -->
      <g transform="translate(76.6375 310.967804) scale(0.1 -0.1)">
       <defs>
        <path id="DejaVuSans-30" d="M 2034 4250 
Q 1547 4250 1301 3770 
Q 1056 3291 1056 2328 
Q 1056 1369 1301 889 
Q 1547 409 2034 409 
Q 2525 409 2770 889 
Q 3016 1369 3016 2328 
Q 3016 3291 2770 3770 
Q 2525 4250 2034 4250 
z
M 2034 4750 
Q 2819 4750 3233 4129 
Q 3647 3509 3647 2328 
Q 3647 1150 3233 529 
Q 2819 -91 2034 -91 
Q 1250 -91 836 529 
Q 422 1150 422 2328 
Q 422 3509 836 4129 
Q 1250 4750 2034 4750 
z
" transform="scale(0.015625)"/>
       </defs>
       <use xlink:href="#DejaVuSans-30"/>
      </g>
     </g>
    </g>
    <g id="ytick_2">
     <g id="line2d_4">
      <g>
       <use xlink:href="#m1505a8a35d" x="90" y="266.064131" style="stroke: #000000; stroke-width: 0.8"/>
      </g>
     </g>
     <g id="text_5">
      <!-- 100 -->
      <g transform="translate(63.9125 269.86335) scale(0.1 -0.1)">
       <defs>
        <path id="DejaVuSans-31" d="M 794 531 
L 1825 531 
L 1825 4091 
L 703 3866 
L 703 4441 
L 1819 4666 
L 2450 4666 
L 2450 531 
L 3481 531 
L 3481 0 
L 794 0 
L 794 531 
z
" transform="scale(0.015625)"/>
       </defs>
       <use xlink:href="#DejaVuSans-31"/>
       <use xlink:href="#DejaVuSans-30" transform="translate(63.623047 0)"/>
       <use xlink:href="#DejaVuSans-30" transform="translate(127.246094 0)"/>
      </g>
     </g>
    </g>
    <g id="ytick_3">
     <g id="line2d_5">
      <g>
       <use xlink:href="#m1505a8a35d" x="90" y="224.959677" style="stroke: #000000; stroke-width: 0.8"/>
      </g>
     </g>
     <g id="text_6">
      <!-- 200 -->
      <g transform="translate(63.9125 228.758896) scale(0.1 -0.1)">
       <defs>
        <path id="DejaVuSans-32" d="M 1228 531 
L 3431 531 
L 3431 0 
L 469 0 
L 469 531 
Q 828 903 1448 1529 
Q 2069 2156 2228 2338 
Q 2531 2678 2651 2914 
Q 2772 3150 2772 3378 
Q 2772 3750 2511 3984 
Q 2250 4219 1831 4219 
Q 1534 4219 1204 4116 
Q 875 4013 500 3803 
L 500 4441 
Q 881 4594 1212 4672 
Q 1544 4750 1819 4750 
Q 2544 4750 2975 4387 
Q 3406 4025 3406 3419 
Q 3406 3131 3298 2873 
Q 3191 2616 2906 2266 
Q 2828 2175 2409 1742 
Q 1991 1309 1228 531 
z
" transform="scale(0.015625)"/>
       </defs>
       <use xlink:href="#DejaVuSans-32"/>
       <use xlink:href="#DejaVuSans-30" transform="translate(63.623047 0)"/>
       <use xlink:href="#DejaVuSans-30" transform="translate(127.246094 0)"/>
      </g>
     </g>
    </g>
    <g id="ytick_4">
     <g id="line2d_6">
      <g>
       <use xlink:href="#m1505a8a35d" x="90" y="183.855223" style="stroke: #000000; stroke-width: 0.8"/>
      </g>
     </g>
     <g id="text_7">
      <!-- 300 -->
      <g transform="translate(63.9125 187.654441) scale(0.1 -0.1)">
       <defs>
        <path id="DejaVuSans-33" d="M 2597 2516 
Q 3050 2419 3304 2112 
Q 3559 1806 3559 1356 
Q 3559 666 3084 287 
Q 2609 -91 1734 -91 
Q 1441 -91 1130 -33 
Q 819 25 488 141 
L 488 750 
Q 750 597 1062 519 
Q 1375 441 1716 441 
Q 2309 441 2620 675 
Q 2931 909 2931 1356 
Q 2931 1769 2642 2001 
Q 2353 2234 1838 2234 
L 1294 2234 
L 1294 2753 
L 1863 2753 
Q 2328 2753 2575 2939 
Q 2822 3125 2822 3475 
Q 2822 3834 2567 4026 
Q 2313 4219 1838 4219 
Q 1578 4219 1281 4162 
Q 984 4106 628 3988 
L 628 4550 
Q 988 4650 1302 4700 
Q 1616 4750 1894 4750 
Q 2613 4750 3031 4423 
Q 3450 4097 3450 3541 
Q 3450 3153 3228 2886 
Q 3006 2619 2597 2516 
z
" transform="scale(0.015625)"/>
       </defs>
       <use xlink:href="#DejaVuSans-33"/>
       <use xlink:href="#DejaVuSans-30" transform="translate(63.623047 0)"/>
       <use xlink:href="#DejaVuSans-30" transform="translate(127.246094 0)"/>
      </g>
     </g>
    </g>
    <g id="ytick_5">
     <g id="line2d_7">
      <g>
       <use xlink:href="#m1505a8a35d" x="90" y="142.750768" style="stroke: #000000; stroke-width: 0.8"/>
      </g>
     </g>
     <g id="text_8">
      <!-- 400 -->
      <g transform="translate(63.9125 146.549987) scale(0.1 -0.1)">
       <defs>
        <path id="DejaVuSans-34" d="M 2419 4116 
L 825 1625 
L 2419 1625 
L 2419 4116 
z
M 2253 4666 
L 3047 4666 
L 3047 1625 
L 3713 1625 
L 3713 1100 
L 3047 1100 
L 3047 0 
L 2419 0 
L 2419 1100 
L 313 1100 
L 313 1709 
L 2253 4666 
z
" transform="scale(0.015625)"/>
       </defs>
       <use xlink:href="#DejaVuSans-34"/>
       <use xlink:href="#DejaVuSans-30" transform="translate(63.623047 0)"/>
       <use xlink:href="#DejaVuSans-30" transform="translate(127.246094 0)"/>
      </g>
     </g>
    </g>
    <g id="ytick_6">
     <g id="line2d_8">
      <g>
       <use xlink:href="#m1505a8a35d" x="90" y="101.646314" style="stroke: #000000; stroke-width: 0.8"/>
      </g>
     </g>
     <g id="text_9">
      <!-- 500 -->
      <g transform="translate(63.9125 105.445533) scale(0.1 -0.1)">
       <defs>
        <path id="DejaVuSans-35" d="M 691 4666 
L 3169 4666 
L 3169 4134 
L 1269 4134 
L 1269 2991 
Q 1406 3038 1543 3061 
Q 1681 3084 1819 3084 
Q 2600 3084 3056 2656 
Q 3513 2228 3513 1497 
Q 3513 744 3044 326 
Q 2575 -91 1722 -91 
Q 1428 -91 1123 -41 
Q 819 9 494 109 
L 494 744 
Q 775 591 1075 516 
Q 1375 441 1709 441 
Q 2250 441 2565 725 
Q 2881 1009 2881 1497 
Q 2881 1984 2565 2268 
Q 2250 2553 1709 2553 
Q 1456 2553 1204 2497 
Q 953 2441 691 2322 
L 691 4666 
z
" transform="scale(0.015625)"/>
       </defs>
       <use xlink:href="#DejaVuSans-35"/>
       <use xlink:href="#DejaVuSans-30" transform="translate(63.623047 0)"/>
       <use xlink:href="#DejaVuSans-30" transform="translate(127.246094 0)"/>
      </g>
     </g>
    </g>
    <g id="ytick_7">
     <g id="line2d_9">
      <g>
       <use xlink:href="#m1505a8a35d" x="90" y="60.54186" style="stroke: #000000; stroke-width: 0.8"/>
      </g>
     </g>
     <g id="text_10">
      <!-- 600 -->
      <g transform="translate(63.9125 64.341078) scale(0.1 -0.1)">
       <defs>
        <path id="DejaVuSans-36" d="M 2113 2584 
Q 1688 2584 1439 2293 
Q 1191 2003 1191 1497 
Q 1191 994 1439 701 
Q 1688 409 2113 409 
Q 2538 409 2786 701 
Q 3034 994 3034 1497 
Q 3034 2003 2786 2293 
Q 2538 2584 2113 2584 
z
M 3366 4563 
L 3366 3988 
Q 3128 4100 2886 4159 
Q 2644 4219 2406 4219 
Q 1781 4219 1451 3797 
Q 1122 3375 1075 2522 
Q 1259 2794 1537 2939 
Q 1816 3084 2150 3084 
Q 2853 3084 3261 2657 
Q 3669 2231 3669 1497 
Q 3669 778 3244 343 
Q 2819 -91 2113 -91 
Q 1303 -91 875 529 
Q 447 1150 447 2328 
Q 447 3434 972 4092 
Q 1497 4750 2381 4750 
Q 2619 4750 2861 4703 
Q 3103 4656 3366 4563 
z
" transform="scale(0.015625)"/>
       </defs>
       <use xlink:href="#DejaVuSans-36"/>
       <use xlink:href="#DejaVuSans-30" transform="translate(63.623047 0)"/>
       <use xlink:href="#DejaVuSans-30" transform="translate(127.246094 0)"/>
      </g>
     </g>
    </g>
    <g id="text_11">
     <!-- cont_variable -->
     <g transform="translate(57.554687 215.409375) rotate(-90) scale(0.1 -0.1)">
      <defs>
       <path id="DejaVuSans-5f" d="M 3263 -1063 
L 3263 -1509 
L -63 -1509 
L -63 -1063 
L 3263 -1063 
z
" transform="scale(0.015625)"/>
       <path id="DejaVuSans-62" d="M 3116 1747 
Q 3116 2381 2855 2742 
Q 2594 3103 2138 3103 
Q 1681 3103 1420 2742 
Q 1159 2381 1159 1747 
Q 1159 1113 1420 752 
Q 1681 391 2138 391 
Q 2594 391 2855 752 
Q 3116 1113 3116 1747 
z
M 1159 2969 
Q 1341 3281 1617 3432 
Q 1894 3584 2278 3584 
Q 2916 3584 3314 3078 
Q 3713 2572 3713 1747 
Q 3713 922 3314 415 
Q 2916 -91 2278 -91 
Q 1894 -91 1617 61 
Q 1341 213 1159 525 
L 1159 0 
L 581 0 
L 581 4863 
L 1159 4863 
L 1159 2969 
z
" transform="scale(0.015625)"/>
       <path id="DejaVuSans-6c" d="M 603 4863 
L 1178 4863 
L 1178 0 
L 603 0 
L 603 4863 
z
" transform="scale(0.015625)"/>
      </defs>
      <use xlink:href="#DejaVuSans-63"/>
      <use xlink:href="#DejaVuSans-6f" transform="translate(54.980469 0)"/>
      <use xlink:href="#DejaVuSans-6e" transform="translate(116.162109 0)"/>
      <use xlink:href="#DejaVuSans-74" transform="translate(179.541016 0)"/>
      <use xlink:href="#DejaVuSans-5f" transform="translate(218.75 0)"/>
      <use xlink:href="#DejaVuSans-76" transform="translate(268.75 0)"/>
      <use xlink:href="#DejaVuSans-61" transform="translate(327.929688 0)"/>
      <use xlink:href="#DejaVuSans-72" transform="translate(389.208984 0)"/>
      <use xlink:href="#DejaVuSans-69" transform="translate(430.322266 0)"/>
      <use xlink:href="#DejaVuSans-61" transform="translate(458.105469 0)"/>
      <use xlink:href="#DejaVuSans-62" transform="translate(519.384766 0)"/>
      <use xlink:href="#DejaVuSans-6c" transform="translate(582.861328 0)"/>
      <use xlink:href="#DejaVuSans-65" transform="translate(610.644531 0)"/>
     </g>
    </g>
   </g>
   <g id="patch_3">
    <path d="M 90 320.4 
L 90 43.2 
" style="fill: none; stroke: #000000; stroke-width: 0.8; stroke-linejoin: miter; stroke-linecap: square"/>
   </g>
   <g id="patch_4">
    <path d="M 648 320.4 
L 648 43.2 
" style="fill: none; stroke: #000000; stroke-width: 0.8; stroke-linejoin: miter; stroke-linecap: square"/>
   </g>
   <g id="patch_5">
    <path d="M 90 320.4 
L 648 320.4 
" style="fill: none; stroke: #000000; stroke-width: 0.8; stroke-linejoin: miter; stroke-linecap: square"/>
   </g>
   <g id="patch_6">
    <path d="M 90 43.2 
L 648 43.2 
" style="fill: none; stroke: #000000; stroke-width: 0.8; stroke-linejoin: miter; stroke-linecap: square"/>
   </g>
   <g id="PathCollection_1">
    <defs>
     <path id="m6d176645b2" d="M 0 2.5 
C 0.663008 2.5 1.29895 2.236584 1.767767 1.767767 
C 2.236584 1.29895 2.5 0.663008 2.5 0 
C 2.5 -0.663008 2.236584 -1.29895 1.767767 -1.767767 
C 1.29895 -2.236584 0.663008 -2.5 0 -2.5 
C -0.663008 -2.5 -1.29895 -2.236584 -1.767767 -1.767767 
C -2.236584 -1.29895 -2.5 -0.663008 -2.5 0 
C -2.5 0.663008 -2.236584 1.29895 -1.767767 1.767767 
C -1.29895 2.236584 -0.663008 2.5 0 2.5 
z
"/>
    </defs>
    <g clip-path="url(#pb158a84059)">
     <use xlink:href="#m6d176645b2" x="240.783186" y="261.953686" style="fill-opacity: 0.3"/>
     <use xlink:href="#m6d176645b2" x="216.224773" y="261.953686" style="fill-opacity: 0.3"/>
     <use xlink:href="#m6d176645b2" x="236.855508" y="261.953686" style="fill-opacity: 0.3"/>
     <use xlink:href="#m6d176645b2" x="238.516522" y="261.953686" style="fill-opacity: 0.3"/>
     <use xlink:href="#m6d176645b2" x="209.222368" y="261.953686" style="fill-opacity: 0.3"/>
     <use xlink:href="#m6d176645b2" x="252.318423" y="261.953686" style="fill-opacity: 0.3"/>
     <use xlink:href="#m6d176645b2" x="212.285156" y="257.843241" style="fill-opacity: 0.3"/>
     <use xlink:href="#m6d176645b2" x="204.335447" y="257.843241" style="fill-opacity: 0.3"/>
     <use xlink:href="#m6d176645b2" x="203.476229" y="257.843241" style="fill-opacity: 0.3"/>
     <use xlink:href="#m6d176645b2" x="225.275505" y="257.843241" style="fill-opacity: 0.3"/>
     <use xlink:href="#m6d176645b2" x="210.649226" y="257.843241" style="fill-opacity: 0.3"/>
     <use xlink:href="#m6d176645b2" x="202.720853" y="257.843241" style="fill-opacity: 0.3"/>
     <use xlink:href="#m6d176645b2" x="215.192644" y="257.843241" style="fill-opacity: 0.3"/>
     <use xlink:href="#m6d176645b2" x="223.42925" y="257.843241" style="fill-opacity: 0.3"/>
     <use xlink:href="#m6d176645b2" x="247.989972" y="183.855223" style="fill-opacity: 0.3"/>
     <use xlink:href="#m6d176645b2" x="205.324049" y="183.855223" style="fill-opacity: 0.3"/>
     <use xlink:href="#m6d176645b2" x="211.228004" y="183.855223" style="fill-opacity: 0.3"/>
     <use xlink:href="#m6d176645b2" x="245.57351" y="183.855223" style="fill-opacity: 0.3"/>
     <use xlink:href="#m6d176645b2" x="212.926287" y="101.646314" style="fill-opacity: 0.3"/>
     <use xlink:href="#m6d176645b2" x="248.174383" y="101.646314" style="fill-opacity: 0.3"/>
     <use xlink:href="#m6d176645b2" x="251.485192" y="101.646314" style="fill-opacity: 0.3"/>
     <use xlink:href="#m6d176645b2" x="235.734173" y="101.646314" style="fill-opacity: 0.3"/>
     <use xlink:href="#m6d176645b2" x="238.405135" y="101.646314" style="fill-opacity: 0.3"/>
     <use xlink:href="#m6d176645b2" x="233.419874" y="101.646314" style="fill-opacity: 0.3"/>
     <use xlink:href="#m6d176645b2" x="251.342436" y="101.646314" style="fill-opacity: 0.3"/>
     <use xlink:href="#m6d176645b2" x="219.483503" y="101.646314" style="fill-opacity: 0.3"/>
     <use xlink:href="#m6d176645b2" x="214.720148" y="101.646314" style="fill-opacity: 0.3"/>
     <use xlink:href="#m6d176645b2" x="250.284204" y="101.646314" style="fill-opacity: 0.3"/>
     <use xlink:href="#m6d176645b2" x="218.483361" y="101.646314" style="fill-opacity: 0.3"/>
     <use xlink:href="#m6d176645b2" x="225.707053" y="101.646314" style="fill-opacity: 0.3"/>
     <use xlink:href="#m6d176645b2" x="211.151783" y="101.646314" style="fill-opacity: 0.3"/>
     <use xlink:href="#m6d176645b2" x="240.91541" y="101.646314" style="fill-opacity: 0.3"/>
     <use xlink:href="#m6d176645b2" x="243.455981" y="101.646314" style="fill-opacity: 0.3"/>
     <use xlink:href="#m6d176645b2" x="245.692607" y="101.646314" style="fill-opacity: 0.3"/>
     <use xlink:href="#m6d176645b2" x="254.404635" y="101.646314" style="fill-opacity: 0.3"/>
     <use xlink:href="#m6d176645b2" x="246.573589" y="101.646314" style="fill-opacity: 0.3"/>
     <use xlink:href="#m6d176645b2" x="232.576718" y="101.646314" style="fill-opacity: 0.3"/>
     <use xlink:href="#m6d176645b2" x="219.321647" y="101.646314" style="fill-opacity: 0.3"/>
     <use xlink:href="#m6d176645b2" x="238.546552" y="101.646314" style="fill-opacity: 0.3"/>
     <use xlink:href="#m6d176645b2" x="234.455227" y="101.646314" style="fill-opacity: 0.3"/>
     <use xlink:href="#m6d176645b2" x="237.185217" y="101.646314" style="fill-opacity: 0.3"/>
     <use xlink:href="#m6d176645b2" x="225.593854" y="101.646314" style="fill-opacity: 0.3"/>
     <use xlink:href="#m6d176645b2" x="229.357596" y="101.646314" style="fill-opacity: 0.3"/>
     <use xlink:href="#m6d176645b2" x="235.882266" y="101.646314" style="fill-opacity: 0.3"/>
     <use xlink:href="#m6d176645b2" x="224.017233" y="101.646314" style="fill-opacity: 0.3"/>
     <use xlink:href="#m6d176645b2" x="231.613421" y="101.646314" style="fill-opacity: 0.3"/>
     <use xlink:href="#m6d176645b2" x="254.720142" y="101.646314" style="fill-opacity: 0.3"/>
     <use xlink:href="#m6d176645b2" x="240.058819" y="101.646314" style="fill-opacity: 0.3"/>
     <use xlink:href="#m6d176645b2" x="209.005836" y="101.646314" style="fill-opacity: 0.3"/>
     <use xlink:href="#m6d176645b2" x="233.579584" y="101.646314" style="fill-opacity: 0.3"/>
     <use xlink:href="#m6d176645b2" x="202.267817" y="101.646314" style="fill-opacity: 0.3"/>
     <use xlink:href="#m6d176645b2" x="245.455523" y="101.646314" style="fill-opacity: 0.3"/>
     <use xlink:href="#m6d176645b2" x="216.200725" y="101.646314" style="fill-opacity: 0.3"/>
     <use xlink:href="#m6d176645b2" x="248.618353" y="101.646314" style="fill-opacity: 0.3"/>
     <use xlink:href="#m6d176645b2" x="232.189694" y="101.646314" style="fill-opacity: 0.3"/>
     <use xlink:href="#m6d176645b2" x="249.963513" y="101.646314" style="fill-opacity: 0.3"/>
     <use xlink:href="#m6d176645b2" x="233.185568" y="101.646314" style="fill-opacity: 0.3"/>
     <use xlink:href="#m6d176645b2" x="231.826162" y="101.646314" style="fill-opacity: 0.3"/>
     <use xlink:href="#m6d176645b2" x="221.631993" y="101.646314" style="fill-opacity: 0.3"/>
     <use xlink:href="#m6d176645b2" x="215.906453" y="101.646314" style="fill-opacity: 0.3"/>
     <use xlink:href="#m6d176645b2" x="239.319538" y="101.646314" style="fill-opacity: 0.3"/>
     <use xlink:href="#m6d176645b2" x="221.151567" y="101.646314" style="fill-opacity: 0.3"/>
     <use xlink:href="#m6d176645b2" x="229.241049" y="101.646314" style="fill-opacity: 0.3"/>
     <use xlink:href="#m6d176645b2" x="241.539831" y="101.646314" style="fill-opacity: 0.3"/>
     <use xlink:href="#m6d176645b2" x="203.521958" y="101.646314" style="fill-opacity: 0.3"/>
     <use xlink:href="#m6d176645b2" x="234.97908" y="101.646314" style="fill-opacity: 0.3"/>
     <use xlink:href="#m6d176645b2" x="226.205282" y="101.646314" style="fill-opacity: 0.3"/>
     <use xlink:href="#m6d176645b2" x="235.971735" y="101.646314" style="fill-opacity: 0.3"/>
     <use xlink:href="#m6d176645b2" x="246.892309" y="101.646314" style="fill-opacity: 0.3"/>
     <use xlink:href="#m6d176645b2" x="241.874699" y="101.646314" style="fill-opacity: 0.3"/>
     <use xlink:href="#m6d176645b2" x="237.466791" y="130.419432" style="fill-opacity: 0.3"/>
     <use xlink:href="#m6d176645b2" x="204.455935" y="130.419432" style="fill-opacity: 0.3"/>
     <use xlink:href="#m6d176645b2" x="251.278362" y="130.419432" style="fill-opacity: 0.3"/>
     <use xlink:href="#m6d176645b2" x="236.296456" y="130.419432" style="fill-opacity: 0.3"/>
     <use xlink:href="#m6d176645b2" x="248.349383" y="130.419432" style="fill-opacity: 0.3"/>
     <use xlink:href="#m6d176645b2" x="228.255455" y="130.419432" style="fill-opacity: 0.3"/>
     <use xlink:href="#m6d176645b2" x="250.644059" y="130.419432" style="fill-opacity: 0.3"/>
     <use xlink:href="#m6d176645b2" x="216.06046" y="130.419432" style="fill-opacity: 0.3"/>
     <use xlink:href="#m6d176645b2" x="204.072721" y="130.419432" style="fill-opacity: 0.3"/>
     <use xlink:href="#m6d176645b2" x="252.852649" y="130.419432" style="fill-opacity: 0.3"/>
     <use xlink:href="#m6d176645b2" x="208.222918" y="130.419432" style="fill-opacity: 0.3"/>
     <use xlink:href="#m6d176645b2" x="240.731301" y="130.419432" style="fill-opacity: 0.3"/>
     <use xlink:href="#m6d176645b2" x="218.19708" y="130.419432" style="fill-opacity: 0.3"/>
     <use xlink:href="#m6d176645b2" x="253.338634" y="130.419432" style="fill-opacity: 0.3"/>
     <use xlink:href="#m6d176645b2" x="218.304676" y="130.419432" style="fill-opacity: 0.3"/>
     <use xlink:href="#m6d176645b2" x="219.820549" y="159.19255" style="fill-opacity: 0.3"/>
     <use xlink:href="#m6d176645b2" x="220.293651" y="159.19255" style="fill-opacity: 0.3"/>
     <use xlink:href="#m6d176645b2" x="211.571114" y="159.19255" style="fill-opacity: 0.3"/>
     <use xlink:href="#m6d176645b2" x="223.981428" y="159.19255" style="fill-opacity: 0.3"/>
     <use xlink:href="#m6d176645b2" x="231.897852" y="159.19255" style="fill-opacity: 0.3"/>
     <use xlink:href="#m6d176645b2" x="229.809268" y="204.40745" style="fill-opacity: 0.3"/>
     <use xlink:href="#m6d176645b2" x="256.437579" y="204.40745" style="fill-opacity: 0.3"/>
     <use xlink:href="#m6d176645b2" x="226.666692" y="204.40745" style="fill-opacity: 0.3"/>
     <use xlink:href="#m6d176645b2" x="245.709481" y="204.40745" style="fill-opacity: 0.3"/>
     <use xlink:href="#m6d176645b2" x="213.916635" y="204.40745" style="fill-opacity: 0.3"/>
     <use xlink:href="#m6d176645b2" x="255.293755" y="204.40745" style="fill-opacity: 0.3"/>
     <use xlink:href="#m6d176645b2" x="250.307192" y="204.40745" style="fill-opacity: 0.3"/>
     <use xlink:href="#m6d176645b2" x="222.355113" y="204.40745" style="fill-opacity: 0.3"/>
     <use xlink:href="#m6d176645b2" x="225.920414" y="204.40745" style="fill-opacity: 0.3"/>
     <use xlink:href="#m6d176645b2" x="247.930326" y="204.40745" style="fill-opacity: 0.3"/>
     <use xlink:href="#m6d176645b2" x="244.224291" y="204.40745" style="fill-opacity: 0.3"/>
     <use xlink:href="#m6d176645b2" x="250.783441" y="171.523886" style="fill-opacity: 0.3"/>
     <use xlink:href="#m6d176645b2" x="238.335442" y="171.523886" style="fill-opacity: 0.3"/>
     <use xlink:href="#m6d176645b2" x="226.395453" y="171.523886" style="fill-opacity: 0.3"/>
     <use xlink:href="#m6d176645b2" x="227.892204" y="171.523886" style="fill-opacity: 0.3"/>
     <use xlink:href="#m6d176645b2" x="245.228068" y="171.523886" style="fill-opacity: 0.3"/>
     <use xlink:href="#m6d176645b2" x="235.785252" y="171.523886" style="fill-opacity: 0.3"/>
     <use xlink:href="#m6d176645b2" x="210.719788" y="171.523886" style="fill-opacity: 0.3"/>
     <use xlink:href="#m6d176645b2" x="235.56958" y="171.523886" style="fill-opacity: 0.3"/>
     <use xlink:href="#m6d176645b2" x="205.63275" y="171.523886" style="fill-opacity: 0.3"/>
     <use xlink:href="#m6d176645b2" x="211.000774" y="171.523886" style="fill-opacity: 0.3"/>
     <use xlink:href="#m6d176645b2" x="252.694892" y="171.523886" style="fill-opacity: 0.3"/>
     <use xlink:href="#m6d176645b2" x="225.211896" y="171.523886" style="fill-opacity: 0.3"/>
     <use xlink:href="#m6d176645b2" x="248.742957" y="171.523886" style="fill-opacity: 0.3"/>
     <use xlink:href="#m6d176645b2" x="227.764838" y="171.523886" style="fill-opacity: 0.3"/>
     <use xlink:href="#m6d176645b2" x="205.204947" y="171.523886" style="fill-opacity: 0.3"/>
     <use xlink:href="#m6d176645b2" x="207.98753" y="171.523886" style="fill-opacity: 0.3"/>
     <use xlink:href="#m6d176645b2" x="201.885131" y="171.523886" style="fill-opacity: 0.3"/>
     <use xlink:href="#m6d176645b2" x="248.244401" y="171.523886" style="fill-opacity: 0.3"/>
     <use xlink:href="#m6d176645b2" x="201.851455" y="171.523886" style="fill-opacity: 0.3"/>
     <use xlink:href="#m6d176645b2" x="228.9649" y="171.523886" style="fill-opacity: 0.3"/>
     <use xlink:href="#m6d176645b2" x="254.436602" y="171.523886" style="fill-opacity: 0.3"/>
     <use xlink:href="#m6d176645b2" x="202.998919" y="171.523886" style="fill-opacity: 0.3"/>
     <use xlink:href="#m6d176645b2" x="213.103284" y="171.523886" style="fill-opacity: 0.3"/>
     <use xlink:href="#m6d176645b2" x="250.719522" y="171.523886" style="fill-opacity: 0.3"/>
     <use xlink:href="#m6d176645b2" x="220.314727" y="171.523886" style="fill-opacity: 0.3"/>
     <use xlink:href="#m6d176645b2" x="231.012887" y="171.523886" style="fill-opacity: 0.3"/>
     <use xlink:href="#m6d176645b2" x="218.334719" y="171.523886" style="fill-opacity: 0.3"/>
     <use xlink:href="#m6d176645b2" x="209.229211" y="171.523886" style="fill-opacity: 0.3"/>
     <use xlink:href="#m6d176645b2" x="237.875188" y="171.523886" style="fill-opacity: 0.3"/>
     <use xlink:href="#m6d176645b2" x="249.205872" y="171.523886" style="fill-opacity: 0.3"/>
     <use xlink:href="#m6d176645b2" x="228.402848" y="171.523886" style="fill-opacity: 0.3"/>
     <use xlink:href="#m6d176645b2" x="253.11384" y="171.523886" style="fill-opacity: 0.3"/>
     <use xlink:href="#m6d176645b2" x="203.399846" y="171.523886" style="fill-opacity: 0.3"/>
     <use xlink:href="#m6d176645b2" x="230.758455" y="171.523886" style="fill-opacity: 0.3"/>
     <use xlink:href="#m6d176645b2" x="241.300979" y="171.523886" style="fill-opacity: 0.3"/>
     <use xlink:href="#m6d176645b2" x="236.612117" y="171.523886" style="fill-opacity: 0.3"/>
     <use xlink:href="#m6d176645b2" x="229.655776" y="171.523886" style="fill-opacity: 0.3"/>
    </g>
   </g>
   <g id="PathCollection_2">
    <g clip-path="url(#pb158a84059)">
     <use xlink:href="#m6d176645b2" x="511.082749" y="261.953686" style="fill-opacity: 0.3"/>
     <use xlink:href="#m6d176645b2" x="489.941231" y="261.953686" style="fill-opacity: 0.3"/>
     <use xlink:href="#m6d176645b2" x="521.910371" y="261.953686" style="fill-opacity: 0.3"/>
     <use xlink:href="#m6d176645b2" x="533.148123" y="261.953686" style="fill-opacity: 0.3"/>
     <use xlink:href="#m6d176645b2" x="507.69266" y="261.953686" style="fill-opacity: 0.3"/>
     <use xlink:href="#m6d176645b2" x="518.734643" y="261.953686" style="fill-opacity: 0.3"/>
     <use xlink:href="#m6d176645b2" x="493.634817" y="261.953686" style="fill-opacity: 0.3"/>
     <use xlink:href="#m6d176645b2" x="526.691436" y="261.953686" style="fill-opacity: 0.3"/>
     <use xlink:href="#m6d176645b2" x="524.864964" y="261.953686" style="fill-opacity: 0.3"/>
     <use xlink:href="#m6d176645b2" x="526.644822" y="261.953686" style="fill-opacity: 0.3"/>
     <use xlink:href="#m6d176645b2" x="510.311827" y="257.843241" style="fill-opacity: 0.3"/>
     <use xlink:href="#m6d176645b2" x="516.412176" y="257.843241" style="fill-opacity: 0.3"/>
     <use xlink:href="#m6d176645b2" x="504.673893" y="257.843241" style="fill-opacity: 0.3"/>
     <use xlink:href="#m6d176645b2" x="487.313385" y="257.843241" style="fill-opacity: 0.3"/>
     <use xlink:href="#m6d176645b2" x="516.952345" y="183.855223" style="fill-opacity: 0.3"/>
     <use xlink:href="#m6d176645b2" x="487.355016" y="101.646314" style="fill-opacity: 0.3"/>
     <use xlink:href="#m6d176645b2" x="529.328311" y="101.646314" style="fill-opacity: 0.3"/>
     <use xlink:href="#m6d176645b2" x="503.480323" y="101.646314" style="fill-opacity: 0.3"/>
     <use xlink:href="#m6d176645b2" x="492.878748" y="101.646314" style="fill-opacity: 0.3"/>
     <use xlink:href="#m6d176645b2" x="530.781573" y="101.646314" style="fill-opacity: 0.3"/>
     <use xlink:href="#m6d176645b2" x="480.817925" y="101.646314" style="fill-opacity: 0.3"/>
     <use xlink:href="#m6d176645b2" x="509.679258" y="101.646314" style="fill-opacity: 0.3"/>
     <use xlink:href="#m6d176645b2" x="528.475697" y="101.646314" style="fill-opacity: 0.3"/>
     <use xlink:href="#m6d176645b2" x="503.390725" y="101.646314" style="fill-opacity: 0.3"/>
     <use xlink:href="#m6d176645b2" x="494.996979" y="101.646314" style="fill-opacity: 0.3"/>
     <use xlink:href="#m6d176645b2" x="500.046668" y="101.646314" style="fill-opacity: 0.3"/>
     <use xlink:href="#m6d176645b2" x="535.686877" y="101.646314" style="fill-opacity: 0.3"/>
     <use xlink:href="#m6d176645b2" x="515.876654" y="101.646314" style="fill-opacity: 0.3"/>
     <use xlink:href="#m6d176645b2" x="497.24013" y="101.646314" style="fill-opacity: 0.3"/>
     <use xlink:href="#m6d176645b2" x="515.428394" y="101.646314" style="fill-opacity: 0.3"/>
     <use xlink:href="#m6d176645b2" x="504.485175" y="101.646314" style="fill-opacity: 0.3"/>
     <use xlink:href="#m6d176645b2" x="503.793357" y="101.646314" style="fill-opacity: 0.3"/>
     <use xlink:href="#m6d176645b2" x="505.039012" y="101.646314" style="fill-opacity: 0.3"/>
     <use xlink:href="#m6d176645b2" x="512.898844" y="101.646314" style="fill-opacity: 0.3"/>
     <use xlink:href="#m6d176645b2" x="510.801049" y="101.646314" style="fill-opacity: 0.3"/>
     <use xlink:href="#m6d176645b2" x="491.509274" y="101.646314" style="fill-opacity: 0.3"/>
     <use xlink:href="#m6d176645b2" x="500.216602" y="101.646314" style="fill-opacity: 0.3"/>
     <use xlink:href="#m6d176645b2" x="519.288628" y="101.646314" style="fill-opacity: 0.3"/>
     <use xlink:href="#m6d176645b2" x="502.82508" y="101.646314" style="fill-opacity: 0.3"/>
     <use xlink:href="#m6d176645b2" x="490.072228" y="101.646314" style="fill-opacity: 0.3"/>
     <use xlink:href="#m6d176645b2" x="514.412265" y="101.646314" style="fill-opacity: 0.3"/>
     <use xlink:href="#m6d176645b2" x="495.896695" y="101.646314" style="fill-opacity: 0.3"/>
     <use xlink:href="#m6d176645b2" x="525.141896" y="101.646314" style="fill-opacity: 0.3"/>
     <use xlink:href="#m6d176645b2" x="528.742045" y="101.646314" style="fill-opacity: 0.3"/>
     <use xlink:href="#m6d176645b2" x="525.920324" y="101.646314" style="fill-opacity: 0.3"/>
     <use xlink:href="#m6d176645b2" x="505.966632" y="101.646314" style="fill-opacity: 0.3"/>
     <use xlink:href="#m6d176645b2" x="520.580023" y="101.646314" style="fill-opacity: 0.3"/>
     <use xlink:href="#m6d176645b2" x="496.097639" y="101.646314" style="fill-opacity: 0.3"/>
     <use xlink:href="#m6d176645b2" x="515.642926" y="101.646314" style="fill-opacity: 0.3"/>
     <use xlink:href="#m6d176645b2" x="493.917099" y="101.646314" style="fill-opacity: 0.3"/>
     <use xlink:href="#m6d176645b2" x="493.547585" y="101.646314" style="fill-opacity: 0.3"/>
     <use xlink:href="#m6d176645b2" x="493.804276" y="101.646314" style="fill-opacity: 0.3"/>
     <use xlink:href="#m6d176645b2" x="514.051297" y="101.646314" style="fill-opacity: 0.3"/>
     <use xlink:href="#m6d176645b2" x="520.394185" y="101.646314" style="fill-opacity: 0.3"/>
     <use xlink:href="#m6d176645b2" x="510.396988" y="101.646314" style="fill-opacity: 0.3"/>
     <use xlink:href="#m6d176645b2" x="480.609274" y="101.646314" style="fill-opacity: 0.3"/>
     <use xlink:href="#m6d176645b2" x="496.0327" y="101.646314" style="fill-opacity: 0.3"/>
     <use xlink:href="#m6d176645b2" x="524.23494" y="101.646314" style="fill-opacity: 0.3"/>
     <use xlink:href="#m6d176645b2" x="515.731797" y="101.646314" style="fill-opacity: 0.3"/>
     <use xlink:href="#m6d176645b2" x="507.674924" y="101.646314" style="fill-opacity: 0.3"/>
     <use xlink:href="#m6d176645b2" x="481.394094" y="130.419432" style="fill-opacity: 0.3"/>
     <use xlink:href="#m6d176645b2" x="512.726121" y="130.419432" style="fill-opacity: 0.3"/>
     <use xlink:href="#m6d176645b2" x="488.270015" y="130.419432" style="fill-opacity: 0.3"/>
     <use xlink:href="#m6d176645b2" x="518.223877" y="130.419432" style="fill-opacity: 0.3"/>
     <use xlink:href="#m6d176645b2" x="504.674314" y="204.40745" style="fill-opacity: 0.3"/>
     <use xlink:href="#m6d176645b2" x="492.417421" y="204.40745" style="fill-opacity: 0.3"/>
     <use xlink:href="#m6d176645b2" x="519.206486" y="204.40745" style="fill-opacity: 0.3"/>
     <use xlink:href="#m6d176645b2" x="531.056718" y="204.40745" style="fill-opacity: 0.3"/>
     <use xlink:href="#m6d176645b2" x="532.669234" y="204.40745" style="fill-opacity: 0.3"/>
     <use xlink:href="#m6d176645b2" x="519.902408" y="204.40745" style="fill-opacity: 0.3"/>
     <use xlink:href="#m6d176645b2" x="508.987721" y="204.40745" style="fill-opacity: 0.3"/>
     <use xlink:href="#m6d176645b2" x="504.362434" y="204.40745" style="fill-opacity: 0.3"/>
     <use xlink:href="#m6d176645b2" x="493.559593" y="204.40745" style="fill-opacity: 0.3"/>
     <use xlink:href="#m6d176645b2" x="491.450001" y="204.40745" style="fill-opacity: 0.3"/>
     <use xlink:href="#m6d176645b2" x="497.681889" y="204.40745" style="fill-opacity: 0.3"/>
     <use xlink:href="#m6d176645b2" x="508.738998" y="204.40745" style="fill-opacity: 0.3"/>
     <use xlink:href="#m6d176645b2" x="494.324897" y="171.523886" style="fill-opacity: 0.3"/>
     <use xlink:href="#m6d176645b2" x="516.239061" y="171.523886" style="fill-opacity: 0.3"/>
     <use xlink:href="#m6d176645b2" x="483.129109" y="171.523886" style="fill-opacity: 0.3"/>
     <use xlink:href="#m6d176645b2" x="517.927083" y="171.523886" style="fill-opacity: 0.3"/>
     <use xlink:href="#m6d176645b2" x="520.400967" y="171.523886" style="fill-opacity: 0.3"/>
     <use xlink:href="#m6d176645b2" x="517.52415" y="171.523886" style="fill-opacity: 0.3"/>
     <use xlink:href="#m6d176645b2" x="509.432061" y="171.523886" style="fill-opacity: 0.3"/>
     <use xlink:href="#m6d176645b2" x="481.250563" y="171.523886" style="fill-opacity: 0.3"/>
     <use xlink:href="#m6d176645b2" x="518.995984" y="171.523886" style="fill-opacity: 0.3"/>
     <use xlink:href="#m6d176645b2" x="534.394526" y="171.523886" style="fill-opacity: 0.3"/>
     <use xlink:href="#m6d176645b2" x="497.923326" y="171.523886" style="fill-opacity: 0.3"/>
     <use xlink:href="#m6d176645b2" x="531.415105" y="171.523886" style="fill-opacity: 0.3"/>
     <use xlink:href="#m6d176645b2" x="535.528891" y="171.523886" style="fill-opacity: 0.3"/>
     <use xlink:href="#m6d176645b2" x="499.080317" y="171.523886" style="fill-opacity: 0.3"/>
     <use xlink:href="#m6d176645b2" x="512.696333" y="171.523886" style="fill-opacity: 0.3"/>
     <use xlink:href="#m6d176645b2" x="535.398786" y="171.523886" style="fill-opacity: 0.3"/>
     <use xlink:href="#m6d176645b2" x="481.502631" y="171.523886" style="fill-opacity: 0.3"/>
     <use xlink:href="#m6d176645b2" x="523.602587" y="171.523886" style="fill-opacity: 0.3"/>
     <use xlink:href="#m6d176645b2" x="489.549424" y="171.523886" style="fill-opacity: 0.3"/>
     <use xlink:href="#m6d176645b2" x="531.600463" y="171.523886" style="fill-opacity: 0.3"/>
     <use xlink:href="#m6d176645b2" x="507.101751" y="171.523886" style="fill-opacity: 0.3"/>
     <use xlink:href="#m6d176645b2" x="510.826799" y="171.523886" style="fill-opacity: 0.3"/>
     <use xlink:href="#m6d176645b2" x="501.279139" y="171.523886" style="fill-opacity: 0.3"/>
    </g>
   </g>
  </g>
 </g>
 <defs>
  <clipPath id="pb158a84059">
   <rect x="90" y="43.2" width="558" height="277.2"/>
  </clipPath>
 </defs>
</svg>
